<?xml version="1.0" encoding="utf-8" standalone="no"?>
<!DOCTYPE svg PUBLIC "-//W3C//DTD SVG 1.1//EN"
  "http://www.w3.org/Graphics/SVG/1.1/DTD/svg11.dtd">
<!-- Created with matplotlib (https://matplotlib.org/) -->
<svg height="432pt" version="1.1" viewBox="0 0 1152 432" width="1152pt" xmlns="http://www.w3.org/2000/svg" xmlns:xlink="http://www.w3.org/1999/xlink">
 <metadata>
  <rdf:RDF xmlns:cc="http://creativecommons.org/ns#" xmlns:dc="http://purl.org/dc/elements/1.1/" xmlns:rdf="http://www.w3.org/1999/02/22-rdf-syntax-ns#">
   <cc:Work>
    <dc:type rdf:resource="http://purl.org/dc/dcmitype/StillImage"/>
    <dc:date>2023-07-20T10:58:16.311441</dc:date>
    <dc:format>image/svg+xml</dc:format>
    <dc:creator>
     <cc:Agent>
      <dc:title>Matplotlib v3.3.4, https://matplotlib.org/</dc:title>
     </cc:Agent>
    </dc:creator>
   </cc:Work>
  </rdf:RDF>
 </metadata>
 <defs>
  <style type="text/css">*{stroke-linecap:butt;stroke-linejoin:round;}</style>
 </defs>
 <g id="figure_1">
  <g id="patch_1">
   <path d="M 0 432 
L 1152 432 
L 1152 0 
L 0 0 
z
" style="fill:#ffffff;"/>
  </g>
  <g id="axes_1">
   <g id="patch_2">
    <path d="M 55.7 391 
L 1107.88 391 
L 1107.88 25.92 
L 55.7 25.92 
z
" style="fill:#ffffff;"/>
   </g>
   <g id="patch_3">
    <path clip-path="url(#p83a9889d34)" d="M 107.831167 210.057662 
L 103.526364 210.057662 
L 103.526364 253.37352 
L 107.831167 253.37352 
z
" style="fill:#1f77b4;"/>
   </g>
   <g id="patch_4">
    <path clip-path="url(#p83a9889d34)" d="M 113.857891 210.057662 
L 109.553088 210.057662 
L 109.553088 189.774662 
L 113.857891 189.774662 
z
" style="fill:#1f77b4;"/>
   </g>
   <g id="patch_5">
    <path clip-path="url(#p83a9889d34)" d="M 119.884616 210.057662 
L 115.579813 210.057662 
L 115.579813 118.511062 
L 119.884616 118.511062 
z
" style="fill:#1f77b4;"/>
   </g>
   <g id="patch_6">
    <path clip-path="url(#p83a9889d34)" d="M 125.91134 210.057662 
L 121.606537 210.057662 
L 121.606537 199.195004 
L 125.91134 199.195004 
z
" style="fill:#1f77b4;"/>
   </g>
   <g id="patch_7">
    <path clip-path="url(#p83a9889d34)" d="M 131.938065 210.057662 
L 127.633262 210.057662 
L 127.633262 364.089694 
L 131.938065 364.089694 
z
" style="fill:#1f77b4;"/>
   </g>
   <g id="patch_8">
    <path clip-path="url(#p83a9889d34)" d="M 137.964789 210.057662 
L 133.659986 210.057662 
L 133.659986 254.972969 
L 137.964789 254.972969 
z
" style="fill:#1f77b4;"/>
   </g>
   <g id="patch_9">
    <path clip-path="url(#p83a9889d34)" d="M 143.991514 210.057662 
L 139.686711 210.057662 
L 139.686711 283.212225 
L 143.991514 283.212225 
z
" style="fill:#1f77b4;"/>
   </g>
   <g id="patch_10">
    <path clip-path="url(#p83a9889d34)" d="M 150.018238 210.057662 
L 145.713435 210.057662 
L 145.713435 208.133769 
L 150.018238 208.133769 
z
" style="fill:#1f77b4;"/>
   </g>
   <g id="patch_11">
    <path clip-path="url(#p83a9889d34)" d="M 156.044963 210.057662 
L 151.74016 210.057662 
L 151.74016 83.493646 
L 156.044963 83.493646 
z
" style="fill:#1f77b4;"/>
   </g>
   <g id="patch_12">
    <path clip-path="url(#p83a9889d34)" d="M 162.071687 210.057662 
L 157.766884 210.057662 
L 157.766884 262.670462 
L 162.071687 262.670462 
z
" style="fill:#1f77b4;"/>
   </g>
   <g id="patch_13">
    <path clip-path="url(#p83a9889d34)" d="M 168.098412 210.057662 
L 163.793609 210.057662 
L 163.793609 229.004149 
L 168.098412 229.004149 
z
" style="fill:#1f77b4;"/>
   </g>
   <g id="patch_14">
    <path clip-path="url(#p83a9889d34)" d="M 174.125136 210.057662 
L 169.820333 210.057662 
L 169.820333 207.180087 
L 174.125136 207.180087 
z
" style="fill:#1f77b4;"/>
   </g>
   <g id="patch_15">
    <path clip-path="url(#p83a9889d34)" d="M 180.151861 210.057662 
L 175.847058 210.057662 
L 175.847058 158.439383 
L 180.151861 158.439383 
z
" style="fill:#1f77b4;"/>
   </g>
   <g id="patch_16">
    <path clip-path="url(#p83a9889d34)" d="M 186.178585 210.057662 
L 181.873782 210.057662 
L 181.873782 114.784295 
L 186.178585 114.784295 
z
" style="fill:#1f77b4;"/>
   </g>
   <g id="patch_17">
    <path clip-path="url(#p83a9889d34)" d="M 192.20531 210.057662 
L 187.900507 210.057662 
L 187.900507 163.945644 
L 192.20531 163.945644 
z
" style="fill:#1f77b4;"/>
   </g>
   <g id="patch_18">
    <path clip-path="url(#p83a9889d34)" d="M 198.232034 210.057662 
L 193.927231 210.057662 
L 193.927231 46.301562 
L 198.232034 46.301562 
z
" style="fill:#1f77b4;"/>
   </g>
   <g id="patch_19">
    <path clip-path="url(#p83a9889d34)" d="M 204.258759 210.057662 
L 199.953955 210.057662 
L 199.953955 197.120355 
L 204.258759 197.120355 
z
" style="fill:#1f77b4;"/>
   </g>
   <g id="patch_20">
    <path clip-path="url(#p83a9889d34)" d="M 210.285483 210.057662 
L 205.98068 210.057662 
L 205.98068 110.784488 
L 210.285483 110.784488 
z
" style="fill:#1f77b4;"/>
   </g>
   <g id="patch_21">
    <path clip-path="url(#p83a9889d34)" d="M 216.312208 210.057662 
L 212.007404 210.057662 
L 212.007404 193.115868 
L 216.312208 193.115868 
z
" style="fill:#1f77b4;"/>
   </g>
   <g id="patch_22">
    <path clip-path="url(#p83a9889d34)" d="M 222.338932 210.057662 
L 218.034129 210.057662 
L 218.034129 181.209272 
L 222.338932 181.209272 
z
" style="fill:#1f77b4;"/>
   </g>
   <g id="patch_23">
    <path clip-path="url(#p83a9889d34)" d="M 228.365657 210.057662 
L 224.060853 210.057662 
L 224.060853 181.102771 
L 228.365657 181.102771 
z
" style="fill:#1f77b4;"/>
   </g>
   <g id="patch_24">
    <path clip-path="url(#p83a9889d34)" d="M 234.392381 210.057662 
L 230.087578 210.057662 
L 230.087578 142.181331 
L 234.392381 142.181331 
z
" style="fill:#1f77b4;"/>
   </g>
   <g id="patch_25">
    <path clip-path="url(#p83a9889d34)" d="M 240.419106 210.057662 
L 236.114302 210.057662 
L 236.114302 146.355415 
L 240.419106 146.355415 
z
" style="fill:#1f77b4;"/>
   </g>
   <g id="patch_26">
    <path clip-path="url(#p83a9889d34)" d="M 246.44583 210.057662 
L 242.141027 210.057662 
L 242.141027 207.355266 
L 246.44583 207.355266 
z
" style="fill:#1f77b4;"/>
   </g>
   <g id="patch_27">
    <path clip-path="url(#p83a9889d34)" d="M 252.472555 210.057662 
L 248.167751 210.057662 
L 248.167751 53.530348 
L 252.472555 53.530348 
z
" style="fill:#1f77b4;"/>
   </g>
   <g id="patch_28">
    <path clip-path="url(#p83a9889d34)" d="M 258.499279 210.057662 
L 254.194476 210.057662 
L 254.194476 140.516203 
L 258.499279 140.516203 
z
" style="fill:#1f77b4;"/>
   </g>
   <g id="patch_29">
    <path clip-path="url(#p83a9889d34)" d="M 264.526004 210.057662 
L 260.2212 210.057662 
L 260.2212 77.526665 
L 264.526004 77.526665 
z
" style="fill:#1f77b4;"/>
   </g>
   <g id="patch_30">
    <path clip-path="url(#p83a9889d34)" d="M 270.552728 210.057662 
L 266.247925 210.057662 
L 266.247925 48.932243 
L 270.552728 48.932243 
z
" style="fill:#1f77b4;"/>
   </g>
   <g id="patch_31">
    <path clip-path="url(#p83a9889d34)" d="M 276.579453 210.057662 
L 272.274649 210.057662 
L 272.274649 142.568271 
L 276.579453 142.568271 
z
" style="fill:#1f77b4;"/>
   </g>
   <g id="patch_32">
    <path clip-path="url(#p83a9889d34)" d="M 282.606177 210.057662 
L 278.301374 210.057662 
L 278.301374 121.055935 
L 282.606177 121.055935 
z
" style="fill:#1f77b4;"/>
   </g>
   <g id="patch_33">
    <path clip-path="url(#p83a9889d34)" d="M 288.632902 210.057662 
L 284.328098 210.057662 
L 284.328098 216.813216 
L 288.632902 216.813216 
z
" style="fill:#1f77b4;"/>
   </g>
   <g id="patch_34">
    <path clip-path="url(#p83a9889d34)" d="M 294.659626 210.057662 
L 290.354823 210.057662 
L 290.354823 154.637039 
L 294.659626 154.637039 
z
" style="fill:#1f77b4;"/>
   </g>
   <g id="patch_35">
    <path clip-path="url(#p83a9889d34)" d="M 300.686351 210.057662 
L 296.381547 210.057662 
L 296.381547 115.723929 
L 300.686351 115.723929 
z
" style="fill:#1f77b4;"/>
   </g>
   <g id="patch_36">
    <path clip-path="url(#p83a9889d34)" d="M 306.713075 210.057662 
L 302.408272 210.057662 
L 302.408272 250.409171 
L 306.713075 250.409171 
z
" style="fill:#1f77b4;"/>
   </g>
   <g id="patch_37">
    <path clip-path="url(#p83a9889d34)" d="M 312.7398 210.057662 
L 308.434996 210.057662 
L 308.434996 280.791815 
L 312.7398 280.791815 
z
" style="fill:#1f77b4;"/>
   </g>
   <g id="patch_38">
    <path clip-path="url(#p83a9889d34)" d="M 318.766524 210.057662 
L 314.461721 210.057662 
L 314.461721 194.270893 
L 318.766524 194.270893 
z
" style="fill:#1f77b4;"/>
   </g>
   <g id="patch_39">
    <path clip-path="url(#p83a9889d34)" d="M 324.793249 210.057662 
L 320.488445 210.057662 
L 320.488445 201.794404 
L 324.793249 201.794404 
z
" style="fill:#1f77b4;"/>
   </g>
   <g id="patch_40">
    <path clip-path="url(#p83a9889d34)" d="M 330.819973 210.057662 
L 326.51517 210.057662 
L 326.51517 204.257617 
L 330.819973 204.257617 
z
" style="fill:#1f77b4;"/>
   </g>
   <g id="patch_41">
    <path clip-path="url(#p83a9889d34)" d="M 336.846697 210.057662 
L 332.541894 210.057662 
L 332.541894 193.82417 
L 336.846697 193.82417 
z
" style="fill:#1f77b4;"/>
   </g>
   <g id="patch_42">
    <path clip-path="url(#p83a9889d34)" d="M 342.873422 210.057662 
L 338.568619 210.057662 
L 338.568619 124.815068 
L 342.873422 124.815068 
z
" style="fill:#1f77b4;"/>
   </g>
   <g id="patch_43">
    <path clip-path="url(#p83a9889d34)" d="M 348.900146 210.057662 
L 344.595343 210.057662 
L 344.595343 126.186649 
L 348.900146 126.186649 
z
" style="fill:#1f77b4;"/>
   </g>
   <g id="patch_44">
    <path clip-path="url(#p83a9889d34)" d="M 354.926871 210.057662 
L 350.622068 210.057662 
L 350.622068 254.070607 
L 354.926871 254.070607 
z
" style="fill:#1f77b4;"/>
   </g>
   <g id="patch_45">
    <path clip-path="url(#p83a9889d34)" d="M 360.953595 210.057662 
L 356.648792 210.057662 
L 356.648792 253.143103 
L 360.953595 253.143103 
z
" style="fill:#1f77b4;"/>
   </g>
   <g id="patch_46">
    <path clip-path="url(#p83a9889d34)" d="M 366.98032 210.057662 
L 362.675517 210.057662 
L 362.675517 286.616395 
L 366.98032 286.616395 
z
" style="fill:#1f77b4;"/>
   </g>
   <g id="patch_47">
    <path clip-path="url(#p83a9889d34)" d="M 373.007044 210.057662 
L 368.702241 210.057662 
L 368.702241 230.099805 
L 373.007044 230.099805 
z
" style="fill:#1f77b4;"/>
   </g>
   <g id="patch_48">
    <path clip-path="url(#p83a9889d34)" d="M 379.033769 210.057662 
L 374.728966 210.057662 
L 374.728966 130.735095 
L 379.033769 130.735095 
z
" style="fill:#1f77b4;"/>
   </g>
   <g id="patch_49">
    <path clip-path="url(#p83a9889d34)" d="M 385.060493 210.057662 
L 380.75569 210.057662 
L 380.75569 149.045264 
L 385.060493 149.045264 
z
" style="fill:#1f77b4;"/>
   </g>
   <g id="patch_50">
    <path clip-path="url(#p83a9889d34)" d="M 391.087218 210.057662 
L 386.782415 210.057662 
L 386.782415 288.235059 
L 391.087218 288.235059 
z
" style="fill:#1f77b4;"/>
   </g>
   <g id="patch_51">
    <path clip-path="url(#p83a9889d34)" d="M 397.113942 210.057662 
L 392.809139 210.057662 
L 392.809139 178.888029 
L 397.113942 178.888029 
z
" style="fill:#1f77b4;"/>
   </g>
   <g id="patch_52">
    <path clip-path="url(#p83a9889d34)" d="M 403.140667 210.057662 
L 398.835864 210.057662 
L 398.835864 333.573972 
L 403.140667 333.573972 
z
" style="fill:#1f77b4;"/>
   </g>
   <g id="patch_53">
    <path clip-path="url(#p83a9889d34)" d="M 409.167391 210.057662 
L 404.862588 210.057662 
L 404.862588 272.985423 
L 409.167391 272.985423 
z
" style="fill:#1f77b4;"/>
   </g>
   <g id="patch_54">
    <path clip-path="url(#p83a9889d34)" d="M 415.194116 210.057662 
L 410.889313 210.057662 
L 410.889313 245.587524 
L 415.194116 245.587524 
z
" style="fill:#1f77b4;"/>
   </g>
   <g id="patch_55">
    <path clip-path="url(#p83a9889d34)" d="M 421.22084 210.057662 
L 416.916037 210.057662 
L 416.916037 133.734326 
L 421.22084 133.734326 
z
" style="fill:#1f77b4;"/>
   </g>
   <g id="patch_56">
    <path clip-path="url(#p83a9889d34)" d="M 427.247565 210.057662 
L 422.942762 210.057662 
L 422.942762 216.549941 
L 427.247565 216.549941 
z
" style="fill:#1f77b4;"/>
   </g>
   <g id="patch_57">
    <path clip-path="url(#p83a9889d34)" d="M 433.274289 210.057662 
L 428.969486 210.057662 
L 428.969486 262.455136 
L 433.274289 262.455136 
z
" style="fill:#1f77b4;"/>
   </g>
   <g id="patch_58">
    <path clip-path="url(#p83a9889d34)" d="M 439.301014 210.057662 
L 434.996211 210.057662 
L 434.996211 149.860091 
L 439.301014 149.860091 
z
" style="fill:#1f77b4;"/>
   </g>
   <g id="patch_59">
    <path clip-path="url(#p83a9889d34)" d="M 445.327738 210.057662 
L 441.022935 210.057662 
L 441.022935 250.693812 
L 445.327738 250.693812 
z
" style="fill:#1f77b4;"/>
   </g>
   <g id="patch_60">
    <path clip-path="url(#p83a9889d34)" d="M 451.354463 210.057662 
L 447.04966 210.057662 
L 447.04966 229.316181 
L 451.354463 229.316181 
z
" style="fill:#1f77b4;"/>
   </g>
   <g id="patch_61">
    <path clip-path="url(#p83a9889d34)" d="M 457.381187 210.057662 
L 453.076384 210.057662 
L 453.076384 176.159438 
L 457.381187 176.159438 
z
" style="fill:#1f77b4;"/>
   </g>
   <g id="patch_62">
    <path clip-path="url(#p83a9889d34)" d="M 463.407912 210.057662 
L 459.103109 210.057662 
L 459.103109 258.407762 
L 463.407912 258.407762 
z
" style="fill:#1f77b4;"/>
   </g>
   <g id="patch_63">
    <path clip-path="url(#p83a9889d34)" d="M 469.434636 210.057662 
L 465.129833 210.057662 
L 465.129833 149.570793 
L 469.434636 149.570793 
z
" style="fill:#1f77b4;"/>
   </g>
   <g id="patch_64">
    <path clip-path="url(#p83a9889d34)" d="M 475.461361 210.057662 
L 471.156558 210.057662 
L 471.156558 242.169456 
L 475.461361 242.169456 
z
" style="fill:#1f77b4;"/>
   </g>
   <g id="patch_65">
    <path clip-path="url(#p83a9889d34)" d="M 481.488085 210.057662 
L 477.183282 210.057662 
L 477.183282 221.529811 
L 481.488085 221.529811 
z
" style="fill:#1f77b4;"/>
   </g>
   <g id="patch_66">
    <path clip-path="url(#p83a9889d34)" d="M 487.51481 210.057662 
L 483.210007 210.057662 
L 483.210007 339.486364 
L 487.51481 339.486364 
z
" style="fill:#1f77b4;"/>
   </g>
   <g id="patch_67">
    <path clip-path="url(#p83a9889d34)" d="M 493.541534 210.057662 
L 489.236731 210.057662 
L 489.236731 187.044315 
L 493.541534 187.044315 
z
" style="fill:#1f77b4;"/>
   </g>
   <g id="patch_68">
    <path clip-path="url(#p83a9889d34)" d="M 499.568259 210.057662 
L 495.263456 210.057662 
L 495.263456 307.209928 
L 499.568259 307.209928 
z
" style="fill:#1f77b4;"/>
   </g>
   <g id="patch_69">
    <path clip-path="url(#p83a9889d34)" d="M 505.594983 210.057662 
L 501.29018 210.057662 
L 501.29018 310.393533 
L 505.594983 310.393533 
z
" style="fill:#1f77b4;"/>
   </g>
   <g id="patch_70">
    <path clip-path="url(#p83a9889d34)" d="M 511.621708 210.057662 
L 507.316905 210.057662 
L 507.316905 308.782517 
L 511.621708 308.782517 
z
" style="fill:#1f77b4;"/>
   </g>
   <g id="patch_71">
    <path clip-path="url(#p83a9889d34)" d="M 517.648432 210.057662 
L 513.343629 210.057662 
L 513.343629 240.552473 
L 517.648432 240.552473 
z
" style="fill:#1f77b4;"/>
   </g>
   <g id="patch_72">
    <path clip-path="url(#p83a9889d34)" d="M 523.675157 210.057662 
L 519.370353 210.057662 
L 519.370353 260.034751 
L 523.675157 260.034751 
z
" style="fill:#1f77b4;"/>
   </g>
   <g id="patch_73">
    <path clip-path="url(#p83a9889d34)" d="M 529.701881 210.057662 
L 525.397078 210.057662 
L 525.397078 374.405455 
L 529.701881 374.405455 
z
" style="fill:#1f77b4;"/>
   </g>
   <g id="patch_74">
    <path clip-path="url(#p83a9889d34)" d="M 535.728606 210.057662 
L 531.423802 210.057662 
L 531.423802 155.5548 
L 535.728606 155.5548 
z
" style="fill:#1f77b4;"/>
   </g>
   <g id="patch_75">
    <path clip-path="url(#p83a9889d34)" d="M 541.75533 210.057662 
L 537.450527 210.057662 
L 537.450527 101.322743 
L 541.75533 101.322743 
z
" style="fill:#1f77b4;"/>
   </g>
   <g id="patch_76">
    <path clip-path="url(#p83a9889d34)" d="M 547.782055 210.057662 
L 543.477251 210.057662 
L 543.477251 96.149442 
L 547.782055 96.149442 
z
" style="fill:#1f77b4;"/>
   </g>
   <g id="patch_77">
    <path clip-path="url(#p83a9889d34)" d="M 553.808779 210.057662 
L 549.503976 210.057662 
L 549.503976 184.183038 
L 553.808779 184.183038 
z
" style="fill:#1f77b4;"/>
   </g>
   <g id="patch_78">
    <path clip-path="url(#p83a9889d34)" d="M 559.835504 210.057662 
L 555.5307 210.057662 
L 555.5307 272.463407 
L 559.835504 272.463407 
z
" style="fill:#1f77b4;"/>
   </g>
   <g id="patch_79">
    <path clip-path="url(#p83a9889d34)" d="M 565.862228 210.057662 
L 561.557425 210.057662 
L 561.557425 212.335936 
L 565.862228 212.335936 
z
" style="fill:#1f77b4;"/>
   </g>
   <g id="patch_80">
    <path clip-path="url(#p83a9889d34)" d="M 571.888953 210.057662 
L 567.584149 210.057662 
L 567.584149 177.057725 
L 571.888953 177.057725 
z
" style="fill:#1f77b4;"/>
   </g>
   <g id="patch_81">
    <path clip-path="url(#p83a9889d34)" d="M 577.915677 210.057662 
L 573.610874 210.057662 
L 573.610874 249.774653 
L 577.915677 249.774653 
z
" style="fill:#1f77b4;"/>
   </g>
   <g id="patch_82">
    <path clip-path="url(#p83a9889d34)" d="M 583.942402 210.057662 
L 579.637598 210.057662 
L 579.637598 235.904733 
L 583.942402 235.904733 
z
" style="fill:#1f77b4;"/>
   </g>
   <g id="patch_83">
    <path clip-path="url(#p83a9889d34)" d="M 589.969126 210.057662 
L 585.664323 210.057662 
L 585.664323 232.185379 
L 589.969126 232.185379 
z
" style="fill:#1f77b4;"/>
   </g>
   <g id="patch_84">
    <path clip-path="url(#p83a9889d34)" d="M 595.995851 210.057662 
L 591.691047 210.057662 
L 591.691047 293.932074 
L 595.995851 293.932074 
z
" style="fill:#1f77b4;"/>
   </g>
   <g id="patch_85">
    <path clip-path="url(#p83a9889d34)" d="M 602.022575 210.057662 
L 597.717772 210.057662 
L 597.717772 148.551816 
L 602.022575 148.551816 
z
" style="fill:#1f77b4;"/>
   </g>
   <g id="patch_86">
    <path clip-path="url(#p83a9889d34)" d="M 608.0493 210.057662 
L 603.744496 210.057662 
L 603.744496 268.871105 
L 608.0493 268.871105 
z
" style="fill:#1f77b4;"/>
   </g>
   <g id="patch_87">
    <path clip-path="url(#p83a9889d34)" d="M 614.076024 210.057662 
L 609.771221 210.057662 
L 609.771221 292.159977 
L 614.076024 292.159977 
z
" style="fill:#1f77b4;"/>
   </g>
   <g id="patch_88">
    <path clip-path="url(#p83a9889d34)" d="M 620.102749 210.057662 
L 615.797945 210.057662 
L 615.797945 169.150372 
L 620.102749 169.150372 
z
" style="fill:#1f77b4;"/>
   </g>
   <g id="patch_89">
    <path clip-path="url(#p83a9889d34)" d="M 626.129473 210.057662 
L 621.82467 210.057662 
L 621.82467 137.856975 
L 626.129473 137.856975 
z
" style="fill:#1f77b4;"/>
   </g>
   <g id="patch_90">
    <path clip-path="url(#p83a9889d34)" d="M 632.156198 210.057662 
L 627.851394 210.057662 
L 627.851394 259.952899 
L 632.156198 259.952899 
z
" style="fill:#1f77b4;"/>
   </g>
   <g id="patch_91">
    <path clip-path="url(#p83a9889d34)" d="M 638.182922 210.057662 
L 633.878119 210.057662 
L 633.878119 184.04841 
L 638.182922 184.04841 
z
" style="fill:#1f77b4;"/>
   </g>
   <g id="patch_92">
    <path clip-path="url(#p83a9889d34)" d="M 644.209647 210.057662 
L 639.904843 210.057662 
L 639.904843 330.182656 
L 644.209647 330.182656 
z
" style="fill:#1f77b4;"/>
   </g>
   <g id="patch_93">
    <path clip-path="url(#p83a9889d34)" d="M 650.236371 210.057662 
L 645.931568 210.057662 
L 645.931568 133.88233 
L 650.236371 133.88233 
z
" style="fill:#1f77b4;"/>
   </g>
   <g id="patch_94">
    <path clip-path="url(#p83a9889d34)" d="M 656.263095 210.057662 
L 651.958292 210.057662 
L 651.958292 123.638469 
L 656.263095 123.638469 
z
" style="fill:#1f77b4;"/>
   </g>
   <g id="patch_95">
    <path clip-path="url(#p83a9889d34)" d="M 662.28982 210.057662 
L 657.985017 210.057662 
L 657.985017 197.472497 
L 662.28982 197.472497 
z
" style="fill:#1f77b4;"/>
   </g>
   <g id="patch_96">
    <path clip-path="url(#p83a9889d34)" d="M 668.316544 210.057662 
L 664.011741 210.057662 
L 664.011741 298.092654 
L 668.316544 298.092654 
z
" style="fill:#1f77b4;"/>
   </g>
   <g id="patch_97">
    <path clip-path="url(#p83a9889d34)" d="M 674.343269 210.057662 
L 670.038466 210.057662 
L 670.038466 140.356957 
L 674.343269 140.356957 
z
" style="fill:#1f77b4;"/>
   </g>
   <g id="patch_98">
    <path clip-path="url(#p83a9889d34)" d="M 680.369993 210.057662 
L 676.06519 210.057662 
L 676.06519 42.514545 
L 680.369993 42.514545 
z
" style="fill:#1f77b4;"/>
   </g>
   <g id="patch_99">
    <path clip-path="url(#p83a9889d34)" d="M 686.396718 210.057662 
L 682.091915 210.057662 
L 682.091915 288.55193 
L 686.396718 288.55193 
z
" style="fill:#1f77b4;"/>
   </g>
   <g id="patch_100">
    <path clip-path="url(#p83a9889d34)" d="M 692.423442 210.057662 
L 688.118639 210.057662 
L 688.118639 169.036456 
L 692.423442 169.036456 
z
" style="fill:#1f77b4;"/>
   </g>
   <g id="patch_101">
    <path clip-path="url(#p83a9889d34)" d="M 698.450167 210.057662 
L 694.145364 210.057662 
L 694.145364 264.68045 
L 698.450167 264.68045 
z
" style="fill:#1f77b4;"/>
   </g>
   <g id="patch_102">
    <path clip-path="url(#p83a9889d34)" d="M 704.476891 210.057662 
L 700.172088 210.057662 
L 700.172088 213.570457 
L 704.476891 213.570457 
z
" style="fill:#1f77b4;"/>
   </g>
   <g id="patch_103">
    <path clip-path="url(#p83a9889d34)" d="M 710.503616 210.057662 
L 706.198813 210.057662 
L 706.198813 195.49498 
L 710.503616 195.49498 
z
" style="fill:#1f77b4;"/>
   </g>
   <g id="patch_104">
    <path clip-path="url(#p83a9889d34)" d="M 716.53034 210.057662 
L 712.225537 210.057662 
L 712.225537 64.321998 
L 716.53034 64.321998 
z
" style="fill:#1f77b4;"/>
   </g>
   <g id="patch_105">
    <path clip-path="url(#p83a9889d34)" d="M 722.557065 210.057662 
L 718.252262 210.057662 
L 718.252262 147.880281 
L 722.557065 147.880281 
z
" style="fill:#1f77b4;"/>
   </g>
   <g id="patch_106">
    <path clip-path="url(#p83a9889d34)" d="M 728.583789 210.057662 
L 724.278986 210.057662 
L 724.278986 178.815523 
L 728.583789 178.815523 
z
" style="fill:#1f77b4;"/>
   </g>
   <g id="patch_107">
    <path clip-path="url(#p83a9889d34)" d="M 734.610514 210.057662 
L 730.305711 210.057662 
L 730.305711 134.07592 
L 734.610514 134.07592 
z
" style="fill:#1f77b4;"/>
   </g>
   <g id="patch_108">
    <path clip-path="url(#p83a9889d34)" d="M 740.637238 210.057662 
L 736.332435 210.057662 
L 736.332435 216.840325 
L 740.637238 216.840325 
z
" style="fill:#1f77b4;"/>
   </g>
   <g id="patch_109">
    <path clip-path="url(#p83a9889d34)" d="M 746.663963 210.057662 
L 742.35916 210.057662 
L 742.35916 255.985304 
L 746.663963 255.985304 
z
" style="fill:#1f77b4;"/>
   </g>
   <g id="patch_110">
    <path clip-path="url(#p83a9889d34)" d="M 752.690687 210.057662 
L 748.385884 210.057662 
L 748.385884 332.946255 
L 752.690687 332.946255 
z
" style="fill:#1f77b4;"/>
   </g>
   <g id="patch_111">
    <path clip-path="url(#p83a9889d34)" d="M 758.717412 210.057662 
L 754.412609 210.057662 
L 754.412609 306.711227 
L 758.717412 306.711227 
z
" style="fill:#1f77b4;"/>
   </g>
   <g id="patch_112">
    <path clip-path="url(#p83a9889d34)" d="M 764.744136 210.057662 
L 760.439333 210.057662 
L 760.439333 187.875066 
L 764.744136 187.875066 
z
" style="fill:#1f77b4;"/>
   </g>
   <g id="patch_113">
    <path clip-path="url(#p83a9889d34)" d="M 770.770861 210.057662 
L 766.466058 210.057662 
L 766.466058 236.671069 
L 770.770861 236.671069 
z
" style="fill:#1f77b4;"/>
   </g>
   <g id="patch_114">
    <path clip-path="url(#p83a9889d34)" d="M 776.797585 210.057662 
L 772.492782 210.057662 
L 772.492782 201.145616 
L 776.797585 201.145616 
z
" style="fill:#1f77b4;"/>
   </g>
   <g id="patch_115">
    <path clip-path="url(#p83a9889d34)" d="M 782.82431 210.057662 
L 778.519507 210.057662 
L 778.519507 265.270758 
L 782.82431 265.270758 
z
" style="fill:#1f77b4;"/>
   </g>
   <g id="patch_116">
    <path clip-path="url(#p83a9889d34)" d="M 788.851034 210.057662 
L 784.546231 210.057662 
L 784.546231 125.112131 
L 788.851034 125.112131 
z
" style="fill:#1f77b4;"/>
   </g>
   <g id="patch_117">
    <path clip-path="url(#p83a9889d34)" d="M 794.877759 210.057662 
L 790.572956 210.057662 
L 790.572956 222.063235 
L 794.877759 222.063235 
z
" style="fill:#1f77b4;"/>
   </g>
   <g id="patch_118">
    <path clip-path="url(#p83a9889d34)" d="M 800.904483 210.057662 
L 796.59968 210.057662 
L 796.59968 315.282665 
L 800.904483 315.282665 
z
" style="fill:#1f77b4;"/>
   </g>
   <g id="patch_119">
    <path clip-path="url(#p83a9889d34)" d="M 806.931208 210.057662 
L 802.626405 210.057662 
L 802.626405 249.276234 
L 806.931208 249.276234 
z
" style="fill:#1f77b4;"/>
   </g>
   <g id="patch_120">
    <path clip-path="url(#p83a9889d34)" d="M 812.957932 210.057662 
L 808.653129 210.057662 
L 808.653129 244.126226 
L 812.957932 244.126226 
z
" style="fill:#1f77b4;"/>
   </g>
   <g id="patch_121">
    <path clip-path="url(#p83a9889d34)" d="M 818.984657 210.057662 
L 814.679854 210.057662 
L 814.679854 280.407576 
L 818.984657 280.407576 
z
" style="fill:#1f77b4;"/>
   </g>
   <g id="patch_122">
    <path clip-path="url(#p83a9889d34)" d="M 825.011381 210.057662 
L 820.706578 210.057662 
L 820.706578 164.989971 
L 825.011381 164.989971 
z
" style="fill:#1f77b4;"/>
   </g>
   <g id="patch_123">
    <path clip-path="url(#p83a9889d34)" d="M 831.038106 210.057662 
L 826.733303 210.057662 
L 826.733303 364.820723 
L 831.038106 364.820723 
z
" style="fill:#1f77b4;"/>
   </g>
   <g id="patch_124">
    <path clip-path="url(#p83a9889d34)" d="M 837.06483 210.057662 
L 832.760027 210.057662 
L 832.760027 241.338087 
L 837.06483 241.338087 
z
" style="fill:#1f77b4;"/>
   </g>
   <g id="patch_125">
    <path clip-path="url(#p83a9889d34)" d="M 843.091555 210.057662 
L 838.786751 210.057662 
L 838.786751 196.488566 
L 843.091555 196.488566 
z
" style="fill:#1f77b4;"/>
   </g>
   <g id="patch_126">
    <path clip-path="url(#p83a9889d34)" d="M 849.118279 210.057662 
L 844.813476 210.057662 
L 844.813476 165.795763 
L 849.118279 165.795763 
z
" style="fill:#1f77b4;"/>
   </g>
   <g id="patch_127">
    <path clip-path="url(#p83a9889d34)" d="M 855.145004 210.057662 
L 850.8402 210.057662 
L 850.8402 188.877741 
L 855.145004 188.877741 
z
" style="fill:#1f77b4;"/>
   </g>
   <g id="patch_128">
    <path clip-path="url(#p83a9889d34)" d="M 861.171728 210.057662 
L 856.866925 210.057662 
L 856.866925 269.66911 
L 861.171728 269.66911 
z
" style="fill:#1f77b4;"/>
   </g>
   <g id="patch_129">
    <path clip-path="url(#p83a9889d34)" d="M 867.198453 210.057662 
L 862.893649 210.057662 
L 862.893649 236.533832 
L 867.198453 236.533832 
z
" style="fill:#1f77b4;"/>
   </g>
   <g id="patch_130">
    <path clip-path="url(#p83a9889d34)" d="M 873.225177 210.057662 
L 868.920374 210.057662 
L 868.920374 159.516057 
L 873.225177 159.516057 
z
" style="fill:#1f77b4;"/>
   </g>
   <g id="patch_131">
    <path clip-path="url(#p83a9889d34)" d="M 879.251902 210.057662 
L 874.947098 210.057662 
L 874.947098 82.31228 
L 879.251902 82.31228 
z
" style="fill:#1f77b4;"/>
   </g>
   <g id="patch_132">
    <path clip-path="url(#p83a9889d34)" d="M 885.278626 210.057662 
L 880.973823 210.057662 
L 880.973823 253.820711 
L 885.278626 253.820711 
z
" style="fill:#1f77b4;"/>
   </g>
   <g id="patch_133">
    <path clip-path="url(#p83a9889d34)" d="M 891.305351 210.057662 
L 887.000547 210.057662 
L 887.000547 349.475639 
L 891.305351 349.475639 
z
" style="fill:#1f77b4;"/>
   </g>
   <g id="patch_134">
    <path clip-path="url(#p83a9889d34)" d="M 897.332075 210.057662 
L 893.027272 210.057662 
L 893.027272 361.939085 
L 897.332075 361.939085 
z
" style="fill:#1f77b4;"/>
   </g>
   <g id="patch_135">
    <path clip-path="url(#p83a9889d34)" d="M 903.3588 210.057662 
L 899.053996 210.057662 
L 899.053996 110.538366 
L 903.3588 110.538366 
z
" style="fill:#1f77b4;"/>
   </g>
   <g id="patch_136">
    <path clip-path="url(#p83a9889d34)" d="M 909.385524 210.057662 
L 905.080721 210.057662 
L 905.080721 323.287813 
L 909.385524 323.287813 
z
" style="fill:#1f77b4;"/>
   </g>
   <g id="patch_137">
    <path clip-path="url(#p83a9889d34)" d="M 915.412249 210.057662 
L 911.107445 210.057662 
L 911.107445 287.8217 
L 915.412249 287.8217 
z
" style="fill:#1f77b4;"/>
   </g>
   <g id="patch_138">
    <path clip-path="url(#p83a9889d34)" d="M 921.438973 210.057662 
L 917.13417 210.057662 
L 917.13417 140.924819 
L 921.438973 140.924819 
z
" style="fill:#1f77b4;"/>
   </g>
   <g id="patch_139">
    <path clip-path="url(#p83a9889d34)" d="M 927.465698 210.057662 
L 923.160894 210.057662 
L 923.160894 269.283887 
L 927.465698 269.283887 
z
" style="fill:#1f77b4;"/>
   </g>
   <g id="patch_140">
    <path clip-path="url(#p83a9889d34)" d="M 933.492422 210.057662 
L 929.187619 210.057662 
L 929.187619 152.068198 
L 933.492422 152.068198 
z
" style="fill:#1f77b4;"/>
   </g>
   <g id="patch_141">
    <path clip-path="url(#p83a9889d34)" d="M 939.519147 210.057662 
L 935.214343 210.057662 
L 935.214343 117.152565 
L 939.519147 117.152565 
z
" style="fill:#1f77b4;"/>
   </g>
   <g id="patch_142">
    <path clip-path="url(#p83a9889d34)" d="M 945.545871 210.057662 
L 941.241068 210.057662 
L 941.241068 144.731001 
L 945.545871 144.731001 
z
" style="fill:#1f77b4;"/>
   </g>
   <g id="patch_143">
    <path clip-path="url(#p83a9889d34)" d="M 951.572596 210.057662 
L 947.267792 210.057662 
L 947.267792 115.499318 
L 951.572596 115.499318 
z
" style="fill:#1f77b4;"/>
   </g>
   <g id="patch_144">
    <path clip-path="url(#p83a9889d34)" d="M 957.59932 210.057662 
L 953.294517 210.057662 
L 953.294517 255.177052 
L 957.59932 255.177052 
z
" style="fill:#1f77b4;"/>
   </g>
   <g id="patch_145">
    <path clip-path="url(#p83a9889d34)" d="M 963.626045 210.057662 
L 959.321241 210.057662 
L 959.321241 325.493155 
L 963.626045 325.493155 
z
" style="fill:#1f77b4;"/>
   </g>
   <g id="patch_146">
    <path clip-path="url(#p83a9889d34)" d="M 969.652769 210.057662 
L 965.347966 210.057662 
L 965.347966 202.817465 
L 969.652769 202.817465 
z
" style="fill:#1f77b4;"/>
   </g>
   <g id="patch_147">
    <path clip-path="url(#p83a9889d34)" d="M 975.679493 210.057662 
L 971.37469 210.057662 
L 971.37469 363.520007 
L 975.679493 363.520007 
z
" style="fill:#1f77b4;"/>
   </g>
   <g id="patch_148">
    <path clip-path="url(#p83a9889d34)" d="M 981.706218 210.057662 
L 977.401415 210.057662 
L 977.401415 302.242759 
L 981.706218 302.242759 
z
" style="fill:#1f77b4;"/>
   </g>
   <g id="patch_149">
    <path clip-path="url(#p83a9889d34)" d="M 987.732942 210.057662 
L 983.428139 210.057662 
L 983.428139 238.580106 
L 987.732942 238.580106 
z
" style="fill:#1f77b4;"/>
   </g>
   <g id="patch_150">
    <path clip-path="url(#p83a9889d34)" d="M 993.759667 210.057662 
L 989.454864 210.057662 
L 989.454864 216.361556 
L 993.759667 216.361556 
z
" style="fill:#1f77b4;"/>
   </g>
   <g id="patch_151">
    <path clip-path="url(#p83a9889d34)" d="M 999.786391 210.057662 
L 995.481588 210.057662 
L 995.481588 107.277236 
L 999.786391 107.277236 
z
" style="fill:#1f77b4;"/>
   </g>
   <g id="patch_152">
    <path clip-path="url(#p83a9889d34)" d="M 1005.813116 210.057662 
L 1001.508313 210.057662 
L 1001.508313 228.256437 
L 1005.813116 228.256437 
z
" style="fill:#1f77b4;"/>
   </g>
   <g id="patch_153">
    <path clip-path="url(#p83a9889d34)" d="M 1011.83984 210.057662 
L 1007.535037 210.057662 
L 1007.535037 117.250388 
L 1011.83984 117.250388 
z
" style="fill:#1f77b4;"/>
   </g>
   <g id="patch_154">
    <path clip-path="url(#p83a9889d34)" d="M 1017.866565 210.057662 
L 1013.561762 210.057662 
L 1013.561762 295.633791 
L 1017.866565 295.633791 
z
" style="fill:#1f77b4;"/>
   </g>
   <g id="patch_155">
    <path clip-path="url(#p83a9889d34)" d="M 1023.893289 210.057662 
L 1019.588486 210.057662 
L 1019.588486 225.804312 
L 1023.893289 225.804312 
z
" style="fill:#1f77b4;"/>
   </g>
   <g id="patch_156">
    <path clip-path="url(#p83a9889d34)" d="M 1029.920014 210.057662 
L 1025.615211 210.057662 
L 1025.615211 165.84222 
L 1029.920014 165.84222 
z
" style="fill:#1f77b4;"/>
   </g>
   <g id="patch_157">
    <path clip-path="url(#p83a9889d34)" d="M 1035.946738 210.057662 
L 1031.641935 210.057662 
L 1031.641935 236.634793 
L 1035.946738 236.634793 
z
" style="fill:#1f77b4;"/>
   </g>
   <g id="patch_158">
    <path clip-path="url(#p83a9889d34)" d="M 1041.973463 210.057662 
L 1037.66866 210.057662 
L 1037.66866 163.659975 
L 1041.973463 163.659975 
z
" style="fill:#1f77b4;"/>
   </g>
   <g id="patch_159">
    <path clip-path="url(#p83a9889d34)" d="M 1048.000187 210.057662 
L 1043.695384 210.057662 
L 1043.695384 280.298621 
L 1048.000187 280.298621 
z
" style="fill:#1f77b4;"/>
   </g>
   <g id="patch_160">
    <path clip-path="url(#p83a9889d34)" d="M 1054.026912 210.057662 
L 1049.722109 210.057662 
L 1049.722109 120.010415 
L 1054.026912 120.010415 
z
" style="fill:#1f77b4;"/>
   </g>
   <g id="patch_161">
    <path clip-path="url(#p83a9889d34)" d="M 1060.053636 210.057662 
L 1055.748833 210.057662 
L 1055.748833 282.193152 
L 1060.053636 282.193152 
z
" style="fill:#1f77b4;"/>
   </g>
   <g id="patch_162">
    <path clip-path="url(#p83a9889d34)" d="M 0 0 
z
" style="fill:#1f77b4;"/>
   </g>
   <g id="matplotlib.axis_1">
    <g id="xtick_1">
     <g id="line2d_1">
      <defs>
       <path d="M 0 0 
L 0 3.5 
" id="mc8881efdca" style="stroke:#000000;stroke-width:0.8;"/>
      </defs>
      <g>
       <use style="stroke:#000000;stroke-width:0.8;" x="100.082521" xlink:href="#mc8881efdca" y="391"/>
      </g>
     </g>
     <g id="text_1">
      <!-- 2010-01 -->
      <g transform="translate(79.191115 405.598437)scale(0.1 -0.1)">
       <defs>
        <path d="M 19.1875 8.296875 
L 53.609375 8.296875 
L 53.609375 0 
L 7.328125 0 
L 7.328125 8.296875 
Q 12.9375 14.109375 22.625 23.890625 
Q 32.328125 33.6875 34.8125 36.53125 
Q 39.546875 41.84375 41.421875 45.53125 
Q 43.3125 49.21875 43.3125 52.78125 
Q 43.3125 58.59375 39.234375 62.25 
Q 35.15625 65.921875 28.609375 65.921875 
Q 23.96875 65.921875 18.8125 64.3125 
Q 13.671875 62.703125 7.8125 59.421875 
L 7.8125 69.390625 
Q 13.765625 71.78125 18.9375 73 
Q 24.125 74.21875 28.421875 74.21875 
Q 39.75 74.21875 46.484375 68.546875 
Q 53.21875 62.890625 53.21875 53.421875 
Q 53.21875 48.921875 51.53125 44.890625 
Q 49.859375 40.875 45.40625 35.40625 
Q 44.1875 33.984375 37.640625 27.21875 
Q 31.109375 20.453125 19.1875 8.296875 
z
" id="DejaVuSans-50"/>
        <path d="M 31.78125 66.40625 
Q 24.171875 66.40625 20.328125 58.90625 
Q 16.5 51.421875 16.5 36.375 
Q 16.5 21.390625 20.328125 13.890625 
Q 24.171875 6.390625 31.78125 6.390625 
Q 39.453125 6.390625 43.28125 13.890625 
Q 47.125 21.390625 47.125 36.375 
Q 47.125 51.421875 43.28125 58.90625 
Q 39.453125 66.40625 31.78125 66.40625 
z
M 31.78125 74.21875 
Q 44.046875 74.21875 50.515625 64.515625 
Q 56.984375 54.828125 56.984375 36.375 
Q 56.984375 17.96875 50.515625 8.265625 
Q 44.046875 -1.421875 31.78125 -1.421875 
Q 19.53125 -1.421875 13.0625 8.265625 
Q 6.59375 17.96875 6.59375 36.375 
Q 6.59375 54.828125 13.0625 64.515625 
Q 19.53125 74.21875 31.78125 74.21875 
z
" id="DejaVuSans-48"/>
        <path d="M 12.40625 8.296875 
L 28.515625 8.296875 
L 28.515625 63.921875 
L 10.984375 60.40625 
L 10.984375 69.390625 
L 28.421875 72.90625 
L 38.28125 72.90625 
L 38.28125 8.296875 
L 54.390625 8.296875 
L 54.390625 0 
L 12.40625 0 
z
" id="DejaVuSans-49"/>
        <path d="M 4.890625 31.390625 
L 31.203125 31.390625 
L 31.203125 23.390625 
L 4.890625 23.390625 
z
" id="DejaVuSans-45"/>
       </defs>
       <use xlink:href="#DejaVuSans-50"/>
       <use x="63.623047" xlink:href="#DejaVuSans-48"/>
       <use x="127.246094" xlink:href="#DejaVuSans-49"/>
       <use x="190.869141" xlink:href="#DejaVuSans-48"/>
       <use x="254.492188" xlink:href="#DejaVuSans-45"/>
       <use x="290.576172" xlink:href="#DejaVuSans-48"/>
       <use x="354.199219" xlink:href="#DejaVuSans-49"/>
      </g>
     </g>
    </g>
    <g id="xtick_2">
     <g id="line2d_2">
      <g>
       <use style="stroke:#000000;stroke-width:0.8;" x="203.397798" xlink:href="#mc8881efdca" y="391"/>
      </g>
     </g>
     <g id="text_2">
      <!-- 2010-05 -->
      <g transform="translate(182.506392 405.598437)scale(0.1 -0.1)">
       <defs>
        <path d="M 10.796875 72.90625 
L 49.515625 72.90625 
L 49.515625 64.59375 
L 19.828125 64.59375 
L 19.828125 46.734375 
Q 21.96875 47.46875 24.109375 47.828125 
Q 26.265625 48.1875 28.421875 48.1875 
Q 40.625 48.1875 47.75 41.5 
Q 54.890625 34.8125 54.890625 23.390625 
Q 54.890625 11.625 47.5625 5.09375 
Q 40.234375 -1.421875 26.90625 -1.421875 
Q 22.3125 -1.421875 17.546875 -0.640625 
Q 12.796875 0.140625 7.71875 1.703125 
L 7.71875 11.625 
Q 12.109375 9.234375 16.796875 8.0625 
Q 21.484375 6.890625 26.703125 6.890625 
Q 35.15625 6.890625 40.078125 11.328125 
Q 45.015625 15.765625 45.015625 23.390625 
Q 45.015625 31 40.078125 35.4375 
Q 35.15625 39.890625 26.703125 39.890625 
Q 22.75 39.890625 18.8125 39.015625 
Q 14.890625 38.140625 10.796875 36.28125 
z
" id="DejaVuSans-53"/>
       </defs>
       <use xlink:href="#DejaVuSans-50"/>
       <use x="63.623047" xlink:href="#DejaVuSans-48"/>
       <use x="127.246094" xlink:href="#DejaVuSans-49"/>
       <use x="190.869141" xlink:href="#DejaVuSans-48"/>
       <use x="254.492188" xlink:href="#DejaVuSans-45"/>
       <use x="290.576172" xlink:href="#DejaVuSans-48"/>
       <use x="354.199219" xlink:href="#DejaVuSans-53"/>
      </g>
     </g>
    </g>
    <g id="xtick_3">
     <g id="line2d_3">
      <g>
       <use style="stroke:#000000;stroke-width:0.8;" x="309.295957" xlink:href="#mc8881efdca" y="391"/>
      </g>
     </g>
     <g id="text_3">
      <!-- 2010-09 -->
      <g transform="translate(288.404551 405.598437)scale(0.1 -0.1)">
       <defs>
        <path d="M 10.984375 1.515625 
L 10.984375 10.5 
Q 14.703125 8.734375 18.5 7.8125 
Q 22.3125 6.890625 25.984375 6.890625 
Q 35.75 6.890625 40.890625 13.453125 
Q 46.046875 20.015625 46.78125 33.40625 
Q 43.953125 29.203125 39.59375 26.953125 
Q 35.25 24.703125 29.984375 24.703125 
Q 19.046875 24.703125 12.671875 31.3125 
Q 6.296875 37.9375 6.296875 49.421875 
Q 6.296875 60.640625 12.9375 67.421875 
Q 19.578125 74.21875 30.609375 74.21875 
Q 43.265625 74.21875 49.921875 64.515625 
Q 56.59375 54.828125 56.59375 36.375 
Q 56.59375 19.140625 48.40625 8.859375 
Q 40.234375 -1.421875 26.421875 -1.421875 
Q 22.703125 -1.421875 18.890625 -0.6875 
Q 15.09375 0.046875 10.984375 1.515625 
z
M 30.609375 32.421875 
Q 37.25 32.421875 41.125 36.953125 
Q 45.015625 41.5 45.015625 49.421875 
Q 45.015625 57.28125 41.125 61.84375 
Q 37.25 66.40625 30.609375 66.40625 
Q 23.96875 66.40625 20.09375 61.84375 
Q 16.21875 57.28125 16.21875 49.421875 
Q 16.21875 41.5 20.09375 36.953125 
Q 23.96875 32.421875 30.609375 32.421875 
z
" id="DejaVuSans-57"/>
       </defs>
       <use xlink:href="#DejaVuSans-50"/>
       <use x="63.623047" xlink:href="#DejaVuSans-48"/>
       <use x="127.246094" xlink:href="#DejaVuSans-49"/>
       <use x="190.869141" xlink:href="#DejaVuSans-48"/>
       <use x="254.492188" xlink:href="#DejaVuSans-45"/>
       <use x="290.576172" xlink:href="#DejaVuSans-48"/>
       <use x="354.199219" xlink:href="#DejaVuSans-57"/>
      </g>
     </g>
    </g>
    <g id="xtick_4">
     <g id="line2d_4">
      <g>
       <use style="stroke:#000000;stroke-width:0.8;" x="414.333155" xlink:href="#mc8881efdca" y="391"/>
      </g>
     </g>
     <g id="text_4">
      <!-- 2011-01 -->
      <g transform="translate(393.441749 405.598437)scale(0.1 -0.1)">
       <use xlink:href="#DejaVuSans-50"/>
       <use x="63.623047" xlink:href="#DejaVuSans-48"/>
       <use x="127.246094" xlink:href="#DejaVuSans-49"/>
       <use x="190.869141" xlink:href="#DejaVuSans-49"/>
       <use x="254.492188" xlink:href="#DejaVuSans-45"/>
       <use x="290.576172" xlink:href="#DejaVuSans-48"/>
       <use x="354.199219" xlink:href="#DejaVuSans-49"/>
      </g>
     </g>
    </g>
    <g id="xtick_5">
     <g id="line2d_5">
      <g>
       <use style="stroke:#000000;stroke-width:0.8;" x="517.648432" xlink:href="#mc8881efdca" y="391"/>
      </g>
     </g>
     <g id="text_5">
      <!-- 2011-05 -->
      <g transform="translate(496.757026 405.598437)scale(0.1 -0.1)">
       <use xlink:href="#DejaVuSans-50"/>
       <use x="63.623047" xlink:href="#DejaVuSans-48"/>
       <use x="127.246094" xlink:href="#DejaVuSans-49"/>
       <use x="190.869141" xlink:href="#DejaVuSans-49"/>
       <use x="254.492188" xlink:href="#DejaVuSans-45"/>
       <use x="290.576172" xlink:href="#DejaVuSans-48"/>
       <use x="354.199219" xlink:href="#DejaVuSans-53"/>
      </g>
     </g>
    </g>
    <g id="xtick_6">
     <g id="line2d_6">
      <g>
       <use style="stroke:#000000;stroke-width:0.8;" x="623.546591" xlink:href="#mc8881efdca" y="391"/>
      </g>
     </g>
     <g id="text_6">
      <!-- 2011-09 -->
      <g transform="translate(602.655185 405.598437)scale(0.1 -0.1)">
       <use xlink:href="#DejaVuSans-50"/>
       <use x="63.623047" xlink:href="#DejaVuSans-48"/>
       <use x="127.246094" xlink:href="#DejaVuSans-49"/>
       <use x="190.869141" xlink:href="#DejaVuSans-49"/>
       <use x="254.492188" xlink:href="#DejaVuSans-45"/>
       <use x="290.576172" xlink:href="#DejaVuSans-48"/>
       <use x="354.199219" xlink:href="#DejaVuSans-57"/>
      </g>
     </g>
    </g>
    <g id="xtick_7">
     <g id="line2d_7">
      <g>
       <use style="stroke:#000000;stroke-width:0.8;" x="728.583789" xlink:href="#mc8881efdca" y="391"/>
      </g>
     </g>
     <g id="text_7">
      <!-- 2012-01 -->
      <g transform="translate(707.692383 405.598437)scale(0.1 -0.1)">
       <use xlink:href="#DejaVuSans-50"/>
       <use x="63.623047" xlink:href="#DejaVuSans-48"/>
       <use x="127.246094" xlink:href="#DejaVuSans-49"/>
       <use x="190.869141" xlink:href="#DejaVuSans-50"/>
       <use x="254.492188" xlink:href="#DejaVuSans-45"/>
       <use x="290.576172" xlink:href="#DejaVuSans-48"/>
       <use x="354.199219" xlink:href="#DejaVuSans-49"/>
      </g>
     </g>
    </g>
    <g id="xtick_8">
     <g id="line2d_8">
      <g>
       <use style="stroke:#000000;stroke-width:0.8;" x="832.760027" xlink:href="#mc8881efdca" y="391"/>
      </g>
     </g>
     <g id="text_8">
      <!-- 2012-05 -->
      <g transform="translate(811.868621 405.598437)scale(0.1 -0.1)">
       <use xlink:href="#DejaVuSans-50"/>
       <use x="63.623047" xlink:href="#DejaVuSans-48"/>
       <use x="127.246094" xlink:href="#DejaVuSans-49"/>
       <use x="190.869141" xlink:href="#DejaVuSans-50"/>
       <use x="254.492188" xlink:href="#DejaVuSans-45"/>
       <use x="290.576172" xlink:href="#DejaVuSans-48"/>
       <use x="354.199219" xlink:href="#DejaVuSans-53"/>
      </g>
     </g>
    </g>
    <g id="xtick_9">
     <g id="line2d_9">
      <g>
       <use style="stroke:#000000;stroke-width:0.8;" x="938.658186" xlink:href="#mc8881efdca" y="391"/>
      </g>
     </g>
     <g id="text_9">
      <!-- 2012-09 -->
      <g transform="translate(917.76678 405.598437)scale(0.1 -0.1)">
       <use xlink:href="#DejaVuSans-50"/>
       <use x="63.623047" xlink:href="#DejaVuSans-48"/>
       <use x="127.246094" xlink:href="#DejaVuSans-49"/>
       <use x="190.869141" xlink:href="#DejaVuSans-50"/>
       <use x="254.492188" xlink:href="#DejaVuSans-45"/>
       <use x="290.576172" xlink:href="#DejaVuSans-48"/>
       <use x="354.199219" xlink:href="#DejaVuSans-57"/>
      </g>
     </g>
    </g>
    <g id="xtick_10">
     <g id="line2d_10">
      <g>
       <use style="stroke:#000000;stroke-width:0.8;" x="1043.695384" xlink:href="#mc8881efdca" y="391"/>
      </g>
     </g>
     <g id="text_10">
      <!-- 2013-01 -->
      <g transform="translate(1022.803978 405.598437)scale(0.1 -0.1)">
       <defs>
        <path d="M 40.578125 39.3125 
Q 47.65625 37.796875 51.625 33 
Q 55.609375 28.21875 55.609375 21.1875 
Q 55.609375 10.40625 48.1875 4.484375 
Q 40.765625 -1.421875 27.09375 -1.421875 
Q 22.515625 -1.421875 17.65625 -0.515625 
Q 12.796875 0.390625 7.625 2.203125 
L 7.625 11.71875 
Q 11.71875 9.328125 16.59375 8.109375 
Q 21.484375 6.890625 26.8125 6.890625 
Q 36.078125 6.890625 40.9375 10.546875 
Q 45.796875 14.203125 45.796875 21.1875 
Q 45.796875 27.640625 41.28125 31.265625 
Q 36.765625 34.90625 28.71875 34.90625 
L 20.21875 34.90625 
L 20.21875 43.015625 
L 29.109375 43.015625 
Q 36.375 43.015625 40.234375 45.921875 
Q 44.09375 48.828125 44.09375 54.296875 
Q 44.09375 59.90625 40.109375 62.90625 
Q 36.140625 65.921875 28.71875 65.921875 
Q 24.65625 65.921875 20.015625 65.03125 
Q 15.375 64.15625 9.8125 62.3125 
L 9.8125 71.09375 
Q 15.4375 72.65625 20.34375 73.4375 
Q 25.25 74.21875 29.59375 74.21875 
Q 40.828125 74.21875 47.359375 69.109375 
Q 53.90625 64.015625 53.90625 55.328125 
Q 53.90625 49.265625 50.4375 45.09375 
Q 46.96875 40.921875 40.578125 39.3125 
z
" id="DejaVuSans-51"/>
       </defs>
       <use xlink:href="#DejaVuSans-50"/>
       <use x="63.623047" xlink:href="#DejaVuSans-48"/>
       <use x="127.246094" xlink:href="#DejaVuSans-49"/>
       <use x="190.869141" xlink:href="#DejaVuSans-51"/>
       <use x="254.492188" xlink:href="#DejaVuSans-45"/>
       <use x="290.576172" xlink:href="#DejaVuSans-48"/>
       <use x="354.199219" xlink:href="#DejaVuSans-49"/>
      </g>
     </g>
    </g>
    <g id="text_11">
     <!-- datetime -->
     <g transform="translate(559.218906 419.276563)scale(0.1 -0.1)">
      <defs>
       <path d="M 45.40625 46.390625 
L 45.40625 75.984375 
L 54.390625 75.984375 
L 54.390625 0 
L 45.40625 0 
L 45.40625 8.203125 
Q 42.578125 3.328125 38.25 0.953125 
Q 33.9375 -1.421875 27.875 -1.421875 
Q 17.96875 -1.421875 11.734375 6.484375 
Q 5.515625 14.40625 5.515625 27.296875 
Q 5.515625 40.1875 11.734375 48.09375 
Q 17.96875 56 27.875 56 
Q 33.9375 56 38.25 53.625 
Q 42.578125 51.265625 45.40625 46.390625 
z
M 14.796875 27.296875 
Q 14.796875 17.390625 18.875 11.75 
Q 22.953125 6.109375 30.078125 6.109375 
Q 37.203125 6.109375 41.296875 11.75 
Q 45.40625 17.390625 45.40625 27.296875 
Q 45.40625 37.203125 41.296875 42.84375 
Q 37.203125 48.484375 30.078125 48.484375 
Q 22.953125 48.484375 18.875 42.84375 
Q 14.796875 37.203125 14.796875 27.296875 
z
" id="DejaVuSans-100"/>
       <path d="M 34.28125 27.484375 
Q 23.390625 27.484375 19.1875 25 
Q 14.984375 22.515625 14.984375 16.5 
Q 14.984375 11.71875 18.140625 8.90625 
Q 21.296875 6.109375 26.703125 6.109375 
Q 34.1875 6.109375 38.703125 11.40625 
Q 43.21875 16.703125 43.21875 25.484375 
L 43.21875 27.484375 
z
M 52.203125 31.203125 
L 52.203125 0 
L 43.21875 0 
L 43.21875 8.296875 
Q 40.140625 3.328125 35.546875 0.953125 
Q 30.953125 -1.421875 24.3125 -1.421875 
Q 15.921875 -1.421875 10.953125 3.296875 
Q 6 8.015625 6 15.921875 
Q 6 25.140625 12.171875 29.828125 
Q 18.359375 34.515625 30.609375 34.515625 
L 43.21875 34.515625 
L 43.21875 35.40625 
Q 43.21875 41.609375 39.140625 45 
Q 35.0625 48.390625 27.6875 48.390625 
Q 23 48.390625 18.546875 47.265625 
Q 14.109375 46.140625 10.015625 43.890625 
L 10.015625 52.203125 
Q 14.9375 54.109375 19.578125 55.046875 
Q 24.21875 56 28.609375 56 
Q 40.484375 56 46.34375 49.84375 
Q 52.203125 43.703125 52.203125 31.203125 
z
" id="DejaVuSans-97"/>
       <path d="M 18.3125 70.21875 
L 18.3125 54.6875 
L 36.8125 54.6875 
L 36.8125 47.703125 
L 18.3125 47.703125 
L 18.3125 18.015625 
Q 18.3125 11.328125 20.140625 9.421875 
Q 21.96875 7.515625 27.59375 7.515625 
L 36.8125 7.515625 
L 36.8125 0 
L 27.59375 0 
Q 17.1875 0 13.234375 3.875 
Q 9.28125 7.765625 9.28125 18.015625 
L 9.28125 47.703125 
L 2.6875 47.703125 
L 2.6875 54.6875 
L 9.28125 54.6875 
L 9.28125 70.21875 
z
" id="DejaVuSans-116"/>
       <path d="M 56.203125 29.59375 
L 56.203125 25.203125 
L 14.890625 25.203125 
Q 15.484375 15.921875 20.484375 11.0625 
Q 25.484375 6.203125 34.421875 6.203125 
Q 39.59375 6.203125 44.453125 7.46875 
Q 49.3125 8.734375 54.109375 11.28125 
L 54.109375 2.78125 
Q 49.265625 0.734375 44.1875 -0.34375 
Q 39.109375 -1.421875 33.890625 -1.421875 
Q 20.796875 -1.421875 13.15625 6.1875 
Q 5.515625 13.8125 5.515625 26.8125 
Q 5.515625 40.234375 12.765625 48.109375 
Q 20.015625 56 32.328125 56 
Q 43.359375 56 49.78125 48.890625 
Q 56.203125 41.796875 56.203125 29.59375 
z
M 47.21875 32.234375 
Q 47.125 39.59375 43.09375 43.984375 
Q 39.0625 48.390625 32.421875 48.390625 
Q 24.90625 48.390625 20.390625 44.140625 
Q 15.875 39.890625 15.1875 32.171875 
z
" id="DejaVuSans-101"/>
       <path d="M 9.421875 54.6875 
L 18.40625 54.6875 
L 18.40625 0 
L 9.421875 0 
z
M 9.421875 75.984375 
L 18.40625 75.984375 
L 18.40625 64.59375 
L 9.421875 64.59375 
z
" id="DejaVuSans-105"/>
       <path d="M 52 44.1875 
Q 55.375 50.25 60.0625 53.125 
Q 64.75 56 71.09375 56 
Q 79.640625 56 84.28125 50.015625 
Q 88.921875 44.046875 88.921875 33.015625 
L 88.921875 0 
L 79.890625 0 
L 79.890625 32.71875 
Q 79.890625 40.578125 77.09375 44.375 
Q 74.3125 48.1875 68.609375 48.1875 
Q 61.625 48.1875 57.5625 43.546875 
Q 53.515625 38.921875 53.515625 30.90625 
L 53.515625 0 
L 44.484375 0 
L 44.484375 32.71875 
Q 44.484375 40.625 41.703125 44.40625 
Q 38.921875 48.1875 33.109375 48.1875 
Q 26.21875 48.1875 22.15625 43.53125 
Q 18.109375 38.875 18.109375 30.90625 
L 18.109375 0 
L 9.078125 0 
L 9.078125 54.6875 
L 18.109375 54.6875 
L 18.109375 46.1875 
Q 21.1875 51.21875 25.484375 53.609375 
Q 29.78125 56 35.6875 56 
Q 41.65625 56 45.828125 52.96875 
Q 50 49.953125 52 44.1875 
z
" id="DejaVuSans-109"/>
      </defs>
      <use xlink:href="#DejaVuSans-100"/>
      <use x="63.476562" xlink:href="#DejaVuSans-97"/>
      <use x="124.755859" xlink:href="#DejaVuSans-116"/>
      <use x="163.964844" xlink:href="#DejaVuSans-101"/>
      <use x="225.488281" xlink:href="#DejaVuSans-116"/>
      <use x="264.697266" xlink:href="#DejaVuSans-105"/>
      <use x="292.480469" xlink:href="#DejaVuSans-109"/>
      <use x="389.892578" xlink:href="#DejaVuSans-101"/>
     </g>
    </g>
   </g>
   <g id="matplotlib.axis_2">
    <g id="ytick_1">
     <g id="line2d_11">
      <defs>
       <path d="M 0 0 
L -3.5 0 
" id="med76328481" style="stroke:#000000;stroke-width:0.8;"/>
      </defs>
      <g>
       <use style="stroke:#000000;stroke-width:0.8;" x="55.7" xlink:href="#med76328481" y="345.962098"/>
      </g>
     </g>
     <g id="text_12">
      <!-- 0.4 -->
      <g transform="translate(24.417187 349.761316)scale(0.1 -0.1)">
       <defs>
        <path d="M 10.59375 35.5 
L 73.1875 35.5 
L 73.1875 27.203125 
L 10.59375 27.203125 
z
" id="DejaVuSans-8722"/>
        <path d="M 10.6875 12.40625 
L 21 12.40625 
L 21 0 
L 10.6875 0 
z
" id="DejaVuSans-46"/>
        <path d="M 37.796875 64.3125 
L 12.890625 25.390625 
L 37.796875 25.390625 
z
M 35.203125 72.90625 
L 47.609375 72.90625 
L 47.609375 25.390625 
L 58.015625 25.390625 
L 58.015625 17.1875 
L 47.609375 17.1875 
L 47.609375 0 
L 37.796875 0 
L 37.796875 17.1875 
L 4.890625 17.1875 
L 4.890625 26.703125 
z
" id="DejaVuSans-52"/>
       </defs>
       <use xlink:href="#DejaVuSans-8722"/>
       <use x="83.789062" xlink:href="#DejaVuSans-48"/>
       <use x="147.412109" xlink:href="#DejaVuSans-46"/>
       <use x="179.199219" xlink:href="#DejaVuSans-52"/>
      </g>
     </g>
    </g>
    <g id="ytick_2">
     <g id="line2d_12">
      <g>
       <use style="stroke:#000000;stroke-width:0.8;" x="55.7" xlink:href="#med76328481" y="278.00988"/>
      </g>
     </g>
     <g id="text_13">
      <!-- 0.2 -->
      <g transform="translate(24.417187 281.809098)scale(0.1 -0.1)">
       <use xlink:href="#DejaVuSans-8722"/>
       <use x="83.789062" xlink:href="#DejaVuSans-48"/>
       <use x="147.412109" xlink:href="#DejaVuSans-46"/>
       <use x="179.199219" xlink:href="#DejaVuSans-50"/>
      </g>
     </g>
    </g>
    <g id="ytick_3">
     <g id="line2d_13">
      <g>
       <use style="stroke:#000000;stroke-width:0.8;" x="55.7" xlink:href="#med76328481" y="210.057662"/>
      </g>
     </g>
     <g id="text_14">
      <!-- 0.0 -->
      <g transform="translate(32.796875 213.85688)scale(0.1 -0.1)">
       <use xlink:href="#DejaVuSans-48"/>
       <use x="63.623047" xlink:href="#DejaVuSans-46"/>
       <use x="95.410156" xlink:href="#DejaVuSans-48"/>
      </g>
     </g>
    </g>
    <g id="ytick_4">
     <g id="line2d_14">
      <g>
       <use style="stroke:#000000;stroke-width:0.8;" x="55.7" xlink:href="#med76328481" y="142.105444"/>
      </g>
     </g>
     <g id="text_15">
      <!-- 0.2 -->
      <g transform="translate(32.796875 145.904662)scale(0.1 -0.1)">
       <use xlink:href="#DejaVuSans-48"/>
       <use x="63.623047" xlink:href="#DejaVuSans-46"/>
       <use x="95.410156" xlink:href="#DejaVuSans-50"/>
      </g>
     </g>
    </g>
    <g id="ytick_5">
     <g id="line2d_15">
      <g>
       <use style="stroke:#000000;stroke-width:0.8;" x="55.7" xlink:href="#med76328481" y="74.153226"/>
      </g>
     </g>
     <g id="text_16">
      <!-- 0.4 -->
      <g transform="translate(32.796875 77.952444)scale(0.1 -0.1)">
       <use xlink:href="#DejaVuSans-48"/>
       <use x="63.623047" xlink:href="#DejaVuSans-46"/>
       <use x="95.410156" xlink:href="#DejaVuSans-52"/>
      </g>
     </g>
    </g>
    <g id="text_17">
     <!-- IC -->
     <g transform="translate(18.3375 213.426406)rotate(-90)scale(0.1 -0.1)">
      <defs>
       <path d="M 9.8125 72.90625 
L 19.671875 72.90625 
L 19.671875 0 
L 9.8125 0 
z
" id="DejaVuSans-73"/>
       <path d="M 64.40625 67.28125 
L 64.40625 56.890625 
Q 59.421875 61.53125 53.78125 63.8125 
Q 48.140625 66.109375 41.796875 66.109375 
Q 29.296875 66.109375 22.65625 58.46875 
Q 16.015625 50.828125 16.015625 36.375 
Q 16.015625 21.96875 22.65625 14.328125 
Q 29.296875 6.6875 41.796875 6.6875 
Q 48.140625 6.6875 53.78125 8.984375 
Q 59.421875 11.28125 64.40625 15.921875 
L 64.40625 5.609375 
Q 59.234375 2.09375 53.4375 0.328125 
Q 47.65625 -1.421875 41.21875 -1.421875 
Q 24.65625 -1.421875 15.125 8.703125 
Q 5.609375 18.84375 5.609375 36.375 
Q 5.609375 53.953125 15.125 64.078125 
Q 24.65625 74.21875 41.21875 74.21875 
Q 47.75 74.21875 53.53125 72.484375 
Q 59.328125 70.75 64.40625 67.28125 
z
" id="DejaVuSans-67"/>
      </defs>
      <use xlink:href="#DejaVuSans-73"/>
      <use x="29.492188" xlink:href="#DejaVuSans-67"/>
     </g>
    </g>
   </g>
   <g id="line2d_16">
    <path clip-path="url(#p83a9889d34)" d="M 55.7 208.982005 
L 1107.88 208.982005 
" style="fill:none;stroke:#800080;stroke-dasharray:7.4,3.2;stroke-dashoffset:0;stroke-width:2;"/>
   </g>
   <g id="line2d_17">
    <path clip-path="url(#p83a9889d34)" d="M 55.7 210.057662 
L 1107.88 210.057662 
" style="fill:none;stroke:#000000;stroke-linecap:square;"/>
   </g>
   <g id="patch_163">
    <path d="M 55.7 391 
L 55.7 25.92 
" style="fill:none;stroke:#000000;stroke-linecap:square;stroke-linejoin:miter;stroke-width:0.8;"/>
   </g>
   <g id="patch_164">
    <path d="M 1107.88 391 
L 1107.88 25.92 
" style="fill:none;stroke:#000000;stroke-linecap:square;stroke-linejoin:miter;stroke-width:0.8;"/>
   </g>
   <g id="patch_165">
    <path d="M 55.7 391 
L 1107.88 391 
" style="fill:none;stroke:#000000;stroke-linecap:square;stroke-linejoin:miter;stroke-width:0.8;"/>
   </g>
   <g id="patch_166">
    <path d="M 55.7 25.92 
L 1107.88 25.92 
" style="fill:none;stroke:#000000;stroke-linecap:square;stroke-linejoin:miter;stroke-width:0.8;"/>
   </g>
   <g id="legend_1">
    <g id="patch_167">
     <path d="M 62.7 63.27625 
L 174.320312 63.27625 
Q 176.320312 63.27625 176.320312 61.27625 
L 176.320312 32.92 
Q 176.320312 30.92 174.320312 30.92 
L 62.7 30.92 
Q 60.7 30.92 60.7 32.92 
L 60.7 61.27625 
Q 60.7 63.27625 62.7 63.27625 
z
" style="fill:#ffffff;opacity:0.8;stroke:#cccccc;stroke-linejoin:miter;"/>
    </g>
    <g id="patch_168">
     <path d="M 64.7 42.518438 
L 84.7 42.518438 
L 84.7 35.518438 
L 64.7 35.518438 
z
" style="fill:#1f77b4;"/>
    </g>
    <g id="text_18">
     <!-- weekly IC mean -->
     <g transform="translate(92.7 42.518438)scale(0.1 -0.1)">
      <defs>
       <path d="M 4.203125 54.6875 
L 13.1875 54.6875 
L 24.421875 12.015625 
L 35.59375 54.6875 
L 46.1875 54.6875 
L 57.421875 12.015625 
L 68.609375 54.6875 
L 77.59375 54.6875 
L 63.28125 0 
L 52.6875 0 
L 40.921875 44.828125 
L 29.109375 0 
L 18.5 0 
z
" id="DejaVuSans-119"/>
       <path d="M 9.078125 75.984375 
L 18.109375 75.984375 
L 18.109375 31.109375 
L 44.921875 54.6875 
L 56.390625 54.6875 
L 27.390625 29.109375 
L 57.625 0 
L 45.90625 0 
L 18.109375 26.703125 
L 18.109375 0 
L 9.078125 0 
z
" id="DejaVuSans-107"/>
       <path d="M 9.421875 75.984375 
L 18.40625 75.984375 
L 18.40625 0 
L 9.421875 0 
z
" id="DejaVuSans-108"/>
       <path d="M 32.171875 -5.078125 
Q 28.375 -14.84375 24.75 -17.8125 
Q 21.140625 -20.796875 15.09375 -20.796875 
L 7.90625 -20.796875 
L 7.90625 -13.28125 
L 13.1875 -13.28125 
Q 16.890625 -13.28125 18.9375 -11.515625 
Q 21 -9.765625 23.484375 -3.21875 
L 25.09375 0.875 
L 2.984375 54.6875 
L 12.5 54.6875 
L 29.59375 11.921875 
L 46.6875 54.6875 
L 56.203125 54.6875 
z
" id="DejaVuSans-121"/>
       <path id="DejaVuSans-32"/>
       <path d="M 54.890625 33.015625 
L 54.890625 0 
L 45.90625 0 
L 45.90625 32.71875 
Q 45.90625 40.484375 42.875 44.328125 
Q 39.84375 48.1875 33.796875 48.1875 
Q 26.515625 48.1875 22.3125 43.546875 
Q 18.109375 38.921875 18.109375 30.90625 
L 18.109375 0 
L 9.078125 0 
L 9.078125 54.6875 
L 18.109375 54.6875 
L 18.109375 46.1875 
Q 21.34375 51.125 25.703125 53.5625 
Q 30.078125 56 35.796875 56 
Q 45.21875 56 50.046875 50.171875 
Q 54.890625 44.34375 54.890625 33.015625 
z
" id="DejaVuSans-110"/>
      </defs>
      <use xlink:href="#DejaVuSans-119"/>
      <use x="81.787109" xlink:href="#DejaVuSans-101"/>
      <use x="143.310547" xlink:href="#DejaVuSans-101"/>
      <use x="204.833984" xlink:href="#DejaVuSans-107"/>
      <use x="262.744141" xlink:href="#DejaVuSans-108"/>
      <use x="290.527344" xlink:href="#DejaVuSans-121"/>
      <use x="349.707031" xlink:href="#DejaVuSans-32"/>
      <use x="381.494141" xlink:href="#DejaVuSans-73"/>
      <use x="410.986328" xlink:href="#DejaVuSans-67"/>
      <use x="480.810547" xlink:href="#DejaVuSans-32"/>
      <use x="512.597656" xlink:href="#DejaVuSans-109"/>
      <use x="610.009766" xlink:href="#DejaVuSans-101"/>
      <use x="671.533203" xlink:href="#DejaVuSans-97"/>
      <use x="732.8125" xlink:href="#DejaVuSans-110"/>
     </g>
    </g>
    <g id="line2d_18">
     <path d="M 64.7 53.696563 
L 84.7 53.696563 
" style="fill:none;stroke:#800080;stroke-dasharray:7.4,3.2;stroke-dashoffset:0;stroke-width:2;"/>
    </g>
    <g id="line2d_19"/>
    <g id="text_19">
     <!-- IC mean -->
     <g transform="translate(92.7 57.196563)scale(0.1 -0.1)">
      <use xlink:href="#DejaVuSans-73"/>
      <use x="29.492188" xlink:href="#DejaVuSans-67"/>
      <use x="99.316406" xlink:href="#DejaVuSans-32"/>
      <use x="131.103516" xlink:href="#DejaVuSans-109"/>
      <use x="228.515625" xlink:href="#DejaVuSans-101"/>
      <use x="290.039062" xlink:href="#DejaVuSans-97"/>
      <use x="351.318359" xlink:href="#DejaVuSans-110"/>
     </g>
    </g>
   </g>
  </g>
  <g id="axes_2">
   <g id="matplotlib.axis_3">
    <g id="ytick_6">
     <g id="line2d_20">
      <path clip-path="url(#p83a9889d34)" d="M 55.7 329.054886 
L 1107.88 329.054886 
" style="fill:none;stroke:#b0b0b0;stroke-linecap:square;stroke-width:0.8;"/>
     </g>
     <g id="line2d_21">
      <defs>
       <path d="M 0 0 
L 3.5 0 
" id="m8ec67e136a" style="stroke:#000000;stroke-width:0.8;"/>
      </defs>
      <g>
       <use style="stroke:#000000;stroke-width:0.8;" x="1107.88" xlink:href="#m8ec67e136a" y="329.054886"/>
      </g>
     </g>
     <g id="text_20">
      <!-- 0 -->
      <g transform="translate(1114.88 332.854105)scale(0.1 -0.1)">
       <use xlink:href="#DejaVuSans-48"/>
      </g>
     </g>
    </g>
    <g id="ytick_7">
     <g id="line2d_22">
      <path clip-path="url(#p83a9889d34)" d="M 55.7 262.625322 
L 1107.88 262.625322 
" style="fill:none;stroke:#b0b0b0;stroke-linecap:square;stroke-width:0.8;"/>
     </g>
     <g id="line2d_23">
      <g>
       <use style="stroke:#000000;stroke-width:0.8;" x="1107.88" xlink:href="#m8ec67e136a" y="262.625322"/>
      </g>
     </g>
     <g id="text_21">
      <!-- 5 -->
      <g transform="translate(1114.88 266.424541)scale(0.1 -0.1)">
       <use xlink:href="#DejaVuSans-53"/>
      </g>
     </g>
    </g>
    <g id="ytick_8">
     <g id="line2d_24">
      <path clip-path="url(#p83a9889d34)" d="M 55.7 196.195759 
L 1107.88 196.195759 
" style="fill:none;stroke:#b0b0b0;stroke-linecap:square;stroke-width:0.8;"/>
     </g>
     <g id="line2d_25">
      <g>
       <use style="stroke:#000000;stroke-width:0.8;" x="1107.88" xlink:href="#m8ec67e136a" y="196.195759"/>
      </g>
     </g>
     <g id="text_22">
      <!-- 10 -->
      <g transform="translate(1114.88 199.994978)scale(0.1 -0.1)">
       <use xlink:href="#DejaVuSans-49"/>
       <use x="63.623047" xlink:href="#DejaVuSans-48"/>
      </g>
     </g>
    </g>
    <g id="ytick_9">
     <g id="line2d_26">
      <path clip-path="url(#p83a9889d34)" d="M 55.7 129.766195 
L 1107.88 129.766195 
" style="fill:none;stroke:#b0b0b0;stroke-linecap:square;stroke-width:0.8;"/>
     </g>
     <g id="line2d_27">
      <g>
       <use style="stroke:#000000;stroke-width:0.8;" x="1107.88" xlink:href="#m8ec67e136a" y="129.766195"/>
      </g>
     </g>
     <g id="text_23">
      <!-- 15 -->
      <g transform="translate(1114.88 133.565414)scale(0.1 -0.1)">
       <use xlink:href="#DejaVuSans-49"/>
       <use x="63.623047" xlink:href="#DejaVuSans-53"/>
      </g>
     </g>
    </g>
    <g id="ytick_10">
     <g id="line2d_28">
      <path clip-path="url(#p83a9889d34)" d="M 55.7 63.336632 
L 1107.88 63.336632 
" style="fill:none;stroke:#b0b0b0;stroke-linecap:square;stroke-width:0.8;"/>
     </g>
     <g id="line2d_29">
      <g>
       <use style="stroke:#000000;stroke-width:0.8;" x="1107.88" xlink:href="#m8ec67e136a" y="63.336632"/>
      </g>
     </g>
     <g id="text_24">
      <!-- 20 -->
      <g transform="translate(1114.88 67.13585)scale(0.1 -0.1)">
       <use xlink:href="#DejaVuSans-50"/>
       <use x="63.623047" xlink:href="#DejaVuSans-48"/>
      </g>
     </g>
    </g>
    <g id="text_25">
     <!-- IC cumsum -->
     <g transform="translate(1139.203437 236.4475)rotate(-90)scale(0.1 -0.1)">
      <defs>
       <path d="M 48.78125 52.59375 
L 48.78125 44.1875 
Q 44.96875 46.296875 41.140625 47.34375 
Q 37.3125 48.390625 33.40625 48.390625 
Q 24.65625 48.390625 19.8125 42.84375 
Q 14.984375 37.3125 14.984375 27.296875 
Q 14.984375 17.28125 19.8125 11.734375 
Q 24.65625 6.203125 33.40625 6.203125 
Q 37.3125 6.203125 41.140625 7.25 
Q 44.96875 8.296875 48.78125 10.40625 
L 48.78125 2.09375 
Q 45.015625 0.34375 40.984375 -0.53125 
Q 36.96875 -1.421875 32.421875 -1.421875 
Q 20.0625 -1.421875 12.78125 6.34375 
Q 5.515625 14.109375 5.515625 27.296875 
Q 5.515625 40.671875 12.859375 48.328125 
Q 20.21875 56 33.015625 56 
Q 37.15625 56 41.109375 55.140625 
Q 45.0625 54.296875 48.78125 52.59375 
z
" id="DejaVuSans-99"/>
       <path d="M 8.5 21.578125 
L 8.5 54.6875 
L 17.484375 54.6875 
L 17.484375 21.921875 
Q 17.484375 14.15625 20.5 10.265625 
Q 23.53125 6.390625 29.59375 6.390625 
Q 36.859375 6.390625 41.078125 11.03125 
Q 45.3125 15.671875 45.3125 23.6875 
L 45.3125 54.6875 
L 54.296875 54.6875 
L 54.296875 0 
L 45.3125 0 
L 45.3125 8.40625 
Q 42.046875 3.421875 37.71875 1 
Q 33.40625 -1.421875 27.6875 -1.421875 
Q 18.265625 -1.421875 13.375 4.4375 
Q 8.5 10.296875 8.5 21.578125 
z
M 31.109375 56 
z
" id="DejaVuSans-117"/>
       <path d="M 44.28125 53.078125 
L 44.28125 44.578125 
Q 40.484375 46.53125 36.375 47.5 
Q 32.28125 48.484375 27.875 48.484375 
Q 21.1875 48.484375 17.84375 46.4375 
Q 14.5 44.390625 14.5 40.28125 
Q 14.5 37.15625 16.890625 35.375 
Q 19.28125 33.59375 26.515625 31.984375 
L 29.59375 31.296875 
Q 39.15625 29.25 43.1875 25.515625 
Q 47.21875 21.78125 47.21875 15.09375 
Q 47.21875 7.46875 41.1875 3.015625 
Q 35.15625 -1.421875 24.609375 -1.421875 
Q 20.21875 -1.421875 15.453125 -0.5625 
Q 10.6875 0.296875 5.421875 2 
L 5.421875 11.28125 
Q 10.40625 8.6875 15.234375 7.390625 
Q 20.0625 6.109375 24.8125 6.109375 
Q 31.15625 6.109375 34.5625 8.28125 
Q 37.984375 10.453125 37.984375 14.40625 
Q 37.984375 18.0625 35.515625 20.015625 
Q 33.0625 21.96875 24.703125 23.78125 
L 21.578125 24.515625 
Q 13.234375 26.265625 9.515625 29.90625 
Q 5.8125 33.546875 5.8125 39.890625 
Q 5.8125 47.609375 11.28125 51.796875 
Q 16.75 56 26.8125 56 
Q 31.78125 56 36.171875 55.265625 
Q 40.578125 54.546875 44.28125 53.078125 
z
" id="DejaVuSans-115"/>
      </defs>
      <use xlink:href="#DejaVuSans-73"/>
      <use x="29.492188" xlink:href="#DejaVuSans-67"/>
      <use x="99.316406" xlink:href="#DejaVuSans-32"/>
      <use x="131.103516" xlink:href="#DejaVuSans-99"/>
      <use x="186.083984" xlink:href="#DejaVuSans-117"/>
      <use x="249.462891" xlink:href="#DejaVuSans-109"/>
      <use x="346.875" xlink:href="#DejaVuSans-115"/>
      <use x="398.974609" xlink:href="#DejaVuSans-117"/>
      <use x="462.353516" xlink:href="#DejaVuSans-109"/>
     </g>
    </g>
   </g>
   <g id="line2d_30">
    <path clip-path="url(#p83a9889d34)" d="M 103.526364 325.41754 
L 105.248285 334.5758 
L 106.109246 335.830126 
L 108.692127 336.801928 
L 109.553088 334.9318 
L 110.414049 335.876093 
L 111.275009 332.765335 
L 112.13597 331.864425 
L 114.718852 325.057146 
L 115.579813 321.879238 
L 116.440773 324.439914 
L 117.301734 317.528571 
L 118.162695 313.965375 
L 120.745576 309.84154 
L 121.606537 305.35555 
L 122.467498 306.388675 
L 123.328458 309.504279 
L 124.189419 311.841525 
L 126.772301 308.117679 
L 127.633262 317.375755 
L 128.494222 323.663043 
L 130.216144 341.95763 
L 132.799025 346.497902 
L 133.659986 352.127042 
L 134.520947 356.926344 
L 135.381907 353.209025 
L 136.242868 350.739402 
L 138.82575 350.433199 
L 139.686711 351.560578 
L 140.547671 356.374076 
L 141.408632 355.997251 
L 142.269593 365.042469 
L 144.852474 365.161129 
L 145.713435 369.482963 
L 146.574396 374.405455 
L 147.435356 367.773077 
L 148.296317 364.666313 
L 150.879199 362.243794 
L 151.74016 357.843535 
L 152.60112 350.654123 
L 153.462081 347.651253 
L 154.323041 339.920712 
L 156.905923 332.348007 
L 157.766884 332.121475 
L 158.627845 341.370361 
L 159.488805 342.498465 
L 160.349766 350.207486 
L 162.932648 344.890926 
L 163.793609 348.745509 
L 164.654569 353.134357 
L 165.51553 352.437175 
L 166.37649 353.911874 
L 168.959372 353.236342 
L 169.820333 350.384529 
L 170.681294 350.8456 
L 171.542254 352.938244 
L 172.403215 353.349255 
L 174.986097 354.912376 
L 175.847058 352.950353 
L 176.708018 347.805693 
L 177.568979 345.35133 
L 178.429939 343.256929 
L 181.012821 342.595467 
L 181.873782 341.745384 
L 183.595703 330.86889 
L 184.456664 324.629227 
L 187.039546 331.328375 
L 187.900507 332.462655 
L 189.622428 318.508534 
L 190.483388 315.613477 
L 193.06627 306.269126 
L 195.649152 290.10383 
L 196.510113 283.596137 
M 199.953955 288.085029 
L 200.814916 285.816891 
L 201.675877 282.714356 
L 202.536837 281.572551 
L 205.119719 279.530401 
L 205.98068 279.995761 
L 206.841641 273.077852 
L 207.702601 269.332892 
L 208.563562 262.162813 
L 211.146444 255.813229 
L 212.007404 251.197831 
L 212.868365 248.798467 
L 213.729326 252.029793 
L 214.590286 258.85038 
L 217.173168 258.265502 
L 218.034129 262.318582 
L 218.89509 257.879114 
L 219.75605 254.075742 
L 220.617011 253.209988 
L 223.199893 251.835207 
L 224.060853 246.589157 
L 224.921814 254.18612 
L 226.643735 247.548772 
L 230.087578 238.443671 
L 230.948539 235.412611 
L 231.809499 236.586293 
L 232.67046 234.277697 
L 235.253342 228.948323 
L 236.114302 230.346732 
L 236.975263 228.825395 
L 237.836224 219.125324 
L 238.697184 221.822732 
L 241.280066 224.396374 
L 242.141027 215.10237 
L 243.001988 222.789251 
L 243.862948 226.576821 
L 244.723909 221.294363 
L 247.306791 220.513424 
L 248.167751 215.536234 
L 249.028712 206.81782 
L 249.889673 195.855229 
L 250.750633 190.690385 
L 253.333515 193.712657 
L 254.194476 185.969178 
L 255.055437 186.386908 
L 255.916397 183.101003 
L 256.777358 177.093746 
L 259.36024 169.496643 
L 260.2212 162.096405 
L 261.082161 165.270435 
L 261.943122 161.192038 
L 262.804082 151.18149 
L 265.386964 143.600316 
L 266.247925 134.294822 
L 267.108886 132.385974 
L 267.969846 120.664146 
L 271.413689 116.725719 
L 272.274649 115.308441 
L 273.13561 114.987442 
L 273.996571 108.506322 
L 274.857531 106.483076 
L 277.440413 104.511753 
L 278.301374 104.08507 
L 279.162335 100.878455 
L 280.023295 94.288384 
L 280.884256 89.081596 
L 283.467138 84.610687 
L 284.328098 77.805835 
L 285.189059 78.946202 
L 286.05002 86.674923 
L 286.91098 90.402431 
L 289.493862 91.777158 
L 290.354823 90.66147 
L 291.215783 91.814902 
L 292.076744 84.535617 
L 292.937705 79.566677 
M 296.381547 79.04064 
L 297.242508 71.951067 
L 298.103469 69.445875 
L 298.964429 64.811488 
L 301.547311 68.406782 
L 302.408272 75.384209 
L 303.269232 76.182512 
L 304.130193 78.438901 
L 304.991154 72.700953 
L 307.574036 73.803671 
L 308.434996 74.480381 
L 309.295957 76.6948 
L 310.156918 84.871 
L 311.017878 86.530785 
L 313.60076 90.149748 
L 314.461721 90.457713 
L 315.322681 86.726695 
L 316.183642 85.804786 
L 317.044603 83.444181 
L 319.627485 77.19309 
L 320.488445 80.068045 
L 321.349406 79.687254 
L 322.210367 73.775309 
L 323.071327 81.828561 
L 325.654209 78.241509 
L 326.51517 81.796419 
L 327.37613 80.225519 
L 328.237091 83.031406 
L 329.098052 80.694546 
L 331.680934 82.898018 
L 332.541894 78.644917 
L 333.402855 81.208247 
L 334.263816 73.52826 
L 335.124776 77.520598 
L 337.707658 76.351052 
L 338.568619 81.348828 
L 339.429579 70.630888 
L 340.29054 68.195878 
L 341.151501 60.854098 
L 343.734383 53.890191 
L 344.595343 47.990289 
L 345.456304 46.33042 
L 346.317265 43.881415 
L 347.178225 44.455767 
L 349.761107 42.514545 
L 350.622068 49.772946 
L 351.483028 49.973959 
L 352.343989 51.765598 
L 353.20495 53.061111 
L 355.787832 54.041086 
L 356.648792 53.241988 
L 357.509753 55.598973 
L 358.370714 56.953512 
L 359.231674 61.48511 
L 361.814556 63.637067 
L 362.675517 71.516065 
L 363.536477 72.530002 
L 364.397438 77.130881 
L 365.258399 76.453755 
L 367.841281 72.618551 
L 368.702241 75.514888 
L 369.563202 72.582326 
L 370.424163 77.260393 
L 371.285123 80.372364 
L 373.868005 78.91068 
L 374.728966 79.211644 
L 375.589926 79.6525 
L 376.450887 74.534415 
L 377.311848 64.863338 
L 380.75569 53.641716 
L 381.616651 47.730252 
L 382.477611 54.356068 
L 383.338572 52.934289 
L 385.921454 50.235259 
L 386.782415 52.84684 
L 387.643375 50.438482 
L 388.504336 61.104956 
L 389.365297 68.219413 
M 392.809139 69.882464 
L 393.6701 66.949463 
L 394.53106 65.002963 
L 395.392021 63.344022 
L 397.974903 64.998959 
L 398.835864 68.152233 
L 399.696824 74.043246 
L 400.557785 81.676357 
L 401.418746 87.49374 
L 404.001628 91.047013 
L 404.862588 95.793019 
L 405.723549 95.592441 
L 406.584509 96.962165 
L 407.44547 99.797279 
L 410.889313 106.44082 
L 411.750273 107.083892 
L 412.611234 103.949757 
L 413.472195 106.744023 
L 416.055077 105.446814 
L 416.916037 97.794274 
L 417.776998 96.324337 
L 418.637958 89.870596 
L 419.498919 91.821402 
L 422.081801 87.127511 
L 422.942762 83.909526 
L 423.803722 86.68389 
L 424.664683 90.707404 
L 425.525644 93.090762 
L 428.108525 93.900183 
L 428.969486 101.336123 
L 429.830447 101.460901 
L 430.691407 106.744746 
L 431.552368 103.335436 
L 434.13525 98.482462 
L 434.996211 95.638141 
L 435.857171 93.841794 
L 436.718132 90.668648 
L 437.579093 91.5657 
L 440.161974 95.670505 
L 441.022935 97.442852 
L 441.883896 97.699187 
L 442.744856 99.799937 
L 443.605817 99.510817 
L 446.188699 103.250393 
L 447.04966 107.168212 
L 447.91062 108.92798 
L 448.771581 104.425217 
L 449.632542 103.276213 
L 453.076384 101.778128 
L 453.937345 99.014471 
L 454.798305 101.65319 
L 455.659266 96.648485 
L 458.242148 99.687364 
L 459.103109 109.633703 
L 459.964069 108.138399 
L 460.82503 106.389011 
L 461.685991 106.101822 
L 464.268872 99.351331 
L 465.129833 95.528535 
L 465.990794 97.347443 
L 466.851754 96.497665 
L 467.712715 94.275522 
L 470.295597 96.678294 
L 471.156558 95.262313 
L 472.017518 102.591036 
L 472.878479 108.647995 
L 473.739439 100.553971 
L 476.322321 100.279399 
L 477.183282 101.748138 
L 478.044243 105.600435 
L 478.905203 102.259424 
L 479.766164 102.796988 
L 482.349046 109.717189 
L 483.210007 114.581349 
L 484.070967 116.77837 
L 485.792888 128.102688 
M 489.236731 129.894137 
L 490.097692 130.055127 
L 490.958652 124.948403 
L 491.819613 124.503061 
L 494.402495 123.933488 
L 495.263456 124.347313 
L 496.124416 131.599105 
L 496.985377 134.247582 
L 497.846337 143.498122 
L 500.429219 147.246521 
L 501.29018 151.904763 
L 502.151141 157.489402 
L 503.012101 160.562021 
L 503.873062 163.115636 
L 506.455944 171.421322 
L 507.316905 170.328211 
L 508.177865 175.110786 
L 509.038826 176.747734 
L 509.899786 182.418167 
L 512.482668 187.639133 
L 513.343629 182.002602 
L 514.20459 186.063445 
L 515.06555 191.147462 
L 515.926511 188.380466 
L 518.509393 181.918938 
L 519.370353 178.824879 
L 521.953235 198.151909 
L 524.536117 207.94034 
L 525.397078 214.174143 
L 526.258039 218.856323 
L 527.118999 226.493167 
L 527.97996 230.284936 
L 530.562842 231.715578 
L 531.423802 230.42427 
L 532.284763 232.128532 
L 533.145724 226.979772 
L 534.006684 219.628621 
L 536.589566 210.677321 
L 537.450527 203.53506 
L 538.311488 202.417072 
L 539.172448 197.339669 
L 540.033409 198.368937 
L 542.616291 195.094757 
L 543.477251 188.477835 
L 544.338212 186.08439 
L 545.199173 184.503528 
L 546.060133 176.097778 
L 548.643015 168.422481 
L 549.503976 163.138641 
L 550.364937 166.103337 
L 551.225897 172.150451 
L 552.086858 171.038812 
L 554.66974 175.043232 
L 555.5307 180.390595 
L 556.391661 180.508829 
L 557.252622 183.757727 
L 558.113582 183.240287 
L 560.696464 183.264442 
L 561.557425 187.578121 
L 562.418386 185.18911 
L 563.279346 187.223694 
L 564.140307 183.685731 
L 566.723189 183.746844 
L 567.584149 182.420062 
L 569.306071 176.617536 
L 570.167031 177.233635 
L 572.749913 180.332966 
L 573.610874 183.490251 
L 574.471835 187.508247 
L 575.332795 181.216136 
L 576.193756 184.99904 
L 578.776638 185.424582 
L 579.637598 183.276035 
L 580.498559 184.16078 
L 581.35952 187.355162 
L 582.22048 190.052619 
M 585.664323 193.390802 
L 586.525284 192.859197 
L 587.386244 196.808712 
L 588.247205 193.513721 
L 590.830087 196.636514 
L 591.691047 196.652612 
L 593.412969 201.732322 
L 594.273929 209.912716 
L 596.856811 205.29652 
L 597.717772 206.271979 
L 598.578733 201.845277 
L 599.439693 201.81406 
L 600.300654 197.887189 
L 602.883536 201.388822 
L 603.744496 203.041305 
L 604.605457 202.629626 
L 605.466418 203.790585 
L 606.327378 209.386302 
L 608.91026 215.135063 
L 609.771221 218.723271 
L 610.632181 223.816317 
L 611.493142 225.727887 
L 612.354103 225.43882 
L 614.936985 226.244259 
L 615.797945 224.97302 
L 616.658906 218.322115 
L 617.519867 216.614546 
L 618.380827 217.44069 
L 620.963709 210.317709 
L 621.82467 205.170134 
L 622.68563 204.895975 
L 623.546591 202.303398 
L 624.407552 203.324123 
L 626.990434 206.877668 
L 627.851394 202.170949 
L 628.712355 211.140304 
L 629.573316 215.273391 
L 630.434276 213.079563 
L 633.017158 216.744277 
L 633.878119 211.375927 
L 634.739079 209.748473 
L 635.60004 206.340439 
L 636.461001 207.994274 
L 639.043883 212.258433 
L 640.765804 218.488006 
L 641.626765 223.235004 
L 642.487725 231.480928 
L 645.070607 235.070302 
L 645.931568 235.274497 
L 648.51445 216.587245 
L 651.097332 208.323559 
L 651.958292 207.276889 
L 652.819253 204.063515 
L 653.680214 199.143074 
L 654.541174 199.690698 
L 657.124056 197.10687 
L 657.985017 199.568067 
L 658.845977 197.776346 
L 659.706938 194.053335 
L 660.567899 197.230066 
L 663.150781 194.869491 
L 664.011741 203.703431 
L 665.733663 211.729039 
L 666.594623 214.442532 
L 669.177505 210.497646 
L 670.038466 215.688414 
L 670.899426 210.091482 
L 671.760387 207.585825 
L 672.621348 200.814757 
L 675.20423 192.590675 
L 676.06519 186.901759 
L 676.926151 177.730157 
L 677.787112 176.37615 
L 678.648072 168.056986 
M 682.091915 173.67842 
L 682.952875 178.280342 
L 683.813836 181.610801 
L 684.674797 180.334649 
L 688.118639 176.489177 
L 688.9796 177.236725 
L 689.840561 181.459458 
L 690.701521 172.314246 
L 693.284403 173.766093 
L 694.145364 173.124602 
L 695.006324 177.114839 
L 695.867285 181.925838 
L 696.728246 182.994009 
L 699.311128 188.675998 
L 700.172088 192.390393 
L 701.033049 186.181508 
L 701.894009 191.234196 
L 702.75497 183.680825 
L 705.337852 180.368987 
L 706.198813 185.233649 
L 707.059773 187.623142 
L 707.920734 183.124395 
L 708.781695 180.833552 
L 712.225537 168.654198 
L 713.086498 164.377247 
L 713.947458 155.676241 
L 714.808419 152.33954 
L 717.391301 146.064975 
L 718.252262 138.882007 
L 719.113222 134.065934 
L 719.974183 140.629446 
L 720.835144 140.182715 
L 723.418026 148.139786 
L 724.278986 146.430416 
L 725.139947 143.389335 
L 726.000907 135.391912 
L 726.861868 134.0743 
L 729.44475 128.48739 
L 730.305711 120.274442 
L 731.166671 115.72856 
L 732.027632 116.25355 
L 732.888593 119.218468 
L 735.471475 117.82715 
L 736.332435 121.591011 
L 737.193396 126.495056 
L 738.054356 121.31084 
L 738.915317 120.544604 
L 741.498199 121.515738 
L 742.35916 123.136321 
L 743.22012 119.529997 
L 744.081081 121.96439 
L 744.942042 129.524305 
L 747.524923 139.05356 
L 748.385884 138.686648 
L 749.246845 140.041652 
L 750.107805 147.998178 
L 750.968766 153.551293 
L 753.551648 157.194877 
L 754.412609 155.469668 
L 755.273569 162.621196 
L 756.13453 166.953962 
L 756.995491 172.448849 
L 759.578372 175.539985 
L 760.439333 177.427688 
L 761.300294 175.324562 
L 762.161254 170.847033 
L 763.022215 168.111742 
L 765.605097 161.594857 
L 766.466058 163.171874 
L 767.327018 167.666739 
L 768.187979 165.897781 
L 769.04894 173.315154 
L 771.631821 173.532318 
L 772.492782 176.676642 
L 773.353743 174.286214 
L 774.214703 171.336401 
L 775.075664 171.572685 
M 778.519507 174.53613 
L 779.380467 182.831422 
L 780.241428 180.96703 
L 781.102389 180.208829 
L 783.68527 173.452572 
L 784.546231 170.829863 
L 785.407192 166.466989 
L 786.268152 162.796864 
L 787.129113 163.60041 
L 789.711995 160.648191 
L 790.572956 158.820595 
L 791.433916 162.224662 
L 792.294877 167.373406 
L 793.155837 165.947721 
L 795.738719 172.972584 
L 796.59968 171.628535 
L 797.460641 175.106217 
L 798.321601 183.254395 
L 799.182562 186.521151 
L 801.765444 193.218513 
L 802.626405 197.984976 
L 803.487365 197.430169 
L 804.348326 198.398632 
L 805.209286 194.189106 
L 807.792168 193.689595 
L 808.653129 199.117374 
L 809.51409 198.9748 
L 811.236011 200.850139 
L 814.679854 205.553221 
L 815.540814 208.859008 
L 816.401775 208.851838 
L 817.262735 214.604846 
L 819.845617 216.932105 
L 820.706578 213.444632 
L 821.567539 211.157612 
L 822.428499 200.407578 
L 823.28946 205.79328 
L 825.872342 212.050391 
L 826.733303 218.219627 
L 827.594263 222.864789 
L 828.455224 232.023907 
L 829.316184 236.052315 
L 831.899066 240.91243 
L 832.760027 247.340067 
L 833.620988 246.664222 
L 834.481948 245.624733 
L 835.342909 242.168215 
L 837.925791 243.012029 
L 838.786751 237.902958 
L 839.647712 239.222171 
L 840.508673 237.914165 
L 841.369633 239.515207 
L 843.952515 242.274656 
L 844.813476 241.803287 
L 845.674437 240.678365 
L 846.535397 234.735306 
L 847.396358 230.861189 
L 849.97924 228.910097 
L 850.8402 228.817691 
L 851.701161 224.68728 
L 852.562122 219.315106 
L 853.423082 226.720123 
L 856.005964 227.094737 
L 856.866925 225.647947 
L 857.727886 229.177431 
L 858.588846 229.763268 
L 859.449807 238.375262 
L 862.032689 246.398412 
L 862.893649 250.132003 
L 863.75461 246.447479 
L 864.615571 250.707523 
L 865.476531 243.551842 
L 868.059413 248.578182 
L 868.920374 242.370915 
L 869.781335 240.443047 
L 870.642295 238.15353 
L 871.503256 233.670025 
M 874.947098 226.943635 
L 875.808059 223.589403 
L 876.66902 221.611182 
L 877.52998 213.688761 
L 880.112862 213.556893 
L 880.973823 205.5387 
L 883.556705 222.245245 
L 886.139587 228.934878 
L 887.000547 233.288177 
L 887.861508 244.146973 
L 888.722469 246.27759 
L 892.166311 259.188946 
L 893.027272 264.382589 
L 894.749193 272.046139 
L 895.610154 279.199654 
L 898.193036 277.657644 
L 899.053996 279.678693 
L 899.914957 276.426802 
L 900.775918 269.803887 
L 901.636878 259.741795 
L 904.21976 260.059249 
L 905.080721 262.563178 
L 905.941682 269.413404 
L 906.802642 275.076334 
L 907.663603 281.880379 
L 910.246485 288.014121 
L 911.107445 289.580451 
L 911.968406 295.783509 
L 912.829367 292.689714 
L 913.690327 297.084684 
L 916.273209 295.785634 
L 917.13417 295.766605 
L 917.995131 292.566964 
L 919.717052 283.567938 
L 922.299934 281.45221 
L 923.160894 280.19281 
L 924.021855 287.94426 
L 925.743776 295.147758 
L 928.326658 296.569404 
L 929.187619 303.385654 
L 930.048579 295.158132 
L 930.90954 288.225816 
L 931.770501 283.809747 
L 934.353383 277.588258 
L 935.214343 276.565336 
L 936.936265 270.25723 
L 937.797225 265.645086 
L 940.380107 261.38454 
L 941.241068 256.584649 
L 942.102028 254.743144 
L 942.962989 250.160708 
L 943.82395 252.872518 
L 946.406832 248.535439 
L 947.267792 243.523412 
L 948.128753 236.191847 
L 948.989714 235.676858 
L 949.850674 234.384617 
L 952.433556 236.959315 
L 954.155477 235.856347 
L 955.016438 243.455293 
L 955.877399 243.206291 
L 958.460281 244.088257 
L 959.321241 248.821705 
L 960.182202 251.736552 
L 961.043163 257.812005 
L 961.904123 265.77606 
L 964.487005 271.413271 
L 965.347966 266.442552 
L 966.208926 267.179415 
L 967.069887 264.008612 
L 967.930848 264.360468 
M 971.37469 268.632343 
L 972.235651 269.781748 
L 973.096612 279.772143 
L 973.957572 288.364245 
L 976.540454 293.055926 
L 977.401415 302.540428 
L 979.123336 308.842115 
L 979.984297 306.388132 
L 982.567179 312.830633 
L 983.428139 309.409595 
L 984.2891 307.628245 
L 985.150061 310.843679 
L 986.011021 311.964797 
L 988.593903 307.963381 
L 989.454864 308.446366 
L 990.315824 308.306398 
L 992.037746 313.197325 
L 995.481588 300.564481 
L 996.342549 302.640765 
L 997.20351 299.622174 
L 998.06447 293.101855 
L 1000.647352 288.679746 
L 1001.508313 288.416476 
L 1002.369273 288.857288 
L 1004.091195 296.660051 
L 1006.674077 300.455078 
L 1007.535037 290.398777 
L 1008.395998 287.782285 
L 1010.117919 278.514516 
L 1013.561762 288.7187 
L 1014.422722 289.361313 
L 1015.283683 291.341846 
L 1016.144644 295.246229 
L 1018.727526 296.442136 
L 1019.588486 301.767074 
L 1020.449447 302.08099 
L 1021.310407 299.260094 
L 1022.171368 298.32499 
L 1024.75425 293.876959 
L 1025.615211 293.313537 
L 1026.476171 293.408908 
L 1027.337132 291.296069 
L 1028.198093 289.680055 
L 1030.780975 292.505683 
L 1031.641935 294.23482 
L 1032.502896 291.16001 
L 1033.363856 297.531681 
L 1034.224817 294.876375 
L 1036.807699 297.1861 
L 1037.66866 288.468736 
L 1038.52962 286.520452 
L 1039.390581 287.361761 
L 1040.251542 285.80477 
L 1042.834424 286.046389 
L 1043.695384 286.754263 
L 1044.556345 291.000712 
L 1045.417305 294.462007 
L 1046.278266 299.538174 
L 1048.861148 295.26076 
L 1049.722109 289.257495 
L 1050.583069 285.668076 
L 1051.44403 287.123275 
L 1052.304991 281.932276 
L 1054.887873 284.787468 
L 1055.748833 289.117986 
L 1056.609794 292.326694 
L 1057.470754 294.652863 
L 1058.331715 296.036096 
L 1058.331715 296.036096 
" style="fill:none;stroke:#ff0000;stroke-linecap:square;stroke-width:1.5;"/>
   </g>
   <g id="patch_169">
    <path d="M 55.7 391 
L 55.7 25.92 
" style="fill:none;stroke:#000000;stroke-linecap:square;stroke-linejoin:miter;stroke-width:0.8;"/>
   </g>
   <g id="patch_170">
    <path d="M 1107.88 391 
L 1107.88 25.92 
" style="fill:none;stroke:#000000;stroke-linecap:square;stroke-linejoin:miter;stroke-width:0.8;"/>
   </g>
   <g id="patch_171">
    <path d="M 55.7 391 
L 1107.88 391 
" style="fill:none;stroke:#000000;stroke-linecap:square;stroke-linejoin:miter;stroke-width:0.8;"/>
   </g>
   <g id="patch_172">
    <path d="M 55.7 25.92 
L 1107.88 25.92 
" style="fill:none;stroke:#000000;stroke-linecap:square;stroke-linejoin:miter;stroke-width:0.8;"/>
   </g>
   <g id="legend_2">
    <g id="patch_173">
     <path d="M 985.775312 48.598125 
L 1100.88 48.598125 
Q 1102.88 48.598125 1102.88 46.598125 
L 1102.88 32.92 
Q 1102.88 30.92 1100.88 30.92 
L 985.775312 30.92 
Q 983.775312 30.92 983.775312 32.92 
L 983.775312 46.598125 
Q 983.775312 48.598125 985.775312 48.598125 
z
" style="fill:#ffffff;opacity:0.8;stroke:#cccccc;stroke-linejoin:miter;"/>
    </g>
    <g id="line2d_31">
     <path d="M 987.775312 39.018438 
L 1007.775312 39.018438 
" style="fill:none;stroke:#ff0000;stroke-linecap:square;stroke-width:1.5;"/>
    </g>
    <g id="line2d_32"/>
    <g id="text_26">
     <!-- daily IC cumsum -->
     <g transform="translate(1015.775312 42.518438)scale(0.1 -0.1)">
      <use xlink:href="#DejaVuSans-100"/>
      <use x="63.476562" xlink:href="#DejaVuSans-97"/>
      <use x="124.755859" xlink:href="#DejaVuSans-105"/>
      <use x="152.539062" xlink:href="#DejaVuSans-108"/>
      <use x="180.322266" xlink:href="#DejaVuSans-121"/>
      <use x="239.501953" xlink:href="#DejaVuSans-32"/>
      <use x="271.289062" xlink:href="#DejaVuSans-73"/>
      <use x="300.78125" xlink:href="#DejaVuSans-67"/>
      <use x="370.605469" xlink:href="#DejaVuSans-32"/>
      <use x="402.392578" xlink:href="#DejaVuSans-99"/>
      <use x="457.373047" xlink:href="#DejaVuSans-117"/>
      <use x="520.751953" xlink:href="#DejaVuSans-109"/>
      <use x="618.164062" xlink:href="#DejaVuSans-115"/>
      <use x="670.263672" xlink:href="#DejaVuSans-117"/>
      <use x="733.642578" xlink:href="#DejaVuSans-109"/>
     </g>
    </g>
   </g>
  </g>
  <g id="axes_3">
   <g id="matplotlib.axis_4">
    <g id="ytick_11">
     <g id="line2d_33">
      <g>
       <use style="stroke:#000000;stroke-width:0.8;" x="1107.88" xlink:href="#m8ec67e136a" y="391"/>
      </g>
     </g>
    </g>
    <g id="ytick_12">
     <g id="line2d_34">
      <g>
       <use style="stroke:#000000;stroke-width:0.8;" x="1107.88" xlink:href="#m8ec67e136a" y="317.984"/>
      </g>
     </g>
    </g>
    <g id="ytick_13">
     <g id="line2d_35">
      <g>
       <use style="stroke:#000000;stroke-width:0.8;" x="1107.88" xlink:href="#m8ec67e136a" y="244.968"/>
      </g>
     </g>
    </g>
    <g id="ytick_14">
     <g id="line2d_36">
      <g>
       <use style="stroke:#000000;stroke-width:0.8;" x="1107.88" xlink:href="#m8ec67e136a" y="171.952"/>
      </g>
     </g>
    </g>
    <g id="ytick_15">
     <g id="line2d_37">
      <g>
       <use style="stroke:#000000;stroke-width:0.8;" x="1107.88" xlink:href="#m8ec67e136a" y="98.936"/>
      </g>
     </g>
    </g>
    <g id="ytick_16">
     <g id="line2d_38">
      <g>
       <use style="stroke:#000000;stroke-width:0.8;" x="1107.88" xlink:href="#m8ec67e136a" y="25.92"/>
      </g>
     </g>
    </g>
   </g>
   <g id="patch_174">
    <path d="M 55.7 391 
L 55.7 25.92 
" style="fill:none;stroke:#000000;stroke-linecap:square;stroke-linejoin:miter;stroke-width:0.8;"/>
   </g>
   <g id="patch_175">
    <path d="M 1107.88 391 
L 1107.88 25.92 
" style="fill:none;stroke:#000000;stroke-linecap:square;stroke-linejoin:miter;stroke-width:0.8;"/>
   </g>
   <g id="patch_176">
    <path d="M 55.7 391 
L 1107.88 391 
" style="fill:none;stroke:#000000;stroke-linecap:square;stroke-linejoin:miter;stroke-width:0.8;"/>
   </g>
   <g id="patch_177">
    <path d="M 55.7 25.92 
L 1107.88 25.92 
" style="fill:none;stroke:#000000;stroke-linecap:square;stroke-linejoin:miter;stroke-width:0.8;"/>
   </g>
   <g id="text_27">
    <!-- IC: (2010-01-04 ~ 2013-01-25) -->
    <g transform="translate(488.64 19.92)scale(0.12 -0.12)">
     <defs>
      <path d="M 11.71875 12.40625 
L 22.015625 12.40625 
L 22.015625 0 
L 11.71875 0 
z
M 11.71875 51.703125 
L 22.015625 51.703125 
L 22.015625 39.3125 
L 11.71875 39.3125 
z
" id="DejaVuSans-58"/>
      <path d="M 31 75.875 
Q 24.46875 64.65625 21.28125 53.65625 
Q 18.109375 42.671875 18.109375 31.390625 
Q 18.109375 20.125 21.3125 9.0625 
Q 24.515625 -2 31 -13.1875 
L 23.1875 -13.1875 
Q 15.875 -1.703125 12.234375 9.375 
Q 8.59375 20.453125 8.59375 31.390625 
Q 8.59375 42.28125 12.203125 53.3125 
Q 15.828125 64.359375 23.1875 75.875 
z
" id="DejaVuSans-40"/>
      <path d="M 73.1875 39.890625 
L 73.1875 31.203125 
Q 68.0625 27.34375 63.6875 25.6875 
Q 59.328125 24.03125 54.59375 24.03125 
Q 49.21875 24.03125 42.09375 26.90625 
Q 41.546875 27.09375 41.3125 27.203125 
Q 40.96875 27.34375 40.234375 27.59375 
Q 32.671875 30.609375 28.078125 30.609375 
Q 23.78125 30.609375 19.578125 28.734375 
Q 15.375 26.859375 10.59375 22.796875 
L 10.59375 31.5 
Q 15.71875 35.359375 20.09375 37.03125 
Q 24.46875 38.71875 29.203125 38.71875 
Q 34.578125 38.71875 41.75 35.796875 
Q 42.234375 35.59375 42.484375 35.5 
Q 42.875 35.359375 43.5625 35.109375 
Q 51.125 32.078125 55.71875 32.078125 
Q 59.90625 32.078125 64.03125 33.9375 
Q 68.171875 35.796875 73.1875 39.890625 
z
" id="DejaVuSans-126"/>
      <path d="M 8.015625 75.875 
L 15.828125 75.875 
Q 23.140625 64.359375 26.78125 53.3125 
Q 30.421875 42.28125 30.421875 31.390625 
Q 30.421875 20.453125 26.78125 9.375 
Q 23.140625 -1.703125 15.828125 -13.1875 
L 8.015625 -13.1875 
Q 14.5 -2 17.703125 9.0625 
Q 20.90625 20.125 20.90625 31.390625 
Q 20.90625 42.671875 17.703125 53.65625 
Q 14.5 64.65625 8.015625 75.875 
z
" id="DejaVuSans-41"/>
     </defs>
     <use xlink:href="#DejaVuSans-73"/>
     <use x="29.492188" xlink:href="#DejaVuSans-67"/>
     <use x="99.316406" xlink:href="#DejaVuSans-58"/>
     <use x="133.007812" xlink:href="#DejaVuSans-32"/>
     <use x="164.794922" xlink:href="#DejaVuSans-40"/>
     <use x="203.808594" xlink:href="#DejaVuSans-50"/>
     <use x="267.431641" xlink:href="#DejaVuSans-48"/>
     <use x="331.054688" xlink:href="#DejaVuSans-49"/>
     <use x="394.677734" xlink:href="#DejaVuSans-48"/>
     <use x="458.300781" xlink:href="#DejaVuSans-45"/>
     <use x="494.384766" xlink:href="#DejaVuSans-48"/>
     <use x="558.007812" xlink:href="#DejaVuSans-49"/>
     <use x="621.630859" xlink:href="#DejaVuSans-45"/>
     <use x="657.714844" xlink:href="#DejaVuSans-48"/>
     <use x="721.337891" xlink:href="#DejaVuSans-52"/>
     <use x="784.960938" xlink:href="#DejaVuSans-32"/>
     <use x="816.748047" xlink:href="#DejaVuSans-126"/>
     <use x="900.537109" xlink:href="#DejaVuSans-32"/>
     <use x="932.324219" xlink:href="#DejaVuSans-50"/>
     <use x="995.947266" xlink:href="#DejaVuSans-48"/>
     <use x="1059.570312" xlink:href="#DejaVuSans-49"/>
     <use x="1123.193359" xlink:href="#DejaVuSans-51"/>
     <use x="1186.816406" xlink:href="#DejaVuSans-45"/>
     <use x="1222.900391" xlink:href="#DejaVuSans-48"/>
     <use x="1286.523438" xlink:href="#DejaVuSans-49"/>
     <use x="1350.146484" xlink:href="#DejaVuSans-45"/>
     <use x="1386.230469" xlink:href="#DejaVuSans-50"/>
     <use x="1449.853516" xlink:href="#DejaVuSans-53"/>
     <use x="1513.476562" xlink:href="#DejaVuSans-41"/>
    </g>
   </g>
   <g id="legend_3">
    <g id="patch_178">
     <path d="M 508.247812 92.6325 
L 655.332187 92.6325 
Q 657.332187 92.6325 657.332187 90.6325 
L 657.332187 32.92 
Q 657.332187 30.92 655.332187 30.92 
L 508.247812 30.92 
Q 506.247812 30.92 506.247812 32.92 
L 506.247812 90.6325 
Q 506.247812 92.6325 508.247812 92.6325 
z
" style="fill:#ffffff;opacity:0.8;stroke:#cccccc;stroke-linejoin:miter;"/>
    </g>
    <g id="line2d_39"/>
    <g id="line2d_40"/>
    <g id="text_28">
     <!-- IC mean:   0.0032         -->
     <g transform="translate(538.247812 42.518438)scale(0.1 -0.1)">
      <use xlink:href="#DejaVuSans-73"/>
      <use x="29.492188" xlink:href="#DejaVuSans-67"/>
      <use x="99.316406" xlink:href="#DejaVuSans-32"/>
      <use x="131.103516" xlink:href="#DejaVuSans-109"/>
      <use x="228.515625" xlink:href="#DejaVuSans-101"/>
      <use x="290.039062" xlink:href="#DejaVuSans-97"/>
      <use x="351.318359" xlink:href="#DejaVuSans-110"/>
      <use x="414.697266" xlink:href="#DejaVuSans-58"/>
      <use x="448.388672" xlink:href="#DejaVuSans-32"/>
      <use x="480.175781" xlink:href="#DejaVuSans-32"/>
      <use x="511.962891" xlink:href="#DejaVuSans-32"/>
      <use x="543.75" xlink:href="#DejaVuSans-48"/>
      <use x="607.373047" xlink:href="#DejaVuSans-46"/>
      <use x="639.160156" xlink:href="#DejaVuSans-48"/>
      <use x="702.783203" xlink:href="#DejaVuSans-48"/>
      <use x="766.40625" xlink:href="#DejaVuSans-51"/>
      <use x="830.029297" xlink:href="#DejaVuSans-50"/>
      <use x="893.652344" xlink:href="#DejaVuSans-32"/>
      <use x="925.439453" xlink:href="#DejaVuSans-32"/>
      <use x="957.226562" xlink:href="#DejaVuSans-32"/>
      <use x="989.013672" xlink:href="#DejaVuSans-32"/>
      <use x="1020.800781" xlink:href="#DejaVuSans-32"/>
      <use x="1052.587891" xlink:href="#DejaVuSans-32"/>
      <use x="1084.375" xlink:href="#DejaVuSans-32"/>
      <use x="1116.162109" xlink:href="#DejaVuSans-32"/>
     </g>
    </g>
    <g id="line2d_41"/>
    <g id="line2d_42"/>
    <g id="text_29">
     <!-- IC std:       0.3433         -->
     <g transform="translate(538.247812 57.196563)scale(0.1 -0.1)">
      <use xlink:href="#DejaVuSans-73"/>
      <use x="29.492188" xlink:href="#DejaVuSans-67"/>
      <use x="99.316406" xlink:href="#DejaVuSans-32"/>
      <use x="131.103516" xlink:href="#DejaVuSans-115"/>
      <use x="183.203125" xlink:href="#DejaVuSans-116"/>
      <use x="222.412109" xlink:href="#DejaVuSans-100"/>
      <use x="285.888672" xlink:href="#DejaVuSans-58"/>
      <use x="319.580078" xlink:href="#DejaVuSans-32"/>
      <use x="351.367188" xlink:href="#DejaVuSans-32"/>
      <use x="383.154297" xlink:href="#DejaVuSans-32"/>
      <use x="414.941406" xlink:href="#DejaVuSans-32"/>
      <use x="446.728516" xlink:href="#DejaVuSans-32"/>
      <use x="478.515625" xlink:href="#DejaVuSans-32"/>
      <use x="510.302734" xlink:href="#DejaVuSans-32"/>
      <use x="542.089844" xlink:href="#DejaVuSans-48"/>
      <use x="605.712891" xlink:href="#DejaVuSans-46"/>
      <use x="637.5" xlink:href="#DejaVuSans-51"/>
      <use x="701.123047" xlink:href="#DejaVuSans-52"/>
      <use x="764.746094" xlink:href="#DejaVuSans-51"/>
      <use x="828.369141" xlink:href="#DejaVuSans-51"/>
      <use x="891.992188" xlink:href="#DejaVuSans-32"/>
      <use x="923.779297" xlink:href="#DejaVuSans-32"/>
      <use x="955.566406" xlink:href="#DejaVuSans-32"/>
      <use x="987.353516" xlink:href="#DejaVuSans-32"/>
      <use x="1019.140625" xlink:href="#DejaVuSans-32"/>
      <use x="1050.927734" xlink:href="#DejaVuSans-32"/>
      <use x="1082.714844" xlink:href="#DejaVuSans-32"/>
      <use x="1114.501953" xlink:href="#DejaVuSans-32"/>
     </g>
    </g>
    <g id="line2d_43"/>
    <g id="line2d_44"/>
    <g id="text_30">
     <!-- IC IR:         0.0092         -->
     <g transform="translate(538.247812 71.874688)scale(0.1 -0.1)">
      <defs>
       <path d="M 44.390625 34.1875 
Q 47.5625 33.109375 50.5625 29.59375 
Q 53.5625 26.078125 56.59375 19.921875 
L 66.609375 0 
L 56 0 
L 46.6875 18.703125 
Q 43.0625 26.03125 39.671875 28.421875 
Q 36.28125 30.8125 30.421875 30.8125 
L 19.671875 30.8125 
L 19.671875 0 
L 9.8125 0 
L 9.8125 72.90625 
L 32.078125 72.90625 
Q 44.578125 72.90625 50.734375 67.671875 
Q 56.890625 62.453125 56.890625 51.90625 
Q 56.890625 45.015625 53.6875 40.46875 
Q 50.484375 35.9375 44.390625 34.1875 
z
M 19.671875 64.796875 
L 19.671875 38.921875 
L 32.078125 38.921875 
Q 39.203125 38.921875 42.84375 42.21875 
Q 46.484375 45.515625 46.484375 51.90625 
Q 46.484375 58.296875 42.84375 61.546875 
Q 39.203125 64.796875 32.078125 64.796875 
z
" id="DejaVuSans-82"/>
      </defs>
      <use xlink:href="#DejaVuSans-73"/>
      <use x="29.492188" xlink:href="#DejaVuSans-67"/>
      <use x="99.316406" xlink:href="#DejaVuSans-32"/>
      <use x="131.103516" xlink:href="#DejaVuSans-73"/>
      <use x="160.595703" xlink:href="#DejaVuSans-82"/>
      <use x="226.953125" xlink:href="#DejaVuSans-58"/>
      <use x="260.644531" xlink:href="#DejaVuSans-32"/>
      <use x="292.431641" xlink:href="#DejaVuSans-32"/>
      <use x="324.21875" xlink:href="#DejaVuSans-32"/>
      <use x="356.005859" xlink:href="#DejaVuSans-32"/>
      <use x="387.792969" xlink:href="#DejaVuSans-32"/>
      <use x="419.580078" xlink:href="#DejaVuSans-32"/>
      <use x="451.367188" xlink:href="#DejaVuSans-32"/>
      <use x="483.154297" xlink:href="#DejaVuSans-32"/>
      <use x="514.941406" xlink:href="#DejaVuSans-32"/>
      <use x="546.728516" xlink:href="#DejaVuSans-48"/>
      <use x="610.351562" xlink:href="#DejaVuSans-46"/>
      <use x="642.138672" xlink:href="#DejaVuSans-48"/>
      <use x="705.761719" xlink:href="#DejaVuSans-48"/>
      <use x="769.384766" xlink:href="#DejaVuSans-57"/>
      <use x="833.007812" xlink:href="#DejaVuSans-50"/>
      <use x="896.630859" xlink:href="#DejaVuSans-32"/>
      <use x="928.417969" xlink:href="#DejaVuSans-32"/>
      <use x="960.205078" xlink:href="#DejaVuSans-32"/>
      <use x="991.992188" xlink:href="#DejaVuSans-32"/>
      <use x="1023.779297" xlink:href="#DejaVuSans-32"/>
      <use x="1055.566406" xlink:href="#DejaVuSans-32"/>
      <use x="1087.353516" xlink:href="#DejaVuSans-32"/>
      <use x="1119.140625" xlink:href="#DejaVuSans-32"/>
     </g>
    </g>
    <g id="line2d_45"/>
    <g id="line2d_46"/>
    <g id="text_31">
     <!-- IC (+)rate: 0.4925 -->
     <g transform="translate(538.247812 86.552813)scale(0.1 -0.1)">
      <defs>
       <path d="M 46 62.703125 
L 46 35.5 
L 73.1875 35.5 
L 73.1875 27.203125 
L 46 27.203125 
L 46 0 
L 37.796875 0 
L 37.796875 27.203125 
L 10.59375 27.203125 
L 10.59375 35.5 
L 37.796875 35.5 
L 37.796875 62.703125 
z
" id="DejaVuSans-43"/>
       <path d="M 41.109375 46.296875 
Q 39.59375 47.171875 37.8125 47.578125 
Q 36.03125 48 33.890625 48 
Q 26.265625 48 22.1875 43.046875 
Q 18.109375 38.09375 18.109375 28.8125 
L 18.109375 0 
L 9.078125 0 
L 9.078125 54.6875 
L 18.109375 54.6875 
L 18.109375 46.1875 
Q 20.953125 51.171875 25.484375 53.578125 
Q 30.03125 56 36.53125 56 
Q 37.453125 56 38.578125 55.875 
Q 39.703125 55.765625 41.0625 55.515625 
z
" id="DejaVuSans-114"/>
      </defs>
      <use xlink:href="#DejaVuSans-73"/>
      <use x="29.492188" xlink:href="#DejaVuSans-67"/>
      <use x="99.316406" xlink:href="#DejaVuSans-32"/>
      <use x="131.103516" xlink:href="#DejaVuSans-40"/>
      <use x="170.117188" xlink:href="#DejaVuSans-43"/>
      <use x="253.90625" xlink:href="#DejaVuSans-41"/>
      <use x="292.919922" xlink:href="#DejaVuSans-114"/>
      <use x="334.033203" xlink:href="#DejaVuSans-97"/>
      <use x="395.3125" xlink:href="#DejaVuSans-116"/>
      <use x="434.521484" xlink:href="#DejaVuSans-101"/>
      <use x="496.044922" xlink:href="#DejaVuSans-58"/>
      <use x="529.736328" xlink:href="#DejaVuSans-32"/>
      <use x="561.523438" xlink:href="#DejaVuSans-48"/>
      <use x="625.146484" xlink:href="#DejaVuSans-46"/>
      <use x="656.933594" xlink:href="#DejaVuSans-52"/>
      <use x="720.556641" xlink:href="#DejaVuSans-57"/>
      <use x="784.179688" xlink:href="#DejaVuSans-50"/>
      <use x="847.802734" xlink:href="#DejaVuSans-53"/>
     </g>
    </g>
   </g>
  </g>
 </g>
 <defs>
  <clipPath id="p83a9889d34">
   <rect height="365.08" width="1052.18" x="55.7" y="25.92"/>
  </clipPath>
 </defs>
</svg>
