<?xml version="1.0" encoding="utf-8" standalone="no"?>
<!DOCTYPE svg PUBLIC "-//W3C//DTD SVG 1.1//EN"
  "http://www.w3.org/Graphics/SVG/1.1/DTD/svg11.dtd">
<!-- Created with matplotlib (https://matplotlib.org/) -->
<svg height="432pt" version="1.1" viewBox="0 0 1152 432" width="1152pt" xmlns="http://www.w3.org/2000/svg" xmlns:xlink="http://www.w3.org/1999/xlink">
 <metadata>
  <rdf:RDF xmlns:cc="http://creativecommons.org/ns#" xmlns:dc="http://purl.org/dc/elements/1.1/" xmlns:rdf="http://www.w3.org/1999/02/22-rdf-syntax-ns#">
   <cc:Work>
    <dc:type rdf:resource="http://purl.org/dc/dcmitype/StillImage"/>
    <dc:date>2023-10-11T16:36:33.198677</dc:date>
    <dc:format>image/svg+xml</dc:format>
    <dc:creator>
     <cc:Agent>
      <dc:title>Matplotlib v3.3.4, https://matplotlib.org/</dc:title>
     </cc:Agent>
    </dc:creator>
   </cc:Work>
  </rdf:RDF>
 </metadata>
 <defs>
  <style type="text/css">*{stroke-linecap:butt;stroke-linejoin:round;}</style>
 </defs>
 <g id="figure_1">
  <g id="patch_1">
   <path d="M 0 432 
L 1152 432 
L 1152 0 
L 0 0 
z
" style="fill:#ffffff;"/>
  </g>
  <g id="axes_1">
   <g id="patch_2">
    <path d="M 47.36 415.960658 
L 1141.2 415.960658 
L 1141.2 25.92 
L 47.36 25.92 
z
" style="fill:#ffffff;"/>
   </g>
   <g id="matplotlib.axis_1"/>
   <g id="matplotlib.axis_2">
    <g id="ytick_1">
     <g id="line2d_1">
      <path clip-path="url(#p21f6702b02)" d="M 47.36 415.350155 
L 1141.2 415.350155 
" style="fill:none;stroke:#b0b0b0;stroke-linecap:square;stroke-width:0.8;"/>
     </g>
     <g id="line2d_2">
      <defs>
       <path d="M 0 0 
L -3.5 0 
" id="mf8f42d3623" style="stroke:#000000;stroke-width:0.8;"/>
      </defs>
      <g>
       <use style="stroke:#000000;stroke-width:0.8;" x="47.36" xlink:href="#mf8f42d3623" y="415.350155"/>
      </g>
     </g>
     <g id="text_1">
      <!-- 0.8 -->
      <g transform="translate(24.456875 419.149373)scale(0.1 -0.1)">
       <defs>
        <path d="M 31.78125 66.40625 
Q 24.171875 66.40625 20.328125 58.90625 
Q 16.5 51.421875 16.5 36.375 
Q 16.5 21.390625 20.328125 13.890625 
Q 24.171875 6.390625 31.78125 6.390625 
Q 39.453125 6.390625 43.28125 13.890625 
Q 47.125 21.390625 47.125 36.375 
Q 47.125 51.421875 43.28125 58.90625 
Q 39.453125 66.40625 31.78125 66.40625 
z
M 31.78125 74.21875 
Q 44.046875 74.21875 50.515625 64.515625 
Q 56.984375 54.828125 56.984375 36.375 
Q 56.984375 17.96875 50.515625 8.265625 
Q 44.046875 -1.421875 31.78125 -1.421875 
Q 19.53125 -1.421875 13.0625 8.265625 
Q 6.59375 17.96875 6.59375 36.375 
Q 6.59375 54.828125 13.0625 64.515625 
Q 19.53125 74.21875 31.78125 74.21875 
z
" id="DejaVuSans-48"/>
        <path d="M 10.6875 12.40625 
L 21 12.40625 
L 21 0 
L 10.6875 0 
z
" id="DejaVuSans-46"/>
        <path d="M 31.78125 34.625 
Q 24.75 34.625 20.71875 30.859375 
Q 16.703125 27.09375 16.703125 20.515625 
Q 16.703125 13.921875 20.71875 10.15625 
Q 24.75 6.390625 31.78125 6.390625 
Q 38.8125 6.390625 42.859375 10.171875 
Q 46.921875 13.96875 46.921875 20.515625 
Q 46.921875 27.09375 42.890625 30.859375 
Q 38.875 34.625 31.78125 34.625 
z
M 21.921875 38.8125 
Q 15.578125 40.375 12.03125 44.71875 
Q 8.5 49.078125 8.5 55.328125 
Q 8.5 64.0625 14.71875 69.140625 
Q 20.953125 74.21875 31.78125 74.21875 
Q 42.671875 74.21875 48.875 69.140625 
Q 55.078125 64.0625 55.078125 55.328125 
Q 55.078125 49.078125 51.53125 44.71875 
Q 48 40.375 41.703125 38.8125 
Q 48.828125 37.15625 52.796875 32.3125 
Q 56.78125 27.484375 56.78125 20.515625 
Q 56.78125 9.90625 50.3125 4.234375 
Q 43.84375 -1.421875 31.78125 -1.421875 
Q 19.734375 -1.421875 13.25 4.234375 
Q 6.78125 9.90625 6.78125 20.515625 
Q 6.78125 27.484375 10.78125 32.3125 
Q 14.796875 37.15625 21.921875 38.8125 
z
M 18.3125 54.390625 
Q 18.3125 48.734375 21.84375 45.5625 
Q 25.390625 42.390625 31.78125 42.390625 
Q 38.140625 42.390625 41.71875 45.5625 
Q 45.3125 48.734375 45.3125 54.390625 
Q 45.3125 60.0625 41.71875 63.234375 
Q 38.140625 66.40625 31.78125 66.40625 
Q 25.390625 66.40625 21.84375 63.234375 
Q 18.3125 60.0625 18.3125 54.390625 
z
" id="DejaVuSans-56"/>
       </defs>
       <use xlink:href="#DejaVuSans-48"/>
       <use x="63.623047" xlink:href="#DejaVuSans-46"/>
       <use x="95.410156" xlink:href="#DejaVuSans-56"/>
      </g>
     </g>
    </g>
    <g id="ytick_2">
     <g id="line2d_3">
      <path clip-path="url(#p21f6702b02)" d="M 47.36 342.007151 
L 1141.2 342.007151 
" style="fill:none;stroke:#b0b0b0;stroke-linecap:square;stroke-width:0.8;"/>
     </g>
     <g id="line2d_4">
      <g>
       <use style="stroke:#000000;stroke-width:0.8;" x="47.36" xlink:href="#mf8f42d3623" y="342.007151"/>
      </g>
     </g>
     <g id="text_2">
      <!-- 1.0 -->
      <g transform="translate(24.456875 345.80637)scale(0.1 -0.1)">
       <defs>
        <path d="M 12.40625 8.296875 
L 28.515625 8.296875 
L 28.515625 63.921875 
L 10.984375 60.40625 
L 10.984375 69.390625 
L 28.421875 72.90625 
L 38.28125 72.90625 
L 38.28125 8.296875 
L 54.390625 8.296875 
L 54.390625 0 
L 12.40625 0 
z
" id="DejaVuSans-49"/>
       </defs>
       <use xlink:href="#DejaVuSans-49"/>
       <use x="63.623047" xlink:href="#DejaVuSans-46"/>
       <use x="95.410156" xlink:href="#DejaVuSans-48"/>
      </g>
     </g>
    </g>
    <g id="ytick_3">
     <g id="line2d_5">
      <path clip-path="url(#p21f6702b02)" d="M 47.36 268.664147 
L 1141.2 268.664147 
" style="fill:none;stroke:#b0b0b0;stroke-linecap:square;stroke-width:0.8;"/>
     </g>
     <g id="line2d_6">
      <g>
       <use style="stroke:#000000;stroke-width:0.8;" x="47.36" xlink:href="#mf8f42d3623" y="268.664147"/>
      </g>
     </g>
     <g id="text_3">
      <!-- 1.2 -->
      <g transform="translate(24.456875 272.463366)scale(0.1 -0.1)">
       <defs>
        <path d="M 19.1875 8.296875 
L 53.609375 8.296875 
L 53.609375 0 
L 7.328125 0 
L 7.328125 8.296875 
Q 12.9375 14.109375 22.625 23.890625 
Q 32.328125 33.6875 34.8125 36.53125 
Q 39.546875 41.84375 41.421875 45.53125 
Q 43.3125 49.21875 43.3125 52.78125 
Q 43.3125 58.59375 39.234375 62.25 
Q 35.15625 65.921875 28.609375 65.921875 
Q 23.96875 65.921875 18.8125 64.3125 
Q 13.671875 62.703125 7.8125 59.421875 
L 7.8125 69.390625 
Q 13.765625 71.78125 18.9375 73 
Q 24.125 74.21875 28.421875 74.21875 
Q 39.75 74.21875 46.484375 68.546875 
Q 53.21875 62.890625 53.21875 53.421875 
Q 53.21875 48.921875 51.53125 44.890625 
Q 49.859375 40.875 45.40625 35.40625 
Q 44.1875 33.984375 37.640625 27.21875 
Q 31.109375 20.453125 19.1875 8.296875 
z
" id="DejaVuSans-50"/>
       </defs>
       <use xlink:href="#DejaVuSans-49"/>
       <use x="63.623047" xlink:href="#DejaVuSans-46"/>
       <use x="95.410156" xlink:href="#DejaVuSans-50"/>
      </g>
     </g>
    </g>
    <g id="ytick_4">
     <g id="line2d_7">
      <path clip-path="url(#p21f6702b02)" d="M 47.36 195.321143 
L 1141.2 195.321143 
" style="fill:none;stroke:#b0b0b0;stroke-linecap:square;stroke-width:0.8;"/>
     </g>
     <g id="line2d_8">
      <g>
       <use style="stroke:#000000;stroke-width:0.8;" x="47.36" xlink:href="#mf8f42d3623" y="195.321143"/>
      </g>
     </g>
     <g id="text_4">
      <!-- 1.4 -->
      <g transform="translate(24.456875 199.120362)scale(0.1 -0.1)">
       <defs>
        <path d="M 37.796875 64.3125 
L 12.890625 25.390625 
L 37.796875 25.390625 
z
M 35.203125 72.90625 
L 47.609375 72.90625 
L 47.609375 25.390625 
L 58.015625 25.390625 
L 58.015625 17.1875 
L 47.609375 17.1875 
L 47.609375 0 
L 37.796875 0 
L 37.796875 17.1875 
L 4.890625 17.1875 
L 4.890625 26.703125 
z
" id="DejaVuSans-52"/>
       </defs>
       <use xlink:href="#DejaVuSans-49"/>
       <use x="63.623047" xlink:href="#DejaVuSans-46"/>
       <use x="95.410156" xlink:href="#DejaVuSans-52"/>
      </g>
     </g>
    </g>
    <g id="ytick_5">
     <g id="line2d_9">
      <path clip-path="url(#p21f6702b02)" d="M 47.36 121.978139 
L 1141.2 121.978139 
" style="fill:none;stroke:#b0b0b0;stroke-linecap:square;stroke-width:0.8;"/>
     </g>
     <g id="line2d_10">
      <g>
       <use style="stroke:#000000;stroke-width:0.8;" x="47.36" xlink:href="#mf8f42d3623" y="121.978139"/>
      </g>
     </g>
     <g id="text_5">
      <!-- 1.6 -->
      <g transform="translate(24.456875 125.777358)scale(0.1 -0.1)">
       <defs>
        <path d="M 33.015625 40.375 
Q 26.375 40.375 22.484375 35.828125 
Q 18.609375 31.296875 18.609375 23.390625 
Q 18.609375 15.53125 22.484375 10.953125 
Q 26.375 6.390625 33.015625 6.390625 
Q 39.65625 6.390625 43.53125 10.953125 
Q 47.40625 15.53125 47.40625 23.390625 
Q 47.40625 31.296875 43.53125 35.828125 
Q 39.65625 40.375 33.015625 40.375 
z
M 52.59375 71.296875 
L 52.59375 62.3125 
Q 48.875 64.0625 45.09375 64.984375 
Q 41.3125 65.921875 37.59375 65.921875 
Q 27.828125 65.921875 22.671875 59.328125 
Q 17.53125 52.734375 16.796875 39.40625 
Q 19.671875 43.65625 24.015625 45.921875 
Q 28.375 48.1875 33.59375 48.1875 
Q 44.578125 48.1875 50.953125 41.515625 
Q 57.328125 34.859375 57.328125 23.390625 
Q 57.328125 12.15625 50.6875 5.359375 
Q 44.046875 -1.421875 33.015625 -1.421875 
Q 20.359375 -1.421875 13.671875 8.265625 
Q 6.984375 17.96875 6.984375 36.375 
Q 6.984375 53.65625 15.1875 63.9375 
Q 23.390625 74.21875 37.203125 74.21875 
Q 40.921875 74.21875 44.703125 73.484375 
Q 48.484375 72.75 52.59375 71.296875 
z
" id="DejaVuSans-54"/>
       </defs>
       <use xlink:href="#DejaVuSans-49"/>
       <use x="63.623047" xlink:href="#DejaVuSans-46"/>
       <use x="95.410156" xlink:href="#DejaVuSans-54"/>
      </g>
     </g>
    </g>
    <g id="ytick_6">
     <g id="line2d_11">
      <path clip-path="url(#p21f6702b02)" d="M 47.36 48.635135 
L 1141.2 48.635135 
" style="fill:none;stroke:#b0b0b0;stroke-linecap:square;stroke-width:0.8;"/>
     </g>
     <g id="line2d_12">
      <g>
       <use style="stroke:#000000;stroke-width:0.8;" x="47.36" xlink:href="#mf8f42d3623" y="48.635135"/>
      </g>
     </g>
     <g id="text_6">
      <!-- 1.8 -->
      <g transform="translate(24.456875 52.434354)scale(0.1 -0.1)">
       <use xlink:href="#DejaVuSans-49"/>
       <use x="63.623047" xlink:href="#DejaVuSans-46"/>
       <use x="95.410156" xlink:href="#DejaVuSans-56"/>
      </g>
     </g>
    </g>
    <g id="text_7">
     <!-- net value -->
     <g transform="translate(18.377187 244.392673)rotate(-90)scale(0.1 -0.1)">
      <defs>
       <path d="M 54.890625 33.015625 
L 54.890625 0 
L 45.90625 0 
L 45.90625 32.71875 
Q 45.90625 40.484375 42.875 44.328125 
Q 39.84375 48.1875 33.796875 48.1875 
Q 26.515625 48.1875 22.3125 43.546875 
Q 18.109375 38.921875 18.109375 30.90625 
L 18.109375 0 
L 9.078125 0 
L 9.078125 54.6875 
L 18.109375 54.6875 
L 18.109375 46.1875 
Q 21.34375 51.125 25.703125 53.5625 
Q 30.078125 56 35.796875 56 
Q 45.21875 56 50.046875 50.171875 
Q 54.890625 44.34375 54.890625 33.015625 
z
" id="DejaVuSans-110"/>
       <path d="M 56.203125 29.59375 
L 56.203125 25.203125 
L 14.890625 25.203125 
Q 15.484375 15.921875 20.484375 11.0625 
Q 25.484375 6.203125 34.421875 6.203125 
Q 39.59375 6.203125 44.453125 7.46875 
Q 49.3125 8.734375 54.109375 11.28125 
L 54.109375 2.78125 
Q 49.265625 0.734375 44.1875 -0.34375 
Q 39.109375 -1.421875 33.890625 -1.421875 
Q 20.796875 -1.421875 13.15625 6.1875 
Q 5.515625 13.8125 5.515625 26.8125 
Q 5.515625 40.234375 12.765625 48.109375 
Q 20.015625 56 32.328125 56 
Q 43.359375 56 49.78125 48.890625 
Q 56.203125 41.796875 56.203125 29.59375 
z
M 47.21875 32.234375 
Q 47.125 39.59375 43.09375 43.984375 
Q 39.0625 48.390625 32.421875 48.390625 
Q 24.90625 48.390625 20.390625 44.140625 
Q 15.875 39.890625 15.1875 32.171875 
z
" id="DejaVuSans-101"/>
       <path d="M 18.3125 70.21875 
L 18.3125 54.6875 
L 36.8125 54.6875 
L 36.8125 47.703125 
L 18.3125 47.703125 
L 18.3125 18.015625 
Q 18.3125 11.328125 20.140625 9.421875 
Q 21.96875 7.515625 27.59375 7.515625 
L 36.8125 7.515625 
L 36.8125 0 
L 27.59375 0 
Q 17.1875 0 13.234375 3.875 
Q 9.28125 7.765625 9.28125 18.015625 
L 9.28125 47.703125 
L 2.6875 47.703125 
L 2.6875 54.6875 
L 9.28125 54.6875 
L 9.28125 70.21875 
z
" id="DejaVuSans-116"/>
       <path id="DejaVuSans-32"/>
       <path d="M 2.984375 54.6875 
L 12.5 54.6875 
L 29.59375 8.796875 
L 46.6875 54.6875 
L 56.203125 54.6875 
L 35.6875 0 
L 23.484375 0 
z
" id="DejaVuSans-118"/>
       <path d="M 34.28125 27.484375 
Q 23.390625 27.484375 19.1875 25 
Q 14.984375 22.515625 14.984375 16.5 
Q 14.984375 11.71875 18.140625 8.90625 
Q 21.296875 6.109375 26.703125 6.109375 
Q 34.1875 6.109375 38.703125 11.40625 
Q 43.21875 16.703125 43.21875 25.484375 
L 43.21875 27.484375 
z
M 52.203125 31.203125 
L 52.203125 0 
L 43.21875 0 
L 43.21875 8.296875 
Q 40.140625 3.328125 35.546875 0.953125 
Q 30.953125 -1.421875 24.3125 -1.421875 
Q 15.921875 -1.421875 10.953125 3.296875 
Q 6 8.015625 6 15.921875 
Q 6 25.140625 12.171875 29.828125 
Q 18.359375 34.515625 30.609375 34.515625 
L 43.21875 34.515625 
L 43.21875 35.40625 
Q 43.21875 41.609375 39.140625 45 
Q 35.0625 48.390625 27.6875 48.390625 
Q 23 48.390625 18.546875 47.265625 
Q 14.109375 46.140625 10.015625 43.890625 
L 10.015625 52.203125 
Q 14.9375 54.109375 19.578125 55.046875 
Q 24.21875 56 28.609375 56 
Q 40.484375 56 46.34375 49.84375 
Q 52.203125 43.703125 52.203125 31.203125 
z
" id="DejaVuSans-97"/>
       <path d="M 9.421875 75.984375 
L 18.40625 75.984375 
L 18.40625 0 
L 9.421875 0 
z
" id="DejaVuSans-108"/>
       <path d="M 8.5 21.578125 
L 8.5 54.6875 
L 17.484375 54.6875 
L 17.484375 21.921875 
Q 17.484375 14.15625 20.5 10.265625 
Q 23.53125 6.390625 29.59375 6.390625 
Q 36.859375 6.390625 41.078125 11.03125 
Q 45.3125 15.671875 45.3125 23.6875 
L 45.3125 54.6875 
L 54.296875 54.6875 
L 54.296875 0 
L 45.3125 0 
L 45.3125 8.40625 
Q 42.046875 3.421875 37.71875 1 
Q 33.40625 -1.421875 27.6875 -1.421875 
Q 18.265625 -1.421875 13.375 4.4375 
Q 8.5 10.296875 8.5 21.578125 
z
M 31.109375 56 
z
" id="DejaVuSans-117"/>
      </defs>
      <use xlink:href="#DejaVuSans-110"/>
      <use x="63.378906" xlink:href="#DejaVuSans-101"/>
      <use x="124.902344" xlink:href="#DejaVuSans-116"/>
      <use x="164.111328" xlink:href="#DejaVuSans-32"/>
      <use x="195.898438" xlink:href="#DejaVuSans-118"/>
      <use x="255.078125" xlink:href="#DejaVuSans-97"/>
      <use x="316.357422" xlink:href="#DejaVuSans-108"/>
      <use x="344.140625" xlink:href="#DejaVuSans-117"/>
      <use x="407.519531" xlink:href="#DejaVuSans-101"/>
     </g>
    </g>
   </g>
   <g id="line2d_13">
    <path clip-path="url(#p21f6702b02)" d="M 97.08 329.989204 
L 101.089677 338.715729 
L 105.099355 339.056408 
L 109.109032 325.243113 
L 121.138065 320.286512 
L 125.147742 307.259543 
L 129.157419 316.702489 
L 133.167097 319.820001 
L 137.176774 326.186755 
L 149.205806 322.58856 
L 153.215484 311.061089 
L 157.225161 299.051641 
L 161.234839 295.946212 
L 165.244516 304.948259 
L 177.273548 309.70285 
L 181.283226 312.836295 
L 185.292903 305.234214 
L 189.302581 307.801106 
L 193.312258 314.728778 
L 205.34129 319.582045 
L 209.350968 304.379658 
L 213.360645 301.696347 
L 217.370323 297.725624 
L 221.38 286.549778 
L 233.409032 289.642655 
L 237.41871 303.407119 
L 241.428387 312.86206 
L 245.438065 313.297029 
L 249.447742 319.56509 
L 261.476774 320.661575 
L 265.486452 332.224544 
L 269.496129 331.589396 
L 273.505806 343.759894 
L 277.515484 348.922389 
L 289.544516 344.645875 
L 293.554194 353.815457 
L 297.563871 368.959003 
L 301.573548 362.488835 
L 305.583226 376.028306 
L 317.612258 372.601989 
L 321.621935 365.406165 
L 325.631613 356.340271 
L 329.64129 365.692698 
L 333.650968 355.621923 
L 345.68 362.636603 
L 349.689677 355.010813 
L 353.699355 343.859734 
L 357.709032 355.132067 
L 361.71871 358.313007 
L 373.747742 357.489321 
L 377.757419 374.345432 
L 381.767097 365.554418 
L 385.776774 358.21543 
L 389.786452 357.815261 
L 401.815484 366.508433 
L 405.825161 362.442511 
L 409.834839 352.132415 
L 413.844516 360.332163 
L 417.854194 352.032667 
L 429.883226 346.642922 
L 433.892903 337.001205 
L 437.902581 314.608106 
L 441.912258 299.308429 
L 445.921935 296.208227 
L 457.950968 294.572244 
L 461.960645 287.308899 
L 465.970323 296.104736 
L 469.98 311.516587 
L 473.989677 313.12886 
L 486.01871 308.457932 
L 490.028387 295.545894 
L 494.038065 301.169532 
L 498.047742 305.363059 
L 502.057419 303.454066 
L 514.086452 312.858621 
L 518.096129 314.269522 
L 522.105806 307.293978 
L 526.115484 309.941697 
L 530.125161 313.450556 
L 542.154194 290.797422 
L 546.163871 284.795494 
L 550.173548 298.853611 
L 554.183226 295.499338 
L 558.192903 288.287311 
L 570.221935 288.951687 
L 574.231613 290.745214 
L 578.24129 288.309417 
L 582.250968 282.604763 
L 586.260645 273.57016 
L 598.289677 266.29148 
L 602.299355 274.492875 
L 606.309032 284.95878 
L 610.31871 291.782677 
L 614.328387 293.958671 
L 626.357419 293.404772 
L 630.367097 304.814604 
L 634.376774 288.945672 
L 638.386452 276.149785 
L 642.396129 285.727062 
L 654.425161 277.467739 
L 658.434839 270.810642 
L 662.444516 269.442501 
L 666.454194 266.146256 
L 670.463871 269.623431 
L 682.492903 266.721485 
L 686.502581 270.156647 
L 690.512258 283.025964 
L 694.521935 294.278784 
L 698.531613 312.412472 
L 710.560645 311.944476 
L 714.570323 295.842392 
L 718.58 290.104369 
L 722.589677 299.452015 
L 726.599355 306.679248 
L 738.628387 290.141327 
L 742.638065 283.717528 
L 746.647742 267.5954 
L 750.657419 276.141245 
L 754.667097 279.599072 
L 766.696129 287.192591 
L 770.705806 292.290661 
L 774.715484 298.706593 
L 778.725161 313.788865 
L 782.734839 290.210753 
L 794.763871 285.433482 
L 798.773548 279.022761 
L 802.783226 263.10685 
L 806.792903 264.580168 
L 810.802581 255.970062 
L 822.831613 262.509009 
L 826.84129 255.89185 
L 830.850968 243.000683 
L 834.860645 232.185793 
L 838.870323 222.11495 
L 850.899355 212.798007 
L 854.909032 213.232327 
L 858.91871 203.48843 
L 862.928387 190.566645 
L 866.938065 179.829786 
L 878.967097 163.728101 
L 882.976774 146.781819 
L 886.986452 159.762736 
L 890.996129 149.259682 
L 895.005806 146.550508 
L 907.034839 137.337266 
L 911.044516 124.144845 
L 915.054194 115.52173 
L 919.063871 116.805601 
L 923.073548 105.069571 
L 935.102581 98.160027 
L 939.112258 86.236546 
L 943.121935 86.167188 
L 947.131613 59.984103 
L 951.14129 72.071793 
L 963.170323 75.347622 
L 967.18 58.637557 
L 971.189677 48.177192 
L 975.199355 50.575195 
L 979.209032 43.649121 
L 991.238065 45.415024 
L 995.247742 53.979724 
L 999.257419 70.945014 
L 1003.267097 63.692715 
L 1007.276774 62.986151 
L 1019.305806 69.396594 
L 1023.315484 91.308675 
L 1027.325161 68.763712 
L 1031.334839 74.314874 
L 1035.344516 115.094006 
L 1047.373548 136.154767 
L 1051.383226 125.258002 
L 1055.392903 88.889518 
L 1059.402581 100.82089 
L 1063.412258 102.484685 
L 1075.44129 123.826419 
L 1079.450968 139.670488 
L 1083.460645 136.767548 
L 1087.470323 123.522868 
L 1091.48 127.907474 
L 1091.48 127.907474 
" style="fill:none;stroke:#1f77b4;stroke-linecap:square;stroke-width:1.5;"/>
   </g>
   <g id="line2d_14">
    <path clip-path="url(#p21f6702b02)" d="M 97.08 353.226577 
L 101.089677 358.443856 
L 105.099355 350.721438 
L 109.109032 363.251377 
L 121.138065 352.150208 
L 125.147742 353.249479 
L 129.157419 364.274717 
L 133.167097 353.929078 
L 137.176774 358.29377 
L 153.215484 355.686231 
L 157.225161 346.550784 
L 161.234839 341.873529 
L 165.244516 353.906737 
L 177.273548 358.042977 
L 181.283226 366.120398 
L 185.292903 367.124404 
L 189.302581 373.563248 
L 193.312258 371.68844 
L 205.34129 364.902387 
L 209.350968 366.465915 
L 213.360645 359.467044 
L 217.370323 354.462676 
L 221.38 354.89275 
L 233.409032 351.773571 
L 237.41871 349.365822 
L 241.428387 352.330493 
L 245.438065 338.145678 
L 249.447742 347.506002 
L 261.476774 356.594012 
L 265.486452 355.405724 
L 269.496129 359.364066 
L 273.505806 367.528635 
L 277.515484 374.424413 
L 289.544516 364.959833 
L 293.554194 361.391869 
L 297.563871 362.036031 
L 301.573548 351.287753 
L 305.583226 350.921777 
L 317.612258 353.068352 
L 321.621935 352.393218 
L 325.631613 360.619913 
L 329.64129 361.20192 
L 333.650968 354.632963 
L 345.68 357.794598 
L 349.689677 363.198331 
L 353.699355 355.751948 
L 357.709032 347.167242 
L 361.71871 339.395776 
L 373.747742 330.957984 
L 377.757419 341.020901 
L 381.767097 355.216112 
L 385.776774 354.338995 
L 389.786452 339.176469 
L 401.815484 337.197438 
L 405.825161 317.094601 
L 409.834839 326.973836 
L 413.844516 329.959182 
L 417.854194 332.363985 
L 429.883226 315.674113 
L 433.892903 314.894025 
L 437.902581 313.700842 
L 441.912258 314.143504 
L 445.921935 309.434388 
L 457.950968 307.6156 
L 461.960645 303.444825 
L 465.970323 299.469933 
L 469.98 308.657484 
L 473.989677 299.717652 
L 486.01871 294.268154 
L 490.028387 292.978848 
L 494.038065 303.959853 
L 498.047742 306.687077 
L 502.057419 299.494645 
L 514.086452 307.081251 
L 518.096129 296.145187 
L 522.105806 293.547465 
L 526.115484 306.789144 
L 530.125161 292.530594 
L 542.154194 287.356247 
L 546.163871 297.971765 
L 550.173548 293.566341 
L 554.183226 309.642956 
L 558.192903 311.41071 
L 570.221935 302.429341 
L 574.231613 308.950829 
L 578.24129 308.986325 
L 582.250968 307.827089 
L 586.260645 310.336891 
L 598.289677 306.453171 
L 602.299355 300.351496 
L 606.309032 293.429743 
L 610.31871 291.469106 
L 614.328387 304.818021 
L 626.357419 304.129837 
L 630.367097 310.325199 
L 634.376774 314.327155 
L 638.386452 326.183383 
L 642.396129 323.349393 
L 654.425161 320.45934 
L 658.434839 310.536232 
L 662.444516 311.518182 
L 666.454194 302.867267 
L 670.463871 293.109516 
L 682.492903 286.838976 
L 686.502581 280.454316 
L 690.512258 286.957173 
L 694.521935 291.044079 
L 698.531613 288.255054 
L 710.560645 286.806199 
L 714.570323 289.191833 
L 718.58 289.214318 
L 722.589677 285.975685 
L 726.599355 281.316221 
L 738.628387 279.92111 
L 742.638065 283.102182 
L 746.647742 280.803592 
L 750.657419 281.294302 
L 754.667097 280.574622 
L 766.696129 279.226716 
L 770.705806 277.602507 
L 774.715484 271.448087 
L 778.725161 261.428067 
L 782.734839 266.702488 
L 794.763871 268.039149 
L 798.773548 260.097838 
L 802.783226 263.771224 
L 806.792903 265.8531 
L 810.802581 255.205401 
L 822.831613 246.261391 
L 826.84129 261.420897 
L 830.850968 268.738268 
L 834.860645 271.543445 
L 838.870323 261.84629 
L 850.899355 266.85226 
L 854.909032 271.800405 
L 858.91871 270.914031 
L 862.928387 274.981272 
L 866.938065 271.227287 
L 878.967097 283.266122 
L 882.976774 277.173696 
L 886.986452 279.59194 
L 890.996129 276.89538 
L 895.005806 270.124528 
L 907.034839 268.841239 
L 911.044516 247.935678 
L 915.054194 233.74091 
L 919.063871 241.335911 
L 923.073548 246.310905 
L 935.102581 232.218968 
L 939.112258 226.225905 
L 943.121935 211.906653 
L 951.14129 230.594557 
L 963.170323 227.569973 
L 967.18 223.544362 
L 971.189677 224.156497 
L 975.199355 238.326863 
L 979.209032 239.723067 
L 991.238065 237.495196 
L 995.247742 232.344678 
L 999.257419 215.002285 
L 1003.267097 229.6118 
L 1007.276774 233.779066 
L 1019.305806 217.618127 
L 1023.315484 225.253096 
L 1027.325161 220.491277 
L 1031.334839 212.871299 
L 1035.344516 221.090486 
L 1047.373548 209.36167 
L 1051.383226 198.294415 
L 1055.392903 200.891068 
L 1059.402581 205.307384 
L 1063.412258 202.455891 
L 1075.44129 208.306401 
L 1079.450968 206.531577 
L 1083.460645 192.509494 
L 1087.470323 179.745221 
L 1091.48 178.910352 
L 1091.48 178.910352 
" style="fill:none;stroke:#ff7f0e;stroke-linecap:square;stroke-width:1.5;"/>
   </g>
   <g id="line2d_15">
    <path clip-path="url(#p21f6702b02)" d="M 97.08 318.769777 
L 101.089677 322.031844 
L 105.099355 330.91306 
L 109.109032 303.572247 
L 121.138065 311.354407 
L 125.147742 296.802842 
L 129.157419 293.715773 
L 133.167097 309.480995 
L 137.176774 311.105515 
L 149.205806 309.504244 
L 153.215484 298.404943 
L 157.225161 296.63098 
L 161.234839 298.829146 
L 165.244516 294.323189 
L 177.273548 294.372063 
L 181.283226 288.081904 
L 185.292903 278.771771 
L 189.302581 273.40279 
L 193.312258 283.359929 
L 205.34129 297.164118 
L 209.350968 279.214369 
L 213.360645 285.147152 
L 217.370323 287.084257 
L 221.38 275.10718 
L 233.409032 282.106413 
L 237.41871 298.996081 
L 241.428387 305.173702 
L 245.438065 321.678831 
L 249.447742 318.037771 
L 261.476774 309.309144 
L 265.486452 322.558234 
L 269.496129 317.580433 
L 273.505806 321.061956 
L 277.515484 318.710615 
L 289.544516 325.116949 
L 293.554194 338.759884 
L 297.563871 353.859701 
L 301.573548 358.103763 
L 305.583226 372.17371 
L 317.612258 366.688619 
L 321.621935 360.015477 
L 325.631613 342.756515 
L 329.64129 351.857589 
L 333.650968 348.126225 
L 345.68 352.070081 
L 349.689677 338.719582 
L 353.699355 335.028832 
L 357.709032 355.662713 
L 361.71871 366.427739 
L 373.747742 373.443337 
L 377.757419 380.602606 
L 381.767097 359.308949 
L 385.776774 352.703358 
L 389.786452 367.529403 
L 401.815484 377.809115 
L 405.825161 391.782838 
L 409.834839 374.351175 
L 413.844516 379.425159 
L 417.854194 369.489765 
L 429.883226 379.407308 
L 433.892903 371.291662 
L 437.902581 351.986593 
L 441.912258 337.738206 
L 445.921935 339.356529 
L 457.950968 339.574159 
L 461.960645 336.93852 
L 465.970323 348.344866 
L 469.98 353.715146 
L 473.989677 363.089108 
L 486.01871 363.61323 
L 490.028387 353.554019 
L 494.038065 349.007086 
L 498.047742 350.284684 
L 502.057419 355.000762 
L 514.086452 356.65155 
L 518.096129 367.492708 
L 522.105806 363.606864 
L 526.115484 354.875969 
L 530.125161 370.542126 
L 542.154194 355.365386 
L 546.163871 341.388579 
L 550.173548 357.50974 
L 554.183226 341.035043 
L 558.192903 332.989057 
L 570.221935 342.076377 
L 574.231613 337.757816 
L 578.24129 335.563051 
L 582.250968 331.581753 
L 586.260645 321.224482 
L 598.289677 318.520484 
L 602.299355 331.67234 
L 606.309032 347.150966 
L 610.31871 354.68039 
L 614.328387 345.201487 
L 626.357419 345.335398 
L 630.367097 349.754165 
L 634.376774 332.044956 
L 638.386452 309.239249 
L 642.396129 321.043435 
L 654.425161 316.381039 
L 658.434839 320.351971 
L 662.444516 318.180864 
L 666.454194 323.756144 
L 670.463871 336.036229 
L 682.492903 339.196081 
L 686.502581 347.660284 
L 690.512258 352.77293 
L 694.521935 358.732913 
L 698.531613 376.38349 
L 710.560645 377.136217 
L 714.570323 361.804871 
L 718.58 356.964972 
L 722.589677 367.535228 
L 726.599355 377.320715 
L 738.628387 364.77035 
L 742.638065 356.940238 
L 746.647742 345.495563 
L 750.657419 352.115742 
L 754.667097 355.566702 
L 766.696129 362.927755 
L 770.705806 368.417547 
L 774.715484 378.518593 
L 778.725161 398.231537 
L 782.734839 376.033524 
L 794.763871 371.229867 
L 798.773548 372.200302 
L 802.783226 356.980174 
L 806.792903 356.497362 
L 810.802581 358.137536 
L 822.831613 370.114952 
L 830.850968 338.092598 
L 834.860645 327.122914 
L 838.870323 327.522752 
L 850.899355 315.953773 
L 854.909032 311.899454 
L 858.91871 304.90089 
L 862.928387 290.821313 
L 866.938065 285.778752 
L 878.967097 261.264182 
L 882.976774 253.758217 
L 886.986452 261.718505 
L 890.996129 255.97501 
L 895.005806 260.881474 
L 907.034839 254.852296 
L 911.044516 265.943514 
L 915.054194 273.052101 
L 919.063871 267.028618 
L 923.073548 253.56957 
L 935.102581 262.230521 
L 939.112258 259.126725 
L 943.121935 272.419471 
L 947.131613 245.889626 
L 951.14129 245.614399 
L 963.170323 250.926851 
L 971.189677 234.592229 
L 975.199355 222.448293 
L 979.209032 215.887608 
L 991.238065 219.537279 
L 995.247742 231.20049 
L 999.257419 260.95779 
L 1003.267097 242.616506 
L 1007.276774 238.051783 
L 1019.305806 258.739841 
L 1023.315484 267.166751 
L 1027.325161 255.392277 
L 1031.334839 266.399842 
L 1035.344516 287.500023 
L 1047.373548 312.57565 
L 1051.383226 313.816161 
L 1055.392903 287.191914 
L 1059.402581 291.640288 
L 1063.412258 295.144298 
L 1075.44129 304.924336 
L 1079.450968 317.294846 
L 1083.460645 326.227403 
L 1087.470323 326.827881 
L 1091.48 330.291957 
L 1091.48 330.291957 
" style="fill:none;stroke:#2ca02c;stroke-linecap:square;stroke-width:1.5;"/>
   </g>
   <g id="patch_3">
    <path d="M 47.36 415.960658 
L 47.36 25.92 
" style="fill:none;stroke:#000000;stroke-linecap:square;stroke-linejoin:miter;stroke-width:0.8;"/>
   </g>
   <g id="patch_4">
    <path d="M 1141.2 415.960658 
L 1141.2 25.92 
" style="fill:none;stroke:#000000;stroke-linecap:square;stroke-linejoin:miter;stroke-width:0.8;"/>
   </g>
   <g id="patch_5">
    <path d="M 47.36 415.960658 
L 1141.2 415.960658 
" style="fill:none;stroke:#000000;stroke-linecap:square;stroke-linejoin:miter;stroke-width:0.8;"/>
   </g>
   <g id="patch_6">
    <path d="M 47.36 25.92 
L 1141.2 25.92 
" style="fill:none;stroke:#000000;stroke-linecap:square;stroke-linejoin:miter;stroke-width:0.8;"/>
   </g>
   <g id="text_8">
    <!-- Net Value: (2010-02-01 ~ 2010-10-08) -->
    <g transform="translate(478.1725 19.92)scale(0.12 -0.12)">
     <defs>
      <path d="M 9.8125 72.90625 
L 23.09375 72.90625 
L 55.421875 11.921875 
L 55.421875 72.90625 
L 64.984375 72.90625 
L 64.984375 0 
L 51.703125 0 
L 19.390625 60.984375 
L 19.390625 0 
L 9.8125 0 
z
" id="DejaVuSans-78"/>
      <path d="M 28.609375 0 
L 0.78125 72.90625 
L 11.078125 72.90625 
L 34.1875 11.53125 
L 57.328125 72.90625 
L 67.578125 72.90625 
L 39.796875 0 
z
" id="DejaVuSans-86"/>
      <path d="M 11.71875 12.40625 
L 22.015625 12.40625 
L 22.015625 0 
L 11.71875 0 
z
M 11.71875 51.703125 
L 22.015625 51.703125 
L 22.015625 39.3125 
L 11.71875 39.3125 
z
" id="DejaVuSans-58"/>
      <path d="M 31 75.875 
Q 24.46875 64.65625 21.28125 53.65625 
Q 18.109375 42.671875 18.109375 31.390625 
Q 18.109375 20.125 21.3125 9.0625 
Q 24.515625 -2 31 -13.1875 
L 23.1875 -13.1875 
Q 15.875 -1.703125 12.234375 9.375 
Q 8.59375 20.453125 8.59375 31.390625 
Q 8.59375 42.28125 12.203125 53.3125 
Q 15.828125 64.359375 23.1875 75.875 
z
" id="DejaVuSans-40"/>
      <path d="M 4.890625 31.390625 
L 31.203125 31.390625 
L 31.203125 23.390625 
L 4.890625 23.390625 
z
" id="DejaVuSans-45"/>
      <path d="M 73.1875 39.890625 
L 73.1875 31.203125 
Q 68.0625 27.34375 63.6875 25.6875 
Q 59.328125 24.03125 54.59375 24.03125 
Q 49.21875 24.03125 42.09375 26.90625 
Q 41.546875 27.09375 41.3125 27.203125 
Q 40.96875 27.34375 40.234375 27.59375 
Q 32.671875 30.609375 28.078125 30.609375 
Q 23.78125 30.609375 19.578125 28.734375 
Q 15.375 26.859375 10.59375 22.796875 
L 10.59375 31.5 
Q 15.71875 35.359375 20.09375 37.03125 
Q 24.46875 38.71875 29.203125 38.71875 
Q 34.578125 38.71875 41.75 35.796875 
Q 42.234375 35.59375 42.484375 35.5 
Q 42.875 35.359375 43.5625 35.109375 
Q 51.125 32.078125 55.71875 32.078125 
Q 59.90625 32.078125 64.03125 33.9375 
Q 68.171875 35.796875 73.1875 39.890625 
z
" id="DejaVuSans-126"/>
      <path d="M 8.015625 75.875 
L 15.828125 75.875 
Q 23.140625 64.359375 26.78125 53.3125 
Q 30.421875 42.28125 30.421875 31.390625 
Q 30.421875 20.453125 26.78125 9.375 
Q 23.140625 -1.703125 15.828125 -13.1875 
L 8.015625 -13.1875 
Q 14.5 -2 17.703125 9.0625 
Q 20.90625 20.125 20.90625 31.390625 
Q 20.90625 42.671875 17.703125 53.65625 
Q 14.5 64.65625 8.015625 75.875 
z
" id="DejaVuSans-41"/>
     </defs>
     <use xlink:href="#DejaVuSans-78"/>
     <use x="74.804688" xlink:href="#DejaVuSans-101"/>
     <use x="136.328125" xlink:href="#DejaVuSans-116"/>
     <use x="175.537109" xlink:href="#DejaVuSans-32"/>
     <use x="207.324219" xlink:href="#DejaVuSans-86"/>
     <use x="267.982422" xlink:href="#DejaVuSans-97"/>
     <use x="329.261719" xlink:href="#DejaVuSans-108"/>
     <use x="357.044922" xlink:href="#DejaVuSans-117"/>
     <use x="420.423828" xlink:href="#DejaVuSans-101"/>
     <use x="481.947266" xlink:href="#DejaVuSans-58"/>
     <use x="515.638672" xlink:href="#DejaVuSans-32"/>
     <use x="547.425781" xlink:href="#DejaVuSans-40"/>
     <use x="586.439453" xlink:href="#DejaVuSans-50"/>
     <use x="650.0625" xlink:href="#DejaVuSans-48"/>
     <use x="713.685547" xlink:href="#DejaVuSans-49"/>
     <use x="777.308594" xlink:href="#DejaVuSans-48"/>
     <use x="840.931641" xlink:href="#DejaVuSans-45"/>
     <use x="877.015625" xlink:href="#DejaVuSans-48"/>
     <use x="940.638672" xlink:href="#DejaVuSans-50"/>
     <use x="1004.261719" xlink:href="#DejaVuSans-45"/>
     <use x="1040.345703" xlink:href="#DejaVuSans-48"/>
     <use x="1103.96875" xlink:href="#DejaVuSans-49"/>
     <use x="1167.591797" xlink:href="#DejaVuSans-32"/>
     <use x="1199.378906" xlink:href="#DejaVuSans-126"/>
     <use x="1283.167969" xlink:href="#DejaVuSans-32"/>
     <use x="1314.955078" xlink:href="#DejaVuSans-50"/>
     <use x="1378.578125" xlink:href="#DejaVuSans-48"/>
     <use x="1442.201172" xlink:href="#DejaVuSans-49"/>
     <use x="1505.824219" xlink:href="#DejaVuSans-48"/>
     <use x="1569.447266" xlink:href="#DejaVuSans-45"/>
     <use x="1605.53125" xlink:href="#DejaVuSans-49"/>
     <use x="1669.154297" xlink:href="#DejaVuSans-48"/>
     <use x="1732.777344" xlink:href="#DejaVuSans-45"/>
     <use x="1768.861328" xlink:href="#DejaVuSans-48"/>
     <use x="1832.484375" xlink:href="#DejaVuSans-56"/>
     <use x="1896.107422" xlink:href="#DejaVuSans-41"/>
    </g>
   </g>
   <g id="legend_1">
    <g id="patch_7">
     <path d="M 54.36 78.2325 
L 166.874063 78.2325 
Q 168.874063 78.2325 168.874063 76.2325 
L 168.874063 32.92 
Q 168.874063 30.92 166.874063 30.92 
L 54.36 30.92 
Q 52.36 30.92 52.36 32.92 
L 52.36 76.2325 
Q 52.36 78.2325 54.36 78.2325 
z
" style="fill:#ffffff;opacity:0.8;stroke:#cccccc;stroke-linejoin:miter;"/>
    </g>
    <g id="line2d_16">
     <path d="M 56.36 39.018438 
L 76.36 39.018438 
" style="fill:none;stroke:#1f77b4;stroke-linecap:square;stroke-width:1.5;"/>
    </g>
    <g id="line2d_17"/>
    <g id="text_9">
     <!-- factor_weighted -->
     <g transform="translate(84.36 42.518438)scale(0.1 -0.1)">
      <defs>
       <path d="M 37.109375 75.984375 
L 37.109375 68.5 
L 28.515625 68.5 
Q 23.6875 68.5 21.796875 66.546875 
Q 19.921875 64.59375 19.921875 59.515625 
L 19.921875 54.6875 
L 34.71875 54.6875 
L 34.71875 47.703125 
L 19.921875 47.703125 
L 19.921875 0 
L 10.890625 0 
L 10.890625 47.703125 
L 2.296875 47.703125 
L 2.296875 54.6875 
L 10.890625 54.6875 
L 10.890625 58.5 
Q 10.890625 67.625 15.140625 71.796875 
Q 19.390625 75.984375 28.609375 75.984375 
z
" id="DejaVuSans-102"/>
       <path d="M 48.78125 52.59375 
L 48.78125 44.1875 
Q 44.96875 46.296875 41.140625 47.34375 
Q 37.3125 48.390625 33.40625 48.390625 
Q 24.65625 48.390625 19.8125 42.84375 
Q 14.984375 37.3125 14.984375 27.296875 
Q 14.984375 17.28125 19.8125 11.734375 
Q 24.65625 6.203125 33.40625 6.203125 
Q 37.3125 6.203125 41.140625 7.25 
Q 44.96875 8.296875 48.78125 10.40625 
L 48.78125 2.09375 
Q 45.015625 0.34375 40.984375 -0.53125 
Q 36.96875 -1.421875 32.421875 -1.421875 
Q 20.0625 -1.421875 12.78125 6.34375 
Q 5.515625 14.109375 5.515625 27.296875 
Q 5.515625 40.671875 12.859375 48.328125 
Q 20.21875 56 33.015625 56 
Q 37.15625 56 41.109375 55.140625 
Q 45.0625 54.296875 48.78125 52.59375 
z
" id="DejaVuSans-99"/>
       <path d="M 30.609375 48.390625 
Q 23.390625 48.390625 19.1875 42.75 
Q 14.984375 37.109375 14.984375 27.296875 
Q 14.984375 17.484375 19.15625 11.84375 
Q 23.34375 6.203125 30.609375 6.203125 
Q 37.796875 6.203125 41.984375 11.859375 
Q 46.1875 17.53125 46.1875 27.296875 
Q 46.1875 37.015625 41.984375 42.703125 
Q 37.796875 48.390625 30.609375 48.390625 
z
M 30.609375 56 
Q 42.328125 56 49.015625 48.375 
Q 55.71875 40.765625 55.71875 27.296875 
Q 55.71875 13.875 49.015625 6.21875 
Q 42.328125 -1.421875 30.609375 -1.421875 
Q 18.84375 -1.421875 12.171875 6.21875 
Q 5.515625 13.875 5.515625 27.296875 
Q 5.515625 40.765625 12.171875 48.375 
Q 18.84375 56 30.609375 56 
z
" id="DejaVuSans-111"/>
       <path d="M 41.109375 46.296875 
Q 39.59375 47.171875 37.8125 47.578125 
Q 36.03125 48 33.890625 48 
Q 26.265625 48 22.1875 43.046875 
Q 18.109375 38.09375 18.109375 28.8125 
L 18.109375 0 
L 9.078125 0 
L 9.078125 54.6875 
L 18.109375 54.6875 
L 18.109375 46.1875 
Q 20.953125 51.171875 25.484375 53.578125 
Q 30.03125 56 36.53125 56 
Q 37.453125 56 38.578125 55.875 
Q 39.703125 55.765625 41.0625 55.515625 
z
" id="DejaVuSans-114"/>
       <path d="M 50.984375 -16.609375 
L 50.984375 -23.578125 
L -0.984375 -23.578125 
L -0.984375 -16.609375 
z
" id="DejaVuSans-95"/>
       <path d="M 4.203125 54.6875 
L 13.1875 54.6875 
L 24.421875 12.015625 
L 35.59375 54.6875 
L 46.1875 54.6875 
L 57.421875 12.015625 
L 68.609375 54.6875 
L 77.59375 54.6875 
L 63.28125 0 
L 52.6875 0 
L 40.921875 44.828125 
L 29.109375 0 
L 18.5 0 
z
" id="DejaVuSans-119"/>
       <path d="M 9.421875 54.6875 
L 18.40625 54.6875 
L 18.40625 0 
L 9.421875 0 
z
M 9.421875 75.984375 
L 18.40625 75.984375 
L 18.40625 64.59375 
L 9.421875 64.59375 
z
" id="DejaVuSans-105"/>
       <path d="M 45.40625 27.984375 
Q 45.40625 37.75 41.375 43.109375 
Q 37.359375 48.484375 30.078125 48.484375 
Q 22.859375 48.484375 18.828125 43.109375 
Q 14.796875 37.75 14.796875 27.984375 
Q 14.796875 18.265625 18.828125 12.890625 
Q 22.859375 7.515625 30.078125 7.515625 
Q 37.359375 7.515625 41.375 12.890625 
Q 45.40625 18.265625 45.40625 27.984375 
z
M 54.390625 6.78125 
Q 54.390625 -7.171875 48.1875 -13.984375 
Q 42 -20.796875 29.203125 -20.796875 
Q 24.46875 -20.796875 20.265625 -20.09375 
Q 16.0625 -19.390625 12.109375 -17.921875 
L 12.109375 -9.1875 
Q 16.0625 -11.328125 19.921875 -12.34375 
Q 23.78125 -13.375 27.78125 -13.375 
Q 36.625 -13.375 41.015625 -8.765625 
Q 45.40625 -4.15625 45.40625 5.171875 
L 45.40625 9.625 
Q 42.625 4.78125 38.28125 2.390625 
Q 33.9375 0 27.875 0 
Q 17.828125 0 11.671875 7.65625 
Q 5.515625 15.328125 5.515625 27.984375 
Q 5.515625 40.671875 11.671875 48.328125 
Q 17.828125 56 27.875 56 
Q 33.9375 56 38.28125 53.609375 
Q 42.625 51.21875 45.40625 46.390625 
L 45.40625 54.6875 
L 54.390625 54.6875 
z
" id="DejaVuSans-103"/>
       <path d="M 54.890625 33.015625 
L 54.890625 0 
L 45.90625 0 
L 45.90625 32.71875 
Q 45.90625 40.484375 42.875 44.328125 
Q 39.84375 48.1875 33.796875 48.1875 
Q 26.515625 48.1875 22.3125 43.546875 
Q 18.109375 38.921875 18.109375 30.90625 
L 18.109375 0 
L 9.078125 0 
L 9.078125 75.984375 
L 18.109375 75.984375 
L 18.109375 46.1875 
Q 21.34375 51.125 25.703125 53.5625 
Q 30.078125 56 35.796875 56 
Q 45.21875 56 50.046875 50.171875 
Q 54.890625 44.34375 54.890625 33.015625 
z
" id="DejaVuSans-104"/>
       <path d="M 45.40625 46.390625 
L 45.40625 75.984375 
L 54.390625 75.984375 
L 54.390625 0 
L 45.40625 0 
L 45.40625 8.203125 
Q 42.578125 3.328125 38.25 0.953125 
Q 33.9375 -1.421875 27.875 -1.421875 
Q 17.96875 -1.421875 11.734375 6.484375 
Q 5.515625 14.40625 5.515625 27.296875 
Q 5.515625 40.1875 11.734375 48.09375 
Q 17.96875 56 27.875 56 
Q 33.9375 56 38.25 53.625 
Q 42.578125 51.265625 45.40625 46.390625 
z
M 14.796875 27.296875 
Q 14.796875 17.390625 18.875 11.75 
Q 22.953125 6.109375 30.078125 6.109375 
Q 37.203125 6.109375 41.296875 11.75 
Q 45.40625 17.390625 45.40625 27.296875 
Q 45.40625 37.203125 41.296875 42.84375 
Q 37.203125 48.484375 30.078125 48.484375 
Q 22.953125 48.484375 18.875 42.84375 
Q 14.796875 37.203125 14.796875 27.296875 
z
" id="DejaVuSans-100"/>
      </defs>
      <use xlink:href="#DejaVuSans-102"/>
      <use x="35.205078" xlink:href="#DejaVuSans-97"/>
      <use x="96.484375" xlink:href="#DejaVuSans-99"/>
      <use x="151.464844" xlink:href="#DejaVuSans-116"/>
      <use x="190.673828" xlink:href="#DejaVuSans-111"/>
      <use x="251.855469" xlink:href="#DejaVuSans-114"/>
      <use x="292.96875" xlink:href="#DejaVuSans-95"/>
      <use x="342.96875" xlink:href="#DejaVuSans-119"/>
      <use x="424.755859" xlink:href="#DejaVuSans-101"/>
      <use x="486.279297" xlink:href="#DejaVuSans-105"/>
      <use x="514.0625" xlink:href="#DejaVuSans-103"/>
      <use x="577.539062" xlink:href="#DejaVuSans-104"/>
      <use x="640.917969" xlink:href="#DejaVuSans-116"/>
      <use x="680.126953" xlink:href="#DejaVuSans-101"/>
      <use x="741.650391" xlink:href="#DejaVuSans-100"/>
     </g>
    </g>
    <g id="line2d_18">
     <path d="M 56.36 53.974688 
L 76.36 53.974688 
" style="fill:none;stroke:#ff7f0e;stroke-linecap:square;stroke-width:1.5;"/>
    </g>
    <g id="line2d_19"/>
    <g id="text_10">
     <!-- benchmark -->
     <g transform="translate(84.36 57.474688)scale(0.1 -0.1)">
      <defs>
       <path d="M 48.6875 27.296875 
Q 48.6875 37.203125 44.609375 42.84375 
Q 40.53125 48.484375 33.40625 48.484375 
Q 26.265625 48.484375 22.1875 42.84375 
Q 18.109375 37.203125 18.109375 27.296875 
Q 18.109375 17.390625 22.1875 11.75 
Q 26.265625 6.109375 33.40625 6.109375 
Q 40.53125 6.109375 44.609375 11.75 
Q 48.6875 17.390625 48.6875 27.296875 
z
M 18.109375 46.390625 
Q 20.953125 51.265625 25.265625 53.625 
Q 29.59375 56 35.59375 56 
Q 45.5625 56 51.78125 48.09375 
Q 58.015625 40.1875 58.015625 27.296875 
Q 58.015625 14.40625 51.78125 6.484375 
Q 45.5625 -1.421875 35.59375 -1.421875 
Q 29.59375 -1.421875 25.265625 0.953125 
Q 20.953125 3.328125 18.109375 8.203125 
L 18.109375 0 
L 9.078125 0 
L 9.078125 75.984375 
L 18.109375 75.984375 
z
" id="DejaVuSans-98"/>
       <path d="M 52 44.1875 
Q 55.375 50.25 60.0625 53.125 
Q 64.75 56 71.09375 56 
Q 79.640625 56 84.28125 50.015625 
Q 88.921875 44.046875 88.921875 33.015625 
L 88.921875 0 
L 79.890625 0 
L 79.890625 32.71875 
Q 79.890625 40.578125 77.09375 44.375 
Q 74.3125 48.1875 68.609375 48.1875 
Q 61.625 48.1875 57.5625 43.546875 
Q 53.515625 38.921875 53.515625 30.90625 
L 53.515625 0 
L 44.484375 0 
L 44.484375 32.71875 
Q 44.484375 40.625 41.703125 44.40625 
Q 38.921875 48.1875 33.109375 48.1875 
Q 26.21875 48.1875 22.15625 43.53125 
Q 18.109375 38.875 18.109375 30.90625 
L 18.109375 0 
L 9.078125 0 
L 9.078125 54.6875 
L 18.109375 54.6875 
L 18.109375 46.1875 
Q 21.1875 51.21875 25.484375 53.609375 
Q 29.78125 56 35.6875 56 
Q 41.65625 56 45.828125 52.96875 
Q 50 49.953125 52 44.1875 
z
" id="DejaVuSans-109"/>
       <path d="M 9.078125 75.984375 
L 18.109375 75.984375 
L 18.109375 31.109375 
L 44.921875 54.6875 
L 56.390625 54.6875 
L 27.390625 29.109375 
L 57.625 0 
L 45.90625 0 
L 18.109375 26.703125 
L 18.109375 0 
L 9.078125 0 
z
" id="DejaVuSans-107"/>
      </defs>
      <use xlink:href="#DejaVuSans-98"/>
      <use x="63.476562" xlink:href="#DejaVuSans-101"/>
      <use x="125" xlink:href="#DejaVuSans-110"/>
      <use x="188.378906" xlink:href="#DejaVuSans-99"/>
      <use x="243.359375" xlink:href="#DejaVuSans-104"/>
      <use x="306.738281" xlink:href="#DejaVuSans-109"/>
      <use x="404.150391" xlink:href="#DejaVuSans-97"/>
      <use x="465.429688" xlink:href="#DejaVuSans-114"/>
      <use x="506.542969" xlink:href="#DejaVuSans-107"/>
     </g>
    </g>
    <g id="line2d_20">
     <path d="M 56.36 68.652812 
L 76.36 68.652812 
" style="fill:none;stroke:#2ca02c;stroke-linecap:square;stroke-width:1.5;"/>
    </g>
    <g id="line2d_21"/>
    <g id="text_11">
     <!-- excess -->
     <g transform="translate(84.36 72.152812)scale(0.1 -0.1)">
      <defs>
       <path d="M 54.890625 54.6875 
L 35.109375 28.078125 
L 55.90625 0 
L 45.3125 0 
L 29.390625 21.484375 
L 13.484375 0 
L 2.875 0 
L 24.125 28.609375 
L 4.6875 54.6875 
L 15.28125 54.6875 
L 29.78125 35.203125 
L 44.28125 54.6875 
z
" id="DejaVuSans-120"/>
       <path d="M 44.28125 53.078125 
L 44.28125 44.578125 
Q 40.484375 46.53125 36.375 47.5 
Q 32.28125 48.484375 27.875 48.484375 
Q 21.1875 48.484375 17.84375 46.4375 
Q 14.5 44.390625 14.5 40.28125 
Q 14.5 37.15625 16.890625 35.375 
Q 19.28125 33.59375 26.515625 31.984375 
L 29.59375 31.296875 
Q 39.15625 29.25 43.1875 25.515625 
Q 47.21875 21.78125 47.21875 15.09375 
Q 47.21875 7.46875 41.1875 3.015625 
Q 35.15625 -1.421875 24.609375 -1.421875 
Q 20.21875 -1.421875 15.453125 -0.5625 
Q 10.6875 0.296875 5.421875 2 
L 5.421875 11.28125 
Q 10.40625 8.6875 15.234375 7.390625 
Q 20.0625 6.109375 24.8125 6.109375 
Q 31.15625 6.109375 34.5625 8.28125 
Q 37.984375 10.453125 37.984375 14.40625 
Q 37.984375 18.0625 35.515625 20.015625 
Q 33.0625 21.96875 24.703125 23.78125 
L 21.578125 24.515625 
Q 13.234375 26.265625 9.515625 29.90625 
Q 5.8125 33.546875 5.8125 39.890625 
Q 5.8125 47.609375 11.28125 51.796875 
Q 16.75 56 26.8125 56 
Q 31.78125 56 36.171875 55.265625 
Q 40.578125 54.546875 44.28125 53.078125 
z
" id="DejaVuSans-115"/>
      </defs>
      <use xlink:href="#DejaVuSans-101"/>
      <use x="59.773438" xlink:href="#DejaVuSans-120"/>
      <use x="117.203125" xlink:href="#DejaVuSans-99"/>
      <use x="172.183594" xlink:href="#DejaVuSans-101"/>
      <use x="233.707031" xlink:href="#DejaVuSans-115"/>
      <use x="285.806641" xlink:href="#DejaVuSans-115"/>
     </g>
    </g>
   </g>
  </g>
 </g>
 <defs>
  <clipPath id="p21f6702b02">
   <rect height="390.040658" width="1093.84" x="47.36" y="25.92"/>
  </clipPath>
 </defs>
</svg>
