<?xml version="1.0" encoding="utf-8" standalone="no"?>
<!DOCTYPE svg PUBLIC "-//W3C//DTD SVG 1.1//EN"
  "http://www.w3.org/Graphics/SVG/1.1/DTD/svg11.dtd">
<!-- Created with matplotlib (https://matplotlib.org/) -->
<svg height="374.4pt" version="1.1" viewBox="0 0 1152 374.4" width="1152pt" xmlns="http://www.w3.org/2000/svg" xmlns:xlink="http://www.w3.org/1999/xlink">
 <metadata>
  <rdf:RDF xmlns:cc="http://creativecommons.org/ns#" xmlns:dc="http://purl.org/dc/elements/1.1/" xmlns:rdf="http://www.w3.org/1999/02/22-rdf-syntax-ns#">
   <cc:Work>
    <dc:type rdf:resource="http://purl.org/dc/dcmitype/StillImage"/>
    <dc:date>2023-10-11T16:59:44.878973</dc:date>
    <dc:format>image/svg+xml</dc:format>
    <dc:creator>
     <cc:Agent>
      <dc:title>Matplotlib v3.3.4, https://matplotlib.org/</dc:title>
     </cc:Agent>
    </dc:creator>
   </cc:Work>
  </rdf:RDF>
 </metadata>
 <defs>
  <style type="text/css">*{stroke-linecap:butt;stroke-linejoin:round;}</style>
 </defs>
 <g id="figure_1">
  <g id="patch_1">
   <path d="M 0 374.4 
L 1152 374.4 
L 1152 0 
L 0 0 
z
" style="fill:#ffffff;"/>
  </g>
  <g id="axes_1">
   <g id="patch_2">
    <path d="M 47.3 360.1 
L 1141.2 360.1 
L 1141.2 25.92 
L 47.3 25.92 
z
" style="fill:#ffffff;"/>
   </g>
   <g id="matplotlib.axis_1"/>
   <g id="matplotlib.axis_2">
    <g id="ytick_1">
     <g id="line2d_1">
      <path clip-path="url(#pa0cac63941)" d="M 47.3 340.305745 
L 1141.2 340.305745 
" style="fill:none;stroke:#b0b0b0;stroke-linecap:square;stroke-width:0.8;"/>
     </g>
     <g id="line2d_2">
      <defs>
       <path d="M 0 0 
L -3.5 0 
" id="m8d35c64c44" style="stroke:#000000;stroke-width:0.8;"/>
      </defs>
      <g>
       <use style="stroke:#000000;stroke-width:0.8;" x="47.3" xlink:href="#m8d35c64c44" y="340.305745"/>
      </g>
     </g>
     <g id="text_1">
      <!-- 0.5 -->
      <g transform="translate(24.396875 344.104964)scale(0.1 -0.1)">
       <defs>
        <path d="M 31.78125 66.40625 
Q 24.171875 66.40625 20.328125 58.90625 
Q 16.5 51.421875 16.5 36.375 
Q 16.5 21.390625 20.328125 13.890625 
Q 24.171875 6.390625 31.78125 6.390625 
Q 39.453125 6.390625 43.28125 13.890625 
Q 47.125 21.390625 47.125 36.375 
Q 47.125 51.421875 43.28125 58.90625 
Q 39.453125 66.40625 31.78125 66.40625 
z
M 31.78125 74.21875 
Q 44.046875 74.21875 50.515625 64.515625 
Q 56.984375 54.828125 56.984375 36.375 
Q 56.984375 17.96875 50.515625 8.265625 
Q 44.046875 -1.421875 31.78125 -1.421875 
Q 19.53125 -1.421875 13.0625 8.265625 
Q 6.59375 17.96875 6.59375 36.375 
Q 6.59375 54.828125 13.0625 64.515625 
Q 19.53125 74.21875 31.78125 74.21875 
z
" id="DejaVuSans-48"/>
        <path d="M 10.6875 12.40625 
L 21 12.40625 
L 21 0 
L 10.6875 0 
z
" id="DejaVuSans-46"/>
        <path d="M 10.796875 72.90625 
L 49.515625 72.90625 
L 49.515625 64.59375 
L 19.828125 64.59375 
L 19.828125 46.734375 
Q 21.96875 47.46875 24.109375 47.828125 
Q 26.265625 48.1875 28.421875 48.1875 
Q 40.625 48.1875 47.75 41.5 
Q 54.890625 34.8125 54.890625 23.390625 
Q 54.890625 11.625 47.5625 5.09375 
Q 40.234375 -1.421875 26.90625 -1.421875 
Q 22.3125 -1.421875 17.546875 -0.640625 
Q 12.796875 0.140625 7.71875 1.703125 
L 7.71875 11.625 
Q 12.109375 9.234375 16.796875 8.0625 
Q 21.484375 6.890625 26.703125 6.890625 
Q 35.15625 6.890625 40.078125 11.328125 
Q 45.015625 15.765625 45.015625 23.390625 
Q 45.015625 31 40.078125 35.4375 
Q 35.15625 39.890625 26.703125 39.890625 
Q 22.75 39.890625 18.8125 39.015625 
Q 14.890625 38.140625 10.796875 36.28125 
z
" id="DejaVuSans-53"/>
       </defs>
       <use xlink:href="#DejaVuSans-48"/>
       <use x="63.623047" xlink:href="#DejaVuSans-46"/>
       <use x="95.410156" xlink:href="#DejaVuSans-53"/>
      </g>
     </g>
    </g>
    <g id="ytick_2">
     <g id="line2d_3">
      <path clip-path="url(#pa0cac63941)" d="M 47.3 270.511883 
L 1141.2 270.511883 
" style="fill:none;stroke:#b0b0b0;stroke-linecap:square;stroke-width:0.8;"/>
     </g>
     <g id="line2d_4">
      <g>
       <use style="stroke:#000000;stroke-width:0.8;" x="47.3" xlink:href="#m8d35c64c44" y="270.511883"/>
      </g>
     </g>
     <g id="text_2">
      <!-- 1.0 -->
      <g transform="translate(24.396875 274.311102)scale(0.1 -0.1)">
       <defs>
        <path d="M 12.40625 8.296875 
L 28.515625 8.296875 
L 28.515625 63.921875 
L 10.984375 60.40625 
L 10.984375 69.390625 
L 28.421875 72.90625 
L 38.28125 72.90625 
L 38.28125 8.296875 
L 54.390625 8.296875 
L 54.390625 0 
L 12.40625 0 
z
" id="DejaVuSans-49"/>
       </defs>
       <use xlink:href="#DejaVuSans-49"/>
       <use x="63.623047" xlink:href="#DejaVuSans-46"/>
       <use x="95.410156" xlink:href="#DejaVuSans-48"/>
      </g>
     </g>
    </g>
    <g id="ytick_3">
     <g id="line2d_5">
      <path clip-path="url(#pa0cac63941)" d="M 47.3 200.718021 
L 1141.2 200.718021 
" style="fill:none;stroke:#b0b0b0;stroke-linecap:square;stroke-width:0.8;"/>
     </g>
     <g id="line2d_6">
      <g>
       <use style="stroke:#000000;stroke-width:0.8;" x="47.3" xlink:href="#m8d35c64c44" y="200.718021"/>
      </g>
     </g>
     <g id="text_3">
      <!-- 1.5 -->
      <g transform="translate(24.396875 204.51724)scale(0.1 -0.1)">
       <use xlink:href="#DejaVuSans-49"/>
       <use x="63.623047" xlink:href="#DejaVuSans-46"/>
       <use x="95.410156" xlink:href="#DejaVuSans-53"/>
      </g>
     </g>
    </g>
    <g id="ytick_4">
     <g id="line2d_7">
      <path clip-path="url(#pa0cac63941)" d="M 47.3 130.92416 
L 1141.2 130.92416 
" style="fill:none;stroke:#b0b0b0;stroke-linecap:square;stroke-width:0.8;"/>
     </g>
     <g id="line2d_8">
      <g>
       <use style="stroke:#000000;stroke-width:0.8;" x="47.3" xlink:href="#m8d35c64c44" y="130.92416"/>
      </g>
     </g>
     <g id="text_4">
      <!-- 2.0 -->
      <g transform="translate(24.396875 134.723378)scale(0.1 -0.1)">
       <defs>
        <path d="M 19.1875 8.296875 
L 53.609375 8.296875 
L 53.609375 0 
L 7.328125 0 
L 7.328125 8.296875 
Q 12.9375 14.109375 22.625 23.890625 
Q 32.328125 33.6875 34.8125 36.53125 
Q 39.546875 41.84375 41.421875 45.53125 
Q 43.3125 49.21875 43.3125 52.78125 
Q 43.3125 58.59375 39.234375 62.25 
Q 35.15625 65.921875 28.609375 65.921875 
Q 23.96875 65.921875 18.8125 64.3125 
Q 13.671875 62.703125 7.8125 59.421875 
L 7.8125 69.390625 
Q 13.765625 71.78125 18.9375 73 
Q 24.125 74.21875 28.421875 74.21875 
Q 39.75 74.21875 46.484375 68.546875 
Q 53.21875 62.890625 53.21875 53.421875 
Q 53.21875 48.921875 51.53125 44.890625 
Q 49.859375 40.875 45.40625 35.40625 
Q 44.1875 33.984375 37.640625 27.21875 
Q 31.109375 20.453125 19.1875 8.296875 
z
" id="DejaVuSans-50"/>
       </defs>
       <use xlink:href="#DejaVuSans-50"/>
       <use x="63.623047" xlink:href="#DejaVuSans-46"/>
       <use x="95.410156" xlink:href="#DejaVuSans-48"/>
      </g>
     </g>
    </g>
    <g id="ytick_5">
     <g id="line2d_9">
      <path clip-path="url(#pa0cac63941)" d="M 47.3 61.130298 
L 1141.2 61.130298 
" style="fill:none;stroke:#b0b0b0;stroke-linecap:square;stroke-width:0.8;"/>
     </g>
     <g id="line2d_10">
      <g>
       <use style="stroke:#000000;stroke-width:0.8;" x="47.3" xlink:href="#m8d35c64c44" y="61.130298"/>
      </g>
     </g>
     <g id="text_5">
      <!-- 2.5 -->
      <g transform="translate(24.396875 64.929517)scale(0.1 -0.1)">
       <use xlink:href="#DejaVuSans-50"/>
       <use x="63.623047" xlink:href="#DejaVuSans-46"/>
       <use x="95.410156" xlink:href="#DejaVuSans-53"/>
      </g>
     </g>
    </g>
    <g id="text_6">
     <!-- net value -->
     <g transform="translate(18.317187 216.462344)rotate(-90)scale(0.1 -0.1)">
      <defs>
       <path d="M 54.890625 33.015625 
L 54.890625 0 
L 45.90625 0 
L 45.90625 32.71875 
Q 45.90625 40.484375 42.875 44.328125 
Q 39.84375 48.1875 33.796875 48.1875 
Q 26.515625 48.1875 22.3125 43.546875 
Q 18.109375 38.921875 18.109375 30.90625 
L 18.109375 0 
L 9.078125 0 
L 9.078125 54.6875 
L 18.109375 54.6875 
L 18.109375 46.1875 
Q 21.34375 51.125 25.703125 53.5625 
Q 30.078125 56 35.796875 56 
Q 45.21875 56 50.046875 50.171875 
Q 54.890625 44.34375 54.890625 33.015625 
z
" id="DejaVuSans-110"/>
       <path d="M 56.203125 29.59375 
L 56.203125 25.203125 
L 14.890625 25.203125 
Q 15.484375 15.921875 20.484375 11.0625 
Q 25.484375 6.203125 34.421875 6.203125 
Q 39.59375 6.203125 44.453125 7.46875 
Q 49.3125 8.734375 54.109375 11.28125 
L 54.109375 2.78125 
Q 49.265625 0.734375 44.1875 -0.34375 
Q 39.109375 -1.421875 33.890625 -1.421875 
Q 20.796875 -1.421875 13.15625 6.1875 
Q 5.515625 13.8125 5.515625 26.8125 
Q 5.515625 40.234375 12.765625 48.109375 
Q 20.015625 56 32.328125 56 
Q 43.359375 56 49.78125 48.890625 
Q 56.203125 41.796875 56.203125 29.59375 
z
M 47.21875 32.234375 
Q 47.125 39.59375 43.09375 43.984375 
Q 39.0625 48.390625 32.421875 48.390625 
Q 24.90625 48.390625 20.390625 44.140625 
Q 15.875 39.890625 15.1875 32.171875 
z
" id="DejaVuSans-101"/>
       <path d="M 18.3125 70.21875 
L 18.3125 54.6875 
L 36.8125 54.6875 
L 36.8125 47.703125 
L 18.3125 47.703125 
L 18.3125 18.015625 
Q 18.3125 11.328125 20.140625 9.421875 
Q 21.96875 7.515625 27.59375 7.515625 
L 36.8125 7.515625 
L 36.8125 0 
L 27.59375 0 
Q 17.1875 0 13.234375 3.875 
Q 9.28125 7.765625 9.28125 18.015625 
L 9.28125 47.703125 
L 2.6875 47.703125 
L 2.6875 54.6875 
L 9.28125 54.6875 
L 9.28125 70.21875 
z
" id="DejaVuSans-116"/>
       <path id="DejaVuSans-32"/>
       <path d="M 2.984375 54.6875 
L 12.5 54.6875 
L 29.59375 8.796875 
L 46.6875 54.6875 
L 56.203125 54.6875 
L 35.6875 0 
L 23.484375 0 
z
" id="DejaVuSans-118"/>
       <path d="M 34.28125 27.484375 
Q 23.390625 27.484375 19.1875 25 
Q 14.984375 22.515625 14.984375 16.5 
Q 14.984375 11.71875 18.140625 8.90625 
Q 21.296875 6.109375 26.703125 6.109375 
Q 34.1875 6.109375 38.703125 11.40625 
Q 43.21875 16.703125 43.21875 25.484375 
L 43.21875 27.484375 
z
M 52.203125 31.203125 
L 52.203125 0 
L 43.21875 0 
L 43.21875 8.296875 
Q 40.140625 3.328125 35.546875 0.953125 
Q 30.953125 -1.421875 24.3125 -1.421875 
Q 15.921875 -1.421875 10.953125 3.296875 
Q 6 8.015625 6 15.921875 
Q 6 25.140625 12.171875 29.828125 
Q 18.359375 34.515625 30.609375 34.515625 
L 43.21875 34.515625 
L 43.21875 35.40625 
Q 43.21875 41.609375 39.140625 45 
Q 35.0625 48.390625 27.6875 48.390625 
Q 23 48.390625 18.546875 47.265625 
Q 14.109375 46.140625 10.015625 43.890625 
L 10.015625 52.203125 
Q 14.9375 54.109375 19.578125 55.046875 
Q 24.21875 56 28.609375 56 
Q 40.484375 56 46.34375 49.84375 
Q 52.203125 43.703125 52.203125 31.203125 
z
" id="DejaVuSans-97"/>
       <path d="M 9.421875 75.984375 
L 18.40625 75.984375 
L 18.40625 0 
L 9.421875 0 
z
" id="DejaVuSans-108"/>
       <path d="M 8.5 21.578125 
L 8.5 54.6875 
L 17.484375 54.6875 
L 17.484375 21.921875 
Q 17.484375 14.15625 20.5 10.265625 
Q 23.53125 6.390625 29.59375 6.390625 
Q 36.859375 6.390625 41.078125 11.03125 
Q 45.3125 15.671875 45.3125 23.6875 
L 45.3125 54.6875 
L 54.296875 54.6875 
L 54.296875 0 
L 45.3125 0 
L 45.3125 8.40625 
Q 42.046875 3.421875 37.71875 1 
Q 33.40625 -1.421875 27.6875 -1.421875 
Q 18.265625 -1.421875 13.375 4.4375 
Q 8.5 10.296875 8.5 21.578125 
z
M 31.109375 56 
z
" id="DejaVuSans-117"/>
      </defs>
      <use xlink:href="#DejaVuSans-110"/>
      <use x="63.378906" xlink:href="#DejaVuSans-101"/>
      <use x="124.902344" xlink:href="#DejaVuSans-116"/>
      <use x="164.111328" xlink:href="#DejaVuSans-32"/>
      <use x="195.898438" xlink:href="#DejaVuSans-118"/>
      <use x="255.078125" xlink:href="#DejaVuSans-97"/>
      <use x="316.357422" xlink:href="#DejaVuSans-108"/>
      <use x="344.140625" xlink:href="#DejaVuSans-117"/>
      <use x="407.519531" xlink:href="#DejaVuSans-101"/>
     </g>
    </g>
   </g>
   <g id="line2d_11">
    <path clip-path="url(#pa0cac63941)" d="M 97.022727 263.65549 
L 100.818355 269.870887 
L 104.613983 265.350266 
L 108.409611 275.31439 
L 119.796495 271.086882 
L 123.592124 277.912139 
L 127.387752 280.158484 
L 131.18338 284.546153 
L 134.979008 290.44679 
L 146.365892 279.711325 
L 150.16152 271.577326 
L 153.957148 267.566113 
L 157.752776 275.743031 
L 161.548404 274.357973 
L 172.935288 282.475832 
L 176.730916 286.529774 
L 180.526544 277.778303 
L 184.322172 286.98013 
L 188.1178 282.838037 
L 199.504684 293.057099 
L 203.300312 297.280593 
L 207.09594 292.484285 
L 210.891568 295.752885 
L 214.687196 302.623832 
L 226.07408 302.207041 
L 229.869709 306.208711 
L 233.665337 299.458997 
L 237.460965 297.289628 
L 241.256593 299.007135 
L 252.643477 300.125372 
L 256.439105 302.934515 
L 260.234733 303.815998 
L 264.030361 304.436926 
L 267.825989 301.211584 
L 279.212873 307.651503 
L 283.008501 305.316631 
L 286.804129 306.397295 
L 290.599757 310.896398 
L 305.782269 304.305227 
L 309.577897 300.349669 
L 313.373525 292.825268 
L 317.169153 297.184108 
L 320.964781 300.766113 
L 332.351666 301.785548 
L 336.147294 305.0225 
L 339.942922 303.301052 
L 343.73855 308.351492 
L 347.534178 313.159234 
L 358.921062 312.542037 
L 362.71669 312.620618 
L 366.512318 313.379284 
L 370.307946 311.790065 
L 374.103574 314.125712 
L 385.490458 311.997466 
L 389.286086 314.166575 
L 393.081714 314.256559 
L 396.877342 317.861817 
L 400.67297 313.739989 
L 412.059854 320.152446 
L 415.855482 317.661844 
L 419.65111 312.531447 
L 423.446738 314.447216 
L 427.242366 307.10716 
L 438.629251 302.257217 
L 442.424879 310.87704 
L 446.220507 310.533554 
L 450.016135 304.034994 
L 453.811763 301.862605 
L 465.198647 296.422878 
L 468.994275 303.377125 
L 472.789903 300.232383 
L 476.585531 304.736494 
L 480.381159 301.159248 
L 491.768043 304.727039 
L 495.563671 311.714391 
L 499.359299 313.156738 
L 503.154927 309.42141 
L 506.950555 301.542327 
L 518.337439 301.055929 
L 522.133067 296.263175 
L 525.928695 305.13812 
L 529.724323 308.054548 
L 533.519951 302.28542 
L 544.906836 305.689992 
L 548.702464 306.666101 
L 552.498092 306.044247 
L 556.29372 302.090695 
L 560.089348 304.759905 
L 571.476232 301.31933 
L 575.27186 301.049498 
L 579.067488 306.114456 
L 582.863116 299.22318 
L 586.658744 308.68809 
L 598.045628 316.100368 
L 601.841256 309.05958 
L 605.636884 315.517426 
L 609.432512 316.21017 
L 613.22814 312.137459 
L 624.615024 312.97949 
L 628.410652 311.797812 
L 632.20628 314.368452 
L 636.001908 319.442408 
L 639.797536 322.20098 
L 651.184421 321.033422 
L 654.980049 320.774496 
L 658.775677 317.642753 
L 662.571305 314.991363 
L 677.753817 316.816576 
L 681.549445 321.217268 
L 685.345073 324.108512 
L 689.140701 323.781733 
L 692.936329 319.101882 
L 704.323213 316.111507 
L 708.118841 313.239114 
L 711.914469 318.503586 
L 715.710097 315.129477 
L 719.505725 314.94541 
L 730.892609 312.784353 
L 734.688237 307.900149 
L 738.483865 304.784038 
L 742.279493 297.470349 
L 746.075121 298.069791 
L 757.462006 302.466031 
L 761.257634 303.224544 
L 765.053262 302.449606 
L 768.84889 300.678957 
L 772.644518 304.841624 
L 784.031402 307.25919 
L 787.82703 311.829769 
L 791.622658 306.938585 
L 795.418286 307.974661 
L 799.213914 301.644202 
L 810.600798 297.94425 
L 814.396426 298.930656 
L 818.192054 291.693065 
L 821.987682 299.819271 
L 825.78331 297.705081 
L 837.170194 300.625237 
L 840.965822 310.858926 
L 844.76145 311.284213 
L 848.557078 310.937581 
L 852.352706 306.719055 
L 863.739591 313.599667 
L 867.535219 317.884528 
L 871.330847 319.523693 
L 875.126475 317.742872 
L 878.922103 323.356032 
L 890.308987 322.905036 
L 894.104615 327.006755 
L 897.900243 330.609575 
L 901.695871 332.965973 
L 905.491499 336.412004 
L 916.878383 340.509339 
L 920.674011 337.328529 
L 924.469639 339.198152 
L 928.265267 333.757913 
L 932.060895 334.743853 
L 943.447779 332.408066 
L 947.243407 334.619461 
L 951.039035 339.144975 
L 954.834663 344.91 
L 958.630291 343.400987 
L 970.017176 339.965094 
L 977.608432 342.983422 
L 981.40406 338.489197 
L 985.199688 336.646735 
L 996.586572 340.502965 
L 1000.3822 340.675087 
L 1004.177828 342.453016 
L 1007.973456 341.536694 
L 1011.769084 342.526588 
L 1023.155968 339.360215 
L 1026.951596 335.154548 
L 1030.747224 336.439743 
L 1034.542852 340.945158 
L 1038.33848 338.90556 
L 1049.725364 341.839389 
L 1053.520992 344.087716 
L 1057.31662 339.22493 
L 1061.112248 332.768617 
L 1064.907876 329.10257 
L 1076.294761 329.754974 
L 1080.090389 334.692896 
L 1083.886017 329.53839 
L 1087.681645 328.46157 
L 1091.477273 326.822631 
L 1091.477273 326.822631 
" style="fill:none;stroke:#1f77b4;stroke-linecap:square;stroke-width:1.5;"/>
   </g>
   <g id="line2d_12">
    <path clip-path="url(#pa0cac63941)" d="M 97.022727 263.961011 
L 100.818355 262.875716 
L 104.613983 252.184588 
L 108.409611 263.060398 
L 119.796495 260.84816 
L 123.592124 261.18461 
L 127.387752 264.591233 
L 131.18338 272.800858 
L 134.979008 262.323012 
L 146.365892 255.653342 
L 150.16152 259.54633 
L 153.957148 261.136702 
L 157.752776 249.199527 
L 161.548404 239.873167 
L 172.935288 249.870023 
L 176.730916 248.626081 
L 180.526544 255.082518 
L 184.322172 266.190005 
L 188.1178 263.606107 
L 199.504684 262.318295 
L 203.300312 263.002183 
L 207.09594 257.142432 
L 210.891568 245.920816 
L 214.687196 236.153747 
L 226.07408 238.535937 
L 229.869709 233.954536 
L 233.665337 245.805792 
L 237.460965 248.830078 
L 241.256593 254.383961 
L 252.643477 257.581264 
L 256.439105 263.063141 
L 260.234733 262.080837 
L 264.030361 248.799954 
L 267.825989 248.048946 
L 279.212873 252.712047 
L 283.008501 252.61678 
L 286.804129 250.532417 
L 290.599757 251.495378 
L 294.395385 249.983705 
L 305.782269 246.685349 
L 309.577897 248.970985 
L 313.373525 242.297735 
L 317.169153 238.078806 
L 320.964781 246.588506 
L 332.351666 240.699796 
L 336.147294 235.227355 
L 339.942922 230.569014 
L 343.73855 222.867945 
L 347.534178 209.333912 
L 358.921062 201.320659 
L 362.71669 201.4597 
L 366.512318 189.091203 
L 370.307946 189.958367 
L 374.103574 198.032134 
L 385.490458 203.588846 
L 389.286086 213.360233 
L 393.081714 216.263491 
L 396.877342 215.906791 
L 400.67297 214.995125 
L 412.059854 215.490563 
L 415.855482 221.448538 
L 419.65111 204.681069 
L 423.446738 200.864872 
L 427.242366 211.19451 
L 438.629251 218.854029 
L 442.424879 223.160964 
L 446.220507 222.341442 
L 450.016135 216.733549 
L 453.811763 221.473764 
L 465.198647 212.430831 
L 468.994275 212.796792 
L 472.789903 216.860887 
L 476.585531 214.736136 
L 480.381159 203.227559 
L 491.768043 201.503478 
L 495.563671 209.624656 
L 499.359299 219.285607 
L 503.154927 232.494937 
L 506.950555 247.786271 
L 518.337439 249.95623 
L 522.133067 250.059774 
L 525.928695 242.911474 
L 529.724323 244.019562 
L 533.519951 242.294159 
L 544.906836 242.621789 
L 548.702464 248.243938 
L 552.498092 250.378726 
L 556.29372 253.666544 
L 560.089348 246.238191 
L 571.476232 242.102481 
L 575.27186 247.656899 
L 579.067488 246.205188 
L 582.863116 243.92058 
L 586.658744 236.99227 
L 598.045628 237.186059 
L 601.841256 235.056463 
L 605.636884 241.990307 
L 609.432512 246.825556 
L 613.22814 238.94951 
L 624.615024 248.755093 
L 628.410652 256.176002 
L 632.20628 256.164809 
L 636.001908 256.407383 
L 639.797536 256.98628 
L 651.184421 255.449726 
L 654.980049 245.31553 
L 658.775677 247.381626 
L 662.571305 256.608532 
L 666.366933 260.151162 
L 677.753817 263.082256 
L 681.549445 269.862787 
L 685.345073 274.58413 
L 689.140701 273.839917 
L 692.936329 281.942385 
L 704.323213 281.168534 
L 708.118841 284.114941 
L 711.914469 276.456049 
L 715.710097 268.293107 
L 719.505725 261.469655 
L 730.892609 265.059018 
L 734.688237 262.851493 
L 738.483865 252.018118 
L 742.279493 251.938597 
L 746.075121 263.898176 
L 757.462006 262.250746 
L 761.257634 258.483524 
L 765.053262 253.795034 
L 768.84889 255.340814 
L 772.644518 256.230289 
L 784.031402 256.473633 
L 787.82703 255.254685 
L 791.622658 260.579382 
L 795.418286 252.712838 
L 799.213914 242.470281 
L 810.600798 251.746455 
L 814.396426 240.579529 
L 818.192054 232.205077 
L 821.987682 238.472992 
L 825.78331 234.618312 
L 837.170194 233.245424 
L 840.965822 233.996957 
L 844.76145 223.779851 
L 848.557078 227.774069 
L 852.352706 230.442264 
L 863.739591 234.612594 
L 867.535219 224.370328 
L 871.330847 234.779745 
L 875.126475 225.807661 
L 878.922103 215.18023 
L 890.308987 220.963125 
L 894.104615 230.188785 
L 897.900243 224.850798 
L 901.695871 219.81268 
L 905.491499 233.663492 
L 916.878383 216.957825 
L 920.674011 218.651431 
L 924.469639 209.890929 
L 928.265267 218.308121 
L 932.060895 213.66428 
L 943.447779 203.860162 
L 947.243407 198.703381 
L 951.039035 196.316207 
L 958.630291 179.786416 
L 970.017176 180.055371 
L 973.812804 165.932986 
L 977.608432 170.445767 
L 981.40406 183.380865 
L 985.199688 180.713427 
L 996.586572 179.087056 
L 1000.3822 180.896254 
L 1004.177828 191.865438 
L 1007.973456 186.342683 
L 1011.769084 183.54832 
L 1023.155968 188.823107 
L 1026.951596 178.292116 
L 1030.747224 190.731107 
L 1034.542852 186.052779 
L 1038.33848 180.227596 
L 1049.725364 174.34863 
L 1053.520992 179.587224 
L 1057.31662 182.875124 
L 1061.112248 182.739464 
L 1064.907876 173.209555 
L 1076.294761 161.134122 
L 1080.090389 173.117485 
L 1083.886017 186.851433 
L 1087.681645 177.713449 
L 1091.477273 184.526239 
L 1091.477273 184.526239 
" style="fill:none;stroke:#ff7f0e;stroke-linecap:square;stroke-width:1.5;"/>
   </g>
   <g id="line2d_13">
    <path clip-path="url(#pa0cac63941)" d="M 97.022727 275.950362 
L 100.818355 277.618727 
L 104.613983 281.920914 
L 108.409611 275.560612 
L 119.796495 267.264444 
L 127.387752 254.344362 
L 131.18338 257.016721 
L 134.979008 244.640241 
L 146.365892 242.681976 
L 150.16152 245.693712 
L 153.957148 234.791278 
L 157.752776 238.027106 
L 161.548404 222.194049 
L 172.935288 226.406275 
L 176.730916 234.327662 
L 180.526544 223.682695 
L 184.322172 215.101176 
L 188.1178 211.241173 
L 199.504684 205.453669 
L 203.300312 214.159083 
L 207.09594 205.130009 
L 210.891568 214.435925 
L 214.687196 219.001612 
L 226.07408 223.668067 
L 229.869709 218.625132 
L 233.665337 212.848618 
L 237.460965 226.949827 
L 241.256593 226.356302 
L 252.643477 228.939 
L 256.439105 222.386152 
L 260.234733 233.591945 
L 264.030361 236.579869 
L 267.825989 225.906937 
L 279.212873 228.16299 
L 283.008501 227.893869 
L 286.804129 226.371278 
L 290.599757 229.99714 
L 294.395385 226.338159 
L 305.782269 214.826736 
L 309.577897 229.382048 
L 313.373525 225.936788 
L 317.169153 234.70744 
L 320.964781 235.080379 
L 332.351666 223.057286 
L 336.147294 229.378227 
L 339.942922 241.446468 
L 343.73855 255.969919 
L 347.534178 247.203861 
L 358.921062 246.899435 
L 362.71669 241.502825 
L 366.512318 231.270517 
L 370.307946 217.819384 
L 374.103574 207.07471 
L 385.490458 193.765624 
L 389.286086 191.210674 
L 393.081714 193.868509 
L 396.877342 190.974667 
L 400.67297 189.059453 
L 412.059854 192.384965 
L 415.855482 192.517679 
L 419.65111 202.831388 
L 423.446738 195.011245 
L 427.242366 176.866036 
L 438.629251 181.605013 
L 442.424879 187.915029 
L 446.220507 188.365916 
L 450.016135 170.852867 
L 453.811763 179.752095 
L 465.198647 165.493459 
L 468.994275 166.761352 
L 472.789903 172.769376 
L 476.585531 174.740089 
L 480.381159 167.667402 
L 491.768043 152.376987 
L 495.563671 138.050831 
L 499.359299 132.168273 
L 503.154927 135.396226 
L 506.950555 137.485308 
L 518.337439 129.225009 
L 522.133067 115.914702 
L 525.928695 116.102438 
L 529.724323 97.697867 
L 533.519951 117.613467 
L 544.906836 115.395087 
L 548.702464 122.591736 
L 552.498092 126.329571 
L 556.29372 133.340968 
L 560.089348 140.724158 
L 571.476232 122.405324 
L 575.27186 123.101258 
L 579.067488 142.532596 
L 586.658744 131.459316 
L 598.045628 133.563289 
L 601.841256 135.070451 
L 605.636884 139.698218 
L 609.432512 145.031078 
L 613.22814 144.186799 
L 624.615024 136.53897 
L 628.410652 132.77099 
L 632.20628 128.562523 
L 636.001908 118.800409 
L 639.797536 102.552563 
L 651.184421 75.975363 
L 654.980049 63.959968 
L 658.775677 58.30461 
L 662.571305 85.326234 
L 666.366933 90.851656 
L 677.753817 88.579768 
L 681.549445 94.150688 
L 685.345073 115.989149 
L 689.140701 94.443734 
L 692.936329 106.895531 
L 704.323213 94.650625 
L 708.118841 112.855063 
L 711.914469 93.737318 
L 715.710097 102.223545 
L 719.505725 94.968179 
L 730.892609 81.329387 
L 734.688237 91.844162 
L 738.483865 118.658829 
L 742.279493 112.963328 
L 746.075121 100.51397 
L 757.462006 128.972649 
L 761.257634 151.860099 
L 765.053262 129.734115 
L 768.84889 115.734024 
L 772.644518 104.70428 
L 784.031402 106.828243 
L 787.82703 116.286064 
L 791.622658 127.427558 
L 795.418286 134.254476 
L 799.213914 152.451377 
L 810.600798 149.489301 
L 814.396426 130.618458 
L 818.192054 125.382516 
L 821.987682 106.066089 
L 825.78331 106.483481 
L 837.170194 79.967276 
L 840.965822 57.150302 
L 844.76145 66.706245 
L 848.557078 56.129106 
L 852.352706 41.11 
L 863.739591 44.988911 
L 867.535219 74.453422 
L 871.330847 82.936275 
L 875.126475 89.892953 
L 878.922103 104.146322 
L 890.308987 110.389588 
L 894.104615 89.890674 
L 897.900243 101.582127 
L 901.695871 100.693736 
L 905.491499 122.646691 
L 916.878383 123.945426 
L 920.674011 132.525062 
L 924.469639 150.411726 
L 928.265267 152.027639 
L 932.060895 161.414494 
L 943.447779 157.605396 
L 947.243407 143.79498 
L 951.039035 138.233098 
L 954.834663 141.678408 
L 958.630291 134.501553 
L 970.017176 147.084077 
L 973.812804 127.539162 
L 977.608432 148.023229 
L 981.40406 161.489429 
L 985.199688 165.233352 
L 996.586572 157.538818 
L 1000.3822 168.296475 
L 1004.177828 175.729493 
L 1007.973456 192.463444 
L 1011.769084 189.781171 
L 1023.155968 185.961004 
L 1026.951596 175.113057 
L 1030.747224 186.199485 
L 1034.542852 184.428118 
L 1038.33848 167.854504 
L 1049.725364 149.358395 
L 1053.520992 143.84086 
L 1057.31662 150.978597 
L 1061.112248 160.439187 
L 1064.907876 146.372383 
L 1076.294761 142.715673 
L 1080.090389 143.005117 
L 1083.886017 145.350293 
L 1087.681645 152.430008 
L 1091.477273 135.256038 
L 1091.477273 135.256038 
" style="fill:none;stroke:#2ca02c;stroke-linecap:square;stroke-width:1.5;"/>
   </g>
   <g id="line2d_14">
    <path clip-path="url(#pa0cac63941)" d="M 97.022727 278.277092 
L 100.818355 270.673823 
L 104.613983 263.569549 
L 108.409611 258.139655 
L 119.796495 258.547542 
L 123.592124 268.678934 
L 127.387752 263.969141 
L 131.18338 276.088917 
L 134.979008 282.358324 
L 146.365892 282.755194 
L 150.16152 284.125119 
L 153.957148 289.502669 
L 157.752776 282.796788 
L 161.548404 288.822401 
L 172.935288 288.248624 
L 176.730916 290.192219 
L 180.526544 289.353551 
L 184.322172 300.71781 
L 188.1178 296.145765 
L 199.504684 296.444218 
L 203.300312 295.650586 
L 207.09594 291.302989 
L 210.891568 299.174572 
L 214.687196 293.090828 
L 226.07408 292.256807 
L 229.869709 286.990848 
L 233.665337 288.253074 
L 237.460965 291.924464 
L 241.256593 288.013009 
L 252.643477 285.602313 
L 256.439105 284.929049 
L 260.234733 288.274822 
L 267.825989 285.612645 
L 279.212873 277.893031 
L 283.008501 270.289368 
L 286.804129 263.767555 
L 290.599757 258.582838 
L 294.395385 257.905618 
L 305.782269 267.083877 
L 309.577897 265.059527 
L 313.373525 266.142556 
L 317.169153 272.843756 
L 320.964781 268.419106 
L 332.351666 271.104618 
L 336.147294 272.629815 
L 339.942922 277.934347 
L 343.73855 276.127784 
L 347.534178 271.117155 
L 358.921062 273.4141 
L 362.71669 281.789269 
L 366.512318 277.630912 
L 370.307946 288.260938 
L 374.103574 293.142644 
L 385.490458 296.581255 
L 389.286086 307.066889 
L 393.081714 302.129333 
L 396.877342 296.331088 
L 400.67297 302.618333 
L 412.059854 303.701843 
L 415.855482 296.597797 
L 419.65111 296.028415 
L 423.446738 288.851383 
L 427.242366 287.093752 
L 438.629251 296.549116 
L 442.424879 302.40301 
L 446.220507 307.126958 
L 450.016135 307.686718 
L 453.811763 307.256767 
L 465.198647 301.851362 
L 468.994275 308.786041 
L 472.789903 305.976667 
L 476.585531 302.27055 
L 480.381159 299.262166 
L 491.768043 302.835164 
L 495.563671 296.567597 
L 499.359299 292.828395 
L 503.154927 283.692898 
L 518.337439 280.219688 
L 522.133067 276.70718 
L 525.928695 280.179534 
L 529.724323 268.310021 
L 533.519951 262.37492 
L 544.906836 263.232701 
L 548.702464 268.177592 
L 556.29372 251.523179 
L 560.089348 256.004611 
L 571.476232 261.344552 
L 575.27186 255.398282 
L 579.067488 256.833771 
L 582.863116 252.776935 
L 586.658744 248.986413 
L 598.045628 248.940938 
L 601.841256 248.171827 
L 605.636884 257.067984 
L 609.432512 261.251966 
L 613.22814 263.848728 
L 624.615024 264.922153 
L 628.410652 260.213736 
L 632.20628 257.230729 
L 636.001908 264.808528 
L 639.797536 267.128256 
L 651.184421 264.639319 
L 654.980049 262.892765 
L 658.775677 259.677472 
L 662.571305 265.993067 
L 666.366933 260.002995 
L 677.753817 258.606564 
L 681.549445 256.186635 
L 685.345073 269.304093 
L 689.140701 269.917173 
L 692.936329 267.980215 
L 704.323213 271.728913 
L 708.118841 266.013833 
L 711.914469 258.009833 
L 715.710097 254.438619 
L 719.505725 259.837988 
L 730.892609 257.210258 
L 734.688237 266.782546 
L 738.483865 269.655481 
L 742.279493 272.989488 
L 746.075121 268.638373 
L 757.462006 262.099602 
L 761.257634 258.806642 
L 765.053262 264.851379 
L 768.84889 267.675929 
L 772.644518 268.507739 
L 784.031402 268.178835 
L 787.82703 259.17977 
L 791.622658 250.81446 
L 795.418286 250.226935 
L 799.213914 255.086926 
L 810.600798 245.796207 
L 814.396426 247.066563 
L 818.192054 249.67533 
L 821.987682 259.445721 
L 825.78331 262.738119 
L 840.965822 261.815981 
L 844.76145 270.582753 
L 848.557078 266.169821 
L 852.352706 264.791361 
L 863.739591 271.991598 
L 867.535219 271.85243 
L 871.330847 263.309146 
L 875.126475 258.307135 
L 878.922103 255.661521 
L 890.308987 258.165837 
L 894.104615 257.488496 
L 897.900243 266.546955 
L 901.695871 256.958172 
L 905.491499 254.606726 
L 916.878383 248.087108 
L 920.674011 247.283697 
L 924.469639 242.405565 
L 928.265267 233.454865 
L 932.060895 233.845734 
L 943.447779 222.260456 
L 947.243407 206.010527 
L 951.039035 204.865 
L 954.834663 203.001534 
L 958.630291 202.426352 
L 970.017176 207.795749 
L 973.812804 201.384847 
L 977.608432 206.406274 
L 981.40406 208.397419 
L 985.199688 207.485722 
L 996.586572 199.382014 
L 1000.3822 188.402958 
L 1004.177828 199.240957 
L 1007.973456 200.760352 
L 1011.769084 191.55602 
L 1023.155968 198.895096 
L 1026.951596 197.503233 
L 1030.747224 198.831346 
L 1034.542852 195.759935 
L 1038.33848 184.235074 
L 1049.725364 198.404534 
L 1053.520992 189.80917 
L 1057.31662 189.784879 
L 1061.112248 202.882342 
L 1064.907876 207.307869 
L 1076.294761 201.311877 
L 1080.090389 197.563057 
L 1083.886017 207.374204 
L 1087.681645 222.638468 
L 1091.477273 230.400745 
L 1091.477273 230.400745 
" style="fill:none;stroke:#d62728;stroke-linecap:square;stroke-width:1.5;"/>
   </g>
   <g id="line2d_15">
    <path clip-path="url(#pa0cac63941)" d="M 97.022727 261.774525 
L 100.818355 268.344094 
L 104.613983 268.064107 
L 108.409611 258.22048 
L 119.796495 260.849567 
L 123.592124 261.143086 
L 127.387752 263.421282 
L 131.18338 267.629085 
L 134.979008 271.243274 
L 146.365892 275.566005 
L 150.16152 266.350869 
L 153.957148 272.364671 
L 157.752776 270.331819 
L 161.548404 259.884445 
L 172.935288 262.401428 
L 176.730916 261.989013 
L 180.526544 260.307838 
L 184.322172 258.24775 
L 188.1178 251.243401 
L 199.504684 246.539708 
L 203.300312 259.377073 
L 207.09594 261.683637 
L 210.891568 261.481605 
L 214.687196 262.347089 
L 226.07408 256.826585 
L 229.869709 247.620342 
L 233.665337 239.757525 
L 237.460965 250.186881 
L 241.256593 259.383942 
L 252.643477 272.987422 
L 256.439105 272.952415 
L 260.234733 275.005274 
L 264.030361 281.179694 
L 267.825989 281.192408 
L 279.212873 279.204989 
L 283.008501 276.771467 
L 286.804129 274.973863 
L 290.599757 270.724931 
L 294.395385 268.843603 
L 305.782269 274.251233 
L 309.577897 274.607682 
L 313.373525 264.644789 
L 317.169153 267.266686 
L 320.964781 278.053731 
L 332.351666 285.918149 
L 336.147294 287.7314 
L 339.942922 294.344955 
L 343.73855 297.699044 
L 347.534178 294.108007 
L 358.921062 291.756441 
L 362.71669 289.16429 
L 366.512318 288.91881 
L 370.307946 289.359283 
L 374.103574 287.832935 
L 385.490458 290.600388 
L 389.286086 286.405305 
L 393.081714 290.656591 
L 396.877342 283.545204 
L 400.67297 289.76043 
L 412.059854 287.688176 
L 415.855482 282.178598 
L 419.65111 278.766785 
L 423.446738 277.417807 
L 427.242366 278.766257 
L 438.629251 284.621692 
L 442.424879 285.970512 
L 446.220507 279.351523 
L 450.016135 273.418127 
L 453.811763 264.824522 
L 465.198647 256.415127 
L 468.994275 255.752094 
L 472.789903 262.653951 
L 476.585531 267.110189 
L 480.381159 255.889335 
L 491.768043 255.348834 
L 495.563671 254.123996 
L 499.359299 252.237833 
L 503.154927 248.314033 
L 506.950555 242.075548 
L 518.337439 240.377415 
L 522.133067 252.062736 
L 525.928695 262.343768 
L 529.724323 262.56627 
L 533.519951 258.779527 
L 544.906836 251.621041 
L 548.702464 255.934355 
L 552.498092 267.84862 
L 556.29372 261.150964 
L 560.089348 270.754564 
L 571.476232 264.49933 
L 575.27186 261.345715 
L 579.067488 268.758454 
L 582.863116 261.837859 
L 586.658744 253.484512 
L 598.045628 260.451751 
L 601.841256 265.069202 
L 605.636884 269.385364 
L 609.432512 261.263339 
L 613.22814 255.455046 
L 628.410652 262.73059 
L 632.20628 261.855282 
L 636.001908 255.192885 
L 639.797536 249.116572 
L 651.184421 257.375487 
L 654.980049 262.129694 
L 658.775677 266.694893 
L 662.571305 269.745259 
L 666.366933 267.889407 
L 677.753817 276.302905 
L 681.549445 271.129992 
L 685.345073 261.874485 
L 689.140701 267.613677 
L 692.936329 259.213064 
L 704.323213 247.914645 
L 708.118841 249.128066 
L 711.914469 251.443441 
L 715.710097 248.805185 
L 719.505725 242.53467 
L 730.892609 239.796701 
L 734.688237 247.361383 
L 738.483865 254.659417 
L 742.279493 257.779032 
L 746.075121 253.548203 
L 757.462006 246.440137 
L 761.257634 239.633245 
L 765.053262 248.86946 
L 768.84889 246.576614 
L 772.644518 239.658621 
L 784.031402 241.00702 
L 787.82703 236.463043 
L 791.622658 242.260746 
L 795.418286 246.661165 
L 799.213914 248.683292 
L 810.600798 253.735786 
L 814.396426 262.436031 
L 818.192054 262.716564 
L 821.987682 257.23634 
L 825.78331 263.959838 
L 837.170194 261.564873 
L 840.965822 263.913867 
L 844.76145 261.846845 
L 848.557078 251.762797 
L 852.352706 250.038725 
L 863.739591 252.290443 
L 867.535219 254.973097 
L 871.330847 254.746104 
L 875.126475 249.863904 
L 878.922103 253.572286 
L 890.308987 252.774062 
L 894.104615 248.409468 
L 897.900243 237.495468 
L 901.695871 241.916783 
L 905.491499 235.611184 
L 916.878383 236.464729 
L 920.674011 243.65109 
L 924.469639 235.704265 
L 928.265267 237.163684 
L 932.060895 227.821576 
L 943.447779 214.028058 
L 947.243407 211.447691 
L 951.039035 222.409904 
L 954.834663 224.050985 
L 958.630291 214.157671 
L 970.017176 197.688691 
L 973.812804 197.468928 
L 977.608432 186.826014 
L 981.40406 196.58406 
L 985.199688 196.900652 
L 996.586572 193.527189 
L 1000.3822 194.8425 
L 1004.177828 194.728756 
L 1007.973456 188.905755 
L 1011.769084 197.684053 
L 1023.155968 187.633195 
L 1026.951596 181.465506 
L 1030.747224 189.349546 
L 1034.542852 195.034293 
L 1038.33848 196.275763 
L 1049.725364 212.465926 
L 1053.520992 204.158528 
L 1057.31662 196.865025 
L 1061.112248 214.459319 
L 1064.907876 214.580315 
L 1076.294761 209.797649 
L 1080.090389 195.622231 
L 1083.886017 193.609804 
L 1087.681645 179.765852 
L 1091.477273 196.484986 
L 1091.477273 196.484986 
" style="fill:none;stroke:#9467bd;stroke-linecap:square;stroke-width:1.5;"/>
   </g>
   <g id="line2d_16">
    <path clip-path="url(#pa0cac63941)" d="M 97.022727 268.712308 
L 100.818355 269.828825 
L 104.613983 266.270006 
L 108.409611 265.53365 
L 119.796495 262.987003 
L 123.592124 265.205112 
L 127.387752 264.489417 
L 131.18338 270.860471 
L 134.979008 270.081183 
L 146.365892 266.93209 
L 150.16152 264.860798 
L 153.957148 264.716613 
L 157.752776 262.837547 
L 161.548404 257.262322 
L 172.935288 261.938287 
L 176.730916 264.112713 
L 180.526544 260.89421 
L 184.322172 266.116363 
L 188.1178 261.489684 
L 199.504684 261.947832 
L 203.300312 266.542864 
L 207.09594 262.231071 
L 210.891568 264.050161 
L 214.687196 263.264561 
L 226.07408 262.963406 
L 229.869709 259.15599 
L 233.665337 257.206631 
L 237.460965 262.22176 
L 241.256593 263.945637 
L 252.643477 267.312096 
L 256.439105 267.73054 
L 260.234733 270.414083 
L 264.030361 269.632711 
L 267.825989 266.804461 
L 279.212873 267.456099 
L 283.008501 264.539151 
L 286.804129 262.453461 
L 290.599757 262.632704 
L 294.395385 261.332712 
L 305.782269 260.329224 
L 309.577897 261.564822 
L 313.373525 255.65296 
L 320.964781 263.341746 
L 332.351666 262.846499 
L 336.147294 264.496233 
L 339.942922 267.899013 
L 343.73855 270.772994 
L 347.534178 266.828403 
L 358.921062 265.341368 
L 362.71669 265.609838 
L 366.512318 261.130235 
L 370.307946 260.977706 
L 374.103574 261.872343 
L 385.490458 261.590964 
L 389.286086 265.019637 
L 393.081714 265.262203 
L 396.877342 262.524432 
L 400.67297 263.842119 
L 412.059854 266.094255 
L 415.855482 262.990796 
L 419.65111 259.412914 
L 423.446738 256.173968 
L 427.242366 252.657316 
L 438.629251 256.851278 
L 442.424879 262.767473 
L 446.220507 262.401914 
L 450.016135 256.082567 
L 453.811763 255.257758 
L 465.198647 246.879419 
L 468.994275 250.996827 
L 472.789903 252.241042 
L 476.585531 253.243301 
L 480.381159 246.287396 
L 491.768043 245.962276 
L 495.563671 245.464988 
L 499.359299 245.649478 
L 503.154927 243.686841 
L 506.950555 242.928817 
L 518.337439 241.190547 
L 522.133067 239.533916 
L 525.928695 243.363048 
L 529.724323 239.637158 
L 533.519951 237.365949 
L 544.906836 236.8286 
L 548.702464 241.405197 
L 552.498092 242.541833 
L 556.29372 239.544215 
L 560.089348 242.706115 
L 571.476232 238.148248 
L 575.27186 237.065585 
L 579.067488 242.584372 
L 582.863116 236.641779 
L 586.658744 234.485246 
L 598.045628 238.909518 
L 601.841256 237.073452 
L 605.636884 243.773767 
L 609.432512 244.510521 
L 613.22814 240.76732 
L 624.615024 243.485306 
L 628.410652 243.5001 
L 632.20628 243.016961 
L 636.001908 244.062981 
L 639.797536 242.444347 
L 651.184421 239.901328 
L 654.980049 237.016521 
L 658.775677 236.199379 
L 662.571305 241.76286 
L 666.366933 241.476042 
L 677.753817 244.058108 
L 681.549445 245.726019 
L 685.345073 250.667387 
L 692.936329 248.281754 
L 704.323213 244.146061 
L 708.118841 244.555312 
L 711.914469 240.949836 
L 715.710097 236.883059 
L 719.505725 234.269661 
L 730.892609 231.6087 
L 734.688237 234.318922 
L 738.483865 236.022239 
L 742.279493 234.859846 
L 746.075121 234.256 
L 757.462006 235.25027 
L 761.257634 235.259642 
L 765.053262 233.909863 
L 768.84889 231.96792 
L 772.644518 231.386474 
L 784.031402 232.712262 
L 787.82703 231.75427 
L 791.622658 231.958785 
L 795.418286 231.658841 
L 799.213914 231.097069 
L 810.600798 230.420141 
L 814.396426 227.855139 
L 818.192054 223.679055 
L 821.987682 225.877296 
L 825.78331 226.434382 
L 837.170194 223.12465 
L 840.965822 224.655622 
L 844.76145 225.523294 
L 848.557078 221.085609 
L 852.352706 217.357979 
L 863.739591 223.676066 
L 867.535219 226.725757 
L 871.330847 227.894881 
L 875.126475 223.853359 
L 878.922103 225.939717 
L 890.308987 228.001976 
L 894.104615 227.632558 
L 897.900243 229.327678 
L 901.695871 227.763115 
L 905.491499 232.780588 
L 916.878383 230.241424 
L 920.674011 231.249285 
L 924.469639 230.125428 
L 928.265267 227.303513 
L 932.060895 226.768672 
L 943.447779 218.055778 
L 947.243407 212.139768 
L 951.039035 215.305166 
L 954.834663 217.378615 
L 958.630291 211.505462 
L 970.017176 209.007709 
L 973.812804 203.039817 
L 981.40406 210.82845 
L 985.199688 209.567882 
L 996.586572 207.890111 
L 1000.3822 208.145234 
L 1004.177828 214.051073 
L 1007.973456 214.632975 
L 1011.769084 213.704457 
L 1023.155968 211.557854 
L 1026.951596 204.329996 
L 1030.747224 210.418862 
L 1034.542852 212.15567 
L 1038.33848 205.420211 
L 1049.725364 208.602268 
L 1053.520992 206.617665 
L 1057.31662 203.441856 
L 1061.112248 206.8674 
L 1064.907876 201.979134 
L 1076.294761 197.36659 
L 1080.090389 198.448808 
L 1083.886017 200.289413 
L 1087.681645 199.100985 
L 1091.477273 201.539326 
L 1091.477273 201.539326 
" style="fill:none;stroke:#8c564b;stroke-linecap:square;stroke-width:1.5;"/>
   </g>
   <g id="line2d_17">
    <path clip-path="url(#pa0cac63941)" d="M 97.022727 263.574101 
L 100.818355 268.90687 
L 104.613983 272.210204 
L 108.409611 263.359863 
L 119.796495 268.484926 
L 123.592124 266.628215 
L 127.387752 269.531185 
L 131.18338 267.413256 
L 134.979008 271.831502 
L 146.365892 279.245648 
L 150.16152 272.175699 
L 153.957148 278.08274 
L 157.752776 277.840592 
L 161.548404 272.961706 
L 172.935288 271.063917 
L 176.730916 268.635192 
L 180.526544 270.148255 
L 184.322172 263.325239 
L 188.1178 261.271462 
L 199.504684 256.405877 
L 203.300312 263.701954 
L 207.09594 270.339454 
L 210.891568 268.429864 
L 214.687196 270.016927 
L 226.07408 265.070297 
L 229.869709 260.112105 
L 233.665337 254.790809 
L 237.460965 259.205367 
L 241.256593 266.124707 
L 252.643477 275.803503 
L 260.234733 274.852805 
L 264.030361 281.790736 
L 267.825989 284.386842 
L 279.212873 281.876992 
L 283.008501 282.115197 
L 286.804129 282.22349 
L 290.599757 278.047274 
L 294.395385 277.428892 
L 305.782269 283.402768 
L 309.577897 282.689963 
L 313.373525 278.392426 
L 317.169153 277.439747 
L 320.964781 284.120848 
L 332.351666 292.049046 
L 336.147294 292.450209 
L 339.942922 296.05924 
L 343.73855 297.058815 
L 358.921062 295.525172 
L 362.71669 292.80308 
L 366.512318 296.201519 
L 370.307946 296.73214 
L 374.103574 294.618864 
L 385.490458 297.451937 
L 389.286086 290.896644 
L 393.081714 294.794265 
L 396.877342 290.108771 
L 400.67297 294.930264 
L 412.059854 291.173608 
L 415.855482 288.383878 
L 419.65111 288.097856 
L 423.446738 289.467098 
L 427.242366 293.449113 
L 438.629251 295.542573 
L 442.424879 292.351493 
L 446.220507 286.364916 
L 450.016135 286.043863 
L 453.811763 278.908436 
L 465.198647 278.412927 
L 468.994275 274.522857 
L 472.789903 279.525118 
L 476.585531 282.64243 
L 480.381159 278.292622 
L 491.768043 278.092242 
L 495.563671 277.44736 
L 503.154927 273.95789 
L 506.950555 269.328374 
L 518.337439 269.369435 
L 522.133067 280.438921 
L 525.928695 285.96312 
L 529.724323 288.924004 
L 533.519951 287.428306 
L 544.906836 282.006718 
L 548.702464 282.109715 
L 552.498092 291.138708 
L 556.29372 287.665846 
L 560.089348 293.290094 
L 571.476232 291.227029 
L 575.27186 289.400782 
L 579.067488 291.565877 
L 582.863116 289.966996 
L 586.658744 284.69206 
L 598.045628 287.111581 
L 601.841256 292.225516 
L 605.636884 291.168905 
L 609.432512 283.777412 
L 613.22814 281.703283 
L 624.615024 284.237582 
L 628.410652 285.695902 
L 632.20628 285.317769 
L 636.001908 278.928627 
L 639.797536 275.062104 
L 651.184421 284.038203 
L 654.980049 290.099117 
L 658.775677 294.367932 
L 666.366933 291.779751 
L 677.753817 296.968054 
L 681.549445 291.457685 
L 685.345073 279.989429 
L 689.140701 285.991127 
L 692.936329 279.604737 
L 704.323213 273.168401 
L 708.118841 273.8552 
L 711.914469 278.782245 
L 715.710097 279.755792 
L 719.505725 276.655077 
L 730.892609 276.494138 
L 734.688237 280.40008 
L 738.483865 284.959697 
L 742.279493 288.306814 
L 746.075121 285.343596 
L 757.462006 278.973763 
L 761.257634 273.512974 
L 765.053262 281.967976 
L 768.84889 281.558075 
L 772.644518 276.539582 
L 784.031402 276.605389 
L 787.82703 273.738981 
L 791.622658 278.135675 
L 795.418286 281.817715 
L 799.213914 283.808732 
L 810.600798 288.239354 
L 814.396426 296.759393 
L 818.192054 299.571879 
L 821.987682 294.158741 
L 825.78331 298.90765 
L 837.170194 299.089146 
L 840.965822 299.935749 
L 844.76145 297.862621 
L 848.557078 292.926803 
L 852.352706 293.961769 
L 863.739591 291.788574 
L 867.535219 291.864343 
L 871.330847 290.937507 
L 875.126475 289.835833 
L 878.922103 291.27192 
L 890.308987 289.335293 
L 894.104615 286.229988 
L 897.900243 276.718104 
L 901.695871 281.289121 
L 905.491499 272.915128 
L 916.878383 275.550641 
L 920.674011 280.365359 
L 924.469639 274.986621 
L 928.265267 278.235819 
L 932.060895 271.498272 
L 943.447779 267.596997 
L 947.243407 270.111482 
L 951.039035 275.598025 
L 954.834663 275.342377 
L 958.630291 272.283245 
L 970.017176 262.433079 
L 973.812804 266.662664 
L 977.608432 256.7939 
L 981.40406 260.546389 
L 985.199688 261.714197 
L 996.586572 260.607766 
L 1000.3822 261.327066 
L 1007.973456 252.300977 
L 1011.769084 259.312958 
L 1023.155968 253.826293 
L 1026.951596 255.182838 
L 1030.747224 255.940772 
L 1034.542852 258.569803 
L 1038.33848 264.600633 
L 1049.725364 273.355416 
L 1053.520992 268.954297 
L 1057.31662 266.158468 
L 1061.112248 275.649303 
L 1064.907876 278.966336 
L 1076.294761 278.664926 
L 1080.090389 268.694627 
L 1083.886017 266.138115 
L 1087.681645 257.747599 
L 1091.477273 267.045697 
L 1091.477273 267.045697 
" style="fill:none;stroke:#e377c2;stroke-linecap:square;stroke-width:1.5;"/>
   </g>
   <g id="line2d_18">
    <path clip-path="url(#pa0cac63941)" d="M 97.022727 275.568701 
L 100.818355 270.921298 
L 104.613983 271.876956 
L 108.409611 261.654459 
L 119.796495 263.695425 
L 123.592124 258.71469 
L 127.387752 255.394357 
L 131.18338 256.939488 
L 134.979008 248.88422 
L 146.365892 259.72293 
L 150.16152 266.928272 
L 153.957148 270.931975 
L 157.752776 261.149418 
L 161.548404 257.045783 
L 172.935288 252.57518 
L 176.730916 249.88329 
L 180.526544 257.697928 
L 184.322172 252.433703 
L 188.1178 252.671687 
L 199.504684 240.515609 
L 203.300312 239.655917 
L 207.09594 241.782686 
L 210.891568 239.175705 
L 214.687196 227.985708 
L 226.07408 228.318435 
L 229.869709 216.872365 
L 233.665337 226.930765 
L 237.460965 236.530443 
L 241.256593 235.911264 
L 252.643477 238.170108 
L 256.439105 234.282246 
L 260.234733 236.150082 
L 264.030361 234.160801 
L 267.825989 235.98885 
L 279.212873 226.483263 
L 283.008501 226.913212 
L 286.804129 222.399125 
L 290.599757 214.483649 
L 294.395385 215.997842 
L 305.782269 224.213619 
L 309.577897 232.69728 
L 313.373525 237.79907 
L 317.169153 235.74713 
L 320.964781 234.602785 
L 332.351666 232.374208 
L 336.147294 229.054033 
L 339.942922 236.251122 
L 343.73855 231.543539 
L 347.534178 218.051264 
L 358.921062 217.280693 
L 362.71669 217.482984 
L 366.512318 210.012198 
L 370.307946 213.094982 
L 374.103574 209.596429 
L 385.490458 213.662028 
L 393.081714 213.997912 
L 396.877342 202.914511 
L 400.67297 214.022926 
L 412.059854 203.993855 
L 415.855482 205.259061 
L 419.65111 211.64594 
L 423.446738 203.48359 
L 427.242366 214.618195 
L 438.629251 229.030722 
L 442.424879 221.548134 
L 446.220507 221.733024 
L 450.016135 225.968097 
L 453.811763 228.753353 
L 465.198647 228.054905 
L 468.994275 221.510481 
L 472.789903 228.542352 
L 476.585531 222.251966 
L 480.381159 220.299456 
L 491.768043 213.706812 
L 495.563671 200.088812 
L 499.359299 197.245351 
L 503.154927 202.906568 
L 506.950555 218.177729 
L 518.337439 217.042011 
L 522.133067 223.633919 
L 525.928695 213.282715 
L 529.724323 203.415957 
L 533.519951 212.347026 
L 544.906836 205.487187 
L 548.702464 208.978713 
L 552.498092 211.542996 
L 556.29372 215.534904 
L 560.089348 214.333658 
L 571.476232 215.397302 
L 575.27186 214.654356 
L 579.067488 211.810252 
L 582.863116 217.916929 
L 586.658744 199.122019 
L 598.045628 189.016619 
L 601.841256 203.205129 
L 605.636884 197.993571 
L 609.432512 197.379595 
L 613.22814 201.798294 
L 624.615024 203.351332 
L 628.410652 205.885232 
L 632.20628 199.952704 
L 636.001908 190.130091 
L 639.797536 181.292321 
L 651.184421 180.860987 
L 654.980049 177.641888 
L 658.775677 184.694413 
L 662.571305 198.369617 
L 666.366933 196.952556 
L 677.753817 197.174107 
L 681.549445 189.268067 
L 685.345073 188.723256 
L 689.140701 187.92448 
L 692.936329 198.30386 
L 704.323213 199.850898 
L 708.118841 206.794845 
L 711.914469 191.317129 
L 715.710097 194.116319 
L 719.505725 191.276289 
L 730.892609 192.934397 
L 734.688237 207.131266 
L 738.483865 215.286635 
L 742.279493 227.514659 
L 746.075121 225.913739 
L 757.462006 219.727413 
L 761.257634 218.39603 
L 765.053262 218.306082 
L 768.84889 219.346814 
L 772.644518 211.467402 
L 784.031402 208.378775 
L 787.82703 198.324206 
L 791.622658 209.107753 
L 795.418286 206.750713 
L 799.213914 218.715593 
L 810.600798 224.520901 
L 814.396426 220.239519 
L 818.192054 228.249659 
L 821.987682 217.913697 
L 825.78331 222.179269 
L 837.170194 213.910443 
L 840.965822 197.177055 
L 844.76145 197.260836 
L 848.557078 192.890261 
L 852.352706 197.847042 
L 863.739591 190.677985 
L 867.535219 184.52457 
L 871.330847 181.953055 
L 875.126475 181.378097 
L 878.922103 170.039275 
L 890.308987 173.975637 
L 894.104615 162.389109 
L 897.900243 153.949872 
L 901.695871 144.139634 
L 905.491499 139.57617 
L 916.878383 120.660123 
L 920.674011 135.511647 
L 924.469639 126.731524 
L 928.265267 144.031154 
L 932.060895 139.816438 
L 943.447779 135.349009 
L 947.243407 119.064732 
L 951.039035 106.26902 
L 954.834663 84.817014 
L 958.630291 82.433719 
L 970.017176 95.191895 
L 973.812804 79.297956 
L 977.608432 77.98609 
L 981.40406 106.610671 
L 985.199688 112.499287 
L 996.586572 94.385552 
L 1000.3822 94.003077 
L 1004.177828 95.151745 
L 1007.973456 100.352754 
L 1011.769084 94.409325 
L 1023.155968 105.751613 
L 1026.951596 112.7663 
L 1030.747224 116.465779 
L 1034.542852 101.059635 
L 1038.33848 99.658528 
L 1049.725364 91.691875 
L 1053.520992 78.068209 
L 1057.31662 97.34528 
L 1061.112248 131.019759 
L 1064.907876 137.537559 
L 1076.294761 129.30141 
L 1080.090389 113.472237 
L 1083.886017 136.328113 
L 1087.681645 138.436752 
L 1091.477273 147.029956 
L 1091.477273 147.029956 
" style="fill:none;stroke:#7f7f7f;stroke-linecap:square;stroke-width:1.5;"/>
   </g>
   <g id="line2d_19">
    <path clip-path="url(#pa0cac63941)" d="M 97.022727 268.630918 
L 100.818355 268.892576 
L 104.613983 273.165832 
L 108.409611 254.249652 
L 119.796495 261.835674 
L 123.592124 254.847781 
L 127.387752 254.583967 
L 131.18338 253.794055 
L 134.979008 250.413318 
L 146.365892 269.711846 
L 150.16152 268.853513 
L 153.957148 278.852702 
L 157.752776 269.386184 
L 161.548404 260.318715 
L 172.935288 253.870962 
L 176.730916 248.472157 
L 180.526544 258.084345 
L 184.322172 245.422303 
L 188.1178 243.366582 
L 199.504684 225.041051 
L 203.300312 232.887925 
L 207.09594 243.133716 
L 210.891568 238.26635 
L 214.687196 228.941791 
L 226.07408 222.875687 
L 229.869709 204.686186 
L 233.665337 208.091224 
L 237.460965 224.420227 
L 241.256593 232.272279 
L 252.643477 246.532858 
L 256.439105 242.313005 
L 260.234733 243.44436 
L 264.030361 250.087627 
L 267.825989 254.987756 
L 279.212873 243.422613 
L 283.008501 244.122542 
L 286.804129 240.172967 
L 290.599757 227.457515 
L 294.395385 228.015994 
L 305.782269 243.921909 
L 309.577897 250.571175 
L 313.373525 249.778037 
L 317.169153 246.709099 
L 320.964781 253.86548 
L 332.351666 261.713767 
L 336.147294 259.445948 
L 339.942922 270.056344 
L 343.73855 267.491654 
L 347.534178 256.197106 
L 358.921062 254.056813 
L 362.71669 250.513211 
L 366.512318 248.947235 
L 370.307946 252.180906 
L 374.103574 246.432717 
L 385.490458 253.766604 
L 389.286086 244.821815 
L 393.081714 250.347268 
L 396.877342 234.826662 
L 400.67297 251.266926 
L 412.059854 237.961948 
L 415.855482 234.980684 
L 419.65111 240.029336 
L 423.446738 234.943108 
L 427.242366 250.164173 
L 438.629251 264.826223 
L 442.424879 254.776158 
L 446.220507 247.031474 
L 450.016135 250.274647 
L 453.811763 243.499434 
L 465.198647 242.228532 
L 468.994275 231.234673 
L 472.789903 244.50339 
L 476.585531 242.719417 
L 480.381159 235.267364 
L 491.768043 228.928836 
L 495.563671 215.481286 
L 499.359299 210.274684 
L 503.154927 213.007352 
L 506.950555 220.831888 
L 518.337439 219.767083 
L 522.133067 241.237029 
L 525.928695 239.057416 
L 529.724323 234.562459 
L 533.519951 239.980952 
L 544.906836 226.561132 
L 548.702464 229.84063 
L 552.498092 244.855218 
L 556.29372 243.353365 
L 560.089348 249.983704 
L 571.476232 248.02572 
L 575.27186 244.917326 
L 579.067488 245.476646 
L 582.863116 248.325935 
L 586.658744 225.401573 
L 598.045628 220.118339 
L 601.841256 240.210388 
L 605.636884 234.408103 
L 609.432512 222.980383 
L 613.22814 223.794916 
L 624.615024 228.861253 
L 628.410652 233.18245 
L 632.20628 227.505168 
L 636.001908 209.621112 
L 639.797536 195.656939 
L 651.184421 209.506936 
L 654.980049 216.334407 
L 658.775677 229.105911 
L 662.571305 238.146199 
L 666.366933 235.01466 
L 677.753817 242.874089 
L 681.549445 228.519756 
L 685.345073 210.519774 
L 689.140701 219.005825 
L 692.936329 218.099846 
L 704.323213 210.032374 
L 708.118841 217.643521 
L 711.914469 209.951566 
L 715.710097 213.996176 
L 719.505725 206.752498 
L 730.892609 208.048095 
L 734.688237 227.163881 
L 738.483865 240.945477 
L 742.279493 256.087312 
L 746.075121 250.989801 
L 757.462006 237.521834 
L 761.257634 229.127828 
L 765.053262 240.245452 
L 768.84889 240.623759 
L 772.644518 227.006591 
L 784.031402 224.249802 
L 787.82703 210.995713 
L 791.622658 227.553765 
L 795.418286 230.506412 
L 799.213914 243.860926 
L 810.600798 254.735592 
L 814.396426 262.013779 
L 818.192054 271.936159 
L 821.987682 257.316636 
L 825.78331 266.965611 
L 837.170194 260.901098 
L 840.965822 249.313479 
L 844.76145 246.350978 
L 848.557078 235.78732 
L 852.352706 241.304847 
L 863.739591 232.445102 
L 867.535219 227.576769 
L 871.330847 224.065262 
L 875.126475 221.876511 
L 878.922103 214.792988 
L 890.308987 214.812443 
L 894.104615 200.208197 
L 897.900243 176.939964 
L 901.695871 176.000658 
L 905.491499 156.765064 
L 916.878383 143.917856 
L 920.674011 167.101077 
L 924.469639 149.25641 
L 928.265267 171.453654 
L 932.060895 155.479776 
L 943.447779 144.104341 
L 947.243407 133.032522 
L 951.039035 131.70999 
L 954.834663 111.52511 
L 958.630291 102.559544 
L 970.017176 92.553238 
L 973.812804 85.621544 
L 977.608432 62.009982 
L 981.40406 100.531775 
L 985.199688 108.955648 
L 996.586572 88.380754 
L 1000.3822 89.538999 
L 1004.177828 81.160209 
L 1007.973456 76.722365 
L 1011.769084 85.139554 
L 1023.155968 84.990589 
L 1026.951596 95.30592 
L 1030.747224 100.76278 
L 1034.542852 89.808186 
L 1038.33848 101.103547 
L 1049.725364 111.766503 
L 1053.520992 89.399902 
L 1057.31662 101.666606 
L 1061.112248 155.212496 
L 1064.907876 167.453623 
L 1076.294761 159.563742 
L 1080.090389 126.435507 
L 1083.886017 143.164066 
L 1087.681645 129.662234 
L 1091.477273 155.648186 
L 1091.477273 155.648186 
" style="fill:none;stroke:#bcbd22;stroke-linecap:square;stroke-width:1.5;"/>
   </g>
   <g id="patch_3">
    <path d="M 47.3 360.1 
L 47.3 25.92 
" style="fill:none;stroke:#000000;stroke-linecap:square;stroke-linejoin:miter;stroke-width:0.8;"/>
   </g>
   <g id="patch_4">
    <path d="M 1141.2 360.1 
L 1141.2 25.92 
" style="fill:none;stroke:#000000;stroke-linecap:square;stroke-linejoin:miter;stroke-width:0.8;"/>
   </g>
   <g id="patch_5">
    <path d="M 47.3 360.1 
L 1141.2 360.1 
" style="fill:none;stroke:#000000;stroke-linecap:square;stroke-linejoin:miter;stroke-width:0.8;"/>
   </g>
   <g id="patch_6">
    <path d="M 47.3 25.92 
L 1141.2 25.92 
" style="fill:none;stroke:#000000;stroke-linecap:square;stroke-linejoin:miter;stroke-width:0.8;"/>
   </g>
   <g id="text_7">
    <!-- Net Value: (2010-01-12 ~ 2010-10-08) -->
    <g transform="translate(478.1425 19.92)scale(0.12 -0.12)">
     <defs>
      <path d="M 9.8125 72.90625 
L 23.09375 72.90625 
L 55.421875 11.921875 
L 55.421875 72.90625 
L 64.984375 72.90625 
L 64.984375 0 
L 51.703125 0 
L 19.390625 60.984375 
L 19.390625 0 
L 9.8125 0 
z
" id="DejaVuSans-78"/>
      <path d="M 28.609375 0 
L 0.78125 72.90625 
L 11.078125 72.90625 
L 34.1875 11.53125 
L 57.328125 72.90625 
L 67.578125 72.90625 
L 39.796875 0 
z
" id="DejaVuSans-86"/>
      <path d="M 11.71875 12.40625 
L 22.015625 12.40625 
L 22.015625 0 
L 11.71875 0 
z
M 11.71875 51.703125 
L 22.015625 51.703125 
L 22.015625 39.3125 
L 11.71875 39.3125 
z
" id="DejaVuSans-58"/>
      <path d="M 31 75.875 
Q 24.46875 64.65625 21.28125 53.65625 
Q 18.109375 42.671875 18.109375 31.390625 
Q 18.109375 20.125 21.3125 9.0625 
Q 24.515625 -2 31 -13.1875 
L 23.1875 -13.1875 
Q 15.875 -1.703125 12.234375 9.375 
Q 8.59375 20.453125 8.59375 31.390625 
Q 8.59375 42.28125 12.203125 53.3125 
Q 15.828125 64.359375 23.1875 75.875 
z
" id="DejaVuSans-40"/>
      <path d="M 4.890625 31.390625 
L 31.203125 31.390625 
L 31.203125 23.390625 
L 4.890625 23.390625 
z
" id="DejaVuSans-45"/>
      <path d="M 73.1875 39.890625 
L 73.1875 31.203125 
Q 68.0625 27.34375 63.6875 25.6875 
Q 59.328125 24.03125 54.59375 24.03125 
Q 49.21875 24.03125 42.09375 26.90625 
Q 41.546875 27.09375 41.3125 27.203125 
Q 40.96875 27.34375 40.234375 27.59375 
Q 32.671875 30.609375 28.078125 30.609375 
Q 23.78125 30.609375 19.578125 28.734375 
Q 15.375 26.859375 10.59375 22.796875 
L 10.59375 31.5 
Q 15.71875 35.359375 20.09375 37.03125 
Q 24.46875 38.71875 29.203125 38.71875 
Q 34.578125 38.71875 41.75 35.796875 
Q 42.234375 35.59375 42.484375 35.5 
Q 42.875 35.359375 43.5625 35.109375 
Q 51.125 32.078125 55.71875 32.078125 
Q 59.90625 32.078125 64.03125 33.9375 
Q 68.171875 35.796875 73.1875 39.890625 
z
" id="DejaVuSans-126"/>
      <path d="M 31.78125 34.625 
Q 24.75 34.625 20.71875 30.859375 
Q 16.703125 27.09375 16.703125 20.515625 
Q 16.703125 13.921875 20.71875 10.15625 
Q 24.75 6.390625 31.78125 6.390625 
Q 38.8125 6.390625 42.859375 10.171875 
Q 46.921875 13.96875 46.921875 20.515625 
Q 46.921875 27.09375 42.890625 30.859375 
Q 38.875 34.625 31.78125 34.625 
z
M 21.921875 38.8125 
Q 15.578125 40.375 12.03125 44.71875 
Q 8.5 49.078125 8.5 55.328125 
Q 8.5 64.0625 14.71875 69.140625 
Q 20.953125 74.21875 31.78125 74.21875 
Q 42.671875 74.21875 48.875 69.140625 
Q 55.078125 64.0625 55.078125 55.328125 
Q 55.078125 49.078125 51.53125 44.71875 
Q 48 40.375 41.703125 38.8125 
Q 48.828125 37.15625 52.796875 32.3125 
Q 56.78125 27.484375 56.78125 20.515625 
Q 56.78125 9.90625 50.3125 4.234375 
Q 43.84375 -1.421875 31.78125 -1.421875 
Q 19.734375 -1.421875 13.25 4.234375 
Q 6.78125 9.90625 6.78125 20.515625 
Q 6.78125 27.484375 10.78125 32.3125 
Q 14.796875 37.15625 21.921875 38.8125 
z
M 18.3125 54.390625 
Q 18.3125 48.734375 21.84375 45.5625 
Q 25.390625 42.390625 31.78125 42.390625 
Q 38.140625 42.390625 41.71875 45.5625 
Q 45.3125 48.734375 45.3125 54.390625 
Q 45.3125 60.0625 41.71875 63.234375 
Q 38.140625 66.40625 31.78125 66.40625 
Q 25.390625 66.40625 21.84375 63.234375 
Q 18.3125 60.0625 18.3125 54.390625 
z
" id="DejaVuSans-56"/>
      <path d="M 8.015625 75.875 
L 15.828125 75.875 
Q 23.140625 64.359375 26.78125 53.3125 
Q 30.421875 42.28125 30.421875 31.390625 
Q 30.421875 20.453125 26.78125 9.375 
Q 23.140625 -1.703125 15.828125 -13.1875 
L 8.015625 -13.1875 
Q 14.5 -2 17.703125 9.0625 
Q 20.90625 20.125 20.90625 31.390625 
Q 20.90625 42.671875 17.703125 53.65625 
Q 14.5 64.65625 8.015625 75.875 
z
" id="DejaVuSans-41"/>
     </defs>
     <use xlink:href="#DejaVuSans-78"/>
     <use x="74.804688" xlink:href="#DejaVuSans-101"/>
     <use x="136.328125" xlink:href="#DejaVuSans-116"/>
     <use x="175.537109" xlink:href="#DejaVuSans-32"/>
     <use x="207.324219" xlink:href="#DejaVuSans-86"/>
     <use x="267.982422" xlink:href="#DejaVuSans-97"/>
     <use x="329.261719" xlink:href="#DejaVuSans-108"/>
     <use x="357.044922" xlink:href="#DejaVuSans-117"/>
     <use x="420.423828" xlink:href="#DejaVuSans-101"/>
     <use x="481.947266" xlink:href="#DejaVuSans-58"/>
     <use x="515.638672" xlink:href="#DejaVuSans-32"/>
     <use x="547.425781" xlink:href="#DejaVuSans-40"/>
     <use x="586.439453" xlink:href="#DejaVuSans-50"/>
     <use x="650.0625" xlink:href="#DejaVuSans-48"/>
     <use x="713.685547" xlink:href="#DejaVuSans-49"/>
     <use x="777.308594" xlink:href="#DejaVuSans-48"/>
     <use x="840.931641" xlink:href="#DejaVuSans-45"/>
     <use x="877.015625" xlink:href="#DejaVuSans-48"/>
     <use x="940.638672" xlink:href="#DejaVuSans-49"/>
     <use x="1004.261719" xlink:href="#DejaVuSans-45"/>
     <use x="1040.345703" xlink:href="#DejaVuSans-49"/>
     <use x="1103.96875" xlink:href="#DejaVuSans-50"/>
     <use x="1167.591797" xlink:href="#DejaVuSans-32"/>
     <use x="1199.378906" xlink:href="#DejaVuSans-126"/>
     <use x="1283.167969" xlink:href="#DejaVuSans-32"/>
     <use x="1314.955078" xlink:href="#DejaVuSans-50"/>
     <use x="1378.578125" xlink:href="#DejaVuSans-48"/>
     <use x="1442.201172" xlink:href="#DejaVuSans-49"/>
     <use x="1505.824219" xlink:href="#DejaVuSans-48"/>
     <use x="1569.447266" xlink:href="#DejaVuSans-45"/>
     <use x="1605.53125" xlink:href="#DejaVuSans-49"/>
     <use x="1669.154297" xlink:href="#DejaVuSans-48"/>
     <use x="1732.777344" xlink:href="#DejaVuSans-45"/>
     <use x="1768.861328" xlink:href="#DejaVuSans-48"/>
     <use x="1832.484375" xlink:href="#DejaVuSans-56"/>
     <use x="1896.107422" xlink:href="#DejaVuSans-41"/>
    </g>
   </g>
   <g id="legend_1">
    <g id="patch_7">
     <path d="M 54.3 168.248125 
L 150.789062 168.248125 
Q 152.789062 168.248125 152.789062 166.248125 
L 152.789062 32.92 
Q 152.789062 30.92 150.789062 30.92 
L 54.3 30.92 
Q 52.3 30.92 52.3 32.92 
L 52.3 166.248125 
Q 52.3 168.248125 54.3 168.248125 
z
" style="fill:#ffffff;opacity:0.8;stroke:#cccccc;stroke-linejoin:miter;"/>
    </g>
    <g id="line2d_20">
     <path d="M 56.3 39.018438 
L 76.3 39.018438 
" style="fill:none;stroke:#1f77b4;stroke-linecap:square;stroke-width:1.5;"/>
    </g>
    <g id="line2d_21"/>
    <g id="text_8">
     <!-- group_1 -->
     <g transform="translate(84.3 42.518438)scale(0.1 -0.1)">
      <defs>
       <path d="M 45.40625 27.984375 
Q 45.40625 37.75 41.375 43.109375 
Q 37.359375 48.484375 30.078125 48.484375 
Q 22.859375 48.484375 18.828125 43.109375 
Q 14.796875 37.75 14.796875 27.984375 
Q 14.796875 18.265625 18.828125 12.890625 
Q 22.859375 7.515625 30.078125 7.515625 
Q 37.359375 7.515625 41.375 12.890625 
Q 45.40625 18.265625 45.40625 27.984375 
z
M 54.390625 6.78125 
Q 54.390625 -7.171875 48.1875 -13.984375 
Q 42 -20.796875 29.203125 -20.796875 
Q 24.46875 -20.796875 20.265625 -20.09375 
Q 16.0625 -19.390625 12.109375 -17.921875 
L 12.109375 -9.1875 
Q 16.0625 -11.328125 19.921875 -12.34375 
Q 23.78125 -13.375 27.78125 -13.375 
Q 36.625 -13.375 41.015625 -8.765625 
Q 45.40625 -4.15625 45.40625 5.171875 
L 45.40625 9.625 
Q 42.625 4.78125 38.28125 2.390625 
Q 33.9375 0 27.875 0 
Q 17.828125 0 11.671875 7.65625 
Q 5.515625 15.328125 5.515625 27.984375 
Q 5.515625 40.671875 11.671875 48.328125 
Q 17.828125 56 27.875 56 
Q 33.9375 56 38.28125 53.609375 
Q 42.625 51.21875 45.40625 46.390625 
L 45.40625 54.6875 
L 54.390625 54.6875 
z
" id="DejaVuSans-103"/>
       <path d="M 41.109375 46.296875 
Q 39.59375 47.171875 37.8125 47.578125 
Q 36.03125 48 33.890625 48 
Q 26.265625 48 22.1875 43.046875 
Q 18.109375 38.09375 18.109375 28.8125 
L 18.109375 0 
L 9.078125 0 
L 9.078125 54.6875 
L 18.109375 54.6875 
L 18.109375 46.1875 
Q 20.953125 51.171875 25.484375 53.578125 
Q 30.03125 56 36.53125 56 
Q 37.453125 56 38.578125 55.875 
Q 39.703125 55.765625 41.0625 55.515625 
z
" id="DejaVuSans-114"/>
       <path d="M 30.609375 48.390625 
Q 23.390625 48.390625 19.1875 42.75 
Q 14.984375 37.109375 14.984375 27.296875 
Q 14.984375 17.484375 19.15625 11.84375 
Q 23.34375 6.203125 30.609375 6.203125 
Q 37.796875 6.203125 41.984375 11.859375 
Q 46.1875 17.53125 46.1875 27.296875 
Q 46.1875 37.015625 41.984375 42.703125 
Q 37.796875 48.390625 30.609375 48.390625 
z
M 30.609375 56 
Q 42.328125 56 49.015625 48.375 
Q 55.71875 40.765625 55.71875 27.296875 
Q 55.71875 13.875 49.015625 6.21875 
Q 42.328125 -1.421875 30.609375 -1.421875 
Q 18.84375 -1.421875 12.171875 6.21875 
Q 5.515625 13.875 5.515625 27.296875 
Q 5.515625 40.765625 12.171875 48.375 
Q 18.84375 56 30.609375 56 
z
" id="DejaVuSans-111"/>
       <path d="M 18.109375 8.203125 
L 18.109375 -20.796875 
L 9.078125 -20.796875 
L 9.078125 54.6875 
L 18.109375 54.6875 
L 18.109375 46.390625 
Q 20.953125 51.265625 25.265625 53.625 
Q 29.59375 56 35.59375 56 
Q 45.5625 56 51.78125 48.09375 
Q 58.015625 40.1875 58.015625 27.296875 
Q 58.015625 14.40625 51.78125 6.484375 
Q 45.5625 -1.421875 35.59375 -1.421875 
Q 29.59375 -1.421875 25.265625 0.953125 
Q 20.953125 3.328125 18.109375 8.203125 
z
M 48.6875 27.296875 
Q 48.6875 37.203125 44.609375 42.84375 
Q 40.53125 48.484375 33.40625 48.484375 
Q 26.265625 48.484375 22.1875 42.84375 
Q 18.109375 37.203125 18.109375 27.296875 
Q 18.109375 17.390625 22.1875 11.75 
Q 26.265625 6.109375 33.40625 6.109375 
Q 40.53125 6.109375 44.609375 11.75 
Q 48.6875 17.390625 48.6875 27.296875 
z
" id="DejaVuSans-112"/>
       <path d="M 50.984375 -16.609375 
L 50.984375 -23.578125 
L -0.984375 -23.578125 
L -0.984375 -16.609375 
z
" id="DejaVuSans-95"/>
      </defs>
      <use xlink:href="#DejaVuSans-103"/>
      <use x="63.476562" xlink:href="#DejaVuSans-114"/>
      <use x="102.339844" xlink:href="#DejaVuSans-111"/>
      <use x="163.521484" xlink:href="#DejaVuSans-117"/>
      <use x="226.900391" xlink:href="#DejaVuSans-112"/>
      <use x="290.376953" xlink:href="#DejaVuSans-95"/>
      <use x="340.376953" xlink:href="#DejaVuSans-49"/>
     </g>
    </g>
    <g id="line2d_22">
     <path d="M 56.3 53.974688 
L 76.3 53.974688 
" style="fill:none;stroke:#ff7f0e;stroke-linecap:square;stroke-width:1.5;"/>
    </g>
    <g id="line2d_23"/>
    <g id="text_9">
     <!-- group_2 -->
     <g transform="translate(84.3 57.474688)scale(0.1 -0.1)">
      <use xlink:href="#DejaVuSans-103"/>
      <use x="63.476562" xlink:href="#DejaVuSans-114"/>
      <use x="102.339844" xlink:href="#DejaVuSans-111"/>
      <use x="163.521484" xlink:href="#DejaVuSans-117"/>
      <use x="226.900391" xlink:href="#DejaVuSans-112"/>
      <use x="290.376953" xlink:href="#DejaVuSans-95"/>
      <use x="340.376953" xlink:href="#DejaVuSans-50"/>
     </g>
    </g>
    <g id="line2d_24">
     <path d="M 56.3 68.930938 
L 76.3 68.930938 
" style="fill:none;stroke:#2ca02c;stroke-linecap:square;stroke-width:1.5;"/>
    </g>
    <g id="line2d_25"/>
    <g id="text_10">
     <!-- group_3 -->
     <g transform="translate(84.3 72.430938)scale(0.1 -0.1)">
      <defs>
       <path d="M 40.578125 39.3125 
Q 47.65625 37.796875 51.625 33 
Q 55.609375 28.21875 55.609375 21.1875 
Q 55.609375 10.40625 48.1875 4.484375 
Q 40.765625 -1.421875 27.09375 -1.421875 
Q 22.515625 -1.421875 17.65625 -0.515625 
Q 12.796875 0.390625 7.625 2.203125 
L 7.625 11.71875 
Q 11.71875 9.328125 16.59375 8.109375 
Q 21.484375 6.890625 26.8125 6.890625 
Q 36.078125 6.890625 40.9375 10.546875 
Q 45.796875 14.203125 45.796875 21.1875 
Q 45.796875 27.640625 41.28125 31.265625 
Q 36.765625 34.90625 28.71875 34.90625 
L 20.21875 34.90625 
L 20.21875 43.015625 
L 29.109375 43.015625 
Q 36.375 43.015625 40.234375 45.921875 
Q 44.09375 48.828125 44.09375 54.296875 
Q 44.09375 59.90625 40.109375 62.90625 
Q 36.140625 65.921875 28.71875 65.921875 
Q 24.65625 65.921875 20.015625 65.03125 
Q 15.375 64.15625 9.8125 62.3125 
L 9.8125 71.09375 
Q 15.4375 72.65625 20.34375 73.4375 
Q 25.25 74.21875 29.59375 74.21875 
Q 40.828125 74.21875 47.359375 69.109375 
Q 53.90625 64.015625 53.90625 55.328125 
Q 53.90625 49.265625 50.4375 45.09375 
Q 46.96875 40.921875 40.578125 39.3125 
z
" id="DejaVuSans-51"/>
      </defs>
      <use xlink:href="#DejaVuSans-103"/>
      <use x="63.476562" xlink:href="#DejaVuSans-114"/>
      <use x="102.339844" xlink:href="#DejaVuSans-111"/>
      <use x="163.521484" xlink:href="#DejaVuSans-117"/>
      <use x="226.900391" xlink:href="#DejaVuSans-112"/>
      <use x="290.376953" xlink:href="#DejaVuSans-95"/>
      <use x="340.376953" xlink:href="#DejaVuSans-51"/>
     </g>
    </g>
    <g id="line2d_26">
     <path d="M 56.3 83.887188 
L 76.3 83.887188 
" style="fill:none;stroke:#d62728;stroke-linecap:square;stroke-width:1.5;"/>
    </g>
    <g id="line2d_27"/>
    <g id="text_11">
     <!-- group_4 -->
     <g transform="translate(84.3 87.387188)scale(0.1 -0.1)">
      <defs>
       <path d="M 37.796875 64.3125 
L 12.890625 25.390625 
L 37.796875 25.390625 
z
M 35.203125 72.90625 
L 47.609375 72.90625 
L 47.609375 25.390625 
L 58.015625 25.390625 
L 58.015625 17.1875 
L 47.609375 17.1875 
L 47.609375 0 
L 37.796875 0 
L 37.796875 17.1875 
L 4.890625 17.1875 
L 4.890625 26.703125 
z
" id="DejaVuSans-52"/>
      </defs>
      <use xlink:href="#DejaVuSans-103"/>
      <use x="63.476562" xlink:href="#DejaVuSans-114"/>
      <use x="102.339844" xlink:href="#DejaVuSans-111"/>
      <use x="163.521484" xlink:href="#DejaVuSans-117"/>
      <use x="226.900391" xlink:href="#DejaVuSans-112"/>
      <use x="290.376953" xlink:href="#DejaVuSans-95"/>
      <use x="340.376953" xlink:href="#DejaVuSans-52"/>
     </g>
    </g>
    <g id="line2d_28">
     <path d="M 56.3 98.843438 
L 76.3 98.843438 
" style="fill:none;stroke:#9467bd;stroke-linecap:square;stroke-width:1.5;"/>
    </g>
    <g id="line2d_29"/>
    <g id="text_12">
     <!-- group_5 -->
     <g transform="translate(84.3 102.343438)scale(0.1 -0.1)">
      <use xlink:href="#DejaVuSans-103"/>
      <use x="63.476562" xlink:href="#DejaVuSans-114"/>
      <use x="102.339844" xlink:href="#DejaVuSans-111"/>
      <use x="163.521484" xlink:href="#DejaVuSans-117"/>
      <use x="226.900391" xlink:href="#DejaVuSans-112"/>
      <use x="290.376953" xlink:href="#DejaVuSans-95"/>
      <use x="340.376953" xlink:href="#DejaVuSans-53"/>
     </g>
    </g>
    <g id="line2d_30">
     <path d="M 56.3 113.799688 
L 76.3 113.799688 
" style="fill:none;stroke:#8c564b;stroke-linecap:square;stroke-width:1.5;"/>
    </g>
    <g id="line2d_31"/>
    <g id="text_13">
     <!-- benchmark -->
     <g transform="translate(84.3 117.299688)scale(0.1 -0.1)">
      <defs>
       <path d="M 48.6875 27.296875 
Q 48.6875 37.203125 44.609375 42.84375 
Q 40.53125 48.484375 33.40625 48.484375 
Q 26.265625 48.484375 22.1875 42.84375 
Q 18.109375 37.203125 18.109375 27.296875 
Q 18.109375 17.390625 22.1875 11.75 
Q 26.265625 6.109375 33.40625 6.109375 
Q 40.53125 6.109375 44.609375 11.75 
Q 48.6875 17.390625 48.6875 27.296875 
z
M 18.109375 46.390625 
Q 20.953125 51.265625 25.265625 53.625 
Q 29.59375 56 35.59375 56 
Q 45.5625 56 51.78125 48.09375 
Q 58.015625 40.1875 58.015625 27.296875 
Q 58.015625 14.40625 51.78125 6.484375 
Q 45.5625 -1.421875 35.59375 -1.421875 
Q 29.59375 -1.421875 25.265625 0.953125 
Q 20.953125 3.328125 18.109375 8.203125 
L 18.109375 0 
L 9.078125 0 
L 9.078125 75.984375 
L 18.109375 75.984375 
z
" id="DejaVuSans-98"/>
       <path d="M 48.78125 52.59375 
L 48.78125 44.1875 
Q 44.96875 46.296875 41.140625 47.34375 
Q 37.3125 48.390625 33.40625 48.390625 
Q 24.65625 48.390625 19.8125 42.84375 
Q 14.984375 37.3125 14.984375 27.296875 
Q 14.984375 17.28125 19.8125 11.734375 
Q 24.65625 6.203125 33.40625 6.203125 
Q 37.3125 6.203125 41.140625 7.25 
Q 44.96875 8.296875 48.78125 10.40625 
L 48.78125 2.09375 
Q 45.015625 0.34375 40.984375 -0.53125 
Q 36.96875 -1.421875 32.421875 -1.421875 
Q 20.0625 -1.421875 12.78125 6.34375 
Q 5.515625 14.109375 5.515625 27.296875 
Q 5.515625 40.671875 12.859375 48.328125 
Q 20.21875 56 33.015625 56 
Q 37.15625 56 41.109375 55.140625 
Q 45.0625 54.296875 48.78125 52.59375 
z
" id="DejaVuSans-99"/>
       <path d="M 54.890625 33.015625 
L 54.890625 0 
L 45.90625 0 
L 45.90625 32.71875 
Q 45.90625 40.484375 42.875 44.328125 
Q 39.84375 48.1875 33.796875 48.1875 
Q 26.515625 48.1875 22.3125 43.546875 
Q 18.109375 38.921875 18.109375 30.90625 
L 18.109375 0 
L 9.078125 0 
L 9.078125 75.984375 
L 18.109375 75.984375 
L 18.109375 46.1875 
Q 21.34375 51.125 25.703125 53.5625 
Q 30.078125 56 35.796875 56 
Q 45.21875 56 50.046875 50.171875 
Q 54.890625 44.34375 54.890625 33.015625 
z
" id="DejaVuSans-104"/>
       <path d="M 52 44.1875 
Q 55.375 50.25 60.0625 53.125 
Q 64.75 56 71.09375 56 
Q 79.640625 56 84.28125 50.015625 
Q 88.921875 44.046875 88.921875 33.015625 
L 88.921875 0 
L 79.890625 0 
L 79.890625 32.71875 
Q 79.890625 40.578125 77.09375 44.375 
Q 74.3125 48.1875 68.609375 48.1875 
Q 61.625 48.1875 57.5625 43.546875 
Q 53.515625 38.921875 53.515625 30.90625 
L 53.515625 0 
L 44.484375 0 
L 44.484375 32.71875 
Q 44.484375 40.625 41.703125 44.40625 
Q 38.921875 48.1875 33.109375 48.1875 
Q 26.21875 48.1875 22.15625 43.53125 
Q 18.109375 38.875 18.109375 30.90625 
L 18.109375 0 
L 9.078125 0 
L 9.078125 54.6875 
L 18.109375 54.6875 
L 18.109375 46.1875 
Q 21.1875 51.21875 25.484375 53.609375 
Q 29.78125 56 35.6875 56 
Q 41.65625 56 45.828125 52.96875 
Q 50 49.953125 52 44.1875 
z
" id="DejaVuSans-109"/>
       <path d="M 9.078125 75.984375 
L 18.109375 75.984375 
L 18.109375 31.109375 
L 44.921875 54.6875 
L 56.390625 54.6875 
L 27.390625 29.109375 
L 57.625 0 
L 45.90625 0 
L 18.109375 26.703125 
L 18.109375 0 
L 9.078125 0 
z
" id="DejaVuSans-107"/>
      </defs>
      <use xlink:href="#DejaVuSans-98"/>
      <use x="63.476562" xlink:href="#DejaVuSans-101"/>
      <use x="125" xlink:href="#DejaVuSans-110"/>
      <use x="188.378906" xlink:href="#DejaVuSans-99"/>
      <use x="243.359375" xlink:href="#DejaVuSans-104"/>
      <use x="306.738281" xlink:href="#DejaVuSans-109"/>
      <use x="404.150391" xlink:href="#DejaVuSans-97"/>
      <use x="465.429688" xlink:href="#DejaVuSans-114"/>
      <use x="506.542969" xlink:href="#DejaVuSans-107"/>
     </g>
    </g>
    <g id="line2d_32">
     <path d="M 56.3 128.477813 
L 76.3 128.477813 
" style="fill:none;stroke:#e377c2;stroke-linecap:square;stroke-width:1.5;"/>
    </g>
    <g id="line2d_33"/>
    <g id="text_14">
     <!-- long_excess -->
     <g transform="translate(84.3 131.977813)scale(0.1 -0.1)">
      <defs>
       <path d="M 54.890625 54.6875 
L 35.109375 28.078125 
L 55.90625 0 
L 45.3125 0 
L 29.390625 21.484375 
L 13.484375 0 
L 2.875 0 
L 24.125 28.609375 
L 4.6875 54.6875 
L 15.28125 54.6875 
L 29.78125 35.203125 
L 44.28125 54.6875 
z
" id="DejaVuSans-120"/>
       <path d="M 44.28125 53.078125 
L 44.28125 44.578125 
Q 40.484375 46.53125 36.375 47.5 
Q 32.28125 48.484375 27.875 48.484375 
Q 21.1875 48.484375 17.84375 46.4375 
Q 14.5 44.390625 14.5 40.28125 
Q 14.5 37.15625 16.890625 35.375 
Q 19.28125 33.59375 26.515625 31.984375 
L 29.59375 31.296875 
Q 39.15625 29.25 43.1875 25.515625 
Q 47.21875 21.78125 47.21875 15.09375 
Q 47.21875 7.46875 41.1875 3.015625 
Q 35.15625 -1.421875 24.609375 -1.421875 
Q 20.21875 -1.421875 15.453125 -0.5625 
Q 10.6875 0.296875 5.421875 2 
L 5.421875 11.28125 
Q 10.40625 8.6875 15.234375 7.390625 
Q 20.0625 6.109375 24.8125 6.109375 
Q 31.15625 6.109375 34.5625 8.28125 
Q 37.984375 10.453125 37.984375 14.40625 
Q 37.984375 18.0625 35.515625 20.015625 
Q 33.0625 21.96875 24.703125 23.78125 
L 21.578125 24.515625 
Q 13.234375 26.265625 9.515625 29.90625 
Q 5.8125 33.546875 5.8125 39.890625 
Q 5.8125 47.609375 11.28125 51.796875 
Q 16.75 56 26.8125 56 
Q 31.78125 56 36.171875 55.265625 
Q 40.578125 54.546875 44.28125 53.078125 
z
" id="DejaVuSans-115"/>
      </defs>
      <use xlink:href="#DejaVuSans-108"/>
      <use x="27.783203" xlink:href="#DejaVuSans-111"/>
      <use x="88.964844" xlink:href="#DejaVuSans-110"/>
      <use x="152.34375" xlink:href="#DejaVuSans-103"/>
      <use x="215.820312" xlink:href="#DejaVuSans-95"/>
      <use x="265.820312" xlink:href="#DejaVuSans-101"/>
      <use x="325.59375" xlink:href="#DejaVuSans-120"/>
      <use x="383.023438" xlink:href="#DejaVuSans-99"/>
      <use x="438.003906" xlink:href="#DejaVuSans-101"/>
      <use x="499.527344" xlink:href="#DejaVuSans-115"/>
      <use x="551.626953" xlink:href="#DejaVuSans-115"/>
     </g>
    </g>
    <g id="line2d_34">
     <path d="M 56.3 143.434063 
L 76.3 143.434063 
" style="fill:none;stroke:#7f7f7f;stroke-linecap:square;stroke-width:1.5;"/>
    </g>
    <g id="line2d_35"/>
    <g id="text_15">
     <!-- short_excess -->
     <g transform="translate(84.3 146.934063)scale(0.1 -0.1)">
      <use xlink:href="#DejaVuSans-115"/>
      <use x="52.099609" xlink:href="#DejaVuSans-104"/>
      <use x="115.478516" xlink:href="#DejaVuSans-111"/>
      <use x="176.660156" xlink:href="#DejaVuSans-114"/>
      <use x="217.773438" xlink:href="#DejaVuSans-116"/>
      <use x="256.982422" xlink:href="#DejaVuSans-95"/>
      <use x="306.982422" xlink:href="#DejaVuSans-101"/>
      <use x="366.755859" xlink:href="#DejaVuSans-120"/>
      <use x="424.185547" xlink:href="#DejaVuSans-99"/>
      <use x="479.166016" xlink:href="#DejaVuSans-101"/>
      <use x="540.689453" xlink:href="#DejaVuSans-115"/>
      <use x="592.789062" xlink:href="#DejaVuSans-115"/>
     </g>
    </g>
    <g id="line2d_36">
     <path d="M 56.3 158.390313 
L 76.3 158.390313 
" style="fill:none;stroke:#bcbd22;stroke-linecap:square;stroke-width:1.5;"/>
    </g>
    <g id="line2d_37"/>
    <g id="text_16">
     <!-- long_short -->
     <g transform="translate(84.3 161.890313)scale(0.1 -0.1)">
      <use xlink:href="#DejaVuSans-108"/>
      <use x="27.783203" xlink:href="#DejaVuSans-111"/>
      <use x="88.964844" xlink:href="#DejaVuSans-110"/>
      <use x="152.34375" xlink:href="#DejaVuSans-103"/>
      <use x="215.820312" xlink:href="#DejaVuSans-95"/>
      <use x="265.820312" xlink:href="#DejaVuSans-115"/>
      <use x="317.919922" xlink:href="#DejaVuSans-104"/>
      <use x="381.298828" xlink:href="#DejaVuSans-111"/>
      <use x="442.480469" xlink:href="#DejaVuSans-114"/>
      <use x="483.59375" xlink:href="#DejaVuSans-116"/>
     </g>
    </g>
   </g>
  </g>
 </g>
 <defs>
  <clipPath id="pa0cac63941">
   <rect height="334.18" width="1093.9" x="47.3" y="25.92"/>
  </clipPath>
 </defs>
</svg>
