<?xml version="1.0" encoding="utf-8" standalone="no"?>
<!DOCTYPE svg PUBLIC "-//W3C//DTD SVG 1.1//EN"
  "http://www.w3.org/Graphics/SVG/1.1/DTD/svg11.dtd">
<!-- Created with matplotlib (https://matplotlib.org/) -->
<svg height="360pt" version="1.1" viewBox="0 0 1152 360" width="1152pt" xmlns="http://www.w3.org/2000/svg" xmlns:xlink="http://www.w3.org/1999/xlink">
 <metadata>
  <rdf:RDF xmlns:cc="http://creativecommons.org/ns#" xmlns:dc="http://purl.org/dc/elements/1.1/" xmlns:rdf="http://www.w3.org/1999/02/22-rdf-syntax-ns#">
   <cc:Work>
    <dc:type rdf:resource="http://purl.org/dc/dcmitype/StillImage"/>
    <dc:date>2023-10-11T16:59:44.286551</dc:date>
    <dc:format>image/svg+xml</dc:format>
    <dc:creator>
     <cc:Agent>
      <dc:title>Matplotlib v3.3.4, https://matplotlib.org/</dc:title>
     </cc:Agent>
    </dc:creator>
   </cc:Work>
  </rdf:RDF>
 </metadata>
 <defs>
  <style type="text/css">*{stroke-linecap:butt;stroke-linejoin:round;}</style>
 </defs>
 <g id="figure_1">
  <g id="patch_1">
   <path d="M 0 360 
L 1152 360 
L 1152 0 
L 0 0 
z
" style="fill:#ffffff;"/>
  </g>
  <g id="axes_1">
   <g id="patch_2">
    <path d="M 50.96 316.76 
L 1141.2 316.76 
L 1141.2 25.92 
L 50.96 25.92 
z
" style="fill:#ffffff;"/>
   </g>
   <g id="matplotlib.axis_1">
    <g id="xtick_1">
     <g id="line2d_1">
      <path clip-path="url(#p5192fce335)" d="M 82.495868 316.76 
L 82.495868 25.92 
" style="fill:none;stroke:#b0b0b0;stroke-linecap:square;stroke-width:0.8;"/>
     </g>
     <g id="line2d_2">
      <defs>
       <path d="M 0 0 
L 0 3.5 
" id="m27b113336e" style="stroke:#000000;stroke-width:0.8;"/>
      </defs>
      <g>
       <use style="stroke:#000000;stroke-width:0.8;" x="82.495868" xlink:href="#m27b113336e" y="316.76"/>
      </g>
     </g>
     <g id="text_1">
      <!-- 2010 -->
      <g transform="translate(85.255243 349.21)rotate(-90)scale(0.1 -0.1)">
       <defs>
        <path d="M 19.1875 8.296875 
L 53.609375 8.296875 
L 53.609375 0 
L 7.328125 0 
L 7.328125 8.296875 
Q 12.9375 14.109375 22.625 23.890625 
Q 32.328125 33.6875 34.8125 36.53125 
Q 39.546875 41.84375 41.421875 45.53125 
Q 43.3125 49.21875 43.3125 52.78125 
Q 43.3125 58.59375 39.234375 62.25 
Q 35.15625 65.921875 28.609375 65.921875 
Q 23.96875 65.921875 18.8125 64.3125 
Q 13.671875 62.703125 7.8125 59.421875 
L 7.8125 69.390625 
Q 13.765625 71.78125 18.9375 73 
Q 24.125 74.21875 28.421875 74.21875 
Q 39.75 74.21875 46.484375 68.546875 
Q 53.21875 62.890625 53.21875 53.421875 
Q 53.21875 48.921875 51.53125 44.890625 
Q 49.859375 40.875 45.40625 35.40625 
Q 44.1875 33.984375 37.640625 27.21875 
Q 31.109375 20.453125 19.1875 8.296875 
z
" id="DejaVuSans-50"/>
        <path d="M 31.78125 66.40625 
Q 24.171875 66.40625 20.328125 58.90625 
Q 16.5 51.421875 16.5 36.375 
Q 16.5 21.390625 20.328125 13.890625 
Q 24.171875 6.390625 31.78125 6.390625 
Q 39.453125 6.390625 43.28125 13.890625 
Q 47.125 21.390625 47.125 36.375 
Q 47.125 51.421875 43.28125 58.90625 
Q 39.453125 66.40625 31.78125 66.40625 
z
M 31.78125 74.21875 
Q 44.046875 74.21875 50.515625 64.515625 
Q 56.984375 54.828125 56.984375 36.375 
Q 56.984375 17.96875 50.515625 8.265625 
Q 44.046875 -1.421875 31.78125 -1.421875 
Q 19.53125 -1.421875 13.0625 8.265625 
Q 6.59375 17.96875 6.59375 36.375 
Q 6.59375 54.828125 13.0625 64.515625 
Q 19.53125 74.21875 31.78125 74.21875 
z
" id="DejaVuSans-48"/>
        <path d="M 12.40625 8.296875 
L 28.515625 8.296875 
L 28.515625 63.921875 
L 10.984375 60.40625 
L 10.984375 69.390625 
L 28.421875 72.90625 
L 38.28125 72.90625 
L 38.28125 8.296875 
L 54.390625 8.296875 
L 54.390625 0 
L 12.40625 0 
z
" id="DejaVuSans-49"/>
       </defs>
       <use xlink:href="#DejaVuSans-50"/>
       <use x="63.623047" xlink:href="#DejaVuSans-48"/>
       <use x="127.246094" xlink:href="#DejaVuSans-49"/>
       <use x="190.869141" xlink:href="#DejaVuSans-48"/>
      </g>
     </g>
    </g>
   </g>
   <g id="matplotlib.axis_2">
    <g id="ytick_1">
     <g id="line2d_3">
      <path clip-path="url(#p5192fce335)" d="M 50.96 291.631069 
L 1141.2 291.631069 
" style="fill:none;stroke:#b0b0b0;stroke-linecap:square;stroke-width:0.8;"/>
     </g>
     <g id="line2d_4">
      <defs>
       <path d="M 0 0 
L -3.5 0 
" id="mde2f381132" style="stroke:#000000;stroke-width:0.8;"/>
      </defs>
      <g>
       <use style="stroke:#000000;stroke-width:0.8;" x="50.96" xlink:href="#mde2f381132" y="291.631069"/>
      </g>
     </g>
     <g id="text_2">
      <!-- -0.6 -->
      <g transform="translate(24.449062 295.430288)scale(0.1 -0.1)">
       <defs>
        <path d="M 4.890625 31.390625 
L 31.203125 31.390625 
L 31.203125 23.390625 
L 4.890625 23.390625 
z
" id="DejaVuSans-45"/>
        <path d="M 10.6875 12.40625 
L 21 12.40625 
L 21 0 
L 10.6875 0 
z
" id="DejaVuSans-46"/>
        <path d="M 33.015625 40.375 
Q 26.375 40.375 22.484375 35.828125 
Q 18.609375 31.296875 18.609375 23.390625 
Q 18.609375 15.53125 22.484375 10.953125 
Q 26.375 6.390625 33.015625 6.390625 
Q 39.65625 6.390625 43.53125 10.953125 
Q 47.40625 15.53125 47.40625 23.390625 
Q 47.40625 31.296875 43.53125 35.828125 
Q 39.65625 40.375 33.015625 40.375 
z
M 52.59375 71.296875 
L 52.59375 62.3125 
Q 48.875 64.0625 45.09375 64.984375 
Q 41.3125 65.921875 37.59375 65.921875 
Q 27.828125 65.921875 22.671875 59.328125 
Q 17.53125 52.734375 16.796875 39.40625 
Q 19.671875 43.65625 24.015625 45.921875 
Q 28.375 48.1875 33.59375 48.1875 
Q 44.578125 48.1875 50.953125 41.515625 
Q 57.328125 34.859375 57.328125 23.390625 
Q 57.328125 12.15625 50.6875 5.359375 
Q 44.046875 -1.421875 33.015625 -1.421875 
Q 20.359375 -1.421875 13.671875 8.265625 
Q 6.984375 17.96875 6.984375 36.375 
Q 6.984375 53.65625 15.1875 63.9375 
Q 23.390625 74.21875 37.203125 74.21875 
Q 40.921875 74.21875 44.703125 73.484375 
Q 48.484375 72.75 52.59375 71.296875 
z
" id="DejaVuSans-54"/>
       </defs>
       <use xlink:href="#DejaVuSans-45"/>
       <use x="36.083984" xlink:href="#DejaVuSans-48"/>
       <use x="99.707031" xlink:href="#DejaVuSans-46"/>
       <use x="131.494141" xlink:href="#DejaVuSans-54"/>
      </g>
     </g>
    </g>
    <g id="ytick_2">
     <g id="line2d_5">
      <path clip-path="url(#p5192fce335)" d="M 50.96 249.49374 
L 1141.2 249.49374 
" style="fill:none;stroke:#b0b0b0;stroke-linecap:square;stroke-width:0.8;"/>
     </g>
     <g id="line2d_6">
      <g>
       <use style="stroke:#000000;stroke-width:0.8;" x="50.96" xlink:href="#mde2f381132" y="249.49374"/>
      </g>
     </g>
     <g id="text_3">
      <!-- -0.4 -->
      <g transform="translate(24.449062 253.292959)scale(0.1 -0.1)">
       <defs>
        <path d="M 37.796875 64.3125 
L 12.890625 25.390625 
L 37.796875 25.390625 
z
M 35.203125 72.90625 
L 47.609375 72.90625 
L 47.609375 25.390625 
L 58.015625 25.390625 
L 58.015625 17.1875 
L 47.609375 17.1875 
L 47.609375 0 
L 37.796875 0 
L 37.796875 17.1875 
L 4.890625 17.1875 
L 4.890625 26.703125 
z
" id="DejaVuSans-52"/>
       </defs>
       <use xlink:href="#DejaVuSans-45"/>
       <use x="36.083984" xlink:href="#DejaVuSans-48"/>
       <use x="99.707031" xlink:href="#DejaVuSans-46"/>
       <use x="131.494141" xlink:href="#DejaVuSans-52"/>
      </g>
     </g>
    </g>
    <g id="ytick_3">
     <g id="line2d_7">
      <path clip-path="url(#p5192fce335)" d="M 50.96 207.35641 
L 1141.2 207.35641 
" style="fill:none;stroke:#b0b0b0;stroke-linecap:square;stroke-width:0.8;"/>
     </g>
     <g id="line2d_8">
      <g>
       <use style="stroke:#000000;stroke-width:0.8;" x="50.96" xlink:href="#mde2f381132" y="207.35641"/>
      </g>
     </g>
     <g id="text_4">
      <!-- -0.2 -->
      <g transform="translate(24.449062 211.155629)scale(0.1 -0.1)">
       <use xlink:href="#DejaVuSans-45"/>
       <use x="36.083984" xlink:href="#DejaVuSans-48"/>
       <use x="99.707031" xlink:href="#DejaVuSans-46"/>
       <use x="131.494141" xlink:href="#DejaVuSans-50"/>
      </g>
     </g>
    </g>
    <g id="ytick_4">
     <g id="line2d_9">
      <path clip-path="url(#p5192fce335)" d="M 50.96 165.219081 
L 1141.2 165.219081 
" style="fill:none;stroke:#b0b0b0;stroke-linecap:square;stroke-width:0.8;"/>
     </g>
     <g id="line2d_10">
      <g>
       <use style="stroke:#000000;stroke-width:0.8;" x="50.96" xlink:href="#mde2f381132" y="165.219081"/>
      </g>
     </g>
     <g id="text_5">
      <!-- 0.0 -->
      <g transform="translate(28.056875 169.0183)scale(0.1 -0.1)">
       <use xlink:href="#DejaVuSans-48"/>
       <use x="63.623047" xlink:href="#DejaVuSans-46"/>
       <use x="95.410156" xlink:href="#DejaVuSans-48"/>
      </g>
     </g>
    </g>
    <g id="ytick_5">
     <g id="line2d_11">
      <path clip-path="url(#p5192fce335)" d="M 50.96 123.081751 
L 1141.2 123.081751 
" style="fill:none;stroke:#b0b0b0;stroke-linecap:square;stroke-width:0.8;"/>
     </g>
     <g id="line2d_12">
      <g>
       <use style="stroke:#000000;stroke-width:0.8;" x="50.96" xlink:href="#mde2f381132" y="123.081751"/>
      </g>
     </g>
     <g id="text_6">
      <!-- 0.2 -->
      <g transform="translate(28.056875 126.88097)scale(0.1 -0.1)">
       <use xlink:href="#DejaVuSans-48"/>
       <use x="63.623047" xlink:href="#DejaVuSans-46"/>
       <use x="95.410156" xlink:href="#DejaVuSans-50"/>
      </g>
     </g>
    </g>
    <g id="ytick_6">
     <g id="line2d_13">
      <path clip-path="url(#p5192fce335)" d="M 50.96 80.944422 
L 1141.2 80.944422 
" style="fill:none;stroke:#b0b0b0;stroke-linecap:square;stroke-width:0.8;"/>
     </g>
     <g id="line2d_14">
      <g>
       <use style="stroke:#000000;stroke-width:0.8;" x="50.96" xlink:href="#mde2f381132" y="80.944422"/>
      </g>
     </g>
     <g id="text_7">
      <!-- 0.4 -->
      <g transform="translate(28.056875 84.74364)scale(0.1 -0.1)">
       <use xlink:href="#DejaVuSans-48"/>
       <use x="63.623047" xlink:href="#DejaVuSans-46"/>
       <use x="95.410156" xlink:href="#DejaVuSans-52"/>
      </g>
     </g>
    </g>
    <g id="ytick_7">
     <g id="line2d_15">
      <path clip-path="url(#p5192fce335)" d="M 50.96 38.807092 
L 1141.2 38.807092 
" style="fill:none;stroke:#b0b0b0;stroke-linecap:square;stroke-width:0.8;"/>
     </g>
     <g id="line2d_16">
      <g>
       <use style="stroke:#000000;stroke-width:0.8;" x="50.96" xlink:href="#mde2f381132" y="38.807092"/>
      </g>
     </g>
     <g id="text_8">
      <!-- 0.6 -->
      <g transform="translate(28.056875 42.606311)scale(0.1 -0.1)">
       <use xlink:href="#DejaVuSans-48"/>
       <use x="63.623047" xlink:href="#DejaVuSans-46"/>
       <use x="95.410156" xlink:href="#DejaVuSans-54"/>
      </g>
     </g>
    </g>
    <g id="text_9">
     <!-- log return cumsum -->
     <g transform="translate(18.369375 218.857969)rotate(-90)scale(0.1 -0.1)">
      <defs>
       <path d="M 9.421875 75.984375 
L 18.40625 75.984375 
L 18.40625 0 
L 9.421875 0 
z
" id="DejaVuSans-108"/>
       <path d="M 30.609375 48.390625 
Q 23.390625 48.390625 19.1875 42.75 
Q 14.984375 37.109375 14.984375 27.296875 
Q 14.984375 17.484375 19.15625 11.84375 
Q 23.34375 6.203125 30.609375 6.203125 
Q 37.796875 6.203125 41.984375 11.859375 
Q 46.1875 17.53125 46.1875 27.296875 
Q 46.1875 37.015625 41.984375 42.703125 
Q 37.796875 48.390625 30.609375 48.390625 
z
M 30.609375 56 
Q 42.328125 56 49.015625 48.375 
Q 55.71875 40.765625 55.71875 27.296875 
Q 55.71875 13.875 49.015625 6.21875 
Q 42.328125 -1.421875 30.609375 -1.421875 
Q 18.84375 -1.421875 12.171875 6.21875 
Q 5.515625 13.875 5.515625 27.296875 
Q 5.515625 40.765625 12.171875 48.375 
Q 18.84375 56 30.609375 56 
z
" id="DejaVuSans-111"/>
       <path d="M 45.40625 27.984375 
Q 45.40625 37.75 41.375 43.109375 
Q 37.359375 48.484375 30.078125 48.484375 
Q 22.859375 48.484375 18.828125 43.109375 
Q 14.796875 37.75 14.796875 27.984375 
Q 14.796875 18.265625 18.828125 12.890625 
Q 22.859375 7.515625 30.078125 7.515625 
Q 37.359375 7.515625 41.375 12.890625 
Q 45.40625 18.265625 45.40625 27.984375 
z
M 54.390625 6.78125 
Q 54.390625 -7.171875 48.1875 -13.984375 
Q 42 -20.796875 29.203125 -20.796875 
Q 24.46875 -20.796875 20.265625 -20.09375 
Q 16.0625 -19.390625 12.109375 -17.921875 
L 12.109375 -9.1875 
Q 16.0625 -11.328125 19.921875 -12.34375 
Q 23.78125 -13.375 27.78125 -13.375 
Q 36.625 -13.375 41.015625 -8.765625 
Q 45.40625 -4.15625 45.40625 5.171875 
L 45.40625 9.625 
Q 42.625 4.78125 38.28125 2.390625 
Q 33.9375 0 27.875 0 
Q 17.828125 0 11.671875 7.65625 
Q 5.515625 15.328125 5.515625 27.984375 
Q 5.515625 40.671875 11.671875 48.328125 
Q 17.828125 56 27.875 56 
Q 33.9375 56 38.28125 53.609375 
Q 42.625 51.21875 45.40625 46.390625 
L 45.40625 54.6875 
L 54.390625 54.6875 
z
" id="DejaVuSans-103"/>
       <path id="DejaVuSans-32"/>
       <path d="M 41.109375 46.296875 
Q 39.59375 47.171875 37.8125 47.578125 
Q 36.03125 48 33.890625 48 
Q 26.265625 48 22.1875 43.046875 
Q 18.109375 38.09375 18.109375 28.8125 
L 18.109375 0 
L 9.078125 0 
L 9.078125 54.6875 
L 18.109375 54.6875 
L 18.109375 46.1875 
Q 20.953125 51.171875 25.484375 53.578125 
Q 30.03125 56 36.53125 56 
Q 37.453125 56 38.578125 55.875 
Q 39.703125 55.765625 41.0625 55.515625 
z
" id="DejaVuSans-114"/>
       <path d="M 56.203125 29.59375 
L 56.203125 25.203125 
L 14.890625 25.203125 
Q 15.484375 15.921875 20.484375 11.0625 
Q 25.484375 6.203125 34.421875 6.203125 
Q 39.59375 6.203125 44.453125 7.46875 
Q 49.3125 8.734375 54.109375 11.28125 
L 54.109375 2.78125 
Q 49.265625 0.734375 44.1875 -0.34375 
Q 39.109375 -1.421875 33.890625 -1.421875 
Q 20.796875 -1.421875 13.15625 6.1875 
Q 5.515625 13.8125 5.515625 26.8125 
Q 5.515625 40.234375 12.765625 48.109375 
Q 20.015625 56 32.328125 56 
Q 43.359375 56 49.78125 48.890625 
Q 56.203125 41.796875 56.203125 29.59375 
z
M 47.21875 32.234375 
Q 47.125 39.59375 43.09375 43.984375 
Q 39.0625 48.390625 32.421875 48.390625 
Q 24.90625 48.390625 20.390625 44.140625 
Q 15.875 39.890625 15.1875 32.171875 
z
" id="DejaVuSans-101"/>
       <path d="M 18.3125 70.21875 
L 18.3125 54.6875 
L 36.8125 54.6875 
L 36.8125 47.703125 
L 18.3125 47.703125 
L 18.3125 18.015625 
Q 18.3125 11.328125 20.140625 9.421875 
Q 21.96875 7.515625 27.59375 7.515625 
L 36.8125 7.515625 
L 36.8125 0 
L 27.59375 0 
Q 17.1875 0 13.234375 3.875 
Q 9.28125 7.765625 9.28125 18.015625 
L 9.28125 47.703125 
L 2.6875 47.703125 
L 2.6875 54.6875 
L 9.28125 54.6875 
L 9.28125 70.21875 
z
" id="DejaVuSans-116"/>
       <path d="M 8.5 21.578125 
L 8.5 54.6875 
L 17.484375 54.6875 
L 17.484375 21.921875 
Q 17.484375 14.15625 20.5 10.265625 
Q 23.53125 6.390625 29.59375 6.390625 
Q 36.859375 6.390625 41.078125 11.03125 
Q 45.3125 15.671875 45.3125 23.6875 
L 45.3125 54.6875 
L 54.296875 54.6875 
L 54.296875 0 
L 45.3125 0 
L 45.3125 8.40625 
Q 42.046875 3.421875 37.71875 1 
Q 33.40625 -1.421875 27.6875 -1.421875 
Q 18.265625 -1.421875 13.375 4.4375 
Q 8.5 10.296875 8.5 21.578125 
z
M 31.109375 56 
z
" id="DejaVuSans-117"/>
       <path d="M 54.890625 33.015625 
L 54.890625 0 
L 45.90625 0 
L 45.90625 32.71875 
Q 45.90625 40.484375 42.875 44.328125 
Q 39.84375 48.1875 33.796875 48.1875 
Q 26.515625 48.1875 22.3125 43.546875 
Q 18.109375 38.921875 18.109375 30.90625 
L 18.109375 0 
L 9.078125 0 
L 9.078125 54.6875 
L 18.109375 54.6875 
L 18.109375 46.1875 
Q 21.34375 51.125 25.703125 53.5625 
Q 30.078125 56 35.796875 56 
Q 45.21875 56 50.046875 50.171875 
Q 54.890625 44.34375 54.890625 33.015625 
z
" id="DejaVuSans-110"/>
       <path d="M 48.78125 52.59375 
L 48.78125 44.1875 
Q 44.96875 46.296875 41.140625 47.34375 
Q 37.3125 48.390625 33.40625 48.390625 
Q 24.65625 48.390625 19.8125 42.84375 
Q 14.984375 37.3125 14.984375 27.296875 
Q 14.984375 17.28125 19.8125 11.734375 
Q 24.65625 6.203125 33.40625 6.203125 
Q 37.3125 6.203125 41.140625 7.25 
Q 44.96875 8.296875 48.78125 10.40625 
L 48.78125 2.09375 
Q 45.015625 0.34375 40.984375 -0.53125 
Q 36.96875 -1.421875 32.421875 -1.421875 
Q 20.0625 -1.421875 12.78125 6.34375 
Q 5.515625 14.109375 5.515625 27.296875 
Q 5.515625 40.671875 12.859375 48.328125 
Q 20.21875 56 33.015625 56 
Q 37.15625 56 41.109375 55.140625 
Q 45.0625 54.296875 48.78125 52.59375 
z
" id="DejaVuSans-99"/>
       <path d="M 52 44.1875 
Q 55.375 50.25 60.0625 53.125 
Q 64.75 56 71.09375 56 
Q 79.640625 56 84.28125 50.015625 
Q 88.921875 44.046875 88.921875 33.015625 
L 88.921875 0 
L 79.890625 0 
L 79.890625 32.71875 
Q 79.890625 40.578125 77.09375 44.375 
Q 74.3125 48.1875 68.609375 48.1875 
Q 61.625 48.1875 57.5625 43.546875 
Q 53.515625 38.921875 53.515625 30.90625 
L 53.515625 0 
L 44.484375 0 
L 44.484375 32.71875 
Q 44.484375 40.625 41.703125 44.40625 
Q 38.921875 48.1875 33.109375 48.1875 
Q 26.21875 48.1875 22.15625 43.53125 
Q 18.109375 38.875 18.109375 30.90625 
L 18.109375 0 
L 9.078125 0 
L 9.078125 54.6875 
L 18.109375 54.6875 
L 18.109375 46.1875 
Q 21.1875 51.21875 25.484375 53.609375 
Q 29.78125 56 35.6875 56 
Q 41.65625 56 45.828125 52.96875 
Q 50 49.953125 52 44.1875 
z
" id="DejaVuSans-109"/>
       <path d="M 44.28125 53.078125 
L 44.28125 44.578125 
Q 40.484375 46.53125 36.375 47.5 
Q 32.28125 48.484375 27.875 48.484375 
Q 21.1875 48.484375 17.84375 46.4375 
Q 14.5 44.390625 14.5 40.28125 
Q 14.5 37.15625 16.890625 35.375 
Q 19.28125 33.59375 26.515625 31.984375 
L 29.59375 31.296875 
Q 39.15625 29.25 43.1875 25.515625 
Q 47.21875 21.78125 47.21875 15.09375 
Q 47.21875 7.46875 41.1875 3.015625 
Q 35.15625 -1.421875 24.609375 -1.421875 
Q 20.21875 -1.421875 15.453125 -0.5625 
Q 10.6875 0.296875 5.421875 2 
L 5.421875 11.28125 
Q 10.40625 8.6875 15.234375 7.390625 
Q 20.0625 6.109375 24.8125 6.109375 
Q 31.15625 6.109375 34.5625 8.28125 
Q 37.984375 10.453125 37.984375 14.40625 
Q 37.984375 18.0625 35.515625 20.015625 
Q 33.0625 21.96875 24.703125 23.78125 
L 21.578125 24.515625 
Q 13.234375 26.265625 9.515625 29.90625 
Q 5.8125 33.546875 5.8125 39.890625 
Q 5.8125 47.609375 11.28125 51.796875 
Q 16.75 56 26.8125 56 
Q 31.78125 56 36.171875 55.265625 
Q 40.578125 54.546875 44.28125 53.078125 
z
" id="DejaVuSans-115"/>
      </defs>
      <use xlink:href="#DejaVuSans-108"/>
      <use x="27.783203" xlink:href="#DejaVuSans-111"/>
      <use x="88.964844" xlink:href="#DejaVuSans-103"/>
      <use x="152.441406" xlink:href="#DejaVuSans-32"/>
      <use x="184.228516" xlink:href="#DejaVuSans-114"/>
      <use x="223.091797" xlink:href="#DejaVuSans-101"/>
      <use x="284.615234" xlink:href="#DejaVuSans-116"/>
      <use x="323.824219" xlink:href="#DejaVuSans-117"/>
      <use x="387.203125" xlink:href="#DejaVuSans-114"/>
      <use x="426.566406" xlink:href="#DejaVuSans-110"/>
      <use x="489.945312" xlink:href="#DejaVuSans-32"/>
      <use x="521.732422" xlink:href="#DejaVuSans-99"/>
      <use x="576.712891" xlink:href="#DejaVuSans-117"/>
      <use x="640.091797" xlink:href="#DejaVuSans-109"/>
      <use x="737.503906" xlink:href="#DejaVuSans-115"/>
      <use x="789.603516" xlink:href="#DejaVuSans-117"/>
      <use x="852.982422" xlink:href="#DejaVuSans-109"/>
     </g>
    </g>
   </g>
   <g id="line2d_17">
    <path clip-path="url(#p5192fce335)" d="M 100.516364 171.502452 
L 104.120463 173.527485 
L 107.724562 173.841729 
L 118.53686 178.088685 
L 122.140959 165.040373 
L 125.745058 174.851025 
L 129.349157 173.416625 
L 132.953256 177.209211 
L 143.765554 180.888215 
L 147.369653 198.180618 
L 150.973752 192.998579 
L 154.577851 202.380567 
L 158.18195 198.582666 
L 168.994248 205.245806 
L 172.598347 191.31393 
L 176.202446 200.048788 
L 179.806545 193.89066 
L 183.410645 178.668895 
L 194.222942 182.22904 
L 197.827041 181.516646 
L 201.43114 179.199245 
L 205.03524 176.299211 
L 208.639339 168.04957 
L 219.451636 161.901764 
L 223.055736 179.224045 
L 226.659835 171.727978 
L 230.263934 182.368179 
L 233.868033 182.79875 
L 244.680331 175.070323 
L 248.28443 162.820195 
L 251.888529 152.82686 
L 255.492628 166.263822 
L 259.096727 178.56347 
L 269.909025 198.493496 
L 273.513124 197.081692 
L 277.117223 200.18259 
L 280.721322 209.860612 
L 284.325421 209.590479 
L 295.137719 206.367016 
L 298.741818 201.933755 
L 302.345917 194.57298 
L 305.950017 187.635997 
L 309.554116 185.253028 
L 320.366413 193.477078 
L 323.970512 194.177508 
L 327.574612 192.920386 
L 331.178711 193.178761 
L 334.78281 200.033343 
L 345.595107 212.970671 
L 349.199207 216.386364 
L 352.803306 226.38595 
L 356.407405 232.983375 
L 360.011504 219.340566 
L 370.823802 215.111913 
L 374.427901 209.581917 
L 378.032 211.546225 
L 381.636099 215.99331 
L 385.240198 213.306169 
L 396.052496 218.129769 
L 399.656595 210.610129 
L 403.260694 223.800606 
L 406.864793 211.823233 
L 410.468893 221.964528 
L 421.28119 218.367365 
L 424.885289 201.144883 
L 428.489388 202.101805 
L 432.093488 191.414642 
L 435.697587 192.891269 
L 446.509884 202.500472 
L 450.113983 204.885121 
L 453.718083 193.636368 
L 457.322182 184.177952 
L 460.926281 171.182231 
L 471.738579 159.326348 
L 475.342678 158.141786 
L 478.946777 167.450929 
L 482.550876 173.92097 
L 486.154975 158.01078 
L 496.967273 157.273622 
L 500.571372 155.68266 
L 504.175471 154.560191 
L 507.77957 149.680889 
L 511.383669 142.417971 
L 522.195967 140.299358 
L 525.800066 155.440452 
L 529.404165 169.169789 
L 533.008264 170.12143 
L 536.612364 180.271606 
L 547.424661 170.533243 
L 551.02876 176.49671 
L 554.63286 189.241821 
L 558.236959 181.698275 
L 561.841058 195.78266 
L 572.653355 186.531018 
L 576.257455 181.819887 
L 579.861554 192.58759 
L 583.465653 189.445616 
L 587.069752 177.979354 
L 597.88205 187.566915 
L 601.486149 202.569311 
L 605.090248 207.904391 
L 608.694347 195.905971 
L 612.298446 187.874652 
L 626.714843 198.128054 
L 630.318942 197.072303 
L 633.923041 187.72043 
L 637.52714 179.026544 
L 648.339438 190.122531 
L 651.943537 202.537399 
L 655.547636 209.187026 
L 659.151736 213.165931 
L 662.755835 210.407831 
L 673.568132 223.256503 
L 677.172231 215.69848 
L 680.776331 216.588432 
L 684.38043 216.295743 
L 687.984529 203.58718 
L 698.796826 188.373658 
L 702.400926 189.893565 
L 706.005025 193.418947 
L 709.609124 188.841969 
L 713.213223 197.47236 
L 724.025521 194.057615 
L 727.62962 204.036882 
L 731.233719 214.437677 
L 734.837818 225.261312 
L 738.441917 221.367277 
L 749.254215 212.012063 
L 752.858314 202.972877 
L 756.462413 219.369655 
L 760.066512 216.799763 
L 763.670612 209.069296 
L 774.482909 210.742717 
L 778.087008 205.132297 
L 781.691107 212.330128 
L 785.295207 218.197683 
L 788.899306 221.523387 
L 799.711603 228.223508 
L 803.315702 228.545201 
L 806.919802 224.184159 
L 810.523901 215.478393 
L 814.128 204.356956 
L 824.940298 200.932172 
L 828.544397 203.733436 
L 832.148496 200.796437 
L 835.752595 186.857893 
L 839.356694 182.073233 
L 850.168992 185.058194 
L 853.773091 190.988024 
L 857.37719 183.601722 
L 860.981289 177.02421 
L 864.585388 163.998108 
L 875.397686 162.926425 
L 879.001785 157.077848 
L 882.605884 143.175651 
L 886.209983 149.35225 
L 889.814083 142.144621 
L 900.62638 143.177766 
L 904.230479 143.050698 
L 907.834579 132.552544 
L 911.438678 134.362291 
L 915.042777 123.845485 
L 925.855074 108.476637 
L 929.459174 105.778818 
L 933.063273 117.520754 
L 936.667372 119.277373 
L 940.271471 116.722925 
L 951.083769 99.719604 
L 954.687868 99.472748 
L 958.291967 89.419038 
L 961.896066 98.767755 
L 965.500165 98.871653 
L 976.312463 95.564042 
L 979.916562 96.71927 
L 983.520661 106.602364 
L 987.12476 101.57096 
L 990.72886 100.934451 
L 1001.541157 91.194067 
L 1005.145256 93.633748 
L 1008.749355 89.386832 
L 1012.353455 89.149869 
L 1015.957554 77.884197 
L 1026.769851 94.473094 
L 1030.37395 84.951418 
L 1033.97805 77.464943 
L 1037.582149 98.99579 
L 1041.186248 99.176314 
L 1051.998545 94.084658 
L 1055.602645 79.552507 
L 1059.206744 78.266776 
L 1062.810843 65.72803 
L 1066.414942 81.131255 
L 1077.22724 76.117745 
L 1080.831339 60.216495 
L 1084.435438 46.070085 
L 1088.039537 39.269008 
L 1091.643636 39.269008 
L 1091.643636 39.269008 
" style="fill:none;stroke:#9467bd;stroke-linecap:square;stroke-width:1.5;"/>
   </g>
   <g id="line2d_18">
    <path clip-path="url(#p5192fce335)" d="M 100.516364 174.267579 
L 107.724562 159.716191 
L 118.53686 170.160681 
L 122.140959 160.126634 
L 125.745058 167.950795 
L 129.349157 170.537171 
L 132.953256 180.749224 
L 143.765554 174.242599 
L 147.369653 184.621758 
L 150.973752 173.472161 
L 154.577851 180.265785 
L 158.18195 190.951381 
L 168.994248 172.848673 
L 172.598347 171.352133 
L 176.202446 165.262192 
L 179.806545 177.826668 
L 183.410645 175.545945 
L 194.222942 188.538285 
L 197.827041 177.070079 
L 201.43114 175.291636 
L 205.03524 191.135361 
L 208.639339 187.281534 
L 219.451636 204.917564 
L 223.055736 197.934255 
L 226.659835 189.11936 
L 230.263934 195.082287 
L 233.868033 195.687127 
L 244.680331 194.871665 
L 248.28443 201.823052 
L 251.888529 188.847028 
L 255.492628 185.727421 
L 259.096727 183.935282 
L 269.909025 186.066762 
L 273.513124 194.764172 
L 277.117223 192.118185 
L 280.721322 190.672767 
L 284.325421 192.969905 
L 295.137719 205.814136 
L 298.741818 214.94979 
L 302.345917 207.28708 
L 305.950017 216.894888 
L 309.554116 232.263534 
L 320.366413 222.17028 
L 323.970512 214.558298 
L 327.574612 200.799951 
L 331.178711 199.69546 
L 334.78281 214.543332 
L 345.595107 216.517009 
L 349.199207 222.145562 
L 352.803306 217.434315 
L 356.407405 227.673471 
L 360.011504 232.565648 
L 370.823802 231.228505 
L 374.427901 222.815939 
L 378.032 215.93633 
L 381.636099 212.453116 
L 385.240198 217.602278 
L 396.052496 212.981294 
L 399.656595 223.35579 
L 403.260694 228.653069 
L 406.864793 236.546619 
L 410.468893 227.476362 
L 421.28119 241.985261 
L 424.885289 248.588168 
L 428.489388 232.376203 
L 432.093488 223.465283 
L 435.697587 233.987229 
L 446.509884 224.29245 
L 450.113983 241.942624 
L 453.718083 241.539931 
L 457.322182 228.487427 
L 460.926281 225.178938 
L 471.738579 214.847829 
L 475.342678 229.072209 
L 478.946777 211.840083 
L 482.550876 221.064013 
L 486.154975 214.183176 
L 496.967273 221.198669 
L 500.571372 235.77754 
L 504.175471 232.500716 
L 507.77957 225.12515 
L 511.383669 209.573026 
L 522.195967 208.631139 
L 525.800066 204.799797 
L 529.404165 206.744066 
L 533.008264 204.22498 
L 536.612364 203.463476 
L 547.424661 210.22388 
L 551.02876 215.337042 
L 554.63286 213.306517 
L 558.236959 206.227392 
L 561.841058 209.935486 
L 572.653355 203.16409 
L 576.257455 202.479474 
L 579.861554 212.445915 
L 583.465653 199.084058 
L 587.069752 217.782171 
L 597.88205 233.773284 
L 601.486149 218.536525 
L 605.090248 232.617289 
L 608.694347 233.198216 
L 612.298446 224.284911 
L 623.110744 226.10369 
L 626.714843 240.278419 
L 630.318942 249.179015 
L 633.923041 262.894471 
L 637.52714 269.607521 
L 648.339438 266.827393 
L 651.943537 254.039276 
L 655.547636 246.792618 
L 659.151736 241.590781 
L 662.755835 243.570909 
L 673.568132 246.599745 
L 677.172231 256.814875 
L 680.776331 263.677255 
L 684.38043 253.574378 
L 687.984529 242.323348 
L 698.796826 235.511074 
L 702.400926 228.918648 
L 706.005025 240.980692 
L 709.609124 232.61551 
L 713.213223 223.370805 
L 724.025521 218.639405 
L 727.62962 208.32466 
L 731.233719 201.867316 
L 734.837818 187.723765 
L 738.441917 188.880723 
L 749.254215 197.315017 
L 752.858314 187.143115 
L 756.462413 183.913731 
L 760.066512 180.27714 
L 763.670612 188.816763 
L 774.482909 193.712252 
L 778.087008 203.004486 
L 781.691107 192.760474 
L 785.295207 194.89347 
L 788.899306 182.207779 
L 799.711603 175.140094 
L 803.315702 163.552484 
L 806.919802 145.144314 
L 810.523901 161.493888 
L 814.128 161.14386 
L 824.940298 166.690139 
L 828.544397 187.416496 
L 832.148496 189.169241 
L 835.752595 178.554861 
L 839.356694 169.981828 
L 850.168992 184.49276 
L 853.773091 194.119082 
L 857.37719 194.9587 
L 860.981289 190.18878 
L 864.585388 203.322192 
L 875.397686 202.229629 
L 879.001785 206.342454 
L 882.605884 220.905098 
L 886.209983 227.392939 
L 889.814083 236.71848 
L 900.62638 248.77183 
L 904.230479 243.156674 
L 907.834579 248.99298 
L 911.438678 233.42092 
L 915.042777 235.993138 
L 925.855074 229.561695 
L 929.459174 232.199579 
L 933.063273 245.324176 
L 936.667372 263.211004 
L 940.271471 257.876203 
L 951.083769 247.293253 
L 954.687868 242.901164 
L 958.291967 249.52376 
L 961.896066 254.23619 
L 965.500165 248.111935 
L 976.312463 259.473778 
L 979.916562 260.317917 
L 983.520661 264.917763 
L 987.12476 261.488828 
L 990.72886 264.14433 
L 1001.541157 254.496183 
L 1005.145256 242.49232 
L 1008.749355 245.595884 
L 1012.353455 258.859814 
L 1015.957554 252.771916 
L 1026.769851 261.638046 
L 1030.37395 268.229042 
L 1033.97805 253.131521 
L 1041.186248 233.531788 
L 1051.998545 235.23567 
L 1055.602645 255.401015 
L 1059.206744 241.504598 
L 1062.810843 238.559595 
L 1066.414942 229.870408 
L 1077.22724 222.133375 
L 1080.831339 213.63278 
L 1084.435438 213.588579 
L 1088.039537 210.942707 
L 1091.643636 210.942707 
L 1091.643636 210.942707 
" style="fill:none;stroke:#1f77b4;stroke-linecap:square;stroke-width:1.5;"/>
   </g>
   <g id="line2d_19">
    <path clip-path="url(#p5192fce335)" d="M 100.516364 164.094864 
L 104.120463 158.65355 
L 107.724562 155.295366 
L 118.53686 161.499975 
L 122.140959 158.801147 
L 125.745058 160.471516 
L 129.349157 155.192855 
L 132.953256 154.116967 
L 143.765554 150.43786 
L 147.369653 153.638707 
L 150.973752 152.600599 
L 154.577851 162.026774 
L 158.18195 160.850899 
L 168.994248 156.164938 
L 172.598347 153.138645 
L 176.202446 152.929591 
L 179.806545 150.223927 
L 183.410645 142.394781 
L 194.222942 148.941274 
L 197.827041 152.056241 
L 201.43114 147.461795 
L 205.03524 154.967912 
L 208.639339 148.304321 
L 219.451636 148.954848 
L 223.055736 155.592927 
L 226.659835 149.358028 
L 230.263934 151.965986 
L 233.868033 150.835739 
L 244.680331 150.404069 
L 248.28443 145.021515 
L 251.888529 142.318026 
L 255.492628 149.344761 
L 259.096727 151.815257 
L 269.909025 156.724901 
L 273.513124 157.343232 
L 277.117223 161.352412 
L 280.721322 160.177159 
L 284.325421 155.977201 
L 295.137719 156.937488 
L 298.741818 152.672572 
L 302.345917 149.675133 
L 305.950017 149.931063 
L 309.554116 148.081897 
L 320.366413 146.665509 
L 323.970512 148.410872 
L 327.574612 140.18787 
L 334.78281 150.946518 
L 345.595107 150.236734 
L 349.199207 152.61046 
L 352.803306 157.592697 
L 356.407405 161.894451 
L 360.011504 156.012406 
L 370.823802 153.836926 
L 374.427901 154.22803 
L 378.032 147.79534 
L 381.636099 147.579729 
L 385.240198 148.847522 
L 396.052496 148.447957 
L 399.656595 153.369186 
L 403.260694 153.721737 
L 406.864793 149.77643 
L 410.468893 151.666084 
L 421.28119 154.935565 
L 424.885289 150.443292 
L 428.489388 145.380434 
L 432.093488 140.899799 
L 435.697587 136.140522 
L 446.509884 141.828917 
L 450.113983 150.123696 
L 453.718083 149.601589 
L 457.322182 140.77473 
L 460.926281 139.649449 
L 471.738579 128.547132 
L 475.342678 133.930119 
L 478.946777 135.584205 
L 482.550876 136.92614 
L 486.154975 127.784325 
L 496.967273 127.366586 
L 500.571372 126.729233 
L 504.175471 126.965461 
L 507.77957 124.465899 
L 511.383669 123.508383 
L 522.195967 121.328939 
L 525.800066 119.272627 
L 529.404165 124.056359 
L 533.008264 119.400194 
L 536.612364 116.611582 
L 547.424661 115.957183 
L 551.02876 121.59685 
L 554.63286 123.021227 
L 558.236959 119.285349 
L 561.841058 123.227896 
L 572.653355 117.567934 
L 576.257455 116.245539 
L 579.861554 123.074722 
L 583.465653 115.730144 
L 587.069752 113.126908 
L 597.88205 118.502765 
L 601.486149 116.255118 
L 605.090248 124.57598 
L 608.694347 125.511306 
L 612.298446 120.801691 
L 623.110744 124.2109 
L 626.714843 124.229608 
L 630.318942 123.6195 
L 633.923041 124.942649 
L 637.52714 122.898685 
L 648.339438 119.726953 
L 651.943537 116.185808 
L 655.547636 115.193476 
L 659.151736 122.044018 
L 662.755835 121.685349 
L 673.568132 124.936465 
L 677.172231 127.063545 
L 680.776331 133.494319 
L 687.984529 130.365105 
L 698.796826 125.048097 
L 702.400926 125.568304 
L 706.005025 121.028904 
L 709.609124 116.023413 
L 713.213223 112.868427 
L 724.025521 109.703841 
L 727.62962 112.927462 
L 731.233719 114.978973 
L 734.837818 113.5768 
L 738.441917 112.852058 
L 749.254215 114.046722 
L 752.858314 114.058014 
L 756.462413 112.437743 
L 760.066512 110.128283 
L 763.670612 109.441693 
L 774.482909 111.010504 
L 778.087008 109.875738 
L 781.691107 110.117478 
L 785.295207 109.763034 
L 788.899306 109.100786 
L 799.711603 108.305542 
L 803.315702 105.319165 
L 806.919802 100.54582 
L 810.523901 103.044967 
L 814.128 103.683045 
L 824.940298 99.920178 
L 828.544397 101.652406 
L 832.148496 102.640498 
L 835.752595 97.63499 
L 839.356694 93.520384 
L 850.168992 100.542442 
L 853.773091 104.017553 
L 857.37719 105.365115 
L 860.981289 100.742905 
L 864.585388 103.116367 
L 875.397686 105.488986 
L 879.001785 105.062004 
L 882.605884 107.028433 
L 886.209983 105.212806 
L 889.814083 111.091672 
L 900.62638 108.096088 
L 904.230479 109.280021 
L 907.834579 107.960255 
L 911.438678 104.682413 
L 915.042777 104.066867 
L 925.855074 94.284535 
L 929.459174 87.892185 
L 933.063273 91.288312 
L 936.667372 93.542942 
L 940.271471 87.218179 
L 951.083769 84.584862 
L 954.687868 78.423208 
L 961.896066 86.501165 
L 965.500165 85.172581 
L 976.312463 83.417182 
L 979.916562 83.683167 
L 983.520661 89.936252 
L 987.12476 90.562532 
L 990.72886 89.564084 
L 1001.541157 87.273769 
L 1005.145256 79.740093 
L 1008.749355 86.068558 
L 1012.353455 87.909111 
L 1015.957554 80.859327 
L 1026.769851 84.160503 
L 1030.37395 82.095545 
L 1033.97805 78.832687 
L 1037.582149 82.354281 
L 1041.186248 77.346701 
L 1051.998545 72.728275 
L 1055.602645 73.802818 
L 1059.206744 75.643052 
L 1062.810843 74.453026 
L 1066.414942 76.901939 
L 1077.22724 76.156019 
L 1080.831339 70.353892 
L 1084.435438 65.207658 
L 1088.039537 64.875399 
L 1088.039537 64.875399 
" style="fill:none;stroke:#8c564b;stroke-linecap:square;stroke-width:1.5;"/>
   </g>
   <g id="line2d_20">
    <path clip-path="url(#p5192fce335)" d="M 100.516364 172.667009 
L 104.120463 180.332295 
L 107.724562 184.064254 
L 118.53686 182.163156 
L 122.140959 171.683511 
L 125.745058 179.758263 
L 129.349157 183.700975 
L 132.953256 188.594666 
L 143.765554 196.084727 
L 147.369653 209.956663 
L 150.973752 205.792465 
L 154.577851 205.750211 
L 158.18195 203.113603 
L 168.994248 214.725114 
L 172.598347 203.665823 
L 176.202446 212.618806 
L 179.806545 209.122087 
L 183.410645 201.454622 
L 194.222942 198.559014 
L 197.827041 194.787325 
L 201.43114 197.114848 
L 205.03524 187.064361 
L 208.639339 185.427543 
L 219.451636 178.649837 
L 223.055736 188.994388 
L 226.659835 187.695456 
L 230.263934 195.627002 
L 233.868033 197.196248 
L 244.680331 189.884781 
L 248.28443 182.842435 
L 251.888529 175.460074 
L 255.492628 181.656913 
L 259.096727 191.3688 
L 269.909025 206.030881 
L 273.513124 204.006666 
L 277.117223 203.115469 
L 280.721322 214.031056 
L 284.325421 218.040764 
L 295.137719 213.875852 
L 298.741818 213.704066 
L 302.345917 209.278862 
L 305.950017 202.094534 
L 309.554116 201.556032 
L 320.366413 211.263018 
L 323.970512 210.226684 
L 327.574612 217.474638 
L 331.178711 212.471048 
L 334.78281 213.919525 
L 345.595107 227.61422 
L 349.199207 228.644484 
L 352.803306 233.543204 
L 356.407405 235.792228 
L 360.011504 227.815852 
L 370.823802 225.741473 
L 374.427901 219.831201 
L 378.032 228.493955 
L 381.636099 233.161479 
L 385.240198 229.230053 
L 396.052496 234.463257 
L 399.656595 222.301483 
L 403.260694 235.117278 
L 406.864793 226.936297 
L 410.468893 235.112812 
L 421.28119 228.350224 
L 424.885289 215.353959 
L 428.489388 221.522313 
L 432.093488 215.184365 
L 435.697587 221.564915 
L 446.509884 225.380329 
L 450.113983 219.695312 
L 453.718083 208.942718 
L 457.322182 208.284181 
L 460.926281 196.351938 
L 471.738579 195.557675 
L 475.342678 189.153307 
L 478.946777 196.747408 
L 482.550876 201.842558 
L 486.154975 194.779012 
L 496.967273 194.458958 
L 500.571372 193.502468 
L 504.175471 192.145287 
L 507.77957 189.737309 
L 511.383669 183.403613 
L 522.195967 183.465076 
L 525.800066 200.838299 
L 529.404165 209.578856 
L 533.008264 215.313694 
L 536.612364 228.430355 
L 547.424661 219.318733 
L 551.02876 219.633975 
L 554.63286 230.876359 
L 558.236959 227.001194 
L 561.841058 236.950504 
L 572.653355 233.261879 
L 576.257455 229.851978 
L 579.861554 233.663738 
L 583.465653 238.016981 
L 587.069752 229.046077 
L 597.88205 233.150635 
L 601.486149 250.593563 
L 605.090248 247.722619 
L 608.694347 234.844449 
L 612.298446 231.448258 
L 623.110744 235.648399 
L 626.714843 238.2043 
L 630.318942 237.757365 
L 633.923041 227.147519 
L 637.52714 220.433792 
L 648.339438 234.925541 
L 651.943537 251.162695 
L 655.547636 258.841398 
L 659.151736 256.061028 
L 662.755835 253.657532 
L 673.568132 263.104779 
L 677.172231 253.514784 
L 680.776331 248.138421 
L 684.38043 249.410205 
L 687.984529 238.194447 
L 698.796826 228.050994 
L 702.400926 229.048223 
L 706.005025 237.292133 
L 709.609124 237.73096 
L 713.213223 249.699294 
L 724.025521 249.445352 
L 727.62962 256.096782 
L 731.233719 264.363554 
L 734.837818 276.673432 
L 738.441917 273.493299 
L 749.254215 263.001613 
L 752.858314 253.95161 
L 756.462413 272.113922 
L 760.066512 271.850621 
L 763.670612 264.784133 
L 774.482909 264.887967 
L 778.087008 260.388398 
L 781.691107 267.33638 
L 785.295207 273.569012 
L 788.899306 277.569638 
L 799.711603 285.09386 
L 803.315702 288.449533 
L 806.919802 288.871294 
L 810.523901 277.795094 
L 814.128 266.070168 
L 824.940298 266.414348 
L 828.544397 267.474609 
L 832.148496 263.567714 
L 835.752595 254.4245 
L 839.356694 253.741253 
L 850.168992 249.835273 
L 853.773091 252.249604 
L 857.37719 243.570293 
L 860.981289 241.571825 
L 864.585388 226.338681 
L 875.397686 222.932638 
L 879.001785 217.500186 
L 882.605884 201.773613 
L 886.209983 209.836352 
L 889.814083 197.0993 
L 900.62638 201.186282 
L 904.230479 199.882605 
L 907.834579 190.647787 
L 911.438678 195.816135 
L 915.042777 185.886576 
L 925.855074 180.03821 
L 929.459174 183.847588 
L 933.063273 192.057312 
L 936.667372 191.564596 
L 940.271471 195.450877 
L 951.083769 180.906238 
L 954.687868 186.999134 
L 958.291967 173.212676 
L 961.896066 178.368661 
L 965.500165 179.810235 
L 976.312463 178.245084 
L 979.916562 179.133203 
L 983.520661 182.656166 
L 987.12476 177.015053 
L 990.72886 177.378712 
L 1001.541157 169.848651 
L 1005.145256 180.194145 
L 1008.749355 169.924195 
L 1012.353455 167.864661 
L 1015.957554 163.506792 
L 1026.769851 176.581389 
L 1030.37395 169.052524 
L 1033.97805 164.763655 
L 1037.582149 182.461487 
L 1041.186248 187.775967 
L 1051.998545 187.29226 
L 1055.602645 171.762106 
L 1059.206744 168.663125 
L 1062.810843 157.251833 
L 1066.414942 170.051801 
L 1077.22724 165.769228 
L 1080.831339 155.39495 
L 1084.435438 146.177028 
L 1088.039537 139.698156 
L 1088.039537 139.698156 
" style="fill:none;stroke:#e377c2;stroke-linecap:square;stroke-width:1.5;"/>
   </g>
   <g id="line2d_21">
    <path clip-path="url(#p5192fce335)" d="M 100.516364 155.464266 
L 104.120463 157.49271 
L 107.724562 161.418707 
L 118.53686 157.381936 
L 122.140959 165.081566 
L 125.745058 159.148985 
L 129.349157 151.37816 
L 132.953256 140.610889 
L 143.765554 143.527709 
L 147.369653 136.688918 
L 150.973752 147.364075 
L 154.577851 149.912585 
L 158.18195 138.622269 
L 168.994248 153.285627 
L 172.598347 151.745009 
L 176.202446 157.800867 
L 179.806545 143.385207 
L 183.410645 137.777192 
L 194.222942 131.711337 
L 197.827041 147.140905 
L 201.43114 144.301191 
L 205.03524 136.556619 
L 208.639339 133.695337 
L 219.451636 118.024324 
L 223.055736 132.120464 
L 226.659835 134.811401 
L 230.263934 131.549334 
L 233.868033 129.8192 
L 244.680331 130.204482 
L 248.28443 118.259713 
L 251.888529 129.202049 
L 255.492628 139.503505 
L 259.096727 143.802928 
L 269.909025 146.552944 
L 273.513124 138.794649 
L 277.117223 145.535284 
L 280.721322 145.80731 
L 284.325421 139.379604 
L 295.137719 128.180163 
L 298.741818 115.331257 
L 302.345917 120.171327 
L 305.950017 111.227617 
L 309.554116 95.176103 
L 320.366413 104.288104 
L 323.970512 113.997759 
L 327.574612 119.91193 
L 331.178711 126.44115 
L 334.78281 117.593561 
L 345.595107 114.934964 
L 349.199207 111.765298 
L 352.803306 121.683222 
L 356.407405 116.023725 
L 360.011504 105.49072 
L 370.823802 104.647056 
L 374.427901 113.817281 
L 378.032 114.279051 
L 381.636099 117.601556 
L 385.240198 113.81306 
L 396.052496 118.129055 
L 399.656595 112.934608 
L 403.260694 108.11126 
L 406.864793 96.69617 
L 410.468893 108.151562 
L 421.28119 97.641757 
L 424.885289 86.880314 
L 428.489388 98.947207 
L 432.093488 103.571005 
L 435.697587 89.009071 
L 446.509884 105.145089 
L 450.113983 96.526345 
L 453.718083 96.406703 
L 457.322182 100.905318 
L 460.926281 103.123263 
L 471.738579 102.31337 
L 475.342678 94.03801 
L 478.946777 114.614978 
L 482.550876 107.064637 
L 486.154975 104.729012 
L 496.967273 97.535111 
L 500.571372 83.302624 
L 504.175471 86.871212 
L 507.77957 91.923033 
L 511.383669 107.678549 
L 522.195967 106.435463 
L 525.800066 108.243208 
L 529.404165 111.056413 
L 536.612364 106.859347 
L 547.424661 99.674743 
L 551.02876 100.18861 
L 558.236959 107.13568 
L 561.841058 107.366041 
L 572.653355 108.513874 
L 576.257455 107.874023 
L 579.861554 104.880692 
L 583.465653 111.29801 
L 587.069752 91.724283 
L 597.88205 81.867048 
L 601.486149 95.863388 
L 605.090248 90.47113 
L 608.694347 90.824553 
L 612.298446 95.211804 
L 623.110744 96.788512 
L 626.714843 83.525185 
L 630.318942 74.399503 
L 633.923041 62.767065 
L 637.52714 54.279218 
L 648.339438 53.882417 
L 651.943537 63.721757 
L 655.547636 70.198345 
L 659.151736 82.561012 
L 662.755835 80.243973 
L 673.568132 80.46308 
L 677.172231 72.750904 
L 680.776331 72.333116 
L 684.38043 81.309842 
L 687.984529 91.53064 
L 698.796826 93.075224 
L 702.400926 100.417918 
L 706.005025 84.706649 
L 709.609124 88.203553 
L 713.213223 94.570601 
L 724.025521 96.173134 
L 727.62962 110.414273 
L 731.233719 119.193548 
L 734.837818 132.848904 
L 738.441917 130.977464 
L 749.254215 124.017289 
L 752.858314 134.717191 
L 756.462413 136.351255 
L 760.066512 137.701567 
L 763.670612 128.834234 
L 774.482909 125.583376 
L 778.087008 115.595767 
L 781.691107 126.617856 
L 785.295207 124.155327 
L 788.899306 136.94806 
L 799.711603 143.437813 
L 803.315702 152.536007 
L 806.919802 167.460838 
L 810.523901 154.613703 
L 814.128 155.603456 
L 824.940298 146.531041 
L 828.544397 129.245545 
L 832.148496 128.487216 
L 835.752595 134.389998 
L 839.356694 139.03564 
L 850.168992 132.037013 
L 853.773091 126.156731 
L 857.37719 126.662652 
L 860.981289 126.813746 
L 864.585388 116.688683 
L 875.397686 120.172031 
L 879.001785 115.719065 
L 882.605884 103.941024 
L 886.209983 95.884602 
L 889.814083 92.585996 
L 900.62638 78.346212 
L 904.230479 85.332022 
L 907.834579 78.368266 
L 911.438678 91.635892 
L 915.042777 88.486522 
L 925.855074 85.032613 
L 933.063273 66.958885 
L 936.667372 52.556579 
L 940.271471 51.54129 
L 951.083769 59.908676 
L 954.687868 58.101995 
L 958.291967 55.54802 
L 961.896066 54.939711 
L 965.500165 59.8785 
L 976.312463 47.429966 
L 979.916562 46.85412 
L 983.520661 48.471519 
L 987.12476 52.593927 
L 990.72886 48.985353 
L 1001.541157 56.694346 
L 1005.145256 61.429583 
L 1008.749355 64.60697 
L 1012.353455 53.863126 
L 1015.957554 52.873106 
L 1026.769851 47.534598 
L 1030.37395 39.14 
L 1033.97805 51.880951 
L 1037.582149 65.926068 
L 1041.186248 70.884248 
L 1051.998545 64.612114 
L 1055.602645 47.193826 
L 1059.206744 64.047469 
L 1062.810843 65.827255 
L 1066.414942 77.447489 
L 1077.22724 84.704663 
L 1080.831339 87.514977 
L 1084.435438 82.411885 
L 1088.039537 84.7549 
L 1088.039537 84.7549 
" style="fill:none;stroke:#7f7f7f;stroke-linecap:square;stroke-width:1.5;"/>
   </g>
   <g id="line2d_22">
    <path clip-path="url(#p5192fce335)" d="M 100.516364 162.569468 
L 104.120463 172.338732 
L 107.724562 180.06752 
L 118.53686 174.16557 
L 122.140959 171.005374 
L 125.745058 172.919117 
L 129.349157 168.946938 
L 132.953256 162.826836 
L 143.765554 173.340038 
L 147.369653 179.915722 
L 150.973752 186.212485 
L 154.577851 188.718227 
L 158.18195 174.928062 
L 168.994248 202.065109 
L 172.598347 189.543711 
L 176.202446 204.81942 
L 179.806545 187.13651 
L 183.410645 174.058901 
L 194.222942 165.17907 
L 197.827041 176.553105 
L 201.43114 176.009584 
L 205.03524 158.569043 
L 208.639339 154.092937 
L 219.451636 132.122867 
L 223.055736 157.29849 
L 226.659835 158.673851 
L 230.263934 163.219185 
L 233.868033 163.045416 
L 244.680331 156.106078 
L 248.28443 137.501049 
L 251.888529 140.674648 
L 255.492628 157.488312 
L 259.096727 171.704632 
L 269.909025 189.316319 
L 273.513124 179.606654 
L 277.117223 185.427182 
L 280.721322 196.629269 
L 284.325421 194.08967 
L 295.137719 178.93892 
L 298.741818 165.928388 
L 302.345917 166.241515 
L 305.950017 150.407242 
L 309.554116 133.856682 
L 320.366413 153.115193 
L 323.970512 161.739762 
L 327.574612 175.111921 
L 331.178711 176.481974 
L 334.78281 169.023097 
L 345.595107 179.881842 
L 349.199207 177.727019 
L 352.803306 192.782683 
L 356.407405 189.31229 
L 360.011504 171.184949 
L 370.823802 168.275155 
L 374.427901 171.275994 
L 378.032 180.419922 
L 381.636099 188.484982 
L 385.240198 180.834483 
L 396.052496 190.493377 
L 399.656595 173.425147 
L 403.260694 181.118738 
L 406.864793 161.946278 
L 410.468893 182.044561 
L 421.28119 165.096259 
L 424.885289 141.967086 
L 428.489388 160.571632 
L 432.093488 158.718988 
L 435.697587 150.105425 
L 446.509884 170.363541 
L 450.113983 156.284722 
L 453.718083 145.418437 
L 457.322182 149.244327 
L 460.926281 139.407297 
L 471.738579 137.806183 
L 475.342678 123.369557 
L 478.946777 152.33545 
L 482.550876 149.69879 
L 486.154975 140.376214 
L 496.967273 132.872995 
L 500.571372 117.746366 
L 504.175471 119.934665 
L 507.77957 122.520412 
L 511.383669 131.458303 
L 522.195967 130.276318 
L 525.800066 149.613397 
L 529.404165 161.287156 
L 533.008264 164.799979 
L 536.612364 175.752215 
L 547.424661 159.755167 
L 551.02876 160.585045 
L 554.63286 175.50896 
L 558.236959 175.028687 
L 561.841058 185.219503 
L 572.653355 182.658738 
L 576.257455 178.619243 
L 579.861554 179.383417 
L 583.465653 190.290058 
L 587.069752 162.526058 
L 597.88205 156.584013 
L 601.486149 189.276118 
L 605.090248 181.084984 
L 608.694347 168.539263 
L 612.298446 169.459446 
L 623.110744 175.268165 
L 626.714843 164.403905 
L 630.318942 154.850215 
L 633.923041 133.164466 
L 637.52714 118.223972 
L 648.339438 132.290695 
L 651.943537 159.175717 
L 655.547636 173.575282 
L 659.151736 182.990721 
L 662.755835 178.296326 
L 673.568132 187.972735 
L 677.172231 171.007799 
L 680.776331 165.224165 
L 684.38043 175.528208 
L 687.984529 173.991015 
L 698.796826 165.31929 
L 702.400926 173.694667 
L 706.005025 165.624031 
L 709.609124 169.567113 
L 713.213223 188.280674 
L 724.025521 189.627328 
L 727.62962 210.992987 
L 731.233719 228.398084 
L 734.837818 255.213859 
L 738.441917 250.1902 
L 749.254215 233.071189 
L 752.858314 234.260092 
L 756.462413 254.204208 
L 760.066512 255.289526 
L 763.670612 239.642311 
L 774.482909 236.493697 
L 778.087008 222.212737 
L 781.691107 240.562531 
L 785.295207 244.25914 
L 788.899306 261.305485 
L 799.711603 275.559225 
L 803.315702 288.162415 
L 806.919802 303.54 
L 810.523901 280.255928 
L 814.128 269.467059 
L 824.940298 260.724307 
L 828.544397 244.415364 
L 832.148496 239.764048 
L 835.752595 236.269538 
L 839.356694 240.216726 
L 853.773091 225.905824 
L 857.37719 217.711992 
L 860.981289 215.863191 
L 864.585388 191.195641 
L 875.397686 191.216629 
L 879.001785 181.443401 
L 882.605884 154.764312 
L 886.209983 154.462501 
L 889.814083 138.618933 
L 900.62638 128.196596 
L 904.230479 133.834918 
L 907.834579 117.930311 
L 911.438678 136.706646 
L 915.042777 123.771674 
L 925.855074 114.563206 
L 929.459174 109.293068 
L 933.063273 107.993654 
L 936.667372 93.131152 
L 940.271471 95.983289 
L 951.083769 89.237422 
L 954.687868 93.470859 
L 958.291967 77.291282 
L 961.896066 81.823911 
L 965.500165 88.238585 
L 976.312463 74.314385 
L 979.916562 74.624229 
L 983.520661 79.79197 
L 987.12476 78.163308 
L 990.72886 74.912213 
L 1001.541157 74.815654 
L 1005.145256 90.137542 
L 1008.749355 82.892721 
L 1012.353455 70.19126 
L 1015.957554 64.863592 
L 1026.769851 72.262458 
L 1030.37395 56.628083 
L 1033.97805 64.815668 
L 1037.582149 97.835197 
L 1041.186248 108.236056 
L 1051.998545 101.494387 
L 1055.602645 69.737282 
L 1059.206744 83.235906 
L 1062.810843 73.510189 
L 1066.414942 98.680026 
L 1077.22724 101.50611 
L 1080.831339 93.806256 
L 1084.435438 79.701184 
L 1088.039537 75.493989 
L 1091.643636 75.493989 
L 1091.643636 75.493989 
" style="fill:none;stroke:#bcbd22;stroke-linecap:square;stroke-width:1.5;"/>
   </g>
   <g id="patch_3">
    <path d="M 50.96 316.76 
L 50.96 25.92 
" style="fill:none;stroke:#000000;stroke-linecap:square;stroke-linejoin:miter;stroke-width:0.8;"/>
   </g>
   <g id="patch_4">
    <path d="M 1141.2 316.76 
L 1141.2 25.92 
" style="fill:none;stroke:#000000;stroke-linecap:square;stroke-linejoin:miter;stroke-width:0.8;"/>
   </g>
   <g id="patch_5">
    <path d="M 50.96 316.76 
L 1141.2 316.76 
" style="fill:none;stroke:#000000;stroke-linecap:square;stroke-linejoin:miter;stroke-width:0.8;"/>
   </g>
   <g id="patch_6">
    <path d="M 50.96 25.92 
L 1141.2 25.92 
" style="fill:none;stroke:#000000;stroke-linecap:square;stroke-linejoin:miter;stroke-width:0.8;"/>
   </g>
   <g id="text_10">
    <!-- Cumulative Log Return: (2010-01-06 ~ 2010-10-08) -->
    <g transform="translate(440.202813 19.92)scale(0.12 -0.12)">
     <defs>
      <path d="M 64.40625 67.28125 
L 64.40625 56.890625 
Q 59.421875 61.53125 53.78125 63.8125 
Q 48.140625 66.109375 41.796875 66.109375 
Q 29.296875 66.109375 22.65625 58.46875 
Q 16.015625 50.828125 16.015625 36.375 
Q 16.015625 21.96875 22.65625 14.328125 
Q 29.296875 6.6875 41.796875 6.6875 
Q 48.140625 6.6875 53.78125 8.984375 
Q 59.421875 11.28125 64.40625 15.921875 
L 64.40625 5.609375 
Q 59.234375 2.09375 53.4375 0.328125 
Q 47.65625 -1.421875 41.21875 -1.421875 
Q 24.65625 -1.421875 15.125 8.703125 
Q 5.609375 18.84375 5.609375 36.375 
Q 5.609375 53.953125 15.125 64.078125 
Q 24.65625 74.21875 41.21875 74.21875 
Q 47.75 74.21875 53.53125 72.484375 
Q 59.328125 70.75 64.40625 67.28125 
z
" id="DejaVuSans-67"/>
      <path d="M 34.28125 27.484375 
Q 23.390625 27.484375 19.1875 25 
Q 14.984375 22.515625 14.984375 16.5 
Q 14.984375 11.71875 18.140625 8.90625 
Q 21.296875 6.109375 26.703125 6.109375 
Q 34.1875 6.109375 38.703125 11.40625 
Q 43.21875 16.703125 43.21875 25.484375 
L 43.21875 27.484375 
z
M 52.203125 31.203125 
L 52.203125 0 
L 43.21875 0 
L 43.21875 8.296875 
Q 40.140625 3.328125 35.546875 0.953125 
Q 30.953125 -1.421875 24.3125 -1.421875 
Q 15.921875 -1.421875 10.953125 3.296875 
Q 6 8.015625 6 15.921875 
Q 6 25.140625 12.171875 29.828125 
Q 18.359375 34.515625 30.609375 34.515625 
L 43.21875 34.515625 
L 43.21875 35.40625 
Q 43.21875 41.609375 39.140625 45 
Q 35.0625 48.390625 27.6875 48.390625 
Q 23 48.390625 18.546875 47.265625 
Q 14.109375 46.140625 10.015625 43.890625 
L 10.015625 52.203125 
Q 14.9375 54.109375 19.578125 55.046875 
Q 24.21875 56 28.609375 56 
Q 40.484375 56 46.34375 49.84375 
Q 52.203125 43.703125 52.203125 31.203125 
z
" id="DejaVuSans-97"/>
      <path d="M 9.421875 54.6875 
L 18.40625 54.6875 
L 18.40625 0 
L 9.421875 0 
z
M 9.421875 75.984375 
L 18.40625 75.984375 
L 18.40625 64.59375 
L 9.421875 64.59375 
z
" id="DejaVuSans-105"/>
      <path d="M 2.984375 54.6875 
L 12.5 54.6875 
L 29.59375 8.796875 
L 46.6875 54.6875 
L 56.203125 54.6875 
L 35.6875 0 
L 23.484375 0 
z
" id="DejaVuSans-118"/>
      <path d="M 9.8125 72.90625 
L 19.671875 72.90625 
L 19.671875 8.296875 
L 55.171875 8.296875 
L 55.171875 0 
L 9.8125 0 
z
" id="DejaVuSans-76"/>
      <path d="M 44.390625 34.1875 
Q 47.5625 33.109375 50.5625 29.59375 
Q 53.5625 26.078125 56.59375 19.921875 
L 66.609375 0 
L 56 0 
L 46.6875 18.703125 
Q 43.0625 26.03125 39.671875 28.421875 
Q 36.28125 30.8125 30.421875 30.8125 
L 19.671875 30.8125 
L 19.671875 0 
L 9.8125 0 
L 9.8125 72.90625 
L 32.078125 72.90625 
Q 44.578125 72.90625 50.734375 67.671875 
Q 56.890625 62.453125 56.890625 51.90625 
Q 56.890625 45.015625 53.6875 40.46875 
Q 50.484375 35.9375 44.390625 34.1875 
z
M 19.671875 64.796875 
L 19.671875 38.921875 
L 32.078125 38.921875 
Q 39.203125 38.921875 42.84375 42.21875 
Q 46.484375 45.515625 46.484375 51.90625 
Q 46.484375 58.296875 42.84375 61.546875 
Q 39.203125 64.796875 32.078125 64.796875 
z
" id="DejaVuSans-82"/>
      <path d="M 11.71875 12.40625 
L 22.015625 12.40625 
L 22.015625 0 
L 11.71875 0 
z
M 11.71875 51.703125 
L 22.015625 51.703125 
L 22.015625 39.3125 
L 11.71875 39.3125 
z
" id="DejaVuSans-58"/>
      <path d="M 31 75.875 
Q 24.46875 64.65625 21.28125 53.65625 
Q 18.109375 42.671875 18.109375 31.390625 
Q 18.109375 20.125 21.3125 9.0625 
Q 24.515625 -2 31 -13.1875 
L 23.1875 -13.1875 
Q 15.875 -1.703125 12.234375 9.375 
Q 8.59375 20.453125 8.59375 31.390625 
Q 8.59375 42.28125 12.203125 53.3125 
Q 15.828125 64.359375 23.1875 75.875 
z
" id="DejaVuSans-40"/>
      <path d="M 73.1875 39.890625 
L 73.1875 31.203125 
Q 68.0625 27.34375 63.6875 25.6875 
Q 59.328125 24.03125 54.59375 24.03125 
Q 49.21875 24.03125 42.09375 26.90625 
Q 41.546875 27.09375 41.3125 27.203125 
Q 40.96875 27.34375 40.234375 27.59375 
Q 32.671875 30.609375 28.078125 30.609375 
Q 23.78125 30.609375 19.578125 28.734375 
Q 15.375 26.859375 10.59375 22.796875 
L 10.59375 31.5 
Q 15.71875 35.359375 20.09375 37.03125 
Q 24.46875 38.71875 29.203125 38.71875 
Q 34.578125 38.71875 41.75 35.796875 
Q 42.234375 35.59375 42.484375 35.5 
Q 42.875 35.359375 43.5625 35.109375 
Q 51.125 32.078125 55.71875 32.078125 
Q 59.90625 32.078125 64.03125 33.9375 
Q 68.171875 35.796875 73.1875 39.890625 
z
" id="DejaVuSans-126"/>
      <path d="M 31.78125 34.625 
Q 24.75 34.625 20.71875 30.859375 
Q 16.703125 27.09375 16.703125 20.515625 
Q 16.703125 13.921875 20.71875 10.15625 
Q 24.75 6.390625 31.78125 6.390625 
Q 38.8125 6.390625 42.859375 10.171875 
Q 46.921875 13.96875 46.921875 20.515625 
Q 46.921875 27.09375 42.890625 30.859375 
Q 38.875 34.625 31.78125 34.625 
z
M 21.921875 38.8125 
Q 15.578125 40.375 12.03125 44.71875 
Q 8.5 49.078125 8.5 55.328125 
Q 8.5 64.0625 14.71875 69.140625 
Q 20.953125 74.21875 31.78125 74.21875 
Q 42.671875 74.21875 48.875 69.140625 
Q 55.078125 64.0625 55.078125 55.328125 
Q 55.078125 49.078125 51.53125 44.71875 
Q 48 40.375 41.703125 38.8125 
Q 48.828125 37.15625 52.796875 32.3125 
Q 56.78125 27.484375 56.78125 20.515625 
Q 56.78125 9.90625 50.3125 4.234375 
Q 43.84375 -1.421875 31.78125 -1.421875 
Q 19.734375 -1.421875 13.25 4.234375 
Q 6.78125 9.90625 6.78125 20.515625 
Q 6.78125 27.484375 10.78125 32.3125 
Q 14.796875 37.15625 21.921875 38.8125 
z
M 18.3125 54.390625 
Q 18.3125 48.734375 21.84375 45.5625 
Q 25.390625 42.390625 31.78125 42.390625 
Q 38.140625 42.390625 41.71875 45.5625 
Q 45.3125 48.734375 45.3125 54.390625 
Q 45.3125 60.0625 41.71875 63.234375 
Q 38.140625 66.40625 31.78125 66.40625 
Q 25.390625 66.40625 21.84375 63.234375 
Q 18.3125 60.0625 18.3125 54.390625 
z
" id="DejaVuSans-56"/>
      <path d="M 8.015625 75.875 
L 15.828125 75.875 
Q 23.140625 64.359375 26.78125 53.3125 
Q 30.421875 42.28125 30.421875 31.390625 
Q 30.421875 20.453125 26.78125 9.375 
Q 23.140625 -1.703125 15.828125 -13.1875 
L 8.015625 -13.1875 
Q 14.5 -2 17.703125 9.0625 
Q 20.90625 20.125 20.90625 31.390625 
Q 20.90625 42.671875 17.703125 53.65625 
Q 14.5 64.65625 8.015625 75.875 
z
" id="DejaVuSans-41"/>
     </defs>
     <use xlink:href="#DejaVuSans-67"/>
     <use x="69.824219" xlink:href="#DejaVuSans-117"/>
     <use x="133.203125" xlink:href="#DejaVuSans-109"/>
     <use x="230.615234" xlink:href="#DejaVuSans-117"/>
     <use x="293.994141" xlink:href="#DejaVuSans-108"/>
     <use x="321.777344" xlink:href="#DejaVuSans-97"/>
     <use x="383.056641" xlink:href="#DejaVuSans-116"/>
     <use x="422.265625" xlink:href="#DejaVuSans-105"/>
     <use x="450.048828" xlink:href="#DejaVuSans-118"/>
     <use x="509.228516" xlink:href="#DejaVuSans-101"/>
     <use x="570.751953" xlink:href="#DejaVuSans-32"/>
     <use x="602.539062" xlink:href="#DejaVuSans-76"/>
     <use x="656.501953" xlink:href="#DejaVuSans-111"/>
     <use x="717.683594" xlink:href="#DejaVuSans-103"/>
     <use x="781.160156" xlink:href="#DejaVuSans-32"/>
     <use x="812.947266" xlink:href="#DejaVuSans-82"/>
     <use x="877.929688" xlink:href="#DejaVuSans-101"/>
     <use x="939.453125" xlink:href="#DejaVuSans-116"/>
     <use x="978.662109" xlink:href="#DejaVuSans-117"/>
     <use x="1042.041016" xlink:href="#DejaVuSans-114"/>
     <use x="1081.404297" xlink:href="#DejaVuSans-110"/>
     <use x="1144.783203" xlink:href="#DejaVuSans-58"/>
     <use x="1178.474609" xlink:href="#DejaVuSans-32"/>
     <use x="1210.261719" xlink:href="#DejaVuSans-40"/>
     <use x="1249.275391" xlink:href="#DejaVuSans-50"/>
     <use x="1312.898438" xlink:href="#DejaVuSans-48"/>
     <use x="1376.521484" xlink:href="#DejaVuSans-49"/>
     <use x="1440.144531" xlink:href="#DejaVuSans-48"/>
     <use x="1503.767578" xlink:href="#DejaVuSans-45"/>
     <use x="1539.851562" xlink:href="#DejaVuSans-48"/>
     <use x="1603.474609" xlink:href="#DejaVuSans-49"/>
     <use x="1667.097656" xlink:href="#DejaVuSans-45"/>
     <use x="1703.181641" xlink:href="#DejaVuSans-48"/>
     <use x="1766.804688" xlink:href="#DejaVuSans-54"/>
     <use x="1830.427734" xlink:href="#DejaVuSans-32"/>
     <use x="1862.214844" xlink:href="#DejaVuSans-126"/>
     <use x="1946.003906" xlink:href="#DejaVuSans-32"/>
     <use x="1977.791016" xlink:href="#DejaVuSans-50"/>
     <use x="2041.414062" xlink:href="#DejaVuSans-48"/>
     <use x="2105.037109" xlink:href="#DejaVuSans-49"/>
     <use x="2168.660156" xlink:href="#DejaVuSans-48"/>
     <use x="2232.283203" xlink:href="#DejaVuSans-45"/>
     <use x="2268.367188" xlink:href="#DejaVuSans-49"/>
     <use x="2331.990234" xlink:href="#DejaVuSans-48"/>
     <use x="2395.613281" xlink:href="#DejaVuSans-45"/>
     <use x="2431.697266" xlink:href="#DejaVuSans-48"/>
     <use x="2495.320312" xlink:href="#DejaVuSans-56"/>
     <use x="2558.943359" xlink:href="#DejaVuSans-41"/>
    </g>
   </g>
   <g id="legend_1">
    <g id="patch_7">
     <path d="M 57.96 123.379375 
L 154.449062 123.379375 
Q 156.449062 123.379375 156.449062 121.379375 
L 156.449062 32.92 
Q 156.449062 30.92 154.449062 30.92 
L 57.96 30.92 
Q 55.96 30.92 55.96 32.92 
L 55.96 121.379375 
Q 55.96 123.379375 57.96 123.379375 
z
" style="fill:#ffffff;opacity:0.8;stroke:#cccccc;stroke-linejoin:miter;"/>
    </g>
    <g id="line2d_23">
     <path d="M 59.96 39.018437 
L 79.96 39.018437 
" style="fill:none;stroke:#9467bd;stroke-linecap:square;stroke-width:1.5;"/>
    </g>
    <g id="line2d_24"/>
    <g id="text_11">
     <!-- group_5 -->
     <g transform="translate(87.96 42.518437)scale(0.1 -0.1)">
      <defs>
       <path d="M 18.109375 8.203125 
L 18.109375 -20.796875 
L 9.078125 -20.796875 
L 9.078125 54.6875 
L 18.109375 54.6875 
L 18.109375 46.390625 
Q 20.953125 51.265625 25.265625 53.625 
Q 29.59375 56 35.59375 56 
Q 45.5625 56 51.78125 48.09375 
Q 58.015625 40.1875 58.015625 27.296875 
Q 58.015625 14.40625 51.78125 6.484375 
Q 45.5625 -1.421875 35.59375 -1.421875 
Q 29.59375 -1.421875 25.265625 0.953125 
Q 20.953125 3.328125 18.109375 8.203125 
z
M 48.6875 27.296875 
Q 48.6875 37.203125 44.609375 42.84375 
Q 40.53125 48.484375 33.40625 48.484375 
Q 26.265625 48.484375 22.1875 42.84375 
Q 18.109375 37.203125 18.109375 27.296875 
Q 18.109375 17.390625 22.1875 11.75 
Q 26.265625 6.109375 33.40625 6.109375 
Q 40.53125 6.109375 44.609375 11.75 
Q 48.6875 17.390625 48.6875 27.296875 
z
" id="DejaVuSans-112"/>
       <path d="M 50.984375 -16.609375 
L 50.984375 -23.578125 
L -0.984375 -23.578125 
L -0.984375 -16.609375 
z
" id="DejaVuSans-95"/>
       <path d="M 10.796875 72.90625 
L 49.515625 72.90625 
L 49.515625 64.59375 
L 19.828125 64.59375 
L 19.828125 46.734375 
Q 21.96875 47.46875 24.109375 47.828125 
Q 26.265625 48.1875 28.421875 48.1875 
Q 40.625 48.1875 47.75 41.5 
Q 54.890625 34.8125 54.890625 23.390625 
Q 54.890625 11.625 47.5625 5.09375 
Q 40.234375 -1.421875 26.90625 -1.421875 
Q 22.3125 -1.421875 17.546875 -0.640625 
Q 12.796875 0.140625 7.71875 1.703125 
L 7.71875 11.625 
Q 12.109375 9.234375 16.796875 8.0625 
Q 21.484375 6.890625 26.703125 6.890625 
Q 35.15625 6.890625 40.078125 11.328125 
Q 45.015625 15.765625 45.015625 23.390625 
Q 45.015625 31 40.078125 35.4375 
Q 35.15625 39.890625 26.703125 39.890625 
Q 22.75 39.890625 18.8125 39.015625 
Q 14.890625 38.140625 10.796875 36.28125 
z
" id="DejaVuSans-53"/>
      </defs>
      <use xlink:href="#DejaVuSans-103"/>
      <use x="63.476562" xlink:href="#DejaVuSans-114"/>
      <use x="102.339844" xlink:href="#DejaVuSans-111"/>
      <use x="163.521484" xlink:href="#DejaVuSans-117"/>
      <use x="226.900391" xlink:href="#DejaVuSans-112"/>
      <use x="290.376953" xlink:href="#DejaVuSans-95"/>
      <use x="340.376953" xlink:href="#DejaVuSans-53"/>
     </g>
    </g>
    <g id="line2d_25">
     <path d="M 59.96 53.974687 
L 79.96 53.974687 
" style="fill:none;stroke:#1f77b4;stroke-linecap:square;stroke-width:1.5;"/>
    </g>
    <g id="line2d_26"/>
    <g id="text_12">
     <!-- group_1 -->
     <g transform="translate(87.96 57.474687)scale(0.1 -0.1)">
      <use xlink:href="#DejaVuSans-103"/>
      <use x="63.476562" xlink:href="#DejaVuSans-114"/>
      <use x="102.339844" xlink:href="#DejaVuSans-111"/>
      <use x="163.521484" xlink:href="#DejaVuSans-117"/>
      <use x="226.900391" xlink:href="#DejaVuSans-112"/>
      <use x="290.376953" xlink:href="#DejaVuSans-95"/>
      <use x="340.376953" xlink:href="#DejaVuSans-49"/>
     </g>
    </g>
    <g id="line2d_27">
     <path d="M 59.96 68.930937 
L 79.96 68.930937 
" style="fill:none;stroke:#8c564b;stroke-linecap:square;stroke-width:1.5;"/>
    </g>
    <g id="line2d_28"/>
    <g id="text_13">
     <!-- benchmark -->
     <g transform="translate(87.96 72.430937)scale(0.1 -0.1)">
      <defs>
       <path d="M 48.6875 27.296875 
Q 48.6875 37.203125 44.609375 42.84375 
Q 40.53125 48.484375 33.40625 48.484375 
Q 26.265625 48.484375 22.1875 42.84375 
Q 18.109375 37.203125 18.109375 27.296875 
Q 18.109375 17.390625 22.1875 11.75 
Q 26.265625 6.109375 33.40625 6.109375 
Q 40.53125 6.109375 44.609375 11.75 
Q 48.6875 17.390625 48.6875 27.296875 
z
M 18.109375 46.390625 
Q 20.953125 51.265625 25.265625 53.625 
Q 29.59375 56 35.59375 56 
Q 45.5625 56 51.78125 48.09375 
Q 58.015625 40.1875 58.015625 27.296875 
Q 58.015625 14.40625 51.78125 6.484375 
Q 45.5625 -1.421875 35.59375 -1.421875 
Q 29.59375 -1.421875 25.265625 0.953125 
Q 20.953125 3.328125 18.109375 8.203125 
L 18.109375 0 
L 9.078125 0 
L 9.078125 75.984375 
L 18.109375 75.984375 
z
" id="DejaVuSans-98"/>
       <path d="M 54.890625 33.015625 
L 54.890625 0 
L 45.90625 0 
L 45.90625 32.71875 
Q 45.90625 40.484375 42.875 44.328125 
Q 39.84375 48.1875 33.796875 48.1875 
Q 26.515625 48.1875 22.3125 43.546875 
Q 18.109375 38.921875 18.109375 30.90625 
L 18.109375 0 
L 9.078125 0 
L 9.078125 75.984375 
L 18.109375 75.984375 
L 18.109375 46.1875 
Q 21.34375 51.125 25.703125 53.5625 
Q 30.078125 56 35.796875 56 
Q 45.21875 56 50.046875 50.171875 
Q 54.890625 44.34375 54.890625 33.015625 
z
" id="DejaVuSans-104"/>
       <path d="M 9.078125 75.984375 
L 18.109375 75.984375 
L 18.109375 31.109375 
L 44.921875 54.6875 
L 56.390625 54.6875 
L 27.390625 29.109375 
L 57.625 0 
L 45.90625 0 
L 18.109375 26.703125 
L 18.109375 0 
L 9.078125 0 
z
" id="DejaVuSans-107"/>
      </defs>
      <use xlink:href="#DejaVuSans-98"/>
      <use x="63.476562" xlink:href="#DejaVuSans-101"/>
      <use x="125" xlink:href="#DejaVuSans-110"/>
      <use x="188.378906" xlink:href="#DejaVuSans-99"/>
      <use x="243.359375" xlink:href="#DejaVuSans-104"/>
      <use x="306.738281" xlink:href="#DejaVuSans-109"/>
      <use x="404.150391" xlink:href="#DejaVuSans-97"/>
      <use x="465.429688" xlink:href="#DejaVuSans-114"/>
      <use x="506.542969" xlink:href="#DejaVuSans-107"/>
     </g>
    </g>
    <g id="line2d_29">
     <path d="M 59.96 83.609062 
L 79.96 83.609062 
" style="fill:none;stroke:#e377c2;stroke-linecap:square;stroke-width:1.5;"/>
    </g>
    <g id="line2d_30"/>
    <g id="text_14">
     <!-- long_excess -->
     <g transform="translate(87.96 87.109062)scale(0.1 -0.1)">
      <defs>
       <path d="M 54.890625 54.6875 
L 35.109375 28.078125 
L 55.90625 0 
L 45.3125 0 
L 29.390625 21.484375 
L 13.484375 0 
L 2.875 0 
L 24.125 28.609375 
L 4.6875 54.6875 
L 15.28125 54.6875 
L 29.78125 35.203125 
L 44.28125 54.6875 
z
" id="DejaVuSans-120"/>
      </defs>
      <use xlink:href="#DejaVuSans-108"/>
      <use x="27.783203" xlink:href="#DejaVuSans-111"/>
      <use x="88.964844" xlink:href="#DejaVuSans-110"/>
      <use x="152.34375" xlink:href="#DejaVuSans-103"/>
      <use x="215.820312" xlink:href="#DejaVuSans-95"/>
      <use x="265.820312" xlink:href="#DejaVuSans-101"/>
      <use x="325.59375" xlink:href="#DejaVuSans-120"/>
      <use x="383.023438" xlink:href="#DejaVuSans-99"/>
      <use x="438.003906" xlink:href="#DejaVuSans-101"/>
      <use x="499.527344" xlink:href="#DejaVuSans-115"/>
      <use x="551.626953" xlink:href="#DejaVuSans-115"/>
     </g>
    </g>
    <g id="line2d_31">
     <path d="M 59.96 98.565312 
L 79.96 98.565312 
" style="fill:none;stroke:#7f7f7f;stroke-linecap:square;stroke-width:1.5;"/>
    </g>
    <g id="line2d_32"/>
    <g id="text_15">
     <!-- short_excess -->
     <g transform="translate(87.96 102.065312)scale(0.1 -0.1)">
      <use xlink:href="#DejaVuSans-115"/>
      <use x="52.099609" xlink:href="#DejaVuSans-104"/>
      <use x="115.478516" xlink:href="#DejaVuSans-111"/>
      <use x="176.660156" xlink:href="#DejaVuSans-114"/>
      <use x="217.773438" xlink:href="#DejaVuSans-116"/>
      <use x="256.982422" xlink:href="#DejaVuSans-95"/>
      <use x="306.982422" xlink:href="#DejaVuSans-101"/>
      <use x="366.755859" xlink:href="#DejaVuSans-120"/>
      <use x="424.185547" xlink:href="#DejaVuSans-99"/>
      <use x="479.166016" xlink:href="#DejaVuSans-101"/>
      <use x="540.689453" xlink:href="#DejaVuSans-115"/>
      <use x="592.789062" xlink:href="#DejaVuSans-115"/>
     </g>
    </g>
    <g id="line2d_33">
     <path d="M 59.96 113.521562 
L 79.96 113.521562 
" style="fill:none;stroke:#bcbd22;stroke-linecap:square;stroke-width:1.5;"/>
    </g>
    <g id="line2d_34"/>
    <g id="text_16">
     <!-- long_short -->
     <g transform="translate(87.96 117.021562)scale(0.1 -0.1)">
      <use xlink:href="#DejaVuSans-108"/>
      <use x="27.783203" xlink:href="#DejaVuSans-111"/>
      <use x="88.964844" xlink:href="#DejaVuSans-110"/>
      <use x="152.34375" xlink:href="#DejaVuSans-103"/>
      <use x="215.820312" xlink:href="#DejaVuSans-95"/>
      <use x="265.820312" xlink:href="#DejaVuSans-115"/>
      <use x="317.919922" xlink:href="#DejaVuSans-104"/>
      <use x="381.298828" xlink:href="#DejaVuSans-111"/>
      <use x="442.480469" xlink:href="#DejaVuSans-114"/>
      <use x="483.59375" xlink:href="#DejaVuSans-116"/>
     </g>
    </g>
   </g>
  </g>
 </g>
 <defs>
  <clipPath id="p5192fce335">
   <rect height="290.84" width="1090.24" x="50.96" y="25.92"/>
  </clipPath>
 </defs>
</svg>
