<?xml version="1.0" encoding="utf-8" standalone="no"?>
<!DOCTYPE svg PUBLIC "-//W3C//DTD SVG 1.1//EN"
  "http://www.w3.org/Graphics/SVG/1.1/DTD/svg11.dtd">
<!-- Created with matplotlib (https://matplotlib.org/) -->
<svg height="360pt" version="1.1" viewBox="0 0 1152 360" width="1152pt" xmlns="http://www.w3.org/2000/svg" xmlns:xlink="http://www.w3.org/1999/xlink">
 <metadata>
  <rdf:RDF xmlns:cc="http://creativecommons.org/ns#" xmlns:dc="http://purl.org/dc/elements/1.1/" xmlns:rdf="http://www.w3.org/1999/02/22-rdf-syntax-ns#">
   <cc:Work>
    <dc:type rdf:resource="http://purl.org/dc/dcmitype/StillImage"/>
    <dc:date>2023-10-11T16:59:47.097093</dc:date>
    <dc:format>image/svg+xml</dc:format>
    <dc:creator>
     <cc:Agent>
      <dc:title>Matplotlib v3.3.4, https://matplotlib.org/</dc:title>
     </cc:Agent>
    </dc:creator>
   </cc:Work>
  </rdf:RDF>
 </metadata>
 <defs>
  <style type="text/css">*{stroke-linecap:butt;stroke-linejoin:round;}</style>
 </defs>
 <g id="figure_1">
  <g id="patch_1">
   <path d="M 0 360 
L 1152 360 
L 1152 0 
L 0 0 
z
" style="fill:#ffffff;"/>
  </g>
  <g id="axes_1">
   <g id="patch_2">
    <path d="M 50.9 345.7 
L 1141.2 345.7 
L 1141.2 25.92 
L 50.9 25.92 
z
" style="fill:#ffffff;"/>
   </g>
   <g id="matplotlib.axis_1"/>
   <g id="matplotlib.axis_2">
    <g id="ytick_1">
     <g id="line2d_1">
      <path clip-path="url(#pe694ca118f)" d="M 50.9 296.879047 
L 1141.2 296.879047 
" style="fill:none;stroke:#b0b0b0;stroke-linecap:square;stroke-width:0.8;"/>
     </g>
     <g id="line2d_2">
      <defs>
       <path d="M 0 0 
L -3.5 0 
" id="m72b66c853c" style="stroke:#000000;stroke-width:0.8;"/>
      </defs>
      <g>
       <use style="stroke:#000000;stroke-width:0.8;" x="50.9" xlink:href="#m72b66c853c" y="296.879047"/>
      </g>
     </g>
     <g id="text_1">
      <!-- -0.4 -->
      <g transform="translate(24.389062 300.678266)scale(0.1 -0.1)">
       <defs>
        <path d="M 4.890625 31.390625 
L 31.203125 31.390625 
L 31.203125 23.390625 
L 4.890625 23.390625 
z
" id="DejaVuSans-45"/>
        <path d="M 31.78125 66.40625 
Q 24.171875 66.40625 20.328125 58.90625 
Q 16.5 51.421875 16.5 36.375 
Q 16.5 21.390625 20.328125 13.890625 
Q 24.171875 6.390625 31.78125 6.390625 
Q 39.453125 6.390625 43.28125 13.890625 
Q 47.125 21.390625 47.125 36.375 
Q 47.125 51.421875 43.28125 58.90625 
Q 39.453125 66.40625 31.78125 66.40625 
z
M 31.78125 74.21875 
Q 44.046875 74.21875 50.515625 64.515625 
Q 56.984375 54.828125 56.984375 36.375 
Q 56.984375 17.96875 50.515625 8.265625 
Q 44.046875 -1.421875 31.78125 -1.421875 
Q 19.53125 -1.421875 13.0625 8.265625 
Q 6.59375 17.96875 6.59375 36.375 
Q 6.59375 54.828125 13.0625 64.515625 
Q 19.53125 74.21875 31.78125 74.21875 
z
" id="DejaVuSans-48"/>
        <path d="M 10.6875 12.40625 
L 21 12.40625 
L 21 0 
L 10.6875 0 
z
" id="DejaVuSans-46"/>
        <path d="M 37.796875 64.3125 
L 12.890625 25.390625 
L 37.796875 25.390625 
z
M 35.203125 72.90625 
L 47.609375 72.90625 
L 47.609375 25.390625 
L 58.015625 25.390625 
L 58.015625 17.1875 
L 47.609375 17.1875 
L 47.609375 0 
L 37.796875 0 
L 37.796875 17.1875 
L 4.890625 17.1875 
L 4.890625 26.703125 
z
" id="DejaVuSans-52"/>
       </defs>
       <use xlink:href="#DejaVuSans-45"/>
       <use x="36.083984" xlink:href="#DejaVuSans-48"/>
       <use x="99.707031" xlink:href="#DejaVuSans-46"/>
       <use x="131.494141" xlink:href="#DejaVuSans-52"/>
      </g>
     </g>
    </g>
    <g id="ytick_2">
     <g id="line2d_3">
      <path clip-path="url(#pe694ca118f)" d="M 50.9 247.089096 
L 1141.2 247.089096 
" style="fill:none;stroke:#b0b0b0;stroke-linecap:square;stroke-width:0.8;"/>
     </g>
     <g id="line2d_4">
      <g>
       <use style="stroke:#000000;stroke-width:0.8;" x="50.9" xlink:href="#m72b66c853c" y="247.089096"/>
      </g>
     </g>
     <g id="text_2">
      <!-- -0.2 -->
      <g transform="translate(24.389062 250.888314)scale(0.1 -0.1)">
       <defs>
        <path d="M 19.1875 8.296875 
L 53.609375 8.296875 
L 53.609375 0 
L 7.328125 0 
L 7.328125 8.296875 
Q 12.9375 14.109375 22.625 23.890625 
Q 32.328125 33.6875 34.8125 36.53125 
Q 39.546875 41.84375 41.421875 45.53125 
Q 43.3125 49.21875 43.3125 52.78125 
Q 43.3125 58.59375 39.234375 62.25 
Q 35.15625 65.921875 28.609375 65.921875 
Q 23.96875 65.921875 18.8125 64.3125 
Q 13.671875 62.703125 7.8125 59.421875 
L 7.8125 69.390625 
Q 13.765625 71.78125 18.9375 73 
Q 24.125 74.21875 28.421875 74.21875 
Q 39.75 74.21875 46.484375 68.546875 
Q 53.21875 62.890625 53.21875 53.421875 
Q 53.21875 48.921875 51.53125 44.890625 
Q 49.859375 40.875 45.40625 35.40625 
Q 44.1875 33.984375 37.640625 27.21875 
Q 31.109375 20.453125 19.1875 8.296875 
z
" id="DejaVuSans-50"/>
       </defs>
       <use xlink:href="#DejaVuSans-45"/>
       <use x="36.083984" xlink:href="#DejaVuSans-48"/>
       <use x="99.707031" xlink:href="#DejaVuSans-46"/>
       <use x="131.494141" xlink:href="#DejaVuSans-50"/>
      </g>
     </g>
    </g>
    <g id="ytick_3">
     <g id="line2d_5">
      <path clip-path="url(#pe694ca118f)" d="M 50.9 197.299144 
L 1141.2 197.299144 
" style="fill:none;stroke:#b0b0b0;stroke-linecap:square;stroke-width:0.8;"/>
     </g>
     <g id="line2d_6">
      <g>
       <use style="stroke:#000000;stroke-width:0.8;" x="50.9" xlink:href="#m72b66c853c" y="197.299144"/>
      </g>
     </g>
     <g id="text_3">
      <!-- 0.0 -->
      <g transform="translate(27.996875 201.098363)scale(0.1 -0.1)">
       <use xlink:href="#DejaVuSans-48"/>
       <use x="63.623047" xlink:href="#DejaVuSans-46"/>
       <use x="95.410156" xlink:href="#DejaVuSans-48"/>
      </g>
     </g>
    </g>
    <g id="ytick_4">
     <g id="line2d_7">
      <path clip-path="url(#pe694ca118f)" d="M 50.9 147.509192 
L 1141.2 147.509192 
" style="fill:none;stroke:#b0b0b0;stroke-linecap:square;stroke-width:0.8;"/>
     </g>
     <g id="line2d_8">
      <g>
       <use style="stroke:#000000;stroke-width:0.8;" x="50.9" xlink:href="#m72b66c853c" y="147.509192"/>
      </g>
     </g>
     <g id="text_4">
      <!-- 0.2 -->
      <g transform="translate(27.996875 151.308411)scale(0.1 -0.1)">
       <use xlink:href="#DejaVuSans-48"/>
       <use x="63.623047" xlink:href="#DejaVuSans-46"/>
       <use x="95.410156" xlink:href="#DejaVuSans-50"/>
      </g>
     </g>
    </g>
    <g id="ytick_5">
     <g id="line2d_9">
      <path clip-path="url(#pe694ca118f)" d="M 50.9 97.719241 
L 1141.2 97.719241 
" style="fill:none;stroke:#b0b0b0;stroke-linecap:square;stroke-width:0.8;"/>
     </g>
     <g id="line2d_10">
      <g>
       <use style="stroke:#000000;stroke-width:0.8;" x="50.9" xlink:href="#m72b66c853c" y="97.719241"/>
      </g>
     </g>
     <g id="text_5">
      <!-- 0.4 -->
      <g transform="translate(27.996875 101.518459)scale(0.1 -0.1)">
       <use xlink:href="#DejaVuSans-48"/>
       <use x="63.623047" xlink:href="#DejaVuSans-46"/>
       <use x="95.410156" xlink:href="#DejaVuSans-52"/>
      </g>
     </g>
    </g>
    <g id="ytick_6">
     <g id="line2d_11">
      <path clip-path="url(#pe694ca118f)" d="M 50.9 47.929289 
L 1141.2 47.929289 
" style="fill:none;stroke:#b0b0b0;stroke-linecap:square;stroke-width:0.8;"/>
     </g>
     <g id="line2d_12">
      <g>
       <use style="stroke:#000000;stroke-width:0.8;" x="50.9" xlink:href="#m72b66c853c" y="47.929289"/>
      </g>
     </g>
     <g id="text_6">
      <!-- 0.6 -->
      <g transform="translate(27.996875 51.728508)scale(0.1 -0.1)">
       <defs>
        <path d="M 33.015625 40.375 
Q 26.375 40.375 22.484375 35.828125 
Q 18.609375 31.296875 18.609375 23.390625 
Q 18.609375 15.53125 22.484375 10.953125 
Q 26.375 6.390625 33.015625 6.390625 
Q 39.65625 6.390625 43.53125 10.953125 
Q 47.40625 15.53125 47.40625 23.390625 
Q 47.40625 31.296875 43.53125 35.828125 
Q 39.65625 40.375 33.015625 40.375 
z
M 52.59375 71.296875 
L 52.59375 62.3125 
Q 48.875 64.0625 45.09375 64.984375 
Q 41.3125 65.921875 37.59375 65.921875 
Q 27.828125 65.921875 22.671875 59.328125 
Q 17.53125 52.734375 16.796875 39.40625 
Q 19.671875 43.65625 24.015625 45.921875 
Q 28.375 48.1875 33.59375 48.1875 
Q 44.578125 48.1875 50.953125 41.515625 
Q 57.328125 34.859375 57.328125 23.390625 
Q 57.328125 12.15625 50.6875 5.359375 
Q 44.046875 -1.421875 33.015625 -1.421875 
Q 20.359375 -1.421875 13.671875 8.265625 
Q 6.984375 17.96875 6.984375 36.375 
Q 6.984375 53.65625 15.1875 63.9375 
Q 23.390625 74.21875 37.203125 74.21875 
Q 40.921875 74.21875 44.703125 73.484375 
Q 48.484375 72.75 52.59375 71.296875 
z
" id="DejaVuSans-54"/>
       </defs>
       <use xlink:href="#DejaVuSans-48"/>
       <use x="63.623047" xlink:href="#DejaVuSans-46"/>
       <use x="95.410156" xlink:href="#DejaVuSans-54"/>
      </g>
     </g>
    </g>
    <g id="text_7">
     <!-- log return cumsum -->
     <g transform="translate(18.309375 233.327969)rotate(-90)scale(0.1 -0.1)">
      <defs>
       <path d="M 9.421875 75.984375 
L 18.40625 75.984375 
L 18.40625 0 
L 9.421875 0 
z
" id="DejaVuSans-108"/>
       <path d="M 30.609375 48.390625 
Q 23.390625 48.390625 19.1875 42.75 
Q 14.984375 37.109375 14.984375 27.296875 
Q 14.984375 17.484375 19.15625 11.84375 
Q 23.34375 6.203125 30.609375 6.203125 
Q 37.796875 6.203125 41.984375 11.859375 
Q 46.1875 17.53125 46.1875 27.296875 
Q 46.1875 37.015625 41.984375 42.703125 
Q 37.796875 48.390625 30.609375 48.390625 
z
M 30.609375 56 
Q 42.328125 56 49.015625 48.375 
Q 55.71875 40.765625 55.71875 27.296875 
Q 55.71875 13.875 49.015625 6.21875 
Q 42.328125 -1.421875 30.609375 -1.421875 
Q 18.84375 -1.421875 12.171875 6.21875 
Q 5.515625 13.875 5.515625 27.296875 
Q 5.515625 40.765625 12.171875 48.375 
Q 18.84375 56 30.609375 56 
z
" id="DejaVuSans-111"/>
       <path d="M 45.40625 27.984375 
Q 45.40625 37.75 41.375 43.109375 
Q 37.359375 48.484375 30.078125 48.484375 
Q 22.859375 48.484375 18.828125 43.109375 
Q 14.796875 37.75 14.796875 27.984375 
Q 14.796875 18.265625 18.828125 12.890625 
Q 22.859375 7.515625 30.078125 7.515625 
Q 37.359375 7.515625 41.375 12.890625 
Q 45.40625 18.265625 45.40625 27.984375 
z
M 54.390625 6.78125 
Q 54.390625 -7.171875 48.1875 -13.984375 
Q 42 -20.796875 29.203125 -20.796875 
Q 24.46875 -20.796875 20.265625 -20.09375 
Q 16.0625 -19.390625 12.109375 -17.921875 
L 12.109375 -9.1875 
Q 16.0625 -11.328125 19.921875 -12.34375 
Q 23.78125 -13.375 27.78125 -13.375 
Q 36.625 -13.375 41.015625 -8.765625 
Q 45.40625 -4.15625 45.40625 5.171875 
L 45.40625 9.625 
Q 42.625 4.78125 38.28125 2.390625 
Q 33.9375 0 27.875 0 
Q 17.828125 0 11.671875 7.65625 
Q 5.515625 15.328125 5.515625 27.984375 
Q 5.515625 40.671875 11.671875 48.328125 
Q 17.828125 56 27.875 56 
Q 33.9375 56 38.28125 53.609375 
Q 42.625 51.21875 45.40625 46.390625 
L 45.40625 54.6875 
L 54.390625 54.6875 
z
" id="DejaVuSans-103"/>
       <path id="DejaVuSans-32"/>
       <path d="M 41.109375 46.296875 
Q 39.59375 47.171875 37.8125 47.578125 
Q 36.03125 48 33.890625 48 
Q 26.265625 48 22.1875 43.046875 
Q 18.109375 38.09375 18.109375 28.8125 
L 18.109375 0 
L 9.078125 0 
L 9.078125 54.6875 
L 18.109375 54.6875 
L 18.109375 46.1875 
Q 20.953125 51.171875 25.484375 53.578125 
Q 30.03125 56 36.53125 56 
Q 37.453125 56 38.578125 55.875 
Q 39.703125 55.765625 41.0625 55.515625 
z
" id="DejaVuSans-114"/>
       <path d="M 56.203125 29.59375 
L 56.203125 25.203125 
L 14.890625 25.203125 
Q 15.484375 15.921875 20.484375 11.0625 
Q 25.484375 6.203125 34.421875 6.203125 
Q 39.59375 6.203125 44.453125 7.46875 
Q 49.3125 8.734375 54.109375 11.28125 
L 54.109375 2.78125 
Q 49.265625 0.734375 44.1875 -0.34375 
Q 39.109375 -1.421875 33.890625 -1.421875 
Q 20.796875 -1.421875 13.15625 6.1875 
Q 5.515625 13.8125 5.515625 26.8125 
Q 5.515625 40.234375 12.765625 48.109375 
Q 20.015625 56 32.328125 56 
Q 43.359375 56 49.78125 48.890625 
Q 56.203125 41.796875 56.203125 29.59375 
z
M 47.21875 32.234375 
Q 47.125 39.59375 43.09375 43.984375 
Q 39.0625 48.390625 32.421875 48.390625 
Q 24.90625 48.390625 20.390625 44.140625 
Q 15.875 39.890625 15.1875 32.171875 
z
" id="DejaVuSans-101"/>
       <path d="M 18.3125 70.21875 
L 18.3125 54.6875 
L 36.8125 54.6875 
L 36.8125 47.703125 
L 18.3125 47.703125 
L 18.3125 18.015625 
Q 18.3125 11.328125 20.140625 9.421875 
Q 21.96875 7.515625 27.59375 7.515625 
L 36.8125 7.515625 
L 36.8125 0 
L 27.59375 0 
Q 17.1875 0 13.234375 3.875 
Q 9.28125 7.765625 9.28125 18.015625 
L 9.28125 47.703125 
L 2.6875 47.703125 
L 2.6875 54.6875 
L 9.28125 54.6875 
L 9.28125 70.21875 
z
" id="DejaVuSans-116"/>
       <path d="M 8.5 21.578125 
L 8.5 54.6875 
L 17.484375 54.6875 
L 17.484375 21.921875 
Q 17.484375 14.15625 20.5 10.265625 
Q 23.53125 6.390625 29.59375 6.390625 
Q 36.859375 6.390625 41.078125 11.03125 
Q 45.3125 15.671875 45.3125 23.6875 
L 45.3125 54.6875 
L 54.296875 54.6875 
L 54.296875 0 
L 45.3125 0 
L 45.3125 8.40625 
Q 42.046875 3.421875 37.71875 1 
Q 33.40625 -1.421875 27.6875 -1.421875 
Q 18.265625 -1.421875 13.375 4.4375 
Q 8.5 10.296875 8.5 21.578125 
z
M 31.109375 56 
z
" id="DejaVuSans-117"/>
       <path d="M 54.890625 33.015625 
L 54.890625 0 
L 45.90625 0 
L 45.90625 32.71875 
Q 45.90625 40.484375 42.875 44.328125 
Q 39.84375 48.1875 33.796875 48.1875 
Q 26.515625 48.1875 22.3125 43.546875 
Q 18.109375 38.921875 18.109375 30.90625 
L 18.109375 0 
L 9.078125 0 
L 9.078125 54.6875 
L 18.109375 54.6875 
L 18.109375 46.1875 
Q 21.34375 51.125 25.703125 53.5625 
Q 30.078125 56 35.796875 56 
Q 45.21875 56 50.046875 50.171875 
Q 54.890625 44.34375 54.890625 33.015625 
z
" id="DejaVuSans-110"/>
       <path d="M 48.78125 52.59375 
L 48.78125 44.1875 
Q 44.96875 46.296875 41.140625 47.34375 
Q 37.3125 48.390625 33.40625 48.390625 
Q 24.65625 48.390625 19.8125 42.84375 
Q 14.984375 37.3125 14.984375 27.296875 
Q 14.984375 17.28125 19.8125 11.734375 
Q 24.65625 6.203125 33.40625 6.203125 
Q 37.3125 6.203125 41.140625 7.25 
Q 44.96875 8.296875 48.78125 10.40625 
L 48.78125 2.09375 
Q 45.015625 0.34375 40.984375 -0.53125 
Q 36.96875 -1.421875 32.421875 -1.421875 
Q 20.0625 -1.421875 12.78125 6.34375 
Q 5.515625 14.109375 5.515625 27.296875 
Q 5.515625 40.671875 12.859375 48.328125 
Q 20.21875 56 33.015625 56 
Q 37.15625 56 41.109375 55.140625 
Q 45.0625 54.296875 48.78125 52.59375 
z
" id="DejaVuSans-99"/>
       <path d="M 52 44.1875 
Q 55.375 50.25 60.0625 53.125 
Q 64.75 56 71.09375 56 
Q 79.640625 56 84.28125 50.015625 
Q 88.921875 44.046875 88.921875 33.015625 
L 88.921875 0 
L 79.890625 0 
L 79.890625 32.71875 
Q 79.890625 40.578125 77.09375 44.375 
Q 74.3125 48.1875 68.609375 48.1875 
Q 61.625 48.1875 57.5625 43.546875 
Q 53.515625 38.921875 53.515625 30.90625 
L 53.515625 0 
L 44.484375 0 
L 44.484375 32.71875 
Q 44.484375 40.625 41.703125 44.40625 
Q 38.921875 48.1875 33.109375 48.1875 
Q 26.21875 48.1875 22.15625 43.53125 
Q 18.109375 38.875 18.109375 30.90625 
L 18.109375 0 
L 9.078125 0 
L 9.078125 54.6875 
L 18.109375 54.6875 
L 18.109375 46.1875 
Q 21.1875 51.21875 25.484375 53.609375 
Q 29.78125 56 35.6875 56 
Q 41.65625 56 45.828125 52.96875 
Q 50 49.953125 52 44.1875 
z
" id="DejaVuSans-109"/>
       <path d="M 44.28125 53.078125 
L 44.28125 44.578125 
Q 40.484375 46.53125 36.375 47.5 
Q 32.28125 48.484375 27.875 48.484375 
Q 21.1875 48.484375 17.84375 46.4375 
Q 14.5 44.390625 14.5 40.28125 
Q 14.5 37.15625 16.890625 35.375 
Q 19.28125 33.59375 26.515625 31.984375 
L 29.59375 31.296875 
Q 39.15625 29.25 43.1875 25.515625 
Q 47.21875 21.78125 47.21875 15.09375 
Q 47.21875 7.46875 41.1875 3.015625 
Q 35.15625 -1.421875 24.609375 -1.421875 
Q 20.21875 -1.421875 15.453125 -0.5625 
Q 10.6875 0.296875 5.421875 2 
L 5.421875 11.28125 
Q 10.40625 8.6875 15.234375 7.390625 
Q 20.0625 6.109375 24.8125 6.109375 
Q 31.15625 6.109375 34.5625 8.28125 
Q 37.984375 10.453125 37.984375 14.40625 
Q 37.984375 18.0625 35.515625 20.015625 
Q 33.0625 21.96875 24.703125 23.78125 
L 21.578125 24.515625 
Q 13.234375 26.265625 9.515625 29.90625 
Q 5.8125 33.546875 5.8125 39.890625 
Q 5.8125 47.609375 11.28125 51.796875 
Q 16.75 56 26.8125 56 
Q 31.78125 56 36.171875 55.265625 
Q 40.578125 54.546875 44.28125 53.078125 
z
" id="DejaVuSans-115"/>
      </defs>
      <use xlink:href="#DejaVuSans-108"/>
      <use x="27.783203" xlink:href="#DejaVuSans-111"/>
      <use x="88.964844" xlink:href="#DejaVuSans-103"/>
      <use x="152.441406" xlink:href="#DejaVuSans-32"/>
      <use x="184.228516" xlink:href="#DejaVuSans-114"/>
      <use x="223.091797" xlink:href="#DejaVuSans-101"/>
      <use x="284.615234" xlink:href="#DejaVuSans-116"/>
      <use x="323.824219" xlink:href="#DejaVuSans-117"/>
      <use x="387.203125" xlink:href="#DejaVuSans-114"/>
      <use x="426.566406" xlink:href="#DejaVuSans-110"/>
      <use x="489.945312" xlink:href="#DejaVuSans-32"/>
      <use x="521.732422" xlink:href="#DejaVuSans-99"/>
      <use x="576.712891" xlink:href="#DejaVuSans-117"/>
      <use x="640.091797" xlink:href="#DejaVuSans-109"/>
      <use x="737.503906" xlink:href="#DejaVuSans-115"/>
      <use x="789.603516" xlink:href="#DejaVuSans-117"/>
      <use x="852.982422" xlink:href="#DejaVuSans-109"/>
     </g>
    </g>
   </g>
   <g id="line2d_13">
    <path clip-path="url(#pe694ca118f)" d="M 100.459091 196.604974 
L 104.455792 193.795111 
L 108.452493 190.394632 
L 112.449194 179.16849 
L 124.439296 170.423931 
L 128.435997 190.594619 
L 132.432698 192.604962 
L 136.429399 192.834074 
L 140.4261 194.525094 
L 152.416202 193.773815 
L 156.412903 180.270079 
L 160.409604 179.145764 
L 164.406305 201.022646 
L 168.403006 200.54375 
L 180.393109 207.417199 
L 184.389809 205.818046 
L 188.38651 209.587223 
L 192.383211 217.825671 
L 196.379912 221.553486 
L 208.370015 217.744605 
L 212.366716 213.158763 
L 216.363416 209.824711 
L 220.360117 202.117217 
L 224.356818 198.779285 
L 236.346921 208.144719 
L 240.343622 208.645381 
L 244.340323 190.786193 
L 248.337023 195.126611 
L 252.333724 214.53123 
L 264.323827 225.896554 
L 268.320528 230.376983 
L 272.317229 243.294729 
L 276.31393 255.240866 
L 280.31063 257.528382 
L 292.300733 261.981223 
L 296.297434 277.510061 
L 300.294135 269.607089 
L 304.290836 290.427891 
L 308.287537 300.30745 
L 320.277639 306.007071 
L 324.27434 297.417463 
L 328.271041 306.124185 
L 332.267742 291.726704 
L 336.264443 304.263328 
L 348.254545 289.918657 
L 352.251246 273.04675 
L 356.247947 258.671951 
L 360.244648 245.731657 
L 364.241349 246.321037 
L 376.231452 256.754225 
L 380.228152 258.797124 
L 384.224853 246.935655 
L 388.221554 237.099576 
L 392.218255 220.75411 
L 404.208358 205.923078 
L 408.205059 207.106045 
L 412.20176 216.95296 
L 416.19846 224.331918 
L 420.195161 205.408809 
L 432.185264 204.537774 
L 436.181965 202.575118 
L 440.178666 199.582704 
L 444.175367 193.470481 
L 448.172067 184.051382 
L 460.16217 178.503643 
L 464.158871 195.879946 
L 468.155572 213.973371 
L 472.152273 211.170723 
L 476.148974 206.743476 
L 488.139076 191.763931 
L 492.135777 195.349352 
L 496.132478 203.0522 
L 500.129179 193.683596 
L 504.12588 211.890303 
L 516.115982 202.473868 
L 520.112683 195.576195 
L 524.109384 208.780944 
L 528.106085 197.882876 
L 532.102786 184.928123 
L 544.092889 196.256896 
L 548.089589 204.059354 
L 552.08629 211.58068 
L 556.082991 197.610704 
L 560.079692 188.080285 
L 572.069795 197.076999 
L 576.066496 199.672221 
L 580.063196 198.080174 
L 584.059897 187.178602 
L 588.056598 177.904398 
L 600.046701 190.740101 
L 604.043402 198.933942 
L 608.040103 207.601842 
L 612.036804 212.448383 
L 616.033504 209.197742 
L 628.023607 224.222105 
L 632.020308 214.492961 
L 636.017009 198.441533 
L 640.01371 208.124422 
L 644.010411 194.006329 
L 656.000513 176.029857 
L 659.997214 177.899428 
L 663.993915 181.506263 
L 667.990616 177.400579 
L 671.987317 167.905745 
L 683.977419 164.732791 
L 691.970821 189.420733 
L 695.967522 194.917528 
L 699.964223 189.410551 
L 711.954326 179.83421 
L 715.951026 168.376002 
L 719.947727 182.97573 
L 723.944428 181.399304 
L 727.941129 172.598134 
L 739.931232 174.490245 
L 743.927933 167.935427 
L 747.924633 176.199496 
L 751.921334 182.613125 
L 755.918035 185.436157 
L 767.908138 193.353097 
L 771.904839 207.605204 
L 775.90154 208.078611 
L 779.89824 198.989727 
L 783.894941 210.187576 
L 795.885044 191.935762 
L 799.881745 189.476592 
L 803.878446 200.980665 
L 807.875147 180.739473 
L 811.871848 175.099034 
L 823.86195 185.44983 
L 827.858651 176.011689 
L 831.855352 161.831784 
L 835.852053 145.047004 
L 839.848754 147.20126 
L 851.838856 146.305116 
L 855.835557 134.487187 
L 859.832258 132.937847 
L 863.828959 125.478211 
L 867.82566 110.201847 
L 879.815762 111.422623 
L 883.812463 121.94539 
L 887.809164 110.334685 
L 891.805865 112.426775 
L 895.802566 99.329024 
L 907.792669 81.37688 
L 911.78937 79.329706 
L 915.78607 92.780689 
L 919.782771 94.404366 
L 923.779472 81.455717 
L 935.769575 77.97391 
L 939.766276 81.609702 
L 943.762977 79.423809 
L 947.759677 78.10566 
L 951.756378 82.311367 
L 963.746481 69.34601 
L 967.743182 62.373882 
L 971.739883 64.462308 
L 975.736584 56.896744 
L 979.733284 58.772778 
L 991.723387 47.263428 
L 995.720088 40.455455 
L 999.716789 49.191549 
L 1003.71349 55.686486 
L 1007.710191 57.127718 
L 1019.700293 77.307563 
L 1023.696994 67.579342 
L 1027.693695 47.969472 
L 1031.690396 73.398454 
L 1035.687097 68.625766 
L 1047.677199 65.896842 
L 1051.6739 45.994915 
L 1055.670601 63.086554 
L 1059.667302 68.401443 
L 1063.664003 76.681219 
L 1075.654106 70.76466 
L 1079.650806 58.010685 
L 1083.647507 48.673872 
L 1087.644208 40.694269 
L 1091.640909 40.694269 
L 1091.640909 40.694269 
" style="fill:none;stroke:#9467bd;stroke-linecap:square;stroke-width:1.5;"/>
   </g>
   <g id="line2d_14">
    <path clip-path="url(#pe694ca118f)" d="M 100.459091 205.335301 
L 104.455792 188.300506 
L 108.452493 206.244266 
L 112.449194 198.006685 
L 124.439296 208.64284 
L 128.435997 221.653477 
L 132.432698 208.425943 
L 136.429399 202.340311 
L 140.4261 195.540536 
L 152.416202 199.404805 
L 156.412903 202.35888 
L 160.409604 190.309778 
L 164.406305 209.523936 
L 168.403006 201.626244 
L 180.393109 206.042412 
L 184.389809 203.896021 
L 188.38651 212.56337 
L 196.379912 185.9709 
L 208.370015 201.147791 
L 212.366716 195.537722 
L 216.363416 198.118561 
L 220.360117 209.16049 
L 224.356818 205.072594 
L 236.346921 192.240911 
L 240.343622 182.41711 
L 244.340323 165.231424 
L 248.337023 172.769402 
L 252.333724 181.396813 
L 264.323827 165.82674 
L 268.320528 172.738252 
L 272.317229 175.734938 
L 276.31393 182.69934 
L 280.31063 190.729043 
L 292.300733 180.912195 
L 296.297434 170.970098 
L 300.294135 172.633264 
L 304.290836 173.961348 
L 308.287537 192.748228 
L 320.277639 187.28802 
L 324.27434 192.854246 
L 328.271041 193.087867 
L 332.267742 202.633103 
L 336.264443 191.749692 
L 348.254545 193.999551 
L 352.251246 200.007877 
L 356.247947 180.867887 
L 360.244648 190.514085 
L 364.241349 187.037624 
L 376.231452 198.465506 
L 380.228152 211.144786 
L 384.224853 217.786795 
L 388.221554 204.300771 
L 392.218255 201.74842 
L 404.208358 181.688526 
L 408.205059 191.915023 
L 412.20176 177.527929 
L 416.19846 185.373975 
L 420.195161 173.422257 
L 432.185264 181.711844 
L 436.181965 198.792732 
L 440.178666 202.469403 
L 444.175367 193.057251 
L 448.172067 174.299211 
L 460.16217 180.42761 
L 464.158871 176.584226 
L 468.155572 176.695733 
L 472.152273 171.001824 
L 476.148974 173.008593 
L 488.139076 177.626134 
L 492.135777 176.995604 
L 496.132478 176.7312 
L 500.129179 165.77098 
L 504.12588 174.528192 
L 516.115982 163.097779 
L 520.112683 163.556008 
L 524.109384 175.916079 
L 528.106085 157.985958 
L 532.102786 180.803704 
L 544.092889 199.698985 
L 548.089589 181.717329 
L 552.08629 198.159876 
L 556.082991 199.989955 
L 560.079692 189.418734 
L 572.069795 205.596937 
L 576.066496 222.34192 
L 580.063196 221.702629 
L 584.059897 237.785978 
L 588.056598 235.852675 
L 600.046701 231.330625 
L 604.043402 231.503365 
L 608.040103 222.833213 
L 612.036804 214.599999 
L 616.033504 215.418818 
L 628.023607 219.582694 
L 632.020308 232.169101 
L 636.017009 239.514998 
L 640.01371 237.584593 
L 644.010411 226.106403 
L 656.000513 218.056942 
L 659.997214 210.562672 
L 663.993915 224.474955 
L 667.990616 215.469299 
L 671.987317 214.987262 
L 683.977419 209.18361 
L 687.97412 196.987927 
L 691.970821 189.719386 
L 695.967522 172.924796 
L 699.964223 174.124483 
L 711.954326 184.912823 
L 715.951026 187.706801 
L 719.947727 184.942155 
L 723.944428 180.644415 
L 727.941129 190.894304 
L 739.931232 196.927643 
L 743.927933 208.052415 
L 747.924633 195.929568 
L 751.921334 198.483861 
L 755.918035 183.475015 
L 767.908138 175.123758 
L 771.904839 177.322958 
L 775.90154 161.620985 
L 779.89824 179.3209 
L 783.894941 174.593445 
L 795.885044 171.870416 
L 799.881745 192.470631 
L 803.878446 179.15147 
L 807.875147 181.542607 
L 811.871848 179.493913 
L 823.86195 186.433026 
L 827.858651 181.954141 
L 831.855352 185.22552 
L 835.852053 180.399647 
L 839.848754 172.531824 
L 851.838856 169.692792 
L 855.835557 179.689636 
L 859.832258 175.642386 
L 863.828959 176.066551 
L 867.82566 186.12131 
L 879.815762 200.363686 
L 883.812463 189.237159 
L 887.809164 195.716735 
L 891.805865 177.312306 
L 895.802566 180.548393 
L 907.792669 174.187176 
L 911.78937 180.361915 
L 915.78607 196.505631 
L 919.782771 217.660128 
L 923.779472 211.10998 
L 935.769575 199.028229 
L 939.766276 203.864016 
L 943.762977 208.351828 
L 947.759677 191.765125 
L 951.756378 185.236941 
L 963.746481 197.516603 
L 967.743182 195.554923 
L 971.739883 204.122932 
L 975.736584 204.181302 
L 979.733284 207.253659 
L 991.723387 195.853298 
L 995.720088 181.475775 
L 999.716789 185.781918 
L 1003.71349 201.494547 
L 1007.710191 194.258374 
L 1019.700293 205.00802 
L 1023.696994 212.795153 
L 1027.693695 195.242393 
L 1031.690396 173.492803 
L 1035.687097 161.927594 
L 1047.677199 164.310047 
L 1051.6739 179.57613 
L 1055.670601 162.887323 
L 1059.667302 159.977884 
L 1063.664003 155.191549 
L 1075.654106 145.982363 
L 1079.650806 135.736965 
L 1083.647507 137.108732 
L 1087.644208 133.832851 
L 1091.640909 133.832851 
L 1091.640909 133.832851 
" style="fill:none;stroke:#1f77b4;stroke-linecap:square;stroke-width:1.5;"/>
   </g>
   <g id="line2d_15">
    <path clip-path="url(#pe694ca118f)" d="M 100.459091 200.979824 
L 104.455792 195.550974 
L 108.452493 204.420289 
L 112.449194 196.546513 
L 124.439296 197.315182 
L 128.435997 205.158813 
L 132.432698 197.791585 
L 136.429399 200.873178 
L 140.4261 199.537665 
L 152.416202 199.027599 
L 156.412903 192.667511 
L 160.409604 189.473038 
L 164.406305 197.775909 
L 168.403006 200.695074 
L 180.393109 206.496367 
L 184.389809 207.226994 
L 188.38651 211.964286 
L 192.383211 210.575594 
L 196.379912 205.612876 
L 208.370015 206.747562 
L 212.366716 201.708088 
L 216.363416 198.16628 
L 220.360117 198.46869 
L 224.356818 196.283693 
L 236.346921 194.610074 
L 240.343622 196.672415 
L 244.340323 186.956021 
L 252.333724 199.668562 
L 264.323827 198.829874 
L 268.320528 201.634696 
L 272.317229 207.521764 
L 276.31393 212.604767 
L 280.31063 205.654474 
L 292.300733 203.083902 
L 296.297434 203.546036 
L 300.294135 195.945095 
L 304.290836 195.690327 
L 308.287537 197.188365 
L 320.277639 196.716235 
L 324.27434 202.531215 
L 328.271041 202.947793 
L 332.267742 198.285974 
L 336.264443 200.518811 
L 348.254545 204.382067 
L 352.251246 199.073946 
L 356.247947 193.091614 
L 360.244648 187.797245 
L 364.241349 182.173628 
L 376.231452 188.895101 
L 380.228152 198.696307 
L 384.224853 198.07938 
L 388.221554 187.649462 
L 392.218255 186.319817 
L 404.208358 173.201191 
L 408.205059 179.561791 
L 412.20176 181.516278 
L 416.19846 183.101924 
L 420.195161 172.29985 
L 432.185264 171.806245 
L 436.181965 171.053141 
L 440.178666 171.332272 
L 444.175367 168.37876 
L 448.172067 167.247348 
L 460.16217 164.672092 
L 464.158871 162.242331 
L 468.155572 167.894842 
L 472.152273 162.393065 
L 476.148974 159.098008 
L 488.139076 158.324764 
L 492.135777 164.988659 
L 496.132478 166.671719 
L 500.129179 162.257363 
L 504.12588 166.915921 
L 516.115982 160.228045 
L 520.112683 158.665488 
L 524.109384 166.73493 
L 528.106085 158.056491 
L 532.102786 154.980479 
L 544.092889 161.332653 
L 548.089589 158.676807 
L 552.08629 168.508833 
L 556.082991 169.614025 
L 560.079692 164.04909 
L 572.069795 168.07745 
L 576.066496 168.099555 
L 580.063196 167.378645 
L 584.059897 168.942093 
L 588.056598 166.526921 
L 600.046701 162.779167 
L 604.043402 158.594909 
L 608.040103 157.422359 
L 612.036804 165.517037 
L 616.033504 165.09323 
L 628.023607 168.934787 
L 632.020308 171.448168 
L 636.017009 179.046845 
L 644.010411 175.34933 
L 656.000513 169.066692 
L 659.997214 169.681375 
L 663.993915 164.317568 
L 667.990616 158.403021 
L 671.987317 154.675054 
L 683.977419 150.935743 
L 687.97412 154.744811 
L 691.970821 157.1689 
L 695.967522 155.512075 
L 699.964223 154.655713 
L 711.954326 156.067341 
L 715.951026 156.080684 
L 719.947727 154.166153 
L 723.944428 151.437269 
L 727.941129 150.625986 
L 739.931232 152.479711 
L 743.927933 151.138858 
L 747.924633 151.424502 
L 751.921334 151.005686 
L 755.918035 150.223167 
L 767.908138 149.283497 
L 771.904839 145.754759 
L 775.90154 140.11452 
L 779.89824 143.067541 
L 783.894941 143.821502 
L 795.885044 139.375255 
L 799.881745 141.422075 
L 803.878446 142.589616 
L 807.875147 136.67505 
L 811.871848 131.813184 
L 823.86195 140.110529 
L 827.858651 144.216761 
L 831.855352 145.809054 
L 835.852053 140.347398 
L 839.848754 143.151908 
L 851.838856 145.955423 
L 855.835557 145.450895 
L 859.832258 147.77445 
L 863.828959 145.629084 
L 867.82566 152.57562 
L 879.815762 149.036004 
L 883.812463 150.434953 
L 887.809164 148.875501 
L 891.805865 145.002366 
L 895.802566 144.27503 
L 907.792669 132.716114 
L 911.78937 125.16284 
L 915.78607 129.175743 
L 919.782771 131.83984 
L 923.779472 124.366427 
L 935.769575 121.254869 
L 939.766276 113.974188 
L 947.759677 123.519195 
L 951.756378 121.949325 
L 963.746481 119.875125 
L 967.743182 120.189417 
L 971.739883 127.578133 
L 975.736584 128.318153 
L 979.733284 127.138375 
L 991.723387 124.432113 
L 995.720088 115.530234 
L 999.716789 123.008021 
L 1003.71349 125.18284 
L 1007.710191 116.852734 
L 1019.700293 120.753442 
L 1023.696994 118.313464 
L 1027.693695 114.458033 
L 1031.690396 118.61919 
L 1035.687097 112.702175 
L 1047.677199 107.244991 
L 1051.6739 108.514682 
L 1055.670601 110.689124 
L 1059.667302 109.282976 
L 1063.664003 112.17664 
L 1075.654106 111.295252 
L 1079.650806 104.439393 
L 1083.647507 98.358543 
L 1087.644208 97.965942 
L 1087.644208 97.965942 
" style="fill:none;stroke:#8c564b;stroke-linecap:square;stroke-width:1.5;"/>
   </g>
   <g id="line2d_16">
    <path clip-path="url(#pe694ca118f)" d="M 100.459091 192.987947 
L 104.455792 195.664984 
L 108.452493 183.814573 
L 112.449194 180.355229 
L 124.439296 170.870777 
L 128.435997 182.806186 
L 132.432698 192.470955 
L 136.429399 189.653367 
L 140.4261 192.69628 
L 152.416202 192.454572 
L 156.412903 185.128763 
L 160.409604 187.22577 
L 164.406305 200.342589 
L 168.403006 196.983875 
L 180.393109 198.031283 
L 184.389809 195.708299 
L 188.38651 194.758397 
L 192.383211 204.44045 
L 196.379912 213.309119 
L 208.370015 208.387811 
L 212.366716 208.850728 
L 216.363416 209.061463 
L 220.360117 201.061128 
L 224.356818 199.898052 
L 236.346921 211.013255 
L 240.343622 209.46442 
L 244.340323 201.00298 
L 248.337023 199.025478 
L 252.333724 211.749358 
L 264.323827 223.995584 
L 268.320528 225.652356 
L 276.31393 239.238974 
L 280.31063 248.743378 
L 292.300733 255.840737 
L 296.297434 270.878637 
L 300.294135 270.567248 
L 304.290836 291.665339 
L 308.287537 299.995725 
L 320.277639 306.179339 
L 324.27434 292.098086 
L 328.271041 300.374136 
L 332.267742 290.458064 
L 336.264443 300.667936 
L 348.254545 282.730522 
L 352.251246 270.923343 
L 356.247947 262.330243 
L 360.244648 254.522523 
L 364.241349 260.879293 
L 376.231452 264.491414 
L 380.228152 257.028174 
L 384.224853 245.756355 
L 388.221554 246.375634 
L 392.218255 231.281788 
L 404.208358 229.47706 
L 408.205059 224.428724 
L 412.20176 232.258449 
L 416.19846 238.014551 
L 420.195161 229.539445 
L 432.185264 229.161266 
L 436.181965 227.948058 
L 444.175367 221.483988 
L 448.172067 213.159175 
L 460.16217 210.15597 
L 464.158871 230.164306 
L 468.155572 242.318994 
L 472.152273 245.078774 
L 476.148974 243.931532 
L 488.139076 229.682279 
L 492.135777 226.684629 
L 496.132478 232.663366 
L 500.129179 227.621378 
L 504.12588 240.911533 
L 516.115982 238.109096 
L 520.112683 232.740748 
L 524.109384 237.710623 
L 528.106085 235.412615 
L 532.102786 225.41349 
L 544.092889 230.263483 
L 548.089589 240.836371 
L 552.08629 238.614754 
L 556.082991 223.604389 
L 560.079692 219.54999 
L 572.069795 224.437808 
L 576.066496 227.010694 
L 580.063196 226.137036 
L 584.059897 213.748144 
L 588.056598 206.823167 
L 600.046701 223.666868 
L 604.043402 236.260168 
L 608.040103 246.148011 
L 612.036804 243.003135 
L 616.033504 240.171512 
L 628.023607 251.179238 
L 632.020308 239.056744 
L 636.017009 216.085804 
L 640.01371 227.693577 
L 644.010411 215.345799 
L 656.000513 203.360178 
L 659.997214 204.611964 
L 663.993915 213.781624 
L 667.990616 215.634139 
L 671.987317 209.78128 
L 683.977419 210.356218 
L 687.97412 218.812893 
L 691.970821 228.580845 
L 695.967522 235.782929 
L 699.964223 231.116439 
L 711.954326 220.189255 
L 715.951026 208.718305 
L 719.947727 225.364414 
L 723.944428 226.529604 
L 727.941129 218.514052 
L 739.931232 218.552153 
L 743.927933 213.310324 
L 747.924633 221.279453 
L 751.921334 228.123561 
L 755.918035 231.740546 
L 767.908138 240.631254 
L 771.904839 258.675351 
L 775.90154 264.930865 
L 779.89824 253.027616 
L 783.894941 263.439252 
L 795.885044 249.391792 
L 799.881745 244.922368 
L 803.878446 255.209523 
L 807.875147 240.548397 
L 811.871848 239.754495 
L 823.86195 241.740364 
L 827.858651 228.411737 
L 831.855352 212.736996 
L 835.852053 201.168459 
L 839.848754 200.525479 
L 851.838856 196.866947 
L 855.835557 185.53111 
L 859.832258 181.693918 
L 863.828959 176.334145 
L 867.82566 154.696956 
L 879.815762 159.526181 
L 883.812463 168.597929 
L 887.809164 158.484781 
L 891.805865 164.544686 
L 895.802566 152.138964 
L 907.792669 145.445944 
L 911.78937 151.12361 
L 915.78607 160.407926 
L 919.782771 159.378557 
L 923.779472 153.73834 
L 935.769575 153.363438 
L 939.766276 164.611312 
L 943.762977 157.841233 
L 947.759677 151.806695 
L 951.756378 157.619237 
L 963.746481 146.638938 
L 967.743182 139.361579 
L 971.739883 134.214696 
L 975.736584 125.933359 
L 979.733284 129.003776 
L 991.723387 120.10617 
L 995.720088 122.276636 
L 999.716789 123.497618 
L 1003.71349 127.779836 
L 1007.710191 137.890506 
L 1019.700293 153.908238 
L 1023.696994 146.549262 
L 1027.693695 130.55667 
L 1031.690396 151.456737 
L 1035.687097 152.628653 
L 1047.677199 155.417719 
L 1051.6739 134.349374 
L 1055.670601 149.132915 
L 1059.667302 155.892543 
L 1063.664003 161.215743 
L 1075.654106 156.162893 
L 1079.650806 150.102081 
L 1083.647507 146.766144 
L 1087.644208 139.167349 
L 1087.644208 139.167349 
" style="fill:none;stroke:#e377c2;stroke-linecap:square;stroke-width:1.5;"/>
   </g>
   <g id="line2d_17">
    <path clip-path="url(#pe694ca118f)" d="M 100.459091 193.080853 
L 104.455792 205.529641 
L 108.452493 197.075656 
L 112.449194 197.451709 
L 124.439296 187.989182 
L 128.435997 183.082704 
L 132.432698 189.266812 
L 136.429399 198.66523 
L 140.4261 204.282519 
L 152.416202 199.97498 
L 156.412903 190.76868 
L 160.409604 200.070714 
L 164.406305 189.953653 
L 168.403006 201.127107 
L 180.393109 202.487811 
L 184.389809 205.389887 
L 188.38651 201.593283 
L 192.383211 214.044992 
L 196.379912 222.967965 
L 208.370015 209.734577 
L 212.366716 210.318192 
L 216.363416 204.257927 
L 220.360117 193.974851 
L 224.356818 195.909378 
L 236.346921 207.671804 
L 240.343622 220.04845 
L 244.340323 228.060263 
L 248.337023 226.926027 
L 252.333724 224.719649 
L 264.323827 240.432426 
L 268.320528 236.437284 
L 272.317229 239.292882 
L 276.31393 237.463196 
L 280.31063 222.945066 
L 292.300733 230.487253 
L 296.297434 241.324757 
L 300.294135 232.121209 
L 304.290836 230.546751 
L 308.287537 214.474916 
L 320.277639 219.574747 
L 328.271041 220.000784 
L 332.267742 206.313725 
L 336.264443 220.032542 
L 348.254545 221.631377 
L 352.251246 210.578878 
L 356.247947 224.818671 
L 360.244648 210.42985 
L 364.241349 208.252632 
L 376.231452 203.755488 
L 380.228152 201.019545 
L 384.224853 193.949029 
L 388.221554 197.176363 
L 392.218255 198.4117 
L 404.208358 205.944333 
L 408.205059 202.232869 
L 412.20176 219.581325 
L 416.19846 213.512806 
L 420.195161 214.719126 
L 432.185264 206.21873 
L 436.181965 189.528585 
L 440.178666 186.18052 
L 444.175367 192.891402 
L 448.172067 211.951621 
L 460.16217 203.456037 
L 464.158871 204.891718 
L 468.155572 210.430214 
L 472.152273 210.626792 
L 476.148974 205.367085 
L 488.139076 200.074321 
L 492.135777 207.38752 
L 496.132478 209.337061 
L 500.129179 216.181637 
L 504.12588 212.223534 
L 516.115982 217.191136 
L 520.112683 215.174051 
L 524.109384 211.08955 
L 528.106085 221.046144 
L 532.102786 197.315605 
L 544.092889 185.668184 
L 548.089589 202.180834 
L 552.08629 195.987605 
L 556.082991 195.268019 
L 560.079692 200.493762 
L 572.069795 189.091144 
L 576.066496 173.422591 
L 580.063196 173.340761 
L 584.059897 159.704841 
L 588.056598 159.219219 
L 600.046701 160.00773 
L 604.043402 155.653728 
L 608.040103 163.421236 
L 612.036804 180.317202 
L 616.033504 179.078646 
L 628.023607 178.761669 
L 632.020308 169.175821 
L 636.017009 169.421247 
L 640.01371 169.51486 
L 644.010411 179.596203 
L 656.000513 181.421301 
L 659.997214 189.782282 
L 663.993915 171.516381 
L 667.990616 174.722094 
L 671.987317 171.469914 
L 683.977419 173.583152 
L 687.97412 190.419254 
L 691.970821 200.404885 
L 695.967522 216.634277 
L 699.964223 214.588071 
L 711.954326 205.601935 
L 715.951026 202.852161 
L 719.947727 203.711787 
L 723.944428 205.308048 
L 727.941129 194.683662 
L 739.931232 190.603308 
L 743.927933 178.669623 
L 747.924633 191.713812 
L 751.921334 188.770874 
L 755.918035 203.908683 
L 767.908138 211.57705 
L 771.904839 205.89892 
L 775.90154 216.630033 
L 779.89824 202.867767 
L 783.894941 208.455455 
L 795.885044 206.713351 
L 799.881745 189.583915 
L 803.878446 204.891759 
L 807.875147 196.664151 
L 811.871848 193.827865 
L 823.86195 195.148661 
L 827.858651 203.892401 
L 831.855352 202.235162 
L 835.852053 201.586951 
L 839.848754 212.609657 
L 851.838856 218.317667 
L 855.835557 208.221368 
L 859.832258 214.697961 
L 863.828959 212.132782 
L 867.82566 209.146859 
L 879.815762 192.320967 
L 883.812463 205.434294 
L 887.809164 197.598588 
L 891.805865 213.2807 
L 895.802566 209.368065 
L 907.792669 204.037273 
L 911.78937 190.63668 
L 915.78607 179.250405 
L 919.782771 162.215991 
L 923.779472 161.268157 
L 935.769575 170.692968 
L 939.766276 158.80411 
L 943.762977 159.02406 
L 947.759677 181.9899 
L 951.756378 187.081312 
L 963.746481 173.399657 
L 967.743182 175.693716 
L 971.739883 174.554229 
L 975.736584 175.235718 
L 979.733284 171.035301 
L 991.723387 180.144336 
L 995.720088 185.949348 
L 999.716789 189.06626 
L 1003.71349 176.335687 
L 1007.710191 175.209564 
L 1019.700293 168.646288 
L 1023.696994 158.727939 
L 1027.693695 173.45606 
L 1031.690396 201.87239 
L 1035.687097 207.792386 
L 1047.677199 200.026263 
L 1051.6739 186.840721 
L 1055.670601 207.066398 
L 1059.667302 208.587415 
L 1063.664003 216.418868 
L 1075.654106 225.066011 
L 1079.650806 228.598969 
L 1083.647507 221.186701 
L 1087.644208 224.108398 
L 1087.644208 224.108398 
" style="fill:none;stroke:#7f7f7f;stroke-linecap:square;stroke-width:1.5;"/>
   </g>
   <g id="line2d_18">
    <path clip-path="url(#pe694ca118f)" d="M 100.459091 188.841477 
L 104.455792 204.105352 
L 108.452493 184.187653 
L 112.449194 181.099169 
L 124.439296 162.499515 
L 128.435997 169.289957 
L 132.432698 185.386825 
L 136.429399 191.859886 
L 140.4261 200.589964 
L 152.416202 196.044862 
L 156.412903 179.774981 
L 160.409604 191.254209 
L 164.406305 193.71817 
L 168.403006 201.379811 
L 180.393109 203.793675 
L 184.389809 204.345657 
L 188.38651 199.613501 
L 192.383211 222.254144 
L 196.379912 240.375478 
L 208.370015 222.473179 
L 212.366716 223.520798 
L 216.363416 217.666197 
L 220.360117 199.701573 
L 224.356818 200.463972 
L 236.346921 223.892174 
L 240.343622 234.641294 
L 244.340323 233.919726 
L 248.337023 230.816943 
L 252.333724 241.219283 
L 264.323827 269.997431 
L 268.320528 267.632599 
L 272.317229 277.432583 
L 276.31393 282.275539 
L 280.31063 276.713587 
L 292.300733 291.574684 
L 296.297434 318.140769 
L 300.294135 308.637127 
L 304.290836 328.021988 
L 308.287537 319.751485 
L 320.277639 331.164545 
L 324.27434 317.31316 
L 328.271041 325.778178 
L 332.267742 302.695627 
L 336.264443 327.215466 
L 348.254545 310.765407 
L 352.251246 288.406996 
L 356.247947 293.556966 
L 360.244648 271.792472 
L 364.241349 275.915966 
L 376.231452 274.965815 
L 380.228152 264.847007 
L 384.224853 246.813456 
L 388.221554 250.66816 
L 392.218255 236.736808 
L 404.208358 242.409477 
L 408.205059 233.723641 
L 412.20176 259.476553 
L 416.19846 259.023944 
L 420.195161 251.714687 
L 432.185264 242.848797 
L 436.181965 225.023934 
L 440.178666 218.451341 
L 444.175367 221.879299 
L 448.172067 231.964105 
L 460.16217 220.565489 
L 464.158871 242.130032 
L 468.155572 260.1036 
L 472.152273 263.062151 
L 488.139076 237.428616 
L 492.135777 241.655351 
L 496.132478 249.631206 
L 500.129179 251.294699 
L 504.12588 260.411516 
L 516.115982 262.520522 
L 520.112683 255.17795 
L 524.109384 255.981649 
L 528.106085 263.546914 
L 532.102786 230.709958 
L 544.092889 223.68877 
L 548.089589 251.516102 
L 552.08629 243.155605 
L 556.082991 227.467702 
L 560.079692 228.553751 
L 572.069795 221.81806 
L 576.066496 208.564686 
L 580.063196 207.609485 
L 584.059897 182.229683 
L 588.056598 174.832393 
L 600.046701 192.519896 
L 604.043402 200.535343 
L 608.040103 218.51058 
L 612.036804 232.042307 
L 616.033504 227.986102 
L 628.023607 238.662531 
L 632.020308 217.401525 
L 636.017009 194.654369 
L 640.01371 206.360224 
L 644.010411 203.596443 
L 656.000513 193.349833 
L 659.997214 203.005467 
L 663.993915 193.249301 
L 667.990616 198.331628 
L 671.987317 189.301676 
L 683.977419 191.994759 
L 687.97412 217.890124 
L 691.970821 238.051754 
L 695.967522 261.97596 
L 699.964223 255.301109 
L 711.954326 235.767095 
L 715.951026 221.669548 
L 719.947727 239.234837 
L 723.944428 242.003801 
L 727.941129 223.693629 
L 739.931232 219.650757 
L 743.927933 202.718141 
L 747.924633 224.167466 
L 751.921334 227.987103 
L 755.918035 246.970419 
L 767.908138 263.812802 
L 771.904839 275.757119 
L 775.90154 293.022938 
L 779.89824 267.983314 
L 783.894941 284.224099 
L 795.885044 268.529799 
L 799.881745 247.225647 
L 803.878446 273.487612 
L 807.875147 251.062167 
L 811.871848 247.440957 
L 823.86195 250.758229 
L 827.858651 245.709851 
L 831.855352 228.478684 
L 835.852053 216.291332 
L 839.848754 226.641989 
L 851.838856 228.607248 
L 855.835557 207.615932 
L 859.832258 210.154992 
L 863.828959 202.284402 
L 867.82566 177.908488 
L 879.815762 165.593335 
L 883.812463 188.278621 
L 887.809164 170.637032 
L 891.805865 192.778216 
L 895.802566 176.648639 
L 907.792669 164.764772 
L 911.78937 156.741069 
L 915.78607 154.216556 
L 919.782771 136.220721 
L 923.779472 129.653863 
L 935.769575 138.689318 
L 939.766276 137.512352 
L 943.762977 130.956321 
L 947.759677 147.312122 
L 951.756378 158.337618 
L 963.746481 134.250734 
L 967.743182 129.201048 
L 971.739883 122.937942 
L 975.736584 115.315768 
L 979.733284 114.134085 
L 991.723387 114.01999 
L 995.720088 122.046903 
L 999.716789 126.400219 
L 1003.71349 117.736634 
L 1007.710191 126.674614 
L 1019.700293 135.69897 
L 1023.696994 118.705023 
L 1027.693695 116.4983 
L 1031.690396 168.464986 
L 1035.687097 175.585168 
L 1047.677199 170.521981 
L 1051.6739 137.312405 
L 1055.670601 173.614082 
L 1059.667302 181.936724 
L 1063.664003 195.263387 
L 1075.654106 198.680951 
L 1079.650806 196.067532 
L 1083.647507 185.416555 
L 1087.644208 180.651122 
L 1091.640909 180.651122 
L 1091.640909 180.651122 
" style="fill:none;stroke:#bcbd22;stroke-linecap:square;stroke-width:1.5;"/>
   </g>
   <g id="patch_3">
    <path d="M 50.9 345.7 
L 50.9 25.92 
" style="fill:none;stroke:#000000;stroke-linecap:square;stroke-linejoin:miter;stroke-width:0.8;"/>
   </g>
   <g id="patch_4">
    <path d="M 1141.2 345.7 
L 1141.2 25.92 
" style="fill:none;stroke:#000000;stroke-linecap:square;stroke-linejoin:miter;stroke-width:0.8;"/>
   </g>
   <g id="patch_5">
    <path d="M 50.9 345.7 
L 1141.2 345.7 
" style="fill:none;stroke:#000000;stroke-linecap:square;stroke-linejoin:miter;stroke-width:0.8;"/>
   </g>
   <g id="patch_6">
    <path d="M 50.9 25.92 
L 1141.2 25.92 
" style="fill:none;stroke:#000000;stroke-linecap:square;stroke-linejoin:miter;stroke-width:0.8;"/>
   </g>
   <g id="text_8">
    <!-- Cumulative Log Return: (2010-02-02 ~ 2010-10-08) -->
    <g transform="translate(440.172812 19.92)scale(0.12 -0.12)">
     <defs>
      <path d="M 64.40625 67.28125 
L 64.40625 56.890625 
Q 59.421875 61.53125 53.78125 63.8125 
Q 48.140625 66.109375 41.796875 66.109375 
Q 29.296875 66.109375 22.65625 58.46875 
Q 16.015625 50.828125 16.015625 36.375 
Q 16.015625 21.96875 22.65625 14.328125 
Q 29.296875 6.6875 41.796875 6.6875 
Q 48.140625 6.6875 53.78125 8.984375 
Q 59.421875 11.28125 64.40625 15.921875 
L 64.40625 5.609375 
Q 59.234375 2.09375 53.4375 0.328125 
Q 47.65625 -1.421875 41.21875 -1.421875 
Q 24.65625 -1.421875 15.125 8.703125 
Q 5.609375 18.84375 5.609375 36.375 
Q 5.609375 53.953125 15.125 64.078125 
Q 24.65625 74.21875 41.21875 74.21875 
Q 47.75 74.21875 53.53125 72.484375 
Q 59.328125 70.75 64.40625 67.28125 
z
" id="DejaVuSans-67"/>
      <path d="M 34.28125 27.484375 
Q 23.390625 27.484375 19.1875 25 
Q 14.984375 22.515625 14.984375 16.5 
Q 14.984375 11.71875 18.140625 8.90625 
Q 21.296875 6.109375 26.703125 6.109375 
Q 34.1875 6.109375 38.703125 11.40625 
Q 43.21875 16.703125 43.21875 25.484375 
L 43.21875 27.484375 
z
M 52.203125 31.203125 
L 52.203125 0 
L 43.21875 0 
L 43.21875 8.296875 
Q 40.140625 3.328125 35.546875 0.953125 
Q 30.953125 -1.421875 24.3125 -1.421875 
Q 15.921875 -1.421875 10.953125 3.296875 
Q 6 8.015625 6 15.921875 
Q 6 25.140625 12.171875 29.828125 
Q 18.359375 34.515625 30.609375 34.515625 
L 43.21875 34.515625 
L 43.21875 35.40625 
Q 43.21875 41.609375 39.140625 45 
Q 35.0625 48.390625 27.6875 48.390625 
Q 23 48.390625 18.546875 47.265625 
Q 14.109375 46.140625 10.015625 43.890625 
L 10.015625 52.203125 
Q 14.9375 54.109375 19.578125 55.046875 
Q 24.21875 56 28.609375 56 
Q 40.484375 56 46.34375 49.84375 
Q 52.203125 43.703125 52.203125 31.203125 
z
" id="DejaVuSans-97"/>
      <path d="M 9.421875 54.6875 
L 18.40625 54.6875 
L 18.40625 0 
L 9.421875 0 
z
M 9.421875 75.984375 
L 18.40625 75.984375 
L 18.40625 64.59375 
L 9.421875 64.59375 
z
" id="DejaVuSans-105"/>
      <path d="M 2.984375 54.6875 
L 12.5 54.6875 
L 29.59375 8.796875 
L 46.6875 54.6875 
L 56.203125 54.6875 
L 35.6875 0 
L 23.484375 0 
z
" id="DejaVuSans-118"/>
      <path d="M 9.8125 72.90625 
L 19.671875 72.90625 
L 19.671875 8.296875 
L 55.171875 8.296875 
L 55.171875 0 
L 9.8125 0 
z
" id="DejaVuSans-76"/>
      <path d="M 44.390625 34.1875 
Q 47.5625 33.109375 50.5625 29.59375 
Q 53.5625 26.078125 56.59375 19.921875 
L 66.609375 0 
L 56 0 
L 46.6875 18.703125 
Q 43.0625 26.03125 39.671875 28.421875 
Q 36.28125 30.8125 30.421875 30.8125 
L 19.671875 30.8125 
L 19.671875 0 
L 9.8125 0 
L 9.8125 72.90625 
L 32.078125 72.90625 
Q 44.578125 72.90625 50.734375 67.671875 
Q 56.890625 62.453125 56.890625 51.90625 
Q 56.890625 45.015625 53.6875 40.46875 
Q 50.484375 35.9375 44.390625 34.1875 
z
M 19.671875 64.796875 
L 19.671875 38.921875 
L 32.078125 38.921875 
Q 39.203125 38.921875 42.84375 42.21875 
Q 46.484375 45.515625 46.484375 51.90625 
Q 46.484375 58.296875 42.84375 61.546875 
Q 39.203125 64.796875 32.078125 64.796875 
z
" id="DejaVuSans-82"/>
      <path d="M 11.71875 12.40625 
L 22.015625 12.40625 
L 22.015625 0 
L 11.71875 0 
z
M 11.71875 51.703125 
L 22.015625 51.703125 
L 22.015625 39.3125 
L 11.71875 39.3125 
z
" id="DejaVuSans-58"/>
      <path d="M 31 75.875 
Q 24.46875 64.65625 21.28125 53.65625 
Q 18.109375 42.671875 18.109375 31.390625 
Q 18.109375 20.125 21.3125 9.0625 
Q 24.515625 -2 31 -13.1875 
L 23.1875 -13.1875 
Q 15.875 -1.703125 12.234375 9.375 
Q 8.59375 20.453125 8.59375 31.390625 
Q 8.59375 42.28125 12.203125 53.3125 
Q 15.828125 64.359375 23.1875 75.875 
z
" id="DejaVuSans-40"/>
      <path d="M 12.40625 8.296875 
L 28.515625 8.296875 
L 28.515625 63.921875 
L 10.984375 60.40625 
L 10.984375 69.390625 
L 28.421875 72.90625 
L 38.28125 72.90625 
L 38.28125 8.296875 
L 54.390625 8.296875 
L 54.390625 0 
L 12.40625 0 
z
" id="DejaVuSans-49"/>
      <path d="M 73.1875 39.890625 
L 73.1875 31.203125 
Q 68.0625 27.34375 63.6875 25.6875 
Q 59.328125 24.03125 54.59375 24.03125 
Q 49.21875 24.03125 42.09375 26.90625 
Q 41.546875 27.09375 41.3125 27.203125 
Q 40.96875 27.34375 40.234375 27.59375 
Q 32.671875 30.609375 28.078125 30.609375 
Q 23.78125 30.609375 19.578125 28.734375 
Q 15.375 26.859375 10.59375 22.796875 
L 10.59375 31.5 
Q 15.71875 35.359375 20.09375 37.03125 
Q 24.46875 38.71875 29.203125 38.71875 
Q 34.578125 38.71875 41.75 35.796875 
Q 42.234375 35.59375 42.484375 35.5 
Q 42.875 35.359375 43.5625 35.109375 
Q 51.125 32.078125 55.71875 32.078125 
Q 59.90625 32.078125 64.03125 33.9375 
Q 68.171875 35.796875 73.1875 39.890625 
z
" id="DejaVuSans-126"/>
      <path d="M 31.78125 34.625 
Q 24.75 34.625 20.71875 30.859375 
Q 16.703125 27.09375 16.703125 20.515625 
Q 16.703125 13.921875 20.71875 10.15625 
Q 24.75 6.390625 31.78125 6.390625 
Q 38.8125 6.390625 42.859375 10.171875 
Q 46.921875 13.96875 46.921875 20.515625 
Q 46.921875 27.09375 42.890625 30.859375 
Q 38.875 34.625 31.78125 34.625 
z
M 21.921875 38.8125 
Q 15.578125 40.375 12.03125 44.71875 
Q 8.5 49.078125 8.5 55.328125 
Q 8.5 64.0625 14.71875 69.140625 
Q 20.953125 74.21875 31.78125 74.21875 
Q 42.671875 74.21875 48.875 69.140625 
Q 55.078125 64.0625 55.078125 55.328125 
Q 55.078125 49.078125 51.53125 44.71875 
Q 48 40.375 41.703125 38.8125 
Q 48.828125 37.15625 52.796875 32.3125 
Q 56.78125 27.484375 56.78125 20.515625 
Q 56.78125 9.90625 50.3125 4.234375 
Q 43.84375 -1.421875 31.78125 -1.421875 
Q 19.734375 -1.421875 13.25 4.234375 
Q 6.78125 9.90625 6.78125 20.515625 
Q 6.78125 27.484375 10.78125 32.3125 
Q 14.796875 37.15625 21.921875 38.8125 
z
M 18.3125 54.390625 
Q 18.3125 48.734375 21.84375 45.5625 
Q 25.390625 42.390625 31.78125 42.390625 
Q 38.140625 42.390625 41.71875 45.5625 
Q 45.3125 48.734375 45.3125 54.390625 
Q 45.3125 60.0625 41.71875 63.234375 
Q 38.140625 66.40625 31.78125 66.40625 
Q 25.390625 66.40625 21.84375 63.234375 
Q 18.3125 60.0625 18.3125 54.390625 
z
" id="DejaVuSans-56"/>
      <path d="M 8.015625 75.875 
L 15.828125 75.875 
Q 23.140625 64.359375 26.78125 53.3125 
Q 30.421875 42.28125 30.421875 31.390625 
Q 30.421875 20.453125 26.78125 9.375 
Q 23.140625 -1.703125 15.828125 -13.1875 
L 8.015625 -13.1875 
Q 14.5 -2 17.703125 9.0625 
Q 20.90625 20.125 20.90625 31.390625 
Q 20.90625 42.671875 17.703125 53.65625 
Q 14.5 64.65625 8.015625 75.875 
z
" id="DejaVuSans-41"/>
     </defs>
     <use xlink:href="#DejaVuSans-67"/>
     <use x="69.824219" xlink:href="#DejaVuSans-117"/>
     <use x="133.203125" xlink:href="#DejaVuSans-109"/>
     <use x="230.615234" xlink:href="#DejaVuSans-117"/>
     <use x="293.994141" xlink:href="#DejaVuSans-108"/>
     <use x="321.777344" xlink:href="#DejaVuSans-97"/>
     <use x="383.056641" xlink:href="#DejaVuSans-116"/>
     <use x="422.265625" xlink:href="#DejaVuSans-105"/>
     <use x="450.048828" xlink:href="#DejaVuSans-118"/>
     <use x="509.228516" xlink:href="#DejaVuSans-101"/>
     <use x="570.751953" xlink:href="#DejaVuSans-32"/>
     <use x="602.539062" xlink:href="#DejaVuSans-76"/>
     <use x="656.501953" xlink:href="#DejaVuSans-111"/>
     <use x="717.683594" xlink:href="#DejaVuSans-103"/>
     <use x="781.160156" xlink:href="#DejaVuSans-32"/>
     <use x="812.947266" xlink:href="#DejaVuSans-82"/>
     <use x="877.929688" xlink:href="#DejaVuSans-101"/>
     <use x="939.453125" xlink:href="#DejaVuSans-116"/>
     <use x="978.662109" xlink:href="#DejaVuSans-117"/>
     <use x="1042.041016" xlink:href="#DejaVuSans-114"/>
     <use x="1081.404297" xlink:href="#DejaVuSans-110"/>
     <use x="1144.783203" xlink:href="#DejaVuSans-58"/>
     <use x="1178.474609" xlink:href="#DejaVuSans-32"/>
     <use x="1210.261719" xlink:href="#DejaVuSans-40"/>
     <use x="1249.275391" xlink:href="#DejaVuSans-50"/>
     <use x="1312.898438" xlink:href="#DejaVuSans-48"/>
     <use x="1376.521484" xlink:href="#DejaVuSans-49"/>
     <use x="1440.144531" xlink:href="#DejaVuSans-48"/>
     <use x="1503.767578" xlink:href="#DejaVuSans-45"/>
     <use x="1539.851562" xlink:href="#DejaVuSans-48"/>
     <use x="1603.474609" xlink:href="#DejaVuSans-50"/>
     <use x="1667.097656" xlink:href="#DejaVuSans-45"/>
     <use x="1703.181641" xlink:href="#DejaVuSans-48"/>
     <use x="1766.804688" xlink:href="#DejaVuSans-50"/>
     <use x="1830.427734" xlink:href="#DejaVuSans-32"/>
     <use x="1862.214844" xlink:href="#DejaVuSans-126"/>
     <use x="1946.003906" xlink:href="#DejaVuSans-32"/>
     <use x="1977.791016" xlink:href="#DejaVuSans-50"/>
     <use x="2041.414062" xlink:href="#DejaVuSans-48"/>
     <use x="2105.037109" xlink:href="#DejaVuSans-49"/>
     <use x="2168.660156" xlink:href="#DejaVuSans-48"/>
     <use x="2232.283203" xlink:href="#DejaVuSans-45"/>
     <use x="2268.367188" xlink:href="#DejaVuSans-49"/>
     <use x="2331.990234" xlink:href="#DejaVuSans-48"/>
     <use x="2395.613281" xlink:href="#DejaVuSans-45"/>
     <use x="2431.697266" xlink:href="#DejaVuSans-48"/>
     <use x="2495.320312" xlink:href="#DejaVuSans-56"/>
     <use x="2558.943359" xlink:href="#DejaVuSans-41"/>
    </g>
   </g>
   <g id="legend_1">
    <g id="patch_7">
     <path d="M 57.9 123.379375 
L 154.389062 123.379375 
Q 156.389062 123.379375 156.389062 121.379375 
L 156.389062 32.92 
Q 156.389062 30.92 154.389062 30.92 
L 57.9 30.92 
Q 55.9 30.92 55.9 32.92 
L 55.9 121.379375 
Q 55.9 123.379375 57.9 123.379375 
z
" style="fill:#ffffff;opacity:0.8;stroke:#cccccc;stroke-linejoin:miter;"/>
    </g>
    <g id="line2d_19">
     <path d="M 59.9 39.018438 
L 79.9 39.018438 
" style="fill:none;stroke:#9467bd;stroke-linecap:square;stroke-width:1.5;"/>
    </g>
    <g id="line2d_20"/>
    <g id="text_9">
     <!-- group_5 -->
     <g transform="translate(87.9 42.518438)scale(0.1 -0.1)">
      <defs>
       <path d="M 18.109375 8.203125 
L 18.109375 -20.796875 
L 9.078125 -20.796875 
L 9.078125 54.6875 
L 18.109375 54.6875 
L 18.109375 46.390625 
Q 20.953125 51.265625 25.265625 53.625 
Q 29.59375 56 35.59375 56 
Q 45.5625 56 51.78125 48.09375 
Q 58.015625 40.1875 58.015625 27.296875 
Q 58.015625 14.40625 51.78125 6.484375 
Q 45.5625 -1.421875 35.59375 -1.421875 
Q 29.59375 -1.421875 25.265625 0.953125 
Q 20.953125 3.328125 18.109375 8.203125 
z
M 48.6875 27.296875 
Q 48.6875 37.203125 44.609375 42.84375 
Q 40.53125 48.484375 33.40625 48.484375 
Q 26.265625 48.484375 22.1875 42.84375 
Q 18.109375 37.203125 18.109375 27.296875 
Q 18.109375 17.390625 22.1875 11.75 
Q 26.265625 6.109375 33.40625 6.109375 
Q 40.53125 6.109375 44.609375 11.75 
Q 48.6875 17.390625 48.6875 27.296875 
z
" id="DejaVuSans-112"/>
       <path d="M 50.984375 -16.609375 
L 50.984375 -23.578125 
L -0.984375 -23.578125 
L -0.984375 -16.609375 
z
" id="DejaVuSans-95"/>
       <path d="M 10.796875 72.90625 
L 49.515625 72.90625 
L 49.515625 64.59375 
L 19.828125 64.59375 
L 19.828125 46.734375 
Q 21.96875 47.46875 24.109375 47.828125 
Q 26.265625 48.1875 28.421875 48.1875 
Q 40.625 48.1875 47.75 41.5 
Q 54.890625 34.8125 54.890625 23.390625 
Q 54.890625 11.625 47.5625 5.09375 
Q 40.234375 -1.421875 26.90625 -1.421875 
Q 22.3125 -1.421875 17.546875 -0.640625 
Q 12.796875 0.140625 7.71875 1.703125 
L 7.71875 11.625 
Q 12.109375 9.234375 16.796875 8.0625 
Q 21.484375 6.890625 26.703125 6.890625 
Q 35.15625 6.890625 40.078125 11.328125 
Q 45.015625 15.765625 45.015625 23.390625 
Q 45.015625 31 40.078125 35.4375 
Q 35.15625 39.890625 26.703125 39.890625 
Q 22.75 39.890625 18.8125 39.015625 
Q 14.890625 38.140625 10.796875 36.28125 
z
" id="DejaVuSans-53"/>
      </defs>
      <use xlink:href="#DejaVuSans-103"/>
      <use x="63.476562" xlink:href="#DejaVuSans-114"/>
      <use x="102.339844" xlink:href="#DejaVuSans-111"/>
      <use x="163.521484" xlink:href="#DejaVuSans-117"/>
      <use x="226.900391" xlink:href="#DejaVuSans-112"/>
      <use x="290.376953" xlink:href="#DejaVuSans-95"/>
      <use x="340.376953" xlink:href="#DejaVuSans-53"/>
     </g>
    </g>
    <g id="line2d_21">
     <path d="M 59.9 53.974688 
L 79.9 53.974688 
" style="fill:none;stroke:#1f77b4;stroke-linecap:square;stroke-width:1.5;"/>
    </g>
    <g id="line2d_22"/>
    <g id="text_10">
     <!-- group_1 -->
     <g transform="translate(87.9 57.474688)scale(0.1 -0.1)">
      <use xlink:href="#DejaVuSans-103"/>
      <use x="63.476562" xlink:href="#DejaVuSans-114"/>
      <use x="102.339844" xlink:href="#DejaVuSans-111"/>
      <use x="163.521484" xlink:href="#DejaVuSans-117"/>
      <use x="226.900391" xlink:href="#DejaVuSans-112"/>
      <use x="290.376953" xlink:href="#DejaVuSans-95"/>
      <use x="340.376953" xlink:href="#DejaVuSans-49"/>
     </g>
    </g>
    <g id="line2d_23">
     <path d="M 59.9 68.930938 
L 79.9 68.930938 
" style="fill:none;stroke:#8c564b;stroke-linecap:square;stroke-width:1.5;"/>
    </g>
    <g id="line2d_24"/>
    <g id="text_11">
     <!-- benchmark -->
     <g transform="translate(87.9 72.430938)scale(0.1 -0.1)">
      <defs>
       <path d="M 48.6875 27.296875 
Q 48.6875 37.203125 44.609375 42.84375 
Q 40.53125 48.484375 33.40625 48.484375 
Q 26.265625 48.484375 22.1875 42.84375 
Q 18.109375 37.203125 18.109375 27.296875 
Q 18.109375 17.390625 22.1875 11.75 
Q 26.265625 6.109375 33.40625 6.109375 
Q 40.53125 6.109375 44.609375 11.75 
Q 48.6875 17.390625 48.6875 27.296875 
z
M 18.109375 46.390625 
Q 20.953125 51.265625 25.265625 53.625 
Q 29.59375 56 35.59375 56 
Q 45.5625 56 51.78125 48.09375 
Q 58.015625 40.1875 58.015625 27.296875 
Q 58.015625 14.40625 51.78125 6.484375 
Q 45.5625 -1.421875 35.59375 -1.421875 
Q 29.59375 -1.421875 25.265625 0.953125 
Q 20.953125 3.328125 18.109375 8.203125 
L 18.109375 0 
L 9.078125 0 
L 9.078125 75.984375 
L 18.109375 75.984375 
z
" id="DejaVuSans-98"/>
       <path d="M 54.890625 33.015625 
L 54.890625 0 
L 45.90625 0 
L 45.90625 32.71875 
Q 45.90625 40.484375 42.875 44.328125 
Q 39.84375 48.1875 33.796875 48.1875 
Q 26.515625 48.1875 22.3125 43.546875 
Q 18.109375 38.921875 18.109375 30.90625 
L 18.109375 0 
L 9.078125 0 
L 9.078125 75.984375 
L 18.109375 75.984375 
L 18.109375 46.1875 
Q 21.34375 51.125 25.703125 53.5625 
Q 30.078125 56 35.796875 56 
Q 45.21875 56 50.046875 50.171875 
Q 54.890625 44.34375 54.890625 33.015625 
z
" id="DejaVuSans-104"/>
       <path d="M 9.078125 75.984375 
L 18.109375 75.984375 
L 18.109375 31.109375 
L 44.921875 54.6875 
L 56.390625 54.6875 
L 27.390625 29.109375 
L 57.625 0 
L 45.90625 0 
L 18.109375 26.703125 
L 18.109375 0 
L 9.078125 0 
z
" id="DejaVuSans-107"/>
      </defs>
      <use xlink:href="#DejaVuSans-98"/>
      <use x="63.476562" xlink:href="#DejaVuSans-101"/>
      <use x="125" xlink:href="#DejaVuSans-110"/>
      <use x="188.378906" xlink:href="#DejaVuSans-99"/>
      <use x="243.359375" xlink:href="#DejaVuSans-104"/>
      <use x="306.738281" xlink:href="#DejaVuSans-109"/>
      <use x="404.150391" xlink:href="#DejaVuSans-97"/>
      <use x="465.429688" xlink:href="#DejaVuSans-114"/>
      <use x="506.542969" xlink:href="#DejaVuSans-107"/>
     </g>
    </g>
    <g id="line2d_25">
     <path d="M 59.9 83.609062 
L 79.9 83.609062 
" style="fill:none;stroke:#e377c2;stroke-linecap:square;stroke-width:1.5;"/>
    </g>
    <g id="line2d_26"/>
    <g id="text_12">
     <!-- long_excess -->
     <g transform="translate(87.9 87.109062)scale(0.1 -0.1)">
      <defs>
       <path d="M 54.890625 54.6875 
L 35.109375 28.078125 
L 55.90625 0 
L 45.3125 0 
L 29.390625 21.484375 
L 13.484375 0 
L 2.875 0 
L 24.125 28.609375 
L 4.6875 54.6875 
L 15.28125 54.6875 
L 29.78125 35.203125 
L 44.28125 54.6875 
z
" id="DejaVuSans-120"/>
      </defs>
      <use xlink:href="#DejaVuSans-108"/>
      <use x="27.783203" xlink:href="#DejaVuSans-111"/>
      <use x="88.964844" xlink:href="#DejaVuSans-110"/>
      <use x="152.34375" xlink:href="#DejaVuSans-103"/>
      <use x="215.820312" xlink:href="#DejaVuSans-95"/>
      <use x="265.820312" xlink:href="#DejaVuSans-101"/>
      <use x="325.59375" xlink:href="#DejaVuSans-120"/>
      <use x="383.023438" xlink:href="#DejaVuSans-99"/>
      <use x="438.003906" xlink:href="#DejaVuSans-101"/>
      <use x="499.527344" xlink:href="#DejaVuSans-115"/>
      <use x="551.626953" xlink:href="#DejaVuSans-115"/>
     </g>
    </g>
    <g id="line2d_27">
     <path d="M 59.9 98.565313 
L 79.9 98.565313 
" style="fill:none;stroke:#7f7f7f;stroke-linecap:square;stroke-width:1.5;"/>
    </g>
    <g id="line2d_28"/>
    <g id="text_13">
     <!-- short_excess -->
     <g transform="translate(87.9 102.065313)scale(0.1 -0.1)">
      <use xlink:href="#DejaVuSans-115"/>
      <use x="52.099609" xlink:href="#DejaVuSans-104"/>
      <use x="115.478516" xlink:href="#DejaVuSans-111"/>
      <use x="176.660156" xlink:href="#DejaVuSans-114"/>
      <use x="217.773438" xlink:href="#DejaVuSans-116"/>
      <use x="256.982422" xlink:href="#DejaVuSans-95"/>
      <use x="306.982422" xlink:href="#DejaVuSans-101"/>
      <use x="366.755859" xlink:href="#DejaVuSans-120"/>
      <use x="424.185547" xlink:href="#DejaVuSans-99"/>
      <use x="479.166016" xlink:href="#DejaVuSans-101"/>
      <use x="540.689453" xlink:href="#DejaVuSans-115"/>
      <use x="592.789062" xlink:href="#DejaVuSans-115"/>
     </g>
    </g>
    <g id="line2d_29">
     <path d="M 59.9 113.521563 
L 79.9 113.521563 
" style="fill:none;stroke:#bcbd22;stroke-linecap:square;stroke-width:1.5;"/>
    </g>
    <g id="line2d_30"/>
    <g id="text_14">
     <!-- long_short -->
     <g transform="translate(87.9 117.021563)scale(0.1 -0.1)">
      <use xlink:href="#DejaVuSans-108"/>
      <use x="27.783203" xlink:href="#DejaVuSans-111"/>
      <use x="88.964844" xlink:href="#DejaVuSans-110"/>
      <use x="152.34375" xlink:href="#DejaVuSans-103"/>
      <use x="215.820312" xlink:href="#DejaVuSans-95"/>
      <use x="265.820312" xlink:href="#DejaVuSans-115"/>
      <use x="317.919922" xlink:href="#DejaVuSans-104"/>
      <use x="381.298828" xlink:href="#DejaVuSans-111"/>
      <use x="442.480469" xlink:href="#DejaVuSans-114"/>
      <use x="483.59375" xlink:href="#DejaVuSans-116"/>
     </g>
    </g>
   </g>
  </g>
 </g>
 <defs>
  <clipPath id="pe694ca118f">
   <rect height="319.78" width="1090.3" x="50.9" y="25.92"/>
  </clipPath>
 </defs>
</svg>
