<?xml version="1.0" encoding="utf-8" standalone="no"?>
<!DOCTYPE svg PUBLIC "-//W3C//DTD SVG 1.1//EN"
  "http://www.w3.org/Graphics/SVG/1.1/DTD/svg11.dtd">
<!-- Created with matplotlib (https://matplotlib.org/) -->
<svg height="374.4pt" version="1.1" viewBox="0 0 1152 374.4" width="1152pt" xmlns="http://www.w3.org/2000/svg" xmlns:xlink="http://www.w3.org/1999/xlink">
 <metadata>
  <rdf:RDF xmlns:cc="http://creativecommons.org/ns#" xmlns:dc="http://purl.org/dc/elements/1.1/" xmlns:rdf="http://www.w3.org/1999/02/22-rdf-syntax-ns#">
   <cc:Work>
    <dc:type rdf:resource="http://purl.org/dc/dcmitype/StillImage"/>
    <dc:date>2023-10-11T16:36:31.303493</dc:date>
    <dc:format>image/svg+xml</dc:format>
    <dc:creator>
     <cc:Agent>
      <dc:title>Matplotlib v3.3.4, https://matplotlib.org/</dc:title>
     </cc:Agent>
    </dc:creator>
   </cc:Work>
  </rdf:RDF>
 </metadata>
 <defs>
  <style type="text/css">*{stroke-linecap:butt;stroke-linejoin:round;}</style>
 </defs>
 <g id="figure_1">
  <g id="patch_1">
   <path d="M 0 374.4 
L 1152 374.4 
L 1152 0 
L 0 0 
z
" style="fill:#ffffff;"/>
  </g>
  <g id="axes_1">
   <g id="patch_2">
    <path d="M 47.36 360.1 
L 1141.2 360.1 
L 1141.2 25.92 
L 47.36 25.92 
z
" style="fill:#ffffff;"/>
   </g>
   <g id="matplotlib.axis_1"/>
   <g id="matplotlib.axis_2">
    <g id="ytick_1">
     <g id="line2d_1">
      <path clip-path="url(#pded7f5debb)" d="M 47.36 340.580161 
L 1141.2 340.580161 
" style="fill:none;stroke:#b0b0b0;stroke-linecap:square;stroke-width:0.8;"/>
     </g>
     <g id="line2d_2">
      <defs>
       <path d="M 0 0 
L -3.5 0 
" id="me3ec9df6f5" style="stroke:#000000;stroke-width:0.8;"/>
      </defs>
      <g>
       <use style="stroke:#000000;stroke-width:0.8;" x="47.36" xlink:href="#me3ec9df6f5" y="340.580161"/>
      </g>
     </g>
     <g id="text_1">
      <!-- 0.6 -->
      <g transform="translate(24.456875 344.379379)scale(0.1 -0.1)">
       <defs>
        <path d="M 31.78125 66.40625 
Q 24.171875 66.40625 20.328125 58.90625 
Q 16.5 51.421875 16.5 36.375 
Q 16.5 21.390625 20.328125 13.890625 
Q 24.171875 6.390625 31.78125 6.390625 
Q 39.453125 6.390625 43.28125 13.890625 
Q 47.125 21.390625 47.125 36.375 
Q 47.125 51.421875 43.28125 58.90625 
Q 39.453125 66.40625 31.78125 66.40625 
z
M 31.78125 74.21875 
Q 44.046875 74.21875 50.515625 64.515625 
Q 56.984375 54.828125 56.984375 36.375 
Q 56.984375 17.96875 50.515625 8.265625 
Q 44.046875 -1.421875 31.78125 -1.421875 
Q 19.53125 -1.421875 13.0625 8.265625 
Q 6.59375 17.96875 6.59375 36.375 
Q 6.59375 54.828125 13.0625 64.515625 
Q 19.53125 74.21875 31.78125 74.21875 
z
" id="DejaVuSans-48"/>
        <path d="M 10.6875 12.40625 
L 21 12.40625 
L 21 0 
L 10.6875 0 
z
" id="DejaVuSans-46"/>
        <path d="M 33.015625 40.375 
Q 26.375 40.375 22.484375 35.828125 
Q 18.609375 31.296875 18.609375 23.390625 
Q 18.609375 15.53125 22.484375 10.953125 
Q 26.375 6.390625 33.015625 6.390625 
Q 39.65625 6.390625 43.53125 10.953125 
Q 47.40625 15.53125 47.40625 23.390625 
Q 47.40625 31.296875 43.53125 35.828125 
Q 39.65625 40.375 33.015625 40.375 
z
M 52.59375 71.296875 
L 52.59375 62.3125 
Q 48.875 64.0625 45.09375 64.984375 
Q 41.3125 65.921875 37.59375 65.921875 
Q 27.828125 65.921875 22.671875 59.328125 
Q 17.53125 52.734375 16.796875 39.40625 
Q 19.671875 43.65625 24.015625 45.921875 
Q 28.375 48.1875 33.59375 48.1875 
Q 44.578125 48.1875 50.953125 41.515625 
Q 57.328125 34.859375 57.328125 23.390625 
Q 57.328125 12.15625 50.6875 5.359375 
Q 44.046875 -1.421875 33.015625 -1.421875 
Q 20.359375 -1.421875 13.671875 8.265625 
Q 6.984375 17.96875 6.984375 36.375 
Q 6.984375 53.65625 15.1875 63.9375 
Q 23.390625 74.21875 37.203125 74.21875 
Q 40.921875 74.21875 44.703125 73.484375 
Q 48.484375 72.75 52.59375 71.296875 
z
" id="DejaVuSans-54"/>
       </defs>
       <use xlink:href="#DejaVuSans-48"/>
       <use x="63.623047" xlink:href="#DejaVuSans-46"/>
       <use x="95.410156" xlink:href="#DejaVuSans-54"/>
      </g>
     </g>
    </g>
    <g id="ytick_2">
     <g id="line2d_3">
      <path clip-path="url(#pded7f5debb)" d="M 47.36 299.043899 
L 1141.2 299.043899 
" style="fill:none;stroke:#b0b0b0;stroke-linecap:square;stroke-width:0.8;"/>
     </g>
     <g id="line2d_4">
      <g>
       <use style="stroke:#000000;stroke-width:0.8;" x="47.36" xlink:href="#me3ec9df6f5" y="299.043899"/>
      </g>
     </g>
     <g id="text_2">
      <!-- 0.8 -->
      <g transform="translate(24.456875 302.843118)scale(0.1 -0.1)">
       <defs>
        <path d="M 31.78125 34.625 
Q 24.75 34.625 20.71875 30.859375 
Q 16.703125 27.09375 16.703125 20.515625 
Q 16.703125 13.921875 20.71875 10.15625 
Q 24.75 6.390625 31.78125 6.390625 
Q 38.8125 6.390625 42.859375 10.171875 
Q 46.921875 13.96875 46.921875 20.515625 
Q 46.921875 27.09375 42.890625 30.859375 
Q 38.875 34.625 31.78125 34.625 
z
M 21.921875 38.8125 
Q 15.578125 40.375 12.03125 44.71875 
Q 8.5 49.078125 8.5 55.328125 
Q 8.5 64.0625 14.71875 69.140625 
Q 20.953125 74.21875 31.78125 74.21875 
Q 42.671875 74.21875 48.875 69.140625 
Q 55.078125 64.0625 55.078125 55.328125 
Q 55.078125 49.078125 51.53125 44.71875 
Q 48 40.375 41.703125 38.8125 
Q 48.828125 37.15625 52.796875 32.3125 
Q 56.78125 27.484375 56.78125 20.515625 
Q 56.78125 9.90625 50.3125 4.234375 
Q 43.84375 -1.421875 31.78125 -1.421875 
Q 19.734375 -1.421875 13.25 4.234375 
Q 6.78125 9.90625 6.78125 20.515625 
Q 6.78125 27.484375 10.78125 32.3125 
Q 14.796875 37.15625 21.921875 38.8125 
z
M 18.3125 54.390625 
Q 18.3125 48.734375 21.84375 45.5625 
Q 25.390625 42.390625 31.78125 42.390625 
Q 38.140625 42.390625 41.71875 45.5625 
Q 45.3125 48.734375 45.3125 54.390625 
Q 45.3125 60.0625 41.71875 63.234375 
Q 38.140625 66.40625 31.78125 66.40625 
Q 25.390625 66.40625 21.84375 63.234375 
Q 18.3125 60.0625 18.3125 54.390625 
z
" id="DejaVuSans-56"/>
       </defs>
       <use xlink:href="#DejaVuSans-48"/>
       <use x="63.623047" xlink:href="#DejaVuSans-46"/>
       <use x="95.410156" xlink:href="#DejaVuSans-56"/>
      </g>
     </g>
    </g>
    <g id="ytick_3">
     <g id="line2d_5">
      <path clip-path="url(#pded7f5debb)" d="M 47.36 257.507638 
L 1141.2 257.507638 
" style="fill:none;stroke:#b0b0b0;stroke-linecap:square;stroke-width:0.8;"/>
     </g>
     <g id="line2d_6">
      <g>
       <use style="stroke:#000000;stroke-width:0.8;" x="47.36" xlink:href="#me3ec9df6f5" y="257.507638"/>
      </g>
     </g>
     <g id="text_3">
      <!-- 1.0 -->
      <g transform="translate(24.456875 261.306857)scale(0.1 -0.1)">
       <defs>
        <path d="M 12.40625 8.296875 
L 28.515625 8.296875 
L 28.515625 63.921875 
L 10.984375 60.40625 
L 10.984375 69.390625 
L 28.421875 72.90625 
L 38.28125 72.90625 
L 38.28125 8.296875 
L 54.390625 8.296875 
L 54.390625 0 
L 12.40625 0 
z
" id="DejaVuSans-49"/>
       </defs>
       <use xlink:href="#DejaVuSans-49"/>
       <use x="63.623047" xlink:href="#DejaVuSans-46"/>
       <use x="95.410156" xlink:href="#DejaVuSans-48"/>
      </g>
     </g>
    </g>
    <g id="ytick_4">
     <g id="line2d_7">
      <path clip-path="url(#pded7f5debb)" d="M 47.36 215.971377 
L 1141.2 215.971377 
" style="fill:none;stroke:#b0b0b0;stroke-linecap:square;stroke-width:0.8;"/>
     </g>
     <g id="line2d_8">
      <g>
       <use style="stroke:#000000;stroke-width:0.8;" x="47.36" xlink:href="#me3ec9df6f5" y="215.971377"/>
      </g>
     </g>
     <g id="text_4">
      <!-- 1.2 -->
      <g transform="translate(24.456875 219.770596)scale(0.1 -0.1)">
       <defs>
        <path d="M 19.1875 8.296875 
L 53.609375 8.296875 
L 53.609375 0 
L 7.328125 0 
L 7.328125 8.296875 
Q 12.9375 14.109375 22.625 23.890625 
Q 32.328125 33.6875 34.8125 36.53125 
Q 39.546875 41.84375 41.421875 45.53125 
Q 43.3125 49.21875 43.3125 52.78125 
Q 43.3125 58.59375 39.234375 62.25 
Q 35.15625 65.921875 28.609375 65.921875 
Q 23.96875 65.921875 18.8125 64.3125 
Q 13.671875 62.703125 7.8125 59.421875 
L 7.8125 69.390625 
Q 13.765625 71.78125 18.9375 73 
Q 24.125 74.21875 28.421875 74.21875 
Q 39.75 74.21875 46.484375 68.546875 
Q 53.21875 62.890625 53.21875 53.421875 
Q 53.21875 48.921875 51.53125 44.890625 
Q 49.859375 40.875 45.40625 35.40625 
Q 44.1875 33.984375 37.640625 27.21875 
Q 31.109375 20.453125 19.1875 8.296875 
z
" id="DejaVuSans-50"/>
       </defs>
       <use xlink:href="#DejaVuSans-49"/>
       <use x="63.623047" xlink:href="#DejaVuSans-46"/>
       <use x="95.410156" xlink:href="#DejaVuSans-50"/>
      </g>
     </g>
    </g>
    <g id="ytick_5">
     <g id="line2d_9">
      <path clip-path="url(#pded7f5debb)" d="M 47.36 174.435116 
L 1141.2 174.435116 
" style="fill:none;stroke:#b0b0b0;stroke-linecap:square;stroke-width:0.8;"/>
     </g>
     <g id="line2d_10">
      <g>
       <use style="stroke:#000000;stroke-width:0.8;" x="47.36" xlink:href="#me3ec9df6f5" y="174.435116"/>
      </g>
     </g>
     <g id="text_5">
      <!-- 1.4 -->
      <g transform="translate(24.456875 178.234335)scale(0.1 -0.1)">
       <defs>
        <path d="M 37.796875 64.3125 
L 12.890625 25.390625 
L 37.796875 25.390625 
z
M 35.203125 72.90625 
L 47.609375 72.90625 
L 47.609375 25.390625 
L 58.015625 25.390625 
L 58.015625 17.1875 
L 47.609375 17.1875 
L 47.609375 0 
L 37.796875 0 
L 37.796875 17.1875 
L 4.890625 17.1875 
L 4.890625 26.703125 
z
" id="DejaVuSans-52"/>
       </defs>
       <use xlink:href="#DejaVuSans-49"/>
       <use x="63.623047" xlink:href="#DejaVuSans-46"/>
       <use x="95.410156" xlink:href="#DejaVuSans-52"/>
      </g>
     </g>
    </g>
    <g id="ytick_6">
     <g id="line2d_11">
      <path clip-path="url(#pded7f5debb)" d="M 47.36 132.898855 
L 1141.2 132.898855 
" style="fill:none;stroke:#b0b0b0;stroke-linecap:square;stroke-width:0.8;"/>
     </g>
     <g id="line2d_12">
      <g>
       <use style="stroke:#000000;stroke-width:0.8;" x="47.36" xlink:href="#me3ec9df6f5" y="132.898855"/>
      </g>
     </g>
     <g id="text_6">
      <!-- 1.6 -->
      <g transform="translate(24.456875 136.698074)scale(0.1 -0.1)">
       <use xlink:href="#DejaVuSans-49"/>
       <use x="63.623047" xlink:href="#DejaVuSans-46"/>
       <use x="95.410156" xlink:href="#DejaVuSans-54"/>
      </g>
     </g>
    </g>
    <g id="ytick_7">
     <g id="line2d_13">
      <path clip-path="url(#pded7f5debb)" d="M 47.36 91.362594 
L 1141.2 91.362594 
" style="fill:none;stroke:#b0b0b0;stroke-linecap:square;stroke-width:0.8;"/>
     </g>
     <g id="line2d_14">
      <g>
       <use style="stroke:#000000;stroke-width:0.8;" x="47.36" xlink:href="#me3ec9df6f5" y="91.362594"/>
      </g>
     </g>
     <g id="text_7">
      <!-- 1.8 -->
      <g transform="translate(24.456875 95.161813)scale(0.1 -0.1)">
       <use xlink:href="#DejaVuSans-49"/>
       <use x="63.623047" xlink:href="#DejaVuSans-46"/>
       <use x="95.410156" xlink:href="#DejaVuSans-56"/>
      </g>
     </g>
    </g>
    <g id="ytick_8">
     <g id="line2d_15">
      <path clip-path="url(#pded7f5debb)" d="M 47.36 49.826333 
L 1141.2 49.826333 
" style="fill:none;stroke:#b0b0b0;stroke-linecap:square;stroke-width:0.8;"/>
     </g>
     <g id="line2d_16">
      <g>
       <use style="stroke:#000000;stroke-width:0.8;" x="47.36" xlink:href="#me3ec9df6f5" y="49.826333"/>
      </g>
     </g>
     <g id="text_8">
      <!-- 2.0 -->
      <g transform="translate(24.456875 53.625551)scale(0.1 -0.1)">
       <use xlink:href="#DejaVuSans-50"/>
       <use x="63.623047" xlink:href="#DejaVuSans-46"/>
       <use x="95.410156" xlink:href="#DejaVuSans-48"/>
      </g>
     </g>
    </g>
    <g id="text_9">
     <!-- net value -->
     <g transform="translate(18.377187 216.462344)rotate(-90)scale(0.1 -0.1)">
      <defs>
       <path d="M 54.890625 33.015625 
L 54.890625 0 
L 45.90625 0 
L 45.90625 32.71875 
Q 45.90625 40.484375 42.875 44.328125 
Q 39.84375 48.1875 33.796875 48.1875 
Q 26.515625 48.1875 22.3125 43.546875 
Q 18.109375 38.921875 18.109375 30.90625 
L 18.109375 0 
L 9.078125 0 
L 9.078125 54.6875 
L 18.109375 54.6875 
L 18.109375 46.1875 
Q 21.34375 51.125 25.703125 53.5625 
Q 30.078125 56 35.796875 56 
Q 45.21875 56 50.046875 50.171875 
Q 54.890625 44.34375 54.890625 33.015625 
z
" id="DejaVuSans-110"/>
       <path d="M 56.203125 29.59375 
L 56.203125 25.203125 
L 14.890625 25.203125 
Q 15.484375 15.921875 20.484375 11.0625 
Q 25.484375 6.203125 34.421875 6.203125 
Q 39.59375 6.203125 44.453125 7.46875 
Q 49.3125 8.734375 54.109375 11.28125 
L 54.109375 2.78125 
Q 49.265625 0.734375 44.1875 -0.34375 
Q 39.109375 -1.421875 33.890625 -1.421875 
Q 20.796875 -1.421875 13.15625 6.1875 
Q 5.515625 13.8125 5.515625 26.8125 
Q 5.515625 40.234375 12.765625 48.109375 
Q 20.015625 56 32.328125 56 
Q 43.359375 56 49.78125 48.890625 
Q 56.203125 41.796875 56.203125 29.59375 
z
M 47.21875 32.234375 
Q 47.125 39.59375 43.09375 43.984375 
Q 39.0625 48.390625 32.421875 48.390625 
Q 24.90625 48.390625 20.390625 44.140625 
Q 15.875 39.890625 15.1875 32.171875 
z
" id="DejaVuSans-101"/>
       <path d="M 18.3125 70.21875 
L 18.3125 54.6875 
L 36.8125 54.6875 
L 36.8125 47.703125 
L 18.3125 47.703125 
L 18.3125 18.015625 
Q 18.3125 11.328125 20.140625 9.421875 
Q 21.96875 7.515625 27.59375 7.515625 
L 36.8125 7.515625 
L 36.8125 0 
L 27.59375 0 
Q 17.1875 0 13.234375 3.875 
Q 9.28125 7.765625 9.28125 18.015625 
L 9.28125 47.703125 
L 2.6875 47.703125 
L 2.6875 54.6875 
L 9.28125 54.6875 
L 9.28125 70.21875 
z
" id="DejaVuSans-116"/>
       <path id="DejaVuSans-32"/>
       <path d="M 2.984375 54.6875 
L 12.5 54.6875 
L 29.59375 8.796875 
L 46.6875 54.6875 
L 56.203125 54.6875 
L 35.6875 0 
L 23.484375 0 
z
" id="DejaVuSans-118"/>
       <path d="M 34.28125 27.484375 
Q 23.390625 27.484375 19.1875 25 
Q 14.984375 22.515625 14.984375 16.5 
Q 14.984375 11.71875 18.140625 8.90625 
Q 21.296875 6.109375 26.703125 6.109375 
Q 34.1875 6.109375 38.703125 11.40625 
Q 43.21875 16.703125 43.21875 25.484375 
L 43.21875 27.484375 
z
M 52.203125 31.203125 
L 52.203125 0 
L 43.21875 0 
L 43.21875 8.296875 
Q 40.140625 3.328125 35.546875 0.953125 
Q 30.953125 -1.421875 24.3125 -1.421875 
Q 15.921875 -1.421875 10.953125 3.296875 
Q 6 8.015625 6 15.921875 
Q 6 25.140625 12.171875 29.828125 
Q 18.359375 34.515625 30.609375 34.515625 
L 43.21875 34.515625 
L 43.21875 35.40625 
Q 43.21875 41.609375 39.140625 45 
Q 35.0625 48.390625 27.6875 48.390625 
Q 23 48.390625 18.546875 47.265625 
Q 14.109375 46.140625 10.015625 43.890625 
L 10.015625 52.203125 
Q 14.9375 54.109375 19.578125 55.046875 
Q 24.21875 56 28.609375 56 
Q 40.484375 56 46.34375 49.84375 
Q 52.203125 43.703125 52.203125 31.203125 
z
" id="DejaVuSans-97"/>
       <path d="M 9.421875 75.984375 
L 18.40625 75.984375 
L 18.40625 0 
L 9.421875 0 
z
" id="DejaVuSans-108"/>
       <path d="M 8.5 21.578125 
L 8.5 54.6875 
L 17.484375 54.6875 
L 17.484375 21.921875 
Q 17.484375 14.15625 20.5 10.265625 
Q 23.53125 6.390625 29.59375 6.390625 
Q 36.859375 6.390625 41.078125 11.03125 
Q 45.3125 15.671875 45.3125 23.6875 
L 45.3125 54.6875 
L 54.296875 54.6875 
L 54.296875 0 
L 45.3125 0 
L 45.3125 8.40625 
Q 42.046875 3.421875 37.71875 1 
Q 33.40625 -1.421875 27.6875 -1.421875 
Q 18.265625 -1.421875 13.375 4.4375 
Q 8.5 10.296875 8.5 21.578125 
z
M 31.109375 56 
z
" id="DejaVuSans-117"/>
      </defs>
      <use xlink:href="#DejaVuSans-110"/>
      <use x="63.378906" xlink:href="#DejaVuSans-101"/>
      <use x="124.902344" xlink:href="#DejaVuSans-116"/>
      <use x="164.111328" xlink:href="#DejaVuSans-32"/>
      <use x="195.898438" xlink:href="#DejaVuSans-118"/>
      <use x="255.078125" xlink:href="#DejaVuSans-97"/>
      <use x="316.357422" xlink:href="#DejaVuSans-108"/>
      <use x="344.140625" xlink:href="#DejaVuSans-117"/>
      <use x="407.519531" xlink:href="#DejaVuSans-101"/>
     </g>
    </g>
   </g>
   <g id="line2d_17">
    <path clip-path="url(#pded7f5debb)" d="M 97.08 267.70439 
L 101.089677 271.06037 
L 105.099355 277.615431 
L 109.109032 286.430825 
L 121.138065 270.341291 
L 125.147742 258.923705 
L 129.157419 252.711788 
L 133.167097 265.429662 
L 137.176774 263.123223 
L 149.205806 275.207511 
L 153.215484 281.242232 
L 157.225161 268.214745 
L 161.234839 281.912633 
L 165.244516 275.746692 
L 177.273548 283.669979 
L 181.283226 292.91291 
L 185.292903 283.511762 
L 189.302581 279.015896 
L 193.312258 273.86071 
L 205.34129 273.11874 
L 209.350968 280.242506 
L 213.360645 268.226675 
L 217.370323 264.364768 
L 221.38 267.422271 
L 233.409032 258.313993 
L 237.41871 265.555909 
L 241.428387 276.519005 
L 245.438065 264.87633 
L 249.447742 254.447164 
L 261.476774 266.910977 
L 265.486452 262.392068 
L 269.496129 264.483585 
L 273.505806 273.191144 
L 277.515484 270.012405 
L 289.544516 259.688593 
L 293.554194 251.417223 
L 297.563871 236.138681 
L 301.573548 242.970172 
L 305.583226 250.539302 
L 317.612258 252.540714 
L 321.621935 258.89568 
L 325.631613 255.516037 
L 329.64129 265.431344 
L 333.650968 274.870173 
L 345.68 273.779294 
L 349.689677 274.544283 
L 353.699355 275.468071 
L 357.709032 272.053433 
L 361.71871 276.003288 
L 373.747742 271.808045 
L 377.757419 276.083838 
L 381.767097 276.261215 
L 385.776774 283.367971 
L 389.786452 275.242941 
L 401.815484 276.951826 
L 405.825161 281.440487 
L 409.834839 266.756108 
L 413.844516 274.297843 
L 417.854194 271.613443 
L 429.883226 262.497918 
L 433.892903 278.698975 
L 437.902581 278.053389 
L 441.912258 265.83927 
L 445.921935 261.756239 
L 457.950968 252.774744 
L 461.960645 264.599162 
L 465.970323 259.968199 
L 469.98 269.648365 
L 473.989677 263.252448 
L 486.01871 269.865858 
L 490.028387 282.817912 
L 494.038065 285.491508 
L 498.047742 278.567545 
L 502.057419 263.962541 
L 514.086452 268.85566 
L 518.096129 265.801071 
L 522.105806 265.890359 
L 526.115484 261.27953 
L 530.125161 262.916625 
L 542.154194 269.304009 
L 546.163871 271.135307 
L 550.173548 269.968634 
L 554.183226 262.551298 
L 558.192903 267.559055 
L 570.221935 260.224983 
L 574.231613 259.994146 
L 578.24129 269.652325 
L 582.250968 256.180547 
L 586.260645 274.167841 
L 598.289677 288.129781 
L 602.299355 274.867588 
L 606.309032 287.031738 
L 610.31871 288.336605 
L 614.328387 280.665152 
L 626.357419 292.275249 
L 630.367097 303.523329 
L 634.376774 303.107646 
L 638.386452 313.247798 
L 642.396129 312.063254 
L 654.425161 310.029285 
L 658.434839 309.578218 
L 662.444516 304.122497 
L 666.454194 299.503586 
L 682.492903 302.880135 
L 686.502581 310.715064 
L 690.512258 315.465219 
L 694.521935 314.588444 
L 698.531613 306.9708 
L 710.560645 301.771421 
L 714.570323 296.777179 
L 718.58 305.930541 
L 722.589677 300.063962 
L 726.599355 299.743924 
L 738.628387 295.84167 
L 742.638065 287.33903 
L 746.647742 282.069831 
L 750.657419 269.290066 
L 754.667097 270.23183 
L 766.696129 277.882278 
L 770.705806 279.202261 
L 774.715484 277.853695 
L 778.725161 274.772367 
L 782.734839 282.016345 
L 794.763871 286.848974 
L 798.773548 294.311811 
L 802.783226 285.730106 
L 806.792903 287.635813 
L 810.802581 276.53295 
L 822.831613 270.096958 
L 826.84129 271.812793 
L 830.850968 259.223147 
L 834.860645 273.358519 
L 838.870323 269.68093 
L 850.899355 267.530712 
L 854.909032 283.228203 
L 858.91871 273.227919 
L 862.928387 275.062859 
L 866.938065 273.491789 
L 878.967097 286.250415 
L 882.976774 294.195774 
L 886.986452 297.235255 
L 890.996129 293.933103 
L 895.005806 304.34151 
L 907.034839 303.268274 
L 911.044516 311.005029 
L 915.054194 317.927722 
L 919.063871 322.404063 
L 923.073548 328.664857 
L 935.102581 336.256159 
L 939.112258 330.362941 
L 943.121935 333.82687 
L 947.131613 323.747512 
L 951.14129 325.574205 
L 963.170323 321.96077 
L 967.18 325.469586 
L 971.189677 334.242484 
L 975.199355 344.91 
L 979.209032 341.703325 
L 991.238065 335.342123 
L 995.247742 338.042197 
L 999.257419 340.930247 
L 1003.267097 332.609652 
L 1007.276774 329.198524 
L 1019.305806 335.962807 
L 1023.315484 335.433967 
L 1027.325161 339.43399 
L 1031.334839 338.826975 
L 1035.344516 340.478556 
L 1047.373548 334.634808 
L 1051.383226 326.872977 
L 1055.392903 329.244889 
L 1059.402581 337.559923 
L 1063.412258 333.795714 
L 1075.44129 339.348524 
L 1079.450968 343.223877 
L 1083.460645 334.314044 
L 1087.470323 322.365776 
L 1091.48 315.574251 
L 1091.48 315.574251 
" style="fill:none;stroke:#1f77b4;stroke-linecap:square;stroke-width:1.5;"/>
   </g>
   <g id="line2d_18">
    <path clip-path="url(#pded7f5debb)" d="M 97.08 257.975804 
L 101.089677 262.716073 
L 105.099355 274.139651 
L 109.109032 259.559875 
L 121.138065 251.382675 
L 125.147742 261.125661 
L 129.157419 245.196647 
L 133.167097 236.168879 
L 137.176774 222.909712 
L 149.205806 237.137998 
L 153.215484 235.367525 
L 157.225161 244.556818 
L 161.234839 260.365839 
L 165.244516 256.688239 
L 177.273548 262.612703 
L 181.283226 259.45992 
L 185.292903 253.991039 
L 189.302581 248.08095 
L 193.312258 250.571394 
L 205.34129 253.510583 
L 209.350968 247.857968 
L 213.360645 262.480261 
L 217.370323 266.211681 
L 221.38 273.064162 
L 233.409032 289.794353 
L 237.41871 292.058011 
L 241.428387 290.846297 
L 245.438065 300.987742 
L 249.447742 297.650359 
L 261.476774 302.471378 
L 265.486452 302.372885 
L 269.496129 300.217934 
L 273.505806 301.213506 
L 277.515484 299.650639 
L 289.544516 294.7485 
L 293.554194 302.53874 
L 297.563871 292.615775 
L 301.573548 294.006251 
L 305.583226 291.667347 
L 317.612258 285.418118 
L 321.621935 279.610642 
L 325.631613 274.667108 
L 329.64129 266.494563 
L 333.650968 252.131948 
L 345.68 240.676253 
L 353.699355 219.815639 
L 357.709032 210.783896 
L 361.71871 211.307827 
L 373.747742 217.960164 
L 377.757419 229.658189 
L 381.767097 233.133886 
L 385.776774 232.706856 
L 389.786452 231.615435 
L 401.815484 237.479844 
L 405.825161 234.335127 
L 409.834839 228.112644 
L 413.844516 210.114239 
L 417.854194 208.752051 
L 429.883226 218.627027 
L 433.892903 224.179711 
L 437.902581 223.123148 
L 441.912258 215.893214 
L 445.921935 222.004501 
L 457.950968 202.963835 
L 461.960645 205.520106 
L 465.970323 187.124667 
L 469.98 184.156534 
L 473.989677 168.161646 
L 486.01871 165.686208 
L 490.028387 177.346611 
L 494.038065 191.217824 
L 498.047742 210.183806 
L 502.057419 232.139133 
L 514.086452 227.308543 
L 518.096129 240.003578 
L 522.105806 226.243912 
L 526.115484 208.042888 
L 530.125161 199.174418 
L 542.154194 199.693794 
L 546.163871 208.606337 
L 550.173548 211.990522 
L 554.183226 217.202555 
L 558.192903 205.426717 
L 570.221935 200.603744 
L 574.231613 209.116854 
L 578.24129 204.678423 
L 582.250968 202.967892 
L 586.260645 190.535954 
L 598.289677 190.84342 
L 602.299355 187.464592 
L 606.309032 198.465865 
L 610.31871 206.137496 
L 614.328387 193.641321 
L 626.357419 195.328771 
L 630.367097 188.979476 
L 634.376774 196.495101 
L 638.386452 194.879669 
L 642.396129 205.298855 
L 654.425161 202.690754 
L 658.434839 185.489265 
L 662.444516 188.996195 
L 666.454194 204.657677 
L 670.463871 210.670833 
L 682.492903 215.646162 
L 686.502581 227.139618 
L 690.512258 235.174024 
L 694.521935 233.90565 
L 698.531613 247.656671 
L 710.560645 246.343147 
L 714.570323 251.344336 
L 718.58 238.34424 
L 722.589677 224.488577 
L 726.599355 212.906545 
L 738.628387 209.937366 
L 742.638065 207.854493 
L 746.647742 203.474884 
L 750.657419 198.3242 
L 754.667097 208.713196 
L 766.696129 205.82317 
L 770.705806 199.214474 
L 774.715484 190.989629 
L 778.725161 193.701333 
L 782.734839 195.261707 
L 794.763871 195.042037 
L 798.773548 203.736511 
L 802.783226 212.769425 
L 806.792903 199.685984 
L 810.802581 198.555521 
L 822.831613 213.310327 
L 826.84129 195.548066 
L 830.850968 182.227553 
L 834.860645 192.19738 
L 838.870323 186.066077 
L 850.899355 185.107383 
L 854.909032 189.95246 
L 858.91871 193.09505 
L 862.928387 188.170838 
L 866.938065 174.864283 
L 878.967097 181.603499 
L 882.976774 165.05209 
L 886.986452 181.873614 
L 890.996129 167.374807 
L 895.005806 150.200972 
L 907.034839 163.620528 
L 911.044516 157.104737 
L 915.054194 154.154955 
L 919.063871 140.835111 
L 923.073548 156.014331 
L 935.102581 126.740459 
L 939.112258 129.70822 
L 943.121935 114.356913 
L 947.131613 129.106626 
L 951.14129 120.969076 
L 963.170323 112.51386 
L 967.18 97.286255 
L 971.189677 97.33544 
L 975.199355 92.926881 
L 979.209032 83.786064 
L 991.238065 84.231459 
L 995.247742 60.84453 
L 999.257419 68.317778 
L 1003.267097 89.738539 
L 1007.276774 85.321211 
L 1019.305806 77.668795 
L 1023.315484 83.074224 
L 1027.325161 101.380534 
L 1031.334839 88.386827 
L 1035.344516 87.601846 
L 1047.373548 96.393196 
L 1051.383226 78.841469 
L 1055.392903 99.57321 
L 1059.402581 91.775962 
L 1063.412258 82.067283 
L 1075.44129 62.626457 
L 1079.450968 78.600978 
L 1083.460645 77.085872 
L 1087.470323 80.7622 
L 1091.48 57.182655 
L 1091.48 57.182655 
" style="fill:none;stroke:#ff7f0e;stroke-linecap:square;stroke-width:1.5;"/>
   </g>
   <g id="line2d_19">
    <path clip-path="url(#pded7f5debb)" d="M 97.08 248.226802 
L 101.089677 238.721931 
L 105.099355 242.607522 
L 109.109032 224.612208 
L 121.138065 232.026456 
L 125.147742 215.67133 
L 129.157419 226.750365 
L 133.167097 222.485671 
L 137.176774 204.417133 
L 149.205806 210.262781 
L 153.215484 221.255933 
L 157.225161 206.483048 
L 161.234839 194.573776 
L 165.244516 189.216936 
L 177.273548 183.717733 
L 181.283226 183.925072 
L 185.292903 179.364268 
L 189.302581 201.942863 
L 193.312258 189.958354 
L 205.34129 196.679257 
L 209.350968 189.416125 
L 213.360645 181.09645 
L 217.370323 201.405842 
L 221.38 200.551012 
L 233.409032 215.503555 
L 237.41871 200.999406 
L 241.428387 199.071093 
L 245.438065 181.080841 
L 249.447742 169.512694 
L 261.476774 173.134235 
L 265.486452 172.702226 
L 269.496129 170.258079 
L 273.505806 176.078513 
L 277.515484 170.204915 
L 289.544516 177.607423 
L 293.554194 159.775947 
L 297.563871 173.439532 
L 301.573548 174.66892 
L 305.583226 185.232107 
L 317.612258 166.000236 
L 321.621935 176.111071 
L 325.631613 195.41516 
L 329.64129 218.646547 
L 333.650968 204.624556 
L 345.68 204.797944 
L 349.689677 210.67384 
L 353.699355 188.488992 
L 357.709032 194.484346 
L 361.71871 190.063554 
L 373.747742 172.027995 
L 377.757419 168.565702 
L 381.767097 172.167418 
L 385.776774 168.245883 
L 389.786452 165.650515 
L 401.815484 181.996284 
L 405.825161 185.341361 
L 409.834839 202.306754 
L 413.844516 192.754056 
L 417.854194 187.111189 
L 429.883226 192.761337 
L 433.892903 200.28459 
L 437.902581 200.822169 
L 441.912258 179.941859 
L 445.921935 190.552155 
L 457.950968 173.281118 
L 461.960645 176.057907 
L 465.970323 183.904849 
L 469.98 184.659874 
L 473.989677 178.118209 
L 486.01871 160.012401 
L 490.028387 143.0484 
L 494.038065 136.082699 
L 498.047742 139.905009 
L 502.057419 142.378748 
L 514.086452 145.890357 
L 518.096129 118.887912 
L 522.105806 134.349697 
L 526.115484 129.096099 
L 530.125161 121.943645 
L 542.154194 119.340279 
L 546.163871 127.785862 
L 550.173548 132.172375 
L 554.183226 140.400556 
L 558.192903 149.065053 
L 570.221935 127.711901 
L 574.231613 130.088142 
L 578.24129 152.688582 
L 586.260645 139.101827 
L 598.289677 141.564065 
L 602.299355 143.327866 
L 606.309032 148.743649 
L 610.31871 154.984587 
L 614.328387 153.996545 
L 626.357419 146.378888 
L 630.367097 139.586331 
L 634.376774 131.626377 
L 638.386452 118.955861 
L 642.396129 99.959494 
L 654.425161 68.397572 
L 658.434839 54.128612 
L 662.444516 47.412556 
L 666.454194 79.502258 
L 670.463871 86.064007 
L 682.492903 70.033548 
L 686.502581 72.9241 
L 690.512258 105.28869 
L 694.521935 82.08433 
L 698.531613 103.984594 
L 710.560645 89.397346 
L 714.570323 111.084132 
L 718.58 88.309331 
L 722.589677 98.418898 
L 726.599355 89.775644 
L 738.628387 66.989055 
L 742.638065 93.896959 
L 746.647742 107.579184 
L 750.657419 104.88934 
L 754.667097 99.330423 
L 766.696129 132.96199 
L 770.705806 160.009656 
L 774.715484 133.861868 
L 778.725161 117.317002 
L 782.734839 104.282399 
L 794.763871 86.289822 
L 798.773548 84.828815 
L 802.783226 69.163707 
L 806.792903 88.842377 
L 810.802581 105.810183 
L 822.831613 101.678553 
L 826.84129 75.356694 
L 830.850968 68.053379 
L 834.860645 41.11 
L 838.870323 41.692197 
L 850.899355 65.862523 
L 854.909032 55.541636 
L 858.91871 65.091564 
L 862.928387 59.760457 
L 866.938065 48.028128 
L 878.967097 52.413427 
L 882.976774 85.7245 
L 886.986452 95.31478 
L 890.996129 103.179645 
L 895.005806 119.293777 
L 907.034839 121.657221 
L 911.044516 124.84772 
L 919.063871 133.585203 
L 923.073548 166.44253 
L 935.102581 167.792289 
L 939.112258 176.709004 
L 943.121935 195.298402 
L 947.131613 196.977801 
L 951.14129 206.733449 
L 963.170323 197.425259 
L 967.18 186.855733 
L 971.189677 178.374957 
L 975.199355 175.440988 
L 979.209032 163.35783 
L 991.238065 177.138034 
L 995.247742 155.732718 
L 999.257419 178.16658 
L 1003.267097 192.914574 
L 1007.276774 197.014865 
L 1019.305806 188.589968 
L 1023.315484 200.394018 
L 1027.325161 208.564862 
L 1031.334839 226.887268 
L 1035.344516 223.936937 
L 1047.373548 219.753797 
L 1051.383226 207.875132 
L 1055.392903 220.014937 
L 1059.402581 218.075264 
L 1063.412258 199.926906 
L 1075.44129 186.895732 
L 1079.450968 177.931212 
L 1087.470323 192.964185 
L 1091.48 180.089197 
L 1091.48 180.089197 
" style="fill:none;stroke:#2ca02c;stroke-linecap:square;stroke-width:1.5;"/>
   </g>
   <g id="line2d_20">
    <path clip-path="url(#pded7f5debb)" d="M 97.08 271.39132 
L 101.089677 264.937195 
L 105.099355 281.545686 
L 109.109032 290.137046 
L 121.138065 288.903368 
L 125.147742 289.232148 
L 129.157419 292.200218 
L 133.167097 290.691951 
L 137.176774 274.749502 
L 149.205806 273.848509 
L 153.215484 276.900502 
L 157.225161 275.583558 
L 161.234839 293.42865 
L 165.244516 286.249249 
L 177.273548 285.102412 
L 181.283226 291.064241 
L 185.292903 279.030277 
L 189.302581 285.083088 
L 193.312258 287.08526 
L 205.34129 285.815763 
L 209.350968 277.80024 
L 213.360645 279.721523 
L 217.370323 285.30989 
L 221.38 279.356111 
L 233.409032 265.337158 
L 237.41871 269.372791 
L 241.428387 278.879472 
L 245.438065 279.28863 
L 249.447742 280.998166 
L 261.476774 269.576233 
L 265.486452 258.325863 
L 269.496129 248.676195 
L 273.505806 241.004892 
L 277.515484 240.002879 
L 289.544516 240.140151 
L 293.554194 258.518018 
L 297.563871 252.475058 
L 301.573548 262.915171 
L 305.583226 261.277855 
L 317.612258 265.14293 
L 321.621935 267.338042 
L 325.631613 274.972492 
L 329.64129 272.372429 
L 333.650968 265.160973 
L 345.68 275.169854 
L 349.689677 276.888459 
L 353.699355 268.027759 
L 357.709032 268.511147 
L 361.71871 262.91967 
L 373.747742 268.866518 
L 377.757419 287.000723 
L 381.767097 278.46155 
L 385.776774 268.43387 
L 389.786452 279.307242 
L 401.815484 288.808925 
L 405.825161 278.016753 
L 409.834839 275.35699 
L 413.844516 279.057305 
L 417.854194 266.274165 
L 429.883226 281.564588 
L 433.892903 291.031016 
L 437.902581 298.670189 
L 441.912258 299.575386 
L 445.921935 298.880105 
L 457.950968 295.187073 
L 461.960645 305.098317 
L 465.970323 316.710782 
L 469.98 311.735916 
L 473.989677 307.950509 
L 486.01871 313.019307 
L 490.028387 304.127885 
L 494.038065 298.823304 
L 498.047742 285.863322 
L 502.057419 284.632519 
L 514.086452 273.523665 
L 518.096129 259.539613 
L 522.105806 272.532265 
L 526.115484 267.450185 
L 530.125161 271.887806 
L 542.154194 273.010232 
L 546.163871 279.480735 
L 554.183226 257.688054 
L 558.192903 263.552111 
L 570.221935 265.13184 
L 574.231613 259.982726 
L 578.24129 260.011002 
L 582.250968 245.241904 
L 586.260645 238.547312 
L 598.289677 238.483342 
L 602.299355 237.401416 
L 606.309032 249.915844 
L 610.31871 255.801548 
L 614.328387 259.454473 
L 626.357419 261.043067 
L 630.367097 254.371592 
L 634.376774 249.988123 
L 638.386452 260.534765 
L 642.396129 263.639693 
L 654.425161 260.130993 
L 658.434839 257.668845 
L 662.444516 253.13619 
L 666.454194 262.039396 
L 670.463871 253.595085 
L 682.492903 257.098623 
L 686.502581 258.411116 
L 690.512258 273.220366 
L 694.521935 270.717062 
L 698.531613 265.149912 
L 710.560645 270.426362 
L 714.570323 262.382145 
L 718.58 251.116179 
L 722.589677 246.089544 
L 726.599355 253.689383 
L 738.628387 261.897877 
L 742.638065 266.808398 
L 746.647742 268.186505 
L 750.657419 276.600426 
L 754.667097 274.205181 
L 766.696129 265.377327 
L 770.705806 260.931573 
L 774.715484 269.092443 
L 778.725161 272.905806 
L 782.734839 274.028815 
L 794.763871 284.520297 
L 798.773548 271.786129 
L 802.783226 276.349255 
L 806.792903 267.951494 
L 810.802581 262.161062 
L 822.831613 249.992542 
L 826.84129 251.656389 
L 830.850968 255.073224 
L 834.860645 267.869994 
L 838.870323 272.182213 
L 850.899355 260.213631 
L 854.909032 255.019003 
L 858.91871 253.863838 
L 862.928387 250.829325 
L 866.938065 254.789413 
L 878.967097 265.215019 
L 882.976774 265.013511 
L 886.986452 252.643236 
L 890.996129 245.400557 
L 895.005806 241.569832 
L 907.034839 258.419513 
L 911.044516 246.831648 
L 915.054194 244.447227 
L 919.063871 248.877511 
L 923.073548 239.836487 
L 935.102581 230.387746 
L 939.112258 229.22338 
L 943.121935 222.15361 
L 947.131613 209.181554 
L 951.14129 209.748032 
L 963.170323 192.123457 
L 967.18 168.133263 
L 971.189677 163.533977 
L 975.199355 159.71597 
L 979.209032 160.535549 
L 991.238065 168.41237 
L 995.247742 159.007677 
L 999.257419 166.374032 
L 1003.267097 169.295009 
L 1007.276774 167.957565 
L 1019.305806 155.989317 
L 1023.315484 139.727266 
L 1027.325161 155.775247 
L 1031.334839 158.034126 
L 1035.344516 144.464824 
L 1047.373548 155.235302 
L 1051.383226 153.192671 
L 1055.392903 155.141746 
L 1059.402581 150.634289 
L 1063.412258 133.720955 
L 1075.44129 153.893439 
L 1079.450968 140.666511 
L 1083.460645 155.62603 
L 1091.48 181.286553 
L 1091.48 181.286553 
" style="fill:none;stroke:#d62728;stroke-linecap:square;stroke-width:1.5;"/>
   </g>
   <g id="line2d_21">
    <path clip-path="url(#pded7f5debb)" d="M 97.08 257.91607 
L 101.089677 261.086178 
L 105.099355 266.941331 
L 109.109032 271.970473 
L 121.138065 269.883974 
L 125.147742 271.978891 
L 129.157419 279.773318 
L 133.167097 268.145448 
L 137.176774 278.652324 
L 149.205806 281.777904 
L 153.215484 281.265768 
L 157.225161 279.178091 
L 161.234839 276.619882 
L 165.244516 267.921908 
L 177.273548 260.869612 
L 181.283226 276.771303 
L 185.292903 278.286704 
L 189.302581 278.458634 
L 193.312258 279.722723 
L 205.34129 272.793115 
L 209.350968 261.236986 
L 213.360645 251.367192 
L 217.370323 264.458632 
L 221.38 276.003235 
L 233.409032 293.116608 
L 237.41871 292.993208 
L 241.428387 295.834786 
L 245.438065 303.466648 
L 249.447742 303.121498 
L 261.476774 300.622833 
L 265.486452 297.563308 
L 269.496129 295.303287 
L 273.505806 289.961355 
L 277.515484 287.596072 
L 289.544516 294.152968 
L 293.554194 294.496592 
L 297.563871 281.801528 
L 301.573548 284.971161 
L 305.583226 298.484891 
L 317.612258 308.413489 
L 321.621935 310.702665 
L 325.631613 319.052085 
L 329.64129 323.286524 
L 333.650968 318.752944 
L 345.68 312.279753 
L 349.689677 314.009113 
L 353.699355 318.849974 
L 357.709032 320.137535 
L 361.71871 324.616249 
L 373.747742 327.798052 
L 377.757419 322.974872 
L 381.767097 327.86267 
L 385.776774 319.686551 
L 389.786452 326.832333 
L 401.815484 318.625963 
L 405.825161 308.348725 
L 409.834839 299.025926 
L 413.844516 290.160433 
L 417.854194 290.574317 
L 429.883226 298.359428 
L 433.892903 300.152755 
L 437.902581 291.352459 
L 441.912258 283.463695 
L 445.921935 272.038044 
L 457.950968 260.798393 
L 461.960645 260.078438 
L 465.970323 269.144665 
L 469.98 275.052297 
L 473.989677 260.123312 
L 486.01871 259.404564 
L 490.028387 257.7758 
L 494.038065 255.267619 
L 498.047742 250.049832 
L 502.057419 241.754023 
L 514.086452 236.718978 
L 518.096129 252.122016 
L 522.105806 267.058165 
L 526.115484 264.815029 
L 530.125161 261.219766 
L 542.154194 251.570614 
L 546.163871 257.384668 
L 550.173548 273.444286 
L 554.183226 264.416302 
L 558.192903 277.361301 
L 570.221935 273.811027 
L 574.231613 267.122308 
L 578.24129 278.926569 
L 582.250968 278.339457 
L 586.260645 268.632326 
L 598.289677 277.376418 
L 602.299355 283.171457 
L 606.309032 288.58837 
L 610.31871 278.394986 
L 614.328387 271.105405 
L 626.357419 277.994102 
L 630.367097 279.935412 
L 634.376774 278.74691 
L 638.386452 270.40117 
L 642.396129 263.007821 
L 654.425161 273.380322 
L 658.434839 279.351205 
L 662.444516 285.08471 
L 666.454194 288.915712 
L 670.463871 286.584919 
L 682.492903 297.311314 
L 686.502581 291.121301 
L 690.512258 279.528139 
L 694.521935 286.876554 
L 698.531613 276.200156 
L 710.560645 262.048633 
L 714.570323 263.568469 
L 718.58 266.468528 
L 722.589677 263.164054 
L 726.599355 255.310093 
L 738.628387 252.617991 
L 742.638065 262.945329 
L 746.647742 272.686768 
L 750.657419 276.890623 
L 754.667097 272.678895 
L 766.696129 263.938161 
L 770.705806 255.567778 
L 774.715484 266.92548 
L 778.725161 264.105985 
L 782.734839 255.598983 
L 794.763871 256.831272 
L 798.773548 251.47243 
L 802.783226 257.664354 
L 806.792903 262.136033 
L 810.802581 263.327652 
L 822.831613 269.646115 
L 826.84129 280.52632 
L 830.850968 280.877145 
L 834.860645 274.023779 
L 838.870323 282.431937 
L 850.899355 268.529664 
L 854.909032 266.577402 
L 858.91871 275.546496 
L 862.928387 259.483188 
L 866.938065 254.769327 
L 878.967097 257.729485 
L 882.976774 261.256162 
L 886.986452 260.957753 
L 890.996129 254.539503 
L 895.005806 259.414625 
L 907.034839 245.415028 
L 911.044516 247.683356 
L 915.054194 245.332839 
L 919.063871 235.20444 
L 923.073548 229.949268 
L 935.102581 231.099991 
L 939.112258 240.788412 
L 943.121935 230.074758 
L 947.131613 232.042299 
L 951.14129 219.44757 
L 963.170323 201.072213 
L 967.18 198.891362 
L 971.189677 212.897865 
L 975.199355 214.53798 
L 979.209032 201.155839 
L 991.238065 178.963776 
L 995.247742 178.667643 
L 999.257419 164.326243 
L 1003.267097 177.475278 
L 1007.276774 177.901888 
L 1019.305806 173.951332 
L 1027.325161 176.449389 
L 1031.334839 169.585776 
L 1035.344516 180.848 
L 1047.373548 167.393851 
L 1051.383226 159.137741 
L 1055.392903 169.691371 
L 1059.402581 177.301014 
L 1063.412258 178.962853 
L 1075.44129 201.248862 
L 1079.450968 190.730692 
L 1083.460645 168.237228 
L 1087.470323 197.071659 
L 1091.48 191.881916 
L 1091.48 191.881916 
" style="fill:none;stroke:#9467bd;stroke-linecap:square;stroke-width:1.5;"/>
   </g>
   <g id="line2d_22">
    <path clip-path="url(#pded7f5debb)" d="M 97.08 260.63898 
L 101.089677 259.628622 
L 105.099355 268.622744 
L 109.109032 267.52261 
L 121.138065 263.076984 
L 125.147742 260.152907 
L 129.157419 259.949359 
L 133.167097 257.29665 
L 137.176774 249.426011 
L 149.205806 256.027149 
L 153.215484 259.096823 
L 157.225161 254.553208 
L 161.234839 261.925408 
L 165.244516 255.393849 
L 177.273548 256.040624 
L 181.283226 262.527507 
L 185.292903 256.440477 
L 189.302581 259.008517 
L 193.312258 257.899472 
L 205.34129 257.474327 
L 209.350968 252.099334 
L 213.360645 249.347393 
L 217.370323 256.427332 
L 221.38 258.860959 
L 233.409032 263.613444 
L 237.41871 264.204169 
L 241.428387 267.992571 
L 245.438065 266.889496 
L 249.447742 262.896808 
L 261.476774 263.816736 
L 265.486452 259.698832 
L 269.496129 256.754429 
L 273.505806 257.00747 
L 277.515484 255.172249 
L 289.544516 253.755609 
L 293.554194 255.499923 
L 297.563871 247.154049 
L 305.583226 258.008436 
L 317.612258 257.309287 
L 321.621935 259.638244 
L 325.631613 264.442005 
L 329.64129 268.499251 
L 333.650968 262.930607 
L 345.68 260.831335 
L 349.689677 261.210339 
L 353.699355 254.886409 
L 357.709032 254.671081 
L 361.71871 255.934054 
L 373.747742 255.536828 
L 377.757419 260.377142 
L 381.767097 260.719576 
L 385.776774 256.85462 
L 389.786452 258.714821 
L 401.815484 261.894198 
L 405.825161 257.512993 
L 409.834839 252.462038 
L 413.844516 247.889565 
L 417.854194 242.925049 
L 429.883226 248.845735 
L 433.892903 257.197725 
L 437.902581 256.681659 
L 441.912258 247.760532 
L 445.921935 246.596136 
L 457.950968 234.768295 
L 461.960645 240.580908 
L 465.970323 242.337387 
L 469.98 243.752293 
L 473.989677 233.932527 
L 486.01871 233.473549 
L 490.028387 232.77152 
L 494.038065 233.031968 
L 498.047742 230.26128 
L 502.057419 229.191165 
L 514.086452 226.73722 
L 518.096129 224.398526 
L 522.105806 229.804175 
L 526.115484 224.544276 
L 530.125161 221.337972 
L 542.154194 220.579387 
L 546.163871 227.040245 
L 550.173548 228.644853 
L 554.183226 224.413065 
L 558.192903 228.876772 
L 570.221935 222.442356 
L 574.231613 220.913942 
L 578.24129 228.704906 
L 582.250968 220.315649 
L 586.260645 217.271236 
L 598.289677 223.517053 
L 602.299355 220.925048 
L 606.309032 230.383995 
L 610.31871 231.424082 
L 614.328387 226.139743 
L 626.357419 229.97677 
L 630.367097 229.997654 
L 634.376774 229.315599 
L 638.386452 230.792283 
L 642.396129 228.507231 
L 654.425161 224.917208 
L 658.434839 220.844678 
L 662.444516 219.691105 
L 666.454194 227.545163 
L 670.463871 227.140258 
L 682.492903 230.785403 
L 686.502581 233.140021 
L 690.512258 240.115832 
L 698.531613 236.747995 
L 710.560645 230.909568 
L 714.570323 231.487315 
L 718.58 226.397404 
L 722.589677 220.656268 
L 726.599355 216.966891 
L 738.628387 213.210368 
L 742.638065 217.036434 
L 746.647742 219.441033 
L 750.657419 217.800064 
L 754.667097 216.947605 
L 766.696129 218.351233 
L 770.705806 218.364462 
L 774.715484 216.458958 
L 778.725161 213.717485 
L 782.734839 212.896648 
L 794.763871 214.768285 
L 798.773548 213.415871 
L 802.783226 213.704588 
L 806.792903 213.281153 
L 810.802581 212.488089 
L 822.831613 211.532459 
L 826.84129 207.911403 
L 830.850968 202.015956 
L 834.860645 205.11925 
L 838.870323 205.905697 
L 850.899355 201.233293 
L 854.909032 203.394592 
L 858.91871 204.619498 
L 862.928387 198.354746 
L 866.938065 193.092388 
L 878.967097 202.011737 
L 882.976774 206.317036 
L 886.986452 207.967508 
L 890.996129 202.262024 
L 895.005806 205.207371 
L 907.034839 208.118695 
L 911.044516 207.597182 
L 915.054194 209.990211 
L 919.063871 207.781491 
L 923.073548 214.864742 
L 935.102581 211.280161 
L 939.112258 212.702975 
L 943.121935 211.116409 
L 947.131613 207.132664 
L 951.14129 206.37762 
L 963.170323 194.077482 
L 967.18 185.725753 
L 971.189677 190.194399 
L 975.199355 193.12152 
L 979.209032 184.830293 
L 991.238065 181.304173 
L 995.247742 172.879202 
L 1003.267097 183.874543 
L 1007.276774 182.094978 
L 1019.305806 179.726442 
L 1023.315484 180.086603 
L 1027.325161 188.423975 
L 1031.334839 189.245455 
L 1035.344516 187.93465 
L 1047.373548 184.904256 
L 1051.383226 174.700568 
L 1055.392903 183.296321 
L 1059.402581 185.748203 
L 1063.412258 176.239643 
L 1075.44129 180.731805 
L 1079.450968 177.930109 
L 1083.460645 173.446767 
L 1087.470323 178.282664 
L 1091.48 171.381818 
L 1091.48 171.381818 
" style="fill:none;stroke:#8c564b;stroke-linecap:square;stroke-width:1.5;"/>
   </g>
   <g id="line2d_23">
    <path clip-path="url(#pded7f5debb)" d="M 97.08 254.784728 
L 101.089677 259.042002 
L 105.099355 255.936009 
L 109.109032 262.415471 
L 121.138065 264.78628 
L 125.147742 269.835225 
L 129.157419 277.910067 
L 133.167097 268.585916 
L 137.176774 286.512541 
L 149.205806 284.039918 
L 153.215484 280.875542 
L 157.225161 282.846906 
L 161.234839 273.957227 
L 165.244516 271.28137 
L 177.273548 263.751379 
L 181.283226 273.181059 
L 185.292903 280.492383 
L 189.302581 278.390132 
L 193.312258 280.659476 
L 205.34129 274.143332 
L 209.350968 267.611956 
L 213.360645 260.602268 
L 217.370323 266.41752 
L 221.38 275.532295 
L 233.409032 288.319784 
L 237.41871 287.674623 
L 241.428387 287.257965 
L 245.438065 296.271646 
L 249.447742 299.31223 
L 261.476774 296.000507 
L 265.486452 296.314817 
L 269.496129 296.457708 
L 273.505806 290.947234 
L 277.515484 290.131285 
L 289.544516 297.775407 
L 293.554194 296.7306 
L 297.563871 290.906531 
L 301.573548 289.516627 
L 305.583226 298.26969 
L 317.612258 308.774388 
L 321.621935 309.305921 
L 325.631613 314.087813 
L 329.64129 315.412228 
L 333.650968 314.867529 
L 345.68 309.782792 
L 349.689677 311.252175 
L 353.699355 320.953802 
L 357.709032 322.370535 
L 361.71871 325.923481 
L 373.747742 329.340061 
L 377.757419 321.434622 
L 381.767097 326.135008 
L 385.776774 320.484477 
L 389.786452 326.299017 
L 401.815484 315.922329 
L 405.825161 308.672351 
L 409.834839 303.175481 
L 413.844516 298.013793 
L 417.854194 302.228463 
L 429.883226 305.153023 
L 433.892903 300.695091 
L 437.902581 292.331855 
L 441.912258 291.883345 
L 445.921935 281.915169 
L 457.950968 281.167042 
L 461.960645 275.87668 
L 465.970323 282.76414 
L 469.98 287.103127 
L 473.989677 281.017681 
L 486.01871 280.737695 
L 490.028387 279.836613 
L 498.047742 274.960847 
L 502.057419 268.492117 
L 514.086452 266.104895 
L 518.096129 281.479369 
L 522.105806 290.233339 
L 526.115484 292.162132 
L 530.125161 291.362928 
L 542.154194 283.680504 
L 546.163871 283.826451 
L 550.173548 296.620592 
L 554.183226 291.699524 
L 558.192903 299.669119 
L 570.221935 301.047352 
L 574.231613 296.344041 
L 578.24129 301.021584 
L 582.250968 306.327944 
L 586.260645 300.049917 
L 598.289677 303.235988 
L 602.299355 309.970114 
L 606.309032 308.578748 
L 610.31871 298.845491 
L 614.328387 296.114239 
L 626.357419 299.401435 
L 630.367097 301.106019 
L 634.376774 300.529179 
L 638.386452 292.12763 
L 642.396129 287.246044 
L 654.425161 299.074115 
L 658.434839 307.06076 
L 662.444516 312.685903 
L 666.454194 311.050865 
L 670.463871 309.275382 
L 682.492903 316.251617 
L 686.502581 309.263876 
L 690.512258 294.191647 
L 694.521935 302.226495 
L 698.531613 293.691286 
L 710.560645 285.232589 
L 714.570323 286.135187 
L 718.58 292.610358 
L 722.589677 293.889804 
L 726.599355 289.814813 
L 738.628387 290.219364 
L 742.638065 296.063159 
L 746.647742 302.570587 
L 750.657419 307.207716 
L 754.667097 304.218475 
L 766.696129 295.999593 
L 770.705806 288.953634 
L 774.715484 299.862973 
L 778.725161 299.334084 
L 782.734839 292.858813 
L 794.763871 292.593596 
L 798.773548 289.086653 
L 802.783226 293.986853 
L 806.792903 297.964126 
L 810.802581 299.471949 
L 822.831613 305.285746 
L 826.84129 316.465613 
L 830.850968 320.156115 
L 834.860645 313.053076 
L 838.870323 319.284524 
L 854.909032 308.018358 
L 858.91871 314.380637 
L 862.928387 305.232517 
L 866.938065 304.7216 
L 878.967097 301.718902 
L 882.976774 301.823592 
L 886.986452 300.542986 
L 890.996129 299.020805 
L 895.005806 301.005043 
L 907.034839 287.996435 
L 911.044516 290.184739 
L 915.054194 286.667731 
L 919.063871 279.988644 
L 923.073548 270.660518 
L 935.102581 274.397692 
L 939.112258 281.224991 
L 943.121935 273.597908 
L 947.131613 278.20529 
L 951.14129 268.651408 
L 963.170323 263.295822 
L 967.18 267.848183 
L 971.189677 275.072252 
L 975.199355 274.284521 
L 979.209032 269.910015 
L 991.238065 255.952818 
L 995.247742 261.94593 
L 999.257419 247.962383 
L 1003.267097 253.279472 
L 1007.276774 254.934199 
L 1019.305806 253.802053 
L 1023.315484 254.456183 
L 1027.325161 249.187079 
L 1031.334839 243.411384 
L 1035.344516 252.914419 
L 1047.373548 245.190398 
L 1051.383226 247.100116 
L 1055.392903 248.167121 
L 1059.402581 251.868219 
L 1063.412258 260.358305 
L 1075.44129 273.122329 
L 1079.450968 267.360077 
L 1083.460645 254.234419 
L 1087.470323 271.221635 
L 1091.48 272.132578 
L 1091.48 272.132578 
" style="fill:none;stroke:#e377c2;stroke-linecap:square;stroke-width:1.5;"/>
   </g>
   <g id="line2d_24">
    <path clip-path="url(#pded7f5debb)" d="M 97.08 250.442228 
L 101.089677 245.732178 
L 105.099355 247.92402 
L 109.109032 236.497238 
L 121.138065 251.937755 
L 125.147742 261.348508 
L 129.157419 267.285037 
L 133.167097 252.881553 
L 137.176774 247.295083 
L 149.205806 240.930544 
L 153.215484 237.098256 
L 157.225161 248.223503 
L 161.234839 240.729132 
L 165.244516 241.067936 
L 177.273548 232.385175 
L 181.283226 227.7514 
L 185.292903 233.576881 
L 189.302581 242.157769 
L 193.312258 247.133881 
L 205.34129 247.532273 
L 209.350968 233.827258 
L 213.360645 245.870738 
L 217.370323 257.364965 
L 221.38 256.623588 
L 233.409032 271.033227 
L 237.41871 264.805543 
L 241.428387 257.578307 
L 245.438065 269.228467 
L 249.447742 275.485447 
L 261.476774 265.128574 
L 265.486452 265.597028 
L 269.496129 260.678675 
L 273.505806 252.054317 
L 277.515484 253.704115 
L 289.544516 263.464007 
L 293.554194 273.247636 
L 297.563871 279.326438 
L 301.573548 278.477701 
L 305.583226 276.815572 
L 317.612258 274.423479 
L 321.621935 270.859697 
L 325.631613 278.58485 
L 329.64129 273.531863 
L 333.650968 259.049633 
L 345.68 258.091641 
L 349.689677 257.648039 
L 353.699355 250.208007 
L 357.709032 253.857162 
L 361.71871 250.803028 
L 373.747742 255.150127 
L 381.767097 255.509267 
L 385.776774 243.658457 
L 389.786452 255.536014 
L 401.815484 256.878158 
L 405.825161 247.421519 
L 409.834839 259.528153 
L 413.844516 247.291119 
L 417.854194 245.377111 
L 429.883226 261.58348 
L 433.892903 253.169579 
L 437.902581 253.377481 
L 441.912258 258.139669 
L 445.921935 261.271589 
L 457.950968 259.240714 
L 461.960645 252.971506 
L 465.970323 259.530495 
L 469.98 251.135429 
L 486.01871 241.12293 
L 490.028387 225.586052 
L 494.038065 222.341925 
L 498.047742 228.800851 
L 502.057419 246.223833 
L 514.086452 238.622534 
L 518.096129 239.925371 
L 522.105806 244.881573 
L 526.115484 245.055466 
L 530.125161 240.355099 
L 542.154194 232.555838 
L 546.163871 236.525512 
L 550.173548 239.440961 
L 554.183226 243.979542 
L 558.192903 242.613791 
L 570.221935 244.813205 
L 574.231613 243.673841 
L 578.24129 240.312546 
L 582.250968 247.828254 
L 586.260645 226.419801 
L 598.289677 214.983241 
L 602.299355 231.040768 
L 606.309032 225.142704 
L 610.31871 224.447851 
L 614.328387 229.448614 
L 626.357419 218.399927 
L 630.367097 202.368151 
L 634.376774 202.281748 
L 638.386452 187.479643 
L 642.396129 186.937391 
L 654.425161 186.412847 
L 658.434839 182.498115 
L 662.444516 191.07466 
L 666.454194 207.705017 
L 670.463871 205.981736 
L 682.492903 205.941583 
L 686.502581 196.031438 
L 690.512258 195.846062 
L 694.521935 195.427929 
L 698.531613 207.049888 
L 710.560645 208.935434 
L 714.570323 217.398795 
L 718.58 198.534381 
L 722.589677 201.946065 
L 726.599355 198.484604 
L 738.628387 200.738972 
L 742.638065 218.03199 
L 746.647742 227.749517 
L 750.657419 242.734772 
L 754.667097 240.898808 
L 766.696129 233.365483 
L 770.705806 231.744208 
L 774.715484 231.634675 
L 778.725161 232.902013 
L 782.734839 223.306955 
L 794.763871 218.719809 
L 798.773548 207.074956 
L 802.783226 220.333814 
L 806.792903 217.321379 
L 810.802581 232.040843 
L 822.831613 239.112993 
L 826.84129 233.897323 
L 830.850968 243.655447 
L 834.860645 231.063957 
L 838.870323 236.260367 
L 850.899355 234.652749 
L 854.909032 218.231834 
L 858.91871 232.959705 
L 862.928387 225.156462 
L 878.967097 214.205885 
L 882.976774 207.167368 
L 886.986452 204.225968 
L 890.996129 203.568308 
L 895.005806 190.598519 
L 907.034839 195.505608 
L 911.044516 182.072729 
L 915.054194 171.991265 
L 919.063871 160.541255 
L 923.073548 155.566334 
L 935.102581 133.916321 
L 939.112258 150.914358 
L 943.121935 140.865231 
L 947.131613 160.665204 
L 951.14129 155.841328 
L 963.170323 149.145798 
L 967.18 131.667474 
L 971.189677 116.058896 
L 975.199355 91.333357 
L 979.209032 89.907253 
L 991.238065 104.519423 
L 995.247742 86.315806 
L 999.257419 84.813302 
L 1003.267097 117.597554 
L 1007.276774 124.341894 
L 1019.305806 104.536128 
L 1023.315484 106.467077 
L 1027.325161 105.898834 
L 1031.334839 108.699544 
L 1035.344516 102.346722 
L 1047.373548 115.383111 
L 1051.383226 123.44552 
L 1055.392903 127.697559 
L 1059.402581 109.990332 
L 1063.412258 108.379953 
L 1075.44129 98.847994 
L 1079.450968 83.958046 
L 1083.460645 105.85786 
L 1087.470323 144.61936 
L 1091.48 152.152542 
L 1091.48 152.152542 
" style="fill:none;stroke:#7f7f7f;stroke-linecap:square;stroke-width:1.5;"/>
   </g>
   <g id="line2d_25">
    <path clip-path="url(#pded7f5debb)" d="M 97.08 247.719318 
L 101.089677 247.34978 
L 105.099355 246.243307 
L 109.109032 241.507725 
L 121.138065 259.225211 
L 125.147742 273.503418 
L 129.157419 287.009175 
L 133.167097 265.170088 
L 137.176774 278.145054 
L 149.205806 270.093207 
L 153.215484 263.351269 
L 157.225161 275.35481 
L 161.234839 259.542662 
L 165.244516 256.975512 
L 177.273548 240.823504 
L 181.283226 246.860666 
L 185.292903 260.530863 
L 189.302581 265.783688 
L 193.312258 272.655171 
L 205.34129 266.208141 
L 209.350968 246.876414 
L 213.360645 250.495275 
L 217.370323 267.849671 
L 221.38 276.1948 
L 233.409032 301.995097 
L 237.41871 296.165259 
L 241.428387 289.672347 
L 245.438065 308.412908 
L 249.447742 316.240773 
L 261.476774 305.135194 
L 265.486452 305.80731 
L 269.496129 302.01468 
L 273.505806 289.804501 
L 277.515484 290.340787 
L 289.544516 306.044894 
L 293.554194 312.770159 
L 297.563871 312.32774 
L 301.573548 310.410633 
L 305.583226 316.744772 
L 317.612258 324.201737 
L 321.621935 322.046994 
L 325.631613 332.128348 
L 329.64129 329.691534 
L 333.650968 318.960142 
L 345.68 313.334271 
L 349.689677 314.444802 
L 353.699355 318.541266 
L 357.709032 322.47094 
L 361.71871 323.958851 
L 373.747742 330.287348 
L 377.757419 322.568784 
L 381.767097 327.336763 
L 385.776774 313.943848 
L 389.786452 328.130347 
L 401.815484 318.767894 
L 405.825161 305.009083 
L 409.834839 308.288651 
L 413.844516 293.954134 
L 417.854194 296.767031 
L 429.883226 312.207078 
L 433.892903 301.623737 
L 437.902581 293.468105 
L 441.912258 296.883368 
L 445.921935 289.748649 
L 457.950968 287.285235 
L 461.960645 276.755248 
L 465.970323 289.434651 
L 469.98 286.440614 
L 473.989677 278.252468 
L 486.01871 271.475102 
L 490.028387 257.096532 
L 494.038065 251.52946 
L 498.047742 254.451319 
L 502.057419 262.817575 
L 514.086452 253.33623 
L 518.096129 270.915006 
L 522.105806 284.446755 
L 526.115484 286.582006 
L 530.125161 281.943349 
L 542.154194 267.48801 
L 546.163871 271.020565 
L 550.173548 287.193731 
L 554.183226 285.57599 
L 558.192903 292.717949 
L 570.221935 295.858363 
L 574.231613 290.130912 
L 578.24129 292.324228 
L 582.250968 303.68911 
L 586.260645 281.400236 
L 598.289677 276.143013 
L 602.299355 296.136142 
L 606.309032 290.362424 
L 610.31871 278.990965 
L 614.328387 279.801489 
L 626.357419 274.717094 
L 630.367097 264.302146 
L 634.376774 263.529878 
L 638.386452 241.886754 
L 642.396129 235.151993 
L 654.425161 250.009163 
L 658.434839 257.333128 
L 662.444516 271.033377 
L 666.454194 280.731075 
L 670.463871 277.37181 
L 682.492903 285.746453 
L 686.502581 270.468015 
L 690.512258 251.511541 
L 694.521935 261.220132 
L 698.531613 259.324672 
L 710.560645 250.67464 
L 714.570323 258.835396 
L 718.58 250.587996 
L 722.589677 254.924672 
L 726.599355 247.15792 
L 738.628387 249.503819 
L 742.638065 270.811638 
L 746.647742 285.933042 
L 750.657419 302.357779 
L 754.667097 297.932888 
L 766.696129 283.775377 
L 770.705806 274.951606 
L 774.715484 286.63844 
L 778.725161 287.036116 
L 782.734839 272.721764 
L 794.763871 268.775532 
L 798.773548 255.504749 
L 802.783226 272.1105 
L 806.792903 274.220562 
L 810.802581 287.283016 
L 822.831613 298.920906 
L 826.84129 306.709904 
L 830.850968 317.328672 
L 834.860645 301.683097 
L 838.870323 312.009273 
L 850.899355 302.041625 
L 854.909032 287.465315 
L 858.91871 305.258552 
L 862.928387 290.183185 
L 866.938065 287.618957 
L 878.967097 278.298615 
L 882.976774 273.17719 
L 886.986452 269.483128 
L 890.996129 267.180589 
L 895.005806 259.728812 
L 907.034839 247.121499 
L 911.044516 238.952702 
L 915.054194 226.35007 
L 919.063871 208.087114 
L 923.073548 190.938974 
L 935.102581 177.031095 
L 939.112258 202.128334 
L 943.121935 182.810402 
L 947.131613 206.840261 
L 951.14129 189.547572 
L 963.170323 176.070441 
L 967.18 166.600298 
L 971.189677 163.55701 
L 975.199355 140.945524 
L 979.209032 132.278747 
L 991.238065 121.446984 
L 995.247742 113.943469 
L 999.257419 88.3841 
L 1003.267097 130.0837 
L 1007.276774 139.202491 
L 1019.305806 118.504917 
L 1023.315484 121.433879 
L 1027.325161 112.294187 
L 1031.334839 105.608957 
L 1035.344516 114.608845 
L 1047.373548 114.448136 
L 1051.383226 125.576734 
L 1055.392903 131.463816 
L 1059.402581 119.645555 
L 1063.412258 131.831449 
L 1075.44129 143.699161 
L 1079.450968 120.987073 
L 1083.460645 117.92246 
L 1087.470323 183.346339 
L 1091.48 191.2931 
L 1091.48 191.2931 
" style="fill:none;stroke:#bcbd22;stroke-linecap:square;stroke-width:1.5;"/>
   </g>
   <g id="patch_3">
    <path d="M 47.36 360.1 
L 47.36 25.92 
" style="fill:none;stroke:#000000;stroke-linecap:square;stroke-linejoin:miter;stroke-width:0.8;"/>
   </g>
   <g id="patch_4">
    <path d="M 1141.2 360.1 
L 1141.2 25.92 
" style="fill:none;stroke:#000000;stroke-linecap:square;stroke-linejoin:miter;stroke-width:0.8;"/>
   </g>
   <g id="patch_5">
    <path d="M 47.36 360.1 
L 1141.2 360.1 
" style="fill:none;stroke:#000000;stroke-linecap:square;stroke-linejoin:miter;stroke-width:0.8;"/>
   </g>
   <g id="patch_6">
    <path d="M 47.36 25.92 
L 1141.2 25.92 
" style="fill:none;stroke:#000000;stroke-linecap:square;stroke-linejoin:miter;stroke-width:0.8;"/>
   </g>
   <g id="text_10">
    <!-- Net Value: (2010-01-19 ~ 2010-10-08) -->
    <g transform="translate(478.1725 19.92)scale(0.12 -0.12)">
     <defs>
      <path d="M 9.8125 72.90625 
L 23.09375 72.90625 
L 55.421875 11.921875 
L 55.421875 72.90625 
L 64.984375 72.90625 
L 64.984375 0 
L 51.703125 0 
L 19.390625 60.984375 
L 19.390625 0 
L 9.8125 0 
z
" id="DejaVuSans-78"/>
      <path d="M 28.609375 0 
L 0.78125 72.90625 
L 11.078125 72.90625 
L 34.1875 11.53125 
L 57.328125 72.90625 
L 67.578125 72.90625 
L 39.796875 0 
z
" id="DejaVuSans-86"/>
      <path d="M 11.71875 12.40625 
L 22.015625 12.40625 
L 22.015625 0 
L 11.71875 0 
z
M 11.71875 51.703125 
L 22.015625 51.703125 
L 22.015625 39.3125 
L 11.71875 39.3125 
z
" id="DejaVuSans-58"/>
      <path d="M 31 75.875 
Q 24.46875 64.65625 21.28125 53.65625 
Q 18.109375 42.671875 18.109375 31.390625 
Q 18.109375 20.125 21.3125 9.0625 
Q 24.515625 -2 31 -13.1875 
L 23.1875 -13.1875 
Q 15.875 -1.703125 12.234375 9.375 
Q 8.59375 20.453125 8.59375 31.390625 
Q 8.59375 42.28125 12.203125 53.3125 
Q 15.828125 64.359375 23.1875 75.875 
z
" id="DejaVuSans-40"/>
      <path d="M 4.890625 31.390625 
L 31.203125 31.390625 
L 31.203125 23.390625 
L 4.890625 23.390625 
z
" id="DejaVuSans-45"/>
      <path d="M 10.984375 1.515625 
L 10.984375 10.5 
Q 14.703125 8.734375 18.5 7.8125 
Q 22.3125 6.890625 25.984375 6.890625 
Q 35.75 6.890625 40.890625 13.453125 
Q 46.046875 20.015625 46.78125 33.40625 
Q 43.953125 29.203125 39.59375 26.953125 
Q 35.25 24.703125 29.984375 24.703125 
Q 19.046875 24.703125 12.671875 31.3125 
Q 6.296875 37.9375 6.296875 49.421875 
Q 6.296875 60.640625 12.9375 67.421875 
Q 19.578125 74.21875 30.609375 74.21875 
Q 43.265625 74.21875 49.921875 64.515625 
Q 56.59375 54.828125 56.59375 36.375 
Q 56.59375 19.140625 48.40625 8.859375 
Q 40.234375 -1.421875 26.421875 -1.421875 
Q 22.703125 -1.421875 18.890625 -0.6875 
Q 15.09375 0.046875 10.984375 1.515625 
z
M 30.609375 32.421875 
Q 37.25 32.421875 41.125 36.953125 
Q 45.015625 41.5 45.015625 49.421875 
Q 45.015625 57.28125 41.125 61.84375 
Q 37.25 66.40625 30.609375 66.40625 
Q 23.96875 66.40625 20.09375 61.84375 
Q 16.21875 57.28125 16.21875 49.421875 
Q 16.21875 41.5 20.09375 36.953125 
Q 23.96875 32.421875 30.609375 32.421875 
z
" id="DejaVuSans-57"/>
      <path d="M 73.1875 39.890625 
L 73.1875 31.203125 
Q 68.0625 27.34375 63.6875 25.6875 
Q 59.328125 24.03125 54.59375 24.03125 
Q 49.21875 24.03125 42.09375 26.90625 
Q 41.546875 27.09375 41.3125 27.203125 
Q 40.96875 27.34375 40.234375 27.59375 
Q 32.671875 30.609375 28.078125 30.609375 
Q 23.78125 30.609375 19.578125 28.734375 
Q 15.375 26.859375 10.59375 22.796875 
L 10.59375 31.5 
Q 15.71875 35.359375 20.09375 37.03125 
Q 24.46875 38.71875 29.203125 38.71875 
Q 34.578125 38.71875 41.75 35.796875 
Q 42.234375 35.59375 42.484375 35.5 
Q 42.875 35.359375 43.5625 35.109375 
Q 51.125 32.078125 55.71875 32.078125 
Q 59.90625 32.078125 64.03125 33.9375 
Q 68.171875 35.796875 73.1875 39.890625 
z
" id="DejaVuSans-126"/>
      <path d="M 8.015625 75.875 
L 15.828125 75.875 
Q 23.140625 64.359375 26.78125 53.3125 
Q 30.421875 42.28125 30.421875 31.390625 
Q 30.421875 20.453125 26.78125 9.375 
Q 23.140625 -1.703125 15.828125 -13.1875 
L 8.015625 -13.1875 
Q 14.5 -2 17.703125 9.0625 
Q 20.90625 20.125 20.90625 31.390625 
Q 20.90625 42.671875 17.703125 53.65625 
Q 14.5 64.65625 8.015625 75.875 
z
" id="DejaVuSans-41"/>
     </defs>
     <use xlink:href="#DejaVuSans-78"/>
     <use x="74.804688" xlink:href="#DejaVuSans-101"/>
     <use x="136.328125" xlink:href="#DejaVuSans-116"/>
     <use x="175.537109" xlink:href="#DejaVuSans-32"/>
     <use x="207.324219" xlink:href="#DejaVuSans-86"/>
     <use x="267.982422" xlink:href="#DejaVuSans-97"/>
     <use x="329.261719" xlink:href="#DejaVuSans-108"/>
     <use x="357.044922" xlink:href="#DejaVuSans-117"/>
     <use x="420.423828" xlink:href="#DejaVuSans-101"/>
     <use x="481.947266" xlink:href="#DejaVuSans-58"/>
     <use x="515.638672" xlink:href="#DejaVuSans-32"/>
     <use x="547.425781" xlink:href="#DejaVuSans-40"/>
     <use x="586.439453" xlink:href="#DejaVuSans-50"/>
     <use x="650.0625" xlink:href="#DejaVuSans-48"/>
     <use x="713.685547" xlink:href="#DejaVuSans-49"/>
     <use x="777.308594" xlink:href="#DejaVuSans-48"/>
     <use x="840.931641" xlink:href="#DejaVuSans-45"/>
     <use x="877.015625" xlink:href="#DejaVuSans-48"/>
     <use x="940.638672" xlink:href="#DejaVuSans-49"/>
     <use x="1004.261719" xlink:href="#DejaVuSans-45"/>
     <use x="1040.345703" xlink:href="#DejaVuSans-49"/>
     <use x="1103.96875" xlink:href="#DejaVuSans-57"/>
     <use x="1167.591797" xlink:href="#DejaVuSans-32"/>
     <use x="1199.378906" xlink:href="#DejaVuSans-126"/>
     <use x="1283.167969" xlink:href="#DejaVuSans-32"/>
     <use x="1314.955078" xlink:href="#DejaVuSans-50"/>
     <use x="1378.578125" xlink:href="#DejaVuSans-48"/>
     <use x="1442.201172" xlink:href="#DejaVuSans-49"/>
     <use x="1505.824219" xlink:href="#DejaVuSans-48"/>
     <use x="1569.447266" xlink:href="#DejaVuSans-45"/>
     <use x="1605.53125" xlink:href="#DejaVuSans-49"/>
     <use x="1669.154297" xlink:href="#DejaVuSans-48"/>
     <use x="1732.777344" xlink:href="#DejaVuSans-45"/>
     <use x="1768.861328" xlink:href="#DejaVuSans-48"/>
     <use x="1832.484375" xlink:href="#DejaVuSans-56"/>
     <use x="1896.107422" xlink:href="#DejaVuSans-41"/>
    </g>
   </g>
   <g id="legend_1">
    <g id="patch_7">
     <path d="M 54.36 168.248125 
L 150.849063 168.248125 
Q 152.849063 168.248125 152.849063 166.248125 
L 152.849063 32.92 
Q 152.849063 30.92 150.849063 30.92 
L 54.36 30.92 
Q 52.36 30.92 52.36 32.92 
L 52.36 166.248125 
Q 52.36 168.248125 54.36 168.248125 
z
" style="fill:#ffffff;opacity:0.8;stroke:#cccccc;stroke-linejoin:miter;"/>
    </g>
    <g id="line2d_26">
     <path d="M 56.36 39.018438 
L 76.36 39.018438 
" style="fill:none;stroke:#1f77b4;stroke-linecap:square;stroke-width:1.5;"/>
    </g>
    <g id="line2d_27"/>
    <g id="text_11">
     <!-- group_1 -->
     <g transform="translate(84.36 42.518438)scale(0.1 -0.1)">
      <defs>
       <path d="M 45.40625 27.984375 
Q 45.40625 37.75 41.375 43.109375 
Q 37.359375 48.484375 30.078125 48.484375 
Q 22.859375 48.484375 18.828125 43.109375 
Q 14.796875 37.75 14.796875 27.984375 
Q 14.796875 18.265625 18.828125 12.890625 
Q 22.859375 7.515625 30.078125 7.515625 
Q 37.359375 7.515625 41.375 12.890625 
Q 45.40625 18.265625 45.40625 27.984375 
z
M 54.390625 6.78125 
Q 54.390625 -7.171875 48.1875 -13.984375 
Q 42 -20.796875 29.203125 -20.796875 
Q 24.46875 -20.796875 20.265625 -20.09375 
Q 16.0625 -19.390625 12.109375 -17.921875 
L 12.109375 -9.1875 
Q 16.0625 -11.328125 19.921875 -12.34375 
Q 23.78125 -13.375 27.78125 -13.375 
Q 36.625 -13.375 41.015625 -8.765625 
Q 45.40625 -4.15625 45.40625 5.171875 
L 45.40625 9.625 
Q 42.625 4.78125 38.28125 2.390625 
Q 33.9375 0 27.875 0 
Q 17.828125 0 11.671875 7.65625 
Q 5.515625 15.328125 5.515625 27.984375 
Q 5.515625 40.671875 11.671875 48.328125 
Q 17.828125 56 27.875 56 
Q 33.9375 56 38.28125 53.609375 
Q 42.625 51.21875 45.40625 46.390625 
L 45.40625 54.6875 
L 54.390625 54.6875 
z
" id="DejaVuSans-103"/>
       <path d="M 41.109375 46.296875 
Q 39.59375 47.171875 37.8125 47.578125 
Q 36.03125 48 33.890625 48 
Q 26.265625 48 22.1875 43.046875 
Q 18.109375 38.09375 18.109375 28.8125 
L 18.109375 0 
L 9.078125 0 
L 9.078125 54.6875 
L 18.109375 54.6875 
L 18.109375 46.1875 
Q 20.953125 51.171875 25.484375 53.578125 
Q 30.03125 56 36.53125 56 
Q 37.453125 56 38.578125 55.875 
Q 39.703125 55.765625 41.0625 55.515625 
z
" id="DejaVuSans-114"/>
       <path d="M 30.609375 48.390625 
Q 23.390625 48.390625 19.1875 42.75 
Q 14.984375 37.109375 14.984375 27.296875 
Q 14.984375 17.484375 19.15625 11.84375 
Q 23.34375 6.203125 30.609375 6.203125 
Q 37.796875 6.203125 41.984375 11.859375 
Q 46.1875 17.53125 46.1875 27.296875 
Q 46.1875 37.015625 41.984375 42.703125 
Q 37.796875 48.390625 30.609375 48.390625 
z
M 30.609375 56 
Q 42.328125 56 49.015625 48.375 
Q 55.71875 40.765625 55.71875 27.296875 
Q 55.71875 13.875 49.015625 6.21875 
Q 42.328125 -1.421875 30.609375 -1.421875 
Q 18.84375 -1.421875 12.171875 6.21875 
Q 5.515625 13.875 5.515625 27.296875 
Q 5.515625 40.765625 12.171875 48.375 
Q 18.84375 56 30.609375 56 
z
" id="DejaVuSans-111"/>
       <path d="M 18.109375 8.203125 
L 18.109375 -20.796875 
L 9.078125 -20.796875 
L 9.078125 54.6875 
L 18.109375 54.6875 
L 18.109375 46.390625 
Q 20.953125 51.265625 25.265625 53.625 
Q 29.59375 56 35.59375 56 
Q 45.5625 56 51.78125 48.09375 
Q 58.015625 40.1875 58.015625 27.296875 
Q 58.015625 14.40625 51.78125 6.484375 
Q 45.5625 -1.421875 35.59375 -1.421875 
Q 29.59375 -1.421875 25.265625 0.953125 
Q 20.953125 3.328125 18.109375 8.203125 
z
M 48.6875 27.296875 
Q 48.6875 37.203125 44.609375 42.84375 
Q 40.53125 48.484375 33.40625 48.484375 
Q 26.265625 48.484375 22.1875 42.84375 
Q 18.109375 37.203125 18.109375 27.296875 
Q 18.109375 17.390625 22.1875 11.75 
Q 26.265625 6.109375 33.40625 6.109375 
Q 40.53125 6.109375 44.609375 11.75 
Q 48.6875 17.390625 48.6875 27.296875 
z
" id="DejaVuSans-112"/>
       <path d="M 50.984375 -16.609375 
L 50.984375 -23.578125 
L -0.984375 -23.578125 
L -0.984375 -16.609375 
z
" id="DejaVuSans-95"/>
      </defs>
      <use xlink:href="#DejaVuSans-103"/>
      <use x="63.476562" xlink:href="#DejaVuSans-114"/>
      <use x="102.339844" xlink:href="#DejaVuSans-111"/>
      <use x="163.521484" xlink:href="#DejaVuSans-117"/>
      <use x="226.900391" xlink:href="#DejaVuSans-112"/>
      <use x="290.376953" xlink:href="#DejaVuSans-95"/>
      <use x="340.376953" xlink:href="#DejaVuSans-49"/>
     </g>
    </g>
    <g id="line2d_28">
     <path d="M 56.36 53.974688 
L 76.36 53.974688 
" style="fill:none;stroke:#ff7f0e;stroke-linecap:square;stroke-width:1.5;"/>
    </g>
    <g id="line2d_29"/>
    <g id="text_12">
     <!-- group_2 -->
     <g transform="translate(84.36 57.474688)scale(0.1 -0.1)">
      <use xlink:href="#DejaVuSans-103"/>
      <use x="63.476562" xlink:href="#DejaVuSans-114"/>
      <use x="102.339844" xlink:href="#DejaVuSans-111"/>
      <use x="163.521484" xlink:href="#DejaVuSans-117"/>
      <use x="226.900391" xlink:href="#DejaVuSans-112"/>
      <use x="290.376953" xlink:href="#DejaVuSans-95"/>
      <use x="340.376953" xlink:href="#DejaVuSans-50"/>
     </g>
    </g>
    <g id="line2d_30">
     <path d="M 56.36 68.930938 
L 76.36 68.930938 
" style="fill:none;stroke:#2ca02c;stroke-linecap:square;stroke-width:1.5;"/>
    </g>
    <g id="line2d_31"/>
    <g id="text_13">
     <!-- group_3 -->
     <g transform="translate(84.36 72.430938)scale(0.1 -0.1)">
      <defs>
       <path d="M 40.578125 39.3125 
Q 47.65625 37.796875 51.625 33 
Q 55.609375 28.21875 55.609375 21.1875 
Q 55.609375 10.40625 48.1875 4.484375 
Q 40.765625 -1.421875 27.09375 -1.421875 
Q 22.515625 -1.421875 17.65625 -0.515625 
Q 12.796875 0.390625 7.625 2.203125 
L 7.625 11.71875 
Q 11.71875 9.328125 16.59375 8.109375 
Q 21.484375 6.890625 26.8125 6.890625 
Q 36.078125 6.890625 40.9375 10.546875 
Q 45.796875 14.203125 45.796875 21.1875 
Q 45.796875 27.640625 41.28125 31.265625 
Q 36.765625 34.90625 28.71875 34.90625 
L 20.21875 34.90625 
L 20.21875 43.015625 
L 29.109375 43.015625 
Q 36.375 43.015625 40.234375 45.921875 
Q 44.09375 48.828125 44.09375 54.296875 
Q 44.09375 59.90625 40.109375 62.90625 
Q 36.140625 65.921875 28.71875 65.921875 
Q 24.65625 65.921875 20.015625 65.03125 
Q 15.375 64.15625 9.8125 62.3125 
L 9.8125 71.09375 
Q 15.4375 72.65625 20.34375 73.4375 
Q 25.25 74.21875 29.59375 74.21875 
Q 40.828125 74.21875 47.359375 69.109375 
Q 53.90625 64.015625 53.90625 55.328125 
Q 53.90625 49.265625 50.4375 45.09375 
Q 46.96875 40.921875 40.578125 39.3125 
z
" id="DejaVuSans-51"/>
      </defs>
      <use xlink:href="#DejaVuSans-103"/>
      <use x="63.476562" xlink:href="#DejaVuSans-114"/>
      <use x="102.339844" xlink:href="#DejaVuSans-111"/>
      <use x="163.521484" xlink:href="#DejaVuSans-117"/>
      <use x="226.900391" xlink:href="#DejaVuSans-112"/>
      <use x="290.376953" xlink:href="#DejaVuSans-95"/>
      <use x="340.376953" xlink:href="#DejaVuSans-51"/>
     </g>
    </g>
    <g id="line2d_32">
     <path d="M 56.36 83.887188 
L 76.36 83.887188 
" style="fill:none;stroke:#d62728;stroke-linecap:square;stroke-width:1.5;"/>
    </g>
    <g id="line2d_33"/>
    <g id="text_14">
     <!-- group_4 -->
     <g transform="translate(84.36 87.387188)scale(0.1 -0.1)">
      <use xlink:href="#DejaVuSans-103"/>
      <use x="63.476562" xlink:href="#DejaVuSans-114"/>
      <use x="102.339844" xlink:href="#DejaVuSans-111"/>
      <use x="163.521484" xlink:href="#DejaVuSans-117"/>
      <use x="226.900391" xlink:href="#DejaVuSans-112"/>
      <use x="290.376953" xlink:href="#DejaVuSans-95"/>
      <use x="340.376953" xlink:href="#DejaVuSans-52"/>
     </g>
    </g>
    <g id="line2d_34">
     <path d="M 56.36 98.843438 
L 76.36 98.843438 
" style="fill:none;stroke:#9467bd;stroke-linecap:square;stroke-width:1.5;"/>
    </g>
    <g id="line2d_35"/>
    <g id="text_15">
     <!-- group_5 -->
     <g transform="translate(84.36 102.343438)scale(0.1 -0.1)">
      <defs>
       <path d="M 10.796875 72.90625 
L 49.515625 72.90625 
L 49.515625 64.59375 
L 19.828125 64.59375 
L 19.828125 46.734375 
Q 21.96875 47.46875 24.109375 47.828125 
Q 26.265625 48.1875 28.421875 48.1875 
Q 40.625 48.1875 47.75 41.5 
Q 54.890625 34.8125 54.890625 23.390625 
Q 54.890625 11.625 47.5625 5.09375 
Q 40.234375 -1.421875 26.90625 -1.421875 
Q 22.3125 -1.421875 17.546875 -0.640625 
Q 12.796875 0.140625 7.71875 1.703125 
L 7.71875 11.625 
Q 12.109375 9.234375 16.796875 8.0625 
Q 21.484375 6.890625 26.703125 6.890625 
Q 35.15625 6.890625 40.078125 11.328125 
Q 45.015625 15.765625 45.015625 23.390625 
Q 45.015625 31 40.078125 35.4375 
Q 35.15625 39.890625 26.703125 39.890625 
Q 22.75 39.890625 18.8125 39.015625 
Q 14.890625 38.140625 10.796875 36.28125 
z
" id="DejaVuSans-53"/>
      </defs>
      <use xlink:href="#DejaVuSans-103"/>
      <use x="63.476562" xlink:href="#DejaVuSans-114"/>
      <use x="102.339844" xlink:href="#DejaVuSans-111"/>
      <use x="163.521484" xlink:href="#DejaVuSans-117"/>
      <use x="226.900391" xlink:href="#DejaVuSans-112"/>
      <use x="290.376953" xlink:href="#DejaVuSans-95"/>
      <use x="340.376953" xlink:href="#DejaVuSans-53"/>
     </g>
    </g>
    <g id="line2d_36">
     <path d="M 56.36 113.799688 
L 76.36 113.799688 
" style="fill:none;stroke:#8c564b;stroke-linecap:square;stroke-width:1.5;"/>
    </g>
    <g id="line2d_37"/>
    <g id="text_16">
     <!-- benchmark -->
     <g transform="translate(84.36 117.299688)scale(0.1 -0.1)">
      <defs>
       <path d="M 48.6875 27.296875 
Q 48.6875 37.203125 44.609375 42.84375 
Q 40.53125 48.484375 33.40625 48.484375 
Q 26.265625 48.484375 22.1875 42.84375 
Q 18.109375 37.203125 18.109375 27.296875 
Q 18.109375 17.390625 22.1875 11.75 
Q 26.265625 6.109375 33.40625 6.109375 
Q 40.53125 6.109375 44.609375 11.75 
Q 48.6875 17.390625 48.6875 27.296875 
z
M 18.109375 46.390625 
Q 20.953125 51.265625 25.265625 53.625 
Q 29.59375 56 35.59375 56 
Q 45.5625 56 51.78125 48.09375 
Q 58.015625 40.1875 58.015625 27.296875 
Q 58.015625 14.40625 51.78125 6.484375 
Q 45.5625 -1.421875 35.59375 -1.421875 
Q 29.59375 -1.421875 25.265625 0.953125 
Q 20.953125 3.328125 18.109375 8.203125 
L 18.109375 0 
L 9.078125 0 
L 9.078125 75.984375 
L 18.109375 75.984375 
z
" id="DejaVuSans-98"/>
       <path d="M 48.78125 52.59375 
L 48.78125 44.1875 
Q 44.96875 46.296875 41.140625 47.34375 
Q 37.3125 48.390625 33.40625 48.390625 
Q 24.65625 48.390625 19.8125 42.84375 
Q 14.984375 37.3125 14.984375 27.296875 
Q 14.984375 17.28125 19.8125 11.734375 
Q 24.65625 6.203125 33.40625 6.203125 
Q 37.3125 6.203125 41.140625 7.25 
Q 44.96875 8.296875 48.78125 10.40625 
L 48.78125 2.09375 
Q 45.015625 0.34375 40.984375 -0.53125 
Q 36.96875 -1.421875 32.421875 -1.421875 
Q 20.0625 -1.421875 12.78125 6.34375 
Q 5.515625 14.109375 5.515625 27.296875 
Q 5.515625 40.671875 12.859375 48.328125 
Q 20.21875 56 33.015625 56 
Q 37.15625 56 41.109375 55.140625 
Q 45.0625 54.296875 48.78125 52.59375 
z
" id="DejaVuSans-99"/>
       <path d="M 54.890625 33.015625 
L 54.890625 0 
L 45.90625 0 
L 45.90625 32.71875 
Q 45.90625 40.484375 42.875 44.328125 
Q 39.84375 48.1875 33.796875 48.1875 
Q 26.515625 48.1875 22.3125 43.546875 
Q 18.109375 38.921875 18.109375 30.90625 
L 18.109375 0 
L 9.078125 0 
L 9.078125 75.984375 
L 18.109375 75.984375 
L 18.109375 46.1875 
Q 21.34375 51.125 25.703125 53.5625 
Q 30.078125 56 35.796875 56 
Q 45.21875 56 50.046875 50.171875 
Q 54.890625 44.34375 54.890625 33.015625 
z
" id="DejaVuSans-104"/>
       <path d="M 52 44.1875 
Q 55.375 50.25 60.0625 53.125 
Q 64.75 56 71.09375 56 
Q 79.640625 56 84.28125 50.015625 
Q 88.921875 44.046875 88.921875 33.015625 
L 88.921875 0 
L 79.890625 0 
L 79.890625 32.71875 
Q 79.890625 40.578125 77.09375 44.375 
Q 74.3125 48.1875 68.609375 48.1875 
Q 61.625 48.1875 57.5625 43.546875 
Q 53.515625 38.921875 53.515625 30.90625 
L 53.515625 0 
L 44.484375 0 
L 44.484375 32.71875 
Q 44.484375 40.625 41.703125 44.40625 
Q 38.921875 48.1875 33.109375 48.1875 
Q 26.21875 48.1875 22.15625 43.53125 
Q 18.109375 38.875 18.109375 30.90625 
L 18.109375 0 
L 9.078125 0 
L 9.078125 54.6875 
L 18.109375 54.6875 
L 18.109375 46.1875 
Q 21.1875 51.21875 25.484375 53.609375 
Q 29.78125 56 35.6875 56 
Q 41.65625 56 45.828125 52.96875 
Q 50 49.953125 52 44.1875 
z
" id="DejaVuSans-109"/>
       <path d="M 9.078125 75.984375 
L 18.109375 75.984375 
L 18.109375 31.109375 
L 44.921875 54.6875 
L 56.390625 54.6875 
L 27.390625 29.109375 
L 57.625 0 
L 45.90625 0 
L 18.109375 26.703125 
L 18.109375 0 
L 9.078125 0 
z
" id="DejaVuSans-107"/>
      </defs>
      <use xlink:href="#DejaVuSans-98"/>
      <use x="63.476562" xlink:href="#DejaVuSans-101"/>
      <use x="125" xlink:href="#DejaVuSans-110"/>
      <use x="188.378906" xlink:href="#DejaVuSans-99"/>
      <use x="243.359375" xlink:href="#DejaVuSans-104"/>
      <use x="306.738281" xlink:href="#DejaVuSans-109"/>
      <use x="404.150391" xlink:href="#DejaVuSans-97"/>
      <use x="465.429688" xlink:href="#DejaVuSans-114"/>
      <use x="506.542969" xlink:href="#DejaVuSans-107"/>
     </g>
    </g>
    <g id="line2d_38">
     <path d="M 56.36 128.477813 
L 76.36 128.477813 
" style="fill:none;stroke:#e377c2;stroke-linecap:square;stroke-width:1.5;"/>
    </g>
    <g id="line2d_39"/>
    <g id="text_17">
     <!-- long_excess -->
     <g transform="translate(84.36 131.977813)scale(0.1 -0.1)">
      <defs>
       <path d="M 54.890625 54.6875 
L 35.109375 28.078125 
L 55.90625 0 
L 45.3125 0 
L 29.390625 21.484375 
L 13.484375 0 
L 2.875 0 
L 24.125 28.609375 
L 4.6875 54.6875 
L 15.28125 54.6875 
L 29.78125 35.203125 
L 44.28125 54.6875 
z
" id="DejaVuSans-120"/>
       <path d="M 44.28125 53.078125 
L 44.28125 44.578125 
Q 40.484375 46.53125 36.375 47.5 
Q 32.28125 48.484375 27.875 48.484375 
Q 21.1875 48.484375 17.84375 46.4375 
Q 14.5 44.390625 14.5 40.28125 
Q 14.5 37.15625 16.890625 35.375 
Q 19.28125 33.59375 26.515625 31.984375 
L 29.59375 31.296875 
Q 39.15625 29.25 43.1875 25.515625 
Q 47.21875 21.78125 47.21875 15.09375 
Q 47.21875 7.46875 41.1875 3.015625 
Q 35.15625 -1.421875 24.609375 -1.421875 
Q 20.21875 -1.421875 15.453125 -0.5625 
Q 10.6875 0.296875 5.421875 2 
L 5.421875 11.28125 
Q 10.40625 8.6875 15.234375 7.390625 
Q 20.0625 6.109375 24.8125 6.109375 
Q 31.15625 6.109375 34.5625 8.28125 
Q 37.984375 10.453125 37.984375 14.40625 
Q 37.984375 18.0625 35.515625 20.015625 
Q 33.0625 21.96875 24.703125 23.78125 
L 21.578125 24.515625 
Q 13.234375 26.265625 9.515625 29.90625 
Q 5.8125 33.546875 5.8125 39.890625 
Q 5.8125 47.609375 11.28125 51.796875 
Q 16.75 56 26.8125 56 
Q 31.78125 56 36.171875 55.265625 
Q 40.578125 54.546875 44.28125 53.078125 
z
" id="DejaVuSans-115"/>
      </defs>
      <use xlink:href="#DejaVuSans-108"/>
      <use x="27.783203" xlink:href="#DejaVuSans-111"/>
      <use x="88.964844" xlink:href="#DejaVuSans-110"/>
      <use x="152.34375" xlink:href="#DejaVuSans-103"/>
      <use x="215.820312" xlink:href="#DejaVuSans-95"/>
      <use x="265.820312" xlink:href="#DejaVuSans-101"/>
      <use x="325.59375" xlink:href="#DejaVuSans-120"/>
      <use x="383.023438" xlink:href="#DejaVuSans-99"/>
      <use x="438.003906" xlink:href="#DejaVuSans-101"/>
      <use x="499.527344" xlink:href="#DejaVuSans-115"/>
      <use x="551.626953" xlink:href="#DejaVuSans-115"/>
     </g>
    </g>
    <g id="line2d_40">
     <path d="M 56.36 143.434063 
L 76.36 143.434063 
" style="fill:none;stroke:#7f7f7f;stroke-linecap:square;stroke-width:1.5;"/>
    </g>
    <g id="line2d_41"/>
    <g id="text_18">
     <!-- short_excess -->
     <g transform="translate(84.36 146.934063)scale(0.1 -0.1)">
      <use xlink:href="#DejaVuSans-115"/>
      <use x="52.099609" xlink:href="#DejaVuSans-104"/>
      <use x="115.478516" xlink:href="#DejaVuSans-111"/>
      <use x="176.660156" xlink:href="#DejaVuSans-114"/>
      <use x="217.773438" xlink:href="#DejaVuSans-116"/>
      <use x="256.982422" xlink:href="#DejaVuSans-95"/>
      <use x="306.982422" xlink:href="#DejaVuSans-101"/>
      <use x="366.755859" xlink:href="#DejaVuSans-120"/>
      <use x="424.185547" xlink:href="#DejaVuSans-99"/>
      <use x="479.166016" xlink:href="#DejaVuSans-101"/>
      <use x="540.689453" xlink:href="#DejaVuSans-115"/>
      <use x="592.789062" xlink:href="#DejaVuSans-115"/>
     </g>
    </g>
    <g id="line2d_42">
     <path d="M 56.36 158.390313 
L 76.36 158.390313 
" style="fill:none;stroke:#bcbd22;stroke-linecap:square;stroke-width:1.5;"/>
    </g>
    <g id="line2d_43"/>
    <g id="text_19">
     <!-- long_short -->
     <g transform="translate(84.36 161.890313)scale(0.1 -0.1)">
      <use xlink:href="#DejaVuSans-108"/>
      <use x="27.783203" xlink:href="#DejaVuSans-111"/>
      <use x="88.964844" xlink:href="#DejaVuSans-110"/>
      <use x="152.34375" xlink:href="#DejaVuSans-103"/>
      <use x="215.820312" xlink:href="#DejaVuSans-95"/>
      <use x="265.820312" xlink:href="#DejaVuSans-115"/>
      <use x="317.919922" xlink:href="#DejaVuSans-104"/>
      <use x="381.298828" xlink:href="#DejaVuSans-111"/>
      <use x="442.480469" xlink:href="#DejaVuSans-114"/>
      <use x="483.59375" xlink:href="#DejaVuSans-116"/>
     </g>
    </g>
   </g>
  </g>
 </g>
 <defs>
  <clipPath id="pded7f5debb">
   <rect height="334.18" width="1093.84" x="47.36" y="25.92"/>
  </clipPath>
 </defs>
</svg>
