<?xml version="1.0" encoding="utf-8" standalone="no"?>
<!DOCTYPE svg PUBLIC "-//W3C//DTD SVG 1.1//EN"
  "http://www.w3.org/Graphics/SVG/1.1/DTD/svg11.dtd">
<!-- Created with matplotlib (https://matplotlib.org/) -->
<svg height="360pt" version="1.1" viewBox="0 0 1152 360" width="1152pt" xmlns="http://www.w3.org/2000/svg" xmlns:xlink="http://www.w3.org/1999/xlink">
 <metadata>
  <rdf:RDF xmlns:cc="http://creativecommons.org/ns#" xmlns:dc="http://purl.org/dc/elements/1.1/" xmlns:rdf="http://www.w3.org/1999/02/22-rdf-syntax-ns#">
   <cc:Work>
    <dc:type rdf:resource="http://purl.org/dc/dcmitype/StillImage"/>
    <dc:date>2023-10-11T16:59:46.133733</dc:date>
    <dc:format>image/svg+xml</dc:format>
    <dc:creator>
     <cc:Agent>
      <dc:title>Matplotlib v3.3.4, https://matplotlib.org/</dc:title>
     </cc:Agent>
    </dc:creator>
   </cc:Work>
  </rdf:RDF>
 </metadata>
 <defs>
  <style type="text/css">*{stroke-linecap:butt;stroke-linejoin:round;}</style>
 </defs>
 <g id="figure_1">
  <g id="patch_1">
   <path d="M 0 360 
L 1152 360 
L 1152 0 
L 0 0 
z
" style="fill:#ffffff;"/>
  </g>
  <g id="axes_1">
   <g id="patch_2">
    <path d="M 50.96 344.285553 
L 1141.2 344.285553 
L 1141.2 25.92 
L 50.96 25.92 
z
" style="fill:#ffffff;"/>
   </g>
   <g id="matplotlib.axis_1"/>
   <g id="matplotlib.axis_2">
    <g id="ytick_1">
     <g id="line2d_1">
      <path clip-path="url(#p3e7ade8c19)" d="M 50.96 343.314431 
L 1141.2 343.314431 
" style="fill:none;stroke:#b0b0b0;stroke-linecap:square;stroke-width:0.8;"/>
     </g>
     <g id="line2d_2">
      <defs>
       <path d="M 0 0 
L -3.5 0 
" id="m707bca33de" style="stroke:#000000;stroke-width:0.8;"/>
      </defs>
      <g>
       <use style="stroke:#000000;stroke-width:0.8;" x="50.96" xlink:href="#m707bca33de" y="343.314431"/>
      </g>
     </g>
     <g id="text_1">
      <!-- -0.6 -->
      <g transform="translate(24.449062 347.11365)scale(0.1 -0.1)">
       <defs>
        <path d="M 4.890625 31.390625 
L 31.203125 31.390625 
L 31.203125 23.390625 
L 4.890625 23.390625 
z
" id="DejaVuSans-45"/>
        <path d="M 31.78125 66.40625 
Q 24.171875 66.40625 20.328125 58.90625 
Q 16.5 51.421875 16.5 36.375 
Q 16.5 21.390625 20.328125 13.890625 
Q 24.171875 6.390625 31.78125 6.390625 
Q 39.453125 6.390625 43.28125 13.890625 
Q 47.125 21.390625 47.125 36.375 
Q 47.125 51.421875 43.28125 58.90625 
Q 39.453125 66.40625 31.78125 66.40625 
z
M 31.78125 74.21875 
Q 44.046875 74.21875 50.515625 64.515625 
Q 56.984375 54.828125 56.984375 36.375 
Q 56.984375 17.96875 50.515625 8.265625 
Q 44.046875 -1.421875 31.78125 -1.421875 
Q 19.53125 -1.421875 13.0625 8.265625 
Q 6.59375 17.96875 6.59375 36.375 
Q 6.59375 54.828125 13.0625 64.515625 
Q 19.53125 74.21875 31.78125 74.21875 
z
" id="DejaVuSans-48"/>
        <path d="M 10.6875 12.40625 
L 21 12.40625 
L 21 0 
L 10.6875 0 
z
" id="DejaVuSans-46"/>
        <path d="M 33.015625 40.375 
Q 26.375 40.375 22.484375 35.828125 
Q 18.609375 31.296875 18.609375 23.390625 
Q 18.609375 15.53125 22.484375 10.953125 
Q 26.375 6.390625 33.015625 6.390625 
Q 39.65625 6.390625 43.53125 10.953125 
Q 47.40625 15.53125 47.40625 23.390625 
Q 47.40625 31.296875 43.53125 35.828125 
Q 39.65625 40.375 33.015625 40.375 
z
M 52.59375 71.296875 
L 52.59375 62.3125 
Q 48.875 64.0625 45.09375 64.984375 
Q 41.3125 65.921875 37.59375 65.921875 
Q 27.828125 65.921875 22.671875 59.328125 
Q 17.53125 52.734375 16.796875 39.40625 
Q 19.671875 43.65625 24.015625 45.921875 
Q 28.375 48.1875 33.59375 48.1875 
Q 44.578125 48.1875 50.953125 41.515625 
Q 57.328125 34.859375 57.328125 23.390625 
Q 57.328125 12.15625 50.6875 5.359375 
Q 44.046875 -1.421875 33.015625 -1.421875 
Q 20.359375 -1.421875 13.671875 8.265625 
Q 6.984375 17.96875 6.984375 36.375 
Q 6.984375 53.65625 15.1875 63.9375 
Q 23.390625 74.21875 37.203125 74.21875 
Q 40.921875 74.21875 44.703125 73.484375 
Q 48.484375 72.75 52.59375 71.296875 
z
" id="DejaVuSans-54"/>
       </defs>
       <use xlink:href="#DejaVuSans-45"/>
       <use x="36.083984" xlink:href="#DejaVuSans-48"/>
       <use x="99.707031" xlink:href="#DejaVuSans-46"/>
       <use x="131.494141" xlink:href="#DejaVuSans-54"/>
      </g>
     </g>
    </g>
    <g id="ytick_2">
     <g id="line2d_3">
      <path clip-path="url(#p3e7ade8c19)" d="M 50.96 293.13667 
L 1141.2 293.13667 
" style="fill:none;stroke:#b0b0b0;stroke-linecap:square;stroke-width:0.8;"/>
     </g>
     <g id="line2d_4">
      <g>
       <use style="stroke:#000000;stroke-width:0.8;" x="50.96" xlink:href="#m707bca33de" y="293.13667"/>
      </g>
     </g>
     <g id="text_2">
      <!-- -0.4 -->
      <g transform="translate(24.449062 296.935889)scale(0.1 -0.1)">
       <defs>
        <path d="M 37.796875 64.3125 
L 12.890625 25.390625 
L 37.796875 25.390625 
z
M 35.203125 72.90625 
L 47.609375 72.90625 
L 47.609375 25.390625 
L 58.015625 25.390625 
L 58.015625 17.1875 
L 47.609375 17.1875 
L 47.609375 0 
L 37.796875 0 
L 37.796875 17.1875 
L 4.890625 17.1875 
L 4.890625 26.703125 
z
" id="DejaVuSans-52"/>
       </defs>
       <use xlink:href="#DejaVuSans-45"/>
       <use x="36.083984" xlink:href="#DejaVuSans-48"/>
       <use x="99.707031" xlink:href="#DejaVuSans-46"/>
       <use x="131.494141" xlink:href="#DejaVuSans-52"/>
      </g>
     </g>
    </g>
    <g id="ytick_3">
     <g id="line2d_5">
      <path clip-path="url(#p3e7ade8c19)" d="M 50.96 242.958909 
L 1141.2 242.958909 
" style="fill:none;stroke:#b0b0b0;stroke-linecap:square;stroke-width:0.8;"/>
     </g>
     <g id="line2d_6">
      <g>
       <use style="stroke:#000000;stroke-width:0.8;" x="50.96" xlink:href="#m707bca33de" y="242.958909"/>
      </g>
     </g>
     <g id="text_3">
      <!-- -0.2 -->
      <g transform="translate(24.449062 246.758128)scale(0.1 -0.1)">
       <defs>
        <path d="M 19.1875 8.296875 
L 53.609375 8.296875 
L 53.609375 0 
L 7.328125 0 
L 7.328125 8.296875 
Q 12.9375 14.109375 22.625 23.890625 
Q 32.328125 33.6875 34.8125 36.53125 
Q 39.546875 41.84375 41.421875 45.53125 
Q 43.3125 49.21875 43.3125 52.78125 
Q 43.3125 58.59375 39.234375 62.25 
Q 35.15625 65.921875 28.609375 65.921875 
Q 23.96875 65.921875 18.8125 64.3125 
Q 13.671875 62.703125 7.8125 59.421875 
L 7.8125 69.390625 
Q 13.765625 71.78125 18.9375 73 
Q 24.125 74.21875 28.421875 74.21875 
Q 39.75 74.21875 46.484375 68.546875 
Q 53.21875 62.890625 53.21875 53.421875 
Q 53.21875 48.921875 51.53125 44.890625 
Q 49.859375 40.875 45.40625 35.40625 
Q 44.1875 33.984375 37.640625 27.21875 
Q 31.109375 20.453125 19.1875 8.296875 
z
" id="DejaVuSans-50"/>
       </defs>
       <use xlink:href="#DejaVuSans-45"/>
       <use x="36.083984" xlink:href="#DejaVuSans-48"/>
       <use x="99.707031" xlink:href="#DejaVuSans-46"/>
       <use x="131.494141" xlink:href="#DejaVuSans-50"/>
      </g>
     </g>
    </g>
    <g id="ytick_4">
     <g id="line2d_7">
      <path clip-path="url(#p3e7ade8c19)" d="M 50.96 192.781148 
L 1141.2 192.781148 
" style="fill:none;stroke:#b0b0b0;stroke-linecap:square;stroke-width:0.8;"/>
     </g>
     <g id="line2d_8">
      <g>
       <use style="stroke:#000000;stroke-width:0.8;" x="50.96" xlink:href="#m707bca33de" y="192.781148"/>
      </g>
     </g>
     <g id="text_4">
      <!-- 0.0 -->
      <g transform="translate(28.056875 196.580367)scale(0.1 -0.1)">
       <use xlink:href="#DejaVuSans-48"/>
       <use x="63.623047" xlink:href="#DejaVuSans-46"/>
       <use x="95.410156" xlink:href="#DejaVuSans-48"/>
      </g>
     </g>
    </g>
    <g id="ytick_5">
     <g id="line2d_9">
      <path clip-path="url(#p3e7ade8c19)" d="M 50.96 142.603387 
L 1141.2 142.603387 
" style="fill:none;stroke:#b0b0b0;stroke-linecap:square;stroke-width:0.8;"/>
     </g>
     <g id="line2d_10">
      <g>
       <use style="stroke:#000000;stroke-width:0.8;" x="50.96" xlink:href="#m707bca33de" y="142.603387"/>
      </g>
     </g>
     <g id="text_5">
      <!-- 0.2 -->
      <g transform="translate(28.056875 146.402606)scale(0.1 -0.1)">
       <use xlink:href="#DejaVuSans-48"/>
       <use x="63.623047" xlink:href="#DejaVuSans-46"/>
       <use x="95.410156" xlink:href="#DejaVuSans-50"/>
      </g>
     </g>
    </g>
    <g id="ytick_6">
     <g id="line2d_11">
      <path clip-path="url(#p3e7ade8c19)" d="M 50.96 92.425626 
L 1141.2 92.425626 
" style="fill:none;stroke:#b0b0b0;stroke-linecap:square;stroke-width:0.8;"/>
     </g>
     <g id="line2d_12">
      <g>
       <use style="stroke:#000000;stroke-width:0.8;" x="50.96" xlink:href="#m707bca33de" y="92.425626"/>
      </g>
     </g>
     <g id="text_6">
      <!-- 0.4 -->
      <g transform="translate(28.056875 96.224845)scale(0.1 -0.1)">
       <use xlink:href="#DejaVuSans-48"/>
       <use x="63.623047" xlink:href="#DejaVuSans-46"/>
       <use x="95.410156" xlink:href="#DejaVuSans-52"/>
      </g>
     </g>
    </g>
    <g id="ytick_7">
     <g id="line2d_13">
      <path clip-path="url(#p3e7ade8c19)" d="M 50.96 42.247865 
L 1141.2 42.247865 
" style="fill:none;stroke:#b0b0b0;stroke-linecap:square;stroke-width:0.8;"/>
     </g>
     <g id="line2d_14">
      <g>
       <use style="stroke:#000000;stroke-width:0.8;" x="50.96" xlink:href="#m707bca33de" y="42.247865"/>
      </g>
     </g>
     <g id="text_7">
      <!-- 0.6 -->
      <g transform="translate(28.056875 46.047083)scale(0.1 -0.1)">
       <use xlink:href="#DejaVuSans-48"/>
       <use x="63.623047" xlink:href="#DejaVuSans-46"/>
       <use x="95.410156" xlink:href="#DejaVuSans-54"/>
      </g>
     </g>
    </g>
    <g id="text_8">
     <!-- log return cumsum -->
     <g transform="translate(18.369375 232.620745)rotate(-90)scale(0.1 -0.1)">
      <defs>
       <path d="M 9.421875 75.984375 
L 18.40625 75.984375 
L 18.40625 0 
L 9.421875 0 
z
" id="DejaVuSans-108"/>
       <path d="M 30.609375 48.390625 
Q 23.390625 48.390625 19.1875 42.75 
Q 14.984375 37.109375 14.984375 27.296875 
Q 14.984375 17.484375 19.15625 11.84375 
Q 23.34375 6.203125 30.609375 6.203125 
Q 37.796875 6.203125 41.984375 11.859375 
Q 46.1875 17.53125 46.1875 27.296875 
Q 46.1875 37.015625 41.984375 42.703125 
Q 37.796875 48.390625 30.609375 48.390625 
z
M 30.609375 56 
Q 42.328125 56 49.015625 48.375 
Q 55.71875 40.765625 55.71875 27.296875 
Q 55.71875 13.875 49.015625 6.21875 
Q 42.328125 -1.421875 30.609375 -1.421875 
Q 18.84375 -1.421875 12.171875 6.21875 
Q 5.515625 13.875 5.515625 27.296875 
Q 5.515625 40.765625 12.171875 48.375 
Q 18.84375 56 30.609375 56 
z
" id="DejaVuSans-111"/>
       <path d="M 45.40625 27.984375 
Q 45.40625 37.75 41.375 43.109375 
Q 37.359375 48.484375 30.078125 48.484375 
Q 22.859375 48.484375 18.828125 43.109375 
Q 14.796875 37.75 14.796875 27.984375 
Q 14.796875 18.265625 18.828125 12.890625 
Q 22.859375 7.515625 30.078125 7.515625 
Q 37.359375 7.515625 41.375 12.890625 
Q 45.40625 18.265625 45.40625 27.984375 
z
M 54.390625 6.78125 
Q 54.390625 -7.171875 48.1875 -13.984375 
Q 42 -20.796875 29.203125 -20.796875 
Q 24.46875 -20.796875 20.265625 -20.09375 
Q 16.0625 -19.390625 12.109375 -17.921875 
L 12.109375 -9.1875 
Q 16.0625 -11.328125 19.921875 -12.34375 
Q 23.78125 -13.375 27.78125 -13.375 
Q 36.625 -13.375 41.015625 -8.765625 
Q 45.40625 -4.15625 45.40625 5.171875 
L 45.40625 9.625 
Q 42.625 4.78125 38.28125 2.390625 
Q 33.9375 0 27.875 0 
Q 17.828125 0 11.671875 7.65625 
Q 5.515625 15.328125 5.515625 27.984375 
Q 5.515625 40.671875 11.671875 48.328125 
Q 17.828125 56 27.875 56 
Q 33.9375 56 38.28125 53.609375 
Q 42.625 51.21875 45.40625 46.390625 
L 45.40625 54.6875 
L 54.390625 54.6875 
z
" id="DejaVuSans-103"/>
       <path id="DejaVuSans-32"/>
       <path d="M 41.109375 46.296875 
Q 39.59375 47.171875 37.8125 47.578125 
Q 36.03125 48 33.890625 48 
Q 26.265625 48 22.1875 43.046875 
Q 18.109375 38.09375 18.109375 28.8125 
L 18.109375 0 
L 9.078125 0 
L 9.078125 54.6875 
L 18.109375 54.6875 
L 18.109375 46.1875 
Q 20.953125 51.171875 25.484375 53.578125 
Q 30.03125 56 36.53125 56 
Q 37.453125 56 38.578125 55.875 
Q 39.703125 55.765625 41.0625 55.515625 
z
" id="DejaVuSans-114"/>
       <path d="M 56.203125 29.59375 
L 56.203125 25.203125 
L 14.890625 25.203125 
Q 15.484375 15.921875 20.484375 11.0625 
Q 25.484375 6.203125 34.421875 6.203125 
Q 39.59375 6.203125 44.453125 7.46875 
Q 49.3125 8.734375 54.109375 11.28125 
L 54.109375 2.78125 
Q 49.265625 0.734375 44.1875 -0.34375 
Q 39.109375 -1.421875 33.890625 -1.421875 
Q 20.796875 -1.421875 13.15625 6.1875 
Q 5.515625 13.8125 5.515625 26.8125 
Q 5.515625 40.234375 12.765625 48.109375 
Q 20.015625 56 32.328125 56 
Q 43.359375 56 49.78125 48.890625 
Q 56.203125 41.796875 56.203125 29.59375 
z
M 47.21875 32.234375 
Q 47.125 39.59375 43.09375 43.984375 
Q 39.0625 48.390625 32.421875 48.390625 
Q 24.90625 48.390625 20.390625 44.140625 
Q 15.875 39.890625 15.1875 32.171875 
z
" id="DejaVuSans-101"/>
       <path d="M 18.3125 70.21875 
L 18.3125 54.6875 
L 36.8125 54.6875 
L 36.8125 47.703125 
L 18.3125 47.703125 
L 18.3125 18.015625 
Q 18.3125 11.328125 20.140625 9.421875 
Q 21.96875 7.515625 27.59375 7.515625 
L 36.8125 7.515625 
L 36.8125 0 
L 27.59375 0 
Q 17.1875 0 13.234375 3.875 
Q 9.28125 7.765625 9.28125 18.015625 
L 9.28125 47.703125 
L 2.6875 47.703125 
L 2.6875 54.6875 
L 9.28125 54.6875 
L 9.28125 70.21875 
z
" id="DejaVuSans-116"/>
       <path d="M 8.5 21.578125 
L 8.5 54.6875 
L 17.484375 54.6875 
L 17.484375 21.921875 
Q 17.484375 14.15625 20.5 10.265625 
Q 23.53125 6.390625 29.59375 6.390625 
Q 36.859375 6.390625 41.078125 11.03125 
Q 45.3125 15.671875 45.3125 23.6875 
L 45.3125 54.6875 
L 54.296875 54.6875 
L 54.296875 0 
L 45.3125 0 
L 45.3125 8.40625 
Q 42.046875 3.421875 37.71875 1 
Q 33.40625 -1.421875 27.6875 -1.421875 
Q 18.265625 -1.421875 13.375 4.4375 
Q 8.5 10.296875 8.5 21.578125 
z
M 31.109375 56 
z
" id="DejaVuSans-117"/>
       <path d="M 54.890625 33.015625 
L 54.890625 0 
L 45.90625 0 
L 45.90625 32.71875 
Q 45.90625 40.484375 42.875 44.328125 
Q 39.84375 48.1875 33.796875 48.1875 
Q 26.515625 48.1875 22.3125 43.546875 
Q 18.109375 38.921875 18.109375 30.90625 
L 18.109375 0 
L 9.078125 0 
L 9.078125 54.6875 
L 18.109375 54.6875 
L 18.109375 46.1875 
Q 21.34375 51.125 25.703125 53.5625 
Q 30.078125 56 35.796875 56 
Q 45.21875 56 50.046875 50.171875 
Q 54.890625 44.34375 54.890625 33.015625 
z
" id="DejaVuSans-110"/>
       <path d="M 48.78125 52.59375 
L 48.78125 44.1875 
Q 44.96875 46.296875 41.140625 47.34375 
Q 37.3125 48.390625 33.40625 48.390625 
Q 24.65625 48.390625 19.8125 42.84375 
Q 14.984375 37.3125 14.984375 27.296875 
Q 14.984375 17.28125 19.8125 11.734375 
Q 24.65625 6.203125 33.40625 6.203125 
Q 37.3125 6.203125 41.140625 7.25 
Q 44.96875 8.296875 48.78125 10.40625 
L 48.78125 2.09375 
Q 45.015625 0.34375 40.984375 -0.53125 
Q 36.96875 -1.421875 32.421875 -1.421875 
Q 20.0625 -1.421875 12.78125 6.34375 
Q 5.515625 14.109375 5.515625 27.296875 
Q 5.515625 40.671875 12.859375 48.328125 
Q 20.21875 56 33.015625 56 
Q 37.15625 56 41.109375 55.140625 
Q 45.0625 54.296875 48.78125 52.59375 
z
" id="DejaVuSans-99"/>
       <path d="M 52 44.1875 
Q 55.375 50.25 60.0625 53.125 
Q 64.75 56 71.09375 56 
Q 79.640625 56 84.28125 50.015625 
Q 88.921875 44.046875 88.921875 33.015625 
L 88.921875 0 
L 79.890625 0 
L 79.890625 32.71875 
Q 79.890625 40.578125 77.09375 44.375 
Q 74.3125 48.1875 68.609375 48.1875 
Q 61.625 48.1875 57.5625 43.546875 
Q 53.515625 38.921875 53.515625 30.90625 
L 53.515625 0 
L 44.484375 0 
L 44.484375 32.71875 
Q 44.484375 40.625 41.703125 44.40625 
Q 38.921875 48.1875 33.109375 48.1875 
Q 26.21875 48.1875 22.15625 43.53125 
Q 18.109375 38.875 18.109375 30.90625 
L 18.109375 0 
L 9.078125 0 
L 9.078125 54.6875 
L 18.109375 54.6875 
L 18.109375 46.1875 
Q 21.1875 51.21875 25.484375 53.609375 
Q 29.78125 56 35.6875 56 
Q 41.65625 56 45.828125 52.96875 
Q 50 49.953125 52 44.1875 
z
" id="DejaVuSans-109"/>
       <path d="M 44.28125 53.078125 
L 44.28125 44.578125 
Q 40.484375 46.53125 36.375 47.5 
Q 32.28125 48.484375 27.875 48.484375 
Q 21.1875 48.484375 17.84375 46.4375 
Q 14.5 44.390625 14.5 40.28125 
Q 14.5 37.15625 16.890625 35.375 
Q 19.28125 33.59375 26.515625 31.984375 
L 29.59375 31.296875 
Q 39.15625 29.25 43.1875 25.515625 
Q 47.21875 21.78125 47.21875 15.09375 
Q 47.21875 7.46875 41.1875 3.015625 
Q 35.15625 -1.421875 24.609375 -1.421875 
Q 20.21875 -1.421875 15.453125 -0.5625 
Q 10.6875 0.296875 5.421875 2 
L 5.421875 11.28125 
Q 10.40625 8.6875 15.234375 7.390625 
Q 20.0625 6.109375 24.8125 6.109375 
Q 31.15625 6.109375 34.5625 8.28125 
Q 37.984375 10.453125 37.984375 14.40625 
Q 37.984375 18.0625 35.515625 20.015625 
Q 33.0625 21.96875 24.703125 23.78125 
L 21.578125 24.515625 
Q 13.234375 26.265625 9.515625 29.90625 
Q 5.8125 33.546875 5.8125 39.890625 
Q 5.8125 47.609375 11.28125 51.796875 
Q 16.75 56 26.8125 56 
Q 31.78125 56 36.171875 55.265625 
Q 40.578125 54.546875 44.28125 53.078125 
z
" id="DejaVuSans-115"/>
      </defs>
      <use xlink:href="#DejaVuSans-108"/>
      <use x="27.783203" xlink:href="#DejaVuSans-111"/>
      <use x="88.964844" xlink:href="#DejaVuSans-103"/>
      <use x="152.441406" xlink:href="#DejaVuSans-32"/>
      <use x="184.228516" xlink:href="#DejaVuSans-114"/>
      <use x="223.091797" xlink:href="#DejaVuSans-101"/>
      <use x="284.615234" xlink:href="#DejaVuSans-116"/>
      <use x="323.824219" xlink:href="#DejaVuSans-117"/>
      <use x="387.203125" xlink:href="#DejaVuSans-114"/>
      <use x="426.566406" xlink:href="#DejaVuSans-110"/>
      <use x="489.945312" xlink:href="#DejaVuSans-32"/>
      <use x="521.732422" xlink:href="#DejaVuSans-99"/>
      <use x="576.712891" xlink:href="#DejaVuSans-117"/>
      <use x="640.091797" xlink:href="#DejaVuSans-109"/>
      <use x="737.503906" xlink:href="#DejaVuSans-115"/>
      <use x="789.603516" xlink:href="#DejaVuSans-117"/>
      <use x="852.982422" xlink:href="#DejaVuSans-109"/>
     </g>
    </g>
   </g>
   <g id="line2d_15">
    <path clip-path="url(#p3e7ade8c19)" d="M 100.516364 193.275038 
L 104.299292 197.14187 
L 108.082221 204.444442 
L 111.865149 210.891104 
L 123.213935 208.196367 
L 126.996863 210.902035 
L 130.779792 221.23314 
L 134.56272 205.972938 
L 138.345649 219.720872 
L 149.694434 223.960345 
L 153.477363 223.260769 
L 157.260291 220.429019 
L 161.04322 217.002055 
L 164.826149 205.688473 
L 176.174934 196.875803 
L 179.957863 217.203599 
L 183.740791 219.229601 
L 187.52372 219.460497 
L 191.306648 221.164689 
L 202.655434 211.961562 
L 206.438362 197.327317 
L 210.221291 185.470747 
L 214.004219 201.322017 
L 217.787148 216.182952 
L 229.135933 239.970767 
L 232.918862 239.790909 
L 236.70179 243.965623 
L 240.484719 255.53448 
L 244.267647 254.9996 
L 255.616433 251.161052 
L 259.399362 246.539491 
L 263.18229 243.17947 
L 266.965219 235.411943 
L 270.748147 232.048012 
L 282.096933 241.486393 
L 285.879861 241.990954 
L 289.66279 223.992663 
L 293.445718 228.366888 
L 297.228647 247.922648 
L 308.577432 263.328612 
L 312.360361 267.019004 
L 316.143289 280.958816 
L 319.926218 288.335933 
L 323.709146 280.445774 
L 335.057932 269.593389 
L 338.840861 272.44704 
L 342.623789 280.612069 
L 346.406718 282.82928 
L 350.189646 290.698023 
L 361.538432 296.442037 
L 365.32136 287.785526 
L 369.104289 296.560064 
L 372.887217 282.050442 
L 376.670146 294.684712 
L 388.018931 280.228311 
L 391.80186 263.224991 
L 395.584788 248.738228 
L 399.367717 235.697143 
L 403.150645 236.291114 
L 414.499431 247.733898 
L 418.282359 250.445416 
L 422.065288 237.411658 
L 425.848217 226.27701 
L 429.631145 210.978859 
L 440.979931 196.788367 
L 444.762859 195.906177 
L 448.545788 207.248444 
L 452.328716 214.925023 
L 456.111645 195.961072 
L 467.46043 195.083253 
L 471.243359 193.10531 
L 475.026287 190.089589 
L 478.809216 183.929758 
L 482.592144 174.437295 
L 493.94093 168.846345 
L 497.723858 186.35799 
L 501.506787 204.592343 
L 505.289715 201.767866 
L 509.072644 197.306135 
L 520.42143 185.709546 
L 524.204358 192.632638 
L 527.987287 212.812146 
L 531.770215 201.269114 
L 535.553144 217.990448 
L 546.901929 213.292468 
L 550.684858 204.673578 
L 554.467786 220.089999 
L 558.250715 219.300423 
L 562.033643 206.59363 
L 573.382429 218.010642 
L 577.165357 225.873872 
L 580.948286 233.453781 
L 584.731214 219.374995 
L 588.514143 209.770344 
L 599.862929 218.837133 
L 603.645857 221.452568 
L 607.428786 219.848121 
L 611.211714 208.861638 
L 614.994643 199.515198 
L 626.343428 212.728465 
L 633.909285 228.525015 
L 637.692214 233.919254 
L 641.475142 230.623588 
L 652.823928 246.162609 
L 656.606856 237.078262 
L 660.389785 220.901603 
L 664.172713 231.033589 
L 667.955642 216.444235 
L 679.304427 198.327745 
L 683.087356 200.211879 
L 686.870285 203.846807 
L 690.653213 199.709144 
L 694.436142 190.140356 
L 705.784927 186.942688 
L 713.350784 211.822922 
L 717.133713 217.362531 
L 720.916641 211.812661 
L 732.265427 200.672332 
L 736.048355 190.448582 
L 739.831284 204.424383 
L 743.614212 200.881637 
L 747.397141 190.485933 
L 758.745926 191.965393 
L 762.528855 185.594258 
L 766.311783 192.970539 
L 770.094712 198.435712 
L 773.877641 199.912394 
L 785.226426 207.890999 
L 789.009355 222.254114 
L 792.792283 222.731209 
L 796.575212 213.571532 
L 800.35814 224.8566 
L 811.706926 206.462624 
L 815.489854 203.9843 
L 819.272783 215.577978 
L 823.055711 195.179128 
L 826.83864 189.494757 
L 838.187425 193.049293 
L 841.970354 197.350907 
L 845.753282 196.984057 
L 849.536211 189.220882 
L 853.319139 195.09552 
L 864.667925 178.582186 
L 868.450854 181.185113 
L 872.233782 178.488378 
L 876.016711 167.188681 
L 879.799639 161.52036 
L 891.148425 162.750645 
L 894.931353 173.355373 
L 898.714282 161.654233 
L 902.49721 163.762618 
L 906.280139 150.56285 
L 917.628924 132.470879 
L 921.411853 130.407759 
L 925.194781 143.963511 
L 928.97771 145.599835 
L 932.760638 132.550329 
L 944.109424 112.302522 
L 947.892353 112.043082 
L 951.675281 99.789388 
L 955.45821 111.001169 
L 959.241138 111.373453 
L 970.589924 107.946924 
L 978.155781 110.108176 
L 981.938709 104.214092 
L 985.721638 113.959586 
L 997.070423 102.360591 
L 1000.853352 95.499591 
L 1004.63628 104.30373 
L 1008.419209 110.849256 
L 1012.202137 112.301713 
L 1023.550923 132.638737 
L 1027.333851 122.834744 
L 1031.11678 103.072134 
L 1034.899709 128.69918 
L 1038.682637 123.889318 
L 1050.031423 117.826098 
L 1053.814351 100.670762 
L 1057.59728 98.327665 
L 1061.380208 82.776092 
L 1065.163137 101.682021 
L 1076.511922 109.871544 
L 1080.294851 90.794568 
L 1084.077779 81.024997 
L 1087.860708 85.38285 
L 1091.643636 85.38285 
L 1091.643636 85.38285 
" style="fill:none;stroke:#9467bd;stroke-linecap:square;stroke-width:1.5;"/>
   </g>
   <g id="line2d_16">
    <path clip-path="url(#p3e7ade8c19)" d="M 100.516364 205.411981 
L 104.299292 209.712135 
L 108.082221 218.330129 
L 111.865149 230.407223 
L 123.213935 208.784525 
L 126.996863 194.497681 
L 130.779792 187.053417 
L 134.56272 202.538633 
L 138.345649 199.658443 
L 149.694434 215.129915 
L 153.477363 223.228665 
L 157.260291 206.061187 
L 161.04322 224.14471 
L 164.826149 215.842968 
L 176.174934 226.561966 
L 179.957863 239.673942 
L 183.740791 226.34338 
L 187.52372 220.210347 
L 191.306648 213.357609 
L 202.655434 212.386545 
L 206.438362 221.868811 
L 210.221291 206.076382 
L 214.004219 201.204725 
L 217.787148 205.053826 
L 229.135933 193.757158 
L 232.918862 202.697244 
L 236.70179 216.867874 
L 240.484719 201.844633 
L 244.267647 189.110928 
L 255.616433 204.406031 
L 259.399362 198.752265 
L 263.18229 201.353206 
L 266.965219 212.48114 
L 270.748147 208.361403 
L 282.096933 195.429776 
L 285.879861 185.529458 
L 289.66279 168.209914 
L 293.445718 175.806605 
L 297.228647 184.501214 
L 308.577432 186.851497 
L 312.360361 194.463597 
L 316.143289 190.386663 
L 323.709146 214.684823 
L 335.057932 213.250871 
L 338.840861 214.255584 
L 342.623789 215.474245 
L 346.406718 210.998849 
L 350.189646 216.183022 
L 361.538432 210.680285 
L 365.32136 216.289866 
L 369.104289 216.525306 
L 372.887217 226.144889 
L 376.670146 215.176708 
L 388.018931 217.444091 
L 391.80186 223.499216 
L 395.584788 204.210146 
L 399.367717 213.931478 
L 403.150645 210.427938 
L 414.499431 198.88325 
L 418.282359 219.783625 
L 422.065288 218.916604 
L 425.848217 203.05361 
L 429.631145 197.966884 
L 440.979931 187.127765 
L 444.762859 201.497724 
L 448.545788 195.771371 
L 452.328716 207.893886 
L 456.111645 199.818943 
L 467.46043 208.173096 
L 471.243359 225.387026 
L 475.026287 229.092334 
L 478.809216 219.606872 
L 482.592144 200.702727 
L 493.94093 206.87886 
L 497.723858 203.00554 
L 501.506787 203.117915 
L 505.289715 197.379657 
L 509.072644 199.402057 
L 520.42143 207.452448 
L 524.204358 209.809001 
L 527.987287 208.305145 
L 531.770215 198.949332 
L 535.553144 205.227412 
L 546.901929 196.085494 
L 550.684858 195.803093 
L 554.467786 207.898967 
L 558.250715 191.18306 
L 562.033643 213.760673 
L 573.382429 232.803129 
L 577.165357 214.681415 
L 580.948286 231.252031 
L 584.731214 233.096365 
L 588.514143 222.442806 
L 599.862929 238.747019 
L 603.645857 255.622427 
L 607.428786 254.978157 
L 611.211714 271.186777 
L 614.994643 269.238416 
L 626.343428 265.927798 
L 630.126357 265.199494 
L 633.909285 256.554003 
L 637.692214 249.460483 
L 641.475142 250.715285 
L 652.823928 254.626234 
L 656.606856 267.039142 
L 660.389785 274.875216 
L 664.172713 273.410308 
L 667.955642 261.030425 
L 679.304427 252.918267 
L 683.087356 245.365625 
L 686.870285 259.38627 
L 690.653213 250.310469 
L 694.436142 249.824678 
L 705.784927 243.975822 
L 709.567856 231.685147 
L 713.350784 224.359993 
L 717.133713 207.434591 
L 720.916641 208.643622 
L 732.265427 218.687305 
L 736.048355 220.461621 
L 739.831284 218.649021 
L 743.614212 214.555923 
L 747.397141 224.286722 
L 758.745926 230.994786 
L 762.528855 241.719504 
L 766.311783 229.42568 
L 770.094712 232.104161 
L 773.877641 216.88642 
L 785.226426 208.470116 
L 789.009355 210.686444 
L 792.792283 194.862171 
L 796.575212 212.699948 
L 800.35814 207.935672 
L 811.706926 205.191434 
L 815.489854 225.952102 
L 819.272783 212.529198 
L 823.055711 214.93896 
L 826.83864 212.874309 
L 838.187425 230.154144 
L 841.970354 241.549191 
L 845.753282 246.048966 
L 849.536211 241.164085 
L 853.319139 256.895386 
L 864.667925 255.22692 
L 868.450854 267.510531 
L 872.233782 279.035889 
L 876.016711 286.780541 
L 879.799639 298.029921 
L 891.148425 312.383229 
L 894.931353 301.170039 
L 898.714282 307.700084 
L 902.49721 289.152305 
L 906.280139 292.413597 
L 917.628924 286.002832 
L 921.411853 292.225666 
L 925.194781 308.495125 
L 928.97771 329.814391 
L 932.760638 323.213225 
L 944.109424 310.610891 
L 947.892353 315.882955 
L 951.675281 321.647438 
L 955.45821 305.386021 
L 959.241138 299.012556 
L 970.589924 311.813047 
L 974.372852 310.788414 
L 978.155781 318.644414 
L 981.938709 317.436295 
L 985.721638 320.737091 
L 997.070423 309.247933 
L 1000.853352 294.758425 
L 1004.63628 299.098109 
L 1008.419209 314.933122 
L 1012.202137 307.640587 
L 1023.550923 318.473961 
L 1027.333851 326.321747 
L 1031.11678 308.63227 
L 1034.899709 286.713275 
L 1038.682637 275.057985 
L 1050.031423 277.086993 
L 1053.814351 293.000625 
L 1057.59728 276.411587 
L 1061.380208 273.0803 
L 1065.163137 268.093429 
L 1076.511922 258.896937 
L 1080.294851 248.797849 
L 1084.077779 248.935195 
L 1087.860708 245.057842 
L 1091.643636 245.057842 
L 1091.643636 245.057842 
" style="fill:none;stroke:#1f77b4;stroke-linecap:square;stroke-width:1.5;"/>
   </g>
   <g id="line2d_17">
    <path clip-path="url(#p3e7ade8c19)" d="M 100.516364 196.592765 
L 104.299292 195.35657 
L 108.082221 206.5814 
L 111.865149 205.18115 
L 123.213935 199.601038 
L 126.996863 195.997283 
L 130.779792 195.748338 
L 134.56272 192.526393 
L 138.345649 183.20333 
L 149.694434 190.998992 
L 153.477363 194.708341 
L 157.260291 189.237206 
L 161.04322 198.175603 
L 164.826149 190.240499 
L 176.174934 191.015155 
L 179.957863 198.919879 
L 183.740791 191.495268 
L 187.52372 194.600863 
L 191.306648 193.254949 
L 202.655434 192.74091 
L 206.438362 186.331283 
L 210.221291 183.111929 
L 214.004219 191.47947 
L 217.787148 194.421373 
L 229.135933 200.267851 
L 232.918862 201.004169 
L 236.70179 205.778359 
L 240.484719 204.378851 
L 244.267647 199.377478 
L 255.616433 200.521003 
L 259.399362 195.442277 
L 263.18229 191.872881 
L 266.965219 192.177647 
L 270.748147 189.975632 
L 282.096933 188.288977 
L 285.879861 190.367381 
L 289.66279 180.575308 
L 297.228647 193.386865 
L 308.577432 192.541644 
L 312.360361 195.368313 
L 316.143289 201.301235 
L 319.926218 206.423828 
L 323.709146 199.419401 
L 335.057932 196.828807 
L 338.840861 197.29454 
L 342.623789 189.634397 
L 346.406718 189.377643 
L 350.189646 190.88735 
L 361.538432 190.411542 
L 365.32136 196.271815 
L 369.104289 196.691638 
L 372.887217 191.993508 
L 376.670146 194.243736 
L 388.018931 198.137083 
L 391.80186 192.787617 
L 395.584788 186.758689 
L 399.367717 181.423083 
L 403.150645 175.755665 
L 414.499431 182.529491 
L 418.282359 192.407037 
L 422.065288 191.785305 
L 425.848217 181.274149 
L 429.631145 179.934147 
L 440.979931 166.713342 
L 444.762859 173.123484 
L 448.545788 175.093195 
L 452.328716 176.69119 
L 456.111645 165.80498 
L 467.46043 165.307531 
L 471.243359 164.548561 
L 475.026287 164.829866 
L 478.809216 161.853349 
L 482.592144 160.713125 
L 493.94093 158.11781 
L 497.723858 155.669124 
L 501.506787 161.365663 
L 505.289715 155.821032 
L 509.072644 152.500311 
L 520.42143 151.721044 
L 524.204358 158.436843 
L 527.987287 160.133013 
L 531.770215 155.684273 
L 535.553144 160.379117 
L 546.901929 153.63915 
L 550.684858 152.064422 
L 554.467786 160.196716 
L 558.250715 151.450681 
L 562.033643 148.35071 
L 573.382429 154.752361 
L 577.165357 152.075829 
L 580.948286 161.984435 
L 584.731214 163.098236 
L 588.514143 157.489956 
L 599.862929 161.549693 
L 603.645857 161.57197 
L 607.428786 160.845445 
L 611.211714 162.42107 
L 614.994643 159.987087 
L 626.343428 156.210141 
L 630.126357 151.993293 
L 633.909285 150.81161 
L 637.692214 158.969337 
L 641.475142 158.542229 
L 652.823928 162.413707 
L 656.606856 164.946665 
L 660.389785 172.604527 
L 667.955642 168.878212 
L 679.304427 162.546639 
L 683.087356 163.16611 
L 686.870285 157.760525 
L 690.653213 151.799911 
L 694.436142 148.042907 
L 705.784927 144.27447 
L 709.567856 148.113207 
L 713.350784 150.556176 
L 717.133713 148.886447 
L 720.916641 148.023415 
L 732.265427 149.446038 
L 736.048355 149.459485 
L 739.831284 147.530042 
L 743.614212 144.779902 
L 747.397141 143.962301 
L 758.745926 145.830464 
L 762.528855 144.479168 
L 766.311783 144.767036 
L 770.094712 144.344959 
L 773.877641 143.556344 
L 785.226426 142.609355 
L 789.009355 139.053132 
L 792.792283 133.368962 
L 796.575212 136.344984 
L 800.35814 137.104817 
L 811.706926 132.623938 
L 815.489854 134.686701 
L 819.272783 135.863337 
L 823.055711 129.902702 
L 826.83864 125.002968 
L 838.187425 133.36494 
L 841.970354 137.503154 
L 845.753282 139.10785 
L 849.536211 133.603654 
L 853.319139 136.430008 
L 864.667925 139.255359 
L 868.450854 138.746901 
L 872.233782 141.088554 
L 876.016711 138.926479 
L 879.799639 145.92712 
L 891.148425 142.359934 
L 894.931353 143.76978 
L 898.714282 142.198182 
L 902.49721 138.294879 
L 906.280139 137.561878 
L 917.628924 125.91293 
L 921.411853 118.300825 
L 925.194781 122.344983 
L 928.97771 125.029831 
L 932.760638 117.498208 
L 944.109424 114.362415 
L 947.892353 107.025026 
L 955.45821 116.644377 
L 959.241138 115.06228 
L 970.589924 112.971924 
L 974.372852 113.288664 
L 978.155781 120.73493 
L 981.938709 121.480714 
L 985.721638 120.291747 
L 997.070423 117.564406 
L 1000.853352 108.593191 
L 1004.63628 116.129222 
L 1008.419209 118.32098 
L 1012.202137 109.925992 
L 1023.550923 113.857082 
L 1027.333851 111.3981 
L 1031.11678 107.512639 
L 1034.899709 111.706206 
L 1038.682637 105.743105 
L 1050.031423 100.243415 
L 1053.814351 101.522996 
L 1057.59728 103.714374 
L 1061.380208 102.297274 
L 1065.163137 105.213476 
L 1076.511922 104.325224 
L 1080.294851 97.415964 
L 1084.077779 91.287751 
L 1087.860708 90.892092 
L 1087.860708 90.892092 
" style="fill:none;stroke:#8c564b;stroke-linecap:square;stroke-width:1.5;"/>
   </g>
   <g id="line2d_18">
    <path clip-path="url(#p3e7ade8c19)" d="M 100.516364 189.513121 
L 104.299292 194.641613 
L 108.082221 190.889693 
L 111.865149 198.78122 
L 123.213935 201.731872 
L 126.996863 208.133752 
L 130.779792 218.72453 
L 134.56272 206.534398 
L 138.345649 230.521938 
L 149.694434 227.073804 
L 153.477363 222.729028 
L 157.260291 225.426916 
L 161.04322 213.484204 
L 164.826149 209.997915 
L 176.174934 200.439589 
L 179.957863 212.467962 
L 183.740791 222.208009 
L 187.52372 219.368475 
L 191.306648 222.435089 
L 202.655434 213.728485 
L 206.438362 205.294578 
L 210.221291 196.547739 
L 214.004219 203.782416 
L 217.787148 215.55919 
L 229.135933 233.072503 
L 232.918862 232.159007 
L 236.70179 231.570817 
L 240.484719 244.613643 
L 244.267647 249.170889 
L 255.616433 244.21125 
L 259.399362 244.677772 
L 263.18229 244.890148 
L 266.965219 236.8275 
L 270.748147 235.655365 
L 282.096933 246.857144 
L 285.879861 245.296244 
L 289.66279 236.768899 
L 293.445718 234.775995 
L 297.228647 247.59898 
L 308.577432 263.906827 
L 312.360361 264.760857 
L 316.143289 272.577679 
L 319.926218 274.786436 
L 323.709146 273.875673 
L 335.057932 265.529543 
L 338.840861 267.91301 
L 342.623789 284.245126 
L 346.406718 286.721634 
L 350.189646 293.042036 
L 361.538432 299.273814 
L 365.32136 285.082883 
L 369.104289 293.423395 
L 372.887217 283.430088 
L 376.670146 293.719484 
L 388.018931 275.642356 
L 391.80186 263.743213 
L 395.584788 255.083182 
L 399.367717 247.214648 
L 403.150645 253.62093 
L 414.499431 258.164382 
L 418.282359 251.271236 
L 422.065288 238.829165 
L 425.848217 238.17903 
L 429.631145 224.148182 
L 440.979931 223.126133 
L 444.762859 216.015177 
L 448.545788 225.313063 
L 452.328716 231.352584 
L 456.111645 222.922583 
L 467.46043 222.541459 
L 471.243359 221.318801 
L 478.809216 214.804383 
L 482.592144 206.414728 
L 493.94093 203.388131 
L 497.723858 223.552311 
L 501.506787 235.80167 
L 505.289715 238.582946 
L 509.072644 237.426769 
L 520.42143 226.576514 
L 524.204358 226.778329 
L 527.987287 245.13246 
L 531.770215 237.913059 
L 535.553144 249.711266 
L 546.901929 251.809086 
L 550.684858 244.721193 
L 554.467786 251.769704 
L 558.250715 260.013104 
L 562.033643 250.28913 
L 573.382429 255.176899 
L 577.165357 265.832138 
L 580.948286 263.593217 
L 584.731214 248.465938 
L 588.514143 244.379959 
L 599.862929 249.305848 
L 603.645857 251.898775 
L 607.428786 251.018311 
L 611.211714 238.532923 
L 614.994643 231.554008 
L 626.343428 248.810999 
L 630.126357 261.173116 
L 633.909285 270.260675 
L 637.692214 267.585127 
L 641.475142 264.71171 
L 652.823928 276.196439 
L 656.606856 264.693197 
L 660.389785 241.543136 
L 664.172713 253.617901 
L 667.955642 240.810074 
L 679.304427 228.731099 
L 683.087356 229.992635 
L 686.870285 239.233717 
L 690.653213 241.10066 
L 694.436142 235.202214 
L 705.784927 235.78163 
L 709.567856 244.304173 
L 713.350784 254.148207 
L 717.133713 261.406388 
L 720.916641 256.70355 
L 732.265427 244.209894 
L 736.048355 233.973234 
L 739.831284 250.005276 
L 743.614212 249.203947 
L 747.397141 239.595172 
L 758.745926 239.209349 
L 762.528855 234.162672 
L 766.311783 241.24284 
L 770.094712 247.140121 
L 773.877641 249.412582 
L 785.226426 258.372538 
L 789.009355 276.55718 
L 792.792283 282.861417 
L 796.575212 270.865454 
L 800.35814 281.358186 
L 811.706926 267.201311 
L 815.489854 262.697076 
L 819.272783 273.064357 
L 823.055711 258.289037 
L 826.83864 257.48895 
L 838.187425 252.837651 
L 841.970354 252.998376 
L 845.753282 251.039351 
L 849.536211 248.730495 
L 853.319139 251.744426 
L 864.667925 232.614251 
L 868.450854 235.731986 
L 872.233782 230.739943 
L 876.016711 221.52467 
L 879.799639 209.195904 
L 891.148425 214.062744 
L 894.931353 223.205151 
L 898.714282 213.013232 
L 902.49721 219.120338 
L 906.280139 206.617988 
L 917.628924 199.872837 
L 921.411853 205.594726 
L 925.194781 214.951356 
L 928.97771 213.91397 
L 932.760638 208.229821 
L 944.109424 190.909848 
L 947.892353 198.200935 
L 951.675281 181.507171 
L 955.45821 187.724624 
L 959.241138 189.691416 
L 970.589924 188.344094 
L 974.372852 189.121665 
L 978.155781 182.925653 
L 981.938709 176.305236 
L 985.721638 187.292793 
L 997.070423 178.325884 
L 1000.853352 180.513256 
L 1004.63628 181.743748 
L 1008.419209 186.059319 
L 1012.202137 196.248741 
L 1023.550923 212.391233 
L 1027.333851 204.974938 
L 1031.11678 188.857782 
L 1034.899709 209.920638 
L 1038.682637 211.101681 
L 1050.031423 210.525676 
L 1053.814351 192.181195 
L 1057.59728 187.685801 
L 1061.380208 173.473493 
L 1065.163137 189.272496 
L 1076.511922 198.38306 
L 1080.294851 185.883924 
L 1084.077779 182.153193 
L 1087.860708 186.914279 
L 1087.860708 186.914279 
" style="fill:none;stroke:#e377c2;stroke-linecap:square;stroke-width:1.5;"/>
   </g>
   <g id="line2d_19">
    <path clip-path="url(#p3e7ade8c19)" d="M 100.516364 184.387777 
L 104.299292 178.944498 
L 108.082221 181.462867 
L 111.865149 168.602966 
L 123.213935 186.141115 
L 126.996863 197.464541 
L 130.779792 204.87979 
L 134.56272 187.253951 
L 138.345649 180.737645 
L 149.694434 173.514334 
L 153.477363 169.263187 
L 157.260291 181.808937 
L 161.04322 173.289105 
L 164.826149 173.668087 
L 176.174934 164.131857 
L 179.957863 159.187163 
L 183.740791 165.419438 
L 187.52372 174.89106 
L 191.306648 180.552101 
L 202.655434 181.010901 
L 206.438362 165.690801 
L 214.004219 192.608851 
L 217.787148 191.71544 
L 229.135933 209.677058 
L 232.918862 201.755988 
L 236.70179 192.866534 
L 240.484719 207.355712 
L 244.267647 215.497226 
L 255.616433 202.160764 
L 259.399362 202.748924 
L 263.18229 196.641457 
L 266.965219 186.278287 
L 270.748147 188.227882 
L 282.096933 200.081924 
L 285.879861 212.55497 
L 289.66279 220.629186 
L 293.445718 219.486116 
L 297.228647 217.262553 
L 308.577432 214.096656 
L 312.360361 209.452922 
L 316.143289 219.630138 
L 319.926218 212.926762 
L 323.709146 194.6509 
L 335.057932 193.487644 
L 338.840861 192.950816 
L 342.623789 184.114285 
L 346.406718 188.40951 
L 350.189646 184.809654 
L 361.538432 189.949207 
L 369.104289 190.378562 
L 372.887217 176.584896 
L 376.670146 190.410567 
L 388.018931 192.021856 
L 391.80186 180.88327 
L 395.584788 195.233976 
L 399.367717 180.733081 
L 403.150645 178.538905 
L 414.499431 197.753915 
L 418.282359 187.59455 
L 422.065288 187.840687 
L 425.848217 193.545835 
L 429.631145 197.369887 
L 440.979931 194.88357 
L 444.762859 187.360273 
L 448.545788 195.236833 
L 452.328716 185.198954 
L 456.111645 182.296263 
L 467.46043 173.729658 
L 471.243359 156.909514 
L 475.026287 153.535372 
L 478.809216 160.298525 
L 482.592144 179.507202 
L 493.94093 170.945447 
L 497.723858 172.39231 
L 501.506787 177.973944 
L 505.289715 178.172053 
L 509.072644 172.87138 
L 520.42143 164.315846 
L 524.204358 168.633986 
L 527.987287 171.853375 
L 531.770215 176.948796 
L 535.553144 175.404567 
L 546.901929 177.896098 
L 550.684858 176.602319 
L 554.467786 172.8239 
L 558.250715 181.352305 
L 562.033643 157.784057 
L 573.382429 146.045915 
L 577.165357 162.68718 
L 580.948286 156.445713 
L 584.731214 155.720523 
L 588.514143 160.986968 
L 599.862929 149.495536 
L 603.645857 133.704942 
L 607.428786 133.622475 
L 611.211714 119.880346 
L 614.994643 119.390941 
L 626.343428 118.918425 
L 630.126357 115.41981 
L 633.909285 123.149371 
L 637.692214 138.851952 
L 641.475142 137.178405 
L 652.823928 137.139544 
L 656.606856 127.727685 
L 660.389785 127.55495 
L 664.172713 127.165768 
L 667.955642 138.214414 
L 679.304427 140.053728 
L 683.087356 148.479832 
L 686.870285 130.071659 
L 690.653213 133.302341 
L 694.436142 130.02483 
L 705.784927 132.154528 
L 709.567856 149.121765 
L 713.350784 159.185173 
L 717.133713 175.540974 
L 720.916641 173.478831 
L 732.265427 165.19055 
L 736.048355 163.442047 
L 739.831284 163.324357 
L 743.614212 164.689465 
L 747.397141 154.534344 
L 758.745926 149.820943 
L 762.528855 138.238779 
L 766.311783 151.469294 
L 770.094712 148.40146 
L 773.877641 163.761051 
L 785.226426 171.489147 
L 789.009355 165.76679 
L 792.792283 176.581487 
L 796.575212 162.712028 
L 800.35814 168.343238 
L 811.706926 166.587565 
L 815.489854 149.324709 
L 819.272783 164.751784 
L 823.055711 156.460092 
L 826.83864 153.601715 
L 838.187425 145.267645 
L 841.970354 138.328621 
L 845.753282 135.484713 
L 849.536211 134.853236 
L 853.319139 122.71395 
L 864.667925 127.238023 
L 868.450854 115.042562 
L 872.233782 106.264067 
L 876.016711 96.652783 
L 879.799639 92.588842 
L 891.148425 75.631894 
L 894.931353 88.847359 
L 898.714282 80.950622 
L 902.49721 96.754881 
L 906.280139 92.81177 
L 917.628924 87.439456 
L 921.411853 73.934488 
L 925.194781 62.459526 
L 928.97771 45.292432 
L 932.760638 44.337216 
L 944.109424 54.301224 
L 947.892353 41.947626 
L 951.675281 40.954639 
L 955.45821 63.567667 
L 959.241138 68.483527 
L 970.589924 54.312845 
L 974.372852 55.659722 
L 978.155781 55.262609 
L 981.938709 57.22598 
L 985.721638 52.794385 
L 997.070423 61.974369 
L 1000.853352 67.824596 
L 1004.63628 70.965786 
L 1008.419209 58.136055 
L 1012.202137 57.001161 
L 1023.550923 50.386764 
L 1027.333851 40.391161 
L 1031.11678 55.233999 
L 1034.899709 83.871661 
L 1038.682637 89.837767 
L 1050.031423 82.368817 
L 1053.814351 68.609961 
L 1057.59728 88.726956 
L 1061.380208 90.666828 
L 1065.163137 98.731138 
L 1076.511922 107.354963 
L 1080.294851 110.676684 
L 1084.077779 104.414511 
L 1087.860708 107.950815 
L 1087.860708 107.950815 
" style="fill:none;stroke:#7f7f7f;stroke-linecap:square;stroke-width:1.5;"/>
   </g>
   <g id="line2d_20">
    <path clip-path="url(#p3e7ade8c19)" d="M 100.516364 181.226597 
L 104.299292 180.800633 
L 108.082221 179.529516 
L 111.865149 174.160887 
L 123.213935 194.864684 
L 130.779792 231.220259 
L 134.56272 202.212831 
L 138.345649 219.039528 
L 149.694434 208.465292 
L 153.477363 199.941749 
L 157.260291 215.324512 
L 161.04322 195.251677 
L 164.826149 192.139137 
L 176.174934 173.394612 
L 179.957863 180.237944 
L 183.740791 196.460189 
L 187.52372 202.983668 
L 191.306648 211.781744 
L 202.655434 203.518278 
L 206.438362 180.256042 
L 210.221291 184.449759 
L 214.004219 205.596618 
L 217.787148 216.437125 
L 229.135933 253.261904 
L 232.918862 244.455679 
L 236.70179 234.998486 
L 240.484719 263.327683 
L 244.267647 276.178173 
L 255.616433 258.136434 
L 259.399362 259.192213 
L 263.18229 253.292011 
L 266.965219 235.187462 
L 270.748147 235.9558 
L 282.096933 259.566481 
L 285.879861 270.399326 
L 289.66279 269.672138 
L 293.445718 266.545187 
L 297.228647 277.02855 
L 308.577432 289.959305 
L 312.360361 286.153914 
L 316.143289 304.476865 
L 319.926218 299.923764 
L 323.709146 280.801016 
L 335.057932 271.329605 
L 338.840861 273.171126 
L 346.406718 286.898079 
L 350.189646 289.527457 
L 361.538432 301.029413 
L 365.32136 287.070141 
L 369.104289 295.601092 
L 372.887217 272.338753 
L 376.670146 297.049575 
L 388.018931 280.471388 
L 391.80186 257.938829 
L 395.584788 263.128912 
L 399.367717 241.194896 
L 403.150645 245.350508 
L 414.499431 269.474175 
L 418.282359 252.691637 
L 422.065288 240.483789 
L 425.848217 245.523868 
L 429.631145 235.107578 
L 440.979931 231.609271 
L 444.762859 217.182223 
L 448.545788 234.658947 
L 452.328716 230.420963 
L 456.111645 219.183648 
L 467.46043 210.248703 
L 471.243359 192.285003 
L 475.026287 185.661217 
L 478.809216 189.115875 
L 482.592144 199.279231 
L 493.94093 187.791831 
L 497.723858 209.524339 
L 501.506787 227.637902 
L 505.289715 230.619496 
L 509.072644 224.186761 
L 520.42143 205.137238 
L 524.204358 209.660698 
L 527.987287 231.48026 
L 531.770215 229.210313 
L 535.553144 239.390177 
L 546.901929 244.000554 
L 550.684858 235.654831 
L 554.467786 238.818095 
L 558.250715 255.879835 
L 562.033643 223.444263 
L 573.382429 216.368387 
L 577.165357 244.412463 
L 580.948286 235.986848 
L 584.731214 220.176753 
L 588.514143 221.271261 
L 599.862929 214.483106 
L 603.645857 201.126503 
L 607.428786 200.163862 
L 611.211714 174.586379 
L 614.994643 167.131473 
L 626.343428 183.882336 
L 630.126357 192.57042 
L 633.909285 209.677252 
L 637.692214 222.532455 
L 641.475142 218.004485 
L 652.823928 229.448534 
L 656.606856 208.94775 
L 660.389785 185.640176 
L 664.172713 197.306585 
L 667.955642 194.98587 
L 679.304427 184.65945 
L 683.087356 194.390291 
L 686.870285 184.558135 
L 690.653213 189.680047 
L 694.436142 180.579762 
L 705.784927 183.293821 
L 709.567856 209.390883 
L 713.350784 229.70955 
L 717.133713 253.8201 
L 732.265427 226.707685 
L 736.048355 214.792195 
L 739.831284 230.698782 
L 743.614212 231.258197 
L 747.397141 211.868537 
L 758.745926 206.776488 
L 762.528855 190.373156 
L 766.311783 211.072991 
L 770.094712 213.829927 
L 773.877641 231.606141 
L 785.226426 248.579708 
L 789.009355 260.617059 
L 792.792283 278.017359 
L 796.575212 252.782703 
L 800.35814 269.149987 
L 811.706926 253.333445 
L 815.489854 231.863357 
L 819.272783 258.329874 
L 823.055711 235.729759 
L 826.83864 232.080344 
L 838.187425 219.245589 
L 841.970354 212.462905 
L 845.753282 207.681967 
L 849.536211 204.747413 
L 853.319139 195.478882 
L 864.667925 180.537856 
L 868.450854 171.311326 
L 872.233782 157.710797 
L 876.016711 139.224539 
L 879.799639 123.025212 
L 891.148425 110.614136 
L 894.931353 133.476117 
L 898.714282 115.697118 
L 902.49721 138.010758 
L 906.280139 121.75555 
L 917.628924 109.77912 
L 921.411853 101.692921 
L 925.194781 99.148745 
L 928.97771 81.012742 
L 932.760638 74.394736 
L 944.109424 66.361656 
L 947.892353 60.943943 
L 951.675281 43.320997 
L 955.45821 72.745927 
L 959.241138 79.667652 
L 970.589924 64.223451 
L 974.372852 66.352091 
L 978.155781 59.768646 
L 981.938709 55.060273 
L 985.721638 61.419662 
L 997.070423 61.304678 
L 1000.853352 69.394112 
L 1004.63628 73.781335 
L 1008.419209 65.050271 
L 1012.202137 74.057868 
L 1023.550923 83.152514 
L 1027.333851 66.026203 
L 1031.11678 63.802292 
L 1034.899709 116.173742 
L 1038.682637 123.349382 
L 1050.031423 115.321302 
L 1053.814351 84.163745 
L 1057.59728 99.413666 
L 1061.380208 87.034003 
L 1065.163137 111.430555 
L 1076.511922 129.489612 
L 1080.294851 120.149744 
L 1084.077779 110.248142 
L 1087.860708 118.61377 
L 1091.643636 118.61377 
L 1091.643636 118.61377 
" style="fill:none;stroke:#bcbd22;stroke-linecap:square;stroke-width:1.5;"/>
   </g>
   <g id="patch_3">
    <path d="M 50.96 344.285553 
L 50.96 25.92 
" style="fill:none;stroke:#000000;stroke-linecap:square;stroke-linejoin:miter;stroke-width:0.8;"/>
   </g>
   <g id="patch_4">
    <path d="M 1141.2 344.285553 
L 1141.2 25.92 
" style="fill:none;stroke:#000000;stroke-linecap:square;stroke-linejoin:miter;stroke-width:0.8;"/>
   </g>
   <g id="patch_5">
    <path d="M 50.96 344.285553 
L 1141.2 344.285553 
" style="fill:none;stroke:#000000;stroke-linecap:square;stroke-linejoin:miter;stroke-width:0.8;"/>
   </g>
   <g id="patch_6">
    <path d="M 50.96 25.92 
L 1141.2 25.92 
" style="fill:none;stroke:#000000;stroke-linecap:square;stroke-linejoin:miter;stroke-width:0.8;"/>
   </g>
   <g id="text_9">
    <!-- Cumulative Log Return: (2010-01-19 ~ 2010-10-08) -->
    <g transform="translate(440.202813 19.92)scale(0.12 -0.12)">
     <defs>
      <path d="M 64.40625 67.28125 
L 64.40625 56.890625 
Q 59.421875 61.53125 53.78125 63.8125 
Q 48.140625 66.109375 41.796875 66.109375 
Q 29.296875 66.109375 22.65625 58.46875 
Q 16.015625 50.828125 16.015625 36.375 
Q 16.015625 21.96875 22.65625 14.328125 
Q 29.296875 6.6875 41.796875 6.6875 
Q 48.140625 6.6875 53.78125 8.984375 
Q 59.421875 11.28125 64.40625 15.921875 
L 64.40625 5.609375 
Q 59.234375 2.09375 53.4375 0.328125 
Q 47.65625 -1.421875 41.21875 -1.421875 
Q 24.65625 -1.421875 15.125 8.703125 
Q 5.609375 18.84375 5.609375 36.375 
Q 5.609375 53.953125 15.125 64.078125 
Q 24.65625 74.21875 41.21875 74.21875 
Q 47.75 74.21875 53.53125 72.484375 
Q 59.328125 70.75 64.40625 67.28125 
z
" id="DejaVuSans-67"/>
      <path d="M 34.28125 27.484375 
Q 23.390625 27.484375 19.1875 25 
Q 14.984375 22.515625 14.984375 16.5 
Q 14.984375 11.71875 18.140625 8.90625 
Q 21.296875 6.109375 26.703125 6.109375 
Q 34.1875 6.109375 38.703125 11.40625 
Q 43.21875 16.703125 43.21875 25.484375 
L 43.21875 27.484375 
z
M 52.203125 31.203125 
L 52.203125 0 
L 43.21875 0 
L 43.21875 8.296875 
Q 40.140625 3.328125 35.546875 0.953125 
Q 30.953125 -1.421875 24.3125 -1.421875 
Q 15.921875 -1.421875 10.953125 3.296875 
Q 6 8.015625 6 15.921875 
Q 6 25.140625 12.171875 29.828125 
Q 18.359375 34.515625 30.609375 34.515625 
L 43.21875 34.515625 
L 43.21875 35.40625 
Q 43.21875 41.609375 39.140625 45 
Q 35.0625 48.390625 27.6875 48.390625 
Q 23 48.390625 18.546875 47.265625 
Q 14.109375 46.140625 10.015625 43.890625 
L 10.015625 52.203125 
Q 14.9375 54.109375 19.578125 55.046875 
Q 24.21875 56 28.609375 56 
Q 40.484375 56 46.34375 49.84375 
Q 52.203125 43.703125 52.203125 31.203125 
z
" id="DejaVuSans-97"/>
      <path d="M 9.421875 54.6875 
L 18.40625 54.6875 
L 18.40625 0 
L 9.421875 0 
z
M 9.421875 75.984375 
L 18.40625 75.984375 
L 18.40625 64.59375 
L 9.421875 64.59375 
z
" id="DejaVuSans-105"/>
      <path d="M 2.984375 54.6875 
L 12.5 54.6875 
L 29.59375 8.796875 
L 46.6875 54.6875 
L 56.203125 54.6875 
L 35.6875 0 
L 23.484375 0 
z
" id="DejaVuSans-118"/>
      <path d="M 9.8125 72.90625 
L 19.671875 72.90625 
L 19.671875 8.296875 
L 55.171875 8.296875 
L 55.171875 0 
L 9.8125 0 
z
" id="DejaVuSans-76"/>
      <path d="M 44.390625 34.1875 
Q 47.5625 33.109375 50.5625 29.59375 
Q 53.5625 26.078125 56.59375 19.921875 
L 66.609375 0 
L 56 0 
L 46.6875 18.703125 
Q 43.0625 26.03125 39.671875 28.421875 
Q 36.28125 30.8125 30.421875 30.8125 
L 19.671875 30.8125 
L 19.671875 0 
L 9.8125 0 
L 9.8125 72.90625 
L 32.078125 72.90625 
Q 44.578125 72.90625 50.734375 67.671875 
Q 56.890625 62.453125 56.890625 51.90625 
Q 56.890625 45.015625 53.6875 40.46875 
Q 50.484375 35.9375 44.390625 34.1875 
z
M 19.671875 64.796875 
L 19.671875 38.921875 
L 32.078125 38.921875 
Q 39.203125 38.921875 42.84375 42.21875 
Q 46.484375 45.515625 46.484375 51.90625 
Q 46.484375 58.296875 42.84375 61.546875 
Q 39.203125 64.796875 32.078125 64.796875 
z
" id="DejaVuSans-82"/>
      <path d="M 11.71875 12.40625 
L 22.015625 12.40625 
L 22.015625 0 
L 11.71875 0 
z
M 11.71875 51.703125 
L 22.015625 51.703125 
L 22.015625 39.3125 
L 11.71875 39.3125 
z
" id="DejaVuSans-58"/>
      <path d="M 31 75.875 
Q 24.46875 64.65625 21.28125 53.65625 
Q 18.109375 42.671875 18.109375 31.390625 
Q 18.109375 20.125 21.3125 9.0625 
Q 24.515625 -2 31 -13.1875 
L 23.1875 -13.1875 
Q 15.875 -1.703125 12.234375 9.375 
Q 8.59375 20.453125 8.59375 31.390625 
Q 8.59375 42.28125 12.203125 53.3125 
Q 15.828125 64.359375 23.1875 75.875 
z
" id="DejaVuSans-40"/>
      <path d="M 12.40625 8.296875 
L 28.515625 8.296875 
L 28.515625 63.921875 
L 10.984375 60.40625 
L 10.984375 69.390625 
L 28.421875 72.90625 
L 38.28125 72.90625 
L 38.28125 8.296875 
L 54.390625 8.296875 
L 54.390625 0 
L 12.40625 0 
z
" id="DejaVuSans-49"/>
      <path d="M 10.984375 1.515625 
L 10.984375 10.5 
Q 14.703125 8.734375 18.5 7.8125 
Q 22.3125 6.890625 25.984375 6.890625 
Q 35.75 6.890625 40.890625 13.453125 
Q 46.046875 20.015625 46.78125 33.40625 
Q 43.953125 29.203125 39.59375 26.953125 
Q 35.25 24.703125 29.984375 24.703125 
Q 19.046875 24.703125 12.671875 31.3125 
Q 6.296875 37.9375 6.296875 49.421875 
Q 6.296875 60.640625 12.9375 67.421875 
Q 19.578125 74.21875 30.609375 74.21875 
Q 43.265625 74.21875 49.921875 64.515625 
Q 56.59375 54.828125 56.59375 36.375 
Q 56.59375 19.140625 48.40625 8.859375 
Q 40.234375 -1.421875 26.421875 -1.421875 
Q 22.703125 -1.421875 18.890625 -0.6875 
Q 15.09375 0.046875 10.984375 1.515625 
z
M 30.609375 32.421875 
Q 37.25 32.421875 41.125 36.953125 
Q 45.015625 41.5 45.015625 49.421875 
Q 45.015625 57.28125 41.125 61.84375 
Q 37.25 66.40625 30.609375 66.40625 
Q 23.96875 66.40625 20.09375 61.84375 
Q 16.21875 57.28125 16.21875 49.421875 
Q 16.21875 41.5 20.09375 36.953125 
Q 23.96875 32.421875 30.609375 32.421875 
z
" id="DejaVuSans-57"/>
      <path d="M 73.1875 39.890625 
L 73.1875 31.203125 
Q 68.0625 27.34375 63.6875 25.6875 
Q 59.328125 24.03125 54.59375 24.03125 
Q 49.21875 24.03125 42.09375 26.90625 
Q 41.546875 27.09375 41.3125 27.203125 
Q 40.96875 27.34375 40.234375 27.59375 
Q 32.671875 30.609375 28.078125 30.609375 
Q 23.78125 30.609375 19.578125 28.734375 
Q 15.375 26.859375 10.59375 22.796875 
L 10.59375 31.5 
Q 15.71875 35.359375 20.09375 37.03125 
Q 24.46875 38.71875 29.203125 38.71875 
Q 34.578125 38.71875 41.75 35.796875 
Q 42.234375 35.59375 42.484375 35.5 
Q 42.875 35.359375 43.5625 35.109375 
Q 51.125 32.078125 55.71875 32.078125 
Q 59.90625 32.078125 64.03125 33.9375 
Q 68.171875 35.796875 73.1875 39.890625 
z
" id="DejaVuSans-126"/>
      <path d="M 31.78125 34.625 
Q 24.75 34.625 20.71875 30.859375 
Q 16.703125 27.09375 16.703125 20.515625 
Q 16.703125 13.921875 20.71875 10.15625 
Q 24.75 6.390625 31.78125 6.390625 
Q 38.8125 6.390625 42.859375 10.171875 
Q 46.921875 13.96875 46.921875 20.515625 
Q 46.921875 27.09375 42.890625 30.859375 
Q 38.875 34.625 31.78125 34.625 
z
M 21.921875 38.8125 
Q 15.578125 40.375 12.03125 44.71875 
Q 8.5 49.078125 8.5 55.328125 
Q 8.5 64.0625 14.71875 69.140625 
Q 20.953125 74.21875 31.78125 74.21875 
Q 42.671875 74.21875 48.875 69.140625 
Q 55.078125 64.0625 55.078125 55.328125 
Q 55.078125 49.078125 51.53125 44.71875 
Q 48 40.375 41.703125 38.8125 
Q 48.828125 37.15625 52.796875 32.3125 
Q 56.78125 27.484375 56.78125 20.515625 
Q 56.78125 9.90625 50.3125 4.234375 
Q 43.84375 -1.421875 31.78125 -1.421875 
Q 19.734375 -1.421875 13.25 4.234375 
Q 6.78125 9.90625 6.78125 20.515625 
Q 6.78125 27.484375 10.78125 32.3125 
Q 14.796875 37.15625 21.921875 38.8125 
z
M 18.3125 54.390625 
Q 18.3125 48.734375 21.84375 45.5625 
Q 25.390625 42.390625 31.78125 42.390625 
Q 38.140625 42.390625 41.71875 45.5625 
Q 45.3125 48.734375 45.3125 54.390625 
Q 45.3125 60.0625 41.71875 63.234375 
Q 38.140625 66.40625 31.78125 66.40625 
Q 25.390625 66.40625 21.84375 63.234375 
Q 18.3125 60.0625 18.3125 54.390625 
z
" id="DejaVuSans-56"/>
      <path d="M 8.015625 75.875 
L 15.828125 75.875 
Q 23.140625 64.359375 26.78125 53.3125 
Q 30.421875 42.28125 30.421875 31.390625 
Q 30.421875 20.453125 26.78125 9.375 
Q 23.140625 -1.703125 15.828125 -13.1875 
L 8.015625 -13.1875 
Q 14.5 -2 17.703125 9.0625 
Q 20.90625 20.125 20.90625 31.390625 
Q 20.90625 42.671875 17.703125 53.65625 
Q 14.5 64.65625 8.015625 75.875 
z
" id="DejaVuSans-41"/>
     </defs>
     <use xlink:href="#DejaVuSans-67"/>
     <use x="69.824219" xlink:href="#DejaVuSans-117"/>
     <use x="133.203125" xlink:href="#DejaVuSans-109"/>
     <use x="230.615234" xlink:href="#DejaVuSans-117"/>
     <use x="293.994141" xlink:href="#DejaVuSans-108"/>
     <use x="321.777344" xlink:href="#DejaVuSans-97"/>
     <use x="383.056641" xlink:href="#DejaVuSans-116"/>
     <use x="422.265625" xlink:href="#DejaVuSans-105"/>
     <use x="450.048828" xlink:href="#DejaVuSans-118"/>
     <use x="509.228516" xlink:href="#DejaVuSans-101"/>
     <use x="570.751953" xlink:href="#DejaVuSans-32"/>
     <use x="602.539062" xlink:href="#DejaVuSans-76"/>
     <use x="656.501953" xlink:href="#DejaVuSans-111"/>
     <use x="717.683594" xlink:href="#DejaVuSans-103"/>
     <use x="781.160156" xlink:href="#DejaVuSans-32"/>
     <use x="812.947266" xlink:href="#DejaVuSans-82"/>
     <use x="877.929688" xlink:href="#DejaVuSans-101"/>
     <use x="939.453125" xlink:href="#DejaVuSans-116"/>
     <use x="978.662109" xlink:href="#DejaVuSans-117"/>
     <use x="1042.041016" xlink:href="#DejaVuSans-114"/>
     <use x="1081.404297" xlink:href="#DejaVuSans-110"/>
     <use x="1144.783203" xlink:href="#DejaVuSans-58"/>
     <use x="1178.474609" xlink:href="#DejaVuSans-32"/>
     <use x="1210.261719" xlink:href="#DejaVuSans-40"/>
     <use x="1249.275391" xlink:href="#DejaVuSans-50"/>
     <use x="1312.898438" xlink:href="#DejaVuSans-48"/>
     <use x="1376.521484" xlink:href="#DejaVuSans-49"/>
     <use x="1440.144531" xlink:href="#DejaVuSans-48"/>
     <use x="1503.767578" xlink:href="#DejaVuSans-45"/>
     <use x="1539.851562" xlink:href="#DejaVuSans-48"/>
     <use x="1603.474609" xlink:href="#DejaVuSans-49"/>
     <use x="1667.097656" xlink:href="#DejaVuSans-45"/>
     <use x="1703.181641" xlink:href="#DejaVuSans-49"/>
     <use x="1766.804688" xlink:href="#DejaVuSans-57"/>
     <use x="1830.427734" xlink:href="#DejaVuSans-32"/>
     <use x="1862.214844" xlink:href="#DejaVuSans-126"/>
     <use x="1946.003906" xlink:href="#DejaVuSans-32"/>
     <use x="1977.791016" xlink:href="#DejaVuSans-50"/>
     <use x="2041.414062" xlink:href="#DejaVuSans-48"/>
     <use x="2105.037109" xlink:href="#DejaVuSans-49"/>
     <use x="2168.660156" xlink:href="#DejaVuSans-48"/>
     <use x="2232.283203" xlink:href="#DejaVuSans-45"/>
     <use x="2268.367188" xlink:href="#DejaVuSans-49"/>
     <use x="2331.990234" xlink:href="#DejaVuSans-48"/>
     <use x="2395.613281" xlink:href="#DejaVuSans-45"/>
     <use x="2431.697266" xlink:href="#DejaVuSans-48"/>
     <use x="2495.320312" xlink:href="#DejaVuSans-56"/>
     <use x="2558.943359" xlink:href="#DejaVuSans-41"/>
    </g>
   </g>
   <g id="legend_1">
    <g id="patch_7">
     <path d="M 57.96 123.379375 
L 154.449062 123.379375 
Q 156.449062 123.379375 156.449062 121.379375 
L 156.449062 32.92 
Q 156.449062 30.92 154.449062 30.92 
L 57.96 30.92 
Q 55.96 30.92 55.96 32.92 
L 55.96 121.379375 
Q 55.96 123.379375 57.96 123.379375 
z
" style="fill:#ffffff;opacity:0.8;stroke:#cccccc;stroke-linejoin:miter;"/>
    </g>
    <g id="line2d_21">
     <path d="M 59.96 39.018437 
L 79.96 39.018437 
" style="fill:none;stroke:#9467bd;stroke-linecap:square;stroke-width:1.5;"/>
    </g>
    <g id="line2d_22"/>
    <g id="text_10">
     <!-- group_5 -->
     <g transform="translate(87.96 42.518437)scale(0.1 -0.1)">
      <defs>
       <path d="M 18.109375 8.203125 
L 18.109375 -20.796875 
L 9.078125 -20.796875 
L 9.078125 54.6875 
L 18.109375 54.6875 
L 18.109375 46.390625 
Q 20.953125 51.265625 25.265625 53.625 
Q 29.59375 56 35.59375 56 
Q 45.5625 56 51.78125 48.09375 
Q 58.015625 40.1875 58.015625 27.296875 
Q 58.015625 14.40625 51.78125 6.484375 
Q 45.5625 -1.421875 35.59375 -1.421875 
Q 29.59375 -1.421875 25.265625 0.953125 
Q 20.953125 3.328125 18.109375 8.203125 
z
M 48.6875 27.296875 
Q 48.6875 37.203125 44.609375 42.84375 
Q 40.53125 48.484375 33.40625 48.484375 
Q 26.265625 48.484375 22.1875 42.84375 
Q 18.109375 37.203125 18.109375 27.296875 
Q 18.109375 17.390625 22.1875 11.75 
Q 26.265625 6.109375 33.40625 6.109375 
Q 40.53125 6.109375 44.609375 11.75 
Q 48.6875 17.390625 48.6875 27.296875 
z
" id="DejaVuSans-112"/>
       <path d="M 50.984375 -16.609375 
L 50.984375 -23.578125 
L -0.984375 -23.578125 
L -0.984375 -16.609375 
z
" id="DejaVuSans-95"/>
       <path d="M 10.796875 72.90625 
L 49.515625 72.90625 
L 49.515625 64.59375 
L 19.828125 64.59375 
L 19.828125 46.734375 
Q 21.96875 47.46875 24.109375 47.828125 
Q 26.265625 48.1875 28.421875 48.1875 
Q 40.625 48.1875 47.75 41.5 
Q 54.890625 34.8125 54.890625 23.390625 
Q 54.890625 11.625 47.5625 5.09375 
Q 40.234375 -1.421875 26.90625 -1.421875 
Q 22.3125 -1.421875 17.546875 -0.640625 
Q 12.796875 0.140625 7.71875 1.703125 
L 7.71875 11.625 
Q 12.109375 9.234375 16.796875 8.0625 
Q 21.484375 6.890625 26.703125 6.890625 
Q 35.15625 6.890625 40.078125 11.328125 
Q 45.015625 15.765625 45.015625 23.390625 
Q 45.015625 31 40.078125 35.4375 
Q 35.15625 39.890625 26.703125 39.890625 
Q 22.75 39.890625 18.8125 39.015625 
Q 14.890625 38.140625 10.796875 36.28125 
z
" id="DejaVuSans-53"/>
      </defs>
      <use xlink:href="#DejaVuSans-103"/>
      <use x="63.476562" xlink:href="#DejaVuSans-114"/>
      <use x="102.339844" xlink:href="#DejaVuSans-111"/>
      <use x="163.521484" xlink:href="#DejaVuSans-117"/>
      <use x="226.900391" xlink:href="#DejaVuSans-112"/>
      <use x="290.376953" xlink:href="#DejaVuSans-95"/>
      <use x="340.376953" xlink:href="#DejaVuSans-53"/>
     </g>
    </g>
    <g id="line2d_23">
     <path d="M 59.96 53.974687 
L 79.96 53.974687 
" style="fill:none;stroke:#1f77b4;stroke-linecap:square;stroke-width:1.5;"/>
    </g>
    <g id="line2d_24"/>
    <g id="text_11">
     <!-- group_1 -->
     <g transform="translate(87.96 57.474687)scale(0.1 -0.1)">
      <use xlink:href="#DejaVuSans-103"/>
      <use x="63.476562" xlink:href="#DejaVuSans-114"/>
      <use x="102.339844" xlink:href="#DejaVuSans-111"/>
      <use x="163.521484" xlink:href="#DejaVuSans-117"/>
      <use x="226.900391" xlink:href="#DejaVuSans-112"/>
      <use x="290.376953" xlink:href="#DejaVuSans-95"/>
      <use x="340.376953" xlink:href="#DejaVuSans-49"/>
     </g>
    </g>
    <g id="line2d_25">
     <path d="M 59.96 68.930937 
L 79.96 68.930937 
" style="fill:none;stroke:#8c564b;stroke-linecap:square;stroke-width:1.5;"/>
    </g>
    <g id="line2d_26"/>
    <g id="text_12">
     <!-- benchmark -->
     <g transform="translate(87.96 72.430937)scale(0.1 -0.1)">
      <defs>
       <path d="M 48.6875 27.296875 
Q 48.6875 37.203125 44.609375 42.84375 
Q 40.53125 48.484375 33.40625 48.484375 
Q 26.265625 48.484375 22.1875 42.84375 
Q 18.109375 37.203125 18.109375 27.296875 
Q 18.109375 17.390625 22.1875 11.75 
Q 26.265625 6.109375 33.40625 6.109375 
Q 40.53125 6.109375 44.609375 11.75 
Q 48.6875 17.390625 48.6875 27.296875 
z
M 18.109375 46.390625 
Q 20.953125 51.265625 25.265625 53.625 
Q 29.59375 56 35.59375 56 
Q 45.5625 56 51.78125 48.09375 
Q 58.015625 40.1875 58.015625 27.296875 
Q 58.015625 14.40625 51.78125 6.484375 
Q 45.5625 -1.421875 35.59375 -1.421875 
Q 29.59375 -1.421875 25.265625 0.953125 
Q 20.953125 3.328125 18.109375 8.203125 
L 18.109375 0 
L 9.078125 0 
L 9.078125 75.984375 
L 18.109375 75.984375 
z
" id="DejaVuSans-98"/>
       <path d="M 54.890625 33.015625 
L 54.890625 0 
L 45.90625 0 
L 45.90625 32.71875 
Q 45.90625 40.484375 42.875 44.328125 
Q 39.84375 48.1875 33.796875 48.1875 
Q 26.515625 48.1875 22.3125 43.546875 
Q 18.109375 38.921875 18.109375 30.90625 
L 18.109375 0 
L 9.078125 0 
L 9.078125 75.984375 
L 18.109375 75.984375 
L 18.109375 46.1875 
Q 21.34375 51.125 25.703125 53.5625 
Q 30.078125 56 35.796875 56 
Q 45.21875 56 50.046875 50.171875 
Q 54.890625 44.34375 54.890625 33.015625 
z
" id="DejaVuSans-104"/>
       <path d="M 9.078125 75.984375 
L 18.109375 75.984375 
L 18.109375 31.109375 
L 44.921875 54.6875 
L 56.390625 54.6875 
L 27.390625 29.109375 
L 57.625 0 
L 45.90625 0 
L 18.109375 26.703125 
L 18.109375 0 
L 9.078125 0 
z
" id="DejaVuSans-107"/>
      </defs>
      <use xlink:href="#DejaVuSans-98"/>
      <use x="63.476562" xlink:href="#DejaVuSans-101"/>
      <use x="125" xlink:href="#DejaVuSans-110"/>
      <use x="188.378906" xlink:href="#DejaVuSans-99"/>
      <use x="243.359375" xlink:href="#DejaVuSans-104"/>
      <use x="306.738281" xlink:href="#DejaVuSans-109"/>
      <use x="404.150391" xlink:href="#DejaVuSans-97"/>
      <use x="465.429688" xlink:href="#DejaVuSans-114"/>
      <use x="506.542969" xlink:href="#DejaVuSans-107"/>
     </g>
    </g>
    <g id="line2d_27">
     <path d="M 59.96 83.609062 
L 79.96 83.609062 
" style="fill:none;stroke:#e377c2;stroke-linecap:square;stroke-width:1.5;"/>
    </g>
    <g id="line2d_28"/>
    <g id="text_13">
     <!-- long_excess -->
     <g transform="translate(87.96 87.109062)scale(0.1 -0.1)">
      <defs>
       <path d="M 54.890625 54.6875 
L 35.109375 28.078125 
L 55.90625 0 
L 45.3125 0 
L 29.390625 21.484375 
L 13.484375 0 
L 2.875 0 
L 24.125 28.609375 
L 4.6875 54.6875 
L 15.28125 54.6875 
L 29.78125 35.203125 
L 44.28125 54.6875 
z
" id="DejaVuSans-120"/>
      </defs>
      <use xlink:href="#DejaVuSans-108"/>
      <use x="27.783203" xlink:href="#DejaVuSans-111"/>
      <use x="88.964844" xlink:href="#DejaVuSans-110"/>
      <use x="152.34375" xlink:href="#DejaVuSans-103"/>
      <use x="215.820312" xlink:href="#DejaVuSans-95"/>
      <use x="265.820312" xlink:href="#DejaVuSans-101"/>
      <use x="325.59375" xlink:href="#DejaVuSans-120"/>
      <use x="383.023438" xlink:href="#DejaVuSans-99"/>
      <use x="438.003906" xlink:href="#DejaVuSans-101"/>
      <use x="499.527344" xlink:href="#DejaVuSans-115"/>
      <use x="551.626953" xlink:href="#DejaVuSans-115"/>
     </g>
    </g>
    <g id="line2d_29">
     <path d="M 59.96 98.565312 
L 79.96 98.565312 
" style="fill:none;stroke:#7f7f7f;stroke-linecap:square;stroke-width:1.5;"/>
    </g>
    <g id="line2d_30"/>
    <g id="text_14">
     <!-- short_excess -->
     <g transform="translate(87.96 102.065312)scale(0.1 -0.1)">
      <use xlink:href="#DejaVuSans-115"/>
      <use x="52.099609" xlink:href="#DejaVuSans-104"/>
      <use x="115.478516" xlink:href="#DejaVuSans-111"/>
      <use x="176.660156" xlink:href="#DejaVuSans-114"/>
      <use x="217.773438" xlink:href="#DejaVuSans-116"/>
      <use x="256.982422" xlink:href="#DejaVuSans-95"/>
      <use x="306.982422" xlink:href="#DejaVuSans-101"/>
      <use x="366.755859" xlink:href="#DejaVuSans-120"/>
      <use x="424.185547" xlink:href="#DejaVuSans-99"/>
      <use x="479.166016" xlink:href="#DejaVuSans-101"/>
      <use x="540.689453" xlink:href="#DejaVuSans-115"/>
      <use x="592.789062" xlink:href="#DejaVuSans-115"/>
     </g>
    </g>
    <g id="line2d_31">
     <path d="M 59.96 113.521562 
L 79.96 113.521562 
" style="fill:none;stroke:#bcbd22;stroke-linecap:square;stroke-width:1.5;"/>
    </g>
    <g id="line2d_32"/>
    <g id="text_15">
     <!-- long_short -->
     <g transform="translate(87.96 117.021562)scale(0.1 -0.1)">
      <use xlink:href="#DejaVuSans-108"/>
      <use x="27.783203" xlink:href="#DejaVuSans-111"/>
      <use x="88.964844" xlink:href="#DejaVuSans-110"/>
      <use x="152.34375" xlink:href="#DejaVuSans-103"/>
      <use x="215.820312" xlink:href="#DejaVuSans-95"/>
      <use x="265.820312" xlink:href="#DejaVuSans-115"/>
      <use x="317.919922" xlink:href="#DejaVuSans-104"/>
      <use x="381.298828" xlink:href="#DejaVuSans-111"/>
      <use x="442.480469" xlink:href="#DejaVuSans-114"/>
      <use x="483.59375" xlink:href="#DejaVuSans-116"/>
     </g>
    </g>
   </g>
  </g>
 </g>
 <defs>
  <clipPath id="p3e7ade8c19">
   <rect height="318.365553" width="1090.24" x="50.96" y="25.92"/>
  </clipPath>
 </defs>
</svg>
