<?xml version="1.0" encoding="utf-8" standalone="no"?>
<!DOCTYPE svg PUBLIC "-//W3C//DTD SVG 1.1//EN"
  "http://www.w3.org/Graphics/SVG/1.1/DTD/svg11.dtd">
<!-- Created with matplotlib (https://matplotlib.org/) -->
<svg height="374.4pt" version="1.1" viewBox="0 0 1152 374.4" width="1152pt" xmlns="http://www.w3.org/2000/svg" xmlns:xlink="http://www.w3.org/1999/xlink">
 <metadata>
  <rdf:RDF xmlns:cc="http://creativecommons.org/ns#" xmlns:dc="http://purl.org/dc/elements/1.1/" xmlns:rdf="http://www.w3.org/1999/02/22-rdf-syntax-ns#">
   <cc:Work>
    <dc:type rdf:resource="http://purl.org/dc/dcmitype/StillImage"/>
    <dc:date>2023-10-11T16:36:29.427014</dc:date>
    <dc:format>image/svg+xml</dc:format>
    <dc:creator>
     <cc:Agent>
      <dc:title>Matplotlib v3.3.4, https://matplotlib.org/</dc:title>
     </cc:Agent>
    </dc:creator>
   </cc:Work>
  </rdf:RDF>
 </metadata>
 <defs>
  <style type="text/css">*{stroke-linecap:butt;stroke-linejoin:round;}</style>
 </defs>
 <g id="figure_1">
  <g id="patch_1">
   <path d="M 0 374.4 
L 1152 374.4 
L 1152 0 
L 0 0 
z
" style="fill:#ffffff;"/>
  </g>
  <g id="axes_1">
   <g id="patch_2">
    <path d="M 47.3 331.16 
L 1141.2 331.16 
L 1141.2 25.92 
L 47.3 25.92 
z
" style="fill:#ffffff;"/>
   </g>
   <g id="matplotlib.axis_1">
    <g id="xtick_1">
     <g id="line2d_1">
      <path clip-path="url(#p13b54f9cec)" d="M 75.24635 331.16 
L 75.24635 25.92 
" style="fill:none;stroke:#b0b0b0;stroke-linecap:square;stroke-width:0.8;"/>
     </g>
     <g id="line2d_2">
      <defs>
       <path d="M 0 0 
L 0 3.5 
" id="mb4f06adccd" style="stroke:#000000;stroke-width:0.8;"/>
      </defs>
      <g>
       <use style="stroke:#000000;stroke-width:0.8;" x="75.24635" xlink:href="#mb4f06adccd" y="331.16"/>
      </g>
     </g>
     <g id="text_1">
      <!-- 2010 -->
      <g transform="translate(78.005725 363.61)rotate(-90)scale(0.1 -0.1)">
       <defs>
        <path d="M 19.1875 8.296875 
L 53.609375 8.296875 
L 53.609375 0 
L 7.328125 0 
L 7.328125 8.296875 
Q 12.9375 14.109375 22.625 23.890625 
Q 32.328125 33.6875 34.8125 36.53125 
Q 39.546875 41.84375 41.421875 45.53125 
Q 43.3125 49.21875 43.3125 52.78125 
Q 43.3125 58.59375 39.234375 62.25 
Q 35.15625 65.921875 28.609375 65.921875 
Q 23.96875 65.921875 18.8125 64.3125 
Q 13.671875 62.703125 7.8125 59.421875 
L 7.8125 69.390625 
Q 13.765625 71.78125 18.9375 73 
Q 24.125 74.21875 28.421875 74.21875 
Q 39.75 74.21875 46.484375 68.546875 
Q 53.21875 62.890625 53.21875 53.421875 
Q 53.21875 48.921875 51.53125 44.890625 
Q 49.859375 40.875 45.40625 35.40625 
Q 44.1875 33.984375 37.640625 27.21875 
Q 31.109375 20.453125 19.1875 8.296875 
z
" id="DejaVuSans-50"/>
        <path d="M 31.78125 66.40625 
Q 24.171875 66.40625 20.328125 58.90625 
Q 16.5 51.421875 16.5 36.375 
Q 16.5 21.390625 20.328125 13.890625 
Q 24.171875 6.390625 31.78125 6.390625 
Q 39.453125 6.390625 43.28125 13.890625 
Q 47.125 21.390625 47.125 36.375 
Q 47.125 51.421875 43.28125 58.90625 
Q 39.453125 66.40625 31.78125 66.40625 
z
M 31.78125 74.21875 
Q 44.046875 74.21875 50.515625 64.515625 
Q 56.984375 54.828125 56.984375 36.375 
Q 56.984375 17.96875 50.515625 8.265625 
Q 44.046875 -1.421875 31.78125 -1.421875 
Q 19.53125 -1.421875 13.0625 8.265625 
Q 6.59375 17.96875 6.59375 36.375 
Q 6.59375 54.828125 13.0625 64.515625 
Q 19.53125 74.21875 31.78125 74.21875 
z
" id="DejaVuSans-48"/>
        <path d="M 12.40625 8.296875 
L 28.515625 8.296875 
L 28.515625 63.921875 
L 10.984375 60.40625 
L 10.984375 69.390625 
L 28.421875 72.90625 
L 38.28125 72.90625 
L 38.28125 8.296875 
L 54.390625 8.296875 
L 54.390625 0 
L 12.40625 0 
z
" id="DejaVuSans-49"/>
       </defs>
       <use xlink:href="#DejaVuSans-50"/>
       <use x="63.623047" xlink:href="#DejaVuSans-48"/>
       <use x="127.246094" xlink:href="#DejaVuSans-49"/>
       <use x="190.869141" xlink:href="#DejaVuSans-48"/>
      </g>
     </g>
    </g>
   </g>
   <g id="matplotlib.axis_2">
    <g id="ytick_1">
     <g id="line2d_3">
      <path clip-path="url(#p13b54f9cec)" d="M 47.3 318.664398 
L 1141.2 318.664398 
" style="fill:none;stroke:#b0b0b0;stroke-linecap:square;stroke-width:0.8;"/>
     </g>
     <g id="line2d_4">
      <defs>
       <path d="M 0 0 
L -3.5 0 
" id="m55b148d0b0" style="stroke:#000000;stroke-width:0.8;"/>
      </defs>
      <g>
       <use style="stroke:#000000;stroke-width:0.8;" x="47.3" xlink:href="#m55b148d0b0" y="318.664398"/>
      </g>
     </g>
     <g id="text_2">
      <!-- 0.5 -->
      <g transform="translate(24.396875 322.463617)scale(0.1 -0.1)">
       <defs>
        <path d="M 10.6875 12.40625 
L 21 12.40625 
L 21 0 
L 10.6875 0 
z
" id="DejaVuSans-46"/>
        <path d="M 10.796875 72.90625 
L 49.515625 72.90625 
L 49.515625 64.59375 
L 19.828125 64.59375 
L 19.828125 46.734375 
Q 21.96875 47.46875 24.109375 47.828125 
Q 26.265625 48.1875 28.421875 48.1875 
Q 40.625 48.1875 47.75 41.5 
Q 54.890625 34.8125 54.890625 23.390625 
Q 54.890625 11.625 47.5625 5.09375 
Q 40.234375 -1.421875 26.90625 -1.421875 
Q 22.3125 -1.421875 17.546875 -0.640625 
Q 12.796875 0.140625 7.71875 1.703125 
L 7.71875 11.625 
Q 12.109375 9.234375 16.796875 8.0625 
Q 21.484375 6.890625 26.703125 6.890625 
Q 35.15625 6.890625 40.078125 11.328125 
Q 45.015625 15.765625 45.015625 23.390625 
Q 45.015625 31 40.078125 35.4375 
Q 35.15625 39.890625 26.703125 39.890625 
Q 22.75 39.890625 18.8125 39.015625 
Q 14.890625 38.140625 10.796875 36.28125 
z
" id="DejaVuSans-53"/>
       </defs>
       <use xlink:href="#DejaVuSans-48"/>
       <use x="63.623047" xlink:href="#DejaVuSans-46"/>
       <use x="95.410156" xlink:href="#DejaVuSans-53"/>
      </g>
     </g>
    </g>
    <g id="ytick_2">
     <g id="line2d_5">
      <path clip-path="url(#p13b54f9cec)" d="M 47.3 281.69707 
L 1141.2 281.69707 
" style="fill:none;stroke:#b0b0b0;stroke-linecap:square;stroke-width:0.8;"/>
     </g>
     <g id="line2d_6">
      <g>
       <use style="stroke:#000000;stroke-width:0.8;" x="47.3" xlink:href="#m55b148d0b0" y="281.69707"/>
      </g>
     </g>
     <g id="text_3">
      <!-- 1.0 -->
      <g transform="translate(24.396875 285.496288)scale(0.1 -0.1)">
       <use xlink:href="#DejaVuSans-49"/>
       <use x="63.623047" xlink:href="#DejaVuSans-46"/>
       <use x="95.410156" xlink:href="#DejaVuSans-48"/>
      </g>
     </g>
    </g>
    <g id="ytick_3">
     <g id="line2d_7">
      <path clip-path="url(#p13b54f9cec)" d="M 47.3 244.729741 
L 1141.2 244.729741 
" style="fill:none;stroke:#b0b0b0;stroke-linecap:square;stroke-width:0.8;"/>
     </g>
     <g id="line2d_8">
      <g>
       <use style="stroke:#000000;stroke-width:0.8;" x="47.3" xlink:href="#m55b148d0b0" y="244.729741"/>
      </g>
     </g>
     <g id="text_4">
      <!-- 1.5 -->
      <g transform="translate(24.396875 248.52896)scale(0.1 -0.1)">
       <use xlink:href="#DejaVuSans-49"/>
       <use x="63.623047" xlink:href="#DejaVuSans-46"/>
       <use x="95.410156" xlink:href="#DejaVuSans-53"/>
      </g>
     </g>
    </g>
    <g id="ytick_4">
     <g id="line2d_9">
      <path clip-path="url(#p13b54f9cec)" d="M 47.3 207.762413 
L 1141.2 207.762413 
" style="fill:none;stroke:#b0b0b0;stroke-linecap:square;stroke-width:0.8;"/>
     </g>
     <g id="line2d_10">
      <g>
       <use style="stroke:#000000;stroke-width:0.8;" x="47.3" xlink:href="#m55b148d0b0" y="207.762413"/>
      </g>
     </g>
     <g id="text_5">
      <!-- 2.0 -->
      <g transform="translate(24.396875 211.561631)scale(0.1 -0.1)">
       <use xlink:href="#DejaVuSans-50"/>
       <use x="63.623047" xlink:href="#DejaVuSans-46"/>
       <use x="95.410156" xlink:href="#DejaVuSans-48"/>
      </g>
     </g>
    </g>
    <g id="ytick_5">
     <g id="line2d_11">
      <path clip-path="url(#p13b54f9cec)" d="M 47.3 170.795084 
L 1141.2 170.795084 
" style="fill:none;stroke:#b0b0b0;stroke-linecap:square;stroke-width:0.8;"/>
     </g>
     <g id="line2d_12">
      <g>
       <use style="stroke:#000000;stroke-width:0.8;" x="47.3" xlink:href="#m55b148d0b0" y="170.795084"/>
      </g>
     </g>
     <g id="text_6">
      <!-- 2.5 -->
      <g transform="translate(24.396875 174.594303)scale(0.1 -0.1)">
       <use xlink:href="#DejaVuSans-50"/>
       <use x="63.623047" xlink:href="#DejaVuSans-46"/>
       <use x="95.410156" xlink:href="#DejaVuSans-53"/>
      </g>
     </g>
    </g>
    <g id="ytick_6">
     <g id="line2d_13">
      <path clip-path="url(#p13b54f9cec)" d="M 47.3 133.827755 
L 1141.2 133.827755 
" style="fill:none;stroke:#b0b0b0;stroke-linecap:square;stroke-width:0.8;"/>
     </g>
     <g id="line2d_14">
      <g>
       <use style="stroke:#000000;stroke-width:0.8;" x="47.3" xlink:href="#m55b148d0b0" y="133.827755"/>
      </g>
     </g>
     <g id="text_7">
      <!-- 3.0 -->
      <g transform="translate(24.396875 137.626974)scale(0.1 -0.1)">
       <defs>
        <path d="M 40.578125 39.3125 
Q 47.65625 37.796875 51.625 33 
Q 55.609375 28.21875 55.609375 21.1875 
Q 55.609375 10.40625 48.1875 4.484375 
Q 40.765625 -1.421875 27.09375 -1.421875 
Q 22.515625 -1.421875 17.65625 -0.515625 
Q 12.796875 0.390625 7.625 2.203125 
L 7.625 11.71875 
Q 11.71875 9.328125 16.59375 8.109375 
Q 21.484375 6.890625 26.8125 6.890625 
Q 36.078125 6.890625 40.9375 10.546875 
Q 45.796875 14.203125 45.796875 21.1875 
Q 45.796875 27.640625 41.28125 31.265625 
Q 36.765625 34.90625 28.71875 34.90625 
L 20.21875 34.90625 
L 20.21875 43.015625 
L 29.109375 43.015625 
Q 36.375 43.015625 40.234375 45.921875 
Q 44.09375 48.828125 44.09375 54.296875 
Q 44.09375 59.90625 40.109375 62.90625 
Q 36.140625 65.921875 28.71875 65.921875 
Q 24.65625 65.921875 20.015625 65.03125 
Q 15.375 64.15625 9.8125 62.3125 
L 9.8125 71.09375 
Q 15.4375 72.65625 20.34375 73.4375 
Q 25.25 74.21875 29.59375 74.21875 
Q 40.828125 74.21875 47.359375 69.109375 
Q 53.90625 64.015625 53.90625 55.328125 
Q 53.90625 49.265625 50.4375 45.09375 
Q 46.96875 40.921875 40.578125 39.3125 
z
" id="DejaVuSans-51"/>
       </defs>
       <use xlink:href="#DejaVuSans-51"/>
       <use x="63.623047" xlink:href="#DejaVuSans-46"/>
       <use x="95.410156" xlink:href="#DejaVuSans-48"/>
      </g>
     </g>
    </g>
    <g id="ytick_7">
     <g id="line2d_15">
      <path clip-path="url(#p13b54f9cec)" d="M 47.3 96.860427 
L 1141.2 96.860427 
" style="fill:none;stroke:#b0b0b0;stroke-linecap:square;stroke-width:0.8;"/>
     </g>
     <g id="line2d_16">
      <g>
       <use style="stroke:#000000;stroke-width:0.8;" x="47.3" xlink:href="#m55b148d0b0" y="96.860427"/>
      </g>
     </g>
     <g id="text_8">
      <!-- 3.5 -->
      <g transform="translate(24.396875 100.659646)scale(0.1 -0.1)">
       <use xlink:href="#DejaVuSans-51"/>
       <use x="63.623047" xlink:href="#DejaVuSans-46"/>
       <use x="95.410156" xlink:href="#DejaVuSans-53"/>
      </g>
     </g>
    </g>
    <g id="ytick_8">
     <g id="line2d_17">
      <path clip-path="url(#p13b54f9cec)" d="M 47.3 59.893098 
L 1141.2 59.893098 
" style="fill:none;stroke:#b0b0b0;stroke-linecap:square;stroke-width:0.8;"/>
     </g>
     <g id="line2d_18">
      <g>
       <use style="stroke:#000000;stroke-width:0.8;" x="47.3" xlink:href="#m55b148d0b0" y="59.893098"/>
      </g>
     </g>
     <g id="text_9">
      <!-- 4.0 -->
      <g transform="translate(24.396875 63.692317)scale(0.1 -0.1)">
       <defs>
        <path d="M 37.796875 64.3125 
L 12.890625 25.390625 
L 37.796875 25.390625 
z
M 35.203125 72.90625 
L 47.609375 72.90625 
L 47.609375 25.390625 
L 58.015625 25.390625 
L 58.015625 17.1875 
L 47.609375 17.1875 
L 47.609375 0 
L 37.796875 0 
L 37.796875 17.1875 
L 4.890625 17.1875 
L 4.890625 26.703125 
z
" id="DejaVuSans-52"/>
       </defs>
       <use xlink:href="#DejaVuSans-52"/>
       <use x="63.623047" xlink:href="#DejaVuSans-46"/>
       <use x="95.410156" xlink:href="#DejaVuSans-48"/>
      </g>
     </g>
    </g>
    <g id="text_10">
     <!-- net value -->
     <g transform="translate(18.317187 201.992344)rotate(-90)scale(0.1 -0.1)">
      <defs>
       <path d="M 54.890625 33.015625 
L 54.890625 0 
L 45.90625 0 
L 45.90625 32.71875 
Q 45.90625 40.484375 42.875 44.328125 
Q 39.84375 48.1875 33.796875 48.1875 
Q 26.515625 48.1875 22.3125 43.546875 
Q 18.109375 38.921875 18.109375 30.90625 
L 18.109375 0 
L 9.078125 0 
L 9.078125 54.6875 
L 18.109375 54.6875 
L 18.109375 46.1875 
Q 21.34375 51.125 25.703125 53.5625 
Q 30.078125 56 35.796875 56 
Q 45.21875 56 50.046875 50.171875 
Q 54.890625 44.34375 54.890625 33.015625 
z
" id="DejaVuSans-110"/>
       <path d="M 56.203125 29.59375 
L 56.203125 25.203125 
L 14.890625 25.203125 
Q 15.484375 15.921875 20.484375 11.0625 
Q 25.484375 6.203125 34.421875 6.203125 
Q 39.59375 6.203125 44.453125 7.46875 
Q 49.3125 8.734375 54.109375 11.28125 
L 54.109375 2.78125 
Q 49.265625 0.734375 44.1875 -0.34375 
Q 39.109375 -1.421875 33.890625 -1.421875 
Q 20.796875 -1.421875 13.15625 6.1875 
Q 5.515625 13.8125 5.515625 26.8125 
Q 5.515625 40.234375 12.765625 48.109375 
Q 20.015625 56 32.328125 56 
Q 43.359375 56 49.78125 48.890625 
Q 56.203125 41.796875 56.203125 29.59375 
z
M 47.21875 32.234375 
Q 47.125 39.59375 43.09375 43.984375 
Q 39.0625 48.390625 32.421875 48.390625 
Q 24.90625 48.390625 20.390625 44.140625 
Q 15.875 39.890625 15.1875 32.171875 
z
" id="DejaVuSans-101"/>
       <path d="M 18.3125 70.21875 
L 18.3125 54.6875 
L 36.8125 54.6875 
L 36.8125 47.703125 
L 18.3125 47.703125 
L 18.3125 18.015625 
Q 18.3125 11.328125 20.140625 9.421875 
Q 21.96875 7.515625 27.59375 7.515625 
L 36.8125 7.515625 
L 36.8125 0 
L 27.59375 0 
Q 17.1875 0 13.234375 3.875 
Q 9.28125 7.765625 9.28125 18.015625 
L 9.28125 47.703125 
L 2.6875 47.703125 
L 2.6875 54.6875 
L 9.28125 54.6875 
L 9.28125 70.21875 
z
" id="DejaVuSans-116"/>
       <path id="DejaVuSans-32"/>
       <path d="M 2.984375 54.6875 
L 12.5 54.6875 
L 29.59375 8.796875 
L 46.6875 54.6875 
L 56.203125 54.6875 
L 35.6875 0 
L 23.484375 0 
z
" id="DejaVuSans-118"/>
       <path d="M 34.28125 27.484375 
Q 23.390625 27.484375 19.1875 25 
Q 14.984375 22.515625 14.984375 16.5 
Q 14.984375 11.71875 18.140625 8.90625 
Q 21.296875 6.109375 26.703125 6.109375 
Q 34.1875 6.109375 38.703125 11.40625 
Q 43.21875 16.703125 43.21875 25.484375 
L 43.21875 27.484375 
z
M 52.203125 31.203125 
L 52.203125 0 
L 43.21875 0 
L 43.21875 8.296875 
Q 40.140625 3.328125 35.546875 0.953125 
Q 30.953125 -1.421875 24.3125 -1.421875 
Q 15.921875 -1.421875 10.953125 3.296875 
Q 6 8.015625 6 15.921875 
Q 6 25.140625 12.171875 29.828125 
Q 18.359375 34.515625 30.609375 34.515625 
L 43.21875 34.515625 
L 43.21875 35.40625 
Q 43.21875 41.609375 39.140625 45 
Q 35.0625 48.390625 27.6875 48.390625 
Q 23 48.390625 18.546875 47.265625 
Q 14.109375 46.140625 10.015625 43.890625 
L 10.015625 52.203125 
Q 14.9375 54.109375 19.578125 55.046875 
Q 24.21875 56 28.609375 56 
Q 40.484375 56 46.34375 49.84375 
Q 52.203125 43.703125 52.203125 31.203125 
z
" id="DejaVuSans-97"/>
       <path d="M 9.421875 75.984375 
L 18.40625 75.984375 
L 18.40625 0 
L 9.421875 0 
z
" id="DejaVuSans-108"/>
       <path d="M 8.5 21.578125 
L 8.5 54.6875 
L 17.484375 54.6875 
L 17.484375 21.921875 
Q 17.484375 14.15625 20.5 10.265625 
Q 23.53125 6.390625 29.59375 6.390625 
Q 36.859375 6.390625 41.078125 11.03125 
Q 45.3125 15.671875 45.3125 23.6875 
L 45.3125 54.6875 
L 54.296875 54.6875 
L 54.296875 0 
L 45.3125 0 
L 45.3125 8.40625 
Q 42.046875 3.421875 37.71875 1 
Q 33.40625 -1.421875 27.6875 -1.421875 
Q 18.265625 -1.421875 13.375 4.4375 
Q 8.5 10.296875 8.5 21.578125 
z
M 31.109375 56 
z
" id="DejaVuSans-117"/>
      </defs>
      <use xlink:href="#DejaVuSans-110"/>
      <use x="63.378906" xlink:href="#DejaVuSans-101"/>
      <use x="124.902344" xlink:href="#DejaVuSans-116"/>
      <use x="164.111328" xlink:href="#DejaVuSans-32"/>
      <use x="195.898438" xlink:href="#DejaVuSans-118"/>
      <use x="255.078125" xlink:href="#DejaVuSans-97"/>
      <use x="316.357422" xlink:href="#DejaVuSans-108"/>
      <use x="344.140625" xlink:href="#DejaVuSans-117"/>
      <use x="407.519531" xlink:href="#DejaVuSans-101"/>
     </g>
    </g>
   </g>
   <g id="line2d_19">
    <path clip-path="url(#p13b54f9cec)" d="M 97.022727 284.805169 
L 100.652123 282.273506 
L 111.540312 279.740543 
L 115.169708 283.411009 
L 118.799104 279.888244 
L 122.4285 282.649501 
L 126.057896 283.53995 
L 136.946085 286.950929 
L 140.575481 284.796771 
L 144.204877 288.201788 
L 147.834273 284.537268 
L 151.46367 286.793154 
L 162.351858 290.197447 
L 165.981254 284.326566 
L 169.61065 283.818271 
L 173.240046 281.712197 
L 176.869443 285.99158 
L 187.757631 285.233617 
L 191.387027 289.443688 
L 195.016423 285.741048 
L 198.64582 285.148592 
L 202.275216 290.254562 
L 213.163404 289.047695 
L 216.7928 294.394371 
L 220.422196 292.330616 
L 224.051593 289.625984 
L 227.680989 291.467912 
L 238.569177 291.65185 
L 242.198573 291.403737 
L 245.827969 293.488294 
L 249.457366 289.54061 
L 253.086762 288.554727 
L 263.97495 287.981724 
L 267.604346 288.662677 
L 271.233743 291.370959 
L 274.863139 290.558827 
L 278.492535 290.110859 
L 289.380723 290.821359 
L 293.010119 294.654411 
L 296.639516 297.241964 
L 300.268912 295.079227 
L 303.898308 297.778548 
L 314.786496 301.848433 
L 318.415893 299.209151 
L 322.045289 297.133364 
L 325.674685 293.18579 
L 329.304081 292.857567 
L 340.192269 297.129209 
L 343.821666 297.674692 
L 347.451062 299.202531 
L 351.080458 297.926482 
L 354.709854 300.663842 
L 365.598042 301.925501 
L 369.227439 301.583565 
L 372.856835 299.381796 
L 376.486231 297.514734 
L 380.115627 296.545919 
L 391.003816 297.972467 
L 394.633212 296.693857 
L 398.262608 299.525743 
L 401.892004 300.918825 
L 405.5214 302.930764 
L 416.409589 300.612393 
L 420.038985 304.273773 
L 423.668381 305.858367 
L 427.297777 301.877187 
L 430.927173 299.554893 
L 441.815362 302.286657 
L 445.444758 299.774622 
L 449.074154 304.263378 
L 452.70355 304.165102 
L 456.332946 300.875793 
L 467.221135 300.009154 
L 470.850531 297.213699 
L 474.479927 301.027563 
L 478.109323 296.373747 
L 481.738719 298.91211 
L 492.626908 297.029117 
L 496.256304 298.948349 
L 499.8857 302.738036 
L 503.515096 301.908946 
L 507.144492 299.994952 
L 518.032681 295.732669 
L 521.662077 295.464287 
L 525.291473 294.360132 
L 528.920869 294.92296 
L 532.550265 294.192736 
L 543.438454 293.970269 
L 547.06785 295.917424 
L 550.697246 297.349188 
L 554.326642 296.784766 
L 557.956038 294.773899 
L 568.844227 295.835629 
L 572.473623 293.882586 
L 576.103019 293.681609 
L 579.732415 296.543899 
L 583.361812 292.675135 
L 594.25 298.021678 
L 597.879396 302.232459 
L 601.508792 298.227579 
L 605.138188 301.938663 
L 608.767585 302.086507 
L 619.655773 299.772623 
L 623.285169 300.252759 
L 626.914565 303.856015 
L 630.543962 305.997756 
L 634.173358 309.125944 
L 645.061546 310.584387 
L 648.690942 309.986023 
L 652.320338 307.12964 
L 655.949735 305.432368 
L 659.579131 304.177522 
L 670.467319 304.658847 
L 674.096715 305.386392 
L 677.726111 307.764419 
L 681.355508 309.298411 
L 684.984904 307.022498 
L 695.873092 304.35612 
L 703.131885 300.987749 
L 706.761281 304.02831 
L 710.390677 301.93821 
L 721.278865 299.529741 
L 724.908261 298.255603 
L 728.537658 295.3767 
L 732.167054 293.501349 
L 735.79645 289.187308 
L 746.684638 289.551179 
L 750.314035 292.144292 
L 753.943431 289.003935 
L 757.572827 287.974804 
L 761.202223 286.796864 
L 772.090411 289.531115 
L 775.719808 291.049314 
L 779.349204 293.835791 
L 782.9786 290.756903 
L 786.607996 291.410383 
L 797.496184 287.424755 
L 801.125581 285.097877 
L 804.754977 281.109904 
L 808.384373 274.305849 
L 812.013769 280.378191 
L 822.901958 280.253063 
L 826.531354 282.211499 
L 830.16075 289.090334 
L 833.790146 289.641609 
L 837.419542 286.231861 
L 848.307731 283.349675 
L 851.937127 288.16049 
L 855.566523 291.173901 
L 859.195919 291.430264 
L 862.825315 289.960172 
L 873.713504 293.928906 
L 877.3429 293.608101 
L 880.972296 294.807126 
L 884.601692 298.869312 
L 888.231088 300.590603 
L 899.119277 302.973736 
L 902.748673 305.901738 
L 906.378069 304.558529 
L 910.007465 305.95391 
L 913.636861 302.143076 
L 924.52505 302.792135 
L 928.154446 301.154277 
L 931.783842 301.832105 
L 935.413238 305.081267 
L 939.042634 309.195761 
L 949.930823 308.004943 
L 953.560219 305.55151 
L 957.189615 304.496553 
L 960.819011 306.078905 
L 964.448407 307.17495 
L 975.336596 305.745733 
L 978.965992 308.364717 
L 982.595388 308.553719 
L 986.224784 309.570417 
L 989.85418 308.814633 
L 1000.742369 309.401014 
L 1004.371765 307.23471 
L 1008.001161 304.397227 
L 1011.630557 305.146416 
L 1015.259954 308.226775 
L 1026.148142 306.837002 
L 1029.777538 308.84778 
L 1033.406934 310.288685 
L 1037.03633 306.920215 
L 1040.665727 304.586244 
L 1051.553915 302.171216 
L 1055.183311 302.601823 
L 1058.812707 307.442114 
L 1062.442104 304.15647 
L 1076.959688 301.234042 
L 1080.589084 299.199267 
L 1084.21848 296.875824 
L 1087.847877 296.863496 
L 1091.477273 296.120812 
L 1091.477273 296.120812 
" style="fill:none;stroke:#1f77b4;stroke-linecap:square;stroke-width:1.5;"/>
   </g>
   <g id="line2d_20">
    <path clip-path="url(#p13b54f9cec)" d="M 97.022727 282.334443 
L 100.652123 281.807374 
L 111.540312 282.103704 
L 115.169708 281.470836 
L 118.799104 282.073568 
L 122.4285 283.09568 
L 126.057896 278.55664 
L 136.946085 273.492396 
L 140.575481 272.256591 
L 144.204877 272.43285 
L 147.834273 275.65803 
L 151.46367 280.06705 
L 162.351858 274.30639 
L 165.981254 270.635895 
L 169.61065 266.515858 
L 173.240046 266.456536 
L 176.869443 263.090995 
L 187.757631 262.835866 
L 191.387027 268.285471 
L 195.016423 274.930777 
L 198.64582 273.076945 
L 202.275216 278.788207 
L 213.163404 275.948926 
L 216.7928 275.248441 
L 220.422196 278.529801 
L 224.051593 275.588291 
L 227.680989 269.667234 
L 238.569177 270.897173 
L 242.198573 272.057614 
L 245.827969 273.868062 
L 249.457366 274.08531 
L 253.086762 275.143795 
L 263.97495 276.615642 
L 267.604346 278.238076 
L 271.233743 279.450183 
L 274.863139 283.139414 
L 278.492535 283.247925 
L 289.380723 277.779305 
L 293.010119 280.019553 
L 296.639516 275.665894 
L 300.268912 279.749404 
L 303.898308 282.13704 
L 314.786496 279.125139 
L 318.415893 277.549118 
L 322.045289 278.67472 
L 325.674685 275.421773 
L 329.304081 277.06237 
L 340.192269 275.630965 
L 343.821666 272.749808 
L 347.451062 270.45688 
L 351.080458 274.632234 
L 354.709854 270.013876 
L 365.598042 265.920352 
L 369.227439 262.339661 
L 372.856835 265.699235 
L 376.486231 263.702189 
L 380.115627 260.426735 
L 391.003816 261.860041 
L 394.633212 264.3171 
L 398.262608 263.591334 
L 401.892004 258.140081 
L 405.5214 257.91683 
L 416.409589 257.449007 
L 420.038985 257.698327 
L 423.668381 256.839755 
L 427.297777 253.952617 
L 430.927173 254.511281 
L 441.815362 246.837324 
L 445.444758 251.026823 
L 449.074154 253.286166 
L 452.70355 252.952201 
L 456.332946 245.975164 
L 467.221135 248.367217 
L 470.850531 243.224838 
L 474.479927 243.773735 
L 478.109323 241.928502 
L 481.738719 240.434839 
L 492.626908 238.18739 
L 496.256304 237.208604 
L 499.8857 236.408547 
L 503.515096 239.751949 
L 507.144492 236.248979 
L 518.032681 246.620104 
L 521.662077 248.077475 
L 525.291473 253.905384 
L 528.920869 247.447409 
L 532.550265 239.276148 
L 543.438454 243.205197 
L 547.06785 243.424703 
L 550.697246 241.56897 
L 554.326642 243.122297 
L 557.956038 248.019314 
L 568.844227 243.415946 
L 572.473623 240.583723 
L 576.103019 244.356641 
L 579.732415 243.119187 
L 583.361812 237.012841 
L 594.25 231.921896 
L 597.879396 232.060386 
L 601.508792 230.846226 
L 605.138188 235.109716 
L 608.767585 235.743899 
L 619.655773 230.335151 
L 623.285169 237.51368 
L 626.914565 230.250693 
L 630.543962 233.649476 
L 634.173358 233.106227 
L 645.061546 226.124333 
L 648.690942 224.824675 
L 652.320338 221.315771 
L 655.949735 218.716346 
L 659.579131 224.684593 
L 670.467319 227.212684 
L 674.096715 229.722936 
L 677.726111 235.526964 
L 681.355508 239.218356 
L 684.984904 236.44698 
L 695.873092 239.99846 
L 699.502488 239.300233 
L 703.131885 242.172712 
L 706.761281 236.315053 
L 710.390677 232.090416 
L 721.278865 233.307587 
L 724.908261 236.261673 
L 732.167054 244.912516 
L 735.79645 240.21966 
L 746.684638 238.288857 
L 750.314035 236.966611 
L 753.943431 240.996444 
L 757.572827 237.589732 
L 761.202223 238.802231 
L 775.719808 239.768501 
L 779.349204 243.46556 
L 782.9786 248.162737 
L 786.607996 249.4315 
L 797.496184 256.461793 
L 801.125581 261.949601 
L 804.754977 261.396802 
L 808.384373 259.400828 
L 812.013769 261.916905 
L 822.901958 257.863496 
L 826.531354 257.0986 
L 830.16075 258.01186 
L 833.790146 252.403998 
L 837.419542 255.861734 
L 848.307731 251.8344 
L 851.937127 254.243815 
L 855.566523 254.834539 
L 859.195919 258.317564 
L 862.825315 254.279883 
L 873.713504 252.834892 
L 877.3429 255.884683 
L 880.972296 263.448564 
L 884.601692 267.458962 
L 888.231088 265.098163 
L 899.119277 271.937983 
L 902.748673 264.013529 
L 906.378069 258.896359 
L 910.007465 258.912924 
L 913.636861 254.749564 
L 924.52505 252.436664 
L 928.154446 247.286182 
L 931.783842 244.055567 
L 935.413238 247.296142 
L 939.042634 241.773887 
L 949.930823 232.389487 
L 953.560219 232.533407 
L 957.189615 230.801739 
L 960.819011 232.757804 
L 964.448407 232.533409 
L 975.336596 230.925119 
L 978.965992 230.040937 
L 982.595388 236.40068 
L 986.224784 242.992545 
L 989.85418 249.164755 
L 1000.742369 247.948229 
L 1004.371765 250.455421 
L 1008.001161 245.694237 
L 1011.630557 251.302502 
L 1015.259954 250.060198 
L 1026.148142 242.122433 
L 1029.777538 239.219438 
L 1033.406934 243.442124 
L 1037.03633 244.898552 
L 1040.665727 243.412066 
L 1051.553915 241.745679 
L 1055.183311 235.940356 
L 1058.812707 240.779046 
L 1062.442104 247.473123 
L 1066.0715 242.882628 
L 1076.959688 246.84045 
L 1080.589084 239.886083 
L 1084.21848 236.619499 
L 1087.847877 231.357816 
L 1091.477273 227.630799 
L 1091.477273 227.630799 
" style="fill:none;stroke:#ff7f0e;stroke-linecap:square;stroke-width:1.5;"/>
   </g>
   <g id="line2d_21">
    <path clip-path="url(#p13b54f9cec)" d="M 97.022727 277.15321 
L 100.652123 274.730576 
L 111.540312 273.792356 
L 115.169708 276.218293 
L 118.799104 277.405417 
L 122.4285 280.538127 
L 126.057896 281.499451 
L 136.946085 276.62888 
L 140.575481 271.757275 
L 144.204877 273.252522 
L 147.834273 278.586073 
L 151.46367 283.004574 
L 162.351858 284.216934 
L 165.981254 283.371717 
L 169.61065 283.429949 
L 173.240046 282.393517 
L 176.869443 281.488852 
L 187.757631 274.733524 
L 191.387027 276.546997 
L 195.016423 275.033972 
L 198.64582 272.458627 
L 202.275216 272.878092 
L 213.163404 268.705543 
L 216.7928 266.175675 
L 220.422196 272.134698 
L 224.051593 265.965391 
L 227.680989 268.181053 
L 238.569177 270.172196 
L 242.198573 272.259047 
L 245.827969 265.861291 
L 249.457366 263.674724 
L 253.086762 266.75411 
L 263.97495 265.177608 
L 267.604346 266.449032 
L 271.233743 261.097074 
L 274.863139 260.544935 
L 278.492535 254.020058 
L 289.380723 249.90781 
L 293.010119 251.202752 
L 296.639516 243.873193 
L 300.268912 241.109256 
L 303.898308 241.061975 
L 314.786496 234.823696 
L 318.415893 227.255883 
L 322.045289 224.553072 
L 325.674685 215.264902 
L 329.304081 227.453037 
L 340.192269 223.697195 
L 343.821666 214.633842 
L 347.451062 218.651928 
L 351.080458 223.753795 
L 354.709854 226.487673 
L 365.598042 217.680381 
L 369.227439 217.422572 
L 372.856835 216.810031 
L 376.486231 209.439458 
L 380.115627 204.228673 
L 391.003816 210.026797 
L 394.633212 200.481817 
L 398.262608 203.423063 
L 405.5214 193.01747 
L 416.409589 191.414298 
L 420.038985 193.884922 
L 423.668381 193.907265 
L 427.297777 193.322066 
L 430.927173 187.353252 
L 441.815362 183.519714 
L 445.444758 187.016787 
L 449.074154 191.845088 
L 452.70355 194.872817 
L 456.332946 200.938149 
L 467.221135 207.364121 
L 470.850531 198.186275 
L 474.479927 197.488968 
L 478.109323 201.456882 
L 481.738719 191.600925 
L 492.626908 180.55869 
L 496.256304 169.516678 
L 499.8857 161.498965 
L 503.515096 167.707814 
L 507.144492 165.757056 
L 518.032681 180.010135 
L 521.662077 174.688746 
L 525.291473 163.349928 
L 528.920869 170.428967 
L 532.550265 178.470123 
L 543.438454 164.802767 
L 547.06785 163.355413 
L 550.697246 175.691737 
L 554.326642 177.542572 
L 557.956038 178.374847 
L 568.844227 184.067954 
L 572.473623 172.400787 
L 576.103019 172.984249 
L 579.732415 185.256607 
L 583.361812 182.362818 
L 594.25 179.678275 
L 597.879396 181.006874 
L 601.508792 175.631815 
L 605.138188 178.347532 
L 608.767585 186.247629 
L 619.655773 186.485271 
L 623.285169 181.620506 
L 626.914565 177.288342 
L 630.543962 176.304227 
L 634.173358 170.498955 
L 645.061546 170.624159 
L 648.690942 154.636416 
L 652.320338 141.366667 
L 655.949735 137.953934 
L 659.579131 155.248456 
L 670.467319 145.808881 
L 674.096715 144.315704 
L 677.726111 145.19263 
L 681.355508 145.475787 
L 684.984904 144.650994 
L 695.873092 143.634464 
L 699.502488 135.072948 
L 703.131885 138.732813 
L 706.761281 122.876884 
L 710.390677 119.53161 
L 721.278865 112.70685 
L 724.908261 102.193136 
L 728.537658 115.840351 
L 732.167054 112.211796 
L 735.79645 115.211236 
L 746.684638 107.463594 
L 750.314035 130.276465 
L 753.943431 148.710063 
L 757.572827 140.866945 
L 761.202223 139.515594 
L 772.090411 131.562149 
L 775.719808 133.120508 
L 779.349204 118.888412 
L 782.9786 109.703294 
L 786.607996 106.135729 
L 797.496184 113.72164 
L 801.125581 110.940499 
L 804.754977 97.329965 
L 808.384373 107.14653 
L 812.013769 111.246369 
L 822.901958 125.194796 
L 826.531354 105.06967 
L 830.16075 93.547542 
L 833.790146 99.168875 
L 837.419542 93.23729 
L 848.307731 98.301923 
L 851.937127 101.007039 
L 855.566523 99.861229 
L 859.195919 93.23445 
L 862.825315 96.854773 
L 873.713504 104.486923 
L 877.3429 109.61177 
L 880.972296 91.789478 
L 884.601692 77.264049 
L 888.231088 74.902069 
L 899.119277 94.347406 
L 902.748673 95.527909 
L 906.378069 114.73232 
L 910.007465 118.741569 
L 913.636861 139.835146 
L 924.52505 134.940399 
L 928.154446 131.56008 
L 931.783842 123.170523 
L 935.413238 109.221967 
L 939.042634 114.45685 
L 949.930823 118.35428 
L 953.560219 129.187264 
L 957.189615 111.512033 
L 960.819011 129.078773 
L 964.448407 134.354338 
L 975.336596 125.60733 
L 978.965992 118.379178 
L 982.595388 117.676753 
L 986.224784 125.105099 
L 989.85418 123.648526 
L 1000.742369 111.579562 
L 1004.371765 107.347869 
L 1008.001161 95.850744 
L 1011.630557 109.010528 
L 1015.259954 104.870151 
L 1026.148142 100.715653 
L 1029.777538 81.252079 
L 1033.406934 79.75415 
L 1037.03633 85.218282 
L 1040.665727 88.913964 
L 1051.553915 67.119568 
L 1055.183311 63.119202 
L 1058.812707 39.794545 
L 1062.442104 45.122194 
L 1066.0715 49.618546 
L 1076.959688 40.855542 
L 1080.589084 55.983108 
L 1084.21848 51.161603 
L 1087.847877 47.260379 
L 1091.477273 70.151126 
L 1091.477273 70.151126 
" style="fill:none;stroke:#2ca02c;stroke-linecap:square;stroke-width:1.5;"/>
   </g>
   <g id="line2d_22">
    <path clip-path="url(#p13b54f9cec)" d="M 97.022727 278.345201 
L 100.652123 273.199852 
L 111.540312 269.926209 
L 115.169708 274.703782 
L 118.799104 276.737639 
L 122.4285 269.131407 
L 126.057896 261.999447 
L 136.946085 265.805953 
L 140.575481 266.047061 
L 144.204877 259.648812 
L 147.834273 254.949567 
L 151.46367 258.071361 
L 162.351858 258.100101 
L 165.981254 258.403115 
L 169.61065 263.344206 
L 173.240046 263.230903 
L 176.869443 259.279494 
L 187.757631 258.352531 
L 191.387027 257.892291 
L 195.016423 265.297057 
L 198.64582 262.065693 
L 202.275216 266.013378 
L 213.163404 264.67768 
L 220.422196 265.134974 
L 224.051593 268.827817 
L 227.680989 271.746105 
L 238.569177 265.968102 
L 242.198573 265.328993 
L 245.827969 261.093957 
L 249.457366 267.638654 
L 253.086762 273.857268 
L 263.97495 274.640137 
L 267.604346 273.040894 
L 271.233743 275.129198 
L 274.863139 279.129171 
L 278.492535 279.216535 
L 289.380723 279.658708 
L 293.010119 274.947512 
L 296.639516 275.298489 
L 300.268912 273.259343 
L 303.898308 270.286798 
L 314.786496 269.636433 
L 318.415893 274.822493 
L 322.045289 281.39706 
L 325.674685 280.475779 
L 329.304081 282.207389 
L 340.192269 287.586357 
L 343.821666 288.876137 
L 347.451062 289.726696 
L 351.080458 290.177797 
L 354.709854 294.044479 
L 365.598042 295.177301 
L 369.227439 296.176424 
L 372.856835 298.853449 
L 376.486231 295.685081 
L 380.115627 299.398036 
L 391.003816 297.448871 
L 394.633212 299.159485 
L 398.262608 304.395273 
L 401.892004 305.204536 
L 405.5214 303.33925 
L 416.409589 306.282671 
L 420.038985 306.780155 
L 423.668381 304.591526 
L 427.297777 303.912221 
L 430.927173 304.897106 
L 441.815362 301.281717 
L 445.444758 305.45956 
L 449.074154 308.027193 
L 452.70355 309.413743 
L 456.332946 305.99914 
L 467.221135 305.469139 
L 470.850531 302.832601 
L 478.109323 309.894627 
L 481.738719 311.528849 
L 492.626908 310.502917 
L 496.256304 311.957707 
L 499.8857 310.883742 
L 503.515096 309.388883 
L 507.144492 311.238308 
L 521.662077 307.020985 
L 525.291473 302.57056 
L 528.920869 306.106724 
L 532.550265 302.536201 
L 543.438454 298.99717 
L 547.06785 299.326026 
L 550.697246 301.159275 
L 554.326642 299.022298 
L 557.956038 295.22807 
L 568.844227 296.511238 
L 572.473623 298.559973 
L 576.103019 296.186199 
L 579.732415 296.624525 
L 583.361812 295.112894 
L 594.25 293.131276 
L 597.879396 293.113636 
L 601.508792 292.691475 
L 605.138188 296.135239 
L 608.767585 297.81141 
L 619.655773 298.548882 
L 623.285169 298.967848 
L 626.914565 299.512775 
L 630.543962 295.447983 
L 634.173358 298.486706 
L 645.061546 299.534226 
L 648.690942 298.557645 
L 655.949735 300.203728 
L 659.579131 302.598774 
L 670.467319 303.824094 
L 677.726111 302.776064 
L 681.355508 307.108475 
L 684.984904 309.107622 
L 695.873092 311.645632 
L 699.502488 312.805858 
L 703.131885 312.619192 
L 706.761281 310.193133 
L 710.390677 309.831082 
L 724.908261 306.622551 
L 728.537658 306.124144 
L 732.167054 306.562875 
L 735.79645 307.349709 
L 746.684638 309.517767 
L 750.314035 307.386238 
L 753.943431 306.315751 
L 761.202223 303.321922 
L 772.090411 303.919954 
L 775.719808 303.799833 
L 779.349204 303.224004 
L 782.9786 304.214054 
L 786.607996 301.989908 
L 797.496184 298.452504 
L 801.125581 295.025455 
L 804.754977 297.762499 
L 808.384373 296.652605 
L 812.013769 295.69911 
L 822.901958 299.125123 
L 826.531354 298.868739 
L 830.16075 297.208875 
L 833.790146 301.014821 
L 837.419542 300.440541 
L 848.307731 299.720689 
L 851.937127 302.491163 
L 855.566523 302.919118 
L 859.195919 305.8149 
L 862.825315 304.390037 
L 877.3429 307.445072 
L 880.972296 307.217879 
L 884.601692 310.094847 
L 888.231088 307.033396 
L 899.119277 306.269228 
L 902.748673 304.199521 
L 906.378069 306.136001 
L 910.007465 304.925158 
L 913.636861 302.07355 
L 924.52505 305.824157 
L 928.154446 302.550275 
L 931.783842 297.968091 
L 935.413238 297.755297 
L 939.042634 297.364844 
L 949.930823 294.552297 
L 953.560219 296.131507 
L 957.189615 294.106916 
L 960.819011 295.586262 
L 964.448407 296.135985 
L 975.336596 299.108801 
L 978.965992 296.84812 
L 982.595388 293.859777 
L 986.224784 293.383607 
L 989.85418 293.81558 
L 1000.742369 295.682484 
L 1004.371765 297.695684 
L 1008.001161 295.185185 
L 1011.630557 298.329755 
L 1015.259954 299.034338 
L 1026.148142 299.366234 
L 1029.777538 302.896012 
L 1033.406934 299.487735 
L 1037.03633 299.467315 
L 1040.665727 301.343527 
L 1051.553915 302.578823 
L 1055.183311 301.010195 
L 1058.812707 303.461801 
L 1062.442104 305.68594 
L 1066.0715 309.433711 
L 1076.959688 310.492454 
L 1080.589084 313.183625 
L 1084.21848 314.213846 
L 1087.847877 314.340179 
L 1091.477273 314.064045 
L 1091.477273 314.064045 
" style="fill:none;stroke:#d62728;stroke-linecap:square;stroke-width:1.5;"/>
   </g>
   <g id="line2d_23">
    <path clip-path="url(#p13b54f9cec)" d="M 97.022727 283.86949 
L 100.652123 284.555934 
L 111.540312 284.661867 
L 115.169708 286.078133 
L 118.799104 281.634331 
L 122.4285 285.001035 
L 126.057896 284.518526 
L 136.946085 285.787187 
L 140.575481 286.996223 
L 144.204877 292.404593 
L 147.834273 290.830179 
L 151.46367 293.65252 
L 162.351858 292.525133 
L 165.981254 294.489702 
L 169.61065 290.309949 
L 173.240046 292.962753 
L 176.869443 291.103979 
L 187.757631 286.269413 
L 191.387027 287.431638 
L 195.016423 287.200643 
L 198.64582 286.443795 
L 213.163404 282.683709 
L 216.7928 280.523736 
L 220.422196 286.451939 
L 224.051593 283.946265 
L 227.680989 287.476663 
L 238.569177 287.615806 
L 242.198573 285.074515 
L 245.827969 280.850436 
L 249.457366 277.217926 
L 253.086762 282.062785 
L 263.97495 286.234696 
L 267.604346 292.498418 
L 271.233743 292.073944 
L 274.863139 293.00254 
L 278.492535 295.814375 
L 289.380723 295.737631 
L 293.010119 294.814217 
L 296.639516 293.520938 
L 303.898308 289.159623 
L 314.786496 288.403523 
L 318.415893 290.977185 
L 322.045289 291.191773 
L 325.674685 290.806124 
L 329.304081 290.885574 
L 340.192269 292.958159 
L 343.821666 296.690886 
L 347.451062 297.638742 
L 351.080458 300.326901 
L 354.709854 302.031878 
L 369.227439 297.286877 
L 372.856835 295.735197 
L 376.486231 296.291038 
L 380.115627 297.53045 
L 391.003816 296.784669 
L 394.633212 298.116646 
L 398.262608 296.026797 
L 401.892004 299.644073 
L 405.5214 296.369007 
L 416.409589 299.154023 
L 420.038985 298.181471 
L 423.668381 293.287941 
L 427.297777 293.57046 
L 430.927173 290.341167 
L 441.815362 290.797165 
L 445.444758 293.687783 
L 449.074154 294.38494 
L 452.70355 291.026049 
L 456.332946 288.059599 
L 467.221135 283.760336 
L 470.850531 279.599988 
L 474.479927 279.171304 
L 478.109323 282.476142 
L 481.738719 284.688554 
L 492.626908 279.123746 
L 496.256304 278.855588 
L 499.8857 278.273632 
L 503.515096 277.860394 
L 507.144492 276.038266 
L 521.662077 272.414007 
L 525.291473 278.184649 
L 528.920869 283.070544 
L 532.550265 283.397553 
L 543.438454 286.795056 
L 547.06785 283.538606 
L 550.697246 285.550587 
L 554.326642 289.664338 
L 557.956038 287.25961 
L 568.844227 291.680854 
L 572.473623 288.810084 
L 576.103019 287.299065 
L 579.732415 290.703646 
L 583.361812 289.728117 
L 594.25 286.04203 
L 597.879396 289.137824 
L 601.508792 293.708019 
L 605.138188 295.256385 
L 608.767585 291.718273 
L 619.655773 289.234876 
L 623.285169 291.611173 
L 626.914565 292.388817 
L 630.543962 292.071111 
L 634.173358 289.186256 
L 645.061546 286.387059 
L 648.690942 289.939519 
L 652.320338 293.698639 
L 655.949735 295.622827 
L 659.579131 296.745486 
L 670.467319 295.969538 
L 674.096715 299.499297 
L 677.726111 297.449088 
L 681.355508 297.694336 
L 684.984904 297.613792 
L 695.873092 294.006463 
L 699.502488 289.391949 
L 703.131885 289.868088 
L 706.761281 290.959344 
L 710.390677 289.539023 
L 721.278865 292.191687 
L 724.908261 291.155093 
L 735.79645 300.030897 
L 746.684638 298.993694 
L 753.943431 293.826519 
L 757.572827 298.454127 
L 772.090411 295.589285 
L 775.719808 296.064295 
L 779.349204 294.456752 
L 782.9786 296.511417 
L 786.607996 298.135183 
L 797.496184 299.035645 
L 801.125581 300.807159 
L 804.754977 300.890806 
L 808.384373 299.745905 
L 812.013769 297.388277 
L 826.531354 293.224967 
L 830.16075 294.049228 
L 833.790146 293.184748 
L 837.419542 288.913675 
L 848.307731 287.381184 
L 851.937127 288.341324 
L 855.566523 290.208826 
L 859.195919 287.874536 
L 862.825315 285.72583 
L 873.713504 281.267359 
L 877.3429 280.888132 
L 880.972296 278.784213 
L 884.601692 273.542376 
L 888.231088 275.914016 
L 899.119277 273.139673 
L 902.748673 273.5432 
L 906.378069 273.493676 
L 910.007465 269.297194 
L 913.636861 270.035611 
L 924.52505 265.65449 
L 928.154446 258.845646 
L 931.783842 257.598342 
L 935.413238 262.912457 
L 939.042634 263.682298 
L 949.930823 262.560681 
L 953.560219 254.738031 
L 957.189615 254.619748 
L 960.819011 249.682721 
L 964.448407 254.281178 
L 975.336596 254.331146 
L 978.965992 252.728259 
L 982.595388 253.290951 
L 986.224784 257.980794 
L 989.85418 255.620726 
L 1000.742369 255.318124 
L 1004.371765 250.571589 
L 1008.001161 251.781134 
L 1011.630557 249.666525 
L 1015.259954 249.547277 
L 1026.148142 243.720415 
L 1029.777538 252.194037 
L 1033.406934 247.412078 
L 1037.03633 243.497497 
L 1040.665727 254.390815 
L 1051.553915 254.477525 
L 1055.183311 252.003156 
L 1058.812707 244.603079 
L 1062.442104 243.923447 
L 1066.0715 237.073459 
L 1076.959688 245.431946 
L 1080.589084 242.778177 
L 1084.21848 233.931067 
L 1087.847877 225.478981 
L 1091.477273 221.209034 
L 1091.477273 221.209034 
" style="fill:none;stroke:#9467bd;stroke-linecap:square;stroke-width:1.5;"/>
   </g>
   <g id="line2d_24">
    <path clip-path="url(#p13b54f9cec)" d="M 97.022727 281.301503 
L 100.652123 279.356803 
L 111.540312 278.131298 
L 115.169708 280.380365 
L 118.799104 279.410219 
L 122.4285 280.01213 
L 126.057896 278.093581 
L 136.946085 277.696613 
L 140.575481 276.323722 
L 144.204877 277.519499 
L 147.834273 277.13367 
L 151.46367 280.568288 
L 162.351858 280.148176 
L 165.981254 278.450508 
L 169.61065 277.333881 
L 173.240046 277.256151 
L 187.757631 273.237563 
L 191.387027 275.758363 
L 195.016423 276.93059 
L 198.64582 275.195504 
L 202.275216 278.010752 
L 213.163404 275.516522 
L 216.7928 275.763508 
L 220.422196 278.240678 
L 224.051593 275.916202 
L 227.680989 276.896868 
L 242.198573 276.311002 
L 245.827969 274.258434 
L 249.457366 273.20754 
L 253.086762 275.911182 
L 263.97495 276.84052 
L 267.604346 278.655368 
L 271.233743 278.88095 
L 274.863139 280.327641 
L 278.492535 279.906406 
L 289.380723 278.381704 
L 293.010119 278.733 
L 296.639516 277.160481 
L 300.268912 276.036092 
L 303.898308 276.132721 
L 314.786496 275.431899 
L 318.415893 274.890921 
L 322.045289 275.557029 
L 325.674685 272.36996 
L 329.304081 274.473054 
L 340.192269 276.514964 
L 343.821666 276.247977 
L 347.451062 277.137344 
L 351.080458 278.971774 
L 354.709854 280.521129 
L 369.227439 277.592955 
L 372.856835 277.737686 
L 376.486231 275.322744 
L 380.115627 275.240516 
L 391.003816 275.722812 
L 394.633212 275.571122 
L 398.262608 277.41951 
L 401.892004 277.550277 
L 405.5214 276.074352 
L 416.409589 276.784713 
L 420.038985 277.998834 
L 423.668381 276.325767 
L 427.297777 274.396941 
L 430.927173 272.650834 
L 441.815362 270.755017 
L 445.444758 273.01597 
L 449.074154 276.205375 
L 452.70355 276.008303 
L 456.332946 272.60156 
L 467.221135 272.156908 
L 470.850531 267.640168 
L 474.479927 269.859851 
L 478.109323 270.530604 
L 481.738719 271.070919 
L 492.626908 267.32101 
L 499.8857 266.877652 
L 503.515096 266.97711 
L 507.144492 265.919058 
L 518.032681 265.510409 
L 525.291473 263.680227 
L 528.920869 265.744502 
L 532.550265 263.735885 
L 543.438454 262.511482 
L 547.06785 262.221799 
L 550.697246 264.68903 
L 554.326642 265.301787 
L 557.956038 263.685779 
L 568.844227 265.390351 
L 572.473623 262.933217 
L 576.103019 262.349556 
L 579.732415 265.32472 
L 583.361812 262.121084 
L 594.25 260.958503 
L 597.879396 263.343616 
L 601.508792 262.353798 
L 605.138188 265.965919 
L 608.767585 266.363101 
L 619.655773 264.345152 
L 623.285169 265.810411 
L 626.914565 265.818386 
L 630.543962 265.557927 
L 634.173358 266.121834 
L 645.061546 265.249233 
L 648.690942 263.878298 
L 652.320338 262.323107 
L 655.949735 261.882587 
L 659.579131 264.881845 
L 670.467319 264.727222 
L 674.096715 266.119207 
L 677.726111 267.018373 
L 681.355508 269.682251 
L 684.984904 269.045505 
L 695.873092 268.396163 
L 699.502488 266.166622 
L 703.131885 266.387248 
L 706.761281 264.443546 
L 710.390677 262.251158 
L 721.278865 260.842282 
L 724.908261 259.407765 
L 728.537658 260.868838 
L 732.167054 261.787092 
L 735.79645 261.160449 
L 746.684638 260.834917 
L 750.314035 261.370926 
L 753.943431 261.375978 
L 757.572827 260.648316 
L 761.202223 259.601419 
L 772.090411 259.287964 
L 775.719808 260.002692 
L 779.349204 259.486241 
L 782.9786 259.596495 
L 786.607996 259.434796 
L 797.496184 259.131946 
L 801.125581 258.767016 
L 804.754977 257.38423 
L 808.384373 255.132915 
L 812.013769 256.317981 
L 822.901958 256.618304 
L 826.531354 254.834037 
L 830.16075 255.659379 
L 833.790146 256.127139 
L 837.419542 253.734795 
L 848.307731 251.72524 
L 851.937127 255.131304 
L 855.566523 256.775383 
L 859.195919 257.405655 
L 862.825315 255.226882 
L 873.713504 256.351632 
L 877.3429 257.46339 
L 880.972296 257.264237 
L 884.601692 258.178072 
L 888.231088 257.33462 
L 899.119277 260.039527 
L 902.748673 258.67067 
L 906.378069 259.214005 
L 910.007465 258.608137 
L 913.636861 257.086851 
L 924.52505 256.798519 
L 928.154446 252.101421 
L 931.783842 248.912117 
L 935.413238 250.618574 
L 939.042634 251.736365 
L 949.930823 248.570164 
L 953.560219 247.223632 
L 957.189615 244.006358 
L 964.448407 248.205189 
L 975.336596 247.52562 
L 978.965992 246.621138 
L 982.595388 246.758674 
L 986.224784 249.942496 
L 989.85418 250.256198 
L 1000.742369 249.755636 
L 1004.371765 248.598409 
L 1008.001161 244.70189 
L 1011.630557 247.984381 
L 1015.259954 248.92069 
L 1026.148142 245.289622 
L 1029.777538 247.00506 
L 1033.406934 245.935166 
L 1037.03633 244.223096 
L 1040.665727 246.069797 
L 1051.553915 243.434547 
L 1055.183311 240.947937 
L 1058.812707 241.531357 
L 1062.442104 242.523623 
L 1066.0715 241.882944 
L 1076.959688 243.197447 
L 1080.589084 242.798677 
L 1084.21848 239.648171 
L 1087.847877 236.780272 
L 1091.477273 236.592692 
L 1091.477273 236.592692 
" style="fill:none;stroke:#8c564b;stroke-linecap:square;stroke-width:1.5;"/>
   </g>
   <g id="line2d_25">
    <path clip-path="url(#p13b54f9cec)" d="M 97.022727 284.265057 
L 100.652123 286.814882 
L 111.540312 288.023124 
L 115.169708 287.410307 
L 118.799104 283.931134 
L 122.4285 286.627129 
L 126.057896 287.906448 
L 136.946085 289.461398 
L 140.575481 291.772477 
L 144.204877 295.841639 
L 147.834273 294.648139 
L 151.46367 294.635907 
L 162.351858 293.867787 
L 165.981254 297.179664 
L 169.61065 294.029462 
L 173.240046 296.592367 
L 176.869443 295.604328 
L 187.757631 293.379528 
L 191.387027 292.518048 
L 195.016423 291.37802 
L 198.64582 292.083945 
L 202.275216 288.979026 
L 213.163404 288.459186 
L 216.7928 286.263138 
L 220.422196 289.586819 
L 224.051593 289.17838 
L 227.680989 291.633589 
L 238.569177 292.108492 
L 245.827969 287.629907 
L 249.457366 285.204918 
L 253.086762 287.246186 
L 263.97495 290.326959 
L 267.604346 294.71711 
L 271.233743 294.12904 
L 274.863139 293.868334 
L 278.492535 296.986789 
L 289.380723 298.092344 
L 293.010119 296.943572 
L 296.639516 296.895701 
L 300.268912 295.648978 
L 303.898308 293.568318 
L 314.786496 293.409485 
L 318.415893 296.211218 
L 322.045289 295.918218 
L 325.674685 297.937525 
L 329.304081 296.550947 
L 340.192269 296.955736 
L 343.821666 300.648382 
L 347.451062 300.916596 
L 351.080458 302.174113 
L 354.709854 302.741724 
L 365.598042 300.700977 
L 369.227439 300.157468 
L 372.856835 298.579248 
L 376.486231 300.877489 
L 380.115627 302.07717 
L 391.003816 301.068456 
L 394.633212 302.407049 
L 398.262608 299.244277 
L 401.892004 302.572015 
L 405.5214 300.471178 
L 416.409589 302.57089 
L 420.038985 300.840123 
L 423.668381 297.353868 
L 427.297777 299.035356 
L 430.927173 297.306937 
L 441.815362 299.046799 
L 445.444758 300.062297 
L 449.074154 298.542438 
L 452.70355 295.553201 
L 456.332946 295.365122 
L 467.221135 291.853417 
L 470.850531 291.612527 
L 474.479927 289.636618 
L 478.109323 291.97302 
L 481.738719 293.494047 
L 492.626908 291.375485 
L 496.256304 291.277799 
L 499.8857 290.984976 
L 503.515096 290.567197 
L 507.144492 289.819296 
L 518.032681 287.810794 
L 521.662077 287.830576 
L 525.291473 293.197155 
L 528.920869 295.734326 
L 532.550265 297.342729 
L 543.438454 300.860958 
L 547.06785 298.440306 
L 550.697246 298.525815 
L 554.326642 301.493152 
L 557.956038 300.488166 
L 568.844227 303.031695 
L 576.103019 301.229284 
L 579.732415 302.204687 
L 583.361812 303.297279 
L 594.25 301.02079 
L 597.879396 302.074413 
L 601.508792 306.329882 
L 605.138188 305.653467 
L 608.767585 302.503261 
L 619.655773 301.63991 
L 623.285169 302.705605 
L 626.914565 303.343788 
L 630.543962 303.232751 
L 634.173358 300.526451 
L 645.061546 298.742192 
L 652.320338 306.462882 
L 655.949735 308.222631 
L 659.579131 307.592841 
L 670.467319 307.041679 
L 674.096715 309.172343 
L 677.726111 307.008746 
L 681.355508 305.752004 
L 684.984904 306.05219 
L 695.873092 303.341343 
L 699.502488 300.762249 
L 703.131885 301.021346 
L 706.761281 303.116917 
L 710.390677 303.226183 
L 721.278865 306.120173 
L 724.908261 306.06046 
L 728.537658 307.600992 
L 732.167054 309.449093 
L 735.79645 312.07011 
L 746.684638 311.407598 
L 750.314035 309.149588 
L 753.943431 307.109454 
L 757.572827 311.11711 
L 761.202223 311.061445 
L 772.090411 309.541193 
L 775.719808 309.563902 
L 779.349204 308.569465 
L 782.9786 310.096163 
L 786.607996 311.423488 
L 797.496184 312.255017 
L 801.125581 313.776788 
L 804.754977 314.438144 
L 808.384373 314.520524 
L 812.013769 312.301409 
L 822.901958 309.821673 
L 826.531354 309.896448 
L 830.16075 310.126028 
L 833.790146 309.274315 
L 837.419542 307.218241 
L 848.307731 307.060984 
L 851.937127 306.152118 
L 855.566523 306.715885 
L 859.195919 304.658698 
L 862.825315 304.172893 
L 873.713504 300.314492 
L 877.3429 299.412944 
L 880.972296 297.94452 
L 884.601692 293.47371 
L 888.231088 295.807486 
L 899.119277 292.079255 
L 902.748673 293.300191 
L 906.378069 292.913302 
L 910.007465 290.10309 
L 913.636861 291.691014 
L 924.52505 288.605379 
L 928.154446 286.718757 
L 931.783842 287.953561 
L 935.413238 290.540023 
L 939.042634 290.38762 
L 949.930823 291.580067 
L 953.560219 287.002094 
L 957.189615 288.958387 
L 960.819011 284.449653 
L 964.448407 286.1705 
L 975.336596 286.644149 
L 978.965992 286.129746 
L 982.595388 286.422104 
L 986.224784 287.56976 
L 989.85418 285.722792 
L 1000.742369 285.843356 
L 1004.371765 283.30397 
L 1008.001161 286.769743 
L 1011.630557 283.329899 
L 1015.259954 282.619658 
L 1026.148142 281.093741 
L 1029.777538 285.578748 
L 1033.406934 283.030146 
L 1037.03633 281.537078 
L 1040.665727 287.50684 
L 1051.553915 289.203769 
L 1055.183311 289.051084 
L 1058.812707 283.957876 
L 1062.442104 282.895837 
L 1066.0715 278.847647 
L 1076.959688 283.373677 
L 1080.589084 281.889877 
L 1084.21848 278.167921 
L 1087.847877 274.703505 
L 1091.477273 272.176203 
L 1091.477273 272.176203 
" style="fill:none;stroke:#e377c2;stroke-linecap:square;stroke-width:1.5;"/>
   </g>
   <g id="line2d_26">
    <path clip-path="url(#p13b54f9cec)" d="M 97.022727 278.193403 
L 100.652123 278.935384 
L 111.540312 280.351333 
L 115.169708 278.895048 
L 118.799104 281.648797 
L 122.4285 279.535955 
L 126.057896 276.676888 
L 136.946085 272.536966 
L 140.575481 273.679433 
L 144.204877 270.975655 
L 147.834273 275.158187 
L 151.46367 276.125748 
L 162.351858 271.748942 
L 165.981254 277.388485 
L 169.61065 276.814245 
L 173.240046 279.047481 
L 176.869443 273.623984 
L 187.757631 271.411807 
L 191.387027 268.951798 
L 195.016423 275.0729 
L 198.64582 273.979748 
L 202.275216 270.922479 
L 213.163404 269.764217 
L 216.7928 263.133804 
L 220.422196 269.119956 
L 224.051593 270.217878 
L 227.680989 268.885122 
L 238.569177 268.169836 
L 242.198573 268.329631 
L 245.827969 263.237089 
L 249.457366 267.913264 
L 253.086762 272.099064 
L 263.97495 273.786417 
L 267.604346 274.847772 
L 271.233743 271.817545 
L 274.863139 274.456625 
L 278.492535 274.561365 
L 289.380723 272.049926 
L 293.010119 267.486773 
L 296.639516 261.943875 
L 300.268912 264.071618 
L 303.898308 260.101187 
L 314.786496 252.538608 
L 322.045289 261.349017 
L 325.674685 263.95882 
L 329.304081 266.756211 
L 347.451062 260.344674 
L 351.080458 264.726305 
L 354.709854 262.251296 
L 365.598042 257.464197 
L 369.227439 257.070312 
L 372.856835 261.268218 
L 376.486231 261.474812 
L 380.115627 262.948009 
L 391.003816 261.266327 
L 394.633212 263.179773 
L 401.892004 258.677652 
L 405.5214 253.27973 
L 416.409589 258.696197 
L 420.038985 253.738068 
L 423.668381 248.398338 
L 427.297777 254.367467 
L 430.927173 256.565636 
L 441.815362 249.476359 
L 445.444758 257.303021 
L 449.074154 253.197195 
L 452.70355 253.139009 
L 456.332946 255.304252 
L 467.221135 256.354881 
L 470.850531 255.972521 
L 474.479927 251.980209 
L 478.109323 261.624819 
L 481.738719 258.194817 
L 492.626908 257.108644 
L 496.256304 253.686478 
L 499.8857 246.561849 
L 503.515096 248.393706 
L 518.032681 258.478322 
L 521.662077 257.903406 
L 525.291473 258.738353 
L 528.920869 260.023528 
L 532.550265 259.037076 
L 543.438454 258.09983 
L 547.06785 254.716546 
L 550.697246 254.962379 
L 557.956038 258.227667 
L 568.844227 258.334109 
L 572.473623 258.862751 
L 576.103019 258.568418 
L 579.732415 257.179548 
L 583.361812 260.1331 
L 594.25 250.835652 
L 597.879396 245.816132 
L 601.508792 252.874362 
L 605.138188 250.210473 
L 608.767585 250.387167 
L 623.285169 253.32458 
L 626.914565 246.677006 
L 630.543962 241.854044 
L 634.173358 235.395492 
L 645.061546 230.452688 
L 648.690942 230.216708 
L 652.320338 235.939091 
L 655.949735 239.56251 
L 659.579131 246.177249 
L 670.467319 244.966874 
L 674.096715 245.081902 
L 677.726111 240.960254 
L 681.355508 240.732636 
L 684.984904 245.525316 
L 695.873092 250.739289 
L 699.502488 251.505464 
L 703.131885 255.071886 
L 706.761281 247.286279 
L 710.390677 249.069718 
L 721.278865 252.241897 
L 724.908261 253.025322 
L 728.537658 259.731684 
L 732.167054 263.645707 
L 735.79645 269.418551 
L 746.684638 268.649345 
L 750.314035 265.727832 
L 753.943431 270.179676 
L 757.572827 270.83987 
L 761.202223 271.381571 
L 772.090411 267.759992 
L 775.719808 266.393632 
L 779.349204 262.061424 
L 782.9786 266.830721 
L 786.607996 265.786716 
L 797.496184 271.079717 
L 801.125581 273.644458 
L 804.754977 277.109601 
L 808.384373 282.479582 
L 812.013769 277.880145 
L 822.901958 278.244545 
L 826.531354 274.839373 
L 830.16075 267.931371 
L 833.790146 267.615141 
L 837.419542 270.046867 
L 848.307731 271.91336 
L 851.937127 269.085683 
L 855.566523 266.636152 
L 859.195919 266.8496 
L 862.825315 266.913247 
L 873.713504 262.545554 
L 877.3429 264.071924 
L 880.972296 262.116167 
L 884.601692 256.739468 
L 888.231088 252.884708 
L 899.119277 251.263395 
L 902.748673 243.965557 
L 906.378069 247.6074 
L 910.007465 243.977245 
L 913.636861 250.791677 
L 924.52505 249.212743 
L 928.154446 247.453776 
L 931.783842 242.775309 
L 935.413238 237.764071 
L 939.042634 229.42499 
L 949.930823 228.815338 
L 953.560219 233.75313 
L 957.189615 232.703501 
L 960.819011 231.204279 
L 964.448407 230.844504 
L 975.336596 233.735672 
L 978.965992 226.316349 
L 982.595388 225.962423 
L 986.224784 226.954056 
L 989.85418 229.447361 
L 1000.742369 227.2675 
L 1004.371765 231.879438 
L 1008.001161 234.62978 
L 1011.630557 236.440932 
L 1015.259954 230.205224 
L 1026.148142 229.614456 
L 1029.777538 226.380554 
L 1033.406934 221.126699 
L 1037.03633 229.019622 
L 1040.665727 237.184847 
L 1051.553915 239.939766 
L 1055.183311 236.443841 
L 1058.812707 226.171329 
L 1062.442104 236.123987 
L 1066.0715 237.129282 
L 1076.959688 243.488206 
L 1080.589084 247.285258 
L 1084.21848 248.720877 
L 1087.847877 246.099749 
L 1091.477273 247.311089 
L 1091.477273 247.311089 
" style="fill:none;stroke:#7f7f7f;stroke-linecap:square;stroke-width:1.5;"/>
   </g>
   <g id="line2d_27">
    <path clip-path="url(#p13b54f9cec)" d="M 97.022727 280.76139 
L 100.652123 284.153772 
L 111.540312 286.728344 
L 115.169708 284.770869 
L 118.799104 283.69998 
L 122.4285 284.350403 
L 126.057896 282.993753 
L 136.946085 280.852793 
L 140.575481 284.492671 
L 144.204877 286.678682 
L 147.834273 288.708981 
L 151.46367 289.500193 
L 162.351858 285.026856 
L 165.981254 293.55965 
L 169.61065 289.758794 
L 173.240046 294.365838 
L 176.869443 289.001847 
L 187.757631 284.734983 
L 191.387027 281.683028 
L 195.016423 285.569343 
L 198.64582 285.388365 
L 202.275216 279.326203 
L 213.163404 277.687724 
L 216.7928 269.120943 
L 220.422196 278.86465 
L 224.051593 279.364152 
L 227.680989 280.99192 
L 238.569177 280.930333 
L 242.198573 278.428943 
L 245.827969 271.301349 
L 249.457366 272.562109 
L 253.086762 278.933783 
L 263.97495 283.938321 
L 267.604346 289.68766 
L 271.233743 286.577456 
L 274.863139 288.459071 
L 278.492535 291.937315 
L 289.380723 291.164902 
L 293.010119 286.358254 
L 296.639516 281.945563 
L 300.268912 282.054995 
L 303.898308 276.312196 
L 314.786496 269.82995 
L 318.415893 277.325165 
L 322.045289 280.465962 
L 325.674685 285.088444 
L 329.304081 285.545685 
L 340.192269 283.020005 
L 343.821666 286.667592 
L 347.451062 285.958634 
L 351.080458 290.763741 
L 354.709854 289.686398 
L 365.598042 283.761263 
L 369.227439 282.761774 
L 372.856835 283.792314 
L 376.486231 286.843498 
L 380.115627 289.42694 
L 391.003816 286.978717 
L 394.633212 290.055047 
L 398.262608 284.521402 
L 401.892004 287.07128 
L 405.5214 280.539603 
L 416.409589 287.371895 
L 420.038985 281.653956 
L 423.668381 273.070132 
L 427.297777 280.048055 
L 430.927173 279.38049 
L 441.815362 276.198486 
L 445.444758 283.480514 
L 449.074154 278.494377 
L 452.70355 274.411593 
L 456.332946 275.87317 
L 467.221135 272.060911 
L 470.850531 271.423395 
L 474.479927 265.451007 
L 478.109323 277.034818 
L 481.738719 276.045029 
L 492.626908 272.444359 
L 496.256304 269.428408 
L 499.8857 263.011691 
L 503.515096 263.968711 
L 507.144492 265.086812 
L 518.032681 268.847633 
L 521.662077 268.359393 
L 525.291473 276.012765 
L 528.920869 280.304314 
L 543.438454 285.302505 
L 547.06785 279.754581 
L 550.697246 280.052867 
L 554.326642 285.221258 
L 557.956038 285.06057 
L 568.844227 288.392825 
L 572.473623 287.570591 
L 576.103019 286.253065 
L 579.732415 286.50425 
L 583.361812 289.991733 
L 594.25 280.745962 
L 597.879396 278.603877 
L 601.508792 289.675076 
L 605.138188 287.060295 
L 608.767585 282.853063 
L 619.655773 283.170234 
L 623.285169 285.140739 
L 626.914565 281.410452 
L 630.543962 277.967378 
L 634.173358 269.547582 
L 645.061546 263.221414 
L 648.690942 269.189828 
L 652.320338 279.545609 
L 655.949735 284.572057 
L 659.579131 287.677752 
L 670.467319 286.146647 
L 674.096715 289.265779 
L 677.726111 283.700808 
L 681.355508 281.698854 
L 684.984904 285.22769 
L 695.873092 284.712136 
L 699.502488 281.732227 
L 703.131885 284.612311 
L 706.761281 281.839039 
L 710.390677 283.207255 
L 721.278865 289.362709 
L 724.908261 289.784932 
L 728.537658 296.135012 
L 732.167054 300.852568 
L 735.79645 307.399288 
L 746.684638 306.235402 
L 750.314035 302.054214 
L 753.943431 302.3557 
L 757.572827 307.167594 
L 761.202223 307.416607 
L 772.090411 303.699457 
L 775.719808 302.917525 
L 779.349204 299.22052 
L 782.9786 303.925788 
L 786.607996 304.825084 
L 797.496184 308.773875 
L 801.125581 311.839127 
L 804.754977 314.381968 
L 808.384373 317.285455 
L 812.013769 312.804566 
L 822.901958 310.554344 
L 826.531354 308.644439 
L 830.16075 304.862743 
L 833.790146 303.729455 
L 837.419542 302.86141 
L 848.307731 303.840852 
L 851.937127 301.122438 
L 855.566523 300.200725 
L 859.195919 298.002485 
L 862.825315 297.494556 
L 873.713504 290.273264 
L 877.3429 290.279775 
L 880.972296 287.176848 
L 884.601692 277.935705 
L 888.231088 277.824325 
L 899.119277 271.747614 
L 902.748673 267.493647 
L 906.378069 269.821086 
L 910.007465 263.09252 
L 913.636861 270.982778 
L 924.52505 265.622962 
L 928.154446 261.601716 
L 931.783842 259.219975 
L 935.413238 258.623517 
L 939.042634 251.533101 
L 949.930823 252.932824 
L 953.560219 249.591352 
L 957.189615 251.700812 
L 960.819011 243.405031 
L 964.448407 245.793645 
L 975.336596 249.087435 
L 978.965992 241.808068 
L 982.595388 241.975338 
L 986.224784 244.729201 
L 989.85418 243.868574 
L 1000.742369 242.130587 
L 1004.371765 242.078557 
L 1008.001161 250.043424 
L 1011.630557 246.349441 
L 1015.259954 239.558607 
L 1026.148142 236.586021 
L 1029.777538 240.694096 
L 1033.406934 231.840511 
L 1037.03633 236.558939 
L 1040.665727 253.831578 
L 1051.553915 258.735064 
L 1055.183311 255.58437 
L 1058.812707 239.308228 
L 1062.442104 246.527305 
L 1066.0715 241.37277 
L 1076.959688 254.238967 
L 1080.589084 255.589937 
L 1084.21848 251.866131 
L 1087.847877 244.681402 
L 1091.477273 242.443569 
L 1091.477273 242.443569 
" style="fill:none;stroke:#bcbd22;stroke-linecap:square;stroke-width:1.5;"/>
   </g>
   <g id="patch_3">
    <path d="M 47.3 331.16 
L 47.3 25.92 
" style="fill:none;stroke:#000000;stroke-linecap:square;stroke-linejoin:miter;stroke-width:0.8;"/>
   </g>
   <g id="patch_4">
    <path d="M 1141.2 331.16 
L 1141.2 25.92 
" style="fill:none;stroke:#000000;stroke-linecap:square;stroke-linejoin:miter;stroke-width:0.8;"/>
   </g>
   <g id="patch_5">
    <path d="M 47.3 331.16 
L 1141.2 331.16 
" style="fill:none;stroke:#000000;stroke-linecap:square;stroke-linejoin:miter;stroke-width:0.8;"/>
   </g>
   <g id="patch_6">
    <path d="M 47.3 25.92 
L 1141.2 25.92 
" style="fill:none;stroke:#000000;stroke-linecap:square;stroke-linejoin:miter;stroke-width:0.8;"/>
   </g>
   <g id="text_11">
    <!-- Net Value: (2010-01-06 ~ 2010-10-08) -->
    <g transform="translate(478.1425 19.92)scale(0.12 -0.12)">
     <defs>
      <path d="M 9.8125 72.90625 
L 23.09375 72.90625 
L 55.421875 11.921875 
L 55.421875 72.90625 
L 64.984375 72.90625 
L 64.984375 0 
L 51.703125 0 
L 19.390625 60.984375 
L 19.390625 0 
L 9.8125 0 
z
" id="DejaVuSans-78"/>
      <path d="M 28.609375 0 
L 0.78125 72.90625 
L 11.078125 72.90625 
L 34.1875 11.53125 
L 57.328125 72.90625 
L 67.578125 72.90625 
L 39.796875 0 
z
" id="DejaVuSans-86"/>
      <path d="M 11.71875 12.40625 
L 22.015625 12.40625 
L 22.015625 0 
L 11.71875 0 
z
M 11.71875 51.703125 
L 22.015625 51.703125 
L 22.015625 39.3125 
L 11.71875 39.3125 
z
" id="DejaVuSans-58"/>
      <path d="M 31 75.875 
Q 24.46875 64.65625 21.28125 53.65625 
Q 18.109375 42.671875 18.109375 31.390625 
Q 18.109375 20.125 21.3125 9.0625 
Q 24.515625 -2 31 -13.1875 
L 23.1875 -13.1875 
Q 15.875 -1.703125 12.234375 9.375 
Q 8.59375 20.453125 8.59375 31.390625 
Q 8.59375 42.28125 12.203125 53.3125 
Q 15.828125 64.359375 23.1875 75.875 
z
" id="DejaVuSans-40"/>
      <path d="M 4.890625 31.390625 
L 31.203125 31.390625 
L 31.203125 23.390625 
L 4.890625 23.390625 
z
" id="DejaVuSans-45"/>
      <path d="M 33.015625 40.375 
Q 26.375 40.375 22.484375 35.828125 
Q 18.609375 31.296875 18.609375 23.390625 
Q 18.609375 15.53125 22.484375 10.953125 
Q 26.375 6.390625 33.015625 6.390625 
Q 39.65625 6.390625 43.53125 10.953125 
Q 47.40625 15.53125 47.40625 23.390625 
Q 47.40625 31.296875 43.53125 35.828125 
Q 39.65625 40.375 33.015625 40.375 
z
M 52.59375 71.296875 
L 52.59375 62.3125 
Q 48.875 64.0625 45.09375 64.984375 
Q 41.3125 65.921875 37.59375 65.921875 
Q 27.828125 65.921875 22.671875 59.328125 
Q 17.53125 52.734375 16.796875 39.40625 
Q 19.671875 43.65625 24.015625 45.921875 
Q 28.375 48.1875 33.59375 48.1875 
Q 44.578125 48.1875 50.953125 41.515625 
Q 57.328125 34.859375 57.328125 23.390625 
Q 57.328125 12.15625 50.6875 5.359375 
Q 44.046875 -1.421875 33.015625 -1.421875 
Q 20.359375 -1.421875 13.671875 8.265625 
Q 6.984375 17.96875 6.984375 36.375 
Q 6.984375 53.65625 15.1875 63.9375 
Q 23.390625 74.21875 37.203125 74.21875 
Q 40.921875 74.21875 44.703125 73.484375 
Q 48.484375 72.75 52.59375 71.296875 
z
" id="DejaVuSans-54"/>
      <path d="M 73.1875 39.890625 
L 73.1875 31.203125 
Q 68.0625 27.34375 63.6875 25.6875 
Q 59.328125 24.03125 54.59375 24.03125 
Q 49.21875 24.03125 42.09375 26.90625 
Q 41.546875 27.09375 41.3125 27.203125 
Q 40.96875 27.34375 40.234375 27.59375 
Q 32.671875 30.609375 28.078125 30.609375 
Q 23.78125 30.609375 19.578125 28.734375 
Q 15.375 26.859375 10.59375 22.796875 
L 10.59375 31.5 
Q 15.71875 35.359375 20.09375 37.03125 
Q 24.46875 38.71875 29.203125 38.71875 
Q 34.578125 38.71875 41.75 35.796875 
Q 42.234375 35.59375 42.484375 35.5 
Q 42.875 35.359375 43.5625 35.109375 
Q 51.125 32.078125 55.71875 32.078125 
Q 59.90625 32.078125 64.03125 33.9375 
Q 68.171875 35.796875 73.1875 39.890625 
z
" id="DejaVuSans-126"/>
      <path d="M 31.78125 34.625 
Q 24.75 34.625 20.71875 30.859375 
Q 16.703125 27.09375 16.703125 20.515625 
Q 16.703125 13.921875 20.71875 10.15625 
Q 24.75 6.390625 31.78125 6.390625 
Q 38.8125 6.390625 42.859375 10.171875 
Q 46.921875 13.96875 46.921875 20.515625 
Q 46.921875 27.09375 42.890625 30.859375 
Q 38.875 34.625 31.78125 34.625 
z
M 21.921875 38.8125 
Q 15.578125 40.375 12.03125 44.71875 
Q 8.5 49.078125 8.5 55.328125 
Q 8.5 64.0625 14.71875 69.140625 
Q 20.953125 74.21875 31.78125 74.21875 
Q 42.671875 74.21875 48.875 69.140625 
Q 55.078125 64.0625 55.078125 55.328125 
Q 55.078125 49.078125 51.53125 44.71875 
Q 48 40.375 41.703125 38.8125 
Q 48.828125 37.15625 52.796875 32.3125 
Q 56.78125 27.484375 56.78125 20.515625 
Q 56.78125 9.90625 50.3125 4.234375 
Q 43.84375 -1.421875 31.78125 -1.421875 
Q 19.734375 -1.421875 13.25 4.234375 
Q 6.78125 9.90625 6.78125 20.515625 
Q 6.78125 27.484375 10.78125 32.3125 
Q 14.796875 37.15625 21.921875 38.8125 
z
M 18.3125 54.390625 
Q 18.3125 48.734375 21.84375 45.5625 
Q 25.390625 42.390625 31.78125 42.390625 
Q 38.140625 42.390625 41.71875 45.5625 
Q 45.3125 48.734375 45.3125 54.390625 
Q 45.3125 60.0625 41.71875 63.234375 
Q 38.140625 66.40625 31.78125 66.40625 
Q 25.390625 66.40625 21.84375 63.234375 
Q 18.3125 60.0625 18.3125 54.390625 
z
" id="DejaVuSans-56"/>
      <path d="M 8.015625 75.875 
L 15.828125 75.875 
Q 23.140625 64.359375 26.78125 53.3125 
Q 30.421875 42.28125 30.421875 31.390625 
Q 30.421875 20.453125 26.78125 9.375 
Q 23.140625 -1.703125 15.828125 -13.1875 
L 8.015625 -13.1875 
Q 14.5 -2 17.703125 9.0625 
Q 20.90625 20.125 20.90625 31.390625 
Q 20.90625 42.671875 17.703125 53.65625 
Q 14.5 64.65625 8.015625 75.875 
z
" id="DejaVuSans-41"/>
     </defs>
     <use xlink:href="#DejaVuSans-78"/>
     <use x="74.804688" xlink:href="#DejaVuSans-101"/>
     <use x="136.328125" xlink:href="#DejaVuSans-116"/>
     <use x="175.537109" xlink:href="#DejaVuSans-32"/>
     <use x="207.324219" xlink:href="#DejaVuSans-86"/>
     <use x="267.982422" xlink:href="#DejaVuSans-97"/>
     <use x="329.261719" xlink:href="#DejaVuSans-108"/>
     <use x="357.044922" xlink:href="#DejaVuSans-117"/>
     <use x="420.423828" xlink:href="#DejaVuSans-101"/>
     <use x="481.947266" xlink:href="#DejaVuSans-58"/>
     <use x="515.638672" xlink:href="#DejaVuSans-32"/>
     <use x="547.425781" xlink:href="#DejaVuSans-40"/>
     <use x="586.439453" xlink:href="#DejaVuSans-50"/>
     <use x="650.0625" xlink:href="#DejaVuSans-48"/>
     <use x="713.685547" xlink:href="#DejaVuSans-49"/>
     <use x="777.308594" xlink:href="#DejaVuSans-48"/>
     <use x="840.931641" xlink:href="#DejaVuSans-45"/>
     <use x="877.015625" xlink:href="#DejaVuSans-48"/>
     <use x="940.638672" xlink:href="#DejaVuSans-49"/>
     <use x="1004.261719" xlink:href="#DejaVuSans-45"/>
     <use x="1040.345703" xlink:href="#DejaVuSans-48"/>
     <use x="1103.96875" xlink:href="#DejaVuSans-54"/>
     <use x="1167.591797" xlink:href="#DejaVuSans-32"/>
     <use x="1199.378906" xlink:href="#DejaVuSans-126"/>
     <use x="1283.167969" xlink:href="#DejaVuSans-32"/>
     <use x="1314.955078" xlink:href="#DejaVuSans-50"/>
     <use x="1378.578125" xlink:href="#DejaVuSans-48"/>
     <use x="1442.201172" xlink:href="#DejaVuSans-49"/>
     <use x="1505.824219" xlink:href="#DejaVuSans-48"/>
     <use x="1569.447266" xlink:href="#DejaVuSans-45"/>
     <use x="1605.53125" xlink:href="#DejaVuSans-49"/>
     <use x="1669.154297" xlink:href="#DejaVuSans-48"/>
     <use x="1732.777344" xlink:href="#DejaVuSans-45"/>
     <use x="1768.861328" xlink:href="#DejaVuSans-48"/>
     <use x="1832.484375" xlink:href="#DejaVuSans-56"/>
     <use x="1896.107422" xlink:href="#DejaVuSans-41"/>
    </g>
   </g>
   <g id="legend_1">
    <g id="patch_7">
     <path d="M 54.3 168.248125 
L 150.789062 168.248125 
Q 152.789062 168.248125 152.789062 166.248125 
L 152.789062 32.92 
Q 152.789062 30.92 150.789062 30.92 
L 54.3 30.92 
Q 52.3 30.92 52.3 32.92 
L 52.3 166.248125 
Q 52.3 168.248125 54.3 168.248125 
z
" style="fill:#ffffff;opacity:0.8;stroke:#cccccc;stroke-linejoin:miter;"/>
    </g>
    <g id="line2d_28">
     <path d="M 56.3 39.018438 
L 76.3 39.018438 
" style="fill:none;stroke:#1f77b4;stroke-linecap:square;stroke-width:1.5;"/>
    </g>
    <g id="line2d_29"/>
    <g id="text_12">
     <!-- group_1 -->
     <g transform="translate(84.3 42.518438)scale(0.1 -0.1)">
      <defs>
       <path d="M 45.40625 27.984375 
Q 45.40625 37.75 41.375 43.109375 
Q 37.359375 48.484375 30.078125 48.484375 
Q 22.859375 48.484375 18.828125 43.109375 
Q 14.796875 37.75 14.796875 27.984375 
Q 14.796875 18.265625 18.828125 12.890625 
Q 22.859375 7.515625 30.078125 7.515625 
Q 37.359375 7.515625 41.375 12.890625 
Q 45.40625 18.265625 45.40625 27.984375 
z
M 54.390625 6.78125 
Q 54.390625 -7.171875 48.1875 -13.984375 
Q 42 -20.796875 29.203125 -20.796875 
Q 24.46875 -20.796875 20.265625 -20.09375 
Q 16.0625 -19.390625 12.109375 -17.921875 
L 12.109375 -9.1875 
Q 16.0625 -11.328125 19.921875 -12.34375 
Q 23.78125 -13.375 27.78125 -13.375 
Q 36.625 -13.375 41.015625 -8.765625 
Q 45.40625 -4.15625 45.40625 5.171875 
L 45.40625 9.625 
Q 42.625 4.78125 38.28125 2.390625 
Q 33.9375 0 27.875 0 
Q 17.828125 0 11.671875 7.65625 
Q 5.515625 15.328125 5.515625 27.984375 
Q 5.515625 40.671875 11.671875 48.328125 
Q 17.828125 56 27.875 56 
Q 33.9375 56 38.28125 53.609375 
Q 42.625 51.21875 45.40625 46.390625 
L 45.40625 54.6875 
L 54.390625 54.6875 
z
" id="DejaVuSans-103"/>
       <path d="M 41.109375 46.296875 
Q 39.59375 47.171875 37.8125 47.578125 
Q 36.03125 48 33.890625 48 
Q 26.265625 48 22.1875 43.046875 
Q 18.109375 38.09375 18.109375 28.8125 
L 18.109375 0 
L 9.078125 0 
L 9.078125 54.6875 
L 18.109375 54.6875 
L 18.109375 46.1875 
Q 20.953125 51.171875 25.484375 53.578125 
Q 30.03125 56 36.53125 56 
Q 37.453125 56 38.578125 55.875 
Q 39.703125 55.765625 41.0625 55.515625 
z
" id="DejaVuSans-114"/>
       <path d="M 30.609375 48.390625 
Q 23.390625 48.390625 19.1875 42.75 
Q 14.984375 37.109375 14.984375 27.296875 
Q 14.984375 17.484375 19.15625 11.84375 
Q 23.34375 6.203125 30.609375 6.203125 
Q 37.796875 6.203125 41.984375 11.859375 
Q 46.1875 17.53125 46.1875 27.296875 
Q 46.1875 37.015625 41.984375 42.703125 
Q 37.796875 48.390625 30.609375 48.390625 
z
M 30.609375 56 
Q 42.328125 56 49.015625 48.375 
Q 55.71875 40.765625 55.71875 27.296875 
Q 55.71875 13.875 49.015625 6.21875 
Q 42.328125 -1.421875 30.609375 -1.421875 
Q 18.84375 -1.421875 12.171875 6.21875 
Q 5.515625 13.875 5.515625 27.296875 
Q 5.515625 40.765625 12.171875 48.375 
Q 18.84375 56 30.609375 56 
z
" id="DejaVuSans-111"/>
       <path d="M 18.109375 8.203125 
L 18.109375 -20.796875 
L 9.078125 -20.796875 
L 9.078125 54.6875 
L 18.109375 54.6875 
L 18.109375 46.390625 
Q 20.953125 51.265625 25.265625 53.625 
Q 29.59375 56 35.59375 56 
Q 45.5625 56 51.78125 48.09375 
Q 58.015625 40.1875 58.015625 27.296875 
Q 58.015625 14.40625 51.78125 6.484375 
Q 45.5625 -1.421875 35.59375 -1.421875 
Q 29.59375 -1.421875 25.265625 0.953125 
Q 20.953125 3.328125 18.109375 8.203125 
z
M 48.6875 27.296875 
Q 48.6875 37.203125 44.609375 42.84375 
Q 40.53125 48.484375 33.40625 48.484375 
Q 26.265625 48.484375 22.1875 42.84375 
Q 18.109375 37.203125 18.109375 27.296875 
Q 18.109375 17.390625 22.1875 11.75 
Q 26.265625 6.109375 33.40625 6.109375 
Q 40.53125 6.109375 44.609375 11.75 
Q 48.6875 17.390625 48.6875 27.296875 
z
" id="DejaVuSans-112"/>
       <path d="M 50.984375 -16.609375 
L 50.984375 -23.578125 
L -0.984375 -23.578125 
L -0.984375 -16.609375 
z
" id="DejaVuSans-95"/>
      </defs>
      <use xlink:href="#DejaVuSans-103"/>
      <use x="63.476562" xlink:href="#DejaVuSans-114"/>
      <use x="102.339844" xlink:href="#DejaVuSans-111"/>
      <use x="163.521484" xlink:href="#DejaVuSans-117"/>
      <use x="226.900391" xlink:href="#DejaVuSans-112"/>
      <use x="290.376953" xlink:href="#DejaVuSans-95"/>
      <use x="340.376953" xlink:href="#DejaVuSans-49"/>
     </g>
    </g>
    <g id="line2d_30">
     <path d="M 56.3 53.974688 
L 76.3 53.974688 
" style="fill:none;stroke:#ff7f0e;stroke-linecap:square;stroke-width:1.5;"/>
    </g>
    <g id="line2d_31"/>
    <g id="text_13">
     <!-- group_2 -->
     <g transform="translate(84.3 57.474688)scale(0.1 -0.1)">
      <use xlink:href="#DejaVuSans-103"/>
      <use x="63.476562" xlink:href="#DejaVuSans-114"/>
      <use x="102.339844" xlink:href="#DejaVuSans-111"/>
      <use x="163.521484" xlink:href="#DejaVuSans-117"/>
      <use x="226.900391" xlink:href="#DejaVuSans-112"/>
      <use x="290.376953" xlink:href="#DejaVuSans-95"/>
      <use x="340.376953" xlink:href="#DejaVuSans-50"/>
     </g>
    </g>
    <g id="line2d_32">
     <path d="M 56.3 68.930938 
L 76.3 68.930938 
" style="fill:none;stroke:#2ca02c;stroke-linecap:square;stroke-width:1.5;"/>
    </g>
    <g id="line2d_33"/>
    <g id="text_14">
     <!-- group_3 -->
     <g transform="translate(84.3 72.430938)scale(0.1 -0.1)">
      <use xlink:href="#DejaVuSans-103"/>
      <use x="63.476562" xlink:href="#DejaVuSans-114"/>
      <use x="102.339844" xlink:href="#DejaVuSans-111"/>
      <use x="163.521484" xlink:href="#DejaVuSans-117"/>
      <use x="226.900391" xlink:href="#DejaVuSans-112"/>
      <use x="290.376953" xlink:href="#DejaVuSans-95"/>
      <use x="340.376953" xlink:href="#DejaVuSans-51"/>
     </g>
    </g>
    <g id="line2d_34">
     <path d="M 56.3 83.887188 
L 76.3 83.887188 
" style="fill:none;stroke:#d62728;stroke-linecap:square;stroke-width:1.5;"/>
    </g>
    <g id="line2d_35"/>
    <g id="text_15">
     <!-- group_4 -->
     <g transform="translate(84.3 87.387188)scale(0.1 -0.1)">
      <use xlink:href="#DejaVuSans-103"/>
      <use x="63.476562" xlink:href="#DejaVuSans-114"/>
      <use x="102.339844" xlink:href="#DejaVuSans-111"/>
      <use x="163.521484" xlink:href="#DejaVuSans-117"/>
      <use x="226.900391" xlink:href="#DejaVuSans-112"/>
      <use x="290.376953" xlink:href="#DejaVuSans-95"/>
      <use x="340.376953" xlink:href="#DejaVuSans-52"/>
     </g>
    </g>
    <g id="line2d_36">
     <path d="M 56.3 98.843437 
L 76.3 98.843437 
" style="fill:none;stroke:#9467bd;stroke-linecap:square;stroke-width:1.5;"/>
    </g>
    <g id="line2d_37"/>
    <g id="text_16">
     <!-- group_5 -->
     <g transform="translate(84.3 102.343437)scale(0.1 -0.1)">
      <use xlink:href="#DejaVuSans-103"/>
      <use x="63.476562" xlink:href="#DejaVuSans-114"/>
      <use x="102.339844" xlink:href="#DejaVuSans-111"/>
      <use x="163.521484" xlink:href="#DejaVuSans-117"/>
      <use x="226.900391" xlink:href="#DejaVuSans-112"/>
      <use x="290.376953" xlink:href="#DejaVuSans-95"/>
      <use x="340.376953" xlink:href="#DejaVuSans-53"/>
     </g>
    </g>
    <g id="line2d_38">
     <path d="M 56.3 113.799688 
L 76.3 113.799688 
" style="fill:none;stroke:#8c564b;stroke-linecap:square;stroke-width:1.5;"/>
    </g>
    <g id="line2d_39"/>
    <g id="text_17">
     <!-- benchmark -->
     <g transform="translate(84.3 117.299688)scale(0.1 -0.1)">
      <defs>
       <path d="M 48.6875 27.296875 
Q 48.6875 37.203125 44.609375 42.84375 
Q 40.53125 48.484375 33.40625 48.484375 
Q 26.265625 48.484375 22.1875 42.84375 
Q 18.109375 37.203125 18.109375 27.296875 
Q 18.109375 17.390625 22.1875 11.75 
Q 26.265625 6.109375 33.40625 6.109375 
Q 40.53125 6.109375 44.609375 11.75 
Q 48.6875 17.390625 48.6875 27.296875 
z
M 18.109375 46.390625 
Q 20.953125 51.265625 25.265625 53.625 
Q 29.59375 56 35.59375 56 
Q 45.5625 56 51.78125 48.09375 
Q 58.015625 40.1875 58.015625 27.296875 
Q 58.015625 14.40625 51.78125 6.484375 
Q 45.5625 -1.421875 35.59375 -1.421875 
Q 29.59375 -1.421875 25.265625 0.953125 
Q 20.953125 3.328125 18.109375 8.203125 
L 18.109375 0 
L 9.078125 0 
L 9.078125 75.984375 
L 18.109375 75.984375 
z
" id="DejaVuSans-98"/>
       <path d="M 48.78125 52.59375 
L 48.78125 44.1875 
Q 44.96875 46.296875 41.140625 47.34375 
Q 37.3125 48.390625 33.40625 48.390625 
Q 24.65625 48.390625 19.8125 42.84375 
Q 14.984375 37.3125 14.984375 27.296875 
Q 14.984375 17.28125 19.8125 11.734375 
Q 24.65625 6.203125 33.40625 6.203125 
Q 37.3125 6.203125 41.140625 7.25 
Q 44.96875 8.296875 48.78125 10.40625 
L 48.78125 2.09375 
Q 45.015625 0.34375 40.984375 -0.53125 
Q 36.96875 -1.421875 32.421875 -1.421875 
Q 20.0625 -1.421875 12.78125 6.34375 
Q 5.515625 14.109375 5.515625 27.296875 
Q 5.515625 40.671875 12.859375 48.328125 
Q 20.21875 56 33.015625 56 
Q 37.15625 56 41.109375 55.140625 
Q 45.0625 54.296875 48.78125 52.59375 
z
" id="DejaVuSans-99"/>
       <path d="M 54.890625 33.015625 
L 54.890625 0 
L 45.90625 0 
L 45.90625 32.71875 
Q 45.90625 40.484375 42.875 44.328125 
Q 39.84375 48.1875 33.796875 48.1875 
Q 26.515625 48.1875 22.3125 43.546875 
Q 18.109375 38.921875 18.109375 30.90625 
L 18.109375 0 
L 9.078125 0 
L 9.078125 75.984375 
L 18.109375 75.984375 
L 18.109375 46.1875 
Q 21.34375 51.125 25.703125 53.5625 
Q 30.078125 56 35.796875 56 
Q 45.21875 56 50.046875 50.171875 
Q 54.890625 44.34375 54.890625 33.015625 
z
" id="DejaVuSans-104"/>
       <path d="M 52 44.1875 
Q 55.375 50.25 60.0625 53.125 
Q 64.75 56 71.09375 56 
Q 79.640625 56 84.28125 50.015625 
Q 88.921875 44.046875 88.921875 33.015625 
L 88.921875 0 
L 79.890625 0 
L 79.890625 32.71875 
Q 79.890625 40.578125 77.09375 44.375 
Q 74.3125 48.1875 68.609375 48.1875 
Q 61.625 48.1875 57.5625 43.546875 
Q 53.515625 38.921875 53.515625 30.90625 
L 53.515625 0 
L 44.484375 0 
L 44.484375 32.71875 
Q 44.484375 40.625 41.703125 44.40625 
Q 38.921875 48.1875 33.109375 48.1875 
Q 26.21875 48.1875 22.15625 43.53125 
Q 18.109375 38.875 18.109375 30.90625 
L 18.109375 0 
L 9.078125 0 
L 9.078125 54.6875 
L 18.109375 54.6875 
L 18.109375 46.1875 
Q 21.1875 51.21875 25.484375 53.609375 
Q 29.78125 56 35.6875 56 
Q 41.65625 56 45.828125 52.96875 
Q 50 49.953125 52 44.1875 
z
" id="DejaVuSans-109"/>
       <path d="M 9.078125 75.984375 
L 18.109375 75.984375 
L 18.109375 31.109375 
L 44.921875 54.6875 
L 56.390625 54.6875 
L 27.390625 29.109375 
L 57.625 0 
L 45.90625 0 
L 18.109375 26.703125 
L 18.109375 0 
L 9.078125 0 
z
" id="DejaVuSans-107"/>
      </defs>
      <use xlink:href="#DejaVuSans-98"/>
      <use x="63.476562" xlink:href="#DejaVuSans-101"/>
      <use x="125" xlink:href="#DejaVuSans-110"/>
      <use x="188.378906" xlink:href="#DejaVuSans-99"/>
      <use x="243.359375" xlink:href="#DejaVuSans-104"/>
      <use x="306.738281" xlink:href="#DejaVuSans-109"/>
      <use x="404.150391" xlink:href="#DejaVuSans-97"/>
      <use x="465.429688" xlink:href="#DejaVuSans-114"/>
      <use x="506.542969" xlink:href="#DejaVuSans-107"/>
     </g>
    </g>
    <g id="line2d_40">
     <path d="M 56.3 128.477812 
L 76.3 128.477812 
" style="fill:none;stroke:#e377c2;stroke-linecap:square;stroke-width:1.5;"/>
    </g>
    <g id="line2d_41"/>
    <g id="text_18">
     <!-- long_excess -->
     <g transform="translate(84.3 131.977812)scale(0.1 -0.1)">
      <defs>
       <path d="M 54.890625 54.6875 
L 35.109375 28.078125 
L 55.90625 0 
L 45.3125 0 
L 29.390625 21.484375 
L 13.484375 0 
L 2.875 0 
L 24.125 28.609375 
L 4.6875 54.6875 
L 15.28125 54.6875 
L 29.78125 35.203125 
L 44.28125 54.6875 
z
" id="DejaVuSans-120"/>
       <path d="M 44.28125 53.078125 
L 44.28125 44.578125 
Q 40.484375 46.53125 36.375 47.5 
Q 32.28125 48.484375 27.875 48.484375 
Q 21.1875 48.484375 17.84375 46.4375 
Q 14.5 44.390625 14.5 40.28125 
Q 14.5 37.15625 16.890625 35.375 
Q 19.28125 33.59375 26.515625 31.984375 
L 29.59375 31.296875 
Q 39.15625 29.25 43.1875 25.515625 
Q 47.21875 21.78125 47.21875 15.09375 
Q 47.21875 7.46875 41.1875 3.015625 
Q 35.15625 -1.421875 24.609375 -1.421875 
Q 20.21875 -1.421875 15.453125 -0.5625 
Q 10.6875 0.296875 5.421875 2 
L 5.421875 11.28125 
Q 10.40625 8.6875 15.234375 7.390625 
Q 20.0625 6.109375 24.8125 6.109375 
Q 31.15625 6.109375 34.5625 8.28125 
Q 37.984375 10.453125 37.984375 14.40625 
Q 37.984375 18.0625 35.515625 20.015625 
Q 33.0625 21.96875 24.703125 23.78125 
L 21.578125 24.515625 
Q 13.234375 26.265625 9.515625 29.90625 
Q 5.8125 33.546875 5.8125 39.890625 
Q 5.8125 47.609375 11.28125 51.796875 
Q 16.75 56 26.8125 56 
Q 31.78125 56 36.171875 55.265625 
Q 40.578125 54.546875 44.28125 53.078125 
z
" id="DejaVuSans-115"/>
      </defs>
      <use xlink:href="#DejaVuSans-108"/>
      <use x="27.783203" xlink:href="#DejaVuSans-111"/>
      <use x="88.964844" xlink:href="#DejaVuSans-110"/>
      <use x="152.34375" xlink:href="#DejaVuSans-103"/>
      <use x="215.820312" xlink:href="#DejaVuSans-95"/>
      <use x="265.820312" xlink:href="#DejaVuSans-101"/>
      <use x="325.59375" xlink:href="#DejaVuSans-120"/>
      <use x="383.023438" xlink:href="#DejaVuSans-99"/>
      <use x="438.003906" xlink:href="#DejaVuSans-101"/>
      <use x="499.527344" xlink:href="#DejaVuSans-115"/>
      <use x="551.626953" xlink:href="#DejaVuSans-115"/>
     </g>
    </g>
    <g id="line2d_42">
     <path d="M 56.3 143.434062 
L 76.3 143.434062 
" style="fill:none;stroke:#7f7f7f;stroke-linecap:square;stroke-width:1.5;"/>
    </g>
    <g id="line2d_43"/>
    <g id="text_19">
     <!-- short_excess -->
     <g transform="translate(84.3 146.934062)scale(0.1 -0.1)">
      <use xlink:href="#DejaVuSans-115"/>
      <use x="52.099609" xlink:href="#DejaVuSans-104"/>
      <use x="115.478516" xlink:href="#DejaVuSans-111"/>
      <use x="176.660156" xlink:href="#DejaVuSans-114"/>
      <use x="217.773438" xlink:href="#DejaVuSans-116"/>
      <use x="256.982422" xlink:href="#DejaVuSans-95"/>
      <use x="306.982422" xlink:href="#DejaVuSans-101"/>
      <use x="366.755859" xlink:href="#DejaVuSans-120"/>
      <use x="424.185547" xlink:href="#DejaVuSans-99"/>
      <use x="479.166016" xlink:href="#DejaVuSans-101"/>
      <use x="540.689453" xlink:href="#DejaVuSans-115"/>
      <use x="592.789062" xlink:href="#DejaVuSans-115"/>
     </g>
    </g>
    <g id="line2d_44">
     <path d="M 56.3 158.390312 
L 76.3 158.390312 
" style="fill:none;stroke:#bcbd22;stroke-linecap:square;stroke-width:1.5;"/>
    </g>
    <g id="line2d_45"/>
    <g id="text_20">
     <!-- long_short -->
     <g transform="translate(84.3 161.890312)scale(0.1 -0.1)">
      <use xlink:href="#DejaVuSans-108"/>
      <use x="27.783203" xlink:href="#DejaVuSans-111"/>
      <use x="88.964844" xlink:href="#DejaVuSans-110"/>
      <use x="152.34375" xlink:href="#DejaVuSans-103"/>
      <use x="215.820312" xlink:href="#DejaVuSans-95"/>
      <use x="265.820312" xlink:href="#DejaVuSans-115"/>
      <use x="317.919922" xlink:href="#DejaVuSans-104"/>
      <use x="381.298828" xlink:href="#DejaVuSans-111"/>
      <use x="442.480469" xlink:href="#DejaVuSans-114"/>
      <use x="483.59375" xlink:href="#DejaVuSans-116"/>
     </g>
    </g>
   </g>
  </g>
 </g>
 <defs>
  <clipPath id="p13b54f9cec">
   <rect height="305.24" width="1093.9" x="47.3" y="25.92"/>
  </clipPath>
 </defs>
</svg>
