<?xml version="1.0" encoding="utf-8" standalone="no"?>
<!DOCTYPE svg PUBLIC "-//W3C//DTD SVG 1.1//EN"
  "http://www.w3.org/Graphics/SVG/1.1/DTD/svg11.dtd">
<!-- Created with matplotlib (https://matplotlib.org/) -->
<svg height="468pt" version="1.1" viewBox="0 0 1152 468" width="1152pt" xmlns="http://www.w3.org/2000/svg" xmlns:xlink="http://www.w3.org/1999/xlink">
 <metadata>
  <rdf:RDF xmlns:cc="http://creativecommons.org/ns#" xmlns:dc="http://purl.org/dc/elements/1.1/" xmlns:rdf="http://www.w3.org/1999/02/22-rdf-syntax-ns#">
   <cc:Work>
    <dc:type rdf:resource="http://purl.org/dc/dcmitype/StillImage"/>
    <dc:date>2023-10-11T16:35:54.022163</dc:date>
    <dc:format>image/svg+xml</dc:format>
    <dc:creator>
     <cc:Agent>
      <dc:title>Matplotlib v3.3.4, https://matplotlib.org/</dc:title>
     </cc:Agent>
    </dc:creator>
   </cc:Work>
  </rdf:RDF>
 </metadata>
 <defs>
  <style type="text/css">*{stroke-linecap:butt;stroke-linejoin:round;}</style>
 </defs>
 <g id="figure_1">
  <g id="patch_1">
   <path d="M 0 468 
L 1152 468 
L 1152 0 
L 0 0 
z
" style="fill:#ffffff;"/>
  </g>
  <g id="axes_1">
   <g id="patch_2">
    <path d="M 50.9 424.76 
L 1110.58 424.76 
L 1110.58 25.92 
L 50.9 25.92 
z
" style="fill:#ffffff;"/>
   </g>
   <g id="patch_3">
    <path clip-path="url(#p60154449a1)" d="M 119.784379 193.454625 
L 102.520124 193.454625 
L 102.520124 288.539963 
L 119.784379 288.539963 
z
" style="fill:#1f77b4;"/>
   </g>
   <g id="patch_4">
    <path clip-path="url(#p60154449a1)" d="M 143.954337 193.454625 
L 126.690081 193.454625 
L 126.690081 44.049091 
L 143.954337 44.049091 
z
" style="fill:#1f77b4;"/>
   </g>
   <g id="patch_5">
    <path clip-path="url(#p60154449a1)" d="M 168.124295 193.454625 
L 150.860039 193.454625 
L 150.860039 250.648887 
L 168.124295 250.648887 
z
" style="fill:#1f77b4;"/>
   </g>
   <g id="patch_6">
    <path clip-path="url(#p60154449a1)" d="M 192.294252 193.454625 
L 175.029997 193.454625 
L 175.029997 225.721671 
L 192.294252 225.721671 
z
" style="fill:#1f77b4;"/>
   </g>
   <g id="patch_7">
    <path clip-path="url(#p60154449a1)" d="M 216.46421 193.454625 
L 199.199954 193.454625 
L 199.199954 98.958039 
L 216.46421 98.958039 
z
" style="fill:#1f77b4;"/>
   </g>
   <g id="patch_8">
    <path clip-path="url(#p60154449a1)" d="M 240.634167 193.454625 
L 223.369912 193.454625 
L 223.369912 159.856567 
L 240.634167 159.856567 
z
" style="fill:#1f77b4;"/>
   </g>
   <g id="patch_9">
    <path clip-path="url(#p60154449a1)" d="M 264.804125 193.454625 
L 247.53987 193.454625 
L 247.53987 203.251875 
L 264.804125 203.251875 
z
" style="fill:#1f77b4;"/>
   </g>
   <g id="patch_10">
    <path clip-path="url(#p60154449a1)" d="M 288.974083 193.454625 
L 271.709827 193.454625 
L 271.709827 249.558761 
L 288.974083 249.558761 
z
" style="fill:#1f77b4;"/>
   </g>
   <g id="patch_11">
    <path clip-path="url(#p60154449a1)" d="M 313.14404 193.454625 
L 295.879785 193.454625 
L 295.879785 232.926991 
L 313.14404 232.926991 
z
" style="fill:#1f77b4;"/>
   </g>
   <g id="patch_12">
    <path clip-path="url(#p60154449a1)" d="M 337.313998 193.454625 
L 320.049743 193.454625 
L 320.049743 268.880802 
L 337.313998 268.880802 
z
" style="fill:#1f77b4;"/>
   </g>
   <g id="patch_13">
    <path clip-path="url(#p60154449a1)" d="M 361.483956 193.454625 
L 344.2197 193.454625 
L 344.2197 131.571086 
L 361.483956 131.571086 
z
" style="fill:#1f77b4;"/>
   </g>
   <g id="patch_14">
    <path clip-path="url(#p60154449a1)" d="M 385.653913 193.454625 
L 368.389658 193.454625 
L 368.389658 196.739254 
L 385.653913 196.739254 
z
" style="fill:#1f77b4;"/>
   </g>
   <g id="patch_15">
    <path clip-path="url(#p60154449a1)" d="M 409.823871 193.454625 
L 392.559616 193.454625 
L 392.559616 190.241466 
L 409.823871 190.241466 
z
" style="fill:#1f77b4;"/>
   </g>
   <g id="patch_16">
    <path clip-path="url(#p60154449a1)" d="M 433.993829 193.454625 
L 416.729573 193.454625 
L 416.729573 257.503605 
L 433.993829 257.503605 
z
" style="fill:#1f77b4;"/>
   </g>
   <g id="patch_17">
    <path clip-path="url(#p60154449a1)" d="M 458.163786 193.454625 
L 440.899531 193.454625 
L 440.899531 141.718755 
L 458.163786 141.718755 
z
" style="fill:#1f77b4;"/>
   </g>
   <g id="patch_18">
    <path clip-path="url(#p60154449a1)" d="M 482.333744 193.454625 
L 465.069488 193.454625 
L 465.069488 185.189682 
L 482.333744 185.189682 
z
" style="fill:#1f77b4;"/>
   </g>
   <g id="patch_19">
    <path clip-path="url(#p60154449a1)" d="M 506.503702 193.454625 
L 489.239446 193.454625 
L 489.239446 277.242711 
L 506.503702 277.242711 
z
" style="fill:#1f77b4;"/>
   </g>
   <g id="patch_20">
    <path clip-path="url(#p60154449a1)" d="M 530.673659 193.454625 
L 513.409404 193.454625 
L 513.409404 193.882799 
L 530.673659 193.882799 
z
" style="fill:#1f77b4;"/>
   </g>
   <g id="patch_21">
    <path clip-path="url(#p60154449a1)" d="M 554.843617 193.454625 
L 537.579361 193.454625 
L 537.579361 334.475645 
L 554.843617 334.475645 
z
" style="fill:#1f77b4;"/>
   </g>
   <g id="patch_22">
    <path clip-path="url(#p60154449a1)" d="M 579.013574 193.454625 
L 561.749319 193.454625 
L 561.749319 245.276437 
L 579.013574 245.276437 
z
" style="fill:#1f77b4;"/>
   </g>
   <g id="patch_23">
    <path clip-path="url(#p60154449a1)" d="M 603.183532 193.454625 
L 585.919277 193.454625 
L 585.919277 272.252047 
L 603.183532 272.252047 
z
" style="fill:#1f77b4;"/>
   </g>
   <g id="patch_24">
    <path clip-path="url(#p60154449a1)" d="M 627.35349 193.454625 
L 610.089234 193.454625 
L 610.089234 138.016701 
L 627.35349 138.016701 
z
" style="fill:#1f77b4;"/>
   </g>
   <g id="patch_25">
    <path clip-path="url(#p60154449a1)" d="M 651.523447 193.454625 
L 634.259192 193.454625 
L 634.259192 213.012687 
L 651.523447 213.012687 
z
" style="fill:#1f77b4;"/>
   </g>
   <g id="patch_26">
    <path clip-path="url(#p60154449a1)" d="M 675.693405 193.454625 
L 658.42915 193.454625 
L 658.42915 275.485424 
L 675.693405 275.485424 
z
" style="fill:#1f77b4;"/>
   </g>
   <g id="patch_27">
    <path clip-path="url(#p60154449a1)" d="M 699.863363 193.454625 
L 682.599107 193.454625 
L 682.599107 213.396764 
L 699.863363 213.396764 
z
" style="fill:#1f77b4;"/>
   </g>
   <g id="patch_28">
    <path clip-path="url(#p60154449a1)" d="M 724.03332 193.454625 
L 706.769065 193.454625 
L 706.769065 161.622826 
L 724.03332 161.622826 
z
" style="fill:#1f77b4;"/>
   </g>
   <g id="patch_29">
    <path clip-path="url(#p60154449a1)" d="M 748.203278 193.454625 
L 730.939022 193.454625 
L 730.939022 221.468299 
L 748.203278 221.468299 
z
" style="fill:#1f77b4;"/>
   </g>
   <g id="patch_30">
    <path clip-path="url(#p60154449a1)" d="M 772.373236 193.454625 
L 755.10898 193.454625 
L 755.10898 320.540956 
L 772.373236 320.540956 
z
" style="fill:#1f77b4;"/>
   </g>
   <g id="patch_31">
    <path clip-path="url(#p60154449a1)" d="M 796.543193 193.454625 
L 779.278938 193.454625 
L 779.278938 266.00594 
L 796.543193 266.00594 
z
" style="fill:#1f77b4;"/>
   </g>
   <g id="patch_32">
    <path clip-path="url(#p60154449a1)" d="M 820.713151 193.454625 
L 803.448895 193.454625 
L 803.448895 83.974827 
L 820.713151 83.974827 
z
" style="fill:#1f77b4;"/>
   </g>
   <g id="patch_33">
    <path clip-path="url(#p60154449a1)" d="M 844.883109 193.454625 
L 827.618853 193.454625 
L 827.618853 318.325725 
L 844.883109 318.325725 
z
" style="fill:#1f77b4;"/>
   </g>
   <g id="patch_34">
    <path clip-path="url(#p60154449a1)" d="M 869.053066 193.454625 
L 851.788811 193.454625 
L 851.788811 181.852762 
L 869.053066 181.852762 
z
" style="fill:#1f77b4;"/>
   </g>
   <g id="patch_35">
    <path clip-path="url(#p60154449a1)" d="M 893.223024 193.454625 
L 875.958768 193.454625 
L 875.958768 406.630909 
L 893.223024 406.630909 
z
" style="fill:#1f77b4;"/>
   </g>
   <g id="patch_36">
    <path clip-path="url(#p60154449a1)" d="M 917.392981 193.454625 
L 900.128726 193.454625 
L 900.128726 47.649445 
L 917.392981 47.649445 
z
" style="fill:#1f77b4;"/>
   </g>
   <g id="patch_37">
    <path clip-path="url(#p60154449a1)" d="M 941.562939 193.454625 
L 924.298684 193.454625 
L 924.298684 88.401349 
L 941.562939 88.401349 
z
" style="fill:#1f77b4;"/>
   </g>
   <g id="patch_38">
    <path clip-path="url(#p60154449a1)" d="M 965.732897 193.454625 
L 948.468641 193.454625 
L 948.468641 148.836483 
L 965.732897 148.836483 
z
" style="fill:#1f77b4;"/>
   </g>
   <g id="patch_39">
    <path clip-path="url(#p60154449a1)" d="M 989.902854 193.454625 
L 972.638599 193.454625 
L 972.638599 254.327505 
L 989.902854 254.327505 
z
" style="fill:#1f77b4;"/>
   </g>
   <g id="patch_40">
    <path clip-path="url(#p60154449a1)" d="M 1014.072812 193.454625 
L 996.808557 193.454625 
L 996.808557 239.912095 
L 1014.072812 239.912095 
z
" style="fill:#1f77b4;"/>
   </g>
   <g id="patch_41">
    <path clip-path="url(#p60154449a1)" d="M 1038.24277 193.454625 
L 1020.978514 193.454625 
L 1020.978514 163.534911 
L 1038.24277 163.534911 
z
" style="fill:#1f77b4;"/>
   </g>
   <g id="patch_42">
    <path clip-path="url(#p60154449a1)" d="M 1062.412727 193.454625 
L 1045.148472 193.454625 
L 1045.148472 351.985 
L 1062.412727 351.985 
z
" style="fill:#1f77b4;"/>
   </g>
   <g id="matplotlib.axis_1">
    <g id="xtick_1">
     <g id="line2d_1">
      <path clip-path="url(#p60154449a1)" d="M 88.708719 424.76 
L 88.708719 25.92 
" style="fill:none;stroke:#b0b0b0;stroke-linecap:square;stroke-width:0.8;"/>
     </g>
     <g id="line2d_2">
      <defs>
       <path d="M 0 0 
L 0 3.5 
" id="mca08158db1" style="stroke:#000000;stroke-width:0.8;"/>
      </defs>
      <g>
       <use style="stroke:#000000;stroke-width:0.8;" x="88.708719" xlink:href="#mca08158db1" y="424.76"/>
      </g>
     </g>
     <g id="text_1">
      <!-- 2010 -->
      <g transform="translate(91.468094 457.21)rotate(-90)scale(0.1 -0.1)">
       <defs>
        <path d="M 19.1875 8.296875 
L 53.609375 8.296875 
L 53.609375 0 
L 7.328125 0 
L 7.328125 8.296875 
Q 12.9375 14.109375 22.625 23.890625 
Q 32.328125 33.6875 34.8125 36.53125 
Q 39.546875 41.84375 41.421875 45.53125 
Q 43.3125 49.21875 43.3125 52.78125 
Q 43.3125 58.59375 39.234375 62.25 
Q 35.15625 65.921875 28.609375 65.921875 
Q 23.96875 65.921875 18.8125 64.3125 
Q 13.671875 62.703125 7.8125 59.421875 
L 7.8125 69.390625 
Q 13.765625 71.78125 18.9375 73 
Q 24.125 74.21875 28.421875 74.21875 
Q 39.75 74.21875 46.484375 68.546875 
Q 53.21875 62.890625 53.21875 53.421875 
Q 53.21875 48.921875 51.53125 44.890625 
Q 49.859375 40.875 45.40625 35.40625 
Q 44.1875 33.984375 37.640625 27.21875 
Q 31.109375 20.453125 19.1875 8.296875 
z
" id="DejaVuSans-50"/>
        <path d="M 31.78125 66.40625 
Q 24.171875 66.40625 20.328125 58.90625 
Q 16.5 51.421875 16.5 36.375 
Q 16.5 21.390625 20.328125 13.890625 
Q 24.171875 6.390625 31.78125 6.390625 
Q 39.453125 6.390625 43.28125 13.890625 
Q 47.125 21.390625 47.125 36.375 
Q 47.125 51.421875 43.28125 58.90625 
Q 39.453125 66.40625 31.78125 66.40625 
z
M 31.78125 74.21875 
Q 44.046875 74.21875 50.515625 64.515625 
Q 56.984375 54.828125 56.984375 36.375 
Q 56.984375 17.96875 50.515625 8.265625 
Q 44.046875 -1.421875 31.78125 -1.421875 
Q 19.53125 -1.421875 13.0625 8.265625 
Q 6.59375 17.96875 6.59375 36.375 
Q 6.59375 54.828125 13.0625 64.515625 
Q 19.53125 74.21875 31.78125 74.21875 
z
" id="DejaVuSans-48"/>
        <path d="M 12.40625 8.296875 
L 28.515625 8.296875 
L 28.515625 63.921875 
L 10.984375 60.40625 
L 10.984375 69.390625 
L 28.421875 72.90625 
L 38.28125 72.90625 
L 38.28125 8.296875 
L 54.390625 8.296875 
L 54.390625 0 
L 12.40625 0 
z
" id="DejaVuSans-49"/>
       </defs>
       <use xlink:href="#DejaVuSans-50"/>
       <use x="63.623047" xlink:href="#DejaVuSans-48"/>
       <use x="127.246094" xlink:href="#DejaVuSans-49"/>
       <use x="190.869141" xlink:href="#DejaVuSans-48"/>
      </g>
     </g>
    </g>
   </g>
   <g id="matplotlib.axis_2">
    <g id="ytick_1">
     <g id="line2d_3">
      <path clip-path="url(#p60154449a1)" d="M 50.9 371.635724 
L 1110.58 371.635724 
" style="fill:none;stroke:#b0b0b0;stroke-linecap:square;stroke-width:0.8;"/>
     </g>
     <g id="line2d_4">
      <defs>
       <path d="M 0 0 
L -3.5 0 
" id="m2c7dd52c02" style="stroke:#000000;stroke-width:0.8;"/>
      </defs>
      <g>
       <use style="stroke:#000000;stroke-width:0.8;" x="50.9" xlink:href="#m2c7dd52c02" y="371.635724"/>
      </g>
     </g>
     <g id="text_2">
      <!-- -0.3 -->
      <g transform="translate(24.389062 375.434943)scale(0.1 -0.1)">
       <defs>
        <path d="M 4.890625 31.390625 
L 31.203125 31.390625 
L 31.203125 23.390625 
L 4.890625 23.390625 
z
" id="DejaVuSans-45"/>
        <path d="M 10.6875 12.40625 
L 21 12.40625 
L 21 0 
L 10.6875 0 
z
" id="DejaVuSans-46"/>
        <path d="M 40.578125 39.3125 
Q 47.65625 37.796875 51.625 33 
Q 55.609375 28.21875 55.609375 21.1875 
Q 55.609375 10.40625 48.1875 4.484375 
Q 40.765625 -1.421875 27.09375 -1.421875 
Q 22.515625 -1.421875 17.65625 -0.515625 
Q 12.796875 0.390625 7.625 2.203125 
L 7.625 11.71875 
Q 11.71875 9.328125 16.59375 8.109375 
Q 21.484375 6.890625 26.8125 6.890625 
Q 36.078125 6.890625 40.9375 10.546875 
Q 45.796875 14.203125 45.796875 21.1875 
Q 45.796875 27.640625 41.28125 31.265625 
Q 36.765625 34.90625 28.71875 34.90625 
L 20.21875 34.90625 
L 20.21875 43.015625 
L 29.109375 43.015625 
Q 36.375 43.015625 40.234375 45.921875 
Q 44.09375 48.828125 44.09375 54.296875 
Q 44.09375 59.90625 40.109375 62.90625 
Q 36.140625 65.921875 28.71875 65.921875 
Q 24.65625 65.921875 20.015625 65.03125 
Q 15.375 64.15625 9.8125 62.3125 
L 9.8125 71.09375 
Q 15.4375 72.65625 20.34375 73.4375 
Q 25.25 74.21875 29.59375 74.21875 
Q 40.828125 74.21875 47.359375 69.109375 
Q 53.90625 64.015625 53.90625 55.328125 
Q 53.90625 49.265625 50.4375 45.09375 
Q 46.96875 40.921875 40.578125 39.3125 
z
" id="DejaVuSans-51"/>
       </defs>
       <use xlink:href="#DejaVuSans-45"/>
       <use x="36.083984" xlink:href="#DejaVuSans-48"/>
       <use x="99.707031" xlink:href="#DejaVuSans-46"/>
       <use x="131.494141" xlink:href="#DejaVuSans-51"/>
      </g>
     </g>
    </g>
    <g id="ytick_2">
     <g id="line2d_5">
      <path clip-path="url(#p60154449a1)" d="M 50.9 312.242024 
L 1110.58 312.242024 
" style="fill:none;stroke:#b0b0b0;stroke-linecap:square;stroke-width:0.8;"/>
     </g>
     <g id="line2d_6">
      <g>
       <use style="stroke:#000000;stroke-width:0.8;" x="50.9" xlink:href="#m2c7dd52c02" y="312.242024"/>
      </g>
     </g>
     <g id="text_3">
      <!-- -0.2 -->
      <g transform="translate(24.389062 316.041243)scale(0.1 -0.1)">
       <use xlink:href="#DejaVuSans-45"/>
       <use x="36.083984" xlink:href="#DejaVuSans-48"/>
       <use x="99.707031" xlink:href="#DejaVuSans-46"/>
       <use x="131.494141" xlink:href="#DejaVuSans-50"/>
      </g>
     </g>
    </g>
    <g id="ytick_3">
     <g id="line2d_7">
      <path clip-path="url(#p60154449a1)" d="M 50.9 252.848325 
L 1110.58 252.848325 
" style="fill:none;stroke:#b0b0b0;stroke-linecap:square;stroke-width:0.8;"/>
     </g>
     <g id="line2d_8">
      <g>
       <use style="stroke:#000000;stroke-width:0.8;" x="50.9" xlink:href="#m2c7dd52c02" y="252.848325"/>
      </g>
     </g>
     <g id="text_4">
      <!-- -0.1 -->
      <g transform="translate(24.389062 256.647544)scale(0.1 -0.1)">
       <use xlink:href="#DejaVuSans-45"/>
       <use x="36.083984" xlink:href="#DejaVuSans-48"/>
       <use x="99.707031" xlink:href="#DejaVuSans-46"/>
       <use x="131.494141" xlink:href="#DejaVuSans-49"/>
      </g>
     </g>
    </g>
    <g id="ytick_4">
     <g id="line2d_9">
      <path clip-path="url(#p60154449a1)" d="M 50.9 193.454625 
L 1110.58 193.454625 
" style="fill:none;stroke:#b0b0b0;stroke-linecap:square;stroke-width:0.8;"/>
     </g>
     <g id="line2d_10">
      <g>
       <use style="stroke:#000000;stroke-width:0.8;" x="50.9" xlink:href="#m2c7dd52c02" y="193.454625"/>
      </g>
     </g>
     <g id="text_5">
      <!-- 0.0 -->
      <g transform="translate(27.996875 197.253844)scale(0.1 -0.1)">
       <use xlink:href="#DejaVuSans-48"/>
       <use x="63.623047" xlink:href="#DejaVuSans-46"/>
       <use x="95.410156" xlink:href="#DejaVuSans-48"/>
      </g>
     </g>
    </g>
    <g id="ytick_5">
     <g id="line2d_11">
      <path clip-path="url(#p60154449a1)" d="M 50.9 134.060925 
L 1110.58 134.060925 
" style="fill:none;stroke:#b0b0b0;stroke-linecap:square;stroke-width:0.8;"/>
     </g>
     <g id="line2d_12">
      <g>
       <use style="stroke:#000000;stroke-width:0.8;" x="50.9" xlink:href="#m2c7dd52c02" y="134.060925"/>
      </g>
     </g>
     <g id="text_6">
      <!-- 0.1 -->
      <g transform="translate(27.996875 137.860144)scale(0.1 -0.1)">
       <use xlink:href="#DejaVuSans-48"/>
       <use x="63.623047" xlink:href="#DejaVuSans-46"/>
       <use x="95.410156" xlink:href="#DejaVuSans-49"/>
      </g>
     </g>
    </g>
    <g id="ytick_6">
     <g id="line2d_13">
      <path clip-path="url(#p60154449a1)" d="M 50.9 74.667226 
L 1110.58 74.667226 
" style="fill:none;stroke:#b0b0b0;stroke-linecap:square;stroke-width:0.8;"/>
     </g>
     <g id="line2d_14">
      <g>
       <use style="stroke:#000000;stroke-width:0.8;" x="50.9" xlink:href="#m2c7dd52c02" y="74.667226"/>
      </g>
     </g>
     <g id="text_7">
      <!-- 0.2 -->
      <g transform="translate(27.996875 78.466444)scale(0.1 -0.1)">
       <use xlink:href="#DejaVuSans-48"/>
       <use x="63.623047" xlink:href="#DejaVuSans-46"/>
       <use x="95.410156" xlink:href="#DejaVuSans-50"/>
      </g>
     </g>
    </g>
    <g id="text_8">
     <!-- IC -->
     <g transform="translate(18.309375 230.306406)rotate(-90)scale(0.1 -0.1)">
      <defs>
       <path d="M 9.8125 72.90625 
L 19.671875 72.90625 
L 19.671875 0 
L 9.8125 0 
z
" id="DejaVuSans-73"/>
       <path d="M 64.40625 67.28125 
L 64.40625 56.890625 
Q 59.421875 61.53125 53.78125 63.8125 
Q 48.140625 66.109375 41.796875 66.109375 
Q 29.296875 66.109375 22.65625 58.46875 
Q 16.015625 50.828125 16.015625 36.375 
Q 16.015625 21.96875 22.65625 14.328125 
Q 29.296875 6.6875 41.796875 6.6875 
Q 48.140625 6.6875 53.78125 8.984375 
Q 59.421875 11.28125 64.40625 15.921875 
L 64.40625 5.609375 
Q 59.234375 2.09375 53.4375 0.328125 
Q 47.65625 -1.421875 41.21875 -1.421875 
Q 24.65625 -1.421875 15.125 8.703125 
Q 5.609375 18.84375 5.609375 36.375 
Q 5.609375 53.953125 15.125 64.078125 
Q 24.65625 74.21875 41.21875 74.21875 
Q 47.75 74.21875 53.53125 72.484375 
Q 59.328125 70.75 64.40625 67.28125 
z
" id="DejaVuSans-67"/>
      </defs>
      <use xlink:href="#DejaVuSans-73"/>
      <use x="29.492188" xlink:href="#DejaVuSans-67"/>
     </g>
    </g>
   </g>
   <g id="line2d_15">
    <path clip-path="url(#p60154449a1)" d="M 50.9 212.8912 
L 1110.58 212.8912 
" style="fill:none;stroke:#800080;stroke-dasharray:7.4,3.2;stroke-dashoffset:0;stroke-width:2;"/>
   </g>
   <g id="patch_43">
    <path d="M 50.9 424.76 
L 50.9 25.92 
" style="fill:none;stroke:#000000;stroke-linecap:square;stroke-linejoin:miter;stroke-width:0.8;"/>
   </g>
   <g id="patch_44">
    <path d="M 1110.58 424.76 
L 1110.58 25.92 
" style="fill:none;stroke:#000000;stroke-linecap:square;stroke-linejoin:miter;stroke-width:0.8;"/>
   </g>
   <g id="patch_45">
    <path d="M 50.9 424.76 
L 1110.58 424.76 
" style="fill:none;stroke:#000000;stroke-linecap:square;stroke-linejoin:miter;stroke-width:0.8;"/>
   </g>
   <g id="patch_46">
    <path d="M 50.9 25.92 
L 1110.58 25.92 
" style="fill:none;stroke:#000000;stroke-linecap:square;stroke-linejoin:miter;stroke-width:0.8;"/>
   </g>
   <g id="legend_1">
    <g id="patch_47">
     <path d="M 57.9 63.27625 
L 169.520312 63.27625 
Q 171.520312 63.27625 171.520312 61.27625 
L 171.520312 32.92 
Q 171.520312 30.92 169.520312 30.92 
L 57.9 30.92 
Q 55.9 30.92 55.9 32.92 
L 55.9 61.27625 
Q 55.9 63.27625 57.9 63.27625 
z
" style="fill:#ffffff;opacity:0.8;stroke:#cccccc;stroke-linejoin:miter;"/>
    </g>
    <g id="patch_48">
     <path d="M 59.9 42.518438 
L 79.9 42.518438 
L 79.9 35.518438 
L 59.9 35.518438 
z
" style="fill:#1f77b4;"/>
    </g>
    <g id="text_9">
     <!-- weekly IC mean -->
     <g transform="translate(87.9 42.518438)scale(0.1 -0.1)">
      <defs>
       <path d="M 4.203125 54.6875 
L 13.1875 54.6875 
L 24.421875 12.015625 
L 35.59375 54.6875 
L 46.1875 54.6875 
L 57.421875 12.015625 
L 68.609375 54.6875 
L 77.59375 54.6875 
L 63.28125 0 
L 52.6875 0 
L 40.921875 44.828125 
L 29.109375 0 
L 18.5 0 
z
" id="DejaVuSans-119"/>
       <path d="M 56.203125 29.59375 
L 56.203125 25.203125 
L 14.890625 25.203125 
Q 15.484375 15.921875 20.484375 11.0625 
Q 25.484375 6.203125 34.421875 6.203125 
Q 39.59375 6.203125 44.453125 7.46875 
Q 49.3125 8.734375 54.109375 11.28125 
L 54.109375 2.78125 
Q 49.265625 0.734375 44.1875 -0.34375 
Q 39.109375 -1.421875 33.890625 -1.421875 
Q 20.796875 -1.421875 13.15625 6.1875 
Q 5.515625 13.8125 5.515625 26.8125 
Q 5.515625 40.234375 12.765625 48.109375 
Q 20.015625 56 32.328125 56 
Q 43.359375 56 49.78125 48.890625 
Q 56.203125 41.796875 56.203125 29.59375 
z
M 47.21875 32.234375 
Q 47.125 39.59375 43.09375 43.984375 
Q 39.0625 48.390625 32.421875 48.390625 
Q 24.90625 48.390625 20.390625 44.140625 
Q 15.875 39.890625 15.1875 32.171875 
z
" id="DejaVuSans-101"/>
       <path d="M 9.078125 75.984375 
L 18.109375 75.984375 
L 18.109375 31.109375 
L 44.921875 54.6875 
L 56.390625 54.6875 
L 27.390625 29.109375 
L 57.625 0 
L 45.90625 0 
L 18.109375 26.703125 
L 18.109375 0 
L 9.078125 0 
z
" id="DejaVuSans-107"/>
       <path d="M 9.421875 75.984375 
L 18.40625 75.984375 
L 18.40625 0 
L 9.421875 0 
z
" id="DejaVuSans-108"/>
       <path d="M 32.171875 -5.078125 
Q 28.375 -14.84375 24.75 -17.8125 
Q 21.140625 -20.796875 15.09375 -20.796875 
L 7.90625 -20.796875 
L 7.90625 -13.28125 
L 13.1875 -13.28125 
Q 16.890625 -13.28125 18.9375 -11.515625 
Q 21 -9.765625 23.484375 -3.21875 
L 25.09375 0.875 
L 2.984375 54.6875 
L 12.5 54.6875 
L 29.59375 11.921875 
L 46.6875 54.6875 
L 56.203125 54.6875 
z
" id="DejaVuSans-121"/>
       <path id="DejaVuSans-32"/>
       <path d="M 52 44.1875 
Q 55.375 50.25 60.0625 53.125 
Q 64.75 56 71.09375 56 
Q 79.640625 56 84.28125 50.015625 
Q 88.921875 44.046875 88.921875 33.015625 
L 88.921875 0 
L 79.890625 0 
L 79.890625 32.71875 
Q 79.890625 40.578125 77.09375 44.375 
Q 74.3125 48.1875 68.609375 48.1875 
Q 61.625 48.1875 57.5625 43.546875 
Q 53.515625 38.921875 53.515625 30.90625 
L 53.515625 0 
L 44.484375 0 
L 44.484375 32.71875 
Q 44.484375 40.625 41.703125 44.40625 
Q 38.921875 48.1875 33.109375 48.1875 
Q 26.21875 48.1875 22.15625 43.53125 
Q 18.109375 38.875 18.109375 30.90625 
L 18.109375 0 
L 9.078125 0 
L 9.078125 54.6875 
L 18.109375 54.6875 
L 18.109375 46.1875 
Q 21.1875 51.21875 25.484375 53.609375 
Q 29.78125 56 35.6875 56 
Q 41.65625 56 45.828125 52.96875 
Q 50 49.953125 52 44.1875 
z
" id="DejaVuSans-109"/>
       <path d="M 34.28125 27.484375 
Q 23.390625 27.484375 19.1875 25 
Q 14.984375 22.515625 14.984375 16.5 
Q 14.984375 11.71875 18.140625 8.90625 
Q 21.296875 6.109375 26.703125 6.109375 
Q 34.1875 6.109375 38.703125 11.40625 
Q 43.21875 16.703125 43.21875 25.484375 
L 43.21875 27.484375 
z
M 52.203125 31.203125 
L 52.203125 0 
L 43.21875 0 
L 43.21875 8.296875 
Q 40.140625 3.328125 35.546875 0.953125 
Q 30.953125 -1.421875 24.3125 -1.421875 
Q 15.921875 -1.421875 10.953125 3.296875 
Q 6 8.015625 6 15.921875 
Q 6 25.140625 12.171875 29.828125 
Q 18.359375 34.515625 30.609375 34.515625 
L 43.21875 34.515625 
L 43.21875 35.40625 
Q 43.21875 41.609375 39.140625 45 
Q 35.0625 48.390625 27.6875 48.390625 
Q 23 48.390625 18.546875 47.265625 
Q 14.109375 46.140625 10.015625 43.890625 
L 10.015625 52.203125 
Q 14.9375 54.109375 19.578125 55.046875 
Q 24.21875 56 28.609375 56 
Q 40.484375 56 46.34375 49.84375 
Q 52.203125 43.703125 52.203125 31.203125 
z
" id="DejaVuSans-97"/>
       <path d="M 54.890625 33.015625 
L 54.890625 0 
L 45.90625 0 
L 45.90625 32.71875 
Q 45.90625 40.484375 42.875 44.328125 
Q 39.84375 48.1875 33.796875 48.1875 
Q 26.515625 48.1875 22.3125 43.546875 
Q 18.109375 38.921875 18.109375 30.90625 
L 18.109375 0 
L 9.078125 0 
L 9.078125 54.6875 
L 18.109375 54.6875 
L 18.109375 46.1875 
Q 21.34375 51.125 25.703125 53.5625 
Q 30.078125 56 35.796875 56 
Q 45.21875 56 50.046875 50.171875 
Q 54.890625 44.34375 54.890625 33.015625 
z
" id="DejaVuSans-110"/>
      </defs>
      <use xlink:href="#DejaVuSans-119"/>
      <use x="81.787109" xlink:href="#DejaVuSans-101"/>
      <use x="143.310547" xlink:href="#DejaVuSans-101"/>
      <use x="204.833984" xlink:href="#DejaVuSans-107"/>
      <use x="262.744141" xlink:href="#DejaVuSans-108"/>
      <use x="290.527344" xlink:href="#DejaVuSans-121"/>
      <use x="349.707031" xlink:href="#DejaVuSans-32"/>
      <use x="381.494141" xlink:href="#DejaVuSans-73"/>
      <use x="410.986328" xlink:href="#DejaVuSans-67"/>
      <use x="480.810547" xlink:href="#DejaVuSans-32"/>
      <use x="512.597656" xlink:href="#DejaVuSans-109"/>
      <use x="610.009766" xlink:href="#DejaVuSans-101"/>
      <use x="671.533203" xlink:href="#DejaVuSans-97"/>
      <use x="732.8125" xlink:href="#DejaVuSans-110"/>
     </g>
    </g>
    <g id="line2d_16">
     <path d="M 59.9 53.696563 
L 79.9 53.696563 
" style="fill:none;stroke:#800080;stroke-dasharray:7.4,3.2;stroke-dashoffset:0;stroke-width:2;"/>
    </g>
    <g id="line2d_17"/>
    <g id="text_10">
     <!-- IC mean -->
     <g transform="translate(87.9 57.196563)scale(0.1 -0.1)">
      <use xlink:href="#DejaVuSans-73"/>
      <use x="29.492188" xlink:href="#DejaVuSans-67"/>
      <use x="99.316406" xlink:href="#DejaVuSans-32"/>
      <use x="131.103516" xlink:href="#DejaVuSans-109"/>
      <use x="228.515625" xlink:href="#DejaVuSans-101"/>
      <use x="290.039062" xlink:href="#DejaVuSans-97"/>
      <use x="351.318359" xlink:href="#DejaVuSans-110"/>
     </g>
    </g>
   </g>
  </g>
  <g id="axes_2">
   <g id="matplotlib.axis_3">
    <g id="ytick_7">
     <g id="line2d_18">
      <defs>
       <path d="M 0 0 
L 3.5 0 
" id="me0b537503d" style="stroke:#000000;stroke-width:0.8;"/>
      </defs>
      <g>
       <use style="stroke:#000000;stroke-width:0.8;" x="1110.58" xlink:href="#me0b537503d" y="351.960771"/>
      </g>
     </g>
     <g id="text_11">
      <!-- -6 -->
      <g transform="translate(1117.58 355.75999)scale(0.1 -0.1)">
       <defs>
        <path d="M 33.015625 40.375 
Q 26.375 40.375 22.484375 35.828125 
Q 18.609375 31.296875 18.609375 23.390625 
Q 18.609375 15.53125 22.484375 10.953125 
Q 26.375 6.390625 33.015625 6.390625 
Q 39.65625 6.390625 43.53125 10.953125 
Q 47.40625 15.53125 47.40625 23.390625 
Q 47.40625 31.296875 43.53125 35.828125 
Q 39.65625 40.375 33.015625 40.375 
z
M 52.59375 71.296875 
L 52.59375 62.3125 
Q 48.875 64.0625 45.09375 64.984375 
Q 41.3125 65.921875 37.59375 65.921875 
Q 27.828125 65.921875 22.671875 59.328125 
Q 17.53125 52.734375 16.796875 39.40625 
Q 19.671875 43.65625 24.015625 45.921875 
Q 28.375 48.1875 33.59375 48.1875 
Q 44.578125 48.1875 50.953125 41.515625 
Q 57.328125 34.859375 57.328125 23.390625 
Q 57.328125 12.15625 50.6875 5.359375 
Q 44.046875 -1.421875 33.015625 -1.421875 
Q 20.359375 -1.421875 13.671875 8.265625 
Q 6.984375 17.96875 6.984375 36.375 
Q 6.984375 53.65625 15.1875 63.9375 
Q 23.390625 74.21875 37.203125 74.21875 
Q 40.921875 74.21875 44.703125 73.484375 
Q 48.484375 72.75 52.59375 71.296875 
z
" id="DejaVuSans-54"/>
       </defs>
       <use xlink:href="#DejaVuSans-45"/>
       <use x="36.083984" xlink:href="#DejaVuSans-54"/>
      </g>
     </g>
    </g>
    <g id="ytick_8">
     <g id="line2d_19">
      <g>
       <use style="stroke:#000000;stroke-width:0.8;" x="1110.58" xlink:href="#me0b537503d" y="266.563987"/>
      </g>
     </g>
     <g id="text_12">
      <!-- -4 -->
      <g transform="translate(1117.58 270.363206)scale(0.1 -0.1)">
       <defs>
        <path d="M 37.796875 64.3125 
L 12.890625 25.390625 
L 37.796875 25.390625 
z
M 35.203125 72.90625 
L 47.609375 72.90625 
L 47.609375 25.390625 
L 58.015625 25.390625 
L 58.015625 17.1875 
L 47.609375 17.1875 
L 47.609375 0 
L 37.796875 0 
L 37.796875 17.1875 
L 4.890625 17.1875 
L 4.890625 26.703125 
z
" id="DejaVuSans-52"/>
       </defs>
       <use xlink:href="#DejaVuSans-45"/>
       <use x="36.083984" xlink:href="#DejaVuSans-52"/>
      </g>
     </g>
    </g>
    <g id="ytick_9">
     <g id="line2d_20">
      <g>
       <use style="stroke:#000000;stroke-width:0.8;" x="1110.58" xlink:href="#me0b537503d" y="181.167203"/>
      </g>
     </g>
     <g id="text_13">
      <!-- -2 -->
      <g transform="translate(1117.58 184.966422)scale(0.1 -0.1)">
       <use xlink:href="#DejaVuSans-45"/>
       <use x="36.083984" xlink:href="#DejaVuSans-50"/>
      </g>
     </g>
    </g>
    <g id="ytick_10">
     <g id="line2d_21">
      <g>
       <use style="stroke:#000000;stroke-width:0.8;" x="1110.58" xlink:href="#me0b537503d" y="95.77042"/>
      </g>
     </g>
     <g id="text_14">
      <!-- 0 -->
      <g transform="translate(1117.58 99.569638)scale(0.1 -0.1)">
       <use xlink:href="#DejaVuSans-48"/>
      </g>
     </g>
    </g>
    <g id="text_15">
     <!-- IC cumsum -->
     <g transform="translate(1139.14875 253.3275)rotate(-90)scale(0.1 -0.1)">
      <defs>
       <path d="M 48.78125 52.59375 
L 48.78125 44.1875 
Q 44.96875 46.296875 41.140625 47.34375 
Q 37.3125 48.390625 33.40625 48.390625 
Q 24.65625 48.390625 19.8125 42.84375 
Q 14.984375 37.3125 14.984375 27.296875 
Q 14.984375 17.28125 19.8125 11.734375 
Q 24.65625 6.203125 33.40625 6.203125 
Q 37.3125 6.203125 41.140625 7.25 
Q 44.96875 8.296875 48.78125 10.40625 
L 48.78125 2.09375 
Q 45.015625 0.34375 40.984375 -0.53125 
Q 36.96875 -1.421875 32.421875 -1.421875 
Q 20.0625 -1.421875 12.78125 6.34375 
Q 5.515625 14.109375 5.515625 27.296875 
Q 5.515625 40.671875 12.859375 48.328125 
Q 20.21875 56 33.015625 56 
Q 37.15625 56 41.109375 55.140625 
Q 45.0625 54.296875 48.78125 52.59375 
z
" id="DejaVuSans-99"/>
       <path d="M 8.5 21.578125 
L 8.5 54.6875 
L 17.484375 54.6875 
L 17.484375 21.921875 
Q 17.484375 14.15625 20.5 10.265625 
Q 23.53125 6.390625 29.59375 6.390625 
Q 36.859375 6.390625 41.078125 11.03125 
Q 45.3125 15.671875 45.3125 23.6875 
L 45.3125 54.6875 
L 54.296875 54.6875 
L 54.296875 0 
L 45.3125 0 
L 45.3125 8.40625 
Q 42.046875 3.421875 37.71875 1 
Q 33.40625 -1.421875 27.6875 -1.421875 
Q 18.265625 -1.421875 13.375 4.4375 
Q 8.5 10.296875 8.5 21.578125 
z
M 31.109375 56 
z
" id="DejaVuSans-117"/>
       <path d="M 44.28125 53.078125 
L 44.28125 44.578125 
Q 40.484375 46.53125 36.375 47.5 
Q 32.28125 48.484375 27.875 48.484375 
Q 21.1875 48.484375 17.84375 46.4375 
Q 14.5 44.390625 14.5 40.28125 
Q 14.5 37.15625 16.890625 35.375 
Q 19.28125 33.59375 26.515625 31.984375 
L 29.59375 31.296875 
Q 39.15625 29.25 43.1875 25.515625 
Q 47.21875 21.78125 47.21875 15.09375 
Q 47.21875 7.46875 41.1875 3.015625 
Q 35.15625 -1.421875 24.609375 -1.421875 
Q 20.21875 -1.421875 15.453125 -0.5625 
Q 10.6875 0.296875 5.421875 2 
L 5.421875 11.28125 
Q 10.40625 8.6875 15.234375 7.390625 
Q 20.0625 6.109375 24.8125 6.109375 
Q 31.15625 6.109375 34.5625 8.28125 
Q 37.984375 10.453125 37.984375 14.40625 
Q 37.984375 18.0625 35.515625 20.015625 
Q 33.0625 21.96875 24.703125 23.78125 
L 21.578125 24.515625 
Q 13.234375 26.265625 9.515625 29.90625 
Q 5.8125 33.546875 5.8125 39.890625 
Q 5.8125 47.609375 11.28125 51.796875 
Q 16.75 56 26.8125 56 
Q 31.78125 56 36.171875 55.265625 
Q 40.578125 54.546875 44.28125 53.078125 
z
" id="DejaVuSans-115"/>
      </defs>
      <use xlink:href="#DejaVuSans-73"/>
      <use x="29.492188" xlink:href="#DejaVuSans-67"/>
      <use x="99.316406" xlink:href="#DejaVuSans-32"/>
      <use x="131.103516" xlink:href="#DejaVuSans-99"/>
      <use x="186.083984" xlink:href="#DejaVuSans-117"/>
      <use x="249.462891" xlink:href="#DejaVuSans-109"/>
      <use x="346.875" xlink:href="#DejaVuSans-115"/>
      <use x="398.974609" xlink:href="#DejaVuSans-117"/>
      <use x="462.353516" xlink:href="#DejaVuSans-109"/>
     </g>
    </g>
   </g>
   <g id="line2d_22">
    <path clip-path="url(#p60154449a1)" d="M 99.067273 80.412499 
L 105.972975 124.019792 
L 109.425826 129.198085 
L 112.878677 129.949053 
L 123.23723 135.482076 
L 126.690081 125.532777 
L 130.142933 110.180185 
L 137.048635 76.244906 
L 147.407188 75.29697 
L 150.860039 94.801196 
L 154.31289 97.894445 
L 157.765741 95.370127 
L 161.218592 96.803509 
L 171.577146 117.895311 
L 175.029997 125.692131 
L 178.482848 119.761327 
L 181.935699 127.78828 
L 185.38855 108.401969 
L 195.747103 105.394381 
L 199.199954 83.722209 
L 202.652805 101.921758 
L 206.105657 74.089679 
L 209.558508 74.434964 
L 219.917061 69.976062 
L 223.369912 77.721597 
L 226.822763 78.37593 
L 230.275614 58.689116 
L 233.728465 62.358068 
L 244.087019 51.090892 
L 247.53987 44.049091 
L 250.992721 52.765498 
L 254.445572 44.718907 
L 257.898423 65.879711 
L 268.256976 75.858127 
L 271.709827 77.404663 
L 275.162678 91.401124 
L 278.615529 97.455723 
L 282.068381 86.046466 
L 292.426934 86.595064 
L 295.879785 66.09391 
L 299.332636 93.848958 
L 302.785487 100.53304 
L 306.238338 100.234894 
L 316.596891 117.333075 
L 320.049743 126.170115 
L 323.502594 123.775383 
L 326.955445 135.613805 
L 330.408296 127.347 
L 340.766849 128.114231 
L 344.2197 111.44071 
L 347.672551 118.3318 
L 351.125402 121.271216 
L 354.578254 105.102825 
L 364.936807 107.016961 
L 368.389658 103.886535 
L 371.842509 110.58731 
L 375.29536 117.805855 
L 378.748211 106.283493 
L 389.106764 99.957567 
L 392.559616 94.736213 
L 396.012467 110.015885 
L 399.465318 89.924599 
L 402.918169 105.128515 
L 413.276722 122.292107 
L 416.729573 107.429297 
L 420.182424 101.499237 
L 423.635275 110.918581 
L 427.088126 128.151062 
L 437.44668 139.107349 
L 440.899531 151.526396 
L 444.352382 146.307494 
L 447.805233 121.20817 
L 451.258084 109.55449 
L 461.616637 107.197946 
L 465.069488 113.491067 
L 468.52234 94.080888 
L 471.975191 83.534694 
L 475.428042 106.583638 
L 485.786595 96.365483 
L 489.239446 122.981839 
L 492.692297 120.528294 
L 496.145148 126.169752 
L 499.597999 136.70145 
L 509.956553 164.868288 
L 513.409404 163.735059 
L 516.862255 150.306548 
L 520.315106 151.880962 
L 523.767957 136.855358 
L 534.12651 135.820838 
L 537.579361 125.191502 
L 541.032212 151.685342 
L 544.485064 176.803589 
L 547.937915 187.545673 
L 558.296468 193.233185 
L 561.749319 194.982857 
L 565.20217 180.892468 
L 568.655021 192.157953 
L 572.107872 206.173137 
L 582.466426 194.141934 
L 585.919277 195.385268 
L 589.372128 206.233792 
L 592.824979 202.842663 
L 596.27783 234.497044 
L 606.636383 248.786397 
L 610.089234 250.864242 
L 613.542085 231.839409 
L 616.994936 215.100822 
L 620.447788 214.56976 
L 630.806341 230.500559 
L 634.259192 222.244116 
L 637.712043 220.530035 
L 641.164894 205.171271 
L 644.617745 221.599948 
L 658.42915 223.898597 
L 661.882001 237.512147 
L 665.334852 249.14989 
L 668.787703 251.0861 
L 679.146256 267.393511 
L 682.599107 269.802225 
L 686.051958 267.092295 
L 689.504809 260.479945 
L 692.95766 258.254345 
L 703.316214 250.400797 
L 706.769065 268.34121 
L 710.221916 262.651121 
L 713.674767 246.525554 
L 717.127618 246.812335 
L 727.486171 257.566754 
L 730.939022 259.220504 
L 734.391874 229.584125 
L 737.844725 244.361851 
L 741.297576 256.881912 
L 751.656129 276.739825 
L 755.10898 270.210076 
L 758.561831 248.476424 
L 762.014682 280.477128 
L 765.467533 302.563373 
L 775.826087 280.903139 
L 779.278938 309.258865 
L 782.731789 325.172891 
L 786.18464 333.953627 
L 789.637491 328.642103 
L 799.996044 318.444194 
L 803.448895 309.933171 
L 806.901746 289.687272 
L 810.354598 274.624853 
L 813.807449 289.289349 
L 824.166002 307.269782 
L 827.618853 313.010112 
L 831.071704 339.159979 
L 834.524555 347.253754 
L 837.977406 334.17454 
L 848.33596 336.174963 
L 851.788811 351.171976 
L 855.241662 339.585228 
L 858.694513 323.677728 
L 862.147364 330.004225 
L 872.505917 326.068965 
L 875.958768 360.322752 
L 879.411619 381.124236 
L 882.864471 389.329367 
L 886.317322 406.630909 
L 896.675875 389.176838 
L 900.128726 373.910081 
L 903.581577 364.885347 
L 907.034428 382.602748 
L 910.487279 354.220917 
L 920.845833 354.27678 
L 924.298684 354.682222 
L 927.751535 347.232223 
L 931.204386 329.89895 
L 934.657237 316.459285 
L 945.01579 315.069265 
L 948.468641 302.970388 
L 951.921492 277.963852 
L 955.374343 279.019672 
L 958.827195 300.421196 
L 969.185748 302.079394 
L 972.638599 306.409608 
L 976.09145 309.761018 
L 979.544301 305.423935 
L 982.997152 322.302087 
L 993.355705 317.600574 
L 996.808557 328.27658 
L 1000.261408 320.603923 
L 1003.714259 302.947576 
L 1007.16711 339.001326 
L 1017.525663 328.470762 
L 1020.978514 343.095547 
L 1024.431365 331.257268 
L 1027.884216 347.160356 
L 1031.337067 328.246619 
L 1041.695621 331.863429 
L 1045.148472 330.295551 
L 1048.601323 350.217207 
L 1052.054174 373.833893 
L 1052.054174 373.833893 
" style="fill:none;stroke:#ff0000;stroke-linecap:square;stroke-width:1.5;"/>
   </g>
   <g id="patch_49">
    <path d="M 50.9 424.76 
L 50.9 25.92 
" style="fill:none;stroke:#000000;stroke-linecap:square;stroke-linejoin:miter;stroke-width:0.8;"/>
   </g>
   <g id="patch_50">
    <path d="M 1110.58 424.76 
L 1110.58 25.92 
" style="fill:none;stroke:#000000;stroke-linecap:square;stroke-linejoin:miter;stroke-width:0.8;"/>
   </g>
   <g id="patch_51">
    <path d="M 50.9 424.76 
L 1110.58 424.76 
" style="fill:none;stroke:#000000;stroke-linecap:square;stroke-linejoin:miter;stroke-width:0.8;"/>
   </g>
   <g id="patch_52">
    <path d="M 50.9 25.92 
L 1110.58 25.92 
" style="fill:none;stroke:#000000;stroke-linecap:square;stroke-linejoin:miter;stroke-width:0.8;"/>
   </g>
   <g id="legend_2">
    <g id="patch_53">
     <path d="M 988.475312 48.598125 
L 1103.58 48.598125 
Q 1105.58 48.598125 1105.58 46.598125 
L 1105.58 32.92 
Q 1105.58 30.92 1103.58 30.92 
L 988.475312 30.92 
Q 986.475312 30.92 986.475312 32.92 
L 986.475312 46.598125 
Q 986.475312 48.598125 988.475312 48.598125 
z
" style="fill:#ffffff;opacity:0.8;stroke:#cccccc;stroke-linejoin:miter;"/>
    </g>
    <g id="line2d_23">
     <path d="M 990.475312 39.018438 
L 1010.475312 39.018438 
" style="fill:none;stroke:#ff0000;stroke-linecap:square;stroke-width:1.5;"/>
    </g>
    <g id="line2d_24"/>
    <g id="text_16">
     <!-- daily IC cumsum -->
     <g transform="translate(1018.475312 42.518438)scale(0.1 -0.1)">
      <defs>
       <path d="M 45.40625 46.390625 
L 45.40625 75.984375 
L 54.390625 75.984375 
L 54.390625 0 
L 45.40625 0 
L 45.40625 8.203125 
Q 42.578125 3.328125 38.25 0.953125 
Q 33.9375 -1.421875 27.875 -1.421875 
Q 17.96875 -1.421875 11.734375 6.484375 
Q 5.515625 14.40625 5.515625 27.296875 
Q 5.515625 40.1875 11.734375 48.09375 
Q 17.96875 56 27.875 56 
Q 33.9375 56 38.25 53.625 
Q 42.578125 51.265625 45.40625 46.390625 
z
M 14.796875 27.296875 
Q 14.796875 17.390625 18.875 11.75 
Q 22.953125 6.109375 30.078125 6.109375 
Q 37.203125 6.109375 41.296875 11.75 
Q 45.40625 17.390625 45.40625 27.296875 
Q 45.40625 37.203125 41.296875 42.84375 
Q 37.203125 48.484375 30.078125 48.484375 
Q 22.953125 48.484375 18.875 42.84375 
Q 14.796875 37.203125 14.796875 27.296875 
z
" id="DejaVuSans-100"/>
       <path d="M 9.421875 54.6875 
L 18.40625 54.6875 
L 18.40625 0 
L 9.421875 0 
z
M 9.421875 75.984375 
L 18.40625 75.984375 
L 18.40625 64.59375 
L 9.421875 64.59375 
z
" id="DejaVuSans-105"/>
      </defs>
      <use xlink:href="#DejaVuSans-100"/>
      <use x="63.476562" xlink:href="#DejaVuSans-97"/>
      <use x="124.755859" xlink:href="#DejaVuSans-105"/>
      <use x="152.539062" xlink:href="#DejaVuSans-108"/>
      <use x="180.322266" xlink:href="#DejaVuSans-121"/>
      <use x="239.501953" xlink:href="#DejaVuSans-32"/>
      <use x="271.289062" xlink:href="#DejaVuSans-73"/>
      <use x="300.78125" xlink:href="#DejaVuSans-67"/>
      <use x="370.605469" xlink:href="#DejaVuSans-32"/>
      <use x="402.392578" xlink:href="#DejaVuSans-99"/>
      <use x="457.373047" xlink:href="#DejaVuSans-117"/>
      <use x="520.751953" xlink:href="#DejaVuSans-109"/>
      <use x="618.164062" xlink:href="#DejaVuSans-115"/>
      <use x="670.263672" xlink:href="#DejaVuSans-117"/>
      <use x="733.642578" xlink:href="#DejaVuSans-109"/>
     </g>
    </g>
   </g>
  </g>
  <g id="axes_3">
   <g id="matplotlib.axis_4">
    <g id="ytick_11">
     <g id="line2d_25">
      <g>
       <use style="stroke:#000000;stroke-width:0.8;" x="1110.58" xlink:href="#me0b537503d" y="424.76"/>
      </g>
     </g>
    </g>
    <g id="ytick_12">
     <g id="line2d_26">
      <g>
       <use style="stroke:#000000;stroke-width:0.8;" x="1110.58" xlink:href="#me0b537503d" y="344.992"/>
      </g>
     </g>
    </g>
    <g id="ytick_13">
     <g id="line2d_27">
      <g>
       <use style="stroke:#000000;stroke-width:0.8;" x="1110.58" xlink:href="#me0b537503d" y="265.224"/>
      </g>
     </g>
    </g>
    <g id="ytick_14">
     <g id="line2d_28">
      <g>
       <use style="stroke:#000000;stroke-width:0.8;" x="1110.58" xlink:href="#me0b537503d" y="185.456"/>
      </g>
     </g>
    </g>
    <g id="ytick_15">
     <g id="line2d_29">
      <g>
       <use style="stroke:#000000;stroke-width:0.8;" x="1110.58" xlink:href="#me0b537503d" y="105.688"/>
      </g>
     </g>
    </g>
    <g id="ytick_16">
     <g id="line2d_30">
      <g>
       <use style="stroke:#000000;stroke-width:0.8;" x="1110.58" xlink:href="#me0b537503d" y="25.92"/>
      </g>
     </g>
    </g>
   </g>
   <g id="patch_54">
    <path d="M 50.9 424.76 
L 50.9 25.92 
" style="fill:none;stroke:#000000;stroke-linecap:square;stroke-linejoin:miter;stroke-width:0.8;"/>
   </g>
   <g id="patch_55">
    <path d="M 1110.58 424.76 
L 1110.58 25.92 
" style="fill:none;stroke:#000000;stroke-linecap:square;stroke-linejoin:miter;stroke-width:0.8;"/>
   </g>
   <g id="patch_56">
    <path d="M 50.9 424.76 
L 1110.58 424.76 
" style="fill:none;stroke:#000000;stroke-linecap:square;stroke-linejoin:miter;stroke-width:0.8;"/>
   </g>
   <g id="patch_57">
    <path d="M 50.9 25.92 
L 1110.58 25.92 
" style="fill:none;stroke:#000000;stroke-linecap:square;stroke-linejoin:miter;stroke-width:0.8;"/>
   </g>
   <g id="text_17">
    <!-- IC: (2010-01-04 ~ 2010-10-08) -->
    <g transform="translate(487.59 19.92)scale(0.12 -0.12)">
     <defs>
      <path d="M 11.71875 12.40625 
L 22.015625 12.40625 
L 22.015625 0 
L 11.71875 0 
z
M 11.71875 51.703125 
L 22.015625 51.703125 
L 22.015625 39.3125 
L 11.71875 39.3125 
z
" id="DejaVuSans-58"/>
      <path d="M 31 75.875 
Q 24.46875 64.65625 21.28125 53.65625 
Q 18.109375 42.671875 18.109375 31.390625 
Q 18.109375 20.125 21.3125 9.0625 
Q 24.515625 -2 31 -13.1875 
L 23.1875 -13.1875 
Q 15.875 -1.703125 12.234375 9.375 
Q 8.59375 20.453125 8.59375 31.390625 
Q 8.59375 42.28125 12.203125 53.3125 
Q 15.828125 64.359375 23.1875 75.875 
z
" id="DejaVuSans-40"/>
      <path d="M 73.1875 39.890625 
L 73.1875 31.203125 
Q 68.0625 27.34375 63.6875 25.6875 
Q 59.328125 24.03125 54.59375 24.03125 
Q 49.21875 24.03125 42.09375 26.90625 
Q 41.546875 27.09375 41.3125 27.203125 
Q 40.96875 27.34375 40.234375 27.59375 
Q 32.671875 30.609375 28.078125 30.609375 
Q 23.78125 30.609375 19.578125 28.734375 
Q 15.375 26.859375 10.59375 22.796875 
L 10.59375 31.5 
Q 15.71875 35.359375 20.09375 37.03125 
Q 24.46875 38.71875 29.203125 38.71875 
Q 34.578125 38.71875 41.75 35.796875 
Q 42.234375 35.59375 42.484375 35.5 
Q 42.875 35.359375 43.5625 35.109375 
Q 51.125 32.078125 55.71875 32.078125 
Q 59.90625 32.078125 64.03125 33.9375 
Q 68.171875 35.796875 73.1875 39.890625 
z
" id="DejaVuSans-126"/>
      <path d="M 31.78125 34.625 
Q 24.75 34.625 20.71875 30.859375 
Q 16.703125 27.09375 16.703125 20.515625 
Q 16.703125 13.921875 20.71875 10.15625 
Q 24.75 6.390625 31.78125 6.390625 
Q 38.8125 6.390625 42.859375 10.171875 
Q 46.921875 13.96875 46.921875 20.515625 
Q 46.921875 27.09375 42.890625 30.859375 
Q 38.875 34.625 31.78125 34.625 
z
M 21.921875 38.8125 
Q 15.578125 40.375 12.03125 44.71875 
Q 8.5 49.078125 8.5 55.328125 
Q 8.5 64.0625 14.71875 69.140625 
Q 20.953125 74.21875 31.78125 74.21875 
Q 42.671875 74.21875 48.875 69.140625 
Q 55.078125 64.0625 55.078125 55.328125 
Q 55.078125 49.078125 51.53125 44.71875 
Q 48 40.375 41.703125 38.8125 
Q 48.828125 37.15625 52.796875 32.3125 
Q 56.78125 27.484375 56.78125 20.515625 
Q 56.78125 9.90625 50.3125 4.234375 
Q 43.84375 -1.421875 31.78125 -1.421875 
Q 19.734375 -1.421875 13.25 4.234375 
Q 6.78125 9.90625 6.78125 20.515625 
Q 6.78125 27.484375 10.78125 32.3125 
Q 14.796875 37.15625 21.921875 38.8125 
z
M 18.3125 54.390625 
Q 18.3125 48.734375 21.84375 45.5625 
Q 25.390625 42.390625 31.78125 42.390625 
Q 38.140625 42.390625 41.71875 45.5625 
Q 45.3125 48.734375 45.3125 54.390625 
Q 45.3125 60.0625 41.71875 63.234375 
Q 38.140625 66.40625 31.78125 66.40625 
Q 25.390625 66.40625 21.84375 63.234375 
Q 18.3125 60.0625 18.3125 54.390625 
z
" id="DejaVuSans-56"/>
      <path d="M 8.015625 75.875 
L 15.828125 75.875 
Q 23.140625 64.359375 26.78125 53.3125 
Q 30.421875 42.28125 30.421875 31.390625 
Q 30.421875 20.453125 26.78125 9.375 
Q 23.140625 -1.703125 15.828125 -13.1875 
L 8.015625 -13.1875 
Q 14.5 -2 17.703125 9.0625 
Q 20.90625 20.125 20.90625 31.390625 
Q 20.90625 42.671875 17.703125 53.65625 
Q 14.5 64.65625 8.015625 75.875 
z
" id="DejaVuSans-41"/>
     </defs>
     <use xlink:href="#DejaVuSans-73"/>
     <use x="29.492188" xlink:href="#DejaVuSans-67"/>
     <use x="99.316406" xlink:href="#DejaVuSans-58"/>
     <use x="133.007812" xlink:href="#DejaVuSans-32"/>
     <use x="164.794922" xlink:href="#DejaVuSans-40"/>
     <use x="203.808594" xlink:href="#DejaVuSans-50"/>
     <use x="267.431641" xlink:href="#DejaVuSans-48"/>
     <use x="331.054688" xlink:href="#DejaVuSans-49"/>
     <use x="394.677734" xlink:href="#DejaVuSans-48"/>
     <use x="458.300781" xlink:href="#DejaVuSans-45"/>
     <use x="494.384766" xlink:href="#DejaVuSans-48"/>
     <use x="558.007812" xlink:href="#DejaVuSans-49"/>
     <use x="621.630859" xlink:href="#DejaVuSans-45"/>
     <use x="657.714844" xlink:href="#DejaVuSans-48"/>
     <use x="721.337891" xlink:href="#DejaVuSans-52"/>
     <use x="784.960938" xlink:href="#DejaVuSans-32"/>
     <use x="816.748047" xlink:href="#DejaVuSans-126"/>
     <use x="900.537109" xlink:href="#DejaVuSans-32"/>
     <use x="932.324219" xlink:href="#DejaVuSans-50"/>
     <use x="995.947266" xlink:href="#DejaVuSans-48"/>
     <use x="1059.570312" xlink:href="#DejaVuSans-49"/>
     <use x="1123.193359" xlink:href="#DejaVuSans-48"/>
     <use x="1186.816406" xlink:href="#DejaVuSans-45"/>
     <use x="1222.900391" xlink:href="#DejaVuSans-49"/>
     <use x="1286.523438" xlink:href="#DejaVuSans-48"/>
     <use x="1350.146484" xlink:href="#DejaVuSans-45"/>
     <use x="1386.230469" xlink:href="#DejaVuSans-48"/>
     <use x="1449.853516" xlink:href="#DejaVuSans-56"/>
     <use x="1513.476562" xlink:href="#DejaVuSans-41"/>
    </g>
   </g>
   <g id="legend_3">
    <g id="patch_58">
     <path d="M 506.982969 92.6325 
L 654.497031 92.6325 
Q 656.497031 92.6325 656.497031 90.6325 
L 656.497031 32.92 
Q 656.497031 30.92 654.497031 30.92 
L 506.982969 30.92 
Q 504.982969 30.92 504.982969 32.92 
L 504.982969 90.6325 
Q 504.982969 92.6325 506.982969 92.6325 
z
" style="fill:#ffffff;opacity:0.8;stroke:#cccccc;stroke-linejoin:miter;"/>
    </g>
    <g id="line2d_31"/>
    <g id="line2d_32"/>
    <g id="text_18">
     <!-- IC mean:  -0.0327         -->
     <g transform="translate(536.982969 42.518438)scale(0.1 -0.1)">
      <defs>
       <path d="M 8.203125 72.90625 
L 55.078125 72.90625 
L 55.078125 68.703125 
L 28.609375 0 
L 18.3125 0 
L 43.21875 64.59375 
L 8.203125 64.59375 
z
" id="DejaVuSans-55"/>
      </defs>
      <use xlink:href="#DejaVuSans-73"/>
      <use x="29.492188" xlink:href="#DejaVuSans-67"/>
      <use x="99.316406" xlink:href="#DejaVuSans-32"/>
      <use x="131.103516" xlink:href="#DejaVuSans-109"/>
      <use x="228.515625" xlink:href="#DejaVuSans-101"/>
      <use x="290.039062" xlink:href="#DejaVuSans-97"/>
      <use x="351.318359" xlink:href="#DejaVuSans-110"/>
      <use x="414.697266" xlink:href="#DejaVuSans-58"/>
      <use x="448.388672" xlink:href="#DejaVuSans-32"/>
      <use x="480.175781" xlink:href="#DejaVuSans-32"/>
      <use x="511.962891" xlink:href="#DejaVuSans-45"/>
      <use x="548.046875" xlink:href="#DejaVuSans-48"/>
      <use x="611.669922" xlink:href="#DejaVuSans-46"/>
      <use x="643.457031" xlink:href="#DejaVuSans-48"/>
      <use x="707.080078" xlink:href="#DejaVuSans-51"/>
      <use x="770.703125" xlink:href="#DejaVuSans-50"/>
      <use x="834.326172" xlink:href="#DejaVuSans-55"/>
      <use x="897.949219" xlink:href="#DejaVuSans-32"/>
      <use x="929.736328" xlink:href="#DejaVuSans-32"/>
      <use x="961.523438" xlink:href="#DejaVuSans-32"/>
      <use x="993.310547" xlink:href="#DejaVuSans-32"/>
      <use x="1025.097656" xlink:href="#DejaVuSans-32"/>
      <use x="1056.884766" xlink:href="#DejaVuSans-32"/>
      <use x="1088.671875" xlink:href="#DejaVuSans-32"/>
      <use x="1120.458984" xlink:href="#DejaVuSans-32"/>
     </g>
    </g>
    <g id="line2d_33"/>
    <g id="line2d_34"/>
    <g id="text_19">
     <!-- IC std:       0.3318         -->
     <g transform="translate(536.982969 57.196563)scale(0.1 -0.1)">
      <defs>
       <path d="M 18.3125 70.21875 
L 18.3125 54.6875 
L 36.8125 54.6875 
L 36.8125 47.703125 
L 18.3125 47.703125 
L 18.3125 18.015625 
Q 18.3125 11.328125 20.140625 9.421875 
Q 21.96875 7.515625 27.59375 7.515625 
L 36.8125 7.515625 
L 36.8125 0 
L 27.59375 0 
Q 17.1875 0 13.234375 3.875 
Q 9.28125 7.765625 9.28125 18.015625 
L 9.28125 47.703125 
L 2.6875 47.703125 
L 2.6875 54.6875 
L 9.28125 54.6875 
L 9.28125 70.21875 
z
" id="DejaVuSans-116"/>
      </defs>
      <use xlink:href="#DejaVuSans-73"/>
      <use x="29.492188" xlink:href="#DejaVuSans-67"/>
      <use x="99.316406" xlink:href="#DejaVuSans-32"/>
      <use x="131.103516" xlink:href="#DejaVuSans-115"/>
      <use x="183.203125" xlink:href="#DejaVuSans-116"/>
      <use x="222.412109" xlink:href="#DejaVuSans-100"/>
      <use x="285.888672" xlink:href="#DejaVuSans-58"/>
      <use x="319.580078" xlink:href="#DejaVuSans-32"/>
      <use x="351.367188" xlink:href="#DejaVuSans-32"/>
      <use x="383.154297" xlink:href="#DejaVuSans-32"/>
      <use x="414.941406" xlink:href="#DejaVuSans-32"/>
      <use x="446.728516" xlink:href="#DejaVuSans-32"/>
      <use x="478.515625" xlink:href="#DejaVuSans-32"/>
      <use x="510.302734" xlink:href="#DejaVuSans-32"/>
      <use x="542.089844" xlink:href="#DejaVuSans-48"/>
      <use x="605.712891" xlink:href="#DejaVuSans-46"/>
      <use x="637.5" xlink:href="#DejaVuSans-51"/>
      <use x="701.123047" xlink:href="#DejaVuSans-51"/>
      <use x="764.746094" xlink:href="#DejaVuSans-49"/>
      <use x="828.369141" xlink:href="#DejaVuSans-56"/>
      <use x="891.992188" xlink:href="#DejaVuSans-32"/>
      <use x="923.779297" xlink:href="#DejaVuSans-32"/>
      <use x="955.566406" xlink:href="#DejaVuSans-32"/>
      <use x="987.353516" xlink:href="#DejaVuSans-32"/>
      <use x="1019.140625" xlink:href="#DejaVuSans-32"/>
      <use x="1050.927734" xlink:href="#DejaVuSans-32"/>
      <use x="1082.714844" xlink:href="#DejaVuSans-32"/>
      <use x="1114.501953" xlink:href="#DejaVuSans-32"/>
     </g>
    </g>
    <g id="line2d_35"/>
    <g id="line2d_36"/>
    <g id="text_20">
     <!-- IC IR:        -0.0986         -->
     <g transform="translate(536.982969 71.874688)scale(0.1 -0.1)">
      <defs>
       <path d="M 44.390625 34.1875 
Q 47.5625 33.109375 50.5625 29.59375 
Q 53.5625 26.078125 56.59375 19.921875 
L 66.609375 0 
L 56 0 
L 46.6875 18.703125 
Q 43.0625 26.03125 39.671875 28.421875 
Q 36.28125 30.8125 30.421875 30.8125 
L 19.671875 30.8125 
L 19.671875 0 
L 9.8125 0 
L 9.8125 72.90625 
L 32.078125 72.90625 
Q 44.578125 72.90625 50.734375 67.671875 
Q 56.890625 62.453125 56.890625 51.90625 
Q 56.890625 45.015625 53.6875 40.46875 
Q 50.484375 35.9375 44.390625 34.1875 
z
M 19.671875 64.796875 
L 19.671875 38.921875 
L 32.078125 38.921875 
Q 39.203125 38.921875 42.84375 42.21875 
Q 46.484375 45.515625 46.484375 51.90625 
Q 46.484375 58.296875 42.84375 61.546875 
Q 39.203125 64.796875 32.078125 64.796875 
z
" id="DejaVuSans-82"/>
       <path d="M 10.984375 1.515625 
L 10.984375 10.5 
Q 14.703125 8.734375 18.5 7.8125 
Q 22.3125 6.890625 25.984375 6.890625 
Q 35.75 6.890625 40.890625 13.453125 
Q 46.046875 20.015625 46.78125 33.40625 
Q 43.953125 29.203125 39.59375 26.953125 
Q 35.25 24.703125 29.984375 24.703125 
Q 19.046875 24.703125 12.671875 31.3125 
Q 6.296875 37.9375 6.296875 49.421875 
Q 6.296875 60.640625 12.9375 67.421875 
Q 19.578125 74.21875 30.609375 74.21875 
Q 43.265625 74.21875 49.921875 64.515625 
Q 56.59375 54.828125 56.59375 36.375 
Q 56.59375 19.140625 48.40625 8.859375 
Q 40.234375 -1.421875 26.421875 -1.421875 
Q 22.703125 -1.421875 18.890625 -0.6875 
Q 15.09375 0.046875 10.984375 1.515625 
z
M 30.609375 32.421875 
Q 37.25 32.421875 41.125 36.953125 
Q 45.015625 41.5 45.015625 49.421875 
Q 45.015625 57.28125 41.125 61.84375 
Q 37.25 66.40625 30.609375 66.40625 
Q 23.96875 66.40625 20.09375 61.84375 
Q 16.21875 57.28125 16.21875 49.421875 
Q 16.21875 41.5 20.09375 36.953125 
Q 23.96875 32.421875 30.609375 32.421875 
z
" id="DejaVuSans-57"/>
      </defs>
      <use xlink:href="#DejaVuSans-73"/>
      <use x="29.492188" xlink:href="#DejaVuSans-67"/>
      <use x="99.316406" xlink:href="#DejaVuSans-32"/>
      <use x="131.103516" xlink:href="#DejaVuSans-73"/>
      <use x="160.595703" xlink:href="#DejaVuSans-82"/>
      <use x="226.953125" xlink:href="#DejaVuSans-58"/>
      <use x="260.644531" xlink:href="#DejaVuSans-32"/>
      <use x="292.431641" xlink:href="#DejaVuSans-32"/>
      <use x="324.21875" xlink:href="#DejaVuSans-32"/>
      <use x="356.005859" xlink:href="#DejaVuSans-32"/>
      <use x="387.792969" xlink:href="#DejaVuSans-32"/>
      <use x="419.580078" xlink:href="#DejaVuSans-32"/>
      <use x="451.367188" xlink:href="#DejaVuSans-32"/>
      <use x="483.154297" xlink:href="#DejaVuSans-32"/>
      <use x="514.941406" xlink:href="#DejaVuSans-45"/>
      <use x="551.025391" xlink:href="#DejaVuSans-48"/>
      <use x="614.648438" xlink:href="#DejaVuSans-46"/>
      <use x="646.435547" xlink:href="#DejaVuSans-48"/>
      <use x="710.058594" xlink:href="#DejaVuSans-57"/>
      <use x="773.681641" xlink:href="#DejaVuSans-56"/>
      <use x="837.304688" xlink:href="#DejaVuSans-54"/>
      <use x="900.927734" xlink:href="#DejaVuSans-32"/>
      <use x="932.714844" xlink:href="#DejaVuSans-32"/>
      <use x="964.501953" xlink:href="#DejaVuSans-32"/>
      <use x="996.289062" xlink:href="#DejaVuSans-32"/>
      <use x="1028.076172" xlink:href="#DejaVuSans-32"/>
      <use x="1059.863281" xlink:href="#DejaVuSans-32"/>
      <use x="1091.650391" xlink:href="#DejaVuSans-32"/>
      <use x="1123.4375" xlink:href="#DejaVuSans-32"/>
     </g>
    </g>
    <g id="line2d_37"/>
    <g id="line2d_38"/>
    <g id="text_21">
     <!-- IC (-)rate:  0.5450 -->
     <g transform="translate(536.982969 86.552813)scale(0.1 -0.1)">
      <defs>
       <path d="M 41.109375 46.296875 
Q 39.59375 47.171875 37.8125 47.578125 
Q 36.03125 48 33.890625 48 
Q 26.265625 48 22.1875 43.046875 
Q 18.109375 38.09375 18.109375 28.8125 
L 18.109375 0 
L 9.078125 0 
L 9.078125 54.6875 
L 18.109375 54.6875 
L 18.109375 46.1875 
Q 20.953125 51.171875 25.484375 53.578125 
Q 30.03125 56 36.53125 56 
Q 37.453125 56 38.578125 55.875 
Q 39.703125 55.765625 41.0625 55.515625 
z
" id="DejaVuSans-114"/>
       <path d="M 10.796875 72.90625 
L 49.515625 72.90625 
L 49.515625 64.59375 
L 19.828125 64.59375 
L 19.828125 46.734375 
Q 21.96875 47.46875 24.109375 47.828125 
Q 26.265625 48.1875 28.421875 48.1875 
Q 40.625 48.1875 47.75 41.5 
Q 54.890625 34.8125 54.890625 23.390625 
Q 54.890625 11.625 47.5625 5.09375 
Q 40.234375 -1.421875 26.90625 -1.421875 
Q 22.3125 -1.421875 17.546875 -0.640625 
Q 12.796875 0.140625 7.71875 1.703125 
L 7.71875 11.625 
Q 12.109375 9.234375 16.796875 8.0625 
Q 21.484375 6.890625 26.703125 6.890625 
Q 35.15625 6.890625 40.078125 11.328125 
Q 45.015625 15.765625 45.015625 23.390625 
Q 45.015625 31 40.078125 35.4375 
Q 35.15625 39.890625 26.703125 39.890625 
Q 22.75 39.890625 18.8125 39.015625 
Q 14.890625 38.140625 10.796875 36.28125 
z
" id="DejaVuSans-53"/>
      </defs>
      <use xlink:href="#DejaVuSans-73"/>
      <use x="29.492188" xlink:href="#DejaVuSans-67"/>
      <use x="99.316406" xlink:href="#DejaVuSans-32"/>
      <use x="131.103516" xlink:href="#DejaVuSans-40"/>
      <use x="170.117188" xlink:href="#DejaVuSans-45"/>
      <use x="206.201172" xlink:href="#DejaVuSans-41"/>
      <use x="245.214844" xlink:href="#DejaVuSans-114"/>
      <use x="286.328125" xlink:href="#DejaVuSans-97"/>
      <use x="347.607422" xlink:href="#DejaVuSans-116"/>
      <use x="386.816406" xlink:href="#DejaVuSans-101"/>
      <use x="448.339844" xlink:href="#DejaVuSans-58"/>
      <use x="482.03125" xlink:href="#DejaVuSans-32"/>
      <use x="513.818359" xlink:href="#DejaVuSans-32"/>
      <use x="545.605469" xlink:href="#DejaVuSans-48"/>
      <use x="609.228516" xlink:href="#DejaVuSans-46"/>
      <use x="641.015625" xlink:href="#DejaVuSans-53"/>
      <use x="704.638672" xlink:href="#DejaVuSans-52"/>
      <use x="768.261719" xlink:href="#DejaVuSans-53"/>
      <use x="831.884766" xlink:href="#DejaVuSans-48"/>
     </g>
    </g>
   </g>
  </g>
 </g>
 <defs>
  <clipPath id="p60154449a1">
   <rect height="398.84" width="1059.68" x="50.9" y="25.92"/>
  </clipPath>
 </defs>
</svg>
