<?xml version="1.0" encoding="utf-8" standalone="no"?>
<!DOCTYPE svg PUBLIC "-//W3C//DTD SVG 1.1//EN"
  "http://www.w3.org/Graphics/SVG/1.1/DTD/svg11.dtd">
<!-- Created with matplotlib (https://matplotlib.org/) -->
<svg height="468pt" version="1.1" viewBox="0 0 1152 468" width="1152pt" xmlns="http://www.w3.org/2000/svg" xmlns:xlink="http://www.w3.org/1999/xlink">
 <metadata>
  <rdf:RDF xmlns:cc="http://creativecommons.org/ns#" xmlns:dc="http://purl.org/dc/elements/1.1/" xmlns:rdf="http://www.w3.org/1999/02/22-rdf-syntax-ns#">
   <cc:Work>
    <dc:type rdf:resource="http://purl.org/dc/dcmitype/StillImage"/>
    <dc:date>2023-10-11T16:35:55.293045</dc:date>
    <dc:format>image/svg+xml</dc:format>
    <dc:creator>
     <cc:Agent>
      <dc:title>Matplotlib v3.3.4, https://matplotlib.org/</dc:title>
     </cc:Agent>
    </dc:creator>
   </cc:Work>
  </rdf:RDF>
 </metadata>
 <defs>
  <style type="text/css">*{stroke-linecap:butt;stroke-linejoin:round;}</style>
 </defs>
 <g id="figure_1">
  <g id="patch_1">
   <path d="M 0 468 
L 1152 468 
L 1152 0 
L 0 0 
z
" style="fill:#ffffff;"/>
  </g>
  <g id="axes_1">
   <g id="patch_2">
    <path d="M 50.9 424.76 
L 1104.28 424.76 
L 1104.28 25.92 
L 50.9 25.92 
z
" style="fill:#ffffff;"/>
   </g>
   <g id="patch_3">
    <path clip-path="url(#pd5b7306fa0)" d="M 119.90484 197.2986 
L 102.301564 197.2986 
L 102.301564 239.686763 
L 119.90484 239.686763 
z
" style="fill:#1f77b4;"/>
   </g>
   <g id="patch_4">
    <path clip-path="url(#pd5b7306fa0)" d="M 144.549425 197.2986 
L 126.94615 197.2986 
L 126.94615 131.433918 
L 144.549425 131.433918 
z
" style="fill:#1f77b4;"/>
   </g>
   <g id="patch_5">
    <path clip-path="url(#pd5b7306fa0)" d="M 169.194011 197.2986 
L 151.590735 197.2986 
L 151.590735 183.603963 
L 169.194011 183.603963 
z
" style="fill:#1f77b4;"/>
   </g>
   <g id="patch_6">
    <path clip-path="url(#pd5b7306fa0)" d="M 193.838596 197.2986 
L 176.235321 197.2986 
L 176.235321 180.995461 
L 193.838596 180.995461 
z
" style="fill:#1f77b4;"/>
   </g>
   <g id="patch_7">
    <path clip-path="url(#pd5b7306fa0)" d="M 218.483182 197.2986 
L 200.879906 197.2986 
L 200.879906 136.650922 
L 218.483182 136.650922 
z
" style="fill:#1f77b4;"/>
   </g>
   <g id="patch_8">
    <path clip-path="url(#pd5b7306fa0)" d="M 243.127767 197.2986 
L 225.524492 197.2986 
L 225.524492 302.290818 
L 243.127767 302.290818 
z
" style="fill:#1f77b4;"/>
   </g>
   <g id="patch_9">
    <path clip-path="url(#pd5b7306fa0)" d="M 267.772353 197.2986 
L 250.169078 197.2986 
L 250.169078 51.874598 
L 267.772353 51.874598 
z
" style="fill:#1f77b4;"/>
   </g>
   <g id="patch_10">
    <path clip-path="url(#pd5b7306fa0)" d="M 292.416939 197.2986 
L 274.813663 197.2986 
L 274.813663 154.910438 
L 292.416939 154.910438 
z
" style="fill:#1f77b4;"/>
   </g>
   <g id="patch_11">
    <path clip-path="url(#pd5b7306fa0)" d="M 317.061524 197.2986 
L 299.458249 197.2986 
L 299.458249 336.201347 
L 317.061524 336.201347 
z
" style="fill:#1f77b4;"/>
   </g>
   <g id="patch_12">
    <path clip-path="url(#pd5b7306fa0)" d="M 341.70611 197.2986 
L 324.102834 197.2986 
L 324.102834 44.049091 
L 341.70611 44.049091 
z
" style="fill:#1f77b4;"/>
   </g>
   <g id="patch_13">
    <path clip-path="url(#pd5b7306fa0)" d="M 366.350695 197.2986 
L 348.74742 197.2986 
L 348.74742 174.474205 
L 366.350695 174.474205 
z
" style="fill:#1f77b4;"/>
   </g>
   <g id="patch_14">
    <path clip-path="url(#pd5b7306fa0)" d="M 390.995281 197.2986 
L 373.392005 197.2986 
L 373.392005 286.639804 
L 390.995281 286.639804 
z
" style="fill:#1f77b4;"/>
   </g>
   <g id="patch_15">
    <path clip-path="url(#pd5b7306fa0)" d="M 415.639866 197.2986 
L 398.036591 197.2986 
L 398.036591 238.382511 
L 415.639866 238.382511 
z
" style="fill:#1f77b4;"/>
   </g>
   <g id="patch_16">
    <path clip-path="url(#pd5b7306fa0)" d="M 440.284452 197.2986 
L 422.681176 197.2986 
L 422.681176 276.205795 
L 440.284452 276.205795 
z
" style="fill:#1f77b4;"/>
   </g>
   <g id="patch_17">
    <path clip-path="url(#pd5b7306fa0)" d="M 464.929037 197.2986 
L 447.325762 197.2986 
L 447.325762 178.386959 
L 464.929037 178.386959 
z
" style="fill:#1f77b4;"/>
   </g>
   <g id="patch_18">
    <path clip-path="url(#pd5b7306fa0)" d="M 489.573623 197.2986 
L 471.970348 197.2986 
L 471.970348 132.738169 
L 489.573623 132.738169 
z
" style="fill:#1f77b4;"/>
   </g>
   <g id="patch_19">
    <path clip-path="url(#pd5b7306fa0)" d="M 514.218209 197.2986 
L 496.614933 197.2986 
L 496.614933 231.861256 
L 514.218209 231.861256 
z
" style="fill:#1f77b4;"/>
   </g>
   <g id="patch_20">
    <path clip-path="url(#pd5b7306fa0)" d="M 538.862794 197.2986 
L 521.259519 197.2986 
L 521.259519 250.120772 
L 538.862794 250.120772 
z
" style="fill:#1f77b4;"/>
   </g>
   <g id="patch_21">
    <path clip-path="url(#pd5b7306fa0)" d="M 563.50738 197.2986 
L 545.904104 197.2986 
L 545.904104 300.986566 
L 563.50738 300.986566 
z
" style="fill:#1f77b4;"/>
   </g>
   <g id="patch_22">
    <path clip-path="url(#pd5b7306fa0)" d="M 588.151965 197.2986 
L 570.54869 197.2986 
L 570.54869 299.682315 
L 588.151965 299.682315 
z
" style="fill:#1f77b4;"/>
   </g>
   <g id="patch_23">
    <path clip-path="url(#pd5b7306fa0)" d="M 612.796551 197.2986 
L 595.193275 197.2986 
L 595.193275 366.199124 
L 612.796551 366.199124 
z
" style="fill:#1f77b4;"/>
   </g>
   <g id="patch_24">
    <path clip-path="url(#pd5b7306fa0)" d="M 637.441136 197.2986 
L 619.837861 197.2986 
L 619.837861 250.120772 
L 637.441136 250.120772 
z
" style="fill:#1f77b4;"/>
   </g>
   <g id="patch_25">
    <path clip-path="url(#pd5b7306fa0)" d="M 662.085722 197.2986 
L 644.482447 197.2986 
L 644.482447 216.210242 
L 662.085722 216.210242 
z
" style="fill:#1f77b4;"/>
   </g>
   <g id="patch_26">
    <path clip-path="url(#pd5b7306fa0)" d="M 686.730307 197.2986 
L 669.127032 197.2986 
L 669.127032 87.089379 
L 686.730307 87.089379 
z
" style="fill:#1f77b4;"/>
   </g>
   <g id="patch_27">
    <path clip-path="url(#pd5b7306fa0)" d="M 711.374893 197.2986 
L 693.771618 197.2986 
L 693.771618 333.592845 
L 711.374893 333.592845 
z
" style="fill:#1f77b4;"/>
   </g>
   <g id="patch_28">
    <path clip-path="url(#pd5b7306fa0)" d="M 736.019479 197.2986 
L 718.416203 197.2986 
L 718.416203 201.863479 
L 736.019479 201.863479 
z
" style="fill:#1f77b4;"/>
   </g>
   <g id="patch_29">
    <path clip-path="url(#pd5b7306fa0)" d="M 760.664064 197.2986 
L 743.060789 197.2986 
L 743.060789 208.384735 
L 760.664064 208.384735 
z
" style="fill:#1f77b4;"/>
   </g>
   <g id="patch_30">
    <path clip-path="url(#pd5b7306fa0)" d="M 785.30865 197.2986 
L 767.705374 197.2986 
L 767.705374 406.630909 
L 785.30865 406.630909 
z
" style="fill:#1f77b4;"/>
   </g>
   <g id="patch_31">
    <path clip-path="url(#pd5b7306fa0)" d="M 809.953235 197.2986 
L 792.34996 197.2986 
L 792.34996 336.201347 
L 809.953235 336.201347 
z
" style="fill:#1f77b4;"/>
   </g>
   <g id="patch_32">
    <path clip-path="url(#pd5b7306fa0)" d="M 834.597821 197.2986 
L 816.994545 197.2986 
L 816.994545 213.60174 
L 834.597821 213.60174 
z
" style="fill:#1f77b4;"/>
   </g>
   <g id="patch_33">
    <path clip-path="url(#pd5b7306fa0)" d="M 859.242406 197.2986 
L 841.639131 197.2986 
L 841.639131 147.084931 
L 859.242406 147.084931 
z
" style="fill:#1f77b4;"/>
   </g>
   <g id="patch_34">
    <path clip-path="url(#pd5b7306fa0)" d="M 883.886992 197.2986 
L 866.283717 197.2986 
L 866.283717 273.597292 
L 883.886992 273.597292 
z
" style="fill:#1f77b4;"/>
   </g>
   <g id="patch_35">
    <path clip-path="url(#pd5b7306fa0)" d="M 908.531578 197.2986 
L 890.928302 197.2986 
L 890.928302 330.984343 
L 908.531578 330.984343 
z
" style="fill:#1f77b4;"/>
   </g>
   <g id="patch_36">
    <path clip-path="url(#pd5b7306fa0)" d="M 933.176163 197.2986 
L 915.572888 197.2986 
L 915.572888 178.386959 
L 933.176163 178.386959 
z
" style="fill:#1f77b4;"/>
   </g>
   <g id="patch_37">
    <path clip-path="url(#pd5b7306fa0)" d="M 957.820749 197.2986 
L 940.217473 197.2986 
L 940.217473 164.040196 
L 957.820749 164.040196 
z
" style="fill:#1f77b4;"/>
   </g>
   <g id="patch_38">
    <path clip-path="url(#pd5b7306fa0)" d="M 982.465334 197.2986 
L 964.862059 197.2986 
L 964.862059 110.565899 
L 982.465334 110.565899 
z
" style="fill:#1f77b4;"/>
   </g>
   <g id="patch_39">
    <path clip-path="url(#pd5b7306fa0)" d="M 1007.10992 197.2986 
L 989.506644 197.2986 
L 989.506644 307.507822 
L 1007.10992 307.507822 
z
" style="fill:#1f77b4;"/>
   </g>
   <g id="patch_40">
    <path clip-path="url(#pd5b7306fa0)" d="M 1031.754505 197.2986 
L 1014.15123 197.2986 
L 1014.15123 106.653146 
L 1031.754505 106.653146 
z
" style="fill:#1f77b4;"/>
   </g>
   <g id="patch_41">
    <path clip-path="url(#pd5b7306fa0)" d="M 1056.399091 197.2986 
L 1038.795816 197.2986 
L 1038.795816 191.42947 
L 1056.399091 191.42947 
z
" style="fill:#1f77b4;"/>
   </g>
   <g id="patch_42">
    <path clip-path="url(#pd5b7306fa0)" d="M 0 0 
z
" style="fill:#1f77b4;"/>
   </g>
   <g id="matplotlib.axis_1">
    <g id="xtick_1">
     <g id="line2d_1">
      <path clip-path="url(#pd5b7306fa0)" d="M 88.218944 424.76 
L 88.218944 25.92 
" style="fill:none;stroke:#b0b0b0;stroke-linecap:square;stroke-width:0.8;"/>
     </g>
     <g id="line2d_2">
      <defs>
       <path d="M 0 0 
L 0 3.5 
" id="mc48b633a3a" style="stroke:#000000;stroke-width:0.8;"/>
      </defs>
      <g>
       <use style="stroke:#000000;stroke-width:0.8;" x="88.218944" xlink:href="#mc48b633a3a" y="424.76"/>
      </g>
     </g>
     <g id="text_1">
      <!-- 2010 -->
      <g transform="translate(90.978319 457.21)rotate(-90)scale(0.1 -0.1)">
       <defs>
        <path d="M 19.1875 8.296875 
L 53.609375 8.296875 
L 53.609375 0 
L 7.328125 0 
L 7.328125 8.296875 
Q 12.9375 14.109375 22.625 23.890625 
Q 32.328125 33.6875 34.8125 36.53125 
Q 39.546875 41.84375 41.421875 45.53125 
Q 43.3125 49.21875 43.3125 52.78125 
Q 43.3125 58.59375 39.234375 62.25 
Q 35.15625 65.921875 28.609375 65.921875 
Q 23.96875 65.921875 18.8125 64.3125 
Q 13.671875 62.703125 7.8125 59.421875 
L 7.8125 69.390625 
Q 13.765625 71.78125 18.9375 73 
Q 24.125 74.21875 28.421875 74.21875 
Q 39.75 74.21875 46.484375 68.546875 
Q 53.21875 62.890625 53.21875 53.421875 
Q 53.21875 48.921875 51.53125 44.890625 
Q 49.859375 40.875 45.40625 35.40625 
Q 44.1875 33.984375 37.640625 27.21875 
Q 31.109375 20.453125 19.1875 8.296875 
z
" id="DejaVuSans-50"/>
        <path d="M 31.78125 66.40625 
Q 24.171875 66.40625 20.328125 58.90625 
Q 16.5 51.421875 16.5 36.375 
Q 16.5 21.390625 20.328125 13.890625 
Q 24.171875 6.390625 31.78125 6.390625 
Q 39.453125 6.390625 43.28125 13.890625 
Q 47.125 21.390625 47.125 36.375 
Q 47.125 51.421875 43.28125 58.90625 
Q 39.453125 66.40625 31.78125 66.40625 
z
M 31.78125 74.21875 
Q 44.046875 74.21875 50.515625 64.515625 
Q 56.984375 54.828125 56.984375 36.375 
Q 56.984375 17.96875 50.515625 8.265625 
Q 44.046875 -1.421875 31.78125 -1.421875 
Q 19.53125 -1.421875 13.0625 8.265625 
Q 6.59375 17.96875 6.59375 36.375 
Q 6.59375 54.828125 13.0625 64.515625 
Q 19.53125 74.21875 31.78125 74.21875 
z
" id="DejaVuSans-48"/>
        <path d="M 12.40625 8.296875 
L 28.515625 8.296875 
L 28.515625 63.921875 
L 10.984375 60.40625 
L 10.984375 69.390625 
L 28.421875 72.90625 
L 38.28125 72.90625 
L 38.28125 8.296875 
L 54.390625 8.296875 
L 54.390625 0 
L 12.40625 0 
z
" id="DejaVuSans-49"/>
       </defs>
       <use xlink:href="#DejaVuSans-50"/>
       <use x="63.623047" xlink:href="#DejaVuSans-48"/>
       <use x="127.246094" xlink:href="#DejaVuSans-49"/>
       <use x="190.869141" xlink:href="#DejaVuSans-48"/>
      </g>
     </g>
    </g>
   </g>
   <g id="matplotlib.axis_2">
    <g id="ytick_1">
     <g id="line2d_3">
      <path clip-path="url(#pd5b7306fa0)" d="M 50.9 412.500039 
L 1104.28 412.500039 
" style="fill:none;stroke:#b0b0b0;stroke-linecap:square;stroke-width:0.8;"/>
     </g>
     <g id="line2d_4">
      <defs>
       <path d="M 0 0 
L -3.5 0 
" id="md07fbb2311" style="stroke:#000000;stroke-width:0.8;"/>
      </defs>
      <g>
       <use style="stroke:#000000;stroke-width:0.8;" x="50.9" xlink:href="#md07fbb2311" y="412.500039"/>
      </g>
     </g>
     <g id="text_2">
      <!-- -0.4 -->
      <g transform="translate(24.389062 416.299258)scale(0.1 -0.1)">
       <defs>
        <path d="M 4.890625 31.390625 
L 31.203125 31.390625 
L 31.203125 23.390625 
L 4.890625 23.390625 
z
" id="DejaVuSans-45"/>
        <path d="M 10.6875 12.40625 
L 21 12.40625 
L 21 0 
L 10.6875 0 
z
" id="DejaVuSans-46"/>
        <path d="M 37.796875 64.3125 
L 12.890625 25.390625 
L 37.796875 25.390625 
z
M 35.203125 72.90625 
L 47.609375 72.90625 
L 47.609375 25.390625 
L 58.015625 25.390625 
L 58.015625 17.1875 
L 47.609375 17.1875 
L 47.609375 0 
L 37.796875 0 
L 37.796875 17.1875 
L 4.890625 17.1875 
L 4.890625 26.703125 
z
" id="DejaVuSans-52"/>
       </defs>
       <use xlink:href="#DejaVuSans-45"/>
       <use x="36.083984" xlink:href="#DejaVuSans-48"/>
       <use x="99.707031" xlink:href="#DejaVuSans-46"/>
       <use x="131.494141" xlink:href="#DejaVuSans-52"/>
      </g>
     </g>
    </g>
    <g id="ytick_2">
     <g id="line2d_5">
      <path clip-path="url(#pd5b7306fa0)" d="M 50.9 358.69968 
L 1104.28 358.69968 
" style="fill:none;stroke:#b0b0b0;stroke-linecap:square;stroke-width:0.8;"/>
     </g>
     <g id="line2d_6">
      <g>
       <use style="stroke:#000000;stroke-width:0.8;" x="50.9" xlink:href="#md07fbb2311" y="358.69968"/>
      </g>
     </g>
     <g id="text_3">
      <!-- -0.3 -->
      <g transform="translate(24.389062 362.498898)scale(0.1 -0.1)">
       <defs>
        <path d="M 40.578125 39.3125 
Q 47.65625 37.796875 51.625 33 
Q 55.609375 28.21875 55.609375 21.1875 
Q 55.609375 10.40625 48.1875 4.484375 
Q 40.765625 -1.421875 27.09375 -1.421875 
Q 22.515625 -1.421875 17.65625 -0.515625 
Q 12.796875 0.390625 7.625 2.203125 
L 7.625 11.71875 
Q 11.71875 9.328125 16.59375 8.109375 
Q 21.484375 6.890625 26.8125 6.890625 
Q 36.078125 6.890625 40.9375 10.546875 
Q 45.796875 14.203125 45.796875 21.1875 
Q 45.796875 27.640625 41.28125 31.265625 
Q 36.765625 34.90625 28.71875 34.90625 
L 20.21875 34.90625 
L 20.21875 43.015625 
L 29.109375 43.015625 
Q 36.375 43.015625 40.234375 45.921875 
Q 44.09375 48.828125 44.09375 54.296875 
Q 44.09375 59.90625 40.109375 62.90625 
Q 36.140625 65.921875 28.71875 65.921875 
Q 24.65625 65.921875 20.015625 65.03125 
Q 15.375 64.15625 9.8125 62.3125 
L 9.8125 71.09375 
Q 15.4375 72.65625 20.34375 73.4375 
Q 25.25 74.21875 29.59375 74.21875 
Q 40.828125 74.21875 47.359375 69.109375 
Q 53.90625 64.015625 53.90625 55.328125 
Q 53.90625 49.265625 50.4375 45.09375 
Q 46.96875 40.921875 40.578125 39.3125 
z
" id="DejaVuSans-51"/>
       </defs>
       <use xlink:href="#DejaVuSans-45"/>
       <use x="36.083984" xlink:href="#DejaVuSans-48"/>
       <use x="99.707031" xlink:href="#DejaVuSans-46"/>
       <use x="131.494141" xlink:href="#DejaVuSans-51"/>
      </g>
     </g>
    </g>
    <g id="ytick_3">
     <g id="line2d_7">
      <path clip-path="url(#pd5b7306fa0)" d="M 50.9 304.89932 
L 1104.28 304.89932 
" style="fill:none;stroke:#b0b0b0;stroke-linecap:square;stroke-width:0.8;"/>
     </g>
     <g id="line2d_8">
      <g>
       <use style="stroke:#000000;stroke-width:0.8;" x="50.9" xlink:href="#md07fbb2311" y="304.89932"/>
      </g>
     </g>
     <g id="text_4">
      <!-- -0.2 -->
      <g transform="translate(24.389062 308.698539)scale(0.1 -0.1)">
       <use xlink:href="#DejaVuSans-45"/>
       <use x="36.083984" xlink:href="#DejaVuSans-48"/>
       <use x="99.707031" xlink:href="#DejaVuSans-46"/>
       <use x="131.494141" xlink:href="#DejaVuSans-50"/>
      </g>
     </g>
    </g>
    <g id="ytick_4">
     <g id="line2d_9">
      <path clip-path="url(#pd5b7306fa0)" d="M 50.9 251.09896 
L 1104.28 251.09896 
" style="fill:none;stroke:#b0b0b0;stroke-linecap:square;stroke-width:0.8;"/>
     </g>
     <g id="line2d_10">
      <g>
       <use style="stroke:#000000;stroke-width:0.8;" x="50.9" xlink:href="#md07fbb2311" y="251.09896"/>
      </g>
     </g>
     <g id="text_5">
      <!-- -0.1 -->
      <g transform="translate(24.389062 254.898179)scale(0.1 -0.1)">
       <use xlink:href="#DejaVuSans-45"/>
       <use x="36.083984" xlink:href="#DejaVuSans-48"/>
       <use x="99.707031" xlink:href="#DejaVuSans-46"/>
       <use x="131.494141" xlink:href="#DejaVuSans-49"/>
      </g>
     </g>
    </g>
    <g id="ytick_5">
     <g id="line2d_11">
      <path clip-path="url(#pd5b7306fa0)" d="M 50.9 197.2986 
L 1104.28 197.2986 
" style="fill:none;stroke:#b0b0b0;stroke-linecap:square;stroke-width:0.8;"/>
     </g>
     <g id="line2d_12">
      <g>
       <use style="stroke:#000000;stroke-width:0.8;" x="50.9" xlink:href="#md07fbb2311" y="197.2986"/>
      </g>
     </g>
     <g id="text_6">
      <!-- 0.0 -->
      <g transform="translate(27.996875 201.097819)scale(0.1 -0.1)">
       <use xlink:href="#DejaVuSans-48"/>
       <use x="63.623047" xlink:href="#DejaVuSans-46"/>
       <use x="95.410156" xlink:href="#DejaVuSans-48"/>
      </g>
     </g>
    </g>
    <g id="ytick_6">
     <g id="line2d_13">
      <path clip-path="url(#pd5b7306fa0)" d="M 50.9 143.498241 
L 1104.28 143.498241 
" style="fill:none;stroke:#b0b0b0;stroke-linecap:square;stroke-width:0.8;"/>
     </g>
     <g id="line2d_14">
      <g>
       <use style="stroke:#000000;stroke-width:0.8;" x="50.9" xlink:href="#md07fbb2311" y="143.498241"/>
      </g>
     </g>
     <g id="text_7">
      <!-- 0.1 -->
      <g transform="translate(27.996875 147.297459)scale(0.1 -0.1)">
       <use xlink:href="#DejaVuSans-48"/>
       <use x="63.623047" xlink:href="#DejaVuSans-46"/>
       <use x="95.410156" xlink:href="#DejaVuSans-49"/>
      </g>
     </g>
    </g>
    <g id="ytick_7">
     <g id="line2d_15">
      <path clip-path="url(#pd5b7306fa0)" d="M 50.9 89.697881 
L 1104.28 89.697881 
" style="fill:none;stroke:#b0b0b0;stroke-linecap:square;stroke-width:0.8;"/>
     </g>
     <g id="line2d_16">
      <g>
       <use style="stroke:#000000;stroke-width:0.8;" x="50.9" xlink:href="#md07fbb2311" y="89.697881"/>
      </g>
     </g>
     <g id="text_8">
      <!-- 0.2 -->
      <g transform="translate(27.996875 93.4971)scale(0.1 -0.1)">
       <use xlink:href="#DejaVuSans-48"/>
       <use x="63.623047" xlink:href="#DejaVuSans-46"/>
       <use x="95.410156" xlink:href="#DejaVuSans-50"/>
      </g>
     </g>
    </g>
    <g id="ytick_8">
     <g id="line2d_17">
      <path clip-path="url(#pd5b7306fa0)" d="M 50.9 35.897521 
L 1104.28 35.897521 
" style="fill:none;stroke:#b0b0b0;stroke-linecap:square;stroke-width:0.8;"/>
     </g>
     <g id="line2d_18">
      <g>
       <use style="stroke:#000000;stroke-width:0.8;" x="50.9" xlink:href="#md07fbb2311" y="35.897521"/>
      </g>
     </g>
     <g id="text_9">
      <!-- 0.3 -->
      <g transform="translate(27.996875 39.69674)scale(0.1 -0.1)">
       <use xlink:href="#DejaVuSans-48"/>
       <use x="63.623047" xlink:href="#DejaVuSans-46"/>
       <use x="95.410156" xlink:href="#DejaVuSans-51"/>
      </g>
     </g>
    </g>
    <g id="text_10">
     <!-- RankIC -->
     <g transform="translate(18.309375 242.79625)rotate(-90)scale(0.1 -0.1)">
      <defs>
       <path d="M 44.390625 34.1875 
Q 47.5625 33.109375 50.5625 29.59375 
Q 53.5625 26.078125 56.59375 19.921875 
L 66.609375 0 
L 56 0 
L 46.6875 18.703125 
Q 43.0625 26.03125 39.671875 28.421875 
Q 36.28125 30.8125 30.421875 30.8125 
L 19.671875 30.8125 
L 19.671875 0 
L 9.8125 0 
L 9.8125 72.90625 
L 32.078125 72.90625 
Q 44.578125 72.90625 50.734375 67.671875 
Q 56.890625 62.453125 56.890625 51.90625 
Q 56.890625 45.015625 53.6875 40.46875 
Q 50.484375 35.9375 44.390625 34.1875 
z
M 19.671875 64.796875 
L 19.671875 38.921875 
L 32.078125 38.921875 
Q 39.203125 38.921875 42.84375 42.21875 
Q 46.484375 45.515625 46.484375 51.90625 
Q 46.484375 58.296875 42.84375 61.546875 
Q 39.203125 64.796875 32.078125 64.796875 
z
" id="DejaVuSans-82"/>
       <path d="M 34.28125 27.484375 
Q 23.390625 27.484375 19.1875 25 
Q 14.984375 22.515625 14.984375 16.5 
Q 14.984375 11.71875 18.140625 8.90625 
Q 21.296875 6.109375 26.703125 6.109375 
Q 34.1875 6.109375 38.703125 11.40625 
Q 43.21875 16.703125 43.21875 25.484375 
L 43.21875 27.484375 
z
M 52.203125 31.203125 
L 52.203125 0 
L 43.21875 0 
L 43.21875 8.296875 
Q 40.140625 3.328125 35.546875 0.953125 
Q 30.953125 -1.421875 24.3125 -1.421875 
Q 15.921875 -1.421875 10.953125 3.296875 
Q 6 8.015625 6 15.921875 
Q 6 25.140625 12.171875 29.828125 
Q 18.359375 34.515625 30.609375 34.515625 
L 43.21875 34.515625 
L 43.21875 35.40625 
Q 43.21875 41.609375 39.140625 45 
Q 35.0625 48.390625 27.6875 48.390625 
Q 23 48.390625 18.546875 47.265625 
Q 14.109375 46.140625 10.015625 43.890625 
L 10.015625 52.203125 
Q 14.9375 54.109375 19.578125 55.046875 
Q 24.21875 56 28.609375 56 
Q 40.484375 56 46.34375 49.84375 
Q 52.203125 43.703125 52.203125 31.203125 
z
" id="DejaVuSans-97"/>
       <path d="M 54.890625 33.015625 
L 54.890625 0 
L 45.90625 0 
L 45.90625 32.71875 
Q 45.90625 40.484375 42.875 44.328125 
Q 39.84375 48.1875 33.796875 48.1875 
Q 26.515625 48.1875 22.3125 43.546875 
Q 18.109375 38.921875 18.109375 30.90625 
L 18.109375 0 
L 9.078125 0 
L 9.078125 54.6875 
L 18.109375 54.6875 
L 18.109375 46.1875 
Q 21.34375 51.125 25.703125 53.5625 
Q 30.078125 56 35.796875 56 
Q 45.21875 56 50.046875 50.171875 
Q 54.890625 44.34375 54.890625 33.015625 
z
" id="DejaVuSans-110"/>
       <path d="M 9.078125 75.984375 
L 18.109375 75.984375 
L 18.109375 31.109375 
L 44.921875 54.6875 
L 56.390625 54.6875 
L 27.390625 29.109375 
L 57.625 0 
L 45.90625 0 
L 18.109375 26.703125 
L 18.109375 0 
L 9.078125 0 
z
" id="DejaVuSans-107"/>
       <path d="M 9.8125 72.90625 
L 19.671875 72.90625 
L 19.671875 0 
L 9.8125 0 
z
" id="DejaVuSans-73"/>
       <path d="M 64.40625 67.28125 
L 64.40625 56.890625 
Q 59.421875 61.53125 53.78125 63.8125 
Q 48.140625 66.109375 41.796875 66.109375 
Q 29.296875 66.109375 22.65625 58.46875 
Q 16.015625 50.828125 16.015625 36.375 
Q 16.015625 21.96875 22.65625 14.328125 
Q 29.296875 6.6875 41.796875 6.6875 
Q 48.140625 6.6875 53.78125 8.984375 
Q 59.421875 11.28125 64.40625 15.921875 
L 64.40625 5.609375 
Q 59.234375 2.09375 53.4375 0.328125 
Q 47.65625 -1.421875 41.21875 -1.421875 
Q 24.65625 -1.421875 15.125 8.703125 
Q 5.609375 18.84375 5.609375 36.375 
Q 5.609375 53.953125 15.125 64.078125 
Q 24.65625 74.21875 41.21875 74.21875 
Q 47.75 74.21875 53.53125 72.484375 
Q 59.328125 70.75 64.40625 67.28125 
z
" id="DejaVuSans-67"/>
      </defs>
      <use xlink:href="#DejaVuSans-82"/>
      <use x="67.232422" xlink:href="#DejaVuSans-97"/>
      <use x="128.511719" xlink:href="#DejaVuSans-110"/>
      <use x="191.890625" xlink:href="#DejaVuSans-107"/>
      <use x="249.800781" xlink:href="#DejaVuSans-73"/>
      <use x="279.292969" xlink:href="#DejaVuSans-67"/>
     </g>
    </g>
   </g>
   <g id="line2d_19">
    <path clip-path="url(#pd5b7306fa0)" d="M 50.9 219.521033 
L 1104.28 219.521033 
" style="fill:none;stroke:#800080;stroke-dasharray:7.4,3.2;stroke-dashoffset:0;stroke-width:2;"/>
   </g>
   <g id="patch_43">
    <path d="M 50.9 424.76 
L 50.9 25.92 
" style="fill:none;stroke:#000000;stroke-linecap:square;stroke-linejoin:miter;stroke-width:0.8;"/>
   </g>
   <g id="patch_44">
    <path d="M 1104.28 424.76 
L 1104.28 25.92 
" style="fill:none;stroke:#000000;stroke-linecap:square;stroke-linejoin:miter;stroke-width:0.8;"/>
   </g>
   <g id="patch_45">
    <path d="M 50.9 424.76 
L 1104.28 424.76 
" style="fill:none;stroke:#000000;stroke-linecap:square;stroke-linejoin:miter;stroke-width:0.8;"/>
   </g>
   <g id="patch_46">
    <path d="M 50.9 25.92 
L 1104.28 25.92 
" style="fill:none;stroke:#000000;stroke-linecap:square;stroke-linejoin:miter;stroke-width:0.8;"/>
   </g>
   <g id="legend_1">
    <g id="patch_47">
     <path d="M 57.9 63.27625 
L 194.5 63.27625 
Q 196.5 63.27625 196.5 61.27625 
L 196.5 32.92 
Q 196.5 30.92 194.5 30.92 
L 57.9 30.92 
Q 55.9 30.92 55.9 32.92 
L 55.9 61.27625 
Q 55.9 63.27625 57.9 63.27625 
z
" style="fill:#ffffff;opacity:0.8;stroke:#cccccc;stroke-linejoin:miter;"/>
    </g>
    <g id="patch_48">
     <path d="M 59.9 42.518438 
L 79.9 42.518438 
L 79.9 35.518438 
L 59.9 35.518438 
z
" style="fill:#1f77b4;"/>
    </g>
    <g id="text_11">
     <!-- weekly RankIC mean -->
     <g transform="translate(87.9 42.518438)scale(0.1 -0.1)">
      <defs>
       <path d="M 4.203125 54.6875 
L 13.1875 54.6875 
L 24.421875 12.015625 
L 35.59375 54.6875 
L 46.1875 54.6875 
L 57.421875 12.015625 
L 68.609375 54.6875 
L 77.59375 54.6875 
L 63.28125 0 
L 52.6875 0 
L 40.921875 44.828125 
L 29.109375 0 
L 18.5 0 
z
" id="DejaVuSans-119"/>
       <path d="M 56.203125 29.59375 
L 56.203125 25.203125 
L 14.890625 25.203125 
Q 15.484375 15.921875 20.484375 11.0625 
Q 25.484375 6.203125 34.421875 6.203125 
Q 39.59375 6.203125 44.453125 7.46875 
Q 49.3125 8.734375 54.109375 11.28125 
L 54.109375 2.78125 
Q 49.265625 0.734375 44.1875 -0.34375 
Q 39.109375 -1.421875 33.890625 -1.421875 
Q 20.796875 -1.421875 13.15625 6.1875 
Q 5.515625 13.8125 5.515625 26.8125 
Q 5.515625 40.234375 12.765625 48.109375 
Q 20.015625 56 32.328125 56 
Q 43.359375 56 49.78125 48.890625 
Q 56.203125 41.796875 56.203125 29.59375 
z
M 47.21875 32.234375 
Q 47.125 39.59375 43.09375 43.984375 
Q 39.0625 48.390625 32.421875 48.390625 
Q 24.90625 48.390625 20.390625 44.140625 
Q 15.875 39.890625 15.1875 32.171875 
z
" id="DejaVuSans-101"/>
       <path d="M 9.421875 75.984375 
L 18.40625 75.984375 
L 18.40625 0 
L 9.421875 0 
z
" id="DejaVuSans-108"/>
       <path d="M 32.171875 -5.078125 
Q 28.375 -14.84375 24.75 -17.8125 
Q 21.140625 -20.796875 15.09375 -20.796875 
L 7.90625 -20.796875 
L 7.90625 -13.28125 
L 13.1875 -13.28125 
Q 16.890625 -13.28125 18.9375 -11.515625 
Q 21 -9.765625 23.484375 -3.21875 
L 25.09375 0.875 
L 2.984375 54.6875 
L 12.5 54.6875 
L 29.59375 11.921875 
L 46.6875 54.6875 
L 56.203125 54.6875 
z
" id="DejaVuSans-121"/>
       <path id="DejaVuSans-32"/>
       <path d="M 52 44.1875 
Q 55.375 50.25 60.0625 53.125 
Q 64.75 56 71.09375 56 
Q 79.640625 56 84.28125 50.015625 
Q 88.921875 44.046875 88.921875 33.015625 
L 88.921875 0 
L 79.890625 0 
L 79.890625 32.71875 
Q 79.890625 40.578125 77.09375 44.375 
Q 74.3125 48.1875 68.609375 48.1875 
Q 61.625 48.1875 57.5625 43.546875 
Q 53.515625 38.921875 53.515625 30.90625 
L 53.515625 0 
L 44.484375 0 
L 44.484375 32.71875 
Q 44.484375 40.625 41.703125 44.40625 
Q 38.921875 48.1875 33.109375 48.1875 
Q 26.21875 48.1875 22.15625 43.53125 
Q 18.109375 38.875 18.109375 30.90625 
L 18.109375 0 
L 9.078125 0 
L 9.078125 54.6875 
L 18.109375 54.6875 
L 18.109375 46.1875 
Q 21.1875 51.21875 25.484375 53.609375 
Q 29.78125 56 35.6875 56 
Q 41.65625 56 45.828125 52.96875 
Q 50 49.953125 52 44.1875 
z
" id="DejaVuSans-109"/>
      </defs>
      <use xlink:href="#DejaVuSans-119"/>
      <use x="81.787109" xlink:href="#DejaVuSans-101"/>
      <use x="143.310547" xlink:href="#DejaVuSans-101"/>
      <use x="204.833984" xlink:href="#DejaVuSans-107"/>
      <use x="262.744141" xlink:href="#DejaVuSans-108"/>
      <use x="290.527344" xlink:href="#DejaVuSans-121"/>
      <use x="349.707031" xlink:href="#DejaVuSans-32"/>
      <use x="381.494141" xlink:href="#DejaVuSans-82"/>
      <use x="448.726562" xlink:href="#DejaVuSans-97"/>
      <use x="510.005859" xlink:href="#DejaVuSans-110"/>
      <use x="573.384766" xlink:href="#DejaVuSans-107"/>
      <use x="631.294922" xlink:href="#DejaVuSans-73"/>
      <use x="660.787109" xlink:href="#DejaVuSans-67"/>
      <use x="730.611328" xlink:href="#DejaVuSans-32"/>
      <use x="762.398438" xlink:href="#DejaVuSans-109"/>
      <use x="859.810547" xlink:href="#DejaVuSans-101"/>
      <use x="921.333984" xlink:href="#DejaVuSans-97"/>
      <use x="982.613281" xlink:href="#DejaVuSans-110"/>
     </g>
    </g>
    <g id="line2d_20">
     <path d="M 59.9 53.696563 
L 79.9 53.696563 
" style="fill:none;stroke:#800080;stroke-dasharray:7.4,3.2;stroke-dashoffset:0;stroke-width:2;"/>
    </g>
    <g id="line2d_21"/>
    <g id="text_12">
     <!-- RankIC mean -->
     <g transform="translate(87.9 57.196563)scale(0.1 -0.1)">
      <use xlink:href="#DejaVuSans-82"/>
      <use x="67.232422" xlink:href="#DejaVuSans-97"/>
      <use x="128.511719" xlink:href="#DejaVuSans-110"/>
      <use x="191.890625" xlink:href="#DejaVuSans-107"/>
      <use x="249.800781" xlink:href="#DejaVuSans-73"/>
      <use x="279.292969" xlink:href="#DejaVuSans-67"/>
      <use x="349.117188" xlink:href="#DejaVuSans-32"/>
      <use x="380.904297" xlink:href="#DejaVuSans-109"/>
      <use x="478.316406" xlink:href="#DejaVuSans-101"/>
      <use x="539.839844" xlink:href="#DejaVuSans-97"/>
      <use x="601.119141" xlink:href="#DejaVuSans-110"/>
     </g>
    </g>
   </g>
  </g>
  <g id="axes_2">
   <g id="matplotlib.axis_3">
    <g id="ytick_9">
     <g id="line2d_22">
      <defs>
       <path d="M 0 0 
L 3.5 0 
" id="m7b7e55cf98" style="stroke:#000000;stroke-width:0.8;"/>
      </defs>
      <g>
       <use style="stroke:#000000;stroke-width:0.8;" x="1104.28" xlink:href="#m7b7e55cf98" y="419.91435"/>
      </g>
     </g>
     <g id="text_13">
      <!-- -10 -->
      <g transform="translate(1111.28 423.713569)scale(0.1 -0.1)">
       <use xlink:href="#DejaVuSans-45"/>
       <use x="36.083984" xlink:href="#DejaVuSans-49"/>
       <use x="99.707031" xlink:href="#DejaVuSans-48"/>
      </g>
     </g>
    </g>
    <g id="ytick_10">
     <g id="line2d_23">
      <g>
       <use style="stroke:#000000;stroke-width:0.8;" x="1104.28" xlink:href="#m7b7e55cf98" y="358.174412"/>
      </g>
     </g>
     <g id="text_14">
      <!-- -8 -->
      <g transform="translate(1111.28 361.973631)scale(0.1 -0.1)">
       <defs>
        <path d="M 31.78125 34.625 
Q 24.75 34.625 20.71875 30.859375 
Q 16.703125 27.09375 16.703125 20.515625 
Q 16.703125 13.921875 20.71875 10.15625 
Q 24.75 6.390625 31.78125 6.390625 
Q 38.8125 6.390625 42.859375 10.171875 
Q 46.921875 13.96875 46.921875 20.515625 
Q 46.921875 27.09375 42.890625 30.859375 
Q 38.875 34.625 31.78125 34.625 
z
M 21.921875 38.8125 
Q 15.578125 40.375 12.03125 44.71875 
Q 8.5 49.078125 8.5 55.328125 
Q 8.5 64.0625 14.71875 69.140625 
Q 20.953125 74.21875 31.78125 74.21875 
Q 42.671875 74.21875 48.875 69.140625 
Q 55.078125 64.0625 55.078125 55.328125 
Q 55.078125 49.078125 51.53125 44.71875 
Q 48 40.375 41.703125 38.8125 
Q 48.828125 37.15625 52.796875 32.3125 
Q 56.78125 27.484375 56.78125 20.515625 
Q 56.78125 9.90625 50.3125 4.234375 
Q 43.84375 -1.421875 31.78125 -1.421875 
Q 19.734375 -1.421875 13.25 4.234375 
Q 6.78125 9.90625 6.78125 20.515625 
Q 6.78125 27.484375 10.78125 32.3125 
Q 14.796875 37.15625 21.921875 38.8125 
z
M 18.3125 54.390625 
Q 18.3125 48.734375 21.84375 45.5625 
Q 25.390625 42.390625 31.78125 42.390625 
Q 38.140625 42.390625 41.71875 45.5625 
Q 45.3125 48.734375 45.3125 54.390625 
Q 45.3125 60.0625 41.71875 63.234375 
Q 38.140625 66.40625 31.78125 66.40625 
Q 25.390625 66.40625 21.84375 63.234375 
Q 18.3125 60.0625 18.3125 54.390625 
z
" id="DejaVuSans-56"/>
       </defs>
       <use xlink:href="#DejaVuSans-45"/>
       <use x="36.083984" xlink:href="#DejaVuSans-56"/>
      </g>
     </g>
    </g>
    <g id="ytick_11">
     <g id="line2d_24">
      <g>
       <use style="stroke:#000000;stroke-width:0.8;" x="1104.28" xlink:href="#m7b7e55cf98" y="296.434474"/>
      </g>
     </g>
     <g id="text_15">
      <!-- -6 -->
      <g transform="translate(1111.28 300.233693)scale(0.1 -0.1)">
       <defs>
        <path d="M 33.015625 40.375 
Q 26.375 40.375 22.484375 35.828125 
Q 18.609375 31.296875 18.609375 23.390625 
Q 18.609375 15.53125 22.484375 10.953125 
Q 26.375 6.390625 33.015625 6.390625 
Q 39.65625 6.390625 43.53125 10.953125 
Q 47.40625 15.53125 47.40625 23.390625 
Q 47.40625 31.296875 43.53125 35.828125 
Q 39.65625 40.375 33.015625 40.375 
z
M 52.59375 71.296875 
L 52.59375 62.3125 
Q 48.875 64.0625 45.09375 64.984375 
Q 41.3125 65.921875 37.59375 65.921875 
Q 27.828125 65.921875 22.671875 59.328125 
Q 17.53125 52.734375 16.796875 39.40625 
Q 19.671875 43.65625 24.015625 45.921875 
Q 28.375 48.1875 33.59375 48.1875 
Q 44.578125 48.1875 50.953125 41.515625 
Q 57.328125 34.859375 57.328125 23.390625 
Q 57.328125 12.15625 50.6875 5.359375 
Q 44.046875 -1.421875 33.015625 -1.421875 
Q 20.359375 -1.421875 13.671875 8.265625 
Q 6.984375 17.96875 6.984375 36.375 
Q 6.984375 53.65625 15.1875 63.9375 
Q 23.390625 74.21875 37.203125 74.21875 
Q 40.921875 74.21875 44.703125 73.484375 
Q 48.484375 72.75 52.59375 71.296875 
z
" id="DejaVuSans-54"/>
       </defs>
       <use xlink:href="#DejaVuSans-45"/>
       <use x="36.083984" xlink:href="#DejaVuSans-54"/>
      </g>
     </g>
    </g>
    <g id="ytick_12">
     <g id="line2d_25">
      <g>
       <use style="stroke:#000000;stroke-width:0.8;" x="1104.28" xlink:href="#m7b7e55cf98" y="234.694536"/>
      </g>
     </g>
     <g id="text_16">
      <!-- -4 -->
      <g transform="translate(1111.28 238.493755)scale(0.1 -0.1)">
       <use xlink:href="#DejaVuSans-45"/>
       <use x="36.083984" xlink:href="#DejaVuSans-52"/>
      </g>
     </g>
    </g>
    <g id="ytick_13">
     <g id="line2d_26">
      <g>
       <use style="stroke:#000000;stroke-width:0.8;" x="1104.28" xlink:href="#m7b7e55cf98" y="172.954598"/>
      </g>
     </g>
     <g id="text_17">
      <!-- -2 -->
      <g transform="translate(1111.28 176.753817)scale(0.1 -0.1)">
       <use xlink:href="#DejaVuSans-45"/>
       <use x="36.083984" xlink:href="#DejaVuSans-50"/>
      </g>
     </g>
    </g>
    <g id="ytick_14">
     <g id="line2d_27">
      <g>
       <use style="stroke:#000000;stroke-width:0.8;" x="1104.28" xlink:href="#m7b7e55cf98" y="111.21466"/>
      </g>
     </g>
     <g id="text_18">
      <!-- 0 -->
      <g transform="translate(1111.28 115.013879)scale(0.1 -0.1)">
       <use xlink:href="#DejaVuSans-48"/>
      </g>
     </g>
    </g>
    <g id="ytick_15">
     <g id="line2d_28">
      <g>
       <use style="stroke:#000000;stroke-width:0.8;" x="1104.28" xlink:href="#m7b7e55cf98" y="49.474722"/>
      </g>
     </g>
     <g id="text_19">
      <!-- 2 -->
      <g transform="translate(1111.28 53.273941)scale(0.1 -0.1)">
       <use xlink:href="#DejaVuSans-50"/>
      </g>
     </g>
    </g>
    <g id="text_20">
     <!-- IC cumsum -->
     <g transform="translate(1139.21125 253.3275)rotate(-90)scale(0.1 -0.1)">
      <defs>
       <path d="M 48.78125 52.59375 
L 48.78125 44.1875 
Q 44.96875 46.296875 41.140625 47.34375 
Q 37.3125 48.390625 33.40625 48.390625 
Q 24.65625 48.390625 19.8125 42.84375 
Q 14.984375 37.3125 14.984375 27.296875 
Q 14.984375 17.28125 19.8125 11.734375 
Q 24.65625 6.203125 33.40625 6.203125 
Q 37.3125 6.203125 41.140625 7.25 
Q 44.96875 8.296875 48.78125 10.40625 
L 48.78125 2.09375 
Q 45.015625 0.34375 40.984375 -0.53125 
Q 36.96875 -1.421875 32.421875 -1.421875 
Q 20.0625 -1.421875 12.78125 6.34375 
Q 5.515625 14.109375 5.515625 27.296875 
Q 5.515625 40.671875 12.859375 48.328125 
Q 20.21875 56 33.015625 56 
Q 37.15625 56 41.109375 55.140625 
Q 45.0625 54.296875 48.78125 52.59375 
z
" id="DejaVuSans-99"/>
       <path d="M 8.5 21.578125 
L 8.5 54.6875 
L 17.484375 54.6875 
L 17.484375 21.921875 
Q 17.484375 14.15625 20.5 10.265625 
Q 23.53125 6.390625 29.59375 6.390625 
Q 36.859375 6.390625 41.078125 11.03125 
Q 45.3125 15.671875 45.3125 23.6875 
L 45.3125 54.6875 
L 54.296875 54.6875 
L 54.296875 0 
L 45.3125 0 
L 45.3125 8.40625 
Q 42.046875 3.421875 37.71875 1 
Q 33.40625 -1.421875 27.6875 -1.421875 
Q 18.265625 -1.421875 13.375 4.4375 
Q 8.5 10.296875 8.5 21.578125 
z
M 31.109375 56 
z
" id="DejaVuSans-117"/>
       <path d="M 44.28125 53.078125 
L 44.28125 44.578125 
Q 40.484375 46.53125 36.375 47.5 
Q 32.28125 48.484375 27.875 48.484375 
Q 21.1875 48.484375 17.84375 46.4375 
Q 14.5 44.390625 14.5 40.28125 
Q 14.5 37.15625 16.890625 35.375 
Q 19.28125 33.59375 26.515625 31.984375 
L 29.59375 31.296875 
Q 39.15625 29.25 43.1875 25.515625 
Q 47.21875 21.78125 47.21875 15.09375 
Q 47.21875 7.46875 41.1875 3.015625 
Q 35.15625 -1.421875 24.609375 -1.421875 
Q 20.21875 -1.421875 15.453125 -0.5625 
Q 10.6875 0.296875 5.421875 2 
L 5.421875 11.28125 
Q 10.40625 8.6875 15.234375 7.390625 
Q 20.0625 6.109375 24.8125 6.109375 
Q 31.15625 6.109375 34.5625 8.28125 
Q 37.984375 10.453125 37.984375 14.40625 
Q 37.984375 18.0625 35.515625 20.015625 
Q 33.0625 21.96875 24.703125 23.78125 
L 21.578125 24.515625 
Q 13.234375 26.265625 9.515625 29.90625 
Q 5.8125 33.546875 5.8125 39.890625 
Q 5.8125 47.609375 11.28125 51.796875 
Q 16.75 56 26.8125 56 
Q 31.78125 56 36.171875 55.265625 
Q 40.578125 54.546875 44.28125 53.078125 
z
" id="DejaVuSans-115"/>
      </defs>
      <use xlink:href="#DejaVuSans-73"/>
      <use x="29.492188" xlink:href="#DejaVuSans-67"/>
      <use x="99.316406" xlink:href="#DejaVuSans-32"/>
      <use x="131.103516" xlink:href="#DejaVuSans-99"/>
      <use x="186.083984" xlink:href="#DejaVuSans-117"/>
      <use x="249.462891" xlink:href="#DejaVuSans-109"/>
      <use x="346.875" xlink:href="#DejaVuSans-115"/>
      <use x="398.974609" xlink:href="#DejaVuSans-117"/>
      <use x="462.353516" xlink:href="#DejaVuSans-109"/>
     </g>
    </g>
   </g>
   <g id="line2d_29">
    <path clip-path="url(#pd5b7306fa0)" d="M 98.780909 106.16321 
L 102.301564 114.582293 
L 105.822219 108.782481 
L 109.342874 120.195015 
L 112.863529 123.375557 
L 123.425495 125.059373 
L 126.94615 133.104274 
L 130.466805 135.536454 
L 133.98746 116.640291 
L 137.508115 104.479394 
L 148.07008 121.878831 
L 151.590735 114.208111 
L 155.11139 125.246464 
L 158.632045 111.588841 
L 162.152701 100.550489 
L 172.714666 109.343753 
L 176.235321 112.524295 
L 179.755976 117.949926 
L 183.276631 109.156662 
L 186.797286 95.873221 
L 197.359251 100.92467 
L 200.879906 99.240854 
L 204.400561 97.182856 
L 207.921217 74.544879 
L 211.441872 78.473784 
L 222.003837 85.021959 
L 225.524492 98.3054 
L 229.045147 99.989217 
L 232.565802 93.441041 
L 236.086457 108.59539 
L 246.648422 91.195953 
L 250.169078 88.389592 
L 253.689733 70.241792 
L 257.210388 63.319435 
L 260.731043 66.874159 
L 271.293008 64.067798 
L 274.813663 60.138893 
L 278.334318 53.216536 
L 281.854973 57.519623 
L 285.375628 54.713262 
L 295.937594 62.383982 
L 299.458249 68.932157 
L 302.978904 80.718872 
L 306.499559 85.021959 
L 310.020214 94.563586 
L 320.582179 95.124858 
L 324.102834 87.82832 
L 327.623489 70.428883 
L 331.144144 66.125796 
L 334.664799 50.597266 
L 345.226765 52.655264 
L 348.74742 65.938705 
L 352.268075 68.745066 
L 355.78873 64.816161 
L 359.309385 44.049091 
L 369.87135 54.339081 
L 373.392005 58.267986 
L 376.91266 55.087443 
L 380.433316 71.738518 
L 383.953971 69.68052 
L 394.515936 68.745066 
L 398.036591 80.905963 
L 401.557246 87.82832 
L 405.077901 73.048153 
L 408.598556 81.467235 
L 419.160521 95.499039 
L 422.681176 93.441041 
L 426.201832 97.744128 
L 429.722487 97.557037 
L 433.243142 104.105212 
L 443.805107 114.021021 
L 447.325762 122.814285 
L 450.846417 124.12392 
L 454.367072 106.350301 
L 457.887727 98.679582 
L 468.449693 95.873221 
L 471.970348 97.931219 
L 475.491003 87.641229 
L 479.011658 70.990155 
L 482.532313 80.1576 
L 493.094278 77.725421 
L 496.614933 76.041604 
L 500.135588 78.099602 
L 503.656243 74.544879 
L 507.176898 90.073408 
L 517.738864 107.847027 
L 521.259519 103.918122 
L 524.780174 95.499039 
L 528.300829 111.775932 
L 531.821484 105.227757 
L 542.383449 110.653388 
L 545.904104 127.678643 
L 549.424759 130.110823 
L 552.945414 135.162272 
L 556.46607 134.975182 
L 567.028035 152.7488 
L 570.54869 155.555161 
L 574.069345 157.613159 
L 577.59 155.180979 
L 581.110655 164.348425 
L 591.67262 161.167883 
L 595.193275 171.083691 
L 598.71393 188.857309 
L 602.234586 195.405485 
L 605.755241 212.804922 
L 616.317206 215.237101 
L 619.837861 225.152909 
L 623.358516 228.707633 
L 626.879171 223.656184 
L 630.399826 227.95927 
L 640.961791 244.610344 
L 644.482447 250.784338 
L 648.003102 247.603796 
L 651.523757 239.933076 
L 655.044412 233.384901 
L 665.606377 232.449447 
L 669.127032 221.411095 
L 672.647687 206.630928 
L 676.168342 203.824567 
L 679.688997 201.766569 
L 690.250963 204.57293 
L 693.771618 202.514932 
L 697.292273 216.920918 
L 700.812928 227.95927 
L 704.333583 240.86853 
L 714.895548 223.094911 
L 718.416203 218.791825 
L 721.936858 228.707633 
L 725.457513 237.126715 
L 728.978168 242.178165 
L 739.540134 251.34561 
L 743.060789 257.145423 
L 746.581444 243.861981 
L 750.102099 243.674891 
L 753.622754 245.358707 
L 764.184719 245.919979 
L 767.705374 243.113619 
L 771.226029 269.49341 
L 778.26734 305.414829 
L 788.829305 313.45973 
L 792.34996 327.491534 
L 795.870615 336.658979 
L 799.39127 343.581336 
L 802.911925 345.265152 
L 813.47389 345.452243 
L 816.994545 340.400794 
L 820.515201 334.975163 
L 824.035856 342.645882 
L 827.556511 349.94242 
L 838.118476 343.768427 
L 841.639131 334.975163 
L 845.159786 334.039709 
L 848.680441 335.723526 
L 852.201096 335.536435 
L 862.763061 336.097707 
L 866.283717 335.536435 
L 869.804372 343.581336 
L 873.325027 348.258604 
L 876.845682 357.426049 
L 887.407647 372.954579 
L 890.928302 395.592557 
L 894.448957 397.276373 
L 897.969612 392.224924 
L 901.490267 395.779647 
L 912.052233 395.218375 
L 915.572888 384.928385 
L 919.093543 379.128573 
L 922.614198 392.037833 
L 926.134853 390.354016 
L 936.696818 396.52801 
L 940.217473 395.592557 
L 943.738128 406.630909 
L 947.258783 392.599105 
L 950.779439 380.81239 
L 961.341404 375.386759 
L 964.862059 379.315664 
L 968.382714 373.14167 
L 971.903369 371.083672 
L 975.424024 355.929324 
L 985.985989 365.47095 
L 989.506644 360.793682 
L 993.027299 370.709491 
L 996.547955 376.135121 
L 1000.06861 387.547656 
L 1010.630575 377.257666 
L 1014.15123 371.083672 
L 1017.671885 373.515851 
L 1021.19254 357.61314 
L 1024.713195 361.542045 
L 1035.27516 354.99387 
L 1038.795816 361.542045 
L 1042.316471 354.99387 
L 1045.837126 370.896581 
L 1049.357781 359.858229 
L 1049.357781 359.858229 
" style="fill:none;stroke:#ff0000;stroke-linecap:square;stroke-width:1.5;"/>
   </g>
   <g id="patch_49">
    <path d="M 50.9 424.76 
L 50.9 25.92 
" style="fill:none;stroke:#000000;stroke-linecap:square;stroke-linejoin:miter;stroke-width:0.8;"/>
   </g>
   <g id="patch_50">
    <path d="M 1104.28 424.76 
L 1104.28 25.92 
" style="fill:none;stroke:#000000;stroke-linecap:square;stroke-linejoin:miter;stroke-width:0.8;"/>
   </g>
   <g id="patch_51">
    <path d="M 50.9 424.76 
L 1104.28 424.76 
" style="fill:none;stroke:#000000;stroke-linecap:square;stroke-linejoin:miter;stroke-width:0.8;"/>
   </g>
   <g id="patch_52">
    <path d="M 50.9 25.92 
L 1104.28 25.92 
" style="fill:none;stroke:#000000;stroke-linecap:square;stroke-linejoin:miter;stroke-width:0.8;"/>
   </g>
   <g id="legend_2">
    <g id="patch_53">
     <path d="M 957.195625 48.598125 
L 1097.28 48.598125 
Q 1099.28 48.598125 1099.28 46.598125 
L 1099.28 32.92 
Q 1099.28 30.92 1097.28 30.92 
L 957.195625 30.92 
Q 955.195625 30.92 955.195625 32.92 
L 955.195625 46.598125 
Q 955.195625 48.598125 957.195625 48.598125 
z
" style="fill:#ffffff;opacity:0.8;stroke:#cccccc;stroke-linejoin:miter;"/>
    </g>
    <g id="line2d_30">
     <path d="M 959.195625 39.018438 
L 979.195625 39.018438 
" style="fill:none;stroke:#ff0000;stroke-linecap:square;stroke-width:1.5;"/>
    </g>
    <g id="line2d_31"/>
    <g id="text_21">
     <!-- daily RankIC cumsum -->
     <g transform="translate(987.195625 42.518438)scale(0.1 -0.1)">
      <defs>
       <path d="M 45.40625 46.390625 
L 45.40625 75.984375 
L 54.390625 75.984375 
L 54.390625 0 
L 45.40625 0 
L 45.40625 8.203125 
Q 42.578125 3.328125 38.25 0.953125 
Q 33.9375 -1.421875 27.875 -1.421875 
Q 17.96875 -1.421875 11.734375 6.484375 
Q 5.515625 14.40625 5.515625 27.296875 
Q 5.515625 40.1875 11.734375 48.09375 
Q 17.96875 56 27.875 56 
Q 33.9375 56 38.25 53.625 
Q 42.578125 51.265625 45.40625 46.390625 
z
M 14.796875 27.296875 
Q 14.796875 17.390625 18.875 11.75 
Q 22.953125 6.109375 30.078125 6.109375 
Q 37.203125 6.109375 41.296875 11.75 
Q 45.40625 17.390625 45.40625 27.296875 
Q 45.40625 37.203125 41.296875 42.84375 
Q 37.203125 48.484375 30.078125 48.484375 
Q 22.953125 48.484375 18.875 42.84375 
Q 14.796875 37.203125 14.796875 27.296875 
z
" id="DejaVuSans-100"/>
       <path d="M 9.421875 54.6875 
L 18.40625 54.6875 
L 18.40625 0 
L 9.421875 0 
z
M 9.421875 75.984375 
L 18.40625 75.984375 
L 18.40625 64.59375 
L 9.421875 64.59375 
z
" id="DejaVuSans-105"/>
      </defs>
      <use xlink:href="#DejaVuSans-100"/>
      <use x="63.476562" xlink:href="#DejaVuSans-97"/>
      <use x="124.755859" xlink:href="#DejaVuSans-105"/>
      <use x="152.539062" xlink:href="#DejaVuSans-108"/>
      <use x="180.322266" xlink:href="#DejaVuSans-121"/>
      <use x="239.501953" xlink:href="#DejaVuSans-32"/>
      <use x="271.289062" xlink:href="#DejaVuSans-82"/>
      <use x="338.521484" xlink:href="#DejaVuSans-97"/>
      <use x="399.800781" xlink:href="#DejaVuSans-110"/>
      <use x="463.179688" xlink:href="#DejaVuSans-107"/>
      <use x="521.089844" xlink:href="#DejaVuSans-73"/>
      <use x="550.582031" xlink:href="#DejaVuSans-67"/>
      <use x="620.40625" xlink:href="#DejaVuSans-32"/>
      <use x="652.193359" xlink:href="#DejaVuSans-99"/>
      <use x="707.173828" xlink:href="#DejaVuSans-117"/>
      <use x="770.552734" xlink:href="#DejaVuSans-109"/>
      <use x="867.964844" xlink:href="#DejaVuSans-115"/>
      <use x="920.064453" xlink:href="#DejaVuSans-117"/>
      <use x="983.443359" xlink:href="#DejaVuSans-109"/>
     </g>
    </g>
   </g>
  </g>
  <g id="axes_3">
   <g id="matplotlib.axis_4">
    <g id="ytick_16">
     <g id="line2d_32">
      <g>
       <use style="stroke:#000000;stroke-width:0.8;" x="1104.28" xlink:href="#m7b7e55cf98" y="424.76"/>
      </g>
     </g>
    </g>
    <g id="ytick_17">
     <g id="line2d_33">
      <g>
       <use style="stroke:#000000;stroke-width:0.8;" x="1104.28" xlink:href="#m7b7e55cf98" y="344.992"/>
      </g>
     </g>
    </g>
    <g id="ytick_18">
     <g id="line2d_34">
      <g>
       <use style="stroke:#000000;stroke-width:0.8;" x="1104.28" xlink:href="#m7b7e55cf98" y="265.224"/>
      </g>
     </g>
    </g>
    <g id="ytick_19">
     <g id="line2d_35">
      <g>
       <use style="stroke:#000000;stroke-width:0.8;" x="1104.28" xlink:href="#m7b7e55cf98" y="185.456"/>
      </g>
     </g>
    </g>
    <g id="ytick_20">
     <g id="line2d_36">
      <g>
       <use style="stroke:#000000;stroke-width:0.8;" x="1104.28" xlink:href="#m7b7e55cf98" y="105.688"/>
      </g>
     </g>
    </g>
    <g id="ytick_21">
     <g id="line2d_37">
      <g>
       <use style="stroke:#000000;stroke-width:0.8;" x="1104.28" xlink:href="#m7b7e55cf98" y="25.92"/>
      </g>
     </g>
    </g>
   </g>
   <g id="patch_54">
    <path d="M 50.9 424.76 
L 50.9 25.92 
" style="fill:none;stroke:#000000;stroke-linecap:square;stroke-linejoin:miter;stroke-width:0.8;"/>
   </g>
   <g id="patch_55">
    <path d="M 1104.28 424.76 
L 1104.28 25.92 
" style="fill:none;stroke:#000000;stroke-linecap:square;stroke-linejoin:miter;stroke-width:0.8;"/>
   </g>
   <g id="patch_56">
    <path d="M 50.9 424.76 
L 1104.28 424.76 
" style="fill:none;stroke:#000000;stroke-linecap:square;stroke-linejoin:miter;stroke-width:0.8;"/>
   </g>
   <g id="patch_57">
    <path d="M 50.9 25.92 
L 1104.28 25.92 
" style="fill:none;stroke:#000000;stroke-linecap:square;stroke-linejoin:miter;stroke-width:0.8;"/>
   </g>
   <g id="text_22">
    <!-- RankIC: (2010-01-04 ~ 2010-10-08) -->
    <g transform="translate(469.452187 19.92)scale(0.12 -0.12)">
     <defs>
      <path d="M 11.71875 12.40625 
L 22.015625 12.40625 
L 22.015625 0 
L 11.71875 0 
z
M 11.71875 51.703125 
L 22.015625 51.703125 
L 22.015625 39.3125 
L 11.71875 39.3125 
z
" id="DejaVuSans-58"/>
      <path d="M 31 75.875 
Q 24.46875 64.65625 21.28125 53.65625 
Q 18.109375 42.671875 18.109375 31.390625 
Q 18.109375 20.125 21.3125 9.0625 
Q 24.515625 -2 31 -13.1875 
L 23.1875 -13.1875 
Q 15.875 -1.703125 12.234375 9.375 
Q 8.59375 20.453125 8.59375 31.390625 
Q 8.59375 42.28125 12.203125 53.3125 
Q 15.828125 64.359375 23.1875 75.875 
z
" id="DejaVuSans-40"/>
      <path d="M 73.1875 39.890625 
L 73.1875 31.203125 
Q 68.0625 27.34375 63.6875 25.6875 
Q 59.328125 24.03125 54.59375 24.03125 
Q 49.21875 24.03125 42.09375 26.90625 
Q 41.546875 27.09375 41.3125 27.203125 
Q 40.96875 27.34375 40.234375 27.59375 
Q 32.671875 30.609375 28.078125 30.609375 
Q 23.78125 30.609375 19.578125 28.734375 
Q 15.375 26.859375 10.59375 22.796875 
L 10.59375 31.5 
Q 15.71875 35.359375 20.09375 37.03125 
Q 24.46875 38.71875 29.203125 38.71875 
Q 34.578125 38.71875 41.75 35.796875 
Q 42.234375 35.59375 42.484375 35.5 
Q 42.875 35.359375 43.5625 35.109375 
Q 51.125 32.078125 55.71875 32.078125 
Q 59.90625 32.078125 64.03125 33.9375 
Q 68.171875 35.796875 73.1875 39.890625 
z
" id="DejaVuSans-126"/>
      <path d="M 8.015625 75.875 
L 15.828125 75.875 
Q 23.140625 64.359375 26.78125 53.3125 
Q 30.421875 42.28125 30.421875 31.390625 
Q 30.421875 20.453125 26.78125 9.375 
Q 23.140625 -1.703125 15.828125 -13.1875 
L 8.015625 -13.1875 
Q 14.5 -2 17.703125 9.0625 
Q 20.90625 20.125 20.90625 31.390625 
Q 20.90625 42.671875 17.703125 53.65625 
Q 14.5 64.65625 8.015625 75.875 
z
" id="DejaVuSans-41"/>
     </defs>
     <use xlink:href="#DejaVuSans-82"/>
     <use x="67.232422" xlink:href="#DejaVuSans-97"/>
     <use x="128.511719" xlink:href="#DejaVuSans-110"/>
     <use x="191.890625" xlink:href="#DejaVuSans-107"/>
     <use x="249.800781" xlink:href="#DejaVuSans-73"/>
     <use x="279.292969" xlink:href="#DejaVuSans-67"/>
     <use x="349.117188" xlink:href="#DejaVuSans-58"/>
     <use x="382.808594" xlink:href="#DejaVuSans-32"/>
     <use x="414.595703" xlink:href="#DejaVuSans-40"/>
     <use x="453.609375" xlink:href="#DejaVuSans-50"/>
     <use x="517.232422" xlink:href="#DejaVuSans-48"/>
     <use x="580.855469" xlink:href="#DejaVuSans-49"/>
     <use x="644.478516" xlink:href="#DejaVuSans-48"/>
     <use x="708.101562" xlink:href="#DejaVuSans-45"/>
     <use x="744.185547" xlink:href="#DejaVuSans-48"/>
     <use x="807.808594" xlink:href="#DejaVuSans-49"/>
     <use x="871.431641" xlink:href="#DejaVuSans-45"/>
     <use x="907.515625" xlink:href="#DejaVuSans-48"/>
     <use x="971.138672" xlink:href="#DejaVuSans-52"/>
     <use x="1034.761719" xlink:href="#DejaVuSans-32"/>
     <use x="1066.548828" xlink:href="#DejaVuSans-126"/>
     <use x="1150.337891" xlink:href="#DejaVuSans-32"/>
     <use x="1182.125" xlink:href="#DejaVuSans-50"/>
     <use x="1245.748047" xlink:href="#DejaVuSans-48"/>
     <use x="1309.371094" xlink:href="#DejaVuSans-49"/>
     <use x="1372.994141" xlink:href="#DejaVuSans-48"/>
     <use x="1436.617188" xlink:href="#DejaVuSans-45"/>
     <use x="1472.701172" xlink:href="#DejaVuSans-49"/>
     <use x="1536.324219" xlink:href="#DejaVuSans-48"/>
     <use x="1599.947266" xlink:href="#DejaVuSans-45"/>
     <use x="1636.03125" xlink:href="#DejaVuSans-48"/>
     <use x="1699.654297" xlink:href="#DejaVuSans-56"/>
     <use x="1763.277344" xlink:href="#DejaVuSans-41"/>
    </g>
   </g>
   <g id="legend_3">
    <g id="patch_58">
     <path d="M 491.343125 92.6325 
L 663.836875 92.6325 
Q 665.836875 92.6325 665.836875 90.6325 
L 665.836875 32.92 
Q 665.836875 30.92 663.836875 30.92 
L 491.343125 30.92 
Q 489.343125 30.92 489.343125 32.92 
L 489.343125 90.6325 
Q 489.343125 92.6325 491.343125 92.6325 
z
" style="fill:#ffffff;opacity:0.8;stroke:#cccccc;stroke-linejoin:miter;"/>
    </g>
    <g id="line2d_38"/>
    <g id="line2d_39"/>
    <g id="text_23">
     <!-- RankIC mean:  -0.0413         -->
     <g transform="translate(521.343125 42.518438)scale(0.1 -0.1)">
      <use xlink:href="#DejaVuSans-82"/>
      <use x="67.232422" xlink:href="#DejaVuSans-97"/>
      <use x="128.511719" xlink:href="#DejaVuSans-110"/>
      <use x="191.890625" xlink:href="#DejaVuSans-107"/>
      <use x="249.800781" xlink:href="#DejaVuSans-73"/>
      <use x="279.292969" xlink:href="#DejaVuSans-67"/>
      <use x="349.117188" xlink:href="#DejaVuSans-32"/>
      <use x="380.904297" xlink:href="#DejaVuSans-109"/>
      <use x="478.316406" xlink:href="#DejaVuSans-101"/>
      <use x="539.839844" xlink:href="#DejaVuSans-97"/>
      <use x="601.119141" xlink:href="#DejaVuSans-110"/>
      <use x="664.498047" xlink:href="#DejaVuSans-58"/>
      <use x="698.189453" xlink:href="#DejaVuSans-32"/>
      <use x="729.976562" xlink:href="#DejaVuSans-32"/>
      <use x="761.763672" xlink:href="#DejaVuSans-45"/>
      <use x="797.847656" xlink:href="#DejaVuSans-48"/>
      <use x="861.470703" xlink:href="#DejaVuSans-46"/>
      <use x="893.257812" xlink:href="#DejaVuSans-48"/>
      <use x="956.880859" xlink:href="#DejaVuSans-52"/>
      <use x="1020.503906" xlink:href="#DejaVuSans-49"/>
      <use x="1084.126953" xlink:href="#DejaVuSans-51"/>
      <use x="1147.75" xlink:href="#DejaVuSans-32"/>
      <use x="1179.537109" xlink:href="#DejaVuSans-32"/>
      <use x="1211.324219" xlink:href="#DejaVuSans-32"/>
      <use x="1243.111328" xlink:href="#DejaVuSans-32"/>
      <use x="1274.898438" xlink:href="#DejaVuSans-32"/>
      <use x="1306.685547" xlink:href="#DejaVuSans-32"/>
      <use x="1338.472656" xlink:href="#DejaVuSans-32"/>
      <use x="1370.259766" xlink:href="#DejaVuSans-32"/>
     </g>
    </g>
    <g id="line2d_40"/>
    <g id="line2d_41"/>
    <g id="text_24">
     <!-- RankIC std:       0.3081         -->
     <g transform="translate(521.343125 57.196563)scale(0.1 -0.1)">
      <defs>
       <path d="M 18.3125 70.21875 
L 18.3125 54.6875 
L 36.8125 54.6875 
L 36.8125 47.703125 
L 18.3125 47.703125 
L 18.3125 18.015625 
Q 18.3125 11.328125 20.140625 9.421875 
Q 21.96875 7.515625 27.59375 7.515625 
L 36.8125 7.515625 
L 36.8125 0 
L 27.59375 0 
Q 17.1875 0 13.234375 3.875 
Q 9.28125 7.765625 9.28125 18.015625 
L 9.28125 47.703125 
L 2.6875 47.703125 
L 2.6875 54.6875 
L 9.28125 54.6875 
L 9.28125 70.21875 
z
" id="DejaVuSans-116"/>
      </defs>
      <use xlink:href="#DejaVuSans-82"/>
      <use x="67.232422" xlink:href="#DejaVuSans-97"/>
      <use x="128.511719" xlink:href="#DejaVuSans-110"/>
      <use x="191.890625" xlink:href="#DejaVuSans-107"/>
      <use x="249.800781" xlink:href="#DejaVuSans-73"/>
      <use x="279.292969" xlink:href="#DejaVuSans-67"/>
      <use x="349.117188" xlink:href="#DejaVuSans-32"/>
      <use x="380.904297" xlink:href="#DejaVuSans-115"/>
      <use x="433.003906" xlink:href="#DejaVuSans-116"/>
      <use x="472.212891" xlink:href="#DejaVuSans-100"/>
      <use x="535.689453" xlink:href="#DejaVuSans-58"/>
      <use x="569.380859" xlink:href="#DejaVuSans-32"/>
      <use x="601.167969" xlink:href="#DejaVuSans-32"/>
      <use x="632.955078" xlink:href="#DejaVuSans-32"/>
      <use x="664.742188" xlink:href="#DejaVuSans-32"/>
      <use x="696.529297" xlink:href="#DejaVuSans-32"/>
      <use x="728.316406" xlink:href="#DejaVuSans-32"/>
      <use x="760.103516" xlink:href="#DejaVuSans-32"/>
      <use x="791.890625" xlink:href="#DejaVuSans-48"/>
      <use x="855.513672" xlink:href="#DejaVuSans-46"/>
      <use x="887.300781" xlink:href="#DejaVuSans-51"/>
      <use x="950.923828" xlink:href="#DejaVuSans-48"/>
      <use x="1014.546875" xlink:href="#DejaVuSans-56"/>
      <use x="1078.169922" xlink:href="#DejaVuSans-49"/>
      <use x="1141.792969" xlink:href="#DejaVuSans-32"/>
      <use x="1173.580078" xlink:href="#DejaVuSans-32"/>
      <use x="1205.367188" xlink:href="#DejaVuSans-32"/>
      <use x="1237.154297" xlink:href="#DejaVuSans-32"/>
      <use x="1268.941406" xlink:href="#DejaVuSans-32"/>
      <use x="1300.728516" xlink:href="#DejaVuSans-32"/>
      <use x="1332.515625" xlink:href="#DejaVuSans-32"/>
      <use x="1364.302734" xlink:href="#DejaVuSans-32"/>
     </g>
    </g>
    <g id="line2d_42"/>
    <g id="line2d_43"/>
    <g id="text_25">
     <!-- RankIC IR:        -0.1341         -->
     <g transform="translate(521.343125 71.874688)scale(0.1 -0.1)">
      <use xlink:href="#DejaVuSans-82"/>
      <use x="67.232422" xlink:href="#DejaVuSans-97"/>
      <use x="128.511719" xlink:href="#DejaVuSans-110"/>
      <use x="191.890625" xlink:href="#DejaVuSans-107"/>
      <use x="249.800781" xlink:href="#DejaVuSans-73"/>
      <use x="279.292969" xlink:href="#DejaVuSans-67"/>
      <use x="349.117188" xlink:href="#DejaVuSans-32"/>
      <use x="380.904297" xlink:href="#DejaVuSans-73"/>
      <use x="410.396484" xlink:href="#DejaVuSans-82"/>
      <use x="476.753906" xlink:href="#DejaVuSans-58"/>
      <use x="510.445312" xlink:href="#DejaVuSans-32"/>
      <use x="542.232422" xlink:href="#DejaVuSans-32"/>
      <use x="574.019531" xlink:href="#DejaVuSans-32"/>
      <use x="605.806641" xlink:href="#DejaVuSans-32"/>
      <use x="637.59375" xlink:href="#DejaVuSans-32"/>
      <use x="669.380859" xlink:href="#DejaVuSans-32"/>
      <use x="701.167969" xlink:href="#DejaVuSans-32"/>
      <use x="732.955078" xlink:href="#DejaVuSans-32"/>
      <use x="764.742188" xlink:href="#DejaVuSans-45"/>
      <use x="800.826172" xlink:href="#DejaVuSans-48"/>
      <use x="864.449219" xlink:href="#DejaVuSans-46"/>
      <use x="896.236328" xlink:href="#DejaVuSans-49"/>
      <use x="959.859375" xlink:href="#DejaVuSans-51"/>
      <use x="1023.482422" xlink:href="#DejaVuSans-52"/>
      <use x="1087.105469" xlink:href="#DejaVuSans-49"/>
      <use x="1150.728516" xlink:href="#DejaVuSans-32"/>
      <use x="1182.515625" xlink:href="#DejaVuSans-32"/>
      <use x="1214.302734" xlink:href="#DejaVuSans-32"/>
      <use x="1246.089844" xlink:href="#DejaVuSans-32"/>
      <use x="1277.876953" xlink:href="#DejaVuSans-32"/>
      <use x="1309.664062" xlink:href="#DejaVuSans-32"/>
      <use x="1341.451172" xlink:href="#DejaVuSans-32"/>
      <use x="1373.238281" xlink:href="#DejaVuSans-32"/>
     </g>
    </g>
    <g id="line2d_44"/>
    <g id="line2d_45"/>
    <g id="text_26">
     <!-- RankIC (-)rate:  0.5350 -->
     <g transform="translate(521.343125 86.552813)scale(0.1 -0.1)">
      <defs>
       <path d="M 41.109375 46.296875 
Q 39.59375 47.171875 37.8125 47.578125 
Q 36.03125 48 33.890625 48 
Q 26.265625 48 22.1875 43.046875 
Q 18.109375 38.09375 18.109375 28.8125 
L 18.109375 0 
L 9.078125 0 
L 9.078125 54.6875 
L 18.109375 54.6875 
L 18.109375 46.1875 
Q 20.953125 51.171875 25.484375 53.578125 
Q 30.03125 56 36.53125 56 
Q 37.453125 56 38.578125 55.875 
Q 39.703125 55.765625 41.0625 55.515625 
z
" id="DejaVuSans-114"/>
       <path d="M 10.796875 72.90625 
L 49.515625 72.90625 
L 49.515625 64.59375 
L 19.828125 64.59375 
L 19.828125 46.734375 
Q 21.96875 47.46875 24.109375 47.828125 
Q 26.265625 48.1875 28.421875 48.1875 
Q 40.625 48.1875 47.75 41.5 
Q 54.890625 34.8125 54.890625 23.390625 
Q 54.890625 11.625 47.5625 5.09375 
Q 40.234375 -1.421875 26.90625 -1.421875 
Q 22.3125 -1.421875 17.546875 -0.640625 
Q 12.796875 0.140625 7.71875 1.703125 
L 7.71875 11.625 
Q 12.109375 9.234375 16.796875 8.0625 
Q 21.484375 6.890625 26.703125 6.890625 
Q 35.15625 6.890625 40.078125 11.328125 
Q 45.015625 15.765625 45.015625 23.390625 
Q 45.015625 31 40.078125 35.4375 
Q 35.15625 39.890625 26.703125 39.890625 
Q 22.75 39.890625 18.8125 39.015625 
Q 14.890625 38.140625 10.796875 36.28125 
z
" id="DejaVuSans-53"/>
      </defs>
      <use xlink:href="#DejaVuSans-82"/>
      <use x="67.232422" xlink:href="#DejaVuSans-97"/>
      <use x="128.511719" xlink:href="#DejaVuSans-110"/>
      <use x="191.890625" xlink:href="#DejaVuSans-107"/>
      <use x="249.800781" xlink:href="#DejaVuSans-73"/>
      <use x="279.292969" xlink:href="#DejaVuSans-67"/>
      <use x="349.117188" xlink:href="#DejaVuSans-32"/>
      <use x="380.904297" xlink:href="#DejaVuSans-40"/>
      <use x="419.917969" xlink:href="#DejaVuSans-45"/>
      <use x="456.001953" xlink:href="#DejaVuSans-41"/>
      <use x="495.015625" xlink:href="#DejaVuSans-114"/>
      <use x="536.128906" xlink:href="#DejaVuSans-97"/>
      <use x="597.408203" xlink:href="#DejaVuSans-116"/>
      <use x="636.617188" xlink:href="#DejaVuSans-101"/>
      <use x="698.140625" xlink:href="#DejaVuSans-58"/>
      <use x="731.832031" xlink:href="#DejaVuSans-32"/>
      <use x="763.619141" xlink:href="#DejaVuSans-32"/>
      <use x="795.40625" xlink:href="#DejaVuSans-48"/>
      <use x="859.029297" xlink:href="#DejaVuSans-46"/>
      <use x="890.816406" xlink:href="#DejaVuSans-53"/>
      <use x="954.439453" xlink:href="#DejaVuSans-51"/>
      <use x="1018.0625" xlink:href="#DejaVuSans-53"/>
      <use x="1081.685547" xlink:href="#DejaVuSans-48"/>
     </g>
    </g>
   </g>
  </g>
 </g>
 <defs>
  <clipPath id="pd5b7306fa0">
   <rect height="398.84" width="1053.38" x="50.9" y="25.92"/>
  </clipPath>
 </defs>
</svg>
