<?xml version="1.0" encoding="utf-8" standalone="no"?>
<!DOCTYPE svg PUBLIC "-//W3C//DTD SVG 1.1//EN"
  "http://www.w3.org/Graphics/SVG/1.1/DTD/svg11.dtd">
<!-- Created with matplotlib (https://matplotlib.org/) -->
<svg height="432pt" version="1.1" viewBox="0 0 1152 432" width="1152pt" xmlns="http://www.w3.org/2000/svg" xmlns:xlink="http://www.w3.org/1999/xlink">
 <metadata>
  <rdf:RDF xmlns:cc="http://creativecommons.org/ns#" xmlns:dc="http://purl.org/dc/elements/1.1/" xmlns:rdf="http://www.w3.org/1999/02/22-rdf-syntax-ns#">
   <cc:Work>
    <dc:type rdf:resource="http://purl.org/dc/dcmitype/StillImage"/>
    <dc:date>2023-10-11T17:00:31.953511</dc:date>
    <dc:format>image/svg+xml</dc:format>
    <dc:creator>
     <cc:Agent>
      <dc:title>Matplotlib v3.3.4, https://matplotlib.org/</dc:title>
     </cc:Agent>
    </dc:creator>
   </cc:Work>
  </rdf:RDF>
 </metadata>
 <defs>
  <style type="text/css">*{stroke-linecap:butt;stroke-linejoin:round;}</style>
 </defs>
 <g id="figure_1">
  <g id="patch_1">
   <path d="M 0 432 
L 1152 432 
L 1152 0 
L 0 0 
z
" style="fill:#ffffff;"/>
  </g>
  <g id="axes_1">
   <g id="patch_2">
    <path d="M 47.36 417.7 
L 1141.2 417.7 
L 1141.2 25.92 
L 47.36 25.92 
z
" style="fill:#ffffff;"/>
   </g>
   <g id="matplotlib.axis_1"/>
   <g id="matplotlib.axis_2">
    <g id="ytick_1">
     <g id="line2d_1">
      <path clip-path="url(#p44a2baded5)" d="M 47.36 392.83318 
L 1141.2 392.83318 
" style="fill:none;stroke:#b0b0b0;stroke-linecap:square;stroke-width:0.8;"/>
     </g>
     <g id="line2d_2">
      <defs>
       <path d="M 0 0 
L -3.5 0 
" id="m7a905f0d7d" style="stroke:#000000;stroke-width:0.8;"/>
      </defs>
      <g>
       <use style="stroke:#000000;stroke-width:0.8;" x="47.36" xlink:href="#m7a905f0d7d" y="392.83318"/>
      </g>
     </g>
     <g id="text_1">
      <!-- 0.6 -->
      <g transform="translate(24.456875 396.632399)scale(0.1 -0.1)">
       <defs>
        <path d="M 31.78125 66.40625 
Q 24.171875 66.40625 20.328125 58.90625 
Q 16.5 51.421875 16.5 36.375 
Q 16.5 21.390625 20.328125 13.890625 
Q 24.171875 6.390625 31.78125 6.390625 
Q 39.453125 6.390625 43.28125 13.890625 
Q 47.125 21.390625 47.125 36.375 
Q 47.125 51.421875 43.28125 58.90625 
Q 39.453125 66.40625 31.78125 66.40625 
z
M 31.78125 74.21875 
Q 44.046875 74.21875 50.515625 64.515625 
Q 56.984375 54.828125 56.984375 36.375 
Q 56.984375 17.96875 50.515625 8.265625 
Q 44.046875 -1.421875 31.78125 -1.421875 
Q 19.53125 -1.421875 13.0625 8.265625 
Q 6.59375 17.96875 6.59375 36.375 
Q 6.59375 54.828125 13.0625 64.515625 
Q 19.53125 74.21875 31.78125 74.21875 
z
" id="DejaVuSans-48"/>
        <path d="M 10.6875 12.40625 
L 21 12.40625 
L 21 0 
L 10.6875 0 
z
" id="DejaVuSans-46"/>
        <path d="M 33.015625 40.375 
Q 26.375 40.375 22.484375 35.828125 
Q 18.609375 31.296875 18.609375 23.390625 
Q 18.609375 15.53125 22.484375 10.953125 
Q 26.375 6.390625 33.015625 6.390625 
Q 39.65625 6.390625 43.53125 10.953125 
Q 47.40625 15.53125 47.40625 23.390625 
Q 47.40625 31.296875 43.53125 35.828125 
Q 39.65625 40.375 33.015625 40.375 
z
M 52.59375 71.296875 
L 52.59375 62.3125 
Q 48.875 64.0625 45.09375 64.984375 
Q 41.3125 65.921875 37.59375 65.921875 
Q 27.828125 65.921875 22.671875 59.328125 
Q 17.53125 52.734375 16.796875 39.40625 
Q 19.671875 43.65625 24.015625 45.921875 
Q 28.375 48.1875 33.59375 48.1875 
Q 44.578125 48.1875 50.953125 41.515625 
Q 57.328125 34.859375 57.328125 23.390625 
Q 57.328125 12.15625 50.6875 5.359375 
Q 44.046875 -1.421875 33.015625 -1.421875 
Q 20.359375 -1.421875 13.671875 8.265625 
Q 6.984375 17.96875 6.984375 36.375 
Q 6.984375 53.65625 15.1875 63.9375 
Q 23.390625 74.21875 37.203125 74.21875 
Q 40.921875 74.21875 44.703125 73.484375 
Q 48.484375 72.75 52.59375 71.296875 
z
" id="DejaVuSans-54"/>
       </defs>
       <use xlink:href="#DejaVuSans-48"/>
       <use x="63.623047" xlink:href="#DejaVuSans-46"/>
       <use x="95.410156" xlink:href="#DejaVuSans-54"/>
      </g>
     </g>
    </g>
    <g id="ytick_2">
     <g id="line2d_3">
      <path clip-path="url(#p44a2baded5)" d="M 47.36 310.180403 
L 1141.2 310.180403 
" style="fill:none;stroke:#b0b0b0;stroke-linecap:square;stroke-width:0.8;"/>
     </g>
     <g id="line2d_4">
      <g>
       <use style="stroke:#000000;stroke-width:0.8;" x="47.36" xlink:href="#m7a905f0d7d" y="310.180403"/>
      </g>
     </g>
     <g id="text_2">
      <!-- 0.8 -->
      <g transform="translate(24.456875 313.979622)scale(0.1 -0.1)">
       <defs>
        <path d="M 31.78125 34.625 
Q 24.75 34.625 20.71875 30.859375 
Q 16.703125 27.09375 16.703125 20.515625 
Q 16.703125 13.921875 20.71875 10.15625 
Q 24.75 6.390625 31.78125 6.390625 
Q 38.8125 6.390625 42.859375 10.171875 
Q 46.921875 13.96875 46.921875 20.515625 
Q 46.921875 27.09375 42.890625 30.859375 
Q 38.875 34.625 31.78125 34.625 
z
M 21.921875 38.8125 
Q 15.578125 40.375 12.03125 44.71875 
Q 8.5 49.078125 8.5 55.328125 
Q 8.5 64.0625 14.71875 69.140625 
Q 20.953125 74.21875 31.78125 74.21875 
Q 42.671875 74.21875 48.875 69.140625 
Q 55.078125 64.0625 55.078125 55.328125 
Q 55.078125 49.078125 51.53125 44.71875 
Q 48 40.375 41.703125 38.8125 
Q 48.828125 37.15625 52.796875 32.3125 
Q 56.78125 27.484375 56.78125 20.515625 
Q 56.78125 9.90625 50.3125 4.234375 
Q 43.84375 -1.421875 31.78125 -1.421875 
Q 19.734375 -1.421875 13.25 4.234375 
Q 6.78125 9.90625 6.78125 20.515625 
Q 6.78125 27.484375 10.78125 32.3125 
Q 14.796875 37.15625 21.921875 38.8125 
z
M 18.3125 54.390625 
Q 18.3125 48.734375 21.84375 45.5625 
Q 25.390625 42.390625 31.78125 42.390625 
Q 38.140625 42.390625 41.71875 45.5625 
Q 45.3125 48.734375 45.3125 54.390625 
Q 45.3125 60.0625 41.71875 63.234375 
Q 38.140625 66.40625 31.78125 66.40625 
Q 25.390625 66.40625 21.84375 63.234375 
Q 18.3125 60.0625 18.3125 54.390625 
z
" id="DejaVuSans-56"/>
       </defs>
       <use xlink:href="#DejaVuSans-48"/>
       <use x="63.623047" xlink:href="#DejaVuSans-46"/>
       <use x="95.410156" xlink:href="#DejaVuSans-56"/>
      </g>
     </g>
    </g>
    <g id="ytick_3">
     <g id="line2d_5">
      <path clip-path="url(#p44a2baded5)" d="M 47.36 227.527626 
L 1141.2 227.527626 
" style="fill:none;stroke:#b0b0b0;stroke-linecap:square;stroke-width:0.8;"/>
     </g>
     <g id="line2d_6">
      <g>
       <use style="stroke:#000000;stroke-width:0.8;" x="47.36" xlink:href="#m7a905f0d7d" y="227.527626"/>
      </g>
     </g>
     <g id="text_3">
      <!-- 1.0 -->
      <g transform="translate(24.456875 231.326845)scale(0.1 -0.1)">
       <defs>
        <path d="M 12.40625 8.296875 
L 28.515625 8.296875 
L 28.515625 63.921875 
L 10.984375 60.40625 
L 10.984375 69.390625 
L 28.421875 72.90625 
L 38.28125 72.90625 
L 38.28125 8.296875 
L 54.390625 8.296875 
L 54.390625 0 
L 12.40625 0 
z
" id="DejaVuSans-49"/>
       </defs>
       <use xlink:href="#DejaVuSans-49"/>
       <use x="63.623047" xlink:href="#DejaVuSans-46"/>
       <use x="95.410156" xlink:href="#DejaVuSans-48"/>
      </g>
     </g>
    </g>
    <g id="ytick_4">
     <g id="line2d_7">
      <path clip-path="url(#p44a2baded5)" d="M 47.36 144.874849 
L 1141.2 144.874849 
" style="fill:none;stroke:#b0b0b0;stroke-linecap:square;stroke-width:0.8;"/>
     </g>
     <g id="line2d_8">
      <g>
       <use style="stroke:#000000;stroke-width:0.8;" x="47.36" xlink:href="#m7a905f0d7d" y="144.874849"/>
      </g>
     </g>
     <g id="text_4">
      <!-- 1.2 -->
      <g transform="translate(24.456875 148.674068)scale(0.1 -0.1)">
       <defs>
        <path d="M 19.1875 8.296875 
L 53.609375 8.296875 
L 53.609375 0 
L 7.328125 0 
L 7.328125 8.296875 
Q 12.9375 14.109375 22.625 23.890625 
Q 32.328125 33.6875 34.8125 36.53125 
Q 39.546875 41.84375 41.421875 45.53125 
Q 43.3125 49.21875 43.3125 52.78125 
Q 43.3125 58.59375 39.234375 62.25 
Q 35.15625 65.921875 28.609375 65.921875 
Q 23.96875 65.921875 18.8125 64.3125 
Q 13.671875 62.703125 7.8125 59.421875 
L 7.8125 69.390625 
Q 13.765625 71.78125 18.9375 73 
Q 24.125 74.21875 28.421875 74.21875 
Q 39.75 74.21875 46.484375 68.546875 
Q 53.21875 62.890625 53.21875 53.421875 
Q 53.21875 48.921875 51.53125 44.890625 
Q 49.859375 40.875 45.40625 35.40625 
Q 44.1875 33.984375 37.640625 27.21875 
Q 31.109375 20.453125 19.1875 8.296875 
z
" id="DejaVuSans-50"/>
       </defs>
       <use xlink:href="#DejaVuSans-49"/>
       <use x="63.623047" xlink:href="#DejaVuSans-46"/>
       <use x="95.410156" xlink:href="#DejaVuSans-50"/>
      </g>
     </g>
    </g>
    <g id="ytick_5">
     <g id="line2d_9">
      <path clip-path="url(#p44a2baded5)" d="M 47.36 62.222072 
L 1141.2 62.222072 
" style="fill:none;stroke:#b0b0b0;stroke-linecap:square;stroke-width:0.8;"/>
     </g>
     <g id="line2d_10">
      <g>
       <use style="stroke:#000000;stroke-width:0.8;" x="47.36" xlink:href="#m7a905f0d7d" y="62.222072"/>
      </g>
     </g>
     <g id="text_5">
      <!-- 1.4 -->
      <g transform="translate(24.456875 66.021291)scale(0.1 -0.1)">
       <defs>
        <path d="M 37.796875 64.3125 
L 12.890625 25.390625 
L 37.796875 25.390625 
z
M 35.203125 72.90625 
L 47.609375 72.90625 
L 47.609375 25.390625 
L 58.015625 25.390625 
L 58.015625 17.1875 
L 47.609375 17.1875 
L 47.609375 0 
L 37.796875 0 
L 37.796875 17.1875 
L 4.890625 17.1875 
L 4.890625 26.703125 
z
" id="DejaVuSans-52"/>
       </defs>
       <use xlink:href="#DejaVuSans-49"/>
       <use x="63.623047" xlink:href="#DejaVuSans-46"/>
       <use x="95.410156" xlink:href="#DejaVuSans-52"/>
      </g>
     </g>
    </g>
    <g id="text_6">
     <!-- net value -->
     <g transform="translate(18.377187 245.262344)rotate(-90)scale(0.1 -0.1)">
      <defs>
       <path d="M 54.890625 33.015625 
L 54.890625 0 
L 45.90625 0 
L 45.90625 32.71875 
Q 45.90625 40.484375 42.875 44.328125 
Q 39.84375 48.1875 33.796875 48.1875 
Q 26.515625 48.1875 22.3125 43.546875 
Q 18.109375 38.921875 18.109375 30.90625 
L 18.109375 0 
L 9.078125 0 
L 9.078125 54.6875 
L 18.109375 54.6875 
L 18.109375 46.1875 
Q 21.34375 51.125 25.703125 53.5625 
Q 30.078125 56 35.796875 56 
Q 45.21875 56 50.046875 50.171875 
Q 54.890625 44.34375 54.890625 33.015625 
z
" id="DejaVuSans-110"/>
       <path d="M 56.203125 29.59375 
L 56.203125 25.203125 
L 14.890625 25.203125 
Q 15.484375 15.921875 20.484375 11.0625 
Q 25.484375 6.203125 34.421875 6.203125 
Q 39.59375 6.203125 44.453125 7.46875 
Q 49.3125 8.734375 54.109375 11.28125 
L 54.109375 2.78125 
Q 49.265625 0.734375 44.1875 -0.34375 
Q 39.109375 -1.421875 33.890625 -1.421875 
Q 20.796875 -1.421875 13.15625 6.1875 
Q 5.515625 13.8125 5.515625 26.8125 
Q 5.515625 40.234375 12.765625 48.109375 
Q 20.015625 56 32.328125 56 
Q 43.359375 56 49.78125 48.890625 
Q 56.203125 41.796875 56.203125 29.59375 
z
M 47.21875 32.234375 
Q 47.125 39.59375 43.09375 43.984375 
Q 39.0625 48.390625 32.421875 48.390625 
Q 24.90625 48.390625 20.390625 44.140625 
Q 15.875 39.890625 15.1875 32.171875 
z
" id="DejaVuSans-101"/>
       <path d="M 18.3125 70.21875 
L 18.3125 54.6875 
L 36.8125 54.6875 
L 36.8125 47.703125 
L 18.3125 47.703125 
L 18.3125 18.015625 
Q 18.3125 11.328125 20.140625 9.421875 
Q 21.96875 7.515625 27.59375 7.515625 
L 36.8125 7.515625 
L 36.8125 0 
L 27.59375 0 
Q 17.1875 0 13.234375 3.875 
Q 9.28125 7.765625 9.28125 18.015625 
L 9.28125 47.703125 
L 2.6875 47.703125 
L 2.6875 54.6875 
L 9.28125 54.6875 
L 9.28125 70.21875 
z
" id="DejaVuSans-116"/>
       <path id="DejaVuSans-32"/>
       <path d="M 2.984375 54.6875 
L 12.5 54.6875 
L 29.59375 8.796875 
L 46.6875 54.6875 
L 56.203125 54.6875 
L 35.6875 0 
L 23.484375 0 
z
" id="DejaVuSans-118"/>
       <path d="M 34.28125 27.484375 
Q 23.390625 27.484375 19.1875 25 
Q 14.984375 22.515625 14.984375 16.5 
Q 14.984375 11.71875 18.140625 8.90625 
Q 21.296875 6.109375 26.703125 6.109375 
Q 34.1875 6.109375 38.703125 11.40625 
Q 43.21875 16.703125 43.21875 25.484375 
L 43.21875 27.484375 
z
M 52.203125 31.203125 
L 52.203125 0 
L 43.21875 0 
L 43.21875 8.296875 
Q 40.140625 3.328125 35.546875 0.953125 
Q 30.953125 -1.421875 24.3125 -1.421875 
Q 15.921875 -1.421875 10.953125 3.296875 
Q 6 8.015625 6 15.921875 
Q 6 25.140625 12.171875 29.828125 
Q 18.359375 34.515625 30.609375 34.515625 
L 43.21875 34.515625 
L 43.21875 35.40625 
Q 43.21875 41.609375 39.140625 45 
Q 35.0625 48.390625 27.6875 48.390625 
Q 23 48.390625 18.546875 47.265625 
Q 14.109375 46.140625 10.015625 43.890625 
L 10.015625 52.203125 
Q 14.9375 54.109375 19.578125 55.046875 
Q 24.21875 56 28.609375 56 
Q 40.484375 56 46.34375 49.84375 
Q 52.203125 43.703125 52.203125 31.203125 
z
" id="DejaVuSans-97"/>
       <path d="M 9.421875 75.984375 
L 18.40625 75.984375 
L 18.40625 0 
L 9.421875 0 
z
" id="DejaVuSans-108"/>
       <path d="M 8.5 21.578125 
L 8.5 54.6875 
L 17.484375 54.6875 
L 17.484375 21.921875 
Q 17.484375 14.15625 20.5 10.265625 
Q 23.53125 6.390625 29.59375 6.390625 
Q 36.859375 6.390625 41.078125 11.03125 
Q 45.3125 15.671875 45.3125 23.6875 
L 45.3125 54.6875 
L 54.296875 54.6875 
L 54.296875 0 
L 45.3125 0 
L 45.3125 8.40625 
Q 42.046875 3.421875 37.71875 1 
Q 33.40625 -1.421875 27.6875 -1.421875 
Q 18.265625 -1.421875 13.375 4.4375 
Q 8.5 10.296875 8.5 21.578125 
z
M 31.109375 56 
z
" id="DejaVuSans-117"/>
      </defs>
      <use xlink:href="#DejaVuSans-110"/>
      <use x="63.378906" xlink:href="#DejaVuSans-101"/>
      <use x="124.902344" xlink:href="#DejaVuSans-116"/>
      <use x="164.111328" xlink:href="#DejaVuSans-32"/>
      <use x="195.898438" xlink:href="#DejaVuSans-118"/>
      <use x="255.078125" xlink:href="#DejaVuSans-97"/>
      <use x="316.357422" xlink:href="#DejaVuSans-108"/>
      <use x="344.140625" xlink:href="#DejaVuSans-117"/>
      <use x="407.519531" xlink:href="#DejaVuSans-101"/>
     </g>
    </g>
   </g>
   <g id="line2d_11">
    <path clip-path="url(#p44a2baded5)" d="M 97.08 234.577847 
L 101.089677 272.734623 
L 105.099355 248.762057 
L 109.109032 252.124275 
L 121.138065 223.930587 
L 125.147742 220.071719 
L 129.157419 224.95224 
L 133.167097 205.31143 
L 137.176774 205.965866 
L 149.205806 167.789293 
L 153.215484 147.62748 
L 157.225161 133.001774 
L 161.234839 106.571972 
L 165.244516 141.669683 
L 177.273548 155.878634 
L 181.283226 191.162303 
L 185.292903 168.613064 
L 189.302581 190.345211 
L 193.312258 186.65286 
L 205.34129 178.867409 
L 209.350968 215.029374 
L 213.360645 207.892723 
L 217.370323 230.176171 
L 221.38 261.019121 
L 233.409032 287.949102 
L 237.41871 277.792955 
L 241.428387 272.953479 
L 245.438065 260.550621 
L 249.447742 280.028902 
L 261.476774 298.613906 
L 265.486452 301.838648 
L 269.496129 289.850633 
L 273.505806 282.735578 
L 277.515484 281.761065 
L 289.544516 273.125568 
L 293.554194 259.495218 
L 297.563871 257.771223 
L 301.573548 245.041083 
L 305.583226 240.539754 
L 317.612258 255.247372 
L 321.621935 267.719504 
L 325.631613 285.942226 
L 329.64129 288.605442 
L 333.650968 285.096295 
L 345.68 300.213503 
L 349.689677 308.840194 
L 353.699355 306.050155 
L 357.709032 295.340271 
L 361.71871 299.769761 
L 373.747742 278.769161 
L 377.757419 296.450152 
L 381.767097 316.96131 
L 385.776774 323.780794 
L 389.786452 306.595104 
L 401.815484 321.050733 
L 405.825161 303.079584 
L 409.834839 335.984478 
L 413.844516 333.070996 
L 417.854194 336.990549 
L 429.883226 332.739041 
L 433.892903 341.627201 
L 437.902581 342.280665 
L 441.912258 334.240055 
L 445.921935 307.818002 
L 457.950968 314.022887 
L 461.960645 311.8661 
L 465.970323 315.962281 
L 469.98 317.819681 
L 473.989677 316.16082 
L 486.01871 295.789284 
L 490.028387 313.596367 
L 494.038065 319.720978 
L 498.047742 316.871392 
L 502.057419 313.000963 
L 514.086452 291.568285 
L 518.096129 298.392578 
L 522.105806 301.054789 
L 526.115484 293.428045 
L 530.125161 295.932641 
L 542.154194 290.608524 
L 546.163871 304.823092 
L 550.173548 309.145558 
L 554.183226 309.969377 
L 558.192903 333.535802 
L 570.221935 327.423938 
L 574.231613 323.152904 
L 578.24129 338.556375 
L 582.250968 351.294388 
L 586.260645 362.141403 
L 598.289677 357.426903 
L 602.299355 353.726452 
L 606.309032 334.87459 
L 610.31871 317.992549 
L 614.328387 334.55848 
L 626.357419 327.14221 
L 630.367097 321.257664 
L 638.386452 358.494293 
L 642.396129 347.291558 
L 654.425161 338.391643 
L 658.434839 347.720663 
L 662.444516 335.02752 
L 666.454194 329.24101 
L 670.463871 307.836052 
L 682.492903 292.06734 
L 686.502581 283.495569 
L 690.512258 288.355936 
L 694.521935 311.79172 
L 698.531613 319.001523 
L 710.560645 311.32881 
L 714.570323 296.197679 
L 718.58 280.023541 
L 722.589677 276.891454 
L 726.599355 283.346343 
L 738.628387 259.787621 
L 742.638065 260.309343 
L 746.647742 257.327146 
L 750.657419 270.481353 
L 754.667097 251.014664 
L 766.696129 225.661906 
L 770.705806 204.983034 
L 774.715484 224.736723 
L 778.725161 213.355403 
L 782.734839 212.762234 
L 794.763871 237.128692 
L 798.773548 199.576751 
L 802.783226 180.628262 
L 806.792903 210.857621 
L 810.802581 174.379673 
L 822.831613 142.103623 
L 826.84129 175.679276 
L 830.850968 183.778626 
L 834.860645 184.782832 
L 838.870323 176.25239 
L 850.899355 178.424551 
L 854.909032 205.33992 
L 858.91871 206.579409 
L 862.928387 237.390535 
L 866.938065 219.807348 
L 878.967097 247.513148 
L 882.976774 220.500175 
L 886.986452 227.816277 
L 890.996129 234.771958 
L 895.005806 270.899895 
L 907.034839 271.004359 
L 911.044516 253.485926 
L 915.054194 239.543469 
L 919.063871 215.950052 
L 923.073548 225.599595 
L 935.102581 232.527591 
L 939.112258 257.102133 
L 943.121935 222.783259 
L 947.131613 236.522739 
L 951.14129 246.278877 
L 963.170323 254.276632 
L 967.18 230.875867 
L 971.189677 245.001694 
L 975.199355 256.686371 
L 979.209032 251.782554 
L 991.238065 261.515362 
L 995.247742 272.005437 
L 999.257419 256.437904 
L 1003.267097 277.287364 
L 1007.276774 272.569053 
L 1019.305806 266.543297 
L 1023.315484 247.82264 
L 1027.325161 262.541697 
L 1031.334839 264.428405 
L 1035.344516 267.66513 
L 1047.373548 246.816505 
L 1051.383226 238.584952 
L 1055.392903 258.298978 
L 1059.402581 287.093809 
L 1063.412258 286.12318 
L 1075.44129 303.932013 
L 1079.450968 313.020231 
L 1083.460645 293.110615 
L 1087.470323 268.973975 
L 1091.48 262.186798 
L 1091.48 262.186798 
" style="fill:none;stroke:#1f77b4;stroke-linecap:square;stroke-width:1.5;"/>
   </g>
   <g id="line2d_12">
    <path clip-path="url(#p44a2baded5)" d="M 97.08 240.171187 
L 101.089677 246.05072 
L 105.099355 237.348059 
L 109.109032 251.468482 
L 121.138065 238.958189 
L 125.147742 240.196996 
L 129.157419 252.62172 
L 133.167097 240.96286 
L 137.176774 245.881583 
L 153.215484 242.943056 
L 157.225161 232.648004 
L 161.234839 227.377043 
L 165.244516 240.937682 
L 177.273548 245.598956 
L 181.283226 254.701681 
L 185.292903 255.833131 
L 189.302581 263.089288 
L 193.312258 260.976501 
L 205.34129 253.329063 
L 209.350968 255.091057 
L 213.360645 247.203786 
L 217.370323 241.56419 
L 221.38 242.048855 
L 233.409032 238.533744 
L 237.41871 235.820368 
L 241.428387 239.161358 
L 245.438065 223.175998 
L 249.447742 233.724472 
L 261.476774 243.966066 
L 265.486452 242.626944 
L 269.496129 247.087737 
L 273.505806 256.288673 
L 277.515484 264.059764 
L 289.544516 253.3938 
L 293.554194 249.372938 
L 297.563871 250.098867 
L 301.573548 237.986259 
L 305.583226 237.573828 
L 317.612258 239.992877 
L 321.621935 239.232046 
L 325.631613 248.502994 
L 329.64129 249.158878 
L 333.650968 241.756092 
L 345.68 245.319049 
L 349.689677 251.408703 
L 353.699355 243.017116 
L 357.709032 233.342712 
L 361.71871 224.584777 
L 373.747742 215.075936 
L 377.757419 226.416187 
L 381.767097 242.413263 
L 385.776774 241.424809 
L 389.786452 224.337632 
L 401.815484 222.107394 
L 405.825161 199.452809 
L 409.834839 210.586062 
L 413.844516 213.950352 
L 417.854194 216.660408 
L 429.883226 197.852012 
L 433.892903 196.972904 
L 437.902581 195.628265 
L 441.912258 196.127116 
L 445.921935 190.820249 
L 457.950968 188.770593 
L 461.960645 184.070402 
L 465.970323 179.590959 
L 469.98 189.944729 
L 473.989677 179.870122 
L 486.01871 173.728894 
L 490.028387 172.27593 
L 494.038065 184.650805 
L 498.047742 187.724209 
L 502.057419 179.618807 
L 514.086452 188.168417 
L 518.096129 175.844187 
L 522.105806 172.916724 
L 526.115484 187.839232 
L 530.125161 171.770777 
L 542.154194 165.939626 
L 546.163871 177.902621 
L 550.173548 172.937996 
L 554.183226 191.055292 
L 558.192903 193.047435 
L 570.221935 182.926018 
L 574.231613 190.27531 
L 578.24129 190.315311 
L 582.250968 189.008928 
L 586.260645 191.837311 
L 598.289677 187.460612 
L 602.299355 180.584422 
L 606.309032 172.784059 
L 610.31871 170.57455 
L 614.328387 185.617905 
L 626.357419 184.842366 
L 630.367097 191.824135 
L 634.376774 196.334078 
L 638.386452 209.695273 
L 642.396129 206.501551 
L 654.425161 203.24465 
L 658.434839 192.061955 
L 662.444516 193.168549 
L 666.454194 183.419533 
L 670.463871 172.423185 
L 682.492903 165.356695 
L 686.502581 158.1616 
L 690.512258 165.489895 
L 694.521935 170.095572 
L 698.531613 166.952523 
L 710.560645 165.319757 
L 714.570323 168.008211 
L 718.58 168.03355 
L 722.589677 164.383822 
L 726.599355 159.13291 
L 738.628387 157.560712 
L 742.638065 161.145572 
L 746.647742 158.555211 
L 750.657419 159.108209 
L 754.667097 158.297177 
L 766.696129 156.778175 
L 770.705806 154.947797 
L 774.715484 148.012168 
L 778.725161 136.72026 
L 782.734839 142.664188 
L 794.763871 144.170517 
L 798.773548 135.221178 
L 802.783226 139.360845 
L 806.792903 141.706983 
L 810.802581 129.707721 
L 822.831613 119.628406 
L 826.84129 136.712179 
L 830.850968 144.958379 
L 834.860645 148.11963 
L 838.870323 137.19157 
L 850.899355 142.832971 
L 854.909032 148.409208 
L 858.91871 147.410321 
L 862.928387 151.993837 
L 866.938065 147.76334 
L 878.967097 161.330321 
L 882.976774 154.464555 
L 886.986452 157.189759 
L 890.996129 154.150911 
L 895.005806 146.520603 
L 907.034839 145.074421 
L 911.044516 121.515218 
L 915.054194 105.518642 
L 919.063871 114.077711 
L 923.073548 119.684205 
L 935.102581 103.803512 
L 939.112258 97.049721 
L 943.121935 80.91286 
L 951.14129 101.972907 
L 963.170323 98.564398 
L 967.18 94.027797 
L 971.189677 94.717634 
L 975.199355 110.68671 
L 979.209032 112.260142 
L 991.238065 109.749477 
L 995.247742 103.945179 
L 999.257419 84.401435 
L 1003.267097 100.865404 
L 1007.276774 105.561641 
L 1019.305806 87.349317 
L 1023.315484 95.953429 
L 1027.325161 90.58717 
L 1031.334839 81.999952 
L 1035.344516 91.26244 
L 1047.373548 78.044829 
L 1051.383226 65.572756 
L 1055.392903 68.499015 
L 1059.402581 73.475914 
L 1063.412258 70.262467 
L 1075.44129 76.855611 
L 1079.450968 74.8555 
L 1083.460645 59.053527 
L 1087.470323 44.669026 
L 1091.48 43.728182 
L 1091.48 43.728182 
" style="fill:none;stroke:#ff7f0e;stroke-linecap:square;stroke-width:1.5;"/>
   </g>
   <g id="line2d_13">
    <path clip-path="url(#p44a2baded5)" d="M 97.08 221.934286 
L 101.089677 255.131527 
L 105.099355 238.514884 
L 109.109032 227.885403 
L 121.138065 211.201539 
L 125.147742 205.900461 
L 129.157419 197.45692 
L 133.167097 189.833218 
L 137.176774 184.963191 
L 149.205806 147.394539 
L 153.215484 127.375338 
L 157.225161 125.434593 
L 161.234839 105.266496 
L 165.244516 122.883919 
L 177.273548 131.590184 
L 181.283226 156.912388 
L 185.292903 131.227465 
L 189.302581 145.075421 
L 193.312258 143.78492 
L 205.34129 145.271619 
L 209.350968 181.81026 
L 213.360645 183.502594 
L 217.370323 213.593873 
L 221.38 245.163765 
L 233.409032 276.705713 
L 241.428387 260.651001 
L 245.438065 262.963371 
L 249.447742 272.774565 
L 261.476774 282.474168 
L 265.486452 287.060187 
L 273.505806 254.429115 
L 277.515484 245.568886 
L 289.544516 247.25236 
L 293.554194 236.747427 
L 297.563871 234.171235 
L 301.573548 233.263132 
L 305.583226 229.045106 
L 317.612258 241.704889 
L 321.621935 255.372694 
L 325.631613 265.300193 
L 329.64129 267.490532 
L 333.650968 270.827272 
L 345.68 283.247538 
L 349.689677 286.798354 
L 353.699355 291.451959 
L 357.709032 288.771417 
L 361.71871 300.851655 
L 373.747742 287.684094 
L 377.757419 295.523576 
L 381.767097 302.760761 
L 385.776774 310.718011 
L 389.786452 306.946586 
L 401.815484 323.174854 
L 405.825161 322.509016 
L 409.834839 345.491782 
L 413.844516 340.359874 
L 417.854194 342.279116 
L 429.883226 351.339362 
L 433.892903 360.265332 
L 437.902581 361.727997 
L 441.912258 353.898495 
L 445.921935 332.594765 
L 457.950968 339.741802 
L 461.960645 340.885135 
L 465.970323 347.561366 
L 469.98 342.65518 
L 473.989677 347.786024 
L 486.01871 333.303012 
L 490.028387 350.130399 
L 494.038065 347.893931 
L 498.047742 343.32089 
L 502.057419 345.088266 
L 514.086452 320.271629 
L 518.096129 335.262283 
L 522.105806 339.561539 
L 526.115484 323.191733 
L 530.125161 336.748557 
L 542.154194 335.834625 
L 546.163871 340.530571 
L 550.173548 347.614026 
L 554.183226 336.989198 
L 558.192903 357.285124 
L 570.221935 358.05444 
L 574.231613 349.662614 
L 578.24129 363.754682 
L 582.250968 376.234094 
L 586.260645 384.490395 
L 598.289677 382.652611 
L 602.299355 383.19707 
L 606.309032 370.646718 
L 610.31871 357.014144 
L 614.328387 362.498789 
L 626.357419 356.233335 
L 630.367097 346.537256 
L 634.376774 360.64543 
L 638.386452 369.634119 
L 642.396129 360.882295 
L 654.425161 354.49364 
L 658.434839 370.643031 
L 662.444516 358.276473 
L 666.454194 359.082988 
L 670.463871 346.501278 
L 682.492903 337.003836 
L 686.502581 334.134058 
L 690.512258 333.649265 
L 694.521935 351.096984 
L 698.531613 359.37986 
L 710.560645 353.639617 
L 714.570323 338.828042 
L 718.58 324.638654 
L 722.589677 324.334627 
L 726.599355 333.435918 
L 738.628387 314.181782 
L 742.638065 312.206056 
L 746.647742 311.405171 
L 750.657419 322.326588 
L 754.667097 306.121544 
L 766.696129 285.406793 
L 770.705806 269.047942 
L 774.715484 291.204591 
L 778.725161 289.652214 
L 782.734839 285.024346 
L 794.763871 304.201298 
L 798.773548 278.954498 
L 802.783226 260.452217 
L 806.792903 283.658162 
L 810.802581 261.943405 
L 822.831613 243.198267 
L 826.84129 256.934279 
L 830.850968 257.339178 
L 834.860645 255.736997 
L 838.870323 257.074853 
L 850.899355 254.570641 
L 854.909032 272.728407 
L 858.91871 274.522761 
L 862.928387 297.110075 
L 866.938065 285.104435 
L 878.967097 298.725229 
L 882.976774 280.128148 
L 886.986452 284.385263 
L 890.996129 292.62774 
L 895.005806 329.066677 
L 907.034839 330.066787 
L 911.044516 330.113747 
L 915.054194 328.500373 
L 919.063871 305.144061 
L 923.073548 309.194988 
L 935.102581 324.833461 
L 939.112258 347.825715 
L 943.121935 330.316032 
L 947.131613 334.70005 
L 951.14129 336.201589 
L 963.170323 344.30319 
L 967.18 328.833502 
L 971.189677 339.190088 
L 975.199355 339.274233 
L 979.209032 334.529856 
L 991.238065 343.647192 
L 995.247742 355.113445 
L 999.257419 353.454175 
L 1003.267097 360.538426 
L 1007.276774 354.463099 
L 1019.305806 359.520421 
L 1023.315484 341.077876 
L 1027.325161 355.255924 
L 1031.334839 361.13662 
L 1035.344516 358.906115 
L 1047.373548 349.935706 
L 1051.383226 350.304879 
L 1055.392903 363.065222 
L 1059.402581 381.557807 
L 1063.412258 382.314787 
L 1075.44129 392.306578 
L 1079.450968 399.891818 
L 1083.460645 391.985353 
L 1087.470323 380.864949 
L 1091.48 376.530471 
L 1091.48 376.530471 
" style="fill:none;stroke:#2ca02c;stroke-linecap:square;stroke-width:1.5;"/>
   </g>
   <g id="patch_3">
    <path d="M 47.36 417.7 
L 47.36 25.92 
" style="fill:none;stroke:#000000;stroke-linecap:square;stroke-linejoin:miter;stroke-width:0.8;"/>
   </g>
   <g id="patch_4">
    <path d="M 1141.2 417.7 
L 1141.2 25.92 
" style="fill:none;stroke:#000000;stroke-linecap:square;stroke-linejoin:miter;stroke-width:0.8;"/>
   </g>
   <g id="patch_5">
    <path d="M 47.36 417.7 
L 1141.2 417.7 
" style="fill:none;stroke:#000000;stroke-linecap:square;stroke-linejoin:miter;stroke-width:0.8;"/>
   </g>
   <g id="patch_6">
    <path d="M 47.36 25.92 
L 1141.2 25.92 
" style="fill:none;stroke:#000000;stroke-linecap:square;stroke-linejoin:miter;stroke-width:0.8;"/>
   </g>
   <g id="text_7">
    <!-- Net Value: (2010-02-01 ~ 2010-10-08) -->
    <g transform="translate(478.1725 19.92)scale(0.12 -0.12)">
     <defs>
      <path d="M 9.8125 72.90625 
L 23.09375 72.90625 
L 55.421875 11.921875 
L 55.421875 72.90625 
L 64.984375 72.90625 
L 64.984375 0 
L 51.703125 0 
L 19.390625 60.984375 
L 19.390625 0 
L 9.8125 0 
z
" id="DejaVuSans-78"/>
      <path d="M 28.609375 0 
L 0.78125 72.90625 
L 11.078125 72.90625 
L 34.1875 11.53125 
L 57.328125 72.90625 
L 67.578125 72.90625 
L 39.796875 0 
z
" id="DejaVuSans-86"/>
      <path d="M 11.71875 12.40625 
L 22.015625 12.40625 
L 22.015625 0 
L 11.71875 0 
z
M 11.71875 51.703125 
L 22.015625 51.703125 
L 22.015625 39.3125 
L 11.71875 39.3125 
z
" id="DejaVuSans-58"/>
      <path d="M 31 75.875 
Q 24.46875 64.65625 21.28125 53.65625 
Q 18.109375 42.671875 18.109375 31.390625 
Q 18.109375 20.125 21.3125 9.0625 
Q 24.515625 -2 31 -13.1875 
L 23.1875 -13.1875 
Q 15.875 -1.703125 12.234375 9.375 
Q 8.59375 20.453125 8.59375 31.390625 
Q 8.59375 42.28125 12.203125 53.3125 
Q 15.828125 64.359375 23.1875 75.875 
z
" id="DejaVuSans-40"/>
      <path d="M 4.890625 31.390625 
L 31.203125 31.390625 
L 31.203125 23.390625 
L 4.890625 23.390625 
z
" id="DejaVuSans-45"/>
      <path d="M 73.1875 39.890625 
L 73.1875 31.203125 
Q 68.0625 27.34375 63.6875 25.6875 
Q 59.328125 24.03125 54.59375 24.03125 
Q 49.21875 24.03125 42.09375 26.90625 
Q 41.546875 27.09375 41.3125 27.203125 
Q 40.96875 27.34375 40.234375 27.59375 
Q 32.671875 30.609375 28.078125 30.609375 
Q 23.78125 30.609375 19.578125 28.734375 
Q 15.375 26.859375 10.59375 22.796875 
L 10.59375 31.5 
Q 15.71875 35.359375 20.09375 37.03125 
Q 24.46875 38.71875 29.203125 38.71875 
Q 34.578125 38.71875 41.75 35.796875 
Q 42.234375 35.59375 42.484375 35.5 
Q 42.875 35.359375 43.5625 35.109375 
Q 51.125 32.078125 55.71875 32.078125 
Q 59.90625 32.078125 64.03125 33.9375 
Q 68.171875 35.796875 73.1875 39.890625 
z
" id="DejaVuSans-126"/>
      <path d="M 8.015625 75.875 
L 15.828125 75.875 
Q 23.140625 64.359375 26.78125 53.3125 
Q 30.421875 42.28125 30.421875 31.390625 
Q 30.421875 20.453125 26.78125 9.375 
Q 23.140625 -1.703125 15.828125 -13.1875 
L 8.015625 -13.1875 
Q 14.5 -2 17.703125 9.0625 
Q 20.90625 20.125 20.90625 31.390625 
Q 20.90625 42.671875 17.703125 53.65625 
Q 14.5 64.65625 8.015625 75.875 
z
" id="DejaVuSans-41"/>
     </defs>
     <use xlink:href="#DejaVuSans-78"/>
     <use x="74.804688" xlink:href="#DejaVuSans-101"/>
     <use x="136.328125" xlink:href="#DejaVuSans-116"/>
     <use x="175.537109" xlink:href="#DejaVuSans-32"/>
     <use x="207.324219" xlink:href="#DejaVuSans-86"/>
     <use x="267.982422" xlink:href="#DejaVuSans-97"/>
     <use x="329.261719" xlink:href="#DejaVuSans-108"/>
     <use x="357.044922" xlink:href="#DejaVuSans-117"/>
     <use x="420.423828" xlink:href="#DejaVuSans-101"/>
     <use x="481.947266" xlink:href="#DejaVuSans-58"/>
     <use x="515.638672" xlink:href="#DejaVuSans-32"/>
     <use x="547.425781" xlink:href="#DejaVuSans-40"/>
     <use x="586.439453" xlink:href="#DejaVuSans-50"/>
     <use x="650.0625" xlink:href="#DejaVuSans-48"/>
     <use x="713.685547" xlink:href="#DejaVuSans-49"/>
     <use x="777.308594" xlink:href="#DejaVuSans-48"/>
     <use x="840.931641" xlink:href="#DejaVuSans-45"/>
     <use x="877.015625" xlink:href="#DejaVuSans-48"/>
     <use x="940.638672" xlink:href="#DejaVuSans-50"/>
     <use x="1004.261719" xlink:href="#DejaVuSans-45"/>
     <use x="1040.345703" xlink:href="#DejaVuSans-48"/>
     <use x="1103.96875" xlink:href="#DejaVuSans-49"/>
     <use x="1167.591797" xlink:href="#DejaVuSans-32"/>
     <use x="1199.378906" xlink:href="#DejaVuSans-126"/>
     <use x="1283.167969" xlink:href="#DejaVuSans-32"/>
     <use x="1314.955078" xlink:href="#DejaVuSans-50"/>
     <use x="1378.578125" xlink:href="#DejaVuSans-48"/>
     <use x="1442.201172" xlink:href="#DejaVuSans-49"/>
     <use x="1505.824219" xlink:href="#DejaVuSans-48"/>
     <use x="1569.447266" xlink:href="#DejaVuSans-45"/>
     <use x="1605.53125" xlink:href="#DejaVuSans-49"/>
     <use x="1669.154297" xlink:href="#DejaVuSans-48"/>
     <use x="1732.777344" xlink:href="#DejaVuSans-45"/>
     <use x="1768.861328" xlink:href="#DejaVuSans-48"/>
     <use x="1832.484375" xlink:href="#DejaVuSans-56"/>
     <use x="1896.107422" xlink:href="#DejaVuSans-41"/>
    </g>
   </g>
   <g id="legend_1">
    <g id="patch_7">
     <path d="M 54.36 77.954375 
L 142.805312 77.954375 
Q 144.805312 77.954375 144.805312 75.954375 
L 144.805312 32.92 
Q 144.805312 30.92 142.805312 30.92 
L 54.36 30.92 
Q 52.36 30.92 52.36 32.92 
L 52.36 75.954375 
Q 52.36 77.954375 54.36 77.954375 
z
" style="fill:#ffffff;opacity:0.8;stroke:#cccccc;stroke-linejoin:miter;"/>
    </g>
    <g id="line2d_14">
     <path d="M 56.36 39.018438 
L 76.36 39.018438 
" style="fill:none;stroke:#1f77b4;stroke-linecap:square;stroke-width:1.5;"/>
    </g>
    <g id="line2d_15"/>
    <g id="text_8">
     <!-- strategy -->
     <g transform="translate(84.36 42.518438)scale(0.1 -0.1)">
      <defs>
       <path d="M 44.28125 53.078125 
L 44.28125 44.578125 
Q 40.484375 46.53125 36.375 47.5 
Q 32.28125 48.484375 27.875 48.484375 
Q 21.1875 48.484375 17.84375 46.4375 
Q 14.5 44.390625 14.5 40.28125 
Q 14.5 37.15625 16.890625 35.375 
Q 19.28125 33.59375 26.515625 31.984375 
L 29.59375 31.296875 
Q 39.15625 29.25 43.1875 25.515625 
Q 47.21875 21.78125 47.21875 15.09375 
Q 47.21875 7.46875 41.1875 3.015625 
Q 35.15625 -1.421875 24.609375 -1.421875 
Q 20.21875 -1.421875 15.453125 -0.5625 
Q 10.6875 0.296875 5.421875 2 
L 5.421875 11.28125 
Q 10.40625 8.6875 15.234375 7.390625 
Q 20.0625 6.109375 24.8125 6.109375 
Q 31.15625 6.109375 34.5625 8.28125 
Q 37.984375 10.453125 37.984375 14.40625 
Q 37.984375 18.0625 35.515625 20.015625 
Q 33.0625 21.96875 24.703125 23.78125 
L 21.578125 24.515625 
Q 13.234375 26.265625 9.515625 29.90625 
Q 5.8125 33.546875 5.8125 39.890625 
Q 5.8125 47.609375 11.28125 51.796875 
Q 16.75 56 26.8125 56 
Q 31.78125 56 36.171875 55.265625 
Q 40.578125 54.546875 44.28125 53.078125 
z
" id="DejaVuSans-115"/>
       <path d="M 41.109375 46.296875 
Q 39.59375 47.171875 37.8125 47.578125 
Q 36.03125 48 33.890625 48 
Q 26.265625 48 22.1875 43.046875 
Q 18.109375 38.09375 18.109375 28.8125 
L 18.109375 0 
L 9.078125 0 
L 9.078125 54.6875 
L 18.109375 54.6875 
L 18.109375 46.1875 
Q 20.953125 51.171875 25.484375 53.578125 
Q 30.03125 56 36.53125 56 
Q 37.453125 56 38.578125 55.875 
Q 39.703125 55.765625 41.0625 55.515625 
z
" id="DejaVuSans-114"/>
       <path d="M 45.40625 27.984375 
Q 45.40625 37.75 41.375 43.109375 
Q 37.359375 48.484375 30.078125 48.484375 
Q 22.859375 48.484375 18.828125 43.109375 
Q 14.796875 37.75 14.796875 27.984375 
Q 14.796875 18.265625 18.828125 12.890625 
Q 22.859375 7.515625 30.078125 7.515625 
Q 37.359375 7.515625 41.375 12.890625 
Q 45.40625 18.265625 45.40625 27.984375 
z
M 54.390625 6.78125 
Q 54.390625 -7.171875 48.1875 -13.984375 
Q 42 -20.796875 29.203125 -20.796875 
Q 24.46875 -20.796875 20.265625 -20.09375 
Q 16.0625 -19.390625 12.109375 -17.921875 
L 12.109375 -9.1875 
Q 16.0625 -11.328125 19.921875 -12.34375 
Q 23.78125 -13.375 27.78125 -13.375 
Q 36.625 -13.375 41.015625 -8.765625 
Q 45.40625 -4.15625 45.40625 5.171875 
L 45.40625 9.625 
Q 42.625 4.78125 38.28125 2.390625 
Q 33.9375 0 27.875 0 
Q 17.828125 0 11.671875 7.65625 
Q 5.515625 15.328125 5.515625 27.984375 
Q 5.515625 40.671875 11.671875 48.328125 
Q 17.828125 56 27.875 56 
Q 33.9375 56 38.28125 53.609375 
Q 42.625 51.21875 45.40625 46.390625 
L 45.40625 54.6875 
L 54.390625 54.6875 
z
" id="DejaVuSans-103"/>
       <path d="M 32.171875 -5.078125 
Q 28.375 -14.84375 24.75 -17.8125 
Q 21.140625 -20.796875 15.09375 -20.796875 
L 7.90625 -20.796875 
L 7.90625 -13.28125 
L 13.1875 -13.28125 
Q 16.890625 -13.28125 18.9375 -11.515625 
Q 21 -9.765625 23.484375 -3.21875 
L 25.09375 0.875 
L 2.984375 54.6875 
L 12.5 54.6875 
L 29.59375 11.921875 
L 46.6875 54.6875 
L 56.203125 54.6875 
z
" id="DejaVuSans-121"/>
      </defs>
      <use xlink:href="#DejaVuSans-115"/>
      <use x="52.099609" xlink:href="#DejaVuSans-116"/>
      <use x="91.308594" xlink:href="#DejaVuSans-114"/>
      <use x="132.421875" xlink:href="#DejaVuSans-97"/>
      <use x="193.701172" xlink:href="#DejaVuSans-116"/>
      <use x="232.910156" xlink:href="#DejaVuSans-101"/>
      <use x="294.433594" xlink:href="#DejaVuSans-103"/>
      <use x="357.910156" xlink:href="#DejaVuSans-121"/>
     </g>
    </g>
    <g id="line2d_16">
     <path d="M 56.36 53.696563 
L 76.36 53.696563 
" style="fill:none;stroke:#ff7f0e;stroke-linecap:square;stroke-width:1.5;"/>
    </g>
    <g id="line2d_17"/>
    <g id="text_9">
     <!-- benchmark -->
     <g transform="translate(84.36 57.196563)scale(0.1 -0.1)">
      <defs>
       <path d="M 48.6875 27.296875 
Q 48.6875 37.203125 44.609375 42.84375 
Q 40.53125 48.484375 33.40625 48.484375 
Q 26.265625 48.484375 22.1875 42.84375 
Q 18.109375 37.203125 18.109375 27.296875 
Q 18.109375 17.390625 22.1875 11.75 
Q 26.265625 6.109375 33.40625 6.109375 
Q 40.53125 6.109375 44.609375 11.75 
Q 48.6875 17.390625 48.6875 27.296875 
z
M 18.109375 46.390625 
Q 20.953125 51.265625 25.265625 53.625 
Q 29.59375 56 35.59375 56 
Q 45.5625 56 51.78125 48.09375 
Q 58.015625 40.1875 58.015625 27.296875 
Q 58.015625 14.40625 51.78125 6.484375 
Q 45.5625 -1.421875 35.59375 -1.421875 
Q 29.59375 -1.421875 25.265625 0.953125 
Q 20.953125 3.328125 18.109375 8.203125 
L 18.109375 0 
L 9.078125 0 
L 9.078125 75.984375 
L 18.109375 75.984375 
z
" id="DejaVuSans-98"/>
       <path d="M 48.78125 52.59375 
L 48.78125 44.1875 
Q 44.96875 46.296875 41.140625 47.34375 
Q 37.3125 48.390625 33.40625 48.390625 
Q 24.65625 48.390625 19.8125 42.84375 
Q 14.984375 37.3125 14.984375 27.296875 
Q 14.984375 17.28125 19.8125 11.734375 
Q 24.65625 6.203125 33.40625 6.203125 
Q 37.3125 6.203125 41.140625 7.25 
Q 44.96875 8.296875 48.78125 10.40625 
L 48.78125 2.09375 
Q 45.015625 0.34375 40.984375 -0.53125 
Q 36.96875 -1.421875 32.421875 -1.421875 
Q 20.0625 -1.421875 12.78125 6.34375 
Q 5.515625 14.109375 5.515625 27.296875 
Q 5.515625 40.671875 12.859375 48.328125 
Q 20.21875 56 33.015625 56 
Q 37.15625 56 41.109375 55.140625 
Q 45.0625 54.296875 48.78125 52.59375 
z
" id="DejaVuSans-99"/>
       <path d="M 54.890625 33.015625 
L 54.890625 0 
L 45.90625 0 
L 45.90625 32.71875 
Q 45.90625 40.484375 42.875 44.328125 
Q 39.84375 48.1875 33.796875 48.1875 
Q 26.515625 48.1875 22.3125 43.546875 
Q 18.109375 38.921875 18.109375 30.90625 
L 18.109375 0 
L 9.078125 0 
L 9.078125 75.984375 
L 18.109375 75.984375 
L 18.109375 46.1875 
Q 21.34375 51.125 25.703125 53.5625 
Q 30.078125 56 35.796875 56 
Q 45.21875 56 50.046875 50.171875 
Q 54.890625 44.34375 54.890625 33.015625 
z
" id="DejaVuSans-104"/>
       <path d="M 52 44.1875 
Q 55.375 50.25 60.0625 53.125 
Q 64.75 56 71.09375 56 
Q 79.640625 56 84.28125 50.015625 
Q 88.921875 44.046875 88.921875 33.015625 
L 88.921875 0 
L 79.890625 0 
L 79.890625 32.71875 
Q 79.890625 40.578125 77.09375 44.375 
Q 74.3125 48.1875 68.609375 48.1875 
Q 61.625 48.1875 57.5625 43.546875 
Q 53.515625 38.921875 53.515625 30.90625 
L 53.515625 0 
L 44.484375 0 
L 44.484375 32.71875 
Q 44.484375 40.625 41.703125 44.40625 
Q 38.921875 48.1875 33.109375 48.1875 
Q 26.21875 48.1875 22.15625 43.53125 
Q 18.109375 38.875 18.109375 30.90625 
L 18.109375 0 
L 9.078125 0 
L 9.078125 54.6875 
L 18.109375 54.6875 
L 18.109375 46.1875 
Q 21.1875 51.21875 25.484375 53.609375 
Q 29.78125 56 35.6875 56 
Q 41.65625 56 45.828125 52.96875 
Q 50 49.953125 52 44.1875 
z
" id="DejaVuSans-109"/>
       <path d="M 9.078125 75.984375 
L 18.109375 75.984375 
L 18.109375 31.109375 
L 44.921875 54.6875 
L 56.390625 54.6875 
L 27.390625 29.109375 
L 57.625 0 
L 45.90625 0 
L 18.109375 26.703125 
L 18.109375 0 
L 9.078125 0 
z
" id="DejaVuSans-107"/>
      </defs>
      <use xlink:href="#DejaVuSans-98"/>
      <use x="63.476562" xlink:href="#DejaVuSans-101"/>
      <use x="125" xlink:href="#DejaVuSans-110"/>
      <use x="188.378906" xlink:href="#DejaVuSans-99"/>
      <use x="243.359375" xlink:href="#DejaVuSans-104"/>
      <use x="306.738281" xlink:href="#DejaVuSans-109"/>
      <use x="404.150391" xlink:href="#DejaVuSans-97"/>
      <use x="465.429688" xlink:href="#DejaVuSans-114"/>
      <use x="506.542969" xlink:href="#DejaVuSans-107"/>
     </g>
    </g>
    <g id="line2d_18">
     <path d="M 56.36 68.374687 
L 76.36 68.374687 
" style="fill:none;stroke:#2ca02c;stroke-linecap:square;stroke-width:1.5;"/>
    </g>
    <g id="line2d_19"/>
    <g id="text_10">
     <!-- excess -->
     <g transform="translate(84.36 71.874687)scale(0.1 -0.1)">
      <defs>
       <path d="M 54.890625 54.6875 
L 35.109375 28.078125 
L 55.90625 0 
L 45.3125 0 
L 29.390625 21.484375 
L 13.484375 0 
L 2.875 0 
L 24.125 28.609375 
L 4.6875 54.6875 
L 15.28125 54.6875 
L 29.78125 35.203125 
L 44.28125 54.6875 
z
" id="DejaVuSans-120"/>
      </defs>
      <use xlink:href="#DejaVuSans-101"/>
      <use x="59.773438" xlink:href="#DejaVuSans-120"/>
      <use x="117.203125" xlink:href="#DejaVuSans-99"/>
      <use x="172.183594" xlink:href="#DejaVuSans-101"/>
      <use x="233.707031" xlink:href="#DejaVuSans-115"/>
      <use x="285.806641" xlink:href="#DejaVuSans-115"/>
     </g>
    </g>
   </g>
  </g>
 </g>
 <defs>
  <clipPath id="p44a2baded5">
   <rect height="391.78" width="1093.84" x="47.36" y="25.92"/>
  </clipPath>
 </defs>
</svg>
