<?xml version="1.0" encoding="utf-8" standalone="no"?>
<!DOCTYPE svg PUBLIC "-//W3C//DTD SVG 1.1//EN"
  "http://www.w3.org/Graphics/SVG/1.1/DTD/svg11.dtd">
<!-- Created with matplotlib (https://matplotlib.org/) -->
<svg height="360pt" version="1.1" viewBox="0 0 1152 360" width="1152pt" xmlns="http://www.w3.org/2000/svg" xmlns:xlink="http://www.w3.org/1999/xlink">
 <metadata>
  <rdf:RDF xmlns:cc="http://creativecommons.org/ns#" xmlns:dc="http://purl.org/dc/elements/1.1/" xmlns:rdf="http://www.w3.org/1999/02/22-rdf-syntax-ns#">
   <cc:Work>
    <dc:type rdf:resource="http://purl.org/dc/dcmitype/StillImage"/>
    <dc:date>2023-10-11T16:37:17.659518</dc:date>
    <dc:format>image/svg+xml</dc:format>
    <dc:creator>
     <cc:Agent>
      <dc:title>Matplotlib v3.3.4, https://matplotlib.org/</dc:title>
     </cc:Agent>
    </dc:creator>
   </cc:Work>
  </rdf:RDF>
 </metadata>
 <defs>
  <style type="text/css">*{stroke-linecap:butt;stroke-linejoin:round;}</style>
 </defs>
 <g id="figure_1">
  <g id="patch_1">
   <path d="M 0 360 
L 1152 360 
L 1152 0 
L 0 0 
z
" style="fill:#ffffff;"/>
  </g>
  <g id="axes_1">
   <g id="patch_2">
    <path d="M 50.9 345.7 
L 1141.2 345.7 
L 1141.2 25.92 
L 50.9 25.92 
z
" style="fill:#ffffff;"/>
   </g>
   <g id="matplotlib.axis_1"/>
   <g id="matplotlib.axis_2">
    <g id="ytick_1">
     <g id="line2d_1">
      <path clip-path="url(#p33ea4eb508)" d="M 50.9 340.994322 
L 1141.2 340.994322 
" style="fill:none;stroke:#b0b0b0;stroke-linecap:square;stroke-width:0.8;"/>
     </g>
     <g id="line2d_2">
      <defs>
       <path d="M 0 0 
L -3.5 0 
" id="m0a23854235" style="stroke:#000000;stroke-width:0.8;"/>
      </defs>
      <g>
       <use style="stroke:#000000;stroke-width:0.8;" x="50.9" xlink:href="#m0a23854235" y="340.994322"/>
      </g>
     </g>
     <g id="text_1">
      <!-- -1.5 -->
      <g transform="translate(24.389062 344.793541)scale(0.1 -0.1)">
       <defs>
        <path d="M 4.890625 31.390625 
L 31.203125 31.390625 
L 31.203125 23.390625 
L 4.890625 23.390625 
z
" id="DejaVuSans-45"/>
        <path d="M 12.40625 8.296875 
L 28.515625 8.296875 
L 28.515625 63.921875 
L 10.984375 60.40625 
L 10.984375 69.390625 
L 28.421875 72.90625 
L 38.28125 72.90625 
L 38.28125 8.296875 
L 54.390625 8.296875 
L 54.390625 0 
L 12.40625 0 
z
" id="DejaVuSans-49"/>
        <path d="M 10.6875 12.40625 
L 21 12.40625 
L 21 0 
L 10.6875 0 
z
" id="DejaVuSans-46"/>
        <path d="M 10.796875 72.90625 
L 49.515625 72.90625 
L 49.515625 64.59375 
L 19.828125 64.59375 
L 19.828125 46.734375 
Q 21.96875 47.46875 24.109375 47.828125 
Q 26.265625 48.1875 28.421875 48.1875 
Q 40.625 48.1875 47.75 41.5 
Q 54.890625 34.8125 54.890625 23.390625 
Q 54.890625 11.625 47.5625 5.09375 
Q 40.234375 -1.421875 26.90625 -1.421875 
Q 22.3125 -1.421875 17.546875 -0.640625 
Q 12.796875 0.140625 7.71875 1.703125 
L 7.71875 11.625 
Q 12.109375 9.234375 16.796875 8.0625 
Q 21.484375 6.890625 26.703125 6.890625 
Q 35.15625 6.890625 40.078125 11.328125 
Q 45.015625 15.765625 45.015625 23.390625 
Q 45.015625 31 40.078125 35.4375 
Q 35.15625 39.890625 26.703125 39.890625 
Q 22.75 39.890625 18.8125 39.015625 
Q 14.890625 38.140625 10.796875 36.28125 
z
" id="DejaVuSans-53"/>
       </defs>
       <use xlink:href="#DejaVuSans-45"/>
       <use x="36.083984" xlink:href="#DejaVuSans-49"/>
       <use x="99.707031" xlink:href="#DejaVuSans-46"/>
       <use x="131.494141" xlink:href="#DejaVuSans-53"/>
      </g>
     </g>
    </g>
    <g id="ytick_2">
     <g id="line2d_3">
      <path clip-path="url(#p33ea4eb508)" d="M 50.9 290.254351 
L 1141.2 290.254351 
" style="fill:none;stroke:#b0b0b0;stroke-linecap:square;stroke-width:0.8;"/>
     </g>
     <g id="line2d_4">
      <g>
       <use style="stroke:#000000;stroke-width:0.8;" x="50.9" xlink:href="#m0a23854235" y="290.254351"/>
      </g>
     </g>
     <g id="text_2">
      <!-- -1.0 -->
      <g transform="translate(24.389062 294.05357)scale(0.1 -0.1)">
       <defs>
        <path d="M 31.78125 66.40625 
Q 24.171875 66.40625 20.328125 58.90625 
Q 16.5 51.421875 16.5 36.375 
Q 16.5 21.390625 20.328125 13.890625 
Q 24.171875 6.390625 31.78125 6.390625 
Q 39.453125 6.390625 43.28125 13.890625 
Q 47.125 21.390625 47.125 36.375 
Q 47.125 51.421875 43.28125 58.90625 
Q 39.453125 66.40625 31.78125 66.40625 
z
M 31.78125 74.21875 
Q 44.046875 74.21875 50.515625 64.515625 
Q 56.984375 54.828125 56.984375 36.375 
Q 56.984375 17.96875 50.515625 8.265625 
Q 44.046875 -1.421875 31.78125 -1.421875 
Q 19.53125 -1.421875 13.0625 8.265625 
Q 6.59375 17.96875 6.59375 36.375 
Q 6.59375 54.828125 13.0625 64.515625 
Q 19.53125 74.21875 31.78125 74.21875 
z
" id="DejaVuSans-48"/>
       </defs>
       <use xlink:href="#DejaVuSans-45"/>
       <use x="36.083984" xlink:href="#DejaVuSans-49"/>
       <use x="99.707031" xlink:href="#DejaVuSans-46"/>
       <use x="131.494141" xlink:href="#DejaVuSans-48"/>
      </g>
     </g>
    </g>
    <g id="ytick_3">
     <g id="line2d_5">
      <path clip-path="url(#p33ea4eb508)" d="M 50.9 239.514379 
L 1141.2 239.514379 
" style="fill:none;stroke:#b0b0b0;stroke-linecap:square;stroke-width:0.8;"/>
     </g>
     <g id="line2d_6">
      <g>
       <use style="stroke:#000000;stroke-width:0.8;" x="50.9" xlink:href="#m0a23854235" y="239.514379"/>
      </g>
     </g>
     <g id="text_3">
      <!-- -0.5 -->
      <g transform="translate(24.389062 243.313598)scale(0.1 -0.1)">
       <use xlink:href="#DejaVuSans-45"/>
       <use x="36.083984" xlink:href="#DejaVuSans-48"/>
       <use x="99.707031" xlink:href="#DejaVuSans-46"/>
       <use x="131.494141" xlink:href="#DejaVuSans-53"/>
      </g>
     </g>
    </g>
    <g id="ytick_4">
     <g id="line2d_7">
      <path clip-path="url(#p33ea4eb508)" d="M 50.9 188.774408 
L 1141.2 188.774408 
" style="fill:none;stroke:#b0b0b0;stroke-linecap:square;stroke-width:0.8;"/>
     </g>
     <g id="line2d_8">
      <g>
       <use style="stroke:#000000;stroke-width:0.8;" x="50.9" xlink:href="#m0a23854235" y="188.774408"/>
      </g>
     </g>
     <g id="text_4">
      <!-- 0.0 -->
      <g transform="translate(27.996875 192.573627)scale(0.1 -0.1)">
       <use xlink:href="#DejaVuSans-48"/>
       <use x="63.623047" xlink:href="#DejaVuSans-46"/>
       <use x="95.410156" xlink:href="#DejaVuSans-48"/>
      </g>
     </g>
    </g>
    <g id="ytick_5">
     <g id="line2d_9">
      <path clip-path="url(#p33ea4eb508)" d="M 50.9 138.034436 
L 1141.2 138.034436 
" style="fill:none;stroke:#b0b0b0;stroke-linecap:square;stroke-width:0.8;"/>
     </g>
     <g id="line2d_10">
      <g>
       <use style="stroke:#000000;stroke-width:0.8;" x="50.9" xlink:href="#m0a23854235" y="138.034436"/>
      </g>
     </g>
     <g id="text_5">
      <!-- 0.5 -->
      <g transform="translate(27.996875 141.833655)scale(0.1 -0.1)">
       <use xlink:href="#DejaVuSans-48"/>
       <use x="63.623047" xlink:href="#DejaVuSans-46"/>
       <use x="95.410156" xlink:href="#DejaVuSans-53"/>
      </g>
     </g>
    </g>
    <g id="ytick_6">
     <g id="line2d_11">
      <path clip-path="url(#p33ea4eb508)" d="M 50.9 87.294465 
L 1141.2 87.294465 
" style="fill:none;stroke:#b0b0b0;stroke-linecap:square;stroke-width:0.8;"/>
     </g>
     <g id="line2d_12">
      <g>
       <use style="stroke:#000000;stroke-width:0.8;" x="50.9" xlink:href="#m0a23854235" y="87.294465"/>
      </g>
     </g>
     <g id="text_6">
      <!-- 1.0 -->
      <g transform="translate(27.996875 91.093684)scale(0.1 -0.1)">
       <use xlink:href="#DejaVuSans-49"/>
       <use x="63.623047" xlink:href="#DejaVuSans-46"/>
       <use x="95.410156" xlink:href="#DejaVuSans-48"/>
      </g>
     </g>
    </g>
    <g id="ytick_7">
     <g id="line2d_13">
      <path clip-path="url(#p33ea4eb508)" d="M 50.9 36.554493 
L 1141.2 36.554493 
" style="fill:none;stroke:#b0b0b0;stroke-linecap:square;stroke-width:0.8;"/>
     </g>
     <g id="line2d_14">
      <g>
       <use style="stroke:#000000;stroke-width:0.8;" x="50.9" xlink:href="#m0a23854235" y="36.554493"/>
      </g>
     </g>
     <g id="text_7">
      <!-- 1.5 -->
      <g transform="translate(27.996875 40.353712)scale(0.1 -0.1)">
       <use xlink:href="#DejaVuSans-49"/>
       <use x="63.623047" xlink:href="#DejaVuSans-46"/>
       <use x="95.410156" xlink:href="#DejaVuSans-53"/>
      </g>
     </g>
    </g>
    <g id="text_8">
     <!-- log return cumsum -->
     <g transform="translate(18.309375 233.327969)rotate(-90)scale(0.1 -0.1)">
      <defs>
       <path d="M 9.421875 75.984375 
L 18.40625 75.984375 
L 18.40625 0 
L 9.421875 0 
z
" id="DejaVuSans-108"/>
       <path d="M 30.609375 48.390625 
Q 23.390625 48.390625 19.1875 42.75 
Q 14.984375 37.109375 14.984375 27.296875 
Q 14.984375 17.484375 19.15625 11.84375 
Q 23.34375 6.203125 30.609375 6.203125 
Q 37.796875 6.203125 41.984375 11.859375 
Q 46.1875 17.53125 46.1875 27.296875 
Q 46.1875 37.015625 41.984375 42.703125 
Q 37.796875 48.390625 30.609375 48.390625 
z
M 30.609375 56 
Q 42.328125 56 49.015625 48.375 
Q 55.71875 40.765625 55.71875 27.296875 
Q 55.71875 13.875 49.015625 6.21875 
Q 42.328125 -1.421875 30.609375 -1.421875 
Q 18.84375 -1.421875 12.171875 6.21875 
Q 5.515625 13.875 5.515625 27.296875 
Q 5.515625 40.765625 12.171875 48.375 
Q 18.84375 56 30.609375 56 
z
" id="DejaVuSans-111"/>
       <path d="M 45.40625 27.984375 
Q 45.40625 37.75 41.375 43.109375 
Q 37.359375 48.484375 30.078125 48.484375 
Q 22.859375 48.484375 18.828125 43.109375 
Q 14.796875 37.75 14.796875 27.984375 
Q 14.796875 18.265625 18.828125 12.890625 
Q 22.859375 7.515625 30.078125 7.515625 
Q 37.359375 7.515625 41.375 12.890625 
Q 45.40625 18.265625 45.40625 27.984375 
z
M 54.390625 6.78125 
Q 54.390625 -7.171875 48.1875 -13.984375 
Q 42 -20.796875 29.203125 -20.796875 
Q 24.46875 -20.796875 20.265625 -20.09375 
Q 16.0625 -19.390625 12.109375 -17.921875 
L 12.109375 -9.1875 
Q 16.0625 -11.328125 19.921875 -12.34375 
Q 23.78125 -13.375 27.78125 -13.375 
Q 36.625 -13.375 41.015625 -8.765625 
Q 45.40625 -4.15625 45.40625 5.171875 
L 45.40625 9.625 
Q 42.625 4.78125 38.28125 2.390625 
Q 33.9375 0 27.875 0 
Q 17.828125 0 11.671875 7.65625 
Q 5.515625 15.328125 5.515625 27.984375 
Q 5.515625 40.671875 11.671875 48.328125 
Q 17.828125 56 27.875 56 
Q 33.9375 56 38.28125 53.609375 
Q 42.625 51.21875 45.40625 46.390625 
L 45.40625 54.6875 
L 54.390625 54.6875 
z
" id="DejaVuSans-103"/>
       <path id="DejaVuSans-32"/>
       <path d="M 41.109375 46.296875 
Q 39.59375 47.171875 37.8125 47.578125 
Q 36.03125 48 33.890625 48 
Q 26.265625 48 22.1875 43.046875 
Q 18.109375 38.09375 18.109375 28.8125 
L 18.109375 0 
L 9.078125 0 
L 9.078125 54.6875 
L 18.109375 54.6875 
L 18.109375 46.1875 
Q 20.953125 51.171875 25.484375 53.578125 
Q 30.03125 56 36.53125 56 
Q 37.453125 56 38.578125 55.875 
Q 39.703125 55.765625 41.0625 55.515625 
z
" id="DejaVuSans-114"/>
       <path d="M 56.203125 29.59375 
L 56.203125 25.203125 
L 14.890625 25.203125 
Q 15.484375 15.921875 20.484375 11.0625 
Q 25.484375 6.203125 34.421875 6.203125 
Q 39.59375 6.203125 44.453125 7.46875 
Q 49.3125 8.734375 54.109375 11.28125 
L 54.109375 2.78125 
Q 49.265625 0.734375 44.1875 -0.34375 
Q 39.109375 -1.421875 33.890625 -1.421875 
Q 20.796875 -1.421875 13.15625 6.1875 
Q 5.515625 13.8125 5.515625 26.8125 
Q 5.515625 40.234375 12.765625 48.109375 
Q 20.015625 56 32.328125 56 
Q 43.359375 56 49.78125 48.890625 
Q 56.203125 41.796875 56.203125 29.59375 
z
M 47.21875 32.234375 
Q 47.125 39.59375 43.09375 43.984375 
Q 39.0625 48.390625 32.421875 48.390625 
Q 24.90625 48.390625 20.390625 44.140625 
Q 15.875 39.890625 15.1875 32.171875 
z
" id="DejaVuSans-101"/>
       <path d="M 18.3125 70.21875 
L 18.3125 54.6875 
L 36.8125 54.6875 
L 36.8125 47.703125 
L 18.3125 47.703125 
L 18.3125 18.015625 
Q 18.3125 11.328125 20.140625 9.421875 
Q 21.96875 7.515625 27.59375 7.515625 
L 36.8125 7.515625 
L 36.8125 0 
L 27.59375 0 
Q 17.1875 0 13.234375 3.875 
Q 9.28125 7.765625 9.28125 18.015625 
L 9.28125 47.703125 
L 2.6875 47.703125 
L 2.6875 54.6875 
L 9.28125 54.6875 
L 9.28125 70.21875 
z
" id="DejaVuSans-116"/>
       <path d="M 8.5 21.578125 
L 8.5 54.6875 
L 17.484375 54.6875 
L 17.484375 21.921875 
Q 17.484375 14.15625 20.5 10.265625 
Q 23.53125 6.390625 29.59375 6.390625 
Q 36.859375 6.390625 41.078125 11.03125 
Q 45.3125 15.671875 45.3125 23.6875 
L 45.3125 54.6875 
L 54.296875 54.6875 
L 54.296875 0 
L 45.3125 0 
L 45.3125 8.40625 
Q 42.046875 3.421875 37.71875 1 
Q 33.40625 -1.421875 27.6875 -1.421875 
Q 18.265625 -1.421875 13.375 4.4375 
Q 8.5 10.296875 8.5 21.578125 
z
M 31.109375 56 
z
" id="DejaVuSans-117"/>
       <path d="M 54.890625 33.015625 
L 54.890625 0 
L 45.90625 0 
L 45.90625 32.71875 
Q 45.90625 40.484375 42.875 44.328125 
Q 39.84375 48.1875 33.796875 48.1875 
Q 26.515625 48.1875 22.3125 43.546875 
Q 18.109375 38.921875 18.109375 30.90625 
L 18.109375 0 
L 9.078125 0 
L 9.078125 54.6875 
L 18.109375 54.6875 
L 18.109375 46.1875 
Q 21.34375 51.125 25.703125 53.5625 
Q 30.078125 56 35.796875 56 
Q 45.21875 56 50.046875 50.171875 
Q 54.890625 44.34375 54.890625 33.015625 
z
" id="DejaVuSans-110"/>
       <path d="M 48.78125 52.59375 
L 48.78125 44.1875 
Q 44.96875 46.296875 41.140625 47.34375 
Q 37.3125 48.390625 33.40625 48.390625 
Q 24.65625 48.390625 19.8125 42.84375 
Q 14.984375 37.3125 14.984375 27.296875 
Q 14.984375 17.28125 19.8125 11.734375 
Q 24.65625 6.203125 33.40625 6.203125 
Q 37.3125 6.203125 41.140625 7.25 
Q 44.96875 8.296875 48.78125 10.40625 
L 48.78125 2.09375 
Q 45.015625 0.34375 40.984375 -0.53125 
Q 36.96875 -1.421875 32.421875 -1.421875 
Q 20.0625 -1.421875 12.78125 6.34375 
Q 5.515625 14.109375 5.515625 27.296875 
Q 5.515625 40.671875 12.859375 48.328125 
Q 20.21875 56 33.015625 56 
Q 37.15625 56 41.109375 55.140625 
Q 45.0625 54.296875 48.78125 52.59375 
z
" id="DejaVuSans-99"/>
       <path d="M 52 44.1875 
Q 55.375 50.25 60.0625 53.125 
Q 64.75 56 71.09375 56 
Q 79.640625 56 84.28125 50.015625 
Q 88.921875 44.046875 88.921875 33.015625 
L 88.921875 0 
L 79.890625 0 
L 79.890625 32.71875 
Q 79.890625 40.578125 77.09375 44.375 
Q 74.3125 48.1875 68.609375 48.1875 
Q 61.625 48.1875 57.5625 43.546875 
Q 53.515625 38.921875 53.515625 30.90625 
L 53.515625 0 
L 44.484375 0 
L 44.484375 32.71875 
Q 44.484375 40.625 41.703125 44.40625 
Q 38.921875 48.1875 33.109375 48.1875 
Q 26.21875 48.1875 22.15625 43.53125 
Q 18.109375 38.875 18.109375 30.90625 
L 18.109375 0 
L 9.078125 0 
L 9.078125 54.6875 
L 18.109375 54.6875 
L 18.109375 46.1875 
Q 21.1875 51.21875 25.484375 53.609375 
Q 29.78125 56 35.6875 56 
Q 41.65625 56 45.828125 52.96875 
Q 50 49.953125 52 44.1875 
z
" id="DejaVuSans-109"/>
       <path d="M 44.28125 53.078125 
L 44.28125 44.578125 
Q 40.484375 46.53125 36.375 47.5 
Q 32.28125 48.484375 27.875 48.484375 
Q 21.1875 48.484375 17.84375 46.4375 
Q 14.5 44.390625 14.5 40.28125 
Q 14.5 37.15625 16.890625 35.375 
Q 19.28125 33.59375 26.515625 31.984375 
L 29.59375 31.296875 
Q 39.15625 29.25 43.1875 25.515625 
Q 47.21875 21.78125 47.21875 15.09375 
Q 47.21875 7.46875 41.1875 3.015625 
Q 35.15625 -1.421875 24.609375 -1.421875 
Q 20.21875 -1.421875 15.453125 -0.5625 
Q 10.6875 0.296875 5.421875 2 
L 5.421875 11.28125 
Q 10.40625 8.6875 15.234375 7.390625 
Q 20.0625 6.109375 24.8125 6.109375 
Q 31.15625 6.109375 34.5625 8.28125 
Q 37.984375 10.453125 37.984375 14.40625 
Q 37.984375 18.0625 35.515625 20.015625 
Q 33.0625 21.96875 24.703125 23.78125 
L 21.578125 24.515625 
Q 13.234375 26.265625 9.515625 29.90625 
Q 5.8125 33.546875 5.8125 39.890625 
Q 5.8125 47.609375 11.28125 51.796875 
Q 16.75 56 26.8125 56 
Q 31.78125 56 36.171875 55.265625 
Q 40.578125 54.546875 44.28125 53.078125 
z
" id="DejaVuSans-115"/>
      </defs>
      <use xlink:href="#DejaVuSans-108"/>
      <use x="27.783203" xlink:href="#DejaVuSans-111"/>
      <use x="88.964844" xlink:href="#DejaVuSans-103"/>
      <use x="152.441406" xlink:href="#DejaVuSans-32"/>
      <use x="184.228516" xlink:href="#DejaVuSans-114"/>
      <use x="223.091797" xlink:href="#DejaVuSans-101"/>
      <use x="284.615234" xlink:href="#DejaVuSans-116"/>
      <use x="323.824219" xlink:href="#DejaVuSans-117"/>
      <use x="387.203125" xlink:href="#DejaVuSans-114"/>
      <use x="426.566406" xlink:href="#DejaVuSans-110"/>
      <use x="489.945312" xlink:href="#DejaVuSans-32"/>
      <use x="521.732422" xlink:href="#DejaVuSans-99"/>
      <use x="576.712891" xlink:href="#DejaVuSans-117"/>
      <use x="640.091797" xlink:href="#DejaVuSans-109"/>
      <use x="737.503906" xlink:href="#DejaVuSans-115"/>
      <use x="789.603516" xlink:href="#DejaVuSans-117"/>
      <use x="852.982422" xlink:href="#DejaVuSans-109"/>
     </g>
    </g>
   </g>
   <g id="line2d_15">
    <path clip-path="url(#p33ea4eb508)" d="M 100.459091 193.88335 
L 104.242228 195.622683 
L 108.025364 199.108504 
L 111.808501 203.993468 
L 123.157911 195.247482 
L 126.941048 189.468714 
L 130.724185 186.457645 
L 134.507321 192.721132 
L 138.290458 191.556148 
L 149.639868 194.829513 
L 153.423005 202.866008 
L 157.206142 200.63464 
L 160.989278 207.962544 
L 164.772415 205.754402 
L 176.121825 208.368863 
L 179.904962 216.310192 
L 183.688099 208.987094 
L 187.471235 204.675221 
L 191.254372 203.741165 
L 202.603782 213.212435 
L 206.386919 213.058895 
L 210.170056 214.855217 
L 213.953192 215.709518 
L 217.736329 214.772845 
L 229.085739 217.486291 
L 232.868876 226.297152 
L 236.652012 225.542209 
L 240.435149 224.498015 
L 244.218286 225.318218 
L 255.567696 226.398131 
L 259.350833 220.164442 
L 263.133969 221.955385 
L 266.917106 225.444072 
L 270.700243 221.768123 
L 282.049653 224.806084 
L 285.83279 218.723583 
L 289.615926 222.197546 
L 293.399063 226.691191 
L 297.1822 227.28195 
L 308.53161 228.232597 
L 312.314747 231.311552 
L 316.097883 229.662507 
L 323.664157 239.490669 
L 335.013567 238.910662 
L 342.57984 239.809976 
L 346.362977 237.99976 
L 350.146114 240.096663 
L 361.495524 238.144548 
L 365.278661 239.730589 
L 369.061797 242.547705 
L 372.844934 247.687262 
L 376.628071 245.686758 
L 387.977481 249.484139 
L 391.760618 252.922382 
L 395.543754 244.177626 
L 399.326891 239.847898 
L 403.110028 239.756428 
L 414.459438 245.629094 
L 418.242575 246.716918 
L 422.025711 246.278289 
L 425.808848 243.022549 
L 429.591985 240.272892 
L 440.941395 234.711198 
L 444.724532 242.364609 
L 448.507668 244.726903 
L 452.290805 247.244908 
L 456.073942 243.006033 
L 467.423352 241.601528 
L 471.206489 240.007264 
L 474.989625 238.738501 
L 478.772762 234.345403 
L 482.555899 227.33921 
L 493.905309 226.014055 
L 497.688446 221.40441 
L 501.471582 222.255977 
L 505.254719 214.366965 
L 509.037856 212.173027 
L 520.387266 209.672576 
L 524.170402 209.12526 
L 527.953539 211.333904 
L 531.736676 211.079581 
L 535.519813 207.838245 
L 546.869223 206.182618 
L 550.652359 212.379341 
L 554.435496 211.607474 
L 558.218633 211.762473 
L 562.00177 205.501949 
L 573.35118 203.982225 
L 577.134316 199.123058 
L 580.917453 208.566804 
L 584.70059 210.936876 
L 588.483727 203.688522 
L 599.833137 206.200627 
L 603.616273 205.336437 
L 607.39941 203.922638 
L 611.182547 203.34404 
L 614.965684 205.108077 
L 626.315094 197.99271 
L 630.09823 200.839432 
L 633.881367 197.54857 
L 637.664504 196.349451 
L 641.447641 193.933955 
L 652.797051 190.662439 
L 660.363324 201.907265 
L 664.146461 197.762666 
L 667.929598 199.142787 
L 679.279008 191.508064 
L 683.062144 189.994759 
L 686.845281 187.827276 
L 690.628418 189.986638 
L 694.411554 188.636755 
L 705.760965 190.064256 
L 709.544101 192.895469 
L 713.327238 194.455782 
L 717.110375 193.272869 
L 720.893511 196.410297 
L 732.242922 192.68425 
L 736.026058 190.835858 
L 739.809195 194.308921 
L 743.592332 187.191459 
L 747.375468 187.135598 
L 758.724879 191.154935 
L 762.508015 191.646652 
L 766.291152 195.114931 
L 770.074289 191.968502 
L 773.857425 192.869804 
L 785.206836 198.317117 
L 788.989972 196.591288 
L 792.773109 191.746072 
L 796.556246 194.308748 
L 800.339382 195.743839 
L 811.688793 197.107836 
L 815.471929 206.028662 
L 819.255066 209.610235 
L 823.038203 201.807138 
L 826.821339 199.280492 
L 838.170749 202.117462 
L 841.953886 194.404835 
L 845.737023 194.610687 
L 849.52016 187.609863 
L 853.303296 186.224612 
L 864.652706 190.945532 
L 868.435843 188.2076 
L 872.21898 185.713776 
L 876.002117 182.172347 
L 879.785253 181.897049 
L 891.134663 187.31334 
L 894.9178 183.524351 
L 898.700937 188.838977 
L 902.484074 181.252551 
L 906.26721 177.797174 
L 917.61662 179.4417 
L 921.399757 175.312388 
L 925.182894 180.704902 
L 928.966031 183.919147 
L 932.749167 176.441529 
L 944.098577 175.814647 
L 947.881714 177.00391 
L 951.664851 186.401535 
L 955.447988 188.49473 
L 959.231124 186.920067 
L 970.580534 194.675867 
L 974.363671 196.66543 
L 978.146808 197.658045 
L 981.929944 194.402304 
L 985.713081 192.34956 
L 997.062491 192.534025 
L 1000.845628 190.524293 
L 1004.628765 196.194673 
L 1008.411901 197.22017 
L 1012.195038 199.901851 
L 1023.544448 202.912909 
L 1031.110722 200.978451 
L 1034.893858 206.823364 
L 1038.676995 205.148451 
L 1050.026405 201.340956 
L 1053.809542 201.988274 
L 1057.592679 202.403585 
L 1061.375815 195.359691 
L 1065.158952 198.594934 
L 1076.508362 207.55889 
L 1080.291499 199.408503 
L 1084.074636 193.634004 
L 1087.857772 199.366427 
L 1091.640909 199.366427 
L 1091.640909 199.366427 
" style="fill:none;stroke:#9467bd;stroke-linecap:square;stroke-width:1.5;"/>
   </g>
   <g id="line2d_16">
    <path clip-path="url(#p33ea4eb508)" d="M 100.459091 188.974178 
L 104.242228 190.538241 
L 108.025364 193.491998 
L 111.808501 196.099555 
L 123.157911 195.009583 
L 126.941048 196.103976 
L 130.724185 200.282719 
L 134.507321 194.110246 
L 138.290458 199.671035 
L 149.639868 201.03965 
L 153.423005 203.495357 
L 157.206142 203.069596 
L 160.989278 207.447668 
L 164.772415 206.061416 
L 176.121825 208.538456 
L 179.904962 215.468505 
L 183.688099 217.201654 
L 187.471235 218.77334 
L 191.254372 217.929972 
L 202.603782 218.344598 
L 206.386919 212.204484 
L 210.170056 213.061887 
L 213.953192 222.069628 
L 217.736329 220.682605 
L 229.085739 221.927431 
L 232.868876 220.772384 
L 236.652012 223.496952 
L 240.435149 226.002455 
L 244.218286 226.202387 
L 255.567696 227.073363 
L 259.350833 231.305948 
L 263.133969 234.841988 
L 266.917106 234.167912 
L 270.700243 237.755554 
L 282.049653 240.86481 
L 285.83279 241.53709 
L 289.615926 237.874801 
L 293.399063 240.44625 
L 297.1822 250.087297 
L 308.53161 249.739242 
L 312.314747 256.789452 
L 316.097883 263.332677 
L 319.88102 271.380989 
L 323.664157 268.463152 
L 335.013567 266.526613 
L 338.796704 273.268843 
L 342.57984 266.613292 
L 346.362977 270.067382 
L 350.146114 272.944218 
L 361.495524 269.135708 
L 365.278661 271.274138 
L 369.061797 272.70455 
L 372.844934 272.315047 
L 376.628071 277.620559 
L 391.760618 279.615186 
L 395.543754 284.588988 
L 399.326891 280.911001 
L 403.110028 272.667581 
L 414.459438 277.309525 
L 418.242575 284.43826 
L 422.025711 286.986635 
L 425.808848 280.405793 
L 429.591985 286.520212 
L 440.941395 279.226752 
L 444.724532 283.30842 
L 448.507668 280.088385 
L 452.290805 282.363886 
L 456.073942 276.611506 
L 467.423352 278.143978 
L 474.989625 275.439851 
L 478.772762 275.004925 
L 482.555899 275.570475 
L 493.905309 269.098083 
L 497.688446 275.870653 
L 501.471582 278.353709 
L 505.254719 272.311999 
L 509.037856 270.137422 
L 520.387266 268.477187 
L 524.170402 276.702141 
L 527.953539 281.155546 
L 531.736676 282.18103 
L 535.519813 284.278891 
L 546.869223 279.647832 
L 550.652359 280.800914 
L 554.435496 286.382701 
L 558.218633 284.436705 
L 562.00177 281.073911 
L 573.35118 285.466356 
L 577.134316 285.13828 
L 580.917453 285.979318 
L 584.70059 293.707667 
L 588.483727 291.400917 
L 599.833137 292.3747 
L 603.616273 291.412489 
L 607.39941 294.105722 
L 611.182547 299.757162 
L 614.965684 302.922959 
L 630.09823 304.790129 
L 633.881367 311.54535 
L 637.664504 312.552356 
L 641.447641 311.617959 
L 652.797051 314.213789 
L 656.580187 309.954669 
L 660.363324 311.518291 
L 664.146461 311.190517 
L 667.929598 312.07676 
L 679.279008 311.981832 
L 683.062144 314.380469 
L 686.845281 308.584629 
L 690.628418 309.784459 
L 694.411554 312.215748 
L 705.760965 311.522748 
L 709.544101 315.53391 
L 713.327238 319.272739 
L 717.110375 317.697544 
L 720.893511 312.88028 
L 732.242922 315.185904 
L 736.026058 314.433729 
L 739.809195 315.158701 
L 743.592332 311.165975 
L 747.375468 312.124054 
L 758.724879 316.359734 
L 762.508015 317.045014 
L 766.291152 319.18871 
L 770.074289 315.44522 
L 773.857425 308.658994 
L 785.206836 307.951611 
L 788.989972 309.467408 
L 792.773109 304.844722 
L 796.556246 307.369045 
L 800.339382 311.936569 
L 811.688793 306.376471 
L 815.471929 306.758147 
L 819.255066 308.604962 
L 823.038203 307.052462 
L 826.821339 303.231498 
L 838.170749 309.78813 
L 841.953886 310.053978 
L 845.737023 316.842988 
L 849.52016 311.447027 
L 853.303296 314.507171 
L 864.652706 320.613084 
L 868.435843 317.890302 
L 872.21898 323.037072 
L 876.002117 320.112377 
L 879.785253 325.612486 
L 891.134663 321.69031 
L 894.9178 327.85456 
L 898.700937 331.012562 
L 902.484074 331.164545 
L 906.26721 329.704501 
L 917.61662 322.750404 
L 921.399757 323.735386 
L 925.182894 322.713972 
L 928.966031 322.139105 
L 932.749167 319.199837 
L 944.098577 314.81564 
L 947.881714 309.959967 
L 951.664851 305.87625 
L 955.447988 303.264807 
L 959.231124 301.092254 
L 970.580534 298.440515 
L 974.363671 297.918197 
L 978.146808 304.058711 
L 981.929944 302.969107 
L 985.713081 305.458556 
L 997.062491 308.115327 
L 1000.845628 303.516065 
L 1004.628765 308.819186 
L 1008.411901 302.65649 
L 1012.195038 293.84299 
L 1023.544448 286.551592 
L 1027.327585 285.056996 
L 1031.110722 287.117247 
L 1034.893858 290.691256 
L 1038.676995 284.825508 
L 1050.026405 286.00671 
L 1053.809542 286.897393 
L 1057.592679 287.392616 
L 1061.375815 283.434516 
L 1065.158952 284.671386 
L 1076.508362 281.939649 
L 1084.074636 272.722123 
L 1087.857772 270.048754 
L 1091.640909 270.048754 
L 1091.640909 270.048754 
" style="fill:none;stroke:#1f77b4;stroke-linecap:square;stroke-width:1.5;"/>
   </g>
   <g id="line2d_17">
    <path clip-path="url(#p33ea4eb508)" d="M 100.459091 190.316137 
L 104.242228 189.816119 
L 108.025364 194.356358 
L 111.808501 193.789983 
L 123.157911 191.532929 
L 126.941048 190.075276 
L 130.724185 189.974582 
L 134.507321 188.671364 
L 138.290458 184.900355 
L 149.639868 188.053558 
L 153.423005 189.553922 
L 157.206142 187.340948 
L 160.989278 190.956366 
L 164.772415 187.746762 
L 176.121825 188.060096 
L 179.904962 191.257412 
L 183.688099 188.254293 
L 187.471235 189.51045 
L 191.254372 188.966052 
L 202.603782 188.758132 
L 206.386919 186.165555 
L 210.170056 184.863385 
L 213.953192 188.247903 
L 217.736329 189.437849 
L 229.085739 191.802643 
L 232.868876 192.10047 
L 236.652012 194.031543 
L 240.435149 193.465467 
L 244.218286 191.442503 
L 255.567696 191.905038 
L 259.350833 189.850786 
L 263.133969 188.407031 
L 266.917106 188.530303 
L 270.700243 187.639628 
L 282.049653 186.957407 
L 285.83279 187.798083 
L 289.615926 183.837368 
L 297.1822 189.01941 
L 308.53161 188.677533 
L 312.314747 189.820869 
L 316.097883 192.220628 
L 319.88102 194.292623 
L 323.664157 191.45946 
L 335.013567 190.411612 
L 338.796704 190.599993 
L 342.57984 187.501604 
L 346.362977 187.397752 
L 350.146114 188.008401 
L 361.495524 187.815946 
L 365.278661 190.186319 
L 369.061797 190.35613 
L 372.844934 188.455822 
L 376.628071 189.365998 
L 387.977481 190.940786 
L 391.760618 188.777025 
L 395.543754 186.338433 
L 399.326891 184.180278 
L 403.110028 181.887911 
L 414.459438 184.6278 
L 418.242575 188.623087 
L 422.025711 188.371607 
L 425.808848 184.120037 
L 429.591985 183.578031 
L 440.941395 178.230456 
L 444.724532 180.823241 
L 448.507668 181.619954 
L 452.290805 182.266314 
L 456.073942 177.86304 
L 467.423352 177.661831 
L 471.206489 177.354842 
L 474.989625 177.468624 
L 478.772762 176.264678 
L 482.555899 175.803478 
L 493.905309 174.75372 
L 497.688446 173.763272 
L 501.471582 176.067417 
L 505.254719 173.824716 
L 509.037856 172.481544 
L 520.387266 172.166345 
L 524.170402 174.882764 
L 527.953539 175.568833 
L 531.736676 173.769399 
L 535.519813 175.668378 
L 546.869223 172.942184 
L 550.652359 172.305235 
L 554.435496 175.5946 
L 558.218633 172.056989 
L 562.00177 170.803107 
L 573.35118 173.392458 
L 577.134316 172.309849 
L 580.917453 176.3177 
L 584.70059 176.768212 
L 588.483727 174.499765 
L 599.833137 176.141854 
L 603.616273 176.150865 
L 607.39941 175.856999 
L 611.182547 176.494311 
L 614.965684 175.509809 
L 626.315094 173.982103 
L 630.09823 172.276465 
L 633.881367 171.798496 
L 637.664504 175.098148 
L 641.447641 174.92539 
L 652.797051 176.491332 
L 656.580187 177.515868 
L 660.363324 180.613333 
L 667.929598 179.106107 
L 679.279008 176.545101 
L 683.062144 176.795666 
L 686.845281 174.609205 
L 690.628418 172.198245 
L 694.411554 170.678606 
L 705.760965 169.154342 
L 709.544101 170.707041 
L 713.327238 171.695178 
L 717.110375 171.019803 
L 720.893511 170.670722 
L 732.242922 171.246147 
L 736.026058 171.251586 
L 739.809195 170.471161 
L 743.592332 169.35878 
L 747.375468 169.028075 
L 758.724879 169.783713 
L 762.508015 169.237138 
L 766.291152 169.353576 
L 770.074289 169.182853 
L 773.857425 168.863873 
L 785.206836 168.480833 
L 788.989972 167.042406 
L 792.773109 164.743263 
L 796.556246 165.947009 
L 800.339382 166.254348 
L 811.688793 164.441915 
L 815.471929 165.276264 
L 819.255066 165.752192 
L 823.038203 163.341224 
L 826.821339 161.359371 
L 838.170749 164.741636 
L 841.953886 166.415468 
L 845.737023 167.064539 
L 849.52016 164.838192 
L 853.303296 165.9814 
L 864.652706 167.124203 
L 868.435843 166.918541 
L 872.21898 167.865697 
L 876.002117 166.991177 
L 879.785253 169.822809 
L 891.134663 168.379947 
L 894.9178 168.950204 
L 898.700937 168.314521 
L 902.484074 166.735706 
L 906.26721 166.439221 
L 917.61662 161.727434 
L 921.399757 158.648477 
L 925.182894 160.284265 
L 928.966031 161.370237 
L 932.749167 158.323833 
L 944.098577 157.055462 
L 947.881714 154.087622 
L 955.447988 157.978474 
L 959.231124 157.338544 
L 970.580534 156.493034 
L 974.363671 156.621149 
L 978.146808 159.633028 
L 981.929944 159.934683 
L 985.713081 159.453768 
L 997.062491 158.350608 
L 1000.845628 154.721916 
L 1004.628765 157.770103 
L 1008.411901 158.656629 
L 1012.195038 155.261009 
L 1023.544448 156.851064 
L 1027.327585 155.85645 
L 1031.110722 154.284852 
L 1034.893858 155.981074 
L 1038.676995 153.569108 
L 1050.026405 151.344584 
L 1053.809542 151.862151 
L 1057.592679 152.748523 
L 1061.375815 152.175332 
L 1065.158952 153.354883 
L 1076.508362 152.995601 
L 1080.291499 150.200932 
L 1084.074636 147.722181 
L 1087.857772 147.562144 
L 1087.857772 147.562144 
" style="fill:none;stroke:#8c564b;stroke-linecap:square;stroke-width:1.5;"/>
   </g>
   <g id="line2d_18">
    <path clip-path="url(#p33ea4eb508)" d="M 100.459091 192.286893 
L 104.242228 194.53743 
L 108.025364 193.528919 
L 111.808501 199.011607 
L 123.157911 192.381401 
L 126.941048 187.999101 
L 130.724185 185.085877 
L 134.507321 192.754171 
L 138.290458 195.460185 
L 149.639868 195.576668 
L 153.423005 202.013766 
L 157.206142 201.994968 
L 160.989278 205.575197 
L 164.772415 206.609004 
L 176.121825 208.902956 
L 179.904962 213.496448 
L 183.688099 209.049519 
L 187.471235 203.548165 
L 191.254372 203.156415 
L 202.603782 212.856436 
L 206.386919 215.359372 
L 210.170056 218.498504 
L 213.953192 216.05029 
L 217.736329 213.948207 
L 229.085739 214.288814 
L 232.868876 222.775828 
L 236.652012 220.139789 
L 240.435149 219.659003 
L 244.218286 222.560242 
L 255.567696 223.174804 
L 259.350833 218.911672 
L 266.917106 225.554737 
L 270.700243 222.745246 
L 282.049653 226.490992 
L 285.83279 219.62304 
L 289.615926 227.365202 
L 293.399063 229.214288 
L 297.1822 227.268915 
L 308.53161 228.565828 
L 312.314747 230.479556 
L 316.097883 226.523553 
L 319.88102 229.309384 
L 323.664157 237.282728 
L 338.796704 237.973038 
L 342.57984 241.677751 
L 346.362977 239.969654 
L 350.146114 241.446927 
L 361.495524 239.683956 
L 365.278661 238.917663 
L 369.061797 241.560485 
L 372.844934 248.738237 
L 376.628071 245.85318 
L 387.977481 248.041178 
L 391.760618 253.767381 
L 395.543754 247.312619 
L 399.326891 245.094876 
L 403.110028 247.346618 
L 414.459438 250.394678 
L 418.242575 247.597926 
L 422.025711 247.410312 
L 425.808848 248.448969 
L 429.591985 246.229623 
L 440.941395 246.00393 
L 444.724532 250.933745 
L 448.507668 252.486989 
L 452.290805 254.346641 
L 456.073942 254.518336 
L 467.423352 253.312666 
L 474.989625 250.640509 
L 478.772762 247.413896 
L 482.555899 240.840034 
L 493.905309 240.561777 
L 497.688446 236.907717 
L 501.471582 235.487521 
L 505.254719 229.718558 
L 509.037856 228.856503 
L 520.387266 226.664527 
L 524.170402 223.485661 
L 531.736676 226.570868 
L 535.519813 221.523519 
L 546.869223 222.623394 
L 550.652359 229.501584 
L 554.435496 225.567405 
L 558.218633 229.39351 
L 562.00177 224.326151 
L 573.35118 220.318579 
L 577.134316 216.502268 
L 580.917453 221.722153 
L 584.70059 223.633129 
L 588.483727 218.543427 
L 599.833137 219.399418 
L 603.616273 218.526294 
L 611.182547 216.194789 
L 614.965684 218.970492 
L 626.315094 213.300401 
L 630.09823 217.931709 
L 633.881367 215.10572 
L 637.664504 210.74783 
L 641.447641 208.501312 
L 652.797051 203.736216 
L 656.580187 208.220601 
L 660.363324 210.733616 
L 664.146461 207.313311 
L 667.929598 209.467836 
L 683.062144 202.508156 
L 686.845281 202.527546 
L 690.628418 207.210324 
L 694.411554 207.382645 
L 705.760965 210.379747 
L 709.544101 211.638727 
L 713.327238 212.205343 
L 717.110375 211.694425 
L 720.893511 215.193157 
L 732.242922 210.915501 
L 736.026058 209.061768 
L 739.809195 213.348797 
L 743.592332 207.279469 
L 747.375468 207.555211 
L 762.508015 211.838236 
L 766.291152 215.18617 
L 770.074289 212.205526 
L 773.857425 213.429673 
L 785.206836 219.282722 
L 788.989972 218.991224 
L 792.773109 216.38755 
L 796.556246 217.73035 
L 800.339382 218.854673 
L 811.688793 222.089266 
L 815.471929 230.106843 
L 819.255066 233.197734 
L 823.038203 227.679426 
L 826.821339 227.123919 
L 838.170749 226.596452 
L 841.953886 217.356764 
L 845.737023 216.916365 
L 849.52016 212.03849 
L 853.303296 209.538009 
L 864.652706 213.07535 
L 868.435843 210.538007 
L 872.21898 207.128462 
L 876.002117 204.438775 
L 879.785253 201.41608 
L 891.134663 208.376901 
L 894.9178 204.041568 
L 898.700937 210.030393 
L 902.484074 203.93136 
L 906.26721 200.763369 
L 917.61662 207.431909 
L 921.399757 206.34937 
L 925.182894 210.044918 
L 928.966031 212.150301 
L 932.749167 207.587038 
L 944.098577 208.236621 
L 947.881714 212.519736 
L 951.664851 219.851323 
L 955.447988 219.971967 
L 959.231124 219.031347 
L 970.580534 227.707787 
L 974.363671 229.566864 
L 978.146808 227.606084 
L 981.929944 224.059064 
L 985.713081 222.479826 
L 997.062491 223.781615 
L 1000.845628 225.460004 
L 1004.628765 228.003623 
L 1008.411901 228.141385 
L 1012.195038 234.43202 
L 1023.544448 235.830779 
L 1027.327585 235.848854 
L 1031.110722 236.472319 
L 1034.893858 240.550841 
L 1038.676995 241.305688 
L 1050.026405 239.687912 
L 1053.809542 239.817003 
L 1057.592679 239.350028 
L 1061.375815 232.843824 
L 1065.158952 234.875521 
L 1076.508362 244.233398 
L 1080.291499 238.732121 
L 1084.074636 235.35622 
L 1087.857772 241.258255 
L 1087.857772 241.258255 
" style="fill:none;stroke:#e377c2;stroke-linecap:square;stroke-width:1.5;"/>
   </g>
   <g id="line2d_19">
    <path clip-path="url(#p33ea4eb508)" d="M 100.459091 190.113711 
L 104.242228 188.080885 
L 108.025364 189.621507 
L 111.808501 186.526876 
L 123.157911 185.347265 
L 126.941048 182.822255 
L 130.724185 178.712009 
L 134.507321 183.894555 
L 138.290458 175.039277 
L 149.639868 176.79975 
L 153.423005 175.867143 
L 157.206142 174.072481 
L 160.989278 173.341915 
L 164.772415 171.493711 
L 176.121825 169.381641 
L 179.904962 165.891119 
L 183.688099 161.233241 
L 187.471235 160.922554 
L 191.254372 161.224022 
L 202.603782 160.604007 
L 206.386919 164.376981 
L 210.170056 162.235386 
L 213.953192 157.077865 
L 217.736329 159.690758 
L 229.085739 160.796996 
L 232.868876 162.266623 
L 236.652012 161.494069 
L 240.435149 158.496303 
L 244.218286 156.277734 
L 255.567696 155.872776 
L 259.350833 149.835274 
L 263.133969 145.02203 
L 266.917106 145.824713 
L 270.700243 141.498684 
L 282.049653 137.819565 
L 285.83279 137.986849 
L 289.615926 137.677473 
L 293.399063 137.701596 
L 297.1822 131.265986 
L 308.53161 131.272186 
L 312.314747 125.75117 
L 316.097883 121.861542 
L 319.88102 116.328704 
L 323.664157 116.41585 
L 335.013567 117.321738 
L 338.796704 111.176678 
L 342.57984 114.97953 
L 346.362977 111.538657 
L 350.146114 109.335129 
L 361.495524 113.092062 
L 365.278661 113.319164 
L 369.061797 112.076099 
L 372.844934 110.559528 
L 376.628071 106.38354 
L 387.977481 106.460387 
L 391.760618 103.811654 
L 395.543754 96.741741 
L 399.326891 98.318104 
L 403.110028 104.789139 
L 414.459438 102.971372 
L 418.242575 100.047456 
L 422.025711 97.31611 
L 425.808848 99.803364 
L 429.591985 93.524372 
L 440.941395 95.616764 
L 444.724532 94.186166 
L 448.507668 98.335095 
L 452.290805 96.741795 
L 456.073942 98.170142 
L 467.423352 96.462227 
L 471.206489 97.567096 
L 474.989625 99.006891 
L 478.772762 98.23458 
L 482.555899 97.213508 
L 493.905309 103.003644 
L 497.688446 95.724264 
L 501.471582 95.549675 
L 505.254719 99.586425 
L 509.037856 100.435914 
L 520.387266 101.803286 
L 524.170402 96.713033 
L 527.953539 93.104609 
L 531.736676 90.307706 
L 535.519813 90.112889 
L 546.869223 92.107577 
L 550.652359 90.337596 
L 554.435496 88.166557 
L 558.218633 86.544371 
L 562.00177 88.725107 
L 573.35118 86.997747 
L 577.134316 86.240781 
L 580.917453 89.381047 
L 584.70059 82.619508 
L 588.483727 82.658692 
L 599.833137 83.320595 
L 603.616273 84.301115 
L 607.39941 81.391139 
L 611.182547 76.642361 
L 614.965684 72.617043 
L 626.315094 69.804417 
L 630.09823 67.564823 
L 633.881367 60.782234 
L 637.664504 63.051987 
L 641.447641 63.820699 
L 652.797051 62.816693 
L 656.580187 68.33309 
L 660.363324 69.843305 
L 664.146461 69.420688 
L 667.929598 67.790433 
L 679.279008 65.322076 
L 683.062144 63.223666 
L 686.845281 67.049236 
L 690.628418 63.48015 
L 694.411554 59.620998 
L 705.760965 58.784061 
L 709.544101 56.419776 
L 713.327238 53.767295 
L 717.110375 54.681254 
L 720.893511 59.371755 
L 732.242922 57.6801 
L 736.026058 58.443372 
L 739.809195 56.948613 
L 743.592332 59.946267 
L 747.375468 58.669518 
L 762.508015 54.105811 
L 766.291152 52.120516 
L 770.074289 55.830024 
L 773.857425 62.760153 
L 785.206836 63.086769 
L 788.989972 60.175721 
L 792.773109 62.608864 
L 796.556246 61.320527 
L 800.339382 57.244122 
L 811.688793 61.207025 
L 815.471929 61.657996 
L 819.255066 60.311668 
L 823.038203 59.440023 
L 826.821339 61.350369 
L 838.170749 58.371727 
L 841.953886 59.776003 
L 845.737023 54.022339 
L 849.52016 57.367936 
L 853.303296 55.507425 
L 864.652706 50.827554 
L 868.435843 53.414004 
L 872.21898 49.418037 
L 876.002117 51.528786 
L 879.785253 48.999348 
L 891.134663 51.577615 
L 894.9178 46.304892 
L 898.700937 42.625365 
L 902.484074 40.897135 
L 906.26721 42.077654 
L 917.61662 44.480908 
L 921.399757 40.455455 
L 925.182894 43.139895 
L 928.966031 44.810247 
L 932.749167 44.699965 
L 944.098577 47.955583 
L 947.881714 49.936851 
L 951.664851 56.195547 
L 955.447988 60.899417 
L 959.231124 62.465464 
L 974.363671 64.973752 
L 978.146808 62.026174 
L 981.929944 63.432557 
L 985.713081 60.533155 
L 997.062491 56.86865 
L 1000.845628 57.884445 
L 1004.628765 55.743121 
L 1008.411901 63.250417 
L 1012.195038 69.174497 
L 1023.544448 78.749754 
L 1027.327585 79.257172 
L 1031.110722 75.697049 
L 1034.893858 73.883667 
L 1038.676995 77.54672 
L 1050.026405 74.179759 
L 1053.809542 73.809898 
L 1057.592679 74.19914 
L 1061.375815 77.721044 
L 1065.158952 77.664418 
L 1076.508362 80.102389 
L 1080.291499 82.00477 
L 1084.074636 84.231627 
L 1087.857772 86.812911 
L 1087.857772 86.812911 
" style="fill:none;stroke:#7f7f7f;stroke-linecap:square;stroke-width:1.5;"/>
   </g>
   <g id="line2d_20">
    <path clip-path="url(#p33ea4eb508)" d="M 100.459091 193.673689 
L 104.242228 193.846276 
L 108.025364 194.363038 
L 111.808501 196.582035 
L 123.157911 188.846419 
L 130.724185 175.135154 
L 134.507321 188.404214 
L 138.290458 182.026045 
L 149.639868 183.905041 
L 153.423005 189.348756 
L 157.206142 187.535625 
L 160.989278 190.359152 
L 164.772415 189.526003 
L 176.121825 189.660109 
L 179.904962 190.604322 
L 183.688099 181.694894 
L 187.471235 175.899222 
L 191.254372 175.807777 
L 202.603782 184.825802 
L 206.386919 191.197746 
L 210.170056 192.128728 
L 213.953192 184.642929 
L 229.085739 186.550076 
L 232.868876 196.635925 
L 240.435149 189.782478 
L 244.218286 190.401524 
L 255.567696 190.608674 
L 259.350833 180.549461 
L 263.133969 178.86363 
L 266.917106 183.054718 
L 270.700243 176.034906 
L 282.049653 175.965763 
L 285.83279 169.254139 
L 289.615926 176.662438 
L 293.399063 178.536092 
L 297.1822 170.27358 
L 308.53161 171.576772 
L 312.314747 167.86724 
L 316.097883 160.167612 
L 319.88102 157.270847 
L 323.664157 165.338463 
L 335.013567 166.721307 
L 338.796704 160.781051 
L 342.57984 168.432796 
L 346.362977 163.340311 
L 350.146114 162.582097 
L 361.495524 164.510164 
L 365.278661 163.969263 
L 369.061797 165.336427 
L 372.844934 170.887341 
L 376.628071 163.941036 
L 387.977481 166.207557 
L 391.760618 169.133372 
L 395.543754 156.03043 
L 399.326891 155.354713 
L 403.110028 164.227521 
L 414.459438 165.402895 
L 418.242575 159.760605 
L 422.025711 156.846623 
L 425.808848 160.398442 
L 429.591985 152.031903 
L 440.941395 153.893905 
L 444.724532 157.322432 
L 448.507668 163.089944 
L 452.290805 163.327065 
L 456.073942 164.929542 
L 467.423352 162.035962 
L 471.206489 161.835637 
L 474.989625 161.874827 
L 478.772762 157.899984 
L 482.555899 150.368797 
L 493.905309 155.864362 
L 497.688446 145.17966 
L 501.471582 143.587299 
L 505.254719 141.627763 
L 509.037856 141.607982 
L 520.387266 140.753966 
L 524.170402 132.638071 
L 527.953539 130.488677 
L 531.736676 129.221658 
L 535.519813 123.988935 
L 546.869223 127.105452 
L 550.652359 132.090686 
L 554.435496 126.06718 
L 558.218633 128.209285 
L 562.00177 125.215349 
L 573.35118 119.546759 
L 577.134316 115.001319 
L 580.917453 123.529956 
L 588.483727 113.502689 
L 599.833137 115.026209 
L 603.616273 115.125164 
L 607.39941 111.123605 
L 611.182547 105.221414 
L 614.965684 103.862422 
L 626.315094 95.530561 
L 630.09823 97.818895 
L 633.881367 88.390663 
L 637.664504 86.20609 
L 641.447641 84.711391 
L 652.797051 78.988126 
L 656.580187 89.245365 
L 660.363324 93.306751 
L 664.146461 89.477808 
L 667.929598 89.967381 
L 679.279008 82.420786 
L 683.062144 78.598526 
L 686.845281 82.444232 
L 690.628418 83.392433 
L 694.411554 79.699166 
L 705.760965 81.834351 
L 709.544101 80.699877 
L 713.327238 78.599353 
L 717.110375 78.997785 
L 720.893511 87.355554 
L 732.242922 81.455515 
L 736.026058 80.351185 
L 739.809195 83.07945 
L 743.592332 79.831305 
L 747.375468 78.826847 
L 758.724879 78.619339 
L 762.508015 78.427077 
L 766.291152 79.723795 
L 770.074289 80.343361 
L 773.857425 88.584718 
L 785.206836 94.783807 
L 788.989972 91.589492 
L 792.773109 91.356603 
L 796.556246 91.394015 
L 800.339382 88.397428 
L 811.688793 95.725897 
L 815.471929 104.231609 
L 819.255066 105.934817 
L 823.038203 99.590811 
L 826.821339 100.935123 
L 838.170749 97.444233 
L 841.953886 89.485835 
L 845.737023 83.315997 
L 849.52016 81.624217 
L 853.303296 77.308105 
L 864.652706 76.00347 
L 868.435843 75.987908 
L 872.21898 68.71194 
L 876.002117 68.07723 
L 879.785253 62.598436 
L 891.134663 72.323097 
L 894.9178 62.930151 
L 898.700937 65.02001 
L 902.484074 57.292752 
L 906.26721 55.26879 
L 917.61662 64.505897 
L 921.399757 59.43979 
L 925.182894 65.920718 
L 928.966031 69.731765 
L 932.749167 65.063066 
L 944.098577 68.989514 
L 947.881714 75.340186 
L 951.664851 89.415291 
L 955.447988 94.245532 
L 959.231124 94.856399 
L 970.580534 105.554519 
L 974.363671 108.079524 
L 978.146808 103.226776 
L 981.929944 101.037507 
L 985.713081 96.603014 
L 997.062491 94.193841 
L 1000.845628 96.905052 
L 1004.628765 97.25358 
L 1008.411901 104.909223 
L 1012.195038 117.514815 
L 1023.544448 128.628292 
L 1027.327585 129.153877 
L 1031.110722 126.195661 
L 1034.893858 128.387124 
L 1038.676995 132.832876 
L 1050.026405 127.900529 
L 1053.809542 127.659289 
L 1057.592679 127.579765 
L 1061.375815 124.373155 
L 1065.158952 126.347082 
L 1076.508362 138.381568 
L 1080.291499 134.681393 
L 1084.074636 133.458708 
L 1087.857772 142.098709 
L 1091.640909 142.098709 
L 1091.640909 142.098709 
" style="fill:none;stroke:#bcbd22;stroke-linecap:square;stroke-width:1.5;"/>
   </g>
   <g id="patch_3">
    <path d="M 50.9 345.7 
L 50.9 25.92 
" style="fill:none;stroke:#000000;stroke-linecap:square;stroke-linejoin:miter;stroke-width:0.8;"/>
   </g>
   <g id="patch_4">
    <path d="M 1141.2 345.7 
L 1141.2 25.92 
" style="fill:none;stroke:#000000;stroke-linecap:square;stroke-linejoin:miter;stroke-width:0.8;"/>
   </g>
   <g id="patch_5">
    <path d="M 50.9 345.7 
L 1141.2 345.7 
" style="fill:none;stroke:#000000;stroke-linecap:square;stroke-linejoin:miter;stroke-width:0.8;"/>
   </g>
   <g id="patch_6">
    <path d="M 50.9 25.92 
L 1141.2 25.92 
" style="fill:none;stroke:#000000;stroke-linecap:square;stroke-linejoin:miter;stroke-width:0.8;"/>
   </g>
   <g id="text_9">
    <!-- Cumulative Log Return: (2010-01-19 ~ 2010-10-08) -->
    <g transform="translate(440.172812 19.92)scale(0.12 -0.12)">
     <defs>
      <path d="M 64.40625 67.28125 
L 64.40625 56.890625 
Q 59.421875 61.53125 53.78125 63.8125 
Q 48.140625 66.109375 41.796875 66.109375 
Q 29.296875 66.109375 22.65625 58.46875 
Q 16.015625 50.828125 16.015625 36.375 
Q 16.015625 21.96875 22.65625 14.328125 
Q 29.296875 6.6875 41.796875 6.6875 
Q 48.140625 6.6875 53.78125 8.984375 
Q 59.421875 11.28125 64.40625 15.921875 
L 64.40625 5.609375 
Q 59.234375 2.09375 53.4375 0.328125 
Q 47.65625 -1.421875 41.21875 -1.421875 
Q 24.65625 -1.421875 15.125 8.703125 
Q 5.609375 18.84375 5.609375 36.375 
Q 5.609375 53.953125 15.125 64.078125 
Q 24.65625 74.21875 41.21875 74.21875 
Q 47.75 74.21875 53.53125 72.484375 
Q 59.328125 70.75 64.40625 67.28125 
z
" id="DejaVuSans-67"/>
      <path d="M 34.28125 27.484375 
Q 23.390625 27.484375 19.1875 25 
Q 14.984375 22.515625 14.984375 16.5 
Q 14.984375 11.71875 18.140625 8.90625 
Q 21.296875 6.109375 26.703125 6.109375 
Q 34.1875 6.109375 38.703125 11.40625 
Q 43.21875 16.703125 43.21875 25.484375 
L 43.21875 27.484375 
z
M 52.203125 31.203125 
L 52.203125 0 
L 43.21875 0 
L 43.21875 8.296875 
Q 40.140625 3.328125 35.546875 0.953125 
Q 30.953125 -1.421875 24.3125 -1.421875 
Q 15.921875 -1.421875 10.953125 3.296875 
Q 6 8.015625 6 15.921875 
Q 6 25.140625 12.171875 29.828125 
Q 18.359375 34.515625 30.609375 34.515625 
L 43.21875 34.515625 
L 43.21875 35.40625 
Q 43.21875 41.609375 39.140625 45 
Q 35.0625 48.390625 27.6875 48.390625 
Q 23 48.390625 18.546875 47.265625 
Q 14.109375 46.140625 10.015625 43.890625 
L 10.015625 52.203125 
Q 14.9375 54.109375 19.578125 55.046875 
Q 24.21875 56 28.609375 56 
Q 40.484375 56 46.34375 49.84375 
Q 52.203125 43.703125 52.203125 31.203125 
z
" id="DejaVuSans-97"/>
      <path d="M 9.421875 54.6875 
L 18.40625 54.6875 
L 18.40625 0 
L 9.421875 0 
z
M 9.421875 75.984375 
L 18.40625 75.984375 
L 18.40625 64.59375 
L 9.421875 64.59375 
z
" id="DejaVuSans-105"/>
      <path d="M 2.984375 54.6875 
L 12.5 54.6875 
L 29.59375 8.796875 
L 46.6875 54.6875 
L 56.203125 54.6875 
L 35.6875 0 
L 23.484375 0 
z
" id="DejaVuSans-118"/>
      <path d="M 9.8125 72.90625 
L 19.671875 72.90625 
L 19.671875 8.296875 
L 55.171875 8.296875 
L 55.171875 0 
L 9.8125 0 
z
" id="DejaVuSans-76"/>
      <path d="M 44.390625 34.1875 
Q 47.5625 33.109375 50.5625 29.59375 
Q 53.5625 26.078125 56.59375 19.921875 
L 66.609375 0 
L 56 0 
L 46.6875 18.703125 
Q 43.0625 26.03125 39.671875 28.421875 
Q 36.28125 30.8125 30.421875 30.8125 
L 19.671875 30.8125 
L 19.671875 0 
L 9.8125 0 
L 9.8125 72.90625 
L 32.078125 72.90625 
Q 44.578125 72.90625 50.734375 67.671875 
Q 56.890625 62.453125 56.890625 51.90625 
Q 56.890625 45.015625 53.6875 40.46875 
Q 50.484375 35.9375 44.390625 34.1875 
z
M 19.671875 64.796875 
L 19.671875 38.921875 
L 32.078125 38.921875 
Q 39.203125 38.921875 42.84375 42.21875 
Q 46.484375 45.515625 46.484375 51.90625 
Q 46.484375 58.296875 42.84375 61.546875 
Q 39.203125 64.796875 32.078125 64.796875 
z
" id="DejaVuSans-82"/>
      <path d="M 11.71875 12.40625 
L 22.015625 12.40625 
L 22.015625 0 
L 11.71875 0 
z
M 11.71875 51.703125 
L 22.015625 51.703125 
L 22.015625 39.3125 
L 11.71875 39.3125 
z
" id="DejaVuSans-58"/>
      <path d="M 31 75.875 
Q 24.46875 64.65625 21.28125 53.65625 
Q 18.109375 42.671875 18.109375 31.390625 
Q 18.109375 20.125 21.3125 9.0625 
Q 24.515625 -2 31 -13.1875 
L 23.1875 -13.1875 
Q 15.875 -1.703125 12.234375 9.375 
Q 8.59375 20.453125 8.59375 31.390625 
Q 8.59375 42.28125 12.203125 53.3125 
Q 15.828125 64.359375 23.1875 75.875 
z
" id="DejaVuSans-40"/>
      <path d="M 19.1875 8.296875 
L 53.609375 8.296875 
L 53.609375 0 
L 7.328125 0 
L 7.328125 8.296875 
Q 12.9375 14.109375 22.625 23.890625 
Q 32.328125 33.6875 34.8125 36.53125 
Q 39.546875 41.84375 41.421875 45.53125 
Q 43.3125 49.21875 43.3125 52.78125 
Q 43.3125 58.59375 39.234375 62.25 
Q 35.15625 65.921875 28.609375 65.921875 
Q 23.96875 65.921875 18.8125 64.3125 
Q 13.671875 62.703125 7.8125 59.421875 
L 7.8125 69.390625 
Q 13.765625 71.78125 18.9375 73 
Q 24.125 74.21875 28.421875 74.21875 
Q 39.75 74.21875 46.484375 68.546875 
Q 53.21875 62.890625 53.21875 53.421875 
Q 53.21875 48.921875 51.53125 44.890625 
Q 49.859375 40.875 45.40625 35.40625 
Q 44.1875 33.984375 37.640625 27.21875 
Q 31.109375 20.453125 19.1875 8.296875 
z
" id="DejaVuSans-50"/>
      <path d="M 10.984375 1.515625 
L 10.984375 10.5 
Q 14.703125 8.734375 18.5 7.8125 
Q 22.3125 6.890625 25.984375 6.890625 
Q 35.75 6.890625 40.890625 13.453125 
Q 46.046875 20.015625 46.78125 33.40625 
Q 43.953125 29.203125 39.59375 26.953125 
Q 35.25 24.703125 29.984375 24.703125 
Q 19.046875 24.703125 12.671875 31.3125 
Q 6.296875 37.9375 6.296875 49.421875 
Q 6.296875 60.640625 12.9375 67.421875 
Q 19.578125 74.21875 30.609375 74.21875 
Q 43.265625 74.21875 49.921875 64.515625 
Q 56.59375 54.828125 56.59375 36.375 
Q 56.59375 19.140625 48.40625 8.859375 
Q 40.234375 -1.421875 26.421875 -1.421875 
Q 22.703125 -1.421875 18.890625 -0.6875 
Q 15.09375 0.046875 10.984375 1.515625 
z
M 30.609375 32.421875 
Q 37.25 32.421875 41.125 36.953125 
Q 45.015625 41.5 45.015625 49.421875 
Q 45.015625 57.28125 41.125 61.84375 
Q 37.25 66.40625 30.609375 66.40625 
Q 23.96875 66.40625 20.09375 61.84375 
Q 16.21875 57.28125 16.21875 49.421875 
Q 16.21875 41.5 20.09375 36.953125 
Q 23.96875 32.421875 30.609375 32.421875 
z
" id="DejaVuSans-57"/>
      <path d="M 73.1875 39.890625 
L 73.1875 31.203125 
Q 68.0625 27.34375 63.6875 25.6875 
Q 59.328125 24.03125 54.59375 24.03125 
Q 49.21875 24.03125 42.09375 26.90625 
Q 41.546875 27.09375 41.3125 27.203125 
Q 40.96875 27.34375 40.234375 27.59375 
Q 32.671875 30.609375 28.078125 30.609375 
Q 23.78125 30.609375 19.578125 28.734375 
Q 15.375 26.859375 10.59375 22.796875 
L 10.59375 31.5 
Q 15.71875 35.359375 20.09375 37.03125 
Q 24.46875 38.71875 29.203125 38.71875 
Q 34.578125 38.71875 41.75 35.796875 
Q 42.234375 35.59375 42.484375 35.5 
Q 42.875 35.359375 43.5625 35.109375 
Q 51.125 32.078125 55.71875 32.078125 
Q 59.90625 32.078125 64.03125 33.9375 
Q 68.171875 35.796875 73.1875 39.890625 
z
" id="DejaVuSans-126"/>
      <path d="M 31.78125 34.625 
Q 24.75 34.625 20.71875 30.859375 
Q 16.703125 27.09375 16.703125 20.515625 
Q 16.703125 13.921875 20.71875 10.15625 
Q 24.75 6.390625 31.78125 6.390625 
Q 38.8125 6.390625 42.859375 10.171875 
Q 46.921875 13.96875 46.921875 20.515625 
Q 46.921875 27.09375 42.890625 30.859375 
Q 38.875 34.625 31.78125 34.625 
z
M 21.921875 38.8125 
Q 15.578125 40.375 12.03125 44.71875 
Q 8.5 49.078125 8.5 55.328125 
Q 8.5 64.0625 14.71875 69.140625 
Q 20.953125 74.21875 31.78125 74.21875 
Q 42.671875 74.21875 48.875 69.140625 
Q 55.078125 64.0625 55.078125 55.328125 
Q 55.078125 49.078125 51.53125 44.71875 
Q 48 40.375 41.703125 38.8125 
Q 48.828125 37.15625 52.796875 32.3125 
Q 56.78125 27.484375 56.78125 20.515625 
Q 56.78125 9.90625 50.3125 4.234375 
Q 43.84375 -1.421875 31.78125 -1.421875 
Q 19.734375 -1.421875 13.25 4.234375 
Q 6.78125 9.90625 6.78125 20.515625 
Q 6.78125 27.484375 10.78125 32.3125 
Q 14.796875 37.15625 21.921875 38.8125 
z
M 18.3125 54.390625 
Q 18.3125 48.734375 21.84375 45.5625 
Q 25.390625 42.390625 31.78125 42.390625 
Q 38.140625 42.390625 41.71875 45.5625 
Q 45.3125 48.734375 45.3125 54.390625 
Q 45.3125 60.0625 41.71875 63.234375 
Q 38.140625 66.40625 31.78125 66.40625 
Q 25.390625 66.40625 21.84375 63.234375 
Q 18.3125 60.0625 18.3125 54.390625 
z
" id="DejaVuSans-56"/>
      <path d="M 8.015625 75.875 
L 15.828125 75.875 
Q 23.140625 64.359375 26.78125 53.3125 
Q 30.421875 42.28125 30.421875 31.390625 
Q 30.421875 20.453125 26.78125 9.375 
Q 23.140625 -1.703125 15.828125 -13.1875 
L 8.015625 -13.1875 
Q 14.5 -2 17.703125 9.0625 
Q 20.90625 20.125 20.90625 31.390625 
Q 20.90625 42.671875 17.703125 53.65625 
Q 14.5 64.65625 8.015625 75.875 
z
" id="DejaVuSans-41"/>
     </defs>
     <use xlink:href="#DejaVuSans-67"/>
     <use x="69.824219" xlink:href="#DejaVuSans-117"/>
     <use x="133.203125" xlink:href="#DejaVuSans-109"/>
     <use x="230.615234" xlink:href="#DejaVuSans-117"/>
     <use x="293.994141" xlink:href="#DejaVuSans-108"/>
     <use x="321.777344" xlink:href="#DejaVuSans-97"/>
     <use x="383.056641" xlink:href="#DejaVuSans-116"/>
     <use x="422.265625" xlink:href="#DejaVuSans-105"/>
     <use x="450.048828" xlink:href="#DejaVuSans-118"/>
     <use x="509.228516" xlink:href="#DejaVuSans-101"/>
     <use x="570.751953" xlink:href="#DejaVuSans-32"/>
     <use x="602.539062" xlink:href="#DejaVuSans-76"/>
     <use x="656.501953" xlink:href="#DejaVuSans-111"/>
     <use x="717.683594" xlink:href="#DejaVuSans-103"/>
     <use x="781.160156" xlink:href="#DejaVuSans-32"/>
     <use x="812.947266" xlink:href="#DejaVuSans-82"/>
     <use x="877.929688" xlink:href="#DejaVuSans-101"/>
     <use x="939.453125" xlink:href="#DejaVuSans-116"/>
     <use x="978.662109" xlink:href="#DejaVuSans-117"/>
     <use x="1042.041016" xlink:href="#DejaVuSans-114"/>
     <use x="1081.404297" xlink:href="#DejaVuSans-110"/>
     <use x="1144.783203" xlink:href="#DejaVuSans-58"/>
     <use x="1178.474609" xlink:href="#DejaVuSans-32"/>
     <use x="1210.261719" xlink:href="#DejaVuSans-40"/>
     <use x="1249.275391" xlink:href="#DejaVuSans-50"/>
     <use x="1312.898438" xlink:href="#DejaVuSans-48"/>
     <use x="1376.521484" xlink:href="#DejaVuSans-49"/>
     <use x="1440.144531" xlink:href="#DejaVuSans-48"/>
     <use x="1503.767578" xlink:href="#DejaVuSans-45"/>
     <use x="1539.851562" xlink:href="#DejaVuSans-48"/>
     <use x="1603.474609" xlink:href="#DejaVuSans-49"/>
     <use x="1667.097656" xlink:href="#DejaVuSans-45"/>
     <use x="1703.181641" xlink:href="#DejaVuSans-49"/>
     <use x="1766.804688" xlink:href="#DejaVuSans-57"/>
     <use x="1830.427734" xlink:href="#DejaVuSans-32"/>
     <use x="1862.214844" xlink:href="#DejaVuSans-126"/>
     <use x="1946.003906" xlink:href="#DejaVuSans-32"/>
     <use x="1977.791016" xlink:href="#DejaVuSans-50"/>
     <use x="2041.414062" xlink:href="#DejaVuSans-48"/>
     <use x="2105.037109" xlink:href="#DejaVuSans-49"/>
     <use x="2168.660156" xlink:href="#DejaVuSans-48"/>
     <use x="2232.283203" xlink:href="#DejaVuSans-45"/>
     <use x="2268.367188" xlink:href="#DejaVuSans-49"/>
     <use x="2331.990234" xlink:href="#DejaVuSans-48"/>
     <use x="2395.613281" xlink:href="#DejaVuSans-45"/>
     <use x="2431.697266" xlink:href="#DejaVuSans-48"/>
     <use x="2495.320312" xlink:href="#DejaVuSans-56"/>
     <use x="2558.943359" xlink:href="#DejaVuSans-41"/>
    </g>
   </g>
   <g id="legend_1">
    <g id="patch_7">
     <path d="M 57.9 123.379375 
L 154.389062 123.379375 
Q 156.389062 123.379375 156.389062 121.379375 
L 156.389062 32.92 
Q 156.389062 30.92 154.389062 30.92 
L 57.9 30.92 
Q 55.9 30.92 55.9 32.92 
L 55.9 121.379375 
Q 55.9 123.379375 57.9 123.379375 
z
" style="fill:#ffffff;opacity:0.8;stroke:#cccccc;stroke-linejoin:miter;"/>
    </g>
    <g id="line2d_21">
     <path d="M 59.9 39.018438 
L 79.9 39.018438 
" style="fill:none;stroke:#9467bd;stroke-linecap:square;stroke-width:1.5;"/>
    </g>
    <g id="line2d_22"/>
    <g id="text_10">
     <!-- group_5 -->
     <g transform="translate(87.9 42.518438)scale(0.1 -0.1)">
      <defs>
       <path d="M 18.109375 8.203125 
L 18.109375 -20.796875 
L 9.078125 -20.796875 
L 9.078125 54.6875 
L 18.109375 54.6875 
L 18.109375 46.390625 
Q 20.953125 51.265625 25.265625 53.625 
Q 29.59375 56 35.59375 56 
Q 45.5625 56 51.78125 48.09375 
Q 58.015625 40.1875 58.015625 27.296875 
Q 58.015625 14.40625 51.78125 6.484375 
Q 45.5625 -1.421875 35.59375 -1.421875 
Q 29.59375 -1.421875 25.265625 0.953125 
Q 20.953125 3.328125 18.109375 8.203125 
z
M 48.6875 27.296875 
Q 48.6875 37.203125 44.609375 42.84375 
Q 40.53125 48.484375 33.40625 48.484375 
Q 26.265625 48.484375 22.1875 42.84375 
Q 18.109375 37.203125 18.109375 27.296875 
Q 18.109375 17.390625 22.1875 11.75 
Q 26.265625 6.109375 33.40625 6.109375 
Q 40.53125 6.109375 44.609375 11.75 
Q 48.6875 17.390625 48.6875 27.296875 
z
" id="DejaVuSans-112"/>
       <path d="M 50.984375 -16.609375 
L 50.984375 -23.578125 
L -0.984375 -23.578125 
L -0.984375 -16.609375 
z
" id="DejaVuSans-95"/>
      </defs>
      <use xlink:href="#DejaVuSans-103"/>
      <use x="63.476562" xlink:href="#DejaVuSans-114"/>
      <use x="102.339844" xlink:href="#DejaVuSans-111"/>
      <use x="163.521484" xlink:href="#DejaVuSans-117"/>
      <use x="226.900391" xlink:href="#DejaVuSans-112"/>
      <use x="290.376953" xlink:href="#DejaVuSans-95"/>
      <use x="340.376953" xlink:href="#DejaVuSans-53"/>
     </g>
    </g>
    <g id="line2d_23">
     <path d="M 59.9 53.974688 
L 79.9 53.974688 
" style="fill:none;stroke:#1f77b4;stroke-linecap:square;stroke-width:1.5;"/>
    </g>
    <g id="line2d_24"/>
    <g id="text_11">
     <!-- group_1 -->
     <g transform="translate(87.9 57.474688)scale(0.1 -0.1)">
      <use xlink:href="#DejaVuSans-103"/>
      <use x="63.476562" xlink:href="#DejaVuSans-114"/>
      <use x="102.339844" xlink:href="#DejaVuSans-111"/>
      <use x="163.521484" xlink:href="#DejaVuSans-117"/>
      <use x="226.900391" xlink:href="#DejaVuSans-112"/>
      <use x="290.376953" xlink:href="#DejaVuSans-95"/>
      <use x="340.376953" xlink:href="#DejaVuSans-49"/>
     </g>
    </g>
    <g id="line2d_25">
     <path d="M 59.9 68.930938 
L 79.9 68.930938 
" style="fill:none;stroke:#8c564b;stroke-linecap:square;stroke-width:1.5;"/>
    </g>
    <g id="line2d_26"/>
    <g id="text_12">
     <!-- benchmark -->
     <g transform="translate(87.9 72.430938)scale(0.1 -0.1)">
      <defs>
       <path d="M 48.6875 27.296875 
Q 48.6875 37.203125 44.609375 42.84375 
Q 40.53125 48.484375 33.40625 48.484375 
Q 26.265625 48.484375 22.1875 42.84375 
Q 18.109375 37.203125 18.109375 27.296875 
Q 18.109375 17.390625 22.1875 11.75 
Q 26.265625 6.109375 33.40625 6.109375 
Q 40.53125 6.109375 44.609375 11.75 
Q 48.6875 17.390625 48.6875 27.296875 
z
M 18.109375 46.390625 
Q 20.953125 51.265625 25.265625 53.625 
Q 29.59375 56 35.59375 56 
Q 45.5625 56 51.78125 48.09375 
Q 58.015625 40.1875 58.015625 27.296875 
Q 58.015625 14.40625 51.78125 6.484375 
Q 45.5625 -1.421875 35.59375 -1.421875 
Q 29.59375 -1.421875 25.265625 0.953125 
Q 20.953125 3.328125 18.109375 8.203125 
L 18.109375 0 
L 9.078125 0 
L 9.078125 75.984375 
L 18.109375 75.984375 
z
" id="DejaVuSans-98"/>
       <path d="M 54.890625 33.015625 
L 54.890625 0 
L 45.90625 0 
L 45.90625 32.71875 
Q 45.90625 40.484375 42.875 44.328125 
Q 39.84375 48.1875 33.796875 48.1875 
Q 26.515625 48.1875 22.3125 43.546875 
Q 18.109375 38.921875 18.109375 30.90625 
L 18.109375 0 
L 9.078125 0 
L 9.078125 75.984375 
L 18.109375 75.984375 
L 18.109375 46.1875 
Q 21.34375 51.125 25.703125 53.5625 
Q 30.078125 56 35.796875 56 
Q 45.21875 56 50.046875 50.171875 
Q 54.890625 44.34375 54.890625 33.015625 
z
" id="DejaVuSans-104"/>
       <path d="M 9.078125 75.984375 
L 18.109375 75.984375 
L 18.109375 31.109375 
L 44.921875 54.6875 
L 56.390625 54.6875 
L 27.390625 29.109375 
L 57.625 0 
L 45.90625 0 
L 18.109375 26.703125 
L 18.109375 0 
L 9.078125 0 
z
" id="DejaVuSans-107"/>
      </defs>
      <use xlink:href="#DejaVuSans-98"/>
      <use x="63.476562" xlink:href="#DejaVuSans-101"/>
      <use x="125" xlink:href="#DejaVuSans-110"/>
      <use x="188.378906" xlink:href="#DejaVuSans-99"/>
      <use x="243.359375" xlink:href="#DejaVuSans-104"/>
      <use x="306.738281" xlink:href="#DejaVuSans-109"/>
      <use x="404.150391" xlink:href="#DejaVuSans-97"/>
      <use x="465.429688" xlink:href="#DejaVuSans-114"/>
      <use x="506.542969" xlink:href="#DejaVuSans-107"/>
     </g>
    </g>
    <g id="line2d_27">
     <path d="M 59.9 83.609062 
L 79.9 83.609062 
" style="fill:none;stroke:#e377c2;stroke-linecap:square;stroke-width:1.5;"/>
    </g>
    <g id="line2d_28"/>
    <g id="text_13">
     <!-- long_excess -->
     <g transform="translate(87.9 87.109062)scale(0.1 -0.1)">
      <defs>
       <path d="M 54.890625 54.6875 
L 35.109375 28.078125 
L 55.90625 0 
L 45.3125 0 
L 29.390625 21.484375 
L 13.484375 0 
L 2.875 0 
L 24.125 28.609375 
L 4.6875 54.6875 
L 15.28125 54.6875 
L 29.78125 35.203125 
L 44.28125 54.6875 
z
" id="DejaVuSans-120"/>
      </defs>
      <use xlink:href="#DejaVuSans-108"/>
      <use x="27.783203" xlink:href="#DejaVuSans-111"/>
      <use x="88.964844" xlink:href="#DejaVuSans-110"/>
      <use x="152.34375" xlink:href="#DejaVuSans-103"/>
      <use x="215.820312" xlink:href="#DejaVuSans-95"/>
      <use x="265.820312" xlink:href="#DejaVuSans-101"/>
      <use x="325.59375" xlink:href="#DejaVuSans-120"/>
      <use x="383.023438" xlink:href="#DejaVuSans-99"/>
      <use x="438.003906" xlink:href="#DejaVuSans-101"/>
      <use x="499.527344" xlink:href="#DejaVuSans-115"/>
      <use x="551.626953" xlink:href="#DejaVuSans-115"/>
     </g>
    </g>
    <g id="line2d_29">
     <path d="M 59.9 98.565313 
L 79.9 98.565313 
" style="fill:none;stroke:#7f7f7f;stroke-linecap:square;stroke-width:1.5;"/>
    </g>
    <g id="line2d_30"/>
    <g id="text_14">
     <!-- short_excess -->
     <g transform="translate(87.9 102.065313)scale(0.1 -0.1)">
      <use xlink:href="#DejaVuSans-115"/>
      <use x="52.099609" xlink:href="#DejaVuSans-104"/>
      <use x="115.478516" xlink:href="#DejaVuSans-111"/>
      <use x="176.660156" xlink:href="#DejaVuSans-114"/>
      <use x="217.773438" xlink:href="#DejaVuSans-116"/>
      <use x="256.982422" xlink:href="#DejaVuSans-95"/>
      <use x="306.982422" xlink:href="#DejaVuSans-101"/>
      <use x="366.755859" xlink:href="#DejaVuSans-120"/>
      <use x="424.185547" xlink:href="#DejaVuSans-99"/>
      <use x="479.166016" xlink:href="#DejaVuSans-101"/>
      <use x="540.689453" xlink:href="#DejaVuSans-115"/>
      <use x="592.789062" xlink:href="#DejaVuSans-115"/>
     </g>
    </g>
    <g id="line2d_31">
     <path d="M 59.9 113.521563 
L 79.9 113.521563 
" style="fill:none;stroke:#bcbd22;stroke-linecap:square;stroke-width:1.5;"/>
    </g>
    <g id="line2d_32"/>
    <g id="text_15">
     <!-- long_short -->
     <g transform="translate(87.9 117.021563)scale(0.1 -0.1)">
      <use xlink:href="#DejaVuSans-108"/>
      <use x="27.783203" xlink:href="#DejaVuSans-111"/>
      <use x="88.964844" xlink:href="#DejaVuSans-110"/>
      <use x="152.34375" xlink:href="#DejaVuSans-103"/>
      <use x="215.820312" xlink:href="#DejaVuSans-95"/>
      <use x="265.820312" xlink:href="#DejaVuSans-115"/>
      <use x="317.919922" xlink:href="#DejaVuSans-104"/>
      <use x="381.298828" xlink:href="#DejaVuSans-111"/>
      <use x="442.480469" xlink:href="#DejaVuSans-114"/>
      <use x="483.59375" xlink:href="#DejaVuSans-116"/>
     </g>
    </g>
   </g>
  </g>
 </g>
 <defs>
  <clipPath id="p33ea4eb508">
   <rect height="319.78" width="1090.3" x="50.9" y="25.92"/>
  </clipPath>
 </defs>
</svg>
