<?xml version="1.0" encoding="utf-8" standalone="no"?>
<!DOCTYPE svg PUBLIC "-//W3C//DTD SVG 1.1//EN"
  "http://www.w3.org/Graphics/SVG/1.1/DTD/svg11.dtd">
<!-- Created with matplotlib (https://matplotlib.org/) -->
<svg height="374.4pt" version="1.1" viewBox="0 0 1152 374.4" width="1152pt" xmlns="http://www.w3.org/2000/svg" xmlns:xlink="http://www.w3.org/1999/xlink">
 <metadata>
  <rdf:RDF xmlns:cc="http://creativecommons.org/ns#" xmlns:dc="http://purl.org/dc/elements/1.1/" xmlns:rdf="http://www.w3.org/1999/02/22-rdf-syntax-ns#">
   <cc:Work>
    <dc:type rdf:resource="http://purl.org/dc/dcmitype/StillImage"/>
    <dc:date>2023-10-11T16:37:17.248871</dc:date>
    <dc:format>image/svg+xml</dc:format>
    <dc:creator>
     <cc:Agent>
      <dc:title>Matplotlib v3.3.4, https://matplotlib.org/</dc:title>
     </cc:Agent>
    </dc:creator>
   </cc:Work>
  </rdf:RDF>
 </metadata>
 <defs>
  <style type="text/css">*{stroke-linecap:butt;stroke-linejoin:round;}</style>
 </defs>
 <g id="figure_1">
  <g id="patch_1">
   <path d="M 0 374.4 
L 1152 374.4 
L 1152 0 
L 0 0 
z
" style="fill:#ffffff;"/>
  </g>
  <g id="axes_1">
   <g id="patch_2">
    <path d="M 47.3 360.1 
L 1141.2 360.1 
L 1141.2 25.92 
L 47.3 25.92 
z
" style="fill:#ffffff;"/>
   </g>
   <g id="matplotlib.axis_1"/>
   <g id="matplotlib.axis_2">
    <g id="ytick_1">
     <g id="line2d_1">
      <path clip-path="url(#p935e36ce3f)" d="M 47.3 325.922745 
L 1141.2 325.922745 
" style="fill:none;stroke:#b0b0b0;stroke-linecap:square;stroke-width:0.8;"/>
     </g>
     <g id="line2d_2">
      <defs>
       <path d="M 0 0 
L -3.5 0 
" id="m30e037be87" style="stroke:#000000;stroke-width:0.8;"/>
      </defs>
      <g>
       <use style="stroke:#000000;stroke-width:0.8;" x="47.3" xlink:href="#m30e037be87" y="325.922745"/>
      </g>
     </g>
     <g id="text_1">
      <!-- 0.5 -->
      <g transform="translate(24.396875 329.721964)scale(0.1 -0.1)">
       <defs>
        <path d="M 31.78125 66.40625 
Q 24.171875 66.40625 20.328125 58.90625 
Q 16.5 51.421875 16.5 36.375 
Q 16.5 21.390625 20.328125 13.890625 
Q 24.171875 6.390625 31.78125 6.390625 
Q 39.453125 6.390625 43.28125 13.890625 
Q 47.125 21.390625 47.125 36.375 
Q 47.125 51.421875 43.28125 58.90625 
Q 39.453125 66.40625 31.78125 66.40625 
z
M 31.78125 74.21875 
Q 44.046875 74.21875 50.515625 64.515625 
Q 56.984375 54.828125 56.984375 36.375 
Q 56.984375 17.96875 50.515625 8.265625 
Q 44.046875 -1.421875 31.78125 -1.421875 
Q 19.53125 -1.421875 13.0625 8.265625 
Q 6.59375 17.96875 6.59375 36.375 
Q 6.59375 54.828125 13.0625 64.515625 
Q 19.53125 74.21875 31.78125 74.21875 
z
" id="DejaVuSans-48"/>
        <path d="M 10.6875 12.40625 
L 21 12.40625 
L 21 0 
L 10.6875 0 
z
" id="DejaVuSans-46"/>
        <path d="M 10.796875 72.90625 
L 49.515625 72.90625 
L 49.515625 64.59375 
L 19.828125 64.59375 
L 19.828125 46.734375 
Q 21.96875 47.46875 24.109375 47.828125 
Q 26.265625 48.1875 28.421875 48.1875 
Q 40.625 48.1875 47.75 41.5 
Q 54.890625 34.8125 54.890625 23.390625 
Q 54.890625 11.625 47.5625 5.09375 
Q 40.234375 -1.421875 26.90625 -1.421875 
Q 22.3125 -1.421875 17.546875 -0.640625 
Q 12.796875 0.140625 7.71875 1.703125 
L 7.71875 11.625 
Q 12.109375 9.234375 16.796875 8.0625 
Q 21.484375 6.890625 26.703125 6.890625 
Q 35.15625 6.890625 40.078125 11.328125 
Q 45.015625 15.765625 45.015625 23.390625 
Q 45.015625 31 40.078125 35.4375 
Q 35.15625 39.890625 26.703125 39.890625 
Q 22.75 39.890625 18.8125 39.015625 
Q 14.890625 38.140625 10.796875 36.28125 
z
" id="DejaVuSans-53"/>
       </defs>
       <use xlink:href="#DejaVuSans-48"/>
       <use x="63.623047" xlink:href="#DejaVuSans-46"/>
       <use x="95.410156" xlink:href="#DejaVuSans-53"/>
      </g>
     </g>
    </g>
    <g id="ytick_2">
     <g id="line2d_3">
      <path clip-path="url(#p935e36ce3f)" d="M 47.3 288.572008 
L 1141.2 288.572008 
" style="fill:none;stroke:#b0b0b0;stroke-linecap:square;stroke-width:0.8;"/>
     </g>
     <g id="line2d_4">
      <g>
       <use style="stroke:#000000;stroke-width:0.8;" x="47.3" xlink:href="#m30e037be87" y="288.572008"/>
      </g>
     </g>
     <g id="text_2">
      <!-- 1.0 -->
      <g transform="translate(24.396875 292.371227)scale(0.1 -0.1)">
       <defs>
        <path d="M 12.40625 8.296875 
L 28.515625 8.296875 
L 28.515625 63.921875 
L 10.984375 60.40625 
L 10.984375 69.390625 
L 28.421875 72.90625 
L 38.28125 72.90625 
L 38.28125 8.296875 
L 54.390625 8.296875 
L 54.390625 0 
L 12.40625 0 
z
" id="DejaVuSans-49"/>
       </defs>
       <use xlink:href="#DejaVuSans-49"/>
       <use x="63.623047" xlink:href="#DejaVuSans-46"/>
       <use x="95.410156" xlink:href="#DejaVuSans-48"/>
      </g>
     </g>
    </g>
    <g id="ytick_3">
     <g id="line2d_5">
      <path clip-path="url(#p935e36ce3f)" d="M 47.3 251.22127 
L 1141.2 251.22127 
" style="fill:none;stroke:#b0b0b0;stroke-linecap:square;stroke-width:0.8;"/>
     </g>
     <g id="line2d_6">
      <g>
       <use style="stroke:#000000;stroke-width:0.8;" x="47.3" xlink:href="#m30e037be87" y="251.22127"/>
      </g>
     </g>
     <g id="text_3">
      <!-- 1.5 -->
      <g transform="translate(24.396875 255.020489)scale(0.1 -0.1)">
       <use xlink:href="#DejaVuSans-49"/>
       <use x="63.623047" xlink:href="#DejaVuSans-46"/>
       <use x="95.410156" xlink:href="#DejaVuSans-53"/>
      </g>
     </g>
    </g>
    <g id="ytick_4">
     <g id="line2d_7">
      <path clip-path="url(#p935e36ce3f)" d="M 47.3 213.870533 
L 1141.2 213.870533 
" style="fill:none;stroke:#b0b0b0;stroke-linecap:square;stroke-width:0.8;"/>
     </g>
     <g id="line2d_8">
      <g>
       <use style="stroke:#000000;stroke-width:0.8;" x="47.3" xlink:href="#m30e037be87" y="213.870533"/>
      </g>
     </g>
     <g id="text_4">
      <!-- 2.0 -->
      <g transform="translate(24.396875 217.669752)scale(0.1 -0.1)">
       <defs>
        <path d="M 19.1875 8.296875 
L 53.609375 8.296875 
L 53.609375 0 
L 7.328125 0 
L 7.328125 8.296875 
Q 12.9375 14.109375 22.625 23.890625 
Q 32.328125 33.6875 34.8125 36.53125 
Q 39.546875 41.84375 41.421875 45.53125 
Q 43.3125 49.21875 43.3125 52.78125 
Q 43.3125 58.59375 39.234375 62.25 
Q 35.15625 65.921875 28.609375 65.921875 
Q 23.96875 65.921875 18.8125 64.3125 
Q 13.671875 62.703125 7.8125 59.421875 
L 7.8125 69.390625 
Q 13.765625 71.78125 18.9375 73 
Q 24.125 74.21875 28.421875 74.21875 
Q 39.75 74.21875 46.484375 68.546875 
Q 53.21875 62.890625 53.21875 53.421875 
Q 53.21875 48.921875 51.53125 44.890625 
Q 49.859375 40.875 45.40625 35.40625 
Q 44.1875 33.984375 37.640625 27.21875 
Q 31.109375 20.453125 19.1875 8.296875 
z
" id="DejaVuSans-50"/>
       </defs>
       <use xlink:href="#DejaVuSans-50"/>
       <use x="63.623047" xlink:href="#DejaVuSans-46"/>
       <use x="95.410156" xlink:href="#DejaVuSans-48"/>
      </g>
     </g>
    </g>
    <g id="ytick_5">
     <g id="line2d_9">
      <path clip-path="url(#p935e36ce3f)" d="M 47.3 176.519795 
L 1141.2 176.519795 
" style="fill:none;stroke:#b0b0b0;stroke-linecap:square;stroke-width:0.8;"/>
     </g>
     <g id="line2d_10">
      <g>
       <use style="stroke:#000000;stroke-width:0.8;" x="47.3" xlink:href="#m30e037be87" y="176.519795"/>
      </g>
     </g>
     <g id="text_5">
      <!-- 2.5 -->
      <g transform="translate(24.396875 180.319014)scale(0.1 -0.1)">
       <use xlink:href="#DejaVuSans-50"/>
       <use x="63.623047" xlink:href="#DejaVuSans-46"/>
       <use x="95.410156" xlink:href="#DejaVuSans-53"/>
      </g>
     </g>
    </g>
    <g id="ytick_6">
     <g id="line2d_11">
      <path clip-path="url(#p935e36ce3f)" d="M 47.3 139.169058 
L 1141.2 139.169058 
" style="fill:none;stroke:#b0b0b0;stroke-linecap:square;stroke-width:0.8;"/>
     </g>
     <g id="line2d_12">
      <g>
       <use style="stroke:#000000;stroke-width:0.8;" x="47.3" xlink:href="#m30e037be87" y="139.169058"/>
      </g>
     </g>
     <g id="text_6">
      <!-- 3.0 -->
      <g transform="translate(24.396875 142.968276)scale(0.1 -0.1)">
       <defs>
        <path d="M 40.578125 39.3125 
Q 47.65625 37.796875 51.625 33 
Q 55.609375 28.21875 55.609375 21.1875 
Q 55.609375 10.40625 48.1875 4.484375 
Q 40.765625 -1.421875 27.09375 -1.421875 
Q 22.515625 -1.421875 17.65625 -0.515625 
Q 12.796875 0.390625 7.625 2.203125 
L 7.625 11.71875 
Q 11.71875 9.328125 16.59375 8.109375 
Q 21.484375 6.890625 26.8125 6.890625 
Q 36.078125 6.890625 40.9375 10.546875 
Q 45.796875 14.203125 45.796875 21.1875 
Q 45.796875 27.640625 41.28125 31.265625 
Q 36.765625 34.90625 28.71875 34.90625 
L 20.21875 34.90625 
L 20.21875 43.015625 
L 29.109375 43.015625 
Q 36.375 43.015625 40.234375 45.921875 
Q 44.09375 48.828125 44.09375 54.296875 
Q 44.09375 59.90625 40.109375 62.90625 
Q 36.140625 65.921875 28.71875 65.921875 
Q 24.65625 65.921875 20.015625 65.03125 
Q 15.375 64.15625 9.8125 62.3125 
L 9.8125 71.09375 
Q 15.4375 72.65625 20.34375 73.4375 
Q 25.25 74.21875 29.59375 74.21875 
Q 40.828125 74.21875 47.359375 69.109375 
Q 53.90625 64.015625 53.90625 55.328125 
Q 53.90625 49.265625 50.4375 45.09375 
Q 46.96875 40.921875 40.578125 39.3125 
z
" id="DejaVuSans-51"/>
       </defs>
       <use xlink:href="#DejaVuSans-51"/>
       <use x="63.623047" xlink:href="#DejaVuSans-46"/>
       <use x="95.410156" xlink:href="#DejaVuSans-48"/>
      </g>
     </g>
    </g>
    <g id="ytick_7">
     <g id="line2d_13">
      <path clip-path="url(#p935e36ce3f)" d="M 47.3 101.81832 
L 1141.2 101.81832 
" style="fill:none;stroke:#b0b0b0;stroke-linecap:square;stroke-width:0.8;"/>
     </g>
     <g id="line2d_14">
      <g>
       <use style="stroke:#000000;stroke-width:0.8;" x="47.3" xlink:href="#m30e037be87" y="101.81832"/>
      </g>
     </g>
     <g id="text_7">
      <!-- 3.5 -->
      <g transform="translate(24.396875 105.617539)scale(0.1 -0.1)">
       <use xlink:href="#DejaVuSans-51"/>
       <use x="63.623047" xlink:href="#DejaVuSans-46"/>
       <use x="95.410156" xlink:href="#DejaVuSans-53"/>
      </g>
     </g>
    </g>
    <g id="ytick_8">
     <g id="line2d_15">
      <path clip-path="url(#p935e36ce3f)" d="M 47.3 64.467583 
L 1141.2 64.467583 
" style="fill:none;stroke:#b0b0b0;stroke-linecap:square;stroke-width:0.8;"/>
     </g>
     <g id="line2d_16">
      <g>
       <use style="stroke:#000000;stroke-width:0.8;" x="47.3" xlink:href="#m30e037be87" y="64.467583"/>
      </g>
     </g>
     <g id="text_8">
      <!-- 4.0 -->
      <g transform="translate(24.396875 68.266801)scale(0.1 -0.1)">
       <defs>
        <path d="M 37.796875 64.3125 
L 12.890625 25.390625 
L 37.796875 25.390625 
z
M 35.203125 72.90625 
L 47.609375 72.90625 
L 47.609375 25.390625 
L 58.015625 25.390625 
L 58.015625 17.1875 
L 47.609375 17.1875 
L 47.609375 0 
L 37.796875 0 
L 37.796875 17.1875 
L 4.890625 17.1875 
L 4.890625 26.703125 
z
" id="DejaVuSans-52"/>
       </defs>
       <use xlink:href="#DejaVuSans-52"/>
       <use x="63.623047" xlink:href="#DejaVuSans-46"/>
       <use x="95.410156" xlink:href="#DejaVuSans-48"/>
      </g>
     </g>
    </g>
    <g id="ytick_9">
     <g id="line2d_17">
      <path clip-path="url(#p935e36ce3f)" d="M 47.3 27.116845 
L 1141.2 27.116845 
" style="fill:none;stroke:#b0b0b0;stroke-linecap:square;stroke-width:0.8;"/>
     </g>
     <g id="line2d_18">
      <g>
       <use style="stroke:#000000;stroke-width:0.8;" x="47.3" xlink:href="#m30e037be87" y="27.116845"/>
      </g>
     </g>
     <g id="text_9">
      <!-- 4.5 -->
      <g transform="translate(24.396875 30.916064)scale(0.1 -0.1)">
       <use xlink:href="#DejaVuSans-52"/>
       <use x="63.623047" xlink:href="#DejaVuSans-46"/>
       <use x="95.410156" xlink:href="#DejaVuSans-53"/>
      </g>
     </g>
    </g>
    <g id="text_10">
     <!-- net value -->
     <g transform="translate(18.317187 216.462344)rotate(-90)scale(0.1 -0.1)">
      <defs>
       <path d="M 54.890625 33.015625 
L 54.890625 0 
L 45.90625 0 
L 45.90625 32.71875 
Q 45.90625 40.484375 42.875 44.328125 
Q 39.84375 48.1875 33.796875 48.1875 
Q 26.515625 48.1875 22.3125 43.546875 
Q 18.109375 38.921875 18.109375 30.90625 
L 18.109375 0 
L 9.078125 0 
L 9.078125 54.6875 
L 18.109375 54.6875 
L 18.109375 46.1875 
Q 21.34375 51.125 25.703125 53.5625 
Q 30.078125 56 35.796875 56 
Q 45.21875 56 50.046875 50.171875 
Q 54.890625 44.34375 54.890625 33.015625 
z
" id="DejaVuSans-110"/>
       <path d="M 56.203125 29.59375 
L 56.203125 25.203125 
L 14.890625 25.203125 
Q 15.484375 15.921875 20.484375 11.0625 
Q 25.484375 6.203125 34.421875 6.203125 
Q 39.59375 6.203125 44.453125 7.46875 
Q 49.3125 8.734375 54.109375 11.28125 
L 54.109375 2.78125 
Q 49.265625 0.734375 44.1875 -0.34375 
Q 39.109375 -1.421875 33.890625 -1.421875 
Q 20.796875 -1.421875 13.15625 6.1875 
Q 5.515625 13.8125 5.515625 26.8125 
Q 5.515625 40.234375 12.765625 48.109375 
Q 20.015625 56 32.328125 56 
Q 43.359375 56 49.78125 48.890625 
Q 56.203125 41.796875 56.203125 29.59375 
z
M 47.21875 32.234375 
Q 47.125 39.59375 43.09375 43.984375 
Q 39.0625 48.390625 32.421875 48.390625 
Q 24.90625 48.390625 20.390625 44.140625 
Q 15.875 39.890625 15.1875 32.171875 
z
" id="DejaVuSans-101"/>
       <path d="M 18.3125 70.21875 
L 18.3125 54.6875 
L 36.8125 54.6875 
L 36.8125 47.703125 
L 18.3125 47.703125 
L 18.3125 18.015625 
Q 18.3125 11.328125 20.140625 9.421875 
Q 21.96875 7.515625 27.59375 7.515625 
L 36.8125 7.515625 
L 36.8125 0 
L 27.59375 0 
Q 17.1875 0 13.234375 3.875 
Q 9.28125 7.765625 9.28125 18.015625 
L 9.28125 47.703125 
L 2.6875 47.703125 
L 2.6875 54.6875 
L 9.28125 54.6875 
L 9.28125 70.21875 
z
" id="DejaVuSans-116"/>
       <path id="DejaVuSans-32"/>
       <path d="M 2.984375 54.6875 
L 12.5 54.6875 
L 29.59375 8.796875 
L 46.6875 54.6875 
L 56.203125 54.6875 
L 35.6875 0 
L 23.484375 0 
z
" id="DejaVuSans-118"/>
       <path d="M 34.28125 27.484375 
Q 23.390625 27.484375 19.1875 25 
Q 14.984375 22.515625 14.984375 16.5 
Q 14.984375 11.71875 18.140625 8.90625 
Q 21.296875 6.109375 26.703125 6.109375 
Q 34.1875 6.109375 38.703125 11.40625 
Q 43.21875 16.703125 43.21875 25.484375 
L 43.21875 27.484375 
z
M 52.203125 31.203125 
L 52.203125 0 
L 43.21875 0 
L 43.21875 8.296875 
Q 40.140625 3.328125 35.546875 0.953125 
Q 30.953125 -1.421875 24.3125 -1.421875 
Q 15.921875 -1.421875 10.953125 3.296875 
Q 6 8.015625 6 15.921875 
Q 6 25.140625 12.171875 29.828125 
Q 18.359375 34.515625 30.609375 34.515625 
L 43.21875 34.515625 
L 43.21875 35.40625 
Q 43.21875 41.609375 39.140625 45 
Q 35.0625 48.390625 27.6875 48.390625 
Q 23 48.390625 18.546875 47.265625 
Q 14.109375 46.140625 10.015625 43.890625 
L 10.015625 52.203125 
Q 14.9375 54.109375 19.578125 55.046875 
Q 24.21875 56 28.609375 56 
Q 40.484375 56 46.34375 49.84375 
Q 52.203125 43.703125 52.203125 31.203125 
z
" id="DejaVuSans-97"/>
       <path d="M 9.421875 75.984375 
L 18.40625 75.984375 
L 18.40625 0 
L 9.421875 0 
z
" id="DejaVuSans-108"/>
       <path d="M 8.5 21.578125 
L 8.5 54.6875 
L 17.484375 54.6875 
L 17.484375 21.921875 
Q 17.484375 14.15625 20.5 10.265625 
Q 23.53125 6.390625 29.59375 6.390625 
Q 36.859375 6.390625 41.078125 11.03125 
Q 45.3125 15.671875 45.3125 23.6875 
L 45.3125 54.6875 
L 54.296875 54.6875 
L 54.296875 0 
L 45.3125 0 
L 45.3125 8.40625 
Q 42.046875 3.421875 37.71875 1 
Q 33.40625 -1.421875 27.6875 -1.421875 
Q 18.265625 -1.421875 13.375 4.4375 
Q 8.5 10.296875 8.5 21.578125 
z
M 31.109375 56 
z
" id="DejaVuSans-117"/>
      </defs>
      <use xlink:href="#DejaVuSans-110"/>
      <use x="63.378906" xlink:href="#DejaVuSans-101"/>
      <use x="124.902344" xlink:href="#DejaVuSans-116"/>
      <use x="164.111328" xlink:href="#DejaVuSans-32"/>
      <use x="195.898438" xlink:href="#DejaVuSans-118"/>
      <use x="255.078125" xlink:href="#DejaVuSans-97"/>
      <use x="316.357422" xlink:href="#DejaVuSans-108"/>
      <use x="344.140625" xlink:href="#DejaVuSans-117"/>
      <use x="407.519531" xlink:href="#DejaVuSans-101"/>
     </g>
    </g>
   </g>
   <g id="line2d_19">
    <path clip-path="url(#p935e36ce3f)" d="M 97.022727 288.718918 
L 101.032625 289.859183 
L 105.042522 291.96524 
L 109.052419 293.774186 
L 121.082111 293.023687 
L 125.092009 293.777214 
L 129.101906 296.580813 
L 133.111804 292.398352 
L 137.121701 296.177599 
L 149.151393 297.076418 
L 153.16129 298.659089 
L 157.171188 298.38743 
L 161.181085 301.127233 
L 165.190982 300.272469 
L 177.220674 301.791654 
L 181.230572 305.850086 
L 189.250367 307.690036 
L 193.260264 307.226174 
L 205.289956 307.454705 
L 209.299853 303.973085 
L 213.309751 304.472002 
L 217.319648 309.466498 
L 221.329545 308.726019 
L 233.359238 309.39105 
L 237.369135 308.774255 
L 241.379032 310.218001 
L 245.38893 311.511883 
L 249.398827 311.613762 
L 261.428519 312.055246 
L 265.438416 314.14755 
L 269.448314 315.829849 
L 273.458211 315.513658 
L 277.468109 317.172624 
L 289.497801 318.563694 
L 293.507698 318.858906 
L 297.517595 317.226764 
L 301.527493 318.378905 
L 305.53739 322.447751 
L 317.567082 322.307487 
L 321.576979 325.056942 
L 325.586877 327.443308 
L 329.596774 330.175212 
L 333.606672 329.209729 
L 345.636364 328.553449 
L 349.646261 330.785254 
L 353.656158 328.583093 
L 357.666056 329.743987 
L 361.675953 330.681161 
L 373.705645 329.434739 
L 377.715543 330.140344 
L 381.72544 330.604096 
L 385.735337 330.478463 
L 389.745235 332.148983 
L 405.784824 332.754774 
L 409.794721 334.214512 
L 413.804619 333.141995 
L 417.814516 330.592193 
L 429.844208 332.05344 
L 433.854106 334.171318 
L 437.864003 334.893035 
L 441.8739 332.991614 
L 445.883798 334.762293 
L 457.91349 332.637734 
L 461.923387 333.845495 
L 465.933284 332.89675 
L 469.943182 333.570313 
L 473.953079 331.837956 
L 485.982771 332.309105 
L 494.002566 331.472909 
L 498.012463 331.336324 
L 502.022361 331.513816 
L 514.052053 329.422191 
L 518.06195 331.607622 
L 522.071848 332.373034 
L 526.081745 330.477478 
L 530.091642 329.76712 
L 542.121334 329.21444 
L 546.131232 331.86602 
L 550.141129 333.214518 
L 554.151026 333.516743 
L 558.160924 334.125579 
L 570.190616 332.76459 
L 574.200513 333.10929 
L 578.210411 334.723632 
L 582.220308 334.170873 
L 586.230205 333.190327 
L 598.259897 334.464665 
L 602.269795 334.371378 
L 606.279692 334.60992 
L 610.289589 336.711784 
L 614.299487 336.101093 
L 626.329179 336.360587 
L 630.339076 336.104191 
L 634.348974 336.815768 
L 638.358871 338.248927 
L 642.368768 339.017549 
L 658.408358 339.459763 
L 662.418255 340.993362 
L 666.428152 341.213359 
L 670.43805 341.009298 
L 682.467742 341.571587 
L 686.477639 340.641373 
L 690.487537 340.98742 
L 694.497434 340.915321 
L 698.507331 341.109729 
L 710.537023 341.088987 
L 714.546921 341.607203 
L 718.556818 340.333755 
L 722.566716 340.603381 
L 726.576613 341.140064 
L 738.606305 340.988399 
L 746.6261 342.62694 
L 750.635997 342.30396 
L 754.645894 341.284529 
L 766.675587 341.778486 
L 770.685484 341.618572 
L 774.695381 341.772723 
L 778.705279 340.909914 
L 782.715176 341.120056 
L 794.744868 342.025688 
L 798.754765 342.168688 
L 802.764663 342.609837 
L 806.77456 341.833343 
L 810.784457 340.350559 
L 822.81415 340.190213 
L 826.824047 340.532443 
L 830.833944 339.47257 
L 834.843842 340.057317 
L 838.853739 341.07909 
L 850.883431 339.829126 
L 854.893328 339.917137 
L 858.903226 340.338351 
L 862.913123 339.984778 
L 866.923021 339.091184 
L 878.952713 340.604201 
L 882.96261 340.66351 
L 886.972507 342.126631 
L 890.982405 340.971765 
L 894.992302 341.634238 
L 907.021994 342.897846 
L 911.031891 342.343753 
L 915.041789 343.37878 
L 919.051686 342.797063 
L 923.061584 343.877326 
L 935.091276 343.112993 
L 939.101173 344.30116 
L 943.11107 344.882477 
L 947.120968 344.91 
L 951.130865 344.643885 
L 963.160557 343.3225 
L 967.170455 343.515211 
L 975.190249 343.201956 
L 979.200147 342.612103 
L 991.229839 341.699915 
L 995.239736 340.642555 
L 999.249633 339.713277 
L 1007.269428 338.575999 
L 1023.309018 337.791312 
L 1027.318915 339.287505 
L 1031.328812 339.028577 
L 1035.33871 339.616103 
L 1047.368402 340.227422 
L 1051.378299 339.158901 
L 1055.388196 340.386715 
L 1059.398094 338.953773 
L 1063.407991 336.74718 
L 1075.437683 334.771107 
L 1079.447581 334.348218 
L 1083.457478 334.929539 
L 1087.467375 335.910407 
L 1091.477273 334.282161 
L 1091.477273 334.282161 
" style="fill:none;stroke:#1f77b4;stroke-linecap:square;stroke-width:1.5;"/>
   </g>
   <g id="line2d_20">
    <path clip-path="url(#p935e36ce3f)" d="M 97.022727 289.206708 
L 101.032625 285.166032 
L 105.042522 287.912548 
L 109.052419 286.963113 
L 121.082111 285.472735 
L 125.092009 279.953318 
L 129.101906 286.255534 
L 133.111804 280.417963 
L 137.121701 273.698171 
L 149.151393 275.983055 
L 153.16129 273.280773 
L 157.171188 275.082711 
L 161.181085 278.50208 
L 165.190982 270.793246 
L 177.220674 265.643258 
L 181.230572 266.509095 
L 185.240469 263.481531 
L 189.250367 261.985067 
L 193.260264 260.874035 
L 205.289956 252.754634 
L 209.299853 254.011522 
L 217.319648 251.862323 
L 221.329545 257.6121 
L 233.359238 258.296269 
L 237.369135 255.815263 
L 241.379032 261.716839 
L 245.38893 261.178732 
L 249.398827 253.33284 
L 261.428519 251.515384 
L 265.438416 248.907794 
L 269.448314 242.700067 
L 273.458211 244.032315 
L 277.468109 233.063144 
L 289.497801 237.012143 
L 293.507698 243.77316 
L 297.517595 235.115091 
L 301.527493 237.55352 
L 305.53739 234.043509 
L 317.567082 231.661588 
L 321.576979 226.610962 
L 325.586877 229.321473 
L 329.596774 227.968374 
L 333.606672 218.417558 
L 345.636364 209.480228 
L 349.646261 203.173866 
L 353.656158 205.701353 
L 357.666056 203.675969 
L 361.675953 210.521083 
L 373.705645 213.111201 
L 377.715543 207.567758 
L 381.72544 208.135373 
L 385.735337 197.923027 
L 389.745235 197.110806 
L 401.774927 199.774209 
L 405.784824 189.098064 
L 409.794721 189.002449 
L 413.804619 178.196542 
L 417.814516 176.065173 
L 429.844208 173.293005 
L 433.854106 186.745022 
L 437.864003 189.686992 
L 441.8739 187.531611 
L 445.883798 175.604665 
L 457.91349 173.242222 
L 461.923387 176.910738 
L 465.933284 185.72761 
L 469.943182 188.541545 
L 473.953079 181.411899 
L 485.982771 182.885271 
L 489.992669 182.594622 
L 494.002566 187.823437 
L 498.012463 180.802126 
L 502.022361 187.834674 
L 514.052053 188.630288 
L 518.06195 189.768929 
L 522.071848 199.128136 
L 526.081745 205.020387 
L 530.091642 194.661171 
L 542.121334 203.81682 
L 546.131232 207.74106 
L 554.151026 198.949249 
L 558.160924 202.587133 
L 570.190616 205.072721 
L 574.200513 192.756749 
L 578.210411 195.162578 
L 582.220308 188.442874 
L 586.230205 189.297536 
L 598.259897 195.72633 
L 602.269795 195.958683 
L 606.279692 201.876786 
L 610.289589 203.895992 
L 614.299487 205.01843 
L 626.329179 208.536518 
L 630.339076 217.289483 
L 634.348974 218.935458 
L 638.358871 221.440749 
L 642.368768 213.376562 
L 654.39846 221.959491 
L 658.408358 219.159278 
L 662.418255 214.641259 
L 666.428152 220.823563 
L 670.43805 221.776992 
L 682.467742 227.835453 
L 686.477639 231.615176 
L 690.487537 231.138112 
L 694.497434 236.785468 
L 698.507331 225.079127 
L 710.537023 221.355233 
L 714.546921 221.386285 
L 718.556818 222.307983 
L 722.566716 213.002009 
L 726.576613 210.524881 
L 738.606305 205.668854 
L 742.616202 209.922859 
L 746.6261 214.74925 
L 750.635997 218.960711 
L 754.645894 210.162473 
L 766.675587 216.646954 
L 770.685484 217.951058 
L 774.695381 217.096474 
L 778.705279 210.990775 
L 782.715176 205.865642 
L 794.744868 209.337945 
L 798.754765 207.745998 
L 802.764663 197.041339 
L 806.77456 199.041823 
L 810.784457 196.810505 
L 822.81415 189.79868 
L 826.824047 180.036662 
L 830.833944 188.142172 
L 834.843842 187.386536 
L 838.853739 198.647123 
L 850.883431 205.33299 
L 854.893328 200.686752 
L 858.903226 202.384241 
L 862.913123 210.674736 
L 866.923021 204.553855 
L 878.952713 208.269774 
L 882.96261 220.631594 
L 886.972507 221.654004 
L 890.982405 228.270629 
L 894.992302 232.498446 
L 907.021994 226.980251 
L 911.031891 227.698742 
L 915.041789 232.809834 
L 919.051686 239.128204 
L 923.061584 246.709328 
L 935.091276 243.900969 
L 939.101173 250.754329 
L 943.11107 243.724618 
L 947.120968 249.24143 
L 951.130865 249.760802 
L 963.160557 243.833573 
L 967.170455 238.751333 
L 971.180352 246.773809 
L 975.190249 243.279256 
L 979.200147 234.969224 
L 991.229839 236.81193 
L 995.239736 233.683735 
L 999.249633 238.212945 
L 1003.259531 249.173288 
L 1007.269428 244.042074 
L 1019.29912 241.523178 
L 1031.328812 251.80582 
L 1035.33871 249.178191 
L 1051.378299 253.610382 
L 1055.388196 247.202243 
L 1059.398094 250.958977 
L 1063.407991 243.226735 
L 1075.437683 251.535865 
L 1079.447581 246.977839 
L 1083.457478 244.082319 
L 1091.477273 239.551462 
L 1091.477273 239.551462 
" style="fill:none;stroke:#ff7f0e;stroke-linecap:square;stroke-width:1.5;"/>
   </g>
   <g id="line2d_21">
    <path clip-path="url(#p935e36ce3f)" d="M 97.022727 289.791867 
L 101.032625 291.440953 
L 105.042522 295.459352 
L 109.052419 294.215014 
L 121.082111 293.247765 
L 125.092009 294.475892 
L 129.101906 289.855436 
L 133.111804 291.12283 
L 137.121701 284.470432 
L 149.151393 287.219237 
L 153.16129 285.759 
L 157.171188 283.312852 
L 161.181085 286.286272 
L 165.190982 285.485834 
L 177.220674 283.212041 
L 181.230572 286.666544 
L 185.240469 283.202589 
L 189.250367 286.913295 
L 193.260264 288.679585 
L 205.289956 290.057146 
L 209.299853 287.003164 
L 213.309751 285.089747 
L 217.319648 286.009599 
L 221.329545 286.690127 
L 233.359238 285.313763 
L 237.369135 287.411768 
L 241.379032 286.669668 
L 245.38893 283.905329 
L 249.398827 286.75111 
L 261.428519 288.777167 
L 265.438416 286.882228 
L 269.448314 283.703277 
L 273.458211 284.038276 
L 277.468109 286.12042 
L 289.497801 284.034853 
L 293.507698 285.280611 
L 297.517595 279.026448 
L 301.527493 282.012715 
L 305.53739 283.429843 
L 317.567082 285.398034 
L 321.576979 286.981091 
L 325.586877 286.476367 
L 329.596774 281.19126 
L 333.606672 275.318153 
L 345.636364 274.677015 
L 349.646261 271.48643 
L 353.656158 266.004213 
L 357.666056 258.649689 
L 361.675953 252.682363 
L 373.705645 255.933813 
L 377.715543 265.848725 
L 381.72544 261.179916 
L 385.735337 255.697262 
L 389.745235 261.642299 
L 401.774927 266.837363 
L 405.784824 260.936722 
L 409.794721 259.482492 
L 413.804619 261.505646 
L 417.814516 254.516439 
L 429.844208 256.666424 
L 433.854106 257.787333 
L 437.864003 258.197063 
L 441.8739 251.018868 
L 457.91349 239.997768 
L 461.923387 241.622363 
L 465.933284 241.492534 
L 469.943182 243.00187 
L 473.953079 240.83892 
L 485.982771 240.509324 
L 489.992669 239.286897 
L 494.002566 237.441974 
L 498.012463 237.312021 
L 502.022361 235.024803 
L 514.052053 228.988284 
L 518.06195 223.25046 
L 522.071848 227.33116 
L 526.081745 217.948193 
L 530.091642 225.342252 
L 542.121334 228.516951 
L 546.131232 236.90263 
L 550.141129 230.06416 
L 554.151026 228.155116 
L 558.160924 229.043831 
L 570.190616 224.628029 
L 574.200513 224.198436 
L 578.210411 229.761477 
L 582.220308 222.497563 
L 586.230205 221.60448 
L 598.259897 227.906821 
L 602.269795 232.083619 
L 606.279692 235.987882 
L 610.289589 228.640958 
L 614.299487 223.386962 
L 626.329179 228.352019 
L 630.339076 229.751227 
L 634.348974 228.894609 
L 638.358871 222.879381 
L 642.368768 217.550594 
L 654.39846 206.368245 
L 658.408358 193.045817 
L 662.418255 186.492256 
L 666.428152 200.52274 
L 670.43805 201.092568 
L 682.467742 199.614079 
L 686.477639 203.200799 
L 690.487537 214.262899 
L 694.497434 203.314677 
L 698.507331 209.192328 
L 710.537023 208.297086 
L 714.546921 206.639424 
L 718.556818 209.202392 
L 722.566716 207.473734 
L 726.576613 200.711954 
L 738.606305 188.908614 
L 742.616202 189.862406 
L 746.6261 196.000006 
L 750.635997 187.868172 
L 754.645894 186.382296 
L 766.675587 194.470543 
L 770.685484 192.983009 
L 774.695381 193.534463 
L 778.705279 197.153718 
L 782.715176 198.156996 
L 794.744868 193.00886 
L 798.754765 192.340849 
L 802.764663 197.903513 
L 806.77456 211.29209 
L 810.784457 220.665727 
L 822.81415 228.822714 
L 826.824047 221.72281 
L 830.833944 218.212454 
L 834.843842 213.896147 
L 838.853739 200.087776 
L 850.883431 196.332033 
L 854.893328 188.446839 
L 858.903226 183.432485 
L 862.913123 180.347036 
L 866.923021 175.065895 
L 878.952713 181.894965 
L 882.96261 193.146316 
L 886.972507 187.296758 
L 890.982405 186.94278 
L 894.992302 182.604709 
L 911.031891 196.862281 
L 915.041789 192.680025 
L 919.051686 199.060207 
L 923.061584 204.991825 
L 935.091276 195.413646 
L 939.101173 193.225508 
L 943.11107 191.547112 
L 947.120968 193.357351 
L 951.130865 192.295886 
L 963.160557 186.647672 
L 967.170455 175.437293 
L 971.180352 176.192039 
L 975.190249 182.147436 
L 979.200147 181.357512 
L 991.229839 180.551747 
L 995.239736 181.548779 
L 999.249633 180.548181 
L 1003.259531 178.429156 
L 1007.269428 182.196297 
L 1019.29912 172.260757 
L 1023.309018 165.389763 
L 1027.318915 168.819122 
L 1031.328812 163.778539 
L 1035.33871 163.839619 
L 1047.368402 150.072719 
L 1051.378299 138.18135 
L 1055.388196 145.183753 
L 1059.398094 154.948453 
L 1063.407991 149.627924 
L 1075.437683 155.464551 
L 1079.447581 154.417083 
L 1083.457478 140.940833 
L 1087.467375 150.732221 
L 1091.477273 140.598731 
L 1091.477273 140.598731 
" style="fill:none;stroke:#2ca02c;stroke-linecap:square;stroke-width:1.5;"/>
   </g>
   <g id="line2d_22">
    <path clip-path="url(#p935e36ce3f)" d="M 97.022727 288.281557 
L 101.032625 286.466976 
L 105.042522 291.008289 
L 109.052419 284.338185 
L 121.082111 286.190844 
L 125.092009 287.842653 
L 129.101906 285.850411 
L 133.111804 284.960197 
L 137.121701 281.278469 
L 149.151393 285.168679 
L 153.16129 287.577895 
L 157.171188 282.130154 
L 161.181085 281.057576 
L 165.190982 279.180455 
L 177.220674 282.488117 
L 181.230572 280.21747 
L 185.240469 278.597449 
L 189.250367 283.999963 
L 193.260264 280.812593 
L 205.289956 277.298374 
L 209.299853 274.77162 
L 213.309751 270.161453 
L 217.319648 276.289167 
L 221.329545 278.746534 
L 233.359238 284.887651 
L 237.369135 280.943924 
L 241.379032 284.727348 
L 245.38893 284.072246 
L 249.398827 277.9486 
L 261.428519 277.407722 
L 265.438416 274.610168 
L 269.448314 272.007644 
L 273.458211 267.487879 
L 277.468109 268.595474 
L 289.497801 261.927821 
L 293.507698 264.268321 
L 297.517595 260.81328 
L 301.527493 260.210692 
L 305.53739 265.423547 
L 317.567082 262.587828 
L 321.576979 260.538241 
L 325.586877 265.908669 
L 329.596774 271.611492 
L 333.606672 269.233092 
L 349.646261 274.265847 
L 353.656158 269.34741 
L 357.666056 275.101843 
L 361.675953 273.68177 
L 373.705645 273.844564 
L 377.715543 275.691466 
L 381.72544 277.220557 
L 385.735337 275.96361 
L 389.745235 272.979301 
L 401.774927 270.021667 
L 405.784824 268.705134 
L 409.794721 262.287086 
L 413.804619 263.783472 
L 417.814516 268.797894 
L 429.844208 271.37614 
L 433.854106 274.515826 
L 437.864003 269.316129 
L 441.8739 265.467454 
L 445.883798 268.600884 
L 457.91349 263.333599 
L 461.923387 261.340657 
L 465.933284 261.677232 
L 469.943182 259.515157 
L 473.953079 252.631125 
L 485.982771 250.818305 
L 489.992669 253.152931 
L 494.002566 253.366852 
L 498.012463 256.151519 
L 502.022361 257.715985 
L 514.052053 263.447446 
L 518.06195 257.445528 
L 522.071848 262.309812 
L 526.081745 268.732456 
L 530.091642 270.079254 
L 542.121334 265.286266 
L 546.131232 262.628117 
L 550.141129 267.741121 
L 554.151026 262.162406 
L 558.160924 270.191371 
L 570.190616 265.459558 
L 574.200513 263.724749 
L 578.210411 269.294499 
L 582.220308 263.270982 
L 586.230205 266.509051 
L 598.259897 268.178699 
L 602.269795 265.320143 
L 606.279692 269.092736 
L 610.289589 266.770272 
L 614.299487 267.8788 
L 626.329179 267.572278 
L 630.339076 262.947406 
L 634.348974 259.306557 
L 638.358871 259.175718 
L 642.368768 258.244657 
L 654.39846 258.594872 
L 658.408358 256.940818 
L 662.418255 258.160157 
L 666.428152 263.127173 
L 670.43805 264.962849 
L 682.467742 269.738042 
L 686.477639 270.399701 
L 690.487537 272.518968 
L 694.497434 276.009732 
L 698.507331 275.791605 
L 710.537023 274.395439 
L 714.546921 276.376411 
L 718.556818 272.163538 
L 722.566716 265.817398 
L 726.576613 263.148296 
L 738.606305 265.64033 
L 742.616202 264.270692 
L 746.6261 257.00367 
L 750.635997 257.140186 
L 754.645894 265.110594 
L 766.675587 260.706137 
L 770.685484 262.120399 
L 774.695381 257.32825 
L 778.705279 265.936861 
L 782.715176 264.773757 
L 794.744868 260.727238 
L 798.754765 258.396086 
L 802.764663 257.181943 
L 806.77456 254.262803 
L 810.784457 252.365167 
L 822.81415 243.575338 
L 826.824047 248.132139 
L 830.833944 242.681645 
L 834.843842 248.283341 
L 838.853739 247.483314 
L 850.883431 242.177953 
L 854.893328 246.176793 
L 858.903226 246.201479 
L 862.913123 239.206491 
L 866.923021 243.769713 
L 878.952713 245.450879 
L 882.96261 247.453787 
L 886.972507 247.284311 
L 890.982405 243.63919 
L 894.992302 246.407921 
L 907.021994 238.45712 
L 911.031891 239.745373 
L 915.041789 238.410442 
L 919.051686 232.658213 
L 923.061584 229.673639 
L 935.091276 229.732458 
L 939.101173 224.673829 
L 943.11107 218.22868 
L 947.120968 210.560961 
L 951.130865 213.168312 
L 963.160557 199.357802 
L 967.170455 195.667712 
L 971.180352 189.876613 
L 975.190249 191.311512 
L 979.200147 195.974534 
L 991.229839 192.21489 
L 995.239736 178.160178 
L 999.249633 180.567351 
L 1003.259531 186.334826 
L 1007.269428 191.369658 
L 1019.29912 190.046078 
L 1023.309018 190.343478 
L 1027.318915 196.981989 
L 1031.328812 204.02315 
L 1035.33871 205.442447 
L 1047.368402 198.793553 
L 1051.378299 186.387372 
L 1055.388196 199.212921 
L 1059.398094 202.32132 
L 1063.407991 199.930431 
L 1075.437683 205.390769 
L 1079.447581 210.091496 
L 1083.457478 210.18254 
L 1087.467375 204.458928 
L 1091.477273 205.361235 
L 1091.477273 205.361235 
" style="fill:none;stroke:#d62728;stroke-linecap:square;stroke-width:1.5;"/>
   </g>
   <g id="line2d_23">
    <path clip-path="url(#p935e36ce3f)" d="M 97.022727 292.239706 
L 101.032625 293.446828 
L 105.042522 295.804636 
L 109.052419 298.97547 
L 121.082111 293.188181 
L 125.092009 289.081357 
L 129.101906 286.846975 
L 133.111804 291.421503 
L 137.121701 290.591893 
L 149.151393 292.898922 
L 153.16129 298.257125 
L 157.171188 296.811695 
L 161.181085 301.441745 
L 165.190982 300.081579 
L 177.220674 301.68882 
L 181.230572 306.324393 
L 185.240469 302.062862 
L 189.250367 299.405984 
L 193.260264 298.815411 
L 205.289956 304.559171 
L 209.299853 304.470269 
L 213.309751 305.502 
L 217.319648 305.986304 
L 221.329545 305.455088 
L 233.359238 306.980593 
L 237.369135 311.66198 
L 241.379032 311.276594 
L 245.38893 310.738801 
L 249.398827 311.161697 
L 261.428519 311.713312 
L 265.438416 308.446783 
L 269.448314 309.40589 
L 273.458211 311.226285 
L 277.468109 309.306396 
L 289.497801 310.898042 
L 293.507698 307.662776 
L 297.517595 309.534281 
L 301.527493 311.861995 
L 305.53739 312.160415 
L 317.567082 312.636998 
L 321.576979 314.150263 
L 325.586877 313.345491 
L 333.606672 317.954161 
L 345.636364 317.694397 
L 353.656158 318.096534 
L 357.666056 317.283429 
L 361.675953 318.223982 
L 373.705645 317.349 
L 377.715543 318.061178 
L 381.72544 319.299026 
L 385.735337 321.4707 
L 389.745235 320.638453 
L 401.774927 322.204376 
L 405.784824 323.57253 
L 409.794721 319.99968 
L 413.804619 318.113413 
L 417.814516 318.072689 
L 429.844208 320.61422 
L 433.854106 321.069068 
L 437.864003 320.886252 
L 441.8739 319.50431 
L 445.883798 318.302146 
L 457.91349 315.768663 
L 461.923387 319.219613 
L 469.943182 321.288083 
L 473.953079 319.497186 
L 485.982771 318.8871 
L 489.992669 318.184278 
L 494.002566 317.617006 
L 498.012463 315.597118 
L 502.022361 312.189247 
L 514.052053 311.517799 
L 518.06195 309.112626 
L 522.071848 309.565215 
L 526.081745 305.223374 
L 530.091642 303.954699 
L 542.121334 302.474938 
L 546.131232 302.146144 
L 550.141129 303.462168 
L 554.151026 303.312084 
L 558.160924 301.365963 
L 570.190616 300.347669 
L 574.200513 304.075175 
L 578.210411 303.62319 
L 582.220308 303.714229 
L 586.230205 299.92418 
L 598.259897 298.968346 
L 602.269795 295.814312 
L 606.279692 301.808826 
L 610.289589 303.227704 
L 614.299487 298.781965 
L 626.329179 300.358835 
L 630.339076 299.820774 
L 634.348974 298.930576 
L 638.358871 298.562671 
L 642.368768 299.677826 
L 654.39846 295.058709 
L 658.408358 296.945683 
L 662.418255 294.759503 
L 666.428152 293.945119 
L 670.43805 292.27512 
L 682.467742 289.948978 
L 690.487537 297.639965 
L 694.497434 294.903897 
L 698.507331 295.827425 
L 710.537023 290.557446 
L 714.546921 289.464954 
L 718.556818 287.871541 
L 722.566716 289.459047 
L 726.576613 288.47061 
L 738.606305 289.515483 
L 742.616202 291.544835 
L 746.6261 292.639269 
L 750.635997 291.811096 
L 754.645894 293.986675 
L 766.675587 291.395384 
L 770.685484 290.074175 
L 774.695381 292.536974 
L 778.705279 287.397631 
L 782.715176 287.355853 
L 794.744868 290.303969 
L 798.754765 290.656685 
L 802.764663 293.096577 
L 806.77456 290.886629 
L 810.784457 291.526692 
L 822.81415 295.276426 
L 826.824047 294.110138 
L 830.833944 290.727792 
L 834.843842 292.536853 
L 838.853739 293.530144 
L 850.883431 294.461296 
L 854.893328 300.252131 
L 858.903226 302.437577 
L 862.913123 297.575174 
L 866.923021 295.918886 
L 878.952713 297.775772 
L 882.96261 292.603799 
L 886.972507 292.747007 
L 890.982405 287.709825 
L 894.992302 286.671272 
L 907.021994 290.153242 
L 911.031891 288.153602 
L 915.041789 286.284694 
L 919.051686 283.550523 
L 923.061584 283.333954 
L 935.091276 287.488706 
L 939.101173 284.605617 
L 943.11107 288.619524 
L 947.120968 282.824643 
L 951.130865 280.038202 
L 963.160557 281.376195 
L 967.170455 277.97499 
L 971.180352 282.389318 
L 975.190249 284.911071 
L 979.200147 278.918823 
L 991.229839 278.396118 
L 995.239736 279.385006 
L 999.249633 286.804706 
L 1003.259531 288.365848 
L 1007.269428 287.194441 
L 1019.29912 292.792291 
L 1023.309018 294.160651 
L 1027.318915 294.833375 
L 1031.328812 292.602036 
L 1035.33871 291.157932 
L 1047.368402 291.288901 
L 1051.378299 289.849092 
L 1055.388196 293.839298 
L 1059.398094 294.537425 
L 1063.407991 296.330036 
L 1075.437683 298.287166 
L 1083.457478 297.036484 
L 1087.467375 300.743732 
L 1091.477273 299.703122 
L 1091.477273 299.703122 
" style="fill:none;stroke:#9467bd;stroke-linecap:square;stroke-width:1.5;"/>
   </g>
   <g id="line2d_24">
    <path clip-path="url(#p935e36ce3f)" d="M 97.022727 289.698329 
L 101.032625 289.334911 
L 105.042522 292.570032 
L 109.052419 292.174321 
L 121.082111 290.575262 
L 125.092009 289.523492 
L 129.101906 289.450277 
L 133.111804 288.496117 
L 137.121701 285.665105 
L 149.151393 288.039487 
L 153.16129 289.143626 
L 157.171188 287.509321 
L 161.181085 290.161048 
L 165.190982 287.811693 
L 177.220674 288.044333 
L 181.230572 290.377619 
L 185.240469 288.188158 
L 189.250367 289.111863 
L 193.260264 288.712948 
L 205.289956 288.560026 
L 209.299853 286.62668 
L 213.309751 285.636826 
L 217.319648 288.18343 
L 221.329545 289.058788 
L 233.359238 290.768223 
L 237.369135 290.980702 
L 241.379032 292.343363 
L 245.38893 291.946595 
L 249.398827 290.510453 
L 261.428519 290.841345 
L 265.438416 289.360165 
L 269.448314 288.301084 
L 273.458211 288.392101 
L 277.468109 287.731985 
L 289.497801 287.22243 
L 293.507698 287.849847 
L 297.517595 284.847896 
L 305.53739 288.752141 
L 317.567082 288.500662 
L 321.576979 289.338371 
L 325.586877 291.06625 
L 329.596774 292.525612 
L 333.606672 290.522611 
L 345.636364 289.767518 
L 349.646261 289.903843 
L 353.656158 287.629171 
L 357.666056 287.551719 
L 361.675953 288.006001 
L 373.705645 287.863122 
L 377.715543 289.604148 
L 381.72544 289.727319 
L 385.735337 288.337122 
L 389.745235 289.006223 
L 401.774927 290.149822 
L 405.784824 288.573934 
L 409.794721 286.757142 
L 413.804619 285.112456 
L 417.814516 283.326755 
L 429.844208 285.456383 
L 433.854106 288.460534 
L 437.864003 288.274909 
L 441.8739 285.066044 
L 445.883798 284.647219 
L 457.91349 280.392829 
L 461.923387 282.483585 
L 465.933284 283.115377 
L 469.943182 283.624309 
L 473.953079 280.09221 
L 485.982771 279.927119 
L 489.992669 279.674604 
L 494.002566 279.768285 
L 498.012463 278.771688 
L 502.022361 278.386776 
L 514.052053 277.504109 
L 518.06195 276.662898 
L 522.071848 278.607271 
L 526.081745 276.715323 
L 530.091642 275.562038 
L 542.121334 275.289181 
L 546.131232 277.613105 
L 550.141129 278.190271 
L 554.151026 276.668128 
L 558.160924 278.273691 
L 570.190616 275.959277 
L 574.200513 275.409518 
L 578.210411 278.211872 
L 582.220308 275.194316 
L 586.230205 274.099263 
L 598.259897 276.345838 
L 602.269795 275.413513 
L 606.279692 278.815828 
L 610.289589 279.18994 
L 614.299487 277.289201 
L 626.329179 278.669352 
L 630.339076 278.676864 
L 634.348974 278.431534 
L 638.358871 278.962686 
L 642.368768 278.14077 
L 654.39846 276.849464 
L 658.408358 275.384604 
L 662.418255 274.969672 
L 666.428152 277.794721 
L 670.43805 277.649079 
L 682.467742 278.960212 
L 686.477639 279.807151 
L 690.487537 282.3163 
L 698.507331 281.104913 
L 710.537023 279.004873 
L 714.546921 279.212684 
L 718.556818 277.38188 
L 722.566716 275.316834 
L 726.576613 273.989792 
L 738.606305 272.638598 
L 742.616202 274.014806 
L 746.6261 274.879723 
L 750.635997 274.289478 
L 754.645894 273.982855 
L 766.675587 274.48773 
L 770.685484 274.492488 
L 774.695381 273.807092 
L 778.705279 272.821004 
L 782.715176 272.525755 
L 794.744868 273.198969 
L 798.754765 272.712516 
L 802.764663 272.816365 
L 806.77456 272.664058 
L 810.784457 272.378799 
L 822.81415 272.035066 
L 826.824047 270.732598 
L 830.833944 268.612048 
L 834.843842 269.728281 
L 838.853739 270.01116 
L 850.883431 268.33053 
L 854.893328 269.107933 
L 858.903226 269.548524 
L 862.913123 267.295137 
L 866.923021 265.402305 
L 878.952713 268.610531 
L 882.96261 270.159115 
L 886.972507 270.752779 
L 890.982405 268.700557 
L 894.992302 269.759977 
L 907.021994 270.807159 
L 911.031891 270.619575 
L 915.041789 271.48033 
L 919.051686 270.68587 
L 923.061584 273.233664 
L 935.091276 271.944316 
L 939.101173 272.456092 
L 943.11107 271.885416 
L 947.120968 270.452491 
L 951.130865 270.180907 
L 963.160557 265.756636 
L 967.170455 262.752579 
L 971.180352 264.359919 
L 975.190249 265.412783 
L 979.200147 262.430488 
L 991.229839 261.162168 
L 995.239736 258.131767 
L 1003.259531 262.086712 
L 1007.269428 261.446615 
L 1019.29912 260.59467 
L 1023.309018 260.724217 
L 1027.318915 263.72311 
L 1031.328812 264.01859 
L 1035.33871 263.547103 
L 1047.368402 262.457092 
L 1051.378299 258.786899 
L 1055.388196 261.87873 
L 1059.398094 262.760654 
L 1063.407991 259.340493 
L 1075.437683 260.956292 
L 1079.447581 259.948542 
L 1083.457478 258.335916 
L 1087.467375 260.075353 
L 1091.477273 257.593168 
L 1091.477273 257.593168 
" style="fill:none;stroke:#8c564b;stroke-linecap:square;stroke-width:1.5;"/>
   </g>
   <g id="line2d_25">
    <path clip-path="url(#p935e36ce3f)" d="M 97.022727 291.113385 
L 101.032625 292.696076 
L 105.042522 291.991179 
L 109.052419 295.740184 
L 121.082111 291.180556 
L 125.092009 287.999103 
L 129.101906 285.806856 
L 133.111804 291.444892 
L 137.121701 293.334926 
L 149.151393 293.415159 
L 153.16129 297.70881 
L 157.171188 297.696663 
L 161.181085 299.969889 
L 165.190982 300.611508 
L 177.220674 302.012091 
L 181.230572 304.723266 
L 185.240469 302.100504 
L 189.250367 298.692705 
L 193.260264 298.442917 
L 205.289956 304.352835 
L 209.299853 305.788299 
L 213.309751 307.539297 
L 217.319648 306.178353 
L 221.329545 304.983335 
L 233.359238 305.178652 
L 237.369135 309.839642 
L 241.379032 308.433463 
L 245.38893 308.173028 
L 249.398827 309.726005 
L 261.428519 310.049309 
L 265.438416 307.765752 
L 273.458211 311.283012 
L 277.468109 309.823537 
L 289.497801 311.760471 
L 293.507698 308.153498 
L 297.517595 312.20233 
L 301.527493 313.12448 
L 305.53739 312.153849 
L 317.567082 312.803001 
L 321.576979 313.745864 
L 325.586877 311.776997 
L 329.596774 313.171453 
L 333.606672 316.957324 
L 349.646261 317.271318 
L 353.656158 318.920427 
L 357.666056 318.167564 
L 361.675953 318.819427 
L 377.715543 317.697542 
L 381.72544 318.869144 
L 385.735337 321.901396 
L 389.745235 320.708315 
L 401.774927 321.616235 
L 405.784824 323.901738 
L 409.794721 321.316088 
L 413.804619 320.389058 
L 417.814516 321.330142 
L 429.844208 322.571224 
L 433.854106 321.433884 
L 437.864003 321.35646 
L 441.8739 321.783296 
L 445.883798 320.86592 
L 457.91349 320.7715 
L 461.923387 322.786863 
L 469.943182 324.125837 
L 473.953079 324.192015 
L 485.982771 323.724924 
L 494.002566 322.669704 
L 498.012463 321.35794 
L 502.022361 318.552777 
L 514.052053 318.429985 
L 518.06195 316.78585 
L 522.071848 316.130689 
L 526.081745 313.373061 
L 530.091642 312.947359 
L 542.121334 311.848485 
L 546.131232 310.212098 
L 554.151026 311.801002 
L 558.160924 309.176158 
L 570.190616 309.759318 
L 574.200513 313.266255 
L 578.210411 311.289502 
L 582.220308 313.212969 
L 586.230205 310.649754 
L 598.259897 308.529996 
L 602.269795 306.432082 
L 606.279692 309.281943 
L 610.289589 310.289149 
L 614.299487 307.563963 
L 626.329179 308.031901 
L 630.339076 307.554557 
L 638.358871 306.259594 
L 642.368768 307.797917 
L 654.39846 304.610045 
L 658.408358 307.227134 
L 662.418255 305.644434 
L 666.428152 303.115742 
L 670.43805 301.769146 
L 682.467742 298.812268 
L 686.477639 301.598779 
L 690.487537 303.107315 
L 694.497434 301.044899 
L 698.507331 302.35215 
L 714.546921 298.027451 
L 718.556818 298.039917 
L 722.566716 300.981714 
L 726.576613 301.0874 
L 738.606305 302.897144 
L 742.616202 303.641558 
L 746.6261 303.973586 
L 750.635997 303.674278 
L 754.645894 305.694066 
L 766.675587 303.215056 
L 770.685484 302.107888 
L 774.695381 304.638014 
L 778.705279 301.024143 
L 782.715176 301.193058 
L 798.754765 303.758679 
L 802.764663 305.690102 
L 806.77456 303.973693 
L 810.784457 304.684727 
L 822.81415 307.96834 
L 826.824047 307.809249 
L 830.833944 306.367789 
L 834.843842 307.115815 
L 838.853739 307.734566 
L 850.883431 309.47691 
L 854.893328 313.563626 
L 858.903226 315.05487 
L 862.913123 312.360223 
L 866.923021 312.080756 
L 878.952713 311.813977 
L 882.96261 306.908696 
L 886.972507 306.663555 
L 890.982405 303.876006 
L 894.992302 302.394262 
L 907.021994 304.479803 
L 911.031891 302.991229 
L 915.041789 300.931444 
L 919.051686 299.257 
L 923.061584 297.321514 
L 935.091276 301.693698 
L 939.101173 299.005939 
L 943.11107 302.688935 
L 947.120968 298.936106 
L 951.130865 296.895949 
L 963.160557 301.117582 
L 967.170455 300.450984 
L 971.180352 302.697606 
L 975.190249 303.941414 
L 979.200147 301.212525 
L 991.229839 301.608514 
L 995.239736 304.157018 
L 999.249633 308.277353 
L 1003.259531 308.342696 
L 1007.269428 307.831174 
L 1019.29912 312.37445 
L 1023.309018 313.298413 
L 1027.318915 312.323413 
L 1031.328812 310.511071 
L 1035.33871 309.683556 
L 1047.368402 310.366619 
L 1051.378299 311.234456 
L 1055.388196 312.522615 
L 1059.398094 312.591464 
L 1063.407991 315.637794 
L 1075.437683 316.289881 
L 1079.447581 316.298249 
L 1083.457478 316.585967 
L 1087.467375 318.425152 
L 1091.477273 318.757514 
L 1091.477273 318.757514 
" style="fill:none;stroke:#e377c2;stroke-linecap:square;stroke-width:1.5;"/>
   </g>
   <g id="line2d_26">
    <path clip-path="url(#p935e36ce3f)" d="M 97.022727 289.551419 
L 101.032625 288.059743 
L 105.042522 289.19298 
L 109.052419 286.899096 
L 121.082111 286.006134 
L 125.092009 284.059461 
L 129.101906 280.785191 
L 133.111804 284.892079 
L 137.121701 277.745118 
L 149.151393 279.216067 
L 153.16129 278.440014 
L 157.171188 276.926399 
L 161.181085 276.302533 
L 165.190982 274.704062 
L 177.220674 272.841379 
L 181.230572 269.676746 
L 185.240469 265.280585 
L 189.250367 264.980113 
L 193.260264 265.271682 
L 205.289956 264.671085 
L 209.299853 268.269759 
L 213.309751 266.243531 
L 217.319648 261.184709 
L 221.329545 263.779726 
L 233.359238 264.858423 
L 237.369135 266.273394 
L 241.379032 265.532126 
L 245.38893 262.60173 
L 249.398827 260.376596 
L 261.428519 259.965163 
L 265.438416 253.632367 
L 269.448314 248.306734 
L 273.458211 249.212508 
L 277.468109 244.245029 
L 289.497801 239.850516 
L 293.507698 240.053803 
L 297.517595 239.677577 
L 301.527493 239.706955 
L 305.53739 231.616852 
L 317.567082 231.624894 
L 321.576979 224.264138 
L 325.586877 218.832616 
L 329.596774 210.738848 
L 333.606672 210.869781 
L 345.636364 212.2242 
L 349.646261 202.794884 
L 353.656158 208.697362 
L 357.666056 203.366291 
L 361.675953 199.856107 
L 373.705645 205.795432 
L 377.715543 206.147458 
L 381.72544 204.210928 
L 385.735337 201.81596 
L 389.745235 195.033242 
L 401.774927 195.160596 
L 405.784824 190.714907 
L 409.794721 178.264416 
L 413.804619 181.116093 
L 417.814516 192.369063 
L 429.844208 189.280142 
L 433.854106 184.193995 
L 437.864003 179.308596 
L 441.8739 183.762733 
L 445.883798 172.304827 
L 457.91349 176.20205 
L 461.923387 173.546162 
L 465.933284 181.146589 
L 469.943182 178.264516 
L 473.953079 180.850306 
L 485.982771 177.75413 
L 489.992669 179.763027 
L 494.002566 182.348286 
L 498.012463 180.966105 
L 502.022361 179.122504 
L 514.052053 189.335466 
L 518.06195 176.400115 
L 522.071848 176.078336 
L 526.081745 183.378573 
L 530.091642 184.878189 
L 542.121334 187.26582 
L 546.131232 178.212072 
L 550.141129 171.513266 
L 554.151026 166.154629 
L 558.160924 165.775844 
L 570.190616 169.619952 
L 574.200513 166.21268 
L 578.210411 161.951386 
L 582.220308 158.707335 
L 586.230205 163.056428 
L 598.259897 159.619223 
L 602.269795 158.094432 
L 606.279692 164.346405 
L 610.289589 150.640493 
L 614.299487 150.72258 
L 626.329179 152.104432 
L 630.339076 154.134964 
L 634.348974 148.051025 
L 638.358871 137.740274 
L 642.368768 128.614444 
L 654.39846 122.019647 
L 658.408358 116.63615 
L 662.418255 99.588352 
L 666.428152 105.420603 
L 670.43805 107.366463 
L 682.467742 104.822045 
L 686.477639 118.4963 
L 690.487537 122.112079 
L 694.497434 121.105661 
L 698.507331 117.183867 
L 710.537023 111.124689 
L 714.546921 105.856458 
L 718.556818 115.379879 
L 722.566716 106.50624 
L 726.576613 96.553668 
L 738.606305 94.344852 
L 742.616202 88.005782 
L 746.6261 80.715982 
L 750.635997 83.249357 
L 754.645894 95.897778 
L 766.675587 91.403311 
L 770.685484 93.440485 
L 774.695381 89.436538 
L 778.705279 97.407206 
L 782.715176 94.041135 
L 794.744868 85.032223 
L 798.754765 81.656966 
L 802.764663 76.093339 
L 806.77456 86.401402 
L 810.784457 104.678008 
L 822.81415 105.508965 
L 826.824047 98.007671 
L 830.833944 104.292199 
L 834.843842 100.983347 
L 838.853739 90.23279 
L 850.883431 100.689821 
L 854.893328 101.854138 
L 858.903226 98.362794 
L 862.913123 96.077589 
L 866.923021 101.060467 
L 878.952713 93.249917 
L 882.96261 96.960758 
L 886.972507 81.425228 
L 890.982405 90.565719 
L 894.992302 85.51984 
L 907.021994 72.41095 
L 911.031891 79.730575 
L 915.041789 68.342795 
L 919.051686 74.413898 
L 923.061584 67.123447 
L 935.091276 74.552855 
L 939.101173 59.154866 
L 943.11107 47.925582 
L 947.120968 42.509135 
L 951.130865 46.218975 
L 963.160557 53.639269 
L 967.170455 41.11 
L 971.180352 49.520434 
L 975.190249 54.642515 
L 979.200147 54.306931 
L 991.229839 64.061697 
L 995.239736 69.846774 
L 999.249633 87.396879 
L 1003.259531 99.892664 
L 1007.269428 103.925976 
L 1023.309018 110.257717 
L 1027.318915 102.800871 
L 1031.328812 106.385791 
L 1035.33871 98.940349 
L 1047.368402 89.220677 
L 1051.378299 91.950211 
L 1055.388196 86.164199 
L 1059.398094 105.924306 
L 1063.407991 120.517446 
L 1075.437683 142.375534 
L 1079.447581 143.477308 
L 1083.457478 135.629558 
L 1087.467375 131.525142 
L 1091.477273 139.741229 
L 1091.477273 139.741229 
" style="fill:none;stroke:#7f7f7f;stroke-linecap:square;stroke-width:1.5;"/>
   </g>
   <g id="line2d_27">
    <path clip-path="url(#p935e36ce3f)" d="M 97.022727 292.092797 
L 101.032625 292.213751 
L 105.042522 292.574686 
L 109.052419 294.103832 
L 121.082111 288.624998 
L 125.092009 283.450074 
L 129.101906 277.825886 
L 133.111804 288.299003 
L 137.121701 283.435505 
L 149.151393 284.900177 
L 153.16129 288.993603 
L 157.171188 287.654526 
L 161.181085 289.729509 
L 165.190982 289.123229 
L 177.220674 289.221153 
L 181.230572 289.906973 
L 185.240469 283.17455 
L 189.250367 278.466827 
L 193.260264 278.390372 
L 205.289956 285.608068 
L 209.299853 290.334746 
L 213.309751 291.00083 
L 217.319648 285.467984 
L 233.359238 286.916555 
L 237.369135 294.140554 
L 241.379032 291.792924 
L 245.38893 289.310396 
L 249.398827 289.760211 
L 261.428519 289.910119 
L 265.438416 282.265329 
L 269.448314 280.908345 
L 273.458211 284.240711 
L 277.468109 278.580142 
L 289.497801 278.522417 
L 293.507698 272.727686 
L 297.517595 279.102253 
L 301.527493 280.642073 
L 305.53739 273.632731 
L 317.567082 274.776527 
L 321.576979 271.481726 
L 325.586877 264.24615 
L 329.596774 261.378664 
L 333.606672 269.165631 
L 345.636364 270.43932 
L 349.646261 264.842958 
L 353.656158 271.991866 
L 357.666056 267.294273 
L 361.675953 266.574473 
L 373.705645 268.394361 
L 377.715543 267.887293 
L 381.72544 269.163743 
L 385.735337 274.173252 
L 389.745235 267.860758 
L 401.774927 269.968148 
L 405.784824 272.619867 
L 409.794721 260.125532 
L 413.804619 259.436418 
L 417.814516 268.129735 
L 429.844208 269.225363 
L 433.854106 263.848183 
L 437.864003 260.951814 
L 441.8739 264.471146 
L 445.883798 255.98015 
L 457.91349 257.930868 
L 461.923387 261.430447 
L 465.933284 267.057186 
L 469.943182 267.281745 
L 473.953079 268.785652 
L 485.982771 266.052665 
L 489.992669 265.860558 
L 494.002566 265.89817 
L 498.012463 262.008419 
L 502.022361 254.207285 
L 514.052053 259.956597 
L 518.06195 248.485175 
L 522.071848 246.669782 
L 526.081745 244.396333 
L 530.091642 244.373158 
L 542.121334 243.368317 
L 546.131232 233.384968 
L 550.141129 230.604525 
L 554.151026 228.937714 
L 558.160924 221.82911 
L 570.190616 226.106939 
L 574.200513 232.682453 
L 578.210411 224.696342 
L 582.220308 227.590861 
L 586.230205 223.528218 
L 598.259897 215.50002 
L 602.269795 208.730548 
L 606.279692 221.187929 
L 610.289589 214.04894 
L 614.299487 206.431362 
L 626.329179 208.768447 
L 630.339076 208.919035 
L 634.348974 202.710933 
L 638.358871 193.095517 
L 642.368768 190.801212 
L 654.39846 176.043073 
L 658.408358 180.217802 
L 662.418255 162.395491 
L 666.428152 158.02428 
L 670.43805 154.978789 
L 682.467742 142.893807 
L 686.477639 164.080255 
L 690.487537 171.89486 
L 694.497434 164.535991 
L 698.507331 165.492458 
L 710.537023 150.223698 
L 714.546921 142.046102 
L 718.556818 150.272915 
L 722.566716 152.253867 
L 726.576613 144.432544 
L 738.606305 148.988957 
L 742.616202 146.579967 
L 746.6261 142.047906 
L 750.635997 142.914781 
L 754.645894 160.336022 
L 766.675587 148.187512 
L 770.685484 145.834113 
L 774.695381 151.602037 
L 778.705279 144.717316 
L 782.715176 142.543284 
L 794.744868 142.091469 
L 798.754765 141.672026 
L 802.764663 144.485651 
L 806.77456 145.817347 
L 810.784457 162.779252 
L 822.81415 174.66023 
L 826.824047 168.628766 
L 830.833944 168.181557 
L 834.843842 168.253467 
L 838.853739 162.408881 
L 850.883431 176.403121 
L 854.893328 191.427532 
L 858.903226 194.287673 
L 862.913123 183.386347 
L 866.923021 185.75361 
L 878.952713 179.540714 
L 882.96261 164.55171 
L 886.972507 152.094864 
L 890.982405 148.544779 
L 894.992302 139.215008 
L 907.021994 136.315897 
L 911.031891 136.28109 
L 915.041789 119.408412 
L 919.051686 117.878368 
L 923.061584 104.265586 
L 935.091276 127.933748 
L 939.101173 105.11084 
L 943.11107 110.373024 
L 947.120968 90.363601 
L 951.130865 84.865921 
L 963.160557 109.088541 
L 967.170455 96.076976 
L 971.180352 112.607766 
L 975.190249 121.846865 
L 979.200147 110.480302 
L 991.229839 120.074535 
L 995.239736 134.827619 
L 999.249633 164.41352 
L 1003.259531 173.657122 
L 1007.269428 174.795104 
L 1019.29912 193.653207 
L 1023.309018 197.821594 
L 1027.318915 189.717497 
L 1031.328812 185.932621 
L 1035.33871 178.011328 
L 1047.368402 173.560512 
L 1051.378299 178.561911 
L 1055.388196 179.195206 
L 1059.398094 192.571179 
L 1063.407991 212.511314 
L 1075.437683 228.149936 
L 1079.447581 228.847958 
L 1083.457478 224.87168 
L 1087.467375 227.828431 
L 1091.477273 233.634068 
L 1091.477273 233.634068 
" style="fill:none;stroke:#bcbd22;stroke-linecap:square;stroke-width:1.5;"/>
   </g>
   <g id="patch_3">
    <path d="M 47.3 360.1 
L 47.3 25.92 
" style="fill:none;stroke:#000000;stroke-linecap:square;stroke-linejoin:miter;stroke-width:0.8;"/>
   </g>
   <g id="patch_4">
    <path d="M 1141.2 360.1 
L 1141.2 25.92 
" style="fill:none;stroke:#000000;stroke-linecap:square;stroke-linejoin:miter;stroke-width:0.8;"/>
   </g>
   <g id="patch_5">
    <path d="M 47.3 360.1 
L 1141.2 360.1 
" style="fill:none;stroke:#000000;stroke-linecap:square;stroke-linejoin:miter;stroke-width:0.8;"/>
   </g>
   <g id="patch_6">
    <path d="M 47.3 25.92 
L 1141.2 25.92 
" style="fill:none;stroke:#000000;stroke-linecap:square;stroke-linejoin:miter;stroke-width:0.8;"/>
   </g>
   <g id="text_11">
    <!-- Net Value: (2010-01-19 ~ 2010-10-08) -->
    <g transform="translate(478.1425 19.92)scale(0.12 -0.12)">
     <defs>
      <path d="M 9.8125 72.90625 
L 23.09375 72.90625 
L 55.421875 11.921875 
L 55.421875 72.90625 
L 64.984375 72.90625 
L 64.984375 0 
L 51.703125 0 
L 19.390625 60.984375 
L 19.390625 0 
L 9.8125 0 
z
" id="DejaVuSans-78"/>
      <path d="M 28.609375 0 
L 0.78125 72.90625 
L 11.078125 72.90625 
L 34.1875 11.53125 
L 57.328125 72.90625 
L 67.578125 72.90625 
L 39.796875 0 
z
" id="DejaVuSans-86"/>
      <path d="M 11.71875 12.40625 
L 22.015625 12.40625 
L 22.015625 0 
L 11.71875 0 
z
M 11.71875 51.703125 
L 22.015625 51.703125 
L 22.015625 39.3125 
L 11.71875 39.3125 
z
" id="DejaVuSans-58"/>
      <path d="M 31 75.875 
Q 24.46875 64.65625 21.28125 53.65625 
Q 18.109375 42.671875 18.109375 31.390625 
Q 18.109375 20.125 21.3125 9.0625 
Q 24.515625 -2 31 -13.1875 
L 23.1875 -13.1875 
Q 15.875 -1.703125 12.234375 9.375 
Q 8.59375 20.453125 8.59375 31.390625 
Q 8.59375 42.28125 12.203125 53.3125 
Q 15.828125 64.359375 23.1875 75.875 
z
" id="DejaVuSans-40"/>
      <path d="M 4.890625 31.390625 
L 31.203125 31.390625 
L 31.203125 23.390625 
L 4.890625 23.390625 
z
" id="DejaVuSans-45"/>
      <path d="M 10.984375 1.515625 
L 10.984375 10.5 
Q 14.703125 8.734375 18.5 7.8125 
Q 22.3125 6.890625 25.984375 6.890625 
Q 35.75 6.890625 40.890625 13.453125 
Q 46.046875 20.015625 46.78125 33.40625 
Q 43.953125 29.203125 39.59375 26.953125 
Q 35.25 24.703125 29.984375 24.703125 
Q 19.046875 24.703125 12.671875 31.3125 
Q 6.296875 37.9375 6.296875 49.421875 
Q 6.296875 60.640625 12.9375 67.421875 
Q 19.578125 74.21875 30.609375 74.21875 
Q 43.265625 74.21875 49.921875 64.515625 
Q 56.59375 54.828125 56.59375 36.375 
Q 56.59375 19.140625 48.40625 8.859375 
Q 40.234375 -1.421875 26.421875 -1.421875 
Q 22.703125 -1.421875 18.890625 -0.6875 
Q 15.09375 0.046875 10.984375 1.515625 
z
M 30.609375 32.421875 
Q 37.25 32.421875 41.125 36.953125 
Q 45.015625 41.5 45.015625 49.421875 
Q 45.015625 57.28125 41.125 61.84375 
Q 37.25 66.40625 30.609375 66.40625 
Q 23.96875 66.40625 20.09375 61.84375 
Q 16.21875 57.28125 16.21875 49.421875 
Q 16.21875 41.5 20.09375 36.953125 
Q 23.96875 32.421875 30.609375 32.421875 
z
" id="DejaVuSans-57"/>
      <path d="M 73.1875 39.890625 
L 73.1875 31.203125 
Q 68.0625 27.34375 63.6875 25.6875 
Q 59.328125 24.03125 54.59375 24.03125 
Q 49.21875 24.03125 42.09375 26.90625 
Q 41.546875 27.09375 41.3125 27.203125 
Q 40.96875 27.34375 40.234375 27.59375 
Q 32.671875 30.609375 28.078125 30.609375 
Q 23.78125 30.609375 19.578125 28.734375 
Q 15.375 26.859375 10.59375 22.796875 
L 10.59375 31.5 
Q 15.71875 35.359375 20.09375 37.03125 
Q 24.46875 38.71875 29.203125 38.71875 
Q 34.578125 38.71875 41.75 35.796875 
Q 42.234375 35.59375 42.484375 35.5 
Q 42.875 35.359375 43.5625 35.109375 
Q 51.125 32.078125 55.71875 32.078125 
Q 59.90625 32.078125 64.03125 33.9375 
Q 68.171875 35.796875 73.1875 39.890625 
z
" id="DejaVuSans-126"/>
      <path d="M 31.78125 34.625 
Q 24.75 34.625 20.71875 30.859375 
Q 16.703125 27.09375 16.703125 20.515625 
Q 16.703125 13.921875 20.71875 10.15625 
Q 24.75 6.390625 31.78125 6.390625 
Q 38.8125 6.390625 42.859375 10.171875 
Q 46.921875 13.96875 46.921875 20.515625 
Q 46.921875 27.09375 42.890625 30.859375 
Q 38.875 34.625 31.78125 34.625 
z
M 21.921875 38.8125 
Q 15.578125 40.375 12.03125 44.71875 
Q 8.5 49.078125 8.5 55.328125 
Q 8.5 64.0625 14.71875 69.140625 
Q 20.953125 74.21875 31.78125 74.21875 
Q 42.671875 74.21875 48.875 69.140625 
Q 55.078125 64.0625 55.078125 55.328125 
Q 55.078125 49.078125 51.53125 44.71875 
Q 48 40.375 41.703125 38.8125 
Q 48.828125 37.15625 52.796875 32.3125 
Q 56.78125 27.484375 56.78125 20.515625 
Q 56.78125 9.90625 50.3125 4.234375 
Q 43.84375 -1.421875 31.78125 -1.421875 
Q 19.734375 -1.421875 13.25 4.234375 
Q 6.78125 9.90625 6.78125 20.515625 
Q 6.78125 27.484375 10.78125 32.3125 
Q 14.796875 37.15625 21.921875 38.8125 
z
M 18.3125 54.390625 
Q 18.3125 48.734375 21.84375 45.5625 
Q 25.390625 42.390625 31.78125 42.390625 
Q 38.140625 42.390625 41.71875 45.5625 
Q 45.3125 48.734375 45.3125 54.390625 
Q 45.3125 60.0625 41.71875 63.234375 
Q 38.140625 66.40625 31.78125 66.40625 
Q 25.390625 66.40625 21.84375 63.234375 
Q 18.3125 60.0625 18.3125 54.390625 
z
" id="DejaVuSans-56"/>
      <path d="M 8.015625 75.875 
L 15.828125 75.875 
Q 23.140625 64.359375 26.78125 53.3125 
Q 30.421875 42.28125 30.421875 31.390625 
Q 30.421875 20.453125 26.78125 9.375 
Q 23.140625 -1.703125 15.828125 -13.1875 
L 8.015625 -13.1875 
Q 14.5 -2 17.703125 9.0625 
Q 20.90625 20.125 20.90625 31.390625 
Q 20.90625 42.671875 17.703125 53.65625 
Q 14.5 64.65625 8.015625 75.875 
z
" id="DejaVuSans-41"/>
     </defs>
     <use xlink:href="#DejaVuSans-78"/>
     <use x="74.804688" xlink:href="#DejaVuSans-101"/>
     <use x="136.328125" xlink:href="#DejaVuSans-116"/>
     <use x="175.537109" xlink:href="#DejaVuSans-32"/>
     <use x="207.324219" xlink:href="#DejaVuSans-86"/>
     <use x="267.982422" xlink:href="#DejaVuSans-97"/>
     <use x="329.261719" xlink:href="#DejaVuSans-108"/>
     <use x="357.044922" xlink:href="#DejaVuSans-117"/>
     <use x="420.423828" xlink:href="#DejaVuSans-101"/>
     <use x="481.947266" xlink:href="#DejaVuSans-58"/>
     <use x="515.638672" xlink:href="#DejaVuSans-32"/>
     <use x="547.425781" xlink:href="#DejaVuSans-40"/>
     <use x="586.439453" xlink:href="#DejaVuSans-50"/>
     <use x="650.0625" xlink:href="#DejaVuSans-48"/>
     <use x="713.685547" xlink:href="#DejaVuSans-49"/>
     <use x="777.308594" xlink:href="#DejaVuSans-48"/>
     <use x="840.931641" xlink:href="#DejaVuSans-45"/>
     <use x="877.015625" xlink:href="#DejaVuSans-48"/>
     <use x="940.638672" xlink:href="#DejaVuSans-49"/>
     <use x="1004.261719" xlink:href="#DejaVuSans-45"/>
     <use x="1040.345703" xlink:href="#DejaVuSans-49"/>
     <use x="1103.96875" xlink:href="#DejaVuSans-57"/>
     <use x="1167.591797" xlink:href="#DejaVuSans-32"/>
     <use x="1199.378906" xlink:href="#DejaVuSans-126"/>
     <use x="1283.167969" xlink:href="#DejaVuSans-32"/>
     <use x="1314.955078" xlink:href="#DejaVuSans-50"/>
     <use x="1378.578125" xlink:href="#DejaVuSans-48"/>
     <use x="1442.201172" xlink:href="#DejaVuSans-49"/>
     <use x="1505.824219" xlink:href="#DejaVuSans-48"/>
     <use x="1569.447266" xlink:href="#DejaVuSans-45"/>
     <use x="1605.53125" xlink:href="#DejaVuSans-49"/>
     <use x="1669.154297" xlink:href="#DejaVuSans-48"/>
     <use x="1732.777344" xlink:href="#DejaVuSans-45"/>
     <use x="1768.861328" xlink:href="#DejaVuSans-48"/>
     <use x="1832.484375" xlink:href="#DejaVuSans-56"/>
     <use x="1896.107422" xlink:href="#DejaVuSans-41"/>
    </g>
   </g>
   <g id="legend_1">
    <g id="patch_7">
     <path d="M 54.3 168.248125 
L 150.789062 168.248125 
Q 152.789062 168.248125 152.789062 166.248125 
L 152.789062 32.92 
Q 152.789062 30.92 150.789062 30.92 
L 54.3 30.92 
Q 52.3 30.92 52.3 32.92 
L 52.3 166.248125 
Q 52.3 168.248125 54.3 168.248125 
z
" style="fill:#ffffff;opacity:0.8;stroke:#cccccc;stroke-linejoin:miter;"/>
    </g>
    <g id="line2d_28">
     <path d="M 56.3 39.018438 
L 76.3 39.018438 
" style="fill:none;stroke:#1f77b4;stroke-linecap:square;stroke-width:1.5;"/>
    </g>
    <g id="line2d_29"/>
    <g id="text_12">
     <!-- group_1 -->
     <g transform="translate(84.3 42.518438)scale(0.1 -0.1)">
      <defs>
       <path d="M 45.40625 27.984375 
Q 45.40625 37.75 41.375 43.109375 
Q 37.359375 48.484375 30.078125 48.484375 
Q 22.859375 48.484375 18.828125 43.109375 
Q 14.796875 37.75 14.796875 27.984375 
Q 14.796875 18.265625 18.828125 12.890625 
Q 22.859375 7.515625 30.078125 7.515625 
Q 37.359375 7.515625 41.375 12.890625 
Q 45.40625 18.265625 45.40625 27.984375 
z
M 54.390625 6.78125 
Q 54.390625 -7.171875 48.1875 -13.984375 
Q 42 -20.796875 29.203125 -20.796875 
Q 24.46875 -20.796875 20.265625 -20.09375 
Q 16.0625 -19.390625 12.109375 -17.921875 
L 12.109375 -9.1875 
Q 16.0625 -11.328125 19.921875 -12.34375 
Q 23.78125 -13.375 27.78125 -13.375 
Q 36.625 -13.375 41.015625 -8.765625 
Q 45.40625 -4.15625 45.40625 5.171875 
L 45.40625 9.625 
Q 42.625 4.78125 38.28125 2.390625 
Q 33.9375 0 27.875 0 
Q 17.828125 0 11.671875 7.65625 
Q 5.515625 15.328125 5.515625 27.984375 
Q 5.515625 40.671875 11.671875 48.328125 
Q 17.828125 56 27.875 56 
Q 33.9375 56 38.28125 53.609375 
Q 42.625 51.21875 45.40625 46.390625 
L 45.40625 54.6875 
L 54.390625 54.6875 
z
" id="DejaVuSans-103"/>
       <path d="M 41.109375 46.296875 
Q 39.59375 47.171875 37.8125 47.578125 
Q 36.03125 48 33.890625 48 
Q 26.265625 48 22.1875 43.046875 
Q 18.109375 38.09375 18.109375 28.8125 
L 18.109375 0 
L 9.078125 0 
L 9.078125 54.6875 
L 18.109375 54.6875 
L 18.109375 46.1875 
Q 20.953125 51.171875 25.484375 53.578125 
Q 30.03125 56 36.53125 56 
Q 37.453125 56 38.578125 55.875 
Q 39.703125 55.765625 41.0625 55.515625 
z
" id="DejaVuSans-114"/>
       <path d="M 30.609375 48.390625 
Q 23.390625 48.390625 19.1875 42.75 
Q 14.984375 37.109375 14.984375 27.296875 
Q 14.984375 17.484375 19.15625 11.84375 
Q 23.34375 6.203125 30.609375 6.203125 
Q 37.796875 6.203125 41.984375 11.859375 
Q 46.1875 17.53125 46.1875 27.296875 
Q 46.1875 37.015625 41.984375 42.703125 
Q 37.796875 48.390625 30.609375 48.390625 
z
M 30.609375 56 
Q 42.328125 56 49.015625 48.375 
Q 55.71875 40.765625 55.71875 27.296875 
Q 55.71875 13.875 49.015625 6.21875 
Q 42.328125 -1.421875 30.609375 -1.421875 
Q 18.84375 -1.421875 12.171875 6.21875 
Q 5.515625 13.875 5.515625 27.296875 
Q 5.515625 40.765625 12.171875 48.375 
Q 18.84375 56 30.609375 56 
z
" id="DejaVuSans-111"/>
       <path d="M 18.109375 8.203125 
L 18.109375 -20.796875 
L 9.078125 -20.796875 
L 9.078125 54.6875 
L 18.109375 54.6875 
L 18.109375 46.390625 
Q 20.953125 51.265625 25.265625 53.625 
Q 29.59375 56 35.59375 56 
Q 45.5625 56 51.78125 48.09375 
Q 58.015625 40.1875 58.015625 27.296875 
Q 58.015625 14.40625 51.78125 6.484375 
Q 45.5625 -1.421875 35.59375 -1.421875 
Q 29.59375 -1.421875 25.265625 0.953125 
Q 20.953125 3.328125 18.109375 8.203125 
z
M 48.6875 27.296875 
Q 48.6875 37.203125 44.609375 42.84375 
Q 40.53125 48.484375 33.40625 48.484375 
Q 26.265625 48.484375 22.1875 42.84375 
Q 18.109375 37.203125 18.109375 27.296875 
Q 18.109375 17.390625 22.1875 11.75 
Q 26.265625 6.109375 33.40625 6.109375 
Q 40.53125 6.109375 44.609375 11.75 
Q 48.6875 17.390625 48.6875 27.296875 
z
" id="DejaVuSans-112"/>
       <path d="M 50.984375 -16.609375 
L 50.984375 -23.578125 
L -0.984375 -23.578125 
L -0.984375 -16.609375 
z
" id="DejaVuSans-95"/>
      </defs>
      <use xlink:href="#DejaVuSans-103"/>
      <use x="63.476562" xlink:href="#DejaVuSans-114"/>
      <use x="102.339844" xlink:href="#DejaVuSans-111"/>
      <use x="163.521484" xlink:href="#DejaVuSans-117"/>
      <use x="226.900391" xlink:href="#DejaVuSans-112"/>
      <use x="290.376953" xlink:href="#DejaVuSans-95"/>
      <use x="340.376953" xlink:href="#DejaVuSans-49"/>
     </g>
    </g>
    <g id="line2d_30">
     <path d="M 56.3 53.974688 
L 76.3 53.974688 
" style="fill:none;stroke:#ff7f0e;stroke-linecap:square;stroke-width:1.5;"/>
    </g>
    <g id="line2d_31"/>
    <g id="text_13">
     <!-- group_2 -->
     <g transform="translate(84.3 57.474688)scale(0.1 -0.1)">
      <use xlink:href="#DejaVuSans-103"/>
      <use x="63.476562" xlink:href="#DejaVuSans-114"/>
      <use x="102.339844" xlink:href="#DejaVuSans-111"/>
      <use x="163.521484" xlink:href="#DejaVuSans-117"/>
      <use x="226.900391" xlink:href="#DejaVuSans-112"/>
      <use x="290.376953" xlink:href="#DejaVuSans-95"/>
      <use x="340.376953" xlink:href="#DejaVuSans-50"/>
     </g>
    </g>
    <g id="line2d_32">
     <path d="M 56.3 68.930938 
L 76.3 68.930938 
" style="fill:none;stroke:#2ca02c;stroke-linecap:square;stroke-width:1.5;"/>
    </g>
    <g id="line2d_33"/>
    <g id="text_14">
     <!-- group_3 -->
     <g transform="translate(84.3 72.430938)scale(0.1 -0.1)">
      <use xlink:href="#DejaVuSans-103"/>
      <use x="63.476562" xlink:href="#DejaVuSans-114"/>
      <use x="102.339844" xlink:href="#DejaVuSans-111"/>
      <use x="163.521484" xlink:href="#DejaVuSans-117"/>
      <use x="226.900391" xlink:href="#DejaVuSans-112"/>
      <use x="290.376953" xlink:href="#DejaVuSans-95"/>
      <use x="340.376953" xlink:href="#DejaVuSans-51"/>
     </g>
    </g>
    <g id="line2d_34">
     <path d="M 56.3 83.887188 
L 76.3 83.887188 
" style="fill:none;stroke:#d62728;stroke-linecap:square;stroke-width:1.5;"/>
    </g>
    <g id="line2d_35"/>
    <g id="text_15">
     <!-- group_4 -->
     <g transform="translate(84.3 87.387188)scale(0.1 -0.1)">
      <use xlink:href="#DejaVuSans-103"/>
      <use x="63.476562" xlink:href="#DejaVuSans-114"/>
      <use x="102.339844" xlink:href="#DejaVuSans-111"/>
      <use x="163.521484" xlink:href="#DejaVuSans-117"/>
      <use x="226.900391" xlink:href="#DejaVuSans-112"/>
      <use x="290.376953" xlink:href="#DejaVuSans-95"/>
      <use x="340.376953" xlink:href="#DejaVuSans-52"/>
     </g>
    </g>
    <g id="line2d_36">
     <path d="M 56.3 98.843438 
L 76.3 98.843438 
" style="fill:none;stroke:#9467bd;stroke-linecap:square;stroke-width:1.5;"/>
    </g>
    <g id="line2d_37"/>
    <g id="text_16">
     <!-- group_5 -->
     <g transform="translate(84.3 102.343438)scale(0.1 -0.1)">
      <use xlink:href="#DejaVuSans-103"/>
      <use x="63.476562" xlink:href="#DejaVuSans-114"/>
      <use x="102.339844" xlink:href="#DejaVuSans-111"/>
      <use x="163.521484" xlink:href="#DejaVuSans-117"/>
      <use x="226.900391" xlink:href="#DejaVuSans-112"/>
      <use x="290.376953" xlink:href="#DejaVuSans-95"/>
      <use x="340.376953" xlink:href="#DejaVuSans-53"/>
     </g>
    </g>
    <g id="line2d_38">
     <path d="M 56.3 113.799688 
L 76.3 113.799688 
" style="fill:none;stroke:#8c564b;stroke-linecap:square;stroke-width:1.5;"/>
    </g>
    <g id="line2d_39"/>
    <g id="text_17">
     <!-- benchmark -->
     <g transform="translate(84.3 117.299688)scale(0.1 -0.1)">
      <defs>
       <path d="M 48.6875 27.296875 
Q 48.6875 37.203125 44.609375 42.84375 
Q 40.53125 48.484375 33.40625 48.484375 
Q 26.265625 48.484375 22.1875 42.84375 
Q 18.109375 37.203125 18.109375 27.296875 
Q 18.109375 17.390625 22.1875 11.75 
Q 26.265625 6.109375 33.40625 6.109375 
Q 40.53125 6.109375 44.609375 11.75 
Q 48.6875 17.390625 48.6875 27.296875 
z
M 18.109375 46.390625 
Q 20.953125 51.265625 25.265625 53.625 
Q 29.59375 56 35.59375 56 
Q 45.5625 56 51.78125 48.09375 
Q 58.015625 40.1875 58.015625 27.296875 
Q 58.015625 14.40625 51.78125 6.484375 
Q 45.5625 -1.421875 35.59375 -1.421875 
Q 29.59375 -1.421875 25.265625 0.953125 
Q 20.953125 3.328125 18.109375 8.203125 
L 18.109375 0 
L 9.078125 0 
L 9.078125 75.984375 
L 18.109375 75.984375 
z
" id="DejaVuSans-98"/>
       <path d="M 48.78125 52.59375 
L 48.78125 44.1875 
Q 44.96875 46.296875 41.140625 47.34375 
Q 37.3125 48.390625 33.40625 48.390625 
Q 24.65625 48.390625 19.8125 42.84375 
Q 14.984375 37.3125 14.984375 27.296875 
Q 14.984375 17.28125 19.8125 11.734375 
Q 24.65625 6.203125 33.40625 6.203125 
Q 37.3125 6.203125 41.140625 7.25 
Q 44.96875 8.296875 48.78125 10.40625 
L 48.78125 2.09375 
Q 45.015625 0.34375 40.984375 -0.53125 
Q 36.96875 -1.421875 32.421875 -1.421875 
Q 20.0625 -1.421875 12.78125 6.34375 
Q 5.515625 14.109375 5.515625 27.296875 
Q 5.515625 40.671875 12.859375 48.328125 
Q 20.21875 56 33.015625 56 
Q 37.15625 56 41.109375 55.140625 
Q 45.0625 54.296875 48.78125 52.59375 
z
" id="DejaVuSans-99"/>
       <path d="M 54.890625 33.015625 
L 54.890625 0 
L 45.90625 0 
L 45.90625 32.71875 
Q 45.90625 40.484375 42.875 44.328125 
Q 39.84375 48.1875 33.796875 48.1875 
Q 26.515625 48.1875 22.3125 43.546875 
Q 18.109375 38.921875 18.109375 30.90625 
L 18.109375 0 
L 9.078125 0 
L 9.078125 75.984375 
L 18.109375 75.984375 
L 18.109375 46.1875 
Q 21.34375 51.125 25.703125 53.5625 
Q 30.078125 56 35.796875 56 
Q 45.21875 56 50.046875 50.171875 
Q 54.890625 44.34375 54.890625 33.015625 
z
" id="DejaVuSans-104"/>
       <path d="M 52 44.1875 
Q 55.375 50.25 60.0625 53.125 
Q 64.75 56 71.09375 56 
Q 79.640625 56 84.28125 50.015625 
Q 88.921875 44.046875 88.921875 33.015625 
L 88.921875 0 
L 79.890625 0 
L 79.890625 32.71875 
Q 79.890625 40.578125 77.09375 44.375 
Q 74.3125 48.1875 68.609375 48.1875 
Q 61.625 48.1875 57.5625 43.546875 
Q 53.515625 38.921875 53.515625 30.90625 
L 53.515625 0 
L 44.484375 0 
L 44.484375 32.71875 
Q 44.484375 40.625 41.703125 44.40625 
Q 38.921875 48.1875 33.109375 48.1875 
Q 26.21875 48.1875 22.15625 43.53125 
Q 18.109375 38.875 18.109375 30.90625 
L 18.109375 0 
L 9.078125 0 
L 9.078125 54.6875 
L 18.109375 54.6875 
L 18.109375 46.1875 
Q 21.1875 51.21875 25.484375 53.609375 
Q 29.78125 56 35.6875 56 
Q 41.65625 56 45.828125 52.96875 
Q 50 49.953125 52 44.1875 
z
" id="DejaVuSans-109"/>
       <path d="M 9.078125 75.984375 
L 18.109375 75.984375 
L 18.109375 31.109375 
L 44.921875 54.6875 
L 56.390625 54.6875 
L 27.390625 29.109375 
L 57.625 0 
L 45.90625 0 
L 18.109375 26.703125 
L 18.109375 0 
L 9.078125 0 
z
" id="DejaVuSans-107"/>
      </defs>
      <use xlink:href="#DejaVuSans-98"/>
      <use x="63.476562" xlink:href="#DejaVuSans-101"/>
      <use x="125" xlink:href="#DejaVuSans-110"/>
      <use x="188.378906" xlink:href="#DejaVuSans-99"/>
      <use x="243.359375" xlink:href="#DejaVuSans-104"/>
      <use x="306.738281" xlink:href="#DejaVuSans-109"/>
      <use x="404.150391" xlink:href="#DejaVuSans-97"/>
      <use x="465.429688" xlink:href="#DejaVuSans-114"/>
      <use x="506.542969" xlink:href="#DejaVuSans-107"/>
     </g>
    </g>
    <g id="line2d_40">
     <path d="M 56.3 128.477813 
L 76.3 128.477813 
" style="fill:none;stroke:#e377c2;stroke-linecap:square;stroke-width:1.5;"/>
    </g>
    <g id="line2d_41"/>
    <g id="text_18">
     <!-- long_excess -->
     <g transform="translate(84.3 131.977813)scale(0.1 -0.1)">
      <defs>
       <path d="M 54.890625 54.6875 
L 35.109375 28.078125 
L 55.90625 0 
L 45.3125 0 
L 29.390625 21.484375 
L 13.484375 0 
L 2.875 0 
L 24.125 28.609375 
L 4.6875 54.6875 
L 15.28125 54.6875 
L 29.78125 35.203125 
L 44.28125 54.6875 
z
" id="DejaVuSans-120"/>
       <path d="M 44.28125 53.078125 
L 44.28125 44.578125 
Q 40.484375 46.53125 36.375 47.5 
Q 32.28125 48.484375 27.875 48.484375 
Q 21.1875 48.484375 17.84375 46.4375 
Q 14.5 44.390625 14.5 40.28125 
Q 14.5 37.15625 16.890625 35.375 
Q 19.28125 33.59375 26.515625 31.984375 
L 29.59375 31.296875 
Q 39.15625 29.25 43.1875 25.515625 
Q 47.21875 21.78125 47.21875 15.09375 
Q 47.21875 7.46875 41.1875 3.015625 
Q 35.15625 -1.421875 24.609375 -1.421875 
Q 20.21875 -1.421875 15.453125 -0.5625 
Q 10.6875 0.296875 5.421875 2 
L 5.421875 11.28125 
Q 10.40625 8.6875 15.234375 7.390625 
Q 20.0625 6.109375 24.8125 6.109375 
Q 31.15625 6.109375 34.5625 8.28125 
Q 37.984375 10.453125 37.984375 14.40625 
Q 37.984375 18.0625 35.515625 20.015625 
Q 33.0625 21.96875 24.703125 23.78125 
L 21.578125 24.515625 
Q 13.234375 26.265625 9.515625 29.90625 
Q 5.8125 33.546875 5.8125 39.890625 
Q 5.8125 47.609375 11.28125 51.796875 
Q 16.75 56 26.8125 56 
Q 31.78125 56 36.171875 55.265625 
Q 40.578125 54.546875 44.28125 53.078125 
z
" id="DejaVuSans-115"/>
      </defs>
      <use xlink:href="#DejaVuSans-108"/>
      <use x="27.783203" xlink:href="#DejaVuSans-111"/>
      <use x="88.964844" xlink:href="#DejaVuSans-110"/>
      <use x="152.34375" xlink:href="#DejaVuSans-103"/>
      <use x="215.820312" xlink:href="#DejaVuSans-95"/>
      <use x="265.820312" xlink:href="#DejaVuSans-101"/>
      <use x="325.59375" xlink:href="#DejaVuSans-120"/>
      <use x="383.023438" xlink:href="#DejaVuSans-99"/>
      <use x="438.003906" xlink:href="#DejaVuSans-101"/>
      <use x="499.527344" xlink:href="#DejaVuSans-115"/>
      <use x="551.626953" xlink:href="#DejaVuSans-115"/>
     </g>
    </g>
    <g id="line2d_42">
     <path d="M 56.3 143.434063 
L 76.3 143.434063 
" style="fill:none;stroke:#7f7f7f;stroke-linecap:square;stroke-width:1.5;"/>
    </g>
    <g id="line2d_43"/>
    <g id="text_19">
     <!-- short_excess -->
     <g transform="translate(84.3 146.934063)scale(0.1 -0.1)">
      <use xlink:href="#DejaVuSans-115"/>
      <use x="52.099609" xlink:href="#DejaVuSans-104"/>
      <use x="115.478516" xlink:href="#DejaVuSans-111"/>
      <use x="176.660156" xlink:href="#DejaVuSans-114"/>
      <use x="217.773438" xlink:href="#DejaVuSans-116"/>
      <use x="256.982422" xlink:href="#DejaVuSans-95"/>
      <use x="306.982422" xlink:href="#DejaVuSans-101"/>
      <use x="366.755859" xlink:href="#DejaVuSans-120"/>
      <use x="424.185547" xlink:href="#DejaVuSans-99"/>
      <use x="479.166016" xlink:href="#DejaVuSans-101"/>
      <use x="540.689453" xlink:href="#DejaVuSans-115"/>
      <use x="592.789062" xlink:href="#DejaVuSans-115"/>
     </g>
    </g>
    <g id="line2d_44">
     <path d="M 56.3 158.390313 
L 76.3 158.390313 
" style="fill:none;stroke:#bcbd22;stroke-linecap:square;stroke-width:1.5;"/>
    </g>
    <g id="line2d_45"/>
    <g id="text_20">
     <!-- long_short -->
     <g transform="translate(84.3 161.890313)scale(0.1 -0.1)">
      <use xlink:href="#DejaVuSans-108"/>
      <use x="27.783203" xlink:href="#DejaVuSans-111"/>
      <use x="88.964844" xlink:href="#DejaVuSans-110"/>
      <use x="152.34375" xlink:href="#DejaVuSans-103"/>
      <use x="215.820312" xlink:href="#DejaVuSans-95"/>
      <use x="265.820312" xlink:href="#DejaVuSans-115"/>
      <use x="317.919922" xlink:href="#DejaVuSans-104"/>
      <use x="381.298828" xlink:href="#DejaVuSans-111"/>
      <use x="442.480469" xlink:href="#DejaVuSans-114"/>
      <use x="483.59375" xlink:href="#DejaVuSans-116"/>
     </g>
    </g>
   </g>
  </g>
 </g>
 <defs>
  <clipPath id="p935e36ce3f">
   <rect height="334.18" width="1093.9" x="47.3" y="25.92"/>
  </clipPath>
 </defs>
</svg>
