<?xml version="1.0" encoding="utf-8" standalone="no"?>
<!DOCTYPE svg PUBLIC "-//W3C//DTD SVG 1.1//EN"
  "http://www.w3.org/Graphics/SVG/1.1/DTD/svg11.dtd">
<!-- Created with matplotlib (https://matplotlib.org/) -->
<svg height="360pt" version="1.1" viewBox="0 0 1152 360" width="1152pt" xmlns="http://www.w3.org/2000/svg" xmlns:xlink="http://www.w3.org/1999/xlink">
 <metadata>
  <rdf:RDF xmlns:cc="http://creativecommons.org/ns#" xmlns:dc="http://purl.org/dc/elements/1.1/" xmlns:rdf="http://www.w3.org/1999/02/22-rdf-syntax-ns#">
   <cc:Work>
    <dc:type rdf:resource="http://purl.org/dc/dcmitype/StillImage"/>
    <dc:date>2023-10-11T16:37:19.835328</dc:date>
    <dc:format>image/svg+xml</dc:format>
    <dc:creator>
     <cc:Agent>
      <dc:title>Matplotlib v3.3.4, https://matplotlib.org/</dc:title>
     </cc:Agent>
    </dc:creator>
   </cc:Work>
  </rdf:RDF>
 </metadata>
 <defs>
  <style type="text/css">*{stroke-linecap:butt;stroke-linejoin:round;}</style>
 </defs>
 <g id="figure_1">
  <g id="patch_1">
   <path d="M 0 360 
L 1152 360 
L 1152 0 
L 0 0 
z
" style="fill:#ffffff;"/>
  </g>
  <g id="axes_1">
   <g id="patch_2">
    <path d="M 50.9 345.7 
L 1141.2 345.7 
L 1141.2 25.92 
L 50.9 25.92 
z
" style="fill:#ffffff;"/>
   </g>
   <g id="matplotlib.axis_1"/>
   <g id="matplotlib.axis_2">
    <g id="ytick_1">
     <g id="line2d_1">
      <path clip-path="url(#p3b8e2ee9ea)" d="M 50.9 286.886035 
L 1141.2 286.886035 
" style="fill:none;stroke:#b0b0b0;stroke-linecap:square;stroke-width:0.8;"/>
     </g>
     <g id="line2d_2">
      <defs>
       <path d="M 0 0 
L -3.5 0 
" id="m3331215d4e" style="stroke:#000000;stroke-width:0.8;"/>
      </defs>
      <g>
       <use style="stroke:#000000;stroke-width:0.8;" x="50.9" xlink:href="#m3331215d4e" y="286.886035"/>
      </g>
     </g>
     <g id="text_1">
      <!-- -0.4 -->
      <g transform="translate(24.389062 290.685254)scale(0.1 -0.1)">
       <defs>
        <path d="M 4.890625 31.390625 
L 31.203125 31.390625 
L 31.203125 23.390625 
L 4.890625 23.390625 
z
" id="DejaVuSans-45"/>
        <path d="M 31.78125 66.40625 
Q 24.171875 66.40625 20.328125 58.90625 
Q 16.5 51.421875 16.5 36.375 
Q 16.5 21.390625 20.328125 13.890625 
Q 24.171875 6.390625 31.78125 6.390625 
Q 39.453125 6.390625 43.28125 13.890625 
Q 47.125 21.390625 47.125 36.375 
Q 47.125 51.421875 43.28125 58.90625 
Q 39.453125 66.40625 31.78125 66.40625 
z
M 31.78125 74.21875 
Q 44.046875 74.21875 50.515625 64.515625 
Q 56.984375 54.828125 56.984375 36.375 
Q 56.984375 17.96875 50.515625 8.265625 
Q 44.046875 -1.421875 31.78125 -1.421875 
Q 19.53125 -1.421875 13.0625 8.265625 
Q 6.59375 17.96875 6.59375 36.375 
Q 6.59375 54.828125 13.0625 64.515625 
Q 19.53125 74.21875 31.78125 74.21875 
z
" id="DejaVuSans-48"/>
        <path d="M 10.6875 12.40625 
L 21 12.40625 
L 21 0 
L 10.6875 0 
z
" id="DejaVuSans-46"/>
        <path d="M 37.796875 64.3125 
L 12.890625 25.390625 
L 37.796875 25.390625 
z
M 35.203125 72.90625 
L 47.609375 72.90625 
L 47.609375 25.390625 
L 58.015625 25.390625 
L 58.015625 17.1875 
L 47.609375 17.1875 
L 47.609375 0 
L 37.796875 0 
L 37.796875 17.1875 
L 4.890625 17.1875 
L 4.890625 26.703125 
z
" id="DejaVuSans-52"/>
       </defs>
       <use xlink:href="#DejaVuSans-45"/>
       <use x="36.083984" xlink:href="#DejaVuSans-48"/>
       <use x="99.707031" xlink:href="#DejaVuSans-46"/>
       <use x="131.494141" xlink:href="#DejaVuSans-52"/>
      </g>
     </g>
    </g>
    <g id="ytick_2">
     <g id="line2d_3">
      <path clip-path="url(#p3b8e2ee9ea)" d="M 50.9 222.706127 
L 1141.2 222.706127 
" style="fill:none;stroke:#b0b0b0;stroke-linecap:square;stroke-width:0.8;"/>
     </g>
     <g id="line2d_4">
      <g>
       <use style="stroke:#000000;stroke-width:0.8;" x="50.9" xlink:href="#m3331215d4e" y="222.706127"/>
      </g>
     </g>
     <g id="text_2">
      <!-- -0.2 -->
      <g transform="translate(24.389062 226.505346)scale(0.1 -0.1)">
       <defs>
        <path d="M 19.1875 8.296875 
L 53.609375 8.296875 
L 53.609375 0 
L 7.328125 0 
L 7.328125 8.296875 
Q 12.9375 14.109375 22.625 23.890625 
Q 32.328125 33.6875 34.8125 36.53125 
Q 39.546875 41.84375 41.421875 45.53125 
Q 43.3125 49.21875 43.3125 52.78125 
Q 43.3125 58.59375 39.234375 62.25 
Q 35.15625 65.921875 28.609375 65.921875 
Q 23.96875 65.921875 18.8125 64.3125 
Q 13.671875 62.703125 7.8125 59.421875 
L 7.8125 69.390625 
Q 13.765625 71.78125 18.9375 73 
Q 24.125 74.21875 28.421875 74.21875 
Q 39.75 74.21875 46.484375 68.546875 
Q 53.21875 62.890625 53.21875 53.421875 
Q 53.21875 48.921875 51.53125 44.890625 
Q 49.859375 40.875 45.40625 35.40625 
Q 44.1875 33.984375 37.640625 27.21875 
Q 31.109375 20.453125 19.1875 8.296875 
z
" id="DejaVuSans-50"/>
       </defs>
       <use xlink:href="#DejaVuSans-45"/>
       <use x="36.083984" xlink:href="#DejaVuSans-48"/>
       <use x="99.707031" xlink:href="#DejaVuSans-46"/>
       <use x="131.494141" xlink:href="#DejaVuSans-50"/>
      </g>
     </g>
    </g>
    <g id="ytick_3">
     <g id="line2d_5">
      <path clip-path="url(#p3b8e2ee9ea)" d="M 50.9 158.52622 
L 1141.2 158.52622 
" style="fill:none;stroke:#b0b0b0;stroke-linecap:square;stroke-width:0.8;"/>
     </g>
     <g id="line2d_6">
      <g>
       <use style="stroke:#000000;stroke-width:0.8;" x="50.9" xlink:href="#m3331215d4e" y="158.52622"/>
      </g>
     </g>
     <g id="text_3">
      <!-- 0.0 -->
      <g transform="translate(27.996875 162.325439)scale(0.1 -0.1)">
       <use xlink:href="#DejaVuSans-48"/>
       <use x="63.623047" xlink:href="#DejaVuSans-46"/>
       <use x="95.410156" xlink:href="#DejaVuSans-48"/>
      </g>
     </g>
    </g>
    <g id="ytick_4">
     <g id="line2d_7">
      <path clip-path="url(#p3b8e2ee9ea)" d="M 50.9 94.346313 
L 1141.2 94.346313 
" style="fill:none;stroke:#b0b0b0;stroke-linecap:square;stroke-width:0.8;"/>
     </g>
     <g id="line2d_8">
      <g>
       <use style="stroke:#000000;stroke-width:0.8;" x="50.9" xlink:href="#m3331215d4e" y="94.346313"/>
      </g>
     </g>
     <g id="text_4">
      <!-- 0.2 -->
      <g transform="translate(27.996875 98.145531)scale(0.1 -0.1)">
       <use xlink:href="#DejaVuSans-48"/>
       <use x="63.623047" xlink:href="#DejaVuSans-46"/>
       <use x="95.410156" xlink:href="#DejaVuSans-50"/>
      </g>
     </g>
    </g>
    <g id="ytick_5">
     <g id="line2d_9">
      <path clip-path="url(#p3b8e2ee9ea)" d="M 50.9 30.166405 
L 1141.2 30.166405 
" style="fill:none;stroke:#b0b0b0;stroke-linecap:square;stroke-width:0.8;"/>
     </g>
     <g id="line2d_10">
      <g>
       <use style="stroke:#000000;stroke-width:0.8;" x="50.9" xlink:href="#m3331215d4e" y="30.166405"/>
      </g>
     </g>
     <g id="text_5">
      <!-- 0.4 -->
      <g transform="translate(27.996875 33.965624)scale(0.1 -0.1)">
       <use xlink:href="#DejaVuSans-48"/>
       <use x="63.623047" xlink:href="#DejaVuSans-46"/>
       <use x="95.410156" xlink:href="#DejaVuSans-52"/>
      </g>
     </g>
    </g>
    <g id="text_6">
     <!-- log return cumsum -->
     <g transform="translate(18.309375 233.327969)rotate(-90)scale(0.1 -0.1)">
      <defs>
       <path d="M 9.421875 75.984375 
L 18.40625 75.984375 
L 18.40625 0 
L 9.421875 0 
z
" id="DejaVuSans-108"/>
       <path d="M 30.609375 48.390625 
Q 23.390625 48.390625 19.1875 42.75 
Q 14.984375 37.109375 14.984375 27.296875 
Q 14.984375 17.484375 19.15625 11.84375 
Q 23.34375 6.203125 30.609375 6.203125 
Q 37.796875 6.203125 41.984375 11.859375 
Q 46.1875 17.53125 46.1875 27.296875 
Q 46.1875 37.015625 41.984375 42.703125 
Q 37.796875 48.390625 30.609375 48.390625 
z
M 30.609375 56 
Q 42.328125 56 49.015625 48.375 
Q 55.71875 40.765625 55.71875 27.296875 
Q 55.71875 13.875 49.015625 6.21875 
Q 42.328125 -1.421875 30.609375 -1.421875 
Q 18.84375 -1.421875 12.171875 6.21875 
Q 5.515625 13.875 5.515625 27.296875 
Q 5.515625 40.765625 12.171875 48.375 
Q 18.84375 56 30.609375 56 
z
" id="DejaVuSans-111"/>
       <path d="M 45.40625 27.984375 
Q 45.40625 37.75 41.375 43.109375 
Q 37.359375 48.484375 30.078125 48.484375 
Q 22.859375 48.484375 18.828125 43.109375 
Q 14.796875 37.75 14.796875 27.984375 
Q 14.796875 18.265625 18.828125 12.890625 
Q 22.859375 7.515625 30.078125 7.515625 
Q 37.359375 7.515625 41.375 12.890625 
Q 45.40625 18.265625 45.40625 27.984375 
z
M 54.390625 6.78125 
Q 54.390625 -7.171875 48.1875 -13.984375 
Q 42 -20.796875 29.203125 -20.796875 
Q 24.46875 -20.796875 20.265625 -20.09375 
Q 16.0625 -19.390625 12.109375 -17.921875 
L 12.109375 -9.1875 
Q 16.0625 -11.328125 19.921875 -12.34375 
Q 23.78125 -13.375 27.78125 -13.375 
Q 36.625 -13.375 41.015625 -8.765625 
Q 45.40625 -4.15625 45.40625 5.171875 
L 45.40625 9.625 
Q 42.625 4.78125 38.28125 2.390625 
Q 33.9375 0 27.875 0 
Q 17.828125 0 11.671875 7.65625 
Q 5.515625 15.328125 5.515625 27.984375 
Q 5.515625 40.671875 11.671875 48.328125 
Q 17.828125 56 27.875 56 
Q 33.9375 56 38.28125 53.609375 
Q 42.625 51.21875 45.40625 46.390625 
L 45.40625 54.6875 
L 54.390625 54.6875 
z
" id="DejaVuSans-103"/>
       <path id="DejaVuSans-32"/>
       <path d="M 41.109375 46.296875 
Q 39.59375 47.171875 37.8125 47.578125 
Q 36.03125 48 33.890625 48 
Q 26.265625 48 22.1875 43.046875 
Q 18.109375 38.09375 18.109375 28.8125 
L 18.109375 0 
L 9.078125 0 
L 9.078125 54.6875 
L 18.109375 54.6875 
L 18.109375 46.1875 
Q 20.953125 51.171875 25.484375 53.578125 
Q 30.03125 56 36.53125 56 
Q 37.453125 56 38.578125 55.875 
Q 39.703125 55.765625 41.0625 55.515625 
z
" id="DejaVuSans-114"/>
       <path d="M 56.203125 29.59375 
L 56.203125 25.203125 
L 14.890625 25.203125 
Q 15.484375 15.921875 20.484375 11.0625 
Q 25.484375 6.203125 34.421875 6.203125 
Q 39.59375 6.203125 44.453125 7.46875 
Q 49.3125 8.734375 54.109375 11.28125 
L 54.109375 2.78125 
Q 49.265625 0.734375 44.1875 -0.34375 
Q 39.109375 -1.421875 33.890625 -1.421875 
Q 20.796875 -1.421875 13.15625 6.1875 
Q 5.515625 13.8125 5.515625 26.8125 
Q 5.515625 40.234375 12.765625 48.109375 
Q 20.015625 56 32.328125 56 
Q 43.359375 56 49.78125 48.890625 
Q 56.203125 41.796875 56.203125 29.59375 
z
M 47.21875 32.234375 
Q 47.125 39.59375 43.09375 43.984375 
Q 39.0625 48.390625 32.421875 48.390625 
Q 24.90625 48.390625 20.390625 44.140625 
Q 15.875 39.890625 15.1875 32.171875 
z
" id="DejaVuSans-101"/>
       <path d="M 18.3125 70.21875 
L 18.3125 54.6875 
L 36.8125 54.6875 
L 36.8125 47.703125 
L 18.3125 47.703125 
L 18.3125 18.015625 
Q 18.3125 11.328125 20.140625 9.421875 
Q 21.96875 7.515625 27.59375 7.515625 
L 36.8125 7.515625 
L 36.8125 0 
L 27.59375 0 
Q 17.1875 0 13.234375 3.875 
Q 9.28125 7.765625 9.28125 18.015625 
L 9.28125 47.703125 
L 2.6875 47.703125 
L 2.6875 54.6875 
L 9.28125 54.6875 
L 9.28125 70.21875 
z
" id="DejaVuSans-116"/>
       <path d="M 8.5 21.578125 
L 8.5 54.6875 
L 17.484375 54.6875 
L 17.484375 21.921875 
Q 17.484375 14.15625 20.5 10.265625 
Q 23.53125 6.390625 29.59375 6.390625 
Q 36.859375 6.390625 41.078125 11.03125 
Q 45.3125 15.671875 45.3125 23.6875 
L 45.3125 54.6875 
L 54.296875 54.6875 
L 54.296875 0 
L 45.3125 0 
L 45.3125 8.40625 
Q 42.046875 3.421875 37.71875 1 
Q 33.40625 -1.421875 27.6875 -1.421875 
Q 18.265625 -1.421875 13.375 4.4375 
Q 8.5 10.296875 8.5 21.578125 
z
M 31.109375 56 
z
" id="DejaVuSans-117"/>
       <path d="M 54.890625 33.015625 
L 54.890625 0 
L 45.90625 0 
L 45.90625 32.71875 
Q 45.90625 40.484375 42.875 44.328125 
Q 39.84375 48.1875 33.796875 48.1875 
Q 26.515625 48.1875 22.3125 43.546875 
Q 18.109375 38.921875 18.109375 30.90625 
L 18.109375 0 
L 9.078125 0 
L 9.078125 54.6875 
L 18.109375 54.6875 
L 18.109375 46.1875 
Q 21.34375 51.125 25.703125 53.5625 
Q 30.078125 56 35.796875 56 
Q 45.21875 56 50.046875 50.171875 
Q 54.890625 44.34375 54.890625 33.015625 
z
" id="DejaVuSans-110"/>
       <path d="M 48.78125 52.59375 
L 48.78125 44.1875 
Q 44.96875 46.296875 41.140625 47.34375 
Q 37.3125 48.390625 33.40625 48.390625 
Q 24.65625 48.390625 19.8125 42.84375 
Q 14.984375 37.3125 14.984375 27.296875 
Q 14.984375 17.28125 19.8125 11.734375 
Q 24.65625 6.203125 33.40625 6.203125 
Q 37.3125 6.203125 41.140625 7.25 
Q 44.96875 8.296875 48.78125 10.40625 
L 48.78125 2.09375 
Q 45.015625 0.34375 40.984375 -0.53125 
Q 36.96875 -1.421875 32.421875 -1.421875 
Q 20.0625 -1.421875 12.78125 6.34375 
Q 5.515625 14.109375 5.515625 27.296875 
Q 5.515625 40.671875 12.859375 48.328125 
Q 20.21875 56 33.015625 56 
Q 37.15625 56 41.109375 55.140625 
Q 45.0625 54.296875 48.78125 52.59375 
z
" id="DejaVuSans-99"/>
       <path d="M 52 44.1875 
Q 55.375 50.25 60.0625 53.125 
Q 64.75 56 71.09375 56 
Q 79.640625 56 84.28125 50.015625 
Q 88.921875 44.046875 88.921875 33.015625 
L 88.921875 0 
L 79.890625 0 
L 79.890625 32.71875 
Q 79.890625 40.578125 77.09375 44.375 
Q 74.3125 48.1875 68.609375 48.1875 
Q 61.625 48.1875 57.5625 43.546875 
Q 53.515625 38.921875 53.515625 30.90625 
L 53.515625 0 
L 44.484375 0 
L 44.484375 32.71875 
Q 44.484375 40.625 41.703125 44.40625 
Q 38.921875 48.1875 33.109375 48.1875 
Q 26.21875 48.1875 22.15625 43.53125 
Q 18.109375 38.875 18.109375 30.90625 
L 18.109375 0 
L 9.078125 0 
L 9.078125 54.6875 
L 18.109375 54.6875 
L 18.109375 46.1875 
Q 21.1875 51.21875 25.484375 53.609375 
Q 29.78125 56 35.6875 56 
Q 41.65625 56 45.828125 52.96875 
Q 50 49.953125 52 44.1875 
z
" id="DejaVuSans-109"/>
       <path d="M 44.28125 53.078125 
L 44.28125 44.578125 
Q 40.484375 46.53125 36.375 47.5 
Q 32.28125 48.484375 27.875 48.484375 
Q 21.1875 48.484375 17.84375 46.4375 
Q 14.5 44.390625 14.5 40.28125 
Q 14.5 37.15625 16.890625 35.375 
Q 19.28125 33.59375 26.515625 31.984375 
L 29.59375 31.296875 
Q 39.15625 29.25 43.1875 25.515625 
Q 47.21875 21.78125 47.21875 15.09375 
Q 47.21875 7.46875 41.1875 3.015625 
Q 35.15625 -1.421875 24.609375 -1.421875 
Q 20.21875 -1.421875 15.453125 -0.5625 
Q 10.6875 0.296875 5.421875 2 
L 5.421875 11.28125 
Q 10.40625 8.6875 15.234375 7.390625 
Q 20.0625 6.109375 24.8125 6.109375 
Q 31.15625 6.109375 34.5625 8.28125 
Q 37.984375 10.453125 37.984375 14.40625 
Q 37.984375 18.0625 35.515625 20.015625 
Q 33.0625 21.96875 24.703125 23.78125 
L 21.578125 24.515625 
Q 13.234375 26.265625 9.515625 29.90625 
Q 5.8125 33.546875 5.8125 39.890625 
Q 5.8125 47.609375 11.28125 51.796875 
Q 16.75 56 26.8125 56 
Q 31.78125 56 36.171875 55.265625 
Q 40.578125 54.546875 44.28125 53.078125 
z
" id="DejaVuSans-115"/>
      </defs>
      <use xlink:href="#DejaVuSans-108"/>
      <use x="27.783203" xlink:href="#DejaVuSans-111"/>
      <use x="88.964844" xlink:href="#DejaVuSans-103"/>
      <use x="152.441406" xlink:href="#DejaVuSans-32"/>
      <use x="184.228516" xlink:href="#DejaVuSans-114"/>
      <use x="223.091797" xlink:href="#DejaVuSans-101"/>
      <use x="284.615234" xlink:href="#DejaVuSans-116"/>
      <use x="323.824219" xlink:href="#DejaVuSans-117"/>
      <use x="387.203125" xlink:href="#DejaVuSans-114"/>
      <use x="426.566406" xlink:href="#DejaVuSans-110"/>
      <use x="489.945312" xlink:href="#DejaVuSans-32"/>
      <use x="521.732422" xlink:href="#DejaVuSans-99"/>
      <use x="576.712891" xlink:href="#DejaVuSans-117"/>
      <use x="640.091797" xlink:href="#DejaVuSans-109"/>
      <use x="737.503906" xlink:href="#DejaVuSans-115"/>
      <use x="789.603516" xlink:href="#DejaVuSans-117"/>
      <use x="852.982422" xlink:href="#DejaVuSans-109"/>
     </g>
    </g>
   </g>
   <g id="line2d_11">
    <path clip-path="url(#p3b8e2ee9ea)" d="M 100.459091 151.03446 
L 104.439741 164.000938 
L 108.420391 162.096627 
L 112.401041 150.866581 
L 116.38169 146.33438 
L 128.32364 138.377928 
L 132.30429 146.460507 
L 136.28494 146.933392 
L 140.26559 145.406487 
L 144.24624 139.043414 
L 156.188189 127.339231 
L 160.168839 124.257743 
L 164.149489 116.445912 
L 168.130139 124.881171 
L 172.110789 127.968242 
L 184.052738 132.61717 
L 188.033388 120.76103 
L 192.014038 125.176677 
L 195.994688 126.545918 
L 199.975338 117.48235 
L 211.917287 128.926753 
L 215.897937 127.163494 
L 219.878587 131.752283 
L 223.859237 142.663812 
L 227.839887 136.917381 
L 239.781836 135.584073 
L 243.762486 120.706079 
L 247.743136 123.861742 
L 251.723786 118.492897 
L 255.704436 122.824965 
L 267.646386 125.313802 
L 271.627035 119.221576 
L 275.607685 111.151242 
L 279.588335 106.324099 
L 283.568985 109.370749 
L 295.510935 100.957432 
L 299.491585 93.644803 
L 303.472234 102.825758 
L 307.452884 98.168981 
L 311.433534 104.680164 
L 323.375484 106.814672 
L 327.356134 107.948249 
L 331.336783 111.974851 
L 335.317433 113.004261 
L 339.298083 122.147241 
L 351.240033 128.474152 
L 355.220683 124.550073 
L 359.201333 130.737419 
L 363.181982 134.679039 
L 367.162632 120.760166 
L 379.104582 119.041543 
L 383.085232 123.261804 
L 387.065882 128.041925 
L 391.046532 129.217282 
L 395.027181 139.654756 
L 406.969131 142.324054 
L 410.949781 152.947288 
L 414.930431 159.166302 
L 418.911081 148.996913 
L 422.891731 160.961032 
L 434.83368 153.992328 
L 438.81433 142.31695 
L 442.79498 128.969332 
L 446.77563 122.188421 
L 450.75628 132.378533 
L 462.698229 133.742141 
L 466.678879 135.84715 
L 470.659529 127.028916 
L 474.640179 127.989043 
L 478.620829 120.977161 
L 490.562778 130.339171 
L 494.543428 126.342147 
L 498.524078 124.245072 
L 502.504728 129.615188 
L 506.485378 117.918481 
L 518.427327 117.82502 
L 522.407977 120.64441 
L 526.388627 116.971936 
L 534.349927 128.57481 
L 546.291877 130.438161 
L 550.272526 131.725633 
L 554.253176 125.230853 
L 558.233826 137.68036 
L 562.214476 138.997421 
L 574.156426 132.015396 
L 578.137076 138.08099 
L 582.117725 147.566348 
L 586.098375 151.692355 
L 590.079025 154.483349 
L 602.020975 149.88682 
L 606.001625 135.106964 
L 609.982275 124.757146 
L 613.962924 131.634679 
L 617.943574 130.33548 
L 629.885524 122.77065 
L 633.866174 137.529297 
L 637.846824 146.301818 
L 641.827474 138.815666 
L 645.808123 143.279673 
L 657.750073 154.240688 
L 661.730723 151.833831 
L 665.711373 145.338076 
L 669.692023 138.400196 
L 673.672673 131.899484 
L 685.614622 130.718851 
L 689.595272 127.429955 
L 693.575922 142.112152 
L 697.556572 157.594343 
L 701.537222 154.35653 
L 713.479171 136.315953 
L 717.459821 130.620173 
L 721.440471 132.545191 
L 725.421121 138.087059 
L 729.401771 125.926826 
L 741.34372 122.801124 
L 745.32437 118.189515 
L 749.30502 125.485688 
L 753.28567 119.846917 
L 757.26632 113.441969 
L 769.208269 112.250985 
L 773.188919 122.168857 
L 777.169569 124.297246 
L 781.150219 111.868523 
L 785.130869 119.659532 
L 797.072819 108.002689 
L 801.053468 101.548634 
L 805.034118 114.839454 
L 809.014768 100.77516 
L 812.995418 95.370298 
L 824.937368 102.47744 
L 828.918018 99.389455 
L 832.898667 101.497791 
L 836.879317 100.239652 
L 840.859967 93.172747 
L 852.801917 104.831426 
L 856.782567 110.216124 
L 860.763217 115.177682 
L 864.743866 114.131628 
L 868.724516 121.916659 
L 880.666466 117.42337 
L 884.647116 120.139604 
L 888.627766 118.335797 
L 892.608415 142.3371 
L 896.589065 148.386231 
L 908.531015 149.448837 
L 912.511665 152.015802 
L 916.492315 145.08777 
L 920.472965 148.446064 
L 924.453614 157.339858 
L 936.395564 171.913296 
L 940.376214 176.416634 
L 944.356864 178.454828 
L 948.337514 171.016887 
L 952.318164 169.724635 
L 964.260113 167.028396 
L 968.240763 174.878636 
L 972.221413 168.035346 
L 976.202063 159.581708 
L 980.182713 168.110652 
L 992.124662 175.367191 
L 996.105312 175.536275 
L 1000.085962 173.386031 
L 1004.066612 175.690029 
L 1008.047262 176.268619 
L 1019.989211 170.694111 
L 1023.969861 180.113971 
L 1027.950511 183.593236 
L 1031.931161 168.205104 
L 1035.911811 166.194185 
L 1047.85376 166.393067 
L 1051.83441 181.833237 
L 1055.81506 177.306603 
L 1059.79571 180.925897 
L 1063.77636 193.294405 
L 1075.71831 196.178974 
L 1079.698959 197.86697 
L 1083.679609 191.611721 
L 1087.660259 188.169053 
L 1091.640909 188.169053 
L 1091.640909 188.169053 
" style="fill:none;stroke:#1f77b4;stroke-linecap:square;stroke-width:1.5;"/>
   </g>
   <g id="line2d_12">
    <path clip-path="url(#p3b8e2ee9ea)" d="M 100.459091 168.497268 
L 104.439741 173.241714 
L 108.420391 166.243854 
L 112.401041 177.676518 
L 116.38169 167.527117 
L 128.32364 168.517942 
L 132.30429 178.628485 
L 136.28494 169.132031 
L 140.26559 173.104245 
L 144.24624 171.382752 
L 156.188189 170.72527 
L 160.168839 162.527032 
L 164.149489 158.409313 
L 168.130139 169.111824 
L 172.110789 172.874668 
L 184.052738 180.35261 
L 188.033388 181.294398 
L 192.014038 187.400831 
L 195.994688 185.610788 
L 199.975338 179.213778 
L 211.917287 180.676405 
L 215.897937 174.180456 
L 219.878587 169.615017 
L 223.859237 170.004828 
L 227.839887 167.188339 
L 239.781836 165.031021 
L 243.762486 167.689406 
L 247.743136 155.164846 
L 255.704436 171.55148 
L 267.646386 170.470399 
L 271.627035 174.085853 
L 275.607685 181.674361 
L 279.588335 188.226418 
L 283.568985 179.267399 
L 295.510935 175.953898 
L 299.491585 176.549594 
L 303.472234 166.751881 
L 307.452884 166.423481 
L 311.433534 168.354473 
L 323.375484 167.74589 
L 327.356134 175.241477 
L 331.336783 175.778452 
L 335.317433 169.769305 
L 339.298083 172.647461 
L 351.240033 177.627249 
L 355.220683 170.785011 
L 359.201333 163.073706 
L 363.181982 156.249194 
L 367.162632 149.000278 
L 379.104582 157.664346 
L 383.085232 170.29823 
L 387.065882 169.503002 
L 391.046532 156.0587 
L 395.027181 154.34477 
L 406.969131 137.434688 
L 410.949781 145.633584 
L 414.930431 148.152945 
L 418.911081 150.196863 
L 422.891731 136.272847 
L 434.83368 135.636584 
L 438.81433 134.665823 
L 442.79498 135.025626 
L 446.77563 131.218509 
L 450.75628 129.760105 
L 462.698229 126.440565 
L 466.678879 123.308571 
L 470.659529 130.594734 
L 474.640179 123.502869 
L 478.620829 119.255498 
L 490.562778 118.258776 
L 494.543428 126.848625 
L 498.524078 129.018112 
L 502.504728 123.327948 
L 506.485378 129.332891 
L 518.427327 120.712131 
L 522.407977 118.697974 
L 526.388627 129.099591 
L 530.369277 117.912969 
L 534.349927 113.947948 
L 546.291877 122.135984 
L 550.272526 118.712564 
L 554.253176 131.386175 
L 558.233826 132.810783 
L 562.214476 125.637508 
L 574.156426 130.830118 
L 578.137076 130.858611 
L 582.117725 129.929349 
L 586.098375 131.944654 
L 590.079025 128.831465 
L 602.020975 124.00056 
L 606.001625 118.606996 
L 609.982275 117.095563 
L 613.962924 127.529712 
L 617.943574 126.983418 
L 629.885524 131.935236 
L 633.866174 135.175018 
L 637.846824 144.969813 
L 645.808123 140.203666 
L 657.750073 132.105263 
L 661.730723 132.897598 
L 665.711373 125.983579 
L 669.692023 118.359651 
L 673.672673 113.554251 
L 685.614622 108.73423 
L 689.595272 113.644169 
L 693.575922 116.768851 
L 697.556572 114.633183 
L 701.537222 113.52932 
L 713.479171 115.348928 
L 717.459821 115.366127 
L 721.440471 112.898271 
L 725.421121 109.380703 
L 729.401771 108.334949 
L 741.34372 110.724425 
L 745.32437 108.996048 
L 749.30502 109.364246 
L 753.28567 108.824388 
L 757.26632 107.81571 
L 769.208269 106.604463 
L 773.188919 102.055873 
L 777.169569 94.78553 
L 781.150219 98.592013 
L 785.130869 99.563879 
L 797.072819 93.832607 
L 801.053468 96.470985 
L 805.034118 97.975962 
L 809.014768 90.352008 
L 812.995418 84.084998 
L 824.937368 94.780385 
L 828.918018 100.073372 
L 832.898667 102.12586 
L 836.879317 95.085713 
L 840.859967 98.700763 
L 852.801917 102.314531 
L 856.782567 101.664188 
L 860.763217 104.659281 
L 864.743866 101.893877 
L 868.724516 110.848053 
L 880.666466 106.285441 
L 884.647116 108.088705 
L 888.627766 106.078551 
L 892.608415 101.086028 
L 896.589065 100.148482 
L 908.531015 85.248887 
L 912.511665 75.512617 
L 916.492315 80.685301 
L 920.472965 84.119358 
L 924.453614 74.486029 
L 936.395564 70.47519 
L 940.376214 61.090296 
L 948.337514 73.393936 
L 952.318164 71.370353 
L 964.260113 68.696682 
L 968.240763 69.101808 
L 972.221413 78.625961 
L 976.202063 79.579856 
L 980.182713 78.059107 
L 992.124662 74.570699 
L 996.105312 63.09606 
L 1000.085962 72.735026 
L 1004.066612 75.538396 
L 1008.047262 64.80078 
L 1019.989211 69.828844 
L 1023.969861 66.68368 
L 1027.950511 61.713979 
L 1031.931161 67.077765 
L 1035.911811 59.450654 
L 1047.85376 52.416271 
L 1051.83441 54.052921 
L 1055.81506 56.855805 
L 1059.79571 55.043262 
L 1063.77636 58.773232 
L 1075.71831 57.637112 
L 1079.698959 48.799818 
L 1083.679609 40.961522 
L 1087.660259 40.455455 
L 1087.660259 40.455455 
" style="fill:none;stroke:#ff7f0e;stroke-linecap:square;stroke-width:1.5;"/>
   </g>
   <g id="line2d_13">
    <path clip-path="url(#p3b8e2ee9ea)" d="M 100.459091 141.583821 
L 104.439741 149.68365 
L 108.420391 154.890409 
L 112.401041 132.994444 
L 116.38169 138.793785 
L 128.32364 129.873712 
L 132.30429 127.908453 
L 136.28494 138.182071 
L 140.26559 132.750033 
L 144.24624 128.083667 
L 156.188189 117.014695 
L 160.168839 122.264939 
L 164.149489 118.523397 
L 168.130139 116.330261 
L 172.110789 115.662358 
L 184.052738 112.898226 
L 188.033388 100.137067 
L 192.014038 98.478069 
L 195.994688 101.655112 
L 199.975338 98.935091 
L 211.917287 108.870766 
L 215.897937 113.700967 
L 219.878587 122.988279 
L 223.859237 133.497013 
L 227.839887 130.541361 
L 239.781836 131.370936 
L 243.762486 113.97538 
L 247.743136 130.295832 
L 251.723786 117.053317 
L 255.704436 113.304592 
L 267.646386 116.886624 
L 271.627035 107.286093 
L 275.607685 91.984614 
L 279.588335 80.831446 
L 283.568985 93.183643 
L 295.510935 88.031318 
L 299.491585 80.137481 
L 303.472234 99.722863 
L 307.452884 95.390084 
L 311.433534 99.942601 
L 323.375484 102.690922 
L 327.356134 96.474381 
L 331.336783 99.958141 
L 335.317433 107.131241 
L 339.298083 113.339583 
L 351.240033 114.665919 
L 355.220683 117.64726 
L 359.201333 131.891559 
L 363.181982 142.893116 
L 367.162632 136.072383 
L 379.104582 125.961956 
L 383.085232 117.869082 
L 387.065882 123.458385 
L 391.046532 138.718664 
L 395.027181 150.936397 
L 406.969131 171.610048 
L 410.949781 173.973004 
L 414.930431 177.643559 
L 418.911081 165.506347 
L 422.891731 192.592322 
L 434.83368 186.247436 
L 438.81433 175.510924 
L 442.79498 161.818541 
L 446.77563 158.809421 
L 450.75628 170.511976 
L 462.698229 175.244181 
L 466.678879 180.532974 
L 470.659529 164.781386 
L 474.640179 173.015635 
L 478.620829 170.214451 
L 490.562778 180.605935 
L 494.543428 168.345248 
L 498.524078 164.107245 
L 502.504728 175.368907 
L 506.485378 157.986696 
L 518.427327 166.74938 
L 522.407977 171.613592 
L 526.388627 157.978983 
L 530.369277 175.531247 
L 534.349927 185.474985 
L 546.291877 179.308117 
L 550.272526 184.06991 
L 554.253176 165.622878 
L 558.233826 176.598097 
L 562.214476 185.28298 
L 574.156426 173.30016 
L 578.137076 179.336719 
L 582.117725 189.78204 
L 586.098375 191.879484 
L 590.079025 197.841762 
L 602.020975 198.079695 
L 606.001625 188.53665 
L 609.982275 179.657111 
L 613.962924 176.213672 
L 617.943574 175.459485 
L 629.885524 163.130864 
L 633.866174 174.531941 
L 637.846824 173.540351 
L 641.827474 168.38517 
L 645.808123 175.298758 
L 657.750073 194.860441 
L 661.730723 191.6691 
L 665.711373 192.096478 
L 669.692023 192.799039 
L 673.672673 191.078217 
L 685.614622 194.773002 
L 689.595272 186.697105 
L 693.575922 198.140606 
L 697.556572 215.87942 
L 701.537222 213.738141 
L 713.479171 193.986866 
L 717.459821 188.27419 
L 721.440471 192.701212 
L 725.421121 201.861939 
L 729.401771 190.711804 
L 741.34372 185.237193 
L 745.32437 182.338461 
L 749.30502 189.258404 
L 753.28567 184.150974 
L 757.26632 178.737859 
L 769.208269 178.758198 
L 773.188919 193.43597 
L 777.169569 203.053331 
L 781.150219 187.00486 
L 785.130869 193.803163 
L 797.072819 187.771807 
L 801.053468 178.752787 
L 805.034118 190.482466 
L 809.014768 183.888864 
L 812.995418 184.768037 
L 824.937368 181.296781 
L 828.918018 173.051166 
L 832.898667 173.106659 
L 836.879317 179.018108 
L 840.859967 168.453864 
L 852.801917 176.407562 
L 856.782567 182.454962 
L 860.763217 184.403103 
L 864.743866 186.137375 
L 868.724516 185.000345 
L 880.666466 185.070661 
L 884.647116 185.978507 
L 888.627766 186.186151 
L 892.608415 215.656111 
L 896.589065 222.663454 
L 908.531015 239.404396 
L 912.511665 252.094231 
L 916.492315 240.18346 
L 920.472965 240.108503 
L 924.453614 259.217382 
L 936.395564 278.042388 
L 940.376214 292.352113 
L 944.356864 288.391972 
L 948.337514 274.981303 
L 952.318164 275.717265 
L 964.260113 275.694509 
L 968.240763 283.13012 
L 972.221413 267.229654 
L 976.202063 257.84964 
L 980.182713 267.947831 
L 992.124662 278.812231 
L 996.105312 290.887915 
L 1000.085962 279.441409 
L 1004.066612 278.946377 
L 1008.047262 290.654751 
L 1019.989211 280.21436 
L 1023.969861 292.905619 
L 1027.950511 301.48823 
L 1031.931161 281.069581 
L 1035.911811 286.822074 
L 1047.85376 294.217512 
L 1051.83441 307.949286 
L 1055.81506 300.682792 
L 1059.79571 306.145661 
L 1063.77636 314.683029 
L 1075.71831 318.718068 
L 1079.698959 329.542256 
L 1083.679609 331.164545 
L 1087.660259 328.223332 
L 1087.660259 328.223332 
" style="fill:none;stroke:#2ca02c;stroke-linecap:square;stroke-width:1.5;"/>
   </g>
   <g id="patch_3">
    <path d="M 50.9 345.7 
L 50.9 25.92 
" style="fill:none;stroke:#000000;stroke-linecap:square;stroke-linejoin:miter;stroke-width:0.8;"/>
   </g>
   <g id="patch_4">
    <path d="M 1141.2 345.7 
L 1141.2 25.92 
" style="fill:none;stroke:#000000;stroke-linecap:square;stroke-linejoin:miter;stroke-width:0.8;"/>
   </g>
   <g id="patch_5">
    <path d="M 50.9 345.7 
L 1141.2 345.7 
" style="fill:none;stroke:#000000;stroke-linecap:square;stroke-linejoin:miter;stroke-width:0.8;"/>
   </g>
   <g id="patch_6">
    <path d="M 50.9 25.92 
L 1141.2 25.92 
" style="fill:none;stroke:#000000;stroke-linecap:square;stroke-linejoin:miter;stroke-width:0.8;"/>
   </g>
   <g id="text_7">
    <!-- Cumulative Log Return: (2010-02-01 ~ 2010-10-08) -->
    <g transform="translate(440.172812 19.92)scale(0.12 -0.12)">
     <defs>
      <path d="M 64.40625 67.28125 
L 64.40625 56.890625 
Q 59.421875 61.53125 53.78125 63.8125 
Q 48.140625 66.109375 41.796875 66.109375 
Q 29.296875 66.109375 22.65625 58.46875 
Q 16.015625 50.828125 16.015625 36.375 
Q 16.015625 21.96875 22.65625 14.328125 
Q 29.296875 6.6875 41.796875 6.6875 
Q 48.140625 6.6875 53.78125 8.984375 
Q 59.421875 11.28125 64.40625 15.921875 
L 64.40625 5.609375 
Q 59.234375 2.09375 53.4375 0.328125 
Q 47.65625 -1.421875 41.21875 -1.421875 
Q 24.65625 -1.421875 15.125 8.703125 
Q 5.609375 18.84375 5.609375 36.375 
Q 5.609375 53.953125 15.125 64.078125 
Q 24.65625 74.21875 41.21875 74.21875 
Q 47.75 74.21875 53.53125 72.484375 
Q 59.328125 70.75 64.40625 67.28125 
z
" id="DejaVuSans-67"/>
      <path d="M 34.28125 27.484375 
Q 23.390625 27.484375 19.1875 25 
Q 14.984375 22.515625 14.984375 16.5 
Q 14.984375 11.71875 18.140625 8.90625 
Q 21.296875 6.109375 26.703125 6.109375 
Q 34.1875 6.109375 38.703125 11.40625 
Q 43.21875 16.703125 43.21875 25.484375 
L 43.21875 27.484375 
z
M 52.203125 31.203125 
L 52.203125 0 
L 43.21875 0 
L 43.21875 8.296875 
Q 40.140625 3.328125 35.546875 0.953125 
Q 30.953125 -1.421875 24.3125 -1.421875 
Q 15.921875 -1.421875 10.953125 3.296875 
Q 6 8.015625 6 15.921875 
Q 6 25.140625 12.171875 29.828125 
Q 18.359375 34.515625 30.609375 34.515625 
L 43.21875 34.515625 
L 43.21875 35.40625 
Q 43.21875 41.609375 39.140625 45 
Q 35.0625 48.390625 27.6875 48.390625 
Q 23 48.390625 18.546875 47.265625 
Q 14.109375 46.140625 10.015625 43.890625 
L 10.015625 52.203125 
Q 14.9375 54.109375 19.578125 55.046875 
Q 24.21875 56 28.609375 56 
Q 40.484375 56 46.34375 49.84375 
Q 52.203125 43.703125 52.203125 31.203125 
z
" id="DejaVuSans-97"/>
      <path d="M 9.421875 54.6875 
L 18.40625 54.6875 
L 18.40625 0 
L 9.421875 0 
z
M 9.421875 75.984375 
L 18.40625 75.984375 
L 18.40625 64.59375 
L 9.421875 64.59375 
z
" id="DejaVuSans-105"/>
      <path d="M 2.984375 54.6875 
L 12.5 54.6875 
L 29.59375 8.796875 
L 46.6875 54.6875 
L 56.203125 54.6875 
L 35.6875 0 
L 23.484375 0 
z
" id="DejaVuSans-118"/>
      <path d="M 9.8125 72.90625 
L 19.671875 72.90625 
L 19.671875 8.296875 
L 55.171875 8.296875 
L 55.171875 0 
L 9.8125 0 
z
" id="DejaVuSans-76"/>
      <path d="M 44.390625 34.1875 
Q 47.5625 33.109375 50.5625 29.59375 
Q 53.5625 26.078125 56.59375 19.921875 
L 66.609375 0 
L 56 0 
L 46.6875 18.703125 
Q 43.0625 26.03125 39.671875 28.421875 
Q 36.28125 30.8125 30.421875 30.8125 
L 19.671875 30.8125 
L 19.671875 0 
L 9.8125 0 
L 9.8125 72.90625 
L 32.078125 72.90625 
Q 44.578125 72.90625 50.734375 67.671875 
Q 56.890625 62.453125 56.890625 51.90625 
Q 56.890625 45.015625 53.6875 40.46875 
Q 50.484375 35.9375 44.390625 34.1875 
z
M 19.671875 64.796875 
L 19.671875 38.921875 
L 32.078125 38.921875 
Q 39.203125 38.921875 42.84375 42.21875 
Q 46.484375 45.515625 46.484375 51.90625 
Q 46.484375 58.296875 42.84375 61.546875 
Q 39.203125 64.796875 32.078125 64.796875 
z
" id="DejaVuSans-82"/>
      <path d="M 11.71875 12.40625 
L 22.015625 12.40625 
L 22.015625 0 
L 11.71875 0 
z
M 11.71875 51.703125 
L 22.015625 51.703125 
L 22.015625 39.3125 
L 11.71875 39.3125 
z
" id="DejaVuSans-58"/>
      <path d="M 31 75.875 
Q 24.46875 64.65625 21.28125 53.65625 
Q 18.109375 42.671875 18.109375 31.390625 
Q 18.109375 20.125 21.3125 9.0625 
Q 24.515625 -2 31 -13.1875 
L 23.1875 -13.1875 
Q 15.875 -1.703125 12.234375 9.375 
Q 8.59375 20.453125 8.59375 31.390625 
Q 8.59375 42.28125 12.203125 53.3125 
Q 15.828125 64.359375 23.1875 75.875 
z
" id="DejaVuSans-40"/>
      <path d="M 12.40625 8.296875 
L 28.515625 8.296875 
L 28.515625 63.921875 
L 10.984375 60.40625 
L 10.984375 69.390625 
L 28.421875 72.90625 
L 38.28125 72.90625 
L 38.28125 8.296875 
L 54.390625 8.296875 
L 54.390625 0 
L 12.40625 0 
z
" id="DejaVuSans-49"/>
      <path d="M 73.1875 39.890625 
L 73.1875 31.203125 
Q 68.0625 27.34375 63.6875 25.6875 
Q 59.328125 24.03125 54.59375 24.03125 
Q 49.21875 24.03125 42.09375 26.90625 
Q 41.546875 27.09375 41.3125 27.203125 
Q 40.96875 27.34375 40.234375 27.59375 
Q 32.671875 30.609375 28.078125 30.609375 
Q 23.78125 30.609375 19.578125 28.734375 
Q 15.375 26.859375 10.59375 22.796875 
L 10.59375 31.5 
Q 15.71875 35.359375 20.09375 37.03125 
Q 24.46875 38.71875 29.203125 38.71875 
Q 34.578125 38.71875 41.75 35.796875 
Q 42.234375 35.59375 42.484375 35.5 
Q 42.875 35.359375 43.5625 35.109375 
Q 51.125 32.078125 55.71875 32.078125 
Q 59.90625 32.078125 64.03125 33.9375 
Q 68.171875 35.796875 73.1875 39.890625 
z
" id="DejaVuSans-126"/>
      <path d="M 31.78125 34.625 
Q 24.75 34.625 20.71875 30.859375 
Q 16.703125 27.09375 16.703125 20.515625 
Q 16.703125 13.921875 20.71875 10.15625 
Q 24.75 6.390625 31.78125 6.390625 
Q 38.8125 6.390625 42.859375 10.171875 
Q 46.921875 13.96875 46.921875 20.515625 
Q 46.921875 27.09375 42.890625 30.859375 
Q 38.875 34.625 31.78125 34.625 
z
M 21.921875 38.8125 
Q 15.578125 40.375 12.03125 44.71875 
Q 8.5 49.078125 8.5 55.328125 
Q 8.5 64.0625 14.71875 69.140625 
Q 20.953125 74.21875 31.78125 74.21875 
Q 42.671875 74.21875 48.875 69.140625 
Q 55.078125 64.0625 55.078125 55.328125 
Q 55.078125 49.078125 51.53125 44.71875 
Q 48 40.375 41.703125 38.8125 
Q 48.828125 37.15625 52.796875 32.3125 
Q 56.78125 27.484375 56.78125 20.515625 
Q 56.78125 9.90625 50.3125 4.234375 
Q 43.84375 -1.421875 31.78125 -1.421875 
Q 19.734375 -1.421875 13.25 4.234375 
Q 6.78125 9.90625 6.78125 20.515625 
Q 6.78125 27.484375 10.78125 32.3125 
Q 14.796875 37.15625 21.921875 38.8125 
z
M 18.3125 54.390625 
Q 18.3125 48.734375 21.84375 45.5625 
Q 25.390625 42.390625 31.78125 42.390625 
Q 38.140625 42.390625 41.71875 45.5625 
Q 45.3125 48.734375 45.3125 54.390625 
Q 45.3125 60.0625 41.71875 63.234375 
Q 38.140625 66.40625 31.78125 66.40625 
Q 25.390625 66.40625 21.84375 63.234375 
Q 18.3125 60.0625 18.3125 54.390625 
z
" id="DejaVuSans-56"/>
      <path d="M 8.015625 75.875 
L 15.828125 75.875 
Q 23.140625 64.359375 26.78125 53.3125 
Q 30.421875 42.28125 30.421875 31.390625 
Q 30.421875 20.453125 26.78125 9.375 
Q 23.140625 -1.703125 15.828125 -13.1875 
L 8.015625 -13.1875 
Q 14.5 -2 17.703125 9.0625 
Q 20.90625 20.125 20.90625 31.390625 
Q 20.90625 42.671875 17.703125 53.65625 
Q 14.5 64.65625 8.015625 75.875 
z
" id="DejaVuSans-41"/>
     </defs>
     <use xlink:href="#DejaVuSans-67"/>
     <use x="69.824219" xlink:href="#DejaVuSans-117"/>
     <use x="133.203125" xlink:href="#DejaVuSans-109"/>
     <use x="230.615234" xlink:href="#DejaVuSans-117"/>
     <use x="293.994141" xlink:href="#DejaVuSans-108"/>
     <use x="321.777344" xlink:href="#DejaVuSans-97"/>
     <use x="383.056641" xlink:href="#DejaVuSans-116"/>
     <use x="422.265625" xlink:href="#DejaVuSans-105"/>
     <use x="450.048828" xlink:href="#DejaVuSans-118"/>
     <use x="509.228516" xlink:href="#DejaVuSans-101"/>
     <use x="570.751953" xlink:href="#DejaVuSans-32"/>
     <use x="602.539062" xlink:href="#DejaVuSans-76"/>
     <use x="656.501953" xlink:href="#DejaVuSans-111"/>
     <use x="717.683594" xlink:href="#DejaVuSans-103"/>
     <use x="781.160156" xlink:href="#DejaVuSans-32"/>
     <use x="812.947266" xlink:href="#DejaVuSans-82"/>
     <use x="877.929688" xlink:href="#DejaVuSans-101"/>
     <use x="939.453125" xlink:href="#DejaVuSans-116"/>
     <use x="978.662109" xlink:href="#DejaVuSans-117"/>
     <use x="1042.041016" xlink:href="#DejaVuSans-114"/>
     <use x="1081.404297" xlink:href="#DejaVuSans-110"/>
     <use x="1144.783203" xlink:href="#DejaVuSans-58"/>
     <use x="1178.474609" xlink:href="#DejaVuSans-32"/>
     <use x="1210.261719" xlink:href="#DejaVuSans-40"/>
     <use x="1249.275391" xlink:href="#DejaVuSans-50"/>
     <use x="1312.898438" xlink:href="#DejaVuSans-48"/>
     <use x="1376.521484" xlink:href="#DejaVuSans-49"/>
     <use x="1440.144531" xlink:href="#DejaVuSans-48"/>
     <use x="1503.767578" xlink:href="#DejaVuSans-45"/>
     <use x="1539.851562" xlink:href="#DejaVuSans-48"/>
     <use x="1603.474609" xlink:href="#DejaVuSans-50"/>
     <use x="1667.097656" xlink:href="#DejaVuSans-45"/>
     <use x="1703.181641" xlink:href="#DejaVuSans-48"/>
     <use x="1766.804688" xlink:href="#DejaVuSans-49"/>
     <use x="1830.427734" xlink:href="#DejaVuSans-32"/>
     <use x="1862.214844" xlink:href="#DejaVuSans-126"/>
     <use x="1946.003906" xlink:href="#DejaVuSans-32"/>
     <use x="1977.791016" xlink:href="#DejaVuSans-50"/>
     <use x="2041.414062" xlink:href="#DejaVuSans-48"/>
     <use x="2105.037109" xlink:href="#DejaVuSans-49"/>
     <use x="2168.660156" xlink:href="#DejaVuSans-48"/>
     <use x="2232.283203" xlink:href="#DejaVuSans-45"/>
     <use x="2268.367188" xlink:href="#DejaVuSans-49"/>
     <use x="2331.990234" xlink:href="#DejaVuSans-48"/>
     <use x="2395.613281" xlink:href="#DejaVuSans-45"/>
     <use x="2431.697266" xlink:href="#DejaVuSans-48"/>
     <use x="2495.320312" xlink:href="#DejaVuSans-56"/>
     <use x="2558.943359" xlink:href="#DejaVuSans-41"/>
    </g>
   </g>
   <g id="legend_1">
    <g id="patch_7">
     <path d="M 57.9 78.2325 
L 170.414062 78.2325 
Q 172.414062 78.2325 172.414062 76.2325 
L 172.414062 32.92 
Q 172.414062 30.92 170.414062 30.92 
L 57.9 30.92 
Q 55.9 30.92 55.9 32.92 
L 55.9 76.2325 
Q 55.9 78.2325 57.9 78.2325 
z
" style="fill:#ffffff;opacity:0.8;stroke:#cccccc;stroke-linejoin:miter;"/>
    </g>
    <g id="line2d_14">
     <path d="M 59.9 39.018437 
L 79.9 39.018437 
" style="fill:none;stroke:#1f77b4;stroke-linecap:square;stroke-width:1.5;"/>
    </g>
    <g id="line2d_15"/>
    <g id="text_8">
     <!-- factor_weighted -->
     <g transform="translate(87.9 42.518437)scale(0.1 -0.1)">
      <defs>
       <path d="M 37.109375 75.984375 
L 37.109375 68.5 
L 28.515625 68.5 
Q 23.6875 68.5 21.796875 66.546875 
Q 19.921875 64.59375 19.921875 59.515625 
L 19.921875 54.6875 
L 34.71875 54.6875 
L 34.71875 47.703125 
L 19.921875 47.703125 
L 19.921875 0 
L 10.890625 0 
L 10.890625 47.703125 
L 2.296875 47.703125 
L 2.296875 54.6875 
L 10.890625 54.6875 
L 10.890625 58.5 
Q 10.890625 67.625 15.140625 71.796875 
Q 19.390625 75.984375 28.609375 75.984375 
z
" id="DejaVuSans-102"/>
       <path d="M 50.984375 -16.609375 
L 50.984375 -23.578125 
L -0.984375 -23.578125 
L -0.984375 -16.609375 
z
" id="DejaVuSans-95"/>
       <path d="M 4.203125 54.6875 
L 13.1875 54.6875 
L 24.421875 12.015625 
L 35.59375 54.6875 
L 46.1875 54.6875 
L 57.421875 12.015625 
L 68.609375 54.6875 
L 77.59375 54.6875 
L 63.28125 0 
L 52.6875 0 
L 40.921875 44.828125 
L 29.109375 0 
L 18.5 0 
z
" id="DejaVuSans-119"/>
       <path d="M 54.890625 33.015625 
L 54.890625 0 
L 45.90625 0 
L 45.90625 32.71875 
Q 45.90625 40.484375 42.875 44.328125 
Q 39.84375 48.1875 33.796875 48.1875 
Q 26.515625 48.1875 22.3125 43.546875 
Q 18.109375 38.921875 18.109375 30.90625 
L 18.109375 0 
L 9.078125 0 
L 9.078125 75.984375 
L 18.109375 75.984375 
L 18.109375 46.1875 
Q 21.34375 51.125 25.703125 53.5625 
Q 30.078125 56 35.796875 56 
Q 45.21875 56 50.046875 50.171875 
Q 54.890625 44.34375 54.890625 33.015625 
z
" id="DejaVuSans-104"/>
       <path d="M 45.40625 46.390625 
L 45.40625 75.984375 
L 54.390625 75.984375 
L 54.390625 0 
L 45.40625 0 
L 45.40625 8.203125 
Q 42.578125 3.328125 38.25 0.953125 
Q 33.9375 -1.421875 27.875 -1.421875 
Q 17.96875 -1.421875 11.734375 6.484375 
Q 5.515625 14.40625 5.515625 27.296875 
Q 5.515625 40.1875 11.734375 48.09375 
Q 17.96875 56 27.875 56 
Q 33.9375 56 38.25 53.625 
Q 42.578125 51.265625 45.40625 46.390625 
z
M 14.796875 27.296875 
Q 14.796875 17.390625 18.875 11.75 
Q 22.953125 6.109375 30.078125 6.109375 
Q 37.203125 6.109375 41.296875 11.75 
Q 45.40625 17.390625 45.40625 27.296875 
Q 45.40625 37.203125 41.296875 42.84375 
Q 37.203125 48.484375 30.078125 48.484375 
Q 22.953125 48.484375 18.875 42.84375 
Q 14.796875 37.203125 14.796875 27.296875 
z
" id="DejaVuSans-100"/>
      </defs>
      <use xlink:href="#DejaVuSans-102"/>
      <use x="35.205078" xlink:href="#DejaVuSans-97"/>
      <use x="96.484375" xlink:href="#DejaVuSans-99"/>
      <use x="151.464844" xlink:href="#DejaVuSans-116"/>
      <use x="190.673828" xlink:href="#DejaVuSans-111"/>
      <use x="251.855469" xlink:href="#DejaVuSans-114"/>
      <use x="292.96875" xlink:href="#DejaVuSans-95"/>
      <use x="342.96875" xlink:href="#DejaVuSans-119"/>
      <use x="424.755859" xlink:href="#DejaVuSans-101"/>
      <use x="486.279297" xlink:href="#DejaVuSans-105"/>
      <use x="514.0625" xlink:href="#DejaVuSans-103"/>
      <use x="577.539062" xlink:href="#DejaVuSans-104"/>
      <use x="640.917969" xlink:href="#DejaVuSans-116"/>
      <use x="680.126953" xlink:href="#DejaVuSans-101"/>
      <use x="741.650391" xlink:href="#DejaVuSans-100"/>
     </g>
    </g>
    <g id="line2d_16">
     <path d="M 59.9 53.974687 
L 79.9 53.974687 
" style="fill:none;stroke:#ff7f0e;stroke-linecap:square;stroke-width:1.5;"/>
    </g>
    <g id="line2d_17"/>
    <g id="text_9">
     <!-- benchmark -->
     <g transform="translate(87.9 57.474687)scale(0.1 -0.1)">
      <defs>
       <path d="M 48.6875 27.296875 
Q 48.6875 37.203125 44.609375 42.84375 
Q 40.53125 48.484375 33.40625 48.484375 
Q 26.265625 48.484375 22.1875 42.84375 
Q 18.109375 37.203125 18.109375 27.296875 
Q 18.109375 17.390625 22.1875 11.75 
Q 26.265625 6.109375 33.40625 6.109375 
Q 40.53125 6.109375 44.609375 11.75 
Q 48.6875 17.390625 48.6875 27.296875 
z
M 18.109375 46.390625 
Q 20.953125 51.265625 25.265625 53.625 
Q 29.59375 56 35.59375 56 
Q 45.5625 56 51.78125 48.09375 
Q 58.015625 40.1875 58.015625 27.296875 
Q 58.015625 14.40625 51.78125 6.484375 
Q 45.5625 -1.421875 35.59375 -1.421875 
Q 29.59375 -1.421875 25.265625 0.953125 
Q 20.953125 3.328125 18.109375 8.203125 
L 18.109375 0 
L 9.078125 0 
L 9.078125 75.984375 
L 18.109375 75.984375 
z
" id="DejaVuSans-98"/>
       <path d="M 9.078125 75.984375 
L 18.109375 75.984375 
L 18.109375 31.109375 
L 44.921875 54.6875 
L 56.390625 54.6875 
L 27.390625 29.109375 
L 57.625 0 
L 45.90625 0 
L 18.109375 26.703125 
L 18.109375 0 
L 9.078125 0 
z
" id="DejaVuSans-107"/>
      </defs>
      <use xlink:href="#DejaVuSans-98"/>
      <use x="63.476562" xlink:href="#DejaVuSans-101"/>
      <use x="125" xlink:href="#DejaVuSans-110"/>
      <use x="188.378906" xlink:href="#DejaVuSans-99"/>
      <use x="243.359375" xlink:href="#DejaVuSans-104"/>
      <use x="306.738281" xlink:href="#DejaVuSans-109"/>
      <use x="404.150391" xlink:href="#DejaVuSans-97"/>
      <use x="465.429688" xlink:href="#DejaVuSans-114"/>
      <use x="506.542969" xlink:href="#DejaVuSans-107"/>
     </g>
    </g>
    <g id="line2d_18">
     <path d="M 59.9 68.652812 
L 79.9 68.652812 
" style="fill:none;stroke:#2ca02c;stroke-linecap:square;stroke-width:1.5;"/>
    </g>
    <g id="line2d_19"/>
    <g id="text_10">
     <!-- excess -->
     <g transform="translate(87.9 72.152812)scale(0.1 -0.1)">
      <defs>
       <path d="M 54.890625 54.6875 
L 35.109375 28.078125 
L 55.90625 0 
L 45.3125 0 
L 29.390625 21.484375 
L 13.484375 0 
L 2.875 0 
L 24.125 28.609375 
L 4.6875 54.6875 
L 15.28125 54.6875 
L 29.78125 35.203125 
L 44.28125 54.6875 
z
" id="DejaVuSans-120"/>
      </defs>
      <use xlink:href="#DejaVuSans-101"/>
      <use x="59.773438" xlink:href="#DejaVuSans-120"/>
      <use x="117.203125" xlink:href="#DejaVuSans-99"/>
      <use x="172.183594" xlink:href="#DejaVuSans-101"/>
      <use x="233.707031" xlink:href="#DejaVuSans-115"/>
      <use x="285.806641" xlink:href="#DejaVuSans-115"/>
     </g>
    </g>
   </g>
  </g>
 </g>
 <defs>
  <clipPath id="p3b8e2ee9ea">
   <rect height="319.78" width="1090.3" x="50.9" y="25.92"/>
  </clipPath>
 </defs>
</svg>
