<?xml version="1.0" encoding="utf-8" standalone="no"?>
<!DOCTYPE svg PUBLIC "-//W3C//DTD SVG 1.1//EN"
  "http://www.w3.org/Graphics/SVG/1.1/DTD/svg11.dtd">
<!-- Created with matplotlib (https://matplotlib.org/) -->
<svg height="360pt" version="1.1" viewBox="0 0 1152 360" width="1152pt" xmlns="http://www.w3.org/2000/svg" xmlns:xlink="http://www.w3.org/1999/xlink">
 <metadata>
  <rdf:RDF xmlns:cc="http://creativecommons.org/ns#" xmlns:dc="http://purl.org/dc/elements/1.1/" xmlns:rdf="http://www.w3.org/1999/02/22-rdf-syntax-ns#">
   <cc:Work>
    <dc:type rdf:resource="http://purl.org/dc/dcmitype/StillImage"/>
    <dc:date>2023-10-11T16:37:16.614395</dc:date>
    <dc:format>image/svg+xml</dc:format>
    <dc:creator>
     <cc:Agent>
      <dc:title>Matplotlib v3.3.4, https://matplotlib.org/</dc:title>
     </cc:Agent>
    </dc:creator>
   </cc:Work>
  </rdf:RDF>
 </metadata>
 <defs>
  <style type="text/css">*{stroke-linecap:butt;stroke-linejoin:round;}</style>
 </defs>
 <g id="figure_1">
  <g id="patch_1">
   <path d="M 0 360 
L 1152 360 
L 1152 0 
L 0 0 
z
" style="fill:#ffffff;"/>
  </g>
  <g id="axes_1">
   <g id="patch_2">
    <path d="M 57.26 345.7 
L 1141.2 345.7 
L 1141.2 25.92 
L 57.26 25.92 
z
" style="fill:#ffffff;"/>
   </g>
   <g id="matplotlib.axis_1"/>
   <g id="matplotlib.axis_2">
    <g id="ytick_1">
     <g id="line2d_1">
      <path clip-path="url(#p8012fed1cb)" d="M 57.26 317.711049 
L 1141.2 317.711049 
" style="fill:none;stroke:#b0b0b0;stroke-linecap:square;stroke-width:0.8;"/>
     </g>
     <g id="line2d_2">
      <defs>
       <path d="M 0 0 
L -3.5 0 
" id="mc671e8402e" style="stroke:#000000;stroke-width:0.8;"/>
      </defs>
      <g>
       <use style="stroke:#000000;stroke-width:0.8;" x="57.26" xlink:href="#mc671e8402e" y="317.711049"/>
      </g>
     </g>
     <g id="text_1">
      <!-- -0.75 -->
      <g transform="translate(24.386562 321.510268)scale(0.1 -0.1)">
       <defs>
        <path d="M 4.890625 31.390625 
L 31.203125 31.390625 
L 31.203125 23.390625 
L 4.890625 23.390625 
z
" id="DejaVuSans-45"/>
        <path d="M 31.78125 66.40625 
Q 24.171875 66.40625 20.328125 58.90625 
Q 16.5 51.421875 16.5 36.375 
Q 16.5 21.390625 20.328125 13.890625 
Q 24.171875 6.390625 31.78125 6.390625 
Q 39.453125 6.390625 43.28125 13.890625 
Q 47.125 21.390625 47.125 36.375 
Q 47.125 51.421875 43.28125 58.90625 
Q 39.453125 66.40625 31.78125 66.40625 
z
M 31.78125 74.21875 
Q 44.046875 74.21875 50.515625 64.515625 
Q 56.984375 54.828125 56.984375 36.375 
Q 56.984375 17.96875 50.515625 8.265625 
Q 44.046875 -1.421875 31.78125 -1.421875 
Q 19.53125 -1.421875 13.0625 8.265625 
Q 6.59375 17.96875 6.59375 36.375 
Q 6.59375 54.828125 13.0625 64.515625 
Q 19.53125 74.21875 31.78125 74.21875 
z
" id="DejaVuSans-48"/>
        <path d="M 10.6875 12.40625 
L 21 12.40625 
L 21 0 
L 10.6875 0 
z
" id="DejaVuSans-46"/>
        <path d="M 8.203125 72.90625 
L 55.078125 72.90625 
L 55.078125 68.703125 
L 28.609375 0 
L 18.3125 0 
L 43.21875 64.59375 
L 8.203125 64.59375 
z
" id="DejaVuSans-55"/>
        <path d="M 10.796875 72.90625 
L 49.515625 72.90625 
L 49.515625 64.59375 
L 19.828125 64.59375 
L 19.828125 46.734375 
Q 21.96875 47.46875 24.109375 47.828125 
Q 26.265625 48.1875 28.421875 48.1875 
Q 40.625 48.1875 47.75 41.5 
Q 54.890625 34.8125 54.890625 23.390625 
Q 54.890625 11.625 47.5625 5.09375 
Q 40.234375 -1.421875 26.90625 -1.421875 
Q 22.3125 -1.421875 17.546875 -0.640625 
Q 12.796875 0.140625 7.71875 1.703125 
L 7.71875 11.625 
Q 12.109375 9.234375 16.796875 8.0625 
Q 21.484375 6.890625 26.703125 6.890625 
Q 35.15625 6.890625 40.078125 11.328125 
Q 45.015625 15.765625 45.015625 23.390625 
Q 45.015625 31 40.078125 35.4375 
Q 35.15625 39.890625 26.703125 39.890625 
Q 22.75 39.890625 18.8125 39.015625 
Q 14.890625 38.140625 10.796875 36.28125 
z
" id="DejaVuSans-53"/>
       </defs>
       <use xlink:href="#DejaVuSans-45"/>
       <use x="36.083984" xlink:href="#DejaVuSans-48"/>
       <use x="99.707031" xlink:href="#DejaVuSans-46"/>
       <use x="131.494141" xlink:href="#DejaVuSans-55"/>
       <use x="195.117188" xlink:href="#DejaVuSans-53"/>
      </g>
     </g>
    </g>
    <g id="ytick_2">
     <g id="line2d_3">
      <path clip-path="url(#p8012fed1cb)" d="M 57.26 279.307252 
L 1141.2 279.307252 
" style="fill:none;stroke:#b0b0b0;stroke-linecap:square;stroke-width:0.8;"/>
     </g>
     <g id="line2d_4">
      <g>
       <use style="stroke:#000000;stroke-width:0.8;" x="57.26" xlink:href="#mc671e8402e" y="279.307252"/>
      </g>
     </g>
     <g id="text_2">
      <!-- -0.50 -->
      <g transform="translate(24.386562 283.106471)scale(0.1 -0.1)">
       <use xlink:href="#DejaVuSans-45"/>
       <use x="36.083984" xlink:href="#DejaVuSans-48"/>
       <use x="99.707031" xlink:href="#DejaVuSans-46"/>
       <use x="131.494141" xlink:href="#DejaVuSans-53"/>
       <use x="195.117188" xlink:href="#DejaVuSans-48"/>
      </g>
     </g>
    </g>
    <g id="ytick_3">
     <g id="line2d_5">
      <path clip-path="url(#p8012fed1cb)" d="M 57.26 240.903455 
L 1141.2 240.903455 
" style="fill:none;stroke:#b0b0b0;stroke-linecap:square;stroke-width:0.8;"/>
     </g>
     <g id="line2d_6">
      <g>
       <use style="stroke:#000000;stroke-width:0.8;" x="57.26" xlink:href="#mc671e8402e" y="240.903455"/>
      </g>
     </g>
     <g id="text_3">
      <!-- -0.25 -->
      <g transform="translate(24.386562 244.702673)scale(0.1 -0.1)">
       <defs>
        <path d="M 19.1875 8.296875 
L 53.609375 8.296875 
L 53.609375 0 
L 7.328125 0 
L 7.328125 8.296875 
Q 12.9375 14.109375 22.625 23.890625 
Q 32.328125 33.6875 34.8125 36.53125 
Q 39.546875 41.84375 41.421875 45.53125 
Q 43.3125 49.21875 43.3125 52.78125 
Q 43.3125 58.59375 39.234375 62.25 
Q 35.15625 65.921875 28.609375 65.921875 
Q 23.96875 65.921875 18.8125 64.3125 
Q 13.671875 62.703125 7.8125 59.421875 
L 7.8125 69.390625 
Q 13.765625 71.78125 18.9375 73 
Q 24.125 74.21875 28.421875 74.21875 
Q 39.75 74.21875 46.484375 68.546875 
Q 53.21875 62.890625 53.21875 53.421875 
Q 53.21875 48.921875 51.53125 44.890625 
Q 49.859375 40.875 45.40625 35.40625 
Q 44.1875 33.984375 37.640625 27.21875 
Q 31.109375 20.453125 19.1875 8.296875 
z
" id="DejaVuSans-50"/>
       </defs>
       <use xlink:href="#DejaVuSans-45"/>
       <use x="36.083984" xlink:href="#DejaVuSans-48"/>
       <use x="99.707031" xlink:href="#DejaVuSans-46"/>
       <use x="131.494141" xlink:href="#DejaVuSans-50"/>
       <use x="195.117188" xlink:href="#DejaVuSans-53"/>
      </g>
     </g>
    </g>
    <g id="ytick_4">
     <g id="line2d_7">
      <path clip-path="url(#p8012fed1cb)" d="M 57.26 202.499657 
L 1141.2 202.499657 
" style="fill:none;stroke:#b0b0b0;stroke-linecap:square;stroke-width:0.8;"/>
     </g>
     <g id="line2d_8">
      <g>
       <use style="stroke:#000000;stroke-width:0.8;" x="57.26" xlink:href="#mc671e8402e" y="202.499657"/>
      </g>
     </g>
     <g id="text_4">
      <!-- 0.00 -->
      <g transform="translate(27.994375 206.298876)scale(0.1 -0.1)">
       <use xlink:href="#DejaVuSans-48"/>
       <use x="63.623047" xlink:href="#DejaVuSans-46"/>
       <use x="95.410156" xlink:href="#DejaVuSans-48"/>
       <use x="159.033203" xlink:href="#DejaVuSans-48"/>
      </g>
     </g>
    </g>
    <g id="ytick_5">
     <g id="line2d_9">
      <path clip-path="url(#p8012fed1cb)" d="M 57.26 164.09586 
L 1141.2 164.09586 
" style="fill:none;stroke:#b0b0b0;stroke-linecap:square;stroke-width:0.8;"/>
     </g>
     <g id="line2d_10">
      <g>
       <use style="stroke:#000000;stroke-width:0.8;" x="57.26" xlink:href="#mc671e8402e" y="164.09586"/>
      </g>
     </g>
     <g id="text_5">
      <!-- 0.25 -->
      <g transform="translate(27.994375 167.895079)scale(0.1 -0.1)">
       <use xlink:href="#DejaVuSans-48"/>
       <use x="63.623047" xlink:href="#DejaVuSans-46"/>
       <use x="95.410156" xlink:href="#DejaVuSans-50"/>
       <use x="159.033203" xlink:href="#DejaVuSans-53"/>
      </g>
     </g>
    </g>
    <g id="ytick_6">
     <g id="line2d_11">
      <path clip-path="url(#p8012fed1cb)" d="M 57.26 125.692063 
L 1141.2 125.692063 
" style="fill:none;stroke:#b0b0b0;stroke-linecap:square;stroke-width:0.8;"/>
     </g>
     <g id="line2d_12">
      <g>
       <use style="stroke:#000000;stroke-width:0.8;" x="57.26" xlink:href="#mc671e8402e" y="125.692063"/>
      </g>
     </g>
     <g id="text_6">
      <!-- 0.50 -->
      <g transform="translate(27.994375 129.491282)scale(0.1 -0.1)">
       <use xlink:href="#DejaVuSans-48"/>
       <use x="63.623047" xlink:href="#DejaVuSans-46"/>
       <use x="95.410156" xlink:href="#DejaVuSans-53"/>
       <use x="159.033203" xlink:href="#DejaVuSans-48"/>
      </g>
     </g>
    </g>
    <g id="ytick_7">
     <g id="line2d_13">
      <path clip-path="url(#p8012fed1cb)" d="M 57.26 87.288266 
L 1141.2 87.288266 
" style="fill:none;stroke:#b0b0b0;stroke-linecap:square;stroke-width:0.8;"/>
     </g>
     <g id="line2d_14">
      <g>
       <use style="stroke:#000000;stroke-width:0.8;" x="57.26" xlink:href="#mc671e8402e" y="87.288266"/>
      </g>
     </g>
     <g id="text_7">
      <!-- 0.75 -->
      <g transform="translate(27.994375 91.087484)scale(0.1 -0.1)">
       <use xlink:href="#DejaVuSans-48"/>
       <use x="63.623047" xlink:href="#DejaVuSans-46"/>
       <use x="95.410156" xlink:href="#DejaVuSans-55"/>
       <use x="159.033203" xlink:href="#DejaVuSans-53"/>
      </g>
     </g>
    </g>
    <g id="ytick_8">
     <g id="line2d_15">
      <path clip-path="url(#p8012fed1cb)" d="M 57.26 48.884468 
L 1141.2 48.884468 
" style="fill:none;stroke:#b0b0b0;stroke-linecap:square;stroke-width:0.8;"/>
     </g>
     <g id="line2d_16">
      <g>
       <use style="stroke:#000000;stroke-width:0.8;" x="57.26" xlink:href="#mc671e8402e" y="48.884468"/>
      </g>
     </g>
     <g id="text_8">
      <!-- 1.00 -->
      <g transform="translate(27.994375 52.683687)scale(0.1 -0.1)">
       <defs>
        <path d="M 12.40625 8.296875 
L 28.515625 8.296875 
L 28.515625 63.921875 
L 10.984375 60.40625 
L 10.984375 69.390625 
L 28.421875 72.90625 
L 38.28125 72.90625 
L 38.28125 8.296875 
L 54.390625 8.296875 
L 54.390625 0 
L 12.40625 0 
z
" id="DejaVuSans-49"/>
       </defs>
       <use xlink:href="#DejaVuSans-49"/>
       <use x="63.623047" xlink:href="#DejaVuSans-46"/>
       <use x="95.410156" xlink:href="#DejaVuSans-48"/>
       <use x="159.033203" xlink:href="#DejaVuSans-48"/>
      </g>
     </g>
    </g>
    <g id="text_9">
     <!-- log return cumsum -->
     <g transform="translate(18.306875 233.327969)rotate(-90)scale(0.1 -0.1)">
      <defs>
       <path d="M 9.421875 75.984375 
L 18.40625 75.984375 
L 18.40625 0 
L 9.421875 0 
z
" id="DejaVuSans-108"/>
       <path d="M 30.609375 48.390625 
Q 23.390625 48.390625 19.1875 42.75 
Q 14.984375 37.109375 14.984375 27.296875 
Q 14.984375 17.484375 19.15625 11.84375 
Q 23.34375 6.203125 30.609375 6.203125 
Q 37.796875 6.203125 41.984375 11.859375 
Q 46.1875 17.53125 46.1875 27.296875 
Q 46.1875 37.015625 41.984375 42.703125 
Q 37.796875 48.390625 30.609375 48.390625 
z
M 30.609375 56 
Q 42.328125 56 49.015625 48.375 
Q 55.71875 40.765625 55.71875 27.296875 
Q 55.71875 13.875 49.015625 6.21875 
Q 42.328125 -1.421875 30.609375 -1.421875 
Q 18.84375 -1.421875 12.171875 6.21875 
Q 5.515625 13.875 5.515625 27.296875 
Q 5.515625 40.765625 12.171875 48.375 
Q 18.84375 56 30.609375 56 
z
" id="DejaVuSans-111"/>
       <path d="M 45.40625 27.984375 
Q 45.40625 37.75 41.375 43.109375 
Q 37.359375 48.484375 30.078125 48.484375 
Q 22.859375 48.484375 18.828125 43.109375 
Q 14.796875 37.75 14.796875 27.984375 
Q 14.796875 18.265625 18.828125 12.890625 
Q 22.859375 7.515625 30.078125 7.515625 
Q 37.359375 7.515625 41.375 12.890625 
Q 45.40625 18.265625 45.40625 27.984375 
z
M 54.390625 6.78125 
Q 54.390625 -7.171875 48.1875 -13.984375 
Q 42 -20.796875 29.203125 -20.796875 
Q 24.46875 -20.796875 20.265625 -20.09375 
Q 16.0625 -19.390625 12.109375 -17.921875 
L 12.109375 -9.1875 
Q 16.0625 -11.328125 19.921875 -12.34375 
Q 23.78125 -13.375 27.78125 -13.375 
Q 36.625 -13.375 41.015625 -8.765625 
Q 45.40625 -4.15625 45.40625 5.171875 
L 45.40625 9.625 
Q 42.625 4.78125 38.28125 2.390625 
Q 33.9375 0 27.875 0 
Q 17.828125 0 11.671875 7.65625 
Q 5.515625 15.328125 5.515625 27.984375 
Q 5.515625 40.671875 11.671875 48.328125 
Q 17.828125 56 27.875 56 
Q 33.9375 56 38.28125 53.609375 
Q 42.625 51.21875 45.40625 46.390625 
L 45.40625 54.6875 
L 54.390625 54.6875 
z
" id="DejaVuSans-103"/>
       <path id="DejaVuSans-32"/>
       <path d="M 41.109375 46.296875 
Q 39.59375 47.171875 37.8125 47.578125 
Q 36.03125 48 33.890625 48 
Q 26.265625 48 22.1875 43.046875 
Q 18.109375 38.09375 18.109375 28.8125 
L 18.109375 0 
L 9.078125 0 
L 9.078125 54.6875 
L 18.109375 54.6875 
L 18.109375 46.1875 
Q 20.953125 51.171875 25.484375 53.578125 
Q 30.03125 56 36.53125 56 
Q 37.453125 56 38.578125 55.875 
Q 39.703125 55.765625 41.0625 55.515625 
z
" id="DejaVuSans-114"/>
       <path d="M 56.203125 29.59375 
L 56.203125 25.203125 
L 14.890625 25.203125 
Q 15.484375 15.921875 20.484375 11.0625 
Q 25.484375 6.203125 34.421875 6.203125 
Q 39.59375 6.203125 44.453125 7.46875 
Q 49.3125 8.734375 54.109375 11.28125 
L 54.109375 2.78125 
Q 49.265625 0.734375 44.1875 -0.34375 
Q 39.109375 -1.421875 33.890625 -1.421875 
Q 20.796875 -1.421875 13.15625 6.1875 
Q 5.515625 13.8125 5.515625 26.8125 
Q 5.515625 40.234375 12.765625 48.109375 
Q 20.015625 56 32.328125 56 
Q 43.359375 56 49.78125 48.890625 
Q 56.203125 41.796875 56.203125 29.59375 
z
M 47.21875 32.234375 
Q 47.125 39.59375 43.09375 43.984375 
Q 39.0625 48.390625 32.421875 48.390625 
Q 24.90625 48.390625 20.390625 44.140625 
Q 15.875 39.890625 15.1875 32.171875 
z
" id="DejaVuSans-101"/>
       <path d="M 18.3125 70.21875 
L 18.3125 54.6875 
L 36.8125 54.6875 
L 36.8125 47.703125 
L 18.3125 47.703125 
L 18.3125 18.015625 
Q 18.3125 11.328125 20.140625 9.421875 
Q 21.96875 7.515625 27.59375 7.515625 
L 36.8125 7.515625 
L 36.8125 0 
L 27.59375 0 
Q 17.1875 0 13.234375 3.875 
Q 9.28125 7.765625 9.28125 18.015625 
L 9.28125 47.703125 
L 2.6875 47.703125 
L 2.6875 54.6875 
L 9.28125 54.6875 
L 9.28125 70.21875 
z
" id="DejaVuSans-116"/>
       <path d="M 8.5 21.578125 
L 8.5 54.6875 
L 17.484375 54.6875 
L 17.484375 21.921875 
Q 17.484375 14.15625 20.5 10.265625 
Q 23.53125 6.390625 29.59375 6.390625 
Q 36.859375 6.390625 41.078125 11.03125 
Q 45.3125 15.671875 45.3125 23.6875 
L 45.3125 54.6875 
L 54.296875 54.6875 
L 54.296875 0 
L 45.3125 0 
L 45.3125 8.40625 
Q 42.046875 3.421875 37.71875 1 
Q 33.40625 -1.421875 27.6875 -1.421875 
Q 18.265625 -1.421875 13.375 4.4375 
Q 8.5 10.296875 8.5 21.578125 
z
M 31.109375 56 
z
" id="DejaVuSans-117"/>
       <path d="M 54.890625 33.015625 
L 54.890625 0 
L 45.90625 0 
L 45.90625 32.71875 
Q 45.90625 40.484375 42.875 44.328125 
Q 39.84375 48.1875 33.796875 48.1875 
Q 26.515625 48.1875 22.3125 43.546875 
Q 18.109375 38.921875 18.109375 30.90625 
L 18.109375 0 
L 9.078125 0 
L 9.078125 54.6875 
L 18.109375 54.6875 
L 18.109375 46.1875 
Q 21.34375 51.125 25.703125 53.5625 
Q 30.078125 56 35.796875 56 
Q 45.21875 56 50.046875 50.171875 
Q 54.890625 44.34375 54.890625 33.015625 
z
" id="DejaVuSans-110"/>
       <path d="M 48.78125 52.59375 
L 48.78125 44.1875 
Q 44.96875 46.296875 41.140625 47.34375 
Q 37.3125 48.390625 33.40625 48.390625 
Q 24.65625 48.390625 19.8125 42.84375 
Q 14.984375 37.3125 14.984375 27.296875 
Q 14.984375 17.28125 19.8125 11.734375 
Q 24.65625 6.203125 33.40625 6.203125 
Q 37.3125 6.203125 41.140625 7.25 
Q 44.96875 8.296875 48.78125 10.40625 
L 48.78125 2.09375 
Q 45.015625 0.34375 40.984375 -0.53125 
Q 36.96875 -1.421875 32.421875 -1.421875 
Q 20.0625 -1.421875 12.78125 6.34375 
Q 5.515625 14.109375 5.515625 27.296875 
Q 5.515625 40.671875 12.859375 48.328125 
Q 20.21875 56 33.015625 56 
Q 37.15625 56 41.109375 55.140625 
Q 45.0625 54.296875 48.78125 52.59375 
z
" id="DejaVuSans-99"/>
       <path d="M 52 44.1875 
Q 55.375 50.25 60.0625 53.125 
Q 64.75 56 71.09375 56 
Q 79.640625 56 84.28125 50.015625 
Q 88.921875 44.046875 88.921875 33.015625 
L 88.921875 0 
L 79.890625 0 
L 79.890625 32.71875 
Q 79.890625 40.578125 77.09375 44.375 
Q 74.3125 48.1875 68.609375 48.1875 
Q 61.625 48.1875 57.5625 43.546875 
Q 53.515625 38.921875 53.515625 30.90625 
L 53.515625 0 
L 44.484375 0 
L 44.484375 32.71875 
Q 44.484375 40.625 41.703125 44.40625 
Q 38.921875 48.1875 33.109375 48.1875 
Q 26.21875 48.1875 22.15625 43.53125 
Q 18.109375 38.875 18.109375 30.90625 
L 18.109375 0 
L 9.078125 0 
L 9.078125 54.6875 
L 18.109375 54.6875 
L 18.109375 46.1875 
Q 21.1875 51.21875 25.484375 53.609375 
Q 29.78125 56 35.6875 56 
Q 41.65625 56 45.828125 52.96875 
Q 50 49.953125 52 44.1875 
z
" id="DejaVuSans-109"/>
       <path d="M 44.28125 53.078125 
L 44.28125 44.578125 
Q 40.484375 46.53125 36.375 47.5 
Q 32.28125 48.484375 27.875 48.484375 
Q 21.1875 48.484375 17.84375 46.4375 
Q 14.5 44.390625 14.5 40.28125 
Q 14.5 37.15625 16.890625 35.375 
Q 19.28125 33.59375 26.515625 31.984375 
L 29.59375 31.296875 
Q 39.15625 29.25 43.1875 25.515625 
Q 47.21875 21.78125 47.21875 15.09375 
Q 47.21875 7.46875 41.1875 3.015625 
Q 35.15625 -1.421875 24.609375 -1.421875 
Q 20.21875 -1.421875 15.453125 -0.5625 
Q 10.6875 0.296875 5.421875 2 
L 5.421875 11.28125 
Q 10.40625 8.6875 15.234375 7.390625 
Q 20.0625 6.109375 24.8125 6.109375 
Q 31.15625 6.109375 34.5625 8.28125 
Q 37.984375 10.453125 37.984375 14.40625 
Q 37.984375 18.0625 35.515625 20.015625 
Q 33.0625 21.96875 24.703125 23.78125 
L 21.578125 24.515625 
Q 13.234375 26.265625 9.515625 29.90625 
Q 5.8125 33.546875 5.8125 39.890625 
Q 5.8125 47.609375 11.28125 51.796875 
Q 16.75 56 26.8125 56 
Q 31.78125 56 36.171875 55.265625 
Q 40.578125 54.546875 44.28125 53.078125 
z
" id="DejaVuSans-115"/>
      </defs>
      <use xlink:href="#DejaVuSans-108"/>
      <use x="27.783203" xlink:href="#DejaVuSans-111"/>
      <use x="88.964844" xlink:href="#DejaVuSans-103"/>
      <use x="152.441406" xlink:href="#DejaVuSans-32"/>
      <use x="184.228516" xlink:href="#DejaVuSans-114"/>
      <use x="223.091797" xlink:href="#DejaVuSans-101"/>
      <use x="284.615234" xlink:href="#DejaVuSans-116"/>
      <use x="323.824219" xlink:href="#DejaVuSans-117"/>
      <use x="387.203125" xlink:href="#DejaVuSans-114"/>
      <use x="426.566406" xlink:href="#DejaVuSans-110"/>
      <use x="489.945312" xlink:href="#DejaVuSans-32"/>
      <use x="521.732422" xlink:href="#DejaVuSans-99"/>
      <use x="576.712891" xlink:href="#DejaVuSans-117"/>
      <use x="640.091797" xlink:href="#DejaVuSans-109"/>
      <use x="737.503906" xlink:href="#DejaVuSans-115"/>
      <use x="789.603516" xlink:href="#DejaVuSans-117"/>
      <use x="852.982422" xlink:href="#DejaVuSans-109"/>
     </g>
    </g>
   </g>
   <g id="line2d_17">
    <path clip-path="url(#p8012fed1cb)" d="M 106.53 210.233314 
L 110.291069 212.866229 
L 114.052137 218.142888 
L 117.813206 225.537499 
L 129.096412 212.515592 
L 132.857481 210.683605 
L 136.61855 218.301636 
L 140.379618 204.606352 
L 144.140687 202.919732 
L 155.423893 207.874785 
L 159.184962 220.040023 
L 162.946031 216.662293 
L 166.707099 227.754902 
L 170.468168 224.412328 
L 181.751374 216.787929 
L 185.512443 218.226545 
L 189.273511 212.768726 
L 193.03458 220.550795 
L 196.795649 214.597189 
L 208.078855 228.934317 
L 211.839924 228.701896 
L 215.600992 231.421076 
L 219.362061 232.714274 
L 223.12313 231.296386 
L 234.406336 240.286845 
L 238.167405 231.77062 
L 241.928473 230.421714 
L 245.689542 220.212874 
L 249.450611 214.31568 
L 260.733817 215.950398 
L 264.494885 206.514155 
L 268.255954 209.225194 
L 272.017023 214.506191 
L 275.778092 208.941726 
L 287.061298 200.325886 
L 290.822366 194.961971 
L 294.583435 186.383107 
L 298.344504 185.465359 
L 302.105573 196.011119 
L 313.388779 197.45016 
L 317.149847 202.110926 
L 320.910916 199.614685 
L 328.433053 214.492058 
L 343.477328 222.569265 
L 347.238397 214.052978 
L 350.999466 223.587758 
L 354.760534 221.043259 
L 366.04374 218.088246 
L 369.804809 220.489114 
L 373.565878 224.753522 
L 377.326947 232.533522 
L 381.088015 229.50526 
L 392.371221 229.644517 
L 396.13229 227.362654 
L 399.893359 217.316729 
L 403.654427 215.795994 
L 407.415496 216.198973 
L 418.698702 225.088717 
L 422.459771 226.73541 
L 426.22084 226.071435 
L 429.981908 221.143062 
L 433.742977 216.98077 
L 445.026183 208.704056 
L 448.787252 202.932067 
L 452.548321 205.672694 
L 456.309389 213.126298 
L 460.070458 203.469616 
L 471.353664 201.343548 
L 475.114733 198.930233 
L 478.875802 197.009642 
L 482.63687 190.359594 
L 486.397939 179.753974 
L 497.681145 181.821499 
L 501.442214 181.920854 
L 505.203282 175.208334 
L 508.964351 176.229853 
L 512.72542 174.64218 
L 524.008626 170.857126 
L 527.769695 170.028625 
L 531.530763 173.371959 
L 535.291832 172.986977 
L 539.052901 168.080407 
L 550.336107 163.841457 
L 554.097176 166.555806 
L 557.858244 164.923061 
L 561.619313 162.318236 
L 565.380382 151.095856 
L 576.663588 148.795375 
L 580.424656 141.439815 
L 584.185725 155.735278 
L 587.946794 159.322973 
L 591.707863 148.350783 
L 602.991069 146.271229 
L 606.752137 153.907282 
L 610.513206 160.521945 
L 614.274275 166.388272 
L 618.035344 163.810988 
L 629.31855 153.040107 
L 633.079618 157.349329 
L 636.840687 152.367789 
L 640.601756 150.552625 
L 644.362824 146.896169 
L 655.646031 160.371998 
L 659.407099 154.833386 
L 663.168168 156.105022 
L 666.929237 166.953724 
L 670.690305 154.296927 
L 681.973511 142.73987 
L 685.73458 140.449107 
L 689.495649 137.16808 
L 693.256718 140.436813 
L 697.017786 138.393429 
L 708.300992 135.517014 
L 712.062061 144.121725 
L 715.82313 146.280881 
L 719.584198 153.14592 
L 723.345267 155.797211 
L 734.628473 150.15691 
L 738.389542 147.358907 
L 742.150611 152.616255 
L 745.911679 141.842201 
L 749.672748 141.757642 
L 760.955954 145.327026 
L 764.717023 152.310571 
L 768.478092 144.848875 
L 772.23916 146.399477 
L 776.000229 137.160744 
L 787.283435 145.40661 
L 791.044504 142.794137 
L 794.805573 135.459695 
L 798.566641 139.338945 
L 802.32771 141.511313 
L 813.610916 150.77636 
L 817.371985 147.007959 
L 821.133053 151.029952 
L 824.894122 149.325252 
L 828.655191 144.659269 
L 839.938397 148.95373 
L 843.699466 137.278746 
L 847.460534 137.590354 
L 851.221603 126.992862 
L 854.982672 124.89594 
L 866.265878 124.099334 
L 870.026947 131.501036 
L 873.788015 138.310344 
L 877.549084 142.932963 
L 881.310153 149.953923 
L 892.593359 158.15283 
L 896.354427 152.41725 
L 900.115496 160.462262 
L 903.876565 148.978315 
L 907.637634 143.747741 
L 918.92084 135.936852 
L 926.442977 139.991207 
L 930.204046 144.378088 
L 933.965115 139.185106 
L 945.248321 138.236163 
L 949.009389 140.036409 
L 952.770458 154.262058 
L 956.531527 157.430631 
L 960.292595 155.046985 
L 971.575802 150.792526 
L 975.33687 152.84874 
L 979.097939 148.353407 
L 982.859008 142.945033 
L 986.620076 146.104494 
L 997.903282 146.383728 
L 1001.664351 143.341498 
L 1005.42542 151.925031 
L 1009.186489 153.477376 
L 1012.947557 157.53677 
L 1024.230763 168.533228 
L 1027.991832 162.35462 
L 1031.752901 158.74054 
L 1035.513969 156.358402 
L 1039.275038 153.635725 
L 1050.558244 147.872133 
L 1054.319313 148.85201 
L 1058.080382 149.480686 
L 1061.84145 138.817998 
L 1065.602519 143.715344 
L 1076.885725 135.813284 
L 1080.646794 126.896131 
L 1084.407863 132.211278 
L 1088.168931 126.385838 
L 1091.93 126.385838 
L 1091.93 126.385838 
" style="fill:none;stroke:#9467bd;stroke-linecap:square;stroke-width:1.5;"/>
   </g>
   <g id="line2d_18">
    <path clip-path="url(#p8012fed1cb)" d="M 106.53 202.802058 
L 110.291069 205.169658 
L 114.052137 209.640905 
L 117.813206 213.588093 
L 129.096412 218.4463 
L 132.857481 208.268847 
L 136.61855 214.833718 
L 140.379618 212.583055 
L 144.140687 201.509506 
L 155.423893 203.581246 
L 159.184962 207.298571 
L 162.946031 206.654077 
L 166.707099 213.281379 
L 170.468168 211.182941 
L 181.751374 216.557924 
L 185.512443 219.133895 
L 189.273511 211.510016 
L 193.03458 215.835534 
L 196.795649 220.808587 
L 208.078855 221.436227 
L 211.839924 212.141634 
L 215.600992 213.439527 
L 219.362061 227.074987 
L 223.12313 224.975383 
L 234.406336 224.736069 
L 238.167405 235.459684 
L 241.928473 232.82264 
L 245.689542 239.070964 
L 249.450611 247.256615 
L 260.733817 248.575054 
L 264.494885 254.982127 
L 268.255954 260.334805 
L 272.017023 259.314423 
L 275.778092 264.745214 
L 287.061298 259.922372 
L 290.822366 266.716639 
L 294.583435 260.995125 
L 298.344504 261.24663 
L 302.105573 270.464887 
L 313.388779 269.938019 
L 317.149847 280.610269 
L 320.910916 290.515071 
L 324.671985 302.698198 
L 328.433053 298.281323 
L 339.71626 291.254755 
L 343.477328 284.159469 
L 347.238397 285.604676 
L 350.999466 276.776074 
L 354.760534 271.597237 
L 366.04374 265.832108 
L 369.804809 269.069155 
L 373.565878 271.23444 
L 377.326947 270.64483 
L 381.088015 278.676045 
L 392.371221 273.703618 
L 396.13229 264.418512 
L 399.893359 259.784087 
L 403.654427 254.512102 
L 407.415496 246.79669 
L 418.698702 253.82343 
L 422.459771 264.614547 
L 426.22084 268.472148 
L 429.981908 258.510404 
L 433.742977 267.766101 
L 445.026183 260.775168 
L 448.787252 271.160423 
L 452.548321 278.36488 
L 456.309389 277.647062 
L 460.070458 280.171576 
L 471.353664 282.491354 
L 475.114733 280.377139 
L 478.875802 278.397985 
L 482.63687 277.739616 
L 486.397939 278.595716 
L 497.681145 273.151847 
L 501.442214 281.122732 
L 505.203282 286.140667 
L 508.964351 274.474931 
L 512.72542 275.339945 
L 524.008626 272.826765 
L 527.769695 285.277282 
L 531.530763 292.018621 
L 535.291832 293.570947 
L 539.052901 296.746583 
L 550.336107 297.522123 
L 554.097176 293.845616 
L 557.858244 294.827186 
L 561.619313 282.286595 
L 565.380382 290.525789 
L 576.663588 297.17485 
L 580.424656 296.678225 
L 584.185725 297.951345 
L 587.946794 309.650128 
L 591.707863 306.158287 
L 606.752137 313.560937 
L 610.513206 312.651229 
L 614.274275 305.898092 
L 618.035344 299.987618 
L 629.31855 301.987686 
L 633.079618 302.814047 
L 636.840687 313.039757 
L 640.601756 314.564111 
L 644.362824 313.149668 
L 655.646031 307.166957 
L 659.407099 311.099891 
L 663.168168 326.222953 
L 666.929237 320.061266 
L 670.690305 327.677308 
L 681.973511 327.533611 
L 685.73458 331.164545 
L 689.495649 322.391098 
L 693.256718 324.207339 
L 697.017786 327.887702 
L 708.300992 322.71707 
L 715.82313 311.92276 
L 719.584198 305.709072 
L 723.345267 308.325935 
L 734.628473 311.816072 
L 738.389542 310.677468 
L 742.150611 311.774893 
L 745.911679 305.730908 
L 749.672748 307.181198 
L 760.955954 294.947729 
L 764.717023 298.91932 
L 768.478092 299.324824 
L 772.23916 304.251343 
L 776.000229 304.38926 
L 787.283435 303.318461 
L 791.044504 305.612997 
L 794.805573 298.615409 
L 798.566641 302.436601 
L 802.32771 309.350688 
L 813.610916 302.963262 
L 817.371985 300.981314 
L 821.133053 305.213836 
L 824.894122 296.509701 
L 828.655191 297.283261 
L 839.938397 307.208358 
L 843.699466 307.610784 
L 847.460534 317.887644 
L 851.221603 309.719512 
L 854.982672 314.351802 
L 866.265878 313.570419 
L 870.026947 309.366803 
L 873.788015 299.332816 
L 877.549084 303.318996 
L 881.310153 297.664917 
L 892.593359 291.727726 
L 896.354427 301.058855 
L 900.115496 305.839279 
L 903.876565 306.069343 
L 907.637634 303.859202 
L 918.92084 294.079967 
L 922.681908 281.334431 
L 926.442977 280.474618 
L 930.204046 279.086135 
L 933.965115 278.660084 
L 945.248321 272.023509 
L 949.009389 264.673238 
L 952.770458 258.491515 
L 956.531527 254.538444 
L 960.292595 251.249744 
L 971.575802 254.672643 
L 975.33687 261.440879 
L 979.097939 260.164959 
L 982.859008 259.179377 
L 986.620076 261.163287 
L 997.903282 265.184971 
L 1001.664351 258.222842 
L 1005.42542 266.250437 
L 1009.186489 256.921661 
L 1012.947557 243.580231 
L 1024.230763 240.92692 
L 1027.991832 249.872962 
L 1031.752901 249.315589 
L 1035.513969 242.911874 
L 1039.275038 238.750901 
L 1050.558244 240.538945 
L 1054.319313 241.887216 
L 1058.080382 242.636858 
L 1061.84145 236.645288 
L 1065.602519 238.517599 
L 1076.885725 243.627644 
L 1080.646794 236.098298 
L 1084.407863 226.306452 
L 1088.168931 228.64022 
L 1091.93 228.64022 
L 1091.93 228.64022 
" style="fill:none;stroke:#1f77b4;stroke-linecap:square;stroke-width:1.5;"/>
   </g>
   <g id="line2d_19">
    <path clip-path="url(#p8012fed1cb)" d="M 106.53 204.833449 
L 110.291069 204.076547 
L 114.052137 210.94933 
L 117.813206 210.09198 
L 129.096412 206.675367 
L 132.857481 204.468845 
L 136.61855 204.31642 
L 140.379618 202.343675 
L 144.140687 196.635313 
L 155.423893 201.408472 
L 159.184962 203.679646 
L 162.946031 200.329758 
L 166.707099 205.802595 
L 170.468168 200.944058 
L 181.751374 201.418368 
L 185.512443 206.258304 
L 189.273511 201.712334 
L 193.03458 203.61384 
L 196.795649 202.789758 
L 208.078855 202.47502 
L 211.839924 198.550509 
L 215.600992 196.579349 
L 219.362061 201.702661 
L 223.12313 203.503941 
L 234.406336 207.083645 
L 238.167405 207.534481 
L 241.928473 210.457641 
L 245.689542 209.600745 
L 249.450611 206.538485 
L 260.733817 207.238646 
L 264.494885 204.129024 
L 268.255954 201.94354 
L 272.017023 202.130143 
L 275.778092 200.781885 
L 287.061298 199.749173 
L 290.822366 201.021747 
L 294.583435 195.026217 
L 302.105573 202.870528 
L 313.388779 202.353013 
L 317.149847 204.083737 
L 320.910916 207.71637 
L 324.671985 210.852852 
L 328.433053 206.564153 
L 339.71626 204.977974 
L 343.477328 205.263135 
L 347.238397 200.572952 
L 350.999466 200.415746 
L 354.760534 201.340115 
L 366.04374 201.048786 
L 369.804809 204.636937 
L 373.565878 204.893988 
L 377.326947 202.017398 
L 381.088015 203.395177 
L 392.371221 205.77901 
L 396.13229 202.503618 
L 399.893359 198.812203 
L 403.654427 195.545297 
L 407.415496 192.075227 
L 418.698702 196.222732 
L 422.459771 202.270595 
L 426.22084 201.889918 
L 429.981908 195.454107 
L 433.742977 194.633645 
L 445.026183 186.538758 
L 448.787252 190.463585 
L 452.548321 191.669607 
L 456.309389 192.648035 
L 460.070458 185.982583 
L 471.353664 185.678003 
L 475.114733 185.213298 
L 478.875802 185.385536 
L 482.63687 183.563062 
L 486.397939 182.864922 
L 497.681145 181.275852 
L 501.442214 179.776561 
L 505.203282 183.26446 
L 508.964351 179.869572 
L 512.72542 177.836347 
L 524.008626 177.359215 
L 527.769695 181.471191 
L 531.530763 182.509728 
L 535.291832 179.785836 
L 539.052901 182.660414 
L 550.336107 178.53364 
L 554.097176 177.56946 
L 557.858244 182.548732 
L 561.619313 177.193676 
L 565.380382 175.295613 
L 576.663588 179.215241 
L 580.424656 177.576444 
L 584.185725 183.643324 
L 587.946794 184.325287 
L 591.707863 180.891427 
L 602.991069 183.377139 
L 606.752137 183.390779 
L 610.513206 182.945939 
L 614.274275 183.910669 
L 618.035344 182.42038 
L 629.31855 180.107817 
L 633.079618 177.525908 
L 636.840687 176.802383 
L 640.601756 181.797228 
L 644.362824 181.535717 
L 655.646031 183.906161 
L 659.407099 185.45705 
L 663.168168 190.145836 
L 670.690305 187.864273 
L 681.973511 183.987553 
L 685.73458 184.366845 
L 689.495649 181.057092 
L 693.256718 177.407504 
L 697.017786 175.10715 
L 708.300992 172.799797 
L 712.062061 175.150194 
L 715.82313 176.645985 
L 719.584198 175.623637 
L 723.345267 175.095216 
L 734.628473 175.966265 
L 738.389542 175.974498 
L 742.150611 174.793131 
L 745.911679 173.109265 
L 749.672748 172.608661 
L 760.955954 173.752507 
L 764.717023 172.92513 
L 768.478092 173.101387 
L 772.23916 172.842956 
L 776.000229 172.3601 
L 787.283435 171.780274 
L 791.044504 169.602856 
L 794.805573 166.122529 
L 798.566641 167.9447 
L 802.32771 168.409933 
L 813.610916 165.666363 
L 817.371985 166.92936 
L 821.133053 167.649795 
L 824.894122 164.000194 
L 828.655191 161.000165 
L 839.938397 166.120067 
L 843.699466 168.653829 
L 847.460534 169.636359 
L 851.221603 166.266228 
L 854.982672 167.996759 
L 866.265878 169.726676 
L 870.026947 169.415355 
L 873.788015 170.849112 
L 877.549084 169.525308 
L 881.310153 173.811688 
L 892.593359 171.627557 
L 896.354427 172.490783 
L 900.115496 171.528519 
L 903.876565 169.138589 
L 907.637634 168.689784 
L 918.92084 161.557321 
L 922.681908 156.896551 
L 926.442977 159.372724 
L 930.204046 161.016613 
L 933.965115 156.405122 
L 945.248321 154.485126 
L 949.009389 149.99256 
L 956.531527 155.882334 
L 960.292595 154.913642 
L 971.575802 153.633751 
L 975.33687 153.827685 
L 979.097939 158.386915 
L 982.859008 158.843546 
L 986.620076 158.11556 
L 997.903282 156.445653 
L 1001.664351 150.952723 
L 1005.42542 155.566913 
L 1009.186489 156.908892 
L 1012.947557 151.768775 
L 1024.230763 154.175719 
L 1027.991832 152.670123 
L 1031.752901 150.291118 
L 1035.513969 152.858772 
L 1039.275038 149.20766 
L 1050.558244 145.840288 
L 1054.319313 146.623756 
L 1058.080382 147.965501 
L 1061.84145 147.097834 
L 1065.602519 148.883377 
L 1076.885725 148.339514 
L 1080.646794 144.109086 
L 1084.407863 140.35688 
L 1088.168931 140.114624 
L 1088.168931 140.114624 
" style="fill:none;stroke:#8c564b;stroke-linecap:square;stroke-width:1.5;"/>
   </g>
   <g id="line2d_20">
    <path clip-path="url(#p8012fed1cb)" d="M 106.53 207.816679 
L 110.291069 211.223427 
L 114.052137 209.696795 
L 117.813206 217.99621 
L 129.096412 208.181646 
L 132.857481 208.561605 
L 136.61855 216.339975 
L 140.379618 204.471629 
L 144.140687 208.647719 
L 155.423893 208.824045 
L 159.184962 218.568197 
L 162.946031 218.539741 
L 166.707099 223.959312 
L 170.468168 225.524236 
L 181.751374 217.44985 
L 185.512443 214.152901 
L 189.273511 213.213747 
L 193.03458 219.020583 
L 196.795649 213.863925 
L 208.078855 228.547324 
L 211.839924 232.336142 
L 215.600992 237.088001 
L 219.362061 233.382019 
L 223.12313 230.199991 
L 234.406336 235.483948 
L 238.167405 226.542415 
L 241.928473 222.349786 
L 245.689542 212.947098 
L 249.450611 210.055617 
L 260.733817 210.985911 
L 264.494885 204.532597 
L 272.017023 214.588532 
L 275.778092 210.335668 
L 287.061298 202.702638 
L 290.822366 196.119744 
L 294.583435 193.434484 
L 298.344504 188.707335 
L 302.105573 195.168365 
L 313.388779 197.131566 
L 317.149847 200.02847 
L 320.910916 194.040074 
L 324.671985 198.257123 
L 328.433053 210.326767 
L 339.71626 217.97484 
L 343.477328 219.782147 
L 347.238397 215.838931 
L 350.999466 225.541161 
L 354.760534 222.092872 
L 366.04374 219.424176 
L 369.804809 218.264201 
L 373.565878 222.26477 
L 377.326947 233.130087 
L 381.088015 228.762834 
L 392.371221 226.552573 
L 396.13229 227.567584 
L 399.893359 221.061752 
L 403.654427 222.845675 
L 407.415496 226.80836 
L 418.698702 231.422358 
L 422.459771 227.188777 
L 426.22084 226.904777 
L 429.981908 228.477043 
L 433.742977 225.11751 
L 445.026183 224.925851 
L 448.787252 215.466271 
L 452.548321 216.988815 
L 456.309389 223.422007 
L 460.070458 220.299468 
L 471.353664 218.474386 
L 475.114733 216.51991 
L 478.875802 214.429411 
L 482.63687 209.545127 
L 486.397939 199.593949 
L 497.681145 203.289027 
L 501.442214 204.903435 
L 505.203282 194.924734 
L 508.964351 199.441295 
L 512.72542 199.892791 
L 524.008626 196.57469 
L 527.769695 191.762683 
L 535.291832 196.432913 
L 539.052901 188.792491 
L 550.336107 188.677262 
L 554.097176 192.379233 
L 557.858244 185.973766 
L 561.619313 188.822471 
L 565.380382 179.385718 
L 576.663588 173.319259 
L 580.424656 167.542321 
L 584.185725 175.443917 
L 587.946794 178.336656 
L 591.707863 170.632124 
L 602.991069 166.139075 
L 606.752137 173.760794 
L 610.513206 180.841248 
L 614.274275 185.711667 
L 618.035344 184.614113 
L 629.31855 176.031017 
L 633.079618 183.041656 
L 636.840687 178.763817 
L 640.601756 172.167064 
L 644.362824 168.766399 
L 655.646031 179.695536 
L 659.407099 172.675647 
L 663.168168 169.360122 
L 666.929237 181.435021 
L 670.690305 169.842808 
L 685.73458 159.307598 
L 689.495649 159.33695 
L 693.256718 166.425502 
L 697.017786 166.686351 
L 708.300992 166.108693 
L 712.062061 172.266112 
L 715.82313 172.923035 
L 719.584198 180.864475 
L 723.345267 184.055258 
L 734.628473 177.579961 
L 738.389542 174.773873 
L 742.150611 181.26336 
L 745.911679 172.075919 
L 749.672748 172.493324 
L 760.955954 174.900726 
L 764.717023 182.754929 
L 768.478092 175.12552 
L 772.23916 176.937618 
L 776.000229 168.154949 
L 787.283435 177.014997 
L 791.044504 176.573741 
L 794.805573 172.632432 
L 798.566641 174.665094 
L 802.32771 176.367037 
L 813.610916 188.600903 
L 817.371985 183.610042 
L 821.133053 186.895985 
L 824.894122 188.887952 
L 828.655191 187.189322 
L 839.938397 186.39087 
L 843.699466 172.404299 
L 847.460534 171.737645 
L 851.221603 164.353766 
L 854.982672 160.568664 
L 866.265878 158.070204 
L 870.026947 165.799274 
L 873.788015 171.124011 
L 877.549084 177.122918 
L 881.310153 179.781594 
L 892.593359 190.318531 
L 896.354427 183.755924 
L 900.115496 192.821504 
L 903.876565 183.589097 
L 907.637634 178.793552 
L 918.92084 178.082959 
L 922.681908 184.928652 
L 926.442977 184.537329 
L 930.204046 187.250864 
L 933.965115 186.651687 
L 945.248321 187.634993 
L 949.009389 194.118556 
L 952.770458 205.21674 
L 956.531527 205.399364 
L 960.292595 203.975501 
L 971.575802 200.976288 
L 975.33687 202.836203 
L 979.097939 194.038991 
L 982.859008 188.191066 
L 986.620076 192.097216 
L 997.903282 194.067798 
L 1001.664351 196.608458 
L 1005.42542 200.45886 
L 1009.186489 200.667396 
L 1012.947557 210.189841 
L 1024.230763 218.642076 
L 1027.991832 213.923738 
L 1031.752901 212.669465 
L 1035.513969 207.800434 
L 1039.275038 208.751269 
L 1050.558244 206.302363 
L 1054.319313 206.497773 
L 1058.080382 205.79089 
L 1061.84145 195.942129 
L 1065.602519 199.017609 
L 1076.885725 191.633931 
L 1080.646794 186.818376 
L 1084.407863 196.116858 
L 1088.168931 190.52502 
L 1088.168931 190.52502 
" style="fill:none;stroke:#e377c2;stroke-linecap:square;stroke-width:1.5;"/>
   </g>
   <g id="line2d_21">
    <path clip-path="url(#p8012fed1cb)" d="M 106.53 204.527027 
L 110.291069 201.449837 
L 114.052137 203.781953 
L 117.813206 199.097458 
L 129.096412 191.07363 
L 132.857481 199.605984 
L 136.61855 193.163901 
L 140.379618 193.445923 
L 144.140687 199.219777 
L 155.423893 201.884691 
L 159.184962 200.472958 
L 162.946031 197.75629 
L 166.707099 196.650397 
L 170.468168 193.852679 
L 181.751374 189.117944 
L 185.512443 191.343987 
L 189.273511 194.580167 
L 193.03458 192.222945 
L 196.795649 186.607144 
L 208.078855 185.668597 
L 211.839924 191.379933 
L 215.600992 188.138096 
L 219.362061 180.330902 
L 223.12313 184.286166 
L 234.406336 188.111214 
L 238.167405 178.509915 
L 241.928473 184.168187 
L 245.689542 177.339974 
L 249.450611 166.655915 
L 260.733817 166.042911 
L 264.494885 156.903646 
L 268.255954 149.6176 
L 272.017023 150.832662 
L 275.778092 144.284139 
L 287.061298 148.196704 
L 290.822366 142.909844 
L 294.583435 142.62544 
L 298.344504 146.297828 
L 302.105573 141.297848 
L 313.388779 141.307233 
L 317.149847 132.9498 
L 320.910916 127.061877 
L 324.671985 118.686549 
L 328.433053 118.818465 
L 339.71626 124.518266 
L 343.477328 132.256535 
L 347.238397 126.177474 
L 350.999466 135.377497 
L 354.760534 141.69433 
L 366.04374 147.381384 
L 369.804809 147.725159 
L 373.565878 145.843471 
L 377.326947 143.547763 
L 381.088015 137.226364 
L 392.371221 144.830726 
L 396.13229 151.222791 
L 399.893359 152.194775 
L 403.654427 154.270337 
L 407.415496 158.737559 
L 418.698702 155.985915 
L 422.459771 151.55984 
L 426.22084 147.425267 
L 429.981908 151.190346 
L 433.742977 141.685526 
L 445.026183 140.530364 
L 448.787252 134.484061 
L 452.548321 128.755395 
L 456.309389 130.459629 
L 460.070458 121.415133 
L 471.353664 118.829779 
L 475.114733 120.502273 
L 478.875802 122.681762 
L 482.63687 121.512677 
L 486.397939 119.96703 
L 497.681145 123.96271 
L 501.442214 114.957638 
L 505.203282 113.476539 
L 508.964351 122.419305 
L 512.72542 119.537189 
L 524.008626 121.607048 
L 527.769695 113.901681 
L 531.530763 108.439432 
L 535.291832 104.205621 
L 539.052901 103.910717 
L 550.336107 99.032703 
L 554.097176 101.811325 
L 557.858244 105.783232 
L 561.619313 113.595776 
L 565.380382 103.971676 
L 576.663588 101.356885 
L 580.424656 100.211028 
L 584.185725 104.964605 
L 587.946794 94.72933 
L 591.707863 94.788645 
L 602.991069 91.78611 
L 606.752137 90.016456 
L 610.513206 90.484091 
L 614.274275 98.558087 
L 618.035344 103.154276 
L 629.31855 98.896665 
L 633.079618 95.506481 
L 636.840687 85.239343 
L 640.601756 88.67518 
L 644.362824 89.838817 
L 655.646031 98.533277 
L 659.407099 96.210992 
L 663.168168 86.72544 
L 666.929237 91.962602 
L 670.690305 83.61143 
L 681.973511 79.874956 
L 685.73458 76.69849 
L 689.495649 82.489444 
L 693.256718 77.086741 
L 697.017786 71.244953 
L 708.300992 74.207199 
L 712.062061 82.210366 
L 715.82313 89.384257 
L 719.584198 94.793706 
L 723.345267 91.701018 
L 734.628473 89.140278 
L 738.389542 90.295679 
L 742.150611 88.03299 
L 745.911679 92.570686 
L 749.672748 90.638008 
L 760.955954 105.178331 
L 764.717023 100.5 
L 768.478092 100.271357 
L 772.23916 95.247406 
L 776.000229 94.627189 
L 787.283435 95.121602 
L 791.044504 90.715006 
L 794.805573 94.398175 
L 798.566641 92.447955 
L 802.32771 86.277301 
L 813.610916 90.077795 
L 817.371985 93.36533 
L 821.133053 89.947637 
L 824.894122 95.302034 
L 828.655191 91.547171 
L 839.938397 87.038254 
L 843.699466 89.163975 
L 847.460534 80.454371 
L 851.221603 85.518765 
L 854.982672 82.702418 
L 866.265878 85.22663 
L 870.026947 89.228326 
L 873.788015 101.501872 
L 877.549084 96.325639 
L 881.310153 106.651597 
L 892.593359 110.554447 
L 896.354427 102.572866 
L 900.115496 97.002984 
L 903.876565 94.386878 
L 907.637634 96.173888 
L 918.92084 98.996241 
L 922.681908 107.800835 
L 926.442977 111.155752 
L 930.204046 114.215933 
L 933.965115 110.019025 
L 945.248321 114.947213 
L 949.009389 117.946357 
L 952.770458 127.420453 
L 956.531527 134.540934 
L 960.292595 136.911535 
L 971.575802 132.310838 
L 975.33687 126.014183 
L 979.097939 131.898945 
L 982.859008 133.350484 
L 986.620076 130.673086 
L 997.903282 125.125945 
L 1001.664351 126.663604 
L 1005.42542 123.422176 
L 1009.186489 134.78634 
L 1012.947557 143.753912 
L 1024.230763 148.903823 
L 1027.991832 139.02487 
L 1031.752901 137.196655 
L 1035.513969 146.561792 
L 1039.275038 147.085677 
L 1050.558244 141.988942 
L 1054.319313 141.429065 
L 1058.080382 142.01828 
L 1061.84145 147.34956 
L 1065.602519 147.263843 
L 1076.885725 141.791665 
L 1080.646794 145.258188 
L 1084.407863 151.703799 
L 1088.168931 149.166297 
L 1088.168931 149.166297 
" style="fill:none;stroke:#7f7f7f;stroke-linecap:square;stroke-width:1.5;"/>
   </g>
   <g id="line2d_22">
    <path clip-path="url(#p8012fed1cb)" d="M 106.53 209.91594 
L 110.291069 210.177194 
L 114.052137 210.959442 
L 117.813206 214.318448 
L 129.096412 196.964686 
L 132.857481 205.898729 
L 136.61855 206.907686 
L 140.379618 195.300376 
L 144.140687 205.412551 
L 155.423893 208.256879 
L 159.184962 216.497299 
L 162.946031 213.752674 
L 166.707099 218.026785 
L 170.468168 216.765607 
L 181.751374 204.195416 
L 185.512443 203.076905 
L 189.273511 205.354 
L 193.03458 208.713521 
L 196.795649 198.123209 
L 208.078855 211.774237 
L 211.839924 221.419762 
L 215.600992 222.829036 
L 219.362061 211.497412 
L 223.12313 212.188531 
L 234.406336 221.433136 
L 238.167405 203.417501 
L 241.928473 204.728039 
L 245.689542 188.894188 
L 249.450611 175.511223 
L 260.733817 175.824796 
L 264.494885 160.59767 
L 268.255954 158.045744 
L 272.017023 164.39 
L 275.778092 153.763765 
L 287.061298 149.851322 
L 290.822366 138.199723 
L 294.583435 135.234982 
L 298.344504 134.067635 
L 302.105573 135.317504 
L 313.388779 137.29021 
L 317.149847 131.674908 
L 320.910916 120.019602 
L 324.671985 115.634626 
L 328.433053 127.846974 
L 339.71626 141.49156 
L 343.477328 151.13109 
L 347.238397 141.259939 
L 350.999466 160.781575 
L 354.760534 163.507044 
L 366.04374 166.425653 
L 369.804809 165.606864 
L 373.565878 167.676408 
L 377.326947 176.0791 
L 381.088015 165.564137 
L 392.371221 170.846913 
L 396.13229 178.297265 
L 399.893359 172.722989 
L 403.654427 176.606884 
L 407.415496 185.155288 
L 418.698702 186.934509 
L 422.459771 178.393498 
L 426.22084 173.982459 
L 429.981908 179.359022 
L 433.742977 166.694179 
L 445.026183 165.348792 
L 448.787252 150.197401 
L 452.548321 145.935279 
L 456.309389 154.146015 
L 460.070458 142.15582 
L 471.353664 137.775665 
L 475.114733 137.472424 
L 478.875802 137.531748 
L 482.63687 131.514832 
L 486.397939 120.114504 
L 497.681145 127.903848 
L 501.442214 120.42081 
L 505.203282 109.053741 
L 508.964351 122.788071 
L 512.72542 120.349048 
L 524.008626 119.056282 
L 527.769695 106.770852 
L 531.530763 103.517209 
L 535.291832 101.599258 
L 539.052901 93.678228 
L 550.336107 88.688584 
L 554.097176 95.237585 
L 557.858244 92.639781 
L 561.619313 103.451118 
L 565.380382 84.947105 
L 576.663588 76.366281 
L 580.424656 69.485625 
L 584.185725 82.395843 
L 591.707863 67.217075 
L 602.991069 59.807223 
L 606.752137 65.569814 
L 610.513206 73.139996 
L 614.274275 86.35169 
L 618.035344 89.817113 
L 629.31855 77.204765 
L 633.079618 80.668729 
L 636.840687 66.39675 
L 640.601756 63.089853 
L 644.362824 60.827253 
L 655.646031 81.111874 
L 659.407099 71.87269 
L 663.168168 59.268148 
L 666.929237 77.01649 
L 670.690305 57.66505 
L 681.973511 46.241397 
L 685.73458 40.455455 
L 689.495649 46.276888 
L 693.256718 47.712228 
L 697.017786 42.121547 
L 708.300992 44.49491 
L 712.062061 58.99185 
L 715.82313 66.854141 
L 719.584198 80.497428 
L 723.345267 80.531275 
L 734.628473 71.600095 
L 738.389542 69.928418 
L 742.150611 74.058326 
L 745.911679 69.14145 
L 749.672748 67.620951 
L 760.955954 84.809751 
L 764.717023 87.744093 
L 768.478092 79.897112 
L 772.23916 76.626619 
L 776.000229 67.258132 
L 787.283435 76.641998 
L 791.044504 71.806607 
L 794.805573 71.454071 
L 798.566641 71.510703 
L 802.32771 66.974622 
L 813.610916 83.328292 
L 817.371985 81.518777 
L 821.133053 81.313966 
L 824.894122 88.731462 
L 828.655191 83.318766 
L 839.938397 78.034434 
L 843.699466 65.987415 
L 847.460534 56.647828 
L 851.221603 54.086897 
L 854.982672 47.553385 
L 866.265878 47.538084 
L 870.026947 59.478201 
L 873.788015 77.527804 
L 877.549084 78.147908 
L 881.310153 91.319122 
L 892.593359 106.03982 
L 896.354427 91.821254 
L 900.115496 94.984778 
L 903.876565 83.287646 
L 907.637634 80.223876 
L 918.92084 82.32249 
L 922.681908 98.386296 
L 926.442977 101.34126 
L 930.204046 107.170071 
L 933.965115 102.390104 
L 945.248321 108.333761 
L 949.009389 117.947086 
L 952.770458 139.253265 
L 956.531527 146.56504 
L 960.292595 147.489739 
L 971.575802 139.977488 
L 975.33687 135.465617 
L 979.097939 132.219634 
L 982.859008 127.768782 
L 986.620076 128.929192 
L 997.903282 125.28231 
L 1001.664351 129.386403 
L 1005.42542 129.913987 
L 1009.186489 141.502711 
L 1012.947557 160.584416 
L 1024.230763 174.483086 
L 1027.991832 160.175484 
L 1031.752901 157.107775 
L 1035.513969 161.302901 
L 1039.275038 162.780879 
L 1050.558244 155.314543 
L 1054.319313 154.949365 
L 1058.080382 154.828987 
L 1061.84145 149.974983 
L 1065.602519 152.963013 
L 1076.885725 140.359649 
L 1080.646794 138.902456 
L 1084.407863 155.057866 
L 1088.168931 147.018516 
L 1091.93 147.018516 
L 1091.93 147.018516 
" style="fill:none;stroke:#bcbd22;stroke-linecap:square;stroke-width:1.5;"/>
   </g>
   <g id="patch_3">
    <path d="M 57.26 345.7 
L 57.26 25.92 
" style="fill:none;stroke:#000000;stroke-linecap:square;stroke-linejoin:miter;stroke-width:0.8;"/>
   </g>
   <g id="patch_4">
    <path d="M 1141.2 345.7 
L 1141.2 25.92 
" style="fill:none;stroke:#000000;stroke-linecap:square;stroke-linejoin:miter;stroke-width:0.8;"/>
   </g>
   <g id="patch_5">
    <path d="M 57.26 345.7 
L 1141.2 345.7 
" style="fill:none;stroke:#000000;stroke-linecap:square;stroke-linejoin:miter;stroke-width:0.8;"/>
   </g>
   <g id="patch_6">
    <path d="M 57.26 25.92 
L 1141.2 25.92 
" style="fill:none;stroke:#000000;stroke-linecap:square;stroke-linejoin:miter;stroke-width:0.8;"/>
   </g>
   <g id="text_10">
    <!-- Cumulative Log Return: (2010-01-19 ~ 2010-10-08) -->
    <g transform="translate(443.352813 19.92)scale(0.12 -0.12)">
     <defs>
      <path d="M 64.40625 67.28125 
L 64.40625 56.890625 
Q 59.421875 61.53125 53.78125 63.8125 
Q 48.140625 66.109375 41.796875 66.109375 
Q 29.296875 66.109375 22.65625 58.46875 
Q 16.015625 50.828125 16.015625 36.375 
Q 16.015625 21.96875 22.65625 14.328125 
Q 29.296875 6.6875 41.796875 6.6875 
Q 48.140625 6.6875 53.78125 8.984375 
Q 59.421875 11.28125 64.40625 15.921875 
L 64.40625 5.609375 
Q 59.234375 2.09375 53.4375 0.328125 
Q 47.65625 -1.421875 41.21875 -1.421875 
Q 24.65625 -1.421875 15.125 8.703125 
Q 5.609375 18.84375 5.609375 36.375 
Q 5.609375 53.953125 15.125 64.078125 
Q 24.65625 74.21875 41.21875 74.21875 
Q 47.75 74.21875 53.53125 72.484375 
Q 59.328125 70.75 64.40625 67.28125 
z
" id="DejaVuSans-67"/>
      <path d="M 34.28125 27.484375 
Q 23.390625 27.484375 19.1875 25 
Q 14.984375 22.515625 14.984375 16.5 
Q 14.984375 11.71875 18.140625 8.90625 
Q 21.296875 6.109375 26.703125 6.109375 
Q 34.1875 6.109375 38.703125 11.40625 
Q 43.21875 16.703125 43.21875 25.484375 
L 43.21875 27.484375 
z
M 52.203125 31.203125 
L 52.203125 0 
L 43.21875 0 
L 43.21875 8.296875 
Q 40.140625 3.328125 35.546875 0.953125 
Q 30.953125 -1.421875 24.3125 -1.421875 
Q 15.921875 -1.421875 10.953125 3.296875 
Q 6 8.015625 6 15.921875 
Q 6 25.140625 12.171875 29.828125 
Q 18.359375 34.515625 30.609375 34.515625 
L 43.21875 34.515625 
L 43.21875 35.40625 
Q 43.21875 41.609375 39.140625 45 
Q 35.0625 48.390625 27.6875 48.390625 
Q 23 48.390625 18.546875 47.265625 
Q 14.109375 46.140625 10.015625 43.890625 
L 10.015625 52.203125 
Q 14.9375 54.109375 19.578125 55.046875 
Q 24.21875 56 28.609375 56 
Q 40.484375 56 46.34375 49.84375 
Q 52.203125 43.703125 52.203125 31.203125 
z
" id="DejaVuSans-97"/>
      <path d="M 9.421875 54.6875 
L 18.40625 54.6875 
L 18.40625 0 
L 9.421875 0 
z
M 9.421875 75.984375 
L 18.40625 75.984375 
L 18.40625 64.59375 
L 9.421875 64.59375 
z
" id="DejaVuSans-105"/>
      <path d="M 2.984375 54.6875 
L 12.5 54.6875 
L 29.59375 8.796875 
L 46.6875 54.6875 
L 56.203125 54.6875 
L 35.6875 0 
L 23.484375 0 
z
" id="DejaVuSans-118"/>
      <path d="M 9.8125 72.90625 
L 19.671875 72.90625 
L 19.671875 8.296875 
L 55.171875 8.296875 
L 55.171875 0 
L 9.8125 0 
z
" id="DejaVuSans-76"/>
      <path d="M 44.390625 34.1875 
Q 47.5625 33.109375 50.5625 29.59375 
Q 53.5625 26.078125 56.59375 19.921875 
L 66.609375 0 
L 56 0 
L 46.6875 18.703125 
Q 43.0625 26.03125 39.671875 28.421875 
Q 36.28125 30.8125 30.421875 30.8125 
L 19.671875 30.8125 
L 19.671875 0 
L 9.8125 0 
L 9.8125 72.90625 
L 32.078125 72.90625 
Q 44.578125 72.90625 50.734375 67.671875 
Q 56.890625 62.453125 56.890625 51.90625 
Q 56.890625 45.015625 53.6875 40.46875 
Q 50.484375 35.9375 44.390625 34.1875 
z
M 19.671875 64.796875 
L 19.671875 38.921875 
L 32.078125 38.921875 
Q 39.203125 38.921875 42.84375 42.21875 
Q 46.484375 45.515625 46.484375 51.90625 
Q 46.484375 58.296875 42.84375 61.546875 
Q 39.203125 64.796875 32.078125 64.796875 
z
" id="DejaVuSans-82"/>
      <path d="M 11.71875 12.40625 
L 22.015625 12.40625 
L 22.015625 0 
L 11.71875 0 
z
M 11.71875 51.703125 
L 22.015625 51.703125 
L 22.015625 39.3125 
L 11.71875 39.3125 
z
" id="DejaVuSans-58"/>
      <path d="M 31 75.875 
Q 24.46875 64.65625 21.28125 53.65625 
Q 18.109375 42.671875 18.109375 31.390625 
Q 18.109375 20.125 21.3125 9.0625 
Q 24.515625 -2 31 -13.1875 
L 23.1875 -13.1875 
Q 15.875 -1.703125 12.234375 9.375 
Q 8.59375 20.453125 8.59375 31.390625 
Q 8.59375 42.28125 12.203125 53.3125 
Q 15.828125 64.359375 23.1875 75.875 
z
" id="DejaVuSans-40"/>
      <path d="M 10.984375 1.515625 
L 10.984375 10.5 
Q 14.703125 8.734375 18.5 7.8125 
Q 22.3125 6.890625 25.984375 6.890625 
Q 35.75 6.890625 40.890625 13.453125 
Q 46.046875 20.015625 46.78125 33.40625 
Q 43.953125 29.203125 39.59375 26.953125 
Q 35.25 24.703125 29.984375 24.703125 
Q 19.046875 24.703125 12.671875 31.3125 
Q 6.296875 37.9375 6.296875 49.421875 
Q 6.296875 60.640625 12.9375 67.421875 
Q 19.578125 74.21875 30.609375 74.21875 
Q 43.265625 74.21875 49.921875 64.515625 
Q 56.59375 54.828125 56.59375 36.375 
Q 56.59375 19.140625 48.40625 8.859375 
Q 40.234375 -1.421875 26.421875 -1.421875 
Q 22.703125 -1.421875 18.890625 -0.6875 
Q 15.09375 0.046875 10.984375 1.515625 
z
M 30.609375 32.421875 
Q 37.25 32.421875 41.125 36.953125 
Q 45.015625 41.5 45.015625 49.421875 
Q 45.015625 57.28125 41.125 61.84375 
Q 37.25 66.40625 30.609375 66.40625 
Q 23.96875 66.40625 20.09375 61.84375 
Q 16.21875 57.28125 16.21875 49.421875 
Q 16.21875 41.5 20.09375 36.953125 
Q 23.96875 32.421875 30.609375 32.421875 
z
" id="DejaVuSans-57"/>
      <path d="M 73.1875 39.890625 
L 73.1875 31.203125 
Q 68.0625 27.34375 63.6875 25.6875 
Q 59.328125 24.03125 54.59375 24.03125 
Q 49.21875 24.03125 42.09375 26.90625 
Q 41.546875 27.09375 41.3125 27.203125 
Q 40.96875 27.34375 40.234375 27.59375 
Q 32.671875 30.609375 28.078125 30.609375 
Q 23.78125 30.609375 19.578125 28.734375 
Q 15.375 26.859375 10.59375 22.796875 
L 10.59375 31.5 
Q 15.71875 35.359375 20.09375 37.03125 
Q 24.46875 38.71875 29.203125 38.71875 
Q 34.578125 38.71875 41.75 35.796875 
Q 42.234375 35.59375 42.484375 35.5 
Q 42.875 35.359375 43.5625 35.109375 
Q 51.125 32.078125 55.71875 32.078125 
Q 59.90625 32.078125 64.03125 33.9375 
Q 68.171875 35.796875 73.1875 39.890625 
z
" id="DejaVuSans-126"/>
      <path d="M 31.78125 34.625 
Q 24.75 34.625 20.71875 30.859375 
Q 16.703125 27.09375 16.703125 20.515625 
Q 16.703125 13.921875 20.71875 10.15625 
Q 24.75 6.390625 31.78125 6.390625 
Q 38.8125 6.390625 42.859375 10.171875 
Q 46.921875 13.96875 46.921875 20.515625 
Q 46.921875 27.09375 42.890625 30.859375 
Q 38.875 34.625 31.78125 34.625 
z
M 21.921875 38.8125 
Q 15.578125 40.375 12.03125 44.71875 
Q 8.5 49.078125 8.5 55.328125 
Q 8.5 64.0625 14.71875 69.140625 
Q 20.953125 74.21875 31.78125 74.21875 
Q 42.671875 74.21875 48.875 69.140625 
Q 55.078125 64.0625 55.078125 55.328125 
Q 55.078125 49.078125 51.53125 44.71875 
Q 48 40.375 41.703125 38.8125 
Q 48.828125 37.15625 52.796875 32.3125 
Q 56.78125 27.484375 56.78125 20.515625 
Q 56.78125 9.90625 50.3125 4.234375 
Q 43.84375 -1.421875 31.78125 -1.421875 
Q 19.734375 -1.421875 13.25 4.234375 
Q 6.78125 9.90625 6.78125 20.515625 
Q 6.78125 27.484375 10.78125 32.3125 
Q 14.796875 37.15625 21.921875 38.8125 
z
M 18.3125 54.390625 
Q 18.3125 48.734375 21.84375 45.5625 
Q 25.390625 42.390625 31.78125 42.390625 
Q 38.140625 42.390625 41.71875 45.5625 
Q 45.3125 48.734375 45.3125 54.390625 
Q 45.3125 60.0625 41.71875 63.234375 
Q 38.140625 66.40625 31.78125 66.40625 
Q 25.390625 66.40625 21.84375 63.234375 
Q 18.3125 60.0625 18.3125 54.390625 
z
" id="DejaVuSans-56"/>
      <path d="M 8.015625 75.875 
L 15.828125 75.875 
Q 23.140625 64.359375 26.78125 53.3125 
Q 30.421875 42.28125 30.421875 31.390625 
Q 30.421875 20.453125 26.78125 9.375 
Q 23.140625 -1.703125 15.828125 -13.1875 
L 8.015625 -13.1875 
Q 14.5 -2 17.703125 9.0625 
Q 20.90625 20.125 20.90625 31.390625 
Q 20.90625 42.671875 17.703125 53.65625 
Q 14.5 64.65625 8.015625 75.875 
z
" id="DejaVuSans-41"/>
     </defs>
     <use xlink:href="#DejaVuSans-67"/>
     <use x="69.824219" xlink:href="#DejaVuSans-117"/>
     <use x="133.203125" xlink:href="#DejaVuSans-109"/>
     <use x="230.615234" xlink:href="#DejaVuSans-117"/>
     <use x="293.994141" xlink:href="#DejaVuSans-108"/>
     <use x="321.777344" xlink:href="#DejaVuSans-97"/>
     <use x="383.056641" xlink:href="#DejaVuSans-116"/>
     <use x="422.265625" xlink:href="#DejaVuSans-105"/>
     <use x="450.048828" xlink:href="#DejaVuSans-118"/>
     <use x="509.228516" xlink:href="#DejaVuSans-101"/>
     <use x="570.751953" xlink:href="#DejaVuSans-32"/>
     <use x="602.539062" xlink:href="#DejaVuSans-76"/>
     <use x="656.501953" xlink:href="#DejaVuSans-111"/>
     <use x="717.683594" xlink:href="#DejaVuSans-103"/>
     <use x="781.160156" xlink:href="#DejaVuSans-32"/>
     <use x="812.947266" xlink:href="#DejaVuSans-82"/>
     <use x="877.929688" xlink:href="#DejaVuSans-101"/>
     <use x="939.453125" xlink:href="#DejaVuSans-116"/>
     <use x="978.662109" xlink:href="#DejaVuSans-117"/>
     <use x="1042.041016" xlink:href="#DejaVuSans-114"/>
     <use x="1081.404297" xlink:href="#DejaVuSans-110"/>
     <use x="1144.783203" xlink:href="#DejaVuSans-58"/>
     <use x="1178.474609" xlink:href="#DejaVuSans-32"/>
     <use x="1210.261719" xlink:href="#DejaVuSans-40"/>
     <use x="1249.275391" xlink:href="#DejaVuSans-50"/>
     <use x="1312.898438" xlink:href="#DejaVuSans-48"/>
     <use x="1376.521484" xlink:href="#DejaVuSans-49"/>
     <use x="1440.144531" xlink:href="#DejaVuSans-48"/>
     <use x="1503.767578" xlink:href="#DejaVuSans-45"/>
     <use x="1539.851562" xlink:href="#DejaVuSans-48"/>
     <use x="1603.474609" xlink:href="#DejaVuSans-49"/>
     <use x="1667.097656" xlink:href="#DejaVuSans-45"/>
     <use x="1703.181641" xlink:href="#DejaVuSans-49"/>
     <use x="1766.804688" xlink:href="#DejaVuSans-57"/>
     <use x="1830.427734" xlink:href="#DejaVuSans-32"/>
     <use x="1862.214844" xlink:href="#DejaVuSans-126"/>
     <use x="1946.003906" xlink:href="#DejaVuSans-32"/>
     <use x="1977.791016" xlink:href="#DejaVuSans-50"/>
     <use x="2041.414062" xlink:href="#DejaVuSans-48"/>
     <use x="2105.037109" xlink:href="#DejaVuSans-49"/>
     <use x="2168.660156" xlink:href="#DejaVuSans-48"/>
     <use x="2232.283203" xlink:href="#DejaVuSans-45"/>
     <use x="2268.367188" xlink:href="#DejaVuSans-49"/>
     <use x="2331.990234" xlink:href="#DejaVuSans-48"/>
     <use x="2395.613281" xlink:href="#DejaVuSans-45"/>
     <use x="2431.697266" xlink:href="#DejaVuSans-48"/>
     <use x="2495.320312" xlink:href="#DejaVuSans-56"/>
     <use x="2558.943359" xlink:href="#DejaVuSans-41"/>
    </g>
   </g>
   <g id="legend_1">
    <g id="patch_7">
     <path d="M 64.26 123.379375 
L 160.749062 123.379375 
Q 162.749062 123.379375 162.749062 121.379375 
L 162.749062 32.92 
Q 162.749062 30.92 160.749062 30.92 
L 64.26 30.92 
Q 62.26 30.92 62.26 32.92 
L 62.26 121.379375 
Q 62.26 123.379375 64.26 123.379375 
z
" style="fill:#ffffff;opacity:0.8;stroke:#cccccc;stroke-linejoin:miter;"/>
    </g>
    <g id="line2d_23">
     <path d="M 66.26 39.018438 
L 86.26 39.018438 
" style="fill:none;stroke:#9467bd;stroke-linecap:square;stroke-width:1.5;"/>
    </g>
    <g id="line2d_24"/>
    <g id="text_11">
     <!-- group_5 -->
     <g transform="translate(94.26 42.518438)scale(0.1 -0.1)">
      <defs>
       <path d="M 18.109375 8.203125 
L 18.109375 -20.796875 
L 9.078125 -20.796875 
L 9.078125 54.6875 
L 18.109375 54.6875 
L 18.109375 46.390625 
Q 20.953125 51.265625 25.265625 53.625 
Q 29.59375 56 35.59375 56 
Q 45.5625 56 51.78125 48.09375 
Q 58.015625 40.1875 58.015625 27.296875 
Q 58.015625 14.40625 51.78125 6.484375 
Q 45.5625 -1.421875 35.59375 -1.421875 
Q 29.59375 -1.421875 25.265625 0.953125 
Q 20.953125 3.328125 18.109375 8.203125 
z
M 48.6875 27.296875 
Q 48.6875 37.203125 44.609375 42.84375 
Q 40.53125 48.484375 33.40625 48.484375 
Q 26.265625 48.484375 22.1875 42.84375 
Q 18.109375 37.203125 18.109375 27.296875 
Q 18.109375 17.390625 22.1875 11.75 
Q 26.265625 6.109375 33.40625 6.109375 
Q 40.53125 6.109375 44.609375 11.75 
Q 48.6875 17.390625 48.6875 27.296875 
z
" id="DejaVuSans-112"/>
       <path d="M 50.984375 -16.609375 
L 50.984375 -23.578125 
L -0.984375 -23.578125 
L -0.984375 -16.609375 
z
" id="DejaVuSans-95"/>
      </defs>
      <use xlink:href="#DejaVuSans-103"/>
      <use x="63.476562" xlink:href="#DejaVuSans-114"/>
      <use x="102.339844" xlink:href="#DejaVuSans-111"/>
      <use x="163.521484" xlink:href="#DejaVuSans-117"/>
      <use x="226.900391" xlink:href="#DejaVuSans-112"/>
      <use x="290.376953" xlink:href="#DejaVuSans-95"/>
      <use x="340.376953" xlink:href="#DejaVuSans-53"/>
     </g>
    </g>
    <g id="line2d_25">
     <path d="M 66.26 53.974688 
L 86.26 53.974688 
" style="fill:none;stroke:#1f77b4;stroke-linecap:square;stroke-width:1.5;"/>
    </g>
    <g id="line2d_26"/>
    <g id="text_12">
     <!-- group_1 -->
     <g transform="translate(94.26 57.474688)scale(0.1 -0.1)">
      <use xlink:href="#DejaVuSans-103"/>
      <use x="63.476562" xlink:href="#DejaVuSans-114"/>
      <use x="102.339844" xlink:href="#DejaVuSans-111"/>
      <use x="163.521484" xlink:href="#DejaVuSans-117"/>
      <use x="226.900391" xlink:href="#DejaVuSans-112"/>
      <use x="290.376953" xlink:href="#DejaVuSans-95"/>
      <use x="340.376953" xlink:href="#DejaVuSans-49"/>
     </g>
    </g>
    <g id="line2d_27">
     <path d="M 66.26 68.930938 
L 86.26 68.930938 
" style="fill:none;stroke:#8c564b;stroke-linecap:square;stroke-width:1.5;"/>
    </g>
    <g id="line2d_28"/>
    <g id="text_13">
     <!-- benchmark -->
     <g transform="translate(94.26 72.430938)scale(0.1 -0.1)">
      <defs>
       <path d="M 48.6875 27.296875 
Q 48.6875 37.203125 44.609375 42.84375 
Q 40.53125 48.484375 33.40625 48.484375 
Q 26.265625 48.484375 22.1875 42.84375 
Q 18.109375 37.203125 18.109375 27.296875 
Q 18.109375 17.390625 22.1875 11.75 
Q 26.265625 6.109375 33.40625 6.109375 
Q 40.53125 6.109375 44.609375 11.75 
Q 48.6875 17.390625 48.6875 27.296875 
z
M 18.109375 46.390625 
Q 20.953125 51.265625 25.265625 53.625 
Q 29.59375 56 35.59375 56 
Q 45.5625 56 51.78125 48.09375 
Q 58.015625 40.1875 58.015625 27.296875 
Q 58.015625 14.40625 51.78125 6.484375 
Q 45.5625 -1.421875 35.59375 -1.421875 
Q 29.59375 -1.421875 25.265625 0.953125 
Q 20.953125 3.328125 18.109375 8.203125 
L 18.109375 0 
L 9.078125 0 
L 9.078125 75.984375 
L 18.109375 75.984375 
z
" id="DejaVuSans-98"/>
       <path d="M 54.890625 33.015625 
L 54.890625 0 
L 45.90625 0 
L 45.90625 32.71875 
Q 45.90625 40.484375 42.875 44.328125 
Q 39.84375 48.1875 33.796875 48.1875 
Q 26.515625 48.1875 22.3125 43.546875 
Q 18.109375 38.921875 18.109375 30.90625 
L 18.109375 0 
L 9.078125 0 
L 9.078125 75.984375 
L 18.109375 75.984375 
L 18.109375 46.1875 
Q 21.34375 51.125 25.703125 53.5625 
Q 30.078125 56 35.796875 56 
Q 45.21875 56 50.046875 50.171875 
Q 54.890625 44.34375 54.890625 33.015625 
z
" id="DejaVuSans-104"/>
       <path d="M 9.078125 75.984375 
L 18.109375 75.984375 
L 18.109375 31.109375 
L 44.921875 54.6875 
L 56.390625 54.6875 
L 27.390625 29.109375 
L 57.625 0 
L 45.90625 0 
L 18.109375 26.703125 
L 18.109375 0 
L 9.078125 0 
z
" id="DejaVuSans-107"/>
      </defs>
      <use xlink:href="#DejaVuSans-98"/>
      <use x="63.476562" xlink:href="#DejaVuSans-101"/>
      <use x="125" xlink:href="#DejaVuSans-110"/>
      <use x="188.378906" xlink:href="#DejaVuSans-99"/>
      <use x="243.359375" xlink:href="#DejaVuSans-104"/>
      <use x="306.738281" xlink:href="#DejaVuSans-109"/>
      <use x="404.150391" xlink:href="#DejaVuSans-97"/>
      <use x="465.429688" xlink:href="#DejaVuSans-114"/>
      <use x="506.542969" xlink:href="#DejaVuSans-107"/>
     </g>
    </g>
    <g id="line2d_29">
     <path d="M 66.26 83.609062 
L 86.26 83.609062 
" style="fill:none;stroke:#e377c2;stroke-linecap:square;stroke-width:1.5;"/>
    </g>
    <g id="line2d_30"/>
    <g id="text_14">
     <!-- long_excess -->
     <g transform="translate(94.26 87.109062)scale(0.1 -0.1)">
      <defs>
       <path d="M 54.890625 54.6875 
L 35.109375 28.078125 
L 55.90625 0 
L 45.3125 0 
L 29.390625 21.484375 
L 13.484375 0 
L 2.875 0 
L 24.125 28.609375 
L 4.6875 54.6875 
L 15.28125 54.6875 
L 29.78125 35.203125 
L 44.28125 54.6875 
z
" id="DejaVuSans-120"/>
      </defs>
      <use xlink:href="#DejaVuSans-108"/>
      <use x="27.783203" xlink:href="#DejaVuSans-111"/>
      <use x="88.964844" xlink:href="#DejaVuSans-110"/>
      <use x="152.34375" xlink:href="#DejaVuSans-103"/>
      <use x="215.820312" xlink:href="#DejaVuSans-95"/>
      <use x="265.820312" xlink:href="#DejaVuSans-101"/>
      <use x="325.59375" xlink:href="#DejaVuSans-120"/>
      <use x="383.023438" xlink:href="#DejaVuSans-99"/>
      <use x="438.003906" xlink:href="#DejaVuSans-101"/>
      <use x="499.527344" xlink:href="#DejaVuSans-115"/>
      <use x="551.626953" xlink:href="#DejaVuSans-115"/>
     </g>
    </g>
    <g id="line2d_31">
     <path d="M 66.26 98.565313 
L 86.26 98.565313 
" style="fill:none;stroke:#7f7f7f;stroke-linecap:square;stroke-width:1.5;"/>
    </g>
    <g id="line2d_32"/>
    <g id="text_15">
     <!-- short_excess -->
     <g transform="translate(94.26 102.065313)scale(0.1 -0.1)">
      <use xlink:href="#DejaVuSans-115"/>
      <use x="52.099609" xlink:href="#DejaVuSans-104"/>
      <use x="115.478516" xlink:href="#DejaVuSans-111"/>
      <use x="176.660156" xlink:href="#DejaVuSans-114"/>
      <use x="217.773438" xlink:href="#DejaVuSans-116"/>
      <use x="256.982422" xlink:href="#DejaVuSans-95"/>
      <use x="306.982422" xlink:href="#DejaVuSans-101"/>
      <use x="366.755859" xlink:href="#DejaVuSans-120"/>
      <use x="424.185547" xlink:href="#DejaVuSans-99"/>
      <use x="479.166016" xlink:href="#DejaVuSans-101"/>
      <use x="540.689453" xlink:href="#DejaVuSans-115"/>
      <use x="592.789062" xlink:href="#DejaVuSans-115"/>
     </g>
    </g>
    <g id="line2d_33">
     <path d="M 66.26 113.521563 
L 86.26 113.521563 
" style="fill:none;stroke:#bcbd22;stroke-linecap:square;stroke-width:1.5;"/>
    </g>
    <g id="line2d_34"/>
    <g id="text_16">
     <!-- long_short -->
     <g transform="translate(94.26 117.021563)scale(0.1 -0.1)">
      <use xlink:href="#DejaVuSans-108"/>
      <use x="27.783203" xlink:href="#DejaVuSans-111"/>
      <use x="88.964844" xlink:href="#DejaVuSans-110"/>
      <use x="152.34375" xlink:href="#DejaVuSans-103"/>
      <use x="215.820312" xlink:href="#DejaVuSans-95"/>
      <use x="265.820312" xlink:href="#DejaVuSans-115"/>
      <use x="317.919922" xlink:href="#DejaVuSans-104"/>
      <use x="381.298828" xlink:href="#DejaVuSans-111"/>
      <use x="442.480469" xlink:href="#DejaVuSans-114"/>
      <use x="483.59375" xlink:href="#DejaVuSans-116"/>
     </g>
    </g>
   </g>
  </g>
 </g>
 <defs>
  <clipPath id="p8012fed1cb">
   <rect height="319.78" width="1083.94" x="57.26" y="25.92"/>
  </clipPath>
 </defs>
</svg>
