<?xml version="1.0" encoding="utf-8" standalone="no"?>
<!DOCTYPE svg PUBLIC "-//W3C//DTD SVG 1.1//EN"
  "http://www.w3.org/Graphics/SVG/1.1/DTD/svg11.dtd">
<!-- Created with matplotlib (https://matplotlib.org/) -->
<svg height="374.4pt" version="1.1" viewBox="0 0 1152 374.4" width="1152pt" xmlns="http://www.w3.org/2000/svg" xmlns:xlink="http://www.w3.org/1999/xlink">
 <metadata>
  <rdf:RDF xmlns:cc="http://creativecommons.org/ns#" xmlns:dc="http://purl.org/dc/elements/1.1/" xmlns:rdf="http://www.w3.org/1999/02/22-rdf-syntax-ns#">
   <cc:Work>
    <dc:type rdf:resource="http://purl.org/dc/dcmitype/StillImage"/>
    <dc:date>2023-10-11T17:00:30.292697</dc:date>
    <dc:format>image/svg+xml</dc:format>
    <dc:creator>
     <cc:Agent>
      <dc:title>Matplotlib v3.3.4, https://matplotlib.org/</dc:title>
     </cc:Agent>
    </dc:creator>
   </cc:Work>
  </rdf:RDF>
 </metadata>
 <defs>
  <style type="text/css">*{stroke-linecap:butt;stroke-linejoin:round;}</style>
 </defs>
 <g id="figure_1">
  <g id="patch_1">
   <path d="M 0 374.4 
L 1152 374.4 
L 1152 0 
L 0 0 
z
" style="fill:#ffffff;"/>
  </g>
  <g id="axes_1">
   <g id="patch_2">
    <path d="M 47.3 360.1 
L 1141.2 360.1 
L 1141.2 25.92 
L 47.3 25.92 
z
" style="fill:#ffffff;"/>
   </g>
   <g id="matplotlib.axis_1"/>
   <g id="matplotlib.axis_2">
    <g id="ytick_1">
     <g id="line2d_1">
      <path clip-path="url(#p10cd4f5226)" d="M 47.3 336.875126 
L 1141.2 336.875126 
" style="fill:none;stroke:#b0b0b0;stroke-linecap:square;stroke-width:0.8;"/>
     </g>
     <g id="line2d_2">
      <defs>
       <path d="M 0 0 
L -3.5 0 
" id="m8c9e16a83e" style="stroke:#000000;stroke-width:0.8;"/>
      </defs>
      <g>
       <use style="stroke:#000000;stroke-width:0.8;" x="47.3" xlink:href="#m8c9e16a83e" y="336.875126"/>
      </g>
     </g>
     <g id="text_1">
      <!-- 0.5 -->
      <g transform="translate(24.396875 340.674345)scale(0.1 -0.1)">
       <defs>
        <path d="M 31.78125 66.40625 
Q 24.171875 66.40625 20.328125 58.90625 
Q 16.5 51.421875 16.5 36.375 
Q 16.5 21.390625 20.328125 13.890625 
Q 24.171875 6.390625 31.78125 6.390625 
Q 39.453125 6.390625 43.28125 13.890625 
Q 47.125 21.390625 47.125 36.375 
Q 47.125 51.421875 43.28125 58.90625 
Q 39.453125 66.40625 31.78125 66.40625 
z
M 31.78125 74.21875 
Q 44.046875 74.21875 50.515625 64.515625 
Q 56.984375 54.828125 56.984375 36.375 
Q 56.984375 17.96875 50.515625 8.265625 
Q 44.046875 -1.421875 31.78125 -1.421875 
Q 19.53125 -1.421875 13.0625 8.265625 
Q 6.59375 17.96875 6.59375 36.375 
Q 6.59375 54.828125 13.0625 64.515625 
Q 19.53125 74.21875 31.78125 74.21875 
z
" id="DejaVuSans-48"/>
        <path d="M 10.6875 12.40625 
L 21 12.40625 
L 21 0 
L 10.6875 0 
z
" id="DejaVuSans-46"/>
        <path d="M 10.796875 72.90625 
L 49.515625 72.90625 
L 49.515625 64.59375 
L 19.828125 64.59375 
L 19.828125 46.734375 
Q 21.96875 47.46875 24.109375 47.828125 
Q 26.265625 48.1875 28.421875 48.1875 
Q 40.625 48.1875 47.75 41.5 
Q 54.890625 34.8125 54.890625 23.390625 
Q 54.890625 11.625 47.5625 5.09375 
Q 40.234375 -1.421875 26.90625 -1.421875 
Q 22.3125 -1.421875 17.546875 -0.640625 
Q 12.796875 0.140625 7.71875 1.703125 
L 7.71875 11.625 
Q 12.109375 9.234375 16.796875 8.0625 
Q 21.484375 6.890625 26.703125 6.890625 
Q 35.15625 6.890625 40.078125 11.328125 
Q 45.015625 15.765625 45.015625 23.390625 
Q 45.015625 31 40.078125 35.4375 
Q 35.15625 39.890625 26.703125 39.890625 
Q 22.75 39.890625 18.8125 39.015625 
Q 14.890625 38.140625 10.796875 36.28125 
z
" id="DejaVuSans-53"/>
       </defs>
       <use xlink:href="#DejaVuSans-48"/>
       <use x="63.623047" xlink:href="#DejaVuSans-46"/>
       <use x="95.410156" xlink:href="#DejaVuSans-53"/>
      </g>
     </g>
    </g>
    <g id="ytick_2">
     <g id="line2d_3">
      <path clip-path="url(#p10cd4f5226)" d="M 47.3 293.14774 
L 1141.2 293.14774 
" style="fill:none;stroke:#b0b0b0;stroke-linecap:square;stroke-width:0.8;"/>
     </g>
     <g id="line2d_4">
      <g>
       <use style="stroke:#000000;stroke-width:0.8;" x="47.3" xlink:href="#m8c9e16a83e" y="293.14774"/>
      </g>
     </g>
     <g id="text_2">
      <!-- 1.0 -->
      <g transform="translate(24.396875 296.946959)scale(0.1 -0.1)">
       <defs>
        <path d="M 12.40625 8.296875 
L 28.515625 8.296875 
L 28.515625 63.921875 
L 10.984375 60.40625 
L 10.984375 69.390625 
L 28.421875 72.90625 
L 38.28125 72.90625 
L 38.28125 8.296875 
L 54.390625 8.296875 
L 54.390625 0 
L 12.40625 0 
z
" id="DejaVuSans-49"/>
       </defs>
       <use xlink:href="#DejaVuSans-49"/>
       <use x="63.623047" xlink:href="#DejaVuSans-46"/>
       <use x="95.410156" xlink:href="#DejaVuSans-48"/>
      </g>
     </g>
    </g>
    <g id="ytick_3">
     <g id="line2d_5">
      <path clip-path="url(#p10cd4f5226)" d="M 47.3 249.420354 
L 1141.2 249.420354 
" style="fill:none;stroke:#b0b0b0;stroke-linecap:square;stroke-width:0.8;"/>
     </g>
     <g id="line2d_6">
      <g>
       <use style="stroke:#000000;stroke-width:0.8;" x="47.3" xlink:href="#m8c9e16a83e" y="249.420354"/>
      </g>
     </g>
     <g id="text_3">
      <!-- 1.5 -->
      <g transform="translate(24.396875 253.219573)scale(0.1 -0.1)">
       <use xlink:href="#DejaVuSans-49"/>
       <use x="63.623047" xlink:href="#DejaVuSans-46"/>
       <use x="95.410156" xlink:href="#DejaVuSans-53"/>
      </g>
     </g>
    </g>
    <g id="ytick_4">
     <g id="line2d_7">
      <path clip-path="url(#p10cd4f5226)" d="M 47.3 205.692968 
L 1141.2 205.692968 
" style="fill:none;stroke:#b0b0b0;stroke-linecap:square;stroke-width:0.8;"/>
     </g>
     <g id="line2d_8">
      <g>
       <use style="stroke:#000000;stroke-width:0.8;" x="47.3" xlink:href="#m8c9e16a83e" y="205.692968"/>
      </g>
     </g>
     <g id="text_4">
      <!-- 2.0 -->
      <g transform="translate(24.396875 209.492187)scale(0.1 -0.1)">
       <defs>
        <path d="M 19.1875 8.296875 
L 53.609375 8.296875 
L 53.609375 0 
L 7.328125 0 
L 7.328125 8.296875 
Q 12.9375 14.109375 22.625 23.890625 
Q 32.328125 33.6875 34.8125 36.53125 
Q 39.546875 41.84375 41.421875 45.53125 
Q 43.3125 49.21875 43.3125 52.78125 
Q 43.3125 58.59375 39.234375 62.25 
Q 35.15625 65.921875 28.609375 65.921875 
Q 23.96875 65.921875 18.8125 64.3125 
Q 13.671875 62.703125 7.8125 59.421875 
L 7.8125 69.390625 
Q 13.765625 71.78125 18.9375 73 
Q 24.125 74.21875 28.421875 74.21875 
Q 39.75 74.21875 46.484375 68.546875 
Q 53.21875 62.890625 53.21875 53.421875 
Q 53.21875 48.921875 51.53125 44.890625 
Q 49.859375 40.875 45.40625 35.40625 
Q 44.1875 33.984375 37.640625 27.21875 
Q 31.109375 20.453125 19.1875 8.296875 
z
" id="DejaVuSans-50"/>
       </defs>
       <use xlink:href="#DejaVuSans-50"/>
       <use x="63.623047" xlink:href="#DejaVuSans-46"/>
       <use x="95.410156" xlink:href="#DejaVuSans-48"/>
      </g>
     </g>
    </g>
    <g id="ytick_5">
     <g id="line2d_9">
      <path clip-path="url(#p10cd4f5226)" d="M 47.3 161.965582 
L 1141.2 161.965582 
" style="fill:none;stroke:#b0b0b0;stroke-linecap:square;stroke-width:0.8;"/>
     </g>
     <g id="line2d_10">
      <g>
       <use style="stroke:#000000;stroke-width:0.8;" x="47.3" xlink:href="#m8c9e16a83e" y="161.965582"/>
      </g>
     </g>
     <g id="text_5">
      <!-- 2.5 -->
      <g transform="translate(24.396875 165.7648)scale(0.1 -0.1)">
       <use xlink:href="#DejaVuSans-50"/>
       <use x="63.623047" xlink:href="#DejaVuSans-46"/>
       <use x="95.410156" xlink:href="#DejaVuSans-53"/>
      </g>
     </g>
    </g>
    <g id="ytick_6">
     <g id="line2d_11">
      <path clip-path="url(#p10cd4f5226)" d="M 47.3 118.238196 
L 1141.2 118.238196 
" style="fill:none;stroke:#b0b0b0;stroke-linecap:square;stroke-width:0.8;"/>
     </g>
     <g id="line2d_12">
      <g>
       <use style="stroke:#000000;stroke-width:0.8;" x="47.3" xlink:href="#m8c9e16a83e" y="118.238196"/>
      </g>
     </g>
     <g id="text_6">
      <!-- 3.0 -->
      <g transform="translate(24.396875 122.037414)scale(0.1 -0.1)">
       <defs>
        <path d="M 40.578125 39.3125 
Q 47.65625 37.796875 51.625 33 
Q 55.609375 28.21875 55.609375 21.1875 
Q 55.609375 10.40625 48.1875 4.484375 
Q 40.765625 -1.421875 27.09375 -1.421875 
Q 22.515625 -1.421875 17.65625 -0.515625 
Q 12.796875 0.390625 7.625 2.203125 
L 7.625 11.71875 
Q 11.71875 9.328125 16.59375 8.109375 
Q 21.484375 6.890625 26.8125 6.890625 
Q 36.078125 6.890625 40.9375 10.546875 
Q 45.796875 14.203125 45.796875 21.1875 
Q 45.796875 27.640625 41.28125 31.265625 
Q 36.765625 34.90625 28.71875 34.90625 
L 20.21875 34.90625 
L 20.21875 43.015625 
L 29.109375 43.015625 
Q 36.375 43.015625 40.234375 45.921875 
Q 44.09375 48.828125 44.09375 54.296875 
Q 44.09375 59.90625 40.109375 62.90625 
Q 36.140625 65.921875 28.71875 65.921875 
Q 24.65625 65.921875 20.015625 65.03125 
Q 15.375 64.15625 9.8125 62.3125 
L 9.8125 71.09375 
Q 15.4375 72.65625 20.34375 73.4375 
Q 25.25 74.21875 29.59375 74.21875 
Q 40.828125 74.21875 47.359375 69.109375 
Q 53.90625 64.015625 53.90625 55.328125 
Q 53.90625 49.265625 50.4375 45.09375 
Q 46.96875 40.921875 40.578125 39.3125 
z
" id="DejaVuSans-51"/>
       </defs>
       <use xlink:href="#DejaVuSans-51"/>
       <use x="63.623047" xlink:href="#DejaVuSans-46"/>
       <use x="95.410156" xlink:href="#DejaVuSans-48"/>
      </g>
     </g>
    </g>
    <g id="ytick_7">
     <g id="line2d_13">
      <path clip-path="url(#p10cd4f5226)" d="M 47.3 74.51081 
L 1141.2 74.51081 
" style="fill:none;stroke:#b0b0b0;stroke-linecap:square;stroke-width:0.8;"/>
     </g>
     <g id="line2d_14">
      <g>
       <use style="stroke:#000000;stroke-width:0.8;" x="47.3" xlink:href="#m8c9e16a83e" y="74.51081"/>
      </g>
     </g>
     <g id="text_7">
      <!-- 3.5 -->
      <g transform="translate(24.396875 78.310028)scale(0.1 -0.1)">
       <use xlink:href="#DejaVuSans-51"/>
       <use x="63.623047" xlink:href="#DejaVuSans-46"/>
       <use x="95.410156" xlink:href="#DejaVuSans-53"/>
      </g>
     </g>
    </g>
    <g id="ytick_8">
     <g id="line2d_15">
      <path clip-path="url(#p10cd4f5226)" d="M 47.3 30.783423 
L 1141.2 30.783423 
" style="fill:none;stroke:#b0b0b0;stroke-linecap:square;stroke-width:0.8;"/>
     </g>
     <g id="line2d_16">
      <g>
       <use style="stroke:#000000;stroke-width:0.8;" x="47.3" xlink:href="#m8c9e16a83e" y="30.783423"/>
      </g>
     </g>
     <g id="text_8">
      <!-- 4.0 -->
      <g transform="translate(24.396875 34.582642)scale(0.1 -0.1)">
       <defs>
        <path d="M 37.796875 64.3125 
L 12.890625 25.390625 
L 37.796875 25.390625 
z
M 35.203125 72.90625 
L 47.609375 72.90625 
L 47.609375 25.390625 
L 58.015625 25.390625 
L 58.015625 17.1875 
L 47.609375 17.1875 
L 47.609375 0 
L 37.796875 0 
L 37.796875 17.1875 
L 4.890625 17.1875 
L 4.890625 26.703125 
z
" id="DejaVuSans-52"/>
       </defs>
       <use xlink:href="#DejaVuSans-52"/>
       <use x="63.623047" xlink:href="#DejaVuSans-46"/>
       <use x="95.410156" xlink:href="#DejaVuSans-48"/>
      </g>
     </g>
    </g>
    <g id="text_9">
     <!-- net value -->
     <g transform="translate(18.317187 216.462344)rotate(-90)scale(0.1 -0.1)">
      <defs>
       <path d="M 54.890625 33.015625 
L 54.890625 0 
L 45.90625 0 
L 45.90625 32.71875 
Q 45.90625 40.484375 42.875 44.328125 
Q 39.84375 48.1875 33.796875 48.1875 
Q 26.515625 48.1875 22.3125 43.546875 
Q 18.109375 38.921875 18.109375 30.90625 
L 18.109375 0 
L 9.078125 0 
L 9.078125 54.6875 
L 18.109375 54.6875 
L 18.109375 46.1875 
Q 21.34375 51.125 25.703125 53.5625 
Q 30.078125 56 35.796875 56 
Q 45.21875 56 50.046875 50.171875 
Q 54.890625 44.34375 54.890625 33.015625 
z
" id="DejaVuSans-110"/>
       <path d="M 56.203125 29.59375 
L 56.203125 25.203125 
L 14.890625 25.203125 
Q 15.484375 15.921875 20.484375 11.0625 
Q 25.484375 6.203125 34.421875 6.203125 
Q 39.59375 6.203125 44.453125 7.46875 
Q 49.3125 8.734375 54.109375 11.28125 
L 54.109375 2.78125 
Q 49.265625 0.734375 44.1875 -0.34375 
Q 39.109375 -1.421875 33.890625 -1.421875 
Q 20.796875 -1.421875 13.15625 6.1875 
Q 5.515625 13.8125 5.515625 26.8125 
Q 5.515625 40.234375 12.765625 48.109375 
Q 20.015625 56 32.328125 56 
Q 43.359375 56 49.78125 48.890625 
Q 56.203125 41.796875 56.203125 29.59375 
z
M 47.21875 32.234375 
Q 47.125 39.59375 43.09375 43.984375 
Q 39.0625 48.390625 32.421875 48.390625 
Q 24.90625 48.390625 20.390625 44.140625 
Q 15.875 39.890625 15.1875 32.171875 
z
" id="DejaVuSans-101"/>
       <path d="M 18.3125 70.21875 
L 18.3125 54.6875 
L 36.8125 54.6875 
L 36.8125 47.703125 
L 18.3125 47.703125 
L 18.3125 18.015625 
Q 18.3125 11.328125 20.140625 9.421875 
Q 21.96875 7.515625 27.59375 7.515625 
L 36.8125 7.515625 
L 36.8125 0 
L 27.59375 0 
Q 17.1875 0 13.234375 3.875 
Q 9.28125 7.765625 9.28125 18.015625 
L 9.28125 47.703125 
L 2.6875 47.703125 
L 2.6875 54.6875 
L 9.28125 54.6875 
L 9.28125 70.21875 
z
" id="DejaVuSans-116"/>
       <path id="DejaVuSans-32"/>
       <path d="M 2.984375 54.6875 
L 12.5 54.6875 
L 29.59375 8.796875 
L 46.6875 54.6875 
L 56.203125 54.6875 
L 35.6875 0 
L 23.484375 0 
z
" id="DejaVuSans-118"/>
       <path d="M 34.28125 27.484375 
Q 23.390625 27.484375 19.1875 25 
Q 14.984375 22.515625 14.984375 16.5 
Q 14.984375 11.71875 18.140625 8.90625 
Q 21.296875 6.109375 26.703125 6.109375 
Q 34.1875 6.109375 38.703125 11.40625 
Q 43.21875 16.703125 43.21875 25.484375 
L 43.21875 27.484375 
z
M 52.203125 31.203125 
L 52.203125 0 
L 43.21875 0 
L 43.21875 8.296875 
Q 40.140625 3.328125 35.546875 0.953125 
Q 30.953125 -1.421875 24.3125 -1.421875 
Q 15.921875 -1.421875 10.953125 3.296875 
Q 6 8.015625 6 15.921875 
Q 6 25.140625 12.171875 29.828125 
Q 18.359375 34.515625 30.609375 34.515625 
L 43.21875 34.515625 
L 43.21875 35.40625 
Q 43.21875 41.609375 39.140625 45 
Q 35.0625 48.390625 27.6875 48.390625 
Q 23 48.390625 18.546875 47.265625 
Q 14.109375 46.140625 10.015625 43.890625 
L 10.015625 52.203125 
Q 14.9375 54.109375 19.578125 55.046875 
Q 24.21875 56 28.609375 56 
Q 40.484375 56 46.34375 49.84375 
Q 52.203125 43.703125 52.203125 31.203125 
z
" id="DejaVuSans-97"/>
       <path d="M 9.421875 75.984375 
L 18.40625 75.984375 
L 18.40625 0 
L 9.421875 0 
z
" id="DejaVuSans-108"/>
       <path d="M 8.5 21.578125 
L 8.5 54.6875 
L 17.484375 54.6875 
L 17.484375 21.921875 
Q 17.484375 14.15625 20.5 10.265625 
Q 23.53125 6.390625 29.59375 6.390625 
Q 36.859375 6.390625 41.078125 11.03125 
Q 45.3125 15.671875 45.3125 23.6875 
L 45.3125 54.6875 
L 54.296875 54.6875 
L 54.296875 0 
L 45.3125 0 
L 45.3125 8.40625 
Q 42.046875 3.421875 37.71875 1 
Q 33.40625 -1.421875 27.6875 -1.421875 
Q 18.265625 -1.421875 13.375 4.4375 
Q 8.5 10.296875 8.5 21.578125 
z
M 31.109375 56 
z
" id="DejaVuSans-117"/>
      </defs>
      <use xlink:href="#DejaVuSans-110"/>
      <use x="63.378906" xlink:href="#DejaVuSans-101"/>
      <use x="124.902344" xlink:href="#DejaVuSans-116"/>
      <use x="164.111328" xlink:href="#DejaVuSans-32"/>
      <use x="195.898438" xlink:href="#DejaVuSans-118"/>
      <use x="255.078125" xlink:href="#DejaVuSans-97"/>
      <use x="316.357422" xlink:href="#DejaVuSans-108"/>
      <use x="344.140625" xlink:href="#DejaVuSans-117"/>
      <use x="407.519531" xlink:href="#DejaVuSans-101"/>
     </g>
    </g>
   </g>
   <g id="line2d_17">
    <path clip-path="url(#p10cd4f5226)" d="M 97.022727 295.238652 
L 101.542975 294.879754 
L 106.063223 298.499385 
L 110.583471 297.370131 
L 124.144215 299.377169 
L 128.664463 304.738876 
L 133.184711 306.023529 
L 137.704959 307.169684 
L 142.225207 306.556864 
L 155.78595 305.840539 
L 160.306198 302.70332 
L 164.826446 303.235716 
L 169.346694 305.327488 
L 173.866942 302.995467 
L 187.427686 297.086718 
L 191.947934 299.001721 
L 196.468182 302.840211 
L 200.98843 303.075482 
L 205.508678 304.053007 
L 219.069421 304.7072 
L 223.589669 307.807581 
L 228.109917 310.300417 
L 232.630165 309.831884 
L 237.150413 312.290143 
L 250.711157 314.351434 
L 255.231405 314.788881 
L 259.751653 312.370369 
L 264.271901 314.077613 
L 268.792149 320.10684 
L 282.352893 321.73766 
L 286.87314 320.076441 
L 291.393388 319.594144 
L 295.913636 321.830622 
L 300.433884 320.760599 
L 313.994628 322.955547 
L 318.514876 324.987482 
L 323.035124 323.358925 
L 327.555372 324.936462 
L 345.636364 322.095664 
L 350.156612 323.315647 
L 354.67686 324.117471 
L 359.197107 323.900252 
L 363.717355 326.788564 
L 381.798347 327.83597 
L 386.318595 330.359843 
L 390.838843 328.505472 
L 395.359091 324.096889 
L 408.919835 325.16612 
L 413.440083 326.682823 
L 417.960331 326.773896 
L 422.480579 322.530231 
L 427.000826 324.642894 
L 440.56157 321.116689 
L 445.081818 321.71556 
L 449.602066 323.332318 
L 454.122314 323.444471 
L 458.642562 322.160987 
L 472.203306 323.036895 
L 481.243802 321.48233 
L 485.76405 321.228407 
L 490.284298 321.558379 
L 503.845041 317.669857 
L 508.365289 321.732774 
L 512.885537 323.155745 
L 517.405785 319.631732 
L 521.926033 318.311113 
L 535.486777 316.08997 
L 540.007025 315.12378 
L 544.527273 318.753404 
L 549.047521 316.539113 
L 553.567769 317.601527 
L 567.128512 317.725894 
L 571.64876 316.596595 
L 576.169008 316.876462 
L 580.689256 316.960567 
L 585.209504 313.17866 
L 598.770248 316.034768 
L 603.290496 315.825688 
L 607.810744 316.360322 
L 612.330992 321.071122 
L 616.85124 319.702411 
L 630.411983 320.284003 
L 634.932231 319.709356 
L 639.452479 321.304176 
L 643.972727 324.516243 
L 648.492975 326.238916 
L 662.053719 327.139868 
L 666.573967 324.812481 
L 671.094215 325.250869 
L 675.614463 326.967601 
L 680.134711 327.398686 
L 693.695455 328.018651 
L 698.215702 328.880954 
L 702.73595 332.705127 
L 707.256198 332.524674 
L 711.776446 331.918142 
L 725.33719 331.872579 
L 729.857438 333.010882 
L 734.377686 330.213655 
L 738.897934 330.80591 
L 743.418182 331.984775 
L 756.978926 331.651631 
L 761.499174 333.548755 
L 766.019421 335.250811 
L 770.539669 334.54136 
L 775.059917 332.302103 
L 788.620661 334.83014 
L 793.140909 335.484254 
L 797.661157 334.623177 
L 802.181405 332.678813 
L 806.701653 335.168405 
L 820.262397 335.690274 
L 824.782645 337.108414 
L 829.302893 338.842937 
L 833.82314 339.671638 
L 838.343388 342.380702 
L 851.904132 342.11334 
L 856.42438 342.683977 
L 860.944628 340.916739 
L 865.464876 341.891749 
L 869.985124 343.595458 
L 883.545868 341.511262 
L 888.066116 341.658012 
L 892.586364 342.360346 
L 897.106612 341.770796 
L 901.62686 340.280814 
L 915.187603 343.689853 
L 919.707851 343.40141 
L 924.228099 340.544181 
L 928.748347 339.703715 
L 933.268595 341.189681 
L 946.829339 342.03401 
L 951.349587 341.640246 
L 955.869835 344.280457 
L 960.390083 344.202209 
L 964.910331 342.902824 
L 978.471074 341.417215 
L 982.991322 343.726618 
L 987.51157 344.856504 
L 992.031818 344.91 
L 996.552066 344.392761 
L 1010.11281 341.824428 
L 1014.633058 342.198994 
L 1019.153306 341.810504 
L 1023.673554 341.59013 
L 1028.193802 340.443651 
L 1041.754545 339.302309 
L 1046.274793 340.294571 
L 1050.795041 340.240094 
L 1055.315289 342.655404 
L 1059.835537 342.086702 
L 1073.396281 340.62283 
L 1077.916529 342.223603 
L 1086.957025 340.736877 
L 1091.477273 342.025295 
L 1091.477273 342.025295 
" style="fill:none;stroke:#1f77b4;stroke-linecap:square;stroke-width:1.5;"/>
   </g>
   <g id="line2d_18">
    <path clip-path="url(#p10cd4f5226)" d="M 97.022727 290.44037 
L 101.542975 292.2457 
L 106.063223 295.671508 
L 110.583471 287.94816 
L 124.144215 282.788476 
L 128.664463 283.655943 
L 133.184711 280.622679 
L 137.704959 279.123397 
L 142.225207 278.010274 
L 155.78595 280.618055 
L 160.306198 279.482489 
L 164.826446 279.357739 
L 173.866942 286.166303 
L 187.427686 294.101157 
L 191.947934 297.429354 
L 196.468182 293.56565 
L 200.98843 299.242212 
L 205.508678 303.588527 
L 219.069421 302.31539 
L 223.589669 300.488759 
L 228.109917 296.140215 
L 232.630165 297.073461 
L 237.150413 289.389501 
L 250.711157 292.155795 
L 255.231405 296.891922 
L 259.751653 290.8269 
L 264.271901 292.535032 
L 268.792149 290.076251 
L 282.352893 287.961334 
L 286.87314 286.887292 
L 291.393388 287.926836 
L 295.913636 288.394018 
L 300.433884 282.757664 
L 313.994628 281.051601 
L 318.514876 277.891609 
L 323.035124 271.059014 
L 327.555372 267.863617 
L 332.07562 262.283031 
L 345.636364 264.289294 
L 350.156612 259.995435 
L 354.67686 260.4351 
L 359.197107 252.524786 
L 363.717355 251.895653 
L 377.278099 253.958681 
L 381.798347 245.689116 
L 386.318595 245.615054 
L 390.838843 237.244977 
L 395.359091 235.594054 
L 408.919835 236.209028 
L 413.440083 237.957744 
L 417.960331 234.272196 
L 422.480579 233.502281 
L 427.000826 230.872173 
L 440.56157 218.749685 
L 445.081818 226.272881 
L 449.602066 221.000394 
L 454.122314 217.921185 
L 458.642562 206.262584 
L 472.203306 207.675019 
L 476.723554 207.396391 
L 481.243802 212.408945 
L 485.76405 205.678031 
L 490.284298 212.419718 
L 503.845041 213.182426 
L 508.365289 214.273974 
L 512.885537 223.246091 
L 517.405785 228.894643 
L 521.926033 218.963877 
L 535.486777 219.975513 
L 540.007025 226.765918 
L 544.527273 221.509212 
L 549.047521 222.516475 
L 553.567769 227.72239 
L 567.128512 215.997426 
L 571.64876 208.631397 
L 576.169008 218.791401 
L 580.689256 213.767639 
L 585.209504 208.376541 
L 598.770248 214.740669 
L 603.290496 214.970685 
L 607.810744 220.829259 
L 612.330992 222.828155 
L 616.85124 223.939302 
L 630.411983 227.422003 
L 634.932231 236.086924 
L 639.452479 237.716343 
L 643.972727 240.196433 
L 648.492975 232.213362 
L 666.573967 219.609962 
L 671.094215 210.603676 
L 675.614463 209.788131 
L 680.134711 203.85462 
L 693.695455 203.501717 
L 698.215702 215.073796 
L 702.73595 221.956436 
L 707.256198 213.903809 
L 711.776446 213.122523 
L 725.33719 208.609476 
L 729.857438 208.647108 
L 734.377686 209.764129 
L 738.897934 198.486068 
L 743.418182 195.483997 
L 756.978926 189.598898 
L 761.499174 194.754396 
L 766.019421 200.603578 
L 770.539669 205.707515 
L 775.059917 195.044788 
L 788.620661 191.609431 
L 793.140909 182.082573 
L 797.661157 180.998319 
L 802.181405 193.910536 
L 806.701653 187.239539 
L 820.262397 180.693317 
L 824.782645 180.690655 
L 829.302893 186.818509 
L 833.82314 187.854078 
L 838.343388 186.796392 
L 851.904132 178.632808 
L 856.42438 167.267285 
L 860.944628 176.704202 
L 865.464876 175.824446 
L 869.985124 188.934693 
L 883.545868 196.718778 
L 888.066116 191.309351 
L 892.586364 193.285668 
L 897.106612 202.937957 
L 901.62686 195.811663 
L 915.187603 199.674381 
L 919.707851 206.555406 
L 924.228099 215.894492 
L 928.748347 217.783062 
L 933.268595 217.570134 
L 946.829339 222.068381 
L 951.349587 211.189617 
L 955.869835 218.622994 
L 960.390083 216.998742 
L 964.910331 227.933479 
L 978.471074 224.255251 
L 982.991322 233.231389 
L 987.51157 224.024278 
L 992.031818 231.249881 
L 996.552066 231.930125 
L 1010.11281 224.166981 
L 1014.633058 217.510555 
L 1019.153306 228.017932 
L 1023.673554 223.440968 
L 1028.193802 212.556966 
L 1041.754545 212.50666 
L 1046.274793 197.859605 
L 1050.795041 195.983756 
L 1055.315289 194.9806 
L 1059.835537 198.30703 
L 1073.396281 184.310648 
L 1077.916529 181.245002 
L 1082.436777 194.333412 
L 1086.957025 186.639193 
L 1091.477273 186.673358 
L 1091.477273 186.673358 
" style="fill:none;stroke:#ff7f0e;stroke-linecap:square;stroke-width:1.5;"/>
   </g>
   <g id="line2d_19">
    <path clip-path="url(#p10cd4f5226)" d="M 97.022727 291.468614 
L 101.542975 288.655788 
L 106.063223 292.074924 
L 110.583471 291.1545 
L 124.144215 288.539866 
L 128.664463 292.512198 
L 133.184711 288.528996 
L 137.704959 292.795938 
L 142.225207 294.826994 
L 155.78595 295.834685 
L 160.306198 289.48733 
L 164.826446 292.961256 
L 169.346694 297.896539 
L 173.866942 300.395754 
L 187.427686 306.704858 
L 191.947934 304.244998 
L 196.468182 303.960092 
L 200.98843 302.148582 
L 205.508678 299.748158 
L 219.069421 301.888911 
L 223.589669 299.886698 
L 228.109917 296.527785 
L 232.630165 296.881749 
L 237.150413 299.081764 
L 250.711157 296.878133 
L 255.231405 298.194413 
L 259.751653 291.586198 
L 264.271901 294.74152 
L 268.792149 296.238872 
L 282.352893 297.032742 
L 286.87314 302.569165 
L 291.393388 307.569971 
L 295.913636 312.896436 
L 300.433884 311.621199 
L 313.994628 310.204676 
L 318.514876 314.953349 
L 323.035124 310.728552 
L 327.555372 313.441529 
L 332.07562 315.727902 
L 345.636364 317.635258 
L 350.156612 323.451512 
L 354.67686 320.71271 
L 359.197107 317.496493 
L 363.717355 320.983952 
L 377.278099 324.031464 
L 381.798347 320.570048 
L 386.318595 319.716972 
L 390.838843 320.903789 
L 395.359091 316.803802 
L 408.919835 321.629639 
L 413.440083 324.760012 
L 417.960331 327.327421 
L 422.480579 327.883314 
L 427.000826 327.416766 
L 440.56157 326.244663 
L 445.081818 329.251821 
L 449.602066 333.061293 
L 454.122314 331.255165 
L 458.642562 329.896223 
L 472.203306 329.75972 
L 476.723554 329.253452 
L 481.243802 328.489377 
L 485.76405 328.435557 
L 490.284298 327.488305 
L 503.845041 324.98828 
L 508.365289 322.61196 
L 512.885537 324.301982 
L 517.405785 320.416025 
L 521.926033 323.478276 
L 535.486777 324.261538 
L 540.007025 325.045752 
L 544.527273 324.31935 
L 549.047521 321.944126 
L 553.567769 323.136831 
L 567.128512 325.110694 
L 571.64876 325.172314 
L 576.169008 324.953144 
L 580.689256 321.441195 
L 585.209504 320.973087 
L 598.770248 323.625784 
L 607.810744 327.027156 
L 612.330992 323.934787 
L 616.85124 321.723345 
L 634.932231 324.402107 
L 639.452479 324.041551 
L 643.972727 321.509701 
L 648.492975 319.26678 
L 662.053719 322.34907 
L 671.094215 326.164009 
L 675.614463 327.213566 
L 680.134711 326.511873 
L 693.695455 329.679743 
L 698.215702 327.650244 
L 702.73595 324.123591 
L 707.256198 326.278164 
L 711.776446 323.108365 
L 725.33719 322.774313 
L 729.857438 322.15577 
L 734.377686 323.112121 
L 738.897934 322.467086 
L 743.418182 319.943982 
L 756.978926 315.53966 
L 761.499174 315.89556 
L 766.019421 318.185756 
L 770.539669 315.151427 
L 775.059917 314.596985 
L 788.620661 316.712763 
L 793.140909 316.9545 
L 797.661157 316.735881 
L 802.181405 314.22695 
L 806.701653 315.432537 
L 820.262397 317.63738 
L 824.782645 318.597608 
L 829.302893 319.412284 
L 833.82314 317.42645 
L 838.343388 313.161653 
L 851.904132 317.019187 
L 856.42438 313.66156 
L 860.944628 312.001472 
L 865.464876 309.96024 
L 869.985124 303.430102 
L 883.545868 301.653967 
L 888.066116 297.924967 
L 892.586364 295.553621 
L 897.106612 294.094477 
L 901.62686 291.596964 
L 915.187603 294.79157 
L 919.707851 300.116184 
L 924.228099 297.342206 
L 928.748347 297.186649 
L 933.268595 295.029887 
L 946.829339 300.153022 
L 951.349587 301.725072 
L 955.869835 299.659623 
L 960.390083 302.757467 
L 964.910331 305.494349 
L 978.471074 300.94929 
L 982.991322 299.91097 
L 987.51157 299.114534 
L 992.031818 299.973533 
L 996.552066 299.469844 
L 1010.11281 296.789641 
L 1014.633058 291.470067 
L 1019.153306 291.828211 
L 1023.673554 294.654179 
L 1028.193802 294.279343 
L 1041.754545 296.387735 
L 1046.274793 295.701198 
L 1050.795041 300.38366 
L 1055.315289 306.986302 
L 1059.835537 303.819109 
L 1073.396281 306.02669 
L 1077.916529 304.814813 
L 1082.436777 306.728022 
L 1086.957025 308.005741 
L 1091.477273 304.350254 
L 1091.477273 304.350254 
" style="fill:none;stroke:#2ca02c;stroke-linecap:square;stroke-width:1.5;"/>
   </g>
   <g id="line2d_20">
    <path clip-path="url(#p10cd4f5226)" d="M 97.022727 295.845364 
L 101.542975 289.745471 
L 106.063223 288.544494 
L 110.583471 286.442662 
L 124.144215 290.146286 
L 128.664463 287.603819 
L 133.184711 285.789864 
L 137.704959 291.839117 
L 142.225207 288.270184 
L 155.78595 289.183047 
L 160.306198 283.509103 
L 164.826446 279.727546 
L 169.346694 284.188449 
L 173.866942 287.293343 
L 187.427686 292.036969 
L 191.947934 294.625478 
L 196.468182 299.236605 
L 200.98843 298.005385 
L 205.508678 294.138531 
L 219.069421 293.590433 
L 223.589669 290.75553 
L 228.109917 288.118263 
L 232.630165 283.538159 
L 237.150413 284.66054 
L 250.711157 277.903873 
L 255.231405 280.275619 
L 259.751653 276.774453 
L 264.271901 276.16382 
L 268.792149 281.446268 
L 282.352893 280.461566 
L 286.87314 287.223699 
L 291.393388 290.364532 
L 295.913636 290.782453 
L 300.433884 293.784414 
L 313.994628 294.64264 
L 318.514876 292.314256 
L 323.035124 291.627747 
L 327.555372 288.63528 
L 332.07562 289.457698 
L 345.636364 289.623314 
L 350.156612 291.502233 
L 354.67686 293.057831 
L 359.197107 291.779094 
L 363.717355 288.743051 
L 377.278099 285.734146 
L 381.798347 284.394791 
L 386.318595 277.865483 
L 390.838843 279.38781 
L 395.359091 284.489159 
L 408.919835 292.305752 
L 413.440083 293.894151 
L 417.960331 291.088934 
L 422.480579 284.462996 
L 427.000826 280.769667 
L 440.56157 275.382317 
L 445.081818 271.160998 
L 449.602066 273.576502 
L 454.122314 278.575033 
L 458.642562 271.888417 
L 472.203306 270.10719 
L 476.723554 272.401129 
L 481.243802 272.611321 
L 485.76405 275.347458 
L 490.284298 276.884658 
L 503.845041 282.516232 
L 508.365289 276.618914 
L 512.885537 281.398425 
L 517.405785 287.709135 
L 535.486777 293.021618 
L 540.007025 300.435023 
L 544.527273 299.846923 
L 549.047521 302.916907 
L 553.567769 301.724267 
L 567.128512 299.612636 
L 571.64876 300.550484 
L 576.169008 303.9615 
L 580.689256 300.07795 
L 585.209504 302.889573 
L 598.770248 304.230492 
L 603.290496 301.934744 
L 607.810744 304.964568 
L 612.330992 303.099364 
L 616.85124 303.989639 
L 630.411983 303.743466 
L 634.932231 300.029164 
L 639.452479 297.105145 
L 643.972727 297.000066 
L 648.492975 296.252317 
L 662.053719 289.228829 
L 671.094215 285.574956 
L 675.614463 292.417385 
L 680.134711 292.623082 
L 693.695455 287.474881 
L 698.215702 289.260749 
L 702.73595 297.123241 
L 707.256198 291.884785 
L 711.776446 296.619082 
L 725.33719 295.27875 
L 729.857438 297.180502 
L 734.377686 293.136104 
L 738.897934 287.04375 
L 743.418182 284.481387 
L 756.978926 286.873763 
L 761.499174 285.558897 
L 766.019421 278.582488 
L 770.539669 278.713544 
L 775.059917 286.365212 
L 788.620661 289.847274 
L 793.140909 295.55237 
L 797.661157 292.165295 
L 802.181405 291.491719 
L 806.701653 290.450935 
L 820.262397 289.88119 
L 824.782645 284.855351 
L 829.302893 278.973584 
L 833.82314 278.883936 
L 838.343388 282.024377 
L 851.904132 274.211754 
L 856.42438 278.261954 
L 860.944628 273.417416 
L 865.464876 278.396347 
L 869.985124 277.685262 
L 883.545868 272.969722 
L 888.066116 276.523993 
L 892.586364 276.545934 
L 897.106612 270.328611 
L 901.62686 274.384519 
L 915.187603 274.913675 
L 919.707851 272.769908 
L 924.228099 278.750385 
L 928.748347 275.660661 
L 933.268595 276.216168 
L 946.829339 275.311028 
L 951.349587 279.088452 
L 955.869835 276.578223 
L 960.390083 270.852633 
L 964.910331 275.954846 
L 978.471074 276.000918 
L 982.991322 272.038536 
L 987.51157 266.990103 
L 992.031818 260.984041 
L 996.552066 263.026358 
L 1010.11281 252.208698 
L 1014.633058 249.318281 
L 1019.153306 244.78216 
L 1023.673554 245.906105 
L 1028.193802 249.558612 
L 1041.754545 238.967957 
L 1046.274793 233.600451 
L 1050.795041 231.403439 
L 1055.315289 234.981731 
L 1059.835537 235.701696 
L 1073.396281 240.193435 
L 1077.916529 240.975974 
L 1082.436777 246.400552 
L 1086.957025 244.576533 
L 1091.477273 247.220714 
L 1091.477273 247.220714 
" style="fill:none;stroke:#d62728;stroke-linecap:square;stroke-width:1.5;"/>
   </g>
   <g id="line2d_21">
    <path clip-path="url(#p10cd4f5226)" d="M 97.022727 299.806401 
L 101.542975 298.01016 
L 106.063223 303.763943 
L 110.583471 302.073658 
L 124.144215 304.070983 
L 128.664463 309.831631 
L 133.184711 304.535808 
L 137.704959 301.234093 
L 142.225207 300.500187 
L 155.78595 295.430918 
L 160.306198 299.732363 
L 164.826446 293.652591 
L 169.346694 295.833628 
L 173.866942 296.920607 
L 187.427686 297.039982 
L 191.947934 292.55284 
L 196.468182 296.581392 
L 200.98843 293.001252 
L 205.508678 285.738365 
L 219.069421 286.742523 
L 223.589669 280.796145 
L 228.109917 282.5421 
L 232.630165 285.855942 
L 237.150413 282.360981 
L 250.711157 285.25841 
L 255.231405 279.36894 
L 259.751653 282.775822 
L 264.271901 287.013187 
L 268.792149 287.556429 
L 282.352893 286.741298 
L 286.87314 283.334845 
L 291.393388 285.570921 
L 295.913636 285.026607 
L 300.433884 277.769016 
L 313.994628 271.583017 
L 318.514876 267.099477 
L 323.035124 270.160515 
L 327.555372 268.222999 
L 332.07562 272.129652 
L 345.636364 270.022819 
L 350.156612 271.737645 
L 354.67686 274.718207 
L 359.197107 279.947293 
L 363.717355 277.94336 
L 377.278099 281.713881 
L 381.798347 285.008205 
L 386.318595 276.405284 
L 390.838843 271.863418 
L 395.359091 271.765361 
L 408.919835 266.663343 
L 413.440083 275.776481 
L 417.960331 275.429038 
L 422.480579 268.573139 
L 427.000826 266.305073 
L 440.56157 261.235146 
L 445.081818 267.902421 
L 449.602066 265.276106 
L 454.122314 270.691654 
L 458.642562 267.091891 
L 472.203306 265.509957 
L 476.723554 263.68756 
L 481.243802 262.216642 
L 485.76405 256.979133 
L 490.284298 248.142626 
L 503.845041 246.401583 
L 508.365289 240.165041 
L 512.885537 241.338589 
L 517.405785 230.080327 
L 521.926033 226.790691 
L 535.486777 222.109293 
L 540.007025 224.317376 
L 544.527273 231.186322 
L 549.047521 222.266077 
L 553.567769 230.588562 
L 567.128512 222.627665 
L 571.64876 222.393037 
L 576.169008 231.401797 
L 580.689256 226.14567 
L 585.209504 228.895886 
L 598.770248 226.60689 
L 603.290496 219.053722 
L 607.810744 233.40917 
L 612.330992 236.807048 
L 616.85124 226.160552 
L 630.411983 229.936782 
L 634.932231 228.648253 
L 639.452479 226.51644 
L 643.972727 225.635394 
L 648.492975 228.305926 
L 662.053719 228.796593 
L 666.573967 226.325449 
L 671.094215 228.069459 
L 675.614463 235.310322 
L 680.134711 238.006857 
L 693.695455 244.905032 
L 698.215702 245.943994 
L 702.73595 248.971213 
L 707.256198 254.010105 
L 711.776446 253.752274 
L 725.33719 243.840679 
L 729.857438 241.785956 
L 734.377686 238.789119 
L 738.897934 241.774846 
L 743.418182 239.915829 
L 756.978926 241.88099 
L 761.499174 245.697725 
L 766.019421 247.756099 
L 770.539669 246.198499 
L 775.059917 250.290254 
L 788.620661 243.778155 
L 793.140909 239.576828 
L 797.661157 245.505083 
L 802.181405 240.738009 
L 806.701653 235.011717 
L 820.262397 239.347445 
L 824.782645 238.846263 
L 829.302893 235.236856 
L 833.82314 236.098514 
L 838.343388 228.97891 
L 851.904132 236.903282 
L 856.42438 234.438547 
L 860.944628 227.290584 
L 865.464876 231.1137 
L 869.985124 233.212836 
L 883.545868 235.180654 
L 888.066116 247.418516 
L 892.586364 252.037051 
L 897.106612 241.761262 
L 901.62686 238.261001 
L 915.187603 240.961235 
L 919.707851 242.353349 
L 924.228099 245.947878 
L 928.748347 235.737563 
L 933.268595 238.842116 
L 946.829339 233.63619 
L 951.349587 232.63383 
L 955.869835 226.63826 
L 960.390083 224.81476 
L 964.910331 222.259612 
L 978.471074 230.489277 
L 982.991322 224.778502 
L 987.51157 232.729182 
L 992.031818 221.250778 
L 996.552066 215.731442 
L 1010.11281 218.381716 
L 1014.633058 211.644665 
L 1019.153306 220.388493 
L 1023.673554 225.38354 
L 1028.193802 213.514195 
L 1041.754545 214.992218 
L 1046.274793 207.278222 
L 1050.795041 212.782687 
L 1055.315289 206.011865 
L 1059.835537 206.839784 
L 1073.396281 206.801884 
L 1077.916529 203.937272 
L 1082.436777 211.080639 
L 1086.957025 222.353397 
L 1091.477273 222.424563 
L 1091.477273 222.424563 
" style="fill:none;stroke:#9467bd;stroke-linecap:square;stroke-width:1.5;"/>
   </g>
   <g id="line2d_22">
    <path clip-path="url(#p10cd4f5226)" d="M 97.022727 294.431233 
L 101.542975 292.531456 
L 106.063223 295.613921 
L 110.583471 292.882945 
L 124.144215 293.153374 
L 128.664463 295.865671 
L 133.184711 293.320561 
L 137.704959 294.39431 
L 142.225207 293.930596 
L 155.78595 293.752834 
L 160.306198 291.505441 
L 164.826446 290.354799 
L 169.346694 293.315065 
L 173.866942 294.332613 
L 187.427686 296.319723 
L 191.947934 296.566717 
L 196.468182 298.150725 
L 200.98843 297.689507 
L 205.508678 296.020083 
L 219.069421 296.404724 
L 223.589669 294.682945 
L 228.109917 293.45183 
L 232.630165 293.557632 
L 237.150413 292.790289 
L 250.711157 292.197963 
L 255.231405 292.927296 
L 259.751653 289.437718 
L 268.792149 293.976156 
L 282.352893 293.683828 
L 286.87314 294.657612 
L 291.393388 296.666161 
L 295.913636 298.362578 
L 300.433884 296.034215 
L 313.994628 295.156467 
L 318.514876 295.314937 
L 323.035124 292.670774 
L 327.555372 292.580741 
L 332.07562 293.108815 
L 345.636364 292.942727 
L 350.156612 294.96656 
L 354.67686 295.109739 
L 359.197107 293.493722 
L 363.717355 294.27151 
L 377.278099 295.600872 
L 381.798347 293.769002 
L 386.318595 291.657095 
L 390.838843 289.745252 
L 395.359091 287.669487 
L 408.919835 290.145046 
L 413.440083 293.637182 
L 417.960331 293.421404 
L 422.480579 289.6913 
L 427.000826 289.204443 
L 440.56157 284.258983 
L 445.081818 286.689355 
L 449.602066 287.423774 
L 454.122314 288.015375 
L 458.642562 283.909532 
L 472.203306 283.717624 
L 476.723554 283.424092 
L 481.243802 283.53299 
L 485.76405 282.37451 
L 490.284298 281.927073 
L 503.845041 280.901029 
L 508.365289 279.923174 
L 512.885537 282.183385 
L 517.405785 279.984115 
L 521.926033 278.643494 
L 535.486777 278.326315 
L 540.007025 281.02773 
L 544.527273 281.698649 
L 549.047521 279.929253 
L 553.567769 281.795619 
L 567.128512 279.105259 
L 571.64876 278.466199 
L 576.169008 281.723758 
L 580.689256 278.21604 
L 585.209504 276.94311 
L 598.770248 279.554612 
L 603.290496 278.470843 
L 607.810744 282.425819 
L 612.330992 282.860701 
L 616.85124 280.651212 
L 630.411983 282.25555 
L 634.932231 282.264282 
L 639.452479 281.979101 
L 643.972727 282.596533 
L 648.492975 281.641106 
L 662.053719 280.140045 
L 666.573967 278.437238 
L 671.094215 277.954906 
L 675.614463 281.238846 
L 680.134711 281.069547 
L 693.695455 282.593656 
L 698.215702 283.57817 
L 702.73595 286.494897 
L 711.776446 285.086736 
L 725.33719 282.645572 
L 729.857438 282.88714 
L 734.377686 280.758945 
L 738.897934 278.35846 
L 743.418182 276.815857 
L 756.978926 275.245179 
L 761.499174 276.844934 
L 766.019421 277.850346 
L 770.539669 277.164223 
L 775.059917 276.807793 
L 788.620661 277.394678 
L 793.140909 277.40021 
L 797.661157 276.60348 
L 802.181405 275.457215 
L 806.701653 275.114006 
L 820.262397 275.896575 
L 824.782645 275.331104 
L 829.302893 275.451822 
L 833.82314 275.274775 
L 838.343388 274.94318 
L 851.904132 274.543611 
L 856.42438 273.029574 
L 860.944628 270.564569 
L 865.464876 271.862119 
L 869.985124 272.190948 
L 883.545868 270.237322 
L 888.066116 271.141005 
L 892.586364 271.653163 
L 897.106612 269.033743 
L 901.62686 266.833445 
L 915.187603 270.562805 
L 919.707851 272.362937 
L 924.228099 273.053033 
L 928.748347 270.667455 
L 933.268595 271.898964 
L 946.829339 273.116248 
L 951.349587 272.898192 
L 955.869835 273.898766 
L 960.390083 272.975256 
L 964.910331 275.936906 
L 978.471074 274.43812 
L 982.991322 275.033028 
L 987.51157 274.369652 
L 992.031818 272.703968 
L 996.552066 272.388269 
L 1010.11281 267.245333 
L 1014.633058 263.753306 
L 1019.153306 265.621737 
L 1023.673554 266.845626 
L 1028.193802 263.378896 
L 1041.754545 261.904554 
L 1046.274793 258.381903 
L 1055.315289 262.979278 
L 1059.835537 262.235206 
L 1073.396281 261.244873 
L 1077.916529 261.395463 
L 1082.436777 264.881487 
L 1086.957025 265.224965 
L 1091.477273 264.676891 
L 1091.477273 264.676891 
" style="fill:none;stroke:#8c564b;stroke-linecap:square;stroke-width:1.5;"/>
   </g>
   <g id="line2d_23">
    <path clip-path="url(#p10cd4f5226)" d="M 97.022727 298.522909 
L 101.542975 298.507703 
L 106.063223 301.353526 
L 110.583471 302.156761 
L 124.144215 303.910133 
L 128.664463 307.304219 
L 133.184711 304.020817 
L 137.704959 299.754635 
L 142.225207 299.441929 
L 155.78595 294.472147 
L 160.306198 301.050792 
L 164.826446 296.097509 
L 169.346694 295.445321 
L 173.866942 295.544564 
L 187.427686 293.706708 
L 191.947934 288.785924 
L 196.468182 291.256156 
L 200.98843 287.948892 
L 205.508678 282.132669 
L 219.069421 282.7272 
L 223.589669 278.527909 
L 232.630165 284.99589 
L 237.150413 282.312023 
L 250.711157 285.873901 
L 255.231405 279.240944 
L 259.751653 286.686446 
L 264.271901 288.382213 
L 268.792149 286.597293 
L 282.352893 286.090989 
L 286.87314 281.602085 
L 291.393388 281.564336 
L 295.913636 278.995438 
L 300.433884 274.156549 
L 313.994628 268.85806 
L 318.514876 264.055211 
L 323.035124 270.811654 
L 327.555372 268.997976 
L 332.07562 272.208132 
L 345.636364 270.308587 
L 350.156612 269.472586 
L 354.67686 272.329359 
L 359.197107 279.723038 
L 363.717355 276.813895 
L 377.278099 279.027718 
L 381.798347 284.600565 
L 386.318595 278.295854 
L 390.838843 276.035434 
L 395.359091 278.330124 
L 408.919835 270.811505 
L 413.440083 275.35435 
L 417.960331 275.266648 
L 422.480579 272.907031 
L 427.000826 271.303448 
L 440.56157 272.3693 
L 445.081818 275.684375 
L 449.602066 272.418927 
L 454.122314 276.812191 
L 458.642562 278.015542 
L 472.203306 276.78945 
L 481.243802 274.01955 
L 485.76405 270.576232 
L 490.284298 263.212813 
L 503.845041 262.89049 
L 508.365289 258.574716 
L 512.885537 256.85495 
L 517.405785 249.616307 
L 521.926033 248.498862 
L 535.486777 244.889126 
L 540.007025 243.195257 
L 544.527273 248.308666 
L 549.047521 242.777381 
L 553.567769 247.466632 
L 567.128512 244.0265 
L 571.64876 244.683582 
L 576.169008 248.088044 
L 580.689256 248.120693 
L 585.209504 252.126722 
L 598.770248 246.951536 
L 603.290496 241.829679 
L 607.810744 248.787343 
L 612.330992 251.246339 
L 616.85124 244.593059 
L 630.411983 245.735484 
L 634.932231 244.570095 
L 639.452479 243.056149 
L 643.972727 241.408566 
L 648.492975 245.164235 
L 662.053719 247.654935 
L 666.573967 247.744192 
L 675.614463 251.896793 
L 680.134711 254.504786 
L 693.695455 258.673977 
L 698.215702 258.382728 
L 702.73595 257.456167 
L 707.256198 263.082567 
L 711.776446 263.724539 
L 729.857438 255.427576 
L 734.377686 255.451491 
L 738.897934 261.095349 
L 743.418182 261.298108 
L 756.978926 264.770114 
L 761.499174 266.198276 
L 766.019421 266.835275 
L 770.539669 266.26105 
L 775.059917 270.136027 
L 788.620661 263.991072 
L 793.140909 260.404154 
L 797.661157 266.384837 
L 802.181405 263.613425 
L 806.701653 259.205559 
L 820.262397 261.920202 
L 824.782645 262.140062 
L 829.302893 258.987918 
L 833.82314 259.913559 
L 838.343388 254.347261 
L 851.904132 261.423251 
L 856.42438 261.080419 
L 860.944628 257.974159 
L 865.464876 259.58611 
L 869.985124 260.919482 
L 883.545868 264.674128 
L 888.066116 273.480756 
L 892.586364 276.694298 
L 897.106612 270.887494 
L 901.62686 270.28526 
L 915.187603 268.761781 
L 919.707851 268.047151 
L 924.228099 270.25602 
L 928.748347 264.336512 
L 933.268595 265.525741 
L 946.829339 260.011077 
L 951.349587 259.433244 
L 955.869835 253.397901 
L 960.390083 252.992277 
L 964.910331 247.387746 
L 978.471074 256.219012 
L 982.991322 250.790075 
L 987.51157 258.229267 
L 992.031818 250.649021 
L 996.552066 246.528157 
L 1010.11281 255.05533 
L 1014.633058 253.708885 
L 1019.153306 258.246782 
L 1023.673554 260.759119 
L 1028.193802 255.247103 
L 1041.754545 257.932583 
L 1046.274793 255.859244 
L 1050.795041 257.482104 
L 1055.315289 250.147445 
L 1059.835537 251.591316 
L 1073.396281 252.642563 
L 1077.916529 250.372061 
L 1082.436777 251.829475 
L 1086.957025 260.010325 
L 1091.477273 260.637402 
L 1091.477273 260.637402 
" style="fill:none;stroke:#e377c2;stroke-linecap:square;stroke-width:1.5;"/>
   </g>
   <g id="line2d_24">
    <path clip-path="url(#p10cd4f5226)" d="M 97.022727 292.340321 
L 101.542975 290.76553 
L 106.063223 290.116449 
L 110.583471 288.453373 
L 124.144215 286.515405 
L 128.664463 283.222867 
L 133.184711 278.649025 
L 137.704959 278.33641 
L 142.225207 278.639763 
L 155.78595 279.417039 
L 160.306198 281.044703 
L 164.826446 279.078545 
L 169.346694 279.663778 
L 173.866942 283.967549 
L 187.427686 293.550878 
L 191.947934 291.809906 
L 196.468182 289.306783 
L 200.98843 288.519878 
L 205.508678 285.504773 
L 219.069421 285.124525 
L 223.589669 279.271728 
L 228.109917 274.349755 
L 232.630165 275.186875 
L 237.150413 270.595911 
L 250.711157 266.534483 
L 255.231405 266.722362 
L 259.751653 266.374652 
L 264.271901 266.401803 
L 268.792149 258.924895 
L 282.352893 255.234142 
L 286.87314 260.1767 
L 291.393388 263.950679 
L 295.913636 262.032015 
L 300.433884 260.833805 
L 313.994628 255.197698 
L 318.514876 251.010018 
L 323.035124 250.787088 
L 327.555372 247.076676 
L 332.07562 249.522643 
L 345.636364 254.286677 
L 350.156612 254.569043 
L 354.67686 253.015719 
L 359.197107 251.094675 
L 363.717355 245.654141 
L 377.278099 245.756293 
L 381.798347 242.19033 
L 386.318595 232.203579 
L 390.838843 234.490958 
L 395.359091 243.517157 
L 408.919835 244.574845 
L 413.440083 246.104605 
L 417.960331 245.543716 
L 422.480579 250.412709 
L 427.000826 244.979212 
L 440.56157 246.186851 
L 445.081818 248.224411 
L 449.602066 245.625154 
L 454.122314 246.217811 
L 458.642562 243.276036 
L 472.203306 240.945263 
L 476.723554 242.457542 
L 481.243802 244.403701 
L 485.76405 243.363208 
L 490.284298 241.975362 
L 503.845041 249.663585 
L 508.365289 239.925973 
L 512.885537 239.68374 
L 517.405785 245.179291 
L 521.926033 246.308188 
L 535.486777 250.67899 
L 540.007025 256.056488 
L 544.527273 249.991812 
L 549.047521 252.331238 
L 553.567769 252.582014 
L 567.128512 248.843496 
L 571.64876 250.380361 
L 576.169008 253.964298 
L 580.689256 249.30468 
L 585.209504 255.474646 
L 598.770248 253.326527 
L 603.290496 252.373592 
L 607.810744 256.280832 
L 612.330992 247.71517 
L 616.85124 247.766471 
L 630.411983 248.630075 
L 634.932231 249.899078 
L 639.452479 246.096853 
L 643.972727 239.653035 
L 648.492975 233.949747 
L 662.053719 229.294862 
L 666.573967 233.317117 
L 671.094215 231.464426 
L 675.614463 231.610187 
L 680.134711 230.158818 
L 693.695455 230.709436 
L 698.215702 229.757095 
L 702.73595 223.138616 
L 707.256198 222.565309 
L 711.776446 223.373869 
L 725.33719 219.502612 
L 729.857438 216.136696 
L 734.377686 222.221287 
L 738.897934 216.551847 
L 743.418182 210.193069 
L 756.978926 208.781838 
L 761.499174 204.731755 
L 766.019421 200.074243 
L 770.539669 201.692837 
L 775.059917 209.774016 
L 793.140909 199.253164 
L 797.661157 201.314165 
L 802.181405 206.919775 
L 806.701653 197.330191 
L 820.262397 196.584683 
L 824.782645 189.780374 
L 829.302893 182.389302 
L 833.82314 178.122106 
L 838.343388 164.083221 
L 851.904132 164.778972 
L 856.42438 158.498217 
L 860.944628 163.760187 
L 865.464876 160.989719 
L 869.985124 151.988391 
L 883.545868 160.743953 
L 888.066116 161.718824 
L 892.586364 158.795558 
L 897.106612 156.882179 
L 901.62686 161.054291 
L 915.187603 149.689171 
L 919.707851 155.271074 
L 924.228099 174.014275 
L 928.748347 173.766336 
L 933.268595 168.568415 
L 946.829339 166.400474 
L 951.349587 168.152819 
L 955.869835 155.730191 
L 960.390083 154.268382 
L 964.910331 168.576035 
L 978.471074 173.895066 
L 982.991322 162.870986 
L 987.51157 154.831462 
L 992.031818 150.953596 
L 996.552066 153.609629 
L 1010.11281 158.922135 
L 1014.633058 149.951895 
L 1019.153306 155.973285 
L 1023.673554 159.640401 
L 1028.193802 159.400143 
L 1041.754545 162.904763 
L 1046.274793 151.213731 
L 1050.795041 155.824472 
L 1055.315289 146.695494 
L 1059.835537 148.72132 
L 1073.396281 155.594383 
L 1077.916529 146.869019 
L 1082.436777 158.103197 
L 1086.957025 163.11337 
L 1091.477273 155.051201 
L 1091.477273 155.051201 
" style="fill:none;stroke:#7f7f7f;stroke-linecap:square;stroke-width:1.5;"/>
   </g>
   <g id="line2d_25">
    <path clip-path="url(#p10cd4f5226)" d="M 97.022727 297.71549 
L 101.542975 296.221247 
L 106.063223 298.536668 
L 110.583471 297.860136 
L 124.144215 297.969407 
L 128.664463 298.734695 
L 133.184711 291.222157 
L 137.704959 285.968929 
L 142.225207 285.883615 
L 155.78595 280.805658 
L 160.306198 290.033479 
L 164.826446 282.605563 
L 169.346694 282.41415 
L 173.866942 286.715082 
L 187.427686 293.997301 
L 191.947934 287.360929 
L 196.468182 287.240957 
L 200.98843 282.980354 
L 205.508678 273.655749 
L 219.069421 273.873835 
L 223.589669 262.752231 
L 228.109917 260.778096 
L 232.630165 265.626006 
L 237.150413 257.391037 
L 250.711157 257.307059 
L 255.231405 248.876911 
L 259.751653 258.150602 
L 264.271901 260.390724 
L 268.792149 250.193568 
L 282.352893 245.535602 
L 286.87314 244.445403 
L 291.393388 248.660461 
L 295.913636 243.067932 
L 300.433884 235.128198 
L 313.994628 221.041253 
L 318.514876 208.85493 
L 323.035124 218.51598 
L 327.555372 211.205617 
L 332.07562 219.181158 
L 345.636364 222.219128 
L 350.156612 221.372671 
L 354.67686 223.503471 
L 359.197107 231.865932 
L 363.717355 221.328375 
L 377.278099 224.846278 
L 381.798347 229.272839 
L 386.318595 208.415827 
L 390.838843 207.265476 
L 395.359091 221.777383 
L 408.919835 211.326676 
L 413.440083 220.234504 
L 417.960331 219.432097 
L 422.480579 221.632077 
L 427.000826 212.630349 
L 440.56157 215.764049 
L 445.081818 223.311614 
L 449.602066 215.327707 
L 454.122314 222.765093 
L 458.642562 221.139898 
L 472.203306 216.527566 
L 476.723554 216.203357 
L 481.243802 216.266833 
L 485.76405 209.702285 
L 490.284298 196.536682 
L 503.845041 206.239522 
L 508.365289 186.87975 
L 512.885537 183.815997 
L 517.405785 179.979206 
L 521.926033 179.940095 
L 535.486777 180.987835 
L 540.007025 186.758396 
L 544.527273 184.532925 
L 549.047521 179.847026 
L 553.567769 187.069854 
L 567.128512 176.417477 
L 571.64876 179.781493 
L 576.169008 190.338544 
L 580.689256 183.384711 
L 585.209504 198.615935 
L 598.770248 188.161024 
L 603.290496 179.34532 
L 607.810744 195.568239 
L 612.330992 186.271321 
L 616.85124 176.35115 
L 630.411983 179.394675 
L 634.932231 179.590781 
L 639.452479 171.506133 
L 643.972727 158.984231 
L 648.492975 155.996418 
L 662.053719 152.997717 
L 666.573967 159.201008 
L 671.094215 159.964087 
L 675.614463 163.594861 
L 680.134711 165.878214 
L 693.695455 173.763563 
L 698.215702 171.955344 
L 702.73595 161.218985 
L 707.256198 170.44359 
L 711.776446 172.666847 
L 725.33719 156.614146 
L 729.857438 148.016689 
L 734.377686 156.66589 
L 738.897934 158.748549 
L 743.418182 150.525658 
L 756.978926 155.31601 
L 761.499174 152.783336 
L 766.019421 148.018585 
L 770.539669 148.929968 
L 775.059917 167.245665 
L 788.620661 145.416507 
L 793.140909 134.833947 
L 797.661157 149.855713 
L 802.181405 151.471307 
L 806.701653 130.187125 
L 820.262397 134.768211 
L 824.782645 126.133564 
L 829.302893 109.506158 
L 833.82314 105.733299 
L 838.343388 73.99812 
L 851.904132 92.167023 
L 856.42438 82.943448 
L 860.944628 82.259557 
L 865.464876 82.369525 
L 869.985124 73.431734 
L 883.545868 94.832326 
L 888.066116 117.808301 
L 892.586364 122.182151 
L 897.106612 105.511376 
L 901.62686 109.131496 
L 915.187603 91.329534 
L 919.707851 96.473802 
L 924.228099 125.683744 
L 928.748347 111.702752 
L 933.268595 107.695581 
L 946.829339 91.827106 
L 951.349587 92.805809 
L 955.869835 61.642474 
L 960.390083 58.551951 
L 964.910331 64.766114 
L 978.471074 93.627269 
L 982.991322 65.796823 
L 987.51157 72.213576 
L 992.031818 47.813917 
L 996.552066 41.11 
L 1010.11281 70.647265 
L 1014.633058 54.780855 
L 1019.153306 74.938638 
L 1023.673554 86.204873 
L 1028.193802 72.344391 
L 1041.754545 83.832073 
L 1046.274793 62.878649 
L 1050.795041 73.398397 
L 1055.315289 42.620734 
L 1059.835537 49.2887 
L 1073.396281 61.808699 
L 1077.916529 43.789885 
L 1082.436777 63.747749 
L 1086.957025 91.012124 
L 1091.477273 81.783076 
L 1091.477273 81.783076 
" style="fill:none;stroke:#bcbd22;stroke-linecap:square;stroke-width:1.5;"/>
   </g>
   <g id="patch_3">
    <path d="M 47.3 360.1 
L 47.3 25.92 
" style="fill:none;stroke:#000000;stroke-linecap:square;stroke-linejoin:miter;stroke-width:0.8;"/>
   </g>
   <g id="patch_4">
    <path d="M 1141.2 360.1 
L 1141.2 25.92 
" style="fill:none;stroke:#000000;stroke-linecap:square;stroke-linejoin:miter;stroke-width:0.8;"/>
   </g>
   <g id="patch_5">
    <path d="M 47.3 360.1 
L 1141.2 360.1 
" style="fill:none;stroke:#000000;stroke-linecap:square;stroke-linejoin:miter;stroke-width:0.8;"/>
   </g>
   <g id="patch_6">
    <path d="M 47.3 25.92 
L 1141.2 25.92 
" style="fill:none;stroke:#000000;stroke-linecap:square;stroke-linejoin:miter;stroke-width:0.8;"/>
   </g>
   <g id="text_10">
    <!-- Net Value: (2010-02-02 ~ 2010-10-08) -->
    <g transform="translate(478.1425 19.92)scale(0.12 -0.12)">
     <defs>
      <path d="M 9.8125 72.90625 
L 23.09375 72.90625 
L 55.421875 11.921875 
L 55.421875 72.90625 
L 64.984375 72.90625 
L 64.984375 0 
L 51.703125 0 
L 19.390625 60.984375 
L 19.390625 0 
L 9.8125 0 
z
" id="DejaVuSans-78"/>
      <path d="M 28.609375 0 
L 0.78125 72.90625 
L 11.078125 72.90625 
L 34.1875 11.53125 
L 57.328125 72.90625 
L 67.578125 72.90625 
L 39.796875 0 
z
" id="DejaVuSans-86"/>
      <path d="M 11.71875 12.40625 
L 22.015625 12.40625 
L 22.015625 0 
L 11.71875 0 
z
M 11.71875 51.703125 
L 22.015625 51.703125 
L 22.015625 39.3125 
L 11.71875 39.3125 
z
" id="DejaVuSans-58"/>
      <path d="M 31 75.875 
Q 24.46875 64.65625 21.28125 53.65625 
Q 18.109375 42.671875 18.109375 31.390625 
Q 18.109375 20.125 21.3125 9.0625 
Q 24.515625 -2 31 -13.1875 
L 23.1875 -13.1875 
Q 15.875 -1.703125 12.234375 9.375 
Q 8.59375 20.453125 8.59375 31.390625 
Q 8.59375 42.28125 12.203125 53.3125 
Q 15.828125 64.359375 23.1875 75.875 
z
" id="DejaVuSans-40"/>
      <path d="M 4.890625 31.390625 
L 31.203125 31.390625 
L 31.203125 23.390625 
L 4.890625 23.390625 
z
" id="DejaVuSans-45"/>
      <path d="M 73.1875 39.890625 
L 73.1875 31.203125 
Q 68.0625 27.34375 63.6875 25.6875 
Q 59.328125 24.03125 54.59375 24.03125 
Q 49.21875 24.03125 42.09375 26.90625 
Q 41.546875 27.09375 41.3125 27.203125 
Q 40.96875 27.34375 40.234375 27.59375 
Q 32.671875 30.609375 28.078125 30.609375 
Q 23.78125 30.609375 19.578125 28.734375 
Q 15.375 26.859375 10.59375 22.796875 
L 10.59375 31.5 
Q 15.71875 35.359375 20.09375 37.03125 
Q 24.46875 38.71875 29.203125 38.71875 
Q 34.578125 38.71875 41.75 35.796875 
Q 42.234375 35.59375 42.484375 35.5 
Q 42.875 35.359375 43.5625 35.109375 
Q 51.125 32.078125 55.71875 32.078125 
Q 59.90625 32.078125 64.03125 33.9375 
Q 68.171875 35.796875 73.1875 39.890625 
z
" id="DejaVuSans-126"/>
      <path d="M 31.78125 34.625 
Q 24.75 34.625 20.71875 30.859375 
Q 16.703125 27.09375 16.703125 20.515625 
Q 16.703125 13.921875 20.71875 10.15625 
Q 24.75 6.390625 31.78125 6.390625 
Q 38.8125 6.390625 42.859375 10.171875 
Q 46.921875 13.96875 46.921875 20.515625 
Q 46.921875 27.09375 42.890625 30.859375 
Q 38.875 34.625 31.78125 34.625 
z
M 21.921875 38.8125 
Q 15.578125 40.375 12.03125 44.71875 
Q 8.5 49.078125 8.5 55.328125 
Q 8.5 64.0625 14.71875 69.140625 
Q 20.953125 74.21875 31.78125 74.21875 
Q 42.671875 74.21875 48.875 69.140625 
Q 55.078125 64.0625 55.078125 55.328125 
Q 55.078125 49.078125 51.53125 44.71875 
Q 48 40.375 41.703125 38.8125 
Q 48.828125 37.15625 52.796875 32.3125 
Q 56.78125 27.484375 56.78125 20.515625 
Q 56.78125 9.90625 50.3125 4.234375 
Q 43.84375 -1.421875 31.78125 -1.421875 
Q 19.734375 -1.421875 13.25 4.234375 
Q 6.78125 9.90625 6.78125 20.515625 
Q 6.78125 27.484375 10.78125 32.3125 
Q 14.796875 37.15625 21.921875 38.8125 
z
M 18.3125 54.390625 
Q 18.3125 48.734375 21.84375 45.5625 
Q 25.390625 42.390625 31.78125 42.390625 
Q 38.140625 42.390625 41.71875 45.5625 
Q 45.3125 48.734375 45.3125 54.390625 
Q 45.3125 60.0625 41.71875 63.234375 
Q 38.140625 66.40625 31.78125 66.40625 
Q 25.390625 66.40625 21.84375 63.234375 
Q 18.3125 60.0625 18.3125 54.390625 
z
" id="DejaVuSans-56"/>
      <path d="M 8.015625 75.875 
L 15.828125 75.875 
Q 23.140625 64.359375 26.78125 53.3125 
Q 30.421875 42.28125 30.421875 31.390625 
Q 30.421875 20.453125 26.78125 9.375 
Q 23.140625 -1.703125 15.828125 -13.1875 
L 8.015625 -13.1875 
Q 14.5 -2 17.703125 9.0625 
Q 20.90625 20.125 20.90625 31.390625 
Q 20.90625 42.671875 17.703125 53.65625 
Q 14.5 64.65625 8.015625 75.875 
z
" id="DejaVuSans-41"/>
     </defs>
     <use xlink:href="#DejaVuSans-78"/>
     <use x="74.804688" xlink:href="#DejaVuSans-101"/>
     <use x="136.328125" xlink:href="#DejaVuSans-116"/>
     <use x="175.537109" xlink:href="#DejaVuSans-32"/>
     <use x="207.324219" xlink:href="#DejaVuSans-86"/>
     <use x="267.982422" xlink:href="#DejaVuSans-97"/>
     <use x="329.261719" xlink:href="#DejaVuSans-108"/>
     <use x="357.044922" xlink:href="#DejaVuSans-117"/>
     <use x="420.423828" xlink:href="#DejaVuSans-101"/>
     <use x="481.947266" xlink:href="#DejaVuSans-58"/>
     <use x="515.638672" xlink:href="#DejaVuSans-32"/>
     <use x="547.425781" xlink:href="#DejaVuSans-40"/>
     <use x="586.439453" xlink:href="#DejaVuSans-50"/>
     <use x="650.0625" xlink:href="#DejaVuSans-48"/>
     <use x="713.685547" xlink:href="#DejaVuSans-49"/>
     <use x="777.308594" xlink:href="#DejaVuSans-48"/>
     <use x="840.931641" xlink:href="#DejaVuSans-45"/>
     <use x="877.015625" xlink:href="#DejaVuSans-48"/>
     <use x="940.638672" xlink:href="#DejaVuSans-50"/>
     <use x="1004.261719" xlink:href="#DejaVuSans-45"/>
     <use x="1040.345703" xlink:href="#DejaVuSans-48"/>
     <use x="1103.96875" xlink:href="#DejaVuSans-50"/>
     <use x="1167.591797" xlink:href="#DejaVuSans-32"/>
     <use x="1199.378906" xlink:href="#DejaVuSans-126"/>
     <use x="1283.167969" xlink:href="#DejaVuSans-32"/>
     <use x="1314.955078" xlink:href="#DejaVuSans-50"/>
     <use x="1378.578125" xlink:href="#DejaVuSans-48"/>
     <use x="1442.201172" xlink:href="#DejaVuSans-49"/>
     <use x="1505.824219" xlink:href="#DejaVuSans-48"/>
     <use x="1569.447266" xlink:href="#DejaVuSans-45"/>
     <use x="1605.53125" xlink:href="#DejaVuSans-49"/>
     <use x="1669.154297" xlink:href="#DejaVuSans-48"/>
     <use x="1732.777344" xlink:href="#DejaVuSans-45"/>
     <use x="1768.861328" xlink:href="#DejaVuSans-48"/>
     <use x="1832.484375" xlink:href="#DejaVuSans-56"/>
     <use x="1896.107422" xlink:href="#DejaVuSans-41"/>
    </g>
   </g>
   <g id="legend_1">
    <g id="patch_7">
     <path d="M 54.3 168.248125 
L 150.789062 168.248125 
Q 152.789062 168.248125 152.789062 166.248125 
L 152.789062 32.92 
Q 152.789062 30.92 150.789062 30.92 
L 54.3 30.92 
Q 52.3 30.92 52.3 32.92 
L 52.3 166.248125 
Q 52.3 168.248125 54.3 168.248125 
z
" style="fill:#ffffff;opacity:0.8;stroke:#cccccc;stroke-linejoin:miter;"/>
    </g>
    <g id="line2d_26">
     <path d="M 56.3 39.018438 
L 76.3 39.018438 
" style="fill:none;stroke:#1f77b4;stroke-linecap:square;stroke-width:1.5;"/>
    </g>
    <g id="line2d_27"/>
    <g id="text_11">
     <!-- group_1 -->
     <g transform="translate(84.3 42.518438)scale(0.1 -0.1)">
      <defs>
       <path d="M 45.40625 27.984375 
Q 45.40625 37.75 41.375 43.109375 
Q 37.359375 48.484375 30.078125 48.484375 
Q 22.859375 48.484375 18.828125 43.109375 
Q 14.796875 37.75 14.796875 27.984375 
Q 14.796875 18.265625 18.828125 12.890625 
Q 22.859375 7.515625 30.078125 7.515625 
Q 37.359375 7.515625 41.375 12.890625 
Q 45.40625 18.265625 45.40625 27.984375 
z
M 54.390625 6.78125 
Q 54.390625 -7.171875 48.1875 -13.984375 
Q 42 -20.796875 29.203125 -20.796875 
Q 24.46875 -20.796875 20.265625 -20.09375 
Q 16.0625 -19.390625 12.109375 -17.921875 
L 12.109375 -9.1875 
Q 16.0625 -11.328125 19.921875 -12.34375 
Q 23.78125 -13.375 27.78125 -13.375 
Q 36.625 -13.375 41.015625 -8.765625 
Q 45.40625 -4.15625 45.40625 5.171875 
L 45.40625 9.625 
Q 42.625 4.78125 38.28125 2.390625 
Q 33.9375 0 27.875 0 
Q 17.828125 0 11.671875 7.65625 
Q 5.515625 15.328125 5.515625 27.984375 
Q 5.515625 40.671875 11.671875 48.328125 
Q 17.828125 56 27.875 56 
Q 33.9375 56 38.28125 53.609375 
Q 42.625 51.21875 45.40625 46.390625 
L 45.40625 54.6875 
L 54.390625 54.6875 
z
" id="DejaVuSans-103"/>
       <path d="M 41.109375 46.296875 
Q 39.59375 47.171875 37.8125 47.578125 
Q 36.03125 48 33.890625 48 
Q 26.265625 48 22.1875 43.046875 
Q 18.109375 38.09375 18.109375 28.8125 
L 18.109375 0 
L 9.078125 0 
L 9.078125 54.6875 
L 18.109375 54.6875 
L 18.109375 46.1875 
Q 20.953125 51.171875 25.484375 53.578125 
Q 30.03125 56 36.53125 56 
Q 37.453125 56 38.578125 55.875 
Q 39.703125 55.765625 41.0625 55.515625 
z
" id="DejaVuSans-114"/>
       <path d="M 30.609375 48.390625 
Q 23.390625 48.390625 19.1875 42.75 
Q 14.984375 37.109375 14.984375 27.296875 
Q 14.984375 17.484375 19.15625 11.84375 
Q 23.34375 6.203125 30.609375 6.203125 
Q 37.796875 6.203125 41.984375 11.859375 
Q 46.1875 17.53125 46.1875 27.296875 
Q 46.1875 37.015625 41.984375 42.703125 
Q 37.796875 48.390625 30.609375 48.390625 
z
M 30.609375 56 
Q 42.328125 56 49.015625 48.375 
Q 55.71875 40.765625 55.71875 27.296875 
Q 55.71875 13.875 49.015625 6.21875 
Q 42.328125 -1.421875 30.609375 -1.421875 
Q 18.84375 -1.421875 12.171875 6.21875 
Q 5.515625 13.875 5.515625 27.296875 
Q 5.515625 40.765625 12.171875 48.375 
Q 18.84375 56 30.609375 56 
z
" id="DejaVuSans-111"/>
       <path d="M 18.109375 8.203125 
L 18.109375 -20.796875 
L 9.078125 -20.796875 
L 9.078125 54.6875 
L 18.109375 54.6875 
L 18.109375 46.390625 
Q 20.953125 51.265625 25.265625 53.625 
Q 29.59375 56 35.59375 56 
Q 45.5625 56 51.78125 48.09375 
Q 58.015625 40.1875 58.015625 27.296875 
Q 58.015625 14.40625 51.78125 6.484375 
Q 45.5625 -1.421875 35.59375 -1.421875 
Q 29.59375 -1.421875 25.265625 0.953125 
Q 20.953125 3.328125 18.109375 8.203125 
z
M 48.6875 27.296875 
Q 48.6875 37.203125 44.609375 42.84375 
Q 40.53125 48.484375 33.40625 48.484375 
Q 26.265625 48.484375 22.1875 42.84375 
Q 18.109375 37.203125 18.109375 27.296875 
Q 18.109375 17.390625 22.1875 11.75 
Q 26.265625 6.109375 33.40625 6.109375 
Q 40.53125 6.109375 44.609375 11.75 
Q 48.6875 17.390625 48.6875 27.296875 
z
" id="DejaVuSans-112"/>
       <path d="M 50.984375 -16.609375 
L 50.984375 -23.578125 
L -0.984375 -23.578125 
L -0.984375 -16.609375 
z
" id="DejaVuSans-95"/>
      </defs>
      <use xlink:href="#DejaVuSans-103"/>
      <use x="63.476562" xlink:href="#DejaVuSans-114"/>
      <use x="102.339844" xlink:href="#DejaVuSans-111"/>
      <use x="163.521484" xlink:href="#DejaVuSans-117"/>
      <use x="226.900391" xlink:href="#DejaVuSans-112"/>
      <use x="290.376953" xlink:href="#DejaVuSans-95"/>
      <use x="340.376953" xlink:href="#DejaVuSans-49"/>
     </g>
    </g>
    <g id="line2d_28">
     <path d="M 56.3 53.974688 
L 76.3 53.974688 
" style="fill:none;stroke:#ff7f0e;stroke-linecap:square;stroke-width:1.5;"/>
    </g>
    <g id="line2d_29"/>
    <g id="text_12">
     <!-- group_2 -->
     <g transform="translate(84.3 57.474688)scale(0.1 -0.1)">
      <use xlink:href="#DejaVuSans-103"/>
      <use x="63.476562" xlink:href="#DejaVuSans-114"/>
      <use x="102.339844" xlink:href="#DejaVuSans-111"/>
      <use x="163.521484" xlink:href="#DejaVuSans-117"/>
      <use x="226.900391" xlink:href="#DejaVuSans-112"/>
      <use x="290.376953" xlink:href="#DejaVuSans-95"/>
      <use x="340.376953" xlink:href="#DejaVuSans-50"/>
     </g>
    </g>
    <g id="line2d_30">
     <path d="M 56.3 68.930938 
L 76.3 68.930938 
" style="fill:none;stroke:#2ca02c;stroke-linecap:square;stroke-width:1.5;"/>
    </g>
    <g id="line2d_31"/>
    <g id="text_13">
     <!-- group_3 -->
     <g transform="translate(84.3 72.430938)scale(0.1 -0.1)">
      <use xlink:href="#DejaVuSans-103"/>
      <use x="63.476562" xlink:href="#DejaVuSans-114"/>
      <use x="102.339844" xlink:href="#DejaVuSans-111"/>
      <use x="163.521484" xlink:href="#DejaVuSans-117"/>
      <use x="226.900391" xlink:href="#DejaVuSans-112"/>
      <use x="290.376953" xlink:href="#DejaVuSans-95"/>
      <use x="340.376953" xlink:href="#DejaVuSans-51"/>
     </g>
    </g>
    <g id="line2d_32">
     <path d="M 56.3 83.887188 
L 76.3 83.887188 
" style="fill:none;stroke:#d62728;stroke-linecap:square;stroke-width:1.5;"/>
    </g>
    <g id="line2d_33"/>
    <g id="text_14">
     <!-- group_4 -->
     <g transform="translate(84.3 87.387188)scale(0.1 -0.1)">
      <use xlink:href="#DejaVuSans-103"/>
      <use x="63.476562" xlink:href="#DejaVuSans-114"/>
      <use x="102.339844" xlink:href="#DejaVuSans-111"/>
      <use x="163.521484" xlink:href="#DejaVuSans-117"/>
      <use x="226.900391" xlink:href="#DejaVuSans-112"/>
      <use x="290.376953" xlink:href="#DejaVuSans-95"/>
      <use x="340.376953" xlink:href="#DejaVuSans-52"/>
     </g>
    </g>
    <g id="line2d_34">
     <path d="M 56.3 98.843438 
L 76.3 98.843438 
" style="fill:none;stroke:#9467bd;stroke-linecap:square;stroke-width:1.5;"/>
    </g>
    <g id="line2d_35"/>
    <g id="text_15">
     <!-- group_5 -->
     <g transform="translate(84.3 102.343438)scale(0.1 -0.1)">
      <use xlink:href="#DejaVuSans-103"/>
      <use x="63.476562" xlink:href="#DejaVuSans-114"/>
      <use x="102.339844" xlink:href="#DejaVuSans-111"/>
      <use x="163.521484" xlink:href="#DejaVuSans-117"/>
      <use x="226.900391" xlink:href="#DejaVuSans-112"/>
      <use x="290.376953" xlink:href="#DejaVuSans-95"/>
      <use x="340.376953" xlink:href="#DejaVuSans-53"/>
     </g>
    </g>
    <g id="line2d_36">
     <path d="M 56.3 113.799688 
L 76.3 113.799688 
" style="fill:none;stroke:#8c564b;stroke-linecap:square;stroke-width:1.5;"/>
    </g>
    <g id="line2d_37"/>
    <g id="text_16">
     <!-- benchmark -->
     <g transform="translate(84.3 117.299688)scale(0.1 -0.1)">
      <defs>
       <path d="M 48.6875 27.296875 
Q 48.6875 37.203125 44.609375 42.84375 
Q 40.53125 48.484375 33.40625 48.484375 
Q 26.265625 48.484375 22.1875 42.84375 
Q 18.109375 37.203125 18.109375 27.296875 
Q 18.109375 17.390625 22.1875 11.75 
Q 26.265625 6.109375 33.40625 6.109375 
Q 40.53125 6.109375 44.609375 11.75 
Q 48.6875 17.390625 48.6875 27.296875 
z
M 18.109375 46.390625 
Q 20.953125 51.265625 25.265625 53.625 
Q 29.59375 56 35.59375 56 
Q 45.5625 56 51.78125 48.09375 
Q 58.015625 40.1875 58.015625 27.296875 
Q 58.015625 14.40625 51.78125 6.484375 
Q 45.5625 -1.421875 35.59375 -1.421875 
Q 29.59375 -1.421875 25.265625 0.953125 
Q 20.953125 3.328125 18.109375 8.203125 
L 18.109375 0 
L 9.078125 0 
L 9.078125 75.984375 
L 18.109375 75.984375 
z
" id="DejaVuSans-98"/>
       <path d="M 48.78125 52.59375 
L 48.78125 44.1875 
Q 44.96875 46.296875 41.140625 47.34375 
Q 37.3125 48.390625 33.40625 48.390625 
Q 24.65625 48.390625 19.8125 42.84375 
Q 14.984375 37.3125 14.984375 27.296875 
Q 14.984375 17.28125 19.8125 11.734375 
Q 24.65625 6.203125 33.40625 6.203125 
Q 37.3125 6.203125 41.140625 7.25 
Q 44.96875 8.296875 48.78125 10.40625 
L 48.78125 2.09375 
Q 45.015625 0.34375 40.984375 -0.53125 
Q 36.96875 -1.421875 32.421875 -1.421875 
Q 20.0625 -1.421875 12.78125 6.34375 
Q 5.515625 14.109375 5.515625 27.296875 
Q 5.515625 40.671875 12.859375 48.328125 
Q 20.21875 56 33.015625 56 
Q 37.15625 56 41.109375 55.140625 
Q 45.0625 54.296875 48.78125 52.59375 
z
" id="DejaVuSans-99"/>
       <path d="M 54.890625 33.015625 
L 54.890625 0 
L 45.90625 0 
L 45.90625 32.71875 
Q 45.90625 40.484375 42.875 44.328125 
Q 39.84375 48.1875 33.796875 48.1875 
Q 26.515625 48.1875 22.3125 43.546875 
Q 18.109375 38.921875 18.109375 30.90625 
L 18.109375 0 
L 9.078125 0 
L 9.078125 75.984375 
L 18.109375 75.984375 
L 18.109375 46.1875 
Q 21.34375 51.125 25.703125 53.5625 
Q 30.078125 56 35.796875 56 
Q 45.21875 56 50.046875 50.171875 
Q 54.890625 44.34375 54.890625 33.015625 
z
" id="DejaVuSans-104"/>
       <path d="M 52 44.1875 
Q 55.375 50.25 60.0625 53.125 
Q 64.75 56 71.09375 56 
Q 79.640625 56 84.28125 50.015625 
Q 88.921875 44.046875 88.921875 33.015625 
L 88.921875 0 
L 79.890625 0 
L 79.890625 32.71875 
Q 79.890625 40.578125 77.09375 44.375 
Q 74.3125 48.1875 68.609375 48.1875 
Q 61.625 48.1875 57.5625 43.546875 
Q 53.515625 38.921875 53.515625 30.90625 
L 53.515625 0 
L 44.484375 0 
L 44.484375 32.71875 
Q 44.484375 40.625 41.703125 44.40625 
Q 38.921875 48.1875 33.109375 48.1875 
Q 26.21875 48.1875 22.15625 43.53125 
Q 18.109375 38.875 18.109375 30.90625 
L 18.109375 0 
L 9.078125 0 
L 9.078125 54.6875 
L 18.109375 54.6875 
L 18.109375 46.1875 
Q 21.1875 51.21875 25.484375 53.609375 
Q 29.78125 56 35.6875 56 
Q 41.65625 56 45.828125 52.96875 
Q 50 49.953125 52 44.1875 
z
" id="DejaVuSans-109"/>
       <path d="M 9.078125 75.984375 
L 18.109375 75.984375 
L 18.109375 31.109375 
L 44.921875 54.6875 
L 56.390625 54.6875 
L 27.390625 29.109375 
L 57.625 0 
L 45.90625 0 
L 18.109375 26.703125 
L 18.109375 0 
L 9.078125 0 
z
" id="DejaVuSans-107"/>
      </defs>
      <use xlink:href="#DejaVuSans-98"/>
      <use x="63.476562" xlink:href="#DejaVuSans-101"/>
      <use x="125" xlink:href="#DejaVuSans-110"/>
      <use x="188.378906" xlink:href="#DejaVuSans-99"/>
      <use x="243.359375" xlink:href="#DejaVuSans-104"/>
      <use x="306.738281" xlink:href="#DejaVuSans-109"/>
      <use x="404.150391" xlink:href="#DejaVuSans-97"/>
      <use x="465.429688" xlink:href="#DejaVuSans-114"/>
      <use x="506.542969" xlink:href="#DejaVuSans-107"/>
     </g>
    </g>
    <g id="line2d_38">
     <path d="M 56.3 128.477813 
L 76.3 128.477813 
" style="fill:none;stroke:#e377c2;stroke-linecap:square;stroke-width:1.5;"/>
    </g>
    <g id="line2d_39"/>
    <g id="text_17">
     <!-- long_excess -->
     <g transform="translate(84.3 131.977813)scale(0.1 -0.1)">
      <defs>
       <path d="M 54.890625 54.6875 
L 35.109375 28.078125 
L 55.90625 0 
L 45.3125 0 
L 29.390625 21.484375 
L 13.484375 0 
L 2.875 0 
L 24.125 28.609375 
L 4.6875 54.6875 
L 15.28125 54.6875 
L 29.78125 35.203125 
L 44.28125 54.6875 
z
" id="DejaVuSans-120"/>
       <path d="M 44.28125 53.078125 
L 44.28125 44.578125 
Q 40.484375 46.53125 36.375 47.5 
Q 32.28125 48.484375 27.875 48.484375 
Q 21.1875 48.484375 17.84375 46.4375 
Q 14.5 44.390625 14.5 40.28125 
Q 14.5 37.15625 16.890625 35.375 
Q 19.28125 33.59375 26.515625 31.984375 
L 29.59375 31.296875 
Q 39.15625 29.25 43.1875 25.515625 
Q 47.21875 21.78125 47.21875 15.09375 
Q 47.21875 7.46875 41.1875 3.015625 
Q 35.15625 -1.421875 24.609375 -1.421875 
Q 20.21875 -1.421875 15.453125 -0.5625 
Q 10.6875 0.296875 5.421875 2 
L 5.421875 11.28125 
Q 10.40625 8.6875 15.234375 7.390625 
Q 20.0625 6.109375 24.8125 6.109375 
Q 31.15625 6.109375 34.5625 8.28125 
Q 37.984375 10.453125 37.984375 14.40625 
Q 37.984375 18.0625 35.515625 20.015625 
Q 33.0625 21.96875 24.703125 23.78125 
L 21.578125 24.515625 
Q 13.234375 26.265625 9.515625 29.90625 
Q 5.8125 33.546875 5.8125 39.890625 
Q 5.8125 47.609375 11.28125 51.796875 
Q 16.75 56 26.8125 56 
Q 31.78125 56 36.171875 55.265625 
Q 40.578125 54.546875 44.28125 53.078125 
z
" id="DejaVuSans-115"/>
      </defs>
      <use xlink:href="#DejaVuSans-108"/>
      <use x="27.783203" xlink:href="#DejaVuSans-111"/>
      <use x="88.964844" xlink:href="#DejaVuSans-110"/>
      <use x="152.34375" xlink:href="#DejaVuSans-103"/>
      <use x="215.820312" xlink:href="#DejaVuSans-95"/>
      <use x="265.820312" xlink:href="#DejaVuSans-101"/>
      <use x="325.59375" xlink:href="#DejaVuSans-120"/>
      <use x="383.023438" xlink:href="#DejaVuSans-99"/>
      <use x="438.003906" xlink:href="#DejaVuSans-101"/>
      <use x="499.527344" xlink:href="#DejaVuSans-115"/>
      <use x="551.626953" xlink:href="#DejaVuSans-115"/>
     </g>
    </g>
    <g id="line2d_40">
     <path d="M 56.3 143.434063 
L 76.3 143.434063 
" style="fill:none;stroke:#7f7f7f;stroke-linecap:square;stroke-width:1.5;"/>
    </g>
    <g id="line2d_41"/>
    <g id="text_18">
     <!-- short_excess -->
     <g transform="translate(84.3 146.934063)scale(0.1 -0.1)">
      <use xlink:href="#DejaVuSans-115"/>
      <use x="52.099609" xlink:href="#DejaVuSans-104"/>
      <use x="115.478516" xlink:href="#DejaVuSans-111"/>
      <use x="176.660156" xlink:href="#DejaVuSans-114"/>
      <use x="217.773438" xlink:href="#DejaVuSans-116"/>
      <use x="256.982422" xlink:href="#DejaVuSans-95"/>
      <use x="306.982422" xlink:href="#DejaVuSans-101"/>
      <use x="366.755859" xlink:href="#DejaVuSans-120"/>
      <use x="424.185547" xlink:href="#DejaVuSans-99"/>
      <use x="479.166016" xlink:href="#DejaVuSans-101"/>
      <use x="540.689453" xlink:href="#DejaVuSans-115"/>
      <use x="592.789062" xlink:href="#DejaVuSans-115"/>
     </g>
    </g>
    <g id="line2d_42">
     <path d="M 56.3 158.390313 
L 76.3 158.390313 
" style="fill:none;stroke:#bcbd22;stroke-linecap:square;stroke-width:1.5;"/>
    </g>
    <g id="line2d_43"/>
    <g id="text_19">
     <!-- long_short -->
     <g transform="translate(84.3 161.890313)scale(0.1 -0.1)">
      <use xlink:href="#DejaVuSans-108"/>
      <use x="27.783203" xlink:href="#DejaVuSans-111"/>
      <use x="88.964844" xlink:href="#DejaVuSans-110"/>
      <use x="152.34375" xlink:href="#DejaVuSans-103"/>
      <use x="215.820312" xlink:href="#DejaVuSans-95"/>
      <use x="265.820312" xlink:href="#DejaVuSans-115"/>
      <use x="317.919922" xlink:href="#DejaVuSans-104"/>
      <use x="381.298828" xlink:href="#DejaVuSans-111"/>
      <use x="442.480469" xlink:href="#DejaVuSans-114"/>
      <use x="483.59375" xlink:href="#DejaVuSans-116"/>
     </g>
    </g>
   </g>
  </g>
 </g>
 <defs>
  <clipPath id="p10cd4f5226">
   <rect height="334.18" width="1093.9" x="47.3" y="25.92"/>
  </clipPath>
 </defs>
</svg>
