<?xml version="1.0" encoding="utf-8" standalone="no"?>
<!DOCTYPE svg PUBLIC "-//W3C//DTD SVG 1.1//EN"
  "http://www.w3.org/Graphics/SVG/1.1/DTD/svg11.dtd">
<!-- Created with matplotlib (https://matplotlib.org/) -->
<svg height="374.4pt" version="1.1" viewBox="0 0 1152 374.4" width="1152pt" xmlns="http://www.w3.org/2000/svg" xmlns:xlink="http://www.w3.org/1999/xlink">
 <metadata>
  <rdf:RDF xmlns:cc="http://creativecommons.org/ns#" xmlns:dc="http://purl.org/dc/elements/1.1/" xmlns:rdf="http://www.w3.org/1999/02/22-rdf-syntax-ns#">
   <cc:Work>
    <dc:type rdf:resource="http://purl.org/dc/dcmitype/StillImage"/>
    <dc:date>2023-10-11T16:37:16.286344</dc:date>
    <dc:format>image/svg+xml</dc:format>
    <dc:creator>
     <cc:Agent>
      <dc:title>Matplotlib v3.3.4, https://matplotlib.org/</dc:title>
     </cc:Agent>
    </dc:creator>
   </cc:Work>
  </rdf:RDF>
 </metadata>
 <defs>
  <style type="text/css">*{stroke-linecap:butt;stroke-linejoin:round;}</style>
 </defs>
 <g id="figure_1">
  <g id="patch_1">
   <path d="M 0 374.4 
L 1152 374.4 
L 1152 0 
L 0 0 
z
" style="fill:#ffffff;"/>
  </g>
  <g id="axes_1">
   <g id="patch_2">
    <path d="M 47.3 360.1 
L 1141.2 360.1 
L 1141.2 25.92 
L 47.3 25.92 
z
" style="fill:#ffffff;"/>
   </g>
   <g id="matplotlib.axis_1"/>
   <g id="matplotlib.axis_2">
    <g id="ytick_1">
     <g id="line2d_1">
      <path clip-path="url(#pbbed3584ad)" d="M 47.3 336.533724 
L 1141.2 336.533724 
" style="fill:none;stroke:#b0b0b0;stroke-linecap:square;stroke-width:0.8;"/>
     </g>
     <g id="line2d_2">
      <defs>
       <path d="M 0 0 
L -3.5 0 
" id="m8e658a279f" style="stroke:#000000;stroke-width:0.8;"/>
      </defs>
      <g>
       <use style="stroke:#000000;stroke-width:0.8;" x="47.3" xlink:href="#m8e658a279f" y="336.533724"/>
      </g>
     </g>
     <g id="text_1">
      <!-- 0.5 -->
      <g transform="translate(24.396875 340.332942)scale(0.1 -0.1)">
       <defs>
        <path d="M 31.78125 66.40625 
Q 24.171875 66.40625 20.328125 58.90625 
Q 16.5 51.421875 16.5 36.375 
Q 16.5 21.390625 20.328125 13.890625 
Q 24.171875 6.390625 31.78125 6.390625 
Q 39.453125 6.390625 43.28125 13.890625 
Q 47.125 21.390625 47.125 36.375 
Q 47.125 51.421875 43.28125 58.90625 
Q 39.453125 66.40625 31.78125 66.40625 
z
M 31.78125 74.21875 
Q 44.046875 74.21875 50.515625 64.515625 
Q 56.984375 54.828125 56.984375 36.375 
Q 56.984375 17.96875 50.515625 8.265625 
Q 44.046875 -1.421875 31.78125 -1.421875 
Q 19.53125 -1.421875 13.0625 8.265625 
Q 6.59375 17.96875 6.59375 36.375 
Q 6.59375 54.828125 13.0625 64.515625 
Q 19.53125 74.21875 31.78125 74.21875 
z
" id="DejaVuSans-48"/>
        <path d="M 10.6875 12.40625 
L 21 12.40625 
L 21 0 
L 10.6875 0 
z
" id="DejaVuSans-46"/>
        <path d="M 10.796875 72.90625 
L 49.515625 72.90625 
L 49.515625 64.59375 
L 19.828125 64.59375 
L 19.828125 46.734375 
Q 21.96875 47.46875 24.109375 47.828125 
Q 26.265625 48.1875 28.421875 48.1875 
Q 40.625 48.1875 47.75 41.5 
Q 54.890625 34.8125 54.890625 23.390625 
Q 54.890625 11.625 47.5625 5.09375 
Q 40.234375 -1.421875 26.90625 -1.421875 
Q 22.3125 -1.421875 17.546875 -0.640625 
Q 12.796875 0.140625 7.71875 1.703125 
L 7.71875 11.625 
Q 12.109375 9.234375 16.796875 8.0625 
Q 21.484375 6.890625 26.703125 6.890625 
Q 35.15625 6.890625 40.078125 11.328125 
Q 45.015625 15.765625 45.015625 23.390625 
Q 45.015625 31 40.078125 35.4375 
Q 35.15625 39.890625 26.703125 39.890625 
Q 22.75 39.890625 18.8125 39.015625 
Q 14.890625 38.140625 10.796875 36.28125 
z
" id="DejaVuSans-53"/>
       </defs>
       <use xlink:href="#DejaVuSans-48"/>
       <use x="63.623047" xlink:href="#DejaVuSans-46"/>
       <use x="95.410156" xlink:href="#DejaVuSans-53"/>
      </g>
     </g>
    </g>
    <g id="ytick_2">
     <g id="line2d_3">
      <path clip-path="url(#pbbed3584ad)" d="M 47.3 274.250212 
L 1141.2 274.250212 
" style="fill:none;stroke:#b0b0b0;stroke-linecap:square;stroke-width:0.8;"/>
     </g>
     <g id="line2d_4">
      <g>
       <use style="stroke:#000000;stroke-width:0.8;" x="47.3" xlink:href="#m8e658a279f" y="274.250212"/>
      </g>
     </g>
     <g id="text_2">
      <!-- 1.0 -->
      <g transform="translate(24.396875 278.049431)scale(0.1 -0.1)">
       <defs>
        <path d="M 12.40625 8.296875 
L 28.515625 8.296875 
L 28.515625 63.921875 
L 10.984375 60.40625 
L 10.984375 69.390625 
L 28.421875 72.90625 
L 38.28125 72.90625 
L 38.28125 8.296875 
L 54.390625 8.296875 
L 54.390625 0 
L 12.40625 0 
z
" id="DejaVuSans-49"/>
       </defs>
       <use xlink:href="#DejaVuSans-49"/>
       <use x="63.623047" xlink:href="#DejaVuSans-46"/>
       <use x="95.410156" xlink:href="#DejaVuSans-48"/>
      </g>
     </g>
    </g>
    <g id="ytick_3">
     <g id="line2d_5">
      <path clip-path="url(#pbbed3584ad)" d="M 47.3 211.966701 
L 1141.2 211.966701 
" style="fill:none;stroke:#b0b0b0;stroke-linecap:square;stroke-width:0.8;"/>
     </g>
     <g id="line2d_6">
      <g>
       <use style="stroke:#000000;stroke-width:0.8;" x="47.3" xlink:href="#m8e658a279f" y="211.966701"/>
      </g>
     </g>
     <g id="text_3">
      <!-- 1.5 -->
      <g transform="translate(24.396875 215.76592)scale(0.1 -0.1)">
       <use xlink:href="#DejaVuSans-49"/>
       <use x="63.623047" xlink:href="#DejaVuSans-46"/>
       <use x="95.410156" xlink:href="#DejaVuSans-53"/>
      </g>
     </g>
    </g>
    <g id="ytick_4">
     <g id="line2d_7">
      <path clip-path="url(#pbbed3584ad)" d="M 47.3 149.68319 
L 1141.2 149.68319 
" style="fill:none;stroke:#b0b0b0;stroke-linecap:square;stroke-width:0.8;"/>
     </g>
     <g id="line2d_8">
      <g>
       <use style="stroke:#000000;stroke-width:0.8;" x="47.3" xlink:href="#m8e658a279f" y="149.68319"/>
      </g>
     </g>
     <g id="text_4">
      <!-- 2.0 -->
      <g transform="translate(24.396875 153.482408)scale(0.1 -0.1)">
       <defs>
        <path d="M 19.1875 8.296875 
L 53.609375 8.296875 
L 53.609375 0 
L 7.328125 0 
L 7.328125 8.296875 
Q 12.9375 14.109375 22.625 23.890625 
Q 32.328125 33.6875 34.8125 36.53125 
Q 39.546875 41.84375 41.421875 45.53125 
Q 43.3125 49.21875 43.3125 52.78125 
Q 43.3125 58.59375 39.234375 62.25 
Q 35.15625 65.921875 28.609375 65.921875 
Q 23.96875 65.921875 18.8125 64.3125 
Q 13.671875 62.703125 7.8125 59.421875 
L 7.8125 69.390625 
Q 13.765625 71.78125 18.9375 73 
Q 24.125 74.21875 28.421875 74.21875 
Q 39.75 74.21875 46.484375 68.546875 
Q 53.21875 62.890625 53.21875 53.421875 
Q 53.21875 48.921875 51.53125 44.890625 
Q 49.859375 40.875 45.40625 35.40625 
Q 44.1875 33.984375 37.640625 27.21875 
Q 31.109375 20.453125 19.1875 8.296875 
z
" id="DejaVuSans-50"/>
       </defs>
       <use xlink:href="#DejaVuSans-50"/>
       <use x="63.623047" xlink:href="#DejaVuSans-46"/>
       <use x="95.410156" xlink:href="#DejaVuSans-48"/>
      </g>
     </g>
    </g>
    <g id="ytick_5">
     <g id="line2d_9">
      <path clip-path="url(#pbbed3584ad)" d="M 47.3 87.399678 
L 1141.2 87.399678 
" style="fill:none;stroke:#b0b0b0;stroke-linecap:square;stroke-width:0.8;"/>
     </g>
     <g id="line2d_10">
      <g>
       <use style="stroke:#000000;stroke-width:0.8;" x="47.3" xlink:href="#m8e658a279f" y="87.399678"/>
      </g>
     </g>
     <g id="text_5">
      <!-- 2.5 -->
      <g transform="translate(24.396875 91.198897)scale(0.1 -0.1)">
       <use xlink:href="#DejaVuSans-50"/>
       <use x="63.623047" xlink:href="#DejaVuSans-46"/>
       <use x="95.410156" xlink:href="#DejaVuSans-53"/>
      </g>
     </g>
    </g>
    <g id="text_6">
     <!-- net value -->
     <g transform="translate(18.317187 216.462344)rotate(-90)scale(0.1 -0.1)">
      <defs>
       <path d="M 54.890625 33.015625 
L 54.890625 0 
L 45.90625 0 
L 45.90625 32.71875 
Q 45.90625 40.484375 42.875 44.328125 
Q 39.84375 48.1875 33.796875 48.1875 
Q 26.515625 48.1875 22.3125 43.546875 
Q 18.109375 38.921875 18.109375 30.90625 
L 18.109375 0 
L 9.078125 0 
L 9.078125 54.6875 
L 18.109375 54.6875 
L 18.109375 46.1875 
Q 21.34375 51.125 25.703125 53.5625 
Q 30.078125 56 35.796875 56 
Q 45.21875 56 50.046875 50.171875 
Q 54.890625 44.34375 54.890625 33.015625 
z
" id="DejaVuSans-110"/>
       <path d="M 56.203125 29.59375 
L 56.203125 25.203125 
L 14.890625 25.203125 
Q 15.484375 15.921875 20.484375 11.0625 
Q 25.484375 6.203125 34.421875 6.203125 
Q 39.59375 6.203125 44.453125 7.46875 
Q 49.3125 8.734375 54.109375 11.28125 
L 54.109375 2.78125 
Q 49.265625 0.734375 44.1875 -0.34375 
Q 39.109375 -1.421875 33.890625 -1.421875 
Q 20.796875 -1.421875 13.15625 6.1875 
Q 5.515625 13.8125 5.515625 26.8125 
Q 5.515625 40.234375 12.765625 48.109375 
Q 20.015625 56 32.328125 56 
Q 43.359375 56 49.78125 48.890625 
Q 56.203125 41.796875 56.203125 29.59375 
z
M 47.21875 32.234375 
Q 47.125 39.59375 43.09375 43.984375 
Q 39.0625 48.390625 32.421875 48.390625 
Q 24.90625 48.390625 20.390625 44.140625 
Q 15.875 39.890625 15.1875 32.171875 
z
" id="DejaVuSans-101"/>
       <path d="M 18.3125 70.21875 
L 18.3125 54.6875 
L 36.8125 54.6875 
L 36.8125 47.703125 
L 18.3125 47.703125 
L 18.3125 18.015625 
Q 18.3125 11.328125 20.140625 9.421875 
Q 21.96875 7.515625 27.59375 7.515625 
L 36.8125 7.515625 
L 36.8125 0 
L 27.59375 0 
Q 17.1875 0 13.234375 3.875 
Q 9.28125 7.765625 9.28125 18.015625 
L 9.28125 47.703125 
L 2.6875 47.703125 
L 2.6875 54.6875 
L 9.28125 54.6875 
L 9.28125 70.21875 
z
" id="DejaVuSans-116"/>
       <path id="DejaVuSans-32"/>
       <path d="M 2.984375 54.6875 
L 12.5 54.6875 
L 29.59375 8.796875 
L 46.6875 54.6875 
L 56.203125 54.6875 
L 35.6875 0 
L 23.484375 0 
z
" id="DejaVuSans-118"/>
       <path d="M 34.28125 27.484375 
Q 23.390625 27.484375 19.1875 25 
Q 14.984375 22.515625 14.984375 16.5 
Q 14.984375 11.71875 18.140625 8.90625 
Q 21.296875 6.109375 26.703125 6.109375 
Q 34.1875 6.109375 38.703125 11.40625 
Q 43.21875 16.703125 43.21875 25.484375 
L 43.21875 27.484375 
z
M 52.203125 31.203125 
L 52.203125 0 
L 43.21875 0 
L 43.21875 8.296875 
Q 40.140625 3.328125 35.546875 0.953125 
Q 30.953125 -1.421875 24.3125 -1.421875 
Q 15.921875 -1.421875 10.953125 3.296875 
Q 6 8.015625 6 15.921875 
Q 6 25.140625 12.171875 29.828125 
Q 18.359375 34.515625 30.609375 34.515625 
L 43.21875 34.515625 
L 43.21875 35.40625 
Q 43.21875 41.609375 39.140625 45 
Q 35.0625 48.390625 27.6875 48.390625 
Q 23 48.390625 18.546875 47.265625 
Q 14.109375 46.140625 10.015625 43.890625 
L 10.015625 52.203125 
Q 14.9375 54.109375 19.578125 55.046875 
Q 24.21875 56 28.609375 56 
Q 40.484375 56 46.34375 49.84375 
Q 52.203125 43.703125 52.203125 31.203125 
z
" id="DejaVuSans-97"/>
       <path d="M 9.421875 75.984375 
L 18.40625 75.984375 
L 18.40625 0 
L 9.421875 0 
z
" id="DejaVuSans-108"/>
       <path d="M 8.5 21.578125 
L 8.5 54.6875 
L 17.484375 54.6875 
L 17.484375 21.921875 
Q 17.484375 14.15625 20.5 10.265625 
Q 23.53125 6.390625 29.59375 6.390625 
Q 36.859375 6.390625 41.078125 11.03125 
Q 45.3125 15.671875 45.3125 23.6875 
L 45.3125 54.6875 
L 54.296875 54.6875 
L 54.296875 0 
L 45.3125 0 
L 45.3125 8.40625 
Q 42.046875 3.421875 37.71875 1 
Q 33.40625 -1.421875 27.6875 -1.421875 
Q 18.265625 -1.421875 13.375 4.4375 
Q 8.5 10.296875 8.5 21.578125 
z
M 31.109375 56 
z
" id="DejaVuSans-117"/>
      </defs>
      <use xlink:href="#DejaVuSans-110"/>
      <use x="63.378906" xlink:href="#DejaVuSans-101"/>
      <use x="124.902344" xlink:href="#DejaVuSans-116"/>
      <use x="164.111328" xlink:href="#DejaVuSans-32"/>
      <use x="195.898438" xlink:href="#DejaVuSans-118"/>
      <use x="255.078125" xlink:href="#DejaVuSans-97"/>
      <use x="316.357422" xlink:href="#DejaVuSans-108"/>
      <use x="344.140625" xlink:href="#DejaVuSans-117"/>
      <use x="407.519531" xlink:href="#DejaVuSans-101"/>
     </g>
    </g>
   </g>
   <g id="line2d_11">
    <path clip-path="url(#pbbed3584ad)" d="M 97.022727 274.495189 
L 100.922549 276.396616 
L 104.822371 279.908531 
L 108.722193 282.925005 
L 120.421658 286.532841 
L 124.32148 278.841707 
L 128.221301 283.860944 
L 132.121123 282.164287 
L 136.020945 273.444702 
L 147.72041 275.124196 
L 151.620232 278.08151 
L 155.520053 277.573897 
L 159.419875 282.693379 
L 163.319697 281.096202 
L 175.019162 285.144022 
L 178.918984 287.034313 
L 182.818806 281.346585 
L 186.718627 284.608204 
L 190.618449 288.246336 
L 202.317914 288.697185 
L 206.217736 281.828596 
L 210.117558 282.812868 
L 214.01738 292.666078 
L 217.917201 291.205249 
L 229.616667 291.037472 
L 233.516488 298.304784 
L 237.41631 296.564435 
L 241.316132 300.640134 
L 245.215954 305.734728 
L 256.915419 306.530212 
L 260.815241 310.300207 
L 264.715062 313.33144 
L 268.614884 312.761714 
L 272.514706 315.750903 
L 284.214171 313.101615 
L 288.113993 316.810126 
L 292.013815 313.698115 
L 295.913636 313.837361 
L 299.813458 318.786904 
L 311.512923 318.511946 
L 315.412745 323.901679 
L 319.312567 328.579651 
L 323.212389 333.93498 
L 327.11221 332.042352 
L 338.811676 328.917044 
L 342.711497 325.612722 
L 346.611319 326.298198 
L 350.511141 322.008275 
L 354.410963 319.374666 
L 366.110428 316.33656 
L 370.01025 318.056444 
L 373.910071 319.186823 
L 377.809893 318.880596 
L 381.709715 322.952427 
L 393.40918 320.456554 
L 397.309002 315.574053 
L 401.208824 313.024419 
L 405.108645 310.028951 
L 409.008467 305.45562 
L 420.707932 309.630011 
L 424.607754 315.680216 
L 428.507576 317.741966 
L 432.407398 312.31012 
L 436.307219 317.368469 
L 448.006684 313.576148 
L 451.906506 319.148445 
L 455.806328 322.798598 
L 459.70615 322.442544 
L 463.605971 323.68743 
L 475.305437 324.813459 
L 483.10508 322.814979 
L 487.004902 322.488547 
L 490.904724 322.912745 
L 502.604189 320.174583 
L 506.504011 324.151182 
L 510.403832 326.550789 
L 514.303654 320.849022 
L 518.203476 321.286831 
L 529.902941 320.007983 
L 533.802763 326.143477 
L 537.702585 329.263767 
L 541.602406 329.963086 
L 545.502228 331.371873 
L 557.201693 331.711519 
L 561.101515 330.086089 
L 565.001337 330.523867 
L 568.901159 324.714751 
L 572.80098 328.584552 
L 584.500446 331.559643 
L 588.400267 331.341853 
L 592.300089 331.89876 
L 596.199911 336.805808 
L 600.099733 335.380078 
L 615.69902 338.364599 
L 619.598841 338.005536 
L 623.498663 335.272536 
L 627.398485 332.779956 
L 642.997772 333.983893 
L 646.897594 338.159148 
L 650.797415 338.758094 
L 654.697237 338.202534 
L 666.396702 335.795255 
L 670.296524 337.388296 
L 674.196346 343.147683 
L 678.096168 340.869324 
L 681.995989 343.672249 
L 693.695455 343.62064 
L 697.595276 344.91 
L 701.495098 341.74157 
L 705.39492 342.41242 
L 709.294742 343.747725 
L 720.994207 341.862556 
L 728.79385 337.716472 
L 732.693672 335.194298 
L 736.593494 336.268947 
L 748.292959 337.674022 
L 752.192781 337.219141 
L 756.092602 337.657629 
L 759.992424 335.203341 
L 763.892246 335.801098 
L 775.591711 330.577436 
L 779.491533 332.319107 
L 783.391355 332.494413 
L 787.291176 334.587675 
L 791.190998 334.645315 
L 802.890463 334.196432 
L 806.790285 335.154494 
L 810.690107 332.187418 
L 814.589929 333.824396 
L 818.48975 336.684812 
L 834.089037 333.205755 
L 837.988859 334.988854 
L 841.888681 331.267789 
L 845.788503 331.607092 
L 857.487968 335.812238 
L 861.38779 335.977076 
L 865.287611 340.043545 
L 869.187433 336.833811 
L 873.087255 338.67503 
L 884.78672 338.36833 
L 888.686542 336.69133 
L 892.586364 332.497864 
L 896.486185 334.196657 
L 900.386007 331.773869 
L 912.085472 329.131932 
L 915.985294 333.238866 
L 919.885116 335.248203 
L 923.784938 335.343337 
L 927.684759 334.423504 
L 939.384225 330.190864 
L 943.284046 324.254009 
L 947.183868 323.835495 
L 951.08369 323.154684 
L 954.983512 322.944544 
L 966.682977 319.594809 
L 970.582799 315.711973 
L 974.48262 312.299482 
L 978.382442 310.044176 
L 982.282264 308.123171 
L 993.981729 310.121694 
L 997.881551 313.944751 
L 1001.781373 313.236869 
L 1005.681194 312.686028 
L 1009.581016 313.791243 
L 1021.280481 315.988359 
L 1025.180303 312.14803 
L 1029.080125 316.560867 
L 1032.979947 311.41079 
L 1036.879768 303.480167 
L 1048.579234 301.819158 
L 1052.479055 307.306668 
L 1056.378877 306.974031 
L 1060.278699 303.064465 
L 1064.17852 300.435365 
L 1075.877986 301.573867 
L 1079.777807 302.423632 
L 1083.677629 302.892887 
L 1087.577451 299.077554 
L 1091.477273 300.285835 
L 1091.477273 300.285835 
" style="fill:none;stroke:#1f77b4;stroke-linecap:square;stroke-width:1.5;"/>
   </g>
   <g id="line2d_12">
    <path clip-path="url(#pbbed3584ad)" d="M 97.022727 275.308594 
L 100.922549 268.570642 
L 104.822371 273.150542 
L 108.722193 271.56733 
L 120.421658 269.929266 
L 124.32148 270.298752 
L 128.221301 265.543026 
L 132.121123 275.667708 
L 136.020945 269.48299 
L 147.72041 272.782044 
L 151.620232 268.880326 
L 155.520053 271.482072 
L 159.419875 276.419164 
L 163.319697 265.288684 
L 175.019162 269.347622 
L 178.918984 267.816412 
L 182.818806 264.121824 
L 186.718627 260.609135 
L 190.618449 262.655075 
L 202.317914 251.85858 
L 206.217736 253.529884 
L 214.01738 250.672059 
L 217.917201 258.317629 
L 229.616667 259.884236 
L 233.516488 258.246515 
L 237.41631 262.0796 
L 241.316132 265.337671 
L 245.215954 265.483347 
L 256.915419 263.279172 
L 260.815241 260.116736 
L 264.715062 252.588126 
L 268.614884 254.20385 
L 272.514706 240.900651 
L 284.214171 245.414668 
L 288.113993 241.656489 
L 292.013815 243.748041 
L 295.913636 239.472416 
L 299.813458 240.580753 
L 311.512923 237.664195 
L 315.412745 231.479923 
L 319.312567 234.798825 
L 323.212389 233.142014 
L 327.11221 221.447456 
L 338.811676 217.477946 
L 342.711497 222.091135 
L 346.611319 223.089299 
L 350.511141 230.411098 
L 354.410963 243.129191 
L 366.110428 245.769087 
L 370.01025 240.119108 
L 373.910071 240.697631 
L 377.809893 230.289022 
L 381.709715 229.461191 
L 393.40918 233.69882 
L 397.309002 231.18794 
L 401.208824 226.966621 
L 405.108645 214.027967 
L 409.008467 212.709564 
L 420.707932 209.953693 
L 424.607754 223.326623 
L 428.507576 226.251297 
L 432.407398 224.108588 
L 436.307219 212.251763 
L 448.006684 196.032419 
L 451.906506 211.517538 
L 455.806328 205.105485 
L 459.70615 207.34099 
L 463.605971 195.630115 
L 475.305437 197.276258 
L 479.205258 196.951527 
L 483.10508 202.793485 
L 487.004902 194.948838 
L 490.904724 202.80604 
L 502.604189 200.26415 
L 506.504011 197.492137 
L 510.403832 207.640394 
L 514.303654 207.691002 
L 518.203476 211.623856 
L 529.902941 221.788457 
L 533.802763 226.145148 
L 541.602406 216.38448 
L 545.502228 220.423258 
L 557.201693 211.920895 
L 561.101515 214.243505 
L 565.001337 224.066238 
L 568.901159 220.359382 
L 572.80098 214.569013 
L 584.500446 221.37739 
L 588.400267 221.623462 
L 592.300089 227.890994 
L 596.199911 230.029424 
L 600.099733 231.218135 
L 611.799198 232.448247 
L 615.69902 227.052543 
L 619.598841 223.634107 
L 623.498663 232.318037 
L 627.398485 234.976375 
L 639.09795 244.357719 
L 642.997772 241.297019 
L 646.897594 236.358719 
L 650.797415 243.116122 
L 654.697237 244.158243 
L 666.396702 248.667138 
L 670.296524 246.150393 
L 674.196346 241.61923 
L 678.096168 241.026122 
L 681.995989 237.02884 
L 693.695455 232.669163 
L 697.595276 232.705516 
L 701.495098 233.784576 
L 705.39492 222.889786 
L 709.294742 219.989736 
L 720.994207 213.570417 
L 724.894029 215.55084 
L 728.79385 213.999818 
L 732.693672 205.75252 
L 736.593494 202.726335 
L 748.292959 211.03108 
L 752.192781 212.701259 
L 756.092602 211.606784 
L 759.992424 203.78715 
L 763.892246 197.223339 
L 775.591711 200.88066 
L 779.491533 187.757546 
L 783.391355 190.940037 
L 787.291176 194.943282 
L 791.190998 203.711227 
L 802.890463 195.492888 
L 806.790285 184.051135 
L 810.690107 193.551347 
L 814.589929 192.66569 
L 818.48975 205.86387 
L 830.189216 205.257964 
L 834.089037 208.65737 
L 837.988859 210.86597 
L 841.888681 207.435683 
L 845.788503 198.254974 
L 857.487968 202.950506 
L 861.38779 218.571225 
L 865.287611 219.863169 
L 869.187433 228.224108 
L 873.087255 233.566488 
L 884.78672 243.030572 
L 888.686542 244.188211 
L 892.586364 254.930458 
L 896.486185 248.820285 
L 900.386007 258.958883 
L 912.085472 255.589301 
L 915.985294 263.812238 
L 919.885116 255.377709 
L 923.784938 261.997001 
L 927.684759 262.620165 
L 939.384225 263.41668 
L 943.284046 258.018604 
L 947.183868 261.250618 
L 951.08369 269.627768 
L 954.983512 267.633548 
L 966.682977 269.517608 
L 970.582799 266.319209 
L 974.48262 270.950064 
L 978.382442 282.156382 
L 982.282264 276.910012 
L 993.981729 282.841685 
L 997.881551 277.812187 
L 1001.781373 284.900999 
L 1005.681194 290.645964 
L 1009.581016 286.387746 
L 1025.180303 290.755226 
L 1029.080125 284.440647 
L 1032.979947 288.142532 
L 1036.879768 280.523182 
L 1048.579234 283.469356 
L 1052.479055 282.88088 
L 1056.378877 284.898283 
L 1060.278699 285.446278 
L 1064.17852 284.36414 
L 1075.877986 284.19442 
L 1079.777807 290.948255 
L 1083.677629 289.853546 
L 1087.577451 287.254937 
L 1091.477273 287.837879 
L 1091.477273 287.837879 
" style="fill:none;stroke:#ff7f0e;stroke-linecap:square;stroke-width:1.5;"/>
   </g>
   <g id="line2d_13">
    <path clip-path="url(#pbbed3584ad)" d="M 97.022727 276.284365 
L 100.922549 279.034266 
L 104.822371 285.735071 
L 108.722193 283.6601 
L 120.421658 273.447469 
L 124.32148 267.380834 
L 128.221301 260.236192 
L 132.121123 261.195449 
L 136.020945 254.439845 
L 147.72041 259.476011 
L 151.620232 256.800667 
L 155.520053 252.319008 
L 159.419875 257.766699 
L 163.319697 256.300192 
L 175.019162 259.705604 
L 178.918984 268.833972 
L 186.718627 272.9013 
L 190.618449 271.844374 
L 202.317914 274.189243 
L 206.217736 268.99079 
L 210.117558 265.733794 
L 214.01738 267.299555 
L 217.917201 268.457942 
L 229.616667 270.160019 
L 233.516488 266.978252 
L 237.41631 274.072309 
L 241.316132 273.939305 
L 245.215954 264.416174 
L 256.915419 267.974665 
L 260.815241 264.646465 
L 264.715062 259.063074 
L 268.614884 259.651454 
L 272.514706 263.308454 
L 284.214171 263.172965 
L 288.113993 271.077478 
L 292.013815 262.123377 
L 295.913636 273.977283 
L 299.813458 266.747555 
L 311.512923 270.003149 
L 315.412745 272.621689 
L 319.312567 271.786824 
L 323.212389 263.044706 
L 327.11221 253.329978 
L 338.811676 250.962985 
L 342.711497 247.005614 
L 346.611319 239.485589 
L 350.511141 234.558192 
L 354.410963 237.143257 
L 366.110428 241.896577 
L 370.01025 256.39126 
L 373.910071 249.565893 
L 377.809893 241.550762 
L 381.709715 250.241855 
L 393.40918 255.546903 
L 401.208824 252.938469 
L 405.108645 254.516892 
L 409.008467 259.750118 
L 420.707932 262.499293 
L 424.607754 263.932595 
L 428.507576 264.456514 
L 432.407398 255.277791 
L 436.307219 251.790633 
L 448.006684 249.763025 
L 451.906506 252.561547 
L 455.806328 260.647029 
L 459.70615 260.361815 
L 463.605971 254.186498 
L 475.305437 253.797149 
L 479.205258 252.35311 
L 483.10508 250.17372 
L 487.004902 250.020208 
L 490.904724 247.318339 
L 502.604189 246.180424 
L 506.504011 236.135969 
L 510.403832 249.314533 
L 514.303654 245.421079 
L 518.203476 234.931053 
L 529.902941 238.703144 
L 533.802763 248.666784 
L 537.702585 240.541497 
L 541.602406 238.273222 
L 545.502228 239.32917 
L 557.201693 234.656557 
L 561.101515 225.651559 
L 565.001337 235.523531 
L 568.901159 232.638968 
L 572.80098 238.577 
L 584.500446 245.705508 
L 588.400267 250.429838 
L 592.300089 254.845906 
L 596.199911 246.535882 
L 600.099733 240.593145 
L 611.799198 248.023194 
L 615.69902 247.625558 
L 619.598841 238.453143 
L 623.498663 235.956715 
L 627.398485 227.820887 
L 639.09795 214.699126 
L 642.997772 199.066122 
L 646.897594 191.375944 
L 650.797415 207.839806 
L 654.697237 208.508462 
L 666.396702 210.256293 
L 670.296524 209.965462 
L 674.196346 221.381872 
L 678.096168 216.55606 
L 681.995989 215.406752 
L 693.695455 214.341101 
L 697.595276 212.367902 
L 701.495098 215.418732 
L 705.39492 213.361023 
L 709.294742 205.31214 
L 720.994207 207.834376 
L 724.894029 211.863002 
L 728.79385 213.524354 
L 732.693672 210.510488 
L 736.593494 216.055535 
L 748.292959 224.412208 
L 752.192781 222.875307 
L 756.092602 223.445062 
L 759.992424 227.18443 
L 763.892246 228.221004 
L 775.591711 236.062048 
L 779.491533 237.495292 
L 783.391355 243.766448 
L 787.291176 238.157904 
L 791.190998 240.662607 
L 802.890463 249.708856 
L 806.790285 241.834932 
L 810.690107 237.941883 
L 814.589929 233.155018 
L 818.48975 217.84128 
L 830.189216 203.461667 
L 834.089037 210.290684 
L 837.988859 213.985007 
L 841.888681 197.975778 
L 845.788503 199.452411 
L 857.487968 206.686319 
L 861.38779 218.604668 
L 865.287611 212.408339 
L 869.187433 212.033376 
L 873.087255 207.438138 
L 884.78672 200.194455 
L 888.686542 199.653276 
L 892.586364 204.513555 
L 896.486185 201.069531 
L 900.386007 214.869422 
L 912.085472 203.738094 
L 915.985294 201.195139 
L 919.885116 199.244582 
L 923.784938 201.348361 
L 927.684759 200.114774 
L 939.384225 190.197503 
L 943.284046 184.981206 
L 947.183868 182.566481 
L 954.983512 165.845913 
L 966.682977 164.814008 
L 970.582799 166.09086 
L 974.48262 164.809441 
L 978.382442 162.095703 
L 982.282264 166.920106 
L 993.981729 158.552649 
L 997.881551 161.818065 
L 1001.781373 174.893517 
L 1005.681194 167.270269 
L 1009.581016 174.497241 
L 1021.280481 159.012454 
L 1025.180303 145.637235 
L 1029.080125 153.513425 
L 1032.979947 164.496601 
L 1036.879768 158.512156 
L 1048.579234 177.140655 
L 1052.479055 168.269563 
L 1056.378877 149.354711 
L 1060.278699 173.596039 
L 1064.17852 169.25922 
L 1075.877986 154.220294 
L 1079.777807 144.944108 
L 1083.677629 161.529845 
L 1087.577451 169.08986 
L 1091.477273 174.418312 
L 1091.477273 174.418312 
" style="fill:none;stroke:#2ca02c;stroke-linecap:square;stroke-width:1.5;"/>
   </g>
   <g id="line2d_14">
    <path clip-path="url(#pbbed3584ad)" d="M 97.022727 273.765876 
L 100.922549 270.740006 
L 104.822371 278.312786 
L 108.722193 267.190181 
L 120.421658 273.302899 
L 124.32148 279.900906 
L 128.221301 279.843667 
L 132.121123 275.167119 
L 136.020945 274.734175 
L 147.72041 280.621231 
L 151.620232 284.267096 
L 155.520053 276.02303 
L 159.419875 274.399898 
L 163.319697 271.55925 
L 175.019162 268.711566 
L 178.918984 278.515869 
L 182.818806 272.520875 
L 186.718627 271.818366 
L 190.618449 267.243574 
L 202.317914 261.636325 
L 206.217736 257.604666 
L 210.117558 250.248736 
L 214.01738 260.026047 
L 217.917201 263.946993 
L 229.616667 268.758369 
L 233.516488 274.338794 
L 237.41631 280.664485 
L 241.316132 277.326149 
L 245.215954 272.527471 
L 256.915419 271.726915 
L 260.815241 267.586241 
L 264.715062 263.734234 
L 268.614884 257.044509 
L 272.514706 258.683866 
L 284.214171 262.645677 
L 288.113993 262.910083 
L 292.013815 256.569148 
L 295.913636 266.666604 
L 299.813458 273.313851 
L 311.512923 269.676727 
L 315.412745 267.047903 
L 319.312567 273.936073 
L 323.212389 281.250575 
L 327.11221 278.200014 
L 338.811676 277.64133 
L 342.711497 282.940036 
L 346.611319 275.853562 
L 350.511141 273.695839 
L 354.410963 272.010016 
L 366.110428 272.240434 
L 370.01025 274.854521 
L 373.910071 277.018781 
L 377.809893 275.23971 
L 381.709715 271.015749 
L 393.40918 277.183048 
L 397.309002 276.72297 
L 401.208824 277.949339 
L 405.108645 278.331259 
L 409.008467 268.044938 
L 420.707932 271.613723 
L 424.607754 275.959649 
L 428.507576 268.762274 
L 432.407398 263.434972 
L 436.307219 267.772238 
L 448.006684 258.874338 
L 451.906506 259.466579 
L 455.806328 253.431952 
L 459.70615 250.403527 
L 463.605971 240.543578 
L 475.305437 237.950342 
L 479.205258 241.29002 
L 483.10508 241.596033 
L 487.004902 245.579494 
L 490.904724 247.817459 
L 502.604189 246.487618 
L 506.504011 243.018622 
L 510.403832 243.099755 
L 514.303654 238.264422 
L 518.203476 237.381148 
L 529.902941 229.078475 
L 533.802763 224.473886 
L 537.702585 233.330908 
L 541.602406 223.667155 
L 545.502228 237.575364 
L 557.201693 231.731774 
L 561.101515 235.317249 
L 565.001337 245.1871 
L 568.901159 239.790796 
L 572.80098 233.182954 
L 584.500446 236.040936 
L 588.400267 231.14787 
L 592.300089 237.605518 
L 596.199911 233.630095 
L 600.099733 235.527592 
L 611.799198 236.147693 
L 615.69902 231.328194 
L 619.598841 235.846665 
L 623.498663 235.465242 
L 627.398485 241.491296 
L 639.09795 242.015894 
L 642.997772 239.538236 
L 646.897594 241.36472 
L 650.797415 248.804968 
L 654.697237 251.554685 
L 666.396702 250.664128 
L 670.296524 262.713621 
L 674.196346 265.54375 
L 678.096168 261.287679 
L 681.995989 266.091819 
L 693.695455 263.973591 
L 697.595276 266.979074 
L 701.495098 260.587403 
L 705.39492 250.959192 
L 709.294742 246.909694 
L 720.994207 246.959431 
L 724.894029 250.823064 
L 728.79385 261.040036 
L 732.693672 262.758211 
L 736.593494 254.594979 
L 748.292959 248.12389 
L 752.192781 250.201743 
L 756.092602 243.161052 
L 759.992424 255.80894 
L 763.892246 254.100093 
L 775.591711 258.863319 
L 779.491533 253.347796 
L 783.391355 252.001085 
L 787.291176 248.050052 
L 791.190998 245.172543 
L 802.890463 232.995724 
L 806.790285 239.3084 
L 810.690107 231.757663 
L 814.589929 239.517865 
L 818.48975 238.409562 
L 830.189216 234.627237 
L 834.089037 237.210224 
L 837.988859 227.086839 
L 841.888681 237.113491 
L 845.788503 232.353129 
L 857.487968 234.694927 
L 861.38779 237.4849 
L 865.287611 237.248827 
L 869.187433 232.171315 
L 873.087255 236.02805 
L 884.78672 243.657754 
L 888.686542 239.061743 
L 892.586364 235.656203 
L 896.486185 229.817267 
L 900.386007 228.860974 
L 912.085472 228.935799 
L 915.985294 222.50057 
L 919.885116 214.301507 
L 923.784938 204.547178 
L 927.684759 207.864065 
L 939.384225 193.414074 
L 943.284046 190.7109 
L 947.183868 202.194836 
L 951.08369 203.91402 
L 954.983512 193.549855 
L 966.682977 188.936961 
L 970.582799 171.692537 
L 974.48262 174.646018 
L 978.382442 181.722419 
L 982.282264 187.899904 
L 993.981729 177.69975 
L 997.881551 172.953678 
L 1001.781373 189.559783 
L 1005.681194 198.255076 
L 1009.581016 188.898825 
L 1021.280481 180.055663 
L 1025.180303 163.555196 
L 1029.080125 180.613431 
L 1032.979947 184.747663 
L 1036.879768 181.567733 
L 1048.579234 164.980111 
L 1052.479055 160.031892 
L 1056.378877 166.433135 
L 1060.278699 174.917551 
L 1064.17852 162.302204 
L 1075.877986 158.24391 
L 1079.777807 155.363341 
L 1083.677629 148.184829 
L 1087.577451 167.541375 
L 1091.477273 165.661356 
L 1091.477273 165.661356 
" style="fill:none;stroke:#d62728;stroke-linecap:square;stroke-width:1.5;"/>
   </g>
   <g id="line2d_15">
    <path clip-path="url(#pbbed3584ad)" d="M 97.022727 280.366213 
L 100.922549 282.379126 
L 104.822371 286.310844 
L 108.722193 291.598308 
L 120.421658 282.113044 
L 124.32148 280.712919 
L 128.221301 286.42705 
L 132.121123 275.946877 
L 136.020945 274.590387 
L 147.72041 278.533544 
L 151.620232 287.691745 
L 155.520053 285.221227 
L 159.419875 293.134875 
L 163.319697 290.810088 
L 175.019162 285.314095 
L 178.918984 286.372097 
L 182.818806 282.305196 
L 186.718627 288.060624 
L 190.618449 283.683804 
L 202.317914 293.943167 
L 206.217736 293.784372 
L 210.117558 295.627226 
L 214.01738 296.492277 
L 217.917201 295.543432 
L 229.616667 301.414149 
L 233.516488 295.861763 
L 237.41631 294.953723 
L 241.316132 287.816715 
L 245.215954 283.472622 
L 256.915419 284.69357 
L 260.815241 277.463412 
L 264.715062 279.586306 
L 268.614884 283.615582 
L 272.514706 279.366085 
L 284.214171 272.474963 
L 288.113993 267.985434 
L 292.013815 260.47107 
L 295.913636 259.64207 
L 299.813458 268.875934 
L 311.512923 270.087518 
L 315.412745 273.93459 
L 319.312567 271.888673 
L 323.212389 277.891049 
L 327.11221 283.604983 
L 342.711497 289.506423 
L 346.611319 283.275199 
L 350.511141 290.228773 
L 354.410963 288.415122 
L 366.110428 286.270818 
L 370.01025 288.016143 
L 373.910071 291.049717 
L 377.809893 296.371805 
L 381.709715 294.332231 
L 393.40918 294.426906 
L 397.309002 292.864675 
L 401.208824 285.704143 
L 405.108645 284.578803 
L 409.008467 284.878092 
L 420.707932 291.284613 
L 424.607754 292.431164 
L 428.507576 291.970333 
L 432.407398 288.486826 
L 436.307219 285.456492 
L 448.006684 279.181129 
L 451.906506 274.600361 
L 455.806328 276.796845 
L 459.70615 282.576088 
L 463.605971 275.034277 
L 475.305437 273.309183 
L 479.205258 271.321865 
L 483.10508 269.717834 
L 487.004902 264.006348 
L 490.904724 254.370165 
L 502.604189 256.301271 
L 506.504011 256.393418 
L 510.403832 250.03195 
L 514.303654 251.018069 
L 518.203476 249.482585 
L 529.902941 245.757296 
L 533.802763 244.92956 
L 537.702585 248.24264 
L 541.602406 247.864805 
L 545.502228 242.965458 
L 557.201693 238.604903 
L 561.101515 241.410958 
L 565.001337 239.728995 
L 568.901159 237.008363 
L 572.80098 224.744891 
L 584.500446 222.118435 
L 588.400267 213.451723 
L 592.300089 229.923556 
L 596.199911 233.822375 
L 600.099733 221.606294 
L 611.799198 219.191003 
L 615.69902 227.901743 
L 619.598841 235.105154 
L 623.498663 241.239195 
L 627.398485 238.573122 
L 639.09795 226.934177 
L 642.997772 231.68885 
L 646.897594 226.180259 
L 650.797415 224.128227 
L 654.697237 219.920276 
L 666.396702 234.945273 
L 670.296524 228.929046 
L 674.196346 230.329586 
L 678.096168 241.818168 
L 681.995989 228.33472 
L 693.695455 215.013864 
L 697.595276 212.252385 
L 701.495098 208.224736 
L 705.39492 212.237454 
L 709.294742 209.738996 
L 720.994207 206.165186 
L 724.894029 216.659864 
L 728.79385 219.202288 
L 732.693672 227.052533 
L 736.593494 229.991635 
L 748.292959 223.677647 
L 752.192781 220.458361 
L 756.092602 226.459266 
L 759.992424 213.936642 
L 763.892246 213.834844 
L 775.591711 218.083521 
L 779.491533 226.115944 
L 783.391355 217.520083 
L 787.291176 219.340904 
L 791.190998 208.215634 
L 802.890463 218.17713 
L 806.790285 215.078784 
L 810.690107 206.093288 
L 814.589929 210.899215 
L 818.48975 213.537979 
L 830.189216 224.382471 
L 834.089037 220.050417 
L 837.988859 224.670194 
L 841.888681 222.726886 
L 845.788503 217.296171 
L 857.487968 222.300492 
L 861.38779 208.361991 
L 865.287611 208.747937 
L 869.187433 195.1727 
L 873.087255 192.373793 
L 884.78672 191.300454 
L 888.686542 201.062251 
L 892.586364 209.636701 
L 896.486185 215.244758 
L 900.386007 223.446064 
L 912.085472 232.560751 
L 915.985294 226.235836 
L 919.885116 235.041536 
L 923.784938 222.32874 
L 927.684759 216.215852 
L 939.384225 206.690995 
L 947.183868 211.695438 
L 951.08369 216.963606 
L 954.983512 210.710929 
L 966.682977 209.545325 
L 970.582799 211.750492 
L 974.48262 228.296019 
L 978.382442 231.77728 
L 982.282264 229.165108 
L 993.981729 224.400826 
L 997.881551 226.719919 
L 1001.781373 221.609321 
L 1005.681194 215.259181 
L 1009.581016 218.995929 
L 1021.280481 219.322502 
L 1025.180303 215.732315 
L 1029.080125 225.681958 
L 1032.979947 227.422751 
L 1036.879768 231.892655 
L 1048.579234 243.424195 
L 1052.479055 237.046684 
L 1056.378877 233.195609 
L 1060.278699 230.607268 
L 1064.17852 227.599336 
L 1075.877986 221.05326 
L 1079.777807 222.183569 
L 1083.677629 222.904971 
L 1087.577451 210.260857 
L 1091.477273 216.177338 
L 1091.477273 216.177338 
" style="fill:none;stroke:#9467bd;stroke-linecap:square;stroke-width:1.5;"/>
   </g>
   <g id="line2d_16">
    <path clip-path="url(#pbbed3584ad)" d="M 97.022727 276.128388 
L 100.922549 275.522376 
L 104.822371 280.917041 
L 108.722193 280.257182 
L 120.421658 277.5907 
L 124.32148 275.836842 
L 128.221301 275.714754 
L 132.121123 274.123662 
L 136.020945 269.402861 
L 147.72041 273.362216 
L 151.620232 275.203403 
L 155.520053 272.478148 
L 159.419875 276.899986 
L 163.319697 272.982364 
L 175.019162 273.370298 
L 178.918984 277.261124 
L 182.818806 273.61013 
L 186.718627 275.150438 
L 190.618449 274.485234 
L 202.317914 274.230232 
L 206.217736 271.006317 
L 210.117558 269.355706 
L 214.01738 273.602246 
L 217.917201 275.061932 
L 229.616667 277.912468 
L 233.516488 278.266784 
L 237.41631 280.539063 
L 241.316132 279.87744 
L 245.215954 277.48263 
L 256.915419 278.034402 
L 260.815241 275.564488 
L 264.715062 273.798438 
L 268.614884 273.950212 
L 272.514706 272.849448 
L 284.214171 271.999749 
L 288.113993 273.045987 
L 292.013815 268.040141 
L 299.813458 274.55059 
L 311.512923 274.131241 
L 315.412745 275.528147 
L 319.312567 278.409438 
L 323.212389 280.84297 
L 327.11221 277.502903 
L 338.811676 276.243762 
L 342.711497 276.471088 
L 346.611319 272.678002 
L 350.511141 272.548848 
L 354.410963 273.306378 
L 366.110428 273.068122 
L 370.01025 275.971338 
L 373.910071 276.176729 
L 377.809893 273.858532 
L 381.709715 274.974279 
L 393.40918 276.881266 
L 397.309002 274.253424 
L 401.208824 271.223866 
L 405.108645 268.481302 
L 409.008467 265.503591 
L 420.707932 269.054812 
L 424.607754 274.064327 
L 428.507576 273.754791 
L 432.407398 268.403908 
L 436.307219 267.705505 
L 448.006684 260.611179 
L 451.906506 264.097578 
L 455.806328 265.151112 
L 459.70615 265.999771 
L 463.605971 260.109886 
L 475.305437 259.834592 
L 479.205258 259.413515 
L 483.10508 259.569731 
L 487.004902 257.907876 
L 490.904724 257.266022 
L 502.604189 255.794149 
L 506.504011 254.391402 
L 510.403832 257.633705 
L 514.303654 254.478823 
L 518.203476 252.555685 
L 529.902941 252.100687 
L 533.802763 255.975903 
L 537.702585 256.938345 
L 541.602406 254.400123 
L 545.502228 257.07745 
L 557.201693 253.218094 
L 561.101515 252.301353 
L 565.001337 256.974365 
L 568.901159 251.942497 
L 572.80098 250.116461 
L 584.500446 253.862696 
L 588.400267 252.308014 
L 592.300089 257.98148 
L 596.199911 258.605323 
L 600.099733 255.435782 
L 611.799198 257.737227 
L 615.69902 257.749754 
L 619.598841 257.340657 
L 623.498663 258.226371 
L 627.398485 256.855799 
L 639.09795 254.702507 
L 642.997772 252.259809 
L 646.897594 251.567897 
L 650.797415 256.278752 
L 654.697237 256.035891 
L 666.396702 258.222245 
L 670.296524 259.634542 
L 674.196346 263.818626 
L 681.995989 261.798601 
L 693.695455 258.296719 
L 697.595276 258.643251 
L 701.495098 255.590328 
L 705.39492 252.1468 
L 709.294742 249.933916 
L 720.994207 247.680758 
L 724.894029 249.975627 
L 728.79385 251.417904 
L 732.693672 250.433652 
L 736.593494 249.922348 
L 748.292959 250.764243 
L 752.192781 250.772178 
L 756.092602 249.629258 
L 759.992424 247.984925 
L 763.892246 247.492588 
L 775.591711 248.615194 
L 779.491533 247.804018 
L 783.391355 247.97719 
L 787.291176 247.723214 
L 791.190998 247.247535 
L 802.890463 246.674349 
L 806.790285 244.502444 
L 810.690107 240.966361 
L 814.589929 242.827714 
L 818.48975 243.299424 
L 830.189216 240.496921 
L 834.089037 241.793265 
L 837.988859 242.527963 
L 841.888681 238.770371 
L 845.788503 235.614015 
L 857.487968 240.963831 
L 861.38779 243.546144 
L 865.287611 244.536096 
L 869.187433 241.113953 
L 873.087255 242.880568 
L 884.78672 244.626777 
L 888.686542 244.313974 
L 892.586364 245.749311 
L 896.486185 244.424523 
L 900.386007 248.673049 
L 912.085472 246.523021 
L 915.985294 247.376424 
L 919.885116 246.424803 
L 923.784938 244.035357 
L 927.684759 243.582483 
L 939.384225 236.204873 
L 943.284046 231.195515 
L 947.183868 233.875804 
L 951.08369 235.631488 
L 954.983512 230.658419 
L 966.682977 228.543456 
L 970.582799 223.490167 
L 978.382442 230.085161 
L 982.282264 229.01778 
L 993.981729 227.597135 
L 997.881551 227.813159 
L 1001.781373 232.813905 
L 1005.681194 233.306629 
L 1009.581016 232.520409 
L 1021.280481 230.702782 
L 1025.180303 224.582621 
L 1029.080125 229.738345 
L 1032.979947 231.20898 
L 1036.879768 225.505756 
L 1048.579234 228.20015 
L 1052.479055 226.519696 
L 1056.378877 223.830592 
L 1060.278699 226.731158 
L 1064.17852 222.592038 
L 1075.877986 218.686385 
L 1079.777807 219.602748 
L 1083.677629 221.161274 
L 1087.577451 220.154977 
L 1091.477273 222.219632 
L 1091.477273 222.219632 
" style="fill:none;stroke:#8c564b;stroke-linecap:square;stroke-width:1.5;"/>
   </g>
   <g id="line2d_17">
    <path clip-path="url(#pbbed3584ad)" d="M 97.022727 278.488037 
L 100.922549 281.127224 
L 104.822371 279.951786 
L 108.722193 286.203368 
L 120.421658 278.773582 
L 124.32148 279.070137 
L 128.221301 284.982628 
L 132.121123 275.83907 
L 136.020945 279.137246 
L 147.72041 279.274541 
L 151.620232 286.621906 
L 155.520053 286.601121 
L 159.419875 290.491102 
L 163.319697 291.589051 
L 175.019162 285.802123 
L 178.918984 283.350332 
L 182.818806 282.642242 
L 186.718627 286.951827 
L 190.618449 283.132915 
L 202.317914 293.678632 
L 206.217736 296.240088 
L 210.117558 299.364586 
L 214.01738 296.936104 
L 217.917201 294.803701 
L 229.616667 298.320658 
L 233.516488 292.297421 
L 237.41631 289.350132 
L 241.316132 282.440407 
L 245.215954 280.229114 
L 256.915419 280.945113 
L 260.815241 275.887869 
L 268.614884 283.677316 
L 272.514706 280.445111 
L 284.214171 274.414702 
L 288.113993 268.967786 
L 292.013815 266.678006 
L 295.913636 262.548519 
L 299.813458 268.161099 
L 311.512923 269.820259 
L 315.412745 272.230114 
L 319.312567 267.197908 
L 323.212389 270.761981 
L 327.11221 280.438251 
L 338.811676 286.1877 
L 342.711497 287.50504 
L 346.611319 284.610729 
L 350.511141 291.600864 
L 354.410963 289.1669 
L 366.110428 287.245345 
L 370.01025 286.399658 
L 373.910071 289.289532 
L 377.809893 296.76888 
L 381.709715 293.82603 
L 393.40918 292.304464 
L 397.309002 293.005927 
L 401.208824 288.428412 
L 405.108645 289.702936 
L 409.008467 292.481673 
L 420.707932 295.628087 
L 424.607754 292.74468 
L 428.507576 292.548394 
L 432.407398 293.630518 
L 436.307219 291.304767 
L 448.006684 291.170545 
L 451.906506 284.333335 
L 455.806328 285.462428 
L 459.70615 290.111543 
L 463.605971 287.879269 
L 475.305437 286.553369 
L 479.205258 285.115888 
L 483.10508 283.557987 
L 487.004902 279.834369 
L 490.904724 271.871539 
L 502.604189 274.888673 
L 506.504011 276.184272 
L 510.403832 267.953716 
L 514.303654 271.745324 
L 518.203476 272.118258 
L 529.902941 269.351778 
L 533.802763 265.232076 
L 541.602406 269.232235 
L 545.502228 262.624038 
L 557.201693 262.521839 
L 561.101515 265.767159 
L 565.001337 260.101924 
L 568.901159 262.650615 
L 572.80098 254.023472 
L 584.500446 248.190975 
L 588.400267 242.41858 
L 592.300089 250.259952 
L 596.199911 253.031269 
L 600.099733 245.532943 
L 611.799198 240.983362 
L 615.69902 248.623296 
L 619.598841 255.388939 
L 623.498663 259.865045 
L 627.398485 258.868701 
L 639.09795 250.826637 
L 642.997772 257.428784 
L 646.897594 253.436096 
L 650.797415 247.05695 
L 654.697237 243.659886 
L 666.396702 254.315204 
L 670.296524 247.558561 
L 674.196346 244.258412 
L 678.096168 255.942266 
L 681.995989 244.7433 
L 693.695455 236.642325 
L 697.595276 233.805861 
L 701.495098 233.837387 
L 705.39492 241.277381 
L 709.294742 241.544668 
L 720.994207 240.952143 
L 724.894029 247.154771 
L 728.79385 247.801959 
L 732.693672 255.410624 
L 736.593494 258.358639 
L 748.292959 252.311368 
L 752.192781 249.610554 
L 756.092602 255.782517 
L 759.992424 246.966879 
L 763.892246 247.378929 
L 775.591711 249.733715 
L 779.491533 257.164631 
L 783.391355 249.951719 
L 787.291176 251.697471 
L 791.190998 243.041066 
L 802.890463 251.771559 
L 806.790285 251.348567 
L 810.690107 247.516004 
L 814.589929 249.504859 
L 818.48975 251.15 
L 830.189216 262.454072 
L 834.089037 257.950963 
L 837.988859 260.932198 
L 841.888681 262.708645 
L 845.788503 261.195247 
L 857.487968 260.478061 
L 861.38779 247.29114 
L 865.287611 246.632123 
L 869.187433 239.138323 
L 873.087255 235.154936 
L 884.78672 232.471302 
L 888.686542 240.633844 
L 892.586364 246.022986 
L 896.486185 251.874829 
L 900.386007 254.396135 
L 912.085472 263.970307 
L 915.985294 258.084675 
L 919.885116 266.14967 
L 923.784938 257.931755 
L 927.684759 253.464235 
L 939.384225 252.790303 
L 943.284046 259.154964 
L 947.183868 258.798731 
L 951.08369 261.25037 
L 954.983512 260.712742 
L 966.682977 261.593939 
L 970.582799 267.265135 
L 974.48262 276.434132 
L 978.382442 276.579539 
L 982.282264 275.441248 
L 993.981729 273.008762 
L 997.881551 274.52282 
L 1001.781373 267.196979 
L 1005.681194 262.089777 
L 1009.581016 265.522672 
L 1021.280481 267.22166 
L 1025.180303 269.380235 
L 1029.080125 272.584282 
L 1032.979947 272.75553 
L 1036.879768 280.332687 
L 1048.579234 286.675852 
L 1052.479055 283.17795 
L 1056.378877 282.229886 
L 1060.278699 278.475311 
L 1064.17852 279.217894 
L 1075.877986 277.295983 
L 1079.777807 277.45047 
L 1083.677629 276.890696 
L 1087.577451 268.817563 
L 1091.477273 271.394363 
L 1091.477273 271.394363 
" style="fill:none;stroke:#e377c2;stroke-linecap:square;stroke-width:1.5;"/>
   </g>
   <g id="line2d_18">
    <path clip-path="url(#pbbed3584ad)" d="M 97.022727 275.883411 
L 100.922549 273.395994 
L 104.822371 275.285702 
L 108.722193 271.46058 
L 120.421658 264.631523 
L 124.32148 271.881484 
L 128.221301 266.445047 
L 132.121123 266.687846 
L 136.020945 271.56195 
L 147.72041 273.750535 
L 151.620232 272.595867 
L 155.520053 270.3438 
L 159.419875 269.415568 
L 163.319697 267.037247 
L 175.019162 262.912275 
L 178.918984 264.867477 
L 182.818806 267.659853 
L 186.718627 265.631725 
L 190.618449 260.672691 
L 202.317914 259.826082 
L 206.217736 264.898818 
L 210.117558 262.042622 
L 214.01738 254.911644 
L 217.917201 258.569612 
L 229.616667 262.018685 
L 233.516488 253.195605 
L 237.41631 258.461858 
L 241.316132 252.082309 
L 245.215954 241.513504 
L 256.915419 240.884526 
L 260.815241 231.203256 
L 264.715062 223.061688 
L 268.614884 224.446392 
L 272.514706 216.852354 
L 284.214171 221.428458 
L 288.113993 215.217128 
L 292.013815 214.876895 
L 295.913636 219.222103 
L 299.813458 213.280335 
L 311.512923 213.291669 
L 315.412745 202.918535 
L 319.312567 195.264171 
L 323.212389 183.858042 
L 327.11221 184.042558 
L 338.811676 191.865613 
L 342.711497 202.032447 
L 346.611319 194.088882 
L 350.511141 205.990136 
L 354.410963 213.758589 
L 366.110428 220.484456 
L 370.01025 220.883101 
L 373.910071 218.690117 
L 377.809893 215.977984 
L 381.709715 208.297035 
L 393.40918 217.498662 
L 397.309002 224.888671 
L 401.208824 225.985711 
L 405.108645 228.305208 
L 409.008467 233.192395 
L 420.707932 230.198896 
L 424.607754 225.269871 
L 428.507576 220.535392 
L 432.407398 224.851932 
L 436.307219 213.747983 
L 448.006684 212.351045 
L 455.806328 197.4959 
L 459.70615 199.717051 
L 463.605971 187.642536 
L 475.305437 184.058375 
L 479.205258 186.383892 
L 483.10508 189.376611 
L 487.004902 187.776586 
L 490.904724 185.642417 
L 502.604189 191.115809 
L 506.504011 178.576197 
L 510.403832 176.442447 
L 514.303654 189.018468 
L 518.203476 185.045083 
L 529.902941 187.906196 
L 533.802763 177.057035 
L 537.702585 169.029816 
L 541.602406 162.608529 
L 545.502228 162.154629 
L 557.201693 154.51887 
L 561.101515 158.898062 
L 565.001337 165.021951 
L 568.901159 176.614989 
L 572.80098 162.248526 
L 584.500446 158.187258 
L 588.400267 156.385624 
L 592.300089 163.772713 
L 596.199911 147.578339 
L 600.099733 147.675329 
L 611.799198 142.718267 
L 615.69902 139.750937 
L 619.598841 140.538386 
L 623.498663 153.762908 
L 627.398485 160.986367 
L 639.09795 154.30243 
L 642.997772 148.846166 
L 646.897594 131.567936 
L 650.797415 137.479021 
L 654.697237 139.451182 
L 666.396702 153.723327 
L 670.296524 149.98996 
L 674.196346 134.140882 
L 678.096168 143.012336 
L 681.995989 128.720744 
L 693.695455 122.070473 
L 697.595276 116.288308 
L 701.495098 126.74077 
L 705.39492 117.001478 
L 709.294742 106.078 
L 720.994207 111.668972 
L 724.894029 126.246031 
L 728.79385 138.682559 
L 732.693672 147.683604 
L 736.593494 142.576368 
L 748.292959 138.269073 
L 752.192781 140.221408 
L 756.092602 136.384206 
L 759.992424 144.022936 
L 763.892246 140.797044 
L 775.591711 164.099506 
L 779.491533 156.841243 
L 783.391355 156.480814 
L 787.291176 148.424228 
L 791.190998 147.41123 
L 802.890463 148.219084 
L 806.790285 140.926341 
L 810.690107 147.036146 
L 814.589929 143.819287 
L 818.48975 133.367617 
L 830.189216 139.854362 
L 834.089037 145.337572 
L 837.988859 139.63485 
L 841.888681 148.513256 
L 845.788503 142.319611 
L 857.487968 134.679306 
L 861.38779 138.309263 
L 865.287611 123.112357 
L 869.187433 132.053614 
L 873.087255 127.117719 
L 884.78672 131.545818 
L 888.686542 138.41837 
L 892.586364 158.414265 
L 896.486185 150.175596 
L 900.386007 166.339834 
L 912.085472 172.17191 
L 915.985294 160.084508 
L 919.885116 151.269535 
L 923.784938 147.01763 
L 927.684759 149.92985 
L 939.384225 154.460876 
L 943.284046 168.072573 
L 947.183868 173.057347 
L 951.08369 177.510229 
L 954.983512 171.380565 
L 966.682977 178.56125 
L 970.582799 182.819765 
L 974.48262 195.73876 
L 978.382442 204.937166 
L 982.282264 207.90617 
L 993.981729 202.101999 
L 997.881551 193.871143 
L 1001.781373 201.573832 
L 1005.681194 203.428845 
L 1009.581016 199.99352 
L 1021.280481 192.682665 
L 1025.180303 194.735741 
L 1029.080125 190.383671 
L 1032.979947 205.24665 
L 1036.879768 216.223187 
L 1048.579234 222.243135 
L 1052.479055 210.514613 
L 1056.378877 208.260185 
L 1060.278699 219.530444 
L 1064.17852 220.140837 
L 1075.877986 214.113165 
L 1079.777807 213.438751 
L 1083.677629 214.148437 
L 1087.577451 220.447507 
L 1091.477273 220.347949 
L 1091.477273 220.347949 
" style="fill:none;stroke:#7f7f7f;stroke-linecap:square;stroke-width:1.5;"/>
   </g>
   <g id="line2d_19">
    <path clip-path="url(#pbbed3584ad)" d="M 97.022727 280.121236 
L 100.922549 280.322932 
L 104.822371 280.924801 
L 108.722193 283.4747 
L 120.421658 269.680047 
L 124.32148 276.976259 
L 128.221301 277.773898 
L 132.121123 268.273332 
L 136.020945 276.590032 
L 147.72041 278.832359 
L 151.620232 285.099151 
L 155.520053 283.049103 
L 159.419875 286.22578 
L 163.319697 285.2976 
L 175.019162 275.617746 
L 178.918984 274.717426 
L 182.818806 276.543436 
L 186.718627 279.188501 
L 190.618449 270.6503 
L 202.317914 281.548463 
L 206.217736 288.685381 
L 210.117558 289.691116 
L 214.01738 281.336946 
L 217.917201 281.864306 
L 229.616667 288.694969 
L 233.516488 274.992275 
L 237.41631 276.04417 
L 241.316132 262.714171 
L 245.215954 250.325027 
L 256.915419 250.627833 
L 260.815241 235.185836 
L 264.715062 232.444812 
L 268.614884 239.175983 
L 272.514706 227.741988 
L 284.214171 223.328893 
L 288.113993 209.50042 
L 292.013815 205.811159 
L 295.913636 204.338887 
L 299.813458 205.914814 
L 311.512923 208.376204 
L 315.412745 201.285957 
L 319.312567 185.71536 
L 323.212389 179.544672 
L 327.11221 196.301837 
L 338.811676 213.514153 
L 342.711497 224.784812 
L 346.611319 213.234542 
L 350.511141 235.381615 
L 354.410963 238.255748 
L 366.110428 241.277536 
L 370.01025 240.435587 
L 373.910071 242.555037 
L 377.809893 250.872953 
L 381.709715 240.391528 
L 393.40918 245.74712 
L 397.309002 252.993881 
L 401.208824 247.60517 
L 405.108645 251.38038 
L 409.008467 259.360862 
L 420.707932 260.966773 
L 424.607754 253.085204 
L 428.507576 248.839869 
L 432.407398 253.998307 
L 436.307219 241.552682 
L 448.006684 240.169284 
L 451.906506 223.723804 
L 455.806328 218.797737 
L 459.70615 228.167156 
L 463.605971 214.313707 
L 475.305437 208.977086 
L 479.205258 208.601965 
L 483.10508 208.675409 
L 487.004902 201.08001 
L 490.904724 185.846971 
L 502.604189 196.376802 
L 506.504011 186.271207 
L 510.403832 169.946905 
L 514.303654 189.521504 
L 518.203476 186.171892 
L 529.902941 184.3748 
L 533.802763 166.520243 
L 537.702585 161.547605 
L 541.602406 158.566623 
L 545.502228 145.853357 
L 557.201693 137.501824 
L 561.101515 148.40822 
L 565.001337 144.137516 
L 568.901159 161.445501 
L 572.80098 131.059036 
L 584.500446 115.676648 
L 588.400267 102.706037 
L 592.300089 126.574938 
L 596.199911 112.896314 
L 600.099733 98.300693 
L 611.799198 83.449537 
L 615.69902 95.060825 
L 619.598841 109.667136 
L 623.498663 133.496133 
L 627.398485 139.414533 
L 639.09795 117.217916 
L 642.997772 123.496814 
L 646.897594 96.691603 
L 650.797415 90.11719 
L 654.697237 85.536694 
L 666.396702 124.289906 
L 670.296524 107.271816 
L 674.196346 82.340887 
L 678.096168 116.872569 
L 681.995989 79.020909 
L 693.695455 54.332527 
L 697.595276 41.11 
L 701.495098 54.412107 
L 705.39492 57.61515 
L 709.294742 44.968688 
L 720.994207 50.39365 
L 724.894029 81.771149 
L 728.79385 97.589847 
L 732.693672 123.189625 
L 736.593494 123.250349 
L 748.292959 106.754001 
L 752.192781 103.558342 
L 756.092602 111.390552 
L 759.992424 102.041854 
L 763.892246 99.089756 
L 775.591711 130.819515 
L 779.491533 135.890197 
L 783.391355 122.110386 
L 787.291176 116.156091 
L 791.190998 98.381002 
L 802.890463 116.184389 
L 806.790285 107.146371 
L 810.690107 106.476238 
L 814.589929 106.583994 
L 818.48975 97.82601 
L 830.189216 128.222453 
L 834.089037 125.016124 
L 837.988859 124.650829 
L 841.888681 137.574753 
L 845.788503 128.205671 
L 857.487968 118.734722 
L 861.38779 95.885462 
L 865.287611 76.896227 
L 869.187433 71.484472 
L 873.087255 57.262155 
L 884.78672 57.228133 
L 888.686542 82.77334 
L 892.586364 117.809473 
L 896.486185 118.941539 
L 900.386007 141.938546 
L 912.085472 165.412141 
L 915.985294 142.776852 
L 919.885116 147.995778 
L 923.784938 128.150845 
L 927.684759 122.698359 
L 939.384225 126.444909 
L 943.284046 153.488706 
L 947.183868 158.162782 
L 951.08369 167.123158 
L 954.983512 159.800309 
L 966.682977 168.871693 
L 970.582799 182.82079 
L 974.48262 210.794374 
L 978.382442 219.534235 
L 982.282264 220.610201 
L 993.981729 211.678726 
L 997.881551 206.100717 
L 1001.781373 201.985171 
L 1005.681194 196.198728 
L 1009.581016 197.723543 
L 1021.280481 192.892383 
L 1025.180303 198.321176 
L 1029.080125 199.008589 
L 1032.979947 213.527603 
L 1036.879768 235.171718 
L 1048.579234 249.327844 
L 1052.479055 234.735504 
L 1056.378877 231.42584 
L 1060.278699 235.935329 
L 1064.17852 237.49495 
L 1075.877986 229.460341 
L 1079.777807 229.057263 
L 1083.677629 228.92418 
L 1087.577451 223.470105 
L 1091.477273 226.847894 
L 1091.477273 226.847894 
" style="fill:none;stroke:#bcbd22;stroke-linecap:square;stroke-width:1.5;"/>
   </g>
   <g id="patch_3">
    <path d="M 47.3 360.1 
L 47.3 25.92 
" style="fill:none;stroke:#000000;stroke-linecap:square;stroke-linejoin:miter;stroke-width:0.8;"/>
   </g>
   <g id="patch_4">
    <path d="M 1141.2 360.1 
L 1141.2 25.92 
" style="fill:none;stroke:#000000;stroke-linecap:square;stroke-linejoin:miter;stroke-width:0.8;"/>
   </g>
   <g id="patch_5">
    <path d="M 47.3 360.1 
L 1141.2 360.1 
" style="fill:none;stroke:#000000;stroke-linecap:square;stroke-linejoin:miter;stroke-width:0.8;"/>
   </g>
   <g id="patch_6">
    <path d="M 47.3 25.92 
L 1141.2 25.92 
" style="fill:none;stroke:#000000;stroke-linecap:square;stroke-linejoin:miter;stroke-width:0.8;"/>
   </g>
   <g id="text_7">
    <!-- Net Value: (2010-01-19 ~ 2010-10-08) -->
    <g transform="translate(478.1425 19.92)scale(0.12 -0.12)">
     <defs>
      <path d="M 9.8125 72.90625 
L 23.09375 72.90625 
L 55.421875 11.921875 
L 55.421875 72.90625 
L 64.984375 72.90625 
L 64.984375 0 
L 51.703125 0 
L 19.390625 60.984375 
L 19.390625 0 
L 9.8125 0 
z
" id="DejaVuSans-78"/>
      <path d="M 28.609375 0 
L 0.78125 72.90625 
L 11.078125 72.90625 
L 34.1875 11.53125 
L 57.328125 72.90625 
L 67.578125 72.90625 
L 39.796875 0 
z
" id="DejaVuSans-86"/>
      <path d="M 11.71875 12.40625 
L 22.015625 12.40625 
L 22.015625 0 
L 11.71875 0 
z
M 11.71875 51.703125 
L 22.015625 51.703125 
L 22.015625 39.3125 
L 11.71875 39.3125 
z
" id="DejaVuSans-58"/>
      <path d="M 31 75.875 
Q 24.46875 64.65625 21.28125 53.65625 
Q 18.109375 42.671875 18.109375 31.390625 
Q 18.109375 20.125 21.3125 9.0625 
Q 24.515625 -2 31 -13.1875 
L 23.1875 -13.1875 
Q 15.875 -1.703125 12.234375 9.375 
Q 8.59375 20.453125 8.59375 31.390625 
Q 8.59375 42.28125 12.203125 53.3125 
Q 15.828125 64.359375 23.1875 75.875 
z
" id="DejaVuSans-40"/>
      <path d="M 4.890625 31.390625 
L 31.203125 31.390625 
L 31.203125 23.390625 
L 4.890625 23.390625 
z
" id="DejaVuSans-45"/>
      <path d="M 10.984375 1.515625 
L 10.984375 10.5 
Q 14.703125 8.734375 18.5 7.8125 
Q 22.3125 6.890625 25.984375 6.890625 
Q 35.75 6.890625 40.890625 13.453125 
Q 46.046875 20.015625 46.78125 33.40625 
Q 43.953125 29.203125 39.59375 26.953125 
Q 35.25 24.703125 29.984375 24.703125 
Q 19.046875 24.703125 12.671875 31.3125 
Q 6.296875 37.9375 6.296875 49.421875 
Q 6.296875 60.640625 12.9375 67.421875 
Q 19.578125 74.21875 30.609375 74.21875 
Q 43.265625 74.21875 49.921875 64.515625 
Q 56.59375 54.828125 56.59375 36.375 
Q 56.59375 19.140625 48.40625 8.859375 
Q 40.234375 -1.421875 26.421875 -1.421875 
Q 22.703125 -1.421875 18.890625 -0.6875 
Q 15.09375 0.046875 10.984375 1.515625 
z
M 30.609375 32.421875 
Q 37.25 32.421875 41.125 36.953125 
Q 45.015625 41.5 45.015625 49.421875 
Q 45.015625 57.28125 41.125 61.84375 
Q 37.25 66.40625 30.609375 66.40625 
Q 23.96875 66.40625 20.09375 61.84375 
Q 16.21875 57.28125 16.21875 49.421875 
Q 16.21875 41.5 20.09375 36.953125 
Q 23.96875 32.421875 30.609375 32.421875 
z
" id="DejaVuSans-57"/>
      <path d="M 73.1875 39.890625 
L 73.1875 31.203125 
Q 68.0625 27.34375 63.6875 25.6875 
Q 59.328125 24.03125 54.59375 24.03125 
Q 49.21875 24.03125 42.09375 26.90625 
Q 41.546875 27.09375 41.3125 27.203125 
Q 40.96875 27.34375 40.234375 27.59375 
Q 32.671875 30.609375 28.078125 30.609375 
Q 23.78125 30.609375 19.578125 28.734375 
Q 15.375 26.859375 10.59375 22.796875 
L 10.59375 31.5 
Q 15.71875 35.359375 20.09375 37.03125 
Q 24.46875 38.71875 29.203125 38.71875 
Q 34.578125 38.71875 41.75 35.796875 
Q 42.234375 35.59375 42.484375 35.5 
Q 42.875 35.359375 43.5625 35.109375 
Q 51.125 32.078125 55.71875 32.078125 
Q 59.90625 32.078125 64.03125 33.9375 
Q 68.171875 35.796875 73.1875 39.890625 
z
" id="DejaVuSans-126"/>
      <path d="M 31.78125 34.625 
Q 24.75 34.625 20.71875 30.859375 
Q 16.703125 27.09375 16.703125 20.515625 
Q 16.703125 13.921875 20.71875 10.15625 
Q 24.75 6.390625 31.78125 6.390625 
Q 38.8125 6.390625 42.859375 10.171875 
Q 46.921875 13.96875 46.921875 20.515625 
Q 46.921875 27.09375 42.890625 30.859375 
Q 38.875 34.625 31.78125 34.625 
z
M 21.921875 38.8125 
Q 15.578125 40.375 12.03125 44.71875 
Q 8.5 49.078125 8.5 55.328125 
Q 8.5 64.0625 14.71875 69.140625 
Q 20.953125 74.21875 31.78125 74.21875 
Q 42.671875 74.21875 48.875 69.140625 
Q 55.078125 64.0625 55.078125 55.328125 
Q 55.078125 49.078125 51.53125 44.71875 
Q 48 40.375 41.703125 38.8125 
Q 48.828125 37.15625 52.796875 32.3125 
Q 56.78125 27.484375 56.78125 20.515625 
Q 56.78125 9.90625 50.3125 4.234375 
Q 43.84375 -1.421875 31.78125 -1.421875 
Q 19.734375 -1.421875 13.25 4.234375 
Q 6.78125 9.90625 6.78125 20.515625 
Q 6.78125 27.484375 10.78125 32.3125 
Q 14.796875 37.15625 21.921875 38.8125 
z
M 18.3125 54.390625 
Q 18.3125 48.734375 21.84375 45.5625 
Q 25.390625 42.390625 31.78125 42.390625 
Q 38.140625 42.390625 41.71875 45.5625 
Q 45.3125 48.734375 45.3125 54.390625 
Q 45.3125 60.0625 41.71875 63.234375 
Q 38.140625 66.40625 31.78125 66.40625 
Q 25.390625 66.40625 21.84375 63.234375 
Q 18.3125 60.0625 18.3125 54.390625 
z
" id="DejaVuSans-56"/>
      <path d="M 8.015625 75.875 
L 15.828125 75.875 
Q 23.140625 64.359375 26.78125 53.3125 
Q 30.421875 42.28125 30.421875 31.390625 
Q 30.421875 20.453125 26.78125 9.375 
Q 23.140625 -1.703125 15.828125 -13.1875 
L 8.015625 -13.1875 
Q 14.5 -2 17.703125 9.0625 
Q 20.90625 20.125 20.90625 31.390625 
Q 20.90625 42.671875 17.703125 53.65625 
Q 14.5 64.65625 8.015625 75.875 
z
" id="DejaVuSans-41"/>
     </defs>
     <use xlink:href="#DejaVuSans-78"/>
     <use x="74.804688" xlink:href="#DejaVuSans-101"/>
     <use x="136.328125" xlink:href="#DejaVuSans-116"/>
     <use x="175.537109" xlink:href="#DejaVuSans-32"/>
     <use x="207.324219" xlink:href="#DejaVuSans-86"/>
     <use x="267.982422" xlink:href="#DejaVuSans-97"/>
     <use x="329.261719" xlink:href="#DejaVuSans-108"/>
     <use x="357.044922" xlink:href="#DejaVuSans-117"/>
     <use x="420.423828" xlink:href="#DejaVuSans-101"/>
     <use x="481.947266" xlink:href="#DejaVuSans-58"/>
     <use x="515.638672" xlink:href="#DejaVuSans-32"/>
     <use x="547.425781" xlink:href="#DejaVuSans-40"/>
     <use x="586.439453" xlink:href="#DejaVuSans-50"/>
     <use x="650.0625" xlink:href="#DejaVuSans-48"/>
     <use x="713.685547" xlink:href="#DejaVuSans-49"/>
     <use x="777.308594" xlink:href="#DejaVuSans-48"/>
     <use x="840.931641" xlink:href="#DejaVuSans-45"/>
     <use x="877.015625" xlink:href="#DejaVuSans-48"/>
     <use x="940.638672" xlink:href="#DejaVuSans-49"/>
     <use x="1004.261719" xlink:href="#DejaVuSans-45"/>
     <use x="1040.345703" xlink:href="#DejaVuSans-49"/>
     <use x="1103.96875" xlink:href="#DejaVuSans-57"/>
     <use x="1167.591797" xlink:href="#DejaVuSans-32"/>
     <use x="1199.378906" xlink:href="#DejaVuSans-126"/>
     <use x="1283.167969" xlink:href="#DejaVuSans-32"/>
     <use x="1314.955078" xlink:href="#DejaVuSans-50"/>
     <use x="1378.578125" xlink:href="#DejaVuSans-48"/>
     <use x="1442.201172" xlink:href="#DejaVuSans-49"/>
     <use x="1505.824219" xlink:href="#DejaVuSans-48"/>
     <use x="1569.447266" xlink:href="#DejaVuSans-45"/>
     <use x="1605.53125" xlink:href="#DejaVuSans-49"/>
     <use x="1669.154297" xlink:href="#DejaVuSans-48"/>
     <use x="1732.777344" xlink:href="#DejaVuSans-45"/>
     <use x="1768.861328" xlink:href="#DejaVuSans-48"/>
     <use x="1832.484375" xlink:href="#DejaVuSans-56"/>
     <use x="1896.107422" xlink:href="#DejaVuSans-41"/>
    </g>
   </g>
   <g id="legend_1">
    <g id="patch_7">
     <path d="M 54.3 168.248125 
L 150.789062 168.248125 
Q 152.789062 168.248125 152.789062 166.248125 
L 152.789062 32.92 
Q 152.789062 30.92 150.789062 30.92 
L 54.3 30.92 
Q 52.3 30.92 52.3 32.92 
L 52.3 166.248125 
Q 52.3 168.248125 54.3 168.248125 
z
" style="fill:#ffffff;opacity:0.8;stroke:#cccccc;stroke-linejoin:miter;"/>
    </g>
    <g id="line2d_20">
     <path d="M 56.3 39.018438 
L 76.3 39.018438 
" style="fill:none;stroke:#1f77b4;stroke-linecap:square;stroke-width:1.5;"/>
    </g>
    <g id="line2d_21"/>
    <g id="text_8">
     <!-- group_1 -->
     <g transform="translate(84.3 42.518438)scale(0.1 -0.1)">
      <defs>
       <path d="M 45.40625 27.984375 
Q 45.40625 37.75 41.375 43.109375 
Q 37.359375 48.484375 30.078125 48.484375 
Q 22.859375 48.484375 18.828125 43.109375 
Q 14.796875 37.75 14.796875 27.984375 
Q 14.796875 18.265625 18.828125 12.890625 
Q 22.859375 7.515625 30.078125 7.515625 
Q 37.359375 7.515625 41.375 12.890625 
Q 45.40625 18.265625 45.40625 27.984375 
z
M 54.390625 6.78125 
Q 54.390625 -7.171875 48.1875 -13.984375 
Q 42 -20.796875 29.203125 -20.796875 
Q 24.46875 -20.796875 20.265625 -20.09375 
Q 16.0625 -19.390625 12.109375 -17.921875 
L 12.109375 -9.1875 
Q 16.0625 -11.328125 19.921875 -12.34375 
Q 23.78125 -13.375 27.78125 -13.375 
Q 36.625 -13.375 41.015625 -8.765625 
Q 45.40625 -4.15625 45.40625 5.171875 
L 45.40625 9.625 
Q 42.625 4.78125 38.28125 2.390625 
Q 33.9375 0 27.875 0 
Q 17.828125 0 11.671875 7.65625 
Q 5.515625 15.328125 5.515625 27.984375 
Q 5.515625 40.671875 11.671875 48.328125 
Q 17.828125 56 27.875 56 
Q 33.9375 56 38.28125 53.609375 
Q 42.625 51.21875 45.40625 46.390625 
L 45.40625 54.6875 
L 54.390625 54.6875 
z
" id="DejaVuSans-103"/>
       <path d="M 41.109375 46.296875 
Q 39.59375 47.171875 37.8125 47.578125 
Q 36.03125 48 33.890625 48 
Q 26.265625 48 22.1875 43.046875 
Q 18.109375 38.09375 18.109375 28.8125 
L 18.109375 0 
L 9.078125 0 
L 9.078125 54.6875 
L 18.109375 54.6875 
L 18.109375 46.1875 
Q 20.953125 51.171875 25.484375 53.578125 
Q 30.03125 56 36.53125 56 
Q 37.453125 56 38.578125 55.875 
Q 39.703125 55.765625 41.0625 55.515625 
z
" id="DejaVuSans-114"/>
       <path d="M 30.609375 48.390625 
Q 23.390625 48.390625 19.1875 42.75 
Q 14.984375 37.109375 14.984375 27.296875 
Q 14.984375 17.484375 19.15625 11.84375 
Q 23.34375 6.203125 30.609375 6.203125 
Q 37.796875 6.203125 41.984375 11.859375 
Q 46.1875 17.53125 46.1875 27.296875 
Q 46.1875 37.015625 41.984375 42.703125 
Q 37.796875 48.390625 30.609375 48.390625 
z
M 30.609375 56 
Q 42.328125 56 49.015625 48.375 
Q 55.71875 40.765625 55.71875 27.296875 
Q 55.71875 13.875 49.015625 6.21875 
Q 42.328125 -1.421875 30.609375 -1.421875 
Q 18.84375 -1.421875 12.171875 6.21875 
Q 5.515625 13.875 5.515625 27.296875 
Q 5.515625 40.765625 12.171875 48.375 
Q 18.84375 56 30.609375 56 
z
" id="DejaVuSans-111"/>
       <path d="M 18.109375 8.203125 
L 18.109375 -20.796875 
L 9.078125 -20.796875 
L 9.078125 54.6875 
L 18.109375 54.6875 
L 18.109375 46.390625 
Q 20.953125 51.265625 25.265625 53.625 
Q 29.59375 56 35.59375 56 
Q 45.5625 56 51.78125 48.09375 
Q 58.015625 40.1875 58.015625 27.296875 
Q 58.015625 14.40625 51.78125 6.484375 
Q 45.5625 -1.421875 35.59375 -1.421875 
Q 29.59375 -1.421875 25.265625 0.953125 
Q 20.953125 3.328125 18.109375 8.203125 
z
M 48.6875 27.296875 
Q 48.6875 37.203125 44.609375 42.84375 
Q 40.53125 48.484375 33.40625 48.484375 
Q 26.265625 48.484375 22.1875 42.84375 
Q 18.109375 37.203125 18.109375 27.296875 
Q 18.109375 17.390625 22.1875 11.75 
Q 26.265625 6.109375 33.40625 6.109375 
Q 40.53125 6.109375 44.609375 11.75 
Q 48.6875 17.390625 48.6875 27.296875 
z
" id="DejaVuSans-112"/>
       <path d="M 50.984375 -16.609375 
L 50.984375 -23.578125 
L -0.984375 -23.578125 
L -0.984375 -16.609375 
z
" id="DejaVuSans-95"/>
      </defs>
      <use xlink:href="#DejaVuSans-103"/>
      <use x="63.476562" xlink:href="#DejaVuSans-114"/>
      <use x="102.339844" xlink:href="#DejaVuSans-111"/>
      <use x="163.521484" xlink:href="#DejaVuSans-117"/>
      <use x="226.900391" xlink:href="#DejaVuSans-112"/>
      <use x="290.376953" xlink:href="#DejaVuSans-95"/>
      <use x="340.376953" xlink:href="#DejaVuSans-49"/>
     </g>
    </g>
    <g id="line2d_22">
     <path d="M 56.3 53.974688 
L 76.3 53.974688 
" style="fill:none;stroke:#ff7f0e;stroke-linecap:square;stroke-width:1.5;"/>
    </g>
    <g id="line2d_23"/>
    <g id="text_9">
     <!-- group_2 -->
     <g transform="translate(84.3 57.474688)scale(0.1 -0.1)">
      <use xlink:href="#DejaVuSans-103"/>
      <use x="63.476562" xlink:href="#DejaVuSans-114"/>
      <use x="102.339844" xlink:href="#DejaVuSans-111"/>
      <use x="163.521484" xlink:href="#DejaVuSans-117"/>
      <use x="226.900391" xlink:href="#DejaVuSans-112"/>
      <use x="290.376953" xlink:href="#DejaVuSans-95"/>
      <use x="340.376953" xlink:href="#DejaVuSans-50"/>
     </g>
    </g>
    <g id="line2d_24">
     <path d="M 56.3 68.930938 
L 76.3 68.930938 
" style="fill:none;stroke:#2ca02c;stroke-linecap:square;stroke-width:1.5;"/>
    </g>
    <g id="line2d_25"/>
    <g id="text_10">
     <!-- group_3 -->
     <g transform="translate(84.3 72.430938)scale(0.1 -0.1)">
      <defs>
       <path d="M 40.578125 39.3125 
Q 47.65625 37.796875 51.625 33 
Q 55.609375 28.21875 55.609375 21.1875 
Q 55.609375 10.40625 48.1875 4.484375 
Q 40.765625 -1.421875 27.09375 -1.421875 
Q 22.515625 -1.421875 17.65625 -0.515625 
Q 12.796875 0.390625 7.625 2.203125 
L 7.625 11.71875 
Q 11.71875 9.328125 16.59375 8.109375 
Q 21.484375 6.890625 26.8125 6.890625 
Q 36.078125 6.890625 40.9375 10.546875 
Q 45.796875 14.203125 45.796875 21.1875 
Q 45.796875 27.640625 41.28125 31.265625 
Q 36.765625 34.90625 28.71875 34.90625 
L 20.21875 34.90625 
L 20.21875 43.015625 
L 29.109375 43.015625 
Q 36.375 43.015625 40.234375 45.921875 
Q 44.09375 48.828125 44.09375 54.296875 
Q 44.09375 59.90625 40.109375 62.90625 
Q 36.140625 65.921875 28.71875 65.921875 
Q 24.65625 65.921875 20.015625 65.03125 
Q 15.375 64.15625 9.8125 62.3125 
L 9.8125 71.09375 
Q 15.4375 72.65625 20.34375 73.4375 
Q 25.25 74.21875 29.59375 74.21875 
Q 40.828125 74.21875 47.359375 69.109375 
Q 53.90625 64.015625 53.90625 55.328125 
Q 53.90625 49.265625 50.4375 45.09375 
Q 46.96875 40.921875 40.578125 39.3125 
z
" id="DejaVuSans-51"/>
      </defs>
      <use xlink:href="#DejaVuSans-103"/>
      <use x="63.476562" xlink:href="#DejaVuSans-114"/>
      <use x="102.339844" xlink:href="#DejaVuSans-111"/>
      <use x="163.521484" xlink:href="#DejaVuSans-117"/>
      <use x="226.900391" xlink:href="#DejaVuSans-112"/>
      <use x="290.376953" xlink:href="#DejaVuSans-95"/>
      <use x="340.376953" xlink:href="#DejaVuSans-51"/>
     </g>
    </g>
    <g id="line2d_26">
     <path d="M 56.3 83.887188 
L 76.3 83.887188 
" style="fill:none;stroke:#d62728;stroke-linecap:square;stroke-width:1.5;"/>
    </g>
    <g id="line2d_27"/>
    <g id="text_11">
     <!-- group_4 -->
     <g transform="translate(84.3 87.387188)scale(0.1 -0.1)">
      <defs>
       <path d="M 37.796875 64.3125 
L 12.890625 25.390625 
L 37.796875 25.390625 
z
M 35.203125 72.90625 
L 47.609375 72.90625 
L 47.609375 25.390625 
L 58.015625 25.390625 
L 58.015625 17.1875 
L 47.609375 17.1875 
L 47.609375 0 
L 37.796875 0 
L 37.796875 17.1875 
L 4.890625 17.1875 
L 4.890625 26.703125 
z
" id="DejaVuSans-52"/>
      </defs>
      <use xlink:href="#DejaVuSans-103"/>
      <use x="63.476562" xlink:href="#DejaVuSans-114"/>
      <use x="102.339844" xlink:href="#DejaVuSans-111"/>
      <use x="163.521484" xlink:href="#DejaVuSans-117"/>
      <use x="226.900391" xlink:href="#DejaVuSans-112"/>
      <use x="290.376953" xlink:href="#DejaVuSans-95"/>
      <use x="340.376953" xlink:href="#DejaVuSans-52"/>
     </g>
    </g>
    <g id="line2d_28">
     <path d="M 56.3 98.843438 
L 76.3 98.843438 
" style="fill:none;stroke:#9467bd;stroke-linecap:square;stroke-width:1.5;"/>
    </g>
    <g id="line2d_29"/>
    <g id="text_12">
     <!-- group_5 -->
     <g transform="translate(84.3 102.343438)scale(0.1 -0.1)">
      <use xlink:href="#DejaVuSans-103"/>
      <use x="63.476562" xlink:href="#DejaVuSans-114"/>
      <use x="102.339844" xlink:href="#DejaVuSans-111"/>
      <use x="163.521484" xlink:href="#DejaVuSans-117"/>
      <use x="226.900391" xlink:href="#DejaVuSans-112"/>
      <use x="290.376953" xlink:href="#DejaVuSans-95"/>
      <use x="340.376953" xlink:href="#DejaVuSans-53"/>
     </g>
    </g>
    <g id="line2d_30">
     <path d="M 56.3 113.799688 
L 76.3 113.799688 
" style="fill:none;stroke:#8c564b;stroke-linecap:square;stroke-width:1.5;"/>
    </g>
    <g id="line2d_31"/>
    <g id="text_13">
     <!-- benchmark -->
     <g transform="translate(84.3 117.299688)scale(0.1 -0.1)">
      <defs>
       <path d="M 48.6875 27.296875 
Q 48.6875 37.203125 44.609375 42.84375 
Q 40.53125 48.484375 33.40625 48.484375 
Q 26.265625 48.484375 22.1875 42.84375 
Q 18.109375 37.203125 18.109375 27.296875 
Q 18.109375 17.390625 22.1875 11.75 
Q 26.265625 6.109375 33.40625 6.109375 
Q 40.53125 6.109375 44.609375 11.75 
Q 48.6875 17.390625 48.6875 27.296875 
z
M 18.109375 46.390625 
Q 20.953125 51.265625 25.265625 53.625 
Q 29.59375 56 35.59375 56 
Q 45.5625 56 51.78125 48.09375 
Q 58.015625 40.1875 58.015625 27.296875 
Q 58.015625 14.40625 51.78125 6.484375 
Q 45.5625 -1.421875 35.59375 -1.421875 
Q 29.59375 -1.421875 25.265625 0.953125 
Q 20.953125 3.328125 18.109375 8.203125 
L 18.109375 0 
L 9.078125 0 
L 9.078125 75.984375 
L 18.109375 75.984375 
z
" id="DejaVuSans-98"/>
       <path d="M 48.78125 52.59375 
L 48.78125 44.1875 
Q 44.96875 46.296875 41.140625 47.34375 
Q 37.3125 48.390625 33.40625 48.390625 
Q 24.65625 48.390625 19.8125 42.84375 
Q 14.984375 37.3125 14.984375 27.296875 
Q 14.984375 17.28125 19.8125 11.734375 
Q 24.65625 6.203125 33.40625 6.203125 
Q 37.3125 6.203125 41.140625 7.25 
Q 44.96875 8.296875 48.78125 10.40625 
L 48.78125 2.09375 
Q 45.015625 0.34375 40.984375 -0.53125 
Q 36.96875 -1.421875 32.421875 -1.421875 
Q 20.0625 -1.421875 12.78125 6.34375 
Q 5.515625 14.109375 5.515625 27.296875 
Q 5.515625 40.671875 12.859375 48.328125 
Q 20.21875 56 33.015625 56 
Q 37.15625 56 41.109375 55.140625 
Q 45.0625 54.296875 48.78125 52.59375 
z
" id="DejaVuSans-99"/>
       <path d="M 54.890625 33.015625 
L 54.890625 0 
L 45.90625 0 
L 45.90625 32.71875 
Q 45.90625 40.484375 42.875 44.328125 
Q 39.84375 48.1875 33.796875 48.1875 
Q 26.515625 48.1875 22.3125 43.546875 
Q 18.109375 38.921875 18.109375 30.90625 
L 18.109375 0 
L 9.078125 0 
L 9.078125 75.984375 
L 18.109375 75.984375 
L 18.109375 46.1875 
Q 21.34375 51.125 25.703125 53.5625 
Q 30.078125 56 35.796875 56 
Q 45.21875 56 50.046875 50.171875 
Q 54.890625 44.34375 54.890625 33.015625 
z
" id="DejaVuSans-104"/>
       <path d="M 52 44.1875 
Q 55.375 50.25 60.0625 53.125 
Q 64.75 56 71.09375 56 
Q 79.640625 56 84.28125 50.015625 
Q 88.921875 44.046875 88.921875 33.015625 
L 88.921875 0 
L 79.890625 0 
L 79.890625 32.71875 
Q 79.890625 40.578125 77.09375 44.375 
Q 74.3125 48.1875 68.609375 48.1875 
Q 61.625 48.1875 57.5625 43.546875 
Q 53.515625 38.921875 53.515625 30.90625 
L 53.515625 0 
L 44.484375 0 
L 44.484375 32.71875 
Q 44.484375 40.625 41.703125 44.40625 
Q 38.921875 48.1875 33.109375 48.1875 
Q 26.21875 48.1875 22.15625 43.53125 
Q 18.109375 38.875 18.109375 30.90625 
L 18.109375 0 
L 9.078125 0 
L 9.078125 54.6875 
L 18.109375 54.6875 
L 18.109375 46.1875 
Q 21.1875 51.21875 25.484375 53.609375 
Q 29.78125 56 35.6875 56 
Q 41.65625 56 45.828125 52.96875 
Q 50 49.953125 52 44.1875 
z
" id="DejaVuSans-109"/>
       <path d="M 9.078125 75.984375 
L 18.109375 75.984375 
L 18.109375 31.109375 
L 44.921875 54.6875 
L 56.390625 54.6875 
L 27.390625 29.109375 
L 57.625 0 
L 45.90625 0 
L 18.109375 26.703125 
L 18.109375 0 
L 9.078125 0 
z
" id="DejaVuSans-107"/>
      </defs>
      <use xlink:href="#DejaVuSans-98"/>
      <use x="63.476562" xlink:href="#DejaVuSans-101"/>
      <use x="125" xlink:href="#DejaVuSans-110"/>
      <use x="188.378906" xlink:href="#DejaVuSans-99"/>
      <use x="243.359375" xlink:href="#DejaVuSans-104"/>
      <use x="306.738281" xlink:href="#DejaVuSans-109"/>
      <use x="404.150391" xlink:href="#DejaVuSans-97"/>
      <use x="465.429688" xlink:href="#DejaVuSans-114"/>
      <use x="506.542969" xlink:href="#DejaVuSans-107"/>
     </g>
    </g>
    <g id="line2d_32">
     <path d="M 56.3 128.477813 
L 76.3 128.477813 
" style="fill:none;stroke:#e377c2;stroke-linecap:square;stroke-width:1.5;"/>
    </g>
    <g id="line2d_33"/>
    <g id="text_14">
     <!-- long_excess -->
     <g transform="translate(84.3 131.977813)scale(0.1 -0.1)">
      <defs>
       <path d="M 54.890625 54.6875 
L 35.109375 28.078125 
L 55.90625 0 
L 45.3125 0 
L 29.390625 21.484375 
L 13.484375 0 
L 2.875 0 
L 24.125 28.609375 
L 4.6875 54.6875 
L 15.28125 54.6875 
L 29.78125 35.203125 
L 44.28125 54.6875 
z
" id="DejaVuSans-120"/>
       <path d="M 44.28125 53.078125 
L 44.28125 44.578125 
Q 40.484375 46.53125 36.375 47.5 
Q 32.28125 48.484375 27.875 48.484375 
Q 21.1875 48.484375 17.84375 46.4375 
Q 14.5 44.390625 14.5 40.28125 
Q 14.5 37.15625 16.890625 35.375 
Q 19.28125 33.59375 26.515625 31.984375 
L 29.59375 31.296875 
Q 39.15625 29.25 43.1875 25.515625 
Q 47.21875 21.78125 47.21875 15.09375 
Q 47.21875 7.46875 41.1875 3.015625 
Q 35.15625 -1.421875 24.609375 -1.421875 
Q 20.21875 -1.421875 15.453125 -0.5625 
Q 10.6875 0.296875 5.421875 2 
L 5.421875 11.28125 
Q 10.40625 8.6875 15.234375 7.390625 
Q 20.0625 6.109375 24.8125 6.109375 
Q 31.15625 6.109375 34.5625 8.28125 
Q 37.984375 10.453125 37.984375 14.40625 
Q 37.984375 18.0625 35.515625 20.015625 
Q 33.0625 21.96875 24.703125 23.78125 
L 21.578125 24.515625 
Q 13.234375 26.265625 9.515625 29.90625 
Q 5.8125 33.546875 5.8125 39.890625 
Q 5.8125 47.609375 11.28125 51.796875 
Q 16.75 56 26.8125 56 
Q 31.78125 56 36.171875 55.265625 
Q 40.578125 54.546875 44.28125 53.078125 
z
" id="DejaVuSans-115"/>
      </defs>
      <use xlink:href="#DejaVuSans-108"/>
      <use x="27.783203" xlink:href="#DejaVuSans-111"/>
      <use x="88.964844" xlink:href="#DejaVuSans-110"/>
      <use x="152.34375" xlink:href="#DejaVuSans-103"/>
      <use x="215.820312" xlink:href="#DejaVuSans-95"/>
      <use x="265.820312" xlink:href="#DejaVuSans-101"/>
      <use x="325.59375" xlink:href="#DejaVuSans-120"/>
      <use x="383.023438" xlink:href="#DejaVuSans-99"/>
      <use x="438.003906" xlink:href="#DejaVuSans-101"/>
      <use x="499.527344" xlink:href="#DejaVuSans-115"/>
      <use x="551.626953" xlink:href="#DejaVuSans-115"/>
     </g>
    </g>
    <g id="line2d_34">
     <path d="M 56.3 143.434063 
L 76.3 143.434063 
" style="fill:none;stroke:#7f7f7f;stroke-linecap:square;stroke-width:1.5;"/>
    </g>
    <g id="line2d_35"/>
    <g id="text_15">
     <!-- short_excess -->
     <g transform="translate(84.3 146.934063)scale(0.1 -0.1)">
      <use xlink:href="#DejaVuSans-115"/>
      <use x="52.099609" xlink:href="#DejaVuSans-104"/>
      <use x="115.478516" xlink:href="#DejaVuSans-111"/>
      <use x="176.660156" xlink:href="#DejaVuSans-114"/>
      <use x="217.773438" xlink:href="#DejaVuSans-116"/>
      <use x="256.982422" xlink:href="#DejaVuSans-95"/>
      <use x="306.982422" xlink:href="#DejaVuSans-101"/>
      <use x="366.755859" xlink:href="#DejaVuSans-120"/>
      <use x="424.185547" xlink:href="#DejaVuSans-99"/>
      <use x="479.166016" xlink:href="#DejaVuSans-101"/>
      <use x="540.689453" xlink:href="#DejaVuSans-115"/>
      <use x="592.789062" xlink:href="#DejaVuSans-115"/>
     </g>
    </g>
    <g id="line2d_36">
     <path d="M 56.3 158.390313 
L 76.3 158.390313 
" style="fill:none;stroke:#bcbd22;stroke-linecap:square;stroke-width:1.5;"/>
    </g>
    <g id="line2d_37"/>
    <g id="text_16">
     <!-- long_short -->
     <g transform="translate(84.3 161.890313)scale(0.1 -0.1)">
      <use xlink:href="#DejaVuSans-108"/>
      <use x="27.783203" xlink:href="#DejaVuSans-111"/>
      <use x="88.964844" xlink:href="#DejaVuSans-110"/>
      <use x="152.34375" xlink:href="#DejaVuSans-103"/>
      <use x="215.820312" xlink:href="#DejaVuSans-95"/>
      <use x="265.820312" xlink:href="#DejaVuSans-115"/>
      <use x="317.919922" xlink:href="#DejaVuSans-104"/>
      <use x="381.298828" xlink:href="#DejaVuSans-111"/>
      <use x="442.480469" xlink:href="#DejaVuSans-114"/>
      <use x="483.59375" xlink:href="#DejaVuSans-116"/>
     </g>
    </g>
   </g>
  </g>
 </g>
 <defs>
  <clipPath id="pbbed3584ad">
   <rect height="334.18" width="1093.9" x="47.3" y="25.92"/>
  </clipPath>
 </defs>
</svg>
