<?xml version="1.0" encoding="utf-8" standalone="no"?>
<!DOCTYPE svg PUBLIC "-//W3C//DTD SVG 1.1//EN"
  "http://www.w3.org/Graphics/SVG/1.1/DTD/svg11.dtd">
<!-- Created with matplotlib (https://matplotlib.org/) -->
<svg height="316.8pt" version="1.1" viewBox="0 0 1152 316.8" width="1152pt" xmlns="http://www.w3.org/2000/svg" xmlns:xlink="http://www.w3.org/1999/xlink">
 <metadata>
  <rdf:RDF xmlns:cc="http://creativecommons.org/ns#" xmlns:dc="http://purl.org/dc/elements/1.1/" xmlns:rdf="http://www.w3.org/1999/02/22-rdf-syntax-ns#">
   <cc:Work>
    <dc:type rdf:resource="http://purl.org/dc/dcmitype/StillImage"/>
    <dc:date>2023-07-20T10:42:57.839592</dc:date>
    <dc:format>image/svg+xml</dc:format>
    <dc:creator>
     <cc:Agent>
      <dc:title>Matplotlib v3.3.4, https://matplotlib.org/</dc:title>
     </cc:Agent>
    </dc:creator>
   </cc:Work>
  </rdf:RDF>
 </metadata>
 <defs>
  <style type="text/css">*{stroke-linecap:butt;stroke-linejoin:round;}</style>
 </defs>
 <g id="figure_1">
  <g id="patch_1">
   <path d="M 0 316.8 
L 1152 316.8 
L 1152 0 
L 0 0 
z
" style="fill:#ffffff;"/>
  </g>
  <g id="axes_1">
   <g id="patch_2">
    <path d="M 33.7 273.56 
L 1141.2 273.56 
L 1141.2 25.92 
L 33.7 25.92 
z
" style="fill:#ffffff;"/>
   </g>
   <g id="matplotlib.axis_1">
    <g id="xtick_1">
     <g id="line2d_1">
      <path clip-path="url(#pd9cf540724)" d="M 54.42861 273.56 
L 54.42861 25.92 
" style="fill:none;stroke:#b0b0b0;stroke-linecap:square;stroke-width:0.8;"/>
     </g>
     <g id="line2d_2">
      <defs>
       <path d="M 0 0 
L 0 3.5 
" id="m8b69453e48" style="stroke:#000000;stroke-width:0.8;"/>
      </defs>
      <g>
       <use style="stroke:#000000;stroke-width:0.8;" x="54.42861" xlink:href="#m8b69453e48" y="273.56"/>
      </g>
     </g>
     <g id="text_1">
      <!-- 2010 -->
      <g transform="translate(57.187985 306.01)rotate(-90)scale(0.1 -0.1)">
       <defs>
        <path d="M 19.1875 8.296875 
L 53.609375 8.296875 
L 53.609375 0 
L 7.328125 0 
L 7.328125 8.296875 
Q 12.9375 14.109375 22.625 23.890625 
Q 32.328125 33.6875 34.8125 36.53125 
Q 39.546875 41.84375 41.421875 45.53125 
Q 43.3125 49.21875 43.3125 52.78125 
Q 43.3125 58.59375 39.234375 62.25 
Q 35.15625 65.921875 28.609375 65.921875 
Q 23.96875 65.921875 18.8125 64.3125 
Q 13.671875 62.703125 7.8125 59.421875 
L 7.8125 69.390625 
Q 13.765625 71.78125 18.9375 73 
Q 24.125 74.21875 28.421875 74.21875 
Q 39.75 74.21875 46.484375 68.546875 
Q 53.21875 62.890625 53.21875 53.421875 
Q 53.21875 48.921875 51.53125 44.890625 
Q 49.859375 40.875 45.40625 35.40625 
Q 44.1875 33.984375 37.640625 27.21875 
Q 31.109375 20.453125 19.1875 8.296875 
z
" id="DejaVuSans-50"/>
        <path d="M 31.78125 66.40625 
Q 24.171875 66.40625 20.328125 58.90625 
Q 16.5 51.421875 16.5 36.375 
Q 16.5 21.390625 20.328125 13.890625 
Q 24.171875 6.390625 31.78125 6.390625 
Q 39.453125 6.390625 43.28125 13.890625 
Q 47.125 21.390625 47.125 36.375 
Q 47.125 51.421875 43.28125 58.90625 
Q 39.453125 66.40625 31.78125 66.40625 
z
M 31.78125 74.21875 
Q 44.046875 74.21875 50.515625 64.515625 
Q 56.984375 54.828125 56.984375 36.375 
Q 56.984375 17.96875 50.515625 8.265625 
Q 44.046875 -1.421875 31.78125 -1.421875 
Q 19.53125 -1.421875 13.0625 8.265625 
Q 6.59375 17.96875 6.59375 36.375 
Q 6.59375 54.828125 13.0625 64.515625 
Q 19.53125 74.21875 31.78125 74.21875 
z
" id="DejaVuSans-48"/>
        <path d="M 12.40625 8.296875 
L 28.515625 8.296875 
L 28.515625 63.921875 
L 10.984375 60.40625 
L 10.984375 69.390625 
L 28.421875 72.90625 
L 38.28125 72.90625 
L 38.28125 8.296875 
L 54.390625 8.296875 
L 54.390625 0 
L 12.40625 0 
z
" id="DejaVuSans-49"/>
       </defs>
       <use xlink:href="#DejaVuSans-50"/>
       <use x="63.623047" xlink:href="#DejaVuSans-48"/>
       <use x="127.246094" xlink:href="#DejaVuSans-49"/>
       <use x="190.869141" xlink:href="#DejaVuSans-48"/>
      </g>
     </g>
    </g>
    <g id="xtick_2">
     <g id="line2d_3">
      <path clip-path="url(#pd9cf540724)" d="M 392.1939 273.56 
L 392.1939 25.92 
" style="fill:none;stroke:#b0b0b0;stroke-linecap:square;stroke-width:0.8;"/>
     </g>
     <g id="line2d_4">
      <g>
       <use style="stroke:#000000;stroke-width:0.8;" x="392.1939" xlink:href="#m8b69453e48" y="273.56"/>
      </g>
     </g>
     <g id="text_2">
      <!-- 2011 -->
      <g transform="translate(394.953275 306.01)rotate(-90)scale(0.1 -0.1)">
       <use xlink:href="#DejaVuSans-50"/>
       <use x="63.623047" xlink:href="#DejaVuSans-48"/>
       <use x="127.246094" xlink:href="#DejaVuSans-49"/>
       <use x="190.869141" xlink:href="#DejaVuSans-49"/>
      </g>
     </g>
    </g>
    <g id="xtick_3">
     <g id="line2d_5">
      <path clip-path="url(#pd9cf540724)" d="M 729.959191 273.56 
L 729.959191 25.92 
" style="fill:none;stroke:#b0b0b0;stroke-linecap:square;stroke-width:0.8;"/>
     </g>
     <g id="line2d_6">
      <g>
       <use style="stroke:#000000;stroke-width:0.8;" x="729.959191" xlink:href="#m8b69453e48" y="273.56"/>
      </g>
     </g>
     <g id="text_3">
      <!-- 2012 -->
      <g transform="translate(732.718566 306.01)rotate(-90)scale(0.1 -0.1)">
       <use xlink:href="#DejaVuSans-50"/>
       <use x="63.623047" xlink:href="#DejaVuSans-48"/>
       <use x="127.246094" xlink:href="#DejaVuSans-49"/>
       <use x="190.869141" xlink:href="#DejaVuSans-50"/>
      </g>
     </g>
    </g>
    <g id="xtick_4">
     <g id="line2d_7">
      <path clip-path="url(#pd9cf540724)" d="M 1068.649866 273.56 
L 1068.649866 25.92 
" style="fill:none;stroke:#b0b0b0;stroke-linecap:square;stroke-width:0.8;"/>
     </g>
     <g id="line2d_8">
      <g>
       <use style="stroke:#000000;stroke-width:0.8;" x="1068.649866" xlink:href="#m8b69453e48" y="273.56"/>
      </g>
     </g>
     <g id="text_4">
      <!-- 2013 -->
      <g transform="translate(1071.409241 306.01)rotate(-90)scale(0.1 -0.1)">
       <defs>
        <path d="M 40.578125 39.3125 
Q 47.65625 37.796875 51.625 33 
Q 55.609375 28.21875 55.609375 21.1875 
Q 55.609375 10.40625 48.1875 4.484375 
Q 40.765625 -1.421875 27.09375 -1.421875 
Q 22.515625 -1.421875 17.65625 -0.515625 
Q 12.796875 0.390625 7.625 2.203125 
L 7.625 11.71875 
Q 11.71875 9.328125 16.59375 8.109375 
Q 21.484375 6.890625 26.8125 6.890625 
Q 36.078125 6.890625 40.9375 10.546875 
Q 45.796875 14.203125 45.796875 21.1875 
Q 45.796875 27.640625 41.28125 31.265625 
Q 36.765625 34.90625 28.71875 34.90625 
L 20.21875 34.90625 
L 20.21875 43.015625 
L 29.109375 43.015625 
Q 36.375 43.015625 40.234375 45.921875 
Q 44.09375 48.828125 44.09375 54.296875 
Q 44.09375 59.90625 40.109375 62.90625 
Q 36.140625 65.921875 28.71875 65.921875 
Q 24.65625 65.921875 20.015625 65.03125 
Q 15.375 64.15625 9.8125 62.3125 
L 9.8125 71.09375 
Q 15.4375 72.65625 20.34375 73.4375 
Q 25.25 74.21875 29.59375 74.21875 
Q 40.828125 74.21875 47.359375 69.109375 
Q 53.90625 64.015625 53.90625 55.328125 
Q 53.90625 49.265625 50.4375 45.09375 
Q 46.96875 40.921875 40.578125 39.3125 
z
" id="DejaVuSans-51"/>
       </defs>
       <use xlink:href="#DejaVuSans-50"/>
       <use x="63.623047" xlink:href="#DejaVuSans-48"/>
       <use x="127.246094" xlink:href="#DejaVuSans-49"/>
       <use x="190.869141" xlink:href="#DejaVuSans-51"/>
      </g>
     </g>
    </g>
   </g>
   <g id="matplotlib.axis_2">
    <g id="ytick_1">
     <g id="line2d_9">
      <path clip-path="url(#pd9cf540724)" d="M 33.7 251.703517 
L 1141.2 251.703517 
" style="fill:none;stroke:#b0b0b0;stroke-linecap:square;stroke-width:0.8;"/>
     </g>
     <g id="line2d_10">
      <defs>
       <path d="M 0 0 
L -3.5 0 
" id="m7ce40c6c1f" style="stroke:#000000;stroke-width:0.8;"/>
      </defs>
      <g>
       <use style="stroke:#000000;stroke-width:0.8;" x="33.7" xlink:href="#m7ce40c6c1f" y="251.703517"/>
      </g>
     </g>
     <g id="text_5">
      <!-- 0.5 -->
      <g transform="translate(10.796875 255.502736)scale(0.1 -0.1)">
       <defs>
        <path d="M 10.6875 12.40625 
L 21 12.40625 
L 21 0 
L 10.6875 0 
z
" id="DejaVuSans-46"/>
        <path d="M 10.796875 72.90625 
L 49.515625 72.90625 
L 49.515625 64.59375 
L 19.828125 64.59375 
L 19.828125 46.734375 
Q 21.96875 47.46875 24.109375 47.828125 
Q 26.265625 48.1875 28.421875 48.1875 
Q 40.625 48.1875 47.75 41.5 
Q 54.890625 34.8125 54.890625 23.390625 
Q 54.890625 11.625 47.5625 5.09375 
Q 40.234375 -1.421875 26.90625 -1.421875 
Q 22.3125 -1.421875 17.546875 -0.640625 
Q 12.796875 0.140625 7.71875 1.703125 
L 7.71875 11.625 
Q 12.109375 9.234375 16.796875 8.0625 
Q 21.484375 6.890625 26.703125 6.890625 
Q 35.15625 6.890625 40.078125 11.328125 
Q 45.015625 15.765625 45.015625 23.390625 
Q 45.015625 31 40.078125 35.4375 
Q 35.15625 39.890625 26.703125 39.890625 
Q 22.75 39.890625 18.8125 39.015625 
Q 14.890625 38.140625 10.796875 36.28125 
z
" id="DejaVuSans-53"/>
       </defs>
       <use xlink:href="#DejaVuSans-48"/>
       <use x="63.623047" xlink:href="#DejaVuSans-46"/>
       <use x="95.410156" xlink:href="#DejaVuSans-53"/>
      </g>
     </g>
    </g>
    <g id="ytick_2">
     <g id="line2d_11">
      <path clip-path="url(#pd9cf540724)" d="M 33.7 216.674819 
L 1141.2 216.674819 
" style="fill:none;stroke:#b0b0b0;stroke-linecap:square;stroke-width:0.8;"/>
     </g>
     <g id="line2d_12">
      <g>
       <use style="stroke:#000000;stroke-width:0.8;" x="33.7" xlink:href="#m7ce40c6c1f" y="216.674819"/>
      </g>
     </g>
     <g id="text_6">
      <!-- 1.0 -->
      <g transform="translate(10.796875 220.474038)scale(0.1 -0.1)">
       <use xlink:href="#DejaVuSans-49"/>
       <use x="63.623047" xlink:href="#DejaVuSans-46"/>
       <use x="95.410156" xlink:href="#DejaVuSans-48"/>
      </g>
     </g>
    </g>
    <g id="ytick_3">
     <g id="line2d_13">
      <path clip-path="url(#pd9cf540724)" d="M 33.7 181.646121 
L 1141.2 181.646121 
" style="fill:none;stroke:#b0b0b0;stroke-linecap:square;stroke-width:0.8;"/>
     </g>
     <g id="line2d_14">
      <g>
       <use style="stroke:#000000;stroke-width:0.8;" x="33.7" xlink:href="#m7ce40c6c1f" y="181.646121"/>
      </g>
     </g>
     <g id="text_7">
      <!-- 1.5 -->
      <g transform="translate(10.796875 185.44534)scale(0.1 -0.1)">
       <use xlink:href="#DejaVuSans-49"/>
       <use x="63.623047" xlink:href="#DejaVuSans-46"/>
       <use x="95.410156" xlink:href="#DejaVuSans-53"/>
      </g>
     </g>
    </g>
    <g id="ytick_4">
     <g id="line2d_15">
      <path clip-path="url(#pd9cf540724)" d="M 33.7 146.617423 
L 1141.2 146.617423 
" style="fill:none;stroke:#b0b0b0;stroke-linecap:square;stroke-width:0.8;"/>
     </g>
     <g id="line2d_16">
      <g>
       <use style="stroke:#000000;stroke-width:0.8;" x="33.7" xlink:href="#m7ce40c6c1f" y="146.617423"/>
      </g>
     </g>
     <g id="text_8">
      <!-- 2.0 -->
      <g transform="translate(10.796875 150.416642)scale(0.1 -0.1)">
       <use xlink:href="#DejaVuSans-50"/>
       <use x="63.623047" xlink:href="#DejaVuSans-46"/>
       <use x="95.410156" xlink:href="#DejaVuSans-48"/>
      </g>
     </g>
    </g>
    <g id="ytick_5">
     <g id="line2d_17">
      <path clip-path="url(#pd9cf540724)" d="M 33.7 111.588725 
L 1141.2 111.588725 
" style="fill:none;stroke:#b0b0b0;stroke-linecap:square;stroke-width:0.8;"/>
     </g>
     <g id="line2d_18">
      <g>
       <use style="stroke:#000000;stroke-width:0.8;" x="33.7" xlink:href="#m7ce40c6c1f" y="111.588725"/>
      </g>
     </g>
     <g id="text_9">
      <!-- 2.5 -->
      <g transform="translate(10.796875 115.387944)scale(0.1 -0.1)">
       <use xlink:href="#DejaVuSans-50"/>
       <use x="63.623047" xlink:href="#DejaVuSans-46"/>
       <use x="95.410156" xlink:href="#DejaVuSans-53"/>
      </g>
     </g>
    </g>
    <g id="ytick_6">
     <g id="line2d_19">
      <path clip-path="url(#pd9cf540724)" d="M 33.7 76.560027 
L 1141.2 76.560027 
" style="fill:none;stroke:#b0b0b0;stroke-linecap:square;stroke-width:0.8;"/>
     </g>
     <g id="line2d_20">
      <g>
       <use style="stroke:#000000;stroke-width:0.8;" x="33.7" xlink:href="#m7ce40c6c1f" y="76.560027"/>
      </g>
     </g>
     <g id="text_10">
      <!-- 3.0 -->
      <g transform="translate(10.796875 80.359245)scale(0.1 -0.1)">
       <use xlink:href="#DejaVuSans-51"/>
       <use x="63.623047" xlink:href="#DejaVuSans-46"/>
       <use x="95.410156" xlink:href="#DejaVuSans-48"/>
      </g>
     </g>
    </g>
    <g id="ytick_7">
     <g id="line2d_21">
      <path clip-path="url(#pd9cf540724)" d="M 33.7 41.531329 
L 1141.2 41.531329 
" style="fill:none;stroke:#b0b0b0;stroke-linecap:square;stroke-width:0.8;"/>
     </g>
     <g id="line2d_22">
      <g>
       <use style="stroke:#000000;stroke-width:0.8;" x="33.7" xlink:href="#m7ce40c6c1f" y="41.531329"/>
      </g>
     </g>
     <g id="text_11">
      <!-- 3.5 -->
      <g transform="translate(10.796875 45.330547)scale(0.1 -0.1)">
       <use xlink:href="#DejaVuSans-51"/>
       <use x="63.623047" xlink:href="#DejaVuSans-46"/>
       <use x="95.410156" xlink:href="#DejaVuSans-53"/>
      </g>
     </g>
    </g>
   </g>
   <g id="line2d_23">
    <path clip-path="url(#pd9cf540724)" d="M 84.040909 216.547402 
L 84.966293 214.165321 
L 86.817062 220.673989 
L 89.593215 216.296305 
L 90.5186 219.216188 
L 91.443984 217.312053 
L 92.369368 219.125214 
L 93.294753 216.738331 
L 96.070906 217.994062 
L 96.99629 219.389495 
L 97.921674 223.186046 
L 98.847059 223.714707 
L 99.772443 224.934385 
L 102.548596 225.773641 
L 103.473981 223.426009 
L 104.399365 222.405287 
L 105.324749 219.764358 
L 106.250134 222.664151 
L 109.026287 222.956513 
L 109.951671 228.707854 
L 110.877055 227.341461 
L 111.80244 228.252185 
L 112.727824 225.131955 
L 115.503977 226.348773 
L 116.429362 226.080021 
L 117.354746 221.905382 
L 118.28013 219.260617 
L 119.205515 222.008765 
L 121.981668 225.75825 
L 122.907052 226.400911 
L 123.832436 227.477538 
L 124.757821 227.148283 
L 125.683205 227.215764 
L 128.459358 226.177734 
L 129.384743 222.337597 
L 130.310127 220.099336 
L 131.235511 225.691574 
L 132.160896 225.92106 
L 134.937049 227.709569 
L 135.862433 227.801436 
L 136.787818 228.303502 
L 137.713202 210.824847 
L 138.638586 211.700978 
L 142.340124 206.552819 
L 143.265508 207.495729 
L 144.190892 209.41471 
L 145.116277 207.553507 
L 147.89243 209.591491 
L 148.817814 210.514869 
L 149.743199 210.513144 
L 150.668583 214.417613 
L 151.593967 211.649296 
L 154.37012 214.979462 
L 156.220889 204.217627 
L 157.146273 208.907415 
L 158.071658 208.177095 
L 160.847811 203.051772 
L 161.773195 203.59241 
L 162.69858 205.115003 
L 163.623964 203.859287 
L 164.549348 204.688282 
L 167.325501 203.34188 
L 168.250886 198.684765 
L 169.17627 195.406651 
L 171.027039 197.574866 
L 173.803192 199.127741 
L 174.728576 198.380561 
L 175.653961 196.192635 
L 176.579345 193.258855 
L 177.504729 191.737741 
L 180.280882 188.577585 
L 181.206267 190.235413 
L 182.131651 192.839791 
L 183.057035 192.616798 
L 183.98242 195.361647 
L 186.758573 191.081146 
L 187.683957 189.190067 
L 188.609342 187.811538 
L 189.534726 190.547328 
L 190.46011 187.411202 
L 193.236263 187.608098 
L 194.161648 173.824704 
L 195.087032 171.114031 
L 196.012416 164.694818 
L 196.937801 166.645728 
L 199.713954 163.595969 
L 200.639338 158.159231 
L 201.564723 160.110129 
L 202.490107 158.256059 
L 203.415491 161.423581 
L 206.191644 161.248157 
L 207.117029 158.66068 
L 208.967797 150.070081 
L 209.893182 156.728875 
L 212.669335 156.345227 
L 213.594719 152.405445 
L 214.520104 150.627114 
L 215.445488 162.875005 
L 216.370872 158.0649 
L 219.147025 151.955042 
L 220.07241 143.278908 
L 220.997794 137.261216 
L 221.923178 151.351254 
L 222.848563 155.0783 
L 225.624716 147.649535 
L 226.5501 137.63856 
L 227.475485 135.565725 
L 228.400869 138.97766 
L 229.326253 135.941138 
L 232.102406 130.694048 
L 233.027791 125.647178 
L 233.953175 134.832561 
L 234.878559 140.623632 
L 235.803944 129.795895 
L 238.580097 120.239485 
L 239.505481 124.24051 
L 240.430866 121.121126 
L 241.35625 114.915844 
L 242.281634 112.257195 
L 245.057787 112.587109 
L 245.983172 103.386586 
L 246.908556 98.026038 
L 247.833941 100.11754 
L 248.759325 104.676971 
L 251.535478 112.102007 
L 252.460862 107.399141 
L 253.386247 103.682657 
L 254.311631 98.490137 
L 255.237015 96.996339 
L 258.013168 103.372476 
L 258.938553 109.851736 
L 259.863937 124.063088 
L 260.789322 117.752145 
L 261.714706 120.190461 
L 264.490859 116.82472 
L 265.416243 106.90619 
L 266.341628 93.705382 
L 267.267012 95.409499 
L 268.192396 81.840548 
L 270.968549 73.781766 
L 271.893934 75.691463 
L 272.819318 63.746202 
L 273.744703 74.565474 
L 274.670087 81.922418 
L 277.44624 85.265468 
L 278.371624 97.164728 
L 279.297009 122.074547 
L 280.222393 124.336385 
L 281.147777 120.298416 
L 283.92393 129.610158 
L 284.849315 129.063844 
L 285.774699 140.331508 
L 286.700084 137.401085 
L 287.625468 128.874331 
L 290.401621 135.286931 
L 291.327005 129.937947 
L 292.25239 126.863755 
L 293.177774 121.185578 
L 294.103158 118.968668 
L 296.879311 112.966488 
L 297.804696 113.421798 
L 298.73008 113.057394 
L 299.655465 114.759663 
L 300.580849 124.77186 
L 303.357002 118.106567 
L 304.282386 124.36925 
L 305.207771 113.710437 
L 306.133155 113.352352 
L 307.058539 86.717352 
L 309.834693 98.044148 
L 310.760077 94.236472 
L 311.685461 101.73426 
L 312.610846 92.776406 
L 313.53623 91.66995 
L 316.312383 96.588301 
L 317.237767 97.346702 
L 318.163152 90.867588 
L 319.088536 82.107175 
L 320.01392 86.327204 
L 322.790074 87.479591 
L 323.715458 75.914432 
L 324.640842 74.740627 
L 325.566227 69.792913 
L 326.491611 68.821996 
L 329.267764 66.862452 
L 330.193148 70.935263 
L 331.118533 64.52615 
L 332.043917 76.667549 
L 332.969301 67.464083 
L 335.745455 86.980399 
L 336.670839 74.78131 
L 337.596223 69.437102 
L 338.521608 62.495939 
L 339.446992 74.114743 
L 342.223145 65.159529 
L 343.148529 60.475104 
L 344.073914 40.519967 
L 344.999298 47.5076 
L 345.924682 49.754508 
L 348.700836 51.804686 
L 349.62622 64.542161 
L 350.551604 56.077321 
L 351.476989 58.834339 
L 352.402373 53.444973 
L 355.178526 51.771424 
L 356.10391 51.348965 
L 357.029295 48.631105 
L 357.954679 38.061901 
L 358.880064 43.714626 
L 361.656217 43.420574 
L 362.581601 49.945743 
L 363.506985 114.170213 
L 364.43237 121.138655 
L 365.357754 118.262864 
L 368.133907 125.917819 
L 369.059291 131.722436 
L 369.984676 136.703 
L 370.91006 139.972022 
L 371.835445 147.270781 
L 374.611598 147.555618 
L 375.536982 138.455249 
L 376.462366 143.090847 
L 377.387751 143.557339 
L 378.313135 142.714922 
L 381.089288 137.443056 
L 382.014672 137.492238 
L 382.940057 143.072868 
L 383.865441 141.223774 
L 384.790826 142.570969 
L 388.492363 152.332742 
L 389.417747 146.846419 
L 390.343132 148.030942 
L 391.268516 148.96907 
L 394.044669 88.658481 
L 394.970053 79.975408 
L 395.895438 73.984856 
L 396.820822 79.048612 
L 397.746207 77.449972 
L 400.52236 61.90388 
L 401.447744 59.488365 
L 402.373128 51.143897 
L 403.298513 41.766075 
L 404.223897 50.65664 
L 407.00005 39.861699 
L 407.925434 51.471407 
L 408.850819 53.806482 
L 409.776203 45.489154 
L 410.701588 50.727776 
L 413.477741 37.176364 
L 414.403125 42.504456 
L 415.328509 53.060546 
L 416.253894 49.96583 
L 417.179278 48.167525 
L 419.955431 43.98496 
L 420.880816 89.034287 
L 421.8062 75.420275 
L 422.731584 88.203066 
L 423.656969 90.391675 
L 426.433122 82.075991 
L 427.358506 83.172625 
L 428.28389 85.034849 
L 429.209275 90.648682 
L 430.134659 83.665462 
L 432.910812 79.826399 
L 433.836197 87.679025 
L 434.761581 93.419544 
L 435.686965 85.231959 
L 436.61235 86.984651 
L 439.388503 91.316946 
L 440.313887 99.328453 
L 441.239271 99.172948 
L 442.164656 96.735206 
L 443.09004 91.121571 
L 445.866193 92.024947 
L 446.791578 86.152066 
L 447.716962 78.240346 
L 448.642346 76.108906 
L 449.567731 83.179826 
L 452.343884 87.742135 
L 454.194652 78.131263 
L 455.120037 76.808382 
L 456.045421 80.635879 
L 458.821574 74.519479 
L 459.746959 69.31205 
L 460.672343 76.956088 
L 461.597727 76.107592 
L 462.523112 64.521342 
L 465.299265 56.270405 
L 467.150033 70.472796 
L 468.075418 86.398371 
L 469.000802 87.87415 
L 471.776955 90.407742 
L 472.70234 88.190144 
L 473.627724 87.47788 
L 474.553108 85.290224 
L 475.478493 93.084237 
L 478.254646 87.006148 
L 479.18003 80.187254 
L 480.105414 71.908748 
L 481.030799 65.357595 
L 481.956183 60.367554 
L 484.732336 60.784546 
L 485.657721 65.017114 
L 486.583105 63.388758 
L 487.508489 74.575843 
L 488.433874 76.769931 
L 491.210027 88.130064 
L 492.135411 84.149468 
L 493.060795 82.382918 
L 493.98618 75.470685 
L 494.911564 73.621882 
L 497.687717 86.474116 
L 498.613102 97.097382 
L 499.538486 96.117747 
L 500.46387 93.253824 
L 501.389255 104.245743 
L 504.165408 116.949108 
L 505.090792 110.200768 
L 506.016176 113.77775 
L 506.941561 107.255469 
L 507.866945 112.969804 
L 510.643098 109.07698 
L 511.568483 111.951736 
L 512.493867 117.30472 
L 513.419251 120.444907 
L 514.344636 125.717873 
L 517.120789 119.435242 
L 518.046173 120.999874 
L 518.971557 118.668327 
L 519.896942 115.233903 
L 520.822326 122.748744 
L 523.598479 120.844342 
L 525.449248 132.979017 
L 526.374632 136.275035 
L 527.300017 132.845223 
L 530.07617 123.573831 
L 531.001554 126.002222 
L 531.926939 107.600492 
L 532.852323 102.70589 
L 533.777707 100.76104 
L 536.55386 95.361663 
L 538.404629 105.180373 
L 539.330013 102.556939 
L 540.255398 99.306151 
L 543.031551 87.000109 
L 543.956935 87.425157 
L 544.88232 92.818324 
L 545.807704 94.837768 
L 546.733088 106.529508 
L 549.509241 102.687318 
L 550.434626 108.09999 
L 551.36001 101.545015 
L 555.986932 92.206245 
L 556.912316 97.006722 
L 557.837701 94.934194 
L 558.763085 101.051866 
L 559.688469 137.384581 
L 562.464622 140.053269 
L 563.390007 140.178781 
L 564.315391 144.975389 
L 565.240775 152.068076 
L 566.16616 152.446698 
L 568.942313 154.503375 
L 569.867697 152.464474 
L 570.793082 153.665103 
L 571.718466 157.848111 
L 572.64385 157.600177 
L 575.420003 154.489385 
L 576.345388 149.605566 
L 577.270772 152.34678 
L 578.196156 158.383232 
L 579.121541 158.521314 
L 581.897694 148.745001 
L 582.823078 143.746416 
L 584.673847 155.684014 
L 585.599231 159.932671 
L 588.375384 157.025649 
L 589.300769 154.640973 
L 590.226153 159.694108 
L 591.151537 157.356518 
L 592.076922 156.158643 
L 594.853075 155.269819 
L 595.778459 156.696297 
L 596.703844 153.103601 
L 597.629228 155.949149 
L 598.554612 158.244152 
L 601.330765 156.946556 
L 602.25615 154.804229 
L 603.181534 153.749872 
L 604.106918 156.036329 
L 605.032303 161.985431 
L 608.73384 158.329864 
L 609.659225 156.094395 
L 610.584609 160.609595 
L 611.509993 161.480126 
L 614.286146 163.290398 
L 615.211531 168.051256 
L 616.136915 165.026632 
L 617.062299 160.101543 
L 617.987684 158.537456 
L 620.763837 155.769976 
L 621.689221 156.879792 
L 622.614606 148.874301 
L 623.53999 151.203994 
L 627.241527 167.346901 
L 628.166912 175.455383 
L 629.092296 173.21815 
L 630.01768 171.903599 
L 630.943065 169.658611 
L 633.719218 164.599428 
L 634.644602 165.480238 
L 635.569987 157.84417 
L 636.495371 153.218146 
L 637.420755 153.488717 
L 641.122293 163.786327 
L 642.047677 165.171919 
L 642.973061 167.726948 
L 643.898446 163.909227 
L 646.674599 158.020353 
L 647.599983 157.243094 
L 648.525368 152.26393 
L 649.450752 149.701473 
L 650.376136 143.27207 
L 653.152289 146.910796 
L 654.077674 139.887013 
L 655.003058 139.365697 
L 655.928443 140.52735 
L 656.853827 132.325404 
L 659.62998 136.969352 
L 660.555364 136.561786 
L 661.480749 138.662757 
L 662.406133 143.244126 
L 663.331517 146.638048 
L 666.10767 151.508687 
L 667.033055 152.888647 
L 667.958439 160.50765 
L 668.883824 161.718761 
L 669.809208 163.859192 
L 672.585361 164.846092 
L 674.43613 174.80702 
L 675.361514 173.367426 
L 676.286898 173.562602 
L 679.063051 165.400538 
L 679.988436 165.541117 
L 680.91382 169.643602 
L 681.839205 167.759826 
L 686.466126 164.217493 
L 687.391511 162.327699 
L 688.316895 157.792703 
L 689.242279 159.58864 
L 692.018432 157.377183 
L 692.943817 160.975366 
L 693.869201 160.321438 
L 694.794586 168.059688 
L 695.71997 166.755088 
L 698.496123 163.482732 
L 699.421507 173.916548 
L 700.346892 173.520847 
L 701.272276 180.408318 
L 702.19766 180.070272 
L 704.973814 184.585834 
L 705.899198 179.719449 
L 706.824582 178.647519 
L 707.749967 178.276538 
L 708.675351 180.050968 
L 711.451504 175.377098 
L 712.376888 177.923255 
L 713.302273 181.165855 
L 714.227657 176.433624 
L 715.153041 173.436079 
L 717.929195 170.655497 
L 718.854579 176.899736 
L 719.779963 172.677563 
L 720.705348 166.429783 
L 721.630732 170.631439 
L 724.406885 176.628788 
L 726.257654 179.550887 
L 727.183038 183.280083 
L 728.108422 183.764007 
L 730.884576 172.494718 
L 731.80996 172.035442 
L 732.735344 166.38047 
L 733.660729 162.21207 
L 734.586113 160.044425 
L 737.362266 155.302862 
L 738.28765 153.249681 
L 739.213035 143.3386 
L 740.138419 150.840802 
L 741.063803 151.005853 
L 743.839957 152.039935 
L 744.765341 147.91217 
L 745.690725 149.724951 
L 746.61611 149.001335 
L 747.541494 153.706181 
L 750.317647 153.590965 
L 751.243031 151.11497 
L 752.168416 156.38315 
L 753.0938 162.527613 
L 754.019184 165.245272 
L 756.795338 172.441045 
L 757.720722 168.364058 
L 758.646106 182.800744 
L 759.571491 188.663692 
L 760.496875 188.881869 
L 763.273028 188.469422 
L 764.198412 189.580728 
L 765.123797 189.185695 
L 766.049181 191.011191 
L 766.974566 190.907763 
L 769.750719 192.925067 
L 770.676103 194.113005 
L 771.601487 190.25722 
L 772.526872 189.461284 
L 773.452256 186.809114 
L 776.228409 188.365748 
L 777.153793 184.305981 
L 778.079178 183.998564 
L 779.004562 186.78676 
L 779.929947 190.37141 
L 782.7061 190.593971 
L 783.631484 193.166345 
L 784.556868 194.285746 
L 785.482253 202.619178 
L 786.407637 201.536648 
L 789.18379 201.172046 
L 790.109174 199.230779 
L 791.034559 199.448899 
L 791.959943 196.416775 
L 792.885328 200.819053 
L 795.661481 201.906587 
L 796.586865 204.208547 
L 797.512249 207.812343 
L 798.437634 203.390413 
L 799.363018 207.383182 
L 802.139171 208.033733 
L 803.064555 205.308544 
L 803.98994 203.377412 
L 804.915324 202.23942 
L 805.840709 203.736782 
L 808.616862 202.235743 
L 810.46763 205.191003 
L 811.393015 212.657426 
L 812.318399 215.037999 
L 815.094552 229.083071 
L 816.019936 229.304127 
L 816.945321 227.564915 
L 817.870705 232.005824 
L 818.79609 234.67759 
L 821.572243 232.414315 
L 822.497627 234.660041 
L 823.423011 234.427183 
L 824.348396 237.190651 
L 825.27378 239.095805 
L 828.049933 239.503859 
L 828.975318 241.598045 
L 829.900702 243.109329 
L 830.826086 242.256072 
L 831.751471 243.036494 
L 834.527624 241.684682 
L 835.453008 242.507214 
L 836.378392 242.301535 
L 837.303777 241.232803 
L 838.229161 244.292079 
L 841.005314 246.906461 
L 841.930699 225.038299 
L 842.856083 226.157527 
L 843.781467 224.115766 
L 844.706852 224.269852 
L 847.483005 224.438262 
L 848.408389 227.074811 
L 849.333773 224.039371 
L 850.259158 222.081581 
L 851.184542 223.226834 
L 853.960695 226.394605 
L 854.88608 225.446134 
L 855.811464 226.412836 
L 856.736848 226.985 
L 857.662233 226.706809 
L 860.438386 227.848522 
L 861.36377 224.535361 
L 862.289154 222.524628 
L 863.214539 221.000508 
L 864.139923 218.429591 
L 866.916076 218.286632 
L 867.841461 216.656027 
L 868.766845 215.409239 
L 869.692229 216.503427 
L 870.617614 213.433749 
L 873.393767 209.734698 
L 874.319151 213.240061 
L 875.244535 215.633156 
L 876.16992 214.872936 
L 877.095304 216.723074 
L 879.871457 216.834792 
L 881.722226 221.985873 
L 882.64761 221.004425 
L 883.572995 221.909455 
L 886.349148 224.174754 
L 887.274532 223.060983 
L 888.199916 220.439172 
L 889.125301 218.944285 
L 890.050685 220.89554 
L 892.826838 215.251613 
L 893.752223 215.462175 
L 894.677607 211.424407 
L 895.602991 211.642052 
L 896.528376 208.84567 
L 899.304529 243.288945 
L 900.229913 245.796001 
L 901.155297 247.587819 
L 902.080682 247.273644 
L 903.006066 248.286237 
L 905.782219 248.845379 
L 906.707604 250.296214 
L 907.632988 250.607983 
L 908.558372 252.207072 
L 909.483757 253.259292 
L 912.25991 253.080097 
L 913.185294 254.943256 
L 914.110678 255.177894 
L 915.036063 257.557174 
L 915.961447 257.02057 
L 918.7376 255.765375 
L 919.662985 254.735955 
L 920.588369 255.042204 
L 922.439138 254.933121 
L 925.215291 257.263492 
L 926.140675 257.816682 
L 927.066059 251.097785 
L 927.991444 253.397162 
L 928.916828 253.383649 
L 931.692981 254.000715 
L 932.618366 253.482903 
L 934.469134 253.609259 
L 935.394519 251.995313 
L 938.170672 251.755251 
L 939.096056 249.878414 
L 940.021441 251.269897 
L 940.946825 250.760621 
L 941.872209 253.208086 
L 944.648362 253.406993 
L 945.573747 253.759228 
L 946.499131 254.929998 
L 947.424515 253.48751 
L 948.3499 252.252334 
L 951.126053 250.068597 
L 952.051437 252.267454 
L 952.976822 251.817387 
L 953.902206 252.778744 
L 954.82759 254.691169 
L 957.603743 249.026612 
L 958.529128 249.242298 
L 959.454512 249.655181 
L 960.379896 246.499206 
L 961.305281 244.855734 
L 964.081434 245.571206 
L 965.006818 245.531286 
L 966.857587 241.333488 
L 967.782971 243.83635 
L 970.559124 243.337699 
L 971.484509 241.952268 
L 972.409893 240.774313 
L 974.260662 241.823706 
L 977.036815 242.499786 
L 977.962199 244.140743 
L 978.887584 245.457601 
L 979.812968 246.449679 
L 980.738352 247.197499 
L 983.514505 251.750602 
L 984.43989 251.13822 
L 985.365274 249.657923 
L 986.290658 251.493535 
L 987.216043 249.139544 
L 989.992196 247.823942 
L 990.91758 249.11936 
L 992.768349 249.254479 
L 993.693733 248.063353 
L 996.469886 248.745595 
L 997.395271 249.432898 
L 998.320655 248.508107 
L 999.246039 251.891917 
L 1000.171424 253.374899 
L 1002.947577 253.078599 
L 1003.872961 253.152032 
L 1004.798346 252.417109 
L 1005.72373 249.585971 
L 1006.649114 250.5828 
L 1009.425267 250.691166 
L 1010.350652 251.151283 
L 1011.276036 249.494553 
L 1012.20142 243.755813 
L 1013.126805 241.763127 
L 1015.902958 243.524498 
L 1016.828342 242.774879 
L 1017.753727 240.492597 
L 1018.679111 241.035644 
L 1019.604495 240.834977 
L 1022.380648 239.521624 
L 1023.306033 237.180543 
L 1024.231417 237.048995 
L 1025.156801 238.404834 
L 1026.082186 240.325715 
L 1028.858339 237.898501 
L 1029.783723 239.597007 
L 1030.709108 242.31453 
L 1031.634492 240.34104 
L 1032.559876 240.792134 
L 1035.336029 237.977654 
L 1036.261414 235.12742 
L 1037.186798 235.071819 
L 1038.112182 234.819214 
L 1039.037567 237.535668 
L 1041.81372 255.166692 
L 1042.739104 255.862083 
L 1043.664489 254.674816 
L 1044.589873 253.966655 
L 1045.515257 256.691368 
L 1048.29141 255.88579 
L 1049.216795 257.204236 
L 1050.142179 257.427754 
L 1051.067564 256.978144 
L 1051.992948 255.714219 
L 1055.694485 259.169219 
L 1056.61987 259.649192 
L 1057.545254 260.358631 
L 1058.470638 262.303636 
L 1061.246791 260.935613 
L 1062.172176 262.297056 
L 1063.09756 262.131894 
L 1064.022945 262.099145 
L 1064.948329 261.621336 
L 1067.724482 262.09764 
L 1068.649866 248.30173 
L 1069.575251 247.849355 
L 1070.500635 246.749897 
L 1071.426019 247.625075 
L 1074.202172 248.675732 
L 1075.127557 248.062546 
L 1076.052941 248.666391 
L 1076.978326 249.574816 
L 1077.90371 248.980865 
L 1080.679863 247.863885 
L 1081.605247 245.974388 
L 1082.530632 247.730293 
L 1083.456016 248.88304 
L 1084.3814 248.346671 
L 1087.157553 248.402089 
L 1088.082938 247.281811 
L 1089.008322 249.206389 
L 1089.933707 248.81649 
L 1090.859091 246.350722 
L 1090.859091 246.350722 
" style="fill:none;stroke:#1f77b4;stroke-linecap:square;stroke-width:1.5;"/>
   </g>
   <g id="line2d_24">
    <path clip-path="url(#pd9cf540724)" d="M 84.040909 216.62506 
L 84.966293 214.81227 
L 85.891678 217.1922 
L 86.817062 218.40865 
L 89.593215 216.785381 
L 90.5186 217.960663 
L 91.443984 214.41196 
L 92.369368 214.60648 
L 93.294753 214.394608 
L 96.99629 216.943219 
L 97.921674 219.009817 
L 98.847059 219.316868 
L 99.772443 220.244842 
L 102.548596 220.784107 
L 103.473981 219.267644 
L 104.399365 218.423767 
L 105.324749 216.272797 
L 106.250134 218.386028 
L 109.026287 218.514379 
L 109.951671 222.449422 
L 110.877055 221.431152 
L 111.80244 221.796298 
L 112.727824 219.957701 
L 115.503977 219.705533 
L 116.429362 221.026053 
L 117.354746 217.410903 
L 118.28013 218.157097 
L 119.205515 218.697857 
L 121.981668 218.932665 
L 122.907052 218.514033 
L 123.832436 220.020838 
L 124.757821 220.705424 
L 125.683205 220.477491 
L 128.459358 220.764732 
L 129.384743 217.74 
L 130.310127 217.501374 
L 131.235511 219.785532 
L 132.160896 218.00142 
L 134.937049 219.739 
L 135.862433 219.75928 
L 136.787818 217.969831 
L 137.713202 218.588613 
L 138.638586 217.230687 
L 143.265508 218.55355 
L 144.190892 219.085128 
L 145.116277 220.038386 
L 147.89243 223.591296 
L 148.817814 224.353064 
L 149.743199 222.262391 
L 150.668583 223.861339 
L 151.593967 223.899368 
L 154.37012 224.671821 
L 155.295505 222.126931 
L 156.220889 222.011448 
L 157.146273 224.085748 
L 158.071658 224.330137 
L 160.847811 223.135028 
L 161.773195 223.993435 
L 162.69858 225.055477 
L 163.623964 224.623492 
L 164.549348 224.743733 
L 167.325501 224.600604 
L 168.250886 223.586035 
L 169.17627 223.404205 
L 170.101654 222.101308 
L 171.027039 221.615363 
L 173.803192 222.956371 
L 174.728576 222.64278 
L 175.653961 221.750154 
L 176.579345 222.701803 
L 177.504729 223.411316 
L 180.280882 223.518617 
L 181.206267 224.513516 
L 182.131651 224.172247 
L 183.057035 221.522667 
L 183.98242 222.481139 
L 186.758573 223.200919 
L 187.683957 224.545722 
L 188.609342 223.461118 
L 189.534726 223.85277 
L 190.46011 223.579763 
L 193.236263 224.273746 
L 194.161648 225.819737 
L 195.087032 226.29869 
L 196.012416 225.161188 
L 196.937801 225.006923 
L 199.713954 224.286548 
L 200.639338 225.370832 
L 201.564723 223.64221 
L 202.490107 223.384068 
L 203.415491 224.975117 
L 206.191644 225.228326 
L 208.042413 224.892945 
L 208.967797 223.098258 
L 209.893182 223.496063 
L 212.669335 221.902086 
L 213.594719 222.543988 
L 214.520104 220.945821 
L 215.445488 224.355361 
L 216.370872 223.890903 
L 219.147025 222.356631 
L 220.07241 220.126163 
L 220.997794 219.1723 
L 221.923178 221.334273 
L 222.848563 220.994128 
L 225.624716 219.179718 
L 226.5501 217.193231 
L 227.475485 217.635985 
L 228.400869 217.473724 
L 229.326253 216.696259 
L 232.102406 217.644475 
L 233.027791 215.873481 
L 233.953175 216.817886 
L 234.878559 217.514009 
L 235.803944 214.964757 
L 238.580097 215.180904 
L 239.505481 217.784371 
L 240.430866 218.635706 
L 241.35625 218.170474 
L 242.281634 217.983457 
L 245.057787 216.191603 
L 245.983172 213.87862 
L 247.833941 213.833017 
L 248.759325 215.45775 
L 251.535478 213.298721 
L 252.460862 212.95943 
L 253.386247 210.647157 
L 254.311631 209.124065 
L 255.237015 209.188835 
L 258.013168 207.135997 
L 258.938553 208.944826 
L 259.863937 209.852387 
L 260.789322 207.449297 
L 261.714706 207.12107 
L 264.490859 205.512556 
L 265.416243 206.120498 
L 266.341628 203.583587 
L 267.267012 204.951974 
L 268.192396 204.819391 
L 270.968549 204.671583 
L 271.893934 205.704529 
L 272.819318 205.159296 
L 273.744703 204.758234 
L 274.670087 205.042482 
L 277.44624 204.586123 
L 279.297009 207.655801 
L 280.222393 209.896564 
L 281.147777 210.340422 
L 283.92393 209.785984 
L 284.849315 208.807212 
L 285.774699 209.742286 
L 286.700084 209.862937 
L 287.625468 207.820092 
L 290.401621 208.860211 
L 291.327005 206.102949 
L 292.25239 204.778878 
L 294.103158 203.81988 
L 296.879311 204.862945 
L 297.804696 204.396796 
L 298.73008 206.087995 
L 299.655465 207.166059 
L 300.580849 205.532115 
L 303.357002 202.404307 
L 304.282386 204.981015 
L 305.207771 205.533643 
L 306.133155 207.845558 
L 307.058539 208.265853 
L 309.834693 207.133939 
L 310.760077 207.794558 
L 311.685461 209.568456 
L 312.610846 208.031555 
L 313.53623 207.576589 
L 316.312383 208.696344 
L 318.163152 212.404551 
L 319.088536 210.966048 
L 320.01392 211.258871 
L 322.790074 211.834134 
L 323.715458 211.238587 
L 324.640842 211.697233 
L 325.566227 210.455506 
L 326.491611 211.057162 
L 329.267764 209.626868 
L 330.193148 211.193307 
L 331.118533 210.86875 
L 332.043917 211.968104 
L 332.969301 211.527264 
L 335.745455 212.319917 
L 336.670839 210.083587 
L 337.596223 209.412696 
L 338.521608 209.247421 
L 339.446992 207.504721 
L 342.223145 206.681503 
L 343.148529 207.081115 
L 344.073914 206.042379 
L 344.999298 207.896958 
L 345.924682 207.708139 
L 348.700836 206.445833 
L 349.62622 206.244989 
L 350.551604 205.4649 
L 351.476989 204.051344 
L 352.402373 203.709773 
L 356.10391 201.555121 
L 357.029295 200.580171 
L 357.954679 200.727739 
L 358.880064 202.273114 
L 361.656217 202.600333 
L 362.581601 203.239324 
L 363.506985 202.660047 
L 364.43237 205.167592 
L 365.357754 204.782975 
L 368.133907 205.272806 
L 369.059291 207.534571 
L 369.984676 207.897337 
L 370.91006 207.234754 
L 371.835445 207.429475 
L 374.611598 207.233635 
L 375.536982 206.379639 
L 376.462366 207.827736 
L 377.387751 207.071795 
L 378.313135 206.532668 
L 381.089288 206.251229 
L 382.014672 205.142317 
L 382.940057 205.365914 
L 383.865441 203.600768 
L 384.790826 202.56058 
L 387.566979 200.565734 
L 388.492363 202.509771 
L 389.417747 202.074812 
L 390.343132 200.873532 
L 391.268516 202.489754 
L 394.044669 201.361374 
L 394.970053 199.962161 
L 395.895438 197.17635 
L 396.820822 197.647847 
L 397.746207 196.65727 
L 400.52236 196.613731 
L 401.447744 196.895224 
L 402.373128 193.399237 
L 403.298513 191.914087 
L 404.223897 192.920391 
L 407.00005 191.706296 
L 407.925434 193.58095 
L 408.850819 193.331363 
L 410.701588 194.799811 
L 413.477741 196.769345 
L 414.403125 199.133036 
L 415.328509 200.989906 
L 416.253894 201.646396 
L 417.179278 200.826157 
L 419.955431 201.432901 
L 420.880816 202.149712 
L 421.8062 200.24155 
L 422.731584 201.937213 
L 423.656969 200.035164 
L 426.433122 198.2965 
L 427.358506 198.725863 
L 428.28389 200.552577 
L 429.209275 198.496989 
L 430.134659 196.851747 
L 432.910812 196.613855 
L 433.836197 198.953257 
L 434.761581 198.677275 
L 435.686965 196.776299 
L 439.388503 197.769844 
L 440.313887 198.89444 
L 441.239271 199.119891 
L 442.164656 200.052212 
L 443.09004 199.476678 
L 445.866193 198.837394 
L 446.791578 200.213878 
L 447.716962 197.630775 
L 448.642346 200.373905 
L 449.567731 201.369699 
L 452.343884 200.31952 
L 453.269268 198.985612 
L 454.194652 200.163309 
L 455.120037 200.756422 
L 456.045421 198.493919 
L 458.821574 197.185969 
L 459.746959 198.327134 
L 460.672343 199.972003 
L 462.523112 197.570851 
L 465.299265 197.235004 
L 466.224649 198.090667 
L 467.150033 199.727243 
L 468.075418 202.438234 
L 469.000802 200.131567 
L 471.776955 200.505766 
L 473.627724 202.907963 
L 474.553108 202.172636 
L 475.478493 201.987432 
L 478.254646 201.917781 
L 479.18003 199.31694 
L 480.105414 197.650241 
L 481.030799 198.755008 
L 481.956183 198.722012 
L 484.732336 198.790794 
L 485.657721 199.97874 
L 487.508489 196.846333 
L 488.433874 195.841981 
L 491.210027 198.965135 
L 492.135411 196.285128 
L 493.060795 197.150908 
L 493.98618 195.137051 
L 494.911564 194.780297 
L 498.613102 196.054566 
L 499.538486 194.319035 
L 500.46387 193.669418 
L 501.389255 196.131929 
L 504.165408 197.734618 
L 505.090792 196.029768 
L 506.016176 197.151241 
L 506.941561 196.081734 
L 507.866945 196.864341 
L 510.643098 196.156499 
L 511.568483 194.797432 
L 512.493867 196.433781 
L 513.419251 198.958144 
L 514.344636 200.347594 
L 517.120789 200.561108 
L 518.046173 198.710583 
L 518.971557 199.204794 
L 519.896942 201.721229 
L 520.822326 201.97093 
L 523.598479 200.010443 
L 525.449248 204.321026 
L 526.374632 205.669873 
L 527.300017 204.944688 
L 530.07617 204.59598 
L 531.001554 204.947683 
L 531.926939 203.036466 
L 532.852323 204.951059 
L 536.55386 203.603055 
L 537.479245 205.532348 
L 538.404629 208.656805 
L 540.255398 211.700337 
L 543.031551 208.885303 
L 543.956935 207.740205 
L 544.88232 208.801938 
L 545.807704 208.729811 
L 546.733088 208.043987 
L 549.509241 209.6597 
L 550.434626 209.482897 
L 553.210779 210.139059 
L 555.986932 211.364159 
L 556.912316 212.204059 
L 557.837701 212.082162 
L 558.763085 211.179854 
L 559.688469 212.147835 
L 562.464622 214.22044 
L 563.390007 215.146762 
L 564.315391 217.336192 
L 565.240775 218.557 
L 566.16616 219.283089 
L 570.793082 220.448516 
L 571.718466 223.754044 
L 572.64385 224.767697 
L 575.420003 225.903852 
L 576.345388 224.844218 
L 577.270772 223.516883 
L 578.196156 226.061921 
L 579.121541 227.461928 
L 581.897694 226.414097 
L 582.823078 225.000085 
L 585.599231 227.96205 
L 588.375384 228.657639 
L 589.300769 227.65119 
L 590.226153 227.803423 
L 591.151537 227.276947 
L 592.076922 226.139334 
L 594.853075 226.333567 
L 595.778459 227.235646 
L 596.703844 227.158785 
L 597.629228 227.517223 
L 598.554612 227.554956 
L 601.330765 227.201449 
L 602.25615 226.844038 
L 603.181534 225.001647 
L 604.106918 225.091164 
L 605.032303 224.391349 
L 607.808456 223.450784 
L 608.73384 221.243838 
L 609.659225 222.302481 
L 610.584609 224.318823 
L 611.509993 223.286708 
L 614.286146 224.748383 
L 615.211531 224.660451 
L 616.136915 224.433897 
L 617.062299 224.671213 
L 617.987684 222.955484 
L 620.763837 223.393214 
L 621.689221 224.01824 
L 622.614606 223.9817 
L 623.53999 225.634036 
L 624.465374 225.881281 
L 627.241527 228.292489 
L 628.166912 230.263326 
L 629.092296 231.384662 
L 630.01768 231.724712 
L 630.943065 231.465681 
L 633.719218 230.219045 
L 634.644602 230.830614 
L 635.569987 229.599597 
L 636.495371 228.587443 
L 637.420755 228.642839 
L 640.196908 229.018539 
L 641.122293 229.516265 
L 642.047677 228.664252 
L 642.973061 230.522541 
L 643.898446 229.224466 
L 646.674599 229.929403 
L 647.599983 229.838408 
L 648.525368 230.66047 
L 649.450752 229.76676 
L 650.376136 229.304902 
L 653.152289 229.342252 
L 654.077674 229.2119 
L 655.003058 228.419186 
L 655.928443 227.389143 
L 656.853827 227.805996 
L 659.62998 230.216931 
L 660.555364 230.264125 
L 661.480749 231.15179 
L 662.406133 231.592996 
L 663.331517 232.637035 
L 666.10767 232.867001 
L 667.033055 232.650235 
L 667.958439 231.991616 
L 668.883824 231.477432 
L 669.809208 233.511904 
L 672.585361 232.972246 
L 674.43613 235.85912 
L 675.361514 236.958974 
L 676.286898 237.271002 
L 679.063051 236.640601 
L 679.988436 237.814359 
L 680.91382 238.544703 
L 681.839205 239.529411 
L 682.764589 238.819669 
L 685.540742 238.882698 
L 686.466126 238.608315 
L 687.391511 237.37015 
L 688.316895 235.814534 
L 689.242279 235.506753 
L 692.943817 235.452511 
L 693.869201 234.765699 
L 694.794586 236.43945 
L 695.71997 235.472639 
L 698.496123 236.677027 
L 699.421507 238.613249 
L 700.346892 237.33611 
L 701.272276 236.923035 
L 702.19766 238.412288 
L 704.973814 240.439308 
L 705.899198 239.571344 
L 706.824582 241.011603 
L 707.749967 240.660307 
L 708.675351 242.132065 
L 711.451504 241.313155 
L 712.376888 241.767069 
L 713.302273 242.086268 
L 714.227657 240.971042 
L 715.153041 240.576591 
L 717.929195 240.206777 
L 718.854579 240.375812 
L 719.779963 241.037264 
L 720.705348 240.943319 
L 721.630732 242.711055 
L 724.406885 243.865376 
L 725.332269 244.668019 
L 726.257654 245.081561 
L 727.183038 245.674537 
L 728.108422 245.489262 
L 730.884576 245.922047 
L 731.80996 246.501963 
L 732.735344 246.367678 
L 734.586113 245.031649 
L 737.362266 245.490425 
L 738.28765 244.849457 
L 739.213035 243.02496 
L 740.138419 242.859502 
L 741.063803 242.115795 
L 743.839957 241.943187 
L 745.690725 240.735533 
L 746.61611 240.251688 
L 747.541494 241.14388 
L 750.317647 241.072273 
L 751.243031 242.291295 
L 752.168416 241.601316 
L 753.0938 242.809371 
L 754.019184 243.306451 
L 756.795338 243.616106 
L 757.720722 243.286114 
L 758.646106 243.285495 
L 759.571491 243.415506 
L 760.496875 242.482579 
L 763.273028 242.017403 
L 764.198412 242.512814 
L 765.123797 242.812 
L 766.049181 242.237041 
L 766.974566 241.50136 
L 769.750719 241.805476 
L 770.676103 242.690659 
L 771.601487 242.014855 
L 772.526872 240.644397 
L 773.452256 239.73046 
L 776.228409 238.485991 
L 777.153793 238.486346 
L 778.079178 238.081388 
L 779.004562 238.97035 
L 779.929947 239.066589 
L 782.7061 238.465527 
L 783.631484 237.491185 
L 784.556868 237.483263 
L 785.482253 237.912281 
L 786.407637 237.28464 
L 789.18379 237.24064 
L 790.109174 235.80308 
L 791.034559 236.590158 
L 791.959943 237.020213 
L 792.885328 237.145894 
L 795.661481 238.246625 
L 797.512249 240.857507 
L 798.437634 240.672399 
L 799.363018 240.908176 
L 802.139171 239.741161 
L 803.064555 238.982214 
L 803.98994 239.071451 
L 804.915324 238.351012 
L 805.840709 238.551216 
L 808.616862 236.540061 
L 809.542246 236.886724 
L 810.46763 237.49814 
L 811.393015 239.193315 
L 812.318399 240.215308 
L 815.094552 240.748086 
L 816.019936 241.052076 
L 816.945321 240.291477 
L 817.870705 241.790165 
L 818.79609 242.914222 
L 821.572243 242.303825 
L 822.497627 243.297181 
L 823.423011 242.307945 
L 824.348396 242.258009 
L 825.27378 243.405108 
L 828.049933 243.926194 
L 828.975318 244.605733 
L 829.900702 245.085478 
L 830.826086 244.140887 
L 831.751471 245.093069 
L 834.527624 245.886249 
L 835.453008 244.72124 
L 836.378392 244.599446 
L 837.303777 244.359073 
L 838.229161 244.911885 
L 841.930699 245.056262 
L 843.781467 245.355914 
L 844.706852 245.428813 
L 847.483005 245.356099 
L 848.408389 246.332499 
L 849.333773 245.889028 
L 850.259158 245.926795 
L 851.184542 245.601285 
L 853.960695 247.412386 
L 854.88608 247.433097 
L 855.811464 247.85873 
L 856.736848 247.903781 
L 857.662233 247.154556 
L 861.36377 247.819062 
L 862.289154 248.490922 
L 863.214539 248.260356 
L 864.139923 247.224154 
L 867.841461 247.369992 
L 868.766845 246.128743 
L 869.692229 246.099711 
L 870.617614 246.921734 
L 873.393767 245.101079 
L 874.319151 246.130553 
L 875.244535 246.110823 
L 876.16992 245.874753 
L 877.095304 246.453129 
L 879.871457 246.818785 
L 880.796842 246.433001 
L 881.722226 247.087514 
L 882.64761 246.43967 
L 883.572995 246.933457 
L 886.349148 247.590155 
L 887.274532 247.600794 
L 888.199916 246.627499 
L 889.125301 246.463222 
L 890.050685 247.143173 
L 892.826838 246.896673 
L 893.752223 246.356554 
L 894.677607 244.747817 
L 896.528376 246.21495 
L 899.304529 246.547222 
L 900.229913 248.0388 
L 901.155297 247.886663 
L 902.080682 247.425581 
L 905.782219 248.083552 
L 906.707604 248.017466 
L 907.632988 248.185056 
L 908.558372 248.236382 
L 909.483757 248.648342 
L 912.25991 249.083217 
L 913.185294 250.896574 
L 915.961447 252.085492 
L 918.7376 252.981661 
L 919.662985 252.804074 
L 921.513753 252.693043 
L 922.439138 252.423054 
L 925.215291 252.946755 
L 926.140675 252.630008 
L 927.066059 253.52955 
L 927.991444 253.530229 
L 928.916828 254.481079 
L 931.692981 254.120016 
L 932.618366 253.542016 
L 934.469134 252.072381 
L 935.394519 251.945008 
L 938.170672 252.536561 
L 939.096056 252.097973 
L 940.021441 252.68791 
L 940.946825 252.398607 
L 941.872209 252.991761 
L 945.573747 253.024831 
L 946.499131 253.141665 
L 947.424515 252.150156 
L 948.3499 250.367899 
L 951.126053 250.038935 
L 952.051437 250.275427 
L 952.976822 249.779809 
L 953.902206 251.337832 
L 957.603743 252.850529 
L 958.529128 253.614531 
L 959.454512 253.36177 
L 960.379896 252.965455 
L 961.305281 252.293515 
L 964.081434 251.800874 
L 965.006818 252.584869 
L 965.932203 252.367667 
L 966.857587 252.732638 
L 967.782971 254.055914 
L 970.559124 254.824173 
L 972.409893 253.228826 
L 973.335277 253.934019 
L 974.260662 254.472714 
L 977.036815 255.676113 
L 978.887584 256.831855 
L 979.812968 255.987601 
L 980.738352 255.493347 
L 984.43989 256.327672 
L 985.365274 255.625171 
L 986.290658 255.804115 
L 987.216043 254.751754 
L 989.992196 254.081558 
L 990.91758 254.498943 
L 991.842965 254.739603 
L 992.768349 254.176081 
L 996.469886 254.05809 
L 997.395271 254.317352 
L 998.320655 253.981376 
L 999.246039 254.646205 
L 1000.171424 254.429413 
L 1002.947577 253.553105 
L 1003.872961 253.521584 
L 1004.798346 252.760366 
L 1005.72373 251.369299 
L 1006.649114 251.527667 
L 1009.425267 250.929628 
L 1010.350652 251.115292 
L 1011.276036 250.218858 
L 1012.20142 250.101701 
L 1013.126805 249.052426 
L 1015.902958 249.376648 
L 1016.828342 249.078585 
L 1017.753727 249.134828 
L 1018.679111 248.760037 
L 1019.604495 248.207343 
L 1022.380648 248.776989 
L 1023.306033 248.783509 
L 1024.231417 249.022903 
L 1026.082186 250.069618 
L 1029.783723 249.381917 
L 1030.709108 250.330993 
L 1031.634492 249.067774 
L 1032.559876 249.613025 
L 1035.336029 249.405573 
L 1036.261414 250.377217 
L 1037.186798 250.011919 
L 1039.037567 251.816069 
L 1041.81372 252.40104 
L 1042.739104 253.442792 
L 1043.664489 251.880942 
L 1044.589873 251.252028 
L 1045.515257 251.744848 
L 1048.29141 251.788516 
L 1049.216795 252.767856 
L 1050.142179 252.980131 
L 1051.067564 252.889354 
L 1051.992948 252.426192 
L 1054.769101 253.502975 
L 1055.694485 254.501622 
L 1056.61987 254.136465 
L 1057.545254 254.72507 
L 1058.470638 255.739036 
L 1062.172176 254.992196 
L 1063.09756 255.306784 
L 1064.022945 255.434409 
L 1064.948329 255.084876 
L 1068.649866 255.148548 
L 1069.575251 254.785429 
L 1070.500635 253.802308 
L 1071.426019 254.351523 
L 1074.202172 254.064461 
L 1075.127557 254.114761 
L 1076.978326 256.111421 
L 1077.90371 256.046559 
L 1080.679863 256.723152 
L 1081.605247 255.745427 
L 1083.456016 257.442507 
L 1084.3814 257.245608 
L 1088.082938 256.966044 
L 1089.008322 257.360381 
L 1089.933707 257.090178 
L 1090.859091 256.272925 
L 1090.859091 256.272925 
" style="fill:none;stroke:#ff7f0e;stroke-linecap:square;stroke-width:1.5;"/>
   </g>
   <g id="line2d_25">
    <path clip-path="url(#pd9cf540724)" d="M 84.040909 216.597161 
L 84.966293 216.03028 
L 85.891678 216.866318 
L 86.817062 218.919586 
L 89.593215 216.036768 
L 91.443984 219.392945 
L 92.369368 220.970634 
L 93.294753 218.842082 
L 96.070906 218.236896 
L 96.99629 219.037752 
L 97.921674 220.849558 
L 98.847059 221.098947 
L 99.772443 221.465809 
L 102.548596 221.822808 
L 103.473981 220.8156 
L 104.399365 220.577304 
L 105.324749 219.944484 
L 106.250134 220.833369 
L 109.026287 221.010331 
L 109.951671 223.146112 
L 110.877055 222.655982 
L 111.80244 223.280258 
L 112.727824 221.691328 
L 115.503977 223.221731 
L 116.429362 221.687816 
L 117.354746 220.789605 
L 118.28013 217.389494 
L 119.205515 219.667041 
L 122.907052 224.380611 
L 123.832436 224.116066 
L 124.757821 223.125573 
L 125.683205 223.417188 
L 128.459358 222.038411 
L 129.384743 220.902104 
L 130.310127 218.841637 
L 131.235511 222.29949 
L 132.160896 224.258845 
L 135.862433 224.594857 
L 136.787818 226.78449 
L 137.713202 208.311969 
L 138.638586 210.779818 
L 142.340124 204.434773 
L 143.265508 205.024183 
L 144.190892 206.365956 
L 145.116277 203.298871 
L 147.89243 201.001709 
L 148.817814 200.993606 
L 149.743199 203.865245 
L 150.668583 206.055039 
L 151.593967 202.91779 
L 154.37012 205.60483 
L 155.295505 202.783348 
L 156.220889 197.143222 
L 157.146273 199.363763 
L 158.071658 198.203052 
L 160.847811 194.122462 
L 161.773195 193.470783 
L 162.69858 193.600012 
L 163.623964 192.819432 
L 164.549348 193.577048 
L 167.325501 192.263395 
L 169.17627 185.156785 
L 170.101654 188.450092 
L 171.027039 190.371947 
L 173.803192 190.065846 
L 174.728576 189.716695 
L 175.653961 188.665432 
L 176.579345 184.051577 
L 177.504729 181.24284 
L 180.280882 177.554794 
L 181.206267 177.680488 
L 182.131651 181.221863 
L 183.057035 185.43992 
L 183.98242 186.905251 
L 186.758573 181.110265 
L 187.683957 176.786295 
L 188.609342 177.150052 
L 189.534726 179.502379 
L 190.46011 176.471698 
L 193.236263 175.478626 
L 194.161648 157.254824 
L 195.087032 153.128265 
L 196.012416 148.225211 
L 196.937801 150.786433 
L 199.713954 148.920483 
L 200.639338 140.442877 
L 201.564723 146.783736 
L 202.490107 145.307154 
L 203.415491 145.241899 
L 206.191644 144.463701 
L 207.117029 141.802307 
L 208.042413 137.629474 
L 208.967797 136.937428 
L 209.893182 143.299667 
L 212.669335 146.491855 
L 213.594719 140.865784 
L 214.520104 142.566483 
L 215.445488 148.067996 
L 216.370872 143.715343 
L 219.147025 140.415845 
L 220.997794 131.903851 
L 221.923178 141.544272 
L 222.848563 146.296448 
L 225.624716 142.248266 
L 226.5501 136.097292 
L 227.475485 133.043937 
L 228.400869 136.873703 
L 229.326253 135.476188 
L 232.102406 128.165063 
L 233.027791 127.101104 
L 233.953175 134.07602 
L 234.878559 138.375967 
L 235.803944 132.845503 
L 238.580097 123.011324 
L 239.505481 120.988589 
L 241.35625 110.522177 
L 242.281634 108.276191 
L 245.057787 113.264877 
L 245.983172 109.788048 
L 246.908556 104.594314 
L 247.833941 106.747988 
L 248.759325 107.134043 
L 251.535478 119.899213 
L 252.460862 116.177163 
L 253.386247 117.98833 
L 255.237015 115.087322 
L 258.013168 125.399533 
L 258.938553 127.434143 
L 259.863937 138.374284 
L 260.789322 137.255894 
L 261.714706 140.031604 
L 264.490859 140.030875 
L 265.416243 130.368947 
L 266.341628 123.811379 
L 267.267012 122.568501 
L 268.192396 111.191859 
L 270.968549 104.604276 
L 271.893934 103.94501 
L 272.819318 94.828917 
L 273.744703 105.083571 
L 274.670087 110.752417 
L 277.44624 114.607992 
L 278.371624 121.330747 
L 279.297009 140.134586 
L 280.222393 137.994249 
L 281.147777 133.436666 
L 283.92393 143.125932 
L 284.849315 144.453314 
L 285.774699 152.913882 
L 286.700084 150.025606 
L 287.625468 145.852762 
L 290.401621 149.718762 
L 291.327005 149.730823 
L 292.25239 149.294499 
L 293.177774 145.170668 
L 294.103158 144.14628 
L 296.879311 137.251117 
L 297.804696 138.493913 
L 298.73008 135.137358 
L 299.655465 134.596668 
L 300.580849 146.578165 
L 303.357002 146.208984 
L 304.282386 147.134155 
L 305.207771 137.026148 
L 306.133155 132.453833 
L 307.058539 107.931274 
L 309.834693 120.636018 
L 310.760077 115.905738 
L 311.685461 118.720664 
L 312.610846 113.931667 
L 313.53623 113.944849 
L 316.312383 115.857263 
L 317.237767 112.197004 
L 318.163152 102.266351 
L 319.088536 97.585834 
L 320.01392 100.755628 
L 322.790074 100.407519 
L 323.715458 91.07428 
L 324.640842 88.796203 
L 325.566227 87.452108 
L 326.491611 84.988341 
L 329.267764 86.987228 
L 330.193148 86.62932 
L 331.118533 81.546069 
L 332.043917 89.784098 
L 332.969301 82.316587 
L 335.745455 98.356412 
L 336.670839 92.51337 
L 337.596223 89.316226 
L 338.521608 83.432059 
L 339.446992 98.538455 
L 342.223145 92.56738 
L 343.148529 87.493137 
L 344.073914 72.519192 
L 344.999298 73.675189 
L 345.924682 76.186613 
L 348.700836 81.371306 
L 349.62622 93.019448 
L 350.551604 87.516995 
L 351.476989 93.363345 
L 352.402373 89.589372 
L 356.10391 92.905407 
L 357.029295 92.885951 
L 357.954679 83.949166 
L 358.880064 84.915074 
L 361.656217 83.888977 
L 362.581601 87.788241 
L 363.506985 143.128832 
L 364.43237 144.644732 
L 365.357754 142.847171 
L 368.133907 148.525022 
L 369.059291 149.676231 
L 370.91006 157.47639 
L 371.835445 163.588013 
L 374.611598 164.143631 
L 375.536982 157.444786 
L 377.387751 160.79327 
L 378.313135 160.904597 
L 381.089288 156.740138 
L 382.014672 158.574066 
L 382.940057 163.015152 
L 383.865441 164.106638 
L 384.790826 166.776333 
L 387.566979 175.578267 
L 388.492363 175.180231 
L 389.417747 171.202666 
L 390.343132 173.820298 
L 391.268516 172.458517 
L 394.044669 123.96188 
L 394.970053 119.494199 
L 395.895438 120.017951 
L 396.820822 123.108315 
L 397.746207 123.668246 
L 400.52236 111.634201 
L 401.447744 109.206045 
L 402.373128 109.595619 
L 403.298513 105.36319 
L 404.223897 110.020753 
L 407.00005 104.227301 
L 407.925434 109.209631 
L 408.850819 111.447275 
L 409.776203 103.749393 
L 410.701588 106.336635 
L 413.477741 92.113547 
L 414.403125 91.155291 
L 415.328509 95.462867 
L 416.253894 91.465258 
L 417.179278 91.864554 
L 419.955431 87.071766 
L 420.880816 122.447151 
L 421.8062 114.840272 
L 422.731584 121.868479 
L 423.656969 127.38404 
L 426.433122 123.830752 
L 427.358506 123.912745 
L 428.28389 122.022684 
L 429.209275 130.535749 
L 430.134659 127.8855 
L 432.910812 125.302864 
L 433.836197 127.238959 
L 434.761581 132.34006 
L 435.686965 129.134017 
L 436.61235 130.100222 
L 439.388503 132.16614 
L 440.313887 136.549029 
L 441.239271 136.038938 
L 443.09004 128.943358 
L 445.866193 130.828116 
L 446.791578 123.684091 
L 447.716962 122.120777 
L 448.642346 115.370108 
L 449.567731 119.147004 
L 452.343884 124.964895 
L 453.269268 123.422025 
L 454.194652 117.51388 
L 455.120037 115.281379 
L 456.045421 122.919234 
L 458.821574 120.485882 
L 459.746959 114.287789 
L 460.672343 117.142067 
L 461.597727 118.800886 
L 462.523112 111.857217 
L 465.299265 106.02262 
L 466.224649 109.886157 
L 467.150033 112.220893 
L 468.075418 119.63449 
L 469.000802 125.437985 
L 471.776955 126.796038 
L 472.70234 122.857983 
L 473.627724 119.856491 
L 474.553108 119.488202 
L 475.478493 126.325358 
L 478.254646 121.422457 
L 479.18003 120.847814 
L 480.105414 117.361845 
L 481.030799 110.09633 
L 481.956183 106.180998 
L 484.732336 106.372493 
L 485.657721 107.314715 
L 486.583105 109.236706 
L 487.508489 121.274317 
L 488.433874 124.834224 
L 491.210027 128.030699 
L 492.135411 129.695855 
L 493.060795 126.82329 
L 493.98618 125.009154 
L 494.911564 124.223769 
L 497.687717 132.321158 
L 498.613102 139.985273 
L 499.538486 142.035867 
L 500.46387 140.87899 
L 501.389255 145.305836 
L 504.165408 152.649115 
L 505.090792 149.888251 
L 506.016176 150.969081 
L 506.941561 147.470197 
L 507.866945 150.701859 
L 510.643098 148.725792 
L 511.568483 153.029718 
L 512.493867 154.744837 
L 513.419251 153.501295 
L 514.344636 155.617018 
L 517.120789 150.176952 
L 518.046173 154.386599 
L 518.971557 151.781667 
L 519.896942 145.14406 
L 520.822326 150.932391 
L 523.598479 152.496279 
L 524.523864 153.935303 
L 525.449248 155.724619 
L 526.374632 156.3888 
L 527.300017 154.583555 
L 530.07617 147.185282 
L 531.001554 148.664717 
L 531.926939 136.084071 
L 532.852323 128.521583 
L 533.777707 127.477078 
L 536.55386 124.838838 
L 537.479245 125.255202 
L 538.404629 123.272911 
L 540.255398 111.38196 
L 543.031551 106.447556 
L 543.956935 109.483134 
L 544.88232 111.897015 
L 545.807704 113.879585 
L 546.733088 125.930926 
L 549.509241 119.200654 
L 550.434626 124.511991 
L 551.36001 118.132543 
L 552.285394 116.117902 
L 553.210779 113.828954 
L 555.986932 105.830751 
L 556.912316 108.279043 
L 557.837701 106.621526 
L 558.763085 114.543442 
L 559.688469 146.030124 
L 562.464622 144.634391 
L 563.390007 142.940715 
L 564.315391 143.249086 
L 565.240775 147.904005 
L 566.16616 146.815769 
L 568.942313 147.394063 
L 569.867697 144.884612 
L 570.793082 145.644643 
L 572.64385 140.454704 
L 575.420003 134.248794 
L 576.345388 131.273747 
L 577.270772 137.715597 
L 578.196156 138.409885 
L 579.121541 135.14682 
L 581.897694 126.268015 
L 582.823078 124.216897 
L 584.673847 133.031047 
L 585.599231 135.178326 
L 588.375384 129.910028 
L 589.300769 129.744602 
L 590.226153 135.345637 
L 591.151537 133.912521 
L 592.076922 135.421624 
L 595.778459 133.28238 
L 596.703844 129.24103 
L 598.554612 134.269769 
L 601.330765 133.640821 
L 602.25615 132.032925 
L 603.181534 135.555727 
L 604.106918 137.935783 
L 605.032303 146.398095 
L 607.808456 145.498884 
L 608.73384 149.344755 
L 609.659225 144.731939 
L 610.584609 145.195928 
L 611.509993 148.513398 
L 614.286146 147.326756 
L 615.211531 152.901058 
L 616.136915 149.978792 
L 617.062299 143.923818 
L 617.987684 146.107969 
L 620.763837 142.106989 
L 621.689221 141.905437 
L 622.614606 133.061147 
L 623.53999 131.611631 
L 624.465374 135.726541 
L 627.241527 143.534236 
L 628.166912 148.430793 
L 629.092296 142.903895 
L 630.01768 140.354623 
L 630.943065 138.182122 
L 633.719218 135.113538 
L 634.644602 134.566223 
L 635.569987 128.334157 
L 636.495371 125.455126 
L 637.420755 125.628307 
L 640.196908 133.822757 
L 641.122293 135.74048 
L 642.047677 139.69059 
L 642.973061 138.075582 
L 643.898446 136.739632 
L 646.674599 127.709454 
L 647.599983 127.003903 
L 648.525368 118.554046 
L 649.450752 118.029745 
L 650.376136 111.482108 
L 653.152289 115.813175 
L 654.077674 107.615452 
L 655.003058 109.448058 
L 655.928443 113.977098 
L 656.853827 103.072197 
L 660.555364 100.421352 
L 661.480749 100.099187 
L 662.406133 104.392217 
L 663.331517 105.252566 
L 666.10767 110.790556 
L 667.033055 113.294076 
L 667.958439 125.279144 
L 668.883824 128.344815 
L 669.809208 125.224862 
L 672.585361 128.159765 
L 673.510745 130.221116 
L 674.43613 132.728481 
L 675.361514 127.418175 
L 676.286898 126.69372 
L 679.063051 117.191108 
L 679.988436 113.414821 
L 680.91382 116.694223 
L 681.839205 110.483861 
L 682.764589 112.087434 
L 685.540742 108.86379 
L 686.466126 108.737762 
L 687.391511 110.571752 
L 688.316895 109.701658 
L 689.242279 113.237526 
L 692.018432 110.132847 
L 692.943817 115.320907 
L 693.869201 116.725365 
L 694.794586 121.656728 
L 695.71997 123.015363 
L 698.496123 114.703345 
L 699.421507 122.612257 
L 700.346892 126.39256 
L 701.272276 137.488025 
L 702.19766 132.551243 
L 704.973814 132.610648 
L 705.899198 128.157784 
L 706.824582 121.726619 
L 707.749967 122.428096 
L 708.675351 119.867593 
L 711.451504 115.620822 
L 712.376888 117.823245 
L 713.302273 121.657826 
L 715.153041 115.257409 
L 717.929195 112.422884 
L 718.854579 121.166397 
L 720.705348 103.250063 
L 721.630732 102.574768 
L 724.406885 107.258713 
L 725.332269 106.384685 
L 726.257654 106.931577 
L 727.183038 110.62764 
L 728.108422 112.246093 
L 730.884576 91.318597 
L 731.80996 87.756118 
L 732.735344 78.610029 
L 733.660729 74.824088 
L 734.586113 74.607405 
L 737.362266 64.334451 
L 738.28765 64.316608 
L 739.213035 57.491114 
L 740.138419 70.352577 
L 741.063803 74.283343 
L 743.839957 76.723867 
L 744.765341 73.415217 
L 745.690725 78.738221 
L 746.61611 79.827597 
L 747.541494 82.923871 
L 750.317647 83.067478 
L 751.243031 73.842564 
L 752.168416 85.417736 
L 753.0938 89.518661 
L 754.019184 91.601903 
L 756.795338 101.768225 
L 757.720722 96.585834 
L 758.646106 119.779607 
L 759.571491 128.698089 
L 760.496875 132.453312 
L 763.273028 133.424876 
L 764.198412 133.460164 
L 765.123797 131.799907 
L 766.049181 136.727543 
L 766.974566 139.04563 
L 769.750719 141.161748 
L 770.676103 140.137051 
L 771.601487 136.283675 
L 772.526872 139.653263 
L 773.452256 138.559662 
L 776.228409 144.791119 
L 777.153793 138.931899 
L 778.079178 139.728881 
L 779.004562 141.032471 
L 779.929947 145.964565 
L 782.7061 148.064768 
L 783.631484 154.574325 
L 784.556868 156.176694 
L 785.482253 166.808107 
L 786.407637 166.806464 
L 789.18379 166.399944 
L 790.109174 167.164975 
L 791.034559 165.61519 
L 791.959943 160.368933 
L 792.885328 166.208834 
L 795.661481 165.05907 
L 796.586865 165.251831 
L 797.512249 167.029397 
L 798.437634 160.805384 
L 799.363018 166.193721 
L 802.139171 170.25176 
L 803.064555 168.099508 
L 803.98994 165.064183 
L 804.915324 165.242255 
L 805.840709 166.89254 
L 808.616862 169.727449 
L 809.542246 170.838587 
L 810.46763 171.605248 
L 811.393015 178.183064 
L 812.318399 179.33796 
L 815.094552 199.146725 
L 816.019936 198.903566 
L 816.945321 197.706067 
L 817.870705 201.515125 
L 818.79609 203.544074 
L 821.572243 201.085984 
L 823.423011 204.249864 
L 824.348396 208.700428 
L 825.27378 209.688562 
L 828.049933 209.42193 
L 828.975318 211.622711 
L 829.900702 213.282335 
L 830.826086 213.511584 
L 831.751471 213.159449 
L 834.527624 209.481851 
L 835.453008 213.095717 
L 836.378392 212.966731 
L 837.303777 211.613224 
L 838.229161 215.684031 
L 841.005314 219.875852 
L 841.930699 183.108289 
L 842.856083 184.53381 
L 843.781467 180.801119 
L 844.706852 180.87516 
L 847.483005 181.34693 
L 848.408389 183.320391 
L 849.333773 179.193834 
L 850.259158 175.736154 
L 851.184542 178.587823 
L 853.960695 179.220397 
L 854.88608 177.473747 
L 855.811464 178.013812 
L 856.736848 178.919073 
L 857.662233 180.497419 
L 860.438386 180.978041 
L 862.289154 169.229434 
L 863.214539 167.148679 
L 864.139923 165.692359 
L 866.916076 165.143097 
L 867.841461 162.094502 
L 868.766845 163.807285 
L 869.692229 165.781008 
L 870.617614 158.047346 
L 873.393767 157.438338 
L 874.319151 160.12729 
L 875.244535 164.311396 
L 876.16992 163.713868 
L 877.095304 165.139742 
L 879.871457 164.22995 
L 880.796842 169.720246 
L 881.722226 172.494056 
L 883.572995 172.801976 
L 886.349148 174.903487 
L 889.125301 168.890598 
L 890.050685 170.292853 
L 892.826838 161.035957 
L 893.752223 163.110505 
L 895.602991 159.143703 
L 896.528376 152.17989 
L 899.304529 210.578684 
L 900.229913 212.146758 
L 901.155297 215.704695 
L 902.080682 215.977695 
L 903.006066 217.448756 
L 905.782219 217.630082 
L 906.707604 220.394432 
L 907.632988 220.674894 
L 908.558372 223.511055 
L 909.483757 224.761285 
L 912.25991 223.721889 
L 913.185294 224.175594 
L 914.110678 223.947775 
L 915.036063 227.99395 
L 915.961447 226.233966 
L 918.7376 222.113319 
L 919.662985 220.305225 
L 920.588369 221.049746 
L 921.513753 221.090589 
L 922.439138 221.451835 
L 925.215291 225.239403 
L 926.140675 226.970264 
L 927.066059 211.507414 
L 927.991444 216.359894 
L 928.916828 214.31602 
L 931.692981 216.4667 
L 932.618366 216.600447 
L 933.54375 218.379917 
L 934.469134 219.89963 
L 935.394519 216.888759 
L 938.170672 215.2184 
L 939.096056 212.298249 
L 940.021441 213.84078 
L 940.946825 213.413402 
L 941.872209 217.135257 
L 944.648362 217.502671 
L 945.573747 218.211814 
L 946.499131 220.407264 
L 947.424515 219.356639 
L 948.3499 220.325699 
L 951.126053 216.720668 
L 952.051437 220.468296 
L 952.976822 220.503808 
L 953.902206 219.534977 
L 954.82759 222.561705 
L 957.603743 209.175382 
L 958.529128 207.87019 
L 959.454512 209.340605 
L 960.379896 203.672197 
L 961.305281 201.932139 
L 964.081434 204.594027 
L 965.006818 202.670866 
L 965.932203 199.161981 
L 966.857587 193.738275 
L 967.782971 195.245734 
L 970.559124 192.031275 
L 971.484509 191.27118 
L 972.409893 191.193242 
L 973.335277 190.352733 
L 974.260662 189.802371 
L 977.036815 187.645769 
L 977.962199 189.338636 
L 978.887584 190.640415 
L 979.812968 195.663289 
L 980.738352 198.817961 
L 983.514505 207.083761 
L 984.43989 205.236885 
L 985.365274 203.730587 
L 986.290658 207.362671 
L 987.216043 204.761311 
L 989.992196 203.610454 
L 990.91758 205.315349 
L 991.842965 204.8239 
L 992.768349 206.444013 
L 993.693733 203.936251 
L 996.469886 205.651619 
L 997.395271 206.475277 
L 998.320655 205.317256 
L 999.246039 210.871869 
L 1000.171424 214.613432 
L 1002.947577 215.929261 
L 1003.872961 216.15102 
L 1004.798346 216.224092 
L 1005.72373 213.294023 
L 1006.649114 214.935873 
L 1010.350652 216.90413 
L 1011.276036 215.410262 
L 1012.20142 204.647597 
L 1013.126805 203.192879 
L 1015.902958 205.746162 
L 1016.828342 204.987311 
L 1017.753727 200.620983 
L 1018.679111 202.490692 
L 1019.604495 203.346921 
L 1022.380648 199.727872 
L 1023.306033 195.398549 
L 1024.231417 194.579913 
L 1025.156801 195.882797 
L 1026.082186 198.149169 
L 1028.858339 194.649204 
L 1029.783723 198.3943 
L 1030.709108 201.242638 
L 1031.634492 200.411025 
L 1032.559876 200.000756 
L 1035.336029 195.17195 
L 1036.261414 187.435869 
L 1037.186798 188.326619 
L 1038.112182 185.357973 
L 1039.037567 188.181643 
L 1041.81372 221.849053 
L 1042.739104 221.309607 
L 1043.664489 221.862901 
L 1044.589873 221.600522 
L 1045.515257 226.112051 
L 1048.29141 224.410796 
L 1049.216795 225.32792 
L 1050.142179 225.40896 
L 1051.067564 224.633023 
L 1051.992948 222.844978 
L 1054.769101 225.974557 
L 1055.694485 226.197577 
L 1056.61987 227.937535 
L 1057.545254 228.415961 
L 1058.470638 230.869261 
L 1061.246791 228.881205 
L 1062.172176 232.143218 
L 1063.09756 231.233188 
L 1064.022945 230.93391 
L 1064.948329 230.474742 
L 1067.724482 231.452913 
L 1068.649866 200.471395 
L 1069.575251 200.447742 
L 1070.500635 200.663241 
L 1071.426019 201.111731 
L 1074.202172 204.171066 
L 1076.052941 201.354631 
L 1076.978326 200.797541 
L 1077.90371 199.605927 
L 1081.605247 193.638076 
L 1082.530632 195.001812 
L 1083.456016 195.226554 
L 1084.3814 194.54495 
L 1087.157553 195.57614 
L 1088.082938 192.888349 
L 1089.008322 196.22327 
L 1089.933707 196.115496 
L 1090.859091 192.720801 
L 1090.859091 192.720801 
" style="fill:none;stroke:#2ca02c;stroke-linecap:square;stroke-width:1.5;"/>
   </g>
   <g id="patch_3">
    <path d="M 33.7 273.56 
L 33.7 25.92 
" style="fill:none;stroke:#000000;stroke-linecap:square;stroke-linejoin:miter;stroke-width:0.8;"/>
   </g>
   <g id="patch_4">
    <path d="M 1141.2 273.56 
L 1141.2 25.92 
" style="fill:none;stroke:#000000;stroke-linecap:square;stroke-linejoin:miter;stroke-width:0.8;"/>
   </g>
   <g id="patch_5">
    <path d="M 33.7 273.56 
L 1141.2 273.56 
" style="fill:none;stroke:#000000;stroke-linecap:square;stroke-linejoin:miter;stroke-width:0.8;"/>
   </g>
   <g id="patch_6">
    <path d="M 33.7 25.92 
L 1141.2 25.92 
" style="fill:none;stroke:#000000;stroke-linecap:square;stroke-linejoin:miter;stroke-width:0.8;"/>
   </g>
   <g id="text_12">
    <!-- Net Value: (2010-02-01 ~ 2013-01-25) -->
    <g transform="translate(471.3425 19.92)scale(0.12 -0.12)">
     <defs>
      <path d="M 9.8125 72.90625 
L 23.09375 72.90625 
L 55.421875 11.921875 
L 55.421875 72.90625 
L 64.984375 72.90625 
L 64.984375 0 
L 51.703125 0 
L 19.390625 60.984375 
L 19.390625 0 
L 9.8125 0 
z
" id="DejaVuSans-78"/>
      <path d="M 56.203125 29.59375 
L 56.203125 25.203125 
L 14.890625 25.203125 
Q 15.484375 15.921875 20.484375 11.0625 
Q 25.484375 6.203125 34.421875 6.203125 
Q 39.59375 6.203125 44.453125 7.46875 
Q 49.3125 8.734375 54.109375 11.28125 
L 54.109375 2.78125 
Q 49.265625 0.734375 44.1875 -0.34375 
Q 39.109375 -1.421875 33.890625 -1.421875 
Q 20.796875 -1.421875 13.15625 6.1875 
Q 5.515625 13.8125 5.515625 26.8125 
Q 5.515625 40.234375 12.765625 48.109375 
Q 20.015625 56 32.328125 56 
Q 43.359375 56 49.78125 48.890625 
Q 56.203125 41.796875 56.203125 29.59375 
z
M 47.21875 32.234375 
Q 47.125 39.59375 43.09375 43.984375 
Q 39.0625 48.390625 32.421875 48.390625 
Q 24.90625 48.390625 20.390625 44.140625 
Q 15.875 39.890625 15.1875 32.171875 
z
" id="DejaVuSans-101"/>
      <path d="M 18.3125 70.21875 
L 18.3125 54.6875 
L 36.8125 54.6875 
L 36.8125 47.703125 
L 18.3125 47.703125 
L 18.3125 18.015625 
Q 18.3125 11.328125 20.140625 9.421875 
Q 21.96875 7.515625 27.59375 7.515625 
L 36.8125 7.515625 
L 36.8125 0 
L 27.59375 0 
Q 17.1875 0 13.234375 3.875 
Q 9.28125 7.765625 9.28125 18.015625 
L 9.28125 47.703125 
L 2.6875 47.703125 
L 2.6875 54.6875 
L 9.28125 54.6875 
L 9.28125 70.21875 
z
" id="DejaVuSans-116"/>
      <path id="DejaVuSans-32"/>
      <path d="M 28.609375 0 
L 0.78125 72.90625 
L 11.078125 72.90625 
L 34.1875 11.53125 
L 57.328125 72.90625 
L 67.578125 72.90625 
L 39.796875 0 
z
" id="DejaVuSans-86"/>
      <path d="M 34.28125 27.484375 
Q 23.390625 27.484375 19.1875 25 
Q 14.984375 22.515625 14.984375 16.5 
Q 14.984375 11.71875 18.140625 8.90625 
Q 21.296875 6.109375 26.703125 6.109375 
Q 34.1875 6.109375 38.703125 11.40625 
Q 43.21875 16.703125 43.21875 25.484375 
L 43.21875 27.484375 
z
M 52.203125 31.203125 
L 52.203125 0 
L 43.21875 0 
L 43.21875 8.296875 
Q 40.140625 3.328125 35.546875 0.953125 
Q 30.953125 -1.421875 24.3125 -1.421875 
Q 15.921875 -1.421875 10.953125 3.296875 
Q 6 8.015625 6 15.921875 
Q 6 25.140625 12.171875 29.828125 
Q 18.359375 34.515625 30.609375 34.515625 
L 43.21875 34.515625 
L 43.21875 35.40625 
Q 43.21875 41.609375 39.140625 45 
Q 35.0625 48.390625 27.6875 48.390625 
Q 23 48.390625 18.546875 47.265625 
Q 14.109375 46.140625 10.015625 43.890625 
L 10.015625 52.203125 
Q 14.9375 54.109375 19.578125 55.046875 
Q 24.21875 56 28.609375 56 
Q 40.484375 56 46.34375 49.84375 
Q 52.203125 43.703125 52.203125 31.203125 
z
" id="DejaVuSans-97"/>
      <path d="M 9.421875 75.984375 
L 18.40625 75.984375 
L 18.40625 0 
L 9.421875 0 
z
" id="DejaVuSans-108"/>
      <path d="M 8.5 21.578125 
L 8.5 54.6875 
L 17.484375 54.6875 
L 17.484375 21.921875 
Q 17.484375 14.15625 20.5 10.265625 
Q 23.53125 6.390625 29.59375 6.390625 
Q 36.859375 6.390625 41.078125 11.03125 
Q 45.3125 15.671875 45.3125 23.6875 
L 45.3125 54.6875 
L 54.296875 54.6875 
L 54.296875 0 
L 45.3125 0 
L 45.3125 8.40625 
Q 42.046875 3.421875 37.71875 1 
Q 33.40625 -1.421875 27.6875 -1.421875 
Q 18.265625 -1.421875 13.375 4.4375 
Q 8.5 10.296875 8.5 21.578125 
z
M 31.109375 56 
z
" id="DejaVuSans-117"/>
      <path d="M 11.71875 12.40625 
L 22.015625 12.40625 
L 22.015625 0 
L 11.71875 0 
z
M 11.71875 51.703125 
L 22.015625 51.703125 
L 22.015625 39.3125 
L 11.71875 39.3125 
z
" id="DejaVuSans-58"/>
      <path d="M 31 75.875 
Q 24.46875 64.65625 21.28125 53.65625 
Q 18.109375 42.671875 18.109375 31.390625 
Q 18.109375 20.125 21.3125 9.0625 
Q 24.515625 -2 31 -13.1875 
L 23.1875 -13.1875 
Q 15.875 -1.703125 12.234375 9.375 
Q 8.59375 20.453125 8.59375 31.390625 
Q 8.59375 42.28125 12.203125 53.3125 
Q 15.828125 64.359375 23.1875 75.875 
z
" id="DejaVuSans-40"/>
      <path d="M 4.890625 31.390625 
L 31.203125 31.390625 
L 31.203125 23.390625 
L 4.890625 23.390625 
z
" id="DejaVuSans-45"/>
      <path d="M 73.1875 39.890625 
L 73.1875 31.203125 
Q 68.0625 27.34375 63.6875 25.6875 
Q 59.328125 24.03125 54.59375 24.03125 
Q 49.21875 24.03125 42.09375 26.90625 
Q 41.546875 27.09375 41.3125 27.203125 
Q 40.96875 27.34375 40.234375 27.59375 
Q 32.671875 30.609375 28.078125 30.609375 
Q 23.78125 30.609375 19.578125 28.734375 
Q 15.375 26.859375 10.59375 22.796875 
L 10.59375 31.5 
Q 15.71875 35.359375 20.09375 37.03125 
Q 24.46875 38.71875 29.203125 38.71875 
Q 34.578125 38.71875 41.75 35.796875 
Q 42.234375 35.59375 42.484375 35.5 
Q 42.875 35.359375 43.5625 35.109375 
Q 51.125 32.078125 55.71875 32.078125 
Q 59.90625 32.078125 64.03125 33.9375 
Q 68.171875 35.796875 73.1875 39.890625 
z
" id="DejaVuSans-126"/>
      <path d="M 8.015625 75.875 
L 15.828125 75.875 
Q 23.140625 64.359375 26.78125 53.3125 
Q 30.421875 42.28125 30.421875 31.390625 
Q 30.421875 20.453125 26.78125 9.375 
Q 23.140625 -1.703125 15.828125 -13.1875 
L 8.015625 -13.1875 
Q 14.5 -2 17.703125 9.0625 
Q 20.90625 20.125 20.90625 31.390625 
Q 20.90625 42.671875 17.703125 53.65625 
Q 14.5 64.65625 8.015625 75.875 
z
" id="DejaVuSans-41"/>
     </defs>
     <use xlink:href="#DejaVuSans-78"/>
     <use x="74.804688" xlink:href="#DejaVuSans-101"/>
     <use x="136.328125" xlink:href="#DejaVuSans-116"/>
     <use x="175.537109" xlink:href="#DejaVuSans-32"/>
     <use x="207.324219" xlink:href="#DejaVuSans-86"/>
     <use x="267.982422" xlink:href="#DejaVuSans-97"/>
     <use x="329.261719" xlink:href="#DejaVuSans-108"/>
     <use x="357.044922" xlink:href="#DejaVuSans-117"/>
     <use x="420.423828" xlink:href="#DejaVuSans-101"/>
     <use x="481.947266" xlink:href="#DejaVuSans-58"/>
     <use x="515.638672" xlink:href="#DejaVuSans-32"/>
     <use x="547.425781" xlink:href="#DejaVuSans-40"/>
     <use x="586.439453" xlink:href="#DejaVuSans-50"/>
     <use x="650.0625" xlink:href="#DejaVuSans-48"/>
     <use x="713.685547" xlink:href="#DejaVuSans-49"/>
     <use x="777.308594" xlink:href="#DejaVuSans-48"/>
     <use x="840.931641" xlink:href="#DejaVuSans-45"/>
     <use x="877.015625" xlink:href="#DejaVuSans-48"/>
     <use x="940.638672" xlink:href="#DejaVuSans-50"/>
     <use x="1004.261719" xlink:href="#DejaVuSans-45"/>
     <use x="1040.345703" xlink:href="#DejaVuSans-48"/>
     <use x="1103.96875" xlink:href="#DejaVuSans-49"/>
     <use x="1167.591797" xlink:href="#DejaVuSans-32"/>
     <use x="1199.378906" xlink:href="#DejaVuSans-126"/>
     <use x="1283.167969" xlink:href="#DejaVuSans-32"/>
     <use x="1314.955078" xlink:href="#DejaVuSans-50"/>
     <use x="1378.578125" xlink:href="#DejaVuSans-48"/>
     <use x="1442.201172" xlink:href="#DejaVuSans-49"/>
     <use x="1505.824219" xlink:href="#DejaVuSans-51"/>
     <use x="1569.447266" xlink:href="#DejaVuSans-45"/>
     <use x="1605.53125" xlink:href="#DejaVuSans-48"/>
     <use x="1669.154297" xlink:href="#DejaVuSans-49"/>
     <use x="1732.777344" xlink:href="#DejaVuSans-45"/>
     <use x="1768.861328" xlink:href="#DejaVuSans-50"/>
     <use x="1832.484375" xlink:href="#DejaVuSans-53"/>
     <use x="1896.107422" xlink:href="#DejaVuSans-41"/>
    </g>
   </g>
   <g id="legend_1">
    <g id="patch_7">
     <path d="M 40.7 77.954375 
L 129.145312 77.954375 
Q 131.145312 77.954375 131.145312 75.954375 
L 131.145312 32.92 
Q 131.145312 30.92 129.145312 30.92 
L 40.7 30.92 
Q 38.7 30.92 38.7 32.92 
L 38.7 75.954375 
Q 38.7 77.954375 40.7 77.954375 
z
" style="fill:#ffffff;opacity:0.8;stroke:#cccccc;stroke-linejoin:miter;"/>
    </g>
    <g id="line2d_26">
     <path d="M 42.7 39.018437 
L 62.7 39.018437 
" style="fill:none;stroke:#1f77b4;stroke-linecap:square;stroke-width:1.5;"/>
    </g>
    <g id="line2d_27"/>
    <g id="text_13">
     <!-- strategy -->
     <g transform="translate(70.7 42.518437)scale(0.1 -0.1)">
      <defs>
       <path d="M 44.28125 53.078125 
L 44.28125 44.578125 
Q 40.484375 46.53125 36.375 47.5 
Q 32.28125 48.484375 27.875 48.484375 
Q 21.1875 48.484375 17.84375 46.4375 
Q 14.5 44.390625 14.5 40.28125 
Q 14.5 37.15625 16.890625 35.375 
Q 19.28125 33.59375 26.515625 31.984375 
L 29.59375 31.296875 
Q 39.15625 29.25 43.1875 25.515625 
Q 47.21875 21.78125 47.21875 15.09375 
Q 47.21875 7.46875 41.1875 3.015625 
Q 35.15625 -1.421875 24.609375 -1.421875 
Q 20.21875 -1.421875 15.453125 -0.5625 
Q 10.6875 0.296875 5.421875 2 
L 5.421875 11.28125 
Q 10.40625 8.6875 15.234375 7.390625 
Q 20.0625 6.109375 24.8125 6.109375 
Q 31.15625 6.109375 34.5625 8.28125 
Q 37.984375 10.453125 37.984375 14.40625 
Q 37.984375 18.0625 35.515625 20.015625 
Q 33.0625 21.96875 24.703125 23.78125 
L 21.578125 24.515625 
Q 13.234375 26.265625 9.515625 29.90625 
Q 5.8125 33.546875 5.8125 39.890625 
Q 5.8125 47.609375 11.28125 51.796875 
Q 16.75 56 26.8125 56 
Q 31.78125 56 36.171875 55.265625 
Q 40.578125 54.546875 44.28125 53.078125 
z
" id="DejaVuSans-115"/>
       <path d="M 41.109375 46.296875 
Q 39.59375 47.171875 37.8125 47.578125 
Q 36.03125 48 33.890625 48 
Q 26.265625 48 22.1875 43.046875 
Q 18.109375 38.09375 18.109375 28.8125 
L 18.109375 0 
L 9.078125 0 
L 9.078125 54.6875 
L 18.109375 54.6875 
L 18.109375 46.1875 
Q 20.953125 51.171875 25.484375 53.578125 
Q 30.03125 56 36.53125 56 
Q 37.453125 56 38.578125 55.875 
Q 39.703125 55.765625 41.0625 55.515625 
z
" id="DejaVuSans-114"/>
       <path d="M 45.40625 27.984375 
Q 45.40625 37.75 41.375 43.109375 
Q 37.359375 48.484375 30.078125 48.484375 
Q 22.859375 48.484375 18.828125 43.109375 
Q 14.796875 37.75 14.796875 27.984375 
Q 14.796875 18.265625 18.828125 12.890625 
Q 22.859375 7.515625 30.078125 7.515625 
Q 37.359375 7.515625 41.375 12.890625 
Q 45.40625 18.265625 45.40625 27.984375 
z
M 54.390625 6.78125 
Q 54.390625 -7.171875 48.1875 -13.984375 
Q 42 -20.796875 29.203125 -20.796875 
Q 24.46875 -20.796875 20.265625 -20.09375 
Q 16.0625 -19.390625 12.109375 -17.921875 
L 12.109375 -9.1875 
Q 16.0625 -11.328125 19.921875 -12.34375 
Q 23.78125 -13.375 27.78125 -13.375 
Q 36.625 -13.375 41.015625 -8.765625 
Q 45.40625 -4.15625 45.40625 5.171875 
L 45.40625 9.625 
Q 42.625 4.78125 38.28125 2.390625 
Q 33.9375 0 27.875 0 
Q 17.828125 0 11.671875 7.65625 
Q 5.515625 15.328125 5.515625 27.984375 
Q 5.515625 40.671875 11.671875 48.328125 
Q 17.828125 56 27.875 56 
Q 33.9375 56 38.28125 53.609375 
Q 42.625 51.21875 45.40625 46.390625 
L 45.40625 54.6875 
L 54.390625 54.6875 
z
" id="DejaVuSans-103"/>
       <path d="M 32.171875 -5.078125 
Q 28.375 -14.84375 24.75 -17.8125 
Q 21.140625 -20.796875 15.09375 -20.796875 
L 7.90625 -20.796875 
L 7.90625 -13.28125 
L 13.1875 -13.28125 
Q 16.890625 -13.28125 18.9375 -11.515625 
Q 21 -9.765625 23.484375 -3.21875 
L 25.09375 0.875 
L 2.984375 54.6875 
L 12.5 54.6875 
L 29.59375 11.921875 
L 46.6875 54.6875 
L 56.203125 54.6875 
z
" id="DejaVuSans-121"/>
      </defs>
      <use xlink:href="#DejaVuSans-115"/>
      <use x="52.099609" xlink:href="#DejaVuSans-116"/>
      <use x="91.308594" xlink:href="#DejaVuSans-114"/>
      <use x="132.421875" xlink:href="#DejaVuSans-97"/>
      <use x="193.701172" xlink:href="#DejaVuSans-116"/>
      <use x="232.910156" xlink:href="#DejaVuSans-101"/>
      <use x="294.433594" xlink:href="#DejaVuSans-103"/>
      <use x="357.910156" xlink:href="#DejaVuSans-121"/>
     </g>
    </g>
    <g id="line2d_28">
     <path d="M 42.7 53.696562 
L 62.7 53.696562 
" style="fill:none;stroke:#ff7f0e;stroke-linecap:square;stroke-width:1.5;"/>
    </g>
    <g id="line2d_29"/>
    <g id="text_14">
     <!-- benchmark -->
     <g transform="translate(70.7 57.196562)scale(0.1 -0.1)">
      <defs>
       <path d="M 48.6875 27.296875 
Q 48.6875 37.203125 44.609375 42.84375 
Q 40.53125 48.484375 33.40625 48.484375 
Q 26.265625 48.484375 22.1875 42.84375 
Q 18.109375 37.203125 18.109375 27.296875 
Q 18.109375 17.390625 22.1875 11.75 
Q 26.265625 6.109375 33.40625 6.109375 
Q 40.53125 6.109375 44.609375 11.75 
Q 48.6875 17.390625 48.6875 27.296875 
z
M 18.109375 46.390625 
Q 20.953125 51.265625 25.265625 53.625 
Q 29.59375 56 35.59375 56 
Q 45.5625 56 51.78125 48.09375 
Q 58.015625 40.1875 58.015625 27.296875 
Q 58.015625 14.40625 51.78125 6.484375 
Q 45.5625 -1.421875 35.59375 -1.421875 
Q 29.59375 -1.421875 25.265625 0.953125 
Q 20.953125 3.328125 18.109375 8.203125 
L 18.109375 0 
L 9.078125 0 
L 9.078125 75.984375 
L 18.109375 75.984375 
z
" id="DejaVuSans-98"/>
       <path d="M 54.890625 33.015625 
L 54.890625 0 
L 45.90625 0 
L 45.90625 32.71875 
Q 45.90625 40.484375 42.875 44.328125 
Q 39.84375 48.1875 33.796875 48.1875 
Q 26.515625 48.1875 22.3125 43.546875 
Q 18.109375 38.921875 18.109375 30.90625 
L 18.109375 0 
L 9.078125 0 
L 9.078125 54.6875 
L 18.109375 54.6875 
L 18.109375 46.1875 
Q 21.34375 51.125 25.703125 53.5625 
Q 30.078125 56 35.796875 56 
Q 45.21875 56 50.046875 50.171875 
Q 54.890625 44.34375 54.890625 33.015625 
z
" id="DejaVuSans-110"/>
       <path d="M 48.78125 52.59375 
L 48.78125 44.1875 
Q 44.96875 46.296875 41.140625 47.34375 
Q 37.3125 48.390625 33.40625 48.390625 
Q 24.65625 48.390625 19.8125 42.84375 
Q 14.984375 37.3125 14.984375 27.296875 
Q 14.984375 17.28125 19.8125 11.734375 
Q 24.65625 6.203125 33.40625 6.203125 
Q 37.3125 6.203125 41.140625 7.25 
Q 44.96875 8.296875 48.78125 10.40625 
L 48.78125 2.09375 
Q 45.015625 0.34375 40.984375 -0.53125 
Q 36.96875 -1.421875 32.421875 -1.421875 
Q 20.0625 -1.421875 12.78125 6.34375 
Q 5.515625 14.109375 5.515625 27.296875 
Q 5.515625 40.671875 12.859375 48.328125 
Q 20.21875 56 33.015625 56 
Q 37.15625 56 41.109375 55.140625 
Q 45.0625 54.296875 48.78125 52.59375 
z
" id="DejaVuSans-99"/>
       <path d="M 54.890625 33.015625 
L 54.890625 0 
L 45.90625 0 
L 45.90625 32.71875 
Q 45.90625 40.484375 42.875 44.328125 
Q 39.84375 48.1875 33.796875 48.1875 
Q 26.515625 48.1875 22.3125 43.546875 
Q 18.109375 38.921875 18.109375 30.90625 
L 18.109375 0 
L 9.078125 0 
L 9.078125 75.984375 
L 18.109375 75.984375 
L 18.109375 46.1875 
Q 21.34375 51.125 25.703125 53.5625 
Q 30.078125 56 35.796875 56 
Q 45.21875 56 50.046875 50.171875 
Q 54.890625 44.34375 54.890625 33.015625 
z
" id="DejaVuSans-104"/>
       <path d="M 52 44.1875 
Q 55.375 50.25 60.0625 53.125 
Q 64.75 56 71.09375 56 
Q 79.640625 56 84.28125 50.015625 
Q 88.921875 44.046875 88.921875 33.015625 
L 88.921875 0 
L 79.890625 0 
L 79.890625 32.71875 
Q 79.890625 40.578125 77.09375 44.375 
Q 74.3125 48.1875 68.609375 48.1875 
Q 61.625 48.1875 57.5625 43.546875 
Q 53.515625 38.921875 53.515625 30.90625 
L 53.515625 0 
L 44.484375 0 
L 44.484375 32.71875 
Q 44.484375 40.625 41.703125 44.40625 
Q 38.921875 48.1875 33.109375 48.1875 
Q 26.21875 48.1875 22.15625 43.53125 
Q 18.109375 38.875 18.109375 30.90625 
L 18.109375 0 
L 9.078125 0 
L 9.078125 54.6875 
L 18.109375 54.6875 
L 18.109375 46.1875 
Q 21.1875 51.21875 25.484375 53.609375 
Q 29.78125 56 35.6875 56 
Q 41.65625 56 45.828125 52.96875 
Q 50 49.953125 52 44.1875 
z
" id="DejaVuSans-109"/>
       <path d="M 9.078125 75.984375 
L 18.109375 75.984375 
L 18.109375 31.109375 
L 44.921875 54.6875 
L 56.390625 54.6875 
L 27.390625 29.109375 
L 57.625 0 
L 45.90625 0 
L 18.109375 26.703125 
L 18.109375 0 
L 9.078125 0 
z
" id="DejaVuSans-107"/>
      </defs>
      <use xlink:href="#DejaVuSans-98"/>
      <use x="63.476562" xlink:href="#DejaVuSans-101"/>
      <use x="125" xlink:href="#DejaVuSans-110"/>
      <use x="188.378906" xlink:href="#DejaVuSans-99"/>
      <use x="243.359375" xlink:href="#DejaVuSans-104"/>
      <use x="306.738281" xlink:href="#DejaVuSans-109"/>
      <use x="404.150391" xlink:href="#DejaVuSans-97"/>
      <use x="465.429688" xlink:href="#DejaVuSans-114"/>
      <use x="506.542969" xlink:href="#DejaVuSans-107"/>
     </g>
    </g>
    <g id="line2d_30">
     <path d="M 42.7 68.374687 
L 62.7 68.374687 
" style="fill:none;stroke:#2ca02c;stroke-linecap:square;stroke-width:1.5;"/>
    </g>
    <g id="line2d_31"/>
    <g id="text_15">
     <!-- excess -->
     <g transform="translate(70.7 71.874687)scale(0.1 -0.1)">
      <defs>
       <path d="M 54.890625 54.6875 
L 35.109375 28.078125 
L 55.90625 0 
L 45.3125 0 
L 29.390625 21.484375 
L 13.484375 0 
L 2.875 0 
L 24.125 28.609375 
L 4.6875 54.6875 
L 15.28125 54.6875 
L 29.78125 35.203125 
L 44.28125 54.6875 
z
" id="DejaVuSans-120"/>
      </defs>
      <use xlink:href="#DejaVuSans-101"/>
      <use x="59.773438" xlink:href="#DejaVuSans-120"/>
      <use x="117.203125" xlink:href="#DejaVuSans-99"/>
      <use x="172.183594" xlink:href="#DejaVuSans-101"/>
      <use x="233.707031" xlink:href="#DejaVuSans-115"/>
      <use x="285.806641" xlink:href="#DejaVuSans-115"/>
     </g>
    </g>
   </g>
  </g>
 </g>
 <defs>
  <clipPath id="pd9cf540724">
   <rect height="247.64" width="1107.5" x="33.7" y="25.92"/>
  </clipPath>
 </defs>
</svg>
