<?xml version="1.0" encoding="utf-8" standalone="no"?>
<!DOCTYPE svg PUBLIC "-//W3C//DTD SVG 1.1//EN"
  "http://www.w3.org/Graphics/SVG/1.1/DTD/svg11.dtd">
<!-- Created with matplotlib (https://matplotlib.org/) -->
<svg height="316.8pt" version="1.1" viewBox="0 0 1152 316.8" width="1152pt" xmlns="http://www.w3.org/2000/svg" xmlns:xlink="http://www.w3.org/1999/xlink">
 <metadata>
  <rdf:RDF xmlns:cc="http://creativecommons.org/ns#" xmlns:dc="http://purl.org/dc/elements/1.1/" xmlns:rdf="http://www.w3.org/1999/02/22-rdf-syntax-ns#">
   <cc:Work>
    <dc:type rdf:resource="http://purl.org/dc/dcmitype/StillImage"/>
    <dc:date>2023-07-20T10:57:55.220652</dc:date>
    <dc:format>image/svg+xml</dc:format>
    <dc:creator>
     <cc:Agent>
      <dc:title>Matplotlib v3.3.4, https://matplotlib.org/</dc:title>
     </cc:Agent>
    </dc:creator>
   </cc:Work>
  </rdf:RDF>
 </metadata>
 <defs>
  <style type="text/css">*{stroke-linecap:butt;stroke-linejoin:round;}</style>
 </defs>
 <g id="figure_1">
  <g id="patch_1">
   <path d="M 0 316.8 
L 1152 316.8 
L 1152 0 
L 0 0 
z
" style="fill:#ffffff;"/>
  </g>
  <g id="axes_1">
   <g id="patch_2">
    <path d="M 33.7 273.56 
L 1141.2 273.56 
L 1141.2 25.92 
L 33.7 25.92 
z
" style="fill:#ffffff;"/>
   </g>
   <g id="matplotlib.axis_1">
    <g id="xtick_1">
     <g id="line2d_1">
      <path clip-path="url(#p3685fb175d)" d="M 54.42861 273.56 
L 54.42861 25.92 
" style="fill:none;stroke:#b0b0b0;stroke-linecap:square;stroke-width:0.8;"/>
     </g>
     <g id="line2d_2">
      <defs>
       <path d="M 0 0 
L 0 3.5 
" id="m99e5055947" style="stroke:#000000;stroke-width:0.8;"/>
      </defs>
      <g>
       <use style="stroke:#000000;stroke-width:0.8;" x="54.42861" xlink:href="#m99e5055947" y="273.56"/>
      </g>
     </g>
     <g id="text_1">
      <!-- 2010 -->
      <g transform="translate(57.187985 306.01)rotate(-90)scale(0.1 -0.1)">
       <defs>
        <path d="M 19.1875 8.296875 
L 53.609375 8.296875 
L 53.609375 0 
L 7.328125 0 
L 7.328125 8.296875 
Q 12.9375 14.109375 22.625 23.890625 
Q 32.328125 33.6875 34.8125 36.53125 
Q 39.546875 41.84375 41.421875 45.53125 
Q 43.3125 49.21875 43.3125 52.78125 
Q 43.3125 58.59375 39.234375 62.25 
Q 35.15625 65.921875 28.609375 65.921875 
Q 23.96875 65.921875 18.8125 64.3125 
Q 13.671875 62.703125 7.8125 59.421875 
L 7.8125 69.390625 
Q 13.765625 71.78125 18.9375 73 
Q 24.125 74.21875 28.421875 74.21875 
Q 39.75 74.21875 46.484375 68.546875 
Q 53.21875 62.890625 53.21875 53.421875 
Q 53.21875 48.921875 51.53125 44.890625 
Q 49.859375 40.875 45.40625 35.40625 
Q 44.1875 33.984375 37.640625 27.21875 
Q 31.109375 20.453125 19.1875 8.296875 
z
" id="DejaVuSans-50"/>
        <path d="M 31.78125 66.40625 
Q 24.171875 66.40625 20.328125 58.90625 
Q 16.5 51.421875 16.5 36.375 
Q 16.5 21.390625 20.328125 13.890625 
Q 24.171875 6.390625 31.78125 6.390625 
Q 39.453125 6.390625 43.28125 13.890625 
Q 47.125 21.390625 47.125 36.375 
Q 47.125 51.421875 43.28125 58.90625 
Q 39.453125 66.40625 31.78125 66.40625 
z
M 31.78125 74.21875 
Q 44.046875 74.21875 50.515625 64.515625 
Q 56.984375 54.828125 56.984375 36.375 
Q 56.984375 17.96875 50.515625 8.265625 
Q 44.046875 -1.421875 31.78125 -1.421875 
Q 19.53125 -1.421875 13.0625 8.265625 
Q 6.59375 17.96875 6.59375 36.375 
Q 6.59375 54.828125 13.0625 64.515625 
Q 19.53125 74.21875 31.78125 74.21875 
z
" id="DejaVuSans-48"/>
        <path d="M 12.40625 8.296875 
L 28.515625 8.296875 
L 28.515625 63.921875 
L 10.984375 60.40625 
L 10.984375 69.390625 
L 28.421875 72.90625 
L 38.28125 72.90625 
L 38.28125 8.296875 
L 54.390625 8.296875 
L 54.390625 0 
L 12.40625 0 
z
" id="DejaVuSans-49"/>
       </defs>
       <use xlink:href="#DejaVuSans-50"/>
       <use x="63.623047" xlink:href="#DejaVuSans-48"/>
       <use x="127.246094" xlink:href="#DejaVuSans-49"/>
       <use x="190.869141" xlink:href="#DejaVuSans-48"/>
      </g>
     </g>
    </g>
    <g id="xtick_2">
     <g id="line2d_3">
      <path clip-path="url(#p3685fb175d)" d="M 392.1939 273.56 
L 392.1939 25.92 
" style="fill:none;stroke:#b0b0b0;stroke-linecap:square;stroke-width:0.8;"/>
     </g>
     <g id="line2d_4">
      <g>
       <use style="stroke:#000000;stroke-width:0.8;" x="392.1939" xlink:href="#m99e5055947" y="273.56"/>
      </g>
     </g>
     <g id="text_2">
      <!-- 2011 -->
      <g transform="translate(394.953275 306.01)rotate(-90)scale(0.1 -0.1)">
       <use xlink:href="#DejaVuSans-50"/>
       <use x="63.623047" xlink:href="#DejaVuSans-48"/>
       <use x="127.246094" xlink:href="#DejaVuSans-49"/>
       <use x="190.869141" xlink:href="#DejaVuSans-49"/>
      </g>
     </g>
    </g>
    <g id="xtick_3">
     <g id="line2d_5">
      <path clip-path="url(#p3685fb175d)" d="M 729.959191 273.56 
L 729.959191 25.92 
" style="fill:none;stroke:#b0b0b0;stroke-linecap:square;stroke-width:0.8;"/>
     </g>
     <g id="line2d_6">
      <g>
       <use style="stroke:#000000;stroke-width:0.8;" x="729.959191" xlink:href="#m99e5055947" y="273.56"/>
      </g>
     </g>
     <g id="text_3">
      <!-- 2012 -->
      <g transform="translate(732.718566 306.01)rotate(-90)scale(0.1 -0.1)">
       <use xlink:href="#DejaVuSans-50"/>
       <use x="63.623047" xlink:href="#DejaVuSans-48"/>
       <use x="127.246094" xlink:href="#DejaVuSans-49"/>
       <use x="190.869141" xlink:href="#DejaVuSans-50"/>
      </g>
     </g>
    </g>
    <g id="xtick_4">
     <g id="line2d_7">
      <path clip-path="url(#p3685fb175d)" d="M 1068.649866 273.56 
L 1068.649866 25.92 
" style="fill:none;stroke:#b0b0b0;stroke-linecap:square;stroke-width:0.8;"/>
     </g>
     <g id="line2d_8">
      <g>
       <use style="stroke:#000000;stroke-width:0.8;" x="1068.649866" xlink:href="#m99e5055947" y="273.56"/>
      </g>
     </g>
     <g id="text_4">
      <!-- 2013 -->
      <g transform="translate(1071.409241 306.01)rotate(-90)scale(0.1 -0.1)">
       <defs>
        <path d="M 40.578125 39.3125 
Q 47.65625 37.796875 51.625 33 
Q 55.609375 28.21875 55.609375 21.1875 
Q 55.609375 10.40625 48.1875 4.484375 
Q 40.765625 -1.421875 27.09375 -1.421875 
Q 22.515625 -1.421875 17.65625 -0.515625 
Q 12.796875 0.390625 7.625 2.203125 
L 7.625 11.71875 
Q 11.71875 9.328125 16.59375 8.109375 
Q 21.484375 6.890625 26.8125 6.890625 
Q 36.078125 6.890625 40.9375 10.546875 
Q 45.796875 14.203125 45.796875 21.1875 
Q 45.796875 27.640625 41.28125 31.265625 
Q 36.765625 34.90625 28.71875 34.90625 
L 20.21875 34.90625 
L 20.21875 43.015625 
L 29.109375 43.015625 
Q 36.375 43.015625 40.234375 45.921875 
Q 44.09375 48.828125 44.09375 54.296875 
Q 44.09375 59.90625 40.109375 62.90625 
Q 36.140625 65.921875 28.71875 65.921875 
Q 24.65625 65.921875 20.015625 65.03125 
Q 15.375 64.15625 9.8125 62.3125 
L 9.8125 71.09375 
Q 15.4375 72.65625 20.34375 73.4375 
Q 25.25 74.21875 29.59375 74.21875 
Q 40.828125 74.21875 47.359375 69.109375 
Q 53.90625 64.015625 53.90625 55.328125 
Q 53.90625 49.265625 50.4375 45.09375 
Q 46.96875 40.921875 40.578125 39.3125 
z
" id="DejaVuSans-51"/>
       </defs>
       <use xlink:href="#DejaVuSans-50"/>
       <use x="63.623047" xlink:href="#DejaVuSans-48"/>
       <use x="127.246094" xlink:href="#DejaVuSans-49"/>
       <use x="190.869141" xlink:href="#DejaVuSans-51"/>
      </g>
     </g>
    </g>
   </g>
   <g id="matplotlib.axis_2">
    <g id="ytick_1">
     <g id="line2d_9">
      <path clip-path="url(#p3685fb175d)" d="M 33.7 254.162788 
L 1141.2 254.162788 
" style="fill:none;stroke:#b0b0b0;stroke-linecap:square;stroke-width:0.8;"/>
     </g>
     <g id="line2d_10">
      <defs>
       <path d="M 0 0 
L -3.5 0 
" id="mfe00829e6a" style="stroke:#000000;stroke-width:0.8;"/>
      </defs>
      <g>
       <use style="stroke:#000000;stroke-width:0.8;" x="33.7" xlink:href="#mfe00829e6a" y="254.162788"/>
      </g>
     </g>
     <g id="text_5">
      <!-- 0.5 -->
      <g transform="translate(10.796875 257.962006)scale(0.1 -0.1)">
       <defs>
        <path d="M 10.6875 12.40625 
L 21 12.40625 
L 21 0 
L 10.6875 0 
z
" id="DejaVuSans-46"/>
        <path d="M 10.796875 72.90625 
L 49.515625 72.90625 
L 49.515625 64.59375 
L 19.828125 64.59375 
L 19.828125 46.734375 
Q 21.96875 47.46875 24.109375 47.828125 
Q 26.265625 48.1875 28.421875 48.1875 
Q 40.625 48.1875 47.75 41.5 
Q 54.890625 34.8125 54.890625 23.390625 
Q 54.890625 11.625 47.5625 5.09375 
Q 40.234375 -1.421875 26.90625 -1.421875 
Q 22.3125 -1.421875 17.546875 -0.640625 
Q 12.796875 0.140625 7.71875 1.703125 
L 7.71875 11.625 
Q 12.109375 9.234375 16.796875 8.0625 
Q 21.484375 6.890625 26.703125 6.890625 
Q 35.15625 6.890625 40.078125 11.328125 
Q 45.015625 15.765625 45.015625 23.390625 
Q 45.015625 31 40.078125 35.4375 
Q 35.15625 39.890625 26.703125 39.890625 
Q 22.75 39.890625 18.8125 39.015625 
Q 14.890625 38.140625 10.796875 36.28125 
z
" id="DejaVuSans-53"/>
       </defs>
       <use xlink:href="#DejaVuSans-48"/>
       <use x="63.623047" xlink:href="#DejaVuSans-46"/>
       <use x="95.410156" xlink:href="#DejaVuSans-53"/>
      </g>
     </g>
    </g>
    <g id="ytick_2">
     <g id="line2d_11">
      <path clip-path="url(#p3685fb175d)" d="M 33.7 204.474018 
L 1141.2 204.474018 
" style="fill:none;stroke:#b0b0b0;stroke-linecap:square;stroke-width:0.8;"/>
     </g>
     <g id="line2d_12">
      <g>
       <use style="stroke:#000000;stroke-width:0.8;" x="33.7" xlink:href="#mfe00829e6a" y="204.474018"/>
      </g>
     </g>
     <g id="text_6">
      <!-- 1.0 -->
      <g transform="translate(10.796875 208.273236)scale(0.1 -0.1)">
       <use xlink:href="#DejaVuSans-49"/>
       <use x="63.623047" xlink:href="#DejaVuSans-46"/>
       <use x="95.410156" xlink:href="#DejaVuSans-48"/>
      </g>
     </g>
    </g>
    <g id="ytick_3">
     <g id="line2d_13">
      <path clip-path="url(#p3685fb175d)" d="M 33.7 154.785248 
L 1141.2 154.785248 
" style="fill:none;stroke:#b0b0b0;stroke-linecap:square;stroke-width:0.8;"/>
     </g>
     <g id="line2d_14">
      <g>
       <use style="stroke:#000000;stroke-width:0.8;" x="33.7" xlink:href="#mfe00829e6a" y="154.785248"/>
      </g>
     </g>
     <g id="text_7">
      <!-- 1.5 -->
      <g transform="translate(10.796875 158.584466)scale(0.1 -0.1)">
       <use xlink:href="#DejaVuSans-49"/>
       <use x="63.623047" xlink:href="#DejaVuSans-46"/>
       <use x="95.410156" xlink:href="#DejaVuSans-53"/>
      </g>
     </g>
    </g>
    <g id="ytick_4">
     <g id="line2d_15">
      <path clip-path="url(#p3685fb175d)" d="M 33.7 105.096478 
L 1141.2 105.096478 
" style="fill:none;stroke:#b0b0b0;stroke-linecap:square;stroke-width:0.8;"/>
     </g>
     <g id="line2d_16">
      <g>
       <use style="stroke:#000000;stroke-width:0.8;" x="33.7" xlink:href="#mfe00829e6a" y="105.096478"/>
      </g>
     </g>
     <g id="text_8">
      <!-- 2.0 -->
      <g transform="translate(10.796875 108.895697)scale(0.1 -0.1)">
       <use xlink:href="#DejaVuSans-50"/>
       <use x="63.623047" xlink:href="#DejaVuSans-46"/>
       <use x="95.410156" xlink:href="#DejaVuSans-48"/>
      </g>
     </g>
    </g>
    <g id="ytick_5">
     <g id="line2d_17">
      <path clip-path="url(#p3685fb175d)" d="M 33.7 55.407708 
L 1141.2 55.407708 
" style="fill:none;stroke:#b0b0b0;stroke-linecap:square;stroke-width:0.8;"/>
     </g>
     <g id="line2d_18">
      <g>
       <use style="stroke:#000000;stroke-width:0.8;" x="33.7" xlink:href="#mfe00829e6a" y="55.407708"/>
      </g>
     </g>
     <g id="text_9">
      <!-- 2.5 -->
      <g transform="translate(10.796875 59.206927)scale(0.1 -0.1)">
       <use xlink:href="#DejaVuSans-50"/>
       <use x="63.623047" xlink:href="#DejaVuSans-46"/>
       <use x="95.410156" xlink:href="#DejaVuSans-53"/>
      </g>
     </g>
    </g>
   </g>
   <g id="line2d_19">
    <path clip-path="url(#p3685fb175d)" d="M 84.040909 201.642167 
L 84.966293 200.43935 
L 85.891678 205.262316 
L 86.817062 204.728745 
L 89.593215 202.693036 
L 90.5186 205.558469 
L 91.443984 200.34494 
L 92.369368 204.535391 
L 93.294753 205.38404 
L 96.070906 205.997377 
L 96.99629 208.793118 
L 97.921674 214.28611 
L 98.847059 218.264847 
L 99.772443 221.617823 
L 102.548596 220.875116 
L 103.473981 223.152998 
L 104.399365 219.930902 
L 105.324749 214.71252 
L 106.250134 217.823976 
L 109.026287 179.370956 
L 109.951671 182.115417 
L 110.877055 175.667426 
L 111.80244 174.24487 
L 112.727824 165.278959 
L 115.503977 155.203458 
L 116.429362 159.360913 
L 117.354746 152.766795 
L 118.28013 156.133794 
L 119.205515 155.376159 
L 121.981668 154.06079 
L 122.907052 155.753428 
L 123.832436 158.829064 
L 124.757821 156.070788 
L 125.683205 154.145997 
L 128.459358 157.87095 
L 129.384743 156.748291 
L 130.310127 160.060508 
L 131.235511 158.054917 
L 132.160896 149.698884 
L 134.937049 154.803067 
L 135.862433 149.086692 
L 136.787818 150.193285 
L 137.713202 156.098488 
L 138.638586 157.80387 
L 142.340124 147.783021 
L 143.265508 149.618387 
L 144.190892 153.353667 
L 145.116277 149.730852 
L 147.89243 153.69777 
L 148.817814 155.495119 
L 149.743199 155.491762 
L 150.668583 163.091777 
L 151.593967 157.703271 
L 154.37012 164.185411 
L 156.220889 143.237589 
L 157.146273 152.366222 
L 158.071658 150.944661 
L 160.847811 140.968261 
L 161.773195 142.020608 
L 162.69858 144.984323 
L 163.623964 142.540082 
L 164.549348 144.153714 
L 167.325501 148.386349 
L 168.250886 145.443892 
L 169.17627 145.073231 
L 170.101654 143.049668 
L 171.027039 141.955409 
L 173.803192 145.444135 
L 174.728576 142.326906 
L 175.653961 135.334766 
L 176.579345 141.270022 
L 177.504729 138.601583 
L 180.280882 141.094888 
L 181.206267 148.520153 
L 182.131651 144.440475 
L 183.057035 141.137507 
L 183.98242 140.188862 
L 186.758573 147.644207 
L 187.683957 153.874561 
L 188.609342 142.131234 
L 189.534726 138.093731 
L 190.46011 142.327256 
L 193.236263 139.260241 
L 194.161648 160.778737 
L 195.087032 165.769388 
L 196.937801 165.286304 
L 199.713954 162.34732 
L 200.639338 162.813627 
L 201.564723 162.317151 
L 202.490107 157.168094 
L 203.415491 155.169988 
L 206.191644 157.385054 
L 207.117029 148.00362 
L 208.042413 152.792213 
L 208.967797 147.451865 
L 209.893182 148.597579 
L 212.669335 140.909648 
L 213.594719 147.554619 
L 214.520104 150.564104 
L 215.445488 156.457527 
L 216.370872 160.500843 
L 219.147025 152.57358 
L 220.07241 147.036047 
L 221.923178 140.060106 
L 222.848563 130.842808 
L 225.624716 124.518034 
L 228.400869 106.349143 
L 229.326253 104.371445 
L 232.102406 118.257285 
L 233.027791 111.568844 
L 233.953175 108.36347 
L 234.878559 101.938221 
L 235.803944 100.65745 
L 238.580097 101.654909 
L 239.505481 111.550835 
L 240.430866 117.011068 
L 241.35625 115.848562 
L 242.281634 118.901168 
L 245.057787 113.23247 
L 245.983172 113.068777 
L 246.908556 113.906717 
L 247.833941 110.832724 
L 248.759325 123.976818 
L 251.535478 153.530868 
L 252.460862 149.287045 
L 253.386247 151.999531 
L 254.311631 141.668472 
L 255.237015 140.403762 
L 258.013168 144.01012 
L 258.938553 156.217155 
L 259.863937 157.576097 
L 260.789322 160.161866 
L 261.714706 159.547124 
L 265.416243 165.440998 
L 266.341628 158.874719 
L 267.267012 164.845719 
L 268.192396 164.849299 
L 270.968549 163.534376 
L 271.893934 162.726941 
L 272.819318 164.972679 
L 273.744703 164.492356 
L 274.670087 165.935659 
L 277.44624 166.213394 
L 278.371624 170.431272 
L 279.297009 148.943815 
L 280.222393 156.155259 
L 281.147777 150.797639 
L 283.92393 153.370864 
L 284.849315 153.636594 
L 285.774699 153.181094 
L 286.700084 153.78816 
L 287.625468 152.705076 
L 290.401621 156.567271 
L 291.327005 147.841637 
L 292.25239 147.703122 
L 293.177774 147.447434 
L 294.103158 140.234897 
L 296.879311 141.424638 
L 297.804696 149.725715 
L 298.73008 151.866748 
L 299.655465 147.830426 
L 300.580849 149.238805 
L 303.357002 144.117976 
L 304.282386 149.107642 
L 305.207771 144.180983 
L 306.133155 156.536391 
L 307.058539 136.88527 
L 309.834693 139.689684 
L 310.760077 131.571818 
L 311.685461 138.260235 
L 312.610846 130.401086 
L 313.53623 124.02203 
L 316.312383 129.336388 
L 317.237767 128.540855 
L 318.163152 130.325137 
L 319.088536 119.985746 
L 320.01392 126.588992 
L 322.790074 135.259735 
L 323.715458 130.449548 
L 324.640842 124.414464 
L 325.566227 126.486701 
L 326.491611 126.305025 
L 329.267764 129.842185 
L 330.193148 138.679253 
L 331.118533 138.7727 
L 332.043917 142.975716 
L 332.969301 137.132868 
L 335.745455 138.329055 
L 336.670839 128.943534 
L 337.596223 121.289332 
L 338.521608 128.609012 
L 339.446992 121.643154 
L 342.223145 118.015825 
L 343.148529 127.611396 
L 344.073914 124.262385 
L 344.999298 123.457075 
L 345.924682 131.350365 
L 348.700836 131.807477 
L 349.62622 128.640271 
L 350.551604 131.641867 
L 351.476989 127.906547 
L 352.402373 125.986999 
L 355.178526 122.889012 
L 356.10391 127.463195 
L 357.029295 128.648062 
L 357.954679 135.084925 
L 358.880064 132.579749 
L 361.656217 140.517371 
L 362.581601 138.554551 
L 363.506985 133.627847 
L 364.43237 142.780878 
L 365.357754 133.355316 
L 368.133907 130.394434 
L 369.059291 123.17801 
L 369.984676 121.528295 
L 370.91006 118.25428 
L 371.835445 122.474413 
L 374.611598 118.508555 
L 375.536982 124.391584 
L 376.462366 123.569882 
L 377.387751 127.981731 
L 378.313135 128.143442 
L 381.089288 124.185499 
L 382.014672 123.693352 
L 382.940057 124.091145 
L 383.865441 124.110204 
L 384.790826 126.711872 
L 388.492363 115.081661 
L 389.417747 103.237623 
L 390.343132 96.396087 
L 391.268516 106.745064 
L 394.044669 95.640346 
L 394.970053 96.269901 
L 395.895438 83.218142 
L 397.746207 69.133538 
L 400.52236 72.39932 
L 401.447744 74.551904 
L 402.373128 64.345659 
L 403.298513 65.311571 
L 404.223897 77.084817 
L 407.00005 70.763817 
L 407.925434 81.559929 
L 409.776203 62.847713 
L 410.701588 57.738883 
L 413.477741 56.476297 
L 414.403125 57.183484 
L 415.328509 62.181197 
L 416.253894 57.982941 
L 417.179278 60.8946 
L 419.955431 63.928739 
L 420.880816 67.264715 
L 421.8062 67.236766 
L 422.731584 74.836346 
L 423.656969 66.73433 
L 426.433122 64.862614 
L 427.358506 64.528558 
L 428.28389 65.001881 
L 429.209275 61.600587 
L 430.134659 56.902364 
L 432.910812 59.88071 
L 433.836197 64.546335 
L 434.761581 43.62789 
L 435.686965 44.716853 
L 436.61235 41.076402 
L 439.388503 43.450443 
L 440.313887 38.951746 
L 441.239271 37.176364 
L 442.164656 48.81551 
L 443.09004 58.387097 
L 445.866193 51.742143 
L 446.791578 92.005202 
L 447.716962 88.897075 
L 448.642346 102.303033 
L 449.567731 109.00781 
L 452.343884 98.457439 
L 453.269268 93.462617 
L 454.194652 97.217975 
L 455.120037 108.477232 
L 456.045421 94.632875 
L 458.821574 83.841149 
L 459.746959 86.321583 
L 460.672343 85.832014 
L 461.597727 84.319706 
L 462.523112 85.59695 
L 465.299265 88.901284 
L 466.224649 97.164553 
L 467.150033 102.925663 
L 468.075418 100.771377 
L 469.000802 86.399307 
L 471.776955 90.267423 
L 472.70234 92.484995 
L 473.627724 104.636984 
L 475.478493 95.957314 
L 478.254646 95.671548 
L 479.18003 101.349506 
L 480.105414 96.48035 
L 481.030799 87.873452 
L 481.956183 82.240059 
L 484.732336 77.075607 
L 485.657721 73.248565 
L 486.583105 73.023085 
L 487.508489 76.576404 
L 488.433874 69.42695 
L 491.210027 75.203916 
L 492.135411 64.394494 
L 493.060795 62.987117 
L 493.98618 68.458422 
L 494.911564 75.64529 
L 497.687717 82.467189 
L 498.613102 92.799983 
L 499.538486 98.071173 
L 500.46387 86.045294 
L 501.389255 95.970478 
L 504.165408 98.904384 
L 505.090792 96.647743 
L 506.016176 103.681069 
L 506.941561 97.63446 
L 507.866945 89.281494 
L 510.643098 81.594256 
L 511.568483 69.244302 
L 512.493867 71.685441 
L 513.419251 84.017677 
L 514.344636 86.459587 
L 517.120789 87.338419 
L 518.046173 92.419111 
L 519.896942 76.45889 
L 520.822326 78.466738 
L 523.598479 81.282049 
L 524.523864 85.241579 
L 525.449248 97.551853 
L 526.374632 113.237225 
L 527.300017 113.079769 
L 531.001554 96.344051 
L 531.926939 115.672298 
L 532.852323 123.347722 
L 533.777707 122.651635 
L 536.55386 115.281683 
L 537.479245 121.551276 
L 539.330013 131.983281 
L 540.255398 128.429933 
L 543.031551 119.425193 
L 543.956935 106.648217 
L 544.88232 109.868245 
L 545.807704 114.250407 
L 546.733088 105.61799 
L 549.509241 121.680131 
L 550.434626 119.333677 
L 551.36001 121.078165 
L 552.285394 130.248707 
L 553.210779 129.976958 
L 555.986932 143.681857 
L 556.912316 146.164371 
L 557.837701 149.18361 
L 558.763085 142.888454 
L 559.688469 160.161459 
L 562.464622 165.035346 
L 563.390007 170.703956 
L 564.315391 179.261935 
L 565.240775 182.098489 
L 566.16616 178.183645 
L 568.942313 181.868684 
L 569.867697 172.552801 
L 570.793082 177.30998 
L 571.718466 184.876946 
L 572.64385 187.981682 
L 575.420003 187.752733 
L 576.345388 189.437035 
L 577.270772 186.505775 
L 578.196156 191.481064 
L 579.121541 194.942524 
L 581.897694 187.587984 
L 582.823078 186.429399 
L 583.748463 181.52479 
L 584.673847 183.749422 
L 585.599231 182.562285 
L 588.375384 173.1796 
L 589.300769 175.657442 
L 590.226153 177.673964 
L 591.151537 178.55202 
L 592.076922 173.792156 
L 594.853075 171.211622 
L 595.778459 170.138932 
L 596.703844 170.997253 
L 597.629228 171.494382 
L 598.554612 171.637812 
L 601.330765 174.122369 
L 602.25615 171.440548 
L 603.181534 167.001146 
L 605.032303 175.492486 
L 607.808456 171.338791 
L 608.73384 170.740807 
L 610.584609 177.188159 
L 611.509993 177.920116 
L 615.211531 185.544803 
L 616.136915 185.126307 
L 617.062299 187.273562 
L 617.987684 184.941506 
L 620.763837 184.820018 
L 621.689221 191.539641 
L 622.614606 186.499199 
L 623.53999 186.459754 
L 624.465374 187.823385 
L 627.241527 198.167804 
L 628.166912 204.491408 
L 629.092296 204.648217 
L 630.01768 201.205683 
L 630.943065 200.293101 
L 633.719218 201.560966 
L 634.644602 206.489308 
L 636.495371 201.754629 
L 637.420755 202.149432 
L 640.196908 206.560172 
L 641.122293 207.732976 
L 642.047677 207.570492 
L 642.973061 206.708518 
L 643.898446 203.817283 
L 646.674599 202.079657 
L 647.599983 203.936815 
L 648.525368 207.264112 
L 649.450752 208.854837 
L 650.376136 210.184317 
L 653.152289 208.338591 
L 654.077674 210.882085 
L 655.003058 206.47429 
L 655.928443 205.420891 
L 656.853827 204.842305 
L 659.62998 206.879703 
L 660.555364 209.66891 
L 661.480749 211.855957 
L 663.331517 218.559122 
L 666.10767 219.95128 
L 667.033055 218.121514 
L 667.958439 219.477901 
L 668.883824 219.351889 
L 669.809208 219.8315 
L 672.585361 219.682271 
L 673.510745 210.883881 
L 674.43613 210.520768 
L 675.361514 217.823177 
L 676.286898 218.149371 
L 679.063051 216.875675 
L 679.988436 218.052861 
L 680.91382 218.303174 
L 681.839205 218.717574 
L 682.764589 219.960757 
L 685.540742 214.172519 
L 686.466126 216.812051 
L 687.391511 216.79781 
L 688.316895 211.873427 
L 689.242279 214.780655 
L 692.018432 216.292753 
L 692.943817 217.444225 
L 693.869201 217.492103 
L 694.794586 220.38145 
L 695.71997 222.192356 
L 698.496123 223.55833 
L 699.421507 224.757629 
L 700.346892 221.157697 
L 701.272276 223.508871 
L 702.19766 228.065514 
L 704.973814 231.675463 
L 705.899198 227.420397 
L 706.824582 228.264316 
L 707.749967 225.371704 
L 708.675351 227.035618 
L 711.451504 226.585443 
L 712.376888 228.960139 
L 714.227657 229.649927 
L 715.153041 224.925616 
L 717.929195 225.332839 
L 719.779963 228.30577 
L 720.705348 232.000866 
L 721.630732 233.175474 
L 724.406885 235.640622 
L 726.257654 236.042371 
L 727.183038 240.184678 
L 728.108422 237.610876 
L 730.884576 210.406289 
L 731.80996 213.492387 
L 732.735344 212.821955 
L 733.660729 209.321746 
L 734.586113 206.793077 
L 737.362266 211.65222 
L 740.138419 199.574499 
L 741.063803 200.47816 
L 743.839957 202.546911 
L 745.690725 197.775296 
L 746.61611 195.239814 
L 747.541494 196.397835 
L 750.317647 196.890652 
L 751.243031 201.870547 
L 752.168416 196.834966 
L 753.0938 198.439719 
L 754.019184 191.605348 
L 756.795338 187.332836 
L 757.720722 185.120272 
L 758.646106 204.907057 
L 759.571491 205.418678 
L 760.496875 203.491858 
L 763.273028 198.721049 
L 764.198412 202.212005 
L 765.123797 206.257619 
L 766.049181 202.066366 
L 766.974566 199.075981 
L 769.750719 197.010193 
L 770.676103 202.592019 
L 771.601487 205.207078 
L 772.526872 203.122696 
L 773.452256 198.885471 
L 776.228409 194.814916 
L 777.153793 197.136109 
L 778.079178 195.465292 
L 779.004562 199.166358 
L 779.929947 198.78607 
L 782.7061 200.673193 
L 783.631484 198.230765 
L 784.556868 203.323227 
L 785.482253 210.781222 
L 786.407637 213.02856 
L 789.18379 218.872857 
L 790.109174 215.987802 
L 791.034559 220.376411 
L 791.959943 223.748396 
L 792.885328 222.149132 
L 795.661481 224.167218 
L 796.586865 225.867865 
L 797.512249 225.841295 
L 798.437634 224.561512 
L 799.363018 221.493721 
L 802.139171 216.325722 
L 803.064555 215.516878 
L 803.98994 212.507952 
L 804.915324 211.722081 
L 805.840709 210.475752 
L 808.616862 202.914272 
L 809.542246 206.562526 
L 810.46763 212.644013 
L 811.393015 213.080422 
L 812.318399 214.794815 
L 815.094552 231.900856 
L 816.019936 230.51062 
L 816.945321 235.142101 
L 817.870705 237.324316 
L 818.79609 241.121723 
L 821.572243 239.106905 
L 823.423011 238.362608 
L 824.348396 236.291794 
L 825.27378 239.819749 
L 828.049933 241.277957 
L 828.975318 242.363031 
L 829.900702 244.271242 
L 830.826086 243.082552 
L 831.751471 244.328497 
L 834.527624 246.614217 
L 835.453008 244.012928 
L 836.378392 242.474623 
L 837.303777 242.982559 
L 838.229161 240.773323 
L 841.005314 242.273257 
L 841.930699 215.519654 
L 842.856083 217.906684 
L 843.781467 216.27255 
L 844.706852 217.981936 
L 847.483005 219.947296 
L 848.408389 221.76592 
L 849.333773 218.405787 
L 850.259158 215.735806 
L 851.184542 214.190797 
L 853.960695 215.636117 
L 854.88608 218.437772 
L 856.736848 220.28387 
L 857.662233 216.134193 
L 860.438386 214.778869 
L 861.36377 214.460262 
L 862.289154 216.324273 
L 863.214539 211.709538 
L 864.139923 205.955682 
L 866.916076 203.617173 
L 867.841461 201.124003 
L 868.766845 195.532417 
L 869.692229 197.15534 
L 870.617614 217.910663 
L 873.393767 213.786515 
L 874.319151 213.227549 
L 875.244535 213.415048 
L 876.16992 210.874479 
L 877.095304 214.77589 
L 879.871457 212.595444 
L 880.796842 207.083607 
L 881.722226 209.838456 
L 882.64761 208.592625 
L 883.572995 211.195138 
L 886.349148 213.910992 
L 887.274532 214.468041 
L 888.199916 211.696467 
L 889.125301 213.235744 
L 890.050685 217.815791 
L 892.826838 216.78252 
L 893.752223 213.64245 
L 894.677607 206.525058 
L 895.602991 208.901435 
L 896.528376 214.806192 
L 899.304529 233.23993 
L 900.229913 237.064813 
L 901.155297 237.123001 
L 902.080682 235.827063 
L 903.006066 237.794006 
L 905.782219 238.123822 
L 906.707604 237.834561 
L 907.632988 234.724002 
L 908.558372 234.359651 
L 909.483757 236.012643 
L 912.25991 237.579922 
L 913.185294 238.493277 
L 914.110678 240.405646 
L 915.036063 240.167126 
L 915.961447 241.798993 
L 918.7376 246.387475 
L 919.662985 246.79091 
L 920.588369 248.632114 
L 921.513753 248.353847 
L 922.439138 247.146765 
L 925.215291 244.835609 
L 926.140675 244.931574 
L 927.066059 242.043321 
L 927.991444 246.660363 
L 928.916828 245.860917 
L 931.692981 245.152392 
L 932.618366 245.236198 
L 933.54375 245.573073 
L 934.469134 246.470267 
L 935.394519 243.992474 
L 938.170672 243.598327 
L 939.096056 240.823826 
L 940.021441 243.079422 
L 940.946825 240.222657 
L 941.872209 242.906635 
L 944.648362 245.639842 
L 945.573747 246.060483 
L 946.499131 244.819983 
L 947.424515 244.32565 
L 948.3499 241.998408 
L 951.126053 239.356706 
L 952.051437 241.826713 
L 952.976822 240.305903 
L 953.902206 242.073054 
L 954.82759 244.833529 
L 957.603743 244.338608 
L 958.529128 246.555663 
L 959.454512 244.45675 
L 960.379896 244.601381 
L 961.305281 243.390348 
L 964.081434 241.753001 
L 965.006818 243.113903 
L 966.857587 249.202704 
L 967.782971 251.389771 
L 970.559124 253.580079 
L 971.484509 251.234724 
L 973.335277 248.796016 
L 974.260662 248.455786 
L 977.036815 248.147887 
L 977.962199 250.229035 
L 978.887584 251.391754 
L 979.812968 249.671441 
L 980.738352 249.21987 
L 983.514505 229.410431 
L 984.43989 227.178115 
L 985.365274 222.407478 
L 986.290658 219.811174 
L 987.216043 219.74593 
L 989.992196 224.118966 
L 990.91758 227.503601 
L 991.842965 225.897 
L 992.768349 224.797992 
L 993.693733 225.344372 
L 996.469886 222.823291 
L 997.395271 225.361068 
L 998.320655 224.217522 
L 999.246039 225.331525 
L 1000.171424 225.678886 
L 1002.947577 223.491718 
L 1003.872961 222.906745 
L 1004.798346 217.989969 
L 1005.72373 215.806814 
L 1006.649114 214.159554 
L 1009.425267 212.294007 
L 1011.276036 206.961237 
L 1012.20142 238.485504 
L 1013.126805 237.685191 
L 1015.902958 237.128419 
L 1016.828342 237.81145 
L 1018.679111 233.19209 
L 1019.604495 232.707958 
L 1022.380648 233.697723 
L 1023.306033 231.158034 
L 1024.231417 227.191333 
L 1025.156801 226.105001 
L 1026.082186 229.948174 
L 1028.858339 229.452936 
L 1029.783723 226.387419 
L 1030.709108 230.502893 
L 1031.634492 228.406277 
L 1032.559876 230.234695 
L 1035.336029 228.023383 
L 1036.261414 230.652545 
L 1037.186798 231.647104 
L 1038.112182 237.859409 
L 1039.037567 242.233636 
L 1041.81372 235.148311 
L 1042.739104 236.626348 
L 1043.664489 233.918215 
L 1044.589873 228.393634 
L 1045.515257 230.753776 
L 1048.29141 228.72382 
L 1049.216795 231.913631 
L 1050.142179 231.85748 
L 1051.067564 233.083055 
L 1051.992948 229.116777 
L 1054.769101 233.208059 
L 1055.694485 233.423965 
L 1056.61987 231.658621 
L 1057.545254 231.445089 
L 1058.470638 236.77013 
L 1061.246791 233.243325 
L 1062.172176 234.726919 
L 1063.09756 233.159112 
L 1064.022945 233.915633 
L 1064.948329 232.661248 
L 1067.724482 233.858811 
L 1068.649866 234.056205 
L 1069.575251 232.164379 
L 1070.500635 233.581085 
L 1071.426019 233.757235 
L 1074.202172 231.43319 
L 1075.127557 231.061885 
L 1076.052941 237.907056 
L 1076.978326 238.344718 
L 1077.90371 237.857064 
L 1080.679863 235.859656 
L 1081.605247 232.040387 
L 1082.530632 234.555679 
L 1083.456016 239.538767 
L 1084.3814 240.864433 
L 1087.157553 239.280877 
L 1088.082938 239.440331 
L 1089.008322 238.111266 
L 1089.933707 237.541132 
L 1090.859091 235.431288 
L 1090.859091 235.431288 
" style="fill:none;stroke:#1f77b4;stroke-linecap:square;stroke-width:1.5;"/>
   </g>
   <g id="line2d_20">
    <path clip-path="url(#p3685fb175d)" d="M 84.040909 204.403434 
L 84.966293 201.831962 
L 85.891678 205.207931 
L 86.817062 206.933485 
L 89.593215 204.630851 
L 90.5186 206.298009 
L 91.443984 201.264117 
L 92.369368 201.540045 
L 93.294753 201.239502 
L 96.99629 204.854747 
L 97.921674 207.78625 
L 98.847059 208.221807 
L 99.772443 209.538152 
L 102.548596 210.303109 
L 103.473981 208.151981 
L 104.399365 206.954928 
L 105.324749 203.903743 
L 106.250134 206.901395 
L 109.026287 207.083462 
L 109.951671 212.665385 
L 110.877055 211.220953 
L 111.80244 211.738917 
L 112.727824 209.130838 
L 115.503977 208.773134 
L 116.429362 210.646313 
L 117.354746 205.518164 
L 118.28013 206.576653 
L 119.205515 207.34373 
L 121.981668 207.676809 
L 122.907052 207.082973 
L 123.832436 209.2204 
L 124.757821 210.191496 
L 125.683205 209.868168 
L 128.459358 210.275624 
L 129.384743 205.984994 
L 130.310127 205.646499 
L 131.235511 208.886614 
L 132.160896 206.355822 
L 134.937049 208.820608 
L 135.862433 208.849375 
L 136.787818 206.311013 
L 137.713202 207.188766 
L 138.638586 205.262525 
L 143.265508 207.139028 
L 144.190892 207.89308 
L 145.116277 209.245292 
L 147.89243 214.285151 
L 148.817814 215.365732 
L 149.743199 212.400078 
L 150.668583 214.668212 
L 151.593967 214.722156 
L 154.37012 215.817894 
L 155.295505 212.207926 
L 156.220889 212.044112 
L 157.146273 214.986539 
L 158.071658 215.333209 
L 160.847811 213.637927 
L 161.773195 214.855592 
L 162.69858 216.362115 
L 163.623964 215.749338 
L 164.549348 215.919901 
L 167.325501 215.716871 
L 168.250886 214.277689 
L 169.17627 214.019759 
L 170.101654 212.17158 
L 171.027039 211.482258 
L 173.803192 213.3845 
L 174.728576 212.939665 
L 175.653961 211.673462 
L 176.579345 213.023392 
L 177.504729 214.029847 
L 180.280882 214.182056 
L 181.206267 215.593335 
L 182.131651 215.10924 
L 183.057035 211.350767 
L 183.98242 212.710376 
L 186.758573 213.731396 
L 187.683957 215.63902 
L 188.609342 214.100492 
L 189.534726 214.656057 
L 190.46011 214.268791 
L 193.236263 215.253217 
L 194.161648 217.44623 
L 195.087032 218.125633 
L 196.012416 216.512068 
L 196.937801 216.293241 
L 199.713954 215.271378 
L 200.639338 216.809452 
L 201.564723 214.357373 
L 202.490107 213.991194 
L 203.415491 216.248123 
L 206.191644 216.607304 
L 207.117029 216.440395 
L 208.042413 216.131561 
L 208.967797 213.585769 
L 209.893182 214.150062 
L 212.669335 211.88898 
L 213.594719 212.799527 
L 214.520104 210.532502 
L 215.445488 215.36899 
L 216.370872 214.710148 
L 219.147025 212.533759 
L 220.07241 209.369804 
L 220.997794 208.016735 
L 221.923178 211.083527 
L 222.848563 210.601027 
L 225.624716 208.027257 
L 226.5501 205.209393 
L 227.475485 205.837448 
L 228.400869 205.607277 
L 229.326253 204.50443 
L 232.102406 205.849491 
L 233.027791 203.337307 
L 233.953175 204.67696 
L 234.878559 205.664422 
L 235.803944 202.048268 
L 238.580097 202.354876 
L 239.505481 206.047934 
L 240.430866 207.255568 
L 241.35625 206.595628 
L 242.281634 206.330342 
L 245.057787 203.788568 
L 245.983172 200.507564 
L 247.833941 200.442876 
L 248.759325 202.747586 
L 251.535478 199.684969 
L 252.460862 199.203678 
L 253.386247 195.923682 
L 254.311631 193.763152 
L 255.237015 193.855029 
L 258.013168 190.943045 
L 258.938553 193.508898 
L 259.863937 194.796288 
L 260.789322 191.387467 
L 261.714706 190.921871 
L 264.490859 188.640169 
L 265.416243 189.502544 
L 266.341628 185.903896 
L 267.267012 187.844974 
L 268.192396 187.656903 
L 270.968549 187.447235 
L 271.893934 188.912485 
L 272.819318 188.139064 
L 273.744703 187.57015 
L 274.670087 187.97336 
L 277.44624 187.326009 
L 278.371624 189.657169 
L 279.297009 191.680395 
L 280.222393 194.858954 
L 281.147777 195.488574 
L 283.92393 194.702095 
L 284.849315 193.313691 
L 285.774699 194.640108 
L 286.700084 194.811253 
L 287.625468 191.913446 
L 290.401621 193.388871 
L 291.327005 189.477651 
L 292.25239 187.599435 
L 294.103158 186.239081 
L 296.879311 187.718685 
L 297.804696 187.057446 
L 298.73008 189.456438 
L 299.655465 190.98569 
L 300.580849 188.667914 
L 303.357002 184.231068 
L 304.282386 187.886169 
L 305.207771 188.670081 
L 306.133155 191.949569 
L 307.058539 192.545764 
L 309.834693 190.940126 
L 310.760077 191.877226 
L 311.685461 194.393527 
L 312.610846 192.213408 
L 313.53623 191.568032 
L 316.312383 193.156423 
L 317.237767 195.969103 
L 318.163152 198.416574 
L 319.088536 196.376035 
L 320.01392 196.791408 
L 322.790074 197.607429 
L 323.715458 196.762636 
L 324.640842 197.413233 
L 325.566227 195.651823 
L 326.491611 196.505282 
L 329.267764 194.476386 
L 330.193148 196.698405 
L 331.118533 196.238016 
L 332.043917 197.797467 
L 332.969301 197.172128 
L 335.745455 198.296519 
L 336.670839 195.12425 
L 337.596223 194.17258 
L 338.521608 193.938135 
L 339.446992 191.466087 
L 342.223145 190.298338 
L 343.148529 190.865194 
L 344.073914 189.391731 
L 344.999298 192.022481 
L 345.924682 191.754638 
L 348.700836 189.964038 
L 349.62622 189.679136 
L 350.551604 188.572568 
L 351.476989 186.567416 
L 352.402373 186.082892 
L 356.10391 183.026484 
L 357.029295 181.643502 
L 357.954679 181.85283 
L 358.880064 184.044969 
L 361.656217 184.509134 
L 362.581601 185.415553 
L 363.506985 184.593839 
L 364.43237 188.150831 
L 365.357754 187.605246 
L 368.133907 188.300079 
L 369.059291 191.508429 
L 369.984676 192.023018 
L 370.91006 191.083134 
L 371.835445 191.359349 
L 374.611598 191.081546 
L 375.536982 189.87014 
L 376.462366 191.924288 
L 377.387751 190.851974 
L 378.313135 190.087214 
L 381.089288 189.687987 
L 382.014672 188.114979 
L 382.940057 188.432155 
L 383.865441 185.928267 
L 384.790826 184.452743 
L 387.566979 181.623022 
L 388.492363 184.380669 
L 389.417747 183.763674 
L 390.343132 182.059639 
L 391.268516 184.352276 
L 394.044669 182.75165 
L 394.970053 180.766845 
L 395.895438 176.815126 
L 396.820822 177.483953 
L 397.746207 176.078803 
L 400.52236 176.017043 
L 401.447744 176.416345 
L 402.373128 171.457231 
L 403.298513 169.350522 
L 404.223897 170.777981 
L 407.00005 169.055768 
L 407.925434 171.714994 
L 408.850819 171.360951 
L 410.701588 173.443968 
L 413.477741 176.237784 
L 414.403125 179.590717 
L 415.328509 182.224717 
L 416.253894 183.155959 
L 417.179278 181.992437 
L 419.955431 182.853113 
L 420.880816 183.869921 
L 421.8062 181.163162 
L 422.731584 183.568488 
L 423.656969 180.8704 
L 426.433122 178.404077 
L 427.358506 179.013136 
L 428.28389 181.604359 
L 429.209275 178.688474 
L 430.134659 176.354672 
L 432.910812 176.017219 
L 433.836197 179.335697 
L 434.761581 178.944213 
L 435.686965 176.247648 
L 439.388503 177.657007 
L 440.313887 179.252265 
L 441.239271 179.572071 
L 442.164656 180.894583 
L 443.09004 180.078178 
L 445.866193 179.171344 
L 446.791578 181.123908 
L 447.716962 177.459735 
L 448.642346 181.350909 
L 449.567731 182.76346 
L 452.343884 181.273763 
L 453.269268 179.381594 
L 454.194652 181.052176 
L 455.120037 181.893516 
L 456.045421 178.68412 
L 458.821574 176.828771 
L 459.746959 178.447533 
L 460.672343 180.780805 
L 462.523112 177.374732 
L 465.299265 176.898329 
L 466.224649 178.112101 
L 467.150033 180.43361 
L 468.075418 184.279193 
L 469.000802 181.00715 
L 471.776955 181.537957 
L 473.627724 184.945512 
L 474.553108 183.902439 
L 475.478493 183.639724 
L 478.254646 183.540922 
L 479.18003 179.851587 
L 480.105414 177.487349 
L 481.030799 179.054478 
L 481.956183 179.007674 
L 484.732336 179.105241 
L 485.657721 180.790363 
L 487.508489 176.346993 
L 488.433874 174.922302 
L 491.210027 179.352548 
L 492.135411 175.550915 
L 493.060795 176.779036 
L 493.98618 173.922349 
L 494.911564 173.416288 
L 498.613102 175.223859 
L 499.538486 172.761979 
L 500.46387 171.840488 
L 501.389255 175.333599 
L 504.165408 177.607038 
L 505.090792 175.188681 
L 506.016176 176.779509 
L 506.941561 175.262396 
L 507.866945 176.372537 
L 510.643098 175.368451 
L 511.568483 173.440593 
L 512.493867 175.76178 
L 513.419251 179.34263 
L 514.344636 181.313588 
L 517.120789 181.61646 
L 518.046173 178.991461 
L 518.971557 179.692507 
L 519.896942 183.26211 
L 520.822326 183.616316 
L 523.598479 180.835333 
L 525.449248 186.949965 
L 526.374632 188.863326 
L 527.300017 187.834638 
L 530.07617 187.339991 
L 531.001554 187.838887 
L 531.926939 185.127795 
L 532.852323 187.843677 
L 536.55386 185.93151 
L 537.479245 188.668244 
L 538.404629 193.100336 
L 540.255398 197.417635 
L 543.031551 193.424464 
L 543.956935 191.800125 
L 544.88232 193.306209 
L 545.807704 193.203897 
L 546.733088 192.231044 
L 549.509241 194.522959 
L 550.434626 194.272162 
L 553.210779 195.202938 
L 555.986932 196.940761 
L 556.912316 198.132173 
L 557.837701 197.959261 
L 558.763085 196.679322 
L 559.688469 198.052418 
L 562.464622 200.992442 
L 563.390007 202.306445 
L 564.315391 205.412186 
L 565.240775 207.143922 
L 566.16616 208.173891 
L 569.867697 209.488875 
L 570.793082 209.827068 
L 571.718466 214.516012 
L 572.64385 215.953895 
L 575.420003 217.565549 
L 576.345388 216.062442 
L 577.270772 214.179596 
L 578.196156 217.789772 
L 579.121541 219.775705 
L 581.897694 218.28934 
L 582.823078 216.28354 
L 584.673847 218.918106 
L 585.599231 220.485136 
L 588.375384 221.471841 
L 589.300769 220.044176 
L 590.226153 220.260121 
L 591.151537 219.513306 
L 592.076922 217.899584 
L 594.853075 218.175107 
L 595.778459 219.454721 
L 596.703844 219.345691 
L 597.629228 219.854141 
L 598.554612 219.907667 
L 601.330765 219.406211 
L 602.25615 218.899218 
L 603.181534 216.285757 
L 604.106918 216.412738 
L 605.032303 215.420039 
L 607.808456 214.085833 
L 608.73384 210.955244 
L 609.659225 212.456946 
L 610.584609 215.31716 
L 611.509993 213.853089 
L 614.286146 215.926497 
L 615.211531 215.801765 
L 616.136915 215.480394 
L 617.062299 215.817031 
L 617.987684 213.383242 
L 620.763837 214.004169 
L 621.689221 214.890777 
L 622.614606 214.838946 
L 623.53999 217.182811 
L 624.465374 217.533532 
L 627.241527 220.953869 
L 628.166912 223.749533 
L 629.092296 225.340166 
L 630.01768 225.822532 
L 630.943065 225.455093 
L 633.719218 223.686719 
L 634.644602 224.55424 
L 635.569987 222.808023 
L 636.495371 221.372266 
L 637.420755 221.450845 
L 640.196908 221.983782 
L 641.122293 222.689814 
L 642.047677 221.481221 
L 642.973061 224.117233 
L 643.898446 222.275893 
L 646.674599 223.275858 
L 647.599983 223.146779 
L 648.525368 224.312887 
L 649.450752 223.045146 
L 650.376136 222.389993 
L 653.152289 222.442975 
L 654.077674 222.258068 
L 655.003058 221.13359 
L 655.928443 219.672458 
L 656.853827 220.26377 
L 659.62998 223.683721 
L 660.555364 223.750666 
L 661.480749 225.009833 
L 662.406133 225.635691 
L 663.331517 227.116677 
L 666.10767 227.442888 
L 667.033055 227.135401 
L 667.958439 226.20114 
L 668.883824 225.471761 
L 669.809208 228.357693 
L 672.585361 227.592179 
L 674.43613 231.687256 
L 675.361514 233.247416 
L 676.286898 233.690034 
L 679.063051 232.7958 
L 679.988436 234.460794 
L 680.91382 235.496798 
L 681.839205 236.893622 
L 682.764589 235.886842 
L 685.540742 235.976251 
L 686.466126 235.587033 
L 687.391511 233.830677 
L 688.316895 231.62401 
L 689.242279 231.187417 
L 692.018432 231.223864 
L 692.943817 231.110474 
L 693.869201 230.136222 
L 694.794586 232.510464 
L 695.71997 231.139027 
L 698.496123 232.847471 
L 699.421507 235.594032 
L 700.346892 233.78239 
L 701.272276 233.196437 
L 702.19766 235.308966 
L 704.973814 238.184326 
L 705.899198 236.953106 
L 706.824582 238.996136 
L 707.749967 238.497817 
L 708.675351 240.585529 
L 711.451504 239.423892 
L 712.376888 240.067777 
L 713.302273 240.520565 
L 714.227657 238.9386 
L 715.153041 238.379065 
L 717.929195 237.854477 
L 718.854579 238.094256 
L 719.779963 239.032537 
L 720.705348 238.899274 
L 721.630732 241.406836 
L 724.406885 243.044259 
L 725.332269 244.182821 
L 726.257654 244.769437 
L 727.183038 245.610582 
L 728.108422 245.347767 
L 730.884576 245.961679 
L 731.80996 246.784299 
L 732.735344 246.593815 
L 734.586113 244.698635 
L 737.362266 245.349416 
L 738.28765 244.440193 
L 739.213035 241.852115 
L 740.138419 241.617411 
L 741.063803 240.56245 
L 743.839957 240.317603 
L 744.765341 239.371516 
L 746.61611 237.918184 
L 747.541494 239.183773 
L 750.317647 239.082197 
L 751.243031 240.8114 
L 752.168416 239.832654 
L 753.0938 241.546298 
L 754.019184 242.251414 
L 756.795338 242.690665 
L 757.720722 242.222566 
L 758.646106 242.221688 
L 759.571491 242.406111 
L 760.496875 241.082739 
L 763.273028 240.422879 
L 764.198412 241.125628 
L 765.123797 241.550028 
L 766.049181 240.73444 
L 766.974566 239.690865 
L 769.750719 240.122258 
L 770.676103 241.377903 
L 771.601487 240.419266 
L 772.526872 238.475248 
L 773.452256 237.178814 
L 776.228409 235.413514 
L 777.153793 235.414019 
L 778.079178 234.839579 
L 779.004562 236.100586 
L 779.929947 236.237103 
L 782.7061 235.384486 
L 783.631484 234.002366 
L 784.556868 233.991129 
L 785.482253 234.599698 
L 786.407637 233.709379 
L 789.18379 233.646965 
L 790.109174 231.607762 
L 791.034559 232.724245 
L 791.959943 233.334285 
L 792.885328 233.512566 
L 795.661481 235.073971 
L 797.512249 238.777548 
L 798.437634 238.51497 
L 799.363018 238.849423 
L 802.139171 237.193993 
L 803.064555 236.117415 
L 803.98994 236.243999 
L 804.915324 235.222045 
L 805.840709 235.506037 
L 808.616862 232.653183 
L 809.542246 233.144929 
L 810.46763 234.012232 
L 811.393015 236.416865 
L 812.318399 237.866579 
L 815.094552 238.622333 
L 816.019936 239.053548 
L 816.945321 237.974626 
L 817.870705 240.100538 
L 818.79609 241.695031 
L 821.572243 240.829174 
L 822.497627 242.238265 
L 823.423011 240.835019 
L 824.348396 240.764183 
L 825.27378 242.391361 
L 828.049933 243.13053 
L 828.975318 244.094468 
L 829.900702 244.774993 
L 830.826086 243.435076 
L 831.751471 244.785761 
L 834.527624 245.9109 
L 835.453008 244.258316 
L 836.378392 244.085549 
L 837.303777 243.744577 
L 838.229161 244.528748 
L 841.930699 244.733549 
L 843.781467 245.158611 
L 844.706852 245.262019 
L 847.483005 245.158873 
L 848.408389 246.543913 
L 849.333773 245.914841 
L 850.259158 245.968415 
L 851.184542 245.506673 
L 853.960695 248.07575 
L 854.88608 248.105129 
L 855.811464 248.708895 
L 856.736848 248.772801 
L 857.662233 247.710013 
L 860.438386 248.523861 
L 861.36377 248.652626 
L 862.289154 249.60567 
L 863.214539 249.278608 
L 864.139923 247.808739 
L 867.841461 248.015612 
L 868.766845 246.254882 
L 869.692229 246.213699 
L 870.617614 247.379752 
L 873.393767 244.797124 
L 874.319151 246.257448 
L 875.244535 246.229462 
L 876.16992 245.894593 
L 877.095304 246.715028 
L 879.871457 247.233717 
L 880.796842 246.686477 
L 881.722226 247.614914 
L 882.64761 246.695937 
L 883.572995 247.396381 
L 886.349148 248.327917 
L 887.274532 248.34301 
L 888.199916 246.962375 
L 889.125301 246.729345 
L 890.050685 247.693866 
L 892.826838 247.344202 
L 893.752223 246.578034 
L 894.677607 244.296016 
L 896.528376 246.377167 
L 899.304529 246.8485 
L 900.229913 248.964327 
L 901.155297 248.748518 
L 902.080682 248.094466 
L 903.006066 248.366066 
L 905.782219 249.027809 
L 906.707604 248.934065 
L 907.632988 249.171793 
L 908.558372 249.244601 
L 909.483757 249.828972 
L 912.25991 250.44585 
L 913.185294 253.018126 
L 915.961447 254.704625 
L 918.7376 255.975856 
L 919.662985 255.723945 
L 921.513753 255.566446 
L 922.439138 255.183462 
L 925.215291 255.926341 
L 926.140675 255.47703 
L 927.066059 256.753044 
L 927.991444 256.754007 
L 928.916828 258.102804 
L 931.692981 257.59063 
L 932.618366 256.770728 
L 934.469134 254.686027 
L 935.394519 254.505346 
L 938.170672 255.344473 
L 939.096056 254.722329 
L 940.021441 255.559165 
L 940.946825 255.148784 
L 941.872209 255.990183 
L 945.573747 256.037093 
L 946.499131 256.202823 
L 947.424515 254.796351 
L 948.3499 252.268191 
L 951.126053 251.801551 
L 952.051437 252.137019 
L 952.976822 251.433976 
L 953.902206 253.644057 
L 957.603743 255.789843 
L 958.529128 256.873592 
L 959.454512 256.515045 
L 960.379896 255.952867 
L 961.305281 254.99971 
L 964.081434 254.30089 
L 965.006818 255.412999 
L 965.932203 255.104896 
L 966.857587 255.622612 
L 967.782971 257.4997 
L 970.559124 258.589488 
L 972.409893 256.326462 
L 973.335277 257.32679 
L 974.260662 258.090938 
L 977.036815 259.797979 
L 978.887584 261.437417 
L 979.812968 260.239829 
L 980.738352 259.538722 
L 984.43989 260.722225 
L 985.365274 259.725717 
L 986.290658 259.979551 
L 987.216043 258.486761 
L 989.992196 257.536077 
L 990.91758 258.128144 
L 991.842965 258.469524 
L 992.768349 257.670159 
L 996.469886 257.502787 
L 997.395271 257.870554 
L 998.320655 257.393967 
L 999.246039 258.337038 
L 1000.171424 258.029515 
L 1002.947577 256.786458 
L 1003.872961 256.741745 
L 1004.798346 255.661945 
L 1005.72373 253.688694 
L 1006.649114 253.913341 
L 1009.425267 253.065014 
L 1010.350652 253.328381 
L 1011.276036 252.056775 
L 1012.20142 251.890586 
L 1013.126805 250.402173 
L 1015.902958 250.862086 
L 1016.828342 250.43928 
L 1017.753727 250.519061 
L 1018.679111 249.987414 
L 1019.604495 249.203408 
L 1022.380648 250.01146 
L 1023.306033 250.02071 
L 1024.231417 250.360294 
L 1026.082186 251.845076 
L 1029.783723 250.869561 
L 1030.709108 252.21584 
L 1031.634492 250.423944 
L 1032.559876 251.197391 
L 1035.336029 250.903118 
L 1036.261414 252.28141 
L 1037.186798 251.763229 
L 1039.037567 254.322445 
L 1041.81372 255.152234 
L 1042.739104 256.629977 
L 1043.664489 254.414468 
L 1044.589873 253.522343 
L 1045.515257 254.221416 
L 1048.29141 254.28336 
L 1049.216795 255.672569 
L 1050.142179 255.973685 
L 1051.067564 255.844917 
L 1051.992948 255.187914 
L 1054.769101 256.715348 
L 1055.694485 258.131944 
L 1056.61987 257.613964 
L 1057.545254 258.448909 
L 1058.470638 259.887236 
L 1061.246791 258.989798 
L 1062.172176 258.827831 
L 1063.09756 259.274079 
L 1064.022945 259.455118 
L 1064.948329 258.959299 
L 1068.649866 259.049619 
L 1069.575251 258.534529 
L 1070.500635 257.139956 
L 1071.426019 257.919027 
L 1074.202172 257.511824 
L 1075.127557 257.583176 
L 1076.978326 260.415471 
L 1077.90371 260.323463 
L 1080.679863 261.28322 
L 1081.605247 259.896301 
L 1083.456016 262.303636 
L 1084.3814 262.024333 
L 1087.157553 261.616847 
L 1088.082938 261.627766 
L 1089.008322 262.187139 
L 1089.933707 261.803852 
L 1090.859091 260.644566 
L 1090.859091 260.644566 
" style="fill:none;stroke:#ff7f0e;stroke-linecap:square;stroke-width:1.5;"/>
   </g>
   <g id="line2d_21">
    <path clip-path="url(#p3685fb175d)" d="M 84.040909 201.71275 
L 85.891678 204.515979 
L 86.817062 202.24071 
L 89.593215 202.568031 
L 90.5186 203.735187 
L 91.443984 203.591087 
L 92.369368 207.380449 
L 93.294753 208.488174 
L 96.070906 206.521214 
L 96.99629 208.464113 
L 97.921674 211.151494 
L 98.847059 214.84918 
L 99.772443 217.110851 
L 102.548596 215.623901 
L 103.473981 220.074718 
L 104.399365 217.777632 
L 105.324749 215.135742 
L 106.250134 215.571646 
L 109.026287 175.946084 
L 110.877055 166.470115 
L 111.80244 164.17729 
L 112.727824 158.469666 
L 115.503977 148.448089 
L 117.354746 151.178905 
L 118.28013 152.937879 
L 119.205515 150.973798 
L 121.981668 149.091798 
L 122.907052 151.796159 
L 123.832436 151.595374 
L 124.757821 147.137076 
L 125.683205 145.636927 
L 128.459358 148.887678 
L 129.384743 154.801314 
L 130.310127 158.672897 
L 131.235511 151.858019 
L 132.160896 147.197413 
L 134.937049 148.424056 
L 135.862433 142.41598 
L 136.787818 147.883665 
L 138.638586 157.237875 
L 142.340124 144.989804 
L 143.265508 146.127563 
L 144.190892 148.717637 
L 145.116277 142.797131 
L 147.89243 138.362836 
L 148.817814 138.347193 
L 149.743199 143.890423 
L 150.668583 148.117462 
L 151.593967 142.061517 
L 154.37012 147.248407 
L 155.295505 141.801998 
L 156.220889 130.914656 
L 157.146273 135.201048 
L 158.071658 132.960486 
L 160.847811 125.083575 
L 161.773195 123.825615 
L 162.69858 124.075069 
L 163.623964 122.568287 
L 164.549348 124.030742 
L 167.325501 129.211915 
L 168.250886 128.758299 
L 169.17627 128.85278 
L 170.101654 130.222879 
L 171.027039 130.34681 
L 173.803192 130.512556 
L 174.728576 127.953819 
L 175.653961 122.789362 
L 176.579345 126.514854 
L 177.504729 121.639194 
L 180.280882 124.079659 
L 181.206267 129.451818 
L 182.131651 125.827904 
L 183.057035 129.679061 
L 183.98242 126.103564 
L 186.758573 132.209295 
L 187.683957 135.422023 
L 188.609342 125.171453 
L 189.534726 119.604492 
L 190.46011 125.110195 
L 193.236263 119.752073 
L 194.161648 139.264161 
L 195.087032 143.711135 
L 196.012416 146.463208 
L 196.937801 146.565035 
L 199.713954 145.064609 
L 200.639338 142.83075 
L 201.564723 146.800076 
L 202.490107 141.729105 
L 203.415491 135.448829 
L 206.191644 137.267238 
L 207.117029 126.915921 
L 208.042413 132.977589 
L 208.967797 131.895813 
L 209.893182 132.080507 
L 212.669335 127.904465 
L 213.594719 133.337702 
L 214.520104 140.866409 
L 215.445488 138.685575 
L 216.370872 144.446238 
L 219.147025 139.523042 
L 220.07241 139.201406 
L 220.997794 138.030662 
L 222.848563 120.050496 
L 225.624716 118.4042 
L 226.5501 117.707339 
L 227.475485 110.712312 
L 228.400869 104.657418 
L 229.326253 104.898845 
L 232.102406 116.054352 
L 233.027791 114.100513 
L 233.953175 108.408341 
L 234.878559 100.038579 
L 235.803944 106.252028 
L 238.580097 106.626899 
L 239.505481 109.103268 
L 240.430866 112.228337 
L 241.35625 112.345235 
L 242.281634 115.977099 
L 245.057787 115.115502 
L 245.983172 121.141965 
L 246.908556 121.923436 
L 247.833941 119.113997 
L 248.759325 127.576839 
L 251.535478 161.879064 
L 252.460862 158.526894 
L 253.386247 165.632164 
L 254.311631 158.995497 
L 255.237015 157.74501 
L 258.013168 164.836686 
L 258.938553 172.294082 
L 259.863937 171.970132 
L 260.789322 178.423767 
L 261.714706 178.406419 
L 264.490859 184.879156 
L 265.416243 185.149334 
L 266.341628 183.253678 
L 267.267012 186.235915 
L 268.192396 186.429624 
L 270.968549 185.530728 
L 271.893934 183.360493 
L 272.819318 186.088667 
L 273.744703 186.26037 
L 274.670087 187.070476 
L 277.44624 187.958044 
L 278.371624 189.191049 
L 279.297009 168.693386 
L 280.222393 171.15549 
L 281.147777 165.57545 
L 283.92393 168.903806 
L 284.849315 170.85867 
L 285.774699 168.859523 
L 286.700084 169.191873 
L 287.625468 171.798622 
L 290.401621 173.432374 
L 291.327005 170.323719 
L 292.25239 172.397921 
L 293.177774 172.907338 
L 294.103158 167.674853 
L 296.879311 166.951916 
L 297.804696 174.727864 
L 298.73008 173.869334 
L 299.655465 168.679721 
L 300.580849 172.67574 
L 303.357002 173.384011 
L 304.282386 173.47294 
L 305.207771 168.440667 
L 306.133155 175.063379 
L 307.058539 157.197505 
L 309.834693 161.776302 
L 310.760077 153.571486 
L 311.685461 156.028695 
L 312.610846 151.957104 
L 313.53623 147.248919 
L 316.312383 149.661532 
L 317.237767 145.040799 
L 318.163152 143.054293 
L 319.088536 136.58535 
L 320.01392 141.945995 
L 322.790074 148.631498 
L 323.715458 145.437051 
L 324.640842 138.961177 
L 325.566227 143.594132 
L 326.491611 142.165899 
L 329.267764 148.443009 
L 330.193148 153.178221 
L 331.118533 153.91084 
L 332.043917 155.555606 
L 332.969301 151.04406 
L 335.745455 150.52986 
L 336.670839 146.443965 
L 337.596223 140.933364 
L 338.521608 147.813679 
L 339.446992 145.120631 
L 342.223145 143.609986 
L 343.148529 151.084087 
L 344.073914 150.173368 
L 344.999298 145.952101 
L 345.924682 153.239291 
L 348.700836 156.044232 
L 349.62622 153.692962 
L 350.551604 157.720723 
L 351.476989 157.092852 
L 352.402373 156.098015 
L 355.178526 156.531239 
L 356.10391 161.064006 
L 357.029295 163.657532 
L 357.954679 168.568035 
L 358.880064 164.129035 
L 361.656217 170.063174 
L 362.581601 167.439274 
L 363.506985 164.319918 
L 364.43237 167.660934 
L 365.357754 160.333513 
L 368.133907 156.983298 
L 369.059291 146.795187 
L 369.984676 144.641719 
L 370.91006 143.120866 
L 371.835445 146.381886 
L 374.611598 143.327646 
L 375.536982 150.147277 
L 376.462366 146.673479 
L 377.387751 152.025775 
L 378.313135 153.192906 
L 381.089288 150.327916 
L 382.014672 152.022713 
L 382.940057 151.941867 
L 383.865441 155.253475 
L 384.790826 159.263705 
L 387.566979 155.381763 
L 388.492363 149.896989 
L 389.417747 141.032461 
L 390.343132 137.790229 
L 391.268516 142.948273 
L 394.044669 136.038404 
L 394.970053 139.296237 
L 395.895438 134.232933 
L 396.820822 127.7718 
L 397.746207 124.443066 
L 400.52236 127.02601 
L 401.447744 128.118217 
L 402.373128 127.134862 
L 403.298513 130.659532 
L 404.223897 137.369414 
L 407.00005 134.883396 
L 407.925434 139.376258 
L 408.850819 133.055141 
L 409.776203 124.587911 
L 410.701588 119.429781 
L 413.477741 114.532676 
L 414.403125 110.099717 
L 415.328509 109.918276 
L 416.253894 105.06444 
L 417.179278 109.334879 
L 419.955431 110.39023 
L 420.880816 111.454441 
L 421.8062 115.772148 
L 422.731584 118.125543 
L 423.656969 115.721045 
L 426.433122 118.008871 
L 427.358506 116.846819 
L 428.28389 113.335084 
L 429.209275 115.166338 
L 430.134659 115.025212 
L 432.910812 117.802342 
L 433.836197 116.5306 
L 434.761581 100.745215 
L 435.686965 105.979925 
L 436.61235 102.692112 
L 439.388503 102.799787 
L 440.313887 96.784864 
L 441.239271 94.865611 
L 442.164656 101.762977 
L 443.09004 110.689248 
L 445.866193 106.87538 
L 446.791578 135.24864 
L 447.716962 137.808795 
L 448.642346 143.05241 
L 449.567731 146.547436 
L 452.343884 139.965002 
L 453.269268 138.509402 
L 454.194652 139.241542 
L 455.120037 147.083177 
L 456.045421 140.099914 
L 458.821574 134.080707 
L 459.746959 133.831195 
L 460.672343 130.285146 
L 461.597727 131.480938 
L 462.523112 134.838506 
L 465.299265 138.033958 
L 466.224649 142.823089 
L 467.150033 144.338487 
L 469.000802 130.444169 
L 471.776955 132.77951 
L 472.70234 132.2758 
L 473.627724 139.613089 
L 474.553108 137.61466 
L 475.478493 134.294078 
L 478.254646 134.200368 
L 479.18003 144.029847 
L 480.105414 143.23417 
L 481.030799 134.575853 
L 481.956183 130.224092 
L 484.732336 126.042172 
L 485.657721 120.639565 
L 486.583105 123.768638 
L 487.508489 129.733678 
L 488.433874 126.201937 
L 491.210027 124.475421 
L 493.060795 118.654984 
L 493.98618 127.025139 
L 494.911564 133.112607 
L 497.687717 136.427192 
L 499.538486 150.736475 
L 500.46387 142.864695 
L 501.389255 145.94085 
L 504.165408 145.376118 
L 505.090792 146.666947 
L 506.016176 150.058942 
L 506.941561 147.249412 
L 507.866945 139.554151 
L 510.643098 134.962078 
L 511.568483 128.111707 
L 512.493867 126.812322 
L 513.419251 131.267049 
L 514.344636 130.452128 
L 517.120789 130.72453 
L 518.046173 138.505028 
L 518.971557 131.632984 
L 519.896942 120.108532 
L 520.822326 121.191255 
L 523.598479 127.697731 
L 524.523864 126.600715 
L 525.449248 131.916685 
L 526.374632 142.175124 
L 527.300017 143.487934 
L 530.07617 133.346016 
L 531.001554 129.386393 
L 531.926939 149.713982 
L 532.852323 152.474924 
L 533.777707 152.491573 
L 536.55386 148.222349 
L 537.479245 149.784824 
L 538.404629 148.446061 
L 539.330013 149.638891 
L 540.255398 143.556521 
L 543.031551 141.342182 
L 543.956935 132.474054 
L 544.88232 132.968899 
L 545.807704 136.987364 
L 546.733088 130.857274 
L 549.509241 141.32226 
L 550.434626 139.601644 
L 551.36001 140.722456 
L 552.285394 148.576203 
L 553.210779 147.734265 
L 555.986932 157.542443 
L 556.912316 158.179662 
L 557.837701 161.207102 
L 558.763085 157.125483 
L 559.688469 170.990847 
L 562.464622 171.805376 
L 563.390007 175.510668 
L 564.315391 179.834413 
L 565.240775 180.476235 
L 566.16616 175.195242 
L 568.942313 177.529204 
L 569.867697 167.5547 
L 570.793082 172.004485 
L 572.64385 174.619019 
L 575.420003 171.994114 
L 576.345388 176.203998 
L 577.270772 175.671418 
L 578.196156 175.945559 
L 579.121541 176.934059 
L 581.897694 170.607178 
L 582.823078 172.402969 
L 583.748463 164.911075 
L 584.673847 165.341251 
L 585.599231 161.416634 
L 588.375384 148.712341 
L 589.300769 154.342746 
L 590.226153 156.309316 
L 591.151537 158.654204 
L 592.076922 155.916662 
L 594.853075 152.507244 
L 595.778459 149.022896 
L 596.703844 150.216782 
L 597.629228 149.86729 
L 598.554612 149.936033 
L 601.330765 153.747853 
L 602.25615 151.546034 
L 603.181534 151.125124 
L 604.106918 155.498469 
L 605.032303 162.071634 
L 607.808456 159.62274 
L 608.73384 164.001879 
L 609.659225 165.047696 
L 610.584609 164.228428 
L 611.509993 167.344189 
L 614.286146 170.299046 
L 615.211531 172.705994 
L 616.136915 172.720747 
L 617.062299 174.592844 
L 617.987684 175.580587 
L 620.763837 174.56915 
L 621.689221 180.591709 
L 622.614606 175.131751 
L 623.53999 171.699057 
L 624.465374 172.69937 
L 627.241527 179.195278 
L 628.166912 182.450164 
L 629.092296 180.231019 
L 630.01768 175.181653 
L 630.943065 174.643609 
L 633.719218 179.140019 
L 634.644602 183.799006 
L 635.569987 183.642705 
L 636.495371 182.799585 
L 637.420755 183.152357 
L 640.196908 187.606348 
L 641.122293 188.005127 
L 642.047677 189.534382 
L 642.973061 184.852564 
L 643.898446 184.058935 
L 646.674599 180.509666 
L 648.525368 185.237148 
L 649.450752 189.081198 
L 650.376136 191.617933 
L 653.152289 189.333358 
L 654.077674 192.643069 
L 655.003058 188.903156 
L 655.928443 189.690128 
L 656.853827 188.217153 
L 659.62998 185.865539 
L 660.555364 189.160653 
L 661.480749 190.021016 
L 662.406133 193.400479 
L 663.331517 195.353294 
L 666.10767 196.662981 
L 667.033055 194.756677 
L 667.958439 197.811307 
L 668.883824 198.648985 
L 669.809208 195.372561 
L 672.585361 196.279875 
L 673.510745 182.188642 
L 674.43613 178.309585 
L 675.361514 185.418106 
L 676.286898 185.12471 
L 679.063051 184.873422 
L 679.988436 183.695825 
L 680.91382 182.252449 
L 681.839205 180.356611 
L 682.764589 184.016838 
L 685.540742 175.590923 
L 686.466126 180.101517 
L 687.391511 183.265193 
L 688.316895 180.244174 
L 689.242279 184.898302 
L 692.018432 186.858029 
L 693.869201 190.187011 
L 694.794586 190.328973 
L 695.71997 194.974196 
L 698.496123 194.237301 
L 699.421507 191.634483 
L 700.346892 189.505347 
L 701.272276 193.712688 
L 702.19766 196.666166 
L 704.973814 197.275349 
L 705.899198 192.990498 
L 706.824582 190.82896 
L 707.749967 187.372167 
L 708.675351 186.120828 
L 711.451504 187.592546 
L 712.376888 190.003767 
L 713.302273 189.654306 
L 714.227657 193.100953 
L 715.153041 187.004268 
L 717.929195 188.543368 
L 718.854579 190.19756 
L 719.779963 190.877083 
L 720.705348 196.635158 
L 721.630732 194.248702 
L 724.406885 195.197597 
L 725.332269 193.395366 
L 726.257654 192.724832 
L 727.183038 197.931209 
L 728.108422 194.127234 
L 730.884576 147.912821 
L 731.80996 150.846909 
L 732.735344 150.222385 
L 733.660729 146.841447 
L 734.586113 145.214115 
L 737.362266 151.410874 
L 738.28765 147.264047 
L 739.213035 147.093295 
L 740.138419 141.687246 
L 741.063803 145.841481 
L 743.839957 149.614939 
L 744.765341 148.463623 
L 746.61611 144.445609 
L 747.541494 143.085409 
L 750.317647 144.075255 
L 751.243031 147.248448 
L 752.168416 141.94714 
L 753.0938 140.041132 
L 754.019184 127.566631 
L 756.795338 119.599534 
L 757.720722 117.510972 
L 758.646106 148.567625 
L 760.496875 149.209954 
L 763.273028 143.484416 
L 764.198412 147.032791 
L 765.123797 152.213706 
L 766.049181 147.686582 
L 766.974566 145.680576 
L 769.750719 141.498542 
L 770.676103 146.781715 
L 771.601487 153.248277 
L 772.526872 154.681551 
L 773.452256 151.364708 
L 776.228409 149.488718 
L 777.153793 152.773686 
L 778.079178 151.676391 
L 779.004562 154.092128 
L 779.929947 153.246337 
L 782.7061 157.850546 
L 783.631484 157.341693 
L 784.556868 164.429175 
L 785.482253 173.558103 
L 786.407637 178.37934 
L 789.18379 186.564901 
L 790.109174 185.989756 
L 791.959943 193.676032 
L 792.885328 191.197829 
L 795.661481 191.479706 
L 796.586865 191.006508 
L 797.512249 187.691343 
L 798.437634 186.254413 
L 799.363018 181.102521 
L 802.139171 176.526042 
L 803.064555 177.405819 
L 803.98994 172.862418 
L 804.915324 173.715486 
L 805.840709 171.416493 
L 808.616862 166.220092 
L 809.542246 170.244032 
L 810.46763 176.956909 
L 811.393015 173.194972 
L 812.318399 172.853819 
L 815.094552 196.515526 
L 816.019936 193.731999 
L 816.945321 202.519601 
L 817.870705 202.467828 
L 818.79609 205.719126 
L 821.572243 203.934223 
L 822.497627 201.189898 
L 823.423011 202.875501 
L 824.348396 199.796062 
L 825.27378 202.545969 
L 828.049933 203.634638 
L 828.975318 203.781547 
L 829.900702 205.747464 
L 830.826086 206.015284 
L 831.751471 205.833969 
L 834.527624 207.730773 
L 835.453008 206.103889 
L 836.378392 203.874416 
L 837.303777 205.272177 
L 838.229161 200.408153 
L 841.005314 202.598774 
L 841.930699 158.521678 
L 842.856083 161.811723 
L 843.781467 158.710823 
L 844.706852 161.287997 
L 847.483005 164.801932 
L 848.408389 164.534515 
L 850.259158 155.744509 
L 853.960695 150.155513 
L 854.88608 154.955824 
L 855.811464 155.037284 
L 856.736848 156.405602 
L 857.662233 151.929039 
L 860.438386 147.379355 
L 861.36377 146.455506 
L 862.289154 147.020028 
L 863.214539 139.696916 
L 864.139923 133.867539 
L 866.916076 129.391424 
L 868.766845 120.735004 
L 869.692229 123.609535 
L 870.617614 155.025104 
L 873.393767 154.689478 
L 874.319151 150.075195 
L 875.244535 150.46808 
L 876.16992 147.050568 
L 877.095304 151.410429 
L 879.871457 146.295018 
L 880.796842 138.301521 
L 881.722226 140.325749 
L 882.64761 140.830972 
L 883.572995 143.286938 
L 886.349148 145.343861 
L 887.274532 146.282496 
L 888.199916 145.315781 
L 889.125301 148.613216 
L 890.050685 153.838285 
L 892.826838 152.97071 
L 893.752223 149.575075 
L 894.677607 143.549867 
L 895.602991 144.592005 
L 896.528376 151.73449 
L 899.304529 181.977548 
L 900.229913 184.055514 
L 901.155297 184.630907 
L 902.080682 183.730622 
L 903.006066 186.618822 
L 906.707604 185.488323 
L 907.632988 179.398962 
L 908.558372 178.577298 
L 909.483757 180.216564 
L 912.25991 181.661124 
L 913.185294 177.459873 
L 914.110678 179.764862 
L 915.036063 177.938727 
L 915.961447 179.708266 
L 918.7376 185.676972 
L 919.662985 187.128438 
L 920.588369 191.085844 
L 921.513753 190.701748 
L 922.439138 189.138198 
L 925.215291 182.71174 
L 926.140675 184.044439 
L 927.066059 175.011254 
L 927.991444 184.632921 
L 928.916828 179.5522 
L 931.692981 179.425097 
L 932.618366 181.808007 
L 933.54375 185.410561 
L 934.469134 189.606519 
L 935.394519 185.093126 
L 938.170672 182.291677 
L 939.096056 178.253274 
L 940.021441 180.608745 
L 940.946825 175.862668 
L 941.872209 179.050302 
L 944.648362 184.565655 
L 945.573747 185.388702 
L 946.499131 182.435261 
L 947.424515 185.002423 
L 948.3499 186.480995 
L 951.126053 182.529957 
L 952.051437 186.394371 
L 952.976822 185.111187 
L 953.902206 183.406811 
L 954.82759 187.429783 
L 957.603743 182.749536 
L 958.529128 184.530246 
L 959.454512 181.06985 
L 960.379896 182.827015 
L 961.305281 182.761678 
L 964.081434 181.214624 
L 965.006818 181.149789 
L 965.932203 188.466797 
L 966.857587 192.966636 
L 967.782971 193.088609 
L 970.559124 195.10885 
L 971.484509 192.634557 
L 972.409893 193.007747 
L 973.335277 188.048701 
L 974.260662 185.431058 
L 977.036815 180.355334 
L 977.962199 182.497658 
L 978.887584 182.999 
L 979.812968 182.448228 
L 980.738352 183.388069 
L 983.514505 137.160709 
L 984.43989 131.214897 
L 986.290658 117.711621 
L 987.216043 123.900718 
L 989.992196 137.028311 
L 990.91758 141.977367 
L 991.842965 137.362441 
L 992.768349 137.94783 
L 993.693733 139.185345 
L 996.469886 134.403781 
L 997.395271 138.366296 
L 998.320655 137.670534 
L 999.246039 136.621839 
L 1000.171424 138.49154 
L 1002.947577 138.350859 
L 1003.872961 137.30334 
L 1004.798346 131.004252 
L 1005.72373 133.687049 
L 1006.649114 129.741324 
L 1009.425267 129.077624 
L 1010.350652 122.945745 
L 1011.276036 122.519811 
L 1012.20142 182.099791 
L 1013.126805 184.096676 
L 1015.902958 182.058522 
L 1016.828342 184.277085 
L 1017.753727 179.789522 
L 1018.679111 176.965377 
L 1019.604495 177.942862 
L 1022.380648 177.832789 
L 1023.306033 173.249044 
L 1024.231417 165.298509 
L 1025.156801 161.512956 
L 1026.082186 166.442322 
L 1028.858339 167.279367 
L 1029.783723 162.456386 
L 1030.709108 166.375488 
L 1031.634492 167.216621 
L 1032.559876 168.54997 
L 1035.336029 165.241938 
L 1036.261414 166.439773 
L 1037.186798 169.687518 
L 1038.112182 177.839322 
L 1039.037567 183.10801 
L 1041.81372 167.201058 
L 1042.739104 165.994318 
L 1043.664489 166.908697 
L 1044.589873 158.561737 
L 1045.515257 161.087975 
L 1048.29141 156.945187 
L 1049.216795 159.06538 
L 1050.142179 158.047462 
L 1051.067564 160.921668 
L 1051.992948 154.867135 
L 1054.769101 158.346883 
L 1055.694485 154.418697 
L 1056.61987 152.365999 
L 1057.545254 149.182453 
L 1058.470638 155.657575 
L 1061.246791 150.891342 
L 1062.172176 154.657526 
L 1063.09756 149.794956 
L 1064.022945 150.817949 
L 1064.948329 149.782182 
L 1067.724482 152.130407 
L 1068.649866 152.492755 
L 1069.575251 150.130304 
L 1070.500635 157.898766 
L 1071.426019 155.830387 
L 1074.202172 152.234845 
L 1075.127557 151.224021 
L 1076.052941 160.724997 
L 1076.978326 157.325343 
L 1077.90371 156.544933 
L 1080.679863 148.838523 
L 1081.605247 145.181546 
L 1082.530632 146.227824 
L 1083.456016 153.290026 
L 1084.3814 157.405661 
L 1087.157553 155.150564 
L 1088.082938 155.479331 
L 1089.008322 150.452201 
L 1089.933707 150.533023 
L 1090.859091 149.881887 
L 1090.859091 149.881887 
" style="fill:none;stroke:#2ca02c;stroke-linecap:square;stroke-width:1.5;"/>
   </g>
   <g id="patch_3">
    <path d="M 33.7 273.56 
L 33.7 25.92 
" style="fill:none;stroke:#000000;stroke-linecap:square;stroke-linejoin:miter;stroke-width:0.8;"/>
   </g>
   <g id="patch_4">
    <path d="M 1141.2 273.56 
L 1141.2 25.92 
" style="fill:none;stroke:#000000;stroke-linecap:square;stroke-linejoin:miter;stroke-width:0.8;"/>
   </g>
   <g id="patch_5">
    <path d="M 33.7 273.56 
L 1141.2 273.56 
" style="fill:none;stroke:#000000;stroke-linecap:square;stroke-linejoin:miter;stroke-width:0.8;"/>
   </g>
   <g id="patch_6">
    <path d="M 33.7 25.92 
L 1141.2 25.92 
" style="fill:none;stroke:#000000;stroke-linecap:square;stroke-linejoin:miter;stroke-width:0.8;"/>
   </g>
   <g id="text_10">
    <!-- Net Value: (2010-02-01 ~ 2013-01-25) -->
    <g transform="translate(471.3425 19.92)scale(0.12 -0.12)">
     <defs>
      <path d="M 9.8125 72.90625 
L 23.09375 72.90625 
L 55.421875 11.921875 
L 55.421875 72.90625 
L 64.984375 72.90625 
L 64.984375 0 
L 51.703125 0 
L 19.390625 60.984375 
L 19.390625 0 
L 9.8125 0 
z
" id="DejaVuSans-78"/>
      <path d="M 56.203125 29.59375 
L 56.203125 25.203125 
L 14.890625 25.203125 
Q 15.484375 15.921875 20.484375 11.0625 
Q 25.484375 6.203125 34.421875 6.203125 
Q 39.59375 6.203125 44.453125 7.46875 
Q 49.3125 8.734375 54.109375 11.28125 
L 54.109375 2.78125 
Q 49.265625 0.734375 44.1875 -0.34375 
Q 39.109375 -1.421875 33.890625 -1.421875 
Q 20.796875 -1.421875 13.15625 6.1875 
Q 5.515625 13.8125 5.515625 26.8125 
Q 5.515625 40.234375 12.765625 48.109375 
Q 20.015625 56 32.328125 56 
Q 43.359375 56 49.78125 48.890625 
Q 56.203125 41.796875 56.203125 29.59375 
z
M 47.21875 32.234375 
Q 47.125 39.59375 43.09375 43.984375 
Q 39.0625 48.390625 32.421875 48.390625 
Q 24.90625 48.390625 20.390625 44.140625 
Q 15.875 39.890625 15.1875 32.171875 
z
" id="DejaVuSans-101"/>
      <path d="M 18.3125 70.21875 
L 18.3125 54.6875 
L 36.8125 54.6875 
L 36.8125 47.703125 
L 18.3125 47.703125 
L 18.3125 18.015625 
Q 18.3125 11.328125 20.140625 9.421875 
Q 21.96875 7.515625 27.59375 7.515625 
L 36.8125 7.515625 
L 36.8125 0 
L 27.59375 0 
Q 17.1875 0 13.234375 3.875 
Q 9.28125 7.765625 9.28125 18.015625 
L 9.28125 47.703125 
L 2.6875 47.703125 
L 2.6875 54.6875 
L 9.28125 54.6875 
L 9.28125 70.21875 
z
" id="DejaVuSans-116"/>
      <path id="DejaVuSans-32"/>
      <path d="M 28.609375 0 
L 0.78125 72.90625 
L 11.078125 72.90625 
L 34.1875 11.53125 
L 57.328125 72.90625 
L 67.578125 72.90625 
L 39.796875 0 
z
" id="DejaVuSans-86"/>
      <path d="M 34.28125 27.484375 
Q 23.390625 27.484375 19.1875 25 
Q 14.984375 22.515625 14.984375 16.5 
Q 14.984375 11.71875 18.140625 8.90625 
Q 21.296875 6.109375 26.703125 6.109375 
Q 34.1875 6.109375 38.703125 11.40625 
Q 43.21875 16.703125 43.21875 25.484375 
L 43.21875 27.484375 
z
M 52.203125 31.203125 
L 52.203125 0 
L 43.21875 0 
L 43.21875 8.296875 
Q 40.140625 3.328125 35.546875 0.953125 
Q 30.953125 -1.421875 24.3125 -1.421875 
Q 15.921875 -1.421875 10.953125 3.296875 
Q 6 8.015625 6 15.921875 
Q 6 25.140625 12.171875 29.828125 
Q 18.359375 34.515625 30.609375 34.515625 
L 43.21875 34.515625 
L 43.21875 35.40625 
Q 43.21875 41.609375 39.140625 45 
Q 35.0625 48.390625 27.6875 48.390625 
Q 23 48.390625 18.546875 47.265625 
Q 14.109375 46.140625 10.015625 43.890625 
L 10.015625 52.203125 
Q 14.9375 54.109375 19.578125 55.046875 
Q 24.21875 56 28.609375 56 
Q 40.484375 56 46.34375 49.84375 
Q 52.203125 43.703125 52.203125 31.203125 
z
" id="DejaVuSans-97"/>
      <path d="M 9.421875 75.984375 
L 18.40625 75.984375 
L 18.40625 0 
L 9.421875 0 
z
" id="DejaVuSans-108"/>
      <path d="M 8.5 21.578125 
L 8.5 54.6875 
L 17.484375 54.6875 
L 17.484375 21.921875 
Q 17.484375 14.15625 20.5 10.265625 
Q 23.53125 6.390625 29.59375 6.390625 
Q 36.859375 6.390625 41.078125 11.03125 
Q 45.3125 15.671875 45.3125 23.6875 
L 45.3125 54.6875 
L 54.296875 54.6875 
L 54.296875 0 
L 45.3125 0 
L 45.3125 8.40625 
Q 42.046875 3.421875 37.71875 1 
Q 33.40625 -1.421875 27.6875 -1.421875 
Q 18.265625 -1.421875 13.375 4.4375 
Q 8.5 10.296875 8.5 21.578125 
z
M 31.109375 56 
z
" id="DejaVuSans-117"/>
      <path d="M 11.71875 12.40625 
L 22.015625 12.40625 
L 22.015625 0 
L 11.71875 0 
z
M 11.71875 51.703125 
L 22.015625 51.703125 
L 22.015625 39.3125 
L 11.71875 39.3125 
z
" id="DejaVuSans-58"/>
      <path d="M 31 75.875 
Q 24.46875 64.65625 21.28125 53.65625 
Q 18.109375 42.671875 18.109375 31.390625 
Q 18.109375 20.125 21.3125 9.0625 
Q 24.515625 -2 31 -13.1875 
L 23.1875 -13.1875 
Q 15.875 -1.703125 12.234375 9.375 
Q 8.59375 20.453125 8.59375 31.390625 
Q 8.59375 42.28125 12.203125 53.3125 
Q 15.828125 64.359375 23.1875 75.875 
z
" id="DejaVuSans-40"/>
      <path d="M 4.890625 31.390625 
L 31.203125 31.390625 
L 31.203125 23.390625 
L 4.890625 23.390625 
z
" id="DejaVuSans-45"/>
      <path d="M 73.1875 39.890625 
L 73.1875 31.203125 
Q 68.0625 27.34375 63.6875 25.6875 
Q 59.328125 24.03125 54.59375 24.03125 
Q 49.21875 24.03125 42.09375 26.90625 
Q 41.546875 27.09375 41.3125 27.203125 
Q 40.96875 27.34375 40.234375 27.59375 
Q 32.671875 30.609375 28.078125 30.609375 
Q 23.78125 30.609375 19.578125 28.734375 
Q 15.375 26.859375 10.59375 22.796875 
L 10.59375 31.5 
Q 15.71875 35.359375 20.09375 37.03125 
Q 24.46875 38.71875 29.203125 38.71875 
Q 34.578125 38.71875 41.75 35.796875 
Q 42.234375 35.59375 42.484375 35.5 
Q 42.875 35.359375 43.5625 35.109375 
Q 51.125 32.078125 55.71875 32.078125 
Q 59.90625 32.078125 64.03125 33.9375 
Q 68.171875 35.796875 73.1875 39.890625 
z
" id="DejaVuSans-126"/>
      <path d="M 8.015625 75.875 
L 15.828125 75.875 
Q 23.140625 64.359375 26.78125 53.3125 
Q 30.421875 42.28125 30.421875 31.390625 
Q 30.421875 20.453125 26.78125 9.375 
Q 23.140625 -1.703125 15.828125 -13.1875 
L 8.015625 -13.1875 
Q 14.5 -2 17.703125 9.0625 
Q 20.90625 20.125 20.90625 31.390625 
Q 20.90625 42.671875 17.703125 53.65625 
Q 14.5 64.65625 8.015625 75.875 
z
" id="DejaVuSans-41"/>
     </defs>
     <use xlink:href="#DejaVuSans-78"/>
     <use x="74.804688" xlink:href="#DejaVuSans-101"/>
     <use x="136.328125" xlink:href="#DejaVuSans-116"/>
     <use x="175.537109" xlink:href="#DejaVuSans-32"/>
     <use x="207.324219" xlink:href="#DejaVuSans-86"/>
     <use x="267.982422" xlink:href="#DejaVuSans-97"/>
     <use x="329.261719" xlink:href="#DejaVuSans-108"/>
     <use x="357.044922" xlink:href="#DejaVuSans-117"/>
     <use x="420.423828" xlink:href="#DejaVuSans-101"/>
     <use x="481.947266" xlink:href="#DejaVuSans-58"/>
     <use x="515.638672" xlink:href="#DejaVuSans-32"/>
     <use x="547.425781" xlink:href="#DejaVuSans-40"/>
     <use x="586.439453" xlink:href="#DejaVuSans-50"/>
     <use x="650.0625" xlink:href="#DejaVuSans-48"/>
     <use x="713.685547" xlink:href="#DejaVuSans-49"/>
     <use x="777.308594" xlink:href="#DejaVuSans-48"/>
     <use x="840.931641" xlink:href="#DejaVuSans-45"/>
     <use x="877.015625" xlink:href="#DejaVuSans-48"/>
     <use x="940.638672" xlink:href="#DejaVuSans-50"/>
     <use x="1004.261719" xlink:href="#DejaVuSans-45"/>
     <use x="1040.345703" xlink:href="#DejaVuSans-48"/>
     <use x="1103.96875" xlink:href="#DejaVuSans-49"/>
     <use x="1167.591797" xlink:href="#DejaVuSans-32"/>
     <use x="1199.378906" xlink:href="#DejaVuSans-126"/>
     <use x="1283.167969" xlink:href="#DejaVuSans-32"/>
     <use x="1314.955078" xlink:href="#DejaVuSans-50"/>
     <use x="1378.578125" xlink:href="#DejaVuSans-48"/>
     <use x="1442.201172" xlink:href="#DejaVuSans-49"/>
     <use x="1505.824219" xlink:href="#DejaVuSans-51"/>
     <use x="1569.447266" xlink:href="#DejaVuSans-45"/>
     <use x="1605.53125" xlink:href="#DejaVuSans-48"/>
     <use x="1669.154297" xlink:href="#DejaVuSans-49"/>
     <use x="1732.777344" xlink:href="#DejaVuSans-45"/>
     <use x="1768.861328" xlink:href="#DejaVuSans-50"/>
     <use x="1832.484375" xlink:href="#DejaVuSans-53"/>
     <use x="1896.107422" xlink:href="#DejaVuSans-41"/>
    </g>
   </g>
   <g id="legend_1">
    <g id="patch_7">
     <path d="M 40.7 77.954375 
L 129.145312 77.954375 
Q 131.145312 77.954375 131.145312 75.954375 
L 131.145312 32.92 
Q 131.145312 30.92 129.145312 30.92 
L 40.7 30.92 
Q 38.7 30.92 38.7 32.92 
L 38.7 75.954375 
Q 38.7 77.954375 40.7 77.954375 
z
" style="fill:#ffffff;opacity:0.8;stroke:#cccccc;stroke-linejoin:miter;"/>
    </g>
    <g id="line2d_22">
     <path d="M 42.7 39.018437 
L 62.7 39.018437 
" style="fill:none;stroke:#1f77b4;stroke-linecap:square;stroke-width:1.5;"/>
    </g>
    <g id="line2d_23"/>
    <g id="text_11">
     <!-- strategy -->
     <g transform="translate(70.7 42.518437)scale(0.1 -0.1)">
      <defs>
       <path d="M 44.28125 53.078125 
L 44.28125 44.578125 
Q 40.484375 46.53125 36.375 47.5 
Q 32.28125 48.484375 27.875 48.484375 
Q 21.1875 48.484375 17.84375 46.4375 
Q 14.5 44.390625 14.5 40.28125 
Q 14.5 37.15625 16.890625 35.375 
Q 19.28125 33.59375 26.515625 31.984375 
L 29.59375 31.296875 
Q 39.15625 29.25 43.1875 25.515625 
Q 47.21875 21.78125 47.21875 15.09375 
Q 47.21875 7.46875 41.1875 3.015625 
Q 35.15625 -1.421875 24.609375 -1.421875 
Q 20.21875 -1.421875 15.453125 -0.5625 
Q 10.6875 0.296875 5.421875 2 
L 5.421875 11.28125 
Q 10.40625 8.6875 15.234375 7.390625 
Q 20.0625 6.109375 24.8125 6.109375 
Q 31.15625 6.109375 34.5625 8.28125 
Q 37.984375 10.453125 37.984375 14.40625 
Q 37.984375 18.0625 35.515625 20.015625 
Q 33.0625 21.96875 24.703125 23.78125 
L 21.578125 24.515625 
Q 13.234375 26.265625 9.515625 29.90625 
Q 5.8125 33.546875 5.8125 39.890625 
Q 5.8125 47.609375 11.28125 51.796875 
Q 16.75 56 26.8125 56 
Q 31.78125 56 36.171875 55.265625 
Q 40.578125 54.546875 44.28125 53.078125 
z
" id="DejaVuSans-115"/>
       <path d="M 41.109375 46.296875 
Q 39.59375 47.171875 37.8125 47.578125 
Q 36.03125 48 33.890625 48 
Q 26.265625 48 22.1875 43.046875 
Q 18.109375 38.09375 18.109375 28.8125 
L 18.109375 0 
L 9.078125 0 
L 9.078125 54.6875 
L 18.109375 54.6875 
L 18.109375 46.1875 
Q 20.953125 51.171875 25.484375 53.578125 
Q 30.03125 56 36.53125 56 
Q 37.453125 56 38.578125 55.875 
Q 39.703125 55.765625 41.0625 55.515625 
z
" id="DejaVuSans-114"/>
       <path d="M 45.40625 27.984375 
Q 45.40625 37.75 41.375 43.109375 
Q 37.359375 48.484375 30.078125 48.484375 
Q 22.859375 48.484375 18.828125 43.109375 
Q 14.796875 37.75 14.796875 27.984375 
Q 14.796875 18.265625 18.828125 12.890625 
Q 22.859375 7.515625 30.078125 7.515625 
Q 37.359375 7.515625 41.375 12.890625 
Q 45.40625 18.265625 45.40625 27.984375 
z
M 54.390625 6.78125 
Q 54.390625 -7.171875 48.1875 -13.984375 
Q 42 -20.796875 29.203125 -20.796875 
Q 24.46875 -20.796875 20.265625 -20.09375 
Q 16.0625 -19.390625 12.109375 -17.921875 
L 12.109375 -9.1875 
Q 16.0625 -11.328125 19.921875 -12.34375 
Q 23.78125 -13.375 27.78125 -13.375 
Q 36.625 -13.375 41.015625 -8.765625 
Q 45.40625 -4.15625 45.40625 5.171875 
L 45.40625 9.625 
Q 42.625 4.78125 38.28125 2.390625 
Q 33.9375 0 27.875 0 
Q 17.828125 0 11.671875 7.65625 
Q 5.515625 15.328125 5.515625 27.984375 
Q 5.515625 40.671875 11.671875 48.328125 
Q 17.828125 56 27.875 56 
Q 33.9375 56 38.28125 53.609375 
Q 42.625 51.21875 45.40625 46.390625 
L 45.40625 54.6875 
L 54.390625 54.6875 
z
" id="DejaVuSans-103"/>
       <path d="M 32.171875 -5.078125 
Q 28.375 -14.84375 24.75 -17.8125 
Q 21.140625 -20.796875 15.09375 -20.796875 
L 7.90625 -20.796875 
L 7.90625 -13.28125 
L 13.1875 -13.28125 
Q 16.890625 -13.28125 18.9375 -11.515625 
Q 21 -9.765625 23.484375 -3.21875 
L 25.09375 0.875 
L 2.984375 54.6875 
L 12.5 54.6875 
L 29.59375 11.921875 
L 46.6875 54.6875 
L 56.203125 54.6875 
z
" id="DejaVuSans-121"/>
      </defs>
      <use xlink:href="#DejaVuSans-115"/>
      <use x="52.099609" xlink:href="#DejaVuSans-116"/>
      <use x="91.308594" xlink:href="#DejaVuSans-114"/>
      <use x="132.421875" xlink:href="#DejaVuSans-97"/>
      <use x="193.701172" xlink:href="#DejaVuSans-116"/>
      <use x="232.910156" xlink:href="#DejaVuSans-101"/>
      <use x="294.433594" xlink:href="#DejaVuSans-103"/>
      <use x="357.910156" xlink:href="#DejaVuSans-121"/>
     </g>
    </g>
    <g id="line2d_24">
     <path d="M 42.7 53.696562 
L 62.7 53.696562 
" style="fill:none;stroke:#ff7f0e;stroke-linecap:square;stroke-width:1.5;"/>
    </g>
    <g id="line2d_25"/>
    <g id="text_12">
     <!-- benchmark -->
     <g transform="translate(70.7 57.196562)scale(0.1 -0.1)">
      <defs>
       <path d="M 48.6875 27.296875 
Q 48.6875 37.203125 44.609375 42.84375 
Q 40.53125 48.484375 33.40625 48.484375 
Q 26.265625 48.484375 22.1875 42.84375 
Q 18.109375 37.203125 18.109375 27.296875 
Q 18.109375 17.390625 22.1875 11.75 
Q 26.265625 6.109375 33.40625 6.109375 
Q 40.53125 6.109375 44.609375 11.75 
Q 48.6875 17.390625 48.6875 27.296875 
z
M 18.109375 46.390625 
Q 20.953125 51.265625 25.265625 53.625 
Q 29.59375 56 35.59375 56 
Q 45.5625 56 51.78125 48.09375 
Q 58.015625 40.1875 58.015625 27.296875 
Q 58.015625 14.40625 51.78125 6.484375 
Q 45.5625 -1.421875 35.59375 -1.421875 
Q 29.59375 -1.421875 25.265625 0.953125 
Q 20.953125 3.328125 18.109375 8.203125 
L 18.109375 0 
L 9.078125 0 
L 9.078125 75.984375 
L 18.109375 75.984375 
z
" id="DejaVuSans-98"/>
       <path d="M 54.890625 33.015625 
L 54.890625 0 
L 45.90625 0 
L 45.90625 32.71875 
Q 45.90625 40.484375 42.875 44.328125 
Q 39.84375 48.1875 33.796875 48.1875 
Q 26.515625 48.1875 22.3125 43.546875 
Q 18.109375 38.921875 18.109375 30.90625 
L 18.109375 0 
L 9.078125 0 
L 9.078125 54.6875 
L 18.109375 54.6875 
L 18.109375 46.1875 
Q 21.34375 51.125 25.703125 53.5625 
Q 30.078125 56 35.796875 56 
Q 45.21875 56 50.046875 50.171875 
Q 54.890625 44.34375 54.890625 33.015625 
z
" id="DejaVuSans-110"/>
       <path d="M 48.78125 52.59375 
L 48.78125 44.1875 
Q 44.96875 46.296875 41.140625 47.34375 
Q 37.3125 48.390625 33.40625 48.390625 
Q 24.65625 48.390625 19.8125 42.84375 
Q 14.984375 37.3125 14.984375 27.296875 
Q 14.984375 17.28125 19.8125 11.734375 
Q 24.65625 6.203125 33.40625 6.203125 
Q 37.3125 6.203125 41.140625 7.25 
Q 44.96875 8.296875 48.78125 10.40625 
L 48.78125 2.09375 
Q 45.015625 0.34375 40.984375 -0.53125 
Q 36.96875 -1.421875 32.421875 -1.421875 
Q 20.0625 -1.421875 12.78125 6.34375 
Q 5.515625 14.109375 5.515625 27.296875 
Q 5.515625 40.671875 12.859375 48.328125 
Q 20.21875 56 33.015625 56 
Q 37.15625 56 41.109375 55.140625 
Q 45.0625 54.296875 48.78125 52.59375 
z
" id="DejaVuSans-99"/>
       <path d="M 54.890625 33.015625 
L 54.890625 0 
L 45.90625 0 
L 45.90625 32.71875 
Q 45.90625 40.484375 42.875 44.328125 
Q 39.84375 48.1875 33.796875 48.1875 
Q 26.515625 48.1875 22.3125 43.546875 
Q 18.109375 38.921875 18.109375 30.90625 
L 18.109375 0 
L 9.078125 0 
L 9.078125 75.984375 
L 18.109375 75.984375 
L 18.109375 46.1875 
Q 21.34375 51.125 25.703125 53.5625 
Q 30.078125 56 35.796875 56 
Q 45.21875 56 50.046875 50.171875 
Q 54.890625 44.34375 54.890625 33.015625 
z
" id="DejaVuSans-104"/>
       <path d="M 52 44.1875 
Q 55.375 50.25 60.0625 53.125 
Q 64.75 56 71.09375 56 
Q 79.640625 56 84.28125 50.015625 
Q 88.921875 44.046875 88.921875 33.015625 
L 88.921875 0 
L 79.890625 0 
L 79.890625 32.71875 
Q 79.890625 40.578125 77.09375 44.375 
Q 74.3125 48.1875 68.609375 48.1875 
Q 61.625 48.1875 57.5625 43.546875 
Q 53.515625 38.921875 53.515625 30.90625 
L 53.515625 0 
L 44.484375 0 
L 44.484375 32.71875 
Q 44.484375 40.625 41.703125 44.40625 
Q 38.921875 48.1875 33.109375 48.1875 
Q 26.21875 48.1875 22.15625 43.53125 
Q 18.109375 38.875 18.109375 30.90625 
L 18.109375 0 
L 9.078125 0 
L 9.078125 54.6875 
L 18.109375 54.6875 
L 18.109375 46.1875 
Q 21.1875 51.21875 25.484375 53.609375 
Q 29.78125 56 35.6875 56 
Q 41.65625 56 45.828125 52.96875 
Q 50 49.953125 52 44.1875 
z
" id="DejaVuSans-109"/>
       <path d="M 9.078125 75.984375 
L 18.109375 75.984375 
L 18.109375 31.109375 
L 44.921875 54.6875 
L 56.390625 54.6875 
L 27.390625 29.109375 
L 57.625 0 
L 45.90625 0 
L 18.109375 26.703125 
L 18.109375 0 
L 9.078125 0 
z
" id="DejaVuSans-107"/>
      </defs>
      <use xlink:href="#DejaVuSans-98"/>
      <use x="63.476562" xlink:href="#DejaVuSans-101"/>
      <use x="125" xlink:href="#DejaVuSans-110"/>
      <use x="188.378906" xlink:href="#DejaVuSans-99"/>
      <use x="243.359375" xlink:href="#DejaVuSans-104"/>
      <use x="306.738281" xlink:href="#DejaVuSans-109"/>
      <use x="404.150391" xlink:href="#DejaVuSans-97"/>
      <use x="465.429688" xlink:href="#DejaVuSans-114"/>
      <use x="506.542969" xlink:href="#DejaVuSans-107"/>
     </g>
    </g>
    <g id="line2d_26">
     <path d="M 42.7 68.374687 
L 62.7 68.374687 
" style="fill:none;stroke:#2ca02c;stroke-linecap:square;stroke-width:1.5;"/>
    </g>
    <g id="line2d_27"/>
    <g id="text_13">
     <!-- excess -->
     <g transform="translate(70.7 71.874687)scale(0.1 -0.1)">
      <defs>
       <path d="M 54.890625 54.6875 
L 35.109375 28.078125 
L 55.90625 0 
L 45.3125 0 
L 29.390625 21.484375 
L 13.484375 0 
L 2.875 0 
L 24.125 28.609375 
L 4.6875 54.6875 
L 15.28125 54.6875 
L 29.78125 35.203125 
L 44.28125 54.6875 
z
" id="DejaVuSans-120"/>
      </defs>
      <use xlink:href="#DejaVuSans-101"/>
      <use x="59.773438" xlink:href="#DejaVuSans-120"/>
      <use x="117.203125" xlink:href="#DejaVuSans-99"/>
      <use x="172.183594" xlink:href="#DejaVuSans-101"/>
      <use x="233.707031" xlink:href="#DejaVuSans-115"/>
      <use x="285.806641" xlink:href="#DejaVuSans-115"/>
     </g>
    </g>
   </g>
  </g>
 </g>
 <defs>
  <clipPath id="p3685fb175d">
   <rect height="247.64" width="1107.5" x="33.7" y="25.92"/>
  </clipPath>
 </defs>
</svg>
