<?xml version="1.0" encoding="utf-8" standalone="no"?>
<!DOCTYPE svg PUBLIC "-//W3C//DTD SVG 1.1//EN"
  "http://www.w3.org/Graphics/SVG/1.1/DTD/svg11.dtd">
<!-- Created with matplotlib (https://matplotlib.org/) -->
<svg height="316.8pt" version="1.1" viewBox="0 0 1152 316.8" width="1152pt" xmlns="http://www.w3.org/2000/svg" xmlns:xlink="http://www.w3.org/1999/xlink">
 <metadata>
  <rdf:RDF xmlns:cc="http://creativecommons.org/ns#" xmlns:dc="http://purl.org/dc/elements/1.1/" xmlns:rdf="http://www.w3.org/1999/02/22-rdf-syntax-ns#">
   <cc:Work>
    <dc:type rdf:resource="http://purl.org/dc/dcmitype/StillImage"/>
    <dc:date>2023-07-20T10:44:14.023994</dc:date>
    <dc:format>image/svg+xml</dc:format>
    <dc:creator>
     <cc:Agent>
      <dc:title>Matplotlib v3.3.4, https://matplotlib.org/</dc:title>
     </cc:Agent>
    </dc:creator>
   </cc:Work>
  </rdf:RDF>
 </metadata>
 <defs>
  <style type="text/css">*{stroke-linecap:butt;stroke-linejoin:round;}</style>
 </defs>
 <g id="figure_1">
  <g id="patch_1">
   <path d="M 0 316.8 
L 1152 316.8 
L 1152 0 
L 0 0 
z
" style="fill:#ffffff;"/>
  </g>
  <g id="axes_1">
   <g id="patch_2">
    <path d="M 33.76 273.56 
L 1141.2 273.56 
L 1141.2 25.92 
L 33.76 25.92 
z
" style="fill:#ffffff;"/>
   </g>
   <g id="matplotlib.axis_1">
    <g id="xtick_1">
     <g id="line2d_1">
      <path clip-path="url(#p1075fb91ca)" d="M 54.487487 273.56 
L 54.487487 25.92 
" style="fill:none;stroke:#b0b0b0;stroke-linecap:square;stroke-width:0.8;"/>
     </g>
     <g id="line2d_2">
      <defs>
       <path d="M 0 0 
L 0 3.5 
" id="m2989324ced" style="stroke:#000000;stroke-width:0.8;"/>
      </defs>
      <g>
       <use style="stroke:#000000;stroke-width:0.8;" x="54.487487" xlink:href="#m2989324ced" y="273.56"/>
      </g>
     </g>
     <g id="text_1">
      <!-- 2010 -->
      <g transform="translate(57.246862 306.01)rotate(-90)scale(0.1 -0.1)">
       <defs>
        <path d="M 19.1875 8.296875 
L 53.609375 8.296875 
L 53.609375 0 
L 7.328125 0 
L 7.328125 8.296875 
Q 12.9375 14.109375 22.625 23.890625 
Q 32.328125 33.6875 34.8125 36.53125 
Q 39.546875 41.84375 41.421875 45.53125 
Q 43.3125 49.21875 43.3125 52.78125 
Q 43.3125 58.59375 39.234375 62.25 
Q 35.15625 65.921875 28.609375 65.921875 
Q 23.96875 65.921875 18.8125 64.3125 
Q 13.671875 62.703125 7.8125 59.421875 
L 7.8125 69.390625 
Q 13.765625 71.78125 18.9375 73 
Q 24.125 74.21875 28.421875 74.21875 
Q 39.75 74.21875 46.484375 68.546875 
Q 53.21875 62.890625 53.21875 53.421875 
Q 53.21875 48.921875 51.53125 44.890625 
Q 49.859375 40.875 45.40625 35.40625 
Q 44.1875 33.984375 37.640625 27.21875 
Q 31.109375 20.453125 19.1875 8.296875 
z
" id="DejaVuSans-50"/>
        <path d="M 31.78125 66.40625 
Q 24.171875 66.40625 20.328125 58.90625 
Q 16.5 51.421875 16.5 36.375 
Q 16.5 21.390625 20.328125 13.890625 
Q 24.171875 6.390625 31.78125 6.390625 
Q 39.453125 6.390625 43.28125 13.890625 
Q 47.125 21.390625 47.125 36.375 
Q 47.125 51.421875 43.28125 58.90625 
Q 39.453125 66.40625 31.78125 66.40625 
z
M 31.78125 74.21875 
Q 44.046875 74.21875 50.515625 64.515625 
Q 56.984375 54.828125 56.984375 36.375 
Q 56.984375 17.96875 50.515625 8.265625 
Q 44.046875 -1.421875 31.78125 -1.421875 
Q 19.53125 -1.421875 13.0625 8.265625 
Q 6.59375 17.96875 6.59375 36.375 
Q 6.59375 54.828125 13.0625 64.515625 
Q 19.53125 74.21875 31.78125 74.21875 
z
" id="DejaVuSans-48"/>
        <path d="M 12.40625 8.296875 
L 28.515625 8.296875 
L 28.515625 63.921875 
L 10.984375 60.40625 
L 10.984375 69.390625 
L 28.421875 72.90625 
L 38.28125 72.90625 
L 38.28125 8.296875 
L 54.390625 8.296875 
L 54.390625 0 
L 12.40625 0 
z
" id="DejaVuSans-49"/>
       </defs>
       <use xlink:href="#DejaVuSans-50"/>
       <use x="63.623047" xlink:href="#DejaVuSans-48"/>
       <use x="127.246094" xlink:href="#DejaVuSans-49"/>
       <use x="190.869141" xlink:href="#DejaVuSans-48"/>
      </g>
     </g>
    </g>
    <g id="xtick_2">
     <g id="line2d_3">
      <path clip-path="url(#p1075fb91ca)" d="M 392.234479 273.56 
L 392.234479 25.92 
" style="fill:none;stroke:#b0b0b0;stroke-linecap:square;stroke-width:0.8;"/>
     </g>
     <g id="line2d_4">
      <g>
       <use style="stroke:#000000;stroke-width:0.8;" x="392.234479" xlink:href="#m2989324ced" y="273.56"/>
      </g>
     </g>
     <g id="text_2">
      <!-- 2011 -->
      <g transform="translate(394.993854 306.01)rotate(-90)scale(0.1 -0.1)">
       <use xlink:href="#DejaVuSans-50"/>
       <use x="63.623047" xlink:href="#DejaVuSans-48"/>
       <use x="127.246094" xlink:href="#DejaVuSans-49"/>
       <use x="190.869141" xlink:href="#DejaVuSans-49"/>
      </g>
     </g>
    </g>
    <g id="xtick_3">
     <g id="line2d_5">
      <path clip-path="url(#p1075fb91ca)" d="M 729.981471 273.56 
L 729.981471 25.92 
" style="fill:none;stroke:#b0b0b0;stroke-linecap:square;stroke-width:0.8;"/>
     </g>
     <g id="line2d_6">
      <g>
       <use style="stroke:#000000;stroke-width:0.8;" x="729.981471" xlink:href="#m2989324ced" y="273.56"/>
      </g>
     </g>
     <g id="text_3">
      <!-- 2012 -->
      <g transform="translate(732.740846 306.01)rotate(-90)scale(0.1 -0.1)">
       <use xlink:href="#DejaVuSans-50"/>
       <use x="63.623047" xlink:href="#DejaVuSans-48"/>
       <use x="127.246094" xlink:href="#DejaVuSans-49"/>
       <use x="190.869141" xlink:href="#DejaVuSans-50"/>
      </g>
     </g>
    </g>
    <g id="xtick_4">
     <g id="line2d_7">
      <path clip-path="url(#p1075fb91ca)" d="M 1068.653797 273.56 
L 1068.653797 25.92 
" style="fill:none;stroke:#b0b0b0;stroke-linecap:square;stroke-width:0.8;"/>
     </g>
     <g id="line2d_8">
      <g>
       <use style="stroke:#000000;stroke-width:0.8;" x="1068.653797" xlink:href="#m2989324ced" y="273.56"/>
      </g>
     </g>
     <g id="text_4">
      <!-- 2013 -->
      <g transform="translate(1071.413172 306.01)rotate(-90)scale(0.1 -0.1)">
       <defs>
        <path d="M 40.578125 39.3125 
Q 47.65625 37.796875 51.625 33 
Q 55.609375 28.21875 55.609375 21.1875 
Q 55.609375 10.40625 48.1875 4.484375 
Q 40.765625 -1.421875 27.09375 -1.421875 
Q 22.515625 -1.421875 17.65625 -0.515625 
Q 12.796875 0.390625 7.625 2.203125 
L 7.625 11.71875 
Q 11.71875 9.328125 16.59375 8.109375 
Q 21.484375 6.890625 26.8125 6.890625 
Q 36.078125 6.890625 40.9375 10.546875 
Q 45.796875 14.203125 45.796875 21.1875 
Q 45.796875 27.640625 41.28125 31.265625 
Q 36.765625 34.90625 28.71875 34.90625 
L 20.21875 34.90625 
L 20.21875 43.015625 
L 29.109375 43.015625 
Q 36.375 43.015625 40.234375 45.921875 
Q 44.09375 48.828125 44.09375 54.296875 
Q 44.09375 59.90625 40.109375 62.90625 
Q 36.140625 65.921875 28.71875 65.921875 
Q 24.65625 65.921875 20.015625 65.03125 
Q 15.375 64.15625 9.8125 62.3125 
L 9.8125 71.09375 
Q 15.4375 72.65625 20.34375 73.4375 
Q 25.25 74.21875 29.59375 74.21875 
Q 40.828125 74.21875 47.359375 69.109375 
Q 53.90625 64.015625 53.90625 55.328125 
Q 53.90625 49.265625 50.4375 45.09375 
Q 46.96875 40.921875 40.578125 39.3125 
z
" id="DejaVuSans-51"/>
       </defs>
       <use xlink:href="#DejaVuSans-50"/>
       <use x="63.623047" xlink:href="#DejaVuSans-48"/>
       <use x="127.246094" xlink:href="#DejaVuSans-49"/>
       <use x="190.869141" xlink:href="#DejaVuSans-51"/>
      </g>
     </g>
    </g>
   </g>
   <g id="matplotlib.axis_2">
    <g id="ytick_1">
     <g id="line2d_9">
      <path clip-path="url(#p1075fb91ca)" d="M 33.76 239.045916 
L 1141.2 239.045916 
" style="fill:none;stroke:#b0b0b0;stroke-linecap:square;stroke-width:0.8;"/>
     </g>
     <g id="line2d_10">
      <defs>
       <path d="M 0 0 
L -3.5 0 
" id="mdf1aa456a3" style="stroke:#000000;stroke-width:0.8;"/>
      </defs>
      <g>
       <use style="stroke:#000000;stroke-width:0.8;" x="33.76" xlink:href="#mdf1aa456a3" y="239.045916"/>
      </g>
     </g>
     <g id="text_5">
      <!-- 0.4 -->
      <g transform="translate(10.856875 242.845135)scale(0.1 -0.1)">
       <defs>
        <path d="M 10.6875 12.40625 
L 21 12.40625 
L 21 0 
L 10.6875 0 
z
" id="DejaVuSans-46"/>
        <path d="M 37.796875 64.3125 
L 12.890625 25.390625 
L 37.796875 25.390625 
z
M 35.203125 72.90625 
L 47.609375 72.90625 
L 47.609375 25.390625 
L 58.015625 25.390625 
L 58.015625 17.1875 
L 47.609375 17.1875 
L 47.609375 0 
L 37.796875 0 
L 37.796875 17.1875 
L 4.890625 17.1875 
L 4.890625 26.703125 
z
" id="DejaVuSans-52"/>
       </defs>
       <use xlink:href="#DejaVuSans-48"/>
       <use x="63.623047" xlink:href="#DejaVuSans-46"/>
       <use x="95.410156" xlink:href="#DejaVuSans-52"/>
      </g>
     </g>
    </g>
    <g id="ytick_2">
     <g id="line2d_11">
      <path clip-path="url(#p1075fb91ca)" d="M 33.76 200.946914 
L 1141.2 200.946914 
" style="fill:none;stroke:#b0b0b0;stroke-linecap:square;stroke-width:0.8;"/>
     </g>
     <g id="line2d_12">
      <g>
       <use style="stroke:#000000;stroke-width:0.8;" x="33.76" xlink:href="#mdf1aa456a3" y="200.946914"/>
      </g>
     </g>
     <g id="text_6">
      <!-- 0.6 -->
      <g transform="translate(10.856875 204.746133)scale(0.1 -0.1)">
       <defs>
        <path d="M 33.015625 40.375 
Q 26.375 40.375 22.484375 35.828125 
Q 18.609375 31.296875 18.609375 23.390625 
Q 18.609375 15.53125 22.484375 10.953125 
Q 26.375 6.390625 33.015625 6.390625 
Q 39.65625 6.390625 43.53125 10.953125 
Q 47.40625 15.53125 47.40625 23.390625 
Q 47.40625 31.296875 43.53125 35.828125 
Q 39.65625 40.375 33.015625 40.375 
z
M 52.59375 71.296875 
L 52.59375 62.3125 
Q 48.875 64.0625 45.09375 64.984375 
Q 41.3125 65.921875 37.59375 65.921875 
Q 27.828125 65.921875 22.671875 59.328125 
Q 17.53125 52.734375 16.796875 39.40625 
Q 19.671875 43.65625 24.015625 45.921875 
Q 28.375 48.1875 33.59375 48.1875 
Q 44.578125 48.1875 50.953125 41.515625 
Q 57.328125 34.859375 57.328125 23.390625 
Q 57.328125 12.15625 50.6875 5.359375 
Q 44.046875 -1.421875 33.015625 -1.421875 
Q 20.359375 -1.421875 13.671875 8.265625 
Q 6.984375 17.96875 6.984375 36.375 
Q 6.984375 53.65625 15.1875 63.9375 
Q 23.390625 74.21875 37.203125 74.21875 
Q 40.921875 74.21875 44.703125 73.484375 
Q 48.484375 72.75 52.59375 71.296875 
z
" id="DejaVuSans-54"/>
       </defs>
       <use xlink:href="#DejaVuSans-48"/>
       <use x="63.623047" xlink:href="#DejaVuSans-46"/>
       <use x="95.410156" xlink:href="#DejaVuSans-54"/>
      </g>
     </g>
    </g>
    <g id="ytick_3">
     <g id="line2d_13">
      <path clip-path="url(#p1075fb91ca)" d="M 33.76 162.847911 
L 1141.2 162.847911 
" style="fill:none;stroke:#b0b0b0;stroke-linecap:square;stroke-width:0.8;"/>
     </g>
     <g id="line2d_14">
      <g>
       <use style="stroke:#000000;stroke-width:0.8;" x="33.76" xlink:href="#mdf1aa456a3" y="162.847911"/>
      </g>
     </g>
     <g id="text_7">
      <!-- 0.8 -->
      <g transform="translate(10.856875 166.64713)scale(0.1 -0.1)">
       <defs>
        <path d="M 31.78125 34.625 
Q 24.75 34.625 20.71875 30.859375 
Q 16.703125 27.09375 16.703125 20.515625 
Q 16.703125 13.921875 20.71875 10.15625 
Q 24.75 6.390625 31.78125 6.390625 
Q 38.8125 6.390625 42.859375 10.171875 
Q 46.921875 13.96875 46.921875 20.515625 
Q 46.921875 27.09375 42.890625 30.859375 
Q 38.875 34.625 31.78125 34.625 
z
M 21.921875 38.8125 
Q 15.578125 40.375 12.03125 44.71875 
Q 8.5 49.078125 8.5 55.328125 
Q 8.5 64.0625 14.71875 69.140625 
Q 20.953125 74.21875 31.78125 74.21875 
Q 42.671875 74.21875 48.875 69.140625 
Q 55.078125 64.0625 55.078125 55.328125 
Q 55.078125 49.078125 51.53125 44.71875 
Q 48 40.375 41.703125 38.8125 
Q 48.828125 37.15625 52.796875 32.3125 
Q 56.78125 27.484375 56.78125 20.515625 
Q 56.78125 9.90625 50.3125 4.234375 
Q 43.84375 -1.421875 31.78125 -1.421875 
Q 19.734375 -1.421875 13.25 4.234375 
Q 6.78125 9.90625 6.78125 20.515625 
Q 6.78125 27.484375 10.78125 32.3125 
Q 14.796875 37.15625 21.921875 38.8125 
z
M 18.3125 54.390625 
Q 18.3125 48.734375 21.84375 45.5625 
Q 25.390625 42.390625 31.78125 42.390625 
Q 38.140625 42.390625 41.71875 45.5625 
Q 45.3125 48.734375 45.3125 54.390625 
Q 45.3125 60.0625 41.71875 63.234375 
Q 38.140625 66.40625 31.78125 66.40625 
Q 25.390625 66.40625 21.84375 63.234375 
Q 18.3125 60.0625 18.3125 54.390625 
z
" id="DejaVuSans-56"/>
       </defs>
       <use xlink:href="#DejaVuSans-48"/>
       <use x="63.623047" xlink:href="#DejaVuSans-46"/>
       <use x="95.410156" xlink:href="#DejaVuSans-56"/>
      </g>
     </g>
    </g>
    <g id="ytick_4">
     <g id="line2d_15">
      <path clip-path="url(#p1075fb91ca)" d="M 33.76 124.748909 
L 1141.2 124.748909 
" style="fill:none;stroke:#b0b0b0;stroke-linecap:square;stroke-width:0.8;"/>
     </g>
     <g id="line2d_16">
      <g>
       <use style="stroke:#000000;stroke-width:0.8;" x="33.76" xlink:href="#mdf1aa456a3" y="124.748909"/>
      </g>
     </g>
     <g id="text_8">
      <!-- 1.0 -->
      <g transform="translate(10.856875 128.548128)scale(0.1 -0.1)">
       <use xlink:href="#DejaVuSans-49"/>
       <use x="63.623047" xlink:href="#DejaVuSans-46"/>
       <use x="95.410156" xlink:href="#DejaVuSans-48"/>
      </g>
     </g>
    </g>
    <g id="ytick_5">
     <g id="line2d_17">
      <path clip-path="url(#p1075fb91ca)" d="M 33.76 86.649906 
L 1141.2 86.649906 
" style="fill:none;stroke:#b0b0b0;stroke-linecap:square;stroke-width:0.8;"/>
     </g>
     <g id="line2d_18">
      <g>
       <use style="stroke:#000000;stroke-width:0.8;" x="33.76" xlink:href="#mdf1aa456a3" y="86.649906"/>
      </g>
     </g>
     <g id="text_9">
      <!-- 1.2 -->
      <g transform="translate(10.856875 90.449125)scale(0.1 -0.1)">
       <use xlink:href="#DejaVuSans-49"/>
       <use x="63.623047" xlink:href="#DejaVuSans-46"/>
       <use x="95.410156" xlink:href="#DejaVuSans-50"/>
      </g>
     </g>
    </g>
    <g id="ytick_6">
     <g id="line2d_19">
      <path clip-path="url(#p1075fb91ca)" d="M 33.76 48.550904 
L 1141.2 48.550904 
" style="fill:none;stroke:#b0b0b0;stroke-linecap:square;stroke-width:0.8;"/>
     </g>
     <g id="line2d_20">
      <g>
       <use style="stroke:#000000;stroke-width:0.8;" x="33.76" xlink:href="#mdf1aa456a3" y="48.550904"/>
      </g>
     </g>
     <g id="text_10">
      <!-- 1.4 -->
      <g transform="translate(10.856875 52.350123)scale(0.1 -0.1)">
       <use xlink:href="#DejaVuSans-49"/>
       <use x="63.623047" xlink:href="#DejaVuSans-46"/>
       <use x="95.410156" xlink:href="#DejaVuSans-52"/>
      </g>
     </g>
    </g>
   </g>
   <g id="line2d_21">
    <path clip-path="url(#p1075fb91ca)" d="M 84.098182 121.170357 
L 85.023516 115.432877 
L 85.94885 121.818337 
L 86.874184 124.687816 
L 89.650187 120.865121 
L 90.575521 126.247913 
L 91.500856 116.786369 
L 92.42619 119.405985 
L 93.351524 114.511062 
L 96.127527 118.427897 
L 97.052861 117.232892 
L 97.978195 125.505557 
L 98.903529 128.744484 
L 99.828864 128.631665 
L 102.604866 126.295731 
L 103.530201 122.300176 
L 104.455535 119.891507 
L 105.380869 114.673719 
L 106.306203 125.01436 
L 109.082206 125.802134 
L 110.00754 136.513216 
L 110.932874 135.284873 
L 111.858209 136.789198 
L 112.783543 130.361258 
L 115.559545 130.900453 
L 116.48488 134.673816 
L 117.410214 125.436464 
L 118.335548 129.245505 
L 119.260882 128.226869 
L 122.036885 127.393319 
L 122.962219 125.996787 
L 123.887553 130.447332 
L 124.812888 131.047611 
L 125.738222 129.824271 
L 128.514225 133.480371 
L 129.439559 125.124098 
L 130.364893 129.231649 
L 131.290227 134.259571 
L 132.215561 127.175783 
L 134.991564 131.903679 
L 136.842233 123.882686 
L 137.767567 142.383819 
L 138.692901 137.698271 
L 142.394238 135.356156 
L 143.319572 135.345336 
L 144.244906 141.475859 
L 145.170241 142.066644 
L 147.946243 149.065305 
L 148.871578 150.480309 
L 149.796912 148.156736 
L 150.722246 152.970517 
L 151.64758 152.101085 
L 154.423583 154.584349 
L 155.348917 147.401752 
L 156.274251 144.697716 
L 157.199586 151.657846 
L 158.12492 151.120531 
L 160.900922 147.148379 
L 161.826257 150.055212 
L 162.751591 155.415813 
L 163.676925 153.987087 
L 164.602259 156.859262 
L 168.303596 123.509768 
L 169.22893 121.889227 
L 170.154265 118.75013 
L 171.079599 118.704329 
L 173.855602 118.989092 
L 174.780936 117.264048 
L 175.70627 113.30741 
L 176.631604 112.436879 
L 177.556939 117.85081 
L 180.332941 118.970108 
L 181.258275 123.18012 
L 182.18361 121.664748 
L 183.108944 111.453256 
L 184.034278 118.195937 
L 186.810281 120.881181 
L 187.735615 123.836311 
L 188.660949 123.701305 
L 189.586283 125.607114 
L 190.511618 129.522005 
L 193.28762 133.382695 
L 194.212955 126.611941 
L 195.138289 128.475495 
L 196.063623 124.1619 
L 196.988957 123.746148 
L 199.76496 121.072707 
L 200.690294 121.479386 
L 201.615628 120.391104 
L 202.540963 117.554717 
L 203.466297 121.795923 
L 206.242299 123.920935 
L 207.167634 120.859037 
L 208.092968 118.313024 
L 209.018302 112.777641 
L 209.943636 118.148202 
L 212.719639 114.254457 
L 213.644973 115.722838 
L 214.570307 114.261996 
L 215.495642 125.577808 
L 216.420976 122.076853 
L 219.196979 116.17727 
L 220.122313 107.280852 
L 221.047647 101.035102 
L 221.972981 115.020382 
L 222.898316 111.619241 
L 225.674318 105.540776 
L 226.599652 96.256613 
L 227.524987 98.559896 
L 228.450321 99.068156 
L 229.375655 97.083359 
L 232.151658 101.01998 
L 233.076992 95.740453 
L 234.002326 96.329371 
L 234.92766 97.73902 
L 235.852995 91.626186 
L 238.628997 90.998493 
L 239.554332 98.2673 
L 240.479666 98.554207 
L 241.405 92.586916 
L 242.330334 91.124933 
L 245.106337 85.163003 
L 246.031671 79.430869 
L 246.957005 77.407126 
L 247.88234 79.553268 
L 248.807674 93.506028 
L 251.583676 73.881198 
L 252.509011 72.826699 
L 253.434345 66.506584 
L 254.359679 61.563218 
L 255.285013 59.553597 
L 258.061016 50.925627 
L 258.98635 58.80208 
L 259.911684 59.34 
L 260.837019 54.98467 
L 261.762353 55.133173 
L 264.538356 50.161003 
L 265.46369 52.448411 
L 266.389024 46.169912 
L 267.314358 46.807226 
L 268.239693 49.106448 
L 271.015695 47.286185 
L 271.941029 52.244925 
L 272.866364 49.321106 
L 273.791698 47.048137 
L 274.717032 45.99072 
L 277.493035 37.176364 
L 278.418369 44.686543 
L 279.343703 101.261908 
L 280.269037 109.565615 
L 281.194372 111.048542 
L 283.970374 111.245914 
L 284.895709 108.493295 
L 285.821043 107.488543 
L 286.746377 113.097487 
L 287.671711 108.151295 
L 290.447714 109.939283 
L 291.373048 98.897008 
L 292.298382 96.462503 
L 293.223717 92.771777 
L 294.149051 94.172709 
L 296.925053 95.85258 
L 297.850388 96.83259 
L 298.775722 104.34751 
L 299.701056 108.463583 
L 300.62639 107.913543 
L 303.402393 99.827597 
L 304.327727 107.502215 
L 305.253061 108.318646 
L 306.178396 115.306123 
L 307.10373 109.919296 
L 310.805067 112.420415 
L 311.730401 117.950734 
L 312.655735 111.732371 
L 313.58107 113.433023 
L 317.282406 115.872179 
L 318.207741 120.84788 
L 319.133075 119.551401 
L 320.058409 123.686448 
L 322.834412 126.149673 
L 323.759746 122.510735 
L 324.68508 118.087453 
L 325.610414 115.099883 
L 326.535749 113.365692 
L 329.311751 114.606245 
L 330.237086 122.402907 
L 332.087754 128.40826 
L 333.013088 126.344728 
L 335.789091 107.887834 
L 336.714425 100.695959 
L 337.639759 104.156399 
L 338.565094 106.184592 
L 339.490428 98.565716 
L 342.26643 95.987284 
L 343.191765 101.524883 
L 344.117099 97.138224 
L 345.042433 101.180797 
L 345.967767 101.370696 
L 348.74377 97.448584 
L 349.669104 95.325129 
L 350.594439 98.738077 
L 351.519773 94.623368 
L 352.445107 94.931495 
L 355.22111 95.103145 
L 356.146444 92.255144 
L 357.071778 93.250588 
L 357.997112 94.727157 
L 358.922447 94.026694 
L 361.698449 91.297694 
L 362.623783 92.081427 
L 363.549118 124.09822 
L 364.474452 130.860899 
L 365.399786 126.747088 
L 368.175789 127.783885 
L 370.026457 134.772381 
L 370.951791 134.076451 
L 371.877126 137.58888 
L 374.653128 138.215119 
L 375.578463 136.178842 
L 376.503797 139.6957 
L 377.429131 141.17032 
L 382.055802 138.286495 
L 382.981136 141.089216 
L 383.906471 138.237719 
L 384.831805 139.338756 
L 387.607807 137.300148 
L 388.533142 140.100816 
L 389.458476 137.317454 
L 390.38381 135.105715 
L 391.309144 140.438911 
L 394.085147 124.315458 
L 395.010481 121.018329 
L 395.935816 118.463539 
L 396.86115 115.496487 
L 397.786484 110.180609 
L 400.562487 108.55459 
L 401.487821 108.468191 
L 402.413155 101.382762 
L 403.338489 99.543481 
L 404.263824 102.79387 
L 407.039826 105.68186 
L 407.96516 107.12118 
L 408.890495 105.81067 
L 409.815829 105.870368 
L 410.741163 107.901119 
L 413.517166 114.619859 
L 414.4425 120.608629 
L 415.367834 120.396834 
L 416.293168 124.518543 
L 417.218503 122.079749 
L 419.994505 126.975086 
L 420.91984 105.591406 
L 421.845174 100.796408 
L 422.770508 106.803138 
L 423.695842 100.24602 
L 426.471845 96.265112 
L 427.397179 98.760837 
L 428.322513 102.270961 
L 429.247848 98.850591 
L 430.173182 93.253785 
L 432.949184 90.392317 
L 433.874519 93.956265 
L 434.799853 87.602727 
L 435.725187 84.90088 
L 436.650521 85.628791 
L 439.426524 86.826047 
L 440.351858 89.548015 
L 441.277193 89.102323 
L 442.202527 93.054439 
L 443.127861 93.932158 
L 445.903864 88.646801 
L 446.829198 124.469365 
L 447.754532 122.163171 
L 448.679866 130.203367 
L 449.605201 130.59023 
L 452.381203 126.254974 
L 453.306537 118.504006 
L 454.231872 121.215834 
L 455.157206 123.372244 
L 456.08254 114.531047 
L 458.858543 112.191016 
L 460.709211 119.299054 
L 461.634545 117.083665 
L 462.55988 118.622731 
L 465.335882 120.428921 
L 466.261217 129.105677 
L 467.186551 131.812725 
L 468.111885 138.354241 
L 469.037219 134.561201 
L 471.813222 134.319091 
L 472.738556 137.337822 
L 473.66389 138.940869 
L 475.514559 130.141955 
L 478.290561 131.103956 
L 479.215896 125.88098 
L 480.14123 123.499804 
L 481.066564 124.688337 
L 481.991898 126.135477 
L 484.767901 127.178489 
L 485.693235 130.416561 
L 486.61857 128.934843 
L 487.543904 127.752389 
L 488.469238 124.98812 
L 491.245241 133.293575 
L 492.170575 127.744617 
L 493.095909 127.454565 
L 494.021243 124.883467 
L 494.946578 124.01486 
L 497.72258 128.735798 
L 498.647914 131.310882 
L 499.573249 126.67461 
L 500.498583 123.639922 
L 501.423917 129.98762 
L 504.19992 139.829618 
L 505.125254 137.186392 
L 506.050588 138.181189 
L 506.975922 134.916102 
L 507.901257 133.462824 
L 510.677259 135.212119 
L 511.602594 129.600536 
L 512.527928 131.502135 
L 513.453262 135.310175 
L 514.378596 131.745532 
L 517.154599 131.702022 
L 518.079933 126.556294 
L 519.930602 118.851354 
L 520.855936 121.922095 
L 523.631939 120.914495 
L 524.557273 121.584971 
L 525.482607 134.174352 
L 526.407941 142.851166 
L 527.333275 145.845102 
L 530.109278 139.192707 
L 531.034612 140.904169 
L 531.959947 146.423456 
L 532.885281 154.067964 
L 533.810615 156.092053 
L 536.586618 155.55714 
L 537.511952 158.120656 
L 538.437286 164.379334 
L 539.36262 168.565263 
L 540.287955 171.270439 
L 543.063957 167.650658 
L 543.989291 162.585897 
L 544.914626 163.297686 
L 545.83996 165.19517 
L 546.765294 160.579689 
L 549.541297 163.163342 
L 550.466631 162.651393 
L 551.391965 162.721818 
L 552.317299 164.727173 
L 553.242634 166.417139 
L 556.018636 169.838842 
L 556.943971 172.516843 
L 557.869305 171.412159 
L 558.794639 168.815663 
L 559.719973 193.357187 
L 562.495976 194.896817 
L 563.42131 195.687424 
L 565.271979 204.069963 
L 566.197313 205.279697 
L 568.973316 206.546666 
L 569.89865 205.523587 
L 570.823984 206.548815 
L 571.749318 212.752186 
L 572.674652 214.933252 
L 575.450655 217.83709 
L 576.375989 219.404737 
L 577.301324 216.503315 
L 578.226658 219.352079 
L 579.151992 221.524597 
L 582.853329 216.635042 
L 583.778663 216.847583 
L 584.703997 217.924581 
L 585.629332 218.510309 
L 588.405334 187.220153 
L 589.330668 185.425058 
L 590.256003 185.057689 
L 591.181337 186.058915 
L 592.106671 185.180674 
L 594.882674 185.504578 
L 595.808008 184.581218 
L 596.733342 180.130551 
L 597.658676 179.605334 
L 598.584011 183.219054 
L 601.360013 182.076364 
L 602.285348 182.658415 
L 605.06135 173.879957 
L 607.837353 169.876139 
L 608.762687 169.626297 
L 609.688021 173.414306 
L 610.613356 179.334539 
L 611.53869 178.024603 
L 614.314693 183.83662 
L 615.240027 187.267017 
L 616.165361 183.083449 
L 617.090695 196.872001 
L 618.016029 194.617168 
L 620.792032 196.191528 
L 621.717366 198.989415 
L 622.642701 197.021613 
L 623.568035 198.874205 
L 624.493369 198.959729 
L 627.269372 204.796582 
L 628.194706 207.851711 
L 629.12004 210.046191 
L 630.045374 209.588016 
L 630.970709 208.144928 
L 633.746711 206.320257 
L 634.672045 208.06508 
L 635.59738 205.837227 
L 636.522714 203.080615 
L 637.448048 203.737922 
L 640.224051 205.478897 
L 641.149385 205.088262 
L 642.074719 203.232347 
L 643.000053 206.585392 
L 643.925388 205.402548 
L 646.70139 208.791614 
L 647.626725 205.706898 
L 648.552059 208.26206 
L 649.477393 205.358135 
L 650.402727 207.492287 
L 653.17873 206.364465 
L 654.104064 206.901483 
L 655.029398 205.023933 
L 655.954733 203.972425 
L 656.880067 204.147166 
L 660.581404 211.590755 
L 662.432072 217.707759 
L 663.357406 219.395162 
L 666.133409 218.147041 
L 667.058743 220.707307 
L 667.984078 221.098876 
L 668.909412 218.70512 
L 669.834746 220.732591 
L 672.610749 222.00727 
L 673.536083 216.197283 
L 674.461417 220.73078 
L 675.386751 224.504832 
L 676.312086 223.873069 
L 679.088088 221.808292 
L 680.013422 222.822078 
L 680.938757 224.529616 
L 681.864091 227.228739 
L 682.789425 225.312935 
L 685.565428 223.778476 
L 686.490762 222.726371 
L 687.416096 220.430859 
L 688.34143 215.293604 
L 689.266765 217.254954 
L 692.042767 215.719317 
L 692.968102 215.91327 
L 693.893436 213.799907 
L 694.81877 218.36653 
L 695.744104 217.36727 
L 698.520107 218.65405 
L 699.445441 222.697113 
L 700.370775 219.911853 
L 701.29611 231.720016 
L 702.221444 236.278182 
L 704.997447 239.748028 
L 705.922781 238.118085 
L 706.848115 240.488904 
L 707.773449 238.522552 
L 708.698783 241.566929 
L 711.474786 240.591052 
L 712.40012 240.553057 
L 713.325455 241.655406 
L 714.250789 240.067683 
L 717.952126 238.684255 
L 718.87746 238.543822 
L 719.802794 240.594506 
L 720.728128 241.162148 
L 721.653463 243.978878 
L 724.429465 245.39979 
L 725.354799 247.180343 
L 726.280134 248.425026 
L 727.205468 249.216181 
L 728.130802 249.00821 
L 730.906805 221.46309 
L 731.832139 221.522927 
L 732.757473 220.011303 
L 733.682807 218.081873 
L 734.608142 215.014016 
L 737.384144 217.249344 
L 738.309479 214.396461 
L 739.234813 210.081265 
L 740.160147 208.310801 
L 741.085481 207.851989 
L 743.861484 208.72411 
L 744.786818 204.449123 
L 745.712152 204.85062 
L 746.637487 204.938139 
L 747.562821 208.192034 
L 750.338824 206.674923 
L 751.264158 210.785587 
L 752.189492 209.325323 
L 753.114826 209.308865 
L 754.04016 206.933787 
L 756.816163 207.757257 
L 757.741497 206.154853 
L 758.666832 211.698388 
L 759.592166 209.111998 
L 760.5175 204.675983 
L 763.293503 198.941492 
L 764.218837 198.765011 
L 765.144171 197.769911 
L 766.069505 195.353266 
L 766.99484 196.929499 
L 769.770842 198.804163 
L 770.696176 202.298779 
L 771.621511 204.288504 
L 773.472179 196.237792 
L 776.248182 190.434526 
L 777.173516 194.049282 
L 778.09885 192.459366 
L 779.024184 196.460166 
L 779.949519 197.856882 
L 782.725521 195.717982 
L 783.650856 196.535213 
L 784.57619 199.550222 
L 785.501524 219.545817 
L 786.426858 219.407575 
L 789.202861 219.909062 
L 790.128195 217.249781 
L 791.053529 218.905927 
L 791.978864 218.765984 
L 792.904198 218.816075 
L 795.680201 220.027004 
L 796.605535 222.003445 
L 797.530869 226.420148 
L 798.456203 224.799104 
L 799.381537 223.479886 
L 802.15754 219.86897 
L 803.082874 216.571959 
L 804.008209 214.531928 
L 804.933543 214.225872 
L 805.858877 215.809403 
L 808.63488 211.531808 
L 809.560214 214.43753 
L 812.336217 224.796942 
L 815.112219 229.113303 
L 816.037553 228.180689 
L 816.962888 227.508156 
L 818.813556 234.339811 
L 821.589559 233.701872 
L 822.514893 233.820651 
L 823.440227 233.311537 
L 824.365561 233.578668 
L 825.290896 236.100913 
L 828.066898 235.600729 
L 828.992233 236.514858 
L 829.917567 237.237631 
L 830.842901 236.141724 
L 831.768235 238.646183 
L 834.544238 240.162572 
L 835.469572 237.142418 
L 836.394906 236.509527 
L 837.320241 235.454918 
L 838.245575 237.233701 
L 841.021578 237.426797 
L 841.946912 229.789091 
L 842.872246 230.568031 
L 843.79758 230.519151 
L 844.722914 230.865037 
L 847.498917 231.590242 
L 848.424251 233.720887 
L 850.27492 231.308717 
L 851.200254 229.628143 
L 853.976257 233.707375 
L 854.901591 233.640253 
L 855.826925 234.852788 
L 856.752259 236.300118 
L 857.677594 235.004362 
L 860.453596 236.005226 
L 861.37893 236.65092 
L 862.304265 238.034193 
L 863.229599 236.95988 
L 864.154933 234.578223 
L 866.930936 234.379241 
L 867.85627 233.913258 
L 868.781604 231.073929 
L 869.706939 232.032531 
L 870.632273 235.174009 
L 873.408275 231.708044 
L 874.33361 232.680579 
L 875.258944 233.371614 
L 876.184278 232.845702 
L 877.109612 233.763283 
L 879.885615 235.006449 
L 880.810949 234.320795 
L 881.736283 235.94181 
L 882.661618 235.73696 
L 883.586952 237.024049 
L 886.362955 239.329304 
L 887.288289 239.626146 
L 888.213623 238.320334 
L 889.138957 239.141921 
L 890.064291 240.889565 
L 892.840294 240.415801 
L 893.765628 238.923338 
L 894.690963 234.652998 
L 895.616297 234.805795 
L 896.541631 236.960014 
L 899.317634 249.450091 
L 900.242968 252.394575 
L 901.168302 251.845485 
L 902.093636 250.872836 
L 903.018971 252.041789 
L 905.794973 252.72148 
L 907.645642 252.105012 
L 908.570976 251.90103 
L 909.49631 252.840852 
L 912.272313 254.369521 
L 913.197647 257.03615 
L 914.122981 257.755324 
L 915.048316 257.948484 
L 915.97365 258.957845 
L 918.749652 261.65081 
L 919.674987 261.473913 
L 920.600321 262.303636 
L 921.525655 262.269901 
L 922.450989 261.524169 
L 925.226992 261.789393 
L 926.152326 261.270275 
L 927.07766 238.87262 
L 928.002995 238.736965 
L 928.928329 240.379467 
L 931.704332 238.84813 
L 933.555 233.518048 
L 934.480334 230.094716 
L 935.405668 229.782085 
L 938.181671 233.288875 
L 939.107005 232.335123 
L 940.03234 233.09845 
L 940.957674 230.824316 
L 941.883008 228.959913 
L 945.584345 226.577485 
L 946.509679 228.256169 
L 947.435013 226.503683 
L 948.360348 222.607201 
L 951.13635 225.17205 
L 952.061684 223.213288 
L 952.987019 218.990535 
L 953.912353 222.27944 
L 954.837687 221.7804 
L 957.61369 241.384363 
L 958.539024 242.914132 
L 959.464358 241.504676 
L 961.315027 238.297862 
L 964.091029 235.854066 
L 965.016364 236.511299 
L 965.941698 235.377662 
L 966.867032 235.749314 
L 967.792366 238.290173 
L 970.568369 238.871216 
L 971.493703 237.574591 
L 972.419037 234.488654 
L 973.344372 237.2207 
L 974.269706 238.142082 
L 977.045709 240.043982 
L 977.971043 242.627083 
L 978.896377 244.643378 
L 979.821711 244.94574 
L 980.747045 243.324932 
L 983.523048 233.445961 
L 984.448382 233.070281 
L 985.373717 230.303367 
L 986.299051 230.715044 
L 987.224385 228.952736 
L 990.000388 229.378305 
L 990.925722 230.449259 
L 991.851056 230.877782 
L 992.77639 229.831526 
L 993.701725 229.132271 
L 996.477727 229.043344 
L 997.403061 231.312686 
L 998.328396 232.03559 
L 999.25373 232.955229 
L 1000.179064 231.467448 
L 1002.955067 230.715462 
L 1003.880401 230.661259 
L 1004.805735 228.923978 
L 1005.73107 226.361717 
L 1006.656404 225.541089 
L 1009.432406 221.45987 
L 1010.357741 221.552282 
L 1011.283075 219.041031 
L 1012.208409 236.998234 
L 1013.133743 234.280824 
L 1015.909746 234.62051 
L 1016.83508 234.505278 
L 1017.760414 234.527851 
L 1018.685749 233.74427 
L 1019.611083 232.562301 
L 1022.387086 233.045252 
L 1023.31242 230.627335 
L 1024.237754 231.265285 
L 1025.163088 232.197723 
L 1026.088422 234.877754 
L 1028.864425 234.851864 
L 1029.789759 232.747595 
L 1030.715094 233.697609 
L 1031.640428 232.79052 
L 1032.565762 235.000038 
L 1035.341765 234.023835 
L 1036.267099 236.225952 
L 1037.192433 235.946409 
L 1038.117767 237.630108 
L 1039.043102 240.347154 
L 1041.819104 230.824161 
L 1042.744439 234.262277 
L 1044.595107 224.857441 
L 1045.520441 226.175773 
L 1048.296444 225.89895 
L 1049.221778 226.923843 
L 1050.147112 227.758054 
L 1051.072447 225.470436 
L 1051.997781 225.845069 
L 1054.773783 227.197946 
L 1055.699118 230.133614 
L 1056.624452 227.914297 
L 1058.47512 231.089689 
L 1062.176457 227.110305 
L 1063.101791 224.506901 
L 1064.027126 226.290299 
L 1064.95246 224.978565 
L 1067.728463 224.876497 
L 1068.653797 239.700434 
L 1069.579131 238.576794 
L 1070.504465 236.267585 
L 1071.429799 237.813733 
L 1074.205802 238.272434 
L 1075.131136 239.48118 
L 1076.056471 242.828161 
L 1076.981805 244.204131 
L 1077.907139 242.995341 
L 1080.683142 243.818305 
L 1081.608476 242.535204 
L 1082.53381 244.70893 
L 1083.459144 245.840843 
L 1084.384479 246.451574 
L 1087.160481 245.92637 
L 1088.085816 245.184685 
L 1089.01115 247.192538 
L 1089.936484 247.16355 
L 1090.861818 245.978381 
L 1090.861818 245.978381 
" style="fill:none;stroke:#1f77b4;stroke-linecap:square;stroke-width:1.5;"/>
   </g>
   <g id="line2d_22">
    <path clip-path="url(#p1075fb91ca)" d="M 84.098182 124.613609 
L 85.023516 119.684399 
L 85.94885 126.155734 
L 86.874184 129.463418 
L 89.650187 125.04954 
L 90.575521 128.245284 
L 91.500856 118.595907 
L 92.42619 119.12483 
L 93.351524 118.548724 
L 97.052861 125.478722 
L 97.978195 131.098068 
L 98.903529 131.932978 
L 99.828864 134.456256 
L 102.604866 135.922589 
L 103.530201 131.799131 
L 104.455535 129.504521 
L 105.380869 123.65576 
L 106.306203 129.401905 
L 109.082206 129.750907 
L 110.00754 140.450793 
L 110.932874 137.681987 
L 111.858209 138.674864 
L 112.783543 133.675484 
L 115.559545 132.989807 
L 116.48488 136.58047 
L 117.410214 126.750414 
L 118.335548 128.779413 
L 119.260882 130.249809 
L 122.036885 130.888281 
L 122.962219 129.749967 
L 123.887553 133.847163 
L 124.812888 135.70864 
L 125.738222 135.088859 
L 128.514225 135.869904 
L 129.439559 127.645272 
L 130.364893 126.996416 
L 131.290227 133.207335 
L 132.215561 128.356107 
L 134.991564 133.08081 
L 135.916898 133.135953 
L 136.842233 128.270211 
L 137.767567 129.95276 
L 138.692901 126.260385 
L 143.319572 129.857419 
L 144.244906 131.302848 
L 145.170241 133.894879 
L 147.946243 143.555692 
L 148.871578 145.627039 
L 149.796912 139.94223 
L 150.722246 144.289976 
L 151.64758 144.393381 
L 154.423583 146.49378 
L 155.348917 139.573898 
L 156.274251 139.259886 
L 157.199586 144.900171 
L 158.12492 145.564697 
L 160.900922 142.315042 
L 161.826257 144.649162 
L 162.751591 147.536989 
L 163.676925 146.362368 
L 164.602259 146.689316 
L 167.378262 146.300131 
L 168.303596 143.541389 
L 169.22893 143.046968 
L 170.154265 139.504227 
L 171.079599 138.182879 
L 173.855602 141.829252 
L 174.780936 140.976556 
L 175.70627 138.549393 
L 176.631604 141.13705 
L 177.556939 143.066307 
L 180.332941 143.358072 
L 181.258275 146.063328 
L 182.18361 145.135374 
L 183.108944 137.930826 
L 184.034278 140.537036 
L 186.810281 142.49421 
L 187.735615 146.150901 
L 188.660949 143.201724 
L 189.586283 144.266676 
L 190.511618 143.524334 
L 193.28762 145.411362 
L 194.212955 149.615109 
L 195.138289 150.917443 
L 196.063623 147.824431 
L 196.988957 147.404965 
L 199.76496 145.446174 
L 200.690294 148.39448 
L 201.615628 143.694135 
L 202.540963 142.992213 
L 203.466297 147.31848 
L 206.242299 148.006987 
L 207.167634 147.687041 
L 208.092968 147.095044 
L 209.018302 142.21506 
L 209.943636 143.296744 
L 212.719639 138.962517 
L 213.644973 140.707928 
L 214.570307 136.362308 
L 215.495642 145.633284 
L 216.420976 144.370363 
L 219.196979 140.198482 
L 220.122313 134.133553 
L 221.047647 131.539879 
L 221.972981 137.418559 
L 222.898316 136.493663 
L 225.674318 131.560049 
L 226.599652 126.158537 
L 227.524987 127.362443 
L 228.450321 126.921233 
L 229.375655 124.807206 
L 232.151658 127.385529 
L 233.076992 122.569969 
L 234.002326 125.137926 
L 234.92766 127.030773 
L 235.852995 120.099032 
L 238.628997 120.686764 
L 239.554332 127.765922 
L 240.479666 130.080813 
L 241.405 128.815786 
L 242.330334 128.307264 
L 245.106337 123.434983 
L 246.031671 117.145686 
L 246.957005 117.168467 
L 247.88234 117.021686 
L 248.807674 121.439543 
L 251.583676 115.568867 
L 252.509011 114.64629 
L 253.434345 108.358924 
L 254.359679 104.217444 
L 255.285013 104.393562 
L 258.061016 98.811632 
L 258.98635 103.730069 
L 259.911684 106.197844 
L 260.837019 99.663537 
L 261.762353 98.771044 
L 264.538356 94.39729 
L 265.46369 96.050362 
L 266.389024 89.152177 
L 267.314358 92.872995 
L 268.239693 92.512486 
L 271.015695 92.110576 
L 271.941029 94.919288 
L 272.866364 93.436731 
L 273.791698 92.346191 
L 274.717032 93.119097 
L 277.493035 91.878201 
L 278.418369 96.346759 
L 279.343703 100.225045 
L 280.269037 106.317968 
L 281.194372 107.524874 
L 283.970374 106.017286 
L 284.895709 103.35588 
L 285.821043 105.898464 
L 286.746377 106.22653 
L 287.671711 100.671776 
L 290.447714 103.499991 
L 291.373048 96.002644 
L 292.298382 92.402326 
L 294.149051 89.794688 
L 296.925053 92.630913 
L 297.850388 91.363396 
L 298.775722 95.961981 
L 299.701056 98.893376 
L 300.62639 94.450473 
L 303.402393 85.945564 
L 304.327727 92.951961 
L 305.253061 94.454628 
L 306.178396 100.741019 
L 307.10373 101.883855 
L 309.879733 98.806037 
L 310.805067 100.602345 
L 311.730401 105.425799 
L 312.655735 101.246768 
L 313.58107 100.009659 
L 316.357072 103.054415 
L 317.282406 108.445991 
L 318.207741 113.137504 
L 319.133075 109.226032 
L 320.058409 110.022254 
L 322.834412 111.586469 
L 323.759746 109.9671 
L 324.68508 111.214218 
L 325.610414 107.837803 
L 326.535749 109.473783 
L 329.311751 105.584629 
L 330.237086 109.843976 
L 331.16242 108.961465 
L 332.087754 111.950749 
L 333.013088 110.752049 
L 335.789091 112.907373 
L 336.714425 106.826508 
L 337.639759 105.002269 
L 338.565094 104.552866 
L 339.490428 99.814241 
L 342.26643 97.575805 
L 343.191765 98.662401 
L 344.117099 95.837946 
L 345.042433 100.880782 
L 345.967767 100.36736 
L 348.74377 96.93499 
L 349.669104 96.388868 
L 350.594439 94.267707 
L 351.519773 90.424068 
L 352.445107 89.495292 
L 355.22111 84.901364 
L 356.146444 83.636519 
L 357.071778 80.985505 
L 357.997112 81.386762 
L 358.922447 85.588834 
L 361.698449 86.478584 
L 362.623783 88.216082 
L 363.549118 86.640954 
L 364.474452 93.459288 
L 365.399786 92.413465 
L 368.175789 93.745378 
L 369.101123 99.895405 
L 370.026457 100.881813 
L 370.951791 99.080166 
L 371.877126 99.609636 
L 374.653128 99.077122 
L 375.578463 96.755 
L 376.503797 100.692559 
L 377.429131 98.63706 
L 378.354465 97.171105 
L 381.130468 96.405834 
L 382.055802 93.390562 
L 382.981136 93.998551 
L 383.906471 89.198894 
L 384.831805 86.370489 
L 387.607807 80.946248 
L 388.533142 86.232332 
L 389.458476 85.049625 
L 390.38381 81.78319 
L 391.309144 86.177905 
L 394.085147 83.109695 
L 395.010481 79.305057 
L 395.935816 71.730079 
L 396.86115 73.01214 
L 397.786484 70.318634 
L 400.562487 70.200247 
L 401.487821 70.965663 
L 402.413155 61.459627 
L 403.338489 57.421314 
L 404.263824 60.157585 
L 407.039826 56.856304 
L 407.96516 61.953727 
L 408.890495 61.275069 
L 410.741163 65.267967 
L 413.517166 70.623383 
L 414.4425 77.050559 
L 415.367834 82.099626 
L 416.293168 83.884707 
L 417.218503 81.654372 
L 419.994505 83.304187 
L 420.91984 85.253287 
L 421.845174 80.06475 
L 422.770508 84.675476 
L 423.695842 79.503561 
L 426.471845 74.775911 
L 427.397179 75.943404 
L 428.322513 80.910474 
L 429.247848 75.321066 
L 430.173182 70.847444 
L 432.949184 70.200585 
L 433.874519 76.561716 
L 434.799853 75.811287 
L 435.725187 70.64229 
L 436.650521 71.27028 
L 439.426524 73.343866 
L 440.351858 76.401786 
L 441.277193 77.014817 
L 442.202527 79.549916 
L 443.127861 77.984965 
L 445.903864 76.24667 
L 446.829198 79.989506 
L 447.754532 72.965719 
L 448.679866 80.42464 
L 449.605201 83.132332 
L 452.381203 80.27676 
L 453.306537 76.649695 
L 454.231872 79.852004 
L 455.157206 81.464753 
L 456.08254 75.31272 
L 458.858543 71.756235 
L 459.783877 74.85921 
L 460.709211 79.331817 
L 462.55988 72.802778 
L 465.335882 71.889569 
L 466.261217 74.216226 
L 467.186551 78.666285 
L 468.111885 86.037814 
L 469.037219 79.765693 
L 471.813222 80.783189 
L 473.66389 87.315068 
L 474.589225 85.315621 
L 475.514559 84.812027 
L 478.290561 84.622636 
L 479.215896 77.550617 
L 480.14123 73.018651 
L 481.066564 76.022653 
L 481.991898 75.932934 
L 484.767901 76.119959 
L 485.693235 79.350138 
L 487.543904 70.832723 
L 488.469238 68.101759 
L 491.245241 76.594016 
L 492.170575 69.306735 
L 493.095909 71.660899 
L 494.021243 66.184966 
L 494.946578 65.214907 
L 498.647914 68.679807 
L 499.573249 63.960675 
L 500.498583 62.194284 
L 501.423917 68.890167 
L 504.19992 73.248081 
L 505.125254 68.612376 
L 506.050588 71.661805 
L 506.975922 68.753679 
L 507.901257 70.881688 
L 510.677259 68.956974 
L 511.602594 65.261497 
L 512.527928 69.710939 
L 513.453262 76.575006 
L 514.378596 80.353099 
L 517.154599 80.933669 
L 518.079933 75.901855 
L 519.005267 77.245678 
L 519.930602 84.088186 
L 520.855936 84.767156 
L 523.631939 79.436341 
L 525.482607 91.157368 
L 526.407941 94.825056 
L 527.333275 92.853183 
L 530.109278 91.905003 
L 531.034612 92.861327 
L 531.959947 87.664483 
L 532.885281 92.870508 
L 536.586618 89.205111 
L 537.511952 94.451107 
L 538.437286 102.946904 
L 540.287955 111.222655 
L 543.063957 103.568219 
L 543.989291 100.454552 
L 544.914626 103.341538 
L 545.83996 103.145417 
L 546.765294 101.280574 
L 549.541297 105.673904 
L 550.466631 105.193155 
L 553.242634 106.977343 
L 556.018636 110.308545 
L 556.943971 112.592341 
L 557.869305 112.260889 
L 558.794639 109.807398 
L 559.719973 112.43946 
L 562.495976 118.075139 
L 563.42131 120.593928 
L 564.346644 126.547267 
L 565.271979 129.866801 
L 566.197313 131.841129 
L 568.973316 133.892042 
L 569.89865 134.361798 
L 570.823984 135.010074 
L 571.749318 143.998226 
L 572.674652 146.754478 
L 575.450655 149.84383 
L 576.375989 146.96255 
L 577.301324 143.353356 
L 578.226658 150.273638 
L 579.151992 154.080436 
L 581.927995 151.231252 
L 582.853329 147.38637 
L 584.703997 152.436522 
L 585.629332 155.440333 
L 588.405334 157.331729 
L 589.330668 154.595064 
L 590.256003 155.009006 
L 591.181337 153.57745 
L 592.106671 150.484134 
L 594.882674 151.012279 
L 595.808008 153.465148 
L 596.733342 153.256151 
L 597.658676 154.23079 
L 598.584011 154.333392 
L 601.360013 153.372161 
L 602.285348 152.400315 
L 603.210682 147.390619 
L 604.136016 147.634027 
L 605.06135 145.73114 
L 607.837353 143.173624 
L 608.762687 137.172655 
L 609.688021 140.051241 
L 610.613356 145.533932 
L 611.53869 142.727481 
L 614.314693 146.701961 
L 615.240027 146.462863 
L 616.165361 145.846834 
L 617.090695 146.492127 
L 618.016029 141.826841 
L 620.792032 143.017084 
L 621.717366 144.716608 
L 622.642701 144.617253 
L 623.568035 149.110165 
L 624.493369 149.782457 
L 627.269372 156.338838 
L 628.194706 161.697797 
L 629.12004 164.746852 
L 630.045374 165.671491 
L 630.970709 164.967153 
L 633.746711 161.57739 
L 634.672045 163.240326 
L 635.59738 159.893032 
L 636.522714 157.140856 
L 637.448048 157.291484 
L 640.224051 158.31306 
L 641.149385 159.666441 
L 642.074719 157.34971 
L 643.000053 162.402635 
L 643.925388 158.873002 
L 646.70139 160.789818 
L 647.626725 160.542389 
L 648.552059 162.77768 
L 649.477393 160.347569 
L 650.402727 159.091719 
L 653.17873 159.193279 
L 654.104064 158.838834 
L 655.029398 156.683343 
L 655.954733 153.882524 
L 656.880067 155.016001 
L 659.65607 161.571642 
L 660.581404 161.699968 
L 661.506738 164.113642 
L 662.432072 165.313338 
L 663.357406 168.152215 
L 666.133409 168.777521 
L 667.058743 168.188106 
L 667.984078 166.397238 
L 668.909412 164.999104 
L 669.834746 170.531095 
L 672.610749 169.063696 
L 674.461417 176.913474 
L 675.386751 179.904118 
L 676.312086 180.752564 
L 679.088088 179.038423 
L 680.013422 182.230019 
L 680.938757 184.215917 
L 681.864091 186.893464 
L 682.789425 184.963586 
L 685.565428 185.134971 
L 686.490762 184.388886 
L 687.416096 181.02216 
L 688.34143 176.792239 
L 689.266765 175.955343 
L 692.042767 176.025206 
L 692.968102 175.807852 
L 693.893436 173.940324 
L 694.81877 178.491467 
L 695.744104 175.862584 
L 698.520107 179.137469 
L 699.445441 184.402303 
L 700.370775 180.929599 
L 701.29611 179.806397 
L 702.221444 183.855865 
L 704.997447 189.36759 
L 705.922781 187.007487 
L 706.848115 190.923735 
L 707.773449 189.968515 
L 708.698783 193.970414 
L 711.474786 191.743692 
L 712.40012 192.977943 
L 713.325455 193.845885 
L 714.250789 190.813445 
L 715.176123 189.740882 
L 717.952126 188.735309 
L 718.87746 189.194937 
L 719.802794 190.993511 
L 720.728128 190.738062 
L 721.653463 195.544762 
L 724.429465 198.683508 
L 725.354799 200.865996 
L 726.280134 201.990471 
L 727.205468 203.602847 
L 728.130802 203.099062 
L 730.906805 204.275858 
L 731.832139 205.852725 
L 732.757473 205.487587 
L 734.608142 201.854752 
L 737.384144 203.102223 
L 738.309479 201.359349 
L 739.234813 196.398309 
L 740.160147 195.948409 
L 741.085481 193.926173 
L 743.861484 193.456831 
L 744.786818 191.643293 
L 746.637487 188.857429 
L 747.562821 191.283412 
L 750.338824 191.088704 
L 751.264158 194.403381 
L 752.189492 192.527241 
L 753.114826 195.812095 
L 754.04016 197.163719 
L 756.816163 198.00571 
L 757.741497 197.108421 
L 758.666832 197.106738 
L 759.592166 197.460255 
L 760.5175 194.923505 
L 763.293503 193.658633 
L 764.218837 195.00572 
L 765.144171 195.819244 
L 766.069505 194.255857 
L 766.99484 192.255447 
L 769.770842 193.082377 
L 770.696176 195.489302 
L 771.621511 193.651706 
L 772.546845 189.925254 
L 773.472179 187.440143 
L 776.248182 184.056272 
L 777.173516 184.057239 
L 778.09885 182.956105 
L 779.024184 185.373306 
L 779.949519 185.634993 
L 782.725521 184.000628 
L 783.650856 181.351268 
L 784.57619 181.329727 
L 785.501524 182.496282 
L 786.426858 180.789645 
L 789.202861 180.670005 
L 790.128195 176.761094 
L 791.053529 178.90126 
L 791.978864 180.070635 
L 792.904198 180.412378 
L 795.680201 183.405407 
L 797.530869 190.504728 
L 798.456203 190.001396 
L 799.381537 190.642504 
L 802.15754 187.46924 
L 803.082874 185.405567 
L 804.008209 185.648213 
L 804.933543 183.689248 
L 805.858877 184.233628 
L 808.63488 178.765041 
L 809.560214 179.707661 
L 810.485548 181.37018 
L 811.410882 185.979577 
L 812.336217 188.758508 
L 815.112219 190.207198 
L 816.037553 191.033786 
L 816.962888 188.965621 
L 817.888222 193.040743 
L 818.813556 196.097198 
L 821.589559 194.437452 
L 822.514893 197.138512 
L 823.440227 194.448655 
L 824.365561 194.312872 
L 825.290896 197.43198 
L 828.066898 198.84888 
L 828.992233 200.696634 
L 829.917567 202.001121 
L 830.842901 199.432659 
L 831.768235 202.021762 
L 834.544238 204.178521 
L 835.469572 201.010712 
L 836.394906 200.679539 
L 837.320241 200.025935 
L 838.245575 201.529099 
L 841.946912 201.921679 
L 842.872246 202.418592 
L 843.79758 202.736472 
L 844.722914 202.934692 
L 847.498917 202.736974 
L 848.424251 205.391931 
L 849.349586 204.186075 
L 850.27492 204.28877 
L 851.200254 203.403666 
L 853.976257 208.328282 
L 854.901591 208.384598 
L 855.826925 209.541947 
L 856.752259 209.664447 
L 857.677594 207.627209 
L 860.453596 209.187259 
L 861.37893 209.434085 
L 862.304265 211.260958 
L 863.229599 210.634019 
L 864.154933 207.816454 
L 867.85627 208.213006 
L 868.781604 204.837893 
L 869.706939 204.758951 
L 870.632273 206.994137 
L 873.408275 202.043543 
L 874.33361 204.842813 
L 875.258944 204.789166 
L 876.184278 204.147262 
L 877.109612 205.719939 
L 879.885615 206.714205 
L 880.810949 205.66521 
L 881.736283 207.444914 
L 882.661618 205.683344 
L 883.586952 207.026013 
L 886.362955 208.811657 
L 887.288289 208.840588 
L 888.213623 206.194074 
L 889.138957 205.747384 
L 890.064291 207.596256 
L 892.840294 206.925991 
L 893.765628 205.457338 
L 894.690963 201.082978 
L 896.541631 205.072299 
L 899.317634 205.97579 
L 900.242968 210.03158 
L 901.168302 209.617901 
L 902.093636 208.36416 
L 903.018971 208.884784 
L 905.794973 210.153268 
L 906.720307 209.973571 
L 907.645642 210.429269 
L 908.570976 210.568832 
L 909.49631 211.689003 
L 912.272313 212.871484 
L 913.197647 217.802233 
L 915.97365 221.035053 
L 918.749652 223.471853 
L 919.674987 222.98897 
L 921.525655 222.687062 
L 922.450989 221.952928 
L 925.226992 223.376939 
L 926.152326 222.515663 
L 927.07766 224.961632 
L 928.002995 224.963477 
L 928.928329 227.548961 
L 931.704332 226.567184 
L 932.629666 224.995529 
L 933.555 222.850199 
L 934.480334 220.999403 
L 935.405668 220.653059 
L 938.181671 222.261567 
L 939.107005 221.06899 
L 940.03234 222.673105 
L 940.957674 221.886453 
L 941.883008 223.499316 
L 945.584345 223.589237 
L 946.509679 223.906922 
L 947.435013 221.210882 
L 948.360348 216.364698 
L 951.13635 215.470204 
L 952.061684 216.113256 
L 952.987019 214.765606 
L 953.912353 219.00207 
L 954.837687 220.087913 
L 957.61369 223.115289 
L 958.539024 225.192708 
L 959.464358 224.505416 
L 960.389693 223.427786 
L 961.315027 221.600696 
L 964.091029 220.261142 
L 965.016364 222.392923 
L 965.941698 221.802325 
L 966.867032 222.794726 
L 967.792366 226.392882 
L 970.568369 228.481878 
L 972.419037 224.143924 
L 973.344372 226.061435 
L 974.269706 227.526216 
L 977.045709 230.798411 
L 977.971043 232.488484 
L 978.896377 233.941022 
L 979.821711 231.645386 
L 980.747045 230.301447 
L 984.448382 232.570083 
L 985.373717 230.659894 
L 986.299051 231.146465 
L 987.224385 228.284961 
L 990.000388 226.462612 
L 990.925722 227.597535 
L 991.851056 228.251921 
L 992.77639 226.719632 
L 993.701725 226.671145 
L 996.477727 226.3988 
L 997.403061 227.103766 
L 998.328396 226.190206 
L 999.25373 227.99796 
L 1000.179064 227.408475 
L 1002.955067 225.025682 
L 1003.880401 224.939972 
L 1004.805735 222.870123 
L 1005.73107 219.087634 
L 1006.656404 219.518256 
L 1009.432406 217.892113 
L 1010.357741 218.396957 
L 1011.283075 215.959438 
L 1012.208409 215.640872 
L 1013.133743 212.78776 
L 1015.909746 213.66936 
L 1016.83508 212.858891 
L 1017.760414 213.011822 
L 1018.685749 211.992718 
L 1019.611083 210.48987 
L 1022.387086 212.03881 
L 1023.31242 212.056541 
L 1024.237754 212.707484 
L 1026.088422 215.553635 
L 1028.864425 214.27832 
L 1029.789759 213.683689 
L 1030.715094 216.264346 
L 1031.640428 212.829494 
L 1032.565762 214.3121 
L 1035.341765 213.748013 
L 1036.267099 216.390036 
L 1037.192433 215.396745 
L 1039.043102 220.302459 
L 1041.819104 221.893068 
L 1042.744439 224.725726 
L 1043.669773 220.478857 
L 1044.595107 218.768758 
L 1045.520441 220.1088 
L 1048.296444 220.227538 
L 1049.221778 222.890488 
L 1050.147112 223.467692 
L 1051.072447 223.220859 
L 1051.997781 221.961462 
L 1054.773783 224.889372 
L 1055.699118 227.604819 
L 1056.624452 226.611913 
L 1057.549786 228.212404 
L 1058.47512 230.969507 
L 1061.251123 229.249225 
L 1062.176457 228.938753 
L 1063.101791 229.794157 
L 1064.027126 230.141187 
L 1064.95246 229.190762 
L 1068.653797 229.363895 
L 1069.579131 228.376528 
L 1070.504465 225.703296 
L 1071.429799 227.196683 
L 1074.205802 226.416123 
L 1075.131136 226.552896 
L 1076.981805 231.98207 
L 1077.907139 231.805702 
L 1080.683142 233.645443 
L 1081.608476 230.986884 
L 1083.459144 235.601461 
L 1084.384479 235.066069 
L 1087.160481 234.284968 
L 1088.085816 234.305898 
L 1089.01115 235.37815 
L 1089.936484 234.643433 
L 1090.861818 232.421219 
L 1090.861818 232.421219 
" style="fill:none;stroke:#ff7f0e;stroke-linecap:square;stroke-width:1.5;"/>
   </g>
   <g id="line2d_23">
    <path clip-path="url(#p1075fb91ca)" d="M 84.098182 121.305658 
L 85.023516 120.586921 
L 85.94885 120.366203 
L 86.874184 119.848264 
L 89.650187 120.570804 
L 90.575521 122.690749 
L 91.500856 122.987124 
L 92.42619 125.007779 
L 93.351524 120.811697 
L 96.127527 119.384156 
L 97.052861 116.508883 
L 98.903529 121.38797 
L 99.828864 118.602271 
L 102.604866 114.545871 
L 103.530201 114.916861 
L 104.455535 114.921801 
L 105.380869 115.879231 
L 106.306203 120.178341 
L 109.082206 120.619819 
L 110.00754 120.397311 
L 110.932874 122.144673 
L 111.858209 122.679083 
L 112.783543 121.195181 
L 115.559545 122.493916 
L 116.48488 122.641907 
L 117.410214 123.385998 
L 118.335548 125.170974 
L 119.260882 122.631173 
L 122.036885 121.107915 
L 122.962219 120.863359 
L 123.887553 121.141144 
L 124.812888 119.779789 
L 125.738222 119.156382 
L 128.514225 122.172713 
L 129.439559 122.149262 
L 130.364893 126.98895 
L 131.290227 125.866327 
L 132.215561 123.500889 
L 134.991564 123.473722 
L 135.916898 118.960977 
L 136.842233 120.269193 
L 137.767567 137.365135 
L 142.394238 131.101757 
L 143.319572 130.243985 
L 144.244906 135.105935 
L 145.170241 133.179937 
L 148.871578 130.184271 
L 149.796912 133.776856 
L 150.722246 134.504265 
L 151.64758 133.42657 
L 154.423583 133.958864 
L 155.348917 133.288061 
L 156.274251 130.681894 
L 157.199586 132.298811 
L 158.12492 130.984225 
L 160.900922 130.053626 
L 161.826257 130.756454 
L 162.751591 133.620324 
L 163.676925 133.26886 
L 164.602259 136.157754 
L 167.378262 108.150147 
L 168.303596 102.263062 
L 169.22893 101.076226 
L 170.154265 102.00547 
L 171.079599 103.559059 
L 173.855602 99.506354 
L 174.780936 98.670862 
L 175.70627 97.359026 
L 176.631604 93.228862 
L 177.556939 96.695429 
L 180.332941 97.564343 
L 181.258275 98.807513 
L 182.18361 98.286994 
L 183.108944 96.031005 
L 184.034278 100.061883 
L 186.810281 100.583644 
L 187.735615 99.303547 
L 188.660949 102.917486 
L 189.586283 103.715775 
L 190.511618 109.000998 
L 193.28762 111.021862 
L 194.212955 98.363641 
L 195.138289 98.800946 
L 196.063623 97.875957 
L 196.988957 97.947623 
L 199.76496 97.450009 
L 200.690294 94.124469 
L 201.615628 99.111744 
L 202.540963 96.849939 
L 203.466297 96.05017 
L 206.242299 97.559286 
L 207.167634 94.491958 
L 208.092968 92.380537 
L 209.018302 92.584135 
L 209.943636 97.098393 
L 212.719639 98.287533 
L 213.644973 97.724419 
L 214.570307 101.547626 
L 215.495642 102.503959 
L 216.420976 100.161158 
L 219.196979 98.843488 
L 220.122313 96.670198 
L 221.047647 93.235964 
L 221.972981 100.625998 
L 222.898316 98.096603 
L 225.674318 97.607865 
L 226.599652 94.372419 
L 228.450321 96.321693 
L 229.375655 96.769202 
L 233.076992 97.968681 
L 234.002326 95.655778 
L 234.92766 94.883369 
L 235.852995 96.805984 
L 238.628997 95.534945 
L 239.554332 94.662373 
L 240.479666 92.230409 
L 241.405 87.61259 
L 242.330334 86.738857 
L 245.106337 86.615963 
L 246.031671 88.416598 
L 246.957005 86.443884 
L 247.88234 88.678031 
L 248.807674 97.041047 
L 251.583676 84.338832 
L 252.509011 84.396894 
L 253.434345 85.613905 
L 254.359679 85.647071 
L 255.285013 83.636623 
L 258.061016 81.952743 
L 258.98635 83.60306 
L 259.911684 81.386356 
L 260.837019 84.716099 
L 261.762353 85.802012 
L 264.538356 86.051884 
L 265.46369 86.314049 
L 266.389024 88.049235 
L 267.314358 84.848386 
L 268.239693 87.195296 
L 271.015695 86.047048 
L 271.941029 87.403455 
L 272.866364 86.403633 
L 273.791698 85.572744 
L 274.717032 83.870825 
L 277.493035 77.589085 
L 278.418369 79.25336 
L 279.343703 124.419433 
L 280.269037 126.417164 
L 281.194372 126.687794 
L 283.970374 128.238557 
L 284.895709 128.093972 
L 285.821043 124.938738 
L 286.746377 129.778338 
L 287.671711 130.16915 
L 290.447714 129.327623 
L 291.373048 125.910999 
L 292.298382 126.889647 
L 293.223717 124.750556 
L 294.149051 127.122621 
L 296.925053 126.185485 
L 297.850388 128.106463 
L 298.775722 130.701468 
L 299.701056 131.836197 
L 300.62639 135.114729 
L 303.402393 135.028169 
L 304.327727 135.942062 
L 305.253061 135.434664 
L 306.178396 136.386891 
L 307.10373 130.615111 
L 309.879733 135.024217 
L 310.805067 134.024438 
L 311.730401 134.893299 
L 312.655735 132.801054 
L 313.58107 135.38034 
L 316.357072 134.396632 
L 317.282406 130.423396 
L 318.207741 130.843019 
L 319.133075 133.182009 
L 320.058409 136.325401 
L 322.834412 137.262372 
L 323.759746 135.252495 
L 324.68508 130.028139 
L 325.610414 130.28658 
L 326.535749 127.225069 
L 329.311751 131.934102 
L 331.16242 138.838763 
L 332.087754 139.140197 
L 333.013088 138.233575 
L 335.789091 119.072641 
L 336.714425 118.164275 
L 337.639759 123.06797 
L 338.565094 125.325241 
L 339.490428 122.675356 
L 342.26643 122.38472 
L 343.191765 126.292869 
L 344.117099 124.878706 
L 345.042433 124.031749 
L 345.967767 124.65935 
L 348.74377 124.208654 
L 349.669104 122.823998 
L 350.594439 127.675137 
L 351.519773 127.372932 
L 352.445107 128.411452 
L 355.22111 132.359011 
L 356.146444 130.997244 
L 357.071778 133.928655 
L 357.997112 134.824087 
L 358.922447 131.009109 
L 361.698449 128.022555 
L 362.623783 127.255797 
L 363.549118 155.530444 
L 364.474452 156.417431 
L 365.399786 153.622762 
L 368.175789 153.545684 
L 369.101123 152.062105 
L 370.026457 154.422184 
L 370.951791 155.153684 
L 371.877126 157.865348 
L 374.653128 158.808763 
L 375.578463 158.689833 
L 376.503797 158.943189 
L 377.429131 161.753561 
L 378.354465 162.296763 
L 381.130468 161.361091 
L 382.055802 162.922298 
L 382.981136 164.917391 
L 383.906471 165.717197 
L 384.831805 168.518267 
L 387.607807 170.295188 
L 388.533142 169.306298 
L 389.458476 167.740747 
L 390.38381 168.000245 
L 391.309144 169.587814 
L 394.085147 158.103944 
L 395.010481 157.965802 
L 395.935816 160.94653 
L 396.86115 157.807685 
L 397.786484 155.368453 
L 400.562487 154.178022 
L 401.487821 153.607591 
L 402.413155 154.358963 
L 403.338489 155.535359 
L 404.263824 156.24702 
L 407.039826 160.466091 
L 407.96516 158.475711 
L 408.890495 157.908612 
L 409.815829 156.661999 
L 410.741163 156.998719 
L 414.4425 159.29607 
L 415.367834 155.820693 
L 416.293168 157.972429 
L 417.218503 157.477527 
L 419.994505 160.361497 
L 420.91984 141.468313 
L 421.845174 141.414202 
L 422.770508 142.875256 
L 423.695842 141.319321 
L 426.471845 141.586894 
L 427.397179 142.722962 
L 428.322513 141.939318 
L 429.247848 143.289752 
L 430.173182 142.048595 
L 432.949184 140.274501 
L 433.874519 138.505738 
L 434.799853 133.986963 
L 435.725187 135.748716 
L 436.650521 135.855106 
L 440.351858 135.135388 
L 441.277193 134.317439 
L 442.202527 135.554045 
L 443.127861 137.456975 
L 445.903864 134.513645 
L 446.829198 160.254813 
L 447.754532 163.00859 
L 448.679866 164.661109 
L 449.605201 163.239566 
L 452.381203 161.54089 
L 453.306537 157.60973 
L 454.231872 157.666834 
L 455.157206 158.338516 
L 456.08254 155.237576 
L 458.858543 155.74389 
L 459.783877 156.379899 
L 460.709211 156.376623 
L 461.634545 156.776958 
L 462.55988 160.17251 
L 465.335882 162.18113 
L 466.261217 167.534908 
L 467.186551 166.955942 
L 468.111885 167.623672 
L 469.037219 168.497817 
L 471.813222 167.667095 
L 472.738556 168.162644 
L 473.66389 167.321675 
L 474.589225 165.062911 
L 475.514559 161.598502 
L 479.215896 162.874697 
L 480.14123 163.863843 
L 481.066564 162.92481 
L 481.991898 164.138697 
L 484.767901 164.854014 
L 485.693235 165.411871 
L 487.543904 168.604651 
L 488.469238 168.08118 
L 491.245241 169.448662 
L 492.170575 169.454253 
L 493.095909 167.833193 
L 494.021243 169.128842 
L 494.946578 169.031228 
L 497.72258 171.108464 
L 498.647914 172.606528 
L 499.573249 171.741186 
L 500.498583 170.440515 
L 501.423917 171.406137 
L 504.19992 176.503277 
L 505.125254 177.070402 
L 506.975922 175.229555 
L 507.901257 172.89239 
L 510.677259 175.383479 
L 511.602594 173.122608 
L 513.453262 171.013359 
L 514.378596 165.872879 
L 517.154599 165.468266 
L 518.079933 164.485631 
L 519.005267 160.387954 
L 519.930602 153.014943 
L 520.855936 155.074999 
L 523.631939 157.944822 
L 524.557273 154.709575 
L 525.482607 160.92027 
L 526.407941 165.789567 
L 527.333275 169.722155 
L 530.109278 164.62787 
L 531.034612 165.447138 
L 531.959947 173.690029 
L 532.885281 176.86172 
L 533.810615 179.14843 
L 536.586618 180.387751 
L 537.511952 179.422857 
L 538.437286 179.606802 
L 539.36262 180.575834 
L 540.287955 180.532238 
L 543.063957 182.199408 
L 543.989291 179.590929 
L 544.914626 178.400117 
L 545.83996 180.235657 
L 546.765294 177.269859 
L 551.391965 176.292422 
L 552.317299 177.837276 
L 553.242634 178.850085 
L 556.018636 179.804335 
L 556.943971 180.789461 
L 558.794639 179.16178 
L 559.719973 200.225794 
L 562.495976 198.482454 
L 563.42131 197.757903 
L 564.346644 198.309744 
L 565.271979 200.474625 
L 568.973316 200.540058 
L 569.89865 199.163325 
L 570.823984 199.831955 
L 571.749318 200.663141 
L 572.674652 201.257255 
L 575.450655 202.46698 
L 576.375989 206.246572 
L 577.301324 205.284508 
L 578.226658 204.03 
L 579.151992 203.98332 
L 581.927995 201.551545 
L 582.853329 202.83471 
L 583.778663 201.365471 
L 584.703997 200.893519 
L 585.629332 199.471976 
L 588.405334 160.653294 
L 589.330668 161.16479 
L 590.256003 160.331756 
L 591.181337 162.907143 
L 592.106671 164.786312 
L 594.882674 164.678706 
L 595.808008 161.358372 
L 596.733342 156.315482 
L 597.658676 154.741459 
L 598.584011 158.915332 
L 601.360013 158.496151 
L 602.285348 160.122349 
L 603.210682 161.357511 
L 604.136016 157.69276 
L 605.06135 156.387607 
L 607.837353 154.285094 
L 608.762687 159.621911 
L 610.613356 162.764202 
L 611.53869 163.816075 
L 614.314693 166.741269 
L 615.240027 170.82861 
L 616.165361 166.634767 
L 617.090695 181.573337 
L 618.016029 182.722521 
L 620.792032 183.542567 
L 621.717366 185.3381 
L 622.642701 183.214913 
L 623.568035 181.807298 
L 624.493369 181.365388 
L 627.269372 182.780472 
L 628.194706 181.977363 
L 629.12004 182.054214 
L 630.970709 179.45134 
L 633.746711 180.200857 
L 634.672045 180.902682 
L 635.59738 181.068571 
L 636.522714 180.064922 
L 637.448048 180.728319 
L 640.224051 181.958554 
L 641.149385 180.334754 
L 643.000053 179.791319 
L 643.925388 181.444867 
L 646.70139 183.933 
L 647.626725 180.3383 
L 648.552059 181.535974 
L 649.477393 180.037723 
L 650.402727 183.759845 
L 653.17873 182.298102 
L 654.104064 183.255787 
L 655.029398 182.787452 
L 655.954733 183.863521 
L 656.880067 183.146965 
L 659.65607 184.598981 
L 661.506738 188.596643 
L 662.432072 191.192902 
L 663.357406 190.990162 
L 666.133409 188.843939 
L 667.058743 192.685536 
L 667.984078 194.685706 
L 669.834746 190.815187 
L 672.610749 193.75508 
L 673.536083 182.969758 
L 675.386751 187.702475 
L 676.312086 186.014921 
L 679.088088 184.741705 
L 680.013422 183.099711 
L 680.938757 183.568226 
L 681.864091 184.795335 
L 682.789425 183.917321 
L 686.490762 180.732308 
L 687.416096 180.85566 
L 688.34143 177.809272 
L 689.266765 181.336934 
L 692.042767 179.171243 
L 692.968102 179.648863 
L 693.893436 178.580019 
L 694.81877 180.330402 
L 695.744104 181.532343 
L 698.520107 180.148573 
L 699.445441 180.577677 
L 700.370775 180.09902 
L 701.29611 197.968687 
L 702.221444 200.86234 
L 704.997447 201.090094 
L 705.922781 200.765848 
L 706.848115 200.788782 
L 707.773449 198.657582 
L 708.698783 199.55951 
L 711.474786 200.151329 
L 712.40012 198.942527 
L 713.325455 199.833398 
L 715.176123 200.709415 
L 717.952126 200.032522 
L 718.87746 199.402609 
L 719.802794 200.846865 
L 720.728128 201.951942 
L 721.653463 201.885744 
L 724.429465 201.173455 
L 725.354799 201.945614 
L 726.280134 202.903646 
L 727.205468 202.634412 
L 728.130802 202.787875 
L 730.906805 154.841269 
L 732.757473 150.58471 
L 733.682807 149.956372 
L 734.608142 147.445789 
L 737.384144 149.341964 
L 738.309479 147.090517 
L 739.234813 147.220443 
L 740.160147 145.027753 
L 741.085481 147.182833 
L 743.861484 149.197822 
L 744.786818 145.006451 
L 745.712152 147.64833 
L 747.562821 151.251511 
L 750.338824 149.185042 
L 751.264158 151.038986 
L 752.189492 151.292907 
L 753.114826 146.878825 
L 754.04016 141.198649 
L 756.816163 141.280836 
L 757.741497 140.018843 
L 758.666832 148.925681 
L 759.592166 144.27364 
L 760.5175 140.809814 
L 765.144171 128.492655 
L 766.069505 127.095615 
L 766.99484 132.680083 
L 769.770842 134.34527 
L 770.696176 136.210231 
L 771.621511 142.111435 
L 772.546845 141.160859 
L 773.472179 138.49392 
L 776.248182 134.554631 
L 777.173516 139.786461 
L 778.09885 138.957413 
L 779.024184 141.480358 
L 779.949519 143.173423 
L 782.725521 142.207944 
L 784.57619 151.187205 
L 785.501524 178.112353 
L 786.426858 179.677255 
L 789.202861 180.507271 
L 791.053529 180.857166 
L 791.978864 179.509353 
L 792.904198 179.236663 
L 795.680201 177.925498 
L 796.605535 177.266911 
L 797.530869 179.796256 
L 798.456203 177.870862 
L 799.381537 175.163951 
L 802.15754 173.219264 
L 803.082874 170.603444 
L 804.008209 167.34271 
L 805.858877 170.814748 
L 808.63488 170.63023 
L 810.485548 176.749013 
L 811.410882 177.34359 
L 815.112219 183.986038 
L 816.037553 181.697076 
L 816.962888 182.8891 
L 817.888222 183.622324 
L 818.813556 185.809643 
L 821.589559 186.592092 
L 822.514893 183.903022 
L 823.440227 186.073086 
L 825.290896 187.294377 
L 828.066898 184.946912 
L 828.992233 184.373989 
L 829.917567 184.085071 
L 831.768235 186.427118 
L 834.544238 186.523456 
L 835.469572 185.01703 
L 836.394906 184.339286 
L 837.320241 183.332708 
L 838.245575 184.552534 
L 841.021578 184.535979 
L 841.946912 171.595628 
L 842.872246 172.275123 
L 843.79758 171.789785 
L 844.722914 172.122688 
L 847.498917 173.604725 
L 848.424251 173.869825 
L 849.349586 173.19945 
L 850.27492 171.128453 
L 851.200254 169.392562 
L 853.976257 169.919552 
L 854.901591 169.723373 
L 855.826925 170.309565 
L 856.752259 172.750939 
L 857.677594 173.161622 
L 860.453596 172.874203 
L 861.37893 173.702995 
L 862.304265 173.750389 
L 863.229599 172.634716 
L 864.154933 172.137116 
L 866.930936 171.434235 
L 867.85627 170.425832 
L 868.781604 169.936791 
L 869.706939 171.695574 
L 870.632273 174.210871 
L 873.408275 174.555883 
L 874.33361 172.714794 
L 875.258944 173.976987 
L 876.184278 173.890518 
L 877.109612 173.46363 
L 879.885615 174.339709 
L 880.810949 174.49755 
L 881.736283 175.031008 
L 882.661618 176.960071 
L 883.586952 177.503987 
L 887.288289 179.785266 
L 888.213623 180.815279 
L 889.138957 182.801699 
L 890.064291 183.606853 
L 892.840294 183.587734 
L 893.765628 182.746913 
L 895.616297 178.455867 
L 896.541631 179.747304 
L 899.317634 200.254406 
L 900.242968 201.132398 
L 901.168302 200.584121 
L 902.093636 200.185996 
L 903.018971 201.71494 
L 905.794973 201.581865 
L 906.720307 201.122141 
L 907.645642 200.162295 
L 908.570976 199.637269 
L 912.272313 201.621007 
L 913.197647 201.125681 
L 914.122981 201.277731 
L 915.048316 200.411904 
L 915.97365 201.106201 
L 918.749652 203.614756 
L 919.674987 203.833663 
L 920.600321 205.735178 
L 921.525655 205.844241 
L 922.450989 205.171914 
L 925.226992 204.035199 
L 926.152326 203.997816 
L 927.07766 154.899156 
L 928.002995 154.611065 
L 928.928329 153.459377 
L 931.704332 151.961344 
L 932.629666 149.203382 
L 933.555 147.508502 
L 934.480334 143.842416 
L 935.405668 143.842996 
L 938.181671 147.961505 
L 939.107005 148.160294 
L 940.03234 146.852609 
L 940.957674 143.621787 
L 941.883008 136.866541 
L 945.584345 131.764373 
L 946.509679 134.602154 
L 947.435013 136.294976 
L 948.360348 137.660032 
L 951.13635 144.18331 
L 952.061684 139.36081 
L 952.987019 133.681627 
L 953.912353 132.230268 
L 954.837687 129.182997 
L 957.61369 162.289751 
L 958.539024 162.008735 
L 960.389693 158.472647 
L 961.315027 158.447296 
L 964.091029 155.710411 
L 965.016364 153.450568 
L 965.941698 152.150096 
L 966.867032 151.176897 
L 967.792366 150.035366 
L 970.568369 147.398527 
L 971.493703 148.560445 
L 972.419037 146.186411 
L 973.344372 148.347434 
L 974.269706 147.577127 
L 977.045709 145.458436 
L 977.971043 147.892481 
L 978.896377 149.601816 
L 979.821711 154.988219 
L 980.747045 153.869619 
L 983.523048 128.290419 
L 985.373717 124.37378 
L 986.299051 124.200878 
L 987.224385 126.718337 
L 990.000388 131.598925 
L 990.925722 131.541827 
L 991.851056 131.098638 
L 992.77639 132.058544 
L 993.701725 130.659175 
L 996.477727 131.036121 
L 998.328396 137.855567 
L 999.25373 136.215195 
L 1000.179064 134.187976 
L 1002.955067 137.47447 
L 1003.880401 137.529363 
L 1004.805735 137.952587 
L 1005.73107 139.949654 
L 1006.656404 137.546175 
L 1009.432406 132.480088 
L 1010.357741 131.712408 
L 1011.283075 131.412408 
L 1012.208409 166.316189 
L 1013.133743 165.410058 
L 1015.909746 164.749426 
L 1016.83508 165.735134 
L 1017.760414 165.553615 
L 1019.611083 165.60049 
L 1022.387086 164.261879 
L 1023.31242 159.794723 
L 1024.237754 159.986073 
L 1025.163088 159.668099 
L 1026.088422 162.386128 
L 1028.864425 164.292359 
L 1029.789759 161.23021 
L 1030.715094 159.0903 
L 1031.640428 162.772251 
L 1032.565762 164.650799 
L 1035.341765 163.660401 
L 1036.267099 163.824434 
L 1037.192433 164.810227 
L 1038.117767 164.201717 
L 1039.043102 165.792814 
L 1041.819104 144.286526 
L 1042.744439 146.061445 
L 1043.669773 143.98936 
L 1044.595107 137.868304 
L 1045.520441 137.991667 
L 1048.296444 137.219541 
L 1049.221778 134.27234 
L 1050.147112 134.850612 
L 1051.072447 130.618781 
L 1051.997781 133.915954 
L 1054.773783 130.968554 
L 1055.699118 131.574674 
L 1056.624452 128.866235 
L 1057.549786 129.113296 
L 1058.47512 126.439328 
L 1061.251123 123.501744 
L 1062.176457 122.099758 
L 1063.101791 114.480091 
L 1064.027126 117.610676 
L 1064.95246 116.903485 
L 1067.728463 116.365706 
L 1068.653797 148.90392 
L 1069.579131 148.342186 
L 1070.504465 148.4513 
L 1071.429799 148.93484 
L 1074.205802 151.394435 
L 1075.131136 153.71521 
L 1076.056471 155.715927 
L 1076.981805 153.899122 
L 1077.907139 151.495498 
L 1080.683142 149.750199 
L 1081.608476 152.169193 
L 1082.53381 152.407926 
L 1083.459144 150.607189 
L 1084.384479 153.162717 
L 1087.160481 153.504299 
L 1088.085816 151.731902 
L 1089.01115 154.251872 
L 1089.936484 155.664324 
L 1090.861818 157.286027 
L 1090.861818 157.286027 
" style="fill:none;stroke:#2ca02c;stroke-linecap:square;stroke-width:1.5;"/>
   </g>
   <g id="patch_3">
    <path d="M 33.76 273.56 
L 33.76 25.92 
" style="fill:none;stroke:#000000;stroke-linecap:square;stroke-linejoin:miter;stroke-width:0.8;"/>
   </g>
   <g id="patch_4">
    <path d="M 1141.2 273.56 
L 1141.2 25.92 
" style="fill:none;stroke:#000000;stroke-linecap:square;stroke-linejoin:miter;stroke-width:0.8;"/>
   </g>
   <g id="patch_5">
    <path d="M 33.76 273.56 
L 1141.2 273.56 
" style="fill:none;stroke:#000000;stroke-linecap:square;stroke-linejoin:miter;stroke-width:0.8;"/>
   </g>
   <g id="patch_6">
    <path d="M 33.76 25.92 
L 1141.2 25.92 
" style="fill:none;stroke:#000000;stroke-linecap:square;stroke-linejoin:miter;stroke-width:0.8;"/>
   </g>
   <g id="text_11">
    <!-- Net Value: (2010-02-01 ~ 2013-01-25) -->
    <g transform="translate(471.3725 19.92)scale(0.12 -0.12)">
     <defs>
      <path d="M 9.8125 72.90625 
L 23.09375 72.90625 
L 55.421875 11.921875 
L 55.421875 72.90625 
L 64.984375 72.90625 
L 64.984375 0 
L 51.703125 0 
L 19.390625 60.984375 
L 19.390625 0 
L 9.8125 0 
z
" id="DejaVuSans-78"/>
      <path d="M 56.203125 29.59375 
L 56.203125 25.203125 
L 14.890625 25.203125 
Q 15.484375 15.921875 20.484375 11.0625 
Q 25.484375 6.203125 34.421875 6.203125 
Q 39.59375 6.203125 44.453125 7.46875 
Q 49.3125 8.734375 54.109375 11.28125 
L 54.109375 2.78125 
Q 49.265625 0.734375 44.1875 -0.34375 
Q 39.109375 -1.421875 33.890625 -1.421875 
Q 20.796875 -1.421875 13.15625 6.1875 
Q 5.515625 13.8125 5.515625 26.8125 
Q 5.515625 40.234375 12.765625 48.109375 
Q 20.015625 56 32.328125 56 
Q 43.359375 56 49.78125 48.890625 
Q 56.203125 41.796875 56.203125 29.59375 
z
M 47.21875 32.234375 
Q 47.125 39.59375 43.09375 43.984375 
Q 39.0625 48.390625 32.421875 48.390625 
Q 24.90625 48.390625 20.390625 44.140625 
Q 15.875 39.890625 15.1875 32.171875 
z
" id="DejaVuSans-101"/>
      <path d="M 18.3125 70.21875 
L 18.3125 54.6875 
L 36.8125 54.6875 
L 36.8125 47.703125 
L 18.3125 47.703125 
L 18.3125 18.015625 
Q 18.3125 11.328125 20.140625 9.421875 
Q 21.96875 7.515625 27.59375 7.515625 
L 36.8125 7.515625 
L 36.8125 0 
L 27.59375 0 
Q 17.1875 0 13.234375 3.875 
Q 9.28125 7.765625 9.28125 18.015625 
L 9.28125 47.703125 
L 2.6875 47.703125 
L 2.6875 54.6875 
L 9.28125 54.6875 
L 9.28125 70.21875 
z
" id="DejaVuSans-116"/>
      <path id="DejaVuSans-32"/>
      <path d="M 28.609375 0 
L 0.78125 72.90625 
L 11.078125 72.90625 
L 34.1875 11.53125 
L 57.328125 72.90625 
L 67.578125 72.90625 
L 39.796875 0 
z
" id="DejaVuSans-86"/>
      <path d="M 34.28125 27.484375 
Q 23.390625 27.484375 19.1875 25 
Q 14.984375 22.515625 14.984375 16.5 
Q 14.984375 11.71875 18.140625 8.90625 
Q 21.296875 6.109375 26.703125 6.109375 
Q 34.1875 6.109375 38.703125 11.40625 
Q 43.21875 16.703125 43.21875 25.484375 
L 43.21875 27.484375 
z
M 52.203125 31.203125 
L 52.203125 0 
L 43.21875 0 
L 43.21875 8.296875 
Q 40.140625 3.328125 35.546875 0.953125 
Q 30.953125 -1.421875 24.3125 -1.421875 
Q 15.921875 -1.421875 10.953125 3.296875 
Q 6 8.015625 6 15.921875 
Q 6 25.140625 12.171875 29.828125 
Q 18.359375 34.515625 30.609375 34.515625 
L 43.21875 34.515625 
L 43.21875 35.40625 
Q 43.21875 41.609375 39.140625 45 
Q 35.0625 48.390625 27.6875 48.390625 
Q 23 48.390625 18.546875 47.265625 
Q 14.109375 46.140625 10.015625 43.890625 
L 10.015625 52.203125 
Q 14.9375 54.109375 19.578125 55.046875 
Q 24.21875 56 28.609375 56 
Q 40.484375 56 46.34375 49.84375 
Q 52.203125 43.703125 52.203125 31.203125 
z
" id="DejaVuSans-97"/>
      <path d="M 9.421875 75.984375 
L 18.40625 75.984375 
L 18.40625 0 
L 9.421875 0 
z
" id="DejaVuSans-108"/>
      <path d="M 8.5 21.578125 
L 8.5 54.6875 
L 17.484375 54.6875 
L 17.484375 21.921875 
Q 17.484375 14.15625 20.5 10.265625 
Q 23.53125 6.390625 29.59375 6.390625 
Q 36.859375 6.390625 41.078125 11.03125 
Q 45.3125 15.671875 45.3125 23.6875 
L 45.3125 54.6875 
L 54.296875 54.6875 
L 54.296875 0 
L 45.3125 0 
L 45.3125 8.40625 
Q 42.046875 3.421875 37.71875 1 
Q 33.40625 -1.421875 27.6875 -1.421875 
Q 18.265625 -1.421875 13.375 4.4375 
Q 8.5 10.296875 8.5 21.578125 
z
M 31.109375 56 
z
" id="DejaVuSans-117"/>
      <path d="M 11.71875 12.40625 
L 22.015625 12.40625 
L 22.015625 0 
L 11.71875 0 
z
M 11.71875 51.703125 
L 22.015625 51.703125 
L 22.015625 39.3125 
L 11.71875 39.3125 
z
" id="DejaVuSans-58"/>
      <path d="M 31 75.875 
Q 24.46875 64.65625 21.28125 53.65625 
Q 18.109375 42.671875 18.109375 31.390625 
Q 18.109375 20.125 21.3125 9.0625 
Q 24.515625 -2 31 -13.1875 
L 23.1875 -13.1875 
Q 15.875 -1.703125 12.234375 9.375 
Q 8.59375 20.453125 8.59375 31.390625 
Q 8.59375 42.28125 12.203125 53.3125 
Q 15.828125 64.359375 23.1875 75.875 
z
" id="DejaVuSans-40"/>
      <path d="M 4.890625 31.390625 
L 31.203125 31.390625 
L 31.203125 23.390625 
L 4.890625 23.390625 
z
" id="DejaVuSans-45"/>
      <path d="M 73.1875 39.890625 
L 73.1875 31.203125 
Q 68.0625 27.34375 63.6875 25.6875 
Q 59.328125 24.03125 54.59375 24.03125 
Q 49.21875 24.03125 42.09375 26.90625 
Q 41.546875 27.09375 41.3125 27.203125 
Q 40.96875 27.34375 40.234375 27.59375 
Q 32.671875 30.609375 28.078125 30.609375 
Q 23.78125 30.609375 19.578125 28.734375 
Q 15.375 26.859375 10.59375 22.796875 
L 10.59375 31.5 
Q 15.71875 35.359375 20.09375 37.03125 
Q 24.46875 38.71875 29.203125 38.71875 
Q 34.578125 38.71875 41.75 35.796875 
Q 42.234375 35.59375 42.484375 35.5 
Q 42.875 35.359375 43.5625 35.109375 
Q 51.125 32.078125 55.71875 32.078125 
Q 59.90625 32.078125 64.03125 33.9375 
Q 68.171875 35.796875 73.1875 39.890625 
z
" id="DejaVuSans-126"/>
      <path d="M 10.796875 72.90625 
L 49.515625 72.90625 
L 49.515625 64.59375 
L 19.828125 64.59375 
L 19.828125 46.734375 
Q 21.96875 47.46875 24.109375 47.828125 
Q 26.265625 48.1875 28.421875 48.1875 
Q 40.625 48.1875 47.75 41.5 
Q 54.890625 34.8125 54.890625 23.390625 
Q 54.890625 11.625 47.5625 5.09375 
Q 40.234375 -1.421875 26.90625 -1.421875 
Q 22.3125 -1.421875 17.546875 -0.640625 
Q 12.796875 0.140625 7.71875 1.703125 
L 7.71875 11.625 
Q 12.109375 9.234375 16.796875 8.0625 
Q 21.484375 6.890625 26.703125 6.890625 
Q 35.15625 6.890625 40.078125 11.328125 
Q 45.015625 15.765625 45.015625 23.390625 
Q 45.015625 31 40.078125 35.4375 
Q 35.15625 39.890625 26.703125 39.890625 
Q 22.75 39.890625 18.8125 39.015625 
Q 14.890625 38.140625 10.796875 36.28125 
z
" id="DejaVuSans-53"/>
      <path d="M 8.015625 75.875 
L 15.828125 75.875 
Q 23.140625 64.359375 26.78125 53.3125 
Q 30.421875 42.28125 30.421875 31.390625 
Q 30.421875 20.453125 26.78125 9.375 
Q 23.140625 -1.703125 15.828125 -13.1875 
L 8.015625 -13.1875 
Q 14.5 -2 17.703125 9.0625 
Q 20.90625 20.125 20.90625 31.390625 
Q 20.90625 42.671875 17.703125 53.65625 
Q 14.5 64.65625 8.015625 75.875 
z
" id="DejaVuSans-41"/>
     </defs>
     <use xlink:href="#DejaVuSans-78"/>
     <use x="74.804688" xlink:href="#DejaVuSans-101"/>
     <use x="136.328125" xlink:href="#DejaVuSans-116"/>
     <use x="175.537109" xlink:href="#DejaVuSans-32"/>
     <use x="207.324219" xlink:href="#DejaVuSans-86"/>
     <use x="267.982422" xlink:href="#DejaVuSans-97"/>
     <use x="329.261719" xlink:href="#DejaVuSans-108"/>
     <use x="357.044922" xlink:href="#DejaVuSans-117"/>
     <use x="420.423828" xlink:href="#DejaVuSans-101"/>
     <use x="481.947266" xlink:href="#DejaVuSans-58"/>
     <use x="515.638672" xlink:href="#DejaVuSans-32"/>
     <use x="547.425781" xlink:href="#DejaVuSans-40"/>
     <use x="586.439453" xlink:href="#DejaVuSans-50"/>
     <use x="650.0625" xlink:href="#DejaVuSans-48"/>
     <use x="713.685547" xlink:href="#DejaVuSans-49"/>
     <use x="777.308594" xlink:href="#DejaVuSans-48"/>
     <use x="840.931641" xlink:href="#DejaVuSans-45"/>
     <use x="877.015625" xlink:href="#DejaVuSans-48"/>
     <use x="940.638672" xlink:href="#DejaVuSans-50"/>
     <use x="1004.261719" xlink:href="#DejaVuSans-45"/>
     <use x="1040.345703" xlink:href="#DejaVuSans-48"/>
     <use x="1103.96875" xlink:href="#DejaVuSans-49"/>
     <use x="1167.591797" xlink:href="#DejaVuSans-32"/>
     <use x="1199.378906" xlink:href="#DejaVuSans-126"/>
     <use x="1283.167969" xlink:href="#DejaVuSans-32"/>
     <use x="1314.955078" xlink:href="#DejaVuSans-50"/>
     <use x="1378.578125" xlink:href="#DejaVuSans-48"/>
     <use x="1442.201172" xlink:href="#DejaVuSans-49"/>
     <use x="1505.824219" xlink:href="#DejaVuSans-51"/>
     <use x="1569.447266" xlink:href="#DejaVuSans-45"/>
     <use x="1605.53125" xlink:href="#DejaVuSans-48"/>
     <use x="1669.154297" xlink:href="#DejaVuSans-49"/>
     <use x="1732.777344" xlink:href="#DejaVuSans-45"/>
     <use x="1768.861328" xlink:href="#DejaVuSans-50"/>
     <use x="1832.484375" xlink:href="#DejaVuSans-53"/>
     <use x="1896.107422" xlink:href="#DejaVuSans-41"/>
    </g>
   </g>
   <g id="legend_1">
    <g id="patch_7">
     <path d="M 40.76 78.2325 
L 153.274063 78.2325 
Q 155.274063 78.2325 155.274063 76.2325 
L 155.274063 32.92 
Q 155.274063 30.92 153.274063 30.92 
L 40.76 30.92 
Q 38.76 30.92 38.76 32.92 
L 38.76 76.2325 
Q 38.76 78.2325 40.76 78.2325 
z
" style="fill:#ffffff;opacity:0.8;stroke:#cccccc;stroke-linejoin:miter;"/>
    </g>
    <g id="line2d_24">
     <path d="M 42.76 39.018437 
L 62.76 39.018437 
" style="fill:none;stroke:#1f77b4;stroke-linecap:square;stroke-width:1.5;"/>
    </g>
    <g id="line2d_25"/>
    <g id="text_12">
     <!-- factor_weighted -->
     <g transform="translate(70.76 42.518437)scale(0.1 -0.1)">
      <defs>
       <path d="M 37.109375 75.984375 
L 37.109375 68.5 
L 28.515625 68.5 
Q 23.6875 68.5 21.796875 66.546875 
Q 19.921875 64.59375 19.921875 59.515625 
L 19.921875 54.6875 
L 34.71875 54.6875 
L 34.71875 47.703125 
L 19.921875 47.703125 
L 19.921875 0 
L 10.890625 0 
L 10.890625 47.703125 
L 2.296875 47.703125 
L 2.296875 54.6875 
L 10.890625 54.6875 
L 10.890625 58.5 
Q 10.890625 67.625 15.140625 71.796875 
Q 19.390625 75.984375 28.609375 75.984375 
z
" id="DejaVuSans-102"/>
       <path d="M 48.78125 52.59375 
L 48.78125 44.1875 
Q 44.96875 46.296875 41.140625 47.34375 
Q 37.3125 48.390625 33.40625 48.390625 
Q 24.65625 48.390625 19.8125 42.84375 
Q 14.984375 37.3125 14.984375 27.296875 
Q 14.984375 17.28125 19.8125 11.734375 
Q 24.65625 6.203125 33.40625 6.203125 
Q 37.3125 6.203125 41.140625 7.25 
Q 44.96875 8.296875 48.78125 10.40625 
L 48.78125 2.09375 
Q 45.015625 0.34375 40.984375 -0.53125 
Q 36.96875 -1.421875 32.421875 -1.421875 
Q 20.0625 -1.421875 12.78125 6.34375 
Q 5.515625 14.109375 5.515625 27.296875 
Q 5.515625 40.671875 12.859375 48.328125 
Q 20.21875 56 33.015625 56 
Q 37.15625 56 41.109375 55.140625 
Q 45.0625 54.296875 48.78125 52.59375 
z
" id="DejaVuSans-99"/>
       <path d="M 30.609375 48.390625 
Q 23.390625 48.390625 19.1875 42.75 
Q 14.984375 37.109375 14.984375 27.296875 
Q 14.984375 17.484375 19.15625 11.84375 
Q 23.34375 6.203125 30.609375 6.203125 
Q 37.796875 6.203125 41.984375 11.859375 
Q 46.1875 17.53125 46.1875 27.296875 
Q 46.1875 37.015625 41.984375 42.703125 
Q 37.796875 48.390625 30.609375 48.390625 
z
M 30.609375 56 
Q 42.328125 56 49.015625 48.375 
Q 55.71875 40.765625 55.71875 27.296875 
Q 55.71875 13.875 49.015625 6.21875 
Q 42.328125 -1.421875 30.609375 -1.421875 
Q 18.84375 -1.421875 12.171875 6.21875 
Q 5.515625 13.875 5.515625 27.296875 
Q 5.515625 40.765625 12.171875 48.375 
Q 18.84375 56 30.609375 56 
z
" id="DejaVuSans-111"/>
       <path d="M 41.109375 46.296875 
Q 39.59375 47.171875 37.8125 47.578125 
Q 36.03125 48 33.890625 48 
Q 26.265625 48 22.1875 43.046875 
Q 18.109375 38.09375 18.109375 28.8125 
L 18.109375 0 
L 9.078125 0 
L 9.078125 54.6875 
L 18.109375 54.6875 
L 18.109375 46.1875 
Q 20.953125 51.171875 25.484375 53.578125 
Q 30.03125 56 36.53125 56 
Q 37.453125 56 38.578125 55.875 
Q 39.703125 55.765625 41.0625 55.515625 
z
" id="DejaVuSans-114"/>
       <path d="M 50.984375 -16.609375 
L 50.984375 -23.578125 
L -0.984375 -23.578125 
L -0.984375 -16.609375 
z
" id="DejaVuSans-95"/>
       <path d="M 4.203125 54.6875 
L 13.1875 54.6875 
L 24.421875 12.015625 
L 35.59375 54.6875 
L 46.1875 54.6875 
L 57.421875 12.015625 
L 68.609375 54.6875 
L 77.59375 54.6875 
L 63.28125 0 
L 52.6875 0 
L 40.921875 44.828125 
L 29.109375 0 
L 18.5 0 
z
" id="DejaVuSans-119"/>
       <path d="M 9.421875 54.6875 
L 18.40625 54.6875 
L 18.40625 0 
L 9.421875 0 
z
M 9.421875 75.984375 
L 18.40625 75.984375 
L 18.40625 64.59375 
L 9.421875 64.59375 
z
" id="DejaVuSans-105"/>
       <path d="M 45.40625 27.984375 
Q 45.40625 37.75 41.375 43.109375 
Q 37.359375 48.484375 30.078125 48.484375 
Q 22.859375 48.484375 18.828125 43.109375 
Q 14.796875 37.75 14.796875 27.984375 
Q 14.796875 18.265625 18.828125 12.890625 
Q 22.859375 7.515625 30.078125 7.515625 
Q 37.359375 7.515625 41.375 12.890625 
Q 45.40625 18.265625 45.40625 27.984375 
z
M 54.390625 6.78125 
Q 54.390625 -7.171875 48.1875 -13.984375 
Q 42 -20.796875 29.203125 -20.796875 
Q 24.46875 -20.796875 20.265625 -20.09375 
Q 16.0625 -19.390625 12.109375 -17.921875 
L 12.109375 -9.1875 
Q 16.0625 -11.328125 19.921875 -12.34375 
Q 23.78125 -13.375 27.78125 -13.375 
Q 36.625 -13.375 41.015625 -8.765625 
Q 45.40625 -4.15625 45.40625 5.171875 
L 45.40625 9.625 
Q 42.625 4.78125 38.28125 2.390625 
Q 33.9375 0 27.875 0 
Q 17.828125 0 11.671875 7.65625 
Q 5.515625 15.328125 5.515625 27.984375 
Q 5.515625 40.671875 11.671875 48.328125 
Q 17.828125 56 27.875 56 
Q 33.9375 56 38.28125 53.609375 
Q 42.625 51.21875 45.40625 46.390625 
L 45.40625 54.6875 
L 54.390625 54.6875 
z
" id="DejaVuSans-103"/>
       <path d="M 54.890625 33.015625 
L 54.890625 0 
L 45.90625 0 
L 45.90625 32.71875 
Q 45.90625 40.484375 42.875 44.328125 
Q 39.84375 48.1875 33.796875 48.1875 
Q 26.515625 48.1875 22.3125 43.546875 
Q 18.109375 38.921875 18.109375 30.90625 
L 18.109375 0 
L 9.078125 0 
L 9.078125 75.984375 
L 18.109375 75.984375 
L 18.109375 46.1875 
Q 21.34375 51.125 25.703125 53.5625 
Q 30.078125 56 35.796875 56 
Q 45.21875 56 50.046875 50.171875 
Q 54.890625 44.34375 54.890625 33.015625 
z
" id="DejaVuSans-104"/>
       <path d="M 45.40625 46.390625 
L 45.40625 75.984375 
L 54.390625 75.984375 
L 54.390625 0 
L 45.40625 0 
L 45.40625 8.203125 
Q 42.578125 3.328125 38.25 0.953125 
Q 33.9375 -1.421875 27.875 -1.421875 
Q 17.96875 -1.421875 11.734375 6.484375 
Q 5.515625 14.40625 5.515625 27.296875 
Q 5.515625 40.1875 11.734375 48.09375 
Q 17.96875 56 27.875 56 
Q 33.9375 56 38.25 53.625 
Q 42.578125 51.265625 45.40625 46.390625 
z
M 14.796875 27.296875 
Q 14.796875 17.390625 18.875 11.75 
Q 22.953125 6.109375 30.078125 6.109375 
Q 37.203125 6.109375 41.296875 11.75 
Q 45.40625 17.390625 45.40625 27.296875 
Q 45.40625 37.203125 41.296875 42.84375 
Q 37.203125 48.484375 30.078125 48.484375 
Q 22.953125 48.484375 18.875 42.84375 
Q 14.796875 37.203125 14.796875 27.296875 
z
" id="DejaVuSans-100"/>
      </defs>
      <use xlink:href="#DejaVuSans-102"/>
      <use x="35.205078" xlink:href="#DejaVuSans-97"/>
      <use x="96.484375" xlink:href="#DejaVuSans-99"/>
      <use x="151.464844" xlink:href="#DejaVuSans-116"/>
      <use x="190.673828" xlink:href="#DejaVuSans-111"/>
      <use x="251.855469" xlink:href="#DejaVuSans-114"/>
      <use x="292.96875" xlink:href="#DejaVuSans-95"/>
      <use x="342.96875" xlink:href="#DejaVuSans-119"/>
      <use x="424.755859" xlink:href="#DejaVuSans-101"/>
      <use x="486.279297" xlink:href="#DejaVuSans-105"/>
      <use x="514.0625" xlink:href="#DejaVuSans-103"/>
      <use x="577.539062" xlink:href="#DejaVuSans-104"/>
      <use x="640.917969" xlink:href="#DejaVuSans-116"/>
      <use x="680.126953" xlink:href="#DejaVuSans-101"/>
      <use x="741.650391" xlink:href="#DejaVuSans-100"/>
     </g>
    </g>
    <g id="line2d_26">
     <path d="M 42.76 53.974687 
L 62.76 53.974687 
" style="fill:none;stroke:#ff7f0e;stroke-linecap:square;stroke-width:1.5;"/>
    </g>
    <g id="line2d_27"/>
    <g id="text_13">
     <!-- benchmark -->
     <g transform="translate(70.76 57.474687)scale(0.1 -0.1)">
      <defs>
       <path d="M 48.6875 27.296875 
Q 48.6875 37.203125 44.609375 42.84375 
Q 40.53125 48.484375 33.40625 48.484375 
Q 26.265625 48.484375 22.1875 42.84375 
Q 18.109375 37.203125 18.109375 27.296875 
Q 18.109375 17.390625 22.1875 11.75 
Q 26.265625 6.109375 33.40625 6.109375 
Q 40.53125 6.109375 44.609375 11.75 
Q 48.6875 17.390625 48.6875 27.296875 
z
M 18.109375 46.390625 
Q 20.953125 51.265625 25.265625 53.625 
Q 29.59375 56 35.59375 56 
Q 45.5625 56 51.78125 48.09375 
Q 58.015625 40.1875 58.015625 27.296875 
Q 58.015625 14.40625 51.78125 6.484375 
Q 45.5625 -1.421875 35.59375 -1.421875 
Q 29.59375 -1.421875 25.265625 0.953125 
Q 20.953125 3.328125 18.109375 8.203125 
L 18.109375 0 
L 9.078125 0 
L 9.078125 75.984375 
L 18.109375 75.984375 
z
" id="DejaVuSans-98"/>
       <path d="M 54.890625 33.015625 
L 54.890625 0 
L 45.90625 0 
L 45.90625 32.71875 
Q 45.90625 40.484375 42.875 44.328125 
Q 39.84375 48.1875 33.796875 48.1875 
Q 26.515625 48.1875 22.3125 43.546875 
Q 18.109375 38.921875 18.109375 30.90625 
L 18.109375 0 
L 9.078125 0 
L 9.078125 54.6875 
L 18.109375 54.6875 
L 18.109375 46.1875 
Q 21.34375 51.125 25.703125 53.5625 
Q 30.078125 56 35.796875 56 
Q 45.21875 56 50.046875 50.171875 
Q 54.890625 44.34375 54.890625 33.015625 
z
" id="DejaVuSans-110"/>
       <path d="M 52 44.1875 
Q 55.375 50.25 60.0625 53.125 
Q 64.75 56 71.09375 56 
Q 79.640625 56 84.28125 50.015625 
Q 88.921875 44.046875 88.921875 33.015625 
L 88.921875 0 
L 79.890625 0 
L 79.890625 32.71875 
Q 79.890625 40.578125 77.09375 44.375 
Q 74.3125 48.1875 68.609375 48.1875 
Q 61.625 48.1875 57.5625 43.546875 
Q 53.515625 38.921875 53.515625 30.90625 
L 53.515625 0 
L 44.484375 0 
L 44.484375 32.71875 
Q 44.484375 40.625 41.703125 44.40625 
Q 38.921875 48.1875 33.109375 48.1875 
Q 26.21875 48.1875 22.15625 43.53125 
Q 18.109375 38.875 18.109375 30.90625 
L 18.109375 0 
L 9.078125 0 
L 9.078125 54.6875 
L 18.109375 54.6875 
L 18.109375 46.1875 
Q 21.1875 51.21875 25.484375 53.609375 
Q 29.78125 56 35.6875 56 
Q 41.65625 56 45.828125 52.96875 
Q 50 49.953125 52 44.1875 
z
" id="DejaVuSans-109"/>
       <path d="M 9.078125 75.984375 
L 18.109375 75.984375 
L 18.109375 31.109375 
L 44.921875 54.6875 
L 56.390625 54.6875 
L 27.390625 29.109375 
L 57.625 0 
L 45.90625 0 
L 18.109375 26.703125 
L 18.109375 0 
L 9.078125 0 
z
" id="DejaVuSans-107"/>
      </defs>
      <use xlink:href="#DejaVuSans-98"/>
      <use x="63.476562" xlink:href="#DejaVuSans-101"/>
      <use x="125" xlink:href="#DejaVuSans-110"/>
      <use x="188.378906" xlink:href="#DejaVuSans-99"/>
      <use x="243.359375" xlink:href="#DejaVuSans-104"/>
      <use x="306.738281" xlink:href="#DejaVuSans-109"/>
      <use x="404.150391" xlink:href="#DejaVuSans-97"/>
      <use x="465.429688" xlink:href="#DejaVuSans-114"/>
      <use x="506.542969" xlink:href="#DejaVuSans-107"/>
     </g>
    </g>
    <g id="line2d_28">
     <path d="M 42.76 68.652812 
L 62.76 68.652812 
" style="fill:none;stroke:#2ca02c;stroke-linecap:square;stroke-width:1.5;"/>
    </g>
    <g id="line2d_29"/>
    <g id="text_14">
     <!-- excess -->
     <g transform="translate(70.76 72.152812)scale(0.1 -0.1)">
      <defs>
       <path d="M 54.890625 54.6875 
L 35.109375 28.078125 
L 55.90625 0 
L 45.3125 0 
L 29.390625 21.484375 
L 13.484375 0 
L 2.875 0 
L 24.125 28.609375 
L 4.6875 54.6875 
L 15.28125 54.6875 
L 29.78125 35.203125 
L 44.28125 54.6875 
z
" id="DejaVuSans-120"/>
       <path d="M 44.28125 53.078125 
L 44.28125 44.578125 
Q 40.484375 46.53125 36.375 47.5 
Q 32.28125 48.484375 27.875 48.484375 
Q 21.1875 48.484375 17.84375 46.4375 
Q 14.5 44.390625 14.5 40.28125 
Q 14.5 37.15625 16.890625 35.375 
Q 19.28125 33.59375 26.515625 31.984375 
L 29.59375 31.296875 
Q 39.15625 29.25 43.1875 25.515625 
Q 47.21875 21.78125 47.21875 15.09375 
Q 47.21875 7.46875 41.1875 3.015625 
Q 35.15625 -1.421875 24.609375 -1.421875 
Q 20.21875 -1.421875 15.453125 -0.5625 
Q 10.6875 0.296875 5.421875 2 
L 5.421875 11.28125 
Q 10.40625 8.6875 15.234375 7.390625 
Q 20.0625 6.109375 24.8125 6.109375 
Q 31.15625 6.109375 34.5625 8.28125 
Q 37.984375 10.453125 37.984375 14.40625 
Q 37.984375 18.0625 35.515625 20.015625 
Q 33.0625 21.96875 24.703125 23.78125 
L 21.578125 24.515625 
Q 13.234375 26.265625 9.515625 29.90625 
Q 5.8125 33.546875 5.8125 39.890625 
Q 5.8125 47.609375 11.28125 51.796875 
Q 16.75 56 26.8125 56 
Q 31.78125 56 36.171875 55.265625 
Q 40.578125 54.546875 44.28125 53.078125 
z
" id="DejaVuSans-115"/>
      </defs>
      <use xlink:href="#DejaVuSans-101"/>
      <use x="59.773438" xlink:href="#DejaVuSans-120"/>
      <use x="117.203125" xlink:href="#DejaVuSans-99"/>
      <use x="172.183594" xlink:href="#DejaVuSans-101"/>
      <use x="233.707031" xlink:href="#DejaVuSans-115"/>
      <use x="285.806641" xlink:href="#DejaVuSans-115"/>
     </g>
    </g>
   </g>
  </g>
 </g>
 <defs>
  <clipPath id="p1075fb91ca">
   <rect height="247.64" width="1107.44" x="33.76" y="25.92"/>
  </clipPath>
 </defs>
</svg>
