<?xml version="1.0" encoding="utf-8" standalone="no"?>
<!DOCTYPE svg PUBLIC "-//W3C//DTD SVG 1.1//EN"
  "http://www.w3.org/Graphics/SVG/1.1/DTD/svg11.dtd">
<!-- Created with matplotlib (https://matplotlib.org/) -->
<svg height="316.8pt" version="1.1" viewBox="0 0 1152 316.8" width="1152pt" xmlns="http://www.w3.org/2000/svg" xmlns:xlink="http://www.w3.org/1999/xlink">
 <metadata>
  <rdf:RDF xmlns:cc="http://creativecommons.org/ns#" xmlns:dc="http://purl.org/dc/elements/1.1/" xmlns:rdf="http://www.w3.org/1999/02/22-rdf-syntax-ns#">
   <cc:Work>
    <dc:type rdf:resource="http://purl.org/dc/dcmitype/StillImage"/>
    <dc:date>2023-07-20T10:57:38.326312</dc:date>
    <dc:format>image/svg+xml</dc:format>
    <dc:creator>
     <cc:Agent>
      <dc:title>Matplotlib v3.3.4, https://matplotlib.org/</dc:title>
     </cc:Agent>
    </dc:creator>
   </cc:Work>
  </rdf:RDF>
 </metadata>
 <defs>
  <style type="text/css">*{stroke-linecap:butt;stroke-linejoin:round;}</style>
 </defs>
 <g id="figure_1">
  <g id="patch_1">
   <path d="M 0 316.8 
L 1152 316.8 
L 1152 0 
L 0 0 
z
" style="fill:#ffffff;"/>
  </g>
  <g id="axes_1">
   <g id="patch_2">
    <path d="M 33.76 273.56 
L 1141.2 273.56 
L 1141.2 25.92 
L 33.76 25.92 
z
" style="fill:#ffffff;"/>
   </g>
   <g id="matplotlib.axis_1">
    <g id="xtick_1">
     <g id="line2d_1">
      <path clip-path="url(#pf6b9aea927)" d="M 54.487487 273.56 
L 54.487487 25.92 
" style="fill:none;stroke:#b0b0b0;stroke-linecap:square;stroke-width:0.8;"/>
     </g>
     <g id="line2d_2">
      <defs>
       <path d="M 0 0 
L 0 3.5 
" id="m57dda2a22f" style="stroke:#000000;stroke-width:0.8;"/>
      </defs>
      <g>
       <use style="stroke:#000000;stroke-width:0.8;" x="54.487487" xlink:href="#m57dda2a22f" y="273.56"/>
      </g>
     </g>
     <g id="text_1">
      <!-- 2010 -->
      <g transform="translate(57.246862 306.01)rotate(-90)scale(0.1 -0.1)">
       <defs>
        <path d="M 19.1875 8.296875 
L 53.609375 8.296875 
L 53.609375 0 
L 7.328125 0 
L 7.328125 8.296875 
Q 12.9375 14.109375 22.625 23.890625 
Q 32.328125 33.6875 34.8125 36.53125 
Q 39.546875 41.84375 41.421875 45.53125 
Q 43.3125 49.21875 43.3125 52.78125 
Q 43.3125 58.59375 39.234375 62.25 
Q 35.15625 65.921875 28.609375 65.921875 
Q 23.96875 65.921875 18.8125 64.3125 
Q 13.671875 62.703125 7.8125 59.421875 
L 7.8125 69.390625 
Q 13.765625 71.78125 18.9375 73 
Q 24.125 74.21875 28.421875 74.21875 
Q 39.75 74.21875 46.484375 68.546875 
Q 53.21875 62.890625 53.21875 53.421875 
Q 53.21875 48.921875 51.53125 44.890625 
Q 49.859375 40.875 45.40625 35.40625 
Q 44.1875 33.984375 37.640625 27.21875 
Q 31.109375 20.453125 19.1875 8.296875 
z
" id="DejaVuSans-50"/>
        <path d="M 31.78125 66.40625 
Q 24.171875 66.40625 20.328125 58.90625 
Q 16.5 51.421875 16.5 36.375 
Q 16.5 21.390625 20.328125 13.890625 
Q 24.171875 6.390625 31.78125 6.390625 
Q 39.453125 6.390625 43.28125 13.890625 
Q 47.125 21.390625 47.125 36.375 
Q 47.125 51.421875 43.28125 58.90625 
Q 39.453125 66.40625 31.78125 66.40625 
z
M 31.78125 74.21875 
Q 44.046875 74.21875 50.515625 64.515625 
Q 56.984375 54.828125 56.984375 36.375 
Q 56.984375 17.96875 50.515625 8.265625 
Q 44.046875 -1.421875 31.78125 -1.421875 
Q 19.53125 -1.421875 13.0625 8.265625 
Q 6.59375 17.96875 6.59375 36.375 
Q 6.59375 54.828125 13.0625 64.515625 
Q 19.53125 74.21875 31.78125 74.21875 
z
" id="DejaVuSans-48"/>
        <path d="M 12.40625 8.296875 
L 28.515625 8.296875 
L 28.515625 63.921875 
L 10.984375 60.40625 
L 10.984375 69.390625 
L 28.421875 72.90625 
L 38.28125 72.90625 
L 38.28125 8.296875 
L 54.390625 8.296875 
L 54.390625 0 
L 12.40625 0 
z
" id="DejaVuSans-49"/>
       </defs>
       <use xlink:href="#DejaVuSans-50"/>
       <use x="63.623047" xlink:href="#DejaVuSans-48"/>
       <use x="127.246094" xlink:href="#DejaVuSans-49"/>
       <use x="190.869141" xlink:href="#DejaVuSans-48"/>
      </g>
     </g>
    </g>
    <g id="xtick_2">
     <g id="line2d_3">
      <path clip-path="url(#pf6b9aea927)" d="M 392.234479 273.56 
L 392.234479 25.92 
" style="fill:none;stroke:#b0b0b0;stroke-linecap:square;stroke-width:0.8;"/>
     </g>
     <g id="line2d_4">
      <g>
       <use style="stroke:#000000;stroke-width:0.8;" x="392.234479" xlink:href="#m57dda2a22f" y="273.56"/>
      </g>
     </g>
     <g id="text_2">
      <!-- 2011 -->
      <g transform="translate(394.993854 306.01)rotate(-90)scale(0.1 -0.1)">
       <use xlink:href="#DejaVuSans-50"/>
       <use x="63.623047" xlink:href="#DejaVuSans-48"/>
       <use x="127.246094" xlink:href="#DejaVuSans-49"/>
       <use x="190.869141" xlink:href="#DejaVuSans-49"/>
      </g>
     </g>
    </g>
    <g id="xtick_3">
     <g id="line2d_5">
      <path clip-path="url(#pf6b9aea927)" d="M 729.981471 273.56 
L 729.981471 25.92 
" style="fill:none;stroke:#b0b0b0;stroke-linecap:square;stroke-width:0.8;"/>
     </g>
     <g id="line2d_6">
      <g>
       <use style="stroke:#000000;stroke-width:0.8;" x="729.981471" xlink:href="#m57dda2a22f" y="273.56"/>
      </g>
     </g>
     <g id="text_3">
      <!-- 2012 -->
      <g transform="translate(732.740846 306.01)rotate(-90)scale(0.1 -0.1)">
       <use xlink:href="#DejaVuSans-50"/>
       <use x="63.623047" xlink:href="#DejaVuSans-48"/>
       <use x="127.246094" xlink:href="#DejaVuSans-49"/>
       <use x="190.869141" xlink:href="#DejaVuSans-50"/>
      </g>
     </g>
    </g>
    <g id="xtick_4">
     <g id="line2d_7">
      <path clip-path="url(#pf6b9aea927)" d="M 1068.653797 273.56 
L 1068.653797 25.92 
" style="fill:none;stroke:#b0b0b0;stroke-linecap:square;stroke-width:0.8;"/>
     </g>
     <g id="line2d_8">
      <g>
       <use style="stroke:#000000;stroke-width:0.8;" x="1068.653797" xlink:href="#m57dda2a22f" y="273.56"/>
      </g>
     </g>
     <g id="text_4">
      <!-- 2013 -->
      <g transform="translate(1071.413172 306.01)rotate(-90)scale(0.1 -0.1)">
       <defs>
        <path d="M 40.578125 39.3125 
Q 47.65625 37.796875 51.625 33 
Q 55.609375 28.21875 55.609375 21.1875 
Q 55.609375 10.40625 48.1875 4.484375 
Q 40.765625 -1.421875 27.09375 -1.421875 
Q 22.515625 -1.421875 17.65625 -0.515625 
Q 12.796875 0.390625 7.625 2.203125 
L 7.625 11.71875 
Q 11.71875 9.328125 16.59375 8.109375 
Q 21.484375 6.890625 26.8125 6.890625 
Q 36.078125 6.890625 40.9375 10.546875 
Q 45.796875 14.203125 45.796875 21.1875 
Q 45.796875 27.640625 41.28125 31.265625 
Q 36.765625 34.90625 28.71875 34.90625 
L 20.21875 34.90625 
L 20.21875 43.015625 
L 29.109375 43.015625 
Q 36.375 43.015625 40.234375 45.921875 
Q 44.09375 48.828125 44.09375 54.296875 
Q 44.09375 59.90625 40.109375 62.90625 
Q 36.140625 65.921875 28.71875 65.921875 
Q 24.65625 65.921875 20.015625 65.03125 
Q 15.375 64.15625 9.8125 62.3125 
L 9.8125 71.09375 
Q 15.4375 72.65625 20.34375 73.4375 
Q 25.25 74.21875 29.59375 74.21875 
Q 40.828125 74.21875 47.359375 69.109375 
Q 53.90625 64.015625 53.90625 55.328125 
Q 53.90625 49.265625 50.4375 45.09375 
Q 46.96875 40.921875 40.578125 39.3125 
z
" id="DejaVuSans-51"/>
       </defs>
       <use xlink:href="#DejaVuSans-50"/>
       <use x="63.623047" xlink:href="#DejaVuSans-48"/>
       <use x="127.246094" xlink:href="#DejaVuSans-49"/>
       <use x="190.869141" xlink:href="#DejaVuSans-51"/>
      </g>
     </g>
    </g>
   </g>
   <g id="matplotlib.axis_2">
    <g id="ytick_1">
     <g id="line2d_9">
      <path clip-path="url(#pf6b9aea927)" d="M 33.76 260.659879 
L 1141.2 260.659879 
" style="fill:none;stroke:#b0b0b0;stroke-linecap:square;stroke-width:0.8;"/>
     </g>
     <g id="line2d_10">
      <defs>
       <path d="M 0 0 
L -3.5 0 
" id="m475dcc7fe4" style="stroke:#000000;stroke-width:0.8;"/>
      </defs>
      <g>
       <use style="stroke:#000000;stroke-width:0.8;" x="33.76" xlink:href="#m475dcc7fe4" y="260.659879"/>
      </g>
     </g>
     <g id="text_5">
      <!-- 0.2 -->
      <g transform="translate(10.856875 264.459098)scale(0.1 -0.1)">
       <defs>
        <path d="M 10.6875 12.40625 
L 21 12.40625 
L 21 0 
L 10.6875 0 
z
" id="DejaVuSans-46"/>
       </defs>
       <use xlink:href="#DejaVuSans-48"/>
       <use x="63.623047" xlink:href="#DejaVuSans-46"/>
       <use x="95.410156" xlink:href="#DejaVuSans-50"/>
      </g>
     </g>
    </g>
    <g id="ytick_2">
     <g id="line2d_11">
      <path clip-path="url(#pf6b9aea927)" d="M 33.76 222.008317 
L 1141.2 222.008317 
" style="fill:none;stroke:#b0b0b0;stroke-linecap:square;stroke-width:0.8;"/>
     </g>
     <g id="line2d_12">
      <g>
       <use style="stroke:#000000;stroke-width:0.8;" x="33.76" xlink:href="#m475dcc7fe4" y="222.008317"/>
      </g>
     </g>
     <g id="text_6">
      <!-- 0.4 -->
      <g transform="translate(10.856875 225.807536)scale(0.1 -0.1)">
       <defs>
        <path d="M 37.796875 64.3125 
L 12.890625 25.390625 
L 37.796875 25.390625 
z
M 35.203125 72.90625 
L 47.609375 72.90625 
L 47.609375 25.390625 
L 58.015625 25.390625 
L 58.015625 17.1875 
L 47.609375 17.1875 
L 47.609375 0 
L 37.796875 0 
L 37.796875 17.1875 
L 4.890625 17.1875 
L 4.890625 26.703125 
z
" id="DejaVuSans-52"/>
       </defs>
       <use xlink:href="#DejaVuSans-48"/>
       <use x="63.623047" xlink:href="#DejaVuSans-46"/>
       <use x="95.410156" xlink:href="#DejaVuSans-52"/>
      </g>
     </g>
    </g>
    <g id="ytick_3">
     <g id="line2d_13">
      <path clip-path="url(#pf6b9aea927)" d="M 33.76 183.356755 
L 1141.2 183.356755 
" style="fill:none;stroke:#b0b0b0;stroke-linecap:square;stroke-width:0.8;"/>
     </g>
     <g id="line2d_14">
      <g>
       <use style="stroke:#000000;stroke-width:0.8;" x="33.76" xlink:href="#m475dcc7fe4" y="183.356755"/>
      </g>
     </g>
     <g id="text_7">
      <!-- 0.6 -->
      <g transform="translate(10.856875 187.155974)scale(0.1 -0.1)">
       <defs>
        <path d="M 33.015625 40.375 
Q 26.375 40.375 22.484375 35.828125 
Q 18.609375 31.296875 18.609375 23.390625 
Q 18.609375 15.53125 22.484375 10.953125 
Q 26.375 6.390625 33.015625 6.390625 
Q 39.65625 6.390625 43.53125 10.953125 
Q 47.40625 15.53125 47.40625 23.390625 
Q 47.40625 31.296875 43.53125 35.828125 
Q 39.65625 40.375 33.015625 40.375 
z
M 52.59375 71.296875 
L 52.59375 62.3125 
Q 48.875 64.0625 45.09375 64.984375 
Q 41.3125 65.921875 37.59375 65.921875 
Q 27.828125 65.921875 22.671875 59.328125 
Q 17.53125 52.734375 16.796875 39.40625 
Q 19.671875 43.65625 24.015625 45.921875 
Q 28.375 48.1875 33.59375 48.1875 
Q 44.578125 48.1875 50.953125 41.515625 
Q 57.328125 34.859375 57.328125 23.390625 
Q 57.328125 12.15625 50.6875 5.359375 
Q 44.046875 -1.421875 33.015625 -1.421875 
Q 20.359375 -1.421875 13.671875 8.265625 
Q 6.984375 17.96875 6.984375 36.375 
Q 6.984375 53.65625 15.1875 63.9375 
Q 23.390625 74.21875 37.203125 74.21875 
Q 40.921875 74.21875 44.703125 73.484375 
Q 48.484375 72.75 52.59375 71.296875 
z
" id="DejaVuSans-54"/>
       </defs>
       <use xlink:href="#DejaVuSans-48"/>
       <use x="63.623047" xlink:href="#DejaVuSans-46"/>
       <use x="95.410156" xlink:href="#DejaVuSans-54"/>
      </g>
     </g>
    </g>
    <g id="ytick_4">
     <g id="line2d_15">
      <path clip-path="url(#pf6b9aea927)" d="M 33.76 144.705194 
L 1141.2 144.705194 
" style="fill:none;stroke:#b0b0b0;stroke-linecap:square;stroke-width:0.8;"/>
     </g>
     <g id="line2d_16">
      <g>
       <use style="stroke:#000000;stroke-width:0.8;" x="33.76" xlink:href="#m475dcc7fe4" y="144.705194"/>
      </g>
     </g>
     <g id="text_8">
      <!-- 0.8 -->
      <g transform="translate(10.856875 148.504412)scale(0.1 -0.1)">
       <defs>
        <path d="M 31.78125 34.625 
Q 24.75 34.625 20.71875 30.859375 
Q 16.703125 27.09375 16.703125 20.515625 
Q 16.703125 13.921875 20.71875 10.15625 
Q 24.75 6.390625 31.78125 6.390625 
Q 38.8125 6.390625 42.859375 10.171875 
Q 46.921875 13.96875 46.921875 20.515625 
Q 46.921875 27.09375 42.890625 30.859375 
Q 38.875 34.625 31.78125 34.625 
z
M 21.921875 38.8125 
Q 15.578125 40.375 12.03125 44.71875 
Q 8.5 49.078125 8.5 55.328125 
Q 8.5 64.0625 14.71875 69.140625 
Q 20.953125 74.21875 31.78125 74.21875 
Q 42.671875 74.21875 48.875 69.140625 
Q 55.078125 64.0625 55.078125 55.328125 
Q 55.078125 49.078125 51.53125 44.71875 
Q 48 40.375 41.703125 38.8125 
Q 48.828125 37.15625 52.796875 32.3125 
Q 56.78125 27.484375 56.78125 20.515625 
Q 56.78125 9.90625 50.3125 4.234375 
Q 43.84375 -1.421875 31.78125 -1.421875 
Q 19.734375 -1.421875 13.25 4.234375 
Q 6.78125 9.90625 6.78125 20.515625 
Q 6.78125 27.484375 10.78125 32.3125 
Q 14.796875 37.15625 21.921875 38.8125 
z
M 18.3125 54.390625 
Q 18.3125 48.734375 21.84375 45.5625 
Q 25.390625 42.390625 31.78125 42.390625 
Q 38.140625 42.390625 41.71875 45.5625 
Q 45.3125 48.734375 45.3125 54.390625 
Q 45.3125 60.0625 41.71875 63.234375 
Q 38.140625 66.40625 31.78125 66.40625 
Q 25.390625 66.40625 21.84375 63.234375 
Q 18.3125 60.0625 18.3125 54.390625 
z
" id="DejaVuSans-56"/>
       </defs>
       <use xlink:href="#DejaVuSans-48"/>
       <use x="63.623047" xlink:href="#DejaVuSans-46"/>
       <use x="95.410156" xlink:href="#DejaVuSans-56"/>
      </g>
     </g>
    </g>
    <g id="ytick_5">
     <g id="line2d_17">
      <path clip-path="url(#pf6b9aea927)" d="M 33.76 106.053632 
L 1141.2 106.053632 
" style="fill:none;stroke:#b0b0b0;stroke-linecap:square;stroke-width:0.8;"/>
     </g>
     <g id="line2d_18">
      <g>
       <use style="stroke:#000000;stroke-width:0.8;" x="33.76" xlink:href="#m475dcc7fe4" y="106.053632"/>
      </g>
     </g>
     <g id="text_9">
      <!-- 1.0 -->
      <g transform="translate(10.856875 109.85285)scale(0.1 -0.1)">
       <use xlink:href="#DejaVuSans-49"/>
       <use x="63.623047" xlink:href="#DejaVuSans-46"/>
       <use x="95.410156" xlink:href="#DejaVuSans-48"/>
      </g>
     </g>
    </g>
    <g id="ytick_6">
     <g id="line2d_19">
      <path clip-path="url(#pf6b9aea927)" d="M 33.76 67.40207 
L 1141.2 67.40207 
" style="fill:none;stroke:#b0b0b0;stroke-linecap:square;stroke-width:0.8;"/>
     </g>
     <g id="line2d_20">
      <g>
       <use style="stroke:#000000;stroke-width:0.8;" x="33.76" xlink:href="#m475dcc7fe4" y="67.40207"/>
      </g>
     </g>
     <g id="text_10">
      <!-- 1.2 -->
      <g transform="translate(10.856875 71.201288)scale(0.1 -0.1)">
       <use xlink:href="#DejaVuSans-49"/>
       <use x="63.623047" xlink:href="#DejaVuSans-46"/>
       <use x="95.410156" xlink:href="#DejaVuSans-50"/>
      </g>
     </g>
    </g>
    <g id="ytick_7">
     <g id="line2d_21">
      <path clip-path="url(#pf6b9aea927)" d="M 33.76 28.750508 
L 1141.2 28.750508 
" style="fill:none;stroke:#b0b0b0;stroke-linecap:square;stroke-width:0.8;"/>
     </g>
     <g id="line2d_22">
      <g>
       <use style="stroke:#000000;stroke-width:0.8;" x="33.76" xlink:href="#m475dcc7fe4" y="28.750508"/>
      </g>
     </g>
     <g id="text_11">
      <!-- 1.4 -->
      <g transform="translate(10.856875 32.549727)scale(0.1 -0.1)">
       <use xlink:href="#DejaVuSans-49"/>
       <use x="63.623047" xlink:href="#DejaVuSans-46"/>
       <use x="95.410156" xlink:href="#DejaVuSans-52"/>
      </g>
     </g>
    </g>
   </g>
   <g id="line2d_23">
    <path clip-path="url(#pf6b9aea927)" d="M 84.098182 105.373061 
L 85.023516 103.822356 
L 85.94885 108.106641 
L 86.874184 110.7047 
L 89.650187 108.287636 
L 90.575521 110.12959 
L 91.500856 103.00949 
L 92.42619 105.080958 
L 93.351524 100.405837 
L 96.127527 110.125615 
L 97.052861 112.718643 
L 97.978195 119.389466 
L 98.903529 121.723912 
L 99.828864 121.334241 
L 102.604866 119.03841 
L 103.530201 114.9491 
L 104.455535 113.309546 
L 105.380869 108.965137 
L 106.306203 115.708027 
L 109.082206 116.30579 
L 110.00754 127.662412 
L 110.932874 123.020107 
L 111.858209 124.652235 
L 112.783543 119.308234 
L 115.559545 118.756492 
L 116.48488 123.908743 
L 117.410214 115.095709 
L 118.335548 116.76565 
L 119.260882 119.602587 
L 122.036885 118.356318 
L 122.962219 120.905238 
L 123.887553 122.137841 
L 124.812888 123.822068 
L 125.738222 123.551623 
L 128.514225 127.470797 
L 129.439559 121.042524 
L 130.364893 121.410358 
L 131.290227 129.115963 
L 132.215561 124.418089 
L 134.991564 130.257541 
L 135.916898 128.674666 
L 136.842233 124.681522 
L 137.767567 137.837135 
L 138.692901 133.192278 
L 141.468904 132.936905 
L 142.394238 131.77966 
L 143.319572 131.121885 
L 144.244906 133.889138 
L 147.946243 142.490284 
L 148.871578 144.975229 
L 149.796912 140.162784 
L 150.722246 144.34602 
L 151.64758 143.565749 
L 154.423583 146.379584 
L 155.348917 138.518882 
L 156.274251 137.738359 
L 157.199586 144.677924 
L 158.12492 145.37721 
L 160.900922 142.198151 
L 161.826257 146.285473 
L 162.751591 152.662881 
L 163.676925 149.272371 
L 164.602259 149.18032 
L 167.378262 137.726825 
L 168.303596 137.836992 
L 169.22893 138.120522 
L 171.079599 131.895284 
L 173.855602 139.632862 
L 174.780936 141.715678 
L 175.70627 138.857972 
L 176.631604 142.641133 
L 177.556939 140.97527 
L 180.332941 138.68718 
L 181.258275 139.70596 
L 182.18361 139.682861 
L 183.108944 132.443215 
L 184.034278 133.27093 
L 186.810281 133.776888 
L 187.735615 135.224724 
L 188.660949 134.154058 
L 189.586283 137.236659 
L 190.511618 133.762116 
L 193.28762 136.104406 
L 194.212955 141.421213 
L 195.138289 145.182786 
L 196.063623 144.803281 
L 196.988957 145.115122 
L 199.76496 146.354834 
L 200.690294 149.799819 
L 201.615628 145.657049 
L 202.540963 146.483827 
L 203.466297 151.183201 
L 206.242299 153.0599 
L 207.167634 152.474375 
L 208.092968 153.189043 
L 209.018302 147.679729 
L 209.943636 148.076491 
L 212.719639 146.775939 
L 213.644973 150.53369 
L 214.570307 147.56591 
L 215.495642 153.69607 
L 216.420976 152.996676 
L 219.196979 150.248732 
L 220.122313 145.705576 
L 221.047647 143.659917 
L 221.972981 128.448218 
L 222.898316 131.035325 
L 225.674318 125.515511 
L 227.524987 107.735874 
L 228.450321 104.781915 
L 229.375655 104.998852 
L 232.151658 109.499068 
L 233.076992 102.001982 
L 234.002326 111.390241 
L 234.92766 110.079363 
L 235.852995 102.792485 
L 238.628997 106.100592 
L 239.554332 112.212333 
L 240.479666 108.463654 
L 241.405 107.070738 
L 242.330334 100.269137 
L 245.106337 99.914999 
L 246.957005 92.167569 
L 247.88234 91.332818 
L 248.807674 96.696482 
L 251.583676 113.532778 
L 252.509011 111.500114 
L 253.434345 104.419665 
L 254.359679 105.174219 
L 255.285013 107.54184 
L 258.061016 106.393732 
L 258.98635 110.164684 
L 259.911684 115.201886 
L 260.837019 109.02707 
L 261.762353 112.552992 
L 264.538356 106.274382 
L 265.46369 106.620789 
L 266.389024 102.123035 
L 267.314358 109.661387 
L 271.015695 109.54085 
L 271.941029 110.42873 
L 272.866364 105.786407 
L 273.791698 109.178734 
L 274.717032 110.601529 
L 277.493035 109.76862 
L 278.418369 114.280859 
L 279.343703 132.704088 
L 280.269037 135.846435 
L 281.194372 140.580205 
L 284.895709 134.727662 
L 285.821043 137.753632 
L 286.746377 136.329015 
L 287.671711 132.23869 
L 290.447714 132.824939 
L 291.373048 128.999602 
L 292.298382 124.553929 
L 293.223717 125.302222 
L 294.149051 124.22054 
L 296.925053 128.441986 
L 297.850388 126.639629 
L 298.775722 130.817031 
L 299.701056 133.981441 
L 300.62639 128.271944 
L 303.402393 119.612996 
L 304.327727 124.356769 
L 305.253061 129.950389 
L 306.178396 138.332687 
L 307.10373 143.364503 
L 309.879733 140.993128 
L 310.805067 141.326842 
L 311.730401 143.521327 
L 312.655735 143.21282 
L 313.58107 142.605877 
L 316.357072 146.719418 
L 317.282406 148.783293 
L 318.207741 152.029495 
L 319.133075 148.702681 
L 320.058409 148.46019 
L 322.834412 150.615503 
L 324.68508 147.869943 
L 325.610414 144.061408 
L 326.535749 146.061749 
L 329.311751 142.859442 
L 330.237086 144.81875 
L 331.16242 144.609932 
L 332.087754 149.208787 
L 333.013088 148.840021 
L 336.714425 122.912537 
L 337.639759 121.38989 
L 338.565094 120.663564 
L 339.490428 121.002388 
L 343.191765 116.668203 
L 344.117099 113.791259 
L 345.042433 119.299387 
L 345.967767 119.472055 
L 348.74377 118.017524 
L 349.669104 121.27305 
L 350.594439 116.359687 
L 351.519773 113.623518 
L 352.445107 115.304487 
L 355.22111 110.616202 
L 356.146444 107.577663 
L 357.071778 106.564073 
L 357.997112 104.3654 
L 358.922447 109.897904 
L 361.698449 110.678506 
L 362.623783 112.13892 
L 363.549118 135.682889 
L 364.474452 141.752213 
L 365.399786 139.221511 
L 368.175789 140.221898 
L 369.101123 144.493002 
L 370.026457 146.17974 
L 370.951791 141.825993 
L 371.877126 147.390493 
L 374.653128 146.833631 
L 375.578463 144.080592 
L 376.503797 147.807858 
L 377.429131 149.529383 
L 378.354465 147.627212 
L 381.130468 143.836685 
L 382.055802 142.376186 
L 382.981136 145.82374 
L 383.906471 147.361922 
L 384.831805 143.499044 
L 387.607807 144.45352 
L 388.533142 146.828613 
L 389.458476 147.456627 
L 390.38381 146.153395 
L 391.309144 147.958171 
L 394.085147 146.362177 
L 395.010481 148.003001 
L 395.935816 141.835394 
L 396.86115 144.807316 
L 397.786484 145.532822 
L 400.562487 145.836018 
L 401.487821 146.296216 
L 402.413155 138.149683 
L 403.338489 137.367239 
L 404.263824 142.641519 
L 407.039826 142.030324 
L 407.96516 143.297128 
L 408.890495 142.785245 
L 409.815829 143.917683 
L 410.741163 142.258305 
L 413.517166 147.048437 
L 414.4425 151.216313 
L 415.367834 152.803185 
L 416.293168 157.072292 
L 417.218503 159.567941 
L 419.994505 159.043274 
L 420.91984 135.258308 
L 421.845174 130.213775 
L 422.770508 132.077267 
L 423.695842 127.551782 
L 426.471845 124.214241 
L 427.397179 123.964048 
L 428.322513 128.058974 
L 430.173182 116.988907 
L 432.949184 116.015077 
L 433.874519 119.491845 
L 435.725187 111.320677 
L 436.650521 114.15393 
L 439.426524 109.834059 
L 440.351858 116.951162 
L 442.202527 120.093919 
L 443.127861 121.124897 
L 445.903864 119.656867 
L 446.829198 145.239943 
L 447.754532 142.297016 
L 448.679866 147.371443 
L 449.605201 150.079734 
L 452.381203 149.418821 
L 453.306537 145.028162 
L 454.231872 148.210328 
L 455.157206 149.084355 
L 456.08254 144.498453 
L 458.858543 141.020428 
L 459.783877 142.662755 
L 460.709211 145.915346 
L 462.55988 141.735454 
L 465.335882 141.394585 
L 466.261217 144.249773 
L 467.186551 146.100277 
L 468.111885 153.701968 
L 469.037219 150.620151 
L 471.813222 151.275513 
L 472.738556 150.958253 
L 473.66389 153.27947 
L 474.589225 151.671893 
L 475.514559 133.398543 
L 478.290561 134.70545 
L 480.14123 123.943221 
L 481.066564 125.360186 
L 481.991898 124.980683 
L 484.767901 122.036991 
L 485.693235 124.973541 
L 486.61857 121.558344 
L 487.543904 120.374694 
L 488.469238 120.154666 
L 491.245241 126.49456 
L 492.170575 119.47726 
L 493.095909 119.477277 
L 494.021243 116.849873 
L 494.946578 117.261001 
L 497.72258 122.798354 
L 498.647914 128.514342 
L 499.573249 122.546337 
L 500.498583 118.656573 
L 501.423917 125.427976 
L 504.19992 140.902275 
L 505.125254 140.071523 
L 506.050588 141.408968 
L 506.975922 137.376235 
L 507.901257 138.589394 
L 510.677259 133.962013 
L 511.602594 129.632445 
L 512.527928 130.307845 
L 513.453262 136.422031 
L 514.378596 140.721033 
L 517.154599 142.241035 
L 518.079933 137.17517 
L 519.005267 137.8004 
L 519.930602 143.489018 
L 520.855936 141.537983 
L 523.631939 138.085167 
L 524.557273 138.043296 
L 525.482607 142.648401 
L 526.407941 144.502544 
L 527.333275 143.026219 
L 530.109278 147.577739 
L 531.959947 150.02406 
L 532.885281 151.94421 
L 533.810615 151.067146 
L 536.586618 150.551814 
L 537.511952 154.176391 
L 538.437286 158.309933 
L 540.287955 163.64358 
L 543.989291 156.772188 
L 544.914626 160.375595 
L 545.83996 161.428166 
L 546.765294 163.538791 
L 549.541297 163.75076 
L 550.466631 163.970898 
L 551.391965 161.891613 
L 552.317299 162.666559 
L 553.242634 162.321808 
L 556.018636 161.785971 
L 556.943971 164.505768 
L 558.794639 164.730827 
L 559.719973 180.178809 
L 562.495976 183.004058 
L 563.42131 184.392672 
L 566.197313 191.299583 
L 568.973316 191.879497 
L 569.89865 193.161508 
L 570.823984 191.455039 
L 571.749318 195.116949 
L 572.674652 196.201859 
L 575.450655 197.856937 
L 576.375989 194.612711 
L 577.301324 193.520702 
L 578.226658 196.962303 
L 579.151992 198.238905 
L 581.927995 196.288546 
L 582.853329 194.373767 
L 583.778663 198.198078 
L 585.629332 200.195011 
L 588.405334 178.872991 
L 589.330668 178.032131 
L 590.256003 179.196575 
L 591.181337 176.416345 
L 592.106671 175.575864 
L 594.882674 177.211487 
L 595.808008 180.297738 
L 596.733342 180.174631 
L 597.658676 181.152565 
L 598.584011 182.38496 
L 601.360013 181.906749 
L 602.285348 181.221691 
L 603.210682 178.022656 
L 604.136016 179.076181 
L 605.06135 177.960231 
L 607.837353 176.818254 
L 608.762687 172.402955 
L 609.688021 173.435991 
L 610.613356 176.938123 
L 611.53869 173.310593 
L 614.314693 177.40602 
L 615.240027 178.439241 
L 616.165361 177.906868 
L 617.090695 192.301688 
L 618.016029 189.173473 
L 621.717366 192.299972 
L 622.642701 191.35273 
L 623.568035 193.760288 
L 627.269372 198.492825 
L 628.194706 202.282376 
L 629.12004 204.437187 
L 630.045374 207.656647 
L 633.746711 202.640706 
L 634.672045 201.958051 
L 635.59738 200.062497 
L 636.522714 197.323059 
L 637.448048 198.491052 
L 640.224051 200.404159 
L 641.149385 200.297045 
L 642.074719 198.079765 
L 643.000053 202.029632 
L 643.925388 200.695798 
L 646.70139 198.17639 
L 647.626725 196.323851 
L 648.552059 198.259807 
L 649.477393 196.992906 
L 650.402727 196.370679 
L 653.17873 196.152022 
L 654.104064 194.993072 
L 655.029398 192.449424 
L 655.954733 191.254866 
L 656.880067 191.134809 
L 659.65607 196.623609 
L 660.581404 195.657109 
L 661.506738 199.184137 
L 662.432072 199.128019 
L 663.357406 202.538142 
L 666.133409 203.447164 
L 667.058743 202.446219 
L 667.984078 202.231018 
L 668.909412 202.783426 
L 669.834746 206.134185 
L 672.610749 203.737361 
L 673.536083 210.387781 
L 674.461417 212.92719 
L 675.386751 215.836175 
L 676.312086 216.022803 
L 679.088088 214.757256 
L 680.938757 217.865369 
L 681.864091 218.522108 
L 682.789425 218.361991 
L 685.565428 216.872551 
L 686.490762 217.178216 
L 687.416096 215.658071 
L 688.34143 212.343611 
L 689.266765 212.653114 
L 692.042767 212.671274 
L 692.968102 213.123542 
L 693.893436 212.464439 
L 694.81877 215.973658 
L 695.744104 215.58909 
L 698.520107 217.418966 
L 699.445441 220.852868 
L 700.370775 218.944763 
L 701.29611 225.454602 
L 702.221444 229.204888 
L 704.997447 232.348497 
L 705.922781 231.253675 
L 706.848115 233.679524 
L 707.773449 232.83181 
L 708.698783 235.388972 
L 711.474786 233.703955 
L 712.40012 234.481592 
L 713.325455 234.87708 
L 714.250789 233.775133 
L 715.176123 233.359399 
L 717.952126 232.888595 
L 719.802794 234.180567 
L 720.728128 234.108888 
L 721.653463 236.70347 
L 724.429465 238.431101 
L 726.280134 241.295528 
L 727.205468 241.359991 
L 728.130802 240.459573 
L 730.906805 217.505566 
L 731.832139 218.513022 
L 732.757473 217.722842 
L 733.682807 215.317313 
L 734.608142 213.98283 
L 737.384144 215.406426 
L 738.309479 213.235145 
L 739.234813 209.60833 
L 740.160147 207.958745 
L 741.085481 207.632114 
L 743.861484 208.280404 
L 744.786818 204.567708 
L 745.712152 201.851882 
L 746.637487 200.194136 
L 747.562821 202.351018 
L 750.338824 203.435938 
L 751.264158 206.846943 
L 752.189492 204.562653 
L 753.114826 205.295815 
L 754.04016 203.466242 
L 756.816163 203.517526 
L 757.741497 204.111071 
L 758.666832 203.770138 
L 759.592166 202.472166 
L 760.5175 197.988746 
L 763.293503 192.330089 
L 764.218837 192.310674 
L 765.144171 191.136313 
L 766.069505 188.754432 
L 766.99484 189.288061 
L 769.770842 192.100365 
L 770.696176 195.671007 
L 771.621511 195.968784 
L 773.472179 188.812284 
L 776.248182 184.303606 
L 777.173516 186.336529 
L 778.09885 186.391385 
L 779.024184 190.206015 
L 779.949519 191.419329 
L 782.725521 190.140443 
L 783.650856 189.329669 
L 784.57619 190.53232 
L 785.501524 215.729639 
L 786.426858 216.820815 
L 789.202861 219.532778 
L 790.128195 216.659992 
L 791.053529 218.8736 
L 791.978864 219.230572 
L 792.904198 221.467026 
L 795.680201 223.641544 
L 796.605535 225.030423 
L 797.530869 225.56133 
L 798.456203 223.309422 
L 799.381537 225.363351 
L 802.15754 223.745709 
L 803.082874 222.224935 
L 804.008209 221.493927 
L 805.858877 219.160689 
L 808.63488 215.268861 
L 809.560214 216.517335 
L 810.485548 219.074142 
L 811.410882 222.503878 
L 812.336217 224.360238 
L 816.037553 230.097318 
L 816.962888 230.397231 
L 817.888222 233.50379 
L 818.813556 234.611146 
L 821.589559 234.803248 
L 822.514893 235.378477 
L 823.440227 235.342846 
L 824.365561 235.679368 
L 825.290896 237.057596 
L 828.066898 236.479025 
L 828.992233 237.348611 
L 829.917567 237.756364 
L 830.842901 236.157805 
L 831.768235 238.819554 
L 834.544238 241.224297 
L 835.469572 238.793429 
L 836.394906 239.1454 
L 837.320241 238.992413 
L 838.245575 239.600917 
L 841.021578 238.509147 
L 841.946912 233.957581 
L 842.872246 234.838837 
L 843.79758 235.367954 
L 844.722914 236.10788 
L 847.498917 235.172128 
L 848.424251 238.543269 
L 849.349586 238.365546 
L 850.27492 238.019375 
L 851.200254 237.860312 
L 853.976257 240.908332 
L 854.901591 241.55942 
L 855.826925 242.604975 
L 856.752259 242.706887 
L 857.677594 240.830435 
L 860.453596 242.746996 
L 861.37893 241.894136 
L 862.304265 241.594045 
L 863.229599 241.666827 
L 864.154933 240.298519 
L 866.930936 240.268711 
L 867.85627 238.873695 
L 868.781604 237.868939 
L 869.706939 238.224054 
L 870.632273 234.319569 
L 873.408275 231.536809 
L 874.33361 232.763203 
L 875.258944 234.575289 
L 876.184278 234.281675 
L 879.885615 235.608174 
L 880.810949 234.660568 
L 881.736283 235.240412 
L 882.661618 234.262094 
L 883.586952 236.348044 
L 886.362955 236.75658 
L 887.288289 235.994133 
L 888.213623 234.200637 
L 889.138957 234.495953 
L 890.064291 235.09423 
L 892.840294 233.738446 
L 893.765628 233.889769 
L 894.690963 230.620223 
L 896.541631 232.244025 
L 899.317634 250.689799 
L 900.242968 253.662898 
L 901.168302 253.370333 
L 902.093636 253.22787 
L 903.018971 252.915872 
L 905.794973 253.083182 
L 906.720307 253.801701 
L 907.645642 253.683757 
L 908.570976 252.419752 
L 909.49631 252.805626 
L 912.272313 254.799144 
L 913.197647 257.169292 
L 914.122981 258.06421 
L 915.97365 260.617331 
L 918.749652 261.975242 
L 919.674987 262.077807 
L 920.600321 261.821453 
L 922.450989 261.699017 
L 925.226992 261.99758 
L 926.152326 262.303636 
L 927.07766 248.729012 
L 928.002995 249.369233 
L 931.704332 249.770204 
L 933.555 247.097271 
L 934.480334 246.671179 
L 935.405668 244.865573 
L 938.181671 246.436085 
L 939.107005 245.612818 
L 940.03234 247.837498 
L 940.957674 247.325572 
L 941.883008 247.770238 
L 946.509679 246.801061 
L 947.435013 244.876765 
L 948.360348 242.682048 
L 951.13635 242.662514 
L 952.061684 243.681509 
L 952.987019 241.865264 
L 953.912353 244.691503 
L 954.837687 245.364595 
L 957.61369 251.093227 
L 958.539024 251.971792 
L 959.464358 251.939078 
L 961.315027 248.123051 
L 965.016364 247.268825 
L 966.867032 245.139908 
L 967.792366 248.042305 
L 970.568369 248.565117 
L 971.493703 247.520472 
L 972.419037 246.086216 
L 973.344372 246.326474 
L 974.269706 246.152578 
L 977.045709 246.96622 
L 977.971043 248.726602 
L 978.896377 251.16852 
L 979.821711 251.251159 
L 980.747045 252.720511 
L 983.523048 240.294132 
L 984.448382 241.726145 
L 985.373717 240.402481 
L 986.299051 240.494727 
L 987.224385 237.988155 
L 990.000388 235.653459 
L 990.925722 236.874518 
L 991.851056 238.473037 
L 992.77639 237.531737 
L 993.701725 238.085801 
L 996.477727 238.096052 
L 997.403061 237.660277 
L 998.328396 236.66323 
L 999.25373 237.565829 
L 1000.179064 235.814549 
L 1002.955067 234.576826 
L 1003.880401 235.495779 
L 1004.805735 234.650364 
L 1005.73107 231.921719 
L 1006.656404 232.003875 
L 1009.432406 230.361883 
L 1010.357741 229.278911 
L 1011.283075 227.57612 
L 1012.208409 242.702233 
L 1013.133743 241.014947 
L 1015.909746 240.868619 
L 1016.83508 240.420011 
L 1018.685749 240.218458 
L 1019.611083 239.267527 
L 1022.387086 239.616219 
L 1023.31242 238.351644 
L 1026.088422 241.242382 
L 1028.864425 240.490384 
L 1029.789759 239.843715 
L 1030.715094 240.592612 
L 1031.640428 239.446829 
L 1032.565762 240.701726 
L 1035.341765 240.681809 
L 1036.267099 242.33343 
L 1037.192433 241.162123 
L 1038.117767 242.014562 
L 1039.043102 243.689224 
L 1041.819104 238.552546 
L 1042.744439 239.775202 
L 1043.669773 237.616489 
L 1044.595107 235.862844 
L 1045.520441 237.046794 
L 1048.296444 237.200837 
L 1049.221778 239.686859 
L 1050.147112 240.0701 
L 1051.072447 239.691866 
L 1051.997781 237.445733 
L 1054.773783 239.582205 
L 1055.699118 239.50678 
L 1056.624452 237.403263 
L 1057.549786 237.331362 
L 1058.47512 239.75916 
L 1061.251123 237.574773 
L 1062.176457 237.878434 
L 1063.101791 236.076207 
L 1064.027126 236.489195 
L 1064.95246 235.331688 
L 1067.728463 235.202988 
L 1068.653797 244.653799 
L 1069.579131 243.856668 
L 1070.504465 242.512953 
L 1071.429799 244.030382 
L 1074.205802 245.009211 
L 1075.131136 246.145819 
L 1076.981805 249.348515 
L 1077.907139 248.238616 
L 1080.683142 248.744458 
L 1081.608476 248.051931 
L 1082.53381 250.016495 
L 1083.459144 250.646383 
L 1084.384479 250.482143 
L 1087.160481 250.258183 
L 1088.085816 249.565948 
L 1089.01115 251.083754 
L 1089.936484 251.280896 
L 1090.861818 250.19642 
L 1090.861818 250.19642 
" style="fill:none;stroke:#1f77b4;stroke-linecap:square;stroke-width:1.5;"/>
   </g>
   <g id="line2d_24">
    <path clip-path="url(#pf6b9aea927)" d="M 84.098182 105.916369 
L 85.023516 100.91567 
L 85.94885 107.48086 
L 86.874184 110.836517 
L 89.650187 106.358623 
L 90.575521 109.600716 
L 91.500856 99.811392 
L 92.42619 100.347985 
L 93.351524 99.763524 
L 97.052861 106.794029 
L 97.978195 112.494874 
L 98.903529 113.341893 
L 99.828864 115.901767 
L 102.604866 117.389366 
L 103.530201 113.206105 
L 104.455535 110.878216 
L 105.380869 104.944629 
L 106.306203 110.774111 
L 109.082206 111.128175 
L 110.00754 121.983244 
L 110.932874 119.174281 
L 111.858209 120.181558 
L 112.783543 115.109671 
L 115.559545 114.41405 
L 116.48488 118.056789 
L 117.410214 108.084166 
L 118.335548 110.142591 
L 119.260882 111.634312 
L 122.036885 112.282045 
L 122.962219 111.127222 
L 123.887553 115.28384 
L 124.812888 117.172314 
L 125.738222 116.543545 
L 128.514225 117.335918 
L 129.439559 108.992002 
L 130.364893 108.333735 
L 131.290227 114.634733 
L 132.215561 109.713145 
L 134.991564 114.506372 
L 135.916898 114.562315 
L 136.842233 109.626004 
L 137.767567 111.332956 
L 138.692901 107.587029 
L 143.319572 111.236231 
L 144.244906 112.702624 
L 145.170241 115.332248 
L 147.946243 125.133175 
L 148.871578 127.234562 
L 149.796912 121.467305 
L 150.722246 125.878108 
L 151.64758 125.983012 
L 154.423583 128.113874 
L 155.348917 121.093632 
L 156.274251 120.775065 
L 157.199586 126.497153 
L 158.12492 127.171317 
L 160.900922 123.874531 
L 161.826257 126.242503 
L 162.751591 129.172213 
L 163.676925 127.980556 
L 164.602259 128.312246 
L 167.378262 127.917417 
L 168.303596 125.118664 
L 169.22893 124.617073 
L 170.154265 121.02295 
L 171.079599 119.682438 
L 173.855602 123.381695 
L 174.780936 122.516633 
L 175.70627 120.054268 
L 176.631604 122.679454 
L 177.556939 124.636691 
L 180.332941 124.932688 
L 181.258275 127.677179 
L 182.18361 126.735767 
L 183.108944 119.426729 
L 184.034278 122.070738 
L 186.810281 124.056297 
L 187.735615 127.766022 
L 188.660949 124.774072 
L 189.586283 125.85447 
L 190.511618 125.101361 
L 193.28762 127.015758 
L 194.212955 131.280473 
L 195.138289 132.601695 
L 196.063623 129.463824 
L 196.988957 129.038274 
L 199.76496 127.051074 
L 200.690294 130.042141 
L 201.615628 125.273625 
L 202.540963 124.561523 
L 203.466297 128.950535 
L 206.242299 129.649027 
L 207.167634 129.324442 
L 208.092968 128.723858 
L 209.018302 123.773098 
L 209.943636 124.870471 
L 212.719639 120.473383 
L 213.644973 122.244109 
L 214.570307 117.835463 
L 215.495642 127.240898 
L 216.420976 125.95966 
L 219.196979 121.727274 
L 220.122313 115.574384 
L 221.047647 112.943093 
L 221.972981 118.907033 
L 222.898316 117.968723 
L 225.674318 112.963556 
L 226.599652 107.483704 
L 227.524987 108.705071 
L 228.450321 108.257462 
L 229.375655 106.112774 
L 232.151658 108.728491 
L 233.076992 103.84309 
L 234.002326 106.448291 
L 234.92766 108.36859 
L 235.852995 101.336317 
L 238.628997 101.932572 
L 239.554332 109.114401 
L 240.479666 111.462865 
L 241.405 110.179492 
L 242.330334 109.663594 
L 245.106337 104.720649 
L 246.031671 98.340137 
L 246.957005 98.363249 
L 247.88234 98.214338 
L 248.807674 102.696269 
L 251.583676 96.740449 
L 252.509011 95.804492 
L 253.434345 89.425939 
L 254.359679 85.224394 
L 255.285013 85.403066 
L 258.061016 79.74018 
L 258.98635 84.72995 
L 259.911684 87.233516 
L 260.837019 80.60444 
L 261.762353 79.699004 
L 264.538356 75.261816 
L 265.46369 76.938863 
L 266.389024 69.940631 
L 267.314358 73.715414 
L 268.239693 73.349676 
L 271.015695 72.941937 
L 271.941029 75.791385 
L 272.866364 74.287325 
L 273.791698 73.180969 
L 274.717032 73.965085 
L 277.493035 72.706192 
L 278.418369 77.239558 
L 279.343703 81.174092 
L 280.269037 87.355382 
L 281.194372 88.579792 
L 283.970374 87.050339 
L 284.895709 84.350335 
L 285.821043 86.929795 
L 286.746377 87.262618 
L 287.671711 81.627302 
L 290.447714 84.496535 
L 291.373048 76.890453 
L 292.298382 73.237918 
L 294.149051 70.592461 
L 296.925053 73.469821 
L 297.850388 72.183921 
L 298.775722 76.849199 
L 299.701056 79.82311 
L 300.62639 75.31577 
L 303.402393 66.687512 
L 304.327727 73.795524 
L 305.253061 75.319985 
L 306.178396 81.697549 
L 307.10373 82.856961 
L 309.879733 79.734504 
L 310.805067 81.556865 
L 311.730401 86.450274 
L 312.655735 82.210634 
L 313.58107 80.955582 
L 316.357072 84.044497 
L 317.282406 89.514269 
L 318.207741 94.273824 
L 319.133075 90.305623 
L 320.058409 91.113392 
L 322.834412 92.700294 
L 323.759746 91.057439 
L 324.68508 92.322644 
L 325.610414 88.89726 
L 326.535749 90.556966 
L 329.311751 86.611407 
L 330.237086 90.932529 
L 331.16242 90.037218 
L 332.087754 93.069856 
L 333.013088 91.853772 
L 335.789091 94.040355 
L 336.714425 87.871297 
L 337.639759 86.020601 
L 338.565094 85.56468 
L 339.490428 80.75733 
L 342.26643 78.486429 
L 343.191765 79.588784 
L 344.117099 76.723365 
L 345.042433 81.839339 
L 345.967767 81.318471 
L 348.74377 77.83632 
L 349.669104 77.282278 
L 350.594439 75.130353 
L 351.519773 71.230969 
L 352.445107 70.288723 
L 355.22111 65.628168 
L 356.146444 64.344979 
L 357.071778 61.655516 
L 357.997112 62.062592 
L 358.922447 66.325608 
L 361.698449 67.228263 
L 362.623783 68.99096 
L 363.549118 67.392988 
L 364.474452 74.310209 
L 365.399786 73.249219 
L 368.175789 74.600449 
L 369.101123 80.839671 
L 370.026457 81.840385 
L 370.951791 80.012608 
L 371.877126 80.549758 
L 374.653128 80.009521 
L 375.578463 77.65372 
L 376.503797 81.648386 
L 377.429131 79.563076 
L 378.354465 78.07586 
L 381.130468 77.29949 
L 382.055802 74.240487 
L 382.981136 74.857294 
L 383.906471 69.988026 
L 384.831805 67.1186 
L 387.607807 61.615689 
L 388.533142 66.97844 
L 389.458476 65.778579 
L 390.38381 62.464771 
L 391.309144 66.923223 
L 394.085147 63.810514 
L 395.010481 59.950696 
L 395.935816 52.265856 
L 396.86115 53.566512 
L 397.786484 50.833941 
L 400.562487 50.713837 
L 401.487821 51.490354 
L 402.413155 41.846449 
L 403.338489 37.749568 
L 404.263824 40.525523 
L 407.039826 37.176364 
L 407.96516 42.347715 
L 408.890495 41.659215 
L 410.741163 45.710023 
L 413.517166 51.143109 
L 414.4425 57.6635 
L 415.367834 62.785796 
L 416.293168 64.596766 
L 417.218503 62.334084 
L 419.994505 64.007827 
L 420.91984 65.985195 
L 421.845174 60.721407 
L 422.770508 65.399003 
L 423.695842 60.152079 
L 426.471845 55.355862 
L 427.397179 56.540288 
L 428.322513 61.579397 
L 429.247848 55.908924 
L 430.173182 51.37042 
L 432.949184 50.71418 
L 433.874519 57.167568 
L 434.799853 56.406255 
L 435.725187 51.16229 
L 436.650521 51.799389 
L 439.426524 53.903048 
L 440.351858 57.005319 
L 441.277193 57.62724 
L 442.202527 60.199107 
L 443.127861 58.611458 
L 445.903864 56.847952 
L 446.829198 60.645072 
L 447.754532 53.519417 
L 448.679866 61.086516 
L 449.605201 63.833479 
L 452.381203 60.936492 
L 453.306537 57.256823 
L 454.231872 60.505576 
L 455.157206 62.141715 
L 456.08254 55.900457 
L 458.858543 52.292392 
L 459.783877 55.44037 
L 460.709211 59.977844 
L 462.55988 53.354113 
L 465.335882 52.427659 
L 466.261217 54.788061 
L 467.186551 59.30266 
L 468.111885 66.7811 
L 469.037219 60.418013 
L 471.813222 61.450266 
L 473.66389 68.076879 
L 474.589225 66.048433 
L 475.514559 65.537536 
L 478.290561 65.345398 
L 479.215896 58.170811 
L 480.14123 53.573117 
L 481.066564 56.620686 
L 481.991898 56.529666 
L 484.767901 56.719404 
L 485.693235 59.996431 
L 487.543904 51.355485 
L 488.469238 48.584914 
L 491.245241 57.200337 
L 492.170575 49.807366 
L 493.095909 52.195673 
L 494.021243 46.640321 
L 494.946578 45.656193 
L 498.647914 49.171346 
L 499.573249 44.38377 
L 500.498583 42.591761 
L 501.423917 49.384757 
L 504.19992 53.805874 
L 505.125254 49.102937 
L 506.050588 52.196592 
L 506.975922 49.246289 
L 507.901257 51.405161 
L 510.677259 49.452532 
L 511.602594 45.703459 
L 512.527928 50.217432 
L 513.453262 57.181051 
L 514.378596 61.013938 
L 517.154599 61.602928 
L 518.079933 56.498137 
L 519.005267 57.86145 
L 519.930602 64.803196 
L 520.855936 65.492013 
L 523.631939 60.083885 
L 525.482607 71.974904 
L 526.407941 75.695785 
L 527.333275 73.695314 
L 530.109278 72.733383 
L 531.034612 73.703576 
L 531.959947 68.431361 
L 532.885281 73.71289 
L 536.586618 69.994333 
L 537.511952 75.316413 
L 538.437286 83.935427 
L 540.287955 92.331204 
L 543.063957 84.565753 
L 543.989291 81.406928 
L 544.914626 84.335785 
L 545.83996 84.136819 
L 546.765294 82.244929 
L 549.541297 86.701978 
L 550.466631 86.214256 
L 553.242634 88.024321 
L 556.018636 91.403836 
L 556.943971 93.720754 
L 557.869305 93.384495 
L 558.794639 90.89542 
L 559.719973 93.565655 
L 562.495976 99.283071 
L 563.42131 101.83839 
L 564.346644 107.878072 
L 565.271979 111.24575 
L 566.197313 113.248712 
L 568.973316 115.32937 
L 569.89865 115.805939 
L 570.823984 116.463617 
L 571.749318 125.582127 
L 572.674652 128.378353 
L 575.450655 131.512511 
L 576.375989 128.589443 
L 577.301324 124.927904 
L 578.226658 131.948553 
L 579.151992 135.810562 
L 581.927995 132.920055 
L 582.853329 129.019409 
L 584.703997 134.142805 
L 585.629332 137.190181 
L 588.405334 139.109009 
L 589.330668 136.332653 
L 590.256003 136.752598 
L 591.181337 135.30028 
L 592.106671 132.162101 
L 594.882674 132.697906 
L 595.808008 135.18635 
L 596.733342 134.974322 
L 597.658676 135.963096 
L 598.584011 136.067186 
L 601.360013 135.092014 
L 602.285348 134.106073 
L 603.210682 129.02372 
L 604.136016 129.270659 
L 605.06135 127.340173 
L 607.837353 124.745565 
L 608.762687 118.657563 
L 609.688021 121.577897 
L 610.613356 127.140106 
L 611.53869 124.292951 
L 614.314693 128.325074 
L 615.240027 128.082508 
L 616.165361 127.457545 
L 617.090695 128.112197 
L 618.016029 123.379249 
L 620.792032 124.586755 
L 621.717366 126.310927 
L 622.642701 126.210132 
L 623.568035 130.768205 
L 624.493369 131.450247 
L 627.269372 138.101717 
L 628.194706 143.538398 
L 629.12004 146.631675 
L 630.045374 147.569724 
L 630.970709 146.855171 
L 633.746711 143.416245 
L 634.672045 145.103299 
L 635.59738 141.707459 
L 636.522714 138.915367 
L 637.448048 139.06818 
L 640.224051 140.104572 
L 641.149385 141.477581 
L 642.074719 139.127251 
L 643.000053 144.253459 
L 643.925388 140.672635 
L 646.70139 142.617251 
L 647.626725 142.366233 
L 648.552059 144.633944 
L 649.477393 142.168588 
L 650.402727 140.894524 
L 653.17873 140.997557 
L 654.104064 140.637971 
L 655.029398 138.451219 
L 655.954733 135.609779 
L 656.880067 136.759695 
L 659.65607 143.410415 
L 660.581404 143.540602 
L 661.506738 145.989281 
L 662.432072 147.206377 
L 663.357406 150.086427 
L 666.133409 150.720802 
L 667.058743 150.122838 
L 667.984078 148.305997 
L 668.909412 146.887586 
L 669.834746 152.499808 
L 672.610749 151.011127 
L 674.461417 158.974753 
L 675.386751 162.00877 
L 676.312086 162.869522 
L 679.088088 161.13052 
L 680.013422 164.368405 
L 680.938757 166.383105 
L 681.864091 169.099485 
L 682.789425 167.141617 
L 685.565428 167.315488 
L 686.490762 166.558583 
L 687.416096 163.143027 
L 688.34143 158.851759 
L 689.266765 158.002725 
L 692.042767 158.073602 
L 692.968102 157.853095 
L 693.893436 155.958483 
L 694.81877 160.575632 
L 695.744104 157.908622 
L 698.520107 161.231003 
L 699.445441 166.572194 
L 700.370775 163.049124 
L 701.29611 161.909632 
L 702.221444 166.017831 
L 704.997447 171.609494 
L 705.922781 169.215161 
L 706.848115 173.188208 
L 707.773449 172.219134 
L 708.698783 176.279073 
L 711.474786 174.020057 
L 712.40012 175.272209 
L 713.325455 176.152739 
L 714.250789 173.076318 
L 715.176123 171.988199 
L 717.952126 170.968043 
L 718.87746 171.434336 
L 719.802794 173.258996 
L 720.728128 172.999842 
L 721.653463 177.876255 
L 724.429465 181.060523 
L 725.354799 183.274664 
L 726.280134 184.415447 
L 727.205468 186.051208 
L 728.130802 185.540117 
L 730.906805 186.73398 
L 731.832139 188.333716 
L 732.757473 187.963283 
L 734.608142 184.277761 
L 737.384144 185.543323 
L 738.309479 183.775172 
L 739.234813 178.742181 
L 740.160147 178.285756 
L 741.085481 176.234191 
L 743.861484 175.758042 
L 744.786818 173.918202 
L 746.637487 171.091933 
L 747.562821 173.553101 
L 750.338824 173.355569 
L 751.264158 176.718321 
L 752.189492 174.81497 
L 753.114826 178.147465 
L 754.04016 179.518691 
L 756.816163 180.372895 
L 757.741497 179.462592 
L 758.666832 179.460884 
L 759.592166 179.819529 
L 760.5175 177.245988 
L 763.293503 175.962771 
L 764.218837 177.329395 
L 765.144171 178.154718 
L 766.069505 176.568657 
L 766.99484 174.539234 
L 769.770842 175.378158 
L 770.696176 177.81999 
L 771.621511 175.955743 
L 772.546845 172.175246 
L 773.472179 169.654092 
L 776.248182 166.221144 
L 777.173516 166.222125 
L 778.09885 165.105022 
L 779.024184 167.55728 
L 779.949519 167.822762 
L 782.725521 166.164693 
L 783.650856 163.476909 
L 784.57619 163.455056 
L 785.501524 164.638529 
L 786.426858 162.907141 
L 789.202861 162.785765 
L 790.128195 158.820162 
L 791.053529 160.991368 
L 791.978864 162.177703 
L 792.904198 162.524402 
L 795.680201 165.56084 
L 797.530869 172.763124 
L 798.456203 172.252492 
L 799.381537 172.902898 
L 802.15754 169.683611 
L 803.082874 167.590008 
L 804.008209 167.836173 
L 804.933543 165.848797 
L 805.858877 166.401072 
L 808.63488 160.853174 
L 809.560214 161.809465 
L 810.485548 163.496095 
L 811.410882 168.172344 
L 812.336217 170.991578 
L 815.112219 172.461279 
L 816.037553 173.299855 
L 816.962888 171.201694 
L 817.888222 175.335919 
L 818.813556 178.436703 
L 821.589559 176.752885 
L 822.514893 179.49312 
L 823.440227 176.764251 
L 824.365561 176.626498 
L 825.290896 179.790844 
L 828.066898 181.228294 
L 828.992233 183.102846 
L 829.917567 184.426252 
L 830.842901 181.820539 
L 831.768235 184.447192 
L 834.544238 186.635231 
L 835.469572 183.421479 
L 836.394906 183.085503 
L 837.320241 182.422419 
L 838.245575 183.947384 
L 841.946912 184.345658 
L 842.872246 184.849777 
L 843.79758 185.172268 
L 844.722914 185.373363 
L 847.498917 185.172777 
L 848.424251 187.86624 
L 849.349586 186.642895 
L 850.27492 186.74708 
L 851.200254 185.849139 
L 853.976257 190.845178 
L 854.901591 190.90231 
L 855.826925 192.076445 
L 856.752259 192.200721 
L 857.677594 190.133936 
L 860.453596 191.716613 
L 861.37893 191.967019 
L 862.304265 193.820387 
L 863.229599 193.184355 
L 864.154933 190.325926 
L 867.85627 190.728229 
L 868.781604 187.304167 
L 869.706939 187.224079 
L 870.632273 189.491683 
L 873.408275 184.46929 
L 874.33361 187.309158 
L 875.258944 187.254732 
L 876.184278 186.603519 
L 877.109612 188.199005 
L 879.885615 189.207691 
L 880.810949 188.143482 
L 881.736283 189.948997 
L 882.661618 188.161879 
L 883.586952 189.524021 
L 886.362955 191.335563 
L 887.288289 191.364914 
L 888.213623 188.680016 
L 889.138957 188.226848 
L 890.064291 190.102534 
L 892.840294 189.422549 
L 893.765628 187.932596 
L 894.690963 183.494793 
L 896.541631 187.541972 
L 899.317634 188.458566 
L 900.242968 192.573179 
L 901.168302 192.1535 
L 902.093636 190.881575 
L 903.018971 191.40975 
L 905.794973 192.696631 
L 906.720307 192.514329 
L 907.645642 192.976635 
L 908.570976 193.118223 
L 909.49631 194.25464 
L 912.272313 195.454271 
L 913.197647 200.456532 
L 915.97365 203.736238 
L 918.749652 206.208379 
L 919.674987 205.718493 
L 921.525655 205.412206 
L 922.450989 204.667425 
L 925.226992 206.112089 
L 926.152326 205.238322 
L 927.07766 207.719765 
L 928.002995 207.721637 
L 928.928329 210.344618 
L 931.704332 209.348603 
L 932.629666 207.754154 
L 933.555 205.57771 
L 934.480334 203.700071 
L 935.405668 203.348704 
L 938.181671 204.980541 
L 939.107005 203.770667 
L 940.03234 205.398047 
L 940.957674 204.599986 
L 941.883008 206.236241 
L 945.584345 206.327466 
L 946.509679 206.649759 
L 947.435013 203.914617 
L 948.360348 198.998147 
L 951.13635 198.09068 
L 952.061684 198.743059 
L 952.987019 197.375863 
L 953.912353 201.67377 
L 954.837687 202.775361 
L 957.61369 205.846644 
L 958.539024 207.954192 
L 959.464358 207.256932 
L 960.389693 206.163673 
L 961.315027 204.310084 
L 964.091029 202.951103 
L 965.016364 205.113802 
L 965.941698 204.514638 
L 966.867032 205.521432 
L 967.792366 209.171773 
L 970.568369 211.291066 
L 972.419037 206.890198 
L 973.344372 208.835518 
L 974.269706 210.321544 
L 977.045709 213.641196 
L 977.971043 215.355781 
L 978.896377 216.829385 
L 979.821711 214.500455 
L 980.747045 213.137025 
L 984.448382 215.438563 
L 985.373717 213.50067 
L 986.299051 213.994298 
L 987.224385 211.091293 
L 990.000388 209.242515 
L 990.925722 210.393898 
L 991.851056 211.057774 
L 992.77639 209.503261 
L 993.701725 209.454072 
L 996.477727 209.177776 
L 997.403061 209.892967 
L 998.328396 208.966157 
L 999.25373 210.800129 
L 1000.179064 210.202095 
L 1002.955067 207.784744 
L 1003.880401 207.697791 
L 1004.805735 205.597922 
L 1005.73107 201.760575 
L 1006.656404 202.197442 
L 1009.432406 200.547715 
L 1010.357741 201.059881 
L 1011.283075 198.58701 
L 1012.208409 198.263824 
L 1013.133743 195.369333 
L 1015.909746 196.263718 
L 1016.83508 195.441495 
L 1017.760414 195.596644 
L 1018.685749 194.562759 
L 1019.611083 193.038116 
L 1022.387086 194.609521 
L 1023.31242 194.627508 
L 1024.237754 195.287892 
L 1026.088422 198.175322 
L 1028.864425 196.88151 
L 1029.789759 196.278255 
L 1030.715094 198.896341 
L 1031.640428 195.411671 
L 1032.565762 196.91578 
L 1035.341765 196.343512 
L 1036.267099 199.023853 
L 1037.192433 198.016156 
L 1039.043102 202.993019 
L 1041.819104 204.606697 
L 1042.744439 207.480438 
L 1043.669773 203.171975 
L 1044.595107 201.437075 
L 1045.520441 202.796551 
L 1048.296444 202.917011 
L 1049.221778 205.618583 
L 1050.147112 206.204158 
L 1051.072447 205.953745 
L 1051.997781 204.676083 
L 1054.773783 207.646457 
L 1055.699118 210.401287 
L 1056.624452 209.39398 
L 1057.549786 211.017683 
L 1058.47512 213.814774 
L 1061.251123 212.069542 
L 1062.176457 211.754568 
L 1063.101791 212.622378 
L 1064.027126 212.97444 
L 1064.95246 212.010231 
L 1068.653797 212.185875 
L 1069.579131 211.184188 
L 1070.504465 208.472186 
L 1071.429799 209.987231 
L 1074.205802 209.195351 
L 1075.131136 209.334107 
L 1076.981805 214.842023 
L 1077.907139 214.663097 
L 1080.683142 216.52952 
L 1081.608476 213.832403 
L 1083.459144 218.513907 
L 1084.384479 217.970749 
L 1087.160481 217.178319 
L 1088.085816 217.199553 
L 1089.01115 218.287357 
L 1089.936484 217.541984 
L 1090.861818 215.287541 
L 1090.861818 215.287541 
" style="fill:none;stroke:#ff7f0e;stroke-linecap:square;stroke-width:1.5;"/>
   </g>
   <g id="line2d_25">
    <path clip-path="url(#pf6b9aea927)" d="M 84.098182 105.510323 
L 85.023516 108.971914 
L 85.94885 106.844745 
L 86.874184 106.093166 
L 89.650187 108.207592 
L 90.575521 106.839294 
L 91.500856 109.527176 
L 92.42619 111.019405 
L 93.351524 107.040336 
L 96.127527 111.272514 
L 97.052861 112.231075 
L 97.978195 113.379487 
L 98.903529 114.948902 
L 99.828864 112.006611 
L 102.604866 108.071266 
L 103.530201 108.130707 
L 104.455535 108.821891 
L 105.380869 110.371003 
L 106.306203 111.397358 
L 109.082206 111.656262 
L 110.00754 112.476809 
L 110.932874 110.383353 
L 111.858209 111.076041 
L 112.783543 110.646353 
L 115.559545 110.780537 
L 116.48488 112.446064 
L 117.410214 113.338417 
L 118.335548 113.022421 
L 119.260882 114.44852 
L 122.036885 112.528487 
L 122.962219 116.312799 
L 123.887553 113.535051 
L 124.812888 113.394638 
L 125.738222 113.749933 
L 128.514225 117.083186 
L 129.439559 118.621834 
L 130.364893 119.619622 
L 131.290227 121.474153 
L 132.215561 121.304661 
L 134.991564 122.747885 
L 135.916898 121.041248 
L 136.842233 121.632671 
L 137.767567 133.419062 
L 138.692901 131.952925 
L 141.468904 129.791218 
L 142.394238 128.07661 
L 143.319572 126.616948 
L 144.244906 128.11185 
L 145.170241 127.89947 
L 147.946243 125.56512 
L 148.871578 126.222081 
L 149.796912 126.626074 
L 150.722246 126.882266 
L 151.64758 125.909766 
L 154.423583 126.910827 
L 155.348917 125.119006 
L 156.274251 124.584808 
L 157.199586 126.489332 
L 158.12492 126.596677 
L 160.900922 126.337552 
L 161.826257 128.502762 
L 162.751591 132.729822 
L 163.676925 130.0452 
L 164.602259 129.613659 
L 167.378262 117.05925 
L 168.303596 120.159567 
L 169.22893 120.990008 
L 170.154265 121.033124 
L 171.079599 119.178124 
L 173.855602 123.793816 
L 174.780936 126.946269 
L 175.70627 126.221417 
L 176.631604 127.767653 
L 177.556939 124.042785 
L 180.332941 121.213004 
L 181.258275 119.539581 
L 182.18361 120.499611 
L 183.108944 119.963102 
L 184.034278 118.216597 
L 186.810281 116.739692 
L 187.735615 114.471943 
L 189.586283 118.770301 
L 190.511618 115.683744 
L 193.28762 116.263931 
L 194.212955 117.696235 
L 196.063623 123.518815 
L 196.988957 124.314059 
L 199.76496 127.763344 
L 200.690294 128.648359 
L 201.615628 128.72729 
L 202.540963 130.343133 
L 203.466297 131.295024 
L 206.242299 132.734816 
L 207.167634 132.3866 
L 208.092968 133.788802 
L 209.018302 132.351798 
L 209.943636 131.744924 
L 212.719639 134.527734 
L 213.644973 136.955653 
L 214.570307 137.759377 
L 215.495642 135.912867 
L 216.420976 136.344727 
L 219.196979 137.262877 
L 220.122313 137.938553 
L 221.047647 138.100471 
L 221.972981 117.186568 
L 222.898316 120.891451 
L 225.674318 119.963394 
L 226.599652 115.855758 
L 227.524987 105.972266 
L 228.450321 103.44514 
L 229.375655 105.862276 
L 232.151658 107.723387 
L 233.076992 105.067333 
L 234.002326 111.720854 
L 234.92766 108.544481 
L 235.852995 108.224293 
L 238.628997 110.865454 
L 239.554332 109.969674 
L 240.479666 103.838157 
L 241.405 103.746947 
L 242.330334 97.361191 
L 245.106337 102.265472 
L 246.031671 104.686765 
L 246.957005 101.164199 
L 247.88234 100.512538 
L 248.807674 101.208752 
L 251.583676 123.670979 
L 253.434345 121.437231 
L 254.359679 125.686633 
L 255.285013 127.659189 
L 258.061016 131.175744 
L 258.98635 130.641389 
L 259.911684 133.165365 
L 260.837019 132.786373 
L 261.762353 136.561447 
L 264.538356 134.378278 
L 265.46369 133.439701 
L 266.389024 134.788057 
L 267.314358 138.370072 
L 268.239693 138.60889 
L 271.015695 138.818812 
L 271.941029 137.549492 
L 272.866364 134.66223 
L 273.791698 138.357904 
L 274.717032 139.004234 
L 277.493035 139.192239 
L 278.418369 139.800747 
L 279.343703 152.856884 
L 280.269037 151.469097 
L 281.194372 154.896408 
L 283.970374 151.981053 
L 284.895709 152.503541 
L 285.821043 153.441046 
L 286.746377 151.926167 
L 287.671711 152.144126 
L 290.447714 150.720757 
L 291.373048 152.56785 
L 292.298382 151.147164 
L 293.223717 152.598377 
L 294.149051 152.589408 
L 296.925053 154.281068 
L 297.850388 153.577042 
L 298.775722 154.109319 
L 299.701056 154.895203 
L 300.62639 152.873625 
L 304.327727 150.484742 
L 305.253061 154.236952 
L 306.178396 157.286607 
L 307.10373 160.969283 
L 309.879733 160.861262 
L 310.805067 160.004041 
L 311.730401 158.808556 
L 312.655735 161.328773 
L 313.58107 161.589941 
L 316.357072 163.256906 
L 317.282406 161.640061 
L 318.207741 161.485725 
L 319.133075 161.039923 
L 320.058409 160.282901 
L 322.834412 161.209609 
L 323.759746 160.93568 
L 324.68508 158.92637 
L 325.610414 157.719069 
L 326.535749 158.426583 
L 329.311751 158.145443 
L 330.237086 157.045451 
L 331.16242 157.464412 
L 332.087754 159.625603 
L 333.013088 160.106073 
L 335.789091 140.09009 
L 336.714425 139.387156 
L 337.639759 139.406502 
L 338.565094 139.095532 
L 339.490428 143.002793 
L 342.26643 141.816867 
L 343.191765 140.051398 
L 344.117099 139.619701 
L 345.042433 140.690616 
L 345.967767 141.222678 
L 348.74377 142.469325 
L 349.669104 145.678122 
L 350.594439 142.927298 
L 351.519773 143.308596 
L 352.445107 145.365316 
L 355.22111 144.575711 
L 356.146444 142.933695 
L 357.071778 143.896936 
L 357.997112 141.857914 
L 358.922447 143.497183 
L 362.623783 143.558544 
L 363.549118 164.230935 
L 364.474452 165.212429 
L 365.399786 163.690885 
L 368.175789 163.727728 
L 369.101123 163.603211 
L 370.026457 164.46013 
L 370.951791 161.759504 
L 371.877126 166.282766 
L 374.653128 166.12367 
L 375.578463 165.149659 
L 376.503797 165.953199 
L 377.429131 168.746172 
L 378.354465 167.971688 
L 381.130468 165.150464 
L 382.055802 165.738727 
L 382.981136 168.306996 
L 383.906471 172.461848 
L 384.831805 170.824279 
L 387.607807 174.656478 
L 388.533142 173.75595 
L 389.458476 174.92148 
L 390.38381 175.619036 
L 391.309144 174.748183 
L 394.085147 175.10314 
L 395.010481 178.471386 
L 395.935816 177.425378 
L 396.86115 179.083928 
L 397.786484 180.985355 
L 401.487821 181.261082 
L 402.413155 179.569983 
L 403.338489 180.894008 
L 404.263824 183.493922 
L 407.039826 184.540988 
L 407.96516 183.201225 
L 409.815829 183.018266 
L 410.741163 180.895405 
L 413.517166 181.97019 
L 414.4425 182.099126 
L 415.367834 180.870491 
L 416.293168 183.414895 
L 417.218503 186.565611 
L 419.994505 185.345996 
L 420.91984 165.063419 
L 422.770508 162.802029 
L 423.695842 162.170042 
L 426.471845 162.255484 
L 427.397179 161.394229 
L 428.322513 161.752345 
L 429.247848 160.448535 
L 430.173182 158.83006 
L 432.949184 158.451534 
L 433.874519 157.466754 
L 434.799853 154.701491 
L 435.725187 154.599028 
L 436.650521 156.408488 
L 439.426524 151.859886 
L 440.351858 155.534451 
L 441.277193 156.347678 
L 442.202527 156.125257 
L 443.127861 157.899681 
L 445.903864 157.770692 
L 446.829198 175.709693 
L 447.754532 177.03904 
L 448.679866 177.226316 
L 449.605201 177.994692 
L 452.381203 178.949917 
L 453.306537 177.282242 
L 454.231872 178.161329 
L 455.157206 178.032068 
L 456.08254 177.521373 
L 459.783877 176.299862 
L 460.709211 176.565267 
L 461.634545 176.676328 
L 462.55988 176.61695 
L 465.335882 176.813693 
L 466.261217 177.857318 
L 467.186551 177.06436 
L 468.111885 179.320644 
L 469.037219 180.064539 
L 471.813222 180.07486 
L 472.738556 178.230244 
L 473.66389 178.341422 
L 474.589225 178.070915 
L 475.514559 163.330516 
L 478.290561 164.513409 
L 479.215896 164.115294 
L 480.14123 162.538404 
L 481.066564 161.947306 
L 481.991898 161.699142 
L 484.767901 159.26792 
L 485.693235 159.695977 
L 486.61857 159.481979 
L 488.469238 162.40512 
L 491.245241 162.545528 
L 493.095909 159.845977 
L 494.021243 160.943657 
L 494.946578 161.794359 
L 497.72258 164.535927 
L 498.647914 168.440296 
L 500.498583 164.381335 
L 501.423917 165.868506 
L 504.19992 175.383347 
L 505.125254 177.107408 
L 506.050588 176.622824 
L 506.975922 174.95421 
L 507.901257 174.812243 
L 510.677259 172.208376 
L 511.602594 170.787416 
L 512.527928 169.011398 
L 513.453262 170.082734 
L 514.378596 171.447687 
L 517.154599 172.357155 
L 518.079933 170.988944 
L 519.005267 170.763295 
L 519.930602 171.595129 
L 520.855936 169.620868 
L 523.631939 169.782316 
L 524.557273 166.637686 
L 525.482607 166.934241 
L 526.407941 166.334301 
L 527.333275 166.255789 
L 530.109278 170.698083 
L 531.034612 171.11092 
L 531.959947 175.221631 
L 532.885281 173.979054 
L 533.810615 173.730243 
L 536.586618 174.859349 
L 537.511952 175.003333 
L 538.437286 173.760508 
L 540.287955 173.612677 
L 543.063957 173.40617 
L 543.989291 173.866304 
L 544.914626 175.351461 
L 545.83996 176.405303 
L 546.765294 179.367302 
L 549.541297 177.091734 
L 550.466631 177.570577 
L 551.391965 175.379991 
L 552.317299 175.82729 
L 556.018636 172.565672 
L 556.943971 173.65983 
L 557.869305 173.949238 
L 558.794639 175.590187 
L 559.719973 188.206544 
L 563.42131 187.66073 
L 564.346644 186.563637 
L 566.197313 187.950533 
L 568.973316 187.303128 
L 569.89865 188.349614 
L 570.823984 186.168105 
L 571.749318 184.367126 
L 572.674652 183.713904 
L 575.450655 183.449885 
L 576.375989 181.763279 
L 577.301324 183.05835 
L 578.226658 182.159986 
L 579.151992 180.91787 
L 581.927995 180.726335 
L 582.853329 181.30226 
L 583.778663 183.806156 
L 584.703997 183.220314 
L 585.629332 182.219605 
L 588.405334 155.644828 
L 589.330668 157.131582 
L 590.256003 158.130347 
L 591.181337 156.123835 
L 592.106671 157.884316 
L 594.882674 159.300447 
L 595.808008 160.748303 
L 596.733342 160.783979 
L 597.658676 161.087596 
L 598.584011 162.441189 
L 602.285348 162.722091 
L 603.210682 163.223919 
L 604.136016 164.208642 
L 607.837353 165.253914 
L 608.762687 165.097046 
L 609.688021 164.019929 
L 610.613356 163.550059 
L 611.53869 161.770717 
L 614.314693 163.072527 
L 615.240027 164.420505 
L 616.165361 164.318721 
L 617.090695 179.810439 
L 618.016029 179.620774 
L 620.792032 181.392695 
L 621.717366 181.038982 
L 622.642701 180.060969 
L 623.568035 179.580258 
L 624.493369 180.451921 
L 627.269372 179.770696 
L 628.194706 180.232547 
L 629.12004 180.512418 
L 630.045374 183.813852 
L 630.970709 182.737984 
L 633.746711 180.688314 
L 634.672045 178.566932 
L 635.59738 178.874866 
L 636.522714 177.684252 
L 637.448048 178.961277 
L 640.224051 180.46659 
L 641.149385 179.312959 
L 642.074719 178.412689 
L 643.000053 179.260932 
L 643.925388 180.387296 
L 646.70139 175.891263 
L 647.626725 173.82823 
L 649.477393 174.798921 
L 650.402727 175.051234 
L 653.17873 174.706475 
L 654.104064 173.589615 
L 655.029398 172.256706 
L 655.954733 173.080721 
L 656.880067 172.053769 
L 659.65607 173.304046 
L 660.581404 172.012837 
L 661.506738 174.343303 
L 662.432072 173.281245 
L 663.357406 175.184828 
L 666.133409 175.823111 
L 667.058743 175.03068 
L 667.984078 176.268082 
L 668.909412 178.123985 
L 669.834746 177.868639 
L 672.610749 175.976172 
L 673.536083 181.29465 
L 674.461417 181.363021 
L 675.386751 182.784934 
L 676.312086 182.31495 
L 679.088088 182.028385 
L 680.013422 181.38964 
L 680.938757 181.883334 
L 681.864091 180.43058 
L 682.789425 181.982463 
L 685.565428 179.669306 
L 686.490762 180.798977 
L 687.416096 181.654683 
L 688.34143 180.700846 
L 689.266765 181.839924 
L 692.042767 181.80562 
L 694.81877 184.224449 
L 695.744104 185.905767 
L 698.520107 185.719851 
L 700.370775 186.340545 
L 701.29611 196.436099 
L 702.221444 198.583994 
L 704.997447 198.875144 
L 705.922781 199.116162 
L 706.848115 199.627628 
L 707.773449 199.106019 
L 708.698783 199.759413 
L 711.474786 198.963078 
L 712.40012 199.149622 
L 713.325455 199.04962 
L 714.250789 199.839429 
L 715.176123 200.065849 
L 717.952126 200.152565 
L 718.87746 200.700124 
L 719.802794 200.317687 
L 721.653463 200.529602 
L 724.429465 200.665176 
L 725.354799 200.980973 
L 726.280134 202.540171 
L 727.205468 201.269976 
L 728.130802 200.189077 
L 730.906805 160.488215 
L 731.832139 160.22516 
L 732.757473 159.329202 
L 733.682807 157.50391 
L 734.608142 157.574481 
L 737.384144 158.379832 
L 738.309479 156.923143 
L 739.234813 157.126348 
L 740.160147 155.049905 
L 741.085481 156.979547 
L 743.861484 158.536655 
L 744.786818 154.891447 
L 745.712152 152.469527 
L 746.637487 151.516456 
L 747.562821 151.89569 
L 750.338824 153.776721 
L 751.264158 155.069009 
L 752.189492 153.745044 
L 753.114826 150.974939 
L 754.04016 146.409524 
L 756.816163 145.401044 
L 757.741497 147.532644 
L 758.666832 146.991254 
L 759.592166 144.466108 
L 760.5175 140.63211 
L 763.293503 133.438328 
L 764.218837 131.570459 
L 765.144171 128.594532 
L 766.069505 127.070413 
L 766.99484 130.749598 
L 769.770842 133.924853 
L 770.696176 136.174439 
L 771.621511 139.146444 
L 772.546845 138.456987 
L 773.472179 136.316051 
L 776.248182 133.981021 
L 777.173516 136.902247 
L 778.09885 138.344309 
L 779.024184 140.840813 
L 779.949519 142.283781 
L 782.725521 142.402588 
L 783.650856 144.404742 
L 784.57619 146.123569 
L 785.501524 180.273167 
L 786.426858 183.357619 
L 789.202861 187.272897 
L 790.128195 186.492786 
L 791.053529 187.770803 
L 791.978864 187.309151 
L 792.904198 190.153925 
L 795.680201 190.780039 
L 796.605535 189.998738 
L 797.530869 187.605879 
L 798.456203 184.645767 
L 799.381537 187.157604 
L 802.15754 187.560453 
L 803.082874 187.116321 
L 804.008209 185.842706 
L 804.933543 185.814646 
L 805.858877 183.710753 
L 808.63488 182.922969 
L 809.560214 183.848089 
L 810.485548 185.997471 
L 811.410882 186.939561 
L 812.336217 187.239698 
L 815.112219 192.587299 
L 816.037553 193.852713 
L 816.962888 196.065623 
L 817.888222 197.387962 
L 818.813556 196.553811 
L 821.589559 198.290351 
L 822.514893 196.932484 
L 823.440227 199.207112 
L 824.365561 199.846259 
L 825.290896 199.435158 
L 828.066898 197.305742 
L 828.992233 197.098152 
L 829.917567 196.606753 
L 830.842901 196.269003 
L 831.768235 198.308313 
L 834.544238 200.399505 
L 835.469572 199.081342 
L 836.394906 199.954856 
L 837.320241 200.269059 
L 838.245575 199.976075 
L 841.021578 197.901323 
L 841.946912 190.223457 
L 842.872246 191.216094 
L 843.79758 191.798663 
L 844.722914 192.853333 
L 847.498917 191.464599 
L 848.424251 194.588006 
L 849.349586 195.43129 
L 850.27492 194.745196 
L 851.200254 195.307968 
L 853.976257 195.887073 
L 854.901591 196.985589 
L 855.826925 197.729868 
L 856.752259 197.794705 
L 857.677594 196.38825 
L 860.453596 198.269275 
L 861.37893 196.510639 
L 862.304265 194.198431 
L 863.229599 194.964732 
L 864.154933 195.298336 
L 866.930936 194.9915 
L 867.85627 192.396357 
L 868.781604 193.990392 
L 869.706939 194.674415 
L 870.632273 185.869516 
L 873.408275 186.200313 
L 874.33361 185.450016 
L 875.258944 188.605753 
L 876.184278 188.747006 
L 877.109612 187.740293 
L 879.885615 188.448485 
L 880.810949 187.870911 
L 881.736283 187.060463 
L 882.661618 187.180792 
L 883.586952 189.402341 
L 886.362955 188.301934 
L 887.288289 186.918724 
L 888.213623 186.530627 
L 889.138957 187.504127 
L 890.064291 186.648272 
L 892.840294 184.971165 
L 893.765628 186.785338 
L 894.690963 185.645191 
L 896.541631 184.337136 
L 899.317634 215.016024 
L 900.242968 217.041632 
L 901.168302 216.837831 
L 902.093636 217.561011 
L 903.018971 216.609322 
L 905.794973 215.921219 
L 906.720307 217.359932 
L 907.645642 216.792791 
L 908.570976 214.396935 
L 909.49631 214.186996 
L 912.272313 216.863913 
L 913.197647 217.282931 
L 914.122981 218.12067 
L 915.97365 221.364409 
L 918.749652 222.08367 
L 919.674987 222.702173 
L 920.600321 222.300105 
L 921.525655 222.275822 
L 922.450989 222.78556 
L 925.226992 222.224908 
L 926.152326 223.579893 
L 927.07766 193.803598 
L 928.002995 195.136853 
L 928.928329 192.403143 
L 931.704332 194.20357 
L 932.629666 193.053108 
L 933.555 192.967181 
L 934.480334 194.22961 
L 935.405668 191.011383 
L 938.181671 192.293708 
L 939.107005 192.000039 
L 940.03234 194.617969 
L 940.957674 194.466425 
L 941.883008 193.551903 
L 945.584345 191.686307 
L 946.509679 191.085525 
L 947.435013 190.314034 
L 948.360348 191.536841 
L 951.13635 192.47463 
L 952.061684 193.707825 
L 952.987019 191.695651 
L 953.912353 192.452736 
L 954.837687 192.563949 
L 957.61369 200.503341 
L 958.539024 200.075649 
L 959.464358 200.764463 
L 960.389693 197.926416 
L 961.315027 196.058841 
L 964.091029 196.238274 
L 965.016364 193.505439 
L 965.941698 191.838212 
L 966.867032 188.721161 
L 967.792366 190.342142 
L 970.568369 188.891346 
L 971.493703 189.257333 
L 972.419037 189.014752 
L 973.344372 187.191059 
L 974.269706 184.981557 
L 977.045709 182.466545 
L 977.971043 184.057561 
L 979.821711 190.944382 
L 980.747045 195.99962 
L 983.523048 166.26044 
L 984.448382 168.732827 
L 985.373717 168.748365 
L 986.299051 168.201748 
L 987.224385 167.075433 
L 990.000388 164.812148 
L 990.925722 165.672701 
L 991.851056 168.096364 
L 992.77639 168.377429 
L 993.701725 169.62341 
L 996.477727 170.043891 
L 997.403061 168.097963 
L 999.25373 166.558313 
L 1000.179064 163.690017 
L 1002.955067 164.725522 
L 1003.880401 166.763924 
L 1004.805735 168.046077 
L 1005.73107 167.881791 
L 1006.656404 167.453431 
L 1009.432406 166.47665 
L 1010.357741 163.701399 
L 1011.283075 163.817276 
L 1012.208409 192.82233 
L 1013.133743 192.698693 
L 1015.909746 191.513722 
L 1016.83508 191.546389 
L 1017.760414 191.175001 
L 1018.685749 192.094327 
L 1019.611083 191.929549 
L 1022.387086 190.965349 
L 1023.31242 188.651548 
L 1024.237754 189.682347 
L 1025.163088 189.827424 
L 1026.088422 190.187415 
L 1028.864425 190.17025 
L 1029.789759 189.61315 
L 1030.715094 188.207172 
L 1031.640428 189.8948 
L 1032.565762 190.604446 
L 1036.267099 191.406412 
L 1038.117767 189.114623 
L 1039.043102 189.638575 
L 1041.819104 177.672939 
L 1042.744439 176.429657 
L 1043.669773 177.73939 
L 1044.595107 176.47762 
L 1045.520441 177.063534 
L 1048.296444 177.213398 
L 1049.221778 178.678514 
L 1050.147112 178.699941 
L 1051.072447 178.254267 
L 1051.997781 175.350258 
L 1054.773783 175.740294 
L 1055.699118 171.870538 
L 1056.624452 168.831884 
L 1057.549786 166.32418 
L 1058.47512 167.320422 
L 1061.251123 165.173285 
L 1062.176457 166.317349 
L 1063.101791 161.097619 
L 1064.027126 161.438973 
L 1064.95246 160.438413 
L 1067.728463 159.939552 
L 1068.653797 180.425428 
L 1069.579131 180.058423 
L 1070.504465 180.838681 
L 1071.429799 182.027876 
L 1074.205802 185.144293 
L 1075.131136 187.358153 
L 1076.056471 187.065262 
L 1076.981805 187.245882 
L 1077.907139 184.993787 
L 1080.683142 183.605421 
L 1081.608476 185.790616 
L 1082.53381 186.913726 
L 1083.459144 185.303272 
L 1084.384479 185.684917 
L 1087.160481 186.27072 
L 1088.085816 184.646277 
L 1089.01115 186.62581 
L 1089.936484 188.12308 
L 1090.861818 188.678114 
L 1090.861818 188.678114 
" style="fill:none;stroke:#2ca02c;stroke-linecap:square;stroke-width:1.5;"/>
   </g>
   <g id="patch_3">
    <path d="M 33.76 273.56 
L 33.76 25.92 
" style="fill:none;stroke:#000000;stroke-linecap:square;stroke-linejoin:miter;stroke-width:0.8;"/>
   </g>
   <g id="patch_4">
    <path d="M 1141.2 273.56 
L 1141.2 25.92 
" style="fill:none;stroke:#000000;stroke-linecap:square;stroke-linejoin:miter;stroke-width:0.8;"/>
   </g>
   <g id="patch_5">
    <path d="M 33.76 273.56 
L 1141.2 273.56 
" style="fill:none;stroke:#000000;stroke-linecap:square;stroke-linejoin:miter;stroke-width:0.8;"/>
   </g>
   <g id="patch_6">
    <path d="M 33.76 25.92 
L 1141.2 25.92 
" style="fill:none;stroke:#000000;stroke-linecap:square;stroke-linejoin:miter;stroke-width:0.8;"/>
   </g>
   <g id="text_12">
    <!-- Net Value: (2010-02-01 ~ 2013-01-25) -->
    <g transform="translate(471.3725 19.92)scale(0.12 -0.12)">
     <defs>
      <path d="M 9.8125 72.90625 
L 23.09375 72.90625 
L 55.421875 11.921875 
L 55.421875 72.90625 
L 64.984375 72.90625 
L 64.984375 0 
L 51.703125 0 
L 19.390625 60.984375 
L 19.390625 0 
L 9.8125 0 
z
" id="DejaVuSans-78"/>
      <path d="M 56.203125 29.59375 
L 56.203125 25.203125 
L 14.890625 25.203125 
Q 15.484375 15.921875 20.484375 11.0625 
Q 25.484375 6.203125 34.421875 6.203125 
Q 39.59375 6.203125 44.453125 7.46875 
Q 49.3125 8.734375 54.109375 11.28125 
L 54.109375 2.78125 
Q 49.265625 0.734375 44.1875 -0.34375 
Q 39.109375 -1.421875 33.890625 -1.421875 
Q 20.796875 -1.421875 13.15625 6.1875 
Q 5.515625 13.8125 5.515625 26.8125 
Q 5.515625 40.234375 12.765625 48.109375 
Q 20.015625 56 32.328125 56 
Q 43.359375 56 49.78125 48.890625 
Q 56.203125 41.796875 56.203125 29.59375 
z
M 47.21875 32.234375 
Q 47.125 39.59375 43.09375 43.984375 
Q 39.0625 48.390625 32.421875 48.390625 
Q 24.90625 48.390625 20.390625 44.140625 
Q 15.875 39.890625 15.1875 32.171875 
z
" id="DejaVuSans-101"/>
      <path d="M 18.3125 70.21875 
L 18.3125 54.6875 
L 36.8125 54.6875 
L 36.8125 47.703125 
L 18.3125 47.703125 
L 18.3125 18.015625 
Q 18.3125 11.328125 20.140625 9.421875 
Q 21.96875 7.515625 27.59375 7.515625 
L 36.8125 7.515625 
L 36.8125 0 
L 27.59375 0 
Q 17.1875 0 13.234375 3.875 
Q 9.28125 7.765625 9.28125 18.015625 
L 9.28125 47.703125 
L 2.6875 47.703125 
L 2.6875 54.6875 
L 9.28125 54.6875 
L 9.28125 70.21875 
z
" id="DejaVuSans-116"/>
      <path id="DejaVuSans-32"/>
      <path d="M 28.609375 0 
L 0.78125 72.90625 
L 11.078125 72.90625 
L 34.1875 11.53125 
L 57.328125 72.90625 
L 67.578125 72.90625 
L 39.796875 0 
z
" id="DejaVuSans-86"/>
      <path d="M 34.28125 27.484375 
Q 23.390625 27.484375 19.1875 25 
Q 14.984375 22.515625 14.984375 16.5 
Q 14.984375 11.71875 18.140625 8.90625 
Q 21.296875 6.109375 26.703125 6.109375 
Q 34.1875 6.109375 38.703125 11.40625 
Q 43.21875 16.703125 43.21875 25.484375 
L 43.21875 27.484375 
z
M 52.203125 31.203125 
L 52.203125 0 
L 43.21875 0 
L 43.21875 8.296875 
Q 40.140625 3.328125 35.546875 0.953125 
Q 30.953125 -1.421875 24.3125 -1.421875 
Q 15.921875 -1.421875 10.953125 3.296875 
Q 6 8.015625 6 15.921875 
Q 6 25.140625 12.171875 29.828125 
Q 18.359375 34.515625 30.609375 34.515625 
L 43.21875 34.515625 
L 43.21875 35.40625 
Q 43.21875 41.609375 39.140625 45 
Q 35.0625 48.390625 27.6875 48.390625 
Q 23 48.390625 18.546875 47.265625 
Q 14.109375 46.140625 10.015625 43.890625 
L 10.015625 52.203125 
Q 14.9375 54.109375 19.578125 55.046875 
Q 24.21875 56 28.609375 56 
Q 40.484375 56 46.34375 49.84375 
Q 52.203125 43.703125 52.203125 31.203125 
z
" id="DejaVuSans-97"/>
      <path d="M 9.421875 75.984375 
L 18.40625 75.984375 
L 18.40625 0 
L 9.421875 0 
z
" id="DejaVuSans-108"/>
      <path d="M 8.5 21.578125 
L 8.5 54.6875 
L 17.484375 54.6875 
L 17.484375 21.921875 
Q 17.484375 14.15625 20.5 10.265625 
Q 23.53125 6.390625 29.59375 6.390625 
Q 36.859375 6.390625 41.078125 11.03125 
Q 45.3125 15.671875 45.3125 23.6875 
L 45.3125 54.6875 
L 54.296875 54.6875 
L 54.296875 0 
L 45.3125 0 
L 45.3125 8.40625 
Q 42.046875 3.421875 37.71875 1 
Q 33.40625 -1.421875 27.6875 -1.421875 
Q 18.265625 -1.421875 13.375 4.4375 
Q 8.5 10.296875 8.5 21.578125 
z
M 31.109375 56 
z
" id="DejaVuSans-117"/>
      <path d="M 11.71875 12.40625 
L 22.015625 12.40625 
L 22.015625 0 
L 11.71875 0 
z
M 11.71875 51.703125 
L 22.015625 51.703125 
L 22.015625 39.3125 
L 11.71875 39.3125 
z
" id="DejaVuSans-58"/>
      <path d="M 31 75.875 
Q 24.46875 64.65625 21.28125 53.65625 
Q 18.109375 42.671875 18.109375 31.390625 
Q 18.109375 20.125 21.3125 9.0625 
Q 24.515625 -2 31 -13.1875 
L 23.1875 -13.1875 
Q 15.875 -1.703125 12.234375 9.375 
Q 8.59375 20.453125 8.59375 31.390625 
Q 8.59375 42.28125 12.203125 53.3125 
Q 15.828125 64.359375 23.1875 75.875 
z
" id="DejaVuSans-40"/>
      <path d="M 4.890625 31.390625 
L 31.203125 31.390625 
L 31.203125 23.390625 
L 4.890625 23.390625 
z
" id="DejaVuSans-45"/>
      <path d="M 73.1875 39.890625 
L 73.1875 31.203125 
Q 68.0625 27.34375 63.6875 25.6875 
Q 59.328125 24.03125 54.59375 24.03125 
Q 49.21875 24.03125 42.09375 26.90625 
Q 41.546875 27.09375 41.3125 27.203125 
Q 40.96875 27.34375 40.234375 27.59375 
Q 32.671875 30.609375 28.078125 30.609375 
Q 23.78125 30.609375 19.578125 28.734375 
Q 15.375 26.859375 10.59375 22.796875 
L 10.59375 31.5 
Q 15.71875 35.359375 20.09375 37.03125 
Q 24.46875 38.71875 29.203125 38.71875 
Q 34.578125 38.71875 41.75 35.796875 
Q 42.234375 35.59375 42.484375 35.5 
Q 42.875 35.359375 43.5625 35.109375 
Q 51.125 32.078125 55.71875 32.078125 
Q 59.90625 32.078125 64.03125 33.9375 
Q 68.171875 35.796875 73.1875 39.890625 
z
" id="DejaVuSans-126"/>
      <path d="M 10.796875 72.90625 
L 49.515625 72.90625 
L 49.515625 64.59375 
L 19.828125 64.59375 
L 19.828125 46.734375 
Q 21.96875 47.46875 24.109375 47.828125 
Q 26.265625 48.1875 28.421875 48.1875 
Q 40.625 48.1875 47.75 41.5 
Q 54.890625 34.8125 54.890625 23.390625 
Q 54.890625 11.625 47.5625 5.09375 
Q 40.234375 -1.421875 26.90625 -1.421875 
Q 22.3125 -1.421875 17.546875 -0.640625 
Q 12.796875 0.140625 7.71875 1.703125 
L 7.71875 11.625 
Q 12.109375 9.234375 16.796875 8.0625 
Q 21.484375 6.890625 26.703125 6.890625 
Q 35.15625 6.890625 40.078125 11.328125 
Q 45.015625 15.765625 45.015625 23.390625 
Q 45.015625 31 40.078125 35.4375 
Q 35.15625 39.890625 26.703125 39.890625 
Q 22.75 39.890625 18.8125 39.015625 
Q 14.890625 38.140625 10.796875 36.28125 
z
" id="DejaVuSans-53"/>
      <path d="M 8.015625 75.875 
L 15.828125 75.875 
Q 23.140625 64.359375 26.78125 53.3125 
Q 30.421875 42.28125 30.421875 31.390625 
Q 30.421875 20.453125 26.78125 9.375 
Q 23.140625 -1.703125 15.828125 -13.1875 
L 8.015625 -13.1875 
Q 14.5 -2 17.703125 9.0625 
Q 20.90625 20.125 20.90625 31.390625 
Q 20.90625 42.671875 17.703125 53.65625 
Q 14.5 64.65625 8.015625 75.875 
z
" id="DejaVuSans-41"/>
     </defs>
     <use xlink:href="#DejaVuSans-78"/>
     <use x="74.804688" xlink:href="#DejaVuSans-101"/>
     <use x="136.328125" xlink:href="#DejaVuSans-116"/>
     <use x="175.537109" xlink:href="#DejaVuSans-32"/>
     <use x="207.324219" xlink:href="#DejaVuSans-86"/>
     <use x="267.982422" xlink:href="#DejaVuSans-97"/>
     <use x="329.261719" xlink:href="#DejaVuSans-108"/>
     <use x="357.044922" xlink:href="#DejaVuSans-117"/>
     <use x="420.423828" xlink:href="#DejaVuSans-101"/>
     <use x="481.947266" xlink:href="#DejaVuSans-58"/>
     <use x="515.638672" xlink:href="#DejaVuSans-32"/>
     <use x="547.425781" xlink:href="#DejaVuSans-40"/>
     <use x="586.439453" xlink:href="#DejaVuSans-50"/>
     <use x="650.0625" xlink:href="#DejaVuSans-48"/>
     <use x="713.685547" xlink:href="#DejaVuSans-49"/>
     <use x="777.308594" xlink:href="#DejaVuSans-48"/>
     <use x="840.931641" xlink:href="#DejaVuSans-45"/>
     <use x="877.015625" xlink:href="#DejaVuSans-48"/>
     <use x="940.638672" xlink:href="#DejaVuSans-50"/>
     <use x="1004.261719" xlink:href="#DejaVuSans-45"/>
     <use x="1040.345703" xlink:href="#DejaVuSans-48"/>
     <use x="1103.96875" xlink:href="#DejaVuSans-49"/>
     <use x="1167.591797" xlink:href="#DejaVuSans-32"/>
     <use x="1199.378906" xlink:href="#DejaVuSans-126"/>
     <use x="1283.167969" xlink:href="#DejaVuSans-32"/>
     <use x="1314.955078" xlink:href="#DejaVuSans-50"/>
     <use x="1378.578125" xlink:href="#DejaVuSans-48"/>
     <use x="1442.201172" xlink:href="#DejaVuSans-49"/>
     <use x="1505.824219" xlink:href="#DejaVuSans-51"/>
     <use x="1569.447266" xlink:href="#DejaVuSans-45"/>
     <use x="1605.53125" xlink:href="#DejaVuSans-48"/>
     <use x="1669.154297" xlink:href="#DejaVuSans-49"/>
     <use x="1732.777344" xlink:href="#DejaVuSans-45"/>
     <use x="1768.861328" xlink:href="#DejaVuSans-50"/>
     <use x="1832.484375" xlink:href="#DejaVuSans-53"/>
     <use x="1896.107422" xlink:href="#DejaVuSans-41"/>
    </g>
   </g>
   <g id="legend_1">
    <g id="patch_7">
     <path d="M 40.76 78.2325 
L 153.274063 78.2325 
Q 155.274063 78.2325 155.274063 76.2325 
L 155.274063 32.92 
Q 155.274063 30.92 153.274063 30.92 
L 40.76 30.92 
Q 38.76 30.92 38.76 32.92 
L 38.76 76.2325 
Q 38.76 78.2325 40.76 78.2325 
z
" style="fill:#ffffff;opacity:0.8;stroke:#cccccc;stroke-linejoin:miter;"/>
    </g>
    <g id="line2d_26">
     <path d="M 42.76 39.018437 
L 62.76 39.018437 
" style="fill:none;stroke:#1f77b4;stroke-linecap:square;stroke-width:1.5;"/>
    </g>
    <g id="line2d_27"/>
    <g id="text_13">
     <!-- factor_weighted -->
     <g transform="translate(70.76 42.518437)scale(0.1 -0.1)">
      <defs>
       <path d="M 37.109375 75.984375 
L 37.109375 68.5 
L 28.515625 68.5 
Q 23.6875 68.5 21.796875 66.546875 
Q 19.921875 64.59375 19.921875 59.515625 
L 19.921875 54.6875 
L 34.71875 54.6875 
L 34.71875 47.703125 
L 19.921875 47.703125 
L 19.921875 0 
L 10.890625 0 
L 10.890625 47.703125 
L 2.296875 47.703125 
L 2.296875 54.6875 
L 10.890625 54.6875 
L 10.890625 58.5 
Q 10.890625 67.625 15.140625 71.796875 
Q 19.390625 75.984375 28.609375 75.984375 
z
" id="DejaVuSans-102"/>
       <path d="M 48.78125 52.59375 
L 48.78125 44.1875 
Q 44.96875 46.296875 41.140625 47.34375 
Q 37.3125 48.390625 33.40625 48.390625 
Q 24.65625 48.390625 19.8125 42.84375 
Q 14.984375 37.3125 14.984375 27.296875 
Q 14.984375 17.28125 19.8125 11.734375 
Q 24.65625 6.203125 33.40625 6.203125 
Q 37.3125 6.203125 41.140625 7.25 
Q 44.96875 8.296875 48.78125 10.40625 
L 48.78125 2.09375 
Q 45.015625 0.34375 40.984375 -0.53125 
Q 36.96875 -1.421875 32.421875 -1.421875 
Q 20.0625 -1.421875 12.78125 6.34375 
Q 5.515625 14.109375 5.515625 27.296875 
Q 5.515625 40.671875 12.859375 48.328125 
Q 20.21875 56 33.015625 56 
Q 37.15625 56 41.109375 55.140625 
Q 45.0625 54.296875 48.78125 52.59375 
z
" id="DejaVuSans-99"/>
       <path d="M 30.609375 48.390625 
Q 23.390625 48.390625 19.1875 42.75 
Q 14.984375 37.109375 14.984375 27.296875 
Q 14.984375 17.484375 19.15625 11.84375 
Q 23.34375 6.203125 30.609375 6.203125 
Q 37.796875 6.203125 41.984375 11.859375 
Q 46.1875 17.53125 46.1875 27.296875 
Q 46.1875 37.015625 41.984375 42.703125 
Q 37.796875 48.390625 30.609375 48.390625 
z
M 30.609375 56 
Q 42.328125 56 49.015625 48.375 
Q 55.71875 40.765625 55.71875 27.296875 
Q 55.71875 13.875 49.015625 6.21875 
Q 42.328125 -1.421875 30.609375 -1.421875 
Q 18.84375 -1.421875 12.171875 6.21875 
Q 5.515625 13.875 5.515625 27.296875 
Q 5.515625 40.765625 12.171875 48.375 
Q 18.84375 56 30.609375 56 
z
" id="DejaVuSans-111"/>
       <path d="M 41.109375 46.296875 
Q 39.59375 47.171875 37.8125 47.578125 
Q 36.03125 48 33.890625 48 
Q 26.265625 48 22.1875 43.046875 
Q 18.109375 38.09375 18.109375 28.8125 
L 18.109375 0 
L 9.078125 0 
L 9.078125 54.6875 
L 18.109375 54.6875 
L 18.109375 46.1875 
Q 20.953125 51.171875 25.484375 53.578125 
Q 30.03125 56 36.53125 56 
Q 37.453125 56 38.578125 55.875 
Q 39.703125 55.765625 41.0625 55.515625 
z
" id="DejaVuSans-114"/>
       <path d="M 50.984375 -16.609375 
L 50.984375 -23.578125 
L -0.984375 -23.578125 
L -0.984375 -16.609375 
z
" id="DejaVuSans-95"/>
       <path d="M 4.203125 54.6875 
L 13.1875 54.6875 
L 24.421875 12.015625 
L 35.59375 54.6875 
L 46.1875 54.6875 
L 57.421875 12.015625 
L 68.609375 54.6875 
L 77.59375 54.6875 
L 63.28125 0 
L 52.6875 0 
L 40.921875 44.828125 
L 29.109375 0 
L 18.5 0 
z
" id="DejaVuSans-119"/>
       <path d="M 9.421875 54.6875 
L 18.40625 54.6875 
L 18.40625 0 
L 9.421875 0 
z
M 9.421875 75.984375 
L 18.40625 75.984375 
L 18.40625 64.59375 
L 9.421875 64.59375 
z
" id="DejaVuSans-105"/>
       <path d="M 45.40625 27.984375 
Q 45.40625 37.75 41.375 43.109375 
Q 37.359375 48.484375 30.078125 48.484375 
Q 22.859375 48.484375 18.828125 43.109375 
Q 14.796875 37.75 14.796875 27.984375 
Q 14.796875 18.265625 18.828125 12.890625 
Q 22.859375 7.515625 30.078125 7.515625 
Q 37.359375 7.515625 41.375 12.890625 
Q 45.40625 18.265625 45.40625 27.984375 
z
M 54.390625 6.78125 
Q 54.390625 -7.171875 48.1875 -13.984375 
Q 42 -20.796875 29.203125 -20.796875 
Q 24.46875 -20.796875 20.265625 -20.09375 
Q 16.0625 -19.390625 12.109375 -17.921875 
L 12.109375 -9.1875 
Q 16.0625 -11.328125 19.921875 -12.34375 
Q 23.78125 -13.375 27.78125 -13.375 
Q 36.625 -13.375 41.015625 -8.765625 
Q 45.40625 -4.15625 45.40625 5.171875 
L 45.40625 9.625 
Q 42.625 4.78125 38.28125 2.390625 
Q 33.9375 0 27.875 0 
Q 17.828125 0 11.671875 7.65625 
Q 5.515625 15.328125 5.515625 27.984375 
Q 5.515625 40.671875 11.671875 48.328125 
Q 17.828125 56 27.875 56 
Q 33.9375 56 38.28125 53.609375 
Q 42.625 51.21875 45.40625 46.390625 
L 45.40625 54.6875 
L 54.390625 54.6875 
z
" id="DejaVuSans-103"/>
       <path d="M 54.890625 33.015625 
L 54.890625 0 
L 45.90625 0 
L 45.90625 32.71875 
Q 45.90625 40.484375 42.875 44.328125 
Q 39.84375 48.1875 33.796875 48.1875 
Q 26.515625 48.1875 22.3125 43.546875 
Q 18.109375 38.921875 18.109375 30.90625 
L 18.109375 0 
L 9.078125 0 
L 9.078125 75.984375 
L 18.109375 75.984375 
L 18.109375 46.1875 
Q 21.34375 51.125 25.703125 53.5625 
Q 30.078125 56 35.796875 56 
Q 45.21875 56 50.046875 50.171875 
Q 54.890625 44.34375 54.890625 33.015625 
z
" id="DejaVuSans-104"/>
       <path d="M 45.40625 46.390625 
L 45.40625 75.984375 
L 54.390625 75.984375 
L 54.390625 0 
L 45.40625 0 
L 45.40625 8.203125 
Q 42.578125 3.328125 38.25 0.953125 
Q 33.9375 -1.421875 27.875 -1.421875 
Q 17.96875 -1.421875 11.734375 6.484375 
Q 5.515625 14.40625 5.515625 27.296875 
Q 5.515625 40.1875 11.734375 48.09375 
Q 17.96875 56 27.875 56 
Q 33.9375 56 38.25 53.625 
Q 42.578125 51.265625 45.40625 46.390625 
z
M 14.796875 27.296875 
Q 14.796875 17.390625 18.875 11.75 
Q 22.953125 6.109375 30.078125 6.109375 
Q 37.203125 6.109375 41.296875 11.75 
Q 45.40625 17.390625 45.40625 27.296875 
Q 45.40625 37.203125 41.296875 42.84375 
Q 37.203125 48.484375 30.078125 48.484375 
Q 22.953125 48.484375 18.875 42.84375 
Q 14.796875 37.203125 14.796875 27.296875 
z
" id="DejaVuSans-100"/>
      </defs>
      <use xlink:href="#DejaVuSans-102"/>
      <use x="35.205078" xlink:href="#DejaVuSans-97"/>
      <use x="96.484375" xlink:href="#DejaVuSans-99"/>
      <use x="151.464844" xlink:href="#DejaVuSans-116"/>
      <use x="190.673828" xlink:href="#DejaVuSans-111"/>
      <use x="251.855469" xlink:href="#DejaVuSans-114"/>
      <use x="292.96875" xlink:href="#DejaVuSans-95"/>
      <use x="342.96875" xlink:href="#DejaVuSans-119"/>
      <use x="424.755859" xlink:href="#DejaVuSans-101"/>
      <use x="486.279297" xlink:href="#DejaVuSans-105"/>
      <use x="514.0625" xlink:href="#DejaVuSans-103"/>
      <use x="577.539062" xlink:href="#DejaVuSans-104"/>
      <use x="640.917969" xlink:href="#DejaVuSans-116"/>
      <use x="680.126953" xlink:href="#DejaVuSans-101"/>
      <use x="741.650391" xlink:href="#DejaVuSans-100"/>
     </g>
    </g>
    <g id="line2d_28">
     <path d="M 42.76 53.974687 
L 62.76 53.974687 
" style="fill:none;stroke:#ff7f0e;stroke-linecap:square;stroke-width:1.5;"/>
    </g>
    <g id="line2d_29"/>
    <g id="text_14">
     <!-- benchmark -->
     <g transform="translate(70.76 57.474687)scale(0.1 -0.1)">
      <defs>
       <path d="M 48.6875 27.296875 
Q 48.6875 37.203125 44.609375 42.84375 
Q 40.53125 48.484375 33.40625 48.484375 
Q 26.265625 48.484375 22.1875 42.84375 
Q 18.109375 37.203125 18.109375 27.296875 
Q 18.109375 17.390625 22.1875 11.75 
Q 26.265625 6.109375 33.40625 6.109375 
Q 40.53125 6.109375 44.609375 11.75 
Q 48.6875 17.390625 48.6875 27.296875 
z
M 18.109375 46.390625 
Q 20.953125 51.265625 25.265625 53.625 
Q 29.59375 56 35.59375 56 
Q 45.5625 56 51.78125 48.09375 
Q 58.015625 40.1875 58.015625 27.296875 
Q 58.015625 14.40625 51.78125 6.484375 
Q 45.5625 -1.421875 35.59375 -1.421875 
Q 29.59375 -1.421875 25.265625 0.953125 
Q 20.953125 3.328125 18.109375 8.203125 
L 18.109375 0 
L 9.078125 0 
L 9.078125 75.984375 
L 18.109375 75.984375 
z
" id="DejaVuSans-98"/>
       <path d="M 54.890625 33.015625 
L 54.890625 0 
L 45.90625 0 
L 45.90625 32.71875 
Q 45.90625 40.484375 42.875 44.328125 
Q 39.84375 48.1875 33.796875 48.1875 
Q 26.515625 48.1875 22.3125 43.546875 
Q 18.109375 38.921875 18.109375 30.90625 
L 18.109375 0 
L 9.078125 0 
L 9.078125 54.6875 
L 18.109375 54.6875 
L 18.109375 46.1875 
Q 21.34375 51.125 25.703125 53.5625 
Q 30.078125 56 35.796875 56 
Q 45.21875 56 50.046875 50.171875 
Q 54.890625 44.34375 54.890625 33.015625 
z
" id="DejaVuSans-110"/>
       <path d="M 52 44.1875 
Q 55.375 50.25 60.0625 53.125 
Q 64.75 56 71.09375 56 
Q 79.640625 56 84.28125 50.015625 
Q 88.921875 44.046875 88.921875 33.015625 
L 88.921875 0 
L 79.890625 0 
L 79.890625 32.71875 
Q 79.890625 40.578125 77.09375 44.375 
Q 74.3125 48.1875 68.609375 48.1875 
Q 61.625 48.1875 57.5625 43.546875 
Q 53.515625 38.921875 53.515625 30.90625 
L 53.515625 0 
L 44.484375 0 
L 44.484375 32.71875 
Q 44.484375 40.625 41.703125 44.40625 
Q 38.921875 48.1875 33.109375 48.1875 
Q 26.21875 48.1875 22.15625 43.53125 
Q 18.109375 38.875 18.109375 30.90625 
L 18.109375 0 
L 9.078125 0 
L 9.078125 54.6875 
L 18.109375 54.6875 
L 18.109375 46.1875 
Q 21.1875 51.21875 25.484375 53.609375 
Q 29.78125 56 35.6875 56 
Q 41.65625 56 45.828125 52.96875 
Q 50 49.953125 52 44.1875 
z
" id="DejaVuSans-109"/>
       <path d="M 9.078125 75.984375 
L 18.109375 75.984375 
L 18.109375 31.109375 
L 44.921875 54.6875 
L 56.390625 54.6875 
L 27.390625 29.109375 
L 57.625 0 
L 45.90625 0 
L 18.109375 26.703125 
L 18.109375 0 
L 9.078125 0 
z
" id="DejaVuSans-107"/>
      </defs>
      <use xlink:href="#DejaVuSans-98"/>
      <use x="63.476562" xlink:href="#DejaVuSans-101"/>
      <use x="125" xlink:href="#DejaVuSans-110"/>
      <use x="188.378906" xlink:href="#DejaVuSans-99"/>
      <use x="243.359375" xlink:href="#DejaVuSans-104"/>
      <use x="306.738281" xlink:href="#DejaVuSans-109"/>
      <use x="404.150391" xlink:href="#DejaVuSans-97"/>
      <use x="465.429688" xlink:href="#DejaVuSans-114"/>
      <use x="506.542969" xlink:href="#DejaVuSans-107"/>
     </g>
    </g>
    <g id="line2d_30">
     <path d="M 42.76 68.652812 
L 62.76 68.652812 
" style="fill:none;stroke:#2ca02c;stroke-linecap:square;stroke-width:1.5;"/>
    </g>
    <g id="line2d_31"/>
    <g id="text_15">
     <!-- excess -->
     <g transform="translate(70.76 72.152812)scale(0.1 -0.1)">
      <defs>
       <path d="M 54.890625 54.6875 
L 35.109375 28.078125 
L 55.90625 0 
L 45.3125 0 
L 29.390625 21.484375 
L 13.484375 0 
L 2.875 0 
L 24.125 28.609375 
L 4.6875 54.6875 
L 15.28125 54.6875 
L 29.78125 35.203125 
L 44.28125 54.6875 
z
" id="DejaVuSans-120"/>
       <path d="M 44.28125 53.078125 
L 44.28125 44.578125 
Q 40.484375 46.53125 36.375 47.5 
Q 32.28125 48.484375 27.875 48.484375 
Q 21.1875 48.484375 17.84375 46.4375 
Q 14.5 44.390625 14.5 40.28125 
Q 14.5 37.15625 16.890625 35.375 
Q 19.28125 33.59375 26.515625 31.984375 
L 29.59375 31.296875 
Q 39.15625 29.25 43.1875 25.515625 
Q 47.21875 21.78125 47.21875 15.09375 
Q 47.21875 7.46875 41.1875 3.015625 
Q 35.15625 -1.421875 24.609375 -1.421875 
Q 20.21875 -1.421875 15.453125 -0.5625 
Q 10.6875 0.296875 5.421875 2 
L 5.421875 11.28125 
Q 10.40625 8.6875 15.234375 7.390625 
Q 20.0625 6.109375 24.8125 6.109375 
Q 31.15625 6.109375 34.5625 8.28125 
Q 37.984375 10.453125 37.984375 14.40625 
Q 37.984375 18.0625 35.515625 20.015625 
Q 33.0625 21.96875 24.703125 23.78125 
L 21.578125 24.515625 
Q 13.234375 26.265625 9.515625 29.90625 
Q 5.8125 33.546875 5.8125 39.890625 
Q 5.8125 47.609375 11.28125 51.796875 
Q 16.75 56 26.8125 56 
Q 31.78125 56 36.171875 55.265625 
Q 40.578125 54.546875 44.28125 53.078125 
z
" id="DejaVuSans-115"/>
      </defs>
      <use xlink:href="#DejaVuSans-101"/>
      <use x="59.773438" xlink:href="#DejaVuSans-120"/>
      <use x="117.203125" xlink:href="#DejaVuSans-99"/>
      <use x="172.183594" xlink:href="#DejaVuSans-101"/>
      <use x="233.707031" xlink:href="#DejaVuSans-115"/>
      <use x="285.806641" xlink:href="#DejaVuSans-115"/>
     </g>
    </g>
   </g>
  </g>
 </g>
 <defs>
  <clipPath id="pf6b9aea927">
   <rect height="247.64" width="1107.44" x="33.76" y="25.92"/>
  </clipPath>
 </defs>
</svg>
