<?xml version="1.0" encoding="utf-8" standalone="no"?>
<!DOCTYPE svg PUBLIC "-//W3C//DTD SVG 1.1//EN"
  "http://www.w3.org/Graphics/SVG/1.1/DTD/svg11.dtd">
<!-- Created with matplotlib (https://matplotlib.org/) -->
<svg height="468pt" version="1.1" viewBox="0 0 1152 468" width="1152pt" xmlns="http://www.w3.org/2000/svg" xmlns:xlink="http://www.w3.org/1999/xlink">
 <metadata>
  <rdf:RDF xmlns:cc="http://creativecommons.org/ns#" xmlns:dc="http://purl.org/dc/elements/1.1/" xmlns:rdf="http://www.w3.org/1999/02/22-rdf-syntax-ns#">
   <cc:Work>
    <dc:type rdf:resource="http://purl.org/dc/dcmitype/StillImage"/>
    <dc:date>2023-10-11T16:58:49.817530</dc:date>
    <dc:format>image/svg+xml</dc:format>
    <dc:creator>
     <cc:Agent>
      <dc:title>Matplotlib v3.3.4, https://matplotlib.org/</dc:title>
     </cc:Agent>
    </dc:creator>
   </cc:Work>
  </rdf:RDF>
 </metadata>
 <defs>
  <style type="text/css">*{stroke-linecap:butt;stroke-linejoin:round;}</style>
 </defs>
 <g id="figure_1">
  <g id="patch_1">
   <path d="M 0 468 
L 1152 468 
L 1152 0 
L 0 0 
z
" style="fill:#ffffff;"/>
  </g>
  <g id="axes_1">
   <g id="patch_2">
    <path d="M 50.9 424.76 
L 1110.58 424.76 
L 1110.58 25.92 
L 50.9 25.92 
z
" style="fill:#ffffff;"/>
   </g>
   <g id="patch_3">
    <path clip-path="url(#p8c81c0920a)" d="M 120.31754 176.187183 
L 102.608984 176.187183 
L 102.608984 194.699283 
L 120.31754 194.699283 
z
" style="fill:#1f77b4;"/>
   </g>
   <g id="patch_4">
    <path clip-path="url(#p8c81c0920a)" d="M 145.109519 176.187183 
L 127.400963 176.187183 
L 127.400963 130.864456 
L 145.109519 130.864456 
z
" style="fill:#1f77b4;"/>
   </g>
   <g id="patch_5">
    <path clip-path="url(#p8c81c0920a)" d="M 169.901497 176.187183 
L 152.192941 176.187183 
L 152.192941 176.825531 
L 169.901497 176.825531 
z
" style="fill:#1f77b4;"/>
   </g>
   <g id="patch_6">
    <path clip-path="url(#p8c81c0920a)" d="M 194.693476 176.187183 
L 176.98492 176.187183 
L 176.98492 161.505173 
L 194.693476 161.505173 
z
" style="fill:#1f77b4;"/>
   </g>
   <g id="patch_7">
    <path clip-path="url(#p8c81c0920a)" d="M 219.485455 176.187183 
L 201.776898 176.187183 
L 201.776898 124.480973 
L 219.485455 124.480973 
z
" style="fill:#1f77b4;"/>
   </g>
   <g id="patch_8">
    <path clip-path="url(#p8c81c0920a)" d="M 244.277433 176.187183 
L 226.568877 176.187183 
L 226.568877 291.72822 
L 244.277433 291.72822 
z
" style="fill:#1f77b4;"/>
   </g>
   <g id="patch_9">
    <path clip-path="url(#p8c81c0920a)" d="M 269.069412 176.187183 
L 251.360856 176.187183 
L 251.360856 55.53936 
L 269.069412 55.53936 
z
" style="fill:#1f77b4;"/>
   </g>
   <g id="patch_10">
    <path clip-path="url(#p8c81c0920a)" d="M 293.86139 176.187183 
L 276.152834 176.187183 
L 276.152834 84.90338 
L 293.86139 84.90338 
z
" style="fill:#1f77b4;"/>
   </g>
   <g id="patch_11">
    <path clip-path="url(#p8c81c0920a)" d="M 318.653369 176.187183 
L 300.944813 176.187183 
L 300.944813 346.626172 
L 318.653369 346.626172 
z
" style="fill:#1f77b4;"/>
   </g>
   <g id="patch_12">
    <path clip-path="url(#p8c81c0920a)" d="M 343.445348 176.187183 
L 325.736791 176.187183 
L 325.736791 44.049091 
L 343.445348 44.049091 
z
" style="fill:#1f77b4;"/>
   </g>
   <g id="patch_13">
    <path clip-path="url(#p8c81c0920a)" d="M 368.237326 176.187183 
L 350.52877 176.187183 
L 350.52877 148.738207 
L 368.237326 148.738207 
z
" style="fill:#1f77b4;"/>
   </g>
   <g id="patch_14">
    <path clip-path="url(#p8c81c0920a)" d="M 393.029305 176.187183 
L 375.320749 176.187183 
L 375.320749 287.898131 
L 393.029305 287.898131 
z
" style="fill:#1f77b4;"/>
   </g>
   <g id="patch_15">
    <path clip-path="url(#p8c81c0920a)" d="M 417.821283 176.187183 
L 400.112727 176.187183 
L 400.112727 210.019641 
L 417.821283 210.019641 
z
" style="fill:#1f77b4;"/>
   </g>
   <g id="patch_16">
    <path clip-path="url(#p8c81c0920a)" d="M 442.613262 176.187183 
L 424.904706 176.187183 
L 424.904706 238.106965 
L 442.613262 238.106965 
z
" style="fill:#1f77b4;"/>
   </g>
   <g id="patch_17">
    <path clip-path="url(#p8c81c0920a)" d="M 467.405241 176.187183 
L 449.696684 176.187183 
L 449.696684 129.587759 
L 467.405241 129.587759 
z
" style="fill:#1f77b4;"/>
   </g>
   <g id="patch_18">
    <path clip-path="url(#p8c81c0920a)" d="M 492.197219 176.187183 
L 474.488663 176.187183 
L 474.488663 97.670346 
L 492.197219 97.670346 
z
" style="fill:#1f77b4;"/>
   </g>
   <g id="patch_19">
    <path clip-path="url(#p8c81c0920a)" d="M 516.989198 176.187183 
L 499.280642 176.187183 
L 499.280642 143.631421 
L 516.989198 143.631421 
z
" style="fill:#1f77b4;"/>
   </g>
   <g id="patch_20">
    <path clip-path="url(#p8c81c0920a)" d="M 541.781176 176.187183 
L 524.07262 176.187183 
L 524.07262 175.548835 
L 541.781176 175.548835 
z
" style="fill:#1f77b4;"/>
   </g>
   <g id="patch_21">
    <path clip-path="url(#p8c81c0920a)" d="M 566.573155 176.187183 
L 548.864599 176.187183 
L 548.864599 286.621434 
L 566.573155 286.621434 
z
" style="fill:#1f77b4;"/>
   </g>
   <g id="patch_22">
    <path clip-path="url(#p8c81c0920a)" d="M 591.365134 176.187183 
L 573.656578 176.187183 
L 573.656578 239.383662 
L 591.365134 239.383662 
z
" style="fill:#1f77b4;"/>
   </g>
   <g id="patch_23">
    <path clip-path="url(#p8c81c0920a)" d="M 616.157112 176.187183 
L 598.448556 176.187183 
L 598.448556 363.223227 
L 616.157112 363.223227 
z
" style="fill:#1f77b4;"/>
   </g>
   <g id="patch_24">
    <path clip-path="url(#p8c81c0920a)" d="M 640.949091 176.187183 
L 623.240535 176.187183 
L 623.240535 229.17009 
L 640.949091 229.17009 
z
" style="fill:#1f77b4;"/>
   </g>
   <g id="patch_25">
    <path clip-path="url(#p8c81c0920a)" d="M 665.74107 176.187183 
L 648.032513 176.187183 
L 648.032513 184.485711 
L 665.74107 184.485711 
z
" style="fill:#1f77b4;"/>
   </g>
   <g id="patch_26">
    <path clip-path="url(#p8c81c0920a)" d="M 690.533048 176.187183 
L 672.824492 176.187183 
L 672.824492 97.670346 
L 690.533048 97.670346 
z
" style="fill:#1f77b4;"/>
   </g>
   <g id="patch_27">
    <path clip-path="url(#p8c81c0920a)" d="M 715.325027 176.187183 
L 697.616471 176.187183 
L 697.616471 314.708758 
L 715.325027 314.708758 
z
" style="fill:#1f77b4;"/>
   </g>
   <g id="patch_28">
    <path clip-path="url(#p8c81c0920a)" d="M 740.117005 176.187183 
L 722.408449 176.187183 
L 722.408449 184.485711 
L 740.117005 184.485711 
z
" style="fill:#1f77b4;"/>
   </g>
   <g id="patch_29">
    <path clip-path="url(#p8c81c0920a)" d="M 764.908984 176.187183 
L 747.200428 176.187183 
L 747.200428 157.675083 
L 764.908984 157.675083 
z
" style="fill:#1f77b4;"/>
   </g>
   <g id="patch_30">
    <path clip-path="url(#p8c81c0920a)" d="M 789.700963 176.187183 
L 771.992406 176.187183 
L 771.992406 406.630909 
L 789.700963 406.630909 
z
" style="fill:#1f77b4;"/>
   </g>
   <g id="patch_31">
    <path clip-path="url(#p8c81c0920a)" d="M 814.492941 176.187183 
L 796.784385 176.187183 
L 796.784385 330.029117 
L 814.492941 330.029117 
z
" style="fill:#1f77b4;"/>
   </g>
   <g id="patch_32">
    <path clip-path="url(#p8c81c0920a)" d="M 839.28492 176.187183 
L 821.576364 176.187183 
L 821.576364 248.320538 
L 839.28492 248.320538 
z
" style="fill:#1f77b4;"/>
   </g>
   <g id="patch_33">
    <path clip-path="url(#p8c81c0920a)" d="M 864.076898 176.187183 
L 846.368342 176.187183 
L 846.368342 127.034366 
L 864.076898 127.034366 
z
" style="fill:#1f77b4;"/>
   </g>
   <g id="patch_34">
    <path clip-path="url(#p8c81c0920a)" d="M 888.868877 176.187183 
L 871.160321 176.187183 
L 871.160321 204.912855 
L 888.868877 204.912855 
z
" style="fill:#1f77b4;"/>
   </g>
   <g id="patch_35">
    <path clip-path="url(#p8c81c0920a)" d="M 913.660856 176.187183 
L 895.952299 176.187183 
L 895.952299 282.791344 
L 913.660856 282.791344 
z
" style="fill:#1f77b4;"/>
   </g>
   <g id="patch_36">
    <path clip-path="url(#p8c81c0920a)" d="M 938.452834 176.187183 
L 920.744278 176.187183 
L 920.744278 143.631421 
L 938.452834 143.631421 
z
" style="fill:#1f77b4;"/>
   </g>
   <g id="patch_37">
    <path clip-path="url(#p8c81c0920a)" d="M 963.244813 176.187183 
L 945.536257 176.187183 
L 945.536257 166.611959 
L 963.244813 166.611959 
z
" style="fill:#1f77b4;"/>
   </g>
   <g id="patch_38">
    <path clip-path="url(#p8c81c0920a)" d="M 988.036791 176.187183 
L 970.328235 176.187183 
L 970.328235 84.90338 
L 988.036791 84.90338 
z
" style="fill:#1f77b4;"/>
   </g>
   <g id="patch_39">
    <path clip-path="url(#p8c81c0920a)" d="M 1012.82877 176.187183 
L 995.120214 176.187183 
L 995.120214 271.301076 
L 1012.82877 271.301076 
z
" style="fill:#1f77b4;"/>
   </g>
   <g id="patch_40">
    <path clip-path="url(#p8c81c0920a)" d="M 1037.620749 176.187183 
L 1019.912193 176.187183 
L 1019.912193 104.053828 
L 1037.620749 104.053828 
z
" style="fill:#1f77b4;"/>
   </g>
   <g id="patch_41">
    <path clip-path="url(#p8c81c0920a)" d="M 1062.412727 176.187183 
L 1044.704171 176.187183 
L 1044.704171 170.442049 
L 1062.412727 170.442049 
z
" style="fill:#1f77b4;"/>
   </g>
   <g id="patch_42">
    <path clip-path="url(#p8c81c0920a)" d="M 0 0 
z
" style="fill:#1f77b4;"/>
   </g>
   <g id="matplotlib.axis_1">
    <g id="xtick_1">
     <g id="line2d_1">
      <path clip-path="url(#p8c81c0920a)" d="M 88.442139 424.76 
L 88.442139 25.92 
" style="fill:none;stroke:#b0b0b0;stroke-linecap:square;stroke-width:0.8;"/>
     </g>
     <g id="line2d_2">
      <defs>
       <path d="M 0 0 
L 0 3.5 
" id="mcb50498a02" style="stroke:#000000;stroke-width:0.8;"/>
      </defs>
      <g>
       <use style="stroke:#000000;stroke-width:0.8;" x="88.442139" xlink:href="#mcb50498a02" y="424.76"/>
      </g>
     </g>
     <g id="text_1">
      <!-- 2010 -->
      <g transform="translate(91.201514 457.21)rotate(-90)scale(0.1 -0.1)">
       <defs>
        <path d="M 19.1875 8.296875 
L 53.609375 8.296875 
L 53.609375 0 
L 7.328125 0 
L 7.328125 8.296875 
Q 12.9375 14.109375 22.625 23.890625 
Q 32.328125 33.6875 34.8125 36.53125 
Q 39.546875 41.84375 41.421875 45.53125 
Q 43.3125 49.21875 43.3125 52.78125 
Q 43.3125 58.59375 39.234375 62.25 
Q 35.15625 65.921875 28.609375 65.921875 
Q 23.96875 65.921875 18.8125 64.3125 
Q 13.671875 62.703125 7.8125 59.421875 
L 7.8125 69.390625 
Q 13.765625 71.78125 18.9375 73 
Q 24.125 74.21875 28.421875 74.21875 
Q 39.75 74.21875 46.484375 68.546875 
Q 53.21875 62.890625 53.21875 53.421875 
Q 53.21875 48.921875 51.53125 44.890625 
Q 49.859375 40.875 45.40625 35.40625 
Q 44.1875 33.984375 37.640625 27.21875 
Q 31.109375 20.453125 19.1875 8.296875 
z
" id="DejaVuSans-50"/>
        <path d="M 31.78125 66.40625 
Q 24.171875 66.40625 20.328125 58.90625 
Q 16.5 51.421875 16.5 36.375 
Q 16.5 21.390625 20.328125 13.890625 
Q 24.171875 6.390625 31.78125 6.390625 
Q 39.453125 6.390625 43.28125 13.890625 
Q 47.125 21.390625 47.125 36.375 
Q 47.125 51.421875 43.28125 58.90625 
Q 39.453125 66.40625 31.78125 66.40625 
z
M 31.78125 74.21875 
Q 44.046875 74.21875 50.515625 64.515625 
Q 56.984375 54.828125 56.984375 36.375 
Q 56.984375 17.96875 50.515625 8.265625 
Q 44.046875 -1.421875 31.78125 -1.421875 
Q 19.53125 -1.421875 13.0625 8.265625 
Q 6.59375 17.96875 6.59375 36.375 
Q 6.59375 54.828125 13.0625 64.515625 
Q 19.53125 74.21875 31.78125 74.21875 
z
" id="DejaVuSans-48"/>
        <path d="M 12.40625 8.296875 
L 28.515625 8.296875 
L 28.515625 63.921875 
L 10.984375 60.40625 
L 10.984375 69.390625 
L 28.421875 72.90625 
L 38.28125 72.90625 
L 38.28125 8.296875 
L 54.390625 8.296875 
L 54.390625 0 
L 12.40625 0 
z
" id="DejaVuSans-49"/>
       </defs>
       <use xlink:href="#DejaVuSans-50"/>
       <use x="63.623047" xlink:href="#DejaVuSans-48"/>
       <use x="127.246094" xlink:href="#DejaVuSans-49"/>
       <use x="190.869141" xlink:href="#DejaVuSans-48"/>
      </g>
     </g>
    </g>
   </g>
   <g id="matplotlib.axis_2">
    <g id="ytick_1">
     <g id="line2d_3">
      <path clip-path="url(#p8c81c0920a)" d="M 50.9 386.842113 
L 1110.58 386.842113 
" style="fill:none;stroke:#b0b0b0;stroke-linecap:square;stroke-width:0.8;"/>
     </g>
     <g id="line2d_4">
      <defs>
       <path d="M 0 0 
L -3.5 0 
" id="m5f80eabaa6" style="stroke:#000000;stroke-width:0.8;"/>
      </defs>
      <g>
       <use style="stroke:#000000;stroke-width:0.8;" x="50.9" xlink:href="#m5f80eabaa6" y="386.842113"/>
      </g>
     </g>
     <g id="text_2">
      <!-- -0.4 -->
      <g transform="translate(24.389062 390.641331)scale(0.1 -0.1)">
       <defs>
        <path d="M 4.890625 31.390625 
L 31.203125 31.390625 
L 31.203125 23.390625 
L 4.890625 23.390625 
z
" id="DejaVuSans-45"/>
        <path d="M 10.6875 12.40625 
L 21 12.40625 
L 21 0 
L 10.6875 0 
z
" id="DejaVuSans-46"/>
        <path d="M 37.796875 64.3125 
L 12.890625 25.390625 
L 37.796875 25.390625 
z
M 35.203125 72.90625 
L 47.609375 72.90625 
L 47.609375 25.390625 
L 58.015625 25.390625 
L 58.015625 17.1875 
L 47.609375 17.1875 
L 47.609375 0 
L 37.796875 0 
L 37.796875 17.1875 
L 4.890625 17.1875 
L 4.890625 26.703125 
z
" id="DejaVuSans-52"/>
       </defs>
       <use xlink:href="#DejaVuSans-45"/>
       <use x="36.083984" xlink:href="#DejaVuSans-48"/>
       <use x="99.707031" xlink:href="#DejaVuSans-46"/>
       <use x="131.494141" xlink:href="#DejaVuSans-52"/>
      </g>
     </g>
    </g>
    <g id="ytick_2">
     <g id="line2d_5">
      <path clip-path="url(#p8c81c0920a)" d="M 50.9 334.17838 
L 1110.58 334.17838 
" style="fill:none;stroke:#b0b0b0;stroke-linecap:square;stroke-width:0.8;"/>
     </g>
     <g id="line2d_6">
      <g>
       <use style="stroke:#000000;stroke-width:0.8;" x="50.9" xlink:href="#m5f80eabaa6" y="334.17838"/>
      </g>
     </g>
     <g id="text_3">
      <!-- -0.3 -->
      <g transform="translate(24.389062 337.977599)scale(0.1 -0.1)">
       <defs>
        <path d="M 40.578125 39.3125 
Q 47.65625 37.796875 51.625 33 
Q 55.609375 28.21875 55.609375 21.1875 
Q 55.609375 10.40625 48.1875 4.484375 
Q 40.765625 -1.421875 27.09375 -1.421875 
Q 22.515625 -1.421875 17.65625 -0.515625 
Q 12.796875 0.390625 7.625 2.203125 
L 7.625 11.71875 
Q 11.71875 9.328125 16.59375 8.109375 
Q 21.484375 6.890625 26.8125 6.890625 
Q 36.078125 6.890625 40.9375 10.546875 
Q 45.796875 14.203125 45.796875 21.1875 
Q 45.796875 27.640625 41.28125 31.265625 
Q 36.765625 34.90625 28.71875 34.90625 
L 20.21875 34.90625 
L 20.21875 43.015625 
L 29.109375 43.015625 
Q 36.375 43.015625 40.234375 45.921875 
Q 44.09375 48.828125 44.09375 54.296875 
Q 44.09375 59.90625 40.109375 62.90625 
Q 36.140625 65.921875 28.71875 65.921875 
Q 24.65625 65.921875 20.015625 65.03125 
Q 15.375 64.15625 9.8125 62.3125 
L 9.8125 71.09375 
Q 15.4375 72.65625 20.34375 73.4375 
Q 25.25 74.21875 29.59375 74.21875 
Q 40.828125 74.21875 47.359375 69.109375 
Q 53.90625 64.015625 53.90625 55.328125 
Q 53.90625 49.265625 50.4375 45.09375 
Q 46.96875 40.921875 40.578125 39.3125 
z
" id="DejaVuSans-51"/>
       </defs>
       <use xlink:href="#DejaVuSans-45"/>
       <use x="36.083984" xlink:href="#DejaVuSans-48"/>
       <use x="99.707031" xlink:href="#DejaVuSans-46"/>
       <use x="131.494141" xlink:href="#DejaVuSans-51"/>
      </g>
     </g>
    </g>
    <g id="ytick_3">
     <g id="line2d_7">
      <path clip-path="url(#p8c81c0920a)" d="M 50.9 281.514648 
L 1110.58 281.514648 
" style="fill:none;stroke:#b0b0b0;stroke-linecap:square;stroke-width:0.8;"/>
     </g>
     <g id="line2d_8">
      <g>
       <use style="stroke:#000000;stroke-width:0.8;" x="50.9" xlink:href="#m5f80eabaa6" y="281.514648"/>
      </g>
     </g>
     <g id="text_4">
      <!-- -0.2 -->
      <g transform="translate(24.389062 285.313867)scale(0.1 -0.1)">
       <use xlink:href="#DejaVuSans-45"/>
       <use x="36.083984" xlink:href="#DejaVuSans-48"/>
       <use x="99.707031" xlink:href="#DejaVuSans-46"/>
       <use x="131.494141" xlink:href="#DejaVuSans-50"/>
      </g>
     </g>
    </g>
    <g id="ytick_4">
     <g id="line2d_9">
      <path clip-path="url(#p8c81c0920a)" d="M 50.9 228.850915 
L 1110.58 228.850915 
" style="fill:none;stroke:#b0b0b0;stroke-linecap:square;stroke-width:0.8;"/>
     </g>
     <g id="line2d_10">
      <g>
       <use style="stroke:#000000;stroke-width:0.8;" x="50.9" xlink:href="#m5f80eabaa6" y="228.850915"/>
      </g>
     </g>
     <g id="text_5">
      <!-- -0.1 -->
      <g transform="translate(24.389062 232.650134)scale(0.1 -0.1)">
       <use xlink:href="#DejaVuSans-45"/>
       <use x="36.083984" xlink:href="#DejaVuSans-48"/>
       <use x="99.707031" xlink:href="#DejaVuSans-46"/>
       <use x="131.494141" xlink:href="#DejaVuSans-49"/>
      </g>
     </g>
    </g>
    <g id="ytick_5">
     <g id="line2d_11">
      <path clip-path="url(#p8c81c0920a)" d="M 50.9 176.187183 
L 1110.58 176.187183 
" style="fill:none;stroke:#b0b0b0;stroke-linecap:square;stroke-width:0.8;"/>
     </g>
     <g id="line2d_12">
      <g>
       <use style="stroke:#000000;stroke-width:0.8;" x="50.9" xlink:href="#m5f80eabaa6" y="176.187183"/>
      </g>
     </g>
     <g id="text_6">
      <!-- 0.0 -->
      <g transform="translate(27.996875 179.986402)scale(0.1 -0.1)">
       <use xlink:href="#DejaVuSans-48"/>
       <use x="63.623047" xlink:href="#DejaVuSans-46"/>
       <use x="95.410156" xlink:href="#DejaVuSans-48"/>
      </g>
     </g>
    </g>
    <g id="ytick_6">
     <g id="line2d_13">
      <path clip-path="url(#p8c81c0920a)" d="M 50.9 123.523451 
L 1110.58 123.523451 
" style="fill:none;stroke:#b0b0b0;stroke-linecap:square;stroke-width:0.8;"/>
     </g>
     <g id="line2d_14">
      <g>
       <use style="stroke:#000000;stroke-width:0.8;" x="50.9" xlink:href="#m5f80eabaa6" y="123.523451"/>
      </g>
     </g>
     <g id="text_7">
      <!-- 0.1 -->
      <g transform="translate(27.996875 127.322669)scale(0.1 -0.1)">
       <use xlink:href="#DejaVuSans-48"/>
       <use x="63.623047" xlink:href="#DejaVuSans-46"/>
       <use x="95.410156" xlink:href="#DejaVuSans-49"/>
      </g>
     </g>
    </g>
    <g id="ytick_7">
     <g id="line2d_15">
      <path clip-path="url(#p8c81c0920a)" d="M 50.9 70.859718 
L 1110.58 70.859718 
" style="fill:none;stroke:#b0b0b0;stroke-linecap:square;stroke-width:0.8;"/>
     </g>
     <g id="line2d_16">
      <g>
       <use style="stroke:#000000;stroke-width:0.8;" x="50.9" xlink:href="#m5f80eabaa6" y="70.859718"/>
      </g>
     </g>
     <g id="text_8">
      <!-- 0.2 -->
      <g transform="translate(27.996875 74.658937)scale(0.1 -0.1)">
       <use xlink:href="#DejaVuSans-48"/>
       <use x="63.623047" xlink:href="#DejaVuSans-46"/>
       <use x="95.410156" xlink:href="#DejaVuSans-50"/>
      </g>
     </g>
    </g>
    <g id="text_9">
     <!-- RankIC -->
     <g transform="translate(18.309375 242.79625)rotate(-90)scale(0.1 -0.1)">
      <defs>
       <path d="M 44.390625 34.1875 
Q 47.5625 33.109375 50.5625 29.59375 
Q 53.5625 26.078125 56.59375 19.921875 
L 66.609375 0 
L 56 0 
L 46.6875 18.703125 
Q 43.0625 26.03125 39.671875 28.421875 
Q 36.28125 30.8125 30.421875 30.8125 
L 19.671875 30.8125 
L 19.671875 0 
L 9.8125 0 
L 9.8125 72.90625 
L 32.078125 72.90625 
Q 44.578125 72.90625 50.734375 67.671875 
Q 56.890625 62.453125 56.890625 51.90625 
Q 56.890625 45.015625 53.6875 40.46875 
Q 50.484375 35.9375 44.390625 34.1875 
z
M 19.671875 64.796875 
L 19.671875 38.921875 
L 32.078125 38.921875 
Q 39.203125 38.921875 42.84375 42.21875 
Q 46.484375 45.515625 46.484375 51.90625 
Q 46.484375 58.296875 42.84375 61.546875 
Q 39.203125 64.796875 32.078125 64.796875 
z
" id="DejaVuSans-82"/>
       <path d="M 34.28125 27.484375 
Q 23.390625 27.484375 19.1875 25 
Q 14.984375 22.515625 14.984375 16.5 
Q 14.984375 11.71875 18.140625 8.90625 
Q 21.296875 6.109375 26.703125 6.109375 
Q 34.1875 6.109375 38.703125 11.40625 
Q 43.21875 16.703125 43.21875 25.484375 
L 43.21875 27.484375 
z
M 52.203125 31.203125 
L 52.203125 0 
L 43.21875 0 
L 43.21875 8.296875 
Q 40.140625 3.328125 35.546875 0.953125 
Q 30.953125 -1.421875 24.3125 -1.421875 
Q 15.921875 -1.421875 10.953125 3.296875 
Q 6 8.015625 6 15.921875 
Q 6 25.140625 12.171875 29.828125 
Q 18.359375 34.515625 30.609375 34.515625 
L 43.21875 34.515625 
L 43.21875 35.40625 
Q 43.21875 41.609375 39.140625 45 
Q 35.0625 48.390625 27.6875 48.390625 
Q 23 48.390625 18.546875 47.265625 
Q 14.109375 46.140625 10.015625 43.890625 
L 10.015625 52.203125 
Q 14.9375 54.109375 19.578125 55.046875 
Q 24.21875 56 28.609375 56 
Q 40.484375 56 46.34375 49.84375 
Q 52.203125 43.703125 52.203125 31.203125 
z
" id="DejaVuSans-97"/>
       <path d="M 54.890625 33.015625 
L 54.890625 0 
L 45.90625 0 
L 45.90625 32.71875 
Q 45.90625 40.484375 42.875 44.328125 
Q 39.84375 48.1875 33.796875 48.1875 
Q 26.515625 48.1875 22.3125 43.546875 
Q 18.109375 38.921875 18.109375 30.90625 
L 18.109375 0 
L 9.078125 0 
L 9.078125 54.6875 
L 18.109375 54.6875 
L 18.109375 46.1875 
Q 21.34375 51.125 25.703125 53.5625 
Q 30.078125 56 35.796875 56 
Q 45.21875 56 50.046875 50.171875 
Q 54.890625 44.34375 54.890625 33.015625 
z
" id="DejaVuSans-110"/>
       <path d="M 9.078125 75.984375 
L 18.109375 75.984375 
L 18.109375 31.109375 
L 44.921875 54.6875 
L 56.390625 54.6875 
L 27.390625 29.109375 
L 57.625 0 
L 45.90625 0 
L 18.109375 26.703125 
L 18.109375 0 
L 9.078125 0 
z
" id="DejaVuSans-107"/>
       <path d="M 9.8125 72.90625 
L 19.671875 72.90625 
L 19.671875 0 
L 9.8125 0 
z
" id="DejaVuSans-73"/>
       <path d="M 64.40625 67.28125 
L 64.40625 56.890625 
Q 59.421875 61.53125 53.78125 63.8125 
Q 48.140625 66.109375 41.796875 66.109375 
Q 29.296875 66.109375 22.65625 58.46875 
Q 16.015625 50.828125 16.015625 36.375 
Q 16.015625 21.96875 22.65625 14.328125 
Q 29.296875 6.6875 41.796875 6.6875 
Q 48.140625 6.6875 53.78125 8.984375 
Q 59.421875 11.28125 64.40625 15.921875 
L 64.40625 5.609375 
Q 59.234375 2.09375 53.4375 0.328125 
Q 47.65625 -1.421875 41.21875 -1.421875 
Q 24.65625 -1.421875 15.125 8.703125 
Q 5.609375 18.84375 5.609375 36.375 
Q 5.609375 53.953125 15.125 64.078125 
Q 24.65625 74.21875 41.21875 74.21875 
Q 47.75 74.21875 53.53125 72.484375 
Q 59.328125 70.75 64.40625 67.28125 
z
" id="DejaVuSans-67"/>
      </defs>
      <use xlink:href="#DejaVuSans-82"/>
      <use x="67.232422" xlink:href="#DejaVuSans-97"/>
      <use x="128.511719" xlink:href="#DejaVuSans-110"/>
      <use x="191.890625" xlink:href="#DejaVuSans-107"/>
      <use x="249.800781" xlink:href="#DejaVuSans-73"/>
      <use x="279.292969" xlink:href="#DejaVuSans-67"/>
     </g>
    </g>
   </g>
   <g id="line2d_17">
    <path clip-path="url(#p8c81c0920a)" d="M 50.9 195.910508 
L 1110.58 195.910508 
" style="fill:none;stroke:#800080;stroke-dasharray:7.4,3.2;stroke-dashoffset:0;stroke-width:2;"/>
   </g>
   <g id="patch_43">
    <path d="M 50.9 424.76 
L 50.9 25.92 
" style="fill:none;stroke:#000000;stroke-linecap:square;stroke-linejoin:miter;stroke-width:0.8;"/>
   </g>
   <g id="patch_44">
    <path d="M 1110.58 424.76 
L 1110.58 25.92 
" style="fill:none;stroke:#000000;stroke-linecap:square;stroke-linejoin:miter;stroke-width:0.8;"/>
   </g>
   <g id="patch_45">
    <path d="M 50.9 424.76 
L 1110.58 424.76 
" style="fill:none;stroke:#000000;stroke-linecap:square;stroke-linejoin:miter;stroke-width:0.8;"/>
   </g>
   <g id="patch_46">
    <path d="M 50.9 25.92 
L 1110.58 25.92 
" style="fill:none;stroke:#000000;stroke-linecap:square;stroke-linejoin:miter;stroke-width:0.8;"/>
   </g>
   <g id="legend_1">
    <g id="patch_47">
     <path d="M 57.9 63.27625 
L 194.5 63.27625 
Q 196.5 63.27625 196.5 61.27625 
L 196.5 32.92 
Q 196.5 30.92 194.5 30.92 
L 57.9 30.92 
Q 55.9 30.92 55.9 32.92 
L 55.9 61.27625 
Q 55.9 63.27625 57.9 63.27625 
z
" style="fill:#ffffff;opacity:0.8;stroke:#cccccc;stroke-linejoin:miter;"/>
    </g>
    <g id="patch_48">
     <path d="M 59.9 42.518438 
L 79.9 42.518438 
L 79.9 35.518438 
L 59.9 35.518438 
z
" style="fill:#1f77b4;"/>
    </g>
    <g id="text_10">
     <!-- weekly RankIC mean -->
     <g transform="translate(87.9 42.518438)scale(0.1 -0.1)">
      <defs>
       <path d="M 4.203125 54.6875 
L 13.1875 54.6875 
L 24.421875 12.015625 
L 35.59375 54.6875 
L 46.1875 54.6875 
L 57.421875 12.015625 
L 68.609375 54.6875 
L 77.59375 54.6875 
L 63.28125 0 
L 52.6875 0 
L 40.921875 44.828125 
L 29.109375 0 
L 18.5 0 
z
" id="DejaVuSans-119"/>
       <path d="M 56.203125 29.59375 
L 56.203125 25.203125 
L 14.890625 25.203125 
Q 15.484375 15.921875 20.484375 11.0625 
Q 25.484375 6.203125 34.421875 6.203125 
Q 39.59375 6.203125 44.453125 7.46875 
Q 49.3125 8.734375 54.109375 11.28125 
L 54.109375 2.78125 
Q 49.265625 0.734375 44.1875 -0.34375 
Q 39.109375 -1.421875 33.890625 -1.421875 
Q 20.796875 -1.421875 13.15625 6.1875 
Q 5.515625 13.8125 5.515625 26.8125 
Q 5.515625 40.234375 12.765625 48.109375 
Q 20.015625 56 32.328125 56 
Q 43.359375 56 49.78125 48.890625 
Q 56.203125 41.796875 56.203125 29.59375 
z
M 47.21875 32.234375 
Q 47.125 39.59375 43.09375 43.984375 
Q 39.0625 48.390625 32.421875 48.390625 
Q 24.90625 48.390625 20.390625 44.140625 
Q 15.875 39.890625 15.1875 32.171875 
z
" id="DejaVuSans-101"/>
       <path d="M 9.421875 75.984375 
L 18.40625 75.984375 
L 18.40625 0 
L 9.421875 0 
z
" id="DejaVuSans-108"/>
       <path d="M 32.171875 -5.078125 
Q 28.375 -14.84375 24.75 -17.8125 
Q 21.140625 -20.796875 15.09375 -20.796875 
L 7.90625 -20.796875 
L 7.90625 -13.28125 
L 13.1875 -13.28125 
Q 16.890625 -13.28125 18.9375 -11.515625 
Q 21 -9.765625 23.484375 -3.21875 
L 25.09375 0.875 
L 2.984375 54.6875 
L 12.5 54.6875 
L 29.59375 11.921875 
L 46.6875 54.6875 
L 56.203125 54.6875 
z
" id="DejaVuSans-121"/>
       <path id="DejaVuSans-32"/>
       <path d="M 52 44.1875 
Q 55.375 50.25 60.0625 53.125 
Q 64.75 56 71.09375 56 
Q 79.640625 56 84.28125 50.015625 
Q 88.921875 44.046875 88.921875 33.015625 
L 88.921875 0 
L 79.890625 0 
L 79.890625 32.71875 
Q 79.890625 40.578125 77.09375 44.375 
Q 74.3125 48.1875 68.609375 48.1875 
Q 61.625 48.1875 57.5625 43.546875 
Q 53.515625 38.921875 53.515625 30.90625 
L 53.515625 0 
L 44.484375 0 
L 44.484375 32.71875 
Q 44.484375 40.625 41.703125 44.40625 
Q 38.921875 48.1875 33.109375 48.1875 
Q 26.21875 48.1875 22.15625 43.53125 
Q 18.109375 38.875 18.109375 30.90625 
L 18.109375 0 
L 9.078125 0 
L 9.078125 54.6875 
L 18.109375 54.6875 
L 18.109375 46.1875 
Q 21.1875 51.21875 25.484375 53.609375 
Q 29.78125 56 35.6875 56 
Q 41.65625 56 45.828125 52.96875 
Q 50 49.953125 52 44.1875 
z
" id="DejaVuSans-109"/>
      </defs>
      <use xlink:href="#DejaVuSans-119"/>
      <use x="81.787109" xlink:href="#DejaVuSans-101"/>
      <use x="143.310547" xlink:href="#DejaVuSans-101"/>
      <use x="204.833984" xlink:href="#DejaVuSans-107"/>
      <use x="262.744141" xlink:href="#DejaVuSans-108"/>
      <use x="290.527344" xlink:href="#DejaVuSans-121"/>
      <use x="349.707031" xlink:href="#DejaVuSans-32"/>
      <use x="381.494141" xlink:href="#DejaVuSans-82"/>
      <use x="448.726562" xlink:href="#DejaVuSans-97"/>
      <use x="510.005859" xlink:href="#DejaVuSans-110"/>
      <use x="573.384766" xlink:href="#DejaVuSans-107"/>
      <use x="631.294922" xlink:href="#DejaVuSans-73"/>
      <use x="660.787109" xlink:href="#DejaVuSans-67"/>
      <use x="730.611328" xlink:href="#DejaVuSans-32"/>
      <use x="762.398438" xlink:href="#DejaVuSans-109"/>
      <use x="859.810547" xlink:href="#DejaVuSans-101"/>
      <use x="921.333984" xlink:href="#DejaVuSans-97"/>
      <use x="982.613281" xlink:href="#DejaVuSans-110"/>
     </g>
    </g>
    <g id="line2d_18">
     <path d="M 59.9 53.696563 
L 79.9 53.696563 
" style="fill:none;stroke:#800080;stroke-dasharray:7.4,3.2;stroke-dashoffset:0;stroke-width:2;"/>
    </g>
    <g id="line2d_19"/>
    <g id="text_11">
     <!-- RankIC mean -->
     <g transform="translate(87.9 57.196563)scale(0.1 -0.1)">
      <use xlink:href="#DejaVuSans-82"/>
      <use x="67.232422" xlink:href="#DejaVuSans-97"/>
      <use x="128.511719" xlink:href="#DejaVuSans-110"/>
      <use x="191.890625" xlink:href="#DejaVuSans-107"/>
      <use x="249.800781" xlink:href="#DejaVuSans-73"/>
      <use x="279.292969" xlink:href="#DejaVuSans-67"/>
      <use x="349.117188" xlink:href="#DejaVuSans-32"/>
      <use x="380.904297" xlink:href="#DejaVuSans-109"/>
      <use x="478.316406" xlink:href="#DejaVuSans-101"/>
      <use x="539.839844" xlink:href="#DejaVuSans-97"/>
      <use x="601.119141" xlink:href="#DejaVuSans-110"/>
     </g>
    </g>
   </g>
  </g>
  <g id="axes_2">
   <g id="matplotlib.axis_3">
    <g id="ytick_8">
     <g id="line2d_20">
      <defs>
       <path d="M 0 0 
L 3.5 0 
" id="ma273de6ea1" style="stroke:#000000;stroke-width:0.8;"/>
      </defs>
      <g>
       <use style="stroke:#000000;stroke-width:0.8;" x="1110.58" xlink:href="#ma273de6ea1" y="374.897323"/>
      </g>
     </g>
     <g id="text_12">
      <!-- -8 -->
      <g transform="translate(1117.58 378.696541)scale(0.1 -0.1)">
       <defs>
        <path d="M 31.78125 34.625 
Q 24.75 34.625 20.71875 30.859375 
Q 16.703125 27.09375 16.703125 20.515625 
Q 16.703125 13.921875 20.71875 10.15625 
Q 24.75 6.390625 31.78125 6.390625 
Q 38.8125 6.390625 42.859375 10.171875 
Q 46.921875 13.96875 46.921875 20.515625 
Q 46.921875 27.09375 42.890625 30.859375 
Q 38.875 34.625 31.78125 34.625 
z
M 21.921875 38.8125 
Q 15.578125 40.375 12.03125 44.71875 
Q 8.5 49.078125 8.5 55.328125 
Q 8.5 64.0625 14.71875 69.140625 
Q 20.953125 74.21875 31.78125 74.21875 
Q 42.671875 74.21875 48.875 69.140625 
Q 55.078125 64.0625 55.078125 55.328125 
Q 55.078125 49.078125 51.53125 44.71875 
Q 48 40.375 41.703125 38.8125 
Q 48.828125 37.15625 52.796875 32.3125 
Q 56.78125 27.484375 56.78125 20.515625 
Q 56.78125 9.90625 50.3125 4.234375 
Q 43.84375 -1.421875 31.78125 -1.421875 
Q 19.734375 -1.421875 13.25 4.234375 
Q 6.78125 9.90625 6.78125 20.515625 
Q 6.78125 27.484375 10.78125 32.3125 
Q 14.796875 37.15625 21.921875 38.8125 
z
M 18.3125 54.390625 
Q 18.3125 48.734375 21.84375 45.5625 
Q 25.390625 42.390625 31.78125 42.390625 
Q 38.140625 42.390625 41.71875 45.5625 
Q 45.3125 48.734375 45.3125 54.390625 
Q 45.3125 60.0625 41.71875 63.234375 
Q 38.140625 66.40625 31.78125 66.40625 
Q 25.390625 66.40625 21.84375 63.234375 
Q 18.3125 60.0625 18.3125 54.390625 
z
" id="DejaVuSans-56"/>
       </defs>
       <use xlink:href="#DejaVuSans-45"/>
       <use x="36.083984" xlink:href="#DejaVuSans-56"/>
      </g>
     </g>
    </g>
    <g id="ytick_9">
     <g id="line2d_21">
      <g>
       <use style="stroke:#000000;stroke-width:0.8;" x="1110.58" xlink:href="#ma273de6ea1" y="307.335493"/>
      </g>
     </g>
     <g id="text_13">
      <!-- -6 -->
      <g transform="translate(1117.58 311.134712)scale(0.1 -0.1)">
       <defs>
        <path d="M 33.015625 40.375 
Q 26.375 40.375 22.484375 35.828125 
Q 18.609375 31.296875 18.609375 23.390625 
Q 18.609375 15.53125 22.484375 10.953125 
Q 26.375 6.390625 33.015625 6.390625 
Q 39.65625 6.390625 43.53125 10.953125 
Q 47.40625 15.53125 47.40625 23.390625 
Q 47.40625 31.296875 43.53125 35.828125 
Q 39.65625 40.375 33.015625 40.375 
z
M 52.59375 71.296875 
L 52.59375 62.3125 
Q 48.875 64.0625 45.09375 64.984375 
Q 41.3125 65.921875 37.59375 65.921875 
Q 27.828125 65.921875 22.671875 59.328125 
Q 17.53125 52.734375 16.796875 39.40625 
Q 19.671875 43.65625 24.015625 45.921875 
Q 28.375 48.1875 33.59375 48.1875 
Q 44.578125 48.1875 50.953125 41.515625 
Q 57.328125 34.859375 57.328125 23.390625 
Q 57.328125 12.15625 50.6875 5.359375 
Q 44.046875 -1.421875 33.015625 -1.421875 
Q 20.359375 -1.421875 13.671875 8.265625 
Q 6.984375 17.96875 6.984375 36.375 
Q 6.984375 53.65625 15.1875 63.9375 
Q 23.390625 74.21875 37.203125 74.21875 
Q 40.921875 74.21875 44.703125 73.484375 
Q 48.484375 72.75 52.59375 71.296875 
z
" id="DejaVuSans-54"/>
       </defs>
       <use xlink:href="#DejaVuSans-45"/>
       <use x="36.083984" xlink:href="#DejaVuSans-54"/>
      </g>
     </g>
    </g>
    <g id="ytick_10">
     <g id="line2d_22">
      <g>
       <use style="stroke:#000000;stroke-width:0.8;" x="1110.58" xlink:href="#ma273de6ea1" y="239.773664"/>
      </g>
     </g>
     <g id="text_14">
      <!-- -4 -->
      <g transform="translate(1117.58 243.572882)scale(0.1 -0.1)">
       <use xlink:href="#DejaVuSans-45"/>
       <use x="36.083984" xlink:href="#DejaVuSans-52"/>
      </g>
     </g>
    </g>
    <g id="ytick_11">
     <g id="line2d_23">
      <g>
       <use style="stroke:#000000;stroke-width:0.8;" x="1110.58" xlink:href="#ma273de6ea1" y="172.211834"/>
      </g>
     </g>
     <g id="text_15">
      <!-- -2 -->
      <g transform="translate(1117.58 176.011053)scale(0.1 -0.1)">
       <use xlink:href="#DejaVuSans-45"/>
       <use x="36.083984" xlink:href="#DejaVuSans-50"/>
      </g>
     </g>
    </g>
    <g id="ytick_12">
     <g id="line2d_24">
      <g>
       <use style="stroke:#000000;stroke-width:0.8;" x="1110.58" xlink:href="#ma273de6ea1" y="104.650005"/>
      </g>
     </g>
     <g id="text_16">
      <!-- 0 -->
      <g transform="translate(1117.58 108.449223)scale(0.1 -0.1)">
       <use xlink:href="#DejaVuSans-48"/>
      </g>
     </g>
    </g>
    <g id="ytick_13">
     <g id="line2d_25">
      <g>
       <use style="stroke:#000000;stroke-width:0.8;" x="1110.58" xlink:href="#ma273de6ea1" y="37.088175"/>
      </g>
     </g>
     <g id="text_17">
      <!-- 2 -->
      <g transform="translate(1117.58 40.887394)scale(0.1 -0.1)">
       <use xlink:href="#DejaVuSans-50"/>
      </g>
     </g>
    </g>
    <g id="text_18">
     <!-- IC cumsum -->
     <g transform="translate(1139.14875 253.3275)rotate(-90)scale(0.1 -0.1)">
      <defs>
       <path d="M 48.78125 52.59375 
L 48.78125 44.1875 
Q 44.96875 46.296875 41.140625 47.34375 
Q 37.3125 48.390625 33.40625 48.390625 
Q 24.65625 48.390625 19.8125 42.84375 
Q 14.984375 37.3125 14.984375 27.296875 
Q 14.984375 17.28125 19.8125 11.734375 
Q 24.65625 6.203125 33.40625 6.203125 
Q 37.3125 6.203125 41.140625 7.25 
Q 44.96875 8.296875 48.78125 10.40625 
L 48.78125 2.09375 
Q 45.015625 0.34375 40.984375 -0.53125 
Q 36.96875 -1.421875 32.421875 -1.421875 
Q 20.0625 -1.421875 12.78125 6.34375 
Q 5.515625 14.109375 5.515625 27.296875 
Q 5.515625 40.671875 12.859375 48.328125 
Q 20.21875 56 33.015625 56 
Q 37.15625 56 41.109375 55.140625 
Q 45.0625 54.296875 48.78125 52.59375 
z
" id="DejaVuSans-99"/>
       <path d="M 8.5 21.578125 
L 8.5 54.6875 
L 17.484375 54.6875 
L 17.484375 21.921875 
Q 17.484375 14.15625 20.5 10.265625 
Q 23.53125 6.390625 29.59375 6.390625 
Q 36.859375 6.390625 41.078125 11.03125 
Q 45.3125 15.671875 45.3125 23.6875 
L 45.3125 54.6875 
L 54.296875 54.6875 
L 54.296875 0 
L 45.3125 0 
L 45.3125 8.40625 
Q 42.046875 3.421875 37.71875 1 
Q 33.40625 -1.421875 27.6875 -1.421875 
Q 18.265625 -1.421875 13.375 4.4375 
Q 8.5 10.296875 8.5 21.578125 
z
M 31.109375 56 
z
" id="DejaVuSans-117"/>
       <path d="M 44.28125 53.078125 
L 44.28125 44.578125 
Q 40.484375 46.53125 36.375 47.5 
Q 32.28125 48.484375 27.875 48.484375 
Q 21.1875 48.484375 17.84375 46.4375 
Q 14.5 44.390625 14.5 40.28125 
Q 14.5 37.15625 16.890625 35.375 
Q 19.28125 33.59375 26.515625 31.984375 
L 29.59375 31.296875 
Q 39.15625 29.25 43.1875 25.515625 
Q 47.21875 21.78125 47.21875 15.09375 
Q 47.21875 7.46875 41.1875 3.015625 
Q 35.15625 -1.421875 24.609375 -1.421875 
Q 20.21875 -1.421875 15.453125 -0.5625 
Q 10.6875 0.296875 5.421875 2 
L 5.421875 11.28125 
Q 10.40625 8.6875 15.234375 7.390625 
Q 20.0625 6.109375 24.8125 6.109375 
Q 31.15625 6.109375 34.5625 8.28125 
Q 37.984375 10.453125 37.984375 14.40625 
Q 37.984375 18.0625 35.515625 20.015625 
Q 33.0625 21.96875 24.703125 23.78125 
L 21.578125 24.515625 
Q 13.234375 26.265625 9.515625 29.90625 
Q 5.8125 33.546875 5.8125 39.890625 
Q 5.8125 47.609375 11.28125 51.796875 
Q 16.75 56 26.8125 56 
Q 31.78125 56 36.171875 55.265625 
Q 40.578125 54.546875 44.28125 53.078125 
z
" id="DejaVuSans-115"/>
      </defs>
      <use xlink:href="#DejaVuSans-73"/>
      <use x="29.492188" xlink:href="#DejaVuSans-67"/>
      <use x="99.316406" xlink:href="#DejaVuSans-32"/>
      <use x="131.103516" xlink:href="#DejaVuSans-99"/>
      <use x="186.083984" xlink:href="#DejaVuSans-117"/>
      <use x="249.462891" xlink:href="#DejaVuSans-109"/>
      <use x="346.875" xlink:href="#DejaVuSans-115"/>
      <use x="398.974609" xlink:href="#DejaVuSans-117"/>
      <use x="462.353516" xlink:href="#DejaVuSans-109"/>
     </g>
    </g>
   </g>
   <g id="line2d_26">
    <path clip-path="url(#p8c81c0920a)" d="M 99.067273 98.712753 
L 102.608984 103.012142 
L 106.150695 94.208631 
L 109.692406 106.287867 
L 113.234118 110.587256 
L 123.859251 116.933974 
L 127.400963 126.14695 
L 130.942674 127.989546 
L 134.484385 111.406188 
L 138.026096 96.051226 
L 148.65123 118.367103 
L 152.192941 109.563592 
L 155.734652 120.004966 
L 159.276364 104.650005 
L 162.818075 96.255959 
L 173.443209 103.421608 
L 176.98492 107.311531 
L 180.526631 115.296111 
L 184.068342 99.94115 
L 187.610053 91.547104 
L 198.235187 95.027562 
L 201.776898 96.460692 
L 205.31861 91.751837 
L 208.860321 70.664357 
L 212.402032 74.963746 
L 223.027166 83.767257 
L 226.568877 105.264203 
L 230.110588 103.421608 
L 233.652299 96.255959 
L 237.194011 112.020386 
L 247.819144 94.208631 
L 251.360856 93.184967 
L 254.902567 74.963746 
L 258.444278 72.30222 
L 261.985989 73.325884 
L 272.611123 58.789854 
L 276.152834 56.128327 
L 279.694545 47.324816 
L 283.236257 47.939014 
L 286.777968 44.049091 
L 297.403102 53.671533 
L 300.944813 67.388632 
L 304.486524 75.782677 
L 308.028235 93.594433 
L 311.569947 98.712753 
L 322.19508 104.240539 
L 325.736791 99.122219 
L 329.278503 77.215807 
L 332.820214 73.325884 
L 336.361925 56.33306 
L 346.987059 60.222983 
L 350.52877 73.530616 
L 354.070481 74.144815 
L 357.612193 69.026495 
L 361.153904 47.529549 
L 371.779037 61.656113 
L 375.320749 62.270312 
L 378.86246 66.979166 
L 382.404171 85.609853 
L 385.945882 83.357792 
L 396.571016 79.877334 
L 400.112727 96.460692 
L 403.654439 104.445272 
L 407.19615 89.090311 
L 410.737861 94.208631 
L 421.362995 111.61092 
L 424.904706 112.225119 
L 428.446417 113.248783 
L 431.988128 110.996722 
L 435.52984 114.067714 
L 446.154973 123.690157 
L 449.696684 132.084202 
L 453.238396 133.517332 
L 456.780107 108.744661 
L 460.321818 99.122219 
L 470.946952 89.090311 
L 474.488663 92.161303 
L 478.030374 80.491532 
L 481.572086 62.679777 
L 485.113797 73.940082 
L 495.73893 72.506952 
L 499.280642 62.475044 
L 502.822353 55.309396 
L 506.364064 49.372144 
L 509.905775 63.498708 
L 520.530909 79.263135 
L 524.07262 72.916418 
L 527.614332 63.293976 
L 531.156043 74.963746 
L 534.697754 63.293976 
L 545.322888 69.231227 
L 548.864599 81.310464 
L 552.40631 89.704509 
L 555.948021 95.232295 
L 559.489733 98.712753 
L 570.114866 113.658249 
L 573.656578 111.406188 
L 577.198289 113.658249 
L 580.74 112.634584 
L 584.281711 118.981302 
L 594.906845 117.957638 
L 598.448556 128.808477 
L 601.990267 149.895957 
L 605.531979 158.290003 
L 609.07369 178.968017 
L 619.698824 181.629544 
L 623.240535 195.756108 
L 626.782246 198.417635 
L 630.323957 191.661452 
L 633.865668 195.960841 
L 644.490802 205.173818 
L 648.032513 211.930001 
L 651.574225 216.22939 
L 655.115936 208.654275 
L 658.657647 198.622367 
L 669.282781 194.732444 
L 672.824492 184.29107 
L 676.366203 168.117178 
L 683.449626 173.440231 
L 694.074759 180.60588 
L 697.616471 180.401147 
L 701.158182 199.031833 
L 704.699893 207.425879 
L 708.241604 217.867252 
L 718.866738 198.417635 
L 722.408449 194.527711 
L 725.95016 202.512291 
L 729.491872 212.134733 
L 733.033583 220.528779 
L 743.658717 229.741756 
L 747.200428 235.679007 
L 750.742139 217.048321 
L 754.28385 211.930001 
L 757.825561 214.591527 
L 768.450695 220.938244 
L 771.992406 218.276718 
L 775.534118 245.915648 
L 782.61754 288.500074 
L 793.242674 300.57931 
L 796.784385 314.296409 
L 800.326096 324.737782 
L 803.867807 331.903431 
L 807.409519 337.840683 
L 821.576364 338.659614 
L 825.118075 335.179156 
L 828.659786 346.848927 
L 832.201497 360.975491 
L 842.826631 361.999155 
L 846.368342 347.872591 
L 849.910053 346.848927 
L 853.451765 347.872591 
L 856.993476 345.211064 
L 867.61861 347.053659 
L 871.160321 341.525873 
L 874.702032 345.825263 
L 878.243743 353.809842 
L 881.785455 354.424041 
L 892.410588 375.102055 
L 895.952299 397.827398 
L 899.494011 389.842818 
L 903.035722 384.315032 
L 906.577433 388.614421 
L 917.202567 386.36236 
L 920.744278 375.102055 
L 924.285989 367.526941 
L 927.827701 375.102055 
L 931.369412 378.173048 
L 941.994545 384.519765 
L 945.536257 388.819154 
L 949.077968 406.630909 
L 952.619679 385.952895 
L 956.16139 375.102055 
L 966.786524 365.479613 
L 970.328235 364.455949 
L 973.869947 360.975491 
L 977.411658 352.990911 
L 980.953369 345.825263 
L 991.578503 354.628774 
L 995.120214 349.919919 
L 998.661925 361.999155 
L 1002.203636 369.983735 
L 1005.745348 376.330452 
L 1016.370481 369.164804 
L 1019.912193 360.770758 
L 1023.453904 364.251216 
L 1026.995615 348.896255 
L 1030.537326 353.195644 
L 1041.16246 353.809842 
L 1044.704171 356.880835 
L 1048.245882 352.990911 
L 1051.787594 362.613354 
L 1055.329305 351.353049 
L 1055.329305 351.353049 
" style="fill:none;stroke:#ff0000;stroke-linecap:square;stroke-width:1.5;"/>
   </g>
   <g id="patch_49">
    <path d="M 50.9 424.76 
L 50.9 25.92 
" style="fill:none;stroke:#000000;stroke-linecap:square;stroke-linejoin:miter;stroke-width:0.8;"/>
   </g>
   <g id="patch_50">
    <path d="M 1110.58 424.76 
L 1110.58 25.92 
" style="fill:none;stroke:#000000;stroke-linecap:square;stroke-linejoin:miter;stroke-width:0.8;"/>
   </g>
   <g id="patch_51">
    <path d="M 50.9 424.76 
L 1110.58 424.76 
" style="fill:none;stroke:#000000;stroke-linecap:square;stroke-linejoin:miter;stroke-width:0.8;"/>
   </g>
   <g id="patch_52">
    <path d="M 50.9 25.92 
L 1110.58 25.92 
" style="fill:none;stroke:#000000;stroke-linecap:square;stroke-linejoin:miter;stroke-width:0.8;"/>
   </g>
   <g id="legend_2">
    <g id="patch_53">
     <path d="M 963.495625 48.598125 
L 1103.58 48.598125 
Q 1105.58 48.598125 1105.58 46.598125 
L 1105.58 32.92 
Q 1105.58 30.92 1103.58 30.92 
L 963.495625 30.92 
Q 961.495625 30.92 961.495625 32.92 
L 961.495625 46.598125 
Q 961.495625 48.598125 963.495625 48.598125 
z
" style="fill:#ffffff;opacity:0.8;stroke:#cccccc;stroke-linejoin:miter;"/>
    </g>
    <g id="line2d_27">
     <path d="M 965.495625 39.018438 
L 985.495625 39.018438 
" style="fill:none;stroke:#ff0000;stroke-linecap:square;stroke-width:1.5;"/>
    </g>
    <g id="line2d_28"/>
    <g id="text_19">
     <!-- daily RankIC cumsum -->
     <g transform="translate(993.495625 42.518438)scale(0.1 -0.1)">
      <defs>
       <path d="M 45.40625 46.390625 
L 45.40625 75.984375 
L 54.390625 75.984375 
L 54.390625 0 
L 45.40625 0 
L 45.40625 8.203125 
Q 42.578125 3.328125 38.25 0.953125 
Q 33.9375 -1.421875 27.875 -1.421875 
Q 17.96875 -1.421875 11.734375 6.484375 
Q 5.515625 14.40625 5.515625 27.296875 
Q 5.515625 40.1875 11.734375 48.09375 
Q 17.96875 56 27.875 56 
Q 33.9375 56 38.25 53.625 
Q 42.578125 51.265625 45.40625 46.390625 
z
M 14.796875 27.296875 
Q 14.796875 17.390625 18.875 11.75 
Q 22.953125 6.109375 30.078125 6.109375 
Q 37.203125 6.109375 41.296875 11.75 
Q 45.40625 17.390625 45.40625 27.296875 
Q 45.40625 37.203125 41.296875 42.84375 
Q 37.203125 48.484375 30.078125 48.484375 
Q 22.953125 48.484375 18.875 42.84375 
Q 14.796875 37.203125 14.796875 27.296875 
z
" id="DejaVuSans-100"/>
       <path d="M 9.421875 54.6875 
L 18.40625 54.6875 
L 18.40625 0 
L 9.421875 0 
z
M 9.421875 75.984375 
L 18.40625 75.984375 
L 18.40625 64.59375 
L 9.421875 64.59375 
z
" id="DejaVuSans-105"/>
      </defs>
      <use xlink:href="#DejaVuSans-100"/>
      <use x="63.476562" xlink:href="#DejaVuSans-97"/>
      <use x="124.755859" xlink:href="#DejaVuSans-105"/>
      <use x="152.539062" xlink:href="#DejaVuSans-108"/>
      <use x="180.322266" xlink:href="#DejaVuSans-121"/>
      <use x="239.501953" xlink:href="#DejaVuSans-32"/>
      <use x="271.289062" xlink:href="#DejaVuSans-82"/>
      <use x="338.521484" xlink:href="#DejaVuSans-97"/>
      <use x="399.800781" xlink:href="#DejaVuSans-110"/>
      <use x="463.179688" xlink:href="#DejaVuSans-107"/>
      <use x="521.089844" xlink:href="#DejaVuSans-73"/>
      <use x="550.582031" xlink:href="#DejaVuSans-67"/>
      <use x="620.40625" xlink:href="#DejaVuSans-32"/>
      <use x="652.193359" xlink:href="#DejaVuSans-99"/>
      <use x="707.173828" xlink:href="#DejaVuSans-117"/>
      <use x="770.552734" xlink:href="#DejaVuSans-109"/>
      <use x="867.964844" xlink:href="#DejaVuSans-115"/>
      <use x="920.064453" xlink:href="#DejaVuSans-117"/>
      <use x="983.443359" xlink:href="#DejaVuSans-109"/>
     </g>
    </g>
   </g>
  </g>
  <g id="axes_3">
   <g id="matplotlib.axis_4">
    <g id="ytick_14">
     <g id="line2d_29">
      <g>
       <use style="stroke:#000000;stroke-width:0.8;" x="1110.58" xlink:href="#ma273de6ea1" y="424.76"/>
      </g>
     </g>
    </g>
    <g id="ytick_15">
     <g id="line2d_30">
      <g>
       <use style="stroke:#000000;stroke-width:0.8;" x="1110.58" xlink:href="#ma273de6ea1" y="344.992"/>
      </g>
     </g>
    </g>
    <g id="ytick_16">
     <g id="line2d_31">
      <g>
       <use style="stroke:#000000;stroke-width:0.8;" x="1110.58" xlink:href="#ma273de6ea1" y="265.224"/>
      </g>
     </g>
    </g>
    <g id="ytick_17">
     <g id="line2d_32">
      <g>
       <use style="stroke:#000000;stroke-width:0.8;" x="1110.58" xlink:href="#ma273de6ea1" y="185.456"/>
      </g>
     </g>
    </g>
    <g id="ytick_18">
     <g id="line2d_33">
      <g>
       <use style="stroke:#000000;stroke-width:0.8;" x="1110.58" xlink:href="#ma273de6ea1" y="105.688"/>
      </g>
     </g>
    </g>
    <g id="ytick_19">
     <g id="line2d_34">
      <g>
       <use style="stroke:#000000;stroke-width:0.8;" x="1110.58" xlink:href="#ma273de6ea1" y="25.92"/>
      </g>
     </g>
    </g>
   </g>
   <g id="patch_54">
    <path d="M 50.9 424.76 
L 50.9 25.92 
" style="fill:none;stroke:#000000;stroke-linecap:square;stroke-linejoin:miter;stroke-width:0.8;"/>
   </g>
   <g id="patch_55">
    <path d="M 1110.58 424.76 
L 1110.58 25.92 
" style="fill:none;stroke:#000000;stroke-linecap:square;stroke-linejoin:miter;stroke-width:0.8;"/>
   </g>
   <g id="patch_56">
    <path d="M 50.9 424.76 
L 1110.58 424.76 
" style="fill:none;stroke:#000000;stroke-linecap:square;stroke-linejoin:miter;stroke-width:0.8;"/>
   </g>
   <g id="patch_57">
    <path d="M 50.9 25.92 
L 1110.58 25.92 
" style="fill:none;stroke:#000000;stroke-linecap:square;stroke-linejoin:miter;stroke-width:0.8;"/>
   </g>
   <g id="text_20">
    <!-- RankIC: (2010-01-04 ~ 2010-10-08) -->
    <g transform="translate(472.602187 19.92)scale(0.12 -0.12)">
     <defs>
      <path d="M 11.71875 12.40625 
L 22.015625 12.40625 
L 22.015625 0 
L 11.71875 0 
z
M 11.71875 51.703125 
L 22.015625 51.703125 
L 22.015625 39.3125 
L 11.71875 39.3125 
z
" id="DejaVuSans-58"/>
      <path d="M 31 75.875 
Q 24.46875 64.65625 21.28125 53.65625 
Q 18.109375 42.671875 18.109375 31.390625 
Q 18.109375 20.125 21.3125 9.0625 
Q 24.515625 -2 31 -13.1875 
L 23.1875 -13.1875 
Q 15.875 -1.703125 12.234375 9.375 
Q 8.59375 20.453125 8.59375 31.390625 
Q 8.59375 42.28125 12.203125 53.3125 
Q 15.828125 64.359375 23.1875 75.875 
z
" id="DejaVuSans-40"/>
      <path d="M 73.1875 39.890625 
L 73.1875 31.203125 
Q 68.0625 27.34375 63.6875 25.6875 
Q 59.328125 24.03125 54.59375 24.03125 
Q 49.21875 24.03125 42.09375 26.90625 
Q 41.546875 27.09375 41.3125 27.203125 
Q 40.96875 27.34375 40.234375 27.59375 
Q 32.671875 30.609375 28.078125 30.609375 
Q 23.78125 30.609375 19.578125 28.734375 
Q 15.375 26.859375 10.59375 22.796875 
L 10.59375 31.5 
Q 15.71875 35.359375 20.09375 37.03125 
Q 24.46875 38.71875 29.203125 38.71875 
Q 34.578125 38.71875 41.75 35.796875 
Q 42.234375 35.59375 42.484375 35.5 
Q 42.875 35.359375 43.5625 35.109375 
Q 51.125 32.078125 55.71875 32.078125 
Q 59.90625 32.078125 64.03125 33.9375 
Q 68.171875 35.796875 73.1875 39.890625 
z
" id="DejaVuSans-126"/>
      <path d="M 8.015625 75.875 
L 15.828125 75.875 
Q 23.140625 64.359375 26.78125 53.3125 
Q 30.421875 42.28125 30.421875 31.390625 
Q 30.421875 20.453125 26.78125 9.375 
Q 23.140625 -1.703125 15.828125 -13.1875 
L 8.015625 -13.1875 
Q 14.5 -2 17.703125 9.0625 
Q 20.90625 20.125 20.90625 31.390625 
Q 20.90625 42.671875 17.703125 53.65625 
Q 14.5 64.65625 8.015625 75.875 
z
" id="DejaVuSans-41"/>
     </defs>
     <use xlink:href="#DejaVuSans-82"/>
     <use x="67.232422" xlink:href="#DejaVuSans-97"/>
     <use x="128.511719" xlink:href="#DejaVuSans-110"/>
     <use x="191.890625" xlink:href="#DejaVuSans-107"/>
     <use x="249.800781" xlink:href="#DejaVuSans-73"/>
     <use x="279.292969" xlink:href="#DejaVuSans-67"/>
     <use x="349.117188" xlink:href="#DejaVuSans-58"/>
     <use x="382.808594" xlink:href="#DejaVuSans-32"/>
     <use x="414.595703" xlink:href="#DejaVuSans-40"/>
     <use x="453.609375" xlink:href="#DejaVuSans-50"/>
     <use x="517.232422" xlink:href="#DejaVuSans-48"/>
     <use x="580.855469" xlink:href="#DejaVuSans-49"/>
     <use x="644.478516" xlink:href="#DejaVuSans-48"/>
     <use x="708.101562" xlink:href="#DejaVuSans-45"/>
     <use x="744.185547" xlink:href="#DejaVuSans-48"/>
     <use x="807.808594" xlink:href="#DejaVuSans-49"/>
     <use x="871.431641" xlink:href="#DejaVuSans-45"/>
     <use x="907.515625" xlink:href="#DejaVuSans-48"/>
     <use x="971.138672" xlink:href="#DejaVuSans-52"/>
     <use x="1034.761719" xlink:href="#DejaVuSans-32"/>
     <use x="1066.548828" xlink:href="#DejaVuSans-126"/>
     <use x="1150.337891" xlink:href="#DejaVuSans-32"/>
     <use x="1182.125" xlink:href="#DejaVuSans-50"/>
     <use x="1245.748047" xlink:href="#DejaVuSans-48"/>
     <use x="1309.371094" xlink:href="#DejaVuSans-49"/>
     <use x="1372.994141" xlink:href="#DejaVuSans-48"/>
     <use x="1436.617188" xlink:href="#DejaVuSans-45"/>
     <use x="1472.701172" xlink:href="#DejaVuSans-49"/>
     <use x="1536.324219" xlink:href="#DejaVuSans-48"/>
     <use x="1599.947266" xlink:href="#DejaVuSans-45"/>
     <use x="1636.03125" xlink:href="#DejaVuSans-48"/>
     <use x="1699.654297" xlink:href="#DejaVuSans-56"/>
     <use x="1763.277344" xlink:href="#DejaVuSans-41"/>
    </g>
   </g>
   <g id="legend_3">
    <g id="patch_58">
     <path d="M 494.493125 92.6325 
L 666.986875 92.6325 
Q 668.986875 92.6325 668.986875 90.6325 
L 668.986875 32.92 
Q 668.986875 30.92 666.986875 30.92 
L 494.493125 30.92 
Q 492.493125 30.92 492.493125 32.92 
L 492.493125 90.6325 
Q 492.493125 92.6325 494.493125 92.6325 
z
" style="fill:#ffffff;opacity:0.8;stroke:#cccccc;stroke-linejoin:miter;"/>
    </g>
    <g id="line2d_35"/>
    <g id="line2d_36"/>
    <g id="text_21">
     <!-- RankIC mean:  -0.0375         -->
     <g transform="translate(524.493125 42.518438)scale(0.1 -0.1)">
      <defs>
       <path d="M 8.203125 72.90625 
L 55.078125 72.90625 
L 55.078125 68.703125 
L 28.609375 0 
L 18.3125 0 
L 43.21875 64.59375 
L 8.203125 64.59375 
z
" id="DejaVuSans-55"/>
       <path d="M 10.796875 72.90625 
L 49.515625 72.90625 
L 49.515625 64.59375 
L 19.828125 64.59375 
L 19.828125 46.734375 
Q 21.96875 47.46875 24.109375 47.828125 
Q 26.265625 48.1875 28.421875 48.1875 
Q 40.625 48.1875 47.75 41.5 
Q 54.890625 34.8125 54.890625 23.390625 
Q 54.890625 11.625 47.5625 5.09375 
Q 40.234375 -1.421875 26.90625 -1.421875 
Q 22.3125 -1.421875 17.546875 -0.640625 
Q 12.796875 0.140625 7.71875 1.703125 
L 7.71875 11.625 
Q 12.109375 9.234375 16.796875 8.0625 
Q 21.484375 6.890625 26.703125 6.890625 
Q 35.15625 6.890625 40.078125 11.328125 
Q 45.015625 15.765625 45.015625 23.390625 
Q 45.015625 31 40.078125 35.4375 
Q 35.15625 39.890625 26.703125 39.890625 
Q 22.75 39.890625 18.8125 39.015625 
Q 14.890625 38.140625 10.796875 36.28125 
z
" id="DejaVuSans-53"/>
      </defs>
      <use xlink:href="#DejaVuSans-82"/>
      <use x="67.232422" xlink:href="#DejaVuSans-97"/>
      <use x="128.511719" xlink:href="#DejaVuSans-110"/>
      <use x="191.890625" xlink:href="#DejaVuSans-107"/>
      <use x="249.800781" xlink:href="#DejaVuSans-73"/>
      <use x="279.292969" xlink:href="#DejaVuSans-67"/>
      <use x="349.117188" xlink:href="#DejaVuSans-32"/>
      <use x="380.904297" xlink:href="#DejaVuSans-109"/>
      <use x="478.316406" xlink:href="#DejaVuSans-101"/>
      <use x="539.839844" xlink:href="#DejaVuSans-97"/>
      <use x="601.119141" xlink:href="#DejaVuSans-110"/>
      <use x="664.498047" xlink:href="#DejaVuSans-58"/>
      <use x="698.189453" xlink:href="#DejaVuSans-32"/>
      <use x="729.976562" xlink:href="#DejaVuSans-32"/>
      <use x="761.763672" xlink:href="#DejaVuSans-45"/>
      <use x="797.847656" xlink:href="#DejaVuSans-48"/>
      <use x="861.470703" xlink:href="#DejaVuSans-46"/>
      <use x="893.257812" xlink:href="#DejaVuSans-48"/>
      <use x="956.880859" xlink:href="#DejaVuSans-51"/>
      <use x="1020.503906" xlink:href="#DejaVuSans-55"/>
      <use x="1084.126953" xlink:href="#DejaVuSans-53"/>
      <use x="1147.75" xlink:href="#DejaVuSans-32"/>
      <use x="1179.537109" xlink:href="#DejaVuSans-32"/>
      <use x="1211.324219" xlink:href="#DejaVuSans-32"/>
      <use x="1243.111328" xlink:href="#DejaVuSans-32"/>
      <use x="1274.898438" xlink:href="#DejaVuSans-32"/>
      <use x="1306.685547" xlink:href="#DejaVuSans-32"/>
      <use x="1338.472656" xlink:href="#DejaVuSans-32"/>
      <use x="1370.259766" xlink:href="#DejaVuSans-32"/>
     </g>
    </g>
    <g id="line2d_37"/>
    <g id="line2d_38"/>
    <g id="text_22">
     <!-- RankIC std:       0.3106         -->
     <g transform="translate(524.493125 57.196563)scale(0.1 -0.1)">
      <defs>
       <path d="M 18.3125 70.21875 
L 18.3125 54.6875 
L 36.8125 54.6875 
L 36.8125 47.703125 
L 18.3125 47.703125 
L 18.3125 18.015625 
Q 18.3125 11.328125 20.140625 9.421875 
Q 21.96875 7.515625 27.59375 7.515625 
L 36.8125 7.515625 
L 36.8125 0 
L 27.59375 0 
Q 17.1875 0 13.234375 3.875 
Q 9.28125 7.765625 9.28125 18.015625 
L 9.28125 47.703125 
L 2.6875 47.703125 
L 2.6875 54.6875 
L 9.28125 54.6875 
L 9.28125 70.21875 
z
" id="DejaVuSans-116"/>
      </defs>
      <use xlink:href="#DejaVuSans-82"/>
      <use x="67.232422" xlink:href="#DejaVuSans-97"/>
      <use x="128.511719" xlink:href="#DejaVuSans-110"/>
      <use x="191.890625" xlink:href="#DejaVuSans-107"/>
      <use x="249.800781" xlink:href="#DejaVuSans-73"/>
      <use x="279.292969" xlink:href="#DejaVuSans-67"/>
      <use x="349.117188" xlink:href="#DejaVuSans-32"/>
      <use x="380.904297" xlink:href="#DejaVuSans-115"/>
      <use x="433.003906" xlink:href="#DejaVuSans-116"/>
      <use x="472.212891" xlink:href="#DejaVuSans-100"/>
      <use x="535.689453" xlink:href="#DejaVuSans-58"/>
      <use x="569.380859" xlink:href="#DejaVuSans-32"/>
      <use x="601.167969" xlink:href="#DejaVuSans-32"/>
      <use x="632.955078" xlink:href="#DejaVuSans-32"/>
      <use x="664.742188" xlink:href="#DejaVuSans-32"/>
      <use x="696.529297" xlink:href="#DejaVuSans-32"/>
      <use x="728.316406" xlink:href="#DejaVuSans-32"/>
      <use x="760.103516" xlink:href="#DejaVuSans-32"/>
      <use x="791.890625" xlink:href="#DejaVuSans-48"/>
      <use x="855.513672" xlink:href="#DejaVuSans-46"/>
      <use x="887.300781" xlink:href="#DejaVuSans-51"/>
      <use x="950.923828" xlink:href="#DejaVuSans-49"/>
      <use x="1014.546875" xlink:href="#DejaVuSans-48"/>
      <use x="1078.169922" xlink:href="#DejaVuSans-54"/>
      <use x="1141.792969" xlink:href="#DejaVuSans-32"/>
      <use x="1173.580078" xlink:href="#DejaVuSans-32"/>
      <use x="1205.367188" xlink:href="#DejaVuSans-32"/>
      <use x="1237.154297" xlink:href="#DejaVuSans-32"/>
      <use x="1268.941406" xlink:href="#DejaVuSans-32"/>
      <use x="1300.728516" xlink:href="#DejaVuSans-32"/>
      <use x="1332.515625" xlink:href="#DejaVuSans-32"/>
      <use x="1364.302734" xlink:href="#DejaVuSans-32"/>
     </g>
    </g>
    <g id="line2d_39"/>
    <g id="line2d_40"/>
    <g id="text_23">
     <!-- RankIC IR:        -0.1206         -->
     <g transform="translate(524.493125 71.874688)scale(0.1 -0.1)">
      <use xlink:href="#DejaVuSans-82"/>
      <use x="67.232422" xlink:href="#DejaVuSans-97"/>
      <use x="128.511719" xlink:href="#DejaVuSans-110"/>
      <use x="191.890625" xlink:href="#DejaVuSans-107"/>
      <use x="249.800781" xlink:href="#DejaVuSans-73"/>
      <use x="279.292969" xlink:href="#DejaVuSans-67"/>
      <use x="349.117188" xlink:href="#DejaVuSans-32"/>
      <use x="380.904297" xlink:href="#DejaVuSans-73"/>
      <use x="410.396484" xlink:href="#DejaVuSans-82"/>
      <use x="476.753906" xlink:href="#DejaVuSans-58"/>
      <use x="510.445312" xlink:href="#DejaVuSans-32"/>
      <use x="542.232422" xlink:href="#DejaVuSans-32"/>
      <use x="574.019531" xlink:href="#DejaVuSans-32"/>
      <use x="605.806641" xlink:href="#DejaVuSans-32"/>
      <use x="637.59375" xlink:href="#DejaVuSans-32"/>
      <use x="669.380859" xlink:href="#DejaVuSans-32"/>
      <use x="701.167969" xlink:href="#DejaVuSans-32"/>
      <use x="732.955078" xlink:href="#DejaVuSans-32"/>
      <use x="764.742188" xlink:href="#DejaVuSans-45"/>
      <use x="800.826172" xlink:href="#DejaVuSans-48"/>
      <use x="864.449219" xlink:href="#DejaVuSans-46"/>
      <use x="896.236328" xlink:href="#DejaVuSans-49"/>
      <use x="959.859375" xlink:href="#DejaVuSans-50"/>
      <use x="1023.482422" xlink:href="#DejaVuSans-48"/>
      <use x="1087.105469" xlink:href="#DejaVuSans-54"/>
      <use x="1150.728516" xlink:href="#DejaVuSans-32"/>
      <use x="1182.515625" xlink:href="#DejaVuSans-32"/>
      <use x="1214.302734" xlink:href="#DejaVuSans-32"/>
      <use x="1246.089844" xlink:href="#DejaVuSans-32"/>
      <use x="1277.876953" xlink:href="#DejaVuSans-32"/>
      <use x="1309.664062" xlink:href="#DejaVuSans-32"/>
      <use x="1341.451172" xlink:href="#DejaVuSans-32"/>
      <use x="1373.238281" xlink:href="#DejaVuSans-32"/>
     </g>
    </g>
    <g id="line2d_41"/>
    <g id="line2d_42"/>
    <g id="text_24">
     <!-- RankIC (-)rate:  0.5700 -->
     <g transform="translate(524.493125 86.552813)scale(0.1 -0.1)">
      <defs>
       <path d="M 41.109375 46.296875 
Q 39.59375 47.171875 37.8125 47.578125 
Q 36.03125 48 33.890625 48 
Q 26.265625 48 22.1875 43.046875 
Q 18.109375 38.09375 18.109375 28.8125 
L 18.109375 0 
L 9.078125 0 
L 9.078125 54.6875 
L 18.109375 54.6875 
L 18.109375 46.1875 
Q 20.953125 51.171875 25.484375 53.578125 
Q 30.03125 56 36.53125 56 
Q 37.453125 56 38.578125 55.875 
Q 39.703125 55.765625 41.0625 55.515625 
z
" id="DejaVuSans-114"/>
      </defs>
      <use xlink:href="#DejaVuSans-82"/>
      <use x="67.232422" xlink:href="#DejaVuSans-97"/>
      <use x="128.511719" xlink:href="#DejaVuSans-110"/>
      <use x="191.890625" xlink:href="#DejaVuSans-107"/>
      <use x="249.800781" xlink:href="#DejaVuSans-73"/>
      <use x="279.292969" xlink:href="#DejaVuSans-67"/>
      <use x="349.117188" xlink:href="#DejaVuSans-32"/>
      <use x="380.904297" xlink:href="#DejaVuSans-40"/>
      <use x="419.917969" xlink:href="#DejaVuSans-45"/>
      <use x="456.001953" xlink:href="#DejaVuSans-41"/>
      <use x="495.015625" xlink:href="#DejaVuSans-114"/>
      <use x="536.128906" xlink:href="#DejaVuSans-97"/>
      <use x="597.408203" xlink:href="#DejaVuSans-116"/>
      <use x="636.617188" xlink:href="#DejaVuSans-101"/>
      <use x="698.140625" xlink:href="#DejaVuSans-58"/>
      <use x="731.832031" xlink:href="#DejaVuSans-32"/>
      <use x="763.619141" xlink:href="#DejaVuSans-32"/>
      <use x="795.40625" xlink:href="#DejaVuSans-48"/>
      <use x="859.029297" xlink:href="#DejaVuSans-46"/>
      <use x="890.816406" xlink:href="#DejaVuSans-53"/>
      <use x="954.439453" xlink:href="#DejaVuSans-55"/>
      <use x="1018.0625" xlink:href="#DejaVuSans-48"/>
      <use x="1081.685547" xlink:href="#DejaVuSans-48"/>
     </g>
    </g>
   </g>
  </g>
 </g>
 <defs>
  <clipPath id="p8c81c0920a">
   <rect height="398.84" width="1059.68" x="50.9" y="25.92"/>
  </clipPath>
 </defs>
</svg>
