<?xml version="1.0" encoding="utf-8" standalone="no"?>
<!DOCTYPE svg PUBLIC "-//W3C//DTD SVG 1.1//EN"
  "http://www.w3.org/Graphics/SVG/1.1/DTD/svg11.dtd">
<!-- Created with matplotlib (https://matplotlib.org/) -->
<svg height="468pt" version="1.1" viewBox="0 0 1152 468" width="1152pt" xmlns="http://www.w3.org/2000/svg" xmlns:xlink="http://www.w3.org/1999/xlink">
 <metadata>
  <rdf:RDF xmlns:cc="http://creativecommons.org/ns#" xmlns:dc="http://purl.org/dc/elements/1.1/" xmlns:rdf="http://www.w3.org/1999/02/22-rdf-syntax-ns#">
   <cc:Work>
    <dc:type rdf:resource="http://purl.org/dc/dcmitype/StillImage"/>
    <dc:date>2023-10-11T16:58:51.565867</dc:date>
    <dc:format>image/svg+xml</dc:format>
    <dc:creator>
     <cc:Agent>
      <dc:title>Matplotlib v3.3.4, https://matplotlib.org/</dc:title>
     </cc:Agent>
    </dc:creator>
   </cc:Work>
  </rdf:RDF>
 </metadata>
 <defs>
  <style type="text/css">*{stroke-linecap:butt;stroke-linejoin:round;}</style>
 </defs>
 <g id="figure_1">
  <g id="patch_1">
   <path d="M 0 468 
L 1152 468 
L 1152 0 
L 0 0 
z
" style="fill:#ffffff;"/>
  </g>
  <g id="axes_1">
   <g id="patch_2">
    <path d="M 50.96 424.76 
L 1104.28 424.76 
L 1104.28 25.92 
L 50.96 25.92 
z
" style="fill:#ffffff;"/>
   </g>
   <g id="patch_3">
    <path clip-path="url(#pb443699802)" d="M 121.728149 196.260756 
L 102.653176 196.260756 
L 102.653176 195.806393 
L 121.728149 195.806393 
z
" style="fill:#1f77b4;"/>
   </g>
   <g id="patch_4">
    <path clip-path="url(#pb443699802)" d="M 148.433111 196.260756 
L 129.358138 196.260756 
L 129.358138 183.992951 
L 148.433111 183.992951 
z
" style="fill:#1f77b4;"/>
   </g>
   <g id="patch_5">
    <path clip-path="url(#pb443699802)" d="M 175.138073 196.260756 
L 156.0631 196.260756 
L 156.0631 266.687049 
L 175.138073 266.687049 
z
" style="fill:#1f77b4;"/>
   </g>
   <g id="patch_6">
    <path clip-path="url(#pb443699802)" d="M 201.843035 196.260756 
L 182.768062 196.260756 
L 182.768062 44.049091 
L 201.843035 44.049091 
z
" style="fill:#1f77b4;"/>
   </g>
   <g id="patch_7">
    <path clip-path="url(#pb443699802)" d="M 228.547997 196.260756 
L 209.473024 196.260756 
L 209.473024 181.266771 
L 228.547997 181.266771 
z
" style="fill:#1f77b4;"/>
   </g>
   <g id="patch_8">
    <path clip-path="url(#pb443699802)" d="M 255.252959 196.260756 
L 236.177986 196.260756 
L 236.177986 208.528562 
L 255.252959 208.528562 
z
" style="fill:#1f77b4;"/>
   </g>
   <g id="patch_9">
    <path clip-path="url(#pb443699802)" d="M 281.957921 196.260756 
L 262.882948 196.260756 
L 262.882948 115.838473 
L 281.957921 115.838473 
z
" style="fill:#1f77b4;"/>
   </g>
   <g id="patch_10">
    <path clip-path="url(#pb443699802)" d="M 308.662883 196.260756 
L 289.58791 196.260756 
L 289.58791 155.822433 
L 308.662883 155.822433 
z
" style="fill:#1f77b4;"/>
   </g>
   <g id="patch_11">
    <path clip-path="url(#pb443699802)" d="M 335.367845 196.260756 
L 316.292872 196.260756 
L 316.292872 237.607806 
L 335.367845 237.607806 
z
" style="fill:#1f77b4;"/>
   </g>
   <g id="patch_12">
    <path clip-path="url(#pb443699802)" d="M 362.072807 196.260756 
L 342.997834 196.260756 
L 342.997834 197.623846 
L 362.072807 197.623846 
z
" style="fill:#1f77b4;"/>
   </g>
   <g id="patch_13">
    <path clip-path="url(#pb443699802)" d="M 388.777769 196.260756 
L 369.702796 196.260756 
L 369.702796 227.611816 
L 388.777769 227.611816 
z
" style="fill:#1f77b4;"/>
   </g>
   <g id="patch_14">
    <path clip-path="url(#pb443699802)" d="M 415.482731 196.260756 
L 396.407758 196.260756 
L 396.407758 254.873607 
L 415.482731 254.873607 
z
" style="fill:#1f77b4;"/>
   </g>
   <g id="patch_15">
    <path clip-path="url(#pb443699802)" d="M 442.187693 196.260756 
L 423.11272 196.260756 
L 423.11272 245.786343 
L 442.187693 245.786343 
z
" style="fill:#1f77b4;"/>
   </g>
   <g id="patch_16">
    <path clip-path="url(#pb443699802)" d="M 468.892655 196.260756 
L 449.817682 196.260756 
L 449.817682 276.683039 
L 468.892655 276.683039 
z
" style="fill:#1f77b4;"/>
   </g>
   <g id="patch_17">
    <path clip-path="url(#pb443699802)" d="M 495.597617 196.260756 
L 476.522644 196.260756 
L 476.522644 236.69908 
L 495.597617 236.69908 
z
" style="fill:#1f77b4;"/>
   </g>
   <g id="patch_18">
    <path clip-path="url(#pb443699802)" d="M 522.302579 196.260756 
L 503.227606 196.260756 
L 503.227606 200.350025 
L 522.302579 200.350025 
z
" style="fill:#1f77b4;"/>
   </g>
   <g id="patch_19">
    <path clip-path="url(#pb443699802)" d="M 549.007541 196.260756 
L 529.932568 196.260756 
L 529.932568 176.72314 
L 549.007541 176.72314 
z
" style="fill:#1f77b4;"/>
   </g>
   <g id="patch_20">
    <path clip-path="url(#pb443699802)" d="M 575.712503 196.260756 
L 556.63753 196.260756 
L 556.63753 335.750253 
L 575.712503 335.750253 
z
" style="fill:#1f77b4;"/>
   </g>
   <g id="patch_21">
    <path clip-path="url(#pb443699802)" d="M 602.417465 196.260756 
L 583.342492 196.260756 
L 583.342492 316.666999 
L 602.417465 316.666999 
z
" style="fill:#1f77b4;"/>
   </g>
   <g id="patch_22">
    <path clip-path="url(#pb443699802)" d="M 629.122427 196.260756 
L 610.047454 196.260756 
L 610.047454 290.313935 
L 629.122427 290.313935 
z
" style="fill:#1f77b4;"/>
   </g>
   <g id="patch_23">
    <path clip-path="url(#pb443699802)" d="M 655.827389 196.260756 
L 636.752416 196.260756 
L 636.752416 315.758273 
L 655.827389 315.758273 
z
" style="fill:#1f77b4;"/>
   </g>
   <g id="patch_24">
    <path clip-path="url(#pb443699802)" d="M 682.532351 196.260756 
L 663.457378 196.260756 
L 663.457378 237.607806 
L 682.532351 237.607806 
z
" style="fill:#1f77b4;"/>
   </g>
   <g id="patch_25">
    <path clip-path="url(#pb443699802)" d="M 709.237313 196.260756 
L 690.16234 196.260756 
L 690.16234 311.214641 
L 709.237313 311.214641 
z
" style="fill:#1f77b4;"/>
   </g>
   <g id="patch_26">
    <path clip-path="url(#pb443699802)" d="M 735.942275 196.260756 
L 716.867302 196.260756 
L 716.867302 255.782333 
L 735.942275 255.782333 
z
" style="fill:#1f77b4;"/>
   </g>
   <g id="patch_27">
    <path clip-path="url(#pb443699802)" d="M 762.647237 196.260756 
L 743.572264 196.260756 
L 743.572264 292.131388 
L 762.647237 292.131388 
z
" style="fill:#1f77b4;"/>
   </g>
   <g id="patch_28">
    <path clip-path="url(#pb443699802)" d="M 789.352198 196.260756 
L 770.277226 196.260756 
L 770.277226 315.758273 
L 789.352198 315.758273 
z
" style="fill:#1f77b4;"/>
   </g>
   <g id="patch_29">
    <path clip-path="url(#pb443699802)" d="M 816.05716 196.260756 
L 796.982188 196.260756 
L 796.982188 406.630909 
L 816.05716 406.630909 
z
" style="fill:#1f77b4;"/>
   </g>
   <g id="patch_30">
    <path clip-path="url(#pb443699802)" d="M 842.762122 196.260756 
L 823.68715 196.260756 
L 823.68715 403.90473 
L 842.762122 403.90473 
z
" style="fill:#1f77b4;"/>
   </g>
   <g id="patch_31">
    <path clip-path="url(#pb443699802)" d="M 869.467084 196.260756 
L 850.392112 196.260756 
L 850.392112 303.94483 
L 869.467084 303.94483 
z
" style="fill:#1f77b4;"/>
   </g>
   <g id="patch_32">
    <path clip-path="url(#pb443699802)" d="M 896.172046 196.260756 
L 877.097074 196.260756 
L 877.097074 283.044124 
L 896.172046 283.044124 
z
" style="fill:#1f77b4;"/>
   </g>
   <g id="patch_33">
    <path clip-path="url(#pb443699802)" d="M 922.877008 196.260756 
L 903.802035 196.260756 
L 903.802035 141.282812 
L 922.877008 141.282812 
z
" style="fill:#1f77b4;"/>
   </g>
   <g id="patch_34">
    <path clip-path="url(#pb443699802)" d="M 949.58197 196.260756 
L 930.506997 196.260756 
L 930.506997 173.996961 
L 949.58197 173.996961 
z
" style="fill:#1f77b4;"/>
   </g>
   <g id="patch_35">
    <path clip-path="url(#pb443699802)" d="M 976.286932 196.260756 
L 957.211959 196.260756 
L 957.211959 217.615826 
L 976.286932 217.615826 
z
" style="fill:#1f77b4;"/>
   </g>
   <g id="patch_36">
    <path clip-path="url(#pb443699802)" d="M 1002.991894 196.260756 
L 983.916921 196.260756 
L 983.916921 201.258751 
L 1002.991894 201.258751 
z
" style="fill:#1f77b4;"/>
   </g>
   <g id="patch_37">
    <path clip-path="url(#pb443699802)" d="M 1029.696856 196.260756 
L 1010.621883 196.260756 
L 1010.621883 260.325965 
L 1029.696856 260.325965 
z
" style="fill:#1f77b4;"/>
   </g>
   <g id="patch_38">
    <path clip-path="url(#pb443699802)" d="M 1056.401818 196.260756 
L 1037.326845 196.260756 
L 1037.326845 193.988941 
L 1056.401818 193.988941 
z
" style="fill:#1f77b4;"/>
   </g>
   <g id="patch_39">
    <path clip-path="url(#pb443699802)" d="M 0 0 
z
" style="fill:#1f77b4;"/>
   </g>
   <g id="patch_40">
    <path clip-path="url(#pb443699802)" d="M 0 0 
z
" style="fill:#1f77b4;"/>
   </g>
   <g id="patch_41">
    <path clip-path="url(#pb443699802)" d="M 0 0 
z
" style="fill:#1f77b4;"/>
   </g>
   <g id="patch_42">
    <path clip-path="url(#pb443699802)" d="M 0 0 
z
" style="fill:#1f77b4;"/>
   </g>
   <g id="matplotlib.axis_1">
    <g id="xtick_1">
     <g id="line2d_1">
      <path clip-path="url(#pb443699802)" d="M 87.393198 424.76 
L 87.393198 25.92 
" style="fill:none;stroke:#b0b0b0;stroke-linecap:square;stroke-width:0.8;"/>
     </g>
     <g id="line2d_2">
      <defs>
       <path d="M 0 0 
L 0 3.5 
" id="m9d5fbf17b2" style="stroke:#000000;stroke-width:0.8;"/>
      </defs>
      <g>
       <use style="stroke:#000000;stroke-width:0.8;" x="87.393198" xlink:href="#m9d5fbf17b2" y="424.76"/>
      </g>
     </g>
     <g id="text_1">
      <!-- 2010 -->
      <g transform="translate(90.152573 457.21)rotate(-90)scale(0.1 -0.1)">
       <defs>
        <path d="M 19.1875 8.296875 
L 53.609375 8.296875 
L 53.609375 0 
L 7.328125 0 
L 7.328125 8.296875 
Q 12.9375 14.109375 22.625 23.890625 
Q 32.328125 33.6875 34.8125 36.53125 
Q 39.546875 41.84375 41.421875 45.53125 
Q 43.3125 49.21875 43.3125 52.78125 
Q 43.3125 58.59375 39.234375 62.25 
Q 35.15625 65.921875 28.609375 65.921875 
Q 23.96875 65.921875 18.8125 64.3125 
Q 13.671875 62.703125 7.8125 59.421875 
L 7.8125 69.390625 
Q 13.765625 71.78125 18.9375 73 
Q 24.125 74.21875 28.421875 74.21875 
Q 39.75 74.21875 46.484375 68.546875 
Q 53.21875 62.890625 53.21875 53.421875 
Q 53.21875 48.921875 51.53125 44.890625 
Q 49.859375 40.875 45.40625 35.40625 
Q 44.1875 33.984375 37.640625 27.21875 
Q 31.109375 20.453125 19.1875 8.296875 
z
" id="DejaVuSans-50"/>
        <path d="M 31.78125 66.40625 
Q 24.171875 66.40625 20.328125 58.90625 
Q 16.5 51.421875 16.5 36.375 
Q 16.5 21.390625 20.328125 13.890625 
Q 24.171875 6.390625 31.78125 6.390625 
Q 39.453125 6.390625 43.28125 13.890625 
Q 47.125 21.390625 47.125 36.375 
Q 47.125 51.421875 43.28125 58.90625 
Q 39.453125 66.40625 31.78125 66.40625 
z
M 31.78125 74.21875 
Q 44.046875 74.21875 50.515625 64.515625 
Q 56.984375 54.828125 56.984375 36.375 
Q 56.984375 17.96875 50.515625 8.265625 
Q 44.046875 -1.421875 31.78125 -1.421875 
Q 19.53125 -1.421875 13.0625 8.265625 
Q 6.59375 17.96875 6.59375 36.375 
Q 6.59375 54.828125 13.0625 64.515625 
Q 19.53125 74.21875 31.78125 74.21875 
z
" id="DejaVuSans-48"/>
        <path d="M 12.40625 8.296875 
L 28.515625 8.296875 
L 28.515625 63.921875 
L 10.984375 60.40625 
L 10.984375 69.390625 
L 28.421875 72.90625 
L 38.28125 72.90625 
L 38.28125 8.296875 
L 54.390625 8.296875 
L 54.390625 0 
L 12.40625 0 
z
" id="DejaVuSans-49"/>
       </defs>
       <use xlink:href="#DejaVuSans-50"/>
       <use x="63.623047" xlink:href="#DejaVuSans-48"/>
       <use x="127.246094" xlink:href="#DejaVuSans-49"/>
       <use x="190.869141" xlink:href="#DejaVuSans-48"/>
      </g>
     </g>
    </g>
   </g>
   <g id="matplotlib.axis_2">
    <g id="ytick_1">
     <g id="line2d_3">
      <path clip-path="url(#pb443699802)" d="M 50.96 421.170531 
L 1104.28 421.170531 
" style="fill:none;stroke:#b0b0b0;stroke-linecap:square;stroke-width:0.8;"/>
     </g>
     <g id="line2d_4">
      <defs>
       <path d="M 0 0 
L -3.5 0 
" id="mb182515d96" style="stroke:#000000;stroke-width:0.8;"/>
      </defs>
      <g>
       <use style="stroke:#000000;stroke-width:0.8;" x="50.96" xlink:href="#mb182515d96" y="421.170531"/>
      </g>
     </g>
     <g id="text_2">
      <!-- -0.6 -->
      <g transform="translate(24.449062 424.96975)scale(0.1 -0.1)">
       <defs>
        <path d="M 4.890625 31.390625 
L 31.203125 31.390625 
L 31.203125 23.390625 
L 4.890625 23.390625 
z
" id="DejaVuSans-45"/>
        <path d="M 10.6875 12.40625 
L 21 12.40625 
L 21 0 
L 10.6875 0 
z
" id="DejaVuSans-46"/>
        <path d="M 33.015625 40.375 
Q 26.375 40.375 22.484375 35.828125 
Q 18.609375 31.296875 18.609375 23.390625 
Q 18.609375 15.53125 22.484375 10.953125 
Q 26.375 6.390625 33.015625 6.390625 
Q 39.65625 6.390625 43.53125 10.953125 
Q 47.40625 15.53125 47.40625 23.390625 
Q 47.40625 31.296875 43.53125 35.828125 
Q 39.65625 40.375 33.015625 40.375 
z
M 52.59375 71.296875 
L 52.59375 62.3125 
Q 48.875 64.0625 45.09375 64.984375 
Q 41.3125 65.921875 37.59375 65.921875 
Q 27.828125 65.921875 22.671875 59.328125 
Q 17.53125 52.734375 16.796875 39.40625 
Q 19.671875 43.65625 24.015625 45.921875 
Q 28.375 48.1875 33.59375 48.1875 
Q 44.578125 48.1875 50.953125 41.515625 
Q 57.328125 34.859375 57.328125 23.390625 
Q 57.328125 12.15625 50.6875 5.359375 
Q 44.046875 -1.421875 33.015625 -1.421875 
Q 20.359375 -1.421875 13.671875 8.265625 
Q 6.984375 17.96875 6.984375 36.375 
Q 6.984375 53.65625 15.1875 63.9375 
Q 23.390625 74.21875 37.203125 74.21875 
Q 40.921875 74.21875 44.703125 73.484375 
Q 48.484375 72.75 52.59375 71.296875 
z
" id="DejaVuSans-54"/>
       </defs>
       <use xlink:href="#DejaVuSans-45"/>
       <use x="36.083984" xlink:href="#DejaVuSans-48"/>
       <use x="99.707031" xlink:href="#DejaVuSans-46"/>
       <use x="131.494141" xlink:href="#DejaVuSans-54"/>
      </g>
     </g>
    </g>
    <g id="ytick_2">
     <g id="line2d_5">
      <path clip-path="url(#pb443699802)" d="M 50.96 346.200606 
L 1104.28 346.200606 
" style="fill:none;stroke:#b0b0b0;stroke-linecap:square;stroke-width:0.8;"/>
     </g>
     <g id="line2d_6">
      <g>
       <use style="stroke:#000000;stroke-width:0.8;" x="50.96" xlink:href="#mb182515d96" y="346.200606"/>
      </g>
     </g>
     <g id="text_3">
      <!-- -0.4 -->
      <g transform="translate(24.449062 349.999825)scale(0.1 -0.1)">
       <defs>
        <path d="M 37.796875 64.3125 
L 12.890625 25.390625 
L 37.796875 25.390625 
z
M 35.203125 72.90625 
L 47.609375 72.90625 
L 47.609375 25.390625 
L 58.015625 25.390625 
L 58.015625 17.1875 
L 47.609375 17.1875 
L 47.609375 0 
L 37.796875 0 
L 37.796875 17.1875 
L 4.890625 17.1875 
L 4.890625 26.703125 
z
" id="DejaVuSans-52"/>
       </defs>
       <use xlink:href="#DejaVuSans-45"/>
       <use x="36.083984" xlink:href="#DejaVuSans-48"/>
       <use x="99.707031" xlink:href="#DejaVuSans-46"/>
       <use x="131.494141" xlink:href="#DejaVuSans-52"/>
      </g>
     </g>
    </g>
    <g id="ytick_3">
     <g id="line2d_7">
      <path clip-path="url(#pb443699802)" d="M 50.96 271.230681 
L 1104.28 271.230681 
" style="fill:none;stroke:#b0b0b0;stroke-linecap:square;stroke-width:0.8;"/>
     </g>
     <g id="line2d_8">
      <g>
       <use style="stroke:#000000;stroke-width:0.8;" x="50.96" xlink:href="#mb182515d96" y="271.230681"/>
      </g>
     </g>
     <g id="text_4">
      <!-- -0.2 -->
      <g transform="translate(24.449062 275.0299)scale(0.1 -0.1)">
       <use xlink:href="#DejaVuSans-45"/>
       <use x="36.083984" xlink:href="#DejaVuSans-48"/>
       <use x="99.707031" xlink:href="#DejaVuSans-46"/>
       <use x="131.494141" xlink:href="#DejaVuSans-50"/>
      </g>
     </g>
    </g>
    <g id="ytick_4">
     <g id="line2d_9">
      <path clip-path="url(#pb443699802)" d="M 50.96 196.260756 
L 1104.28 196.260756 
" style="fill:none;stroke:#b0b0b0;stroke-linecap:square;stroke-width:0.8;"/>
     </g>
     <g id="line2d_10">
      <g>
       <use style="stroke:#000000;stroke-width:0.8;" x="50.96" xlink:href="#mb182515d96" y="196.260756"/>
      </g>
     </g>
     <g id="text_5">
      <!-- 0.0 -->
      <g transform="translate(28.056875 200.059975)scale(0.1 -0.1)">
       <use xlink:href="#DejaVuSans-48"/>
       <use x="63.623047" xlink:href="#DejaVuSans-46"/>
       <use x="95.410156" xlink:href="#DejaVuSans-48"/>
      </g>
     </g>
    </g>
    <g id="ytick_5">
     <g id="line2d_11">
      <path clip-path="url(#pb443699802)" d="M 50.96 121.290832 
L 1104.28 121.290832 
" style="fill:none;stroke:#b0b0b0;stroke-linecap:square;stroke-width:0.8;"/>
     </g>
     <g id="line2d_12">
      <g>
       <use style="stroke:#000000;stroke-width:0.8;" x="50.96" xlink:href="#mb182515d96" y="121.290832"/>
      </g>
     </g>
     <g id="text_6">
      <!-- 0.2 -->
      <g transform="translate(28.056875 125.09005)scale(0.1 -0.1)">
       <use xlink:href="#DejaVuSans-48"/>
       <use x="63.623047" xlink:href="#DejaVuSans-46"/>
       <use x="95.410156" xlink:href="#DejaVuSans-50"/>
      </g>
     </g>
    </g>
    <g id="ytick_6">
     <g id="line2d_13">
      <path clip-path="url(#pb443699802)" d="M 50.96 46.320907 
L 1104.28 46.320907 
" style="fill:none;stroke:#b0b0b0;stroke-linecap:square;stroke-width:0.8;"/>
     </g>
     <g id="line2d_14">
      <g>
       <use style="stroke:#000000;stroke-width:0.8;" x="50.96" xlink:href="#mb182515d96" y="46.320907"/>
      </g>
     </g>
     <g id="text_7">
      <!-- 0.4 -->
      <g transform="translate(28.056875 50.120126)scale(0.1 -0.1)">
       <use xlink:href="#DejaVuSans-48"/>
       <use x="63.623047" xlink:href="#DejaVuSans-46"/>
       <use x="95.410156" xlink:href="#DejaVuSans-52"/>
      </g>
     </g>
    </g>
    <g id="text_8">
     <!-- RankIC -->
     <g transform="translate(18.369375 242.79625)rotate(-90)scale(0.1 -0.1)">
      <defs>
       <path d="M 44.390625 34.1875 
Q 47.5625 33.109375 50.5625 29.59375 
Q 53.5625 26.078125 56.59375 19.921875 
L 66.609375 0 
L 56 0 
L 46.6875 18.703125 
Q 43.0625 26.03125 39.671875 28.421875 
Q 36.28125 30.8125 30.421875 30.8125 
L 19.671875 30.8125 
L 19.671875 0 
L 9.8125 0 
L 9.8125 72.90625 
L 32.078125 72.90625 
Q 44.578125 72.90625 50.734375 67.671875 
Q 56.890625 62.453125 56.890625 51.90625 
Q 56.890625 45.015625 53.6875 40.46875 
Q 50.484375 35.9375 44.390625 34.1875 
z
M 19.671875 64.796875 
L 19.671875 38.921875 
L 32.078125 38.921875 
Q 39.203125 38.921875 42.84375 42.21875 
Q 46.484375 45.515625 46.484375 51.90625 
Q 46.484375 58.296875 42.84375 61.546875 
Q 39.203125 64.796875 32.078125 64.796875 
z
" id="DejaVuSans-82"/>
       <path d="M 34.28125 27.484375 
Q 23.390625 27.484375 19.1875 25 
Q 14.984375 22.515625 14.984375 16.5 
Q 14.984375 11.71875 18.140625 8.90625 
Q 21.296875 6.109375 26.703125 6.109375 
Q 34.1875 6.109375 38.703125 11.40625 
Q 43.21875 16.703125 43.21875 25.484375 
L 43.21875 27.484375 
z
M 52.203125 31.203125 
L 52.203125 0 
L 43.21875 0 
L 43.21875 8.296875 
Q 40.140625 3.328125 35.546875 0.953125 
Q 30.953125 -1.421875 24.3125 -1.421875 
Q 15.921875 -1.421875 10.953125 3.296875 
Q 6 8.015625 6 15.921875 
Q 6 25.140625 12.171875 29.828125 
Q 18.359375 34.515625 30.609375 34.515625 
L 43.21875 34.515625 
L 43.21875 35.40625 
Q 43.21875 41.609375 39.140625 45 
Q 35.0625 48.390625 27.6875 48.390625 
Q 23 48.390625 18.546875 47.265625 
Q 14.109375 46.140625 10.015625 43.890625 
L 10.015625 52.203125 
Q 14.9375 54.109375 19.578125 55.046875 
Q 24.21875 56 28.609375 56 
Q 40.484375 56 46.34375 49.84375 
Q 52.203125 43.703125 52.203125 31.203125 
z
" id="DejaVuSans-97"/>
       <path d="M 54.890625 33.015625 
L 54.890625 0 
L 45.90625 0 
L 45.90625 32.71875 
Q 45.90625 40.484375 42.875 44.328125 
Q 39.84375 48.1875 33.796875 48.1875 
Q 26.515625 48.1875 22.3125 43.546875 
Q 18.109375 38.921875 18.109375 30.90625 
L 18.109375 0 
L 9.078125 0 
L 9.078125 54.6875 
L 18.109375 54.6875 
L 18.109375 46.1875 
Q 21.34375 51.125 25.703125 53.5625 
Q 30.078125 56 35.796875 56 
Q 45.21875 56 50.046875 50.171875 
Q 54.890625 44.34375 54.890625 33.015625 
z
" id="DejaVuSans-110"/>
       <path d="M 9.078125 75.984375 
L 18.109375 75.984375 
L 18.109375 31.109375 
L 44.921875 54.6875 
L 56.390625 54.6875 
L 27.390625 29.109375 
L 57.625 0 
L 45.90625 0 
L 18.109375 26.703125 
L 18.109375 0 
L 9.078125 0 
z
" id="DejaVuSans-107"/>
       <path d="M 9.8125 72.90625 
L 19.671875 72.90625 
L 19.671875 0 
L 9.8125 0 
z
" id="DejaVuSans-73"/>
       <path d="M 64.40625 67.28125 
L 64.40625 56.890625 
Q 59.421875 61.53125 53.78125 63.8125 
Q 48.140625 66.109375 41.796875 66.109375 
Q 29.296875 66.109375 22.65625 58.46875 
Q 16.015625 50.828125 16.015625 36.375 
Q 16.015625 21.96875 22.65625 14.328125 
Q 29.296875 6.6875 41.796875 6.6875 
Q 48.140625 6.6875 53.78125 8.984375 
Q 59.421875 11.28125 64.40625 15.921875 
L 64.40625 5.609375 
Q 59.234375 2.09375 53.4375 0.328125 
Q 47.65625 -1.421875 41.21875 -1.421875 
Q 24.65625 -1.421875 15.125 8.703125 
Q 5.609375 18.84375 5.609375 36.375 
Q 5.609375 53.953125 15.125 64.078125 
Q 24.65625 74.21875 41.21875 74.21875 
Q 47.75 74.21875 53.53125 72.484375 
Q 59.328125 70.75 64.40625 67.28125 
z
" id="DejaVuSans-67"/>
      </defs>
      <use xlink:href="#DejaVuSans-82"/>
      <use x="67.232422" xlink:href="#DejaVuSans-97"/>
      <use x="128.511719" xlink:href="#DejaVuSans-110"/>
      <use x="191.890625" xlink:href="#DejaVuSans-107"/>
      <use x="249.800781" xlink:href="#DejaVuSans-73"/>
      <use x="279.292969" xlink:href="#DejaVuSans-67"/>
     </g>
    </g>
   </g>
   <g id="line2d_15">
    <path clip-path="url(#pb443699802)" d="M 50.96 240.636894 
L 1104.28 240.636894 
" style="fill:none;stroke:#800080;stroke-dasharray:7.4,3.2;stroke-dashoffset:0;stroke-width:2;"/>
   </g>
   <g id="patch_43">
    <path d="M 50.96 424.76 
L 50.96 25.92 
" style="fill:none;stroke:#000000;stroke-linecap:square;stroke-linejoin:miter;stroke-width:0.8;"/>
   </g>
   <g id="patch_44">
    <path d="M 1104.28 424.76 
L 1104.28 25.92 
" style="fill:none;stroke:#000000;stroke-linecap:square;stroke-linejoin:miter;stroke-width:0.8;"/>
   </g>
   <g id="patch_45">
    <path d="M 50.96 424.76 
L 1104.28 424.76 
" style="fill:none;stroke:#000000;stroke-linecap:square;stroke-linejoin:miter;stroke-width:0.8;"/>
   </g>
   <g id="patch_46">
    <path d="M 50.96 25.92 
L 1104.28 25.92 
" style="fill:none;stroke:#000000;stroke-linecap:square;stroke-linejoin:miter;stroke-width:0.8;"/>
   </g>
   <g id="legend_1">
    <g id="patch_47">
     <path d="M 57.96 63.27625 
L 194.56 63.27625 
Q 196.56 63.27625 196.56 61.27625 
L 196.56 32.92 
Q 196.56 30.92 194.56 30.92 
L 57.96 30.92 
Q 55.96 30.92 55.96 32.92 
L 55.96 61.27625 
Q 55.96 63.27625 57.96 63.27625 
z
" style="fill:#ffffff;opacity:0.8;stroke:#cccccc;stroke-linejoin:miter;"/>
    </g>
    <g id="patch_48">
     <path d="M 59.96 42.518438 
L 79.96 42.518438 
L 79.96 35.518438 
L 59.96 35.518438 
z
" style="fill:#1f77b4;"/>
    </g>
    <g id="text_9">
     <!-- weekly RankIC mean -->
     <g transform="translate(87.96 42.518438)scale(0.1 -0.1)">
      <defs>
       <path d="M 4.203125 54.6875 
L 13.1875 54.6875 
L 24.421875 12.015625 
L 35.59375 54.6875 
L 46.1875 54.6875 
L 57.421875 12.015625 
L 68.609375 54.6875 
L 77.59375 54.6875 
L 63.28125 0 
L 52.6875 0 
L 40.921875 44.828125 
L 29.109375 0 
L 18.5 0 
z
" id="DejaVuSans-119"/>
       <path d="M 56.203125 29.59375 
L 56.203125 25.203125 
L 14.890625 25.203125 
Q 15.484375 15.921875 20.484375 11.0625 
Q 25.484375 6.203125 34.421875 6.203125 
Q 39.59375 6.203125 44.453125 7.46875 
Q 49.3125 8.734375 54.109375 11.28125 
L 54.109375 2.78125 
Q 49.265625 0.734375 44.1875 -0.34375 
Q 39.109375 -1.421875 33.890625 -1.421875 
Q 20.796875 -1.421875 13.15625 6.1875 
Q 5.515625 13.8125 5.515625 26.8125 
Q 5.515625 40.234375 12.765625 48.109375 
Q 20.015625 56 32.328125 56 
Q 43.359375 56 49.78125 48.890625 
Q 56.203125 41.796875 56.203125 29.59375 
z
M 47.21875 32.234375 
Q 47.125 39.59375 43.09375 43.984375 
Q 39.0625 48.390625 32.421875 48.390625 
Q 24.90625 48.390625 20.390625 44.140625 
Q 15.875 39.890625 15.1875 32.171875 
z
" id="DejaVuSans-101"/>
       <path d="M 9.421875 75.984375 
L 18.40625 75.984375 
L 18.40625 0 
L 9.421875 0 
z
" id="DejaVuSans-108"/>
       <path d="M 32.171875 -5.078125 
Q 28.375 -14.84375 24.75 -17.8125 
Q 21.140625 -20.796875 15.09375 -20.796875 
L 7.90625 -20.796875 
L 7.90625 -13.28125 
L 13.1875 -13.28125 
Q 16.890625 -13.28125 18.9375 -11.515625 
Q 21 -9.765625 23.484375 -3.21875 
L 25.09375 0.875 
L 2.984375 54.6875 
L 12.5 54.6875 
L 29.59375 11.921875 
L 46.6875 54.6875 
L 56.203125 54.6875 
z
" id="DejaVuSans-121"/>
       <path id="DejaVuSans-32"/>
       <path d="M 52 44.1875 
Q 55.375 50.25 60.0625 53.125 
Q 64.75 56 71.09375 56 
Q 79.640625 56 84.28125 50.015625 
Q 88.921875 44.046875 88.921875 33.015625 
L 88.921875 0 
L 79.890625 0 
L 79.890625 32.71875 
Q 79.890625 40.578125 77.09375 44.375 
Q 74.3125 48.1875 68.609375 48.1875 
Q 61.625 48.1875 57.5625 43.546875 
Q 53.515625 38.921875 53.515625 30.90625 
L 53.515625 0 
L 44.484375 0 
L 44.484375 32.71875 
Q 44.484375 40.625 41.703125 44.40625 
Q 38.921875 48.1875 33.109375 48.1875 
Q 26.21875 48.1875 22.15625 43.53125 
Q 18.109375 38.875 18.109375 30.90625 
L 18.109375 0 
L 9.078125 0 
L 9.078125 54.6875 
L 18.109375 54.6875 
L 18.109375 46.1875 
Q 21.1875 51.21875 25.484375 53.609375 
Q 29.78125 56 35.6875 56 
Q 41.65625 56 45.828125 52.96875 
Q 50 49.953125 52 44.1875 
z
" id="DejaVuSans-109"/>
      </defs>
      <use xlink:href="#DejaVuSans-119"/>
      <use x="81.787109" xlink:href="#DejaVuSans-101"/>
      <use x="143.310547" xlink:href="#DejaVuSans-101"/>
      <use x="204.833984" xlink:href="#DejaVuSans-107"/>
      <use x="262.744141" xlink:href="#DejaVuSans-108"/>
      <use x="290.527344" xlink:href="#DejaVuSans-121"/>
      <use x="349.707031" xlink:href="#DejaVuSans-32"/>
      <use x="381.494141" xlink:href="#DejaVuSans-82"/>
      <use x="448.726562" xlink:href="#DejaVuSans-97"/>
      <use x="510.005859" xlink:href="#DejaVuSans-110"/>
      <use x="573.384766" xlink:href="#DejaVuSans-107"/>
      <use x="631.294922" xlink:href="#DejaVuSans-73"/>
      <use x="660.787109" xlink:href="#DejaVuSans-67"/>
      <use x="730.611328" xlink:href="#DejaVuSans-32"/>
      <use x="762.398438" xlink:href="#DejaVuSans-109"/>
      <use x="859.810547" xlink:href="#DejaVuSans-101"/>
      <use x="921.333984" xlink:href="#DejaVuSans-97"/>
      <use x="982.613281" xlink:href="#DejaVuSans-110"/>
     </g>
    </g>
    <g id="line2d_16">
     <path d="M 59.96 53.696563 
L 79.96 53.696563 
" style="fill:none;stroke:#800080;stroke-dasharray:7.4,3.2;stroke-dashoffset:0;stroke-width:2;"/>
    </g>
    <g id="line2d_17"/>
    <g id="text_10">
     <!-- RankIC mean -->
     <g transform="translate(87.96 57.196563)scale(0.1 -0.1)">
      <use xlink:href="#DejaVuSans-82"/>
      <use x="67.232422" xlink:href="#DejaVuSans-97"/>
      <use x="128.511719" xlink:href="#DejaVuSans-110"/>
      <use x="191.890625" xlink:href="#DejaVuSans-107"/>
      <use x="249.800781" xlink:href="#DejaVuSans-73"/>
      <use x="279.292969" xlink:href="#DejaVuSans-67"/>
      <use x="349.117188" xlink:href="#DejaVuSans-32"/>
      <use x="380.904297" xlink:href="#DejaVuSans-109"/>
      <use x="478.316406" xlink:href="#DejaVuSans-101"/>
      <use x="539.839844" xlink:href="#DejaVuSans-97"/>
      <use x="601.119141" xlink:href="#DejaVuSans-110"/>
     </g>
    </g>
   </g>
  </g>
  <g id="axes_2">
   <g id="matplotlib.axis_3">
    <g id="ytick_7">
     <g id="line2d_18">
      <defs>
       <path d="M 0 0 
L 3.5 0 
" id="m6085443679" style="stroke:#000000;stroke-width:0.8;"/>
      </defs>
      <g>
       <use style="stroke:#000000;stroke-width:0.8;" x="1104.28" xlink:href="#m6085443679" y="386.603271"/>
      </g>
     </g>
     <g id="text_11">
      <!-- -20 -->
      <g transform="translate(1111.28 390.402489)scale(0.1 -0.1)">
       <use xlink:href="#DejaVuSans-45"/>
       <use x="36.083984" xlink:href="#DejaVuSans-50"/>
       <use x="99.707031" xlink:href="#DejaVuSans-48"/>
      </g>
     </g>
    </g>
    <g id="ytick_8">
     <g id="line2d_19">
      <g>
       <use style="stroke:#000000;stroke-width:0.8;" x="1104.28" xlink:href="#m6085443679" y="311.839461"/>
      </g>
     </g>
     <g id="text_12">
      <!-- -15 -->
      <g transform="translate(1111.28 315.63868)scale(0.1 -0.1)">
       <defs>
        <path d="M 10.796875 72.90625 
L 49.515625 72.90625 
L 49.515625 64.59375 
L 19.828125 64.59375 
L 19.828125 46.734375 
Q 21.96875 47.46875 24.109375 47.828125 
Q 26.265625 48.1875 28.421875 48.1875 
Q 40.625 48.1875 47.75 41.5 
Q 54.890625 34.8125 54.890625 23.390625 
Q 54.890625 11.625 47.5625 5.09375 
Q 40.234375 -1.421875 26.90625 -1.421875 
Q 22.3125 -1.421875 17.546875 -0.640625 
Q 12.796875 0.140625 7.71875 1.703125 
L 7.71875 11.625 
Q 12.109375 9.234375 16.796875 8.0625 
Q 21.484375 6.890625 26.703125 6.890625 
Q 35.15625 6.890625 40.078125 11.328125 
Q 45.015625 15.765625 45.015625 23.390625 
Q 45.015625 31 40.078125 35.4375 
Q 35.15625 39.890625 26.703125 39.890625 
Q 22.75 39.890625 18.8125 39.015625 
Q 14.890625 38.140625 10.796875 36.28125 
z
" id="DejaVuSans-53"/>
       </defs>
       <use xlink:href="#DejaVuSans-45"/>
       <use x="36.083984" xlink:href="#DejaVuSans-49"/>
       <use x="99.707031" xlink:href="#DejaVuSans-53"/>
      </g>
     </g>
    </g>
    <g id="ytick_9">
     <g id="line2d_20">
      <g>
       <use style="stroke:#000000;stroke-width:0.8;" x="1104.28" xlink:href="#m6085443679" y="237.075652"/>
      </g>
     </g>
     <g id="text_13">
      <!-- -10 -->
      <g transform="translate(1111.28 240.874871)scale(0.1 -0.1)">
       <use xlink:href="#DejaVuSans-45"/>
       <use x="36.083984" xlink:href="#DejaVuSans-49"/>
       <use x="99.707031" xlink:href="#DejaVuSans-48"/>
      </g>
     </g>
    </g>
    <g id="ytick_10">
     <g id="line2d_21">
      <g>
       <use style="stroke:#000000;stroke-width:0.8;" x="1104.28" xlink:href="#m6085443679" y="162.311843"/>
      </g>
     </g>
     <g id="text_14">
      <!-- -5 -->
      <g transform="translate(1111.28 166.111062)scale(0.1 -0.1)">
       <use xlink:href="#DejaVuSans-45"/>
       <use x="36.083984" xlink:href="#DejaVuSans-53"/>
      </g>
     </g>
    </g>
    <g id="ytick_11">
     <g id="line2d_22">
      <g>
       <use style="stroke:#000000;stroke-width:0.8;" x="1104.28" xlink:href="#m6085443679" y="87.548034"/>
      </g>
     </g>
     <g id="text_15">
      <!-- 0 -->
      <g transform="translate(1111.28 91.347253)scale(0.1 -0.1)">
       <use xlink:href="#DejaVuSans-48"/>
      </g>
     </g>
    </g>
    <g id="text_16">
     <!-- IC cumsum -->
     <g transform="translate(1139.21125 253.3275)rotate(-90)scale(0.1 -0.1)">
      <defs>
       <path d="M 48.78125 52.59375 
L 48.78125 44.1875 
Q 44.96875 46.296875 41.140625 47.34375 
Q 37.3125 48.390625 33.40625 48.390625 
Q 24.65625 48.390625 19.8125 42.84375 
Q 14.984375 37.3125 14.984375 27.296875 
Q 14.984375 17.28125 19.8125 11.734375 
Q 24.65625 6.203125 33.40625 6.203125 
Q 37.3125 6.203125 41.140625 7.25 
Q 44.96875 8.296875 48.78125 10.40625 
L 48.78125 2.09375 
Q 45.015625 0.34375 40.984375 -0.53125 
Q 36.96875 -1.421875 32.421875 -1.421875 
Q 20.0625 -1.421875 12.78125 6.34375 
Q 5.515625 14.109375 5.515625 27.296875 
Q 5.515625 40.671875 12.859375 48.328125 
Q 20.21875 56 33.015625 56 
Q 37.15625 56 41.109375 55.140625 
Q 45.0625 54.296875 48.78125 52.59375 
z
" id="DejaVuSans-99"/>
       <path d="M 8.5 21.578125 
L 8.5 54.6875 
L 17.484375 54.6875 
L 17.484375 21.921875 
Q 17.484375 14.15625 20.5 10.265625 
Q 23.53125 6.390625 29.59375 6.390625 
Q 36.859375 6.390625 41.078125 11.03125 
Q 45.3125 15.671875 45.3125 23.6875 
L 45.3125 54.6875 
L 54.296875 54.6875 
L 54.296875 0 
L 45.3125 0 
L 45.3125 8.40625 
Q 42.046875 3.421875 37.71875 1 
Q 33.40625 -1.421875 27.6875 -1.421875 
Q 18.265625 -1.421875 13.375 4.4375 
Q 8.5 10.296875 8.5 21.578125 
z
M 31.109375 56 
z
" id="DejaVuSans-117"/>
       <path d="M 44.28125 53.078125 
L 44.28125 44.578125 
Q 40.484375 46.53125 36.375 47.5 
Q 32.28125 48.484375 27.875 48.484375 
Q 21.1875 48.484375 17.84375 46.4375 
Q 14.5 44.390625 14.5 40.28125 
Q 14.5 37.15625 16.890625 35.375 
Q 19.28125 33.59375 26.515625 31.984375 
L 29.59375 31.296875 
Q 39.15625 29.25 43.1875 25.515625 
Q 47.21875 21.78125 47.21875 15.09375 
Q 47.21875 7.46875 41.1875 3.015625 
Q 35.15625 -1.421875 24.609375 -1.421875 
Q 20.21875 -1.421875 15.453125 -0.5625 
Q 10.6875 0.296875 5.421875 2 
L 5.421875 11.28125 
Q 10.40625 8.6875 15.234375 7.390625 
Q 20.0625 6.109375 24.8125 6.109375 
Q 31.15625 6.109375 34.5625 8.28125 
Q 37.984375 10.453125 37.984375 14.40625 
Q 37.984375 18.0625 35.515625 20.015625 
Q 33.0625 21.96875 24.703125 23.78125 
L 21.578125 24.515625 
Q 13.234375 26.265625 9.515625 29.90625 
Q 5.8125 33.546875 5.8125 39.890625 
Q 5.8125 47.609375 11.28125 51.796875 
Q 16.75 56 26.8125 56 
Q 31.78125 56 36.171875 55.265625 
Q 40.578125 54.546875 44.28125 53.078125 
z
" id="DejaVuSans-115"/>
      </defs>
      <use xlink:href="#DejaVuSans-73"/>
      <use x="29.492188" xlink:href="#DejaVuSans-67"/>
      <use x="99.316406" xlink:href="#DejaVuSans-32"/>
      <use x="131.103516" xlink:href="#DejaVuSans-99"/>
      <use x="186.083984" xlink:href="#DejaVuSans-117"/>
      <use x="249.462891" xlink:href="#DejaVuSans-109"/>
      <use x="346.875" xlink:href="#DejaVuSans-115"/>
      <use x="398.974609" xlink:href="#DejaVuSans-117"/>
      <use x="462.353516" xlink:href="#DejaVuSans-109"/>
     </g>
    </g>
   </g>
   <g id="line2d_23">
    <path clip-path="url(#pb443699802)" d="M 98.838182 91.082324 
L 102.653176 87.910526 
L 106.468171 92.713534 
L 110.283166 92.622911 
L 114.09816 87.457412 
L 125.543144 93.529139 
L 129.358138 90.357341 
L 133.173133 86.641806 
L 136.988127 87.457412 
L 140.803122 85.010596 
L 152.248106 92.351043 
L 156.0631 93.89163 
L 159.878095 97.425919 
L 163.693089 100.053981 
L 167.508084 99.05713 
L 178.953068 89.722982 
L 182.768062 88.001148 
L 186.583057 83.19814 
L 190.398051 75.313957 
L 194.213046 68.698492 
L 205.65803 65.889185 
L 209.473024 63.623615 
L 213.288019 66.070431 
L 217.103013 61.992405 
L 220.918008 65.70794 
L 232.362992 63.804861 
L 236.177986 70.782817 
L 239.992981 68.879738 
L 243.807975 64.439221 
L 247.62297 68.154755 
L 259.067954 71.689045 
L 262.882948 69.423475 
L 266.697943 68.245378 
L 270.512937 59.636212 
L 274.327932 52.11452 
L 285.772916 48.036494 
L 289.58791 51.389538 
L 293.402905 48.21774 
L 297.217899 51.389538 
L 301.032894 44.049091 
L 312.477878 51.752029 
L 316.292872 59.092476 
L 320.107867 56.464414 
L 323.922861 56.555037 
L 327.737856 52.295766 
L 339.18284 58.548739 
L 342.997834 54.833204 
L 346.812829 52.023897 
L 350.627823 56.464414 
L 354.442818 52.567634 
L 365.887802 52.839502 
L 369.702796 63.623615 
L 373.517791 62.083028 
L 377.332785 56.917528 
L 381.14778 58.820607 
L 392.592763 58.186248 
L 396.407758 52.658257 
L 400.222753 52.205143 
L 404.037747 61.539291 
L 407.852742 70.510948 
L 419.297725 68.064133 
L 423.11272 72.867141 
L 426.927715 75.313957 
L 430.742709 80.29821 
L 434.557704 80.388833 
L 449.817682 87.819903 
L 453.632677 90.266718 
L 457.447671 98.875884 
L 461.262666 96.429069 
L 472.707649 96.700937 
L 476.522644 100.960209 
L 480.337639 102.863287 
L 484.152633 105.128857 
L 487.967628 104.494498 
L 499.412611 97.879033 
L 503.227606 105.763217 
L 507.042601 103.135156 
L 510.857595 101.775814 
L 514.67259 105.310103 
L 526.117573 104.856989 
L 529.932568 101.141454 
L 533.747562 99.05713 
L 537.562557 94.797858 
L 541.377552 101.413323 
L 552.822535 102.228928 
L 556.63753 109.206883 
L 560.452524 112.01619 
L 564.267519 124.250268 
L 568.082514 129.234522 
L 579.527497 136.93746 
L 583.342492 138.115556 
L 587.157486 141.106108 
L 590.972481 145.36538 
L 594.787476 153.249564 
L 606.232459 151.165239 
L 610.047454 155.787002 
L 613.862448 159.321291 
L 617.677443 166.661738 
L 621.492438 172.008483 
L 632.937421 172.099106 
L 636.752416 175.81464 
L 640.56741 186.779999 
L 644.382405 189.045569 
L 648.197399 195.842279 
L 659.642383 196.657884 
L 663.457378 199.285945 
L 667.272372 207.170129 
L 671.087367 204.723313 
L 674.902361 204.088954 
L 686.347345 206.354524 
L 690.16234 210.070058 
L 693.977334 217.772996 
L 697.792329 224.025969 
L 701.607323 227.016522 
L 713.052307 236.169424 
L 716.867302 235.897556 
L 720.682296 232.363267 
L 724.497291 231.547662 
L 728.312285 238.888108 
L 739.757269 235.172574 
L 743.572264 234.538214 
L 747.387258 240.609942 
L 751.202253 245.231704 
L 755.017247 258.009519 
L 766.462231 253.206511 
L 770.277226 260.184466 
L 774.09222 266.256194 
L 777.907215 274.86536 
L 781.722209 281.843315 
L 793.167193 287.19006 
L 796.982188 296.8867 
L 800.797182 302.41469 
L 804.612177 312.836312 
L 808.427171 323.801671 
L 819.872155 332.954574 
L 823.68715 338.845056 
L 827.502144 347.454221 
L 831.317139 354.250931 
L 835.132133 365.21629 
L 846.577117 368.025597 
L 850.392112 375.184798 
L 854.207106 380.712789 
L 858.022101 382.797113 
L 861.837095 386.693893 
L 873.282079 390.590674 
L 877.097074 396.481156 
L 880.912068 394.940568 
L 884.727063 400.106068 
L 888.542057 404.002848 
L 899.987041 404.455962 
L 903.802035 400.377936 
L 907.61703 397.568629 
L 915.247019 393.037489 
L 926.692003 394.396831 
L 930.506997 394.6687 
L 934.321992 394.215586 
L 938.136987 392.131261 
L 941.951981 388.596972 
L 953.396965 391.950016 
L 957.211959 394.215586 
L 961.026954 393.943717 
L 964.841949 388.596972 
L 968.656943 392.856244 
L 980.101927 391.678147 
L 983.916921 388.325104 
L 987.731916 387.509499 
L 991.546911 393.581226 
L 995.361905 393.853094 
L 1006.806889 399.743576 
L 1010.621883 404.546585 
L 1014.436878 405.180944 
L 1018.251873 402.190392 
L 1022.066867 406.630909 
L 1033.511851 405.634058 
L 1037.326845 403.73098 
L 1041.14184 400.377936 
L 1044.956834 406.449663 
L 1048.771829 406.177795 
L 1048.771829 406.177795 
" style="fill:none;stroke:#ff0000;stroke-linecap:square;stroke-width:1.5;"/>
   </g>
   <g id="patch_49">
    <path d="M 50.96 424.76 
L 50.96 25.92 
" style="fill:none;stroke:#000000;stroke-linecap:square;stroke-linejoin:miter;stroke-width:0.8;"/>
   </g>
   <g id="patch_50">
    <path d="M 1104.28 424.76 
L 1104.28 25.92 
" style="fill:none;stroke:#000000;stroke-linecap:square;stroke-linejoin:miter;stroke-width:0.8;"/>
   </g>
   <g id="patch_51">
    <path d="M 50.96 424.76 
L 1104.28 424.76 
" style="fill:none;stroke:#000000;stroke-linecap:square;stroke-linejoin:miter;stroke-width:0.8;"/>
   </g>
   <g id="patch_52">
    <path d="M 50.96 25.92 
L 1104.28 25.92 
" style="fill:none;stroke:#000000;stroke-linecap:square;stroke-linejoin:miter;stroke-width:0.8;"/>
   </g>
   <g id="legend_2">
    <g id="patch_53">
     <path d="M 957.195625 48.598125 
L 1097.28 48.598125 
Q 1099.28 48.598125 1099.28 46.598125 
L 1099.28 32.92 
Q 1099.28 30.92 1097.28 30.92 
L 957.195625 30.92 
Q 955.195625 30.92 955.195625 32.92 
L 955.195625 46.598125 
Q 955.195625 48.598125 957.195625 48.598125 
z
" style="fill:#ffffff;opacity:0.8;stroke:#cccccc;stroke-linejoin:miter;"/>
    </g>
    <g id="line2d_24">
     <path d="M 959.195625 39.018438 
L 979.195625 39.018438 
" style="fill:none;stroke:#ff0000;stroke-linecap:square;stroke-width:1.5;"/>
    </g>
    <g id="line2d_25"/>
    <g id="text_17">
     <!-- daily RankIC cumsum -->
     <g transform="translate(987.195625 42.518438)scale(0.1 -0.1)">
      <defs>
       <path d="M 45.40625 46.390625 
L 45.40625 75.984375 
L 54.390625 75.984375 
L 54.390625 0 
L 45.40625 0 
L 45.40625 8.203125 
Q 42.578125 3.328125 38.25 0.953125 
Q 33.9375 -1.421875 27.875 -1.421875 
Q 17.96875 -1.421875 11.734375 6.484375 
Q 5.515625 14.40625 5.515625 27.296875 
Q 5.515625 40.1875 11.734375 48.09375 
Q 17.96875 56 27.875 56 
Q 33.9375 56 38.25 53.625 
Q 42.578125 51.265625 45.40625 46.390625 
z
M 14.796875 27.296875 
Q 14.796875 17.390625 18.875 11.75 
Q 22.953125 6.109375 30.078125 6.109375 
Q 37.203125 6.109375 41.296875 11.75 
Q 45.40625 17.390625 45.40625 27.296875 
Q 45.40625 37.203125 41.296875 42.84375 
Q 37.203125 48.484375 30.078125 48.484375 
Q 22.953125 48.484375 18.875 42.84375 
Q 14.796875 37.203125 14.796875 27.296875 
z
" id="DejaVuSans-100"/>
       <path d="M 9.421875 54.6875 
L 18.40625 54.6875 
L 18.40625 0 
L 9.421875 0 
z
M 9.421875 75.984375 
L 18.40625 75.984375 
L 18.40625 64.59375 
L 9.421875 64.59375 
z
" id="DejaVuSans-105"/>
      </defs>
      <use xlink:href="#DejaVuSans-100"/>
      <use x="63.476562" xlink:href="#DejaVuSans-97"/>
      <use x="124.755859" xlink:href="#DejaVuSans-105"/>
      <use x="152.539062" xlink:href="#DejaVuSans-108"/>
      <use x="180.322266" xlink:href="#DejaVuSans-121"/>
      <use x="239.501953" xlink:href="#DejaVuSans-32"/>
      <use x="271.289062" xlink:href="#DejaVuSans-82"/>
      <use x="338.521484" xlink:href="#DejaVuSans-97"/>
      <use x="399.800781" xlink:href="#DejaVuSans-110"/>
      <use x="463.179688" xlink:href="#DejaVuSans-107"/>
      <use x="521.089844" xlink:href="#DejaVuSans-73"/>
      <use x="550.582031" xlink:href="#DejaVuSans-67"/>
      <use x="620.40625" xlink:href="#DejaVuSans-32"/>
      <use x="652.193359" xlink:href="#DejaVuSans-99"/>
      <use x="707.173828" xlink:href="#DejaVuSans-117"/>
      <use x="770.552734" xlink:href="#DejaVuSans-109"/>
      <use x="867.964844" xlink:href="#DejaVuSans-115"/>
      <use x="920.064453" xlink:href="#DejaVuSans-117"/>
      <use x="983.443359" xlink:href="#DejaVuSans-109"/>
     </g>
    </g>
   </g>
  </g>
  <g id="axes_3">
   <g id="matplotlib.axis_4">
    <g id="ytick_12">
     <g id="line2d_26">
      <g>
       <use style="stroke:#000000;stroke-width:0.8;" x="1104.28" xlink:href="#m6085443679" y="424.76"/>
      </g>
     </g>
    </g>
    <g id="ytick_13">
     <g id="line2d_27">
      <g>
       <use style="stroke:#000000;stroke-width:0.8;" x="1104.28" xlink:href="#m6085443679" y="344.992"/>
      </g>
     </g>
    </g>
    <g id="ytick_14">
     <g id="line2d_28">
      <g>
       <use style="stroke:#000000;stroke-width:0.8;" x="1104.28" xlink:href="#m6085443679" y="265.224"/>
      </g>
     </g>
    </g>
    <g id="ytick_15">
     <g id="line2d_29">
      <g>
       <use style="stroke:#000000;stroke-width:0.8;" x="1104.28" xlink:href="#m6085443679" y="185.456"/>
      </g>
     </g>
    </g>
    <g id="ytick_16">
     <g id="line2d_30">
      <g>
       <use style="stroke:#000000;stroke-width:0.8;" x="1104.28" xlink:href="#m6085443679" y="105.688"/>
      </g>
     </g>
    </g>
    <g id="ytick_17">
     <g id="line2d_31">
      <g>
       <use style="stroke:#000000;stroke-width:0.8;" x="1104.28" xlink:href="#m6085443679" y="25.92"/>
      </g>
     </g>
    </g>
   </g>
   <g id="patch_54">
    <path d="M 50.96 424.76 
L 50.96 25.92 
" style="fill:none;stroke:#000000;stroke-linecap:square;stroke-linejoin:miter;stroke-width:0.8;"/>
   </g>
   <g id="patch_55">
    <path d="M 1104.28 424.76 
L 1104.28 25.92 
" style="fill:none;stroke:#000000;stroke-linecap:square;stroke-linejoin:miter;stroke-width:0.8;"/>
   </g>
   <g id="patch_56">
    <path d="M 50.96 424.76 
L 1104.28 424.76 
" style="fill:none;stroke:#000000;stroke-linecap:square;stroke-linejoin:miter;stroke-width:0.8;"/>
   </g>
   <g id="patch_57">
    <path d="M 50.96 25.92 
L 1104.28 25.92 
" style="fill:none;stroke:#000000;stroke-linecap:square;stroke-linejoin:miter;stroke-width:0.8;"/>
   </g>
   <g id="text_18">
    <!-- RankIC: (2010-01-04 ~ 2010-10-08) -->
    <g transform="translate(469.482187 19.92)scale(0.12 -0.12)">
     <defs>
      <path d="M 11.71875 12.40625 
L 22.015625 12.40625 
L 22.015625 0 
L 11.71875 0 
z
M 11.71875 51.703125 
L 22.015625 51.703125 
L 22.015625 39.3125 
L 11.71875 39.3125 
z
" id="DejaVuSans-58"/>
      <path d="M 31 75.875 
Q 24.46875 64.65625 21.28125 53.65625 
Q 18.109375 42.671875 18.109375 31.390625 
Q 18.109375 20.125 21.3125 9.0625 
Q 24.515625 -2 31 -13.1875 
L 23.1875 -13.1875 
Q 15.875 -1.703125 12.234375 9.375 
Q 8.59375 20.453125 8.59375 31.390625 
Q 8.59375 42.28125 12.203125 53.3125 
Q 15.828125 64.359375 23.1875 75.875 
z
" id="DejaVuSans-40"/>
      <path d="M 73.1875 39.890625 
L 73.1875 31.203125 
Q 68.0625 27.34375 63.6875 25.6875 
Q 59.328125 24.03125 54.59375 24.03125 
Q 49.21875 24.03125 42.09375 26.90625 
Q 41.546875 27.09375 41.3125 27.203125 
Q 40.96875 27.34375 40.234375 27.59375 
Q 32.671875 30.609375 28.078125 30.609375 
Q 23.78125 30.609375 19.578125 28.734375 
Q 15.375 26.859375 10.59375 22.796875 
L 10.59375 31.5 
Q 15.71875 35.359375 20.09375 37.03125 
Q 24.46875 38.71875 29.203125 38.71875 
Q 34.578125 38.71875 41.75 35.796875 
Q 42.234375 35.59375 42.484375 35.5 
Q 42.875 35.359375 43.5625 35.109375 
Q 51.125 32.078125 55.71875 32.078125 
Q 59.90625 32.078125 64.03125 33.9375 
Q 68.171875 35.796875 73.1875 39.890625 
z
" id="DejaVuSans-126"/>
      <path d="M 31.78125 34.625 
Q 24.75 34.625 20.71875 30.859375 
Q 16.703125 27.09375 16.703125 20.515625 
Q 16.703125 13.921875 20.71875 10.15625 
Q 24.75 6.390625 31.78125 6.390625 
Q 38.8125 6.390625 42.859375 10.171875 
Q 46.921875 13.96875 46.921875 20.515625 
Q 46.921875 27.09375 42.890625 30.859375 
Q 38.875 34.625 31.78125 34.625 
z
M 21.921875 38.8125 
Q 15.578125 40.375 12.03125 44.71875 
Q 8.5 49.078125 8.5 55.328125 
Q 8.5 64.0625 14.71875 69.140625 
Q 20.953125 74.21875 31.78125 74.21875 
Q 42.671875 74.21875 48.875 69.140625 
Q 55.078125 64.0625 55.078125 55.328125 
Q 55.078125 49.078125 51.53125 44.71875 
Q 48 40.375 41.703125 38.8125 
Q 48.828125 37.15625 52.796875 32.3125 
Q 56.78125 27.484375 56.78125 20.515625 
Q 56.78125 9.90625 50.3125 4.234375 
Q 43.84375 -1.421875 31.78125 -1.421875 
Q 19.734375 -1.421875 13.25 4.234375 
Q 6.78125 9.90625 6.78125 20.515625 
Q 6.78125 27.484375 10.78125 32.3125 
Q 14.796875 37.15625 21.921875 38.8125 
z
M 18.3125 54.390625 
Q 18.3125 48.734375 21.84375 45.5625 
Q 25.390625 42.390625 31.78125 42.390625 
Q 38.140625 42.390625 41.71875 45.5625 
Q 45.3125 48.734375 45.3125 54.390625 
Q 45.3125 60.0625 41.71875 63.234375 
Q 38.140625 66.40625 31.78125 66.40625 
Q 25.390625 66.40625 21.84375 63.234375 
Q 18.3125 60.0625 18.3125 54.390625 
z
" id="DejaVuSans-56"/>
      <path d="M 8.015625 75.875 
L 15.828125 75.875 
Q 23.140625 64.359375 26.78125 53.3125 
Q 30.421875 42.28125 30.421875 31.390625 
Q 30.421875 20.453125 26.78125 9.375 
Q 23.140625 -1.703125 15.828125 -13.1875 
L 8.015625 -13.1875 
Q 14.5 -2 17.703125 9.0625 
Q 20.90625 20.125 20.90625 31.390625 
Q 20.90625 42.671875 17.703125 53.65625 
Q 14.5 64.65625 8.015625 75.875 
z
" id="DejaVuSans-41"/>
     </defs>
     <use xlink:href="#DejaVuSans-82"/>
     <use x="67.232422" xlink:href="#DejaVuSans-97"/>
     <use x="128.511719" xlink:href="#DejaVuSans-110"/>
     <use x="191.890625" xlink:href="#DejaVuSans-107"/>
     <use x="249.800781" xlink:href="#DejaVuSans-73"/>
     <use x="279.292969" xlink:href="#DejaVuSans-67"/>
     <use x="349.117188" xlink:href="#DejaVuSans-58"/>
     <use x="382.808594" xlink:href="#DejaVuSans-32"/>
     <use x="414.595703" xlink:href="#DejaVuSans-40"/>
     <use x="453.609375" xlink:href="#DejaVuSans-50"/>
     <use x="517.232422" xlink:href="#DejaVuSans-48"/>
     <use x="580.855469" xlink:href="#DejaVuSans-49"/>
     <use x="644.478516" xlink:href="#DejaVuSans-48"/>
     <use x="708.101562" xlink:href="#DejaVuSans-45"/>
     <use x="744.185547" xlink:href="#DejaVuSans-48"/>
     <use x="807.808594" xlink:href="#DejaVuSans-49"/>
     <use x="871.431641" xlink:href="#DejaVuSans-45"/>
     <use x="907.515625" xlink:href="#DejaVuSans-48"/>
     <use x="971.138672" xlink:href="#DejaVuSans-52"/>
     <use x="1034.761719" xlink:href="#DejaVuSans-32"/>
     <use x="1066.548828" xlink:href="#DejaVuSans-126"/>
     <use x="1150.337891" xlink:href="#DejaVuSans-32"/>
     <use x="1182.125" xlink:href="#DejaVuSans-50"/>
     <use x="1245.748047" xlink:href="#DejaVuSans-48"/>
     <use x="1309.371094" xlink:href="#DejaVuSans-49"/>
     <use x="1372.994141" xlink:href="#DejaVuSans-48"/>
     <use x="1436.617188" xlink:href="#DejaVuSans-45"/>
     <use x="1472.701172" xlink:href="#DejaVuSans-49"/>
     <use x="1536.324219" xlink:href="#DejaVuSans-48"/>
     <use x="1599.947266" xlink:href="#DejaVuSans-45"/>
     <use x="1636.03125" xlink:href="#DejaVuSans-48"/>
     <use x="1699.654297" xlink:href="#DejaVuSans-56"/>
     <use x="1763.277344" xlink:href="#DejaVuSans-41"/>
    </g>
   </g>
   <g id="legend_3">
    <g id="patch_58">
     <path d="M 491.373125 92.6325 
L 663.866875 92.6325 
Q 665.866875 92.6325 665.866875 90.6325 
L 665.866875 32.92 
Q 665.866875 30.92 663.866875 30.92 
L 491.373125 30.92 
Q 489.373125 30.92 489.373125 32.92 
L 489.373125 90.6325 
Q 489.373125 92.6325 491.373125 92.6325 
z
" style="fill:#ffffff;opacity:0.8;stroke:#cccccc;stroke-linejoin:miter;"/>
    </g>
    <g id="line2d_32"/>
    <g id="line2d_33"/>
    <g id="text_19">
     <!-- RankIC mean:  -0.1184         -->
     <g transform="translate(521.373125 42.518438)scale(0.1 -0.1)">
      <use xlink:href="#DejaVuSans-82"/>
      <use x="67.232422" xlink:href="#DejaVuSans-97"/>
      <use x="128.511719" xlink:href="#DejaVuSans-110"/>
      <use x="191.890625" xlink:href="#DejaVuSans-107"/>
      <use x="249.800781" xlink:href="#DejaVuSans-73"/>
      <use x="279.292969" xlink:href="#DejaVuSans-67"/>
      <use x="349.117188" xlink:href="#DejaVuSans-32"/>
      <use x="380.904297" xlink:href="#DejaVuSans-109"/>
      <use x="478.316406" xlink:href="#DejaVuSans-101"/>
      <use x="539.839844" xlink:href="#DejaVuSans-97"/>
      <use x="601.119141" xlink:href="#DejaVuSans-110"/>
      <use x="664.498047" xlink:href="#DejaVuSans-58"/>
      <use x="698.189453" xlink:href="#DejaVuSans-32"/>
      <use x="729.976562" xlink:href="#DejaVuSans-32"/>
      <use x="761.763672" xlink:href="#DejaVuSans-45"/>
      <use x="797.847656" xlink:href="#DejaVuSans-48"/>
      <use x="861.470703" xlink:href="#DejaVuSans-46"/>
      <use x="893.257812" xlink:href="#DejaVuSans-49"/>
      <use x="956.880859" xlink:href="#DejaVuSans-49"/>
      <use x="1020.503906" xlink:href="#DejaVuSans-56"/>
      <use x="1084.126953" xlink:href="#DejaVuSans-52"/>
      <use x="1147.75" xlink:href="#DejaVuSans-32"/>
      <use x="1179.537109" xlink:href="#DejaVuSans-32"/>
      <use x="1211.324219" xlink:href="#DejaVuSans-32"/>
      <use x="1243.111328" xlink:href="#DejaVuSans-32"/>
      <use x="1274.898438" xlink:href="#DejaVuSans-32"/>
      <use x="1306.685547" xlink:href="#DejaVuSans-32"/>
      <use x="1338.472656" xlink:href="#DejaVuSans-32"/>
      <use x="1370.259766" xlink:href="#DejaVuSans-32"/>
     </g>
    </g>
    <g id="line2d_34"/>
    <g id="line2d_35"/>
    <g id="text_20">
     <!-- RankIC std:       0.3169         -->
     <g transform="translate(521.373125 57.196563)scale(0.1 -0.1)">
      <defs>
       <path d="M 18.3125 70.21875 
L 18.3125 54.6875 
L 36.8125 54.6875 
L 36.8125 47.703125 
L 18.3125 47.703125 
L 18.3125 18.015625 
Q 18.3125 11.328125 20.140625 9.421875 
Q 21.96875 7.515625 27.59375 7.515625 
L 36.8125 7.515625 
L 36.8125 0 
L 27.59375 0 
Q 17.1875 0 13.234375 3.875 
Q 9.28125 7.765625 9.28125 18.015625 
L 9.28125 47.703125 
L 2.6875 47.703125 
L 2.6875 54.6875 
L 9.28125 54.6875 
L 9.28125 70.21875 
z
" id="DejaVuSans-116"/>
       <path d="M 40.578125 39.3125 
Q 47.65625 37.796875 51.625 33 
Q 55.609375 28.21875 55.609375 21.1875 
Q 55.609375 10.40625 48.1875 4.484375 
Q 40.765625 -1.421875 27.09375 -1.421875 
Q 22.515625 -1.421875 17.65625 -0.515625 
Q 12.796875 0.390625 7.625 2.203125 
L 7.625 11.71875 
Q 11.71875 9.328125 16.59375 8.109375 
Q 21.484375 6.890625 26.8125 6.890625 
Q 36.078125 6.890625 40.9375 10.546875 
Q 45.796875 14.203125 45.796875 21.1875 
Q 45.796875 27.640625 41.28125 31.265625 
Q 36.765625 34.90625 28.71875 34.90625 
L 20.21875 34.90625 
L 20.21875 43.015625 
L 29.109375 43.015625 
Q 36.375 43.015625 40.234375 45.921875 
Q 44.09375 48.828125 44.09375 54.296875 
Q 44.09375 59.90625 40.109375 62.90625 
Q 36.140625 65.921875 28.71875 65.921875 
Q 24.65625 65.921875 20.015625 65.03125 
Q 15.375 64.15625 9.8125 62.3125 
L 9.8125 71.09375 
Q 15.4375 72.65625 20.34375 73.4375 
Q 25.25 74.21875 29.59375 74.21875 
Q 40.828125 74.21875 47.359375 69.109375 
Q 53.90625 64.015625 53.90625 55.328125 
Q 53.90625 49.265625 50.4375 45.09375 
Q 46.96875 40.921875 40.578125 39.3125 
z
" id="DejaVuSans-51"/>
       <path d="M 10.984375 1.515625 
L 10.984375 10.5 
Q 14.703125 8.734375 18.5 7.8125 
Q 22.3125 6.890625 25.984375 6.890625 
Q 35.75 6.890625 40.890625 13.453125 
Q 46.046875 20.015625 46.78125 33.40625 
Q 43.953125 29.203125 39.59375 26.953125 
Q 35.25 24.703125 29.984375 24.703125 
Q 19.046875 24.703125 12.671875 31.3125 
Q 6.296875 37.9375 6.296875 49.421875 
Q 6.296875 60.640625 12.9375 67.421875 
Q 19.578125 74.21875 30.609375 74.21875 
Q 43.265625 74.21875 49.921875 64.515625 
Q 56.59375 54.828125 56.59375 36.375 
Q 56.59375 19.140625 48.40625 8.859375 
Q 40.234375 -1.421875 26.421875 -1.421875 
Q 22.703125 -1.421875 18.890625 -0.6875 
Q 15.09375 0.046875 10.984375 1.515625 
z
M 30.609375 32.421875 
Q 37.25 32.421875 41.125 36.953125 
Q 45.015625 41.5 45.015625 49.421875 
Q 45.015625 57.28125 41.125 61.84375 
Q 37.25 66.40625 30.609375 66.40625 
Q 23.96875 66.40625 20.09375 61.84375 
Q 16.21875 57.28125 16.21875 49.421875 
Q 16.21875 41.5 20.09375 36.953125 
Q 23.96875 32.421875 30.609375 32.421875 
z
" id="DejaVuSans-57"/>
      </defs>
      <use xlink:href="#DejaVuSans-82"/>
      <use x="67.232422" xlink:href="#DejaVuSans-97"/>
      <use x="128.511719" xlink:href="#DejaVuSans-110"/>
      <use x="191.890625" xlink:href="#DejaVuSans-107"/>
      <use x="249.800781" xlink:href="#DejaVuSans-73"/>
      <use x="279.292969" xlink:href="#DejaVuSans-67"/>
      <use x="349.117188" xlink:href="#DejaVuSans-32"/>
      <use x="380.904297" xlink:href="#DejaVuSans-115"/>
      <use x="433.003906" xlink:href="#DejaVuSans-116"/>
      <use x="472.212891" xlink:href="#DejaVuSans-100"/>
      <use x="535.689453" xlink:href="#DejaVuSans-58"/>
      <use x="569.380859" xlink:href="#DejaVuSans-32"/>
      <use x="601.167969" xlink:href="#DejaVuSans-32"/>
      <use x="632.955078" xlink:href="#DejaVuSans-32"/>
      <use x="664.742188" xlink:href="#DejaVuSans-32"/>
      <use x="696.529297" xlink:href="#DejaVuSans-32"/>
      <use x="728.316406" xlink:href="#DejaVuSans-32"/>
      <use x="760.103516" xlink:href="#DejaVuSans-32"/>
      <use x="791.890625" xlink:href="#DejaVuSans-48"/>
      <use x="855.513672" xlink:href="#DejaVuSans-46"/>
      <use x="887.300781" xlink:href="#DejaVuSans-51"/>
      <use x="950.923828" xlink:href="#DejaVuSans-49"/>
      <use x="1014.546875" xlink:href="#DejaVuSans-54"/>
      <use x="1078.169922" xlink:href="#DejaVuSans-57"/>
      <use x="1141.792969" xlink:href="#DejaVuSans-32"/>
      <use x="1173.580078" xlink:href="#DejaVuSans-32"/>
      <use x="1205.367188" xlink:href="#DejaVuSans-32"/>
      <use x="1237.154297" xlink:href="#DejaVuSans-32"/>
      <use x="1268.941406" xlink:href="#DejaVuSans-32"/>
      <use x="1300.728516" xlink:href="#DejaVuSans-32"/>
      <use x="1332.515625" xlink:href="#DejaVuSans-32"/>
      <use x="1364.302734" xlink:href="#DejaVuSans-32"/>
     </g>
    </g>
    <g id="line2d_36"/>
    <g id="line2d_37"/>
    <g id="text_21">
     <!-- RankIC IR:        -0.3736         -->
     <g transform="translate(521.373125 71.874688)scale(0.1 -0.1)">
      <defs>
       <path d="M 8.203125 72.90625 
L 55.078125 72.90625 
L 55.078125 68.703125 
L 28.609375 0 
L 18.3125 0 
L 43.21875 64.59375 
L 8.203125 64.59375 
z
" id="DejaVuSans-55"/>
      </defs>
      <use xlink:href="#DejaVuSans-82"/>
      <use x="67.232422" xlink:href="#DejaVuSans-97"/>
      <use x="128.511719" xlink:href="#DejaVuSans-110"/>
      <use x="191.890625" xlink:href="#DejaVuSans-107"/>
      <use x="249.800781" xlink:href="#DejaVuSans-73"/>
      <use x="279.292969" xlink:href="#DejaVuSans-67"/>
      <use x="349.117188" xlink:href="#DejaVuSans-32"/>
      <use x="380.904297" xlink:href="#DejaVuSans-73"/>
      <use x="410.396484" xlink:href="#DejaVuSans-82"/>
      <use x="476.753906" xlink:href="#DejaVuSans-58"/>
      <use x="510.445312" xlink:href="#DejaVuSans-32"/>
      <use x="542.232422" xlink:href="#DejaVuSans-32"/>
      <use x="574.019531" xlink:href="#DejaVuSans-32"/>
      <use x="605.806641" xlink:href="#DejaVuSans-32"/>
      <use x="637.59375" xlink:href="#DejaVuSans-32"/>
      <use x="669.380859" xlink:href="#DejaVuSans-32"/>
      <use x="701.167969" xlink:href="#DejaVuSans-32"/>
      <use x="732.955078" xlink:href="#DejaVuSans-32"/>
      <use x="764.742188" xlink:href="#DejaVuSans-45"/>
      <use x="800.826172" xlink:href="#DejaVuSans-48"/>
      <use x="864.449219" xlink:href="#DejaVuSans-46"/>
      <use x="896.236328" xlink:href="#DejaVuSans-51"/>
      <use x="959.859375" xlink:href="#DejaVuSans-55"/>
      <use x="1023.482422" xlink:href="#DejaVuSans-51"/>
      <use x="1087.105469" xlink:href="#DejaVuSans-54"/>
      <use x="1150.728516" xlink:href="#DejaVuSans-32"/>
      <use x="1182.515625" xlink:href="#DejaVuSans-32"/>
      <use x="1214.302734" xlink:href="#DejaVuSans-32"/>
      <use x="1246.089844" xlink:href="#DejaVuSans-32"/>
      <use x="1277.876953" xlink:href="#DejaVuSans-32"/>
      <use x="1309.664062" xlink:href="#DejaVuSans-32"/>
      <use x="1341.451172" xlink:href="#DejaVuSans-32"/>
      <use x="1373.238281" xlink:href="#DejaVuSans-32"/>
     </g>
    </g>
    <g id="line2d_38"/>
    <g id="line2d_39"/>
    <g id="text_22">
     <!-- RankIC (-)rate:  0.5400 -->
     <g transform="translate(521.373125 86.552813)scale(0.1 -0.1)">
      <defs>
       <path d="M 41.109375 46.296875 
Q 39.59375 47.171875 37.8125 47.578125 
Q 36.03125 48 33.890625 48 
Q 26.265625 48 22.1875 43.046875 
Q 18.109375 38.09375 18.109375 28.8125 
L 18.109375 0 
L 9.078125 0 
L 9.078125 54.6875 
L 18.109375 54.6875 
L 18.109375 46.1875 
Q 20.953125 51.171875 25.484375 53.578125 
Q 30.03125 56 36.53125 56 
Q 37.453125 56 38.578125 55.875 
Q 39.703125 55.765625 41.0625 55.515625 
z
" id="DejaVuSans-114"/>
      </defs>
      <use xlink:href="#DejaVuSans-82"/>
      <use x="67.232422" xlink:href="#DejaVuSans-97"/>
      <use x="128.511719" xlink:href="#DejaVuSans-110"/>
      <use x="191.890625" xlink:href="#DejaVuSans-107"/>
      <use x="249.800781" xlink:href="#DejaVuSans-73"/>
      <use x="279.292969" xlink:href="#DejaVuSans-67"/>
      <use x="349.117188" xlink:href="#DejaVuSans-32"/>
      <use x="380.904297" xlink:href="#DejaVuSans-40"/>
      <use x="419.917969" xlink:href="#DejaVuSans-45"/>
      <use x="456.001953" xlink:href="#DejaVuSans-41"/>
      <use x="495.015625" xlink:href="#DejaVuSans-114"/>
      <use x="536.128906" xlink:href="#DejaVuSans-97"/>
      <use x="597.408203" xlink:href="#DejaVuSans-116"/>
      <use x="636.617188" xlink:href="#DejaVuSans-101"/>
      <use x="698.140625" xlink:href="#DejaVuSans-58"/>
      <use x="731.832031" xlink:href="#DejaVuSans-32"/>
      <use x="763.619141" xlink:href="#DejaVuSans-32"/>
      <use x="795.40625" xlink:href="#DejaVuSans-48"/>
      <use x="859.029297" xlink:href="#DejaVuSans-46"/>
      <use x="890.816406" xlink:href="#DejaVuSans-53"/>
      <use x="954.439453" xlink:href="#DejaVuSans-52"/>
      <use x="1018.0625" xlink:href="#DejaVuSans-48"/>
      <use x="1081.685547" xlink:href="#DejaVuSans-48"/>
     </g>
    </g>
   </g>
  </g>
 </g>
 <defs>
  <clipPath id="pb443699802">
   <rect height="398.84" width="1053.32" x="50.96" y="25.92"/>
  </clipPath>
 </defs>
</svg>
