<?xml version="1.0" encoding="utf-8" standalone="no"?>
<!DOCTYPE svg PUBLIC "-//W3C//DTD SVG 1.1//EN"
  "http://www.w3.org/Graphics/SVG/1.1/DTD/svg11.dtd">
<!-- Created with matplotlib (https://matplotlib.org/) -->
<svg height="316.8pt" version="1.1" viewBox="0 0 1152 316.8" width="1152pt" xmlns="http://www.w3.org/2000/svg" xmlns:xlink="http://www.w3.org/1999/xlink">
 <metadata>
  <rdf:RDF xmlns:cc="http://creativecommons.org/ns#" xmlns:dc="http://purl.org/dc/elements/1.1/" xmlns:rdf="http://www.w3.org/1999/02/22-rdf-syntax-ns#">
   <cc:Work>
    <dc:type rdf:resource="http://purl.org/dc/dcmitype/StillImage"/>
    <dc:date>2023-07-20T10:57:18.456210</dc:date>
    <dc:format>image/svg+xml</dc:format>
    <dc:creator>
     <cc:Agent>
      <dc:title>Matplotlib v3.3.4, https://matplotlib.org/</dc:title>
     </cc:Agent>
    </dc:creator>
   </cc:Work>
  </rdf:RDF>
 </metadata>
 <defs>
  <style type="text/css">*{stroke-linecap:butt;stroke-linejoin:round;}</style>
 </defs>
 <g id="figure_1">
  <g id="patch_1">
   <path d="M 0 316.8 
L 1152 316.8 
L 1152 0 
L 0 0 
z
" style="fill:#ffffff;"/>
  </g>
  <g id="axes_1">
   <g id="patch_2">
    <path d="M 33.76 273.56 
L 1141.2 273.56 
L 1141.2 25.92 
L 33.76 25.92 
z
" style="fill:#ffffff;"/>
   </g>
   <g id="matplotlib.axis_1">
    <g id="xtick_1">
     <g id="line2d_1">
      <path clip-path="url(#p95a14f1a81)" d="M 54.487487 273.56 
L 54.487487 25.92 
" style="fill:none;stroke:#b0b0b0;stroke-linecap:square;stroke-width:0.8;"/>
     </g>
     <g id="line2d_2">
      <defs>
       <path d="M 0 0 
L 0 3.5 
" id="m01bb449618" style="stroke:#000000;stroke-width:0.8;"/>
      </defs>
      <g>
       <use style="stroke:#000000;stroke-width:0.8;" x="54.487487" xlink:href="#m01bb449618" y="273.56"/>
      </g>
     </g>
     <g id="text_1">
      <!-- 2010 -->
      <g transform="translate(57.246862 306.01)rotate(-90)scale(0.1 -0.1)">
       <defs>
        <path d="M 19.1875 8.296875 
L 53.609375 8.296875 
L 53.609375 0 
L 7.328125 0 
L 7.328125 8.296875 
Q 12.9375 14.109375 22.625 23.890625 
Q 32.328125 33.6875 34.8125 36.53125 
Q 39.546875 41.84375 41.421875 45.53125 
Q 43.3125 49.21875 43.3125 52.78125 
Q 43.3125 58.59375 39.234375 62.25 
Q 35.15625 65.921875 28.609375 65.921875 
Q 23.96875 65.921875 18.8125 64.3125 
Q 13.671875 62.703125 7.8125 59.421875 
L 7.8125 69.390625 
Q 13.765625 71.78125 18.9375 73 
Q 24.125 74.21875 28.421875 74.21875 
Q 39.75 74.21875 46.484375 68.546875 
Q 53.21875 62.890625 53.21875 53.421875 
Q 53.21875 48.921875 51.53125 44.890625 
Q 49.859375 40.875 45.40625 35.40625 
Q 44.1875 33.984375 37.640625 27.21875 
Q 31.109375 20.453125 19.1875 8.296875 
z
" id="DejaVuSans-50"/>
        <path d="M 31.78125 66.40625 
Q 24.171875 66.40625 20.328125 58.90625 
Q 16.5 51.421875 16.5 36.375 
Q 16.5 21.390625 20.328125 13.890625 
Q 24.171875 6.390625 31.78125 6.390625 
Q 39.453125 6.390625 43.28125 13.890625 
Q 47.125 21.390625 47.125 36.375 
Q 47.125 51.421875 43.28125 58.90625 
Q 39.453125 66.40625 31.78125 66.40625 
z
M 31.78125 74.21875 
Q 44.046875 74.21875 50.515625 64.515625 
Q 56.984375 54.828125 56.984375 36.375 
Q 56.984375 17.96875 50.515625 8.265625 
Q 44.046875 -1.421875 31.78125 -1.421875 
Q 19.53125 -1.421875 13.0625 8.265625 
Q 6.59375 17.96875 6.59375 36.375 
Q 6.59375 54.828125 13.0625 64.515625 
Q 19.53125 74.21875 31.78125 74.21875 
z
" id="DejaVuSans-48"/>
        <path d="M 12.40625 8.296875 
L 28.515625 8.296875 
L 28.515625 63.921875 
L 10.984375 60.40625 
L 10.984375 69.390625 
L 28.421875 72.90625 
L 38.28125 72.90625 
L 38.28125 8.296875 
L 54.390625 8.296875 
L 54.390625 0 
L 12.40625 0 
z
" id="DejaVuSans-49"/>
       </defs>
       <use xlink:href="#DejaVuSans-50"/>
       <use x="63.623047" xlink:href="#DejaVuSans-48"/>
       <use x="127.246094" xlink:href="#DejaVuSans-49"/>
       <use x="190.869141" xlink:href="#DejaVuSans-48"/>
      </g>
     </g>
    </g>
    <g id="xtick_2">
     <g id="line2d_3">
      <path clip-path="url(#p95a14f1a81)" d="M 392.234479 273.56 
L 392.234479 25.92 
" style="fill:none;stroke:#b0b0b0;stroke-linecap:square;stroke-width:0.8;"/>
     </g>
     <g id="line2d_4">
      <g>
       <use style="stroke:#000000;stroke-width:0.8;" x="392.234479" xlink:href="#m01bb449618" y="273.56"/>
      </g>
     </g>
     <g id="text_2">
      <!-- 2011 -->
      <g transform="translate(394.993854 306.01)rotate(-90)scale(0.1 -0.1)">
       <use xlink:href="#DejaVuSans-50"/>
       <use x="63.623047" xlink:href="#DejaVuSans-48"/>
       <use x="127.246094" xlink:href="#DejaVuSans-49"/>
       <use x="190.869141" xlink:href="#DejaVuSans-49"/>
      </g>
     </g>
    </g>
    <g id="xtick_3">
     <g id="line2d_5">
      <path clip-path="url(#p95a14f1a81)" d="M 729.981471 273.56 
L 729.981471 25.92 
" style="fill:none;stroke:#b0b0b0;stroke-linecap:square;stroke-width:0.8;"/>
     </g>
     <g id="line2d_6">
      <g>
       <use style="stroke:#000000;stroke-width:0.8;" x="729.981471" xlink:href="#m01bb449618" y="273.56"/>
      </g>
     </g>
     <g id="text_3">
      <!-- 2012 -->
      <g transform="translate(732.740846 306.01)rotate(-90)scale(0.1 -0.1)">
       <use xlink:href="#DejaVuSans-50"/>
       <use x="63.623047" xlink:href="#DejaVuSans-48"/>
       <use x="127.246094" xlink:href="#DejaVuSans-49"/>
       <use x="190.869141" xlink:href="#DejaVuSans-50"/>
      </g>
     </g>
    </g>
    <g id="xtick_4">
     <g id="line2d_7">
      <path clip-path="url(#p95a14f1a81)" d="M 1068.653797 273.56 
L 1068.653797 25.92 
" style="fill:none;stroke:#b0b0b0;stroke-linecap:square;stroke-width:0.8;"/>
     </g>
     <g id="line2d_8">
      <g>
       <use style="stroke:#000000;stroke-width:0.8;" x="1068.653797" xlink:href="#m01bb449618" y="273.56"/>
      </g>
     </g>
     <g id="text_4">
      <!-- 2013 -->
      <g transform="translate(1071.413172 306.01)rotate(-90)scale(0.1 -0.1)">
       <defs>
        <path d="M 40.578125 39.3125 
Q 47.65625 37.796875 51.625 33 
Q 55.609375 28.21875 55.609375 21.1875 
Q 55.609375 10.40625 48.1875 4.484375 
Q 40.765625 -1.421875 27.09375 -1.421875 
Q 22.515625 -1.421875 17.65625 -0.515625 
Q 12.796875 0.390625 7.625 2.203125 
L 7.625 11.71875 
Q 11.71875 9.328125 16.59375 8.109375 
Q 21.484375 6.890625 26.8125 6.890625 
Q 36.078125 6.890625 40.9375 10.546875 
Q 45.796875 14.203125 45.796875 21.1875 
Q 45.796875 27.640625 41.28125 31.265625 
Q 36.765625 34.90625 28.71875 34.90625 
L 20.21875 34.90625 
L 20.21875 43.015625 
L 29.109375 43.015625 
Q 36.375 43.015625 40.234375 45.921875 
Q 44.09375 48.828125 44.09375 54.296875 
Q 44.09375 59.90625 40.109375 62.90625 
Q 36.140625 65.921875 28.71875 65.921875 
Q 24.65625 65.921875 20.015625 65.03125 
Q 15.375 64.15625 9.8125 62.3125 
L 9.8125 71.09375 
Q 15.4375 72.65625 20.34375 73.4375 
Q 25.25 74.21875 29.59375 74.21875 
Q 40.828125 74.21875 47.359375 69.109375 
Q 53.90625 64.015625 53.90625 55.328125 
Q 53.90625 49.265625 50.4375 45.09375 
Q 46.96875 40.921875 40.578125 39.3125 
z
" id="DejaVuSans-51"/>
       </defs>
       <use xlink:href="#DejaVuSans-50"/>
       <use x="63.623047" xlink:href="#DejaVuSans-48"/>
       <use x="127.246094" xlink:href="#DejaVuSans-49"/>
       <use x="190.869141" xlink:href="#DejaVuSans-51"/>
      </g>
     </g>
    </g>
   </g>
   <g id="matplotlib.axis_2">
    <g id="ytick_1">
     <g id="line2d_9">
      <path clip-path="url(#p95a14f1a81)" d="M 33.76 269.211675 
L 1141.2 269.211675 
" style="fill:none;stroke:#b0b0b0;stroke-linecap:square;stroke-width:0.8;"/>
     </g>
     <g id="line2d_10">
      <defs>
       <path d="M 0 0 
L -3.5 0 
" id="me8b8986d58" style="stroke:#000000;stroke-width:0.8;"/>
      </defs>
      <g>
       <use style="stroke:#000000;stroke-width:0.8;" x="33.76" xlink:href="#me8b8986d58" y="269.211675"/>
      </g>
     </g>
     <g id="text_5">
      <!-- 0.2 -->
      <g transform="translate(10.856875 273.010894)scale(0.1 -0.1)">
       <defs>
        <path d="M 10.6875 12.40625 
L 21 12.40625 
L 21 0 
L 10.6875 0 
z
" id="DejaVuSans-46"/>
       </defs>
       <use xlink:href="#DejaVuSans-48"/>
       <use x="63.623047" xlink:href="#DejaVuSans-46"/>
       <use x="95.410156" xlink:href="#DejaVuSans-50"/>
      </g>
     </g>
    </g>
    <g id="ytick_2">
     <g id="line2d_11">
      <path clip-path="url(#p95a14f1a81)" d="M 33.76 236.59234 
L 1141.2 236.59234 
" style="fill:none;stroke:#b0b0b0;stroke-linecap:square;stroke-width:0.8;"/>
     </g>
     <g id="line2d_12">
      <g>
       <use style="stroke:#000000;stroke-width:0.8;" x="33.76" xlink:href="#me8b8986d58" y="236.59234"/>
      </g>
     </g>
     <g id="text_6">
      <!-- 0.4 -->
      <g transform="translate(10.856875 240.391559)scale(0.1 -0.1)">
       <defs>
        <path d="M 37.796875 64.3125 
L 12.890625 25.390625 
L 37.796875 25.390625 
z
M 35.203125 72.90625 
L 47.609375 72.90625 
L 47.609375 25.390625 
L 58.015625 25.390625 
L 58.015625 17.1875 
L 47.609375 17.1875 
L 47.609375 0 
L 37.796875 0 
L 37.796875 17.1875 
L 4.890625 17.1875 
L 4.890625 26.703125 
z
" id="DejaVuSans-52"/>
       </defs>
       <use xlink:href="#DejaVuSans-48"/>
       <use x="63.623047" xlink:href="#DejaVuSans-46"/>
       <use x="95.410156" xlink:href="#DejaVuSans-52"/>
      </g>
     </g>
    </g>
    <g id="ytick_3">
     <g id="line2d_13">
      <path clip-path="url(#p95a14f1a81)" d="M 33.76 203.973006 
L 1141.2 203.973006 
" style="fill:none;stroke:#b0b0b0;stroke-linecap:square;stroke-width:0.8;"/>
     </g>
     <g id="line2d_14">
      <g>
       <use style="stroke:#000000;stroke-width:0.8;" x="33.76" xlink:href="#me8b8986d58" y="203.973006"/>
      </g>
     </g>
     <g id="text_7">
      <!-- 0.6 -->
      <g transform="translate(10.856875 207.772225)scale(0.1 -0.1)">
       <defs>
        <path d="M 33.015625 40.375 
Q 26.375 40.375 22.484375 35.828125 
Q 18.609375 31.296875 18.609375 23.390625 
Q 18.609375 15.53125 22.484375 10.953125 
Q 26.375 6.390625 33.015625 6.390625 
Q 39.65625 6.390625 43.53125 10.953125 
Q 47.40625 15.53125 47.40625 23.390625 
Q 47.40625 31.296875 43.53125 35.828125 
Q 39.65625 40.375 33.015625 40.375 
z
M 52.59375 71.296875 
L 52.59375 62.3125 
Q 48.875 64.0625 45.09375 64.984375 
Q 41.3125 65.921875 37.59375 65.921875 
Q 27.828125 65.921875 22.671875 59.328125 
Q 17.53125 52.734375 16.796875 39.40625 
Q 19.671875 43.65625 24.015625 45.921875 
Q 28.375 48.1875 33.59375 48.1875 
Q 44.578125 48.1875 50.953125 41.515625 
Q 57.328125 34.859375 57.328125 23.390625 
Q 57.328125 12.15625 50.6875 5.359375 
Q 44.046875 -1.421875 33.015625 -1.421875 
Q 20.359375 -1.421875 13.671875 8.265625 
Q 6.984375 17.96875 6.984375 36.375 
Q 6.984375 53.65625 15.1875 63.9375 
Q 23.390625 74.21875 37.203125 74.21875 
Q 40.921875 74.21875 44.703125 73.484375 
Q 48.484375 72.75 52.59375 71.296875 
z
" id="DejaVuSans-54"/>
       </defs>
       <use xlink:href="#DejaVuSans-48"/>
       <use x="63.623047" xlink:href="#DejaVuSans-46"/>
       <use x="95.410156" xlink:href="#DejaVuSans-54"/>
      </g>
     </g>
    </g>
    <g id="ytick_4">
     <g id="line2d_15">
      <path clip-path="url(#p95a14f1a81)" d="M 33.76 171.353671 
L 1141.2 171.353671 
" style="fill:none;stroke:#b0b0b0;stroke-linecap:square;stroke-width:0.8;"/>
     </g>
     <g id="line2d_16">
      <g>
       <use style="stroke:#000000;stroke-width:0.8;" x="33.76" xlink:href="#me8b8986d58" y="171.353671"/>
      </g>
     </g>
     <g id="text_8">
      <!-- 0.8 -->
      <g transform="translate(10.856875 175.15289)scale(0.1 -0.1)">
       <defs>
        <path d="M 31.78125 34.625 
Q 24.75 34.625 20.71875 30.859375 
Q 16.703125 27.09375 16.703125 20.515625 
Q 16.703125 13.921875 20.71875 10.15625 
Q 24.75 6.390625 31.78125 6.390625 
Q 38.8125 6.390625 42.859375 10.171875 
Q 46.921875 13.96875 46.921875 20.515625 
Q 46.921875 27.09375 42.890625 30.859375 
Q 38.875 34.625 31.78125 34.625 
z
M 21.921875 38.8125 
Q 15.578125 40.375 12.03125 44.71875 
Q 8.5 49.078125 8.5 55.328125 
Q 8.5 64.0625 14.71875 69.140625 
Q 20.953125 74.21875 31.78125 74.21875 
Q 42.671875 74.21875 48.875 69.140625 
Q 55.078125 64.0625 55.078125 55.328125 
Q 55.078125 49.078125 51.53125 44.71875 
Q 48 40.375 41.703125 38.8125 
Q 48.828125 37.15625 52.796875 32.3125 
Q 56.78125 27.484375 56.78125 20.515625 
Q 56.78125 9.90625 50.3125 4.234375 
Q 43.84375 -1.421875 31.78125 -1.421875 
Q 19.734375 -1.421875 13.25 4.234375 
Q 6.78125 9.90625 6.78125 20.515625 
Q 6.78125 27.484375 10.78125 32.3125 
Q 14.796875 37.15625 21.921875 38.8125 
z
M 18.3125 54.390625 
Q 18.3125 48.734375 21.84375 45.5625 
Q 25.390625 42.390625 31.78125 42.390625 
Q 38.140625 42.390625 41.71875 45.5625 
Q 45.3125 48.734375 45.3125 54.390625 
Q 45.3125 60.0625 41.71875 63.234375 
Q 38.140625 66.40625 31.78125 66.40625 
Q 25.390625 66.40625 21.84375 63.234375 
Q 18.3125 60.0625 18.3125 54.390625 
z
" id="DejaVuSans-56"/>
       </defs>
       <use xlink:href="#DejaVuSans-48"/>
       <use x="63.623047" xlink:href="#DejaVuSans-46"/>
       <use x="95.410156" xlink:href="#DejaVuSans-56"/>
      </g>
     </g>
    </g>
    <g id="ytick_5">
     <g id="line2d_17">
      <path clip-path="url(#p95a14f1a81)" d="M 33.76 138.734336 
L 1141.2 138.734336 
" style="fill:none;stroke:#b0b0b0;stroke-linecap:square;stroke-width:0.8;"/>
     </g>
     <g id="line2d_18">
      <g>
       <use style="stroke:#000000;stroke-width:0.8;" x="33.76" xlink:href="#me8b8986d58" y="138.734336"/>
      </g>
     </g>
     <g id="text_9">
      <!-- 1.0 -->
      <g transform="translate(10.856875 142.533555)scale(0.1 -0.1)">
       <use xlink:href="#DejaVuSans-49"/>
       <use x="63.623047" xlink:href="#DejaVuSans-46"/>
       <use x="95.410156" xlink:href="#DejaVuSans-48"/>
      </g>
     </g>
    </g>
    <g id="ytick_6">
     <g id="line2d_19">
      <path clip-path="url(#p95a14f1a81)" d="M 33.76 106.115002 
L 1141.2 106.115002 
" style="fill:none;stroke:#b0b0b0;stroke-linecap:square;stroke-width:0.8;"/>
     </g>
     <g id="line2d_20">
      <g>
       <use style="stroke:#000000;stroke-width:0.8;" x="33.76" xlink:href="#me8b8986d58" y="106.115002"/>
      </g>
     </g>
     <g id="text_10">
      <!-- 1.2 -->
      <g transform="translate(10.856875 109.914221)scale(0.1 -0.1)">
       <use xlink:href="#DejaVuSans-49"/>
       <use x="63.623047" xlink:href="#DejaVuSans-46"/>
       <use x="95.410156" xlink:href="#DejaVuSans-50"/>
      </g>
     </g>
    </g>
    <g id="ytick_7">
     <g id="line2d_21">
      <path clip-path="url(#p95a14f1a81)" d="M 33.76 73.495667 
L 1141.2 73.495667 
" style="fill:none;stroke:#b0b0b0;stroke-linecap:square;stroke-width:0.8;"/>
     </g>
     <g id="line2d_22">
      <g>
       <use style="stroke:#000000;stroke-width:0.8;" x="33.76" xlink:href="#me8b8986d58" y="73.495667"/>
      </g>
     </g>
     <g id="text_11">
      <!-- 1.4 -->
      <g transform="translate(10.856875 77.294886)scale(0.1 -0.1)">
       <use xlink:href="#DejaVuSans-49"/>
       <use x="63.623047" xlink:href="#DejaVuSans-46"/>
       <use x="95.410156" xlink:href="#DejaVuSans-52"/>
      </g>
     </g>
    </g>
    <g id="ytick_8">
     <g id="line2d_23">
      <path clip-path="url(#p95a14f1a81)" d="M 33.76 40.876333 
L 1141.2 40.876333 
" style="fill:none;stroke:#b0b0b0;stroke-linecap:square;stroke-width:0.8;"/>
     </g>
     <g id="line2d_24">
      <g>
       <use style="stroke:#000000;stroke-width:0.8;" x="33.76" xlink:href="#me8b8986d58" y="40.876333"/>
      </g>
     </g>
     <g id="text_12">
      <!-- 1.6 -->
      <g transform="translate(10.856875 44.675551)scale(0.1 -0.1)">
       <use xlink:href="#DejaVuSans-49"/>
       <use x="63.623047" xlink:href="#DejaVuSans-46"/>
       <use x="95.410156" xlink:href="#DejaVuSans-54"/>
      </g>
     </g>
    </g>
   </g>
   <g id="line2d_25">
    <path clip-path="url(#p95a14f1a81)" d="M 84.098182 136.941768 
L 85.023516 132.59023 
L 85.94885 137.938307 
L 86.874184 141.060639 
L 89.650187 137.732455 
L 90.575521 141.092224 
L 91.500856 133.340642 
L 92.42619 135.740756 
L 93.351524 132.107979 
L 96.127527 136.992545 
L 97.052861 137.294419 
L 97.978195 143.794827 
L 98.903529 145.802695 
L 99.828864 146.203949 
L 102.604866 144.698665 
L 103.530201 141.109271 
L 104.455535 139.302944 
L 105.380869 135.245315 
L 106.306203 142.554515 
L 109.082206 135.169224 
L 110.00754 145.09065 
L 111.858209 148.863282 
L 112.783543 144.119492 
L 115.559545 145.872678 
L 116.48488 149.331406 
L 117.410214 141.14054 
L 118.335548 141.874171 
L 119.260882 142.022041 
L 122.036885 142.131521 
L 122.962219 138.368378 
L 123.887553 143.061209 
L 124.812888 142.722245 
L 125.738222 141.624484 
L 128.514225 142.381001 
L 129.439559 131.878857 
L 130.364893 131.545734 
L 131.290227 136.232843 
L 132.215561 131.356367 
L 134.991564 134.257709 
L 136.842233 127.298726 
L 137.767567 144.636452 
L 138.692901 140.914108 
L 141.468904 139.915299 
L 142.394238 140.067926 
L 143.319572 141.52317 
L 144.244906 145.657289 
L 145.170241 144.697101 
L 147.946243 151.355929 
L 148.871578 152.785451 
L 149.796912 150.941537 
L 150.722246 155.967419 
L 151.64758 155.915885 
L 154.423583 158.668265 
L 155.348917 151.683108 
L 156.274251 148.201974 
L 157.199586 154.136631 
L 158.12492 153.989226 
L 160.900922 150.318989 
L 161.826257 151.900573 
L 162.751591 154.817087 
L 163.676925 153.675557 
L 164.602259 156.030932 
L 167.378262 139.440532 
L 168.303596 132.423743 
L 169.22893 130.439425 
L 170.154265 128.123723 
L 171.079599 128.400452 
L 173.855602 128.851979 
L 174.780936 126.547015 
L 175.70627 123.134297 
L 176.631604 122.223329 
L 177.556939 127.452995 
L 180.332941 128.729726 
L 181.258275 133.114891 
L 182.18361 132.051142 
L 183.108944 123.82524 
L 184.034278 130.34485 
L 186.810281 132.257594 
L 187.735615 134.588274 
L 188.660949 134.18538 
L 189.586283 135.668807 
L 190.511618 138.583388 
L 193.28762 141.821004 
L 194.212955 122.451009 
L 195.138289 123.285639 
L 196.063623 117.438886 
L 196.988957 116.69903 
L 199.76496 117.57391 
L 200.690294 112.81527 
L 201.615628 115.306364 
L 202.540963 117.07701 
L 203.466297 121.039437 
L 206.242299 125.849405 
L 207.167634 119.551217 
L 208.092968 117.182965 
L 209.018302 106.629047 
L 209.943636 113.937133 
L 212.719639 115.822987 
L 213.644973 113.97701 
L 214.570307 113.726939 
L 215.495642 126.997909 
L 216.420976 122.797043 
L 219.196979 115.356336 
L 220.122313 107.20983 
L 221.047647 101.885916 
L 221.972981 120.256174 
L 222.898316 117.755538 
L 225.674318 111.425046 
L 226.599652 102.526939 
L 228.450321 105.72638 
L 229.375655 104.859084 
L 232.151658 108.264477 
L 233.076992 102.855305 
L 234.002326 103.839201 
L 234.92766 105.434013 
L 235.852995 100.368293 
L 238.628997 99.227629 
L 239.554332 106.471118 
L 240.479666 107.311963 
L 241.405 101.918502 
L 242.330334 100.715738 
L 245.106337 95.14235 
L 246.031671 89.033663 
L 246.957005 88.172804 
L 247.88234 90.636361 
L 248.807674 103.038237 
L 251.583676 74.051078 
L 252.509011 69.327841 
L 253.434345 61.914567 
L 254.359679 56.679367 
L 255.285013 53.902178 
L 258.061016 43.003558 
L 258.98635 51.891837 
L 259.911684 50.089437 
L 260.837019 53.019164 
L 261.762353 51.49055 
L 264.538356 49.13516 
L 265.46369 56.119175 
L 266.389024 44.325335 
L 267.314358 43.018071 
L 268.239693 45.063073 
L 271.015695 38.358226 
L 271.941029 47.561991 
L 272.866364 50.391707 
L 273.791698 48.03828 
L 274.717032 42.86565 
L 277.493035 37.176364 
L 278.418369 39.819195 
L 279.343703 102.772894 
L 280.269037 108.383191 
L 281.194372 112.126195 
L 283.970374 108.604359 
L 284.895709 102.268921 
L 285.821043 103.660039 
L 286.746377 107.980683 
L 287.671711 103.318508 
L 290.447714 105.616626 
L 291.373048 100.018227 
L 292.298382 96.663171 
L 293.223717 96.865464 
L 294.149051 95.305106 
L 296.925053 100.237643 
L 297.850388 100.967811 
L 298.775722 107.716232 
L 299.701056 113.393752 
L 300.62639 108.1796 
L 303.402393 99.811666 
L 304.327727 104.205586 
L 305.253061 106.666547 
L 306.178396 112.924427 
L 307.10373 110.853854 
L 309.879733 113.104752 
L 310.805067 110.633143 
L 311.730401 117.684613 
L 312.655735 113.561219 
L 313.58107 114.565743 
L 316.357072 117.289339 
L 317.282406 119.765052 
L 318.207741 122.695162 
L 319.133075 121.792975 
L 320.058409 125.943612 
L 322.834412 128.961008 
L 325.610414 116.857368 
L 326.535749 115.531361 
L 329.311751 115.642205 
L 330.237086 122.667945 
L 331.16242 126.701574 
L 332.087754 127.515369 
L 333.013088 126.792311 
L 335.789091 105.216171 
L 336.714425 100.597919 
L 337.639759 101.224745 
L 338.565094 100.841136 
L 339.490428 93.901399 
L 342.26643 93.954203 
L 343.191765 95.674348 
L 344.117099 95.394327 
L 345.042433 99.65026 
L 345.967767 99.668188 
L 348.74377 96.061778 
L 349.669104 92.508477 
L 350.594439 92.245845 
L 351.519773 85.726768 
L 352.445107 83.896179 
L 355.22111 82.136717 
L 356.146444 83.214812 
L 357.071778 80.679084 
L 357.997112 82.057623 
L 358.922447 83.767488 
L 361.698449 82.598624 
L 362.623783 85.606648 
L 363.549118 116.374433 
L 364.474452 122.950162 
L 365.399786 119.133895 
L 368.175789 120.292576 
L 370.026457 126.545796 
L 370.951791 124.317165 
L 371.877126 127.666822 
L 374.653128 127.43647 
L 375.578463 126.902719 
L 376.503797 129.80142 
L 377.429131 131.354606 
L 378.354465 130.071285 
L 381.130468 128.281281 
L 382.055802 127.96591 
L 382.981136 130.181746 
L 383.906471 128.285375 
L 384.831805 128.443895 
L 387.607807 125.853401 
L 388.533142 128.949232 
L 390.38381 124.600417 
L 391.309144 130.003025 
L 394.085147 120.603048 
L 395.010481 118.991656 
L 395.935816 116.025935 
L 396.86115 115.821144 
L 397.786484 111.852402 
L 400.562487 107.852163 
L 401.487821 106.936303 
L 402.413155 97.951556 
L 403.338489 95.873438 
L 404.263824 101.830227 
L 407.039826 104.385838 
L 407.96516 103.860314 
L 408.890495 102.723218 
L 409.815829 102.563543 
L 410.741163 103.186082 
L 413.517166 109.363176 
L 414.4425 114.940415 
L 415.367834 114.282259 
L 416.293168 120.684883 
L 417.218503 122.078352 
L 419.994505 124.502955 
L 420.91984 104.057935 
L 421.845174 98.732812 
L 422.770508 103.410979 
L 423.695842 98.028427 
L 426.471845 94.014 
L 427.397179 95.522878 
L 428.322513 99.477742 
L 429.247848 95.668785 
L 430.173182 90.444503 
L 432.949184 88.370028 
L 433.874519 91.850295 
L 434.799853 85.81209 
L 435.725187 82.118535 
L 436.650521 83.308791 
L 439.426524 82.485865 
L 440.351858 87.231989 
L 441.277193 87.49824 
L 442.202527 90.830664 
L 443.127861 92.155212 
L 445.903864 88.190685 
L 446.829198 126.431341 
L 447.754532 122.372479 
L 448.679866 129.614218 
L 449.605201 128.960997 
L 452.381203 126.719036 
L 453.306537 121.328287 
L 454.231872 124.427045 
L 455.157206 123.96092 
L 456.08254 117.068351 
L 458.858543 117.486483 
L 459.783877 122.458479 
L 460.709211 125.893487 
L 461.634545 124.734731 
L 462.55988 125.548291 
L 465.335882 127.477963 
L 466.261217 131.917774 
L 467.186551 132.669161 
L 468.111885 139.269969 
L 469.037219 136.477196 
L 471.813222 135.416241 
L 472.738556 138.530773 
L 473.66389 139.960678 
L 474.589225 138.593636 
L 475.514559 129.471414 
L 478.290561 129.837206 
L 479.215896 121.437966 
L 480.14123 118.862736 
L 481.066564 121.069795 
L 481.991898 121.522072 
L 484.767901 121.861265 
L 485.693235 122.480271 
L 486.61857 119.987644 
L 487.543904 122.154767 
L 488.469238 122.135056 
L 491.245241 128.262224 
L 492.170575 122.862877 
L 493.095909 126.529111 
L 494.021243 121.508119 
L 494.946578 121.775436 
L 497.72258 124.82478 
L 498.647914 126.358852 
L 500.498583 118.983603 
L 501.423917 126.862041 
L 504.19992 144.311295 
L 505.125254 142.384607 
L 506.050588 143.564309 
L 506.975922 141.37875 
L 507.901257 141.18007 
L 510.677259 140.419879 
L 511.602594 136.985968 
L 512.527928 138.914725 
L 513.453262 144.635657 
L 514.378596 144.200462 
L 517.154599 145.689072 
L 518.079933 143.194707 
L 519.005267 142.232122 
L 519.930602 143.767256 
L 520.855936 144.834879 
L 523.631939 142.369745 
L 524.557273 143.365983 
L 525.482607 150.768797 
L 526.407941 156.820083 
L 527.333275 157.758023 
L 530.109278 155.586166 
L 531.034612 156.75884 
L 531.959947 152.929822 
L 532.885281 156.192736 
L 533.810615 156.672534 
L 536.586618 155.606945 
L 537.511952 159.842807 
L 538.437286 167.046362 
L 539.36262 168.830575 
L 540.287955 169.202883 
L 543.063957 164.964966 
L 543.989291 161.021419 
L 544.914626 162.628578 
L 545.83996 165.631751 
L 546.765294 160.167396 
L 549.541297 165.294779 
L 550.466631 166.465052 
L 551.391965 165.8145 
L 552.317299 166.69957 
L 553.242634 170.992313 
L 556.943971 174.725876 
L 557.869305 173.172054 
L 558.794639 172.464941 
L 559.719973 201.513511 
L 563.42131 205.192081 
L 564.346644 210.645473 
L 565.271979 212.305501 
L 566.197313 214.331029 
L 568.973316 215.713645 
L 569.89865 215.653159 
L 570.823984 217.581764 
L 571.749318 222.893865 
L 572.674652 225.334063 
L 575.450655 227.81265 
L 576.375989 227.423957 
L 577.301324 224.793808 
L 579.151992 232.094482 
L 581.927995 230.164793 
L 583.778663 228.250803 
L 584.703997 229.652084 
L 585.629332 231.365896 
L 588.405334 199.126954 
L 589.330668 197.238071 
L 590.256003 197.03041 
L 591.181337 197.108748 
L 592.106671 196.107894 
L 594.882674 196.814875 
L 595.808008 196.356694 
L 596.733342 193.277499 
L 597.658676 193.524997 
L 598.584011 196.096783 
L 601.360013 195.262316 
L 602.285348 195.898112 
L 604.136016 191.325901 
L 605.06135 189.183467 
L 607.837353 186.089801 
L 608.762687 184.715425 
L 609.688021 187.784745 
L 610.613356 192.649446 
L 611.53869 191.835155 
L 614.314693 195.829787 
L 615.240027 197.779974 
L 616.165361 195.273077 
L 617.090695 207.050079 
L 618.016029 206.506815 
L 620.792032 206.628638 
L 621.717366 207.246638 
L 622.642701 205.04358 
L 623.568035 205.41026 
L 624.493369 206.627932 
L 628.194706 212.938439 
L 629.12004 214.627768 
L 630.045374 216.775889 
L 630.970709 214.475249 
L 633.746711 211.24908 
L 634.672045 212.936203 
L 635.59738 209.499289 
L 636.522714 206.730944 
L 637.448048 209.019414 
L 640.224051 211.448664 
L 641.149385 208.734905 
L 642.074719 207.204653 
L 643.000053 212.001877 
L 643.925388 210.312381 
L 647.626725 209.181554 
L 648.552059 211.784887 
L 650.402727 210.856039 
L 653.17873 210.319851 
L 654.104064 211.537846 
L 655.029398 209.735835 
L 655.954733 208.595031 
L 656.880067 208.917963 
L 659.65607 212.284257 
L 660.581404 211.974378 
L 661.506738 215.134491 
L 662.432072 215.160654 
L 663.357406 216.154019 
L 666.133409 215.007531 
L 667.058743 214.240396 
L 667.984078 212.129179 
L 668.909412 211.470925 
L 669.834746 214.553132 
L 672.610749 212.605332 
L 673.536083 222.475922 
L 674.461417 226.392807 
L 675.386751 228.219787 
L 676.312086 228.488618 
L 679.088088 228.247433 
L 680.013422 230.455289 
L 681.864091 232.800526 
L 682.789425 232.108743 
L 685.565428 231.925986 
L 686.490762 230.96041 
L 688.34143 225.669913 
L 689.266765 224.821724 
L 692.042767 224.447583 
L 692.968102 225.231449 
L 693.893436 224.002264 
L 694.81877 227.371575 
L 695.744104 226.167085 
L 698.520107 228.474639 
L 699.445441 232.144671 
L 700.370775 230.379223 
L 701.29611 235.686147 
L 702.221444 238.813889 
L 704.997447 241.549504 
L 705.922781 239.56502 
L 706.848115 240.736356 
L 707.773449 239.198096 
L 708.698783 242.231492 
L 711.474786 242.796899 
L 712.40012 242.100659 
L 713.325455 242.739712 
L 715.176123 242.353072 
L 718.87746 240.42148 
L 719.802794 242.994877 
L 720.728128 244.174216 
L 721.653463 247.45547 
L 724.429465 247.925074 
L 725.354799 249.00537 
L 726.280134 248.563669 
L 727.205468 249.958935 
L 728.130802 250.634905 
L 730.906805 227.149258 
L 731.832139 227.47656 
L 732.757473 226.422919 
L 733.682807 226.072637 
L 734.608142 223.360568 
L 737.384144 225.516551 
L 738.309479 223.649245 
L 739.234813 219.539412 
L 740.160147 218.100018 
L 741.085481 217.67103 
L 743.861484 217.663688 
L 744.786818 215.114678 
L 745.712152 215.403325 
L 746.637487 216.02965 
L 747.562821 218.161368 
L 750.338824 216.418424 
L 751.264158 218.575013 
L 752.189492 217.66462 
L 753.114826 218.741523 
L 754.04016 217.148612 
L 756.816163 218.22868 
L 757.741497 215.971992 
L 758.666832 220.137851 
L 759.592166 217.86277 
L 760.5175 214.411001 
L 763.293503 209.674862 
L 764.218837 209.512009 
L 765.144171 208.568496 
L 766.069505 206.933308 
L 766.99484 208.531681 
L 769.770842 210.291514 
L 770.696176 212.893932 
L 771.621511 214.602799 
L 773.472179 208.015495 
L 776.248182 203.549086 
L 777.173516 206.283522 
L 778.09885 205.04291 
L 779.024184 208.346503 
L 779.949519 209.393699 
L 782.725521 207.495241 
L 783.650856 208.465048 
L 784.57619 210.810144 
L 785.501524 228.526998 
L 786.426858 227.060093 
L 789.202861 226.846326 
L 790.128195 225.914083 
L 791.053529 226.559449 
L 792.904198 228.184903 
L 795.680201 229.507385 
L 796.605535 230.463331 
L 797.530869 233.09848 
L 798.456203 233.148193 
L 799.381537 232.636548 
L 802.15754 230.060053 
L 803.082874 228.028849 
L 804.008209 228.074633 
L 804.933543 227.821114 
L 805.858877 229.004866 
L 808.63488 226.412899 
L 809.560214 228.6985 
L 810.485548 230.252237 
L 811.410882 233.07387 
L 812.336217 234.409824 
L 816.037553 236.057616 
L 816.962888 235.31379 
L 818.813556 239.311487 
L 821.589559 238.744738 
L 822.514893 239.393984 
L 823.440227 238.88053 
L 824.365561 238.984758 
L 825.290896 240.06813 
L 828.066898 240.28731 
L 828.992233 241.21937 
L 829.917567 241.164541 
L 830.842901 240.372291 
L 831.768235 242.169882 
L 834.544238 244.505121 
L 835.469572 242.646005 
L 836.394906 242.221146 
L 837.320241 241.175169 
L 838.245575 242.261924 
L 841.021578 241.28617 
L 841.946912 230.691796 
L 843.79758 229.719209 
L 844.722914 228.583344 
L 847.498917 230.562677 
L 848.424251 230.259918 
L 850.27492 224.862253 
L 851.200254 223.079159 
L 853.976257 228.210717 
L 854.901591 228.373228 
L 855.826925 230.324062 
L 856.752259 231.588999 
L 857.677594 230.496427 
L 860.453596 230.389077 
L 862.304265 234.022171 
L 863.229599 232.734922 
L 864.154933 230.918437 
L 866.930936 229.83263 
L 867.85627 229.978699 
L 868.781604 227.619713 
L 869.706939 229.566468 
L 870.632273 237.269069 
L 873.408275 234.635588 
L 874.33361 236.394802 
L 875.258944 235.860862 
L 876.184278 235.19312 
L 877.109612 236.728193 
L 879.885615 237.393514 
L 880.810949 236.595845 
L 881.736283 237.576357 
L 882.661618 236.850305 
L 883.586952 237.072049 
L 886.362955 238.330221 
L 887.288289 238.896873 
L 888.213623 237.266785 
L 889.138957 237.457374 
L 890.064291 238.418208 
L 892.840294 238.627737 
L 893.765628 237.996905 
L 894.690963 236.113432 
L 895.616297 237.17105 
L 896.541631 238.656421 
L 899.317634 250.649855 
L 900.242968 252.79106 
L 901.168302 252.888809 
L 902.093636 251.244561 
L 903.018971 252.857587 
L 905.794973 254.043723 
L 906.720307 253.963751 
L 907.645642 253.521386 
L 908.570976 254.208427 
L 909.49631 255.162758 
L 912.272313 255.887058 
L 913.197647 257.850078 
L 914.122981 258.416999 
L 915.048316 258.436784 
L 915.97365 259.401274 
L 918.749652 261.337874 
L 919.674987 261.40695 
L 920.600321 262.267458 
L 921.525655 262.303636 
L 922.450989 261.256349 
L 925.226992 262.018087 
L 926.152326 261.634852 
L 927.07766 245.06663 
L 928.002995 245.343254 
L 928.928329 246.460822 
L 931.704332 245.655334 
L 932.629666 243.983636 
L 934.480334 240.063496 
L 935.405668 238.626787 
L 938.181671 240.594049 
L 939.107005 239.34646 
L 940.03234 240.719856 
L 940.957674 239.198752 
L 941.883008 238.818891 
L 944.659011 238.039052 
L 945.584345 238.150138 
L 946.509679 239.183919 
L 947.435013 237.711608 
L 948.360348 234.95735 
L 951.13635 235.903663 
L 952.061684 234.978561 
L 952.987019 231.959068 
L 953.912353 234.526329 
L 954.837687 234.382256 
L 957.61369 246.728258 
L 958.539024 247.85708 
L 959.464358 247.047323 
L 961.315027 244.377713 
L 964.091029 242.620263 
L 965.016364 243.065813 
L 965.941698 242.032765 
L 966.867032 241.767761 
L 967.792366 244.20572 
L 970.568369 244.419566 
L 971.493703 243.483486 
L 972.419037 241.34506 
L 973.344372 242.992092 
L 974.269706 243.354516 
L 977.045709 244.611611 
L 978.896377 248.4743 
L 979.821711 248.861168 
L 980.747045 248.456875 
L 983.523048 233.977635 
L 984.448382 235.027094 
L 985.373717 232.665677 
L 986.299051 231.424112 
L 987.224385 228.735227 
L 990.000388 227.942553 
L 990.925722 229.627606 
L 991.851056 230.331191 
L 992.77639 228.501884 
L 993.701725 229.521146 
L 996.477727 228.341942 
L 997.403061 228.576392 
L 998.328396 228.623667 
L 999.25373 228.333146 
L 1000.179064 226.776713 
L 1002.955067 223.567118 
L 1003.880401 223.188684 
L 1004.805735 221.750676 
L 1005.73107 218.809091 
L 1006.656404 218.810604 
L 1010.357741 217.015103 
L 1011.283075 216.803913 
L 1012.208409 237.646016 
L 1013.133743 235.290262 
L 1015.909746 236.713327 
L 1016.83508 235.567489 
L 1017.760414 236.802568 
L 1018.685749 236.438287 
L 1019.611083 235.516083 
L 1022.387086 235.763646 
L 1023.31242 234.432515 
L 1024.237754 235.510974 
L 1025.163088 236.955195 
L 1026.088422 239.071691 
L 1028.864425 239.497552 
L 1029.789759 237.604587 
L 1030.715094 238.252513 
L 1031.640428 237.183745 
L 1032.565762 238.844237 
L 1035.341765 238.218538 
L 1036.267099 239.728229 
L 1037.192433 239.433557 
L 1038.117767 240.096925 
L 1039.043102 241.77549 
L 1041.819104 235.246402 
L 1042.744439 237.975868 
L 1044.595107 230.771872 
L 1045.520441 231.861921 
L 1048.296444 231.757476 
L 1049.221778 232.552621 
L 1050.147112 233.18502 
L 1051.072447 231.472649 
L 1051.997781 231.909664 
L 1054.773783 232.98128 
L 1055.699118 235.452156 
L 1056.624452 233.81286 
L 1057.549786 235.323912 
L 1058.47512 236.344937 
L 1062.176457 233.329463 
L 1063.101791 231.528327 
L 1064.027126 232.902968 
L 1064.95246 231.921501 
L 1067.728463 231.755584 
L 1068.653797 243.659349 
L 1069.579131 242.655379 
L 1070.504465 240.656335 
L 1071.429799 242.012095 
L 1074.205802 242.628675 
L 1075.131136 243.661547 
L 1076.056471 246.218477 
L 1076.981805 247.260455 
L 1077.907139 246.287834 
L 1080.683142 247.153371 
L 1081.608476 246.120931 
L 1082.53381 247.696053 
L 1083.459144 248.370988 
L 1084.384479 248.751071 
L 1087.160481 248.805939 
L 1088.085816 248.531991 
L 1089.01115 250.327186 
L 1089.936484 250.378584 
L 1090.861818 249.931585 
L 1090.861818 249.931585 
" style="fill:none;stroke:#1f77b4;stroke-linecap:square;stroke-width:1.5;"/>
   </g>
   <g id="line2d_26">
    <path clip-path="url(#p95a14f1a81)" d="M 84.098182 138.618496 
L 85.023516 134.398241 
L 85.94885 139.938822 
L 86.874184 142.770772 
L 89.650187 138.991729 
L 90.575521 141.727839 
L 91.500856 133.466303 
L 92.42619 133.919153 
L 93.351524 133.425906 
L 97.052861 139.359183 
L 97.978195 144.170315 
L 98.903529 144.885142 
L 99.828864 147.045505 
L 102.604866 148.300939 
L 103.530201 144.770546 
L 104.455535 142.805963 
L 105.380869 137.798412 
L 106.306203 142.718106 
L 109.082206 143.016912 
L 110.00754 152.177865 
L 110.932874 149.807288 
L 111.858209 150.657362 
L 112.783543 146.377028 
L 115.559545 145.78997 
L 116.48488 148.864199 
L 117.410214 140.447971 
L 118.335548 142.185145 
L 119.260882 143.444058 
L 122.036885 143.990701 
L 122.962219 143.016107 
L 123.887553 146.524016 
L 124.812888 148.117761 
L 125.738222 147.587122 
L 128.514225 148.255832 
L 129.439559 141.214124 
L 130.364893 140.658592 
L 131.290227 145.976212 
L 132.215561 141.822722 
L 134.991564 145.867884 
L 135.916898 145.915097 
L 136.842233 141.74918 
L 137.767567 143.189733 
L 138.692901 140.028421 
L 143.319572 143.108104 
L 144.244906 144.345641 
L 145.170241 146.564868 
L 147.946243 154.836196 
L 148.871578 156.609626 
L 149.796912 151.742447 
L 150.722246 155.46487 
L 151.64758 155.553402 
L 154.423583 157.351707 
L 155.348917 151.427091 
L 156.274251 151.158242 
L 157.199586 155.987302 
L 158.12492 156.556251 
L 160.900922 153.773984 
L 161.826257 155.772395 
L 162.751591 158.244874 
L 163.676925 157.239195 
L 164.602259 157.519119 
L 167.378262 157.18591 
L 168.303596 154.82395 
L 169.22893 154.40064 
L 170.154265 151.367441 
L 171.079599 150.236138 
L 173.855602 153.358064 
L 174.780936 152.628009 
L 175.70627 150.549938 
L 176.631604 152.765419 
L 177.556939 154.417197 
L 180.332941 154.666998 
L 181.258275 156.983165 
L 182.18361 156.188676 
L 183.108944 150.020337 
L 184.034278 152.251703 
L 186.810281 153.927383 
L 187.735615 157.058143 
L 188.660949 154.533137 
L 189.586283 155.44492 
L 190.511618 154.809347 
L 193.28762 156.42497 
L 194.212955 160.024104 
L 195.138289 161.139127 
L 196.063623 158.490974 
L 196.988957 158.131839 
L 199.76496 156.454774 
L 200.690294 158.979035 
L 201.615628 154.954726 
L 202.540963 154.35376 
L 203.466297 158.057792 
L 206.242299 158.647273 
L 207.167634 158.373345 
L 208.092968 157.866492 
L 209.018302 153.688382 
L 209.943636 154.614491 
L 212.719639 150.903643 
L 213.644973 152.398017 
L 214.570307 148.677415 
L 215.495642 156.614973 
L 216.420976 155.533694 
L 219.196979 151.961843 
L 220.122313 146.769215 
L 221.047647 144.548581 
L 221.972981 149.581748 
L 222.898316 148.789877 
L 225.674318 144.565851 
L 226.599652 139.941222 
L 227.524987 140.971974 
L 228.450321 140.594222 
L 229.375655 138.784249 
L 232.151658 140.991739 
L 233.076992 136.868787 
L 234.002326 139.067403 
L 234.92766 140.688007 
L 235.852995 134.753238 
L 238.628997 135.256438 
L 239.554332 141.317421 
L 240.479666 143.299368 
L 241.405 142.216286 
L 242.330334 141.780904 
L 245.106337 137.609388 
L 246.031671 132.224663 
L 246.957005 132.244168 
L 247.88234 132.118497 
L 248.807674 135.900947 
L 251.583676 130.874633 
L 252.509011 130.084748 
L 253.434345 124.701676 
L 254.359679 121.155852 
L 255.285013 121.306639 
L 258.061016 116.527542 
L 258.98635 120.738575 
L 259.911684 122.851417 
L 260.837019 117.25692 
L 261.762353 116.492792 
L 264.538356 112.748102 
L 265.46369 114.163418 
L 266.389024 108.257378 
L 267.314358 111.443042 
L 268.239693 111.134384 
L 271.015695 110.790279 
L 271.941029 113.195023 
L 272.866364 111.925697 
L 273.791698 110.992006 
L 274.717032 111.653748 
L 277.493035 110.591326 
L 278.418369 114.417184 
L 279.343703 117.737668 
L 280.269037 122.954264 
L 281.194372 123.987584 
L 283.970374 122.696828 
L 284.895709 120.418205 
L 285.821043 122.595096 
L 286.746377 122.875977 
L 287.671711 118.120147 
L 290.447714 120.541588 
L 291.373048 114.122563 
L 292.298382 111.040068 
L 294.149051 108.807479 
L 296.925053 111.235778 
L 297.850388 110.150564 
L 298.775722 114.087748 
L 299.701056 116.597529 
L 300.62639 112.793636 
L 303.402393 105.511963 
L 304.327727 111.51065 
L 305.253061 112.797193 
L 306.178396 118.179431 
L 307.10373 119.157897 
L 309.879733 116.522752 
L 310.805067 118.060703 
L 311.730401 122.190413 
L 312.655735 118.61244 
L 313.58107 117.55326 
L 316.357072 120.160098 
L 317.282406 124.77622 
L 318.207741 128.792966 
L 319.133075 125.44407 
L 320.058409 126.125773 
L 322.834412 127.465012 
L 323.759746 126.078552 
L 324.68508 127.1463 
L 325.610414 124.255506 
L 326.535749 125.656187 
L 329.311751 122.326398 
L 330.237086 125.973137 
L 331.16242 125.217554 
L 332.087754 127.776898 
L 333.013088 126.750604 
L 335.789091 128.595934 
L 336.714425 123.389662 
L 337.639759 121.827798 
L 338.565094 121.443031 
L 339.490428 117.385949 
L 342.26643 115.46946 
L 343.191765 116.399774 
L 344.117099 113.981552 
L 345.042433 118.299092 
L 345.967767 117.859514 
L 348.74377 114.920812 
L 349.669104 114.453237 
L 350.594439 112.637156 
L 351.519773 109.346337 
L 352.445107 108.551144 
L 355.22111 104.617948 
L 356.146444 103.535021 
L 357.071778 101.265295 
L 357.997112 101.60884 
L 358.922447 105.20654 
L 361.698449 105.96832 
L 362.623783 107.455919 
L 363.549118 106.107337 
L 364.474452 111.94501 
L 365.399786 111.049605 
L 368.175789 112.189953 
L 369.101123 117.45544 
L 370.026457 118.299975 
L 370.951791 116.757453 
L 371.877126 117.210772 
L 374.653128 116.754848 
L 375.578463 114.766709 
L 376.503797 118.137941 
L 377.429131 116.378078 
L 378.354465 115.122967 
L 381.130468 114.467763 
L 382.055802 111.886169 
L 382.981136 112.406713 
L 383.906471 108.297376 
L 384.831805 105.875772 
L 387.607807 101.231684 
L 388.533142 105.757486 
L 389.458476 104.744884 
L 390.38381 101.948251 
L 391.309144 105.710887 
L 394.085147 103.083969 
L 395.010481 99.826541 
L 395.935816 93.34105 
L 396.86115 94.438716 
L 397.786484 92.132609 
L 400.562487 92.031249 
L 401.487821 92.686577 
L 402.413155 84.547766 
L 403.338489 81.090272 
L 404.263824 83.432993 
L 407.039826 80.606526 
L 407.96516 84.970801 
L 408.890495 84.389753 
L 410.741163 87.808364 
L 413.517166 92.393526 
L 414.4425 97.8963 
L 415.367834 102.219175 
L 416.293168 103.747513 
L 417.218503 101.83796 
L 419.994505 103.250488 
L 420.91984 104.919254 
L 421.845174 100.476969 
L 422.770508 104.424548 
L 423.695842 99.996494 
L 426.471845 95.948808 
L 427.397179 96.948384 
L 428.322513 101.201055 
L 429.247848 96.415556 
L 430.173182 92.585361 
L 432.949184 92.031538 
L 433.874519 97.477767 
L 434.799853 96.835269 
L 435.725187 92.409714 
L 436.650521 92.947382 
L 439.426524 94.72273 
L 440.351858 97.340839 
L 441.277193 97.865699 
L 442.202527 100.036182 
L 443.127861 98.696313 
L 445.903864 97.208032 
L 446.829198 100.412547 
L 447.754532 94.398971 
L 448.679866 100.785097 
L 449.605201 103.10335 
L 452.381203 100.658487 
L 453.306537 97.553092 
L 454.231872 100.294822 
L 455.157206 101.675614 
L 456.08254 96.40841 
L 458.858543 93.363444 
L 459.783877 96.020127 
L 460.709211 99.849451 
L 462.55988 94.259465 
L 465.335882 93.4776 
L 466.261217 95.469621 
L 467.186551 99.279641 
L 468.111885 105.590945 
L 469.037219 100.220925 
L 471.813222 101.092077 
L 473.66389 106.684495 
L 474.589225 104.972623 
L 475.514559 104.54146 
L 478.290561 104.379308 
L 479.215896 98.324436 
L 480.14123 94.44429 
L 481.066564 97.016235 
L 481.991898 96.93942 
L 484.767901 97.099546 
L 485.693235 99.865138 
L 487.543904 92.572757 
L 488.469238 90.23458 
L 491.245241 97.505421 
L 492.170575 91.266248 
L 493.095909 93.28182 
L 494.021243 88.593474 
L 494.946578 87.762935 
L 498.647914 90.729489 
L 499.573249 86.689096 
L 500.498583 85.17676 
L 501.423917 90.909594 
L 504.19992 94.640722 
L 505.125254 90.671757 
L 506.050588 93.282595 
L 506.975922 90.792737 
L 507.901257 92.61468 
L 510.677259 90.966792 
L 511.602594 87.802825 
L 512.527928 91.612317 
L 513.453262 97.489145 
L 514.378596 100.723845 
L 517.154599 101.220914 
L 518.079933 96.912811 
L 519.005267 98.063356 
L 519.930602 103.921726 
L 520.855936 104.503042 
L 523.631939 99.938943 
L 525.482607 109.974169 
L 526.407941 113.114343 
L 527.333275 111.426079 
L 530.109278 110.614274 
L 531.034612 111.433052 
L 531.959947 106.983655 
L 532.885281 111.440913 
L 536.586618 108.302699 
L 537.511952 112.794179 
L 538.437286 120.06805 
L 540.287955 127.153524 
L 543.063957 120.600003 
L 543.989291 117.934166 
L 544.914626 120.405925 
L 545.83996 120.238012 
L 546.765294 118.641383 
L 549.541297 122.402834 
L 550.466631 121.99123 
L 553.242634 123.518803 
L 556.018636 126.370888 
L 556.943971 128.326212 
L 557.869305 128.042432 
L 558.794639 125.94182 
L 559.719973 128.195319 
L 562.495976 133.020436 
L 563.42131 135.176954 
L 564.346644 140.274042 
L 565.271979 143.116137 
L 566.197313 144.806503 
L 568.973316 146.56244 
L 569.89865 146.964632 
L 570.823984 147.519668 
L 571.749318 155.215081 
L 572.674652 157.574909 
L 575.450655 160.219929 
L 576.375989 157.753055 
L 577.301324 154.662961 
L 578.226658 160.587919 
L 579.151992 163.847196 
L 581.927995 161.407802 
L 582.853329 158.115918 
L 584.703997 162.439721 
L 585.629332 165.011503 
L 588.405334 166.630865 
L 589.330668 164.287807 
L 590.256003 164.642212 
L 591.181337 163.416553 
L 592.106671 160.76814 
L 594.882674 161.220323 
L 595.808008 163.320403 
L 596.733342 163.141466 
L 597.658676 163.975925 
L 598.584011 164.06377 
L 601.360013 163.24079 
L 602.285348 162.408722 
L 603.210682 158.119556 
L 604.136016 158.327955 
L 605.06135 156.698754 
L 607.837353 154.509079 
L 608.762687 149.371212 
L 609.688021 151.835779 
L 610.613356 156.529911 
L 611.53869 154.127103 
L 614.314693 157.529945 
L 615.240027 157.325236 
L 616.165361 156.797809 
L 617.090695 157.350291 
L 618.016029 153.355999 
L 620.792032 154.375054 
L 621.717366 155.83014 
L 622.642701 155.745075 
L 623.568035 159.591785 
L 624.493369 160.167382 
L 627.269372 165.780778 
L 628.194706 170.368974 
L 629.12004 172.979493 
L 630.045374 173.771143 
L 630.970709 173.168109 
L 633.746711 170.265885 
L 634.672045 171.689646 
L 635.59738 168.823784 
L 636.522714 166.467445 
L 637.448048 166.596408 
L 640.224051 167.471054 
L 641.149385 168.629782 
L 642.074719 166.64626 
L 643.000053 170.972437 
L 643.925388 167.950461 
L 646.70139 169.591587 
L 647.626725 169.379745 
L 648.552059 171.293541 
L 649.477393 169.212946 
L 650.402727 168.137721 
L 653.17873 168.224674 
L 654.104064 167.921208 
L 655.029398 166.075735 
L 655.954733 163.67775 
L 656.880067 164.648202 
L 659.65607 170.260964 
L 660.581404 170.370833 
L 661.506738 172.437355 
L 662.432072 173.464503 
L 663.357406 175.895072 
L 666.133409 176.430442 
L 667.058743 175.925801 
L 667.984078 174.392508 
L 668.909412 173.195464 
L 669.834746 177.931805 
L 672.610749 176.675458 
L 674.461417 183.396225 
L 675.386751 185.956733 
L 676.312086 186.68315 
L 679.088088 185.215549 
L 680.013422 187.948107 
L 680.938757 189.648379 
L 681.864091 191.940823 
L 682.789425 190.288513 
L 685.565428 190.435248 
L 686.490762 189.796471 
L 687.416096 186.913971 
L 688.34143 183.292427 
L 689.266765 182.575899 
L 692.042767 182.635714 
L 692.968102 182.449621 
L 693.893436 180.850695 
L 694.81877 184.74726 
L 695.744104 182.496482 
L 698.520107 185.300349 
L 699.445441 189.807958 
L 700.370775 186.834723 
L 701.29611 185.873067 
L 702.221444 189.340113 
L 704.997447 194.059103 
L 705.922781 192.038445 
L 706.848115 195.391432 
L 707.773449 194.573598 
L 708.698783 197.999915 
L 711.474786 196.093457 
L 712.40012 197.150189 
L 713.325455 197.893297 
L 714.250789 195.297004 
L 715.176123 194.378704 
L 717.952126 193.51776 
L 718.87746 193.911281 
L 719.802794 195.451172 
L 720.728128 195.232463 
L 721.653463 199.34783 
L 724.429465 202.035139 
L 725.354799 203.903727 
L 726.280134 204.866471 
L 727.205468 206.246944 
L 728.130802 205.815617 
L 730.906805 206.823158 
L 731.832139 208.173228 
L 732.757473 207.860608 
L 734.608142 204.750273 
L 737.384144 205.818323 
L 738.309479 204.326122 
L 739.234813 200.078613 
L 740.160147 199.693421 
L 741.085481 197.962038 
L 743.861484 197.560199 
L 744.786818 196.007498 
L 746.637487 193.622316 
L 747.562821 195.699377 
L 750.338824 195.532673 
L 751.264158 198.37061 
L 752.189492 196.764309 
L 753.114826 199.576713 
L 754.04016 200.733936 
L 756.816163 201.454827 
L 757.741497 200.686592 
L 758.666832 200.685151 
L 759.592166 200.987823 
L 760.5175 198.815926 
L 763.293503 197.732977 
L 764.218837 198.886316 
L 765.144171 199.582834 
L 766.069505 198.244304 
L 766.99484 196.531607 
L 769.770842 197.239603 
L 770.696176 199.300346 
L 771.621511 197.727046 
L 772.546845 194.536559 
L 773.472179 192.408874 
L 776.248182 189.511695 
L 777.173516 189.512523 
L 778.09885 188.569763 
L 779.024184 190.639305 
L 779.949519 190.863354 
L 782.725521 189.464054 
L 783.650856 187.195744 
L 784.57619 187.177301 
L 785.501524 188.176074 
L 786.426858 186.714898 
L 789.202861 186.612465 
L 790.128195 183.265761 
L 791.053529 185.098113 
L 791.978864 186.099301 
L 792.904198 186.391892 
L 795.680201 188.954443 
L 797.530869 195.032689 
L 798.456203 194.60175 
L 799.381537 195.150649 
L 802.15754 192.433786 
L 803.082874 190.666925 
L 804.008209 190.874672 
L 804.933543 189.197459 
L 805.858877 189.663542 
L 808.63488 184.981487 
L 809.560214 185.788533 
L 810.485548 187.211936 
L 811.410882 191.158377 
L 812.336217 193.537623 
L 815.112219 194.777952 
L 816.037553 195.485654 
L 816.962888 193.714947 
L 817.888222 197.203956 
L 818.813556 199.82081 
L 821.589559 198.399781 
L 822.514893 200.712356 
L 823.440227 198.409373 
L 824.365561 198.293118 
L 825.290896 200.963615 
L 828.066898 202.176726 
L 828.992233 203.758723 
L 829.917567 204.875589 
L 830.842901 202.676542 
L 831.768235 204.893261 
L 834.544238 206.73982 
L 835.469572 204.027628 
L 836.394906 203.744087 
L 837.320241 203.184488 
L 838.245575 204.471457 
L 841.946912 204.807573 
L 842.872246 205.233016 
L 844.722914 205.674887 
L 847.498917 205.505606 
L 848.424251 207.77871 
L 849.349586 206.746288 
L 850.27492 206.834213 
L 851.200254 206.076411 
L 853.976257 210.292734 
L 854.901591 210.34095 
L 855.826925 211.331841 
L 856.752259 211.436722 
L 857.677594 209.692493 
L 860.453596 211.028166 
L 861.37893 211.239492 
L 862.304265 212.803611 
L 863.229599 212.266843 
L 864.154933 209.85452 
L 867.85627 210.194037 
L 868.781604 207.304357 
L 869.706939 207.236768 
L 870.632273 209.150474 
L 873.408275 204.91191 
L 874.33361 207.308569 
L 875.258944 207.262638 
L 876.184278 206.713057 
L 877.109612 208.059541 
L 879.885615 208.910804 
L 880.810949 208.012683 
L 881.736283 209.536417 
L 882.661618 208.028209 
L 883.586952 209.177766 
L 886.362955 210.706586 
L 887.288289 210.731356 
L 888.213623 208.465482 
L 889.138957 208.083039 
L 890.064291 209.665992 
L 892.840294 209.09213 
L 893.765628 207.834709 
L 894.690963 204.089501 
L 896.541631 207.505049 
L 899.317634 208.278593 
L 900.242968 211.751051 
L 901.168302 211.39687 
L 902.093636 210.323451 
L 903.018971 210.769195 
L 905.794973 211.855237 
L 906.720307 211.701385 
L 907.645642 212.091541 
L 908.570976 212.211032 
L 909.49631 213.170092 
L 912.272313 214.1825 
L 913.197647 218.404074 
L 915.97365 221.171927 
L 918.749652 223.258249 
L 919.674987 222.844817 
L 921.525655 222.586332 
L 922.450989 221.957786 
L 925.226992 223.176986 
L 926.152326 222.439585 
L 927.07766 224.533757 
L 928.002995 224.535337 
L 928.928329 226.748958 
L 931.704332 225.908388 
L 932.629666 224.562779 
L 933.555 222.726006 
L 934.480334 221.141404 
L 935.405668 220.844874 
L 938.181671 222.222035 
L 939.107005 221.200983 
L 940.03234 222.574383 
L 940.957674 221.900872 
L 941.883008 223.281762 
L 945.584345 223.35875 
L 946.509679 223.630744 
L 947.435013 221.322467 
L 948.360348 217.173295 
L 951.13635 216.407454 
L 952.061684 216.958017 
L 952.987019 215.804196 
L 953.912353 219.431341 
L 954.837687 220.361011 
L 957.61369 222.952968 
L 958.539024 224.731598 
L 959.464358 224.143157 
L 960.389693 223.22052 
L 961.315027 221.656215 
L 964.091029 220.509325 
L 965.016364 222.334498 
L 965.941698 221.828844 
L 966.867032 222.678511 
L 967.792366 225.759155 
L 970.568369 227.547697 
L 972.419037 223.833658 
L 973.344372 225.475379 
L 974.269706 226.729485 
L 977.045709 229.53105 
L 978.896377 232.221668 
L 979.821711 230.256207 
L 980.747045 229.105562 
L 984.448382 231.047907 
L 985.373717 229.412455 
L 986.299051 229.829044 
L 987.224385 227.379102 
L 990.000388 225.818856 
L 990.925722 226.790547 
L 991.851056 227.350814 
L 992.77639 226.038909 
L 996.477727 225.764221 
L 997.403061 226.367794 
L 998.328396 225.585629 
L 999.25373 227.133379 
L 1000.179064 226.628678 
L 1002.955067 224.588596 
L 1003.880401 224.515213 
L 1004.805735 222.743064 
L 1005.73107 219.504599 
L 1006.656404 219.873286 
L 1009.432406 218.481027 
L 1010.357741 218.91326 
L 1011.283075 216.826323 
L 1012.208409 216.553575 
L 1013.133743 214.110818 
L 1015.909746 214.86562 
L 1016.83508 214.171718 
L 1017.760414 214.302653 
L 1018.685749 213.430124 
L 1019.611083 212.143427 
L 1022.387086 213.469587 
L 1023.31242 213.484768 
L 1024.237754 214.042088 
L 1026.088422 216.478885 
L 1028.864425 215.386995 
L 1029.789759 214.877887 
L 1030.715094 217.087377 
L 1031.640428 214.146549 
L 1032.565762 215.415916 
L 1035.341765 214.93296 
L 1036.267099 217.194989 
L 1037.192433 216.34456 
L 1039.043102 220.5447 
L 1041.819104 221.906536 
L 1042.744439 224.331781 
L 1043.669773 220.695727 
L 1044.595107 219.231587 
L 1045.520441 220.378894 
L 1048.296444 220.480554 
L 1049.221778 222.7605 
L 1050.147112 223.254686 
L 1051.072447 223.043354 
L 1051.997781 221.965093 
L 1054.773783 224.47189 
L 1055.699118 226.796782 
L 1056.624452 225.946683 
L 1057.549786 227.31698 
L 1058.47512 229.677537 
L 1061.251123 228.204679 
L 1062.176457 227.938861 
L 1063.101791 228.671235 
L 1064.027126 228.968352 
L 1064.95246 228.154624 
L 1068.653797 228.302856 
L 1069.579131 227.457499 
L 1070.504465 225.16875 
L 1071.429799 226.447347 
L 1074.205802 225.779053 
L 1075.131136 225.896154 
L 1076.981805 230.544467 
L 1077.907139 230.393465 
L 1080.683142 231.968602 
L 1081.608476 229.692415 
L 1083.459144 233.643291 
L 1084.384479 233.184903 
L 1087.160481 232.516145 
L 1088.085816 232.534065 
L 1089.01115 233.452098 
L 1089.936484 232.823054 
L 1090.861818 230.920454 
L 1090.861818 230.920454 
" style="fill:none;stroke:#ff7f0e;stroke-linecap:square;stroke-width:1.5;"/>
   </g>
   <g id="line2d_27">
    <path clip-path="url(#p95a14f1a81)" d="M 84.098182 137.057609 
L 85.023516 136.969743 
L 85.94885 136.723939 
L 86.874184 136.981219 
L 89.650187 137.485179 
L 91.500856 138.641481 
L 92.42619 140.527156 
L 93.351524 137.472905 
L 96.127527 137.78927 
L 97.052861 136.67752 
L 97.978195 138.311758 
L 98.903529 139.647899 
L 99.828864 137.832528 
L 102.604866 134.916113 
L 103.530201 134.941431 
L 104.455535 135.153313 
L 105.380869 136.240611 
L 106.306203 138.539726 
L 109.082206 130.661626 
L 110.00754 130.977741 
L 110.932874 135.793988 
L 111.858209 136.835909 
L 112.783543 136.390804 
L 115.559545 138.854676 
L 116.48488 139.25818 
L 117.410214 139.471024 
L 119.260882 137.327357 
L 122.036885 136.872299 
L 122.962219 134.003775 
L 123.887553 135.114936 
L 124.812888 133.048183 
L 125.738222 132.466337 
L 128.514225 132.531836 
L 129.439559 129.143661 
L 130.364893 129.402458 
L 131.290227 128.459562 
L 134.991564 126.538126 
L 135.916898 122.642302 
L 136.842233 123.992224 
L 137.767567 140.058067 
L 138.692901 139.451026 
L 141.468904 136.595358 
L 142.394238 136.229166 
L 143.319572 136.957497 
L 144.244906 139.923867 
L 145.170241 136.646892 
L 147.946243 134.847184 
L 148.871578 134.41895 
L 149.796912 137.958729 
L 150.722246 139.352767 
L 151.64758 139.197086 
L 154.423583 140.265444 
L 155.348917 139.007648 
L 156.274251 135.523686 
L 157.199586 136.617956 
L 158.12492 135.808555 
L 160.900922 134.866597 
L 161.826257 134.355869 
L 162.751591 134.778653 
L 163.676925 134.651565 
L 164.602259 136.98573 
L 167.378262 118.608822 
L 168.303596 113.683808 
L 169.22893 112.021756 
L 170.154265 113.362303 
L 171.079599 115.079602 
L 173.855602 111.719876 
L 174.780936 110.121418 
L 175.70627 109.058995 
L 176.631604 105.253165 
L 177.556939 108.798699 
L 180.332941 109.884905 
L 181.258275 111.726486 
L 182.18361 111.570606 
L 183.108944 110.410446 
L 184.034278 114.607818 
L 186.810281 114.598703 
L 187.735615 113.208841 
L 188.660949 116.04423 
L 189.586283 116.538149 
L 190.511618 120.59279 
L 193.28762 122.195576 
L 194.212955 96.003437 
L 195.138289 95.342708 
L 196.063623 92.467517 
L 196.988957 92.152021 
L 199.76496 95.589995 
L 200.690294 86.682502 
L 201.615628 95.578995 
L 202.540963 98.38082 
L 203.466297 97.634379 
L 206.242299 102.229818 
L 207.167634 95.468173 
L 208.092968 93.516128 
L 209.018302 87.655161 
L 209.943636 94.334688 
L 212.719639 101.647593 
L 213.644973 97.678866 
L 214.570307 102.490105 
L 215.495642 106.222518 
L 216.420976 102.978966 
L 219.196979 99.569589 
L 220.122313 97.74131 
L 221.047647 95.081142 
L 221.972981 107.460434 
L 222.898316 105.794526 
L 225.674318 104.46341 
L 226.599652 101.043874 
L 227.524987 101.447152 
L 228.450321 103.469179 
L 229.375655 104.818622 
L 232.151658 105.557364 
L 233.076992 105.103818 
L 234.002326 103.454618 
L 234.92766 103.077334 
L 235.852995 105.270768 
L 238.628997 103.565866 
L 239.554332 103.440178 
L 240.479666 101.844431 
L 241.405 97.665671 
L 242.330334 96.994224 
L 245.106337 96.65653 
L 246.031671 97.32014 
L 246.957005 96.469284 
L 247.88234 98.989361 
L 248.807674 106.379916 
L 251.583676 83.800584 
L 252.509011 80.286899 
L 253.434345 80.166945 
L 254.359679 79.767361 
L 255.285013 77.066394 
L 258.061016 73.13633 
L 258.98635 75.792732 
L 259.911684 71.525456 
L 260.837019 81.404544 
L 261.762353 80.962875 
L 264.538356 83.347341 
L 265.46369 87.750414 
L 266.389024 84.212108 
L 267.314358 79.525955 
L 268.239693 81.642893 
L 271.015695 76.290557 
L 271.941029 81.330238 
L 272.866364 85.267897 
L 273.791698 84.305661 
L 274.717032 79.11793 
L 277.493035 75.469264 
L 278.418369 73.201209 
L 279.343703 124.083472 
L 280.269037 124.056371 
L 281.194372 126.469163 
L 283.970374 124.486346 
L 284.895709 120.927501 
L 285.821043 120.017772 
L 286.746377 123.696855 
L 287.671711 124.146675 
L 290.447714 123.861664 
L 291.373048 125.085304 
L 292.298382 125.049445 
L 293.223717 126.198298 
L 294.149051 125.942281 
L 296.925053 127.930361 
L 297.850388 129.550384 
L 298.775722 131.79981 
L 299.701056 134.499923 
L 300.62639 133.306044 
L 303.402393 132.515397 
L 304.327727 131.024436 
L 305.253061 131.996799 
L 306.178396 132.606893 
L 307.10373 129.850459 
L 309.879733 134.358358 
L 310.805067 130.775166 
L 311.730401 133.2398 
L 312.655735 132.822614 
L 313.58107 134.701399 
L 316.357072 134.767885 
L 317.282406 132.764166 
L 318.207741 131.649544 
L 319.133075 134.086067 
L 320.058409 137.304992 
L 322.834412 138.873451 
L 323.759746 136.229476 
L 324.68508 131.1801 
L 325.610414 130.615564 
L 326.535749 128.03767 
L 329.311751 131.42585 
L 330.237086 134.394125 
L 331.16242 138.883155 
L 332.087754 137.279032 
L 333.013088 137.566739 
L 335.789091 115.58738 
L 336.714425 116.809957 
L 337.639759 119.005737 
L 338.565094 119.046929 
L 339.490428 116.846772 
L 343.191765 119.416649 
L 344.117099 121.547756 
L 345.042433 121.120867 
L 345.967767 121.569711 
L 348.74377 121.233442 
L 349.669104 118.566598 
L 350.594439 120.112874 
L 351.519773 117.62138 
L 352.445107 116.821972 
L 355.22111 119.093219 
L 356.146444 120.993399 
L 357.071778 120.96576 
L 357.997112 121.783374 
L 358.922447 119.948974 
L 361.698449 118.269386 
L 362.623783 119.393811 
L 363.549118 146.619587 
L 364.474452 147.493564 
L 365.399786 144.928685 
L 368.175789 144.985928 
L 369.101123 143.322675 
L 370.026457 145.384216 
L 370.951791 144.70999 
L 371.877126 147.289986 
L 374.653128 147.467231 
L 375.578463 148.653004 
L 376.503797 148.430745 
L 377.429131 151.285378 
L 378.354465 151.170958 
L 381.130468 150.129548 
L 382.055802 151.944106 
L 383.906471 155.023299 
L 384.831805 156.994339 
L 387.607807 158.262995 
L 388.533142 157.549575 
L 389.458476 156.4812 
L 390.38381 156.737085 
L 391.309144 158.428775 
L 394.085147 152.504643 
L 395.010481 153.624336 
L 395.935816 155.978646 
L 396.86115 155.050001 
L 397.786484 153.550391 
L 400.562487 150.499829 
L 402.413155 148.216675 
L 403.338489 149.095273 
L 404.263824 151.891773 
L 407.039826 155.748184 
L 407.96516 152.477473 
L 408.890495 152.019795 
L 409.815829 150.669954 
L 410.741163 149.997028 
L 414.4425 151.872137 
L 415.367834 148.165309 
L 416.293168 152.23467 
L 417.218503 154.827571 
L 419.994505 155.772167 
L 420.91984 137.704925 
L 421.845174 136.98841 
L 422.770508 137.55363 
L 423.695842 136.782199 
L 426.471845 136.841096 
L 427.397179 137.237983 
L 428.322513 136.976787 
L 429.247848 137.805849 
L 430.173182 136.707774 
L 432.949184 135.524353 
L 433.874519 133.918626 
L 434.799853 129.618064 
L 435.725187 130.39134 
L 436.650521 130.879931 
L 439.426524 128.783201 
L 440.351858 130.340015 
L 441.277193 130.112621 
L 442.202527 130.955151 
L 443.127861 133.162393 
L 445.903864 131.208989 
L 446.829198 159.077522 
L 447.754532 160.036181 
L 448.679866 161.392686 
L 449.605201 159.240612 
L 452.381203 159.14558 
L 453.306537 156.955628 
L 454.231872 157.498303 
L 455.157206 156.1302 
L 456.08254 154.31841 
L 458.858543 156.838812 
L 459.783877 158.901667 
L 460.709211 158.979434 
L 461.634545 160.01367 
L 462.55988 162.602493 
L 465.335882 164.650988 
L 466.261217 166.832659 
L 467.186551 164.937191 
L 468.111885 166.013401 
L 469.037219 167.396663 
L 471.813222 165.953208 
L 472.738556 166.68537 
L 473.66389 165.878272 
L 474.589225 165.922722 
L 475.514559 158.625405 
L 478.290561 159.047025 
L 479.215896 156.452715 
L 480.14123 157.149191 
L 481.066564 157.10012 
L 481.991898 157.516528 
L 484.767901 157.675225 
L 485.693235 156.223736 
L 486.61857 156.829273 
L 487.543904 161.128229 
L 488.469238 162.684955 
L 492.170575 162.568499 
L 493.095909 164.088296 
L 494.021243 163.239635 
L 494.946578 163.984887 
L 497.72258 164.874708 
L 498.647914 165.594194 
L 499.573249 165.413782 
L 500.498583 163.489606 
L 501.423917 165.789775 
L 504.19992 176.950332 
L 505.125254 177.815096 
L 506.050588 177.199287 
L 506.975922 176.966182 
L 507.901257 175.73358 
L 510.677259 176.130098 
L 512.527928 174.570605 
L 513.453262 175.481789 
L 514.378596 173.131902 
L 517.154599 174.029193 
L 518.079933 174.732105 
L 519.005267 173.247269 
L 519.930602 170.787263 
L 520.855936 171.28747 
L 523.631939 172.2571 
L 524.557273 169.95455 
L 525.482607 172.644223 
L 526.407941 175.704781 
L 527.333275 177.648902 
L 530.109278 176.306354 
L 531.034612 176.775393 
L 531.959947 176.397106 
L 532.885281 176.276394 
L 533.810615 177.18802 
L 536.586618 177.826992 
L 537.511952 178.541243 
L 538.437286 180.052145 
L 539.36262 179.155309 
L 540.287955 177.196509 
L 543.063957 177.890031 
L 543.989291 176.142021 
L 544.914626 175.887211 
L 545.83996 178.720904 
L 546.765294 174.864116 
L 549.541297 176.852542 
L 550.466631 178.210449 
L 551.391965 177.291162 
L 552.317299 177.848734 
L 553.242634 181.309116 
L 556.018636 181.92178 
L 556.943971 181.498967 
L 557.869305 180.224756 
L 558.794639 181.026281 
L 559.719973 206.604685 
L 562.495976 206.509281 
L 563.42131 206.259503 
L 564.346644 208.72962 
L 565.271979 208.786695 
L 566.197313 209.900884 
L 568.973316 210.325487 
L 569.89865 210.02419 
L 570.823984 211.749735 
L 572.674652 214.254476 
L 575.450655 215.486288 
L 576.375989 216.536995 
L 577.301324 215.351346 
L 578.226658 215.873946 
L 579.151992 218.258625 
L 581.927995 217.423546 
L 582.853329 218.344512 
L 583.778663 215.904556 
L 585.629332 216.697426 
L 588.405334 176.7398 
L 589.330668 176.60705 
L 590.256003 176.035766 
L 592.106671 178.446707 
L 594.882674 178.876275 
L 595.808008 176.503448 
L 596.733342 173.006568 
L 597.658676 172.52518 
L 598.584011 175.513221 
L 601.360013 175.270891 
L 602.285348 176.785799 
L 603.210682 177.791977 
L 604.136016 175.132573 
L 605.06135 174.114604 
L 607.837353 172.534014 
L 608.762687 175.507914 
L 611.53869 179.319564 
L 614.314693 180.946263 
L 615.240027 183.341764 
L 616.165361 180.919478 
L 617.090695 193.822275 
L 618.016029 196.189185 
L 620.792032 195.599124 
L 621.717366 195.240432 
L 623.568035 190.362354 
L 624.493369 191.318984 
L 627.269372 192.24851 
L 628.194706 190.653574 
L 629.12004 190.558692 
L 630.045374 192.616073 
L 630.970709 190.176232 
L 633.746711 188.571243 
L 634.672045 189.455084 
L 635.59738 187.584972 
L 636.522714 186.183547 
L 637.448048 188.856286 
L 640.224051 191.082608 
L 641.149385 186.802252 
L 642.074719 186.624398 
L 643.000053 188.778131 
L 643.925388 189.262627 
L 646.70139 186.826299 
L 647.626725 186.671996 
L 648.552059 188.24388 
L 649.477393 189.48981 
L 650.402727 189.803086 
L 653.17873 189.069953 
L 654.104064 190.826901 
L 655.029398 190.141353 
L 655.954733 190.730717 
L 656.880067 190.335104 
L 659.65607 189.81287 
L 660.581404 189.331686 
L 661.506738 191.519643 
L 663.357406 189.84659 
L 667.058743 187.323714 
L 667.984078 185.958205 
L 668.909412 186.196308 
L 669.834746 185.882987 
L 672.610749 184.471071 
L 673.536083 194.348456 
L 674.461417 196.646553 
L 675.386751 196.919894 
L 676.312086 196.645345 
L 679.088088 197.640073 
L 680.013422 198.32487 
L 680.938757 198.545364 
L 681.864091 198.094693 
L 682.789425 198.614887 
L 685.565428 198.208555 
L 686.490762 197.371452 
L 687.416096 196.23492 
L 689.266765 195.147079 
L 692.042767 194.575257 
L 692.968102 195.829171 
L 693.893436 195.5479 
L 694.81877 196.725845 
L 695.744104 197.046121 
L 698.520107 197.779778 
L 699.445441 198.960596 
L 700.370775 199.084769 
L 701.29611 207.575234 
L 702.221444 209.214067 
L 704.997447 209.349352 
L 705.922781 208.038804 
L 706.848115 206.938859 
L 707.773449 205.278744 
L 708.698783 206.870555 
L 711.474786 209.515007 
L 712.40012 207.503647 
L 713.325455 207.843241 
L 714.250789 209.839761 
L 715.176123 210.375529 
L 717.952126 208.799668 
L 718.87746 207.805383 
L 719.802794 210.403935 
L 720.728128 212.424509 
L 721.653463 214.060996 
L 724.429465 212.517504 
L 725.354799 212.635066 
L 726.280134 211.012352 
L 727.205468 212.098249 
L 728.130802 213.672523 
L 730.906805 172.305696 
L 732.757473 169.615904 
L 733.682807 171.175915 
L 734.608142 168.639445 
L 737.384144 170.833566 
L 739.234813 168.47392 
L 740.160147 166.646154 
L 741.085481 168.245131 
L 743.861484 168.750281 
L 744.786818 166.701639 
L 745.712152 168.758798 
L 746.637487 171.12295 
L 747.562821 171.861431 
L 750.338824 169.358148 
L 751.264158 169.166224 
L 752.189492 169.775275 
L 753.114826 167.930078 
L 754.04016 163.847687 
L 756.816163 164.623659 
L 757.741497 161.970129 
L 758.666832 168.758137 
L 759.592166 164.653966 
L 760.5175 161.96932 
L 764.218837 153.987171 
L 765.144171 151.475884 
L 766.069505 150.807978 
L 766.99484 155.848684 
L 769.770842 157.620703 
L 770.696176 158.879176 
L 771.621511 163.81945 
L 772.546845 162.610936 
L 773.472179 160.534486 
L 776.248182 157.548701 
L 777.173516 161.561912 
L 778.09885 160.917992 
L 779.024184 163.152863 
L 779.949519 164.426876 
L 782.725521 163.337562 
L 783.650856 167.557042 
L 784.57619 170.951238 
L 785.501524 195.28635 
L 786.426858 194.524023 
L 789.202861 194.312721 
L 790.128195 196.099043 
L 791.053529 195.363843 
L 791.978864 195.641397 
L 792.904198 196.490958 
L 795.680201 196.044208 
L 796.605535 194.739255 
L 797.530869 195.583808 
L 798.456203 196.089369 
L 799.381537 194.760376 
L 802.15754 193.500342 
L 803.082874 192.184089 
L 804.008209 192.047197 
L 805.858877 194.615778 
L 808.63488 195.275205 
L 809.560214 197.768506 
L 810.485548 198.702913 
L 811.410882 199.217423 
L 812.336217 199.005218 
L 815.112219 199.622999 
L 816.037553 199.673293 
L 816.962888 200.21898 
L 817.888222 200.149816 
L 818.813556 200.600127 
L 821.589559 201.092626 
L 822.514893 199.876999 
L 823.440227 201.360583 
L 824.365561 201.63987 
L 825.290896 200.782834 
L 828.066898 199.926142 
L 828.992233 199.851735 
L 829.917567 198.598125 
L 830.842901 199.591422 
L 834.544238 202.336233 
L 836.394906 201.519902 
L 837.320241 200.332026 
L 838.245575 200.826374 
L 841.021578 198.909089 
L 841.946912 180.811656 
L 843.79758 178.277978 
L 844.722914 176.114159 
L 847.498917 179.732661 
L 849.349586 172.683536 
L 850.27492 168.173009 
L 851.200254 166.142832 
L 853.976257 169.009722 
L 854.901591 169.232954 
L 856.752259 173.475754 
L 857.677594 173.955979 
L 860.453596 171.90982 
L 861.37893 174.903136 
L 862.304265 176.03086 
L 863.229599 174.401213 
L 864.154933 174.483374 
L 866.930936 172.222093 
L 867.85627 172.323089 
L 868.781604 172.155111 
L 869.706939 175.649567 
L 870.632273 186.546377 
L 874.33361 187.282815 
L 875.258944 186.403798 
L 876.184278 185.90626 
L 877.109612 186.935682 
L 879.885615 187.066834 
L 880.810949 186.755428 
L 881.736283 186.616081 
L 882.661618 187.196954 
L 883.586952 186.183293 
L 886.362955 186.521919 
L 887.288289 187.519541 
L 888.213623 187.401913 
L 889.138957 188.208424 
L 890.064291 187.985801 
L 893.765628 189.474248 
L 894.690963 190.635844 
L 895.616297 190.43324 
L 896.541631 191.060645 
L 899.317634 211.181539 
L 901.168302 212.1438 
L 902.093636 210.195247 
L 903.018971 212.670825 
L 905.794973 213.766922 
L 906.720307 213.77013 
L 907.645642 212.575115 
L 908.570976 213.72563 
L 909.49631 214.548364 
L 912.272313 214.906336 
L 913.197647 214.433605 
L 914.122981 214.596799 
L 915.048316 213.680712 
L 915.97365 214.620009 
L 919.674987 216.940382 
L 920.600321 218.886393 
L 921.525655 219.097703 
L 922.450989 217.561881 
L 925.226992 217.857627 
L 926.152326 217.83658 
L 927.07766 180.999811 
L 928.002995 181.586175 
L 928.928329 180.521515 
L 931.704332 180.11489 
L 934.480334 175.818441 
L 935.405668 173.350485 
L 938.181671 175.164705 
L 939.107005 174.208716 
L 940.03234 174.83999 
L 940.957674 172.758233 
L 941.883008 169.745526 
L 944.659011 168.024442 
L 945.584345 168.213793 
L 946.509679 169.919773 
L 947.435013 170.713329 
L 948.360348 171.838567 
L 951.13635 174.854015 
L 952.061684 172.253875 
L 952.987019 168.162884 
L 953.912353 167.438325 
L 954.837687 165.634365 
L 957.61369 186.231087 
L 958.539024 185.992565 
L 959.464358 185.138777 
L 960.389693 183.514033 
L 961.315027 183.223646 
L 964.091029 181.292204 
L 965.016364 179.493879 
L 965.941698 178.121436 
L 966.867032 176.259335 
L 967.792366 176.468977 
L 970.568369 173.986781 
L 971.493703 174.957806 
L 972.419037 173.541791 
L 973.344372 174.334821 
L 974.269706 173.02608 
L 977.045709 170.990156 
L 977.971043 172.627705 
L 978.896377 175.031037 
L 979.821711 179.530685 
L 980.747045 180.563338 
L 983.523048 145.101731 
L 984.448382 146.635256 
L 985.373717 144.735139 
L 986.299051 141.011462 
L 987.224385 140.341713 
L 990.000388 141.974711 
L 990.925722 143.57679 
L 991.851056 143.937339 
L 992.77639 142.678826 
L 993.701725 144.978183 
L 997.403061 142.148541 
L 998.328396 143.906678 
L 999.25373 140.074162 
L 1000.179064 137.741629 
L 1002.955067 135.175973 
L 1003.880401 134.528462 
L 1005.73107 136.005856 
L 1006.656404 135.266254 
L 1009.432406 135.209891 
L 1010.357741 133.64135 
L 1011.283075 137.455689 
L 1012.208409 178.275289 
L 1013.133743 177.279709 
L 1015.909746 178.871688 
L 1016.83508 177.689144 
L 1017.760414 179.817583 
L 1018.685749 180.350375 
L 1019.611083 180.405368 
L 1022.387086 179.063214 
L 1023.31242 176.568587 
L 1025.163088 178.852686 
L 1026.088422 181.044528 
L 1028.864425 183.409334 
L 1029.789759 180.510498 
L 1030.715094 178.651631 
L 1031.640428 180.855608 
L 1032.565762 182.211607 
L 1036.267099 181.415754 
L 1037.192433 182.054334 
L 1038.117767 180.300039 
L 1039.043102 180.630254 
L 1041.819104 165.423059 
L 1042.744439 166.875563 
L 1043.669773 165.223529 
L 1044.595107 160.767885 
L 1045.520441 160.972428 
L 1048.296444 160.586359 
L 1049.221778 158.23055 
L 1050.147112 158.643893 
L 1051.072447 155.457202 
L 1051.997781 158.369592 
L 1054.773783 156.065379 
L 1055.699118 156.915879 
L 1056.624452 154.978861 
L 1057.549786 155.58943 
L 1058.47512 153.201708 
L 1061.251123 151.133538 
L 1062.176457 149.97009 
L 1063.101791 144.472002 
L 1064.027126 146.909803 
L 1064.95246 146.434035 
L 1067.728463 145.819604 
L 1068.653797 172.253984 
L 1069.579131 171.507401 
L 1070.504465 171.115409 
L 1071.429799 171.832227 
L 1074.205802 174.324653 
L 1075.131136 176.352862 
L 1076.056471 177.879375 
L 1076.981805 176.434941 
L 1077.907139 174.465601 
L 1080.683142 173.642057 
L 1081.608476 175.398077 
L 1082.53381 175.37799 
L 1083.459144 173.526909 
L 1084.384479 175.301626 
L 1087.160481 176.665082 
L 1088.085816 175.986068 
L 1089.01115 178.557552 
L 1089.936484 179.814613 
L 1090.861818 182.118662 
L 1090.861818 182.118662 
" style="fill:none;stroke:#2ca02c;stroke-linecap:square;stroke-width:1.5;"/>
   </g>
   <g id="patch_3">
    <path d="M 33.76 273.56 
L 33.76 25.92 
" style="fill:none;stroke:#000000;stroke-linecap:square;stroke-linejoin:miter;stroke-width:0.8;"/>
   </g>
   <g id="patch_4">
    <path d="M 1141.2 273.56 
L 1141.2 25.92 
" style="fill:none;stroke:#000000;stroke-linecap:square;stroke-linejoin:miter;stroke-width:0.8;"/>
   </g>
   <g id="patch_5">
    <path d="M 33.76 273.56 
L 1141.2 273.56 
" style="fill:none;stroke:#000000;stroke-linecap:square;stroke-linejoin:miter;stroke-width:0.8;"/>
   </g>
   <g id="patch_6">
    <path d="M 33.76 25.92 
L 1141.2 25.92 
" style="fill:none;stroke:#000000;stroke-linecap:square;stroke-linejoin:miter;stroke-width:0.8;"/>
   </g>
   <g id="text_13">
    <!-- Net Value: (2010-02-01 ~ 2013-01-25) -->
    <g transform="translate(471.3725 19.92)scale(0.12 -0.12)">
     <defs>
      <path d="M 9.8125 72.90625 
L 23.09375 72.90625 
L 55.421875 11.921875 
L 55.421875 72.90625 
L 64.984375 72.90625 
L 64.984375 0 
L 51.703125 0 
L 19.390625 60.984375 
L 19.390625 0 
L 9.8125 0 
z
" id="DejaVuSans-78"/>
      <path d="M 56.203125 29.59375 
L 56.203125 25.203125 
L 14.890625 25.203125 
Q 15.484375 15.921875 20.484375 11.0625 
Q 25.484375 6.203125 34.421875 6.203125 
Q 39.59375 6.203125 44.453125 7.46875 
Q 49.3125 8.734375 54.109375 11.28125 
L 54.109375 2.78125 
Q 49.265625 0.734375 44.1875 -0.34375 
Q 39.109375 -1.421875 33.890625 -1.421875 
Q 20.796875 -1.421875 13.15625 6.1875 
Q 5.515625 13.8125 5.515625 26.8125 
Q 5.515625 40.234375 12.765625 48.109375 
Q 20.015625 56 32.328125 56 
Q 43.359375 56 49.78125 48.890625 
Q 56.203125 41.796875 56.203125 29.59375 
z
M 47.21875 32.234375 
Q 47.125 39.59375 43.09375 43.984375 
Q 39.0625 48.390625 32.421875 48.390625 
Q 24.90625 48.390625 20.390625 44.140625 
Q 15.875 39.890625 15.1875 32.171875 
z
" id="DejaVuSans-101"/>
      <path d="M 18.3125 70.21875 
L 18.3125 54.6875 
L 36.8125 54.6875 
L 36.8125 47.703125 
L 18.3125 47.703125 
L 18.3125 18.015625 
Q 18.3125 11.328125 20.140625 9.421875 
Q 21.96875 7.515625 27.59375 7.515625 
L 36.8125 7.515625 
L 36.8125 0 
L 27.59375 0 
Q 17.1875 0 13.234375 3.875 
Q 9.28125 7.765625 9.28125 18.015625 
L 9.28125 47.703125 
L 2.6875 47.703125 
L 2.6875 54.6875 
L 9.28125 54.6875 
L 9.28125 70.21875 
z
" id="DejaVuSans-116"/>
      <path id="DejaVuSans-32"/>
      <path d="M 28.609375 0 
L 0.78125 72.90625 
L 11.078125 72.90625 
L 34.1875 11.53125 
L 57.328125 72.90625 
L 67.578125 72.90625 
L 39.796875 0 
z
" id="DejaVuSans-86"/>
      <path d="M 34.28125 27.484375 
Q 23.390625 27.484375 19.1875 25 
Q 14.984375 22.515625 14.984375 16.5 
Q 14.984375 11.71875 18.140625 8.90625 
Q 21.296875 6.109375 26.703125 6.109375 
Q 34.1875 6.109375 38.703125 11.40625 
Q 43.21875 16.703125 43.21875 25.484375 
L 43.21875 27.484375 
z
M 52.203125 31.203125 
L 52.203125 0 
L 43.21875 0 
L 43.21875 8.296875 
Q 40.140625 3.328125 35.546875 0.953125 
Q 30.953125 -1.421875 24.3125 -1.421875 
Q 15.921875 -1.421875 10.953125 3.296875 
Q 6 8.015625 6 15.921875 
Q 6 25.140625 12.171875 29.828125 
Q 18.359375 34.515625 30.609375 34.515625 
L 43.21875 34.515625 
L 43.21875 35.40625 
Q 43.21875 41.609375 39.140625 45 
Q 35.0625 48.390625 27.6875 48.390625 
Q 23 48.390625 18.546875 47.265625 
Q 14.109375 46.140625 10.015625 43.890625 
L 10.015625 52.203125 
Q 14.9375 54.109375 19.578125 55.046875 
Q 24.21875 56 28.609375 56 
Q 40.484375 56 46.34375 49.84375 
Q 52.203125 43.703125 52.203125 31.203125 
z
" id="DejaVuSans-97"/>
      <path d="M 9.421875 75.984375 
L 18.40625 75.984375 
L 18.40625 0 
L 9.421875 0 
z
" id="DejaVuSans-108"/>
      <path d="M 8.5 21.578125 
L 8.5 54.6875 
L 17.484375 54.6875 
L 17.484375 21.921875 
Q 17.484375 14.15625 20.5 10.265625 
Q 23.53125 6.390625 29.59375 6.390625 
Q 36.859375 6.390625 41.078125 11.03125 
Q 45.3125 15.671875 45.3125 23.6875 
L 45.3125 54.6875 
L 54.296875 54.6875 
L 54.296875 0 
L 45.3125 0 
L 45.3125 8.40625 
Q 42.046875 3.421875 37.71875 1 
Q 33.40625 -1.421875 27.6875 -1.421875 
Q 18.265625 -1.421875 13.375 4.4375 
Q 8.5 10.296875 8.5 21.578125 
z
M 31.109375 56 
z
" id="DejaVuSans-117"/>
      <path d="M 11.71875 12.40625 
L 22.015625 12.40625 
L 22.015625 0 
L 11.71875 0 
z
M 11.71875 51.703125 
L 22.015625 51.703125 
L 22.015625 39.3125 
L 11.71875 39.3125 
z
" id="DejaVuSans-58"/>
      <path d="M 31 75.875 
Q 24.46875 64.65625 21.28125 53.65625 
Q 18.109375 42.671875 18.109375 31.390625 
Q 18.109375 20.125 21.3125 9.0625 
Q 24.515625 -2 31 -13.1875 
L 23.1875 -13.1875 
Q 15.875 -1.703125 12.234375 9.375 
Q 8.59375 20.453125 8.59375 31.390625 
Q 8.59375 42.28125 12.203125 53.3125 
Q 15.828125 64.359375 23.1875 75.875 
z
" id="DejaVuSans-40"/>
      <path d="M 4.890625 31.390625 
L 31.203125 31.390625 
L 31.203125 23.390625 
L 4.890625 23.390625 
z
" id="DejaVuSans-45"/>
      <path d="M 73.1875 39.890625 
L 73.1875 31.203125 
Q 68.0625 27.34375 63.6875 25.6875 
Q 59.328125 24.03125 54.59375 24.03125 
Q 49.21875 24.03125 42.09375 26.90625 
Q 41.546875 27.09375 41.3125 27.203125 
Q 40.96875 27.34375 40.234375 27.59375 
Q 32.671875 30.609375 28.078125 30.609375 
Q 23.78125 30.609375 19.578125 28.734375 
Q 15.375 26.859375 10.59375 22.796875 
L 10.59375 31.5 
Q 15.71875 35.359375 20.09375 37.03125 
Q 24.46875 38.71875 29.203125 38.71875 
Q 34.578125 38.71875 41.75 35.796875 
Q 42.234375 35.59375 42.484375 35.5 
Q 42.875 35.359375 43.5625 35.109375 
Q 51.125 32.078125 55.71875 32.078125 
Q 59.90625 32.078125 64.03125 33.9375 
Q 68.171875 35.796875 73.1875 39.890625 
z
" id="DejaVuSans-126"/>
      <path d="M 10.796875 72.90625 
L 49.515625 72.90625 
L 49.515625 64.59375 
L 19.828125 64.59375 
L 19.828125 46.734375 
Q 21.96875 47.46875 24.109375 47.828125 
Q 26.265625 48.1875 28.421875 48.1875 
Q 40.625 48.1875 47.75 41.5 
Q 54.890625 34.8125 54.890625 23.390625 
Q 54.890625 11.625 47.5625 5.09375 
Q 40.234375 -1.421875 26.90625 -1.421875 
Q 22.3125 -1.421875 17.546875 -0.640625 
Q 12.796875 0.140625 7.71875 1.703125 
L 7.71875 11.625 
Q 12.109375 9.234375 16.796875 8.0625 
Q 21.484375 6.890625 26.703125 6.890625 
Q 35.15625 6.890625 40.078125 11.328125 
Q 45.015625 15.765625 45.015625 23.390625 
Q 45.015625 31 40.078125 35.4375 
Q 35.15625 39.890625 26.703125 39.890625 
Q 22.75 39.890625 18.8125 39.015625 
Q 14.890625 38.140625 10.796875 36.28125 
z
" id="DejaVuSans-53"/>
      <path d="M 8.015625 75.875 
L 15.828125 75.875 
Q 23.140625 64.359375 26.78125 53.3125 
Q 30.421875 42.28125 30.421875 31.390625 
Q 30.421875 20.453125 26.78125 9.375 
Q 23.140625 -1.703125 15.828125 -13.1875 
L 8.015625 -13.1875 
Q 14.5 -2 17.703125 9.0625 
Q 20.90625 20.125 20.90625 31.390625 
Q 20.90625 42.671875 17.703125 53.65625 
Q 14.5 64.65625 8.015625 75.875 
z
" id="DejaVuSans-41"/>
     </defs>
     <use xlink:href="#DejaVuSans-78"/>
     <use x="74.804688" xlink:href="#DejaVuSans-101"/>
     <use x="136.328125" xlink:href="#DejaVuSans-116"/>
     <use x="175.537109" xlink:href="#DejaVuSans-32"/>
     <use x="207.324219" xlink:href="#DejaVuSans-86"/>
     <use x="267.982422" xlink:href="#DejaVuSans-97"/>
     <use x="329.261719" xlink:href="#DejaVuSans-108"/>
     <use x="357.044922" xlink:href="#DejaVuSans-117"/>
     <use x="420.423828" xlink:href="#DejaVuSans-101"/>
     <use x="481.947266" xlink:href="#DejaVuSans-58"/>
     <use x="515.638672" xlink:href="#DejaVuSans-32"/>
     <use x="547.425781" xlink:href="#DejaVuSans-40"/>
     <use x="586.439453" xlink:href="#DejaVuSans-50"/>
     <use x="650.0625" xlink:href="#DejaVuSans-48"/>
     <use x="713.685547" xlink:href="#DejaVuSans-49"/>
     <use x="777.308594" xlink:href="#DejaVuSans-48"/>
     <use x="840.931641" xlink:href="#DejaVuSans-45"/>
     <use x="877.015625" xlink:href="#DejaVuSans-48"/>
     <use x="940.638672" xlink:href="#DejaVuSans-50"/>
     <use x="1004.261719" xlink:href="#DejaVuSans-45"/>
     <use x="1040.345703" xlink:href="#DejaVuSans-48"/>
     <use x="1103.96875" xlink:href="#DejaVuSans-49"/>
     <use x="1167.591797" xlink:href="#DejaVuSans-32"/>
     <use x="1199.378906" xlink:href="#DejaVuSans-126"/>
     <use x="1283.167969" xlink:href="#DejaVuSans-32"/>
     <use x="1314.955078" xlink:href="#DejaVuSans-50"/>
     <use x="1378.578125" xlink:href="#DejaVuSans-48"/>
     <use x="1442.201172" xlink:href="#DejaVuSans-49"/>
     <use x="1505.824219" xlink:href="#DejaVuSans-51"/>
     <use x="1569.447266" xlink:href="#DejaVuSans-45"/>
     <use x="1605.53125" xlink:href="#DejaVuSans-48"/>
     <use x="1669.154297" xlink:href="#DejaVuSans-49"/>
     <use x="1732.777344" xlink:href="#DejaVuSans-45"/>
     <use x="1768.861328" xlink:href="#DejaVuSans-50"/>
     <use x="1832.484375" xlink:href="#DejaVuSans-53"/>
     <use x="1896.107422" xlink:href="#DejaVuSans-41"/>
    </g>
   </g>
   <g id="legend_1">
    <g id="patch_7">
     <path d="M 40.76 78.2325 
L 153.274063 78.2325 
Q 155.274063 78.2325 155.274063 76.2325 
L 155.274063 32.92 
Q 155.274063 30.92 153.274063 30.92 
L 40.76 30.92 
Q 38.76 30.92 38.76 32.92 
L 38.76 76.2325 
Q 38.76 78.2325 40.76 78.2325 
z
" style="fill:#ffffff;opacity:0.8;stroke:#cccccc;stroke-linejoin:miter;"/>
    </g>
    <g id="line2d_28">
     <path d="M 42.76 39.018437 
L 62.76 39.018437 
" style="fill:none;stroke:#1f77b4;stroke-linecap:square;stroke-width:1.5;"/>
    </g>
    <g id="line2d_29"/>
    <g id="text_14">
     <!-- factor_weighted -->
     <g transform="translate(70.76 42.518437)scale(0.1 -0.1)">
      <defs>
       <path d="M 37.109375 75.984375 
L 37.109375 68.5 
L 28.515625 68.5 
Q 23.6875 68.5 21.796875 66.546875 
Q 19.921875 64.59375 19.921875 59.515625 
L 19.921875 54.6875 
L 34.71875 54.6875 
L 34.71875 47.703125 
L 19.921875 47.703125 
L 19.921875 0 
L 10.890625 0 
L 10.890625 47.703125 
L 2.296875 47.703125 
L 2.296875 54.6875 
L 10.890625 54.6875 
L 10.890625 58.5 
Q 10.890625 67.625 15.140625 71.796875 
Q 19.390625 75.984375 28.609375 75.984375 
z
" id="DejaVuSans-102"/>
       <path d="M 48.78125 52.59375 
L 48.78125 44.1875 
Q 44.96875 46.296875 41.140625 47.34375 
Q 37.3125 48.390625 33.40625 48.390625 
Q 24.65625 48.390625 19.8125 42.84375 
Q 14.984375 37.3125 14.984375 27.296875 
Q 14.984375 17.28125 19.8125 11.734375 
Q 24.65625 6.203125 33.40625 6.203125 
Q 37.3125 6.203125 41.140625 7.25 
Q 44.96875 8.296875 48.78125 10.40625 
L 48.78125 2.09375 
Q 45.015625 0.34375 40.984375 -0.53125 
Q 36.96875 -1.421875 32.421875 -1.421875 
Q 20.0625 -1.421875 12.78125 6.34375 
Q 5.515625 14.109375 5.515625 27.296875 
Q 5.515625 40.671875 12.859375 48.328125 
Q 20.21875 56 33.015625 56 
Q 37.15625 56 41.109375 55.140625 
Q 45.0625 54.296875 48.78125 52.59375 
z
" id="DejaVuSans-99"/>
       <path d="M 30.609375 48.390625 
Q 23.390625 48.390625 19.1875 42.75 
Q 14.984375 37.109375 14.984375 27.296875 
Q 14.984375 17.484375 19.15625 11.84375 
Q 23.34375 6.203125 30.609375 6.203125 
Q 37.796875 6.203125 41.984375 11.859375 
Q 46.1875 17.53125 46.1875 27.296875 
Q 46.1875 37.015625 41.984375 42.703125 
Q 37.796875 48.390625 30.609375 48.390625 
z
M 30.609375 56 
Q 42.328125 56 49.015625 48.375 
Q 55.71875 40.765625 55.71875 27.296875 
Q 55.71875 13.875 49.015625 6.21875 
Q 42.328125 -1.421875 30.609375 -1.421875 
Q 18.84375 -1.421875 12.171875 6.21875 
Q 5.515625 13.875 5.515625 27.296875 
Q 5.515625 40.765625 12.171875 48.375 
Q 18.84375 56 30.609375 56 
z
" id="DejaVuSans-111"/>
       <path d="M 41.109375 46.296875 
Q 39.59375 47.171875 37.8125 47.578125 
Q 36.03125 48 33.890625 48 
Q 26.265625 48 22.1875 43.046875 
Q 18.109375 38.09375 18.109375 28.8125 
L 18.109375 0 
L 9.078125 0 
L 9.078125 54.6875 
L 18.109375 54.6875 
L 18.109375 46.1875 
Q 20.953125 51.171875 25.484375 53.578125 
Q 30.03125 56 36.53125 56 
Q 37.453125 56 38.578125 55.875 
Q 39.703125 55.765625 41.0625 55.515625 
z
" id="DejaVuSans-114"/>
       <path d="M 50.984375 -16.609375 
L 50.984375 -23.578125 
L -0.984375 -23.578125 
L -0.984375 -16.609375 
z
" id="DejaVuSans-95"/>
       <path d="M 4.203125 54.6875 
L 13.1875 54.6875 
L 24.421875 12.015625 
L 35.59375 54.6875 
L 46.1875 54.6875 
L 57.421875 12.015625 
L 68.609375 54.6875 
L 77.59375 54.6875 
L 63.28125 0 
L 52.6875 0 
L 40.921875 44.828125 
L 29.109375 0 
L 18.5 0 
z
" id="DejaVuSans-119"/>
       <path d="M 9.421875 54.6875 
L 18.40625 54.6875 
L 18.40625 0 
L 9.421875 0 
z
M 9.421875 75.984375 
L 18.40625 75.984375 
L 18.40625 64.59375 
L 9.421875 64.59375 
z
" id="DejaVuSans-105"/>
       <path d="M 45.40625 27.984375 
Q 45.40625 37.75 41.375 43.109375 
Q 37.359375 48.484375 30.078125 48.484375 
Q 22.859375 48.484375 18.828125 43.109375 
Q 14.796875 37.75 14.796875 27.984375 
Q 14.796875 18.265625 18.828125 12.890625 
Q 22.859375 7.515625 30.078125 7.515625 
Q 37.359375 7.515625 41.375 12.890625 
Q 45.40625 18.265625 45.40625 27.984375 
z
M 54.390625 6.78125 
Q 54.390625 -7.171875 48.1875 -13.984375 
Q 42 -20.796875 29.203125 -20.796875 
Q 24.46875 -20.796875 20.265625 -20.09375 
Q 16.0625 -19.390625 12.109375 -17.921875 
L 12.109375 -9.1875 
Q 16.0625 -11.328125 19.921875 -12.34375 
Q 23.78125 -13.375 27.78125 -13.375 
Q 36.625 -13.375 41.015625 -8.765625 
Q 45.40625 -4.15625 45.40625 5.171875 
L 45.40625 9.625 
Q 42.625 4.78125 38.28125 2.390625 
Q 33.9375 0 27.875 0 
Q 17.828125 0 11.671875 7.65625 
Q 5.515625 15.328125 5.515625 27.984375 
Q 5.515625 40.671875 11.671875 48.328125 
Q 17.828125 56 27.875 56 
Q 33.9375 56 38.28125 53.609375 
Q 42.625 51.21875 45.40625 46.390625 
L 45.40625 54.6875 
L 54.390625 54.6875 
z
" id="DejaVuSans-103"/>
       <path d="M 54.890625 33.015625 
L 54.890625 0 
L 45.90625 0 
L 45.90625 32.71875 
Q 45.90625 40.484375 42.875 44.328125 
Q 39.84375 48.1875 33.796875 48.1875 
Q 26.515625 48.1875 22.3125 43.546875 
Q 18.109375 38.921875 18.109375 30.90625 
L 18.109375 0 
L 9.078125 0 
L 9.078125 75.984375 
L 18.109375 75.984375 
L 18.109375 46.1875 
Q 21.34375 51.125 25.703125 53.5625 
Q 30.078125 56 35.796875 56 
Q 45.21875 56 50.046875 50.171875 
Q 54.890625 44.34375 54.890625 33.015625 
z
" id="DejaVuSans-104"/>
       <path d="M 45.40625 46.390625 
L 45.40625 75.984375 
L 54.390625 75.984375 
L 54.390625 0 
L 45.40625 0 
L 45.40625 8.203125 
Q 42.578125 3.328125 38.25 0.953125 
Q 33.9375 -1.421875 27.875 -1.421875 
Q 17.96875 -1.421875 11.734375 6.484375 
Q 5.515625 14.40625 5.515625 27.296875 
Q 5.515625 40.1875 11.734375 48.09375 
Q 17.96875 56 27.875 56 
Q 33.9375 56 38.25 53.625 
Q 42.578125 51.265625 45.40625 46.390625 
z
M 14.796875 27.296875 
Q 14.796875 17.390625 18.875 11.75 
Q 22.953125 6.109375 30.078125 6.109375 
Q 37.203125 6.109375 41.296875 11.75 
Q 45.40625 17.390625 45.40625 27.296875 
Q 45.40625 37.203125 41.296875 42.84375 
Q 37.203125 48.484375 30.078125 48.484375 
Q 22.953125 48.484375 18.875 42.84375 
Q 14.796875 37.203125 14.796875 27.296875 
z
" id="DejaVuSans-100"/>
      </defs>
      <use xlink:href="#DejaVuSans-102"/>
      <use x="35.205078" xlink:href="#DejaVuSans-97"/>
      <use x="96.484375" xlink:href="#DejaVuSans-99"/>
      <use x="151.464844" xlink:href="#DejaVuSans-116"/>
      <use x="190.673828" xlink:href="#DejaVuSans-111"/>
      <use x="251.855469" xlink:href="#DejaVuSans-114"/>
      <use x="292.96875" xlink:href="#DejaVuSans-95"/>
      <use x="342.96875" xlink:href="#DejaVuSans-119"/>
      <use x="424.755859" xlink:href="#DejaVuSans-101"/>
      <use x="486.279297" xlink:href="#DejaVuSans-105"/>
      <use x="514.0625" xlink:href="#DejaVuSans-103"/>
      <use x="577.539062" xlink:href="#DejaVuSans-104"/>
      <use x="640.917969" xlink:href="#DejaVuSans-116"/>
      <use x="680.126953" xlink:href="#DejaVuSans-101"/>
      <use x="741.650391" xlink:href="#DejaVuSans-100"/>
     </g>
    </g>
    <g id="line2d_30">
     <path d="M 42.76 53.974687 
L 62.76 53.974687 
" style="fill:none;stroke:#ff7f0e;stroke-linecap:square;stroke-width:1.5;"/>
    </g>
    <g id="line2d_31"/>
    <g id="text_15">
     <!-- benchmark -->
     <g transform="translate(70.76 57.474687)scale(0.1 -0.1)">
      <defs>
       <path d="M 48.6875 27.296875 
Q 48.6875 37.203125 44.609375 42.84375 
Q 40.53125 48.484375 33.40625 48.484375 
Q 26.265625 48.484375 22.1875 42.84375 
Q 18.109375 37.203125 18.109375 27.296875 
Q 18.109375 17.390625 22.1875 11.75 
Q 26.265625 6.109375 33.40625 6.109375 
Q 40.53125 6.109375 44.609375 11.75 
Q 48.6875 17.390625 48.6875 27.296875 
z
M 18.109375 46.390625 
Q 20.953125 51.265625 25.265625 53.625 
Q 29.59375 56 35.59375 56 
Q 45.5625 56 51.78125 48.09375 
Q 58.015625 40.1875 58.015625 27.296875 
Q 58.015625 14.40625 51.78125 6.484375 
Q 45.5625 -1.421875 35.59375 -1.421875 
Q 29.59375 -1.421875 25.265625 0.953125 
Q 20.953125 3.328125 18.109375 8.203125 
L 18.109375 0 
L 9.078125 0 
L 9.078125 75.984375 
L 18.109375 75.984375 
z
" id="DejaVuSans-98"/>
       <path d="M 54.890625 33.015625 
L 54.890625 0 
L 45.90625 0 
L 45.90625 32.71875 
Q 45.90625 40.484375 42.875 44.328125 
Q 39.84375 48.1875 33.796875 48.1875 
Q 26.515625 48.1875 22.3125 43.546875 
Q 18.109375 38.921875 18.109375 30.90625 
L 18.109375 0 
L 9.078125 0 
L 9.078125 54.6875 
L 18.109375 54.6875 
L 18.109375 46.1875 
Q 21.34375 51.125 25.703125 53.5625 
Q 30.078125 56 35.796875 56 
Q 45.21875 56 50.046875 50.171875 
Q 54.890625 44.34375 54.890625 33.015625 
z
" id="DejaVuSans-110"/>
       <path d="M 52 44.1875 
Q 55.375 50.25 60.0625 53.125 
Q 64.75 56 71.09375 56 
Q 79.640625 56 84.28125 50.015625 
Q 88.921875 44.046875 88.921875 33.015625 
L 88.921875 0 
L 79.890625 0 
L 79.890625 32.71875 
Q 79.890625 40.578125 77.09375 44.375 
Q 74.3125 48.1875 68.609375 48.1875 
Q 61.625 48.1875 57.5625 43.546875 
Q 53.515625 38.921875 53.515625 30.90625 
L 53.515625 0 
L 44.484375 0 
L 44.484375 32.71875 
Q 44.484375 40.625 41.703125 44.40625 
Q 38.921875 48.1875 33.109375 48.1875 
Q 26.21875 48.1875 22.15625 43.53125 
Q 18.109375 38.875 18.109375 30.90625 
L 18.109375 0 
L 9.078125 0 
L 9.078125 54.6875 
L 18.109375 54.6875 
L 18.109375 46.1875 
Q 21.1875 51.21875 25.484375 53.609375 
Q 29.78125 56 35.6875 56 
Q 41.65625 56 45.828125 52.96875 
Q 50 49.953125 52 44.1875 
z
" id="DejaVuSans-109"/>
       <path d="M 9.078125 75.984375 
L 18.109375 75.984375 
L 18.109375 31.109375 
L 44.921875 54.6875 
L 56.390625 54.6875 
L 27.390625 29.109375 
L 57.625 0 
L 45.90625 0 
L 18.109375 26.703125 
L 18.109375 0 
L 9.078125 0 
z
" id="DejaVuSans-107"/>
      </defs>
      <use xlink:href="#DejaVuSans-98"/>
      <use x="63.476562" xlink:href="#DejaVuSans-101"/>
      <use x="125" xlink:href="#DejaVuSans-110"/>
      <use x="188.378906" xlink:href="#DejaVuSans-99"/>
      <use x="243.359375" xlink:href="#DejaVuSans-104"/>
      <use x="306.738281" xlink:href="#DejaVuSans-109"/>
      <use x="404.150391" xlink:href="#DejaVuSans-97"/>
      <use x="465.429688" xlink:href="#DejaVuSans-114"/>
      <use x="506.542969" xlink:href="#DejaVuSans-107"/>
     </g>
    </g>
    <g id="line2d_32">
     <path d="M 42.76 68.652812 
L 62.76 68.652812 
" style="fill:none;stroke:#2ca02c;stroke-linecap:square;stroke-width:1.5;"/>
    </g>
    <g id="line2d_33"/>
    <g id="text_16">
     <!-- excess -->
     <g transform="translate(70.76 72.152812)scale(0.1 -0.1)">
      <defs>
       <path d="M 54.890625 54.6875 
L 35.109375 28.078125 
L 55.90625 0 
L 45.3125 0 
L 29.390625 21.484375 
L 13.484375 0 
L 2.875 0 
L 24.125 28.609375 
L 4.6875 54.6875 
L 15.28125 54.6875 
L 29.78125 35.203125 
L 44.28125 54.6875 
z
" id="DejaVuSans-120"/>
       <path d="M 44.28125 53.078125 
L 44.28125 44.578125 
Q 40.484375 46.53125 36.375 47.5 
Q 32.28125 48.484375 27.875 48.484375 
Q 21.1875 48.484375 17.84375 46.4375 
Q 14.5 44.390625 14.5 40.28125 
Q 14.5 37.15625 16.890625 35.375 
Q 19.28125 33.59375 26.515625 31.984375 
L 29.59375 31.296875 
Q 39.15625 29.25 43.1875 25.515625 
Q 47.21875 21.78125 47.21875 15.09375 
Q 47.21875 7.46875 41.1875 3.015625 
Q 35.15625 -1.421875 24.609375 -1.421875 
Q 20.21875 -1.421875 15.453125 -0.5625 
Q 10.6875 0.296875 5.421875 2 
L 5.421875 11.28125 
Q 10.40625 8.6875 15.234375 7.390625 
Q 20.0625 6.109375 24.8125 6.109375 
Q 31.15625 6.109375 34.5625 8.28125 
Q 37.984375 10.453125 37.984375 14.40625 
Q 37.984375 18.0625 35.515625 20.015625 
Q 33.0625 21.96875 24.703125 23.78125 
L 21.578125 24.515625 
Q 13.234375 26.265625 9.515625 29.90625 
Q 5.8125 33.546875 5.8125 39.890625 
Q 5.8125 47.609375 11.28125 51.796875 
Q 16.75 56 26.8125 56 
Q 31.78125 56 36.171875 55.265625 
Q 40.578125 54.546875 44.28125 53.078125 
z
" id="DejaVuSans-115"/>
      </defs>
      <use xlink:href="#DejaVuSans-101"/>
      <use x="59.773438" xlink:href="#DejaVuSans-120"/>
      <use x="117.203125" xlink:href="#DejaVuSans-99"/>
      <use x="172.183594" xlink:href="#DejaVuSans-101"/>
      <use x="233.707031" xlink:href="#DejaVuSans-115"/>
      <use x="285.806641" xlink:href="#DejaVuSans-115"/>
     </g>
    </g>
   </g>
  </g>
 </g>
 <defs>
  <clipPath id="p95a14f1a81">
   <rect height="247.64" width="1107.44" x="33.76" y="25.92"/>
  </clipPath>
 </defs>
</svg>
