<?xml version="1.0" encoding="utf-8" standalone="no"?>
<!DOCTYPE svg PUBLIC "-//W3C//DTD SVG 1.1//EN"
  "http://www.w3.org/Graphics/SVG/1.1/DTD/svg11.dtd">
<!-- Created with matplotlib (https://matplotlib.org/) -->
<svg height="316.8pt" version="1.1" viewBox="0 0 1152 316.8" width="1152pt" xmlns="http://www.w3.org/2000/svg" xmlns:xlink="http://www.w3.org/1999/xlink">
 <metadata>
  <rdf:RDF xmlns:cc="http://creativecommons.org/ns#" xmlns:dc="http://purl.org/dc/elements/1.1/" xmlns:rdf="http://www.w3.org/1999/02/22-rdf-syntax-ns#">
   <cc:Work>
    <dc:type rdf:resource="http://purl.org/dc/dcmitype/StillImage"/>
    <dc:date>2023-07-20T10:43:36.511993</dc:date>
    <dc:format>image/svg+xml</dc:format>
    <dc:creator>
     <cc:Agent>
      <dc:title>Matplotlib v3.3.4, https://matplotlib.org/</dc:title>
     </cc:Agent>
    </dc:creator>
   </cc:Work>
  </rdf:RDF>
 </metadata>
 <defs>
  <style type="text/css">*{stroke-linecap:butt;stroke-linejoin:round;}</style>
 </defs>
 <g id="figure_1">
  <g id="patch_1">
   <path d="M 0 316.8 
L 1152 316.8 
L 1152 0 
L 0 0 
z
" style="fill:#ffffff;"/>
  </g>
  <g id="axes_1">
   <g id="patch_2">
    <path d="M 33.76 273.56 
L 1141.2 273.56 
L 1141.2 25.92 
L 33.76 25.92 
z
" style="fill:#ffffff;"/>
   </g>
   <g id="matplotlib.axis_1">
    <g id="xtick_1">
     <g id="line2d_1">
      <path clip-path="url(#p55686f9bc2)" d="M 54.487487 273.56 
L 54.487487 25.92 
" style="fill:none;stroke:#b0b0b0;stroke-linecap:square;stroke-width:0.8;"/>
     </g>
     <g id="line2d_2">
      <defs>
       <path d="M 0 0 
L 0 3.5 
" id="m6717d4e31c" style="stroke:#000000;stroke-width:0.8;"/>
      </defs>
      <g>
       <use style="stroke:#000000;stroke-width:0.8;" x="54.487487" xlink:href="#m6717d4e31c" y="273.56"/>
      </g>
     </g>
     <g id="text_1">
      <!-- 2010 -->
      <g transform="translate(57.246862 306.01)rotate(-90)scale(0.1 -0.1)">
       <defs>
        <path d="M 19.1875 8.296875 
L 53.609375 8.296875 
L 53.609375 0 
L 7.328125 0 
L 7.328125 8.296875 
Q 12.9375 14.109375 22.625 23.890625 
Q 32.328125 33.6875 34.8125 36.53125 
Q 39.546875 41.84375 41.421875 45.53125 
Q 43.3125 49.21875 43.3125 52.78125 
Q 43.3125 58.59375 39.234375 62.25 
Q 35.15625 65.921875 28.609375 65.921875 
Q 23.96875 65.921875 18.8125 64.3125 
Q 13.671875 62.703125 7.8125 59.421875 
L 7.8125 69.390625 
Q 13.765625 71.78125 18.9375 73 
Q 24.125 74.21875 28.421875 74.21875 
Q 39.75 74.21875 46.484375 68.546875 
Q 53.21875 62.890625 53.21875 53.421875 
Q 53.21875 48.921875 51.53125 44.890625 
Q 49.859375 40.875 45.40625 35.40625 
Q 44.1875 33.984375 37.640625 27.21875 
Q 31.109375 20.453125 19.1875 8.296875 
z
" id="DejaVuSans-50"/>
        <path d="M 31.78125 66.40625 
Q 24.171875 66.40625 20.328125 58.90625 
Q 16.5 51.421875 16.5 36.375 
Q 16.5 21.390625 20.328125 13.890625 
Q 24.171875 6.390625 31.78125 6.390625 
Q 39.453125 6.390625 43.28125 13.890625 
Q 47.125 21.390625 47.125 36.375 
Q 47.125 51.421875 43.28125 58.90625 
Q 39.453125 66.40625 31.78125 66.40625 
z
M 31.78125 74.21875 
Q 44.046875 74.21875 50.515625 64.515625 
Q 56.984375 54.828125 56.984375 36.375 
Q 56.984375 17.96875 50.515625 8.265625 
Q 44.046875 -1.421875 31.78125 -1.421875 
Q 19.53125 -1.421875 13.0625 8.265625 
Q 6.59375 17.96875 6.59375 36.375 
Q 6.59375 54.828125 13.0625 64.515625 
Q 19.53125 74.21875 31.78125 74.21875 
z
" id="DejaVuSans-48"/>
        <path d="M 12.40625 8.296875 
L 28.515625 8.296875 
L 28.515625 63.921875 
L 10.984375 60.40625 
L 10.984375 69.390625 
L 28.421875 72.90625 
L 38.28125 72.90625 
L 38.28125 8.296875 
L 54.390625 8.296875 
L 54.390625 0 
L 12.40625 0 
z
" id="DejaVuSans-49"/>
       </defs>
       <use xlink:href="#DejaVuSans-50"/>
       <use x="63.623047" xlink:href="#DejaVuSans-48"/>
       <use x="127.246094" xlink:href="#DejaVuSans-49"/>
       <use x="190.869141" xlink:href="#DejaVuSans-48"/>
      </g>
     </g>
    </g>
    <g id="xtick_2">
     <g id="line2d_3">
      <path clip-path="url(#p55686f9bc2)" d="M 392.234479 273.56 
L 392.234479 25.92 
" style="fill:none;stroke:#b0b0b0;stroke-linecap:square;stroke-width:0.8;"/>
     </g>
     <g id="line2d_4">
      <g>
       <use style="stroke:#000000;stroke-width:0.8;" x="392.234479" xlink:href="#m6717d4e31c" y="273.56"/>
      </g>
     </g>
     <g id="text_2">
      <!-- 2011 -->
      <g transform="translate(394.993854 306.01)rotate(-90)scale(0.1 -0.1)">
       <use xlink:href="#DejaVuSans-50"/>
       <use x="63.623047" xlink:href="#DejaVuSans-48"/>
       <use x="127.246094" xlink:href="#DejaVuSans-49"/>
       <use x="190.869141" xlink:href="#DejaVuSans-49"/>
      </g>
     </g>
    </g>
    <g id="xtick_3">
     <g id="line2d_5">
      <path clip-path="url(#p55686f9bc2)" d="M 729.981471 273.56 
L 729.981471 25.92 
" style="fill:none;stroke:#b0b0b0;stroke-linecap:square;stroke-width:0.8;"/>
     </g>
     <g id="line2d_6">
      <g>
       <use style="stroke:#000000;stroke-width:0.8;" x="729.981471" xlink:href="#m6717d4e31c" y="273.56"/>
      </g>
     </g>
     <g id="text_3">
      <!-- 2012 -->
      <g transform="translate(732.740846 306.01)rotate(-90)scale(0.1 -0.1)">
       <use xlink:href="#DejaVuSans-50"/>
       <use x="63.623047" xlink:href="#DejaVuSans-48"/>
       <use x="127.246094" xlink:href="#DejaVuSans-49"/>
       <use x="190.869141" xlink:href="#DejaVuSans-50"/>
      </g>
     </g>
    </g>
    <g id="xtick_4">
     <g id="line2d_7">
      <path clip-path="url(#p55686f9bc2)" d="M 1068.653797 273.56 
L 1068.653797 25.92 
" style="fill:none;stroke:#b0b0b0;stroke-linecap:square;stroke-width:0.8;"/>
     </g>
     <g id="line2d_8">
      <g>
       <use style="stroke:#000000;stroke-width:0.8;" x="1068.653797" xlink:href="#m6717d4e31c" y="273.56"/>
      </g>
     </g>
     <g id="text_4">
      <!-- 2013 -->
      <g transform="translate(1071.413172 306.01)rotate(-90)scale(0.1 -0.1)">
       <defs>
        <path d="M 40.578125 39.3125 
Q 47.65625 37.796875 51.625 33 
Q 55.609375 28.21875 55.609375 21.1875 
Q 55.609375 10.40625 48.1875 4.484375 
Q 40.765625 -1.421875 27.09375 -1.421875 
Q 22.515625 -1.421875 17.65625 -0.515625 
Q 12.796875 0.390625 7.625 2.203125 
L 7.625 11.71875 
Q 11.71875 9.328125 16.59375 8.109375 
Q 21.484375 6.890625 26.8125 6.890625 
Q 36.078125 6.890625 40.9375 10.546875 
Q 45.796875 14.203125 45.796875 21.1875 
Q 45.796875 27.640625 41.28125 31.265625 
Q 36.765625 34.90625 28.71875 34.90625 
L 20.21875 34.90625 
L 20.21875 43.015625 
L 29.109375 43.015625 
Q 36.375 43.015625 40.234375 45.921875 
Q 44.09375 48.828125 44.09375 54.296875 
Q 44.09375 59.90625 40.109375 62.90625 
Q 36.140625 65.921875 28.71875 65.921875 
Q 24.65625 65.921875 20.015625 65.03125 
Q 15.375 64.15625 9.8125 62.3125 
L 9.8125 71.09375 
Q 15.4375 72.65625 20.34375 73.4375 
Q 25.25 74.21875 29.59375 74.21875 
Q 40.828125 74.21875 47.359375 69.109375 
Q 53.90625 64.015625 53.90625 55.328125 
Q 53.90625 49.265625 50.4375 45.09375 
Q 46.96875 40.921875 40.578125 39.3125 
z
" id="DejaVuSans-51"/>
       </defs>
       <use xlink:href="#DejaVuSans-50"/>
       <use x="63.623047" xlink:href="#DejaVuSans-48"/>
       <use x="127.246094" xlink:href="#DejaVuSans-49"/>
       <use x="190.869141" xlink:href="#DejaVuSans-51"/>
      </g>
     </g>
    </g>
   </g>
   <g id="matplotlib.axis_2">
    <g id="ytick_1">
     <g id="line2d_9">
      <path clip-path="url(#p55686f9bc2)" d="M 33.76 247.758559 
L 1141.2 247.758559 
" style="fill:none;stroke:#b0b0b0;stroke-linecap:square;stroke-width:0.8;"/>
     </g>
     <g id="line2d_10">
      <defs>
       <path d="M 0 0 
L -3.5 0 
" id="md9f9976b39" style="stroke:#000000;stroke-width:0.8;"/>
      </defs>
      <g>
       <use style="stroke:#000000;stroke-width:0.8;" x="33.76" xlink:href="#md9f9976b39" y="247.758559"/>
      </g>
     </g>
     <g id="text_5">
      <!-- 0.2 -->
      <g transform="translate(10.856875 251.557778)scale(0.1 -0.1)">
       <defs>
        <path d="M 10.6875 12.40625 
L 21 12.40625 
L 21 0 
L 10.6875 0 
z
" id="DejaVuSans-46"/>
       </defs>
       <use xlink:href="#DejaVuSans-48"/>
       <use x="63.623047" xlink:href="#DejaVuSans-46"/>
       <use x="95.410156" xlink:href="#DejaVuSans-50"/>
      </g>
     </g>
    </g>
    <g id="ytick_2">
     <g id="line2d_11">
      <path clip-path="url(#p55686f9bc2)" d="M 33.76 213.698871 
L 1141.2 213.698871 
" style="fill:none;stroke:#b0b0b0;stroke-linecap:square;stroke-width:0.8;"/>
     </g>
     <g id="line2d_12">
      <g>
       <use style="stroke:#000000;stroke-width:0.8;" x="33.76" xlink:href="#md9f9976b39" y="213.698871"/>
      </g>
     </g>
     <g id="text_6">
      <!-- 0.4 -->
      <g transform="translate(10.856875 217.49809)scale(0.1 -0.1)">
       <defs>
        <path d="M 37.796875 64.3125 
L 12.890625 25.390625 
L 37.796875 25.390625 
z
M 35.203125 72.90625 
L 47.609375 72.90625 
L 47.609375 25.390625 
L 58.015625 25.390625 
L 58.015625 17.1875 
L 47.609375 17.1875 
L 47.609375 0 
L 37.796875 0 
L 37.796875 17.1875 
L 4.890625 17.1875 
L 4.890625 26.703125 
z
" id="DejaVuSans-52"/>
       </defs>
       <use xlink:href="#DejaVuSans-48"/>
       <use x="63.623047" xlink:href="#DejaVuSans-46"/>
       <use x="95.410156" xlink:href="#DejaVuSans-52"/>
      </g>
     </g>
    </g>
    <g id="ytick_3">
     <g id="line2d_13">
      <path clip-path="url(#p55686f9bc2)" d="M 33.76 179.639182 
L 1141.2 179.639182 
" style="fill:none;stroke:#b0b0b0;stroke-linecap:square;stroke-width:0.8;"/>
     </g>
     <g id="line2d_14">
      <g>
       <use style="stroke:#000000;stroke-width:0.8;" x="33.76" xlink:href="#md9f9976b39" y="179.639182"/>
      </g>
     </g>
     <g id="text_7">
      <!-- 0.6 -->
      <g transform="translate(10.856875 183.438401)scale(0.1 -0.1)">
       <defs>
        <path d="M 33.015625 40.375 
Q 26.375 40.375 22.484375 35.828125 
Q 18.609375 31.296875 18.609375 23.390625 
Q 18.609375 15.53125 22.484375 10.953125 
Q 26.375 6.390625 33.015625 6.390625 
Q 39.65625 6.390625 43.53125 10.953125 
Q 47.40625 15.53125 47.40625 23.390625 
Q 47.40625 31.296875 43.53125 35.828125 
Q 39.65625 40.375 33.015625 40.375 
z
M 52.59375 71.296875 
L 52.59375 62.3125 
Q 48.875 64.0625 45.09375 64.984375 
Q 41.3125 65.921875 37.59375 65.921875 
Q 27.828125 65.921875 22.671875 59.328125 
Q 17.53125 52.734375 16.796875 39.40625 
Q 19.671875 43.65625 24.015625 45.921875 
Q 28.375 48.1875 33.59375 48.1875 
Q 44.578125 48.1875 50.953125 41.515625 
Q 57.328125 34.859375 57.328125 23.390625 
Q 57.328125 12.15625 50.6875 5.359375 
Q 44.046875 -1.421875 33.015625 -1.421875 
Q 20.359375 -1.421875 13.671875 8.265625 
Q 6.984375 17.96875 6.984375 36.375 
Q 6.984375 53.65625 15.1875 63.9375 
Q 23.390625 74.21875 37.203125 74.21875 
Q 40.921875 74.21875 44.703125 73.484375 
Q 48.484375 72.75 52.59375 71.296875 
z
" id="DejaVuSans-54"/>
       </defs>
       <use xlink:href="#DejaVuSans-48"/>
       <use x="63.623047" xlink:href="#DejaVuSans-46"/>
       <use x="95.410156" xlink:href="#DejaVuSans-54"/>
      </g>
     </g>
    </g>
    <g id="ytick_4">
     <g id="line2d_15">
      <path clip-path="url(#p55686f9bc2)" d="M 33.76 145.579494 
L 1141.2 145.579494 
" style="fill:none;stroke:#b0b0b0;stroke-linecap:square;stroke-width:0.8;"/>
     </g>
     <g id="line2d_16">
      <g>
       <use style="stroke:#000000;stroke-width:0.8;" x="33.76" xlink:href="#md9f9976b39" y="145.579494"/>
      </g>
     </g>
     <g id="text_8">
      <!-- 0.8 -->
      <g transform="translate(10.856875 149.378713)scale(0.1 -0.1)">
       <defs>
        <path d="M 31.78125 34.625 
Q 24.75 34.625 20.71875 30.859375 
Q 16.703125 27.09375 16.703125 20.515625 
Q 16.703125 13.921875 20.71875 10.15625 
Q 24.75 6.390625 31.78125 6.390625 
Q 38.8125 6.390625 42.859375 10.171875 
Q 46.921875 13.96875 46.921875 20.515625 
Q 46.921875 27.09375 42.890625 30.859375 
Q 38.875 34.625 31.78125 34.625 
z
M 21.921875 38.8125 
Q 15.578125 40.375 12.03125 44.71875 
Q 8.5 49.078125 8.5 55.328125 
Q 8.5 64.0625 14.71875 69.140625 
Q 20.953125 74.21875 31.78125 74.21875 
Q 42.671875 74.21875 48.875 69.140625 
Q 55.078125 64.0625 55.078125 55.328125 
Q 55.078125 49.078125 51.53125 44.71875 
Q 48 40.375 41.703125 38.8125 
Q 48.828125 37.15625 52.796875 32.3125 
Q 56.78125 27.484375 56.78125 20.515625 
Q 56.78125 9.90625 50.3125 4.234375 
Q 43.84375 -1.421875 31.78125 -1.421875 
Q 19.734375 -1.421875 13.25 4.234375 
Q 6.78125 9.90625 6.78125 20.515625 
Q 6.78125 27.484375 10.78125 32.3125 
Q 14.796875 37.15625 21.921875 38.8125 
z
M 18.3125 54.390625 
Q 18.3125 48.734375 21.84375 45.5625 
Q 25.390625 42.390625 31.78125 42.390625 
Q 38.140625 42.390625 41.71875 45.5625 
Q 45.3125 48.734375 45.3125 54.390625 
Q 45.3125 60.0625 41.71875 63.234375 
Q 38.140625 66.40625 31.78125 66.40625 
Q 25.390625 66.40625 21.84375 63.234375 
Q 18.3125 60.0625 18.3125 54.390625 
z
" id="DejaVuSans-56"/>
       </defs>
       <use xlink:href="#DejaVuSans-48"/>
       <use x="63.623047" xlink:href="#DejaVuSans-46"/>
       <use x="95.410156" xlink:href="#DejaVuSans-56"/>
      </g>
     </g>
    </g>
    <g id="ytick_5">
     <g id="line2d_17">
      <path clip-path="url(#p55686f9bc2)" d="M 33.76 111.519805 
L 1141.2 111.519805 
" style="fill:none;stroke:#b0b0b0;stroke-linecap:square;stroke-width:0.8;"/>
     </g>
     <g id="line2d_18">
      <g>
       <use style="stroke:#000000;stroke-width:0.8;" x="33.76" xlink:href="#md9f9976b39" y="111.519805"/>
      </g>
     </g>
     <g id="text_9">
      <!-- 1.0 -->
      <g transform="translate(10.856875 115.319024)scale(0.1 -0.1)">
       <use xlink:href="#DejaVuSans-49"/>
       <use x="63.623047" xlink:href="#DejaVuSans-46"/>
       <use x="95.410156" xlink:href="#DejaVuSans-48"/>
      </g>
     </g>
    </g>
    <g id="ytick_6">
     <g id="line2d_19">
      <path clip-path="url(#p55686f9bc2)" d="M 33.76 77.460117 
L 1141.2 77.460117 
" style="fill:none;stroke:#b0b0b0;stroke-linecap:square;stroke-width:0.8;"/>
     </g>
     <g id="line2d_20">
      <g>
       <use style="stroke:#000000;stroke-width:0.8;" x="33.76" xlink:href="#md9f9976b39" y="77.460117"/>
      </g>
     </g>
     <g id="text_10">
      <!-- 1.2 -->
      <g transform="translate(10.856875 81.259335)scale(0.1 -0.1)">
       <use xlink:href="#DejaVuSans-49"/>
       <use x="63.623047" xlink:href="#DejaVuSans-46"/>
       <use x="95.410156" xlink:href="#DejaVuSans-50"/>
      </g>
     </g>
    </g>
    <g id="ytick_7">
     <g id="line2d_21">
      <path clip-path="url(#p55686f9bc2)" d="M 33.76 43.400428 
L 1141.2 43.400428 
" style="fill:none;stroke:#b0b0b0;stroke-linecap:square;stroke-width:0.8;"/>
     </g>
     <g id="line2d_22">
      <g>
       <use style="stroke:#000000;stroke-width:0.8;" x="33.76" xlink:href="#md9f9976b39" y="43.400428"/>
      </g>
     </g>
     <g id="text_11">
      <!-- 1.4 -->
      <g transform="translate(10.856875 47.199647)scale(0.1 -0.1)">
       <use xlink:href="#DejaVuSans-49"/>
       <use x="63.623047" xlink:href="#DejaVuSans-46"/>
       <use x="95.410156" xlink:href="#DejaVuSans-52"/>
      </g>
     </g>
    </g>
   </g>
   <g id="line2d_23">
    <path clip-path="url(#p55686f9bc2)" d="M 84.098182 111.377546 
L 85.023516 106.059934 
L 85.94885 110.251522 
L 86.874184 112.950788 
L 89.650187 107.166596 
L 90.575521 111.159738 
L 91.500856 107.286491 
L 92.42619 106.70887 
L 93.351524 94.381901 
L 96.127527 100.18711 
L 97.052861 90.652273 
L 97.978195 97.661601 
L 98.903529 97.456027 
L 99.828864 87.213936 
L 102.604866 81.345336 
L 103.530201 68.951808 
L 104.455535 70.672181 
L 105.380869 67.440433 
L 106.306203 85.063282 
L 109.082206 132.415179 
L 110.00754 141.499802 
L 110.932874 145.826979 
L 111.858209 147.030316 
L 115.559545 157.685975 
L 116.48488 159.404869 
L 117.410214 153.163061 
L 118.335548 155.869859 
L 119.260882 155.694823 
L 122.036885 149.792863 
L 122.962219 144.278832 
L 123.887553 147.372336 
L 124.812888 152.12241 
L 125.738222 154.43528 
L 128.514225 157.745286 
L 129.439559 147.307548 
L 130.364893 152.821909 
L 131.290227 159.56308 
L 132.215561 154.531431 
L 134.991564 157.424779 
L 135.916898 157.754966 
L 136.842233 151.098285 
L 137.767567 177.442101 
L 138.692901 168.586401 
L 141.468904 170.039214 
L 142.394238 170.719952 
L 143.319572 171.196377 
L 144.244906 176.641841 
L 145.170241 177.616227 
L 147.946243 183.221646 
L 148.871578 183.591631 
L 149.796912 181.988337 
L 150.722246 183.65662 
L 151.64758 186.1622 
L 154.423583 184.890984 
L 155.348917 183.345897 
L 156.274251 185.725172 
L 157.199586 186.968911 
L 158.12492 187.887696 
L 160.900922 190.323182 
L 161.826257 191.407361 
L 162.751591 195.531166 
L 163.676925 196.327476 
L 164.602259 200.876439 
L 168.303596 161.310455 
L 169.22893 160.962119 
L 171.079599 162.390883 
L 173.855602 157.43517 
L 174.780936 156.057831 
L 176.631604 147.225228 
L 177.556939 154.788312 
L 180.332941 156.696246 
L 181.258275 160.45768 
L 182.18361 162.736903 
L 183.108944 156.795937 
L 184.034278 166.436021 
L 186.810281 165.574097 
L 187.735615 167.503329 
L 188.660949 166.919762 
L 189.586283 170.583483 
L 190.511618 175.434427 
L 193.28762 181.781292 
L 194.212955 157.099941 
L 195.138289 156.036796 
L 196.063623 152.4039 
L 196.988957 158.166125 
L 199.76496 154.171943 
L 200.690294 150.47172 
L 201.615628 150.406796 
L 202.540963 147.865876 
L 203.466297 154.840339 
L 206.242299 157.152711 
L 207.167634 157.733619 
L 208.092968 150.085235 
L 209.018302 147.309888 
L 209.943636 152.521271 
L 212.719639 154.799405 
L 213.644973 153.50456 
L 214.570307 152.52776 
L 215.495642 160.237391 
L 216.420976 153.043906 
L 219.196979 150.897864 
L 220.122313 140.255202 
L 221.047647 131.950009 
L 221.972981 149.78926 
L 222.898316 152.302999 
L 225.674318 149.86649 
L 226.599652 139.232637 
L 228.450321 148.414397 
L 229.375655 148.327677 
L 232.151658 144.978788 
L 233.076992 142.142095 
L 234.002326 147.297998 
L 234.92766 154.042298 
L 235.852995 144.712397 
L 238.628997 144.141325 
L 239.554332 147.726032 
L 241.405 130.255829 
L 242.330334 123.829722 
L 245.106337 121.540655 
L 246.957005 113.193897 
L 247.88234 114.803691 
L 248.807674 126.958058 
L 251.583676 95.869258 
L 252.509011 96.501674 
L 253.434345 84.012056 
L 254.359679 88.361119 
L 255.285013 86.239779 
L 258.061016 71.458985 
L 258.98635 73.279741 
L 259.911684 74.202554 
L 260.837019 76.366101 
L 261.762353 75.900972 
L 264.538356 69.723952 
L 265.46369 68.481319 
L 266.389024 63.497474 
L 267.314358 61.989072 
L 268.239693 66.45198 
L 271.015695 64.596312 
L 271.941029 70.557918 
L 272.866364 62.5353 
L 273.791698 62.79891 
L 274.717032 50.022488 
L 277.493035 37.176364 
L 278.418369 40.242617 
L 279.343703 131.17794 
L 280.269037 140.045967 
L 281.194372 138.854007 
L 283.970374 138.48243 
L 284.895709 130.496235 
L 285.821043 132.096203 
L 286.746377 139.984846 
L 287.671711 130.932219 
L 290.447714 135.296377 
L 291.373048 130.169727 
L 292.298382 118.819797 
L 293.223717 115.799244 
L 294.149051 116.455748 
L 296.925053 121.631022 
L 297.850388 124.174369 
L 298.775722 132.269672 
L 299.701056 143.802472 
L 300.62639 139.317991 
L 303.402393 133.661482 
L 304.327727 136.606688 
L 305.253061 145.084676 
L 306.178396 143.796695 
L 307.10373 152.779027 
L 309.879733 149.955805 
L 310.805067 153.753762 
L 311.730401 160.445923 
L 313.58107 162.411329 
L 316.357072 163.870002 
L 317.282406 170.845989 
L 318.207741 173.13307 
L 319.133075 177.370548 
L 320.058409 174.917324 
L 322.834412 176.073429 
L 323.759746 175.225049 
L 324.68508 175.908797 
L 325.610414 169.513171 
L 326.535749 166.850436 
L 329.311751 163.739632 
L 330.237086 166.647942 
L 331.16242 171.86497 
L 332.087754 165.629338 
L 333.013088 168.217357 
L 335.789091 141.553172 
L 336.714425 138.697033 
L 337.639759 146.683477 
L 338.565094 146.477009 
L 339.490428 137.358463 
L 342.26643 136.790705 
L 343.191765 131.481493 
L 344.117099 131.985189 
L 345.042433 135.745399 
L 345.967767 138.491991 
L 348.74377 136.013069 
L 349.669104 133.284846 
L 350.594439 132.167739 
L 351.519773 126.690134 
L 352.445107 130.464884 
L 355.22111 132.799163 
L 356.146444 128.177828 
L 357.071778 122.420574 
L 357.997112 124.418427 
L 358.922447 122.053896 
L 361.698449 113.86084 
L 362.623783 119.611023 
L 363.549118 166.072938 
L 365.399786 163.202956 
L 368.175789 168.659 
L 369.101123 174.405014 
L 370.026457 175.825222 
L 371.877126 179.971328 
L 374.653128 182.510358 
L 375.578463 179.640516 
L 376.503797 182.646542 
L 377.429131 179.879066 
L 378.354465 178.649013 
L 381.130468 179.20164 
L 382.055802 182.05124 
L 382.981136 187.440283 
L 383.906471 188.947241 
L 384.831805 188.618891 
L 387.607807 192.110497 
L 388.533142 194.349692 
L 389.458476 195.616298 
L 390.38381 197.604443 
L 391.309144 197.103886 
L 394.085147 177.07624 
L 395.010481 172.2068 
L 395.935816 173.236381 
L 396.86115 177.558374 
L 397.786484 174.580273 
L 400.562487 168.985675 
L 401.487821 169.03804 
L 402.413155 165.367095 
L 403.338489 161.047463 
L 404.263824 163.625597 
L 407.039826 164.268896 
L 407.96516 159.632645 
L 408.890495 160.486949 
L 409.815829 162.071638 
L 410.741163 164.057713 
L 413.517166 169.37318 
L 414.4425 172.801483 
L 415.367834 173.247065 
L 416.293168 179.62622 
L 417.218503 176.732997 
L 419.994505 180.239609 
L 420.91984 163.044017 
L 421.845174 155.374142 
L 422.770508 156.624569 
L 423.695842 153.693375 
L 426.471845 149.459109 
L 427.397179 149.912388 
L 428.322513 154.524563 
L 429.247848 151.321243 
L 430.173182 146.578612 
L 432.949184 140.120212 
L 433.874519 143.055934 
L 434.799853 145.469363 
L 435.725187 137.053366 
L 436.650521 140.908591 
L 439.426524 136.9314 
L 440.351858 149.117871 
L 441.277193 152.465742 
L 442.202527 151.399956 
L 443.127861 148.989419 
L 445.903864 146.962479 
L 446.829198 177.508045 
L 447.754532 174.224622 
L 448.679866 175.229501 
L 449.605201 173.862347 
L 452.381203 173.694929 
L 453.306537 168.744977 
L 454.231872 169.594264 
L 455.157206 172.248714 
L 456.08254 170.306751 
L 458.858543 170.398876 
L 459.783877 172.869663 
L 460.709211 175.890358 
L 461.634545 173.798627 
L 462.55988 171.226958 
L 465.335882 173.954036 
L 466.261217 178.864545 
L 468.111885 184.797639 
L 469.037219 184.708466 
L 471.813222 186.665527 
L 472.738556 187.677876 
L 473.66389 183.557229 
L 474.589225 184.450561 
L 475.514559 171.39784 
L 478.290561 169.017122 
L 479.215896 161.530472 
L 480.14123 164.696886 
L 481.066564 172.15019 
L 481.991898 177.460823 
L 484.767901 180.937041 
L 485.693235 177.121372 
L 487.543904 171.460314 
L 488.469238 171.036483 
L 491.245241 171.705621 
L 492.170575 169.720173 
L 493.095909 175.668333 
L 494.021243 170.792595 
L 494.946578 173.417123 
L 497.72258 171.356865 
L 498.647914 164.818367 
L 499.573249 159.611778 
L 500.498583 158.670642 
L 501.423917 161.404389 
L 504.19992 193.474777 
L 505.125254 191.241985 
L 506.975922 191.587619 
L 507.901257 194.528898 
L 510.677259 196.971319 
L 511.602594 200.388425 
L 512.527928 200.78764 
L 513.453262 199.263502 
L 514.378596 197.261061 
L 517.154599 198.583045 
L 518.079933 197.213013 
L 519.005267 198.992521 
L 519.930602 201.881469 
L 520.855936 203.803195 
L 523.631939 200.249033 
L 524.557273 199.659652 
L 526.407941 205.761329 
L 527.333275 204.751453 
L 530.109278 205.398662 
L 531.034612 208.090135 
L 531.959947 192.854965 
L 532.885281 192.068634 
L 533.810615 193.608616 
L 536.586618 194.491797 
L 537.511952 197.236867 
L 538.437286 201.826706 
L 539.36262 203.143039 
L 540.287955 203.52213 
L 543.063957 202.454883 
L 543.989291 204.131028 
L 544.914626 204.040833 
L 545.83996 204.656865 
L 546.765294 201.894791 
L 549.541297 203.407675 
L 550.466631 204.412184 
L 551.391965 202.901903 
L 552.317299 199.140757 
L 553.242634 204.51542 
L 556.018636 203.20312 
L 556.943971 201.894766 
L 557.869305 200.072852 
L 558.794639 203.201715 
L 559.719973 229.079023 
L 562.495976 230.741098 
L 563.42131 230.156515 
L 564.346644 232.921768 
L 565.271979 232.866287 
L 566.197313 235.438995 
L 568.973316 235.981443 
L 569.89865 238.434861 
L 570.823984 239.071161 
L 571.749318 241.54293 
L 572.674652 243.602536 
L 575.450655 246.633766 
L 576.375989 245.92269 
L 577.301324 244.24685 
L 578.226658 245.744462 
L 579.151992 247.726621 
L 581.927995 248.417826 
L 583.778663 247.542554 
L 584.703997 248.295506 
L 585.629332 250.278608 
L 588.405334 224.014175 
L 589.330668 223.088088 
L 590.256003 222.903332 
L 592.106671 224.997405 
L 594.882674 225.662004 
L 595.808008 226.114621 
L 596.733342 223.839677 
L 597.658676 222.18573 
L 598.584011 223.843312 
L 602.285348 221.775877 
L 603.210682 219.339692 
L 604.136016 216.26898 
L 605.06135 212.003131 
L 607.837353 212.377626 
L 608.762687 211.8849 
L 609.688021 213.863761 
L 610.613356 216.599817 
L 611.53869 214.445265 
L 614.314693 217.949372 
L 615.240027 220.089447 
L 616.165361 218.17833 
L 617.090695 233.141543 
L 618.016029 231.933084 
L 620.792032 231.215287 
L 621.717366 230.813123 
L 622.642701 230.166127 
L 623.568035 232.271701 
L 624.493369 231.725344 
L 627.269372 232.629669 
L 628.194706 233.632342 
L 629.12004 236.258795 
L 630.045374 236.027911 
L 630.970709 237.02715 
L 633.746711 235.45744 
L 634.672045 236.655639 
L 635.59738 234.188101 
L 636.522714 233.866048 
L 637.448048 235.047574 
L 640.224051 235.011235 
L 641.149385 233.608039 
L 642.074719 234.005564 
L 643.000053 237.519596 
L 643.925388 237.216246 
L 647.626725 227.914072 
L 648.552059 228.652228 
L 649.477393 229.098429 
L 650.402727 228.376378 
L 653.17873 228.588721 
L 654.104064 227.631506 
L 655.029398 225.529326 
L 655.954733 226.51523 
L 656.880067 225.356283 
L 659.65607 228.44504 
L 660.581404 225.768921 
L 661.506738 229.611323 
L 662.432072 229.245428 
L 663.357406 230.187073 
L 666.133409 229.968776 
L 667.058743 228.181429 
L 667.984078 227.340368 
L 668.909412 227.480733 
L 669.834746 229.256097 
L 672.610749 226.892736 
L 673.536083 240.226843 
L 674.461417 242.216533 
L 675.386751 243.310331 
L 676.312086 242.070668 
L 679.088088 242.278952 
L 680.013422 242.1563 
L 680.938757 244.156975 
L 681.864091 244.831954 
L 682.789425 243.923198 
L 685.565428 245.092582 
L 686.490762 245.046734 
L 687.416096 244.281954 
L 688.34143 243.315556 
L 689.266765 243.094749 
L 692.042767 241.925834 
L 692.968102 241.325494 
L 693.893436 239.655581 
L 694.81877 241.790764 
L 695.744104 240.719856 
L 698.520107 242.035739 
L 699.445441 243.907003 
L 700.370775 243.950878 
L 701.29611 246.656682 
L 702.221444 247.117246 
L 704.997447 248.905848 
L 705.922781 248.3344 
L 706.848115 249.35089 
L 707.773449 248.590472 
L 708.698783 249.940588 
L 711.474786 249.286953 
L 712.40012 248.451909 
L 713.325455 250.060326 
L 714.250789 249.05637 
L 715.176123 251.183835 
L 717.952126 249.097909 
L 718.87746 248.852939 
L 719.802794 247.778635 
L 720.728128 246.034078 
L 721.653463 249.289582 
L 724.429465 250.15523 
L 725.354799 250.623946 
L 726.280134 250.724065 
L 727.205468 251.201576 
L 728.130802 253.028712 
L 731.832139 249.099162 
L 732.757473 249.378714 
L 733.682807 250.131793 
L 734.608142 248.718769 
L 737.384144 249.179903 
L 738.309479 248.327441 
L 739.234813 247.966924 
L 740.160147 247.116429 
L 741.085481 246.578702 
L 743.861484 246.91852 
L 744.786818 245.945846 
L 745.712152 246.521247 
L 746.637487 247.597532 
L 747.562821 249.530172 
L 750.338824 248.750008 
L 751.264158 249.993076 
L 753.114826 250.150342 
L 754.04016 251.414268 
L 756.816163 252.989305 
L 757.741497 252.253945 
L 758.666832 243.048423 
L 759.592166 240.850585 
L 760.5175 237.932723 
L 763.293503 234.843158 
L 764.218837 233.235335 
L 765.144171 230.584587 
L 766.069505 230.349579 
L 766.99484 232.7774 
L 769.770842 235.61941 
L 770.696176 236.280083 
L 771.621511 236.56741 
L 772.546845 234.192719 
L 773.472179 232.802435 
L 776.248182 230.039824 
L 777.173516 231.781705 
L 778.09885 231.624394 
L 779.024184 233.511323 
L 779.949519 234.864501 
L 782.725521 232.589506 
L 783.650856 233.879284 
L 784.57619 233.847262 
L 785.501524 249.507303 
L 786.426858 249.091463 
L 789.202861 248.951406 
L 790.128195 248.205693 
L 791.053529 248.289481 
L 791.978864 247.12473 
L 792.904198 248.815808 
L 795.680201 249.23357 
L 796.605535 250.117839 
L 797.530869 251.502191 
L 798.456203 249.803563 
L 799.381537 251.337334 
L 802.15754 251.587235 
L 803.082874 250.540388 
L 804.008209 249.798569 
L 804.933543 249.361424 
L 805.858877 249.936616 
L 808.63488 249.360011 
L 810.485548 250.495237 
L 811.410882 253.363367 
L 812.336217 254.277834 
L 815.112219 238.853881 
L 816.037553 238.971818 
L 816.962888 236.314902 
L 818.813556 236.490629 
L 821.589559 236.058463 
L 822.514893 236.322375 
L 823.440227 234.590136 
L 824.365561 235.599475 
L 828.066898 235.466704 
L 828.992233 233.579604 
L 829.917567 232.476301 
L 830.842901 233.485988 
L 831.768235 233.245374 
L 834.544238 234.82262 
L 835.469572 232.992944 
L 836.394906 231.484495 
L 837.320241 229.63391 
L 838.245575 230.568353 
L 841.021578 229.374512 
L 841.946912 240.671466 
L 842.872246 241.253167 
L 843.79758 240.989043 
L 844.722914 242.79856 
L 847.498917 241.397498 
L 848.424251 241.69829 
L 849.349586 241.75716 
L 850.27492 240.997703 
L 851.200254 239.318114 
L 853.976257 242.116079 
L 854.901591 240.77341 
L 855.826925 242.274441 
L 856.752259 244.034056 
L 857.677594 243.813797 
L 860.453596 245.129176 
L 861.37893 246.076462 
L 862.304265 247.451242 
L 863.229599 247.231149 
L 864.154933 246.515829 
L 866.930936 247.176965 
L 867.85627 247.641234 
L 868.781604 246.680083 
L 869.706939 246.246177 
L 870.632273 245.538941 
L 873.408275 244.476884 
L 874.33361 245.975795 
L 875.258944 245.713259 
L 876.184278 244.841851 
L 877.109612 245.62019 
L 879.885615 246.587512 
L 880.810949 248.253827 
L 881.736283 249.601113 
L 882.661618 249.944024 
L 883.586952 249.424021 
L 886.362955 251.308357 
L 887.288289 252.396064 
L 888.213623 251.932891 
L 889.138957 251.978147 
L 890.064291 252.394886 
L 892.840294 251.547314 
L 893.765628 251.754266 
L 894.690963 250.341672 
L 896.541631 248.201978 
L 899.317634 255.524584 
L 900.242968 256.121401 
L 901.168302 256.366882 
L 902.093636 254.57784 
L 903.018971 255.357054 
L 905.794973 256.219209 
L 907.645642 257.423803 
L 908.570976 258.343296 
L 909.49631 258.603124 
L 912.272313 258.825064 
L 913.197647 260.726478 
L 914.122981 260.584232 
L 915.048316 261.007723 
L 915.97365 261.104461 
L 918.749652 261.227952 
L 919.674987 260.537483 
L 920.600321 261.131951 
L 921.525655 260.984004 
L 922.450989 260.467655 
L 925.226992 262.303636 
L 926.152326 261.732932 
L 927.07766 247.204272 
L 928.002995 245.423108 
L 928.928329 247.412248 
L 931.704332 246.73385 
L 932.629666 245.557662 
L 933.555 243.056645 
L 934.480334 241.296963 
L 935.405668 239.941753 
L 938.181671 241.839735 
L 939.107005 241.620625 
L 940.03234 242.482136 
L 940.957674 241.7321 
L 941.883008 241.29049 
L 944.659011 240.659445 
L 945.584345 240.83262 
L 946.509679 240.843741 
L 947.435013 238.984749 
L 948.360348 236.345692 
L 951.13635 237.610808 
L 952.987019 232.532016 
L 953.912353 234.003151 
L 954.837687 232.621738 
L 957.61369 244.161912 
L 958.539024 244.765888 
L 959.464358 244.368495 
L 960.389693 241.705459 
L 961.315027 239.846728 
L 964.091029 239.552047 
L 965.016364 239.785962 
L 965.941698 238.606134 
L 966.867032 237.218919 
L 967.792366 238.052467 
L 970.568369 237.419583 
L 971.493703 236.550979 
L 972.419037 234.319928 
L 973.344372 236.885629 
L 974.269706 238.85122 
L 977.045709 239.650049 
L 978.896377 241.866281 
L 979.821711 242.693478 
L 980.747045 241.584519 
L 983.523048 226.476556 
L 984.448382 228.124896 
L 985.373717 229.290279 
L 986.299051 227.491418 
L 987.224385 224.132007 
L 990.000388 220.161167 
L 991.851056 223.58498 
L 992.77639 221.583574 
L 993.701725 221.409757 
L 996.477727 220.661711 
L 997.403061 218.509555 
L 998.328396 217.688043 
L 999.25373 217.624668 
L 1000.179064 214.206655 
L 1002.955067 210.989907 
L 1003.880401 213.95831 
L 1004.805735 213.277937 
L 1005.73107 208.383402 
L 1006.656404 209.107629 
L 1009.432406 206.021818 
L 1010.357741 203.452521 
L 1011.283075 204.65234 
L 1012.208409 222.763086 
L 1013.133743 218.221482 
L 1015.909746 217.880415 
L 1016.83508 215.966544 
L 1017.760414 216.204584 
L 1018.685749 218.707467 
L 1019.611083 216.140651 
L 1022.387086 215.027474 
L 1023.31242 214.334377 
L 1024.237754 216.392513 
L 1025.163088 215.996845 
L 1026.088422 217.4722 
L 1028.864425 217.23655 
L 1029.789759 217.6928 
L 1030.715094 218.782508 
L 1031.640428 217.360617 
L 1032.565762 218.705513 
L 1035.341765 219.729079 
L 1036.267099 221.64926 
L 1037.192433 219.750478 
L 1038.117767 218.773096 
L 1039.043102 219.008646 
L 1041.819104 218.137126 
L 1042.744439 221.556711 
L 1043.669773 216.207215 
L 1044.595107 216.017269 
L 1045.520441 216.53771 
L 1048.296444 215.872878 
L 1050.147112 211.706182 
L 1051.072447 207.878097 
L 1051.997781 212.272698 
L 1054.773783 213.414715 
L 1055.699118 218.52903 
L 1056.624452 217.325829 
L 1057.549786 221.156894 
L 1058.47512 218.925754 
L 1061.251123 216.905988 
L 1062.176457 215.762705 
L 1063.101791 215.366575 
L 1064.027126 215.61104 
L 1064.95246 213.025866 
L 1067.728463 213.464029 
L 1068.653797 238.103052 
L 1069.579131 238.53604 
L 1070.504465 236.119669 
L 1071.429799 238.485306 
L 1074.205802 239.813021 
L 1075.131136 242.570716 
L 1076.056471 242.185061 
L 1076.981805 244.332662 
L 1077.907139 244.291019 
L 1080.683142 246.06098 
L 1081.608476 245.922439 
L 1082.53381 247.860441 
L 1084.384479 248.799604 
L 1087.160481 248.139191 
L 1088.085816 248.367804 
L 1089.936484 249.726823 
L 1090.861818 250.013582 
L 1090.861818 250.013582 
" style="fill:none;stroke:#1f77b4;stroke-linecap:square;stroke-width:1.5;"/>
   </g>
   <g id="line2d_24">
    <path clip-path="url(#p55686f9bc2)" d="M 84.098182 111.39885 
L 85.023516 106.992243 
L 85.94885 112.777476 
L 86.874184 115.734475 
L 89.650187 111.788564 
L 90.575521 114.64549 
L 91.500856 106.019154 
L 92.42619 106.492 
L 93.351524 105.976973 
L 97.052861 112.172242 
L 97.978195 117.195817 
L 98.903529 117.942209 
L 99.828864 120.197965 
L 102.604866 121.508835 
L 103.530201 117.822552 
L 104.455535 115.771221 
L 105.380869 110.542554 
L 106.306203 115.679484 
L 109.082206 115.991484 
L 110.00754 125.556952 
L 110.932874 123.081699 
L 111.858209 123.969309 
L 112.783543 119.499971 
L 115.559545 118.886991 
L 116.48488 122.096966 
L 117.410214 113.309108 
L 118.335548 115.122989 
L 119.260882 116.437491 
L 122.036885 117.008272 
L 122.962219 115.990644 
L 123.887553 119.653449 
L 124.812888 121.317569 
L 125.738222 120.763498 
L 128.514225 121.461736 
L 129.439559 114.109092 
L 130.364893 113.529029 
L 131.290227 119.081456 
L 132.215561 114.744562 
L 134.991564 118.968345 
L 135.916898 119.017643 
L 136.842233 114.667774 
L 137.767567 116.171936 
L 138.692901 112.871032 
L 143.319572 116.086703 
L 144.244906 117.378886 
L 145.170241 119.696106 
L 147.946243 128.332665 
L 148.871578 130.184404 
L 149.796912 125.102308 
L 150.722246 128.989099 
L 151.64758 129.081541 
L 154.423583 130.959253 
L 155.348917 124.773027 
L 156.274251 124.492307 
L 157.199586 129.5346 
L 158.12492 130.128672 
L 160.900922 127.22355 
L 161.826257 129.310204 
L 162.751591 131.891859 
L 163.676925 130.841772 
L 164.602259 131.134058 
L 167.378262 130.786135 
L 168.303596 128.319879 
L 169.22893 127.877877 
L 170.154265 124.710742 
L 171.079599 123.529486 
L 173.855602 126.789265 
L 174.780936 126.026973 
L 175.70627 123.857141 
L 176.631604 126.170451 
L 177.556939 127.895165 
L 180.332941 128.155996 
L 181.258275 130.574438 
L 182.18361 129.744867 
L 183.108944 123.304156 
L 184.034278 125.634051 
L 186.810281 127.383722 
L 187.735615 130.652726 
L 188.660949 128.016225 
L 189.586283 128.968269 
L 190.511618 128.304631 
L 193.28762 129.991594 
L 194.212955 133.749653 
L 195.138289 134.913912 
L 196.063623 132.148826 
L 196.988957 131.773832 
L 199.76496 130.022715 
L 200.690294 132.658437 
L 201.615628 128.45643 
L 202.540963 127.828927 
L 203.466297 131.696516 
L 206.242299 132.312027 
L 207.167634 132.026002 
L 208.092968 131.496769 
L 209.018302 127.134168 
L 209.943636 128.101171 
L 212.719639 124.226465 
L 213.644973 125.786825 
L 214.570307 121.901935 
L 215.495642 130.189988 
L 216.420976 129.060963 
L 219.196979 125.331392 
L 220.122313 119.909475 
L 221.047647 117.590787 
L 221.972981 122.8462 
L 222.898316 122.019363 
L 225.674318 117.608818 
L 226.599652 112.779982 
L 227.524987 113.856249 
L 228.450321 113.461817 
L 229.375655 111.571922 
L 232.151658 113.876887 
L 233.076992 109.57188 
L 234.002326 111.867578 
L 234.92766 113.559743 
L 235.852995 107.362916 
L 238.628997 107.888335 
L 239.554332 114.21695 
L 240.479666 116.286413 
L 241.405 115.155506 
L 242.330334 114.700898 
L 245.106337 110.345183 
L 246.031671 104.722687 
L 246.957005 104.743054 
L 247.88234 104.611834 
L 248.807674 108.561303 
L 251.583676 103.313045 
L 252.509011 102.488282 
L 253.434345 96.867512 
L 254.359679 93.165118 
L 255.285013 93.322563 
L 258.061016 88.332438 
L 258.98635 92.729415 
L 259.911684 94.935552 
L 260.837019 89.094022 
L 261.762353 88.296153 
L 264.538356 84.386111 
L 265.46369 85.863922 
L 266.389024 79.697093 
L 267.314358 83.023424 
L 268.239693 82.701137 
L 271.015695 82.341838 
L 271.941029 84.852766 
L 272.866364 83.527392 
L 273.791698 82.552473 
L 274.717032 83.243434 
L 277.493035 82.1341 
L 278.418369 86.128894 
L 279.343703 89.595999 
L 280.269037 95.042941 
L 281.194372 96.121889 
L 283.970374 94.774137 
L 284.895709 92.394898 
L 285.821043 94.667914 
L 286.746377 94.961197 
L 287.671711 89.995366 
L 290.447714 92.52373 
L 291.373048 85.821263 
L 292.298382 82.602656 
L 294.149051 80.271484 
L 296.925053 82.807008 
L 297.850388 81.673875 
L 298.775722 85.784911 
L 299.701056 88.405515 
L 300.62639 84.433656 
L 303.402393 76.83045 
L 304.327727 83.094018 
L 305.253061 84.43737 
L 306.178396 90.057268 
L 307.10373 91.078939 
L 309.879733 88.327436 
L 310.805067 89.933297 
L 311.730401 94.245361 
L 312.655735 90.509397 
L 313.58107 89.403448 
L 316.357072 92.125395 
L 317.282406 96.945348 
L 318.207741 101.139459 
L 319.133075 97.642688 
L 320.058409 98.354493 
L 322.834412 99.752867 
L 323.759746 98.305187 
L 324.68508 99.420083 
L 325.610414 96.401641 
L 326.535749 97.864171 
L 329.311751 94.387351 
L 330.237086 98.195116 
L 331.16242 97.40617 
L 332.087754 100.078525 
L 333.013088 99.006914 
L 335.789091 100.933727 
L 336.714425 95.497564 
L 337.639759 93.866734 
L 338.565094 93.464977 
L 339.490428 89.228748 
L 342.26643 87.227635 
L 343.191765 88.199028 
L 344.117099 85.674026 
L 345.042433 90.182213 
L 345.967767 89.723225 
L 348.74377 86.65476 
L 349.669104 86.166539 
L 350.594439 84.270266 
L 351.519773 80.834136 
L 352.445107 80.00383 
L 355.22111 75.896958 
L 356.146444 74.766214 
L 357.071778 72.396264 
L 357.997112 72.754979 
L 358.922447 76.51154 
L 361.698449 77.306958 
L 362.623783 78.860244 
L 363.549118 77.452114 
L 364.474452 83.547557 
L 365.399786 82.612614 
L 368.175789 83.803316 
L 369.101123 89.301308 
L 370.026457 90.183135 
L 370.951791 88.572501 
L 371.877126 89.045836 
L 374.653128 88.569781 
L 375.578463 86.493853 
L 376.503797 90.013946 
L 377.429131 88.176374 
L 378.354465 86.865842 
L 381.130468 86.181707 
L 382.055802 83.486118 
L 382.981136 84.029647 
L 383.906471 79.738857 
L 384.831805 77.210323 
L 387.607807 72.361169 
L 388.533142 77.086815 
L 389.458476 76.029499 
L 390.38381 73.109377 
L 391.309144 77.038158 
L 394.085147 74.295244 
L 395.010481 70.893979 
L 395.935816 64.122112 
L 396.86115 65.268247 
L 397.786484 62.860311 
L 400.562487 62.754475 
L 401.487821 63.43874 
L 402.413155 54.940549 
L 403.338489 51.330384 
L 404.263824 53.776551 
L 407.039826 50.825278 
L 407.96516 55.382264 
L 408.890495 54.775558 
L 410.741163 58.345123 
L 413.517166 63.132749 
L 414.4425 68.878507 
L 415.367834 73.392264 
L 416.293168 74.988088 
L 417.218503 72.994216 
L 419.994505 74.469116 
L 420.91984 76.211569 
L 421.845174 71.573128 
L 422.770508 75.695018 
L 423.695842 71.071437 
L 426.471845 66.84502 
L 427.397179 67.888734 
L 428.322513 72.329188 
L 429.247848 67.332377 
L 430.173182 63.333055 
L 432.949184 62.754778 
L 433.874519 68.441492 
L 434.799853 67.770624 
L 435.725187 63.149652 
L 436.650521 63.711062 
L 439.426524 65.564803 
L 440.351858 68.298518 
L 441.277193 68.846554 
L 442.202527 71.112878 
L 443.127861 69.713845 
L 445.903864 68.159847 
L 446.829198 71.505862 
L 447.754532 65.226747 
L 448.679866 71.894862 
L 449.605201 74.315481 
L 452.381203 71.762661 
L 453.306537 68.520143 
L 454.231872 71.382938 
L 455.157206 72.824701 
L 456.08254 67.324916 
L 458.858543 64.145495 
L 459.783877 66.919488 
L 460.709211 70.917902 
L 462.55988 65.081082 
L 465.335882 64.264692 
L 466.261217 66.344674 
L 467.186551 70.322931 
L 468.111885 76.912919 
L 469.037219 71.305778 
L 471.813222 72.215398 
L 473.66389 78.054757 
L 474.589225 76.267294 
L 475.514559 75.817093 
L 478.290561 75.647781 
L 479.215896 69.325548 
L 480.14123 65.274068 
L 481.066564 67.959581 
L 481.991898 67.879374 
L 484.767901 68.04657 
L 485.693235 70.934281 
L 487.543904 63.319895 
L 488.469238 60.878472 
L 491.245241 68.470367 
L 492.170575 61.955694 
L 493.095909 64.060267 
L 494.021243 59.1649 
L 494.946578 58.297688 
L 498.647914 61.395235 
L 499.573249 57.176432 
L 500.498583 55.597316 
L 501.423917 61.583292 
L 504.19992 65.479173 
L 505.125254 61.334953 
L 506.050588 64.061076 
L 506.975922 61.461275 
L 507.901257 63.363669 
L 510.677259 61.643016 
L 511.602594 58.339339 
L 512.527928 62.317044 
L 513.453262 68.453373 
L 514.378596 71.830906 
L 517.154599 72.349923 
L 518.079933 67.85159 
L 519.005267 69.052939 
L 519.930602 75.169994 
L 520.855936 75.776978 
L 523.631939 71.011345 
L 525.482607 81.489691 
L 526.407941 84.768524 
L 527.333275 83.005713 
L 530.109278 82.15806 
L 531.034612 83.012993 
L 531.959947 78.367126 
L 532.885281 83.021201 
L 536.586618 79.744415 
L 537.511952 84.434222 
L 538.437286 92.029282 
L 540.287955 99.427626 
L 543.063957 92.584724 
L 543.989291 89.801173 
L 544.914626 92.382077 
L 545.83996 92.206749 
L 546.765294 90.539619 
L 549.541297 94.467162 
L 550.466631 94.037382 
L 553.242634 95.632408 
L 556.018636 98.610431 
L 556.943971 100.652095 
L 557.869305 100.355784 
L 558.794639 98.162416 
L 559.719973 100.515423 
L 562.495976 105.553599 
L 563.42131 107.805342 
L 564.346644 113.127499 
L 565.271979 116.09509 
L 566.197313 117.860097 
L 568.973316 119.69357 
L 569.89865 120.113522 
L 570.823984 120.693066 
L 571.749318 128.728281 
L 572.674652 131.192311 
L 575.450655 133.954125 
L 576.375989 131.378322 
L 577.301324 128.151781 
L 578.226658 134.338364 
L 579.151992 137.74156 
L 581.927995 135.19445 
L 582.853329 131.757208 
L 584.703997 136.271936 
L 585.629332 138.957278 
L 588.405334 140.648146 
L 589.330668 138.201626 
L 590.256003 138.571681 
L 591.181337 137.291901 
L 592.106671 134.526543 
L 594.882674 134.998693 
L 595.808008 137.191505 
L 596.733342 137.004667 
L 597.658676 137.875973 
L 598.584011 137.967697 
L 601.360013 137.108377 
L 602.285348 136.239567 
L 603.210682 131.761007 
L 604.136016 131.978609 
L 605.06135 130.277468 
L 607.837353 127.991104 
L 608.762687 122.626367 
L 609.688021 125.199761 
L 610.613356 130.101169 
L 611.53869 127.592262 
L 614.314693 131.145361 
L 615.240027 130.931613 
L 616.165361 130.380896 
L 617.090695 130.957775 
L 618.016029 126.787109 
L 620.792032 127.851161 
L 621.717366 129.370499 
L 622.642701 129.281678 
L 623.568035 133.298244 
L 624.493369 133.899258 
L 627.269372 139.760522 
L 628.194706 144.551316 
L 629.12004 147.277106 
L 630.045374 148.103713 
L 630.970709 147.474051 
L 633.746711 144.443675 
L 634.672045 145.930304 
L 635.59738 142.937896 
L 636.522714 140.477509 
L 637.448048 140.612167 
L 640.224051 141.525434 
L 641.149385 142.735327 
L 642.074719 140.66422 
L 643.000053 145.181426 
L 643.925388 142.02601 
L 646.70139 143.739602 
L 647.626725 143.518406 
L 648.552059 145.516709 
L 649.477393 143.344242 
L 650.402727 142.221539 
L 653.17873 142.312331 
L 654.104064 141.995465 
L 655.029398 140.068502 
L 655.954733 137.564631 
L 656.880067 138.577934 
L 659.65607 144.438537 
L 660.581404 144.553257 
L 661.506738 146.71103 
L 662.432072 147.783532 
L 663.357406 150.321427 
L 666.133409 150.880437 
L 667.058743 150.353513 
L 667.984078 148.752515 
L 668.909412 147.502614 
L 669.834746 152.448094 
L 672.610749 151.136271 
L 674.461417 158.153804 
L 675.386751 160.827375 
L 676.312086 161.585868 
L 679.088088 160.053463 
L 680.013422 162.906681 
L 680.938757 164.682031 
L 681.864091 167.075701 
L 682.789425 165.350431 
L 685.565428 165.503645 
L 686.490762 164.836662 
L 687.416096 161.826881 
L 688.34143 158.045422 
L 689.266765 157.297255 
L 692.042767 157.359712 
L 692.968102 157.165402 
L 693.893436 155.495872 
L 694.81877 159.564496 
L 695.744104 157.214331 
L 698.520107 160.142008 
L 699.445441 164.848656 
L 700.370775 161.744133 
L 701.29611 160.740015 
L 702.221444 164.360153 
L 704.997447 169.287516 
L 705.922781 167.177634 
L 706.848115 170.678676 
L 707.773449 169.82473 
L 708.698783 173.402341 
L 711.474786 171.4117 
L 712.40012 172.515094 
L 713.325455 173.291015 
L 714.250789 170.580079 
L 715.176123 169.621231 
L 717.952126 168.722271 
L 718.87746 169.133168 
L 719.802794 170.741055 
L 720.728128 170.512689 
L 721.653463 174.809775 
L 724.429465 177.615746 
L 725.354799 179.566844 
L 726.280134 180.5721 
L 727.205468 182.01353 
L 728.130802 181.563157 
L 730.906805 182.615187 
L 731.832139 184.024872 
L 732.757473 183.698447 
L 734.608142 180.45077 
L 737.384144 181.565982 
L 738.309479 180.007891 
L 739.234813 175.572828 
L 740.160147 175.170627 
L 741.085481 173.362791 
L 743.861484 172.943209 
L 744.786818 171.321946 
L 746.637487 168.831443 
L 747.562821 171.00022 
L 750.338824 170.826155 
L 751.264158 173.789405 
L 752.189492 172.112176 
L 753.114826 175.048764 
L 754.04016 176.257087 
L 756.816163 177.00981 
L 757.741497 176.207652 
L 758.666832 176.206147 
L 759.592166 176.522184 
L 760.5175 174.254385 
L 763.293503 173.123616 
L 764.218837 174.327883 
L 765.144171 175.055156 
L 766.069505 173.657522 
L 766.99484 171.869198 
L 769.770842 172.608456 
L 770.696176 174.760194 
L 771.621511 173.117423 
L 772.546845 169.786056 
L 773.472179 167.56442 
L 776.248182 164.539312 
L 777.173516 164.540176 
L 778.09885 163.555787 
L 779.024184 165.716712 
L 779.949519 165.950655 
L 782.725521 164.489567 
L 783.650856 162.121096 
L 784.57619 162.101839 
L 785.501524 163.144714 
L 786.426858 161.619018 
L 789.202861 161.512062 
L 790.128195 158.01758 
L 791.053529 159.930842 
L 791.978864 160.976238 
L 792.904198 161.281749 
L 795.680201 163.957453 
L 797.530869 170.304093 
L 798.456203 169.854125 
L 799.381537 170.427261 
L 802.15754 167.590432 
L 803.082874 165.745552 
L 804.008209 165.962473 
L 804.933543 164.2112 
L 805.858877 164.697864 
L 808.63488 159.809066 
L 809.560214 160.651748 
L 810.485548 162.138003 
L 811.410882 166.258705 
L 812.336217 168.74301 
L 815.112219 170.038108 
L 816.037553 170.777059 
L 816.962888 168.928164 
L 817.888222 172.571236 
L 818.813556 175.30364 
L 821.589559 173.819863 
L 822.514893 176.234553 
L 823.440227 173.829879 
L 824.365561 173.708491 
L 825.290896 176.496907 
L 828.066898 177.763586 
L 828.992233 179.415438 
L 829.917567 180.581621 
L 830.842901 178.285471 
L 831.768235 180.600073 
L 834.544238 182.528169 
L 835.469572 179.696217 
L 836.394906 179.400155 
L 837.320241 178.815847 
L 838.245575 180.159643 
L 841.946912 180.510601 
L 842.872246 180.954831 
L 844.722914 181.416213 
L 847.498917 181.239457 
L 848.424251 183.612932 
L 849.349586 182.534923 
L 850.27492 182.62673 
L 851.200254 181.835466 
L 853.976257 186.237967 
L 854.901591 186.288312 
L 855.826925 187.322957 
L 856.752259 187.432469 
L 857.677594 185.611222 
L 860.453596 187.005874 
L 861.37893 187.226531 
L 862.304265 188.859716 
L 863.229599 188.299246 
L 864.154933 185.780403 
L 867.85627 186.134912 
L 868.781604 183.117634 
L 869.706939 183.047061 
L 870.632273 185.045269 
L 873.408275 180.619546 
L 874.33361 183.122032 
L 875.258944 183.074073 
L 876.184278 182.500224 
L 877.109612 183.906164 
L 879.885615 184.795016 
L 880.810949 183.857237 
L 881.736283 185.448254 
L 882.661618 183.873449 
L 883.586952 185.073766 
L 886.362955 186.670094 
L 887.288289 186.695957 
L 888.213623 184.330031 
L 889.138957 183.9307 
L 890.064291 185.583551 
L 892.840294 184.984349 
L 893.765628 183.671405 
L 894.690963 179.760821 
L 896.541631 183.327188 
L 899.317634 184.134889 
L 900.242968 187.760678 
L 901.168302 187.390858 
L 902.093636 186.270041 
L 903.018971 186.735467 
L 905.794973 187.869465 
L 906.720307 187.70882 
L 907.645642 188.116204 
L 908.570976 188.240971 
L 909.49631 189.242379 
L 912.272313 190.299492 
L 913.197647 194.707475 
L 915.97365 197.597547 
L 918.749652 199.775993 
L 919.674987 199.344306 
L 921.525655 199.074407 
L 922.450989 198.418107 
L 925.226992 199.691143 
L 926.152326 198.92118 
L 927.07766 201.107823 
L 928.002995 201.109473 
L 928.928329 203.42084 
L 931.704332 202.543153 
L 932.629666 201.138127 
L 933.555 199.220248 
L 934.480334 197.565676 
L 935.405668 197.256052 
L 938.181671 198.694024 
L 939.107005 197.627886 
L 940.03234 199.06193 
L 940.957674 198.35868 
L 941.883008 199.800545 
L 945.584345 199.880932 
L 946.509679 200.164936 
L 947.435013 197.754734 
L 948.360348 193.42235 
L 951.13635 192.622691 
L 952.061684 193.197566 
L 952.987019 191.992796 
L 953.912353 195.780103 
L 954.837687 196.750824 
L 957.61369 199.457232 
L 958.539024 201.3144 
L 959.464358 200.699976 
L 960.389693 199.736598 
L 961.315027 198.103219 
L 964.091029 196.905687 
L 965.016364 198.811453 
L 965.941698 198.283471 
L 966.867032 199.170656 
L 967.792366 202.387331 
L 970.568369 204.254848 
L 972.419037 200.37681 
L 973.344372 202.091024 
L 974.269706 203.400506 
L 977.045709 206.325779 
L 978.896377 209.135205 
L 979.821711 207.082956 
L 980.747045 205.881503 
L 984.448382 207.909615 
L 985.373717 206.201947 
L 986.299051 206.636931 
L 987.224385 204.078808 
L 990.000388 202.449668 
L 990.925722 203.464265 
L 991.851056 204.049271 
L 992.77639 202.679438 
L 993.701725 202.636092 
L 996.477727 202.392621 
L 997.403061 203.022845 
L 998.328396 202.206142 
L 999.25373 203.822235 
L 1000.179064 203.295249 
L 1002.955067 201.165083 
L 1003.880401 201.08846 
L 1004.805735 199.238059 
L 1005.73107 195.856596 
L 1006.656404 196.241563 
L 1009.432406 194.787826 
L 1010.357741 195.239146 
L 1011.283075 193.060056 
L 1012.208409 192.775265 
L 1013.133743 190.224644 
L 1015.909746 191.012776 
L 1016.83508 190.288233 
L 1017.760414 190.42495 
L 1018.685749 189.513893 
L 1019.611083 188.17038 
L 1022.387086 189.555099 
L 1023.31242 189.57095 
L 1024.237754 190.152879 
L 1026.088422 192.697277 
L 1028.864425 191.557173 
L 1029.789759 191.025585 
L 1030.715094 193.332638 
L 1031.640428 190.261953 
L 1032.565762 191.587371 
L 1035.341765 191.083089 
L 1036.267099 193.445001 
L 1037.192433 192.55702 
L 1039.043102 196.942623 
L 1041.819104 198.364594 
L 1042.744439 200.896929 
L 1043.669773 197.100319 
L 1044.595107 195.571528 
L 1045.520441 196.769496 
L 1048.296444 196.875645 
L 1049.221778 199.256266 
L 1050.147112 199.772274 
L 1051.072447 199.55161 
L 1051.997781 198.425736 
L 1054.773783 201.043225 
L 1055.699118 203.470776 
L 1056.624452 202.583139 
L 1057.549786 204.013944 
L 1058.47512 206.478735 
L 1061.251123 204.94084 
L 1062.176457 204.663285 
L 1063.101791 205.427998 
L 1064.027126 205.738235 
L 1064.95246 204.888575 
L 1068.653797 205.043352 
L 1069.579131 204.160667 
L 1070.504465 201.770856 
L 1071.429799 203.105911 
L 1074.205802 202.408107 
L 1075.131136 202.530379 
L 1076.981805 207.383945 
L 1077.907139 207.226275 
L 1080.683142 208.870964 
L 1081.608476 206.494269 
L 1083.459144 210.619602 
L 1084.384479 210.140973 
L 1087.160481 209.442685 
L 1088.085816 209.461396 
L 1089.01115 210.419967 
L 1089.936484 209.763146 
L 1090.861818 207.776534 
L 1090.861818 207.776534 
" style="fill:none;stroke:#ff7f0e;stroke-linecap:square;stroke-width:1.5;"/>
   </g>
   <g id="line2d_25">
    <path clip-path="url(#p55686f9bc2)" d="M 84.098182 111.498502 
L 85.023516 110.588693 
L 85.94885 109.006055 
L 86.874184 108.701944 
L 89.650187 106.885211 
L 90.575521 107.945472 
L 91.500856 112.97134 
L 92.42619 111.958387 
L 93.351524 100.499931 
L 96.127527 101.246392 
L 97.052861 90.212697 
L 97.978195 91.564299 
L 98.903529 90.489315 
L 99.828864 77.226548 
L 102.604866 69.39736 
L 103.530201 61.149766 
L 104.455535 65.693415 
L 105.380869 69.191034 
L 106.306203 80.292824 
L 109.082206 128.414345 
L 110.00754 128.893369 
L 110.932874 136.031709 
L 111.858209 136.506524 
L 112.783543 143.414427 
L 115.559545 152.38018 
L 116.48488 151.622433 
L 117.410214 152.14717 
L 118.335548 153.479524 
L 119.260882 152.289131 
L 122.036885 145.780756 
L 122.962219 140.93913 
L 123.887553 140.996007 
L 124.812888 144.526258 
L 125.738222 147.448541 
L 128.514225 150.357548 
L 129.439559 145.326028 
L 130.364893 151.393715 
L 131.290227 153.906377 
L 132.215561 152.050734 
L 134.991564 151.719823 
L 135.916898 152.02577 
L 136.842233 148.529611 
L 137.767567 174.191644 
L 138.692901 167.204883 
L 141.468904 167.371197 
L 142.394238 167.706665 
L 143.319572 167.671321 
L 144.244906 172.400324 
L 145.170241 171.872127 
L 147.946243 171.929501 
L 148.871578 171.016098 
L 149.796912 172.92114 
L 150.722246 172.040134 
L 151.64758 174.775825 
L 154.423583 172.037333 
L 156.274251 177.56644 
L 157.199586 175.574509 
L 158.12492 176.189203 
L 160.900922 180.950996 
L 161.826257 180.784768 
L 162.751591 183.682795 
L 163.676925 185.275791 
L 164.602259 190.225911 
L 167.378262 156.720732 
L 168.303596 147.726637 
L 169.22893 147.725156 
L 170.154265 151.3439 
L 171.079599 153.035198 
L 173.855602 145.039122 
L 174.780936 144.197074 
L 175.70627 141.192223 
L 176.631604 134.45256 
L 177.556939 141.100429 
L 180.332941 142.975494 
L 181.258275 144.964202 
L 182.18361 148.285044 
L 183.108944 147.278561 
L 184.034278 155.674989 
L 186.810281 153.319544 
L 187.735615 152.732152 
L 188.660949 154.324589 
L 189.586283 157.600734 
L 190.511618 163.557178 
L 193.28762 169.313067 
L 194.212955 138.770765 
L 195.138289 136.426598 
L 196.063623 134.963922 
L 196.988957 141.87061 
L 199.76496 138.983335 
L 200.690294 132.36269 
L 201.615628 136.499154 
L 202.540963 134.283916 
L 203.466297 138.26008 
L 206.242299 140.285793 
L 207.167634 141.216067 
L 208.092968 133.04633 
L 209.018302 134.229637 
L 209.943636 139.025155 
L 212.719639 145.140431 
L 213.644973 142.393836 
L 214.570307 144.803862 
L 215.495642 145.872966 
L 216.420976 138.841841 
L 219.196979 139.94989 
L 221.047647 126.747807 
L 221.972981 140.24391 
L 222.898316 143.675735 
L 225.674318 144.889741 
L 226.599652 137.881415 
L 227.524987 141.515158 
L 228.450321 146.594244 
L 229.375655 148.024306 
L 232.151658 142.85637 
L 233.076992 143.537825 
L 234.002326 146.799207 
L 234.92766 152.224158 
L 235.852995 147.534348 
L 238.628997 146.570598 
L 239.554332 145.170931 
L 240.479666 134.952247 
L 241.405 126.576207 
L 242.330334 120.417544 
L 245.106337 122.285756 
L 246.031671 123.570239 
L 246.957005 119.33013 
L 247.88234 121.001754 
L 248.807674 129.120881 
L 251.583676 103.091748 
L 252.509011 104.525387 
L 253.434345 98.133456 
L 254.359679 105.849092 
L 255.285013 103.772655 
L 258.98635 92.402348 
L 259.911684 91.030587 
L 260.837019 98.982361 
L 261.762353 99.325365 
L 264.538356 97.538222 
L 265.46369 95.079184 
L 266.389024 96.593519 
L 267.314358 92.265516 
L 268.239693 96.421065 
L 271.015695 95.158163 
L 271.941029 97.931403 
L 272.866364 92.185664 
L 273.791698 93.34598 
L 274.717032 81.697976 
L 277.493035 71.725276 
L 278.418369 70.155477 
L 279.343703 146.080712 
L 280.269037 150.225078 
L 281.194372 148.358523 
L 283.970374 148.980276 
L 284.895709 143.268713 
L 285.821043 143.071086 
L 286.746377 150.164048 
L 287.671711 145.2599 
L 290.447714 147.409714 
L 291.373048 147.465982 
L 292.298382 139.616862 
L 293.223717 137.76562 
L 294.149051 139.221919 
L 296.925053 141.890782 
L 297.850388 144.909179 
L 298.775722 149.127551 
L 299.701056 157.586485 
L 300.62639 156.101063 
L 303.402393 155.953349 
L 304.327727 154.609511 
L 305.253061 161.176512 
L 306.178396 156.605156 
L 307.10373 164.086809 
L 309.879733 163.209318 
L 310.805067 165.641157 
L 312.655735 172.230017 
L 313.58107 173.786276 
L 316.357072 173.577747 
L 317.282406 177.229264 
L 318.207741 177.012035 
L 319.133075 183.126649 
L 320.058409 180.427196 
L 322.834412 180.750903 
L 324.68508 180.777971 
L 325.610414 176.348462 
L 326.535749 173.015865 
L 329.311751 172.128303 
L 330.237086 172.601584 
L 331.16242 178.018176 
L 332.087754 170.627314 
L 333.013088 173.759634 
L 335.789091 147.257395 
L 336.714425 148.561395 
L 337.639759 157.16376 
L 338.565094 157.239761 
L 339.490428 151.648228 
L 342.26643 152.489172 
L 343.191765 147.109045 
L 344.117099 149.317134 
L 345.042433 149.596971 
L 345.967767 152.399796 
L 348.74377 152.228709 
L 349.669104 150.128084 
L 350.594439 150.414006 
L 351.519773 147.889896 
L 352.445107 151.702074 
L 355.22111 156.356649 
L 357.071778 149.806192 
L 357.997112 151.234679 
L 358.922447 146.926598 
L 361.698449 139.486457 
L 362.623783 143.278297 
L 363.549118 183.922259 
L 364.474452 179.728582 
L 365.399786 179.022446 
L 368.175789 183.136392 
L 369.101123 185.407316 
L 370.026457 186.24044 
L 370.951791 188.816124 
L 371.877126 190.537801 
L 374.653128 193.03883 
L 375.578463 191.426936 
L 376.503797 192.457199 
L 377.429131 190.819617 
L 378.354465 190.337441 
L 381.130468 191.148487 
L 382.055802 194.915628 
L 382.981136 199.371628 
L 383.906471 202.476657 
L 384.831805 203.188909 
L 387.607807 207.998161 
L 388.533142 208.175299 
L 389.458476 209.622022 
L 390.38381 212.311599 
L 391.309144 210.590052 
L 394.085147 194.704783 
L 395.010481 192.082665 
L 395.935816 195.806575 
L 396.86115 198.777346 
L 400.562487 192.961751 
L 401.487821 192.725438 
L 402.413155 193.292534 
L 403.338489 191.417421 
L 404.263824 192.387814 
L 407.039826 194.031959 
L 407.96516 188.837758 
L 408.890495 189.736993 
L 409.815829 190.183819 
L 410.741163 191.009425 
L 413.517166 193.162885 
L 414.4425 193.536534 
L 415.367834 192.026028 
L 416.293168 196.614317 
L 417.218503 195.023433 
L 419.994505 197.306685 
L 420.91984 182.290078 
L 421.845174 178.108355 
L 422.770508 177.10071 
L 423.695842 176.997865 
L 426.471845 175.635883 
L 427.397179 175.483992 
L 428.322513 176.994899 
L 429.247848 176.857326 
L 430.173182 174.999859 
L 432.949184 170.181444 
L 433.874519 169.59635 
L 434.799853 171.901006 
L 435.725187 167.489426 
L 436.650521 170.240582 
L 439.426524 166.142967 
L 440.351858 174.410164 
L 441.277193 176.844259 
L 442.202527 174.862263 
L 443.127861 173.595545 
L 445.903864 172.736991 
L 446.829198 195.736214 
L 447.754532 195.596645 
L 448.679866 193.747448 
L 449.605201 191.602272 
L 452.381203 192.572255 
L 453.306537 189.864162 
L 454.231872 189.320656 
L 455.157206 190.874783 
L 456.08254 191.656169 
L 458.858543 193.067123 
L 460.709211 194.705959 
L 461.634545 194.190199 
L 462.55988 193.301065 
L 465.335882 195.817236 
L 466.261217 198.910188 
L 467.186551 199.760667 
L 468.111885 199.646081 
L 469.037219 201.819159 
L 471.813222 203.085713 
L 472.738556 202.874088 
L 473.66389 198.255882 
L 474.589225 199.748612 
L 475.514559 188.926436 
L 478.290561 186.999991 
L 479.215896 183.61448 
L 481.991898 197.215514 
L 484.767901 199.967571 
L 485.693235 195.766031 
L 486.61857 194.855778 
L 487.543904 194.247207 
L 488.469238 194.889377 
L 491.245241 192.427405 
L 492.170575 193.545182 
L 493.095909 197.384167 
L 494.021243 195.404037 
L 494.946578 197.783351 
L 497.72258 195.305475 
L 498.647914 189.889258 
L 499.573249 187.557826 
L 500.498583 187.494509 
L 501.423917 187.09252 
L 504.19992 210.645602 
L 505.125254 210.210178 
L 506.050588 209.45989 
L 506.975922 210.463644 
L 507.901257 212.173593 
L 510.677259 214.670857 
L 511.602594 218.382667 
L 512.527928 217.564573 
L 514.378596 211.863628 
L 518.079933 213.130629 
L 519.005267 214.189684 
L 519.930602 214.60422 
L 520.855936 216.022656 
L 523.631939 214.547001 
L 524.557273 212.445231 
L 525.482607 213.365579 
L 526.407941 214.716987 
L 527.333275 214.426312 
L 530.109278 215.279603 
L 531.034612 217.338158 
L 531.959947 205.520829 
L 532.885281 203.101097 
L 533.810615 204.763996 
L 537.511952 207.115757 
L 538.437286 208.295067 
L 539.36262 207.990235 
L 540.287955 206.960469 
L 543.063957 208.748592 
L 543.989291 211.366641 
L 544.914626 210.337905 
L 545.83996 210.970219 
L 546.765294 209.057058 
L 549.541297 208.940353 
L 550.466631 210.041165 
L 551.391965 208.451903 
L 552.317299 204.806334 
L 553.242634 209.515667 
L 556.018636 207.131779 
L 556.943971 205.056503 
L 557.869305 203.432214 
L 558.794639 207.37996 
L 559.719973 230.928256 
L 562.495976 231.117884 
L 563.42131 229.889928 
L 564.346644 231.08123 
L 565.271979 230.1311 
L 566.197313 232.297073 
L 568.973316 232.322495 
L 569.89865 234.843549 
L 570.823984 235.364167 
L 571.749318 235.733649 
L 572.674652 237.348585 
L 575.450655 240.060495 
L 576.375989 239.943996 
L 577.301324 238.887124 
L 578.226658 238.869978 
L 579.151992 240.238812 
L 581.927995 241.816908 
L 582.853329 242.179087 
L 583.778663 241.113777 
L 584.703997 241.393728 
L 585.629332 243.039282 
L 588.405334 210.287368 
L 589.330668 210.381014 
L 590.256003 209.972212 
L 591.181337 211.801873 
L 592.106671 214.495069 
L 594.882674 215.066699 
L 595.808008 214.607753 
L 597.658676 209.536181 
L 598.584011 211.499318 
L 601.360013 209.951605 
L 602.285348 209.84636 
L 603.210682 209.140273 
L 605.06135 201.36066 
L 607.837353 203.006143 
L 608.762687 205.1955 
L 609.688021 206.125013 
L 610.613356 206.803819 
L 611.53869 205.566141 
L 614.314693 207.775341 
L 615.240027 210.361359 
L 616.165361 208.40987 
L 617.090695 225.390235 
L 618.016029 225.549341 
L 620.792032 224.353487 
L 621.717366 223.329731 
L 622.642701 222.621886 
L 623.568035 223.476249 
L 624.493369 222.596812 
L 627.269372 221.319294 
L 628.194706 220.512238 
L 629.12004 222.636435 
L 630.045374 221.972909 
L 630.970709 223.560669 
L 633.746711 222.833129 
L 634.672045 223.719285 
L 635.59738 221.824351 
L 636.522714 222.481545 
L 637.448048 223.88705 
L 640.224051 223.467362 
L 641.149385 221.214879 
L 642.074719 222.617049 
L 643.000053 225.073534 
L 643.925388 225.995388 
L 647.626725 213.742101 
L 648.552059 213.690689 
L 649.477393 215.348319 
L 650.402727 214.976864 
L 653.17873 215.198975 
L 654.104064 214.15229 
L 655.029398 212.45972 
L 655.954733 214.899689 
L 656.880067 213.027257 
L 659.65607 213.975927 
L 660.581404 210.517677 
L 661.506738 214.284784 
L 662.432072 213.275381 
L 663.357406 213.205238 
L 666.133409 212.623459 
L 667.058743 210.516643 
L 667.984078 210.266907 
L 668.909412 211.123353 
L 669.834746 210.830185 
L 672.610749 208.358161 
L 673.536083 224.247965 
L 674.461417 225.391377 
L 675.386751 225.72996 
L 676.312086 223.572725 
L 679.088088 224.620301 
L 680.013422 223.102597 
L 680.938757 225.187777 
L 681.864091 225.045489 
L 682.789425 224.504214 
L 685.565428 226.197441 
L 688.34143 227.037807 
L 689.266765 227.05478 
L 692.042767 225.374211 
L 692.968102 224.612909 
L 693.893436 223.019948 
L 694.81877 224.103794 
L 695.744104 223.669167 
L 698.520107 224.164714 
L 699.445441 224.646444 
L 700.370775 226.230024 
L 701.29611 230.666923 
L 702.221444 229.807547 
L 705.922781 230.37793 
L 706.848115 230.368586 
L 707.773449 229.558899 
L 708.698783 230.012894 
L 711.474786 229.901858 
L 712.40012 228.050372 
L 713.325455 230.260553 
L 714.250789 229.918547 
L 715.176123 233.736133 
L 717.952126 230.847426 
L 718.87746 230.280633 
L 720.728128 225.211505 
L 721.653463 228.175994 
L 724.429465 228.196908 
L 725.354799 227.986669 
L 726.280134 227.630212 
L 727.205468 227.690905 
L 728.130802 231.165359 
L 730.906805 225.309184 
L 731.832139 222.902014 
L 732.757473 223.60205 
L 733.682807 225.910849 
L 734.608142 224.333787 
L 737.384144 224.502221 
L 738.309479 223.896006 
L 739.234813 225.795701 
L 740.160147 224.600245 
L 741.085481 224.683546 
L 743.861484 225.455538 
L 744.786818 224.723979 
L 745.712152 226.31892 
L 747.562821 230.579227 
L 750.338824 229.42164 
L 751.264158 229.992405 
L 752.189492 230.838596 
L 753.114826 229.685194 
L 754.04016 231.175926 
L 756.816163 233.438269 
L 757.741497 232.574486 
L 758.666832 217.242017 
L 760.5175 209.987951 
L 763.293503 205.686178 
L 764.218837 202.2369 
L 765.144171 197.356393 
L 766.069505 198.074658 
L 766.99484 203.409526 
L 769.770842 207.426268 
L 770.696176 207.024392 
L 771.621511 208.643997 
L 772.546845 207.04651 
L 773.472179 206.346523 
L 776.248182 204.091085 
L 777.173516 206.705336 
L 778.09885 207.099658 
L 779.024184 208.543262 
L 779.949519 210.448199 
L 782.725521 207.890164 
L 783.650856 211.319416 
L 784.57619 211.283667 
L 785.501524 233.695111 
L 786.426858 233.694452 
L 789.202861 233.531324 
L 790.128195 233.838315 
L 791.053529 233.216418 
L 791.978864 231.1112 
L 792.904198 233.454635 
L 795.680201 232.993257 
L 796.605535 233.070609 
L 797.530869 233.78391 
L 798.456203 231.286339 
L 799.381537 233.44857 
L 802.15754 235.07698 
L 803.082874 234.213325 
L 804.008209 232.995309 
L 804.933543 233.066766 
L 805.858877 233.728992 
L 810.485548 235.620107 
L 811.410882 238.259653 
L 812.336217 238.723089 
L 815.112219 214.094146 
L 816.037553 213.832341 
L 816.962888 210.748523 
L 817.888222 208.603981 
L 818.813556 206.902374 
L 821.589559 207.231702 
L 823.440227 204.834143 
L 824.365561 206.565952 
L 825.290896 204.578566 
L 828.066898 203.475514 
L 828.992233 199.042285 
L 829.917567 196.206384 
L 830.842901 199.900029 
L 831.768235 197.660831 
L 834.544238 198.79046 
L 835.469572 197.926067 
L 836.394906 195.577446 
L 837.320241 192.898708 
L 838.245575 193.330885 
L 841.021578 191.039375 
L 841.946912 210.51674 
L 842.872246 211.212091 
L 843.79758 210.553435 
L 844.722914 213.586276 
L 847.498917 211.256423 
L 848.424251 210.116381 
L 849.349586 211.008672 
L 850.27492 209.600824 
L 851.200254 207.205477 
L 853.976257 208.832161 
L 854.901591 206.325434 
L 855.826925 208.268613 
L 856.752259 211.456178 
L 857.677594 212.403701 
L 860.453596 213.799962 
L 862.304265 216.805865 
L 863.229599 216.78149 
L 864.154933 217.18812 
L 866.930936 218.24049 
L 867.85627 219.013126 
L 868.781604 219.22737 
L 869.706939 218.499217 
L 870.632273 215.959335 
L 873.408275 217.043281 
L 874.33361 218.041613 
L 875.258944 217.605458 
L 876.184278 216.428827 
L 877.109612 216.879601 
L 879.885615 218.025442 
L 880.810949 221.659253 
L 882.661618 224.681583 
L 883.586952 223.049231 
L 886.362955 225.498044 
L 887.288289 227.490605 
L 888.213623 227.986625 
L 889.138957 228.288648 
L 890.064291 228.13237 
L 892.840294 226.920164 
L 893.765628 228.039831 
L 894.690963 227.655743 
L 896.541631 221.983701 
L 899.317634 234.526725 
L 900.242968 233.844798 
L 901.168302 234.491711 
L 902.093636 231.726755 
L 903.018971 232.915624 
L 905.794973 233.92573 
L 906.720307 235.198328 
L 907.645642 236.05759 
L 908.570976 237.721502 
L 909.49631 237.737681 
L 912.272313 237.655747 
L 913.197647 239.180673 
L 914.122981 238.423128 
L 915.048316 238.813111 
L 918.749652 237.653522 
L 919.674987 236.404898 
L 920.600321 237.747828 
L 921.525655 237.504613 
L 922.450989 236.75784 
L 925.226992 239.944867 
L 926.152326 239.112855 
L 927.07766 207.095546 
L 928.002995 203.248943 
L 928.928329 205.292973 
L 931.704332 204.640819 
L 932.629666 203.421331 
L 933.555 199.87763 
L 934.480334 197.79913 
L 935.405668 195.297928 
L 938.181671 197.748046 
L 939.107005 198.365555 
L 940.03234 198.732624 
L 940.957674 197.854449 
L 941.883008 195.478884 
L 944.659011 194.078049 
L 945.584345 194.418586 
L 946.509679 194.139365 
L 947.435013 192.749482 
L 948.360348 191.852118 
L 951.13635 195.168977 
L 952.061684 189.511726 
L 952.987019 185.881093 
L 953.912353 184.699705 
L 954.837687 180.798147 
L 957.61369 201.280796 
L 958.539024 200.756502 
L 959.464358 200.505781 
L 960.389693 195.689372 
L 961.315027 193.412281 
L 964.091029 194.056221 
L 965.016364 192.572205 
L 965.941698 190.634774 
L 966.867032 186.739144 
L 967.792366 184.81563 
L 970.568369 181.132253 
L 971.493703 181.568869 
L 972.419037 179.183212 
L 973.344372 182.566909 
L 974.269706 185.278532 
L 977.045709 183.472079 
L 977.971043 184.055684 
L 978.896377 185.010399 
L 979.821711 189.748212 
L 980.747045 188.618692 
L 983.523048 151.651 
L 984.448382 154.788387 
L 985.373717 160.480539 
L 986.299051 155.627238 
L 987.224385 152.117737 
L 990.000388 145.907843 
L 990.925722 147.85504 
L 991.851056 150.768102 
L 992.77639 148.572406 
L 993.701725 148.260884 
L 996.477727 147.017693 
L 997.403061 141.204321 
L 998.328396 140.837117 
L 999.25373 137.835937 
L 1000.179064 131.142371 
L 1002.955067 128.061207 
L 1003.880401 134.651211 
L 1004.805735 136.548897 
L 1005.73107 132.123498 
L 1006.656404 132.929427 
L 1009.432406 129.139896 
L 1010.357741 123.172752 
L 1011.283075 129.594607 
L 1012.208409 165.80974 
L 1013.133743 160.211214 
L 1015.909746 158.512654 
L 1016.83508 155.805571 
L 1017.760414 156.072857 
L 1018.685749 162.123008 
L 1019.611083 158.997006 
L 1023.31242 153.762456 
L 1024.237754 156.860102 
L 1025.163088 154.461044 
L 1026.088422 155.430706 
L 1028.864425 156.584693 
L 1029.789759 158.206986 
L 1030.715094 157.166582 
L 1031.640428 158.680569 
L 1032.565762 159.467205 
L 1035.341765 162.135295 
L 1036.267099 162.721186 
L 1037.192433 160.159477 
L 1038.117767 155.168458 
L 1039.043102 152.542132 
L 1041.819104 148.582513 
L 1042.744439 151.694149 
L 1043.669773 146.247933 
L 1044.595107 148.301907 
L 1045.520441 147.503387 
L 1048.296444 145.967855 
L 1049.221778 137.841305 
L 1050.147112 132.561223 
L 1051.072447 124.81329 
L 1051.997781 136.293528 
L 1054.773783 134.115542 
L 1055.699118 140.719861 
L 1056.624452 139.635991 
L 1057.549786 145.514606 
L 1058.47512 136.18331 
L 1061.251123 134.47913 
L 1062.176457 132.416032 
L 1063.101791 130.039294 
L 1064.027126 129.981257 
L 1064.95246 125.748233 
L 1067.728463 126.495607 
L 1068.653797 182.416252 
L 1069.579131 184.543632 
L 1070.504465 182.106459 
L 1071.429799 185.605125 
L 1074.205802 189.406034 
L 1075.131136 195.330716 
L 1076.056471 191.731347 
L 1076.981805 193.875175 
L 1077.907139 193.963762 
L 1080.683142 196.170278 
L 1081.608476 198.628933 
L 1082.53381 200.755021 
L 1083.459144 199.79675 
L 1084.384479 201.378649 
L 1087.160481 200.55341 
L 1089.01115 201.512744 
L 1090.861818 206.896114 
L 1090.861818 206.896114 
" style="fill:none;stroke:#2ca02c;stroke-linecap:square;stroke-width:1.5;"/>
   </g>
   <g id="patch_3">
    <path d="M 33.76 273.56 
L 33.76 25.92 
" style="fill:none;stroke:#000000;stroke-linecap:square;stroke-linejoin:miter;stroke-width:0.8;"/>
   </g>
   <g id="patch_4">
    <path d="M 1141.2 273.56 
L 1141.2 25.92 
" style="fill:none;stroke:#000000;stroke-linecap:square;stroke-linejoin:miter;stroke-width:0.8;"/>
   </g>
   <g id="patch_5">
    <path d="M 33.76 273.56 
L 1141.2 273.56 
" style="fill:none;stroke:#000000;stroke-linecap:square;stroke-linejoin:miter;stroke-width:0.8;"/>
   </g>
   <g id="patch_6">
    <path d="M 33.76 25.92 
L 1141.2 25.92 
" style="fill:none;stroke:#000000;stroke-linecap:square;stroke-linejoin:miter;stroke-width:0.8;"/>
   </g>
   <g id="text_12">
    <!-- Net Value: (2010-02-01 ~ 2013-01-25) -->
    <g transform="translate(471.3725 19.92)scale(0.12 -0.12)">
     <defs>
      <path d="M 9.8125 72.90625 
L 23.09375 72.90625 
L 55.421875 11.921875 
L 55.421875 72.90625 
L 64.984375 72.90625 
L 64.984375 0 
L 51.703125 0 
L 19.390625 60.984375 
L 19.390625 0 
L 9.8125 0 
z
" id="DejaVuSans-78"/>
      <path d="M 56.203125 29.59375 
L 56.203125 25.203125 
L 14.890625 25.203125 
Q 15.484375 15.921875 20.484375 11.0625 
Q 25.484375 6.203125 34.421875 6.203125 
Q 39.59375 6.203125 44.453125 7.46875 
Q 49.3125 8.734375 54.109375 11.28125 
L 54.109375 2.78125 
Q 49.265625 0.734375 44.1875 -0.34375 
Q 39.109375 -1.421875 33.890625 -1.421875 
Q 20.796875 -1.421875 13.15625 6.1875 
Q 5.515625 13.8125 5.515625 26.8125 
Q 5.515625 40.234375 12.765625 48.109375 
Q 20.015625 56 32.328125 56 
Q 43.359375 56 49.78125 48.890625 
Q 56.203125 41.796875 56.203125 29.59375 
z
M 47.21875 32.234375 
Q 47.125 39.59375 43.09375 43.984375 
Q 39.0625 48.390625 32.421875 48.390625 
Q 24.90625 48.390625 20.390625 44.140625 
Q 15.875 39.890625 15.1875 32.171875 
z
" id="DejaVuSans-101"/>
      <path d="M 18.3125 70.21875 
L 18.3125 54.6875 
L 36.8125 54.6875 
L 36.8125 47.703125 
L 18.3125 47.703125 
L 18.3125 18.015625 
Q 18.3125 11.328125 20.140625 9.421875 
Q 21.96875 7.515625 27.59375 7.515625 
L 36.8125 7.515625 
L 36.8125 0 
L 27.59375 0 
Q 17.1875 0 13.234375 3.875 
Q 9.28125 7.765625 9.28125 18.015625 
L 9.28125 47.703125 
L 2.6875 47.703125 
L 2.6875 54.6875 
L 9.28125 54.6875 
L 9.28125 70.21875 
z
" id="DejaVuSans-116"/>
      <path id="DejaVuSans-32"/>
      <path d="M 28.609375 0 
L 0.78125 72.90625 
L 11.078125 72.90625 
L 34.1875 11.53125 
L 57.328125 72.90625 
L 67.578125 72.90625 
L 39.796875 0 
z
" id="DejaVuSans-86"/>
      <path d="M 34.28125 27.484375 
Q 23.390625 27.484375 19.1875 25 
Q 14.984375 22.515625 14.984375 16.5 
Q 14.984375 11.71875 18.140625 8.90625 
Q 21.296875 6.109375 26.703125 6.109375 
Q 34.1875 6.109375 38.703125 11.40625 
Q 43.21875 16.703125 43.21875 25.484375 
L 43.21875 27.484375 
z
M 52.203125 31.203125 
L 52.203125 0 
L 43.21875 0 
L 43.21875 8.296875 
Q 40.140625 3.328125 35.546875 0.953125 
Q 30.953125 -1.421875 24.3125 -1.421875 
Q 15.921875 -1.421875 10.953125 3.296875 
Q 6 8.015625 6 15.921875 
Q 6 25.140625 12.171875 29.828125 
Q 18.359375 34.515625 30.609375 34.515625 
L 43.21875 34.515625 
L 43.21875 35.40625 
Q 43.21875 41.609375 39.140625 45 
Q 35.0625 48.390625 27.6875 48.390625 
Q 23 48.390625 18.546875 47.265625 
Q 14.109375 46.140625 10.015625 43.890625 
L 10.015625 52.203125 
Q 14.9375 54.109375 19.578125 55.046875 
Q 24.21875 56 28.609375 56 
Q 40.484375 56 46.34375 49.84375 
Q 52.203125 43.703125 52.203125 31.203125 
z
" id="DejaVuSans-97"/>
      <path d="M 9.421875 75.984375 
L 18.40625 75.984375 
L 18.40625 0 
L 9.421875 0 
z
" id="DejaVuSans-108"/>
      <path d="M 8.5 21.578125 
L 8.5 54.6875 
L 17.484375 54.6875 
L 17.484375 21.921875 
Q 17.484375 14.15625 20.5 10.265625 
Q 23.53125 6.390625 29.59375 6.390625 
Q 36.859375 6.390625 41.078125 11.03125 
Q 45.3125 15.671875 45.3125 23.6875 
L 45.3125 54.6875 
L 54.296875 54.6875 
L 54.296875 0 
L 45.3125 0 
L 45.3125 8.40625 
Q 42.046875 3.421875 37.71875 1 
Q 33.40625 -1.421875 27.6875 -1.421875 
Q 18.265625 -1.421875 13.375 4.4375 
Q 8.5 10.296875 8.5 21.578125 
z
M 31.109375 56 
z
" id="DejaVuSans-117"/>
      <path d="M 11.71875 12.40625 
L 22.015625 12.40625 
L 22.015625 0 
L 11.71875 0 
z
M 11.71875 51.703125 
L 22.015625 51.703125 
L 22.015625 39.3125 
L 11.71875 39.3125 
z
" id="DejaVuSans-58"/>
      <path d="M 31 75.875 
Q 24.46875 64.65625 21.28125 53.65625 
Q 18.109375 42.671875 18.109375 31.390625 
Q 18.109375 20.125 21.3125 9.0625 
Q 24.515625 -2 31 -13.1875 
L 23.1875 -13.1875 
Q 15.875 -1.703125 12.234375 9.375 
Q 8.59375 20.453125 8.59375 31.390625 
Q 8.59375 42.28125 12.203125 53.3125 
Q 15.828125 64.359375 23.1875 75.875 
z
" id="DejaVuSans-40"/>
      <path d="M 4.890625 31.390625 
L 31.203125 31.390625 
L 31.203125 23.390625 
L 4.890625 23.390625 
z
" id="DejaVuSans-45"/>
      <path d="M 73.1875 39.890625 
L 73.1875 31.203125 
Q 68.0625 27.34375 63.6875 25.6875 
Q 59.328125 24.03125 54.59375 24.03125 
Q 49.21875 24.03125 42.09375 26.90625 
Q 41.546875 27.09375 41.3125 27.203125 
Q 40.96875 27.34375 40.234375 27.59375 
Q 32.671875 30.609375 28.078125 30.609375 
Q 23.78125 30.609375 19.578125 28.734375 
Q 15.375 26.859375 10.59375 22.796875 
L 10.59375 31.5 
Q 15.71875 35.359375 20.09375 37.03125 
Q 24.46875 38.71875 29.203125 38.71875 
Q 34.578125 38.71875 41.75 35.796875 
Q 42.234375 35.59375 42.484375 35.5 
Q 42.875 35.359375 43.5625 35.109375 
Q 51.125 32.078125 55.71875 32.078125 
Q 59.90625 32.078125 64.03125 33.9375 
Q 68.171875 35.796875 73.1875 39.890625 
z
" id="DejaVuSans-126"/>
      <path d="M 10.796875 72.90625 
L 49.515625 72.90625 
L 49.515625 64.59375 
L 19.828125 64.59375 
L 19.828125 46.734375 
Q 21.96875 47.46875 24.109375 47.828125 
Q 26.265625 48.1875 28.421875 48.1875 
Q 40.625 48.1875 47.75 41.5 
Q 54.890625 34.8125 54.890625 23.390625 
Q 54.890625 11.625 47.5625 5.09375 
Q 40.234375 -1.421875 26.90625 -1.421875 
Q 22.3125 -1.421875 17.546875 -0.640625 
Q 12.796875 0.140625 7.71875 1.703125 
L 7.71875 11.625 
Q 12.109375 9.234375 16.796875 8.0625 
Q 21.484375 6.890625 26.703125 6.890625 
Q 35.15625 6.890625 40.078125 11.328125 
Q 45.015625 15.765625 45.015625 23.390625 
Q 45.015625 31 40.078125 35.4375 
Q 35.15625 39.890625 26.703125 39.890625 
Q 22.75 39.890625 18.8125 39.015625 
Q 14.890625 38.140625 10.796875 36.28125 
z
" id="DejaVuSans-53"/>
      <path d="M 8.015625 75.875 
L 15.828125 75.875 
Q 23.140625 64.359375 26.78125 53.3125 
Q 30.421875 42.28125 30.421875 31.390625 
Q 30.421875 20.453125 26.78125 9.375 
Q 23.140625 -1.703125 15.828125 -13.1875 
L 8.015625 -13.1875 
Q 14.5 -2 17.703125 9.0625 
Q 20.90625 20.125 20.90625 31.390625 
Q 20.90625 42.671875 17.703125 53.65625 
Q 14.5 64.65625 8.015625 75.875 
z
" id="DejaVuSans-41"/>
     </defs>
     <use xlink:href="#DejaVuSans-78"/>
     <use x="74.804688" xlink:href="#DejaVuSans-101"/>
     <use x="136.328125" xlink:href="#DejaVuSans-116"/>
     <use x="175.537109" xlink:href="#DejaVuSans-32"/>
     <use x="207.324219" xlink:href="#DejaVuSans-86"/>
     <use x="267.982422" xlink:href="#DejaVuSans-97"/>
     <use x="329.261719" xlink:href="#DejaVuSans-108"/>
     <use x="357.044922" xlink:href="#DejaVuSans-117"/>
     <use x="420.423828" xlink:href="#DejaVuSans-101"/>
     <use x="481.947266" xlink:href="#DejaVuSans-58"/>
     <use x="515.638672" xlink:href="#DejaVuSans-32"/>
     <use x="547.425781" xlink:href="#DejaVuSans-40"/>
     <use x="586.439453" xlink:href="#DejaVuSans-50"/>
     <use x="650.0625" xlink:href="#DejaVuSans-48"/>
     <use x="713.685547" xlink:href="#DejaVuSans-49"/>
     <use x="777.308594" xlink:href="#DejaVuSans-48"/>
     <use x="840.931641" xlink:href="#DejaVuSans-45"/>
     <use x="877.015625" xlink:href="#DejaVuSans-48"/>
     <use x="940.638672" xlink:href="#DejaVuSans-50"/>
     <use x="1004.261719" xlink:href="#DejaVuSans-45"/>
     <use x="1040.345703" xlink:href="#DejaVuSans-48"/>
     <use x="1103.96875" xlink:href="#DejaVuSans-49"/>
     <use x="1167.591797" xlink:href="#DejaVuSans-32"/>
     <use x="1199.378906" xlink:href="#DejaVuSans-126"/>
     <use x="1283.167969" xlink:href="#DejaVuSans-32"/>
     <use x="1314.955078" xlink:href="#DejaVuSans-50"/>
     <use x="1378.578125" xlink:href="#DejaVuSans-48"/>
     <use x="1442.201172" xlink:href="#DejaVuSans-49"/>
     <use x="1505.824219" xlink:href="#DejaVuSans-51"/>
     <use x="1569.447266" xlink:href="#DejaVuSans-45"/>
     <use x="1605.53125" xlink:href="#DejaVuSans-48"/>
     <use x="1669.154297" xlink:href="#DejaVuSans-49"/>
     <use x="1732.777344" xlink:href="#DejaVuSans-45"/>
     <use x="1768.861328" xlink:href="#DejaVuSans-50"/>
     <use x="1832.484375" xlink:href="#DejaVuSans-53"/>
     <use x="1896.107422" xlink:href="#DejaVuSans-41"/>
    </g>
   </g>
   <g id="legend_1">
    <g id="patch_7">
     <path d="M 40.76 77.954375 
L 129.205312 77.954375 
Q 131.205312 77.954375 131.205312 75.954375 
L 131.205312 32.92 
Q 131.205312 30.92 129.205312 30.92 
L 40.76 30.92 
Q 38.76 30.92 38.76 32.92 
L 38.76 75.954375 
Q 38.76 77.954375 40.76 77.954375 
z
" style="fill:#ffffff;opacity:0.8;stroke:#cccccc;stroke-linejoin:miter;"/>
    </g>
    <g id="line2d_26">
     <path d="M 42.76 39.018437 
L 62.76 39.018437 
" style="fill:none;stroke:#1f77b4;stroke-linecap:square;stroke-width:1.5;"/>
    </g>
    <g id="line2d_27"/>
    <g id="text_13">
     <!-- strategy -->
     <g transform="translate(70.76 42.518437)scale(0.1 -0.1)">
      <defs>
       <path d="M 44.28125 53.078125 
L 44.28125 44.578125 
Q 40.484375 46.53125 36.375 47.5 
Q 32.28125 48.484375 27.875 48.484375 
Q 21.1875 48.484375 17.84375 46.4375 
Q 14.5 44.390625 14.5 40.28125 
Q 14.5 37.15625 16.890625 35.375 
Q 19.28125 33.59375 26.515625 31.984375 
L 29.59375 31.296875 
Q 39.15625 29.25 43.1875 25.515625 
Q 47.21875 21.78125 47.21875 15.09375 
Q 47.21875 7.46875 41.1875 3.015625 
Q 35.15625 -1.421875 24.609375 -1.421875 
Q 20.21875 -1.421875 15.453125 -0.5625 
Q 10.6875 0.296875 5.421875 2 
L 5.421875 11.28125 
Q 10.40625 8.6875 15.234375 7.390625 
Q 20.0625 6.109375 24.8125 6.109375 
Q 31.15625 6.109375 34.5625 8.28125 
Q 37.984375 10.453125 37.984375 14.40625 
Q 37.984375 18.0625 35.515625 20.015625 
Q 33.0625 21.96875 24.703125 23.78125 
L 21.578125 24.515625 
Q 13.234375 26.265625 9.515625 29.90625 
Q 5.8125 33.546875 5.8125 39.890625 
Q 5.8125 47.609375 11.28125 51.796875 
Q 16.75 56 26.8125 56 
Q 31.78125 56 36.171875 55.265625 
Q 40.578125 54.546875 44.28125 53.078125 
z
" id="DejaVuSans-115"/>
       <path d="M 41.109375 46.296875 
Q 39.59375 47.171875 37.8125 47.578125 
Q 36.03125 48 33.890625 48 
Q 26.265625 48 22.1875 43.046875 
Q 18.109375 38.09375 18.109375 28.8125 
L 18.109375 0 
L 9.078125 0 
L 9.078125 54.6875 
L 18.109375 54.6875 
L 18.109375 46.1875 
Q 20.953125 51.171875 25.484375 53.578125 
Q 30.03125 56 36.53125 56 
Q 37.453125 56 38.578125 55.875 
Q 39.703125 55.765625 41.0625 55.515625 
z
" id="DejaVuSans-114"/>
       <path d="M 45.40625 27.984375 
Q 45.40625 37.75 41.375 43.109375 
Q 37.359375 48.484375 30.078125 48.484375 
Q 22.859375 48.484375 18.828125 43.109375 
Q 14.796875 37.75 14.796875 27.984375 
Q 14.796875 18.265625 18.828125 12.890625 
Q 22.859375 7.515625 30.078125 7.515625 
Q 37.359375 7.515625 41.375 12.890625 
Q 45.40625 18.265625 45.40625 27.984375 
z
M 54.390625 6.78125 
Q 54.390625 -7.171875 48.1875 -13.984375 
Q 42 -20.796875 29.203125 -20.796875 
Q 24.46875 -20.796875 20.265625 -20.09375 
Q 16.0625 -19.390625 12.109375 -17.921875 
L 12.109375 -9.1875 
Q 16.0625 -11.328125 19.921875 -12.34375 
Q 23.78125 -13.375 27.78125 -13.375 
Q 36.625 -13.375 41.015625 -8.765625 
Q 45.40625 -4.15625 45.40625 5.171875 
L 45.40625 9.625 
Q 42.625 4.78125 38.28125 2.390625 
Q 33.9375 0 27.875 0 
Q 17.828125 0 11.671875 7.65625 
Q 5.515625 15.328125 5.515625 27.984375 
Q 5.515625 40.671875 11.671875 48.328125 
Q 17.828125 56 27.875 56 
Q 33.9375 56 38.28125 53.609375 
Q 42.625 51.21875 45.40625 46.390625 
L 45.40625 54.6875 
L 54.390625 54.6875 
z
" id="DejaVuSans-103"/>
       <path d="M 32.171875 -5.078125 
Q 28.375 -14.84375 24.75 -17.8125 
Q 21.140625 -20.796875 15.09375 -20.796875 
L 7.90625 -20.796875 
L 7.90625 -13.28125 
L 13.1875 -13.28125 
Q 16.890625 -13.28125 18.9375 -11.515625 
Q 21 -9.765625 23.484375 -3.21875 
L 25.09375 0.875 
L 2.984375 54.6875 
L 12.5 54.6875 
L 29.59375 11.921875 
L 46.6875 54.6875 
L 56.203125 54.6875 
z
" id="DejaVuSans-121"/>
      </defs>
      <use xlink:href="#DejaVuSans-115"/>
      <use x="52.099609" xlink:href="#DejaVuSans-116"/>
      <use x="91.308594" xlink:href="#DejaVuSans-114"/>
      <use x="132.421875" xlink:href="#DejaVuSans-97"/>
      <use x="193.701172" xlink:href="#DejaVuSans-116"/>
      <use x="232.910156" xlink:href="#DejaVuSans-101"/>
      <use x="294.433594" xlink:href="#DejaVuSans-103"/>
      <use x="357.910156" xlink:href="#DejaVuSans-121"/>
     </g>
    </g>
    <g id="line2d_28">
     <path d="M 42.76 53.696562 
L 62.76 53.696562 
" style="fill:none;stroke:#ff7f0e;stroke-linecap:square;stroke-width:1.5;"/>
    </g>
    <g id="line2d_29"/>
    <g id="text_14">
     <!-- benchmark -->
     <g transform="translate(70.76 57.196562)scale(0.1 -0.1)">
      <defs>
       <path d="M 48.6875 27.296875 
Q 48.6875 37.203125 44.609375 42.84375 
Q 40.53125 48.484375 33.40625 48.484375 
Q 26.265625 48.484375 22.1875 42.84375 
Q 18.109375 37.203125 18.109375 27.296875 
Q 18.109375 17.390625 22.1875 11.75 
Q 26.265625 6.109375 33.40625 6.109375 
Q 40.53125 6.109375 44.609375 11.75 
Q 48.6875 17.390625 48.6875 27.296875 
z
M 18.109375 46.390625 
Q 20.953125 51.265625 25.265625 53.625 
Q 29.59375 56 35.59375 56 
Q 45.5625 56 51.78125 48.09375 
Q 58.015625 40.1875 58.015625 27.296875 
Q 58.015625 14.40625 51.78125 6.484375 
Q 45.5625 -1.421875 35.59375 -1.421875 
Q 29.59375 -1.421875 25.265625 0.953125 
Q 20.953125 3.328125 18.109375 8.203125 
L 18.109375 0 
L 9.078125 0 
L 9.078125 75.984375 
L 18.109375 75.984375 
z
" id="DejaVuSans-98"/>
       <path d="M 54.890625 33.015625 
L 54.890625 0 
L 45.90625 0 
L 45.90625 32.71875 
Q 45.90625 40.484375 42.875 44.328125 
Q 39.84375 48.1875 33.796875 48.1875 
Q 26.515625 48.1875 22.3125 43.546875 
Q 18.109375 38.921875 18.109375 30.90625 
L 18.109375 0 
L 9.078125 0 
L 9.078125 54.6875 
L 18.109375 54.6875 
L 18.109375 46.1875 
Q 21.34375 51.125 25.703125 53.5625 
Q 30.078125 56 35.796875 56 
Q 45.21875 56 50.046875 50.171875 
Q 54.890625 44.34375 54.890625 33.015625 
z
" id="DejaVuSans-110"/>
       <path d="M 48.78125 52.59375 
L 48.78125 44.1875 
Q 44.96875 46.296875 41.140625 47.34375 
Q 37.3125 48.390625 33.40625 48.390625 
Q 24.65625 48.390625 19.8125 42.84375 
Q 14.984375 37.3125 14.984375 27.296875 
Q 14.984375 17.28125 19.8125 11.734375 
Q 24.65625 6.203125 33.40625 6.203125 
Q 37.3125 6.203125 41.140625 7.25 
Q 44.96875 8.296875 48.78125 10.40625 
L 48.78125 2.09375 
Q 45.015625 0.34375 40.984375 -0.53125 
Q 36.96875 -1.421875 32.421875 -1.421875 
Q 20.0625 -1.421875 12.78125 6.34375 
Q 5.515625 14.109375 5.515625 27.296875 
Q 5.515625 40.671875 12.859375 48.328125 
Q 20.21875 56 33.015625 56 
Q 37.15625 56 41.109375 55.140625 
Q 45.0625 54.296875 48.78125 52.59375 
z
" id="DejaVuSans-99"/>
       <path d="M 54.890625 33.015625 
L 54.890625 0 
L 45.90625 0 
L 45.90625 32.71875 
Q 45.90625 40.484375 42.875 44.328125 
Q 39.84375 48.1875 33.796875 48.1875 
Q 26.515625 48.1875 22.3125 43.546875 
Q 18.109375 38.921875 18.109375 30.90625 
L 18.109375 0 
L 9.078125 0 
L 9.078125 75.984375 
L 18.109375 75.984375 
L 18.109375 46.1875 
Q 21.34375 51.125 25.703125 53.5625 
Q 30.078125 56 35.796875 56 
Q 45.21875 56 50.046875 50.171875 
Q 54.890625 44.34375 54.890625 33.015625 
z
" id="DejaVuSans-104"/>
       <path d="M 52 44.1875 
Q 55.375 50.25 60.0625 53.125 
Q 64.75 56 71.09375 56 
Q 79.640625 56 84.28125 50.015625 
Q 88.921875 44.046875 88.921875 33.015625 
L 88.921875 0 
L 79.890625 0 
L 79.890625 32.71875 
Q 79.890625 40.578125 77.09375 44.375 
Q 74.3125 48.1875 68.609375 48.1875 
Q 61.625 48.1875 57.5625 43.546875 
Q 53.515625 38.921875 53.515625 30.90625 
L 53.515625 0 
L 44.484375 0 
L 44.484375 32.71875 
Q 44.484375 40.625 41.703125 44.40625 
Q 38.921875 48.1875 33.109375 48.1875 
Q 26.21875 48.1875 22.15625 43.53125 
Q 18.109375 38.875 18.109375 30.90625 
L 18.109375 0 
L 9.078125 0 
L 9.078125 54.6875 
L 18.109375 54.6875 
L 18.109375 46.1875 
Q 21.1875 51.21875 25.484375 53.609375 
Q 29.78125 56 35.6875 56 
Q 41.65625 56 45.828125 52.96875 
Q 50 49.953125 52 44.1875 
z
" id="DejaVuSans-109"/>
       <path d="M 9.078125 75.984375 
L 18.109375 75.984375 
L 18.109375 31.109375 
L 44.921875 54.6875 
L 56.390625 54.6875 
L 27.390625 29.109375 
L 57.625 0 
L 45.90625 0 
L 18.109375 26.703125 
L 18.109375 0 
L 9.078125 0 
z
" id="DejaVuSans-107"/>
      </defs>
      <use xlink:href="#DejaVuSans-98"/>
      <use x="63.476562" xlink:href="#DejaVuSans-101"/>
      <use x="125" xlink:href="#DejaVuSans-110"/>
      <use x="188.378906" xlink:href="#DejaVuSans-99"/>
      <use x="243.359375" xlink:href="#DejaVuSans-104"/>
      <use x="306.738281" xlink:href="#DejaVuSans-109"/>
      <use x="404.150391" xlink:href="#DejaVuSans-97"/>
      <use x="465.429688" xlink:href="#DejaVuSans-114"/>
      <use x="506.542969" xlink:href="#DejaVuSans-107"/>
     </g>
    </g>
    <g id="line2d_30">
     <path d="M 42.76 68.374687 
L 62.76 68.374687 
" style="fill:none;stroke:#2ca02c;stroke-linecap:square;stroke-width:1.5;"/>
    </g>
    <g id="line2d_31"/>
    <g id="text_15">
     <!-- excess -->
     <g transform="translate(70.76 71.874687)scale(0.1 -0.1)">
      <defs>
       <path d="M 54.890625 54.6875 
L 35.109375 28.078125 
L 55.90625 0 
L 45.3125 0 
L 29.390625 21.484375 
L 13.484375 0 
L 2.875 0 
L 24.125 28.609375 
L 4.6875 54.6875 
L 15.28125 54.6875 
L 29.78125 35.203125 
L 44.28125 54.6875 
z
" id="DejaVuSans-120"/>
      </defs>
      <use xlink:href="#DejaVuSans-101"/>
      <use x="59.773438" xlink:href="#DejaVuSans-120"/>
      <use x="117.203125" xlink:href="#DejaVuSans-99"/>
      <use x="172.183594" xlink:href="#DejaVuSans-101"/>
      <use x="233.707031" xlink:href="#DejaVuSans-115"/>
      <use x="285.806641" xlink:href="#DejaVuSans-115"/>
     </g>
    </g>
   </g>
  </g>
 </g>
 <defs>
  <clipPath id="p55686f9bc2">
   <rect height="247.64" width="1107.44" x="33.76" y="25.92"/>
  </clipPath>
 </defs>
</svg>
