<?xml version="1.0" encoding="utf-8" standalone="no"?>
<!DOCTYPE svg PUBLIC "-//W3C//DTD SVG 1.1//EN"
  "http://www.w3.org/Graphics/SVG/1.1/DTD/svg11.dtd">
<!-- Created with matplotlib (https://matplotlib.org/) -->
<svg height="374.4pt" version="1.1" viewBox="0 0 1152 374.4" width="1152pt" xmlns="http://www.w3.org/2000/svg" xmlns:xlink="http://www.w3.org/1999/xlink">
 <metadata>
  <rdf:RDF xmlns:cc="http://creativecommons.org/ns#" xmlns:dc="http://purl.org/dc/elements/1.1/" xmlns:rdf="http://www.w3.org/1999/02/22-rdf-syntax-ns#">
   <cc:Work>
    <dc:type rdf:resource="http://purl.org/dc/dcmitype/StillImage"/>
    <dc:date>2023-10-11T16:35:58.807092</dc:date>
    <dc:format>image/svg+xml</dc:format>
    <dc:creator>
     <cc:Agent>
      <dc:title>Matplotlib v3.3.4, https://matplotlib.org/</dc:title>
     </cc:Agent>
    </dc:creator>
   </cc:Work>
  </rdf:RDF>
 </metadata>
 <defs>
  <style type="text/css">*{stroke-linecap:butt;stroke-linejoin:round;}</style>
 </defs>
 <g id="figure_1">
  <g id="patch_1">
   <path d="M 0 374.4 
L 1152 374.4 
L 1152 0 
L 0 0 
z
" style="fill:#ffffff;"/>
  </g>
  <g id="axes_1">
   <g id="patch_2">
    <path d="M 47.3 331.16 
L 1141.2 331.16 
L 1141.2 25.92 
L 47.3 25.92 
z
" style="fill:#ffffff;"/>
   </g>
   <g id="matplotlib.axis_1">
    <g id="xtick_1">
     <g id="line2d_1">
      <path clip-path="url(#p98525048a4)" d="M 75.24635 331.16 
L 75.24635 25.92 
" style="fill:none;stroke:#b0b0b0;stroke-linecap:square;stroke-width:0.8;"/>
     </g>
     <g id="line2d_2">
      <defs>
       <path d="M 0 0 
L 0 3.5 
" id="m8c4dcf4e1b" style="stroke:#000000;stroke-width:0.8;"/>
      </defs>
      <g>
       <use style="stroke:#000000;stroke-width:0.8;" x="75.24635" xlink:href="#m8c4dcf4e1b" y="331.16"/>
      </g>
     </g>
     <g id="text_1">
      <!-- 2010 -->
      <g transform="translate(78.005725 363.61)rotate(-90)scale(0.1 -0.1)">
       <defs>
        <path d="M 19.1875 8.296875 
L 53.609375 8.296875 
L 53.609375 0 
L 7.328125 0 
L 7.328125 8.296875 
Q 12.9375 14.109375 22.625 23.890625 
Q 32.328125 33.6875 34.8125 36.53125 
Q 39.546875 41.84375 41.421875 45.53125 
Q 43.3125 49.21875 43.3125 52.78125 
Q 43.3125 58.59375 39.234375 62.25 
Q 35.15625 65.921875 28.609375 65.921875 
Q 23.96875 65.921875 18.8125 64.3125 
Q 13.671875 62.703125 7.8125 59.421875 
L 7.8125 69.390625 
Q 13.765625 71.78125 18.9375 73 
Q 24.125 74.21875 28.421875 74.21875 
Q 39.75 74.21875 46.484375 68.546875 
Q 53.21875 62.890625 53.21875 53.421875 
Q 53.21875 48.921875 51.53125 44.890625 
Q 49.859375 40.875 45.40625 35.40625 
Q 44.1875 33.984375 37.640625 27.21875 
Q 31.109375 20.453125 19.1875 8.296875 
z
" id="DejaVuSans-50"/>
        <path d="M 31.78125 66.40625 
Q 24.171875 66.40625 20.328125 58.90625 
Q 16.5 51.421875 16.5 36.375 
Q 16.5 21.390625 20.328125 13.890625 
Q 24.171875 6.390625 31.78125 6.390625 
Q 39.453125 6.390625 43.28125 13.890625 
Q 47.125 21.390625 47.125 36.375 
Q 47.125 51.421875 43.28125 58.90625 
Q 39.453125 66.40625 31.78125 66.40625 
z
M 31.78125 74.21875 
Q 44.046875 74.21875 50.515625 64.515625 
Q 56.984375 54.828125 56.984375 36.375 
Q 56.984375 17.96875 50.515625 8.265625 
Q 44.046875 -1.421875 31.78125 -1.421875 
Q 19.53125 -1.421875 13.0625 8.265625 
Q 6.59375 17.96875 6.59375 36.375 
Q 6.59375 54.828125 13.0625 64.515625 
Q 19.53125 74.21875 31.78125 74.21875 
z
" id="DejaVuSans-48"/>
        <path d="M 12.40625 8.296875 
L 28.515625 8.296875 
L 28.515625 63.921875 
L 10.984375 60.40625 
L 10.984375 69.390625 
L 28.421875 72.90625 
L 38.28125 72.90625 
L 38.28125 8.296875 
L 54.390625 8.296875 
L 54.390625 0 
L 12.40625 0 
z
" id="DejaVuSans-49"/>
       </defs>
       <use xlink:href="#DejaVuSans-50"/>
       <use x="63.623047" xlink:href="#DejaVuSans-48"/>
       <use x="127.246094" xlink:href="#DejaVuSans-49"/>
       <use x="190.869141" xlink:href="#DejaVuSans-48"/>
      </g>
     </g>
    </g>
   </g>
   <g id="matplotlib.axis_2">
    <g id="ytick_1">
     <g id="line2d_3">
      <path clip-path="url(#p98525048a4)" d="M 47.3 327.914432 
L 1141.2 327.914432 
" style="fill:none;stroke:#b0b0b0;stroke-linecap:square;stroke-width:0.8;"/>
     </g>
     <g id="line2d_4">
      <defs>
       <path d="M 0 0 
L -3.5 0 
" id="m195c892561" style="stroke:#000000;stroke-width:0.8;"/>
      </defs>
      <g>
       <use style="stroke:#000000;stroke-width:0.8;" x="47.3" xlink:href="#m195c892561" y="327.914432"/>
      </g>
     </g>
     <g id="text_2">
      <!-- 0.0 -->
      <g transform="translate(24.396875 331.71365)scale(0.1 -0.1)">
       <defs>
        <path d="M 10.6875 12.40625 
L 21 12.40625 
L 21 0 
L 10.6875 0 
z
" id="DejaVuSans-46"/>
       </defs>
       <use xlink:href="#DejaVuSans-48"/>
       <use x="63.623047" xlink:href="#DejaVuSans-46"/>
       <use x="95.410156" xlink:href="#DejaVuSans-48"/>
      </g>
     </g>
    </g>
    <g id="ytick_2">
     <g id="line2d_5">
      <path clip-path="url(#p98525048a4)" d="M 47.3 282.217436 
L 1141.2 282.217436 
" style="fill:none;stroke:#b0b0b0;stroke-linecap:square;stroke-width:0.8;"/>
     </g>
     <g id="line2d_6">
      <g>
       <use style="stroke:#000000;stroke-width:0.8;" x="47.3" xlink:href="#m195c892561" y="282.217436"/>
      </g>
     </g>
     <g id="text_3">
      <!-- 0.5 -->
      <g transform="translate(24.396875 286.016655)scale(0.1 -0.1)">
       <defs>
        <path d="M 10.796875 72.90625 
L 49.515625 72.90625 
L 49.515625 64.59375 
L 19.828125 64.59375 
L 19.828125 46.734375 
Q 21.96875 47.46875 24.109375 47.828125 
Q 26.265625 48.1875 28.421875 48.1875 
Q 40.625 48.1875 47.75 41.5 
Q 54.890625 34.8125 54.890625 23.390625 
Q 54.890625 11.625 47.5625 5.09375 
Q 40.234375 -1.421875 26.90625 -1.421875 
Q 22.3125 -1.421875 17.546875 -0.640625 
Q 12.796875 0.140625 7.71875 1.703125 
L 7.71875 11.625 
Q 12.109375 9.234375 16.796875 8.0625 
Q 21.484375 6.890625 26.703125 6.890625 
Q 35.15625 6.890625 40.078125 11.328125 
Q 45.015625 15.765625 45.015625 23.390625 
Q 45.015625 31 40.078125 35.4375 
Q 35.15625 39.890625 26.703125 39.890625 
Q 22.75 39.890625 18.8125 39.015625 
Q 14.890625 38.140625 10.796875 36.28125 
z
" id="DejaVuSans-53"/>
       </defs>
       <use xlink:href="#DejaVuSans-48"/>
       <use x="63.623047" xlink:href="#DejaVuSans-46"/>
       <use x="95.410156" xlink:href="#DejaVuSans-53"/>
      </g>
     </g>
    </g>
    <g id="ytick_3">
     <g id="line2d_7">
      <path clip-path="url(#p98525048a4)" d="M 47.3 236.520441 
L 1141.2 236.520441 
" style="fill:none;stroke:#b0b0b0;stroke-linecap:square;stroke-width:0.8;"/>
     </g>
     <g id="line2d_8">
      <g>
       <use style="stroke:#000000;stroke-width:0.8;" x="47.3" xlink:href="#m195c892561" y="236.520441"/>
      </g>
     </g>
     <g id="text_4">
      <!-- 1.0 -->
      <g transform="translate(24.396875 240.319659)scale(0.1 -0.1)">
       <use xlink:href="#DejaVuSans-49"/>
       <use x="63.623047" xlink:href="#DejaVuSans-46"/>
       <use x="95.410156" xlink:href="#DejaVuSans-48"/>
      </g>
     </g>
    </g>
    <g id="ytick_4">
     <g id="line2d_9">
      <path clip-path="url(#p98525048a4)" d="M 47.3 190.823445 
L 1141.2 190.823445 
" style="fill:none;stroke:#b0b0b0;stroke-linecap:square;stroke-width:0.8;"/>
     </g>
     <g id="line2d_10">
      <g>
       <use style="stroke:#000000;stroke-width:0.8;" x="47.3" xlink:href="#m195c892561" y="190.823445"/>
      </g>
     </g>
     <g id="text_5">
      <!-- 1.5 -->
      <g transform="translate(24.396875 194.622664)scale(0.1 -0.1)">
       <use xlink:href="#DejaVuSans-49"/>
       <use x="63.623047" xlink:href="#DejaVuSans-46"/>
       <use x="95.410156" xlink:href="#DejaVuSans-53"/>
      </g>
     </g>
    </g>
    <g id="ytick_5">
     <g id="line2d_11">
      <path clip-path="url(#p98525048a4)" d="M 47.3 145.12645 
L 1141.2 145.12645 
" style="fill:none;stroke:#b0b0b0;stroke-linecap:square;stroke-width:0.8;"/>
     </g>
     <g id="line2d_12">
      <g>
       <use style="stroke:#000000;stroke-width:0.8;" x="47.3" xlink:href="#m195c892561" y="145.12645"/>
      </g>
     </g>
     <g id="text_6">
      <!-- 2.0 -->
      <g transform="translate(24.396875 148.925668)scale(0.1 -0.1)">
       <use xlink:href="#DejaVuSans-50"/>
       <use x="63.623047" xlink:href="#DejaVuSans-46"/>
       <use x="95.410156" xlink:href="#DejaVuSans-48"/>
      </g>
     </g>
    </g>
    <g id="ytick_6">
     <g id="line2d_13">
      <path clip-path="url(#p98525048a4)" d="M 47.3 99.429454 
L 1141.2 99.429454 
" style="fill:none;stroke:#b0b0b0;stroke-linecap:square;stroke-width:0.8;"/>
     </g>
     <g id="line2d_14">
      <g>
       <use style="stroke:#000000;stroke-width:0.8;" x="47.3" xlink:href="#m195c892561" y="99.429454"/>
      </g>
     </g>
     <g id="text_7">
      <!-- 2.5 -->
      <g transform="translate(24.396875 103.228673)scale(0.1 -0.1)">
       <use xlink:href="#DejaVuSans-50"/>
       <use x="63.623047" xlink:href="#DejaVuSans-46"/>
       <use x="95.410156" xlink:href="#DejaVuSans-53"/>
      </g>
     </g>
    </g>
    <g id="ytick_7">
     <g id="line2d_15">
      <path clip-path="url(#p98525048a4)" d="M 47.3 53.732459 
L 1141.2 53.732459 
" style="fill:none;stroke:#b0b0b0;stroke-linecap:square;stroke-width:0.8;"/>
     </g>
     <g id="line2d_16">
      <g>
       <use style="stroke:#000000;stroke-width:0.8;" x="47.3" xlink:href="#m195c892561" y="53.732459"/>
      </g>
     </g>
     <g id="text_8">
      <!-- 3.0 -->
      <g transform="translate(24.396875 57.531677)scale(0.1 -0.1)">
       <defs>
        <path d="M 40.578125 39.3125 
Q 47.65625 37.796875 51.625 33 
Q 55.609375 28.21875 55.609375 21.1875 
Q 55.609375 10.40625 48.1875 4.484375 
Q 40.765625 -1.421875 27.09375 -1.421875 
Q 22.515625 -1.421875 17.65625 -0.515625 
Q 12.796875 0.390625 7.625 2.203125 
L 7.625 11.71875 
Q 11.71875 9.328125 16.59375 8.109375 
Q 21.484375 6.890625 26.8125 6.890625 
Q 36.078125 6.890625 40.9375 10.546875 
Q 45.796875 14.203125 45.796875 21.1875 
Q 45.796875 27.640625 41.28125 31.265625 
Q 36.765625 34.90625 28.71875 34.90625 
L 20.21875 34.90625 
L 20.21875 43.015625 
L 29.109375 43.015625 
Q 36.375 43.015625 40.234375 45.921875 
Q 44.09375 48.828125 44.09375 54.296875 
Q 44.09375 59.90625 40.109375 62.90625 
Q 36.140625 65.921875 28.71875 65.921875 
Q 24.65625 65.921875 20.015625 65.03125 
Q 15.375 64.15625 9.8125 62.3125 
L 9.8125 71.09375 
Q 15.4375 72.65625 20.34375 73.4375 
Q 25.25 74.21875 29.59375 74.21875 
Q 40.828125 74.21875 47.359375 69.109375 
Q 53.90625 64.015625 53.90625 55.328125 
Q 53.90625 49.265625 50.4375 45.09375 
Q 46.96875 40.921875 40.578125 39.3125 
z
" id="DejaVuSans-51"/>
       </defs>
       <use xlink:href="#DejaVuSans-51"/>
       <use x="63.623047" xlink:href="#DejaVuSans-46"/>
       <use x="95.410156" xlink:href="#DejaVuSans-48"/>
      </g>
     </g>
    </g>
    <g id="text_9">
     <!-- net value -->
     <g transform="translate(18.317187 201.992344)rotate(-90)scale(0.1 -0.1)">
      <defs>
       <path d="M 54.890625 33.015625 
L 54.890625 0 
L 45.90625 0 
L 45.90625 32.71875 
Q 45.90625 40.484375 42.875 44.328125 
Q 39.84375 48.1875 33.796875 48.1875 
Q 26.515625 48.1875 22.3125 43.546875 
Q 18.109375 38.921875 18.109375 30.90625 
L 18.109375 0 
L 9.078125 0 
L 9.078125 54.6875 
L 18.109375 54.6875 
L 18.109375 46.1875 
Q 21.34375 51.125 25.703125 53.5625 
Q 30.078125 56 35.796875 56 
Q 45.21875 56 50.046875 50.171875 
Q 54.890625 44.34375 54.890625 33.015625 
z
" id="DejaVuSans-110"/>
       <path d="M 56.203125 29.59375 
L 56.203125 25.203125 
L 14.890625 25.203125 
Q 15.484375 15.921875 20.484375 11.0625 
Q 25.484375 6.203125 34.421875 6.203125 
Q 39.59375 6.203125 44.453125 7.46875 
Q 49.3125 8.734375 54.109375 11.28125 
L 54.109375 2.78125 
Q 49.265625 0.734375 44.1875 -0.34375 
Q 39.109375 -1.421875 33.890625 -1.421875 
Q 20.796875 -1.421875 13.15625 6.1875 
Q 5.515625 13.8125 5.515625 26.8125 
Q 5.515625 40.234375 12.765625 48.109375 
Q 20.015625 56 32.328125 56 
Q 43.359375 56 49.78125 48.890625 
Q 56.203125 41.796875 56.203125 29.59375 
z
M 47.21875 32.234375 
Q 47.125 39.59375 43.09375 43.984375 
Q 39.0625 48.390625 32.421875 48.390625 
Q 24.90625 48.390625 20.390625 44.140625 
Q 15.875 39.890625 15.1875 32.171875 
z
" id="DejaVuSans-101"/>
       <path d="M 18.3125 70.21875 
L 18.3125 54.6875 
L 36.8125 54.6875 
L 36.8125 47.703125 
L 18.3125 47.703125 
L 18.3125 18.015625 
Q 18.3125 11.328125 20.140625 9.421875 
Q 21.96875 7.515625 27.59375 7.515625 
L 36.8125 7.515625 
L 36.8125 0 
L 27.59375 0 
Q 17.1875 0 13.234375 3.875 
Q 9.28125 7.765625 9.28125 18.015625 
L 9.28125 47.703125 
L 2.6875 47.703125 
L 2.6875 54.6875 
L 9.28125 54.6875 
L 9.28125 70.21875 
z
" id="DejaVuSans-116"/>
       <path id="DejaVuSans-32"/>
       <path d="M 2.984375 54.6875 
L 12.5 54.6875 
L 29.59375 8.796875 
L 46.6875 54.6875 
L 56.203125 54.6875 
L 35.6875 0 
L 23.484375 0 
z
" id="DejaVuSans-118"/>
       <path d="M 34.28125 27.484375 
Q 23.390625 27.484375 19.1875 25 
Q 14.984375 22.515625 14.984375 16.5 
Q 14.984375 11.71875 18.140625 8.90625 
Q 21.296875 6.109375 26.703125 6.109375 
Q 34.1875 6.109375 38.703125 11.40625 
Q 43.21875 16.703125 43.21875 25.484375 
L 43.21875 27.484375 
z
M 52.203125 31.203125 
L 52.203125 0 
L 43.21875 0 
L 43.21875 8.296875 
Q 40.140625 3.328125 35.546875 0.953125 
Q 30.953125 -1.421875 24.3125 -1.421875 
Q 15.921875 -1.421875 10.953125 3.296875 
Q 6 8.015625 6 15.921875 
Q 6 25.140625 12.171875 29.828125 
Q 18.359375 34.515625 30.609375 34.515625 
L 43.21875 34.515625 
L 43.21875 35.40625 
Q 43.21875 41.609375 39.140625 45 
Q 35.0625 48.390625 27.6875 48.390625 
Q 23 48.390625 18.546875 47.265625 
Q 14.109375 46.140625 10.015625 43.890625 
L 10.015625 52.203125 
Q 14.9375 54.109375 19.578125 55.046875 
Q 24.21875 56 28.609375 56 
Q 40.484375 56 46.34375 49.84375 
Q 52.203125 43.703125 52.203125 31.203125 
z
" id="DejaVuSans-97"/>
       <path d="M 9.421875 75.984375 
L 18.40625 75.984375 
L 18.40625 0 
L 9.421875 0 
z
" id="DejaVuSans-108"/>
       <path d="M 8.5 21.578125 
L 8.5 54.6875 
L 17.484375 54.6875 
L 17.484375 21.921875 
Q 17.484375 14.15625 20.5 10.265625 
Q 23.53125 6.390625 29.59375 6.390625 
Q 36.859375 6.390625 41.078125 11.03125 
Q 45.3125 15.671875 45.3125 23.6875 
L 45.3125 54.6875 
L 54.296875 54.6875 
L 54.296875 0 
L 45.3125 0 
L 45.3125 8.40625 
Q 42.046875 3.421875 37.71875 1 
Q 33.40625 -1.421875 27.6875 -1.421875 
Q 18.265625 -1.421875 13.375 4.4375 
Q 8.5 10.296875 8.5 21.578125 
z
M 31.109375 56 
z
" id="DejaVuSans-117"/>
      </defs>
      <use xlink:href="#DejaVuSans-110"/>
      <use x="63.378906" xlink:href="#DejaVuSans-101"/>
      <use x="124.902344" xlink:href="#DejaVuSans-116"/>
      <use x="164.111328" xlink:href="#DejaVuSans-32"/>
      <use x="195.898438" xlink:href="#DejaVuSans-118"/>
      <use x="255.078125" xlink:href="#DejaVuSans-97"/>
      <use x="316.357422" xlink:href="#DejaVuSans-108"/>
      <use x="344.140625" xlink:href="#DejaVuSans-117"/>
      <use x="407.519531" xlink:href="#DejaVuSans-101"/>
     </g>
    </g>
   </g>
   <g id="line2d_17">
    <path clip-path="url(#p98525048a4)" d="M 97.022727 231.839405 
L 100.652123 234.922076 
L 115.169708 240.49869 
L 118.799104 246.425523 
L 122.4285 246.505305 
L 126.057896 252.251963 
L 136.946085 252.567659 
L 140.575481 250.0898 
L 144.204877 246.530039 
L 147.834273 246.933823 
L 151.46367 246.131516 
L 162.351858 246.045635 
L 165.981254 241.228164 
L 169.61065 241.849366 
L 173.240046 238.823314 
L 176.869443 238.801919 
L 187.757631 244.12701 
L 191.387027 245.132667 
L 195.016423 249.609687 
L 198.64582 251.220773 
L 202.275216 256.766369 
L 213.163404 256.44365 
L 216.7928 261.412413 
L 220.422196 258.041072 
L 224.051593 259.004064 
L 227.680989 261.063334 
L 238.569177 261.611627 
L 242.198573 266.740356 
L 245.827969 267.743198 
L 249.457366 267.925538 
L 253.086762 268.235106 
L 263.97495 267.567921 
L 267.604346 267.15049 
L 271.233743 266.984347 
L 274.863139 262.276635 
L 278.492535 263.04891 
L 289.380723 261.776317 
L 293.010119 267.523122 
L 296.639516 270.836473 
L 300.268912 268.962241 
L 303.898308 263.692276 
L 318.415893 257.816559 
L 322.045289 252.139521 
L 325.674685 254.597644 
L 329.304081 255.765991 
L 340.192269 258.911495 
L 343.821666 255.078539 
L 347.451062 259.347986 
L 351.080458 259.68379 
L 354.709854 259.011399 
L 365.598042 260.037681 
L 369.227439 256.757191 
L 372.856835 255.193072 
L 376.486231 256.492253 
L 380.115627 252.416585 
L 391.003816 253.237629 
L 398.262608 247.711981 
L 401.892004 246.816192 
L 405.5214 244.692519 
L 416.409589 241.718519 
L 420.038985 241.348052 
L 423.668381 245.310739 
L 427.297777 246.908991 
L 430.927173 246.566065 
L 441.815362 249.85189 
L 445.444758 248.829896 
L 449.074154 247.628988 
L 452.70355 248.089469 
L 456.332946 255.048802 
L 467.221135 256.736031 
L 470.850531 253.713436 
L 474.479927 253.177347 
L 478.109323 256.656193 
L 481.738719 257.976077 
L 492.626908 255.837043 
L 496.256304 260.194354 
L 499.8857 257.771359 
L 503.515096 257.036069 
L 507.144492 257.104889 
L 518.032681 251.37946 
L 521.662077 245.17497 
L 525.291473 244.694967 
L 528.920869 244.632952 
L 532.550265 244.44476 
L 543.438454 250.360501 
L 547.06785 249.802598 
L 550.697246 245.907289 
L 554.326642 242.801361 
L 557.956038 238.179971 
L 568.844227 231.512216 
L 572.473623 230.555162 
L 576.103019 231.575108 
L 579.732415 231.719031 
L 583.361812 227.736596 
L 594.25 226.695397 
L 597.879396 228.95255 
L 601.508792 221.291995 
L 605.138188 214.220369 
L 608.767585 215.295452 
L 619.655773 209.226855 
L 623.285169 213.223671 
L 626.914565 209.42774 
L 630.543962 213.390711 
L 634.173358 216.651089 
L 648.690942 212.955303 
L 652.320338 216.275165 
L 655.949735 214.919724 
L 659.579131 221.870986 
L 670.467319 218.985346 
L 674.096715 222.316792 
L 677.726111 228.286204 
L 681.355508 224.788949 
L 684.984904 222.567903 
L 695.873092 223.624684 
L 699.502488 219.711143 
L 703.131885 217.691852 
L 706.761281 227.077487 
L 710.390677 225.83726 
L 721.278865 219.609661 
L 724.908261 213.88406 
L 728.537658 210.063645 
L 732.167054 216.297779 
L 735.79645 222.765297 
L 746.684638 217.450002 
L 750.314035 210.859124 
L 753.943431 211.352457 
L 757.572827 217.077641 
L 761.202223 215.967495 
L 772.090411 218.576647 
L 775.719808 211.832243 
L 779.349204 219.915601 
L 782.9786 226.18508 
L 786.607996 217.585386 
L 797.496184 213.329048 
L 801.125581 221.884975 
L 804.754977 214.518692 
L 808.384373 211.190088 
L 812.013769 206.430358 
L 822.901958 203.888738 
L 826.531354 197.507604 
L 830.16075 199.506361 
L 833.790146 207.050866 
L 837.419542 215.872637 
L 848.307731 214.947088 
L 851.937127 213.939521 
L 855.566523 209.480143 
L 859.195919 202.212981 
L 862.825315 199.730399 
L 873.713504 195.446559 
L 877.3429 196.706963 
L 880.972296 190.249187 
L 884.601692 189.830668 
L 888.231088 191.277927 
L 899.119277 184.743598 
L 902.748673 194.853653 
L 906.378069 186.558599 
L 910.007465 188.755566 
L 913.636861 190.543313 
L 924.52505 190.555531 
L 928.154446 200.728423 
L 931.783842 202.479403 
L 935.413238 198.9133 
L 939.042634 196.994957 
L 949.930823 205.624913 
L 953.560219 205.576269 
L 957.189615 212.194442 
L 960.819011 221.746306 
L 964.448407 220.933043 
L 975.336596 220.976037 
L 978.965992 220.511169 
L 982.595388 221.385485 
L 986.224784 222.096267 
L 989.85418 220.883618 
L 1000.742369 215.84553 
L 1004.371765 209.156923 
L 1008.001161 203.806334 
L 1011.630557 202.609266 
L 1015.259954 206.502539 
L 1026.148142 205.534823 
L 1029.777538 205.858938 
L 1033.406934 207.992639 
L 1037.03633 208.949141 
L 1040.665727 202.577305 
L 1051.553915 192.415615 
L 1055.183311 201.398024 
L 1062.442104 208.530806 
L 1066.0715 206.777595 
L 1076.959688 209.092439 
L 1080.589084 205.902851 
L 1084.21848 207.434715 
L 1087.847877 201.205569 
L 1091.477273 196.579908 
L 1091.477273 196.579908 
" style="fill:none;stroke:#1f77b4;stroke-linecap:square;stroke-width:1.5;"/>
   </g>
   <g id="line2d_18">
    <path clip-path="url(#p98525048a4)" d="M 97.022727 232.938992 
L 100.652123 231.953159 
L 111.540312 233.277568 
L 115.169708 240.777763 
L 118.799104 235.712465 
L 122.4285 239.516759 
L 126.057896 240.851143 
L 136.946085 239.386745 
L 140.575481 238.402009 
L 144.204877 238.744409 
L 147.834273 236.568004 
L 151.46367 234.155468 
L 162.351858 235.313523 
L 165.981254 233.613988 
L 169.61065 237.955973 
L 173.240046 243.330209 
L 176.869443 246.84541 
L 187.757631 252.951096 
L 191.387027 252.868712 
L 195.016423 247.835415 
L 198.64582 249.470392 
L 202.275216 250.149413 
L 213.163404 244.79066 
L 216.7928 245.742869 
L 220.422196 238.127094 
L 224.051593 237.069015 
L 227.680989 241.916262 
L 238.569177 237.619435 
L 242.198573 236.663045 
L 245.827969 240.734255 
L 249.457366 240.116929 
L 253.086762 244.183601 
L 263.97495 239.143206 
L 267.604346 235.168121 
L 271.233743 234.294451 
L 274.863139 229.738706 
L 278.492535 236.856322 
L 289.380723 241.401266 
L 293.010119 242.78858 
L 296.639516 236.20342 
L 300.268912 234.150164 
L 303.898308 232.504488 
L 314.786496 232.694076 
L 318.415893 237.687916 
L 322.045289 233.205551 
L 325.674685 232.267138 
L 329.304081 232.661093 
L 340.192269 225.169634 
L 343.821666 224.563395 
L 347.451062 228.490406 
L 351.080458 227.848482 
L 354.709854 228.193975 
L 365.598042 228.351496 
L 369.227439 223.883873 
L 372.856835 232.093904 
L 376.486231 234.622812 
L 380.115627 231.285098 
L 391.003816 234.223446 
L 394.633212 238.065157 
L 398.262608 237.166124 
L 401.892004 235.302471 
L 405.5214 242.294057 
L 416.409589 241.018418 
L 420.038985 237.671615 
L 423.668381 239.438599 
L 427.297777 239.535103 
L 430.927173 239.240413 
L 441.815362 238.551659 
L 445.444758 240.702812 
L 449.074154 240.220276 
L 452.70355 245.155829 
L 456.332946 249.198621 
L 467.221135 250.239763 
L 470.850531 249.245668 
L 474.479927 250.490704 
L 478.109323 252.589958 
L 481.738719 249.820421 
L 492.626908 245.296184 
L 496.256304 243.047808 
L 499.8857 242.892573 
L 503.515096 240.056243 
L 507.144492 241.030157 
L 518.032681 242.007939 
L 521.662077 238.098425 
L 525.291473 240.223296 
L 528.920869 236.949788 
L 532.550265 237.724158 
L 543.438454 243.067254 
L 547.06785 235.906523 
L 550.697246 235.504155 
L 554.326642 238.615248 
L 557.956038 238.352116 
L 568.844227 242.60363 
L 572.473623 244.267892 
L 576.103019 243.126783 
L 579.732415 239.615892 
L 583.361812 241.880143 
L 594.25 237.177887 
L 597.879396 238.441732 
L 601.508792 238.641247 
L 605.138188 241.738107 
L 608.767585 241.794306 
L 619.655773 243.312744 
L 623.285169 244.073498 
L 626.914565 245.873333 
L 630.543962 248.65811 
L 634.173358 253.641072 
L 645.061546 251.994783 
L 648.690942 249.355774 
L 652.320338 242.759221 
L 655.949735 247.189244 
L 659.579131 249.232209 
L 670.467319 249.99786 
L 674.096715 244.371155 
L 677.726111 239.92016 
L 681.355508 232.948762 
L 684.984904 232.491862 
L 695.873092 232.517732 
L 699.502488 239.950787 
L 703.131885 235.125458 
L 706.761281 238.198147 
L 710.390677 236.679186 
L 721.278865 239.259018 
L 724.908261 242.641449 
L 728.537658 240.058494 
L 732.167054 245.828605 
L 735.79645 239.039267 
L 746.684638 235.069534 
L 750.314035 231.444351 
L 753.943431 229.435472 
L 757.572827 228.778115 
L 761.202223 221.536477 
L 772.090411 217.875149 
L 775.719808 212.010999 
L 782.9786 210.946711 
L 786.607996 204.094038 
L 797.496184 197.562034 
L 801.125581 204.477741 
L 804.754977 206.542488 
L 808.384373 204.171068 
L 812.013769 211.733351 
L 822.901958 212.747216 
L 826.531354 207.59991 
L 830.16075 207.186447 
L 837.419542 206.767303 
L 848.307731 195.741883 
L 851.937127 194.114251 
L 855.566523 185.031996 
L 859.195919 183.448919 
L 862.825315 190.784349 
L 873.713504 189.573965 
L 877.3429 194.221519 
L 880.972296 194.792821 
L 884.601692 186.982786 
L 888.231088 193.30479 
L 899.119277 188.530338 
L 902.748673 181.961457 
L 906.378069 171.434881 
L 910.007465 162.848811 
L 913.636861 150.298008 
L 924.52505 144.250107 
L 928.154446 144.040429 
L 931.783842 137.470898 
L 935.413238 146.463132 
L 939.042634 141.707941 
L 949.930823 136.94801 
L 953.560219 147.469848 
L 957.189615 143.419739 
L 960.819011 146.827796 
L 964.448407 146.86283 
L 975.336596 152.914212 
L 978.965992 154.208741 
L 982.595388 154.893416 
L 986.224784 161.209214 
L 989.85418 152.328193 
L 1000.742369 144.715984 
L 1004.371765 134.373676 
L 1008.001161 136.592759 
L 1011.630557 133.569454 
L 1015.259954 135.596671 
L 1026.148142 129.221057 
L 1029.777538 121.089939 
L 1033.406934 126.007768 
L 1037.03633 140.970464 
L 1040.665727 157.064978 
L 1051.553915 150.130189 
L 1055.183311 160.006186 
L 1058.812707 144.710486 
L 1062.442104 160.044383 
L 1066.0715 150.780083 
L 1076.959688 154.471768 
L 1080.589084 162.012114 
L 1084.21848 167.525709 
L 1087.847877 166.700347 
L 1091.477273 168.051128 
L 1091.477273 168.051128 
" style="fill:none;stroke:#ff7f0e;stroke-linecap:square;stroke-width:1.5;"/>
   </g>
   <g id="line2d_19">
    <path clip-path="url(#p98525048a4)" d="M 97.022727 237.603554 
L 100.652123 239.169929 
L 111.540312 237.025281 
L 115.169708 237.242253 
L 118.799104 240.97026 
L 122.4285 246.540512 
L 126.057896 248.832727 
L 136.946085 250.080163 
L 140.575481 250.253122 
L 147.834273 250.089378 
L 151.46367 244.441796 
L 162.351858 244.639759 
L 165.981254 241.845897 
L 169.61065 240.74355 
L 173.240046 239.286589 
L 176.869443 239.735094 
L 187.757631 236.645571 
L 191.387027 232.818069 
L 195.016423 231.269156 
L 198.64582 233.99922 
L 202.275216 240.565662 
L 213.163404 241.64334 
L 216.7928 237.192273 
L 220.422196 230.290379 
L 224.051593 225.612032 
L 227.680989 223.717886 
L 238.569177 232.735799 
L 242.198573 232.946065 
L 245.827969 240.66835 
L 249.457366 237.483805 
L 253.086762 241.970391 
L 263.97495 246.082502 
L 267.604346 240.941722 
L 271.233743 236.156911 
L 274.863139 239.674547 
L 278.492535 242.215187 
L 289.380723 248.507065 
L 293.010119 255.811667 
L 296.639516 256.537313 
L 300.268912 257.666932 
L 303.898308 255.32059 
L 314.786496 260.461856 
L 318.415893 260.102626 
L 322.045289 257.255973 
L 325.674685 259.956859 
L 329.304081 257.928497 
L 340.192269 261.975608 
L 343.821666 264.96513 
L 347.451062 265.265105 
L 351.080458 265.027783 
L 354.709854 262.129492 
L 365.598042 262.588316 
L 369.227439 257.394291 
L 372.856835 255.048092 
L 376.486231 261.452877 
L 380.115627 262.563861 
L 391.003816 265.323483 
L 394.633212 268.827351 
L 398.262608 269.737682 
L 401.892004 269.811568 
L 405.5214 269.596023 
L 416.409589 272.086844 
L 420.038985 274.23079 
L 423.668381 272.301777 
L 427.297777 273.880661 
L 430.927173 272.625635 
L 441.815362 276.217468 
L 445.444758 276.296856 
L 449.074154 271.576116 
L 452.70355 273.594379 
L 456.332946 269.844386 
L 467.221135 272.355272 
L 470.850531 270.567556 
L 474.479927 268.628126 
L 478.109323 273.28547 
L 481.738719 276.783339 
L 492.626908 276.471584 
L 496.256304 278.058102 
L 499.8857 277.970934 
L 503.515096 279.147595 
L 507.144492 278.450155 
L 518.032681 280.310832 
L 521.662077 279.329521 
L 525.291473 277.638532 
L 528.920869 275.090717 
L 532.550265 274.725936 
L 543.438454 274.74643 
L 547.06785 277.940659 
L 550.697246 280.321795 
L 554.326642 277.304885 
L 557.956038 279.655105 
L 568.844227 280.557474 
L 572.473623 283.266307 
L 576.103019 280.878897 
L 579.732415 277.321693 
L 583.361812 277.571706 
L 594.25 278.883479 
L 597.879396 282.489078 
L 601.508792 283.732579 
L 605.138188 285.854696 
L 608.767585 283.729121 
L 619.655773 284.5919 
L 623.285169 281.687277 
L 626.914565 281.298977 
L 630.543962 278.436135 
L 634.173358 275.865768 
L 645.061546 274.301391 
L 648.690942 276.675256 
L 652.320338 275.475466 
L 655.949735 275.738256 
L 659.579131 276.735567 
L 670.467319 273.526341 
L 674.096715 275.748043 
L 677.726111 275.950981 
L 681.355508 275.862594 
L 684.984904 279.474059 
L 695.873092 275.84793 
L 699.502488 273.538355 
L 703.131885 272.365905 
L 706.761281 273.702806 
L 710.390677 273.261699 
L 721.278865 272.173449 
L 724.908261 269.961631 
L 728.537658 269.551445 
L 732.167054 269.518048 
L 735.79645 274.323291 
L 746.684638 276.82512 
L 750.314035 277.147948 
L 753.943431 281.705503 
L 757.572827 280.338138 
L 761.202223 280.783533 
L 772.090411 281.322808 
L 775.719808 281.112214 
L 779.349204 278.958581 
L 782.9786 279.005574 
L 786.607996 278.599148 
L 797.496184 278.448735 
L 801.125581 279.350134 
L 808.384373 276.969374 
L 812.013769 273.826323 
L 822.901958 271.559306 
L 826.531354 273.502578 
L 830.16075 274.681993 
L 833.790146 270.602957 
L 837.419542 273.522874 
L 848.307731 270.992069 
L 851.937127 267.687456 
L 855.566523 269.442271 
L 859.195919 267.118233 
L 873.713504 265.540468 
L 880.972296 265.673101 
L 884.601692 268.032146 
L 888.231088 266.304769 
L 899.119277 267.193608 
L 902.748673 263.467992 
L 906.378069 259.90431 
L 910.007465 259.221078 
L 913.636861 262.45104 
L 924.52505 261.141851 
L 928.154446 259.195224 
L 931.783842 259.911278 
L 939.042634 259.161462 
L 949.930823 261.58701 
L 953.560219 260.659178 
L 957.189615 264.945071 
L 960.819011 260.888834 
L 964.448407 264.711327 
L 975.336596 263.997398 
L 978.965992 259.686024 
L 982.595388 261.117918 
L 986.224784 262.191543 
L 989.85418 259.55515 
L 1000.742369 262.156415 
L 1004.371765 260.104561 
L 1008.001161 260.807971 
L 1011.630557 260.608247 
L 1015.259954 256.704073 
L 1026.148142 258.643351 
L 1029.777538 261.711627 
L 1033.406934 263.905155 
L 1037.03633 258.785763 
L 1040.665727 256.873688 
L 1051.553915 255.691188 
L 1055.183311 253.797411 
L 1062.442104 249.490446 
L 1066.0715 249.853639 
L 1076.959688 251.097402 
L 1080.589084 256.256452 
L 1084.21848 258.214063 
L 1087.847877 256.117137 
L 1091.477273 254.168635 
L 1091.477273 254.168635 
" style="fill:none;stroke:#2ca02c;stroke-linecap:square;stroke-width:1.5;"/>
   </g>
   <g id="line2d_20">
    <path clip-path="url(#p98525048a4)" d="M 97.022727 239.256684 
L 100.652123 245.723309 
L 111.540312 248.1008 
L 115.169708 248.260724 
L 118.799104 246.086964 
L 122.4285 244.063539 
L 126.057896 244.906085 
L 136.946085 243.233449 
L 140.575481 237.072807 
L 144.204877 240.474041 
L 147.834273 243.049694 
L 151.46367 239.501246 
L 162.351858 245.926512 
L 165.981254 241.390677 
L 169.61065 246.584788 
L 173.240046 247.187351 
L 176.869443 249.247383 
L 187.757631 247.548395 
L 191.387027 250.387034 
L 195.016423 247.143721 
L 198.64582 250.067641 
L 202.275216 247.32812 
L 213.163404 246.353526 
L 216.7928 250.414792 
L 220.422196 244.093412 
L 224.051593 248.777657 
L 227.680989 243.362254 
L 238.569177 246.410569 
L 242.198573 242.354733 
L 245.827969 242.378483 
L 249.457366 248.112215 
L 253.086762 245.569468 
L 263.97495 249.097621 
L 267.604346 248.395755 
L 271.233743 248.106213 
L 274.863139 242.325165 
L 278.492535 245.669441 
L 289.380723 241.197319 
L 293.010119 243.955037 
L 296.639516 243.495662 
L 300.268912 247.822277 
L 303.898308 247.331441 
L 314.786496 247.431152 
L 318.415893 250.27436 
L 322.045289 244.909628 
L 325.674685 244.513358 
L 329.304081 244.836033 
L 340.192269 246.666724 
L 343.821666 248.412393 
L 347.451062 247.752399 
L 351.080458 249.460731 
L 354.709854 251.709574 
L 365.598042 253.349181 
L 369.227439 252.590496 
L 372.856835 250.353297 
L 376.486231 247.654195 
L 380.115627 245.227057 
L 391.003816 250.080213 
L 394.633212 250.106258 
L 398.262608 247.553226 
L 401.892004 247.024891 
L 405.5214 241.618552 
L 416.409589 247.65847 
L 420.038985 245.404632 
L 423.668381 247.084658 
L 427.297777 247.441688 
L 430.927173 252.082016 
L 441.815362 258.666133 
L 445.444758 259.11226 
L 449.074154 254.662734 
L 452.70355 255.597723 
L 456.332946 254.549348 
L 467.221135 255.438664 
L 470.850531 249.114657 
L 474.479927 247.793609 
L 478.109323 253.732188 
L 481.738719 254.868428 
L 492.626908 254.90987 
L 496.256304 256.851114 
L 499.8857 259.011939 
L 503.515096 261.80217 
L 507.144492 259.816205 
L 518.032681 259.454242 
L 521.662077 260.432336 
L 525.291473 263.51718 
L 528.920869 265.871261 
L 532.550265 263.17465 
L 543.438454 261.536603 
L 547.06785 263.773821 
L 550.697246 263.312194 
L 554.326642 268.520045 
L 557.956038 271.11356 
L 568.844227 272.830516 
L 572.473623 270.887587 
L 576.103019 270.744667 
L 579.732415 266.862291 
L 583.361812 270.969612 
L 594.25 273.645192 
L 597.879396 273.678105 
L 601.508792 274.627399 
L 605.138188 277.728246 
L 608.767585 278.383874 
L 619.655773 280.64543 
L 623.285169 284.924947 
L 626.914565 288.421876 
L 630.543962 285.911635 
L 634.173358 286.418768 
L 645.061546 289.066092 
L 648.690942 290.92521 
L 652.320338 290.523816 
L 655.949735 287.963748 
L 659.579131 288.368601 
L 670.467319 291.000131 
L 674.096715 290.346619 
L 677.726111 288.948128 
L 681.355508 287.28373 
L 684.984904 285.366361 
L 695.873092 283.817295 
L 699.502488 285.357026 
L 703.131885 284.578967 
L 706.761281 286.617511 
L 710.390677 287.627548 
L 721.278865 286.888085 
L 724.908261 283.814014 
L 728.537658 284.767618 
L 732.167054 284.748854 
L 735.79645 283.765031 
L 746.684638 282.740189 
L 750.314035 279.726598 
L 753.943431 275.947303 
L 757.572827 277.477759 
L 761.202223 278.168674 
L 772.090411 279.525857 
L 775.719808 280.322289 
L 779.349204 280.780662 
L 782.9786 282.04369 
L 786.607996 279.278254 
L 801.125581 283.30885 
L 804.754977 286.136661 
L 808.384373 287.123761 
L 812.013769 288.668209 
L 826.531354 286.36692 
L 830.16075 286.412822 
L 833.790146 289.11334 
L 837.419542 288.748646 
L 848.307731 289.638422 
L 851.937127 290.268521 
L 855.566523 287.241198 
L 859.195919 284.393529 
L 862.825315 281.937449 
L 873.713504 281.670264 
L 880.972296 289.739276 
L 884.601692 286.88404 
L 888.231088 287.250976 
L 899.119277 286.855942 
L 902.748673 289.0285 
L 906.378069 289.599581 
L 910.007465 291.992332 
L 924.52505 292.850748 
L 928.154446 292.882741 
L 931.783842 294.288356 
L 935.413238 294.754896 
L 939.042634 294.333819 
L 949.930823 293.375749 
L 953.560219 294.902192 
L 957.189615 295.15437 
L 960.819011 296.798872 
L 964.448407 298.011483 
L 975.336596 297.208298 
L 978.965992 295.509968 
L 982.595388 297.61829 
L 986.224784 298.3357 
L 989.85418 297.122085 
L 1000.742369 298.429796 
L 1004.371765 299.502198 
L 1008.001161 297.533391 
L 1011.630557 298.056328 
L 1015.259954 297.251047 
L 1026.148142 298.775969 
L 1033.406934 299.180213 
L 1037.03633 300.874174 
L 1040.665727 299.767854 
L 1051.553915 298.156422 
L 1055.183311 298.582688 
L 1058.812707 301.072199 
L 1062.442104 303.326852 
L 1066.0715 305.3152 
L 1076.959688 303.337723 
L 1080.589084 302.517914 
L 1084.21848 302.474613 
L 1087.847877 302.201087 
L 1091.477273 302.629133 
L 1091.477273 302.629133 
" style="fill:none;stroke:#d62728;stroke-linecap:square;stroke-width:1.5;"/>
   </g>
   <g id="line2d_21">
    <path clip-path="url(#p98525048a4)" d="M 97.022727 235.896713 
L 100.652123 235.619318 
L 111.540312 238.097384 
L 115.169708 242.904181 
L 118.799104 244.1114 
L 122.4285 241.940285 
L 126.057896 242.060827 
L 136.946085 236.566152 
L 140.575481 232.9852 
L 144.204877 232.341151 
L 147.834273 231.894019 
L 151.46367 228.746583 
L 162.351858 223.949977 
L 165.981254 232.440299 
L 169.61065 234.105973 
L 173.240046 229.698412 
L 176.869443 233.019771 
L 187.757631 232.942533 
L 191.387027 232.197993 
L 195.016423 226.629464 
L 198.64582 232.708257 
L 202.275216 230.020767 
L 213.163404 225.557676 
L 216.7928 226.052605 
L 220.422196 230.434083 
L 224.051593 230.77419 
L 227.680989 229.707399 
L 238.569177 234.95526 
L 242.198573 237.170934 
L 245.827969 237.666399 
L 249.457366 237.322391 
L 253.086762 237.285741 
L 267.604346 239.959988 
L 271.233743 240.687218 
L 274.863139 240.912391 
L 278.492535 240.723635 
L 289.380723 237.240677 
L 293.010119 242.835282 
L 296.639516 237.619777 
L 300.268912 239.07401 
L 303.898308 239.509722 
L 314.786496 237.321627 
L 318.415893 240.753783 
L 322.045289 237.846341 
L 325.674685 237.651756 
L 329.304081 241.745382 
L 340.192269 239.370861 
L 343.821666 236.161316 
L 347.451062 237.754355 
L 351.080458 240.941114 
L 354.709854 241.512032 
L 365.598042 239.49993 
L 369.227439 235.399895 
L 372.856835 234.358085 
L 376.486231 240.683565 
L 380.115627 238.338592 
L 391.003816 236.923337 
L 394.633212 231.552088 
L 398.262608 224.779284 
L 401.892004 233.236815 
L 405.5214 225.814256 
L 416.409589 225.286369 
L 420.038985 230.241994 
L 423.668381 227.624872 
L 427.297777 226.194464 
L 430.927173 230.628365 
L 441.815362 238.60051 
L 445.444758 242.294953 
L 449.074154 243.088431 
L 452.70355 244.225312 
L 456.332946 240.084682 
L 467.221135 237.425746 
L 470.850531 234.680638 
L 474.479927 237.761535 
L 478.109323 231.803436 
L 481.738719 227.805654 
L 492.626908 227.634351 
L 496.256304 225.309612 
L 499.8857 234.9124 
L 503.515096 229.775662 
L 507.144492 233.894019 
L 518.032681 236.315688 
L 521.662077 241.010743 
L 525.291473 237.259722 
L 528.920869 232.666008 
L 532.550265 233.287222 
L 543.438454 233.076266 
L 547.06785 230.536649 
L 550.697246 225.098284 
L 554.326642 231.288636 
L 557.956038 233.466948 
L 568.844227 232.180794 
L 572.473623 236.697962 
L 576.103019 239.591242 
L 579.732415 237.090679 
L 583.361812 238.637475 
L 594.25 242.92454 
L 597.879396 242.539174 
L 601.508792 237.680978 
L 605.138188 233.74335 
L 608.767585 234.276009 
L 619.655773 236.711857 
L 623.285169 241.965609 
L 626.914565 240.074794 
L 630.543962 236.866395 
L 634.173358 231.040022 
L 645.061546 226.697321 
L 648.690942 230.478957 
L 652.320338 225.46126 
L 655.949735 225.7806 
L 659.579131 226.751437 
L 670.467319 230.205507 
L 674.096715 231.077036 
L 681.355508 233.583476 
L 684.984904 236.924106 
L 695.873092 234.642863 
L 699.502488 236.37362 
L 703.131885 235.354931 
L 706.761281 241.81211 
L 710.390677 239.718003 
L 721.278865 235.213282 
L 724.908261 231.142204 
L 728.537658 228.978724 
L 732.167054 233.17713 
L 735.79645 227.423322 
L 746.684638 220.765072 
L 750.314035 222.058298 
L 753.943431 225.985334 
L 757.572827 220.476756 
L 761.202223 220.893096 
L 772.090411 225.182684 
L 775.719808 222.600676 
L 779.349204 226.634937 
L 782.9786 223.416291 
L 786.607996 226.297563 
L 797.496184 231.22743 
L 801.125581 232.447203 
L 804.754977 239.74063 
L 808.384373 240.995693 
L 812.013769 240.114204 
L 822.901958 237.312455 
L 826.531354 229.289059 
L 830.16075 225.926321 
L 833.790146 220.94891 
L 837.419542 220.763696 
L 848.307731 217.722933 
L 851.937127 222.100219 
L 855.566523 222.266176 
L 859.195919 230.940733 
L 862.825315 234.462123 
L 877.3429 226.345205 
L 880.972296 227.273968 
L 888.231088 215.49266 
L 899.119277 212.969488 
L 902.748673 215.542085 
L 906.378069 217.533369 
L 910.007465 225.172849 
L 913.636861 225.334502 
L 924.52505 228.146893 
L 928.154446 229.968611 
L 931.783842 223.87368 
L 935.413238 218.408251 
L 939.042634 226.883669 
L 949.930823 219.302673 
L 953.560219 220.945019 
L 957.189615 219.401456 
L 960.819011 225.357277 
L 964.448407 219.23961 
L 975.336596 215.766471 
L 978.965992 222.059157 
L 982.595388 218.02255 
L 986.224784 209.770468 
L 989.85418 211.306281 
L 1000.742369 220.145942 
L 1004.371765 213.025743 
L 1008.001161 214.220759 
L 1011.630557 212.361588 
L 1015.259954 213.829064 
L 1026.148142 216.916157 
L 1029.777538 212.491565 
L 1033.406934 214.772716 
L 1037.03633 215.427121 
L 1040.665727 207.931288 
L 1051.553915 208.286797 
L 1055.183311 213.410912 
L 1058.812707 218.162798 
L 1062.442104 215.230494 
L 1066.0715 216.471467 
L 1076.959688 211.95701 
L 1080.589084 210.920682 
L 1084.21848 215.712488 
L 1087.847877 215.499151 
L 1091.477273 216.591234 
L 1091.477273 216.591234 
" style="fill:none;stroke:#9467bd;stroke-linecap:square;stroke-width:1.5;"/>
   </g>
   <g id="line2d_22">
    <path clip-path="url(#p98525048a4)" d="M 97.022727 234.717082 
L 100.652123 241.128712 
L 111.540312 247.099665 
L 115.169708 254.242339 
L 118.799104 248.846946 
L 122.4285 247.247964 
L 126.057896 243.891068 
L 136.946085 251.947489 
L 140.575481 244.807966 
L 144.204877 239.28234 
L 147.834273 244.381537 
L 151.46367 249.697153 
L 162.351858 254.649801 
L 165.981254 257.518225 
L 169.61065 257.169673 
L 173.240046 258.132579 
L 176.869443 261.046263 
L 187.757631 259.550383 
L 191.387027 264.479515 
L 195.016423 267.116573 
L 198.64582 268.741555 
L 202.275216 269.261448 
L 213.163404 265.916164 
L 216.7928 269.640105 
L 220.422196 269.474205 
L 224.051593 268.394059 
L 227.680989 273.793147 
L 238.569177 272.629054 
L 242.198573 276.272094 
L 245.827969 280.764444 
L 249.457366 276.531455 
L 253.086762 271.746343 
L 263.97495 268.281925 
L 267.604346 270.612199 
L 271.233743 275.223056 
L 274.863139 273.281558 
L 278.492535 273.935486 
L 289.380723 278.015882 
L 293.010119 278.064015 
L 296.639516 282.7062 
L 300.268912 279.00527 
L 303.898308 281.364843 
L 314.786496 279.851774 
L 318.415893 281.661708 
L 322.045289 281.476067 
L 325.674685 281.042238 
L 329.304081 283.99655 
L 340.192269 279.871918 
L 343.821666 277.228303 
L 351.080458 268.418735 
L 354.709854 267.253809 
L 365.598042 262.135578 
L 369.227439 267.549277 
L 372.856835 271.219685 
L 376.486231 276.37633 
L 380.115627 278.176758 
L 391.003816 279.284145 
L 394.633212 281.508017 
L 398.262608 278.456911 
L 401.892004 279.873837 
L 405.5214 281.978644 
L 416.409589 281.586388 
L 420.038985 284.913444 
L 423.668381 282.31449 
L 427.297777 286.194583 
L 430.927173 282.132013 
L 441.815362 279.639209 
L 445.444758 282.548122 
L 449.074154 287.034649 
L 452.70355 284.455451 
L 456.332946 282.657489 
L 467.221135 280.584656 
L 470.850531 278.016823 
L 474.479927 282.267654 
L 478.109323 283.55977 
L 481.738719 286.96737 
L 496.256304 282.910699 
L 499.8857 284.432743 
L 503.515096 288.228187 
L 507.144492 289.728467 
L 518.032681 291.063576 
L 521.662077 289.371339 
L 525.291473 288.310961 
L 528.920869 285.243967 
L 532.550265 285.481088 
L 543.438454 288.709465 
L 547.06785 287.037415 
L 550.697246 284.905392 
L 554.326642 284.378297 
L 557.956038 282.018924 
L 568.844227 282.075875 
L 572.473623 281.867467 
L 576.103019 282.53477 
L 579.732415 286.842034 
L 583.361812 290.063002 
L 594.25 293.610217 
L 597.879396 292.674327 
L 601.508792 293.98275 
L 605.138188 293.924586 
L 608.767585 291.153962 
L 623.285169 293.623025 
L 626.914565 291.870383 
L 630.543962 293.825426 
L 634.173358 296.709493 
L 645.061546 298.021651 
L 648.690942 300.047059 
L 652.320338 297.65215 
L 655.949735 295.787265 
L 659.579131 294.930088 
L 670.467319 292.479611 
L 674.096715 290.327498 
L 677.726111 292.683672 
L 681.355508 289.917642 
L 684.984904 289.618666 
L 695.873092 287.263935 
L 699.502488 284.043673 
L 703.131885 285.640538 
L 706.761281 288.937463 
L 710.390677 291.058315 
L 721.278865 291.59562 
L 724.908261 289.285636 
L 728.537658 286.498719 
L 732.167054 290.582705 
L 735.79645 290.502462 
L 746.684638 291.120425 
L 750.314035 293.165378 
L 753.943431 295.807242 
L 757.572827 296.849986 
L 761.202223 294.098237 
L 772.090411 295.293958 
L 775.719808 295.171366 
L 779.349204 293.841874 
L 782.9786 294.771171 
L 786.607996 291.643892 
L 797.496184 288.28925 
L 801.125581 290.256384 
L 804.754977 290.277107 
L 812.013769 293.331094 
L 822.901958 296.534293 
L 826.531354 295.846665 
L 830.16075 295.829483 
L 833.790146 298.707639 
L 837.419542 300.000644 
L 848.307731 297.721395 
L 851.937127 299.294078 
L 855.566523 301.326725 
L 859.195919 301.382811 
L 862.825315 298.805792 
L 873.713504 300.307476 
L 877.3429 299.357048 
L 880.972296 297.862814 
L 884.601692 299.439697 
L 888.231088 298.140017 
L 899.119277 298.927353 
L 906.378069 297.36571 
L 910.007465 297.147135 
L 913.636861 299.668271 
L 924.52505 297.774069 
L 928.154446 298.85442 
L 931.783842 300.676375 
L 935.413238 303.178053 
L 939.042634 302.728381 
L 949.930823 301.833952 
L 953.560219 304.355476 
L 957.189615 304.298496 
L 960.819011 305.590308 
L 964.448407 304.942137 
L 975.336596 306.438247 
L 978.965992 305.618124 
L 982.595388 306.123201 
L 986.224784 304.219824 
L 989.85418 305.937584 
L 1000.742369 306.636156 
L 1004.371765 308.281079 
L 1011.630557 305.005908 
L 1015.259954 306.114948 
L 1026.148142 305.417434 
L 1029.777538 303.990124 
L 1033.406934 303.725996 
L 1037.03633 303.582556 
L 1040.665727 304.838799 
L 1051.553915 306.716681 
L 1055.183311 305.032665 
L 1058.812707 303.200211 
L 1062.442104 302.542311 
L 1066.0715 303.359142 
L 1076.959688 304.099683 
L 1080.589084 303.023467 
L 1087.847877 298.966539 
L 1091.477273 297.346178 
L 1091.477273 297.346178 
" style="fill:none;stroke:#8c564b;stroke-linecap:square;stroke-width:1.5;"/>
   </g>
   <g id="line2d_23">
    <path clip-path="url(#p98525048a4)" d="M 97.022727 237.700071 
L 100.652123 231.221701 
L 111.540312 227.165275 
L 115.169708 223.652591 
L 118.799104 232.76884 
L 122.4285 232.227999 
L 126.057896 236.344102 
L 136.946085 221.703507 
L 144.204877 233.515675 
L 147.834273 227.643073 
L 151.46367 217.975527 
L 162.351858 205.696708 
L 165.981254 210.892681 
L 169.61065 213.51369 
L 173.240046 206.5815 
L 176.869443 205.618444 
L 187.757631 208.254735 
L 191.387027 198.689042 
L 195.016423 185.799013 
L 198.64582 190.529908 
L 202.275216 185.444743 
L 213.163404 187.075162 
L 216.7928 179.296622 
L 220.422196 186.112358 
L 224.051593 189.228018 
L 227.680989 175.124734 
L 238.569177 186.575663 
L 242.198573 180.630918 
L 245.827969 168.622948 
L 253.086762 195.816599 
L 263.97495 206.76991 
L 267.604346 203.059401 
L 271.233743 194.045202 
L 274.863139 199.323406 
L 278.492535 197.505249 
L 289.380723 182.437936 
L 293.010119 191.273561 
L 296.639516 170.172919 
L 300.268912 185.626775 
L 303.898308 179.460089 
L 314.786496 180.61114 
L 318.415893 180.644687 
L 322.045289 176.323252 
L 325.674685 177.411925 
L 329.304081 174.751531 
L 340.192269 184.915479 
L 343.821666 187.600766 
L 351.080458 216.721528 
L 354.709854 219.628587 
L 365.598042 226.243473 
L 369.227439 213.161026 
L 372.856835 204.891383 
L 376.486231 202.019645 
L 380.115627 194.237292 
L 391.003816 189.148998 
L 394.633212 174.611836 
L 398.262608 173.916264 
L 401.892004 182.132839 
L 405.5214 164.316674 
L 416.409589 164.867824 
L 420.038985 161.031676 
L 423.668381 166.646364 
L 427.297777 150.623954 
L 430.927173 175.616004 
L 441.815362 196.388648 
L 445.444758 193.903841 
L 449.074154 181.892729 
L 452.70355 193.062627 
L 456.332946 191.969673 
L 467.221135 194.08058 
L 470.850531 197.281564 
L 474.479927 190.469554 
L 478.109323 177.495352 
L 481.738719 159.682475 
L 492.626908 171.611721 
L 496.256304 171.842607 
L 499.8857 181.170962 
L 503.515096 160.256956 
L 507.144492 160.954594 
L 518.032681 159.41748 
L 521.662077 175.791676 
L 525.291473 173.410731 
L 528.920869 177.546781 
L 532.550265 177.691889 
L 543.438454 165.927888 
L 547.06785 168.498701 
L 550.697246 167.910281 
L 557.956038 190.893278 
L 568.844227 188.857343 
L 572.473623 196.050949 
L 576.103019 198.322567 
L 579.732415 182.35326 
L 583.361812 173.417119 
L 594.25 166.357469 
L 597.879396 170.032538 
L 601.508792 155.186457 
L 605.138188 147.944994 
L 608.767585 163.632855 
L 619.655773 159.669033 
L 623.285169 166.345329 
L 626.914565 171.048754 
L 630.543962 156.810682 
L 634.173358 131.385296 
L 645.061546 114.311263 
L 648.690942 107.818985 
L 652.320338 115.399488 
L 655.949735 129.15792 
L 659.579131 136.350181 
L 670.467319 157.122589 
L 674.096715 169.018935 
L 677.726111 161.031569 
L 681.355508 176.409182 
L 684.984904 182.966689 
L 695.873092 188.245217 
L 699.502488 201.901286 
L 703.131885 195.912189 
L 706.761281 194.826187 
L 710.390677 184.347602 
L 721.278865 174.921801 
L 724.908261 177.933736 
L 728.537658 185.40123 
L 732.167054 177.395712 
L 735.79645 168.577591 
L 746.684638 155.388499 
L 750.314035 147.882057 
L 753.943431 140.873565 
L 757.572827 124.690753 
L 761.202223 143.480228 
L 772.090411 144.351163 
L 775.719808 140.427429 
L 779.349204 155.22219 
L 782.9786 145.024037 
L 786.607996 167.323659 
L 797.496184 189.967556 
L 801.125581 184.859679 
L 804.754977 195.709935 
L 808.384373 192.326773 
L 812.013769 185.117113 
L 822.901958 167.334118 
L 826.531354 156.632459 
L 830.16075 150.884189 
L 833.790146 126.364069 
L 837.419542 117.092302 
L 848.307731 128.32381 
L 851.937127 125.856219 
L 855.566523 111.822741 
L 859.195919 129.109743 
L 862.825315 155.638822 
L 873.713504 135.515729 
L 877.3429 138.231291 
L 880.972296 149.890746 
L 884.601692 130.27945 
L 888.231088 128.205672 
L 899.119277 118.442475 
L 902.748673 128.673565 
L 906.378069 137.52511 
L 910.007465 152.064191 
L 913.636861 137.931343 
L 924.52505 155.88039 
L 928.154446 152.855283 
L 931.783842 130.986215 
L 935.413238 102.554391 
L 939.042634 124.093243 
L 949.930823 116.037488 
L 953.560219 98.756556 
L 957.189615 96.004062 
L 960.819011 96.046954 
L 964.448407 88.94793 
L 975.336596 65.747696 
L 978.965992 90.469524 
L 982.595388 76.036152 
L 986.224784 79.122483 
L 989.85418 64.32028 
L 1000.742369 75.923646 
L 1004.371765 39.794545 
L 1008.001161 67.263964 
L 1011.630557 82.672425 
L 1015.259954 73.914326 
L 1026.148142 88.914633 
L 1029.777538 94.550879 
L 1033.406934 101.739312 
L 1037.03633 104.388741 
L 1040.665727 77.953098 
L 1051.553915 58.352016 
L 1055.183311 91.313306 
L 1058.812707 120.080105 
L 1062.442104 120.059873 
L 1066.0715 115.65727 
L 1076.959688 100.657648 
L 1080.589084 108.896614 
L 1084.21848 135.261945 
L 1087.847877 149.810274 
L 1091.477273 161.509907 
L 1091.477273 161.509907 
" style="fill:none;stroke:#e377c2;stroke-linecap:square;stroke-width:1.5;"/>
   </g>
   <g id="line2d_24">
    <path clip-path="url(#p98525048a4)" d="M 97.022727 239.398118 
L 100.652123 242.647568 
L 111.540312 244.597257 
L 115.169708 250.735606 
L 118.799104 239.850632 
L 122.4285 237.983499 
L 126.057896 227.892856 
L 136.946085 237.065902 
L 140.575481 231.515429 
L 144.204877 229.515369 
L 147.834273 234.68828 
L 151.46367 241.544355 
L 162.351858 247.103929 
L 165.981254 255.022982 
L 169.61065 254.139729 
L 173.240046 257.737798 
L 176.869443 260.684818 
L 187.757631 255.163417 
L 191.387027 259.535661 
L 195.016423 258.680166 
L 198.64582 259.106169 
L 202.275216 254.735302 
L 213.163404 250.893449 
L 216.7928 250.165111 
L 220.422196 253.885294 
L 224.051593 251.496753 
L 227.680989 256.144981 
L 238.569177 254.012663 
L 242.198573 253.1659 
L 245.827969 258.44288 
L 249.457366 251.995401 
L 253.086762 244.53356 
L 263.97495 240.322828 
L 267.604346 244.351558 
L 271.233743 251.303975 
L 274.863139 254.400382 
L 278.492535 254.415364 
L 289.380723 261.413305 
L 293.010119 255.699106 
L 296.639516 258.46189 
L 300.268912 255.056791 
L 303.898308 265.084761 
L 314.786496 267.326115 
L 318.415893 270.930053 
L 322.045289 275.316351 
L 325.674685 273.118706 
L 329.304081 275.699229 
L 340.192269 268.518876 
L 343.821666 268.549831 
L 347.451062 259.851899 
L 351.080458 254.143973 
L 354.709854 253.426533 
L 365.598042 246.032161 
L 369.227439 256.728572 
L 372.856835 262.621665 
L 376.486231 267.39387 
L 380.115627 272.961665 
L 391.003816 273.587549 
L 394.633212 278.069801 
L 398.262608 276.58201 
L 401.892004 278.625987 
L 405.5214 282.076155 
L 416.409589 283.322798 
L 420.038985 286.716806 
L 423.668381 282.340973 
L 427.297777 285.337038 
L 430.927173 281.371208 
L 441.815362 276.957003 
L 445.444758 280.694672 
L 449.074154 286.081535 
L 452.70355 283.202267 
L 456.332946 277.454345 
L 467.221135 273.97478 
L 470.850531 273.338885 
L 474.479927 278.382533 
L 478.109323 277.479025 
L 481.738719 280.419593 
L 492.626908 278.423094 
L 496.256304 274.210745 
L 499.8857 277.948519 
L 503.515096 282.833739 
L 518.032681 289.523114 
L 521.662077 290.872421 
L 525.291473 290.068235 
L 528.920869 287.165532 
L 532.550265 287.484055 
L 543.438454 287.694625 
L 547.06785 286.268623 
L 550.697246 286.17331 
L 554.326642 287.242652 
L 557.956038 287.246867 
L 568.844227 290.31915 
L 576.103019 290.671615 
L 579.732415 294.150923 
L 583.361812 298.196505 
L 594.25 301.290369 
L 597.879396 299.970301 
L 601.508792 303.170965 
L 605.138188 304.769636 
L 608.767585 302.664172 
L 619.655773 305.290897 
L 626.914565 304.520599 
L 630.543962 305.007046 
L 634.173358 306.292952 
L 645.061546 307.744859 
L 648.690942 309.271134 
L 652.320338 307.130545 
L 655.949735 306.1021 
L 659.579131 304.178269 
L 670.467319 303.060764 
L 674.096715 300.791176 
L 677.726111 300.958152 
L 681.355508 299.788014 
L 684.984904 300.172471 
L 695.873092 298.188379 
L 699.502488 296.949023 
L 703.131885 298.654019 
L 706.761281 298.444455 
L 710.390677 300.410464 
L 721.278865 302.489412 
L 724.908261 302.216415 
L 728.537658 301.223376 
L 732.167054 302.443452 
L 735.79645 300.912812 
L 746.684638 302.723753 
L 750.314035 305.626817 
L 753.943431 307.227344 
L 757.572827 306.883109 
L 761.202223 305.230764 
L 772.090411 305.504156 
L 775.719808 306.802294 
L 779.349204 304.474921 
L 782.9786 303.753517 
L 786.607996 303.516224 
L 797.496184 302.200895 
L 801.125581 301.557413 
L 804.754977 303.403043 
L 808.384373 305.098697 
L 812.013769 307.01087 
L 822.901958 309.384345 
L 826.531354 309.931672 
L 830.16075 309.646414 
L 833.790146 310.211811 
L 837.419542 309.703413 
L 848.307731 308.366862 
L 851.937127 309.559396 
L 855.566523 311.581147 
L 859.195919 312.617817 
L 862.825315 311.434161 
L 873.713504 312.835122 
L 877.3429 312.172508 
L 880.972296 312.123616 
L 884.601692 313.000206 
L 888.231088 312.163155 
L 899.119277 313.332941 
L 902.748673 311.917421 
L 906.378069 312.487465 
L 910.007465 312.137318 
L 913.636861 313.227442 
L 924.52505 312.241219 
L 928.154446 311.64224 
L 931.783842 312.438426 
L 935.413238 314.2998 
L 939.042634 314.254765 
L 949.930823 312.869253 
L 953.560219 314.329842 
L 957.189615 313.562095 
L 964.448407 312.847183 
L 975.336596 313.822408 
L 978.965992 313.345527 
L 982.595388 313.556957 
L 986.224784 312.207093 
L 989.85418 313.525812 
L 1000.742369 314.660471 
L 1004.371765 316.476108 
L 1008.001161 316.019903 
L 1011.630557 315.236975 
L 1015.259954 315.456819 
L 1026.148142 315.157509 
L 1029.777538 314.314367 
L 1033.406934 313.926472 
L 1037.03633 313.731953 
L 1040.665727 315.223808 
L 1051.553915 317.285455 
L 1055.183311 315.736445 
L 1058.812707 314.424187 
L 1062.442104 313.666809 
L 1066.0715 314.334732 
L 1076.959688 314.48477 
L 1080.589084 314.238367 
L 1084.21848 312.980482 
L 1091.477273 312.29824 
L 1091.477273 312.29824 
" style="fill:none;stroke:#7f7f7f;stroke-linecap:square;stroke-width:1.5;"/>
   </g>
   <g id="line2d_25">
    <path clip-path="url(#p98525048a4)" d="M 97.022727 240.577749 
L 100.652123 237.512173 
L 111.540312 235.786756 
L 115.169708 239.362124 
L 118.799104 234.615751 
L 122.4285 232.107284 
L 126.057896 225.478601 
L 136.946085 218.495249 
L 140.575481 217.804265 
L 144.204877 222.093747 
L 147.834273 221.073652 
L 151.46367 218.630049 
L 162.351858 213.458882 
L 165.981254 229.540965 
L 169.61065 230.552268 
L 173.240046 229.400996 
L 176.869443 232.756071 
L 191.387027 224.989741 
L 195.016423 213.435461 
L 198.64582 217.95076 
L 202.275216 206.895396 
L 213.163404 201.926919 
L 216.7928 193.777258 
L 220.422196 206.347153 
L 224.051593 205.095864 
L 227.680989 200.076848 
L 238.569177 205.859583 
L 242.198573 199.327426 
L 245.827969 197.921559 
L 249.457366 197.032128 
L 253.086762 196.303769 
L 263.97495 200.57035 
L 267.604346 202.52708 
L 271.233743 203.906654 
L 274.863139 213.808132 
L 278.492535 212.218029 
L 289.380723 209.866216 
L 293.010119 206.892513 
L 296.639516 192.833819 
L 300.268912 199.444905 
L 303.898308 211.559363 
L 314.786496 216.612322 
L 318.415893 223.258185 
L 322.045289 228.242964 
L 325.674685 224.794311 
L 329.304081 227.82777 
L 340.192269 220.706183 
L 343.821666 222.775251 
L 347.451062 218.437721 
L 351.080458 221.771077 
L 354.709854 223.513842 
L 365.598042 219.527601 
L 369.227439 219.739737 
L 372.856835 220.899385 
L 376.486231 226.222982 
L 380.115627 229.292242 
L 391.003816 226.661536 
L 394.633212 224.408108 
L 398.262608 220.848958 
L 401.892004 230.824618 
L 405.5214 225.755382 
L 416.409589 228.877924 
L 420.038985 234.085778 
L 423.668381 227.276523 
L 427.297777 223.893961 
L 430.927173 228.868496 
L 441.815362 232.984189 
L 445.444758 238.153775 
L 449.074154 240.348658 
L 452.70355 241.02002 
L 456.332946 229.14514 
L 467.221135 223.867985 
L 470.850531 225.129921 
L 474.479927 229.26902 
L 478.109323 218.157935 
L 481.738719 211.559592 
L 492.626908 214.919152 
L 496.256304 205.468713 
L 499.8857 221.309466 
L 503.515096 216.538912 
L 507.144492 221.104604 
L 518.032681 232.491982 
L 521.662077 245.118677 
L 525.291473 242.025296 
L 528.920869 237.737071 
L 532.550265 238.528987 
L 543.438454 231.994706 
L 547.06785 230.116149 
L 550.697246 229.53134 
L 554.326642 239.180935 
L 557.956038 245.999294 
L 568.844227 250.970538 
L 572.473623 255.364993 
L 576.103019 256.906142 
L 579.732415 254.789708 
L 583.361812 259.062399 
L 594.25 263.084277 
L 597.879396 261.344628 
L 605.138188 264.18887 
L 608.767585 263.946736 
L 619.655773 269.057719 
L 623.285169 270.466172 
L 626.914565 271.10372 
L 630.543962 267.12855 
L 634.173358 261.508208 
L 645.061546 260.19823 
L 648.690942 263.264288 
L 652.320338 258.067951 
L 655.949735 259.133682 
L 659.579131 255.556193 
L 670.467319 259.995767 
L 674.096715 258.524379 
L 677.726111 255.463455 
L 681.355508 258.994528 
L 684.984904 262.919602 
L 695.873092 260.638105 
L 699.502488 264.41108 
L 703.131885 264.889499 
L 706.761281 263.919597 
L 710.390677 263.150262 
L 721.278865 263.793547 
L 724.908261 264.367397 
L 728.537658 265.07576 
L 732.167054 264.418289 
L 735.79645 256.882671 
L 746.684638 255.766972 
L 750.314035 260.942436 
L 753.943431 263.144698 
L 757.572827 256.463033 
L 761.202223 257.45558 
L 772.090411 258.637496 
L 775.719808 261.169611 
L 779.349204 259.078648 
L 782.9786 252.895047 
L 786.607996 261.305283 
L 797.496184 267.106463 
L 801.125581 263.333153 
L 804.754977 272.753696 
L 808.384373 275.158033 
L 812.013769 276.774279 
L 822.901958 276.212295 
L 826.531354 274.293814 
L 830.16075 271.643713 
L 833.790146 265.591349 
L 837.419542 260.934504 
L 848.307731 259.587027 
L 851.937127 262.910709 
L 855.566523 265.555992 
L 859.195919 274.502445 
L 862.825315 277.496863 
L 873.713504 275.893626 
L 877.3429 274.341968 
L 880.972296 277.468574 
L 884.601692 274.711781 
L 888.231088 271.167566 
L 899.119277 272.60774 
L 902.748673 269.940066 
L 906.378069 274.581537 
L 910.007465 277.443805 
L 913.636861 276.874829 
L 924.52505 278.26962 
L 928.154446 275.499388 
L 931.783842 271.516125 
L 935.413238 270.156828 
L 939.042634 275.485975 
L 949.930823 268.095945 
L 953.560219 269.02427 
L 957.189615 264.988685 
L 960.819011 263.248341 
L 964.448407 259.886277 
L 975.336596 257.684825 
L 978.965992 261.930741 
L 982.595388 258.877428 
L 986.224784 253.232621 
L 989.85418 255.059282 
L 1000.742369 264.011572 
L 1004.371765 263.603462 
L 1008.001161 267.169908 
L 1011.630557 266.762489 
L 1015.259954 265.639083 
L 1026.148142 267.82059 
L 1029.777538 265.265986 
L 1033.406934 265.408951 
L 1037.03633 265.271933 
L 1040.665727 264.452777 
L 1051.553915 269.785958 
L 1055.183311 268.422406 
L 1058.812707 269.245001 
L 1062.442104 265.945433 
L 1066.0715 267.537936 
L 1076.959688 263.938383 
L 1080.589084 265.083956 
L 1084.21848 266.868512 
L 1087.847877 269.90869 
L 1091.477273 272.58977 
L 1091.477273 272.58977 
" style="fill:none;stroke:#bcbd22;stroke-linecap:square;stroke-width:1.5;"/>
   </g>
   <g id="patch_3">
    <path d="M 47.3 331.16 
L 47.3 25.92 
" style="fill:none;stroke:#000000;stroke-linecap:square;stroke-linejoin:miter;stroke-width:0.8;"/>
   </g>
   <g id="patch_4">
    <path d="M 1141.2 331.16 
L 1141.2 25.92 
" style="fill:none;stroke:#000000;stroke-linecap:square;stroke-linejoin:miter;stroke-width:0.8;"/>
   </g>
   <g id="patch_5">
    <path d="M 47.3 331.16 
L 1141.2 331.16 
" style="fill:none;stroke:#000000;stroke-linecap:square;stroke-linejoin:miter;stroke-width:0.8;"/>
   </g>
   <g id="patch_6">
    <path d="M 47.3 25.92 
L 1141.2 25.92 
" style="fill:none;stroke:#000000;stroke-linecap:square;stroke-linejoin:miter;stroke-width:0.8;"/>
   </g>
   <g id="text_10">
    <!-- Net Value: (2010-01-06 ~ 2010-10-08) -->
    <g transform="translate(478.1425 19.92)scale(0.12 -0.12)">
     <defs>
      <path d="M 9.8125 72.90625 
L 23.09375 72.90625 
L 55.421875 11.921875 
L 55.421875 72.90625 
L 64.984375 72.90625 
L 64.984375 0 
L 51.703125 0 
L 19.390625 60.984375 
L 19.390625 0 
L 9.8125 0 
z
" id="DejaVuSans-78"/>
      <path d="M 28.609375 0 
L 0.78125 72.90625 
L 11.078125 72.90625 
L 34.1875 11.53125 
L 57.328125 72.90625 
L 67.578125 72.90625 
L 39.796875 0 
z
" id="DejaVuSans-86"/>
      <path d="M 11.71875 12.40625 
L 22.015625 12.40625 
L 22.015625 0 
L 11.71875 0 
z
M 11.71875 51.703125 
L 22.015625 51.703125 
L 22.015625 39.3125 
L 11.71875 39.3125 
z
" id="DejaVuSans-58"/>
      <path d="M 31 75.875 
Q 24.46875 64.65625 21.28125 53.65625 
Q 18.109375 42.671875 18.109375 31.390625 
Q 18.109375 20.125 21.3125 9.0625 
Q 24.515625 -2 31 -13.1875 
L 23.1875 -13.1875 
Q 15.875 -1.703125 12.234375 9.375 
Q 8.59375 20.453125 8.59375 31.390625 
Q 8.59375 42.28125 12.203125 53.3125 
Q 15.828125 64.359375 23.1875 75.875 
z
" id="DejaVuSans-40"/>
      <path d="M 4.890625 31.390625 
L 31.203125 31.390625 
L 31.203125 23.390625 
L 4.890625 23.390625 
z
" id="DejaVuSans-45"/>
      <path d="M 33.015625 40.375 
Q 26.375 40.375 22.484375 35.828125 
Q 18.609375 31.296875 18.609375 23.390625 
Q 18.609375 15.53125 22.484375 10.953125 
Q 26.375 6.390625 33.015625 6.390625 
Q 39.65625 6.390625 43.53125 10.953125 
Q 47.40625 15.53125 47.40625 23.390625 
Q 47.40625 31.296875 43.53125 35.828125 
Q 39.65625 40.375 33.015625 40.375 
z
M 52.59375 71.296875 
L 52.59375 62.3125 
Q 48.875 64.0625 45.09375 64.984375 
Q 41.3125 65.921875 37.59375 65.921875 
Q 27.828125 65.921875 22.671875 59.328125 
Q 17.53125 52.734375 16.796875 39.40625 
Q 19.671875 43.65625 24.015625 45.921875 
Q 28.375 48.1875 33.59375 48.1875 
Q 44.578125 48.1875 50.953125 41.515625 
Q 57.328125 34.859375 57.328125 23.390625 
Q 57.328125 12.15625 50.6875 5.359375 
Q 44.046875 -1.421875 33.015625 -1.421875 
Q 20.359375 -1.421875 13.671875 8.265625 
Q 6.984375 17.96875 6.984375 36.375 
Q 6.984375 53.65625 15.1875 63.9375 
Q 23.390625 74.21875 37.203125 74.21875 
Q 40.921875 74.21875 44.703125 73.484375 
Q 48.484375 72.75 52.59375 71.296875 
z
" id="DejaVuSans-54"/>
      <path d="M 73.1875 39.890625 
L 73.1875 31.203125 
Q 68.0625 27.34375 63.6875 25.6875 
Q 59.328125 24.03125 54.59375 24.03125 
Q 49.21875 24.03125 42.09375 26.90625 
Q 41.546875 27.09375 41.3125 27.203125 
Q 40.96875 27.34375 40.234375 27.59375 
Q 32.671875 30.609375 28.078125 30.609375 
Q 23.78125 30.609375 19.578125 28.734375 
Q 15.375 26.859375 10.59375 22.796875 
L 10.59375 31.5 
Q 15.71875 35.359375 20.09375 37.03125 
Q 24.46875 38.71875 29.203125 38.71875 
Q 34.578125 38.71875 41.75 35.796875 
Q 42.234375 35.59375 42.484375 35.5 
Q 42.875 35.359375 43.5625 35.109375 
Q 51.125 32.078125 55.71875 32.078125 
Q 59.90625 32.078125 64.03125 33.9375 
Q 68.171875 35.796875 73.1875 39.890625 
z
" id="DejaVuSans-126"/>
      <path d="M 31.78125 34.625 
Q 24.75 34.625 20.71875 30.859375 
Q 16.703125 27.09375 16.703125 20.515625 
Q 16.703125 13.921875 20.71875 10.15625 
Q 24.75 6.390625 31.78125 6.390625 
Q 38.8125 6.390625 42.859375 10.171875 
Q 46.921875 13.96875 46.921875 20.515625 
Q 46.921875 27.09375 42.890625 30.859375 
Q 38.875 34.625 31.78125 34.625 
z
M 21.921875 38.8125 
Q 15.578125 40.375 12.03125 44.71875 
Q 8.5 49.078125 8.5 55.328125 
Q 8.5 64.0625 14.71875 69.140625 
Q 20.953125 74.21875 31.78125 74.21875 
Q 42.671875 74.21875 48.875 69.140625 
Q 55.078125 64.0625 55.078125 55.328125 
Q 55.078125 49.078125 51.53125 44.71875 
Q 48 40.375 41.703125 38.8125 
Q 48.828125 37.15625 52.796875 32.3125 
Q 56.78125 27.484375 56.78125 20.515625 
Q 56.78125 9.90625 50.3125 4.234375 
Q 43.84375 -1.421875 31.78125 -1.421875 
Q 19.734375 -1.421875 13.25 4.234375 
Q 6.78125 9.90625 6.78125 20.515625 
Q 6.78125 27.484375 10.78125 32.3125 
Q 14.796875 37.15625 21.921875 38.8125 
z
M 18.3125 54.390625 
Q 18.3125 48.734375 21.84375 45.5625 
Q 25.390625 42.390625 31.78125 42.390625 
Q 38.140625 42.390625 41.71875 45.5625 
Q 45.3125 48.734375 45.3125 54.390625 
Q 45.3125 60.0625 41.71875 63.234375 
Q 38.140625 66.40625 31.78125 66.40625 
Q 25.390625 66.40625 21.84375 63.234375 
Q 18.3125 60.0625 18.3125 54.390625 
z
" id="DejaVuSans-56"/>
      <path d="M 8.015625 75.875 
L 15.828125 75.875 
Q 23.140625 64.359375 26.78125 53.3125 
Q 30.421875 42.28125 30.421875 31.390625 
Q 30.421875 20.453125 26.78125 9.375 
Q 23.140625 -1.703125 15.828125 -13.1875 
L 8.015625 -13.1875 
Q 14.5 -2 17.703125 9.0625 
Q 20.90625 20.125 20.90625 31.390625 
Q 20.90625 42.671875 17.703125 53.65625 
Q 14.5 64.65625 8.015625 75.875 
z
" id="DejaVuSans-41"/>
     </defs>
     <use xlink:href="#DejaVuSans-78"/>
     <use x="74.804688" xlink:href="#DejaVuSans-101"/>
     <use x="136.328125" xlink:href="#DejaVuSans-116"/>
     <use x="175.537109" xlink:href="#DejaVuSans-32"/>
     <use x="207.324219" xlink:href="#DejaVuSans-86"/>
     <use x="267.982422" xlink:href="#DejaVuSans-97"/>
     <use x="329.261719" xlink:href="#DejaVuSans-108"/>
     <use x="357.044922" xlink:href="#DejaVuSans-117"/>
     <use x="420.423828" xlink:href="#DejaVuSans-101"/>
     <use x="481.947266" xlink:href="#DejaVuSans-58"/>
     <use x="515.638672" xlink:href="#DejaVuSans-32"/>
     <use x="547.425781" xlink:href="#DejaVuSans-40"/>
     <use x="586.439453" xlink:href="#DejaVuSans-50"/>
     <use x="650.0625" xlink:href="#DejaVuSans-48"/>
     <use x="713.685547" xlink:href="#DejaVuSans-49"/>
     <use x="777.308594" xlink:href="#DejaVuSans-48"/>
     <use x="840.931641" xlink:href="#DejaVuSans-45"/>
     <use x="877.015625" xlink:href="#DejaVuSans-48"/>
     <use x="940.638672" xlink:href="#DejaVuSans-49"/>
     <use x="1004.261719" xlink:href="#DejaVuSans-45"/>
     <use x="1040.345703" xlink:href="#DejaVuSans-48"/>
     <use x="1103.96875" xlink:href="#DejaVuSans-54"/>
     <use x="1167.591797" xlink:href="#DejaVuSans-32"/>
     <use x="1199.378906" xlink:href="#DejaVuSans-126"/>
     <use x="1283.167969" xlink:href="#DejaVuSans-32"/>
     <use x="1314.955078" xlink:href="#DejaVuSans-50"/>
     <use x="1378.578125" xlink:href="#DejaVuSans-48"/>
     <use x="1442.201172" xlink:href="#DejaVuSans-49"/>
     <use x="1505.824219" xlink:href="#DejaVuSans-48"/>
     <use x="1569.447266" xlink:href="#DejaVuSans-45"/>
     <use x="1605.53125" xlink:href="#DejaVuSans-49"/>
     <use x="1669.154297" xlink:href="#DejaVuSans-48"/>
     <use x="1732.777344" xlink:href="#DejaVuSans-45"/>
     <use x="1768.861328" xlink:href="#DejaVuSans-48"/>
     <use x="1832.484375" xlink:href="#DejaVuSans-56"/>
     <use x="1896.107422" xlink:href="#DejaVuSans-41"/>
    </g>
   </g>
   <g id="legend_1">
    <g id="patch_7">
     <path d="M 54.3 168.248125 
L 150.789062 168.248125 
Q 152.789062 168.248125 152.789062 166.248125 
L 152.789062 32.92 
Q 152.789062 30.92 150.789062 30.92 
L 54.3 30.92 
Q 52.3 30.92 52.3 32.92 
L 52.3 166.248125 
Q 52.3 168.248125 54.3 168.248125 
z
" style="fill:#ffffff;opacity:0.8;stroke:#cccccc;stroke-linejoin:miter;"/>
    </g>
    <g id="line2d_26">
     <path d="M 56.3 39.018438 
L 76.3 39.018438 
" style="fill:none;stroke:#1f77b4;stroke-linecap:square;stroke-width:1.5;"/>
    </g>
    <g id="line2d_27"/>
    <g id="text_11">
     <!-- group_1 -->
     <g transform="translate(84.3 42.518438)scale(0.1 -0.1)">
      <defs>
       <path d="M 45.40625 27.984375 
Q 45.40625 37.75 41.375 43.109375 
Q 37.359375 48.484375 30.078125 48.484375 
Q 22.859375 48.484375 18.828125 43.109375 
Q 14.796875 37.75 14.796875 27.984375 
Q 14.796875 18.265625 18.828125 12.890625 
Q 22.859375 7.515625 30.078125 7.515625 
Q 37.359375 7.515625 41.375 12.890625 
Q 45.40625 18.265625 45.40625 27.984375 
z
M 54.390625 6.78125 
Q 54.390625 -7.171875 48.1875 -13.984375 
Q 42 -20.796875 29.203125 -20.796875 
Q 24.46875 -20.796875 20.265625 -20.09375 
Q 16.0625 -19.390625 12.109375 -17.921875 
L 12.109375 -9.1875 
Q 16.0625 -11.328125 19.921875 -12.34375 
Q 23.78125 -13.375 27.78125 -13.375 
Q 36.625 -13.375 41.015625 -8.765625 
Q 45.40625 -4.15625 45.40625 5.171875 
L 45.40625 9.625 
Q 42.625 4.78125 38.28125 2.390625 
Q 33.9375 0 27.875 0 
Q 17.828125 0 11.671875 7.65625 
Q 5.515625 15.328125 5.515625 27.984375 
Q 5.515625 40.671875 11.671875 48.328125 
Q 17.828125 56 27.875 56 
Q 33.9375 56 38.28125 53.609375 
Q 42.625 51.21875 45.40625 46.390625 
L 45.40625 54.6875 
L 54.390625 54.6875 
z
" id="DejaVuSans-103"/>
       <path d="M 41.109375 46.296875 
Q 39.59375 47.171875 37.8125 47.578125 
Q 36.03125 48 33.890625 48 
Q 26.265625 48 22.1875 43.046875 
Q 18.109375 38.09375 18.109375 28.8125 
L 18.109375 0 
L 9.078125 0 
L 9.078125 54.6875 
L 18.109375 54.6875 
L 18.109375 46.1875 
Q 20.953125 51.171875 25.484375 53.578125 
Q 30.03125 56 36.53125 56 
Q 37.453125 56 38.578125 55.875 
Q 39.703125 55.765625 41.0625 55.515625 
z
" id="DejaVuSans-114"/>
       <path d="M 30.609375 48.390625 
Q 23.390625 48.390625 19.1875 42.75 
Q 14.984375 37.109375 14.984375 27.296875 
Q 14.984375 17.484375 19.15625 11.84375 
Q 23.34375 6.203125 30.609375 6.203125 
Q 37.796875 6.203125 41.984375 11.859375 
Q 46.1875 17.53125 46.1875 27.296875 
Q 46.1875 37.015625 41.984375 42.703125 
Q 37.796875 48.390625 30.609375 48.390625 
z
M 30.609375 56 
Q 42.328125 56 49.015625 48.375 
Q 55.71875 40.765625 55.71875 27.296875 
Q 55.71875 13.875 49.015625 6.21875 
Q 42.328125 -1.421875 30.609375 -1.421875 
Q 18.84375 -1.421875 12.171875 6.21875 
Q 5.515625 13.875 5.515625 27.296875 
Q 5.515625 40.765625 12.171875 48.375 
Q 18.84375 56 30.609375 56 
z
" id="DejaVuSans-111"/>
       <path d="M 18.109375 8.203125 
L 18.109375 -20.796875 
L 9.078125 -20.796875 
L 9.078125 54.6875 
L 18.109375 54.6875 
L 18.109375 46.390625 
Q 20.953125 51.265625 25.265625 53.625 
Q 29.59375 56 35.59375 56 
Q 45.5625 56 51.78125 48.09375 
Q 58.015625 40.1875 58.015625 27.296875 
Q 58.015625 14.40625 51.78125 6.484375 
Q 45.5625 -1.421875 35.59375 -1.421875 
Q 29.59375 -1.421875 25.265625 0.953125 
Q 20.953125 3.328125 18.109375 8.203125 
z
M 48.6875 27.296875 
Q 48.6875 37.203125 44.609375 42.84375 
Q 40.53125 48.484375 33.40625 48.484375 
Q 26.265625 48.484375 22.1875 42.84375 
Q 18.109375 37.203125 18.109375 27.296875 
Q 18.109375 17.390625 22.1875 11.75 
Q 26.265625 6.109375 33.40625 6.109375 
Q 40.53125 6.109375 44.609375 11.75 
Q 48.6875 17.390625 48.6875 27.296875 
z
" id="DejaVuSans-112"/>
       <path d="M 50.984375 -16.609375 
L 50.984375 -23.578125 
L -0.984375 -23.578125 
L -0.984375 -16.609375 
z
" id="DejaVuSans-95"/>
      </defs>
      <use xlink:href="#DejaVuSans-103"/>
      <use x="63.476562" xlink:href="#DejaVuSans-114"/>
      <use x="102.339844" xlink:href="#DejaVuSans-111"/>
      <use x="163.521484" xlink:href="#DejaVuSans-117"/>
      <use x="226.900391" xlink:href="#DejaVuSans-112"/>
      <use x="290.376953" xlink:href="#DejaVuSans-95"/>
      <use x="340.376953" xlink:href="#DejaVuSans-49"/>
     </g>
    </g>
    <g id="line2d_28">
     <path d="M 56.3 53.974688 
L 76.3 53.974688 
" style="fill:none;stroke:#ff7f0e;stroke-linecap:square;stroke-width:1.5;"/>
    </g>
    <g id="line2d_29"/>
    <g id="text_12">
     <!-- group_2 -->
     <g transform="translate(84.3 57.474688)scale(0.1 -0.1)">
      <use xlink:href="#DejaVuSans-103"/>
      <use x="63.476562" xlink:href="#DejaVuSans-114"/>
      <use x="102.339844" xlink:href="#DejaVuSans-111"/>
      <use x="163.521484" xlink:href="#DejaVuSans-117"/>
      <use x="226.900391" xlink:href="#DejaVuSans-112"/>
      <use x="290.376953" xlink:href="#DejaVuSans-95"/>
      <use x="340.376953" xlink:href="#DejaVuSans-50"/>
     </g>
    </g>
    <g id="line2d_30">
     <path d="M 56.3 68.930938 
L 76.3 68.930938 
" style="fill:none;stroke:#2ca02c;stroke-linecap:square;stroke-width:1.5;"/>
    </g>
    <g id="line2d_31"/>
    <g id="text_13">
     <!-- group_3 -->
     <g transform="translate(84.3 72.430938)scale(0.1 -0.1)">
      <use xlink:href="#DejaVuSans-103"/>
      <use x="63.476562" xlink:href="#DejaVuSans-114"/>
      <use x="102.339844" xlink:href="#DejaVuSans-111"/>
      <use x="163.521484" xlink:href="#DejaVuSans-117"/>
      <use x="226.900391" xlink:href="#DejaVuSans-112"/>
      <use x="290.376953" xlink:href="#DejaVuSans-95"/>
      <use x="340.376953" xlink:href="#DejaVuSans-51"/>
     </g>
    </g>
    <g id="line2d_32">
     <path d="M 56.3 83.887188 
L 76.3 83.887188 
" style="fill:none;stroke:#d62728;stroke-linecap:square;stroke-width:1.5;"/>
    </g>
    <g id="line2d_33"/>
    <g id="text_14">
     <!-- group_4 -->
     <g transform="translate(84.3 87.387188)scale(0.1 -0.1)">
      <defs>
       <path d="M 37.796875 64.3125 
L 12.890625 25.390625 
L 37.796875 25.390625 
z
M 35.203125 72.90625 
L 47.609375 72.90625 
L 47.609375 25.390625 
L 58.015625 25.390625 
L 58.015625 17.1875 
L 47.609375 17.1875 
L 47.609375 0 
L 37.796875 0 
L 37.796875 17.1875 
L 4.890625 17.1875 
L 4.890625 26.703125 
z
" id="DejaVuSans-52"/>
      </defs>
      <use xlink:href="#DejaVuSans-103"/>
      <use x="63.476562" xlink:href="#DejaVuSans-114"/>
      <use x="102.339844" xlink:href="#DejaVuSans-111"/>
      <use x="163.521484" xlink:href="#DejaVuSans-117"/>
      <use x="226.900391" xlink:href="#DejaVuSans-112"/>
      <use x="290.376953" xlink:href="#DejaVuSans-95"/>
      <use x="340.376953" xlink:href="#DejaVuSans-52"/>
     </g>
    </g>
    <g id="line2d_34">
     <path d="M 56.3 98.843437 
L 76.3 98.843437 
" style="fill:none;stroke:#9467bd;stroke-linecap:square;stroke-width:1.5;"/>
    </g>
    <g id="line2d_35"/>
    <g id="text_15">
     <!-- group_5 -->
     <g transform="translate(84.3 102.343437)scale(0.1 -0.1)">
      <use xlink:href="#DejaVuSans-103"/>
      <use x="63.476562" xlink:href="#DejaVuSans-114"/>
      <use x="102.339844" xlink:href="#DejaVuSans-111"/>
      <use x="163.521484" xlink:href="#DejaVuSans-117"/>
      <use x="226.900391" xlink:href="#DejaVuSans-112"/>
      <use x="290.376953" xlink:href="#DejaVuSans-95"/>
      <use x="340.376953" xlink:href="#DejaVuSans-53"/>
     </g>
    </g>
    <g id="line2d_36">
     <path d="M 56.3 113.799688 
L 76.3 113.799688 
" style="fill:none;stroke:#8c564b;stroke-linecap:square;stroke-width:1.5;"/>
    </g>
    <g id="line2d_37"/>
    <g id="text_16">
     <!-- benchmark -->
     <g transform="translate(84.3 117.299688)scale(0.1 -0.1)">
      <defs>
       <path d="M 48.6875 27.296875 
Q 48.6875 37.203125 44.609375 42.84375 
Q 40.53125 48.484375 33.40625 48.484375 
Q 26.265625 48.484375 22.1875 42.84375 
Q 18.109375 37.203125 18.109375 27.296875 
Q 18.109375 17.390625 22.1875 11.75 
Q 26.265625 6.109375 33.40625 6.109375 
Q 40.53125 6.109375 44.609375 11.75 
Q 48.6875 17.390625 48.6875 27.296875 
z
M 18.109375 46.390625 
Q 20.953125 51.265625 25.265625 53.625 
Q 29.59375 56 35.59375 56 
Q 45.5625 56 51.78125 48.09375 
Q 58.015625 40.1875 58.015625 27.296875 
Q 58.015625 14.40625 51.78125 6.484375 
Q 45.5625 -1.421875 35.59375 -1.421875 
Q 29.59375 -1.421875 25.265625 0.953125 
Q 20.953125 3.328125 18.109375 8.203125 
L 18.109375 0 
L 9.078125 0 
L 9.078125 75.984375 
L 18.109375 75.984375 
z
" id="DejaVuSans-98"/>
       <path d="M 48.78125 52.59375 
L 48.78125 44.1875 
Q 44.96875 46.296875 41.140625 47.34375 
Q 37.3125 48.390625 33.40625 48.390625 
Q 24.65625 48.390625 19.8125 42.84375 
Q 14.984375 37.3125 14.984375 27.296875 
Q 14.984375 17.28125 19.8125 11.734375 
Q 24.65625 6.203125 33.40625 6.203125 
Q 37.3125 6.203125 41.140625 7.25 
Q 44.96875 8.296875 48.78125 10.40625 
L 48.78125 2.09375 
Q 45.015625 0.34375 40.984375 -0.53125 
Q 36.96875 -1.421875 32.421875 -1.421875 
Q 20.0625 -1.421875 12.78125 6.34375 
Q 5.515625 14.109375 5.515625 27.296875 
Q 5.515625 40.671875 12.859375 48.328125 
Q 20.21875 56 33.015625 56 
Q 37.15625 56 41.109375 55.140625 
Q 45.0625 54.296875 48.78125 52.59375 
z
" id="DejaVuSans-99"/>
       <path d="M 54.890625 33.015625 
L 54.890625 0 
L 45.90625 0 
L 45.90625 32.71875 
Q 45.90625 40.484375 42.875 44.328125 
Q 39.84375 48.1875 33.796875 48.1875 
Q 26.515625 48.1875 22.3125 43.546875 
Q 18.109375 38.921875 18.109375 30.90625 
L 18.109375 0 
L 9.078125 0 
L 9.078125 75.984375 
L 18.109375 75.984375 
L 18.109375 46.1875 
Q 21.34375 51.125 25.703125 53.5625 
Q 30.078125 56 35.796875 56 
Q 45.21875 56 50.046875 50.171875 
Q 54.890625 44.34375 54.890625 33.015625 
z
" id="DejaVuSans-104"/>
       <path d="M 52 44.1875 
Q 55.375 50.25 60.0625 53.125 
Q 64.75 56 71.09375 56 
Q 79.640625 56 84.28125 50.015625 
Q 88.921875 44.046875 88.921875 33.015625 
L 88.921875 0 
L 79.890625 0 
L 79.890625 32.71875 
Q 79.890625 40.578125 77.09375 44.375 
Q 74.3125 48.1875 68.609375 48.1875 
Q 61.625 48.1875 57.5625 43.546875 
Q 53.515625 38.921875 53.515625 30.90625 
L 53.515625 0 
L 44.484375 0 
L 44.484375 32.71875 
Q 44.484375 40.625 41.703125 44.40625 
Q 38.921875 48.1875 33.109375 48.1875 
Q 26.21875 48.1875 22.15625 43.53125 
Q 18.109375 38.875 18.109375 30.90625 
L 18.109375 0 
L 9.078125 0 
L 9.078125 54.6875 
L 18.109375 54.6875 
L 18.109375 46.1875 
Q 21.1875 51.21875 25.484375 53.609375 
Q 29.78125 56 35.6875 56 
Q 41.65625 56 45.828125 52.96875 
Q 50 49.953125 52 44.1875 
z
" id="DejaVuSans-109"/>
       <path d="M 9.078125 75.984375 
L 18.109375 75.984375 
L 18.109375 31.109375 
L 44.921875 54.6875 
L 56.390625 54.6875 
L 27.390625 29.109375 
L 57.625 0 
L 45.90625 0 
L 18.109375 26.703125 
L 18.109375 0 
L 9.078125 0 
z
" id="DejaVuSans-107"/>
      </defs>
      <use xlink:href="#DejaVuSans-98"/>
      <use x="63.476562" xlink:href="#DejaVuSans-101"/>
      <use x="125" xlink:href="#DejaVuSans-110"/>
      <use x="188.378906" xlink:href="#DejaVuSans-99"/>
      <use x="243.359375" xlink:href="#DejaVuSans-104"/>
      <use x="306.738281" xlink:href="#DejaVuSans-109"/>
      <use x="404.150391" xlink:href="#DejaVuSans-97"/>
      <use x="465.429688" xlink:href="#DejaVuSans-114"/>
      <use x="506.542969" xlink:href="#DejaVuSans-107"/>
     </g>
    </g>
    <g id="line2d_38">
     <path d="M 56.3 128.477812 
L 76.3 128.477812 
" style="fill:none;stroke:#e377c2;stroke-linecap:square;stroke-width:1.5;"/>
    </g>
    <g id="line2d_39"/>
    <g id="text_17">
     <!-- long_excess -->
     <g transform="translate(84.3 131.977812)scale(0.1 -0.1)">
      <defs>
       <path d="M 54.890625 54.6875 
L 35.109375 28.078125 
L 55.90625 0 
L 45.3125 0 
L 29.390625 21.484375 
L 13.484375 0 
L 2.875 0 
L 24.125 28.609375 
L 4.6875 54.6875 
L 15.28125 54.6875 
L 29.78125 35.203125 
L 44.28125 54.6875 
z
" id="DejaVuSans-120"/>
       <path d="M 44.28125 53.078125 
L 44.28125 44.578125 
Q 40.484375 46.53125 36.375 47.5 
Q 32.28125 48.484375 27.875 48.484375 
Q 21.1875 48.484375 17.84375 46.4375 
Q 14.5 44.390625 14.5 40.28125 
Q 14.5 37.15625 16.890625 35.375 
Q 19.28125 33.59375 26.515625 31.984375 
L 29.59375 31.296875 
Q 39.15625 29.25 43.1875 25.515625 
Q 47.21875 21.78125 47.21875 15.09375 
Q 47.21875 7.46875 41.1875 3.015625 
Q 35.15625 -1.421875 24.609375 -1.421875 
Q 20.21875 -1.421875 15.453125 -0.5625 
Q 10.6875 0.296875 5.421875 2 
L 5.421875 11.28125 
Q 10.40625 8.6875 15.234375 7.390625 
Q 20.0625 6.109375 24.8125 6.109375 
Q 31.15625 6.109375 34.5625 8.28125 
Q 37.984375 10.453125 37.984375 14.40625 
Q 37.984375 18.0625 35.515625 20.015625 
Q 33.0625 21.96875 24.703125 23.78125 
L 21.578125 24.515625 
Q 13.234375 26.265625 9.515625 29.90625 
Q 5.8125 33.546875 5.8125 39.890625 
Q 5.8125 47.609375 11.28125 51.796875 
Q 16.75 56 26.8125 56 
Q 31.78125 56 36.171875 55.265625 
Q 40.578125 54.546875 44.28125 53.078125 
z
" id="DejaVuSans-115"/>
      </defs>
      <use xlink:href="#DejaVuSans-108"/>
      <use x="27.783203" xlink:href="#DejaVuSans-111"/>
      <use x="88.964844" xlink:href="#DejaVuSans-110"/>
      <use x="152.34375" xlink:href="#DejaVuSans-103"/>
      <use x="215.820312" xlink:href="#DejaVuSans-95"/>
      <use x="265.820312" xlink:href="#DejaVuSans-101"/>
      <use x="325.59375" xlink:href="#DejaVuSans-120"/>
      <use x="383.023438" xlink:href="#DejaVuSans-99"/>
      <use x="438.003906" xlink:href="#DejaVuSans-101"/>
      <use x="499.527344" xlink:href="#DejaVuSans-115"/>
      <use x="551.626953" xlink:href="#DejaVuSans-115"/>
     </g>
    </g>
    <g id="line2d_40">
     <path d="M 56.3 143.434062 
L 76.3 143.434062 
" style="fill:none;stroke:#7f7f7f;stroke-linecap:square;stroke-width:1.5;"/>
    </g>
    <g id="line2d_41"/>
    <g id="text_18">
     <!-- short_excess -->
     <g transform="translate(84.3 146.934062)scale(0.1 -0.1)">
      <use xlink:href="#DejaVuSans-115"/>
      <use x="52.099609" xlink:href="#DejaVuSans-104"/>
      <use x="115.478516" xlink:href="#DejaVuSans-111"/>
      <use x="176.660156" xlink:href="#DejaVuSans-114"/>
      <use x="217.773438" xlink:href="#DejaVuSans-116"/>
      <use x="256.982422" xlink:href="#DejaVuSans-95"/>
      <use x="306.982422" xlink:href="#DejaVuSans-101"/>
      <use x="366.755859" xlink:href="#DejaVuSans-120"/>
      <use x="424.185547" xlink:href="#DejaVuSans-99"/>
      <use x="479.166016" xlink:href="#DejaVuSans-101"/>
      <use x="540.689453" xlink:href="#DejaVuSans-115"/>
      <use x="592.789062" xlink:href="#DejaVuSans-115"/>
     </g>
    </g>
    <g id="line2d_42">
     <path d="M 56.3 158.390312 
L 76.3 158.390312 
" style="fill:none;stroke:#bcbd22;stroke-linecap:square;stroke-width:1.5;"/>
    </g>
    <g id="line2d_43"/>
    <g id="text_19">
     <!-- long_short -->
     <g transform="translate(84.3 161.890312)scale(0.1 -0.1)">
      <use xlink:href="#DejaVuSans-108"/>
      <use x="27.783203" xlink:href="#DejaVuSans-111"/>
      <use x="88.964844" xlink:href="#DejaVuSans-110"/>
      <use x="152.34375" xlink:href="#DejaVuSans-103"/>
      <use x="215.820312" xlink:href="#DejaVuSans-95"/>
      <use x="265.820312" xlink:href="#DejaVuSans-115"/>
      <use x="317.919922" xlink:href="#DejaVuSans-104"/>
      <use x="381.298828" xlink:href="#DejaVuSans-111"/>
      <use x="442.480469" xlink:href="#DejaVuSans-114"/>
      <use x="483.59375" xlink:href="#DejaVuSans-116"/>
     </g>
    </g>
   </g>
  </g>
 </g>
 <defs>
  <clipPath id="p98525048a4">
   <rect height="305.24" width="1093.9" x="47.3" y="25.92"/>
  </clipPath>
 </defs>
</svg>
