<?xml version="1.0" encoding="utf-8" standalone="no"?>
<!DOCTYPE svg PUBLIC "-//W3C//DTD SVG 1.1//EN"
  "http://www.w3.org/Graphics/SVG/1.1/DTD/svg11.dtd">
<!-- Created with matplotlib (https://matplotlib.org/) -->
<svg height="374.4pt" version="1.1" viewBox="0 0 1152 374.4" width="1152pt" xmlns="http://www.w3.org/2000/svg" xmlns:xlink="http://www.w3.org/1999/xlink">
 <metadata>
  <rdf:RDF xmlns:cc="http://creativecommons.org/ns#" xmlns:dc="http://purl.org/dc/elements/1.1/" xmlns:rdf="http://www.w3.org/1999/02/22-rdf-syntax-ns#">
   <cc:Work>
    <dc:type rdf:resource="http://purl.org/dc/dcmitype/StillImage"/>
    <dc:date>2023-10-11T16:59:17.047310</dc:date>
    <dc:format>image/svg+xml</dc:format>
    <dc:creator>
     <cc:Agent>
      <dc:title>Matplotlib v3.3.4, https://matplotlib.org/</dc:title>
     </cc:Agent>
    </dc:creator>
   </cc:Work>
  </rdf:RDF>
 </metadata>
 <defs>
  <style type="text/css">*{stroke-linecap:butt;stroke-linejoin:round;}</style>
 </defs>
 <g id="figure_1">
  <g id="patch_1">
   <path d="M 0 374.4 
L 1152 374.4 
L 1152 0 
L 0 0 
z
" style="fill:#ffffff;"/>
  </g>
  <g id="axes_1">
   <g id="patch_2">
    <path d="M 47.3 360.1 
L 1141.2 360.1 
L 1141.2 25.92 
L 47.3 25.92 
z
" style="fill:#ffffff;"/>
   </g>
   <g id="matplotlib.axis_1"/>
   <g id="matplotlib.axis_2">
    <g id="ytick_1">
     <g id="line2d_1">
      <path clip-path="url(#pa91da961df)" d="M 47.3 315.008646 
L 1141.2 315.008646 
" style="fill:none;stroke:#b0b0b0;stroke-linecap:square;stroke-width:0.8;"/>
     </g>
     <g id="line2d_2">
      <defs>
       <path d="M 0 0 
L -3.5 0 
" id="m3fd63e17e3" style="stroke:#000000;stroke-width:0.8;"/>
      </defs>
      <g>
       <use style="stroke:#000000;stroke-width:0.8;" x="47.3" xlink:href="#m3fd63e17e3" y="315.008646"/>
      </g>
     </g>
     <g id="text_1">
      <!-- 0.5 -->
      <g transform="translate(24.396875 318.807865)scale(0.1 -0.1)">
       <defs>
        <path d="M 31.78125 66.40625 
Q 24.171875 66.40625 20.328125 58.90625 
Q 16.5 51.421875 16.5 36.375 
Q 16.5 21.390625 20.328125 13.890625 
Q 24.171875 6.390625 31.78125 6.390625 
Q 39.453125 6.390625 43.28125 13.890625 
Q 47.125 21.390625 47.125 36.375 
Q 47.125 51.421875 43.28125 58.90625 
Q 39.453125 66.40625 31.78125 66.40625 
z
M 31.78125 74.21875 
Q 44.046875 74.21875 50.515625 64.515625 
Q 56.984375 54.828125 56.984375 36.375 
Q 56.984375 17.96875 50.515625 8.265625 
Q 44.046875 -1.421875 31.78125 -1.421875 
Q 19.53125 -1.421875 13.0625 8.265625 
Q 6.59375 17.96875 6.59375 36.375 
Q 6.59375 54.828125 13.0625 64.515625 
Q 19.53125 74.21875 31.78125 74.21875 
z
" id="DejaVuSans-48"/>
        <path d="M 10.6875 12.40625 
L 21 12.40625 
L 21 0 
L 10.6875 0 
z
" id="DejaVuSans-46"/>
        <path d="M 10.796875 72.90625 
L 49.515625 72.90625 
L 49.515625 64.59375 
L 19.828125 64.59375 
L 19.828125 46.734375 
Q 21.96875 47.46875 24.109375 47.828125 
Q 26.265625 48.1875 28.421875 48.1875 
Q 40.625 48.1875 47.75 41.5 
Q 54.890625 34.8125 54.890625 23.390625 
Q 54.890625 11.625 47.5625 5.09375 
Q 40.234375 -1.421875 26.90625 -1.421875 
Q 22.3125 -1.421875 17.546875 -0.640625 
Q 12.796875 0.140625 7.71875 1.703125 
L 7.71875 11.625 
Q 12.109375 9.234375 16.796875 8.0625 
Q 21.484375 6.890625 26.703125 6.890625 
Q 35.15625 6.890625 40.078125 11.328125 
Q 45.015625 15.765625 45.015625 23.390625 
Q 45.015625 31 40.078125 35.4375 
Q 35.15625 39.890625 26.703125 39.890625 
Q 22.75 39.890625 18.8125 39.015625 
Q 14.890625 38.140625 10.796875 36.28125 
z
" id="DejaVuSans-53"/>
       </defs>
       <use xlink:href="#DejaVuSans-48"/>
       <use x="63.623047" xlink:href="#DejaVuSans-46"/>
       <use x="95.410156" xlink:href="#DejaVuSans-53"/>
      </g>
     </g>
    </g>
    <g id="ytick_2">
     <g id="line2d_3">
      <path clip-path="url(#pa91da961df)" d="M 47.3 248.029365 
L 1141.2 248.029365 
" style="fill:none;stroke:#b0b0b0;stroke-linecap:square;stroke-width:0.8;"/>
     </g>
     <g id="line2d_4">
      <g>
       <use style="stroke:#000000;stroke-width:0.8;" x="47.3" xlink:href="#m3fd63e17e3" y="248.029365"/>
      </g>
     </g>
     <g id="text_2">
      <!-- 1.0 -->
      <g transform="translate(24.396875 251.828584)scale(0.1 -0.1)">
       <defs>
        <path d="M 12.40625 8.296875 
L 28.515625 8.296875 
L 28.515625 63.921875 
L 10.984375 60.40625 
L 10.984375 69.390625 
L 28.421875 72.90625 
L 38.28125 72.90625 
L 38.28125 8.296875 
L 54.390625 8.296875 
L 54.390625 0 
L 12.40625 0 
z
" id="DejaVuSans-49"/>
       </defs>
       <use xlink:href="#DejaVuSans-49"/>
       <use x="63.623047" xlink:href="#DejaVuSans-46"/>
       <use x="95.410156" xlink:href="#DejaVuSans-48"/>
      </g>
     </g>
    </g>
    <g id="ytick_3">
     <g id="line2d_5">
      <path clip-path="url(#pa91da961df)" d="M 47.3 181.050084 
L 1141.2 181.050084 
" style="fill:none;stroke:#b0b0b0;stroke-linecap:square;stroke-width:0.8;"/>
     </g>
     <g id="line2d_6">
      <g>
       <use style="stroke:#000000;stroke-width:0.8;" x="47.3" xlink:href="#m3fd63e17e3" y="181.050084"/>
      </g>
     </g>
     <g id="text_3">
      <!-- 1.5 -->
      <g transform="translate(24.396875 184.849303)scale(0.1 -0.1)">
       <use xlink:href="#DejaVuSans-49"/>
       <use x="63.623047" xlink:href="#DejaVuSans-46"/>
       <use x="95.410156" xlink:href="#DejaVuSans-53"/>
      </g>
     </g>
    </g>
    <g id="ytick_4">
     <g id="line2d_7">
      <path clip-path="url(#pa91da961df)" d="M 47.3 114.070803 
L 1141.2 114.070803 
" style="fill:none;stroke:#b0b0b0;stroke-linecap:square;stroke-width:0.8;"/>
     </g>
     <g id="line2d_8">
      <g>
       <use style="stroke:#000000;stroke-width:0.8;" x="47.3" xlink:href="#m3fd63e17e3" y="114.070803"/>
      </g>
     </g>
     <g id="text_4">
      <!-- 2.0 -->
      <g transform="translate(24.396875 117.870021)scale(0.1 -0.1)">
       <defs>
        <path d="M 19.1875 8.296875 
L 53.609375 8.296875 
L 53.609375 0 
L 7.328125 0 
L 7.328125 8.296875 
Q 12.9375 14.109375 22.625 23.890625 
Q 32.328125 33.6875 34.8125 36.53125 
Q 39.546875 41.84375 41.421875 45.53125 
Q 43.3125 49.21875 43.3125 52.78125 
Q 43.3125 58.59375 39.234375 62.25 
Q 35.15625 65.921875 28.609375 65.921875 
Q 23.96875 65.921875 18.8125 64.3125 
Q 13.671875 62.703125 7.8125 59.421875 
L 7.8125 69.390625 
Q 13.765625 71.78125 18.9375 73 
Q 24.125 74.21875 28.421875 74.21875 
Q 39.75 74.21875 46.484375 68.546875 
Q 53.21875 62.890625 53.21875 53.421875 
Q 53.21875 48.921875 51.53125 44.890625 
Q 49.859375 40.875 45.40625 35.40625 
Q 44.1875 33.984375 37.640625 27.21875 
Q 31.109375 20.453125 19.1875 8.296875 
z
" id="DejaVuSans-50"/>
       </defs>
       <use xlink:href="#DejaVuSans-50"/>
       <use x="63.623047" xlink:href="#DejaVuSans-46"/>
       <use x="95.410156" xlink:href="#DejaVuSans-48"/>
      </g>
     </g>
    </g>
    <g id="ytick_5">
     <g id="line2d_9">
      <path clip-path="url(#pa91da961df)" d="M 47.3 47.091522 
L 1141.2 47.091522 
" style="fill:none;stroke:#b0b0b0;stroke-linecap:square;stroke-width:0.8;"/>
     </g>
     <g id="line2d_10">
      <g>
       <use style="stroke:#000000;stroke-width:0.8;" x="47.3" xlink:href="#m3fd63e17e3" y="47.091522"/>
      </g>
     </g>
     <g id="text_5">
      <!-- 2.5 -->
      <g transform="translate(24.396875 50.89074)scale(0.1 -0.1)">
       <use xlink:href="#DejaVuSans-50"/>
       <use x="63.623047" xlink:href="#DejaVuSans-46"/>
       <use x="95.410156" xlink:href="#DejaVuSans-53"/>
      </g>
     </g>
    </g>
    <g id="text_6">
     <!-- net value -->
     <g transform="translate(18.317187 216.462344)rotate(-90)scale(0.1 -0.1)">
      <defs>
       <path d="M 54.890625 33.015625 
L 54.890625 0 
L 45.90625 0 
L 45.90625 32.71875 
Q 45.90625 40.484375 42.875 44.328125 
Q 39.84375 48.1875 33.796875 48.1875 
Q 26.515625 48.1875 22.3125 43.546875 
Q 18.109375 38.921875 18.109375 30.90625 
L 18.109375 0 
L 9.078125 0 
L 9.078125 54.6875 
L 18.109375 54.6875 
L 18.109375 46.1875 
Q 21.34375 51.125 25.703125 53.5625 
Q 30.078125 56 35.796875 56 
Q 45.21875 56 50.046875 50.171875 
Q 54.890625 44.34375 54.890625 33.015625 
z
" id="DejaVuSans-110"/>
       <path d="M 56.203125 29.59375 
L 56.203125 25.203125 
L 14.890625 25.203125 
Q 15.484375 15.921875 20.484375 11.0625 
Q 25.484375 6.203125 34.421875 6.203125 
Q 39.59375 6.203125 44.453125 7.46875 
Q 49.3125 8.734375 54.109375 11.28125 
L 54.109375 2.78125 
Q 49.265625 0.734375 44.1875 -0.34375 
Q 39.109375 -1.421875 33.890625 -1.421875 
Q 20.796875 -1.421875 13.15625 6.1875 
Q 5.515625 13.8125 5.515625 26.8125 
Q 5.515625 40.234375 12.765625 48.109375 
Q 20.015625 56 32.328125 56 
Q 43.359375 56 49.78125 48.890625 
Q 56.203125 41.796875 56.203125 29.59375 
z
M 47.21875 32.234375 
Q 47.125 39.59375 43.09375 43.984375 
Q 39.0625 48.390625 32.421875 48.390625 
Q 24.90625 48.390625 20.390625 44.140625 
Q 15.875 39.890625 15.1875 32.171875 
z
" id="DejaVuSans-101"/>
       <path d="M 18.3125 70.21875 
L 18.3125 54.6875 
L 36.8125 54.6875 
L 36.8125 47.703125 
L 18.3125 47.703125 
L 18.3125 18.015625 
Q 18.3125 11.328125 20.140625 9.421875 
Q 21.96875 7.515625 27.59375 7.515625 
L 36.8125 7.515625 
L 36.8125 0 
L 27.59375 0 
Q 17.1875 0 13.234375 3.875 
Q 9.28125 7.765625 9.28125 18.015625 
L 9.28125 47.703125 
L 2.6875 47.703125 
L 2.6875 54.6875 
L 9.28125 54.6875 
L 9.28125 70.21875 
z
" id="DejaVuSans-116"/>
       <path id="DejaVuSans-32"/>
       <path d="M 2.984375 54.6875 
L 12.5 54.6875 
L 29.59375 8.796875 
L 46.6875 54.6875 
L 56.203125 54.6875 
L 35.6875 0 
L 23.484375 0 
z
" id="DejaVuSans-118"/>
       <path d="M 34.28125 27.484375 
Q 23.390625 27.484375 19.1875 25 
Q 14.984375 22.515625 14.984375 16.5 
Q 14.984375 11.71875 18.140625 8.90625 
Q 21.296875 6.109375 26.703125 6.109375 
Q 34.1875 6.109375 38.703125 11.40625 
Q 43.21875 16.703125 43.21875 25.484375 
L 43.21875 27.484375 
z
M 52.203125 31.203125 
L 52.203125 0 
L 43.21875 0 
L 43.21875 8.296875 
Q 40.140625 3.328125 35.546875 0.953125 
Q 30.953125 -1.421875 24.3125 -1.421875 
Q 15.921875 -1.421875 10.953125 3.296875 
Q 6 8.015625 6 15.921875 
Q 6 25.140625 12.171875 29.828125 
Q 18.359375 34.515625 30.609375 34.515625 
L 43.21875 34.515625 
L 43.21875 35.40625 
Q 43.21875 41.609375 39.140625 45 
Q 35.0625 48.390625 27.6875 48.390625 
Q 23 48.390625 18.546875 47.265625 
Q 14.109375 46.140625 10.015625 43.890625 
L 10.015625 52.203125 
Q 14.9375 54.109375 19.578125 55.046875 
Q 24.21875 56 28.609375 56 
Q 40.484375 56 46.34375 49.84375 
Q 52.203125 43.703125 52.203125 31.203125 
z
" id="DejaVuSans-97"/>
       <path d="M 9.421875 75.984375 
L 18.40625 75.984375 
L 18.40625 0 
L 9.421875 0 
z
" id="DejaVuSans-108"/>
       <path d="M 8.5 21.578125 
L 8.5 54.6875 
L 17.484375 54.6875 
L 17.484375 21.921875 
Q 17.484375 14.15625 20.5 10.265625 
Q 23.53125 6.390625 29.59375 6.390625 
Q 36.859375 6.390625 41.078125 11.03125 
Q 45.3125 15.671875 45.3125 23.6875 
L 45.3125 54.6875 
L 54.296875 54.6875 
L 54.296875 0 
L 45.3125 0 
L 45.3125 8.40625 
Q 42.046875 3.421875 37.71875 1 
Q 33.40625 -1.421875 27.6875 -1.421875 
Q 18.265625 -1.421875 13.375 4.4375 
Q 8.5 10.296875 8.5 21.578125 
z
M 31.109375 56 
z
" id="DejaVuSans-117"/>
      </defs>
      <use xlink:href="#DejaVuSans-110"/>
      <use x="63.378906" xlink:href="#DejaVuSans-101"/>
      <use x="124.902344" xlink:href="#DejaVuSans-116"/>
      <use x="164.111328" xlink:href="#DejaVuSans-32"/>
      <use x="195.898438" xlink:href="#DejaVuSans-118"/>
      <use x="255.078125" xlink:href="#DejaVuSans-97"/>
      <use x="316.357422" xlink:href="#DejaVuSans-108"/>
      <use x="344.140625" xlink:href="#DejaVuSans-117"/>
      <use x="407.519531" xlink:href="#DejaVuSans-101"/>
     </g>
    </g>
   </g>
   <g id="line2d_11">
    <path clip-path="url(#pa91da961df)" d="M 97.022727 246.433425 
L 101.542975 250.13044 
L 106.063223 254.852606 
L 110.583471 246.010998 
L 124.144215 258.070047 
L 128.664463 255.632582 
L 133.184711 249.67751 
L 137.704959 250.595324 
L 142.225207 249.345947 
L 155.78595 259.591742 
L 160.306198 269.522418 
L 164.826446 270.999769 
L 169.346694 275.116369 
L 173.866942 281.158725 
L 187.427686 276.508449 
L 191.947934 275.941302 
L 196.468182 271.755948 
L 200.98843 275.286931 
L 205.508678 274.990046 
L 219.069421 284.287195 
L 223.589669 276.90687 
L 228.109917 277.486698 
L 232.630165 273.789186 
L 237.150413 273.030908 
L 250.711157 270.942022 
L 255.231405 264.355527 
L 259.751653 261.363478 
L 264.271901 267.217268 
L 268.792149 272.429643 
L 282.352893 272.857271 
L 286.87314 278.678327 
L 291.393388 279.640081 
L 295.913636 282.638036 
L 300.433884 279.236445 
L 318.514876 271.973279 
L 323.035124 280.969461 
L 327.555372 281.181031 
L 332.07562 283.102696 
L 345.636364 279.466188 
L 350.156612 279.570932 
L 354.67686 279.483598 
L 359.197107 270.730108 
L 363.717355 274.277334 
L 377.278099 276.474749 
L 381.798347 279.386093 
L 386.318595 279.974649 
L 390.838843 279.440692 
L 395.359091 288.203185 
L 408.919835 287.209402 
L 413.440083 289.230035 
L 417.960331 294.199027 
L 422.480579 294.066014 
L 427.000826 293.352749 
L 440.56157 289.360114 
L 445.081818 288.755433 
L 449.602066 286.965842 
L 454.122314 288.884943 
L 458.642562 285.552793 
L 472.203306 291.382609 
L 476.723554 290.023204 
L 481.243802 286.692949 
L 485.76405 280.781455 
L 490.284298 281.672146 
L 503.845041 279.743214 
L 508.365289 280.945376 
L 512.885537 280.5558 
L 517.405785 277.374146 
L 521.926033 276.100044 
L 535.486777 276.411419 
L 540.007025 270.363638 
L 544.527273 267.817482 
L 549.047521 268.688488 
L 553.567769 271.001746 
L 567.128512 273.614937 
L 571.64876 277.218896 
L 576.169008 274.01392 
L 580.689256 278.746219 
L 585.209504 274.327658 
L 598.770248 276.728449 
L 603.290496 275.392066 
L 607.810744 273.322527 
L 612.330992 270.309642 
L 616.85124 272.491407 
L 630.411983 282.862162 
L 634.932231 287.382723 
L 639.452479 295.035861 
L 643.972727 296.480755 
L 648.492975 298.662735 
L 662.053719 299.846265 
L 666.573967 292.064902 
L 671.094215 283.927818 
L 675.614463 288.914303 
L 680.134711 293.216914 
L 693.695455 293.216415 
L 698.215702 294.246518 
L 702.73595 291.021359 
L 707.256198 291.84596 
L 711.776446 287.750892 
L 725.33719 284.214586 
L 729.857438 278.652889 
L 734.377686 287.098824 
L 738.897934 283.582278 
L 743.418182 281.162928 
L 756.978926 280.30868 
L 761.499174 276.931814 
L 766.019421 283.995604 
L 770.539669 284.182625 
L 775.059917 282.581233 
L 788.620661 279.233697 
L 793.140909 280.277787 
L 797.661157 278.118652 
L 802.181405 274.070289 
L 806.701653 273.6349 
L 820.262397 274.125283 
L 824.782645 272.188399 
L 829.302893 270.036639 
L 833.82314 269.417254 
L 838.343388 272.429138 
L 851.904132 280.609737 
L 856.42438 282.707704 
L 860.944628 277.231707 
L 865.464876 279.827616 
L 869.985124 273.864456 
L 883.545868 270.096524 
L 888.066116 267.611245 
L 892.586364 264.882585 
L 897.106612 275.72481 
L 901.62686 268.459601 
L 915.187603 271.6775 
L 919.707851 268.674848 
L 924.228099 262.729315 
L 928.748347 266.882395 
L 933.268595 258.037766 
L 946.829339 261.755941 
L 951.349587 264.953524 
L 955.869835 257.284709 
L 960.390083 248.572514 
L 964.910331 249.234655 
L 978.471074 258.609071 
L 982.991322 250.911389 
L 987.51157 244.71084 
L 992.031818 246.459133 
L 996.552066 237.986473 
L 1010.11281 248.721648 
L 1014.633058 256.012274 
L 1019.153306 252.375392 
L 1023.673554 250.615362 
L 1028.193802 247.384319 
L 1041.754545 246.927619 
L 1046.274793 251.140852 
L 1050.795041 253.824921 
L 1055.315289 260.649802 
L 1059.835537 260.167324 
L 1077.916529 259.609801 
L 1082.436777 262.003247 
L 1086.957025 261.544292 
L 1091.477273 256.011158 
L 1091.477273 256.011158 
" style="fill:none;stroke:#1f77b4;stroke-linecap:square;stroke-width:1.5;"/>
   </g>
   <g id="line2d_12">
    <path clip-path="url(#pa91da961df)" d="M 97.022727 249.937453 
L 101.542975 256.962756 
L 106.063223 249.433617 
L 110.583471 247.157019 
L 124.144215 248.981135 
L 128.664463 245.560967 
L 133.184711 250.569978 
L 137.704959 252.394316 
L 142.225207 247.570958 
L 155.78595 241.4035 
L 160.306198 247.956544 
L 164.826446 249.891748 
L 169.346694 248.292819 
L 173.866942 245.754959 
L 187.427686 245.612651 
L 191.947934 246.338087 
L 196.468182 237.103413 
L 200.98843 250.172926 
L 205.508678 247.026511 
L 219.069421 249.190736 
L 223.589669 250.345902 
L 228.109917 251.24576 
L 232.630165 249.492973 
L 237.150413 238.516542 
L 250.711157 246.040964 
L 255.231405 241.074876 
L 259.751653 245.564343 
L 264.271901 244.805798 
L 268.792149 247.757465 
L 282.352893 240.825645 
L 286.87314 248.639803 
L 291.393388 245.304684 
L 295.913636 242.923007 
L 300.433884 234.481246 
L 313.994628 226.481505 
L 318.514876 213.242813 
L 323.035124 202.361377 
L 327.555372 194.695605 
L 332.07562 196.385813 
L 345.636364 203.996255 
L 350.156612 201.336871 
L 354.67686 208.743473 
L 359.197107 204.910696 
L 363.717355 210.903318 
L 377.278099 216.074803 
L 381.798347 224.696563 
L 386.318595 222.810885 
L 390.838843 218.226201 
L 395.359091 226.71238 
L 408.919835 233.142867 
L 413.440083 223.690574 
L 417.960331 227.203262 
L 422.480579 239.379937 
L 427.000826 242.173565 
L 440.56157 239.046344 
L 445.081818 240.536015 
L 449.602066 242.650323 
L 454.122314 246.465523 
L 458.642562 254.981625 
L 472.203306 251.52527 
L 481.243802 252.209828 
L 485.76405 253.72909 
L 490.284298 260.233263 
L 503.845041 255.754187 
L 508.365289 247.490607 
L 512.885537 247.978278 
L 517.405785 250.413174 
L 521.926033 259.748953 
L 535.486777 258.90889 
L 540.007025 258.780854 
L 544.527273 257.554267 
L 549.047521 250.846545 
L 553.567769 241.119165 
L 567.128512 242.224548 
L 571.64876 243.494524 
L 576.169008 243.104576 
L 580.689256 243.587288 
L 585.209504 239.338254 
L 598.770248 241.325183 
L 603.290496 245.296216 
L 607.810744 250.752361 
L 612.330992 246.461873 
L 616.85124 251.340243 
L 630.411983 257.58111 
L 634.932231 252.637228 
L 639.452479 249.139598 
L 643.972727 252.966567 
L 648.492975 249.078866 
L 662.053719 245.429938 
L 666.573967 239.951835 
L 671.094215 239.237332 
L 675.614463 237.115166 
L 680.134711 233.233045 
L 693.695455 229.89207 
L 698.215702 238.138312 
L 702.73595 226.940971 
L 707.256198 223.962524 
L 711.776446 212.627259 
L 725.33719 225.823388 
L 729.857438 232.363504 
L 734.377686 231.815129 
L 738.897934 235.517515 
L 743.418182 231.010547 
L 756.978926 224.135761 
L 761.499174 219.020459 
L 766.019421 231.295915 
L 770.539669 230.102058 
L 775.059917 224.188705 
L 788.620661 221.809927 
L 793.140909 214.88483 
L 797.661157 210.432806 
L 802.181405 212.410145 
L 806.701653 217.121834 
L 820.262397 207.743808 
L 824.782645 222.909981 
L 829.302893 220.842747 
L 833.82314 212.762275 
L 838.343388 220.603794 
L 851.904132 229.165856 
L 856.42438 228.448908 
L 860.944628 229.167898 
L 865.464876 225.874565 
L 869.985124 228.638261 
L 883.545868 228.123206 
L 888.066116 230.407945 
L 892.586364 227.599173 
L 897.106612 225.908046 
L 901.62686 214.566087 
L 915.187603 206.491876 
L 919.707851 207.766955 
L 924.228099 204.089042 
L 928.748347 198.30754 
L 933.268595 213.2212 
L 946.829339 219.555111 
L 951.349587 231.557445 
L 955.869835 224.029006 
L 960.390083 231.522406 
L 964.910331 221.599315 
L 978.471074 214.040535 
L 982.991322 203.515999 
L 987.51157 208.087054 
L 992.031818 194.691143 
L 996.552066 192.321296 
L 1010.11281 192.999717 
L 1014.633058 179.025344 
L 1019.153306 187.4197 
L 1023.673554 189.707833 
L 1028.193802 192.67792 
L 1041.754545 204.703181 
L 1046.274793 206.977281 
L 1050.795041 216.386335 
L 1055.315289 204.89805 
L 1059.835537 214.252474 
L 1073.396281 212.589843 
L 1077.916529 223.627296 
L 1082.436777 224.159969 
L 1086.957025 215.384488 
L 1091.477273 225.785219 
L 1091.477273 225.785219 
" style="fill:none;stroke:#ff7f0e;stroke-linecap:square;stroke-width:1.5;"/>
   </g>
   <g id="line2d_13">
    <path clip-path="url(#pa91da961df)" d="M 97.022727 239.01151 
L 101.542975 240.936729 
L 106.063223 245.948331 
L 110.583471 243.128714 
L 124.144215 249.356215 
L 128.664463 242.504156 
L 133.184711 240.452673 
L 137.704959 227.251437 
L 142.225207 232.256817 
L 155.78595 223.481552 
L 160.306198 228.81794 
L 164.826446 230.99832 
L 169.346694 223.023873 
L 173.866942 217.357074 
L 187.427686 207.814876 
L 191.947934 206.849575 
L 196.468182 206.615465 
L 200.98843 220.506317 
L 205.508678 226.723505 
L 219.069421 241.006119 
L 223.589669 248.386802 
L 228.109917 254.647685 
L 232.630165 243.083291 
L 237.150413 252.612049 
L 250.711157 256.720087 
L 255.231405 249.431667 
L 259.751653 249.082974 
L 264.271901 245.413474 
L 268.792149 251.217458 
L 282.352893 249.873669 
L 286.87314 251.586624 
L 291.393388 247.448606 
L 295.913636 241.864154 
L 300.433884 243.94447 
L 313.994628 231.484297 
L 318.514876 230.385831 
L 323.035124 238.466449 
L 327.555372 236.548404 
L 332.07562 237.907368 
L 345.636364 245.97306 
L 350.156612 234.224618 
L 354.67686 223.36109 
L 359.197107 230.976785 
L 363.717355 232.347171 
L 377.278099 235.281887 
L 381.798347 228.12725 
L 386.318595 233.154007 
L 390.838843 234.718371 
L 395.359091 244.620206 
L 408.919835 253.549202 
L 413.440083 250.439688 
L 417.960331 248.131513 
L 422.480579 252.268129 
L 427.000826 250.777704 
L 440.56157 239.933908 
L 445.081818 237.00942 
L 449.602066 247.78981 
L 454.122314 235.576366 
L 458.642562 227.924262 
L 472.203306 232.675647 
L 476.723554 228.362728 
L 481.243802 232.346599 
L 490.284298 246.813659 
L 503.845041 253.058335 
L 508.365289 254.620742 
L 512.885537 250.533386 
L 517.405785 249.387976 
L 521.926033 255.279756 
L 535.486777 251.933155 
L 544.527273 264.650818 
L 549.047521 271.74639 
L 553.567769 275.25326 
L 567.128512 276.750079 
L 571.64876 274.967358 
L 576.169008 268.962031 
L 580.689256 266.745976 
L 585.209504 272.992683 
L 598.770248 281.007889 
L 603.290496 281.519147 
L 607.810744 281.510896 
L 612.330992 283.415115 
L 616.85124 277.354415 
L 630.411983 272.366046 
L 634.932231 264.923762 
L 639.452479 258.476123 
L 643.972727 257.058431 
L 648.492975 258.028821 
L 662.053719 264.766445 
L 666.573967 262.023762 
L 671.094215 257.617506 
L 675.614463 262.419888 
L 680.134711 254.904921 
L 693.695455 260.52133 
L 698.215702 258.31544 
L 702.73595 260.068695 
L 707.256198 264.209727 
L 711.776446 258.584951 
L 725.33719 253.11102 
L 729.857438 241.237576 
L 734.377686 253.74173 
L 738.897934 254.335496 
L 743.418182 252.357758 
L 756.978926 243.022836 
L 761.499174 244.94167 
L 766.019421 246.067649 
L 770.539669 247.596909 
L 775.059917 247.982825 
L 788.620661 249.26688 
L 793.140909 249.920897 
L 797.661157 246.690055 
L 802.181405 243.183089 
L 806.701653 244.00705 
L 820.262397 240.475972 
L 824.782645 243.561382 
L 829.302893 248.968322 
L 833.82314 240.879491 
L 838.343388 233.67593 
L 851.904132 236.378578 
L 856.42438 222.703048 
L 860.944628 212.745457 
L 865.464876 204.215372 
L 869.985124 207.159127 
L 883.545868 206.313291 
L 888.066116 205.876488 
L 892.586364 204.288368 
L 897.106612 215.805061 
L 901.62686 213.412013 
L 915.187603 200.066202 
L 919.707851 190.40292 
L 924.228099 188.180667 
L 928.748347 179.172168 
L 933.268595 171.156208 
L 946.829339 177.388949 
L 951.349587 166.823161 
L 955.869835 184.313497 
L 960.390083 189.639207 
L 964.910331 188.506924 
L 978.471074 176.635612 
L 982.991322 172.512968 
L 987.51157 172.946321 
L 992.031818 171.558577 
L 996.552066 164.491399 
L 1010.11281 166.223861 
L 1014.633058 157.435764 
L 1019.153306 162.988647 
L 1023.673554 164.356201 
L 1028.193802 158.438946 
L 1041.754545 168.550636 
L 1046.274793 166.99765 
L 1050.795041 175.611901 
L 1055.315289 181.930096 
L 1059.835537 172.030727 
L 1073.396281 172.537979 
L 1077.916529 171.600502 
L 1082.436777 168.890803 
L 1086.957025 156.322662 
L 1091.477273 155.186403 
L 1091.477273 155.186403 
" style="fill:none;stroke:#2ca02c;stroke-linecap:square;stroke-width:1.5;"/>
   </g>
   <g id="line2d_14">
    <path clip-path="url(#pa91da961df)" d="M 97.022727 247.944977 
L 101.542975 255.059953 
L 106.063223 263.749846 
L 110.583471 259.822305 
L 124.144215 253.477391 
L 128.664463 243.611744 
L 133.184711 251.017836 
L 137.704959 250.412744 
L 142.225207 261.821405 
L 155.78595 265.753252 
L 160.306198 265.311824 
L 164.826446 265.022073 
L 169.346694 272.268795 
L 173.866942 276.809309 
L 187.427686 278.384994 
L 191.947934 271.905389 
L 196.468182 275.387267 
L 205.508678 271.947175 
L 219.069421 275.446615 
L 223.589669 270.229077 
L 228.109917 269.086017 
L 232.630165 266.601641 
L 237.150413 262.810972 
L 250.711157 267.649495 
L 255.231405 259.220382 
L 259.751653 261.424582 
L 264.271901 262.231631 
L 268.792149 260.299857 
L 282.352893 260.443692 
L 286.87314 264.808178 
L 291.393388 270.752373 
L 295.913636 273.261984 
L 300.433884 282.072713 
L 313.994628 283.392506 
L 318.514876 290.362306 
L 323.035124 290.688327 
L 327.555372 282.668078 
L 332.07562 284.846717 
L 345.636364 284.879222 
L 350.156612 280.811242 
L 354.67686 287.439688 
L 359.197107 281.877813 
L 363.717355 284.861631 
L 377.278099 282.608762 
L 381.798347 283.033554 
L 386.318595 283.775611 
L 390.838843 293.115731 
L 395.359091 299.339675 
L 408.919835 298.591019 
L 413.440083 291.00795 
L 417.960331 292.021738 
L 422.480579 285.658267 
L 427.000826 289.50458 
L 440.56157 290.916738 
L 445.081818 293.648152 
L 449.602066 297.63957 
L 454.122314 301.945842 
L 458.642562 301.627541 
L 472.203306 303.764382 
L 476.723554 310.038434 
L 481.243802 310.708607 
L 485.76405 313.144723 
L 490.284298 308.533555 
L 503.845041 304.897994 
L 508.365289 308.678121 
L 517.405785 306.866141 
L 521.926033 304.648638 
L 535.486777 304.111879 
L 540.007025 303.475205 
L 544.527273 306.353215 
L 549.047521 308.817456 
L 553.567769 309.570454 
L 567.128512 310.513891 
L 571.64876 307.943361 
L 576.169008 302.297731 
L 580.689256 300.80551 
L 585.209504 308.390096 
L 598.770248 308.434731 
L 603.290496 307.892516 
L 607.810744 309.254823 
L 612.330992 312.302539 
L 616.85124 315.811985 
L 630.411983 317.451806 
L 634.932231 323.202195 
L 639.452479 323.10247 
L 648.492975 321.697227 
L 662.053719 324.877157 
L 666.573967 321.421349 
L 671.094215 325.487849 
L 675.614463 327.968726 
L 680.134711 326.959657 
L 693.695455 329.475801 
L 698.215702 328.99374 
L 702.73595 329.045845 
L 707.256198 327.382299 
L 711.776446 329.235025 
L 725.33719 331.076988 
L 729.857438 331.162717 
L 734.377686 332.046041 
L 738.897934 331.560199 
L 743.418182 332.045503 
L 756.978926 330.578031 
L 761.499174 330.35516 
L 766.019421 328.626074 
L 770.539669 328.368103 
L 775.059917 327.444313 
L 788.620661 324.158337 
L 793.140909 323.539528 
L 797.661157 324.175462 
L 802.181405 322.611463 
L 806.701653 326.459301 
L 820.262397 325.615018 
L 824.782645 323.62879 
L 829.302893 323.897879 
L 833.82314 321.1668 
L 838.343388 319.711064 
L 851.904132 321.16642 
L 856.42438 324.566556 
L 860.944628 326.238929 
L 865.464876 325.752019 
L 869.985124 321.26965 
L 883.545868 319.619154 
L 888.066116 317.427895 
L 892.586364 317.066999 
L 897.106612 314.826483 
L 901.62686 316.354048 
L 915.187603 316.010856 
L 919.707851 313.736908 
L 924.228099 315.563388 
L 928.748347 319.926035 
L 933.268595 318.838605 
L 946.829339 321.162261 
L 951.349587 323.297681 
L 955.869835 318.877501 
L 960.390083 321.84873 
L 964.910331 319.536353 
L 978.471074 322.840898 
L 987.51157 322.958799 
L 992.031818 325.78302 
L 996.552066 329.251037 
L 1014.633058 328.375191 
L 1019.153306 324.970457 
L 1023.673554 326.970072 
L 1041.754545 325.797196 
L 1046.274793 324.830813 
L 1050.795041 324.497566 
L 1055.315289 324.787586 
L 1059.835537 323.516188 
L 1073.396281 319.21252 
L 1077.916529 319.94804 
L 1082.436777 321.052961 
L 1086.957025 319.565693 
L 1091.477273 323.430215 
L 1091.477273 323.430215 
" style="fill:none;stroke:#d62728;stroke-linecap:square;stroke-width:1.5;"/>
   </g>
   <g id="line2d_15">
    <path clip-path="url(#pa91da961df)" d="M 97.022727 239.297687 
L 101.542975 242.118552 
L 106.063223 242.831388 
L 110.583471 248.270956 
L 124.144215 247.323266 
L 128.664463 235.322538 
L 133.184711 234.133297 
L 137.704959 244.199915 
L 142.225207 252.967325 
L 155.78595 257.278806 
L 160.306198 255.489993 
L 164.826446 255.286659 
L 169.346694 260.47276 
L 173.866942 261.140423 
L 187.427686 258.951085 
L 191.947934 259.324264 
L 196.468182 250.534817 
L 200.98843 246.998787 
L 205.508678 249.985616 
L 219.069421 258.130208 
L 223.589669 256.374939 
L 228.109917 253.700371 
L 232.630165 254.914119 
L 237.150413 256.507978 
L 250.711157 254.748455 
L 255.231405 247.887267 
L 259.751653 250.634745 
L 264.271901 252.351798 
L 268.792149 244.188055 
L 282.352893 246.821232 
L 286.87314 243.841681 
L 291.393388 245.431528 
L 295.913636 241.350983 
L 300.433884 245.459925 
L 313.994628 240.301456 
L 318.514876 246.927492 
L 323.035124 258.891157 
L 327.555372 260.328993 
L 332.07562 268.188203 
L 345.636364 261.470549 
L 350.156612 262.814713 
L 354.67686 264.628443 
L 359.197107 267.460508 
L 363.717355 262.41748 
L 377.278099 258.715003 
L 381.798347 257.196558 
L 386.318595 259.564686 
L 390.838843 259.694213 
L 395.359091 258.227607 
L 408.919835 255.331566 
L 413.440083 255.002732 
L 417.960331 262.235791 
L 422.480579 257.774189 
L 427.000826 261.629135 
L 440.56157 252.204862 
L 445.081818 248.42103 
L 449.602066 256.338194 
L 454.122314 257.903731 
L 458.642562 248.942868 
L 472.203306 245.858557 
L 476.723554 252.259349 
L 485.76405 245.924394 
L 490.284298 238.116806 
L 503.845041 234.391639 
L 508.365289 230.827626 
L 512.885537 223.233674 
L 517.405785 223.24752 
L 521.926033 224.511085 
L 535.486777 222.770144 
L 540.007025 214.73243 
L 544.527273 212.024191 
L 549.047521 217.27197 
L 553.567769 225.632829 
L 567.128512 231.444783 
L 571.64876 227.164865 
L 576.169008 218.538761 
L 580.689256 228.366422 
L 585.209504 224.077201 
L 598.770248 223.361192 
L 603.290496 208.371339 
L 607.810744 207.024071 
L 612.330992 203.184943 
L 616.85124 204.439316 
L 630.411983 207.408756 
L 634.932231 210.127615 
L 639.452479 195.074656 
L 643.972727 186.144983 
L 648.492975 180.656849 
L 662.053719 178.910523 
L 666.573967 194.339793 
L 671.094215 200.719562 
L 675.614463 200.703267 
L 680.134711 212.269265 
L 693.695455 200.610692 
L 698.215702 190.697281 
L 702.73595 183.282888 
L 707.256198 196.264146 
L 711.776446 198.213543 
L 725.33719 201.62368 
L 729.857438 199.306277 
L 734.377686 212.609076 
L 738.897934 208.526051 
L 743.418182 200.260886 
L 756.978926 197.062344 
L 761.499174 192.056131 
L 766.019421 202.239328 
L 770.539669 195.341867 
L 775.059917 181.263072 
L 788.620661 171.286395 
L 797.661157 189.894109 
L 802.181405 195.879043 
L 806.701653 193.643281 
L 820.262397 183.931874 
L 824.782645 189.148457 
L 829.302893 194.573781 
L 833.82314 192.460707 
L 838.343388 186.771047 
L 851.904132 189.233842 
L 856.42438 205.543443 
L 860.944628 214.582063 
L 865.464876 221.059478 
L 869.985124 215.844634 
L 883.545868 201.066535 
L 888.066116 207.865073 
L 892.586364 219.157425 
L 897.106612 218.41307 
L 901.62686 213.374874 
L 915.187603 225.874029 
L 919.707851 217.170515 
L 924.228099 213.73404 
L 928.748347 209.605582 
L 933.268595 194.955808 
L 946.829339 188.566716 
L 951.349587 181.840163 
L 955.869835 168.840743 
L 960.390083 156.391474 
L 964.910331 152.232151 
L 978.471074 157.374343 
L 982.991322 154.316917 
L 987.51157 176.114761 
L 992.031818 176.707375 
L 996.552066 182.324384 
L 1010.11281 181.944451 
L 1014.633058 188.735145 
L 1019.153306 191.406048 
L 1023.673554 190.289945 
L 1028.193802 190.475715 
L 1041.754545 196.790296 
L 1046.274793 209.389089 
L 1050.795041 218.041091 
L 1055.315289 219.417825 
L 1059.835537 217.881122 
L 1073.396281 221.819653 
L 1077.916529 218.584958 
L 1082.436777 216.781218 
L 1086.957025 220.839272 
L 1091.477273 216.767655 
L 1091.477273 216.767655 
" style="fill:none;stroke:#9467bd;stroke-linecap:square;stroke-width:1.5;"/>
   </g>
   <g id="line2d_16">
    <path clip-path="url(#pa91da961df)" d="M 97.022727 253.598166 
L 101.542975 257.02972 
L 106.063223 258.127603 
L 110.583471 251.063206 
L 124.144215 258.927231 
L 128.664463 258.576891 
L 133.184711 256.295895 
L 137.704959 267.697409 
L 142.225207 265.239138 
L 155.78595 272.93232 
L 160.306198 282.419032 
L 164.826446 273.480025 
L 169.346694 263.375074 
L 173.866942 256.059096 
L 187.427686 260.980048 
L 191.947934 270.717017 
L 196.468182 266.617062 
L 200.98843 267.997993 
L 205.508678 276.614761 
L 219.069421 276.716405 
L 223.589669 286.519531 
L 228.109917 278.704099 
L 232.630165 283.686924 
L 237.150413 280.491703 
L 250.711157 284.313826 
L 255.231405 283.921801 
L 259.751653 283.005662 
L 264.271901 289.244426 
L 268.792149 280.534241 
L 282.352893 274.951594 
L 291.393388 256.348004 
L 295.913636 253.887975 
L 300.433884 243.079561 
L 313.994628 254.511928 
L 318.514876 262.262905 
L 323.035124 273.15244 
L 327.555372 276.954492 
L 332.07562 279.293013 
L 345.636364 283.989271 
L 350.156612 277.546105 
L 354.67686 280.538293 
L 359.197107 284.983116 
L 363.717355 284.154771 
L 377.278099 291.180674 
L 381.798347 285.692339 
L 386.318595 293.886118 
L 390.838843 285.306994 
L 395.359091 280.042818 
L 408.919835 286.185711 
L 413.440083 295.660126 
L 417.960331 290.213508 
L 422.480579 286.416665 
L 427.000826 282.039365 
L 440.56157 276.616748 
L 445.081818 285.593432 
L 449.602066 288.322057 
L 454.122314 295.518048 
L 458.642562 289.238547 
L 472.203306 286.951382 
L 476.723554 290.165555 
L 481.243802 298.180577 
L 485.76405 301.348791 
L 490.284298 304.168204 
L 503.845041 300.594626 
L 508.365289 298.355375 
L 512.885537 291.878657 
L 517.405785 292.379395 
L 521.926033 299.196916 
L 535.486777 295.665965 
L 540.007025 291.16367 
L 544.527273 290.050579 
L 549.047521 285.068178 
L 553.567769 285.188444 
L 567.128512 284.748339 
L 571.64876 286.157515 
L 576.169008 295.253371 
L 580.689256 302.055244 
L 585.209504 309.546068 
L 598.770248 307.569703 
L 603.290496 310.332763 
L 607.810744 310.209936 
L 612.330992 304.359076 
L 616.85124 308.251507 
L 630.411983 309.573115 
L 634.932231 305.871978 
L 639.452479 310.000535 
L 643.972727 316.090957 
L 648.492975 318.861906 
L 662.053719 323.139056 
L 666.573967 318.081612 
L 671.094215 314.143444 
L 675.614463 312.333303 
L 680.134711 307.158513 
L 693.695455 302.613792 
L 698.215702 307.589438 
L 702.73595 301.748279 
L 707.256198 301.116918 
L 711.776446 296.144318 
L 725.33719 289.343937 
L 729.857438 292.716114 
L 734.377686 299.678388 
L 738.897934 304.157095 
L 743.418182 305.291747 
L 756.978926 300.413643 
L 761.499174 294.528376 
L 766.019421 303.152725 
L 770.539669 302.983272 
L 775.059917 304.288255 
L 788.620661 308.606681 
L 793.140909 314.185632 
L 797.661157 316.387644 
L 802.181405 310.576644 
L 806.701653 313.101705 
L 820.262397 312.842822 
L 824.782645 310.035269 
L 829.302893 311.997711 
L 833.82314 305.393685 
L 838.343388 298.309525 
L 851.904132 302.463617 
L 856.42438 302.50738 
L 865.464876 308.956632 
L 869.985124 315.720981 
L 883.545868 314.268882 
L 888.066116 314.232598 
L 892.586364 320.310539 
L 897.106612 323.041041 
L 901.62686 318.22784 
L 915.187603 321.548951 
L 919.707851 325.841389 
L 924.228099 325.959828 
L 928.748347 320.517813 
L 933.268595 323.688992 
L 946.829339 321.681928 
L 951.349587 318.526481 
L 955.869835 321.856461 
L 960.390083 319.111865 
L 964.910331 320.77452 
L 978.471074 319.154742 
L 982.991322 317.476722 
L 987.51157 317.015149 
L 992.031818 322.339151 
L 996.552066 318.339074 
L 1010.11281 320.620503 
L 1014.633058 324.468013 
L 1019.153306 329.750928 
L 1023.673554 328.801333 
L 1028.193802 326.912525 
L 1041.754545 332.237349 
L 1046.274793 332.117021 
L 1050.795041 334.845002 
L 1055.315289 333.476228 
L 1059.835537 336.635635 
L 1073.396281 334.903743 
L 1077.916529 335.970337 
L 1082.436777 331.950885 
L 1086.957025 335.578361 
L 1091.477273 337.053569 
L 1091.477273 337.053569 
" style="fill:none;stroke:#8c564b;stroke-linecap:square;stroke-width:1.5;"/>
   </g>
   <g id="line2d_17">
    <path clip-path="url(#pa91da961df)" d="M 97.022727 233.728886 
L 101.542975 232.697229 
L 106.063223 232.146412 
L 110.583471 246.54989 
L 124.144215 237.454883 
L 128.664463 224.986198 
L 133.184711 226.614994 
L 137.704959 223.099626 
L 142.225207 236.627164 
L 155.78595 231.906112 
L 160.306198 216.697786 
L 164.826446 231.271369 
L 169.346694 251.476148 
L 173.866942 260.24314 
L 187.427686 253.280095 
L 191.947934 243.313925 
L 196.468182 238.486926 
L 200.98843 232.909178 
L 205.508678 224.938546 
L 219.069421 234.47706 
L 223.589669 218.650035 
L 228.109917 228.54373 
L 232.630165 222.592727 
L 237.150413 229.773039 
L 250.711157 221.906554 
L 255.231405 213.916922 
L 259.751653 218.93052 
L 264.271901 210.784648 
L 268.792149 216.08213 
L 282.352893 228.3816 
L 286.87314 238.497538 
L 291.393388 251.479674 
L 295.913636 250.135209 
L 300.433884 265.112558 
L 313.994628 251.077611 
L 318.514876 249.239899 
L 323.035124 248.924695 
L 327.555372 245.830523 
L 332.07562 251.594856 
L 345.636364 237.934789 
L 350.156612 249.012587 
L 354.67686 247.22672 
L 359.197107 244.574409 
L 377.278099 225.07238 
L 381.798347 232.623414 
L 386.318595 222.748452 
L 390.838843 238.423256 
L 395.359091 244.518504 
L 408.919835 233.018189 
L 413.440083 217.898975 
L 417.960331 237.598206 
L 422.480579 238.192297 
L 427.000826 249.241009 
L 440.56157 246.048787 
L 445.081818 230.504673 
L 449.602066 235.195813 
L 454.122314 225.747296 
L 472.203306 226.041227 
L 476.723554 228.099649 
L 481.243802 210.921834 
L 485.76405 200.364142 
L 490.284298 183.592046 
L 503.845041 187.565687 
L 508.365289 188.219812 
L 512.885537 193.491237 
L 517.405785 192.460198 
L 521.926033 179.549341 
L 535.486777 185.945133 
L 540.007025 186.273405 
L 544.527273 185.502919 
L 549.047521 202.217763 
L 553.567769 211.119689 
L 567.128512 218.247982 
L 571.64876 211.219995 
L 576.169008 185.496869 
L 580.689256 181.902065 
L 585.209504 157.564647 
L 598.770248 162.669788 
L 603.290496 133.801719 
L 607.810744 132.301215 
L 612.330992 147.175274 
L 616.85124 137.048706 
L 630.411983 136.755083 
L 634.932231 153.108194 
L 639.452479 120.646477 
L 643.972727 86.050505 
L 648.492975 65.313327 
L 662.053719 41.11 
L 666.573967 96.303869 
L 671.094215 123.621735 
L 675.614463 130.491914 
L 680.134711 165.221582 
L 693.695455 163.496316 
L 698.215702 137.858007 
L 702.73595 147.562651 
L 707.256198 164.722051 
L 711.776446 180.361771 
L 725.33719 200.075641 
L 729.857438 191.116867 
L 734.377686 190.130055 
L 738.897934 175.065598 
L 743.418182 162.189493 
L 756.978926 172.300693 
L 761.499174 181.752265 
L 766.019421 172.74275 
L 770.539669 165.163186 
L 775.059917 145.226533 
L 793.140909 111.87757 
L 797.661157 115.668016 
L 802.181405 147.556695 
L 806.701653 136.451076 
L 820.262397 124.713489 
L 824.782645 141.936137 
L 829.302893 142.142536 
L 833.82314 162.069258 
L 838.343388 175.807397 
L 851.904132 168.172974 
L 856.42438 186.146947 
L 860.944628 188.379942 
L 865.464876 187.539874 
L 869.985124 163.228549 
L 883.545868 148.564005 
L 888.066116 157.460515 
L 892.586364 151.88068 
L 897.106612 140.64177 
L 901.62686 152.914855 
L 915.187603 157.963992 
L 919.707851 129.564013 
L 924.228099 123.76845 
L 928.748347 142.513381 
L 933.268595 109.807592 
L 946.829339 109.880185 
L 951.349587 114.654918 
L 955.869835 83.264247 
L 960.390083 79.451444 
L 964.910331 65.873492 
L 978.471074 81.313245 
L 982.991322 85.250281 
L 987.51157 115.783892 
L 992.031818 94.736868 
L 996.552066 121.860002 
L 1010.11281 112.040991 
L 1014.633058 104.279961 
L 1019.153306 82.61202 
L 1023.673554 86.301019 
L 1028.193802 97.088253 
L 1041.754545 78.937232 
L 1046.274793 100.286402 
L 1050.795041 98.998172 
L 1055.315289 109.591043 
L 1059.835537 89.275884 
L 1073.396281 107.478869 
L 1077.916529 95.716558 
L 1082.436777 117.561182 
L 1086.957025 104.886596 
L 1091.477273 89.077148 
L 1091.477273 89.077148 
" style="fill:none;stroke:#e377c2;stroke-linecap:square;stroke-width:1.5;"/>
   </g>
   <g id="line2d_18">
    <path clip-path="url(#pa91da961df)" d="M 97.022727 255.194106 
L 101.542975 255.124921 
L 106.063223 251.69624 
L 110.583471 253.326146 
L 124.144215 249.643938 
L 128.664463 251.870376 
L 133.184711 255.597808 
L 137.704959 266.185899 
L 142.225207 264.796248 
L 155.78595 263.466261 
L 160.306198 264.160109 
L 164.826446 252.034077 
L 169.346694 235.111896 
L 173.866942 217.748512 
L 187.427686 231.741312 
L 191.947934 244.638846 
L 196.468182 244.99877 
L 200.98843 242.250385 
L 205.508678 253.202281 
L 219.069421 242.136201 
L 223.589669 265.723931 
L 228.109917 255.564551 
L 232.630165 266.136893 
L 237.150413 263.183124 
L 250.711157 269.934734 
L 255.231405 276.131238 
L 259.751653 277.834846 
L 264.271901 279.345072 
L 268.792149 265.043586 
L 282.352893 258.152084 
L 286.87314 240.661505 
L 291.393388 228.185929 
L 295.913636 220.669345 
L 300.433884 212.581421 
L 313.994628 235.609451 
L 318.514876 246.879125 
L 323.035124 248.119688 
L 327.555372 252.515864 
L 332.07562 252.930394 
L 345.636364 263.578317 
L 350.156612 255.672204 
L 354.67686 259.398778 
L 359.197107 275.238448 
L 363.717355 270.923405 
L 377.278099 276.633681 
L 381.798347 267.359176 
L 386.318595 276.455375 
L 390.838843 266.731268 
L 395.359091 250.607172 
L 408.919835 259.91593 
L 413.440083 269.385794 
L 417.960331 256.24943 
L 427.000826 246.310128 
L 440.56157 245.060758 
L 445.081818 257.619601 
L 449.602066 263.527317 
L 454.122314 270.235721 
L 458.642562 266.119803 
L 472.203306 256.257936 
L 476.723554 262.396574 
L 481.243802 277.166183 
L 485.76405 287.631289 
L 490.284298 290.099904 
L 503.845041 287.647171 
L 508.365289 283.942487 
L 512.885537 276.727618 
L 517.405785 280.614285 
L 521.926033 289.561548 
L 535.486777 285.34787 
L 540.007025 285.843284 
L 544.527273 286.858054 
L 549.047521 280.976894 
L 553.567769 279.039873 
L 567.128512 276.147881 
L 571.64876 274.161968 
L 576.169008 287.694886 
L 580.689256 290.956819 
L 585.209504 303.383692 
L 598.770248 299.486356 
L 603.290496 303.596987 
L 607.810744 304.984559 
L 612.330992 300.842777 
L 616.85124 303.326256 
L 630.411983 297.285851 
L 634.932231 289.093929 
L 639.452479 286.617825 
L 643.972727 293.101741 
L 648.492975 294.571174 
L 662.053719 299.252515 
L 666.573967 299.979882 
L 671.094215 302.347074 
L 675.614463 296.172354 
L 680.134711 285.829848 
L 693.695455 279.990284 
L 698.215702 285.200528 
L 702.73595 281.159243 
L 711.776446 277.805258 
L 725.33719 273.461611 
L 729.857438 283.585258 
L 734.377686 283.216849 
L 738.897934 292.251686 
L 743.418182 295.766109 
L 756.978926 291.012668 
L 761.499174 287.470533 
L 766.019421 290.435668 
L 770.539669 290.06415 
L 775.059917 293.087621 
L 788.620661 301.022292 
L 793.140909 306.355166 
L 797.661157 310.417045 
L 802.181405 306.866672 
L 806.701653 309.825989 
L 820.262397 309.228206 
L 824.782645 307.580428 
L 829.302893 311.068 
L 833.82314 304.768624 
L 838.343388 295.560611 
L 851.904132 293.397765 
L 856.42438 291.61319 
L 860.944628 300.197102 
L 865.464876 301.689901 
L 869.985124 313.814358 
L 883.545868 314.696221 
L 888.066116 316.154818 
L 892.586364 323.630894 
L 897.106612 320.811402 
L 901.62686 319.998783 
L 915.187603 321.470601 
L 919.707851 327.415887 
L 924.228099 330.394396 
L 928.748347 323.586411 
L 933.268595 331.086815 
L 946.829339 327.807539 
L 951.349587 323.531675 
L 955.869835 330.429434 
L 960.390083 331.67819 
L 964.910331 332.758861 
L 978.471074 327.979876 
L 982.991322 329.907135 
L 987.51157 331.998172 
L 992.031818 335.45779 
L 996.552066 335.246314 
L 1010.11281 333.437176 
L 1014.633058 333.825052 
L 1019.153306 339.639019 
L 1023.673554 339.444238 
L 1028.193802 338.979731 
L 1041.754545 343.283791 
L 1046.274793 341.982798 
L 1050.795041 343.350486 
L 1055.315289 340.171161 
L 1059.835537 343.060826 
L 1073.396281 341.697022 
L 1077.916529 342.666917 
L 1082.436777 338.463352 
L 1086.957025 341.785188 
L 1091.477273 344.91 
L 1091.477273 344.91 
" style="fill:none;stroke:#7f7f7f;stroke-linecap:square;stroke-width:1.5;"/>
   </g>
   <g id="line2d_19">
    <path clip-path="url(#pa91da961df)" d="M 97.022727 240.893627 
L 101.542975 239.834838 
L 106.063223 235.468434 
L 110.583471 251.385494 
L 124.144215 238.877463 
L 128.664463 228.939066 
L 133.184711 234.91119 
L 137.704959 243.904599 
L 142.225207 254.003798 
L 155.78595 248.394639 
L 160.306198 235.639234 
L 164.826446 233.48155 
L 169.346694 234.052004 
L 173.866942 226.500762 
L 187.427686 230.854993 
L 191.947934 232.126008 
L 196.468182 227.302291 
L 200.98843 218.186381 
L 205.508678 222.266488 
L 219.069421 218.243011 
L 223.589669 228.291785 
L 228.109917 224.171186 
L 232.630165 231.24826 
L 237.150413 234.195367 
L 250.711157 234.956396 
L 255.231405 235.748873 
L 259.751653 242.464721 
L 264.271901 237.517644 
L 268.792149 221.858531 
L 282.352893 224.293379 
L 286.87314 212.405768 
L 291.393388 212.778679 
L 295.913636 202.765962 
L 300.433884 214.138521 
L 313.994628 216.798737 
L 318.514876 227.197732 
L 323.035124 228.251466 
L 327.555372 229.72521 
L 332.07562 236.658875 
L 345.636364 233.424512 
L 350.156612 234.929697 
L 354.67686 237.293217 
L 359.197107 253.141315 
L 363.717355 243.359757 
L 377.278099 236.238993 
L 381.798347 230.422156 
L 386.318595 232.428945 
L 390.838843 233.370003 
L 395.359091 218.888547 
L 408.919835 216.800226 
L 413.440083 212.849632 
L 417.960331 213.423074 
L 422.480579 207.39826 
L 427.000826 214.232967 
L 440.56157 208.654145 
L 445.081818 204.732125 
L 449.602066 218.641356 
L 454.122314 217.377572 
L 458.642562 211.381466 
L 472.203306 197.112677 
L 476.723554 208.579288 
L 481.243802 210.638586 
L 485.76405 217.170446 
L 490.284298 206.262387 
L 503.845041 205.091389 
L 508.365289 198.739967 
L 512.885537 190.240528 
L 517.405785 196.271854 
L 521.926033 200.011998 
L 535.486777 197.465095 
L 544.527273 199.932849 
L 549.047521 204.16506 
L 553.567769 209.56057 
L 567.128512 211.910119 
L 571.64876 201.418871 
L 576.169008 196.882072 
L 580.689256 199.899033 
L 585.209504 202.608063 
L 598.770248 197.794593 
L 603.290496 182.72729 
L 607.810744 185.049632 
L 612.330992 186.188694 
L 616.85124 183.737137 
L 630.411983 168.275867 
L 634.932231 161.857984 
L 639.452479 124.76964 
L 643.972727 108.206955 
L 648.492975 93.548385 
L 662.053719 86.949566 
L 666.573967 137.315062 
L 671.094215 167.773901 
L 675.614463 156.861581 
L 680.134711 160.817536 
L 693.695455 145.625809 
L 698.215702 129.964384 
L 702.73595 129.459762 
L 707.256198 143.668109 
L 711.776446 156.996218 
L 725.33719 169.61415 
L 729.857438 178.966053 
L 734.377686 177.156328 
L 738.897934 179.809648 
L 743.418182 175.146844 
L 756.978926 173.258752 
L 761.499174 174.540238 
L 766.019421 171.714129 
L 770.539669 163.244017 
L 775.059917 150.325618 
L 788.620661 146.612512 
L 793.140909 154.540261 
L 797.661157 169.947163 
L 802.181405 184.817978 
L 806.701653 183.24481 
L 820.262397 172.097769 
L 824.782645 181.395037 
L 829.302893 190.969547 
L 833.82314 189.87267 
L 838.343388 178.965177 
L 851.904132 166.367029 
L 856.42438 180.149313 
L 860.944628 201.621592 
L 865.464876 204.130922 
L 869.985124 208.749133 
L 883.545868 199.377004 
L 888.066116 210.295097 
L 892.586364 225.525894 
L 897.106612 210.324578 
L 901.62686 216.773875 
L 915.187603 224.338161 
L 919.707851 219.840251 
L 924.228099 224.967322 
L 928.748347 215.646388 
L 933.268595 214.291554 
L 946.829339 203.532535 
L 951.349587 192.580402 
L 955.869835 192.689699 
L 960.390083 194.858398 
L 964.910331 190.479565 
L 978.471074 181.242311 
L 982.991322 191.034416 
L 987.51157 218.349844 
L 992.031818 216.736868 
L 996.552066 231.589332 
L 1010.11281 220.091067 
L 1014.633058 216.729908 
L 1019.153306 223.784855 
L 1023.673554 225.006637 
L 1028.193802 229.019641 
L 1041.754545 234.582354 
L 1046.274793 240.011848 
L 1050.795041 244.216439 
L 1055.315289 238.036819 
L 1059.835537 237.248508 
L 1073.396281 241.17855 
L 1077.916529 238.534682 
L 1082.436777 234.145531 
L 1086.957025 238.34257 
L 1091.477273 241.312207 
L 1091.477273 241.312207 
" style="fill:none;stroke:#bcbd22;stroke-linecap:square;stroke-width:1.5;"/>
   </g>
   <g id="patch_3">
    <path d="M 47.3 360.1 
L 47.3 25.92 
" style="fill:none;stroke:#000000;stroke-linecap:square;stroke-linejoin:miter;stroke-width:0.8;"/>
   </g>
   <g id="patch_4">
    <path d="M 1141.2 360.1 
L 1141.2 25.92 
" style="fill:none;stroke:#000000;stroke-linecap:square;stroke-linejoin:miter;stroke-width:0.8;"/>
   </g>
   <g id="patch_5">
    <path d="M 47.3 360.1 
L 1141.2 360.1 
" style="fill:none;stroke:#000000;stroke-linecap:square;stroke-linejoin:miter;stroke-width:0.8;"/>
   </g>
   <g id="patch_6">
    <path d="M 47.3 25.92 
L 1141.2 25.92 
" style="fill:none;stroke:#000000;stroke-linecap:square;stroke-linejoin:miter;stroke-width:0.8;"/>
   </g>
   <g id="text_7">
    <!-- Net Value: (2010-02-02 ~ 2010-10-08) -->
    <g transform="translate(478.1425 19.92)scale(0.12 -0.12)">
     <defs>
      <path d="M 9.8125 72.90625 
L 23.09375 72.90625 
L 55.421875 11.921875 
L 55.421875 72.90625 
L 64.984375 72.90625 
L 64.984375 0 
L 51.703125 0 
L 19.390625 60.984375 
L 19.390625 0 
L 9.8125 0 
z
" id="DejaVuSans-78"/>
      <path d="M 28.609375 0 
L 0.78125 72.90625 
L 11.078125 72.90625 
L 34.1875 11.53125 
L 57.328125 72.90625 
L 67.578125 72.90625 
L 39.796875 0 
z
" id="DejaVuSans-86"/>
      <path d="M 11.71875 12.40625 
L 22.015625 12.40625 
L 22.015625 0 
L 11.71875 0 
z
M 11.71875 51.703125 
L 22.015625 51.703125 
L 22.015625 39.3125 
L 11.71875 39.3125 
z
" id="DejaVuSans-58"/>
      <path d="M 31 75.875 
Q 24.46875 64.65625 21.28125 53.65625 
Q 18.109375 42.671875 18.109375 31.390625 
Q 18.109375 20.125 21.3125 9.0625 
Q 24.515625 -2 31 -13.1875 
L 23.1875 -13.1875 
Q 15.875 -1.703125 12.234375 9.375 
Q 8.59375 20.453125 8.59375 31.390625 
Q 8.59375 42.28125 12.203125 53.3125 
Q 15.828125 64.359375 23.1875 75.875 
z
" id="DejaVuSans-40"/>
      <path d="M 4.890625 31.390625 
L 31.203125 31.390625 
L 31.203125 23.390625 
L 4.890625 23.390625 
z
" id="DejaVuSans-45"/>
      <path d="M 73.1875 39.890625 
L 73.1875 31.203125 
Q 68.0625 27.34375 63.6875 25.6875 
Q 59.328125 24.03125 54.59375 24.03125 
Q 49.21875 24.03125 42.09375 26.90625 
Q 41.546875 27.09375 41.3125 27.203125 
Q 40.96875 27.34375 40.234375 27.59375 
Q 32.671875 30.609375 28.078125 30.609375 
Q 23.78125 30.609375 19.578125 28.734375 
Q 15.375 26.859375 10.59375 22.796875 
L 10.59375 31.5 
Q 15.71875 35.359375 20.09375 37.03125 
Q 24.46875 38.71875 29.203125 38.71875 
Q 34.578125 38.71875 41.75 35.796875 
Q 42.234375 35.59375 42.484375 35.5 
Q 42.875 35.359375 43.5625 35.109375 
Q 51.125 32.078125 55.71875 32.078125 
Q 59.90625 32.078125 64.03125 33.9375 
Q 68.171875 35.796875 73.1875 39.890625 
z
" id="DejaVuSans-126"/>
      <path d="M 31.78125 34.625 
Q 24.75 34.625 20.71875 30.859375 
Q 16.703125 27.09375 16.703125 20.515625 
Q 16.703125 13.921875 20.71875 10.15625 
Q 24.75 6.390625 31.78125 6.390625 
Q 38.8125 6.390625 42.859375 10.171875 
Q 46.921875 13.96875 46.921875 20.515625 
Q 46.921875 27.09375 42.890625 30.859375 
Q 38.875 34.625 31.78125 34.625 
z
M 21.921875 38.8125 
Q 15.578125 40.375 12.03125 44.71875 
Q 8.5 49.078125 8.5 55.328125 
Q 8.5 64.0625 14.71875 69.140625 
Q 20.953125 74.21875 31.78125 74.21875 
Q 42.671875 74.21875 48.875 69.140625 
Q 55.078125 64.0625 55.078125 55.328125 
Q 55.078125 49.078125 51.53125 44.71875 
Q 48 40.375 41.703125 38.8125 
Q 48.828125 37.15625 52.796875 32.3125 
Q 56.78125 27.484375 56.78125 20.515625 
Q 56.78125 9.90625 50.3125 4.234375 
Q 43.84375 -1.421875 31.78125 -1.421875 
Q 19.734375 -1.421875 13.25 4.234375 
Q 6.78125 9.90625 6.78125 20.515625 
Q 6.78125 27.484375 10.78125 32.3125 
Q 14.796875 37.15625 21.921875 38.8125 
z
M 18.3125 54.390625 
Q 18.3125 48.734375 21.84375 45.5625 
Q 25.390625 42.390625 31.78125 42.390625 
Q 38.140625 42.390625 41.71875 45.5625 
Q 45.3125 48.734375 45.3125 54.390625 
Q 45.3125 60.0625 41.71875 63.234375 
Q 38.140625 66.40625 31.78125 66.40625 
Q 25.390625 66.40625 21.84375 63.234375 
Q 18.3125 60.0625 18.3125 54.390625 
z
" id="DejaVuSans-56"/>
      <path d="M 8.015625 75.875 
L 15.828125 75.875 
Q 23.140625 64.359375 26.78125 53.3125 
Q 30.421875 42.28125 30.421875 31.390625 
Q 30.421875 20.453125 26.78125 9.375 
Q 23.140625 -1.703125 15.828125 -13.1875 
L 8.015625 -13.1875 
Q 14.5 -2 17.703125 9.0625 
Q 20.90625 20.125 20.90625 31.390625 
Q 20.90625 42.671875 17.703125 53.65625 
Q 14.5 64.65625 8.015625 75.875 
z
" id="DejaVuSans-41"/>
     </defs>
     <use xlink:href="#DejaVuSans-78"/>
     <use x="74.804688" xlink:href="#DejaVuSans-101"/>
     <use x="136.328125" xlink:href="#DejaVuSans-116"/>
     <use x="175.537109" xlink:href="#DejaVuSans-32"/>
     <use x="207.324219" xlink:href="#DejaVuSans-86"/>
     <use x="267.982422" xlink:href="#DejaVuSans-97"/>
     <use x="329.261719" xlink:href="#DejaVuSans-108"/>
     <use x="357.044922" xlink:href="#DejaVuSans-117"/>
     <use x="420.423828" xlink:href="#DejaVuSans-101"/>
     <use x="481.947266" xlink:href="#DejaVuSans-58"/>
     <use x="515.638672" xlink:href="#DejaVuSans-32"/>
     <use x="547.425781" xlink:href="#DejaVuSans-40"/>
     <use x="586.439453" xlink:href="#DejaVuSans-50"/>
     <use x="650.0625" xlink:href="#DejaVuSans-48"/>
     <use x="713.685547" xlink:href="#DejaVuSans-49"/>
     <use x="777.308594" xlink:href="#DejaVuSans-48"/>
     <use x="840.931641" xlink:href="#DejaVuSans-45"/>
     <use x="877.015625" xlink:href="#DejaVuSans-48"/>
     <use x="940.638672" xlink:href="#DejaVuSans-50"/>
     <use x="1004.261719" xlink:href="#DejaVuSans-45"/>
     <use x="1040.345703" xlink:href="#DejaVuSans-48"/>
     <use x="1103.96875" xlink:href="#DejaVuSans-50"/>
     <use x="1167.591797" xlink:href="#DejaVuSans-32"/>
     <use x="1199.378906" xlink:href="#DejaVuSans-126"/>
     <use x="1283.167969" xlink:href="#DejaVuSans-32"/>
     <use x="1314.955078" xlink:href="#DejaVuSans-50"/>
     <use x="1378.578125" xlink:href="#DejaVuSans-48"/>
     <use x="1442.201172" xlink:href="#DejaVuSans-49"/>
     <use x="1505.824219" xlink:href="#DejaVuSans-48"/>
     <use x="1569.447266" xlink:href="#DejaVuSans-45"/>
     <use x="1605.53125" xlink:href="#DejaVuSans-49"/>
     <use x="1669.154297" xlink:href="#DejaVuSans-48"/>
     <use x="1732.777344" xlink:href="#DejaVuSans-45"/>
     <use x="1768.861328" xlink:href="#DejaVuSans-48"/>
     <use x="1832.484375" xlink:href="#DejaVuSans-56"/>
     <use x="1896.107422" xlink:href="#DejaVuSans-41"/>
    </g>
   </g>
   <g id="legend_1">
    <g id="patch_7">
     <path d="M 54.3 168.248125 
L 150.789062 168.248125 
Q 152.789062 168.248125 152.789062 166.248125 
L 152.789062 32.92 
Q 152.789062 30.92 150.789062 30.92 
L 54.3 30.92 
Q 52.3 30.92 52.3 32.92 
L 52.3 166.248125 
Q 52.3 168.248125 54.3 168.248125 
z
" style="fill:#ffffff;opacity:0.8;stroke:#cccccc;stroke-linejoin:miter;"/>
    </g>
    <g id="line2d_20">
     <path d="M 56.3 39.018438 
L 76.3 39.018438 
" style="fill:none;stroke:#1f77b4;stroke-linecap:square;stroke-width:1.5;"/>
    </g>
    <g id="line2d_21"/>
    <g id="text_8">
     <!-- group_1 -->
     <g transform="translate(84.3 42.518438)scale(0.1 -0.1)">
      <defs>
       <path d="M 45.40625 27.984375 
Q 45.40625 37.75 41.375 43.109375 
Q 37.359375 48.484375 30.078125 48.484375 
Q 22.859375 48.484375 18.828125 43.109375 
Q 14.796875 37.75 14.796875 27.984375 
Q 14.796875 18.265625 18.828125 12.890625 
Q 22.859375 7.515625 30.078125 7.515625 
Q 37.359375 7.515625 41.375 12.890625 
Q 45.40625 18.265625 45.40625 27.984375 
z
M 54.390625 6.78125 
Q 54.390625 -7.171875 48.1875 -13.984375 
Q 42 -20.796875 29.203125 -20.796875 
Q 24.46875 -20.796875 20.265625 -20.09375 
Q 16.0625 -19.390625 12.109375 -17.921875 
L 12.109375 -9.1875 
Q 16.0625 -11.328125 19.921875 -12.34375 
Q 23.78125 -13.375 27.78125 -13.375 
Q 36.625 -13.375 41.015625 -8.765625 
Q 45.40625 -4.15625 45.40625 5.171875 
L 45.40625 9.625 
Q 42.625 4.78125 38.28125 2.390625 
Q 33.9375 0 27.875 0 
Q 17.828125 0 11.671875 7.65625 
Q 5.515625 15.328125 5.515625 27.984375 
Q 5.515625 40.671875 11.671875 48.328125 
Q 17.828125 56 27.875 56 
Q 33.9375 56 38.28125 53.609375 
Q 42.625 51.21875 45.40625 46.390625 
L 45.40625 54.6875 
L 54.390625 54.6875 
z
" id="DejaVuSans-103"/>
       <path d="M 41.109375 46.296875 
Q 39.59375 47.171875 37.8125 47.578125 
Q 36.03125 48 33.890625 48 
Q 26.265625 48 22.1875 43.046875 
Q 18.109375 38.09375 18.109375 28.8125 
L 18.109375 0 
L 9.078125 0 
L 9.078125 54.6875 
L 18.109375 54.6875 
L 18.109375 46.1875 
Q 20.953125 51.171875 25.484375 53.578125 
Q 30.03125 56 36.53125 56 
Q 37.453125 56 38.578125 55.875 
Q 39.703125 55.765625 41.0625 55.515625 
z
" id="DejaVuSans-114"/>
       <path d="M 30.609375 48.390625 
Q 23.390625 48.390625 19.1875 42.75 
Q 14.984375 37.109375 14.984375 27.296875 
Q 14.984375 17.484375 19.15625 11.84375 
Q 23.34375 6.203125 30.609375 6.203125 
Q 37.796875 6.203125 41.984375 11.859375 
Q 46.1875 17.53125 46.1875 27.296875 
Q 46.1875 37.015625 41.984375 42.703125 
Q 37.796875 48.390625 30.609375 48.390625 
z
M 30.609375 56 
Q 42.328125 56 49.015625 48.375 
Q 55.71875 40.765625 55.71875 27.296875 
Q 55.71875 13.875 49.015625 6.21875 
Q 42.328125 -1.421875 30.609375 -1.421875 
Q 18.84375 -1.421875 12.171875 6.21875 
Q 5.515625 13.875 5.515625 27.296875 
Q 5.515625 40.765625 12.171875 48.375 
Q 18.84375 56 30.609375 56 
z
" id="DejaVuSans-111"/>
       <path d="M 18.109375 8.203125 
L 18.109375 -20.796875 
L 9.078125 -20.796875 
L 9.078125 54.6875 
L 18.109375 54.6875 
L 18.109375 46.390625 
Q 20.953125 51.265625 25.265625 53.625 
Q 29.59375 56 35.59375 56 
Q 45.5625 56 51.78125 48.09375 
Q 58.015625 40.1875 58.015625 27.296875 
Q 58.015625 14.40625 51.78125 6.484375 
Q 45.5625 -1.421875 35.59375 -1.421875 
Q 29.59375 -1.421875 25.265625 0.953125 
Q 20.953125 3.328125 18.109375 8.203125 
z
M 48.6875 27.296875 
Q 48.6875 37.203125 44.609375 42.84375 
Q 40.53125 48.484375 33.40625 48.484375 
Q 26.265625 48.484375 22.1875 42.84375 
Q 18.109375 37.203125 18.109375 27.296875 
Q 18.109375 17.390625 22.1875 11.75 
Q 26.265625 6.109375 33.40625 6.109375 
Q 40.53125 6.109375 44.609375 11.75 
Q 48.6875 17.390625 48.6875 27.296875 
z
" id="DejaVuSans-112"/>
       <path d="M 50.984375 -16.609375 
L 50.984375 -23.578125 
L -0.984375 -23.578125 
L -0.984375 -16.609375 
z
" id="DejaVuSans-95"/>
      </defs>
      <use xlink:href="#DejaVuSans-103"/>
      <use x="63.476562" xlink:href="#DejaVuSans-114"/>
      <use x="102.339844" xlink:href="#DejaVuSans-111"/>
      <use x="163.521484" xlink:href="#DejaVuSans-117"/>
      <use x="226.900391" xlink:href="#DejaVuSans-112"/>
      <use x="290.376953" xlink:href="#DejaVuSans-95"/>
      <use x="340.376953" xlink:href="#DejaVuSans-49"/>
     </g>
    </g>
    <g id="line2d_22">
     <path d="M 56.3 53.974688 
L 76.3 53.974688 
" style="fill:none;stroke:#ff7f0e;stroke-linecap:square;stroke-width:1.5;"/>
    </g>
    <g id="line2d_23"/>
    <g id="text_9">
     <!-- group_2 -->
     <g transform="translate(84.3 57.474688)scale(0.1 -0.1)">
      <use xlink:href="#DejaVuSans-103"/>
      <use x="63.476562" xlink:href="#DejaVuSans-114"/>
      <use x="102.339844" xlink:href="#DejaVuSans-111"/>
      <use x="163.521484" xlink:href="#DejaVuSans-117"/>
      <use x="226.900391" xlink:href="#DejaVuSans-112"/>
      <use x="290.376953" xlink:href="#DejaVuSans-95"/>
      <use x="340.376953" xlink:href="#DejaVuSans-50"/>
     </g>
    </g>
    <g id="line2d_24">
     <path d="M 56.3 68.930938 
L 76.3 68.930938 
" style="fill:none;stroke:#2ca02c;stroke-linecap:square;stroke-width:1.5;"/>
    </g>
    <g id="line2d_25"/>
    <g id="text_10">
     <!-- group_3 -->
     <g transform="translate(84.3 72.430938)scale(0.1 -0.1)">
      <defs>
       <path d="M 40.578125 39.3125 
Q 47.65625 37.796875 51.625 33 
Q 55.609375 28.21875 55.609375 21.1875 
Q 55.609375 10.40625 48.1875 4.484375 
Q 40.765625 -1.421875 27.09375 -1.421875 
Q 22.515625 -1.421875 17.65625 -0.515625 
Q 12.796875 0.390625 7.625 2.203125 
L 7.625 11.71875 
Q 11.71875 9.328125 16.59375 8.109375 
Q 21.484375 6.890625 26.8125 6.890625 
Q 36.078125 6.890625 40.9375 10.546875 
Q 45.796875 14.203125 45.796875 21.1875 
Q 45.796875 27.640625 41.28125 31.265625 
Q 36.765625 34.90625 28.71875 34.90625 
L 20.21875 34.90625 
L 20.21875 43.015625 
L 29.109375 43.015625 
Q 36.375 43.015625 40.234375 45.921875 
Q 44.09375 48.828125 44.09375 54.296875 
Q 44.09375 59.90625 40.109375 62.90625 
Q 36.140625 65.921875 28.71875 65.921875 
Q 24.65625 65.921875 20.015625 65.03125 
Q 15.375 64.15625 9.8125 62.3125 
L 9.8125 71.09375 
Q 15.4375 72.65625 20.34375 73.4375 
Q 25.25 74.21875 29.59375 74.21875 
Q 40.828125 74.21875 47.359375 69.109375 
Q 53.90625 64.015625 53.90625 55.328125 
Q 53.90625 49.265625 50.4375 45.09375 
Q 46.96875 40.921875 40.578125 39.3125 
z
" id="DejaVuSans-51"/>
      </defs>
      <use xlink:href="#DejaVuSans-103"/>
      <use x="63.476562" xlink:href="#DejaVuSans-114"/>
      <use x="102.339844" xlink:href="#DejaVuSans-111"/>
      <use x="163.521484" xlink:href="#DejaVuSans-117"/>
      <use x="226.900391" xlink:href="#DejaVuSans-112"/>
      <use x="290.376953" xlink:href="#DejaVuSans-95"/>
      <use x="340.376953" xlink:href="#DejaVuSans-51"/>
     </g>
    </g>
    <g id="line2d_26">
     <path d="M 56.3 83.887188 
L 76.3 83.887188 
" style="fill:none;stroke:#d62728;stroke-linecap:square;stroke-width:1.5;"/>
    </g>
    <g id="line2d_27"/>
    <g id="text_11">
     <!-- group_4 -->
     <g transform="translate(84.3 87.387188)scale(0.1 -0.1)">
      <defs>
       <path d="M 37.796875 64.3125 
L 12.890625 25.390625 
L 37.796875 25.390625 
z
M 35.203125 72.90625 
L 47.609375 72.90625 
L 47.609375 25.390625 
L 58.015625 25.390625 
L 58.015625 17.1875 
L 47.609375 17.1875 
L 47.609375 0 
L 37.796875 0 
L 37.796875 17.1875 
L 4.890625 17.1875 
L 4.890625 26.703125 
z
" id="DejaVuSans-52"/>
      </defs>
      <use xlink:href="#DejaVuSans-103"/>
      <use x="63.476562" xlink:href="#DejaVuSans-114"/>
      <use x="102.339844" xlink:href="#DejaVuSans-111"/>
      <use x="163.521484" xlink:href="#DejaVuSans-117"/>
      <use x="226.900391" xlink:href="#DejaVuSans-112"/>
      <use x="290.376953" xlink:href="#DejaVuSans-95"/>
      <use x="340.376953" xlink:href="#DejaVuSans-52"/>
     </g>
    </g>
    <g id="line2d_28">
     <path d="M 56.3 98.843438 
L 76.3 98.843438 
" style="fill:none;stroke:#9467bd;stroke-linecap:square;stroke-width:1.5;"/>
    </g>
    <g id="line2d_29"/>
    <g id="text_12">
     <!-- group_5 -->
     <g transform="translate(84.3 102.343438)scale(0.1 -0.1)">
      <use xlink:href="#DejaVuSans-103"/>
      <use x="63.476562" xlink:href="#DejaVuSans-114"/>
      <use x="102.339844" xlink:href="#DejaVuSans-111"/>
      <use x="163.521484" xlink:href="#DejaVuSans-117"/>
      <use x="226.900391" xlink:href="#DejaVuSans-112"/>
      <use x="290.376953" xlink:href="#DejaVuSans-95"/>
      <use x="340.376953" xlink:href="#DejaVuSans-53"/>
     </g>
    </g>
    <g id="line2d_30">
     <path d="M 56.3 113.799688 
L 76.3 113.799688 
" style="fill:none;stroke:#8c564b;stroke-linecap:square;stroke-width:1.5;"/>
    </g>
    <g id="line2d_31"/>
    <g id="text_13">
     <!-- benchmark -->
     <g transform="translate(84.3 117.299688)scale(0.1 -0.1)">
      <defs>
       <path d="M 48.6875 27.296875 
Q 48.6875 37.203125 44.609375 42.84375 
Q 40.53125 48.484375 33.40625 48.484375 
Q 26.265625 48.484375 22.1875 42.84375 
Q 18.109375 37.203125 18.109375 27.296875 
Q 18.109375 17.390625 22.1875 11.75 
Q 26.265625 6.109375 33.40625 6.109375 
Q 40.53125 6.109375 44.609375 11.75 
Q 48.6875 17.390625 48.6875 27.296875 
z
M 18.109375 46.390625 
Q 20.953125 51.265625 25.265625 53.625 
Q 29.59375 56 35.59375 56 
Q 45.5625 56 51.78125 48.09375 
Q 58.015625 40.1875 58.015625 27.296875 
Q 58.015625 14.40625 51.78125 6.484375 
Q 45.5625 -1.421875 35.59375 -1.421875 
Q 29.59375 -1.421875 25.265625 0.953125 
Q 20.953125 3.328125 18.109375 8.203125 
L 18.109375 0 
L 9.078125 0 
L 9.078125 75.984375 
L 18.109375 75.984375 
z
" id="DejaVuSans-98"/>
       <path d="M 48.78125 52.59375 
L 48.78125 44.1875 
Q 44.96875 46.296875 41.140625 47.34375 
Q 37.3125 48.390625 33.40625 48.390625 
Q 24.65625 48.390625 19.8125 42.84375 
Q 14.984375 37.3125 14.984375 27.296875 
Q 14.984375 17.28125 19.8125 11.734375 
Q 24.65625 6.203125 33.40625 6.203125 
Q 37.3125 6.203125 41.140625 7.25 
Q 44.96875 8.296875 48.78125 10.40625 
L 48.78125 2.09375 
Q 45.015625 0.34375 40.984375 -0.53125 
Q 36.96875 -1.421875 32.421875 -1.421875 
Q 20.0625 -1.421875 12.78125 6.34375 
Q 5.515625 14.109375 5.515625 27.296875 
Q 5.515625 40.671875 12.859375 48.328125 
Q 20.21875 56 33.015625 56 
Q 37.15625 56 41.109375 55.140625 
Q 45.0625 54.296875 48.78125 52.59375 
z
" id="DejaVuSans-99"/>
       <path d="M 54.890625 33.015625 
L 54.890625 0 
L 45.90625 0 
L 45.90625 32.71875 
Q 45.90625 40.484375 42.875 44.328125 
Q 39.84375 48.1875 33.796875 48.1875 
Q 26.515625 48.1875 22.3125 43.546875 
Q 18.109375 38.921875 18.109375 30.90625 
L 18.109375 0 
L 9.078125 0 
L 9.078125 75.984375 
L 18.109375 75.984375 
L 18.109375 46.1875 
Q 21.34375 51.125 25.703125 53.5625 
Q 30.078125 56 35.796875 56 
Q 45.21875 56 50.046875 50.171875 
Q 54.890625 44.34375 54.890625 33.015625 
z
" id="DejaVuSans-104"/>
       <path d="M 52 44.1875 
Q 55.375 50.25 60.0625 53.125 
Q 64.75 56 71.09375 56 
Q 79.640625 56 84.28125 50.015625 
Q 88.921875 44.046875 88.921875 33.015625 
L 88.921875 0 
L 79.890625 0 
L 79.890625 32.71875 
Q 79.890625 40.578125 77.09375 44.375 
Q 74.3125 48.1875 68.609375 48.1875 
Q 61.625 48.1875 57.5625 43.546875 
Q 53.515625 38.921875 53.515625 30.90625 
L 53.515625 0 
L 44.484375 0 
L 44.484375 32.71875 
Q 44.484375 40.625 41.703125 44.40625 
Q 38.921875 48.1875 33.109375 48.1875 
Q 26.21875 48.1875 22.15625 43.53125 
Q 18.109375 38.875 18.109375 30.90625 
L 18.109375 0 
L 9.078125 0 
L 9.078125 54.6875 
L 18.109375 54.6875 
L 18.109375 46.1875 
Q 21.1875 51.21875 25.484375 53.609375 
Q 29.78125 56 35.6875 56 
Q 41.65625 56 45.828125 52.96875 
Q 50 49.953125 52 44.1875 
z
" id="DejaVuSans-109"/>
       <path d="M 9.078125 75.984375 
L 18.109375 75.984375 
L 18.109375 31.109375 
L 44.921875 54.6875 
L 56.390625 54.6875 
L 27.390625 29.109375 
L 57.625 0 
L 45.90625 0 
L 18.109375 26.703125 
L 18.109375 0 
L 9.078125 0 
z
" id="DejaVuSans-107"/>
      </defs>
      <use xlink:href="#DejaVuSans-98"/>
      <use x="63.476562" xlink:href="#DejaVuSans-101"/>
      <use x="125" xlink:href="#DejaVuSans-110"/>
      <use x="188.378906" xlink:href="#DejaVuSans-99"/>
      <use x="243.359375" xlink:href="#DejaVuSans-104"/>
      <use x="306.738281" xlink:href="#DejaVuSans-109"/>
      <use x="404.150391" xlink:href="#DejaVuSans-97"/>
      <use x="465.429688" xlink:href="#DejaVuSans-114"/>
      <use x="506.542969" xlink:href="#DejaVuSans-107"/>
     </g>
    </g>
    <g id="line2d_32">
     <path d="M 56.3 128.477813 
L 76.3 128.477813 
" style="fill:none;stroke:#e377c2;stroke-linecap:square;stroke-width:1.5;"/>
    </g>
    <g id="line2d_33"/>
    <g id="text_14">
     <!-- long_excess -->
     <g transform="translate(84.3 131.977813)scale(0.1 -0.1)">
      <defs>
       <path d="M 54.890625 54.6875 
L 35.109375 28.078125 
L 55.90625 0 
L 45.3125 0 
L 29.390625 21.484375 
L 13.484375 0 
L 2.875 0 
L 24.125 28.609375 
L 4.6875 54.6875 
L 15.28125 54.6875 
L 29.78125 35.203125 
L 44.28125 54.6875 
z
" id="DejaVuSans-120"/>
       <path d="M 44.28125 53.078125 
L 44.28125 44.578125 
Q 40.484375 46.53125 36.375 47.5 
Q 32.28125 48.484375 27.875 48.484375 
Q 21.1875 48.484375 17.84375 46.4375 
Q 14.5 44.390625 14.5 40.28125 
Q 14.5 37.15625 16.890625 35.375 
Q 19.28125 33.59375 26.515625 31.984375 
L 29.59375 31.296875 
Q 39.15625 29.25 43.1875 25.515625 
Q 47.21875 21.78125 47.21875 15.09375 
Q 47.21875 7.46875 41.1875 3.015625 
Q 35.15625 -1.421875 24.609375 -1.421875 
Q 20.21875 -1.421875 15.453125 -0.5625 
Q 10.6875 0.296875 5.421875 2 
L 5.421875 11.28125 
Q 10.40625 8.6875 15.234375 7.390625 
Q 20.0625 6.109375 24.8125 6.109375 
Q 31.15625 6.109375 34.5625 8.28125 
Q 37.984375 10.453125 37.984375 14.40625 
Q 37.984375 18.0625 35.515625 20.015625 
Q 33.0625 21.96875 24.703125 23.78125 
L 21.578125 24.515625 
Q 13.234375 26.265625 9.515625 29.90625 
Q 5.8125 33.546875 5.8125 39.890625 
Q 5.8125 47.609375 11.28125 51.796875 
Q 16.75 56 26.8125 56 
Q 31.78125 56 36.171875 55.265625 
Q 40.578125 54.546875 44.28125 53.078125 
z
" id="DejaVuSans-115"/>
      </defs>
      <use xlink:href="#DejaVuSans-108"/>
      <use x="27.783203" xlink:href="#DejaVuSans-111"/>
      <use x="88.964844" xlink:href="#DejaVuSans-110"/>
      <use x="152.34375" xlink:href="#DejaVuSans-103"/>
      <use x="215.820312" xlink:href="#DejaVuSans-95"/>
      <use x="265.820312" xlink:href="#DejaVuSans-101"/>
      <use x="325.59375" xlink:href="#DejaVuSans-120"/>
      <use x="383.023438" xlink:href="#DejaVuSans-99"/>
      <use x="438.003906" xlink:href="#DejaVuSans-101"/>
      <use x="499.527344" xlink:href="#DejaVuSans-115"/>
      <use x="551.626953" xlink:href="#DejaVuSans-115"/>
     </g>
    </g>
    <g id="line2d_34">
     <path d="M 56.3 143.434063 
L 76.3 143.434063 
" style="fill:none;stroke:#7f7f7f;stroke-linecap:square;stroke-width:1.5;"/>
    </g>
    <g id="line2d_35"/>
    <g id="text_15">
     <!-- short_excess -->
     <g transform="translate(84.3 146.934063)scale(0.1 -0.1)">
      <use xlink:href="#DejaVuSans-115"/>
      <use x="52.099609" xlink:href="#DejaVuSans-104"/>
      <use x="115.478516" xlink:href="#DejaVuSans-111"/>
      <use x="176.660156" xlink:href="#DejaVuSans-114"/>
      <use x="217.773438" xlink:href="#DejaVuSans-116"/>
      <use x="256.982422" xlink:href="#DejaVuSans-95"/>
      <use x="306.982422" xlink:href="#DejaVuSans-101"/>
      <use x="366.755859" xlink:href="#DejaVuSans-120"/>
      <use x="424.185547" xlink:href="#DejaVuSans-99"/>
      <use x="479.166016" xlink:href="#DejaVuSans-101"/>
      <use x="540.689453" xlink:href="#DejaVuSans-115"/>
      <use x="592.789062" xlink:href="#DejaVuSans-115"/>
     </g>
    </g>
    <g id="line2d_36">
     <path d="M 56.3 158.390313 
L 76.3 158.390313 
" style="fill:none;stroke:#bcbd22;stroke-linecap:square;stroke-width:1.5;"/>
    </g>
    <g id="line2d_37"/>
    <g id="text_16">
     <!-- long_short -->
     <g transform="translate(84.3 161.890313)scale(0.1 -0.1)">
      <use xlink:href="#DejaVuSans-108"/>
      <use x="27.783203" xlink:href="#DejaVuSans-111"/>
      <use x="88.964844" xlink:href="#DejaVuSans-110"/>
      <use x="152.34375" xlink:href="#DejaVuSans-103"/>
      <use x="215.820312" xlink:href="#DejaVuSans-95"/>
      <use x="265.820312" xlink:href="#DejaVuSans-115"/>
      <use x="317.919922" xlink:href="#DejaVuSans-104"/>
      <use x="381.298828" xlink:href="#DejaVuSans-111"/>
      <use x="442.480469" xlink:href="#DejaVuSans-114"/>
      <use x="483.59375" xlink:href="#DejaVuSans-116"/>
     </g>
    </g>
   </g>
  </g>
 </g>
 <defs>
  <clipPath id="pa91da961df">
   <rect height="334.18" width="1093.9" x="47.3" y="25.92"/>
  </clipPath>
 </defs>
</svg>
