<?xml version="1.0" encoding="utf-8" standalone="no"?>
<!DOCTYPE svg PUBLIC "-//W3C//DTD SVG 1.1//EN"
  "http://www.w3.org/Graphics/SVG/1.1/DTD/svg11.dtd">
<!-- Created with matplotlib (https://matplotlib.org/) -->
<svg height="360pt" version="1.1" viewBox="0 0 1152 360" width="1152pt" xmlns="http://www.w3.org/2000/svg" xmlns:xlink="http://www.w3.org/1999/xlink">
 <metadata>
  <rdf:RDF xmlns:cc="http://creativecommons.org/ns#" xmlns:dc="http://purl.org/dc/elements/1.1/" xmlns:rdf="http://www.w3.org/1999/02/22-rdf-syntax-ns#">
   <cc:Work>
    <dc:type rdf:resource="http://purl.org/dc/dcmitype/StillImage"/>
    <dc:date>2023-10-11T16:59:18.979536</dc:date>
    <dc:format>image/svg+xml</dc:format>
    <dc:creator>
     <cc:Agent>
      <dc:title>Matplotlib v3.3.4, https://matplotlib.org/</dc:title>
     </cc:Agent>
    </dc:creator>
   </cc:Work>
  </rdf:RDF>
 </metadata>
 <defs>
  <style type="text/css">*{stroke-linecap:butt;stroke-linejoin:round;}</style>
 </defs>
 <g id="figure_1">
  <g id="patch_1">
   <path d="M 0 360 
L 1152 360 
L 1152 0 
L 0 0 
z
" style="fill:#ffffff;"/>
  </g>
  <g id="axes_1">
   <g id="patch_2">
    <path d="M 57.26 345.7 
L 1141.2 345.7 
L 1141.2 25.92 
L 57.26 25.92 
z
" style="fill:#ffffff;"/>
   </g>
   <g id="matplotlib.axis_1"/>
   <g id="matplotlib.axis_2">
    <g id="ytick_1">
     <g id="line2d_1">
      <path clip-path="url(#pedf70b5622)" d="M 57.26 331.547843 
L 1141.2 331.547843 
" style="fill:none;stroke:#b0b0b0;stroke-linecap:square;stroke-width:0.8;"/>
     </g>
     <g id="line2d_2">
      <defs>
       <path d="M 0 0 
L -3.5 0 
" id="mfe0cb2be4e" style="stroke:#000000;stroke-width:0.8;"/>
      </defs>
      <g>
       <use style="stroke:#000000;stroke-width:0.8;" x="57.26" xlink:href="#mfe0cb2be4e" y="331.547843"/>
      </g>
     </g>
     <g id="text_1">
      <!-- -1.25 -->
      <g transform="translate(24.386562 335.347062)scale(0.1 -0.1)">
       <defs>
        <path d="M 4.890625 31.390625 
L 31.203125 31.390625 
L 31.203125 23.390625 
L 4.890625 23.390625 
z
" id="DejaVuSans-45"/>
        <path d="M 12.40625 8.296875 
L 28.515625 8.296875 
L 28.515625 63.921875 
L 10.984375 60.40625 
L 10.984375 69.390625 
L 28.421875 72.90625 
L 38.28125 72.90625 
L 38.28125 8.296875 
L 54.390625 8.296875 
L 54.390625 0 
L 12.40625 0 
z
" id="DejaVuSans-49"/>
        <path d="M 10.6875 12.40625 
L 21 12.40625 
L 21 0 
L 10.6875 0 
z
" id="DejaVuSans-46"/>
        <path d="M 19.1875 8.296875 
L 53.609375 8.296875 
L 53.609375 0 
L 7.328125 0 
L 7.328125 8.296875 
Q 12.9375 14.109375 22.625 23.890625 
Q 32.328125 33.6875 34.8125 36.53125 
Q 39.546875 41.84375 41.421875 45.53125 
Q 43.3125 49.21875 43.3125 52.78125 
Q 43.3125 58.59375 39.234375 62.25 
Q 35.15625 65.921875 28.609375 65.921875 
Q 23.96875 65.921875 18.8125 64.3125 
Q 13.671875 62.703125 7.8125 59.421875 
L 7.8125 69.390625 
Q 13.765625 71.78125 18.9375 73 
Q 24.125 74.21875 28.421875 74.21875 
Q 39.75 74.21875 46.484375 68.546875 
Q 53.21875 62.890625 53.21875 53.421875 
Q 53.21875 48.921875 51.53125 44.890625 
Q 49.859375 40.875 45.40625 35.40625 
Q 44.1875 33.984375 37.640625 27.21875 
Q 31.109375 20.453125 19.1875 8.296875 
z
" id="DejaVuSans-50"/>
        <path d="M 10.796875 72.90625 
L 49.515625 72.90625 
L 49.515625 64.59375 
L 19.828125 64.59375 
L 19.828125 46.734375 
Q 21.96875 47.46875 24.109375 47.828125 
Q 26.265625 48.1875 28.421875 48.1875 
Q 40.625 48.1875 47.75 41.5 
Q 54.890625 34.8125 54.890625 23.390625 
Q 54.890625 11.625 47.5625 5.09375 
Q 40.234375 -1.421875 26.90625 -1.421875 
Q 22.3125 -1.421875 17.546875 -0.640625 
Q 12.796875 0.140625 7.71875 1.703125 
L 7.71875 11.625 
Q 12.109375 9.234375 16.796875 8.0625 
Q 21.484375 6.890625 26.703125 6.890625 
Q 35.15625 6.890625 40.078125 11.328125 
Q 45.015625 15.765625 45.015625 23.390625 
Q 45.015625 31 40.078125 35.4375 
Q 35.15625 39.890625 26.703125 39.890625 
Q 22.75 39.890625 18.8125 39.015625 
Q 14.890625 38.140625 10.796875 36.28125 
z
" id="DejaVuSans-53"/>
       </defs>
       <use xlink:href="#DejaVuSans-45"/>
       <use x="36.083984" xlink:href="#DejaVuSans-49"/>
       <use x="99.707031" xlink:href="#DejaVuSans-46"/>
       <use x="131.494141" xlink:href="#DejaVuSans-50"/>
       <use x="195.117188" xlink:href="#DejaVuSans-53"/>
      </g>
     </g>
    </g>
    <g id="ytick_2">
     <g id="line2d_3">
      <path clip-path="url(#pedf70b5622)" d="M 57.26 291.33102 
L 1141.2 291.33102 
" style="fill:none;stroke:#b0b0b0;stroke-linecap:square;stroke-width:0.8;"/>
     </g>
     <g id="line2d_4">
      <g>
       <use style="stroke:#000000;stroke-width:0.8;" x="57.26" xlink:href="#mfe0cb2be4e" y="291.33102"/>
      </g>
     </g>
     <g id="text_2">
      <!-- -1.00 -->
      <g transform="translate(24.386562 295.130239)scale(0.1 -0.1)">
       <defs>
        <path d="M 31.78125 66.40625 
Q 24.171875 66.40625 20.328125 58.90625 
Q 16.5 51.421875 16.5 36.375 
Q 16.5 21.390625 20.328125 13.890625 
Q 24.171875 6.390625 31.78125 6.390625 
Q 39.453125 6.390625 43.28125 13.890625 
Q 47.125 21.390625 47.125 36.375 
Q 47.125 51.421875 43.28125 58.90625 
Q 39.453125 66.40625 31.78125 66.40625 
z
M 31.78125 74.21875 
Q 44.046875 74.21875 50.515625 64.515625 
Q 56.984375 54.828125 56.984375 36.375 
Q 56.984375 17.96875 50.515625 8.265625 
Q 44.046875 -1.421875 31.78125 -1.421875 
Q 19.53125 -1.421875 13.0625 8.265625 
Q 6.59375 17.96875 6.59375 36.375 
Q 6.59375 54.828125 13.0625 64.515625 
Q 19.53125 74.21875 31.78125 74.21875 
z
" id="DejaVuSans-48"/>
       </defs>
       <use xlink:href="#DejaVuSans-45"/>
       <use x="36.083984" xlink:href="#DejaVuSans-49"/>
       <use x="99.707031" xlink:href="#DejaVuSans-46"/>
       <use x="131.494141" xlink:href="#DejaVuSans-48"/>
       <use x="195.117188" xlink:href="#DejaVuSans-48"/>
      </g>
     </g>
    </g>
    <g id="ytick_3">
     <g id="line2d_5">
      <path clip-path="url(#pedf70b5622)" d="M 57.26 251.114198 
L 1141.2 251.114198 
" style="fill:none;stroke:#b0b0b0;stroke-linecap:square;stroke-width:0.8;"/>
     </g>
     <g id="line2d_6">
      <g>
       <use style="stroke:#000000;stroke-width:0.8;" x="57.26" xlink:href="#mfe0cb2be4e" y="251.114198"/>
      </g>
     </g>
     <g id="text_3">
      <!-- -0.75 -->
      <g transform="translate(24.386562 254.913417)scale(0.1 -0.1)">
       <defs>
        <path d="M 8.203125 72.90625 
L 55.078125 72.90625 
L 55.078125 68.703125 
L 28.609375 0 
L 18.3125 0 
L 43.21875 64.59375 
L 8.203125 64.59375 
z
" id="DejaVuSans-55"/>
       </defs>
       <use xlink:href="#DejaVuSans-45"/>
       <use x="36.083984" xlink:href="#DejaVuSans-48"/>
       <use x="99.707031" xlink:href="#DejaVuSans-46"/>
       <use x="131.494141" xlink:href="#DejaVuSans-55"/>
       <use x="195.117188" xlink:href="#DejaVuSans-53"/>
      </g>
     </g>
    </g>
    <g id="ytick_4">
     <g id="line2d_7">
      <path clip-path="url(#pedf70b5622)" d="M 57.26 210.897375 
L 1141.2 210.897375 
" style="fill:none;stroke:#b0b0b0;stroke-linecap:square;stroke-width:0.8;"/>
     </g>
     <g id="line2d_8">
      <g>
       <use style="stroke:#000000;stroke-width:0.8;" x="57.26" xlink:href="#mfe0cb2be4e" y="210.897375"/>
      </g>
     </g>
     <g id="text_4">
      <!-- -0.50 -->
      <g transform="translate(24.386562 214.696594)scale(0.1 -0.1)">
       <use xlink:href="#DejaVuSans-45"/>
       <use x="36.083984" xlink:href="#DejaVuSans-48"/>
       <use x="99.707031" xlink:href="#DejaVuSans-46"/>
       <use x="131.494141" xlink:href="#DejaVuSans-53"/>
       <use x="195.117188" xlink:href="#DejaVuSans-48"/>
      </g>
     </g>
    </g>
    <g id="ytick_5">
     <g id="line2d_9">
      <path clip-path="url(#pedf70b5622)" d="M 57.26 170.680553 
L 1141.2 170.680553 
" style="fill:none;stroke:#b0b0b0;stroke-linecap:square;stroke-width:0.8;"/>
     </g>
     <g id="line2d_10">
      <g>
       <use style="stroke:#000000;stroke-width:0.8;" x="57.26" xlink:href="#mfe0cb2be4e" y="170.680553"/>
      </g>
     </g>
     <g id="text_5">
      <!-- -0.25 -->
      <g transform="translate(24.386562 174.479772)scale(0.1 -0.1)">
       <use xlink:href="#DejaVuSans-45"/>
       <use x="36.083984" xlink:href="#DejaVuSans-48"/>
       <use x="99.707031" xlink:href="#DejaVuSans-46"/>
       <use x="131.494141" xlink:href="#DejaVuSans-50"/>
       <use x="195.117188" xlink:href="#DejaVuSans-53"/>
      </g>
     </g>
    </g>
    <g id="ytick_6">
     <g id="line2d_11">
      <path clip-path="url(#pedf70b5622)" d="M 57.26 130.46373 
L 1141.2 130.46373 
" style="fill:none;stroke:#b0b0b0;stroke-linecap:square;stroke-width:0.8;"/>
     </g>
     <g id="line2d_12">
      <g>
       <use style="stroke:#000000;stroke-width:0.8;" x="57.26" xlink:href="#mfe0cb2be4e" y="130.46373"/>
      </g>
     </g>
     <g id="text_6">
      <!-- 0.00 -->
      <g transform="translate(27.994375 134.262949)scale(0.1 -0.1)">
       <use xlink:href="#DejaVuSans-48"/>
       <use x="63.623047" xlink:href="#DejaVuSans-46"/>
       <use x="95.410156" xlink:href="#DejaVuSans-48"/>
       <use x="159.033203" xlink:href="#DejaVuSans-48"/>
      </g>
     </g>
    </g>
    <g id="ytick_7">
     <g id="line2d_13">
      <path clip-path="url(#pedf70b5622)" d="M 57.26 90.246908 
L 1141.2 90.246908 
" style="fill:none;stroke:#b0b0b0;stroke-linecap:square;stroke-width:0.8;"/>
     </g>
     <g id="line2d_14">
      <g>
       <use style="stroke:#000000;stroke-width:0.8;" x="57.26" xlink:href="#mfe0cb2be4e" y="90.246908"/>
      </g>
     </g>
     <g id="text_7">
      <!-- 0.25 -->
      <g transform="translate(27.994375 94.046126)scale(0.1 -0.1)">
       <use xlink:href="#DejaVuSans-48"/>
       <use x="63.623047" xlink:href="#DejaVuSans-46"/>
       <use x="95.410156" xlink:href="#DejaVuSans-50"/>
       <use x="159.033203" xlink:href="#DejaVuSans-53"/>
      </g>
     </g>
    </g>
    <g id="ytick_8">
     <g id="line2d_15">
      <path clip-path="url(#pedf70b5622)" d="M 57.26 50.030085 
L 1141.2 50.030085 
" style="fill:none;stroke:#b0b0b0;stroke-linecap:square;stroke-width:0.8;"/>
     </g>
     <g id="line2d_16">
      <g>
       <use style="stroke:#000000;stroke-width:0.8;" x="57.26" xlink:href="#mfe0cb2be4e" y="50.030085"/>
      </g>
     </g>
     <g id="text_8">
      <!-- 0.50 -->
      <g transform="translate(27.994375 53.829304)scale(0.1 -0.1)">
       <use xlink:href="#DejaVuSans-48"/>
       <use x="63.623047" xlink:href="#DejaVuSans-46"/>
       <use x="95.410156" xlink:href="#DejaVuSans-53"/>
       <use x="159.033203" xlink:href="#DejaVuSans-48"/>
      </g>
     </g>
    </g>
    <g id="text_9">
     <!-- log return cumsum -->
     <g transform="translate(18.306875 233.327969)rotate(-90)scale(0.1 -0.1)">
      <defs>
       <path d="M 9.421875 75.984375 
L 18.40625 75.984375 
L 18.40625 0 
L 9.421875 0 
z
" id="DejaVuSans-108"/>
       <path d="M 30.609375 48.390625 
Q 23.390625 48.390625 19.1875 42.75 
Q 14.984375 37.109375 14.984375 27.296875 
Q 14.984375 17.484375 19.15625 11.84375 
Q 23.34375 6.203125 30.609375 6.203125 
Q 37.796875 6.203125 41.984375 11.859375 
Q 46.1875 17.53125 46.1875 27.296875 
Q 46.1875 37.015625 41.984375 42.703125 
Q 37.796875 48.390625 30.609375 48.390625 
z
M 30.609375 56 
Q 42.328125 56 49.015625 48.375 
Q 55.71875 40.765625 55.71875 27.296875 
Q 55.71875 13.875 49.015625 6.21875 
Q 42.328125 -1.421875 30.609375 -1.421875 
Q 18.84375 -1.421875 12.171875 6.21875 
Q 5.515625 13.875 5.515625 27.296875 
Q 5.515625 40.765625 12.171875 48.375 
Q 18.84375 56 30.609375 56 
z
" id="DejaVuSans-111"/>
       <path d="M 45.40625 27.984375 
Q 45.40625 37.75 41.375 43.109375 
Q 37.359375 48.484375 30.078125 48.484375 
Q 22.859375 48.484375 18.828125 43.109375 
Q 14.796875 37.75 14.796875 27.984375 
Q 14.796875 18.265625 18.828125 12.890625 
Q 22.859375 7.515625 30.078125 7.515625 
Q 37.359375 7.515625 41.375 12.890625 
Q 45.40625 18.265625 45.40625 27.984375 
z
M 54.390625 6.78125 
Q 54.390625 -7.171875 48.1875 -13.984375 
Q 42 -20.796875 29.203125 -20.796875 
Q 24.46875 -20.796875 20.265625 -20.09375 
Q 16.0625 -19.390625 12.109375 -17.921875 
L 12.109375 -9.1875 
Q 16.0625 -11.328125 19.921875 -12.34375 
Q 23.78125 -13.375 27.78125 -13.375 
Q 36.625 -13.375 41.015625 -8.765625 
Q 45.40625 -4.15625 45.40625 5.171875 
L 45.40625 9.625 
Q 42.625 4.78125 38.28125 2.390625 
Q 33.9375 0 27.875 0 
Q 17.828125 0 11.671875 7.65625 
Q 5.515625 15.328125 5.515625 27.984375 
Q 5.515625 40.671875 11.671875 48.328125 
Q 17.828125 56 27.875 56 
Q 33.9375 56 38.28125 53.609375 
Q 42.625 51.21875 45.40625 46.390625 
L 45.40625 54.6875 
L 54.390625 54.6875 
z
" id="DejaVuSans-103"/>
       <path id="DejaVuSans-32"/>
       <path d="M 41.109375 46.296875 
Q 39.59375 47.171875 37.8125 47.578125 
Q 36.03125 48 33.890625 48 
Q 26.265625 48 22.1875 43.046875 
Q 18.109375 38.09375 18.109375 28.8125 
L 18.109375 0 
L 9.078125 0 
L 9.078125 54.6875 
L 18.109375 54.6875 
L 18.109375 46.1875 
Q 20.953125 51.171875 25.484375 53.578125 
Q 30.03125 56 36.53125 56 
Q 37.453125 56 38.578125 55.875 
Q 39.703125 55.765625 41.0625 55.515625 
z
" id="DejaVuSans-114"/>
       <path d="M 56.203125 29.59375 
L 56.203125 25.203125 
L 14.890625 25.203125 
Q 15.484375 15.921875 20.484375 11.0625 
Q 25.484375 6.203125 34.421875 6.203125 
Q 39.59375 6.203125 44.453125 7.46875 
Q 49.3125 8.734375 54.109375 11.28125 
L 54.109375 2.78125 
Q 49.265625 0.734375 44.1875 -0.34375 
Q 39.109375 -1.421875 33.890625 -1.421875 
Q 20.796875 -1.421875 13.15625 6.1875 
Q 5.515625 13.8125 5.515625 26.8125 
Q 5.515625 40.234375 12.765625 48.109375 
Q 20.015625 56 32.328125 56 
Q 43.359375 56 49.78125 48.890625 
Q 56.203125 41.796875 56.203125 29.59375 
z
M 47.21875 32.234375 
Q 47.125 39.59375 43.09375 43.984375 
Q 39.0625 48.390625 32.421875 48.390625 
Q 24.90625 48.390625 20.390625 44.140625 
Q 15.875 39.890625 15.1875 32.171875 
z
" id="DejaVuSans-101"/>
       <path d="M 18.3125 70.21875 
L 18.3125 54.6875 
L 36.8125 54.6875 
L 36.8125 47.703125 
L 18.3125 47.703125 
L 18.3125 18.015625 
Q 18.3125 11.328125 20.140625 9.421875 
Q 21.96875 7.515625 27.59375 7.515625 
L 36.8125 7.515625 
L 36.8125 0 
L 27.59375 0 
Q 17.1875 0 13.234375 3.875 
Q 9.28125 7.765625 9.28125 18.015625 
L 9.28125 47.703125 
L 2.6875 47.703125 
L 2.6875 54.6875 
L 9.28125 54.6875 
L 9.28125 70.21875 
z
" id="DejaVuSans-116"/>
       <path d="M 8.5 21.578125 
L 8.5 54.6875 
L 17.484375 54.6875 
L 17.484375 21.921875 
Q 17.484375 14.15625 20.5 10.265625 
Q 23.53125 6.390625 29.59375 6.390625 
Q 36.859375 6.390625 41.078125 11.03125 
Q 45.3125 15.671875 45.3125 23.6875 
L 45.3125 54.6875 
L 54.296875 54.6875 
L 54.296875 0 
L 45.3125 0 
L 45.3125 8.40625 
Q 42.046875 3.421875 37.71875 1 
Q 33.40625 -1.421875 27.6875 -1.421875 
Q 18.265625 -1.421875 13.375 4.4375 
Q 8.5 10.296875 8.5 21.578125 
z
M 31.109375 56 
z
" id="DejaVuSans-117"/>
       <path d="M 54.890625 33.015625 
L 54.890625 0 
L 45.90625 0 
L 45.90625 32.71875 
Q 45.90625 40.484375 42.875 44.328125 
Q 39.84375 48.1875 33.796875 48.1875 
Q 26.515625 48.1875 22.3125 43.546875 
Q 18.109375 38.921875 18.109375 30.90625 
L 18.109375 0 
L 9.078125 0 
L 9.078125 54.6875 
L 18.109375 54.6875 
L 18.109375 46.1875 
Q 21.34375 51.125 25.703125 53.5625 
Q 30.078125 56 35.796875 56 
Q 45.21875 56 50.046875 50.171875 
Q 54.890625 44.34375 54.890625 33.015625 
z
" id="DejaVuSans-110"/>
       <path d="M 48.78125 52.59375 
L 48.78125 44.1875 
Q 44.96875 46.296875 41.140625 47.34375 
Q 37.3125 48.390625 33.40625 48.390625 
Q 24.65625 48.390625 19.8125 42.84375 
Q 14.984375 37.3125 14.984375 27.296875 
Q 14.984375 17.28125 19.8125 11.734375 
Q 24.65625 6.203125 33.40625 6.203125 
Q 37.3125 6.203125 41.140625 7.25 
Q 44.96875 8.296875 48.78125 10.40625 
L 48.78125 2.09375 
Q 45.015625 0.34375 40.984375 -0.53125 
Q 36.96875 -1.421875 32.421875 -1.421875 
Q 20.0625 -1.421875 12.78125 6.34375 
Q 5.515625 14.109375 5.515625 27.296875 
Q 5.515625 40.671875 12.859375 48.328125 
Q 20.21875 56 33.015625 56 
Q 37.15625 56 41.109375 55.140625 
Q 45.0625 54.296875 48.78125 52.59375 
z
" id="DejaVuSans-99"/>
       <path d="M 52 44.1875 
Q 55.375 50.25 60.0625 53.125 
Q 64.75 56 71.09375 56 
Q 79.640625 56 84.28125 50.015625 
Q 88.921875 44.046875 88.921875 33.015625 
L 88.921875 0 
L 79.890625 0 
L 79.890625 32.71875 
Q 79.890625 40.578125 77.09375 44.375 
Q 74.3125 48.1875 68.609375 48.1875 
Q 61.625 48.1875 57.5625 43.546875 
Q 53.515625 38.921875 53.515625 30.90625 
L 53.515625 0 
L 44.484375 0 
L 44.484375 32.71875 
Q 44.484375 40.625 41.703125 44.40625 
Q 38.921875 48.1875 33.109375 48.1875 
Q 26.21875 48.1875 22.15625 43.53125 
Q 18.109375 38.875 18.109375 30.90625 
L 18.109375 0 
L 9.078125 0 
L 9.078125 54.6875 
L 18.109375 54.6875 
L 18.109375 46.1875 
Q 21.1875 51.21875 25.484375 53.609375 
Q 29.78125 56 35.6875 56 
Q 41.65625 56 45.828125 52.96875 
Q 50 49.953125 52 44.1875 
z
" id="DejaVuSans-109"/>
       <path d="M 44.28125 53.078125 
L 44.28125 44.578125 
Q 40.484375 46.53125 36.375 47.5 
Q 32.28125 48.484375 27.875 48.484375 
Q 21.1875 48.484375 17.84375 46.4375 
Q 14.5 44.390625 14.5 40.28125 
Q 14.5 37.15625 16.890625 35.375 
Q 19.28125 33.59375 26.515625 31.984375 
L 29.59375 31.296875 
Q 39.15625 29.25 43.1875 25.515625 
Q 47.21875 21.78125 47.21875 15.09375 
Q 47.21875 7.46875 41.1875 3.015625 
Q 35.15625 -1.421875 24.609375 -1.421875 
Q 20.21875 -1.421875 15.453125 -0.5625 
Q 10.6875 0.296875 5.421875 2 
L 5.421875 11.28125 
Q 10.40625 8.6875 15.234375 7.390625 
Q 20.0625 6.109375 24.8125 6.109375 
Q 31.15625 6.109375 34.5625 8.28125 
Q 37.984375 10.453125 37.984375 14.40625 
Q 37.984375 18.0625 35.515625 20.015625 
Q 33.0625 21.96875 24.703125 23.78125 
L 21.578125 24.515625 
Q 13.234375 26.265625 9.515625 29.90625 
Q 5.8125 33.546875 5.8125 39.890625 
Q 5.8125 47.609375 11.28125 51.796875 
Q 16.75 56 26.8125 56 
Q 31.78125 56 36.171875 55.265625 
Q 40.578125 54.546875 44.28125 53.078125 
z
" id="DejaVuSans-115"/>
      </defs>
      <use xlink:href="#DejaVuSans-108"/>
      <use x="27.783203" xlink:href="#DejaVuSans-111"/>
      <use x="88.964844" xlink:href="#DejaVuSans-103"/>
      <use x="152.441406" xlink:href="#DejaVuSans-32"/>
      <use x="184.228516" xlink:href="#DejaVuSans-114"/>
      <use x="223.091797" xlink:href="#DejaVuSans-101"/>
      <use x="284.615234" xlink:href="#DejaVuSans-116"/>
      <use x="323.824219" xlink:href="#DejaVuSans-117"/>
      <use x="387.203125" xlink:href="#DejaVuSans-114"/>
      <use x="426.566406" xlink:href="#DejaVuSans-110"/>
      <use x="489.945312" xlink:href="#DejaVuSans-32"/>
      <use x="521.732422" xlink:href="#DejaVuSans-99"/>
      <use x="576.712891" xlink:href="#DejaVuSans-117"/>
      <use x="640.091797" xlink:href="#DejaVuSans-109"/>
      <use x="737.503906" xlink:href="#DejaVuSans-115"/>
      <use x="789.603516" xlink:href="#DejaVuSans-117"/>
      <use x="852.982422" xlink:href="#DejaVuSans-109"/>
     </g>
    </g>
   </g>
   <g id="line2d_17">
    <path clip-path="url(#pedf70b5622)" d="M 106.53 127.633103 
L 110.48743 119.899235 
L 114.444859 128.696263 
L 118.402289 128.772874 
L 122.359719 124.933491 
L 134.232008 135.809444 
L 138.189438 122.54936 
L 142.146867 120.819468 
L 146.104297 128.954143 
L 150.061727 118.301184 
L 161.934016 119.200505 
L 165.891446 128.87293 
L 169.848876 130.541863 
L 173.806305 137.473573 
L 177.763735 141.904831 
L 189.636024 142.05327 
L 193.593454 141.199151 
L 197.550884 135.5474 
L 201.508313 144.912235 
L 205.465743 138.611197 
L 217.338032 146.776728 
L 221.295462 152.710766 
L 225.252892 151.219367 
L 229.210321 161.459376 
L 233.167751 172.465707 
L 245.04004 173.828766 
L 248.99747 164.094103 
L 252.9549 163.928072 
L 256.912329 169.092872 
L 260.869759 158.734772 
L 272.742048 152.582431 
L 276.699478 151.05507 
L 280.656908 160.902416 
L 284.614337 166.540905 
L 288.571767 171.880265 
L 300.444056 159.73004 
L 304.401486 164.536264 
L 308.358916 176.370619 
L 312.316345 169.377962 
L 316.273775 177.868777 
L 328.146064 186.833152 
L 332.103494 175.984417 
L 336.060924 189.748645 
L 340.018353 181.408668 
L 343.975783 181.913668 
L 355.848072 180.439619 
L 363.762932 176.420875 
L 367.720361 176.296922 
L 371.677791 182.236164 
L 383.55008 188.905694 
L 387.50751 181.973001 
L 391.46494 185.6439 
L 395.422369 186.861807 
L 399.379799 192.12719 
L 411.252088 178.823036 
L 415.209518 177.113896 
L 419.166948 186.112635 
L 423.124378 187.025962 
L 427.081807 185.992805 
L 438.954096 194.05236 
L 442.911526 199.576018 
L 446.868956 190.838514 
L 450.826386 187.671533 
L 454.783815 191.869262 
L 466.656104 187.829993 
L 470.613534 193.219222 
L 474.570964 195.842388 
L 478.528394 196.849995 
L 482.485823 203.917714 
L 494.358112 204.671913 
L 498.315542 204.635534 
L 502.272972 215.012057 
L 506.230402 226.830386 
L 510.187831 224.803945 
L 522.06012 228.556449 
L 526.01755 228.176205 
L 529.97498 219.823938 
L 533.93241 227.106762 
L 537.889839 236.096306 
L 549.762129 246.178575 
L 553.719558 242.046016 
L 557.676988 241.755396 
L 561.634418 242.195071 
L 565.591847 249.498486 
L 577.464137 259.04292 
L 581.421566 255.085019 
L 585.378996 255.339865 
L 589.336426 259.139793 
L 593.293855 254.902505 
L 605.166145 258.272911 
L 609.123574 245.974833 
L 613.081004 245.534603 
L 617.038434 251.602552 
L 620.995863 253.055935 
L 632.868153 260.620111 
L 636.825582 262.848864 
L 640.783012 253.169124 
L 644.740442 248.780355 
L 648.697871 235.786517 
L 660.570161 226.021856 
L 664.52759 211.088297 
L 668.48502 224.172047 
L 676.39988 225.082782 
L 688.272169 220.941824 
L 692.229598 226.175883 
L 696.187028 233.151475 
L 700.144458 238.040232 
L 704.101888 227.684938 
L 715.974177 229.292678 
L 719.931606 229.574649 
L 723.889036 234.574895 
L 727.846466 232.490789 
L 743.676185 227.098958 
L 747.633614 233.304414 
L 751.591044 230.702363 
L 755.548474 229.821809 
L 759.505904 233.094875 
L 771.378193 244.391474 
L 775.335622 254.941344 
L 779.293052 260.004209 
L 783.250482 256.860701 
L 787.207912 245.152072 
L 799.080201 232.866327 
L 803.037631 233.845565 
L 806.99506 231.933551 
L 810.95249 225.849691 
L 814.90992 221.348115 
L 826.782209 233.902121 
L 830.739639 225.392266 
L 834.697068 222.924227 
L 838.654498 219.215842 
L 842.611928 206.265009 
L 854.484217 200.905553 
L 858.441647 195.526354 
L 862.399076 185.480811 
L 866.356506 176.420542 
L 870.313936 173.017754 
L 882.186225 172.170517 
L 886.143655 179.339599 
L 890.101084 174.869506 
L 894.058514 180.557149 
L 898.015944 191.052922 
L 909.888233 191.169671 
L 913.845663 181.739372 
L 917.803092 173.339254 
L 921.760522 174.515927 
L 925.717952 164.388241 
L 937.590241 170.005523 
L 941.547671 167.700804 
L 945.5051 178.219661 
L 949.46253 168.787072 
L 953.41996 173.012943 
L 965.292249 163.977445 
L 969.249679 159.884275 
L 973.207108 165.309401 
L 977.164538 158.245067 
L 981.121968 165.997071 
L 992.994257 157.680856 
L 996.951687 156.535999 
L 1000.909116 151.041673 
L 1004.866546 147.770044 
L 1008.823976 151.818458 
L 1024.653695 162.892759 
L 1028.611124 172.215191 
L 1032.568554 167.422605 
L 1036.525984 163.594111 
L 1048.398273 166.534706 
L 1052.355703 171.708834 
L 1056.313133 174.532592 
L 1060.270562 176.31403 
L 1064.227992 175.019096 
L 1076.100281 176.530579 
L 1080.057711 183.283126 
L 1084.015141 183.365928 
L 1087.97257 188.348717 
L 1091.93 188.348717 
L 1091.93 188.348717 
" style="fill:none;stroke:#1f77b4;stroke-linecap:square;stroke-width:1.5;"/>
   </g>
   <g id="line2d_18">
    <path clip-path="url(#pedf70b5622)" d="M 106.53 142.501853 
L 110.48743 149.332257 
L 114.444859 153.690362 
L 118.402289 155.109989 
L 122.359719 146.187002 
L 134.232008 156.151896 
L 138.189438 155.694576 
L 142.146867 152.748423 
L 146.104297 168.045473 
L 150.061727 164.622069 
L 161.934016 175.587848 
L 165.891446 190.228074 
L 169.848876 176.3978 
L 173.806305 162.073878 
L 177.763735 152.44564 
L 189.636024 158.858012 
L 193.593454 172.352815 
L 197.550884 166.531993 
L 201.508313 168.469111 
L 205.465743 181.113622 
L 217.338032 181.268873 
L 221.295462 196.993276 
L 225.252892 184.335344 
L 229.210321 192.289682 
L 233.167751 187.143962 
L 245.04004 193.318878 
L 248.99747 192.674513 
L 252.9549 191.178658 
L 256.912329 201.651611 
L 260.869759 187.211397 
L 272.742048 178.594388 
L 276.699478 165.041474 
L 280.656908 152.815128 
L 284.614337 149.695787 
L 288.571767 136.66495 
L 300.444056 150.481258 
L 304.401486 160.572541 
L 308.358916 175.912874 
L 312.316345 181.633108 
L 316.273775 185.255219 
L 328.146064 192.785228 
L 332.103494 182.541773 
L 336.060924 187.217821 
L 340.018353 194.424979 
L 343.975783 193.05713 
L 355.848072 205.045665 
L 359.805502 195.605434 
L 363.762932 209.911272 
L 367.720361 194.962978 
L 371.677791 186.434066 
L 383.55008 196.431759 
L 387.50751 213.183534 
L 391.46494 203.341366 
L 395.422369 196.820037 
L 399.379799 189.615834 
L 411.252088 181.116657 
L 415.209518 195.440289 
L 419.166948 200.059628 
L 423.124378 212.918998 
L 427.081807 201.641414 
L 438.954096 197.722608 
L 442.911526 203.257334 
L 446.868956 217.950188 
L 450.826386 224.149471 
L 454.783815 229.874606 
L 466.656104 222.651977 
L 470.613534 218.286062 
L 474.570964 206.286935 
L 478.528394 207.18337 
L 482.485823 219.912965 
L 494.358112 213.194416 
L 498.315542 205.015544 
L 502.272972 203.056028 
L 506.230402 194.566102 
L 510.187831 194.765843 
L 522.06012 194.036107 
L 526.01755 196.38442 
L 529.97498 212.427348 
L 533.93241 225.564985 
L 537.889839 241.394412 
L 549.762129 237.064418 
L 553.719558 243.150933 
L 557.676988 242.87542 
L 561.634418 230.269657 
L 565.591847 238.545042 
L 577.464137 241.454485 
L 581.421566 233.435739 
L 585.378996 242.406798 
L 589.336426 256.627231 
L 593.293855 263.537992 
L 605.166145 274.824509 
L 609.123574 261.561718 
L 613.081004 251.941873 
L 617.038434 247.706072 
L 620.995863 236.178009 
L 632.868153 226.69303 
L 636.825582 237.107084 
L 640.783012 224.948392 
L 644.740442 223.68757 
L 648.697871 214.088341 
L 660.570161 201.82431 
L 664.52759 207.788994 
L 668.48502 220.851223 
L 672.44245 229.851643 
L 676.39988 232.2141 
L 688.272169 222.294676 
L 692.229598 211.088281 
L 696.187028 227.789007 
L 700.144458 227.4436 
L 704.101888 230.122964 
L 715.974177 239.321781 
L 719.931606 252.041935 
L 723.889036 257.353137 
L 727.846466 243.699385 
L 731.803896 249.490558 
L 743.676185 248.887132 
L 747.633614 242.484435 
L 751.591044 246.932885 
L 759.505904 218.197895 
L 771.378193 226.388959 
L 775.335622 226.477508 
L 779.293052 233.014999 
L 783.250482 240.090782 
L 787.207912 255.726573 
L 799.080201 252.239576 
L 803.037631 252.153406 
L 806.99506 267.272636 
L 810.95249 274.556799 
L 814.90992 261.93023 
L 826.782209 270.535538 
L 830.739639 282.386498 
L 834.697068 282.726198 
L 838.654498 267.81416 
L 842.611928 276.334861 
L 854.484217 270.889864 
L 858.441647 262.685475 
L 862.399076 271.356111 
L 866.356506 264.176239 
L 870.313936 268.487368 
L 882.186225 264.285977 
L 886.143655 260.046229 
L 890.101084 258.899332 
L 894.058514 272.652642 
L 898.015944 262.211121 
L 909.888233 268.083124 
L 913.845663 278.498948 
L 917.803092 293.996931 
L 921.760522 291.098853 
L 925.717952 285.485095 
L 937.590241 301.842259 
L 941.547671 301.453653 
L 945.5051 310.503055 
L 949.46253 305.898866 
L 953.41996 316.732358 
L 965.292249 310.703623 
L 969.249679 314.389648 
L 973.207108 300.918643 
L 977.164538 313.025189 
L 981.121968 318.221668 
L 992.994257 331.164545 
L 996.951687 318.050079 
L 1000.909116 306.346052 
L 1004.866546 314.328732 
L 1008.823976 309.262124 
L 1020.696265 299.366677 
L 1024.653695 297.600408 
L 1028.611124 296.649264 
L 1032.568554 305.176851 
L 1036.525984 318.831609 
L 1048.398273 306.53406 
L 1052.355703 294.141092 
L 1056.313133 289.914765 
L 1060.270562 295.178932 
L 1064.227992 300.105042 
L 1076.100281 292.994744 
L 1084.015141 268.704984 
L 1087.97257 259.943409 
L 1087.97257 259.943409 
" style="fill:none;stroke:#ff7f0e;stroke-linecap:square;stroke-width:1.5;"/>
   </g>
   <g id="line2d_19">
    <path clip-path="url(#pedf70b5622)" d="M 106.53 116.622256 
L 110.48743 102.637881 
L 114.444859 106.956555 
L 118.402289 105.62529 
L 122.359719 111.003739 
L 134.232008 111.859929 
L 138.189438 99.022134 
L 142.146867 100.260961 
L 146.104297 93.735292 
L 150.061727 86.35375 
L 161.934016 76.931585 
L 165.891446 72.38989 
L 169.848876 89.356481 
L 173.806305 112.742346 
L 177.763735 127.710611 
L 189.636024 121.68693 
L 193.593454 108.446416 
L 197.550884 108.62172 
L 201.508313 115.958472 
L 205.465743 98.36965 
L 217.338032 106.372008 
L 221.295462 97.468596 
L 225.252892 109.584537 
L 229.210321 111.75919 
L 233.167751 128.464467 
L 245.04004 123.831229 
L 248.99747 114.705462 
L 252.9549 116.047761 
L 256.912329 111.069053 
L 260.869759 115.539923 
L 272.742048 118.141314 
L 276.699478 131.268185 
L 280.656908 155.221122 
L 284.614337 164.15528 
L 288.571767 184.175864 
L 300.444056 160.195059 
L 304.401486 155.22644 
L 308.358916 152.036206 
L 312.316345 139.750899 
L 316.273775 144.509585 
L 328.146064 145.878076 
L 332.103494 145.23308 
L 336.060924 154.053618 
L 340.018353 139.157084 
L 343.975783 141.04602 
L 355.848072 128.513588 
L 359.805502 136.340099 
L 363.762932 121.406601 
L 367.720361 137.750254 
L 371.677791 153.044815 
L 383.55008 149.91526 
L 387.50751 128.423691 
L 391.46494 142.828629 
L 395.422369 150.896211 
L 399.379799 163.960738 
L 411.252088 158.899132 
L 415.209518 144.171633 
L 419.166948 148.425411 
L 423.124378 137.36633 
L 427.081807 148.380754 
L 438.954096 160.666063 
L 442.911526 160.65537 
L 446.868956 139.13959 
L 450.826386 130.117663 
L 454.783815 128.643415 
L 466.656104 131.974484 
L 470.613534 142.006549 
L 474.570964 157.818679 
L 478.528394 157.929233 
L 482.485823 152.691185 
L 494.358112 160.490488 
L 498.315542 169.069191 
L 502.272972 181.562439 
L 506.230402 203.048052 
L 510.187831 200.824614 
L 522.06012 205.32752 
L 526.01755 202.638176 
L 529.97498 180.405935 
L 533.93241 175.002644 
L 537.889839 168.791546 
L 549.762129 183.615684 
L 553.719558 173.764653 
L 557.676988 173.74952 
L 561.634418 187.906472 
L 565.591847 186.983099 
L 577.464137 193.496727 
L 581.421566 197.767902 
L 585.378996 189.51254 
L 589.336426 179.947977 
L 593.293855 169.253464 
L 605.166145 161.861586 
L 609.123574 162.909475 
L 613.081004 172.672284 
L 617.038434 183.260191 
L 620.995863 197.249186 
L 632.868153 215.394399 
L 636.825582 207.710146 
L 640.783012 210.385351 
L 644.740442 207.233033 
L 648.697871 203.632015 
L 660.570161 206.33105 
L 664.52759 186.147737 
L 668.48502 186.167579 
L 672.44245 178.068743 
L 676.39988 176.19683 
L 688.272169 182.349941 
L 692.229598 200.04411 
L 696.187028 191.252258 
L 700.144458 196.497858 
L 704.101888 183.670145 
L 715.974177 176.491698 
L 719.931606 164.966101 
L 723.889036 164.665234 
L 727.846466 177.301021 
L 731.803896 170.417429 
L 743.676185 166.955429 
L 747.633614 180.097001 
L 751.591044 173.234752 
L 755.548474 188.206201 
L 759.505904 207.428799 
L 771.378193 210.378742 
L 775.335622 220.834114 
L 779.293052 219.417958 
L 783.250482 209.625309 
L 787.207912 184.627066 
L 799.080201 175.640799 
L 803.037631 176.70678 
L 806.99506 161.131789 
L 810.95249 148.33266 
L 814.90992 157.139568 
L 826.782209 160.880177 
L 830.739639 141.883404 
L 834.697068 139.081537 
L 838.654498 151.416157 
L 842.611928 130.984932 
L 854.484217 131.073418 
L 858.441647 134.047808 
L 862.399076 116.261418 
L 866.356506 114.295716 
L 870.313936 106.781091 
L 882.186225 110.224956 
L 886.143655 121.949844 
L 890.101084 118.603117 
L 894.058514 111.183366 
L 898.015944 133.627227 
L 909.888233 128.074745 
L 913.845663 109.403489 
L 917.803092 87.558095 
L 921.760522 91.707882 
L 925.717952 87.035959 
L 937.590241 77.30368 
L 941.547671 75.382961 
L 945.5051 76.771687 
L 949.46253 71.805239 
L 953.41996 65.619786 
L 965.292249 62.499308 
L 969.249679 54.892234 
L 973.207108 75.549316 
L 977.164538 57.693991 
L 981.121968 60.167656 
L 992.994257 40.455455 
L 996.951687 53.484005 
L 1000.909116 60.172213 
L 1004.866546 49.444984 
L 1008.823976 58.860359 
L 1020.696265 78.300926 
L 1024.653695 82.875137 
L 1028.611124 93.211636 
L 1032.568554 80.552833 
L 1036.525984 64.423452 
L 1048.398273 80.936389 
L 1052.355703 99.996921 
L 1056.313133 107.238969 
L 1060.270562 103.867196 
L 1064.227992 97.830292 
L 1076.100281 106.85283 
L 1080.057711 127.513797 
L 1084.015141 140.565953 
L 1087.97257 155.115492 
L 1087.97257 155.115492 
" style="fill:none;stroke:#2ca02c;stroke-linecap:square;stroke-width:1.5;"/>
   </g>
   <g id="patch_3">
    <path d="M 57.26 345.7 
L 57.26 25.92 
" style="fill:none;stroke:#000000;stroke-linecap:square;stroke-linejoin:miter;stroke-width:0.8;"/>
   </g>
   <g id="patch_4">
    <path d="M 1141.2 345.7 
L 1141.2 25.92 
" style="fill:none;stroke:#000000;stroke-linecap:square;stroke-linejoin:miter;stroke-width:0.8;"/>
   </g>
   <g id="patch_5">
    <path d="M 57.26 345.7 
L 1141.2 345.7 
" style="fill:none;stroke:#000000;stroke-linecap:square;stroke-linejoin:miter;stroke-width:0.8;"/>
   </g>
   <g id="patch_6">
    <path d="M 57.26 25.92 
L 1141.2 25.92 
" style="fill:none;stroke:#000000;stroke-linecap:square;stroke-linejoin:miter;stroke-width:0.8;"/>
   </g>
   <g id="text_10">
    <!-- Cumulative Log Return: (2010-02-01 ~ 2010-10-08) -->
    <g transform="translate(443.352812 19.92)scale(0.12 -0.12)">
     <defs>
      <path d="M 64.40625 67.28125 
L 64.40625 56.890625 
Q 59.421875 61.53125 53.78125 63.8125 
Q 48.140625 66.109375 41.796875 66.109375 
Q 29.296875 66.109375 22.65625 58.46875 
Q 16.015625 50.828125 16.015625 36.375 
Q 16.015625 21.96875 22.65625 14.328125 
Q 29.296875 6.6875 41.796875 6.6875 
Q 48.140625 6.6875 53.78125 8.984375 
Q 59.421875 11.28125 64.40625 15.921875 
L 64.40625 5.609375 
Q 59.234375 2.09375 53.4375 0.328125 
Q 47.65625 -1.421875 41.21875 -1.421875 
Q 24.65625 -1.421875 15.125 8.703125 
Q 5.609375 18.84375 5.609375 36.375 
Q 5.609375 53.953125 15.125 64.078125 
Q 24.65625 74.21875 41.21875 74.21875 
Q 47.75 74.21875 53.53125 72.484375 
Q 59.328125 70.75 64.40625 67.28125 
z
" id="DejaVuSans-67"/>
      <path d="M 34.28125 27.484375 
Q 23.390625 27.484375 19.1875 25 
Q 14.984375 22.515625 14.984375 16.5 
Q 14.984375 11.71875 18.140625 8.90625 
Q 21.296875 6.109375 26.703125 6.109375 
Q 34.1875 6.109375 38.703125 11.40625 
Q 43.21875 16.703125 43.21875 25.484375 
L 43.21875 27.484375 
z
M 52.203125 31.203125 
L 52.203125 0 
L 43.21875 0 
L 43.21875 8.296875 
Q 40.140625 3.328125 35.546875 0.953125 
Q 30.953125 -1.421875 24.3125 -1.421875 
Q 15.921875 -1.421875 10.953125 3.296875 
Q 6 8.015625 6 15.921875 
Q 6 25.140625 12.171875 29.828125 
Q 18.359375 34.515625 30.609375 34.515625 
L 43.21875 34.515625 
L 43.21875 35.40625 
Q 43.21875 41.609375 39.140625 45 
Q 35.0625 48.390625 27.6875 48.390625 
Q 23 48.390625 18.546875 47.265625 
Q 14.109375 46.140625 10.015625 43.890625 
L 10.015625 52.203125 
Q 14.9375 54.109375 19.578125 55.046875 
Q 24.21875 56 28.609375 56 
Q 40.484375 56 46.34375 49.84375 
Q 52.203125 43.703125 52.203125 31.203125 
z
" id="DejaVuSans-97"/>
      <path d="M 9.421875 54.6875 
L 18.40625 54.6875 
L 18.40625 0 
L 9.421875 0 
z
M 9.421875 75.984375 
L 18.40625 75.984375 
L 18.40625 64.59375 
L 9.421875 64.59375 
z
" id="DejaVuSans-105"/>
      <path d="M 2.984375 54.6875 
L 12.5 54.6875 
L 29.59375 8.796875 
L 46.6875 54.6875 
L 56.203125 54.6875 
L 35.6875 0 
L 23.484375 0 
z
" id="DejaVuSans-118"/>
      <path d="M 9.8125 72.90625 
L 19.671875 72.90625 
L 19.671875 8.296875 
L 55.171875 8.296875 
L 55.171875 0 
L 9.8125 0 
z
" id="DejaVuSans-76"/>
      <path d="M 44.390625 34.1875 
Q 47.5625 33.109375 50.5625 29.59375 
Q 53.5625 26.078125 56.59375 19.921875 
L 66.609375 0 
L 56 0 
L 46.6875 18.703125 
Q 43.0625 26.03125 39.671875 28.421875 
Q 36.28125 30.8125 30.421875 30.8125 
L 19.671875 30.8125 
L 19.671875 0 
L 9.8125 0 
L 9.8125 72.90625 
L 32.078125 72.90625 
Q 44.578125 72.90625 50.734375 67.671875 
Q 56.890625 62.453125 56.890625 51.90625 
Q 56.890625 45.015625 53.6875 40.46875 
Q 50.484375 35.9375 44.390625 34.1875 
z
M 19.671875 64.796875 
L 19.671875 38.921875 
L 32.078125 38.921875 
Q 39.203125 38.921875 42.84375 42.21875 
Q 46.484375 45.515625 46.484375 51.90625 
Q 46.484375 58.296875 42.84375 61.546875 
Q 39.203125 64.796875 32.078125 64.796875 
z
" id="DejaVuSans-82"/>
      <path d="M 11.71875 12.40625 
L 22.015625 12.40625 
L 22.015625 0 
L 11.71875 0 
z
M 11.71875 51.703125 
L 22.015625 51.703125 
L 22.015625 39.3125 
L 11.71875 39.3125 
z
" id="DejaVuSans-58"/>
      <path d="M 31 75.875 
Q 24.46875 64.65625 21.28125 53.65625 
Q 18.109375 42.671875 18.109375 31.390625 
Q 18.109375 20.125 21.3125 9.0625 
Q 24.515625 -2 31 -13.1875 
L 23.1875 -13.1875 
Q 15.875 -1.703125 12.234375 9.375 
Q 8.59375 20.453125 8.59375 31.390625 
Q 8.59375 42.28125 12.203125 53.3125 
Q 15.828125 64.359375 23.1875 75.875 
z
" id="DejaVuSans-40"/>
      <path d="M 73.1875 39.890625 
L 73.1875 31.203125 
Q 68.0625 27.34375 63.6875 25.6875 
Q 59.328125 24.03125 54.59375 24.03125 
Q 49.21875 24.03125 42.09375 26.90625 
Q 41.546875 27.09375 41.3125 27.203125 
Q 40.96875 27.34375 40.234375 27.59375 
Q 32.671875 30.609375 28.078125 30.609375 
Q 23.78125 30.609375 19.578125 28.734375 
Q 15.375 26.859375 10.59375 22.796875 
L 10.59375 31.5 
Q 15.71875 35.359375 20.09375 37.03125 
Q 24.46875 38.71875 29.203125 38.71875 
Q 34.578125 38.71875 41.75 35.796875 
Q 42.234375 35.59375 42.484375 35.5 
Q 42.875 35.359375 43.5625 35.109375 
Q 51.125 32.078125 55.71875 32.078125 
Q 59.90625 32.078125 64.03125 33.9375 
Q 68.171875 35.796875 73.1875 39.890625 
z
" id="DejaVuSans-126"/>
      <path d="M 31.78125 34.625 
Q 24.75 34.625 20.71875 30.859375 
Q 16.703125 27.09375 16.703125 20.515625 
Q 16.703125 13.921875 20.71875 10.15625 
Q 24.75 6.390625 31.78125 6.390625 
Q 38.8125 6.390625 42.859375 10.171875 
Q 46.921875 13.96875 46.921875 20.515625 
Q 46.921875 27.09375 42.890625 30.859375 
Q 38.875 34.625 31.78125 34.625 
z
M 21.921875 38.8125 
Q 15.578125 40.375 12.03125 44.71875 
Q 8.5 49.078125 8.5 55.328125 
Q 8.5 64.0625 14.71875 69.140625 
Q 20.953125 74.21875 31.78125 74.21875 
Q 42.671875 74.21875 48.875 69.140625 
Q 55.078125 64.0625 55.078125 55.328125 
Q 55.078125 49.078125 51.53125 44.71875 
Q 48 40.375 41.703125 38.8125 
Q 48.828125 37.15625 52.796875 32.3125 
Q 56.78125 27.484375 56.78125 20.515625 
Q 56.78125 9.90625 50.3125 4.234375 
Q 43.84375 -1.421875 31.78125 -1.421875 
Q 19.734375 -1.421875 13.25 4.234375 
Q 6.78125 9.90625 6.78125 20.515625 
Q 6.78125 27.484375 10.78125 32.3125 
Q 14.796875 37.15625 21.921875 38.8125 
z
M 18.3125 54.390625 
Q 18.3125 48.734375 21.84375 45.5625 
Q 25.390625 42.390625 31.78125 42.390625 
Q 38.140625 42.390625 41.71875 45.5625 
Q 45.3125 48.734375 45.3125 54.390625 
Q 45.3125 60.0625 41.71875 63.234375 
Q 38.140625 66.40625 31.78125 66.40625 
Q 25.390625 66.40625 21.84375 63.234375 
Q 18.3125 60.0625 18.3125 54.390625 
z
" id="DejaVuSans-56"/>
      <path d="M 8.015625 75.875 
L 15.828125 75.875 
Q 23.140625 64.359375 26.78125 53.3125 
Q 30.421875 42.28125 30.421875 31.390625 
Q 30.421875 20.453125 26.78125 9.375 
Q 23.140625 -1.703125 15.828125 -13.1875 
L 8.015625 -13.1875 
Q 14.5 -2 17.703125 9.0625 
Q 20.90625 20.125 20.90625 31.390625 
Q 20.90625 42.671875 17.703125 53.65625 
Q 14.5 64.65625 8.015625 75.875 
z
" id="DejaVuSans-41"/>
     </defs>
     <use xlink:href="#DejaVuSans-67"/>
     <use x="69.824219" xlink:href="#DejaVuSans-117"/>
     <use x="133.203125" xlink:href="#DejaVuSans-109"/>
     <use x="230.615234" xlink:href="#DejaVuSans-117"/>
     <use x="293.994141" xlink:href="#DejaVuSans-108"/>
     <use x="321.777344" xlink:href="#DejaVuSans-97"/>
     <use x="383.056641" xlink:href="#DejaVuSans-116"/>
     <use x="422.265625" xlink:href="#DejaVuSans-105"/>
     <use x="450.048828" xlink:href="#DejaVuSans-118"/>
     <use x="509.228516" xlink:href="#DejaVuSans-101"/>
     <use x="570.751953" xlink:href="#DejaVuSans-32"/>
     <use x="602.539062" xlink:href="#DejaVuSans-76"/>
     <use x="656.501953" xlink:href="#DejaVuSans-111"/>
     <use x="717.683594" xlink:href="#DejaVuSans-103"/>
     <use x="781.160156" xlink:href="#DejaVuSans-32"/>
     <use x="812.947266" xlink:href="#DejaVuSans-82"/>
     <use x="877.929688" xlink:href="#DejaVuSans-101"/>
     <use x="939.453125" xlink:href="#DejaVuSans-116"/>
     <use x="978.662109" xlink:href="#DejaVuSans-117"/>
     <use x="1042.041016" xlink:href="#DejaVuSans-114"/>
     <use x="1081.404297" xlink:href="#DejaVuSans-110"/>
     <use x="1144.783203" xlink:href="#DejaVuSans-58"/>
     <use x="1178.474609" xlink:href="#DejaVuSans-32"/>
     <use x="1210.261719" xlink:href="#DejaVuSans-40"/>
     <use x="1249.275391" xlink:href="#DejaVuSans-50"/>
     <use x="1312.898438" xlink:href="#DejaVuSans-48"/>
     <use x="1376.521484" xlink:href="#DejaVuSans-49"/>
     <use x="1440.144531" xlink:href="#DejaVuSans-48"/>
     <use x="1503.767578" xlink:href="#DejaVuSans-45"/>
     <use x="1539.851562" xlink:href="#DejaVuSans-48"/>
     <use x="1603.474609" xlink:href="#DejaVuSans-50"/>
     <use x="1667.097656" xlink:href="#DejaVuSans-45"/>
     <use x="1703.181641" xlink:href="#DejaVuSans-48"/>
     <use x="1766.804688" xlink:href="#DejaVuSans-49"/>
     <use x="1830.427734" xlink:href="#DejaVuSans-32"/>
     <use x="1862.214844" xlink:href="#DejaVuSans-126"/>
     <use x="1946.003906" xlink:href="#DejaVuSans-32"/>
     <use x="1977.791016" xlink:href="#DejaVuSans-50"/>
     <use x="2041.414062" xlink:href="#DejaVuSans-48"/>
     <use x="2105.037109" xlink:href="#DejaVuSans-49"/>
     <use x="2168.660156" xlink:href="#DejaVuSans-48"/>
     <use x="2232.283203" xlink:href="#DejaVuSans-45"/>
     <use x="2268.367188" xlink:href="#DejaVuSans-49"/>
     <use x="2331.990234" xlink:href="#DejaVuSans-48"/>
     <use x="2395.613281" xlink:href="#DejaVuSans-45"/>
     <use x="2431.697266" xlink:href="#DejaVuSans-48"/>
     <use x="2495.320312" xlink:href="#DejaVuSans-56"/>
     <use x="2558.943359" xlink:href="#DejaVuSans-41"/>
    </g>
   </g>
   <g id="legend_1">
    <g id="patch_7">
     <path d="M 64.26 77.954375 
L 152.705312 77.954375 
Q 154.705312 77.954375 154.705312 75.954375 
L 154.705312 32.92 
Q 154.705312 30.92 152.705312 30.92 
L 64.26 30.92 
Q 62.26 30.92 62.26 32.92 
L 62.26 75.954375 
Q 62.26 77.954375 64.26 77.954375 
z
" style="fill:#ffffff;opacity:0.8;stroke:#cccccc;stroke-linejoin:miter;"/>
    </g>
    <g id="line2d_20">
     <path d="M 66.26 39.018437 
L 86.26 39.018437 
" style="fill:none;stroke:#1f77b4;stroke-linecap:square;stroke-width:1.5;"/>
    </g>
    <g id="line2d_21"/>
    <g id="text_11">
     <!-- strategy -->
     <g transform="translate(94.26 42.518437)scale(0.1 -0.1)">
      <defs>
       <path d="M 32.171875 -5.078125 
Q 28.375 -14.84375 24.75 -17.8125 
Q 21.140625 -20.796875 15.09375 -20.796875 
L 7.90625 -20.796875 
L 7.90625 -13.28125 
L 13.1875 -13.28125 
Q 16.890625 -13.28125 18.9375 -11.515625 
Q 21 -9.765625 23.484375 -3.21875 
L 25.09375 0.875 
L 2.984375 54.6875 
L 12.5 54.6875 
L 29.59375 11.921875 
L 46.6875 54.6875 
L 56.203125 54.6875 
z
" id="DejaVuSans-121"/>
      </defs>
      <use xlink:href="#DejaVuSans-115"/>
      <use x="52.099609" xlink:href="#DejaVuSans-116"/>
      <use x="91.308594" xlink:href="#DejaVuSans-114"/>
      <use x="132.421875" xlink:href="#DejaVuSans-97"/>
      <use x="193.701172" xlink:href="#DejaVuSans-116"/>
      <use x="232.910156" xlink:href="#DejaVuSans-101"/>
      <use x="294.433594" xlink:href="#DejaVuSans-103"/>
      <use x="357.910156" xlink:href="#DejaVuSans-121"/>
     </g>
    </g>
    <g id="line2d_22">
     <path d="M 66.26 53.696562 
L 86.26 53.696562 
" style="fill:none;stroke:#ff7f0e;stroke-linecap:square;stroke-width:1.5;"/>
    </g>
    <g id="line2d_23"/>
    <g id="text_12">
     <!-- benchmark -->
     <g transform="translate(94.26 57.196562)scale(0.1 -0.1)">
      <defs>
       <path d="M 48.6875 27.296875 
Q 48.6875 37.203125 44.609375 42.84375 
Q 40.53125 48.484375 33.40625 48.484375 
Q 26.265625 48.484375 22.1875 42.84375 
Q 18.109375 37.203125 18.109375 27.296875 
Q 18.109375 17.390625 22.1875 11.75 
Q 26.265625 6.109375 33.40625 6.109375 
Q 40.53125 6.109375 44.609375 11.75 
Q 48.6875 17.390625 48.6875 27.296875 
z
M 18.109375 46.390625 
Q 20.953125 51.265625 25.265625 53.625 
Q 29.59375 56 35.59375 56 
Q 45.5625 56 51.78125 48.09375 
Q 58.015625 40.1875 58.015625 27.296875 
Q 58.015625 14.40625 51.78125 6.484375 
Q 45.5625 -1.421875 35.59375 -1.421875 
Q 29.59375 -1.421875 25.265625 0.953125 
Q 20.953125 3.328125 18.109375 8.203125 
L 18.109375 0 
L 9.078125 0 
L 9.078125 75.984375 
L 18.109375 75.984375 
z
" id="DejaVuSans-98"/>
       <path d="M 54.890625 33.015625 
L 54.890625 0 
L 45.90625 0 
L 45.90625 32.71875 
Q 45.90625 40.484375 42.875 44.328125 
Q 39.84375 48.1875 33.796875 48.1875 
Q 26.515625 48.1875 22.3125 43.546875 
Q 18.109375 38.921875 18.109375 30.90625 
L 18.109375 0 
L 9.078125 0 
L 9.078125 75.984375 
L 18.109375 75.984375 
L 18.109375 46.1875 
Q 21.34375 51.125 25.703125 53.5625 
Q 30.078125 56 35.796875 56 
Q 45.21875 56 50.046875 50.171875 
Q 54.890625 44.34375 54.890625 33.015625 
z
" id="DejaVuSans-104"/>
       <path d="M 9.078125 75.984375 
L 18.109375 75.984375 
L 18.109375 31.109375 
L 44.921875 54.6875 
L 56.390625 54.6875 
L 27.390625 29.109375 
L 57.625 0 
L 45.90625 0 
L 18.109375 26.703125 
L 18.109375 0 
L 9.078125 0 
z
" id="DejaVuSans-107"/>
      </defs>
      <use xlink:href="#DejaVuSans-98"/>
      <use x="63.476562" xlink:href="#DejaVuSans-101"/>
      <use x="125" xlink:href="#DejaVuSans-110"/>
      <use x="188.378906" xlink:href="#DejaVuSans-99"/>
      <use x="243.359375" xlink:href="#DejaVuSans-104"/>
      <use x="306.738281" xlink:href="#DejaVuSans-109"/>
      <use x="404.150391" xlink:href="#DejaVuSans-97"/>
      <use x="465.429688" xlink:href="#DejaVuSans-114"/>
      <use x="506.542969" xlink:href="#DejaVuSans-107"/>
     </g>
    </g>
    <g id="line2d_24">
     <path d="M 66.26 68.374687 
L 86.26 68.374687 
" style="fill:none;stroke:#2ca02c;stroke-linecap:square;stroke-width:1.5;"/>
    </g>
    <g id="line2d_25"/>
    <g id="text_13">
     <!-- excess -->
     <g transform="translate(94.26 71.874687)scale(0.1 -0.1)">
      <defs>
       <path d="M 54.890625 54.6875 
L 35.109375 28.078125 
L 55.90625 0 
L 45.3125 0 
L 29.390625 21.484375 
L 13.484375 0 
L 2.875 0 
L 24.125 28.609375 
L 4.6875 54.6875 
L 15.28125 54.6875 
L 29.78125 35.203125 
L 44.28125 54.6875 
z
" id="DejaVuSans-120"/>
      </defs>
      <use xlink:href="#DejaVuSans-101"/>
      <use x="59.773438" xlink:href="#DejaVuSans-120"/>
      <use x="117.203125" xlink:href="#DejaVuSans-99"/>
      <use x="172.183594" xlink:href="#DejaVuSans-101"/>
      <use x="233.707031" xlink:href="#DejaVuSans-115"/>
      <use x="285.806641" xlink:href="#DejaVuSans-115"/>
     </g>
    </g>
   </g>
  </g>
 </g>
 <defs>
  <clipPath id="pedf70b5622">
   <rect height="319.78" width="1083.94" x="57.26" y="25.92"/>
  </clipPath>
 </defs>
</svg>
