<?xml version="1.0" encoding="utf-8" standalone="no"?>
<!DOCTYPE svg PUBLIC "-//W3C//DTD SVG 1.1//EN"
  "http://www.w3.org/Graphics/SVG/1.1/DTD/svg11.dtd">
<!-- Created with matplotlib (https://matplotlib.org/) -->
<svg height="360pt" version="1.1" viewBox="0 0 1152 360" width="1152pt" xmlns="http://www.w3.org/2000/svg" xmlns:xlink="http://www.w3.org/1999/xlink">
 <metadata>
  <rdf:RDF xmlns:cc="http://creativecommons.org/ns#" xmlns:dc="http://purl.org/dc/elements/1.1/" xmlns:rdf="http://www.w3.org/1999/02/22-rdf-syntax-ns#">
   <cc:Work>
    <dc:type rdf:resource="http://purl.org/dc/dcmitype/StillImage"/>
    <dc:date>2023-10-11T16:59:14.584593</dc:date>
    <dc:format>image/svg+xml</dc:format>
    <dc:creator>
     <cc:Agent>
      <dc:title>Matplotlib v3.3.4, https://matplotlib.org/</dc:title>
     </cc:Agent>
    </dc:creator>
   </cc:Work>
  </rdf:RDF>
 </metadata>
 <defs>
  <style type="text/css">*{stroke-linecap:butt;stroke-linejoin:round;}</style>
 </defs>
 <g id="figure_1">
  <g id="patch_1">
   <path d="M 0 360 
L 1152 360 
L 1152 0 
L 0 0 
z
" style="fill:#ffffff;"/>
  </g>
  <g id="axes_1">
   <g id="patch_2">
    <path d="M 50.9 316.76 
L 1141.2 316.76 
L 1141.2 25.92 
L 50.9 25.92 
z
" style="fill:#ffffff;"/>
   </g>
   <g id="matplotlib.axis_1">
    <g id="xtick_1">
     <g id="line2d_1">
      <path clip-path="url(#p7c6ecb814d)" d="M 82.437603 316.76 
L 82.437603 25.92 
" style="fill:none;stroke:#b0b0b0;stroke-linecap:square;stroke-width:0.8;"/>
     </g>
     <g id="line2d_2">
      <defs>
       <path d="M 0 0 
L 0 3.5 
" id="mad39ed9f6f" style="stroke:#000000;stroke-width:0.8;"/>
      </defs>
      <g>
       <use style="stroke:#000000;stroke-width:0.8;" x="82.437603" xlink:href="#mad39ed9f6f" y="316.76"/>
      </g>
     </g>
     <g id="text_1">
      <!-- 2010 -->
      <g transform="translate(85.196978 349.21)rotate(-90)scale(0.1 -0.1)">
       <defs>
        <path d="M 19.1875 8.296875 
L 53.609375 8.296875 
L 53.609375 0 
L 7.328125 0 
L 7.328125 8.296875 
Q 12.9375 14.109375 22.625 23.890625 
Q 32.328125 33.6875 34.8125 36.53125 
Q 39.546875 41.84375 41.421875 45.53125 
Q 43.3125 49.21875 43.3125 52.78125 
Q 43.3125 58.59375 39.234375 62.25 
Q 35.15625 65.921875 28.609375 65.921875 
Q 23.96875 65.921875 18.8125 64.3125 
Q 13.671875 62.703125 7.8125 59.421875 
L 7.8125 69.390625 
Q 13.765625 71.78125 18.9375 73 
Q 24.125 74.21875 28.421875 74.21875 
Q 39.75 74.21875 46.484375 68.546875 
Q 53.21875 62.890625 53.21875 53.421875 
Q 53.21875 48.921875 51.53125 44.890625 
Q 49.859375 40.875 45.40625 35.40625 
Q 44.1875 33.984375 37.640625 27.21875 
Q 31.109375 20.453125 19.1875 8.296875 
z
" id="DejaVuSans-50"/>
        <path d="M 31.78125 66.40625 
Q 24.171875 66.40625 20.328125 58.90625 
Q 16.5 51.421875 16.5 36.375 
Q 16.5 21.390625 20.328125 13.890625 
Q 24.171875 6.390625 31.78125 6.390625 
Q 39.453125 6.390625 43.28125 13.890625 
Q 47.125 21.390625 47.125 36.375 
Q 47.125 51.421875 43.28125 58.90625 
Q 39.453125 66.40625 31.78125 66.40625 
z
M 31.78125 74.21875 
Q 44.046875 74.21875 50.515625 64.515625 
Q 56.984375 54.828125 56.984375 36.375 
Q 56.984375 17.96875 50.515625 8.265625 
Q 44.046875 -1.421875 31.78125 -1.421875 
Q 19.53125 -1.421875 13.0625 8.265625 
Q 6.59375 17.96875 6.59375 36.375 
Q 6.59375 54.828125 13.0625 64.515625 
Q 19.53125 74.21875 31.78125 74.21875 
z
" id="DejaVuSans-48"/>
        <path d="M 12.40625 8.296875 
L 28.515625 8.296875 
L 28.515625 63.921875 
L 10.984375 60.40625 
L 10.984375 69.390625 
L 28.421875 72.90625 
L 38.28125 72.90625 
L 38.28125 8.296875 
L 54.390625 8.296875 
L 54.390625 0 
L 12.40625 0 
z
" id="DejaVuSans-49"/>
       </defs>
       <use xlink:href="#DejaVuSans-50"/>
       <use x="63.623047" xlink:href="#DejaVuSans-48"/>
       <use x="127.246094" xlink:href="#DejaVuSans-49"/>
       <use x="190.869141" xlink:href="#DejaVuSans-48"/>
      </g>
     </g>
    </g>
   </g>
   <g id="matplotlib.axis_2">
    <g id="ytick_1">
     <g id="line2d_3">
      <path clip-path="url(#p7c6ecb814d)" d="M 50.9 291.3932 
L 1141.2 291.3932 
" style="fill:none;stroke:#b0b0b0;stroke-linecap:square;stroke-width:0.8;"/>
     </g>
     <g id="line2d_4">
      <defs>
       <path d="M 0 0 
L -3.5 0 
" id="m002752d9ce" style="stroke:#000000;stroke-width:0.8;"/>
      </defs>
      <g>
       <use style="stroke:#000000;stroke-width:0.8;" x="50.9" xlink:href="#m002752d9ce" y="291.3932"/>
      </g>
     </g>
     <g id="text_2">
      <!-- -2.0 -->
      <g transform="translate(24.389062 295.192419)scale(0.1 -0.1)">
       <defs>
        <path d="M 4.890625 31.390625 
L 31.203125 31.390625 
L 31.203125 23.390625 
L 4.890625 23.390625 
z
" id="DejaVuSans-45"/>
        <path d="M 10.6875 12.40625 
L 21 12.40625 
L 21 0 
L 10.6875 0 
z
" id="DejaVuSans-46"/>
       </defs>
       <use xlink:href="#DejaVuSans-45"/>
       <use x="36.083984" xlink:href="#DejaVuSans-50"/>
       <use x="99.707031" xlink:href="#DejaVuSans-46"/>
       <use x="131.494141" xlink:href="#DejaVuSans-48"/>
      </g>
     </g>
    </g>
    <g id="ytick_2">
     <g id="line2d_5">
      <path clip-path="url(#p7c6ecb814d)" d="M 50.9 251.330077 
L 1141.2 251.330077 
" style="fill:none;stroke:#b0b0b0;stroke-linecap:square;stroke-width:0.8;"/>
     </g>
     <g id="line2d_6">
      <g>
       <use style="stroke:#000000;stroke-width:0.8;" x="50.9" xlink:href="#m002752d9ce" y="251.330077"/>
      </g>
     </g>
     <g id="text_3">
      <!-- -1.5 -->
      <g transform="translate(24.389062 255.129296)scale(0.1 -0.1)">
       <defs>
        <path d="M 10.796875 72.90625 
L 49.515625 72.90625 
L 49.515625 64.59375 
L 19.828125 64.59375 
L 19.828125 46.734375 
Q 21.96875 47.46875 24.109375 47.828125 
Q 26.265625 48.1875 28.421875 48.1875 
Q 40.625 48.1875 47.75 41.5 
Q 54.890625 34.8125 54.890625 23.390625 
Q 54.890625 11.625 47.5625 5.09375 
Q 40.234375 -1.421875 26.90625 -1.421875 
Q 22.3125 -1.421875 17.546875 -0.640625 
Q 12.796875 0.140625 7.71875 1.703125 
L 7.71875 11.625 
Q 12.109375 9.234375 16.796875 8.0625 
Q 21.484375 6.890625 26.703125 6.890625 
Q 35.15625 6.890625 40.078125 11.328125 
Q 45.015625 15.765625 45.015625 23.390625 
Q 45.015625 31 40.078125 35.4375 
Q 35.15625 39.890625 26.703125 39.890625 
Q 22.75 39.890625 18.8125 39.015625 
Q 14.890625 38.140625 10.796875 36.28125 
z
" id="DejaVuSans-53"/>
       </defs>
       <use xlink:href="#DejaVuSans-45"/>
       <use x="36.083984" xlink:href="#DejaVuSans-49"/>
       <use x="99.707031" xlink:href="#DejaVuSans-46"/>
       <use x="131.494141" xlink:href="#DejaVuSans-53"/>
      </g>
     </g>
    </g>
    <g id="ytick_3">
     <g id="line2d_7">
      <path clip-path="url(#p7c6ecb814d)" d="M 50.9 211.266955 
L 1141.2 211.266955 
" style="fill:none;stroke:#b0b0b0;stroke-linecap:square;stroke-width:0.8;"/>
     </g>
     <g id="line2d_8">
      <g>
       <use style="stroke:#000000;stroke-width:0.8;" x="50.9" xlink:href="#m002752d9ce" y="211.266955"/>
      </g>
     </g>
     <g id="text_4">
      <!-- -1.0 -->
      <g transform="translate(24.389062 215.066173)scale(0.1 -0.1)">
       <use xlink:href="#DejaVuSans-45"/>
       <use x="36.083984" xlink:href="#DejaVuSans-49"/>
       <use x="99.707031" xlink:href="#DejaVuSans-46"/>
       <use x="131.494141" xlink:href="#DejaVuSans-48"/>
      </g>
     </g>
    </g>
    <g id="ytick_4">
     <g id="line2d_9">
      <path clip-path="url(#p7c6ecb814d)" d="M 50.9 171.203832 
L 1141.2 171.203832 
" style="fill:none;stroke:#b0b0b0;stroke-linecap:square;stroke-width:0.8;"/>
     </g>
     <g id="line2d_10">
      <g>
       <use style="stroke:#000000;stroke-width:0.8;" x="50.9" xlink:href="#m002752d9ce" y="171.203832"/>
      </g>
     </g>
     <g id="text_5">
      <!-- -0.5 -->
      <g transform="translate(24.389062 175.003051)scale(0.1 -0.1)">
       <use xlink:href="#DejaVuSans-45"/>
       <use x="36.083984" xlink:href="#DejaVuSans-48"/>
       <use x="99.707031" xlink:href="#DejaVuSans-46"/>
       <use x="131.494141" xlink:href="#DejaVuSans-53"/>
      </g>
     </g>
    </g>
    <g id="ytick_5">
     <g id="line2d_11">
      <path clip-path="url(#p7c6ecb814d)" d="M 50.9 131.140709 
L 1141.2 131.140709 
" style="fill:none;stroke:#b0b0b0;stroke-linecap:square;stroke-width:0.8;"/>
     </g>
     <g id="line2d_12">
      <g>
       <use style="stroke:#000000;stroke-width:0.8;" x="50.9" xlink:href="#m002752d9ce" y="131.140709"/>
      </g>
     </g>
     <g id="text_6">
      <!-- 0.0 -->
      <g transform="translate(27.996875 134.939928)scale(0.1 -0.1)">
       <use xlink:href="#DejaVuSans-48"/>
       <use x="63.623047" xlink:href="#DejaVuSans-46"/>
       <use x="95.410156" xlink:href="#DejaVuSans-48"/>
      </g>
     </g>
    </g>
    <g id="ytick_6">
     <g id="line2d_13">
      <path clip-path="url(#p7c6ecb814d)" d="M 50.9 91.077587 
L 1141.2 91.077587 
" style="fill:none;stroke:#b0b0b0;stroke-linecap:square;stroke-width:0.8;"/>
     </g>
     <g id="line2d_14">
      <g>
       <use style="stroke:#000000;stroke-width:0.8;" x="50.9" xlink:href="#m002752d9ce" y="91.077587"/>
      </g>
     </g>
     <g id="text_7">
      <!-- 0.5 -->
      <g transform="translate(27.996875 94.876805)scale(0.1 -0.1)">
       <use xlink:href="#DejaVuSans-48"/>
       <use x="63.623047" xlink:href="#DejaVuSans-46"/>
       <use x="95.410156" xlink:href="#DejaVuSans-53"/>
      </g>
     </g>
    </g>
    <g id="ytick_7">
     <g id="line2d_15">
      <path clip-path="url(#p7c6ecb814d)" d="M 50.9 51.014464 
L 1141.2 51.014464 
" style="fill:none;stroke:#b0b0b0;stroke-linecap:square;stroke-width:0.8;"/>
     </g>
     <g id="line2d_16">
      <g>
       <use style="stroke:#000000;stroke-width:0.8;" x="50.9" xlink:href="#m002752d9ce" y="51.014464"/>
      </g>
     </g>
     <g id="text_8">
      <!-- 1.0 -->
      <g transform="translate(27.996875 54.813683)scale(0.1 -0.1)">
       <use xlink:href="#DejaVuSans-49"/>
       <use x="63.623047" xlink:href="#DejaVuSans-46"/>
       <use x="95.410156" xlink:href="#DejaVuSans-48"/>
      </g>
     </g>
    </g>
    <g id="text_9">
     <!-- log return cumsum -->
     <g transform="translate(18.309375 218.857969)rotate(-90)scale(0.1 -0.1)">
      <defs>
       <path d="M 9.421875 75.984375 
L 18.40625 75.984375 
L 18.40625 0 
L 9.421875 0 
z
" id="DejaVuSans-108"/>
       <path d="M 30.609375 48.390625 
Q 23.390625 48.390625 19.1875 42.75 
Q 14.984375 37.109375 14.984375 27.296875 
Q 14.984375 17.484375 19.15625 11.84375 
Q 23.34375 6.203125 30.609375 6.203125 
Q 37.796875 6.203125 41.984375 11.859375 
Q 46.1875 17.53125 46.1875 27.296875 
Q 46.1875 37.015625 41.984375 42.703125 
Q 37.796875 48.390625 30.609375 48.390625 
z
M 30.609375 56 
Q 42.328125 56 49.015625 48.375 
Q 55.71875 40.765625 55.71875 27.296875 
Q 55.71875 13.875 49.015625 6.21875 
Q 42.328125 -1.421875 30.609375 -1.421875 
Q 18.84375 -1.421875 12.171875 6.21875 
Q 5.515625 13.875 5.515625 27.296875 
Q 5.515625 40.765625 12.171875 48.375 
Q 18.84375 56 30.609375 56 
z
" id="DejaVuSans-111"/>
       <path d="M 45.40625 27.984375 
Q 45.40625 37.75 41.375 43.109375 
Q 37.359375 48.484375 30.078125 48.484375 
Q 22.859375 48.484375 18.828125 43.109375 
Q 14.796875 37.75 14.796875 27.984375 
Q 14.796875 18.265625 18.828125 12.890625 
Q 22.859375 7.515625 30.078125 7.515625 
Q 37.359375 7.515625 41.375 12.890625 
Q 45.40625 18.265625 45.40625 27.984375 
z
M 54.390625 6.78125 
Q 54.390625 -7.171875 48.1875 -13.984375 
Q 42 -20.796875 29.203125 -20.796875 
Q 24.46875 -20.796875 20.265625 -20.09375 
Q 16.0625 -19.390625 12.109375 -17.921875 
L 12.109375 -9.1875 
Q 16.0625 -11.328125 19.921875 -12.34375 
Q 23.78125 -13.375 27.78125 -13.375 
Q 36.625 -13.375 41.015625 -8.765625 
Q 45.40625 -4.15625 45.40625 5.171875 
L 45.40625 9.625 
Q 42.625 4.78125 38.28125 2.390625 
Q 33.9375 0 27.875 0 
Q 17.828125 0 11.671875 7.65625 
Q 5.515625 15.328125 5.515625 27.984375 
Q 5.515625 40.671875 11.671875 48.328125 
Q 17.828125 56 27.875 56 
Q 33.9375 56 38.28125 53.609375 
Q 42.625 51.21875 45.40625 46.390625 
L 45.40625 54.6875 
L 54.390625 54.6875 
z
" id="DejaVuSans-103"/>
       <path id="DejaVuSans-32"/>
       <path d="M 41.109375 46.296875 
Q 39.59375 47.171875 37.8125 47.578125 
Q 36.03125 48 33.890625 48 
Q 26.265625 48 22.1875 43.046875 
Q 18.109375 38.09375 18.109375 28.8125 
L 18.109375 0 
L 9.078125 0 
L 9.078125 54.6875 
L 18.109375 54.6875 
L 18.109375 46.1875 
Q 20.953125 51.171875 25.484375 53.578125 
Q 30.03125 56 36.53125 56 
Q 37.453125 56 38.578125 55.875 
Q 39.703125 55.765625 41.0625 55.515625 
z
" id="DejaVuSans-114"/>
       <path d="M 56.203125 29.59375 
L 56.203125 25.203125 
L 14.890625 25.203125 
Q 15.484375 15.921875 20.484375 11.0625 
Q 25.484375 6.203125 34.421875 6.203125 
Q 39.59375 6.203125 44.453125 7.46875 
Q 49.3125 8.734375 54.109375 11.28125 
L 54.109375 2.78125 
Q 49.265625 0.734375 44.1875 -0.34375 
Q 39.109375 -1.421875 33.890625 -1.421875 
Q 20.796875 -1.421875 13.15625 6.1875 
Q 5.515625 13.8125 5.515625 26.8125 
Q 5.515625 40.234375 12.765625 48.109375 
Q 20.015625 56 32.328125 56 
Q 43.359375 56 49.78125 48.890625 
Q 56.203125 41.796875 56.203125 29.59375 
z
M 47.21875 32.234375 
Q 47.125 39.59375 43.09375 43.984375 
Q 39.0625 48.390625 32.421875 48.390625 
Q 24.90625 48.390625 20.390625 44.140625 
Q 15.875 39.890625 15.1875 32.171875 
z
" id="DejaVuSans-101"/>
       <path d="M 18.3125 70.21875 
L 18.3125 54.6875 
L 36.8125 54.6875 
L 36.8125 47.703125 
L 18.3125 47.703125 
L 18.3125 18.015625 
Q 18.3125 11.328125 20.140625 9.421875 
Q 21.96875 7.515625 27.59375 7.515625 
L 36.8125 7.515625 
L 36.8125 0 
L 27.59375 0 
Q 17.1875 0 13.234375 3.875 
Q 9.28125 7.765625 9.28125 18.015625 
L 9.28125 47.703125 
L 2.6875 47.703125 
L 2.6875 54.6875 
L 9.28125 54.6875 
L 9.28125 70.21875 
z
" id="DejaVuSans-116"/>
       <path d="M 8.5 21.578125 
L 8.5 54.6875 
L 17.484375 54.6875 
L 17.484375 21.921875 
Q 17.484375 14.15625 20.5 10.265625 
Q 23.53125 6.390625 29.59375 6.390625 
Q 36.859375 6.390625 41.078125 11.03125 
Q 45.3125 15.671875 45.3125 23.6875 
L 45.3125 54.6875 
L 54.296875 54.6875 
L 54.296875 0 
L 45.3125 0 
L 45.3125 8.40625 
Q 42.046875 3.421875 37.71875 1 
Q 33.40625 -1.421875 27.6875 -1.421875 
Q 18.265625 -1.421875 13.375 4.4375 
Q 8.5 10.296875 8.5 21.578125 
z
M 31.109375 56 
z
" id="DejaVuSans-117"/>
       <path d="M 54.890625 33.015625 
L 54.890625 0 
L 45.90625 0 
L 45.90625 32.71875 
Q 45.90625 40.484375 42.875 44.328125 
Q 39.84375 48.1875 33.796875 48.1875 
Q 26.515625 48.1875 22.3125 43.546875 
Q 18.109375 38.921875 18.109375 30.90625 
L 18.109375 0 
L 9.078125 0 
L 9.078125 54.6875 
L 18.109375 54.6875 
L 18.109375 46.1875 
Q 21.34375 51.125 25.703125 53.5625 
Q 30.078125 56 35.796875 56 
Q 45.21875 56 50.046875 50.171875 
Q 54.890625 44.34375 54.890625 33.015625 
z
" id="DejaVuSans-110"/>
       <path d="M 48.78125 52.59375 
L 48.78125 44.1875 
Q 44.96875 46.296875 41.140625 47.34375 
Q 37.3125 48.390625 33.40625 48.390625 
Q 24.65625 48.390625 19.8125 42.84375 
Q 14.984375 37.3125 14.984375 27.296875 
Q 14.984375 17.28125 19.8125 11.734375 
Q 24.65625 6.203125 33.40625 6.203125 
Q 37.3125 6.203125 41.140625 7.25 
Q 44.96875 8.296875 48.78125 10.40625 
L 48.78125 2.09375 
Q 45.015625 0.34375 40.984375 -0.53125 
Q 36.96875 -1.421875 32.421875 -1.421875 
Q 20.0625 -1.421875 12.78125 6.34375 
Q 5.515625 14.109375 5.515625 27.296875 
Q 5.515625 40.671875 12.859375 48.328125 
Q 20.21875 56 33.015625 56 
Q 37.15625 56 41.109375 55.140625 
Q 45.0625 54.296875 48.78125 52.59375 
z
" id="DejaVuSans-99"/>
       <path d="M 52 44.1875 
Q 55.375 50.25 60.0625 53.125 
Q 64.75 56 71.09375 56 
Q 79.640625 56 84.28125 50.015625 
Q 88.921875 44.046875 88.921875 33.015625 
L 88.921875 0 
L 79.890625 0 
L 79.890625 32.71875 
Q 79.890625 40.578125 77.09375 44.375 
Q 74.3125 48.1875 68.609375 48.1875 
Q 61.625 48.1875 57.5625 43.546875 
Q 53.515625 38.921875 53.515625 30.90625 
L 53.515625 0 
L 44.484375 0 
L 44.484375 32.71875 
Q 44.484375 40.625 41.703125 44.40625 
Q 38.921875 48.1875 33.109375 48.1875 
Q 26.21875 48.1875 22.15625 43.53125 
Q 18.109375 38.875 18.109375 30.90625 
L 18.109375 0 
L 9.078125 0 
L 9.078125 54.6875 
L 18.109375 54.6875 
L 18.109375 46.1875 
Q 21.1875 51.21875 25.484375 53.609375 
Q 29.78125 56 35.6875 56 
Q 41.65625 56 45.828125 52.96875 
Q 50 49.953125 52 44.1875 
z
" id="DejaVuSans-109"/>
       <path d="M 44.28125 53.078125 
L 44.28125 44.578125 
Q 40.484375 46.53125 36.375 47.5 
Q 32.28125 48.484375 27.875 48.484375 
Q 21.1875 48.484375 17.84375 46.4375 
Q 14.5 44.390625 14.5 40.28125 
Q 14.5 37.15625 16.890625 35.375 
Q 19.28125 33.59375 26.515625 31.984375 
L 29.59375 31.296875 
Q 39.15625 29.25 43.1875 25.515625 
Q 47.21875 21.78125 47.21875 15.09375 
Q 47.21875 7.46875 41.1875 3.015625 
Q 35.15625 -1.421875 24.609375 -1.421875 
Q 20.21875 -1.421875 15.453125 -0.5625 
Q 10.6875 0.296875 5.421875 2 
L 5.421875 11.28125 
Q 10.40625 8.6875 15.234375 7.390625 
Q 20.0625 6.109375 24.8125 6.109375 
Q 31.15625 6.109375 34.5625 8.28125 
Q 37.984375 10.453125 37.984375 14.40625 
Q 37.984375 18.0625 35.515625 20.015625 
Q 33.0625 21.96875 24.703125 23.78125 
L 21.578125 24.515625 
Q 13.234375 26.265625 9.515625 29.90625 
Q 5.8125 33.546875 5.8125 39.890625 
Q 5.8125 47.609375 11.28125 51.796875 
Q 16.75 56 26.8125 56 
Q 31.78125 56 36.171875 55.265625 
Q 40.578125 54.546875 44.28125 53.078125 
z
" id="DejaVuSans-115"/>
      </defs>
      <use xlink:href="#DejaVuSans-108"/>
      <use x="27.783203" xlink:href="#DejaVuSans-111"/>
      <use x="88.964844" xlink:href="#DejaVuSans-103"/>
      <use x="152.441406" xlink:href="#DejaVuSans-32"/>
      <use x="184.228516" xlink:href="#DejaVuSans-114"/>
      <use x="223.091797" xlink:href="#DejaVuSans-101"/>
      <use x="284.615234" xlink:href="#DejaVuSans-116"/>
      <use x="323.824219" xlink:href="#DejaVuSans-117"/>
      <use x="387.203125" xlink:href="#DejaVuSans-114"/>
      <use x="426.566406" xlink:href="#DejaVuSans-110"/>
      <use x="489.945312" xlink:href="#DejaVuSans-32"/>
      <use x="521.732422" xlink:href="#DejaVuSans-99"/>
      <use x="576.712891" xlink:href="#DejaVuSans-117"/>
      <use x="640.091797" xlink:href="#DejaVuSans-109"/>
      <use x="737.503906" xlink:href="#DejaVuSans-115"/>
      <use x="789.603516" xlink:href="#DejaVuSans-117"/>
      <use x="852.982422" xlink:href="#DejaVuSans-109"/>
     </g>
    </g>
   </g>
   <g id="line2d_17">
    <path clip-path="url(#p7c6ecb814d)" d="M 100.459091 130.595737 
L 104.063388 130.354553 
L 107.667686 132.535301 
L 118.480579 136.942481 
L 122.084876 138.0885 
L 125.689174 136.039075 
L 129.293471 136.151496 
L 132.897769 131.180795 
L 143.710661 128.099762 
L 147.314959 127.557979 
L 150.919256 127.18399 
L 154.523554 124.599673 
L 158.127851 120.814894 
L 168.940744 127.641146 
L 172.545041 129.051393 
L 176.149339 125.372453 
L 179.753636 128.128947 
L 183.357934 128.063756 
L 194.170826 127.438049 
L 197.775124 122.907075 
L 201.379421 127.866344 
L 204.983719 125.635868 
L 208.588017 122.063641 
L 219.400909 122.452018 
L 223.005207 125.974885 
L 226.609504 126.254932 
L 230.213802 125.379784 
L 233.818099 129.780114 
L 244.630992 131.713044 
L 248.235289 132.151737 
L 251.839587 131.846892 
L 255.443884 131.814483 
L 259.048182 133.534592 
L 269.861074 134.214411 
L 273.465372 134.87967 
L 277.069669 135.08678 
L 280.673967 134.913129 
L 284.278264 131.77465 
L 295.091157 136.877567 
L 298.695455 132.110354 
L 302.299752 133.411325 
L 305.90405 133.805266 
L 309.508347 131.846216 
L 320.32124 134.940839 
L 323.925537 132.311657 
L 327.529835 132.138737 
L 331.134132 135.857635 
L 334.73843 133.679507 
L 345.551322 130.826477 
L 349.15562 132.229866 
L 352.759917 135.113237 
L 356.364215 135.640943 
L 359.968512 133.796392 
L 370.781405 130.164286 
L 374.385702 129.267025 
L 377.99 134.876314 
L 381.594298 132.750773 
L 385.198595 131.494714 
L 396.011488 126.899165 
L 399.615785 121.456611 
L 403.220083 128.312423 
L 406.82438 122.264747 
L 410.428678 121.851539 
L 421.24157 125.817148 
L 424.845868 123.698434 
L 428.450165 122.563684 
L 432.054463 126.134738 
L 435.65876 132.985405 
L 446.471653 136.370303 
L 450.07595 137.116335 
L 453.680248 138.197488 
L 457.284545 134.328087 
L 460.888843 131.938359 
L 471.701736 129.543752 
L 475.306033 132.236247 
L 478.910331 127.108437 
L 482.514628 123.843 
L 486.118926 123.706008 
L 496.931818 121.869688 
L 500.536116 129.743179 
L 504.140413 125.435499 
L 507.744711 128.870558 
L 511.349008 130.961401 
L 522.161901 135.17741 
L 525.766198 131.791482 
L 529.370496 127.830796 
L 532.974793 128.355094 
L 536.579091 128.176664 
L 547.391983 126.059235 
L 550.996281 121.704827 
L 554.600579 126.680401 
L 558.204876 128.507423 
L 561.809174 127.423653 
L 572.622066 131.296495 
L 576.226364 133.879187 
L 579.830661 131.64221 
L 583.434959 133.018574 
L 587.039256 136.961673 
L 597.852149 136.599181 
L 601.456446 132.164682 
L 605.060744 128.742258 
L 608.665041 129.196761 
L 612.269339 131.308702 
L 623.082231 136.06268 
L 626.686529 134.319068 
L 630.290826 131.444587 
L 633.895124 126.474505 
L 637.499421 122.960774 
L 648.312314 126.011778 
L 651.916612 121.988201 
L 655.520909 122.238339 
L 659.125207 123.003626 
L 662.729504 125.787221 
L 673.542397 126.505125 
L 680.750992 128.606342 
L 684.355289 131.495391 
L 687.959587 129.511294 
L 698.772479 131.012093 
L 702.376777 130.125353 
L 705.981074 135.919708 
L 709.585372 133.994266 
L 713.189669 130.002825 
L 724.002562 126.559065 
L 727.60686 124.78746 
L 731.211157 128.261926 
L 734.815455 123.537568 
L 738.419752 118.39711 
L 749.232645 119.370067 
L 752.836942 122.399119 
L 756.44124 118.181797 
L 760.045537 118.492903 
L 763.649835 121.770628 
L 774.462727 119.781667 
L 778.067025 122.911404 
L 781.671322 120.40463 
L 785.27562 122.644938 
L 788.879917 126.629663 
L 799.69281 127.646941 
L 803.297107 134.014825 
L 806.901405 135.163534 
L 810.505702 134.355025 
L 814.11 131.838104 
L 824.922893 125.03919 
L 828.52719 122.352742 
L 832.131488 118.534701 
L 835.735785 118.39608 
L 839.340083 116.153895 
L 850.152975 119.401805 
L 853.757273 119.527572 
L 857.36157 126.392423 
L 860.965868 129.356177 
L 864.570165 124.293797 
L 875.383058 122.682513 
L 878.987355 123.418569 
L 886.19595 114.548336 
L 889.800248 112.769882 
L 900.61314 114.58357 
L 904.217438 116.016171 
L 907.821736 121.762958 
L 911.426033 121.889128 
L 915.030331 124.116591 
L 925.843223 125.59319 
L 929.447521 120.756113 
L 933.051818 116.653783 
L 936.656116 123.108428 
L 940.260413 117.310924 
L 951.073306 118.531787 
L 954.677603 117.383832 
L 958.281901 121.906919 
L 961.886198 117.264414 
L 965.490496 114.743727 
L 976.303388 119.370717 
L 979.907686 116.372059 
L 983.511983 110.570365 
L 987.116281 111.618795 
L 990.720579 117.935457 
L 1001.533471 112.809106 
L 1005.137769 113.646905 
L 1008.742066 112.347242 
L 1012.346364 113.37133 
L 1015.950661 115.569381 
L 1026.763554 112.437421 
L 1030.367851 114.036847 
L 1033.972149 114.501638 
L 1037.576446 109.332626 
L 1041.180744 109.570392 
L 1051.993636 113.078184 
L 1055.597934 116.474385 
L 1059.202231 114.3617 
L 1062.806529 115.249015 
L 1066.410826 112.06719 
L 1077.223719 111.354272 
L 1080.828017 114.705167 
L 1084.432314 114.552962 
L 1088.036612 115.335172 
L 1091.640909 115.335172 
L 1091.640909 115.335172 
" style="fill:none;stroke:#9467bd;stroke-linecap:square;stroke-width:1.5;"/>
   </g>
   <g id="line2d_18">
    <path clip-path="url(#p7c6ecb814d)" d="M 100.459091 127.138429 
L 104.063388 129.751516 
L 107.667686 133.519361 
L 118.480579 134.706676 
L 122.084876 140.332216 
L 125.689174 140.410703 
L 129.293471 146.276355 
L 132.897769 146.611376 
L 143.710661 144.018739 
L 147.314959 140.43505 
L 150.919256 140.833581 
L 154.523554 140.043646 
L 158.127851 139.959548 
L 168.940744 135.378126 
L 172.545041 135.954385 
L 176.149339 133.185539 
L 179.753636 133.166298 
L 183.357934 138.103426 
L 194.170826 139.070958 
L 197.775124 143.525946 
L 201.379421 145.191704 
L 204.983719 151.205655 
L 208.588017 150.843033 
L 219.400909 156.616643 
L 223.005207 152.654228 
L 226.609504 153.766205 
L 230.213802 156.197148 
L 233.818099 156.85703 
L 244.630992 163.30789 
L 248.235289 164.632305 
L 251.839587 164.875484 
L 255.443884 165.29004 
L 259.048182 164.399239 
L 273.465372 163.62811 
L 277.069669 157.664743 
L 280.673967 158.613075 
L 284.278264 157.056304 
L 295.091157 164.339778 
L 298.695455 168.861078 
L 302.299752 166.272297 
L 305.90405 159.411771 
L 309.508347 154.127097 
L 320.32124 152.397183 
L 323.925537 146.157369 
L 327.529835 148.799742 
L 331.134132 150.086886 
L 334.73843 153.658641 
L 345.551322 149.327032 
L 349.15562 154.167105 
L 352.759917 154.560487 
L 356.364215 153.774734 
L 359.968512 154.977158 
L 370.781405 151.195319 
L 374.385702 149.453128 
L 377.99 150.897541 
L 381.594298 146.450879 
L 385.198595 147.32703 
L 396.011488 144.433273 
L 399.615785 141.607253 
L 403.220083 140.717276 
L 406.82438 138.646058 
L 410.428678 135.83266 
L 421.24157 135.489018 
L 424.845868 139.243503 
L 428.450165 140.809015 
L 432.054463 140.470527 
L 435.65876 143.774167 
L 446.471653 142.731963 
L 450.07595 141.524382 
L 453.680248 141.985273 
L 457.284545 149.294325 
L 460.888843 151.171495 
L 471.701736 147.839192 
L 475.306033 147.262375 
L 478.910331 151.081671 
L 482.514628 152.57973 
L 486.118926 150.165832 
L 496.931818 155.16232 
L 500.536116 152.345534 
L 504.140413 151.509965 
L 507.744711 151.587802 
L 511.349008 145.357666 
L 522.161901 139.111915 
L 525.766198 138.648415 
L 529.370496 138.588728 
L 532.974793 138.407869 
L 536.579091 144.297932 
L 547.391983 143.723588 
L 550.996281 139.824262 
L 554.600579 136.845627 
L 558.204876 132.609011 
L 561.809174 126.866018 
L 572.622066 126.07447 
L 576.226364 126.918309 
L 579.830661 127.0381 
L 583.434959 123.787746 
L 587.039256 122.959251 
L 597.852149 124.766265 
L 601.456446 118.792114 
L 605.060744 113.64663 
L 608.665041 114.407903 
L 612.269339 110.202527 
L 623.082231 112.947265 
L 626.686529 110.33826 
L 630.290826 113.064049 
L 633.895124 115.378265 
L 637.499421 113.39181 
L 648.312314 112.759994 
L 651.916612 115.108 
L 655.520909 114.141025 
L 659.125207 119.228409 
L 662.729504 117.077163 
L 673.542397 119.565969 
L 677.146694 124.228555 
L 680.750992 121.464119 
L 684.355289 119.756736 
L 687.959587 120.564579 
L 698.772479 117.612833 
L 702.376777 116.131298 
L 705.981074 123.262291 
L 709.585372 122.282803 
L 713.189669 117.537719 
L 724.002562 113.409965 
L 727.60686 110.769447 
L 731.211157 115.124232 
L 734.815455 119.907015 
L 738.419752 115.955677 
L 749.232645 111.312124 
L 752.836942 111.650532 
L 756.44124 115.686036 
L 760.045537 114.887481 
L 763.649835 116.777094 
L 774.462727 111.981023 
L 778.067025 117.764381 
L 781.671322 122.556293 
L 785.27562 116.053939 
L 788.879917 113.020918 
L 799.69281 119.23898 
L 803.297107 113.85715 
L 806.901405 111.538995 
L 810.505702 108.336504 
L 814.11 106.677444 
L 824.922893 102.65749 
L 828.52719 103.895101 
L 832.131488 108.746816 
L 835.735785 114.819615 
L 839.340083 114.160432 
L 850.152975 113.448945 
L 853.757273 110.373705 
L 857.36157 105.602077 
L 860.965868 104.035022 
L 864.570165 101.401019 
L 875.383058 102.167054 
L 878.987355 98.317374 
L 882.591653 98.07415 
L 886.19595 98.918387 
L 889.800248 95.175337 
L 900.61314 101.043186 
L 904.217438 96.197605 
L 907.821736 97.452714 
L 911.426033 98.488749 
L 915.030331 98.495876 
L 925.843223 104.661316 
L 929.447521 105.772084 
L 933.051818 103.525885 
L 936.656116 102.34312 
L 940.260413 107.807017 
L 951.073306 107.77515 
L 954.677603 112.231424 
L 958.281901 119.134257 
L 961.886198 118.522817 
L 965.490496 118.555025 
L 976.303388 118.207465 
L 979.907686 118.862402 
L 983.511983 119.398812 
L 987.116281 118.485808 
L 990.720579 114.800232 
L 1001.533471 110.15533 
L 1005.137769 106.624225 
L 1008.742066 105.855081 
L 1012.346364 108.384126 
L 1015.950661 107.74801 
L 1026.763554 107.960501 
L 1030.367851 109.373608 
L 1033.972149 110.015261 
L 1037.576446 105.834646 
L 1041.180744 99.588342 
L 1051.993636 105.084274 
L 1055.597934 107.332861 
L 1059.202231 109.733995 
L 1062.806529 108.565857 
L 1066.410826 110.111834 
L 1077.223719 107.989334 
L 1080.828017 109.001693 
L 1084.432314 104.962479 
L 1088.036612 102.089501 
L 1091.640909 102.089501 
L 1091.640909 102.089501 
" style="fill:none;stroke:#1f77b4;stroke-linecap:square;stroke-width:1.5;"/>
   </g>
   <g id="line2d_19">
    <path clip-path="url(#p7c6ecb814d)" d="M 100.459091 129.575078 
L 107.667686 140.997842 
L 118.480579 148.412375 
L 122.084876 142.749239 
L 125.689174 141.145013 
L 129.293471 137.878112 
L 132.897769 145.954566 
L 143.710661 138.757288 
L 147.314959 133.599441 
L 150.919256 138.347202 
L 158.127851 148.856763 
L 168.940744 152.056892 
L 172.545041 151.661143 
L 176.149339 152.759231 
L 179.753636 156.17669 
L 183.357934 154.403975 
L 194.170826 160.400033 
L 197.775124 163.802183 
L 201.379421 165.972907 
L 204.983719 166.680008 
L 208.588017 162.235565 
L 219.400909 167.19897 
L 223.005207 166.971184 
L 226.609504 165.503738 
L 230.213802 173.123031 
L 233.818099 171.417871 
L 244.630992 176.879806 
L 248.235289 184.171943 
L 251.839587 177.283235 
L 255.443884 170.148645 
L 259.048182 165.352925 
L 269.861074 168.546857 
L 273.465372 175.268472 
L 277.069669 172.369184 
L 280.673967 173.334041 
L 284.278264 179.632134 
L 295.091157 179.709463 
L 298.695455 187.541617 
L 302.299752 181.236839 
L 305.90405 185.198808 
L 309.508347 182.635781 
L 320.32124 185.71144 
L 323.925537 185.390488 
L 327.529835 184.645419 
L 331.134132 189.861883 
L 334.73843 182.66937 
L 345.551322 178.377331 
L 349.15562 171.626772 
L 352.759917 165.536963 
L 356.364215 163.983253 
L 359.968512 157.492735 
L 370.781405 164.374488 
L 374.385702 169.400845 
L 377.99 177.041698 
L 381.594298 179.890885 
L 385.198595 181.695019 
L 396.011488 185.445634 
L 399.615785 180.343481 
L 403.220083 182.67257 
L 406.82438 186.262376 
L 410.428678 185.581066 
L 421.24157 191.552424 
L 424.845868 186.850348 
L 428.450165 193.97593 
L 432.054463 186.530348 
L 435.65876 182.28219 
L 446.471653 187.261932 
L 450.07595 195.605808 
L 453.680248 190.703532 
L 457.284545 187.455329 
L 460.888843 183.866994 
L 471.701736 179.633646 
L 475.306033 186.768091 
L 478.910331 189.068934 
L 482.514628 195.474046 
L 486.118926 189.856804 
L 496.931818 187.90489 
L 500.536116 190.661676 
L 504.140413 197.980027 
L 507.744711 201.067822 
L 511.349008 203.91945 
L 522.161901 200.321937 
L 525.766198 198.147322 
L 529.370496 192.170687 
L 532.974793 192.617192 
L 536.579091 198.957665 
L 547.391983 195.611228 
L 550.996281 191.537422 
L 554.600579 190.561408 
L 558.204876 186.332668 
L 561.809174 186.432157 
L 572.622066 186.068684 
L 576.226364 187.238353 
L 579.830661 195.22916 
L 583.434959 201.772874 
L 587.039256 209.657339 
L 597.852149 207.500616 
L 601.456446 210.532243 
L 605.060744 210.395013 
L 608.665041 204.11622 
L 612.269339 208.238099 
L 623.082231 209.687261 
L 626.686529 205.693211 
L 630.290826 210.161598 
L 633.895124 217.244641 
L 637.499421 220.686816 
L 648.312314 226.308507 
L 651.916612 219.702455 
L 655.520909 214.910915 
L 659.125207 212.801109 
L 662.729504 207.059106 
L 673.542397 202.334741 
L 677.146694 207.521868 
L 680.750992 201.465756 
L 684.355289 200.837754 
L 687.959587 196.056483 
L 698.772479 189.947903 
L 702.376777 192.918846 
L 705.981074 199.425001 
L 709.585372 203.908012 
L 713.189669 205.084726 
L 724.002562 200.143969 
L 727.60686 194.562186 
L 731.211157 202.880635 
L 734.815455 202.708592 
L 738.419752 204.043154 
L 749.232645 208.624984 
L 752.836942 214.960755 
L 756.44124 217.606207 
L 760.045537 210.805421 
L 763.649835 213.689942 
L 774.462727 213.389382 
L 778.067025 210.200268 
L 781.671322 212.415993 
L 788.879917 198.103407 
L 799.69281 202.183286 
L 803.297107 202.227392 
L 806.901405 205.483645 
L 810.505702 209.008016 
L 814.11 216.796033 
L 824.922893 215.059198 
L 828.52719 215.016277 
L 832.131488 222.547001 
L 835.735785 226.175163 
L 839.340083 219.886007 
L 850.152975 224.172217 
L 853.757273 230.075051 
L 857.36157 230.244252 
L 860.965868 222.816728 
L 864.570165 227.060797 
L 875.383058 224.348703 
L 878.987355 220.262186 
L 882.591653 224.580935 
L 886.19595 221.00472 
L 889.800248 223.152046 
L 900.61314 221.059379 
L 904.217438 218.947606 
L 907.821736 218.376349 
L 911.426033 225.226723 
L 915.030331 220.025915 
L 925.843223 222.950696 
L 929.447521 228.138705 
L 933.051818 235.858082 
L 936.656116 234.41458 
L 940.260413 231.618428 
L 951.073306 239.765754 
L 954.677603 239.572193 
L 958.281901 244.079602 
L 961.886198 241.786306 
L 965.490496 247.18235 
L 976.303388 244.179503 
L 979.907686 246.015472 
L 983.511983 239.305711 
L 987.116281 245.335849 
L 990.720579 247.924159 
L 1001.533471 254.370865 
L 1005.137769 247.838693 
L 1008.742066 242.009044 
L 1012.346364 245.98513 
L 1015.950661 243.461508 
L 1026.763554 238.532693 
L 1030.367851 237.652934 
L 1033.972149 237.179179 
L 1037.576446 241.426678 
L 1041.180744 248.227964 
L 1051.993636 242.102689 
L 1055.597934 235.929886 
L 1059.202231 233.824799 
L 1062.806529 236.446823 
L 1066.410826 238.900465 
L 1077.223719 235.358903 
L 1084.432314 223.260438 
L 1088.036612 218.896393 
L 1088.036612 218.896393 
" style="fill:none;stroke:#8c564b;stroke-linecap:square;stroke-width:1.5;"/>
   </g>
   <g id="line2d_20">
    <path clip-path="url(#p7c6ecb814d)" d="M 100.459091 132.181638 
L 104.063388 126.624915 
L 107.667686 123.332078 
L 118.480579 120.586024 
L 122.084876 127.917348 
L 125.689174 127.463172 
L 129.293471 130.98626 
L 132.897769 119.101962 
L 143.710661 123.616155 
L 147.314959 128.548772 
L 150.919256 123.712977 
L 154.523554 116.33778 
L 158.127851 107.854072 
L 168.940744 111.335097 
L 172.545041 113.150137 
L 176.149339 108.436253 
L 179.753636 107.802778 
L 183.357934 109.54892 
L 194.170826 103.386712 
L 197.775124 95.768193 
L 201.379421 98.480931 
L 204.983719 95.5687 
L 208.588017 96.49095 
L 219.400909 92.183469 
L 223.005207 95.945055 
L 226.609504 97.725209 
L 230.213802 89.965216 
L 233.818099 96.207278 
L 244.630992 92.906095 
L 248.235289 86.626091 
L 251.839587 93.828379 
L 255.443884 101.625159 
L 259.048182 108.560773 
L 269.861074 106.143438 
L 273.465372 100.557828 
L 277.069669 103.781019 
L 280.673967 102.656043 
L 284.278264 93.895242 
L 295.091157 98.915827 
L 298.695455 87.40957 
L 302.299752 95.671142 
L 305.90405 92.27165 
L 309.508347 92.895336 
L 320.32124 92.913586 
L 323.925537 90.596224 
L 327.529835 91.173737 
L 331.134132 89.769739 
L 334.73843 95.271589 
L 345.551322 96.790536 
L 349.15562 105.702526 
L 352.759917 115.429007 
L 356.364215 117.551722 
L 359.968512 122.602299 
L 370.781405 112.903511 
L 374.385702 107.327831 
L 377.99 105.478933 
L 381.594298 100.672885 
L 385.198595 97.679569 
L 396.011488 89.696692 
L 399.615785 89.333962 
L 403.220083 93.727375 
L 406.82438 84.488727 
L 410.428678 84.759122 
L 421.24157 82.895754 
L 424.845868 85.637955 
L 428.450165 78.048276 
L 432.054463 90.223264 
L 435.65876 101.972899 
L 446.471653 100.473262 
L 450.07595 93.595511 
L 453.680248 99.971864 
L 457.284545 99.32507 
L 460.888843 100.579006 
L 471.701736 102.518724 
L 475.306033 98.445738 
L 478.910331 91.218166 
L 482.514628 82.25056 
L 486.118926 88.143777 
L 496.931818 88.262224 
L 500.536116 93.200433 
L 504.140413 82.524644 
L 507.744711 82.858752 
L 511.349008 82.124446 
L 522.161901 90.315741 
L 525.766198 89.07136 
L 529.370496 91.245566 
L 532.974793 91.322927 
L 536.579091 85.281772 
L 547.391983 86.563617 
L 550.996281 86.268407 
L 554.600579 92.295747 
L 558.204876 98.693138 
L 561.809174 97.511337 
L 576.226364 103.159801 
L 579.830661 93.848617 
L 583.434959 89.074673 
L 587.039256 85.494545 
L 597.852149 87.338294 
L 601.456446 80.137291 
L 605.060744 76.84658 
L 608.665041 84.154506 
L 612.269339 82.244158 
L 623.082231 85.488524 
L 626.686529 87.855698 
L 630.290826 80.894313 
L 633.895124 69.793575 
L 637.499421 63.118318 
L 648.312314 60.719229 
L 651.916612 63.527573 
L 655.520909 68.890566 
L 659.125207 71.8438 
L 662.729504 81.040509 
L 673.542397 86.825527 
L 677.146694 82.895702 
L 680.750992 90.641656 
L 684.355289 94.187002 
L 687.959587 97.159398 
L 698.772479 105.403639 
L 702.376777 101.683162 
L 705.981074 101.026648 
L 709.585372 94.954021 
L 713.189669 89.858864 
L 724.002562 91.452028 
L 727.60686 95.544232 
L 731.211157 91.165106 
L 734.815455 86.603279 
L 738.419752 80.231071 
L 749.232645 76.818563 
L 752.836942 73.758507 
L 756.44124 67.109623 
L 760.045537 74.883027 
L 763.649835 75.262295 
L 774.462727 73.567615 
L 778.067025 80.153869 
L 781.671322 75.556547 
L 785.27562 85.975178 
L 788.879917 98.153622 
L 799.69281 95.240328 
L 803.297107 101.560486 
L 806.901405 99.535823 
L 810.505702 95.384649 
L 814.11 85.980397 
L 824.922893 80.810896 
L 828.52719 78.165976 
L 832.131488 67.772102 
L 835.735785 64.168384 
L 839.340083 68.555009 
L 850.152975 67.570461 
L 853.757273 62.190226 
L 857.36157 68.871147 
L 860.965868 80.347413 
L 864.570165 71.495528 
L 875.383058 72.634507 
L 878.987355 77.717587 
L 882.591653 69.343978 
L 886.19595 68.507596 
L 889.800248 64.683189 
L 900.61314 68.695542 
L 904.217438 72.336755 
L 907.821736 78.701848 
L 911.426033 72.507902 
L 915.030331 80.459846 
L 925.843223 79.063122 
L 929.447521 69.631032 
L 933.051818 58.825204 
L 936.656116 66.874384 
L 940.260413 63.768485 
L 951.073306 57.486145 
L 954.677603 56.529455 
L 958.281901 56.544276 
L 961.886198 54.127877 
L 965.490496 46.703594 
L 976.303388 54.639704 
L 979.907686 49.911428 
L 983.511983 50.899301 
L 987.116281 46.268516 
L 990.720579 49.875646 
L 1001.533471 39.14 
L 1005.137769 47.168358 
L 1008.742066 52.050835 
L 1012.346364 49.239271 
L 1015.950661 54.116713 
L 1026.763554 56.028939 
L 1030.367851 58.535928 
L 1033.972149 59.480072 
L 1037.576446 50.52357 
L 1041.180744 44.474541 
L 1051.993636 54.924947 
L 1055.597934 65.312069 
L 1059.202231 65.304269 
L 1062.806529 63.624826 
L 1066.410826 58.153644 
L 1077.223719 61.112506 
L 1080.828017 71.389907 
L 1084.432314 77.681376 
L 1088.036612 83.125698 
L 1088.036612 83.125698 
" style="fill:none;stroke:#e377c2;stroke-linecap:square;stroke-width:1.5;"/>
   </g>
   <g id="line2d_21">
    <path clip-path="url(#p7c6ecb814d)" d="M 100.459091 133.704177 
L 104.063388 136.700976 
L 107.667686 138.554392 
L 118.480579 144.686419 
L 122.084876 134.11485 
L 125.689174 132.433768 
L 129.293471 123.912826 
L 132.897769 131.620354 
L 147.314959 125.223262 
L 150.919256 129.55032 
L 154.523554 135.670923 
L 158.127851 141.00207 
L 168.940744 149.265938 
L 172.545041 148.300854 
L 176.149339 152.307205 
L 179.753636 155.744747 
L 183.357934 149.42046 
L 194.170826 154.386722 
L 197.775124 153.390471 
L 201.379421 153.885017 
L 204.983719 148.950328 
L 208.588017 144.850457 
L 219.400909 144.096315 
L 223.005207 148.024989 
L 226.609504 145.480557 
L 230.213802 150.508892 
L 233.818099 148.162967 
L 244.630992 147.250104 
L 248.235289 153.116324 
L 251.839587 146.005117 
L 255.443884 138.493158 
L 259.048182 134.545641 
L 269.861074 138.318451 
L 273.465372 145.278677 
L 277.069669 148.584449 
L 280.673967 148.60078 
L 284.278264 156.617718 
L 295.091157 150.012639 
L 298.695455 153.138254 
L 302.299752 149.303112 
L 305.90405 161.168205 
L 309.508347 164.078818 
L 320.32124 168.992553 
L 323.925537 175.410468 
L 327.529835 172.130696 
L 331.134132 175.995865 
L 334.73843 165.671943 
L 345.551322 165.713712 
L 349.15562 154.758149 
L 352.759917 148.305464 
L 356.364215 147.529976 
L 359.968512 139.946363 
L 370.781405 151.163099 
L 374.385702 158.087044 
L 377.99 164.168473 
L 381.594298 171.901388 
L 385.198595 172.819221 
L 396.011488 179.718764 
L 399.615785 177.36211 
L 403.220083 180.61787 
L 406.82438 186.432646 
L 410.428678 188.641986 
L 421.24157 194.985231 
L 424.845868 186.896896 
L 428.450165 192.345645 
L 435.65876 177.949595 
L 446.471653 184.053461 
L 450.07595 193.759106 
L 453.680248 188.425697 
L 457.284545 178.735465 
L 460.888843 173.39239 
L 471.701736 172.453306 
L 475.306033 180.223071 
L 478.910331 178.774663 
L 482.514628 183.588039 
L 486.118926 180.288712 
L 496.931818 173.74368 
L 500.536116 179.524038 
L 504.140413 187.767984 
L 507.744711 190.774964 
L 511.349008 200.63808 
L 522.161901 203.504888 
L 525.766198 201.783952 
L 529.370496 195.862755 
L 532.974793 196.491541 
L 536.579091 196.909946 
L 547.391983 194.118255 
L 550.996281 193.935084 
L 554.600579 196.014544 
L 558.204876 196.022848 
L 561.809174 202.316948 
L 572.622066 202.749284 
L 576.226364 203.071694 
L 579.830661 210.930355 
L 583.434959 221.15688 
L 587.039256 229.965562 
L 597.852149 226.088111 
L 601.456446 235.835123 
L 605.060744 241.18688 
L 608.665041 234.210569 
L 612.269339 243.012094 
L 623.082231 241.759808 
L 626.686529 240.329328 
L 630.290826 242.013026 
L 633.895124 246.642089 
L 637.499421 252.211832 
L 648.312314 258.516844 
L 651.916612 249.807817 
L 655.520909 245.937921 
L 659.125207 239.165311 
L 662.729504 235.479056 
L 673.542397 228.47713 
L 677.146694 228.971928 
L 680.750992 225.567124 
L 684.355289 226.669913 
L 687.959587 221.134973 
L 698.772479 217.862065 
L 702.376777 222.400034 
L 705.981074 221.828212 
L 709.585372 227.360269 
L 713.189669 233.657914 
L 724.002562 232.802159 
L 727.60686 229.764197 
L 731.211157 233.513205 
L 734.815455 228.837269 
L 738.419752 234.399859 
L 749.232645 244.21075 
L 752.836942 250.181871 
L 756.44124 248.859533 
L 760.045537 242.799402 
L 763.649835 243.77098 
L 774.462727 248.552228 
L 778.067025 240.173032 
L 781.671322 237.744152 
L 785.27562 236.961041 
L 788.879917 232.753781 
L 799.69281 230.773298 
L 806.901405 242.334247 
L 810.505702 249.347769 
L 814.11 259.004891 
L 824.922893 261.407255 
L 828.52719 260.146197 
L 832.131488 262.665301 
L 835.735785 260.396596 
L 839.340083 254.721724 
L 850.152975 259.765428 
L 853.757273 269.116079 
L 857.36157 274.370233 
L 860.965868 268.39823 
L 864.570165 275.516677 
L 875.383058 272.070941 
L 878.987355 271.822465 
L 882.591653 276.398711 
L 886.19595 272.023347 
L 889.800248 278.206565 
L 900.61314 270.782956 
L 904.217438 273.69032 
L 907.821736 271.892024 
L 911.426033 277.628927 
L 915.030331 272.42144 
L 925.843223 269.416345 
L 929.447521 273.436021 
L 933.051818 283.703859 
L 936.656116 283.439252 
L 940.260413 275.698242 
L 951.073306 283.880859 
L 954.677603 279.475783 
L 958.281901 277.275395 
L 961.886198 275.58079 
L 965.490496 280.942397 
L 976.303388 278.275756 
L 979.907686 279.447103 
L 983.511983 272.247172 
L 987.116281 279.273474 
L 990.720579 285.85514 
L 1001.533471 297.6599 
L 1005.137769 294.526231 
L 1008.742066 289.418439 
L 1012.346364 290.820124 
L 1015.950661 288.917751 
L 1026.763554 283.789635 
L 1030.367851 281.536293 
L 1033.972149 280.429721 
L 1037.576446 289.335263 
L 1041.180744 303.54 
L 1051.993636 292.639146 
L 1055.597934 284.439279 
L 1059.202231 280.062524 
L 1062.806529 283.909705 
L 1066.410826 284.799928 
L 1077.223719 283.343118 
L 1080.828017 276.292816 
L 1084.432314 274.258461 
L 1088.036612 272.713482 
L 1088.036612 272.713482 
" style="fill:none;stroke:#7f7f7f;stroke-linecap:square;stroke-width:1.5;"/>
   </g>
   <g id="line2d_22">
    <path clip-path="url(#p7c6ecb814d)" d="M 100.459091 134.779175 
L 104.063388 132.014925 
L 107.667686 130.500047 
L 118.480579 133.671601 
L 122.084876 129.488006 
L 125.689174 127.362151 
L 132.897769 116.717465 
L 143.710661 116.213058 
L 147.314959 119.396904 
L 150.919256 118.628198 
L 154.523554 116.816239 
L 158.127851 113.111759 
L 168.940744 125.244107 
L 172.545041 126.072088 
L 176.149339 125.130182 
L 179.753636 127.906595 
L 183.357934 123.194585 
L 194.170826 121.620283 
L 197.775124 113.095365 
L 201.379421 116.319732 
L 204.983719 108.643814 
L 208.588017 105.419939 
L 219.400909 100.397613 
L 223.005207 108.281644 
L 226.609504 107.461122 
L 230.213802 104.251876 
L 233.818099 107.960924 
L 244.630992 103.783523 
L 248.235289 102.912242 
L 255.443884 101.921207 
L 259.048182 104.561793 
L 269.861074 105.802545 
L 273.465372 106.68902 
L 277.069669 113.35663 
L 280.673967 112.247757 
L 284.278264 110.635328 
L 295.091157 108.641905 
L 298.695455 99.836026 
L 302.299752 103.856762 
L 305.90405 111.792887 
L 309.508347 115.350352 
L 320.32124 120.28349 
L 323.925537 124.193786 
L 327.529835 121.468286 
L 331.134132 123.860704 
L 334.73843 118.353084 
L 345.551322 119.9146 
L 349.15562 116.675349 
L 352.759917 119.152954 
L 356.364215 120.479464 
L 359.968512 117.477032 
L 370.781405 117.63401 
L 374.385702 118.497612 
L 377.99 122.586151 
L 381.594298 125.041775 
L 385.198595 122.932451 
L 396.011488 121.168759 
L 399.615785 118.459864 
L 403.220083 126.296538 
L 406.82438 122.218558 
L 410.428678 124.705865 
L 421.24157 129.034146 
L 424.845868 123.420603 
L 428.450165 120.771733 
L 432.054463 124.698238 
L 435.65876 128.098908 
L 446.471653 132.585623 
L 450.07595 134.569273 
L 453.680248 135.185963 
L 457.284545 124.92235 
L 460.888843 120.751727 
L 471.701736 121.729487 
L 475.306033 125.022911 
L 478.910331 116.470835 
L 482.514628 111.793045 
L 486.118926 114.140619 
L 496.931818 107.704737 
L 500.536116 118.805245 
L 504.140413 115.297522 
L 507.744711 118.651415 
L 511.349008 127.684533 
L 522.161901 139.057418 
L 525.766198 136.118343 
L 529.370496 132.214507 
L 532.974793 132.921264 
L 536.579091 127.268054 
L 550.996281 125.236268 
L 554.600579 133.507821 
L 558.204876 139.914207 
L 561.809174 144.930694 
L 572.622066 149.64278 
L 576.226364 151.363219 
L 579.830661 149.009921 
L 587.039256 158.656774 
L 597.852149 156.535012 
L 601.456446 158.19509 
L 605.060744 160.033751 
L 608.665041 159.729877 
L 612.269339 166.402173 
L 623.082231 168.342926 
L 626.686529 169.237121 
L 630.290826 163.81797 
L 633.895124 156.732146 
L 637.499421 155.166906 
L 648.312314 158.879567 
L 651.916612 152.685056 
L 655.520909 153.917061 
L 659.125207 149.854227 
L 662.729504 154.927695 
L 673.542397 153.210378 
L 677.146694 149.751599 
L 680.750992 153.755118 
L 684.355289 158.453504 
L 687.959587 155.689093 
L 698.772479 160.313638 
L 702.376777 160.919575 
L 705.981074 159.695889 
L 709.585372 158.738369 
L 713.189669 159.538221 
L 724.002562 160.258538 
L 727.60686 161.156726 
L 731.211157 160.322734 
L 734.815455 151.336739 
L 738.419752 150.087975 
L 749.232645 156.052374 
L 752.836942 158.731486 
L 756.44124 150.864766 
L 760.045537 151.985621 
L 763.649835 153.341104 
L 774.462727 156.324631 
L 778.067025 153.852975 
L 781.671322 146.96029 
L 785.27562 156.487669 
L 788.879917 163.78886 
L 799.69281 158.964962 
L 803.297107 171.598721 
L 806.901405 175.169653 
L 810.505702 177.66279 
L 814.11 176.787079 
L 824.922893 173.867715 
L 828.52719 170.002374 
L 832.131488 161.816871 
L 835.735785 156.042885 
L 839.340083 154.446935 
L 850.152975 158.442541 
L 853.757273 161.771428 
L 857.36157 174.180084 
L 860.965868 178.803007 
L 864.570165 176.294732 
L 875.383058 173.939705 
L 878.987355 178.758062 
L 882.591653 174.494738 
L 886.19595 169.32722 
L 889.800248 171.386987 
L 900.61314 167.612477 
L 904.217438 174.298823 
L 907.821736 178.71873 
L 911.426033 177.820487 
L 915.030331 180.040623 
L 925.843223 175.689788 
L 929.447521 169.820901 
L 933.051818 167.912624 
L 936.656116 175.669285 
L 940.260413 165.103419 
L 951.073306 166.356651 
L 954.677603 161.045773 
L 958.281901 158.859804 
L 961.886198 154.79863 
L 965.490496 152.246745 
L 976.303388 157.243607 
L 979.907686 153.619092 
L 983.511983 147.321658 
L 987.116281 149.305851 
L 990.720579 159.811131 
L 1001.533471 159.30104 
L 1005.137769 163.872505 
L 1008.742066 163.336885 
L 1012.346364 161.878265 
L 1015.950661 164.73543 
L 1026.763554 161.399654 
L 1030.367851 161.582713 
L 1033.972149 161.40726 
L 1037.576446 160.366266 
L 1041.180744 167.399766 
L 1051.993636 165.541907 
L 1055.597934 166.657541 
L 1059.202231 162.273401 
L 1062.806529 164.359436 
L 1066.410826 159.719414 
L 1077.223719 161.167178 
L 1080.828017 163.475926 
L 1084.432314 167.569124 
L 1088.036612 171.360956 
L 1091.640909 171.360956 
L 1091.640909 171.360956 
" style="fill:none;stroke:#bcbd22;stroke-linecap:square;stroke-width:1.5;"/>
   </g>
   <g id="patch_3">
    <path d="M 50.9 316.76 
L 50.9 25.92 
" style="fill:none;stroke:#000000;stroke-linecap:square;stroke-linejoin:miter;stroke-width:0.8;"/>
   </g>
   <g id="patch_4">
    <path d="M 1141.2 316.76 
L 1141.2 25.92 
" style="fill:none;stroke:#000000;stroke-linecap:square;stroke-linejoin:miter;stroke-width:0.8;"/>
   </g>
   <g id="patch_5">
    <path d="M 50.9 316.76 
L 1141.2 316.76 
" style="fill:none;stroke:#000000;stroke-linecap:square;stroke-linejoin:miter;stroke-width:0.8;"/>
   </g>
   <g id="patch_6">
    <path d="M 50.9 25.92 
L 1141.2 25.92 
" style="fill:none;stroke:#000000;stroke-linecap:square;stroke-linejoin:miter;stroke-width:0.8;"/>
   </g>
   <g id="text_10">
    <!-- Cumulative Log Return: (2010-01-06 ~ 2010-10-08) -->
    <g transform="translate(440.172812 19.92)scale(0.12 -0.12)">
     <defs>
      <path d="M 64.40625 67.28125 
L 64.40625 56.890625 
Q 59.421875 61.53125 53.78125 63.8125 
Q 48.140625 66.109375 41.796875 66.109375 
Q 29.296875 66.109375 22.65625 58.46875 
Q 16.015625 50.828125 16.015625 36.375 
Q 16.015625 21.96875 22.65625 14.328125 
Q 29.296875 6.6875 41.796875 6.6875 
Q 48.140625 6.6875 53.78125 8.984375 
Q 59.421875 11.28125 64.40625 15.921875 
L 64.40625 5.609375 
Q 59.234375 2.09375 53.4375 0.328125 
Q 47.65625 -1.421875 41.21875 -1.421875 
Q 24.65625 -1.421875 15.125 8.703125 
Q 5.609375 18.84375 5.609375 36.375 
Q 5.609375 53.953125 15.125 64.078125 
Q 24.65625 74.21875 41.21875 74.21875 
Q 47.75 74.21875 53.53125 72.484375 
Q 59.328125 70.75 64.40625 67.28125 
z
" id="DejaVuSans-67"/>
      <path d="M 34.28125 27.484375 
Q 23.390625 27.484375 19.1875 25 
Q 14.984375 22.515625 14.984375 16.5 
Q 14.984375 11.71875 18.140625 8.90625 
Q 21.296875 6.109375 26.703125 6.109375 
Q 34.1875 6.109375 38.703125 11.40625 
Q 43.21875 16.703125 43.21875 25.484375 
L 43.21875 27.484375 
z
M 52.203125 31.203125 
L 52.203125 0 
L 43.21875 0 
L 43.21875 8.296875 
Q 40.140625 3.328125 35.546875 0.953125 
Q 30.953125 -1.421875 24.3125 -1.421875 
Q 15.921875 -1.421875 10.953125 3.296875 
Q 6 8.015625 6 15.921875 
Q 6 25.140625 12.171875 29.828125 
Q 18.359375 34.515625 30.609375 34.515625 
L 43.21875 34.515625 
L 43.21875 35.40625 
Q 43.21875 41.609375 39.140625 45 
Q 35.0625 48.390625 27.6875 48.390625 
Q 23 48.390625 18.546875 47.265625 
Q 14.109375 46.140625 10.015625 43.890625 
L 10.015625 52.203125 
Q 14.9375 54.109375 19.578125 55.046875 
Q 24.21875 56 28.609375 56 
Q 40.484375 56 46.34375 49.84375 
Q 52.203125 43.703125 52.203125 31.203125 
z
" id="DejaVuSans-97"/>
      <path d="M 9.421875 54.6875 
L 18.40625 54.6875 
L 18.40625 0 
L 9.421875 0 
z
M 9.421875 75.984375 
L 18.40625 75.984375 
L 18.40625 64.59375 
L 9.421875 64.59375 
z
" id="DejaVuSans-105"/>
      <path d="M 2.984375 54.6875 
L 12.5 54.6875 
L 29.59375 8.796875 
L 46.6875 54.6875 
L 56.203125 54.6875 
L 35.6875 0 
L 23.484375 0 
z
" id="DejaVuSans-118"/>
      <path d="M 9.8125 72.90625 
L 19.671875 72.90625 
L 19.671875 8.296875 
L 55.171875 8.296875 
L 55.171875 0 
L 9.8125 0 
z
" id="DejaVuSans-76"/>
      <path d="M 44.390625 34.1875 
Q 47.5625 33.109375 50.5625 29.59375 
Q 53.5625 26.078125 56.59375 19.921875 
L 66.609375 0 
L 56 0 
L 46.6875 18.703125 
Q 43.0625 26.03125 39.671875 28.421875 
Q 36.28125 30.8125 30.421875 30.8125 
L 19.671875 30.8125 
L 19.671875 0 
L 9.8125 0 
L 9.8125 72.90625 
L 32.078125 72.90625 
Q 44.578125 72.90625 50.734375 67.671875 
Q 56.890625 62.453125 56.890625 51.90625 
Q 56.890625 45.015625 53.6875 40.46875 
Q 50.484375 35.9375 44.390625 34.1875 
z
M 19.671875 64.796875 
L 19.671875 38.921875 
L 32.078125 38.921875 
Q 39.203125 38.921875 42.84375 42.21875 
Q 46.484375 45.515625 46.484375 51.90625 
Q 46.484375 58.296875 42.84375 61.546875 
Q 39.203125 64.796875 32.078125 64.796875 
z
" id="DejaVuSans-82"/>
      <path d="M 11.71875 12.40625 
L 22.015625 12.40625 
L 22.015625 0 
L 11.71875 0 
z
M 11.71875 51.703125 
L 22.015625 51.703125 
L 22.015625 39.3125 
L 11.71875 39.3125 
z
" id="DejaVuSans-58"/>
      <path d="M 31 75.875 
Q 24.46875 64.65625 21.28125 53.65625 
Q 18.109375 42.671875 18.109375 31.390625 
Q 18.109375 20.125 21.3125 9.0625 
Q 24.515625 -2 31 -13.1875 
L 23.1875 -13.1875 
Q 15.875 -1.703125 12.234375 9.375 
Q 8.59375 20.453125 8.59375 31.390625 
Q 8.59375 42.28125 12.203125 53.3125 
Q 15.828125 64.359375 23.1875 75.875 
z
" id="DejaVuSans-40"/>
      <path d="M 33.015625 40.375 
Q 26.375 40.375 22.484375 35.828125 
Q 18.609375 31.296875 18.609375 23.390625 
Q 18.609375 15.53125 22.484375 10.953125 
Q 26.375 6.390625 33.015625 6.390625 
Q 39.65625 6.390625 43.53125 10.953125 
Q 47.40625 15.53125 47.40625 23.390625 
Q 47.40625 31.296875 43.53125 35.828125 
Q 39.65625 40.375 33.015625 40.375 
z
M 52.59375 71.296875 
L 52.59375 62.3125 
Q 48.875 64.0625 45.09375 64.984375 
Q 41.3125 65.921875 37.59375 65.921875 
Q 27.828125 65.921875 22.671875 59.328125 
Q 17.53125 52.734375 16.796875 39.40625 
Q 19.671875 43.65625 24.015625 45.921875 
Q 28.375 48.1875 33.59375 48.1875 
Q 44.578125 48.1875 50.953125 41.515625 
Q 57.328125 34.859375 57.328125 23.390625 
Q 57.328125 12.15625 50.6875 5.359375 
Q 44.046875 -1.421875 33.015625 -1.421875 
Q 20.359375 -1.421875 13.671875 8.265625 
Q 6.984375 17.96875 6.984375 36.375 
Q 6.984375 53.65625 15.1875 63.9375 
Q 23.390625 74.21875 37.203125 74.21875 
Q 40.921875 74.21875 44.703125 73.484375 
Q 48.484375 72.75 52.59375 71.296875 
z
" id="DejaVuSans-54"/>
      <path d="M 73.1875 39.890625 
L 73.1875 31.203125 
Q 68.0625 27.34375 63.6875 25.6875 
Q 59.328125 24.03125 54.59375 24.03125 
Q 49.21875 24.03125 42.09375 26.90625 
Q 41.546875 27.09375 41.3125 27.203125 
Q 40.96875 27.34375 40.234375 27.59375 
Q 32.671875 30.609375 28.078125 30.609375 
Q 23.78125 30.609375 19.578125 28.734375 
Q 15.375 26.859375 10.59375 22.796875 
L 10.59375 31.5 
Q 15.71875 35.359375 20.09375 37.03125 
Q 24.46875 38.71875 29.203125 38.71875 
Q 34.578125 38.71875 41.75 35.796875 
Q 42.234375 35.59375 42.484375 35.5 
Q 42.875 35.359375 43.5625 35.109375 
Q 51.125 32.078125 55.71875 32.078125 
Q 59.90625 32.078125 64.03125 33.9375 
Q 68.171875 35.796875 73.1875 39.890625 
z
" id="DejaVuSans-126"/>
      <path d="M 31.78125 34.625 
Q 24.75 34.625 20.71875 30.859375 
Q 16.703125 27.09375 16.703125 20.515625 
Q 16.703125 13.921875 20.71875 10.15625 
Q 24.75 6.390625 31.78125 6.390625 
Q 38.8125 6.390625 42.859375 10.171875 
Q 46.921875 13.96875 46.921875 20.515625 
Q 46.921875 27.09375 42.890625 30.859375 
Q 38.875 34.625 31.78125 34.625 
z
M 21.921875 38.8125 
Q 15.578125 40.375 12.03125 44.71875 
Q 8.5 49.078125 8.5 55.328125 
Q 8.5 64.0625 14.71875 69.140625 
Q 20.953125 74.21875 31.78125 74.21875 
Q 42.671875 74.21875 48.875 69.140625 
Q 55.078125 64.0625 55.078125 55.328125 
Q 55.078125 49.078125 51.53125 44.71875 
Q 48 40.375 41.703125 38.8125 
Q 48.828125 37.15625 52.796875 32.3125 
Q 56.78125 27.484375 56.78125 20.515625 
Q 56.78125 9.90625 50.3125 4.234375 
Q 43.84375 -1.421875 31.78125 -1.421875 
Q 19.734375 -1.421875 13.25 4.234375 
Q 6.78125 9.90625 6.78125 20.515625 
Q 6.78125 27.484375 10.78125 32.3125 
Q 14.796875 37.15625 21.921875 38.8125 
z
M 18.3125 54.390625 
Q 18.3125 48.734375 21.84375 45.5625 
Q 25.390625 42.390625 31.78125 42.390625 
Q 38.140625 42.390625 41.71875 45.5625 
Q 45.3125 48.734375 45.3125 54.390625 
Q 45.3125 60.0625 41.71875 63.234375 
Q 38.140625 66.40625 31.78125 66.40625 
Q 25.390625 66.40625 21.84375 63.234375 
Q 18.3125 60.0625 18.3125 54.390625 
z
" id="DejaVuSans-56"/>
      <path d="M 8.015625 75.875 
L 15.828125 75.875 
Q 23.140625 64.359375 26.78125 53.3125 
Q 30.421875 42.28125 30.421875 31.390625 
Q 30.421875 20.453125 26.78125 9.375 
Q 23.140625 -1.703125 15.828125 -13.1875 
L 8.015625 -13.1875 
Q 14.5 -2 17.703125 9.0625 
Q 20.90625 20.125 20.90625 31.390625 
Q 20.90625 42.671875 17.703125 53.65625 
Q 14.5 64.65625 8.015625 75.875 
z
" id="DejaVuSans-41"/>
     </defs>
     <use xlink:href="#DejaVuSans-67"/>
     <use x="69.824219" xlink:href="#DejaVuSans-117"/>
     <use x="133.203125" xlink:href="#DejaVuSans-109"/>
     <use x="230.615234" xlink:href="#DejaVuSans-117"/>
     <use x="293.994141" xlink:href="#DejaVuSans-108"/>
     <use x="321.777344" xlink:href="#DejaVuSans-97"/>
     <use x="383.056641" xlink:href="#DejaVuSans-116"/>
     <use x="422.265625" xlink:href="#DejaVuSans-105"/>
     <use x="450.048828" xlink:href="#DejaVuSans-118"/>
     <use x="509.228516" xlink:href="#DejaVuSans-101"/>
     <use x="570.751953" xlink:href="#DejaVuSans-32"/>
     <use x="602.539062" xlink:href="#DejaVuSans-76"/>
     <use x="656.501953" xlink:href="#DejaVuSans-111"/>
     <use x="717.683594" xlink:href="#DejaVuSans-103"/>
     <use x="781.160156" xlink:href="#DejaVuSans-32"/>
     <use x="812.947266" xlink:href="#DejaVuSans-82"/>
     <use x="877.929688" xlink:href="#DejaVuSans-101"/>
     <use x="939.453125" xlink:href="#DejaVuSans-116"/>
     <use x="978.662109" xlink:href="#DejaVuSans-117"/>
     <use x="1042.041016" xlink:href="#DejaVuSans-114"/>
     <use x="1081.404297" xlink:href="#DejaVuSans-110"/>
     <use x="1144.783203" xlink:href="#DejaVuSans-58"/>
     <use x="1178.474609" xlink:href="#DejaVuSans-32"/>
     <use x="1210.261719" xlink:href="#DejaVuSans-40"/>
     <use x="1249.275391" xlink:href="#DejaVuSans-50"/>
     <use x="1312.898438" xlink:href="#DejaVuSans-48"/>
     <use x="1376.521484" xlink:href="#DejaVuSans-49"/>
     <use x="1440.144531" xlink:href="#DejaVuSans-48"/>
     <use x="1503.767578" xlink:href="#DejaVuSans-45"/>
     <use x="1539.851562" xlink:href="#DejaVuSans-48"/>
     <use x="1603.474609" xlink:href="#DejaVuSans-49"/>
     <use x="1667.097656" xlink:href="#DejaVuSans-45"/>
     <use x="1703.181641" xlink:href="#DejaVuSans-48"/>
     <use x="1766.804688" xlink:href="#DejaVuSans-54"/>
     <use x="1830.427734" xlink:href="#DejaVuSans-32"/>
     <use x="1862.214844" xlink:href="#DejaVuSans-126"/>
     <use x="1946.003906" xlink:href="#DejaVuSans-32"/>
     <use x="1977.791016" xlink:href="#DejaVuSans-50"/>
     <use x="2041.414062" xlink:href="#DejaVuSans-48"/>
     <use x="2105.037109" xlink:href="#DejaVuSans-49"/>
     <use x="2168.660156" xlink:href="#DejaVuSans-48"/>
     <use x="2232.283203" xlink:href="#DejaVuSans-45"/>
     <use x="2268.367188" xlink:href="#DejaVuSans-49"/>
     <use x="2331.990234" xlink:href="#DejaVuSans-48"/>
     <use x="2395.613281" xlink:href="#DejaVuSans-45"/>
     <use x="2431.697266" xlink:href="#DejaVuSans-48"/>
     <use x="2495.320312" xlink:href="#DejaVuSans-56"/>
     <use x="2558.943359" xlink:href="#DejaVuSans-41"/>
    </g>
   </g>
   <g id="legend_1">
    <g id="patch_7">
     <path d="M 57.9 123.379375 
L 154.389062 123.379375 
Q 156.389062 123.379375 156.389062 121.379375 
L 156.389062 32.92 
Q 156.389062 30.92 154.389062 30.92 
L 57.9 30.92 
Q 55.9 30.92 55.9 32.92 
L 55.9 121.379375 
Q 55.9 123.379375 57.9 123.379375 
z
" style="fill:#ffffff;opacity:0.8;stroke:#cccccc;stroke-linejoin:miter;"/>
    </g>
    <g id="line2d_23">
     <path d="M 59.9 39.018437 
L 79.9 39.018437 
" style="fill:none;stroke:#9467bd;stroke-linecap:square;stroke-width:1.5;"/>
    </g>
    <g id="line2d_24"/>
    <g id="text_11">
     <!-- group_5 -->
     <g transform="translate(87.9 42.518437)scale(0.1 -0.1)">
      <defs>
       <path d="M 18.109375 8.203125 
L 18.109375 -20.796875 
L 9.078125 -20.796875 
L 9.078125 54.6875 
L 18.109375 54.6875 
L 18.109375 46.390625 
Q 20.953125 51.265625 25.265625 53.625 
Q 29.59375 56 35.59375 56 
Q 45.5625 56 51.78125 48.09375 
Q 58.015625 40.1875 58.015625 27.296875 
Q 58.015625 14.40625 51.78125 6.484375 
Q 45.5625 -1.421875 35.59375 -1.421875 
Q 29.59375 -1.421875 25.265625 0.953125 
Q 20.953125 3.328125 18.109375 8.203125 
z
M 48.6875 27.296875 
Q 48.6875 37.203125 44.609375 42.84375 
Q 40.53125 48.484375 33.40625 48.484375 
Q 26.265625 48.484375 22.1875 42.84375 
Q 18.109375 37.203125 18.109375 27.296875 
Q 18.109375 17.390625 22.1875 11.75 
Q 26.265625 6.109375 33.40625 6.109375 
Q 40.53125 6.109375 44.609375 11.75 
Q 48.6875 17.390625 48.6875 27.296875 
z
" id="DejaVuSans-112"/>
       <path d="M 50.984375 -16.609375 
L 50.984375 -23.578125 
L -0.984375 -23.578125 
L -0.984375 -16.609375 
z
" id="DejaVuSans-95"/>
      </defs>
      <use xlink:href="#DejaVuSans-103"/>
      <use x="63.476562" xlink:href="#DejaVuSans-114"/>
      <use x="102.339844" xlink:href="#DejaVuSans-111"/>
      <use x="163.521484" xlink:href="#DejaVuSans-117"/>
      <use x="226.900391" xlink:href="#DejaVuSans-112"/>
      <use x="290.376953" xlink:href="#DejaVuSans-95"/>
      <use x="340.376953" xlink:href="#DejaVuSans-53"/>
     </g>
    </g>
    <g id="line2d_25">
     <path d="M 59.9 53.974687 
L 79.9 53.974687 
" style="fill:none;stroke:#1f77b4;stroke-linecap:square;stroke-width:1.5;"/>
    </g>
    <g id="line2d_26"/>
    <g id="text_12">
     <!-- group_1 -->
     <g transform="translate(87.9 57.474687)scale(0.1 -0.1)">
      <use xlink:href="#DejaVuSans-103"/>
      <use x="63.476562" xlink:href="#DejaVuSans-114"/>
      <use x="102.339844" xlink:href="#DejaVuSans-111"/>
      <use x="163.521484" xlink:href="#DejaVuSans-117"/>
      <use x="226.900391" xlink:href="#DejaVuSans-112"/>
      <use x="290.376953" xlink:href="#DejaVuSans-95"/>
      <use x="340.376953" xlink:href="#DejaVuSans-49"/>
     </g>
    </g>
    <g id="line2d_27">
     <path d="M 59.9 68.930937 
L 79.9 68.930937 
" style="fill:none;stroke:#8c564b;stroke-linecap:square;stroke-width:1.5;"/>
    </g>
    <g id="line2d_28"/>
    <g id="text_13">
     <!-- benchmark -->
     <g transform="translate(87.9 72.430937)scale(0.1 -0.1)">
      <defs>
       <path d="M 48.6875 27.296875 
Q 48.6875 37.203125 44.609375 42.84375 
Q 40.53125 48.484375 33.40625 48.484375 
Q 26.265625 48.484375 22.1875 42.84375 
Q 18.109375 37.203125 18.109375 27.296875 
Q 18.109375 17.390625 22.1875 11.75 
Q 26.265625 6.109375 33.40625 6.109375 
Q 40.53125 6.109375 44.609375 11.75 
Q 48.6875 17.390625 48.6875 27.296875 
z
M 18.109375 46.390625 
Q 20.953125 51.265625 25.265625 53.625 
Q 29.59375 56 35.59375 56 
Q 45.5625 56 51.78125 48.09375 
Q 58.015625 40.1875 58.015625 27.296875 
Q 58.015625 14.40625 51.78125 6.484375 
Q 45.5625 -1.421875 35.59375 -1.421875 
Q 29.59375 -1.421875 25.265625 0.953125 
Q 20.953125 3.328125 18.109375 8.203125 
L 18.109375 0 
L 9.078125 0 
L 9.078125 75.984375 
L 18.109375 75.984375 
z
" id="DejaVuSans-98"/>
       <path d="M 54.890625 33.015625 
L 54.890625 0 
L 45.90625 0 
L 45.90625 32.71875 
Q 45.90625 40.484375 42.875 44.328125 
Q 39.84375 48.1875 33.796875 48.1875 
Q 26.515625 48.1875 22.3125 43.546875 
Q 18.109375 38.921875 18.109375 30.90625 
L 18.109375 0 
L 9.078125 0 
L 9.078125 75.984375 
L 18.109375 75.984375 
L 18.109375 46.1875 
Q 21.34375 51.125 25.703125 53.5625 
Q 30.078125 56 35.796875 56 
Q 45.21875 56 50.046875 50.171875 
Q 54.890625 44.34375 54.890625 33.015625 
z
" id="DejaVuSans-104"/>
       <path d="M 9.078125 75.984375 
L 18.109375 75.984375 
L 18.109375 31.109375 
L 44.921875 54.6875 
L 56.390625 54.6875 
L 27.390625 29.109375 
L 57.625 0 
L 45.90625 0 
L 18.109375 26.703125 
L 18.109375 0 
L 9.078125 0 
z
" id="DejaVuSans-107"/>
      </defs>
      <use xlink:href="#DejaVuSans-98"/>
      <use x="63.476562" xlink:href="#DejaVuSans-101"/>
      <use x="125" xlink:href="#DejaVuSans-110"/>
      <use x="188.378906" xlink:href="#DejaVuSans-99"/>
      <use x="243.359375" xlink:href="#DejaVuSans-104"/>
      <use x="306.738281" xlink:href="#DejaVuSans-109"/>
      <use x="404.150391" xlink:href="#DejaVuSans-97"/>
      <use x="465.429688" xlink:href="#DejaVuSans-114"/>
      <use x="506.542969" xlink:href="#DejaVuSans-107"/>
     </g>
    </g>
    <g id="line2d_29">
     <path d="M 59.9 83.609062 
L 79.9 83.609062 
" style="fill:none;stroke:#e377c2;stroke-linecap:square;stroke-width:1.5;"/>
    </g>
    <g id="line2d_30"/>
    <g id="text_14">
     <!-- long_excess -->
     <g transform="translate(87.9 87.109062)scale(0.1 -0.1)">
      <defs>
       <path d="M 54.890625 54.6875 
L 35.109375 28.078125 
L 55.90625 0 
L 45.3125 0 
L 29.390625 21.484375 
L 13.484375 0 
L 2.875 0 
L 24.125 28.609375 
L 4.6875 54.6875 
L 15.28125 54.6875 
L 29.78125 35.203125 
L 44.28125 54.6875 
z
" id="DejaVuSans-120"/>
      </defs>
      <use xlink:href="#DejaVuSans-108"/>
      <use x="27.783203" xlink:href="#DejaVuSans-111"/>
      <use x="88.964844" xlink:href="#DejaVuSans-110"/>
      <use x="152.34375" xlink:href="#DejaVuSans-103"/>
      <use x="215.820312" xlink:href="#DejaVuSans-95"/>
      <use x="265.820312" xlink:href="#DejaVuSans-101"/>
      <use x="325.59375" xlink:href="#DejaVuSans-120"/>
      <use x="383.023438" xlink:href="#DejaVuSans-99"/>
      <use x="438.003906" xlink:href="#DejaVuSans-101"/>
      <use x="499.527344" xlink:href="#DejaVuSans-115"/>
      <use x="551.626953" xlink:href="#DejaVuSans-115"/>
     </g>
    </g>
    <g id="line2d_31">
     <path d="M 59.9 98.565312 
L 79.9 98.565312 
" style="fill:none;stroke:#7f7f7f;stroke-linecap:square;stroke-width:1.5;"/>
    </g>
    <g id="line2d_32"/>
    <g id="text_15">
     <!-- short_excess -->
     <g transform="translate(87.9 102.065312)scale(0.1 -0.1)">
      <use xlink:href="#DejaVuSans-115"/>
      <use x="52.099609" xlink:href="#DejaVuSans-104"/>
      <use x="115.478516" xlink:href="#DejaVuSans-111"/>
      <use x="176.660156" xlink:href="#DejaVuSans-114"/>
      <use x="217.773438" xlink:href="#DejaVuSans-116"/>
      <use x="256.982422" xlink:href="#DejaVuSans-95"/>
      <use x="306.982422" xlink:href="#DejaVuSans-101"/>
      <use x="366.755859" xlink:href="#DejaVuSans-120"/>
      <use x="424.185547" xlink:href="#DejaVuSans-99"/>
      <use x="479.166016" xlink:href="#DejaVuSans-101"/>
      <use x="540.689453" xlink:href="#DejaVuSans-115"/>
      <use x="592.789062" xlink:href="#DejaVuSans-115"/>
     </g>
    </g>
    <g id="line2d_33">
     <path d="M 59.9 113.521562 
L 79.9 113.521562 
" style="fill:none;stroke:#bcbd22;stroke-linecap:square;stroke-width:1.5;"/>
    </g>
    <g id="line2d_34"/>
    <g id="text_16">
     <!-- long_short -->
     <g transform="translate(87.9 117.021562)scale(0.1 -0.1)">
      <use xlink:href="#DejaVuSans-108"/>
      <use x="27.783203" xlink:href="#DejaVuSans-111"/>
      <use x="88.964844" xlink:href="#DejaVuSans-110"/>
      <use x="152.34375" xlink:href="#DejaVuSans-103"/>
      <use x="215.820312" xlink:href="#DejaVuSans-95"/>
      <use x="265.820312" xlink:href="#DejaVuSans-115"/>
      <use x="317.919922" xlink:href="#DejaVuSans-104"/>
      <use x="381.298828" xlink:href="#DejaVuSans-111"/>
      <use x="442.480469" xlink:href="#DejaVuSans-114"/>
      <use x="483.59375" xlink:href="#DejaVuSans-116"/>
     </g>
    </g>
   </g>
  </g>
 </g>
 <defs>
  <clipPath id="p7c6ecb814d">
   <rect height="290.84" width="1090.3" x="50.9" y="25.92"/>
  </clipPath>
 </defs>
</svg>
