<?xml version="1.0" encoding="utf-8" standalone="no"?>
<!DOCTYPE svg PUBLIC "-//W3C//DTD SVG 1.1//EN"
  "http://www.w3.org/Graphics/SVG/1.1/DTD/svg11.dtd">
<!-- Created with matplotlib (https://matplotlib.org/) -->
<svg height="360pt" version="1.1" viewBox="0 0 1152 360" width="1152pt" xmlns="http://www.w3.org/2000/svg" xmlns:xlink="http://www.w3.org/1999/xlink">
 <metadata>
  <rdf:RDF xmlns:cc="http://creativecommons.org/ns#" xmlns:dc="http://purl.org/dc/elements/1.1/" xmlns:rdf="http://www.w3.org/1999/02/22-rdf-syntax-ns#">
   <cc:Work>
    <dc:type rdf:resource="http://purl.org/dc/dcmitype/StillImage"/>
    <dc:date>2023-10-11T16:59:17.338644</dc:date>
    <dc:format>image/svg+xml</dc:format>
    <dc:creator>
     <cc:Agent>
      <dc:title>Matplotlib v3.3.4, https://matplotlib.org/</dc:title>
     </cc:Agent>
    </dc:creator>
   </cc:Work>
  </rdf:RDF>
 </metadata>
 <defs>
  <style type="text/css">*{stroke-linecap:butt;stroke-linejoin:round;}</style>
 </defs>
 <g id="figure_1">
  <g id="patch_1">
   <path d="M 0 360 
L 1152 360 
L 1152 0 
L 0 0 
z
" style="fill:#ffffff;"/>
  </g>
  <g id="axes_1">
   <g id="patch_2">
    <path d="M 50.9 345.7 
L 1141.2 345.7 
L 1141.2 25.92 
L 50.9 25.92 
z
" style="fill:#ffffff;"/>
   </g>
   <g id="matplotlib.axis_1"/>
   <g id="matplotlib.axis_2">
    <g id="ytick_1">
     <g id="line2d_1">
      <path clip-path="url(#p67ec6f3036)" d="M 50.9 339.540458 
L 1141.2 339.540458 
" style="fill:none;stroke:#b0b0b0;stroke-linecap:square;stroke-width:0.8;"/>
     </g>
     <g id="line2d_2">
      <defs>
       <path d="M 0 0 
L -3.5 0 
" id="mf18ee96b12" style="stroke:#000000;stroke-width:0.8;"/>
      </defs>
      <g>
       <use style="stroke:#000000;stroke-width:0.8;" x="50.9" xlink:href="#mf18ee96b12" y="339.540458"/>
      </g>
     </g>
     <g id="text_1">
      <!-- -1.5 -->
      <g transform="translate(24.389062 343.339677)scale(0.1 -0.1)">
       <defs>
        <path d="M 4.890625 31.390625 
L 31.203125 31.390625 
L 31.203125 23.390625 
L 4.890625 23.390625 
z
" id="DejaVuSans-45"/>
        <path d="M 12.40625 8.296875 
L 28.515625 8.296875 
L 28.515625 63.921875 
L 10.984375 60.40625 
L 10.984375 69.390625 
L 28.421875 72.90625 
L 38.28125 72.90625 
L 38.28125 8.296875 
L 54.390625 8.296875 
L 54.390625 0 
L 12.40625 0 
z
" id="DejaVuSans-49"/>
        <path d="M 10.6875 12.40625 
L 21 12.40625 
L 21 0 
L 10.6875 0 
z
" id="DejaVuSans-46"/>
        <path d="M 10.796875 72.90625 
L 49.515625 72.90625 
L 49.515625 64.59375 
L 19.828125 64.59375 
L 19.828125 46.734375 
Q 21.96875 47.46875 24.109375 47.828125 
Q 26.265625 48.1875 28.421875 48.1875 
Q 40.625 48.1875 47.75 41.5 
Q 54.890625 34.8125 54.890625 23.390625 
Q 54.890625 11.625 47.5625 5.09375 
Q 40.234375 -1.421875 26.90625 -1.421875 
Q 22.3125 -1.421875 17.546875 -0.640625 
Q 12.796875 0.140625 7.71875 1.703125 
L 7.71875 11.625 
Q 12.109375 9.234375 16.796875 8.0625 
Q 21.484375 6.890625 26.703125 6.890625 
Q 35.15625 6.890625 40.078125 11.328125 
Q 45.015625 15.765625 45.015625 23.390625 
Q 45.015625 31 40.078125 35.4375 
Q 35.15625 39.890625 26.703125 39.890625 
Q 22.75 39.890625 18.8125 39.015625 
Q 14.890625 38.140625 10.796875 36.28125 
z
" id="DejaVuSans-53"/>
       </defs>
       <use xlink:href="#DejaVuSans-45"/>
       <use x="36.083984" xlink:href="#DejaVuSans-49"/>
       <use x="99.707031" xlink:href="#DejaVuSans-46"/>
       <use x="131.494141" xlink:href="#DejaVuSans-53"/>
      </g>
     </g>
    </g>
    <g id="ytick_2">
     <g id="line2d_3">
      <path clip-path="url(#p67ec6f3036)" d="M 50.9 278.101315 
L 1141.2 278.101315 
" style="fill:none;stroke:#b0b0b0;stroke-linecap:square;stroke-width:0.8;"/>
     </g>
     <g id="line2d_4">
      <g>
       <use style="stroke:#000000;stroke-width:0.8;" x="50.9" xlink:href="#mf18ee96b12" y="278.101315"/>
      </g>
     </g>
     <g id="text_2">
      <!-- -1.0 -->
      <g transform="translate(24.389062 281.900533)scale(0.1 -0.1)">
       <defs>
        <path d="M 31.78125 66.40625 
Q 24.171875 66.40625 20.328125 58.90625 
Q 16.5 51.421875 16.5 36.375 
Q 16.5 21.390625 20.328125 13.890625 
Q 24.171875 6.390625 31.78125 6.390625 
Q 39.453125 6.390625 43.28125 13.890625 
Q 47.125 21.390625 47.125 36.375 
Q 47.125 51.421875 43.28125 58.90625 
Q 39.453125 66.40625 31.78125 66.40625 
z
M 31.78125 74.21875 
Q 44.046875 74.21875 50.515625 64.515625 
Q 56.984375 54.828125 56.984375 36.375 
Q 56.984375 17.96875 50.515625 8.265625 
Q 44.046875 -1.421875 31.78125 -1.421875 
Q 19.53125 -1.421875 13.0625 8.265625 
Q 6.59375 17.96875 6.59375 36.375 
Q 6.59375 54.828125 13.0625 64.515625 
Q 19.53125 74.21875 31.78125 74.21875 
z
" id="DejaVuSans-48"/>
       </defs>
       <use xlink:href="#DejaVuSans-45"/>
       <use x="36.083984" xlink:href="#DejaVuSans-49"/>
       <use x="99.707031" xlink:href="#DejaVuSans-46"/>
       <use x="131.494141" xlink:href="#DejaVuSans-48"/>
      </g>
     </g>
    </g>
    <g id="ytick_3">
     <g id="line2d_5">
      <path clip-path="url(#p67ec6f3036)" d="M 50.9 216.662171 
L 1141.2 216.662171 
" style="fill:none;stroke:#b0b0b0;stroke-linecap:square;stroke-width:0.8;"/>
     </g>
     <g id="line2d_6">
      <g>
       <use style="stroke:#000000;stroke-width:0.8;" x="50.9" xlink:href="#mf18ee96b12" y="216.662171"/>
      </g>
     </g>
     <g id="text_3">
      <!-- -0.5 -->
      <g transform="translate(24.389062 220.46139)scale(0.1 -0.1)">
       <use xlink:href="#DejaVuSans-45"/>
       <use x="36.083984" xlink:href="#DejaVuSans-48"/>
       <use x="99.707031" xlink:href="#DejaVuSans-46"/>
       <use x="131.494141" xlink:href="#DejaVuSans-53"/>
      </g>
     </g>
    </g>
    <g id="ytick_4">
     <g id="line2d_7">
      <path clip-path="url(#p67ec6f3036)" d="M 50.9 155.223027 
L 1141.2 155.223027 
" style="fill:none;stroke:#b0b0b0;stroke-linecap:square;stroke-width:0.8;"/>
     </g>
     <g id="line2d_8">
      <g>
       <use style="stroke:#000000;stroke-width:0.8;" x="50.9" xlink:href="#mf18ee96b12" y="155.223027"/>
      </g>
     </g>
     <g id="text_4">
      <!-- 0.0 -->
      <g transform="translate(27.996875 159.022246)scale(0.1 -0.1)">
       <use xlink:href="#DejaVuSans-48"/>
       <use x="63.623047" xlink:href="#DejaVuSans-46"/>
       <use x="95.410156" xlink:href="#DejaVuSans-48"/>
      </g>
     </g>
    </g>
    <g id="ytick_5">
     <g id="line2d_9">
      <path clip-path="url(#p67ec6f3036)" d="M 50.9 93.783883 
L 1141.2 93.783883 
" style="fill:none;stroke:#b0b0b0;stroke-linecap:square;stroke-width:0.8;"/>
     </g>
     <g id="line2d_10">
      <g>
       <use style="stroke:#000000;stroke-width:0.8;" x="50.9" xlink:href="#mf18ee96b12" y="93.783883"/>
      </g>
     </g>
     <g id="text_5">
      <!-- 0.5 -->
      <g transform="translate(27.996875 97.583102)scale(0.1 -0.1)">
       <use xlink:href="#DejaVuSans-48"/>
       <use x="63.623047" xlink:href="#DejaVuSans-46"/>
       <use x="95.410156" xlink:href="#DejaVuSans-53"/>
      </g>
     </g>
    </g>
    <g id="ytick_6">
     <g id="line2d_11">
      <path clip-path="url(#p67ec6f3036)" d="M 50.9 32.34474 
L 1141.2 32.34474 
" style="fill:none;stroke:#b0b0b0;stroke-linecap:square;stroke-width:0.8;"/>
     </g>
     <g id="line2d_12">
      <g>
       <use style="stroke:#000000;stroke-width:0.8;" x="50.9" xlink:href="#mf18ee96b12" y="32.34474"/>
      </g>
     </g>
     <g id="text_6">
      <!-- 1.0 -->
      <g transform="translate(27.996875 36.143958)scale(0.1 -0.1)">
       <use xlink:href="#DejaVuSans-49"/>
       <use x="63.623047" xlink:href="#DejaVuSans-46"/>
       <use x="95.410156" xlink:href="#DejaVuSans-48"/>
      </g>
     </g>
    </g>
    <g id="text_7">
     <!-- log return cumsum -->
     <g transform="translate(18.309375 233.327969)rotate(-90)scale(0.1 -0.1)">
      <defs>
       <path d="M 9.421875 75.984375 
L 18.40625 75.984375 
L 18.40625 0 
L 9.421875 0 
z
" id="DejaVuSans-108"/>
       <path d="M 30.609375 48.390625 
Q 23.390625 48.390625 19.1875 42.75 
Q 14.984375 37.109375 14.984375 27.296875 
Q 14.984375 17.484375 19.15625 11.84375 
Q 23.34375 6.203125 30.609375 6.203125 
Q 37.796875 6.203125 41.984375 11.859375 
Q 46.1875 17.53125 46.1875 27.296875 
Q 46.1875 37.015625 41.984375 42.703125 
Q 37.796875 48.390625 30.609375 48.390625 
z
M 30.609375 56 
Q 42.328125 56 49.015625 48.375 
Q 55.71875 40.765625 55.71875 27.296875 
Q 55.71875 13.875 49.015625 6.21875 
Q 42.328125 -1.421875 30.609375 -1.421875 
Q 18.84375 -1.421875 12.171875 6.21875 
Q 5.515625 13.875 5.515625 27.296875 
Q 5.515625 40.765625 12.171875 48.375 
Q 18.84375 56 30.609375 56 
z
" id="DejaVuSans-111"/>
       <path d="M 45.40625 27.984375 
Q 45.40625 37.75 41.375 43.109375 
Q 37.359375 48.484375 30.078125 48.484375 
Q 22.859375 48.484375 18.828125 43.109375 
Q 14.796875 37.75 14.796875 27.984375 
Q 14.796875 18.265625 18.828125 12.890625 
Q 22.859375 7.515625 30.078125 7.515625 
Q 37.359375 7.515625 41.375 12.890625 
Q 45.40625 18.265625 45.40625 27.984375 
z
M 54.390625 6.78125 
Q 54.390625 -7.171875 48.1875 -13.984375 
Q 42 -20.796875 29.203125 -20.796875 
Q 24.46875 -20.796875 20.265625 -20.09375 
Q 16.0625 -19.390625 12.109375 -17.921875 
L 12.109375 -9.1875 
Q 16.0625 -11.328125 19.921875 -12.34375 
Q 23.78125 -13.375 27.78125 -13.375 
Q 36.625 -13.375 41.015625 -8.765625 
Q 45.40625 -4.15625 45.40625 5.171875 
L 45.40625 9.625 
Q 42.625 4.78125 38.28125 2.390625 
Q 33.9375 0 27.875 0 
Q 17.828125 0 11.671875 7.65625 
Q 5.515625 15.328125 5.515625 27.984375 
Q 5.515625 40.671875 11.671875 48.328125 
Q 17.828125 56 27.875 56 
Q 33.9375 56 38.28125 53.609375 
Q 42.625 51.21875 45.40625 46.390625 
L 45.40625 54.6875 
L 54.390625 54.6875 
z
" id="DejaVuSans-103"/>
       <path id="DejaVuSans-32"/>
       <path d="M 41.109375 46.296875 
Q 39.59375 47.171875 37.8125 47.578125 
Q 36.03125 48 33.890625 48 
Q 26.265625 48 22.1875 43.046875 
Q 18.109375 38.09375 18.109375 28.8125 
L 18.109375 0 
L 9.078125 0 
L 9.078125 54.6875 
L 18.109375 54.6875 
L 18.109375 46.1875 
Q 20.953125 51.171875 25.484375 53.578125 
Q 30.03125 56 36.53125 56 
Q 37.453125 56 38.578125 55.875 
Q 39.703125 55.765625 41.0625 55.515625 
z
" id="DejaVuSans-114"/>
       <path d="M 56.203125 29.59375 
L 56.203125 25.203125 
L 14.890625 25.203125 
Q 15.484375 15.921875 20.484375 11.0625 
Q 25.484375 6.203125 34.421875 6.203125 
Q 39.59375 6.203125 44.453125 7.46875 
Q 49.3125 8.734375 54.109375 11.28125 
L 54.109375 2.78125 
Q 49.265625 0.734375 44.1875 -0.34375 
Q 39.109375 -1.421875 33.890625 -1.421875 
Q 20.796875 -1.421875 13.15625 6.1875 
Q 5.515625 13.8125 5.515625 26.8125 
Q 5.515625 40.234375 12.765625 48.109375 
Q 20.015625 56 32.328125 56 
Q 43.359375 56 49.78125 48.890625 
Q 56.203125 41.796875 56.203125 29.59375 
z
M 47.21875 32.234375 
Q 47.125 39.59375 43.09375 43.984375 
Q 39.0625 48.390625 32.421875 48.390625 
Q 24.90625 48.390625 20.390625 44.140625 
Q 15.875 39.890625 15.1875 32.171875 
z
" id="DejaVuSans-101"/>
       <path d="M 18.3125 70.21875 
L 18.3125 54.6875 
L 36.8125 54.6875 
L 36.8125 47.703125 
L 18.3125 47.703125 
L 18.3125 18.015625 
Q 18.3125 11.328125 20.140625 9.421875 
Q 21.96875 7.515625 27.59375 7.515625 
L 36.8125 7.515625 
L 36.8125 0 
L 27.59375 0 
Q 17.1875 0 13.234375 3.875 
Q 9.28125 7.765625 9.28125 18.015625 
L 9.28125 47.703125 
L 2.6875 47.703125 
L 2.6875 54.6875 
L 9.28125 54.6875 
L 9.28125 70.21875 
z
" id="DejaVuSans-116"/>
       <path d="M 8.5 21.578125 
L 8.5 54.6875 
L 17.484375 54.6875 
L 17.484375 21.921875 
Q 17.484375 14.15625 20.5 10.265625 
Q 23.53125 6.390625 29.59375 6.390625 
Q 36.859375 6.390625 41.078125 11.03125 
Q 45.3125 15.671875 45.3125 23.6875 
L 45.3125 54.6875 
L 54.296875 54.6875 
L 54.296875 0 
L 45.3125 0 
L 45.3125 8.40625 
Q 42.046875 3.421875 37.71875 1 
Q 33.40625 -1.421875 27.6875 -1.421875 
Q 18.265625 -1.421875 13.375 4.4375 
Q 8.5 10.296875 8.5 21.578125 
z
M 31.109375 56 
z
" id="DejaVuSans-117"/>
       <path d="M 54.890625 33.015625 
L 54.890625 0 
L 45.90625 0 
L 45.90625 32.71875 
Q 45.90625 40.484375 42.875 44.328125 
Q 39.84375 48.1875 33.796875 48.1875 
Q 26.515625 48.1875 22.3125 43.546875 
Q 18.109375 38.921875 18.109375 30.90625 
L 18.109375 0 
L 9.078125 0 
L 9.078125 54.6875 
L 18.109375 54.6875 
L 18.109375 46.1875 
Q 21.34375 51.125 25.703125 53.5625 
Q 30.078125 56 35.796875 56 
Q 45.21875 56 50.046875 50.171875 
Q 54.890625 44.34375 54.890625 33.015625 
z
" id="DejaVuSans-110"/>
       <path d="M 48.78125 52.59375 
L 48.78125 44.1875 
Q 44.96875 46.296875 41.140625 47.34375 
Q 37.3125 48.390625 33.40625 48.390625 
Q 24.65625 48.390625 19.8125 42.84375 
Q 14.984375 37.3125 14.984375 27.296875 
Q 14.984375 17.28125 19.8125 11.734375 
Q 24.65625 6.203125 33.40625 6.203125 
Q 37.3125 6.203125 41.140625 7.25 
Q 44.96875 8.296875 48.78125 10.40625 
L 48.78125 2.09375 
Q 45.015625 0.34375 40.984375 -0.53125 
Q 36.96875 -1.421875 32.421875 -1.421875 
Q 20.0625 -1.421875 12.78125 6.34375 
Q 5.515625 14.109375 5.515625 27.296875 
Q 5.515625 40.671875 12.859375 48.328125 
Q 20.21875 56 33.015625 56 
Q 37.15625 56 41.109375 55.140625 
Q 45.0625 54.296875 48.78125 52.59375 
z
" id="DejaVuSans-99"/>
       <path d="M 52 44.1875 
Q 55.375 50.25 60.0625 53.125 
Q 64.75 56 71.09375 56 
Q 79.640625 56 84.28125 50.015625 
Q 88.921875 44.046875 88.921875 33.015625 
L 88.921875 0 
L 79.890625 0 
L 79.890625 32.71875 
Q 79.890625 40.578125 77.09375 44.375 
Q 74.3125 48.1875 68.609375 48.1875 
Q 61.625 48.1875 57.5625 43.546875 
Q 53.515625 38.921875 53.515625 30.90625 
L 53.515625 0 
L 44.484375 0 
L 44.484375 32.71875 
Q 44.484375 40.625 41.703125 44.40625 
Q 38.921875 48.1875 33.109375 48.1875 
Q 26.21875 48.1875 22.15625 43.53125 
Q 18.109375 38.875 18.109375 30.90625 
L 18.109375 0 
L 9.078125 0 
L 9.078125 54.6875 
L 18.109375 54.6875 
L 18.109375 46.1875 
Q 21.1875 51.21875 25.484375 53.609375 
Q 29.78125 56 35.6875 56 
Q 41.65625 56 45.828125 52.96875 
Q 50 49.953125 52 44.1875 
z
" id="DejaVuSans-109"/>
       <path d="M 44.28125 53.078125 
L 44.28125 44.578125 
Q 40.484375 46.53125 36.375 47.5 
Q 32.28125 48.484375 27.875 48.484375 
Q 21.1875 48.484375 17.84375 46.4375 
Q 14.5 44.390625 14.5 40.28125 
Q 14.5 37.15625 16.890625 35.375 
Q 19.28125 33.59375 26.515625 31.984375 
L 29.59375 31.296875 
Q 39.15625 29.25 43.1875 25.515625 
Q 47.21875 21.78125 47.21875 15.09375 
Q 47.21875 7.46875 41.1875 3.015625 
Q 35.15625 -1.421875 24.609375 -1.421875 
Q 20.21875 -1.421875 15.453125 -0.5625 
Q 10.6875 0.296875 5.421875 2 
L 5.421875 11.28125 
Q 10.40625 8.6875 15.234375 7.390625 
Q 20.0625 6.109375 24.8125 6.109375 
Q 31.15625 6.109375 34.5625 8.28125 
Q 37.984375 10.453125 37.984375 14.40625 
Q 37.984375 18.0625 35.515625 20.015625 
Q 33.0625 21.96875 24.703125 23.78125 
L 21.578125 24.515625 
Q 13.234375 26.265625 9.515625 29.90625 
Q 5.8125 33.546875 5.8125 39.890625 
Q 5.8125 47.609375 11.28125 51.796875 
Q 16.75 56 26.8125 56 
Q 31.78125 56 36.171875 55.265625 
Q 40.578125 54.546875 44.28125 53.078125 
z
" id="DejaVuSans-115"/>
      </defs>
      <use xlink:href="#DejaVuSans-108"/>
      <use x="27.783203" xlink:href="#DejaVuSans-111"/>
      <use x="88.964844" xlink:href="#DejaVuSans-103"/>
      <use x="152.441406" xlink:href="#DejaVuSans-32"/>
      <use x="184.228516" xlink:href="#DejaVuSans-114"/>
      <use x="223.091797" xlink:href="#DejaVuSans-101"/>
      <use x="284.615234" xlink:href="#DejaVuSans-116"/>
      <use x="323.824219" xlink:href="#DejaVuSans-117"/>
      <use x="387.203125" xlink:href="#DejaVuSans-114"/>
      <use x="426.566406" xlink:href="#DejaVuSans-110"/>
      <use x="489.945312" xlink:href="#DejaVuSans-32"/>
      <use x="521.732422" xlink:href="#DejaVuSans-99"/>
      <use x="576.712891" xlink:href="#DejaVuSans-117"/>
      <use x="640.091797" xlink:href="#DejaVuSans-109"/>
      <use x="737.503906" xlink:href="#DejaVuSans-115"/>
      <use x="789.603516" xlink:href="#DejaVuSans-117"/>
      <use x="852.982422" xlink:href="#DejaVuSans-109"/>
     </g>
    </g>
   </g>
   <g id="line2d_13">
    <path clip-path="url(#p67ec6f3036)" d="M 100.459091 147.463802 
L 104.455792 149.917335 
L 108.452493 150.545178 
L 112.449194 155.444835 
L 124.439296 154.577034 
L 128.435997 144.087402 
L 132.432698 143.095057 
L 136.429399 151.759599 
L 140.4261 159.838141 
L 152.416202 164.014541 
L 156.412903 162.26451 
L 160.409604 162.067154 
L 164.406305 167.202607 
L 168.403006 167.879621 
L 180.393109 165.673416 
L 184.389809 166.046681 
L 188.38651 157.543007 
L 192.383211 154.281311 
L 196.379912 157.0307 
L 208.370015 164.856321 
L 212.366716 163.127156 
L 216.363416 160.53828 
L 220.360117 161.706385 
L 224.356818 163.257367 
L 236.346921 161.546294 
L 240.343622 155.092752 
L 244.340323 157.636452 
L 248.337023 159.253312 
L 252.333724 151.749023 
L 264.323827 154.119791 
L 268.320528 151.440543 
L 272.317229 152.86288 
L 276.31393 149.244852 
L 280.31063 152.888435 
L 292.300733 148.331256 
L 296.297434 154.216429 
L 300.294135 165.613581 
L 304.290836 167.057313 
L 308.287537 175.263298 
L 320.277639 168.215755 
L 324.27434 169.59395 
L 328.271041 171.478445 
L 332.267742 174.480051 
L 336.264443 169.185048 
L 348.254545 165.437865 
L 352.251246 163.933527 
L 356.247947 166.28776 
L 360.244648 166.417838 
L 364.241349 164.952987 
L 376.231452 162.110713 
L 380.228152 161.792102 
L 384.224853 168.998475 
L 388.221554 164.503624 
L 392.218255 168.377553 
L 404.208358 159.114114 
L 408.205059 155.582822 
L 412.20176 163.091215 
L 416.19846 164.631839 
L 420.195161 156.063841 
L 432.185264 153.247738 
L 436.181965 159.165713 
L 444.175367 153.30718 
L 448.172067 146.451066 
L 460.16217 143.309947 
L 464.158871 140.378057 
L 468.155572 134.354987 
L 472.152273 134.365704 
L 476.148974 135.347722 
L 488.139076 133.99673 
L 492.135777 127.945024 
L 496.132478 125.971288 
L 500.129179 129.825068 
L 504.12588 136.226145 
L 516.115982 140.880772 
L 520.112683 137.436098 
L 524.109384 130.773748 
L 528.106085 138.393456 
L 532.102786 135.009631 
L 544.092889 134.453728 
L 548.089589 123.358372 
L 552.08629 122.408516 
L 556.082991 119.741425 
L 560.079692 120.606503 
L 572.069795 122.67898 
L 576.066496 124.607718 
L 580.063196 114.290524 
L 584.059897 108.556002 
L 588.056598 105.159931 
L 600.046701 104.098693 
L 604.043402 113.808367 
L 608.040103 118.058722 
L 612.036804 118.047677 
L 616.033504 126.148596 
L 628.023607 117.984944 
L 632.020308 111.445983 
L 636.017009 106.773225 
L 640.01371 115.075004 
L 644.010411 116.371577 
L 656.000513 118.67314 
L 659.997214 117.1044 
L 663.993915 126.39487 
L 667.990616 123.46792 
L 671.987317 117.748188 
L 683.977419 115.604244 
L 687.97412 112.321975 
L 691.970821 119.093285 
L 695.967522 114.466316 
L 699.964223 105.530485 
L 711.954326 99.569967 
L 715.951026 105.078901 
L 719.947727 110.931134 
L 723.944428 114.820476 
L 727.941129 113.353112 
L 739.931232 107.175212 
L 743.927933 110.455079 
L 747.924633 113.961685 
L 751.921334 112.583999 
L 755.918035 108.949444 
L 767.908138 110.509499 
L 771.904839 121.373036 
L 775.90154 127.834603 
L 779.89824 132.683545 
L 783.894941 128.764861 
L 795.885044 118.294155 
L 799.881745 123.000581 
L 803.878446 131.239731 
L 807.875147 130.679292 
L 811.871848 126.951689 
L 823.86195 136.415849 
L 827.858651 129.749405 
L 831.855352 127.213713 
L 835.852053 124.235036 
L 839.848754 114.212417 
L 851.838856 110.084949 
L 855.835557 105.884274 
L 859.832258 98.151909 
L 863.828959 91.17674 
L 867.82566 88.931864 
L 879.815762 91.713261 
L 883.812463 90.051931 
L 887.809164 102.41857 
L 891.805865 102.77279 
L 895.802566 106.181915 
L 907.792669 105.948317 
L 911.78937 110.191997 
L 915.78607 111.902115 
L 919.782771 111.184603 
L 923.779472 111.303739 
L 935.769575 115.423608 
L 939.766276 124.080812 
L 943.762977 130.400177 
L 947.759677 131.436397 
L 951.756378 130.280338 
L 963.746481 133.265358 
L 967.743182 130.808483 
L 971.739883 129.459511 
L 975.736584 132.51552 
L 979.733284 129.449423 
L 991.723387 121.587864 
L 995.720088 122.14883 
L 999.716789 126.961413 
L 1003.71349 128.24256 
L 1007.710191 136.106672 
L 1019.700293 130.896217 
L 1023.696994 127.478512 
L 1027.693695 126.656698 
L 1031.690396 117.881446 
L 1035.687097 112.947004 
L 1047.677199 121.88192 
L 1051.6739 131.928117 
L 1055.670601 140.203706 
L 1059.667302 141.930557 
L 1063.664003 139.821395 
L 1075.654106 143.002119 
L 1079.650806 137.120472 
L 1083.647507 132.464732 
L 1087.644208 142.144069 
L 1091.640909 142.144069 
L 1091.640909 142.144069 
" style="fill:none;stroke:#9467bd;stroke-linecap:square;stroke-width:1.5;"/>
   </g>
   <g id="line2d_14">
    <path clip-path="url(#p67ec6f3036)" d="M 100.459091 153.767746 
L 104.455792 157.165588 
L 108.452493 161.646917 
L 112.449194 153.385417 
L 124.439296 164.79665 
L 128.435997 162.403098 
L 132.432698 156.744225 
L 136.429399 157.59958 
L 140.4261 156.436683 
L 152.416202 166.31492 
L 156.412903 176.712464 
L 160.409604 178.337294 
L 164.406305 182.981576 
L 168.403006 190.133056 
L 180.393109 184.592671 
L 184.389809 183.933742 
L 188.38651 179.177347 
L 192.383211 183.17784 
L 196.379912 182.836418 
L 208.370015 194.006052 
L 212.366716 185.05769 
L 216.363416 185.737599 
L 220.360117 181.46501 
L 224.356818 180.606859 
L 236.346921 178.273377 
L 240.343622 171.193027 
L 244.340323 168.106634 
L 248.337023 174.219352 
L 252.333724 179.930635 
L 264.323827 180.411192 
L 268.320528 187.146832 
L 272.317229 188.296117 
L 276.31393 191.949214 
L 280.31063 187.812467 
L 292.300733 181.392899 
L 296.297434 179.41985 
L 300.294135 189.90262 
L 304.290836 190.160242 
L 308.287537 192.525266 
L 320.277639 188.087519 
L 324.27434 188.213125 
L 328.271041 188.108389 
L 332.267742 178.039106 
L 336.264443 182.020641 
L 348.254545 184.553418 
L 352.251246 187.991559 
L 356.247947 188.698456 
L 360.244648 188.056965 
L 364.241349 199.032618 
L 376.231452 197.737398 
L 380.228152 200.385434 
L 384.224853 207.150832 
L 388.221554 206.964794 
L 392.218255 205.971967 
L 404.208358 200.557873 
L 408.205059 199.758321 
L 412.20176 197.422033 
L 416.19846 199.929131 
L 420.195161 195.608195 
L 432.185264 203.2706 
L 436.181965 201.440679 
L 440.178666 197.069646 
L 444.175367 189.674144 
L 448.172067 190.760349 
L 460.16217 188.420001 
L 464.158871 189.873326 
L 468.155572 189.400473 
L 472.152273 185.605325 
L 476.148974 184.117818 
L 488.139076 184.479687 
L 492.135777 177.635025 
L 496.132478 174.863653 
L 500.129179 175.804685 
L 504.12588 178.339482 
L 516.115982 181.26728 
L 520.112683 185.423106 
L 524.109384 181.7205 
L 528.106085 187.227611 
L 532.102786 182.078065 
L 544.092889 184.849227 
L 548.089589 183.298974 
L 552.08629 180.936178 
L 556.082991 177.575599 
L 560.079692 179.999928 
L 572.069795 192.226731 
L 576.066496 197.962311 
L 580.063196 208.327768 
L 584.059897 210.386809 
L 588.056598 213.563129 
L 600.046701 215.320975 
L 604.043402 204.199424 
L 608.040103 193.554893 
L 612.036804 199.967887 
L 616.033504 205.783799 
L 628.023607 205.783108 
L 632.020308 207.217323 
L 636.017009 202.78165 
L 640.01371 203.900607 
L 644.010411 198.441442 
L 656.000513 193.914765 
L 659.997214 187.116579 
L 663.993915 197.59412 
L 667.990616 193.12266 
L 671.987317 190.138178 
L 683.977419 189.101467 
L 687.97412 185.086862 
L 691.970821 193.639864 
L 695.967522 193.874604 
L 699.964223 191.878979 
L 711.954326 187.809181 
L 715.951026 189.064139 
L 719.947727 186.482942 
L 723.944428 181.784667 
L 727.941129 181.289917 
L 739.931232 181.847301 
L 743.927933 179.660358 
L 747.924633 177.275584 
L 751.921334 176.597617 
L 755.918035 179.930069 
L 767.908138 189.465831 
L 771.904839 192.035412 
L 775.90154 185.438131 
L 779.89824 188.521477 
L 783.894941 181.550523 
L 795.885044 177.341331 
L 799.881745 174.641886 
L 803.878446 171.744827 
L 807.875147 183.683145 
L 811.871848 175.556698 
L 823.86195 179.08993 
L 827.858651 175.789893 
L 831.855352 169.505929 
L 835.852053 173.861345 
L 839.848754 164.764644 
L 851.838856 168.507082 
L 855.835557 171.819286 
L 859.832258 164.020358 
L 863.828959 155.722263 
L 867.82566 156.333627 
L 879.815762 165.332318 
L 883.812463 157.89552 
L 887.809164 152.216085 
L 891.805865 153.791052 
L 895.802566 146.339801 
L 907.792669 155.859696 
L 911.78937 162.772897 
L 915.78607 159.275678 
L 919.782771 157.61832 
L 923.779472 154.632755 
L 935.769575 154.216544 
L 939.766276 158.110819 
L 943.762977 160.657636 
L 947.759677 167.381766 
L 951.756378 166.894132 
L 967.743182 166.333052 
L 971.739883 168.760091 
L 975.736584 168.290965 
L 979.733284 162.771809 
L 991.723387 155.648579 
L 995.720088 150.438198 
L 999.716789 156.687421 
L 1003.71349 153.497946 
L 1007.710191 162.191191 
L 1019.700293 163.968845 
L 1023.696994 166.953232 
L 1027.693695 170.129969 
L 1031.690396 166.798961 
L 1035.687097 161.909892 
L 1047.677199 168.932067 
L 1051.6739 169.085755 
L 1055.670601 170.242423 
L 1059.667302 169.65682 
L 1063.664003 168.141216 
L 1075.654106 171.515874 
L 1079.650806 174.371874 
L 1083.647507 172.398036 
L 1087.644208 168.535348 
L 1091.640909 168.535348 
L 1091.640909 168.535348 
" style="fill:none;stroke:#1f77b4;stroke-linecap:square;stroke-width:1.5;"/>
   </g>
   <g id="line2d_15">
    <path clip-path="url(#p67ec6f3036)" d="M 100.459091 160.440423 
L 104.455792 163.769357 
L 108.452493 164.853736 
L 112.449194 158.037923 
L 124.439296 165.649596 
L 128.435997 165.300272 
L 132.432698 163.049857 
L 136.429399 174.73449 
L 140.4261 172.119528 
L 152.416202 180.495725 
L 156.412903 191.678644 
L 160.409604 181.114406 
L 164.406305 170.173095 
L 168.403006 162.818577 
L 180.393109 167.716659 
L 184.389809 178.024648 
L 188.38651 173.578421 
L 192.383211 175.058086 
L 196.379912 184.716581 
L 208.370015 184.835169 
L 212.366716 196.846235 
L 216.363416 187.177489 
L 220.360117 193.253401 
L 224.356818 189.322848 
L 236.346921 194.039551 
L 240.343622 193.547353 
L 244.340323 192.404746 
L 248.337023 200.404499 
L 252.333724 189.374359 
L 264.323827 182.792267 
L 268.320528 172.439889 
L 272.317229 163.10081 
L 276.31393 160.718105 
L 280.31063 150.764516 
L 292.300733 161.318086 
L 296.297434 169.0263 
L 300.294135 180.743995 
L 304.290836 185.11339 
L 308.287537 187.880134 
L 320.277639 193.631923 
L 324.27434 185.807472 
L 328.271041 189.379266 
L 332.267742 194.884444 
L 336.264443 193.839615 
L 348.254545 202.997043 
L 352.251246 195.786134 
L 356.247947 206.713631 
L 360.244648 195.295395 
L 364.241349 188.780595 
L 376.231452 196.417321 
L 380.228152 209.213145 
L 384.224853 201.695216 
L 388.221554 196.713907 
L 392.218255 191.210985 
L 404.208358 184.718899 
L 408.205059 195.659988 
L 412.20176 199.188465 
L 416.19846 209.011079 
L 420.195161 200.39671 
L 432.185264 197.403335 
L 436.181965 201.631028 
L 440.178666 212.854148 
L 444.175367 217.589462 
L 448.172067 221.9626 
L 460.16217 216.445603 
L 464.158871 213.110704 
L 468.155572 203.945186 
L 472.152273 204.629926 
L 476.148974 214.353413 
L 488.139076 209.221456 
L 492.135777 202.974035 
L 496.132478 201.477261 
L 500.129179 194.992242 
L 504.12588 195.144814 
L 516.115982 194.587406 
L 520.112683 196.381162 
L 524.109384 208.635533 
L 528.106085 218.670701 
L 532.102786 230.76199 
L 544.092889 227.454529 
L 548.089589 232.103706 
L 552.08629 231.893256 
L 556.082991 222.264359 
L 560.079692 228.585502 
L 572.069795 230.807877 
L 576.066496 224.682767 
L 580.063196 231.5353 
L 584.059897 242.397561 
L 588.056598 247.676337 
L 600.046701 256.29753 
L 604.043402 246.166763 
L 608.040103 238.818656 
L 612.036804 235.583144 
L 616.033504 226.777447 
L 628.023607 219.532357 
L 632.020308 227.48712 
L 636.017009 218.199717 
L 640.01371 217.23664 
L 644.010411 209.90428 
L 656.000513 200.536415 
L 659.997214 205.092531 
L 663.993915 215.0701 
L 667.990616 221.94506 
L 671.987317 223.74962 
L 683.977419 216.172679 
L 687.97412 207.612688 
L 691.970821 220.369518 
L 695.967522 220.105679 
L 699.964223 222.152308 
L 711.954326 229.178813 
L 715.951026 238.895088 
L 719.947727 242.952043 
L 723.944428 232.522641 
L 727.941129 236.946222 
L 739.931232 236.485295 
L 743.927933 231.594603 
L 747.924633 234.992546 
L 755.918035 213.043358 
L 767.908138 219.300092 
L 771.904839 219.367731 
L 775.90154 224.361385 
L 779.89824 229.766214 
L 783.894941 241.709594 
L 795.885044 239.046056 
L 799.881745 238.980235 
L 803.878446 250.529041 
L 807.875147 256.09304 
L 811.871848 246.44825 
L 823.86195 253.021404 
L 827.858651 262.073746 
L 831.855352 262.333225 
L 835.852053 250.942683 
L 839.848754 257.45121 
L 851.838856 253.292056 
L 855.835557 247.025143 
L 859.832258 253.648198 
L 863.828959 248.163862 
L 867.82566 251.456912 
L 879.815762 248.247685 
L 883.812463 245.009158 
L 887.809164 244.133102 
L 891.805865 254.638552 
L 895.802566 246.662808 
L 907.792669 251.148131 
L 911.78937 259.104246 
L 915.78607 270.942362 
L 919.782771 268.728668 
L 923.779472 264.440605 
L 935.769575 276.935006 
L 939.766276 276.63817 
L 943.762977 283.550545 
L 947.759677 280.03364 
L 951.756378 288.30879 
L 963.746481 283.703748 
L 967.743182 286.519314 
L 971.739883 276.229503 
L 975.736584 285.477073 
L 979.733284 289.446398 
L 991.723387 299.332799 
L 995.720088 289.31533 
L 999.716789 280.375223 
L 1003.71349 286.472783 
L 1007.710191 282.602661 
L 1019.700293 275.044035 
L 1023.696994 273.694873 
L 1027.693695 272.968342 
L 1031.690396 279.48213 
L 1035.687097 289.912301 
L 1047.677199 280.518832 
L 1051.6739 271.052479 
L 1055.670601 267.824203 
L 1059.667302 271.845232 
L 1063.664003 275.608035 
L 1075.654106 270.176842 
L 1083.647507 251.623138 
L 1087.644208 244.93062 
L 1087.644208 244.93062 
" style="fill:none;stroke:#8c564b;stroke-linecap:square;stroke-width:1.5;"/>
   </g>
   <g id="line2d_16">
    <path clip-path="url(#p67ec6f3036)" d="M 100.459091 142.75942 
L 104.455792 141.907336 
L 108.452493 141.454803 
L 112.449194 153.873365 
L 124.439296 145.887025 
L 128.435997 135.719011 
L 132.432698 137.000455 
L 136.429399 134.251275 
L 140.4261 145.185326 
L 152.416202 141.257902 
L 156.412903 129.397471 
L 160.409604 140.739307 
L 164.406305 158.4261 
L 168.403006 166.970631 
L 180.393109 160.136383 
L 184.389809 150.972009 
L 188.38651 146.767589 
L 192.383211 142.081911 
L 196.379912 135.681721 
L 208.370015 143.381082 
L 212.366716 130.857431 
L 216.363416 138.535364 
L 220.360117 133.859882 
L 224.356818 139.52376 
L 236.346921 133.332045 
L 240.343622 127.347347 
L 244.340323 131.068619 
L 248.337023 125.078391 
L 252.333724 128.940636 
L 264.323827 138.405598 
L 268.320528 146.776676 
L 272.317229 158.429419 
L 276.31393 157.170032 
L 280.31063 171.986375 
L 292.300733 158.051444 
L 296.297434 156.338481 
L 300.294135 156.047058 
L 304.290836 153.222435 
L 308.287537 158.537915 
L 320.277639 146.295707 
L 324.27434 156.128249 
L 328.271041 154.48897 
L 332.267742 152.094025 
L 336.264443 147.808184 
L 348.254545 135.78648 
L 352.251246 141.846595 
L 356.247947 133.97999 
L 360.244648 146.713081 
L 364.241349 152.044043 
L 376.231452 142.171796 
L 380.228152 130.293707 
L 384.224853 146.008934 
L 388.221554 146.515559 
L 392.218255 156.339508 
L 404.208358 153.419571 
L 408.205059 140.115809 
L 412.20176 143.981276 
L 416.19846 136.316137 
L 432.185264 136.547522 
L 436.181965 138.180256 
L 440.178666 125.176893 
L 444.175367 117.818027 
L 448.172067 106.964556 
L 460.16217 109.450647 
L 464.158871 109.864763 
L 468.155572 113.253956 
L 472.152273 112.583668 
L 476.148974 104.485839 
L 488.139076 108.430673 
L 492.135777 108.636605 
L 496.132478 108.153809 
L 500.129179 119.078544 
L 504.12588 125.319096 
L 516.115982 130.55534 
L 520.112683 125.391251 
L 524.109384 108.150025 
L 528.106085 105.922283 
L 532.102786 91.817414 
L 544.092889 94.64491 
L 548.089589 79.45028 
L 552.08629 78.70961 
L 556.082991 86.256672 
L 560.079692 81.068489 
L 572.069795 80.921276 
L 576.066496 89.401286 
L 580.063196 73.103803 
L 584.059897 57.827546 
L 588.056598 49.505401 
L 600.046701 40.455455 
L 604.043402 62.16042 
L 608.040103 74.510742 
L 612.036804 77.822409 
L 616.033504 96.082996 
L 628.023607 95.108867 
L 632.020308 81.475162 
L 636.017009 86.459555 
L 644.010411 104.979969 
L 656.000513 117.622995 
L 659.997214 111.715806 
L 663.993915 111.082156 
L 667.990616 101.793952 
L 671.987317 94.376107 
L 683.977419 100.16292 
L 687.97412 105.830321 
L 691.970821 100.422242 
L 695.967522 96.049898 
L 699.964223 85.241097 
L 711.954326 72.940953 
L 715.951026 69.048473 
L 719.947727 70.785031 
L 723.944428 86.456433 
L 727.941129 80.769042 
L 739.931232 75.031078 
L 743.927933 83.545151 
L 747.924633 83.650849 
L 751.921334 94.308908 
L 755.918035 102.235252 
L 767.908138 97.767546 
L 771.904839 108.557234 
L 775.90154 109.966351 
L 779.89824 109.434334 
L 783.894941 94.958369 
L 795.885044 86.985557 
L 799.881745 91.760411 
L 803.878446 88.744033 
L 807.875147 82.884367 
L 811.871848 89.297532 
L 823.86195 92.036261 
L 827.858651 77.369881 
L 831.855352 74.580539 
L 835.852053 83.840988 
L 839.848754 68.110391 
L 851.838856 68.143168 
L 855.835557 70.318481 
L 859.832258 56.676055 
L 863.828959 55.117606 
L 867.82566 49.722953 
L 879.815762 55.876131 
L 883.812463 57.495727 
L 887.809164 70.838508 
L 891.805865 61.488263 
L 895.802566 73.67571 
L 907.792669 69.122839 
L 911.78937 65.639894 
L 915.78607 56.408058 
L 919.782771 57.931607 
L 923.779472 62.498263 
L 935.769575 54.90893 
L 939.766276 63.885437 
L 943.762977 63.324791 
L 947.759677 68.012667 
L 951.756378 59.174129 
L 963.746481 67.06354 
L 967.743182 61.908065 
L 971.739883 71.661646 
L 975.736584 65.908607 
L 979.733284 59.09073 
L 991.723387 42.626988 
L 995.720088 54.147353 
L 999.716789 69.003177 
L 1003.71349 64.415635 
L 1007.710191 76.544473 
L 1019.700293 79.043146 
L 1023.696994 76.95196 
L 1027.693695 76.856111 
L 1035.687097 48.127951 
L 1047.677199 68.036719 
L 1051.6739 89.25459 
L 1055.670601 101.079903 
L 1059.667302 98.858921 
L 1063.664003 93.160001 
L 1075.654106 102.175724 
L 1079.650806 105.968214 
L 1083.647507 110.831015 
L 1087.644208 128.187072 
L 1087.644208 128.187072 
" style="fill:none;stroke:#e377c2;stroke-linecap:square;stroke-width:1.5;"/>
   </g>
   <g id="line2d_17">
    <path clip-path="url(#p67ec6f3036)" d="M 100.459091 161.977426 
L 104.455792 161.910396 
L 108.452493 158.633493 
L 112.449194 160.180356 
L 124.439296 156.71305 
L 128.435997 158.797831 
L 132.432698 162.369285 
L 136.429399 173.120057 
L 140.4261 171.654267 
L 152.416202 170.267598 
L 156.412903 170.989064 
L 160.409604 158.952521 
L 164.406305 143.911049 
L 168.403006 130.181083 
L 180.393109 141.123047 
L 184.389809 152.151659 
L 188.38651 152.474084 
L 192.383211 150.033208 
L 196.379912 160.062115 
L 208.370015 149.932841 
L 212.366716 172.630835 
L 216.363416 162.336957 
L 220.360117 173.068068 
L 224.356818 169.974404 
L 236.346921 177.163783 
L 240.343622 184.154023 
L 244.340323 186.147653 
L 248.337023 187.94244 
L 252.333724 171.913882 
L 264.323827 164.878025 
L 268.320528 148.643909 
L 272.317229 138.249169 
L 280.31063 126.374809 
L 292.300733 144.328017 
L 296.297434 154.172432 
L 300.294135 155.305907 
L 304.290836 159.408923 
L 308.287537 159.802974 
L 320.277639 170.383827 
L 324.27434 162.441636 
L 328.271041 166.121349 
L 332.267742 183.122019 
L 336.264443 178.252777 
L 348.254545 184.738647 
L 352.251246 174.371379 
L 356.247947 184.530858 
L 360.244648 173.70012 
L 364.241349 157.610661 
L 376.231452 166.640817 
L 380.228152 176.563281 
L 384.224853 163.00444 
L 388.221554 158.202044 
L 392.218255 153.656029 
L 404.208358 152.5297 
L 408.205059 164.350792 
L 412.20176 170.330915 
L 416.19846 177.494292 
L 420.195161 173.049943 
L 432.185264 163.012753 
L 436.181965 169.163566 
L 440.178666 185.361297 
L 444.175367 198.285587 
L 448.172067 201.543205 
L 460.16217 198.306271 
L 464.158871 193.573275 
L 468.155572 184.848257 
L 472.152273 189.471344 
L 476.148974 200.825382 
L 488.139076 195.347358 
L 492.135777 195.978899 
L 496.132478 197.282725 
L 500.129179 189.911661 
L 504.12588 187.577616 
L 516.115982 184.173343 
L 520.112683 181.889099 
L 524.109384 198.368435 
L 528.106085 202.694501 
L 532.102786 220.730049 
L 544.092889 214.783752 
L 548.089589 221.063936 
L 552.08629 223.258444 
L 556.082991 216.820805 
L 560.079692 220.640294 
L 572.069795 211.549255 
L 576.066496 200.205264 
L 580.063196 196.972815 
L 584.059897 205.624478 
L 588.056598 207.672833 
L 600.046701 214.435961 
L 604.043402 215.52102 
L 608.040103 219.120145 
L 612.036804 209.944418 
L 616.033504 195.961728 
L 628.023607 188.717291 
L 632.020308 195.160154 
L 636.017009 190.133687 
L 644.010411 186.112751 
L 656.000513 181.093554 
L 659.997214 193.126381 
L 663.993915 192.667197 
L 667.990616 204.454926 
L 671.987317 209.364093 
L 683.977419 202.769911 
L 687.97412 198.076416 
L 691.970821 201.993031 
L 695.967522 201.495402 
L 699.964223 205.604959 
L 711.954326 217.092947 
L 715.951026 225.465292 
L 719.947727 232.248322 
L 723.944428 226.299143 
L 727.941129 231.237721 
L 739.931232 230.224001 
L 743.927933 227.472239 
L 747.924633 233.371046 
L 751.921334 222.914347 
L 755.918035 209.071578 
L 767.908138 206.034391 
L 771.904839 203.583712 
L 775.90154 215.846928 
L 779.89824 218.11035 
L 783.894941 238.224064 
L 795.885044 239.823933 
L 799.881745 242.516699 
L 803.878446 257.328817 
L 807.875147 251.53097 
L 811.871848 249.909501 
L 823.86195 252.862214 
L 827.858651 265.568816 
L 831.855352 272.465406 
L 835.852053 257.235189 
L 839.848754 274.12568 
L 851.838856 266.453869 
L 855.835557 257.120077 
L 859.832258 272.548883 
L 863.828959 275.56165 
L 867.82566 278.229882 
L 879.815762 266.845342 
L 883.812463 271.310362 
L 887.809164 276.345682 
L 891.805865 285.158252 
L 895.802566 284.601045 
L 907.792669 279.934762 
L 911.78937 280.920391 
L 915.78607 296.728173 
L 919.782771 296.1643 
L 923.779472 294.829941 
L 935.769575 307.78675 
L 939.766276 303.724244 
L 943.762977 307.998675 
L 947.759677 298.282002 
L 951.756378 307.080907 
L 963.746481 302.849586 
L 967.743182 305.843734 
L 971.739883 293.363388 
L 979.733284 313.061254 
L 991.723387 331.164545 
L 995.720088 326.153429 
L 999.716789 311.674628 
L 1003.71349 321.215607 
L 1007.710191 309.470655 
L 1019.700293 300.263568 
L 1023.696994 296.032232 
L 1027.693695 292.227055 
L 1031.690396 302.353831 
L 1035.687097 318.337093 
L 1047.677199 302.777955 
L 1051.6739 293.169481 
L 1055.670601 288.824902 
L 1059.667302 293.453959 
L 1063.664003 298.79932 
L 1075.654106 290.223886 
L 1079.650806 278.244915 
L 1083.647507 270.943097 
L 1087.644208 268.023963 
L 1087.644208 268.023963 
" style="fill:none;stroke:#7f7f7f;stroke-linecap:square;stroke-width:1.5;"/>
   </g>
   <g id="line2d_18">
    <path clip-path="url(#p67ec6f3036)" d="M 100.459091 148.845896 
L 104.455792 147.927245 
L 108.452493 144.209697 
L 112.449194 158.340777 
L 124.439296 147.102457 
L 128.435997 138.852357 
L 132.432698 143.743251 
L 136.429399 151.49652 
L 140.4261 160.829257 
L 152.416202 155.558546 
L 156.412903 144.353021 
L 160.409604 142.554597 
L 164.406305 143.027515 
L 168.403006 136.910148 
L 180.393109 140.400306 
L 184.389809 141.438072 
L 188.38651 137.545218 
L 192.383211 130.50912 
L 196.379912 133.608641 
L 208.370015 130.551609 
L 212.366716 138.333771 
L 216.363416 135.082787 
L 220.360117 140.720468 
L 224.356818 143.146653 
L 236.346921 143.781025 
L 240.343622 144.445111 
L 244.340323 150.221828 
L 248.337023 145.940394 
L 252.333724 133.295188 
L 264.323827 135.177965 
L 268.320528 126.247466 
L 272.317229 126.517973 
L 276.31393 119.453828 
L 280.31063 127.509467 
L 292.300733 129.472542 
L 296.297434 137.462186 
L 300.294135 138.301541 
L 304.290836 139.485155 
L 308.287537 145.212135 
L 320.277639 142.507411 
L 324.27434 143.758714 
L 328.271041 145.749656 
L 332.267742 160.003959 
L 336.264443 151.012628 
L 348.254545 144.85763 
L 352.251246 140.048892 
L 356.247947 141.686714 
L 360.244648 142.462335 
L 364.241349 131.036993 
L 376.231452 129.473649 
L 380.228152 126.569509 
L 384.224853 126.98682 
L 388.221554 122.671592 
L 392.218255 127.578629 
L 404.208358 123.558693 
L 408.205059 120.809318 
L 412.20176 130.850901 
L 416.19846 129.903872 
L 420.195161 125.507495 
L 432.185264 115.637694 
L 436.181965 123.505638 
L 440.178666 124.973602 
L 444.175367 129.749354 
L 448.172067 121.87474 
L 460.16217 121.058622 
L 464.158871 116.724069 
L 468.155572 111.152931 
L 472.152273 115.080103 
L 476.148974 117.580013 
L 488.139076 115.872154 
L 496.132478 117.526579 
L 500.129179 120.416842 
L 504.12588 124.202955 
L 516.115982 125.888845 
L 520.112683 118.533688 
L 524.109384 115.484516 
L 528.106085 117.503758 
L 532.102786 119.345616 
L 544.092889 116.091771 
L 548.089589 106.430125 
L 552.08629 107.870658 
L 556.082991 108.583431 
L 560.079692 107.054452 
L 572.069795 97.826692 
L 576.066496 94.190917 
L 580.063196 75.057899 
L 584.059897 67.389885 
L 588.056598 60.980911 
L 600.046701 58.201419 
L 604.043402 81.202184 
L 608.040103 97.538414 
L 612.036804 91.433066 
L 616.033504 93.611499 
L 628.023607 85.448495 
L 632.020308 77.564933 
L 636.017009 77.319143 
L 644.010411 91.506576 
L 656.000513 98.598586 
L 659.997214 104.132298 
L 663.993915 103.041821 
L 667.990616 104.643945 
L 671.987317 101.842209 
L 683.977419 100.725636 
L 687.97412 101.482369 
L 691.970821 99.819669 
L 695.967522 94.967057 
L 699.964223 87.916416 
L 711.954326 85.962529 
L 715.951026 90.172532 
L 719.947727 98.791416 
L 723.944428 107.726203 
L 727.941129 106.74968 
L 739.931232 100.044063 
L 743.927933 105.611297 
L 747.924633 111.621002 
L 751.921334 110.917421 
L 755.918035 104.131768 
L 767.908138 96.734037 
L 771.904839 104.850557 
L 775.90154 118.671718 
L 779.89824 120.393254 
L 783.894941 123.62605 
L 795.885044 117.151982 
L 799.881745 124.727524 
L 803.878446 136.142135 
L 807.875147 124.748626 
L 811.871848 129.454049 
L 823.86195 135.212865 
L 827.858651 131.756102 
L 831.855352 135.704239 
L 835.852053 128.618326 
L 839.848754 127.62155 
L 851.838856 119.980532 
L 855.835557 112.661626 
L 859.832258 112.732553 
L 863.828959 114.148437 
L 867.82566 111.306209 
L 879.815762 105.517777 
L 883.812463 111.662737 
L 887.809164 130.631805 
L 891.805865 129.426528 
L 895.802566 140.998814 
L 907.792669 131.946322 
L 911.78937 129.421353 
L 915.78607 134.782352 
L 919.782771 135.735009 
L 923.779472 138.917066 
L 935.769575 143.468825 
L 939.766276 148.080349 
L 943.762977 151.774336 
L 947.759677 146.38277 
L 951.756378 145.711695 
L 963.746481 149.094285 
L 967.743182 146.808488 
L 971.739883 143.105225 
L 975.736584 146.64404 
L 979.733284 149.210978 
L 991.723387 148.428723 
L 995.720088 154.456284 
L 999.716789 153.090486 
L 1003.71349 157.680891 
L 1007.710191 156.908213 
L 1019.700293 150.017709 
L 1023.696994 143.765392 
L 1027.693695 139.867288 
L 1031.690396 134.276794 
L 1035.687097 134.229581 
L 1047.677199 136.035294 
L 1051.6739 145.914927 
L 1055.670601 152.9652 
L 1059.667302 155.288806 
L 1063.664003 154.6879 
L 1075.654106 154.499214 
L 1079.650806 145.955493 
L 1083.647507 143.23064 
L 1087.644208 157.230704 
L 1091.640909 157.230704 
L 1091.640909 157.230704 
" style="fill:none;stroke:#bcbd22;stroke-linecap:square;stroke-width:1.5;"/>
   </g>
   <g id="patch_3">
    <path d="M 50.9 345.7 
L 50.9 25.92 
" style="fill:none;stroke:#000000;stroke-linecap:square;stroke-linejoin:miter;stroke-width:0.8;"/>
   </g>
   <g id="patch_4">
    <path d="M 1141.2 345.7 
L 1141.2 25.92 
" style="fill:none;stroke:#000000;stroke-linecap:square;stroke-linejoin:miter;stroke-width:0.8;"/>
   </g>
   <g id="patch_5">
    <path d="M 50.9 345.7 
L 1141.2 345.7 
" style="fill:none;stroke:#000000;stroke-linecap:square;stroke-linejoin:miter;stroke-width:0.8;"/>
   </g>
   <g id="patch_6">
    <path d="M 50.9 25.92 
L 1141.2 25.92 
" style="fill:none;stroke:#000000;stroke-linecap:square;stroke-linejoin:miter;stroke-width:0.8;"/>
   </g>
   <g id="text_8">
    <!-- Cumulative Log Return: (2010-02-02 ~ 2010-10-08) -->
    <g transform="translate(440.172812 19.92)scale(0.12 -0.12)">
     <defs>
      <path d="M 64.40625 67.28125 
L 64.40625 56.890625 
Q 59.421875 61.53125 53.78125 63.8125 
Q 48.140625 66.109375 41.796875 66.109375 
Q 29.296875 66.109375 22.65625 58.46875 
Q 16.015625 50.828125 16.015625 36.375 
Q 16.015625 21.96875 22.65625 14.328125 
Q 29.296875 6.6875 41.796875 6.6875 
Q 48.140625 6.6875 53.78125 8.984375 
Q 59.421875 11.28125 64.40625 15.921875 
L 64.40625 5.609375 
Q 59.234375 2.09375 53.4375 0.328125 
Q 47.65625 -1.421875 41.21875 -1.421875 
Q 24.65625 -1.421875 15.125 8.703125 
Q 5.609375 18.84375 5.609375 36.375 
Q 5.609375 53.953125 15.125 64.078125 
Q 24.65625 74.21875 41.21875 74.21875 
Q 47.75 74.21875 53.53125 72.484375 
Q 59.328125 70.75 64.40625 67.28125 
z
" id="DejaVuSans-67"/>
      <path d="M 34.28125 27.484375 
Q 23.390625 27.484375 19.1875 25 
Q 14.984375 22.515625 14.984375 16.5 
Q 14.984375 11.71875 18.140625 8.90625 
Q 21.296875 6.109375 26.703125 6.109375 
Q 34.1875 6.109375 38.703125 11.40625 
Q 43.21875 16.703125 43.21875 25.484375 
L 43.21875 27.484375 
z
M 52.203125 31.203125 
L 52.203125 0 
L 43.21875 0 
L 43.21875 8.296875 
Q 40.140625 3.328125 35.546875 0.953125 
Q 30.953125 -1.421875 24.3125 -1.421875 
Q 15.921875 -1.421875 10.953125 3.296875 
Q 6 8.015625 6 15.921875 
Q 6 25.140625 12.171875 29.828125 
Q 18.359375 34.515625 30.609375 34.515625 
L 43.21875 34.515625 
L 43.21875 35.40625 
Q 43.21875 41.609375 39.140625 45 
Q 35.0625 48.390625 27.6875 48.390625 
Q 23 48.390625 18.546875 47.265625 
Q 14.109375 46.140625 10.015625 43.890625 
L 10.015625 52.203125 
Q 14.9375 54.109375 19.578125 55.046875 
Q 24.21875 56 28.609375 56 
Q 40.484375 56 46.34375 49.84375 
Q 52.203125 43.703125 52.203125 31.203125 
z
" id="DejaVuSans-97"/>
      <path d="M 9.421875 54.6875 
L 18.40625 54.6875 
L 18.40625 0 
L 9.421875 0 
z
M 9.421875 75.984375 
L 18.40625 75.984375 
L 18.40625 64.59375 
L 9.421875 64.59375 
z
" id="DejaVuSans-105"/>
      <path d="M 2.984375 54.6875 
L 12.5 54.6875 
L 29.59375 8.796875 
L 46.6875 54.6875 
L 56.203125 54.6875 
L 35.6875 0 
L 23.484375 0 
z
" id="DejaVuSans-118"/>
      <path d="M 9.8125 72.90625 
L 19.671875 72.90625 
L 19.671875 8.296875 
L 55.171875 8.296875 
L 55.171875 0 
L 9.8125 0 
z
" id="DejaVuSans-76"/>
      <path d="M 44.390625 34.1875 
Q 47.5625 33.109375 50.5625 29.59375 
Q 53.5625 26.078125 56.59375 19.921875 
L 66.609375 0 
L 56 0 
L 46.6875 18.703125 
Q 43.0625 26.03125 39.671875 28.421875 
Q 36.28125 30.8125 30.421875 30.8125 
L 19.671875 30.8125 
L 19.671875 0 
L 9.8125 0 
L 9.8125 72.90625 
L 32.078125 72.90625 
Q 44.578125 72.90625 50.734375 67.671875 
Q 56.890625 62.453125 56.890625 51.90625 
Q 56.890625 45.015625 53.6875 40.46875 
Q 50.484375 35.9375 44.390625 34.1875 
z
M 19.671875 64.796875 
L 19.671875 38.921875 
L 32.078125 38.921875 
Q 39.203125 38.921875 42.84375 42.21875 
Q 46.484375 45.515625 46.484375 51.90625 
Q 46.484375 58.296875 42.84375 61.546875 
Q 39.203125 64.796875 32.078125 64.796875 
z
" id="DejaVuSans-82"/>
      <path d="M 11.71875 12.40625 
L 22.015625 12.40625 
L 22.015625 0 
L 11.71875 0 
z
M 11.71875 51.703125 
L 22.015625 51.703125 
L 22.015625 39.3125 
L 11.71875 39.3125 
z
" id="DejaVuSans-58"/>
      <path d="M 31 75.875 
Q 24.46875 64.65625 21.28125 53.65625 
Q 18.109375 42.671875 18.109375 31.390625 
Q 18.109375 20.125 21.3125 9.0625 
Q 24.515625 -2 31 -13.1875 
L 23.1875 -13.1875 
Q 15.875 -1.703125 12.234375 9.375 
Q 8.59375 20.453125 8.59375 31.390625 
Q 8.59375 42.28125 12.203125 53.3125 
Q 15.828125 64.359375 23.1875 75.875 
z
" id="DejaVuSans-40"/>
      <path d="M 19.1875 8.296875 
L 53.609375 8.296875 
L 53.609375 0 
L 7.328125 0 
L 7.328125 8.296875 
Q 12.9375 14.109375 22.625 23.890625 
Q 32.328125 33.6875 34.8125 36.53125 
Q 39.546875 41.84375 41.421875 45.53125 
Q 43.3125 49.21875 43.3125 52.78125 
Q 43.3125 58.59375 39.234375 62.25 
Q 35.15625 65.921875 28.609375 65.921875 
Q 23.96875 65.921875 18.8125 64.3125 
Q 13.671875 62.703125 7.8125 59.421875 
L 7.8125 69.390625 
Q 13.765625 71.78125 18.9375 73 
Q 24.125 74.21875 28.421875 74.21875 
Q 39.75 74.21875 46.484375 68.546875 
Q 53.21875 62.890625 53.21875 53.421875 
Q 53.21875 48.921875 51.53125 44.890625 
Q 49.859375 40.875 45.40625 35.40625 
Q 44.1875 33.984375 37.640625 27.21875 
Q 31.109375 20.453125 19.1875 8.296875 
z
" id="DejaVuSans-50"/>
      <path d="M 73.1875 39.890625 
L 73.1875 31.203125 
Q 68.0625 27.34375 63.6875 25.6875 
Q 59.328125 24.03125 54.59375 24.03125 
Q 49.21875 24.03125 42.09375 26.90625 
Q 41.546875 27.09375 41.3125 27.203125 
Q 40.96875 27.34375 40.234375 27.59375 
Q 32.671875 30.609375 28.078125 30.609375 
Q 23.78125 30.609375 19.578125 28.734375 
Q 15.375 26.859375 10.59375 22.796875 
L 10.59375 31.5 
Q 15.71875 35.359375 20.09375 37.03125 
Q 24.46875 38.71875 29.203125 38.71875 
Q 34.578125 38.71875 41.75 35.796875 
Q 42.234375 35.59375 42.484375 35.5 
Q 42.875 35.359375 43.5625 35.109375 
Q 51.125 32.078125 55.71875 32.078125 
Q 59.90625 32.078125 64.03125 33.9375 
Q 68.171875 35.796875 73.1875 39.890625 
z
" id="DejaVuSans-126"/>
      <path d="M 31.78125 34.625 
Q 24.75 34.625 20.71875 30.859375 
Q 16.703125 27.09375 16.703125 20.515625 
Q 16.703125 13.921875 20.71875 10.15625 
Q 24.75 6.390625 31.78125 6.390625 
Q 38.8125 6.390625 42.859375 10.171875 
Q 46.921875 13.96875 46.921875 20.515625 
Q 46.921875 27.09375 42.890625 30.859375 
Q 38.875 34.625 31.78125 34.625 
z
M 21.921875 38.8125 
Q 15.578125 40.375 12.03125 44.71875 
Q 8.5 49.078125 8.5 55.328125 
Q 8.5 64.0625 14.71875 69.140625 
Q 20.953125 74.21875 31.78125 74.21875 
Q 42.671875 74.21875 48.875 69.140625 
Q 55.078125 64.0625 55.078125 55.328125 
Q 55.078125 49.078125 51.53125 44.71875 
Q 48 40.375 41.703125 38.8125 
Q 48.828125 37.15625 52.796875 32.3125 
Q 56.78125 27.484375 56.78125 20.515625 
Q 56.78125 9.90625 50.3125 4.234375 
Q 43.84375 -1.421875 31.78125 -1.421875 
Q 19.734375 -1.421875 13.25 4.234375 
Q 6.78125 9.90625 6.78125 20.515625 
Q 6.78125 27.484375 10.78125 32.3125 
Q 14.796875 37.15625 21.921875 38.8125 
z
M 18.3125 54.390625 
Q 18.3125 48.734375 21.84375 45.5625 
Q 25.390625 42.390625 31.78125 42.390625 
Q 38.140625 42.390625 41.71875 45.5625 
Q 45.3125 48.734375 45.3125 54.390625 
Q 45.3125 60.0625 41.71875 63.234375 
Q 38.140625 66.40625 31.78125 66.40625 
Q 25.390625 66.40625 21.84375 63.234375 
Q 18.3125 60.0625 18.3125 54.390625 
z
" id="DejaVuSans-56"/>
      <path d="M 8.015625 75.875 
L 15.828125 75.875 
Q 23.140625 64.359375 26.78125 53.3125 
Q 30.421875 42.28125 30.421875 31.390625 
Q 30.421875 20.453125 26.78125 9.375 
Q 23.140625 -1.703125 15.828125 -13.1875 
L 8.015625 -13.1875 
Q 14.5 -2 17.703125 9.0625 
Q 20.90625 20.125 20.90625 31.390625 
Q 20.90625 42.671875 17.703125 53.65625 
Q 14.5 64.65625 8.015625 75.875 
z
" id="DejaVuSans-41"/>
     </defs>
     <use xlink:href="#DejaVuSans-67"/>
     <use x="69.824219" xlink:href="#DejaVuSans-117"/>
     <use x="133.203125" xlink:href="#DejaVuSans-109"/>
     <use x="230.615234" xlink:href="#DejaVuSans-117"/>
     <use x="293.994141" xlink:href="#DejaVuSans-108"/>
     <use x="321.777344" xlink:href="#DejaVuSans-97"/>
     <use x="383.056641" xlink:href="#DejaVuSans-116"/>
     <use x="422.265625" xlink:href="#DejaVuSans-105"/>
     <use x="450.048828" xlink:href="#DejaVuSans-118"/>
     <use x="509.228516" xlink:href="#DejaVuSans-101"/>
     <use x="570.751953" xlink:href="#DejaVuSans-32"/>
     <use x="602.539062" xlink:href="#DejaVuSans-76"/>
     <use x="656.501953" xlink:href="#DejaVuSans-111"/>
     <use x="717.683594" xlink:href="#DejaVuSans-103"/>
     <use x="781.160156" xlink:href="#DejaVuSans-32"/>
     <use x="812.947266" xlink:href="#DejaVuSans-82"/>
     <use x="877.929688" xlink:href="#DejaVuSans-101"/>
     <use x="939.453125" xlink:href="#DejaVuSans-116"/>
     <use x="978.662109" xlink:href="#DejaVuSans-117"/>
     <use x="1042.041016" xlink:href="#DejaVuSans-114"/>
     <use x="1081.404297" xlink:href="#DejaVuSans-110"/>
     <use x="1144.783203" xlink:href="#DejaVuSans-58"/>
     <use x="1178.474609" xlink:href="#DejaVuSans-32"/>
     <use x="1210.261719" xlink:href="#DejaVuSans-40"/>
     <use x="1249.275391" xlink:href="#DejaVuSans-50"/>
     <use x="1312.898438" xlink:href="#DejaVuSans-48"/>
     <use x="1376.521484" xlink:href="#DejaVuSans-49"/>
     <use x="1440.144531" xlink:href="#DejaVuSans-48"/>
     <use x="1503.767578" xlink:href="#DejaVuSans-45"/>
     <use x="1539.851562" xlink:href="#DejaVuSans-48"/>
     <use x="1603.474609" xlink:href="#DejaVuSans-50"/>
     <use x="1667.097656" xlink:href="#DejaVuSans-45"/>
     <use x="1703.181641" xlink:href="#DejaVuSans-48"/>
     <use x="1766.804688" xlink:href="#DejaVuSans-50"/>
     <use x="1830.427734" xlink:href="#DejaVuSans-32"/>
     <use x="1862.214844" xlink:href="#DejaVuSans-126"/>
     <use x="1946.003906" xlink:href="#DejaVuSans-32"/>
     <use x="1977.791016" xlink:href="#DejaVuSans-50"/>
     <use x="2041.414062" xlink:href="#DejaVuSans-48"/>
     <use x="2105.037109" xlink:href="#DejaVuSans-49"/>
     <use x="2168.660156" xlink:href="#DejaVuSans-48"/>
     <use x="2232.283203" xlink:href="#DejaVuSans-45"/>
     <use x="2268.367188" xlink:href="#DejaVuSans-49"/>
     <use x="2331.990234" xlink:href="#DejaVuSans-48"/>
     <use x="2395.613281" xlink:href="#DejaVuSans-45"/>
     <use x="2431.697266" xlink:href="#DejaVuSans-48"/>
     <use x="2495.320312" xlink:href="#DejaVuSans-56"/>
     <use x="2558.943359" xlink:href="#DejaVuSans-41"/>
    </g>
   </g>
   <g id="legend_1">
    <g id="patch_7">
     <path d="M 57.9 123.379375 
L 154.389062 123.379375 
Q 156.389062 123.379375 156.389062 121.379375 
L 156.389062 32.92 
Q 156.389062 30.92 154.389062 30.92 
L 57.9 30.92 
Q 55.9 30.92 55.9 32.92 
L 55.9 121.379375 
Q 55.9 123.379375 57.9 123.379375 
z
" style="fill:#ffffff;opacity:0.8;stroke:#cccccc;stroke-linejoin:miter;"/>
    </g>
    <g id="line2d_19">
     <path d="M 59.9 39.018438 
L 79.9 39.018438 
" style="fill:none;stroke:#9467bd;stroke-linecap:square;stroke-width:1.5;"/>
    </g>
    <g id="line2d_20"/>
    <g id="text_9">
     <!-- group_5 -->
     <g transform="translate(87.9 42.518438)scale(0.1 -0.1)">
      <defs>
       <path d="M 18.109375 8.203125 
L 18.109375 -20.796875 
L 9.078125 -20.796875 
L 9.078125 54.6875 
L 18.109375 54.6875 
L 18.109375 46.390625 
Q 20.953125 51.265625 25.265625 53.625 
Q 29.59375 56 35.59375 56 
Q 45.5625 56 51.78125 48.09375 
Q 58.015625 40.1875 58.015625 27.296875 
Q 58.015625 14.40625 51.78125 6.484375 
Q 45.5625 -1.421875 35.59375 -1.421875 
Q 29.59375 -1.421875 25.265625 0.953125 
Q 20.953125 3.328125 18.109375 8.203125 
z
M 48.6875 27.296875 
Q 48.6875 37.203125 44.609375 42.84375 
Q 40.53125 48.484375 33.40625 48.484375 
Q 26.265625 48.484375 22.1875 42.84375 
Q 18.109375 37.203125 18.109375 27.296875 
Q 18.109375 17.390625 22.1875 11.75 
Q 26.265625 6.109375 33.40625 6.109375 
Q 40.53125 6.109375 44.609375 11.75 
Q 48.6875 17.390625 48.6875 27.296875 
z
" id="DejaVuSans-112"/>
       <path d="M 50.984375 -16.609375 
L 50.984375 -23.578125 
L -0.984375 -23.578125 
L -0.984375 -16.609375 
z
" id="DejaVuSans-95"/>
      </defs>
      <use xlink:href="#DejaVuSans-103"/>
      <use x="63.476562" xlink:href="#DejaVuSans-114"/>
      <use x="102.339844" xlink:href="#DejaVuSans-111"/>
      <use x="163.521484" xlink:href="#DejaVuSans-117"/>
      <use x="226.900391" xlink:href="#DejaVuSans-112"/>
      <use x="290.376953" xlink:href="#DejaVuSans-95"/>
      <use x="340.376953" xlink:href="#DejaVuSans-53"/>
     </g>
    </g>
    <g id="line2d_21">
     <path d="M 59.9 53.974688 
L 79.9 53.974688 
" style="fill:none;stroke:#1f77b4;stroke-linecap:square;stroke-width:1.5;"/>
    </g>
    <g id="line2d_22"/>
    <g id="text_10">
     <!-- group_1 -->
     <g transform="translate(87.9 57.474688)scale(0.1 -0.1)">
      <use xlink:href="#DejaVuSans-103"/>
      <use x="63.476562" xlink:href="#DejaVuSans-114"/>
      <use x="102.339844" xlink:href="#DejaVuSans-111"/>
      <use x="163.521484" xlink:href="#DejaVuSans-117"/>
      <use x="226.900391" xlink:href="#DejaVuSans-112"/>
      <use x="290.376953" xlink:href="#DejaVuSans-95"/>
      <use x="340.376953" xlink:href="#DejaVuSans-49"/>
     </g>
    </g>
    <g id="line2d_23">
     <path d="M 59.9 68.930938 
L 79.9 68.930938 
" style="fill:none;stroke:#8c564b;stroke-linecap:square;stroke-width:1.5;"/>
    </g>
    <g id="line2d_24"/>
    <g id="text_11">
     <!-- benchmark -->
     <g transform="translate(87.9 72.430938)scale(0.1 -0.1)">
      <defs>
       <path d="M 48.6875 27.296875 
Q 48.6875 37.203125 44.609375 42.84375 
Q 40.53125 48.484375 33.40625 48.484375 
Q 26.265625 48.484375 22.1875 42.84375 
Q 18.109375 37.203125 18.109375 27.296875 
Q 18.109375 17.390625 22.1875 11.75 
Q 26.265625 6.109375 33.40625 6.109375 
Q 40.53125 6.109375 44.609375 11.75 
Q 48.6875 17.390625 48.6875 27.296875 
z
M 18.109375 46.390625 
Q 20.953125 51.265625 25.265625 53.625 
Q 29.59375 56 35.59375 56 
Q 45.5625 56 51.78125 48.09375 
Q 58.015625 40.1875 58.015625 27.296875 
Q 58.015625 14.40625 51.78125 6.484375 
Q 45.5625 -1.421875 35.59375 -1.421875 
Q 29.59375 -1.421875 25.265625 0.953125 
Q 20.953125 3.328125 18.109375 8.203125 
L 18.109375 0 
L 9.078125 0 
L 9.078125 75.984375 
L 18.109375 75.984375 
z
" id="DejaVuSans-98"/>
       <path d="M 54.890625 33.015625 
L 54.890625 0 
L 45.90625 0 
L 45.90625 32.71875 
Q 45.90625 40.484375 42.875 44.328125 
Q 39.84375 48.1875 33.796875 48.1875 
Q 26.515625 48.1875 22.3125 43.546875 
Q 18.109375 38.921875 18.109375 30.90625 
L 18.109375 0 
L 9.078125 0 
L 9.078125 75.984375 
L 18.109375 75.984375 
L 18.109375 46.1875 
Q 21.34375 51.125 25.703125 53.5625 
Q 30.078125 56 35.796875 56 
Q 45.21875 56 50.046875 50.171875 
Q 54.890625 44.34375 54.890625 33.015625 
z
" id="DejaVuSans-104"/>
       <path d="M 9.078125 75.984375 
L 18.109375 75.984375 
L 18.109375 31.109375 
L 44.921875 54.6875 
L 56.390625 54.6875 
L 27.390625 29.109375 
L 57.625 0 
L 45.90625 0 
L 18.109375 26.703125 
L 18.109375 0 
L 9.078125 0 
z
" id="DejaVuSans-107"/>
      </defs>
      <use xlink:href="#DejaVuSans-98"/>
      <use x="63.476562" xlink:href="#DejaVuSans-101"/>
      <use x="125" xlink:href="#DejaVuSans-110"/>
      <use x="188.378906" xlink:href="#DejaVuSans-99"/>
      <use x="243.359375" xlink:href="#DejaVuSans-104"/>
      <use x="306.738281" xlink:href="#DejaVuSans-109"/>
      <use x="404.150391" xlink:href="#DejaVuSans-97"/>
      <use x="465.429688" xlink:href="#DejaVuSans-114"/>
      <use x="506.542969" xlink:href="#DejaVuSans-107"/>
     </g>
    </g>
    <g id="line2d_25">
     <path d="M 59.9 83.609062 
L 79.9 83.609062 
" style="fill:none;stroke:#e377c2;stroke-linecap:square;stroke-width:1.5;"/>
    </g>
    <g id="line2d_26"/>
    <g id="text_12">
     <!-- long_excess -->
     <g transform="translate(87.9 87.109062)scale(0.1 -0.1)">
      <defs>
       <path d="M 54.890625 54.6875 
L 35.109375 28.078125 
L 55.90625 0 
L 45.3125 0 
L 29.390625 21.484375 
L 13.484375 0 
L 2.875 0 
L 24.125 28.609375 
L 4.6875 54.6875 
L 15.28125 54.6875 
L 29.78125 35.203125 
L 44.28125 54.6875 
z
" id="DejaVuSans-120"/>
      </defs>
      <use xlink:href="#DejaVuSans-108"/>
      <use x="27.783203" xlink:href="#DejaVuSans-111"/>
      <use x="88.964844" xlink:href="#DejaVuSans-110"/>
      <use x="152.34375" xlink:href="#DejaVuSans-103"/>
      <use x="215.820312" xlink:href="#DejaVuSans-95"/>
      <use x="265.820312" xlink:href="#DejaVuSans-101"/>
      <use x="325.59375" xlink:href="#DejaVuSans-120"/>
      <use x="383.023438" xlink:href="#DejaVuSans-99"/>
      <use x="438.003906" xlink:href="#DejaVuSans-101"/>
      <use x="499.527344" xlink:href="#DejaVuSans-115"/>
      <use x="551.626953" xlink:href="#DejaVuSans-115"/>
     </g>
    </g>
    <g id="line2d_27">
     <path d="M 59.9 98.565313 
L 79.9 98.565313 
" style="fill:none;stroke:#7f7f7f;stroke-linecap:square;stroke-width:1.5;"/>
    </g>
    <g id="line2d_28"/>
    <g id="text_13">
     <!-- short_excess -->
     <g transform="translate(87.9 102.065313)scale(0.1 -0.1)">
      <use xlink:href="#DejaVuSans-115"/>
      <use x="52.099609" xlink:href="#DejaVuSans-104"/>
      <use x="115.478516" xlink:href="#DejaVuSans-111"/>
      <use x="176.660156" xlink:href="#DejaVuSans-114"/>
      <use x="217.773438" xlink:href="#DejaVuSans-116"/>
      <use x="256.982422" xlink:href="#DejaVuSans-95"/>
      <use x="306.982422" xlink:href="#DejaVuSans-101"/>
      <use x="366.755859" xlink:href="#DejaVuSans-120"/>
      <use x="424.185547" xlink:href="#DejaVuSans-99"/>
      <use x="479.166016" xlink:href="#DejaVuSans-101"/>
      <use x="540.689453" xlink:href="#DejaVuSans-115"/>
      <use x="592.789062" xlink:href="#DejaVuSans-115"/>
     </g>
    </g>
    <g id="line2d_29">
     <path d="M 59.9 113.521563 
L 79.9 113.521563 
" style="fill:none;stroke:#bcbd22;stroke-linecap:square;stroke-width:1.5;"/>
    </g>
    <g id="line2d_30"/>
    <g id="text_14">
     <!-- long_short -->
     <g transform="translate(87.9 117.021563)scale(0.1 -0.1)">
      <use xlink:href="#DejaVuSans-108"/>
      <use x="27.783203" xlink:href="#DejaVuSans-111"/>
      <use x="88.964844" xlink:href="#DejaVuSans-110"/>
      <use x="152.34375" xlink:href="#DejaVuSans-103"/>
      <use x="215.820312" xlink:href="#DejaVuSans-95"/>
      <use x="265.820312" xlink:href="#DejaVuSans-115"/>
      <use x="317.919922" xlink:href="#DejaVuSans-104"/>
      <use x="381.298828" xlink:href="#DejaVuSans-111"/>
      <use x="442.480469" xlink:href="#DejaVuSans-114"/>
      <use x="483.59375" xlink:href="#DejaVuSans-116"/>
     </g>
    </g>
   </g>
  </g>
 </g>
 <defs>
  <clipPath id="p67ec6f3036">
   <rect height="319.78" width="1090.3" x="50.9" y="25.92"/>
  </clipPath>
 </defs>
</svg>
