<?xml version="1.0" encoding="utf-8" standalone="no"?>
<!DOCTYPE svg PUBLIC "-//W3C//DTD SVG 1.1//EN"
  "http://www.w3.org/Graphics/SVG/1.1/DTD/svg11.dtd">
<!-- Created with matplotlib (https://matplotlib.org/) -->
<svg height="360pt" version="1.1" viewBox="0 0 1152 360" width="1152pt" xmlns="http://www.w3.org/2000/svg" xmlns:xlink="http://www.w3.org/1999/xlink">
 <metadata>
  <rdf:RDF xmlns:cc="http://creativecommons.org/ns#" xmlns:dc="http://purl.org/dc/elements/1.1/" xmlns:rdf="http://www.w3.org/1999/02/22-rdf-syntax-ns#">
   <cc:Work>
    <dc:type rdf:resource="http://purl.org/dc/dcmitype/StillImage"/>
    <dc:date>2023-10-11T16:59:15.491029</dc:date>
    <dc:format>image/svg+xml</dc:format>
    <dc:creator>
     <cc:Agent>
      <dc:title>Matplotlib v3.3.4, https://matplotlib.org/</dc:title>
     </cc:Agent>
    </dc:creator>
   </cc:Work>
  </rdf:RDF>
 </metadata>
 <defs>
  <style type="text/css">*{stroke-linecap:butt;stroke-linejoin:round;}</style>
 </defs>
 <g id="figure_1">
  <g id="patch_1">
   <path d="M 0 360 
L 1152 360 
L 1152 0 
L 0 0 
z
" style="fill:#ffffff;"/>
  </g>
  <g id="axes_1">
   <g id="patch_2">
    <path d="M 50.9 316.76 
L 1141.2 316.76 
L 1141.2 25.92 
L 50.9 25.92 
z
" style="fill:#ffffff;"/>
   </g>
   <g id="matplotlib.axis_1">
    <g id="xtick_1">
     <g id="line2d_1">
      <path clip-path="url(#p90fb03e3c2)" d="M 59.927492 316.76 
L 59.927492 25.92 
" style="fill:none;stroke:#b0b0b0;stroke-linecap:square;stroke-width:0.8;"/>
     </g>
     <g id="line2d_2">
      <defs>
       <path d="M 0 0 
L 0 3.5 
" id="m290f2e134e" style="stroke:#000000;stroke-width:0.8;"/>
      </defs>
      <g>
       <use style="stroke:#000000;stroke-width:0.8;" x="59.927492" xlink:href="#m290f2e134e" y="316.76"/>
      </g>
     </g>
     <g id="text_1">
      <!-- 2010 -->
      <g transform="translate(62.686867 349.21)rotate(-90)scale(0.1 -0.1)">
       <defs>
        <path d="M 19.1875 8.296875 
L 53.609375 8.296875 
L 53.609375 0 
L 7.328125 0 
L 7.328125 8.296875 
Q 12.9375 14.109375 22.625 23.890625 
Q 32.328125 33.6875 34.8125 36.53125 
Q 39.546875 41.84375 41.421875 45.53125 
Q 43.3125 49.21875 43.3125 52.78125 
Q 43.3125 58.59375 39.234375 62.25 
Q 35.15625 65.921875 28.609375 65.921875 
Q 23.96875 65.921875 18.8125 64.3125 
Q 13.671875 62.703125 7.8125 59.421875 
L 7.8125 69.390625 
Q 13.765625 71.78125 18.9375 73 
Q 24.125 74.21875 28.421875 74.21875 
Q 39.75 74.21875 46.484375 68.546875 
Q 53.21875 62.890625 53.21875 53.421875 
Q 53.21875 48.921875 51.53125 44.890625 
Q 49.859375 40.875 45.40625 35.40625 
Q 44.1875 33.984375 37.640625 27.21875 
Q 31.109375 20.453125 19.1875 8.296875 
z
" id="DejaVuSans-50"/>
        <path d="M 31.78125 66.40625 
Q 24.171875 66.40625 20.328125 58.90625 
Q 16.5 51.421875 16.5 36.375 
Q 16.5 21.390625 20.328125 13.890625 
Q 24.171875 6.390625 31.78125 6.390625 
Q 39.453125 6.390625 43.28125 13.890625 
Q 47.125 21.390625 47.125 36.375 
Q 47.125 51.421875 43.28125 58.90625 
Q 39.453125 66.40625 31.78125 66.40625 
z
M 31.78125 74.21875 
Q 44.046875 74.21875 50.515625 64.515625 
Q 56.984375 54.828125 56.984375 36.375 
Q 56.984375 17.96875 50.515625 8.265625 
Q 44.046875 -1.421875 31.78125 -1.421875 
Q 19.53125 -1.421875 13.0625 8.265625 
Q 6.59375 17.96875 6.59375 36.375 
Q 6.59375 54.828125 13.0625 64.515625 
Q 19.53125 74.21875 31.78125 74.21875 
z
" id="DejaVuSans-48"/>
        <path d="M 12.40625 8.296875 
L 28.515625 8.296875 
L 28.515625 63.921875 
L 10.984375 60.40625 
L 10.984375 69.390625 
L 28.421875 72.90625 
L 38.28125 72.90625 
L 38.28125 8.296875 
L 54.390625 8.296875 
L 54.390625 0 
L 12.40625 0 
z
" id="DejaVuSans-49"/>
       </defs>
       <use xlink:href="#DejaVuSans-50"/>
       <use x="63.623047" xlink:href="#DejaVuSans-48"/>
       <use x="127.246094" xlink:href="#DejaVuSans-49"/>
       <use x="190.869141" xlink:href="#DejaVuSans-48"/>
      </g>
     </g>
    </g>
   </g>
   <g id="matplotlib.axis_2">
    <g id="ytick_1">
     <g id="line2d_3">
      <path clip-path="url(#p90fb03e3c2)" d="M 50.9 285.588866 
L 1141.2 285.588866 
" style="fill:none;stroke:#b0b0b0;stroke-linecap:square;stroke-width:0.8;"/>
     </g>
     <g id="line2d_4">
      <defs>
       <path d="M 0 0 
L -3.5 0 
" id="mfd175a1d45" style="stroke:#000000;stroke-width:0.8;"/>
      </defs>
      <g>
       <use style="stroke:#000000;stroke-width:0.8;" x="50.9" xlink:href="#mfd175a1d45" y="285.588866"/>
      </g>
     </g>
     <g id="text_2">
      <!-- -2.5 -->
      <g transform="translate(24.389062 289.388085)scale(0.1 -0.1)">
       <defs>
        <path d="M 4.890625 31.390625 
L 31.203125 31.390625 
L 31.203125 23.390625 
L 4.890625 23.390625 
z
" id="DejaVuSans-45"/>
        <path d="M 10.6875 12.40625 
L 21 12.40625 
L 21 0 
L 10.6875 0 
z
" id="DejaVuSans-46"/>
        <path d="M 10.796875 72.90625 
L 49.515625 72.90625 
L 49.515625 64.59375 
L 19.828125 64.59375 
L 19.828125 46.734375 
Q 21.96875 47.46875 24.109375 47.828125 
Q 26.265625 48.1875 28.421875 48.1875 
Q 40.625 48.1875 47.75 41.5 
Q 54.890625 34.8125 54.890625 23.390625 
Q 54.890625 11.625 47.5625 5.09375 
Q 40.234375 -1.421875 26.90625 -1.421875 
Q 22.3125 -1.421875 17.546875 -0.640625 
Q 12.796875 0.140625 7.71875 1.703125 
L 7.71875 11.625 
Q 12.109375 9.234375 16.796875 8.0625 
Q 21.484375 6.890625 26.703125 6.890625 
Q 35.15625 6.890625 40.078125 11.328125 
Q 45.015625 15.765625 45.015625 23.390625 
Q 45.015625 31 40.078125 35.4375 
Q 35.15625 39.890625 26.703125 39.890625 
Q 22.75 39.890625 18.8125 39.015625 
Q 14.890625 38.140625 10.796875 36.28125 
z
" id="DejaVuSans-53"/>
       </defs>
       <use xlink:href="#DejaVuSans-45"/>
       <use x="36.083984" xlink:href="#DejaVuSans-50"/>
       <use x="99.707031" xlink:href="#DejaVuSans-46"/>
       <use x="131.494141" xlink:href="#DejaVuSans-53"/>
      </g>
     </g>
    </g>
    <g id="ytick_2">
     <g id="line2d_5">
      <path clip-path="url(#p90fb03e3c2)" d="M 50.9 252.201134 
L 1141.2 252.201134 
" style="fill:none;stroke:#b0b0b0;stroke-linecap:square;stroke-width:0.8;"/>
     </g>
     <g id="line2d_6">
      <g>
       <use style="stroke:#000000;stroke-width:0.8;" x="50.9" xlink:href="#mfd175a1d45" y="252.201134"/>
      </g>
     </g>
     <g id="text_3">
      <!-- -2.0 -->
      <g transform="translate(24.389062 256.000353)scale(0.1 -0.1)">
       <use xlink:href="#DejaVuSans-45"/>
       <use x="36.083984" xlink:href="#DejaVuSans-50"/>
       <use x="99.707031" xlink:href="#DejaVuSans-46"/>
       <use x="131.494141" xlink:href="#DejaVuSans-48"/>
      </g>
     </g>
    </g>
    <g id="ytick_3">
     <g id="line2d_7">
      <path clip-path="url(#p90fb03e3c2)" d="M 50.9 218.813402 
L 1141.2 218.813402 
" style="fill:none;stroke:#b0b0b0;stroke-linecap:square;stroke-width:0.8;"/>
     </g>
     <g id="line2d_8">
      <g>
       <use style="stroke:#000000;stroke-width:0.8;" x="50.9" xlink:href="#mfd175a1d45" y="218.813402"/>
      </g>
     </g>
     <g id="text_4">
      <!-- -1.5 -->
      <g transform="translate(24.389062 222.61262)scale(0.1 -0.1)">
       <use xlink:href="#DejaVuSans-45"/>
       <use x="36.083984" xlink:href="#DejaVuSans-49"/>
       <use x="99.707031" xlink:href="#DejaVuSans-46"/>
       <use x="131.494141" xlink:href="#DejaVuSans-53"/>
      </g>
     </g>
    </g>
    <g id="ytick_4">
     <g id="line2d_9">
      <path clip-path="url(#p90fb03e3c2)" d="M 50.9 185.425669 
L 1141.2 185.425669 
" style="fill:none;stroke:#b0b0b0;stroke-linecap:square;stroke-width:0.8;"/>
     </g>
     <g id="line2d_10">
      <g>
       <use style="stroke:#000000;stroke-width:0.8;" x="50.9" xlink:href="#mfd175a1d45" y="185.425669"/>
      </g>
     </g>
     <g id="text_5">
      <!-- -1.0 -->
      <g transform="translate(24.389062 189.224888)scale(0.1 -0.1)">
       <use xlink:href="#DejaVuSans-45"/>
       <use x="36.083984" xlink:href="#DejaVuSans-49"/>
       <use x="99.707031" xlink:href="#DejaVuSans-46"/>
       <use x="131.494141" xlink:href="#DejaVuSans-48"/>
      </g>
     </g>
    </g>
    <g id="ytick_5">
     <g id="line2d_11">
      <path clip-path="url(#p90fb03e3c2)" d="M 50.9 152.037937 
L 1141.2 152.037937 
" style="fill:none;stroke:#b0b0b0;stroke-linecap:square;stroke-width:0.8;"/>
     </g>
     <g id="line2d_12">
      <g>
       <use style="stroke:#000000;stroke-width:0.8;" x="50.9" xlink:href="#mfd175a1d45" y="152.037937"/>
      </g>
     </g>
     <g id="text_6">
      <!-- -0.5 -->
      <g transform="translate(24.389062 155.837155)scale(0.1 -0.1)">
       <use xlink:href="#DejaVuSans-45"/>
       <use x="36.083984" xlink:href="#DejaVuSans-48"/>
       <use x="99.707031" xlink:href="#DejaVuSans-46"/>
       <use x="131.494141" xlink:href="#DejaVuSans-53"/>
      </g>
     </g>
    </g>
    <g id="ytick_6">
     <g id="line2d_13">
      <path clip-path="url(#p90fb03e3c2)" d="M 50.9 118.650204 
L 1141.2 118.650204 
" style="fill:none;stroke:#b0b0b0;stroke-linecap:square;stroke-width:0.8;"/>
     </g>
     <g id="line2d_14">
      <g>
       <use style="stroke:#000000;stroke-width:0.8;" x="50.9" xlink:href="#mfd175a1d45" y="118.650204"/>
      </g>
     </g>
     <g id="text_7">
      <!-- 0.0 -->
      <g transform="translate(27.996875 122.449423)scale(0.1 -0.1)">
       <use xlink:href="#DejaVuSans-48"/>
       <use x="63.623047" xlink:href="#DejaVuSans-46"/>
       <use x="95.410156" xlink:href="#DejaVuSans-48"/>
      </g>
     </g>
    </g>
    <g id="ytick_7">
     <g id="line2d_15">
      <path clip-path="url(#p90fb03e3c2)" d="M 50.9 85.262472 
L 1141.2 85.262472 
" style="fill:none;stroke:#b0b0b0;stroke-linecap:square;stroke-width:0.8;"/>
     </g>
     <g id="line2d_16">
      <g>
       <use style="stroke:#000000;stroke-width:0.8;" x="50.9" xlink:href="#mfd175a1d45" y="85.262472"/>
      </g>
     </g>
     <g id="text_8">
      <!-- 0.5 -->
      <g transform="translate(27.996875 89.061691)scale(0.1 -0.1)">
       <use xlink:href="#DejaVuSans-48"/>
       <use x="63.623047" xlink:href="#DejaVuSans-46"/>
       <use x="95.410156" xlink:href="#DejaVuSans-53"/>
      </g>
     </g>
    </g>
    <g id="ytick_8">
     <g id="line2d_17">
      <path clip-path="url(#p90fb03e3c2)" d="M 50.9 51.874739 
L 1141.2 51.874739 
" style="fill:none;stroke:#b0b0b0;stroke-linecap:square;stroke-width:0.8;"/>
     </g>
     <g id="line2d_18">
      <g>
       <use style="stroke:#000000;stroke-width:0.8;" x="50.9" xlink:href="#mfd175a1d45" y="51.874739"/>
      </g>
     </g>
     <g id="text_9">
      <!-- 1.0 -->
      <g transform="translate(27.996875 55.673958)scale(0.1 -0.1)">
       <use xlink:href="#DejaVuSans-49"/>
       <use x="63.623047" xlink:href="#DejaVuSans-46"/>
       <use x="95.410156" xlink:href="#DejaVuSans-48"/>
      </g>
     </g>
    </g>
    <g id="text_10">
     <!-- log return cumsum -->
     <g transform="translate(18.309375 218.857969)rotate(-90)scale(0.1 -0.1)">
      <defs>
       <path d="M 9.421875 75.984375 
L 18.40625 75.984375 
L 18.40625 0 
L 9.421875 0 
z
" id="DejaVuSans-108"/>
       <path d="M 30.609375 48.390625 
Q 23.390625 48.390625 19.1875 42.75 
Q 14.984375 37.109375 14.984375 27.296875 
Q 14.984375 17.484375 19.15625 11.84375 
Q 23.34375 6.203125 30.609375 6.203125 
Q 37.796875 6.203125 41.984375 11.859375 
Q 46.1875 17.53125 46.1875 27.296875 
Q 46.1875 37.015625 41.984375 42.703125 
Q 37.796875 48.390625 30.609375 48.390625 
z
M 30.609375 56 
Q 42.328125 56 49.015625 48.375 
Q 55.71875 40.765625 55.71875 27.296875 
Q 55.71875 13.875 49.015625 6.21875 
Q 42.328125 -1.421875 30.609375 -1.421875 
Q 18.84375 -1.421875 12.171875 6.21875 
Q 5.515625 13.875 5.515625 27.296875 
Q 5.515625 40.765625 12.171875 48.375 
Q 18.84375 56 30.609375 56 
z
" id="DejaVuSans-111"/>
       <path d="M 45.40625 27.984375 
Q 45.40625 37.75 41.375 43.109375 
Q 37.359375 48.484375 30.078125 48.484375 
Q 22.859375 48.484375 18.828125 43.109375 
Q 14.796875 37.75 14.796875 27.984375 
Q 14.796875 18.265625 18.828125 12.890625 
Q 22.859375 7.515625 30.078125 7.515625 
Q 37.359375 7.515625 41.375 12.890625 
Q 45.40625 18.265625 45.40625 27.984375 
z
M 54.390625 6.78125 
Q 54.390625 -7.171875 48.1875 -13.984375 
Q 42 -20.796875 29.203125 -20.796875 
Q 24.46875 -20.796875 20.265625 -20.09375 
Q 16.0625 -19.390625 12.109375 -17.921875 
L 12.109375 -9.1875 
Q 16.0625 -11.328125 19.921875 -12.34375 
Q 23.78125 -13.375 27.78125 -13.375 
Q 36.625 -13.375 41.015625 -8.765625 
Q 45.40625 -4.15625 45.40625 5.171875 
L 45.40625 9.625 
Q 42.625 4.78125 38.28125 2.390625 
Q 33.9375 0 27.875 0 
Q 17.828125 0 11.671875 7.65625 
Q 5.515625 15.328125 5.515625 27.984375 
Q 5.515625 40.671875 11.671875 48.328125 
Q 17.828125 56 27.875 56 
Q 33.9375 56 38.28125 53.609375 
Q 42.625 51.21875 45.40625 46.390625 
L 45.40625 54.6875 
L 54.390625 54.6875 
z
" id="DejaVuSans-103"/>
       <path id="DejaVuSans-32"/>
       <path d="M 41.109375 46.296875 
Q 39.59375 47.171875 37.8125 47.578125 
Q 36.03125 48 33.890625 48 
Q 26.265625 48 22.1875 43.046875 
Q 18.109375 38.09375 18.109375 28.8125 
L 18.109375 0 
L 9.078125 0 
L 9.078125 54.6875 
L 18.109375 54.6875 
L 18.109375 46.1875 
Q 20.953125 51.171875 25.484375 53.578125 
Q 30.03125 56 36.53125 56 
Q 37.453125 56 38.578125 55.875 
Q 39.703125 55.765625 41.0625 55.515625 
z
" id="DejaVuSans-114"/>
       <path d="M 56.203125 29.59375 
L 56.203125 25.203125 
L 14.890625 25.203125 
Q 15.484375 15.921875 20.484375 11.0625 
Q 25.484375 6.203125 34.421875 6.203125 
Q 39.59375 6.203125 44.453125 7.46875 
Q 49.3125 8.734375 54.109375 11.28125 
L 54.109375 2.78125 
Q 49.265625 0.734375 44.1875 -0.34375 
Q 39.109375 -1.421875 33.890625 -1.421875 
Q 20.796875 -1.421875 13.15625 6.1875 
Q 5.515625 13.8125 5.515625 26.8125 
Q 5.515625 40.234375 12.765625 48.109375 
Q 20.015625 56 32.328125 56 
Q 43.359375 56 49.78125 48.890625 
Q 56.203125 41.796875 56.203125 29.59375 
z
M 47.21875 32.234375 
Q 47.125 39.59375 43.09375 43.984375 
Q 39.0625 48.390625 32.421875 48.390625 
Q 24.90625 48.390625 20.390625 44.140625 
Q 15.875 39.890625 15.1875 32.171875 
z
" id="DejaVuSans-101"/>
       <path d="M 18.3125 70.21875 
L 18.3125 54.6875 
L 36.8125 54.6875 
L 36.8125 47.703125 
L 18.3125 47.703125 
L 18.3125 18.015625 
Q 18.3125 11.328125 20.140625 9.421875 
Q 21.96875 7.515625 27.59375 7.515625 
L 36.8125 7.515625 
L 36.8125 0 
L 27.59375 0 
Q 17.1875 0 13.234375 3.875 
Q 9.28125 7.765625 9.28125 18.015625 
L 9.28125 47.703125 
L 2.6875 47.703125 
L 2.6875 54.6875 
L 9.28125 54.6875 
L 9.28125 70.21875 
z
" id="DejaVuSans-116"/>
       <path d="M 8.5 21.578125 
L 8.5 54.6875 
L 17.484375 54.6875 
L 17.484375 21.921875 
Q 17.484375 14.15625 20.5 10.265625 
Q 23.53125 6.390625 29.59375 6.390625 
Q 36.859375 6.390625 41.078125 11.03125 
Q 45.3125 15.671875 45.3125 23.6875 
L 45.3125 54.6875 
L 54.296875 54.6875 
L 54.296875 0 
L 45.3125 0 
L 45.3125 8.40625 
Q 42.046875 3.421875 37.71875 1 
Q 33.40625 -1.421875 27.6875 -1.421875 
Q 18.265625 -1.421875 13.375 4.4375 
Q 8.5 10.296875 8.5 21.578125 
z
M 31.109375 56 
z
" id="DejaVuSans-117"/>
       <path d="M 54.890625 33.015625 
L 54.890625 0 
L 45.90625 0 
L 45.90625 32.71875 
Q 45.90625 40.484375 42.875 44.328125 
Q 39.84375 48.1875 33.796875 48.1875 
Q 26.515625 48.1875 22.3125 43.546875 
Q 18.109375 38.921875 18.109375 30.90625 
L 18.109375 0 
L 9.078125 0 
L 9.078125 54.6875 
L 18.109375 54.6875 
L 18.109375 46.1875 
Q 21.34375 51.125 25.703125 53.5625 
Q 30.078125 56 35.796875 56 
Q 45.21875 56 50.046875 50.171875 
Q 54.890625 44.34375 54.890625 33.015625 
z
" id="DejaVuSans-110"/>
       <path d="M 48.78125 52.59375 
L 48.78125 44.1875 
Q 44.96875 46.296875 41.140625 47.34375 
Q 37.3125 48.390625 33.40625 48.390625 
Q 24.65625 48.390625 19.8125 42.84375 
Q 14.984375 37.3125 14.984375 27.296875 
Q 14.984375 17.28125 19.8125 11.734375 
Q 24.65625 6.203125 33.40625 6.203125 
Q 37.3125 6.203125 41.140625 7.25 
Q 44.96875 8.296875 48.78125 10.40625 
L 48.78125 2.09375 
Q 45.015625 0.34375 40.984375 -0.53125 
Q 36.96875 -1.421875 32.421875 -1.421875 
Q 20.0625 -1.421875 12.78125 6.34375 
Q 5.515625 14.109375 5.515625 27.296875 
Q 5.515625 40.671875 12.859375 48.328125 
Q 20.21875 56 33.015625 56 
Q 37.15625 56 41.109375 55.140625 
Q 45.0625 54.296875 48.78125 52.59375 
z
" id="DejaVuSans-99"/>
       <path d="M 52 44.1875 
Q 55.375 50.25 60.0625 53.125 
Q 64.75 56 71.09375 56 
Q 79.640625 56 84.28125 50.015625 
Q 88.921875 44.046875 88.921875 33.015625 
L 88.921875 0 
L 79.890625 0 
L 79.890625 32.71875 
Q 79.890625 40.578125 77.09375 44.375 
Q 74.3125 48.1875 68.609375 48.1875 
Q 61.625 48.1875 57.5625 43.546875 
Q 53.515625 38.921875 53.515625 30.90625 
L 53.515625 0 
L 44.484375 0 
L 44.484375 32.71875 
Q 44.484375 40.625 41.703125 44.40625 
Q 38.921875 48.1875 33.109375 48.1875 
Q 26.21875 48.1875 22.15625 43.53125 
Q 18.109375 38.875 18.109375 30.90625 
L 18.109375 0 
L 9.078125 0 
L 9.078125 54.6875 
L 18.109375 54.6875 
L 18.109375 46.1875 
Q 21.1875 51.21875 25.484375 53.609375 
Q 29.78125 56 35.6875 56 
Q 41.65625 56 45.828125 52.96875 
Q 50 49.953125 52 44.1875 
z
" id="DejaVuSans-109"/>
       <path d="M 44.28125 53.078125 
L 44.28125 44.578125 
Q 40.484375 46.53125 36.375 47.5 
Q 32.28125 48.484375 27.875 48.484375 
Q 21.1875 48.484375 17.84375 46.4375 
Q 14.5 44.390625 14.5 40.28125 
Q 14.5 37.15625 16.890625 35.375 
Q 19.28125 33.59375 26.515625 31.984375 
L 29.59375 31.296875 
Q 39.15625 29.25 43.1875 25.515625 
Q 47.21875 21.78125 47.21875 15.09375 
Q 47.21875 7.46875 41.1875 3.015625 
Q 35.15625 -1.421875 24.609375 -1.421875 
Q 20.21875 -1.421875 15.453125 -0.5625 
Q 10.6875 0.296875 5.421875 2 
L 5.421875 11.28125 
Q 10.40625 8.6875 15.234375 7.390625 
Q 20.0625 6.109375 24.8125 6.109375 
Q 31.15625 6.109375 34.5625 8.28125 
Q 37.984375 10.453125 37.984375 14.40625 
Q 37.984375 18.0625 35.515625 20.015625 
Q 33.0625 21.96875 24.703125 23.78125 
L 21.578125 24.515625 
Q 13.234375 26.265625 9.515625 29.90625 
Q 5.8125 33.546875 5.8125 39.890625 
Q 5.8125 47.609375 11.28125 51.796875 
Q 16.75 56 26.8125 56 
Q 31.78125 56 36.171875 55.265625 
Q 40.578125 54.546875 44.28125 53.078125 
z
" id="DejaVuSans-115"/>
      </defs>
      <use xlink:href="#DejaVuSans-108"/>
      <use x="27.783203" xlink:href="#DejaVuSans-111"/>
      <use x="88.964844" xlink:href="#DejaVuSans-103"/>
      <use x="152.441406" xlink:href="#DejaVuSans-32"/>
      <use x="184.228516" xlink:href="#DejaVuSans-114"/>
      <use x="223.091797" xlink:href="#DejaVuSans-101"/>
      <use x="284.615234" xlink:href="#DejaVuSans-116"/>
      <use x="323.824219" xlink:href="#DejaVuSans-117"/>
      <use x="387.203125" xlink:href="#DejaVuSans-114"/>
      <use x="426.566406" xlink:href="#DejaVuSans-110"/>
      <use x="489.945312" xlink:href="#DejaVuSans-32"/>
      <use x="521.732422" xlink:href="#DejaVuSans-99"/>
      <use x="576.712891" xlink:href="#DejaVuSans-117"/>
      <use x="640.091797" xlink:href="#DejaVuSans-109"/>
      <use x="737.503906" xlink:href="#DejaVuSans-115"/>
      <use x="789.603516" xlink:href="#DejaVuSans-117"/>
      <use x="852.982422" xlink:href="#DejaVuSans-109"/>
     </g>
    </g>
   </g>
   <g id="line2d_19">
    <path clip-path="url(#p90fb03e3c2)" d="M 100.459091 124.540916 
L 104.143782 123.340954 
L 107.828472 129.055256 
L 111.513163 125.552449 
L 122.567236 122.984783 
L 126.251926 121.358034 
L 129.936617 124.450409 
L 133.621308 121.734426 
L 137.305999 127.085825 
L 148.360071 132.774675 
L 152.044762 137.107551 
L 155.729453 138.108885 
L 159.414143 140.46152 
L 163.098834 136.745307 
L 174.152906 136.223857 
L 177.837597 132.007279 
L 181.522288 133.340597 
L 185.206979 133.681784 
L 188.891669 136.344394 
L 199.945742 136.668058 
L 203.630433 135.704155 
L 207.315123 133.415811 
L 210.999814 136.343167 
L 214.684505 139.584446 
L 225.738577 141.195308 
L 229.423268 144.190521 
L 233.107959 141.058375 
L 236.79265 141.781926 
L 240.47734 141.449944 
L 251.531413 142.01649 
L 255.216103 143.389261 
L 258.900794 140.332008 
L 262.585485 135.154617 
L 266.270176 132.518729 
L 277.324248 136.771388 
L 281.008939 135.831712 
L 284.69363 134.424845 
L 288.37832 135.059625 
L 303.117083 138.481463 
L 306.801774 135.549476 
L 310.486465 135.672272 
L 314.171156 137.517675 
L 317.855847 132.470143 
L 328.909919 130.09249 
L 332.59461 136.843883 
L 336.2793 137.936631 
L 339.963991 134.406002 
L 343.648682 133.5397 
L 354.702754 130.512783 
L 358.387445 134.18031 
L 362.072136 139.043207 
L 365.756827 136.380378 
L 369.441517 137.813757 
L 380.49559 133.983927 
L 384.180281 134.732876 
L 387.864971 135.756963 
L 391.549662 137.388119 
L 395.234353 134.510668 
L 406.288425 137.815519 
L 409.973116 136.042322 
L 413.657807 138.382968 
L 417.342497 139.160685 
L 421.027188 144.859103 
L 432.081261 147.680003 
L 435.765951 147.068134 
L 439.450642 148.687016 
L 443.135333 145.400113 
L 446.820024 147.809503 
L 457.874096 145.81389 
L 465.243478 146.942599 
L 468.928168 145.855066 
L 472.612859 149.679196 
L 483.666931 148.148847 
L 487.351622 151.364839 
L 494.721004 148.18115 
L 498.405694 144.455348 
L 509.459767 147.968878 
L 513.144458 149.610279 
L 516.829148 146.034251 
L 520.513839 143.212517 
L 524.19853 148.921085 
L 535.252602 147.156466 
L 538.937293 144.670163 
L 542.621984 143.160137 
L 546.306675 144.517932 
L 549.991365 146.650517 
L 561.045438 149.878059 
L 564.730128 151.099433 
L 568.414819 152.487777 
L 572.09951 154.093639 
L 575.784201 154.13611 
L 586.838273 153.834017 
L 590.522964 147.804493 
L 594.207655 147.288315 
L 597.892345 145.838944 
L 601.577036 146.309051 
L 612.631108 150.270913 
L 616.315799 148.628002 
L 620.00049 148.733788 
L 623.685181 150.311125 
L 627.369872 148.552241 
L 638.423944 151.094881 
L 642.108635 148.403687 
L 645.793325 153.890686 
L 649.478016 157.166826 
L 653.162707 159.055477 
L 664.216779 159.653763 
L 667.90147 157.83673 
L 671.586161 159.220885 
L 675.270852 159.797227 
L 678.955542 158.228286 
L 690.009615 159.479019 
L 693.694306 158.626522 
L 697.378996 163.675221 
L 701.063687 162.084635 
L 704.748378 158.976375 
L 715.80245 156.10642 
L 719.487141 152.740085 
L 723.171832 152.405847 
L 726.856522 148.04934 
L 730.541213 145.14532 
L 745.279976 146.144064 
L 748.964667 148.19426 
L 752.649358 147.152992 
L 756.334049 146.464286 
L 767.388121 144.806729 
L 771.072812 146.602967 
L 774.757503 145.173995 
L 778.442193 144.70754 
L 782.126884 142.713624 
L 793.180956 143.561402 
L 796.865647 149.464948 
L 800.550338 152.976343 
L 804.235029 155.611392 
L 807.919719 153.48187 
L 818.973792 147.815804 
L 822.658483 150.164547 
L 826.343173 154.561763 
L 830.027864 154.168048 
L 833.712555 152.021621 
L 844.766627 154.728358 
L 848.451318 151.917444 
L 852.136009 146.414195 
L 855.8207 147.4153 
L 859.50539 141.923217 
L 874.244153 140.193823 
L 877.928844 134.877499 
L 881.613535 134.571737 
L 885.298226 132.611725 
L 896.352298 134.123213 
L 900.036989 133.2204 
L 903.72168 139.940774 
L 907.40637 140.133267 
L 911.091061 141.985881 
L 922.145133 143.216445 
L 925.829824 140.387419 
L 929.514515 143.594901 
L 933.199206 144.756967 
L 936.883897 145.152143 
L 947.937969 146.169585 
L 951.62266 150.717999 
L 955.30735 154.761375 
L 962.676732 154.444636 
L 973.730804 158.300669 
L 977.415495 157.682471 
L 981.100186 152.8817 
L 984.784877 153.521314 
L 988.469567 150.397636 
L 999.52364 146.125447 
L 1003.208331 146.430291 
L 1006.893021 149.045582 
L 1010.577712 149.741793 
L 1014.262403 154.015369 
L 1025.316475 151.405262 
L 1029.001166 149.814476 
L 1032.685857 149.746717 
L 1036.370547 144.911653 
L 1040.055238 142.383559 
L 1051.109311 145.306876 
L 1054.794001 150.9081 
L 1058.478692 149.210951 
L 1062.163383 149.836225 
L 1065.848074 149.281457 
L 1076.902146 148.687326 
L 1080.586837 149.055294 
L 1084.271528 144.765447 
L 1087.956218 144.55511 
L 1091.640909 144.55511 
L 1091.640909 144.55511 
" style="fill:none;stroke:#9467bd;stroke-linecap:square;stroke-width:1.5;"/>
   </g>
   <g id="line2d_20">
    <path clip-path="url(#p90fb03e3c2)" d="M 100.459091 113.963317 
L 104.143782 116.715635 
L 107.828472 120.715527 
L 111.513163 120.823094 
L 122.567236 118.662448 
L 126.251926 116.154705 
L 129.936617 114.366968 
L 133.621308 110.453023 
L 137.305999 113.441725 
L 148.360071 109.623667 
L 152.044762 115.075158 
L 155.729453 116.307267 
L 159.414143 115.644367 
L 163.098834 118.715097 
L 174.152906 119.521417 
L 177.837597 118.730577 
L 181.522288 120.577059 
L 185.206979 123.012337 
L 188.891669 118.522809 
L 199.945742 123.334409 
L 203.630433 119.351942 
L 207.315123 120.838447 
L 210.999814 118.716608 
L 214.684505 114.654868 
L 225.738577 120.030874 
L 229.423268 125.690139 
L 233.107959 126.653265 
L 236.79265 129.147883 
L 240.47734 132.989177 
L 251.531413 132.528866 
L 255.216103 133.146559 
L 258.900794 128.768275 
L 262.585485 135.09933 
L 266.270176 133.266275 
L 277.324248 139.336164 
L 281.008939 134.473376 
L 284.69363 134.842857 
L 288.37832 132.521014 
L 303.117083 130.612998 
L 306.801774 124.618008 
L 310.486465 122.681979 
L 314.171156 124.023886 
L 317.855847 126.631232 
L 328.909919 123.021364 
L 332.59461 126.435797 
L 336.2793 122.322468 
L 339.963991 123.467611 
L 343.648682 120.042815 
L 354.702754 116.891112 
L 358.387445 116.283028 
L 362.072136 115.323427 
L 365.756827 115.616398 
L 369.441517 113.732376 
L 380.49559 111.320782 
L 384.180281 111.38904 
L 387.864971 111.332123 
L 391.549662 105.860196 
L 395.234353 108.023872 
L 406.288425 107.737489 
L 409.973116 106.299648 
L 413.657807 111.771787 
L 417.342497 109.402414 
L 421.027188 108.83257 
L 432.081261 107.964019 
L 435.765951 107.253362 
L 439.450642 112.261909 
L 443.135333 109.193413 
L 446.820024 112.174327 
L 457.874096 109.397258 
L 461.558787 109.070657 
L 465.243478 110.070797 
L 468.928168 113.514597 
L 472.612859 109.853999 
L 483.666931 114.017963 
L 487.351622 113.023533 
L 491.036313 110.648192 
L 494.721004 106.629272 
L 498.405694 107.219546 
L 509.459767 102.014473 
L 513.144458 96.789861 
L 516.829148 97.652598 
L 520.513839 98.693734 
L 535.252602 98.019755 
L 538.937293 97.92344 
L 542.621984 97.284948 
L 546.306675 93.783029 
L 549.991365 89.00668 
L 561.045438 88.347021 
L 564.730128 86.266344 
L 568.414819 81.840761 
L 572.09951 83.777415 
L 575.784201 79.982994 
L 586.838273 81.48892 
L 590.522964 80.64647 
L 594.207655 79.362461 
L 597.892345 77.536229 
L 601.577036 78.853677 
L 612.631108 81.141081 
L 616.315799 79.697515 
L 620.00049 77.053957 
L 623.685181 79.684303 
L 627.369872 76.777466 
L 638.423944 76.250925 
L 642.108635 72.622536 
L 645.793325 72.086022 
L 649.478016 71.263187 
L 653.162707 67.634798 
L 664.216779 69.708914 
L 667.90147 67.453395 
L 671.586161 68.109203 
L 675.270852 67.704042 
L 678.955542 66.419265 
L 690.009615 63.959343 
L 693.694306 60.265021 
L 697.378996 65.958807 
L 701.063687 63.528892 
L 704.748378 61.907041 
L 715.80245 58.467061 
L 719.487141 56.502426 
L 723.171832 60.587296 
L 726.856522 64.879045 
L 730.541213 61.827793 
L 741.595286 57.957957 
L 745.279976 58.821521 
L 748.964667 59.229438 
L 752.649358 58.279808 
L 756.334049 56.207544 
L 767.388121 52.210603 
L 771.072812 56.678793 
L 774.757503 56.903445 
L 778.442193 54.434879 
L 782.126884 56.85176 
L 793.180956 62.033756 
L 796.865647 63.430138 
L 800.550338 59.844993 
L 804.235029 61.520568 
L 807.919719 57.732359 
L 818.973792 54.382216 
L 822.658483 50.836851 
L 826.343173 52.680584 
L 830.027864 57.707697 
L 833.712555 54.123783 
L 844.766627 53.530846 
L 848.451318 52.114689 
L 852.136009 50.357872 
L 855.8207 51.461117 
L 859.50539 51.473789 
L 870.559463 52.112185 
L 874.244153 54.585387 
L 877.928844 48.820141 
L 881.613535 48.436565 
L 885.298226 44.570922 
L 896.352298 49.46106 
L 900.036989 45.419698 
L 903.72168 42.333335 
L 907.40637 43.189216 
L 911.091061 39.14 
L 922.145133 44.278143 
L 925.829824 47.853938 
L 929.514515 46.061443 
L 933.199206 45.026195 
L 936.883897 43.128757 
L 947.937969 43.1022 
L 951.62266 45.325719 
L 955.30735 46.458531 
L 958.992041 50.14073 
L 973.730804 49.781809 
L 977.415495 50.374041 
L 981.100186 51.119816 
L 984.784877 50.373213 
L 988.469567 47.642913 
L 999.52364 43.771952 
L 1003.208331 40.940487 
L 1006.893021 44.336488 
L 1010.577712 42.603239 
L 1014.262403 47.327389 
L 1025.316475 47.504474 
L 1029.001166 51.498601 
L 1032.685857 53.15399 
L 1036.370547 50.352552 
L 1040.055238 49.184933 
L 1051.109311 53.765123 
L 1054.794001 53.35337 
L 1058.478692 55.009205 
L 1062.163383 54.130545 
L 1065.848074 54.90704 
L 1076.902146 53.138195 
L 1080.586837 53.755974 
L 1084.271528 50.600167 
L 1087.956218 49.550684 
L 1091.640909 49.550684 
L 1091.640909 49.550684 
" style="fill:none;stroke:#1f77b4;stroke-linecap:square;stroke-width:1.5;"/>
   </g>
   <g id="line2d_21">
    <path clip-path="url(#p90fb03e3c2)" d="M 100.459091 113.93067 
L 104.143782 112.593743 
L 107.828472 109.871179 
L 111.513163 116.601919 
L 122.567236 110.603865 
L 126.251926 106.305428 
L 129.936617 110.262108 
L 137.305999 119.020548 
L 148.360071 121.687465 
L 152.044762 121.357656 
L 155.729453 122.272779 
L 159.414143 125.120815 
L 163.098834 123.643472 
L 174.152906 128.640456 
L 177.837597 131.475734 
L 181.522288 133.284769 
L 185.206979 133.87405 
L 188.891669 130.170149 
L 199.945742 134.306543 
L 203.630433 134.116711 
L 207.315123 132.893773 
L 210.999814 139.243526 
L 214.684505 137.822483 
L 225.738577 142.37434 
L 229.423268 148.451448 
L 236.79265 136.764737 
L 240.47734 132.768088 
L 251.531413 135.429842 
L 255.216103 141.031489 
L 258.900794 138.615286 
L 262.585485 139.419377 
L 266.270176 144.66807 
L 277.324248 144.732514 
L 281.008939 151.259661 
L 284.69363 146.005396 
L 288.37832 149.307215 
L 292.063011 147.171244 
L 303.117083 149.734431 
L 306.801774 149.466957 
L 310.486465 148.846032 
L 314.171156 153.19332 
L 317.855847 147.199236 
L 328.909919 143.622345 
L 332.59461 137.996576 
L 336.2793 132.921462 
L 339.963991 131.626634 
L 343.648682 126.217578 
L 354.702754 131.95268 
L 358.387445 136.141537 
L 362.072136 142.509257 
L 365.756827 144.883707 
L 369.441517 146.387233 
L 380.49559 149.512914 
L 384.180281 145.260891 
L 387.864971 147.201903 
L 391.549662 150.193569 
L 395.234353 149.62578 
L 406.288425 154.60218 
L 409.973116 150.683572 
L 413.657807 156.621877 
L 417.342497 150.416891 
L 421.027188 146.876568 
L 432.081261 151.026577 
L 435.765951 157.980182 
L 439.450642 153.894731 
L 443.135333 151.18775 
L 446.820024 148.19731 
L 457.874096 144.66933 
L 461.558787 150.615021 
L 465.243478 152.532493 
L 468.928168 157.870373 
L 472.612859 153.189087 
L 483.666931 151.562404 
L 487.351622 153.85985 
L 491.036313 159.958804 
L 494.721004 162.532105 
L 498.405694 164.908589 
L 509.459767 161.9105 
L 513.144458 160.098224 
L 516.829148 155.117427 
L 520.513839 155.489534 
L 524.19853 160.773546 
L 535.252602 157.984699 
L 538.937293 154.589677 
L 542.621984 153.776288 
L 546.306675 150.252149 
L 549.991365 150.335061 
L 561.045438 150.03215 
L 564.730128 151.006927 
L 568.414819 157.666291 
L 572.09951 163.11968 
L 575.784201 169.690421 
L 586.838273 167.893055 
L 590.522964 170.419547 
L 594.207655 170.305183 
L 597.892345 165.072573 
L 601.577036 168.507657 
L 612.631108 169.715357 
L 616.315799 166.386803 
L 620.00049 170.110659 
L 623.685181 176.013513 
L 627.369872 178.882146 
L 638.423944 183.567141 
L 642.108635 178.061801 
L 645.793325 174.068636 
L 649.478016 172.31037 
L 653.162707 167.52511 
L 664.216779 163.587927 
L 667.90147 167.910766 
L 671.586161 162.863734 
L 675.270852 162.340371 
L 678.955542 158.355764 
L 690.009615 153.265006 
L 693.694306 155.740926 
L 697.378996 161.163013 
L 701.063687 164.899057 
L 704.748378 165.879705 
L 715.80245 161.762186 
L 719.487141 157.110449 
L 723.171832 164.042864 
L 726.856522 163.899487 
L 730.541213 165.011681 
L 741.595286 168.830079 
L 745.279976 174.110172 
L 748.964667 176.314834 
L 752.649358 170.647207 
L 756.334049 173.051104 
L 767.388121 172.800624 
L 771.072812 170.142886 
L 774.757503 171.989423 
L 782.126884 160.061626 
L 793.180956 163.461708 
L 796.865647 163.498465 
L 800.550338 166.212155 
L 804.235029 169.149289 
L 807.919719 175.639652 
L 818.973792 174.192212 
L 822.658483 174.156443 
L 826.343173 180.432384 
L 830.027864 183.456015 
L 833.712555 178.214769 
L 844.766627 181.786803 
L 848.451318 186.706097 
L 852.136009 186.847105 
L 855.8207 180.657169 
L 859.50539 184.194083 
L 870.559463 181.933883 
L 874.244153 178.528269 
L 877.928844 182.12742 
L 881.613535 179.14708 
L 885.298226 180.936615 
L 896.352298 179.192632 
L 900.036989 177.432727 
L 903.72168 176.956654 
L 907.40637 182.665606 
L 911.091061 178.331366 
L 922.145133 180.768815 
L 925.829824 185.092388 
L 929.514515 191.525548 
L 933.199206 190.322566 
L 936.883897 187.992313 
L 947.937969 194.782117 
L 951.62266 194.620808 
L 955.30735 198.377184 
L 958.992041 196.466001 
L 962.676732 200.962946 
L 973.730804 198.460439 
L 977.415495 199.990495 
L 981.100186 194.398727 
L 984.784877 199.424113 
L 988.469567 201.581154 
L 999.52364 206.953698 
L 1003.208331 201.509928 
L 1006.893021 196.651626 
L 1010.577712 199.965209 
L 1014.262403 197.862078 
L 1025.316475 193.754511 
L 1029.001166 193.021339 
L 1032.685857 192.626522 
L 1036.370547 196.166294 
L 1040.055238 201.834338 
L 1051.109311 196.729667 
L 1054.794001 191.585389 
L 1058.478692 189.831054 
L 1062.163383 192.016193 
L 1065.848074 194.061004 
L 1076.902146 191.109543 
L 1084.271528 181.026947 
L 1087.956218 177.390047 
L 1087.956218 177.390047 
" style="fill:none;stroke:#8c564b;stroke-linecap:square;stroke-width:1.5;"/>
   </g>
   <g id="line2d_22">
    <path clip-path="url(#p90fb03e3c2)" d="M 100.459091 130.107988 
L 104.143782 130.247726 
L 107.828472 139.059885 
L 111.513163 129.742326 
L 122.567236 133.504356 
L 126.251926 136.357528 
L 129.936617 135.542646 
L 133.621308 128.866553 
L 137.305999 129.787292 
L 148.360071 132.688303 
L 152.044762 137.374904 
L 155.729453 137.459941 
L 159.414143 136.985151 
L 163.098834 134.697045 
L 174.152906 129.561596 
L 177.837597 122.788526 
L 181.522288 122.32548 
L 185.206979 122.079561 
L 188.891669 128.828152 
L 199.945742 125.238392 
L 203.630433 124.46213 
L 207.315123 123.377191 
L 210.999814 120.258106 
L 214.684505 125.024374 
L 225.738577 122.27324 
L 229.423268 119.453861 
L 233.107959 122.301884 
L 236.79265 129.627631 
L 240.47734 133.525055 
L 251.531413 131.5105 
L 255.216103 127.612168 
L 258.900794 126.947615 
L 262.585485 121.034652 
L 266.270176 113.714621 
L 277.324248 117.898667 
L 281.008939 111.092968 
L 284.69363 115.265369 
L 288.37832 112.724583 
L 292.063011 115.802491 
L 303.117083 115.8177 
L 306.801774 113.142704 
L 310.486465 113.893412 
L 314.171156 111.54648 
L 317.855847 112.582623 
L 328.909919 113.848481 
L 332.59461 127.431777 
L 336.2793 134.11185 
L 339.963991 131.833011 
L 343.648682 136.77358 
L 354.702754 128.690822 
L 358.387445 128.201075 
L 362.072136 126.831729 
L 365.756827 121.964164 
L 369.441517 121.895579 
L 380.49559 115.242824 
L 384.180281 120.586099 
L 387.864971 119.69527 
L 391.549662 118.39379 
L 395.234353 116.064746 
L 406.288425 114.511855 
L 409.973116 116.789169 
L 413.657807 113.4902 
L 417.342497 121.193559 
L 421.027188 130.973992 
L 432.081261 129.724227 
L 435.765951 122.869891 
L 439.450642 128.951002 
L 443.135333 128.347198 
L 446.820024 134.00512 
L 457.874096 135.621638 
L 461.558787 130.71468 
L 465.243478 129.365215 
L 468.928168 123.412102 
L 472.612859 132.57952 
L 483.666931 132.678232 
L 487.351622 133.565505 
L 491.036313 126.499117 
L 494.721004 122.500106 
L 498.405694 116.602029 
L 509.459767 123.428475 
L 513.144458 126.97974 
L 516.829148 128.494541 
L 520.513839 125.318033 
L 535.252602 126.778455 
L 538.937293 127.734911 
L 542.621984 127.029781 
L 546.306675 132.18676 
L 549.991365 134.233851 
L 561.045438 137.780789 
L 564.730128 138.023806 
L 568.414819 133.235595 
L 572.09951 129.681916 
L 575.784201 123.739041 
L 586.838273 125.275581 
L 590.522964 117.018398 
L 594.207655 116.615897 
L 597.892345 120.71718 
L 601.577036 117.897778 
L 612.631108 120.601562 
L 616.315799 122.374513 
L 620.00049 118.94774 
L 623.685181 114.977522 
L 627.369872 110.538266 
L 638.423944 108.538918 
L 642.108635 111.600535 
L 645.793325 121.711379 
L 649.478016 126.885447 
L 653.162707 134.082848 
L 664.216779 138.903955 
L 667.90147 133.132819 
L 671.586161 140.09616 
L 675.270852 141.204589 
L 678.955542 143.771681 
L 690.009615 150.642251 
L 693.694306 147.432121 
L 697.378996 147.087779 
L 701.063687 142.040311 
L 704.748378 138.009249 
L 715.80245 139.336957 
L 719.487141 140.716058 
L 723.171832 134.13183 
L 726.856522 129.909925 
L 730.541213 125.958124 
L 741.595286 123.114215 
L 745.279976 118.39582 
L 748.964667 118.246365 
L 752.649358 123.29842 
L 756.334049 120.312762 
L 767.388121 118.900452 
L 771.072812 123.541706 
L 774.757503 120.353435 
L 778.442193 126.456648 
L 782.126884 130.74339 
L 793.180956 128.315515 
L 796.865647 134.17893 
L 800.550338 134.944684 
L 804.235029 134.655571 
L 807.919719 126.788931 
L 818.973792 122.480782 
L 822.658483 124.866595 
L 826.343173 123.154258 
L 830.027864 119.884557 
L 833.712555 123.238527 
L 844.766627 122.418026 
L 848.451318 115.208263 
L 852.136009 109.575423 
L 855.8207 117.508029 
L 859.50539 108.916138 
L 870.559463 109.865338 
L 874.244153 113.046155 
L 877.928844 104.570053 
L 881.613535 107.369303 
L 885.298226 103.716243 
L 896.352298 107.060051 
L 900.036989 107.940184 
L 903.72168 115.19102 
L 907.40637 110.109839 
L 911.091061 116.732835 
L 922.145133 115.568836 
L 925.829824 108.842855 
L 929.514515 105.907026 
L 933.199206 108.315852 
L 936.883897 111.140144 
L 947.937969 105.904579 
L 951.62266 110.626105 
L 955.30735 110.897374 
L 958.992041 112.671557 
L 962.676732 108.337296 
L 973.730804 114.951076 
L 977.415495 112.850729 
L 981.100186 113.711265 
L 984.784877 109.633937 
L 988.469567 104.514804 
L 999.52364 95.567951 
L 1003.208331 101.828437 
L 1006.893021 109.901503 
L 1010.577712 107.408506 
L 1014.262403 113.999652 
L 1025.316475 115.593259 
L 1029.001166 114.726239 
L 1032.685857 115.055241 
L 1036.370547 107.088019 
L 1040.055238 99.522537 
L 1051.109311 108.231677 
L 1054.794001 119.917415 
L 1058.478692 119.976122 
L 1062.163383 118.465913 
L 1065.848074 115.94327 
L 1076.902146 118.409121 
L 1080.586837 124.33484 
L 1084.271528 125.077893 
L 1087.956218 128.701555 
L 1087.956218 128.701555 
" style="fill:none;stroke:#e377c2;stroke-linecap:square;stroke-width:1.5;"/>
   </g>
   <g id="line2d_23">
    <path clip-path="url(#p90fb03e3c2)" d="M 100.459091 118.615185 
L 104.143782 114.6863 
L 107.828472 108.336708 
L 111.513163 114.948675 
L 122.567236 110.988741 
L 126.251926 109.130463 
L 129.936617 115.037849 
L 133.621308 123.878225 
L 137.305999 125.19651 
L 148.360071 132.083438 
L 152.044762 126.737718 
L 155.729453 126.426514 
L 159.414143 129.973423 
L 163.098834 125.623249 
L 174.152906 129.762023 
L 177.837597 133.43255 
L 181.522288 133.396125 
L 185.206979 131.615365 
L 188.891669 132.455973 
L 199.945742 131.827487 
L 203.630433 135.860372 
L 207.315123 133.209411 
L 210.999814 141.973263 
L 214.684505 144.783103 
L 225.738577 144.022343 
L 229.423268 144.406135 
L 233.107959 137.793511 
L 236.79265 129.644457 
L 240.47734 122.22122 
L 251.531413 125.365397 
L 255.216103 130.301721 
L 258.900794 132.39887 
L 262.585485 127.353451 
L 266.270176 134.643449 
L 277.324248 129.13892 
L 281.008939 141.473639 
L 284.69363 135.879661 
L 288.37832 141.711243 
L 292.063011 140.030061 
L 303.117083 144.12506 
L 306.801774 150.416695 
L 310.486465 151.770882 
L 314.171156 154.715132 
L 317.855847 146.42347 
L 328.909919 146.458279 
L 332.59461 137.840874 
L 336.2793 136.818446 
L 339.963991 134.419226 
L 343.648682 132.332157 
L 354.702754 141.679941 
L 358.387445 146.522394 
L 362.072136 153.961906 
L 365.756827 156.034129 
L 369.441517 159.52119 
L 380.49559 165.271119 
L 384.180281 160.955112 
L 387.864971 162.95477 
L 391.549662 172.193405 
L 395.234353 169.547324 
L 406.288425 174.833647 
L 409.973116 172.299895 
L 413.657807 172.729264 
L 417.342497 168.75915 
L 421.027188 165.763776 
L 432.081261 170.850605 
L 435.765951 178.601817 
L 439.450642 170.125029 
L 443.135333 170.503593 
L 446.820024 164.782093 
L 457.874096 163.99948 
L 461.558787 170.304024 
L 465.243478 171.207626 
L 468.928168 173.005206 
L 472.612859 171.927463 
L 483.666931 166.472976 
L 487.351622 169.815498 
L 491.036313 178.617794 
L 494.721004 185.641211 
L 498.405694 187.411491 
L 509.459767 189.800626 
L 513.144458 193.498498 
L 516.829148 187.726828 
L 520.513839 187.068098 
L 524.19853 192.564173 
L 535.252602 190.23764 
L 538.937293 186.934288 
L 542.621984 186.757713 
L 546.306675 186.734296 
L 549.991365 191.968349 
L 561.045438 192.328649 
L 564.730128 195.483126 
L 568.414819 207.399464 
L 572.09951 210.813055 
L 575.784201 221.837065 
L 586.838273 218.605682 
L 590.522964 222.018508 
L 594.207655 223.211065 
L 597.892345 219.712673 
L 601.577036 221.78829 
L 612.631108 220.744662 
L 616.315799 218.819069 
L 620.00049 225.456822 
L 623.685181 228.599906 
L 627.369872 234.644324 
L 638.423944 239.898783 
L 642.108635 237.918562 
L 645.793325 234.434741 
L 649.478016 233.487794 
L 653.162707 232.266909 
L 664.216779 226.431657 
L 667.90147 233.247942 
L 671.586161 227.598544 
L 675.270852 227.479624 
L 678.955542 224.728411 
L 690.009615 222.000841 
L 693.694306 228.539812 
L 697.378996 228.290278 
L 701.063687 234.696057 
L 704.748378 237.363834 
L 715.80245 236.650667 
L 719.487141 233.884972 
L 723.171832 236.560112 
L 726.856522 232.392638 
L 730.541213 236.757242 
L 741.595286 244.933425 
L 745.279976 249.291312 
L 748.964667 251.076967 
L 752.649358 246.293759 
L 756.334049 250.916004 
L 767.388121 254.900592 
L 771.072812 248.213565 
L 774.757503 249.829936 
L 778.442193 246.147438 
L 782.126884 238.102434 
L 793.180956 236.451942 
L 796.865647 235.120176 
L 800.550338 241.784347 
L 804.235029 243.014353 
L 807.919719 253.944702 
L 818.973792 255.94678 
L 822.658483 259.653158 
L 826.343173 263.960683 
L 833.712555 260.352962 
L 844.766627 264.556275 
L 848.451318 271.034324 
L 852.136009 272.983487 
L 855.8207 265.803613 
L 859.50539 269.327168 
L 870.559463 266.455567 
L 874.244153 260.78168 
L 877.928844 271.058796 
L 881.613535 268.44736 
L 885.298226 274.455193 
L 896.352298 268.268519 
L 900.036989 270.694934 
L 903.72168 273.431266 
L 907.40637 278.220261 
L 911.091061 277.917459 
L 922.145133 275.413078 
L 925.829824 276.121658 
L 929.514515 284.585904 
L 933.199206 284.415552 
L 936.883897 283.970305 
L 947.937969 290.789519 
L 951.62266 288.481461 
L 955.30735 291.06003 
L 958.992041 285.755131 
L 962.676732 290.326255 
L 973.730804 288.103935 
L 977.415495 289.03342 
L 981.100186 282.76306 
L 984.784877 288.602869 
L 988.469567 293.70217 
L 999.52364 303.54 
L 1003.208331 300.816821 
L 1006.893021 292.948639 
L 1010.577712 298.133471 
L 1014.262403 291.750939 
L 1025.316475 287.477279 
L 1029.001166 283.015487 
L 1032.685857 281.014737 
L 1036.370547 287.641569 
L 1040.055238 294.604318 
L 1051.109311 285.519784 
L 1054.794001 280.759006 
L 1058.478692 277.430312 
L 1062.163383 280.535649 
L 1065.848074 281.789163 
L 1076.902146 280.57509 
L 1080.586837 274.904456 
L 1084.271528 272.994039 
L 1087.956218 270.366431 
L 1087.956218 270.366431 
" style="fill:none;stroke:#7f7f7f;stroke-linecap:square;stroke-width:1.5;"/>
   </g>
   <g id="line2d_24">
    <path clip-path="url(#p90fb03e3c2)" d="M 100.459091 130.066415 
L 104.143782 126.269276 
L 107.828472 127.882792 
L 111.513163 124.278074 
L 122.567236 123.857712 
L 126.251926 124.772652 
L 129.936617 129.790282 
L 133.621308 131.061251 
L 137.305999 133.318763 
L 148.360071 143.429598 
L 152.044762 142.398003 
L 155.729453 142.171441 
L 159.414143 145.217757 
L 163.098834 138.721493 
L 174.152906 137.409504 
L 177.837597 133.943994 
L 181.522288 133.444774 
L 185.206979 131.424555 
L 188.891669 139.103776 
L 199.945742 134.918278 
L 203.630433 138.126871 
L 207.315123 134.432871 
L 210.999814 139.651621 
L 214.684505 147.440394 
L 225.738577 143.959039 
L 229.423268 141.507541 
L 233.107959 137.469175 
L 236.79265 135.762228 
L 240.47734 131.815491 
L 251.531413 132.849506 
L 255.216103 133.597592 
L 258.900794 135.009095 
L 262.585485 124.463795 
L 266.270176 123.638755 
L 277.324248 121.977479 
L 281.008939 126.206521 
L 284.69363 124.439846 
L 288.37832 127.503518 
L 292.063011 128.821974 
L 303.117083 132.933145 
L 306.801774 136.291213 
L 310.486465 138.411576 
L 314.171156 138.905017 
L 317.855847 131.527673 
L 328.909919 132.829006 
L 332.59461 135.995617 
L 336.2793 141.546594 
L 339.963991 136.947649 
L 343.648682 139.64354 
L 354.702754 139.774362 
L 358.387445 144.090378 
L 362.072136 150.000995 
L 365.756827 147.057853 
L 369.441517 150.472654 
L 380.49559 149.002832 
L 384.180281 149.682825 
L 387.864971 150.764758 
L 391.549662 158.510941 
L 395.234353 153.624802 
L 406.288425 157.231897 
L 409.973116 156.88926 
L 413.657807 153.9989 
L 417.342497 157.262486 
L 421.027188 163.587095 
L 432.081261 167.326225 
L 435.765951 167.426071 
L 439.450642 164.275664 
L 443.135333 164.047006 
L 446.820024 163.500331 
L 457.874096 164.315175 
L 461.558787 165.245956 
L 465.243478 164.781897 
L 468.928168 160.471141 
L 472.612859 168.403676 
L 483.666931 163.040153 
L 487.351622 167.315812 
L 491.036313 168.113544 
L 494.721004 170.70882 
L 498.405694 166.429537 
L 509.459767 175.907451 
L 513.144458 183.364593 
L 516.829148 178.980979 
L 520.513839 175.1762 
L 524.19853 181.098185 
L 535.252602 179.803051 
L 538.937293 177.409675 
L 542.621984 176.529823 
L 546.306675 181.661505 
L 549.991365 189.112362 
L 561.045438 193.039312 
L 564.730128 196.448584 
L 568.414819 202.680048 
L 572.09951 202.35869 
L 575.784201 206.426892 
L 586.838273 204.658662 
L 590.522964 199.408256 
L 594.207655 200.191081 
L 597.892345 200.578422 
L 601.577036 199.747533 
L 612.631108 201.364914 
L 616.315799 201.16122 
L 620.00049 204.024003 
L 623.685181 203.011361 
L 627.369872 204.21085 
L 642.108635 208.294818 
L 645.793325 214.369201 
L 649.478016 218.520611 
L 653.162707 224.359585 
L 664.216779 222.92841 
L 667.90147 223.382012 
L 671.586161 224.103203 
L 675.270852 225.090723 
L 678.955542 224.80105 
L 690.009615 228.655045 
L 693.694306 231.662218 
L 697.378996 231.069623 
L 701.063687 231.940261 
L 704.748378 230.41772 
L 715.80245 231.018016 
L 719.487141 229.574912 
L 723.171832 225.410027 
L 726.856522 217.268636 
L 730.541213 217.422759 
L 741.595286 222.393359 
L 745.279976 221.726336 
L 748.964667 223.35849 
L 752.649358 223.265541 
L 756.334049 224.693178 
L 767.388121 227.179584 
L 771.072812 224.677373 
L 774.757503 223.029235 
L 778.442193 225.107932 
L 782.126884 220.849032 
L 793.180956 216.8289 
L 796.865647 221.239641 
L 800.550338 228.750443 
L 804.235029 229.685973 
L 807.919719 231.442765 
L 818.973792 229.009831 
L 822.658483 235.240797 
L 826.343173 237.723431 
L 830.027864 232.681259 
L 833.712555 234.198912 
L 844.766627 237.528763 
L 848.451318 236.104427 
L 852.136009 232.260941 
L 855.8207 232.160473 
L 859.50539 226.656721 
L 870.559463 224.694093 
L 874.244153 221.936169 
L 877.928844 222.425722 
L 881.613535 222.503985 
L 885.298226 224.524924 
L 896.352298 221.37933 
L 900.036989 224.718671 
L 903.72168 235.026988 
L 907.40637 234.372007 
L 911.091061 240.660708 
L 922.145133 237.034816 
L 925.829824 230.949194 
L 929.514515 236.090579 
L 936.883897 240.68268 
L 947.937969 241.727096 
L 951.62266 243.974555 
L 955.30735 246.835095 
L 958.992041 243.16721 
L 962.676732 243.107393 
L 973.730804 247.27167 
L 977.415495 246.071832 
L 981.100186 240.584425 
L 984.784877 241.986392 
L 988.469567 241.576647 
L 999.52364 241.151548 
L 1003.208331 244.427091 
L 1006.893021 243.684879 
L 1010.577712 246.179433 
L 1014.262403 245.759538 
L 1025.316475 242.979575 
L 1029.001166 237.706463 
L 1032.685857 236.02498 
L 1036.370547 233.905591 
L 1040.055238 232.521364 
L 1051.109311 230.973065 
L 1054.794001 237.024971 
L 1058.478692 233.752129 
L 1062.163383 235.276213 
L 1065.848074 233.960189 
L 1076.902146 235.166723 
L 1080.586837 234.919209 
L 1084.271528 233.730774 
L 1087.956218 234.583297 
L 1091.640909 234.583297 
L 1091.640909 234.583297 
" style="fill:none;stroke:#bcbd22;stroke-linecap:square;stroke-width:1.5;"/>
   </g>
   <g id="patch_3">
    <path d="M 50.9 316.76 
L 50.9 25.92 
" style="fill:none;stroke:#000000;stroke-linecap:square;stroke-linejoin:miter;stroke-width:0.8;"/>
   </g>
   <g id="patch_4">
    <path d="M 1141.2 316.76 
L 1141.2 25.92 
" style="fill:none;stroke:#000000;stroke-linecap:square;stroke-linejoin:miter;stroke-width:0.8;"/>
   </g>
   <g id="patch_5">
    <path d="M 50.9 316.76 
L 1141.2 316.76 
" style="fill:none;stroke:#000000;stroke-linecap:square;stroke-linejoin:miter;stroke-width:0.8;"/>
   </g>
   <g id="patch_6">
    <path d="M 50.9 25.92 
L 1141.2 25.92 
" style="fill:none;stroke:#000000;stroke-linecap:square;stroke-linejoin:miter;stroke-width:0.8;"/>
   </g>
   <g id="text_11">
    <!-- Cumulative Log Return: (2010-01-12 ~ 2010-10-08) -->
    <g transform="translate(440.172812 19.92)scale(0.12 -0.12)">
     <defs>
      <path d="M 64.40625 67.28125 
L 64.40625 56.890625 
Q 59.421875 61.53125 53.78125 63.8125 
Q 48.140625 66.109375 41.796875 66.109375 
Q 29.296875 66.109375 22.65625 58.46875 
Q 16.015625 50.828125 16.015625 36.375 
Q 16.015625 21.96875 22.65625 14.328125 
Q 29.296875 6.6875 41.796875 6.6875 
Q 48.140625 6.6875 53.78125 8.984375 
Q 59.421875 11.28125 64.40625 15.921875 
L 64.40625 5.609375 
Q 59.234375 2.09375 53.4375 0.328125 
Q 47.65625 -1.421875 41.21875 -1.421875 
Q 24.65625 -1.421875 15.125 8.703125 
Q 5.609375 18.84375 5.609375 36.375 
Q 5.609375 53.953125 15.125 64.078125 
Q 24.65625 74.21875 41.21875 74.21875 
Q 47.75 74.21875 53.53125 72.484375 
Q 59.328125 70.75 64.40625 67.28125 
z
" id="DejaVuSans-67"/>
      <path d="M 34.28125 27.484375 
Q 23.390625 27.484375 19.1875 25 
Q 14.984375 22.515625 14.984375 16.5 
Q 14.984375 11.71875 18.140625 8.90625 
Q 21.296875 6.109375 26.703125 6.109375 
Q 34.1875 6.109375 38.703125 11.40625 
Q 43.21875 16.703125 43.21875 25.484375 
L 43.21875 27.484375 
z
M 52.203125 31.203125 
L 52.203125 0 
L 43.21875 0 
L 43.21875 8.296875 
Q 40.140625 3.328125 35.546875 0.953125 
Q 30.953125 -1.421875 24.3125 -1.421875 
Q 15.921875 -1.421875 10.953125 3.296875 
Q 6 8.015625 6 15.921875 
Q 6 25.140625 12.171875 29.828125 
Q 18.359375 34.515625 30.609375 34.515625 
L 43.21875 34.515625 
L 43.21875 35.40625 
Q 43.21875 41.609375 39.140625 45 
Q 35.0625 48.390625 27.6875 48.390625 
Q 23 48.390625 18.546875 47.265625 
Q 14.109375 46.140625 10.015625 43.890625 
L 10.015625 52.203125 
Q 14.9375 54.109375 19.578125 55.046875 
Q 24.21875 56 28.609375 56 
Q 40.484375 56 46.34375 49.84375 
Q 52.203125 43.703125 52.203125 31.203125 
z
" id="DejaVuSans-97"/>
      <path d="M 9.421875 54.6875 
L 18.40625 54.6875 
L 18.40625 0 
L 9.421875 0 
z
M 9.421875 75.984375 
L 18.40625 75.984375 
L 18.40625 64.59375 
L 9.421875 64.59375 
z
" id="DejaVuSans-105"/>
      <path d="M 2.984375 54.6875 
L 12.5 54.6875 
L 29.59375 8.796875 
L 46.6875 54.6875 
L 56.203125 54.6875 
L 35.6875 0 
L 23.484375 0 
z
" id="DejaVuSans-118"/>
      <path d="M 9.8125 72.90625 
L 19.671875 72.90625 
L 19.671875 8.296875 
L 55.171875 8.296875 
L 55.171875 0 
L 9.8125 0 
z
" id="DejaVuSans-76"/>
      <path d="M 44.390625 34.1875 
Q 47.5625 33.109375 50.5625 29.59375 
Q 53.5625 26.078125 56.59375 19.921875 
L 66.609375 0 
L 56 0 
L 46.6875 18.703125 
Q 43.0625 26.03125 39.671875 28.421875 
Q 36.28125 30.8125 30.421875 30.8125 
L 19.671875 30.8125 
L 19.671875 0 
L 9.8125 0 
L 9.8125 72.90625 
L 32.078125 72.90625 
Q 44.578125 72.90625 50.734375 67.671875 
Q 56.890625 62.453125 56.890625 51.90625 
Q 56.890625 45.015625 53.6875 40.46875 
Q 50.484375 35.9375 44.390625 34.1875 
z
M 19.671875 64.796875 
L 19.671875 38.921875 
L 32.078125 38.921875 
Q 39.203125 38.921875 42.84375 42.21875 
Q 46.484375 45.515625 46.484375 51.90625 
Q 46.484375 58.296875 42.84375 61.546875 
Q 39.203125 64.796875 32.078125 64.796875 
z
" id="DejaVuSans-82"/>
      <path d="M 11.71875 12.40625 
L 22.015625 12.40625 
L 22.015625 0 
L 11.71875 0 
z
M 11.71875 51.703125 
L 22.015625 51.703125 
L 22.015625 39.3125 
L 11.71875 39.3125 
z
" id="DejaVuSans-58"/>
      <path d="M 31 75.875 
Q 24.46875 64.65625 21.28125 53.65625 
Q 18.109375 42.671875 18.109375 31.390625 
Q 18.109375 20.125 21.3125 9.0625 
Q 24.515625 -2 31 -13.1875 
L 23.1875 -13.1875 
Q 15.875 -1.703125 12.234375 9.375 
Q 8.59375 20.453125 8.59375 31.390625 
Q 8.59375 42.28125 12.203125 53.3125 
Q 15.828125 64.359375 23.1875 75.875 
z
" id="DejaVuSans-40"/>
      <path d="M 73.1875 39.890625 
L 73.1875 31.203125 
Q 68.0625 27.34375 63.6875 25.6875 
Q 59.328125 24.03125 54.59375 24.03125 
Q 49.21875 24.03125 42.09375 26.90625 
Q 41.546875 27.09375 41.3125 27.203125 
Q 40.96875 27.34375 40.234375 27.59375 
Q 32.671875 30.609375 28.078125 30.609375 
Q 23.78125 30.609375 19.578125 28.734375 
Q 15.375 26.859375 10.59375 22.796875 
L 10.59375 31.5 
Q 15.71875 35.359375 20.09375 37.03125 
Q 24.46875 38.71875 29.203125 38.71875 
Q 34.578125 38.71875 41.75 35.796875 
Q 42.234375 35.59375 42.484375 35.5 
Q 42.875 35.359375 43.5625 35.109375 
Q 51.125 32.078125 55.71875 32.078125 
Q 59.90625 32.078125 64.03125 33.9375 
Q 68.171875 35.796875 73.1875 39.890625 
z
" id="DejaVuSans-126"/>
      <path d="M 31.78125 34.625 
Q 24.75 34.625 20.71875 30.859375 
Q 16.703125 27.09375 16.703125 20.515625 
Q 16.703125 13.921875 20.71875 10.15625 
Q 24.75 6.390625 31.78125 6.390625 
Q 38.8125 6.390625 42.859375 10.171875 
Q 46.921875 13.96875 46.921875 20.515625 
Q 46.921875 27.09375 42.890625 30.859375 
Q 38.875 34.625 31.78125 34.625 
z
M 21.921875 38.8125 
Q 15.578125 40.375 12.03125 44.71875 
Q 8.5 49.078125 8.5 55.328125 
Q 8.5 64.0625 14.71875 69.140625 
Q 20.953125 74.21875 31.78125 74.21875 
Q 42.671875 74.21875 48.875 69.140625 
Q 55.078125 64.0625 55.078125 55.328125 
Q 55.078125 49.078125 51.53125 44.71875 
Q 48 40.375 41.703125 38.8125 
Q 48.828125 37.15625 52.796875 32.3125 
Q 56.78125 27.484375 56.78125 20.515625 
Q 56.78125 9.90625 50.3125 4.234375 
Q 43.84375 -1.421875 31.78125 -1.421875 
Q 19.734375 -1.421875 13.25 4.234375 
Q 6.78125 9.90625 6.78125 20.515625 
Q 6.78125 27.484375 10.78125 32.3125 
Q 14.796875 37.15625 21.921875 38.8125 
z
M 18.3125 54.390625 
Q 18.3125 48.734375 21.84375 45.5625 
Q 25.390625 42.390625 31.78125 42.390625 
Q 38.140625 42.390625 41.71875 45.5625 
Q 45.3125 48.734375 45.3125 54.390625 
Q 45.3125 60.0625 41.71875 63.234375 
Q 38.140625 66.40625 31.78125 66.40625 
Q 25.390625 66.40625 21.84375 63.234375 
Q 18.3125 60.0625 18.3125 54.390625 
z
" id="DejaVuSans-56"/>
      <path d="M 8.015625 75.875 
L 15.828125 75.875 
Q 23.140625 64.359375 26.78125 53.3125 
Q 30.421875 42.28125 30.421875 31.390625 
Q 30.421875 20.453125 26.78125 9.375 
Q 23.140625 -1.703125 15.828125 -13.1875 
L 8.015625 -13.1875 
Q 14.5 -2 17.703125 9.0625 
Q 20.90625 20.125 20.90625 31.390625 
Q 20.90625 42.671875 17.703125 53.65625 
Q 14.5 64.65625 8.015625 75.875 
z
" id="DejaVuSans-41"/>
     </defs>
     <use xlink:href="#DejaVuSans-67"/>
     <use x="69.824219" xlink:href="#DejaVuSans-117"/>
     <use x="133.203125" xlink:href="#DejaVuSans-109"/>
     <use x="230.615234" xlink:href="#DejaVuSans-117"/>
     <use x="293.994141" xlink:href="#DejaVuSans-108"/>
     <use x="321.777344" xlink:href="#DejaVuSans-97"/>
     <use x="383.056641" xlink:href="#DejaVuSans-116"/>
     <use x="422.265625" xlink:href="#DejaVuSans-105"/>
     <use x="450.048828" xlink:href="#DejaVuSans-118"/>
     <use x="509.228516" xlink:href="#DejaVuSans-101"/>
     <use x="570.751953" xlink:href="#DejaVuSans-32"/>
     <use x="602.539062" xlink:href="#DejaVuSans-76"/>
     <use x="656.501953" xlink:href="#DejaVuSans-111"/>
     <use x="717.683594" xlink:href="#DejaVuSans-103"/>
     <use x="781.160156" xlink:href="#DejaVuSans-32"/>
     <use x="812.947266" xlink:href="#DejaVuSans-82"/>
     <use x="877.929688" xlink:href="#DejaVuSans-101"/>
     <use x="939.453125" xlink:href="#DejaVuSans-116"/>
     <use x="978.662109" xlink:href="#DejaVuSans-117"/>
     <use x="1042.041016" xlink:href="#DejaVuSans-114"/>
     <use x="1081.404297" xlink:href="#DejaVuSans-110"/>
     <use x="1144.783203" xlink:href="#DejaVuSans-58"/>
     <use x="1178.474609" xlink:href="#DejaVuSans-32"/>
     <use x="1210.261719" xlink:href="#DejaVuSans-40"/>
     <use x="1249.275391" xlink:href="#DejaVuSans-50"/>
     <use x="1312.898438" xlink:href="#DejaVuSans-48"/>
     <use x="1376.521484" xlink:href="#DejaVuSans-49"/>
     <use x="1440.144531" xlink:href="#DejaVuSans-48"/>
     <use x="1503.767578" xlink:href="#DejaVuSans-45"/>
     <use x="1539.851562" xlink:href="#DejaVuSans-48"/>
     <use x="1603.474609" xlink:href="#DejaVuSans-49"/>
     <use x="1667.097656" xlink:href="#DejaVuSans-45"/>
     <use x="1703.181641" xlink:href="#DejaVuSans-49"/>
     <use x="1766.804688" xlink:href="#DejaVuSans-50"/>
     <use x="1830.427734" xlink:href="#DejaVuSans-32"/>
     <use x="1862.214844" xlink:href="#DejaVuSans-126"/>
     <use x="1946.003906" xlink:href="#DejaVuSans-32"/>
     <use x="1977.791016" xlink:href="#DejaVuSans-50"/>
     <use x="2041.414062" xlink:href="#DejaVuSans-48"/>
     <use x="2105.037109" xlink:href="#DejaVuSans-49"/>
     <use x="2168.660156" xlink:href="#DejaVuSans-48"/>
     <use x="2232.283203" xlink:href="#DejaVuSans-45"/>
     <use x="2268.367188" xlink:href="#DejaVuSans-49"/>
     <use x="2331.990234" xlink:href="#DejaVuSans-48"/>
     <use x="2395.613281" xlink:href="#DejaVuSans-45"/>
     <use x="2431.697266" xlink:href="#DejaVuSans-48"/>
     <use x="2495.320312" xlink:href="#DejaVuSans-56"/>
     <use x="2558.943359" xlink:href="#DejaVuSans-41"/>
    </g>
   </g>
   <g id="legend_1">
    <g id="patch_7">
     <path d="M 57.9 123.379375 
L 154.389062 123.379375 
Q 156.389062 123.379375 156.389062 121.379375 
L 156.389062 32.92 
Q 156.389062 30.92 154.389062 30.92 
L 57.9 30.92 
Q 55.9 30.92 55.9 32.92 
L 55.9 121.379375 
Q 55.9 123.379375 57.9 123.379375 
z
" style="fill:#ffffff;opacity:0.8;stroke:#cccccc;stroke-linejoin:miter;"/>
    </g>
    <g id="line2d_25">
     <path d="M 59.9 39.018437 
L 79.9 39.018437 
" style="fill:none;stroke:#9467bd;stroke-linecap:square;stroke-width:1.5;"/>
    </g>
    <g id="line2d_26"/>
    <g id="text_12">
     <!-- group_5 -->
     <g transform="translate(87.9 42.518437)scale(0.1 -0.1)">
      <defs>
       <path d="M 18.109375 8.203125 
L 18.109375 -20.796875 
L 9.078125 -20.796875 
L 9.078125 54.6875 
L 18.109375 54.6875 
L 18.109375 46.390625 
Q 20.953125 51.265625 25.265625 53.625 
Q 29.59375 56 35.59375 56 
Q 45.5625 56 51.78125 48.09375 
Q 58.015625 40.1875 58.015625 27.296875 
Q 58.015625 14.40625 51.78125 6.484375 
Q 45.5625 -1.421875 35.59375 -1.421875 
Q 29.59375 -1.421875 25.265625 0.953125 
Q 20.953125 3.328125 18.109375 8.203125 
z
M 48.6875 27.296875 
Q 48.6875 37.203125 44.609375 42.84375 
Q 40.53125 48.484375 33.40625 48.484375 
Q 26.265625 48.484375 22.1875 42.84375 
Q 18.109375 37.203125 18.109375 27.296875 
Q 18.109375 17.390625 22.1875 11.75 
Q 26.265625 6.109375 33.40625 6.109375 
Q 40.53125 6.109375 44.609375 11.75 
Q 48.6875 17.390625 48.6875 27.296875 
z
" id="DejaVuSans-112"/>
       <path d="M 50.984375 -16.609375 
L 50.984375 -23.578125 
L -0.984375 -23.578125 
L -0.984375 -16.609375 
z
" id="DejaVuSans-95"/>
      </defs>
      <use xlink:href="#DejaVuSans-103"/>
      <use x="63.476562" xlink:href="#DejaVuSans-114"/>
      <use x="102.339844" xlink:href="#DejaVuSans-111"/>
      <use x="163.521484" xlink:href="#DejaVuSans-117"/>
      <use x="226.900391" xlink:href="#DejaVuSans-112"/>
      <use x="290.376953" xlink:href="#DejaVuSans-95"/>
      <use x="340.376953" xlink:href="#DejaVuSans-53"/>
     </g>
    </g>
    <g id="line2d_27">
     <path d="M 59.9 53.974687 
L 79.9 53.974687 
" style="fill:none;stroke:#1f77b4;stroke-linecap:square;stroke-width:1.5;"/>
    </g>
    <g id="line2d_28"/>
    <g id="text_13">
     <!-- group_1 -->
     <g transform="translate(87.9 57.474687)scale(0.1 -0.1)">
      <use xlink:href="#DejaVuSans-103"/>
      <use x="63.476562" xlink:href="#DejaVuSans-114"/>
      <use x="102.339844" xlink:href="#DejaVuSans-111"/>
      <use x="163.521484" xlink:href="#DejaVuSans-117"/>
      <use x="226.900391" xlink:href="#DejaVuSans-112"/>
      <use x="290.376953" xlink:href="#DejaVuSans-95"/>
      <use x="340.376953" xlink:href="#DejaVuSans-49"/>
     </g>
    </g>
    <g id="line2d_29">
     <path d="M 59.9 68.930937 
L 79.9 68.930937 
" style="fill:none;stroke:#8c564b;stroke-linecap:square;stroke-width:1.5;"/>
    </g>
    <g id="line2d_30"/>
    <g id="text_14">
     <!-- benchmark -->
     <g transform="translate(87.9 72.430937)scale(0.1 -0.1)">
      <defs>
       <path d="M 48.6875 27.296875 
Q 48.6875 37.203125 44.609375 42.84375 
Q 40.53125 48.484375 33.40625 48.484375 
Q 26.265625 48.484375 22.1875 42.84375 
Q 18.109375 37.203125 18.109375 27.296875 
Q 18.109375 17.390625 22.1875 11.75 
Q 26.265625 6.109375 33.40625 6.109375 
Q 40.53125 6.109375 44.609375 11.75 
Q 48.6875 17.390625 48.6875 27.296875 
z
M 18.109375 46.390625 
Q 20.953125 51.265625 25.265625 53.625 
Q 29.59375 56 35.59375 56 
Q 45.5625 56 51.78125 48.09375 
Q 58.015625 40.1875 58.015625 27.296875 
Q 58.015625 14.40625 51.78125 6.484375 
Q 45.5625 -1.421875 35.59375 -1.421875 
Q 29.59375 -1.421875 25.265625 0.953125 
Q 20.953125 3.328125 18.109375 8.203125 
L 18.109375 0 
L 9.078125 0 
L 9.078125 75.984375 
L 18.109375 75.984375 
z
" id="DejaVuSans-98"/>
       <path d="M 54.890625 33.015625 
L 54.890625 0 
L 45.90625 0 
L 45.90625 32.71875 
Q 45.90625 40.484375 42.875 44.328125 
Q 39.84375 48.1875 33.796875 48.1875 
Q 26.515625 48.1875 22.3125 43.546875 
Q 18.109375 38.921875 18.109375 30.90625 
L 18.109375 0 
L 9.078125 0 
L 9.078125 75.984375 
L 18.109375 75.984375 
L 18.109375 46.1875 
Q 21.34375 51.125 25.703125 53.5625 
Q 30.078125 56 35.796875 56 
Q 45.21875 56 50.046875 50.171875 
Q 54.890625 44.34375 54.890625 33.015625 
z
" id="DejaVuSans-104"/>
       <path d="M 9.078125 75.984375 
L 18.109375 75.984375 
L 18.109375 31.109375 
L 44.921875 54.6875 
L 56.390625 54.6875 
L 27.390625 29.109375 
L 57.625 0 
L 45.90625 0 
L 18.109375 26.703125 
L 18.109375 0 
L 9.078125 0 
z
" id="DejaVuSans-107"/>
      </defs>
      <use xlink:href="#DejaVuSans-98"/>
      <use x="63.476562" xlink:href="#DejaVuSans-101"/>
      <use x="125" xlink:href="#DejaVuSans-110"/>
      <use x="188.378906" xlink:href="#DejaVuSans-99"/>
      <use x="243.359375" xlink:href="#DejaVuSans-104"/>
      <use x="306.738281" xlink:href="#DejaVuSans-109"/>
      <use x="404.150391" xlink:href="#DejaVuSans-97"/>
      <use x="465.429688" xlink:href="#DejaVuSans-114"/>
      <use x="506.542969" xlink:href="#DejaVuSans-107"/>
     </g>
    </g>
    <g id="line2d_31">
     <path d="M 59.9 83.609062 
L 79.9 83.609062 
" style="fill:none;stroke:#e377c2;stroke-linecap:square;stroke-width:1.5;"/>
    </g>
    <g id="line2d_32"/>
    <g id="text_15">
     <!-- long_excess -->
     <g transform="translate(87.9 87.109062)scale(0.1 -0.1)">
      <defs>
       <path d="M 54.890625 54.6875 
L 35.109375 28.078125 
L 55.90625 0 
L 45.3125 0 
L 29.390625 21.484375 
L 13.484375 0 
L 2.875 0 
L 24.125 28.609375 
L 4.6875 54.6875 
L 15.28125 54.6875 
L 29.78125 35.203125 
L 44.28125 54.6875 
z
" id="DejaVuSans-120"/>
      </defs>
      <use xlink:href="#DejaVuSans-108"/>
      <use x="27.783203" xlink:href="#DejaVuSans-111"/>
      <use x="88.964844" xlink:href="#DejaVuSans-110"/>
      <use x="152.34375" xlink:href="#DejaVuSans-103"/>
      <use x="215.820312" xlink:href="#DejaVuSans-95"/>
      <use x="265.820312" xlink:href="#DejaVuSans-101"/>
      <use x="325.59375" xlink:href="#DejaVuSans-120"/>
      <use x="383.023438" xlink:href="#DejaVuSans-99"/>
      <use x="438.003906" xlink:href="#DejaVuSans-101"/>
      <use x="499.527344" xlink:href="#DejaVuSans-115"/>
      <use x="551.626953" xlink:href="#DejaVuSans-115"/>
     </g>
    </g>
    <g id="line2d_33">
     <path d="M 59.9 98.565312 
L 79.9 98.565312 
" style="fill:none;stroke:#7f7f7f;stroke-linecap:square;stroke-width:1.5;"/>
    </g>
    <g id="line2d_34"/>
    <g id="text_16">
     <!-- short_excess -->
     <g transform="translate(87.9 102.065312)scale(0.1 -0.1)">
      <use xlink:href="#DejaVuSans-115"/>
      <use x="52.099609" xlink:href="#DejaVuSans-104"/>
      <use x="115.478516" xlink:href="#DejaVuSans-111"/>
      <use x="176.660156" xlink:href="#DejaVuSans-114"/>
      <use x="217.773438" xlink:href="#DejaVuSans-116"/>
      <use x="256.982422" xlink:href="#DejaVuSans-95"/>
      <use x="306.982422" xlink:href="#DejaVuSans-101"/>
      <use x="366.755859" xlink:href="#DejaVuSans-120"/>
      <use x="424.185547" xlink:href="#DejaVuSans-99"/>
      <use x="479.166016" xlink:href="#DejaVuSans-101"/>
      <use x="540.689453" xlink:href="#DejaVuSans-115"/>
      <use x="592.789062" xlink:href="#DejaVuSans-115"/>
     </g>
    </g>
    <g id="line2d_35">
     <path d="M 59.9 113.521562 
L 79.9 113.521562 
" style="fill:none;stroke:#bcbd22;stroke-linecap:square;stroke-width:1.5;"/>
    </g>
    <g id="line2d_36"/>
    <g id="text_17">
     <!-- long_short -->
     <g transform="translate(87.9 117.021562)scale(0.1 -0.1)">
      <use xlink:href="#DejaVuSans-108"/>
      <use x="27.783203" xlink:href="#DejaVuSans-111"/>
      <use x="88.964844" xlink:href="#DejaVuSans-110"/>
      <use x="152.34375" xlink:href="#DejaVuSans-103"/>
      <use x="215.820312" xlink:href="#DejaVuSans-95"/>
      <use x="265.820312" xlink:href="#DejaVuSans-115"/>
      <use x="317.919922" xlink:href="#DejaVuSans-104"/>
      <use x="381.298828" xlink:href="#DejaVuSans-111"/>
      <use x="442.480469" xlink:href="#DejaVuSans-114"/>
      <use x="483.59375" xlink:href="#DejaVuSans-116"/>
     </g>
    </g>
   </g>
  </g>
 </g>
 <defs>
  <clipPath id="p90fb03e3c2">
   <rect height="290.84" width="1090.3" x="50.9" y="25.92"/>
  </clipPath>
 </defs>
</svg>
