<?xml version="1.0" encoding="utf-8" standalone="no"?>
<!DOCTYPE svg PUBLIC "-//W3C//DTD SVG 1.1//EN"
  "http://www.w3.org/Graphics/SVG/1.1/DTD/svg11.dtd">
<!-- Created with matplotlib (https://matplotlib.org/) -->
<svg height="360pt" version="1.1" viewBox="0 0 1152 360" width="1152pt" xmlns="http://www.w3.org/2000/svg" xmlns:xlink="http://www.w3.org/1999/xlink">
 <metadata>
  <rdf:RDF xmlns:cc="http://creativecommons.org/ns#" xmlns:dc="http://purl.org/dc/elements/1.1/" xmlns:rdf="http://www.w3.org/1999/02/22-rdf-syntax-ns#">
   <cc:Work>
    <dc:type rdf:resource="http://purl.org/dc/dcmitype/StillImage"/>
    <dc:date>2023-10-11T16:36:02.759847</dc:date>
    <dc:format>image/svg+xml</dc:format>
    <dc:creator>
     <cc:Agent>
      <dc:title>Matplotlib v3.3.4, https://matplotlib.org/</dc:title>
     </cc:Agent>
    </dc:creator>
   </cc:Work>
  </rdf:RDF>
 </metadata>
 <defs>
  <style type="text/css">*{stroke-linecap:butt;stroke-linejoin:round;}</style>
 </defs>
 <g id="figure_1">
  <g id="patch_1">
   <path d="M 0 360 
L 1152 360 
L 1152 0 
L 0 0 
z
" style="fill:#ffffff;"/>
  </g>
  <g id="axes_1">
   <g id="patch_2">
    <path d="M 57.26 345.7 
L 1141.2 345.7 
L 1141.2 25.92 
L 57.26 25.92 
z
" style="fill:#ffffff;"/>
   </g>
   <g id="matplotlib.axis_1"/>
   <g id="matplotlib.axis_2">
    <g id="ytick_1">
     <g id="line2d_1">
      <path clip-path="url(#p59d507c324)" d="M 57.26 331.576342 
L 1141.2 331.576342 
" style="fill:none;stroke:#b0b0b0;stroke-linecap:square;stroke-width:0.8;"/>
     </g>
     <g id="line2d_2">
      <defs>
       <path d="M 0 0 
L -3.5 0 
" id="m99c272c3d3" style="stroke:#000000;stroke-width:0.8;"/>
      </defs>
      <g>
       <use style="stroke:#000000;stroke-width:0.8;" x="57.26" xlink:href="#m99c272c3d3" y="331.576342"/>
      </g>
     </g>
     <g id="text_1">
      <!-- -1.25 -->
      <g transform="translate(24.386562 335.375561)scale(0.1 -0.1)">
       <defs>
        <path d="M 4.890625 31.390625 
L 31.203125 31.390625 
L 31.203125 23.390625 
L 4.890625 23.390625 
z
" id="DejaVuSans-45"/>
        <path d="M 12.40625 8.296875 
L 28.515625 8.296875 
L 28.515625 63.921875 
L 10.984375 60.40625 
L 10.984375 69.390625 
L 28.421875 72.90625 
L 38.28125 72.90625 
L 38.28125 8.296875 
L 54.390625 8.296875 
L 54.390625 0 
L 12.40625 0 
z
" id="DejaVuSans-49"/>
        <path d="M 10.6875 12.40625 
L 21 12.40625 
L 21 0 
L 10.6875 0 
z
" id="DejaVuSans-46"/>
        <path d="M 19.1875 8.296875 
L 53.609375 8.296875 
L 53.609375 0 
L 7.328125 0 
L 7.328125 8.296875 
Q 12.9375 14.109375 22.625 23.890625 
Q 32.328125 33.6875 34.8125 36.53125 
Q 39.546875 41.84375 41.421875 45.53125 
Q 43.3125 49.21875 43.3125 52.78125 
Q 43.3125 58.59375 39.234375 62.25 
Q 35.15625 65.921875 28.609375 65.921875 
Q 23.96875 65.921875 18.8125 64.3125 
Q 13.671875 62.703125 7.8125 59.421875 
L 7.8125 69.390625 
Q 13.765625 71.78125 18.9375 73 
Q 24.125 74.21875 28.421875 74.21875 
Q 39.75 74.21875 46.484375 68.546875 
Q 53.21875 62.890625 53.21875 53.421875 
Q 53.21875 48.921875 51.53125 44.890625 
Q 49.859375 40.875 45.40625 35.40625 
Q 44.1875 33.984375 37.640625 27.21875 
Q 31.109375 20.453125 19.1875 8.296875 
z
" id="DejaVuSans-50"/>
        <path d="M 10.796875 72.90625 
L 49.515625 72.90625 
L 49.515625 64.59375 
L 19.828125 64.59375 
L 19.828125 46.734375 
Q 21.96875 47.46875 24.109375 47.828125 
Q 26.265625 48.1875 28.421875 48.1875 
Q 40.625 48.1875 47.75 41.5 
Q 54.890625 34.8125 54.890625 23.390625 
Q 54.890625 11.625 47.5625 5.09375 
Q 40.234375 -1.421875 26.90625 -1.421875 
Q 22.3125 -1.421875 17.546875 -0.640625 
Q 12.796875 0.140625 7.71875 1.703125 
L 7.71875 11.625 
Q 12.109375 9.234375 16.796875 8.0625 
Q 21.484375 6.890625 26.703125 6.890625 
Q 35.15625 6.890625 40.078125 11.328125 
Q 45.015625 15.765625 45.015625 23.390625 
Q 45.015625 31 40.078125 35.4375 
Q 35.15625 39.890625 26.703125 39.890625 
Q 22.75 39.890625 18.8125 39.015625 
Q 14.890625 38.140625 10.796875 36.28125 
z
" id="DejaVuSans-53"/>
       </defs>
       <use xlink:href="#DejaVuSans-45"/>
       <use x="36.083984" xlink:href="#DejaVuSans-49"/>
       <use x="99.707031" xlink:href="#DejaVuSans-46"/>
       <use x="131.494141" xlink:href="#DejaVuSans-50"/>
       <use x="195.117188" xlink:href="#DejaVuSans-53"/>
      </g>
     </g>
    </g>
    <g id="ytick_2">
     <g id="line2d_3">
      <path clip-path="url(#p59d507c324)" d="M 57.26 288.3693 
L 1141.2 288.3693 
" style="fill:none;stroke:#b0b0b0;stroke-linecap:square;stroke-width:0.8;"/>
     </g>
     <g id="line2d_4">
      <g>
       <use style="stroke:#000000;stroke-width:0.8;" x="57.26" xlink:href="#m99c272c3d3" y="288.3693"/>
      </g>
     </g>
     <g id="text_2">
      <!-- -1.00 -->
      <g transform="translate(24.386562 292.168519)scale(0.1 -0.1)">
       <defs>
        <path d="M 31.78125 66.40625 
Q 24.171875 66.40625 20.328125 58.90625 
Q 16.5 51.421875 16.5 36.375 
Q 16.5 21.390625 20.328125 13.890625 
Q 24.171875 6.390625 31.78125 6.390625 
Q 39.453125 6.390625 43.28125 13.890625 
Q 47.125 21.390625 47.125 36.375 
Q 47.125 51.421875 43.28125 58.90625 
Q 39.453125 66.40625 31.78125 66.40625 
z
M 31.78125 74.21875 
Q 44.046875 74.21875 50.515625 64.515625 
Q 56.984375 54.828125 56.984375 36.375 
Q 56.984375 17.96875 50.515625 8.265625 
Q 44.046875 -1.421875 31.78125 -1.421875 
Q 19.53125 -1.421875 13.0625 8.265625 
Q 6.59375 17.96875 6.59375 36.375 
Q 6.59375 54.828125 13.0625 64.515625 
Q 19.53125 74.21875 31.78125 74.21875 
z
" id="DejaVuSans-48"/>
       </defs>
       <use xlink:href="#DejaVuSans-45"/>
       <use x="36.083984" xlink:href="#DejaVuSans-49"/>
       <use x="99.707031" xlink:href="#DejaVuSans-46"/>
       <use x="131.494141" xlink:href="#DejaVuSans-48"/>
       <use x="195.117188" xlink:href="#DejaVuSans-48"/>
      </g>
     </g>
    </g>
    <g id="ytick_3">
     <g id="line2d_5">
      <path clip-path="url(#p59d507c324)" d="M 57.26 245.162258 
L 1141.2 245.162258 
" style="fill:none;stroke:#b0b0b0;stroke-linecap:square;stroke-width:0.8;"/>
     </g>
     <g id="line2d_6">
      <g>
       <use style="stroke:#000000;stroke-width:0.8;" x="57.26" xlink:href="#m99c272c3d3" y="245.162258"/>
      </g>
     </g>
     <g id="text_3">
      <!-- -0.75 -->
      <g transform="translate(24.386562 248.961477)scale(0.1 -0.1)">
       <defs>
        <path d="M 8.203125 72.90625 
L 55.078125 72.90625 
L 55.078125 68.703125 
L 28.609375 0 
L 18.3125 0 
L 43.21875 64.59375 
L 8.203125 64.59375 
z
" id="DejaVuSans-55"/>
       </defs>
       <use xlink:href="#DejaVuSans-45"/>
       <use x="36.083984" xlink:href="#DejaVuSans-48"/>
       <use x="99.707031" xlink:href="#DejaVuSans-46"/>
       <use x="131.494141" xlink:href="#DejaVuSans-55"/>
       <use x="195.117188" xlink:href="#DejaVuSans-53"/>
      </g>
     </g>
    </g>
    <g id="ytick_4">
     <g id="line2d_7">
      <path clip-path="url(#p59d507c324)" d="M 57.26 201.955216 
L 1141.2 201.955216 
" style="fill:none;stroke:#b0b0b0;stroke-linecap:square;stroke-width:0.8;"/>
     </g>
     <g id="line2d_8">
      <g>
       <use style="stroke:#000000;stroke-width:0.8;" x="57.26" xlink:href="#m99c272c3d3" y="201.955216"/>
      </g>
     </g>
     <g id="text_4">
      <!-- -0.50 -->
      <g transform="translate(24.386562 205.754435)scale(0.1 -0.1)">
       <use xlink:href="#DejaVuSans-45"/>
       <use x="36.083984" xlink:href="#DejaVuSans-48"/>
       <use x="99.707031" xlink:href="#DejaVuSans-46"/>
       <use x="131.494141" xlink:href="#DejaVuSans-53"/>
       <use x="195.117188" xlink:href="#DejaVuSans-48"/>
      </g>
     </g>
    </g>
    <g id="ytick_5">
     <g id="line2d_9">
      <path clip-path="url(#p59d507c324)" d="M 57.26 158.748174 
L 1141.2 158.748174 
" style="fill:none;stroke:#b0b0b0;stroke-linecap:square;stroke-width:0.8;"/>
     </g>
     <g id="line2d_10">
      <g>
       <use style="stroke:#000000;stroke-width:0.8;" x="57.26" xlink:href="#m99c272c3d3" y="158.748174"/>
      </g>
     </g>
     <g id="text_5">
      <!-- -0.25 -->
      <g transform="translate(24.386562 162.547393)scale(0.1 -0.1)">
       <use xlink:href="#DejaVuSans-45"/>
       <use x="36.083984" xlink:href="#DejaVuSans-48"/>
       <use x="99.707031" xlink:href="#DejaVuSans-46"/>
       <use x="131.494141" xlink:href="#DejaVuSans-50"/>
       <use x="195.117188" xlink:href="#DejaVuSans-53"/>
      </g>
     </g>
    </g>
    <g id="ytick_6">
     <g id="line2d_11">
      <path clip-path="url(#p59d507c324)" d="M 57.26 115.541132 
L 1141.2 115.541132 
" style="fill:none;stroke:#b0b0b0;stroke-linecap:square;stroke-width:0.8;"/>
     </g>
     <g id="line2d_12">
      <g>
       <use style="stroke:#000000;stroke-width:0.8;" x="57.26" xlink:href="#m99c272c3d3" y="115.541132"/>
      </g>
     </g>
     <g id="text_6">
      <!-- 0.00 -->
      <g transform="translate(27.994375 119.340351)scale(0.1 -0.1)">
       <use xlink:href="#DejaVuSans-48"/>
       <use x="63.623047" xlink:href="#DejaVuSans-46"/>
       <use x="95.410156" xlink:href="#DejaVuSans-48"/>
       <use x="159.033203" xlink:href="#DejaVuSans-48"/>
      </g>
     </g>
    </g>
    <g id="ytick_7">
     <g id="line2d_13">
      <path clip-path="url(#p59d507c324)" d="M 57.26 72.33409 
L 1141.2 72.33409 
" style="fill:none;stroke:#b0b0b0;stroke-linecap:square;stroke-width:0.8;"/>
     </g>
     <g id="line2d_14">
      <g>
       <use style="stroke:#000000;stroke-width:0.8;" x="57.26" xlink:href="#m99c272c3d3" y="72.33409"/>
      </g>
     </g>
     <g id="text_7">
      <!-- 0.25 -->
      <g transform="translate(27.994375 76.133309)scale(0.1 -0.1)">
       <use xlink:href="#DejaVuSans-48"/>
       <use x="63.623047" xlink:href="#DejaVuSans-46"/>
       <use x="95.410156" xlink:href="#DejaVuSans-50"/>
       <use x="159.033203" xlink:href="#DejaVuSans-53"/>
      </g>
     </g>
    </g>
    <g id="ytick_8">
     <g id="line2d_15">
      <path clip-path="url(#p59d507c324)" d="M 57.26 29.127048 
L 1141.2 29.127048 
" style="fill:none;stroke:#b0b0b0;stroke-linecap:square;stroke-width:0.8;"/>
     </g>
     <g id="line2d_16">
      <g>
       <use style="stroke:#000000;stroke-width:0.8;" x="57.26" xlink:href="#m99c272c3d3" y="29.127048"/>
      </g>
     </g>
     <g id="text_8">
      <!-- 0.50 -->
      <g transform="translate(27.994375 32.926267)scale(0.1 -0.1)">
       <use xlink:href="#DejaVuSans-48"/>
       <use x="63.623047" xlink:href="#DejaVuSans-46"/>
       <use x="95.410156" xlink:href="#DejaVuSans-53"/>
       <use x="159.033203" xlink:href="#DejaVuSans-48"/>
      </g>
     </g>
    </g>
    <g id="text_9">
     <!-- log return cumsum -->
     <g transform="translate(18.306875 233.327969)rotate(-90)scale(0.1 -0.1)">
      <defs>
       <path d="M 9.421875 75.984375 
L 18.40625 75.984375 
L 18.40625 0 
L 9.421875 0 
z
" id="DejaVuSans-108"/>
       <path d="M 30.609375 48.390625 
Q 23.390625 48.390625 19.1875 42.75 
Q 14.984375 37.109375 14.984375 27.296875 
Q 14.984375 17.484375 19.15625 11.84375 
Q 23.34375 6.203125 30.609375 6.203125 
Q 37.796875 6.203125 41.984375 11.859375 
Q 46.1875 17.53125 46.1875 27.296875 
Q 46.1875 37.015625 41.984375 42.703125 
Q 37.796875 48.390625 30.609375 48.390625 
z
M 30.609375 56 
Q 42.328125 56 49.015625 48.375 
Q 55.71875 40.765625 55.71875 27.296875 
Q 55.71875 13.875 49.015625 6.21875 
Q 42.328125 -1.421875 30.609375 -1.421875 
Q 18.84375 -1.421875 12.171875 6.21875 
Q 5.515625 13.875 5.515625 27.296875 
Q 5.515625 40.765625 12.171875 48.375 
Q 18.84375 56 30.609375 56 
z
" id="DejaVuSans-111"/>
       <path d="M 45.40625 27.984375 
Q 45.40625 37.75 41.375 43.109375 
Q 37.359375 48.484375 30.078125 48.484375 
Q 22.859375 48.484375 18.828125 43.109375 
Q 14.796875 37.75 14.796875 27.984375 
Q 14.796875 18.265625 18.828125 12.890625 
Q 22.859375 7.515625 30.078125 7.515625 
Q 37.359375 7.515625 41.375 12.890625 
Q 45.40625 18.265625 45.40625 27.984375 
z
M 54.390625 6.78125 
Q 54.390625 -7.171875 48.1875 -13.984375 
Q 42 -20.796875 29.203125 -20.796875 
Q 24.46875 -20.796875 20.265625 -20.09375 
Q 16.0625 -19.390625 12.109375 -17.921875 
L 12.109375 -9.1875 
Q 16.0625 -11.328125 19.921875 -12.34375 
Q 23.78125 -13.375 27.78125 -13.375 
Q 36.625 -13.375 41.015625 -8.765625 
Q 45.40625 -4.15625 45.40625 5.171875 
L 45.40625 9.625 
Q 42.625 4.78125 38.28125 2.390625 
Q 33.9375 0 27.875 0 
Q 17.828125 0 11.671875 7.65625 
Q 5.515625 15.328125 5.515625 27.984375 
Q 5.515625 40.671875 11.671875 48.328125 
Q 17.828125 56 27.875 56 
Q 33.9375 56 38.28125 53.609375 
Q 42.625 51.21875 45.40625 46.390625 
L 45.40625 54.6875 
L 54.390625 54.6875 
z
" id="DejaVuSans-103"/>
       <path id="DejaVuSans-32"/>
       <path d="M 41.109375 46.296875 
Q 39.59375 47.171875 37.8125 47.578125 
Q 36.03125 48 33.890625 48 
Q 26.265625 48 22.1875 43.046875 
Q 18.109375 38.09375 18.109375 28.8125 
L 18.109375 0 
L 9.078125 0 
L 9.078125 54.6875 
L 18.109375 54.6875 
L 18.109375 46.1875 
Q 20.953125 51.171875 25.484375 53.578125 
Q 30.03125 56 36.53125 56 
Q 37.453125 56 38.578125 55.875 
Q 39.703125 55.765625 41.0625 55.515625 
z
" id="DejaVuSans-114"/>
       <path d="M 56.203125 29.59375 
L 56.203125 25.203125 
L 14.890625 25.203125 
Q 15.484375 15.921875 20.484375 11.0625 
Q 25.484375 6.203125 34.421875 6.203125 
Q 39.59375 6.203125 44.453125 7.46875 
Q 49.3125 8.734375 54.109375 11.28125 
L 54.109375 2.78125 
Q 49.265625 0.734375 44.1875 -0.34375 
Q 39.109375 -1.421875 33.890625 -1.421875 
Q 20.796875 -1.421875 13.15625 6.1875 
Q 5.515625 13.8125 5.515625 26.8125 
Q 5.515625 40.234375 12.765625 48.109375 
Q 20.015625 56 32.328125 56 
Q 43.359375 56 49.78125 48.890625 
Q 56.203125 41.796875 56.203125 29.59375 
z
M 47.21875 32.234375 
Q 47.125 39.59375 43.09375 43.984375 
Q 39.0625 48.390625 32.421875 48.390625 
Q 24.90625 48.390625 20.390625 44.140625 
Q 15.875 39.890625 15.1875 32.171875 
z
" id="DejaVuSans-101"/>
       <path d="M 18.3125 70.21875 
L 18.3125 54.6875 
L 36.8125 54.6875 
L 36.8125 47.703125 
L 18.3125 47.703125 
L 18.3125 18.015625 
Q 18.3125 11.328125 20.140625 9.421875 
Q 21.96875 7.515625 27.59375 7.515625 
L 36.8125 7.515625 
L 36.8125 0 
L 27.59375 0 
Q 17.1875 0 13.234375 3.875 
Q 9.28125 7.765625 9.28125 18.015625 
L 9.28125 47.703125 
L 2.6875 47.703125 
L 2.6875 54.6875 
L 9.28125 54.6875 
L 9.28125 70.21875 
z
" id="DejaVuSans-116"/>
       <path d="M 8.5 21.578125 
L 8.5 54.6875 
L 17.484375 54.6875 
L 17.484375 21.921875 
Q 17.484375 14.15625 20.5 10.265625 
Q 23.53125 6.390625 29.59375 6.390625 
Q 36.859375 6.390625 41.078125 11.03125 
Q 45.3125 15.671875 45.3125 23.6875 
L 45.3125 54.6875 
L 54.296875 54.6875 
L 54.296875 0 
L 45.3125 0 
L 45.3125 8.40625 
Q 42.046875 3.421875 37.71875 1 
Q 33.40625 -1.421875 27.6875 -1.421875 
Q 18.265625 -1.421875 13.375 4.4375 
Q 8.5 10.296875 8.5 21.578125 
z
M 31.109375 56 
z
" id="DejaVuSans-117"/>
       <path d="M 54.890625 33.015625 
L 54.890625 0 
L 45.90625 0 
L 45.90625 32.71875 
Q 45.90625 40.484375 42.875 44.328125 
Q 39.84375 48.1875 33.796875 48.1875 
Q 26.515625 48.1875 22.3125 43.546875 
Q 18.109375 38.921875 18.109375 30.90625 
L 18.109375 0 
L 9.078125 0 
L 9.078125 54.6875 
L 18.109375 54.6875 
L 18.109375 46.1875 
Q 21.34375 51.125 25.703125 53.5625 
Q 30.078125 56 35.796875 56 
Q 45.21875 56 50.046875 50.171875 
Q 54.890625 44.34375 54.890625 33.015625 
z
" id="DejaVuSans-110"/>
       <path d="M 48.78125 52.59375 
L 48.78125 44.1875 
Q 44.96875 46.296875 41.140625 47.34375 
Q 37.3125 48.390625 33.40625 48.390625 
Q 24.65625 48.390625 19.8125 42.84375 
Q 14.984375 37.3125 14.984375 27.296875 
Q 14.984375 17.28125 19.8125 11.734375 
Q 24.65625 6.203125 33.40625 6.203125 
Q 37.3125 6.203125 41.140625 7.25 
Q 44.96875 8.296875 48.78125 10.40625 
L 48.78125 2.09375 
Q 45.015625 0.34375 40.984375 -0.53125 
Q 36.96875 -1.421875 32.421875 -1.421875 
Q 20.0625 -1.421875 12.78125 6.34375 
Q 5.515625 14.109375 5.515625 27.296875 
Q 5.515625 40.671875 12.859375 48.328125 
Q 20.21875 56 33.015625 56 
Q 37.15625 56 41.109375 55.140625 
Q 45.0625 54.296875 48.78125 52.59375 
z
" id="DejaVuSans-99"/>
       <path d="M 52 44.1875 
Q 55.375 50.25 60.0625 53.125 
Q 64.75 56 71.09375 56 
Q 79.640625 56 84.28125 50.015625 
Q 88.921875 44.046875 88.921875 33.015625 
L 88.921875 0 
L 79.890625 0 
L 79.890625 32.71875 
Q 79.890625 40.578125 77.09375 44.375 
Q 74.3125 48.1875 68.609375 48.1875 
Q 61.625 48.1875 57.5625 43.546875 
Q 53.515625 38.921875 53.515625 30.90625 
L 53.515625 0 
L 44.484375 0 
L 44.484375 32.71875 
Q 44.484375 40.625 41.703125 44.40625 
Q 38.921875 48.1875 33.109375 48.1875 
Q 26.21875 48.1875 22.15625 43.53125 
Q 18.109375 38.875 18.109375 30.90625 
L 18.109375 0 
L 9.078125 0 
L 9.078125 54.6875 
L 18.109375 54.6875 
L 18.109375 46.1875 
Q 21.1875 51.21875 25.484375 53.609375 
Q 29.78125 56 35.6875 56 
Q 41.65625 56 45.828125 52.96875 
Q 50 49.953125 52 44.1875 
z
" id="DejaVuSans-109"/>
       <path d="M 44.28125 53.078125 
L 44.28125 44.578125 
Q 40.484375 46.53125 36.375 47.5 
Q 32.28125 48.484375 27.875 48.484375 
Q 21.1875 48.484375 17.84375 46.4375 
Q 14.5 44.390625 14.5 40.28125 
Q 14.5 37.15625 16.890625 35.375 
Q 19.28125 33.59375 26.515625 31.984375 
L 29.59375 31.296875 
Q 39.15625 29.25 43.1875 25.515625 
Q 47.21875 21.78125 47.21875 15.09375 
Q 47.21875 7.46875 41.1875 3.015625 
Q 35.15625 -1.421875 24.609375 -1.421875 
Q 20.21875 -1.421875 15.453125 -0.5625 
Q 10.6875 0.296875 5.421875 2 
L 5.421875 11.28125 
Q 10.40625 8.6875 15.234375 7.390625 
Q 20.0625 6.109375 24.8125 6.109375 
Q 31.15625 6.109375 34.5625 8.28125 
Q 37.984375 10.453125 37.984375 14.40625 
Q 37.984375 18.0625 35.515625 20.015625 
Q 33.0625 21.96875 24.703125 23.78125 
L 21.578125 24.515625 
Q 13.234375 26.265625 9.515625 29.90625 
Q 5.8125 33.546875 5.8125 39.890625 
Q 5.8125 47.609375 11.28125 51.796875 
Q 16.75 56 26.8125 56 
Q 31.78125 56 36.171875 55.265625 
Q 40.578125 54.546875 44.28125 53.078125 
z
" id="DejaVuSans-115"/>
      </defs>
      <use xlink:href="#DejaVuSans-108"/>
      <use x="27.783203" xlink:href="#DejaVuSans-111"/>
      <use x="88.964844" xlink:href="#DejaVuSans-103"/>
      <use x="152.441406" xlink:href="#DejaVuSans-32"/>
      <use x="184.228516" xlink:href="#DejaVuSans-114"/>
      <use x="223.091797" xlink:href="#DejaVuSans-101"/>
      <use x="284.615234" xlink:href="#DejaVuSans-116"/>
      <use x="323.824219" xlink:href="#DejaVuSans-117"/>
      <use x="387.203125" xlink:href="#DejaVuSans-114"/>
      <use x="426.566406" xlink:href="#DejaVuSans-110"/>
      <use x="489.945312" xlink:href="#DejaVuSans-32"/>
      <use x="521.732422" xlink:href="#DejaVuSans-99"/>
      <use x="576.712891" xlink:href="#DejaVuSans-117"/>
      <use x="640.091797" xlink:href="#DejaVuSans-109"/>
      <use x="737.503906" xlink:href="#DejaVuSans-115"/>
      <use x="789.603516" xlink:href="#DejaVuSans-117"/>
      <use x="852.982422" xlink:href="#DejaVuSans-109"/>
     </g>
    </g>
   </g>
   <g id="line2d_17">
    <path clip-path="url(#p59d507c324)" d="M 106.53 114.61742 
L 110.48743 108.385587 
L 114.444859 110.775704 
L 118.402289 111.523245 
L 122.359719 112.489828 
L 134.232008 114.271785 
L 138.189438 107.042328 
L 142.146867 104.303502 
L 146.104297 108.522836 
L 150.061727 103.603274 
L 161.934016 99.258228 
L 165.891446 98.519683 
L 169.848876 97.929617 
L 173.806305 98.66652 
L 177.763735 99.842804 
L 189.636024 99.545991 
L 193.593454 98.985613 
L 197.550884 101.19936 
L 201.508313 103.77986 
L 205.465743 99.765644 
L 217.338032 97.84054 
L 221.295462 103.704963 
L 225.252892 102.055307 
L 229.210321 105.170568 
L 233.167751 111.403214 
L 248.99747 107.153631 
L 252.9549 103.194334 
L 256.912329 104.741866 
L 260.869759 104.393753 
L 272.742048 100.542344 
L 276.699478 97.232761 
L 280.656908 99.328541 
L 284.614337 104.25078 
L 288.571767 105.557551 
L 300.444056 102.810015 
L 304.401486 106.166199 
L 308.358916 107.939755 
L 312.316345 102.240864 
L 316.273775 105.825408 
L 328.146064 107.153089 
L 332.103494 109.179073 
L 336.060924 113.789441 
L 340.018353 114.824283 
L 343.975783 115.604232 
L 355.848072 115.831727 
L 359.805502 111.027333 
L 363.762932 111.641073 
L 367.720361 110.410947 
L 371.677791 107.818932 
L 383.55008 110.540213 
L 387.50751 109.188038 
L 391.46494 105.737575 
L 395.422369 110.595626 
L 399.379799 109.90681 
L 411.252088 106.52951 
L 415.209518 107.366831 
L 419.166948 111.998606 
L 423.124378 108.326074 
L 427.081807 111.529696 
L 438.954096 117.439676 
L 442.911526 116.61925 
L 446.868956 112.980812 
L 450.826386 109.518992 
L 454.783815 112.77329 
L 466.656104 113.483966 
L 474.570964 121.358644 
L 478.528394 123.199463 
L 482.485823 133.532601 
L 498.315542 148.215416 
L 502.272972 159.11224 
L 506.230402 156.005306 
L 510.187831 145.681237 
L 522.06012 139.812425 
L 526.01755 146.05792 
L 529.97498 150.891303 
L 533.93241 148.159274 
L 537.889839 148.473632 
L 549.762129 147.350439 
L 553.719558 147.218022 
L 557.676988 147.584599 
L 561.634418 138.736009 
L 565.591847 141.303179 
L 581.421566 147.811104 
L 585.378996 149.696835 
L 589.336426 145.141491 
L 593.293855 145.474255 
L 605.166145 150.657267 
L 609.123574 147.720595 
L 613.081004 149.983322 
L 617.038434 148.840493 
L 620.995863 150.971299 
L 632.868153 153.551843 
L 636.825582 155.760679 
L 640.783012 154.813439 
L 644.740442 151.624779 
L 648.697871 147.084344 
L 660.570161 145.765515 
L 664.52759 143.595138 
L 668.48502 142.236022 
L 672.44245 144.817566 
L 676.39988 148.20052 
L 688.272169 152.255157 
L 692.229598 157.722989 
L 696.187028 156.07967 
L 700.144458 155.661796 
L 704.101888 155.447102 
L 715.974177 162.683114 
L 719.931606 167.494267 
L 723.889036 167.146395 
L 727.846466 165.226752 
L 731.803896 166.638521 
L 743.676185 170.129045 
L 747.633614 164.340297 
L 751.591044 159.682093 
L 755.548474 165.189685 
L 759.505904 167.829387 
L 771.378193 170.759884 
L 775.335622 182.018135 
L 783.250482 193.949236 
L 787.207912 187.573576 
L 799.080201 186.199697 
L 803.037631 192.80206 
L 806.99506 191.146735 
L 810.95249 182.700447 
L 826.782209 196.708433 
L 830.739639 198.692606 
L 834.697068 197.850511 
L 838.654498 199.609729 
L 842.611928 197.665193 
L 854.484217 194.955139 
L 858.441647 193.529647 
L 862.399076 188.278071 
L 866.356506 180.999874 
L 870.313936 182.672954 
L 882.186225 177.595877 
L 886.143655 187.929927 
L 890.101084 190.53877 
L 894.058514 193.682747 
L 898.015944 205.648399 
L 909.888233 199.162051 
L 913.845663 193.32662 
L 917.803092 186.996068 
L 921.760522 183.007502 
L 925.717952 177.472475 
L 937.590241 182.935686 
L 941.547671 183.063567 
L 945.5051 188.219358 
L 949.46253 181.957921 
L 953.41996 184.384886 
L 965.292249 182.6816 
L 969.249679 178.280897 
L 973.207108 180.566239 
L 977.164538 180.326567 
L 981.121968 182.589707 
L 992.994257 179.268533 
L 996.951687 179.84359 
L 1000.909116 178.560932 
L 1004.866546 180.185829 
L 1008.823976 183.143048 
L 1020.696265 185.171946 
L 1024.653695 183.654856 
L 1028.611124 187.203274 
L 1032.568554 182.68538 
L 1036.525984 186.628065 
L 1048.398273 187.797154 
L 1052.355703 192.954061 
L 1056.313133 186.748689 
L 1060.270562 191.979223 
L 1064.227992 187.038562 
L 1076.100281 188.642201 
L 1080.057711 192.856637 
L 1084.015141 198.482391 
L 1091.93 198.37933 
L 1091.93 198.37933 
" style="fill:none;stroke:#1f77b4;stroke-linecap:square;stroke-width:1.5;"/>
   </g>
   <g id="line2d_18">
    <path clip-path="url(#p59d507c324)" d="M 106.53 128.474319 
L 110.48743 135.81258 
L 114.444859 140.494722 
L 118.402289 142.0199 
L 122.359719 132.433467 
L 134.232008 143.139276 
L 138.189438 142.647953 
L 142.146867 139.482747 
L 146.104297 155.917169 
L 150.061727 152.239228 
L 161.934016 164.020339 
L 165.891446 179.749101 
L 169.848876 164.890513 
L 173.806305 149.501573 
L 177.763735 139.157451 
L 189.636024 146.046598 
L 193.593454 160.544773 
L 197.550884 154.291159 
L 201.508313 156.372306 
L 205.465743 169.956968 
L 217.338032 170.123762 
L 221.295462 187.017313 
L 225.252892 173.418233 
L 229.210321 181.963995 
L 233.167751 176.435678 
L 245.04004 183.069715 
L 248.99747 182.377439 
L 252.9549 180.770364 
L 256.912329 192.022007 
L 260.869759 176.508127 
L 272.742048 167.250423 
L 276.699478 152.689816 
L 280.656908 139.554411 
L 284.614337 136.203139 
L 288.571767 122.203428 
L 300.444056 137.047013 
L 304.401486 147.888606 
L 308.358916 164.369531 
L 312.316345 170.515079 
L 316.273775 174.406502 
L 328.146064 182.496387 
L 332.103494 171.491306 
L 336.060924 176.515029 
L 340.018353 184.258056 
L 343.975783 182.788505 
L 355.848072 195.668417 
L 359.805502 185.526281 
L 363.762932 200.895793 
L 367.720361 184.836057 
L 371.677791 175.673 
L 383.55008 186.414046 
L 387.50751 204.411357 
L 391.46494 193.837399 
L 395.422369 186.831193 
L 399.379799 179.091341 
L 411.252088 169.960228 
L 415.209518 185.348858 
L 419.166948 190.311656 
L 423.124378 204.127151 
L 427.081807 192.011051 
L 438.954096 187.800873 
L 442.911526 193.747119 
L 446.868956 209.532423 
L 450.826386 216.192637 
L 454.783815 222.343451 
L 466.656104 214.583801 
L 470.613534 209.89327 
L 474.570964 197.001978 
L 478.528394 197.965065 
L 482.485823 211.641138 
L 494.358112 204.423047 
L 498.315542 195.636056 
L 502.272972 193.530845 
L 506.230402 184.409673 
L 510.187831 184.624265 
L 522.06012 183.840272 
L 526.01755 186.363187 
L 529.97498 203.598946 
L 533.93241 217.713399 
L 537.889839 234.719782 
L 549.762129 230.067842 
L 553.719558 236.606905 
L 557.676988 236.310907 
L 561.634418 222.767874 
L 565.591847 231.658554 
L 577.464137 234.784322 
L 581.421566 226.169362 
L 585.378996 235.807441 
L 589.336426 251.085199 
L 593.293855 258.509792 
L 605.166145 270.635489 
L 609.123574 256.386577 
L 613.081004 246.051473 
L 617.038434 241.50073 
L 620.995863 229.115527 
L 632.868153 218.925316 
L 636.825582 230.113681 
L 640.783012 217.05096 
L 644.740442 215.696393 
L 648.697871 205.383438 
L 660.570161 192.207546 
L 664.52759 198.615719 
L 668.48502 212.649157 
L 672.44245 222.31878 
L 676.39988 224.856892 
L 688.272169 214.199934 
L 692.229598 202.160317 
L 696.187028 220.102782 
L 700.144458 219.731694 
L 704.101888 222.610275 
L 715.974177 232.493046 
L 719.931606 246.158975 
L 723.889036 251.865078 
L 727.846466 237.196135 
L 731.803896 243.417897 
L 743.676185 242.769605 
L 747.633614 235.890851 
L 751.591044 240.670055 
L 759.505904 209.798547 
L 771.378193 218.598637 
L 775.335622 218.69377 
L 779.293052 225.717339 
L 783.250482 233.319224 
L 787.207912 250.117574 
L 799.080201 246.371311 
L 803.037631 246.278734 
L 806.99506 262.522116 
L 810.95249 270.347874 
L 814.90992 256.782489 
L 826.782209 266.027623 
L 830.739639 278.759731 
L 834.697068 279.124688 
L 838.654498 263.103903 
L 842.611928 272.25814 
L 854.484217 266.408294 
L 858.441647 257.593888 
L 862.399076 266.909207 
L 866.356506 259.195494 
L 870.313936 263.827166 
L 882.186225 259.313391 
L 886.143655 254.758408 
L 890.101084 253.526236 
L 894.058514 268.302139 
L 898.015944 257.084265 
L 909.888233 263.392866 
L 913.845663 274.583132 
L 917.803092 291.233428 
L 921.760522 288.119871 
L 925.717952 282.088715 
L 937.590241 299.662075 
L 941.547671 299.244576 
L 945.5051 308.966823 
L 949.46253 304.020301 
L 953.41996 315.65929 
L 965.292249 309.182304 
L 969.249679 313.142393 
L 973.207108 298.669786 
L 977.164538 311.676483 
L 981.121968 317.259333 
L 992.994257 331.164545 
L 996.951687 317.074987 
L 1000.909116 304.500736 
L 1004.866546 313.076948 
L 1008.823976 307.633626 
L 1020.696265 297.002427 
L 1024.653695 295.104832 
L 1028.611124 294.082968 
L 1032.568554 303.244602 
L 1036.525984 317.914625 
L 1048.398273 304.702723 
L 1052.355703 291.388307 
L 1056.313133 286.847742 
L 1060.270562 292.503314 
L 1064.227992 297.795692 
L 1076.100281 290.156726 
L 1084.015141 264.060963 
L 1087.97257 254.647943 
L 1087.97257 254.647943 
" style="fill:none;stroke:#ff7f0e;stroke-linecap:square;stroke-width:1.5;"/>
   </g>
   <g id="line2d_19">
    <path clip-path="url(#p59d507c324)" d="M 106.53 102.647006 
L 110.48743 89.62031 
L 114.444859 87.389152 
L 118.402289 86.618332 
L 122.359719 97.793114 
L 134.232008 89.392463 
L 138.189438 82.635518 
L 142.146867 83.069788 
L 146.104297 71.927804 
L 150.061727 70.659576 
L 161.934016 55.550975 
L 165.891446 40.455455 
L 169.848876 56.064514 
L 173.806305 73.771602 
L 177.763735 86.028365 
L 189.636024 79.117672 
L 193.593454 65.223441 
L 197.550884 74.010861 
L 201.508313 74.504228 
L 205.465743 58.17485 
L 217.338032 56.084958 
L 221.295462 46.053678 
L 225.252892 59.01892 
L 229.210321 53.846527 
L 233.167751 66.003535 
L 245.04004 56.492556 
L 248.99747 56.172657 
L 252.9549 53.798611 
L 256.912329 44.690313 
L 260.869759 61.351212 
L 272.742048 67.059964 
L 276.699478 79.335883 
L 280.656908 95.828991 
L 284.614337 104.268517 
L 288.571767 120.930701 
L 300.444056 104.721625 
L 304.401486 97.682212 
L 308.358916 84.26199 
L 312.316345 72.817927 
L 316.273775 72.517874 
L 328.146064 66.059203 
L 332.103494 79.982454 
L 336.060924 79.580927 
L 340.018353 73.161257 
L 343.975783 75.430094 
L 355.848072 63.656078 
L 359.805502 69.321773 
L 363.762932 55.773673 
L 367.720361 72.117733 
L 371.677791 79.053835 
L 383.55008 71.506921 
L 387.50751 53.97733 
L 391.46494 61.560264 
L 395.422369 73.933351 
L 399.379799 81.314328 
L 411.252088 87.385855 
L 415.209518 74.027544 
L 419.166948 73.705881 
L 423.124378 57.500402 
L 427.081807 73.987383 
L 438.954096 84.364743 
L 442.911526 77.822647 
L 446.868956 60.010053 
L 450.826386 50.260078 
L 454.783815 47.46402 
L 466.656104 56.333463 
L 470.613534 65.278622 
L 474.570964 83.403699 
L 478.528394 84.276542 
L 482.485823 81.185682 
L 494.358112 100.263334 
L 502.272972 126.537975 
L 506.230402 132.884201 
L 510.187831 122.358227 
L 522.06012 117.250628 
L 526.01755 120.918684 
L 529.97498 109.655999 
L 537.889839 78.878464 
L 549.762129 82.504499 
L 553.719558 76.076175 
L 557.676988 76.739888 
L 561.634418 81.82267 
L 565.591847 75.810781 
L 577.464137 77.535555 
L 581.421566 88.316325 
L 585.378996 80.975665 
L 589.336426 62.73514 
L 593.293855 55.935732 
L 605.166145 49.454748 
L 609.123574 61.774609 
L 613.081004 75.179646 
L 617.038434 78.679413 
L 620.995863 94.324109 
L 632.868153 107.901744 
L 636.825582 99.471606 
L 640.783012 112.575247 
L 644.740442 110.726799 
L 648.697871 116.860632 
L 660.570161 129.692706 
L 664.52759 121.419056 
L 668.48502 107.178888 
L 672.44245 100.469105 
L 676.39988 101.301602 
L 688.272169 116.992646 
L 692.229598 135.83452 
L 696.187028 118.084379 
L 700.144458 118.037494 
L 704.101888 114.994866 
L 715.974177 112.49415 
L 719.931606 104.296869 
L 723.889036 98.436214 
L 727.846466 112.361562 
L 731.803896 107.719385 
L 743.676185 111.873944 
L 747.633614 113.008353 
L 751.591044 103.821622 
L 755.548474 127.042165 
L 759.505904 146.726162 
L 771.378193 141.143302 
L 775.335622 152.300074 
L 779.293052 151.259534 
L 783.250482 149.71775 
L 787.207912 128.56426 
L 799.080201 130.988996 
L 803.037631 137.687594 
L 806.99506 121.320904 
L 810.95249 105.737731 
L 814.90992 124.302971 
L 826.782209 125.474581 
L 830.739639 115.468313 
L 834.697068 114.263798 
L 838.654498 133.872373 
L 842.611928 123.329068 
L 854.484217 126.577976 
L 858.441647 134.362342 
L 862.399076 120.530041 
L 866.356506 120.985462 
L 870.313936 118.104456 
L 882.186225 117.526274 
L 886.143655 132.831063 
L 890.101084 136.699871 
L 894.058514 125.992188 
L 898.015944 150.847572 
L 909.888233 138.495246 
L 913.845663 122.489105 
L 917.803092 101.49601 
L 921.760522 100.605135 
L 925.717952 101.118909 
L 937.590241 90.143235 
L 941.547671 90.689937 
L 945.5051 86.370175 
L 949.46253 85.01723 
L 953.41996 76.390437 
L 965.292249 81.349073 
L 969.249679 73.173267 
L 973.207108 91.475146 
L 977.164538 79.155686 
L 981.121968 75.940523 
L 992.994257 59.986283 
L 996.951687 75.955777 
L 1000.909116 88.130227 
L 1004.866546 81.509074 
L 1008.823976 90.185266 
L 1020.696265 103.680741 
L 1024.653695 104.065451 
L 1028.611124 108.6632 
L 1032.568554 95.664049 
L 1036.525984 85.785234 
L 1048.398273 101.3617 
L 1052.355703 121.401309 
L 1056.313133 119.692403 
L 1060.270562 119.281032 
L 1064.227992 109.347904 
L 1076.100281 119.020097 
L 1080.057711 137.905145 
L 1084.015141 157.937601 
L 1087.97257 167.783808 
L 1087.97257 167.783808 
" style="fill:none;stroke:#2ca02c;stroke-linecap:square;stroke-width:1.5;"/>
   </g>
   <g id="patch_3">
    <path d="M 57.26 345.7 
L 57.26 25.92 
" style="fill:none;stroke:#000000;stroke-linecap:square;stroke-linejoin:miter;stroke-width:0.8;"/>
   </g>
   <g id="patch_4">
    <path d="M 1141.2 345.7 
L 1141.2 25.92 
" style="fill:none;stroke:#000000;stroke-linecap:square;stroke-linejoin:miter;stroke-width:0.8;"/>
   </g>
   <g id="patch_5">
    <path d="M 57.26 345.7 
L 1141.2 345.7 
" style="fill:none;stroke:#000000;stroke-linecap:square;stroke-linejoin:miter;stroke-width:0.8;"/>
   </g>
   <g id="patch_6">
    <path d="M 57.26 25.92 
L 1141.2 25.92 
" style="fill:none;stroke:#000000;stroke-linecap:square;stroke-linejoin:miter;stroke-width:0.8;"/>
   </g>
   <g id="text_10">
    <!-- Cumulative Log Return: (2010-02-01 ~ 2010-10-08) -->
    <g transform="translate(443.352812 19.92)scale(0.12 -0.12)">
     <defs>
      <path d="M 64.40625 67.28125 
L 64.40625 56.890625 
Q 59.421875 61.53125 53.78125 63.8125 
Q 48.140625 66.109375 41.796875 66.109375 
Q 29.296875 66.109375 22.65625 58.46875 
Q 16.015625 50.828125 16.015625 36.375 
Q 16.015625 21.96875 22.65625 14.328125 
Q 29.296875 6.6875 41.796875 6.6875 
Q 48.140625 6.6875 53.78125 8.984375 
Q 59.421875 11.28125 64.40625 15.921875 
L 64.40625 5.609375 
Q 59.234375 2.09375 53.4375 0.328125 
Q 47.65625 -1.421875 41.21875 -1.421875 
Q 24.65625 -1.421875 15.125 8.703125 
Q 5.609375 18.84375 5.609375 36.375 
Q 5.609375 53.953125 15.125 64.078125 
Q 24.65625 74.21875 41.21875 74.21875 
Q 47.75 74.21875 53.53125 72.484375 
Q 59.328125 70.75 64.40625 67.28125 
z
" id="DejaVuSans-67"/>
      <path d="M 34.28125 27.484375 
Q 23.390625 27.484375 19.1875 25 
Q 14.984375 22.515625 14.984375 16.5 
Q 14.984375 11.71875 18.140625 8.90625 
Q 21.296875 6.109375 26.703125 6.109375 
Q 34.1875 6.109375 38.703125 11.40625 
Q 43.21875 16.703125 43.21875 25.484375 
L 43.21875 27.484375 
z
M 52.203125 31.203125 
L 52.203125 0 
L 43.21875 0 
L 43.21875 8.296875 
Q 40.140625 3.328125 35.546875 0.953125 
Q 30.953125 -1.421875 24.3125 -1.421875 
Q 15.921875 -1.421875 10.953125 3.296875 
Q 6 8.015625 6 15.921875 
Q 6 25.140625 12.171875 29.828125 
Q 18.359375 34.515625 30.609375 34.515625 
L 43.21875 34.515625 
L 43.21875 35.40625 
Q 43.21875 41.609375 39.140625 45 
Q 35.0625 48.390625 27.6875 48.390625 
Q 23 48.390625 18.546875 47.265625 
Q 14.109375 46.140625 10.015625 43.890625 
L 10.015625 52.203125 
Q 14.9375 54.109375 19.578125 55.046875 
Q 24.21875 56 28.609375 56 
Q 40.484375 56 46.34375 49.84375 
Q 52.203125 43.703125 52.203125 31.203125 
z
" id="DejaVuSans-97"/>
      <path d="M 9.421875 54.6875 
L 18.40625 54.6875 
L 18.40625 0 
L 9.421875 0 
z
M 9.421875 75.984375 
L 18.40625 75.984375 
L 18.40625 64.59375 
L 9.421875 64.59375 
z
" id="DejaVuSans-105"/>
      <path d="M 2.984375 54.6875 
L 12.5 54.6875 
L 29.59375 8.796875 
L 46.6875 54.6875 
L 56.203125 54.6875 
L 35.6875 0 
L 23.484375 0 
z
" id="DejaVuSans-118"/>
      <path d="M 9.8125 72.90625 
L 19.671875 72.90625 
L 19.671875 8.296875 
L 55.171875 8.296875 
L 55.171875 0 
L 9.8125 0 
z
" id="DejaVuSans-76"/>
      <path d="M 44.390625 34.1875 
Q 47.5625 33.109375 50.5625 29.59375 
Q 53.5625 26.078125 56.59375 19.921875 
L 66.609375 0 
L 56 0 
L 46.6875 18.703125 
Q 43.0625 26.03125 39.671875 28.421875 
Q 36.28125 30.8125 30.421875 30.8125 
L 19.671875 30.8125 
L 19.671875 0 
L 9.8125 0 
L 9.8125 72.90625 
L 32.078125 72.90625 
Q 44.578125 72.90625 50.734375 67.671875 
Q 56.890625 62.453125 56.890625 51.90625 
Q 56.890625 45.015625 53.6875 40.46875 
Q 50.484375 35.9375 44.390625 34.1875 
z
M 19.671875 64.796875 
L 19.671875 38.921875 
L 32.078125 38.921875 
Q 39.203125 38.921875 42.84375 42.21875 
Q 46.484375 45.515625 46.484375 51.90625 
Q 46.484375 58.296875 42.84375 61.546875 
Q 39.203125 64.796875 32.078125 64.796875 
z
" id="DejaVuSans-82"/>
      <path d="M 11.71875 12.40625 
L 22.015625 12.40625 
L 22.015625 0 
L 11.71875 0 
z
M 11.71875 51.703125 
L 22.015625 51.703125 
L 22.015625 39.3125 
L 11.71875 39.3125 
z
" id="DejaVuSans-58"/>
      <path d="M 31 75.875 
Q 24.46875 64.65625 21.28125 53.65625 
Q 18.109375 42.671875 18.109375 31.390625 
Q 18.109375 20.125 21.3125 9.0625 
Q 24.515625 -2 31 -13.1875 
L 23.1875 -13.1875 
Q 15.875 -1.703125 12.234375 9.375 
Q 8.59375 20.453125 8.59375 31.390625 
Q 8.59375 42.28125 12.203125 53.3125 
Q 15.828125 64.359375 23.1875 75.875 
z
" id="DejaVuSans-40"/>
      <path d="M 73.1875 39.890625 
L 73.1875 31.203125 
Q 68.0625 27.34375 63.6875 25.6875 
Q 59.328125 24.03125 54.59375 24.03125 
Q 49.21875 24.03125 42.09375 26.90625 
Q 41.546875 27.09375 41.3125 27.203125 
Q 40.96875 27.34375 40.234375 27.59375 
Q 32.671875 30.609375 28.078125 30.609375 
Q 23.78125 30.609375 19.578125 28.734375 
Q 15.375 26.859375 10.59375 22.796875 
L 10.59375 31.5 
Q 15.71875 35.359375 20.09375 37.03125 
Q 24.46875 38.71875 29.203125 38.71875 
Q 34.578125 38.71875 41.75 35.796875 
Q 42.234375 35.59375 42.484375 35.5 
Q 42.875 35.359375 43.5625 35.109375 
Q 51.125 32.078125 55.71875 32.078125 
Q 59.90625 32.078125 64.03125 33.9375 
Q 68.171875 35.796875 73.1875 39.890625 
z
" id="DejaVuSans-126"/>
      <path d="M 31.78125 34.625 
Q 24.75 34.625 20.71875 30.859375 
Q 16.703125 27.09375 16.703125 20.515625 
Q 16.703125 13.921875 20.71875 10.15625 
Q 24.75 6.390625 31.78125 6.390625 
Q 38.8125 6.390625 42.859375 10.171875 
Q 46.921875 13.96875 46.921875 20.515625 
Q 46.921875 27.09375 42.890625 30.859375 
Q 38.875 34.625 31.78125 34.625 
z
M 21.921875 38.8125 
Q 15.578125 40.375 12.03125 44.71875 
Q 8.5 49.078125 8.5 55.328125 
Q 8.5 64.0625 14.71875 69.140625 
Q 20.953125 74.21875 31.78125 74.21875 
Q 42.671875 74.21875 48.875 69.140625 
Q 55.078125 64.0625 55.078125 55.328125 
Q 55.078125 49.078125 51.53125 44.71875 
Q 48 40.375 41.703125 38.8125 
Q 48.828125 37.15625 52.796875 32.3125 
Q 56.78125 27.484375 56.78125 20.515625 
Q 56.78125 9.90625 50.3125 4.234375 
Q 43.84375 -1.421875 31.78125 -1.421875 
Q 19.734375 -1.421875 13.25 4.234375 
Q 6.78125 9.90625 6.78125 20.515625 
Q 6.78125 27.484375 10.78125 32.3125 
Q 14.796875 37.15625 21.921875 38.8125 
z
M 18.3125 54.390625 
Q 18.3125 48.734375 21.84375 45.5625 
Q 25.390625 42.390625 31.78125 42.390625 
Q 38.140625 42.390625 41.71875 45.5625 
Q 45.3125 48.734375 45.3125 54.390625 
Q 45.3125 60.0625 41.71875 63.234375 
Q 38.140625 66.40625 31.78125 66.40625 
Q 25.390625 66.40625 21.84375 63.234375 
Q 18.3125 60.0625 18.3125 54.390625 
z
" id="DejaVuSans-56"/>
      <path d="M 8.015625 75.875 
L 15.828125 75.875 
Q 23.140625 64.359375 26.78125 53.3125 
Q 30.421875 42.28125 30.421875 31.390625 
Q 30.421875 20.453125 26.78125 9.375 
Q 23.140625 -1.703125 15.828125 -13.1875 
L 8.015625 -13.1875 
Q 14.5 -2 17.703125 9.0625 
Q 20.90625 20.125 20.90625 31.390625 
Q 20.90625 42.671875 17.703125 53.65625 
Q 14.5 64.65625 8.015625 75.875 
z
" id="DejaVuSans-41"/>
     </defs>
     <use xlink:href="#DejaVuSans-67"/>
     <use x="69.824219" xlink:href="#DejaVuSans-117"/>
     <use x="133.203125" xlink:href="#DejaVuSans-109"/>
     <use x="230.615234" xlink:href="#DejaVuSans-117"/>
     <use x="293.994141" xlink:href="#DejaVuSans-108"/>
     <use x="321.777344" xlink:href="#DejaVuSans-97"/>
     <use x="383.056641" xlink:href="#DejaVuSans-116"/>
     <use x="422.265625" xlink:href="#DejaVuSans-105"/>
     <use x="450.048828" xlink:href="#DejaVuSans-118"/>
     <use x="509.228516" xlink:href="#DejaVuSans-101"/>
     <use x="570.751953" xlink:href="#DejaVuSans-32"/>
     <use x="602.539062" xlink:href="#DejaVuSans-76"/>
     <use x="656.501953" xlink:href="#DejaVuSans-111"/>
     <use x="717.683594" xlink:href="#DejaVuSans-103"/>
     <use x="781.160156" xlink:href="#DejaVuSans-32"/>
     <use x="812.947266" xlink:href="#DejaVuSans-82"/>
     <use x="877.929688" xlink:href="#DejaVuSans-101"/>
     <use x="939.453125" xlink:href="#DejaVuSans-116"/>
     <use x="978.662109" xlink:href="#DejaVuSans-117"/>
     <use x="1042.041016" xlink:href="#DejaVuSans-114"/>
     <use x="1081.404297" xlink:href="#DejaVuSans-110"/>
     <use x="1144.783203" xlink:href="#DejaVuSans-58"/>
     <use x="1178.474609" xlink:href="#DejaVuSans-32"/>
     <use x="1210.261719" xlink:href="#DejaVuSans-40"/>
     <use x="1249.275391" xlink:href="#DejaVuSans-50"/>
     <use x="1312.898438" xlink:href="#DejaVuSans-48"/>
     <use x="1376.521484" xlink:href="#DejaVuSans-49"/>
     <use x="1440.144531" xlink:href="#DejaVuSans-48"/>
     <use x="1503.767578" xlink:href="#DejaVuSans-45"/>
     <use x="1539.851562" xlink:href="#DejaVuSans-48"/>
     <use x="1603.474609" xlink:href="#DejaVuSans-50"/>
     <use x="1667.097656" xlink:href="#DejaVuSans-45"/>
     <use x="1703.181641" xlink:href="#DejaVuSans-48"/>
     <use x="1766.804688" xlink:href="#DejaVuSans-49"/>
     <use x="1830.427734" xlink:href="#DejaVuSans-32"/>
     <use x="1862.214844" xlink:href="#DejaVuSans-126"/>
     <use x="1946.003906" xlink:href="#DejaVuSans-32"/>
     <use x="1977.791016" xlink:href="#DejaVuSans-50"/>
     <use x="2041.414062" xlink:href="#DejaVuSans-48"/>
     <use x="2105.037109" xlink:href="#DejaVuSans-49"/>
     <use x="2168.660156" xlink:href="#DejaVuSans-48"/>
     <use x="2232.283203" xlink:href="#DejaVuSans-45"/>
     <use x="2268.367188" xlink:href="#DejaVuSans-49"/>
     <use x="2331.990234" xlink:href="#DejaVuSans-48"/>
     <use x="2395.613281" xlink:href="#DejaVuSans-45"/>
     <use x="2431.697266" xlink:href="#DejaVuSans-48"/>
     <use x="2495.320312" xlink:href="#DejaVuSans-56"/>
     <use x="2558.943359" xlink:href="#DejaVuSans-41"/>
    </g>
   </g>
   <g id="legend_1">
    <g id="patch_7">
     <path d="M 64.26 78.2325 
L 176.774063 78.2325 
Q 178.774063 78.2325 178.774063 76.2325 
L 178.774063 32.92 
Q 178.774063 30.92 176.774063 30.92 
L 64.26 30.92 
Q 62.26 30.92 62.26 32.92 
L 62.26 76.2325 
Q 62.26 78.2325 64.26 78.2325 
z
" style="fill:#ffffff;opacity:0.8;stroke:#cccccc;stroke-linejoin:miter;"/>
    </g>
    <g id="line2d_20">
     <path d="M 66.26 39.018437 
L 86.26 39.018437 
" style="fill:none;stroke:#1f77b4;stroke-linecap:square;stroke-width:1.5;"/>
    </g>
    <g id="line2d_21"/>
    <g id="text_11">
     <!-- factor_weighted -->
     <g transform="translate(94.26 42.518437)scale(0.1 -0.1)">
      <defs>
       <path d="M 37.109375 75.984375 
L 37.109375 68.5 
L 28.515625 68.5 
Q 23.6875 68.5 21.796875 66.546875 
Q 19.921875 64.59375 19.921875 59.515625 
L 19.921875 54.6875 
L 34.71875 54.6875 
L 34.71875 47.703125 
L 19.921875 47.703125 
L 19.921875 0 
L 10.890625 0 
L 10.890625 47.703125 
L 2.296875 47.703125 
L 2.296875 54.6875 
L 10.890625 54.6875 
L 10.890625 58.5 
Q 10.890625 67.625 15.140625 71.796875 
Q 19.390625 75.984375 28.609375 75.984375 
z
" id="DejaVuSans-102"/>
       <path d="M 50.984375 -16.609375 
L 50.984375 -23.578125 
L -0.984375 -23.578125 
L -0.984375 -16.609375 
z
" id="DejaVuSans-95"/>
       <path d="M 4.203125 54.6875 
L 13.1875 54.6875 
L 24.421875 12.015625 
L 35.59375 54.6875 
L 46.1875 54.6875 
L 57.421875 12.015625 
L 68.609375 54.6875 
L 77.59375 54.6875 
L 63.28125 0 
L 52.6875 0 
L 40.921875 44.828125 
L 29.109375 0 
L 18.5 0 
z
" id="DejaVuSans-119"/>
       <path d="M 54.890625 33.015625 
L 54.890625 0 
L 45.90625 0 
L 45.90625 32.71875 
Q 45.90625 40.484375 42.875 44.328125 
Q 39.84375 48.1875 33.796875 48.1875 
Q 26.515625 48.1875 22.3125 43.546875 
Q 18.109375 38.921875 18.109375 30.90625 
L 18.109375 0 
L 9.078125 0 
L 9.078125 75.984375 
L 18.109375 75.984375 
L 18.109375 46.1875 
Q 21.34375 51.125 25.703125 53.5625 
Q 30.078125 56 35.796875 56 
Q 45.21875 56 50.046875 50.171875 
Q 54.890625 44.34375 54.890625 33.015625 
z
" id="DejaVuSans-104"/>
       <path d="M 45.40625 46.390625 
L 45.40625 75.984375 
L 54.390625 75.984375 
L 54.390625 0 
L 45.40625 0 
L 45.40625 8.203125 
Q 42.578125 3.328125 38.25 0.953125 
Q 33.9375 -1.421875 27.875 -1.421875 
Q 17.96875 -1.421875 11.734375 6.484375 
Q 5.515625 14.40625 5.515625 27.296875 
Q 5.515625 40.1875 11.734375 48.09375 
Q 17.96875 56 27.875 56 
Q 33.9375 56 38.25 53.625 
Q 42.578125 51.265625 45.40625 46.390625 
z
M 14.796875 27.296875 
Q 14.796875 17.390625 18.875 11.75 
Q 22.953125 6.109375 30.078125 6.109375 
Q 37.203125 6.109375 41.296875 11.75 
Q 45.40625 17.390625 45.40625 27.296875 
Q 45.40625 37.203125 41.296875 42.84375 
Q 37.203125 48.484375 30.078125 48.484375 
Q 22.953125 48.484375 18.875 42.84375 
Q 14.796875 37.203125 14.796875 27.296875 
z
" id="DejaVuSans-100"/>
      </defs>
      <use xlink:href="#DejaVuSans-102"/>
      <use x="35.205078" xlink:href="#DejaVuSans-97"/>
      <use x="96.484375" xlink:href="#DejaVuSans-99"/>
      <use x="151.464844" xlink:href="#DejaVuSans-116"/>
      <use x="190.673828" xlink:href="#DejaVuSans-111"/>
      <use x="251.855469" xlink:href="#DejaVuSans-114"/>
      <use x="292.96875" xlink:href="#DejaVuSans-95"/>
      <use x="342.96875" xlink:href="#DejaVuSans-119"/>
      <use x="424.755859" xlink:href="#DejaVuSans-101"/>
      <use x="486.279297" xlink:href="#DejaVuSans-105"/>
      <use x="514.0625" xlink:href="#DejaVuSans-103"/>
      <use x="577.539062" xlink:href="#DejaVuSans-104"/>
      <use x="640.917969" xlink:href="#DejaVuSans-116"/>
      <use x="680.126953" xlink:href="#DejaVuSans-101"/>
      <use x="741.650391" xlink:href="#DejaVuSans-100"/>
     </g>
    </g>
    <g id="line2d_22">
     <path d="M 66.26 53.974687 
L 86.26 53.974687 
" style="fill:none;stroke:#ff7f0e;stroke-linecap:square;stroke-width:1.5;"/>
    </g>
    <g id="line2d_23"/>
    <g id="text_12">
     <!-- benchmark -->
     <g transform="translate(94.26 57.474687)scale(0.1 -0.1)">
      <defs>
       <path d="M 48.6875 27.296875 
Q 48.6875 37.203125 44.609375 42.84375 
Q 40.53125 48.484375 33.40625 48.484375 
Q 26.265625 48.484375 22.1875 42.84375 
Q 18.109375 37.203125 18.109375 27.296875 
Q 18.109375 17.390625 22.1875 11.75 
Q 26.265625 6.109375 33.40625 6.109375 
Q 40.53125 6.109375 44.609375 11.75 
Q 48.6875 17.390625 48.6875 27.296875 
z
M 18.109375 46.390625 
Q 20.953125 51.265625 25.265625 53.625 
Q 29.59375 56 35.59375 56 
Q 45.5625 56 51.78125 48.09375 
Q 58.015625 40.1875 58.015625 27.296875 
Q 58.015625 14.40625 51.78125 6.484375 
Q 45.5625 -1.421875 35.59375 -1.421875 
Q 29.59375 -1.421875 25.265625 0.953125 
Q 20.953125 3.328125 18.109375 8.203125 
L 18.109375 0 
L 9.078125 0 
L 9.078125 75.984375 
L 18.109375 75.984375 
z
" id="DejaVuSans-98"/>
       <path d="M 9.078125 75.984375 
L 18.109375 75.984375 
L 18.109375 31.109375 
L 44.921875 54.6875 
L 56.390625 54.6875 
L 27.390625 29.109375 
L 57.625 0 
L 45.90625 0 
L 18.109375 26.703125 
L 18.109375 0 
L 9.078125 0 
z
" id="DejaVuSans-107"/>
      </defs>
      <use xlink:href="#DejaVuSans-98"/>
      <use x="63.476562" xlink:href="#DejaVuSans-101"/>
      <use x="125" xlink:href="#DejaVuSans-110"/>
      <use x="188.378906" xlink:href="#DejaVuSans-99"/>
      <use x="243.359375" xlink:href="#DejaVuSans-104"/>
      <use x="306.738281" xlink:href="#DejaVuSans-109"/>
      <use x="404.150391" xlink:href="#DejaVuSans-97"/>
      <use x="465.429688" xlink:href="#DejaVuSans-114"/>
      <use x="506.542969" xlink:href="#DejaVuSans-107"/>
     </g>
    </g>
    <g id="line2d_24">
     <path d="M 66.26 68.652812 
L 86.26 68.652812 
" style="fill:none;stroke:#2ca02c;stroke-linecap:square;stroke-width:1.5;"/>
    </g>
    <g id="line2d_25"/>
    <g id="text_13">
     <!-- excess -->
     <g transform="translate(94.26 72.152812)scale(0.1 -0.1)">
      <defs>
       <path d="M 54.890625 54.6875 
L 35.109375 28.078125 
L 55.90625 0 
L 45.3125 0 
L 29.390625 21.484375 
L 13.484375 0 
L 2.875 0 
L 24.125 28.609375 
L 4.6875 54.6875 
L 15.28125 54.6875 
L 29.78125 35.203125 
L 44.28125 54.6875 
z
" id="DejaVuSans-120"/>
      </defs>
      <use xlink:href="#DejaVuSans-101"/>
      <use x="59.773438" xlink:href="#DejaVuSans-120"/>
      <use x="117.203125" xlink:href="#DejaVuSans-99"/>
      <use x="172.183594" xlink:href="#DejaVuSans-101"/>
      <use x="233.707031" xlink:href="#DejaVuSans-115"/>
      <use x="285.806641" xlink:href="#DejaVuSans-115"/>
     </g>
    </g>
   </g>
  </g>
 </g>
 <defs>
  <clipPath id="p59d507c324">
   <rect height="319.78" width="1083.94" x="57.26" y="25.92"/>
  </clipPath>
 </defs>
</svg>
