<?xml version="1.0" encoding="utf-8" standalone="no"?>
<!DOCTYPE svg PUBLIC "-//W3C//DTD SVG 1.1//EN"
  "http://www.w3.org/Graphics/SVG/1.1/DTD/svg11.dtd">
<!-- Created with matplotlib (https://matplotlib.org/) -->
<svg height="360pt" version="1.1" viewBox="0 0 1152 360" width="1152pt" xmlns="http://www.w3.org/2000/svg" xmlns:xlink="http://www.w3.org/1999/xlink">
 <metadata>
  <rdf:RDF xmlns:cc="http://creativecommons.org/ns#" xmlns:dc="http://purl.org/dc/elements/1.1/" xmlns:rdf="http://www.w3.org/1999/02/22-rdf-syntax-ns#">
   <cc:Work>
    <dc:type rdf:resource="http://purl.org/dc/dcmitype/StillImage"/>
    <dc:date>2023-10-11T17:00:08.119519</dc:date>
    <dc:format>image/svg+xml</dc:format>
    <dc:creator>
     <cc:Agent>
      <dc:title>Matplotlib v3.3.4, https://matplotlib.org/</dc:title>
     </cc:Agent>
    </dc:creator>
   </cc:Work>
  </rdf:RDF>
 </metadata>
 <defs>
  <style type="text/css">*{stroke-linecap:butt;stroke-linejoin:round;}</style>
 </defs>
 <g id="figure_1">
  <g id="patch_1">
   <path d="M 0 360 
L 1152 360 
L 1152 0 
L 0 0 
z
" style="fill:#ffffff;"/>
  </g>
  <g id="axes_1">
   <g id="patch_2">
    <path d="M 57.26 344.851367 
L 1141.2 344.851367 
L 1141.2 25.92 
L 57.26 25.92 
z
" style="fill:#ffffff;"/>
   </g>
   <g id="matplotlib.axis_1"/>
   <g id="matplotlib.axis_2">
    <g id="ytick_1">
     <g id="line2d_1">
      <path clip-path="url(#pbbe8ac741e)" d="M 57.26 343.227524 
L 1141.2 343.227524 
" style="fill:none;stroke:#b0b0b0;stroke-linecap:square;stroke-width:0.8;"/>
     </g>
     <g id="line2d_2">
      <defs>
       <path d="M 0 0 
L -3.5 0 
" id="m008d6b3fe4" style="stroke:#000000;stroke-width:0.8;"/>
      </defs>
      <g>
       <use style="stroke:#000000;stroke-width:0.8;" x="57.26" xlink:href="#m008d6b3fe4" y="343.227524"/>
      </g>
     </g>
     <g id="text_1">
      <!-- -0.75 -->
      <g transform="translate(24.386562 347.026743)scale(0.1 -0.1)">
       <defs>
        <path d="M 4.890625 31.390625 
L 31.203125 31.390625 
L 31.203125 23.390625 
L 4.890625 23.390625 
z
" id="DejaVuSans-45"/>
        <path d="M 31.78125 66.40625 
Q 24.171875 66.40625 20.328125 58.90625 
Q 16.5 51.421875 16.5 36.375 
Q 16.5 21.390625 20.328125 13.890625 
Q 24.171875 6.390625 31.78125 6.390625 
Q 39.453125 6.390625 43.28125 13.890625 
Q 47.125 21.390625 47.125 36.375 
Q 47.125 51.421875 43.28125 58.90625 
Q 39.453125 66.40625 31.78125 66.40625 
z
M 31.78125 74.21875 
Q 44.046875 74.21875 50.515625 64.515625 
Q 56.984375 54.828125 56.984375 36.375 
Q 56.984375 17.96875 50.515625 8.265625 
Q 44.046875 -1.421875 31.78125 -1.421875 
Q 19.53125 -1.421875 13.0625 8.265625 
Q 6.59375 17.96875 6.59375 36.375 
Q 6.59375 54.828125 13.0625 64.515625 
Q 19.53125 74.21875 31.78125 74.21875 
z
" id="DejaVuSans-48"/>
        <path d="M 10.6875 12.40625 
L 21 12.40625 
L 21 0 
L 10.6875 0 
z
" id="DejaVuSans-46"/>
        <path d="M 8.203125 72.90625 
L 55.078125 72.90625 
L 55.078125 68.703125 
L 28.609375 0 
L 18.3125 0 
L 43.21875 64.59375 
L 8.203125 64.59375 
z
" id="DejaVuSans-55"/>
        <path d="M 10.796875 72.90625 
L 49.515625 72.90625 
L 49.515625 64.59375 
L 19.828125 64.59375 
L 19.828125 46.734375 
Q 21.96875 47.46875 24.109375 47.828125 
Q 26.265625 48.1875 28.421875 48.1875 
Q 40.625 48.1875 47.75 41.5 
Q 54.890625 34.8125 54.890625 23.390625 
Q 54.890625 11.625 47.5625 5.09375 
Q 40.234375 -1.421875 26.90625 -1.421875 
Q 22.3125 -1.421875 17.546875 -0.640625 
Q 12.796875 0.140625 7.71875 1.703125 
L 7.71875 11.625 
Q 12.109375 9.234375 16.796875 8.0625 
Q 21.484375 6.890625 26.703125 6.890625 
Q 35.15625 6.890625 40.078125 11.328125 
Q 45.015625 15.765625 45.015625 23.390625 
Q 45.015625 31 40.078125 35.4375 
Q 35.15625 39.890625 26.703125 39.890625 
Q 22.75 39.890625 18.8125 39.015625 
Q 14.890625 38.140625 10.796875 36.28125 
z
" id="DejaVuSans-53"/>
       </defs>
       <use xlink:href="#DejaVuSans-45"/>
       <use x="36.083984" xlink:href="#DejaVuSans-48"/>
       <use x="99.707031" xlink:href="#DejaVuSans-46"/>
       <use x="131.494141" xlink:href="#DejaVuSans-55"/>
       <use x="195.117188" xlink:href="#DejaVuSans-53"/>
      </g>
     </g>
    </g>
    <g id="ytick_2">
     <g id="line2d_3">
      <path clip-path="url(#pbbe8ac741e)" d="M 57.26 303.243053 
L 1141.2 303.243053 
" style="fill:none;stroke:#b0b0b0;stroke-linecap:square;stroke-width:0.8;"/>
     </g>
     <g id="line2d_4">
      <g>
       <use style="stroke:#000000;stroke-width:0.8;" x="57.26" xlink:href="#m008d6b3fe4" y="303.243053"/>
      </g>
     </g>
     <g id="text_2">
      <!-- -0.50 -->
      <g transform="translate(24.386562 307.042272)scale(0.1 -0.1)">
       <use xlink:href="#DejaVuSans-45"/>
       <use x="36.083984" xlink:href="#DejaVuSans-48"/>
       <use x="99.707031" xlink:href="#DejaVuSans-46"/>
       <use x="131.494141" xlink:href="#DejaVuSans-53"/>
       <use x="195.117188" xlink:href="#DejaVuSans-48"/>
      </g>
     </g>
    </g>
    <g id="ytick_3">
     <g id="line2d_5">
      <path clip-path="url(#pbbe8ac741e)" d="M 57.26 263.258582 
L 1141.2 263.258582 
" style="fill:none;stroke:#b0b0b0;stroke-linecap:square;stroke-width:0.8;"/>
     </g>
     <g id="line2d_6">
      <g>
       <use style="stroke:#000000;stroke-width:0.8;" x="57.26" xlink:href="#m008d6b3fe4" y="263.258582"/>
      </g>
     </g>
     <g id="text_3">
      <!-- -0.25 -->
      <g transform="translate(24.386562 267.057801)scale(0.1 -0.1)">
       <defs>
        <path d="M 19.1875 8.296875 
L 53.609375 8.296875 
L 53.609375 0 
L 7.328125 0 
L 7.328125 8.296875 
Q 12.9375 14.109375 22.625 23.890625 
Q 32.328125 33.6875 34.8125 36.53125 
Q 39.546875 41.84375 41.421875 45.53125 
Q 43.3125 49.21875 43.3125 52.78125 
Q 43.3125 58.59375 39.234375 62.25 
Q 35.15625 65.921875 28.609375 65.921875 
Q 23.96875 65.921875 18.8125 64.3125 
Q 13.671875 62.703125 7.8125 59.421875 
L 7.8125 69.390625 
Q 13.765625 71.78125 18.9375 73 
Q 24.125 74.21875 28.421875 74.21875 
Q 39.75 74.21875 46.484375 68.546875 
Q 53.21875 62.890625 53.21875 53.421875 
Q 53.21875 48.921875 51.53125 44.890625 
Q 49.859375 40.875 45.40625 35.40625 
Q 44.1875 33.984375 37.640625 27.21875 
Q 31.109375 20.453125 19.1875 8.296875 
z
" id="DejaVuSans-50"/>
       </defs>
       <use xlink:href="#DejaVuSans-45"/>
       <use x="36.083984" xlink:href="#DejaVuSans-48"/>
       <use x="99.707031" xlink:href="#DejaVuSans-46"/>
       <use x="131.494141" xlink:href="#DejaVuSans-50"/>
       <use x="195.117188" xlink:href="#DejaVuSans-53"/>
      </g>
     </g>
    </g>
    <g id="ytick_4">
     <g id="line2d_7">
      <path clip-path="url(#pbbe8ac741e)" d="M 57.26 223.274111 
L 1141.2 223.274111 
" style="fill:none;stroke:#b0b0b0;stroke-linecap:square;stroke-width:0.8;"/>
     </g>
     <g id="line2d_8">
      <g>
       <use style="stroke:#000000;stroke-width:0.8;" x="57.26" xlink:href="#m008d6b3fe4" y="223.274111"/>
      </g>
     </g>
     <g id="text_4">
      <!-- 0.00 -->
      <g transform="translate(27.994375 227.07333)scale(0.1 -0.1)">
       <use xlink:href="#DejaVuSans-48"/>
       <use x="63.623047" xlink:href="#DejaVuSans-46"/>
       <use x="95.410156" xlink:href="#DejaVuSans-48"/>
       <use x="159.033203" xlink:href="#DejaVuSans-48"/>
      </g>
     </g>
    </g>
    <g id="ytick_5">
     <g id="line2d_9">
      <path clip-path="url(#pbbe8ac741e)" d="M 57.26 183.28964 
L 1141.2 183.28964 
" style="fill:none;stroke:#b0b0b0;stroke-linecap:square;stroke-width:0.8;"/>
     </g>
     <g id="line2d_10">
      <g>
       <use style="stroke:#000000;stroke-width:0.8;" x="57.26" xlink:href="#m008d6b3fe4" y="183.28964"/>
      </g>
     </g>
     <g id="text_5">
      <!-- 0.25 -->
      <g transform="translate(27.994375 187.088859)scale(0.1 -0.1)">
       <use xlink:href="#DejaVuSans-48"/>
       <use x="63.623047" xlink:href="#DejaVuSans-46"/>
       <use x="95.410156" xlink:href="#DejaVuSans-50"/>
       <use x="159.033203" xlink:href="#DejaVuSans-53"/>
      </g>
     </g>
    </g>
    <g id="ytick_6">
     <g id="line2d_11">
      <path clip-path="url(#pbbe8ac741e)" d="M 57.26 143.305169 
L 1141.2 143.305169 
" style="fill:none;stroke:#b0b0b0;stroke-linecap:square;stroke-width:0.8;"/>
     </g>
     <g id="line2d_12">
      <g>
       <use style="stroke:#000000;stroke-width:0.8;" x="57.26" xlink:href="#m008d6b3fe4" y="143.305169"/>
      </g>
     </g>
     <g id="text_6">
      <!-- 0.50 -->
      <g transform="translate(27.994375 147.104388)scale(0.1 -0.1)">
       <use xlink:href="#DejaVuSans-48"/>
       <use x="63.623047" xlink:href="#DejaVuSans-46"/>
       <use x="95.410156" xlink:href="#DejaVuSans-53"/>
       <use x="159.033203" xlink:href="#DejaVuSans-48"/>
      </g>
     </g>
    </g>
    <g id="ytick_7">
     <g id="line2d_13">
      <path clip-path="url(#pbbe8ac741e)" d="M 57.26 103.320698 
L 1141.2 103.320698 
" style="fill:none;stroke:#b0b0b0;stroke-linecap:square;stroke-width:0.8;"/>
     </g>
     <g id="line2d_14">
      <g>
       <use style="stroke:#000000;stroke-width:0.8;" x="57.26" xlink:href="#m008d6b3fe4" y="103.320698"/>
      </g>
     </g>
     <g id="text_7">
      <!-- 0.75 -->
      <g transform="translate(27.994375 107.119917)scale(0.1 -0.1)">
       <use xlink:href="#DejaVuSans-48"/>
       <use x="63.623047" xlink:href="#DejaVuSans-46"/>
       <use x="95.410156" xlink:href="#DejaVuSans-55"/>
       <use x="159.033203" xlink:href="#DejaVuSans-53"/>
      </g>
     </g>
    </g>
    <g id="ytick_8">
     <g id="line2d_15">
      <path clip-path="url(#pbbe8ac741e)" d="M 57.26 63.336228 
L 1141.2 63.336228 
" style="fill:none;stroke:#b0b0b0;stroke-linecap:square;stroke-width:0.8;"/>
     </g>
     <g id="line2d_16">
      <g>
       <use style="stroke:#000000;stroke-width:0.8;" x="57.26" xlink:href="#m008d6b3fe4" y="63.336228"/>
      </g>
     </g>
     <g id="text_8">
      <!-- 1.00 -->
      <g transform="translate(27.994375 67.135446)scale(0.1 -0.1)">
       <defs>
        <path d="M 12.40625 8.296875 
L 28.515625 8.296875 
L 28.515625 63.921875 
L 10.984375 60.40625 
L 10.984375 69.390625 
L 28.421875 72.90625 
L 38.28125 72.90625 
L 38.28125 8.296875 
L 54.390625 8.296875 
L 54.390625 0 
L 12.40625 0 
z
" id="DejaVuSans-49"/>
       </defs>
       <use xlink:href="#DejaVuSans-49"/>
       <use x="63.623047" xlink:href="#DejaVuSans-46"/>
       <use x="95.410156" xlink:href="#DejaVuSans-48"/>
       <use x="159.033203" xlink:href="#DejaVuSans-48"/>
      </g>
     </g>
    </g>
    <g id="text_9">
     <!-- log return cumsum -->
     <g transform="translate(18.306875 232.903652)rotate(-90)scale(0.1 -0.1)">
      <defs>
       <path d="M 9.421875 75.984375 
L 18.40625 75.984375 
L 18.40625 0 
L 9.421875 0 
z
" id="DejaVuSans-108"/>
       <path d="M 30.609375 48.390625 
Q 23.390625 48.390625 19.1875 42.75 
Q 14.984375 37.109375 14.984375 27.296875 
Q 14.984375 17.484375 19.15625 11.84375 
Q 23.34375 6.203125 30.609375 6.203125 
Q 37.796875 6.203125 41.984375 11.859375 
Q 46.1875 17.53125 46.1875 27.296875 
Q 46.1875 37.015625 41.984375 42.703125 
Q 37.796875 48.390625 30.609375 48.390625 
z
M 30.609375 56 
Q 42.328125 56 49.015625 48.375 
Q 55.71875 40.765625 55.71875 27.296875 
Q 55.71875 13.875 49.015625 6.21875 
Q 42.328125 -1.421875 30.609375 -1.421875 
Q 18.84375 -1.421875 12.171875 6.21875 
Q 5.515625 13.875 5.515625 27.296875 
Q 5.515625 40.765625 12.171875 48.375 
Q 18.84375 56 30.609375 56 
z
" id="DejaVuSans-111"/>
       <path d="M 45.40625 27.984375 
Q 45.40625 37.75 41.375 43.109375 
Q 37.359375 48.484375 30.078125 48.484375 
Q 22.859375 48.484375 18.828125 43.109375 
Q 14.796875 37.75 14.796875 27.984375 
Q 14.796875 18.265625 18.828125 12.890625 
Q 22.859375 7.515625 30.078125 7.515625 
Q 37.359375 7.515625 41.375 12.890625 
Q 45.40625 18.265625 45.40625 27.984375 
z
M 54.390625 6.78125 
Q 54.390625 -7.171875 48.1875 -13.984375 
Q 42 -20.796875 29.203125 -20.796875 
Q 24.46875 -20.796875 20.265625 -20.09375 
Q 16.0625 -19.390625 12.109375 -17.921875 
L 12.109375 -9.1875 
Q 16.0625 -11.328125 19.921875 -12.34375 
Q 23.78125 -13.375 27.78125 -13.375 
Q 36.625 -13.375 41.015625 -8.765625 
Q 45.40625 -4.15625 45.40625 5.171875 
L 45.40625 9.625 
Q 42.625 4.78125 38.28125 2.390625 
Q 33.9375 0 27.875 0 
Q 17.828125 0 11.671875 7.65625 
Q 5.515625 15.328125 5.515625 27.984375 
Q 5.515625 40.671875 11.671875 48.328125 
Q 17.828125 56 27.875 56 
Q 33.9375 56 38.28125 53.609375 
Q 42.625 51.21875 45.40625 46.390625 
L 45.40625 54.6875 
L 54.390625 54.6875 
z
" id="DejaVuSans-103"/>
       <path id="DejaVuSans-32"/>
       <path d="M 41.109375 46.296875 
Q 39.59375 47.171875 37.8125 47.578125 
Q 36.03125 48 33.890625 48 
Q 26.265625 48 22.1875 43.046875 
Q 18.109375 38.09375 18.109375 28.8125 
L 18.109375 0 
L 9.078125 0 
L 9.078125 54.6875 
L 18.109375 54.6875 
L 18.109375 46.1875 
Q 20.953125 51.171875 25.484375 53.578125 
Q 30.03125 56 36.53125 56 
Q 37.453125 56 38.578125 55.875 
Q 39.703125 55.765625 41.0625 55.515625 
z
" id="DejaVuSans-114"/>
       <path d="M 56.203125 29.59375 
L 56.203125 25.203125 
L 14.890625 25.203125 
Q 15.484375 15.921875 20.484375 11.0625 
Q 25.484375 6.203125 34.421875 6.203125 
Q 39.59375 6.203125 44.453125 7.46875 
Q 49.3125 8.734375 54.109375 11.28125 
L 54.109375 2.78125 
Q 49.265625 0.734375 44.1875 -0.34375 
Q 39.109375 -1.421875 33.890625 -1.421875 
Q 20.796875 -1.421875 13.15625 6.1875 
Q 5.515625 13.8125 5.515625 26.8125 
Q 5.515625 40.234375 12.765625 48.109375 
Q 20.015625 56 32.328125 56 
Q 43.359375 56 49.78125 48.890625 
Q 56.203125 41.796875 56.203125 29.59375 
z
M 47.21875 32.234375 
Q 47.125 39.59375 43.09375 43.984375 
Q 39.0625 48.390625 32.421875 48.390625 
Q 24.90625 48.390625 20.390625 44.140625 
Q 15.875 39.890625 15.1875 32.171875 
z
" id="DejaVuSans-101"/>
       <path d="M 18.3125 70.21875 
L 18.3125 54.6875 
L 36.8125 54.6875 
L 36.8125 47.703125 
L 18.3125 47.703125 
L 18.3125 18.015625 
Q 18.3125 11.328125 20.140625 9.421875 
Q 21.96875 7.515625 27.59375 7.515625 
L 36.8125 7.515625 
L 36.8125 0 
L 27.59375 0 
Q 17.1875 0 13.234375 3.875 
Q 9.28125 7.765625 9.28125 18.015625 
L 9.28125 47.703125 
L 2.6875 47.703125 
L 2.6875 54.6875 
L 9.28125 54.6875 
L 9.28125 70.21875 
z
" id="DejaVuSans-116"/>
       <path d="M 8.5 21.578125 
L 8.5 54.6875 
L 17.484375 54.6875 
L 17.484375 21.921875 
Q 17.484375 14.15625 20.5 10.265625 
Q 23.53125 6.390625 29.59375 6.390625 
Q 36.859375 6.390625 41.078125 11.03125 
Q 45.3125 15.671875 45.3125 23.6875 
L 45.3125 54.6875 
L 54.296875 54.6875 
L 54.296875 0 
L 45.3125 0 
L 45.3125 8.40625 
Q 42.046875 3.421875 37.71875 1 
Q 33.40625 -1.421875 27.6875 -1.421875 
Q 18.265625 -1.421875 13.375 4.4375 
Q 8.5 10.296875 8.5 21.578125 
z
M 31.109375 56 
z
" id="DejaVuSans-117"/>
       <path d="M 54.890625 33.015625 
L 54.890625 0 
L 45.90625 0 
L 45.90625 32.71875 
Q 45.90625 40.484375 42.875 44.328125 
Q 39.84375 48.1875 33.796875 48.1875 
Q 26.515625 48.1875 22.3125 43.546875 
Q 18.109375 38.921875 18.109375 30.90625 
L 18.109375 0 
L 9.078125 0 
L 9.078125 54.6875 
L 18.109375 54.6875 
L 18.109375 46.1875 
Q 21.34375 51.125 25.703125 53.5625 
Q 30.078125 56 35.796875 56 
Q 45.21875 56 50.046875 50.171875 
Q 54.890625 44.34375 54.890625 33.015625 
z
" id="DejaVuSans-110"/>
       <path d="M 48.78125 52.59375 
L 48.78125 44.1875 
Q 44.96875 46.296875 41.140625 47.34375 
Q 37.3125 48.390625 33.40625 48.390625 
Q 24.65625 48.390625 19.8125 42.84375 
Q 14.984375 37.3125 14.984375 27.296875 
Q 14.984375 17.28125 19.8125 11.734375 
Q 24.65625 6.203125 33.40625 6.203125 
Q 37.3125 6.203125 41.140625 7.25 
Q 44.96875 8.296875 48.78125 10.40625 
L 48.78125 2.09375 
Q 45.015625 0.34375 40.984375 -0.53125 
Q 36.96875 -1.421875 32.421875 -1.421875 
Q 20.0625 -1.421875 12.78125 6.34375 
Q 5.515625 14.109375 5.515625 27.296875 
Q 5.515625 40.671875 12.859375 48.328125 
Q 20.21875 56 33.015625 56 
Q 37.15625 56 41.109375 55.140625 
Q 45.0625 54.296875 48.78125 52.59375 
z
" id="DejaVuSans-99"/>
       <path d="M 52 44.1875 
Q 55.375 50.25 60.0625 53.125 
Q 64.75 56 71.09375 56 
Q 79.640625 56 84.28125 50.015625 
Q 88.921875 44.046875 88.921875 33.015625 
L 88.921875 0 
L 79.890625 0 
L 79.890625 32.71875 
Q 79.890625 40.578125 77.09375 44.375 
Q 74.3125 48.1875 68.609375 48.1875 
Q 61.625 48.1875 57.5625 43.546875 
Q 53.515625 38.921875 53.515625 30.90625 
L 53.515625 0 
L 44.484375 0 
L 44.484375 32.71875 
Q 44.484375 40.625 41.703125 44.40625 
Q 38.921875 48.1875 33.109375 48.1875 
Q 26.21875 48.1875 22.15625 43.53125 
Q 18.109375 38.875 18.109375 30.90625 
L 18.109375 0 
L 9.078125 0 
L 9.078125 54.6875 
L 18.109375 54.6875 
L 18.109375 46.1875 
Q 21.1875 51.21875 25.484375 53.609375 
Q 29.78125 56 35.6875 56 
Q 41.65625 56 45.828125 52.96875 
Q 50 49.953125 52 44.1875 
z
" id="DejaVuSans-109"/>
       <path d="M 44.28125 53.078125 
L 44.28125 44.578125 
Q 40.484375 46.53125 36.375 47.5 
Q 32.28125 48.484375 27.875 48.484375 
Q 21.1875 48.484375 17.84375 46.4375 
Q 14.5 44.390625 14.5 40.28125 
Q 14.5 37.15625 16.890625 35.375 
Q 19.28125 33.59375 26.515625 31.984375 
L 29.59375 31.296875 
Q 39.15625 29.25 43.1875 25.515625 
Q 47.21875 21.78125 47.21875 15.09375 
Q 47.21875 7.46875 41.1875 3.015625 
Q 35.15625 -1.421875 24.609375 -1.421875 
Q 20.21875 -1.421875 15.453125 -0.5625 
Q 10.6875 0.296875 5.421875 2 
L 5.421875 11.28125 
Q 10.40625 8.6875 15.234375 7.390625 
Q 20.0625 6.109375 24.8125 6.109375 
Q 31.15625 6.109375 34.5625 8.28125 
Q 37.984375 10.453125 37.984375 14.40625 
Q 37.984375 18.0625 35.515625 20.015625 
Q 33.0625 21.96875 24.703125 23.78125 
L 21.578125 24.515625 
Q 13.234375 26.265625 9.515625 29.90625 
Q 5.8125 33.546875 5.8125 39.890625 
Q 5.8125 47.609375 11.28125 51.796875 
Q 16.75 56 26.8125 56 
Q 31.78125 56 36.171875 55.265625 
Q 40.578125 54.546875 44.28125 53.078125 
z
" id="DejaVuSans-115"/>
      </defs>
      <use xlink:href="#DejaVuSans-108"/>
      <use x="27.783203" xlink:href="#DejaVuSans-111"/>
      <use x="88.964844" xlink:href="#DejaVuSans-103"/>
      <use x="152.441406" xlink:href="#DejaVuSans-32"/>
      <use x="184.228516" xlink:href="#DejaVuSans-114"/>
      <use x="223.091797" xlink:href="#DejaVuSans-101"/>
      <use x="284.615234" xlink:href="#DejaVuSans-116"/>
      <use x="323.824219" xlink:href="#DejaVuSans-117"/>
      <use x="387.203125" xlink:href="#DejaVuSans-114"/>
      <use x="426.566406" xlink:href="#DejaVuSans-110"/>
      <use x="489.945312" xlink:href="#DejaVuSans-32"/>
      <use x="521.732422" xlink:href="#DejaVuSans-99"/>
      <use x="576.712891" xlink:href="#DejaVuSans-117"/>
      <use x="640.091797" xlink:href="#DejaVuSans-109"/>
      <use x="737.503906" xlink:href="#DejaVuSans-115"/>
      <use x="789.603516" xlink:href="#DejaVuSans-117"/>
      <use x="852.982422" xlink:href="#DejaVuSans-109"/>
     </g>
    </g>
   </g>
   <g id="line2d_17">
    <path clip-path="url(#pbbe8ac741e)" d="M 106.53 239.036872 
L 110.503387 228.935959 
L 114.476774 229.671139 
L 118.450161 218.578339 
L 130.370323 217.118833 
L 134.34371 218.43479 
L 138.317097 211.295769 
L 142.290484 212.158976 
L 146.263871 198.638319 
L 158.184032 191.948888 
L 162.157419 186.844552 
L 166.130806 178.796128 
L 170.104194 189.468513 
L 174.077581 194.45727 
L 185.997742 206.736665 
L 189.971129 199.164607 
L 193.944516 206.823604 
L 197.917903 205.754223 
L 201.89129 193.891198 
L 213.811452 195.5932 
L 217.784839 185.768569 
L 221.758226 188.591192 
L 225.731613 194.089551 
L 229.705 188.296057 
L 241.625161 193.084049 
L 245.598548 183.497697 
L 249.571935 188.972851 
L 253.545323 196.055079 
L 257.51871 196.986147 
L 269.438871 195.591112 
L 273.412258 189.889425 
L 277.385645 193.609142 
L 281.359032 192.695677 
L 285.332419 180.98976 
L 297.252581 171.646896 
L 301.225968 165.200942 
L 305.199355 169.573501 
L 309.172742 166.791992 
L 313.146129 172.450858 
L 325.06629 169.374219 
L 329.039677 171.873905 
L 333.013065 176.313833 
L 336.986452 184.414052 
L 340.959839 181.261149 
L 352.88 187.246029 
L 356.853387 192.664885 
L 360.826774 178.882676 
L 364.800161 172.058791 
L 368.773548 171.914629 
L 380.69371 164.587561 
L 384.667097 177.920394 
L 388.640484 177.39116 
L 392.613871 167.291087 
L 396.587258 164.085441 
L 408.507419 157.143867 
L 412.480806 166.336397 
L 416.454194 162.652037 
L 420.427581 170.344531 
L 424.400968 165.190253 
L 436.321129 162.976678 
L 440.294516 160.464032 
L 444.267903 158.464391 
L 448.24129 151.540632 
L 452.214677 140.498491 
L 464.134839 138.409975 
L 468.108226 131.144926 
L 472.081613 132.487042 
L 476.055 120.053532 
L 480.028387 116.595766 
L 491.948548 111.800524 
L 495.921935 114.044401 
L 499.895323 121.233049 
L 503.86871 111.958815 
L 507.842097 120.594472 
L 519.762258 112.324478 
L 523.735645 112.087111 
L 527.709032 121.463864 
L 531.682419 115.926457 
L 535.655806 118.799925 
L 547.575968 126.459086 
L 551.549355 131.823861 
L 555.522742 131.147408 
L 559.496129 125.182152 
L 563.469516 131.509692 
L 575.389677 134.523908 
L 579.363065 137.488043 
L 583.336452 140.205786 
L 587.309839 142.528777 
L 591.283226 139.71418 
L 603.203387 139.064542 
L 607.176774 132.739837 
L 611.150161 129.6745 
L 615.123548 142.075112 
L 619.096935 146.240984 
L 631.017097 155.101884 
L 634.990484 153.561734 
L 642.937258 154.305331 
L 646.910645 152.867102 
L 658.830806 140.834365 
L 662.804194 138.449315 
L 666.777581 135.033244 
L 670.750968 138.436516 
L 674.724355 136.309027 
L 686.644516 138.558846 
L 690.617903 143.020991 
L 694.59129 145.480128 
L 698.564677 143.615794 
L 702.538065 148.56055 
L 714.458226 140.761262 
L 718.431613 135.924103 
L 722.405 142.792765 
L 726.378387 137.246455 
L 730.351774 130.82882 
L 742.271935 135.664169 
L 746.245323 135.097704 
L 750.21871 131.076336 
L 754.192097 132.027193 
L 758.165484 124.335144 
L 770.085645 132.920404 
L 774.059032 130.200404 
L 778.032419 122.564081 
L 782.005806 126.602998 
L 785.979194 128.864779 
L 797.899355 131.014512 
L 801.872742 145.074217 
L 805.846129 150.71897 
L 809.819516 138.420866 
L 813.792903 134.438736 
L 825.713065 137.501922 
L 829.686452 139.104379 
L 833.659839 143.317839 
L 837.633226 131.628189 
L 841.606613 135.093025 
L 853.526774 129.324837 
L 857.500161 128.23771 
L 861.473548 121.885008 
L 865.446935 120.001889 
L 869.420323 117.399952 
L 881.340484 125.936321 
L 885.313871 119.964668 
L 889.287258 128.340808 
L 893.260645 116.384189 
L 897.234032 110.938328 
L 909.154194 113.530189 
L 913.127581 107.02217 
L 917.100968 115.521065 
L 921.074355 120.586889 
L 925.047742 108.801758 
L 936.967903 110.222825 
L 940.94129 102.941341 
L 944.914677 108.103083 
L 948.888065 101.777037 
L 952.861452 102.537276 
L 964.781613 102.502396 
L 968.755 99.88776 
L 972.728387 106.489145 
L 976.701774 117.49471 
L 992.595323 117.857378 
L 996.56871 114.689933 
L 1000.542097 123.626758 
L 1004.515484 125.242997 
L 1008.488871 129.469472 
L 1020.409032 134.215061 
L 1028.355806 131.166251 
L 1032.329194 140.378151 
L 1036.302581 137.738397 
L 1048.222742 136.674504 
L 1052.196129 130.481051 
L 1056.169516 139.333561 
L 1060.142903 134.70684 
L 1064.11629 142.477561 
L 1076.036452 136.16123 
L 1080.009839 125.887207 
L 1083.983226 124.220146 
L 1087.956613 117.52544 
L 1091.93 117.52544 
L 1091.93 117.52544 
" style="fill:none;stroke:#9467bd;stroke-linecap:square;stroke-width:1.5;"/>
   </g>
   <g id="line2d_18">
    <path clip-path="url(#pbbe8ac741e)" d="M 106.53 227.144438 
L 110.503387 226.473417 
L 114.476774 233.373495 
L 118.450161 231.188687 
L 130.370323 235.092635 
L 134.34371 246.014768 
L 138.317097 248.746304 
L 142.290484 251.223366 
L 146.263871 249.894173 
L 158.184032 248.354354 
L 162.157419 241.779914 
L 166.130806 242.87675 
L 170.104194 247.260535 
L 174.077581 242.38086 
L 185.997742 230.645009 
L 189.971129 234.355058 
L 193.944516 242.061218 
L 197.917903 242.545846 
L 201.89129 244.575297 
L 213.811452 245.948002 
L 217.784839 252.618786 
L 221.758226 258.191777 
L 225.731613 257.129396 
L 229.705 262.783715 
L 241.625161 267.684069 
L 245.598548 268.74362 
L 249.571935 262.971654 
L 253.545323 267.024396 
L 257.51871 282.219208 
L 269.438871 286.589937 
L 273.412258 282.138862 
L 277.385645 280.869461 
L 281.359032 286.842716 
L 285.332419 283.957019 
L 297.252581 289.933689 
L 301.225968 295.672917 
L 305.199355 291.05677 
L 309.172742 295.526262 
L 313.146129 293.568034 
L 325.06629 287.565617 
L 329.039677 290.935898 
L 333.013065 293.190305 
L 336.986452 292.576426 
L 340.959839 300.938201 
L 356.853387 304.081841 
L 360.826774 311.920822 
L 364.800161 306.124116 
L 368.773548 293.132039 
L 380.69371 296.187472 
L 384.667097 300.624241 
L 388.640484 300.894612 
L 392.613871 288.758008 
L 396.587258 294.685008 
L 408.507419 284.911574 
L 412.480806 286.529901 
L 416.454194 290.982448 
L 420.427581 291.295964 
L 424.400968 287.744286 
L 436.321129 287.184689 
L 440.294516 285.923779 
L 444.267903 284.001302 
L 448.24129 280.074501 
L 452.214677 274.023197 
L 464.134839 270.45905 
L 468.108226 281.622463 
L 472.081613 293.246592 
L 476.055 291.44603 
L 480.028387 288.601743 
L 491.948548 278.978127 
L 495.921935 281.281583 
L 499.895323 286.230281 
L 503.86871 280.211418 
L 507.842097 291.908324 
L 519.762258 285.858731 
L 523.735645 281.427318 
L 527.709032 289.910715 
L 531.682419 282.909247 
L 535.655806 274.58646 
L 547.575968 281.509192 
L 551.549355 280.992126 
L 555.522742 282.317647 
L 559.496129 294.497944 
L 563.469516 290.862381 
L 575.389677 292.397116 
L 579.363065 290.880619 
L 583.336452 295.125299 
L 587.309839 304.032275 
L 591.283226 309.021742 
L 603.203387 311.694557 
L 607.176774 304.879277 
L 611.150161 306.141004 
L 615.123548 311.180032 
L 619.096935 312.470711 
L 631.017097 314.345353 
L 634.990484 316.989857 
L 638.963871 329.27529 
L 642.937258 328.673858 
L 646.910645 326.668761 
L 658.830806 325.977947 
L 662.804194 330.354487 
L 666.777581 318.018591 
L 674.724355 307.933192 
L 686.644516 305.225059 
L 690.617903 315.442304 
L 694.59129 319.01459 
L 698.564677 323.169526 
L 702.538065 318.08313 
L 714.458226 316.193432 
L 718.431613 312.21263 
L 722.405 307.152418 
L 726.378387 308.954165 
L 730.351774 309.607797 
L 742.271935 309.215097 
L 746.245323 314.428458 
L 750.21871 319.936529 
L 754.192097 311.906088 
L 758.165484 311.054603 
L 770.085645 309.93973 
L 774.059032 312.328708 
L 778.032419 305.043104 
L 782.005806 309.021573 
L 785.979194 316.22024 
L 797.899355 307.457224 
L 801.872742 308.058766 
L 805.846129 310.969447 
L 809.819516 308.522622 
L 813.792903 302.500576 
L 825.713065 316.62872 
L 829.686452 315.383788 
L 833.659839 303.548661 
L 837.633226 300.227713 
L 841.606613 306.146892 
L 853.526774 309.610425 
L 857.500161 307.98582 
L 861.473548 319.208422 
L 865.446935 318.864241 
L 869.420323 313.254466 
L 881.340484 307.072904 
L 885.313871 316.788096 
L 889.287258 321.765279 
L 893.260645 322.004812 
L 897.234032 319.703703 
L 909.154194 308.743669 
L 913.127581 310.296054 
L 917.100968 308.686251 
L 921.074355 307.78023 
L 925.047742 303.147784 
L 936.967903 298.665636 
L 940.94129 302.555155 
L 944.914677 302.33914 
L 948.888065 312.208238 
L 952.861452 309.829079 
L 964.781613 303.862983 
L 968.755 310.398575 
L 976.701774 304.319879 
L 980.675161 309.574289 
L 992.595323 313.761504 
L 996.56871 306.512818 
L 1000.542097 314.870823 
L 1004.515484 305.158081 
L 1008.488871 291.267527 
L 1020.409032 279.775889 
L 1024.382419 277.420326 
L 1028.355806 280.667392 
L 1032.329194 286.300224 
L 1036.302581 277.055488 
L 1048.222742 275.690725 
L 1052.196129 289.773647 
L 1056.169516 303.324675 
L 1060.142903 294.126705 
L 1064.11629 291.023122 
L 1076.036452 295.208283 
L 1080.009839 289.221463 
L 1083.983226 286.227848 
L 1087.956613 297.236345 
L 1091.93 297.236345 
L 1091.93 297.236345 
" style="fill:none;stroke:#1f77b4;stroke-linecap:square;stroke-width:1.5;"/>
   </g>
   <g id="line2d_19">
    <path clip-path="url(#pbbe8ac741e)" d="M 106.53 225.638766 
L 110.503387 222.150999 
L 114.476774 227.849094 
L 118.450161 222.790583 
L 130.370323 223.284415 
L 134.34371 228.323559 
L 138.317097 223.59048 
L 142.290484 225.570251 
L 146.263871 224.71225 
L 158.184032 224.384558 
L 162.157419 220.298517 
L 166.130806 218.246226 
L 170.104194 223.580409 
L 174.077581 225.455828 
L 185.997742 229.182871 
L 189.971129 229.652263 
L 193.944516 232.695739 
L 197.917903 231.803573 
L 201.89129 228.615272 
L 213.811452 229.344252 
L 217.784839 226.10664 
L 221.758226 223.831203 
L 225.731613 224.025487 
L 229.705 222.621735 
L 241.625161 221.546517 
L 245.598548 222.871469 
L 249.571935 216.629168 
L 257.51871 224.796345 
L 269.438871 224.257529 
L 273.412258 226.059489 
L 277.385645 229.841638 
L 281.359032 233.107215 
L 285.332419 228.641997 
L 297.252581 226.990532 
L 301.225968 227.28743 
L 305.199355 222.404202 
L 309.172742 222.240526 
L 313.146129 223.202941 
L 325.06629 222.899621 
L 329.039677 226.635458 
L 333.013065 226.903089 
L 336.986452 223.908101 
L 340.959839 225.342588 
L 352.88 227.824538 
L 356.853387 224.414334 
L 360.826774 220.570982 
L 364.800161 217.169612 
L 368.773548 213.556717 
L 380.69371 217.87493 
L 384.667097 224.171719 
L 388.640484 223.775374 
L 392.613871 217.074669 
L 396.587258 216.220438 
L 408.507419 207.792371 
L 412.480806 211.878741 
L 416.454194 213.134402 
L 420.427581 214.153101 
L 424.400968 207.213304 
L 436.321129 206.896187 
L 440.294516 206.412355 
L 444.267903 206.591683 
L 448.24129 204.694197 
L 452.214677 203.967322 
L 464.134839 202.312847 
L 468.108226 200.751846 
L 472.081613 204.383305 
L 476.055 200.848685 
L 480.028387 198.731775 
L 491.948548 198.235003 
L 495.921935 202.516226 
L 499.895323 203.597509 
L 503.86871 200.761503 
L 507.842097 203.754396 
L 519.762258 199.457767 
L 523.735645 198.453902 
L 527.709032 203.638118 
L 531.682419 198.062651 
L 535.655806 196.086466 
L 547.575968 200.167423 
L 551.549355 198.461174 
L 555.522742 204.777763 
L 559.496129 205.487794 
L 563.469516 201.912599 
L 575.389677 204.500621 
L 579.363065 204.514823 
L 583.336452 204.051673 
L 587.309839 205.056111 
L 591.283226 203.504483 
L 603.203387 201.096736 
L 607.176774 198.408558 
L 611.150161 197.655253 
L 615.123548 202.855683 
L 619.096935 202.583408 
L 631.017097 205.051417 
L 634.990484 206.66614 
L 638.963871 211.547914 
L 646.910645 209.172443 
L 658.830806 205.13616 
L 662.804194 205.531063 
L 666.777581 202.085083 
L 670.750968 198.28528 
L 674.724355 195.890246 
L 686.644516 193.487924 
L 690.617903 195.935061 
L 694.59129 197.492418 
L 698.564677 196.42799 
L 702.538065 195.87782 
L 714.458226 196.784721 
L 718.431613 196.793293 
L 722.405 195.563302 
L 726.378387 193.810129 
L 730.351774 193.28892 
L 742.271935 194.479847 
L 746.245323 193.618415 
L 750.21871 193.801927 
L 754.192097 193.532859 
L 758.165484 193.030129 
L 770.085645 192.426438 
L 774.059032 190.159398 
L 778.032419 186.535824 
L 782.005806 188.432994 
L 785.979194 188.917376 
L 797.899355 186.060883 
L 801.872742 187.375863 
L 805.846129 188.125951 
L 809.819516 184.326135 
L 813.792903 181.202627 
L 825.713065 186.53326 
L 829.686452 189.17131 
L 833.659839 190.19428 
L 837.633226 186.685437 
L 841.606613 188.487195 
L 853.526774 190.288315 
L 857.500161 189.96418 
L 861.473548 191.456949 
L 865.446935 190.078658 
L 869.420323 194.541463 
L 881.340484 192.267435 
L 885.313871 193.166191 
L 889.287258 192.164321 
L 893.260645 189.676023 
L 897.234032 189.208745 
L 909.154194 181.782715 
L 913.127581 176.930111 
L 917.100968 179.508202 
L 921.074355 181.219752 
L 925.047742 176.418455 
L 936.967903 174.419433 
L 940.94129 169.741956 
L 948.888065 175.87415 
L 952.861452 174.865586 
L 964.781613 173.533016 
L 968.755 173.734932 
L 972.728387 178.481817 
L 976.701774 178.957242 
L 980.675161 178.199294 
L 992.595323 176.460655 
L 996.56871 170.741639 
L 1000.542097 175.545746 
L 1004.515484 176.942959 
L 1008.488871 171.591279 
L 1020.409032 174.097291 
L 1024.382419 172.529726 
L 1028.355806 170.052803 
L 1032.329194 172.72614 
L 1036.302581 168.924751 
L 1048.222742 165.41878 
L 1052.196129 166.234494 
L 1056.169516 167.631465 
L 1060.142903 166.728085 
L 1064.11629 168.58712 
L 1076.036452 168.020873 
L 1080.009839 163.616322 
L 1083.983226 159.709678 
L 1087.956613 159.457451 
L 1087.956613 159.457451 
" style="fill:none;stroke:#8c564b;stroke-linecap:square;stroke-width:1.5;"/>
   </g>
   <g id="line2d_20">
    <path clip-path="url(#pbbe8ac741e)" d="M 106.53 236.467247 
L 110.503387 229.71134 
L 114.476774 224.91955 
L 118.450161 218.695084 
L 130.370323 216.747731 
L 134.34371 213.138729 
L 138.317097 210.66108 
L 142.290484 209.558206 
L 146.263871 196.830076 
L 158.184032 190.455546 
L 162.157419 189.410988 
L 166.130806 183.338869 
L 170.104194 188.499114 
L 174.077581 191.575806 
L 185.997742 199.925932 
L 189.971129 191.907467 
L 193.944516 196.434746 
L 197.917903 196.256541 
L 201.89129 187.411897 
L 213.811452 188.380481 
L 217.784839 181.661553 
L 225.731613 192.131384 
L 229.705 187.703474 
L 241.625161 193.606972 
L 245.598548 182.782708 
L 249.571935 194.984774 
L 253.545323 197.899035 
L 257.51871 194.833021 
L 269.438871 193.97392 
L 273.412258 186.552419 
L 277.385645 186.491446 
L 281.359032 182.395793 
L 285.332419 174.954794 
L 297.252581 167.185473 
L 301.225968 160.454867 
L 305.199355 170.006348 
L 309.172742 167.385858 
L 313.146129 172.053717 
L 325.06629 169.275179 
L 329.039677 168.06746 
L 333.013065 172.23269 
L 336.986452 183.545216 
L 340.959839 178.99821 
L 352.88 182.446614 
L 356.853387 191.471419 
L 360.826774 181.298365 
L 364.800161 177.803082 
L 368.773548 181.351949 
L 380.69371 170.006132 
L 384.667097 176.764725 
L 388.640484 176.631507 
L 392.613871 173.088294 
L 396.587258 170.724379 
L 408.507419 172.2917 
L 412.480806 177.267027 
L 416.454194 172.365052 
L 420.427581 178.995584 
L 424.400968 180.860747 
L 436.321129 178.960546 
L 440.294516 176.925624 
L 444.267903 174.749081 
L 448.24129 169.663764 
L 452.214677 159.303003 
L 464.134839 158.864454 
L 468.108226 153.105457 
L 472.081613 150.867151 
L 476.055 141.774954 
L 480.028387 140.416309 
L 491.948548 136.104645 
L 495.921935 134.120779 
L 499.895323 140.186204 
L 503.86871 133.635122 
L 507.842097 139.171444 
L 519.762258 135.091259 
L 523.735645 135.862595 
L 527.709032 139.919703 
L 531.682419 139.959113 
L 535.655806 144.869996 
L 547.575968 148.357064 
L 551.549355 155.505647 
L 559.496129 142.131466 
L 563.469516 152.265298 
L 575.389677 152.684643 
L 579.363065 155.634311 
L 583.336452 158.824521 
L 587.309839 160.134785 
L 591.283226 158.859553 
L 603.203387 160.644478 
L 607.176774 156.947021 
L 611.150161 154.624153 
L 615.123548 161.588894 
L 619.096935 166.034709 
L 631.017097 172.327756 
L 634.990484 169.204267 
L 638.963871 164.799103 
L 642.937258 166.392993 
L 646.910645 166.147899 
L 662.804194 155.179068 
L 666.777581 155.209628 
L 670.750968 162.589939 
L 674.724355 162.861525 
L 686.644516 167.585121 
L 690.617903 169.569341 
L 694.59129 170.462358 
L 698.564677 169.657125 
L 702.538065 175.171316 
L 714.458226 166.513045 
L 718.431613 161.667569 
L 722.405 169.830368 
L 726.378387 165.995921 
L 730.351774 160.080599 
L 742.271935 163.697678 
L 746.245323 163.994239 
L 750.21871 159.794118 
L 754.192097 161.016105 
L 758.165484 153.804655 
L 770.085645 163.029377 
L 774.059032 162.56996 
L 778.032419 158.466429 
L 782.005806 160.582754 
L 785.979194 162.354748 
L 797.899355 167.452642 
L 801.872742 180.088778 
L 805.846129 184.960189 
L 809.819516 176.263037 
L 813.792903 175.387528 
L 825.713065 173.193901 
L 829.686452 172.175195 
L 833.659839 175.34514 
L 837.633226 166.987534 
L 841.606613 168.631886 
L 853.526774 161.145388 
L 857.500161 160.380851 
L 861.473548 152.606522 
L 865.446935 152.097331 
L 869.420323 145.222877 
L 881.340484 156.193507 
L 885.313871 149.360788 
L 889.287258 158.7995 
L 893.260645 149.187094 
L 897.234032 144.194168 
L 909.154194 154.704149 
L 913.127581 152.99801 
L 917.100968 158.822393 
L 921.074355 162.14059 
L 925.047742 154.948641 
L 936.967903 158.412213 
L 940.94129 155.73157 
L 944.914677 157.825951 
L 948.888065 148.570977 
L 952.861452 150.351032 
L 964.781613 151.659623 
L 968.755 148.846593 
L 972.728387 150.646556 
L 976.701774 161.144391 
L 980.675161 161.978234 
L 992.595323 164.029924 
L 996.56871 166.675156 
L 1000.542097 170.684038 
L 1004.515484 170.901157 
L 1008.488871 180.81554 
L 1020.409032 183.020058 
L 1024.382419 183.048546 
L 1028.355806 184.03116 
L 1032.329194 190.459133 
L 1036.302581 191.648812 
L 1048.222742 194.145438 
L 1052.196129 187.171161 
L 1056.169516 194.560343 
L 1060.142903 190.816157 
L 1064.11629 196.658263 
L 1076.036452 190.888149 
L 1080.009839 184.857841 
L 1083.983226 187.153202 
L 1087.956613 180.700757 
L 1087.956613 180.700757 
" style="fill:none;stroke:#e377c2;stroke-linecap:square;stroke-width:1.5;"/>
   </g>
   <g id="line2d_21">
    <path clip-path="url(#pbbe8ac741e)" d="M 106.53 221.804273 
L 110.503387 218.975788 
L 114.476774 217.824377 
L 118.450161 214.911507 
L 130.370323 211.582771 
L 134.34371 206.081519 
L 138.317097 198.740451 
L 142.290484 198.250791 
L 146.263871 198.725921 
L 158.184032 199.94982 
L 162.157419 202.54349 
L 166.130806 199.415677 
L 170.104194 200.340304 
L 174.077581 207.309297 
L 185.997742 224.013077 
L 189.971129 220.845996 
L 193.944516 216.399624 
L 197.917903 215.026977 
L 201.89129 209.873967 
L 213.811452 209.235732 
L 217.784839 199.720301 
L 221.758226 192.134367 
L 225.731613 193.39944 
L 229.705 186.581385 
L 241.625161 180.782894 
L 245.598548 181.046541 
L 249.571935 180.558948 
L 253.545323 180.596968 
L 257.51871 170.454098 
L 269.438871 165.674946 
L 273.412258 172.108043 
L 277.385645 177.200494 
L 281.359032 174.59127 
L 285.332419 172.983136 
L 297.252581 165.62846 
L 301.225968 160.374845 
L 305.199355 160.09995 
L 309.172742 155.592682 
L 313.146129 158.54964 
L 325.06629 164.470769 
L 329.039677 164.828694 
L 333.013065 162.869557 
L 336.986452 160.479358 
L 340.959839 153.897775 
L 352.88 154.01889 
L 356.853387 149.844344 
L 360.826774 138.701778 
L 364.800161 141.186211 
L 368.773548 151.384913 
L 380.69371 152.623706 
L 384.667097 154.432549 
L 388.640484 153.766956 
L 392.613871 159.639363 
L 396.587258 153.099858 
L 408.507419 154.530382 
L 412.480806 156.973387 
L 416.454194 153.863425 
L 420.427581 154.567224 
L 424.400968 151.103843 
L 436.321129 151.347173 
L 440.294516 152.130417 
L 448.24129 156.337893 
L 452.214677 161.871224 
L 464.134839 163.824195 
L 468.108226 151.926533 
L 472.081613 144.481321 
L 476.055 142.727739 
L 480.028387 143.468197 
L 491.948548 153.178596 
L 495.921935 155.12791 
L 499.895323 151.376954 
L 503.86871 154.683144 
L 507.842097 146.577685 
L 519.762258 148.398611 
L 523.735645 151.923522 
L 527.709032 148.793119 
L 531.682419 150.283231 
L 535.655806 156.976028 
L 547.575968 154.253614 
L 551.549355 153.060595 
L 555.522742 158.009825 
L 559.496129 147.353274 
L 563.469516 147.415029 
L 575.389677 148.458224 
L 579.363065 150.003576 
L 583.336452 145.417297 
L 587.309839 137.932966 
L 591.283226 131.588846 
L 603.203387 126.591182 
L 607.176774 130.900391 
L 611.150161 128.901093 
L 615.123548 129.057487 
L 619.096935 127.507034 
L 631.017097 128.093474 
L 634.990484 127.080528 
L 638.963871 120.212697 
L 642.937258 119.63144 
L 646.910645 120.451825 
L 658.830806 117.092025 
L 662.804194 113.216574 
L 666.777581 122.841165 
L 670.750968 124.15574 
L 674.724355 126.856959 
L 686.644516 127.167997 
L 690.617903 119.867939 
L 694.59129 117.897242 
L 698.564677 112.809617 
L 702.538065 117.494591 
L 714.458226 120.324725 
L 722.405 128.370811 
L 726.378387 124.855279 
L 730.351774 123.685212 
L 742.271935 125.272751 
L 746.245323 119.389242 
L 750.21871 114.242064 
L 754.192097 122.413463 
L 758.165484 122.764082 
L 770.085645 123.278845 
L 774.059032 118.690877 
L 778.032419 122.525642 
L 782.005806 120.495153 
L 785.979194 114.070518 
L 797.899355 120.316268 
L 801.872742 121.027023 
L 805.846129 118.905136 
L 809.819516 117.531377 
L 813.792903 120.542186 
L 825.713065 112.470025 
L 829.686452 116.383724 
L 833.659839 130.27349 
L 837.633226 130.081654 
L 841.606613 126.11199 
L 853.526774 124.485009 
L 857.500161 125.798812 
L 861.473548 116.709932 
L 865.446935 115.673602 
L 869.420323 126.117738 
L 881.340484 130.181227 
L 885.313871 121.871129 
L 889.287258 116.071995 
L 893.260645 113.348212 
L 897.234032 115.208774 
L 909.154194 118.996433 
L 913.127581 112.6521 
L 917.100968 116.882924 
L 921.074355 119.515489 
L 925.047742 119.341678 
L 936.967903 121.895943 
L 940.94129 113.529485 
L 944.914677 116.777003 
L 948.888065 110.409835 
L 952.861452 111.801061 
L 964.781613 116.613369 
L 968.755 110.52853 
L 972.728387 118.406674 
L 976.701774 122.049275 
L 980.675161 116.227736 
L 992.595323 110.452278 
L 996.56871 112.053227 
L 1000.542097 108.678384 
L 1004.515484 120.510289 
L 1008.488871 129.846959 
L 1020.409032 144.938082 
L 1024.382419 145.737801 
L 1028.355806 140.126855 
L 1032.329194 137.268866 
L 1036.302581 143.042036 
L 1048.222742 140.882603 
L 1052.196129 128.692141 
L 1056.169516 117.491695 
L 1060.142903 126.291037 
L 1064.11629 131.35245 
L 1076.036452 126.722001 
L 1080.009839 128.364933 
L 1083.983226 127.434702 
L 1087.956613 116.898861 
L 1087.956613 116.898861 
" style="fill:none;stroke:#7f7f7f;stroke-linecap:square;stroke-width:1.5;"/>
   </g>
   <g id="line2d_22">
    <path clip-path="url(#pbbe8ac741e)" d="M 106.53 234.87165 
L 110.503387 225.403262 
L 114.476774 219.493927 
L 118.450161 210.466808 
L 130.370323 205.230591 
L 134.34371 196.241042 
L 138.317097 186.532659 
L 142.290484 184.943484 
L 146.263871 172.654089 
L 158.184032 167.45546 
L 162.157419 168.987551 
L 166.130806 159.903052 
L 170.104194 166.018333 
L 174.077581 176.202429 
L 185.997742 202.202797 
L 189.971129 191.170669 
L 193.944516 191.125724 
L 197.917903 189.576394 
L 201.89129 175.851782 
L 213.811452 176.178262 
L 217.784839 160.324397 
L 221.758226 157.667436 
L 225.731613 164.272817 
L 229.705 153.209214 
L 241.625161 153.10024 
L 245.598548 142.522358 
L 249.571935 154.198239 
L 253.545323 157.151219 
L 257.51871 144.129052 
L 269.438871 138.516024 
L 273.412258 137.23026 
L 277.385645 142.259765 
L 281.359032 135.620335 
L 285.332419 126.643956 
L 297.252581 111.861155 
L 301.225968 100.090057 
L 305.199355 109.349743 
L 309.172742 102.294226 
L 313.146129 110.007453 
L 325.06629 113.04619 
L 329.039677 112.193701 
L 333.013065 114.348425 
L 336.986452 123.096967 
L 340.959839 112.149215 
L 352.88 115.721374 
L 356.853387 120.332616 
L 360.826774 99.68167 
L 364.800161 98.616705 
L 368.773548 112.60073 
L 380.69371 102.408565 
L 384.667097 111.054539 
L 388.640484 110.25628 
L 392.613871 112.454473 
L 396.587258 103.64509 
L 408.507419 106.657086 
L 412.480806 114.153221 
L 416.454194 106.234276 
L 420.427581 113.598466 
L 424.400968 111.960064 
L 436.321129 110.300317 
L 440.294516 109.038712 
L 444.267903 108.960617 
L 448.24129 105.889876 
L 452.214677 100.709676 
L 464.134839 102.218717 
L 468.108226 84.96809 
L 472.081613 75.385702 
L 476.055 64.63633 
L 480.028387 64.011865 
L 491.948548 69.14454 
L 495.921935 69.085813 
L 499.895323 71.257052 
L 503.86871 67.878149 
L 507.842097 65.030881 
L 519.762258 62.725499 
L 523.735645 67.038978 
L 527.709032 67.88606 
L 531.682419 69.415951 
L 535.655806 81.232891 
L 547.575968 81.938056 
L 551.549355 87.839299 
L 555.522742 85.853746 
L 559.496129 68.971051 
L 563.469516 79.17068 
L 575.389677 80.635967 
L 579.363065 85.159894 
L 583.336452 83.672763 
L 587.309839 77.43856 
L 591.283226 69.868613 
L 603.203387 66.600664 
L 607.176774 67.11263 
L 611.150161 62.819114 
L 615.123548 69.947213 
L 619.096935 72.79909 
L 631.017097 79.702156 
L 634.990484 75.58525 
L 638.963871 64.49499 
L 642.937258 65.501812 
L 646.910645 66.075844 
L 658.830806 54.686534 
L 662.804194 48.103756 
L 666.777581 57.760803 
L 670.750968 66.51804 
L 674.724355 69.495475 
L 686.644516 74.539441 
L 690.617903 69.134546 
L 694.59129 68.0459 
L 698.564677 62.178191 
L 702.538065 72.544215 
L 714.458226 66.565685 
L 718.431613 65.687805 
L 722.405 78.015284 
L 730.351774 63.704645 
L 742.271935 68.94576 
L 746.245323 63.348091 
L 750.21871 54.132132 
L 754.192097 63.589832 
L 758.165484 56.713527 
L 770.085645 66.483627 
L 774.059032 61.449214 
L 778.032419 61.082168 
L 782.005806 61.141131 
L 785.979194 56.418348 
L 797.899355 67.968411 
L 801.872742 81.373875 
L 805.846129 84.058223 
L 809.819516 74.059725 
L 813.792903 76.178433 
L 825.713065 66.019911 
L 829.686452 68.88975 
L 833.659839 86.240196 
L 837.633226 77.700515 
L 841.606613 75.334689 
L 853.526774 66.295253 
L 857.500161 66.838227 
L 861.473548 50.394776 
L 865.446935 48.852538 
L 869.420323 51.9688 
L 881.340484 67.295391 
L 885.313871 52.491599 
L 889.287258 55.785331 
L 893.260645 43.606754 
L 897.234032 40.41688 
L 909.154194 54.975061 
L 913.127581 46.990603 
L 917.100968 57.204895 
L 921.074355 63.211311 
L 925.047742 55.85319 
L 936.967903 61.927403 
L 940.94129 51.015843 
L 944.914677 56.400991 
L 948.888065 41.130189 
L 952.861452 44.317108 
L 964.781613 50.478149 
L 968.755 41.684407 
L 972.728387 51.453935 
L 976.701774 65.844512 
L 980.675161 60.826936 
L 992.595323 57.02995 
L 996.56871 61.302965 
L 1000.542097 61.852264 
L 1004.515484 73.917972 
L 1008.488871 93.785067 
L 1020.409032 111.300509 
L 1024.382419 112.128859 
L 1028.355806 107.466551 
L 1032.329194 110.920415 
L 1036.302581 117.927161 
L 1048.222742 118.230612 
L 1052.196129 99.567487 
L 1056.169516 95.245553 
L 1060.142903 100.091539 
L 1064.11629 111.186481 
L 1076.036452 100.947724 
L 1080.009839 96.499254 
L 1083.983226 97.850978 
L 1087.956613 81.266368 
L 1091.93 81.266368 
L 1091.93 81.266368 
" style="fill:none;stroke:#bcbd22;stroke-linecap:square;stroke-width:1.5;"/>
   </g>
   <g id="patch_3">
    <path d="M 57.26 344.851367 
L 57.26 25.92 
" style="fill:none;stroke:#000000;stroke-linecap:square;stroke-linejoin:miter;stroke-width:0.8;"/>
   </g>
   <g id="patch_4">
    <path d="M 1141.2 344.851367 
L 1141.2 25.92 
" style="fill:none;stroke:#000000;stroke-linecap:square;stroke-linejoin:miter;stroke-width:0.8;"/>
   </g>
   <g id="patch_5">
    <path d="M 57.26 344.851367 
L 1141.2 344.851367 
" style="fill:none;stroke:#000000;stroke-linecap:square;stroke-linejoin:miter;stroke-width:0.8;"/>
   </g>
   <g id="patch_6">
    <path d="M 57.26 25.92 
L 1141.2 25.92 
" style="fill:none;stroke:#000000;stroke-linecap:square;stroke-linejoin:miter;stroke-width:0.8;"/>
   </g>
   <g id="text_10">
    <!-- Cumulative Log Return: (2010-02-02 ~ 2010-10-08) -->
    <g transform="translate(443.352813 19.92)scale(0.12 -0.12)">
     <defs>
      <path d="M 64.40625 67.28125 
L 64.40625 56.890625 
Q 59.421875 61.53125 53.78125 63.8125 
Q 48.140625 66.109375 41.796875 66.109375 
Q 29.296875 66.109375 22.65625 58.46875 
Q 16.015625 50.828125 16.015625 36.375 
Q 16.015625 21.96875 22.65625 14.328125 
Q 29.296875 6.6875 41.796875 6.6875 
Q 48.140625 6.6875 53.78125 8.984375 
Q 59.421875 11.28125 64.40625 15.921875 
L 64.40625 5.609375 
Q 59.234375 2.09375 53.4375 0.328125 
Q 47.65625 -1.421875 41.21875 -1.421875 
Q 24.65625 -1.421875 15.125 8.703125 
Q 5.609375 18.84375 5.609375 36.375 
Q 5.609375 53.953125 15.125 64.078125 
Q 24.65625 74.21875 41.21875 74.21875 
Q 47.75 74.21875 53.53125 72.484375 
Q 59.328125 70.75 64.40625 67.28125 
z
" id="DejaVuSans-67"/>
      <path d="M 34.28125 27.484375 
Q 23.390625 27.484375 19.1875 25 
Q 14.984375 22.515625 14.984375 16.5 
Q 14.984375 11.71875 18.140625 8.90625 
Q 21.296875 6.109375 26.703125 6.109375 
Q 34.1875 6.109375 38.703125 11.40625 
Q 43.21875 16.703125 43.21875 25.484375 
L 43.21875 27.484375 
z
M 52.203125 31.203125 
L 52.203125 0 
L 43.21875 0 
L 43.21875 8.296875 
Q 40.140625 3.328125 35.546875 0.953125 
Q 30.953125 -1.421875 24.3125 -1.421875 
Q 15.921875 -1.421875 10.953125 3.296875 
Q 6 8.015625 6 15.921875 
Q 6 25.140625 12.171875 29.828125 
Q 18.359375 34.515625 30.609375 34.515625 
L 43.21875 34.515625 
L 43.21875 35.40625 
Q 43.21875 41.609375 39.140625 45 
Q 35.0625 48.390625 27.6875 48.390625 
Q 23 48.390625 18.546875 47.265625 
Q 14.109375 46.140625 10.015625 43.890625 
L 10.015625 52.203125 
Q 14.9375 54.109375 19.578125 55.046875 
Q 24.21875 56 28.609375 56 
Q 40.484375 56 46.34375 49.84375 
Q 52.203125 43.703125 52.203125 31.203125 
z
" id="DejaVuSans-97"/>
      <path d="M 9.421875 54.6875 
L 18.40625 54.6875 
L 18.40625 0 
L 9.421875 0 
z
M 9.421875 75.984375 
L 18.40625 75.984375 
L 18.40625 64.59375 
L 9.421875 64.59375 
z
" id="DejaVuSans-105"/>
      <path d="M 2.984375 54.6875 
L 12.5 54.6875 
L 29.59375 8.796875 
L 46.6875 54.6875 
L 56.203125 54.6875 
L 35.6875 0 
L 23.484375 0 
z
" id="DejaVuSans-118"/>
      <path d="M 9.8125 72.90625 
L 19.671875 72.90625 
L 19.671875 8.296875 
L 55.171875 8.296875 
L 55.171875 0 
L 9.8125 0 
z
" id="DejaVuSans-76"/>
      <path d="M 44.390625 34.1875 
Q 47.5625 33.109375 50.5625 29.59375 
Q 53.5625 26.078125 56.59375 19.921875 
L 66.609375 0 
L 56 0 
L 46.6875 18.703125 
Q 43.0625 26.03125 39.671875 28.421875 
Q 36.28125 30.8125 30.421875 30.8125 
L 19.671875 30.8125 
L 19.671875 0 
L 9.8125 0 
L 9.8125 72.90625 
L 32.078125 72.90625 
Q 44.578125 72.90625 50.734375 67.671875 
Q 56.890625 62.453125 56.890625 51.90625 
Q 56.890625 45.015625 53.6875 40.46875 
Q 50.484375 35.9375 44.390625 34.1875 
z
M 19.671875 64.796875 
L 19.671875 38.921875 
L 32.078125 38.921875 
Q 39.203125 38.921875 42.84375 42.21875 
Q 46.484375 45.515625 46.484375 51.90625 
Q 46.484375 58.296875 42.84375 61.546875 
Q 39.203125 64.796875 32.078125 64.796875 
z
" id="DejaVuSans-82"/>
      <path d="M 11.71875 12.40625 
L 22.015625 12.40625 
L 22.015625 0 
L 11.71875 0 
z
M 11.71875 51.703125 
L 22.015625 51.703125 
L 22.015625 39.3125 
L 11.71875 39.3125 
z
" id="DejaVuSans-58"/>
      <path d="M 31 75.875 
Q 24.46875 64.65625 21.28125 53.65625 
Q 18.109375 42.671875 18.109375 31.390625 
Q 18.109375 20.125 21.3125 9.0625 
Q 24.515625 -2 31 -13.1875 
L 23.1875 -13.1875 
Q 15.875 -1.703125 12.234375 9.375 
Q 8.59375 20.453125 8.59375 31.390625 
Q 8.59375 42.28125 12.203125 53.3125 
Q 15.828125 64.359375 23.1875 75.875 
z
" id="DejaVuSans-40"/>
      <path d="M 73.1875 39.890625 
L 73.1875 31.203125 
Q 68.0625 27.34375 63.6875 25.6875 
Q 59.328125 24.03125 54.59375 24.03125 
Q 49.21875 24.03125 42.09375 26.90625 
Q 41.546875 27.09375 41.3125 27.203125 
Q 40.96875 27.34375 40.234375 27.59375 
Q 32.671875 30.609375 28.078125 30.609375 
Q 23.78125 30.609375 19.578125 28.734375 
Q 15.375 26.859375 10.59375 22.796875 
L 10.59375 31.5 
Q 15.71875 35.359375 20.09375 37.03125 
Q 24.46875 38.71875 29.203125 38.71875 
Q 34.578125 38.71875 41.75 35.796875 
Q 42.234375 35.59375 42.484375 35.5 
Q 42.875 35.359375 43.5625 35.109375 
Q 51.125 32.078125 55.71875 32.078125 
Q 59.90625 32.078125 64.03125 33.9375 
Q 68.171875 35.796875 73.1875 39.890625 
z
" id="DejaVuSans-126"/>
      <path d="M 31.78125 34.625 
Q 24.75 34.625 20.71875 30.859375 
Q 16.703125 27.09375 16.703125 20.515625 
Q 16.703125 13.921875 20.71875 10.15625 
Q 24.75 6.390625 31.78125 6.390625 
Q 38.8125 6.390625 42.859375 10.171875 
Q 46.921875 13.96875 46.921875 20.515625 
Q 46.921875 27.09375 42.890625 30.859375 
Q 38.875 34.625 31.78125 34.625 
z
M 21.921875 38.8125 
Q 15.578125 40.375 12.03125 44.71875 
Q 8.5 49.078125 8.5 55.328125 
Q 8.5 64.0625 14.71875 69.140625 
Q 20.953125 74.21875 31.78125 74.21875 
Q 42.671875 74.21875 48.875 69.140625 
Q 55.078125 64.0625 55.078125 55.328125 
Q 55.078125 49.078125 51.53125 44.71875 
Q 48 40.375 41.703125 38.8125 
Q 48.828125 37.15625 52.796875 32.3125 
Q 56.78125 27.484375 56.78125 20.515625 
Q 56.78125 9.90625 50.3125 4.234375 
Q 43.84375 -1.421875 31.78125 -1.421875 
Q 19.734375 -1.421875 13.25 4.234375 
Q 6.78125 9.90625 6.78125 20.515625 
Q 6.78125 27.484375 10.78125 32.3125 
Q 14.796875 37.15625 21.921875 38.8125 
z
M 18.3125 54.390625 
Q 18.3125 48.734375 21.84375 45.5625 
Q 25.390625 42.390625 31.78125 42.390625 
Q 38.140625 42.390625 41.71875 45.5625 
Q 45.3125 48.734375 45.3125 54.390625 
Q 45.3125 60.0625 41.71875 63.234375 
Q 38.140625 66.40625 31.78125 66.40625 
Q 25.390625 66.40625 21.84375 63.234375 
Q 18.3125 60.0625 18.3125 54.390625 
z
" id="DejaVuSans-56"/>
      <path d="M 8.015625 75.875 
L 15.828125 75.875 
Q 23.140625 64.359375 26.78125 53.3125 
Q 30.421875 42.28125 30.421875 31.390625 
Q 30.421875 20.453125 26.78125 9.375 
Q 23.140625 -1.703125 15.828125 -13.1875 
L 8.015625 -13.1875 
Q 14.5 -2 17.703125 9.0625 
Q 20.90625 20.125 20.90625 31.390625 
Q 20.90625 42.671875 17.703125 53.65625 
Q 14.5 64.65625 8.015625 75.875 
z
" id="DejaVuSans-41"/>
     </defs>
     <use xlink:href="#DejaVuSans-67"/>
     <use x="69.824219" xlink:href="#DejaVuSans-117"/>
     <use x="133.203125" xlink:href="#DejaVuSans-109"/>
     <use x="230.615234" xlink:href="#DejaVuSans-117"/>
     <use x="293.994141" xlink:href="#DejaVuSans-108"/>
     <use x="321.777344" xlink:href="#DejaVuSans-97"/>
     <use x="383.056641" xlink:href="#DejaVuSans-116"/>
     <use x="422.265625" xlink:href="#DejaVuSans-105"/>
     <use x="450.048828" xlink:href="#DejaVuSans-118"/>
     <use x="509.228516" xlink:href="#DejaVuSans-101"/>
     <use x="570.751953" xlink:href="#DejaVuSans-32"/>
     <use x="602.539062" xlink:href="#DejaVuSans-76"/>
     <use x="656.501953" xlink:href="#DejaVuSans-111"/>
     <use x="717.683594" xlink:href="#DejaVuSans-103"/>
     <use x="781.160156" xlink:href="#DejaVuSans-32"/>
     <use x="812.947266" xlink:href="#DejaVuSans-82"/>
     <use x="877.929688" xlink:href="#DejaVuSans-101"/>
     <use x="939.453125" xlink:href="#DejaVuSans-116"/>
     <use x="978.662109" xlink:href="#DejaVuSans-117"/>
     <use x="1042.041016" xlink:href="#DejaVuSans-114"/>
     <use x="1081.404297" xlink:href="#DejaVuSans-110"/>
     <use x="1144.783203" xlink:href="#DejaVuSans-58"/>
     <use x="1178.474609" xlink:href="#DejaVuSans-32"/>
     <use x="1210.261719" xlink:href="#DejaVuSans-40"/>
     <use x="1249.275391" xlink:href="#DejaVuSans-50"/>
     <use x="1312.898438" xlink:href="#DejaVuSans-48"/>
     <use x="1376.521484" xlink:href="#DejaVuSans-49"/>
     <use x="1440.144531" xlink:href="#DejaVuSans-48"/>
     <use x="1503.767578" xlink:href="#DejaVuSans-45"/>
     <use x="1539.851562" xlink:href="#DejaVuSans-48"/>
     <use x="1603.474609" xlink:href="#DejaVuSans-50"/>
     <use x="1667.097656" xlink:href="#DejaVuSans-45"/>
     <use x="1703.181641" xlink:href="#DejaVuSans-48"/>
     <use x="1766.804688" xlink:href="#DejaVuSans-50"/>
     <use x="1830.427734" xlink:href="#DejaVuSans-32"/>
     <use x="1862.214844" xlink:href="#DejaVuSans-126"/>
     <use x="1946.003906" xlink:href="#DejaVuSans-32"/>
     <use x="1977.791016" xlink:href="#DejaVuSans-50"/>
     <use x="2041.414062" xlink:href="#DejaVuSans-48"/>
     <use x="2105.037109" xlink:href="#DejaVuSans-49"/>
     <use x="2168.660156" xlink:href="#DejaVuSans-48"/>
     <use x="2232.283203" xlink:href="#DejaVuSans-45"/>
     <use x="2268.367188" xlink:href="#DejaVuSans-49"/>
     <use x="2331.990234" xlink:href="#DejaVuSans-48"/>
     <use x="2395.613281" xlink:href="#DejaVuSans-45"/>
     <use x="2431.697266" xlink:href="#DejaVuSans-48"/>
     <use x="2495.320312" xlink:href="#DejaVuSans-56"/>
     <use x="2558.943359" xlink:href="#DejaVuSans-41"/>
    </g>
   </g>
   <g id="legend_1">
    <g id="patch_7">
     <path d="M 64.26 123.379375 
L 160.749062 123.379375 
Q 162.749062 123.379375 162.749062 121.379375 
L 162.749062 32.92 
Q 162.749062 30.92 160.749062 30.92 
L 64.26 30.92 
Q 62.26 30.92 62.26 32.92 
L 62.26 121.379375 
Q 62.26 123.379375 64.26 123.379375 
z
" style="fill:#ffffff;opacity:0.8;stroke:#cccccc;stroke-linejoin:miter;"/>
    </g>
    <g id="line2d_23">
     <path d="M 66.26 39.018438 
L 86.26 39.018438 
" style="fill:none;stroke:#9467bd;stroke-linecap:square;stroke-width:1.5;"/>
    </g>
    <g id="line2d_24"/>
    <g id="text_11">
     <!-- group_5 -->
     <g transform="translate(94.26 42.518438)scale(0.1 -0.1)">
      <defs>
       <path d="M 18.109375 8.203125 
L 18.109375 -20.796875 
L 9.078125 -20.796875 
L 9.078125 54.6875 
L 18.109375 54.6875 
L 18.109375 46.390625 
Q 20.953125 51.265625 25.265625 53.625 
Q 29.59375 56 35.59375 56 
Q 45.5625 56 51.78125 48.09375 
Q 58.015625 40.1875 58.015625 27.296875 
Q 58.015625 14.40625 51.78125 6.484375 
Q 45.5625 -1.421875 35.59375 -1.421875 
Q 29.59375 -1.421875 25.265625 0.953125 
Q 20.953125 3.328125 18.109375 8.203125 
z
M 48.6875 27.296875 
Q 48.6875 37.203125 44.609375 42.84375 
Q 40.53125 48.484375 33.40625 48.484375 
Q 26.265625 48.484375 22.1875 42.84375 
Q 18.109375 37.203125 18.109375 27.296875 
Q 18.109375 17.390625 22.1875 11.75 
Q 26.265625 6.109375 33.40625 6.109375 
Q 40.53125 6.109375 44.609375 11.75 
Q 48.6875 17.390625 48.6875 27.296875 
z
" id="DejaVuSans-112"/>
       <path d="M 50.984375 -16.609375 
L 50.984375 -23.578125 
L -0.984375 -23.578125 
L -0.984375 -16.609375 
z
" id="DejaVuSans-95"/>
      </defs>
      <use xlink:href="#DejaVuSans-103"/>
      <use x="63.476562" xlink:href="#DejaVuSans-114"/>
      <use x="102.339844" xlink:href="#DejaVuSans-111"/>
      <use x="163.521484" xlink:href="#DejaVuSans-117"/>
      <use x="226.900391" xlink:href="#DejaVuSans-112"/>
      <use x="290.376953" xlink:href="#DejaVuSans-95"/>
      <use x="340.376953" xlink:href="#DejaVuSans-53"/>
     </g>
    </g>
    <g id="line2d_25">
     <path d="M 66.26 53.974688 
L 86.26 53.974688 
" style="fill:none;stroke:#1f77b4;stroke-linecap:square;stroke-width:1.5;"/>
    </g>
    <g id="line2d_26"/>
    <g id="text_12">
     <!-- group_1 -->
     <g transform="translate(94.26 57.474688)scale(0.1 -0.1)">
      <use xlink:href="#DejaVuSans-103"/>
      <use x="63.476562" xlink:href="#DejaVuSans-114"/>
      <use x="102.339844" xlink:href="#DejaVuSans-111"/>
      <use x="163.521484" xlink:href="#DejaVuSans-117"/>
      <use x="226.900391" xlink:href="#DejaVuSans-112"/>
      <use x="290.376953" xlink:href="#DejaVuSans-95"/>
      <use x="340.376953" xlink:href="#DejaVuSans-49"/>
     </g>
    </g>
    <g id="line2d_27">
     <path d="M 66.26 68.930938 
L 86.26 68.930938 
" style="fill:none;stroke:#8c564b;stroke-linecap:square;stroke-width:1.5;"/>
    </g>
    <g id="line2d_28"/>
    <g id="text_13">
     <!-- benchmark -->
     <g transform="translate(94.26 72.430938)scale(0.1 -0.1)">
      <defs>
       <path d="M 48.6875 27.296875 
Q 48.6875 37.203125 44.609375 42.84375 
Q 40.53125 48.484375 33.40625 48.484375 
Q 26.265625 48.484375 22.1875 42.84375 
Q 18.109375 37.203125 18.109375 27.296875 
Q 18.109375 17.390625 22.1875 11.75 
Q 26.265625 6.109375 33.40625 6.109375 
Q 40.53125 6.109375 44.609375 11.75 
Q 48.6875 17.390625 48.6875 27.296875 
z
M 18.109375 46.390625 
Q 20.953125 51.265625 25.265625 53.625 
Q 29.59375 56 35.59375 56 
Q 45.5625 56 51.78125 48.09375 
Q 58.015625 40.1875 58.015625 27.296875 
Q 58.015625 14.40625 51.78125 6.484375 
Q 45.5625 -1.421875 35.59375 -1.421875 
Q 29.59375 -1.421875 25.265625 0.953125 
Q 20.953125 3.328125 18.109375 8.203125 
L 18.109375 0 
L 9.078125 0 
L 9.078125 75.984375 
L 18.109375 75.984375 
z
" id="DejaVuSans-98"/>
       <path d="M 54.890625 33.015625 
L 54.890625 0 
L 45.90625 0 
L 45.90625 32.71875 
Q 45.90625 40.484375 42.875 44.328125 
Q 39.84375 48.1875 33.796875 48.1875 
Q 26.515625 48.1875 22.3125 43.546875 
Q 18.109375 38.921875 18.109375 30.90625 
L 18.109375 0 
L 9.078125 0 
L 9.078125 75.984375 
L 18.109375 75.984375 
L 18.109375 46.1875 
Q 21.34375 51.125 25.703125 53.5625 
Q 30.078125 56 35.796875 56 
Q 45.21875 56 50.046875 50.171875 
Q 54.890625 44.34375 54.890625 33.015625 
z
" id="DejaVuSans-104"/>
       <path d="M 9.078125 75.984375 
L 18.109375 75.984375 
L 18.109375 31.109375 
L 44.921875 54.6875 
L 56.390625 54.6875 
L 27.390625 29.109375 
L 57.625 0 
L 45.90625 0 
L 18.109375 26.703125 
L 18.109375 0 
L 9.078125 0 
z
" id="DejaVuSans-107"/>
      </defs>
      <use xlink:href="#DejaVuSans-98"/>
      <use x="63.476562" xlink:href="#DejaVuSans-101"/>
      <use x="125" xlink:href="#DejaVuSans-110"/>
      <use x="188.378906" xlink:href="#DejaVuSans-99"/>
      <use x="243.359375" xlink:href="#DejaVuSans-104"/>
      <use x="306.738281" xlink:href="#DejaVuSans-109"/>
      <use x="404.150391" xlink:href="#DejaVuSans-97"/>
      <use x="465.429688" xlink:href="#DejaVuSans-114"/>
      <use x="506.542969" xlink:href="#DejaVuSans-107"/>
     </g>
    </g>
    <g id="line2d_29">
     <path d="M 66.26 83.609062 
L 86.26 83.609062 
" style="fill:none;stroke:#e377c2;stroke-linecap:square;stroke-width:1.5;"/>
    </g>
    <g id="line2d_30"/>
    <g id="text_14">
     <!-- long_excess -->
     <g transform="translate(94.26 87.109062)scale(0.1 -0.1)">
      <defs>
       <path d="M 54.890625 54.6875 
L 35.109375 28.078125 
L 55.90625 0 
L 45.3125 0 
L 29.390625 21.484375 
L 13.484375 0 
L 2.875 0 
L 24.125 28.609375 
L 4.6875 54.6875 
L 15.28125 54.6875 
L 29.78125 35.203125 
L 44.28125 54.6875 
z
" id="DejaVuSans-120"/>
      </defs>
      <use xlink:href="#DejaVuSans-108"/>
      <use x="27.783203" xlink:href="#DejaVuSans-111"/>
      <use x="88.964844" xlink:href="#DejaVuSans-110"/>
      <use x="152.34375" xlink:href="#DejaVuSans-103"/>
      <use x="215.820312" xlink:href="#DejaVuSans-95"/>
      <use x="265.820312" xlink:href="#DejaVuSans-101"/>
      <use x="325.59375" xlink:href="#DejaVuSans-120"/>
      <use x="383.023438" xlink:href="#DejaVuSans-99"/>
      <use x="438.003906" xlink:href="#DejaVuSans-101"/>
      <use x="499.527344" xlink:href="#DejaVuSans-115"/>
      <use x="551.626953" xlink:href="#DejaVuSans-115"/>
     </g>
    </g>
    <g id="line2d_31">
     <path d="M 66.26 98.565313 
L 86.26 98.565313 
" style="fill:none;stroke:#7f7f7f;stroke-linecap:square;stroke-width:1.5;"/>
    </g>
    <g id="line2d_32"/>
    <g id="text_15">
     <!-- short_excess -->
     <g transform="translate(94.26 102.065313)scale(0.1 -0.1)">
      <use xlink:href="#DejaVuSans-115"/>
      <use x="52.099609" xlink:href="#DejaVuSans-104"/>
      <use x="115.478516" xlink:href="#DejaVuSans-111"/>
      <use x="176.660156" xlink:href="#DejaVuSans-114"/>
      <use x="217.773438" xlink:href="#DejaVuSans-116"/>
      <use x="256.982422" xlink:href="#DejaVuSans-95"/>
      <use x="306.982422" xlink:href="#DejaVuSans-101"/>
      <use x="366.755859" xlink:href="#DejaVuSans-120"/>
      <use x="424.185547" xlink:href="#DejaVuSans-99"/>
      <use x="479.166016" xlink:href="#DejaVuSans-101"/>
      <use x="540.689453" xlink:href="#DejaVuSans-115"/>
      <use x="592.789062" xlink:href="#DejaVuSans-115"/>
     </g>
    </g>
    <g id="line2d_33">
     <path d="M 66.26 113.521563 
L 86.26 113.521563 
" style="fill:none;stroke:#bcbd22;stroke-linecap:square;stroke-width:1.5;"/>
    </g>
    <g id="line2d_34"/>
    <g id="text_16">
     <!-- long_short -->
     <g transform="translate(94.26 117.021563)scale(0.1 -0.1)">
      <use xlink:href="#DejaVuSans-108"/>
      <use x="27.783203" xlink:href="#DejaVuSans-111"/>
      <use x="88.964844" xlink:href="#DejaVuSans-110"/>
      <use x="152.34375" xlink:href="#DejaVuSans-103"/>
      <use x="215.820312" xlink:href="#DejaVuSans-95"/>
      <use x="265.820312" xlink:href="#DejaVuSans-115"/>
      <use x="317.919922" xlink:href="#DejaVuSans-104"/>
      <use x="381.298828" xlink:href="#DejaVuSans-111"/>
      <use x="442.480469" xlink:href="#DejaVuSans-114"/>
      <use x="483.59375" xlink:href="#DejaVuSans-116"/>
     </g>
    </g>
   </g>
  </g>
 </g>
 <defs>
  <clipPath id="pbbe8ac741e">
   <rect height="318.931367" width="1083.94" x="57.26" y="25.92"/>
  </clipPath>
 </defs>
</svg>
