<?xml version="1.0" encoding="utf-8" standalone="no"?>
<!DOCTYPE svg PUBLIC "-//W3C//DTD SVG 1.1//EN"
  "http://www.w3.org/Graphics/SVG/1.1/DTD/svg11.dtd">
<!-- Created with matplotlib (https://matplotlib.org/) -->
<svg height="374.4pt" version="1.1" viewBox="0 0 1152 374.4" width="1152pt" xmlns="http://www.w3.org/2000/svg" xmlns:xlink="http://www.w3.org/1999/xlink">
 <metadata>
  <rdf:RDF xmlns:cc="http://creativecommons.org/ns#" xmlns:dc="http://purl.org/dc/elements/1.1/" xmlns:rdf="http://www.w3.org/1999/02/22-rdf-syntax-ns#">
   <cc:Work>
    <dc:type rdf:resource="http://purl.org/dc/dcmitype/StillImage"/>
    <dc:date>2023-10-11T16:36:51.171314</dc:date>
    <dc:format>image/svg+xml</dc:format>
    <dc:creator>
     <cc:Agent>
      <dc:title>Matplotlib v3.3.4, https://matplotlib.org/</dc:title>
     </cc:Agent>
    </dc:creator>
   </cc:Work>
  </rdf:RDF>
 </metadata>
 <defs>
  <style type="text/css">*{stroke-linecap:butt;stroke-linejoin:round;}</style>
 </defs>
 <g id="figure_1">
  <g id="patch_1">
   <path d="M 0 374.4 
L 1152 374.4 
L 1152 0 
L 0 0 
z
" style="fill:#ffffff;"/>
  </g>
  <g id="axes_1">
   <g id="patch_2">
    <path d="M 53.66 360.1 
L 1141.2 360.1 
L 1141.2 25.92 
L 53.66 25.92 
z
" style="fill:#ffffff;"/>
   </g>
   <g id="matplotlib.axis_1"/>
   <g id="matplotlib.axis_2">
    <g id="ytick_1">
     <g id="line2d_1">
      <path clip-path="url(#pb563a5ed89)" d="M 53.66 356.960532 
L 1141.2 356.960532 
" style="fill:none;stroke:#b0b0b0;stroke-linecap:square;stroke-width:0.8;"/>
     </g>
     <g id="line2d_2">
      <defs>
       <path d="M 0 0 
L -3.5 0 
" id="mb07f6cc185" style="stroke:#000000;stroke-width:0.8;"/>
      </defs>
      <g>
       <use style="stroke:#000000;stroke-width:0.8;" x="53.66" xlink:href="#mb07f6cc185" y="356.960532"/>
      </g>
     </g>
     <g id="text_1">
      <!-- 0.50 -->
      <g transform="translate(24.394375 360.759751)scale(0.1 -0.1)">
       <defs>
        <path d="M 31.78125 66.40625 
Q 24.171875 66.40625 20.328125 58.90625 
Q 16.5 51.421875 16.5 36.375 
Q 16.5 21.390625 20.328125 13.890625 
Q 24.171875 6.390625 31.78125 6.390625 
Q 39.453125 6.390625 43.28125 13.890625 
Q 47.125 21.390625 47.125 36.375 
Q 47.125 51.421875 43.28125 58.90625 
Q 39.453125 66.40625 31.78125 66.40625 
z
M 31.78125 74.21875 
Q 44.046875 74.21875 50.515625 64.515625 
Q 56.984375 54.828125 56.984375 36.375 
Q 56.984375 17.96875 50.515625 8.265625 
Q 44.046875 -1.421875 31.78125 -1.421875 
Q 19.53125 -1.421875 13.0625 8.265625 
Q 6.59375 17.96875 6.59375 36.375 
Q 6.59375 54.828125 13.0625 64.515625 
Q 19.53125 74.21875 31.78125 74.21875 
z
" id="DejaVuSans-48"/>
        <path d="M 10.6875 12.40625 
L 21 12.40625 
L 21 0 
L 10.6875 0 
z
" id="DejaVuSans-46"/>
        <path d="M 10.796875 72.90625 
L 49.515625 72.90625 
L 49.515625 64.59375 
L 19.828125 64.59375 
L 19.828125 46.734375 
Q 21.96875 47.46875 24.109375 47.828125 
Q 26.265625 48.1875 28.421875 48.1875 
Q 40.625 48.1875 47.75 41.5 
Q 54.890625 34.8125 54.890625 23.390625 
Q 54.890625 11.625 47.5625 5.09375 
Q 40.234375 -1.421875 26.90625 -1.421875 
Q 22.3125 -1.421875 17.546875 -0.640625 
Q 12.796875 0.140625 7.71875 1.703125 
L 7.71875 11.625 
Q 12.109375 9.234375 16.796875 8.0625 
Q 21.484375 6.890625 26.703125 6.890625 
Q 35.15625 6.890625 40.078125 11.328125 
Q 45.015625 15.765625 45.015625 23.390625 
Q 45.015625 31 40.078125 35.4375 
Q 35.15625 39.890625 26.703125 39.890625 
Q 22.75 39.890625 18.8125 39.015625 
Q 14.890625 38.140625 10.796875 36.28125 
z
" id="DejaVuSans-53"/>
       </defs>
       <use xlink:href="#DejaVuSans-48"/>
       <use x="63.623047" xlink:href="#DejaVuSans-46"/>
       <use x="95.410156" xlink:href="#DejaVuSans-53"/>
       <use x="159.033203" xlink:href="#DejaVuSans-48"/>
      </g>
     </g>
    </g>
    <g id="ytick_2">
     <g id="line2d_3">
      <path clip-path="url(#pb563a5ed89)" d="M 53.66 315.918256 
L 1141.2 315.918256 
" style="fill:none;stroke:#b0b0b0;stroke-linecap:square;stroke-width:0.8;"/>
     </g>
     <g id="line2d_4">
      <g>
       <use style="stroke:#000000;stroke-width:0.8;" x="53.66" xlink:href="#mb07f6cc185" y="315.918256"/>
      </g>
     </g>
     <g id="text_2">
      <!-- 0.75 -->
      <g transform="translate(24.394375 319.717475)scale(0.1 -0.1)">
       <defs>
        <path d="M 8.203125 72.90625 
L 55.078125 72.90625 
L 55.078125 68.703125 
L 28.609375 0 
L 18.3125 0 
L 43.21875 64.59375 
L 8.203125 64.59375 
z
" id="DejaVuSans-55"/>
       </defs>
       <use xlink:href="#DejaVuSans-48"/>
       <use x="63.623047" xlink:href="#DejaVuSans-46"/>
       <use x="95.410156" xlink:href="#DejaVuSans-55"/>
       <use x="159.033203" xlink:href="#DejaVuSans-53"/>
      </g>
     </g>
    </g>
    <g id="ytick_3">
     <g id="line2d_5">
      <path clip-path="url(#pb563a5ed89)" d="M 53.66 274.87598 
L 1141.2 274.87598 
" style="fill:none;stroke:#b0b0b0;stroke-linecap:square;stroke-width:0.8;"/>
     </g>
     <g id="line2d_6">
      <g>
       <use style="stroke:#000000;stroke-width:0.8;" x="53.66" xlink:href="#mb07f6cc185" y="274.87598"/>
      </g>
     </g>
     <g id="text_3">
      <!-- 1.00 -->
      <g transform="translate(24.394375 278.675199)scale(0.1 -0.1)">
       <defs>
        <path d="M 12.40625 8.296875 
L 28.515625 8.296875 
L 28.515625 63.921875 
L 10.984375 60.40625 
L 10.984375 69.390625 
L 28.421875 72.90625 
L 38.28125 72.90625 
L 38.28125 8.296875 
L 54.390625 8.296875 
L 54.390625 0 
L 12.40625 0 
z
" id="DejaVuSans-49"/>
       </defs>
       <use xlink:href="#DejaVuSans-49"/>
       <use x="63.623047" xlink:href="#DejaVuSans-46"/>
       <use x="95.410156" xlink:href="#DejaVuSans-48"/>
       <use x="159.033203" xlink:href="#DejaVuSans-48"/>
      </g>
     </g>
    </g>
    <g id="ytick_4">
     <g id="line2d_7">
      <path clip-path="url(#pb563a5ed89)" d="M 53.66 233.833704 
L 1141.2 233.833704 
" style="fill:none;stroke:#b0b0b0;stroke-linecap:square;stroke-width:0.8;"/>
     </g>
     <g id="line2d_8">
      <g>
       <use style="stroke:#000000;stroke-width:0.8;" x="53.66" xlink:href="#mb07f6cc185" y="233.833704"/>
      </g>
     </g>
     <g id="text_4">
      <!-- 1.25 -->
      <g transform="translate(24.394375 237.632923)scale(0.1 -0.1)">
       <defs>
        <path d="M 19.1875 8.296875 
L 53.609375 8.296875 
L 53.609375 0 
L 7.328125 0 
L 7.328125 8.296875 
Q 12.9375 14.109375 22.625 23.890625 
Q 32.328125 33.6875 34.8125 36.53125 
Q 39.546875 41.84375 41.421875 45.53125 
Q 43.3125 49.21875 43.3125 52.78125 
Q 43.3125 58.59375 39.234375 62.25 
Q 35.15625 65.921875 28.609375 65.921875 
Q 23.96875 65.921875 18.8125 64.3125 
Q 13.671875 62.703125 7.8125 59.421875 
L 7.8125 69.390625 
Q 13.765625 71.78125 18.9375 73 
Q 24.125 74.21875 28.421875 74.21875 
Q 39.75 74.21875 46.484375 68.546875 
Q 53.21875 62.890625 53.21875 53.421875 
Q 53.21875 48.921875 51.53125 44.890625 
Q 49.859375 40.875 45.40625 35.40625 
Q 44.1875 33.984375 37.640625 27.21875 
Q 31.109375 20.453125 19.1875 8.296875 
z
" id="DejaVuSans-50"/>
       </defs>
       <use xlink:href="#DejaVuSans-49"/>
       <use x="63.623047" xlink:href="#DejaVuSans-46"/>
       <use x="95.410156" xlink:href="#DejaVuSans-50"/>
       <use x="159.033203" xlink:href="#DejaVuSans-53"/>
      </g>
     </g>
    </g>
    <g id="ytick_5">
     <g id="line2d_9">
      <path clip-path="url(#pb563a5ed89)" d="M 53.66 192.791428 
L 1141.2 192.791428 
" style="fill:none;stroke:#b0b0b0;stroke-linecap:square;stroke-width:0.8;"/>
     </g>
     <g id="line2d_10">
      <g>
       <use style="stroke:#000000;stroke-width:0.8;" x="53.66" xlink:href="#mb07f6cc185" y="192.791428"/>
      </g>
     </g>
     <g id="text_5">
      <!-- 1.50 -->
      <g transform="translate(24.394375 196.590647)scale(0.1 -0.1)">
       <use xlink:href="#DejaVuSans-49"/>
       <use x="63.623047" xlink:href="#DejaVuSans-46"/>
       <use x="95.410156" xlink:href="#DejaVuSans-53"/>
       <use x="159.033203" xlink:href="#DejaVuSans-48"/>
      </g>
     </g>
    </g>
    <g id="ytick_6">
     <g id="line2d_11">
      <path clip-path="url(#pb563a5ed89)" d="M 53.66 151.749152 
L 1141.2 151.749152 
" style="fill:none;stroke:#b0b0b0;stroke-linecap:square;stroke-width:0.8;"/>
     </g>
     <g id="line2d_12">
      <g>
       <use style="stroke:#000000;stroke-width:0.8;" x="53.66" xlink:href="#mb07f6cc185" y="151.749152"/>
      </g>
     </g>
     <g id="text_6">
      <!-- 1.75 -->
      <g transform="translate(24.394375 155.548371)scale(0.1 -0.1)">
       <use xlink:href="#DejaVuSans-49"/>
       <use x="63.623047" xlink:href="#DejaVuSans-46"/>
       <use x="95.410156" xlink:href="#DejaVuSans-55"/>
       <use x="159.033203" xlink:href="#DejaVuSans-53"/>
      </g>
     </g>
    </g>
    <g id="ytick_7">
     <g id="line2d_13">
      <path clip-path="url(#pb563a5ed89)" d="M 53.66 110.706876 
L 1141.2 110.706876 
" style="fill:none;stroke:#b0b0b0;stroke-linecap:square;stroke-width:0.8;"/>
     </g>
     <g id="line2d_14">
      <g>
       <use style="stroke:#000000;stroke-width:0.8;" x="53.66" xlink:href="#mb07f6cc185" y="110.706876"/>
      </g>
     </g>
     <g id="text_7">
      <!-- 2.00 -->
      <g transform="translate(24.394375 114.506095)scale(0.1 -0.1)">
       <use xlink:href="#DejaVuSans-50"/>
       <use x="63.623047" xlink:href="#DejaVuSans-46"/>
       <use x="95.410156" xlink:href="#DejaVuSans-48"/>
       <use x="159.033203" xlink:href="#DejaVuSans-48"/>
      </g>
     </g>
    </g>
    <g id="ytick_8">
     <g id="line2d_15">
      <path clip-path="url(#pb563a5ed89)" d="M 53.66 69.6646 
L 1141.2 69.6646 
" style="fill:none;stroke:#b0b0b0;stroke-linecap:square;stroke-width:0.8;"/>
     </g>
     <g id="line2d_16">
      <g>
       <use style="stroke:#000000;stroke-width:0.8;" x="53.66" xlink:href="#mb07f6cc185" y="69.6646"/>
      </g>
     </g>
     <g id="text_8">
      <!-- 2.25 -->
      <g transform="translate(24.394375 73.463819)scale(0.1 -0.1)">
       <use xlink:href="#DejaVuSans-50"/>
       <use x="63.623047" xlink:href="#DejaVuSans-46"/>
       <use x="95.410156" xlink:href="#DejaVuSans-50"/>
       <use x="159.033203" xlink:href="#DejaVuSans-53"/>
      </g>
     </g>
    </g>
    <g id="ytick_9">
     <g id="line2d_17">
      <path clip-path="url(#pb563a5ed89)" d="M 53.66 28.622324 
L 1141.2 28.622324 
" style="fill:none;stroke:#b0b0b0;stroke-linecap:square;stroke-width:0.8;"/>
     </g>
     <g id="line2d_18">
      <g>
       <use style="stroke:#000000;stroke-width:0.8;" x="53.66" xlink:href="#mb07f6cc185" y="28.622324"/>
      </g>
     </g>
     <g id="text_9">
      <!-- 2.50 -->
      <g transform="translate(24.394375 32.421543)scale(0.1 -0.1)">
       <use xlink:href="#DejaVuSans-50"/>
       <use x="63.623047" xlink:href="#DejaVuSans-46"/>
       <use x="95.410156" xlink:href="#DejaVuSans-53"/>
       <use x="159.033203" xlink:href="#DejaVuSans-48"/>
      </g>
     </g>
    </g>
    <g id="text_10">
     <!-- net value -->
     <g transform="translate(18.314687 216.462344)rotate(-90)scale(0.1 -0.1)">
      <defs>
       <path d="M 54.890625 33.015625 
L 54.890625 0 
L 45.90625 0 
L 45.90625 32.71875 
Q 45.90625 40.484375 42.875 44.328125 
Q 39.84375 48.1875 33.796875 48.1875 
Q 26.515625 48.1875 22.3125 43.546875 
Q 18.109375 38.921875 18.109375 30.90625 
L 18.109375 0 
L 9.078125 0 
L 9.078125 54.6875 
L 18.109375 54.6875 
L 18.109375 46.1875 
Q 21.34375 51.125 25.703125 53.5625 
Q 30.078125 56 35.796875 56 
Q 45.21875 56 50.046875 50.171875 
Q 54.890625 44.34375 54.890625 33.015625 
z
" id="DejaVuSans-110"/>
       <path d="M 56.203125 29.59375 
L 56.203125 25.203125 
L 14.890625 25.203125 
Q 15.484375 15.921875 20.484375 11.0625 
Q 25.484375 6.203125 34.421875 6.203125 
Q 39.59375 6.203125 44.453125 7.46875 
Q 49.3125 8.734375 54.109375 11.28125 
L 54.109375 2.78125 
Q 49.265625 0.734375 44.1875 -0.34375 
Q 39.109375 -1.421875 33.890625 -1.421875 
Q 20.796875 -1.421875 13.15625 6.1875 
Q 5.515625 13.8125 5.515625 26.8125 
Q 5.515625 40.234375 12.765625 48.109375 
Q 20.015625 56 32.328125 56 
Q 43.359375 56 49.78125 48.890625 
Q 56.203125 41.796875 56.203125 29.59375 
z
M 47.21875 32.234375 
Q 47.125 39.59375 43.09375 43.984375 
Q 39.0625 48.390625 32.421875 48.390625 
Q 24.90625 48.390625 20.390625 44.140625 
Q 15.875 39.890625 15.1875 32.171875 
z
" id="DejaVuSans-101"/>
       <path d="M 18.3125 70.21875 
L 18.3125 54.6875 
L 36.8125 54.6875 
L 36.8125 47.703125 
L 18.3125 47.703125 
L 18.3125 18.015625 
Q 18.3125 11.328125 20.140625 9.421875 
Q 21.96875 7.515625 27.59375 7.515625 
L 36.8125 7.515625 
L 36.8125 0 
L 27.59375 0 
Q 17.1875 0 13.234375 3.875 
Q 9.28125 7.765625 9.28125 18.015625 
L 9.28125 47.703125 
L 2.6875 47.703125 
L 2.6875 54.6875 
L 9.28125 54.6875 
L 9.28125 70.21875 
z
" id="DejaVuSans-116"/>
       <path id="DejaVuSans-32"/>
       <path d="M 2.984375 54.6875 
L 12.5 54.6875 
L 29.59375 8.796875 
L 46.6875 54.6875 
L 56.203125 54.6875 
L 35.6875 0 
L 23.484375 0 
z
" id="DejaVuSans-118"/>
       <path d="M 34.28125 27.484375 
Q 23.390625 27.484375 19.1875 25 
Q 14.984375 22.515625 14.984375 16.5 
Q 14.984375 11.71875 18.140625 8.90625 
Q 21.296875 6.109375 26.703125 6.109375 
Q 34.1875 6.109375 38.703125 11.40625 
Q 43.21875 16.703125 43.21875 25.484375 
L 43.21875 27.484375 
z
M 52.203125 31.203125 
L 52.203125 0 
L 43.21875 0 
L 43.21875 8.296875 
Q 40.140625 3.328125 35.546875 0.953125 
Q 30.953125 -1.421875 24.3125 -1.421875 
Q 15.921875 -1.421875 10.953125 3.296875 
Q 6 8.015625 6 15.921875 
Q 6 25.140625 12.171875 29.828125 
Q 18.359375 34.515625 30.609375 34.515625 
L 43.21875 34.515625 
L 43.21875 35.40625 
Q 43.21875 41.609375 39.140625 45 
Q 35.0625 48.390625 27.6875 48.390625 
Q 23 48.390625 18.546875 47.265625 
Q 14.109375 46.140625 10.015625 43.890625 
L 10.015625 52.203125 
Q 14.9375 54.109375 19.578125 55.046875 
Q 24.21875 56 28.609375 56 
Q 40.484375 56 46.34375 49.84375 
Q 52.203125 43.703125 52.203125 31.203125 
z
" id="DejaVuSans-97"/>
       <path d="M 9.421875 75.984375 
L 18.40625 75.984375 
L 18.40625 0 
L 9.421875 0 
z
" id="DejaVuSans-108"/>
       <path d="M 8.5 21.578125 
L 8.5 54.6875 
L 17.484375 54.6875 
L 17.484375 21.921875 
Q 17.484375 14.15625 20.5 10.265625 
Q 23.53125 6.390625 29.59375 6.390625 
Q 36.859375 6.390625 41.078125 11.03125 
Q 45.3125 15.671875 45.3125 23.6875 
L 45.3125 54.6875 
L 54.296875 54.6875 
L 54.296875 0 
L 45.3125 0 
L 45.3125 8.40625 
Q 42.046875 3.421875 37.71875 1 
Q 33.40625 -1.421875 27.6875 -1.421875 
Q 18.265625 -1.421875 13.375 4.4375 
Q 8.5 10.296875 8.5 21.578125 
z
M 31.109375 56 
z
" id="DejaVuSans-117"/>
      </defs>
      <use xlink:href="#DejaVuSans-110"/>
      <use x="63.378906" xlink:href="#DejaVuSans-101"/>
      <use x="124.902344" xlink:href="#DejaVuSans-116"/>
      <use x="164.111328" xlink:href="#DejaVuSans-32"/>
      <use x="195.898438" xlink:href="#DejaVuSans-118"/>
      <use x="255.078125" xlink:href="#DejaVuSans-97"/>
      <use x="316.357422" xlink:href="#DejaVuSans-108"/>
      <use x="344.140625" xlink:href="#DejaVuSans-117"/>
      <use x="407.519531" xlink:href="#DejaVuSans-101"/>
     </g>
    </g>
   </g>
   <g id="line2d_19">
    <path clip-path="url(#pb563a5ed89)" d="M 103.093636 277.717812 
L 106.867196 282.423967 
L 110.640756 277.563192 
L 114.414316 289.115061 
L 125.734997 283.868604 
L 129.508557 291.852818 
L 133.282117 291.971435 
L 137.055677 284.638126 
L 140.829237 272.375129 
L 152.149917 270.561094 
L 155.923477 272.81811 
L 159.697037 274.482377 
L 163.470597 268.287525 
L 167.244157 269.956643 
L 178.564837 268.089241 
L 182.338397 273.967532 
L 186.111957 283.678299 
L 189.885517 276.600933 
L 193.659077 279.214196 
L 204.979757 272.449383 
L 208.753317 273.12867 
L 212.526877 276.722882 
L 216.300437 278.688176 
L 220.073997 282.940647 
L 231.394677 290.849813 
L 235.168237 290.618763 
L 238.941797 289.431853 
L 242.715357 296.865767 
L 246.488917 297.078589 
L 257.809598 302.005316 
L 261.583158 303.17646 
L 265.356718 307.468881 
L 269.130278 305.726387 
L 272.903838 305.831734 
L 284.224518 309.816538 
L 287.998078 305.694968 
L 291.771638 307.454679 
L 295.545198 296.150094 
L 299.318758 297.977089 
L 310.639438 304.658352 
L 314.412998 304.196643 
L 318.186558 313.144673 
L 321.960118 311.392175 
L 325.733678 318.933252 
L 337.054358 310.838264 
L 340.827918 306.36789 
L 344.601478 302.795988 
L 348.375038 303.132657 
L 352.148598 298.492627 
L 363.469278 303.947594 
L 367.242838 298.781087 
L 371.016398 304.596965 
L 374.789958 298.495296 
L 378.563518 290.484152 
L 389.884198 293.464073 
L 393.657759 288.67461 
L 397.431319 281.937771 
L 401.204879 278.799594 
L 404.978439 281.938461 
L 416.299119 271.415872 
L 420.072679 278.91092 
L 423.846239 287.878415 
L 427.619799 295.260107 
L 431.393359 294.741982 
L 442.714039 291.70542 
L 446.487599 280.667484 
L 450.261159 296.101116 
L 454.034719 305.572675 
L 457.808279 308.045469 
L 469.128959 298.114511 
L 472.902519 297.620555 
L 476.676079 296.349764 
L 480.449639 300.403924 
L 484.223199 307.501501 
L 495.543879 302.887785 
L 499.317439 297.976077 
L 503.090999 289.135967 
L 506.864559 288.53966 
L 510.638119 276.434603 
L 521.958799 264.871309 
L 525.732359 266.443168 
L 529.50592 270.581628 
L 533.27948 267.908042 
L 537.05304 257.639945 
L 548.37372 249.879924 
L 552.14728 250.832534 
L 555.92084 251.431859 
L 559.6944 262.617207 
L 563.46796 257.321001 
L 574.78864 260.526009 
L 578.5622 268.088167 
L 582.33576 272.501507 
L 586.10932 282.163757 
L 589.88288 276.496902 
L 601.20356 274.370766 
L 604.97712 280.264344 
L 608.75068 270.50104 
L 612.52424 270.994334 
L 616.2978 273.145223 
L 627.61848 271.670075 
L 631.39204 273.83517 
L 635.1656 262.556396 
L 638.93916 259.745351 
L 642.71272 273.990733 
L 654.0334 269.994348 
L 657.80696 263.280595 
L 661.58052 273.020009 
L 665.35408 271.527879 
L 669.127641 264.461883 
L 680.448321 270.701323 
L 684.221881 269.97263 
L 687.995441 273.468625 
L 691.769001 262.098836 
L 695.542561 270.052166 
L 706.863241 261.399697 
L 710.636801 255.318446 
L 714.410361 246.099781 
L 718.183921 237.67622 
L 721.957481 234.326522 
L 733.278161 223.988744 
L 737.051721 228.819736 
L 740.825281 226.779078 
L 744.598841 219.941888 
L 748.372401 224.315758 
L 759.693081 220.682052 
L 763.466641 202.581061 
L 767.240201 199.602025 
L 771.013761 184.628116 
L 774.787321 187.787953 
L 786.108001 199.091826 
L 789.881561 197.41335 
L 793.655121 209.942542 
L 797.428681 195.068635 
L 801.202241 195.484078 
L 812.522922 180.772538 
L 816.296482 191.55211 
L 820.070042 199.78182 
L 823.843602 208.455897 
L 827.617162 188.905064 
L 838.937842 185.182756 
L 842.711402 201.066193 
L 846.484962 215.516299 
L 850.258522 209.724873 
L 854.032082 202.877924 
L 865.352762 196.683365 
L 869.126322 195.447421 
L 872.899882 211.269809 
L 876.673442 212.322012 
L 880.447002 218.647041 
L 891.767682 212.873845 
L 895.541242 203.961253 
L 899.314802 205.468244 
L 903.088362 214.487411 
L 906.861922 216.927769 
L 918.182602 211.835341 
L 921.956162 196.900702 
L 925.729722 189.680513 
L 929.503282 201.651205 
L 933.276842 209.793144 
L 944.597523 191.927322 
L 948.371083 180.943384 
L 952.144643 160.61086 
L 955.918203 169.804284 
L 959.691763 186.844209 
L 971.012443 188.405831 
L 974.786003 193.928888 
L 978.559563 197.763756 
L 982.333123 215.130709 
L 986.106683 216.95012 
L 997.427363 207.804348 
L 1001.200923 213.779729 
L 1004.974483 207.538088 
L 1008.748043 223.583197 
L 1012.521603 235.88119 
L 1023.842283 221.942715 
L 1027.615843 229.119683 
L 1031.389403 219.414762 
L 1035.162963 203.098739 
L 1038.936523 222.927901 
L 1050.257203 223.112999 
L 1054.030763 225.611826 
L 1057.804323 244.277054 
L 1061.577883 251.315445 
L 1065.351443 248.672912 
L 1076.672124 244.877323 
L 1080.445684 247.923452 
L 1084.219244 235.826888 
L 1087.992804 233.22302 
L 1091.766364 246.286527 
L 1091.766364 246.286527 
" style="fill:none;stroke:#1f77b4;stroke-linecap:square;stroke-width:1.5;"/>
   </g>
   <g id="line2d_20">
    <path clip-path="url(#pb563a5ed89)" d="M 103.093636 275.316639 
L 106.867196 270.343478 
L 110.640756 273.464539 
L 114.414316 280.702879 
L 125.734997 274.307077 
L 129.508557 269.009624 
L 133.282117 267.766113 
L 137.055677 266.187478 
L 140.829237 263.955857 
L 152.149917 248.051093 
L 155.923477 252.922961 
L 159.697037 258.119932 
L 163.470597 254.763794 
L 167.244157 262.20403 
L 178.564837 255.669953 
L 182.338397 261.244104 
L 186.111957 267.597624 
L 189.885517 270.687652 
L 193.659077 274.778916 
L 204.979757 270.527547 
L 208.753317 257.165547 
L 212.526877 246.276888 
L 216.300437 247.55151 
L 220.073997 238.000287 
L 231.394677 248.071755 
L 235.168237 264.687144 
L 238.941797 264.625732 
L 242.715357 267.51484 
L 246.488917 266.334009 
L 257.809598 267.393286 
L 261.583158 264.555668 
L 265.356718 264.143636 
L 269.130278 262.748012 
L 272.903838 268.032513 
L 284.224518 253.394022 
L 287.998078 258.700823 
L 291.771638 272.139505 
L 295.545198 272.229838 
L 299.318758 280.675623 
L 310.639438 291.452311 
L 314.412998 288.731934 
L 318.186558 284.110439 
L 321.960118 294.855127 
L 325.733678 301.695058 
L 337.054358 301.452249 
L 340.827918 296.730745 
L 344.601478 292.945897 
L 348.375038 294.278755 
L 352.148598 291.604819 
L 363.469278 296.360279 
L 367.242838 298.779688 
L 371.016398 308.627442 
L 374.789958 310.120082 
L 378.563518 314.860999 
L 389.884198 315.268173 
L 393.657759 318.36532 
L 397.431319 315.733344 
L 401.204879 314.092162 
L 404.978439 306.399578 
L 416.299119 303.377792 
L 420.072679 303.57693 
L 423.846239 305.122851 
L 427.619799 304.866636 
L 431.393359 299.979577 
L 442.714039 301.46449 
L 446.487599 299.253225 
L 450.261159 302.825182 
L 454.034719 296.519967 
L 457.808279 306.651649 
L 469.128959 299.610377 
L 472.902519 303.318554 
L 476.676079 311.699725 
L 484.223199 308.567609 
L 495.543879 299.038676 
L 499.317439 304.944738 
L 503.090999 304.095094 
L 506.864559 310.983249 
L 510.638119 308.035477 
L 521.958799 304.011709 
L 525.732359 307.898044 
L 529.50592 314.367572 
L 533.27948 311.060043 
L 537.05304 302.752797 
L 548.37372 309.404389 
L 552.14728 303.225637 
L 555.92084 294.917382 
L 559.6944 294.568308 
L 563.46796 287.826404 
L 574.78864 294.554072 
L 582.33576 305.197557 
L 586.10932 309.34566 
L 589.88288 301.745021 
L 601.20356 300.947352 
L 604.97712 308.983044 
L 608.75068 315.342857 
L 612.52424 318.262234 
L 616.2978 313.811869 
L 627.61848 305.321585 
L 631.39204 312.978442 
L 635.1656 312.606786 
L 638.93916 308.639457 
L 642.71272 313.052015 
L 654.0334 316.827492 
L 657.80696 320.390598 
L 661.58052 309.421926 
L 665.35408 318.724838 
L 669.127641 309.900579 
L 680.448321 316.178503 
L 684.221881 313.284497 
L 687.995441 309.724979 
L 691.769001 307.413103 
L 695.542561 297.556838 
L 710.636801 289.989285 
L 714.410361 298.015673 
L 718.183921 294.80019 
L 721.957481 305.697735 
L 733.278161 303.210213 
L 737.051721 310.304606 
L 740.825281 309.620855 
L 744.598841 317.576173 
L 748.372401 320.137867 
L 759.693081 314.61662 
L 763.466641 316.874004 
L 767.240201 313.847606 
L 771.013761 314.41815 
L 774.787321 309.882257 
L 786.108001 311.921906 
L 789.881561 306.56717 
L 793.655121 301.643455 
L 797.428681 291.518829 
L 801.202241 293.336402 
L 812.522922 301.515194 
L 816.296482 289.50407 
L 820.070042 292.401899 
L 823.843602 301.153509 
L 827.617162 300.224505 
L 838.937842 301.293828 
L 842.711402 304.518838 
L 846.484962 309.367011 
L 850.258522 320.749766 
L 854.032082 316.056865 
L 865.352762 320.315729 
L 869.126322 327.115484 
L 872.899882 318.823606 
L 876.673442 315.650949 
L 880.447002 306.193601 
L 891.767682 312.202184 
L 895.541242 309.146181 
L 899.314802 301.890909 
L 903.088362 302.195615 
L 906.861922 290.994672 
L 918.182602 292.121195 
L 921.956162 288.509556 
L 925.729722 278.710063 
L 929.503282 285.068421 
L 933.276842 290.092959 
L 944.597523 289.008223 
L 948.371083 291.20788 
L 952.144643 284.710873 
L 955.918203 295.483553 
L 959.691763 298.826561 
L 971.012443 300.828913 
L 974.786003 307.554134 
L 978.559563 311.356072 
L 982.333123 314.812783 
L 986.106683 321.668201 
L 997.427363 319.419998 
L 1001.200923 322.871165 
L 1004.974483 321.036325 
L 1008.748043 318.633427 
L 1012.521603 325.980338 
L 1023.842283 329.500284 
L 1027.615843 331.795048 
L 1031.389403 324.933056 
L 1038.936523 326.792074 
L 1050.257203 323.32569 
L 1054.030763 323.154093 
L 1057.804323 331.39136 
L 1061.577883 330.59301 
L 1065.351443 326.726018 
L 1076.672124 324.211444 
L 1084.219244 325.591251 
L 1087.992804 320.575311 
L 1091.766364 321.454244 
L 1091.766364 321.454244 
" style="fill:none;stroke:#ff7f0e;stroke-linecap:square;stroke-width:1.5;"/>
   </g>
   <g id="line2d_21">
    <path clip-path="url(#pb563a5ed89)" d="M 103.093636 267.081992 
L 110.640756 275.662912 
L 114.414316 287.768019 
L 125.734997 280.193299 
L 129.508557 265.940832 
L 133.282117 265.188448 
L 137.055677 264.975 
L 140.829237 266.455427 
L 152.149917 258.504871 
L 155.923477 264.802467 
L 159.697037 270.488983 
L 163.470597 268.4718 
L 167.244157 274.865515 
L 178.564837 279.417802 
L 182.338397 283.23206 
L 186.111957 283.608349 
L 189.885517 282.244398 
L 193.659077 279.413264 
L 204.979757 283.333893 
L 208.753317 286.209487 
L 212.526877 277.632776 
L 216.300437 271.009409 
L 220.073997 282.277137 
L 231.394677 276.929989 
L 235.168237 279.736448 
L 238.941797 273.945107 
L 242.715357 271.858562 
L 246.488917 260.386185 
L 257.809598 246.717045 
L 261.583158 243.50428 
L 265.356718 226.32056 
L 269.130278 212.667572 
L 272.903838 212.466879 
L 284.224518 219.999022 
L 287.998078 219.780009 
L 291.771638 207.829305 
L 295.545198 195.359663 
L 299.318758 206.755229 
L 310.639438 220.206573 
L 314.412998 225.601068 
L 318.186558 239.798685 
L 321.960118 235.268464 
L 325.733678 242.266798 
L 337.054358 247.761328 
L 340.827918 251.398046 
L 344.601478 251.615161 
L 348.375038 239.684784 
L 352.148598 251.933104 
L 363.469278 243.559467 
L 367.242838 249.653171 
L 371.016398 247.782445 
L 374.789958 255.946454 
L 378.563518 259.063157 
L 389.884198 258.985012 
L 393.657759 265.414256 
L 397.431319 267.702854 
L 401.204879 256.082264 
L 404.978439 247.138139 
L 416.299119 235.496562 
L 420.072679 236.207539 
L 423.846239 247.358257 
L 427.619799 242.955562 
L 431.393359 230.423186 
L 442.714039 233.058759 
L 446.487599 219.553764 
L 450.261159 215.910398 
L 454.034719 221.156024 
L 457.808279 228.941367 
L 469.128959 216.99217 
L 472.902519 216.394399 
L 476.676079 203.433377 
L 480.449639 205.821276 
L 484.223199 195.162119 
L 495.543879 212.934747 
L 499.317439 199.451138 
L 503.090999 199.260079 
L 506.864559 196.707463 
L 510.638119 207.229308 
L 521.958799 224.593566 
L 525.732359 229.529496 
L 529.50592 229.956962 
L 533.27948 242.2304 
L 537.05304 246.793708 
L 548.37372 257.119346 
L 552.14728 253.426957 
L 555.92084 250.264356 
L 559.6944 259.6446 
L 574.78864 243.293894 
L 578.5622 246.226514 
L 582.33576 230.595507 
L 586.10932 247.104698 
L 589.88288 248.114682 
L 601.20356 235.956616 
L 604.97712 235.166641 
L 608.75068 235.304739 
L 612.52424 233.099765 
L 616.2978 241.208086 
L 627.61848 248.614954 
L 631.39204 234.001901 
L 635.1656 232.07972 
L 638.93916 245.795255 
L 642.71272 246.717232 
L 654.0334 239.184356 
L 657.80696 241.019914 
L 661.58052 253.925417 
L 665.35408 241.596015 
L 669.127641 240.458734 
L 680.448321 223.13817 
L 684.221881 227.526488 
L 687.995441 229.936594 
L 691.769001 213.978936 
L 695.542561 216.565583 
L 706.863241 207.691237 
L 710.636801 203.64539 
L 714.410361 220.694049 
L 718.183921 212.448456 
L 721.957481 203.73753 
L 733.278161 198.062682 
L 737.051721 206.701385 
L 740.825281 197.283034 
L 748.372401 158.941634 
L 759.693081 159.113357 
L 763.466641 171.979744 
L 767.240201 170.911114 
L 771.013761 167.060228 
L 774.787321 170.94053 
L 786.108001 173.389979 
L 789.881561 188.585122 
L 793.655121 191.443579 
L 797.428681 200.853489 
L 801.202241 192.148592 
L 812.522922 195.972159 
L 816.296482 185.91576 
L 823.843602 164.024453 
L 827.617162 175.393532 
L 838.937842 164.444047 
L 842.711402 174.407884 
L 846.484962 170.974445 
L 850.258522 157.398787 
L 854.032082 146.195961 
L 865.352762 129.773213 
L 869.126322 118.067298 
L 872.899882 133.855169 
L 876.673442 129.76383 
L 880.447002 118.596532 
L 891.767682 125.221063 
L 895.541242 106.230469 
L 899.314802 130.803384 
L 903.088362 131.820696 
L 906.861922 107.083563 
L 918.182602 130.330386 
L 921.956162 124.316563 
L 925.729722 113.58013 
L 929.503282 117.319884 
L 933.276842 116.561215 
L 944.597523 120.670675 
L 948.371083 119.260493 
L 952.144643 133.196131 
L 955.918203 131.569355 
L 959.691763 139.153219 
L 971.012443 137.871181 
L 974.786003 127.004035 
L 978.559563 137.476972 
L 982.333123 138.373061 
L 986.106683 134.827337 
L 997.427363 139.956789 
L 1001.200923 119.310753 
L 1004.974483 100.82893 
L 1008.748043 105.774577 
L 1012.521603 101.114385 
L 1023.842283 80.328917 
L 1027.615843 91.448066 
L 1031.389403 111.460433 
L 1038.936523 140.901039 
L 1050.257203 143.778579 
L 1054.030763 124.434924 
L 1057.804323 119.084245 
L 1061.577883 101.042711 
L 1065.351443 103.643483 
L 1076.672124 126.138706 
L 1080.445684 118.603472 
L 1084.219244 104.537745 
L 1087.992804 120.739212 
L 1091.766364 116.716616 
L 1091.766364 116.716616 
" style="fill:none;stroke:#2ca02c;stroke-linecap:square;stroke-width:1.5;"/>
   </g>
   <g id="line2d_22">
    <path clip-path="url(#pb563a5ed89)" d="M 103.093636 270.076738 
L 106.867196 270.927268 
L 110.640756 262.491487 
L 114.414316 262.574342 
L 125.734997 279.723736 
L 129.508557 280.21872 
L 133.282117 269.36113 
L 137.055677 281.187572 
L 140.829237 283.172912 
L 152.149917 276.790905 
L 155.923477 286.964928 
L 159.697037 289.161225 
L 163.470597 284.126015 
L 167.244157 291.621846 
L 182.338397 277.812073 
L 186.111957 286.467027 
L 189.885517 280.349372 
L 193.659077 287.792943 
L 204.979757 295.385466 
L 208.753317 298.749841 
L 212.526877 294.599805 
L 216.300437 290.277108 
L 220.073997 300.939073 
L 231.394677 296.920606 
L 235.168237 290.60544 
L 238.941797 295.522385 
L 242.715357 294.684126 
L 246.488917 295.495177 
L 257.809598 288.625331 
L 261.583158 294.167132 
L 265.356718 286.575502 
L 269.130278 283.541242 
L 272.903838 283.477042 
L 284.224518 280.059437 
L 287.998078 284.554235 
L 291.771638 285.095238 
L 295.545198 276.824366 
L 299.318758 279.127369 
L 310.639438 274.450567 
L 314.412998 269.680571 
L 318.186558 266.556592 
L 321.960118 276.147963 
L 325.733678 272.523342 
L 337.054358 260.384803 
L 340.827918 253.253853 
L 344.601478 253.593935 
L 348.375038 240.656164 
L 352.148598 240.943097 
L 363.469278 235.693059 
L 367.242838 235.70233 
L 371.016398 240.092603 
L 374.789958 238.52241 
L 378.563518 233.234122 
L 389.884198 231.931443 
L 393.657759 241.926099 
L 397.431319 235.588902 
L 401.204879 219.171646 
L 404.978439 217.208815 
L 416.299119 214.430111 
L 420.072679 220.55987 
L 423.846239 232.138841 
L 427.619799 231.467094 
L 431.393359 217.745817 
L 442.714039 217.20055 
L 446.487599 206.046628 
L 450.261159 214.915977 
L 454.034719 221.294948 
L 457.808279 201.840489 
L 469.128959 198.77248 
L 472.902519 194.835732 
L 476.676079 211.162864 
L 480.449639 222.527371 
L 484.223199 217.211188 
L 495.543879 215.840509 
L 503.090999 210.53045 
L 506.864559 210.512975 
L 510.638119 197.018611 
L 521.958799 193.613443 
L 525.732359 180.99087 
L 529.50592 192.019357 
L 533.27948 199.387975 
L 537.05304 203.535079 
L 548.37372 210.788357 
L 552.14728 200.461433 
L 555.92084 206.572483 
L 559.6944 222.192667 
L 563.46796 206.574812 
L 574.78864 198.295596 
L 578.5622 194.663094 
L 582.33576 186.663017 
L 586.10932 194.630232 
L 589.88288 211.017766 
L 604.97712 214.781051 
L 608.75068 208.776465 
L 612.52424 204.934746 
L 616.2978 212.403339 
L 627.61848 211.088183 
L 631.39204 211.848297 
L 635.1656 218.810201 
L 638.93916 211.53664 
L 642.71272 208.43197 
L 654.0334 209.913114 
L 657.80696 208.52746 
L 661.58052 212.661854 
L 665.35408 231.907796 
L 669.127641 246.032436 
L 680.448321 235.717929 
L 684.221881 227.158929 
L 687.995441 226.230108 
L 691.769001 246.090817 
L 695.542561 241.449731 
L 706.863241 247.88573 
L 710.636801 249.272934 
L 714.410361 249.434174 
L 718.183921 265.773754 
L 721.957481 264.325361 
L 733.278161 269.960339 
L 737.051721 268.055054 
L 744.598841 274.672454 
L 748.372401 280.768643 
L 759.693081 274.278422 
L 763.466641 279.701559 
L 767.240201 283.836968 
L 771.013761 295.497761 
L 774.787321 297.165936 
L 786.108001 293.818004 
L 793.655121 271.125969 
L 797.428681 267.613958 
L 801.202241 278.299187 
L 812.522922 287.639943 
L 816.296482 286.952983 
L 820.070042 290.415987 
L 823.843602 292.093622 
L 827.617162 283.460457 
L 838.937842 286.46349 
L 842.711402 288.60999 
L 846.484962 294.140893 
L 850.258522 297.586491 
L 854.032082 298.46535 
L 865.352762 308.460109 
L 869.126322 312.287842 
L 872.899882 311.620693 
L 876.673442 317.164248 
L 880.447002 323.10612 
L 891.767682 326.440078 
L 895.541242 326.489653 
L 899.314802 326.763281 
L 903.088362 328.00326 
L 906.861922 331.796912 
L 918.182602 330.917013 
L 921.956162 322.734643 
L 925.729722 318.681046 
L 929.503282 317.705986 
L 933.276842 312.675246 
L 944.597523 305.95416 
L 948.371083 312.809898 
L 952.144643 307.21387 
L 955.918203 309.279644 
L 959.691763 298.852839 
L 971.012443 293.311095 
L 974.786003 287.99942 
L 978.559563 288.825361 
L 982.333123 291.582843 
L 986.106683 291.189252 
L 997.427363 295.654632 
L 1001.200923 289.614071 
L 1004.974483 284.595264 
L 1008.748043 292.419264 
L 1012.521603 288.299797 
L 1023.842283 277.453821 
L 1027.615843 265.115865 
L 1031.389403 264.331914 
L 1035.162963 265.829762 
L 1038.936523 262.455732 
L 1050.257203 259.245757 
L 1054.030763 256.160631 
L 1057.804323 249.513213 
L 1061.577883 265.815259 
L 1065.351443 268.666741 
L 1076.672124 275.232182 
L 1080.445684 281.331342 
L 1087.992804 254.985684 
L 1091.766364 257.883037 
L 1091.766364 257.883037 
" style="fill:none;stroke:#d62728;stroke-linecap:square;stroke-width:1.5;"/>
   </g>
   <g id="line2d_23">
    <path clip-path="url(#pb563a5ed89)" d="M 103.093636 269.726853 
L 106.867196 277.609671 
L 110.640756 279.624136 
L 114.414316 284.240854 
L 125.734997 284.286242 
L 129.508557 277.301438 
L 133.282117 278.413772 
L 137.055677 276.107965 
L 140.829237 277.187243 
L 152.149917 277.095966 
L 155.923477 279.765185 
L 159.697037 277.912544 
L 163.470597 276.546639 
L 167.244157 282.880912 
L 178.564837 271.845511 
L 182.338397 263.337484 
L 186.111957 264.114883 
L 189.885517 251.208941 
L 193.659077 249.757555 
L 204.979757 243.42637 
L 208.753317 247.9398 
L 212.526877 246.892259 
L 216.300437 244.522641 
L 220.073997 253.984708 
L 231.394677 257.821262 
L 235.168237 268.123137 
L 238.941797 272.606466 
L 242.715357 280.341364 
L 246.488917 286.756217 
L 257.809598 284.145478 
L 261.583158 285.785124 
L 265.356718 287.133957 
L 269.130278 292.247526 
L 272.903838 288.813088 
L 284.224518 288.863278 
L 287.998078 280.199308 
L 291.771638 280.920204 
L 295.545198 279.973887 
L 299.318758 280.27911 
L 310.639438 277.377675 
L 314.412998 278.885076 
L 318.186558 274.454251 
L 321.960118 279.153621 
L 325.733678 276.347489 
L 337.054358 271.885717 
L 340.827918 278.269365 
L 344.601478 287.884122 
L 348.375038 282.86675 
L 352.148598 280.462642 
L 363.469278 285.249636 
L 367.242838 282.262516 
L 371.016398 281.016412 
L 374.789958 282.20245 
L 378.563518 272.017813 
L 389.884198 276.706421 
L 393.657759 276.853519 
L 397.431319 273.256837 
L 401.204879 283.235643 
L 404.978439 282.038276 
L 416.299119 289.686808 
L 420.072679 298.084861 
L 423.846239 300.572047 
L 427.619799 295.987276 
L 431.393359 289.708531 
L 442.714039 285.739059 
L 446.487599 275.970862 
L 450.261159 272.980602 
L 454.034719 267.526618 
L 457.808279 266.796659 
L 469.128959 262.847316 
L 472.902519 260.391746 
L 480.449639 233.114728 
L 484.223199 227.293627 
L 495.543879 231.239567 
L 499.317439 234.017709 
L 503.090999 240.695898 
L 506.864559 255.75168 
L 510.638119 257.098478 
L 521.958799 252.434978 
L 525.732359 247.779818 
L 529.50592 250.45373 
L 533.27948 248.107486 
L 537.05304 247.146453 
L 548.37372 247.561038 
L 552.14728 242.203532 
L 555.92084 245.732842 
L 559.6944 242.909303 
L 563.46796 241.725115 
L 574.78864 237.446471 
L 578.5622 246.873179 
L 582.33576 246.150905 
L 586.10932 244.963807 
L 589.88288 253.612413 
L 604.97712 242.962628 
L 608.75068 250.635751 
L 612.52424 248.08832 
L 616.2978 245.047559 
L 627.61848 244.331294 
L 631.39204 230.188728 
L 635.1656 222.920724 
L 638.93916 220.858116 
L 642.71272 232.978419 
L 654.0334 236.784848 
L 657.80696 253.772054 
L 661.58052 254.540906 
L 665.35408 267.292911 
L 669.127641 270.049317 
L 680.448321 273.228348 
L 684.221881 260.272057 
L 687.995441 262.586455 
L 691.769001 255.640411 
L 695.542561 241.385716 
L 706.863241 246.082215 
L 710.636801 242.434981 
L 714.410361 242.233311 
L 718.183921 255.320634 
L 721.957481 246.961174 
L 733.278161 255.372151 
L 737.051721 242.331352 
L 740.825281 249.518864 
L 744.598841 248.127495 
L 748.372401 236.521548 
L 759.693081 254.227647 
L 763.466641 258.472535 
L 767.240201 256.38075 
L 771.013761 256.918639 
L 774.787321 255.037169 
L 786.108001 243.61749 
L 789.881561 253.83121 
L 793.655121 248.991308 
L 797.428681 250.311387 
L 801.202241 253.926068 
L 812.522922 243.89175 
L 816.296482 244.165806 
L 820.070042 245.972056 
L 823.843602 237.696565 
L 827.617162 235.425418 
L 838.937842 221.334784 
L 842.711402 227.3368 
L 846.484962 219.131788 
L 850.258522 218.444308 
L 854.032082 216.72053 
L 865.352762 223.9671 
L 869.126322 226.624865 
L 872.899882 217.078964 
L 876.673442 225.54073 
L 880.447002 224.009277 
L 891.767682 238.873855 
L 895.541242 249.277493 
L 899.314802 249.504514 
L 903.088362 233.090747 
L 906.861922 241.110079 
L 918.182602 229.009105 
L 921.956162 218.053205 
L 925.729722 220.230524 
L 929.503282 217.801566 
L 933.276842 224.463377 
L 944.597523 218.730093 
L 948.371083 201.065058 
L 952.144643 195.13674 
L 955.918203 190.398258 
L 959.691763 206.62187 
L 971.012443 204.693441 
L 974.786003 195.320355 
L 978.559563 176.484905 
L 982.333123 183.269481 
L 986.106683 174.571778 
L 997.427363 171.800077 
L 1001.200923 172.285419 
L 1004.974483 159.712507 
L 1008.748043 169.133923 
L 1012.521603 160.355234 
L 1023.842283 160.577209 
L 1027.615843 179.814421 
L 1031.389403 181.862094 
L 1035.162963 164.798264 
L 1038.936523 154.925495 
L 1050.257203 131.709138 
L 1054.030763 119.958938 
L 1057.804323 94.515327 
L 1061.577883 89.393985 
L 1065.351443 88.434461 
L 1076.672124 86.506966 
L 1080.445684 67.897653 
L 1084.219244 84.486703 
L 1087.992804 71.228377 
L 1091.766364 41.11 
L 1091.766364 41.11 
" style="fill:none;stroke:#9467bd;stroke-linecap:square;stroke-width:1.5;"/>
   </g>
   <g id="line2d_24">
    <path clip-path="url(#pb563a5ed89)" d="M 103.093636 271.984007 
L 106.867196 274.502892 
L 110.640756 273.690149 
L 114.414316 280.925118 
L 125.734997 280.040158 
L 129.508557 276.464048 
L 133.282117 274.11189 
L 137.055677 273.948153 
L 152.149917 265.483059 
L 155.923477 270.793085 
L 159.697037 273.262364 
L 163.470597 269.607432 
L 167.244157 275.537708 
L 178.564837 270.283652 
L 182.338397 270.803924 
L 186.111957 276.022044 
L 189.885517 271.125571 
L 193.659077 273.19133 
L 208.753317 271.957211 
L 212.526877 267.633509 
L 216.300437 265.419817 
L 220.073997 271.114997 
L 231.394677 273.072632 
L 235.168237 276.895583 
L 238.941797 277.370768 
L 242.715357 280.418199 
L 246.488917 279.530874 
L 257.809598 276.319113 
L 261.583158 277.059113 
L 265.356718 273.746627 
L 269.130278 271.378117 
L 272.903838 271.581666 
L 284.224518 270.105394 
L 287.998078 268.965834 
L 291.771638 270.368979 
L 295.545198 263.655468 
L 299.318758 268.085602 
L 310.639438 272.386854 
L 314.412998 271.824451 
L 318.186558 273.697889 
L 321.960118 277.562086 
L 325.733678 280.825779 
L 337.054358 276.346301 
L 340.827918 274.657625 
L 344.601478 274.962499 
L 348.375038 269.875462 
L 352.148598 269.70225 
L 363.469278 270.718199 
L 367.242838 270.398666 
L 371.016398 274.292267 
L 374.789958 274.567724 
L 378.563518 271.458712 
L 389.884198 272.955077 
L 393.657759 275.512603 
L 397.431319 271.988315 
L 401.204879 267.925271 
L 404.978439 264.247125 
L 416.299119 260.253615 
L 420.072679 265.016278 
L 423.846239 271.734709 
L 427.619799 271.31958 
L 431.393359 264.14333 
L 442.714039 263.206677 
L 446.487599 253.692234 
L 450.261159 258.367963 
L 454.034719 259.780893 
L 457.808279 260.919059 
L 469.128959 253.019934 
L 472.902519 252.650727 
L 476.676079 252.086007 
L 480.449639 252.295514 
L 484.223199 250.066743 
L 495.543879 249.205931 
L 503.090999 245.350681 
L 506.864559 249.699043 
L 510.638119 245.467923 
L 521.958799 242.888738 
L 525.732359 242.278524 
L 529.50592 247.475708 
L 533.27948 248.766472 
L 537.05304 245.362376 
L 548.37372 248.95303 
L 552.14728 243.777116 
L 555.92084 242.547644 
L 559.6944 248.814779 
L 563.46796 242.066371 
L 574.78864 239.617411 
L 578.5622 244.641615 
L 582.33576 242.556578 
L 586.10932 250.165456 
L 589.88288 251.002114 
L 601.20356 246.751334 
L 604.97712 249.83788 
L 608.75068 249.85468 
L 612.52424 249.306027 
L 616.2978 250.493887 
L 627.61848 248.655767 
L 631.39204 245.767914 
L 635.1656 242.491927 
L 638.93916 241.563981 
L 642.71272 247.881869 
L 654.0334 247.55616 
L 657.80696 250.488354 
L 661.58052 252.382433 
L 665.35408 257.993851 
L 669.127641 256.652556 
L 680.448321 255.284727 
L 684.221881 250.588233 
L 687.995441 251.052979 
L 691.769001 246.9586 
L 695.542561 242.340368 
L 706.863241 239.372593 
L 710.636801 236.350806 
L 714.410361 239.428534 
L 718.183921 241.36282 
L 721.957481 240.042807 
L 733.278161 239.35708 
L 737.051721 240.486173 
L 740.825281 240.496815 
L 744.598841 238.964007 
L 748.372401 236.758736 
L 759.693081 236.098446 
L 763.466641 237.604011 
L 767.240201 236.516115 
L 771.013761 236.748362 
L 774.787321 236.407746 
L 786.108001 235.769797 
L 789.881561 235.001078 
L 793.655121 232.088261 
L 797.428681 227.3459 
L 801.202241 229.842223 
L 812.522922 230.47485 
L 816.296482 226.716318 
L 820.070042 228.45489 
L 823.843602 229.440218 
L 827.617162 224.400784 
L 838.937842 220.167686 
L 842.711402 227.342507 
L 846.484962 230.805735 
L 850.258522 232.133393 
L 854.032082 227.54384 
L 865.352762 229.913109 
L 869.126322 232.255009 
L 872.899882 231.835498 
L 876.673442 233.760477 
L 880.447002 231.983759 
L 891.767682 237.681602 
L 895.541242 234.798126 
L 899.314802 235.942654 
L 903.088362 234.666402 
L 906.861922 231.461836 
L 918.182602 230.85447 
L 921.956162 220.960107 
L 925.729722 214.241886 
L 929.503282 217.836512 
L 933.276842 220.19112 
L 944.597523 213.521568 
L 948.371083 210.685119 
L 952.144643 203.907982 
L 959.691763 212.752753 
L 971.012443 211.321252 
L 974.786003 209.415976 
L 978.559563 209.705693 
L 982.333123 216.412364 
L 986.106683 217.073172 
L 997.427363 216.018746 
L 1001.200923 213.581065 
L 1004.974483 205.373109 
L 1008.748043 212.287625 
L 1012.521603 214.259944 
L 1023.842283 206.611157 
L 1027.615843 210.2247 
L 1031.389403 207.970986 
L 1035.162963 204.364537 
L 1038.936523 208.254585 
L 1050.257203 202.70347 
L 1054.030763 197.465465 
L 1057.804323 198.694431 
L 1061.577883 200.784623 
L 1065.351443 199.435044 
L 1076.672124 202.204023 
L 1080.445684 201.36402 
L 1084.219244 194.727528 
L 1087.992804 188.686344 
L 1091.766364 188.291209 
L 1091.766364 188.291209 
" style="fill:none;stroke:#8c564b;stroke-linecap:square;stroke-width:1.5;"/>
   </g>
   <g id="line2d_25">
    <path clip-path="url(#pb563a5ed89)" d="M 103.093636 272.618826 
L 106.867196 277.857691 
L 110.640756 280.665234 
L 114.414316 278.322023 
L 125.734997 279.268675 
L 129.508557 275.650871 
L 133.282117 279.13848 
L 137.055677 277.001822 
L 140.829237 280.169578 
L 152.149917 286.094885 
L 155.923477 283.936366 
L 159.697037 279.855854 
L 163.470597 282.015991 
L 167.244157 282.641086 
L 178.564837 276.614538 
L 182.338397 267.84843 
L 186.111957 263.296085 
L 189.885517 255.608436 
L 193.659077 251.934393 
L 204.979757 246.682487 
L 208.753317 251.515319 
L 212.526877 255.340051 
L 216.300437 255.447066 
L 220.073997 258.35544 
L 231.394677 259.995003 
L 235.168237 266.049133 
L 238.941797 270.079893 
L 242.715357 274.74735 
L 246.488917 282.307361 
L 257.809598 282.776212 
L 261.583158 283.719716 
L 265.356718 288.263008 
L 269.130278 295.49908 
L 272.903838 291.966449 
L 284.224518 293.312155 
L 287.998078 285.887863 
L 291.771638 285.319404 
L 295.545198 290.51788 
L 299.318758 287.05125 
L 310.639438 280.449489 
L 314.412998 282.463443 
L 318.186558 276.377369 
L 321.960118 277.220253 
L 325.733678 271.109588 
L 337.054358 271.258735 
L 340.827918 279.407808 
L 344.601478 288.658418 
L 348.375038 288.329171 
L 352.148598 286.163465 
L 363.469278 289.86118 
L 367.242838 287.246824 
L 371.016398 282.535714 
L 374.789958 283.448674 
L 378.563518 276.286102 
L 389.884198 279.401634 
L 393.657759 277.088031 
L 397.431319 276.986885 
L 401.204879 290.68265 
L 404.978439 292.731499 
L 416.299119 303.201858 
L 420.072679 307.221388 
L 423.846239 304.458273 
L 427.619799 300.336109 
L 431.393359 300.18299 
L 442.714039 297.235586 
L 446.487599 295.873085 
L 454.034719 283.560716 
L 457.808279 281.91181 
L 469.128959 285.277217 
L 472.902519 283.439425 
L 476.676079 271.997998 
L 480.449639 259.998937 
L 484.223199 257.074615 
L 495.543879 261.294484 
L 499.317439 265.519104 
L 503.090999 272.873137 
L 506.864559 281.755998 
L 510.638119 286.426498 
L 521.958799 284.54817 
L 525.732359 281.174721 
L 529.50592 279.211946 
L 533.27948 276.14655 
L 537.05304 278.240909 
L 548.37372 275.607192 
L 552.14728 275.484548 
L 555.92084 279.446971 
L 559.6944 272.025604 
L 563.46796 276.942215 
L 574.78864 275.442573 
L 578.5622 278.970935 
L 582.33576 280.086144 
L 586.10932 272.952316 
L 589.88288 279.617983 
L 601.20356 276.332466 
L 604.97712 271.503046 
L 608.75068 278.044446 
L 612.52424 276.334502 
L 616.2978 272.72488 
L 627.61848 273.732201 
L 631.39204 264.232589 
L 635.1656 261.112295 
L 638.93916 260.254211 
L 642.71272 264.466114 
L 654.0334 267.988361 
L 657.80696 279.735558 
L 661.58052 278.796378 
L 665.35408 285.054599 
L 669.127641 288.666772 
L 680.448321 292.623327 
L 684.221881 284.924691 
L 687.995441 286.539865 
L 691.769001 283.858205 
L 695.542561 275.527746 
L 706.863241 281.880072 
L 710.636801 281.287952 
L 714.410361 278.730737 
L 718.183921 287.837656 
L 721.957481 281.9674 
L 733.278161 289.386785 
L 737.051721 277.914818 
L 740.825281 283.793548 
L 744.598841 283.852353 
L 748.372401 276.128651 
L 759.693081 290.903786 
L 763.466641 293.207306 
L 767.240201 292.305502 
L 771.013761 292.569332 
L 774.787321 291.302782 
L 786.108001 282.598903 
L 789.881561 291.366947 
L 793.655121 289.616077 
L 797.428681 294.078109 
L 801.202241 295.14513 
L 812.522922 286.909927 
L 816.296482 289.865118 
L 820.070042 290.026299 
L 823.843602 282.941817 
L 827.617162 284.934142 
L 838.937842 277.308841 
L 842.711402 276.465989 
L 846.484962 267.505418 
L 850.258522 265.875487 
L 854.032082 268.363449 
L 865.352762 272.01474 
L 869.126322 272.208332 
L 872.899882 265.049353 
L 876.673442 270.065976 
L 880.447002 270.316398 
L 891.767682 277.336928 
L 895.541242 288.057119 
L 899.314802 287.391665 
L 903.088362 275.211793 
L 906.861922 284.159873 
L 918.182602 275.143973 
L 921.956162 274.384042 
L 925.729722 281.078832 
L 929.503282 276.799425 
L 933.276842 279.957776 
L 944.597523 280.555385 
L 948.371083 269.840904 
L 952.144643 270.647407 
L 955.918203 264.218675 
L 959.691763 272.264245 
L 971.012443 271.935492 
L 974.786003 266.649948 
L 978.559563 253.109461 
L 982.333123 252.476655 
L 986.106683 245.578594 
L 997.427363 244.470066 
L 1001.200923 246.950141 
L 1004.974483 244.88949 
L 1008.748043 245.692831 
L 1012.521603 237.722409 
L 1023.842283 244.733188 
L 1027.615843 255.135831 
L 1031.389403 258.39991 
L 1035.162963 249.233674 
L 1038.936523 239.254244 
L 1050.257203 227.734161 
L 1054.030763 224.338485 
L 1057.804323 206.125738 
L 1061.577883 200.637888 
L 1065.351443 201.334054 
L 1076.672124 197.280194 
L 1080.445684 185.375698 
L 1084.219244 203.796787 
L 1087.992804 200.816863 
L 1091.766364 181.685724 
L 1091.766364 181.685724 
" style="fill:none;stroke:#e377c2;stroke-linecap:square;stroke-width:1.5;"/>
   </g>
   <g id="line2d_26">
    <path clip-path="url(#pb563a5ed89)" d="M 103.093636 269.142175 
L 106.867196 266.747589 
L 110.640756 271.243835 
L 114.414316 266.581905 
L 125.734997 271.651623 
L 129.508557 259.274043 
L 133.282117 256.528315 
L 137.055677 265.447678 
L 140.829237 276.991044 
L 152.149917 272.619601 
L 155.923477 275.481849 
L 159.697037 276.244717 
L 163.470597 278.784046 
L 167.244157 282.826626 
L 178.564837 279.532054 
L 182.338397 274.538983 
L 186.111957 269.964106 
L 189.885517 272.587764 
L 193.659077 271.957712 
L 204.979757 278.13089 
L 208.753317 277.144739 
L 212.526877 269.448061 
L 216.300437 265.204431 
L 220.073997 266.296632 
L 231.394677 259.557987 
L 235.168237 263.972067 
L 238.941797 265.885117 
L 242.715357 260.54515 
L 246.488917 259.279471 
L 257.809598 249.421468 
L 261.583158 248.66326 
L 265.356718 238.755475 
L 269.130278 238.538069 
L 272.903838 238.623048 
L 284.224518 230.861017 
L 287.998078 236.096489 
L 291.771638 235.092658 
L 295.545198 244.496124 
L 299.318758 246.92278 
L 310.639438 242.657179 
L 314.412998 242.669176 
L 318.186558 231.838493 
L 321.960118 239.56521 
L 325.733678 231.812603 
L 337.054358 239.911994 
L 340.827918 244.788624 
L 344.601478 250.378617 
L 348.375038 244.063217 
L 352.148598 250.520227 
L 363.469278 244.334437 
L 367.242838 251.411102 
L 371.016398 247.963058 
L 374.789958 256.954426 
L 378.563518 263.891396 
L 389.884198 261.941997 
L 393.657759 270.495613 
L 397.431319 274.41449 
L 401.204879 273.698908 
L 404.978439 266.906084 
L 416.299119 274.502741 
L 423.846239 268.614927 
L 427.619799 259.869701 
L 431.393359 252.849212 
L 442.714039 255.770185 
L 446.487599 259.583382 
L 450.261159 246.622257 
L 454.034719 235.376982 
L 457.808279 232.896806 
L 469.128959 239.382922 
L 472.902519 239.686458 
L 476.676079 240.873826 
L 480.449639 235.465593 
L 484.223199 222.613944 
L 495.543879 229.219117 
L 499.317439 234.606526 
L 503.090999 245.412599 
L 506.864559 250.529801 
L 510.638119 261.479411 
L 521.958799 271.740323 
L 525.732359 269.709994 
L 529.50592 270.122501 
L 533.27948 273.941547 
L 537.05304 280.893925 
L 548.37372 290.591144 
L 552.14728 285.801378 
L 555.92084 284.348531 
L 559.6944 280.059577 
L 563.46796 279.192177 
L 574.78864 274.385515 
L 578.5622 271.558739 
L 582.33576 265.438651 
L 586.10932 262.089426 
L 589.88288 269.265244 
L 601.20356 267.648035 
L 604.97712 264.264984 
L 608.75068 275.027595 
L 612.52424 274.071898 
L 616.2978 272.993213 
L 627.61848 272.850931 
L 631.39204 268.180253 
L 635.1656 276.94898 
L 638.93916 278.765514 
L 642.71272 271.15901 
L 654.0334 274.937908 
L 657.80696 283.968239 
L 661.58052 276.932932 
L 665.35408 283.26328 
L 669.127641 288.680179 
L 680.448321 282.178636 
L 684.221881 278.848501 
L 687.995441 275.931092 
L 691.769001 283.579242 
L 695.542561 272.853626 
L 706.863241 278.855252 
L 710.636801 281.914688 
L 714.410361 292.184743 
L 718.183921 300.019415 
L 721.957481 301.40372 
L 733.278161 307.879978 
L 737.051721 305.675151 
L 740.825281 306.976921 
L 744.598841 310.211324 
L 748.372401 306.219475 
L 759.693081 308.033625 
L 763.466641 319.865604 
L 767.240201 320.723422 
L 771.013761 328.258517 
L 774.787321 326.696021 
L 786.108001 321.287819 
L 789.881561 321.666214 
L 793.655121 313.9042 
L 797.428681 319.161087 
L 801.202241 320.370602 
L 812.522922 327.897632 
L 816.296482 321.255721 
L 820.070042 318.303427 
L 823.843602 314.491083 
L 827.617162 322.056976 
L 838.937842 321.490689 
L 842.711402 317.989091 
L 846.484962 312.618904 
L 850.258522 316.700537 
L 854.032082 317.639701 
L 865.352762 322.184111 
L 869.126322 324.088685 
L 872.899882 316.388718 
L 876.673442 316.961588 
L 880.447002 312.49913 
L 891.767682 319.296175 
L 895.541242 322.300272 
L 899.314802 322.206083 
L 903.088362 316.960356 
L 906.861922 313.719378 
L 918.182602 316.226 
L 921.956162 318.461937 
L 925.729722 318.342823 
L 929.503282 314.478579 
L 933.276842 311.532221 
L 944.597523 317.583478 
L 948.371083 321.454584 
L 952.144643 327.228248 
L 955.918203 325.632653 
L 959.691763 320.63553 
L 971.012443 319.153295 
L 974.786003 315.508286 
L 978.559563 313.731403 
L 982.333123 308.376174 
L 986.106683 307.702272 
L 997.427363 312.486998 
L 1001.200923 307.833389 
L 1004.974483 306.69227 
L 1008.748043 301.435675 
L 1012.521603 294.778211 
L 1023.842283 299.766951 
L 1027.615843 297.327989 
L 1031.389403 302.483807 
L 1035.162963 310.497393 
L 1038.936523 301.824916 
L 1050.257203 298.406887 
L 1054.030763 293.662439 
L 1057.804323 281.687985 
L 1061.577883 277.369968 
L 1065.351443 278.729974 
L 1076.672124 283.778926 
L 1080.445684 280.792408 
L 1084.219244 286.389909 
L 1087.992804 284.571235 
L 1091.766364 274.522992 
L 1091.766364 274.522992 
" style="fill:none;stroke:#7f7f7f;stroke-linecap:square;stroke-width:1.5;"/>
   </g>
   <g id="line2d_27">
    <path clip-path="url(#pb563a5ed89)" d="M 103.093636 266.885021 
L 106.867196 269.877981 
L 110.640756 277.239068 
L 114.414316 270.3498 
L 125.734997 276.302365 
L 129.508557 260.583705 
L 133.282117 261.667193 
L 137.055677 267.965319 
L 140.829237 282.685683 
L 155.923477 284.776839 
L 159.697037 281.437954 
L 167.244157 290.503721 
L 178.564837 281.647469 
L 182.338397 268.226126 
L 186.111957 258.933388 
L 189.885517 253.849729 
L 193.659077 249.439484 
L 204.979757 251.122683 
L 208.753317 254.692292 
L 212.526877 249.68817 
L 216.300437 245.060419 
L 220.073997 249.352088 
L 231.394677 243.673722 
L 235.168237 255.084433 
L 238.941797 261.380835 
L 242.715357 260.809721 
L 246.488917 267.747256 
L 257.809598 258.866015 
L 261.583158 259.233438 
L 265.356718 255.135262 
L 269.130278 263.761517 
L 272.903838 259.522121 
L 284.224518 254.212036 
L 287.998078 249.444041 
L 291.771638 247.802507 
L 295.545198 263.087139 
L 299.318758 261.17504 
L 310.639438 249.500197 
L 314.412998 251.918745 
L 318.186558 234.324905 
L 321.960118 243.019688 
L 325.733678 227.999225 
L 337.054358 236.43509 
L 340.827918 251.237259 
L 344.601478 267.524713 
L 348.375038 261.407743 
L 352.148598 264.737821 
L 363.469278 263.234465 
L 367.242838 266.543244 
L 371.016398 258.019622 
L 374.789958 267.593747 
L 378.563518 266.232977 
L 389.884198 267.617607 
L 393.657759 273.412725 
L 397.431319 277.160337 
L 401.204879 290.137796 
L 404.978439 286.076695 
L 416.299119 303.773919 
L 420.072679 305.331635 
L 423.846239 300.203015 
L 427.619799 288.826163 
L 431.393359 282.774429 
L 442.714039 281.909038 
L 446.487599 283.668635 
L 450.261159 265.678353 
L 454.034719 248.497153 
L 457.808279 244.155996 
L 469.128959 254.461903 
L 472.902519 252.536428 
L 476.676079 239.933588 
L 480.449639 220.197435 
L 484.223199 202.80754 
L 495.543879 215.495491 
L 499.317439 226.548392 
L 503.090999 246.786009 
L 510.638119 277.672132 
L 521.958799 285.011251 
L 525.732359 279.778634 
L 529.50592 278.186481 
L 533.27948 278.738151 
L 537.05304 287.549587 
L 548.37372 294.357451 
L 552.14728 289.580629 
L 555.92084 291.784542 
L 559.6944 280.854085 
L 563.46796 284.647744 
L 574.78864 278.57677 
L 578.5622 279.282716 
L 582.33576 274.557905 
L 586.10932 264.002682 
L 589.88288 278.125749 
L 601.20356 273.276671 
L 604.97712 265.0846 
L 608.75068 282.588738 
L 612.52424 280.015419 
L 616.2978 275.447632 
L 627.61848 276.298283 
L 631.39204 262.372336 
L 635.1656 268.285625 
L 638.93916 269.375754 
L 642.71272 265.320653 
L 654.0334 272.735972 
L 657.80696 293.308626 
L 661.58052 285.837899 
L 665.35408 297.803743 
L 669.127641 306.028151 
L 680.448321 303.776471 
L 684.221881 293.79262 
L 687.995441 292.669603 
L 691.769001 296.959037 
L 695.542561 279.529291 
L 706.863241 291.486715 
L 710.636801 293.748978 
L 714.410361 300.890318 
L 718.183921 316.108675 
L 721.957481 312.560073 
L 733.278161 324.485781 
L 737.051721 313.778615 
L 740.825281 319.571555 
L 744.598841 322.542763 
L 748.372401 313.134857 
L 759.693081 326.273542 
L 763.466641 338.211766 
L 767.240201 338.31402 
L 771.013761 344.91 
L 774.787321 342.768382 
L 786.108001 332.461954 
L 789.881561 338.777906 
L 793.655121 330.958686 
L 797.428681 338.726672 
L 801.202241 340.477177 
L 812.522922 341.08802 
L 816.296482 337.137129 
L 820.070042 334.692995 
L 823.843602 326.437154 
L 827.617162 334.714596 
L 838.937842 329.047379 
L 842.711402 325.197645 
L 846.484962 313.872519 
L 850.258522 316.724319 
L 854.032082 319.420706 
L 865.352762 326.457504 
L 869.126322 328.422922 
L 872.899882 316.266464 
L 876.673442 320.379842 
L 880.447002 316.218189 
L 891.767682 327.926106 
L 895.541242 338.080167 
L 899.314802 337.553723 
L 903.088362 324.845896 
L 906.861922 328.051471 
L 918.182602 323.810477 
L 921.956162 325.37405 
L 925.729722 329.883401 
L 929.503282 323.431366 
L 933.276842 322.947359 
L 944.597523 328.893018 
L 948.371083 324.956996 
L 952.144643 331.102487 
L 955.918203 325.441372 
L 959.691763 325.663902 
L 971.012443 324.021117 
L 974.786003 316.885985 
L 978.559563 305.534136 
L 982.333123 299.374216 
L 986.106683 293.489787 
L 997.427363 297.958258 
L 1001.200923 294.568728 
L 1004.974483 291.762414 
L 1008.748043 286.522256 
L 1012.521603 272.855949 
L 1023.842283 284.390063 
L 1027.615843 289.96141 
L 1031.389403 298.031216 
L 1035.162963 299.150807 
L 1038.936523 282.357821 
L 1050.257203 269.420185 
L 1054.030763 260.972066 
L 1057.804323 231.199808 
L 1061.577883 220.599276 
L 1065.351443 223.074712 
L 1076.672124 226.193366 
L 1080.445684 211.618388 
L 1084.219244 236.178003 
L 1087.992804 231.191377 
L 1091.766364 200.978987 
L 1091.766364 200.978987 
" style="fill:none;stroke:#bcbd22;stroke-linecap:square;stroke-width:1.5;"/>
   </g>
   <g id="patch_3">
    <path d="M 53.66 360.1 
L 53.66 25.92 
" style="fill:none;stroke:#000000;stroke-linecap:square;stroke-linejoin:miter;stroke-width:0.8;"/>
   </g>
   <g id="patch_4">
    <path d="M 1141.2 360.1 
L 1141.2 25.92 
" style="fill:none;stroke:#000000;stroke-linecap:square;stroke-linejoin:miter;stroke-width:0.8;"/>
   </g>
   <g id="patch_5">
    <path d="M 53.66 360.1 
L 1141.2 360.1 
" style="fill:none;stroke:#000000;stroke-linecap:square;stroke-linejoin:miter;stroke-width:0.8;"/>
   </g>
   <g id="patch_6">
    <path d="M 53.66 25.92 
L 1141.2 25.92 
" style="fill:none;stroke:#000000;stroke-linecap:square;stroke-linejoin:miter;stroke-width:0.8;"/>
   </g>
   <g id="text_11">
    <!-- Net Value: (2010-01-18 ~ 2010-10-08) -->
    <g transform="translate(481.3225 19.92)scale(0.12 -0.12)">
     <defs>
      <path d="M 9.8125 72.90625 
L 23.09375 72.90625 
L 55.421875 11.921875 
L 55.421875 72.90625 
L 64.984375 72.90625 
L 64.984375 0 
L 51.703125 0 
L 19.390625 60.984375 
L 19.390625 0 
L 9.8125 0 
z
" id="DejaVuSans-78"/>
      <path d="M 28.609375 0 
L 0.78125 72.90625 
L 11.078125 72.90625 
L 34.1875 11.53125 
L 57.328125 72.90625 
L 67.578125 72.90625 
L 39.796875 0 
z
" id="DejaVuSans-86"/>
      <path d="M 11.71875 12.40625 
L 22.015625 12.40625 
L 22.015625 0 
L 11.71875 0 
z
M 11.71875 51.703125 
L 22.015625 51.703125 
L 22.015625 39.3125 
L 11.71875 39.3125 
z
" id="DejaVuSans-58"/>
      <path d="M 31 75.875 
Q 24.46875 64.65625 21.28125 53.65625 
Q 18.109375 42.671875 18.109375 31.390625 
Q 18.109375 20.125 21.3125 9.0625 
Q 24.515625 -2 31 -13.1875 
L 23.1875 -13.1875 
Q 15.875 -1.703125 12.234375 9.375 
Q 8.59375 20.453125 8.59375 31.390625 
Q 8.59375 42.28125 12.203125 53.3125 
Q 15.828125 64.359375 23.1875 75.875 
z
" id="DejaVuSans-40"/>
      <path d="M 4.890625 31.390625 
L 31.203125 31.390625 
L 31.203125 23.390625 
L 4.890625 23.390625 
z
" id="DejaVuSans-45"/>
      <path d="M 31.78125 34.625 
Q 24.75 34.625 20.71875 30.859375 
Q 16.703125 27.09375 16.703125 20.515625 
Q 16.703125 13.921875 20.71875 10.15625 
Q 24.75 6.390625 31.78125 6.390625 
Q 38.8125 6.390625 42.859375 10.171875 
Q 46.921875 13.96875 46.921875 20.515625 
Q 46.921875 27.09375 42.890625 30.859375 
Q 38.875 34.625 31.78125 34.625 
z
M 21.921875 38.8125 
Q 15.578125 40.375 12.03125 44.71875 
Q 8.5 49.078125 8.5 55.328125 
Q 8.5 64.0625 14.71875 69.140625 
Q 20.953125 74.21875 31.78125 74.21875 
Q 42.671875 74.21875 48.875 69.140625 
Q 55.078125 64.0625 55.078125 55.328125 
Q 55.078125 49.078125 51.53125 44.71875 
Q 48 40.375 41.703125 38.8125 
Q 48.828125 37.15625 52.796875 32.3125 
Q 56.78125 27.484375 56.78125 20.515625 
Q 56.78125 9.90625 50.3125 4.234375 
Q 43.84375 -1.421875 31.78125 -1.421875 
Q 19.734375 -1.421875 13.25 4.234375 
Q 6.78125 9.90625 6.78125 20.515625 
Q 6.78125 27.484375 10.78125 32.3125 
Q 14.796875 37.15625 21.921875 38.8125 
z
M 18.3125 54.390625 
Q 18.3125 48.734375 21.84375 45.5625 
Q 25.390625 42.390625 31.78125 42.390625 
Q 38.140625 42.390625 41.71875 45.5625 
Q 45.3125 48.734375 45.3125 54.390625 
Q 45.3125 60.0625 41.71875 63.234375 
Q 38.140625 66.40625 31.78125 66.40625 
Q 25.390625 66.40625 21.84375 63.234375 
Q 18.3125 60.0625 18.3125 54.390625 
z
" id="DejaVuSans-56"/>
      <path d="M 73.1875 39.890625 
L 73.1875 31.203125 
Q 68.0625 27.34375 63.6875 25.6875 
Q 59.328125 24.03125 54.59375 24.03125 
Q 49.21875 24.03125 42.09375 26.90625 
Q 41.546875 27.09375 41.3125 27.203125 
Q 40.96875 27.34375 40.234375 27.59375 
Q 32.671875 30.609375 28.078125 30.609375 
Q 23.78125 30.609375 19.578125 28.734375 
Q 15.375 26.859375 10.59375 22.796875 
L 10.59375 31.5 
Q 15.71875 35.359375 20.09375 37.03125 
Q 24.46875 38.71875 29.203125 38.71875 
Q 34.578125 38.71875 41.75 35.796875 
Q 42.234375 35.59375 42.484375 35.5 
Q 42.875 35.359375 43.5625 35.109375 
Q 51.125 32.078125 55.71875 32.078125 
Q 59.90625 32.078125 64.03125 33.9375 
Q 68.171875 35.796875 73.1875 39.890625 
z
" id="DejaVuSans-126"/>
      <path d="M 8.015625 75.875 
L 15.828125 75.875 
Q 23.140625 64.359375 26.78125 53.3125 
Q 30.421875 42.28125 30.421875 31.390625 
Q 30.421875 20.453125 26.78125 9.375 
Q 23.140625 -1.703125 15.828125 -13.1875 
L 8.015625 -13.1875 
Q 14.5 -2 17.703125 9.0625 
Q 20.90625 20.125 20.90625 31.390625 
Q 20.90625 42.671875 17.703125 53.65625 
Q 14.5 64.65625 8.015625 75.875 
z
" id="DejaVuSans-41"/>
     </defs>
     <use xlink:href="#DejaVuSans-78"/>
     <use x="74.804688" xlink:href="#DejaVuSans-101"/>
     <use x="136.328125" xlink:href="#DejaVuSans-116"/>
     <use x="175.537109" xlink:href="#DejaVuSans-32"/>
     <use x="207.324219" xlink:href="#DejaVuSans-86"/>
     <use x="267.982422" xlink:href="#DejaVuSans-97"/>
     <use x="329.261719" xlink:href="#DejaVuSans-108"/>
     <use x="357.044922" xlink:href="#DejaVuSans-117"/>
     <use x="420.423828" xlink:href="#DejaVuSans-101"/>
     <use x="481.947266" xlink:href="#DejaVuSans-58"/>
     <use x="515.638672" xlink:href="#DejaVuSans-32"/>
     <use x="547.425781" xlink:href="#DejaVuSans-40"/>
     <use x="586.439453" xlink:href="#DejaVuSans-50"/>
     <use x="650.0625" xlink:href="#DejaVuSans-48"/>
     <use x="713.685547" xlink:href="#DejaVuSans-49"/>
     <use x="777.308594" xlink:href="#DejaVuSans-48"/>
     <use x="840.931641" xlink:href="#DejaVuSans-45"/>
     <use x="877.015625" xlink:href="#DejaVuSans-48"/>
     <use x="940.638672" xlink:href="#DejaVuSans-49"/>
     <use x="1004.261719" xlink:href="#DejaVuSans-45"/>
     <use x="1040.345703" xlink:href="#DejaVuSans-49"/>
     <use x="1103.96875" xlink:href="#DejaVuSans-56"/>
     <use x="1167.591797" xlink:href="#DejaVuSans-32"/>
     <use x="1199.378906" xlink:href="#DejaVuSans-126"/>
     <use x="1283.167969" xlink:href="#DejaVuSans-32"/>
     <use x="1314.955078" xlink:href="#DejaVuSans-50"/>
     <use x="1378.578125" xlink:href="#DejaVuSans-48"/>
     <use x="1442.201172" xlink:href="#DejaVuSans-49"/>
     <use x="1505.824219" xlink:href="#DejaVuSans-48"/>
     <use x="1569.447266" xlink:href="#DejaVuSans-45"/>
     <use x="1605.53125" xlink:href="#DejaVuSans-49"/>
     <use x="1669.154297" xlink:href="#DejaVuSans-48"/>
     <use x="1732.777344" xlink:href="#DejaVuSans-45"/>
     <use x="1768.861328" xlink:href="#DejaVuSans-48"/>
     <use x="1832.484375" xlink:href="#DejaVuSans-56"/>
     <use x="1896.107422" xlink:href="#DejaVuSans-41"/>
    </g>
   </g>
   <g id="legend_1">
    <g id="patch_7">
     <path d="M 60.66 168.248125 
L 157.149062 168.248125 
Q 159.149062 168.248125 159.149062 166.248125 
L 159.149062 32.92 
Q 159.149062 30.92 157.149062 30.92 
L 60.66 30.92 
Q 58.66 30.92 58.66 32.92 
L 58.66 166.248125 
Q 58.66 168.248125 60.66 168.248125 
z
" style="fill:#ffffff;opacity:0.8;stroke:#cccccc;stroke-linejoin:miter;"/>
    </g>
    <g id="line2d_28">
     <path d="M 62.66 39.018438 
L 82.66 39.018438 
" style="fill:none;stroke:#1f77b4;stroke-linecap:square;stroke-width:1.5;"/>
    </g>
    <g id="line2d_29"/>
    <g id="text_12">
     <!-- group_1 -->
     <g transform="translate(90.66 42.518438)scale(0.1 -0.1)">
      <defs>
       <path d="M 45.40625 27.984375 
Q 45.40625 37.75 41.375 43.109375 
Q 37.359375 48.484375 30.078125 48.484375 
Q 22.859375 48.484375 18.828125 43.109375 
Q 14.796875 37.75 14.796875 27.984375 
Q 14.796875 18.265625 18.828125 12.890625 
Q 22.859375 7.515625 30.078125 7.515625 
Q 37.359375 7.515625 41.375 12.890625 
Q 45.40625 18.265625 45.40625 27.984375 
z
M 54.390625 6.78125 
Q 54.390625 -7.171875 48.1875 -13.984375 
Q 42 -20.796875 29.203125 -20.796875 
Q 24.46875 -20.796875 20.265625 -20.09375 
Q 16.0625 -19.390625 12.109375 -17.921875 
L 12.109375 -9.1875 
Q 16.0625 -11.328125 19.921875 -12.34375 
Q 23.78125 -13.375 27.78125 -13.375 
Q 36.625 -13.375 41.015625 -8.765625 
Q 45.40625 -4.15625 45.40625 5.171875 
L 45.40625 9.625 
Q 42.625 4.78125 38.28125 2.390625 
Q 33.9375 0 27.875 0 
Q 17.828125 0 11.671875 7.65625 
Q 5.515625 15.328125 5.515625 27.984375 
Q 5.515625 40.671875 11.671875 48.328125 
Q 17.828125 56 27.875 56 
Q 33.9375 56 38.28125 53.609375 
Q 42.625 51.21875 45.40625 46.390625 
L 45.40625 54.6875 
L 54.390625 54.6875 
z
" id="DejaVuSans-103"/>
       <path d="M 41.109375 46.296875 
Q 39.59375 47.171875 37.8125 47.578125 
Q 36.03125 48 33.890625 48 
Q 26.265625 48 22.1875 43.046875 
Q 18.109375 38.09375 18.109375 28.8125 
L 18.109375 0 
L 9.078125 0 
L 9.078125 54.6875 
L 18.109375 54.6875 
L 18.109375 46.1875 
Q 20.953125 51.171875 25.484375 53.578125 
Q 30.03125 56 36.53125 56 
Q 37.453125 56 38.578125 55.875 
Q 39.703125 55.765625 41.0625 55.515625 
z
" id="DejaVuSans-114"/>
       <path d="M 30.609375 48.390625 
Q 23.390625 48.390625 19.1875 42.75 
Q 14.984375 37.109375 14.984375 27.296875 
Q 14.984375 17.484375 19.15625 11.84375 
Q 23.34375 6.203125 30.609375 6.203125 
Q 37.796875 6.203125 41.984375 11.859375 
Q 46.1875 17.53125 46.1875 27.296875 
Q 46.1875 37.015625 41.984375 42.703125 
Q 37.796875 48.390625 30.609375 48.390625 
z
M 30.609375 56 
Q 42.328125 56 49.015625 48.375 
Q 55.71875 40.765625 55.71875 27.296875 
Q 55.71875 13.875 49.015625 6.21875 
Q 42.328125 -1.421875 30.609375 -1.421875 
Q 18.84375 -1.421875 12.171875 6.21875 
Q 5.515625 13.875 5.515625 27.296875 
Q 5.515625 40.765625 12.171875 48.375 
Q 18.84375 56 30.609375 56 
z
" id="DejaVuSans-111"/>
       <path d="M 18.109375 8.203125 
L 18.109375 -20.796875 
L 9.078125 -20.796875 
L 9.078125 54.6875 
L 18.109375 54.6875 
L 18.109375 46.390625 
Q 20.953125 51.265625 25.265625 53.625 
Q 29.59375 56 35.59375 56 
Q 45.5625 56 51.78125 48.09375 
Q 58.015625 40.1875 58.015625 27.296875 
Q 58.015625 14.40625 51.78125 6.484375 
Q 45.5625 -1.421875 35.59375 -1.421875 
Q 29.59375 -1.421875 25.265625 0.953125 
Q 20.953125 3.328125 18.109375 8.203125 
z
M 48.6875 27.296875 
Q 48.6875 37.203125 44.609375 42.84375 
Q 40.53125 48.484375 33.40625 48.484375 
Q 26.265625 48.484375 22.1875 42.84375 
Q 18.109375 37.203125 18.109375 27.296875 
Q 18.109375 17.390625 22.1875 11.75 
Q 26.265625 6.109375 33.40625 6.109375 
Q 40.53125 6.109375 44.609375 11.75 
Q 48.6875 17.390625 48.6875 27.296875 
z
" id="DejaVuSans-112"/>
       <path d="M 50.984375 -16.609375 
L 50.984375 -23.578125 
L -0.984375 -23.578125 
L -0.984375 -16.609375 
z
" id="DejaVuSans-95"/>
      </defs>
      <use xlink:href="#DejaVuSans-103"/>
      <use x="63.476562" xlink:href="#DejaVuSans-114"/>
      <use x="102.339844" xlink:href="#DejaVuSans-111"/>
      <use x="163.521484" xlink:href="#DejaVuSans-117"/>
      <use x="226.900391" xlink:href="#DejaVuSans-112"/>
      <use x="290.376953" xlink:href="#DejaVuSans-95"/>
      <use x="340.376953" xlink:href="#DejaVuSans-49"/>
     </g>
    </g>
    <g id="line2d_30">
     <path d="M 62.66 53.974688 
L 82.66 53.974688 
" style="fill:none;stroke:#ff7f0e;stroke-linecap:square;stroke-width:1.5;"/>
    </g>
    <g id="line2d_31"/>
    <g id="text_13">
     <!-- group_2 -->
     <g transform="translate(90.66 57.474688)scale(0.1 -0.1)">
      <use xlink:href="#DejaVuSans-103"/>
      <use x="63.476562" xlink:href="#DejaVuSans-114"/>
      <use x="102.339844" xlink:href="#DejaVuSans-111"/>
      <use x="163.521484" xlink:href="#DejaVuSans-117"/>
      <use x="226.900391" xlink:href="#DejaVuSans-112"/>
      <use x="290.376953" xlink:href="#DejaVuSans-95"/>
      <use x="340.376953" xlink:href="#DejaVuSans-50"/>
     </g>
    </g>
    <g id="line2d_32">
     <path d="M 62.66 68.930938 
L 82.66 68.930938 
" style="fill:none;stroke:#2ca02c;stroke-linecap:square;stroke-width:1.5;"/>
    </g>
    <g id="line2d_33"/>
    <g id="text_14">
     <!-- group_3 -->
     <g transform="translate(90.66 72.430938)scale(0.1 -0.1)">
      <defs>
       <path d="M 40.578125 39.3125 
Q 47.65625 37.796875 51.625 33 
Q 55.609375 28.21875 55.609375 21.1875 
Q 55.609375 10.40625 48.1875 4.484375 
Q 40.765625 -1.421875 27.09375 -1.421875 
Q 22.515625 -1.421875 17.65625 -0.515625 
Q 12.796875 0.390625 7.625 2.203125 
L 7.625 11.71875 
Q 11.71875 9.328125 16.59375 8.109375 
Q 21.484375 6.890625 26.8125 6.890625 
Q 36.078125 6.890625 40.9375 10.546875 
Q 45.796875 14.203125 45.796875 21.1875 
Q 45.796875 27.640625 41.28125 31.265625 
Q 36.765625 34.90625 28.71875 34.90625 
L 20.21875 34.90625 
L 20.21875 43.015625 
L 29.109375 43.015625 
Q 36.375 43.015625 40.234375 45.921875 
Q 44.09375 48.828125 44.09375 54.296875 
Q 44.09375 59.90625 40.109375 62.90625 
Q 36.140625 65.921875 28.71875 65.921875 
Q 24.65625 65.921875 20.015625 65.03125 
Q 15.375 64.15625 9.8125 62.3125 
L 9.8125 71.09375 
Q 15.4375 72.65625 20.34375 73.4375 
Q 25.25 74.21875 29.59375 74.21875 
Q 40.828125 74.21875 47.359375 69.109375 
Q 53.90625 64.015625 53.90625 55.328125 
Q 53.90625 49.265625 50.4375 45.09375 
Q 46.96875 40.921875 40.578125 39.3125 
z
" id="DejaVuSans-51"/>
      </defs>
      <use xlink:href="#DejaVuSans-103"/>
      <use x="63.476562" xlink:href="#DejaVuSans-114"/>
      <use x="102.339844" xlink:href="#DejaVuSans-111"/>
      <use x="163.521484" xlink:href="#DejaVuSans-117"/>
      <use x="226.900391" xlink:href="#DejaVuSans-112"/>
      <use x="290.376953" xlink:href="#DejaVuSans-95"/>
      <use x="340.376953" xlink:href="#DejaVuSans-51"/>
     </g>
    </g>
    <g id="line2d_34">
     <path d="M 62.66 83.887188 
L 82.66 83.887188 
" style="fill:none;stroke:#d62728;stroke-linecap:square;stroke-width:1.5;"/>
    </g>
    <g id="line2d_35"/>
    <g id="text_15">
     <!-- group_4 -->
     <g transform="translate(90.66 87.387188)scale(0.1 -0.1)">
      <defs>
       <path d="M 37.796875 64.3125 
L 12.890625 25.390625 
L 37.796875 25.390625 
z
M 35.203125 72.90625 
L 47.609375 72.90625 
L 47.609375 25.390625 
L 58.015625 25.390625 
L 58.015625 17.1875 
L 47.609375 17.1875 
L 47.609375 0 
L 37.796875 0 
L 37.796875 17.1875 
L 4.890625 17.1875 
L 4.890625 26.703125 
z
" id="DejaVuSans-52"/>
      </defs>
      <use xlink:href="#DejaVuSans-103"/>
      <use x="63.476562" xlink:href="#DejaVuSans-114"/>
      <use x="102.339844" xlink:href="#DejaVuSans-111"/>
      <use x="163.521484" xlink:href="#DejaVuSans-117"/>
      <use x="226.900391" xlink:href="#DejaVuSans-112"/>
      <use x="290.376953" xlink:href="#DejaVuSans-95"/>
      <use x="340.376953" xlink:href="#DejaVuSans-52"/>
     </g>
    </g>
    <g id="line2d_36">
     <path d="M 62.66 98.843438 
L 82.66 98.843438 
" style="fill:none;stroke:#9467bd;stroke-linecap:square;stroke-width:1.5;"/>
    </g>
    <g id="line2d_37"/>
    <g id="text_16">
     <!-- group_5 -->
     <g transform="translate(90.66 102.343438)scale(0.1 -0.1)">
      <use xlink:href="#DejaVuSans-103"/>
      <use x="63.476562" xlink:href="#DejaVuSans-114"/>
      <use x="102.339844" xlink:href="#DejaVuSans-111"/>
      <use x="163.521484" xlink:href="#DejaVuSans-117"/>
      <use x="226.900391" xlink:href="#DejaVuSans-112"/>
      <use x="290.376953" xlink:href="#DejaVuSans-95"/>
      <use x="340.376953" xlink:href="#DejaVuSans-53"/>
     </g>
    </g>
    <g id="line2d_38">
     <path d="M 62.66 113.799688 
L 82.66 113.799688 
" style="fill:none;stroke:#8c564b;stroke-linecap:square;stroke-width:1.5;"/>
    </g>
    <g id="line2d_39"/>
    <g id="text_17">
     <!-- benchmark -->
     <g transform="translate(90.66 117.299688)scale(0.1 -0.1)">
      <defs>
       <path d="M 48.6875 27.296875 
Q 48.6875 37.203125 44.609375 42.84375 
Q 40.53125 48.484375 33.40625 48.484375 
Q 26.265625 48.484375 22.1875 42.84375 
Q 18.109375 37.203125 18.109375 27.296875 
Q 18.109375 17.390625 22.1875 11.75 
Q 26.265625 6.109375 33.40625 6.109375 
Q 40.53125 6.109375 44.609375 11.75 
Q 48.6875 17.390625 48.6875 27.296875 
z
M 18.109375 46.390625 
Q 20.953125 51.265625 25.265625 53.625 
Q 29.59375 56 35.59375 56 
Q 45.5625 56 51.78125 48.09375 
Q 58.015625 40.1875 58.015625 27.296875 
Q 58.015625 14.40625 51.78125 6.484375 
Q 45.5625 -1.421875 35.59375 -1.421875 
Q 29.59375 -1.421875 25.265625 0.953125 
Q 20.953125 3.328125 18.109375 8.203125 
L 18.109375 0 
L 9.078125 0 
L 9.078125 75.984375 
L 18.109375 75.984375 
z
" id="DejaVuSans-98"/>
       <path d="M 48.78125 52.59375 
L 48.78125 44.1875 
Q 44.96875 46.296875 41.140625 47.34375 
Q 37.3125 48.390625 33.40625 48.390625 
Q 24.65625 48.390625 19.8125 42.84375 
Q 14.984375 37.3125 14.984375 27.296875 
Q 14.984375 17.28125 19.8125 11.734375 
Q 24.65625 6.203125 33.40625 6.203125 
Q 37.3125 6.203125 41.140625 7.25 
Q 44.96875 8.296875 48.78125 10.40625 
L 48.78125 2.09375 
Q 45.015625 0.34375 40.984375 -0.53125 
Q 36.96875 -1.421875 32.421875 -1.421875 
Q 20.0625 -1.421875 12.78125 6.34375 
Q 5.515625 14.109375 5.515625 27.296875 
Q 5.515625 40.671875 12.859375 48.328125 
Q 20.21875 56 33.015625 56 
Q 37.15625 56 41.109375 55.140625 
Q 45.0625 54.296875 48.78125 52.59375 
z
" id="DejaVuSans-99"/>
       <path d="M 54.890625 33.015625 
L 54.890625 0 
L 45.90625 0 
L 45.90625 32.71875 
Q 45.90625 40.484375 42.875 44.328125 
Q 39.84375 48.1875 33.796875 48.1875 
Q 26.515625 48.1875 22.3125 43.546875 
Q 18.109375 38.921875 18.109375 30.90625 
L 18.109375 0 
L 9.078125 0 
L 9.078125 75.984375 
L 18.109375 75.984375 
L 18.109375 46.1875 
Q 21.34375 51.125 25.703125 53.5625 
Q 30.078125 56 35.796875 56 
Q 45.21875 56 50.046875 50.171875 
Q 54.890625 44.34375 54.890625 33.015625 
z
" id="DejaVuSans-104"/>
       <path d="M 52 44.1875 
Q 55.375 50.25 60.0625 53.125 
Q 64.75 56 71.09375 56 
Q 79.640625 56 84.28125 50.015625 
Q 88.921875 44.046875 88.921875 33.015625 
L 88.921875 0 
L 79.890625 0 
L 79.890625 32.71875 
Q 79.890625 40.578125 77.09375 44.375 
Q 74.3125 48.1875 68.609375 48.1875 
Q 61.625 48.1875 57.5625 43.546875 
Q 53.515625 38.921875 53.515625 30.90625 
L 53.515625 0 
L 44.484375 0 
L 44.484375 32.71875 
Q 44.484375 40.625 41.703125 44.40625 
Q 38.921875 48.1875 33.109375 48.1875 
Q 26.21875 48.1875 22.15625 43.53125 
Q 18.109375 38.875 18.109375 30.90625 
L 18.109375 0 
L 9.078125 0 
L 9.078125 54.6875 
L 18.109375 54.6875 
L 18.109375 46.1875 
Q 21.1875 51.21875 25.484375 53.609375 
Q 29.78125 56 35.6875 56 
Q 41.65625 56 45.828125 52.96875 
Q 50 49.953125 52 44.1875 
z
" id="DejaVuSans-109"/>
       <path d="M 9.078125 75.984375 
L 18.109375 75.984375 
L 18.109375 31.109375 
L 44.921875 54.6875 
L 56.390625 54.6875 
L 27.390625 29.109375 
L 57.625 0 
L 45.90625 0 
L 18.109375 26.703125 
L 18.109375 0 
L 9.078125 0 
z
" id="DejaVuSans-107"/>
      </defs>
      <use xlink:href="#DejaVuSans-98"/>
      <use x="63.476562" xlink:href="#DejaVuSans-101"/>
      <use x="125" xlink:href="#DejaVuSans-110"/>
      <use x="188.378906" xlink:href="#DejaVuSans-99"/>
      <use x="243.359375" xlink:href="#DejaVuSans-104"/>
      <use x="306.738281" xlink:href="#DejaVuSans-109"/>
      <use x="404.150391" xlink:href="#DejaVuSans-97"/>
      <use x="465.429688" xlink:href="#DejaVuSans-114"/>
      <use x="506.542969" xlink:href="#DejaVuSans-107"/>
     </g>
    </g>
    <g id="line2d_40">
     <path d="M 62.66 128.477813 
L 82.66 128.477813 
" style="fill:none;stroke:#e377c2;stroke-linecap:square;stroke-width:1.5;"/>
    </g>
    <g id="line2d_41"/>
    <g id="text_18">
     <!-- long_excess -->
     <g transform="translate(90.66 131.977813)scale(0.1 -0.1)">
      <defs>
       <path d="M 54.890625 54.6875 
L 35.109375 28.078125 
L 55.90625 0 
L 45.3125 0 
L 29.390625 21.484375 
L 13.484375 0 
L 2.875 0 
L 24.125 28.609375 
L 4.6875 54.6875 
L 15.28125 54.6875 
L 29.78125 35.203125 
L 44.28125 54.6875 
z
" id="DejaVuSans-120"/>
       <path d="M 44.28125 53.078125 
L 44.28125 44.578125 
Q 40.484375 46.53125 36.375 47.5 
Q 32.28125 48.484375 27.875 48.484375 
Q 21.1875 48.484375 17.84375 46.4375 
Q 14.5 44.390625 14.5 40.28125 
Q 14.5 37.15625 16.890625 35.375 
Q 19.28125 33.59375 26.515625 31.984375 
L 29.59375 31.296875 
Q 39.15625 29.25 43.1875 25.515625 
Q 47.21875 21.78125 47.21875 15.09375 
Q 47.21875 7.46875 41.1875 3.015625 
Q 35.15625 -1.421875 24.609375 -1.421875 
Q 20.21875 -1.421875 15.453125 -0.5625 
Q 10.6875 0.296875 5.421875 2 
L 5.421875 11.28125 
Q 10.40625 8.6875 15.234375 7.390625 
Q 20.0625 6.109375 24.8125 6.109375 
Q 31.15625 6.109375 34.5625 8.28125 
Q 37.984375 10.453125 37.984375 14.40625 
Q 37.984375 18.0625 35.515625 20.015625 
Q 33.0625 21.96875 24.703125 23.78125 
L 21.578125 24.515625 
Q 13.234375 26.265625 9.515625 29.90625 
Q 5.8125 33.546875 5.8125 39.890625 
Q 5.8125 47.609375 11.28125 51.796875 
Q 16.75 56 26.8125 56 
Q 31.78125 56 36.171875 55.265625 
Q 40.578125 54.546875 44.28125 53.078125 
z
" id="DejaVuSans-115"/>
      </defs>
      <use xlink:href="#DejaVuSans-108"/>
      <use x="27.783203" xlink:href="#DejaVuSans-111"/>
      <use x="88.964844" xlink:href="#DejaVuSans-110"/>
      <use x="152.34375" xlink:href="#DejaVuSans-103"/>
      <use x="215.820312" xlink:href="#DejaVuSans-95"/>
      <use x="265.820312" xlink:href="#DejaVuSans-101"/>
      <use x="325.59375" xlink:href="#DejaVuSans-120"/>
      <use x="383.023438" xlink:href="#DejaVuSans-99"/>
      <use x="438.003906" xlink:href="#DejaVuSans-101"/>
      <use x="499.527344" xlink:href="#DejaVuSans-115"/>
      <use x="551.626953" xlink:href="#DejaVuSans-115"/>
     </g>
    </g>
    <g id="line2d_42">
     <path d="M 62.66 143.434063 
L 82.66 143.434063 
" style="fill:none;stroke:#7f7f7f;stroke-linecap:square;stroke-width:1.5;"/>
    </g>
    <g id="line2d_43"/>
    <g id="text_19">
     <!-- short_excess -->
     <g transform="translate(90.66 146.934063)scale(0.1 -0.1)">
      <use xlink:href="#DejaVuSans-115"/>
      <use x="52.099609" xlink:href="#DejaVuSans-104"/>
      <use x="115.478516" xlink:href="#DejaVuSans-111"/>
      <use x="176.660156" xlink:href="#DejaVuSans-114"/>
      <use x="217.773438" xlink:href="#DejaVuSans-116"/>
      <use x="256.982422" xlink:href="#DejaVuSans-95"/>
      <use x="306.982422" xlink:href="#DejaVuSans-101"/>
      <use x="366.755859" xlink:href="#DejaVuSans-120"/>
      <use x="424.185547" xlink:href="#DejaVuSans-99"/>
      <use x="479.166016" xlink:href="#DejaVuSans-101"/>
      <use x="540.689453" xlink:href="#DejaVuSans-115"/>
      <use x="592.789062" xlink:href="#DejaVuSans-115"/>
     </g>
    </g>
    <g id="line2d_44">
     <path d="M 62.66 158.390313 
L 82.66 158.390313 
" style="fill:none;stroke:#bcbd22;stroke-linecap:square;stroke-width:1.5;"/>
    </g>
    <g id="line2d_45"/>
    <g id="text_20">
     <!-- long_short -->
     <g transform="translate(90.66 161.890313)scale(0.1 -0.1)">
      <use xlink:href="#DejaVuSans-108"/>
      <use x="27.783203" xlink:href="#DejaVuSans-111"/>
      <use x="88.964844" xlink:href="#DejaVuSans-110"/>
      <use x="152.34375" xlink:href="#DejaVuSans-103"/>
      <use x="215.820312" xlink:href="#DejaVuSans-95"/>
      <use x="265.820312" xlink:href="#DejaVuSans-115"/>
      <use x="317.919922" xlink:href="#DejaVuSans-104"/>
      <use x="381.298828" xlink:href="#DejaVuSans-111"/>
      <use x="442.480469" xlink:href="#DejaVuSans-114"/>
      <use x="483.59375" xlink:href="#DejaVuSans-116"/>
     </g>
    </g>
   </g>
  </g>
 </g>
 <defs>
  <clipPath id="pb563a5ed89">
   <rect height="334.18" width="1087.54" x="53.66" y="25.92"/>
  </clipPath>
 </defs>
</svg>
