<?xml version="1.0" encoding="utf-8" standalone="no"?>
<!DOCTYPE svg PUBLIC "-//W3C//DTD SVG 1.1//EN"
  "http://www.w3.org/Graphics/SVG/1.1/DTD/svg11.dtd">
<!-- Created with matplotlib (https://matplotlib.org/) -->
<svg height="374.4pt" version="1.1" viewBox="0 0 1152 374.4" width="1152pt" xmlns="http://www.w3.org/2000/svg" xmlns:xlink="http://www.w3.org/1999/xlink">
 <metadata>
  <rdf:RDF xmlns:cc="http://creativecommons.org/ns#" xmlns:dc="http://purl.org/dc/elements/1.1/" xmlns:rdf="http://www.w3.org/1999/02/22-rdf-syntax-ns#">
   <cc:Work>
    <dc:type rdf:resource="http://purl.org/dc/dcmitype/StillImage"/>
    <dc:date>2023-10-11T16:36:53.001700</dc:date>
    <dc:format>image/svg+xml</dc:format>
    <dc:creator>
     <cc:Agent>
      <dc:title>Matplotlib v3.3.4, https://matplotlib.org/</dc:title>
     </cc:Agent>
    </dc:creator>
   </cc:Work>
  </rdf:RDF>
 </metadata>
 <defs>
  <style type="text/css">*{stroke-linecap:butt;stroke-linejoin:round;}</style>
 </defs>
 <g id="figure_1">
  <g id="patch_1">
   <path d="M 0 374.4 
L 1152 374.4 
L 1152 0 
L 0 0 
z
" style="fill:#ffffff;"/>
  </g>
  <g id="axes_1">
   <g id="patch_2">
    <path d="M 37.76 360.1 
L 1141.2 360.1 
L 1141.2 25.92 
L 37.76 25.92 
z
" style="fill:#ffffff;"/>
   </g>
   <g id="matplotlib.axis_1"/>
   <g id="matplotlib.axis_2">
    <g id="ytick_1">
     <g id="line2d_1">
      <path clip-path="url(#p6f74dee149)" d="M 37.76 295.695178 
L 1141.2 295.695178 
" style="fill:none;stroke:#b0b0b0;stroke-linecap:square;stroke-width:0.8;"/>
     </g>
     <g id="line2d_2">
      <defs>
       <path d="M 0 0 
L -3.5 0 
" id="mcd8a3d7a21" style="stroke:#000000;stroke-width:0.8;"/>
      </defs>
      <g>
       <use style="stroke:#000000;stroke-width:0.8;" x="37.76" xlink:href="#mcd8a3d7a21" y="295.695178"/>
      </g>
     </g>
     <g id="text_1">
      <!-- 1 -->
      <g transform="translate(24.3975 299.494397)scale(0.1 -0.1)">
       <defs>
        <path d="M 12.40625 8.296875 
L 28.515625 8.296875 
L 28.515625 63.921875 
L 10.984375 60.40625 
L 10.984375 69.390625 
L 28.421875 72.90625 
L 38.28125 72.90625 
L 38.28125 8.296875 
L 54.390625 8.296875 
L 54.390625 0 
L 12.40625 0 
z
" id="DejaVuSans-49"/>
       </defs>
       <use xlink:href="#DejaVuSans-49"/>
      </g>
     </g>
    </g>
    <g id="ytick_2">
     <g id="line2d_3">
      <path clip-path="url(#p6f74dee149)" d="M 37.76 229.67144 
L 1141.2 229.67144 
" style="fill:none;stroke:#b0b0b0;stroke-linecap:square;stroke-width:0.8;"/>
     </g>
     <g id="line2d_4">
      <g>
       <use style="stroke:#000000;stroke-width:0.8;" x="37.76" xlink:href="#mcd8a3d7a21" y="229.67144"/>
      </g>
     </g>
     <g id="text_2">
      <!-- 2 -->
      <g transform="translate(24.3975 233.470659)scale(0.1 -0.1)">
       <defs>
        <path d="M 19.1875 8.296875 
L 53.609375 8.296875 
L 53.609375 0 
L 7.328125 0 
L 7.328125 8.296875 
Q 12.9375 14.109375 22.625 23.890625 
Q 32.328125 33.6875 34.8125 36.53125 
Q 39.546875 41.84375 41.421875 45.53125 
Q 43.3125 49.21875 43.3125 52.78125 
Q 43.3125 58.59375 39.234375 62.25 
Q 35.15625 65.921875 28.609375 65.921875 
Q 23.96875 65.921875 18.8125 64.3125 
Q 13.671875 62.703125 7.8125 59.421875 
L 7.8125 69.390625 
Q 13.765625 71.78125 18.9375 73 
Q 24.125 74.21875 28.421875 74.21875 
Q 39.75 74.21875 46.484375 68.546875 
Q 53.21875 62.890625 53.21875 53.421875 
Q 53.21875 48.921875 51.53125 44.890625 
Q 49.859375 40.875 45.40625 35.40625 
Q 44.1875 33.984375 37.640625 27.21875 
Q 31.109375 20.453125 19.1875 8.296875 
z
" id="DejaVuSans-50"/>
       </defs>
       <use xlink:href="#DejaVuSans-50"/>
      </g>
     </g>
    </g>
    <g id="ytick_3">
     <g id="line2d_5">
      <path clip-path="url(#p6f74dee149)" d="M 37.76 163.647703 
L 1141.2 163.647703 
" style="fill:none;stroke:#b0b0b0;stroke-linecap:square;stroke-width:0.8;"/>
     </g>
     <g id="line2d_6">
      <g>
       <use style="stroke:#000000;stroke-width:0.8;" x="37.76" xlink:href="#mcd8a3d7a21" y="163.647703"/>
      </g>
     </g>
     <g id="text_3">
      <!-- 3 -->
      <g transform="translate(24.3975 167.446921)scale(0.1 -0.1)">
       <defs>
        <path d="M 40.578125 39.3125 
Q 47.65625 37.796875 51.625 33 
Q 55.609375 28.21875 55.609375 21.1875 
Q 55.609375 10.40625 48.1875 4.484375 
Q 40.765625 -1.421875 27.09375 -1.421875 
Q 22.515625 -1.421875 17.65625 -0.515625 
Q 12.796875 0.390625 7.625 2.203125 
L 7.625 11.71875 
Q 11.71875 9.328125 16.59375 8.109375 
Q 21.484375 6.890625 26.8125 6.890625 
Q 36.078125 6.890625 40.9375 10.546875 
Q 45.796875 14.203125 45.796875 21.1875 
Q 45.796875 27.640625 41.28125 31.265625 
Q 36.765625 34.90625 28.71875 34.90625 
L 20.21875 34.90625 
L 20.21875 43.015625 
L 29.109375 43.015625 
Q 36.375 43.015625 40.234375 45.921875 
Q 44.09375 48.828125 44.09375 54.296875 
Q 44.09375 59.90625 40.109375 62.90625 
Q 36.140625 65.921875 28.71875 65.921875 
Q 24.65625 65.921875 20.015625 65.03125 
Q 15.375 64.15625 9.8125 62.3125 
L 9.8125 71.09375 
Q 15.4375 72.65625 20.34375 73.4375 
Q 25.25 74.21875 29.59375 74.21875 
Q 40.828125 74.21875 47.359375 69.109375 
Q 53.90625 64.015625 53.90625 55.328125 
Q 53.90625 49.265625 50.4375 45.09375 
Q 46.96875 40.921875 40.578125 39.3125 
z
" id="DejaVuSans-51"/>
       </defs>
       <use xlink:href="#DejaVuSans-51"/>
      </g>
     </g>
    </g>
    <g id="ytick_4">
     <g id="line2d_7">
      <path clip-path="url(#p6f74dee149)" d="M 37.76 97.623965 
L 1141.2 97.623965 
" style="fill:none;stroke:#b0b0b0;stroke-linecap:square;stroke-width:0.8;"/>
     </g>
     <g id="line2d_8">
      <g>
       <use style="stroke:#000000;stroke-width:0.8;" x="37.76" xlink:href="#mcd8a3d7a21" y="97.623965"/>
      </g>
     </g>
     <g id="text_4">
      <!-- 4 -->
      <g transform="translate(24.3975 101.423184)scale(0.1 -0.1)">
       <defs>
        <path d="M 37.796875 64.3125 
L 12.890625 25.390625 
L 37.796875 25.390625 
z
M 35.203125 72.90625 
L 47.609375 72.90625 
L 47.609375 25.390625 
L 58.015625 25.390625 
L 58.015625 17.1875 
L 47.609375 17.1875 
L 47.609375 0 
L 37.796875 0 
L 37.796875 17.1875 
L 4.890625 17.1875 
L 4.890625 26.703125 
z
" id="DejaVuSans-52"/>
       </defs>
       <use xlink:href="#DejaVuSans-52"/>
      </g>
     </g>
    </g>
    <g id="ytick_5">
     <g id="line2d_9">
      <path clip-path="url(#p6f74dee149)" d="M 37.76 31.600227 
L 1141.2 31.600227 
" style="fill:none;stroke:#b0b0b0;stroke-linecap:square;stroke-width:0.8;"/>
     </g>
     <g id="line2d_10">
      <g>
       <use style="stroke:#000000;stroke-width:0.8;" x="37.76" xlink:href="#mcd8a3d7a21" y="31.600227"/>
      </g>
     </g>
     <g id="text_5">
      <!-- 5 -->
      <g transform="translate(24.3975 35.399446)scale(0.1 -0.1)">
       <defs>
        <path d="M 10.796875 72.90625 
L 49.515625 72.90625 
L 49.515625 64.59375 
L 19.828125 64.59375 
L 19.828125 46.734375 
Q 21.96875 47.46875 24.109375 47.828125 
Q 26.265625 48.1875 28.421875 48.1875 
Q 40.625 48.1875 47.75 41.5 
Q 54.890625 34.8125 54.890625 23.390625 
Q 54.890625 11.625 47.5625 5.09375 
Q 40.234375 -1.421875 26.90625 -1.421875 
Q 22.3125 -1.421875 17.546875 -0.640625 
Q 12.796875 0.140625 7.71875 1.703125 
L 7.71875 11.625 
Q 12.109375 9.234375 16.796875 8.0625 
Q 21.484375 6.890625 26.703125 6.890625 
Q 35.15625 6.890625 40.078125 11.328125 
Q 45.015625 15.765625 45.015625 23.390625 
Q 45.015625 31 40.078125 35.4375 
Q 35.15625 39.890625 26.703125 39.890625 
Q 22.75 39.890625 18.8125 39.015625 
Q 14.890625 38.140625 10.796875 36.28125 
z
" id="DejaVuSans-53"/>
       </defs>
       <use xlink:href="#DejaVuSans-53"/>
      </g>
     </g>
    </g>
    <g id="text_6">
     <!-- net value -->
     <g transform="translate(18.317812 216.462344)rotate(-90)scale(0.1 -0.1)">
      <defs>
       <path d="M 54.890625 33.015625 
L 54.890625 0 
L 45.90625 0 
L 45.90625 32.71875 
Q 45.90625 40.484375 42.875 44.328125 
Q 39.84375 48.1875 33.796875 48.1875 
Q 26.515625 48.1875 22.3125 43.546875 
Q 18.109375 38.921875 18.109375 30.90625 
L 18.109375 0 
L 9.078125 0 
L 9.078125 54.6875 
L 18.109375 54.6875 
L 18.109375 46.1875 
Q 21.34375 51.125 25.703125 53.5625 
Q 30.078125 56 35.796875 56 
Q 45.21875 56 50.046875 50.171875 
Q 54.890625 44.34375 54.890625 33.015625 
z
" id="DejaVuSans-110"/>
       <path d="M 56.203125 29.59375 
L 56.203125 25.203125 
L 14.890625 25.203125 
Q 15.484375 15.921875 20.484375 11.0625 
Q 25.484375 6.203125 34.421875 6.203125 
Q 39.59375 6.203125 44.453125 7.46875 
Q 49.3125 8.734375 54.109375 11.28125 
L 54.109375 2.78125 
Q 49.265625 0.734375 44.1875 -0.34375 
Q 39.109375 -1.421875 33.890625 -1.421875 
Q 20.796875 -1.421875 13.15625 6.1875 
Q 5.515625 13.8125 5.515625 26.8125 
Q 5.515625 40.234375 12.765625 48.109375 
Q 20.015625 56 32.328125 56 
Q 43.359375 56 49.78125 48.890625 
Q 56.203125 41.796875 56.203125 29.59375 
z
M 47.21875 32.234375 
Q 47.125 39.59375 43.09375 43.984375 
Q 39.0625 48.390625 32.421875 48.390625 
Q 24.90625 48.390625 20.390625 44.140625 
Q 15.875 39.890625 15.1875 32.171875 
z
" id="DejaVuSans-101"/>
       <path d="M 18.3125 70.21875 
L 18.3125 54.6875 
L 36.8125 54.6875 
L 36.8125 47.703125 
L 18.3125 47.703125 
L 18.3125 18.015625 
Q 18.3125 11.328125 20.140625 9.421875 
Q 21.96875 7.515625 27.59375 7.515625 
L 36.8125 7.515625 
L 36.8125 0 
L 27.59375 0 
Q 17.1875 0 13.234375 3.875 
Q 9.28125 7.765625 9.28125 18.015625 
L 9.28125 47.703125 
L 2.6875 47.703125 
L 2.6875 54.6875 
L 9.28125 54.6875 
L 9.28125 70.21875 
z
" id="DejaVuSans-116"/>
       <path id="DejaVuSans-32"/>
       <path d="M 2.984375 54.6875 
L 12.5 54.6875 
L 29.59375 8.796875 
L 46.6875 54.6875 
L 56.203125 54.6875 
L 35.6875 0 
L 23.484375 0 
z
" id="DejaVuSans-118"/>
       <path d="M 34.28125 27.484375 
Q 23.390625 27.484375 19.1875 25 
Q 14.984375 22.515625 14.984375 16.5 
Q 14.984375 11.71875 18.140625 8.90625 
Q 21.296875 6.109375 26.703125 6.109375 
Q 34.1875 6.109375 38.703125 11.40625 
Q 43.21875 16.703125 43.21875 25.484375 
L 43.21875 27.484375 
z
M 52.203125 31.203125 
L 52.203125 0 
L 43.21875 0 
L 43.21875 8.296875 
Q 40.140625 3.328125 35.546875 0.953125 
Q 30.953125 -1.421875 24.3125 -1.421875 
Q 15.921875 -1.421875 10.953125 3.296875 
Q 6 8.015625 6 15.921875 
Q 6 25.140625 12.171875 29.828125 
Q 18.359375 34.515625 30.609375 34.515625 
L 43.21875 34.515625 
L 43.21875 35.40625 
Q 43.21875 41.609375 39.140625 45 
Q 35.0625 48.390625 27.6875 48.390625 
Q 23 48.390625 18.546875 47.265625 
Q 14.109375 46.140625 10.015625 43.890625 
L 10.015625 52.203125 
Q 14.9375 54.109375 19.578125 55.046875 
Q 24.21875 56 28.609375 56 
Q 40.484375 56 46.34375 49.84375 
Q 52.203125 43.703125 52.203125 31.203125 
z
" id="DejaVuSans-97"/>
       <path d="M 9.421875 75.984375 
L 18.40625 75.984375 
L 18.40625 0 
L 9.421875 0 
z
" id="DejaVuSans-108"/>
       <path d="M 8.5 21.578125 
L 8.5 54.6875 
L 17.484375 54.6875 
L 17.484375 21.921875 
Q 17.484375 14.15625 20.5 10.265625 
Q 23.53125 6.390625 29.59375 6.390625 
Q 36.859375 6.390625 41.078125 11.03125 
Q 45.3125 15.671875 45.3125 23.6875 
L 45.3125 54.6875 
L 54.296875 54.6875 
L 54.296875 0 
L 45.3125 0 
L 45.3125 8.40625 
Q 42.046875 3.421875 37.71875 1 
Q 33.40625 -1.421875 27.6875 -1.421875 
Q 18.265625 -1.421875 13.375 4.4375 
Q 8.5 10.296875 8.5 21.578125 
z
M 31.109375 56 
z
" id="DejaVuSans-117"/>
      </defs>
      <use xlink:href="#DejaVuSans-110"/>
      <use x="63.378906" xlink:href="#DejaVuSans-101"/>
      <use x="124.902344" xlink:href="#DejaVuSans-116"/>
      <use x="164.111328" xlink:href="#DejaVuSans-32"/>
      <use x="195.898438" xlink:href="#DejaVuSans-118"/>
      <use x="255.078125" xlink:href="#DejaVuSans-97"/>
      <use x="316.357422" xlink:href="#DejaVuSans-108"/>
      <use x="344.140625" xlink:href="#DejaVuSans-117"/>
      <use x="407.519531" xlink:href="#DejaVuSans-101"/>
     </g>
    </g>
   </g>
   <g id="line2d_11">
    <path clip-path="url(#p6f74dee149)" d="M 87.916364 295.825022 
L 91.961232 296.832827 
L 96.0061 298.694233 
L 100.050968 300.293042 
L 112.185572 299.629725 
L 116.23044 300.295718 
L 120.275308 302.773636 
L 124.320176 299.077032 
L 128.365044 302.417262 
L 140.499648 303.211668 
L 144.544516 304.610488 
L 148.589384 304.370386 
L 152.634252 306.791919 
L 156.67912 306.036448 
L 168.813724 307.379156 
L 172.858592 310.966139 
L 180.948328 312.592349 
L 184.993196 312.182373 
L 197.127801 312.384356 
L 201.172669 309.30718 
L 205.217537 309.748141 
L 209.262405 314.162448 
L 213.307273 313.507987 
L 225.441877 314.095764 
L 229.486745 313.55062 
L 233.531613 314.826652 
L 237.576481 315.97023 
L 241.621349 316.060274 
L 253.755953 316.450473 
L 257.800821 318.299723 
L 261.845689 319.786597 
L 265.890557 319.507136 
L 269.935425 320.973388 
L 282.070029 322.202863 
L 286.114897 322.463782 
L 290.159765 321.021239 
L 294.204633 322.03954 
L 298.249501 325.635726 
L 310.384106 325.511756 
L 314.428974 327.941819 
L 318.473842 330.050972 
L 322.51871 332.465523 
L 326.563578 331.612196 
L 338.698182 331.032153 
L 342.74305 333.0047 
L 346.787918 331.058353 
L 350.832786 332.084391 
L 354.877654 332.912698 
L 367.012258 331.811068 
L 371.057126 332.434705 
L 375.101994 332.844586 
L 379.146862 332.733546 
L 383.19173 334.21001 
L 399.371202 334.745428 
L 403.41607 336.035595 
L 407.460938 335.087668 
L 411.505806 332.834065 
L 423.640411 334.125566 
L 427.685279 335.99742 
L 431.730147 336.635298 
L 435.775015 334.954756 
L 439.819883 336.519743 
L 451.954487 334.641984 
L 455.999355 335.709446 
L 460.044223 334.870913 
L 464.089091 335.46623 
L 468.133959 333.935114 
L 480.268563 333.837733 
L 484.313431 333.617056 
L 488.358299 333.277229 
L 492.403167 332.570285 
L 496.448035 331.446307 
L 508.582639 330.764122 
L 516.672375 334.874699 
L 520.717243 334.570782 
L 524.762111 334.083669 
L 536.896716 334.333068 
L 540.941584 335.69772 
L 544.986452 336.495583 
L 549.03132 336.299296 
L 553.076188 337.118013 
L 565.210792 335.881118 
L 569.25566 334.546784 
L 573.300528 336.356671 
L 577.345396 336.612581 
L 581.390264 335.827494 
L 593.524868 336.924267 
L 597.569736 336.843978 
L 601.614604 337.049283 
L 605.659472 338.858277 
L 609.70434 338.332678 
L 621.838944 338.556015 
L 625.883812 338.335345 
L 629.92868 338.947772 
L 633.973548 340.181237 
L 638.018416 340.84276 
L 654.197889 341.223357 
L 658.242757 342.543267 
L 662.287625 342.73261 
L 666.332493 342.556982 
L 678.467097 343.040924 
L 682.511965 342.240324 
L 686.556833 342.538154 
L 690.601701 342.476101 
L 694.646569 342.64342 
L 706.781173 342.56085 
L 710.826041 343.077983 
L 714.870909 341.583321 
L 722.960645 340.272719 
L 735.095249 339.906491 
L 739.140117 341.25635 
L 747.229853 342.221474 
L 751.274721 341.591445 
L 763.409326 342.043585 
L 767.454194 341.897209 
L 771.499062 342.03831 
L 775.54393 341.248543 
L 779.588798 341.440895 
L 791.723402 342.269861 
L 795.76827 342.400755 
L 799.813138 342.804558 
L 803.858006 342.093798 
L 807.902874 340.73654 
L 820.037478 340.589768 
L 824.082346 340.903027 
L 828.127214 339.932878 
L 832.172082 340.468123 
L 836.21695 341.403397 
L 848.351554 340.259249 
L 852.396422 340.33981 
L 856.44129 340.725365 
L 860.486158 340.401724 
L 864.531026 339.583778 
L 876.66563 340.96871 
L 880.710499 341.022999 
L 884.755367 342.362258 
L 888.800235 341.305157 
L 892.845103 341.911549 
L 904.979707 343.068186 
L 909.024575 342.560999 
L 913.069443 343.508406 
L 917.114311 342.975935 
L 921.159179 343.964747 
L 933.293783 343.265119 
L 937.338651 344.352702 
L 941.383519 344.884807 
L 945.428387 344.91 
L 949.473255 344.666413 
L 961.607859 343.456891 
L 965.652727 343.633288 
L 973.742463 343.346551 
L 977.787331 342.806632 
L 989.921935 341.966015 
L 993.966804 341.128626 
L 998.011672 341.008024 
L 1002.05654 342.200185 
L 1006.101408 341.560504 
L 1018.236012 340.519305 
L 1026.325748 341.582799 
L 1030.370616 340.639639 
L 1034.415484 340.94824 
L 1046.550088 341.484965 
L 1050.594956 340.546826 
L 1054.639824 341.624821 
L 1058.684692 340.366729 
L 1062.72956 338.429387 
L 1074.864164 336.694437 
L 1078.909032 336.32315 
L 1082.9539 336.833537 
L 1086.998768 337.694718 
L 1091.043636 336.265153 
L 1091.043636 336.265153 
" style="fill:none;stroke:#1f77b4;stroke-linecap:square;stroke-width:1.5;"/>
   </g>
   <g id="line2d_12">
    <path clip-path="url(#p6f74dee149)" d="M 87.916364 300.108924 
L 91.961232 298.0571 
L 96.0061 303.337087 
L 100.050968 306.068357 
L 112.185572 305.67616 
L 116.23044 305.780682 
L 120.275308 306.724258 
L 124.320176 306.244766 
L 128.365044 301.17652 
L 140.499648 302.720833 
L 144.544516 300.894408 
L 148.589384 302.112306 
L 152.634252 304.423398 
L 156.67912 299.213132 
L 168.813724 295.732344 
L 172.858592 296.317548 
L 176.90346 294.27127 
L 180.948328 293.259836 
L 184.993196 292.508909 
L 197.127801 287.021148 
L 201.172669 287.870656 
L 209.262405 286.41805 
L 213.307273 290.304224 
L 225.441877 290.766642 
L 229.486745 289.089773 
L 233.531613 293.078545 
L 237.576481 292.714849 
L 241.621349 287.411947 
L 253.755953 286.18356 
L 257.800821 284.421135 
L 261.845689 280.22544 
L 265.890557 281.125884 
L 269.935425 273.712012 
L 282.070029 276.381071 
L 286.114897 280.950725 
L 290.159765 275.098887 
L 294.204633 276.746979 
L 298.249501 274.374623 
L 310.384106 272.764724 
L 314.428974 269.351094 
L 318.473842 271.183081 
L 322.51871 270.268545 
L 326.563578 263.813315 
L 338.698182 257.772729 
L 342.74305 253.510368 
L 346.787918 255.218653 
L 350.832786 253.849731 
L 354.877654 258.476224 
L 367.012258 260.22684 
L 371.057126 256.480124 
L 375.101994 256.863764 
L 379.146862 249.961418 
L 383.19173 249.412451 
L 395.326334 251.2126 
L 399.371202 243.996779 
L 403.41607 243.932154 
L 407.460938 236.628629 
L 411.505806 235.188074 
L 423.640411 235.373802 
L 427.685279 240.486113 
L 431.730147 239.887991 
L 435.775015 231.005251 
L 439.819883 223.419826 
L 451.954487 218.095983 
L 455.999355 218.956933 
L 460.044223 216.828455 
L 464.089091 227.169561 
L 468.133959 221.781347 
L 480.268563 225.502896 
L 484.313431 224.480506 
L 488.358299 228.403358 
L 492.403167 225.953272 
L 496.448035 237.815835 
L 508.582639 232.55295 
L 512.627507 232.64662 
L 516.672375 233.063079 
L 520.717243 230.689522 
L 524.762111 222.009599 
L 536.896716 226.03051 
L 540.941584 233.439226 
L 544.986452 231.379295 
L 549.03132 229.996139 
L 553.076188 231.41005 
L 565.210792 234.047832 
L 569.25566 232.025991 
L 573.300528 231.6008 
L 577.345396 222.434415 
L 581.390264 223.023046 
L 593.524868 228.148163 
L 597.569736 228.333398 
L 601.614604 233.051386 
L 605.659472 234.661123 
L 609.70434 235.555945 
L 621.838944 238.36061 
L 625.883812 245.338587 
L 629.92868 246.650779 
L 633.973548 248.648029 
L 638.018416 242.219155 
L 650.153021 249.061578 
L 654.197889 246.829211 
L 658.242757 243.227388 
L 662.287625 248.156001 
L 666.332493 248.916087 
L 678.467097 253.74597 
L 682.511965 256.759214 
L 686.556833 256.378893 
L 690.601701 260.881038 
L 694.646569 251.548591 
L 706.781173 248.953633 
L 710.826041 248.56761 
L 714.870909 251.604819 
L 718.915777 249.274116 
L 722.960645 253.788508 
L 735.095249 251.278476 
L 739.140117 251.166826 
L 743.184985 256.255783 
L 747.229853 255.04407 
L 751.274721 246.6014 
L 763.409326 252.613766 
L 767.454194 251.854255 
L 771.499062 252.913572 
L 775.54393 251.442935 
L 779.588798 248.325934 
L 791.723402 248.377829 
L 795.76827 244.678772 
L 799.813138 243.112641 
L 803.858006 246.702099 
L 807.902874 251.81842 
L 820.037478 247.189144 
L 824.082346 240.744164 
L 828.127214 246.095501 
L 832.172082 245.596623 
L 836.21695 253.030974 
L 848.351554 257.445049 
L 852.396422 254.377557 
L 856.44129 255.498256 
L 860.486158 260.971722 
L 864.531026 256.930656 
L 876.66563 259.383942 
L 880.710499 267.545338 
L 884.755367 268.220343 
L 888.800235 272.588703 
L 892.845103 275.37995 
L 904.979707 271.736783 
L 909.024575 272.211138 
L 913.069443 275.585531 
L 917.114311 279.756981 
L 921.159179 284.762114 
L 933.293783 282.908007 
L 937.338651 287.432663 
L 941.383519 282.791579 
L 945.428387 286.433833 
L 949.473255 286.776727 
L 961.607859 282.863512 
L 965.652727 279.508167 
L 969.697595 284.804685 
L 973.742463 282.497546 
L 977.787331 277.011182 
L 989.921935 278.253063 
L 993.966804 275.603473 
L 998.011672 275.324014 
L 1002.05654 274.702547 
L 1006.101408 272.035292 
L 1018.236012 272.355067 
L 1022.28088 271.918236 
L 1026.325748 277.628 
L 1030.370616 283.141012 
L 1034.415484 282.432752 
L 1050.594956 285.512733 
L 1054.639824 281.059642 
L 1058.684692 283.670241 
L 1062.72956 278.297015 
L 1074.864164 284.071127 
L 1078.909032 280.903702 
L 1082.9539 278.89157 
L 1091.043636 275.743025 
L 1091.043636 275.743025 
" style="fill:none;stroke:#ff7f0e;stroke-linecap:square;stroke-width:1.5;"/>
   </g>
   <g id="line2d_13">
    <path clip-path="url(#p6f74dee149)" d="M 87.916364 293.101219 
L 91.961232 293.074783 
L 96.0061 293.90213 
L 100.050968 289.404832 
L 112.185572 287.665765 
L 116.23044 283.962883 
L 120.275308 284.355669 
L 124.320176 280.973468 
L 128.365044 274.264178 
L 140.499648 277.314771 
L 144.544516 275.694216 
L 148.589384 272.979509 
L 152.634252 276.279377 
L 156.67912 275.391059 
L 168.813724 272.86763 
L 172.858592 276.701398 
L 176.90346 272.85714 
L 180.948328 276.97524 
L 184.993196 278.935448 
L 197.127801 280.46425 
L 201.172669 277.074975 
L 205.217537 274.951487 
L 209.262405 275.972328 
L 213.307273 276.72757 
L 225.441877 275.200097 
L 229.486745 277.528439 
L 233.531613 276.704865 
L 237.576481 273.637033 
L 241.621349 276.795249 
L 253.755953 275.376632 
L 257.800821 272.153804 
L 261.845689 271.407529 
L 265.890557 267.346121 
L 269.935425 274.565065 
L 282.070029 269.093105 
L 286.114897 276.292719 
L 290.159765 275.164602 
L 294.204633 278.799412 
L 298.249501 279.570247 
L 310.384106 281.595259 
L 314.428974 283.224017 
L 318.473842 282.704722 
L 322.51871 277.267037 
L 326.563578 271.224379 
L 338.698182 270.564731 
L 342.74305 267.282036 
L 346.787918 261.641552 
L 350.832786 254.074708 
L 354.877654 247.935109 
L 367.012258 251.481993 
L 371.057126 255.896151 
L 375.101994 259.283105 
L 379.146862 253.54525 
L 383.19173 258.537871 
L 395.326334 256.612362 
L 399.371202 251.834478 
L 403.41607 248.71663 
L 407.460938 247.423682 
L 411.505806 248.953317 
L 423.640411 249.347197 
L 427.685279 254.056148 
L 431.730147 256.786137 
L 435.775015 255.961459 
L 439.819883 252.709791 
L 451.954487 247.431752 
L 455.999355 250.558683 
L 460.044223 257.631866 
L 464.089091 251.675716 
L 468.133959 249.940508 
L 480.268563 249.639598 
L 484.313431 248.523567 
L 488.358299 246.839217 
L 492.403167 246.720575 
L 496.448035 244.632425 
L 508.582639 239.121298 
L 512.627507 233.882869 
L 516.672375 237.608403 
L 520.717243 229.042087 
L 524.762111 235.792601 
L 536.896716 238.690988 
L 540.941584 246.346815 
L 544.986452 240.103535 
L 549.03132 238.360645 
L 553.076188 239.172011 
L 565.210792 235.14054 
L 569.25566 234.748337 
L 573.300528 239.827196 
L 577.345396 233.195501 
L 581.390264 232.380148 
L 593.524868 234.317819 
L 597.569736 230.2433 
L 601.614604 239.355656 
L 605.659472 234.093794 
L 609.70434 225.957976 
L 621.838944 227.850938 
L 625.883812 220.794011 
L 629.92868 213.206562 
L 633.973548 205.90863 
L 650.153021 189.505455 
L 654.197889 174.883244 
L 658.242757 167.690295 
L 662.287625 183.089643 
L 666.332493 183.715065 
L 678.467097 182.092329 
L 682.511965 186.028982 
L 686.556833 198.170339 
L 690.601701 186.15397 
L 694.646569 192.605066 
L 706.781173 196.042312 
L 710.826041 188.595393 
L 714.870909 190.783014 
L 718.915777 176.90311 
L 722.960645 171.506677 
L 735.095249 173.099248 
L 739.140117 172.486717 
L 743.184985 166.180859 
L 747.229853 167.332499 
L 751.274721 170.050013 
L 763.409326 176.920932 
L 767.454194 178.206217 
L 771.499062 175.9702 
L 775.54393 174.697104 
L 779.588798 174.558164 
L 791.723402 173.240274 
L 795.76827 176.682483 
L 799.813138 171.917033 
L 803.858006 182.951981 
L 807.902874 181.796877 
L 820.037478 192.088195 
L 824.082346 183.130553 
L 828.127214 178.701689 
L 832.172082 173.25599 
L 836.21695 155.834566 
L 848.351554 151.096108 
L 852.396422 141.147699 
L 856.44129 134.821305 
L 860.486158 130.928529 
L 864.531026 124.265541 
L 876.66563 132.881484 
L 880.710499 147.076827 
L 884.755367 139.696692 
L 888.800235 139.250093 
L 892.845103 133.776937 
L 909.024575 151.765098 
L 913.069443 146.488527 
L 917.114311 154.538127 
L 921.159179 162.021793 
L 933.293783 149.937418 
L 937.338651 147.17674 
L 941.383519 145.05918 
L 945.428387 147.34308 
L 949.473255 146.003876 
L 961.607859 138.877768 
L 965.652727 124.734117 
L 969.697595 125.686348 
L 973.742463 133.200015 
L 977.787331 132.203402 
L 989.921935 131.186804 
L 993.966804 132.444715 
L 998.011672 131.182305 
L 1002.05654 128.508822 
L 1006.101408 133.261661 
L 1018.236012 120.72642 
L 1022.28088 112.057584 
L 1026.325748 116.384258 
L 1030.370616 110.024772 
L 1034.415484 110.101834 
L 1046.550088 92.732732 
L 1050.594956 77.729906 
L 1054.639824 86.564535 
L 1058.684692 98.884234 
L 1062.72956 92.171553 
L 1074.864164 99.535373 
L 1078.909032 98.213828 
L 1082.9539 81.211426 
L 1086.998768 93.564797 
L 1091.043636 80.779811 
L 1091.043636 80.779811 
" style="fill:none;stroke:#2ca02c;stroke-linecap:square;stroke-width:1.5;"/>
   </g>
   <g id="line2d_14">
    <path clip-path="url(#p6f74dee149)" d="M 87.916364 295.438467 
L 91.961232 293.834678 
L 96.0061 297.848447 
L 100.050968 291.953179 
L 112.185572 293.590623 
L 116.23044 295.050548 
L 120.275308 293.289737 
L 124.320176 292.502935 
L 128.365044 289.248897 
L 140.499648 293.793073 
L 144.544516 294.575483 
L 148.589384 292.529865 
L 152.634252 295.882947 
L 156.67912 297.785894 
L 168.813724 302.984749 
L 172.858592 304.992994 
L 176.90346 302.66553 
L 180.948328 304.37783 
L 184.993196 307.7118 
L 197.127801 308.976597 
L 201.172669 306.075488 
L 205.217537 303.973341 
L 209.262405 306.556608 
L 213.307273 307.710361 
L 225.441877 309.810776 
L 229.486745 311.889251 
L 233.531613 314.451181 
L 237.576481 313.246744 
L 241.621349 311.257976 
L 253.755953 313.11707 
L 257.800821 312.128006 
L 261.845689 308.936023 
L 265.890557 308.897207 
L 269.935425 306.635822 
L 282.070029 304.568701 
L 286.114897 302.496403 
L 290.159765 296.999252 
L 294.204633 296.452335 
L 298.249501 300.011674 
L 310.384106 298.223381 
L 314.428974 296.930846 
L 318.473842 300.317607 
L 322.51871 303.913986 
L 326.563578 302.414093 
L 342.74305 305.587906 
L 346.787918 302.486185 
L 350.832786 306.115111 
L 354.877654 305.219568 
L 367.012258 305.222144 
L 371.057126 309.260389 
L 375.101994 306.157665 
L 379.146862 305.41312 
L 383.19173 304.089266 
L 395.326334 305.834281 
L 399.371202 304.361943 
L 403.41607 301.119743 
L 407.460938 303.739023 
L 411.505806 302.571054 
L 423.640411 304.185204 
L 427.685279 306.150851 
L 431.730147 302.895503 
L 435.775015 300.485982 
L 439.819883 302.447713 
L 451.954487 299.15005 
L 455.999355 297.902339 
L 460.044223 298.113057 
L 464.089091 296.759457 
L 468.133959 292.449606 
L 480.268563 291.314663 
L 484.313431 292.77629 
L 488.358299 292.910218 
L 492.403167 294.653601 
L 496.448035 295.633059 
L 508.582639 299.221326 
L 512.627507 295.463735 
L 516.672375 298.509093 
L 520.717243 302.530085 
L 524.762111 303.373269 
L 536.896716 300.372546 
L 540.941584 298.708373 
L 544.986452 301.909445 
L 549.03132 298.416807 
L 553.076188 303.443462 
L 569.25566 299.394936 
L 573.300528 302.881961 
L 577.345396 299.110848 
L 581.390264 301.138089 
L 593.524868 300.224027 
L 597.569736 297.20783 
L 601.614604 302.940373 
L 605.659472 304.297244 
L 609.70434 300.045792 
L 621.838944 301.553749 
L 625.883812 301.039202 
L 629.92868 300.187908 
L 633.973548 299.836081 
L 638.018416 300.902501 
L 650.153021 301.105292 
L 654.197889 300.14752 
L 658.242757 300.853572 
L 662.287625 303.729698 
L 666.332493 304.792637 
L 678.467097 307.557688 
L 682.511965 307.940818 
L 686.556833 309.167969 
L 690.601701 311.189279 
L 694.646569 311.062973 
L 706.781173 308.930625 
L 710.826041 311.763353 
L 714.870909 309.511241 
L 718.915777 309.425777 
L 722.960645 307.273668 
L 735.095249 304.35915 
L 743.184985 303.761828 
L 747.229853 300.822484 
L 751.274721 304.135213 
L 763.409326 303.486347 
L 767.454194 302.002569 
L 771.499062 300.155934 
L 775.54393 300.764763 
L 779.588798 301.115097 
L 791.723402 301.065777 
L 799.813138 305.045914 
L 803.858006 302.108432 
L 807.902874 301.854621 
L 820.037478 297.11019 
L 824.082346 299.569786 
L 828.127214 296.627807 
L 832.172082 299.6514 
L 836.21695 299.219574 
L 848.351554 296.355932 
L 852.396422 298.514361 
L 856.44129 298.527686 
L 860.486158 294.752045 
L 864.531026 297.215107 
L 876.66563 298.122539 
L 880.710499 299.203636 
L 884.755367 299.112159 
L 888.800235 297.144655 
L 892.845103 298.639116 
L 904.979707 294.347561 
L 909.024575 295.042914 
L 913.069443 294.322366 
L 917.114311 291.217521 
L 921.159179 289.606556 
L 933.293783 289.638305 
L 937.338651 286.90784 
L 941.383519 283.428982 
L 945.428387 279.290224 
L 949.473255 280.697578 
L 961.607859 273.243165 
L 965.652727 271.251388 
L 969.697595 268.125562 
L 973.742463 268.900068 
L 977.787331 271.416999 
L 989.921935 276.068603 
L 993.966804 271.289918 
L 998.011672 279.49602 
L 1002.05654 283.158516 
L 1006.101408 284.498279 
L 1018.236012 285.768531 
L 1022.28088 285.730006 
L 1026.325748 287.697197 
L 1030.370616 291.878555 
L 1034.415484 289.174258 
L 1046.550088 286.118194 
L 1050.594956 280.41588 
L 1054.639824 286.31095 
L 1058.684692 287.739679 
L 1062.72956 286.640743 
L 1074.864164 289.150505 
L 1078.909032 291.311123 
L 1082.9539 291.35297 
L 1086.998768 288.722198 
L 1091.043636 289.13693 
L 1091.043636 289.13693 
" style="fill:none;stroke:#d62728;stroke-linecap:square;stroke-width:1.5;"/>
   </g>
   <g id="line2d_15">
    <path clip-path="url(#p6f74dee149)" d="M 87.916364 298.936816 
L 91.961232 300.003712 
L 96.0061 302.087624 
L 100.050968 304.890116 
L 112.185572 299.77511 
L 116.23044 296.145358 
L 120.275308 294.170534 
L 124.320176 298.21366 
L 128.365044 297.480422 
L 140.499648 298.539191 
L 144.544516 304.468899 
L 148.589384 300.736646 
L 152.634252 301.016318 
L 156.67912 296.656736 
L 168.813724 296.060297 
L 172.858592 296.598315 
L 176.90346 293.625729 
L 180.948328 293.992248 
L 184.993196 288.017873 
L 197.127801 289.718347 
L 201.172669 291.31737 
L 205.217537 291.245325 
L 209.262405 293.750573 
L 213.307273 293.765029 
L 225.441877 298.131688 
L 229.486745 297.123181 
L 233.531613 296.567892 
L 237.576481 297.011113 
L 241.621349 294.7355 
L 253.755953 295.444535 
L 257.800821 291.245807 
L 261.845689 292.478623 
L 265.890557 294.818521 
L 269.935425 292.350735 
L 282.070029 294.396605 
L 286.114897 290.23806 
L 290.159765 292.643654 
L 294.204633 295.63565 
L 298.249501 296.019232 
L 310.384106 296.631822 
L 314.428974 298.576941 
L 318.473842 297.542505 
L 322.51871 300.577369 
L 326.563578 303.466393 
L 338.698182 303.132498 
L 346.787918 303.649397 
L 350.832786 302.604249 
L 354.877654 303.813216 
L 367.012258 302.688532 
L 371.057126 303.603952 
L 375.101994 305.195055 
L 379.146862 307.98648 
L 383.19173 306.916728 
L 395.326334 308.929532 
L 399.371202 310.68813 
L 403.41607 306.095662 
L 407.460938 303.671093 
L 411.505806 303.618747 
L 423.640411 306.885579 
L 427.685279 307.470231 
L 431.730147 307.235243 
L 435.775015 305.458923 
L 439.819883 303.913686 
L 451.954487 300.6572 
L 455.999355 305.092979 
L 464.089091 307.751748 
L 468.133959 305.449766 
L 480.268563 304.665574 
L 484.313431 303.762181 
L 488.358299 303.033022 
L 492.403167 300.4367 
L 496.448035 296.056292 
L 508.582639 295.193227 
L 512.627507 292.101668 
L 516.672375 292.683415 
L 520.717243 287.102503 
L 524.762111 285.471774 
L 536.896716 283.56972 
L 540.941584 283.147095 
L 544.986452 284.838684 
L 549.03132 284.64577 
L 553.076188 282.144266 
L 565.210792 280.835372 
L 569.25566 285.626632 
L 573.300528 285.04566 
L 577.345396 285.162679 
L 581.390264 280.291028 
L 593.524868 284.098578 
L 597.569736 286.659005 
L 601.614604 286.340869 
L 605.659472 283.476382 
L 609.70434 286.511418 
L 621.838944 287.915519 
L 625.883812 289.270723 
L 629.92868 290.491398 
L 633.973548 291.518453 
L 638.018416 290.272127 
L 650.153021 285.082762 
L 654.197889 287.20269 
L 658.242757 284.746618 
L 662.287625 283.831695 
L 666.332493 281.955528 
L 678.467097 279.342215 
L 686.556833 287.982684 
L 690.601701 284.908838 
L 694.646569 285.946379 
L 706.781173 280.025801 
L 710.826041 278.798436 
L 714.870909 277.00831 
L 718.915777 278.7918 
L 722.960645 277.681337 
L 735.095249 278.855203 
L 739.140117 281.135086 
L 743.184985 282.364632 
L 747.229853 281.434218 
L 751.274721 283.878381 
L 763.409326 278.351694 
L 767.454194 279.994591 
L 771.499062 281.457631 
L 775.54393 281.68721 
L 779.588798 280.24439 
L 791.723402 280.414352 
L 795.76827 276.323293 
L 799.813138 275.360122 
L 803.858006 274.533379 
L 807.902874 274.090782 
L 820.037478 278.67053 
L 824.082346 277.246081 
L 828.127214 273.115044 
L 832.172082 275.324545 
L 836.21695 276.537704 
L 848.351554 277.674968 
L 852.396422 284.747621 
L 856.44129 287.41682 
L 860.486158 281.478112 
L 864.531026 279.455199 
L 876.66563 281.723113 
L 880.710499 275.40631 
L 884.755367 275.581217 
L 888.800235 269.429041 
L 892.845103 268.160602 
L 904.979707 272.413315 
L 909.024575 269.97105 
L 913.069443 267.688454 
L 917.114311 264.349067 
L 921.159179 264.084559 
L 933.293783 269.158977 
L 937.338651 265.637709 
L 941.383519 270.540104 
L 945.428387 263.462512 
L 949.473255 260.059285 
L 961.607859 261.693446 
L 965.652727 257.539375 
L 969.697595 262.930826 
L 973.742463 266.010776 
L 977.787331 258.692128 
L 989.921935 250.431357 
L 993.966804 248.435974 
L 1002.05654 250.897839 
L 1006.101408 251.039156 
L 1018.236012 255.611763 
L 1022.28088 257.510112 
L 1026.325748 260.175507 
L 1030.370616 257.015801 
L 1034.415484 259.211451 
L 1046.550088 259.397614 
L 1050.594956 257.351022 
L 1054.639824 263.022834 
L 1058.684692 264.015176 
L 1062.72956 266.563253 
L 1074.864164 269.345184 
L 1082.9539 267.567422 
L 1086.998768 272.837028 
L 1091.043636 271.357871 
L 1091.043636 271.357871 
" style="fill:none;stroke:#9467bd;stroke-linecap:square;stroke-width:1.5;"/>
   </g>
   <g id="line2d_16">
    <path clip-path="url(#p6f74dee149)" d="M 87.916364 296.690659 
L 91.961232 296.369457 
L 96.0061 299.228769 
L 100.050968 298.879027 
L 112.185572 297.465722 
L 116.23044 296.536132 
L 120.275308 296.471422 
L 124.320176 295.628103 
L 128.365044 293.125957 
L 140.499648 295.224517 
L 144.544516 296.200394 
L 148.589384 294.755938 
L 152.634252 297.099626 
L 156.67912 295.023185 
L 168.813724 295.228801 
L 172.858592 297.291039 
L 176.90346 295.355918 
L 180.948328 296.17232 
L 184.993196 295.819745 
L 197.127801 295.684588 
L 201.172669 293.97583 
L 205.217537 293.100963 
L 209.262405 295.351739 
L 213.307273 296.12541 
L 225.441877 297.636268 
L 229.486745 297.824064 
L 233.531613 299.028431 
L 237.576481 298.677754 
L 241.621349 297.408443 
L 253.755953 297.700896 
L 257.800821 296.391778 
L 261.845689 295.455726 
L 265.890557 295.53617 
L 269.935425 294.952737 
L 282.070029 294.502374 
L 286.114897 295.056907 
L 290.159765 292.403679 
L 298.249501 295.854386 
L 310.384106 295.63212 
L 314.428974 296.372516 
L 318.473842 297.899675 
L 322.51871 299.18951 
L 326.563578 297.419188 
L 338.698182 296.751811 
L 342.74305 296.872299 
L 346.787918 294.861866 
L 350.832786 294.793411 
L 354.877654 295.194921 
L 367.012258 295.06864 
L 371.057126 296.607419 
L 375.101994 296.716281 
L 379.146862 295.487577 
L 383.19173 296.078952 
L 395.326334 297.089704 
L 399.371202 295.69688 
L 403.41607 294.091136 
L 407.460938 292.637507 
L 411.505806 291.059243 
L 423.640411 292.941481 
L 427.685279 295.596654 
L 431.730147 295.432591 
L 435.775015 292.596486 
L 439.819883 292.226314 
L 451.954487 288.466138 
L 455.999355 290.31402 
L 464.089091 291.322231 
L 468.133959 288.20044 
L 480.268563 288.054527 
L 484.313431 287.831345 
L 488.358299 287.914144 
L 492.403167 287.033318 
L 496.448035 286.693119 
L 508.582639 285.912988 
L 512.627507 285.169496 
L 516.672375 286.888 
L 520.717243 285.215831 
L 524.762111 284.196519 
L 536.896716 283.955358 
L 540.941584 286.009322 
L 544.986452 286.519441 
L 549.03132 285.174118 
L 553.076188 286.59317 
L 565.210792 284.547612 
L 569.25566 284.061716 
L 573.300528 286.538533 
L 577.345396 283.871513 
L 581.390264 282.903667 
L 593.524868 284.889268 
L 597.569736 284.065246 
L 601.614604 287.07233 
L 605.659472 287.402983 
L 609.70434 285.723044 
L 621.838944 286.942869 
L 625.883812 286.949509 
L 629.92868 286.732677 
L 633.973548 287.202128 
L 638.018416 286.47569 
L 650.153021 285.33439 
L 654.197889 284.039696 
L 658.242757 283.672965 
L 662.287625 286.16984 
L 666.332493 286.041117 
L 678.467097 287.199941 
L 682.511965 287.948495 
L 686.556833 290.166168 
L 694.646569 289.095502 
L 706.781173 287.239414 
L 710.826041 287.423085 
L 714.870909 285.804957 
L 718.915777 283.979799 
L 722.960645 282.806913 
L 735.095249 281.612681 
L 739.140117 282.829021 
L 743.184985 283.593465 
L 747.229853 283.071786 
L 751.274721 282.800782 
L 763.409326 283.247008 
L 767.454194 283.251213 
L 771.499062 282.645437 
L 775.54393 281.773898 
L 779.588798 281.512946 
L 791.723402 282.107957 
L 795.76827 281.678012 
L 799.813138 281.769798 
L 803.858006 281.635184 
L 807.902874 281.383062 
L 820.037478 281.079259 
L 824.082346 279.928093 
L 828.127214 278.053878 
L 832.172082 279.040442 
L 836.21695 279.290461 
L 848.351554 277.805062 
L 852.396422 278.492158 
L 856.44129 278.881567 
L 860.486158 276.889946 
L 864.531026 275.216996 
L 876.66563 278.052536 
L 880.710499 279.421229 
L 884.755367 279.945929 
L 888.800235 278.132105 
L 892.845103 279.068457 
L 904.979707 279.993993 
L 909.024575 279.828199 
L 913.069443 280.588964 
L 917.114311 279.886792 
L 921.159179 282.138621 
L 933.293783 280.999051 
L 937.338651 281.451376 
L 941.383519 280.946992 
L 945.428387 279.680525 
L 949.473255 279.440489 
L 961.607859 275.530166 
L 965.652727 272.875077 
L 969.697595 274.295699 
L 973.742463 275.226257 
L 977.787331 272.590402 
L 989.921935 271.469417 
L 993.966804 268.791044 
L 1002.05654 272.286561 
L 1006.101408 271.720821 
L 1018.236012 270.967843 
L 1022.28088 271.082341 
L 1026.325748 273.732866 
L 1030.370616 273.994021 
L 1034.415484 273.577305 
L 1046.550088 272.613916 
L 1050.594956 269.370072 
L 1054.639824 272.102739 
L 1058.684692 272.882214 
L 1062.72956 269.859358 
L 1074.864164 271.287456 
L 1078.909032 270.396772 
L 1082.9539 268.971478 
L 1086.998768 270.508852 
L 1091.043636 268.315012 
L 1091.043636 268.315012 
" style="fill:none;stroke:#8c564b;stroke-linecap:square;stroke-width:1.5;"/>
   </g>
   <g id="line2d_17">
    <path clip-path="url(#p6f74dee149)" d="M 87.916364 297.941335 
L 91.961232 299.340171 
L 96.0061 298.717159 
L 100.050968 302.030659 
L 112.185572 298.000703 
L 116.23044 295.188825 
L 120.275308 293.251241 
L 124.320176 298.234332 
L 128.365044 299.904809 
L 140.499648 299.032454 
L 144.544516 303.995876 
L 148.589384 301.505378 
L 152.634252 299.674065 
L 156.67912 297.2118 
L 168.813724 296.42158 
L 172.858592 294.931395 
L 176.90346 293.888713 
L 180.948328 293.419363 
L 184.993196 287.761836 
L 197.127801 289.619901 
L 201.172669 293.086804 
L 205.217537 293.902918 
L 209.262405 294.089221 
L 213.307273 293.315215 
L 225.441877 296.135193 
L 229.486745 294.902826 
L 233.531613 293.06902 
L 237.576481 293.920057 
L 241.621349 292.900845 
L 253.755953 293.316348 
L 257.800821 290.38157 
L 265.890557 294.901877 
L 269.935425 293.02619 
L 282.070029 295.515496 
L 286.114897 290.879892 
L 290.159765 296.083363 
L 294.204633 297.268492 
L 298.249501 296.021057 
L 310.384106 296.855333 
L 314.428974 298.067081 
L 318.473842 295.536735 
L 322.51871 297.32886 
L 326.563578 302.194381 
L 342.74305 302.597918 
L 346.787918 304.717318 
L 350.832786 303.749755 
L 354.877654 304.587516 
L 371.057126 303.145692 
L 375.101994 304.651411 
L 379.146862 308.548395 
L 383.19173 307.015074 
L 395.326334 308.181913 
L 399.371202 311.119192 
L 403.41607 307.79617 
L 407.460938 306.604771 
L 411.505806 307.814233 
L 423.640411 309.409244 
L 427.685279 307.947559 
L 431.730147 307.848055 
L 435.775015 308.396617 
L 439.819883 307.217624 
L 451.954487 307.096277 
L 455.999355 309.686379 
L 460.044223 310.476722 
L 464.089091 311.407199 
L 468.133959 311.49225 
L 480.268563 310.891955 
L 488.358299 309.535809 
L 492.403167 307.849958 
L 496.448035 304.244822 
L 508.582639 304.087013 
L 512.627507 301.974006 
L 516.672375 301.132007 
L 520.717243 297.587962 
L 524.762111 297.04086 
L 536.896716 295.628611 
L 540.941584 293.52556 
L 549.03132 295.567586 
L 553.076188 292.194193 
L 565.210792 292.943658 
L 569.25566 297.450697 
L 573.300528 294.910217 
L 577.345396 297.382216 
L 581.390264 294.088027 
L 593.524868 295.5466 
L 597.569736 298.439115 
L 605.659472 292.920049 
L 609.70434 297.143987 
L 621.838944 297.313076 
L 629.92868 299.738704 
L 633.973548 300.244393 
L 638.018416 299.752279 
L 650.153021 296.191401 
L 654.197889 299.11471 
L 658.242757 297.346821 
L 662.287625 294.522253 
L 666.332493 293.018095 
L 678.467097 289.715239 
L 682.511965 292.827794 
L 686.556833 294.51284 
L 690.601701 292.209105 
L 694.646569 293.669315 
L 710.826041 288.838593 
L 714.870909 288.852517 
L 718.915777 292.138527 
L 722.960645 292.25658 
L 735.095249 294.278077 
L 739.140117 295.109593 
L 743.184985 295.480471 
L 747.229853 295.146142 
L 751.274721 297.402261 
L 763.409326 292.472107 
L 767.454194 293.833025 
L 771.499062 295.572412 
L 775.54393 296.490676 
L 779.588798 295.527648 
L 791.723402 295.174686 
L 795.76827 292.185711 
L 799.813138 291.321714 
L 803.858006 290.766308 
L 807.902874 290.629493 
L 820.037478 294.613707 
L 824.082346 294.420672 
L 828.127214 292.671658 
L 832.172082 293.579285 
L 836.21695 294.330055 
L 848.351554 296.44415 
L 852.396422 301.40282 
L 856.44129 303.21224 
L 860.486158 299.942655 
L 864.531026 299.60356 
L 876.66563 299.27986 
L 880.710499 293.327975 
L 884.755367 293.030529 
L 888.800235 289.64822 
L 892.845103 287.850328 
L 904.979707 290.380846 
L 909.024575 288.574666 
L 913.069443 286.075399 
L 917.114311 284.043691 
L 921.159179 281.695244 
L 933.293783 287.000289 
L 937.338651 283.739063 
L 941.383519 288.207873 
L 945.428387 283.65433 
L 949.473255 281.178879 
L 961.607859 286.301252 
L 965.652727 285.492426 
L 969.697595 288.218395 
L 973.742463 289.727584 
L 977.787331 286.416452 
L 989.921935 281.325731 
L 993.966804 282.270148 
L 1002.05654 280.983898 
L 1006.101408 281.59757 
L 1022.28088 286.844197 
L 1026.325748 286.569707 
L 1030.370616 284.00825 
L 1034.415484 286.007008 
L 1046.550088 286.97204 
L 1050.594956 288.198121 
L 1054.639824 290.018034 
L 1058.684692 290.115303 
L 1062.72956 294.419162 
L 1074.864164 295.340431 
L 1078.909032 295.352253 
L 1082.9539 295.758742 
L 1086.998768 298.357144 
L 1091.043636 298.826705 
L 1091.043636 298.826705 
" style="fill:none;stroke:#e377c2;stroke-linecap:square;stroke-width:1.5;"/>
   </g>
   <g id="line2d_18">
    <path clip-path="url(#p6f74dee149)" d="M 87.916364 296.560815 
L 91.961232 295.24242 
L 96.0061 296.244014 
L 100.050968 294.216601 
L 112.185572 293.42737 
L 116.23044 291.706833 
L 120.275308 288.812921 
L 124.320176 292.442729 
L 128.365044 286.126 
L 140.499648 287.426075 
L 144.544516 286.740173 
L 148.589384 285.402387 
L 152.634252 284.850993 
L 156.67912 283.438209 
L 168.813724 281.791906 
L 172.858592 278.994895 
L 176.90346 275.109415 
L 180.948328 274.843848 
L 184.993196 275.101547 
L 197.127801 274.570718 
L 201.172669 277.751351 
L 205.217537 275.960501 
L 209.262405 271.489339 
L 213.307273 273.782905 
L 225.441877 274.736295 
L 229.486745 275.986894 
L 233.531613 275.331736 
L 237.576481 272.741751 
L 241.621349 270.775101 
L 253.755953 270.411463 
L 257.800821 264.814319 
L 261.845689 260.107341 
L 265.890557 260.907896 
L 269.935425 256.517467 
L 282.070029 252.633444 
L 286.114897 252.813117 
L 290.159765 252.480595 
L 294.204633 252.50656 
L 298.249501 245.356248 
L 310.384106 245.363357 
L 314.428974 238.857667 
L 318.473842 234.057101 
L 322.51871 226.90355 
L 326.563578 227.019272 
L 338.698182 228.216354 
L 342.74305 219.8824 
L 346.787918 225.099214 
L 350.832786 220.387429 
L 354.877654 217.285007 
L 367.012258 222.534388 
L 371.057126 222.845521 
L 375.101994 221.133949 
L 379.146862 219.017193 
L 383.19173 213.022394 
L 395.326334 213.134953 
L 399.371202 209.2057 
L 403.41607 198.201527 
L 407.460938 200.721938 
L 411.505806 210.667701 
L 423.640411 207.937605 
L 427.685279 203.442294 
L 431.730147 199.12441 
L 435.775015 203.06113 
L 439.819883 192.934237 
L 451.954487 196.378737 
L 455.999355 194.031372 
L 460.044223 200.748891 
L 464.089091 198.201615 
L 468.133959 200.487026 
L 480.268563 200.732139 
L 484.313431 201.518592 
L 492.403167 205.678021 
L 496.448035 210.984211 
L 508.582639 212.813612 
L 512.627507 201.314243 
L 516.672375 193.670778 
L 520.717243 191.818136 
L 524.762111 192.602902 
L 536.896716 190.550592 
L 540.941584 186.542238 
L 544.986452 182.351279 
L 549.03132 180.538209 
L 553.076188 178.061608 
L 565.210792 182.29491 
L 569.25566 190.431137 
L 573.300528 184.485059 
L 577.345396 176.409375 
L 581.390264 179.900211 
L 593.524868 176.778858 
L 597.569736 175.394183 
L 601.614604 181.07165 
L 605.659472 168.625202 
L 609.70434 168.699745 
L 621.838944 169.954616 
L 625.883812 171.798559 
L 629.92868 166.273685 
L 633.973548 156.910409 
L 638.018416 148.623171 
L 650.153021 142.634383 
L 654.197889 137.745587 
L 658.242757 122.264345 
L 662.287625 127.560659 
L 666.332493 129.32771 
L 678.467097 127.017104 
L 682.511965 139.434803 
L 686.556833 142.718322 
L 690.601701 141.804385 
L 694.646569 138.242973 
L 706.781173 133.498778 
L 710.826041 127.901239 
L 714.870909 141.556705 
L 718.915777 143.358865 
L 722.960645 147.015817 
L 735.095249 147.432954 
L 739.140117 137.425636 
L 743.184985 134.644879 
L 747.229853 127.30554 
L 751.274721 134.07249 
L 763.409326 130.245855 
L 767.454194 131.980325 
L 771.499062 128.571324 
L 775.54393 135.357633 
L 779.588798 132.491725 
L 791.723402 124.821445 
L 795.76827 121.947716 
L 799.813138 117.210787 
L 803.858006 125.987178 
L 807.902874 141.548068 
L 820.037478 142.255553 
L 824.082346 135.868875 
L 828.127214 141.219586 
L 832.172082 138.402396 
L 836.21695 129.249261 
L 848.351554 138.152484 
L 852.396422 139.143796 
L 856.44129 136.17123 
L 860.486158 134.225583 
L 864.531026 138.468056 
L 876.66563 131.818074 
L 880.710499 134.977522 
L 884.755367 121.750412 
L 888.800235 129.53272 
L 892.845103 125.236607 
L 904.979707 114.075563 
L 909.024575 120.307567 
L 913.069443 110.611894 
L 917.114311 115.780894 
L 921.159179 109.573729 
L 933.293783 115.899203 
L 937.338651 102.789196 
L 941.383519 93.228469 
L 945.428387 88.61685 
L 949.473255 91.775446 
L 961.607859 98.093161 
L 965.652727 87.425612 
L 969.697595 94.586342 
L 973.742463 98.947334 
L 977.787331 98.661615 
L 989.921935 107.04552 
L 993.966804 110.283894 
L 998.011672 116.470656 
L 1002.05654 107.06912 
L 1006.101408 113.803793 
L 1018.236012 124.534607 
L 1022.28088 119.469533 
L 1026.325748 119.725569 
L 1030.370616 131.778626 
L 1034.415484 127.320011 
L 1046.550088 118.701038 
L 1050.594956 121.121467 
L 1054.639824 115.990688 
L 1058.684692 133.513075 
L 1062.72956 146.453625 
L 1074.864164 165.836408 
L 1078.909032 166.813412 
L 1082.9539 159.854375 
L 1086.998768 156.214762 
L 1091.043636 163.500423 
L 1091.043636 163.500423 
" style="fill:none;stroke:#7f7f7f;stroke-linecap:square;stroke-width:1.5;"/>
   </g>
   <g id="line2d_19">
    <path clip-path="url(#p6f74dee149)" d="M 87.916364 298.806972 
L 91.961232 298.913876 
L 96.0061 299.232882 
L 100.050968 300.584395 
L 112.185572 295.742012 
L 116.23044 291.168236 
L 120.275308 286.197385 
L 124.320176 295.453886 
L 128.365044 291.155359 
L 140.499648 291.373105 
L 144.544516 296.293522 
L 148.589384 292.303368 
L 152.634252 289.690654 
L 156.67912 285.508361 
L 168.813724 282.972006 
L 172.858592 278.419167 
L 176.90346 273.206176 
L 180.948328 272.322312 
L 184.993196 265.182409 
L 197.127801 267.016132 
L 201.172669 275.026296 
L 205.217537 274.208199 
L 209.262405 269.886087 
L 213.307273 271.169401 
L 225.441877 275.884076 
L 229.486745 275.505272 
L 233.531613 272.480251 
L 237.576481 270.911047 
L 241.621349 267.538829 
L 253.755953 267.730882 
L 257.800821 257.936909 
L 261.845689 256.198435 
L 265.890557 260.46763 
L 269.935425 253.215703 
L 282.070029 253.14175 
L 286.114897 245.717944 
L 290.159765 253.884596 
L 294.204633 255.857305 
L 298.249501 246.877425 
L 310.384106 248.342776 
L 314.428974 244.121707 
L 318.473842 234.851991 
L 322.51871 231.178367 
L 326.563578 241.154487 
L 338.698182 242.786249 
L 342.74305 235.61658 
L 346.787918 244.775263 
L 350.832786 238.757034 
L 354.877654 237.834876 
L 367.012258 240.16639 
L 371.057126 239.51677 
L 375.101994 241.152068 
L 379.146862 247.569902 
L 383.19173 239.482775 
L 395.326334 242.182616 
L 399.371202 245.579814 
L 403.41607 229.572942 
L 407.460938 228.690097 
L 411.505806 239.827369 
L 423.640411 241.231012 
L 427.685279 234.342144 
L 431.730147 230.631517 
L 435.775015 235.14024 
L 439.819883 224.262167 
L 451.954487 226.761292 
L 455.999355 231.244708 
L 460.044223 238.453294 
L 464.089091 238.740983 
L 468.133959 240.667684 
L 480.268563 239.404941 
L 484.313431 238.436302 
L 488.358299 238.37609 
L 492.403167 235.985079 
L 496.448035 231.84604 
L 508.582639 233.065651 
L 512.627507 218.413345 
L 516.672375 209.565033 
L 520.717243 198.987341 
L 524.762111 198.350726 
L 536.896716 192.801015 
L 540.941584 183.470247 
L 544.986452 181.842335 
L 549.03132 182.790762 
L 553.076188 171.220496 
L 565.210792 177.665025 
L 569.25566 198.07278 
L 573.300528 185.92315 
L 577.345396 184.417639 
L 581.390264 178.679377 
L 593.524868 179.484621 
L 597.569736 186.086002 
L 601.614604 183.892012 
L 605.659472 164.094478 
L 609.70434 176.304016 
L 621.838944 177.994957 
L 625.883812 183.118877 
L 629.92868 181.450478 
L 633.973548 174.28507 
L 638.018416 165.200428 
L 650.153021 148.384699 
L 654.197889 153.14147 
L 658.242757 132.83436 
L 662.287625 127.853711 
L 666.332493 124.383615 
L 678.467097 110.613736 
L 682.511965 134.754015 
L 686.556833 143.658138 
L 690.601701 135.273289 
L 694.646569 136.363108 
L 706.781173 119.730137 
L 710.826041 109.562474 
L 714.870909 124.337141 
L 718.915777 136.985311 
L 722.960645 141.130294 
L 735.095249 147.978451 
L 739.140117 140.631933 
L 743.184985 139.121932 
L 747.229853 130.80377 
L 751.274721 145.295337 
L 763.409326 125.067533 
L 767.454194 131.491751 
L 771.499062 133.974432 
L 775.54393 143.765083 
L 779.588798 137.787756 
L 791.723402 129.100586 
L 795.76827 115.830218 
L 799.813138 107.917101 
L 803.858006 115.024683 
L 807.902874 130.833527 
L 820.037478 144.515439 
L 824.082346 137.569718 
L 828.127214 137.05472 
L 832.172082 137.13753 
L 836.21695 130.407016 
L 848.351554 146.522519 
L 852.396422 163.824348 
L 856.44129 167.118032 
L 860.486158 154.564271 
L 864.531026 157.290367 
L 876.66563 150.135712 
L 880.710499 132.874657 
L 884.755367 118.529587 
L 888.800235 114.441376 
L 892.845103 103.697387 
L 904.979707 100.358825 
L 909.024575 100.318742 
L 913.069443 80.888484 
L 917.114311 79.126514 
L 921.159179 63.450289 
L 933.293783 90.7061 
L 937.338651 64.423668 
L 941.383519 70.483501 
L 945.428387 47.441025 
L 949.473255 41.11 
L 961.607859 69.004313 
L 965.652727 54.02044 
L 969.697595 73.056987 
L 973.742463 83.69656 
L 977.787331 70.60704 
L 989.921935 60.20485 
L 993.966804 67.580867 
L 998.011672 72.372762 
L 1002.05654 59.02088 
L 1006.101408 69.327105 
L 1018.236012 96.509216 
L 1022.28088 95.255884 
L 1026.325748 94.560661 
L 1030.370616 98.76104 
L 1034.415484 100.425614 
L 1046.550088 94.148193 
L 1050.594956 101.202155 
L 1054.639824 102.095352 
L 1058.684692 120.960793 
L 1062.72956 149.084312 
L 1074.864164 171.140987 
L 1078.909032 172.125475 
L 1082.9539 166.517343 
L 1086.998768 170.687537 
L 1091.043636 178.875794 
L 1091.043636 178.875794 
" style="fill:none;stroke:#bcbd22;stroke-linecap:square;stroke-width:1.5;"/>
   </g>
   <g id="patch_3">
    <path d="M 37.76 360.1 
L 37.76 25.92 
" style="fill:none;stroke:#000000;stroke-linecap:square;stroke-linejoin:miter;stroke-width:0.8;"/>
   </g>
   <g id="patch_4">
    <path d="M 1141.2 360.1 
L 1141.2 25.92 
" style="fill:none;stroke:#000000;stroke-linecap:square;stroke-linejoin:miter;stroke-width:0.8;"/>
   </g>
   <g id="patch_5">
    <path d="M 37.76 360.1 
L 1141.2 360.1 
" style="fill:none;stroke:#000000;stroke-linecap:square;stroke-linejoin:miter;stroke-width:0.8;"/>
   </g>
   <g id="patch_6">
    <path d="M 37.76 25.92 
L 1141.2 25.92 
" style="fill:none;stroke:#000000;stroke-linecap:square;stroke-linejoin:miter;stroke-width:0.8;"/>
   </g>
   <g id="text_7">
    <!-- Net Value: (2010-01-19 ~ 2010-10-08) -->
    <g transform="translate(473.3725 19.92)scale(0.12 -0.12)">
     <defs>
      <path d="M 9.8125 72.90625 
L 23.09375 72.90625 
L 55.421875 11.921875 
L 55.421875 72.90625 
L 64.984375 72.90625 
L 64.984375 0 
L 51.703125 0 
L 19.390625 60.984375 
L 19.390625 0 
L 9.8125 0 
z
" id="DejaVuSans-78"/>
      <path d="M 28.609375 0 
L 0.78125 72.90625 
L 11.078125 72.90625 
L 34.1875 11.53125 
L 57.328125 72.90625 
L 67.578125 72.90625 
L 39.796875 0 
z
" id="DejaVuSans-86"/>
      <path d="M 11.71875 12.40625 
L 22.015625 12.40625 
L 22.015625 0 
L 11.71875 0 
z
M 11.71875 51.703125 
L 22.015625 51.703125 
L 22.015625 39.3125 
L 11.71875 39.3125 
z
" id="DejaVuSans-58"/>
      <path d="M 31 75.875 
Q 24.46875 64.65625 21.28125 53.65625 
Q 18.109375 42.671875 18.109375 31.390625 
Q 18.109375 20.125 21.3125 9.0625 
Q 24.515625 -2 31 -13.1875 
L 23.1875 -13.1875 
Q 15.875 -1.703125 12.234375 9.375 
Q 8.59375 20.453125 8.59375 31.390625 
Q 8.59375 42.28125 12.203125 53.3125 
Q 15.828125 64.359375 23.1875 75.875 
z
" id="DejaVuSans-40"/>
      <path d="M 31.78125 66.40625 
Q 24.171875 66.40625 20.328125 58.90625 
Q 16.5 51.421875 16.5 36.375 
Q 16.5 21.390625 20.328125 13.890625 
Q 24.171875 6.390625 31.78125 6.390625 
Q 39.453125 6.390625 43.28125 13.890625 
Q 47.125 21.390625 47.125 36.375 
Q 47.125 51.421875 43.28125 58.90625 
Q 39.453125 66.40625 31.78125 66.40625 
z
M 31.78125 74.21875 
Q 44.046875 74.21875 50.515625 64.515625 
Q 56.984375 54.828125 56.984375 36.375 
Q 56.984375 17.96875 50.515625 8.265625 
Q 44.046875 -1.421875 31.78125 -1.421875 
Q 19.53125 -1.421875 13.0625 8.265625 
Q 6.59375 17.96875 6.59375 36.375 
Q 6.59375 54.828125 13.0625 64.515625 
Q 19.53125 74.21875 31.78125 74.21875 
z
" id="DejaVuSans-48"/>
      <path d="M 4.890625 31.390625 
L 31.203125 31.390625 
L 31.203125 23.390625 
L 4.890625 23.390625 
z
" id="DejaVuSans-45"/>
      <path d="M 10.984375 1.515625 
L 10.984375 10.5 
Q 14.703125 8.734375 18.5 7.8125 
Q 22.3125 6.890625 25.984375 6.890625 
Q 35.75 6.890625 40.890625 13.453125 
Q 46.046875 20.015625 46.78125 33.40625 
Q 43.953125 29.203125 39.59375 26.953125 
Q 35.25 24.703125 29.984375 24.703125 
Q 19.046875 24.703125 12.671875 31.3125 
Q 6.296875 37.9375 6.296875 49.421875 
Q 6.296875 60.640625 12.9375 67.421875 
Q 19.578125 74.21875 30.609375 74.21875 
Q 43.265625 74.21875 49.921875 64.515625 
Q 56.59375 54.828125 56.59375 36.375 
Q 56.59375 19.140625 48.40625 8.859375 
Q 40.234375 -1.421875 26.421875 -1.421875 
Q 22.703125 -1.421875 18.890625 -0.6875 
Q 15.09375 0.046875 10.984375 1.515625 
z
M 30.609375 32.421875 
Q 37.25 32.421875 41.125 36.953125 
Q 45.015625 41.5 45.015625 49.421875 
Q 45.015625 57.28125 41.125 61.84375 
Q 37.25 66.40625 30.609375 66.40625 
Q 23.96875 66.40625 20.09375 61.84375 
Q 16.21875 57.28125 16.21875 49.421875 
Q 16.21875 41.5 20.09375 36.953125 
Q 23.96875 32.421875 30.609375 32.421875 
z
" id="DejaVuSans-57"/>
      <path d="M 73.1875 39.890625 
L 73.1875 31.203125 
Q 68.0625 27.34375 63.6875 25.6875 
Q 59.328125 24.03125 54.59375 24.03125 
Q 49.21875 24.03125 42.09375 26.90625 
Q 41.546875 27.09375 41.3125 27.203125 
Q 40.96875 27.34375 40.234375 27.59375 
Q 32.671875 30.609375 28.078125 30.609375 
Q 23.78125 30.609375 19.578125 28.734375 
Q 15.375 26.859375 10.59375 22.796875 
L 10.59375 31.5 
Q 15.71875 35.359375 20.09375 37.03125 
Q 24.46875 38.71875 29.203125 38.71875 
Q 34.578125 38.71875 41.75 35.796875 
Q 42.234375 35.59375 42.484375 35.5 
Q 42.875 35.359375 43.5625 35.109375 
Q 51.125 32.078125 55.71875 32.078125 
Q 59.90625 32.078125 64.03125 33.9375 
Q 68.171875 35.796875 73.1875 39.890625 
z
" id="DejaVuSans-126"/>
      <path d="M 31.78125 34.625 
Q 24.75 34.625 20.71875 30.859375 
Q 16.703125 27.09375 16.703125 20.515625 
Q 16.703125 13.921875 20.71875 10.15625 
Q 24.75 6.390625 31.78125 6.390625 
Q 38.8125 6.390625 42.859375 10.171875 
Q 46.921875 13.96875 46.921875 20.515625 
Q 46.921875 27.09375 42.890625 30.859375 
Q 38.875 34.625 31.78125 34.625 
z
M 21.921875 38.8125 
Q 15.578125 40.375 12.03125 44.71875 
Q 8.5 49.078125 8.5 55.328125 
Q 8.5 64.0625 14.71875 69.140625 
Q 20.953125 74.21875 31.78125 74.21875 
Q 42.671875 74.21875 48.875 69.140625 
Q 55.078125 64.0625 55.078125 55.328125 
Q 55.078125 49.078125 51.53125 44.71875 
Q 48 40.375 41.703125 38.8125 
Q 48.828125 37.15625 52.796875 32.3125 
Q 56.78125 27.484375 56.78125 20.515625 
Q 56.78125 9.90625 50.3125 4.234375 
Q 43.84375 -1.421875 31.78125 -1.421875 
Q 19.734375 -1.421875 13.25 4.234375 
Q 6.78125 9.90625 6.78125 20.515625 
Q 6.78125 27.484375 10.78125 32.3125 
Q 14.796875 37.15625 21.921875 38.8125 
z
M 18.3125 54.390625 
Q 18.3125 48.734375 21.84375 45.5625 
Q 25.390625 42.390625 31.78125 42.390625 
Q 38.140625 42.390625 41.71875 45.5625 
Q 45.3125 48.734375 45.3125 54.390625 
Q 45.3125 60.0625 41.71875 63.234375 
Q 38.140625 66.40625 31.78125 66.40625 
Q 25.390625 66.40625 21.84375 63.234375 
Q 18.3125 60.0625 18.3125 54.390625 
z
" id="DejaVuSans-56"/>
      <path d="M 8.015625 75.875 
L 15.828125 75.875 
Q 23.140625 64.359375 26.78125 53.3125 
Q 30.421875 42.28125 30.421875 31.390625 
Q 30.421875 20.453125 26.78125 9.375 
Q 23.140625 -1.703125 15.828125 -13.1875 
L 8.015625 -13.1875 
Q 14.5 -2 17.703125 9.0625 
Q 20.90625 20.125 20.90625 31.390625 
Q 20.90625 42.671875 17.703125 53.65625 
Q 14.5 64.65625 8.015625 75.875 
z
" id="DejaVuSans-41"/>
     </defs>
     <use xlink:href="#DejaVuSans-78"/>
     <use x="74.804688" xlink:href="#DejaVuSans-101"/>
     <use x="136.328125" xlink:href="#DejaVuSans-116"/>
     <use x="175.537109" xlink:href="#DejaVuSans-32"/>
     <use x="207.324219" xlink:href="#DejaVuSans-86"/>
     <use x="267.982422" xlink:href="#DejaVuSans-97"/>
     <use x="329.261719" xlink:href="#DejaVuSans-108"/>
     <use x="357.044922" xlink:href="#DejaVuSans-117"/>
     <use x="420.423828" xlink:href="#DejaVuSans-101"/>
     <use x="481.947266" xlink:href="#DejaVuSans-58"/>
     <use x="515.638672" xlink:href="#DejaVuSans-32"/>
     <use x="547.425781" xlink:href="#DejaVuSans-40"/>
     <use x="586.439453" xlink:href="#DejaVuSans-50"/>
     <use x="650.0625" xlink:href="#DejaVuSans-48"/>
     <use x="713.685547" xlink:href="#DejaVuSans-49"/>
     <use x="777.308594" xlink:href="#DejaVuSans-48"/>
     <use x="840.931641" xlink:href="#DejaVuSans-45"/>
     <use x="877.015625" xlink:href="#DejaVuSans-48"/>
     <use x="940.638672" xlink:href="#DejaVuSans-49"/>
     <use x="1004.261719" xlink:href="#DejaVuSans-45"/>
     <use x="1040.345703" xlink:href="#DejaVuSans-49"/>
     <use x="1103.96875" xlink:href="#DejaVuSans-57"/>
     <use x="1167.591797" xlink:href="#DejaVuSans-32"/>
     <use x="1199.378906" xlink:href="#DejaVuSans-126"/>
     <use x="1283.167969" xlink:href="#DejaVuSans-32"/>
     <use x="1314.955078" xlink:href="#DejaVuSans-50"/>
     <use x="1378.578125" xlink:href="#DejaVuSans-48"/>
     <use x="1442.201172" xlink:href="#DejaVuSans-49"/>
     <use x="1505.824219" xlink:href="#DejaVuSans-48"/>
     <use x="1569.447266" xlink:href="#DejaVuSans-45"/>
     <use x="1605.53125" xlink:href="#DejaVuSans-49"/>
     <use x="1669.154297" xlink:href="#DejaVuSans-48"/>
     <use x="1732.777344" xlink:href="#DejaVuSans-45"/>
     <use x="1768.861328" xlink:href="#DejaVuSans-48"/>
     <use x="1832.484375" xlink:href="#DejaVuSans-56"/>
     <use x="1896.107422" xlink:href="#DejaVuSans-41"/>
    </g>
   </g>
   <g id="legend_1">
    <g id="patch_7">
     <path d="M 44.76 168.248125 
L 141.249062 168.248125 
Q 143.249062 168.248125 143.249062 166.248125 
L 143.249062 32.92 
Q 143.249062 30.92 141.249062 30.92 
L 44.76 30.92 
Q 42.76 30.92 42.76 32.92 
L 42.76 166.248125 
Q 42.76 168.248125 44.76 168.248125 
z
" style="fill:#ffffff;opacity:0.8;stroke:#cccccc;stroke-linejoin:miter;"/>
    </g>
    <g id="line2d_20">
     <path d="M 46.76 39.018438 
L 66.76 39.018438 
" style="fill:none;stroke:#1f77b4;stroke-linecap:square;stroke-width:1.5;"/>
    </g>
    <g id="line2d_21"/>
    <g id="text_8">
     <!-- group_1 -->
     <g transform="translate(74.76 42.518438)scale(0.1 -0.1)">
      <defs>
       <path d="M 45.40625 27.984375 
Q 45.40625 37.75 41.375 43.109375 
Q 37.359375 48.484375 30.078125 48.484375 
Q 22.859375 48.484375 18.828125 43.109375 
Q 14.796875 37.75 14.796875 27.984375 
Q 14.796875 18.265625 18.828125 12.890625 
Q 22.859375 7.515625 30.078125 7.515625 
Q 37.359375 7.515625 41.375 12.890625 
Q 45.40625 18.265625 45.40625 27.984375 
z
M 54.390625 6.78125 
Q 54.390625 -7.171875 48.1875 -13.984375 
Q 42 -20.796875 29.203125 -20.796875 
Q 24.46875 -20.796875 20.265625 -20.09375 
Q 16.0625 -19.390625 12.109375 -17.921875 
L 12.109375 -9.1875 
Q 16.0625 -11.328125 19.921875 -12.34375 
Q 23.78125 -13.375 27.78125 -13.375 
Q 36.625 -13.375 41.015625 -8.765625 
Q 45.40625 -4.15625 45.40625 5.171875 
L 45.40625 9.625 
Q 42.625 4.78125 38.28125 2.390625 
Q 33.9375 0 27.875 0 
Q 17.828125 0 11.671875 7.65625 
Q 5.515625 15.328125 5.515625 27.984375 
Q 5.515625 40.671875 11.671875 48.328125 
Q 17.828125 56 27.875 56 
Q 33.9375 56 38.28125 53.609375 
Q 42.625 51.21875 45.40625 46.390625 
L 45.40625 54.6875 
L 54.390625 54.6875 
z
" id="DejaVuSans-103"/>
       <path d="M 41.109375 46.296875 
Q 39.59375 47.171875 37.8125 47.578125 
Q 36.03125 48 33.890625 48 
Q 26.265625 48 22.1875 43.046875 
Q 18.109375 38.09375 18.109375 28.8125 
L 18.109375 0 
L 9.078125 0 
L 9.078125 54.6875 
L 18.109375 54.6875 
L 18.109375 46.1875 
Q 20.953125 51.171875 25.484375 53.578125 
Q 30.03125 56 36.53125 56 
Q 37.453125 56 38.578125 55.875 
Q 39.703125 55.765625 41.0625 55.515625 
z
" id="DejaVuSans-114"/>
       <path d="M 30.609375 48.390625 
Q 23.390625 48.390625 19.1875 42.75 
Q 14.984375 37.109375 14.984375 27.296875 
Q 14.984375 17.484375 19.15625 11.84375 
Q 23.34375 6.203125 30.609375 6.203125 
Q 37.796875 6.203125 41.984375 11.859375 
Q 46.1875 17.53125 46.1875 27.296875 
Q 46.1875 37.015625 41.984375 42.703125 
Q 37.796875 48.390625 30.609375 48.390625 
z
M 30.609375 56 
Q 42.328125 56 49.015625 48.375 
Q 55.71875 40.765625 55.71875 27.296875 
Q 55.71875 13.875 49.015625 6.21875 
Q 42.328125 -1.421875 30.609375 -1.421875 
Q 18.84375 -1.421875 12.171875 6.21875 
Q 5.515625 13.875 5.515625 27.296875 
Q 5.515625 40.765625 12.171875 48.375 
Q 18.84375 56 30.609375 56 
z
" id="DejaVuSans-111"/>
       <path d="M 18.109375 8.203125 
L 18.109375 -20.796875 
L 9.078125 -20.796875 
L 9.078125 54.6875 
L 18.109375 54.6875 
L 18.109375 46.390625 
Q 20.953125 51.265625 25.265625 53.625 
Q 29.59375 56 35.59375 56 
Q 45.5625 56 51.78125 48.09375 
Q 58.015625 40.1875 58.015625 27.296875 
Q 58.015625 14.40625 51.78125 6.484375 
Q 45.5625 -1.421875 35.59375 -1.421875 
Q 29.59375 -1.421875 25.265625 0.953125 
Q 20.953125 3.328125 18.109375 8.203125 
z
M 48.6875 27.296875 
Q 48.6875 37.203125 44.609375 42.84375 
Q 40.53125 48.484375 33.40625 48.484375 
Q 26.265625 48.484375 22.1875 42.84375 
Q 18.109375 37.203125 18.109375 27.296875 
Q 18.109375 17.390625 22.1875 11.75 
Q 26.265625 6.109375 33.40625 6.109375 
Q 40.53125 6.109375 44.609375 11.75 
Q 48.6875 17.390625 48.6875 27.296875 
z
" id="DejaVuSans-112"/>
       <path d="M 50.984375 -16.609375 
L 50.984375 -23.578125 
L -0.984375 -23.578125 
L -0.984375 -16.609375 
z
" id="DejaVuSans-95"/>
      </defs>
      <use xlink:href="#DejaVuSans-103"/>
      <use x="63.476562" xlink:href="#DejaVuSans-114"/>
      <use x="102.339844" xlink:href="#DejaVuSans-111"/>
      <use x="163.521484" xlink:href="#DejaVuSans-117"/>
      <use x="226.900391" xlink:href="#DejaVuSans-112"/>
      <use x="290.376953" xlink:href="#DejaVuSans-95"/>
      <use x="340.376953" xlink:href="#DejaVuSans-49"/>
     </g>
    </g>
    <g id="line2d_22">
     <path d="M 46.76 53.974688 
L 66.76 53.974688 
" style="fill:none;stroke:#ff7f0e;stroke-linecap:square;stroke-width:1.5;"/>
    </g>
    <g id="line2d_23"/>
    <g id="text_9">
     <!-- group_2 -->
     <g transform="translate(74.76 57.474688)scale(0.1 -0.1)">
      <use xlink:href="#DejaVuSans-103"/>
      <use x="63.476562" xlink:href="#DejaVuSans-114"/>
      <use x="102.339844" xlink:href="#DejaVuSans-111"/>
      <use x="163.521484" xlink:href="#DejaVuSans-117"/>
      <use x="226.900391" xlink:href="#DejaVuSans-112"/>
      <use x="290.376953" xlink:href="#DejaVuSans-95"/>
      <use x="340.376953" xlink:href="#DejaVuSans-50"/>
     </g>
    </g>
    <g id="line2d_24">
     <path d="M 46.76 68.930938 
L 66.76 68.930938 
" style="fill:none;stroke:#2ca02c;stroke-linecap:square;stroke-width:1.5;"/>
    </g>
    <g id="line2d_25"/>
    <g id="text_10">
     <!-- group_3 -->
     <g transform="translate(74.76 72.430938)scale(0.1 -0.1)">
      <use xlink:href="#DejaVuSans-103"/>
      <use x="63.476562" xlink:href="#DejaVuSans-114"/>
      <use x="102.339844" xlink:href="#DejaVuSans-111"/>
      <use x="163.521484" xlink:href="#DejaVuSans-117"/>
      <use x="226.900391" xlink:href="#DejaVuSans-112"/>
      <use x="290.376953" xlink:href="#DejaVuSans-95"/>
      <use x="340.376953" xlink:href="#DejaVuSans-51"/>
     </g>
    </g>
    <g id="line2d_26">
     <path d="M 46.76 83.887188 
L 66.76 83.887188 
" style="fill:none;stroke:#d62728;stroke-linecap:square;stroke-width:1.5;"/>
    </g>
    <g id="line2d_27"/>
    <g id="text_11">
     <!-- group_4 -->
     <g transform="translate(74.76 87.387188)scale(0.1 -0.1)">
      <use xlink:href="#DejaVuSans-103"/>
      <use x="63.476562" xlink:href="#DejaVuSans-114"/>
      <use x="102.339844" xlink:href="#DejaVuSans-111"/>
      <use x="163.521484" xlink:href="#DejaVuSans-117"/>
      <use x="226.900391" xlink:href="#DejaVuSans-112"/>
      <use x="290.376953" xlink:href="#DejaVuSans-95"/>
      <use x="340.376953" xlink:href="#DejaVuSans-52"/>
     </g>
    </g>
    <g id="line2d_28">
     <path d="M 46.76 98.843438 
L 66.76 98.843438 
" style="fill:none;stroke:#9467bd;stroke-linecap:square;stroke-width:1.5;"/>
    </g>
    <g id="line2d_29"/>
    <g id="text_12">
     <!-- group_5 -->
     <g transform="translate(74.76 102.343438)scale(0.1 -0.1)">
      <use xlink:href="#DejaVuSans-103"/>
      <use x="63.476562" xlink:href="#DejaVuSans-114"/>
      <use x="102.339844" xlink:href="#DejaVuSans-111"/>
      <use x="163.521484" xlink:href="#DejaVuSans-117"/>
      <use x="226.900391" xlink:href="#DejaVuSans-112"/>
      <use x="290.376953" xlink:href="#DejaVuSans-95"/>
      <use x="340.376953" xlink:href="#DejaVuSans-53"/>
     </g>
    </g>
    <g id="line2d_30">
     <path d="M 46.76 113.799688 
L 66.76 113.799688 
" style="fill:none;stroke:#8c564b;stroke-linecap:square;stroke-width:1.5;"/>
    </g>
    <g id="line2d_31"/>
    <g id="text_13">
     <!-- benchmark -->
     <g transform="translate(74.76 117.299688)scale(0.1 -0.1)">
      <defs>
       <path d="M 48.6875 27.296875 
Q 48.6875 37.203125 44.609375 42.84375 
Q 40.53125 48.484375 33.40625 48.484375 
Q 26.265625 48.484375 22.1875 42.84375 
Q 18.109375 37.203125 18.109375 27.296875 
Q 18.109375 17.390625 22.1875 11.75 
Q 26.265625 6.109375 33.40625 6.109375 
Q 40.53125 6.109375 44.609375 11.75 
Q 48.6875 17.390625 48.6875 27.296875 
z
M 18.109375 46.390625 
Q 20.953125 51.265625 25.265625 53.625 
Q 29.59375 56 35.59375 56 
Q 45.5625 56 51.78125 48.09375 
Q 58.015625 40.1875 58.015625 27.296875 
Q 58.015625 14.40625 51.78125 6.484375 
Q 45.5625 -1.421875 35.59375 -1.421875 
Q 29.59375 -1.421875 25.265625 0.953125 
Q 20.953125 3.328125 18.109375 8.203125 
L 18.109375 0 
L 9.078125 0 
L 9.078125 75.984375 
L 18.109375 75.984375 
z
" id="DejaVuSans-98"/>
       <path d="M 48.78125 52.59375 
L 48.78125 44.1875 
Q 44.96875 46.296875 41.140625 47.34375 
Q 37.3125 48.390625 33.40625 48.390625 
Q 24.65625 48.390625 19.8125 42.84375 
Q 14.984375 37.3125 14.984375 27.296875 
Q 14.984375 17.28125 19.8125 11.734375 
Q 24.65625 6.203125 33.40625 6.203125 
Q 37.3125 6.203125 41.140625 7.25 
Q 44.96875 8.296875 48.78125 10.40625 
L 48.78125 2.09375 
Q 45.015625 0.34375 40.984375 -0.53125 
Q 36.96875 -1.421875 32.421875 -1.421875 
Q 20.0625 -1.421875 12.78125 6.34375 
Q 5.515625 14.109375 5.515625 27.296875 
Q 5.515625 40.671875 12.859375 48.328125 
Q 20.21875 56 33.015625 56 
Q 37.15625 56 41.109375 55.140625 
Q 45.0625 54.296875 48.78125 52.59375 
z
" id="DejaVuSans-99"/>
       <path d="M 54.890625 33.015625 
L 54.890625 0 
L 45.90625 0 
L 45.90625 32.71875 
Q 45.90625 40.484375 42.875 44.328125 
Q 39.84375 48.1875 33.796875 48.1875 
Q 26.515625 48.1875 22.3125 43.546875 
Q 18.109375 38.921875 18.109375 30.90625 
L 18.109375 0 
L 9.078125 0 
L 9.078125 75.984375 
L 18.109375 75.984375 
L 18.109375 46.1875 
Q 21.34375 51.125 25.703125 53.5625 
Q 30.078125 56 35.796875 56 
Q 45.21875 56 50.046875 50.171875 
Q 54.890625 44.34375 54.890625 33.015625 
z
" id="DejaVuSans-104"/>
       <path d="M 52 44.1875 
Q 55.375 50.25 60.0625 53.125 
Q 64.75 56 71.09375 56 
Q 79.640625 56 84.28125 50.015625 
Q 88.921875 44.046875 88.921875 33.015625 
L 88.921875 0 
L 79.890625 0 
L 79.890625 32.71875 
Q 79.890625 40.578125 77.09375 44.375 
Q 74.3125 48.1875 68.609375 48.1875 
Q 61.625 48.1875 57.5625 43.546875 
Q 53.515625 38.921875 53.515625 30.90625 
L 53.515625 0 
L 44.484375 0 
L 44.484375 32.71875 
Q 44.484375 40.625 41.703125 44.40625 
Q 38.921875 48.1875 33.109375 48.1875 
Q 26.21875 48.1875 22.15625 43.53125 
Q 18.109375 38.875 18.109375 30.90625 
L 18.109375 0 
L 9.078125 0 
L 9.078125 54.6875 
L 18.109375 54.6875 
L 18.109375 46.1875 
Q 21.1875 51.21875 25.484375 53.609375 
Q 29.78125 56 35.6875 56 
Q 41.65625 56 45.828125 52.96875 
Q 50 49.953125 52 44.1875 
z
" id="DejaVuSans-109"/>
       <path d="M 9.078125 75.984375 
L 18.109375 75.984375 
L 18.109375 31.109375 
L 44.921875 54.6875 
L 56.390625 54.6875 
L 27.390625 29.109375 
L 57.625 0 
L 45.90625 0 
L 18.109375 26.703125 
L 18.109375 0 
L 9.078125 0 
z
" id="DejaVuSans-107"/>
      </defs>
      <use xlink:href="#DejaVuSans-98"/>
      <use x="63.476562" xlink:href="#DejaVuSans-101"/>
      <use x="125" xlink:href="#DejaVuSans-110"/>
      <use x="188.378906" xlink:href="#DejaVuSans-99"/>
      <use x="243.359375" xlink:href="#DejaVuSans-104"/>
      <use x="306.738281" xlink:href="#DejaVuSans-109"/>
      <use x="404.150391" xlink:href="#DejaVuSans-97"/>
      <use x="465.429688" xlink:href="#DejaVuSans-114"/>
      <use x="506.542969" xlink:href="#DejaVuSans-107"/>
     </g>
    </g>
    <g id="line2d_32">
     <path d="M 46.76 128.477813 
L 66.76 128.477813 
" style="fill:none;stroke:#e377c2;stroke-linecap:square;stroke-width:1.5;"/>
    </g>
    <g id="line2d_33"/>
    <g id="text_14">
     <!-- long_excess -->
     <g transform="translate(74.76 131.977813)scale(0.1 -0.1)">
      <defs>
       <path d="M 54.890625 54.6875 
L 35.109375 28.078125 
L 55.90625 0 
L 45.3125 0 
L 29.390625 21.484375 
L 13.484375 0 
L 2.875 0 
L 24.125 28.609375 
L 4.6875 54.6875 
L 15.28125 54.6875 
L 29.78125 35.203125 
L 44.28125 54.6875 
z
" id="DejaVuSans-120"/>
       <path d="M 44.28125 53.078125 
L 44.28125 44.578125 
Q 40.484375 46.53125 36.375 47.5 
Q 32.28125 48.484375 27.875 48.484375 
Q 21.1875 48.484375 17.84375 46.4375 
Q 14.5 44.390625 14.5 40.28125 
Q 14.5 37.15625 16.890625 35.375 
Q 19.28125 33.59375 26.515625 31.984375 
L 29.59375 31.296875 
Q 39.15625 29.25 43.1875 25.515625 
Q 47.21875 21.78125 47.21875 15.09375 
Q 47.21875 7.46875 41.1875 3.015625 
Q 35.15625 -1.421875 24.609375 -1.421875 
Q 20.21875 -1.421875 15.453125 -0.5625 
Q 10.6875 0.296875 5.421875 2 
L 5.421875 11.28125 
Q 10.40625 8.6875 15.234375 7.390625 
Q 20.0625 6.109375 24.8125 6.109375 
Q 31.15625 6.109375 34.5625 8.28125 
Q 37.984375 10.453125 37.984375 14.40625 
Q 37.984375 18.0625 35.515625 20.015625 
Q 33.0625 21.96875 24.703125 23.78125 
L 21.578125 24.515625 
Q 13.234375 26.265625 9.515625 29.90625 
Q 5.8125 33.546875 5.8125 39.890625 
Q 5.8125 47.609375 11.28125 51.796875 
Q 16.75 56 26.8125 56 
Q 31.78125 56 36.171875 55.265625 
Q 40.578125 54.546875 44.28125 53.078125 
z
" id="DejaVuSans-115"/>
      </defs>
      <use xlink:href="#DejaVuSans-108"/>
      <use x="27.783203" xlink:href="#DejaVuSans-111"/>
      <use x="88.964844" xlink:href="#DejaVuSans-110"/>
      <use x="152.34375" xlink:href="#DejaVuSans-103"/>
      <use x="215.820312" xlink:href="#DejaVuSans-95"/>
      <use x="265.820312" xlink:href="#DejaVuSans-101"/>
      <use x="325.59375" xlink:href="#DejaVuSans-120"/>
      <use x="383.023438" xlink:href="#DejaVuSans-99"/>
      <use x="438.003906" xlink:href="#DejaVuSans-101"/>
      <use x="499.527344" xlink:href="#DejaVuSans-115"/>
      <use x="551.626953" xlink:href="#DejaVuSans-115"/>
     </g>
    </g>
    <g id="line2d_34">
     <path d="M 46.76 143.434063 
L 66.76 143.434063 
" style="fill:none;stroke:#7f7f7f;stroke-linecap:square;stroke-width:1.5;"/>
    </g>
    <g id="line2d_35"/>
    <g id="text_15">
     <!-- short_excess -->
     <g transform="translate(74.76 146.934063)scale(0.1 -0.1)">
      <use xlink:href="#DejaVuSans-115"/>
      <use x="52.099609" xlink:href="#DejaVuSans-104"/>
      <use x="115.478516" xlink:href="#DejaVuSans-111"/>
      <use x="176.660156" xlink:href="#DejaVuSans-114"/>
      <use x="217.773438" xlink:href="#DejaVuSans-116"/>
      <use x="256.982422" xlink:href="#DejaVuSans-95"/>
      <use x="306.982422" xlink:href="#DejaVuSans-101"/>
      <use x="366.755859" xlink:href="#DejaVuSans-120"/>
      <use x="424.185547" xlink:href="#DejaVuSans-99"/>
      <use x="479.166016" xlink:href="#DejaVuSans-101"/>
      <use x="540.689453" xlink:href="#DejaVuSans-115"/>
      <use x="592.789062" xlink:href="#DejaVuSans-115"/>
     </g>
    </g>
    <g id="line2d_36">
     <path d="M 46.76 158.390313 
L 66.76 158.390313 
" style="fill:none;stroke:#bcbd22;stroke-linecap:square;stroke-width:1.5;"/>
    </g>
    <g id="line2d_37"/>
    <g id="text_16">
     <!-- long_short -->
     <g transform="translate(74.76 161.890313)scale(0.1 -0.1)">
      <use xlink:href="#DejaVuSans-108"/>
      <use x="27.783203" xlink:href="#DejaVuSans-111"/>
      <use x="88.964844" xlink:href="#DejaVuSans-110"/>
      <use x="152.34375" xlink:href="#DejaVuSans-103"/>
      <use x="215.820312" xlink:href="#DejaVuSans-95"/>
      <use x="265.820312" xlink:href="#DejaVuSans-115"/>
      <use x="317.919922" xlink:href="#DejaVuSans-104"/>
      <use x="381.298828" xlink:href="#DejaVuSans-111"/>
      <use x="442.480469" xlink:href="#DejaVuSans-114"/>
      <use x="483.59375" xlink:href="#DejaVuSans-116"/>
     </g>
    </g>
   </g>
  </g>
 </g>
 <defs>
  <clipPath id="p6f74dee149">
   <rect height="334.18" width="1103.44" x="37.76" y="25.92"/>
  </clipPath>
 </defs>
</svg>
