<?xml version="1.0" encoding="utf-8" standalone="no"?>
<!DOCTYPE svg PUBLIC "-//W3C//DTD SVG 1.1//EN"
  "http://www.w3.org/Graphics/SVG/1.1/DTD/svg11.dtd">
<!-- Created with matplotlib (https://matplotlib.org/) -->
<svg height="360pt" version="1.1" viewBox="0 0 1152 360" width="1152pt" xmlns="http://www.w3.org/2000/svg" xmlns:xlink="http://www.w3.org/1999/xlink">
 <metadata>
  <rdf:RDF xmlns:cc="http://creativecommons.org/ns#" xmlns:dc="http://purl.org/dc/elements/1.1/" xmlns:rdf="http://www.w3.org/1999/02/22-rdf-syntax-ns#">
   <cc:Work>
    <dc:type rdf:resource="http://purl.org/dc/dcmitype/StillImage"/>
    <dc:date>2023-10-11T17:00:05.353105</dc:date>
    <dc:format>image/svg+xml</dc:format>
    <dc:creator>
     <cc:Agent>
      <dc:title>Matplotlib v3.3.4, https://matplotlib.org/</dc:title>
     </cc:Agent>
    </dc:creator>
   </cc:Work>
  </rdf:RDF>
 </metadata>
 <defs>
  <style type="text/css">*{stroke-linecap:butt;stroke-linejoin:round;}</style>
 </defs>
 <g id="figure_1">
  <g id="patch_1">
   <path d="M 0 360 
L 1152 360 
L 1152 0 
L 0 0 
z
" style="fill:#ffffff;"/>
  </g>
  <g id="axes_1">
   <g id="patch_2">
    <path d="M 50.96 345.7 
L 1141.2 345.7 
L 1141.2 25.92 
L 50.96 25.92 
z
" style="fill:#ffffff;"/>
   </g>
   <g id="matplotlib.axis_1"/>
   <g id="matplotlib.axis_2">
    <g id="ytick_1">
     <g id="line2d_1">
      <path clip-path="url(#p74ec04f03a)" d="M 50.96 340.004206 
L 1141.2 340.004206 
" style="fill:none;stroke:#b0b0b0;stroke-linecap:square;stroke-width:0.8;"/>
     </g>
     <g id="line2d_2">
      <defs>
       <path d="M 0 0 
L -3.5 0 
" id="mbef38e6b73" style="stroke:#000000;stroke-width:0.8;"/>
      </defs>
      <g>
       <use style="stroke:#000000;stroke-width:0.8;" x="50.96" xlink:href="#mbef38e6b73" y="340.004206"/>
      </g>
     </g>
     <g id="text_1">
      <!-- -0.6 -->
      <g transform="translate(24.449062 343.803424)scale(0.1 -0.1)">
       <defs>
        <path d="M 4.890625 31.390625 
L 31.203125 31.390625 
L 31.203125 23.390625 
L 4.890625 23.390625 
z
" id="DejaVuSans-45"/>
        <path d="M 31.78125 66.40625 
Q 24.171875 66.40625 20.328125 58.90625 
Q 16.5 51.421875 16.5 36.375 
Q 16.5 21.390625 20.328125 13.890625 
Q 24.171875 6.390625 31.78125 6.390625 
Q 39.453125 6.390625 43.28125 13.890625 
Q 47.125 21.390625 47.125 36.375 
Q 47.125 51.421875 43.28125 58.90625 
Q 39.453125 66.40625 31.78125 66.40625 
z
M 31.78125 74.21875 
Q 44.046875 74.21875 50.515625 64.515625 
Q 56.984375 54.828125 56.984375 36.375 
Q 56.984375 17.96875 50.515625 8.265625 
Q 44.046875 -1.421875 31.78125 -1.421875 
Q 19.53125 -1.421875 13.0625 8.265625 
Q 6.59375 17.96875 6.59375 36.375 
Q 6.59375 54.828125 13.0625 64.515625 
Q 19.53125 74.21875 31.78125 74.21875 
z
" id="DejaVuSans-48"/>
        <path d="M 10.6875 12.40625 
L 21 12.40625 
L 21 0 
L 10.6875 0 
z
" id="DejaVuSans-46"/>
        <path d="M 33.015625 40.375 
Q 26.375 40.375 22.484375 35.828125 
Q 18.609375 31.296875 18.609375 23.390625 
Q 18.609375 15.53125 22.484375 10.953125 
Q 26.375 6.390625 33.015625 6.390625 
Q 39.65625 6.390625 43.53125 10.953125 
Q 47.40625 15.53125 47.40625 23.390625 
Q 47.40625 31.296875 43.53125 35.828125 
Q 39.65625 40.375 33.015625 40.375 
z
M 52.59375 71.296875 
L 52.59375 62.3125 
Q 48.875 64.0625 45.09375 64.984375 
Q 41.3125 65.921875 37.59375 65.921875 
Q 27.828125 65.921875 22.671875 59.328125 
Q 17.53125 52.734375 16.796875 39.40625 
Q 19.671875 43.65625 24.015625 45.921875 
Q 28.375 48.1875 33.59375 48.1875 
Q 44.578125 48.1875 50.953125 41.515625 
Q 57.328125 34.859375 57.328125 23.390625 
Q 57.328125 12.15625 50.6875 5.359375 
Q 44.046875 -1.421875 33.015625 -1.421875 
Q 20.359375 -1.421875 13.671875 8.265625 
Q 6.984375 17.96875 6.984375 36.375 
Q 6.984375 53.65625 15.1875 63.9375 
Q 23.390625 74.21875 37.203125 74.21875 
Q 40.921875 74.21875 44.703125 73.484375 
Q 48.484375 72.75 52.59375 71.296875 
z
" id="DejaVuSans-54"/>
       </defs>
       <use xlink:href="#DejaVuSans-45"/>
       <use x="36.083984" xlink:href="#DejaVuSans-48"/>
       <use x="99.707031" xlink:href="#DejaVuSans-46"/>
       <use x="131.494141" xlink:href="#DejaVuSans-54"/>
      </g>
     </g>
    </g>
    <g id="ytick_2">
     <g id="line2d_3">
      <path clip-path="url(#p74ec04f03a)" d="M 50.96 299.671583 
L 1141.2 299.671583 
" style="fill:none;stroke:#b0b0b0;stroke-linecap:square;stroke-width:0.8;"/>
     </g>
     <g id="line2d_4">
      <g>
       <use style="stroke:#000000;stroke-width:0.8;" x="50.96" xlink:href="#mbef38e6b73" y="299.671583"/>
      </g>
     </g>
     <g id="text_2">
      <!-- -0.4 -->
      <g transform="translate(24.449062 303.470801)scale(0.1 -0.1)">
       <defs>
        <path d="M 37.796875 64.3125 
L 12.890625 25.390625 
L 37.796875 25.390625 
z
M 35.203125 72.90625 
L 47.609375 72.90625 
L 47.609375 25.390625 
L 58.015625 25.390625 
L 58.015625 17.1875 
L 47.609375 17.1875 
L 47.609375 0 
L 37.796875 0 
L 37.796875 17.1875 
L 4.890625 17.1875 
L 4.890625 26.703125 
z
" id="DejaVuSans-52"/>
       </defs>
       <use xlink:href="#DejaVuSans-45"/>
       <use x="36.083984" xlink:href="#DejaVuSans-48"/>
       <use x="99.707031" xlink:href="#DejaVuSans-46"/>
       <use x="131.494141" xlink:href="#DejaVuSans-52"/>
      </g>
     </g>
    </g>
    <g id="ytick_3">
     <g id="line2d_5">
      <path clip-path="url(#p74ec04f03a)" d="M 50.96 259.33896 
L 1141.2 259.33896 
" style="fill:none;stroke:#b0b0b0;stroke-linecap:square;stroke-width:0.8;"/>
     </g>
     <g id="line2d_6">
      <g>
       <use style="stroke:#000000;stroke-width:0.8;" x="50.96" xlink:href="#mbef38e6b73" y="259.33896"/>
      </g>
     </g>
     <g id="text_3">
      <!-- -0.2 -->
      <g transform="translate(24.449062 263.138178)scale(0.1 -0.1)">
       <defs>
        <path d="M 19.1875 8.296875 
L 53.609375 8.296875 
L 53.609375 0 
L 7.328125 0 
L 7.328125 8.296875 
Q 12.9375 14.109375 22.625 23.890625 
Q 32.328125 33.6875 34.8125 36.53125 
Q 39.546875 41.84375 41.421875 45.53125 
Q 43.3125 49.21875 43.3125 52.78125 
Q 43.3125 58.59375 39.234375 62.25 
Q 35.15625 65.921875 28.609375 65.921875 
Q 23.96875 65.921875 18.8125 64.3125 
Q 13.671875 62.703125 7.8125 59.421875 
L 7.8125 69.390625 
Q 13.765625 71.78125 18.9375 73 
Q 24.125 74.21875 28.421875 74.21875 
Q 39.75 74.21875 46.484375 68.546875 
Q 53.21875 62.890625 53.21875 53.421875 
Q 53.21875 48.921875 51.53125 44.890625 
Q 49.859375 40.875 45.40625 35.40625 
Q 44.1875 33.984375 37.640625 27.21875 
Q 31.109375 20.453125 19.1875 8.296875 
z
" id="DejaVuSans-50"/>
       </defs>
       <use xlink:href="#DejaVuSans-45"/>
       <use x="36.083984" xlink:href="#DejaVuSans-48"/>
       <use x="99.707031" xlink:href="#DejaVuSans-46"/>
       <use x="131.494141" xlink:href="#DejaVuSans-50"/>
      </g>
     </g>
    </g>
    <g id="ytick_4">
     <g id="line2d_7">
      <path clip-path="url(#p74ec04f03a)" d="M 50.96 219.006337 
L 1141.2 219.006337 
" style="fill:none;stroke:#b0b0b0;stroke-linecap:square;stroke-width:0.8;"/>
     </g>
     <g id="line2d_8">
      <g>
       <use style="stroke:#000000;stroke-width:0.8;" x="50.96" xlink:href="#mbef38e6b73" y="219.006337"/>
      </g>
     </g>
     <g id="text_4">
      <!-- 0.0 -->
      <g transform="translate(28.056875 222.805555)scale(0.1 -0.1)">
       <use xlink:href="#DejaVuSans-48"/>
       <use x="63.623047" xlink:href="#DejaVuSans-46"/>
       <use x="95.410156" xlink:href="#DejaVuSans-48"/>
      </g>
     </g>
    </g>
    <g id="ytick_5">
     <g id="line2d_9">
      <path clip-path="url(#p74ec04f03a)" d="M 50.96 178.673714 
L 1141.2 178.673714 
" style="fill:none;stroke:#b0b0b0;stroke-linecap:square;stroke-width:0.8;"/>
     </g>
     <g id="line2d_10">
      <g>
       <use style="stroke:#000000;stroke-width:0.8;" x="50.96" xlink:href="#mbef38e6b73" y="178.673714"/>
      </g>
     </g>
     <g id="text_5">
      <!-- 0.2 -->
      <g transform="translate(28.056875 182.472932)scale(0.1 -0.1)">
       <use xlink:href="#DejaVuSans-48"/>
       <use x="63.623047" xlink:href="#DejaVuSans-46"/>
       <use x="95.410156" xlink:href="#DejaVuSans-50"/>
      </g>
     </g>
    </g>
    <g id="ytick_6">
     <g id="line2d_11">
      <path clip-path="url(#p74ec04f03a)" d="M 50.96 138.341091 
L 1141.2 138.341091 
" style="fill:none;stroke:#b0b0b0;stroke-linecap:square;stroke-width:0.8;"/>
     </g>
     <g id="line2d_12">
      <g>
       <use style="stroke:#000000;stroke-width:0.8;" x="50.96" xlink:href="#mbef38e6b73" y="138.341091"/>
      </g>
     </g>
     <g id="text_6">
      <!-- 0.4 -->
      <g transform="translate(28.056875 142.140309)scale(0.1 -0.1)">
       <use xlink:href="#DejaVuSans-48"/>
       <use x="63.623047" xlink:href="#DejaVuSans-46"/>
       <use x="95.410156" xlink:href="#DejaVuSans-52"/>
      </g>
     </g>
    </g>
    <g id="ytick_7">
     <g id="line2d_13">
      <path clip-path="url(#p74ec04f03a)" d="M 50.96 98.008468 
L 1141.2 98.008468 
" style="fill:none;stroke:#b0b0b0;stroke-linecap:square;stroke-width:0.8;"/>
     </g>
     <g id="line2d_14">
      <g>
       <use style="stroke:#000000;stroke-width:0.8;" x="50.96" xlink:href="#mbef38e6b73" y="98.008468"/>
      </g>
     </g>
     <g id="text_7">
      <!-- 0.6 -->
      <g transform="translate(28.056875 101.807686)scale(0.1 -0.1)">
       <use xlink:href="#DejaVuSans-48"/>
       <use x="63.623047" xlink:href="#DejaVuSans-46"/>
       <use x="95.410156" xlink:href="#DejaVuSans-54"/>
      </g>
     </g>
    </g>
    <g id="ytick_8">
     <g id="line2d_15">
      <path clip-path="url(#p74ec04f03a)" d="M 50.96 57.675845 
L 1141.2 57.675845 
" style="fill:none;stroke:#b0b0b0;stroke-linecap:square;stroke-width:0.8;"/>
     </g>
     <g id="line2d_16">
      <g>
       <use style="stroke:#000000;stroke-width:0.8;" x="50.96" xlink:href="#mbef38e6b73" y="57.675845"/>
      </g>
     </g>
     <g id="text_8">
      <!-- 0.8 -->
      <g transform="translate(28.056875 61.475063)scale(0.1 -0.1)">
       <defs>
        <path d="M 31.78125 34.625 
Q 24.75 34.625 20.71875 30.859375 
Q 16.703125 27.09375 16.703125 20.515625 
Q 16.703125 13.921875 20.71875 10.15625 
Q 24.75 6.390625 31.78125 6.390625 
Q 38.8125 6.390625 42.859375 10.171875 
Q 46.921875 13.96875 46.921875 20.515625 
Q 46.921875 27.09375 42.890625 30.859375 
Q 38.875 34.625 31.78125 34.625 
z
M 21.921875 38.8125 
Q 15.578125 40.375 12.03125 44.71875 
Q 8.5 49.078125 8.5 55.328125 
Q 8.5 64.0625 14.71875 69.140625 
Q 20.953125 74.21875 31.78125 74.21875 
Q 42.671875 74.21875 48.875 69.140625 
Q 55.078125 64.0625 55.078125 55.328125 
Q 55.078125 49.078125 51.53125 44.71875 
Q 48 40.375 41.703125 38.8125 
Q 48.828125 37.15625 52.796875 32.3125 
Q 56.78125 27.484375 56.78125 20.515625 
Q 56.78125 9.90625 50.3125 4.234375 
Q 43.84375 -1.421875 31.78125 -1.421875 
Q 19.734375 -1.421875 13.25 4.234375 
Q 6.78125 9.90625 6.78125 20.515625 
Q 6.78125 27.484375 10.78125 32.3125 
Q 14.796875 37.15625 21.921875 38.8125 
z
M 18.3125 54.390625 
Q 18.3125 48.734375 21.84375 45.5625 
Q 25.390625 42.390625 31.78125 42.390625 
Q 38.140625 42.390625 41.71875 45.5625 
Q 45.3125 48.734375 45.3125 54.390625 
Q 45.3125 60.0625 41.71875 63.234375 
Q 38.140625 66.40625 31.78125 66.40625 
Q 25.390625 66.40625 21.84375 63.234375 
Q 18.3125 60.0625 18.3125 54.390625 
z
" id="DejaVuSans-56"/>
       </defs>
       <use xlink:href="#DejaVuSans-48"/>
       <use x="63.623047" xlink:href="#DejaVuSans-46"/>
       <use x="95.410156" xlink:href="#DejaVuSans-56"/>
      </g>
     </g>
    </g>
    <g id="text_9">
     <!-- log return cumsum -->
     <g transform="translate(18.369375 233.327969)rotate(-90)scale(0.1 -0.1)">
      <defs>
       <path d="M 9.421875 75.984375 
L 18.40625 75.984375 
L 18.40625 0 
L 9.421875 0 
z
" id="DejaVuSans-108"/>
       <path d="M 30.609375 48.390625 
Q 23.390625 48.390625 19.1875 42.75 
Q 14.984375 37.109375 14.984375 27.296875 
Q 14.984375 17.484375 19.15625 11.84375 
Q 23.34375 6.203125 30.609375 6.203125 
Q 37.796875 6.203125 41.984375 11.859375 
Q 46.1875 17.53125 46.1875 27.296875 
Q 46.1875 37.015625 41.984375 42.703125 
Q 37.796875 48.390625 30.609375 48.390625 
z
M 30.609375 56 
Q 42.328125 56 49.015625 48.375 
Q 55.71875 40.765625 55.71875 27.296875 
Q 55.71875 13.875 49.015625 6.21875 
Q 42.328125 -1.421875 30.609375 -1.421875 
Q 18.84375 -1.421875 12.171875 6.21875 
Q 5.515625 13.875 5.515625 27.296875 
Q 5.515625 40.765625 12.171875 48.375 
Q 18.84375 56 30.609375 56 
z
" id="DejaVuSans-111"/>
       <path d="M 45.40625 27.984375 
Q 45.40625 37.75 41.375 43.109375 
Q 37.359375 48.484375 30.078125 48.484375 
Q 22.859375 48.484375 18.828125 43.109375 
Q 14.796875 37.75 14.796875 27.984375 
Q 14.796875 18.265625 18.828125 12.890625 
Q 22.859375 7.515625 30.078125 7.515625 
Q 37.359375 7.515625 41.375 12.890625 
Q 45.40625 18.265625 45.40625 27.984375 
z
M 54.390625 6.78125 
Q 54.390625 -7.171875 48.1875 -13.984375 
Q 42 -20.796875 29.203125 -20.796875 
Q 24.46875 -20.796875 20.265625 -20.09375 
Q 16.0625 -19.390625 12.109375 -17.921875 
L 12.109375 -9.1875 
Q 16.0625 -11.328125 19.921875 -12.34375 
Q 23.78125 -13.375 27.78125 -13.375 
Q 36.625 -13.375 41.015625 -8.765625 
Q 45.40625 -4.15625 45.40625 5.171875 
L 45.40625 9.625 
Q 42.625 4.78125 38.28125 2.390625 
Q 33.9375 0 27.875 0 
Q 17.828125 0 11.671875 7.65625 
Q 5.515625 15.328125 5.515625 27.984375 
Q 5.515625 40.671875 11.671875 48.328125 
Q 17.828125 56 27.875 56 
Q 33.9375 56 38.28125 53.609375 
Q 42.625 51.21875 45.40625 46.390625 
L 45.40625 54.6875 
L 54.390625 54.6875 
z
" id="DejaVuSans-103"/>
       <path id="DejaVuSans-32"/>
       <path d="M 41.109375 46.296875 
Q 39.59375 47.171875 37.8125 47.578125 
Q 36.03125 48 33.890625 48 
Q 26.265625 48 22.1875 43.046875 
Q 18.109375 38.09375 18.109375 28.8125 
L 18.109375 0 
L 9.078125 0 
L 9.078125 54.6875 
L 18.109375 54.6875 
L 18.109375 46.1875 
Q 20.953125 51.171875 25.484375 53.578125 
Q 30.03125 56 36.53125 56 
Q 37.453125 56 38.578125 55.875 
Q 39.703125 55.765625 41.0625 55.515625 
z
" id="DejaVuSans-114"/>
       <path d="M 56.203125 29.59375 
L 56.203125 25.203125 
L 14.890625 25.203125 
Q 15.484375 15.921875 20.484375 11.0625 
Q 25.484375 6.203125 34.421875 6.203125 
Q 39.59375 6.203125 44.453125 7.46875 
Q 49.3125 8.734375 54.109375 11.28125 
L 54.109375 2.78125 
Q 49.265625 0.734375 44.1875 -0.34375 
Q 39.109375 -1.421875 33.890625 -1.421875 
Q 20.796875 -1.421875 13.15625 6.1875 
Q 5.515625 13.8125 5.515625 26.8125 
Q 5.515625 40.234375 12.765625 48.109375 
Q 20.015625 56 32.328125 56 
Q 43.359375 56 49.78125 48.890625 
Q 56.203125 41.796875 56.203125 29.59375 
z
M 47.21875 32.234375 
Q 47.125 39.59375 43.09375 43.984375 
Q 39.0625 48.390625 32.421875 48.390625 
Q 24.90625 48.390625 20.390625 44.140625 
Q 15.875 39.890625 15.1875 32.171875 
z
" id="DejaVuSans-101"/>
       <path d="M 18.3125 70.21875 
L 18.3125 54.6875 
L 36.8125 54.6875 
L 36.8125 47.703125 
L 18.3125 47.703125 
L 18.3125 18.015625 
Q 18.3125 11.328125 20.140625 9.421875 
Q 21.96875 7.515625 27.59375 7.515625 
L 36.8125 7.515625 
L 36.8125 0 
L 27.59375 0 
Q 17.1875 0 13.234375 3.875 
Q 9.28125 7.765625 9.28125 18.015625 
L 9.28125 47.703125 
L 2.6875 47.703125 
L 2.6875 54.6875 
L 9.28125 54.6875 
L 9.28125 70.21875 
z
" id="DejaVuSans-116"/>
       <path d="M 8.5 21.578125 
L 8.5 54.6875 
L 17.484375 54.6875 
L 17.484375 21.921875 
Q 17.484375 14.15625 20.5 10.265625 
Q 23.53125 6.390625 29.59375 6.390625 
Q 36.859375 6.390625 41.078125 11.03125 
Q 45.3125 15.671875 45.3125 23.6875 
L 45.3125 54.6875 
L 54.296875 54.6875 
L 54.296875 0 
L 45.3125 0 
L 45.3125 8.40625 
Q 42.046875 3.421875 37.71875 1 
Q 33.40625 -1.421875 27.6875 -1.421875 
Q 18.265625 -1.421875 13.375 4.4375 
Q 8.5 10.296875 8.5 21.578125 
z
M 31.109375 56 
z
" id="DejaVuSans-117"/>
       <path d="M 54.890625 33.015625 
L 54.890625 0 
L 45.90625 0 
L 45.90625 32.71875 
Q 45.90625 40.484375 42.875 44.328125 
Q 39.84375 48.1875 33.796875 48.1875 
Q 26.515625 48.1875 22.3125 43.546875 
Q 18.109375 38.921875 18.109375 30.90625 
L 18.109375 0 
L 9.078125 0 
L 9.078125 54.6875 
L 18.109375 54.6875 
L 18.109375 46.1875 
Q 21.34375 51.125 25.703125 53.5625 
Q 30.078125 56 35.796875 56 
Q 45.21875 56 50.046875 50.171875 
Q 54.890625 44.34375 54.890625 33.015625 
z
" id="DejaVuSans-110"/>
       <path d="M 48.78125 52.59375 
L 48.78125 44.1875 
Q 44.96875 46.296875 41.140625 47.34375 
Q 37.3125 48.390625 33.40625 48.390625 
Q 24.65625 48.390625 19.8125 42.84375 
Q 14.984375 37.3125 14.984375 27.296875 
Q 14.984375 17.28125 19.8125 11.734375 
Q 24.65625 6.203125 33.40625 6.203125 
Q 37.3125 6.203125 41.140625 7.25 
Q 44.96875 8.296875 48.78125 10.40625 
L 48.78125 2.09375 
Q 45.015625 0.34375 40.984375 -0.53125 
Q 36.96875 -1.421875 32.421875 -1.421875 
Q 20.0625 -1.421875 12.78125 6.34375 
Q 5.515625 14.109375 5.515625 27.296875 
Q 5.515625 40.671875 12.859375 48.328125 
Q 20.21875 56 33.015625 56 
Q 37.15625 56 41.109375 55.140625 
Q 45.0625 54.296875 48.78125 52.59375 
z
" id="DejaVuSans-99"/>
       <path d="M 52 44.1875 
Q 55.375 50.25 60.0625 53.125 
Q 64.75 56 71.09375 56 
Q 79.640625 56 84.28125 50.015625 
Q 88.921875 44.046875 88.921875 33.015625 
L 88.921875 0 
L 79.890625 0 
L 79.890625 32.71875 
Q 79.890625 40.578125 77.09375 44.375 
Q 74.3125 48.1875 68.609375 48.1875 
Q 61.625 48.1875 57.5625 43.546875 
Q 53.515625 38.921875 53.515625 30.90625 
L 53.515625 0 
L 44.484375 0 
L 44.484375 32.71875 
Q 44.484375 40.625 41.703125 44.40625 
Q 38.921875 48.1875 33.109375 48.1875 
Q 26.21875 48.1875 22.15625 43.53125 
Q 18.109375 38.875 18.109375 30.90625 
L 18.109375 0 
L 9.078125 0 
L 9.078125 54.6875 
L 18.109375 54.6875 
L 18.109375 46.1875 
Q 21.1875 51.21875 25.484375 53.609375 
Q 29.78125 56 35.6875 56 
Q 41.65625 56 45.828125 52.96875 
Q 50 49.953125 52 44.1875 
z
" id="DejaVuSans-109"/>
       <path d="M 44.28125 53.078125 
L 44.28125 44.578125 
Q 40.484375 46.53125 36.375 47.5 
Q 32.28125 48.484375 27.875 48.484375 
Q 21.1875 48.484375 17.84375 46.4375 
Q 14.5 44.390625 14.5 40.28125 
Q 14.5 37.15625 16.890625 35.375 
Q 19.28125 33.59375 26.515625 31.984375 
L 29.59375 31.296875 
Q 39.15625 29.25 43.1875 25.515625 
Q 47.21875 21.78125 47.21875 15.09375 
Q 47.21875 7.46875 41.1875 3.015625 
Q 35.15625 -1.421875 24.609375 -1.421875 
Q 20.21875 -1.421875 15.453125 -0.5625 
Q 10.6875 0.296875 5.421875 2 
L 5.421875 11.28125 
Q 10.40625 8.6875 15.234375 7.390625 
Q 20.0625 6.109375 24.8125 6.109375 
Q 31.15625 6.109375 34.5625 8.28125 
Q 37.984375 10.453125 37.984375 14.40625 
Q 37.984375 18.0625 35.515625 20.015625 
Q 33.0625 21.96875 24.703125 23.78125 
L 21.578125 24.515625 
Q 13.234375 26.265625 9.515625 29.90625 
Q 5.8125 33.546875 5.8125 39.890625 
Q 5.8125 47.609375 11.28125 51.796875 
Q 16.75 56 26.8125 56 
Q 31.78125 56 36.171875 55.265625 
Q 40.578125 54.546875 44.28125 53.078125 
z
" id="DejaVuSans-115"/>
      </defs>
      <use xlink:href="#DejaVuSans-108"/>
      <use x="27.783203" xlink:href="#DejaVuSans-111"/>
      <use x="88.964844" xlink:href="#DejaVuSans-103"/>
      <use x="152.441406" xlink:href="#DejaVuSans-32"/>
      <use x="184.228516" xlink:href="#DejaVuSans-114"/>
      <use x="223.091797" xlink:href="#DejaVuSans-101"/>
      <use x="284.615234" xlink:href="#DejaVuSans-116"/>
      <use x="323.824219" xlink:href="#DejaVuSans-117"/>
      <use x="387.203125" xlink:href="#DejaVuSans-114"/>
      <use x="426.566406" xlink:href="#DejaVuSans-110"/>
      <use x="489.945312" xlink:href="#DejaVuSans-32"/>
      <use x="521.732422" xlink:href="#DejaVuSans-99"/>
      <use x="576.712891" xlink:href="#DejaVuSans-117"/>
      <use x="640.091797" xlink:href="#DejaVuSans-109"/>
      <use x="737.503906" xlink:href="#DejaVuSans-115"/>
      <use x="789.603516" xlink:href="#DejaVuSans-117"/>
      <use x="852.982422" xlink:href="#DejaVuSans-109"/>
     </g>
    </g>
   </g>
   <g id="line2d_17">
    <path clip-path="url(#p74ec04f03a)" d="M 100.516364 212.778384 
L 104.284908 222.392639 
L 108.053453 224.924916 
L 111.821998 230.851167 
L 115.590543 230.910303 
L 126.896177 222.007965 
L 130.664722 223.399621 
L 134.433267 220.525397 
L 138.201811 221.865636 
L 141.970356 221.751944 
L 153.27599 225.103418 
L 157.044535 222.771339 
L 160.81308 221.069065 
L 164.581625 229.08731 
L 168.350169 215.317691 
L 179.655804 205.308524 
L 183.424348 206.20274 
L 187.192893 191.847763 
L 190.961438 190.295527 
L 194.729983 183.66076 
L 206.035617 188.368167 
L 209.804162 187.265772 
L 213.572707 184.794083 
L 217.341251 194.850098 
L 221.109796 199.074794 
L 232.41543 210.877299 
L 236.183975 216.237591 
L 239.95252 225.834236 
L 243.721065 234.154838 
L 247.489609 230.726959 
L 258.795244 232.872986 
L 262.563788 234.655669 
L 266.332333 241.56085 
L 270.100878 236.897138 
L 273.869423 236.964521 
L 285.175057 225.653808 
L 288.943602 226.571107 
L 292.712147 225.367827 
L 296.480691 225.755146 
L 300.249236 222.103039 
L 311.55487 223.992185 
L 315.323415 218.488955 
L 319.09196 224.330604 
L 322.860505 220.822068 
L 326.629049 215.36619 
L 337.934684 223.218409 
L 341.703228 235.653985 
L 345.471773 229.069023 
L 349.240318 225.988401 
L 353.008863 232.169605 
L 364.314497 228.29032 
L 368.083042 226.693843 
L 371.851587 228.213074 
L 375.620131 215.525615 
L 379.388676 221.267455 
L 390.69431 221.450268 
L 394.462855 217.027147 
L 398.2314 229.545914 
L 401.999945 228.002095 
L 405.768489 238.073395 
L 417.074124 249.743683 
L 420.842669 253.333712 
L 424.611213 246.764905 
L 428.379758 238.102727 
L 432.148303 232.812381 
L 443.453937 220.355779 
L 447.222482 216.691418 
L 450.991027 210.174719 
L 454.759571 209.31829 
L 458.528116 204.746732 
L 469.83375 201.95567 
L 473.602295 187.079191 
L 477.37084 173.301203 
L 481.139385 167.679808 
L 484.907929 171.473209 
L 496.213564 174.187418 
L 499.982109 180.865383 
L 503.750653 196.784846 
L 507.519198 198.272091 
L 511.287743 193.168365 
L 522.593377 188.199418 
L 526.361922 191.038585 
L 530.130467 188.545195 
L 533.899011 187.532724 
L 537.667556 187.968875 
L 548.97319 182.404062 
L 552.741735 186.052628 
L 556.51028 183.128419 
L 560.278825 181.91452 
L 564.04737 177.588436 
L 575.353004 187.245749 
L 579.121549 186.489223 
L 582.890093 185.251963 
L 586.658638 194.44481 
L 590.427183 185.913254 
L 601.732817 183.183255 
L 605.501362 191.233317 
L 609.269907 188.524953 
L 613.038451 185.339006 
L 616.806996 184.59581 
L 628.11263 170.456001 
L 631.881175 163.557658 
L 635.64972 161.642189 
L 639.418265 173.167763 
L 643.18681 176.927685 
L 654.492444 194.618499 
L 658.260989 195.457108 
L 662.029533 209.900124 
L 665.798078 213.162816 
L 669.566623 216.992496 
L 680.872257 201.820611 
L 684.640802 204.448391 
L 688.409347 196.662463 
L 692.177891 181.567949 
L 695.946436 186.417423 
L 707.252071 182.641319 
L 711.020615 182.434572 
L 714.78916 196.311157 
L 718.557705 187.338111 
L 722.32625 196.367712 
L 733.631884 182.535055 
L 737.400429 190.04139 
L 741.168973 188.566328 
L 744.937518 176.665333 
L 748.706063 195.115006 
L 760.011697 199.800826 
L 763.780242 197.478152 
L 767.548787 198.072862 
L 771.317331 196.000255 
L 775.085876 183.857882 
L 786.391511 194.682898 
L 790.160055 189.480831 
L 793.9286 190.886434 
L 797.697145 194.786207 
L 801.46569 184.141091 
L 812.771324 184.424487 
L 816.539869 186.302331 
L 820.308413 177.838765 
L 824.076958 175.576803 
L 827.845503 162.08324 
L 839.151137 167.720928 
L 842.919682 160.052879 
L 846.688227 159.423435 
L 850.456772 157.853761 
L 854.225316 164.536391 
L 865.530951 167.043911 
L 869.299495 158.179147 
L 873.06804 166.017294 
L 876.836585 164.575941 
L 880.60513 179.021355 
L 891.910764 189.784726 
L 895.679309 190.026122 
L 899.447853 173.27772 
L 903.216398 181.286925 
L 906.984943 169.32021 
L 918.290577 159.066223 
L 922.059122 161.062959 
L 925.827667 158.836724 
L 929.596212 165.002252 
L 933.364756 159.684856 
L 944.670391 144.130894 
L 948.438935 139.168818 
L 952.20748 135.288617 
L 955.976025 148.895555 
L 959.74457 147.229248 
L 971.050204 139.320688 
L 974.818749 124.308708 
L 978.587293 129.588207 
L 982.355838 122.84463 
L 986.124383 120.742182 
L 997.430017 121.108755 
L 1001.198562 111.821164 
L 1004.967107 118.740272 
L 1008.735652 112.285713 
L 1012.504196 112.4464 
L 1023.809831 126.882343 
L 1027.578375 128.481612 
L 1031.34692 115.526642 
L 1035.115465 108.394477 
L 1038.88401 92.554606 
L 1050.189644 84.98827 
L 1053.958189 69.516808 
L 1057.726733 66.541201 
L 1061.495278 65.988549 
L 1065.263823 64.882935 
L 1076.569457 54.509259 
L 1080.338002 63.730578 
L 1084.106547 56.327179 
L 1087.875092 40.455455 
L 1091.643636 40.455455 
L 1091.643636 40.455455 
" style="fill:none;stroke:#9467bd;stroke-linecap:square;stroke-width:1.5;"/>
   </g>
   <g id="line2d_18">
    <path clip-path="url(#p74ec04f03a)" d="M 100.516364 222.527772 
L 104.284908 228.498095 
L 108.053453 222.334585 
L 111.821998 237.302898 
L 115.590543 230.36682 
L 126.896177 241.019349 
L 130.664722 241.181928 
L 134.433267 231.369357 
L 138.201811 215.957489 
L 141.970356 213.774447 
L 153.27599 216.494189 
L 157.044535 218.523419 
L 160.81308 211.071346 
L 164.581625 213.052257 
L 168.350169 210.837312 
L 179.655804 217.893488 
L 183.424348 230.119657 
L 187.192893 221.136457 
L 190.961438 224.407018 
L 194.729983 216.047352 
L 206.035617 216.871306 
L 209.804162 221.287904 
L 213.572707 223.744413 
L 217.341251 229.164464 
L 221.109796 239.649827 
L 232.41543 239.33566 
L 236.183975 237.729449 
L 239.95252 248.007098 
L 243.721065 248.309185 
L 247.489609 255.43191 
L 258.795244 257.162732 
L 262.563788 263.63657 
L 266.332333 260.983429 
L 270.100878 261.142844 
L 273.869423 267.267245 
L 285.175057 260.935908 
L 288.943602 263.614805 
L 292.712147 246.994553 
L 296.480691 249.589558 
L 300.249236 259.374314 
L 311.55487 258.682652 
L 315.323415 272.528899 
L 319.09196 269.741163 
L 322.860505 282.020771 
L 326.629049 268.868 
L 337.934684 261.956134 
L 341.703228 256.598806 
L 345.471773 257.097728 
L 349.240318 250.327893 
L 353.008863 258.310549 
L 364.314497 250.742197 
L 368.083042 259.282217 
L 371.851587 250.331723 
L 375.620131 239.152851 
L 379.388676 243.239045 
L 390.69431 236.711338 
L 394.462855 227.873045 
L 398.2314 223.88458 
L 401.999945 227.873931 
L 405.768489 214.800158 
L 417.074124 224.024729 
L 420.842669 235.646372 
L 424.611213 245.742439 
L 428.379758 245.017058 
L 432.148303 240.817505 
L 443.453937 226.24906 
L 447.222482 246.925445 
L 450.991027 260.751052 
L 454.759571 264.522233 
L 458.528116 249.786105 
L 469.83375 249.080519 
L 473.602295 247.276539 
L 477.37084 253.089018 
L 481.139385 263.686573 
L 484.907929 256.73472 
L 496.213564 249.588111 
L 499.982109 237.33102 
L 503.750653 236.530436 
L 507.519198 220.930075 
L 511.287743 207.076655 
L 522.593377 208.904857 
L 526.361922 213.799026 
L 530.130467 210.623678 
L 533.899011 198.873129 
L 537.667556 190.425939 
L 548.97319 191.444053 
L 552.741735 192.087232 
L 556.51028 204.483537 
L 560.278825 198.518878 
L 564.04737 202.107282 
L 575.353004 210.836044 
L 579.121549 216.110458 
L 582.890093 228.16333 
L 586.658638 221.00735 
L 590.427183 218.386692 
L 601.732817 225.736392 
L 605.501362 213.70258 
L 609.269907 214.293671 
L 613.038451 216.891426 
L 616.806996 215.106204 
L 628.11263 217.731856 
L 631.881175 204.414041 
L 635.64972 201.227339 
L 639.418265 217.921832 
L 643.18681 213.097232 
L 654.492444 205.243242 
L 658.260989 216.739278 
L 662.029533 214.934952 
L 665.798078 206.603166 
L 669.566623 213.942361 
L 680.872257 213.071325 
L 684.640802 217.284928 
L 688.409347 203.891891 
L 692.177891 213.166215 
L 695.946436 203.096663 
L 707.252071 196.308755 
L 711.020615 186.435782 
L 714.78916 177.818389 
L 718.557705 174.491392 
L 722.32625 164.556686 
L 733.631884 169.138472 
L 737.400429 167.190367 
L 741.168973 160.797122 
L 744.937518 164.863568 
L 748.706063 161.479524 
L 760.011697 145.419657 
L 763.780242 142.894922 
L 767.548787 130.662262 
L 771.317331 133.182584 
L 775.085876 142.46568 
L 786.391511 141.059955 
L 790.160055 151.797532 
L 793.9286 139.112516 
L 797.697145 139.4562 
L 801.46569 127.629071 
L 812.771324 136.226617 
L 816.539869 143.046405 
L 820.308413 150.493169 
L 824.076958 134.081195 
L 827.845503 131.102376 
L 839.151137 144.131856 
L 842.919682 156.764392 
L 846.688227 151.606025 
L 850.456772 145.672988 
L 854.225316 140.451636 
L 865.530951 139.425852 
L 869.299495 152.969231 
L 873.06804 153.902968 
L 876.836585 159.60885 
L 880.60513 154.394404 
L 891.910764 146.600172 
L 895.679309 147.897082 
L 899.447853 155.83828 
L 903.216398 158.041829 
L 906.984943 153.470553 
L 918.290577 140.632558 
L 922.059122 134.707334 
L 925.827667 144.628204 
L 929.596212 151.666071 
L 933.364756 136.532581 
L 944.670391 127.762514 
L 948.438935 112.470771 
L 952.20748 119.241753 
L 955.976025 132.426538 
L 959.74457 133.679114 
L 971.050204 138.172631 
L 974.818749 141.352613 
L 978.587293 156.41682 
L 982.355838 158.062122 
L 986.124383 149.924156 
L 997.430017 155.203748 
L 1001.198562 149.692087 
L 1004.967107 164.176754 
L 1008.735652 176.028701 
L 1012.504196 162.647149 
L 1023.809831 169.426408 
L 1027.578375 160.312537 
L 1031.34692 145.861631 
L 1035.115465 163.564356 
L 1038.88401 163.737148 
L 1050.189644 166.084458 
L 1053.958189 184.539641 
L 1057.726733 191.962139 
L 1061.495278 189.143268 
L 1065.263823 185.162121 
L 1076.569457 188.350916 
L 1080.338002 175.974807 
L 1084.106547 173.40728 
L 1087.875092 186.631061 
L 1091.643636 186.631061 
L 1091.643636 186.631061 
" style="fill:none;stroke:#1f77b4;stroke-linecap:square;stroke-width:1.5;"/>
   </g>
   <g id="line2d_19">
    <path clip-path="url(#p74ec04f03a)" d="M 100.516364 215.484803 
L 104.284908 218.54856 
L 108.053453 217.554913 
L 111.821998 226.577373 
L 115.590543 225.45186 
L 126.896177 220.966595 
L 130.664722 218.069916 
L 134.433267 217.869815 
L 138.201811 215.280032 
L 141.970356 207.786202 
L 153.27599 214.052315 
L 157.044535 217.03387 
L 160.81308 212.6362 
L 164.581625 219.820837 
L 168.350169 213.442642 
L 179.655804 214.065307 
L 183.424348 220.419082 
L 187.192893 214.451219 
L 190.961438 216.94748 
L 194.729983 215.865641 
L 206.035617 215.45246 
L 209.804162 210.300435 
L 213.572707 207.712734 
L 217.341251 214.438521 
L 221.109796 216.803207 
L 232.41543 221.502576 
L 236.183975 222.094424 
L 239.95252 225.931894 
L 243.721065 224.806976 
L 247.489609 220.786899 
L 258.795244 221.706058 
L 262.563788 217.623804 
L 266.332333 214.754743 
L 270.100878 214.999712 
L 273.869423 213.229744 
L 285.175057 211.874019 
L 288.943602 213.54463 
L 292.712147 205.673812 
L 300.249236 215.971675 
L 311.55487 215.292291 
L 315.323415 217.564353 
L 319.09196 222.333204 
L 322.860505 226.450718 
L 326.629049 220.820596 
L 337.934684 218.73829 
L 341.703228 219.112644 
L 345.471773 212.95546 
L 349.240318 212.749083 
L 353.008863 213.962578 
L 364.314497 213.580126 
L 368.083042 218.290582 
L 371.851587 218.628034 
L 375.620131 214.851702 
L 379.388676 216.660423 
L 390.69431 219.789875 
L 394.462855 215.490003 
L 398.2314 210.643982 
L 401.999945 206.355249 
L 405.768489 201.799808 
L 417.074124 207.244574 
L 420.842669 215.184094 
L 424.611213 214.684349 
L 428.379758 206.235537 
L 432.148303 205.158451 
L 443.453937 194.531636 
L 447.222482 199.684074 
L 450.991027 201.267318 
L 454.759571 202.551779 
L 458.528116 193.8015 
L 469.83375 193.401653 
L 473.602295 192.791597 
L 477.37084 193.017708 
L 481.139385 190.625199 
L 484.907929 189.708693 
L 496.213564 187.622592 
L 499.982109 185.654351 
L 503.750653 190.233199 
L 507.519198 185.776454 
L 511.287743 183.107276 
L 522.593377 182.480905 
L 526.361922 187.87903 
L 530.130467 189.242402 
L 533.899011 185.666528 
L 537.667556 189.440219 
L 548.97319 184.022668 
L 552.741735 182.75691 
L 556.51028 189.293606 
L 560.278825 182.263589 
L 564.04737 179.771848 
L 575.353004 184.917462 
L 579.121549 182.766079 
L 582.890093 190.730565 
L 586.658638 191.625833 
L 590.427183 187.117927 
L 601.732817 190.381122 
L 605.501362 190.399028 
L 609.269907 189.815051 
L 613.038451 191.08153 
L 616.806996 189.125107 
L 628.11263 186.089218 
L 631.881175 182.699737 
L 635.64972 181.749906 
L 639.418265 188.307045 
L 643.18681 187.963738 
L 654.492444 191.075612 
L 658.260989 193.11159 
L 662.029533 199.26694 
L 669.566623 196.271747 
L 680.872257 191.182462 
L 684.640802 191.68039 
L 688.409347 187.335408 
L 692.177891 182.544298 
L 695.946436 179.524437 
L 707.252071 176.495388 
L 711.020615 179.580944 
L 714.78916 181.544591 
L 718.557705 180.202471 
L 722.32625 179.50877 
L 733.631884 180.652267 
L 737.400429 180.663076 
L 741.168973 179.112199 
L 744.937518 176.901651 
L 748.706063 176.244468 
L 760.011697 177.746088 
L 763.780242 176.659923 
L 767.548787 176.89131 
L 771.317331 176.552046 
L 775.085876 175.918162 
L 786.391511 175.156977 
L 790.160055 172.298504 
L 793.9286 167.729597 
L 797.697145 170.121708 
L 801.46569 170.732458 
L 812.771324 167.130751 
L 816.539869 168.788789 
L 820.308413 169.734562 
L 824.076958 164.943435 
L 827.845503 161.005055 
L 839.151137 167.726364 
L 842.919682 171.052639 
L 846.688227 172.342486 
L 850.456772 167.918241 
L 854.225316 170.19005 
L 865.530951 172.461052 
L 869.299495 172.052357 
L 873.06804 173.934565 
L 876.836585 172.1967 
L 880.60513 177.823779 
L 891.910764 174.956494 
L 895.679309 176.08972 
L 899.447853 174.826478 
L 903.216398 171.689023 
L 906.984943 171.099841 
L 918.290577 161.736478 
L 922.059122 155.617907 
L 925.827667 158.868581 
L 929.596212 161.026647 
L 933.364756 154.972768 
L 944.670391 152.452234 
L 948.438935 146.554478 
L 955.976025 154.286463 
L 959.74457 153.014781 
L 971.050204 151.334565 
L 974.818749 151.589158 
L 978.587293 157.574428 
L 982.355838 158.173885 
L 986.124383 157.2182 
L 997.430017 155.025977 
L 1001.198562 147.814962 
L 1004.967107 153.872384 
L 1008.735652 155.634108 
L 1012.504196 148.88626 
L 1023.809831 152.04605 
L 1027.578375 150.069532 
L 1031.34692 146.94642 
L 1035.115465 150.317187 
L 1038.88401 145.524077 
L 1050.189644 141.103455 
L 1053.958189 142.131976 
L 1057.726733 143.893394 
L 1061.495278 142.754336 
L 1065.263823 145.098364 
L 1076.569457 144.384391 
L 1080.338002 138.830765 
L 1084.106547 133.904939 
L 1087.875092 133.586911 
L 1087.875092 133.586911 
" style="fill:none;stroke:#8c564b;stroke-linecap:square;stroke-width:1.5;"/>
   </g>
   <g id="line2d_20">
    <path clip-path="url(#p74ec04f03a)" d="M 100.516364 216.252567 
L 104.284908 222.702701 
L 108.053453 226.246195 
L 111.821998 223.284468 
L 115.590543 224.475767 
L 126.896177 219.960456 
L 130.664722 224.311507 
L 134.433267 221.634747 
L 138.201811 225.616068 
L 141.970356 233.280989 
L 153.27599 230.454901 
L 157.044535 225.218246 
L 160.81308 227.973473 
L 164.581625 228.777847 
L 168.350169 221.153346 
L 179.655804 210.553445 
L 183.424348 205.261015 
L 187.192893 196.627308 
L 190.961438 192.628125 
L 194.729983 187.045738 
L 206.035617 192.176963 
L 209.804162 196.332471 
L 213.572707 196.449982 
L 217.341251 199.670097 
L 221.109796 201.508324 
L 232.41543 208.445003 
L 236.183975 213.199305 
L 239.95252 218.848391 
L 243.721065 228.34801 
L 247.489609 228.95215 
L 258.795244 230.173422 
L 262.563788 236.16009 
L 266.332333 246.077885 
L 270.100878 241.175091 
L 273.869423 243.028714 
L 285.175057 233.008217 
L 288.943602 232.261109 
L 292.712147 239.198639 
L 296.480691 234.545903 
L 300.249236 225.971676 
L 311.55487 228.54893 
L 315.323415 220.859107 
L 319.09196 221.906768 
L 322.860505 214.432026 
L 326.629049 214.611206 
L 337.934684 224.651452 
L 341.703228 236.689624 
L 345.471773 236.248598 
L 349.240318 233.371431 
L 353.008863 238.30897 
L 364.314497 234.805555 
L 368.083042 228.642029 
L 371.851587 229.821827 
L 375.620131 220.745994 
L 379.388676 224.643652 
L 390.69431 221.742062 
L 394.462855 221.616158 
L 398.2314 239.42248 
L 401.999945 242.226807 
L 405.768489 257.200433 
L 417.074124 263.257602 
L 420.842669 259.074295 
L 424.611213 252.9904 
L 428.379758 252.76791 
L 432.148303 248.532322 
L 443.453937 246.603998 
L 447.222482 238.004938 
L 450.991027 229.967093 
L 454.759571 227.839725 
L 458.528116 232.205774 
L 469.83375 229.809841 
L 477.37084 201.512755 
L 481.139385 198.245644 
L 484.907929 202.977259 
L 496.213564 207.828088 
L 499.982109 216.560958 
L 503.750653 227.639855 
L 507.519198 233.718692 
L 511.287743 231.251905 
L 522.593377 226.895964 
L 526.361922 224.40418 
L 530.130467 220.573159 
L 533.899011 223.182718 
L 537.667556 219.906553 
L 548.97319 219.755282 
L 552.741735 224.700931 
L 556.51028 215.535022 
L 560.278825 221.560579 
L 564.04737 219.703535 
L 579.121549 225.510192 
L 582.890093 216.657071 
L 586.658638 224.917132 
L 590.427183 220.803447 
L 601.732817 214.905058 
L 605.501362 222.936486 
L 609.269907 220.805972 
L 613.038451 216.381116 
L 616.806996 217.606206 
L 628.11263 206.33848 
L 631.881175 202.770667 
L 635.64972 201.800481 
L 639.418265 206.608054 
L 643.18681 210.718346 
L 654.492444 225.06591 
L 658.260989 223.880533 
L 662.029533 231.914027 
L 665.798078 236.700827 
L 669.566623 242.077769 
L 680.872257 231.743973 
L 684.640802 233.868545 
L 688.409347 230.353306 
L 692.177891 219.80855 
L 695.946436 227.798996 
L 707.252071 227.040657 
L 711.020615 223.797945 
L 714.78916 235.592004 
L 718.557705 227.91108 
L 722.32625 237.668711 
L 733.631884 222.774185 
L 737.400429 230.269303 
L 741.168973 230.345702 
L 744.937518 220.551001 
L 748.706063 239.723286 
L 760.011697 242.883677 
L 763.780242 241.640511 
L 767.548787 242.003417 
L 771.317331 240.267168 
L 775.085876 228.723465 
L 786.391511 240.354769 
L 790.160055 237.977916 
L 793.9286 244.091426 
L 797.697145 245.581244 
L 801.46569 234.358486 
L 812.771324 238.314292 
L 816.539869 238.532296 
L 820.308413 229.165976 
L 824.076958 231.75634 
L 827.845503 222.017195 
L 839.151137 220.969002 
L 842.919682 210.149795 
L 846.688227 208.242683 
L 850.456772 211.161032 
L 854.225316 215.521905 
L 865.530951 215.755772 
L 869.299495 207.282905 
L 873.06804 213.182695 
L 876.836585 213.481775 
L 880.60513 222.052219 
L 891.910764 235.884911 
L 895.679309 234.998068 
L 899.447853 219.419267 
L 903.216398 230.745701 
L 906.984943 219.335804 
L 918.290577 218.40295 
L 922.059122 226.773512 
L 925.827667 221.383021 
L 929.596212 225.347403 
L 933.364756 226.106374 
L 944.670391 212.914269 
L 948.438935 213.877783 
L 952.20748 206.32243 
L 955.976025 215.823369 
L 959.74457 215.426248 
L 971.050204 209.146598 
L 974.818749 193.898576 
L 978.587293 193.21341 
L 982.355838 185.89178 
L 986.124383 184.739586 
L 997.430017 187.326528 
L 1001.198562 185.174757 
L 1004.967107 186.010893 
L 1008.735652 177.864651 
L 1012.504196 185.012478 
L 1027.578375 199.719735 
L 1031.34692 189.738165 
L 1035.115465 179.404944 
L 1038.88401 168.099791 
L 1050.189644 164.884913 
L 1053.958189 148.465542 
L 1057.726733 143.769236 
L 1061.495278 144.358968 
L 1065.263823 140.948856 
L 1076.569457 131.255703 
L 1080.338002 146.459136 
L 1084.106547 143.920684 
L 1087.875092 128.343364 
L 1087.875092 128.343364 
" style="fill:none;stroke:#e377c2;stroke-linecap:square;stroke-width:1.5;"/>
   </g>
   <g id="line2d_21">
    <path clip-path="url(#p74ec04f03a)" d="M 100.516364 212.083215 
L 104.284908 209.260848 
L 108.053453 214.593299 
L 111.821998 209.067019 
L 115.590543 215.083974 
L 126.896177 200.697941 
L 130.664722 197.64113 
L 134.433267 207.745097 
L 138.201811 221.621334 
L 141.970356 216.253505 
L 153.27599 219.751954 
L 157.044535 220.694723 
L 160.81308 223.865015 
L 164.581625 229.01722 
L 168.350169 224.808468 
L 179.655804 218.592798 
L 183.424348 213.061158 
L 187.192893 216.214931 
L 190.961438 215.453064 
L 194.729983 223.044793 
L 206.035617 221.812686 
L 209.804162 212.446608 
L 213.572707 207.462721 
L 217.341251 208.733721 
L 221.109796 201.016715 
L 232.41543 206.038166 
L 236.183975 208.253899 
L 239.95252 202.128906 
L 243.721065 200.70403 
L 247.489609 189.937784 
L 258.795244 189.133044 
L 262.563788 178.902129 
L 266.332333 178.68335 
L 270.100878 178.768837 
L 273.869423 171.106182 
L 285.175057 176.242523 
L 288.943602 175.24751 
L 292.712147 184.766595 
L 296.480691 187.297806 
L 300.249236 182.869356 
L 311.55487 182.881676 
L 315.323415 172.055271 
L 319.09196 179.719068 
L 322.860505 172.030075 
L 326.629049 180.069953 
L 337.934684 185.070018 
L 341.703228 190.958282 
L 345.471773 184.318355 
L 349.240318 191.109704 
L 353.008863 184.599065 
L 364.314497 192.064923 
L 368.083042 188.392711 
L 371.851587 198.112492 
L 375.620131 205.945265 
L 379.388676 203.713223 
L 390.69431 213.696085 
L 394.462855 218.440244 
L 398.2314 217.565596 
L 401.999945 209.446442 
L 405.768489 218.548375 
L 417.074124 214.936068 
L 420.842669 211.458377 
L 424.611213 201.367246 
L 428.379758 193.616511 
L 432.148303 196.805206 
L 443.453937 201.04525 
L 447.222482 186.982606 
L 450.991027 175.528837 
L 454.759571 173.08791 
L 458.528116 179.534869 
L 469.83375 179.841681 
L 473.602295 181.046365 
L 477.37084 175.616596 
L 481.139385 163.271609 
L 484.907929 169.521951 
L 496.213564 174.767406 
L 499.982109 185.718827 
L 503.750653 191.119945 
L 511.287743 215.190861 
L 522.593377 212.758306 
L 526.361922 213.250164 
L 530.130467 217.861746 
L 533.899011 226.537595 
L 537.667556 239.298139 
L 548.97319 232.894374 
L 552.741735 230.991487 
L 556.51028 225.47649 
L 560.278825 224.379238 
L 564.04737 218.404754 
L 575.353004 214.972105 
L 579.121549 207.734611 
L 582.890093 203.881167 
L 586.658638 212.229342 
L 590.427183 210.317526 
L 601.732817 206.375855 
L 605.501362 219.192664 
L 609.269907 218.021024 
L 613.038451 216.706733 
L 616.806996 216.53401 
L 628.11263 210.9447 
L 631.881175 221.568996 
L 635.64972 223.841696 
L 639.418265 214.491381 
L 643.18681 219.082422 
L 654.492444 230.496344 
L 658.260989 221.549031 
L 662.029533 229.581688 
L 665.798078 236.718807 
L 669.566623 228.182456 
L 680.872257 223.946138 
L 684.640802 220.306605 
L 688.409347 229.991124 
L 692.177891 216.537281 
L 695.946436 223.954637 
L 707.252071 227.843418 
L 711.020615 241.474621 
L 714.78916 252.530497 
L 718.557705 254.548558 
L 722.32625 264.267634 
L 733.631884 260.905942 
L 737.400429 262.883964 
L 741.168973 267.884257 
L 744.937518 261.730676 
L 748.706063 264.504 
L 760.011697 283.592261 
L 763.780242 285.04902 
L 767.548787 298.318723 
L 771.317331 295.494405 
L 775.085876 286.01326 
L 786.391511 286.662316 
L 790.160055 273.749169 
L 793.9286 282.403662 
L 797.697145 284.448582 
L 801.46569 297.662877 
L 812.771324 285.958299 
L 816.539869 280.966082 
L 820.308413 274.697149 
L 824.076958 287.334787 
L 827.845503 286.360981 
L 839.151137 280.44176 
L 842.919682 271.688494 
L 846.688227 278.306545 
L 850.456772 279.86056 
L 854.225316 287.55406 
L 865.530951 290.867798 
L 869.299495 277.79322 
L 873.06804 278.7373 
L 876.836585 271.497532 
L 880.60513 282.631028 
L 891.910764 287.754616 
L 895.679309 287.59198 
L 899.447853 278.735265 
L 903.216398 273.45155 
L 906.984943 277.525868 
L 918.290577 281.231 
L 922.059122 281.031892 
L 925.827667 274.676905 
L 929.596212 269.962527 
L 933.364756 279.767193 
L 944.670391 286.299052 
L 948.438935 296.452005 
L 952.20748 293.594669 
L 955.976025 284.899277 
L 959.74457 282.390553 
L 971.050204 276.350846 
L 974.818749 273.4709 
L 978.587293 265.03197 
L 982.355838 263.994601 
L 986.124383 271.478199 
L 997.430017 264.196017 
L 1001.198562 262.44978 
L 1004.967107 254.595382 
L 1008.735652 245.067694 
L 1012.504196 252.164618 
L 1023.809831 248.663769 
L 1027.578375 256.137273 
L 1031.34692 268.332539 
L 1035.115465 255.166614 
L 1038.88401 250.204912 
L 1050.189644 243.514015 
L 1053.958189 227.552674 
L 1057.726733 222.093427 
L 1061.495278 223.796986 
L 1065.263823 230.25031 
L 1076.569457 226.408189 
L 1080.338002 233.67035 
L 1084.106547 231.282013 
L 1087.875092 218.573196 
L 1087.875092 218.573196 
" style="fill:none;stroke:#7f7f7f;stroke-linecap:square;stroke-width:1.5;"/>
   </g>
   <g id="line2d_22">
    <path clip-path="url(#p74ec04f03a)" d="M 100.516364 209.421768 
L 104.284908 212.958462 
L 108.053453 221.930217 
L 111.821998 213.521701 
L 115.590543 220.766145 
L 126.896177 202.172469 
L 130.664722 203.400553 
L 134.433267 210.691183 
L 138.201811 228.835358 
L 141.970356 230.927348 
L 153.27599 231.550605 
L 157.044535 227.232498 
L 164.581625 239.179415 
L 168.350169 227.500757 
L 179.655804 210.998848 
L 183.424348 200.316164 
L 187.192893 194.703063 
L 190.961438 189.956945 
L 194.729983 191.755176 
L 206.035617 195.622641 
L 209.804162 190.221619 
L 213.572707 185.352374 
L 217.341251 189.864013 
L 221.109796 183.915916 
L 232.41543 196.05206 
L 236.183975 203.075251 
L 239.95252 202.428031 
L 243.721065 210.434302 
L 247.489609 200.240744 
L 258.795244 200.652396 
L 262.563788 196.107788 
L 266.332333 205.795784 
L 270.100878 200.976422 
L 273.869423 195.097973 
L 288.943602 188.223341 
L 292.712147 205.021403 
L 296.480691 202.841792 
L 300.249236 190.021529 
L 311.55487 192.611261 
L 315.323415 174.489799 
L 319.09196 183.241947 
L 322.860505 168.352911 
L 326.629049 176.579261 
L 337.934684 191.878168 
L 341.703228 210.172479 
L 345.471773 203.105796 
L 349.240318 206.922158 
L 353.008863 205.190322 
L 364.314497 209.021817 
L 368.083042 199.295647 
L 371.851587 210.253661 
L 375.620131 208.659426 
L 379.388676 210.281728 
L 390.69431 217.216857 
L 394.462855 221.832115 
L 398.2314 238.683239 
L 401.999945 233.257007 
L 405.768489 258.051466 
L 417.074124 260.387194 
L 420.842669 252.796993 
L 424.611213 236.91469 
L 428.379758 228.94985 
L 432.148303 227.836167 
L 443.453937 230.107112 
L 447.222482 208.013243 
L 450.991027 188.957171 
L 454.759571 184.414337 
L 458.528116 195.370776 
L 469.83375 193.278029 
L 473.602295 180.091823 
L 477.37084 161.032466 
L 481.139385 145.612897 
L 484.907929 156.74562 
L 496.213564 166.971324 
L 499.982109 187.154294 
L 503.750653 203.943695 
L 507.519198 222.470678 
L 511.287743 231.857267 
L 522.593377 225.120446 
L 526.361922 223.114472 
L 530.130467 223.807272 
L 533.899011 235.208176 
L 537.667556 244.480392 
L 548.97319 237.930083 
L 552.741735 240.925828 
L 556.51028 226.486801 
L 560.278825 231.38192 
L 564.04737 223.604359 
L 575.353004 224.49349 
L 579.121549 218.615995 
L 582.890093 206.073434 
L 586.658638 223.038349 
L 590.427183 217.051274 
L 601.732817 207.32376 
L 605.501362 228.710363 
L 609.269907 225.420486 
L 613.038451 219.709771 
L 616.806996 220.761087 
L 628.11263 204.203836 
L 631.881175 211.069103 
L 635.64972 212.360648 
L 639.418265 207.59759 
L 654.492444 243.023831 
L 658.260989 232.94244 
L 662.029533 249.341904 
L 665.798078 261.440406 
L 669.566623 258.055271 
L 680.872257 243.694672 
L 684.640802 242.141514 
L 688.409347 248.139433 
L 692.177891 224.804975 
L 695.946436 240.518385 
L 707.252071 243.634091 
L 711.020615 253.797755 
L 714.78916 277.333319 
L 718.557705 271.594673 
L 722.32625 291.565612 
L 733.631884 273.546892 
L 737.400429 283.095314 
L 741.168973 288.173926 
L 744.937518 272.513177 
L 748.706063 294.737491 
L 760.011697 317.302623 
L 763.780242 317.50723 
L 767.548787 331.164545 
L 771.317331 326.628024 
L 775.085876 306.119111 
L 786.391511 318.438073 
L 790.160055 303.294688 
L 793.9286 318.335055 
L 797.697145 321.885035 
L 801.46569 323.138667 
L 812.771324 315.164757 
L 816.539869 310.385212 
L 820.308413 295.030281 
L 824.076958 310.42696 
L 827.845503 299.759814 
L 839.151137 292.822644 
L 842.919682 273.698123 
L 850.456772 282.840853 
L 854.225316 295.066728 
L 865.530951 298.61821 
L 869.299495 277.592318 
L 873.06804 284.464284 
L 876.836585 277.513043 
L 880.60513 297.714546 
L 891.910764 317.0396 
L 895.679309 315.990834 
L 899.447853 292.200535 
L 903.216398 297.942191 
L 906.984943 290.380339 
L 918.290577 293.13536 
L 922.059122 301.29838 
L 925.827667 289.717975 
L 929.596212 288.875492 
L 933.364756 299.477015 
L 944.670391 292.396821 
L 948.438935 303.563164 
L 952.20748 293.254831 
L 955.976025 293.650241 
L 959.74457 290.749302 
L 971.050204 278.612455 
L 974.818749 260.692833 
L 978.587293 251.596771 
L 982.355838 243.274668 
L 986.124383 249.56264 
L 997.430017 244.775081 
L 1001.198562 240.895527 
L 1004.967107 233.845262 
L 1008.735652 216.5401 
L 1012.504196 231.045636 
L 1023.809831 238.444503 
L 1027.578375 249.66695 
L 1031.34692 251.274461 
L 1035.115465 228.412944 
L 1038.88401 212.413464 
L 1050.189644 202.611799 
L 1053.958189 171.434629 
L 1057.726733 161.403093 
L 1061.495278 163.701395 
L 1065.263823 166.634678 
L 1076.569457 153.278085 
L 1080.338002 176.323537 
L 1084.106547 171.426449 
L 1087.875092 144.057971 
L 1091.643636 144.057971 
L 1091.643636 144.057971 
" style="fill:none;stroke:#bcbd22;stroke-linecap:square;stroke-width:1.5;"/>
   </g>
   <g id="patch_3">
    <path d="M 50.96 345.7 
L 50.96 25.92 
" style="fill:none;stroke:#000000;stroke-linecap:square;stroke-linejoin:miter;stroke-width:0.8;"/>
   </g>
   <g id="patch_4">
    <path d="M 1141.2 345.7 
L 1141.2 25.92 
" style="fill:none;stroke:#000000;stroke-linecap:square;stroke-linejoin:miter;stroke-width:0.8;"/>
   </g>
   <g id="patch_5">
    <path d="M 50.96 345.7 
L 1141.2 345.7 
" style="fill:none;stroke:#000000;stroke-linecap:square;stroke-linejoin:miter;stroke-width:0.8;"/>
   </g>
   <g id="patch_6">
    <path d="M 50.96 25.92 
L 1141.2 25.92 
" style="fill:none;stroke:#000000;stroke-linecap:square;stroke-linejoin:miter;stroke-width:0.8;"/>
   </g>
   <g id="text_10">
    <!-- Cumulative Log Return: (2010-01-18 ~ 2010-10-08) -->
    <g transform="translate(440.202813 19.92)scale(0.12 -0.12)">
     <defs>
      <path d="M 64.40625 67.28125 
L 64.40625 56.890625 
Q 59.421875 61.53125 53.78125 63.8125 
Q 48.140625 66.109375 41.796875 66.109375 
Q 29.296875 66.109375 22.65625 58.46875 
Q 16.015625 50.828125 16.015625 36.375 
Q 16.015625 21.96875 22.65625 14.328125 
Q 29.296875 6.6875 41.796875 6.6875 
Q 48.140625 6.6875 53.78125 8.984375 
Q 59.421875 11.28125 64.40625 15.921875 
L 64.40625 5.609375 
Q 59.234375 2.09375 53.4375 0.328125 
Q 47.65625 -1.421875 41.21875 -1.421875 
Q 24.65625 -1.421875 15.125 8.703125 
Q 5.609375 18.84375 5.609375 36.375 
Q 5.609375 53.953125 15.125 64.078125 
Q 24.65625 74.21875 41.21875 74.21875 
Q 47.75 74.21875 53.53125 72.484375 
Q 59.328125 70.75 64.40625 67.28125 
z
" id="DejaVuSans-67"/>
      <path d="M 34.28125 27.484375 
Q 23.390625 27.484375 19.1875 25 
Q 14.984375 22.515625 14.984375 16.5 
Q 14.984375 11.71875 18.140625 8.90625 
Q 21.296875 6.109375 26.703125 6.109375 
Q 34.1875 6.109375 38.703125 11.40625 
Q 43.21875 16.703125 43.21875 25.484375 
L 43.21875 27.484375 
z
M 52.203125 31.203125 
L 52.203125 0 
L 43.21875 0 
L 43.21875 8.296875 
Q 40.140625 3.328125 35.546875 0.953125 
Q 30.953125 -1.421875 24.3125 -1.421875 
Q 15.921875 -1.421875 10.953125 3.296875 
Q 6 8.015625 6 15.921875 
Q 6 25.140625 12.171875 29.828125 
Q 18.359375 34.515625 30.609375 34.515625 
L 43.21875 34.515625 
L 43.21875 35.40625 
Q 43.21875 41.609375 39.140625 45 
Q 35.0625 48.390625 27.6875 48.390625 
Q 23 48.390625 18.546875 47.265625 
Q 14.109375 46.140625 10.015625 43.890625 
L 10.015625 52.203125 
Q 14.9375 54.109375 19.578125 55.046875 
Q 24.21875 56 28.609375 56 
Q 40.484375 56 46.34375 49.84375 
Q 52.203125 43.703125 52.203125 31.203125 
z
" id="DejaVuSans-97"/>
      <path d="M 9.421875 54.6875 
L 18.40625 54.6875 
L 18.40625 0 
L 9.421875 0 
z
M 9.421875 75.984375 
L 18.40625 75.984375 
L 18.40625 64.59375 
L 9.421875 64.59375 
z
" id="DejaVuSans-105"/>
      <path d="M 2.984375 54.6875 
L 12.5 54.6875 
L 29.59375 8.796875 
L 46.6875 54.6875 
L 56.203125 54.6875 
L 35.6875 0 
L 23.484375 0 
z
" id="DejaVuSans-118"/>
      <path d="M 9.8125 72.90625 
L 19.671875 72.90625 
L 19.671875 8.296875 
L 55.171875 8.296875 
L 55.171875 0 
L 9.8125 0 
z
" id="DejaVuSans-76"/>
      <path d="M 44.390625 34.1875 
Q 47.5625 33.109375 50.5625 29.59375 
Q 53.5625 26.078125 56.59375 19.921875 
L 66.609375 0 
L 56 0 
L 46.6875 18.703125 
Q 43.0625 26.03125 39.671875 28.421875 
Q 36.28125 30.8125 30.421875 30.8125 
L 19.671875 30.8125 
L 19.671875 0 
L 9.8125 0 
L 9.8125 72.90625 
L 32.078125 72.90625 
Q 44.578125 72.90625 50.734375 67.671875 
Q 56.890625 62.453125 56.890625 51.90625 
Q 56.890625 45.015625 53.6875 40.46875 
Q 50.484375 35.9375 44.390625 34.1875 
z
M 19.671875 64.796875 
L 19.671875 38.921875 
L 32.078125 38.921875 
Q 39.203125 38.921875 42.84375 42.21875 
Q 46.484375 45.515625 46.484375 51.90625 
Q 46.484375 58.296875 42.84375 61.546875 
Q 39.203125 64.796875 32.078125 64.796875 
z
" id="DejaVuSans-82"/>
      <path d="M 11.71875 12.40625 
L 22.015625 12.40625 
L 22.015625 0 
L 11.71875 0 
z
M 11.71875 51.703125 
L 22.015625 51.703125 
L 22.015625 39.3125 
L 11.71875 39.3125 
z
" id="DejaVuSans-58"/>
      <path d="M 31 75.875 
Q 24.46875 64.65625 21.28125 53.65625 
Q 18.109375 42.671875 18.109375 31.390625 
Q 18.109375 20.125 21.3125 9.0625 
Q 24.515625 -2 31 -13.1875 
L 23.1875 -13.1875 
Q 15.875 -1.703125 12.234375 9.375 
Q 8.59375 20.453125 8.59375 31.390625 
Q 8.59375 42.28125 12.203125 53.3125 
Q 15.828125 64.359375 23.1875 75.875 
z
" id="DejaVuSans-40"/>
      <path d="M 12.40625 8.296875 
L 28.515625 8.296875 
L 28.515625 63.921875 
L 10.984375 60.40625 
L 10.984375 69.390625 
L 28.421875 72.90625 
L 38.28125 72.90625 
L 38.28125 8.296875 
L 54.390625 8.296875 
L 54.390625 0 
L 12.40625 0 
z
" id="DejaVuSans-49"/>
      <path d="M 73.1875 39.890625 
L 73.1875 31.203125 
Q 68.0625 27.34375 63.6875 25.6875 
Q 59.328125 24.03125 54.59375 24.03125 
Q 49.21875 24.03125 42.09375 26.90625 
Q 41.546875 27.09375 41.3125 27.203125 
Q 40.96875 27.34375 40.234375 27.59375 
Q 32.671875 30.609375 28.078125 30.609375 
Q 23.78125 30.609375 19.578125 28.734375 
Q 15.375 26.859375 10.59375 22.796875 
L 10.59375 31.5 
Q 15.71875 35.359375 20.09375 37.03125 
Q 24.46875 38.71875 29.203125 38.71875 
Q 34.578125 38.71875 41.75 35.796875 
Q 42.234375 35.59375 42.484375 35.5 
Q 42.875 35.359375 43.5625 35.109375 
Q 51.125 32.078125 55.71875 32.078125 
Q 59.90625 32.078125 64.03125 33.9375 
Q 68.171875 35.796875 73.1875 39.890625 
z
" id="DejaVuSans-126"/>
      <path d="M 8.015625 75.875 
L 15.828125 75.875 
Q 23.140625 64.359375 26.78125 53.3125 
Q 30.421875 42.28125 30.421875 31.390625 
Q 30.421875 20.453125 26.78125 9.375 
Q 23.140625 -1.703125 15.828125 -13.1875 
L 8.015625 -13.1875 
Q 14.5 -2 17.703125 9.0625 
Q 20.90625 20.125 20.90625 31.390625 
Q 20.90625 42.671875 17.703125 53.65625 
Q 14.5 64.65625 8.015625 75.875 
z
" id="DejaVuSans-41"/>
     </defs>
     <use xlink:href="#DejaVuSans-67"/>
     <use x="69.824219" xlink:href="#DejaVuSans-117"/>
     <use x="133.203125" xlink:href="#DejaVuSans-109"/>
     <use x="230.615234" xlink:href="#DejaVuSans-117"/>
     <use x="293.994141" xlink:href="#DejaVuSans-108"/>
     <use x="321.777344" xlink:href="#DejaVuSans-97"/>
     <use x="383.056641" xlink:href="#DejaVuSans-116"/>
     <use x="422.265625" xlink:href="#DejaVuSans-105"/>
     <use x="450.048828" xlink:href="#DejaVuSans-118"/>
     <use x="509.228516" xlink:href="#DejaVuSans-101"/>
     <use x="570.751953" xlink:href="#DejaVuSans-32"/>
     <use x="602.539062" xlink:href="#DejaVuSans-76"/>
     <use x="656.501953" xlink:href="#DejaVuSans-111"/>
     <use x="717.683594" xlink:href="#DejaVuSans-103"/>
     <use x="781.160156" xlink:href="#DejaVuSans-32"/>
     <use x="812.947266" xlink:href="#DejaVuSans-82"/>
     <use x="877.929688" xlink:href="#DejaVuSans-101"/>
     <use x="939.453125" xlink:href="#DejaVuSans-116"/>
     <use x="978.662109" xlink:href="#DejaVuSans-117"/>
     <use x="1042.041016" xlink:href="#DejaVuSans-114"/>
     <use x="1081.404297" xlink:href="#DejaVuSans-110"/>
     <use x="1144.783203" xlink:href="#DejaVuSans-58"/>
     <use x="1178.474609" xlink:href="#DejaVuSans-32"/>
     <use x="1210.261719" xlink:href="#DejaVuSans-40"/>
     <use x="1249.275391" xlink:href="#DejaVuSans-50"/>
     <use x="1312.898438" xlink:href="#DejaVuSans-48"/>
     <use x="1376.521484" xlink:href="#DejaVuSans-49"/>
     <use x="1440.144531" xlink:href="#DejaVuSans-48"/>
     <use x="1503.767578" xlink:href="#DejaVuSans-45"/>
     <use x="1539.851562" xlink:href="#DejaVuSans-48"/>
     <use x="1603.474609" xlink:href="#DejaVuSans-49"/>
     <use x="1667.097656" xlink:href="#DejaVuSans-45"/>
     <use x="1703.181641" xlink:href="#DejaVuSans-49"/>
     <use x="1766.804688" xlink:href="#DejaVuSans-56"/>
     <use x="1830.427734" xlink:href="#DejaVuSans-32"/>
     <use x="1862.214844" xlink:href="#DejaVuSans-126"/>
     <use x="1946.003906" xlink:href="#DejaVuSans-32"/>
     <use x="1977.791016" xlink:href="#DejaVuSans-50"/>
     <use x="2041.414062" xlink:href="#DejaVuSans-48"/>
     <use x="2105.037109" xlink:href="#DejaVuSans-49"/>
     <use x="2168.660156" xlink:href="#DejaVuSans-48"/>
     <use x="2232.283203" xlink:href="#DejaVuSans-45"/>
     <use x="2268.367188" xlink:href="#DejaVuSans-49"/>
     <use x="2331.990234" xlink:href="#DejaVuSans-48"/>
     <use x="2395.613281" xlink:href="#DejaVuSans-45"/>
     <use x="2431.697266" xlink:href="#DejaVuSans-48"/>
     <use x="2495.320312" xlink:href="#DejaVuSans-56"/>
     <use x="2558.943359" xlink:href="#DejaVuSans-41"/>
    </g>
   </g>
   <g id="legend_1">
    <g id="patch_7">
     <path d="M 57.96 123.379375 
L 154.449062 123.379375 
Q 156.449062 123.379375 156.449062 121.379375 
L 156.449062 32.92 
Q 156.449062 30.92 154.449062 30.92 
L 57.96 30.92 
Q 55.96 30.92 55.96 32.92 
L 55.96 121.379375 
Q 55.96 123.379375 57.96 123.379375 
z
" style="fill:#ffffff;opacity:0.8;stroke:#cccccc;stroke-linejoin:miter;"/>
    </g>
    <g id="line2d_23">
     <path d="M 59.96 39.018438 
L 79.96 39.018438 
" style="fill:none;stroke:#9467bd;stroke-linecap:square;stroke-width:1.5;"/>
    </g>
    <g id="line2d_24"/>
    <g id="text_11">
     <!-- group_5 -->
     <g transform="translate(87.96 42.518438)scale(0.1 -0.1)">
      <defs>
       <path d="M 18.109375 8.203125 
L 18.109375 -20.796875 
L 9.078125 -20.796875 
L 9.078125 54.6875 
L 18.109375 54.6875 
L 18.109375 46.390625 
Q 20.953125 51.265625 25.265625 53.625 
Q 29.59375 56 35.59375 56 
Q 45.5625 56 51.78125 48.09375 
Q 58.015625 40.1875 58.015625 27.296875 
Q 58.015625 14.40625 51.78125 6.484375 
Q 45.5625 -1.421875 35.59375 -1.421875 
Q 29.59375 -1.421875 25.265625 0.953125 
Q 20.953125 3.328125 18.109375 8.203125 
z
M 48.6875 27.296875 
Q 48.6875 37.203125 44.609375 42.84375 
Q 40.53125 48.484375 33.40625 48.484375 
Q 26.265625 48.484375 22.1875 42.84375 
Q 18.109375 37.203125 18.109375 27.296875 
Q 18.109375 17.390625 22.1875 11.75 
Q 26.265625 6.109375 33.40625 6.109375 
Q 40.53125 6.109375 44.609375 11.75 
Q 48.6875 17.390625 48.6875 27.296875 
z
" id="DejaVuSans-112"/>
       <path d="M 50.984375 -16.609375 
L 50.984375 -23.578125 
L -0.984375 -23.578125 
L -0.984375 -16.609375 
z
" id="DejaVuSans-95"/>
       <path d="M 10.796875 72.90625 
L 49.515625 72.90625 
L 49.515625 64.59375 
L 19.828125 64.59375 
L 19.828125 46.734375 
Q 21.96875 47.46875 24.109375 47.828125 
Q 26.265625 48.1875 28.421875 48.1875 
Q 40.625 48.1875 47.75 41.5 
Q 54.890625 34.8125 54.890625 23.390625 
Q 54.890625 11.625 47.5625 5.09375 
Q 40.234375 -1.421875 26.90625 -1.421875 
Q 22.3125 -1.421875 17.546875 -0.640625 
Q 12.796875 0.140625 7.71875 1.703125 
L 7.71875 11.625 
Q 12.109375 9.234375 16.796875 8.0625 
Q 21.484375 6.890625 26.703125 6.890625 
Q 35.15625 6.890625 40.078125 11.328125 
Q 45.015625 15.765625 45.015625 23.390625 
Q 45.015625 31 40.078125 35.4375 
Q 35.15625 39.890625 26.703125 39.890625 
Q 22.75 39.890625 18.8125 39.015625 
Q 14.890625 38.140625 10.796875 36.28125 
z
" id="DejaVuSans-53"/>
      </defs>
      <use xlink:href="#DejaVuSans-103"/>
      <use x="63.476562" xlink:href="#DejaVuSans-114"/>
      <use x="102.339844" xlink:href="#DejaVuSans-111"/>
      <use x="163.521484" xlink:href="#DejaVuSans-117"/>
      <use x="226.900391" xlink:href="#DejaVuSans-112"/>
      <use x="290.376953" xlink:href="#DejaVuSans-95"/>
      <use x="340.376953" xlink:href="#DejaVuSans-53"/>
     </g>
    </g>
    <g id="line2d_25">
     <path d="M 59.96 53.974688 
L 79.96 53.974688 
" style="fill:none;stroke:#1f77b4;stroke-linecap:square;stroke-width:1.5;"/>
    </g>
    <g id="line2d_26"/>
    <g id="text_12">
     <!-- group_1 -->
     <g transform="translate(87.96 57.474688)scale(0.1 -0.1)">
      <use xlink:href="#DejaVuSans-103"/>
      <use x="63.476562" xlink:href="#DejaVuSans-114"/>
      <use x="102.339844" xlink:href="#DejaVuSans-111"/>
      <use x="163.521484" xlink:href="#DejaVuSans-117"/>
      <use x="226.900391" xlink:href="#DejaVuSans-112"/>
      <use x="290.376953" xlink:href="#DejaVuSans-95"/>
      <use x="340.376953" xlink:href="#DejaVuSans-49"/>
     </g>
    </g>
    <g id="line2d_27">
     <path d="M 59.96 68.930938 
L 79.96 68.930938 
" style="fill:none;stroke:#8c564b;stroke-linecap:square;stroke-width:1.5;"/>
    </g>
    <g id="line2d_28"/>
    <g id="text_13">
     <!-- benchmark -->
     <g transform="translate(87.96 72.430938)scale(0.1 -0.1)">
      <defs>
       <path d="M 48.6875 27.296875 
Q 48.6875 37.203125 44.609375 42.84375 
Q 40.53125 48.484375 33.40625 48.484375 
Q 26.265625 48.484375 22.1875 42.84375 
Q 18.109375 37.203125 18.109375 27.296875 
Q 18.109375 17.390625 22.1875 11.75 
Q 26.265625 6.109375 33.40625 6.109375 
Q 40.53125 6.109375 44.609375 11.75 
Q 48.6875 17.390625 48.6875 27.296875 
z
M 18.109375 46.390625 
Q 20.953125 51.265625 25.265625 53.625 
Q 29.59375 56 35.59375 56 
Q 45.5625 56 51.78125 48.09375 
Q 58.015625 40.1875 58.015625 27.296875 
Q 58.015625 14.40625 51.78125 6.484375 
Q 45.5625 -1.421875 35.59375 -1.421875 
Q 29.59375 -1.421875 25.265625 0.953125 
Q 20.953125 3.328125 18.109375 8.203125 
L 18.109375 0 
L 9.078125 0 
L 9.078125 75.984375 
L 18.109375 75.984375 
z
" id="DejaVuSans-98"/>
       <path d="M 54.890625 33.015625 
L 54.890625 0 
L 45.90625 0 
L 45.90625 32.71875 
Q 45.90625 40.484375 42.875 44.328125 
Q 39.84375 48.1875 33.796875 48.1875 
Q 26.515625 48.1875 22.3125 43.546875 
Q 18.109375 38.921875 18.109375 30.90625 
L 18.109375 0 
L 9.078125 0 
L 9.078125 75.984375 
L 18.109375 75.984375 
L 18.109375 46.1875 
Q 21.34375 51.125 25.703125 53.5625 
Q 30.078125 56 35.796875 56 
Q 45.21875 56 50.046875 50.171875 
Q 54.890625 44.34375 54.890625 33.015625 
z
" id="DejaVuSans-104"/>
       <path d="M 9.078125 75.984375 
L 18.109375 75.984375 
L 18.109375 31.109375 
L 44.921875 54.6875 
L 56.390625 54.6875 
L 27.390625 29.109375 
L 57.625 0 
L 45.90625 0 
L 18.109375 26.703125 
L 18.109375 0 
L 9.078125 0 
z
" id="DejaVuSans-107"/>
      </defs>
      <use xlink:href="#DejaVuSans-98"/>
      <use x="63.476562" xlink:href="#DejaVuSans-101"/>
      <use x="125" xlink:href="#DejaVuSans-110"/>
      <use x="188.378906" xlink:href="#DejaVuSans-99"/>
      <use x="243.359375" xlink:href="#DejaVuSans-104"/>
      <use x="306.738281" xlink:href="#DejaVuSans-109"/>
      <use x="404.150391" xlink:href="#DejaVuSans-97"/>
      <use x="465.429688" xlink:href="#DejaVuSans-114"/>
      <use x="506.542969" xlink:href="#DejaVuSans-107"/>
     </g>
    </g>
    <g id="line2d_29">
     <path d="M 59.96 83.609062 
L 79.96 83.609062 
" style="fill:none;stroke:#e377c2;stroke-linecap:square;stroke-width:1.5;"/>
    </g>
    <g id="line2d_30"/>
    <g id="text_14">
     <!-- long_excess -->
     <g transform="translate(87.96 87.109062)scale(0.1 -0.1)">
      <defs>
       <path d="M 54.890625 54.6875 
L 35.109375 28.078125 
L 55.90625 0 
L 45.3125 0 
L 29.390625 21.484375 
L 13.484375 0 
L 2.875 0 
L 24.125 28.609375 
L 4.6875 54.6875 
L 15.28125 54.6875 
L 29.78125 35.203125 
L 44.28125 54.6875 
z
" id="DejaVuSans-120"/>
      </defs>
      <use xlink:href="#DejaVuSans-108"/>
      <use x="27.783203" xlink:href="#DejaVuSans-111"/>
      <use x="88.964844" xlink:href="#DejaVuSans-110"/>
      <use x="152.34375" xlink:href="#DejaVuSans-103"/>
      <use x="215.820312" xlink:href="#DejaVuSans-95"/>
      <use x="265.820312" xlink:href="#DejaVuSans-101"/>
      <use x="325.59375" xlink:href="#DejaVuSans-120"/>
      <use x="383.023438" xlink:href="#DejaVuSans-99"/>
      <use x="438.003906" xlink:href="#DejaVuSans-101"/>
      <use x="499.527344" xlink:href="#DejaVuSans-115"/>
      <use x="551.626953" xlink:href="#DejaVuSans-115"/>
     </g>
    </g>
    <g id="line2d_31">
     <path d="M 59.96 98.565313 
L 79.96 98.565313 
" style="fill:none;stroke:#7f7f7f;stroke-linecap:square;stroke-width:1.5;"/>
    </g>
    <g id="line2d_32"/>
    <g id="text_15">
     <!-- short_excess -->
     <g transform="translate(87.96 102.065313)scale(0.1 -0.1)">
      <use xlink:href="#DejaVuSans-115"/>
      <use x="52.099609" xlink:href="#DejaVuSans-104"/>
      <use x="115.478516" xlink:href="#DejaVuSans-111"/>
      <use x="176.660156" xlink:href="#DejaVuSans-114"/>
      <use x="217.773438" xlink:href="#DejaVuSans-116"/>
      <use x="256.982422" xlink:href="#DejaVuSans-95"/>
      <use x="306.982422" xlink:href="#DejaVuSans-101"/>
      <use x="366.755859" xlink:href="#DejaVuSans-120"/>
      <use x="424.185547" xlink:href="#DejaVuSans-99"/>
      <use x="479.166016" xlink:href="#DejaVuSans-101"/>
      <use x="540.689453" xlink:href="#DejaVuSans-115"/>
      <use x="592.789062" xlink:href="#DejaVuSans-115"/>
     </g>
    </g>
    <g id="line2d_33">
     <path d="M 59.96 113.521563 
L 79.96 113.521563 
" style="fill:none;stroke:#bcbd22;stroke-linecap:square;stroke-width:1.5;"/>
    </g>
    <g id="line2d_34"/>
    <g id="text_16">
     <!-- long_short -->
     <g transform="translate(87.96 117.021563)scale(0.1 -0.1)">
      <use xlink:href="#DejaVuSans-108"/>
      <use x="27.783203" xlink:href="#DejaVuSans-111"/>
      <use x="88.964844" xlink:href="#DejaVuSans-110"/>
      <use x="152.34375" xlink:href="#DejaVuSans-103"/>
      <use x="215.820312" xlink:href="#DejaVuSans-95"/>
      <use x="265.820312" xlink:href="#DejaVuSans-115"/>
      <use x="317.919922" xlink:href="#DejaVuSans-104"/>
      <use x="381.298828" xlink:href="#DejaVuSans-111"/>
      <use x="442.480469" xlink:href="#DejaVuSans-114"/>
      <use x="483.59375" xlink:href="#DejaVuSans-116"/>
     </g>
    </g>
   </g>
  </g>
 </g>
 <defs>
  <clipPath id="p74ec04f03a">
   <rect height="319.78" width="1090.24" x="50.96" y="25.92"/>
  </clipPath>
 </defs>
</svg>
