<?xml version="1.0" encoding="utf-8" standalone="no"?>
<!DOCTYPE svg PUBLIC "-//W3C//DTD SVG 1.1//EN"
  "http://www.w3.org/Graphics/SVG/1.1/DTD/svg11.dtd">
<!-- Created with matplotlib (https://matplotlib.org/) -->
<svg height="432pt" version="1.1" viewBox="0 0 1152 432" width="1152pt" xmlns="http://www.w3.org/2000/svg" xmlns:xlink="http://www.w3.org/1999/xlink">
 <metadata>
  <rdf:RDF xmlns:cc="http://creativecommons.org/ns#" xmlns:dc="http://purl.org/dc/elements/1.1/" xmlns:rdf="http://www.w3.org/1999/02/22-rdf-syntax-ns#">
   <cc:Work>
    <dc:type rdf:resource="http://purl.org/dc/dcmitype/StillImage"/>
    <dc:date>2023-10-11T17:00:09.451375</dc:date>
    <dc:format>image/svg+xml</dc:format>
    <dc:creator>
     <cc:Agent>
      <dc:title>Matplotlib v3.3.4, https://matplotlib.org/</dc:title>
     </cc:Agent>
    </dc:creator>
   </cc:Work>
  </rdf:RDF>
 </metadata>
 <defs>
  <style type="text/css">*{stroke-linecap:butt;stroke-linejoin:round;}</style>
 </defs>
 <g id="figure_1">
  <g id="patch_1">
   <path d="M 0 432 
L 1152 432 
L 1152 0 
L 0 0 
z
" style="fill:#ffffff;"/>
  </g>
  <g id="axes_1">
   <g id="patch_2">
    <path d="M 47.36 417.7 
L 1141.2 417.7 
L 1141.2 25.92 
L 47.36 25.92 
z
" style="fill:#ffffff;"/>
   </g>
   <g id="matplotlib.axis_1"/>
   <g id="matplotlib.axis_2">
    <g id="ytick_1">
     <g id="line2d_1">
      <path clip-path="url(#p14f8f103e1)" d="M 47.36 395.514232 
L 1141.2 395.514232 
" style="fill:none;stroke:#b0b0b0;stroke-linecap:square;stroke-width:0.8;"/>
     </g>
     <g id="line2d_2">
      <defs>
       <path d="M 0 0 
L -3.5 0 
" id="m5b9029edc0" style="stroke:#000000;stroke-width:0.8;"/>
      </defs>
      <g>
       <use style="stroke:#000000;stroke-width:0.8;" x="47.36" xlink:href="#m5b9029edc0" y="395.514232"/>
      </g>
     </g>
     <g id="text_1">
      <!-- 0.6 -->
      <g transform="translate(24.456875 399.313451)scale(0.1 -0.1)">
       <defs>
        <path d="M 31.78125 66.40625 
Q 24.171875 66.40625 20.328125 58.90625 
Q 16.5 51.421875 16.5 36.375 
Q 16.5 21.390625 20.328125 13.890625 
Q 24.171875 6.390625 31.78125 6.390625 
Q 39.453125 6.390625 43.28125 13.890625 
Q 47.125 21.390625 47.125 36.375 
Q 47.125 51.421875 43.28125 58.90625 
Q 39.453125 66.40625 31.78125 66.40625 
z
M 31.78125 74.21875 
Q 44.046875 74.21875 50.515625 64.515625 
Q 56.984375 54.828125 56.984375 36.375 
Q 56.984375 17.96875 50.515625 8.265625 
Q 44.046875 -1.421875 31.78125 -1.421875 
Q 19.53125 -1.421875 13.0625 8.265625 
Q 6.59375 17.96875 6.59375 36.375 
Q 6.59375 54.828125 13.0625 64.515625 
Q 19.53125 74.21875 31.78125 74.21875 
z
" id="DejaVuSans-48"/>
        <path d="M 10.6875 12.40625 
L 21 12.40625 
L 21 0 
L 10.6875 0 
z
" id="DejaVuSans-46"/>
        <path d="M 33.015625 40.375 
Q 26.375 40.375 22.484375 35.828125 
Q 18.609375 31.296875 18.609375 23.390625 
Q 18.609375 15.53125 22.484375 10.953125 
Q 26.375 6.390625 33.015625 6.390625 
Q 39.65625 6.390625 43.53125 10.953125 
Q 47.40625 15.53125 47.40625 23.390625 
Q 47.40625 31.296875 43.53125 35.828125 
Q 39.65625 40.375 33.015625 40.375 
z
M 52.59375 71.296875 
L 52.59375 62.3125 
Q 48.875 64.0625 45.09375 64.984375 
Q 41.3125 65.921875 37.59375 65.921875 
Q 27.828125 65.921875 22.671875 59.328125 
Q 17.53125 52.734375 16.796875 39.40625 
Q 19.671875 43.65625 24.015625 45.921875 
Q 28.375 48.1875 33.59375 48.1875 
Q 44.578125 48.1875 50.953125 41.515625 
Q 57.328125 34.859375 57.328125 23.390625 
Q 57.328125 12.15625 50.6875 5.359375 
Q 44.046875 -1.421875 33.015625 -1.421875 
Q 20.359375 -1.421875 13.671875 8.265625 
Q 6.984375 17.96875 6.984375 36.375 
Q 6.984375 53.65625 15.1875 63.9375 
Q 23.390625 74.21875 37.203125 74.21875 
Q 40.921875 74.21875 44.703125 73.484375 
Q 48.484375 72.75 52.59375 71.296875 
z
" id="DejaVuSans-54"/>
       </defs>
       <use xlink:href="#DejaVuSans-48"/>
       <use x="63.623047" xlink:href="#DejaVuSans-46"/>
       <use x="95.410156" xlink:href="#DejaVuSans-54"/>
      </g>
     </g>
    </g>
    <g id="ytick_2">
     <g id="line2d_3">
      <path clip-path="url(#p14f8f103e1)" d="M 47.36 312.226699 
L 1141.2 312.226699 
" style="fill:none;stroke:#b0b0b0;stroke-linecap:square;stroke-width:0.8;"/>
     </g>
     <g id="line2d_4">
      <g>
       <use style="stroke:#000000;stroke-width:0.8;" x="47.36" xlink:href="#m5b9029edc0" y="312.226699"/>
      </g>
     </g>
     <g id="text_2">
      <!-- 0.8 -->
      <g transform="translate(24.456875 316.025918)scale(0.1 -0.1)">
       <defs>
        <path d="M 31.78125 34.625 
Q 24.75 34.625 20.71875 30.859375 
Q 16.703125 27.09375 16.703125 20.515625 
Q 16.703125 13.921875 20.71875 10.15625 
Q 24.75 6.390625 31.78125 6.390625 
Q 38.8125 6.390625 42.859375 10.171875 
Q 46.921875 13.96875 46.921875 20.515625 
Q 46.921875 27.09375 42.890625 30.859375 
Q 38.875 34.625 31.78125 34.625 
z
M 21.921875 38.8125 
Q 15.578125 40.375 12.03125 44.71875 
Q 8.5 49.078125 8.5 55.328125 
Q 8.5 64.0625 14.71875 69.140625 
Q 20.953125 74.21875 31.78125 74.21875 
Q 42.671875 74.21875 48.875 69.140625 
Q 55.078125 64.0625 55.078125 55.328125 
Q 55.078125 49.078125 51.53125 44.71875 
Q 48 40.375 41.703125 38.8125 
Q 48.828125 37.15625 52.796875 32.3125 
Q 56.78125 27.484375 56.78125 20.515625 
Q 56.78125 9.90625 50.3125 4.234375 
Q 43.84375 -1.421875 31.78125 -1.421875 
Q 19.734375 -1.421875 13.25 4.234375 
Q 6.78125 9.90625 6.78125 20.515625 
Q 6.78125 27.484375 10.78125 32.3125 
Q 14.796875 37.15625 21.921875 38.8125 
z
M 18.3125 54.390625 
Q 18.3125 48.734375 21.84375 45.5625 
Q 25.390625 42.390625 31.78125 42.390625 
Q 38.140625 42.390625 41.71875 45.5625 
Q 45.3125 48.734375 45.3125 54.390625 
Q 45.3125 60.0625 41.71875 63.234375 
Q 38.140625 66.40625 31.78125 66.40625 
Q 25.390625 66.40625 21.84375 63.234375 
Q 18.3125 60.0625 18.3125 54.390625 
z
" id="DejaVuSans-56"/>
       </defs>
       <use xlink:href="#DejaVuSans-48"/>
       <use x="63.623047" xlink:href="#DejaVuSans-46"/>
       <use x="95.410156" xlink:href="#DejaVuSans-56"/>
      </g>
     </g>
    </g>
    <g id="ytick_3">
     <g id="line2d_5">
      <path clip-path="url(#p14f8f103e1)" d="M 47.36 228.939167 
L 1141.2 228.939167 
" style="fill:none;stroke:#b0b0b0;stroke-linecap:square;stroke-width:0.8;"/>
     </g>
     <g id="line2d_6">
      <g>
       <use style="stroke:#000000;stroke-width:0.8;" x="47.36" xlink:href="#m5b9029edc0" y="228.939167"/>
      </g>
     </g>
     <g id="text_3">
      <!-- 1.0 -->
      <g transform="translate(24.456875 232.738385)scale(0.1 -0.1)">
       <defs>
        <path d="M 12.40625 8.296875 
L 28.515625 8.296875 
L 28.515625 63.921875 
L 10.984375 60.40625 
L 10.984375 69.390625 
L 28.421875 72.90625 
L 38.28125 72.90625 
L 38.28125 8.296875 
L 54.390625 8.296875 
L 54.390625 0 
L 12.40625 0 
z
" id="DejaVuSans-49"/>
       </defs>
       <use xlink:href="#DejaVuSans-49"/>
       <use x="63.623047" xlink:href="#DejaVuSans-46"/>
       <use x="95.410156" xlink:href="#DejaVuSans-48"/>
      </g>
     </g>
    </g>
    <g id="ytick_4">
     <g id="line2d_7">
      <path clip-path="url(#p14f8f103e1)" d="M 47.36 145.651634 
L 1141.2 145.651634 
" style="fill:none;stroke:#b0b0b0;stroke-linecap:square;stroke-width:0.8;"/>
     </g>
     <g id="line2d_8">
      <g>
       <use style="stroke:#000000;stroke-width:0.8;" x="47.36" xlink:href="#m5b9029edc0" y="145.651634"/>
      </g>
     </g>
     <g id="text_4">
      <!-- 1.2 -->
      <g transform="translate(24.456875 149.450853)scale(0.1 -0.1)">
       <defs>
        <path d="M 19.1875 8.296875 
L 53.609375 8.296875 
L 53.609375 0 
L 7.328125 0 
L 7.328125 8.296875 
Q 12.9375 14.109375 22.625 23.890625 
Q 32.328125 33.6875 34.8125 36.53125 
Q 39.546875 41.84375 41.421875 45.53125 
Q 43.3125 49.21875 43.3125 52.78125 
Q 43.3125 58.59375 39.234375 62.25 
Q 35.15625 65.921875 28.609375 65.921875 
Q 23.96875 65.921875 18.8125 64.3125 
Q 13.671875 62.703125 7.8125 59.421875 
L 7.8125 69.390625 
Q 13.765625 71.78125 18.9375 73 
Q 24.125 74.21875 28.421875 74.21875 
Q 39.75 74.21875 46.484375 68.546875 
Q 53.21875 62.890625 53.21875 53.421875 
Q 53.21875 48.921875 51.53125 44.890625 
Q 49.859375 40.875 45.40625 35.40625 
Q 44.1875 33.984375 37.640625 27.21875 
Q 31.109375 20.453125 19.1875 8.296875 
z
" id="DejaVuSans-50"/>
       </defs>
       <use xlink:href="#DejaVuSans-49"/>
       <use x="63.623047" xlink:href="#DejaVuSans-46"/>
       <use x="95.410156" xlink:href="#DejaVuSans-50"/>
      </g>
     </g>
    </g>
    <g id="ytick_5">
     <g id="line2d_9">
      <path clip-path="url(#p14f8f103e1)" d="M 47.36 62.364101 
L 1141.2 62.364101 
" style="fill:none;stroke:#b0b0b0;stroke-linecap:square;stroke-width:0.8;"/>
     </g>
     <g id="line2d_10">
      <g>
       <use style="stroke:#000000;stroke-width:0.8;" x="47.36" xlink:href="#m5b9029edc0" y="62.364101"/>
      </g>
     </g>
     <g id="text_5">
      <!-- 1.4 -->
      <g transform="translate(24.456875 66.16332)scale(0.1 -0.1)">
       <defs>
        <path d="M 37.796875 64.3125 
L 12.890625 25.390625 
L 37.796875 25.390625 
z
M 35.203125 72.90625 
L 47.609375 72.90625 
L 47.609375 25.390625 
L 58.015625 25.390625 
L 58.015625 17.1875 
L 47.609375 17.1875 
L 47.609375 0 
L 37.796875 0 
L 37.796875 17.1875 
L 4.890625 17.1875 
L 4.890625 26.703125 
z
" id="DejaVuSans-52"/>
       </defs>
       <use xlink:href="#DejaVuSans-49"/>
       <use x="63.623047" xlink:href="#DejaVuSans-46"/>
       <use x="95.410156" xlink:href="#DejaVuSans-52"/>
      </g>
     </g>
    </g>
    <g id="text_6">
     <!-- net value -->
     <g transform="translate(18.377187 245.262344)rotate(-90)scale(0.1 -0.1)">
      <defs>
       <path d="M 54.890625 33.015625 
L 54.890625 0 
L 45.90625 0 
L 45.90625 32.71875 
Q 45.90625 40.484375 42.875 44.328125 
Q 39.84375 48.1875 33.796875 48.1875 
Q 26.515625 48.1875 22.3125 43.546875 
Q 18.109375 38.921875 18.109375 30.90625 
L 18.109375 0 
L 9.078125 0 
L 9.078125 54.6875 
L 18.109375 54.6875 
L 18.109375 46.1875 
Q 21.34375 51.125 25.703125 53.5625 
Q 30.078125 56 35.796875 56 
Q 45.21875 56 50.046875 50.171875 
Q 54.890625 44.34375 54.890625 33.015625 
z
" id="DejaVuSans-110"/>
       <path d="M 56.203125 29.59375 
L 56.203125 25.203125 
L 14.890625 25.203125 
Q 15.484375 15.921875 20.484375 11.0625 
Q 25.484375 6.203125 34.421875 6.203125 
Q 39.59375 6.203125 44.453125 7.46875 
Q 49.3125 8.734375 54.109375 11.28125 
L 54.109375 2.78125 
Q 49.265625 0.734375 44.1875 -0.34375 
Q 39.109375 -1.421875 33.890625 -1.421875 
Q 20.796875 -1.421875 13.15625 6.1875 
Q 5.515625 13.8125 5.515625 26.8125 
Q 5.515625 40.234375 12.765625 48.109375 
Q 20.015625 56 32.328125 56 
Q 43.359375 56 49.78125 48.890625 
Q 56.203125 41.796875 56.203125 29.59375 
z
M 47.21875 32.234375 
Q 47.125 39.59375 43.09375 43.984375 
Q 39.0625 48.390625 32.421875 48.390625 
Q 24.90625 48.390625 20.390625 44.140625 
Q 15.875 39.890625 15.1875 32.171875 
z
" id="DejaVuSans-101"/>
       <path d="M 18.3125 70.21875 
L 18.3125 54.6875 
L 36.8125 54.6875 
L 36.8125 47.703125 
L 18.3125 47.703125 
L 18.3125 18.015625 
Q 18.3125 11.328125 20.140625 9.421875 
Q 21.96875 7.515625 27.59375 7.515625 
L 36.8125 7.515625 
L 36.8125 0 
L 27.59375 0 
Q 17.1875 0 13.234375 3.875 
Q 9.28125 7.765625 9.28125 18.015625 
L 9.28125 47.703125 
L 2.6875 47.703125 
L 2.6875 54.6875 
L 9.28125 54.6875 
L 9.28125 70.21875 
z
" id="DejaVuSans-116"/>
       <path id="DejaVuSans-32"/>
       <path d="M 2.984375 54.6875 
L 12.5 54.6875 
L 29.59375 8.796875 
L 46.6875 54.6875 
L 56.203125 54.6875 
L 35.6875 0 
L 23.484375 0 
z
" id="DejaVuSans-118"/>
       <path d="M 34.28125 27.484375 
Q 23.390625 27.484375 19.1875 25 
Q 14.984375 22.515625 14.984375 16.5 
Q 14.984375 11.71875 18.140625 8.90625 
Q 21.296875 6.109375 26.703125 6.109375 
Q 34.1875 6.109375 38.703125 11.40625 
Q 43.21875 16.703125 43.21875 25.484375 
L 43.21875 27.484375 
z
M 52.203125 31.203125 
L 52.203125 0 
L 43.21875 0 
L 43.21875 8.296875 
Q 40.140625 3.328125 35.546875 0.953125 
Q 30.953125 -1.421875 24.3125 -1.421875 
Q 15.921875 -1.421875 10.953125 3.296875 
Q 6 8.015625 6 15.921875 
Q 6 25.140625 12.171875 29.828125 
Q 18.359375 34.515625 30.609375 34.515625 
L 43.21875 34.515625 
L 43.21875 35.40625 
Q 43.21875 41.609375 39.140625 45 
Q 35.0625 48.390625 27.6875 48.390625 
Q 23 48.390625 18.546875 47.265625 
Q 14.109375 46.140625 10.015625 43.890625 
L 10.015625 52.203125 
Q 14.9375 54.109375 19.578125 55.046875 
Q 24.21875 56 28.609375 56 
Q 40.484375 56 46.34375 49.84375 
Q 52.203125 43.703125 52.203125 31.203125 
z
" id="DejaVuSans-97"/>
       <path d="M 9.421875 75.984375 
L 18.40625 75.984375 
L 18.40625 0 
L 9.421875 0 
z
" id="DejaVuSans-108"/>
       <path d="M 8.5 21.578125 
L 8.5 54.6875 
L 17.484375 54.6875 
L 17.484375 21.921875 
Q 17.484375 14.15625 20.5 10.265625 
Q 23.53125 6.390625 29.59375 6.390625 
Q 36.859375 6.390625 41.078125 11.03125 
Q 45.3125 15.671875 45.3125 23.6875 
L 45.3125 54.6875 
L 54.296875 54.6875 
L 54.296875 0 
L 45.3125 0 
L 45.3125 8.40625 
Q 42.046875 3.421875 37.71875 1 
Q 33.40625 -1.421875 27.6875 -1.421875 
Q 18.265625 -1.421875 13.375 4.4375 
Q 8.5 10.296875 8.5 21.578125 
z
M 31.109375 56 
z
" id="DejaVuSans-117"/>
      </defs>
      <use xlink:href="#DejaVuSans-110"/>
      <use x="63.378906" xlink:href="#DejaVuSans-101"/>
      <use x="124.902344" xlink:href="#DejaVuSans-116"/>
      <use x="164.111328" xlink:href="#DejaVuSans-32"/>
      <use x="195.898438" xlink:href="#DejaVuSans-118"/>
      <use x="255.078125" xlink:href="#DejaVuSans-97"/>
      <use x="316.357422" xlink:href="#DejaVuSans-108"/>
      <use x="344.140625" xlink:href="#DejaVuSans-117"/>
      <use x="407.519531" xlink:href="#DejaVuSans-101"/>
     </g>
    </g>
   </g>
   <g id="line2d_11">
    <path clip-path="url(#p14f8f103e1)" d="M 97.08 222.585246 
L 101.089677 242.198945 
L 105.099355 226.352204 
L 109.109032 208.990384 
L 121.138065 174.137523 
L 125.147742 148.024822 
L 129.157419 156.021643 
L 133.167097 137.299356 
L 137.176774 160.842343 
L 149.205806 144.498705 
L 153.215484 126.05714 
L 157.225161 96.006911 
L 161.234839 69.195049 
L 165.244516 105.330389 
L 177.273548 135.716233 
L 181.283226 181.578358 
L 185.292903 181.754528 
L 189.302581 187.715145 
L 193.312258 209.034134 
L 205.34129 201.553765 
L 209.350968 236.298682 
L 213.360645 229.441689 
L 217.370323 250.851933 
L 221.38 280.486267 
L 233.409032 306.360964 
L 237.41871 296.602798 
L 241.428387 291.952962 
L 245.438065 280.036125 
L 249.447742 298.751127 
L 261.476774 316.607856 
L 265.486452 319.706232 
L 269.496129 308.187982 
L 273.505806 301.351738 
L 277.515484 300.415413 
L 289.544516 292.118308 
L 293.554194 279.022079 
L 297.563871 277.36564 
L 301.573548 265.134346 
L 305.583226 260.809407 
L 317.612258 274.94069 
L 321.621935 286.924086 
L 325.631613 304.43273 
L 329.64129 306.991585 
L 333.650968 303.619948 
L 345.68 318.14477 
L 349.689677 326.433414 
L 353.699355 323.752706 
L 357.709032 313.462501 
L 361.71871 317.718417 
L 373.747742 297.54075 
L 377.757419 314.528891 
L 381.767097 334.236295 
L 385.776774 340.788549 
L 389.786452 324.276301 
L 401.815484 338.16547 
L 405.825161 320.898541 
L 409.834839 352.514018 
L 413.844516 349.714704 
L 417.854194 353.480665 
L 429.883226 349.395757 
L 433.892903 357.935624 
L 437.902581 358.563482 
L 441.912258 350.837952 
L 445.921935 325.451278 
L 457.950968 331.413017 
L 461.960645 329.340746 
L 465.970323 333.276414 
L 469.98 335.06103 
L 473.989677 333.467173 
L 486.01871 313.893919 
L 490.028387 331.003211 
L 494.038065 336.887822 
L 498.047742 334.1499 
L 502.057419 330.431139 
L 514.086452 309.838326 
L 518.096129 316.395201 
L 522.105806 318.953089 
L 526.115484 311.625209 
L 530.125161 314.031659 
L 542.154194 308.916174 
L 546.163871 322.573727 
L 550.173548 326.726812 
L 554.183226 327.518349 
L 558.192903 350.161296 
L 570.221935 344.288932 
L 574.231613 340.185264 
L 578.24129 354.985132 
L 582.250968 367.223991 
L 586.260645 377.645953 
L 598.289677 373.116197 
L 602.299355 369.560751 
L 606.309032 351.447622 
L 610.31871 335.227124 
L 614.328387 351.143899 
L 626.357419 344.018245 
L 630.367097 338.364291 
L 638.386452 374.141759 
L 642.396129 363.378017 
L 654.425161 354.826855 
L 658.434839 363.790307 
L 662.444516 351.594559 
L 666.454194 346.034801 
L 670.463871 325.468621 
L 682.492903 310.317824 
L 686.502581 302.081948 
L 690.512258 306.751856 
L 694.521935 329.269281 
L 698.531613 336.19656 
L 710.560645 328.824511 
L 714.570323 314.286311 
L 718.58 298.745976 
L 722.589677 295.736623 
L 726.599355 301.93857 
L 738.628387 279.303024 
L 742.638065 279.804302 
L 746.647742 276.938966 
L 750.657419 289.577709 
L 754.667097 270.873845 
L 766.696129 246.514565 
L 770.705806 226.646019 
L 774.715484 245.625636 
L 778.725161 234.690307 
L 782.734839 234.120382 
L 794.763871 257.532012 
L 798.773548 221.451588 
L 802.783226 203.245617 
L 806.792903 232.290403 
L 810.802581 197.241886 
L 822.831613 166.230612 
L 826.84129 198.490563 
L 830.850968 206.27253 
L 834.860645 207.237386 
L 838.870323 199.041219 
L 850.899355 201.128261 
L 854.909032 226.98892 
L 858.91871 228.179838 
L 862.928387 257.783594 
L 866.938065 240.889424 
L 878.967097 267.509541 
L 882.976774 241.555103 
L 886.986452 248.584515 
L 890.996129 255.267629 
L 895.005806 289.979851 
L 907.034839 290.080221 
L 911.044516 273.248269 
L 915.054194 259.852163 
L 919.063871 237.183281 
L 923.073548 246.454696 
L 935.102581 253.11121 
L 939.112258 276.722769 
L 943.121935 267.539232 
L 947.131613 277.613621 
L 951.14129 279.225159 
L 963.170323 276.142644 
L 967.18 272.13711 
L 971.189677 290.92333 
L 975.199355 297.308264 
L 979.209032 266.420233 
L 991.238065 280.175349 
L 995.247742 288.993893 
L 999.257419 282.774185 
L 1003.267097 289.169107 
L 1007.276774 305.141973 
L 1019.305806 305.447722 
L 1023.315484 310.561997 
L 1027.325161 308.629039 
L 1031.334839 312.221247 
L 1035.344516 295.516925 
L 1047.373548 284.043715 
L 1051.383226 280.041667 
L 1055.392903 286.85069 
L 1059.402581 279.721755 
L 1063.412258 278.718313 
L 1075.44129 297.129204 
L 1079.450968 306.524666 
L 1083.460645 285.94197 
L 1087.470323 260.989348 
L 1091.48 253.972719 
L 1091.48 253.972719 
" style="fill:none;stroke:#1f77b4;stroke-linecap:square;stroke-width:1.5;"/>
   </g>
   <g id="line2d_12">
    <path clip-path="url(#p14f8f103e1)" d="M 97.08 241.679827 
L 101.089677 247.604514 
L 105.099355 238.835018 
L 109.109032 253.063883 
L 121.138065 240.457514 
L 125.147742 241.705834 
L 129.157419 254.225977 
L 133.167097 242.47758 
L 137.176774 247.434078 
L 153.215484 244.472984 
L 157.225161 234.098868 
L 161.234839 228.787427 
L 165.244516 242.452209 
L 177.273548 247.14928 
L 181.283226 256.321912 
L 185.292903 257.462051 
L 189.302581 264.773934 
L 193.312258 262.644922 
L 205.34129 254.938753 
L 209.350968 256.714279 
L 213.360645 248.766435 
L 217.370323 243.083529 
L 221.38 243.571915 
L 233.409032 240.02981 
L 237.41871 237.295595 
L 241.428387 240.662243 
L 245.438065 224.554119 
L 249.447742 235.183603 
L 261.476774 245.50385 
L 265.486452 244.154444 
L 269.496129 248.649495 
L 273.505806 257.921092 
L 277.515484 265.751864 
L 289.544516 255.003987 
L 293.554194 250.952246 
L 297.563871 251.68375 
L 301.573548 239.47812 
L 305.583226 239.062521 
L 317.612258 241.500148 
L 321.621935 240.733474 
L 325.631613 250.075621 
L 329.64129 250.736542 
L 333.650968 243.276904 
L 345.68 246.867223 
L 349.689677 253.003645 
L 353.699355 244.547612 
L 357.709032 234.798911 
L 361.71871 225.973717 
L 373.747742 216.39185 
L 377.757419 227.819192 
L 381.767097 243.939122 
L 385.776774 242.943077 
L 389.786452 225.724674 
L 401.815484 223.477308 
L 405.825161 200.648741 
L 409.834839 211.867495 
L 413.844516 215.257622 
L 417.854194 217.988491 
L 429.883226 199.03565 
L 433.892903 198.149791 
L 437.902581 196.794825 
L 441.912258 197.297507 
L 445.921935 191.949885 
L 457.950968 189.884488 
L 461.960645 185.148201 
L 465.970323 180.634356 
L 469.98 191.067641 
L 473.989677 180.915663 
L 486.01871 174.727271 
L 490.028387 173.263149 
L 494.038065 185.733061 
L 498.047742 188.830068 
L 502.057419 180.662418 
L 514.086452 189.277688 
L 518.096129 176.85881 
L 522.105806 173.908864 
L 526.115484 188.945974 
L 530.125161 172.754117 
L 542.154194 166.878184 
L 546.163871 178.933052 
L 550.173548 173.9303 
L 554.183226 192.186733 
L 558.192903 194.194175 
L 570.221935 183.995028 
L 574.231613 191.400761 
L 578.24129 191.441069 
L 582.250968 190.124654 
L 586.260645 192.974758 
L 598.289677 188.564447 
L 602.299355 181.635449 
L 606.309032 173.77518 
L 610.31871 171.548703 
L 614.328387 186.707588 
L 626.357419 185.926093 
L 630.367097 192.96148 
L 634.376774 197.506058 
L 638.386452 210.969865 
L 642.396129 207.751616 
L 654.425161 204.469702 
L 658.434839 193.201127 
L 662.444516 194.316219 
L 666.454194 184.492332 
L 670.463871 173.411535 
L 682.492903 166.290776 
L 686.502581 159.040424 
L 690.512258 166.424999 
L 694.521935 171.066046 
L 698.531613 167.89886 
L 710.560645 166.253554 
L 714.570323 168.962655 
L 718.58 168.988189 
L 722.589677 165.310431 
L 726.599355 160.019194 
L 738.628387 158.434921 
L 742.638065 162.047313 
L 746.647742 159.437059 
L 750.657419 159.994303 
L 754.667097 159.177043 
L 766.696129 157.646375 
L 770.705806 155.80194 
L 774.715484 148.813047 
L 778.725161 137.434419 
L 782.734839 143.423995 
L 794.763871 144.941893 
L 798.773548 135.923825 
L 802.783226 140.095284 
L 806.792903 142.459439 
L 810.802581 130.368026 
L 822.831613 120.211304 
L 826.84129 137.426276 
L 830.850968 145.735806 
L 834.860645 148.921334 
L 838.870323 137.909349 
L 850.899355 143.594074 
L 854.909032 149.213136 
L 858.91871 148.206578 
L 862.928387 152.825294 
L 866.938065 148.562308 
L 878.967097 162.233481 
L 882.976774 155.314987 
L 886.986452 158.06112 
L 890.996129 154.998934 
L 895.005806 147.310027 
L 907.034839 145.852738 
L 911.044516 122.112606 
L 915.054194 105.993179 
L 919.063871 114.617981 
L 923.073548 120.267531 
L 935.102581 104.264878 
L 939.112258 97.459219 
L 943.121935 81.19843 
L 951.14129 102.420214 
L 963.170323 98.985529 
L 967.18 94.414088 
L 971.189677 95.109222 
L 975.199355 111.200938 
L 979.209032 112.786453 
L 991.238065 110.256507 
L 995.247742 104.407633 
L 999.257419 84.713796 
L 1003.267097 101.304206 
L 1007.276774 106.036509 
L 1019.305806 87.684318 
L 1023.315484 96.354508 
L 1027.325161 90.947037 
L 1031.334839 82.293871 
L 1035.344516 91.627493 
L 1047.373548 78.308374 
L 1051.383226 65.740518 
L 1055.392903 68.689249 
L 1059.402581 73.70437 
L 1063.412258 70.466245 
L 1075.44129 77.110022 
L 1079.450968 75.094551 
L 1083.460645 59.171223 
L 1087.470323 44.676251 
L 1091.48 43.728182 
L 1091.48 43.728182 
" style="fill:none;stroke:#ff7f0e;stroke-linecap:square;stroke-width:1.5;"/>
   </g>
   <g id="line2d_13">
    <path clip-path="url(#p14f8f103e1)" d="M 97.08 209.844585 
L 101.089677 223.657432 
L 105.099355 216.37937 
L 109.109032 183.589531 
L 121.138065 161.5468 
L 125.147742 133.244818 
L 129.157419 125.595146 
L 133.167097 121.320652 
L 137.176774 139.157072 
L 149.205806 124.804933 
L 153.215484 106.705951 
L 157.225161 89.475061 
L 161.234839 69.523597 
L 165.244516 86.749447 
L 177.273548 111.668585 
L 181.283226 147.401406 
L 185.292903 146.131224 
L 189.302581 143.139457 
L 193.312258 169.344298 
L 205.34129 170.768257 
L 209.350968 205.76494 
L 213.360645 207.385856 
L 217.370323 236.20726 
L 221.38 266.444878 
L 233.409032 296.655732 
L 241.428387 281.278541 
L 245.438065 283.493328 
L 249.447742 292.890481 
L 261.476774 302.180754 
L 265.486452 306.573239 
L 273.505806 275.319223 
L 277.515484 266.832903 
L 289.544516 268.445333 
L 293.554194 258.383716 
L 297.563871 255.916242 
L 301.573548 255.046461 
L 305.583226 251.006439 
L 317.612258 263.13197 
L 321.621935 276.222983 
L 325.631613 285.731534 
L 329.64129 287.829439 
L 333.650968 291.025366 
L 345.68 302.921487 
L 349.689677 306.322456 
L 353.699355 310.779675 
L 357.709032 308.212254 
L 361.71871 319.782697 
L 373.747742 307.170816 
L 377.757419 314.679466 
L 381.767097 321.611237 
L 385.776774 329.232685 
L 389.786452 325.620416 
L 401.815484 341.163839 
L 405.825161 340.5261 
L 409.834839 362.538976 
L 413.844516 357.623639 
L 417.854194 359.461887 
L 429.883226 368.139784 
L 433.892903 376.689071 
L 437.902581 378.09001 
L 441.912258 370.590919 
L 445.921935 350.186223 
L 457.950968 357.03165 
L 461.960645 358.126733 
L 465.970323 364.521222 
L 469.98 359.822081 
L 473.989677 364.7364 
L 486.01871 350.864582 
L 490.028387 366.98184 
L 494.038065 364.839752 
L 498.047742 360.459698 
L 502.057419 362.152489 
L 514.086452 338.383133 
L 518.096129 352.74117 
L 522.105806 356.858994 
L 526.115484 341.180007 
L 530.125161 354.164722 
L 542.154194 353.289359 
L 546.163871 357.787132 
L 550.173548 364.57166 
L 554.183226 354.395208 
L 558.192903 373.83463 
L 570.221935 374.57148 
L 574.231613 366.533796 
L 578.24129 380.031167 
L 582.250968 391.983939 
L 586.260645 399.891818 
L 598.289677 398.13159 
L 602.299355 398.653072 
L 606.309032 386.632354 
L 610.31871 373.575086 
L 614.328387 378.828274 
L 626.357419 372.827227 
L 630.367097 363.54033 
L 634.376774 377.053128 
L 638.386452 385.662488 
L 642.396129 377.279998 
L 654.425161 371.160949 
L 658.434839 386.628823 
L 662.444516 374.784143 
L 666.454194 375.556623 
L 670.463871 363.50587 
L 682.492903 354.409228 
L 686.502581 351.660556 
L 690.512258 351.196223 
L 694.521935 367.907634 
L 698.531613 375.840967 
L 710.560645 370.342966 
L 714.570323 356.156451 
L 718.58 342.565867 
L 722.589677 342.27467 
L 726.599355 350.991879 
L 738.628387 332.550282 
L 742.638065 330.657933 
L 746.647742 329.890846 
L 750.657419 340.351371 
L 754.667097 324.830193 
L 766.696129 304.989619 
L 770.705806 289.321125 
L 774.715484 310.542746 
L 778.725161 309.055881 
L 782.734839 304.623312 
L 794.763871 322.990983 
L 798.773548 298.809617 
L 802.783226 281.088146 
L 806.792903 303.314782 
L 810.802581 282.516404 
L 822.831613 264.562326 
L 826.84129 277.718667 
L 830.850968 278.10648 
L 834.860645 276.571912 
L 838.870323 277.853309 
L 850.899355 275.454777 
L 854.909032 292.846271 
L 858.91871 294.564902 
L 862.928387 316.199015 
L 866.938065 304.700021 
L 878.967097 317.746008 
L 882.976774 299.933737 
L 886.986452 304.011199 
L 890.996129 311.905837 
L 895.005806 346.807023 
L 907.034839 347.764927 
L 911.044516 347.809906 
L 915.054194 346.264618 
L 919.063871 323.89396 
L 923.073548 327.773934 
L 935.102581 342.752452 
L 939.112258 364.774415 
L 943.121935 366.111891 
L 947.131613 368.322187 
L 951.14129 364.209234 
L 963.170323 363.620809 
L 967.18 362.921599 
L 971.189677 376.782011 
L 975.199355 373.765697 
L 979.209032 348.85641 
L 991.238065 361.027863 
L 995.247742 371.001995 
L 999.257419 376.202059 
L 1003.267097 372.984203 
L 1007.276774 382.829429 
L 1019.305806 391.999093 
L 1023.315484 391.872044 
L 1027.325161 392.905345 
L 1031.334839 399.538952 
L 1035.344516 383.137723 
L 1047.373548 380.845462 
L 1051.383226 383.778339 
L 1055.392903 387.323139 
L 1059.402581 379.947853 
L 1063.412258 380.722925 
L 1075.44129 390.953504 
L 1079.450968 398.720019 
L 1083.460645 390.624601 
L 1087.470323 379.238438 
L 1091.48 374.800373 
L 1091.48 374.800373 
" style="fill:none;stroke:#2ca02c;stroke-linecap:square;stroke-width:1.5;"/>
   </g>
   <g id="patch_3">
    <path d="M 47.36 417.7 
L 47.36 25.92 
" style="fill:none;stroke:#000000;stroke-linecap:square;stroke-linejoin:miter;stroke-width:0.8;"/>
   </g>
   <g id="patch_4">
    <path d="M 1141.2 417.7 
L 1141.2 25.92 
" style="fill:none;stroke:#000000;stroke-linecap:square;stroke-linejoin:miter;stroke-width:0.8;"/>
   </g>
   <g id="patch_5">
    <path d="M 47.36 417.7 
L 1141.2 417.7 
" style="fill:none;stroke:#000000;stroke-linecap:square;stroke-linejoin:miter;stroke-width:0.8;"/>
   </g>
   <g id="patch_6">
    <path d="M 47.36 25.92 
L 1141.2 25.92 
" style="fill:none;stroke:#000000;stroke-linecap:square;stroke-linejoin:miter;stroke-width:0.8;"/>
   </g>
   <g id="text_7">
    <!-- Net Value: (2010-02-01 ~ 2010-10-08) -->
    <g transform="translate(478.1725 19.92)scale(0.12 -0.12)">
     <defs>
      <path d="M 9.8125 72.90625 
L 23.09375 72.90625 
L 55.421875 11.921875 
L 55.421875 72.90625 
L 64.984375 72.90625 
L 64.984375 0 
L 51.703125 0 
L 19.390625 60.984375 
L 19.390625 0 
L 9.8125 0 
z
" id="DejaVuSans-78"/>
      <path d="M 28.609375 0 
L 0.78125 72.90625 
L 11.078125 72.90625 
L 34.1875 11.53125 
L 57.328125 72.90625 
L 67.578125 72.90625 
L 39.796875 0 
z
" id="DejaVuSans-86"/>
      <path d="M 11.71875 12.40625 
L 22.015625 12.40625 
L 22.015625 0 
L 11.71875 0 
z
M 11.71875 51.703125 
L 22.015625 51.703125 
L 22.015625 39.3125 
L 11.71875 39.3125 
z
" id="DejaVuSans-58"/>
      <path d="M 31 75.875 
Q 24.46875 64.65625 21.28125 53.65625 
Q 18.109375 42.671875 18.109375 31.390625 
Q 18.109375 20.125 21.3125 9.0625 
Q 24.515625 -2 31 -13.1875 
L 23.1875 -13.1875 
Q 15.875 -1.703125 12.234375 9.375 
Q 8.59375 20.453125 8.59375 31.390625 
Q 8.59375 42.28125 12.203125 53.3125 
Q 15.828125 64.359375 23.1875 75.875 
z
" id="DejaVuSans-40"/>
      <path d="M 4.890625 31.390625 
L 31.203125 31.390625 
L 31.203125 23.390625 
L 4.890625 23.390625 
z
" id="DejaVuSans-45"/>
      <path d="M 73.1875 39.890625 
L 73.1875 31.203125 
Q 68.0625 27.34375 63.6875 25.6875 
Q 59.328125 24.03125 54.59375 24.03125 
Q 49.21875 24.03125 42.09375 26.90625 
Q 41.546875 27.09375 41.3125 27.203125 
Q 40.96875 27.34375 40.234375 27.59375 
Q 32.671875 30.609375 28.078125 30.609375 
Q 23.78125 30.609375 19.578125 28.734375 
Q 15.375 26.859375 10.59375 22.796875 
L 10.59375 31.5 
Q 15.71875 35.359375 20.09375 37.03125 
Q 24.46875 38.71875 29.203125 38.71875 
Q 34.578125 38.71875 41.75 35.796875 
Q 42.234375 35.59375 42.484375 35.5 
Q 42.875 35.359375 43.5625 35.109375 
Q 51.125 32.078125 55.71875 32.078125 
Q 59.90625 32.078125 64.03125 33.9375 
Q 68.171875 35.796875 73.1875 39.890625 
z
" id="DejaVuSans-126"/>
      <path d="M 8.015625 75.875 
L 15.828125 75.875 
Q 23.140625 64.359375 26.78125 53.3125 
Q 30.421875 42.28125 30.421875 31.390625 
Q 30.421875 20.453125 26.78125 9.375 
Q 23.140625 -1.703125 15.828125 -13.1875 
L 8.015625 -13.1875 
Q 14.5 -2 17.703125 9.0625 
Q 20.90625 20.125 20.90625 31.390625 
Q 20.90625 42.671875 17.703125 53.65625 
Q 14.5 64.65625 8.015625 75.875 
z
" id="DejaVuSans-41"/>
     </defs>
     <use xlink:href="#DejaVuSans-78"/>
     <use x="74.804688" xlink:href="#DejaVuSans-101"/>
     <use x="136.328125" xlink:href="#DejaVuSans-116"/>
     <use x="175.537109" xlink:href="#DejaVuSans-32"/>
     <use x="207.324219" xlink:href="#DejaVuSans-86"/>
     <use x="267.982422" xlink:href="#DejaVuSans-97"/>
     <use x="329.261719" xlink:href="#DejaVuSans-108"/>
     <use x="357.044922" xlink:href="#DejaVuSans-117"/>
     <use x="420.423828" xlink:href="#DejaVuSans-101"/>
     <use x="481.947266" xlink:href="#DejaVuSans-58"/>
     <use x="515.638672" xlink:href="#DejaVuSans-32"/>
     <use x="547.425781" xlink:href="#DejaVuSans-40"/>
     <use x="586.439453" xlink:href="#DejaVuSans-50"/>
     <use x="650.0625" xlink:href="#DejaVuSans-48"/>
     <use x="713.685547" xlink:href="#DejaVuSans-49"/>
     <use x="777.308594" xlink:href="#DejaVuSans-48"/>
     <use x="840.931641" xlink:href="#DejaVuSans-45"/>
     <use x="877.015625" xlink:href="#DejaVuSans-48"/>
     <use x="940.638672" xlink:href="#DejaVuSans-50"/>
     <use x="1004.261719" xlink:href="#DejaVuSans-45"/>
     <use x="1040.345703" xlink:href="#DejaVuSans-48"/>
     <use x="1103.96875" xlink:href="#DejaVuSans-49"/>
     <use x="1167.591797" xlink:href="#DejaVuSans-32"/>
     <use x="1199.378906" xlink:href="#DejaVuSans-126"/>
     <use x="1283.167969" xlink:href="#DejaVuSans-32"/>
     <use x="1314.955078" xlink:href="#DejaVuSans-50"/>
     <use x="1378.578125" xlink:href="#DejaVuSans-48"/>
     <use x="1442.201172" xlink:href="#DejaVuSans-49"/>
     <use x="1505.824219" xlink:href="#DejaVuSans-48"/>
     <use x="1569.447266" xlink:href="#DejaVuSans-45"/>
     <use x="1605.53125" xlink:href="#DejaVuSans-49"/>
     <use x="1669.154297" xlink:href="#DejaVuSans-48"/>
     <use x="1732.777344" xlink:href="#DejaVuSans-45"/>
     <use x="1768.861328" xlink:href="#DejaVuSans-48"/>
     <use x="1832.484375" xlink:href="#DejaVuSans-56"/>
     <use x="1896.107422" xlink:href="#DejaVuSans-41"/>
    </g>
   </g>
   <g id="legend_1">
    <g id="patch_7">
     <path d="M 54.36 77.954375 
L 142.805312 77.954375 
Q 144.805312 77.954375 144.805312 75.954375 
L 144.805312 32.92 
Q 144.805312 30.92 142.805312 30.92 
L 54.36 30.92 
Q 52.36 30.92 52.36 32.92 
L 52.36 75.954375 
Q 52.36 77.954375 54.36 77.954375 
z
" style="fill:#ffffff;opacity:0.8;stroke:#cccccc;stroke-linejoin:miter;"/>
    </g>
    <g id="line2d_14">
     <path d="M 56.36 39.018438 
L 76.36 39.018438 
" style="fill:none;stroke:#1f77b4;stroke-linecap:square;stroke-width:1.5;"/>
    </g>
    <g id="line2d_15"/>
    <g id="text_8">
     <!-- strategy -->
     <g transform="translate(84.36 42.518438)scale(0.1 -0.1)">
      <defs>
       <path d="M 44.28125 53.078125 
L 44.28125 44.578125 
Q 40.484375 46.53125 36.375 47.5 
Q 32.28125 48.484375 27.875 48.484375 
Q 21.1875 48.484375 17.84375 46.4375 
Q 14.5 44.390625 14.5 40.28125 
Q 14.5 37.15625 16.890625 35.375 
Q 19.28125 33.59375 26.515625 31.984375 
L 29.59375 31.296875 
Q 39.15625 29.25 43.1875 25.515625 
Q 47.21875 21.78125 47.21875 15.09375 
Q 47.21875 7.46875 41.1875 3.015625 
Q 35.15625 -1.421875 24.609375 -1.421875 
Q 20.21875 -1.421875 15.453125 -0.5625 
Q 10.6875 0.296875 5.421875 2 
L 5.421875 11.28125 
Q 10.40625 8.6875 15.234375 7.390625 
Q 20.0625 6.109375 24.8125 6.109375 
Q 31.15625 6.109375 34.5625 8.28125 
Q 37.984375 10.453125 37.984375 14.40625 
Q 37.984375 18.0625 35.515625 20.015625 
Q 33.0625 21.96875 24.703125 23.78125 
L 21.578125 24.515625 
Q 13.234375 26.265625 9.515625 29.90625 
Q 5.8125 33.546875 5.8125 39.890625 
Q 5.8125 47.609375 11.28125 51.796875 
Q 16.75 56 26.8125 56 
Q 31.78125 56 36.171875 55.265625 
Q 40.578125 54.546875 44.28125 53.078125 
z
" id="DejaVuSans-115"/>
       <path d="M 41.109375 46.296875 
Q 39.59375 47.171875 37.8125 47.578125 
Q 36.03125 48 33.890625 48 
Q 26.265625 48 22.1875 43.046875 
Q 18.109375 38.09375 18.109375 28.8125 
L 18.109375 0 
L 9.078125 0 
L 9.078125 54.6875 
L 18.109375 54.6875 
L 18.109375 46.1875 
Q 20.953125 51.171875 25.484375 53.578125 
Q 30.03125 56 36.53125 56 
Q 37.453125 56 38.578125 55.875 
Q 39.703125 55.765625 41.0625 55.515625 
z
" id="DejaVuSans-114"/>
       <path d="M 45.40625 27.984375 
Q 45.40625 37.75 41.375 43.109375 
Q 37.359375 48.484375 30.078125 48.484375 
Q 22.859375 48.484375 18.828125 43.109375 
Q 14.796875 37.75 14.796875 27.984375 
Q 14.796875 18.265625 18.828125 12.890625 
Q 22.859375 7.515625 30.078125 7.515625 
Q 37.359375 7.515625 41.375 12.890625 
Q 45.40625 18.265625 45.40625 27.984375 
z
M 54.390625 6.78125 
Q 54.390625 -7.171875 48.1875 -13.984375 
Q 42 -20.796875 29.203125 -20.796875 
Q 24.46875 -20.796875 20.265625 -20.09375 
Q 16.0625 -19.390625 12.109375 -17.921875 
L 12.109375 -9.1875 
Q 16.0625 -11.328125 19.921875 -12.34375 
Q 23.78125 -13.375 27.78125 -13.375 
Q 36.625 -13.375 41.015625 -8.765625 
Q 45.40625 -4.15625 45.40625 5.171875 
L 45.40625 9.625 
Q 42.625 4.78125 38.28125 2.390625 
Q 33.9375 0 27.875 0 
Q 17.828125 0 11.671875 7.65625 
Q 5.515625 15.328125 5.515625 27.984375 
Q 5.515625 40.671875 11.671875 48.328125 
Q 17.828125 56 27.875 56 
Q 33.9375 56 38.28125 53.609375 
Q 42.625 51.21875 45.40625 46.390625 
L 45.40625 54.6875 
L 54.390625 54.6875 
z
" id="DejaVuSans-103"/>
       <path d="M 32.171875 -5.078125 
Q 28.375 -14.84375 24.75 -17.8125 
Q 21.140625 -20.796875 15.09375 -20.796875 
L 7.90625 -20.796875 
L 7.90625 -13.28125 
L 13.1875 -13.28125 
Q 16.890625 -13.28125 18.9375 -11.515625 
Q 21 -9.765625 23.484375 -3.21875 
L 25.09375 0.875 
L 2.984375 54.6875 
L 12.5 54.6875 
L 29.59375 11.921875 
L 46.6875 54.6875 
L 56.203125 54.6875 
z
" id="DejaVuSans-121"/>
      </defs>
      <use xlink:href="#DejaVuSans-115"/>
      <use x="52.099609" xlink:href="#DejaVuSans-116"/>
      <use x="91.308594" xlink:href="#DejaVuSans-114"/>
      <use x="132.421875" xlink:href="#DejaVuSans-97"/>
      <use x="193.701172" xlink:href="#DejaVuSans-116"/>
      <use x="232.910156" xlink:href="#DejaVuSans-101"/>
      <use x="294.433594" xlink:href="#DejaVuSans-103"/>
      <use x="357.910156" xlink:href="#DejaVuSans-121"/>
     </g>
    </g>
    <g id="line2d_16">
     <path d="M 56.36 53.696563 
L 76.36 53.696563 
" style="fill:none;stroke:#ff7f0e;stroke-linecap:square;stroke-width:1.5;"/>
    </g>
    <g id="line2d_17"/>
    <g id="text_9">
     <!-- benchmark -->
     <g transform="translate(84.36 57.196563)scale(0.1 -0.1)">
      <defs>
       <path d="M 48.6875 27.296875 
Q 48.6875 37.203125 44.609375 42.84375 
Q 40.53125 48.484375 33.40625 48.484375 
Q 26.265625 48.484375 22.1875 42.84375 
Q 18.109375 37.203125 18.109375 27.296875 
Q 18.109375 17.390625 22.1875 11.75 
Q 26.265625 6.109375 33.40625 6.109375 
Q 40.53125 6.109375 44.609375 11.75 
Q 48.6875 17.390625 48.6875 27.296875 
z
M 18.109375 46.390625 
Q 20.953125 51.265625 25.265625 53.625 
Q 29.59375 56 35.59375 56 
Q 45.5625 56 51.78125 48.09375 
Q 58.015625 40.1875 58.015625 27.296875 
Q 58.015625 14.40625 51.78125 6.484375 
Q 45.5625 -1.421875 35.59375 -1.421875 
Q 29.59375 -1.421875 25.265625 0.953125 
Q 20.953125 3.328125 18.109375 8.203125 
L 18.109375 0 
L 9.078125 0 
L 9.078125 75.984375 
L 18.109375 75.984375 
z
" id="DejaVuSans-98"/>
       <path d="M 48.78125 52.59375 
L 48.78125 44.1875 
Q 44.96875 46.296875 41.140625 47.34375 
Q 37.3125 48.390625 33.40625 48.390625 
Q 24.65625 48.390625 19.8125 42.84375 
Q 14.984375 37.3125 14.984375 27.296875 
Q 14.984375 17.28125 19.8125 11.734375 
Q 24.65625 6.203125 33.40625 6.203125 
Q 37.3125 6.203125 41.140625 7.25 
Q 44.96875 8.296875 48.78125 10.40625 
L 48.78125 2.09375 
Q 45.015625 0.34375 40.984375 -0.53125 
Q 36.96875 -1.421875 32.421875 -1.421875 
Q 20.0625 -1.421875 12.78125 6.34375 
Q 5.515625 14.109375 5.515625 27.296875 
Q 5.515625 40.671875 12.859375 48.328125 
Q 20.21875 56 33.015625 56 
Q 37.15625 56 41.109375 55.140625 
Q 45.0625 54.296875 48.78125 52.59375 
z
" id="DejaVuSans-99"/>
       <path d="M 54.890625 33.015625 
L 54.890625 0 
L 45.90625 0 
L 45.90625 32.71875 
Q 45.90625 40.484375 42.875 44.328125 
Q 39.84375 48.1875 33.796875 48.1875 
Q 26.515625 48.1875 22.3125 43.546875 
Q 18.109375 38.921875 18.109375 30.90625 
L 18.109375 0 
L 9.078125 0 
L 9.078125 75.984375 
L 18.109375 75.984375 
L 18.109375 46.1875 
Q 21.34375 51.125 25.703125 53.5625 
Q 30.078125 56 35.796875 56 
Q 45.21875 56 50.046875 50.171875 
Q 54.890625 44.34375 54.890625 33.015625 
z
" id="DejaVuSans-104"/>
       <path d="M 52 44.1875 
Q 55.375 50.25 60.0625 53.125 
Q 64.75 56 71.09375 56 
Q 79.640625 56 84.28125 50.015625 
Q 88.921875 44.046875 88.921875 33.015625 
L 88.921875 0 
L 79.890625 0 
L 79.890625 32.71875 
Q 79.890625 40.578125 77.09375 44.375 
Q 74.3125 48.1875 68.609375 48.1875 
Q 61.625 48.1875 57.5625 43.546875 
Q 53.515625 38.921875 53.515625 30.90625 
L 53.515625 0 
L 44.484375 0 
L 44.484375 32.71875 
Q 44.484375 40.625 41.703125 44.40625 
Q 38.921875 48.1875 33.109375 48.1875 
Q 26.21875 48.1875 22.15625 43.53125 
Q 18.109375 38.875 18.109375 30.90625 
L 18.109375 0 
L 9.078125 0 
L 9.078125 54.6875 
L 18.109375 54.6875 
L 18.109375 46.1875 
Q 21.1875 51.21875 25.484375 53.609375 
Q 29.78125 56 35.6875 56 
Q 41.65625 56 45.828125 52.96875 
Q 50 49.953125 52 44.1875 
z
" id="DejaVuSans-109"/>
       <path d="M 9.078125 75.984375 
L 18.109375 75.984375 
L 18.109375 31.109375 
L 44.921875 54.6875 
L 56.390625 54.6875 
L 27.390625 29.109375 
L 57.625 0 
L 45.90625 0 
L 18.109375 26.703125 
L 18.109375 0 
L 9.078125 0 
z
" id="DejaVuSans-107"/>
      </defs>
      <use xlink:href="#DejaVuSans-98"/>
      <use x="63.476562" xlink:href="#DejaVuSans-101"/>
      <use x="125" xlink:href="#DejaVuSans-110"/>
      <use x="188.378906" xlink:href="#DejaVuSans-99"/>
      <use x="243.359375" xlink:href="#DejaVuSans-104"/>
      <use x="306.738281" xlink:href="#DejaVuSans-109"/>
      <use x="404.150391" xlink:href="#DejaVuSans-97"/>
      <use x="465.429688" xlink:href="#DejaVuSans-114"/>
      <use x="506.542969" xlink:href="#DejaVuSans-107"/>
     </g>
    </g>
    <g id="line2d_18">
     <path d="M 56.36 68.374687 
L 76.36 68.374687 
" style="fill:none;stroke:#2ca02c;stroke-linecap:square;stroke-width:1.5;"/>
    </g>
    <g id="line2d_19"/>
    <g id="text_10">
     <!-- excess -->
     <g transform="translate(84.36 71.874687)scale(0.1 -0.1)">
      <defs>
       <path d="M 54.890625 54.6875 
L 35.109375 28.078125 
L 55.90625 0 
L 45.3125 0 
L 29.390625 21.484375 
L 13.484375 0 
L 2.875 0 
L 24.125 28.609375 
L 4.6875 54.6875 
L 15.28125 54.6875 
L 29.78125 35.203125 
L 44.28125 54.6875 
z
" id="DejaVuSans-120"/>
      </defs>
      <use xlink:href="#DejaVuSans-101"/>
      <use x="59.773438" xlink:href="#DejaVuSans-120"/>
      <use x="117.203125" xlink:href="#DejaVuSans-99"/>
      <use x="172.183594" xlink:href="#DejaVuSans-101"/>
      <use x="233.707031" xlink:href="#DejaVuSans-115"/>
      <use x="285.806641" xlink:href="#DejaVuSans-115"/>
     </g>
    </g>
   </g>
  </g>
 </g>
 <defs>
  <clipPath id="p14f8f103e1">
   <rect height="391.78" width="1093.84" x="47.36" y="25.92"/>
  </clipPath>
 </defs>
</svg>
