<?xml version="1.0" encoding="utf-8" standalone="no"?>
<!DOCTYPE svg PUBLIC "-//W3C//DTD SVG 1.1//EN"
  "http://www.w3.org/Graphics/SVG/1.1/DTD/svg11.dtd">
<!-- Created with matplotlib (https://matplotlib.org/) -->
<svg height="374.4pt" version="1.1" viewBox="0 0 1152 374.4" width="1152pt" xmlns="http://www.w3.org/2000/svg" xmlns:xlink="http://www.w3.org/1999/xlink">
 <metadata>
  <rdf:RDF xmlns:cc="http://creativecommons.org/ns#" xmlns:dc="http://purl.org/dc/elements/1.1/" xmlns:rdf="http://www.w3.org/1999/02/22-rdf-syntax-ns#">
   <cc:Work>
    <dc:type rdf:resource="http://purl.org/dc/dcmitype/StillImage"/>
    <dc:date>2023-10-11T16:36:54.014702</dc:date>
    <dc:format>image/svg+xml</dc:format>
    <dc:creator>
     <cc:Agent>
      <dc:title>Matplotlib v3.3.4, https://matplotlib.org/</dc:title>
     </cc:Agent>
    </dc:creator>
   </cc:Work>
  </rdf:RDF>
 </metadata>
 <defs>
  <style type="text/css">*{stroke-linecap:butt;stroke-linejoin:round;}</style>
 </defs>
 <g id="figure_1">
  <g id="patch_1">
   <path d="M 0 374.4 
L 1152 374.4 
L 1152 0 
L 0 0 
z
" style="fill:#ffffff;"/>
  </g>
  <g id="axes_1">
   <g id="patch_2">
    <path d="M 47.3 360.1 
L 1141.2 360.1 
L 1141.2 25.92 
L 47.3 25.92 
z
" style="fill:#ffffff;"/>
   </g>
   <g id="matplotlib.axis_1"/>
   <g id="matplotlib.axis_2">
    <g id="ytick_1">
     <g id="line2d_1">
      <path clip-path="url(#pc461065b8c)" d="M 47.3 337.542245 
L 1141.2 337.542245 
" style="fill:none;stroke:#b0b0b0;stroke-linecap:square;stroke-width:0.8;"/>
     </g>
     <g id="line2d_2">
      <defs>
       <path d="M 0 0 
L -3.5 0 
" id="m3ee45fdb6c" style="stroke:#000000;stroke-width:0.8;"/>
      </defs>
      <g>
       <use style="stroke:#000000;stroke-width:0.8;" x="47.3" xlink:href="#m3ee45fdb6c" y="337.542245"/>
      </g>
     </g>
     <g id="text_1">
      <!-- 0.5 -->
      <g transform="translate(24.396875 341.341464)scale(0.1 -0.1)">
       <defs>
        <path d="M 31.78125 66.40625 
Q 24.171875 66.40625 20.328125 58.90625 
Q 16.5 51.421875 16.5 36.375 
Q 16.5 21.390625 20.328125 13.890625 
Q 24.171875 6.390625 31.78125 6.390625 
Q 39.453125 6.390625 43.28125 13.890625 
Q 47.125 21.390625 47.125 36.375 
Q 47.125 51.421875 43.28125 58.90625 
Q 39.453125 66.40625 31.78125 66.40625 
z
M 31.78125 74.21875 
Q 44.046875 74.21875 50.515625 64.515625 
Q 56.984375 54.828125 56.984375 36.375 
Q 56.984375 17.96875 50.515625 8.265625 
Q 44.046875 -1.421875 31.78125 -1.421875 
Q 19.53125 -1.421875 13.0625 8.265625 
Q 6.59375 17.96875 6.59375 36.375 
Q 6.59375 54.828125 13.0625 64.515625 
Q 19.53125 74.21875 31.78125 74.21875 
z
" id="DejaVuSans-48"/>
        <path d="M 10.6875 12.40625 
L 21 12.40625 
L 21 0 
L 10.6875 0 
z
" id="DejaVuSans-46"/>
        <path d="M 10.796875 72.90625 
L 49.515625 72.90625 
L 49.515625 64.59375 
L 19.828125 64.59375 
L 19.828125 46.734375 
Q 21.96875 47.46875 24.109375 47.828125 
Q 26.265625 48.1875 28.421875 48.1875 
Q 40.625 48.1875 47.75 41.5 
Q 54.890625 34.8125 54.890625 23.390625 
Q 54.890625 11.625 47.5625 5.09375 
Q 40.234375 -1.421875 26.90625 -1.421875 
Q 22.3125 -1.421875 17.546875 -0.640625 
Q 12.796875 0.140625 7.71875 1.703125 
L 7.71875 11.625 
Q 12.109375 9.234375 16.796875 8.0625 
Q 21.484375 6.890625 26.703125 6.890625 
Q 35.15625 6.890625 40.078125 11.328125 
Q 45.015625 15.765625 45.015625 23.390625 
Q 45.015625 31 40.078125 35.4375 
Q 35.15625 39.890625 26.703125 39.890625 
Q 22.75 39.890625 18.8125 39.015625 
Q 14.890625 38.140625 10.796875 36.28125 
z
" id="DejaVuSans-53"/>
       </defs>
       <use xlink:href="#DejaVuSans-48"/>
       <use x="63.623047" xlink:href="#DejaVuSans-46"/>
       <use x="95.410156" xlink:href="#DejaVuSans-53"/>
      </g>
     </g>
    </g>
    <g id="ytick_2">
     <g id="line2d_3">
      <path clip-path="url(#pc461065b8c)" d="M 47.3 281.338219 
L 1141.2 281.338219 
" style="fill:none;stroke:#b0b0b0;stroke-linecap:square;stroke-width:0.8;"/>
     </g>
     <g id="line2d_4">
      <g>
       <use style="stroke:#000000;stroke-width:0.8;" x="47.3" xlink:href="#m3ee45fdb6c" y="281.338219"/>
      </g>
     </g>
     <g id="text_2">
      <!-- 1.0 -->
      <g transform="translate(24.396875 285.137437)scale(0.1 -0.1)">
       <defs>
        <path d="M 12.40625 8.296875 
L 28.515625 8.296875 
L 28.515625 63.921875 
L 10.984375 60.40625 
L 10.984375 69.390625 
L 28.421875 72.90625 
L 38.28125 72.90625 
L 38.28125 8.296875 
L 54.390625 8.296875 
L 54.390625 0 
L 12.40625 0 
z
" id="DejaVuSans-49"/>
       </defs>
       <use xlink:href="#DejaVuSans-49"/>
       <use x="63.623047" xlink:href="#DejaVuSans-46"/>
       <use x="95.410156" xlink:href="#DejaVuSans-48"/>
      </g>
     </g>
    </g>
    <g id="ytick_3">
     <g id="line2d_5">
      <path clip-path="url(#pc461065b8c)" d="M 47.3 225.134192 
L 1141.2 225.134192 
" style="fill:none;stroke:#b0b0b0;stroke-linecap:square;stroke-width:0.8;"/>
     </g>
     <g id="line2d_6">
      <g>
       <use style="stroke:#000000;stroke-width:0.8;" x="47.3" xlink:href="#m3ee45fdb6c" y="225.134192"/>
      </g>
     </g>
     <g id="text_3">
      <!-- 1.5 -->
      <g transform="translate(24.396875 228.933411)scale(0.1 -0.1)">
       <use xlink:href="#DejaVuSans-49"/>
       <use x="63.623047" xlink:href="#DejaVuSans-46"/>
       <use x="95.410156" xlink:href="#DejaVuSans-53"/>
      </g>
     </g>
    </g>
    <g id="ytick_4">
     <g id="line2d_7">
      <path clip-path="url(#pc461065b8c)" d="M 47.3 168.930166 
L 1141.2 168.930166 
" style="fill:none;stroke:#b0b0b0;stroke-linecap:square;stroke-width:0.8;"/>
     </g>
     <g id="line2d_8">
      <g>
       <use style="stroke:#000000;stroke-width:0.8;" x="47.3" xlink:href="#m3ee45fdb6c" y="168.930166"/>
      </g>
     </g>
     <g id="text_4">
      <!-- 2.0 -->
      <g transform="translate(24.396875 172.729384)scale(0.1 -0.1)">
       <defs>
        <path d="M 19.1875 8.296875 
L 53.609375 8.296875 
L 53.609375 0 
L 7.328125 0 
L 7.328125 8.296875 
Q 12.9375 14.109375 22.625 23.890625 
Q 32.328125 33.6875 34.8125 36.53125 
Q 39.546875 41.84375 41.421875 45.53125 
Q 43.3125 49.21875 43.3125 52.78125 
Q 43.3125 58.59375 39.234375 62.25 
Q 35.15625 65.921875 28.609375 65.921875 
Q 23.96875 65.921875 18.8125 64.3125 
Q 13.671875 62.703125 7.8125 59.421875 
L 7.8125 69.390625 
Q 13.765625 71.78125 18.9375 73 
Q 24.125 74.21875 28.421875 74.21875 
Q 39.75 74.21875 46.484375 68.546875 
Q 53.21875 62.890625 53.21875 53.421875 
Q 53.21875 48.921875 51.53125 44.890625 
Q 49.859375 40.875 45.40625 35.40625 
Q 44.1875 33.984375 37.640625 27.21875 
Q 31.109375 20.453125 19.1875 8.296875 
z
" id="DejaVuSans-50"/>
       </defs>
       <use xlink:href="#DejaVuSans-50"/>
       <use x="63.623047" xlink:href="#DejaVuSans-46"/>
       <use x="95.410156" xlink:href="#DejaVuSans-48"/>
      </g>
     </g>
    </g>
    <g id="ytick_5">
     <g id="line2d_9">
      <path clip-path="url(#pc461065b8c)" d="M 47.3 112.726139 
L 1141.2 112.726139 
" style="fill:none;stroke:#b0b0b0;stroke-linecap:square;stroke-width:0.8;"/>
     </g>
     <g id="line2d_10">
      <g>
       <use style="stroke:#000000;stroke-width:0.8;" x="47.3" xlink:href="#m3ee45fdb6c" y="112.726139"/>
      </g>
     </g>
     <g id="text_5">
      <!-- 2.5 -->
      <g transform="translate(24.396875 116.525358)scale(0.1 -0.1)">
       <use xlink:href="#DejaVuSans-50"/>
       <use x="63.623047" xlink:href="#DejaVuSans-46"/>
       <use x="95.410156" xlink:href="#DejaVuSans-53"/>
      </g>
     </g>
    </g>
    <g id="ytick_6">
     <g id="line2d_11">
      <path clip-path="url(#pc461065b8c)" d="M 47.3 56.522113 
L 1141.2 56.522113 
" style="fill:none;stroke:#b0b0b0;stroke-linecap:square;stroke-width:0.8;"/>
     </g>
     <g id="line2d_12">
      <g>
       <use style="stroke:#000000;stroke-width:0.8;" x="47.3" xlink:href="#m3ee45fdb6c" y="56.522113"/>
      </g>
     </g>
     <g id="text_6">
      <!-- 3.0 -->
      <g transform="translate(24.396875 60.321331)scale(0.1 -0.1)">
       <defs>
        <path d="M 40.578125 39.3125 
Q 47.65625 37.796875 51.625 33 
Q 55.609375 28.21875 55.609375 21.1875 
Q 55.609375 10.40625 48.1875 4.484375 
Q 40.765625 -1.421875 27.09375 -1.421875 
Q 22.515625 -1.421875 17.65625 -0.515625 
Q 12.796875 0.390625 7.625 2.203125 
L 7.625 11.71875 
Q 11.71875 9.328125 16.59375 8.109375 
Q 21.484375 6.890625 26.8125 6.890625 
Q 36.078125 6.890625 40.9375 10.546875 
Q 45.796875 14.203125 45.796875 21.1875 
Q 45.796875 27.640625 41.28125 31.265625 
Q 36.765625 34.90625 28.71875 34.90625 
L 20.21875 34.90625 
L 20.21875 43.015625 
L 29.109375 43.015625 
Q 36.375 43.015625 40.234375 45.921875 
Q 44.09375 48.828125 44.09375 54.296875 
Q 44.09375 59.90625 40.109375 62.90625 
Q 36.140625 65.921875 28.71875 65.921875 
Q 24.65625 65.921875 20.015625 65.03125 
Q 15.375 64.15625 9.8125 62.3125 
L 9.8125 71.09375 
Q 15.4375 72.65625 20.34375 73.4375 
Q 25.25 74.21875 29.59375 74.21875 
Q 40.828125 74.21875 47.359375 69.109375 
Q 53.90625 64.015625 53.90625 55.328125 
Q 53.90625 49.265625 50.4375 45.09375 
Q 46.96875 40.921875 40.578125 39.3125 
z
" id="DejaVuSans-51"/>
       </defs>
       <use xlink:href="#DejaVuSans-51"/>
       <use x="63.623047" xlink:href="#DejaVuSans-46"/>
       <use x="95.410156" xlink:href="#DejaVuSans-48"/>
      </g>
     </g>
    </g>
    <g id="text_7">
     <!-- net value -->
     <g transform="translate(18.317187 216.462344)rotate(-90)scale(0.1 -0.1)">
      <defs>
       <path d="M 54.890625 33.015625 
L 54.890625 0 
L 45.90625 0 
L 45.90625 32.71875 
Q 45.90625 40.484375 42.875 44.328125 
Q 39.84375 48.1875 33.796875 48.1875 
Q 26.515625 48.1875 22.3125 43.546875 
Q 18.109375 38.921875 18.109375 30.90625 
L 18.109375 0 
L 9.078125 0 
L 9.078125 54.6875 
L 18.109375 54.6875 
L 18.109375 46.1875 
Q 21.34375 51.125 25.703125 53.5625 
Q 30.078125 56 35.796875 56 
Q 45.21875 56 50.046875 50.171875 
Q 54.890625 44.34375 54.890625 33.015625 
z
" id="DejaVuSans-110"/>
       <path d="M 56.203125 29.59375 
L 56.203125 25.203125 
L 14.890625 25.203125 
Q 15.484375 15.921875 20.484375 11.0625 
Q 25.484375 6.203125 34.421875 6.203125 
Q 39.59375 6.203125 44.453125 7.46875 
Q 49.3125 8.734375 54.109375 11.28125 
L 54.109375 2.78125 
Q 49.265625 0.734375 44.1875 -0.34375 
Q 39.109375 -1.421875 33.890625 -1.421875 
Q 20.796875 -1.421875 13.15625 6.1875 
Q 5.515625 13.8125 5.515625 26.8125 
Q 5.515625 40.234375 12.765625 48.109375 
Q 20.015625 56 32.328125 56 
Q 43.359375 56 49.78125 48.890625 
Q 56.203125 41.796875 56.203125 29.59375 
z
M 47.21875 32.234375 
Q 47.125 39.59375 43.09375 43.984375 
Q 39.0625 48.390625 32.421875 48.390625 
Q 24.90625 48.390625 20.390625 44.140625 
Q 15.875 39.890625 15.1875 32.171875 
z
" id="DejaVuSans-101"/>
       <path d="M 18.3125 70.21875 
L 18.3125 54.6875 
L 36.8125 54.6875 
L 36.8125 47.703125 
L 18.3125 47.703125 
L 18.3125 18.015625 
Q 18.3125 11.328125 20.140625 9.421875 
Q 21.96875 7.515625 27.59375 7.515625 
L 36.8125 7.515625 
L 36.8125 0 
L 27.59375 0 
Q 17.1875 0 13.234375 3.875 
Q 9.28125 7.765625 9.28125 18.015625 
L 9.28125 47.703125 
L 2.6875 47.703125 
L 2.6875 54.6875 
L 9.28125 54.6875 
L 9.28125 70.21875 
z
" id="DejaVuSans-116"/>
       <path id="DejaVuSans-32"/>
       <path d="M 2.984375 54.6875 
L 12.5 54.6875 
L 29.59375 8.796875 
L 46.6875 54.6875 
L 56.203125 54.6875 
L 35.6875 0 
L 23.484375 0 
z
" id="DejaVuSans-118"/>
       <path d="M 34.28125 27.484375 
Q 23.390625 27.484375 19.1875 25 
Q 14.984375 22.515625 14.984375 16.5 
Q 14.984375 11.71875 18.140625 8.90625 
Q 21.296875 6.109375 26.703125 6.109375 
Q 34.1875 6.109375 38.703125 11.40625 
Q 43.21875 16.703125 43.21875 25.484375 
L 43.21875 27.484375 
z
M 52.203125 31.203125 
L 52.203125 0 
L 43.21875 0 
L 43.21875 8.296875 
Q 40.140625 3.328125 35.546875 0.953125 
Q 30.953125 -1.421875 24.3125 -1.421875 
Q 15.921875 -1.421875 10.953125 3.296875 
Q 6 8.015625 6 15.921875 
Q 6 25.140625 12.171875 29.828125 
Q 18.359375 34.515625 30.609375 34.515625 
L 43.21875 34.515625 
L 43.21875 35.40625 
Q 43.21875 41.609375 39.140625 45 
Q 35.0625 48.390625 27.6875 48.390625 
Q 23 48.390625 18.546875 47.265625 
Q 14.109375 46.140625 10.015625 43.890625 
L 10.015625 52.203125 
Q 14.9375 54.109375 19.578125 55.046875 
Q 24.21875 56 28.609375 56 
Q 40.484375 56 46.34375 49.84375 
Q 52.203125 43.703125 52.203125 31.203125 
z
" id="DejaVuSans-97"/>
       <path d="M 9.421875 75.984375 
L 18.40625 75.984375 
L 18.40625 0 
L 9.421875 0 
z
" id="DejaVuSans-108"/>
       <path d="M 8.5 21.578125 
L 8.5 54.6875 
L 17.484375 54.6875 
L 17.484375 21.921875 
Q 17.484375 14.15625 20.5 10.265625 
Q 23.53125 6.390625 29.59375 6.390625 
Q 36.859375 6.390625 41.078125 11.03125 
Q 45.3125 15.671875 45.3125 23.6875 
L 45.3125 54.6875 
L 54.296875 54.6875 
L 54.296875 0 
L 45.3125 0 
L 45.3125 8.40625 
Q 42.046875 3.421875 37.71875 1 
Q 33.40625 -1.421875 27.6875 -1.421875 
Q 18.265625 -1.421875 13.375 4.4375 
Q 8.5 10.296875 8.5 21.578125 
z
M 31.109375 56 
z
" id="DejaVuSans-117"/>
      </defs>
      <use xlink:href="#DejaVuSans-110"/>
      <use x="63.378906" xlink:href="#DejaVuSans-101"/>
      <use x="124.902344" xlink:href="#DejaVuSans-116"/>
      <use x="164.111328" xlink:href="#DejaVuSans-32"/>
      <use x="195.898438" xlink:href="#DejaVuSans-118"/>
      <use x="255.078125" xlink:href="#DejaVuSans-97"/>
      <use x="316.357422" xlink:href="#DejaVuSans-108"/>
      <use x="344.140625" xlink:href="#DejaVuSans-117"/>
      <use x="407.519531" xlink:href="#DejaVuSans-101"/>
     </g>
    </g>
   </g>
   <g id="line2d_13">
    <path clip-path="url(#pc461065b8c)" d="M 97.022727 284.025725 
L 101.542975 283.564425 
L 106.063223 288.216836 
L 110.583471 286.765376 
L 124.144215 289.345077 
L 128.664463 296.236629 
L 133.184711 297.887829 
L 137.704959 299.361014 
L 142.225207 298.573339 
L 155.78595 297.652626 
L 160.306198 293.620271 
L 164.826446 294.304575 
L 169.346694 296.993188 
L 173.866942 293.995776 
L 187.427686 286.401096 
L 191.947934 288.862504 
L 196.468182 293.796221 
L 200.98843 294.098622 
L 205.508678 295.355062 
L 219.069421 296.195915 
L 223.589669 300.18092 
L 228.109917 303.385032 
L 232.630165 302.782813 
L 237.150413 305.942482 
L 250.711157 308.591917 
L 255.231405 309.15418 
L 259.751653 306.045598 
L 264.271901 308.239968 
L 268.792149 315.9895 
L 282.352893 318.085639 
L 286.87314 315.950428 
L 291.393388 315.330518 
L 295.913636 318.205125 
L 300.433884 316.829795 
L 313.994628 319.651023 
L 318.514876 322.262725 
L 323.035124 320.169496 
L 327.555372 322.197148 
L 332.07562 321.315739 
L 345.636364 318.545792 
L 350.156612 320.113869 
L 354.67686 321.144475 
L 359.197107 320.865278 
L 363.717355 324.577706 
L 381.798347 325.923966 
L 386.318595 329.16797 
L 390.838843 326.784496 
L 395.359091 321.118022 
L 408.919835 322.492333 
L 413.440083 324.441794 
L 417.960331 324.558853 
L 422.480579 319.104352 
L 427.000826 321.819817 
L 440.56157 317.287488 
L 445.081818 318.057233 
L 449.602066 320.135297 
L 454.122314 320.27945 
L 458.642562 318.629752 
L 472.203306 318.366471 
L 476.723554 317.769847 
L 481.243802 316.851089 
L 485.76405 314.939788 
L 490.284298 311.900994 
L 503.845041 310.056633 
L 512.885537 321.170022 
L 517.405785 320.34835 
L 521.926033 319.031388 
L 535.486777 314.397714 
L 540.007025 315.532317 
L 544.527273 317.915308 
L 549.047521 315.007222 
L 553.567769 320.560198 
L 567.128512 317.738941 
L 571.64876 315.603553 
L 576.169008 319.640379 
L 580.689256 316.324252 
L 585.209504 312.188726 
L 598.770248 315.643545 
L 603.290496 315.390636 
L 607.810744 316.037343 
L 612.330992 321.735642 
L 616.85124 320.080016 
L 630.411983 320.783523 
L 634.932231 320.088416 
L 639.452479 322.01755 
L 643.972727 325.902945 
L 648.492975 327.986732 
L 662.053719 329.076546 
L 666.573967 326.261281 
L 671.094215 326.791566 
L 675.614463 328.868167 
L 680.134711 329.389618 
L 693.695455 330.139543 
L 698.215702 331.182606 
L 702.73595 335.80842 
L 707.256198 335.59014 
L 711.776446 334.856463 
L 725.33719 334.601552 
L 729.857438 336.198045 
L 734.377686 331.583729 
L 743.418182 327.537641 
L 756.978926 326.407024 
L 761.499174 330.574304 
L 766.019421 331.969638 
L 770.539669 333.553832 
L 775.059917 331.608808 
L 788.620661 330.870287 
L 793.140909 329.285686 
L 797.661157 327.213638 
L 802.181405 327.958941 
L 806.701653 328.227252 
L 820.262397 328.066183 
L 829.302893 332.324716 
L 833.82314 329.162021 
L 838.343388 328.817267 
L 851.904132 328.363088 
L 856.42438 329.332453 
L 860.944628 326.330372 
L 865.464876 327.986663 
L 869.985124 330.880826 
L 883.545868 327.340313 
L 888.066116 327.589603 
L 892.586364 328.782688 
L 897.106612 327.781195 
L 901.62686 325.250099 
L 915.187603 331.041178 
L 919.707851 330.551187 
L 924.228099 325.697492 
L 928.748347 324.269757 
L 933.268595 326.794031 
L 946.829339 328.228328 
L 951.349587 327.559423 
L 955.869835 332.044461 
L 960.390083 331.911538 
L 964.910331 329.704218 
L 978.471074 327.180552 
L 982.991322 331.103632 
L 987.51157 333.023018 
L 992.031818 333.113893 
L 996.552066 332.235238 
L 1010.11281 327.872301 
L 1014.633058 328.508592 
L 1019.153306 327.848648 
L 1023.673554 327.47429 
L 1028.193802 325.526717 
L 1041.754545 323.587871 
L 1046.274793 325.27347 
L 1050.795041 325.180927 
L 1055.315289 329.283916 
L 1059.835537 328.317838 
L 1073.396281 325.831096 
L 1077.916529 328.550397 
L 1086.957025 326.024832 
L 1091.477273 328.213523 
L 1091.477273 328.213523 
" style="fill:none;stroke:#1f77b4;stroke-linecap:square;stroke-width:1.5;"/>
   </g>
   <g id="line2d_14">
    <path clip-path="url(#pc461065b8c)" d="M 97.022727 277.858361 
L 101.542975 280.178802 
L 106.063223 284.582088 
L 110.583471 274.655054 
L 124.144215 268.023168 
L 128.664463 269.138147 
L 133.184711 265.239409 
L 137.704959 263.312341 
L 142.225207 261.881612 
L 155.78595 265.233466 
L 160.306198 263.773892 
L 164.826446 263.613546 
L 173.866942 272.364783 
L 187.427686 282.563672 
L 191.947934 286.841496 
L 196.468182 281.875369 
L 200.98843 289.171613 
L 205.508678 294.758053 
L 219.069421 293.121654 
L 223.589669 290.773835 
L 228.109917 285.18453 
L 232.630165 286.384057 
L 237.150413 276.507649 
L 250.711157 280.063244 
L 255.231405 286.150719 
L 259.751653 278.355178 
L 264.271901 280.550688 
L 268.792149 277.390348 
L 282.352893 274.671987 
L 286.87314 273.291491 
L 291.393388 274.627645 
L 295.913636 275.228127 
L 300.433884 267.983564 
L 313.994628 265.790715 
L 318.514876 261.729089 
L 323.035124 252.946964 
L 327.555372 248.839832 
L 332.07562 241.666949 
L 345.636364 244.245655 
L 350.156612 238.726638 
L 354.67686 239.291752 
L 359.197107 229.124405 
L 363.717355 228.315763 
L 377.278099 230.96743 
L 381.798347 220.338328 
L 386.318595 220.243134 
L 390.838843 209.484841 
L 395.359091 207.362864 
L 408.919835 208.153307 
L 413.440083 210.40098 
L 417.960331 205.663843 
L 422.480579 204.67425 
L 427.000826 201.293699 
L 440.56157 185.712327 
L 445.081818 195.382101 
L 449.602066 188.605227 
L 454.122314 184.647433 
L 458.642562 169.662309 
L 472.203306 175.621679 
L 476.723554 173.98451 
L 481.243802 180.266227 
L 485.76405 176.342871 
L 490.284298 195.338557 
L 503.845041 186.911026 
L 508.365289 187.061022 
L 512.885537 187.727903 
L 517.405785 183.927095 
L 521.926033 170.027814 
L 535.486777 176.634462 
L 540.007025 178.272977 
L 544.527273 178.324731 
L 549.047521 179.804336 
L 553.567769 174.00392 
L 567.128512 167.826598 
L 571.64876 160.39892 
L 576.169008 162.488496 
L 580.689256 166.246307 
L 585.209504 157.152809 
L 598.770248 165.895458 
L 603.290496 166.211439 
L 607.810744 174.259589 
L 612.330992 177.005549 
L 616.85124 178.531975 
L 630.411983 183.316295 
L 634.932231 195.219632 
L 639.452479 197.458027 
L 643.972727 200.865024 
L 648.492975 189.89837 
L 662.053719 177.046549 
L 666.573967 172.584593 
L 671.094215 160.212311 
L 675.614463 159.091965 
L 680.134711 150.940872 
L 693.695455 150.456076 
L 698.215702 166.353087 
L 702.73595 175.808036 
L 707.256198 164.745832 
L 711.776446 163.672549 
L 725.33719 158.253379 
L 729.857438 157.44723 
L 734.377686 163.789972 
L 738.897934 158.922659 
L 743.418182 168.350269 
L 756.978926 163.108455 
L 761.499174 162.875291 
L 766.019421 173.502792 
L 770.539669 170.972316 
L 775.059917 153.341103 
L 788.620661 163.454168 
L 793.140909 159.648781 
L 797.661157 162.185187 
L 802.181405 167.822688 
L 806.701653 169.375606 
L 820.262397 163.478342 
L 824.782645 161.947161 
L 829.302893 170.154226 
L 833.82314 187.849301 
L 838.343388 200.545773 
L 851.904132 192.407699 
L 856.42438 181.077693 
L 860.944628 190.48512 
L 865.464876 189.608113 
L 869.985124 202.677392 
L 883.545868 210.437153 
L 888.066116 205.044629 
L 892.586364 207.014771 
L 897.106612 216.636898 
L 901.62686 209.532872 
L 915.187603 213.38352 
L 919.707851 220.243042 
L 924.228099 229.552944 
L 928.748347 231.435613 
L 933.268595 231.223351 
L 946.829339 235.707541 
L 951.349587 224.862772 
L 955.869835 232.272921 
L 960.390083 230.653744 
L 964.910331 241.554311 
L 978.471074 237.887578 
L 982.991322 246.835666 
L 987.51157 237.657326 
L 992.031818 244.86035 
L 996.552066 245.538468 
L 1010.11281 237.799583 
L 1014.633058 231.163958 
L 1019.153306 241.638501 
L 1023.673554 237.075839 
L 1028.193802 226.225848 
L 1041.754545 226.1757 
L 1046.274793 211.574415 
L 1050.795041 209.704428 
L 1055.315289 208.704407 
L 1059.835537 212.020442 
L 1073.396281 198.067797 
L 1077.916529 195.01173 
L 1082.436777 208.059241 
L 1086.957025 200.389065 
L 1091.477273 200.423123 
L 1091.477273 200.423123 
" style="fill:none;stroke:#ff7f0e;stroke-linecap:square;stroke-width:1.5;"/>
   </g>
   <g id="line2d_15">
    <path clip-path="url(#pc461065b8c)" d="M 97.022727 279.179991 
L 101.542975 275.564588 
L 106.063223 279.959299 
L 110.583471 278.776251 
L 124.144215 275.41559 
L 128.664463 280.521339 
L 133.184711 275.401619 
L 137.704959 280.886037 
L 142.225207 283.49661 
L 155.78595 284.791824 
L 160.306198 276.633392 
L 164.826446 281.098526 
L 169.346694 287.441982 
L 173.866942 290.654292 
L 187.427686 298.76356 
L 191.947934 295.601834 
L 196.468182 295.235635 
L 200.98843 292.907251 
L 205.508678 289.82192 
L 219.069421 288.085904 
L 223.589669 284.142006 
L 228.109917 283.22876 
L 232.630165 278.25866 
L 237.150413 287.092758 
L 250.711157 280.39651 
L 255.231405 289.206955 
L 259.751653 287.826435 
L 264.271901 292.274491 
L 268.792149 293.217792 
L 282.352893 291.657776 
L 286.87314 298.393179 
L 291.393388 303.565389 
L 295.913636 304.201783 
L 300.433884 298.227698 
L 313.994628 299.545211 
L 318.514876 300.982161 
L 323.035124 293.768456 
L 327.555372 290.001654 
L 332.07562 286.972342 
L 345.636364 290.300713 
L 350.156612 294.442928 
L 354.67686 297.621222 
L 359.197107 292.236859 
L 363.717355 296.9219 
L 377.278099 295.115015 
L 381.798347 290.631482 
L 386.318595 287.705716 
L 390.838843 286.492423 
L 395.359091 287.927821 
L 413.440083 299.432631 
L 417.960331 295.549801 
L 422.480579 288.369018 
L 427.000826 289.053435 
L 440.56157 285.858259 
L 445.081818 285.803463 
L 449.602066 293.436858 
L 454.122314 296.740812 
L 458.642562 292.749098 
L 472.203306 292.477212 
L 476.723554 291.468823 
L 481.243802 289.946932 
L 485.76405 289.839733 
L 490.284298 287.95299 
L 503.845041 282.973421 
L 508.365289 278.240248 
L 512.885537 281.606447 
L 517.405785 273.866368 
L 521.926033 279.965783 
L 535.486777 281.52589 
L 540.007025 283.087893 
L 544.527273 281.64104 
L 549.047521 276.910051 
L 553.567769 279.28569 
L 567.128512 283.217245 
L 571.64876 283.339982 
L 576.169008 282.903436 
L 580.689256 275.90831 
L 585.209504 274.975928 
L 598.770248 276.75527 
L 603.290496 273.013685 
L 607.810744 281.38146 
L 612.330992 276.549551 
L 616.85124 269.07852 
L 630.411983 270.816806 
L 634.932231 264.336509 
L 639.452479 257.36904 
L 643.972727 250.667431 
L 648.492975 246.875048 
L 662.053719 242.704381 
L 666.573967 247.823363 
L 671.094215 251.045876 
L 675.614463 255.315477 
L 680.134711 251.592127 
L 693.695455 244.641854 
L 698.215702 244.244741 
L 702.73595 249.032603 
L 707.256198 245.078897 
L 711.776446 246.860062 
L 725.33719 249.845531 
L 729.857438 243.377404 
L 734.377686 245.277493 
L 738.897934 233.221907 
L 743.418182 228.53476 
L 756.978926 229.91801 
L 761.499174 229.385987 
L 766.019421 223.908946 
L 770.539669 224.909219 
L 775.059917 227.269554 
L 788.620661 232.926181 
L 793.140909 242.694751 
L 797.661157 236.406244 
L 802.181405 239.715763 
L 806.701653 251.330412 
L 820.262397 250.70613 
L 824.782645 251.199548 
L 829.302893 245.734184 
L 833.82314 244.961566 
L 838.343388 242.388081 
L 851.904132 251.045582 
L 856.42438 243.510027 
L 860.944628 239.784275 
L 865.464876 235.203118 
L 869.985124 220.547464 
L 883.545868 216.561268 
L 888.066116 208.192237 
L 892.586364 202.870201 
L 897.106612 199.595429 
L 901.62686 193.990236 
L 915.187603 201.159922 
L 919.707851 213.110006 
L 924.228099 206.884339 
L 928.748347 206.535222 
L 933.268595 201.694778 
L 946.829339 213.192681 
L 951.349587 216.720848 
L 955.869835 212.085341 
L 960.390083 219.037862 
L 964.910331 225.180275 
L 978.471074 214.979754 
L 982.991322 212.649443 
L 987.51157 210.861993 
L 992.031818 212.789852 
L 996.552066 211.659419 
L 1010.11281 205.644212 
L 1014.633058 193.705439 
L 1019.153306 194.509225 
L 1023.673554 200.851573 
L 1028.193802 200.010324 
L 1041.754545 204.742209 
L 1046.274793 203.201408 
L 1050.795041 213.710306 
L 1055.315289 228.528679 
L 1059.835537 221.420517 
L 1073.396281 226.375012 
L 1077.916529 223.655186 
L 1082.436777 227.949019 
L 1086.957025 230.816616 
L 1091.477273 222.61257 
L 1091.477273 222.61257 
" style="fill:none;stroke:#2ca02c;stroke-linecap:square;stroke-width:1.5;"/>
   </g>
   <g id="line2d_16">
    <path clip-path="url(#pc461065b8c)" d="M 97.022727 282.633001 
L 101.542975 279.24778 
L 106.063223 284.796676 
L 110.583471 287.945796 
L 124.144215 296.549196 
L 128.664463 299.872568 
L 133.184711 296.020931 
L 137.704959 298.854555 
L 142.225207 304.371824 
L 155.78595 304.710278 
L 160.306198 307.662716 
L 164.826446 302.295029 
L 169.346694 300.963117 
L 173.866942 301.987267 
L 187.427686 297.904257 
L 191.947934 301.669044 
L 196.468182 306.628818 
L 200.98843 301.143882 
L 205.508678 296.581953 
L 219.069421 300.161704 
L 223.589669 298.257225 
L 228.109917 292.11095 
L 232.630165 292.036208 
L 237.150413 287.681832 
L 250.711157 283.701518 
L 255.231405 279.711234 
L 259.751653 269.126276 
L 264.271901 268.073168 
L 268.792149 274.926802 
L 282.352893 276.232788 
L 286.87314 284.187719 
L 291.393388 288.891044 
L 295.913636 295.16661 
L 300.433884 302.593083 
L 313.994628 300.623444 
L 318.514876 302.370008 
L 323.035124 303.265985 
L 327.555372 306.685206 
L 332.07562 313.189246 
L 345.636364 313.192918 
L 350.156612 318.950666 
L 354.67686 314.526788 
L 359.197107 313.465213 
L 363.717355 311.577655 
L 377.278099 314.065706 
L 381.798347 311.96644 
L 386.318595 307.343696 
L 390.838843 311.078278 
L 395.359091 309.412982 
L 408.919835 315.848226 
L 413.440083 318.92499 
L 417.960331 322.563132 
L 422.480579 322.814801 
L 427.000826 318.454809 
L 440.56157 314.648481 
L 445.081818 314.692961 
L 449.602066 315.799105 
L 454.122314 315.481541 
L 458.642562 310.895829 
L 472.203306 309.538365 
L 476.723554 311.286564 
L 481.243802 311.44675 
L 485.76405 313.531946 
L 490.284298 314.703438 
L 503.845041 318.995231 
L 508.365289 314.500916 
L 512.885537 318.143356 
L 517.405785 322.952715 
L 535.486777 327.001331 
L 540.007025 332.651048 
L 544.527273 332.20286 
L 549.047521 334.542479 
L 553.567769 333.633574 
L 567.128512 332.024311 
L 571.64876 332.73904 
L 576.169008 335.338557 
L 580.689256 332.378925 
L 585.209504 334.521647 
L 598.770248 333.628048 
L 603.290496 330.679373 
L 607.810744 336.283584 
L 612.330992 337.610079 
L 616.85124 333.453803 
L 630.411983 334.928002 
L 634.932231 334.424974 
L 639.452479 333.592738 
L 643.972727 333.248787 
L 648.492975 334.291334 
L 662.053719 334.482884 
L 666.573967 333.518177 
L 671.094215 334.199019 
L 675.614463 337.025774 
L 680.134711 338.078472 
L 693.695455 340.771445 
L 698.215702 341.177044 
L 702.73595 342.358838 
L 707.256198 344.325967 
L 711.776446 344.225312 
L 725.33719 342.140741 
L 729.857438 344.91 
L 734.377686 342.708348 
L 738.897934 342.624798 
L 743.418182 340.520909 
L 756.978926 337.671693 
L 766.019421 337.087755 
L 770.539669 334.214269 
L 775.059917 337.452774 
L 788.620661 339.421278 
L 793.140909 339.700151 
L 797.661157 339.634752 
L 802.181405 335.960815 
L 806.701653 332.469771 
L 820.262397 334.243369 
L 824.782645 331.94059 
L 829.302893 331.016679 
L 833.82314 329.513854 
L 838.343388 328.559878 
L 851.904132 323.393654 
L 856.42438 326.071915 
L 860.944628 322.868385 
L 865.464876 326.160784 
L 869.985124 325.690567 
L 883.545868 322.57234 
L 888.066116 324.922659 
L 892.586364 324.937169 
L 897.106612 320.825863 
L 901.62686 323.507898 
L 915.187603 323.857811 
L 919.707851 322.44021 
L 924.228099 326.394897 
L 928.748347 324.351767 
L 933.268595 324.719105 
L 946.829339 324.120567 
L 951.349587 326.61845 
L 955.869835 324.95852 
L 960.390083 321.172381 
L 964.910331 324.546302 
L 978.471074 324.576768 
L 982.991322 321.956578 
L 987.51157 318.61822 
L 992.031818 314.646614 
L 996.552066 315.997129 
L 1010.11281 308.843776 
L 1014.633058 306.932441 
L 1019.153306 303.932857 
L 1023.673554 304.676083 
L 1028.193802 307.091364 
L 1041.754545 300.088121 
L 1046.274793 296.53877 
L 1050.795041 295.08596 
L 1055.315289 297.452164 
L 1059.835537 297.928252 
L 1073.396281 300.898487 
L 1077.916529 301.415954 
L 1082.436777 305.003045 
L 1086.957025 303.796882 
L 1091.477273 305.54539 
L 1091.477273 305.54539 
" style="fill:none;stroke:#d62728;stroke-linecap:square;stroke-width:1.5;"/>
   </g>
   <g id="line2d_17">
    <path clip-path="url(#pc461065b8c)" d="M 97.022727 291.888233 
L 101.542975 285.247886 
L 106.063223 285.745472 
L 110.583471 277.988995 
L 124.144215 276.927822 
L 128.664463 277.885053 
L 133.184711 272.59629 
L 137.704959 273.248392 
L 142.225207 262.618909 
L 155.78595 257.018174 
L 160.306198 252.584189 
L 164.826446 245.298834 
L 169.346694 254.881217 
L 173.866942 259.145817 
L 187.427686 269.093161 
L 191.947934 263.049685 
L 196.468182 269.160901 
L 200.98843 268.325104 
L 205.508678 258.66858 
L 219.069421 260.098407 
L 223.589669 251.631318 
L 228.109917 254.117396 
L 232.630165 258.835997 
L 237.150413 253.859499 
L 250.711157 257.985167 
L 255.231405 249.599112 
L 259.751653 254.450195 
L 264.271901 260.483806 
L 268.792149 261.257332 
L 282.352893 260.096662 
L 286.87314 255.246191 
L 291.393388 258.430154 
L 295.913636 257.655102 
L 300.433884 247.32097 
L 313.994628 238.512684 
L 318.514876 232.128542 
L 323.035124 236.487174 
L 327.555372 233.728333 
L 332.07562 239.291042 
L 345.636364 236.291108 
L 350.156612 238.73286 
L 354.67686 242.976903 
L 359.197107 250.422633 
L 363.717355 247.569219 
L 377.278099 252.93809 
L 381.798347 257.628899 
L 386.318595 245.379142 
L 390.838843 238.91195 
L 395.359091 238.772325 
L 408.919835 231.507528 
L 413.440083 244.483786 
L 417.960331 243.989059 
L 422.480579 234.226899 
L 427.000826 230.997384 
L 440.56157 223.778281 
L 445.081818 233.27186 
L 449.602066 229.532232 
L 454.122314 237.243466 
L 458.642562 232.117741 
L 472.203306 229.865214 
L 476.723554 227.27029 
L 481.243802 225.175841 
L 485.76405 217.718117 
L 490.284298 205.135755 
L 503.845041 202.656672 
L 508.365289 193.776419 
L 512.885537 195.447442 
L 517.405785 179.416727 
L 521.926033 174.732593 
L 535.486777 168.066718 
L 540.007025 171.210823 
L 544.527273 180.991561 
L 549.047521 168.289964 
L 553.567769 180.140406 
L 567.128512 168.804831 
L 571.64876 168.470743 
L 576.169008 181.298377 
L 580.689256 173.814143 
L 585.209504 177.730194 
L 598.770248 187.831059 
L 603.290496 194.62349 
L 607.810744 193.779522 
L 612.330992 186.180464 
L 616.85124 194.231965 
L 630.411983 197.956835 
L 634.932231 201.55199 
L 639.452479 204.790259 
L 643.972727 207.514884 
L 648.492975 204.208565 
L 662.053719 203.437133 
L 666.573967 195.760622 
L 671.094215 191.929472 
L 675.614463 206.985888 
L 680.134711 211.787594 
L 693.695455 221.594328 
L 698.215702 219.928553 
L 707.256198 220.734805 
L 711.776446 219.171997 
L 725.33719 205.531426 
L 729.857438 202.703669 
L 734.377686 198.579351 
L 738.897934 202.688379 
L 743.418182 200.129955 
L 756.978926 202.834456 
L 761.499174 208.087136 
L 766.019421 210.919919 
L 770.539669 208.776314 
L 775.059917 214.407482 
L 788.620661 205.445379 
L 793.140909 199.663415 
L 797.661157 207.822018 
L 802.181405 201.261459 
L 806.701653 193.380801 
L 820.262397 199.347732 
L 824.782645 198.657994 
L 829.302893 193.690643 
L 833.82314 194.876478 
L 838.343388 185.078311 
L 851.904132 195.984018 
L 856.42438 192.591992 
L 860.944628 182.754797 
L 865.464876 188.016259 
L 869.985124 190.90514 
L 883.545868 193.613296 
L 888.066116 210.45533 
L 892.586364 216.811466 
L 897.106612 202.669683 
L 901.62686 197.852543 
L 915.187603 201.568668 
L 919.707851 203.484529 
L 924.228099 208.431404 
L 928.748347 194.379729 
L 933.268595 198.652287 
L 946.829339 191.487769 
L 951.349587 190.108298 
L 955.869835 181.857053 
L 960.390083 179.347511 
L 964.910331 175.831056 
L 978.471074 187.156914 
L 982.991322 179.29761 
L 987.51157 190.239523 
L 992.031818 174.442675 
L 996.552066 166.846835 
L 1010.11281 170.494204 
L 1014.633058 161.222516 
L 1019.153306 173.255977 
L 1023.673554 180.130278 
L 1028.193802 163.795407 
L 1041.754545 165.829497 
L 1046.274793 155.213314 
L 1050.795041 162.788689 
L 1055.315289 153.470524 
L 1059.835537 154.609927 
L 1073.396281 154.557768 
L 1077.916529 150.615421 
L 1082.436777 160.44629 
L 1086.957025 175.960124 
L 1091.477273 176.058065 
L 1091.477273 176.058065 
" style="fill:none;stroke:#9467bd;stroke-linecap:square;stroke-width:1.5;"/>
   </g>
   <g id="line2d_18">
    <path clip-path="url(#pc461065b8c)" d="M 97.022727 282.987927 
L 101.542975 280.546091 
L 106.063223 284.50807 
L 110.583471 280.99787 
L 124.144215 281.34546 
L 128.664463 284.831651 
L 133.184711 281.56035 
L 137.704959 282.94047 
L 142.225207 282.344445 
L 155.78595 282.115963 
L 160.306198 279.227326 
L 164.826446 277.748374 
L 169.346694 281.553286 
L 173.866942 282.861169 
L 187.427686 285.415257 
L 191.947934 285.732725 
L 196.468182 287.768694 
L 200.98843 287.175878 
L 205.508678 285.030121 
L 219.069421 285.52451 
L 223.589669 283.31146 
L 228.109917 281.729074 
L 232.630165 281.865064 
L 237.150413 280.878777 
L 250.711157 280.117444 
L 255.231405 281.054876 
L 259.751653 276.569624 
L 268.792149 282.403005 
L 282.352893 282.027267 
L 286.87314 283.278899 
L 291.393388 285.860543 
L 295.913636 288.040995 
L 300.433884 285.048285 
L 313.994628 283.920092 
L 318.514876 284.123777 
L 323.035124 280.725161 
L 327.555372 280.609438 
L 332.07562 281.288187 
L 345.636364 281.07471 
L 350.156612 283.675999 
L 354.67686 283.86003 
L 359.197107 281.782919 
L 363.717355 282.782631 
L 377.278099 284.491297 
L 381.798347 282.136743 
L 386.318595 279.422251 
L 390.838843 276.964906 
L 395.359091 274.296868 
L 408.919835 277.478772 
L 413.440083 281.967311 
L 417.960331 281.689966 
L 422.480579 276.895561 
L 427.000826 276.269789 
L 440.56157 269.913252 
L 445.081818 273.037076 
L 449.602066 273.981046 
L 454.122314 274.741447 
L 458.642562 269.464093 
L 472.203306 269.217428 
L 476.723554 268.840143 
L 481.243802 268.980113 
L 485.76405 267.491086 
L 490.284298 266.915983 
L 503.845041 265.59718 
L 508.365289 264.340315 
L 512.885537 267.245428 
L 517.405785 264.418644 
L 521.926033 262.695508 
L 535.486777 262.287828 
L 540.007025 265.760032 
L 544.527273 266.622383 
L 549.047521 264.348129 
L 553.567769 266.747022 
L 567.128512 263.289027 
L 571.64876 262.467625 
L 576.169008 266.654657 
L 580.689256 262.14609 
L 585.209504 260.509956 
L 598.770248 263.866593 
L 603.290496 262.473594 
L 607.810744 267.557035 
L 612.330992 268.116001 
L 616.85124 265.276083 
L 630.411983 267.338184 
L 634.932231 267.349408 
L 639.452479 266.982856 
L 643.972727 267.776458 
L 648.492975 266.548422 
L 662.053719 264.619066 
L 666.573967 262.430401 
L 671.094215 261.810446 
L 675.614463 266.031386 
L 680.134711 265.813781 
L 693.695455 267.772761 
L 698.215702 269.038183 
L 702.73595 272.787134 
L 711.776446 270.977186 
L 725.33719 267.83949 
L 729.857438 268.149983 
L 734.377686 265.414556 
L 738.897934 262.329145 
L 743.418182 260.346395 
L 756.978926 258.327559 
L 761.499174 260.383768 
L 766.019421 261.676052 
L 770.539669 260.79416 
L 775.059917 260.33603 
L 788.620661 261.09037 
L 793.140909 261.09748 
L 797.661157 260.073421 
L 802.181405 258.600094 
L 806.701653 258.158958 
L 820.262397 259.164817 
L 824.782645 258.438 
L 829.302893 258.593163 
L 833.82314 258.3656 
L 838.343388 257.93939 
L 851.904132 257.425814 
L 856.42438 255.47978 
L 860.944628 252.31144 
L 865.464876 253.979217 
L 869.985124 254.401871 
L 883.545868 251.89082 
L 888.066116 253.052349 
L 892.586364 253.71064 
L 897.106612 250.343827 
L 901.62686 247.515723 
L 915.187603 252.309173 
L 919.707851 254.622933 
L 924.228099 255.509932 
L 928.748347 252.443683 
L 933.268595 254.026575 
L 946.829339 255.591184 
L 951.349587 255.310911 
L 955.869835 256.596977 
L 960.390083 255.409963 
L 964.910331 259.216654 
L 978.471074 257.290223 
L 982.991322 258.054875 
L 987.51157 257.20222 
L 992.031818 255.06127 
L 996.552066 254.655493 
L 1010.11281 248.045134 
L 1014.633058 243.556734 
L 1019.153306 245.958281 
L 1023.673554 247.531379 
L 1028.193802 243.075495 
L 1041.754545 241.180482 
L 1046.274793 236.652721 
L 1055.315289 242.561854 
L 1059.835537 241.605478 
L 1073.396281 240.332576 
L 1077.916529 240.526134 
L 1082.436777 245.006817 
L 1086.957025 245.448298 
L 1091.477273 244.743843 
L 1091.477273 244.743843 
" style="fill:none;stroke:#8c564b;stroke-linecap:square;stroke-width:1.5;"/>
   </g>
   <g id="line2d_19">
    <path clip-path="url(#pc461065b8c)" d="M 97.022727 290.238524 
L 101.542975 285.772615 
L 106.063223 282.488743 
L 110.583471 278.07346 
L 124.144215 276.656455 
L 128.664463 273.984285 
L 133.184711 272.11457 
L 137.704959 271.272942 
L 142.225207 261.127983 
L 155.78595 255.735563 
L 160.306198 254.831262 
L 164.826446 249.455894 
L 169.346694 254.036986 
L 173.866942 256.69886 
L 187.427686 263.670339 
L 191.947934 256.98276 
L 196.468182 260.799776 
L 200.98843 260.651562 
L 205.508678 253.084044 
L 219.069421 253.93332 
L 223.589669 247.934715 
L 232.630165 257.174097 
L 237.150413 253.340246 
L 250.711157 258.428319 
L 255.231405 248.953271 
L 259.751653 259.589023 
L 264.271901 262.011393 
L 268.792149 259.461671 
L 282.352893 258.738425 
L 286.87314 252.326115 
L 291.393388 252.272191 
L 295.913636 248.60257 
L 300.433884 241.690313 
L 313.994628 234.121526 
L 318.514876 227.260751 
L 323.035124 236.912197 
L 327.555372 234.321394 
L 332.07562 238.907038 
L 345.636364 236.193575 
L 350.156612 234.999364 
L 354.67686 239.080209 
L 359.197107 249.641933 
L 363.717355 245.48628 
L 377.278099 248.648682 
L 381.798347 256.609384 
L 386.318595 247.603229 
L 390.838843 244.374264 
L 395.359091 247.652183 
L 408.919835 236.911984 
L 413.440083 243.401349 
L 417.960331 243.276068 
L 422.480579 239.905402 
L 427.000826 237.614715 
L 440.56157 239.137263 
L 445.081818 243.872783 
L 449.602066 239.208155 
L 454.122314 245.483845 
L 458.642562 247.202808 
L 472.203306 245.451361 
L 476.723554 243.552521 
L 481.243802 241.494612 
L 485.76405 236.575901 
L 490.284298 226.057403 
L 503.845041 225.59697 
L 508.365289 219.431972 
L 512.885537 216.97532 
L 517.405785 206.635062 
L 521.926033 205.038814 
L 535.486777 199.882377 
L 540.007025 197.462719 
L 544.527273 204.767123 
L 549.047521 196.865791 
L 553.567769 203.564293 
L 567.128512 198.650132 
L 571.64876 199.588762 
L 576.169008 204.451968 
L 580.689256 204.498606 
L 585.209504 210.22114 
L 598.770248 214.179167 
L 603.290496 222.028377 
L 607.810744 214.650909 
L 612.330992 207.051681 
L 616.85124 218.513883 
L 630.411983 218.972727 
L 634.932231 222.166463 
L 639.452479 225.554981 
L 643.972727 226.927232 
L 648.492975 225.591817 
L 662.053719 227.458008 
L 666.573967 223.568961 
L 671.094215 221.079345 
L 675.614463 228.437028 
L 680.134711 232.968874 
L 693.695455 239.172113 
L 698.215702 236.123705 
L 702.73595 231.721972 
L 707.256198 233.328635 
L 711.776446 233.082618 
L 725.33719 224.635165 
L 729.857438 221.677386 
L 734.377686 221.710261 
L 738.897934 229.468462 
L 743.418182 229.74718 
L 756.978926 234.519894 
L 761.499174 236.483084 
L 766.019421 237.35872 
L 770.539669 236.569376 
L 775.059917 241.896025 
L 788.620661 233.449002 
L 793.140909 228.518326 
L 797.661157 236.739536 
L 802.181405 232.929877 
L 806.701653 226.870705 
L 820.262397 230.602327 
L 824.782645 230.904553 
L 829.302893 226.571529 
L 833.82314 227.843941 
L 838.343388 220.192355 
L 851.904132 229.919204 
L 856.42438 229.447939 
L 860.944628 225.177989 
L 865.464876 227.393821 
L 869.985124 229.226711 
L 883.545868 234.38795 
L 888.066116 246.49378 
L 892.586364 250.911203 
L 897.106612 242.929011 
L 901.62686 242.101165 
L 915.187603 240.006949 
L 919.707851 239.024599 
L 924.228099 242.06097 
L 928.748347 233.923853 
L 933.268595 235.558599 
L 946.829339 227.977991 
L 951.349587 227.183687 
L 955.869835 218.887339 
L 960.390083 218.329757 
L 964.910331 210.625616 
L 978.471074 222.765315 
L 982.991322 215.30255 
L 987.51157 225.528668 
L 992.031818 215.108653 
L 996.552066 209.444002 
L 1010.11281 221.165687 
L 1014.633058 219.314826 
L 1019.153306 225.552744 
L 1023.673554 229.00627 
L 1028.193802 221.429303 
L 1041.754545 225.120838 
L 1046.274793 222.270769 
L 1050.795041 224.501597 
L 1055.315289 214.419174 
L 1059.835537 216.403958 
L 1073.396281 217.849031 
L 1077.916529 214.727937 
L 1082.436777 216.731339 
L 1086.957025 227.976958 
L 1091.477273 228.838955 
L 1091.477273 228.838955 
" style="fill:none;stroke:#e377c2;stroke-linecap:square;stroke-width:1.5;"/>
   </g>
   <g id="line2d_20">
    <path clip-path="url(#pc461065b8c)" d="M 97.022727 280.300421 
L 101.542975 278.276297 
L 106.063223 277.442016 
L 110.583471 275.304417 
L 124.144215 272.813493 
L 128.664463 268.581503 
L 133.184711 262.702617 
L 137.704959 262.300804 
L 142.225207 262.690712 
L 155.78595 263.689766 
L 160.306198 265.781848 
L 164.826446 263.254691 
L 169.346694 264.006907 
L 173.866942 269.538664 
L 187.427686 281.856383 
L 191.947934 279.618663 
L 196.468182 276.40133 
L 200.98843 275.389898 
L 205.508678 271.5145 
L 219.069421 271.025757 
L 223.589669 263.502994 
L 228.109917 257.176645 
L 232.630165 258.252619 
L 237.150413 252.351725 
L 250.711157 247.131458 
L 255.231405 247.372944 
L 259.751653 246.926023 
L 264.271901 246.960921 
L 268.792149 237.350643 
L 282.352893 232.606815 
L 286.87314 238.959624 
L 291.393388 243.810423 
L 295.913636 241.344311 
L 300.433884 239.804219 
L 313.994628 232.559973 
L 318.514876 227.177432 
L 323.035124 226.890894 
L 327.555372 222.121797 
L 332.07562 225.265667 
L 345.636364 231.389013 
L 350.156612 231.751946 
L 354.67686 229.755416 
L 359.197107 227.286243 
L 363.717355 220.293374 
L 377.278099 220.424673 
L 381.798347 215.841241 
L 386.318595 203.004992 
L 390.838843 205.945024 
L 395.359091 217.546649 
L 408.919835 218.906125 
L 413.440083 220.872368 
L 417.960331 220.151441 
L 422.480579 226.409694 
L 427.000826 219.425868 
L 440.56157 220.978081 
L 445.081818 223.597013 
L 449.602066 220.256116 
L 454.122314 221.017875 
L 458.642562 217.236729 
L 472.203306 217.505067 
L 476.723554 218.366041 
L 485.76405 222.9196 
L 490.284298 228.728583 
L 503.845041 230.731329 
L 508.365289 218.14233 
L 512.885537 209.774602 
L 517.405785 207.746412 
L 521.926033 208.605538 
L 535.486777 219.511666 
L 540.007025 221.622339 
L 544.527273 217.537881 
L 549.047521 221.14302 
L 553.567769 212.170251 
L 567.128512 214.225807 
L 571.64876 218.139023 
L 576.169008 214.668073 
L 580.689256 216.328763 
L 585.209504 223.599823 
L 598.770248 220.678852 
L 603.290496 219.383069 
L 607.810744 224.696058 
L 612.330992 213.048638 
L 616.85124 213.118396 
L 630.411983 214.292707 
L 634.932231 216.018274 
L 639.452479 210.848082 
L 643.972727 202.085902 
L 648.492975 194.330681 
L 662.053719 188.001059 
L 666.573967 193.470443 
L 671.094215 190.95119 
L 675.614463 191.149394 
L 680.134711 189.17585 
L 693.695455 189.92457 
L 698.215702 188.629595 
L 702.73595 179.629916 
L 707.256198 178.850343 
L 711.776446 179.949808 
L 725.33719 175.411101 
L 729.857438 170.056009 
L 734.377686 183.120012 
L 738.897934 184.844114 
L 743.418182 188.342672 
L 756.978926 188.741742 
L 761.499174 179.167874 
L 766.019421 176.50756 
L 770.539669 169.486111 
L 775.059917 175.959963 
L 788.620661 179.77984 
L 793.140909 185.183692 
L 797.661157 190.277697 
L 802.181405 185.755819 
L 806.701653 184.228631 
L 820.262397 186.29801 
L 824.782645 178.524675 
L 829.302893 171.485678 
L 833.82314 182.556007 
L 838.343388 183.018475 
L 851.904132 183.695616 
L 856.42438 177.58286 
L 860.944628 182.704081 
L 865.464876 180.007719 
L 869.985124 171.247159 
L 883.545868 179.768526 
L 888.066116 180.717321 
L 892.586364 177.872247 
L 897.106612 176.010048 
L 901.62686 180.070564 
L 915.187603 169.00944 
L 919.707851 174.442037 
L 924.228099 192.683891 
L 928.748347 192.442584 
L 933.268595 187.383698 
L 946.829339 185.273745 
L 951.349587 186.979219 
L 955.869835 174.888873 
L 960.390083 173.466165 
L 964.910331 187.391114 
L 978.471074 192.567871 
L 982.991322 181.838666 
L 987.51157 174.014184 
L 992.031818 170.240043 
L 996.552066 172.825032 
L 1010.11281 177.995439 
L 1014.633058 169.265137 
L 1019.153306 175.125465 
L 1023.673554 178.694493 
L 1028.193802 178.460661 
L 1041.754545 181.871539 
L 1046.274793 170.49322 
L 1050.795041 174.980632 
L 1055.315289 166.095838 
L 1059.835537 168.067477 
L 1073.396281 174.756698 
L 1077.916529 166.264721 
L 1082.436777 177.198405 
L 1086.957025 182.074566 
L 1091.477273 174.228045 
L 1091.477273 174.228045 
" style="fill:none;stroke:#7f7f7f;stroke-linecap:square;stroke-width:1.5;"/>
   </g>
   <g id="line2d_21">
    <path clip-path="url(#pc461065b8c)" d="M 97.022727 289.200726 
L 101.542975 282.824718 
L 106.063223 278.649771 
L 110.583471 271.966737 
L 124.144215 267.913806 
L 128.664463 260.638663 
L 133.184711 252.308642 
L 137.704959 250.896284 
L 142.225207 239.487181 
L 155.78595 234.390758 
L 160.306198 235.909981 
L 164.826446 226.685353 
L 169.346694 232.952411 
L 173.866942 242.871849 
L 187.427686 265.508973 
L 191.947934 256.351267 
L 196.468182 256.312651 
L 200.98843 254.974853 
L 205.508678 242.540709 
L 219.069421 242.849049 
L 223.589669 227.124885 
L 228.109917 224.333775 
L 232.630165 231.187942 
L 237.150413 219.545017 
L 250.711157 219.426286 
L 255.231405 207.50741 
L 259.751653 220.618921 
L 264.271901 223.786094 
L 268.792149 209.368951 
L 282.352893 202.783334 
L 286.87314 201.241968 
L 291.393388 207.201384 
L 295.913636 199.294445 
L 300.433884 188.068936 
L 313.994628 168.152255 
L 318.514876 150.922751 
L 323.035124 164.581925 
L 327.555372 154.246245 
L 332.07562 165.522379 
L 345.636364 169.817582 
L 350.156612 168.620827 
L 354.67686 171.633437 
L 359.197107 183.456615 
L 363.717355 168.558201 
L 377.278099 173.53195 
L 381.798347 179.790397 
L 386.318595 150.30193 
L 390.838843 148.675518 
L 395.359091 169.193026 
L 408.919835 154.417402 
L 413.440083 167.011641 
L 417.960331 165.877168 
L 422.480579 168.987586 
L 427.000826 156.260586 
L 440.56157 160.691136 
L 445.081818 171.362182 
L 449.602066 160.074219 
L 454.122314 170.589489 
L 458.642562 168.291723 
L 472.203306 165.9399 
L 476.723554 164.135836 
L 481.243802 164.023693 
L 485.76405 159.570502 
L 490.284298 151.861658 
L 503.845041 154.133148 
L 508.365289 126.843637 
L 512.885537 110.363902 
L 517.405785 90.663244 
L 521.926033 89.477567 
L 535.486777 99.087044 
L 540.007025 98.978829 
L 544.527273 102.953409 
L 549.047521 96.744666 
L 553.567769 91.409998 
L 567.128512 87.020494 
L 571.64876 95.182245 
L 576.169008 96.759357 
L 580.689256 99.58665 
L 585.209504 120.53702 
L 598.770248 121.738945 
L 603.290496 131.592327 
L 607.810744 128.317525 
L 612.330992 98.767246 
L 616.85124 116.991498 
L 630.411983 119.515437 
L 634.932231 127.163525 
L 639.452479 124.673231 
L 643.972727 113.977969 
L 648.492975 100.418013 
L 662.053719 94.362901 
L 666.573967 95.319703 
L 671.094215 87.199975 
L 675.614463 100.562132 
L 680.134711 105.74361 
L 693.695455 117.909633 
L 698.215702 110.717246 
L 702.73595 90.395287 
L 707.256198 92.298908 
L 711.776446 93.378891 
L 725.33719 71.209496 
L 729.857438 57.657441 
L 734.377686 77.34998 
L 738.897934 94.2082 
L 743.418182 99.732874 
L 756.978926 108.860499 
L 761.499174 99.06863 
L 766.019421 97.056013 
L 770.539669 85.96908 
L 775.059917 105.284288 
L 788.620661 94.297417 
L 793.140909 92.649259 
L 797.661157 114.984975 
L 806.701653 88.892544 
L 820.262397 98.720596 
L 824.782645 88.212167 
L 829.302893 70.089528 
L 833.82314 88.673623 
L 838.343388 75.271413 
L 851.904132 94.143742 
L 856.42438 84.563068 
L 860.944628 83.852699 
L 865.464876 83.966924 
L 869.985124 74.683099 
L 883.545868 96.912234 
L 888.066116 120.777745 
L 892.586364 125.320932 
L 897.106612 108.004733 
L 901.62686 111.76501 
L 915.187603 93.273829 
L 919.707851 98.617261 
L 924.228099 128.958093 
L 928.748347 114.435814 
L 933.268595 110.273502 
L 946.829339 93.790665 
L 951.349587 94.807259 
L 955.869835 62.437407 
L 960.390083 59.227232 
L 964.910331 65.681981 
L 978.471074 95.660522 
L 982.991322 66.752596 
L 987.51157 73.417779 
L 992.031818 48.073465 
L 996.552066 41.11 
L 1010.11281 71.790827 
L 1014.633058 55.310134 
L 1019.153306 76.248345 
L 1023.673554 87.950761 
L 1028.193802 73.553659 
L 1041.754545 85.486096 
L 1046.274793 63.721442 
L 1050.795041 74.648471 
L 1055.315289 42.679224 
L 1059.835537 49.605346 
L 1073.396281 62.610068 
L 1077.916529 43.893639 
L 1082.436777 64.624189 
L 1086.957025 92.94413 
L 1091.477273 83.357771 
L 1091.477273 83.357771 
" style="fill:none;stroke:#bcbd22;stroke-linecap:square;stroke-width:1.5;"/>
   </g>
   <g id="patch_3">
    <path d="M 47.3 360.1 
L 47.3 25.92 
" style="fill:none;stroke:#000000;stroke-linecap:square;stroke-linejoin:miter;stroke-width:0.8;"/>
   </g>
   <g id="patch_4">
    <path d="M 1141.2 360.1 
L 1141.2 25.92 
" style="fill:none;stroke:#000000;stroke-linecap:square;stroke-linejoin:miter;stroke-width:0.8;"/>
   </g>
   <g id="patch_5">
    <path d="M 47.3 360.1 
L 1141.2 360.1 
" style="fill:none;stroke:#000000;stroke-linecap:square;stroke-linejoin:miter;stroke-width:0.8;"/>
   </g>
   <g id="patch_6">
    <path d="M 47.3 25.92 
L 1141.2 25.92 
" style="fill:none;stroke:#000000;stroke-linecap:square;stroke-linejoin:miter;stroke-width:0.8;"/>
   </g>
   <g id="text_8">
    <!-- Net Value: (2010-02-02 ~ 2010-10-08) -->
    <g transform="translate(478.1425 19.92)scale(0.12 -0.12)">
     <defs>
      <path d="M 9.8125 72.90625 
L 23.09375 72.90625 
L 55.421875 11.921875 
L 55.421875 72.90625 
L 64.984375 72.90625 
L 64.984375 0 
L 51.703125 0 
L 19.390625 60.984375 
L 19.390625 0 
L 9.8125 0 
z
" id="DejaVuSans-78"/>
      <path d="M 28.609375 0 
L 0.78125 72.90625 
L 11.078125 72.90625 
L 34.1875 11.53125 
L 57.328125 72.90625 
L 67.578125 72.90625 
L 39.796875 0 
z
" id="DejaVuSans-86"/>
      <path d="M 11.71875 12.40625 
L 22.015625 12.40625 
L 22.015625 0 
L 11.71875 0 
z
M 11.71875 51.703125 
L 22.015625 51.703125 
L 22.015625 39.3125 
L 11.71875 39.3125 
z
" id="DejaVuSans-58"/>
      <path d="M 31 75.875 
Q 24.46875 64.65625 21.28125 53.65625 
Q 18.109375 42.671875 18.109375 31.390625 
Q 18.109375 20.125 21.3125 9.0625 
Q 24.515625 -2 31 -13.1875 
L 23.1875 -13.1875 
Q 15.875 -1.703125 12.234375 9.375 
Q 8.59375 20.453125 8.59375 31.390625 
Q 8.59375 42.28125 12.203125 53.3125 
Q 15.828125 64.359375 23.1875 75.875 
z
" id="DejaVuSans-40"/>
      <path d="M 4.890625 31.390625 
L 31.203125 31.390625 
L 31.203125 23.390625 
L 4.890625 23.390625 
z
" id="DejaVuSans-45"/>
      <path d="M 73.1875 39.890625 
L 73.1875 31.203125 
Q 68.0625 27.34375 63.6875 25.6875 
Q 59.328125 24.03125 54.59375 24.03125 
Q 49.21875 24.03125 42.09375 26.90625 
Q 41.546875 27.09375 41.3125 27.203125 
Q 40.96875 27.34375 40.234375 27.59375 
Q 32.671875 30.609375 28.078125 30.609375 
Q 23.78125 30.609375 19.578125 28.734375 
Q 15.375 26.859375 10.59375 22.796875 
L 10.59375 31.5 
Q 15.71875 35.359375 20.09375 37.03125 
Q 24.46875 38.71875 29.203125 38.71875 
Q 34.578125 38.71875 41.75 35.796875 
Q 42.234375 35.59375 42.484375 35.5 
Q 42.875 35.359375 43.5625 35.109375 
Q 51.125 32.078125 55.71875 32.078125 
Q 59.90625 32.078125 64.03125 33.9375 
Q 68.171875 35.796875 73.1875 39.890625 
z
" id="DejaVuSans-126"/>
      <path d="M 31.78125 34.625 
Q 24.75 34.625 20.71875 30.859375 
Q 16.703125 27.09375 16.703125 20.515625 
Q 16.703125 13.921875 20.71875 10.15625 
Q 24.75 6.390625 31.78125 6.390625 
Q 38.8125 6.390625 42.859375 10.171875 
Q 46.921875 13.96875 46.921875 20.515625 
Q 46.921875 27.09375 42.890625 30.859375 
Q 38.875 34.625 31.78125 34.625 
z
M 21.921875 38.8125 
Q 15.578125 40.375 12.03125 44.71875 
Q 8.5 49.078125 8.5 55.328125 
Q 8.5 64.0625 14.71875 69.140625 
Q 20.953125 74.21875 31.78125 74.21875 
Q 42.671875 74.21875 48.875 69.140625 
Q 55.078125 64.0625 55.078125 55.328125 
Q 55.078125 49.078125 51.53125 44.71875 
Q 48 40.375 41.703125 38.8125 
Q 48.828125 37.15625 52.796875 32.3125 
Q 56.78125 27.484375 56.78125 20.515625 
Q 56.78125 9.90625 50.3125 4.234375 
Q 43.84375 -1.421875 31.78125 -1.421875 
Q 19.734375 -1.421875 13.25 4.234375 
Q 6.78125 9.90625 6.78125 20.515625 
Q 6.78125 27.484375 10.78125 32.3125 
Q 14.796875 37.15625 21.921875 38.8125 
z
M 18.3125 54.390625 
Q 18.3125 48.734375 21.84375 45.5625 
Q 25.390625 42.390625 31.78125 42.390625 
Q 38.140625 42.390625 41.71875 45.5625 
Q 45.3125 48.734375 45.3125 54.390625 
Q 45.3125 60.0625 41.71875 63.234375 
Q 38.140625 66.40625 31.78125 66.40625 
Q 25.390625 66.40625 21.84375 63.234375 
Q 18.3125 60.0625 18.3125 54.390625 
z
" id="DejaVuSans-56"/>
      <path d="M 8.015625 75.875 
L 15.828125 75.875 
Q 23.140625 64.359375 26.78125 53.3125 
Q 30.421875 42.28125 30.421875 31.390625 
Q 30.421875 20.453125 26.78125 9.375 
Q 23.140625 -1.703125 15.828125 -13.1875 
L 8.015625 -13.1875 
Q 14.5 -2 17.703125 9.0625 
Q 20.90625 20.125 20.90625 31.390625 
Q 20.90625 42.671875 17.703125 53.65625 
Q 14.5 64.65625 8.015625 75.875 
z
" id="DejaVuSans-41"/>
     </defs>
     <use xlink:href="#DejaVuSans-78"/>
     <use x="74.804688" xlink:href="#DejaVuSans-101"/>
     <use x="136.328125" xlink:href="#DejaVuSans-116"/>
     <use x="175.537109" xlink:href="#DejaVuSans-32"/>
     <use x="207.324219" xlink:href="#DejaVuSans-86"/>
     <use x="267.982422" xlink:href="#DejaVuSans-97"/>
     <use x="329.261719" xlink:href="#DejaVuSans-108"/>
     <use x="357.044922" xlink:href="#DejaVuSans-117"/>
     <use x="420.423828" xlink:href="#DejaVuSans-101"/>
     <use x="481.947266" xlink:href="#DejaVuSans-58"/>
     <use x="515.638672" xlink:href="#DejaVuSans-32"/>
     <use x="547.425781" xlink:href="#DejaVuSans-40"/>
     <use x="586.439453" xlink:href="#DejaVuSans-50"/>
     <use x="650.0625" xlink:href="#DejaVuSans-48"/>
     <use x="713.685547" xlink:href="#DejaVuSans-49"/>
     <use x="777.308594" xlink:href="#DejaVuSans-48"/>
     <use x="840.931641" xlink:href="#DejaVuSans-45"/>
     <use x="877.015625" xlink:href="#DejaVuSans-48"/>
     <use x="940.638672" xlink:href="#DejaVuSans-50"/>
     <use x="1004.261719" xlink:href="#DejaVuSans-45"/>
     <use x="1040.345703" xlink:href="#DejaVuSans-48"/>
     <use x="1103.96875" xlink:href="#DejaVuSans-50"/>
     <use x="1167.591797" xlink:href="#DejaVuSans-32"/>
     <use x="1199.378906" xlink:href="#DejaVuSans-126"/>
     <use x="1283.167969" xlink:href="#DejaVuSans-32"/>
     <use x="1314.955078" xlink:href="#DejaVuSans-50"/>
     <use x="1378.578125" xlink:href="#DejaVuSans-48"/>
     <use x="1442.201172" xlink:href="#DejaVuSans-49"/>
     <use x="1505.824219" xlink:href="#DejaVuSans-48"/>
     <use x="1569.447266" xlink:href="#DejaVuSans-45"/>
     <use x="1605.53125" xlink:href="#DejaVuSans-49"/>
     <use x="1669.154297" xlink:href="#DejaVuSans-48"/>
     <use x="1732.777344" xlink:href="#DejaVuSans-45"/>
     <use x="1768.861328" xlink:href="#DejaVuSans-48"/>
     <use x="1832.484375" xlink:href="#DejaVuSans-56"/>
     <use x="1896.107422" xlink:href="#DejaVuSans-41"/>
    </g>
   </g>
   <g id="legend_1">
    <g id="patch_7">
     <path d="M 54.3 168.248125 
L 150.789062 168.248125 
Q 152.789062 168.248125 152.789062 166.248125 
L 152.789062 32.92 
Q 152.789062 30.92 150.789062 30.92 
L 54.3 30.92 
Q 52.3 30.92 52.3 32.92 
L 52.3 166.248125 
Q 52.3 168.248125 54.3 168.248125 
z
" style="fill:#ffffff;opacity:0.8;stroke:#cccccc;stroke-linejoin:miter;"/>
    </g>
    <g id="line2d_22">
     <path d="M 56.3 39.018438 
L 76.3 39.018438 
" style="fill:none;stroke:#1f77b4;stroke-linecap:square;stroke-width:1.5;"/>
    </g>
    <g id="line2d_23"/>
    <g id="text_9">
     <!-- group_1 -->
     <g transform="translate(84.3 42.518438)scale(0.1 -0.1)">
      <defs>
       <path d="M 45.40625 27.984375 
Q 45.40625 37.75 41.375 43.109375 
Q 37.359375 48.484375 30.078125 48.484375 
Q 22.859375 48.484375 18.828125 43.109375 
Q 14.796875 37.75 14.796875 27.984375 
Q 14.796875 18.265625 18.828125 12.890625 
Q 22.859375 7.515625 30.078125 7.515625 
Q 37.359375 7.515625 41.375 12.890625 
Q 45.40625 18.265625 45.40625 27.984375 
z
M 54.390625 6.78125 
Q 54.390625 -7.171875 48.1875 -13.984375 
Q 42 -20.796875 29.203125 -20.796875 
Q 24.46875 -20.796875 20.265625 -20.09375 
Q 16.0625 -19.390625 12.109375 -17.921875 
L 12.109375 -9.1875 
Q 16.0625 -11.328125 19.921875 -12.34375 
Q 23.78125 -13.375 27.78125 -13.375 
Q 36.625 -13.375 41.015625 -8.765625 
Q 45.40625 -4.15625 45.40625 5.171875 
L 45.40625 9.625 
Q 42.625 4.78125 38.28125 2.390625 
Q 33.9375 0 27.875 0 
Q 17.828125 0 11.671875 7.65625 
Q 5.515625 15.328125 5.515625 27.984375 
Q 5.515625 40.671875 11.671875 48.328125 
Q 17.828125 56 27.875 56 
Q 33.9375 56 38.28125 53.609375 
Q 42.625 51.21875 45.40625 46.390625 
L 45.40625 54.6875 
L 54.390625 54.6875 
z
" id="DejaVuSans-103"/>
       <path d="M 41.109375 46.296875 
Q 39.59375 47.171875 37.8125 47.578125 
Q 36.03125 48 33.890625 48 
Q 26.265625 48 22.1875 43.046875 
Q 18.109375 38.09375 18.109375 28.8125 
L 18.109375 0 
L 9.078125 0 
L 9.078125 54.6875 
L 18.109375 54.6875 
L 18.109375 46.1875 
Q 20.953125 51.171875 25.484375 53.578125 
Q 30.03125 56 36.53125 56 
Q 37.453125 56 38.578125 55.875 
Q 39.703125 55.765625 41.0625 55.515625 
z
" id="DejaVuSans-114"/>
       <path d="M 30.609375 48.390625 
Q 23.390625 48.390625 19.1875 42.75 
Q 14.984375 37.109375 14.984375 27.296875 
Q 14.984375 17.484375 19.15625 11.84375 
Q 23.34375 6.203125 30.609375 6.203125 
Q 37.796875 6.203125 41.984375 11.859375 
Q 46.1875 17.53125 46.1875 27.296875 
Q 46.1875 37.015625 41.984375 42.703125 
Q 37.796875 48.390625 30.609375 48.390625 
z
M 30.609375 56 
Q 42.328125 56 49.015625 48.375 
Q 55.71875 40.765625 55.71875 27.296875 
Q 55.71875 13.875 49.015625 6.21875 
Q 42.328125 -1.421875 30.609375 -1.421875 
Q 18.84375 -1.421875 12.171875 6.21875 
Q 5.515625 13.875 5.515625 27.296875 
Q 5.515625 40.765625 12.171875 48.375 
Q 18.84375 56 30.609375 56 
z
" id="DejaVuSans-111"/>
       <path d="M 18.109375 8.203125 
L 18.109375 -20.796875 
L 9.078125 -20.796875 
L 9.078125 54.6875 
L 18.109375 54.6875 
L 18.109375 46.390625 
Q 20.953125 51.265625 25.265625 53.625 
Q 29.59375 56 35.59375 56 
Q 45.5625 56 51.78125 48.09375 
Q 58.015625 40.1875 58.015625 27.296875 
Q 58.015625 14.40625 51.78125 6.484375 
Q 45.5625 -1.421875 35.59375 -1.421875 
Q 29.59375 -1.421875 25.265625 0.953125 
Q 20.953125 3.328125 18.109375 8.203125 
z
M 48.6875 27.296875 
Q 48.6875 37.203125 44.609375 42.84375 
Q 40.53125 48.484375 33.40625 48.484375 
Q 26.265625 48.484375 22.1875 42.84375 
Q 18.109375 37.203125 18.109375 27.296875 
Q 18.109375 17.390625 22.1875 11.75 
Q 26.265625 6.109375 33.40625 6.109375 
Q 40.53125 6.109375 44.609375 11.75 
Q 48.6875 17.390625 48.6875 27.296875 
z
" id="DejaVuSans-112"/>
       <path d="M 50.984375 -16.609375 
L 50.984375 -23.578125 
L -0.984375 -23.578125 
L -0.984375 -16.609375 
z
" id="DejaVuSans-95"/>
      </defs>
      <use xlink:href="#DejaVuSans-103"/>
      <use x="63.476562" xlink:href="#DejaVuSans-114"/>
      <use x="102.339844" xlink:href="#DejaVuSans-111"/>
      <use x="163.521484" xlink:href="#DejaVuSans-117"/>
      <use x="226.900391" xlink:href="#DejaVuSans-112"/>
      <use x="290.376953" xlink:href="#DejaVuSans-95"/>
      <use x="340.376953" xlink:href="#DejaVuSans-49"/>
     </g>
    </g>
    <g id="line2d_24">
     <path d="M 56.3 53.974688 
L 76.3 53.974688 
" style="fill:none;stroke:#ff7f0e;stroke-linecap:square;stroke-width:1.5;"/>
    </g>
    <g id="line2d_25"/>
    <g id="text_10">
     <!-- group_2 -->
     <g transform="translate(84.3 57.474688)scale(0.1 -0.1)">
      <use xlink:href="#DejaVuSans-103"/>
      <use x="63.476562" xlink:href="#DejaVuSans-114"/>
      <use x="102.339844" xlink:href="#DejaVuSans-111"/>
      <use x="163.521484" xlink:href="#DejaVuSans-117"/>
      <use x="226.900391" xlink:href="#DejaVuSans-112"/>
      <use x="290.376953" xlink:href="#DejaVuSans-95"/>
      <use x="340.376953" xlink:href="#DejaVuSans-50"/>
     </g>
    </g>
    <g id="line2d_26">
     <path d="M 56.3 68.930938 
L 76.3 68.930938 
" style="fill:none;stroke:#2ca02c;stroke-linecap:square;stroke-width:1.5;"/>
    </g>
    <g id="line2d_27"/>
    <g id="text_11">
     <!-- group_3 -->
     <g transform="translate(84.3 72.430938)scale(0.1 -0.1)">
      <use xlink:href="#DejaVuSans-103"/>
      <use x="63.476562" xlink:href="#DejaVuSans-114"/>
      <use x="102.339844" xlink:href="#DejaVuSans-111"/>
      <use x="163.521484" xlink:href="#DejaVuSans-117"/>
      <use x="226.900391" xlink:href="#DejaVuSans-112"/>
      <use x="290.376953" xlink:href="#DejaVuSans-95"/>
      <use x="340.376953" xlink:href="#DejaVuSans-51"/>
     </g>
    </g>
    <g id="line2d_28">
     <path d="M 56.3 83.887188 
L 76.3 83.887188 
" style="fill:none;stroke:#d62728;stroke-linecap:square;stroke-width:1.5;"/>
    </g>
    <g id="line2d_29"/>
    <g id="text_12">
     <!-- group_4 -->
     <g transform="translate(84.3 87.387188)scale(0.1 -0.1)">
      <defs>
       <path d="M 37.796875 64.3125 
L 12.890625 25.390625 
L 37.796875 25.390625 
z
M 35.203125 72.90625 
L 47.609375 72.90625 
L 47.609375 25.390625 
L 58.015625 25.390625 
L 58.015625 17.1875 
L 47.609375 17.1875 
L 47.609375 0 
L 37.796875 0 
L 37.796875 17.1875 
L 4.890625 17.1875 
L 4.890625 26.703125 
z
" id="DejaVuSans-52"/>
      </defs>
      <use xlink:href="#DejaVuSans-103"/>
      <use x="63.476562" xlink:href="#DejaVuSans-114"/>
      <use x="102.339844" xlink:href="#DejaVuSans-111"/>
      <use x="163.521484" xlink:href="#DejaVuSans-117"/>
      <use x="226.900391" xlink:href="#DejaVuSans-112"/>
      <use x="290.376953" xlink:href="#DejaVuSans-95"/>
      <use x="340.376953" xlink:href="#DejaVuSans-52"/>
     </g>
    </g>
    <g id="line2d_30">
     <path d="M 56.3 98.843438 
L 76.3 98.843438 
" style="fill:none;stroke:#9467bd;stroke-linecap:square;stroke-width:1.5;"/>
    </g>
    <g id="line2d_31"/>
    <g id="text_13">
     <!-- group_5 -->
     <g transform="translate(84.3 102.343438)scale(0.1 -0.1)">
      <use xlink:href="#DejaVuSans-103"/>
      <use x="63.476562" xlink:href="#DejaVuSans-114"/>
      <use x="102.339844" xlink:href="#DejaVuSans-111"/>
      <use x="163.521484" xlink:href="#DejaVuSans-117"/>
      <use x="226.900391" xlink:href="#DejaVuSans-112"/>
      <use x="290.376953" xlink:href="#DejaVuSans-95"/>
      <use x="340.376953" xlink:href="#DejaVuSans-53"/>
     </g>
    </g>
    <g id="line2d_32">
     <path d="M 56.3 113.799688 
L 76.3 113.799688 
" style="fill:none;stroke:#8c564b;stroke-linecap:square;stroke-width:1.5;"/>
    </g>
    <g id="line2d_33"/>
    <g id="text_14">
     <!-- benchmark -->
     <g transform="translate(84.3 117.299688)scale(0.1 -0.1)">
      <defs>
       <path d="M 48.6875 27.296875 
Q 48.6875 37.203125 44.609375 42.84375 
Q 40.53125 48.484375 33.40625 48.484375 
Q 26.265625 48.484375 22.1875 42.84375 
Q 18.109375 37.203125 18.109375 27.296875 
Q 18.109375 17.390625 22.1875 11.75 
Q 26.265625 6.109375 33.40625 6.109375 
Q 40.53125 6.109375 44.609375 11.75 
Q 48.6875 17.390625 48.6875 27.296875 
z
M 18.109375 46.390625 
Q 20.953125 51.265625 25.265625 53.625 
Q 29.59375 56 35.59375 56 
Q 45.5625 56 51.78125 48.09375 
Q 58.015625 40.1875 58.015625 27.296875 
Q 58.015625 14.40625 51.78125 6.484375 
Q 45.5625 -1.421875 35.59375 -1.421875 
Q 29.59375 -1.421875 25.265625 0.953125 
Q 20.953125 3.328125 18.109375 8.203125 
L 18.109375 0 
L 9.078125 0 
L 9.078125 75.984375 
L 18.109375 75.984375 
z
" id="DejaVuSans-98"/>
       <path d="M 48.78125 52.59375 
L 48.78125 44.1875 
Q 44.96875 46.296875 41.140625 47.34375 
Q 37.3125 48.390625 33.40625 48.390625 
Q 24.65625 48.390625 19.8125 42.84375 
Q 14.984375 37.3125 14.984375 27.296875 
Q 14.984375 17.28125 19.8125 11.734375 
Q 24.65625 6.203125 33.40625 6.203125 
Q 37.3125 6.203125 41.140625 7.25 
Q 44.96875 8.296875 48.78125 10.40625 
L 48.78125 2.09375 
Q 45.015625 0.34375 40.984375 -0.53125 
Q 36.96875 -1.421875 32.421875 -1.421875 
Q 20.0625 -1.421875 12.78125 6.34375 
Q 5.515625 14.109375 5.515625 27.296875 
Q 5.515625 40.671875 12.859375 48.328125 
Q 20.21875 56 33.015625 56 
Q 37.15625 56 41.109375 55.140625 
Q 45.0625 54.296875 48.78125 52.59375 
z
" id="DejaVuSans-99"/>
       <path d="M 54.890625 33.015625 
L 54.890625 0 
L 45.90625 0 
L 45.90625 32.71875 
Q 45.90625 40.484375 42.875 44.328125 
Q 39.84375 48.1875 33.796875 48.1875 
Q 26.515625 48.1875 22.3125 43.546875 
Q 18.109375 38.921875 18.109375 30.90625 
L 18.109375 0 
L 9.078125 0 
L 9.078125 75.984375 
L 18.109375 75.984375 
L 18.109375 46.1875 
Q 21.34375 51.125 25.703125 53.5625 
Q 30.078125 56 35.796875 56 
Q 45.21875 56 50.046875 50.171875 
Q 54.890625 44.34375 54.890625 33.015625 
z
" id="DejaVuSans-104"/>
       <path d="M 52 44.1875 
Q 55.375 50.25 60.0625 53.125 
Q 64.75 56 71.09375 56 
Q 79.640625 56 84.28125 50.015625 
Q 88.921875 44.046875 88.921875 33.015625 
L 88.921875 0 
L 79.890625 0 
L 79.890625 32.71875 
Q 79.890625 40.578125 77.09375 44.375 
Q 74.3125 48.1875 68.609375 48.1875 
Q 61.625 48.1875 57.5625 43.546875 
Q 53.515625 38.921875 53.515625 30.90625 
L 53.515625 0 
L 44.484375 0 
L 44.484375 32.71875 
Q 44.484375 40.625 41.703125 44.40625 
Q 38.921875 48.1875 33.109375 48.1875 
Q 26.21875 48.1875 22.15625 43.53125 
Q 18.109375 38.875 18.109375 30.90625 
L 18.109375 0 
L 9.078125 0 
L 9.078125 54.6875 
L 18.109375 54.6875 
L 18.109375 46.1875 
Q 21.1875 51.21875 25.484375 53.609375 
Q 29.78125 56 35.6875 56 
Q 41.65625 56 45.828125 52.96875 
Q 50 49.953125 52 44.1875 
z
" id="DejaVuSans-109"/>
       <path d="M 9.078125 75.984375 
L 18.109375 75.984375 
L 18.109375 31.109375 
L 44.921875 54.6875 
L 56.390625 54.6875 
L 27.390625 29.109375 
L 57.625 0 
L 45.90625 0 
L 18.109375 26.703125 
L 18.109375 0 
L 9.078125 0 
z
" id="DejaVuSans-107"/>
      </defs>
      <use xlink:href="#DejaVuSans-98"/>
      <use x="63.476562" xlink:href="#DejaVuSans-101"/>
      <use x="125" xlink:href="#DejaVuSans-110"/>
      <use x="188.378906" xlink:href="#DejaVuSans-99"/>
      <use x="243.359375" xlink:href="#DejaVuSans-104"/>
      <use x="306.738281" xlink:href="#DejaVuSans-109"/>
      <use x="404.150391" xlink:href="#DejaVuSans-97"/>
      <use x="465.429688" xlink:href="#DejaVuSans-114"/>
      <use x="506.542969" xlink:href="#DejaVuSans-107"/>
     </g>
    </g>
    <g id="line2d_34">
     <path d="M 56.3 128.477813 
L 76.3 128.477813 
" style="fill:none;stroke:#e377c2;stroke-linecap:square;stroke-width:1.5;"/>
    </g>
    <g id="line2d_35"/>
    <g id="text_15">
     <!-- long_excess -->
     <g transform="translate(84.3 131.977813)scale(0.1 -0.1)">
      <defs>
       <path d="M 54.890625 54.6875 
L 35.109375 28.078125 
L 55.90625 0 
L 45.3125 0 
L 29.390625 21.484375 
L 13.484375 0 
L 2.875 0 
L 24.125 28.609375 
L 4.6875 54.6875 
L 15.28125 54.6875 
L 29.78125 35.203125 
L 44.28125 54.6875 
z
" id="DejaVuSans-120"/>
       <path d="M 44.28125 53.078125 
L 44.28125 44.578125 
Q 40.484375 46.53125 36.375 47.5 
Q 32.28125 48.484375 27.875 48.484375 
Q 21.1875 48.484375 17.84375 46.4375 
Q 14.5 44.390625 14.5 40.28125 
Q 14.5 37.15625 16.890625 35.375 
Q 19.28125 33.59375 26.515625 31.984375 
L 29.59375 31.296875 
Q 39.15625 29.25 43.1875 25.515625 
Q 47.21875 21.78125 47.21875 15.09375 
Q 47.21875 7.46875 41.1875 3.015625 
Q 35.15625 -1.421875 24.609375 -1.421875 
Q 20.21875 -1.421875 15.453125 -0.5625 
Q 10.6875 0.296875 5.421875 2 
L 5.421875 11.28125 
Q 10.40625 8.6875 15.234375 7.390625 
Q 20.0625 6.109375 24.8125 6.109375 
Q 31.15625 6.109375 34.5625 8.28125 
Q 37.984375 10.453125 37.984375 14.40625 
Q 37.984375 18.0625 35.515625 20.015625 
Q 33.0625 21.96875 24.703125 23.78125 
L 21.578125 24.515625 
Q 13.234375 26.265625 9.515625 29.90625 
Q 5.8125 33.546875 5.8125 39.890625 
Q 5.8125 47.609375 11.28125 51.796875 
Q 16.75 56 26.8125 56 
Q 31.78125 56 36.171875 55.265625 
Q 40.578125 54.546875 44.28125 53.078125 
z
" id="DejaVuSans-115"/>
      </defs>
      <use xlink:href="#DejaVuSans-108"/>
      <use x="27.783203" xlink:href="#DejaVuSans-111"/>
      <use x="88.964844" xlink:href="#DejaVuSans-110"/>
      <use x="152.34375" xlink:href="#DejaVuSans-103"/>
      <use x="215.820312" xlink:href="#DejaVuSans-95"/>
      <use x="265.820312" xlink:href="#DejaVuSans-101"/>
      <use x="325.59375" xlink:href="#DejaVuSans-120"/>
      <use x="383.023438" xlink:href="#DejaVuSans-99"/>
      <use x="438.003906" xlink:href="#DejaVuSans-101"/>
      <use x="499.527344" xlink:href="#DejaVuSans-115"/>
      <use x="551.626953" xlink:href="#DejaVuSans-115"/>
     </g>
    </g>
    <g id="line2d_36">
     <path d="M 56.3 143.434063 
L 76.3 143.434063 
" style="fill:none;stroke:#7f7f7f;stroke-linecap:square;stroke-width:1.5;"/>
    </g>
    <g id="line2d_37"/>
    <g id="text_16">
     <!-- short_excess -->
     <g transform="translate(84.3 146.934063)scale(0.1 -0.1)">
      <use xlink:href="#DejaVuSans-115"/>
      <use x="52.099609" xlink:href="#DejaVuSans-104"/>
      <use x="115.478516" xlink:href="#DejaVuSans-111"/>
      <use x="176.660156" xlink:href="#DejaVuSans-114"/>
      <use x="217.773438" xlink:href="#DejaVuSans-116"/>
      <use x="256.982422" xlink:href="#DejaVuSans-95"/>
      <use x="306.982422" xlink:href="#DejaVuSans-101"/>
      <use x="366.755859" xlink:href="#DejaVuSans-120"/>
      <use x="424.185547" xlink:href="#DejaVuSans-99"/>
      <use x="479.166016" xlink:href="#DejaVuSans-101"/>
      <use x="540.689453" xlink:href="#DejaVuSans-115"/>
      <use x="592.789062" xlink:href="#DejaVuSans-115"/>
     </g>
    </g>
    <g id="line2d_38">
     <path d="M 56.3 158.390313 
L 76.3 158.390313 
" style="fill:none;stroke:#bcbd22;stroke-linecap:square;stroke-width:1.5;"/>
    </g>
    <g id="line2d_39"/>
    <g id="text_17">
     <!-- long_short -->
     <g transform="translate(84.3 161.890313)scale(0.1 -0.1)">
      <use xlink:href="#DejaVuSans-108"/>
      <use x="27.783203" xlink:href="#DejaVuSans-111"/>
      <use x="88.964844" xlink:href="#DejaVuSans-110"/>
      <use x="152.34375" xlink:href="#DejaVuSans-103"/>
      <use x="215.820312" xlink:href="#DejaVuSans-95"/>
      <use x="265.820312" xlink:href="#DejaVuSans-115"/>
      <use x="317.919922" xlink:href="#DejaVuSans-104"/>
      <use x="381.298828" xlink:href="#DejaVuSans-111"/>
      <use x="442.480469" xlink:href="#DejaVuSans-114"/>
      <use x="483.59375" xlink:href="#DejaVuSans-116"/>
     </g>
    </g>
   </g>
  </g>
 </g>
 <defs>
  <clipPath id="pc461065b8c">
   <rect height="334.18" width="1093.9" x="47.3" y="25.92"/>
  </clipPath>
 </defs>
</svg>
