<?xml version="1.0" encoding="utf-8" standalone="no"?>
<!DOCTYPE svg PUBLIC "-//W3C//DTD SVG 1.1//EN"
  "http://www.w3.org/Graphics/SVG/1.1/DTD/svg11.dtd">
<!-- Created with matplotlib (https://matplotlib.org/) -->
<svg height="360pt" version="1.1" viewBox="0 0 1152 360" width="1152pt" xmlns="http://www.w3.org/2000/svg" xmlns:xlink="http://www.w3.org/1999/xlink">
 <metadata>
  <rdf:RDF xmlns:cc="http://creativecommons.org/ns#" xmlns:dc="http://purl.org/dc/elements/1.1/" xmlns:rdf="http://www.w3.org/1999/02/22-rdf-syntax-ns#">
   <cc:Work>
    <dc:type rdf:resource="http://purl.org/dc/dcmitype/StillImage"/>
    <dc:date>2023-10-11T16:36:53.339856</dc:date>
    <dc:format>image/svg+xml</dc:format>
    <dc:creator>
     <cc:Agent>
      <dc:title>Matplotlib v3.3.4, https://matplotlib.org/</dc:title>
     </cc:Agent>
    </dc:creator>
   </cc:Work>
  </rdf:RDF>
 </metadata>
 <defs>
  <style type="text/css">*{stroke-linecap:butt;stroke-linejoin:round;}</style>
 </defs>
 <g id="figure_1">
  <g id="patch_1">
   <path d="M 0 360 
L 1152 360 
L 1152 0 
L 0 0 
z
" style="fill:#ffffff;"/>
  </g>
  <g id="axes_1">
   <g id="patch_2">
    <path d="M 50.9 344.766582 
L 1141.2 344.766582 
L 1141.2 25.92 
L 50.9 25.92 
z
" style="fill:#ffffff;"/>
   </g>
   <g id="matplotlib.axis_1"/>
   <g id="matplotlib.axis_2">
    <g id="ytick_1">
     <g id="line2d_1">
      <path clip-path="url(#pcdb133bad7)" d="M 50.9 343.240694 
L 1141.2 343.240694 
" style="fill:none;stroke:#b0b0b0;stroke-linecap:square;stroke-width:0.8;"/>
     </g>
     <g id="line2d_2">
      <defs>
       <path d="M 0 0 
L -3.5 0 
" id="mb4de6e4357" style="stroke:#000000;stroke-width:0.8;"/>
      </defs>
      <g>
       <use style="stroke:#000000;stroke-width:0.8;" x="50.9" xlink:href="#mb4de6e4357" y="343.240694"/>
      </g>
     </g>
     <g id="text_1">
      <!-- -1.5 -->
      <g transform="translate(24.389062 347.039913)scale(0.1 -0.1)">
       <defs>
        <path d="M 4.890625 31.390625 
L 31.203125 31.390625 
L 31.203125 23.390625 
L 4.890625 23.390625 
z
" id="DejaVuSans-45"/>
        <path d="M 12.40625 8.296875 
L 28.515625 8.296875 
L 28.515625 63.921875 
L 10.984375 60.40625 
L 10.984375 69.390625 
L 28.421875 72.90625 
L 38.28125 72.90625 
L 38.28125 8.296875 
L 54.390625 8.296875 
L 54.390625 0 
L 12.40625 0 
z
" id="DejaVuSans-49"/>
        <path d="M 10.6875 12.40625 
L 21 12.40625 
L 21 0 
L 10.6875 0 
z
" id="DejaVuSans-46"/>
        <path d="M 10.796875 72.90625 
L 49.515625 72.90625 
L 49.515625 64.59375 
L 19.828125 64.59375 
L 19.828125 46.734375 
Q 21.96875 47.46875 24.109375 47.828125 
Q 26.265625 48.1875 28.421875 48.1875 
Q 40.625 48.1875 47.75 41.5 
Q 54.890625 34.8125 54.890625 23.390625 
Q 54.890625 11.625 47.5625 5.09375 
Q 40.234375 -1.421875 26.90625 -1.421875 
Q 22.3125 -1.421875 17.546875 -0.640625 
Q 12.796875 0.140625 7.71875 1.703125 
L 7.71875 11.625 
Q 12.109375 9.234375 16.796875 8.0625 
Q 21.484375 6.890625 26.703125 6.890625 
Q 35.15625 6.890625 40.078125 11.328125 
Q 45.015625 15.765625 45.015625 23.390625 
Q 45.015625 31 40.078125 35.4375 
Q 35.15625 39.890625 26.703125 39.890625 
Q 22.75 39.890625 18.8125 39.015625 
Q 14.890625 38.140625 10.796875 36.28125 
z
" id="DejaVuSans-53"/>
       </defs>
       <use xlink:href="#DejaVuSans-45"/>
       <use x="36.083984" xlink:href="#DejaVuSans-49"/>
       <use x="99.707031" xlink:href="#DejaVuSans-46"/>
       <use x="131.494141" xlink:href="#DejaVuSans-53"/>
      </g>
     </g>
    </g>
    <g id="ytick_2">
     <g id="line2d_3">
      <path clip-path="url(#pcdb133bad7)" d="M 50.9 294.083674 
L 1141.2 294.083674 
" style="fill:none;stroke:#b0b0b0;stroke-linecap:square;stroke-width:0.8;"/>
     </g>
     <g id="line2d_4">
      <g>
       <use style="stroke:#000000;stroke-width:0.8;" x="50.9" xlink:href="#mb4de6e4357" y="294.083674"/>
      </g>
     </g>
     <g id="text_2">
      <!-- -1.0 -->
      <g transform="translate(24.389062 297.882892)scale(0.1 -0.1)">
       <defs>
        <path d="M 31.78125 66.40625 
Q 24.171875 66.40625 20.328125 58.90625 
Q 16.5 51.421875 16.5 36.375 
Q 16.5 21.390625 20.328125 13.890625 
Q 24.171875 6.390625 31.78125 6.390625 
Q 39.453125 6.390625 43.28125 13.890625 
Q 47.125 21.390625 47.125 36.375 
Q 47.125 51.421875 43.28125 58.90625 
Q 39.453125 66.40625 31.78125 66.40625 
z
M 31.78125 74.21875 
Q 44.046875 74.21875 50.515625 64.515625 
Q 56.984375 54.828125 56.984375 36.375 
Q 56.984375 17.96875 50.515625 8.265625 
Q 44.046875 -1.421875 31.78125 -1.421875 
Q 19.53125 -1.421875 13.0625 8.265625 
Q 6.59375 17.96875 6.59375 36.375 
Q 6.59375 54.828125 13.0625 64.515625 
Q 19.53125 74.21875 31.78125 74.21875 
z
" id="DejaVuSans-48"/>
       </defs>
       <use xlink:href="#DejaVuSans-45"/>
       <use x="36.083984" xlink:href="#DejaVuSans-49"/>
       <use x="99.707031" xlink:href="#DejaVuSans-46"/>
       <use x="131.494141" xlink:href="#DejaVuSans-48"/>
      </g>
     </g>
    </g>
    <g id="ytick_3">
     <g id="line2d_5">
      <path clip-path="url(#pcdb133bad7)" d="M 50.9 244.926653 
L 1141.2 244.926653 
" style="fill:none;stroke:#b0b0b0;stroke-linecap:square;stroke-width:0.8;"/>
     </g>
     <g id="line2d_6">
      <g>
       <use style="stroke:#000000;stroke-width:0.8;" x="50.9" xlink:href="#mb4de6e4357" y="244.926653"/>
      </g>
     </g>
     <g id="text_3">
      <!-- -0.5 -->
      <g transform="translate(24.389062 248.725872)scale(0.1 -0.1)">
       <use xlink:href="#DejaVuSans-45"/>
       <use x="36.083984" xlink:href="#DejaVuSans-48"/>
       <use x="99.707031" xlink:href="#DejaVuSans-46"/>
       <use x="131.494141" xlink:href="#DejaVuSans-53"/>
      </g>
     </g>
    </g>
    <g id="ytick_4">
     <g id="line2d_7">
      <path clip-path="url(#pcdb133bad7)" d="M 50.9 195.769632 
L 1141.2 195.769632 
" style="fill:none;stroke:#b0b0b0;stroke-linecap:square;stroke-width:0.8;"/>
     </g>
     <g id="line2d_8">
      <g>
       <use style="stroke:#000000;stroke-width:0.8;" x="50.9" xlink:href="#mb4de6e4357" y="195.769632"/>
      </g>
     </g>
     <g id="text_4">
      <!-- 0.0 -->
      <g transform="translate(27.996875 199.568851)scale(0.1 -0.1)">
       <use xlink:href="#DejaVuSans-48"/>
       <use x="63.623047" xlink:href="#DejaVuSans-46"/>
       <use x="95.410156" xlink:href="#DejaVuSans-48"/>
      </g>
     </g>
    </g>
    <g id="ytick_5">
     <g id="line2d_9">
      <path clip-path="url(#pcdb133bad7)" d="M 50.9 146.612612 
L 1141.2 146.612612 
" style="fill:none;stroke:#b0b0b0;stroke-linecap:square;stroke-width:0.8;"/>
     </g>
     <g id="line2d_10">
      <g>
       <use style="stroke:#000000;stroke-width:0.8;" x="50.9" xlink:href="#mb4de6e4357" y="146.612612"/>
      </g>
     </g>
     <g id="text_5">
      <!-- 0.5 -->
      <g transform="translate(27.996875 150.41183)scale(0.1 -0.1)">
       <use xlink:href="#DejaVuSans-48"/>
       <use x="63.623047" xlink:href="#DejaVuSans-46"/>
       <use x="95.410156" xlink:href="#DejaVuSans-53"/>
      </g>
     </g>
    </g>
    <g id="ytick_6">
     <g id="line2d_11">
      <path clip-path="url(#pcdb133bad7)" d="M 50.9 97.455591 
L 1141.2 97.455591 
" style="fill:none;stroke:#b0b0b0;stroke-linecap:square;stroke-width:0.8;"/>
     </g>
     <g id="line2d_12">
      <g>
       <use style="stroke:#000000;stroke-width:0.8;" x="50.9" xlink:href="#mb4de6e4357" y="97.455591"/>
      </g>
     </g>
     <g id="text_6">
      <!-- 1.0 -->
      <g transform="translate(27.996875 101.25481)scale(0.1 -0.1)">
       <use xlink:href="#DejaVuSans-49"/>
       <use x="63.623047" xlink:href="#DejaVuSans-46"/>
       <use x="95.410156" xlink:href="#DejaVuSans-48"/>
      </g>
     </g>
    </g>
    <g id="ytick_7">
     <g id="line2d_13">
      <path clip-path="url(#pcdb133bad7)" d="M 50.9 48.298571 
L 1141.2 48.298571 
" style="fill:none;stroke:#b0b0b0;stroke-linecap:square;stroke-width:0.8;"/>
     </g>
     <g id="line2d_14">
      <g>
       <use style="stroke:#000000;stroke-width:0.8;" x="50.9" xlink:href="#mb4de6e4357" y="48.298571"/>
      </g>
     </g>
     <g id="text_7">
      <!-- 1.5 -->
      <g transform="translate(27.996875 52.097789)scale(0.1 -0.1)">
       <use xlink:href="#DejaVuSans-49"/>
       <use x="63.623047" xlink:href="#DejaVuSans-46"/>
       <use x="95.410156" xlink:href="#DejaVuSans-53"/>
      </g>
     </g>
    </g>
    <g id="text_8">
     <!-- log return cumsum -->
     <g transform="translate(18.309375 232.86126)rotate(-90)scale(0.1 -0.1)">
      <defs>
       <path d="M 9.421875 75.984375 
L 18.40625 75.984375 
L 18.40625 0 
L 9.421875 0 
z
" id="DejaVuSans-108"/>
       <path d="M 30.609375 48.390625 
Q 23.390625 48.390625 19.1875 42.75 
Q 14.984375 37.109375 14.984375 27.296875 
Q 14.984375 17.484375 19.15625 11.84375 
Q 23.34375 6.203125 30.609375 6.203125 
Q 37.796875 6.203125 41.984375 11.859375 
Q 46.1875 17.53125 46.1875 27.296875 
Q 46.1875 37.015625 41.984375 42.703125 
Q 37.796875 48.390625 30.609375 48.390625 
z
M 30.609375 56 
Q 42.328125 56 49.015625 48.375 
Q 55.71875 40.765625 55.71875 27.296875 
Q 55.71875 13.875 49.015625 6.21875 
Q 42.328125 -1.421875 30.609375 -1.421875 
Q 18.84375 -1.421875 12.171875 6.21875 
Q 5.515625 13.875 5.515625 27.296875 
Q 5.515625 40.765625 12.171875 48.375 
Q 18.84375 56 30.609375 56 
z
" id="DejaVuSans-111"/>
       <path d="M 45.40625 27.984375 
Q 45.40625 37.75 41.375 43.109375 
Q 37.359375 48.484375 30.078125 48.484375 
Q 22.859375 48.484375 18.828125 43.109375 
Q 14.796875 37.75 14.796875 27.984375 
Q 14.796875 18.265625 18.828125 12.890625 
Q 22.859375 7.515625 30.078125 7.515625 
Q 37.359375 7.515625 41.375 12.890625 
Q 45.40625 18.265625 45.40625 27.984375 
z
M 54.390625 6.78125 
Q 54.390625 -7.171875 48.1875 -13.984375 
Q 42 -20.796875 29.203125 -20.796875 
Q 24.46875 -20.796875 20.265625 -20.09375 
Q 16.0625 -19.390625 12.109375 -17.921875 
L 12.109375 -9.1875 
Q 16.0625 -11.328125 19.921875 -12.34375 
Q 23.78125 -13.375 27.78125 -13.375 
Q 36.625 -13.375 41.015625 -8.765625 
Q 45.40625 -4.15625 45.40625 5.171875 
L 45.40625 9.625 
Q 42.625 4.78125 38.28125 2.390625 
Q 33.9375 0 27.875 0 
Q 17.828125 0 11.671875 7.65625 
Q 5.515625 15.328125 5.515625 27.984375 
Q 5.515625 40.671875 11.671875 48.328125 
Q 17.828125 56 27.875 56 
Q 33.9375 56 38.28125 53.609375 
Q 42.625 51.21875 45.40625 46.390625 
L 45.40625 54.6875 
L 54.390625 54.6875 
z
" id="DejaVuSans-103"/>
       <path id="DejaVuSans-32"/>
       <path d="M 41.109375 46.296875 
Q 39.59375 47.171875 37.8125 47.578125 
Q 36.03125 48 33.890625 48 
Q 26.265625 48 22.1875 43.046875 
Q 18.109375 38.09375 18.109375 28.8125 
L 18.109375 0 
L 9.078125 0 
L 9.078125 54.6875 
L 18.109375 54.6875 
L 18.109375 46.1875 
Q 20.953125 51.171875 25.484375 53.578125 
Q 30.03125 56 36.53125 56 
Q 37.453125 56 38.578125 55.875 
Q 39.703125 55.765625 41.0625 55.515625 
z
" id="DejaVuSans-114"/>
       <path d="M 56.203125 29.59375 
L 56.203125 25.203125 
L 14.890625 25.203125 
Q 15.484375 15.921875 20.484375 11.0625 
Q 25.484375 6.203125 34.421875 6.203125 
Q 39.59375 6.203125 44.453125 7.46875 
Q 49.3125 8.734375 54.109375 11.28125 
L 54.109375 2.78125 
Q 49.265625 0.734375 44.1875 -0.34375 
Q 39.109375 -1.421875 33.890625 -1.421875 
Q 20.796875 -1.421875 13.15625 6.1875 
Q 5.515625 13.8125 5.515625 26.8125 
Q 5.515625 40.234375 12.765625 48.109375 
Q 20.015625 56 32.328125 56 
Q 43.359375 56 49.78125 48.890625 
Q 56.203125 41.796875 56.203125 29.59375 
z
M 47.21875 32.234375 
Q 47.125 39.59375 43.09375 43.984375 
Q 39.0625 48.390625 32.421875 48.390625 
Q 24.90625 48.390625 20.390625 44.140625 
Q 15.875 39.890625 15.1875 32.171875 
z
" id="DejaVuSans-101"/>
       <path d="M 18.3125 70.21875 
L 18.3125 54.6875 
L 36.8125 54.6875 
L 36.8125 47.703125 
L 18.3125 47.703125 
L 18.3125 18.015625 
Q 18.3125 11.328125 20.140625 9.421875 
Q 21.96875 7.515625 27.59375 7.515625 
L 36.8125 7.515625 
L 36.8125 0 
L 27.59375 0 
Q 17.1875 0 13.234375 3.875 
Q 9.28125 7.765625 9.28125 18.015625 
L 9.28125 47.703125 
L 2.6875 47.703125 
L 2.6875 54.6875 
L 9.28125 54.6875 
L 9.28125 70.21875 
z
" id="DejaVuSans-116"/>
       <path d="M 8.5 21.578125 
L 8.5 54.6875 
L 17.484375 54.6875 
L 17.484375 21.921875 
Q 17.484375 14.15625 20.5 10.265625 
Q 23.53125 6.390625 29.59375 6.390625 
Q 36.859375 6.390625 41.078125 11.03125 
Q 45.3125 15.671875 45.3125 23.6875 
L 45.3125 54.6875 
L 54.296875 54.6875 
L 54.296875 0 
L 45.3125 0 
L 45.3125 8.40625 
Q 42.046875 3.421875 37.71875 1 
Q 33.40625 -1.421875 27.6875 -1.421875 
Q 18.265625 -1.421875 13.375 4.4375 
Q 8.5 10.296875 8.5 21.578125 
z
M 31.109375 56 
z
" id="DejaVuSans-117"/>
       <path d="M 54.890625 33.015625 
L 54.890625 0 
L 45.90625 0 
L 45.90625 32.71875 
Q 45.90625 40.484375 42.875 44.328125 
Q 39.84375 48.1875 33.796875 48.1875 
Q 26.515625 48.1875 22.3125 43.546875 
Q 18.109375 38.921875 18.109375 30.90625 
L 18.109375 0 
L 9.078125 0 
L 9.078125 54.6875 
L 18.109375 54.6875 
L 18.109375 46.1875 
Q 21.34375 51.125 25.703125 53.5625 
Q 30.078125 56 35.796875 56 
Q 45.21875 56 50.046875 50.171875 
Q 54.890625 44.34375 54.890625 33.015625 
z
" id="DejaVuSans-110"/>
       <path d="M 48.78125 52.59375 
L 48.78125 44.1875 
Q 44.96875 46.296875 41.140625 47.34375 
Q 37.3125 48.390625 33.40625 48.390625 
Q 24.65625 48.390625 19.8125 42.84375 
Q 14.984375 37.3125 14.984375 27.296875 
Q 14.984375 17.28125 19.8125 11.734375 
Q 24.65625 6.203125 33.40625 6.203125 
Q 37.3125 6.203125 41.140625 7.25 
Q 44.96875 8.296875 48.78125 10.40625 
L 48.78125 2.09375 
Q 45.015625 0.34375 40.984375 -0.53125 
Q 36.96875 -1.421875 32.421875 -1.421875 
Q 20.0625 -1.421875 12.78125 6.34375 
Q 5.515625 14.109375 5.515625 27.296875 
Q 5.515625 40.671875 12.859375 48.328125 
Q 20.21875 56 33.015625 56 
Q 37.15625 56 41.109375 55.140625 
Q 45.0625 54.296875 48.78125 52.59375 
z
" id="DejaVuSans-99"/>
       <path d="M 52 44.1875 
Q 55.375 50.25 60.0625 53.125 
Q 64.75 56 71.09375 56 
Q 79.640625 56 84.28125 50.015625 
Q 88.921875 44.046875 88.921875 33.015625 
L 88.921875 0 
L 79.890625 0 
L 79.890625 32.71875 
Q 79.890625 40.578125 77.09375 44.375 
Q 74.3125 48.1875 68.609375 48.1875 
Q 61.625 48.1875 57.5625 43.546875 
Q 53.515625 38.921875 53.515625 30.90625 
L 53.515625 0 
L 44.484375 0 
L 44.484375 32.71875 
Q 44.484375 40.625 41.703125 44.40625 
Q 38.921875 48.1875 33.109375 48.1875 
Q 26.21875 48.1875 22.15625 43.53125 
Q 18.109375 38.875 18.109375 30.90625 
L 18.109375 0 
L 9.078125 0 
L 9.078125 54.6875 
L 18.109375 54.6875 
L 18.109375 46.1875 
Q 21.1875 51.21875 25.484375 53.609375 
Q 29.78125 56 35.6875 56 
Q 41.65625 56 45.828125 52.96875 
Q 50 49.953125 52 44.1875 
z
" id="DejaVuSans-109"/>
       <path d="M 44.28125 53.078125 
L 44.28125 44.578125 
Q 40.484375 46.53125 36.375 47.5 
Q 32.28125 48.484375 27.875 48.484375 
Q 21.1875 48.484375 17.84375 46.4375 
Q 14.5 44.390625 14.5 40.28125 
Q 14.5 37.15625 16.890625 35.375 
Q 19.28125 33.59375 26.515625 31.984375 
L 29.59375 31.296875 
Q 39.15625 29.25 43.1875 25.515625 
Q 47.21875 21.78125 47.21875 15.09375 
Q 47.21875 7.46875 41.1875 3.015625 
Q 35.15625 -1.421875 24.609375 -1.421875 
Q 20.21875 -1.421875 15.453125 -0.5625 
Q 10.6875 0.296875 5.421875 2 
L 5.421875 11.28125 
Q 10.40625 8.6875 15.234375 7.390625 
Q 20.0625 6.109375 24.8125 6.109375 
Q 31.15625 6.109375 34.5625 8.28125 
Q 37.984375 10.453125 37.984375 14.40625 
Q 37.984375 18.0625 35.515625 20.015625 
Q 33.0625 21.96875 24.703125 23.78125 
L 21.578125 24.515625 
Q 13.234375 26.265625 9.515625 29.90625 
Q 5.8125 33.546875 5.8125 39.890625 
Q 5.8125 47.609375 11.28125 51.796875 
Q 16.75 56 26.8125 56 
Q 31.78125 56 36.171875 55.265625 
Q 40.578125 54.546875 44.28125 53.078125 
z
" id="DejaVuSans-115"/>
      </defs>
      <use xlink:href="#DejaVuSans-108"/>
      <use x="27.783203" xlink:href="#DejaVuSans-111"/>
      <use x="88.964844" xlink:href="#DejaVuSans-103"/>
      <use x="152.441406" xlink:href="#DejaVuSans-32"/>
      <use x="184.228516" xlink:href="#DejaVuSans-114"/>
      <use x="223.091797" xlink:href="#DejaVuSans-101"/>
      <use x="284.615234" xlink:href="#DejaVuSans-116"/>
      <use x="323.824219" xlink:href="#DejaVuSans-117"/>
      <use x="387.203125" xlink:href="#DejaVuSans-114"/>
      <use x="426.566406" xlink:href="#DejaVuSans-110"/>
      <use x="489.945312" xlink:href="#DejaVuSans-32"/>
      <use x="521.732422" xlink:href="#DejaVuSans-99"/>
      <use x="576.712891" xlink:href="#DejaVuSans-117"/>
      <use x="640.091797" xlink:href="#DejaVuSans-109"/>
      <use x="737.503906" xlink:href="#DejaVuSans-115"/>
      <use x="789.603516" xlink:href="#DejaVuSans-117"/>
      <use x="852.982422" xlink:href="#DejaVuSans-109"/>
     </g>
    </g>
   </g>
   <g id="line2d_15">
    <path clip-path="url(#pcdb133bad7)" d="M 100.459091 200.719189 
L 104.242228 202.40426 
L 108.025364 205.781333 
L 111.808501 210.513899 
L 123.157911 202.040764 
L 126.941048 196.442278 
L 130.724185 193.525146 
L 134.507321 199.59323 
L 138.290458 198.46459 
L 149.639868 200.098488 
L 153.423005 209.787879 
L 157.206142 203.578833 
L 160.989278 204.03075 
L 164.772415 197.21199 
L 176.121825 196.314829 
L 179.904962 197.12375 
L 183.688099 192.735384 
L 187.471235 193.265999 
L 191.254372 184.954832 
L 202.603782 187.249769 
L 206.386919 189.457785 
L 210.170056 189.357227 
L 213.953192 192.915802 
L 217.736329 192.936713 
L 229.085739 199.46641 
L 232.868876 197.919364 
L 236.652012 197.077832 
L 240.435149 197.748945 
L 244.218286 194.350891 
L 255.567696 195.397114 
L 259.350833 189.357899 
L 263.133969 191.092969 
L 266.917106 194.472818 
L 270.700243 190.911549 
L 282.049653 193.854735 
L 285.83279 187.961991 
L 289.615926 191.327576 
L 293.399063 195.681031 
L 297.1822 196.25336 
L 308.53161 197.174349 
L 312.314747 200.157249 
L 316.097883 198.55965 
L 323.664157 208.0812 
L 335.013567 207.519287 
L 342.57984 208.390545 
L 346.362977 206.636803 
L 350.146114 208.668289 
L 361.495524 206.777074 
L 365.278661 208.313634 
L 369.061797 211.042865 
L 372.844934 216.022081 
L 376.628071 214.083987 
L 387.977481 217.762901 
L 391.760618 221.093879 
L 395.543754 212.621936 
L 399.326891 208.427284 
L 403.110028 208.338668 
L 414.459438 214.028122 
L 418.242575 215.08201 
L 422.025711 214.657064 
L 425.808848 211.502895 
L 429.591985 208.839019 
L 440.941395 203.450835 
L 444.724532 210.86548 
L 448.507668 213.154077 
L 452.290805 215.593527 
L 456.073942 211.486894 
L 467.423352 210.126206 
L 471.206489 208.581679 
L 474.989625 207.352497 
L 478.772762 203.096452 
L 482.555899 196.308833 
L 493.905309 195.025019 
L 497.688446 190.559184 
L 501.471582 191.384184 
L 505.254719 183.741288 
L 509.037856 181.615794 
L 520.387266 179.193352 
L 524.170402 178.66311 
L 527.953539 180.80285 
L 531.736676 180.556461 
L 535.519813 177.416246 
L 546.869223 175.81227 
L 550.652359 181.815673 
L 554.435496 181.067886 
L 558.218633 181.218049 
L 562.00177 175.152836 
L 573.35118 179.860933 
L 577.134316 183.158668 
L 580.917453 182.742851 
L 584.70059 179.076 
L 588.483727 182.965548 
L 599.833137 184.818391 
L 603.616273 186.640448 
L 607.39941 188.311049 
L 611.182547 189.738995 
L 614.965684 188.008858 
L 626.315094 181.115471 
L 630.09823 183.873383 
L 633.881367 180.685187 
L 637.664504 179.523477 
L 641.447641 177.183338 
L 652.797051 174.013885 
L 660.363324 184.907902 
L 664.146461 180.892603 
L 667.929598 182.229668 
L 679.279008 174.833128 
L 683.062144 173.367035 
L 686.845281 171.267171 
L 690.628418 173.359167 
L 694.411554 172.051397 
L 705.760965 173.434364 
L 709.544101 176.17725 
L 713.327238 177.688885 
L 717.110375 176.542877 
L 720.893511 179.582425 
L 732.242922 172.83878 
L 736.026058 174.795575 
L 739.809195 176.571552 
L 743.592332 176.853172 
L 747.375468 175.096543 
L 758.724879 175.301848 
L 762.508015 170.475347 
L 766.291152 169.372677 
L 770.074289 168.435958 
L 773.857425 167.93813 
L 785.206836 173.215501 
L 788.989972 171.543513 
L 792.773109 166.849455 
L 796.556246 169.332183 
L 800.339382 170.722503 
L 811.688793 172.043947 
L 815.471929 180.686467 
L 819.255066 184.156304 
L 823.038203 176.596643 
L 826.821339 174.148822 
L 838.170749 176.897286 
L 841.953886 169.425272 
L 845.737023 169.624702 
L 849.52016 162.842285 
L 853.303296 161.50025 
L 864.652706 166.07389 
L 868.435843 163.421374 
L 872.21898 161.00535 
L 876.002117 157.574405 
L 879.785253 157.307695 
L 891.134663 162.555013 
L 894.9178 158.88423 
L 898.700937 164.033054 
L 902.484074 156.683304 
L 906.26721 153.335725 
L 917.61662 154.928946 
L 921.399757 150.928458 
L 925.182894 156.15274 
L 928.966031 159.266709 
L 932.749167 152.022373 
L 944.098577 144.439564 
L 947.881714 142.692413 
L 955.447988 144.852531 
L 959.231124 144.977979 
L 970.580534 149.125998 
L 974.363671 150.900847 
L 978.146808 153.448187 
L 981.929944 150.4356 
L 985.713081 152.519193 
L 997.062491 152.697903 
L 1000.845628 150.75087 
L 1004.628765 156.244349 
L 1008.411901 157.237853 
L 1012.195038 159.835873 
L 1023.544448 162.752994 
L 1031.110722 160.878886 
L 1034.893858 166.541453 
L 1038.676995 164.918793 
L 1050.026405 161.230082 
L 1053.809542 161.857206 
L 1057.592679 162.259559 
L 1061.375815 155.435417 
L 1065.158952 158.569729 
L 1076.508362 167.254033 
L 1080.291499 159.357917 
L 1084.074636 153.763566 
L 1087.857772 159.317153 
L 1091.640909 159.317153 
L 1091.640909 159.317153 
" style="fill:none;stroke:#9467bd;stroke-linecap:square;stroke-width:1.5;"/>
   </g>
   <g id="line2d_16">
    <path clip-path="url(#pcdb133bad7)" d="M 100.459091 195.96317 
L 104.242228 197.478438 
L 108.025364 200.340046 
L 111.808501 202.866254 
L 123.157911 201.810286 
L 126.941048 202.870538 
L 130.724185 206.918915 
L 134.507321 200.939007 
L 138.290458 206.326313 
L 149.639868 207.652232 
L 153.423005 210.031327 
L 157.206142 209.618849 
L 160.989278 213.860337 
L 164.772415 212.517332 
L 176.121825 214.917095 
L 179.904962 221.630945 
L 183.688099 223.310024 
L 187.471235 224.832678 
L 191.254372 224.015621 
L 202.603782 224.417312 
L 206.386919 218.468753 
L 210.170056 219.299407 
L 213.953192 228.026131 
L 217.736329 226.68238 
L 229.085739 227.88837 
L 232.868876 226.769357 
L 236.652012 229.408926 
L 240.435149 231.836264 
L 244.218286 232.029959 
L 255.567696 232.873763 
L 259.350833 236.974302 
L 263.133969 240.400028 
L 266.917106 239.746981 
L 270.700243 243.222699 
L 282.049653 246.234953 
L 285.83279 246.886261 
L 289.615926 243.338225 
L 293.399063 245.829451 
L 297.1822 255.169724 
L 308.53161 254.832527 
L 312.314747 261.66279 
L 316.097883 268.001884 
L 319.88102 275.79911 
L 323.664157 272.972301 
L 335.013567 271.096178 
L 338.796704 277.628067 
L 342.57984 271.180152 
L 346.362977 274.526484 
L 350.146114 277.31357 
L 361.495524 273.623876 
L 365.278661 275.695592 
L 369.061797 277.081379 
L 372.844934 276.704027 
L 376.628071 281.844022 
L 391.760618 283.776422 
L 395.543754 288.595054 
L 399.326891 285.031811 
L 403.110028 277.045563 
L 414.459438 281.542691 
L 418.242575 288.449029 
L 422.025711 290.917902 
L 425.808848 284.542365 
L 429.591985 290.46603 
L 440.941395 283.400106 
L 444.724532 287.354437 
L 448.507668 284.234858 
L 452.290805 286.43937 
L 456.073942 280.866448 
L 467.423352 280.522463 
L 471.206489 279.747381 
L 474.989625 278.565631 
L 478.772762 276.151821 
L 482.555899 272.432076 
L 493.905309 270.24119 
L 497.688446 277.103355 
L 501.471582 284.248724 
L 505.254719 283.141916 
L 509.037856 281.393528 
L 520.387266 282.284807 
L 524.170402 287.310124 
L 527.953539 290.371814 
L 531.736676 289.609702 
L 535.519813 292.828324 
L 546.869223 288.005496 
L 550.652359 283.055047 
L 554.435496 289.831857 
L 558.218633 290.828903 
L 562.00177 287.801665 
L 573.35118 292.057078 
L 577.134316 291.739237 
L 580.917453 292.554037 
L 584.70059 300.041282 
L 588.483727 297.806497 
L 599.833137 298.749901 
L 603.616273 297.817708 
L 607.39941 300.426919 
L 611.182547 305.902049 
L 614.965684 308.969082 
L 630.09823 310.778002 
L 633.881367 317.322477 
L 637.664504 318.298067 
L 641.447641 317.392821 
L 652.797051 319.907668 
L 656.580187 315.781421 
L 660.363324 317.296263 
L 664.146461 316.978714 
L 667.929598 317.837309 
L 679.279008 317.412665 
L 683.062144 320.10293 
L 686.845281 312.520037 
L 694.411554 306.320529 
L 705.760965 304.655836 
L 709.544101 310.93639 
L 713.327238 313.132279 
L 717.110375 315.686324 
L 720.893511 312.55971 
L 732.242922 314.793405 
L 736.026058 314.064696 
L 739.809195 314.76705 
L 743.592332 310.898887 
L 747.375468 311.827076 
L 758.724879 315.930614 
L 762.508015 316.594516 
L 766.291152 318.671334 
L 770.074289 315.04463 
L 773.857425 308.470116 
L 785.206836 307.784803 
L 788.989972 309.253311 
L 792.773109 304.77484 
L 796.556246 307.22041 
L 800.339382 311.645441 
L 811.688793 306.258802 
L 815.471929 306.628571 
L 819.255066 308.417771 
L 823.038203 306.913704 
L 826.821339 303.211944 
L 838.170749 309.564027 
L 841.953886 309.821581 
L 845.737023 316.398793 
L 849.52016 311.171171 
L 853.303296 314.135846 
L 864.652706 320.051271 
L 868.435843 317.413433 
L 872.21898 322.399637 
L 876.002117 319.566185 
L 879.785253 324.894706 
L 891.134663 321.094891 
L 894.9178 327.066833 
L 898.700937 330.126314 
L 902.484074 330.273555 
L 906.26721 328.859061 
L 917.61662 322.121912 
L 921.399757 323.076166 
L 925.182894 322.086617 
L 928.966031 321.529685 
L 932.749167 318.682114 
L 944.098577 314.406564 
L 947.881714 310.324638 
L 951.664851 309.750471 
L 955.447988 315.579038 
L 959.231124 312.408693 
L 970.580534 307.457485 
L 974.363671 309.706553 
L 978.146808 312.517488 
L 981.929944 308.017126 
L 985.713081 309.467088 
L 997.062491 312.040975 
L 1000.845628 307.585197 
L 1004.628765 312.722875 
L 1008.411901 306.752439 
L 1012.195038 298.213896 
L 1023.544448 291.14997 
L 1027.327585 289.702002 
L 1031.110722 291.697978 
L 1034.893858 295.160488 
L 1038.676995 289.477736 
L 1050.026405 290.622087 
L 1053.809542 291.484983 
L 1057.592679 291.964756 
L 1061.375815 288.130139 
L 1065.158952 289.328422 
L 1076.508362 286.681908 
L 1084.074636 277.751944 
L 1087.857772 275.161977 
L 1091.640909 275.161977 
L 1091.640909 275.161977 
" style="fill:none;stroke:#1f77b4;stroke-linecap:square;stroke-width:1.5;"/>
   </g>
   <g id="line2d_17">
    <path clip-path="url(#pcdb133bad7)" d="M 100.459091 197.263264 
L 104.242228 196.778845 
L 108.025364 201.177441 
L 111.808501 200.628735 
L 123.157911 198.442095 
L 126.941048 197.029917 
L 130.724185 196.932364 
L 134.507321 195.669803 
L 138.290458 192.01644 
L 149.639868 195.071271 
L 153.423005 196.524828 
L 157.206142 194.380893 
L 160.989278 197.88352 
L 164.772415 194.774046 
L 176.121825 195.077605 
L 179.904962 198.175174 
L 183.688099 195.265744 
L 187.471235 196.482711 
L 191.254372 195.955297 
L 202.603782 195.753865 
L 206.386919 193.242169 
L 210.170056 191.980623 
L 213.953192 195.259553 
L 217.736329 196.412376 
L 229.085739 198.703394 
L 232.868876 198.99193 
L 236.652012 200.862759 
L 240.435149 200.314343 
L 244.218286 198.35449 
L 255.567696 198.802595 
L 259.350833 196.81243 
L 263.133969 195.413716 
L 266.917106 195.533143 
L 270.700243 194.670254 
L 282.049653 194.009317 
L 285.83279 194.823766 
L 289.615926 190.986615 
L 297.1822 196.006991 
L 308.53161 195.67578 
L 312.314747 196.783447 
L 316.097883 199.108339 
L 319.88102 201.115694 
L 323.664157 198.370918 
L 335.013567 197.35576 
L 338.796704 197.538264 
L 342.57984 194.536537 
L 346.362977 194.435925 
L 350.146114 195.027523 
L 361.495524 194.841071 
L 365.278661 197.137496 
L 369.061797 197.302009 
L 372.844934 195.460985 
L 376.628071 196.342767 
L 387.977481 197.868425 
L 391.760618 195.772167 
L 395.543754 193.409654 
L 399.326891 191.318827 
L 403.110028 189.097975 
L 414.459438 191.752387 
L 418.242575 195.623032 
L 422.025711 195.379398 
L 425.808848 191.260465 
L 429.591985 190.735368 
L 440.941395 185.554624 
L 444.724532 188.066521 
L 448.507668 188.838378 
L 452.290805 189.464573 
L 456.073942 185.19867 
L 467.423352 185.003738 
L 471.206489 184.706326 
L 474.989625 184.816559 
L 478.772762 183.650172 
L 482.555899 183.20336 
L 493.905309 182.186353 
L 497.688446 181.226803 
L 501.471582 183.459066 
L 505.254719 181.28633 
L 509.037856 179.985063 
L 520.387266 179.679697 
L 524.170402 182.31137 
L 527.953539 182.976036 
L 531.736676 181.23274 
L 535.519813 183.072475 
L 546.869223 180.431331 
L 550.652359 179.814254 
L 554.435496 183.000999 
L 558.218633 179.573752 
L 562.00177 178.358987 
L 573.35118 180.867558 
L 577.134316 179.818724 
L 580.917453 183.70154 
L 584.70059 184.137997 
L 588.483727 181.94032 
L 599.833137 183.531181 
L 603.616273 183.53991 
L 607.39941 183.255212 
L 611.182547 183.872641 
L 614.965684 182.918853 
L 626.315094 181.438808 
L 630.09823 179.786381 
L 633.881367 179.323323 
L 637.664504 182.520035 
L 641.447641 182.352667 
L 652.797051 183.869756 
L 656.580187 184.862328 
L 660.363324 187.863161 
L 667.929598 186.402956 
L 679.279008 183.921847 
L 683.062144 184.164595 
L 686.845281 182.046346 
L 690.628418 179.710602 
L 694.411554 178.238371 
L 705.760965 176.76166 
L 709.544101 178.265919 
L 713.327238 179.223228 
L 717.110375 178.568923 
L 720.893511 178.230733 
L 732.242922 178.788206 
L 736.026058 178.793475 
L 739.809195 178.037398 
L 743.592332 176.95972 
L 747.375468 176.639332 
L 758.724879 177.371396 
L 762.508015 176.841873 
L 766.291152 176.954678 
L 770.074289 176.789282 
L 773.857425 176.480253 
L 785.206836 176.109163 
L 788.989972 174.715611 
L 792.773109 172.488195 
L 796.556246 173.654387 
L 800.339382 173.952138 
L 811.688793 172.196247 
L 815.471929 173.004568 
L 819.255066 173.465648 
L 823.038203 171.129896 
L 826.821339 169.209871 
L 838.170749 172.486618 
L 841.953886 174.108232 
L 845.737023 174.737053 
L 849.52016 172.580162 
L 853.303296 173.687705 
L 864.652706 174.794856 
L 868.435843 174.59561 
L 872.21898 175.513217 
L 876.002117 174.66598 
L 879.785253 177.409272 
L 891.134663 176.011424 
L 894.9178 176.56389 
L 898.700937 175.948039 
L 902.484074 174.418479 
L 906.26721 174.131243 
L 917.61662 169.566452 
L 921.399757 166.583549 
L 925.182894 168.168305 
L 928.966031 169.220398 
L 932.749167 166.269033 
L 944.098577 165.040232 
L 947.881714 162.164981 
L 955.447988 165.934448 
L 959.231124 165.314483 
L 970.580534 164.49535 
L 974.363671 164.619469 
L 978.146808 167.537385 
L 981.929944 167.82963 
L 985.713081 167.363718 
L 997.062491 166.294974 
L 1000.845628 162.779487 
L 1004.628765 165.732578 
L 1008.411901 166.591447 
L 1012.195038 163.301762 
L 1023.544448 164.842211 
L 1027.327585 163.878626 
L 1031.110722 162.356058 
L 1034.893858 163.999362 
L 1038.676995 161.662643 
L 1050.026405 159.507518 
L 1053.809542 160.008939 
L 1057.592679 160.867659 
L 1061.375815 160.31235 
L 1065.158952 161.455101 
L 1076.508362 161.107028 
L 1080.291499 158.399545 
L 1084.074636 155.998125 
L 1087.857772 155.843081 
L 1087.857772 155.843081 
" style="fill:none;stroke:#8c564b;stroke-linecap:square;stroke-width:1.5;"/>
   </g>
   <g id="line2d_18">
    <path clip-path="url(#pcdb133bad7)" d="M 100.459091 199.172538 
L 104.242228 201.352863 
L 108.025364 200.375815 
L 111.808501 205.687459 
L 123.157911 199.264097 
L 126.941048 195.018513 
L 130.724185 192.196174 
L 134.507321 199.625237 
L 138.290458 202.246831 
L 149.639868 200.869067 
L 153.423005 208.978906 
L 157.206142 204.826041 
L 160.989278 201.880521 
L 164.772415 198.054333 
L 176.121825 196.857292 
L 179.904962 194.638833 
L 183.688099 193.115819 
L 187.471235 192.437881 
L 191.254372 184.613882 
L 202.603782 187.115437 
L 206.386919 191.960339 
L 210.170056 193.136411 
L 213.953192 193.40687 
L 217.736329 192.288079 
L 229.085739 196.42704 
L 232.868876 194.596787 
L 236.652012 191.934867 
L 240.435149 193.161261 
L 244.218286 191.694316 
L 255.567696 192.289706 
L 259.350833 188.159572 
L 266.917106 194.595391 
L 270.700243 191.873549 
L 282.049653 195.502437 
L 285.83279 188.848747 
L 289.615926 196.349374 
L 293.399063 198.140774 
L 297.1822 196.256092 
L 308.53161 197.512544 
L 312.314747 199.366569 
L 316.097883 195.533983 
L 319.88102 198.232903 
L 323.664157 205.9575 
L 338.796704 206.626275 
L 342.57984 210.21541 
L 346.362977 208.560602 
L 350.146114 209.991788 
L 361.495524 208.283816 
L 365.278661 207.54143 
L 369.061797 210.101803 
L 372.844934 217.055628 
L 376.628071 214.260577 
L 387.977481 216.380316 
L 391.760618 221.927876 
L 395.543754 215.674486 
L 399.326891 213.52593 
L 403.110028 215.707424 
L 414.459438 218.660392 
L 418.242575 215.950892 
L 422.025711 215.769131 
L 425.808848 216.775384 
L 429.591985 214.625276 
L 440.941395 214.406625 
L 444.724532 219.182642 
L 448.507668 220.687429 
L 452.290805 222.489065 
L 456.073942 222.655404 
L 467.423352 221.487347 
L 474.989625 218.898554 
L 478.772762 215.772603 
L 482.555899 209.403828 
L 493.905309 209.134252 
L 497.688446 205.594188 
L 501.471582 204.218299 
L 505.254719 198.629312 
L 509.037856 197.794151 
L 520.387266 195.670559 
L 524.170402 192.590865 
L 531.736676 195.579822 
L 535.519813 190.689936 
L 546.869223 191.755498 
L 550.652359 198.419107 
L 554.435496 194.607664 
L 558.218633 198.314405 
L 562.00177 193.405133 
L 573.35118 195.548639 
L 577.134316 199.942883 
L 584.70059 191.721755 
L 588.483727 197.951036 
L 599.833137 198.208807 
L 603.616273 200.021973 
L 607.39941 201.982999 
L 611.182547 202.78842 
L 614.965684 202.004533 
L 626.315094 196.511334 
L 630.09823 200.998158 
L 633.881367 198.260332 
L 637.664504 194.038396 
L 641.447641 191.861964 
L 652.797051 187.245526 
L 656.580187 191.59001 
L 660.363324 194.024626 
L 664.146461 190.711025 
L 667.929598 192.798334 
L 683.062144 186.055778 
L 686.845281 186.074563 
L 690.628418 190.611251 
L 694.411554 190.778195 
L 705.760965 193.681796 
L 709.544101 194.901499 
L 713.327238 195.450438 
L 717.110375 194.95546 
L 720.893511 198.345041 
L 732.242922 191.083718 
L 736.026058 193.035137 
L 739.809195 195.586995 
L 743.592332 196.96138 
L 747.375468 195.520485 
L 758.724879 194.997623 
L 762.508015 190.677941 
L 766.291152 189.463852 
L 770.074289 188.691236 
L 773.857425 188.501843 
L 785.206836 194.172293 
L 788.989972 193.889888 
L 792.773109 191.367442 
L 796.556246 192.66835 
L 800.339382 193.757597 
L 811.688793 196.891279 
L 815.471929 204.65873 
L 819.255066 207.653193 
L 823.038203 202.307042 
L 826.821339 201.768865 
L 838.170749 201.257854 
L 841.953886 192.306419 
L 845.737023 191.879759 
L 849.52016 187.154061 
L 853.303296 184.731588 
L 864.652706 188.158574 
L 868.435843 185.700389 
L 872.21898 182.397213 
L 876.002117 179.791437 
L 879.785253 176.863042 
L 891.134663 183.606704 
L 894.9178 179.406621 
L 898.700937 185.208611 
L 902.484074 179.299851 
L 906.26721 176.230693 
L 917.61662 182.691193 
L 921.399757 181.642427 
L 925.182894 185.222684 
L 928.966031 187.262384 
L 932.749167 182.841482 
L 944.098577 176.410117 
L 947.881714 177.571896 
L 955.447988 175.99297 
L 959.231124 176.743117 
L 974.363671 183.401534 
L 978.146808 183.041774 
L 981.929944 179.746589 
L 985.713081 182.308365 
L 997.062491 183.569541 
L 1000.845628 185.195569 
L 1004.628765 187.659835 
L 1008.411901 187.793298 
L 1012.195038 193.887683 
L 1023.544448 195.242803 
L 1027.327585 195.260315 
L 1031.110722 195.864329 
L 1034.893858 199.815613 
L 1038.676995 200.546911 
L 1050.026405 198.979605 
L 1053.809542 199.104668 
L 1057.592679 198.652262 
L 1061.375815 192.349034 
L 1065.158952 194.317347 
L 1076.508362 203.383284 
L 1080.291499 198.053632 
L 1084.074636 194.78305 
L 1087.857772 200.500958 
L 1087.857772 200.500958 
" style="fill:none;stroke:#e377c2;stroke-linecap:square;stroke-width:1.5;"/>
   </g>
   <g id="line2d_19">
    <path clip-path="url(#pcdb133bad7)" d="M 100.459091 197.067153 
L 104.242228 195.097745 
L 108.025364 196.590305 
L 111.808501 193.592217 
L 123.157911 192.449407 
L 126.941048 190.00317 
L 130.724185 186.021153 
L 134.507321 191.042018 
L 138.290458 182.463001 
L 149.639868 184.168551 
L 153.423005 183.26504 
L 157.206142 181.526366 
L 160.989278 180.818592 
L 164.772415 179.028047 
L 176.121825 176.981868 
L 179.904962 173.600241 
L 183.688099 169.087676 
L 187.471235 168.786681 
L 191.254372 169.078745 
L 202.603782 168.478073 
L 206.386919 172.133339 
L 210.170056 170.058557 
L 213.953192 165.061937 
L 217.736329 167.593314 
L 229.085739 168.665041 
L 232.868876 170.088819 
L 236.652012 169.340366 
L 240.435149 166.436123 
L 244.218286 164.286767 
L 255.567696 163.894443 
L 259.350833 158.045295 
L 263.133969 153.382211 
L 266.917106 154.159853 
L 270.700243 149.968785 
L 282.049653 146.404444 
L 285.83279 146.566509 
L 289.615926 146.266784 
L 293.399063 146.290156 
L 297.1822 140.055319 
L 308.53161 140.061325 
L 312.314747 134.712551 
L 316.097883 130.944268 
L 319.88102 125.58404 
L 323.664157 125.668467 
L 335.013567 126.546094 
L 338.796704 120.592743 
L 342.57984 124.276957 
L 346.362977 120.943429 
L 350.146114 118.808646 
L 361.495524 122.448372 
L 365.278661 122.668389 
L 369.061797 121.464105 
L 372.844934 119.994847 
L 376.628071 115.949138 
L 387.977481 116.023588 
L 391.760618 113.457488 
L 395.543754 106.608137 
L 399.326891 108.135322 
L 403.110028 114.404478 
L 414.459438 112.64342 
L 418.242575 109.810723 
L 422.025711 107.164588 
L 425.808848 109.574246 
L 429.591985 103.491142 
L 440.941395 105.518257 
L 444.724532 104.132289 
L 448.507668 108.151783 
L 452.290805 106.60819 
L 456.073942 107.991976 
L 467.423352 108.141552 
L 471.206489 108.623013 
L 478.772762 111.209354 
L 482.555899 114.610701 
L 493.905309 115.811194 
L 497.688446 108.497685 
L 501.471582 103.921103 
L 505.254719 102.843174 
L 509.037856 103.298334 
L 520.387266 102.112424 
L 527.953539 97.512299 
L 531.736676 96.523518 
L 535.519813 95.188743 
L 546.869223 97.481407 
L 550.652359 102.043837 
L 554.435496 98.688867 
L 558.218633 94.308236 
L 562.00177 96.177929 
L 573.35118 94.504457 
L 577.134316 93.771107 
L 580.917453 96.813406 
L 584.70059 90.262809 
L 588.483727 90.30077 
L 599.833137 90.942023 
L 603.616273 91.891953 
L 607.39941 89.072761 
L 611.182547 84.472132 
L 614.965684 80.572393 
L 626.315094 77.847513 
L 630.09823 75.677789 
L 633.881367 69.106799 
L 637.664504 71.305742 
L 641.447641 72.050472 
L 652.797051 71.077788 
L 656.580187 76.422088 
L 660.363324 77.885188 
L 664.146461 77.475756 
L 667.929598 75.896361 
L 679.279008 73.831087 
L 683.062144 71.448842 
L 686.845281 77.365092 
L 690.628418 78.173163 
L 694.411554 79.833606 
L 705.760965 80.024802 
L 709.544101 75.537445 
L 713.327238 74.326055 
L 717.110375 71.198685 
L 720.893511 74.078545 
L 732.242922 72.439666 
L 736.026058 73.179125 
L 739.809195 71.730999 
L 743.592332 74.635135 
L 747.375468 73.398217 
L 762.508015 68.976885 
L 766.291152 67.053526 
L 770.074289 70.647307 
L 773.857425 77.361235 
L 785.206836 77.677661 
L 788.989972 74.85743 
L 792.773109 77.214665 
L 796.556246 75.966521 
L 800.339382 72.017289 
L 811.688793 75.85656 
L 815.471929 76.293462 
L 819.255066 74.989136 
L 823.038203 74.144684 
L 826.821339 75.995432 
L 838.170749 73.109716 
L 841.953886 74.470182 
L 845.737023 68.896017 
L 849.52016 72.13724 
L 853.303296 70.334772 
L 864.652706 65.800901 
L 868.435843 68.30666 
L 872.21898 64.435357 
L 876.002117 66.480256 
L 879.785253 64.029729 
L 891.134663 66.527562 
L 894.9178 61.419333 
L 898.700937 57.854598 
L 902.484074 56.180284 
L 906.26721 57.323974 
L 917.61662 59.652253 
L 921.399757 55.752383 
L 925.182894 58.353076 
L 928.966031 59.971318 
L 932.749167 59.864476 
L 944.098577 63.048864 
L 947.881714 64.307021 
L 951.664851 66.756377 
L 955.447988 63.057975 
L 959.231124 65.693067 
L 970.580534 70.043358 
L 974.363671 67.965964 
L 978.146808 68.069928 
L 981.929944 73.092848 
L 985.713081 71.204755 
L 997.062491 67.654573 
L 1000.845628 68.638678 
L 1004.628765 66.564157 
L 1008.411901 73.837246 
L 1012.195038 79.57651 
L 1023.544448 88.853045 
L 1027.327585 89.344633 
L 1031.110722 85.895576 
L 1034.893858 84.138767 
L 1038.676995 87.687542 
L 1050.026405 84.425622 
L 1053.809542 84.067299 
L 1057.592679 84.444398 
L 1061.375815 87.856428 
L 1065.158952 87.801569 
L 1076.508362 90.163481 
L 1080.291499 92.006513 
L 1084.074636 94.163898 
L 1087.857772 96.664653 
L 1087.857772 96.664653 
" style="fill:none;stroke:#7f7f7f;stroke-linecap:square;stroke-width:1.5;"/>
   </g>
   <g id="line2d_20">
    <path clip-path="url(#pcdb133bad7)" d="M 100.459091 200.516069 
L 104.242228 200.683272 
L 108.025364 201.183912 
L 111.808501 203.333683 
L 123.157911 195.839397 
L 130.724185 182.555886 
L 134.507321 195.410987 
L 138.290458 189.2318 
L 149.639868 189.535648 
L 153.423005 196.664671 
L 157.206142 190.84444 
L 160.989278 187.211963 
L 164.772415 181.662981 
L 176.121825 178.444271 
L 179.904962 172.918382 
L 183.688099 166.950626 
L 187.471235 165.973758 
L 191.254372 158.41945 
L 202.603782 160.304902 
L 206.386919 168.993369 
L 210.170056 168.069954 
L 213.953192 163.330374 
L 217.736329 164.713949 
L 229.085739 169.970982 
L 232.868876 169.53806 
L 236.652012 166.147606 
L 240.435149 164.433841 
L 244.218286 160.849033 
L 255.567696 161.04972 
L 259.350833 151.304328 
L 263.133969 149.67109 
L 266.917106 153.731427 
L 270.700243 146.930614 
L 282.049653 146.863629 
L 285.83279 140.361389 
L 289.615926 147.53857 
L 293.399063 149.353771 
L 297.1822 141.349026 
L 308.53161 142.611563 
L 312.314747 139.017758 
L 316.097883 131.558337 
L 319.88102 128.751944 
L 323.664157 136.567872 
L 335.013567 137.907575 
L 338.796704 132.152639 
L 342.57984 139.56567 
L 346.362977 134.632057 
L 350.146114 133.897498 
L 361.495524 135.765413 
L 365.278661 135.241387 
L 369.061797 136.565899 
L 372.844934 141.94364 
L 376.628071 135.214041 
L 387.977481 137.409852 
L 391.760618 140.24439 
L 395.543754 127.550224 
L 399.326891 126.895588 
L 403.110028 135.491589 
L 414.459438 136.630294 
L 418.242575 131.164029 
L 422.025711 128.340955 
L 425.808848 131.781966 
L 429.591985 123.676441 
L 440.941395 125.480353 
L 444.724532 128.80192 
L 448.507668 134.389501 
L 452.290805 134.619224 
L 456.073942 136.171708 
L 467.423352 135.15146 
L 471.206489 134.375949 
L 474.989625 134.327944 
L 478.772762 132.440355 
L 482.555899 129.256079 
L 493.905309 130.183689 
L 497.688446 119.579704 
L 501.471582 113.689397 
L 505.254719 107.081743 
L 509.037856 106.697883 
L 520.387266 103.413573 
L 524.170402 98.127543 
L 527.953539 97.233735 
L 531.736676 97.753482 
L 535.519813 91.593168 
L 546.869223 94.976675 
L 550.652359 106.530759 
L 554.435496 99.48985 
L 558.218633 98.651476 
L 562.00177 95.519999 
L 573.35118 95.953465 
L 577.134316 99.580967 
L 580.917453 98.360445 
L 584.70059 87.982629 
L 588.483727 94.252355 
L 599.833137 95.153069 
L 603.616273 97.933934 
L 607.39941 97.019792 
L 611.182547 93.187619 
L 614.965684 88.534362 
L 626.315094 80.462433 
L 630.09823 82.679377 
L 633.881367 73.545281 
L 637.664504 71.42886 
L 641.447641 69.980791 
L 652.797051 64.436078 
L 656.580187 74.373318 
L 660.363324 78.307999 
L 664.146461 74.598509 
L 667.929598 75.072809 
L 679.279008 68.071784 
L 683.062144 64.025341 
L 686.845281 69.961542 
L 690.628418 75.344627 
L 694.411554 77.174861 
L 705.760965 80.275394 
L 709.544101 76.952997 
L 713.327238 76.283805 
L 717.110375 72.676916 
L 720.893511 79.048926 
L 732.242922 70.264507 
L 736.026058 72.970267 
L 739.809195 74.036206 
L 743.592332 78.356228 
L 747.375468 75.696301 
L 758.724879 71.954433 
L 762.508015 66.499975 
L 766.291152 63.385906 
L 770.074289 66.178424 
L 773.857425 72.689587 
L 785.206836 78.695281 
L 788.989972 75.60062 
L 792.773109 75.374997 
L 796.556246 75.411241 
L 800.339382 72.50814 
L 811.688793 79.60798 
L 815.471929 87.848337 
L 819.255066 89.49841 
L 823.038203 83.352319 
L 826.821339 84.654692 
L 838.170749 81.272709 
L 841.953886 73.562591 
L 845.737023 67.585236 
L 849.52016 65.946235 
L 853.303296 61.764774 
L 864.652706 60.50084 
L 868.435843 60.485763 
L 872.21898 53.436787 
L 876.002117 52.821877 
L 879.785253 47.514008 
L 891.134663 56.935285 
L 894.9178 47.835373 
L 898.700937 49.860035 
L 902.484074 42.373846 
L 906.26721 40.413026 
L 917.61662 49.361961 
L 921.399757 44.453903 
L 925.182894 50.732643 
L 928.966031 54.424795 
L 932.749167 49.901748 
L 944.098577 46.450038 
L 947.881714 48.885026 
L 951.664851 50.499881 
L 955.447988 46.064739 
L 959.231124 49.470436 
L 970.580534 59.06332 
L 974.363671 58.5998 
L 978.146808 58.343625 
L 981.929944 59.901642 
L 985.713081 60.525967 
L 997.062491 58.191954 
L 1000.845628 60.818583 
L 1004.628765 61.156237 
L 1008.411901 68.573045 
L 1012.195038 80.785376 
L 1023.544448 91.552143 
L 1027.327585 92.061331 
L 1031.110722 89.195404 
L 1034.893858 91.318498 
L 1038.676995 95.625555 
L 1050.026405 90.847084 
L 1053.809542 90.61337 
L 1057.592679 90.536327 
L 1061.375815 87.429755 
L 1065.158952 89.3421 
L 1076.508362 101.001142 
L 1080.291499 97.416403 
L 1084.074636 96.231863 
L 1087.857772 104.602319 
L 1091.640909 104.602319 
L 1091.640909 104.602319 
" style="fill:none;stroke:#bcbd22;stroke-linecap:square;stroke-width:1.5;"/>
   </g>
   <g id="patch_3">
    <path d="M 50.9 344.766582 
L 50.9 25.92 
" style="fill:none;stroke:#000000;stroke-linecap:square;stroke-linejoin:miter;stroke-width:0.8;"/>
   </g>
   <g id="patch_4">
    <path d="M 1141.2 344.766582 
L 1141.2 25.92 
" style="fill:none;stroke:#000000;stroke-linecap:square;stroke-linejoin:miter;stroke-width:0.8;"/>
   </g>
   <g id="patch_5">
    <path d="M 50.9 344.766582 
L 1141.2 344.766582 
" style="fill:none;stroke:#000000;stroke-linecap:square;stroke-linejoin:miter;stroke-width:0.8;"/>
   </g>
   <g id="patch_6">
    <path d="M 50.9 25.92 
L 1141.2 25.92 
" style="fill:none;stroke:#000000;stroke-linecap:square;stroke-linejoin:miter;stroke-width:0.8;"/>
   </g>
   <g id="text_9">
    <!-- Cumulative Log Return: (2010-01-19 ~ 2010-10-08) -->
    <g transform="translate(440.172812 19.92)scale(0.12 -0.12)">
     <defs>
      <path d="M 64.40625 67.28125 
L 64.40625 56.890625 
Q 59.421875 61.53125 53.78125 63.8125 
Q 48.140625 66.109375 41.796875 66.109375 
Q 29.296875 66.109375 22.65625 58.46875 
Q 16.015625 50.828125 16.015625 36.375 
Q 16.015625 21.96875 22.65625 14.328125 
Q 29.296875 6.6875 41.796875 6.6875 
Q 48.140625 6.6875 53.78125 8.984375 
Q 59.421875 11.28125 64.40625 15.921875 
L 64.40625 5.609375 
Q 59.234375 2.09375 53.4375 0.328125 
Q 47.65625 -1.421875 41.21875 -1.421875 
Q 24.65625 -1.421875 15.125 8.703125 
Q 5.609375 18.84375 5.609375 36.375 
Q 5.609375 53.953125 15.125 64.078125 
Q 24.65625 74.21875 41.21875 74.21875 
Q 47.75 74.21875 53.53125 72.484375 
Q 59.328125 70.75 64.40625 67.28125 
z
" id="DejaVuSans-67"/>
      <path d="M 34.28125 27.484375 
Q 23.390625 27.484375 19.1875 25 
Q 14.984375 22.515625 14.984375 16.5 
Q 14.984375 11.71875 18.140625 8.90625 
Q 21.296875 6.109375 26.703125 6.109375 
Q 34.1875 6.109375 38.703125 11.40625 
Q 43.21875 16.703125 43.21875 25.484375 
L 43.21875 27.484375 
z
M 52.203125 31.203125 
L 52.203125 0 
L 43.21875 0 
L 43.21875 8.296875 
Q 40.140625 3.328125 35.546875 0.953125 
Q 30.953125 -1.421875 24.3125 -1.421875 
Q 15.921875 -1.421875 10.953125 3.296875 
Q 6 8.015625 6 15.921875 
Q 6 25.140625 12.171875 29.828125 
Q 18.359375 34.515625 30.609375 34.515625 
L 43.21875 34.515625 
L 43.21875 35.40625 
Q 43.21875 41.609375 39.140625 45 
Q 35.0625 48.390625 27.6875 48.390625 
Q 23 48.390625 18.546875 47.265625 
Q 14.109375 46.140625 10.015625 43.890625 
L 10.015625 52.203125 
Q 14.9375 54.109375 19.578125 55.046875 
Q 24.21875 56 28.609375 56 
Q 40.484375 56 46.34375 49.84375 
Q 52.203125 43.703125 52.203125 31.203125 
z
" id="DejaVuSans-97"/>
      <path d="M 9.421875 54.6875 
L 18.40625 54.6875 
L 18.40625 0 
L 9.421875 0 
z
M 9.421875 75.984375 
L 18.40625 75.984375 
L 18.40625 64.59375 
L 9.421875 64.59375 
z
" id="DejaVuSans-105"/>
      <path d="M 2.984375 54.6875 
L 12.5 54.6875 
L 29.59375 8.796875 
L 46.6875 54.6875 
L 56.203125 54.6875 
L 35.6875 0 
L 23.484375 0 
z
" id="DejaVuSans-118"/>
      <path d="M 9.8125 72.90625 
L 19.671875 72.90625 
L 19.671875 8.296875 
L 55.171875 8.296875 
L 55.171875 0 
L 9.8125 0 
z
" id="DejaVuSans-76"/>
      <path d="M 44.390625 34.1875 
Q 47.5625 33.109375 50.5625 29.59375 
Q 53.5625 26.078125 56.59375 19.921875 
L 66.609375 0 
L 56 0 
L 46.6875 18.703125 
Q 43.0625 26.03125 39.671875 28.421875 
Q 36.28125 30.8125 30.421875 30.8125 
L 19.671875 30.8125 
L 19.671875 0 
L 9.8125 0 
L 9.8125 72.90625 
L 32.078125 72.90625 
Q 44.578125 72.90625 50.734375 67.671875 
Q 56.890625 62.453125 56.890625 51.90625 
Q 56.890625 45.015625 53.6875 40.46875 
Q 50.484375 35.9375 44.390625 34.1875 
z
M 19.671875 64.796875 
L 19.671875 38.921875 
L 32.078125 38.921875 
Q 39.203125 38.921875 42.84375 42.21875 
Q 46.484375 45.515625 46.484375 51.90625 
Q 46.484375 58.296875 42.84375 61.546875 
Q 39.203125 64.796875 32.078125 64.796875 
z
" id="DejaVuSans-82"/>
      <path d="M 11.71875 12.40625 
L 22.015625 12.40625 
L 22.015625 0 
L 11.71875 0 
z
M 11.71875 51.703125 
L 22.015625 51.703125 
L 22.015625 39.3125 
L 11.71875 39.3125 
z
" id="DejaVuSans-58"/>
      <path d="M 31 75.875 
Q 24.46875 64.65625 21.28125 53.65625 
Q 18.109375 42.671875 18.109375 31.390625 
Q 18.109375 20.125 21.3125 9.0625 
Q 24.515625 -2 31 -13.1875 
L 23.1875 -13.1875 
Q 15.875 -1.703125 12.234375 9.375 
Q 8.59375 20.453125 8.59375 31.390625 
Q 8.59375 42.28125 12.203125 53.3125 
Q 15.828125 64.359375 23.1875 75.875 
z
" id="DejaVuSans-40"/>
      <path d="M 19.1875 8.296875 
L 53.609375 8.296875 
L 53.609375 0 
L 7.328125 0 
L 7.328125 8.296875 
Q 12.9375 14.109375 22.625 23.890625 
Q 32.328125 33.6875 34.8125 36.53125 
Q 39.546875 41.84375 41.421875 45.53125 
Q 43.3125 49.21875 43.3125 52.78125 
Q 43.3125 58.59375 39.234375 62.25 
Q 35.15625 65.921875 28.609375 65.921875 
Q 23.96875 65.921875 18.8125 64.3125 
Q 13.671875 62.703125 7.8125 59.421875 
L 7.8125 69.390625 
Q 13.765625 71.78125 18.9375 73 
Q 24.125 74.21875 28.421875 74.21875 
Q 39.75 74.21875 46.484375 68.546875 
Q 53.21875 62.890625 53.21875 53.421875 
Q 53.21875 48.921875 51.53125 44.890625 
Q 49.859375 40.875 45.40625 35.40625 
Q 44.1875 33.984375 37.640625 27.21875 
Q 31.109375 20.453125 19.1875 8.296875 
z
" id="DejaVuSans-50"/>
      <path d="M 10.984375 1.515625 
L 10.984375 10.5 
Q 14.703125 8.734375 18.5 7.8125 
Q 22.3125 6.890625 25.984375 6.890625 
Q 35.75 6.890625 40.890625 13.453125 
Q 46.046875 20.015625 46.78125 33.40625 
Q 43.953125 29.203125 39.59375 26.953125 
Q 35.25 24.703125 29.984375 24.703125 
Q 19.046875 24.703125 12.671875 31.3125 
Q 6.296875 37.9375 6.296875 49.421875 
Q 6.296875 60.640625 12.9375 67.421875 
Q 19.578125 74.21875 30.609375 74.21875 
Q 43.265625 74.21875 49.921875 64.515625 
Q 56.59375 54.828125 56.59375 36.375 
Q 56.59375 19.140625 48.40625 8.859375 
Q 40.234375 -1.421875 26.421875 -1.421875 
Q 22.703125 -1.421875 18.890625 -0.6875 
Q 15.09375 0.046875 10.984375 1.515625 
z
M 30.609375 32.421875 
Q 37.25 32.421875 41.125 36.953125 
Q 45.015625 41.5 45.015625 49.421875 
Q 45.015625 57.28125 41.125 61.84375 
Q 37.25 66.40625 30.609375 66.40625 
Q 23.96875 66.40625 20.09375 61.84375 
Q 16.21875 57.28125 16.21875 49.421875 
Q 16.21875 41.5 20.09375 36.953125 
Q 23.96875 32.421875 30.609375 32.421875 
z
" id="DejaVuSans-57"/>
      <path d="M 73.1875 39.890625 
L 73.1875 31.203125 
Q 68.0625 27.34375 63.6875 25.6875 
Q 59.328125 24.03125 54.59375 24.03125 
Q 49.21875 24.03125 42.09375 26.90625 
Q 41.546875 27.09375 41.3125 27.203125 
Q 40.96875 27.34375 40.234375 27.59375 
Q 32.671875 30.609375 28.078125 30.609375 
Q 23.78125 30.609375 19.578125 28.734375 
Q 15.375 26.859375 10.59375 22.796875 
L 10.59375 31.5 
Q 15.71875 35.359375 20.09375 37.03125 
Q 24.46875 38.71875 29.203125 38.71875 
Q 34.578125 38.71875 41.75 35.796875 
Q 42.234375 35.59375 42.484375 35.5 
Q 42.875 35.359375 43.5625 35.109375 
Q 51.125 32.078125 55.71875 32.078125 
Q 59.90625 32.078125 64.03125 33.9375 
Q 68.171875 35.796875 73.1875 39.890625 
z
" id="DejaVuSans-126"/>
      <path d="M 31.78125 34.625 
Q 24.75 34.625 20.71875 30.859375 
Q 16.703125 27.09375 16.703125 20.515625 
Q 16.703125 13.921875 20.71875 10.15625 
Q 24.75 6.390625 31.78125 6.390625 
Q 38.8125 6.390625 42.859375 10.171875 
Q 46.921875 13.96875 46.921875 20.515625 
Q 46.921875 27.09375 42.890625 30.859375 
Q 38.875 34.625 31.78125 34.625 
z
M 21.921875 38.8125 
Q 15.578125 40.375 12.03125 44.71875 
Q 8.5 49.078125 8.5 55.328125 
Q 8.5 64.0625 14.71875 69.140625 
Q 20.953125 74.21875 31.78125 74.21875 
Q 42.671875 74.21875 48.875 69.140625 
Q 55.078125 64.0625 55.078125 55.328125 
Q 55.078125 49.078125 51.53125 44.71875 
Q 48 40.375 41.703125 38.8125 
Q 48.828125 37.15625 52.796875 32.3125 
Q 56.78125 27.484375 56.78125 20.515625 
Q 56.78125 9.90625 50.3125 4.234375 
Q 43.84375 -1.421875 31.78125 -1.421875 
Q 19.734375 -1.421875 13.25 4.234375 
Q 6.78125 9.90625 6.78125 20.515625 
Q 6.78125 27.484375 10.78125 32.3125 
Q 14.796875 37.15625 21.921875 38.8125 
z
M 18.3125 54.390625 
Q 18.3125 48.734375 21.84375 45.5625 
Q 25.390625 42.390625 31.78125 42.390625 
Q 38.140625 42.390625 41.71875 45.5625 
Q 45.3125 48.734375 45.3125 54.390625 
Q 45.3125 60.0625 41.71875 63.234375 
Q 38.140625 66.40625 31.78125 66.40625 
Q 25.390625 66.40625 21.84375 63.234375 
Q 18.3125 60.0625 18.3125 54.390625 
z
" id="DejaVuSans-56"/>
      <path d="M 8.015625 75.875 
L 15.828125 75.875 
Q 23.140625 64.359375 26.78125 53.3125 
Q 30.421875 42.28125 30.421875 31.390625 
Q 30.421875 20.453125 26.78125 9.375 
Q 23.140625 -1.703125 15.828125 -13.1875 
L 8.015625 -13.1875 
Q 14.5 -2 17.703125 9.0625 
Q 20.90625 20.125 20.90625 31.390625 
Q 20.90625 42.671875 17.703125 53.65625 
Q 14.5 64.65625 8.015625 75.875 
z
" id="DejaVuSans-41"/>
     </defs>
     <use xlink:href="#DejaVuSans-67"/>
     <use x="69.824219" xlink:href="#DejaVuSans-117"/>
     <use x="133.203125" xlink:href="#DejaVuSans-109"/>
     <use x="230.615234" xlink:href="#DejaVuSans-117"/>
     <use x="293.994141" xlink:href="#DejaVuSans-108"/>
     <use x="321.777344" xlink:href="#DejaVuSans-97"/>
     <use x="383.056641" xlink:href="#DejaVuSans-116"/>
     <use x="422.265625" xlink:href="#DejaVuSans-105"/>
     <use x="450.048828" xlink:href="#DejaVuSans-118"/>
     <use x="509.228516" xlink:href="#DejaVuSans-101"/>
     <use x="570.751953" xlink:href="#DejaVuSans-32"/>
     <use x="602.539062" xlink:href="#DejaVuSans-76"/>
     <use x="656.501953" xlink:href="#DejaVuSans-111"/>
     <use x="717.683594" xlink:href="#DejaVuSans-103"/>
     <use x="781.160156" xlink:href="#DejaVuSans-32"/>
     <use x="812.947266" xlink:href="#DejaVuSans-82"/>
     <use x="877.929688" xlink:href="#DejaVuSans-101"/>
     <use x="939.453125" xlink:href="#DejaVuSans-116"/>
     <use x="978.662109" xlink:href="#DejaVuSans-117"/>
     <use x="1042.041016" xlink:href="#DejaVuSans-114"/>
     <use x="1081.404297" xlink:href="#DejaVuSans-110"/>
     <use x="1144.783203" xlink:href="#DejaVuSans-58"/>
     <use x="1178.474609" xlink:href="#DejaVuSans-32"/>
     <use x="1210.261719" xlink:href="#DejaVuSans-40"/>
     <use x="1249.275391" xlink:href="#DejaVuSans-50"/>
     <use x="1312.898438" xlink:href="#DejaVuSans-48"/>
     <use x="1376.521484" xlink:href="#DejaVuSans-49"/>
     <use x="1440.144531" xlink:href="#DejaVuSans-48"/>
     <use x="1503.767578" xlink:href="#DejaVuSans-45"/>
     <use x="1539.851562" xlink:href="#DejaVuSans-48"/>
     <use x="1603.474609" xlink:href="#DejaVuSans-49"/>
     <use x="1667.097656" xlink:href="#DejaVuSans-45"/>
     <use x="1703.181641" xlink:href="#DejaVuSans-49"/>
     <use x="1766.804688" xlink:href="#DejaVuSans-57"/>
     <use x="1830.427734" xlink:href="#DejaVuSans-32"/>
     <use x="1862.214844" xlink:href="#DejaVuSans-126"/>
     <use x="1946.003906" xlink:href="#DejaVuSans-32"/>
     <use x="1977.791016" xlink:href="#DejaVuSans-50"/>
     <use x="2041.414062" xlink:href="#DejaVuSans-48"/>
     <use x="2105.037109" xlink:href="#DejaVuSans-49"/>
     <use x="2168.660156" xlink:href="#DejaVuSans-48"/>
     <use x="2232.283203" xlink:href="#DejaVuSans-45"/>
     <use x="2268.367188" xlink:href="#DejaVuSans-49"/>
     <use x="2331.990234" xlink:href="#DejaVuSans-48"/>
     <use x="2395.613281" xlink:href="#DejaVuSans-45"/>
     <use x="2431.697266" xlink:href="#DejaVuSans-48"/>
     <use x="2495.320312" xlink:href="#DejaVuSans-56"/>
     <use x="2558.943359" xlink:href="#DejaVuSans-41"/>
    </g>
   </g>
   <g id="legend_1">
    <g id="patch_7">
     <path d="M 57.9 123.379375 
L 154.389062 123.379375 
Q 156.389062 123.379375 156.389062 121.379375 
L 156.389062 32.92 
Q 156.389062 30.92 154.389062 30.92 
L 57.9 30.92 
Q 55.9 30.92 55.9 32.92 
L 55.9 121.379375 
Q 55.9 123.379375 57.9 123.379375 
z
" style="fill:#ffffff;opacity:0.8;stroke:#cccccc;stroke-linejoin:miter;"/>
    </g>
    <g id="line2d_21">
     <path d="M 59.9 39.018437 
L 79.9 39.018437 
" style="fill:none;stroke:#9467bd;stroke-linecap:square;stroke-width:1.5;"/>
    </g>
    <g id="line2d_22"/>
    <g id="text_10">
     <!-- group_5 -->
     <g transform="translate(87.9 42.518437)scale(0.1 -0.1)">
      <defs>
       <path d="M 18.109375 8.203125 
L 18.109375 -20.796875 
L 9.078125 -20.796875 
L 9.078125 54.6875 
L 18.109375 54.6875 
L 18.109375 46.390625 
Q 20.953125 51.265625 25.265625 53.625 
Q 29.59375 56 35.59375 56 
Q 45.5625 56 51.78125 48.09375 
Q 58.015625 40.1875 58.015625 27.296875 
Q 58.015625 14.40625 51.78125 6.484375 
Q 45.5625 -1.421875 35.59375 -1.421875 
Q 29.59375 -1.421875 25.265625 0.953125 
Q 20.953125 3.328125 18.109375 8.203125 
z
M 48.6875 27.296875 
Q 48.6875 37.203125 44.609375 42.84375 
Q 40.53125 48.484375 33.40625 48.484375 
Q 26.265625 48.484375 22.1875 42.84375 
Q 18.109375 37.203125 18.109375 27.296875 
Q 18.109375 17.390625 22.1875 11.75 
Q 26.265625 6.109375 33.40625 6.109375 
Q 40.53125 6.109375 44.609375 11.75 
Q 48.6875 17.390625 48.6875 27.296875 
z
" id="DejaVuSans-112"/>
       <path d="M 50.984375 -16.609375 
L 50.984375 -23.578125 
L -0.984375 -23.578125 
L -0.984375 -16.609375 
z
" id="DejaVuSans-95"/>
      </defs>
      <use xlink:href="#DejaVuSans-103"/>
      <use x="63.476562" xlink:href="#DejaVuSans-114"/>
      <use x="102.339844" xlink:href="#DejaVuSans-111"/>
      <use x="163.521484" xlink:href="#DejaVuSans-117"/>
      <use x="226.900391" xlink:href="#DejaVuSans-112"/>
      <use x="290.376953" xlink:href="#DejaVuSans-95"/>
      <use x="340.376953" xlink:href="#DejaVuSans-53"/>
     </g>
    </g>
    <g id="line2d_23">
     <path d="M 59.9 53.974687 
L 79.9 53.974687 
" style="fill:none;stroke:#1f77b4;stroke-linecap:square;stroke-width:1.5;"/>
    </g>
    <g id="line2d_24"/>
    <g id="text_11">
     <!-- group_1 -->
     <g transform="translate(87.9 57.474687)scale(0.1 -0.1)">
      <use xlink:href="#DejaVuSans-103"/>
      <use x="63.476562" xlink:href="#DejaVuSans-114"/>
      <use x="102.339844" xlink:href="#DejaVuSans-111"/>
      <use x="163.521484" xlink:href="#DejaVuSans-117"/>
      <use x="226.900391" xlink:href="#DejaVuSans-112"/>
      <use x="290.376953" xlink:href="#DejaVuSans-95"/>
      <use x="340.376953" xlink:href="#DejaVuSans-49"/>
     </g>
    </g>
    <g id="line2d_25">
     <path d="M 59.9 68.930937 
L 79.9 68.930937 
" style="fill:none;stroke:#8c564b;stroke-linecap:square;stroke-width:1.5;"/>
    </g>
    <g id="line2d_26"/>
    <g id="text_12">
     <!-- benchmark -->
     <g transform="translate(87.9 72.430937)scale(0.1 -0.1)">
      <defs>
       <path d="M 48.6875 27.296875 
Q 48.6875 37.203125 44.609375 42.84375 
Q 40.53125 48.484375 33.40625 48.484375 
Q 26.265625 48.484375 22.1875 42.84375 
Q 18.109375 37.203125 18.109375 27.296875 
Q 18.109375 17.390625 22.1875 11.75 
Q 26.265625 6.109375 33.40625 6.109375 
Q 40.53125 6.109375 44.609375 11.75 
Q 48.6875 17.390625 48.6875 27.296875 
z
M 18.109375 46.390625 
Q 20.953125 51.265625 25.265625 53.625 
Q 29.59375 56 35.59375 56 
Q 45.5625 56 51.78125 48.09375 
Q 58.015625 40.1875 58.015625 27.296875 
Q 58.015625 14.40625 51.78125 6.484375 
Q 45.5625 -1.421875 35.59375 -1.421875 
Q 29.59375 -1.421875 25.265625 0.953125 
Q 20.953125 3.328125 18.109375 8.203125 
L 18.109375 0 
L 9.078125 0 
L 9.078125 75.984375 
L 18.109375 75.984375 
z
" id="DejaVuSans-98"/>
       <path d="M 54.890625 33.015625 
L 54.890625 0 
L 45.90625 0 
L 45.90625 32.71875 
Q 45.90625 40.484375 42.875 44.328125 
Q 39.84375 48.1875 33.796875 48.1875 
Q 26.515625 48.1875 22.3125 43.546875 
Q 18.109375 38.921875 18.109375 30.90625 
L 18.109375 0 
L 9.078125 0 
L 9.078125 75.984375 
L 18.109375 75.984375 
L 18.109375 46.1875 
Q 21.34375 51.125 25.703125 53.5625 
Q 30.078125 56 35.796875 56 
Q 45.21875 56 50.046875 50.171875 
Q 54.890625 44.34375 54.890625 33.015625 
z
" id="DejaVuSans-104"/>
       <path d="M 9.078125 75.984375 
L 18.109375 75.984375 
L 18.109375 31.109375 
L 44.921875 54.6875 
L 56.390625 54.6875 
L 27.390625 29.109375 
L 57.625 0 
L 45.90625 0 
L 18.109375 26.703125 
L 18.109375 0 
L 9.078125 0 
z
" id="DejaVuSans-107"/>
      </defs>
      <use xlink:href="#DejaVuSans-98"/>
      <use x="63.476562" xlink:href="#DejaVuSans-101"/>
      <use x="125" xlink:href="#DejaVuSans-110"/>
      <use x="188.378906" xlink:href="#DejaVuSans-99"/>
      <use x="243.359375" xlink:href="#DejaVuSans-104"/>
      <use x="306.738281" xlink:href="#DejaVuSans-109"/>
      <use x="404.150391" xlink:href="#DejaVuSans-97"/>
      <use x="465.429688" xlink:href="#DejaVuSans-114"/>
      <use x="506.542969" xlink:href="#DejaVuSans-107"/>
     </g>
    </g>
    <g id="line2d_27">
     <path d="M 59.9 83.609062 
L 79.9 83.609062 
" style="fill:none;stroke:#e377c2;stroke-linecap:square;stroke-width:1.5;"/>
    </g>
    <g id="line2d_28"/>
    <g id="text_13">
     <!-- long_excess -->
     <g transform="translate(87.9 87.109062)scale(0.1 -0.1)">
      <defs>
       <path d="M 54.890625 54.6875 
L 35.109375 28.078125 
L 55.90625 0 
L 45.3125 0 
L 29.390625 21.484375 
L 13.484375 0 
L 2.875 0 
L 24.125 28.609375 
L 4.6875 54.6875 
L 15.28125 54.6875 
L 29.78125 35.203125 
L 44.28125 54.6875 
z
" id="DejaVuSans-120"/>
      </defs>
      <use xlink:href="#DejaVuSans-108"/>
      <use x="27.783203" xlink:href="#DejaVuSans-111"/>
      <use x="88.964844" xlink:href="#DejaVuSans-110"/>
      <use x="152.34375" xlink:href="#DejaVuSans-103"/>
      <use x="215.820312" xlink:href="#DejaVuSans-95"/>
      <use x="265.820312" xlink:href="#DejaVuSans-101"/>
      <use x="325.59375" xlink:href="#DejaVuSans-120"/>
      <use x="383.023438" xlink:href="#DejaVuSans-99"/>
      <use x="438.003906" xlink:href="#DejaVuSans-101"/>
      <use x="499.527344" xlink:href="#DejaVuSans-115"/>
      <use x="551.626953" xlink:href="#DejaVuSans-115"/>
     </g>
    </g>
    <g id="line2d_29">
     <path d="M 59.9 98.565312 
L 79.9 98.565312 
" style="fill:none;stroke:#7f7f7f;stroke-linecap:square;stroke-width:1.5;"/>
    </g>
    <g id="line2d_30"/>
    <g id="text_14">
     <!-- short_excess -->
     <g transform="translate(87.9 102.065312)scale(0.1 -0.1)">
      <use xlink:href="#DejaVuSans-115"/>
      <use x="52.099609" xlink:href="#DejaVuSans-104"/>
      <use x="115.478516" xlink:href="#DejaVuSans-111"/>
      <use x="176.660156" xlink:href="#DejaVuSans-114"/>
      <use x="217.773438" xlink:href="#DejaVuSans-116"/>
      <use x="256.982422" xlink:href="#DejaVuSans-95"/>
      <use x="306.982422" xlink:href="#DejaVuSans-101"/>
      <use x="366.755859" xlink:href="#DejaVuSans-120"/>
      <use x="424.185547" xlink:href="#DejaVuSans-99"/>
      <use x="479.166016" xlink:href="#DejaVuSans-101"/>
      <use x="540.689453" xlink:href="#DejaVuSans-115"/>
      <use x="592.789062" xlink:href="#DejaVuSans-115"/>
     </g>
    </g>
    <g id="line2d_31">
     <path d="M 59.9 113.521562 
L 79.9 113.521562 
" style="fill:none;stroke:#bcbd22;stroke-linecap:square;stroke-width:1.5;"/>
    </g>
    <g id="line2d_32"/>
    <g id="text_15">
     <!-- long_short -->
     <g transform="translate(87.9 117.021562)scale(0.1 -0.1)">
      <use xlink:href="#DejaVuSans-108"/>
      <use x="27.783203" xlink:href="#DejaVuSans-111"/>
      <use x="88.964844" xlink:href="#DejaVuSans-110"/>
      <use x="152.34375" xlink:href="#DejaVuSans-103"/>
      <use x="215.820312" xlink:href="#DejaVuSans-95"/>
      <use x="265.820312" xlink:href="#DejaVuSans-115"/>
      <use x="317.919922" xlink:href="#DejaVuSans-104"/>
      <use x="381.298828" xlink:href="#DejaVuSans-111"/>
      <use x="442.480469" xlink:href="#DejaVuSans-114"/>
      <use x="483.59375" xlink:href="#DejaVuSans-116"/>
     </g>
    </g>
   </g>
  </g>
 </g>
 <defs>
  <clipPath id="pcdb133bad7">
   <rect height="318.846582" width="1090.3" x="50.9" y="25.92"/>
  </clipPath>
 </defs>
</svg>
