<?xml version="1.0" encoding="utf-8" standalone="no"?>
<!DOCTYPE svg PUBLIC "-//W3C//DTD SVG 1.1//EN"
  "http://www.w3.org/Graphics/SVG/1.1/DTD/svg11.dtd">
<!-- Created with matplotlib (https://matplotlib.org/) -->
<svg height="374.4pt" version="1.1" viewBox="0 0 1152 374.4" width="1152pt" xmlns="http://www.w3.org/2000/svg" xmlns:xlink="http://www.w3.org/1999/xlink">
 <metadata>
  <rdf:RDF xmlns:cc="http://creativecommons.org/ns#" xmlns:dc="http://purl.org/dc/elements/1.1/" xmlns:rdf="http://www.w3.org/1999/02/22-rdf-syntax-ns#">
   <cc:Work>
    <dc:type rdf:resource="http://purl.org/dc/dcmitype/StillImage"/>
    <dc:date>2023-10-11T16:35:39.637007</dc:date>
    <dc:format>image/svg+xml</dc:format>
    <dc:creator>
     <cc:Agent>
      <dc:title>Matplotlib v3.3.4, https://matplotlib.org/</dc:title>
     </cc:Agent>
    </dc:creator>
   </cc:Work>
  </rdf:RDF>
 </metadata>
 <defs>
  <style type="text/css">*{stroke-linecap:butt;stroke-linejoin:round;}</style>
 </defs>
 <g id="figure_1">
  <g id="patch_1">
   <path d="M 0 374.4 
L 1152 374.4 
L 1152 0 
L 0 0 
z
" style="fill:#ffffff;"/>
  </g>
  <g id="axes_1">
   <g id="patch_2">
    <path d="M 47.3 359.531813 
L 1141.2 359.531813 
L 1141.2 25.92 
L 47.3 25.92 
z
" style="fill:#ffffff;"/>
   </g>
   <g id="matplotlib.axis_1"/>
   <g id="matplotlib.axis_2">
    <g id="ytick_1">
     <g id="line2d_1">
      <path clip-path="url(#pb8b6d80374)" d="M 47.3 357.574018 
L 1141.2 357.574018 
" style="fill:none;stroke:#b0b0b0;stroke-linecap:square;stroke-width:0.8;"/>
     </g>
     <g id="line2d_2">
      <defs>
       <path d="M 0 0 
L -3.5 0 
" id="mf789db5f4f" style="stroke:#000000;stroke-width:0.8;"/>
      </defs>
      <g>
       <use style="stroke:#000000;stroke-width:0.8;" x="47.3" xlink:href="#mf789db5f4f" y="357.574018"/>
      </g>
     </g>
     <g id="text_1">
      <!-- 0.0 -->
      <g transform="translate(24.396875 361.373237)scale(0.1 -0.1)">
       <defs>
        <path d="M 31.78125 66.40625 
Q 24.171875 66.40625 20.328125 58.90625 
Q 16.5 51.421875 16.5 36.375 
Q 16.5 21.390625 20.328125 13.890625 
Q 24.171875 6.390625 31.78125 6.390625 
Q 39.453125 6.390625 43.28125 13.890625 
Q 47.125 21.390625 47.125 36.375 
Q 47.125 51.421875 43.28125 58.90625 
Q 39.453125 66.40625 31.78125 66.40625 
z
M 31.78125 74.21875 
Q 44.046875 74.21875 50.515625 64.515625 
Q 56.984375 54.828125 56.984375 36.375 
Q 56.984375 17.96875 50.515625 8.265625 
Q 44.046875 -1.421875 31.78125 -1.421875 
Q 19.53125 -1.421875 13.0625 8.265625 
Q 6.59375 17.96875 6.59375 36.375 
Q 6.59375 54.828125 13.0625 64.515625 
Q 19.53125 74.21875 31.78125 74.21875 
z
" id="DejaVuSans-48"/>
        <path d="M 10.6875 12.40625 
L 21 12.40625 
L 21 0 
L 10.6875 0 
z
" id="DejaVuSans-46"/>
       </defs>
       <use xlink:href="#DejaVuSans-48"/>
       <use x="63.623047" xlink:href="#DejaVuSans-46"/>
       <use x="95.410156" xlink:href="#DejaVuSans-48"/>
      </g>
     </g>
    </g>
    <g id="ytick_2">
     <g id="line2d_3">
      <path clip-path="url(#pb8b6d80374)" d="M 47.3 303.496786 
L 1141.2 303.496786 
" style="fill:none;stroke:#b0b0b0;stroke-linecap:square;stroke-width:0.8;"/>
     </g>
     <g id="line2d_4">
      <g>
       <use style="stroke:#000000;stroke-width:0.8;" x="47.3" xlink:href="#mf789db5f4f" y="303.496786"/>
      </g>
     </g>
     <g id="text_2">
      <!-- 0.5 -->
      <g transform="translate(24.396875 307.296004)scale(0.1 -0.1)">
       <defs>
        <path d="M 10.796875 72.90625 
L 49.515625 72.90625 
L 49.515625 64.59375 
L 19.828125 64.59375 
L 19.828125 46.734375 
Q 21.96875 47.46875 24.109375 47.828125 
Q 26.265625 48.1875 28.421875 48.1875 
Q 40.625 48.1875 47.75 41.5 
Q 54.890625 34.8125 54.890625 23.390625 
Q 54.890625 11.625 47.5625 5.09375 
Q 40.234375 -1.421875 26.90625 -1.421875 
Q 22.3125 -1.421875 17.546875 -0.640625 
Q 12.796875 0.140625 7.71875 1.703125 
L 7.71875 11.625 
Q 12.109375 9.234375 16.796875 8.0625 
Q 21.484375 6.890625 26.703125 6.890625 
Q 35.15625 6.890625 40.078125 11.328125 
Q 45.015625 15.765625 45.015625 23.390625 
Q 45.015625 31 40.078125 35.4375 
Q 35.15625 39.890625 26.703125 39.890625 
Q 22.75 39.890625 18.8125 39.015625 
Q 14.890625 38.140625 10.796875 36.28125 
z
" id="DejaVuSans-53"/>
       </defs>
       <use xlink:href="#DejaVuSans-48"/>
       <use x="63.623047" xlink:href="#DejaVuSans-46"/>
       <use x="95.410156" xlink:href="#DejaVuSans-53"/>
      </g>
     </g>
    </g>
    <g id="ytick_3">
     <g id="line2d_5">
      <path clip-path="url(#pb8b6d80374)" d="M 47.3 249.419553 
L 1141.2 249.419553 
" style="fill:none;stroke:#b0b0b0;stroke-linecap:square;stroke-width:0.8;"/>
     </g>
     <g id="line2d_6">
      <g>
       <use style="stroke:#000000;stroke-width:0.8;" x="47.3" xlink:href="#mf789db5f4f" y="249.419553"/>
      </g>
     </g>
     <g id="text_3">
      <!-- 1.0 -->
      <g transform="translate(24.396875 253.218772)scale(0.1 -0.1)">
       <defs>
        <path d="M 12.40625 8.296875 
L 28.515625 8.296875 
L 28.515625 63.921875 
L 10.984375 60.40625 
L 10.984375 69.390625 
L 28.421875 72.90625 
L 38.28125 72.90625 
L 38.28125 8.296875 
L 54.390625 8.296875 
L 54.390625 0 
L 12.40625 0 
z
" id="DejaVuSans-49"/>
       </defs>
       <use xlink:href="#DejaVuSans-49"/>
       <use x="63.623047" xlink:href="#DejaVuSans-46"/>
       <use x="95.410156" xlink:href="#DejaVuSans-48"/>
      </g>
     </g>
    </g>
    <g id="ytick_4">
     <g id="line2d_7">
      <path clip-path="url(#pb8b6d80374)" d="M 47.3 195.342321 
L 1141.2 195.342321 
" style="fill:none;stroke:#b0b0b0;stroke-linecap:square;stroke-width:0.8;"/>
     </g>
     <g id="line2d_8">
      <g>
       <use style="stroke:#000000;stroke-width:0.8;" x="47.3" xlink:href="#mf789db5f4f" y="195.342321"/>
      </g>
     </g>
     <g id="text_4">
      <!-- 1.5 -->
      <g transform="translate(24.396875 199.141539)scale(0.1 -0.1)">
       <use xlink:href="#DejaVuSans-49"/>
       <use x="63.623047" xlink:href="#DejaVuSans-46"/>
       <use x="95.410156" xlink:href="#DejaVuSans-53"/>
      </g>
     </g>
    </g>
    <g id="ytick_5">
     <g id="line2d_9">
      <path clip-path="url(#pb8b6d80374)" d="M 47.3 141.265088 
L 1141.2 141.265088 
" style="fill:none;stroke:#b0b0b0;stroke-linecap:square;stroke-width:0.8;"/>
     </g>
     <g id="line2d_10">
      <g>
       <use style="stroke:#000000;stroke-width:0.8;" x="47.3" xlink:href="#mf789db5f4f" y="141.265088"/>
      </g>
     </g>
     <g id="text_5">
      <!-- 2.0 -->
      <g transform="translate(24.396875 145.064307)scale(0.1 -0.1)">
       <defs>
        <path d="M 19.1875 8.296875 
L 53.609375 8.296875 
L 53.609375 0 
L 7.328125 0 
L 7.328125 8.296875 
Q 12.9375 14.109375 22.625 23.890625 
Q 32.328125 33.6875 34.8125 36.53125 
Q 39.546875 41.84375 41.421875 45.53125 
Q 43.3125 49.21875 43.3125 52.78125 
Q 43.3125 58.59375 39.234375 62.25 
Q 35.15625 65.921875 28.609375 65.921875 
Q 23.96875 65.921875 18.8125 64.3125 
Q 13.671875 62.703125 7.8125 59.421875 
L 7.8125 69.390625 
Q 13.765625 71.78125 18.9375 73 
Q 24.125 74.21875 28.421875 74.21875 
Q 39.75 74.21875 46.484375 68.546875 
Q 53.21875 62.890625 53.21875 53.421875 
Q 53.21875 48.921875 51.53125 44.890625 
Q 49.859375 40.875 45.40625 35.40625 
Q 44.1875 33.984375 37.640625 27.21875 
Q 31.109375 20.453125 19.1875 8.296875 
z
" id="DejaVuSans-50"/>
       </defs>
       <use xlink:href="#DejaVuSans-50"/>
       <use x="63.623047" xlink:href="#DejaVuSans-46"/>
       <use x="95.410156" xlink:href="#DejaVuSans-48"/>
      </g>
     </g>
    </g>
    <g id="ytick_6">
     <g id="line2d_11">
      <path clip-path="url(#pb8b6d80374)" d="M 47.3 87.187856 
L 1141.2 87.187856 
" style="fill:none;stroke:#b0b0b0;stroke-linecap:square;stroke-width:0.8;"/>
     </g>
     <g id="line2d_12">
      <g>
       <use style="stroke:#000000;stroke-width:0.8;" x="47.3" xlink:href="#mf789db5f4f" y="87.187856"/>
      </g>
     </g>
     <g id="text_6">
      <!-- 2.5 -->
      <g transform="translate(24.396875 90.987075)scale(0.1 -0.1)">
       <use xlink:href="#DejaVuSans-50"/>
       <use x="63.623047" xlink:href="#DejaVuSans-46"/>
       <use x="95.410156" xlink:href="#DejaVuSans-53"/>
      </g>
     </g>
    </g>
    <g id="ytick_7">
     <g id="line2d_13">
      <path clip-path="url(#pb8b6d80374)" d="M 47.3 33.110623 
L 1141.2 33.110623 
" style="fill:none;stroke:#b0b0b0;stroke-linecap:square;stroke-width:0.8;"/>
     </g>
     <g id="line2d_14">
      <g>
       <use style="stroke:#000000;stroke-width:0.8;" x="47.3" xlink:href="#mf789db5f4f" y="33.110623"/>
      </g>
     </g>
     <g id="text_7">
      <!-- 3.0 -->
      <g transform="translate(24.396875 36.909842)scale(0.1 -0.1)">
       <defs>
        <path d="M 40.578125 39.3125 
Q 47.65625 37.796875 51.625 33 
Q 55.609375 28.21875 55.609375 21.1875 
Q 55.609375 10.40625 48.1875 4.484375 
Q 40.765625 -1.421875 27.09375 -1.421875 
Q 22.515625 -1.421875 17.65625 -0.515625 
Q 12.796875 0.390625 7.625 2.203125 
L 7.625 11.71875 
Q 11.71875 9.328125 16.59375 8.109375 
Q 21.484375 6.890625 26.8125 6.890625 
Q 36.078125 6.890625 40.9375 10.546875 
Q 45.796875 14.203125 45.796875 21.1875 
Q 45.796875 27.640625 41.28125 31.265625 
Q 36.765625 34.90625 28.71875 34.90625 
L 20.21875 34.90625 
L 20.21875 43.015625 
L 29.109375 43.015625 
Q 36.375 43.015625 40.234375 45.921875 
Q 44.09375 48.828125 44.09375 54.296875 
Q 44.09375 59.90625 40.109375 62.90625 
Q 36.140625 65.921875 28.71875 65.921875 
Q 24.65625 65.921875 20.015625 65.03125 
Q 15.375 64.15625 9.8125 62.3125 
L 9.8125 71.09375 
Q 15.4375 72.65625 20.34375 73.4375 
Q 25.25 74.21875 29.59375 74.21875 
Q 40.828125 74.21875 47.359375 69.109375 
Q 53.90625 64.015625 53.90625 55.328125 
Q 53.90625 49.265625 50.4375 45.09375 
Q 46.96875 40.921875 40.578125 39.3125 
z
" id="DejaVuSans-51"/>
       </defs>
       <use xlink:href="#DejaVuSans-51"/>
       <use x="63.623047" xlink:href="#DejaVuSans-46"/>
       <use x="95.410156" xlink:href="#DejaVuSans-48"/>
      </g>
     </g>
    </g>
    <g id="text_8">
     <!-- net value -->
     <g transform="translate(18.317187 216.17825)rotate(-90)scale(0.1 -0.1)">
      <defs>
       <path d="M 54.890625 33.015625 
L 54.890625 0 
L 45.90625 0 
L 45.90625 32.71875 
Q 45.90625 40.484375 42.875 44.328125 
Q 39.84375 48.1875 33.796875 48.1875 
Q 26.515625 48.1875 22.3125 43.546875 
Q 18.109375 38.921875 18.109375 30.90625 
L 18.109375 0 
L 9.078125 0 
L 9.078125 54.6875 
L 18.109375 54.6875 
L 18.109375 46.1875 
Q 21.34375 51.125 25.703125 53.5625 
Q 30.078125 56 35.796875 56 
Q 45.21875 56 50.046875 50.171875 
Q 54.890625 44.34375 54.890625 33.015625 
z
" id="DejaVuSans-110"/>
       <path d="M 56.203125 29.59375 
L 56.203125 25.203125 
L 14.890625 25.203125 
Q 15.484375 15.921875 20.484375 11.0625 
Q 25.484375 6.203125 34.421875 6.203125 
Q 39.59375 6.203125 44.453125 7.46875 
Q 49.3125 8.734375 54.109375 11.28125 
L 54.109375 2.78125 
Q 49.265625 0.734375 44.1875 -0.34375 
Q 39.109375 -1.421875 33.890625 -1.421875 
Q 20.796875 -1.421875 13.15625 6.1875 
Q 5.515625 13.8125 5.515625 26.8125 
Q 5.515625 40.234375 12.765625 48.109375 
Q 20.015625 56 32.328125 56 
Q 43.359375 56 49.78125 48.890625 
Q 56.203125 41.796875 56.203125 29.59375 
z
M 47.21875 32.234375 
Q 47.125 39.59375 43.09375 43.984375 
Q 39.0625 48.390625 32.421875 48.390625 
Q 24.90625 48.390625 20.390625 44.140625 
Q 15.875 39.890625 15.1875 32.171875 
z
" id="DejaVuSans-101"/>
       <path d="M 18.3125 70.21875 
L 18.3125 54.6875 
L 36.8125 54.6875 
L 36.8125 47.703125 
L 18.3125 47.703125 
L 18.3125 18.015625 
Q 18.3125 11.328125 20.140625 9.421875 
Q 21.96875 7.515625 27.59375 7.515625 
L 36.8125 7.515625 
L 36.8125 0 
L 27.59375 0 
Q 17.1875 0 13.234375 3.875 
Q 9.28125 7.765625 9.28125 18.015625 
L 9.28125 47.703125 
L 2.6875 47.703125 
L 2.6875 54.6875 
L 9.28125 54.6875 
L 9.28125 70.21875 
z
" id="DejaVuSans-116"/>
       <path id="DejaVuSans-32"/>
       <path d="M 2.984375 54.6875 
L 12.5 54.6875 
L 29.59375 8.796875 
L 46.6875 54.6875 
L 56.203125 54.6875 
L 35.6875 0 
L 23.484375 0 
z
" id="DejaVuSans-118"/>
       <path d="M 34.28125 27.484375 
Q 23.390625 27.484375 19.1875 25 
Q 14.984375 22.515625 14.984375 16.5 
Q 14.984375 11.71875 18.140625 8.90625 
Q 21.296875 6.109375 26.703125 6.109375 
Q 34.1875 6.109375 38.703125 11.40625 
Q 43.21875 16.703125 43.21875 25.484375 
L 43.21875 27.484375 
z
M 52.203125 31.203125 
L 52.203125 0 
L 43.21875 0 
L 43.21875 8.296875 
Q 40.140625 3.328125 35.546875 0.953125 
Q 30.953125 -1.421875 24.3125 -1.421875 
Q 15.921875 -1.421875 10.953125 3.296875 
Q 6 8.015625 6 15.921875 
Q 6 25.140625 12.171875 29.828125 
Q 18.359375 34.515625 30.609375 34.515625 
L 43.21875 34.515625 
L 43.21875 35.40625 
Q 43.21875 41.609375 39.140625 45 
Q 35.0625 48.390625 27.6875 48.390625 
Q 23 48.390625 18.546875 47.265625 
Q 14.109375 46.140625 10.015625 43.890625 
L 10.015625 52.203125 
Q 14.9375 54.109375 19.578125 55.046875 
Q 24.21875 56 28.609375 56 
Q 40.484375 56 46.34375 49.84375 
Q 52.203125 43.703125 52.203125 31.203125 
z
" id="DejaVuSans-97"/>
       <path d="M 9.421875 75.984375 
L 18.40625 75.984375 
L 18.40625 0 
L 9.421875 0 
z
" id="DejaVuSans-108"/>
       <path d="M 8.5 21.578125 
L 8.5 54.6875 
L 17.484375 54.6875 
L 17.484375 21.921875 
Q 17.484375 14.15625 20.5 10.265625 
Q 23.53125 6.390625 29.59375 6.390625 
Q 36.859375 6.390625 41.078125 11.03125 
Q 45.3125 15.671875 45.3125 23.6875 
L 45.3125 54.6875 
L 54.296875 54.6875 
L 54.296875 0 
L 45.3125 0 
L 45.3125 8.40625 
Q 42.046875 3.421875 37.71875 1 
Q 33.40625 -1.421875 27.6875 -1.421875 
Q 18.265625 -1.421875 13.375 4.4375 
Q 8.5 10.296875 8.5 21.578125 
z
M 31.109375 56 
z
" id="DejaVuSans-117"/>
      </defs>
      <use xlink:href="#DejaVuSans-110"/>
      <use x="63.378906" xlink:href="#DejaVuSans-101"/>
      <use x="124.902344" xlink:href="#DejaVuSans-116"/>
      <use x="164.111328" xlink:href="#DejaVuSans-32"/>
      <use x="195.898438" xlink:href="#DejaVuSans-118"/>
      <use x="255.078125" xlink:href="#DejaVuSans-97"/>
      <use x="316.357422" xlink:href="#DejaVuSans-108"/>
      <use x="344.140625" xlink:href="#DejaVuSans-117"/>
      <use x="407.519531" xlink:href="#DejaVuSans-101"/>
     </g>
    </g>
   </g>
   <g id="line2d_15">
    <path clip-path="url(#pb8b6d80374)" d="M 97.022727 246.509055 
L 101.032625 243.774784 
L 105.042522 239.009618 
L 109.052419 236.294336 
L 121.082111 229.214932 
L 125.092009 230.106661 
L 129.101906 225.642277 
L 133.111804 231.965035 
L 137.121701 236.829886 
L 149.151393 238.279115 
L 153.16129 236.857873 
L 157.171188 240.150198 
L 161.181085 244.355456 
L 165.190982 236.481687 
L 177.220674 247.220703 
L 181.230572 245.050053 
L 185.240469 239.746848 
L 189.250367 240.564194 
L 193.260264 239.451579 
L 205.289956 248.588719 
L 209.299853 257.444719 
L 213.309751 258.878554 
L 217.319648 262.497628 
L 221.329545 267.812608 
L 233.359238 263.725072 
L 237.369135 263.155541 
L 241.379032 259.353548 
L 245.38893 262.526046 
L 249.398827 262.389227 
L 261.428519 264.92148 
L 265.438416 264.494698 
L 269.448314 263.371343 
L 273.458211 255.122936 
L 277.468109 248.898283 
L 289.497801 247.944996 
L 293.507698 242.591884 
L 297.517595 236.049863 
L 301.527493 239.561956 
L 305.53739 243.428329 
L 317.567082 237.087796 
L 321.576979 243.093763 
L 325.586877 235.820121 
L 329.596774 237.890296 
L 333.606672 231.59179 
L 345.636364 221.386738 
L 349.646261 215.943773 
L 353.656158 214.678923 
L 357.666056 207.637323 
L 361.675953 210.013065 
L 373.705645 213.840081 
L 377.715543 210.64593 
L 381.72544 202.323841 
L 385.735337 203.096909 
L 389.745235 210.655321 
L 401.774927 208.849908 
L 405.784824 212.850881 
L 409.794721 204.641777 
L 413.804619 206.337322 
L 417.814516 218.984265 
L 429.844208 219.246536 
L 433.854106 216.300691 
L 437.864003 218.598821 
L 441.8739 224.576563 
L 445.883798 221.971447 
L 457.91349 211.864007 
L 461.923387 210.405716 
L 465.933284 221.226321 
L 469.943182 215.429058 
L 473.953079 208.675371 
L 485.982771 217.676776 
L 489.992669 215.577816 
L 494.002566 210.435805 
L 498.012463 201.308287 
L 502.022361 202.68354 
L 514.052053 199.705213 
L 518.06195 201.561385 
L 522.071848 200.959869 
L 526.081745 196.047302 
L 530.091642 194.080053 
L 542.121334 183.929778 
L 546.131232 178.276399 
L 550.141129 181.786443 
L 554.151026 179.645545 
L 558.160924 178.701186 
L 570.190616 190.020766 
L 574.200513 185.736235 
L 578.210411 183.419929 
L 582.220308 183.418785 
L 586.230205 196.532867 
L 598.259897 200.124034 
L 602.269795 198.125036 
L 606.279692 195.029364 
L 610.289589 190.522608 
L 614.299487 193.786152 
L 626.329179 209.299008 
L 630.339076 216.060987 
L 634.348974 227.508758 
L 638.358871 229.67007 
L 642.368768 232.933934 
L 654.39846 230.827126 
L 658.408358 229.927622 
L 662.418255 234.913491 
L 666.428152 238.007515 
L 670.43805 237.066054 
L 682.467742 240.280202 
L 686.477639 232.83078 
L 690.487537 229.176387 
L 694.497434 234.917487 
L 698.507331 241.731122 
L 710.537023 237.281437 
L 714.546921 230.562829 
L 718.556818 241.103646 
L 722.566716 246.694799 
L 726.576613 241.65571 
L 738.606305 237.037888 
L 742.616202 242.197185 
L 746.6261 242.238379 
L 750.635997 241.64322 
L 754.645894 241.401302 
L 766.675587 239.415093 
L 770.685484 250.522611 
L 774.695381 248.491253 
L 778.705279 247.112951 
L 782.715176 246.03665 
L 794.744868 245.254972 
L 798.754765 243.656412 
L 802.764663 243.582211 
L 806.77456 242.011355 
L 810.784457 241.366382 
L 822.81415 250.043441 
L 826.824047 252.268728 
L 830.833944 246.460406 
L 834.843842 249.213855 
L 838.853739 242.888806 
L 850.883431 238.892208 
L 854.893328 236.256103 
L 858.903226 233.361848 
L 862.913123 244.86206 
L 866.923021 237.155944 
L 878.952713 236.081922 
L 882.96261 233.477833 
L 886.972507 230.16962 
L 890.982405 232.257265 
L 894.992302 232.281044 
L 907.021994 233.51321 
L 911.031891 237.896362 
L 915.041789 227.084359 
L 919.051686 226.153059 
L 923.061584 218.394545 
L 935.091276 218.480953 
L 939.101173 209.067441 
L 943.11107 205.589174 
L 947.120968 204.436882 
L 951.130865 200.097737 
L 963.160557 206.243598 
L 967.170455 201.705827 
L 971.180352 204.415571 
L 979.200147 191.638447 
L 991.229839 192.428847 
L 995.239736 189.000846 
L 999.249633 198.158591 
L 1003.259531 195.653141 
L 1007.269428 197.137268 
L 1019.29912 204.121618 
L 1023.309018 203.258945 
L 1027.318915 205.752115 
L 1031.328812 207.469041 
L 1035.33871 208.878101 
L 1047.368402 200.003484 
L 1051.378299 193.178377 
L 1055.388196 201.330007 
L 1059.398094 197.221386 
L 1063.407991 208.173828 
L 1075.437683 210.319611 
L 1083.457478 217.520909 
L 1087.467375 213.672395 
L 1091.477273 207.831422 
L 1091.477273 207.831422 
" style="fill:none;stroke:#1f77b4;stroke-linecap:square;stroke-width:1.5;"/>
   </g>
   <g id="line2d_16">
    <path clip-path="url(#pb8b6d80374)" d="M 97.022727 252.504337 
L 101.032625 250.469404 
L 105.042522 250.207033 
L 109.052419 251.47753 
L 121.082111 254.210954 
L 125.092009 255.376513 
L 133.111804 262.481444 
L 149.151393 264.373697 
L 153.16129 264.733997 
L 157.171188 266.163014 
L 161.181085 264.654676 
L 165.190982 263.701892 
L 177.220674 262.403478 
L 181.230572 260.933299 
L 185.240469 260.670959 
L 189.250367 255.36835 
L 193.260264 262.152946 
L 205.289956 259.470749 
L 209.299853 259.964296 
L 213.309751 261.44888 
L 217.319648 260.502118 
L 221.329545 263.656132 
L 233.359238 257.665383 
L 237.369135 255.36085 
L 241.379032 250.890107 
L 245.38893 257.664719 
L 249.398827 258.299635 
L 261.428519 265.876583 
L 265.438416 260.323828 
L 269.448314 262.695336 
L 273.458211 266.578214 
L 277.468109 264.292766 
L 289.497801 268.883692 
L 293.507698 264.702806 
L 297.517595 272.052176 
L 301.527493 273.262461 
L 305.53739 276.237272 
L 317.567082 279.869774 
L 321.576979 281.349941 
L 325.586877 281.943336 
L 329.596774 279.331444 
L 333.606672 284.573354 
L 345.636364 286.79041 
L 349.646261 292.394587 
L 353.656158 294.782446 
L 357.666056 293.296938 
L 361.675953 295.788684 
L 373.705645 293.150366 
L 377.715543 293.127444 
L 381.72544 296.197233 
L 385.735337 290.996671 
L 389.745235 292.951595 
L 401.774927 296.12097 
L 405.784824 295.943114 
L 409.794721 299.63657 
L 413.804619 297.408239 
L 417.814516 300.731237 
L 429.844208 301.83484 
L 433.854106 298.175776 
L 437.864003 301.848444 
L 441.8739 301.211794 
L 445.883798 302.576561 
L 457.91349 300.876731 
L 461.923387 300.943317 
L 465.933284 299.864987 
L 469.943182 303.439801 
L 473.953079 301.644403 
L 485.982771 300.122332 
L 494.002566 300.42379 
L 498.012463 301.092826 
L 502.022361 303.957061 
L 514.052053 301.984615 
L 518.06195 298.345592 
L 522.071848 298.560348 
L 526.081745 299.6326 
L 530.091642 303.743786 
L 542.121334 302.155477 
L 546.131232 303.711757 
L 550.141129 303.158887 
L 554.151026 303.972431 
L 558.160924 303.575287 
L 570.190616 303.199704 
L 574.200513 300.653903 
L 578.210411 297.796115 
L 582.220308 297.951398 
L 586.230205 294.83714 
L 598.259897 296.2538 
L 602.269795 297.118328 
L 606.279692 295.647049 
L 610.289589 295.742593 
L 614.299487 293.522024 
L 626.329179 295.816438 
L 630.339076 294.529898 
L 634.348974 292.110801 
L 638.358871 294.462876 
L 642.368768 291.86124 
L 654.39846 291.992347 
L 658.408358 293.798288 
L 662.418255 292.684136 
L 666.428152 290.129203 
L 670.43805 290.389665 
L 682.467742 284.865757 
L 686.477639 287.529985 
L 690.487537 285.020541 
L 694.497434 286.656171 
L 698.507331 282.049264 
L 710.537023 282.220076 
L 714.546921 278.565101 
L 718.556818 280.793544 
L 722.566716 276.511013 
L 726.576613 278.042614 
L 738.606305 275.786967 
L 742.616202 271.187308 
L 746.6261 278.48875 
L 750.635997 274.430507 
L 754.645894 274.050277 
L 766.675587 267.233595 
L 770.685484 260.564789 
L 774.695381 261.267215 
L 778.705279 257.601908 
L 782.715176 254.957874 
L 794.744868 252.87785 
L 798.754765 258.924394 
L 802.764663 260.727955 
L 806.77456 253.65198 
L 810.784457 248.085438 
L 822.81415 248.686887 
L 826.824047 245.740483 
L 830.833944 243.309227 
L 834.843842 241.695691 
L 838.853739 246.532146 
L 850.883431 239.589709 
L 854.893328 236.685102 
L 858.903226 237.31443 
L 862.913123 236.624192 
L 866.923021 230.897099 
L 878.952713 222.164897 
L 882.96261 220.905971 
L 886.972507 220.829011 
L 890.982405 211.112235 
L 894.992302 210.043972 
L 907.021994 216.568673 
L 911.031891 214.845012 
L 915.041789 220.368102 
L 919.051686 226.659596 
L 923.061584 219.969071 
L 935.091276 218.445942 
L 939.101173 206.688535 
L 943.11107 202.035905 
L 947.120968 192.650929 
L 951.130865 180.459957 
L 963.160557 188.881568 
L 967.170455 193.358305 
L 971.180352 195.891615 
L 975.190249 204.168118 
L 979.200147 208.235515 
L 991.229839 215.692998 
L 995.239736 215.882935 
L 999.249633 217.633185 
L 1003.259531 220.522213 
L 1007.269428 222.69607 
L 1019.29912 225.18909 
L 1023.309018 228.814226 
L 1027.318915 221.620393 
L 1031.328812 212.417094 
L 1035.33871 210.89517 
L 1047.368402 204.580229 
L 1051.378299 206.742736 
L 1055.388196 195.462878 
L 1059.398094 196.355683 
L 1063.407991 182.255881 
L 1075.437683 181.024221 
L 1079.447581 180.966781 
L 1083.457478 177.162213 
L 1087.467375 192.535417 
L 1091.477273 185.940569 
L 1091.477273 185.940569 
" style="fill:none;stroke:#ff7f0e;stroke-linecap:square;stroke-width:1.5;"/>
   </g>
   <g id="line2d_17">
    <path clip-path="url(#pb8b6d80374)" d="M 97.022727 250.114697 
L 101.032625 250.657805 
L 105.042522 241.97373 
L 109.052419 239.856514 
L 121.082111 237.358518 
L 125.092009 238.236524 
L 129.101906 239.99746 
L 133.111804 238.517153 
L 137.121701 242.758436 
L 149.151393 243.082434 
L 153.16129 241.045478 
L 157.171188 244.261445 
L 161.181085 251.906595 
L 165.190982 245.856145 
L 177.220674 250.374415 
L 181.230572 245.860918 
L 185.240469 246.124278 
L 189.250367 236.771579 
L 193.260264 239.059433 
L 205.289956 235.172753 
L 209.299853 235.696955 
L 213.309751 241.069145 
L 217.319648 244.856013 
L 221.329545 247.605854 
L 233.359238 252.19715 
L 237.369135 245.24192 
L 241.379032 245.278031 
L 245.38893 251.931915 
L 249.398827 255.781554 
L 261.428519 261.473464 
L 265.438416 260.546242 
L 269.448314 260.541757 
L 273.458211 252.90431 
L 277.468109 250.829803 
L 289.497801 254.01086 
L 293.507698 244.647904 
L 301.527493 243.886494 
L 305.53739 249.66916 
L 317.567082 249.105611 
L 321.576979 246.126731 
L 325.586877 248.125443 
L 329.596774 249.319785 
L 333.606672 254.180889 
L 345.636364 245.435541 
L 349.646261 242.106587 
L 353.656158 250.631438 
L 357.666056 246.885419 
L 361.675953 250.494413 
L 373.705645 253.107365 
L 377.715543 246.228753 
L 381.72544 247.798652 
L 385.735337 247.500181 
L 389.745235 247.702764 
L 401.774927 250.412154 
L 405.784824 246.289745 
L 409.794721 249.810615 
L 413.804619 254.391265 
L 417.814516 261.558085 
L 429.844208 260.713946 
L 433.854106 251.857322 
L 437.864003 252.902617 
L 441.8739 245.722185 
L 445.883798 250.707908 
L 457.91349 252.413086 
L 461.923387 255.347439 
L 469.943182 265.240527 
L 473.953079 265.09553 
L 485.982771 267.947604 
L 489.992669 265.358725 
L 494.002566 267.750089 
L 502.022361 276.434108 
L 514.052053 280.182547 
L 518.06195 281.120399 
L 522.071848 278.666917 
L 526.081745 277.979371 
L 530.091642 281.51598 
L 542.121334 286.085398 
L 546.131232 289.364277 
L 550.141129 294.877502 
L 554.151026 297.620666 
L 558.160924 294.656064 
L 570.190616 292.463517 
L 574.200513 295.957307 
L 578.210411 292.02156 
L 582.220308 290.368245 
L 586.230205 296.808849 
L 598.259897 300.751595 
L 602.269795 301.890826 
L 606.279692 305.635445 
L 610.289589 304.776872 
L 614.299487 305.626857 
L 626.329179 303.281974 
L 630.339076 298.273016 
L 634.348974 295.531606 
L 638.358871 294.093277 
L 642.368768 295.49808 
L 654.39846 298.747543 
L 658.408358 297.363156 
L 662.418255 295.178454 
L 666.428152 297.712341 
L 670.43805 293.957826 
L 682.467742 296.873624 
L 686.477639 295.556157 
L 690.487537 296.573497 
L 694.497434 298.617353 
L 698.507331 295.848971 
L 710.537023 300.790763 
L 714.546921 301.456357 
L 718.556818 302.788364 
L 722.566716 304.475374 
L 726.576613 300.669496 
L 738.606305 301.175335 
L 742.616202 302.377822 
L 746.6261 305.433822 
L 750.635997 307.957252 
L 754.645894 308.690533 
L 766.675587 304.537135 
L 770.685484 304.436148 
L 774.695381 302.75935 
L 778.705279 305.382346 
L 782.715176 308.383104 
L 794.744868 307.051906 
L 798.754765 309.332244 
L 802.764663 309.271285 
L 806.77456 306.543705 
L 810.784457 310.881271 
L 822.81415 313.952878 
L 826.824047 310.696539 
L 830.833944 308.806473 
L 834.843842 305.856228 
L 838.853739 305.52005 
L 850.883431 308.065425 
L 854.893328 309.827649 
L 858.903226 308.246627 
L 862.913123 311.677475 
L 866.923021 310.084934 
L 878.952713 309.121116 
L 882.96261 306.923253 
L 886.972507 303.759028 
L 890.982405 304.347484 
L 894.992302 303.462839 
L 907.021994 305.796354 
L 911.031891 306.963507 
L 915.041789 309.055629 
L 919.051686 306.81332 
L 923.061584 310.339906 
L 935.091276 312.025023 
L 939.101173 310.208296 
L 943.11107 313.115573 
L 947.120968 313.400436 
L 951.130865 313.498304 
L 963.160557 312.514425 
L 967.170455 311.272857 
L 971.180352 311.696334 
L 975.190249 313.299879 
L 979.200147 315.275913 
L 991.229839 314.900448 
L 995.239736 317.628276 
L 999.249633 317.760373 
L 1003.259531 318.932338 
L 1007.269428 317.742374 
L 1019.29912 314.556042 
L 1027.318915 318.800098 
L 1031.328812 317.150055 
L 1035.33871 319.863259 
L 1047.368402 319.970374 
L 1055.388196 317.277675 
L 1059.398094 318.295869 
L 1063.407991 318.137891 
L 1075.437683 317.038967 
L 1079.447581 319.702251 
L 1083.457478 320.100182 
L 1087.467375 318.181474 
L 1091.477273 317.872373 
L 1091.477273 317.872373 
" style="fill:none;stroke:#2ca02c;stroke-linecap:square;stroke-width:1.5;"/>
   </g>
   <g id="line2d_18">
    <path clip-path="url(#pb8b6d80374)" d="M 97.022727 250.226208 
L 101.032625 250.256269 
L 105.042522 248.376225 
L 109.052419 248.841014 
L 121.082111 244.335852 
L 125.092009 245.873661 
L 129.101906 239.328491 
L 133.111804 239.137405 
L 137.121701 243.858204 
L 149.151393 240.973673 
L 153.16129 236.134276 
L 157.171188 244.730958 
L 165.190982 243.615444 
L 177.220674 242.563624 
L 181.230572 231.754976 
L 185.240469 240.31661 
L 189.250367 245.332129 
L 193.260264 244.58172 
L 205.289956 244.893449 
L 209.299853 246.782129 
L 217.319648 246.14276 
L 221.329545 238.795633 
L 233.359238 236.744429 
L 237.369135 239.088931 
L 241.379032 236.474272 
L 245.38893 235.863243 
L 249.398827 242.336379 
L 261.428519 250.157958 
L 265.438416 251.221666 
L 269.448314 254.676543 
L 273.458211 252.137948 
L 277.468109 257.589043 
L 289.497801 262.103846 
L 293.507698 258.466823 
L 297.517595 260.975885 
L 301.527493 259.499951 
L 305.53739 255.238211 
L 317.567082 257.436974 
L 321.576979 254.795125 
L 325.586877 261.758431 
L 329.596774 265.099136 
L 333.606672 262.631637 
L 345.636364 257.645575 
L 349.646261 255.408044 
L 353.656158 263.299984 
L 357.666056 260.965835 
L 361.675953 268.415107 
L 373.705645 267.231813 
L 377.715543 268.100147 
L 381.72544 265.670172 
L 385.735337 270.404996 
L 389.745235 269.045109 
L 401.774927 269.549725 
L 405.784824 273.8011 
L 409.794721 275.98582 
L 413.804619 273.625411 
L 417.814516 273.218399 
L 429.844208 273.761854 
L 433.854106 275.978305 
L 437.864003 277.058163 
L 441.8739 284.692758 
L 445.883798 283.149526 
L 457.91349 280.986634 
L 461.923387 281.779489 
L 465.933284 282.21428 
L 469.943182 280.970344 
L 473.953079 285.147201 
L 485.982771 281.554358 
L 489.992669 288.657507 
L 494.002566 290.24732 
L 498.012463 289.946587 
L 502.022361 287.072076 
L 514.052053 285.811033 
L 518.06195 289.225823 
L 522.071848 288.410661 
L 526.081745 287.9507 
L 530.091642 292.393658 
L 542.121334 294.590516 
L 546.131232 290.027932 
L 550.141129 290.366909 
L 554.151026 290.558214 
L 558.160924 292.967823 
L 570.190616 294.492566 
L 574.200513 296.491258 
L 578.210411 296.190457 
L 582.220308 298.687355 
L 586.230205 295.238166 
L 598.259897 295.23658 
L 602.269795 289.958026 
L 606.279692 293.539524 
L 610.289589 294.142771 
L 614.299487 294.435314 
L 626.329179 294.501795 
L 630.339076 295.626493 
L 634.348974 291.987344 
L 638.358871 289.739977 
L 642.368768 288.436782 
L 654.39846 289.267671 
L 658.408358 282.77373 
L 662.418255 276.013373 
L 666.428152 280.100568 
L 670.43805 283.593167 
L 682.467742 283.430233 
L 686.477639 284.386397 
L 690.487537 281.654953 
L 694.497434 281.945809 
L 698.507331 278.853007 
L 710.537023 277.832675 
L 714.546921 276.306698 
L 718.556818 281.217368 
L 722.566716 278.167282 
L 726.576613 280.195661 
L 738.606305 272.985834 
L 742.616202 268.433514 
L 746.6261 266.64218 
L 750.635997 268.250248 
L 754.645894 262.657097 
L 766.675587 264.989564 
L 770.685484 265.376245 
L 774.695381 265.971586 
L 778.705279 262.79486 
L 782.715176 269.024785 
L 794.744868 264.569346 
L 798.754765 259.651893 
L 802.764663 263.214955 
L 806.77456 261.442338 
L 810.784457 257.788451 
L 822.81415 260.120352 
L 826.824047 265.568355 
L 830.833944 268.247981 
L 834.843842 267.46781 
L 838.853739 260.285756 
L 850.883431 257.641184 
L 854.893328 254.130153 
L 858.903226 253.551893 
L 862.913123 249.961938 
L 866.923021 252.40954 
L 878.952713 256.124076 
L 882.96261 252.10101 
L 886.972507 260.783085 
L 890.982405 263.945871 
L 894.992302 262.008105 
L 907.021994 260.51854 
L 911.031891 261.247986 
L 915.041789 254.135199 
L 919.051686 254.639745 
L 923.061584 245.784178 
L 935.091276 245.028871 
L 939.101173 248.512268 
L 943.11107 255.604849 
L 947.120968 258.698521 
L 951.130865 264.303162 
L 963.160557 262.825731 
L 967.170455 261.61101 
L 971.180352 256.653626 
L 975.190249 247.720255 
L 979.200147 239.455365 
L 991.229839 244.071813 
L 995.239736 241.575594 
L 999.249633 243.863806 
L 1003.259531 244.065554 
L 1019.29912 234.763306 
L 1023.309018 235.131443 
L 1027.318915 235.972767 
L 1031.328812 231.115398 
L 1035.33871 234.000644 
L 1047.368402 231.621897 
L 1051.378299 222.90934 
L 1055.388196 224.138731 
L 1059.398094 221.662003 
L 1063.407991 228.304057 
L 1075.437683 223.632194 
L 1079.447581 224.535861 
L 1083.457478 223.853732 
L 1087.467375 216.472387 
L 1091.477273 206.159916 
L 1091.477273 206.159916 
" style="fill:none;stroke:#d62728;stroke-linecap:square;stroke-width:1.5;"/>
   </g>
   <g id="line2d_19">
    <path clip-path="url(#pb8b6d80374)" d="M 97.022727 246.752394 
L 101.032625 251.767527 
L 105.042522 247.375303 
L 109.052419 255.862043 
L 121.082111 256.994217 
L 125.092009 264.641621 
L 129.101906 265.511953 
L 133.111804 269.21358 
L 137.121701 267.090287 
L 149.151393 266.380932 
L 153.16129 260.436791 
L 157.171188 262.357112 
L 161.181085 262.842379 
L 165.190982 266.545397 
L 177.220674 265.900251 
L 181.230572 257.730685 
L 185.240469 256.921102 
L 189.250367 263.774012 
L 193.260264 269.742478 
L 205.289956 271.835935 
L 209.299853 275.596741 
L 213.309751 271.659937 
L 217.319648 272.585841 
L 221.329545 272.162259 
L 233.359238 268.751909 
L 237.369135 270.492694 
L 241.379032 266.734842 
L 245.38893 269.033096 
L 249.398827 261.875612 
L 261.428519 267.78024 
L 265.438416 266.507713 
L 269.448314 264.568718 
L 273.458211 265.448655 
L 277.468109 266.604163 
L 289.497801 265.328552 
L 293.507698 260.354361 
L 297.517595 262.346215 
L 301.527493 263.591036 
L 305.53739 257.672524 
L 317.567082 254.051275 
L 321.576979 264.006299 
L 325.586877 265.525029 
L 329.596774 260.527147 
L 333.606672 259.259921 
L 345.636364 254.524214 
L 349.646261 253.554589 
L 353.656158 252.040013 
L 357.666056 252.51506 
L 361.675953 249.511269 
L 373.705645 250.283872 
L 377.715543 245.058083 
L 381.72544 252.309416 
L 385.735337 245.818111 
L 389.745235 245.231313 
L 401.774927 239.255786 
L 405.784824 237.510268 
L 409.794721 237.250677 
L 413.804619 246.578185 
L 417.814516 252.239443 
L 429.844208 256.596575 
L 433.854106 255.667058 
L 437.864003 258.107948 
L 441.8739 253.089408 
L 445.883798 256.792213 
L 457.91349 247.916759 
L 461.923387 244.222378 
L 465.933284 250.862052 
L 469.943182 247.3075 
L 473.953079 238.881854 
L 485.982771 245.174296 
L 489.992669 248.510785 
L 494.002566 244.078668 
L 498.012463 245.334699 
L 502.022361 236.269418 
L 514.052053 229.642985 
L 518.06195 226.450584 
L 522.071848 219.693695 
L 526.081745 219.101583 
L 530.091642 209.672524 
L 542.121334 205.711955 
L 546.131232 199.950971 
L 550.141129 196.345957 
L 554.151026 199.59122 
L 558.160924 204.556946 
L 570.190616 209.182103 
L 574.200513 205.20394 
L 578.210411 193.073891 
L 582.220308 200.983161 
L 586.230205 199.256563 
L 598.259897 198.638756 
L 602.269795 195.850132 
L 606.279692 188.333763 
L 610.289589 189.508641 
L 614.299487 197.572482 
L 626.329179 203.90817 
L 630.339076 216.147334 
L 634.348974 210.08361 
L 638.358871 205.259805 
L 642.368768 201.623367 
L 654.39846 207.449938 
L 658.408358 201.27604 
L 662.418255 213.605678 
L 666.428152 220.498585 
L 670.43805 224.321259 
L 682.467742 226.866236 
L 686.477639 230.826827 
L 690.487537 222.344856 
L 694.497434 212.333199 
L 698.507331 207.380738 
L 710.537023 210.167741 
L 714.546921 208.273797 
L 718.556818 219.145775 
L 722.566716 215.808842 
L 726.576613 209.053971 
L 738.606305 206.439898 
L 742.616202 202.348471 
L 746.6261 210.670891 
L 750.635997 205.033804 
L 754.645894 193.527628 
L 766.675587 195.507565 
L 770.685484 195.962971 
L 774.695381 200.84949 
L 778.705279 198.386442 
L 782.715176 196.736124 
L 794.744868 192.733029 
L 798.754765 199.320487 
L 802.764663 196.898594 
L 806.77456 195.5236 
L 810.784457 198.677613 
L 822.81415 200.682199 
L 826.824047 213.957368 
L 830.833944 221.314335 
L 834.843842 226.586615 
L 838.853739 222.342003 
L 850.883431 210.313398 
L 854.893328 215.847054 
L 858.903226 225.038443 
L 862.913123 224.432577 
L 866.923021 220.331746 
L 878.952713 225.783607 
L 882.96261 220.117467 
L 886.972507 208.309187 
L 890.982405 210.53029 
L 894.992302 197.925119 
L 907.021994 201.28465 
L 911.031891 199.672633 
L 915.041789 190.143924 
L 919.051686 185.339124 
L 923.061584 189.758947 
L 935.091276 192.939788 
L 939.101173 193.345266 
L 943.11107 195.75286 
L 947.120968 197.943507 
L 951.130865 203.383635 
L 963.160557 205.147673 
L 967.170455 202.746943 
L 971.180352 204.131303 
L 975.190249 215.41794 
L 979.200147 216.703127 
L 991.229839 218.833273 
L 995.239736 227.968936 
L 999.249633 235.583883 
L 1007.269428 235.003869 
L 1019.29912 236.630906 
L 1023.309018 233.43567 
L 1031.328812 235.518118 
L 1035.33871 234.376243 
L 1047.368402 227.243953 
L 1051.378299 233.933581 
L 1055.388196 236.262207 
L 1059.398094 234.400268 
L 1063.407991 239.211044 
L 1075.437683 244.832697 
L 1079.447581 245.167559 
L 1083.457478 251.364394 
L 1087.467375 245.737704 
L 1091.477273 242.664236 
L 1091.477273 242.664236 
" style="fill:none;stroke:#9467bd;stroke-linecap:square;stroke-width:1.5;"/>
   </g>
   <g id="line2d_20">
    <path clip-path="url(#pb8b6d80374)" d="M 97.022727 242.228522 
L 101.032625 248.8646 
L 105.042522 255.782324 
L 109.052419 262.227682 
L 121.082111 265.960639 
L 125.092009 265.507035 
L 129.101906 266.760159 
L 133.111804 270.552016 
L 137.121701 268.605284 
L 149.151393 275.020039 
L 153.16129 278.451896 
L 157.171188 280.566643 
L 161.181085 281.24323 
L 165.190982 276.889689 
L 177.220674 281.736012 
L 181.230572 281.52011 
L 185.240469 280.114412 
L 189.250367 287.140767 
L 193.260264 285.62582 
L 205.289956 290.366859 
L 209.299853 296.213189 
L 213.309751 290.704391 
L 217.319648 284.477063 
L 221.329545 279.968481 
L 233.359238 283.001092 
L 237.369135 289.001645 
L 241.379032 286.474986 
L 245.38893 287.326006 
L 249.398827 292.636219 
L 261.428519 292.698859 
L 265.438416 298.740183 
L 269.448314 293.923805 
L 273.458211 296.994546 
L 277.468109 295.025443 
L 289.497801 297.380884 
L 293.507698 297.139292 
L 297.517595 296.574708 
L 301.527493 300.41944 
L 305.53739 295.051658 
L 317.567082 291.611267 
L 325.586877 280.146525 
L 329.596774 278.630495 
L 333.606672 271.969647 
L 345.636364 279.015015 
L 349.646261 283.791672 
L 353.656158 290.502512 
L 357.666056 292.845583 
L 361.675953 294.286732 
L 373.705645 297.180872 
L 377.715543 293.210173 
L 381.72544 295.054155 
L 385.735337 297.793344 
L 389.745235 297.282864 
L 401.774927 301.612682 
L 405.784824 298.230413 
L 409.794721 303.279953 
L 413.804619 297.992938 
L 417.814516 294.748811 
L 429.844208 298.534461 
L 433.854106 304.373212 
L 437.864003 301.016651 
L 441.8739 298.67679 
L 445.883798 295.979213 
L 457.91349 292.637444 
L 461.923387 298.16946 
L 465.933284 299.851016 
L 469.943182 304.285654 
L 473.953079 300.415817 
L 485.982771 299.006317 
L 489.992669 300.9871 
L 494.002566 305.926477 
L 498.012463 307.878937 
L 502.022361 309.616443 
L 514.052053 307.414172 
L 518.06195 306.034199 
L 522.071848 302.042824 
L 526.081745 302.351412 
L 530.091642 306.552812 
L 542.121334 304.37681 
L 546.131232 301.602203 
L 550.141129 300.916244 
L 554.151026 297.845764 
L 558.160924 297.91988 
L 570.190616 297.648658 
L 574.200513 298.517085 
L 578.210411 304.122543 
L 582.220308 308.314299 
L 586.230205 312.930632 
L 598.259897 311.712668 
L 602.269795 313.415445 
L 606.279692 313.339751 
L 610.289589 309.73407 
L 614.299487 312.13284 
L 626.329179 312.947301 
L 630.339076 310.666419 
L 634.348974 313.210704 
L 638.358871 316.964019 
L 642.368768 318.671658 
L 654.39846 321.307516 
L 658.408358 318.19079 
L 662.418255 315.763835 
L 666.428152 314.648308 
L 670.43805 311.459266 
L 682.467742 308.658513 
L 686.477639 311.72483 
L 690.487537 308.125128 
L 694.497434 307.736042 
L 698.507331 304.671603 
L 710.537023 300.480765 
L 714.546921 302.55892 
L 718.556818 306.849526 
L 722.566716 309.609596 
L 726.576613 310.308843 
L 738.606305 307.302638 
L 742.616202 303.675753 
L 746.6261 308.990638 
L 750.635997 308.88621 
L 754.645894 309.690426 
L 766.675587 312.351721 
L 770.685484 315.789833 
L 774.695381 317.146857 
L 778.705279 313.56574 
L 782.715176 315.121847 
L 794.744868 314.962307 
L 798.754765 313.23211 
L 802.764663 314.441494 
L 806.77456 310.371664 
L 810.784457 306.005944 
L 822.81415 308.565966 
L 826.824047 308.592935 
L 834.843842 312.567383 
L 838.853739 316.736015 
L 850.883431 315.841138 
L 854.893328 315.818777 
L 858.903226 319.5644 
L 862.913123 321.247112 
L 866.923021 318.280905 
L 878.952713 320.32759 
L 882.96261 322.972869 
L 886.972507 323.045859 
L 890.982405 319.692135 
L 894.992302 321.646422 
L 907.021994 320.409539 
L 911.031891 318.464947 
L 915.041789 320.517098 
L 919.051686 318.825698 
L 923.061584 319.850335 
L 935.091276 318.852122 
L 939.101173 317.818017 
L 943.11107 317.533566 
L 947.120968 320.814562 
L 951.130865 318.349455 
L 963.160557 319.75542 
L 967.170455 322.126506 
L 971.180352 325.382181 
L 975.190249 324.796979 
L 979.200147 323.632973 
L 991.229839 326.914475 
L 995.239736 326.840322 
L 999.249633 328.521481 
L 1003.259531 327.677953 
L 1007.269428 329.624986 
L 1019.29912 328.557681 
L 1023.309018 329.214986 
L 1027.318915 326.737938 
L 1031.328812 328.973425 
L 1035.33871 329.882544 
L 1047.368402 332.023242 
L 1055.388196 327.760944 
L 1059.398094 329.204245 
L 1063.407991 328.296503 
L 1075.437683 326.439007 
L 1079.447581 326.095272 
L 1083.457478 325.908599 
L 1087.467375 327.54347 
L 1091.477273 329.98734 
L 1091.477273 329.98734 
" style="fill:none;stroke:#8c564b;stroke-linecap:square;stroke-width:1.5;"/>
   </g>
   <g id="line2d_21">
    <path clip-path="url(#pb8b6d80374)" d="M 97.022727 253.943425 
L 101.032625 252.671041 
L 105.042522 241.640821 
L 109.052419 243.228406 
L 121.082111 240.0244 
L 125.092009 249.544094 
L 129.101906 249.085424 
L 137.121701 248.73738 
L 149.151393 240.036891 
L 153.16129 227.489449 
L 157.171188 226.584259 
L 161.181085 226.100964 
L 165.190982 238.738778 
L 177.220674 230.758692 
L 181.230572 219.818492 
L 185.240469 221.24762 
L 189.250367 218.163187 
L 193.260264 230.03244 
L 205.289956 224.668008 
L 209.299853 218.936331 
L 213.309751 224.725008 
L 217.319648 238.528484 
L 221.329545 245.277826 
L 233.359238 236.405799 
L 237.369135 229.030651 
L 241.379032 228.219959 
L 245.38893 229.944346 
L 249.398827 209.979172 
L 261.428519 218.943457 
L 265.438416 204.069236 
L 269.448314 213.367321 
L 273.458211 207.774574 
L 277.468109 214.522624 
L 289.497801 207.12971 
L 293.507698 199.621061 
L 297.517595 204.332835 
L 301.527493 196.677354 
L 305.53739 201.655921 
L 317.567082 204.583809 
L 321.576979 232.743563 
L 325.586877 244.627026 
L 329.596774 240.705969 
L 333.606672 249.040644 
L 345.636364 234.880224 
L 349.646261 226.265559 
L 353.656158 212.41054 
L 357.666056 207.992843 
L 361.675953 200.385741 
L 373.705645 194.321319 
L 377.715543 197.103215 
L 381.72544 202.847722 
L 385.735337 186.527246 
L 389.745235 187.089735 
L 401.774927 165.778293 
L 405.784824 174.540797 
L 409.794721 158.570786 
L 413.804619 193.376002 
L 417.814516 210.691207 
L 429.844208 207.916272 
L 433.854106 191.738154 
L 437.864003 206.173241 
L 441.8739 204.798019 
L 445.883798 217.209571 
L 457.91349 212.463573 
L 461.923387 195.212651 
L 465.933284 200.127175 
L 469.943182 182.786614 
L 473.953079 182.124002 
L 485.982771 195.751982 
L 489.992669 195.082644 
L 494.002566 174.295712 
L 498.012463 169.395449 
L 502.022361 147.6174 
L 514.052053 145.789694 
L 518.06195 146.331316 
L 522.071848 151.804993 
L 526.081745 149.777879 
L 530.091642 119.818964 
L 542.121334 123.592263 
L 546.131232 126.919806 
L 550.141129 124.471257 
L 554.151026 141.795881 
L 558.160924 148.310479 
L 570.190616 155.587195 
L 574.200513 147.245083 
L 578.210411 110.537361 
L 582.220308 103.042001 
L 586.230205 76.382233 
L 598.259897 82.956426 
L 602.269795 67.941856 
L 606.279692 54.977222 
L 610.289589 81.743533 
L 614.299487 81.147416 
L 626.329179 87.138756 
L 630.339076 122.500368 
L 634.348974 99.671012 
L 638.358871 69.416435 
L 642.368768 50.419851 
L 654.39846 41.084173 
L 658.408358 55.267422 
L 662.418255 97.744381 
L 666.428152 117.116938 
L 670.43805 141.686721 
L 682.467742 158.921713 
L 686.477639 152.488382 
L 690.487537 154.865615 
L 694.497434 141.453149 
L 698.507331 147.372648 
L 710.537023 167.924954 
L 714.546921 158.585161 
L 718.556818 157.55638 
L 722.566716 141.851227 
L 726.576613 128.427499 
L 738.606305 138.968731 
L 742.616202 148.82228 
L 746.6261 139.429589 
L 750.635997 131.527664 
L 754.645894 110.743099 
L 766.675587 100.003716 
L 770.685484 81.145211 
L 774.695381 80.525824 
L 778.705279 100.713262 
L 782.715176 88.967907 
L 794.744868 83.292025 
L 798.754765 105.389908 
L 802.764663 94.652423 
L 806.77456 117.210788 
L 810.784457 144.12008 
L 822.81415 136.216338 
L 826.824047 154.824377 
L 830.833944 157.136146 
L 834.843842 156.266442 
L 838.853739 131.09749 
L 850.883431 115.915626 
L 854.893328 125.125977 
L 858.903226 119.349303 
L 862.913123 107.713919 
L 866.923021 120.419961 
L 878.952713 117.487962 
L 882.96261 90.114647 
L 886.972507 66.574213 
L 890.982405 99.169209 
L 894.992302 63.686894 
L 907.021994 79.988917 
L 911.031891 91.65016 
L 915.041789 61.649045 
L 919.051686 66.663765 
L 923.061584 66.436339 
L 935.091276 79.658534 
L 939.101173 87.765007 
L 943.11107 93.650875 
L 947.120968 75.597321 
L 951.130865 104.116445 
L 963.160557 97.931233 
L 967.170455 77.563193 
L 971.180352 54.349274 
L 975.190249 82.165482 
L 979.200147 94.43591 
L 991.229839 72.974056 
L 995.239736 92.40245 
L 999.249633 93.477497 
L 1003.259531 100.401985 
L 1007.269428 83.155811 
L 1019.29912 97.277888 
L 1023.309018 84.504569 
L 1027.318915 110.645706 
L 1031.328812 94.833805 
L 1035.33871 84.024129 
L 1047.368402 47.040648 
L 1051.378299 89.356124 
L 1055.388196 114.649533 
L 1059.398094 99.160656 
L 1063.407991 117.521866 
L 1075.437683 144.153124 
L 1079.447581 147.143223 
L 1083.457478 159.991904 
L 1087.467375 139.32348 
L 1091.477273 115.564445 
L 1091.477273 115.564445 
" style="fill:none;stroke:#e377c2;stroke-linecap:square;stroke-width:1.5;"/>
   </g>
   <g id="line2d_22">
    <path clip-path="url(#pb8b6d80374)" d="M 97.022727 245.13902 
L 101.032625 254.37565 
L 105.042522 265.26395 
L 109.052419 273.222963 
L 121.082111 281.449223 
L 125.092009 280.543458 
L 129.101906 284.289819 
L 133.111804 283.837634 
L 137.121701 279.33229 
L 149.151393 284.03452 
L 153.16129 287.967762 
L 157.171188 287.929781 
L 161.181085 286.047531 
L 165.190982 286.942304 
L 177.220674 284.920875 
L 181.230572 286.143127 
L 185.240469 288.189383 
L 189.250367 294.001948 
L 193.260264 293.239068 
L 205.289956 292.501922 
L 209.299853 292.874851 
L 213.309751 286.139865 
L 221.329545 267.378488 
L 233.359238 275.010385 
L 237.369135 282.154961 
L 241.379032 282.41296 
L 245.38893 280.884916 
L 249.398827 286.792417 
L 261.428519 284.977652 
L 265.438416 292.072391 
L 269.448314 287.500686 
L 273.458211 297.01694 
L 277.468109 298.727851 
L 289.497801 301.460057 
L 297.517595 306.523696 
L 301.527493 308.265979 
L 305.53739 302.019664 
L 317.567082 302.048616 
L 321.576979 294.400129 
L 325.586877 293.425403 
L 329.596774 291.078658 
L 333.606672 288.967524 
L 345.636364 300.171335 
L 349.646261 305.955814 
L 353.656158 311.111709 
L 357.666056 315.024395 
L 373.705645 316.134409 
L 377.715543 314.330757 
L 381.72544 318.01897 
L 385.735337 319.555035 
L 389.745235 317.370152 
L 401.774927 320.751444 
L 405.784824 317.53531 
L 409.794721 323.213307 
L 413.804619 319.486397 
L 417.814516 314.227545 
L 429.844208 316.757438 
L 433.854106 321.663254 
L 437.864003 318.813392 
L 441.8739 315.542596 
L 445.883798 314.440796 
L 457.91349 315.315675 
L 461.923387 319.338637 
L 465.933284 317.609689 
L 469.943182 322.379209 
L 473.953079 321.495537 
L 485.982771 318.424794 
L 489.992669 320.336215 
L 494.002566 324.935108 
L 498.012463 328.193684 
L 502.022361 328.96235 
L 514.052053 328.198629 
L 518.06195 327.045082 
L 522.071848 324.798549 
L 526.081745 326.008762 
L 530.091642 328.794719 
L 542.121334 329.354031 
L 546.131232 328.800926 
L 550.141129 327.885019 
L 554.151026 326.637649 
L 558.160924 326.840233 
L 570.190616 324.755579 
L 574.200513 326.070383 
L 578.210411 329.485244 
L 582.220308 331.688198 
L 586.230205 332.164835 
L 598.259897 330.905003 
L 602.269795 332.233784 
L 606.279692 332.682323 
L 610.289589 331.343472 
L 614.299487 332.146269 
L 626.329179 330.19368 
L 630.339076 327.545603 
L 634.348974 326.745191 
L 638.358871 328.841147 
L 642.368768 329.316148 
L 654.39846 331.708427 
L 658.408358 329.669115 
L 662.418255 326.859535 
L 666.428152 325.265299 
L 670.43805 323.119413 
L 682.467742 320.107871 
L 686.477639 324.835978 
L 690.487537 323.224727 
L 694.497434 321.418576 
L 698.507331 317.186995 
L 710.537023 315.538927 
L 714.546921 319.416728 
L 718.556818 319.22588 
L 722.566716 319.471615 
L 726.576613 321.758716 
L 738.606305 320.907526 
L 742.616202 316.692749 
L 746.6261 320.709437 
L 750.635997 320.820428 
L 754.645894 321.504212 
L 766.675587 324.125602 
L 770.685484 323.524267 
L 774.695381 325.276212 
L 778.705279 322.823305 
L 782.715176 324.390671 
L 794.744868 324.49852 
L 798.754765 323.62627 
L 802.764663 324.574275 
L 806.77456 321.915289 
L 810.784457 318.816249 
L 822.81415 317.846334 
L 826.824047 317.046053 
L 830.833944 320.895453 
L 834.843842 321.564889 
L 838.853739 327.002023 
L 850.883431 327.397489 
L 854.893328 328.051587 
L 858.903226 331.404185 
L 862.913123 330.139802 
L 866.923021 329.775388 
L 878.952713 331.471292 
L 882.96261 333.884626 
L 886.972507 334.56612 
L 890.982405 331.954354 
L 894.992302 333.271184 
L 907.021994 332.195507 
L 911.031891 329.970964 
L 915.041789 333.913099 
L 919.051686 333.002005 
L 923.061584 335.102395 
L 935.091276 334.493818 
L 939.101173 335.439457 
L 943.11107 335.799513 
L 947.120968 337.748847 
L 951.130865 336.981108 
L 963.160557 336.915556 
L 967.170455 338.830226 
L 971.180352 340.225892 
L 975.190249 340.6389 
L 979.200147 340.710975 
L 991.229839 342.261011 
L 995.239736 342.541835 
L 999.249633 342.547484 
L 1003.259531 342.34736 
L 1007.269428 343.199458 
L 1019.29912 342.024756 
L 1023.309018 342.464407 
L 1027.318915 340.900526 
L 1031.328812 341.920727 
L 1035.33871 342.271354 
L 1047.368402 344.36764 
L 1051.378299 343.817936 
L 1055.388196 342.097692 
L 1059.398094 343.253895 
L 1063.407991 341.817601 
L 1075.437683 340.59164 
L 1083.457478 339.443829 
L 1087.467375 340.878081 
L 1091.477273 342.914476 
L 1091.477273 342.914476 
" style="fill:none;stroke:#7f7f7f;stroke-linecap:square;stroke-width:1.5;"/>
   </g>
   <g id="line2d_23">
    <path clip-path="url(#pb8b6d80374)" d="M 97.022727 249.662892 
L 101.032625 257.202941 
L 105.042522 257.239233 
L 109.052419 267.264123 
L 121.082111 273.540996 
L 125.092009 279.346506 
L 129.101906 282.818944 
L 133.111804 282.242095 
L 137.121701 277.514262 
L 149.151393 275.925711 
L 153.16129 271.576449 
L 157.171188 270.931113 
L 161.181085 268.269771 
L 165.190982 277.971286 
L 177.220674 270.347589 
L 181.230572 264.290094 
L 185.240469 267.930128 
L 189.250367 273.411649 
L 193.260264 279.567153 
L 205.289956 275.392365 
L 209.299853 272.319201 
L 213.309751 267.004164 
L 217.319648 264.659129 
L 221.329545 259.001893 
L 233.359238 259.554826 
L 237.369135 262.0707 
L 241.379032 261.795089 
L 245.38893 261.124683 
L 249.398827 253.466732 
L 261.428519 257.120569 
L 269.448314 255.224313 
L 273.458211 265.154422 
L 277.468109 271.928787 
L 289.497801 271.479108 
L 293.507698 271.040532 
L 297.517595 277.736853 
L 301.527493 276.473164 
L 305.53739 268.708826 
L 317.567082 270.423883 
L 321.576979 274.460234 
L 325.586877 281.090018 
L 329.596774 275.636798 
L 333.606672 278.878921 
L 345.636364 281.462854 
L 349.646261 283.78862 
L 353.656158 283.373218 
L 357.666056 287.363698 
L 361.675953 284.243801 
L 373.705645 282.86625 
L 377.715543 280.887659 
L 381.72544 290.173436 
L 385.735337 285.681453 
L 389.745235 281.786335 
L 401.774927 278.686493 
L 405.784824 275.400455 
L 409.794721 279.883903 
L 413.804619 285.045126 
L 417.814516 282.679286 
L 429.844208 285.635551 
L 433.854106 286.505357 
L 437.864003 287.051511 
L 441.8739 280.459926 
L 445.883798 284.703243 
L 457.91349 283.717389 
L 461.923387 281.96831 
L 465.933284 280.838044 
L 469.943182 281.544663 
L 473.953079 279.347493 
L 485.982771 278.765611 
L 489.992669 282.287379 
L 494.002566 281.954181 
L 498.012463 287.482023 
L 502.022361 281.204013 
L 514.052053 278.500683 
L 518.06195 275.597761 
L 522.071848 271.689528 
L 526.081745 274.014673 
L 530.091642 269.34251 
L 542.121334 272.457528 
L 546.131232 271.99974 
L 550.141129 268.367304 
L 554.151026 271.249332 
L 558.160924 274.420865 
L 570.190616 271.672119 
L 574.200513 271.56583 
L 578.210411 265.87815 
L 582.220308 270.287547 
L 586.230205 262.752344 
L 598.259897 260.267825 
L 602.269795 259.795931 
L 606.279692 257.149886 
L 610.289589 260.631423 
L 614.299487 263.388879 
L 626.329179 258.197825 
L 630.339076 261.58095 
L 634.348974 249.699799 
L 638.358871 244.379116 
L 642.368768 238.788118 
L 654.39846 245.234008 
L 658.408358 241.411251 
L 662.418255 246.037486 
L 666.428152 248.564197 
L 670.43805 252.462532 
L 682.467742 251.666545 
L 686.477639 261.601925 
L 690.487537 257.990969 
L 694.497434 246.165662 
L 698.507331 236.178036 
L 710.537023 243.09366 
L 714.546921 248.016746 
L 718.556818 246.902365 
L 722.566716 238.921742 
L 726.576613 238.66051 
L 738.606305 241.304678 
L 742.616202 233.180426 
L 746.6261 239.805378 
L 750.635997 235.893977 
L 754.645894 226.969512 
L 766.675587 230.778777 
L 770.685484 219.215697 
L 774.695381 226.024564 
L 778.705279 225.619338 
L 782.715176 225.537075 
L 794.744868 223.176152 
L 798.754765 230.459818 
L 802.764663 228.597275 
L 806.77456 229.2709 
L 810.784457 232.484162 
L 822.81415 224.721975 
L 826.824047 233.213752 
L 830.833944 246.443621 
L 834.843842 247.989712 
L 838.853739 250.835164 
L 850.883431 245.060647 
L 854.893328 251.787689 
L 858.903226 261.171949 
L 862.913123 251.805854 
L 866.923021 255.779505 
L 878.952713 260.731143 
L 882.96261 258.643274 
L 886.972507 252.781916 
L 890.982405 252.624131 
L 894.992302 243.607496 
L 907.021994 244.884944 
L 911.031891 239.741253 
L 915.041789 243.275854 
L 919.051686 240.811541 
L 923.061584 250.700995 
L 935.091276 252.660362 
L 939.101173 260.019079 
L 943.11107 263.734131 
L 947.120968 265.715944 
L 951.130865 271.449222 
L 963.160557 269.073334 
L 967.170455 270.333208 
L 971.180352 269.596588 
L 975.190249 279.76165 
L 979.200147 283.559634 
L 991.229839 284.326272 
L 995.239736 290.669857 
L 999.249633 290.96624 
L 1003.259531 291.825578 
L 1007.269428 291.095777 
L 1019.29912 289.084211 
L 1023.309018 287.65979 
L 1027.318915 287.116442 
L 1031.328812 286.915823 
L 1035.33871 285.591511 
L 1047.368402 285.720359 
L 1051.378299 292.520803 
L 1055.388196 290.520313 
L 1059.398094 291.254404 
L 1063.407991 289.31486 
L 1075.437683 291.576448 
L 1079.447581 290.188876 
L 1083.457478 292.183977 
L 1087.467375 290.516645 
L 1091.477273 291.395647 
L 1091.477273 291.395647 
" style="fill:none;stroke:#bcbd22;stroke-linecap:square;stroke-width:1.5;"/>
   </g>
   <g id="patch_3">
    <path d="M 47.3 359.531813 
L 47.3 25.92 
" style="fill:none;stroke:#000000;stroke-linecap:square;stroke-linejoin:miter;stroke-width:0.8;"/>
   </g>
   <g id="patch_4">
    <path d="M 1141.2 359.531813 
L 1141.2 25.92 
" style="fill:none;stroke:#000000;stroke-linecap:square;stroke-linejoin:miter;stroke-width:0.8;"/>
   </g>
   <g id="patch_5">
    <path d="M 47.3 359.531813 
L 1141.2 359.531813 
" style="fill:none;stroke:#000000;stroke-linecap:square;stroke-linejoin:miter;stroke-width:0.8;"/>
   </g>
   <g id="patch_6">
    <path d="M 47.3 25.92 
L 1141.2 25.92 
" style="fill:none;stroke:#000000;stroke-linecap:square;stroke-linejoin:miter;stroke-width:0.8;"/>
   </g>
   <g id="text_9">
    <!-- Net Value: (2010-01-19 ~ 2010-10-08) -->
    <g transform="translate(478.1425 19.92)scale(0.12 -0.12)">
     <defs>
      <path d="M 9.8125 72.90625 
L 23.09375 72.90625 
L 55.421875 11.921875 
L 55.421875 72.90625 
L 64.984375 72.90625 
L 64.984375 0 
L 51.703125 0 
L 19.390625 60.984375 
L 19.390625 0 
L 9.8125 0 
z
" id="DejaVuSans-78"/>
      <path d="M 28.609375 0 
L 0.78125 72.90625 
L 11.078125 72.90625 
L 34.1875 11.53125 
L 57.328125 72.90625 
L 67.578125 72.90625 
L 39.796875 0 
z
" id="DejaVuSans-86"/>
      <path d="M 11.71875 12.40625 
L 22.015625 12.40625 
L 22.015625 0 
L 11.71875 0 
z
M 11.71875 51.703125 
L 22.015625 51.703125 
L 22.015625 39.3125 
L 11.71875 39.3125 
z
" id="DejaVuSans-58"/>
      <path d="M 31 75.875 
Q 24.46875 64.65625 21.28125 53.65625 
Q 18.109375 42.671875 18.109375 31.390625 
Q 18.109375 20.125 21.3125 9.0625 
Q 24.515625 -2 31 -13.1875 
L 23.1875 -13.1875 
Q 15.875 -1.703125 12.234375 9.375 
Q 8.59375 20.453125 8.59375 31.390625 
Q 8.59375 42.28125 12.203125 53.3125 
Q 15.828125 64.359375 23.1875 75.875 
z
" id="DejaVuSans-40"/>
      <path d="M 4.890625 31.390625 
L 31.203125 31.390625 
L 31.203125 23.390625 
L 4.890625 23.390625 
z
" id="DejaVuSans-45"/>
      <path d="M 10.984375 1.515625 
L 10.984375 10.5 
Q 14.703125 8.734375 18.5 7.8125 
Q 22.3125 6.890625 25.984375 6.890625 
Q 35.75 6.890625 40.890625 13.453125 
Q 46.046875 20.015625 46.78125 33.40625 
Q 43.953125 29.203125 39.59375 26.953125 
Q 35.25 24.703125 29.984375 24.703125 
Q 19.046875 24.703125 12.671875 31.3125 
Q 6.296875 37.9375 6.296875 49.421875 
Q 6.296875 60.640625 12.9375 67.421875 
Q 19.578125 74.21875 30.609375 74.21875 
Q 43.265625 74.21875 49.921875 64.515625 
Q 56.59375 54.828125 56.59375 36.375 
Q 56.59375 19.140625 48.40625 8.859375 
Q 40.234375 -1.421875 26.421875 -1.421875 
Q 22.703125 -1.421875 18.890625 -0.6875 
Q 15.09375 0.046875 10.984375 1.515625 
z
M 30.609375 32.421875 
Q 37.25 32.421875 41.125 36.953125 
Q 45.015625 41.5 45.015625 49.421875 
Q 45.015625 57.28125 41.125 61.84375 
Q 37.25 66.40625 30.609375 66.40625 
Q 23.96875 66.40625 20.09375 61.84375 
Q 16.21875 57.28125 16.21875 49.421875 
Q 16.21875 41.5 20.09375 36.953125 
Q 23.96875 32.421875 30.609375 32.421875 
z
" id="DejaVuSans-57"/>
      <path d="M 73.1875 39.890625 
L 73.1875 31.203125 
Q 68.0625 27.34375 63.6875 25.6875 
Q 59.328125 24.03125 54.59375 24.03125 
Q 49.21875 24.03125 42.09375 26.90625 
Q 41.546875 27.09375 41.3125 27.203125 
Q 40.96875 27.34375 40.234375 27.59375 
Q 32.671875 30.609375 28.078125 30.609375 
Q 23.78125 30.609375 19.578125 28.734375 
Q 15.375 26.859375 10.59375 22.796875 
L 10.59375 31.5 
Q 15.71875 35.359375 20.09375 37.03125 
Q 24.46875 38.71875 29.203125 38.71875 
Q 34.578125 38.71875 41.75 35.796875 
Q 42.234375 35.59375 42.484375 35.5 
Q 42.875 35.359375 43.5625 35.109375 
Q 51.125 32.078125 55.71875 32.078125 
Q 59.90625 32.078125 64.03125 33.9375 
Q 68.171875 35.796875 73.1875 39.890625 
z
" id="DejaVuSans-126"/>
      <path d="M 31.78125 34.625 
Q 24.75 34.625 20.71875 30.859375 
Q 16.703125 27.09375 16.703125 20.515625 
Q 16.703125 13.921875 20.71875 10.15625 
Q 24.75 6.390625 31.78125 6.390625 
Q 38.8125 6.390625 42.859375 10.171875 
Q 46.921875 13.96875 46.921875 20.515625 
Q 46.921875 27.09375 42.890625 30.859375 
Q 38.875 34.625 31.78125 34.625 
z
M 21.921875 38.8125 
Q 15.578125 40.375 12.03125 44.71875 
Q 8.5 49.078125 8.5 55.328125 
Q 8.5 64.0625 14.71875 69.140625 
Q 20.953125 74.21875 31.78125 74.21875 
Q 42.671875 74.21875 48.875 69.140625 
Q 55.078125 64.0625 55.078125 55.328125 
Q 55.078125 49.078125 51.53125 44.71875 
Q 48 40.375 41.703125 38.8125 
Q 48.828125 37.15625 52.796875 32.3125 
Q 56.78125 27.484375 56.78125 20.515625 
Q 56.78125 9.90625 50.3125 4.234375 
Q 43.84375 -1.421875 31.78125 -1.421875 
Q 19.734375 -1.421875 13.25 4.234375 
Q 6.78125 9.90625 6.78125 20.515625 
Q 6.78125 27.484375 10.78125 32.3125 
Q 14.796875 37.15625 21.921875 38.8125 
z
M 18.3125 54.390625 
Q 18.3125 48.734375 21.84375 45.5625 
Q 25.390625 42.390625 31.78125 42.390625 
Q 38.140625 42.390625 41.71875 45.5625 
Q 45.3125 48.734375 45.3125 54.390625 
Q 45.3125 60.0625 41.71875 63.234375 
Q 38.140625 66.40625 31.78125 66.40625 
Q 25.390625 66.40625 21.84375 63.234375 
Q 18.3125 60.0625 18.3125 54.390625 
z
" id="DejaVuSans-56"/>
      <path d="M 8.015625 75.875 
L 15.828125 75.875 
Q 23.140625 64.359375 26.78125 53.3125 
Q 30.421875 42.28125 30.421875 31.390625 
Q 30.421875 20.453125 26.78125 9.375 
Q 23.140625 -1.703125 15.828125 -13.1875 
L 8.015625 -13.1875 
Q 14.5 -2 17.703125 9.0625 
Q 20.90625 20.125 20.90625 31.390625 
Q 20.90625 42.671875 17.703125 53.65625 
Q 14.5 64.65625 8.015625 75.875 
z
" id="DejaVuSans-41"/>
     </defs>
     <use xlink:href="#DejaVuSans-78"/>
     <use x="74.804688" xlink:href="#DejaVuSans-101"/>
     <use x="136.328125" xlink:href="#DejaVuSans-116"/>
     <use x="175.537109" xlink:href="#DejaVuSans-32"/>
     <use x="207.324219" xlink:href="#DejaVuSans-86"/>
     <use x="267.982422" xlink:href="#DejaVuSans-97"/>
     <use x="329.261719" xlink:href="#DejaVuSans-108"/>
     <use x="357.044922" xlink:href="#DejaVuSans-117"/>
     <use x="420.423828" xlink:href="#DejaVuSans-101"/>
     <use x="481.947266" xlink:href="#DejaVuSans-58"/>
     <use x="515.638672" xlink:href="#DejaVuSans-32"/>
     <use x="547.425781" xlink:href="#DejaVuSans-40"/>
     <use x="586.439453" xlink:href="#DejaVuSans-50"/>
     <use x="650.0625" xlink:href="#DejaVuSans-48"/>
     <use x="713.685547" xlink:href="#DejaVuSans-49"/>
     <use x="777.308594" xlink:href="#DejaVuSans-48"/>
     <use x="840.931641" xlink:href="#DejaVuSans-45"/>
     <use x="877.015625" xlink:href="#DejaVuSans-48"/>
     <use x="940.638672" xlink:href="#DejaVuSans-49"/>
     <use x="1004.261719" xlink:href="#DejaVuSans-45"/>
     <use x="1040.345703" xlink:href="#DejaVuSans-49"/>
     <use x="1103.96875" xlink:href="#DejaVuSans-57"/>
     <use x="1167.591797" xlink:href="#DejaVuSans-32"/>
     <use x="1199.378906" xlink:href="#DejaVuSans-126"/>
     <use x="1283.167969" xlink:href="#DejaVuSans-32"/>
     <use x="1314.955078" xlink:href="#DejaVuSans-50"/>
     <use x="1378.578125" xlink:href="#DejaVuSans-48"/>
     <use x="1442.201172" xlink:href="#DejaVuSans-49"/>
     <use x="1505.824219" xlink:href="#DejaVuSans-48"/>
     <use x="1569.447266" xlink:href="#DejaVuSans-45"/>
     <use x="1605.53125" xlink:href="#DejaVuSans-49"/>
     <use x="1669.154297" xlink:href="#DejaVuSans-48"/>
     <use x="1732.777344" xlink:href="#DejaVuSans-45"/>
     <use x="1768.861328" xlink:href="#DejaVuSans-48"/>
     <use x="1832.484375" xlink:href="#DejaVuSans-56"/>
     <use x="1896.107422" xlink:href="#DejaVuSans-41"/>
    </g>
   </g>
   <g id="legend_1">
    <g id="patch_7">
     <path d="M 54.3 168.248125 
L 150.789062 168.248125 
Q 152.789062 168.248125 152.789062 166.248125 
L 152.789062 32.92 
Q 152.789062 30.92 150.789062 30.92 
L 54.3 30.92 
Q 52.3 30.92 52.3 32.92 
L 52.3 166.248125 
Q 52.3 168.248125 54.3 168.248125 
z
" style="fill:#ffffff;opacity:0.8;stroke:#cccccc;stroke-linejoin:miter;"/>
    </g>
    <g id="line2d_24">
     <path d="M 56.3 39.018438 
L 76.3 39.018438 
" style="fill:none;stroke:#1f77b4;stroke-linecap:square;stroke-width:1.5;"/>
    </g>
    <g id="line2d_25"/>
    <g id="text_10">
     <!-- group_1 -->
     <g transform="translate(84.3 42.518438)scale(0.1 -0.1)">
      <defs>
       <path d="M 45.40625 27.984375 
Q 45.40625 37.75 41.375 43.109375 
Q 37.359375 48.484375 30.078125 48.484375 
Q 22.859375 48.484375 18.828125 43.109375 
Q 14.796875 37.75 14.796875 27.984375 
Q 14.796875 18.265625 18.828125 12.890625 
Q 22.859375 7.515625 30.078125 7.515625 
Q 37.359375 7.515625 41.375 12.890625 
Q 45.40625 18.265625 45.40625 27.984375 
z
M 54.390625 6.78125 
Q 54.390625 -7.171875 48.1875 -13.984375 
Q 42 -20.796875 29.203125 -20.796875 
Q 24.46875 -20.796875 20.265625 -20.09375 
Q 16.0625 -19.390625 12.109375 -17.921875 
L 12.109375 -9.1875 
Q 16.0625 -11.328125 19.921875 -12.34375 
Q 23.78125 -13.375 27.78125 -13.375 
Q 36.625 -13.375 41.015625 -8.765625 
Q 45.40625 -4.15625 45.40625 5.171875 
L 45.40625 9.625 
Q 42.625 4.78125 38.28125 2.390625 
Q 33.9375 0 27.875 0 
Q 17.828125 0 11.671875 7.65625 
Q 5.515625 15.328125 5.515625 27.984375 
Q 5.515625 40.671875 11.671875 48.328125 
Q 17.828125 56 27.875 56 
Q 33.9375 56 38.28125 53.609375 
Q 42.625 51.21875 45.40625 46.390625 
L 45.40625 54.6875 
L 54.390625 54.6875 
z
" id="DejaVuSans-103"/>
       <path d="M 41.109375 46.296875 
Q 39.59375 47.171875 37.8125 47.578125 
Q 36.03125 48 33.890625 48 
Q 26.265625 48 22.1875 43.046875 
Q 18.109375 38.09375 18.109375 28.8125 
L 18.109375 0 
L 9.078125 0 
L 9.078125 54.6875 
L 18.109375 54.6875 
L 18.109375 46.1875 
Q 20.953125 51.171875 25.484375 53.578125 
Q 30.03125 56 36.53125 56 
Q 37.453125 56 38.578125 55.875 
Q 39.703125 55.765625 41.0625 55.515625 
z
" id="DejaVuSans-114"/>
       <path d="M 30.609375 48.390625 
Q 23.390625 48.390625 19.1875 42.75 
Q 14.984375 37.109375 14.984375 27.296875 
Q 14.984375 17.484375 19.15625 11.84375 
Q 23.34375 6.203125 30.609375 6.203125 
Q 37.796875 6.203125 41.984375 11.859375 
Q 46.1875 17.53125 46.1875 27.296875 
Q 46.1875 37.015625 41.984375 42.703125 
Q 37.796875 48.390625 30.609375 48.390625 
z
M 30.609375 56 
Q 42.328125 56 49.015625 48.375 
Q 55.71875 40.765625 55.71875 27.296875 
Q 55.71875 13.875 49.015625 6.21875 
Q 42.328125 -1.421875 30.609375 -1.421875 
Q 18.84375 -1.421875 12.171875 6.21875 
Q 5.515625 13.875 5.515625 27.296875 
Q 5.515625 40.765625 12.171875 48.375 
Q 18.84375 56 30.609375 56 
z
" id="DejaVuSans-111"/>
       <path d="M 18.109375 8.203125 
L 18.109375 -20.796875 
L 9.078125 -20.796875 
L 9.078125 54.6875 
L 18.109375 54.6875 
L 18.109375 46.390625 
Q 20.953125 51.265625 25.265625 53.625 
Q 29.59375 56 35.59375 56 
Q 45.5625 56 51.78125 48.09375 
Q 58.015625 40.1875 58.015625 27.296875 
Q 58.015625 14.40625 51.78125 6.484375 
Q 45.5625 -1.421875 35.59375 -1.421875 
Q 29.59375 -1.421875 25.265625 0.953125 
Q 20.953125 3.328125 18.109375 8.203125 
z
M 48.6875 27.296875 
Q 48.6875 37.203125 44.609375 42.84375 
Q 40.53125 48.484375 33.40625 48.484375 
Q 26.265625 48.484375 22.1875 42.84375 
Q 18.109375 37.203125 18.109375 27.296875 
Q 18.109375 17.390625 22.1875 11.75 
Q 26.265625 6.109375 33.40625 6.109375 
Q 40.53125 6.109375 44.609375 11.75 
Q 48.6875 17.390625 48.6875 27.296875 
z
" id="DejaVuSans-112"/>
       <path d="M 50.984375 -16.609375 
L 50.984375 -23.578125 
L -0.984375 -23.578125 
L -0.984375 -16.609375 
z
" id="DejaVuSans-95"/>
      </defs>
      <use xlink:href="#DejaVuSans-103"/>
      <use x="63.476562" xlink:href="#DejaVuSans-114"/>
      <use x="102.339844" xlink:href="#DejaVuSans-111"/>
      <use x="163.521484" xlink:href="#DejaVuSans-117"/>
      <use x="226.900391" xlink:href="#DejaVuSans-112"/>
      <use x="290.376953" xlink:href="#DejaVuSans-95"/>
      <use x="340.376953" xlink:href="#DejaVuSans-49"/>
     </g>
    </g>
    <g id="line2d_26">
     <path d="M 56.3 53.974688 
L 76.3 53.974688 
" style="fill:none;stroke:#ff7f0e;stroke-linecap:square;stroke-width:1.5;"/>
    </g>
    <g id="line2d_27"/>
    <g id="text_11">
     <!-- group_2 -->
     <g transform="translate(84.3 57.474688)scale(0.1 -0.1)">
      <use xlink:href="#DejaVuSans-103"/>
      <use x="63.476562" xlink:href="#DejaVuSans-114"/>
      <use x="102.339844" xlink:href="#DejaVuSans-111"/>
      <use x="163.521484" xlink:href="#DejaVuSans-117"/>
      <use x="226.900391" xlink:href="#DejaVuSans-112"/>
      <use x="290.376953" xlink:href="#DejaVuSans-95"/>
      <use x="340.376953" xlink:href="#DejaVuSans-50"/>
     </g>
    </g>
    <g id="line2d_28">
     <path d="M 56.3 68.930938 
L 76.3 68.930938 
" style="fill:none;stroke:#2ca02c;stroke-linecap:square;stroke-width:1.5;"/>
    </g>
    <g id="line2d_29"/>
    <g id="text_12">
     <!-- group_3 -->
     <g transform="translate(84.3 72.430938)scale(0.1 -0.1)">
      <use xlink:href="#DejaVuSans-103"/>
      <use x="63.476562" xlink:href="#DejaVuSans-114"/>
      <use x="102.339844" xlink:href="#DejaVuSans-111"/>
      <use x="163.521484" xlink:href="#DejaVuSans-117"/>
      <use x="226.900391" xlink:href="#DejaVuSans-112"/>
      <use x="290.376953" xlink:href="#DejaVuSans-95"/>
      <use x="340.376953" xlink:href="#DejaVuSans-51"/>
     </g>
    </g>
    <g id="line2d_30">
     <path d="M 56.3 83.887188 
L 76.3 83.887188 
" style="fill:none;stroke:#d62728;stroke-linecap:square;stroke-width:1.5;"/>
    </g>
    <g id="line2d_31"/>
    <g id="text_13">
     <!-- group_4 -->
     <g transform="translate(84.3 87.387188)scale(0.1 -0.1)">
      <defs>
       <path d="M 37.796875 64.3125 
L 12.890625 25.390625 
L 37.796875 25.390625 
z
M 35.203125 72.90625 
L 47.609375 72.90625 
L 47.609375 25.390625 
L 58.015625 25.390625 
L 58.015625 17.1875 
L 47.609375 17.1875 
L 47.609375 0 
L 37.796875 0 
L 37.796875 17.1875 
L 4.890625 17.1875 
L 4.890625 26.703125 
z
" id="DejaVuSans-52"/>
      </defs>
      <use xlink:href="#DejaVuSans-103"/>
      <use x="63.476562" xlink:href="#DejaVuSans-114"/>
      <use x="102.339844" xlink:href="#DejaVuSans-111"/>
      <use x="163.521484" xlink:href="#DejaVuSans-117"/>
      <use x="226.900391" xlink:href="#DejaVuSans-112"/>
      <use x="290.376953" xlink:href="#DejaVuSans-95"/>
      <use x="340.376953" xlink:href="#DejaVuSans-52"/>
     </g>
    </g>
    <g id="line2d_32">
     <path d="M 56.3 98.843437 
L 76.3 98.843437 
" style="fill:none;stroke:#9467bd;stroke-linecap:square;stroke-width:1.5;"/>
    </g>
    <g id="line2d_33"/>
    <g id="text_14">
     <!-- group_5 -->
     <g transform="translate(84.3 102.343437)scale(0.1 -0.1)">
      <use xlink:href="#DejaVuSans-103"/>
      <use x="63.476562" xlink:href="#DejaVuSans-114"/>
      <use x="102.339844" xlink:href="#DejaVuSans-111"/>
      <use x="163.521484" xlink:href="#DejaVuSans-117"/>
      <use x="226.900391" xlink:href="#DejaVuSans-112"/>
      <use x="290.376953" xlink:href="#DejaVuSans-95"/>
      <use x="340.376953" xlink:href="#DejaVuSans-53"/>
     </g>
    </g>
    <g id="line2d_34">
     <path d="M 56.3 113.799688 
L 76.3 113.799688 
" style="fill:none;stroke:#8c564b;stroke-linecap:square;stroke-width:1.5;"/>
    </g>
    <g id="line2d_35"/>
    <g id="text_15">
     <!-- benchmark -->
     <g transform="translate(84.3 117.299688)scale(0.1 -0.1)">
      <defs>
       <path d="M 48.6875 27.296875 
Q 48.6875 37.203125 44.609375 42.84375 
Q 40.53125 48.484375 33.40625 48.484375 
Q 26.265625 48.484375 22.1875 42.84375 
Q 18.109375 37.203125 18.109375 27.296875 
Q 18.109375 17.390625 22.1875 11.75 
Q 26.265625 6.109375 33.40625 6.109375 
Q 40.53125 6.109375 44.609375 11.75 
Q 48.6875 17.390625 48.6875 27.296875 
z
M 18.109375 46.390625 
Q 20.953125 51.265625 25.265625 53.625 
Q 29.59375 56 35.59375 56 
Q 45.5625 56 51.78125 48.09375 
Q 58.015625 40.1875 58.015625 27.296875 
Q 58.015625 14.40625 51.78125 6.484375 
Q 45.5625 -1.421875 35.59375 -1.421875 
Q 29.59375 -1.421875 25.265625 0.953125 
Q 20.953125 3.328125 18.109375 8.203125 
L 18.109375 0 
L 9.078125 0 
L 9.078125 75.984375 
L 18.109375 75.984375 
z
" id="DejaVuSans-98"/>
       <path d="M 48.78125 52.59375 
L 48.78125 44.1875 
Q 44.96875 46.296875 41.140625 47.34375 
Q 37.3125 48.390625 33.40625 48.390625 
Q 24.65625 48.390625 19.8125 42.84375 
Q 14.984375 37.3125 14.984375 27.296875 
Q 14.984375 17.28125 19.8125 11.734375 
Q 24.65625 6.203125 33.40625 6.203125 
Q 37.3125 6.203125 41.140625 7.25 
Q 44.96875 8.296875 48.78125 10.40625 
L 48.78125 2.09375 
Q 45.015625 0.34375 40.984375 -0.53125 
Q 36.96875 -1.421875 32.421875 -1.421875 
Q 20.0625 -1.421875 12.78125 6.34375 
Q 5.515625 14.109375 5.515625 27.296875 
Q 5.515625 40.671875 12.859375 48.328125 
Q 20.21875 56 33.015625 56 
Q 37.15625 56 41.109375 55.140625 
Q 45.0625 54.296875 48.78125 52.59375 
z
" id="DejaVuSans-99"/>
       <path d="M 54.890625 33.015625 
L 54.890625 0 
L 45.90625 0 
L 45.90625 32.71875 
Q 45.90625 40.484375 42.875 44.328125 
Q 39.84375 48.1875 33.796875 48.1875 
Q 26.515625 48.1875 22.3125 43.546875 
Q 18.109375 38.921875 18.109375 30.90625 
L 18.109375 0 
L 9.078125 0 
L 9.078125 75.984375 
L 18.109375 75.984375 
L 18.109375 46.1875 
Q 21.34375 51.125 25.703125 53.5625 
Q 30.078125 56 35.796875 56 
Q 45.21875 56 50.046875 50.171875 
Q 54.890625 44.34375 54.890625 33.015625 
z
" id="DejaVuSans-104"/>
       <path d="M 52 44.1875 
Q 55.375 50.25 60.0625 53.125 
Q 64.75 56 71.09375 56 
Q 79.640625 56 84.28125 50.015625 
Q 88.921875 44.046875 88.921875 33.015625 
L 88.921875 0 
L 79.890625 0 
L 79.890625 32.71875 
Q 79.890625 40.578125 77.09375 44.375 
Q 74.3125 48.1875 68.609375 48.1875 
Q 61.625 48.1875 57.5625 43.546875 
Q 53.515625 38.921875 53.515625 30.90625 
L 53.515625 0 
L 44.484375 0 
L 44.484375 32.71875 
Q 44.484375 40.625 41.703125 44.40625 
Q 38.921875 48.1875 33.109375 48.1875 
Q 26.21875 48.1875 22.15625 43.53125 
Q 18.109375 38.875 18.109375 30.90625 
L 18.109375 0 
L 9.078125 0 
L 9.078125 54.6875 
L 18.109375 54.6875 
L 18.109375 46.1875 
Q 21.1875 51.21875 25.484375 53.609375 
Q 29.78125 56 35.6875 56 
Q 41.65625 56 45.828125 52.96875 
Q 50 49.953125 52 44.1875 
z
" id="DejaVuSans-109"/>
       <path d="M 9.078125 75.984375 
L 18.109375 75.984375 
L 18.109375 31.109375 
L 44.921875 54.6875 
L 56.390625 54.6875 
L 27.390625 29.109375 
L 57.625 0 
L 45.90625 0 
L 18.109375 26.703125 
L 18.109375 0 
L 9.078125 0 
z
" id="DejaVuSans-107"/>
      </defs>
      <use xlink:href="#DejaVuSans-98"/>
      <use x="63.476562" xlink:href="#DejaVuSans-101"/>
      <use x="125" xlink:href="#DejaVuSans-110"/>
      <use x="188.378906" xlink:href="#DejaVuSans-99"/>
      <use x="243.359375" xlink:href="#DejaVuSans-104"/>
      <use x="306.738281" xlink:href="#DejaVuSans-109"/>
      <use x="404.150391" xlink:href="#DejaVuSans-97"/>
      <use x="465.429688" xlink:href="#DejaVuSans-114"/>
      <use x="506.542969" xlink:href="#DejaVuSans-107"/>
     </g>
    </g>
    <g id="line2d_36">
     <path d="M 56.3 128.477812 
L 76.3 128.477812 
" style="fill:none;stroke:#e377c2;stroke-linecap:square;stroke-width:1.5;"/>
    </g>
    <g id="line2d_37"/>
    <g id="text_16">
     <!-- long_excess -->
     <g transform="translate(84.3 131.977812)scale(0.1 -0.1)">
      <defs>
       <path d="M 54.890625 54.6875 
L 35.109375 28.078125 
L 55.90625 0 
L 45.3125 0 
L 29.390625 21.484375 
L 13.484375 0 
L 2.875 0 
L 24.125 28.609375 
L 4.6875 54.6875 
L 15.28125 54.6875 
L 29.78125 35.203125 
L 44.28125 54.6875 
z
" id="DejaVuSans-120"/>
       <path d="M 44.28125 53.078125 
L 44.28125 44.578125 
Q 40.484375 46.53125 36.375 47.5 
Q 32.28125 48.484375 27.875 48.484375 
Q 21.1875 48.484375 17.84375 46.4375 
Q 14.5 44.390625 14.5 40.28125 
Q 14.5 37.15625 16.890625 35.375 
Q 19.28125 33.59375 26.515625 31.984375 
L 29.59375 31.296875 
Q 39.15625 29.25 43.1875 25.515625 
Q 47.21875 21.78125 47.21875 15.09375 
Q 47.21875 7.46875 41.1875 3.015625 
Q 35.15625 -1.421875 24.609375 -1.421875 
Q 20.21875 -1.421875 15.453125 -0.5625 
Q 10.6875 0.296875 5.421875 2 
L 5.421875 11.28125 
Q 10.40625 8.6875 15.234375 7.390625 
Q 20.0625 6.109375 24.8125 6.109375 
Q 31.15625 6.109375 34.5625 8.28125 
Q 37.984375 10.453125 37.984375 14.40625 
Q 37.984375 18.0625 35.515625 20.015625 
Q 33.0625 21.96875 24.703125 23.78125 
L 21.578125 24.515625 
Q 13.234375 26.265625 9.515625 29.90625 
Q 5.8125 33.546875 5.8125 39.890625 
Q 5.8125 47.609375 11.28125 51.796875 
Q 16.75 56 26.8125 56 
Q 31.78125 56 36.171875 55.265625 
Q 40.578125 54.546875 44.28125 53.078125 
z
" id="DejaVuSans-115"/>
      </defs>
      <use xlink:href="#DejaVuSans-108"/>
      <use x="27.783203" xlink:href="#DejaVuSans-111"/>
      <use x="88.964844" xlink:href="#DejaVuSans-110"/>
      <use x="152.34375" xlink:href="#DejaVuSans-103"/>
      <use x="215.820312" xlink:href="#DejaVuSans-95"/>
      <use x="265.820312" xlink:href="#DejaVuSans-101"/>
      <use x="325.59375" xlink:href="#DejaVuSans-120"/>
      <use x="383.023438" xlink:href="#DejaVuSans-99"/>
      <use x="438.003906" xlink:href="#DejaVuSans-101"/>
      <use x="499.527344" xlink:href="#DejaVuSans-115"/>
      <use x="551.626953" xlink:href="#DejaVuSans-115"/>
     </g>
    </g>
    <g id="line2d_38">
     <path d="M 56.3 143.434062 
L 76.3 143.434062 
" style="fill:none;stroke:#7f7f7f;stroke-linecap:square;stroke-width:1.5;"/>
    </g>
    <g id="line2d_39"/>
    <g id="text_17">
     <!-- short_excess -->
     <g transform="translate(84.3 146.934062)scale(0.1 -0.1)">
      <use xlink:href="#DejaVuSans-115"/>
      <use x="52.099609" xlink:href="#DejaVuSans-104"/>
      <use x="115.478516" xlink:href="#DejaVuSans-111"/>
      <use x="176.660156" xlink:href="#DejaVuSans-114"/>
      <use x="217.773438" xlink:href="#DejaVuSans-116"/>
      <use x="256.982422" xlink:href="#DejaVuSans-95"/>
      <use x="306.982422" xlink:href="#DejaVuSans-101"/>
      <use x="366.755859" xlink:href="#DejaVuSans-120"/>
      <use x="424.185547" xlink:href="#DejaVuSans-99"/>
      <use x="479.166016" xlink:href="#DejaVuSans-101"/>
      <use x="540.689453" xlink:href="#DejaVuSans-115"/>
      <use x="592.789062" xlink:href="#DejaVuSans-115"/>
     </g>
    </g>
    <g id="line2d_40">
     <path d="M 56.3 158.390312 
L 76.3 158.390312 
" style="fill:none;stroke:#bcbd22;stroke-linecap:square;stroke-width:1.5;"/>
    </g>
    <g id="line2d_41"/>
    <g id="text_18">
     <!-- long_short -->
     <g transform="translate(84.3 161.890312)scale(0.1 -0.1)">
      <use xlink:href="#DejaVuSans-108"/>
      <use x="27.783203" xlink:href="#DejaVuSans-111"/>
      <use x="88.964844" xlink:href="#DejaVuSans-110"/>
      <use x="152.34375" xlink:href="#DejaVuSans-103"/>
      <use x="215.820312" xlink:href="#DejaVuSans-95"/>
      <use x="265.820312" xlink:href="#DejaVuSans-115"/>
      <use x="317.919922" xlink:href="#DejaVuSans-104"/>
      <use x="381.298828" xlink:href="#DejaVuSans-111"/>
      <use x="442.480469" xlink:href="#DejaVuSans-114"/>
      <use x="483.59375" xlink:href="#DejaVuSans-116"/>
     </g>
    </g>
   </g>
  </g>
 </g>
 <defs>
  <clipPath id="pb8b6d80374">
   <rect height="333.611813" width="1093.9" x="47.3" y="25.92"/>
  </clipPath>
 </defs>
</svg>
