<?xml version="1.0" encoding="utf-8" standalone="no"?>
<!DOCTYPE svg PUBLIC "-//W3C//DTD SVG 1.1//EN"
  "http://www.w3.org/Graphics/SVG/1.1/DTD/svg11.dtd">
<!-- Created with matplotlib (https://matplotlib.org/) -->
<svg height="374.4pt" version="1.1" viewBox="0 0 1152 374.4" width="1152pt" xmlns="http://www.w3.org/2000/svg" xmlns:xlink="http://www.w3.org/1999/xlink">
 <metadata>
  <rdf:RDF xmlns:cc="http://creativecommons.org/ns#" xmlns:dc="http://purl.org/dc/elements/1.1/" xmlns:rdf="http://www.w3.org/1999/02/22-rdf-syntax-ns#">
   <cc:Work>
    <dc:type rdf:resource="http://purl.org/dc/dcmitype/StillImage"/>
    <dc:date>2023-10-11T16:58:54.215997</dc:date>
    <dc:format>image/svg+xml</dc:format>
    <dc:creator>
     <cc:Agent>
      <dc:title>Matplotlib v3.3.4, https://matplotlib.org/</dc:title>
     </cc:Agent>
    </dc:creator>
   </cc:Work>
  </rdf:RDF>
 </metadata>
 <defs>
  <style type="text/css">*{stroke-linecap:butt;stroke-linejoin:round;}</style>
 </defs>
 <g id="figure_1">
  <g id="patch_1">
   <path d="M 0 374.4 
L 1152 374.4 
L 1152 0 
L 0 0 
z
" style="fill:#ffffff;"/>
  </g>
  <g id="axes_1">
   <g id="patch_2">
    <path d="M 47.3 360.1 
L 1141.2 360.1 
L 1141.2 25.92 
L 47.3 25.92 
z
" style="fill:#ffffff;"/>
   </g>
   <g id="matplotlib.axis_1"/>
   <g id="matplotlib.axis_2">
    <g id="ytick_1">
     <g id="line2d_1">
      <path clip-path="url(#pe02e21e18e)" d="M 47.3 355.595052 
L 1141.2 355.595052 
" style="fill:none;stroke:#b0b0b0;stroke-linecap:square;stroke-width:0.8;"/>
     </g>
     <g id="line2d_2">
      <defs>
       <path d="M 0 0 
L -3.5 0 
" id="m3a744f7d8e" style="stroke:#000000;stroke-width:0.8;"/>
      </defs>
      <g>
       <use style="stroke:#000000;stroke-width:0.8;" x="47.3" xlink:href="#m3a744f7d8e" y="355.595052"/>
      </g>
     </g>
     <g id="text_1">
      <!-- 0.0 -->
      <g transform="translate(24.396875 359.394271)scale(0.1 -0.1)">
       <defs>
        <path d="M 31.78125 66.40625 
Q 24.171875 66.40625 20.328125 58.90625 
Q 16.5 51.421875 16.5 36.375 
Q 16.5 21.390625 20.328125 13.890625 
Q 24.171875 6.390625 31.78125 6.390625 
Q 39.453125 6.390625 43.28125 13.890625 
Q 47.125 21.390625 47.125 36.375 
Q 47.125 51.421875 43.28125 58.90625 
Q 39.453125 66.40625 31.78125 66.40625 
z
M 31.78125 74.21875 
Q 44.046875 74.21875 50.515625 64.515625 
Q 56.984375 54.828125 56.984375 36.375 
Q 56.984375 17.96875 50.515625 8.265625 
Q 44.046875 -1.421875 31.78125 -1.421875 
Q 19.53125 -1.421875 13.0625 8.265625 
Q 6.59375 17.96875 6.59375 36.375 
Q 6.59375 54.828125 13.0625 64.515625 
Q 19.53125 74.21875 31.78125 74.21875 
z
" id="DejaVuSans-48"/>
        <path d="M 10.6875 12.40625 
L 21 12.40625 
L 21 0 
L 10.6875 0 
z
" id="DejaVuSans-46"/>
       </defs>
       <use xlink:href="#DejaVuSans-48"/>
       <use x="63.623047" xlink:href="#DejaVuSans-46"/>
       <use x="95.410156" xlink:href="#DejaVuSans-48"/>
      </g>
     </g>
    </g>
    <g id="ytick_2">
     <g id="line2d_3">
      <path clip-path="url(#pe02e21e18e)" d="M 47.3 298.657203 
L 1141.2 298.657203 
" style="fill:none;stroke:#b0b0b0;stroke-linecap:square;stroke-width:0.8;"/>
     </g>
     <g id="line2d_4">
      <g>
       <use style="stroke:#000000;stroke-width:0.8;" x="47.3" xlink:href="#m3a744f7d8e" y="298.657203"/>
      </g>
     </g>
     <g id="text_2">
      <!-- 0.5 -->
      <g transform="translate(24.396875 302.456422)scale(0.1 -0.1)">
       <defs>
        <path d="M 10.796875 72.90625 
L 49.515625 72.90625 
L 49.515625 64.59375 
L 19.828125 64.59375 
L 19.828125 46.734375 
Q 21.96875 47.46875 24.109375 47.828125 
Q 26.265625 48.1875 28.421875 48.1875 
Q 40.625 48.1875 47.75 41.5 
Q 54.890625 34.8125 54.890625 23.390625 
Q 54.890625 11.625 47.5625 5.09375 
Q 40.234375 -1.421875 26.90625 -1.421875 
Q 22.3125 -1.421875 17.546875 -0.640625 
Q 12.796875 0.140625 7.71875 1.703125 
L 7.71875 11.625 
Q 12.109375 9.234375 16.796875 8.0625 
Q 21.484375 6.890625 26.703125 6.890625 
Q 35.15625 6.890625 40.078125 11.328125 
Q 45.015625 15.765625 45.015625 23.390625 
Q 45.015625 31 40.078125 35.4375 
Q 35.15625 39.890625 26.703125 39.890625 
Q 22.75 39.890625 18.8125 39.015625 
Q 14.890625 38.140625 10.796875 36.28125 
z
" id="DejaVuSans-53"/>
       </defs>
       <use xlink:href="#DejaVuSans-48"/>
       <use x="63.623047" xlink:href="#DejaVuSans-46"/>
       <use x="95.410156" xlink:href="#DejaVuSans-53"/>
      </g>
     </g>
    </g>
    <g id="ytick_3">
     <g id="line2d_5">
      <path clip-path="url(#pe02e21e18e)" d="M 47.3 241.719354 
L 1141.2 241.719354 
" style="fill:none;stroke:#b0b0b0;stroke-linecap:square;stroke-width:0.8;"/>
     </g>
     <g id="line2d_6">
      <g>
       <use style="stroke:#000000;stroke-width:0.8;" x="47.3" xlink:href="#m3a744f7d8e" y="241.719354"/>
      </g>
     </g>
     <g id="text_3">
      <!-- 1.0 -->
      <g transform="translate(24.396875 245.518572)scale(0.1 -0.1)">
       <defs>
        <path d="M 12.40625 8.296875 
L 28.515625 8.296875 
L 28.515625 63.921875 
L 10.984375 60.40625 
L 10.984375 69.390625 
L 28.421875 72.90625 
L 38.28125 72.90625 
L 38.28125 8.296875 
L 54.390625 8.296875 
L 54.390625 0 
L 12.40625 0 
z
" id="DejaVuSans-49"/>
       </defs>
       <use xlink:href="#DejaVuSans-49"/>
       <use x="63.623047" xlink:href="#DejaVuSans-46"/>
       <use x="95.410156" xlink:href="#DejaVuSans-48"/>
      </g>
     </g>
    </g>
    <g id="ytick_4">
     <g id="line2d_7">
      <path clip-path="url(#pe02e21e18e)" d="M 47.3 184.781504 
L 1141.2 184.781504 
" style="fill:none;stroke:#b0b0b0;stroke-linecap:square;stroke-width:0.8;"/>
     </g>
     <g id="line2d_8">
      <g>
       <use style="stroke:#000000;stroke-width:0.8;" x="47.3" xlink:href="#m3a744f7d8e" y="184.781504"/>
      </g>
     </g>
     <g id="text_4">
      <!-- 1.5 -->
      <g transform="translate(24.396875 188.580723)scale(0.1 -0.1)">
       <use xlink:href="#DejaVuSans-49"/>
       <use x="63.623047" xlink:href="#DejaVuSans-46"/>
       <use x="95.410156" xlink:href="#DejaVuSans-53"/>
      </g>
     </g>
    </g>
    <g id="ytick_5">
     <g id="line2d_9">
      <path clip-path="url(#pe02e21e18e)" d="M 47.3 127.843655 
L 1141.2 127.843655 
" style="fill:none;stroke:#b0b0b0;stroke-linecap:square;stroke-width:0.8;"/>
     </g>
     <g id="line2d_10">
      <g>
       <use style="stroke:#000000;stroke-width:0.8;" x="47.3" xlink:href="#m3a744f7d8e" y="127.843655"/>
      </g>
     </g>
     <g id="text_5">
      <!-- 2.0 -->
      <g transform="translate(24.396875 131.642873)scale(0.1 -0.1)">
       <defs>
        <path d="M 19.1875 8.296875 
L 53.609375 8.296875 
L 53.609375 0 
L 7.328125 0 
L 7.328125 8.296875 
Q 12.9375 14.109375 22.625 23.890625 
Q 32.328125 33.6875 34.8125 36.53125 
Q 39.546875 41.84375 41.421875 45.53125 
Q 43.3125 49.21875 43.3125 52.78125 
Q 43.3125 58.59375 39.234375 62.25 
Q 35.15625 65.921875 28.609375 65.921875 
Q 23.96875 65.921875 18.8125 64.3125 
Q 13.671875 62.703125 7.8125 59.421875 
L 7.8125 69.390625 
Q 13.765625 71.78125 18.9375 73 
Q 24.125 74.21875 28.421875 74.21875 
Q 39.75 74.21875 46.484375 68.546875 
Q 53.21875 62.890625 53.21875 53.421875 
Q 53.21875 48.921875 51.53125 44.890625 
Q 49.859375 40.875 45.40625 35.40625 
Q 44.1875 33.984375 37.640625 27.21875 
Q 31.109375 20.453125 19.1875 8.296875 
z
" id="DejaVuSans-50"/>
       </defs>
       <use xlink:href="#DejaVuSans-50"/>
       <use x="63.623047" xlink:href="#DejaVuSans-46"/>
       <use x="95.410156" xlink:href="#DejaVuSans-48"/>
      </g>
     </g>
    </g>
    <g id="ytick_6">
     <g id="line2d_11">
      <path clip-path="url(#pe02e21e18e)" d="M 47.3 70.905805 
L 1141.2 70.905805 
" style="fill:none;stroke:#b0b0b0;stroke-linecap:square;stroke-width:0.8;"/>
     </g>
     <g id="line2d_12">
      <g>
       <use style="stroke:#000000;stroke-width:0.8;" x="47.3" xlink:href="#m3a744f7d8e" y="70.905805"/>
      </g>
     </g>
     <g id="text_6">
      <!-- 2.5 -->
      <g transform="translate(24.396875 74.705024)scale(0.1 -0.1)">
       <use xlink:href="#DejaVuSans-50"/>
       <use x="63.623047" xlink:href="#DejaVuSans-46"/>
       <use x="95.410156" xlink:href="#DejaVuSans-53"/>
      </g>
     </g>
    </g>
    <g id="text_7">
     <!-- net value -->
     <g transform="translate(18.317187 216.462344)rotate(-90)scale(0.1 -0.1)">
      <defs>
       <path d="M 54.890625 33.015625 
L 54.890625 0 
L 45.90625 0 
L 45.90625 32.71875 
Q 45.90625 40.484375 42.875 44.328125 
Q 39.84375 48.1875 33.796875 48.1875 
Q 26.515625 48.1875 22.3125 43.546875 
Q 18.109375 38.921875 18.109375 30.90625 
L 18.109375 0 
L 9.078125 0 
L 9.078125 54.6875 
L 18.109375 54.6875 
L 18.109375 46.1875 
Q 21.34375 51.125 25.703125 53.5625 
Q 30.078125 56 35.796875 56 
Q 45.21875 56 50.046875 50.171875 
Q 54.890625 44.34375 54.890625 33.015625 
z
" id="DejaVuSans-110"/>
       <path d="M 56.203125 29.59375 
L 56.203125 25.203125 
L 14.890625 25.203125 
Q 15.484375 15.921875 20.484375 11.0625 
Q 25.484375 6.203125 34.421875 6.203125 
Q 39.59375 6.203125 44.453125 7.46875 
Q 49.3125 8.734375 54.109375 11.28125 
L 54.109375 2.78125 
Q 49.265625 0.734375 44.1875 -0.34375 
Q 39.109375 -1.421875 33.890625 -1.421875 
Q 20.796875 -1.421875 13.15625 6.1875 
Q 5.515625 13.8125 5.515625 26.8125 
Q 5.515625 40.234375 12.765625 48.109375 
Q 20.015625 56 32.328125 56 
Q 43.359375 56 49.78125 48.890625 
Q 56.203125 41.796875 56.203125 29.59375 
z
M 47.21875 32.234375 
Q 47.125 39.59375 43.09375 43.984375 
Q 39.0625 48.390625 32.421875 48.390625 
Q 24.90625 48.390625 20.390625 44.140625 
Q 15.875 39.890625 15.1875 32.171875 
z
" id="DejaVuSans-101"/>
       <path d="M 18.3125 70.21875 
L 18.3125 54.6875 
L 36.8125 54.6875 
L 36.8125 47.703125 
L 18.3125 47.703125 
L 18.3125 18.015625 
Q 18.3125 11.328125 20.140625 9.421875 
Q 21.96875 7.515625 27.59375 7.515625 
L 36.8125 7.515625 
L 36.8125 0 
L 27.59375 0 
Q 17.1875 0 13.234375 3.875 
Q 9.28125 7.765625 9.28125 18.015625 
L 9.28125 47.703125 
L 2.6875 47.703125 
L 2.6875 54.6875 
L 9.28125 54.6875 
L 9.28125 70.21875 
z
" id="DejaVuSans-116"/>
       <path id="DejaVuSans-32"/>
       <path d="M 2.984375 54.6875 
L 12.5 54.6875 
L 29.59375 8.796875 
L 46.6875 54.6875 
L 56.203125 54.6875 
L 35.6875 0 
L 23.484375 0 
z
" id="DejaVuSans-118"/>
       <path d="M 34.28125 27.484375 
Q 23.390625 27.484375 19.1875 25 
Q 14.984375 22.515625 14.984375 16.5 
Q 14.984375 11.71875 18.140625 8.90625 
Q 21.296875 6.109375 26.703125 6.109375 
Q 34.1875 6.109375 38.703125 11.40625 
Q 43.21875 16.703125 43.21875 25.484375 
L 43.21875 27.484375 
z
M 52.203125 31.203125 
L 52.203125 0 
L 43.21875 0 
L 43.21875 8.296875 
Q 40.140625 3.328125 35.546875 0.953125 
Q 30.953125 -1.421875 24.3125 -1.421875 
Q 15.921875 -1.421875 10.953125 3.296875 
Q 6 8.015625 6 15.921875 
Q 6 25.140625 12.171875 29.828125 
Q 18.359375 34.515625 30.609375 34.515625 
L 43.21875 34.515625 
L 43.21875 35.40625 
Q 43.21875 41.609375 39.140625 45 
Q 35.0625 48.390625 27.6875 48.390625 
Q 23 48.390625 18.546875 47.265625 
Q 14.109375 46.140625 10.015625 43.890625 
L 10.015625 52.203125 
Q 14.9375 54.109375 19.578125 55.046875 
Q 24.21875 56 28.609375 56 
Q 40.484375 56 46.34375 49.84375 
Q 52.203125 43.703125 52.203125 31.203125 
z
" id="DejaVuSans-97"/>
       <path d="M 9.421875 75.984375 
L 18.40625 75.984375 
L 18.40625 0 
L 9.421875 0 
z
" id="DejaVuSans-108"/>
       <path d="M 8.5 21.578125 
L 8.5 54.6875 
L 17.484375 54.6875 
L 17.484375 21.921875 
Q 17.484375 14.15625 20.5 10.265625 
Q 23.53125 6.390625 29.59375 6.390625 
Q 36.859375 6.390625 41.078125 11.03125 
Q 45.3125 15.671875 45.3125 23.6875 
L 45.3125 54.6875 
L 54.296875 54.6875 
L 54.296875 0 
L 45.3125 0 
L 45.3125 8.40625 
Q 42.046875 3.421875 37.71875 1 
Q 33.40625 -1.421875 27.6875 -1.421875 
Q 18.265625 -1.421875 13.375 4.4375 
Q 8.5 10.296875 8.5 21.578125 
z
M 31.109375 56 
z
" id="DejaVuSans-117"/>
      </defs>
      <use xlink:href="#DejaVuSans-110"/>
      <use x="63.378906" xlink:href="#DejaVuSans-101"/>
      <use x="124.902344" xlink:href="#DejaVuSans-116"/>
      <use x="164.111328" xlink:href="#DejaVuSans-32"/>
      <use x="195.898438" xlink:href="#DejaVuSans-118"/>
      <use x="255.078125" xlink:href="#DejaVuSans-97"/>
      <use x="316.357422" xlink:href="#DejaVuSans-108"/>
      <use x="344.140625" xlink:href="#DejaVuSans-117"/>
      <use x="407.519531" xlink:href="#DejaVuSans-101"/>
     </g>
    </g>
   </g>
   <g id="line2d_13">
    <path clip-path="url(#pe02e21e18e)" d="M 97.022727 233.439377 
L 100.818355 238.371976 
L 104.613983 245.187546 
L 108.409611 245.365256 
L 119.796495 242.29821 
L 123.592124 239.249328 
L 127.387752 236.385051 
L 131.18338 231.393318 
L 134.979008 228.548933 
L 146.365892 221.073058 
L 150.16152 231.618981 
L 153.957148 233.885552 
L 157.752776 232.671289 
L 161.548404 238.196045 
L 172.935288 239.605124 
L 176.730916 238.223257 
L 180.526544 241.42437 
L 184.322172 245.513125 
L 188.1178 237.857492 
L 199.504684 237.55159 
L 203.300312 226.629215 
L 207.09594 233.932963 
L 210.891568 238.949702 
L 214.687196 237.498921 
L 226.07408 246.634026 
L 229.869709 255.488055 
L 233.665337 256.92157 
L 237.460965 260.539838 
L 241.256593 265.853634 
L 252.643477 265.232872 
L 256.439105 266.064895 
L 260.234733 259.997925 
L 264.030361 268.645188 
L 267.825989 266.225262 
L 279.212873 268.602816 
L 283.008501 268.202106 
L 286.804129 267.147379 
L 290.599757 259.402881 
L 294.395385 253.558502 
L 305.782269 251.331595 
L 309.577897 241.537944 
L 313.373525 238.182667 
L 317.169153 240.518614 
L 320.964781 244.92535 
L 332.351666 238.7779 
L 336.147294 244.600972 
L 339.942922 237.548828 
L 343.73855 239.555962 
L 347.534178 233.449259 
L 358.921062 227.545942 
L 362.71669 226.37455 
L 366.512318 224.504171 
L 370.307946 225.078061 
L 374.103574 221.343176 
L 385.490458 224.825019 
L 389.286086 221.918961 
L 393.081714 214.347472 
L 396.877342 215.050815 
L 400.67297 221.927505 
L 412.059854 221.353006 
L 415.855482 218.431098 
L 419.65111 229.223221 
L 423.446738 224.658706 
L 427.242366 223.536549 
L 438.629251 223.78646 
L 442.424879 220.979442 
L 446.220507 223.169269 
L 450.016135 228.865302 
L 453.811763 226.382956 
L 465.198647 220.895956 
L 468.994275 220.235525 
L 472.789903 222.247786 
L 476.585531 228.950557 
L 480.381159 221.814149 
L 491.768043 229.901637 
L 495.563671 228.015785 
L 499.359299 223.395845 
L 503.154927 215.195048 
L 506.950555 216.430671 
L 518.337439 205.148978 
L 522.133067 192.905109 
L 525.928695 194.993536 
L 529.724323 197.478151 
L 533.519951 197.014948 
L 544.906836 187.169743 
L 548.702464 181.686277 
L 552.498092 185.090826 
L 556.29372 183.014273 
L 560.089348 182.098298 
L 571.476232 187.256563 
L 575.27186 182.80714 
L 579.067488 169.067257 
L 582.863116 177.858692 
L 586.658744 175.923303 
L 598.045628 179.929926 
L 601.841256 177.699667 
L 605.636884 174.245862 
L 609.432512 169.217727 
L 613.22814 172.858825 
L 624.615024 179.012485 
L 628.410652 175.153523 
L 632.20628 167.866782 
L 636.001908 175.117817 
L 639.797536 167.087862 
L 651.184421 163.901499 
L 654.980049 162.541078 
L 658.775677 170.081768 
L 662.571305 174.761207 
L 666.366933 173.337331 
L 677.753817 172.844615 
L 681.549445 171.930147 
L 685.345073 170.746159 
L 689.140701 174.806204 
L 692.936329 166.419687 
L 704.323213 159.153201 
L 708.118841 148.181487 
L 711.914469 165.394997 
L 715.710097 174.52554 
L 719.505725 166.296537 
L 730.892609 169.458065 
L 734.688237 170.678999 
L 738.483865 178.795029 
L 742.279493 184.043878 
L 746.075121 172.685874 
L 757.462006 169.558669 
L 761.257634 187.047001 
L 765.053262 183.84871 
L 768.84889 181.678631 
L 772.644518 179.984039 
L 784.031402 172.966569 
L 787.82703 172.34061 
L 791.622658 174.708769 
L 795.418286 167.945816 
L 799.213914 159.062652 
L 810.600798 173.737446 
L 814.396426 177.500891 
L 818.192054 167.677755 
L 821.987682 172.334435 
L 825.78331 161.637401 
L 837.170194 151.658261 
L 840.965822 140.537875 
L 844.76145 146.394578 
L 848.557078 161.565754 
L 852.352706 150.867459 
L 863.739591 149.041472 
L 867.535219 144.614154 
L 871.330847 138.989729 
L 875.126475 142.539017 
L 878.922103 142.579446 
L 890.308987 144.606245 
L 894.104615 152.277816 
L 897.900243 133.943781 
L 901.695871 132.666895 
L 905.491499 119.380684 
L 916.878383 119.527335 
L 920.674011 103.550792 
L 924.469639 97.647504 
L 928.265267 95.691842 
L 932.060895 88.327478 
L 943.447779 97.734091 
L 947.243407 97.410891 
L 951.039035 98.94541 
L 954.834663 110.191952 
L 958.630291 119.561372 
L 970.017176 120.68567 
L 973.812804 115.809538 
L 977.608432 128.835896 
L 981.40406 125.272039 
L 985.199688 127.383124 
L 996.586572 126.391071 
L 1000.3822 128.414896 
L 1004.177828 130.938019 
L 1007.973456 128.412078 
L 1011.769084 118.930553 
L 1023.155968 104.805708 
L 1026.951596 93.942863 
L 1030.747224 106.917003 
L 1034.542852 100.37772 
L 1038.33848 117.809632 
L 1049.725364 118.439394 
L 1053.520992 132.208781 
L 1057.31662 137.678532 
L 1061.112248 128.341774 
L 1064.907876 124.333137 
L 1076.294761 137.179843 
L 1080.090389 137.453405 
L 1083.886017 139.501935 
L 1087.681645 138.464998 
L 1091.477273 135.774331 
L 1091.477273 135.774331 
" style="fill:none;stroke:#1f77b4;stroke-linecap:square;stroke-width:1.5;"/>
   </g>
   <g id="line2d_14">
    <path clip-path="url(#pe02e21e18e)" d="M 97.022727 235.090241 
L 100.818355 235.132814 
L 104.613983 234.712173 
L 108.409611 226.839155 
L 119.796495 222.613018 
L 123.592124 226.405935 
L 127.387752 223.903869 
L 131.18338 223.58127 
L 134.979008 225.143417 
L 146.365892 222.749196 
L 150.16152 225.719633 
L 153.957148 221.021148 
L 157.752776 231.086113 
L 161.548404 228.360578 
L 172.935288 230.247472 
L 176.730916 230.732049 
L 180.526544 232.653972 
L 184.322172 230.625368 
L 188.1178 229.343943 
L 199.504684 233.758119 
L 203.300312 228.412077 
L 207.09594 228.737343 
L 210.891568 218.239339 
L 214.687196 221.811764 
L 226.07408 218.051241 
L 229.869709 218.743209 
L 233.665337 220.824643 
L 237.460965 219.497253 
L 241.256593 223.919278 
L 252.643477 218.022173 
L 256.439105 215.207151 
L 260.234733 207.077603 
L 264.030361 217.75394 
L 267.825989 222.059698 
L 279.212873 232.251557 
L 283.008501 224.782468 
L 286.804129 227.972416 
L 290.599757 233.195329 
L 294.395385 230.121141 
L 305.782269 230.290154 
L 309.577897 226.025125 
L 313.373525 226.639753 
L 317.169153 227.866992 
L 320.964781 225.088169 
L 332.351666 230.916611 
L 336.147294 233.291576 
L 339.942922 234.243694 
L 343.73855 230.052846 
L 347.534178 238.463624 
L 358.921062 233.207661 
L 362.71669 228.84315 
L 366.512318 238.681172 
L 370.307946 237.146888 
L 374.103574 241.117955 
L 385.490458 236.229627 
L 389.286086 236.187157 
L 393.081714 241.874922 
L 396.877342 232.239218 
L 400.67297 235.861339 
L 412.059854 231.249791 
L 415.855482 233.310116 
L 419.65111 225.393665 
L 423.446738 229.333737 
L 427.242366 237.782972 
L 438.629251 240.070295 
L 442.424879 232.486537 
L 446.220507 240.098491 
L 450.016135 238.778974 
L 453.811763 241.607583 
L 465.198647 239.685517 
L 468.994275 235.599787 
L 472.789903 245.3748 
L 476.585531 248.191918 
L 480.381159 246.421537 
L 491.768043 243.450485 
L 499.359299 244.038925 
L 503.154927 245.344869 
L 506.950555 250.9358 
L 518.337439 246.590374 
L 522.133067 247.738884 
L 525.928695 245.972808 
L 529.724323 247.088792 
L 533.519951 253.063406 
L 544.906836 250.038118 
L 548.702464 253.002399 
L 552.498092 251.949337 
L 556.29372 253.498912 
L 560.089348 252.742462 
L 571.476232 250.669912 
L 575.27186 244.704256 
L 579.067488 237.040558 
L 582.863116 232.133812 
L 586.658744 232.205906 
L 598.045628 234.992154 
L 601.841256 236.692482 
L 605.636884 233.798813 
L 609.432512 233.986726 
L 613.22814 229.619372 
L 624.615024 230.752169 
L 628.410652 231.567776 
L 632.20628 230.826489 
L 636.001908 233.892198 
L 639.797536 234.145924 
L 651.184421 234.388232 
L 654.980049 237.72594 
L 658.775677 235.666784 
L 662.571305 230.944805 
L 666.366933 231.426187 
L 677.753817 226.592608 
L 681.549445 222.138246 
L 685.345073 213.448401 
L 689.140701 218.75763 
L 692.936329 223.751232 
L 704.323213 224.049419 
L 708.118841 217.668916 
L 711.914469 221.559116 
L 715.710097 214.083089 
L 719.505725 216.756808 
L 730.892609 208.514595 
L 734.688237 203.482614 
L 738.483865 209.241861 
L 742.279493 222.101568 
L 746.075121 216.188437 
L 757.462006 204.810947 
L 761.257634 193.680272 
L 765.053262 194.852668 
L 768.84889 188.735029 
L 772.644518 184.321961 
L 784.031402 171.473872 
L 787.82703 184.333235 
L 791.622658 188.666602 
L 795.418286 180.494599 
L 799.213914 180.618129 
L 810.600798 181.579323 
L 814.396426 176.870587 
L 818.192054 172.985126 
L 821.987682 170.406486 
L 825.78331 178.135768 
L 837.170194 170.204367 
L 840.965822 174.017385 
L 844.76145 162.516101 
L 848.557078 162.891751 
L 852.352706 151.08436 
L 863.739591 136.986855 
L 867.535219 134.954409 
L 871.330847 134.830163 
L 875.126475 119.143134 
L 878.922103 117.418501 
L 890.308987 125.420052 
L 894.104615 113.665832 
L 897.900243 133.789673 
L 901.695871 137.325487 
L 905.491499 139.129042 
L 916.878383 136.733011 
L 920.674011 118.237464 
L 924.469639 110.918423 
L 928.265267 96.154939 
L 932.060895 76.977351 
L 943.447779 83.58821 
L 947.243407 91.581976 
L 951.039035 81.572475 
L 954.834663 64.074581 
L 958.630291 41.11 
L 970.017176 56.814368 
L 973.812804 57.214348 
L 977.608432 60.900119 
L 981.40406 66.983988 
L 985.199688 71.561814 
L 996.586572 73.662893 
L 1000.3822 87.482396 
L 1004.177828 89.198 
L 1007.973456 84.231341 
L 1011.769084 110.160667 
L 1023.155968 99.594021 
L 1026.951596 103.212495 
L 1030.747224 84.338164 
L 1034.542852 85.832074 
L 1038.33848 62.239196 
L 1049.725364 53.364483 
L 1053.520992 49.508894 
L 1057.31662 68.443926 
L 1061.112248 81.606762 
L 1064.907876 65.244813 
L 1076.294761 84.492544 
L 1080.090389 82.815698 
L 1083.886017 89.496646 
L 1087.681645 85.972073 
L 1091.477273 89.089214 
L 1091.477273 89.089214 
" style="fill:none;stroke:#ff7f0e;stroke-linecap:square;stroke-width:1.5;"/>
   </g>
   <g id="line2d_15">
    <path clip-path="url(#pe02e21e18e)" d="M 97.022727 246.395658 
L 100.818355 251.633898 
L 104.613983 254.402168 
L 108.409611 256.41905 
L 119.796495 257.621957 
L 123.592124 258.251662 
L 127.387752 258.743644 
L 131.18338 250.877063 
L 134.979008 248.959157 
L 146.365892 246.658152 
L 150.16152 245.374553 
L 153.957148 243.132963 
L 157.752776 246.052052 
L 161.548404 251.32384 
L 172.935288 251.618083 
L 176.730916 249.768196 
L 180.526544 252.688817 
L 184.322172 259.631856 
L 188.1178 254.137063 
L 199.504684 253.834482 
L 203.300312 245.234612 
L 207.09594 247.589962 
L 210.891568 254.858124 
L 214.687196 256.397233 
L 226.07408 253.144045 
L 229.869709 253.582807 
L 233.665337 258.079381 
L 237.460965 261.249025 
L 241.256593 263.550667 
L 252.643477 260.761637 
L 256.439105 258.334477 
L 260.234733 262.099025 
L 264.030361 264.137341 
L 267.825989 262.493302 
L 279.212873 267.699255 
L 283.008501 266.851196 
L 286.804129 266.847094 
L 290.599757 259.861708 
L 294.395385 257.964315 
L 305.782269 262.433112 
L 309.577897 253.970569 
L 313.373525 253.62548 
L 317.169153 254.228024 
L 320.964781 260.694504 
L 332.351666 260.198871 
L 336.147294 257.578996 
L 339.942922 259.33683 
L 343.73855 260.387234 
L 347.534178 264.662495 
L 358.921062 257.432522 
L 362.71669 254.705448 
L 366.512318 263.42683 
L 370.307946 263.458202 
L 374.103574 269.819359 
L 385.490458 271.912454 
L 389.286086 266.40237 
L 393.081714 267.659931 
L 396.877342 267.420842 
L 400.67297 267.58312 
L 412.059854 265.806661 
L 415.855482 266.135276 
L 419.65111 266.64185 
L 423.446738 275.106675 
L 427.242366 280.817551 
L 438.629251 280.160134 
L 442.424879 273.262568 
L 446.220507 274.076647 
L 450.016135 268.484504 
L 453.811763 272.367401 
L 465.198647 270.02763 
L 468.994275 274.582321 
L 472.789903 275.17928 
L 476.585531 274.734564 
L 480.381159 273.801084 
L 491.768043 276.323643 
L 495.563671 274.033871 
L 499.359299 276.148948 
L 506.950555 283.829658 
L 518.337439 282.063984 
L 522.133067 282.256277 
L 525.928695 282.92547 
L 529.724323 283.301452 
L 533.519951 282.160293 
L 544.906836 286.572109 
L 548.702464 289.737898 
L 552.498092 295.060969 
L 556.29372 297.70952 
L 560.089348 294.847169 
L 571.476232 294.565734 
L 575.27186 297.670093 
L 579.067488 295.678984 
L 582.863116 295.040305 
L 586.658744 296.439867 
L 598.045628 300.278149 
L 601.841256 301.387196 
L 605.636884 305.032601 
L 609.432512 304.196775 
L 613.22814 305.02424 
L 624.615024 301.633646 
L 628.410652 301.636052 
L 632.20628 300.903965 
L 636.001908 298.639904 
L 639.797536 302.546819 
L 651.184421 305.323713 
L 654.980049 304.140657 
L 658.775677 302.273676 
L 662.571305 304.43906 
L 666.366933 301.230564 
L 677.753817 301.983328 
L 681.549445 303.324561 
L 685.345073 301.680494 
L 689.140701 304.037575 
L 692.936329 300.402184 
L 704.323213 304.821001 
L 708.118841 305.416157 
L 711.914469 306.607202 
L 715.710097 308.11568 
L 719.505725 304.712567 
L 730.892609 304.115762 
L 734.688237 307.585754 
L 738.483865 307.539946 
L 742.279493 306.889664 
L 746.075121 309.732196 
L 757.462006 305.835447 
L 761.257634 305.7407 
L 765.053262 304.167516 
L 768.84889 306.62843 
L 772.644518 309.443764 
L 784.031402 309.23516 
L 787.82703 307.827649 
L 791.622658 310.923735 
L 795.418286 308.581989 
L 799.213914 311.447043 
L 810.600798 314.351249 
L 814.396426 311.272379 
L 818.192054 309.485321 
L 821.987682 306.695864 
L 825.78331 306.378006 
L 837.170194 308.075139 
L 840.965822 310.016195 
L 844.76145 310.949256 
L 848.557078 313.328914 
L 852.352706 314.298924 
L 863.739591 313.460796 
L 867.535219 311.549552 
L 871.330847 308.797967 
L 875.126475 309.309683 
L 878.922103 308.540404 
L 890.308987 308.631382 
L 894.104615 310.282809 
L 897.900243 308.599461 
L 901.695871 306.305653 
L 905.491499 305.355504 
L 916.878383 307.147843 
L 920.674011 305.215521 
L 924.469639 308.307783 
L 928.265267 308.610771 
L 932.060895 308.714866 
L 943.447779 308.004308 
L 947.243407 308.101289 
L 951.039035 305.098454 
L 954.834663 306.635505 
L 958.630291 306.65523 
L 970.017176 306.220809 
L 973.812804 309.376965 
L 977.608432 309.529804 
L 981.40406 310.885793 
L 985.199688 309.508979 
L 996.586572 306.40035 
L 1000.3822 308.386135 
L 1004.177828 310.108659 
L 1007.973456 307.143833 
L 1011.769084 307.977579 
L 1023.155968 308.112834 
L 1030.747224 304.712755 
L 1034.542852 305.998432 
L 1038.33848 305.798952 
L 1049.725364 305.426407 
L 1053.520992 307.726227 
L 1057.31662 303.910982 
L 1061.112248 304.243897 
L 1064.907876 303.354556 
L 1076.294761 303.148054 
L 1080.090389 299.120621 
L 1087.681645 303.562855 
L 1091.477273 302.939437 
L 1091.477273 302.939437 
" style="fill:none;stroke:#2ca02c;stroke-linecap:square;stroke-width:1.5;"/>
   </g>
   <g id="line2d_16">
    <path clip-path="url(#pe02e21e18e)" d="M 97.022727 249.153836 
L 100.818355 250.600031 
L 104.613983 249.762668 
L 108.409611 252.515428 
L 119.796495 245.710045 
L 123.592124 246.529606 
L 127.387752 246.560149 
L 131.18338 244.650023 
L 134.979008 245.122249 
L 146.365892 237.687978 
L 150.16152 233.893272 
L 153.957148 232.198302 
L 157.752776 229.958529 
L 161.548404 238.876008 
L 172.935288 235.915298 
L 176.730916 230.948092 
L 180.526544 239.771812 
L 188.1178 238.626838 
L 199.504684 244.451186 
L 203.300312 241.795734 
L 207.09594 238.842145 
L 210.891568 229.533007 
L 214.687196 238.267556 
L 226.07408 238.591245 
L 229.869709 240.552389 
L 237.460965 239.888489 
L 241.256593 232.259473 
L 252.643477 227.151004 
L 256.439105 222.166744 
L 260.234733 219.183652 
L 264.030361 225.302243 
L 267.825989 233.331854 
L 279.212873 241.630282 
L 283.008501 242.75884 
L 286.804129 246.424346 
L 290.599757 243.730984 
L 294.395385 249.514409 
L 305.782269 253.261887 
L 309.577897 251.851974 
L 313.373525 259.890583 
L 317.169153 258.055782 
L 320.964781 259.466411 
L 332.351666 261.531808 
L 336.147294 259.050201 
L 339.942922 265.591148 
L 343.73855 268.729223 
L 347.534178 266.41139 
L 358.921062 265.503965 
L 362.71669 265.360181 
L 366.512318 259.85088 
L 370.307946 251.298976 
L 374.103574 254.387615 
L 385.490458 253.044416 
L 389.286086 254.030093 
L 393.081714 251.271742 
L 396.877342 256.646409 
L 400.67297 255.102753 
L 412.059854 258.168186 
L 415.855482 263.289149 
L 419.65111 262.127174 
L 423.446738 259.513501 
L 427.242366 264.542391 
L 438.629251 265.12899 
L 442.424879 267.521407 
L 446.220507 268.686996 
L 450.016135 276.927706 
L 453.811763 275.261956 
L 465.198647 271.755596 
L 468.994275 274.422017 
L 472.789903 273.564208 
L 476.585531 273.700756 
L 480.381159 270.716027 
L 491.768043 266.505472 
L 495.563671 274.829852 
L 499.359299 276.693 
L 503.154927 276.340562 
L 506.950555 272.971842 
L 518.337439 274.152284 
L 522.133067 276.819792 
L 525.928695 272.618615 
L 533.519951 268.601065 
L 544.906836 271.533137 
L 548.702464 265.443613 
L 552.498092 265.896034 
L 556.29372 266.151362 
L 560.089348 269.367383 
L 571.476232 272.022534 
L 575.27186 276.42364 
L 579.067488 276.06782 
L 582.863116 279.558061 
L 586.658744 285.561751 
L 598.045628 285.559968 
L 601.841256 279.6296 
L 605.636884 283.653354 
L 609.432512 284.331092 
L 613.22814 284.65976 
L 624.615024 291.081914 
L 628.410652 295.635301 
L 632.20628 292.126903 
L 639.797536 283.866161 
L 651.184421 284.728197 
L 654.980049 277.990827 
L 658.775677 270.977052 
L 662.571305 275.217459 
L 666.366933 278.84098 
L 677.753817 279.554715 
L 681.549445 281.971299 
L 685.345073 277.294541 
L 689.140701 271.620994 
L 692.936329 269.636788 
L 704.323213 268.522651 
L 708.118841 266.856382 
L 711.914469 272.218517 
L 715.710097 268.88802 
L 719.505725 271.10288 
L 730.892609 263.777517 
L 734.688237 258.742458 
L 738.483865 258.381827 
L 742.279493 250.495757 
L 746.075121 241.808602 
L 757.462006 244.604765 
L 761.257634 245.068319 
L 765.053262 245.782013 
L 768.84889 241.973753 
L 772.644518 249.44219 
L 784.031402 251.241424 
L 787.82703 250.503947 
L 791.622658 246.348985 
L 795.418286 243.875705 
L 799.213914 241.961604 
L 810.600798 244.617118 
L 814.396426 250.821175 
L 818.192054 253.872669 
L 821.987682 252.984229 
L 825.78331 244.805476 
L 837.170194 243.284477 
L 840.965822 238.436352 
L 844.76145 232.29156 
L 848.557078 230.036044 
L 852.352706 227.110777 
L 863.739591 231.648997 
L 867.535219 226.733832 
L 871.330847 237.341122 
L 875.126475 241.205243 
L 878.922103 238.837785 
L 890.308987 249.216907 
L 894.104615 253.734979 
L 897.900243 250.588284 
L 901.695871 252.432006 
L 905.491499 252.852305 
L 916.878383 252.158125 
L 920.674011 255.359612 
L 924.469639 261.878194 
L 928.265267 264.721497 
L 932.060895 269.872558 
L 943.447779 269.950772 
L 947.243407 267.939942 
L 951.039035 270.187763 
L 954.834663 268.413349 
L 958.630291 267.413797 
L 970.017176 270.860197 
L 973.812804 268.996649 
L 977.608432 270.70491 
L 981.40406 270.855524 
L 985.199688 269.122431 
L 996.586572 264.339704 
L 1000.3822 261.753924 
L 1004.177828 265.359018 
L 1007.973456 261.158932 
L 1011.769084 265.672426 
L 1023.155968 263.941445 
L 1026.951596 257.601439 
L 1030.747224 258.49605 
L 1034.542852 256.693769 
L 1038.33848 261.527099 
L 1049.725364 265.899198 
L 1053.520992 269.212954 
L 1057.31662 273.77872 
L 1061.112248 271.15206 
L 1064.907876 265.538453 
L 1076.294761 264.823059 
L 1080.090389 267.868719 
L 1083.886017 275.440732 
L 1087.681645 275.434352 
L 1091.477273 271.680777 
L 1091.477273 271.680777 
" style="fill:none;stroke:#d62728;stroke-linecap:square;stroke-width:1.5;"/>
   </g>
   <g id="line2d_17">
    <path clip-path="url(#pe02e21e18e)" d="M 97.022727 248.397843 
L 100.818355 243.940322 
L 104.613983 248.168378 
L 108.409611 242.750164 
L 119.796495 238.326522 
L 123.592124 235.434604 
L 127.387752 240.872357 
L 131.18338 236.110005 
L 134.979008 245.311914 
L 146.365892 254.318255 
L 150.16152 260.68116 
L 153.957148 262.093827 
L 157.752776 265.330708 
L 161.548404 260.164872 
L 172.935288 259.41674 
L 176.730916 253.147651 
L 180.526544 255.17295 
L 184.322172 255.684745 
L 188.1178 259.590195 
L 199.504684 260.05441 
L 203.300312 258.66528 
L 207.09594 255.285999 
L 210.891568 259.588432 
L 214.687196 264.137295 
L 226.07408 266.317183 
L 229.869709 270.233258 
L 233.665337 266.133918 
L 237.460965 267.098049 
L 241.256593 266.65698 
L 252.643477 267.408369 
L 256.439105 269.202803 
L 260.234733 265.15547 
L 264.030361 257.864292 
L 267.825989 253.929323 
L 279.212873 260.202137 
L 283.008501 258.850262 
L 286.804129 256.790359 
L 290.599757 257.725165 
L 305.782269 262.61407 
L 309.577897 258.440491 
L 313.373525 258.618989 
L 317.169153 261.262319 
L 320.964781 253.855325 
L 332.351666 250.167444 
L 336.147294 260.305644 
L 339.942922 261.85232 
L 343.73855 256.762474 
L 347.534178 255.471931 
L 358.921062 250.828933 
L 362.71669 256.427868 
L 366.512318 263.392986 
L 370.307946 259.641917 
L 374.103574 261.679665 
L 385.490458 262.351119 
L 389.286086 257.80948 
L 393.081714 264.111483 
L 396.877342 258.470007 
L 400.67297 257.960032 
L 412.059854 262.674557 
L 415.855482 260.174035 
L 419.65111 263.460836 
L 423.446738 264.527676 
L 427.242366 271.976733 
L 438.629251 275.435579 
L 442.424879 274.697696 
L 446.220507 276.63536 
L 450.016135 272.651466 
L 453.811763 275.590884 
L 465.198647 269.674931 
L 468.994275 264.528748 
L 472.789903 271.444714 
L 476.585531 266.792719 
L 480.381159 267.720536 
L 491.768043 272.379186 
L 495.563671 274.849377 
L 499.359299 271.568031 
L 503.154927 272.497941 
L 506.950555 265.786402 
L 518.337439 270.389702 
L 522.133067 272.458595 
L 525.928695 267.885015 
L 529.724323 264.099223 
L 533.519951 271.596094 
L 544.906836 269.346735 
L 548.702464 266.07485 
L 552.498092 264.027424 
L 556.29372 265.870533 
L 560.089348 268.69076 
L 571.476232 272.423596 
L 575.27186 268.849238 
L 579.067488 266.385986 
L 582.863116 268.789613 
L 586.658744 267.172405 
L 598.045628 266.827351 
L 601.841256 265.269863 
L 605.636884 261.07186 
L 609.432512 261.728046 
L 613.22814 266.231821 
L 624.615024 271.379618 
L 628.410652 269.281923 
L 632.20628 269.418552 
L 636.001908 271.430317 
L 639.797536 269.183939 
L 651.184421 272.4124 
L 654.980049 268.991488 
L 658.775677 275.82325 
L 662.571305 279.642559 
L 666.366933 281.760675 
L 677.753817 282.419252 
L 681.549445 280.40072 
L 685.345073 281.943342 
L 689.140701 282.576297 
L 692.936329 280.840352 
L 704.323213 282.227508 
L 708.118841 281.284848 
L 711.914469 286.696085 
L 715.710097 285.035215 
L 719.505725 281.673158 
L 730.892609 279.29682 
L 734.688237 274.988962 
L 738.483865 281.711716 
L 742.279493 278.049206 
L 746.075121 277.558547 
L 761.257634 278.717034 
L 765.053262 281.041541 
L 768.84889 279.869874 
L 772.644518 279.084821 
L 784.031402 277.124334 
L 787.82703 280.063892 
L 791.622658 278.818707 
L 795.418286 278.439317 
L 799.213914 280.002651 
L 810.600798 280.956301 
L 814.396426 287.271748 
L 818.192054 290.771707 
L 821.987682 293.279909 
L 825.78331 291.260603 
L 837.170194 285.563368 
L 840.965822 287.983828 
L 844.76145 292.292652 
L 848.557078 291.918312 
L 852.352706 289.838239 
L 863.739591 292.450386 
L 867.535219 289.735571 
L 871.330847 284.077877 
L 875.126475 285.142072 
L 878.922103 279.102564 
L 894.104615 277.095635 
L 897.900243 270.590388 
L 901.695871 270.200263 
L 905.491499 267.656582 
L 916.878383 269.323407 
L 920.674011 269.535885 
L 928.265267 271.945456 
L 932.060895 274.796193 
L 943.447779 276.27155 
L 947.243407 272.838705 
L 951.039035 276.719852 
L 954.834663 278.080609 
L 958.630291 278.537984 
L 970.017176 279.703184 
L 973.812804 284.700437 
L 977.608432 288.86585 
L 985.199688 288.54858 
L 996.586572 292.310595 
L 1000.3822 291.721996 
L 1004.177828 286.960791 
L 1007.973456 287.615071 
L 1011.769084 284.359494 
L 1023.155968 280.235453 
L 1026.951596 284.103538 
L 1030.747224 285.449998 
L 1034.542852 284.373386 
L 1038.33848 287.155078 
L 1049.725364 284.426938 
L 1053.520992 282.71115 
L 1057.31662 282.637155 
L 1061.112248 277.158479 
L 1064.907876 274.131969 
L 1076.294761 277.621348 
L 1080.090389 283.895094 
L 1083.886017 282.04943 
L 1087.681645 282.734885 
L 1091.477273 282.127043 
L 1091.477273 282.127043 
" style="fill:none;stroke:#9467bd;stroke-linecap:square;stroke-width:1.5;"/>
   </g>
   <g id="line2d_18">
    <path clip-path="url(#pe02e21e18e)" d="M 97.022727 233.379641 
L 100.818355 230.908078 
L 104.613983 225.71929 
L 108.409611 238.172181 
L 119.796495 227.136548 
L 123.592124 218.595531 
L 127.387752 226.477412 
L 131.18338 234.693814 
L 134.979008 242.349171 
L 146.365892 246.782923 
L 150.16152 246.244163 
L 153.957148 247.732538 
L 157.752776 252.236248 
L 161.548404 249.924051 
L 172.935288 257.54306 
L 176.730916 261.619187 
L 180.526544 264.130939 
L 184.322172 264.934543 
L 188.1178 259.763703 
L 199.504684 265.519837 
L 203.300312 265.263403 
L 207.09594 263.59381 
L 210.891568 271.939236 
L 214.687196 270.139885 
L 226.07408 275.770968 
L 229.869709 282.71484 
L 233.665337 276.171865 
L 237.460965 268.775469 
L 241.256593 263.420483 
L 252.643477 267.022412 
L 256.439105 274.14946 
L 260.234733 271.148467 
L 264.030361 272.15925 
L 267.825989 278.466359 
L 279.212873 278.540759 
L 283.008501 285.716231 
L 286.804129 279.995666 
L 290.599757 283.642883 
L 294.395385 281.304117 
L 305.782269 284.101749 
L 309.577897 283.814803 
L 313.373525 283.144228 
L 317.169153 287.710739 
L 320.964781 281.335253 
L 332.351666 277.248991 
L 339.942922 263.631952 
L 343.73855 261.831315 
L 347.534178 253.920014 
L 358.921062 262.288022 
L 362.71669 267.961409 
L 366.512318 275.932087 
L 370.307946 278.715028 
L 374.103574 280.426726 
L 385.490458 283.864188 
L 389.286086 279.148063 
L 393.081714 281.338219 
L 396.877342 284.59164 
L 400.67297 283.985327 
L 412.059854 289.127991 
L 415.855482 285.110761 
L 419.65111 291.108261 
L 423.446738 284.828705 
L 427.242366 280.975552 
L 438.629251 285.471889 
L 442.424879 292.40676 
L 446.220507 288.420066 
L 450.016135 285.640938 
L 453.811763 282.436939 
L 465.198647 278.467814 
L 468.994275 285.038366 
L 472.789903 287.035604 
L 476.585531 292.302765 
L 480.381159 287.706435 
L 491.768043 286.032328 
L 495.563671 288.384966 
L 499.359299 294.251623 
L 503.154927 296.570621 
L 506.950555 298.634312 
L 518.337439 296.018605 
L 522.133067 294.379567 
L 525.928695 289.638884 
L 529.724323 290.005404 
L 533.519951 294.99554 
L 544.906836 292.411034 
L 548.702464 289.115544 
L 552.498092 288.300808 
L 556.29372 284.653902 
L 560.089348 284.741932 
L 571.476232 284.419793 
L 575.27186 285.451251 
L 579.067488 292.109032 
L 582.863116 297.087715 
L 586.658744 302.570681 
L 598.045628 301.124065 
L 601.841256 303.146508 
L 605.636884 303.056604 
L 609.432512 298.774022 
L 613.22814 301.623117 
L 624.615024 302.590478 
L 628.410652 299.881402 
L 632.20628 302.903331 
L 636.001908 307.361262 
L 639.797536 309.389479 
L 651.184421 312.520172 
L 654.980049 308.818337 
L 658.775677 305.935765 
L 662.571305 304.610818 
L 666.366933 300.823092 
L 677.753817 297.496549 
L 681.549445 301.138511 
L 685.345073 296.86303 
L 689.140701 296.4009 
L 692.936329 292.761168 
L 704.323213 287.783577 
L 708.118841 290.251867 
L 711.914469 295.347957 
L 715.710097 298.62618 
L 719.505725 299.456698 
L 730.892609 295.886133 
L 734.688237 291.578366 
L 738.483865 297.891024 
L 742.279493 297.766992 
L 746.075121 298.722184 
L 757.462006 301.883089 
L 761.257634 305.966645 
L 765.053262 307.578425 
L 768.84889 303.325019 
L 772.644518 305.173256 
L 784.031402 304.983765 
L 787.82703 302.928755 
L 791.622658 304.36518 
L 795.418286 299.531312 
L 799.213914 294.346008 
L 810.600798 297.386627 
L 814.396426 297.418659 
L 821.987682 302.139238 
L 825.78331 307.090455 
L 837.170194 306.027581 
L 840.965822 306.001022 
L 844.76145 310.449817 
L 848.557078 312.448429 
L 852.352706 308.92537 
L 863.739591 311.356283 
L 867.535219 314.498165 
L 871.330847 314.584857 
L 875.126475 310.601533 
L 878.922103 312.922701 
L 890.308987 311.453616 
L 894.104615 309.143963 
L 897.900243 311.581367 
L 901.695871 309.572439 
L 905.491499 310.789432 
L 916.878383 309.603823 
L 920.674011 308.375584 
L 924.469639 308.037731 
L 928.265267 311.934675 
L 932.060895 309.006789 
L 943.447779 310.676698 
L 947.243407 313.492912 
L 951.039035 317.359782 
L 954.834663 316.664719 
L 958.630291 315.282191 
L 970.017176 319.179737 
L 973.812804 319.091662 
L 977.608432 321.088428 
L 981.40406 320.086544 
L 985.199688 322.399096 
L 996.586572 321.131424 
L 1000.3822 321.912126 
L 1004.177828 318.970058 
L 1007.973456 321.625216 
L 1011.769084 322.705006 
L 1023.155968 325.247581 
L 1030.747224 320.185115 
L 1034.542852 321.899369 
L 1038.33848 320.821215 
L 1049.725364 318.615008 
L 1053.520992 318.206743 
L 1057.31662 317.985026 
L 1061.112248 319.926814 
L 1064.907876 322.829475 
L 1076.294761 320.226475 
L 1080.090389 317.394031 
L 1083.886017 316.377109 
L 1087.681645 317.639693 
L 1091.477273 318.784354 
L 1091.477273 318.784354 
" style="fill:none;stroke:#8c564b;stroke-linecap:square;stroke-width:1.5;"/>
   </g>
   <g id="line2d_19">
    <path clip-path="url(#pe02e21e18e)" d="M 97.022727 256.737556 
L 100.818355 254.626016 
L 104.613983 262.651212 
L 108.409611 249.051716 
L 119.796495 254.888254 
L 123.592124 259.100606 
L 127.387752 257.91584 
L 131.18338 247.645177 
L 146.365892 253.64998 
L 150.16152 260.55963 
L 153.957148 260.680579 
L 157.752776 260.00331 
L 161.548404 256.671029 
L 172.935288 248.762962 
L 176.730916 237.358316 
L 180.526544 236.535568 
L 184.322172 236.096291 
L 188.1178 247.583079 
L 199.504684 241.617588 
L 203.300312 240.284873 
L 207.09594 238.396061 
L 210.891568 232.791822 
L 214.687196 241.251699 
L 226.07408 236.442388 
L 229.869709 231.303835 
L 233.665337 236.49349 
L 237.460965 248.868558 
L 241.256593 254.919467 
L 252.643477 251.835896 
L 256.439105 245.59816 
L 260.234733 244.498 
L 264.030361 234.211655 
L 267.825989 220.148695 
L 279.212873 228.375132 
L 283.008501 214.725204 
L 286.804129 223.257966 
L 290.599757 218.125556 
L 294.395385 224.318176 
L 305.782269 224.348073 
L 309.577897 218.983645 
L 313.373525 220.510867 
L 317.169153 215.678695 
L 320.964781 217.832995 
L 332.351666 220.419942 
L 336.147294 245.300606 
L 339.942922 255.800286 
L 343.73855 252.335821 
L 347.534178 259.699957 
L 358.921062 247.360715 
L 362.71669 246.56398 
L 366.512318 244.305028 
L 370.307946 235.889603 
L 374.103574 235.766589 
L 385.490458 231.143532 
L 389.286086 233.26424 
L 393.081714 237.643417 
L 396.877342 225.20192 
L 400.67297 225.630719 
L 412.059854 222.572928 
L 415.855482 227.033035 
L 419.65111 220.522061 
L 423.446738 235.239152 
L 427.242366 251.637182 
L 438.629251 249.673192 
L 442.424879 238.222957 
L 446.220507 248.439543 
L 450.016135 247.466215 
L 453.811763 256.250623 
L 465.198647 254.294384 
L 468.994275 239.597072 
L 472.789903 245.122917 
L 476.585531 230.52865 
L 480.381159 240.917765 
L 491.768043 249.825258 
L 495.563671 249.387767 
L 499.359299 235.801054 
L 503.154927 232.598154 
L 506.950555 218.363629 
L 518.337439 231.699504 
L 522.133067 238.116394 
L 525.928695 240.751396 
L 529.724323 235.15626 
L 533.519951 235.861501 
L 544.906836 237.761737 
L 548.702464 239.437489 
L 552.498092 238.204398 
L 556.29372 246.929087 
L 560.089348 250.209841 
L 571.476232 255.215636 
L 575.27186 249.447075 
L 579.067488 236.357715 
L 582.863116 230.21962 
L 586.658744 216.13439 
L 598.045628 219.394945 
L 601.841256 211.948277 
L 605.636884 205.518301 
L 609.432512 218.793395 
L 613.22814 218.497743 
L 624.615024 223.938024 
L 628.410652 227.387642 
L 632.20628 220.636571 
L 636.001908 212.369107 
L 639.797536 202.523762 
L 651.184421 197.871296 
L 654.980049 204.939564 
L 658.775677 226.108097 
L 662.571305 235.762475 
L 666.366933 248.006907 
L 677.753817 255.500858 
L 681.549445 246.465288 
L 685.345073 257.272074 
L 689.140701 258.890701 
L 692.936329 262.537815 
L 704.323213 271.636427 
L 708.118841 267.501652 
L 711.914469 267.046206 
L 715.710097 260.093453 
L 719.505725 254.150699 
L 730.892609 257.341766 
L 734.688237 258.882903 
L 738.483865 257.4122 
L 742.279493 252.756165 
L 746.075121 250.406796 
L 757.462006 245.830153 
L 761.257634 237.793505 
L 765.053262 237.52955 
L 768.84889 246.13253 
L 772.644518 241.127187 
L 784.031402 238.624263 
L 787.82703 247.755513 
L 791.622658 243.036477 
L 795.418286 253.100894 
L 799.213914 264.657266 
L 810.600798 261.290035 
L 814.396426 269.217618 
L 818.192054 270.202501 
L 821.987682 269.831981 
L 825.78331 259.109252 
L 837.170194 252.679086 
L 840.965822 256.291246 
L 844.76145 253.711846 
L 848.557078 248.598917 
L 852.352706 253.84034 
L 863.739591 252.58232 
L 867.535219 240.837365 
L 871.330847 230.736968 
L 875.126475 244.722368 
L 878.922103 229.498118 
L 890.308987 231.27788 
L 894.104615 237.060841 
L 897.900243 221.018125 
L 901.695871 226.543022 
L 905.491499 219.286337 
L 916.878383 225.476881 
L 920.674011 229.272277 
L 924.469639 232.028001 
L 928.265267 223.575448 
L 932.060895 236.927911 
L 943.447779 234.841226 
L 947.243407 222.044603 
L 951.039035 216.041978 
L 954.834663 220.98643 
L 958.630291 226.561029 
L 970.017176 216.036863 
L 973.812804 225.56389 
L 977.608432 226.091056 
L 981.40406 229.486591 
L 985.199688 221.02965 
L 996.586572 233.718914 
L 1000.3822 229.824511 
L 1004.177828 231.434917 
L 1007.973456 223.617426 
L 1011.769084 213.101851 
L 1023.155968 193.837012 
L 1026.951596 215.879308 
L 1030.747224 229.054743 
L 1034.542852 220.986527 
L 1038.33848 230.550952 
L 1049.725364 233.499822 
L 1053.520992 231.904187 
L 1057.31662 232.512112 
L 1061.112248 216.914647 
L 1064.907876 200.277867 
L 1076.294761 219.26959 
L 1080.090389 241.15574 
L 1083.886017 241.256308 
L 1087.681645 238.640934 
L 1091.477273 234.138123 
L 1091.477273 234.138123 
" style="fill:none;stroke:#e377c2;stroke-linecap:square;stroke-width:1.5;"/>
   </g>
   <g id="line2d_20">
    <path clip-path="url(#pe02e21e18e)" d="M 97.022727 241.659617 
L 100.818355 234.754832 
L 104.613983 222.700247 
L 108.409611 235.228708 
L 119.796495 227.265528 
L 123.592124 222.186507 
L 127.387752 233.146131 
L 131.18338 246.065527 
L 134.979008 255.50921 
L 146.365892 265.317156 
L 150.16152 257.792781 
L 153.957148 257.335915 
L 157.752776 262.418948 
L 161.548404 256.146785 
L 172.935288 262.123501 
L 176.730916 267.122804 
L 180.526544 267.074529 
L 184.322172 264.682117 
L 188.1178 265.819407 
L 199.504684 271.445056 
L 203.300312 278.991757 
L 207.09594 273.237615 
L 210.891568 277.312241 
L 214.687196 276.602103 
L 226.07408 275.697005 
L 229.869709 276.154902 
L 233.665337 267.885426 
L 241.256593 244.849478 
L 252.643477 249.943163 
L 256.439105 257.471698 
L 260.234733 260.505469 
L 264.030361 253.042291 
L 267.825989 263.64867 
L 279.212873 261.291263 
L 283.008501 270.507437 
L 286.804129 264.568722 
L 290.599757 276.930483 
L 294.395385 279.152982 
L 305.782269 283.699939 
L 309.577897 290.164616 
L 313.373525 291.478162 
L 317.169153 294.243772 
L 320.964781 286.132463 
L 332.351666 286.168664 
L 336.147294 276.60535 
L 339.942922 275.386598 
L 343.73855 272.452337 
L 347.534178 269.812673 
L 358.921062 281.018561 
L 362.71669 286.235292 
L 366.512318 293.547813 
L 370.307946 295.443737 
L 374.103574 298.504273 
L 385.490458 299.634387 
L 389.286086 297.198708 
L 393.081714 302.179326 
L 396.877342 304.253651 
L 400.67297 301.303152 
L 412.059854 305.435478 
L 415.855482 303.495635 
L 419.65111 303.829562 
L 423.446738 300.658528 
L 427.242366 298.138112 
L 438.629251 301.491554 
L 442.424879 307.994348 
L 446.220507 304.216777 
L 450.016135 299.881248 
L 453.811763 298.420782 
L 465.198647 297.746754 
L 468.994275 302.958543 
L 472.789903 303.66602 
L 476.585531 305.04529 
L 480.381159 304.222807 
L 491.768043 299.850368 
L 495.563671 302.572045 
L 499.359299 309.120421 
L 503.154927 313.760316 
L 506.950555 314.854822 
L 518.337439 316.286684 
L 522.133067 318.404316 
L 525.928695 315.046758 
L 529.724323 314.644776 
L 533.519951 317.880284 
L 544.906836 318.613252 
L 548.702464 317.888418 
L 552.498092 316.688138 
L 556.29372 315.053482 
L 560.089348 315.318964 
L 571.476232 313.93839 
L 575.27186 315.643114 
L 579.067488 322.612128 
L 582.863116 323.644153 
L 586.658744 326.986322 
L 598.045628 325.56785 
L 601.841256 327.063952 
L 605.636884 327.568972 
L 609.432512 326.061532 
L 613.22814 326.965417 
L 624.615024 326.514452 
L 628.410652 325.663651 
L 632.20628 328.495857 
L 636.001908 329.741846 
L 639.797536 331.97925 
L 651.184421 333.978538 
L 654.980049 332.274234 
L 658.775677 329.926198 
L 662.571305 328.593856 
L 666.366933 326.800486 
L 677.753817 325.129508 
L 681.549445 327.191718 
L 685.345073 325.144822 
L 689.140701 324.236413 
L 692.936329 323.762911 
L 704.323213 322.46394 
L 708.118841 325.520336 
L 711.914469 325.369913 
L 715.710097 325.563597 
L 719.505725 327.366238 
L 730.892609 325.099344 
L 734.688237 322.699166 
L 738.483865 324.499203 
L 742.279493 323.509189 
L 746.075121 326.163507 
L 757.462006 328.302459 
L 761.257634 327.811793 
L 765.053262 329.241311 
L 768.84889 327.239835 
L 772.644518 328.518744 
L 784.031402 329.498966 
L 787.82703 328.52881 
L 791.622658 328.917245 
L 795.418286 327.397449 
L 799.213914 326.12432 
L 810.600798 325.386814 
L 814.396426 324.778295 
L 818.192054 327.705311 
L 821.987682 328.214338 
L 825.78331 332.348641 
L 837.170194 333.035275 
L 844.76145 335.586579 
L 852.352706 334.475833 
L 863.739591 335.764247 
L 867.535219 337.597709 
L 871.330847 338.115455 
L 875.126475 336.13124 
L 878.922103 337.131664 
L 890.308987 336.320348 
L 894.104615 334.61099 
L 897.900243 337.604304 
L 901.695871 336.886788 
L 905.491499 338.496485 
L 916.878383 338.033421 
L 920.674011 338.752954 
L 924.469639 339.026919 
L 928.265267 340.510159 
L 932.060895 339.925989 
L 943.447779 339.936151 
L 947.243407 340.937533 
L 951.039035 342.196635 
L 954.834663 341.365944 
L 958.630291 340.317364 
L 970.017176 341.721676 
L 973.812804 341.976099 
L 977.608432 341.981217 
L 981.40406 341.799907 
L 985.199688 342.571896 
L 996.586572 342.131186 
L 1000.3822 342.317299 
L 1004.177828 341.010074 
L 1007.973456 342.231411 
L 1011.769084 343.213931 
L 1023.155968 344.91 
L 1026.951596 344.465244 
L 1030.747224 343.073425 
L 1034.542852 344.008889 
L 1038.33848 342.846808 
L 1049.725364 342.004239 
L 1053.520992 341.065105 
L 1057.31662 340.623166 
L 1064.907876 343.380078 
L 1076.294761 341.731134 
L 1080.090389 340.603497 
L 1083.886017 340.063634 
L 1091.477273 341.274598 
L 1091.477273 341.274598 
" style="fill:none;stroke:#7f7f7f;stroke-linecap:square;stroke-width:1.5;"/>
   </g>
   <g id="line2d_21">
    <path clip-path="url(#pe02e21e18e)" d="M 97.022727 256.67782 
L 100.818355 248.570361 
L 104.613983 246.400473 
L 108.409611 240.717335 
L 119.796495 239.410373 
L 123.592124 239.671779 
L 127.387752 247.77166 
L 131.18338 247.810646 
L 134.979008 258.57986 
L 146.365892 272.211408 
L 150.16152 270.913237 
L 153.957148 270.625433 
L 157.752776 274.41468 
L 161.548404 266.120104 
L 172.935288 264.344736 
L 176.730916 259.483992 
L 180.526544 258.762763 
L 184.322172 255.788442 
L 188.1178 266.630875 
L 199.504684 267.292191 
L 203.300312 274.17882 
L 207.09594 266.729529 
L 210.891568 266.876756 
L 214.687196 272.18373 
L 226.07408 267.719705 
L 229.869709 264.433626 
L 233.665337 258.750354 
L 237.460965 256.24285 
L 241.256593 250.193671 
L 252.643477 251.813236 
L 256.439105 252.969415 
L 260.234733 255.115954 
L 264.030361 237.926534 
L 267.825989 236.463669 
L 279.212873 240.644804 
L 286.804129 238.474893 
L 290.599757 249.838052 
L 294.395385 257.59005 
L 305.782269 263.441941 
L 309.577897 267.961627 
L 313.373525 270.70059 
L 317.169153 271.32561 
L 320.964781 261.481771 
L 332.351666 263.298113 
L 336.147294 267.572839 
L 339.942922 274.594156 
L 343.73855 268.818886 
L 347.534178 272.252479 
L 358.921062 272.415598 
L 362.71669 277.621817 
L 366.512318 284.226964 
L 370.307946 281.011052 
L 374.103574 284.729287 
L 385.490458 283.398032 
L 389.286086 281.485937 
L 393.081714 290.459641 
L 396.877342 286.118623 
L 400.67297 282.354409 
L 412.059854 286.205783 
L 415.855482 285.848819 
L 419.65111 282.76358 
L 423.446738 286.237562 
L 427.242366 292.505222 
L 442.424879 295.728228 
L 446.220507 296.188297 
L 450.016135 290.635678 
L 453.811763 294.210164 
L 465.198647 292.277737 
L 468.994275 288.795794 
L 472.789903 292.875775 
L 476.585531 286.255914 
L 480.381159 290.887632 
L 491.768043 290.406311 
L 495.563671 293.319447 
L 499.359299 293.043832 
L 503.154927 297.616353 
L 506.950555 292.423308 
L 518.337439 300.782455 
L 522.133067 306.57423 
L 525.928695 303.248178 
L 529.724323 300.178909 
L 533.519951 304.88187 
L 544.906836 306.672302 
L 548.702464 306.409177 
L 552.498092 304.321347 
L 556.29372 305.977861 
L 560.089348 307.800776 
L 571.476232 308.432723 
L 575.27186 307.652452 
L 579.067488 310.103401 
L 582.863116 309.185002 
L 586.658744 308.825735 
L 598.045628 307.600284 
L 601.841256 307.36753 
L 605.636884 306.062409 
L 609.432512 307.779623 
L 613.22814 309.139696 
L 624.615024 310.251382 
L 628.410652 310.112853 
L 632.20628 312.02155 
L 636.001908 311.355726 
L 651.184421 314.501203 
L 654.980049 313.102843 
L 658.775677 314.795114 
L 662.571305 315.719382 
L 666.366933 317.145389 
L 677.753817 317.592291 
L 681.549445 316.734159 
L 685.345073 317.781911 
L 689.140701 317.276341 
L 692.936329 318.142899 
L 704.323213 320.276454 
L 708.118841 321.795286 
L 711.914469 321.451486 
L 715.710097 318.989366 
L 719.505725 318.908773 
L 730.892609 317.116725 
L 734.688237 314.691817 
L 738.483865 316.307994 
L 742.279493 313.194117 
L 746.075121 315.7331 
L 757.462006 316.89573 
L 761.257634 313.366549 
L 765.053262 315.444691 
L 772.644518 315.295904 
L 784.031402 315.87365 
L 787.82703 317.497782 
L 791.622658 316.377398 
L 795.418286 317.649869 
L 799.213914 320.215012 
L 810.600798 318.019578 
L 814.396426 320.421366 
L 818.192054 324.163263 
L 821.987682 324.600555 
L 825.78331 325.405354 
L 837.170194 324.285122 
L 840.965822 327.074553 
L 844.76145 328.115443 
L 848.557078 325.960126 
L 852.352706 326.626064 
L 863.739591 328.035216 
L 867.535219 327.441044 
L 871.330847 325.773001 
L 875.126475 325.728098 
L 878.922103 323.162117 
L 890.308987 322.194718 
L 894.104615 320.786353 
L 897.900243 321.040613 
L 901.695871 321.081088 
L 905.491499 322.109995 
L 916.878383 322.723897 
L 920.674011 325.029502 
L 924.469639 326.193489 
L 928.265267 326.814423 
L 932.060895 328.610752 
L 943.447779 328.15375 
L 947.243407 327.00058 
L 951.039035 328.171666 
L 954.834663 327.443066 
L 958.630291 326.534343 
L 970.017176 326.835352 
L 973.812804 329.326072 
L 977.608432 329.442443 
L 981.40406 329.77985 
L 985.199688 329.493304 
L 996.586572 331.071354 
L 1000.3822 330.626723 
L 1004.177828 328.488237 
L 1007.973456 329.051419 
L 1011.769084 328.888042 
L 1023.155968 328.935847 
L 1026.951596 331.458953 
L 1030.747224 330.71673 
L 1034.542852 330.989093 
L 1038.33848 330.269482 
L 1049.725364 329.192886 
L 1053.520992 327.023433 
L 1057.31662 326.294832 
L 1061.112248 325.349956 
L 1064.907876 324.716444 
L 1076.294761 324.323774 
L 1080.090389 326.800687 
L 1083.886017 325.789074 
L 1087.681645 326.209895 
L 1091.477273 326.328887 
L 1091.477273 326.328887 
" style="fill:none;stroke:#bcbd22;stroke-linecap:square;stroke-width:1.5;"/>
   </g>
   <g id="patch_3">
    <path d="M 47.3 360.1 
L 47.3 25.92 
" style="fill:none;stroke:#000000;stroke-linecap:square;stroke-linejoin:miter;stroke-width:0.8;"/>
   </g>
   <g id="patch_4">
    <path d="M 1141.2 360.1 
L 1141.2 25.92 
" style="fill:none;stroke:#000000;stroke-linecap:square;stroke-linejoin:miter;stroke-width:0.8;"/>
   </g>
   <g id="patch_5">
    <path d="M 47.3 360.1 
L 1141.2 360.1 
" style="fill:none;stroke:#000000;stroke-linecap:square;stroke-linejoin:miter;stroke-width:0.8;"/>
   </g>
   <g id="patch_6">
    <path d="M 47.3 25.92 
L 1141.2 25.92 
" style="fill:none;stroke:#000000;stroke-linecap:square;stroke-linejoin:miter;stroke-width:0.8;"/>
   </g>
   <g id="text_8">
    <!-- Net Value: (2010-01-12 ~ 2010-10-08) -->
    <g transform="translate(478.1425 19.92)scale(0.12 -0.12)">
     <defs>
      <path d="M 9.8125 72.90625 
L 23.09375 72.90625 
L 55.421875 11.921875 
L 55.421875 72.90625 
L 64.984375 72.90625 
L 64.984375 0 
L 51.703125 0 
L 19.390625 60.984375 
L 19.390625 0 
L 9.8125 0 
z
" id="DejaVuSans-78"/>
      <path d="M 28.609375 0 
L 0.78125 72.90625 
L 11.078125 72.90625 
L 34.1875 11.53125 
L 57.328125 72.90625 
L 67.578125 72.90625 
L 39.796875 0 
z
" id="DejaVuSans-86"/>
      <path d="M 11.71875 12.40625 
L 22.015625 12.40625 
L 22.015625 0 
L 11.71875 0 
z
M 11.71875 51.703125 
L 22.015625 51.703125 
L 22.015625 39.3125 
L 11.71875 39.3125 
z
" id="DejaVuSans-58"/>
      <path d="M 31 75.875 
Q 24.46875 64.65625 21.28125 53.65625 
Q 18.109375 42.671875 18.109375 31.390625 
Q 18.109375 20.125 21.3125 9.0625 
Q 24.515625 -2 31 -13.1875 
L 23.1875 -13.1875 
Q 15.875 -1.703125 12.234375 9.375 
Q 8.59375 20.453125 8.59375 31.390625 
Q 8.59375 42.28125 12.203125 53.3125 
Q 15.828125 64.359375 23.1875 75.875 
z
" id="DejaVuSans-40"/>
      <path d="M 4.890625 31.390625 
L 31.203125 31.390625 
L 31.203125 23.390625 
L 4.890625 23.390625 
z
" id="DejaVuSans-45"/>
      <path d="M 73.1875 39.890625 
L 73.1875 31.203125 
Q 68.0625 27.34375 63.6875 25.6875 
Q 59.328125 24.03125 54.59375 24.03125 
Q 49.21875 24.03125 42.09375 26.90625 
Q 41.546875 27.09375 41.3125 27.203125 
Q 40.96875 27.34375 40.234375 27.59375 
Q 32.671875 30.609375 28.078125 30.609375 
Q 23.78125 30.609375 19.578125 28.734375 
Q 15.375 26.859375 10.59375 22.796875 
L 10.59375 31.5 
Q 15.71875 35.359375 20.09375 37.03125 
Q 24.46875 38.71875 29.203125 38.71875 
Q 34.578125 38.71875 41.75 35.796875 
Q 42.234375 35.59375 42.484375 35.5 
Q 42.875 35.359375 43.5625 35.109375 
Q 51.125 32.078125 55.71875 32.078125 
Q 59.90625 32.078125 64.03125 33.9375 
Q 68.171875 35.796875 73.1875 39.890625 
z
" id="DejaVuSans-126"/>
      <path d="M 31.78125 34.625 
Q 24.75 34.625 20.71875 30.859375 
Q 16.703125 27.09375 16.703125 20.515625 
Q 16.703125 13.921875 20.71875 10.15625 
Q 24.75 6.390625 31.78125 6.390625 
Q 38.8125 6.390625 42.859375 10.171875 
Q 46.921875 13.96875 46.921875 20.515625 
Q 46.921875 27.09375 42.890625 30.859375 
Q 38.875 34.625 31.78125 34.625 
z
M 21.921875 38.8125 
Q 15.578125 40.375 12.03125 44.71875 
Q 8.5 49.078125 8.5 55.328125 
Q 8.5 64.0625 14.71875 69.140625 
Q 20.953125 74.21875 31.78125 74.21875 
Q 42.671875 74.21875 48.875 69.140625 
Q 55.078125 64.0625 55.078125 55.328125 
Q 55.078125 49.078125 51.53125 44.71875 
Q 48 40.375 41.703125 38.8125 
Q 48.828125 37.15625 52.796875 32.3125 
Q 56.78125 27.484375 56.78125 20.515625 
Q 56.78125 9.90625 50.3125 4.234375 
Q 43.84375 -1.421875 31.78125 -1.421875 
Q 19.734375 -1.421875 13.25 4.234375 
Q 6.78125 9.90625 6.78125 20.515625 
Q 6.78125 27.484375 10.78125 32.3125 
Q 14.796875 37.15625 21.921875 38.8125 
z
M 18.3125 54.390625 
Q 18.3125 48.734375 21.84375 45.5625 
Q 25.390625 42.390625 31.78125 42.390625 
Q 38.140625 42.390625 41.71875 45.5625 
Q 45.3125 48.734375 45.3125 54.390625 
Q 45.3125 60.0625 41.71875 63.234375 
Q 38.140625 66.40625 31.78125 66.40625 
Q 25.390625 66.40625 21.84375 63.234375 
Q 18.3125 60.0625 18.3125 54.390625 
z
" id="DejaVuSans-56"/>
      <path d="M 8.015625 75.875 
L 15.828125 75.875 
Q 23.140625 64.359375 26.78125 53.3125 
Q 30.421875 42.28125 30.421875 31.390625 
Q 30.421875 20.453125 26.78125 9.375 
Q 23.140625 -1.703125 15.828125 -13.1875 
L 8.015625 -13.1875 
Q 14.5 -2 17.703125 9.0625 
Q 20.90625 20.125 20.90625 31.390625 
Q 20.90625 42.671875 17.703125 53.65625 
Q 14.5 64.65625 8.015625 75.875 
z
" id="DejaVuSans-41"/>
     </defs>
     <use xlink:href="#DejaVuSans-78"/>
     <use x="74.804688" xlink:href="#DejaVuSans-101"/>
     <use x="136.328125" xlink:href="#DejaVuSans-116"/>
     <use x="175.537109" xlink:href="#DejaVuSans-32"/>
     <use x="207.324219" xlink:href="#DejaVuSans-86"/>
     <use x="267.982422" xlink:href="#DejaVuSans-97"/>
     <use x="329.261719" xlink:href="#DejaVuSans-108"/>
     <use x="357.044922" xlink:href="#DejaVuSans-117"/>
     <use x="420.423828" xlink:href="#DejaVuSans-101"/>
     <use x="481.947266" xlink:href="#DejaVuSans-58"/>
     <use x="515.638672" xlink:href="#DejaVuSans-32"/>
     <use x="547.425781" xlink:href="#DejaVuSans-40"/>
     <use x="586.439453" xlink:href="#DejaVuSans-50"/>
     <use x="650.0625" xlink:href="#DejaVuSans-48"/>
     <use x="713.685547" xlink:href="#DejaVuSans-49"/>
     <use x="777.308594" xlink:href="#DejaVuSans-48"/>
     <use x="840.931641" xlink:href="#DejaVuSans-45"/>
     <use x="877.015625" xlink:href="#DejaVuSans-48"/>
     <use x="940.638672" xlink:href="#DejaVuSans-49"/>
     <use x="1004.261719" xlink:href="#DejaVuSans-45"/>
     <use x="1040.345703" xlink:href="#DejaVuSans-49"/>
     <use x="1103.96875" xlink:href="#DejaVuSans-50"/>
     <use x="1167.591797" xlink:href="#DejaVuSans-32"/>
     <use x="1199.378906" xlink:href="#DejaVuSans-126"/>
     <use x="1283.167969" xlink:href="#DejaVuSans-32"/>
     <use x="1314.955078" xlink:href="#DejaVuSans-50"/>
     <use x="1378.578125" xlink:href="#DejaVuSans-48"/>
     <use x="1442.201172" xlink:href="#DejaVuSans-49"/>
     <use x="1505.824219" xlink:href="#DejaVuSans-48"/>
     <use x="1569.447266" xlink:href="#DejaVuSans-45"/>
     <use x="1605.53125" xlink:href="#DejaVuSans-49"/>
     <use x="1669.154297" xlink:href="#DejaVuSans-48"/>
     <use x="1732.777344" xlink:href="#DejaVuSans-45"/>
     <use x="1768.861328" xlink:href="#DejaVuSans-48"/>
     <use x="1832.484375" xlink:href="#DejaVuSans-56"/>
     <use x="1896.107422" xlink:href="#DejaVuSans-41"/>
    </g>
   </g>
   <g id="legend_1">
    <g id="patch_7">
     <path d="M 54.3 168.248125 
L 150.789062 168.248125 
Q 152.789062 168.248125 152.789062 166.248125 
L 152.789062 32.92 
Q 152.789062 30.92 150.789062 30.92 
L 54.3 30.92 
Q 52.3 30.92 52.3 32.92 
L 52.3 166.248125 
Q 52.3 168.248125 54.3 168.248125 
z
" style="fill:#ffffff;opacity:0.8;stroke:#cccccc;stroke-linejoin:miter;"/>
    </g>
    <g id="line2d_22">
     <path d="M 56.3 39.018438 
L 76.3 39.018438 
" style="fill:none;stroke:#1f77b4;stroke-linecap:square;stroke-width:1.5;"/>
    </g>
    <g id="line2d_23"/>
    <g id="text_9">
     <!-- group_1 -->
     <g transform="translate(84.3 42.518438)scale(0.1 -0.1)">
      <defs>
       <path d="M 45.40625 27.984375 
Q 45.40625 37.75 41.375 43.109375 
Q 37.359375 48.484375 30.078125 48.484375 
Q 22.859375 48.484375 18.828125 43.109375 
Q 14.796875 37.75 14.796875 27.984375 
Q 14.796875 18.265625 18.828125 12.890625 
Q 22.859375 7.515625 30.078125 7.515625 
Q 37.359375 7.515625 41.375 12.890625 
Q 45.40625 18.265625 45.40625 27.984375 
z
M 54.390625 6.78125 
Q 54.390625 -7.171875 48.1875 -13.984375 
Q 42 -20.796875 29.203125 -20.796875 
Q 24.46875 -20.796875 20.265625 -20.09375 
Q 16.0625 -19.390625 12.109375 -17.921875 
L 12.109375 -9.1875 
Q 16.0625 -11.328125 19.921875 -12.34375 
Q 23.78125 -13.375 27.78125 -13.375 
Q 36.625 -13.375 41.015625 -8.765625 
Q 45.40625 -4.15625 45.40625 5.171875 
L 45.40625 9.625 
Q 42.625 4.78125 38.28125 2.390625 
Q 33.9375 0 27.875 0 
Q 17.828125 0 11.671875 7.65625 
Q 5.515625 15.328125 5.515625 27.984375 
Q 5.515625 40.671875 11.671875 48.328125 
Q 17.828125 56 27.875 56 
Q 33.9375 56 38.28125 53.609375 
Q 42.625 51.21875 45.40625 46.390625 
L 45.40625 54.6875 
L 54.390625 54.6875 
z
" id="DejaVuSans-103"/>
       <path d="M 41.109375 46.296875 
Q 39.59375 47.171875 37.8125 47.578125 
Q 36.03125 48 33.890625 48 
Q 26.265625 48 22.1875 43.046875 
Q 18.109375 38.09375 18.109375 28.8125 
L 18.109375 0 
L 9.078125 0 
L 9.078125 54.6875 
L 18.109375 54.6875 
L 18.109375 46.1875 
Q 20.953125 51.171875 25.484375 53.578125 
Q 30.03125 56 36.53125 56 
Q 37.453125 56 38.578125 55.875 
Q 39.703125 55.765625 41.0625 55.515625 
z
" id="DejaVuSans-114"/>
       <path d="M 30.609375 48.390625 
Q 23.390625 48.390625 19.1875 42.75 
Q 14.984375 37.109375 14.984375 27.296875 
Q 14.984375 17.484375 19.15625 11.84375 
Q 23.34375 6.203125 30.609375 6.203125 
Q 37.796875 6.203125 41.984375 11.859375 
Q 46.1875 17.53125 46.1875 27.296875 
Q 46.1875 37.015625 41.984375 42.703125 
Q 37.796875 48.390625 30.609375 48.390625 
z
M 30.609375 56 
Q 42.328125 56 49.015625 48.375 
Q 55.71875 40.765625 55.71875 27.296875 
Q 55.71875 13.875 49.015625 6.21875 
Q 42.328125 -1.421875 30.609375 -1.421875 
Q 18.84375 -1.421875 12.171875 6.21875 
Q 5.515625 13.875 5.515625 27.296875 
Q 5.515625 40.765625 12.171875 48.375 
Q 18.84375 56 30.609375 56 
z
" id="DejaVuSans-111"/>
       <path d="M 18.109375 8.203125 
L 18.109375 -20.796875 
L 9.078125 -20.796875 
L 9.078125 54.6875 
L 18.109375 54.6875 
L 18.109375 46.390625 
Q 20.953125 51.265625 25.265625 53.625 
Q 29.59375 56 35.59375 56 
Q 45.5625 56 51.78125 48.09375 
Q 58.015625 40.1875 58.015625 27.296875 
Q 58.015625 14.40625 51.78125 6.484375 
Q 45.5625 -1.421875 35.59375 -1.421875 
Q 29.59375 -1.421875 25.265625 0.953125 
Q 20.953125 3.328125 18.109375 8.203125 
z
M 48.6875 27.296875 
Q 48.6875 37.203125 44.609375 42.84375 
Q 40.53125 48.484375 33.40625 48.484375 
Q 26.265625 48.484375 22.1875 42.84375 
Q 18.109375 37.203125 18.109375 27.296875 
Q 18.109375 17.390625 22.1875 11.75 
Q 26.265625 6.109375 33.40625 6.109375 
Q 40.53125 6.109375 44.609375 11.75 
Q 48.6875 17.390625 48.6875 27.296875 
z
" id="DejaVuSans-112"/>
       <path d="M 50.984375 -16.609375 
L 50.984375 -23.578125 
L -0.984375 -23.578125 
L -0.984375 -16.609375 
z
" id="DejaVuSans-95"/>
      </defs>
      <use xlink:href="#DejaVuSans-103"/>
      <use x="63.476562" xlink:href="#DejaVuSans-114"/>
      <use x="102.339844" xlink:href="#DejaVuSans-111"/>
      <use x="163.521484" xlink:href="#DejaVuSans-117"/>
      <use x="226.900391" xlink:href="#DejaVuSans-112"/>
      <use x="290.376953" xlink:href="#DejaVuSans-95"/>
      <use x="340.376953" xlink:href="#DejaVuSans-49"/>
     </g>
    </g>
    <g id="line2d_24">
     <path d="M 56.3 53.974688 
L 76.3 53.974688 
" style="fill:none;stroke:#ff7f0e;stroke-linecap:square;stroke-width:1.5;"/>
    </g>
    <g id="line2d_25"/>
    <g id="text_10">
     <!-- group_2 -->
     <g transform="translate(84.3 57.474688)scale(0.1 -0.1)">
      <use xlink:href="#DejaVuSans-103"/>
      <use x="63.476562" xlink:href="#DejaVuSans-114"/>
      <use x="102.339844" xlink:href="#DejaVuSans-111"/>
      <use x="163.521484" xlink:href="#DejaVuSans-117"/>
      <use x="226.900391" xlink:href="#DejaVuSans-112"/>
      <use x="290.376953" xlink:href="#DejaVuSans-95"/>
      <use x="340.376953" xlink:href="#DejaVuSans-50"/>
     </g>
    </g>
    <g id="line2d_26">
     <path d="M 56.3 68.930938 
L 76.3 68.930938 
" style="fill:none;stroke:#2ca02c;stroke-linecap:square;stroke-width:1.5;"/>
    </g>
    <g id="line2d_27"/>
    <g id="text_11">
     <!-- group_3 -->
     <g transform="translate(84.3 72.430938)scale(0.1 -0.1)">
      <defs>
       <path d="M 40.578125 39.3125 
Q 47.65625 37.796875 51.625 33 
Q 55.609375 28.21875 55.609375 21.1875 
Q 55.609375 10.40625 48.1875 4.484375 
Q 40.765625 -1.421875 27.09375 -1.421875 
Q 22.515625 -1.421875 17.65625 -0.515625 
Q 12.796875 0.390625 7.625 2.203125 
L 7.625 11.71875 
Q 11.71875 9.328125 16.59375 8.109375 
Q 21.484375 6.890625 26.8125 6.890625 
Q 36.078125 6.890625 40.9375 10.546875 
Q 45.796875 14.203125 45.796875 21.1875 
Q 45.796875 27.640625 41.28125 31.265625 
Q 36.765625 34.90625 28.71875 34.90625 
L 20.21875 34.90625 
L 20.21875 43.015625 
L 29.109375 43.015625 
Q 36.375 43.015625 40.234375 45.921875 
Q 44.09375 48.828125 44.09375 54.296875 
Q 44.09375 59.90625 40.109375 62.90625 
Q 36.140625 65.921875 28.71875 65.921875 
Q 24.65625 65.921875 20.015625 65.03125 
Q 15.375 64.15625 9.8125 62.3125 
L 9.8125 71.09375 
Q 15.4375 72.65625 20.34375 73.4375 
Q 25.25 74.21875 29.59375 74.21875 
Q 40.828125 74.21875 47.359375 69.109375 
Q 53.90625 64.015625 53.90625 55.328125 
Q 53.90625 49.265625 50.4375 45.09375 
Q 46.96875 40.921875 40.578125 39.3125 
z
" id="DejaVuSans-51"/>
      </defs>
      <use xlink:href="#DejaVuSans-103"/>
      <use x="63.476562" xlink:href="#DejaVuSans-114"/>
      <use x="102.339844" xlink:href="#DejaVuSans-111"/>
      <use x="163.521484" xlink:href="#DejaVuSans-117"/>
      <use x="226.900391" xlink:href="#DejaVuSans-112"/>
      <use x="290.376953" xlink:href="#DejaVuSans-95"/>
      <use x="340.376953" xlink:href="#DejaVuSans-51"/>
     </g>
    </g>
    <g id="line2d_28">
     <path d="M 56.3 83.887188 
L 76.3 83.887188 
" style="fill:none;stroke:#d62728;stroke-linecap:square;stroke-width:1.5;"/>
    </g>
    <g id="line2d_29"/>
    <g id="text_12">
     <!-- group_4 -->
     <g transform="translate(84.3 87.387188)scale(0.1 -0.1)">
      <defs>
       <path d="M 37.796875 64.3125 
L 12.890625 25.390625 
L 37.796875 25.390625 
z
M 35.203125 72.90625 
L 47.609375 72.90625 
L 47.609375 25.390625 
L 58.015625 25.390625 
L 58.015625 17.1875 
L 47.609375 17.1875 
L 47.609375 0 
L 37.796875 0 
L 37.796875 17.1875 
L 4.890625 17.1875 
L 4.890625 26.703125 
z
" id="DejaVuSans-52"/>
      </defs>
      <use xlink:href="#DejaVuSans-103"/>
      <use x="63.476562" xlink:href="#DejaVuSans-114"/>
      <use x="102.339844" xlink:href="#DejaVuSans-111"/>
      <use x="163.521484" xlink:href="#DejaVuSans-117"/>
      <use x="226.900391" xlink:href="#DejaVuSans-112"/>
      <use x="290.376953" xlink:href="#DejaVuSans-95"/>
      <use x="340.376953" xlink:href="#DejaVuSans-52"/>
     </g>
    </g>
    <g id="line2d_30">
     <path d="M 56.3 98.843438 
L 76.3 98.843438 
" style="fill:none;stroke:#9467bd;stroke-linecap:square;stroke-width:1.5;"/>
    </g>
    <g id="line2d_31"/>
    <g id="text_13">
     <!-- group_5 -->
     <g transform="translate(84.3 102.343438)scale(0.1 -0.1)">
      <use xlink:href="#DejaVuSans-103"/>
      <use x="63.476562" xlink:href="#DejaVuSans-114"/>
      <use x="102.339844" xlink:href="#DejaVuSans-111"/>
      <use x="163.521484" xlink:href="#DejaVuSans-117"/>
      <use x="226.900391" xlink:href="#DejaVuSans-112"/>
      <use x="290.376953" xlink:href="#DejaVuSans-95"/>
      <use x="340.376953" xlink:href="#DejaVuSans-53"/>
     </g>
    </g>
    <g id="line2d_32">
     <path d="M 56.3 113.799688 
L 76.3 113.799688 
" style="fill:none;stroke:#8c564b;stroke-linecap:square;stroke-width:1.5;"/>
    </g>
    <g id="line2d_33"/>
    <g id="text_14">
     <!-- benchmark -->
     <g transform="translate(84.3 117.299688)scale(0.1 -0.1)">
      <defs>
       <path d="M 48.6875 27.296875 
Q 48.6875 37.203125 44.609375 42.84375 
Q 40.53125 48.484375 33.40625 48.484375 
Q 26.265625 48.484375 22.1875 42.84375 
Q 18.109375 37.203125 18.109375 27.296875 
Q 18.109375 17.390625 22.1875 11.75 
Q 26.265625 6.109375 33.40625 6.109375 
Q 40.53125 6.109375 44.609375 11.75 
Q 48.6875 17.390625 48.6875 27.296875 
z
M 18.109375 46.390625 
Q 20.953125 51.265625 25.265625 53.625 
Q 29.59375 56 35.59375 56 
Q 45.5625 56 51.78125 48.09375 
Q 58.015625 40.1875 58.015625 27.296875 
Q 58.015625 14.40625 51.78125 6.484375 
Q 45.5625 -1.421875 35.59375 -1.421875 
Q 29.59375 -1.421875 25.265625 0.953125 
Q 20.953125 3.328125 18.109375 8.203125 
L 18.109375 0 
L 9.078125 0 
L 9.078125 75.984375 
L 18.109375 75.984375 
z
" id="DejaVuSans-98"/>
       <path d="M 48.78125 52.59375 
L 48.78125 44.1875 
Q 44.96875 46.296875 41.140625 47.34375 
Q 37.3125 48.390625 33.40625 48.390625 
Q 24.65625 48.390625 19.8125 42.84375 
Q 14.984375 37.3125 14.984375 27.296875 
Q 14.984375 17.28125 19.8125 11.734375 
Q 24.65625 6.203125 33.40625 6.203125 
Q 37.3125 6.203125 41.140625 7.25 
Q 44.96875 8.296875 48.78125 10.40625 
L 48.78125 2.09375 
Q 45.015625 0.34375 40.984375 -0.53125 
Q 36.96875 -1.421875 32.421875 -1.421875 
Q 20.0625 -1.421875 12.78125 6.34375 
Q 5.515625 14.109375 5.515625 27.296875 
Q 5.515625 40.671875 12.859375 48.328125 
Q 20.21875 56 33.015625 56 
Q 37.15625 56 41.109375 55.140625 
Q 45.0625 54.296875 48.78125 52.59375 
z
" id="DejaVuSans-99"/>
       <path d="M 54.890625 33.015625 
L 54.890625 0 
L 45.90625 0 
L 45.90625 32.71875 
Q 45.90625 40.484375 42.875 44.328125 
Q 39.84375 48.1875 33.796875 48.1875 
Q 26.515625 48.1875 22.3125 43.546875 
Q 18.109375 38.921875 18.109375 30.90625 
L 18.109375 0 
L 9.078125 0 
L 9.078125 75.984375 
L 18.109375 75.984375 
L 18.109375 46.1875 
Q 21.34375 51.125 25.703125 53.5625 
Q 30.078125 56 35.796875 56 
Q 45.21875 56 50.046875 50.171875 
Q 54.890625 44.34375 54.890625 33.015625 
z
" id="DejaVuSans-104"/>
       <path d="M 52 44.1875 
Q 55.375 50.25 60.0625 53.125 
Q 64.75 56 71.09375 56 
Q 79.640625 56 84.28125 50.015625 
Q 88.921875 44.046875 88.921875 33.015625 
L 88.921875 0 
L 79.890625 0 
L 79.890625 32.71875 
Q 79.890625 40.578125 77.09375 44.375 
Q 74.3125 48.1875 68.609375 48.1875 
Q 61.625 48.1875 57.5625 43.546875 
Q 53.515625 38.921875 53.515625 30.90625 
L 53.515625 0 
L 44.484375 0 
L 44.484375 32.71875 
Q 44.484375 40.625 41.703125 44.40625 
Q 38.921875 48.1875 33.109375 48.1875 
Q 26.21875 48.1875 22.15625 43.53125 
Q 18.109375 38.875 18.109375 30.90625 
L 18.109375 0 
L 9.078125 0 
L 9.078125 54.6875 
L 18.109375 54.6875 
L 18.109375 46.1875 
Q 21.1875 51.21875 25.484375 53.609375 
Q 29.78125 56 35.6875 56 
Q 41.65625 56 45.828125 52.96875 
Q 50 49.953125 52 44.1875 
z
" id="DejaVuSans-109"/>
       <path d="M 9.078125 75.984375 
L 18.109375 75.984375 
L 18.109375 31.109375 
L 44.921875 54.6875 
L 56.390625 54.6875 
L 27.390625 29.109375 
L 57.625 0 
L 45.90625 0 
L 18.109375 26.703125 
L 18.109375 0 
L 9.078125 0 
z
" id="DejaVuSans-107"/>
      </defs>
      <use xlink:href="#DejaVuSans-98"/>
      <use x="63.476562" xlink:href="#DejaVuSans-101"/>
      <use x="125" xlink:href="#DejaVuSans-110"/>
      <use x="188.378906" xlink:href="#DejaVuSans-99"/>
      <use x="243.359375" xlink:href="#DejaVuSans-104"/>
      <use x="306.738281" xlink:href="#DejaVuSans-109"/>
      <use x="404.150391" xlink:href="#DejaVuSans-97"/>
      <use x="465.429688" xlink:href="#DejaVuSans-114"/>
      <use x="506.542969" xlink:href="#DejaVuSans-107"/>
     </g>
    </g>
    <g id="line2d_34">
     <path d="M 56.3 128.477813 
L 76.3 128.477813 
" style="fill:none;stroke:#e377c2;stroke-linecap:square;stroke-width:1.5;"/>
    </g>
    <g id="line2d_35"/>
    <g id="text_15">
     <!-- long_excess -->
     <g transform="translate(84.3 131.977813)scale(0.1 -0.1)">
      <defs>
       <path d="M 54.890625 54.6875 
L 35.109375 28.078125 
L 55.90625 0 
L 45.3125 0 
L 29.390625 21.484375 
L 13.484375 0 
L 2.875 0 
L 24.125 28.609375 
L 4.6875 54.6875 
L 15.28125 54.6875 
L 29.78125 35.203125 
L 44.28125 54.6875 
z
" id="DejaVuSans-120"/>
       <path d="M 44.28125 53.078125 
L 44.28125 44.578125 
Q 40.484375 46.53125 36.375 47.5 
Q 32.28125 48.484375 27.875 48.484375 
Q 21.1875 48.484375 17.84375 46.4375 
Q 14.5 44.390625 14.5 40.28125 
Q 14.5 37.15625 16.890625 35.375 
Q 19.28125 33.59375 26.515625 31.984375 
L 29.59375 31.296875 
Q 39.15625 29.25 43.1875 25.515625 
Q 47.21875 21.78125 47.21875 15.09375 
Q 47.21875 7.46875 41.1875 3.015625 
Q 35.15625 -1.421875 24.609375 -1.421875 
Q 20.21875 -1.421875 15.453125 -0.5625 
Q 10.6875 0.296875 5.421875 2 
L 5.421875 11.28125 
Q 10.40625 8.6875 15.234375 7.390625 
Q 20.0625 6.109375 24.8125 6.109375 
Q 31.15625 6.109375 34.5625 8.28125 
Q 37.984375 10.453125 37.984375 14.40625 
Q 37.984375 18.0625 35.515625 20.015625 
Q 33.0625 21.96875 24.703125 23.78125 
L 21.578125 24.515625 
Q 13.234375 26.265625 9.515625 29.90625 
Q 5.8125 33.546875 5.8125 39.890625 
Q 5.8125 47.609375 11.28125 51.796875 
Q 16.75 56 26.8125 56 
Q 31.78125 56 36.171875 55.265625 
Q 40.578125 54.546875 44.28125 53.078125 
z
" id="DejaVuSans-115"/>
      </defs>
      <use xlink:href="#DejaVuSans-108"/>
      <use x="27.783203" xlink:href="#DejaVuSans-111"/>
      <use x="88.964844" xlink:href="#DejaVuSans-110"/>
      <use x="152.34375" xlink:href="#DejaVuSans-103"/>
      <use x="215.820312" xlink:href="#DejaVuSans-95"/>
      <use x="265.820312" xlink:href="#DejaVuSans-101"/>
      <use x="325.59375" xlink:href="#DejaVuSans-120"/>
      <use x="383.023438" xlink:href="#DejaVuSans-99"/>
      <use x="438.003906" xlink:href="#DejaVuSans-101"/>
      <use x="499.527344" xlink:href="#DejaVuSans-115"/>
      <use x="551.626953" xlink:href="#DejaVuSans-115"/>
     </g>
    </g>
    <g id="line2d_36">
     <path d="M 56.3 143.434063 
L 76.3 143.434063 
" style="fill:none;stroke:#7f7f7f;stroke-linecap:square;stroke-width:1.5;"/>
    </g>
    <g id="line2d_37"/>
    <g id="text_16">
     <!-- short_excess -->
     <g transform="translate(84.3 146.934063)scale(0.1 -0.1)">
      <use xlink:href="#DejaVuSans-115"/>
      <use x="52.099609" xlink:href="#DejaVuSans-104"/>
      <use x="115.478516" xlink:href="#DejaVuSans-111"/>
      <use x="176.660156" xlink:href="#DejaVuSans-114"/>
      <use x="217.773438" xlink:href="#DejaVuSans-116"/>
      <use x="256.982422" xlink:href="#DejaVuSans-95"/>
      <use x="306.982422" xlink:href="#DejaVuSans-101"/>
      <use x="366.755859" xlink:href="#DejaVuSans-120"/>
      <use x="424.185547" xlink:href="#DejaVuSans-99"/>
      <use x="479.166016" xlink:href="#DejaVuSans-101"/>
      <use x="540.689453" xlink:href="#DejaVuSans-115"/>
      <use x="592.789062" xlink:href="#DejaVuSans-115"/>
     </g>
    </g>
    <g id="line2d_38">
     <path d="M 56.3 158.390313 
L 76.3 158.390313 
" style="fill:none;stroke:#bcbd22;stroke-linecap:square;stroke-width:1.5;"/>
    </g>
    <g id="line2d_39"/>
    <g id="text_17">
     <!-- long_short -->
     <g transform="translate(84.3 161.890313)scale(0.1 -0.1)">
      <use xlink:href="#DejaVuSans-108"/>
      <use x="27.783203" xlink:href="#DejaVuSans-111"/>
      <use x="88.964844" xlink:href="#DejaVuSans-110"/>
      <use x="152.34375" xlink:href="#DejaVuSans-103"/>
      <use x="215.820312" xlink:href="#DejaVuSans-95"/>
      <use x="265.820312" xlink:href="#DejaVuSans-115"/>
      <use x="317.919922" xlink:href="#DejaVuSans-104"/>
      <use x="381.298828" xlink:href="#DejaVuSans-111"/>
      <use x="442.480469" xlink:href="#DejaVuSans-114"/>
      <use x="483.59375" xlink:href="#DejaVuSans-116"/>
     </g>
    </g>
   </g>
  </g>
 </g>
 <defs>
  <clipPath id="pe02e21e18e">
   <rect height="334.18" width="1093.9" x="47.3" y="25.92"/>
  </clipPath>
 </defs>
</svg>
