<?xml version="1.0" encoding="utf-8" standalone="no"?>
<!DOCTYPE svg PUBLIC "-//W3C//DTD SVG 1.1//EN"
  "http://www.w3.org/Graphics/SVG/1.1/DTD/svg11.dtd">
<!-- Created with matplotlib (https://matplotlib.org/) -->
<svg height="374.4pt" version="1.1" viewBox="0 0 1152 374.4" width="1152pt" xmlns="http://www.w3.org/2000/svg" xmlns:xlink="http://www.w3.org/1999/xlink">
 <metadata>
  <rdf:RDF xmlns:cc="http://creativecommons.org/ns#" xmlns:dc="http://purl.org/dc/elements/1.1/" xmlns:rdf="http://www.w3.org/1999/02/22-rdf-syntax-ns#">
   <cc:Work>
    <dc:type rdf:resource="http://purl.org/dc/dcmitype/StillImage"/>
    <dc:date>2023-10-11T16:58:53.303783</dc:date>
    <dc:format>image/svg+xml</dc:format>
    <dc:creator>
     <cc:Agent>
      <dc:title>Matplotlib v3.3.4, https://matplotlib.org/</dc:title>
     </cc:Agent>
    </dc:creator>
   </cc:Work>
  </rdf:RDF>
 </metadata>
 <defs>
  <style type="text/css">*{stroke-linecap:butt;stroke-linejoin:round;}</style>
 </defs>
 <g id="figure_1">
  <g id="patch_1">
   <path d="M 0 374.4 
L 1152 374.4 
L 1152 0 
L 0 0 
z
" style="fill:#ffffff;"/>
  </g>
  <g id="axes_1">
   <g id="patch_2">
    <path d="M 47.3 331.16 
L 1141.2 331.16 
L 1141.2 25.92 
L 47.3 25.92 
z
" style="fill:#ffffff;"/>
   </g>
   <g id="matplotlib.axis_1">
    <g id="xtick_1">
     <g id="line2d_1">
      <path clip-path="url(#p615b12b0d2)" d="M 75.24635 331.16 
L 75.24635 25.92 
" style="fill:none;stroke:#b0b0b0;stroke-linecap:square;stroke-width:0.8;"/>
     </g>
     <g id="line2d_2">
      <defs>
       <path d="M 0 0 
L 0 3.5 
" id="m08fba9b8ee" style="stroke:#000000;stroke-width:0.8;"/>
      </defs>
      <g>
       <use style="stroke:#000000;stroke-width:0.8;" x="75.24635" xlink:href="#m08fba9b8ee" y="331.16"/>
      </g>
     </g>
     <g id="text_1">
      <!-- 2010 -->
      <g transform="translate(78.005725 363.61)rotate(-90)scale(0.1 -0.1)">
       <defs>
        <path d="M 19.1875 8.296875 
L 53.609375 8.296875 
L 53.609375 0 
L 7.328125 0 
L 7.328125 8.296875 
Q 12.9375 14.109375 22.625 23.890625 
Q 32.328125 33.6875 34.8125 36.53125 
Q 39.546875 41.84375 41.421875 45.53125 
Q 43.3125 49.21875 43.3125 52.78125 
Q 43.3125 58.59375 39.234375 62.25 
Q 35.15625 65.921875 28.609375 65.921875 
Q 23.96875 65.921875 18.8125 64.3125 
Q 13.671875 62.703125 7.8125 59.421875 
L 7.8125 69.390625 
Q 13.765625 71.78125 18.9375 73 
Q 24.125 74.21875 28.421875 74.21875 
Q 39.75 74.21875 46.484375 68.546875 
Q 53.21875 62.890625 53.21875 53.421875 
Q 53.21875 48.921875 51.53125 44.890625 
Q 49.859375 40.875 45.40625 35.40625 
Q 44.1875 33.984375 37.640625 27.21875 
Q 31.109375 20.453125 19.1875 8.296875 
z
" id="DejaVuSans-50"/>
        <path d="M 31.78125 66.40625 
Q 24.171875 66.40625 20.328125 58.90625 
Q 16.5 51.421875 16.5 36.375 
Q 16.5 21.390625 20.328125 13.890625 
Q 24.171875 6.390625 31.78125 6.390625 
Q 39.453125 6.390625 43.28125 13.890625 
Q 47.125 21.390625 47.125 36.375 
Q 47.125 51.421875 43.28125 58.90625 
Q 39.453125 66.40625 31.78125 66.40625 
z
M 31.78125 74.21875 
Q 44.046875 74.21875 50.515625 64.515625 
Q 56.984375 54.828125 56.984375 36.375 
Q 56.984375 17.96875 50.515625 8.265625 
Q 44.046875 -1.421875 31.78125 -1.421875 
Q 19.53125 -1.421875 13.0625 8.265625 
Q 6.59375 17.96875 6.59375 36.375 
Q 6.59375 54.828125 13.0625 64.515625 
Q 19.53125 74.21875 31.78125 74.21875 
z
" id="DejaVuSans-48"/>
        <path d="M 12.40625 8.296875 
L 28.515625 8.296875 
L 28.515625 63.921875 
L 10.984375 60.40625 
L 10.984375 69.390625 
L 28.421875 72.90625 
L 38.28125 72.90625 
L 38.28125 8.296875 
L 54.390625 8.296875 
L 54.390625 0 
L 12.40625 0 
z
" id="DejaVuSans-49"/>
       </defs>
       <use xlink:href="#DejaVuSans-50"/>
       <use x="63.623047" xlink:href="#DejaVuSans-48"/>
       <use x="127.246094" xlink:href="#DejaVuSans-49"/>
       <use x="190.869141" xlink:href="#DejaVuSans-48"/>
      </g>
     </g>
    </g>
   </g>
   <g id="matplotlib.axis_2">
    <g id="ytick_1">
     <g id="line2d_3">
      <path clip-path="url(#p615b12b0d2)" d="M 47.3 324.892445 
L 1141.2 324.892445 
" style="fill:none;stroke:#b0b0b0;stroke-linecap:square;stroke-width:0.8;"/>
     </g>
     <g id="line2d_4">
      <defs>
       <path d="M 0 0 
L -3.5 0 
" id="m7784dea867" style="stroke:#000000;stroke-width:0.8;"/>
      </defs>
      <g>
       <use style="stroke:#000000;stroke-width:0.8;" x="47.3" xlink:href="#m7784dea867" y="324.892445"/>
      </g>
     </g>
     <g id="text_2">
      <!-- 0.0 -->
      <g transform="translate(24.396875 328.691664)scale(0.1 -0.1)">
       <defs>
        <path d="M 10.6875 12.40625 
L 21 12.40625 
L 21 0 
L 10.6875 0 
z
" id="DejaVuSans-46"/>
       </defs>
       <use xlink:href="#DejaVuSans-48"/>
       <use x="63.623047" xlink:href="#DejaVuSans-46"/>
       <use x="95.410156" xlink:href="#DejaVuSans-48"/>
      </g>
     </g>
    </g>
    <g id="ytick_2">
     <g id="line2d_5">
      <path clip-path="url(#p615b12b0d2)" d="M 47.3 283.220185 
L 1141.2 283.220185 
" style="fill:none;stroke:#b0b0b0;stroke-linecap:square;stroke-width:0.8;"/>
     </g>
     <g id="line2d_6">
      <g>
       <use style="stroke:#000000;stroke-width:0.8;" x="47.3" xlink:href="#m7784dea867" y="283.220185"/>
      </g>
     </g>
     <g id="text_3">
      <!-- 0.5 -->
      <g transform="translate(24.396875 287.019403)scale(0.1 -0.1)">
       <defs>
        <path d="M 10.796875 72.90625 
L 49.515625 72.90625 
L 49.515625 64.59375 
L 19.828125 64.59375 
L 19.828125 46.734375 
Q 21.96875 47.46875 24.109375 47.828125 
Q 26.265625 48.1875 28.421875 48.1875 
Q 40.625 48.1875 47.75 41.5 
Q 54.890625 34.8125 54.890625 23.390625 
Q 54.890625 11.625 47.5625 5.09375 
Q 40.234375 -1.421875 26.90625 -1.421875 
Q 22.3125 -1.421875 17.546875 -0.640625 
Q 12.796875 0.140625 7.71875 1.703125 
L 7.71875 11.625 
Q 12.109375 9.234375 16.796875 8.0625 
Q 21.484375 6.890625 26.703125 6.890625 
Q 35.15625 6.890625 40.078125 11.328125 
Q 45.015625 15.765625 45.015625 23.390625 
Q 45.015625 31 40.078125 35.4375 
Q 35.15625 39.890625 26.703125 39.890625 
Q 22.75 39.890625 18.8125 39.015625 
Q 14.890625 38.140625 10.796875 36.28125 
z
" id="DejaVuSans-53"/>
       </defs>
       <use xlink:href="#DejaVuSans-48"/>
       <use x="63.623047" xlink:href="#DejaVuSans-46"/>
       <use x="95.410156" xlink:href="#DejaVuSans-53"/>
      </g>
     </g>
    </g>
    <g id="ytick_3">
     <g id="line2d_7">
      <path clip-path="url(#p615b12b0d2)" d="M 47.3 241.547924 
L 1141.2 241.547924 
" style="fill:none;stroke:#b0b0b0;stroke-linecap:square;stroke-width:0.8;"/>
     </g>
     <g id="line2d_8">
      <g>
       <use style="stroke:#000000;stroke-width:0.8;" x="47.3" xlink:href="#m7784dea867" y="241.547924"/>
      </g>
     </g>
     <g id="text_4">
      <!-- 1.0 -->
      <g transform="translate(24.396875 245.347143)scale(0.1 -0.1)">
       <use xlink:href="#DejaVuSans-49"/>
       <use x="63.623047" xlink:href="#DejaVuSans-46"/>
       <use x="95.410156" xlink:href="#DejaVuSans-48"/>
      </g>
     </g>
    </g>
    <g id="ytick_4">
     <g id="line2d_9">
      <path clip-path="url(#p615b12b0d2)" d="M 47.3 199.875663 
L 1141.2 199.875663 
" style="fill:none;stroke:#b0b0b0;stroke-linecap:square;stroke-width:0.8;"/>
     </g>
     <g id="line2d_10">
      <g>
       <use style="stroke:#000000;stroke-width:0.8;" x="47.3" xlink:href="#m7784dea867" y="199.875663"/>
      </g>
     </g>
     <g id="text_5">
      <!-- 1.5 -->
      <g transform="translate(24.396875 203.674882)scale(0.1 -0.1)">
       <use xlink:href="#DejaVuSans-49"/>
       <use x="63.623047" xlink:href="#DejaVuSans-46"/>
       <use x="95.410156" xlink:href="#DejaVuSans-53"/>
      </g>
     </g>
    </g>
    <g id="ytick_5">
     <g id="line2d_11">
      <path clip-path="url(#p615b12b0d2)" d="M 47.3 158.203402 
L 1141.2 158.203402 
" style="fill:none;stroke:#b0b0b0;stroke-linecap:square;stroke-width:0.8;"/>
     </g>
     <g id="line2d_12">
      <g>
       <use style="stroke:#000000;stroke-width:0.8;" x="47.3" xlink:href="#m7784dea867" y="158.203402"/>
      </g>
     </g>
     <g id="text_6">
      <!-- 2.0 -->
      <g transform="translate(24.396875 162.002621)scale(0.1 -0.1)">
       <use xlink:href="#DejaVuSans-50"/>
       <use x="63.623047" xlink:href="#DejaVuSans-46"/>
       <use x="95.410156" xlink:href="#DejaVuSans-48"/>
      </g>
     </g>
    </g>
    <g id="ytick_6">
     <g id="line2d_13">
      <path clip-path="url(#p615b12b0d2)" d="M 47.3 116.531142 
L 1141.2 116.531142 
" style="fill:none;stroke:#b0b0b0;stroke-linecap:square;stroke-width:0.8;"/>
     </g>
     <g id="line2d_14">
      <g>
       <use style="stroke:#000000;stroke-width:0.8;" x="47.3" xlink:href="#m7784dea867" y="116.531142"/>
      </g>
     </g>
     <g id="text_7">
      <!-- 2.5 -->
      <g transform="translate(24.396875 120.33036)scale(0.1 -0.1)">
       <use xlink:href="#DejaVuSans-50"/>
       <use x="63.623047" xlink:href="#DejaVuSans-46"/>
       <use x="95.410156" xlink:href="#DejaVuSans-53"/>
      </g>
     </g>
    </g>
    <g id="ytick_7">
     <g id="line2d_15">
      <path clip-path="url(#p615b12b0d2)" d="M 47.3 74.858881 
L 1141.2 74.858881 
" style="fill:none;stroke:#b0b0b0;stroke-linecap:square;stroke-width:0.8;"/>
     </g>
     <g id="line2d_16">
      <g>
       <use style="stroke:#000000;stroke-width:0.8;" x="47.3" xlink:href="#m7784dea867" y="74.858881"/>
      </g>
     </g>
     <g id="text_8">
      <!-- 3.0 -->
      <g transform="translate(24.396875 78.6581)scale(0.1 -0.1)">
       <defs>
        <path d="M 40.578125 39.3125 
Q 47.65625 37.796875 51.625 33 
Q 55.609375 28.21875 55.609375 21.1875 
Q 55.609375 10.40625 48.1875 4.484375 
Q 40.765625 -1.421875 27.09375 -1.421875 
Q 22.515625 -1.421875 17.65625 -0.515625 
Q 12.796875 0.390625 7.625 2.203125 
L 7.625 11.71875 
Q 11.71875 9.328125 16.59375 8.109375 
Q 21.484375 6.890625 26.8125 6.890625 
Q 36.078125 6.890625 40.9375 10.546875 
Q 45.796875 14.203125 45.796875 21.1875 
Q 45.796875 27.640625 41.28125 31.265625 
Q 36.765625 34.90625 28.71875 34.90625 
L 20.21875 34.90625 
L 20.21875 43.015625 
L 29.109375 43.015625 
Q 36.375 43.015625 40.234375 45.921875 
Q 44.09375 48.828125 44.09375 54.296875 
Q 44.09375 59.90625 40.109375 62.90625 
Q 36.140625 65.921875 28.71875 65.921875 
Q 24.65625 65.921875 20.015625 65.03125 
Q 15.375 64.15625 9.8125 62.3125 
L 9.8125 71.09375 
Q 15.4375 72.65625 20.34375 73.4375 
Q 25.25 74.21875 29.59375 74.21875 
Q 40.828125 74.21875 47.359375 69.109375 
Q 53.90625 64.015625 53.90625 55.328125 
Q 53.90625 49.265625 50.4375 45.09375 
Q 46.96875 40.921875 40.578125 39.3125 
z
" id="DejaVuSans-51"/>
       </defs>
       <use xlink:href="#DejaVuSans-51"/>
       <use x="63.623047" xlink:href="#DejaVuSans-46"/>
       <use x="95.410156" xlink:href="#DejaVuSans-48"/>
      </g>
     </g>
    </g>
    <g id="ytick_8">
     <g id="line2d_17">
      <path clip-path="url(#p615b12b0d2)" d="M 47.3 33.18662 
L 1141.2 33.18662 
" style="fill:none;stroke:#b0b0b0;stroke-linecap:square;stroke-width:0.8;"/>
     </g>
     <g id="line2d_18">
      <g>
       <use style="stroke:#000000;stroke-width:0.8;" x="47.3" xlink:href="#m7784dea867" y="33.18662"/>
      </g>
     </g>
     <g id="text_9">
      <!-- 3.5 -->
      <g transform="translate(24.396875 36.985839)scale(0.1 -0.1)">
       <use xlink:href="#DejaVuSans-51"/>
       <use x="63.623047" xlink:href="#DejaVuSans-46"/>
       <use x="95.410156" xlink:href="#DejaVuSans-53"/>
      </g>
     </g>
    </g>
    <g id="text_10">
     <!-- net value -->
     <g transform="translate(18.317187 201.992344)rotate(-90)scale(0.1 -0.1)">
      <defs>
       <path d="M 54.890625 33.015625 
L 54.890625 0 
L 45.90625 0 
L 45.90625 32.71875 
Q 45.90625 40.484375 42.875 44.328125 
Q 39.84375 48.1875 33.796875 48.1875 
Q 26.515625 48.1875 22.3125 43.546875 
Q 18.109375 38.921875 18.109375 30.90625 
L 18.109375 0 
L 9.078125 0 
L 9.078125 54.6875 
L 18.109375 54.6875 
L 18.109375 46.1875 
Q 21.34375 51.125 25.703125 53.5625 
Q 30.078125 56 35.796875 56 
Q 45.21875 56 50.046875 50.171875 
Q 54.890625 44.34375 54.890625 33.015625 
z
" id="DejaVuSans-110"/>
       <path d="M 56.203125 29.59375 
L 56.203125 25.203125 
L 14.890625 25.203125 
Q 15.484375 15.921875 20.484375 11.0625 
Q 25.484375 6.203125 34.421875 6.203125 
Q 39.59375 6.203125 44.453125 7.46875 
Q 49.3125 8.734375 54.109375 11.28125 
L 54.109375 2.78125 
Q 49.265625 0.734375 44.1875 -0.34375 
Q 39.109375 -1.421875 33.890625 -1.421875 
Q 20.796875 -1.421875 13.15625 6.1875 
Q 5.515625 13.8125 5.515625 26.8125 
Q 5.515625 40.234375 12.765625 48.109375 
Q 20.015625 56 32.328125 56 
Q 43.359375 56 49.78125 48.890625 
Q 56.203125 41.796875 56.203125 29.59375 
z
M 47.21875 32.234375 
Q 47.125 39.59375 43.09375 43.984375 
Q 39.0625 48.390625 32.421875 48.390625 
Q 24.90625 48.390625 20.390625 44.140625 
Q 15.875 39.890625 15.1875 32.171875 
z
" id="DejaVuSans-101"/>
       <path d="M 18.3125 70.21875 
L 18.3125 54.6875 
L 36.8125 54.6875 
L 36.8125 47.703125 
L 18.3125 47.703125 
L 18.3125 18.015625 
Q 18.3125 11.328125 20.140625 9.421875 
Q 21.96875 7.515625 27.59375 7.515625 
L 36.8125 7.515625 
L 36.8125 0 
L 27.59375 0 
Q 17.1875 0 13.234375 3.875 
Q 9.28125 7.765625 9.28125 18.015625 
L 9.28125 47.703125 
L 2.6875 47.703125 
L 2.6875 54.6875 
L 9.28125 54.6875 
L 9.28125 70.21875 
z
" id="DejaVuSans-116"/>
       <path id="DejaVuSans-32"/>
       <path d="M 2.984375 54.6875 
L 12.5 54.6875 
L 29.59375 8.796875 
L 46.6875 54.6875 
L 56.203125 54.6875 
L 35.6875 0 
L 23.484375 0 
z
" id="DejaVuSans-118"/>
       <path d="M 34.28125 27.484375 
Q 23.390625 27.484375 19.1875 25 
Q 14.984375 22.515625 14.984375 16.5 
Q 14.984375 11.71875 18.140625 8.90625 
Q 21.296875 6.109375 26.703125 6.109375 
Q 34.1875 6.109375 38.703125 11.40625 
Q 43.21875 16.703125 43.21875 25.484375 
L 43.21875 27.484375 
z
M 52.203125 31.203125 
L 52.203125 0 
L 43.21875 0 
L 43.21875 8.296875 
Q 40.140625 3.328125 35.546875 0.953125 
Q 30.953125 -1.421875 24.3125 -1.421875 
Q 15.921875 -1.421875 10.953125 3.296875 
Q 6 8.015625 6 15.921875 
Q 6 25.140625 12.171875 29.828125 
Q 18.359375 34.515625 30.609375 34.515625 
L 43.21875 34.515625 
L 43.21875 35.40625 
Q 43.21875 41.609375 39.140625 45 
Q 35.0625 48.390625 27.6875 48.390625 
Q 23 48.390625 18.546875 47.265625 
Q 14.109375 46.140625 10.015625 43.890625 
L 10.015625 52.203125 
Q 14.9375 54.109375 19.578125 55.046875 
Q 24.21875 56 28.609375 56 
Q 40.484375 56 46.34375 49.84375 
Q 52.203125 43.703125 52.203125 31.203125 
z
" id="DejaVuSans-97"/>
       <path d="M 9.421875 75.984375 
L 18.40625 75.984375 
L 18.40625 0 
L 9.421875 0 
z
" id="DejaVuSans-108"/>
       <path d="M 8.5 21.578125 
L 8.5 54.6875 
L 17.484375 54.6875 
L 17.484375 21.921875 
Q 17.484375 14.15625 20.5 10.265625 
Q 23.53125 6.390625 29.59375 6.390625 
Q 36.859375 6.390625 41.078125 11.03125 
Q 45.3125 15.671875 45.3125 23.6875 
L 45.3125 54.6875 
L 54.296875 54.6875 
L 54.296875 0 
L 45.3125 0 
L 45.3125 8.40625 
Q 42.046875 3.421875 37.71875 1 
Q 33.40625 -1.421875 27.6875 -1.421875 
Q 18.265625 -1.421875 13.375 4.4375 
Q 8.5 10.296875 8.5 21.578125 
z
M 31.109375 56 
z
" id="DejaVuSans-117"/>
      </defs>
      <use xlink:href="#DejaVuSans-110"/>
      <use x="63.378906" xlink:href="#DejaVuSans-101"/>
      <use x="124.902344" xlink:href="#DejaVuSans-116"/>
      <use x="164.111328" xlink:href="#DejaVuSans-32"/>
      <use x="195.898438" xlink:href="#DejaVuSans-118"/>
      <use x="255.078125" xlink:href="#DejaVuSans-97"/>
      <use x="316.357422" xlink:href="#DejaVuSans-108"/>
      <use x="344.140625" xlink:href="#DejaVuSans-117"/>
      <use x="407.519531" xlink:href="#DejaVuSans-101"/>
     </g>
    </g>
   </g>
   <g id="line2d_19">
    <path clip-path="url(#p615b12b0d2)" d="M 97.022727 237.279167 
L 100.652123 237.435162 
L 115.169708 242.679846 
L 118.799104 248.253903 
L 122.4285 248.328936 
L 126.057896 253.733542 
L 136.946085 254.030448 
L 140.575481 252.058776 
L 144.204877 248.727306 
L 147.834273 246.876675 
L 151.46367 246.103743 
L 162.351858 246.021005 
L 165.981254 241.379911 
L 169.61065 239.497112 
L 173.240046 236.494609 
L 176.869443 236.47338 
L 187.757631 240.387201 
L 191.387027 241.401473 
L 195.016423 241.537707 
L 198.64582 240.662607 
L 202.275216 246.753133 
L 216.7928 246.194762 
L 220.422196 242.205158 
L 224.051593 243.344751 
L 227.680989 245.781666 
L 238.569177 246.430509 
L 242.198573 252.499786 
L 245.827969 255.031684 
L 249.457366 255.243386 
L 253.086762 256.422484 
L 263.97495 254.183772 
L 267.604346 253.694664 
L 271.233743 253.499991 
L 274.863139 249.353711 
L 278.492535 256.532662 
L 289.380723 258.392319 
L 293.010119 260.161458 
L 296.639516 258.357124 
L 300.268912 256.172345 
L 303.898308 250.02919 
L 318.415893 243.179913 
L 322.045289 236.562236 
L 325.674685 233.465354 
L 329.304081 235.2894 
L 340.192269 239.195884 
L 343.821666 234.435635 
L 347.451062 242.60046 
L 351.080458 243.003484 
L 354.709854 242.196494 
L 365.598042 243.428216 
L 369.227439 239.491043 
L 372.856835 237.61382 
L 376.486231 239.17307 
L 380.115627 233.58323 
L 391.003816 234.576224 
L 394.633212 236.918589 
L 398.262608 233.760421 
L 401.892004 232.742558 
L 405.5214 232.651595 
L 416.409589 229.355296 
L 420.038985 228.944681 
L 423.668381 230.566954 
L 427.297777 232.392004 
L 430.927173 232.000416 
L 441.815362 235.752513 
L 445.444758 235.921204 
L 449.074154 234.570164 
L 452.70355 235.088213 
L 456.332946 242.917562 
L 467.221135 244.815719 
L 470.850531 241.415256 
L 474.479927 240.812148 
L 478.109323 243.073042 
L 481.738719 244.588545 
L 492.626908 239.22818 
L 496.256304 244.406862 
L 499.8857 241.527123 
L 503.515096 241.353917 
L 507.144492 241.435029 
L 518.032681 234.686935 
L 521.662077 227.37421 
L 525.291473 226.808469 
L 528.920869 226.735377 
L 532.550265 228.520661 
L 543.438454 233.685317 
L 550.697246 222.210961 
L 554.326642 218.322015 
L 557.956038 212.535553 
L 568.844227 212.160266 
L 572.473623 215.511928 
L 576.103019 217.827242 
L 579.732415 217.987189 
L 583.361812 213.561372 
L 594.25 212.404251 
L 597.879396 214.912703 
L 601.508792 206.399265 
L 605.138188 198.540324 
L 608.767585 204.863016 
L 619.655773 198.395099 
L 623.285169 202.654909 
L 626.914565 200.697391 
L 630.543962 204.851286 
L 634.173358 205.220019 
L 645.061546 208.760389 
L 648.690942 206.797393 
L 652.320338 210.207816 
L 655.949735 214.67466 
L 659.579131 220.128331 
L 670.467319 224.473326 
L 674.096715 224.201853 
L 677.726111 225.884608 
L 681.355508 222.409129 
L 684.984904 220.201914 
L 695.873092 221.252115 
L 699.502488 217.271147 
L 703.131885 215.262717 
L 706.761281 224.59787 
L 710.390677 229.461405 
L 721.278865 229.124941 
L 724.908261 230.724381 
L 728.537658 227.569423 
L 732.167054 233.580853 
L 735.79645 226.028449 
L 746.684638 219.56753 
L 750.314035 217.766786 
L 753.943431 224.337071 
L 757.572827 229.276057 
L 761.202223 228.318359 
L 772.090411 223.921587 
L 775.719808 219.886761 
L 779.349204 227.198809 
L 782.9786 232.870057 
L 786.607996 227.549387 
L 797.496184 223.79403 
L 801.125581 231.342904 
L 804.754977 229.07009 
L 808.384373 223.447786 
L 812.013769 219.311123 
L 822.901958 217.102212 
L 826.531354 211.556394 
L 830.16075 205.398068 
L 833.790146 208.645531 
L 837.419542 217.130334 
L 848.307731 210.997284 
L 851.937127 209.981441 
L 855.566523 205.485438 
L 859.195919 198.15859 
L 862.825315 195.655618 
L 873.713504 184.276258 
L 877.3429 185.614191 
L 880.972296 180.069484 
L 884.601692 179.629205 
L 888.231088 181.151713 
L 899.119277 174.27764 
L 902.748673 174.371147 
L 906.378069 162.824248 
L 910.007465 165.343128 
L 913.636861 167.392828 
L 924.52505 157.418024 
L 928.154446 163.312368 
L 935.413238 167.832728 
L 939.042634 165.497132 
L 949.930823 165.841802 
L 953.560219 166.599407 
L 957.189615 175.162645 
L 960.819011 187.521778 
L 964.448407 186.469498 
L 975.336596 186.525128 
L 978.965992 185.923636 
L 982.595388 180.737153 
L 986.224784 189.233515 
L 989.85418 187.678899 
L 1000.742369 184.932739 
L 1004.371765 176.579525 
L 1008.001161 182.737702 
L 1011.630557 181.366567 
L 1015.259954 185.825964 
L 1026.148142 184.717531 
L 1029.777538 185.088777 
L 1033.406934 184.902569 
L 1037.03633 187.606317 
L 1040.665727 189.917798 
L 1051.553915 178.974748 
L 1055.183311 187.080543 
L 1062.442104 194.850145 
L 1066.0715 193.014126 
L 1076.959688 201.541572 
L 1080.589084 205.011032 
L 1084.21848 208.246644 
L 1087.847877 202.215722 
L 1091.477273 201.500481 
L 1091.477273 201.500481 
" style="fill:none;stroke:#1f77b4;stroke-linecap:square;stroke-width:1.5;"/>
   </g>
   <g id="line2d_20">
    <path clip-path="url(#p615b12b0d2)" d="M 97.022727 238.281909 
L 100.652123 237.750623 
L 111.540312 236.031745 
L 115.169708 242.277297 
L 118.799104 237.474837 
L 122.4285 241.081727 
L 126.057896 242.34687 
L 136.946085 243.485587 
L 140.575481 240.813581 
L 144.204877 241.135196 
L 147.834273 243.399149 
L 151.46367 241.246842 
L 162.351858 242.279982 
L 165.981254 240.763769 
L 169.61065 247.136966 
L 173.240046 251.78218 
L 176.869443 256.197771 
L 187.757631 256.445615 
L 191.387027 257.460686 
L 195.016423 255.971033 
L 198.64582 259.519805 
L 202.275216 262.699585 
L 213.163404 258.413903 
L 216.7928 260.738222 
L 220.422196 254.792319 
L 224.051593 251.566314 
L 227.680989 255.478783 
L 238.569177 252.010587 
L 242.198573 249.961946 
L 245.827969 251.912691 
L 249.457366 249.83571 
L 253.086762 252.428925 
L 263.97495 249.625977 
L 267.604346 246.255165 
L 271.233743 245.514403 
L 274.863139 240.128684 
L 289.380723 236.442649 
L 293.010119 243.19343 
L 296.639516 243.633061 
L 300.268912 241.8138 
L 303.898308 236.466664 
L 314.786496 241.039689 
L 318.415893 241.152638 
L 322.045289 236.992526 
L 325.674685 242.585916 
L 329.304081 242.594445 
L 340.192269 236.121894 
L 343.821666 240.08639 
L 347.451062 240.625082 
L 351.080458 240.081016 
L 354.709854 240.37384 
L 365.598042 240.507348 
L 369.227439 236.72079 
L 372.856835 240.061028 
L 376.486231 244.473286 
L 380.115627 242.251244 
L 391.003816 243.222771 
L 394.633212 239.735365 
L 398.262608 238.883282 
L 401.892004 238.992516 
L 405.5214 243.31277 
L 416.409589 242.097333 
L 420.038985 238.908476 
L 423.668381 243.07429 
L 427.297777 242.510344 
L 430.927173 242.235651 
L 441.815362 247.966186 
L 445.444758 249.45971 
L 449.074154 249.042345 
L 452.70355 253.311299 
L 456.332946 256.808067 
L 467.221135 257.708591 
L 470.850531 256.575732 
L 474.479927 253.023781 
L 481.738719 259.746712 
L 492.626908 258.328699 
L 496.256304 256.51723 
L 499.8857 256.392161 
L 503.515096 252.782257 
L 507.144492 252.012119 
L 518.032681 252.832303 
L 521.662077 249.840383 
L 525.291473 251.615969 
L 528.920869 248.880559 
L 532.550265 247.973366 
L 543.438454 253.859558 
L 547.06785 251.763669 
L 550.697246 253.944107 
L 554.326642 256.33266 
L 557.956038 256.13064 
L 568.844227 254.890941 
L 572.473623 253.480363 
L 576.103019 251.742661 
L 579.732415 248.713671 
L 583.361812 250.667133 
L 594.25 246.610304 
L 597.879396 248.377992 
L 601.508792 248.548611 
L 605.138188 251.196956 
L 608.767585 248.254134 
L 619.655773 249.605391 
L 623.285169 250.282387 
L 626.914565 251.771515 
L 630.543962 249.442521 
L 634.173358 251.13226 
L 645.061546 245.46375 
L 648.690942 245.622222 
L 652.320338 238.965919 
L 655.949735 234.494989 
L 659.579131 237.870905 
L 670.467319 231.062569 
L 674.096715 227.41001 
L 677.726111 225.033589 
L 681.355508 217.122212 
L 684.984904 216.603707 
L 695.873092 216.633064 
L 699.502488 216.877911 
L 703.131885 210.952673 
L 706.761281 214.725766 
L 710.390677 206.163331 
L 721.278865 202.695693 
L 728.537658 188.050705 
L 732.167054 195.824368 
L 735.79645 203.303092 
L 746.684638 199.671842 
L 750.314035 189.452126 
L 753.943431 178.895659 
L 757.572827 172.558434 
L 761.202223 170.193365 
L 772.090411 175.517548 
L 775.719808 164.312156 
L 782.9786 162.837621 
L 786.607996 149.014062 
L 797.496184 139.735797 
L 801.125581 140.752911 
L 804.754977 135.513873 
L 808.384373 137.366359 
L 812.013769 148.826573 
L 822.901958 150.363029 
L 826.531354 142.562577 
L 830.16075 154.637815 
L 833.790146 159.656692 
L 837.419542 159.430296 
L 848.307731 152.421915 
L 851.937127 140.533029 
L 855.566523 128.018851 
L 859.195919 125.837574 
L 862.825315 135.944852 
L 873.713504 144.599494 
L 877.3429 150.656443 
L 880.972296 155.150283 
L 884.601692 145.216229 
L 888.231088 138.603045 
L 902.748673 129.860423 
L 906.378069 118.597192 
L 910.007465 119.062129 
L 913.636861 103.411773 
L 924.52505 109.916845 
L 928.154446 115.017646 
L 931.783842 114.06053 
L 935.413238 114.984016 
L 939.042634 117.93531 
L 949.930823 125.839632 
L 953.560219 135.779687 
L 957.189615 131.53502 
L 960.819011 125.360794 
L 964.448407 123.714888 
L 975.336596 130.43895 
L 978.965992 131.877381 
L 982.595388 141.412959 
L 989.85418 120.899037 
L 1000.742369 119.639221 
L 1004.371765 110.802487 
L 1008.001161 104.215979 
L 1011.630557 100.728804 
L 1015.259954 85.842126 
L 1026.148142 77.917259 
L 1029.777538 70.445672 
L 1033.406934 81.282841 
L 1037.03633 76.619882 
L 1040.665727 80.516593 
L 1051.553915 70.597364 
L 1055.183311 87.454947 
L 1058.812707 65.82544 
L 1062.442104 87.508962 
L 1066.0715 74.273831 
L 1076.959688 77.290982 
L 1080.589084 74.444654 
L 1084.21848 79.15281 
L 1087.847877 77.888232 
L 1091.477273 72.380748 
L 1091.477273 72.380748 
" style="fill:none;stroke:#ff7f0e;stroke-linecap:square;stroke-width:1.5;"/>
   </g>
   <g id="line2d_21">
    <path clip-path="url(#p615b12b0d2)" d="M 97.022727 242.535643 
L 100.652123 246.110272 
L 111.540312 246.847674 
L 115.169708 253.032906 
L 118.799104 255.987427 
L 122.4285 260.401965 
L 126.057896 261.887153 
L 136.946085 260.952096 
L 140.575481 261.72763 
L 144.204877 261.630786 
L 147.834273 260.191418 
L 151.46367 255.496216 
L 162.351858 255.660796 
L 165.981254 254.166906 
L 169.61065 254.291246 
L 173.240046 252.851858 
L 176.869443 252.89575 
L 187.757631 256.651274 
L 191.387027 256.843843 
L 195.016423 256.243938 
L 202.275216 260.180025 
L 213.163404 260.978423 
L 216.7928 260.787811 
L 220.422196 256.040348 
L 224.051593 255.098012 
L 227.680989 254.49423 
L 238.569177 260.586994 
L 242.198573 258.4781 
L 245.827969 263.878535 
L 249.457366 262.955879 
L 253.086762 262.295598 
L 263.97495 265.29063 
L 267.604346 263.48464 
L 271.233743 260.106285 
L 274.863139 262.589941 
L 278.492535 264.383781 
L 289.380723 265.3083 
L 293.010119 268.640055 
L 296.639516 269.206182 
L 300.268912 271.831956 
L 303.898308 269.995866 
L 314.786496 271.153825 
L 318.415893 273.613572 
L 322.045289 271.460951 
L 325.674685 271.318421 
L 329.304081 271.813553 
L 340.192269 274.882971 
L 343.821666 274.621789 
L 347.451062 274.861345 
L 351.080458 275.262839 
L 354.709854 272.975533 
L 365.598042 273.337633 
L 369.227439 269.238552 
L 372.856835 267.705625 
L 376.486231 269.098653 
L 380.115627 270.031313 
L 391.003816 272.410085 
L 394.633212 273.690757 
L 398.262608 270.237336 
L 401.892004 270.892718 
L 405.5214 270.692394 
L 416.409589 273.007318 
L 420.038985 271.960053 
L 423.668381 270.058034 
L 427.297777 271.896431 
L 430.927173 275.159805 
L 441.815362 278.485978 
L 445.444758 278.077989 
L 449.074154 273.796523 
L 452.70355 275.626983 
L 456.332946 276.128504 
L 467.221135 278.237005 
L 470.850531 276.925385 
L 474.479927 278.556238 
L 478.109323 282.196263 
L 481.738719 281.26522 
L 492.626908 280.999217 
L 496.256304 282.352902 
L 499.8857 282.278526 
L 503.515096 285.836743 
L 507.144492 286.128237 
L 518.032681 287.586414 
L 521.662077 286.668558 
L 525.291473 285.338182 
L 528.920869 285.236103 
L 532.550265 284.962252 
L 543.438454 284.977637 
L 547.06785 287.37564 
L 550.697246 288.260546 
L 554.326642 285.93844 
L 557.956038 286.985482 
L 568.844227 287.487061 
L 572.473623 287.313768 
L 576.103019 287.970808 
L 579.732415 285.178498 
L 583.361812 285.374751 
L 594.25 286.404458 
L 597.879396 288.901749 
L 601.508792 289.88698 
L 605.138188 292.220457 
L 608.767585 290.569311 
L 619.655773 291.239517 
L 623.285169 288.983207 
L 626.914565 290.95625 
L 630.543962 291.104923 
L 634.173358 290.877511 
L 645.061546 291.237318 
L 648.690942 292.999048 
L 652.320338 292.252249 
L 655.949735 292.415821 
L 659.579131 291.724869 
L 670.467319 290.284609 
L 677.726111 291.26919 
L 681.355508 291.211999 
L 684.984904 290.544561 
L 695.873092 288.128222 
L 699.502488 291.071616 
L 703.131885 288.718827 
L 706.761281 289.589428 
L 710.390677 289.302175 
L 721.278865 288.593499 
L 724.908261 288.167745 
L 728.537658 288.892115 
L 732.167054 288.871515 
L 735.79645 291.835557 
L 746.684638 291.717628 
L 750.314035 288.89892 
L 753.943431 292.130235 
L 757.572827 292.364176 
L 761.202223 291.627711 
L 772.090411 293.4687 
L 775.719808 293.326665 
L 779.349204 292.466779 
L 782.9786 292.497905 
L 786.607996 290.066861 
L 797.496184 290.285074 
L 801.125581 292.561664 
L 804.754977 292.40802 
L 808.384373 291.656693 
L 812.013769 289.606216 
L 822.901958 288.12725 
L 826.531354 289.39501 
L 830.16075 290.164442 
L 833.790146 287.503343 
L 837.419542 289.408251 
L 848.307731 288.633955 
L 851.937127 287.898069 
L 855.566523 288.975962 
L 859.195919 287.548424 
L 873.713504 286.579283 
L 880.972296 286.660752 
L 884.601692 288.104287 
L 888.231088 287.785067 
L 899.119277 290.362592 
L 902.748673 291.594474 
L 906.378069 289.753203 
L 910.007465 289.278445 
L 913.636861 290.953016 
L 924.52505 293.011818 
L 928.154446 292.528607 
L 931.783842 291.857121 
L 935.413238 291.701418 
L 939.042634 292.664277 
L 949.930823 292.660647 
L 953.560219 292.374537 
L 957.189615 294.446766 
L 960.819011 294.020161 
L 964.448407 296.344744 
L 975.336596 296.022276 
L 978.965992 294.074906 
L 982.595388 294.721666 
L 986.224784 295.96507 
L 989.85418 294.804684 
L 1000.742369 293.254699 
L 1004.371765 293.344565 
L 1008.001161 292.16542 
L 1011.630557 292.353308 
L 1015.259954 292.966173 
L 1026.148142 293.614708 
L 1029.777538 293.380706 
L 1033.406934 294.424799 
L 1037.03633 294.483643 
L 1040.665727 292.901948 
L 1055.183311 292.240893 
L 1058.812707 293.73944 
L 1062.442104 292.862861 
L 1066.0715 293.011194 
L 1076.959688 290.739659 
L 1084.21848 292.620235 
L 1087.847877 291.64933 
L 1091.477273 292.202722 
L 1091.477273 292.202722 
" style="fill:none;stroke:#2ca02c;stroke-linecap:square;stroke-width:1.5;"/>
   </g>
   <g id="line2d_22">
    <path clip-path="url(#p615b12b0d2)" d="M 97.022727 244.043175 
L 100.652123 249.940255 
L 111.540312 252.10835 
L 115.169708 250.60412 
L 118.799104 248.576782 
L 122.4285 246.689653 
L 126.057896 247.877358 
L 136.946085 246.252789 
L 140.575481 241.060947 
L 144.204877 244.199713 
L 147.834273 244.209931 
L 151.46367 240.836354 
L 162.351858 246.944977 
L 165.981254 241.6995 
L 169.61065 245.481882 
L 176.869443 247.236163 
L 187.757631 245.559005 
L 191.387027 243.546623 
L 195.016423 240.143568 
L 198.64582 243.211499 
L 202.275216 238.468162 
L 213.163404 237.422964 
L 216.7928 241.778444 
L 220.422196 234.831292 
L 224.051593 239.864259 
L 227.680989 233.206957 
L 238.569177 236.512445 
L 242.198573 236.756273 
L 245.827969 237.128705 
L 249.457366 243.011772 
L 253.086762 245.338088 
L 263.97495 248.746675 
L 267.604346 245.592773 
L 271.233743 245.304029 
L 274.863139 239.538902 
L 278.492535 236.269734 
L 289.380723 243.956074 
L 293.010119 249.449507 
L 296.639516 249.036729 
L 300.268912 250.548146 
L 303.898308 253.662084 
L 314.786496 257.918366 
L 318.415893 260.284339 
L 322.045289 255.820083 
L 325.674685 257.897506 
L 329.304081 255.537909 
L 340.192269 257.066185 
L 343.821666 258.523484 
L 347.451062 257.972516 
L 351.080458 258.608121 
L 354.709854 260.508134 
L 365.598042 261.893413 
L 369.227439 261.252412 
L 372.856835 261.327656 
L 376.486231 261.525905 
L 380.115627 259.609647 
L 391.003816 264.585071 
L 394.633212 263.784687 
L 398.262608 266.84265 
L 401.892004 264.572773 
L 405.5214 260.541243 
L 416.409589 265.045235 
L 420.038985 266.870824 
L 423.668381 268.052233 
L 427.297777 268.465171 
L 430.927173 266.933674 
L 441.815362 267.386442 
L 445.444758 267.75692 
L 449.074154 264.061891 
L 452.70355 264.838336 
L 456.332946 261.333589 
L 467.221135 262.104036 
L 470.850531 259.363462 
L 474.479927 258.264895 
L 478.109323 258.43535 
L 481.738719 257.219455 
L 492.626908 257.257848 
L 496.256304 253.90273 
L 499.8857 259.519442 
L 503.515096 258.963141 
L 507.144492 256.619838 
L 518.032681 258.672721 
L 521.662077 259.618805 
L 525.291473 262.602693 
L 528.920869 261.88385 
L 532.550265 259.145278 
L 543.438454 258.189891 
L 547.06785 260.438054 
L 550.697246 259.974168 
L 554.326642 263.550372 
L 557.956038 267.428746 
L 568.844227 269.165738 
L 572.473623 270.881693 
L 576.103019 269.92944 
L 579.732415 266.196924 
L 583.361812 270.145702 
L 594.25 272.718004 
L 597.879396 272.716677 
L 601.508792 273.629905 
L 605.138188 275.657978 
L 608.767585 276.797639 
L 619.655773 278.993638 
L 623.285169 283.149105 
L 626.914565 283.250295 
L 630.543962 280.60342 
L 634.173358 282.052928 
L 645.061546 283.045247 
L 648.690942 283.548165 
L 652.320338 283.099512 
L 655.949735 283.779477 
L 659.579131 285.856647 
L 670.467319 288.454237 
L 674.096715 288.793075 
L 677.726111 287.449247 
L 681.355508 285.849907 
L 684.984904 287.490033 
L 699.502488 285.455054 
L 703.131885 286.627205 
L 706.761281 288.42724 
L 710.390677 289.319104 
L 721.278865 288.666157 
L 724.908261 285.525384 
L 728.537658 286.376636 
L 732.167054 286.359887 
L 735.79645 285.481659 
L 746.684638 286.547249 
L 750.314035 287.489536 
L 753.943431 284.556085 
L 757.572827 285.108555 
L 761.202223 284.638286 
L 772.090411 283.969297 
L 775.719808 284.662922 
L 779.349204 284.295093 
L 782.9786 285.382967 
L 786.607996 285.637701 
L 797.496184 287.663684 
L 801.125581 288.533687 
L 804.754977 290.871852 
L 808.384373 291.67567 
L 812.013769 292.052021 
L 826.531354 290.12635 
L 830.16075 290.16476 
L 833.790146 292.424497 
L 837.419542 292.906693 
L 848.307731 290.875376 
L 851.937127 292.0769 
L 855.566523 290.923311 
L 859.195919 288.545018 
L 862.825315 286.493769 
L 873.713504 286.270624 
L 877.3429 289.703905 
L 880.972296 290.947519 
L 884.601692 289.286802 
L 888.231088 291.794821 
L 899.119277 291.920243 
L 902.748673 291.697467 
L 906.378069 292.18497 
L 913.636861 292.682855 
L 924.52505 292.038648 
L 928.154446 292.068624 
L 931.783842 293.38565 
L 935.413238 293.822786 
L 939.042634 293.535404 
L 949.930823 293.750556 
L 953.560219 294.967679 
L 957.189615 292.767999 
L 960.819011 295.549233 
L 964.448407 295.932962 
L 975.336596 295.931641 
L 978.965992 294.329843 
L 982.595388 296.318329 
L 986.224784 296.169959 
L 989.85418 294.991475 
L 1000.742369 297.018822 
L 1004.371765 296.482263 
L 1008.001161 294.610314 
L 1011.630557 294.867571 
L 1015.259954 294.057791 
L 1026.148142 295.804594 
L 1029.777538 297.156541 
L 1033.406934 297.393564 
L 1037.03633 299.62547 
L 1040.665727 299.207072 
L 1051.553915 297.736547 
L 1055.183311 297.520826 
L 1058.812707 297.789807 
L 1062.442104 300.066332 
L 1066.0715 302.073971 
L 1076.959688 301.49288 
L 1080.589084 301.187435 
L 1087.847877 300.788297 
L 1091.477273 300.134136 
L 1091.477273 300.134136 
" style="fill:none;stroke:#d62728;stroke-linecap:square;stroke-width:1.5;"/>
   </g>
   <g id="line2d_23">
    <path clip-path="url(#p615b12b0d2)" d="M 97.022727 240.97913 
L 100.652123 240.726167 
L 115.169708 243.665052 
L 118.799104 244.818552 
L 122.4285 242.744049 
L 126.057896 242.859226 
L 136.946085 237.686494 
L 140.575481 234.267926 
L 144.204877 233.653082 
L 147.834273 235.902228 
L 151.46367 232.985233 
L 162.351858 228.539813 
L 165.981254 236.408511 
L 169.61065 237.952231 
L 173.240046 233.867373 
L 176.869443 236.945557 
L 187.757631 236.873973 
L 191.387027 236.183946 
L 195.016423 231.02312 
L 198.64582 236.65685 
L 202.275216 236.184987 
L 213.163404 232.140706 
L 216.7928 232.589192 
L 220.422196 236.559519 
L 224.051593 236.86771 
L 227.680989 235.901025 
L 238.569177 240.656435 
L 242.198573 242.664193 
L 245.827969 242.788522 
L 249.457366 242.475559 
L 253.086762 242.442216 
L 267.604346 244.875135 
L 271.233743 245.536738 
L 274.863139 245.741592 
L 278.492535 251.694169 
L 289.380723 245.2923 
L 293.010119 250.203659 
L 296.639516 245.625102 
L 300.268912 246.901735 
L 303.898308 247.284236 
L 314.786496 240.822011 
L 318.415893 244.007063 
L 322.045289 241.308947 
L 325.674685 241.128372 
L 329.304081 244.927271 
L 340.192269 242.723707 
L 343.821666 239.745239 
L 347.451062 241.223584 
L 351.080458 244.180908 
L 354.709854 244.710722 
L 365.598042 242.843483 
L 369.227439 239.038637 
L 372.856835 238.451884 
L 376.486231 244.296256 
L 380.115627 242.129638 
L 391.003816 240.822026 
L 394.633212 241.423093 
L 398.262608 235.55647 
L 401.892004 242.882409 
L 405.5214 236.452966 
L 416.409589 235.995709 
L 420.038985 240.288286 
L 423.668381 238.021327 
L 427.297777 236.782303 
L 430.927173 240.622962 
L 441.815362 247.528458 
L 445.444758 250.728595 
L 449.074154 251.415908 
L 452.70355 252.400678 
L 456.332946 246.251299 
L 467.221135 243.870537 
L 470.850531 237.879327 
L 474.479927 240.754662 
L 478.109323 241.21516 
L 481.738719 240.547192 
L 492.626908 240.402863 
L 496.256304 244.882062 
L 499.8857 248.472687 
L 503.515096 244.25183 
L 507.144492 248.079679 
L 518.032681 247.340173 
L 521.662077 251.315251 
L 525.291473 248.139441 
L 528.920869 244.250164 
L 532.550265 244.776116 
L 543.438454 243.734593 
L 547.06785 241.561314 
L 550.697246 236.907428 
L 554.326642 244.450761 
L 557.956038 246.264222 
L 568.844227 245.193489 
L 572.473623 248.616831 
L 576.103019 246.777628 
L 579.732415 244.566078 
L 583.361812 245.934097 
L 594.25 249.725664 
L 597.879396 249.432338 
L 601.508792 245.138354 
L 605.138188 241.658027 
L 608.767585 241.289513 
L 619.655773 243.464304 
L 623.285169 248.154997 
L 626.914565 246.466826 
L 630.543962 243.60228 
L 634.173358 238.400336 
L 645.061546 234.523054 
L 648.690942 237.899402 
L 652.320338 233.419465 
L 655.949735 230.798182 
L 659.579131 231.692599 
L 670.467319 234.874777 
L 674.096715 235.677703 
L 681.355508 237.986846 
L 684.984904 241.064515 
L 695.873092 238.962843 
L 699.502488 240.557362 
L 703.131885 239.61886 
L 706.761281 245.567755 
L 710.390677 243.638488 
L 721.278865 239.48836 
L 724.908261 236.742908 
L 728.537658 234.7722 
L 732.167054 238.596516 
L 735.79645 233.35539 
L 746.684638 227.290409 
L 750.314035 228.468405 
L 753.943431 232.04553 
L 757.572827 228.490483 
L 761.202223 228.864058 
L 772.090411 232.71303 
L 775.719808 230.351037 
L 779.349204 233.972642 
L 782.9786 231.083225 
L 786.607996 233.669777 
L 797.496184 238.095377 
L 801.125581 239.190382 
L 804.754977 243.89787 
L 808.384373 245.050744 
L 812.013769 246.359439 
L 822.901958 243.853411 
L 826.531354 236.676876 
L 830.16075 233.669071 
L 833.790146 229.21702 
L 837.419542 226.731176 
L 848.307731 229.98407 
L 851.937127 233.754244 
L 855.566523 229.77209 
L 859.195919 237.582223 
L 862.825315 240.752705 
L 877.3429 233.444642 
L 880.972296 236.811736 
L 884.601692 229.451902 
L 888.231088 224.094229 
L 899.119277 214.923378 
L 902.748673 217.007781 
L 906.378069 218.919542 
L 910.007465 226.253933 
L 913.636861 226.40913 
L 924.52505 224.860827 
L 928.154446 226.687368 
L 931.783842 220.576303 
L 935.413238 215.096408 
L 939.042634 214.919472 
L 949.930823 206.667483 
L 953.560219 208.455194 
L 957.189615 216.223418 
L 960.819011 218.234588 
L 964.448407 213.586287 
L 975.336596 207.044477 
L 978.965992 213.656993 
L 982.595388 209.415222 
L 986.224784 205.771635 
L 989.85418 207.320146 
L 1000.742369 216.232896 
L 1004.371765 209.942268 
L 1008.001161 211.137924 
L 1011.630557 209.277758 
L 1015.259954 210.746019 
L 1026.148142 213.834764 
L 1029.777538 209.407804 
L 1033.406934 211.690176 
L 1037.03633 209.830618 
L 1040.665727 202.163226 
L 1051.553915 202.526872 
L 1055.183311 207.768263 
L 1058.812707 212.628907 
L 1062.442104 209.62949 
L 1066.0715 210.898866 
L 1076.959688 204.958441 
L 1080.589084 206.085259 
L 1084.21848 211.592997 
L 1087.847877 211.254226 
L 1091.477273 212.358189 
L 1091.477273 212.358189 
" style="fill:none;stroke:#9467bd;stroke-linecap:square;stroke-width:1.5;"/>
   </g>
   <g id="line2d_24">
    <path clip-path="url(#p615b12b0d2)" d="M 97.022727 239.903395 
L 100.652123 245.750325 
L 111.540312 251.195389 
L 115.169708 257.708977 
L 118.799104 252.78878 
L 122.4285 251.330627 
L 126.057896 248.269388 
L 136.946085 255.616244 
L 140.575481 249.105531 
L 144.204877 244.06657 
L 147.834273 248.716659 
L 151.46367 253.564105 
L 162.351858 258.080552 
L 165.981254 260.696341 
L 169.61065 260.378488 
L 173.240046 261.256587 
L 176.869443 263.913649 
L 187.757631 262.549518 
L 191.387027 267.04452 
L 195.016423 269.44932 
L 198.64582 270.931184 
L 202.275216 271.405287 
L 213.163404 268.354637 
L 216.7928 271.750594 
L 220.422196 271.599305 
L 224.051593 270.614293 
L 227.680989 275.53786 
L 238.569177 274.476293 
L 242.198573 277.798474 
L 245.827969 281.895164 
L 249.457366 278.034992 
L 253.086762 273.671326 
L 263.97495 270.512035 
L 267.604346 272.637071 
L 271.233743 276.84183 
L 274.863139 275.071328 
L 278.492535 275.667662 
L 289.380723 279.388679 
L 293.010119 279.432573 
L 296.639516 283.665901 
L 300.268912 280.290928 
L 303.898308 282.442683 
L 314.786496 281.062877 
L 318.415893 282.713401 
L 322.045289 282.544111 
L 325.674685 282.148491 
L 329.304081 284.842604 
L 340.192269 281.081246 
L 343.821666 278.670467 
L 351.080458 270.636795 
L 354.709854 269.57447 
L 365.598042 264.907024 
L 369.227439 269.843914 
L 372.856835 273.191054 
L 376.486231 277.89353 
L 380.115627 279.535387 
L 391.003816 280.545241 
L 394.633212 282.573247 
L 398.262608 279.790866 
L 401.892004 281.082996 
L 405.5214 283.002424 
L 416.409589 282.644716 
L 420.038985 285.678743 
L 423.668381 283.30869 
L 427.297777 286.847047 
L 430.927173 283.142285 
L 441.815362 280.869033 
L 445.444758 283.521746 
L 449.074154 287.613125 
L 452.70355 285.261087 
L 456.332946 283.62148 
L 467.221135 281.73121 
L 470.850531 279.389538 
L 474.479927 283.265979 
L 478.109323 284.444293 
L 481.738719 287.551771 
L 496.256304 283.852389 
L 499.8857 285.24038 
L 503.515096 288.701542 
L 507.144492 290.069686 
L 518.032681 291.287206 
L 521.662077 289.744012 
L 525.291473 288.777026 
L 528.920869 285.980156 
L 532.550265 286.196392 
L 543.438454 289.140432 
L 547.06785 287.615646 
L 550.697246 285.6714 
L 554.326642 285.190729 
L 557.956038 283.039156 
L 568.844227 283.091091 
L 572.473623 282.901039 
L 576.103019 283.50957 
L 579.732415 287.437474 
L 583.361812 290.374757 
L 594.25 293.609553 
L 597.879396 292.756091 
L 601.508792 293.949275 
L 605.138188 293.896234 
L 608.767585 291.369631 
L 623.285169 293.621233 
L 626.914565 292.022954 
L 630.543962 293.805808 
L 634.173358 296.435862 
L 645.061546 297.632453 
L 648.690942 299.479474 
L 652.320338 297.295495 
L 655.949735 295.594859 
L 670.467319 292.578525 
L 674.096715 290.615958 
L 677.726111 292.764613 
L 681.355508 290.242199 
L 684.984904 289.969555 
L 695.873092 287.822216 
L 699.502488 284.885577 
L 703.131885 286.341799 
L 706.761281 289.348349 
L 710.390677 291.282409 
L 721.278865 291.772391 
L 724.908261 289.665857 
L 728.537658 287.124396 
L 732.167054 290.848687 
L 735.79645 290.775511 
L 746.684638 291.339048 
L 750.314035 293.203893 
L 753.943431 295.613077 
L 757.572827 296.563982 
L 761.202223 294.054591 
L 772.090411 295.145 
L 775.719808 295.033205 
L 779.349204 293.820807 
L 782.9786 294.668257 
L 786.607996 291.816411 
L 797.496184 288.757227 
L 801.125581 290.551107 
L 804.754977 290.570005 
L 812.013769 293.355014 
L 822.901958 296.276093 
L 826.531354 295.649027 
L 830.16075 295.633358 
L 833.790146 298.258023 
L 837.419542 299.437148 
L 848.307731 297.358642 
L 851.937127 298.792812 
L 855.566523 300.646435 
L 859.195919 300.69758 
L 862.825315 298.347531 
L 873.713504 299.716955 
L 877.3429 298.850236 
L 880.972296 297.487605 
L 884.601692 298.925605 
L 888.231088 297.740394 
L 899.119277 298.458386 
L 906.378069 297.034283 
L 910.007465 296.83496 
L 913.636861 299.134047 
L 924.52505 297.406676 
L 928.154446 298.391876 
L 931.783842 300.053364 
L 935.413238 302.334708 
L 939.042634 301.924641 
L 949.930823 301.108988 
L 953.560219 303.40843 
L 957.189615 303.356469 
L 960.819011 304.534505 
L 964.448407 303.943421 
L 975.336596 305.307762 
L 978.965992 304.559871 
L 982.595388 305.020464 
L 986.224784 303.284726 
L 989.85418 304.851195 
L 1000.742369 305.488241 
L 1004.371765 306.988288 
L 1011.630557 304.001575 
L 1015.259954 305.012937 
L 1026.148142 304.376856 
L 1029.777538 303.075256 
L 1037.03633 302.703584 
L 1040.665727 303.849185 
L 1051.553915 305.561674 
L 1055.183311 304.025977 
L 1058.812707 302.354914 
L 1062.442104 301.754959 
L 1066.0715 302.499848 
L 1076.959688 303.175166 
L 1080.589084 302.193737 
L 1087.847877 298.494121 
L 1091.477273 297.016472 
L 1091.477273 297.016472 
" style="fill:none;stroke:#8c564b;stroke-linecap:square;stroke-width:1.5;"/>
   </g>
   <g id="line2d_25">
    <path clip-path="url(#p615b12b0d2)" d="M 97.022727 242.623659 
L 100.652123 236.715868 
L 111.540312 233.016708 
L 115.169708 225.658156 
L 118.799104 234.334815 
L 122.4285 233.820054 
L 126.057896 237.737677 
L 136.946085 223.885328 
L 144.204877 235.118758 
L 147.834273 232.166898 
L 151.46367 223.226873 
L 162.351858 211.872083 
L 165.981254 216.677039 
L 169.61065 219.100807 
L 173.240046 212.690291 
L 176.869443 211.799709 
L 187.757631 214.237609 
L 191.387027 205.391772 
L 195.016423 193.471768 
L 198.64582 197.846644 
L 202.275216 196.051009 
L 213.163404 197.525467 
L 216.7928 190.491 
L 220.422196 196.654762 
L 224.051593 199.472386 
L 227.680989 186.718183 
L 238.569177 197.073749 
L 242.198573 191.697661 
L 245.827969 180.31248 
L 253.086762 204.994636 
L 263.97495 214.936343 
L 267.604346 211.568522 
L 271.233743 203.386838 
L 274.863139 208.177568 
L 278.492535 215.558147 
L 289.380723 197.731009 
L 293.010119 205.454256 
L 296.639516 187.010122 
L 300.268912 200.518383 
L 303.898308 195.128065 
L 314.786496 188.540858 
L 318.415893 188.571911 
L 322.045289 184.571766 
L 325.674685 185.579499 
L 329.304081 183.116899 
L 340.192269 192.525178 
L 343.821666 195.01082 
L 351.080458 221.966511 
L 354.709854 224.657436 
L 365.598042 230.780519 
L 369.227439 218.670725 
L 372.856835 211.486127 
L 376.486231 208.838872 
L 380.115627 201.664868 
L 391.003816 196.974326 
L 394.633212 192.039165 
L 398.262608 191.436377 
L 401.892004 198.556928 
L 405.5214 183.117294 
L 416.409589 183.594925 
L 420.038985 180.270488 
L 423.668381 185.136223 
L 427.297777 171.251071 
L 430.927173 192.909385 
L 441.815362 210.911129 
L 445.444758 208.757774 
L 449.074154 198.348846 
L 452.70355 208.028772 
L 456.332946 202.950206 
L 467.221135 204.843687 
L 470.850531 202.479748 
L 474.479927 196.096389 
L 478.109323 193.155496 
L 481.738719 181.983037 
L 492.626908 192.116674 
L 496.256304 202.429956 
L 499.8857 203.783974 
L 503.515096 186.52349 
L 507.144492 187.860752 
L 518.032681 181.75041 
L 521.662077 195.660667 
L 525.291473 193.637999 
L 528.920869 197.151668 
L 532.550265 197.274941 
L 543.438454 185.906611 
L 547.06785 188.11239 
L 550.697246 187.607521 
L 554.326642 201.060034 
L 557.956038 210.56259 
L 568.844227 208.863815 
L 572.473623 214.375172 
L 576.103019 210.108719 
L 579.732415 195.964186 
L 583.361812 188.049156 
L 594.25 181.796194 
L 597.879396 185.141748 
L 601.508792 172.000595 
L 605.138188 165.590744 
L 608.767585 177.870653 
L 619.655773 174.323279 
L 623.285169 180.298149 
L 626.914565 184.507422 
L 630.543962 171.765233 
L 634.173358 149.011094 
L 645.061546 133.730897 
L 648.690942 127.920712 
L 652.320338 134.704791 
L 655.949735 140.974841 
L 659.579131 147.630137 
L 670.467319 166.851704 
L 674.096715 177.859884 
L 677.726111 170.468844 
L 681.355508 184.698384 
L 684.984904 190.766316 
L 695.873092 195.650756 
L 699.502488 208.28728 
L 703.131885 202.745322 
L 706.761281 201.740399 
L 710.390677 192.044131 
L 721.278865 183.322049 
L 724.908261 187.775335 
L 728.537658 194.602355 
L 732.167054 187.283456 
L 735.79645 179.22165 
L 746.684638 167.163764 
L 750.314035 160.301136 
L 753.943431 153.89375 
L 757.572827 141.792804 
L 761.202223 158.721669 
L 772.090411 159.50636 
L 775.719808 155.890071 
L 779.349204 169.226195 
L 782.9786 160.033493 
L 786.607996 180.134561 
L 797.496184 200.545962 
L 801.125581 195.941678 
L 804.754977 202.953792 
L 808.384373 199.833336 
L 812.013769 196.501664 
L 822.901958 180.51276 
L 826.531354 170.89077 
L 830.16075 165.722432 
L 833.790146 143.676098 
L 837.419542 130.945148 
L 848.307731 153.208638 
L 851.937127 151.086065 
L 855.566523 131.147936 
L 859.195919 146.647197 
L 862.825315 170.432765 
L 873.713504 152.390707 
L 877.3429 154.825438 
L 880.972296 169.985851 
L 884.601692 148.913856 
L 888.231088 147.067318 
L 899.119277 126.186089 
L 902.748673 135.210459 
L 906.378069 143.637338 
L 910.007465 157.478884 
L 913.636861 144.024082 
L 924.52505 153.309687 
L 928.154446 150.292515 
L 931.783842 128.480815 
L 935.413238 100.123574 
L 939.042634 103.847341 
L 949.930823 95.110834 
L 953.560219 76.369576 
L 957.189615 93.551101 
L 960.819011 85.178036 
L 964.448407 81.690945 
L 975.336596 51.558318 
L 978.965992 77.33321 
L 982.595388 62.285026 
L 986.224784 76.936831 
L 989.85418 62.184387 
L 1000.742369 73.748747 
L 1004.371765 39.794545 
L 1008.001161 66.975847 
L 1011.630557 82.222694 
L 1015.259954 73.556456 
L 1026.148142 88.39943 
L 1029.777538 93.976559 
L 1033.406934 101.089596 
L 1037.03633 98.740394 
L 1040.665727 71.99414 
L 1051.553915 52.162751 
L 1055.183311 85.511326 
L 1058.812707 114.616127 
L 1062.442104 114.595658 
L 1066.0715 110.141325 
L 1076.959688 92.473748 
L 1080.589084 105.16066 
L 1084.21848 132.798674 
L 1087.847877 147.095681 
L 1091.477273 158.775121 
L 1091.477273 158.775121 
" style="fill:none;stroke:#e377c2;stroke-linecap:square;stroke-width:1.5;"/>
   </g>
   <g id="line2d_26">
    <path clip-path="url(#p615b12b0d2)" d="M 97.022727 244.172152 
L 100.652123 249.581685 
L 111.540312 251.30372 
L 115.169708 256.725331 
L 118.799104 247.11133 
L 122.4285 245.462211 
L 126.057896 236.549793 
L 136.946085 244.651756 
L 140.575481 239.343204 
L 144.204877 237.568252 
L 147.834273 244.713971 
L 151.46367 250.610488 
L 162.351858 255.39196 
L 165.981254 262.202684 
L 169.61065 263.305636 
L 173.240046 266.309288 
L 176.869443 268.769449 
L 187.757631 265.029691 
L 191.387027 268.627368 
L 195.016423 270.874558 
L 198.64582 272.885435 
L 202.275216 269.581825 
L 213.163404 266.678055 
L 216.7928 270.325968 
L 220.422196 272.936888 
L 224.051593 271.260549 
L 227.680989 274.522795 
L 242.198573 272.431999 
L 245.827969 275.160738 
L 249.457366 270.545264 
L 253.086762 264.564056 
L 263.97495 262.815546 
L 267.604346 265.670741 
L 271.233743 270.597976 
L 274.863139 271.750685 
L 278.492535 267.336348 
L 289.380723 270.121395 
L 293.010119 268.717124 
L 296.639516 275.51415 
L 300.268912 273.093245 
L 303.898308 280.222776 
L 314.786496 281.8163 
L 318.415893 284.378572 
L 322.045289 287.497074 
L 325.674685 288.458816 
L 329.304081 290.028315 
L 340.192269 285.233988 
L 343.821666 285.254656 
L 347.451062 278.192712 
L 351.080458 274.276334 
L 354.709854 273.784076 
L 365.598042 268.710577 
L 369.227439 276.049704 
L 372.856835 280.093131 
L 376.486231 283.367483 
L 380.115627 287.525995 
L 391.003816 287.951579 
L 394.633212 288.682825 
L 398.262608 287.60202 
L 405.5214 290.690964 
L 416.409589 291.621127 
L 420.038985 294.15351 
L 423.668381 291.775938 
L 427.297777 293.953065 
L 430.927173 291.071246 
L 441.815362 287.863611 
L 445.444758 290.024778 
L 449.074154 294.002506 
L 452.70355 291.876418 
L 456.332946 287.63208 
L 467.221135 285.062725 
L 470.850531 284.593172 
L 474.479927 288.317465 
L 478.109323 288.369298 
L 481.738719 290.49873 
L 492.626908 290.29685 
L 496.256304 287.35232 
L 499.8857 289.965111 
L 503.515096 293.086427 
L 518.032681 297.806017 
L 521.662077 298.758001 
L 525.291473 298.190619 
L 528.920869 296.14266 
L 532.550265 295.779521 
L 543.438454 296.434276 
L 547.06785 296.987347 
L 550.697246 297.206127 
L 554.326642 297.915408 
L 557.956038 297.918203 
L 568.844227 298.041773 
L 572.473623 297.121392 
L 576.103019 296.936 
L 579.732415 299.547754 
L 583.361812 302.584584 
L 594.25 304.907004 
L 597.879396 303.91609 
L 601.508792 306.318679 
L 605.138188 307.518727 
L 608.767585 305.233153 
L 619.655773 307.278263 
L 623.285169 307.00081 
L 626.914565 306.372882 
L 630.543962 306.757975 
L 634.173358 308.23652 
L 645.061546 308.44415 
L 648.690942 309.836644 
L 655.949735 306.419899 
L 659.579131 305.013 
L 670.467319 302.711633 
L 674.096715 301.424458 
L 677.726111 302.503372 
L 681.355508 301.53149 
L 684.984904 301.850808 
L 695.873092 300.202881 
L 699.502488 299.195377 
L 703.131885 300.610292 
L 706.761281 300.436382 
L 721.278865 301.021309 
L 724.908261 299.104355 
L 728.537658 298.107835 
L 732.167054 299.094628 
L 735.79645 301.17292 
L 746.684638 303.114823 
L 750.314035 304.697522 
L 753.943431 304.994275 
L 757.572827 304.663167 
L 761.202223 303.073836 
L 772.090411 304.838675 
L 775.719808 305.564665 
L 779.349204 303.433998 
L 782.9786 302.773565 
L 786.607996 301.965405 
L 797.496184 300.729388 
L 801.125581 300.124707 
L 804.754977 300.740076 
L 808.384373 303.11905 
L 812.013769 304.943866 
L 822.901958 307.208908 
L 826.531354 307.731231 
L 833.790146 309.66984 
L 837.419542 309.232665 
L 848.307731 308.845237 
L 851.937127 309.824225 
L 855.566523 311.483944 
L 859.195919 312.334978 
L 862.825315 311.363278 
L 873.713504 313.252483 
L 877.3429 312.741001 
L 880.972296 312.588942 
L 884.601692 313.271941 
L 888.231088 312.619749 
L 899.119277 313.531194 
L 902.748673 313.223509 
L 906.378069 313.807035 
L 910.007465 313.555429 
L 913.636861 314.338763 
L 928.154446 314.306285 
L 931.783842 314.824258 
L 935.413238 315.603915 
L 939.042634 315.57319 
L 949.930823 315.222085 
L 953.560219 316.110977 
L 957.189615 315.614683 
L 964.448407 315.152543 
L 975.336596 315.782957 
L 978.965992 315.474687 
L 982.595388 316.039509 
L 986.224784 314.744458 
L 989.85418 315.596438 
L 1000.742369 316.077975 
L 1004.371765 317.285455 
L 1008.001161 316.323473 
L 1011.630557 315.759441 
L 1015.259954 315.91782 
L 1026.148142 315.702193 
L 1029.777538 315.094783 
L 1033.406934 314.999665 
L 1037.03633 314.749931 
L 1040.665727 315.102816 
L 1051.553915 316.693183 
L 1058.812707 314.583541 
L 1062.442104 314.004772 
L 1066.0715 314.509009 
L 1076.959688 314.150745 
L 1080.589084 313.363187 
L 1084.21848 312.136333 
L 1087.847877 311.808317 
L 1091.477273 311.152216 
L 1091.477273 311.152216 
" style="fill:none;stroke:#7f7f7f;stroke-linecap:square;stroke-width:1.5;"/>
   </g>
   <g id="line2d_27">
    <path clip-path="url(#p615b12b0d2)" d="M 97.022727 245.247887 
L 100.652123 244.865986 
L 115.169708 242.815191 
L 118.799104 238.415878 
L 122.4285 236.090834 
L 126.057896 229.946848 
L 136.946085 223.563752 
L 140.575481 222.410937 
L 144.204877 226.403235 
L 147.834273 231.22415 
L 151.46367 229.081821 
L 162.351858 224.548211 
L 165.981254 238.647521 
L 169.61065 242.096579 
L 173.240046 241.117548 
L 176.869443 243.970673 
L 187.757631 240.32285 
L 191.387027 238.644815 
L 195.016423 233.486424 
L 198.64582 239.931941 
L 202.275216 233.334233 
L 213.163404 229.57528 
L 216.7928 230.28382 
L 220.422196 239.149525 
L 224.051593 238.266975 
L 227.680989 234.727 
L 238.569177 238.805635 
L 242.198573 234.198423 
L 245.827969 231.163574 
L 249.457366 230.522267 
L 253.086762 228.886483 
L 263.97495 234.064562 
L 267.604346 235.460196 
L 271.233743 236.444174 
L 274.863139 241.809335 
L 278.492535 240.161696 
L 289.380723 230.446193 
L 293.010119 233.760957 
L 296.639516 230.714664 
L 300.268912 235.323893 
L 303.898308 243.770055 
L 314.786496 242.545972 
L 318.415893 247.46289 
L 322.045289 251.150862 
L 325.674685 253.576949 
L 329.304081 255.388473 
L 340.192269 250.442973 
L 343.821666 251.879812 
L 347.451062 246.557198 
L 351.080458 248.942356 
L 354.709854 250.189379 
L 365.598042 247.337054 
L 369.227439 247.488846 
L 372.856835 248.661267 
L 376.486231 252.453482 
L 380.115627 255.229962 
L 391.003816 253.371744 
L 394.633212 252.028186 
L 398.262608 249.522689 
L 401.892004 256.545149 
L 405.5214 251.254309 
L 416.409589 253.505094 
L 420.038985 257.259012 
L 423.668381 254.303245 
L 427.297777 251.930656 
L 430.927173 255.419882 
L 441.815362 258.306701 
L 445.444758 260.934992 
L 449.074154 262.498919 
L 452.70355 262.977287 
L 456.332946 252.327195 
L 467.221135 248.450099 
L 470.850531 246.043656 
L 474.479927 249.218871 
L 478.109323 247.598203 
L 481.738719 245.549503 
L 492.626908 250.709955 
L 496.256304 250.158153 
L 499.8857 256.185964 
L 503.515096 252.53388 
L 507.144492 255.89834 
L 518.032681 260.812745 
L 521.662077 269.292037 
L 525.291473 267.214718 
L 528.920869 264.335016 
L 532.550265 263.628554 
L 543.438454 259.548925 
L 547.06785 261.855881 
L 550.697246 262.117424 
L 554.326642 269.876929 
L 557.956038 274.104369 
L 568.844227 273.582393 
L 572.473623 274.260825 
L 576.103019 271.96822 
L 579.732415 270.39079 
L 583.361812 273.575332 
L 594.25 276.572936 
L 597.879396 275.306867 
L 605.138188 277.425447 
L 608.767585 274.840029 
L 619.655773 278.839189 
L 623.285169 279.941253 
L 626.914565 279.672209 
L 634.173358 273.263198 
L 645.061546 269.421362 
L 648.690942 272.431488 
L 652.320338 268.214872 
L 655.949735 264.383167 
L 659.579131 261.964289 
L 670.467319 261.502996 
L 674.096715 262.239775 
L 677.726111 261.970732 
L 681.355508 265.037373 
L 684.984904 268.446194 
L 695.873092 266.464776 
L 699.502488 269.793253 
L 703.131885 270.208357 
L 706.761281 269.366813 
L 710.390677 265.32379 
L 721.278865 262.491284 
L 724.908261 259.443118 
L 728.537658 260.172686 
L 732.167054 258.921516 
L 735.79645 260.371287 
L 746.684638 260.312862 
L 750.314035 262.196417 
L 753.943431 260.677001 
L 757.572827 255.064159 
L 761.202223 256.034159 
L 772.090411 261.929052 
L 775.719808 262.831723 
L 779.349204 260.887502 
L 782.9786 255.137862 
L 786.607996 261.09433 
L 797.496184 266.650689 
L 801.125581 263.03662 
L 804.754977 267.937075 
L 808.384373 272.089589 
L 812.013769 275.108257 
L 822.901958 274.561174 
L 826.531354 272.693561 
L 830.16075 273.750107 
L 833.790146 269.864285 
L 837.419542 264.418062 
L 848.307731 269.863849 
L 851.937127 272.54063 
L 855.566523 272.301507 
L 859.195919 279.846634 
L 862.825315 282.372022 
L 873.713504 283.342841 
L 877.3429 282.103514 
L 880.972296 285.382435 
L 884.601692 282.201179 
L 888.231088 279.357204 
L 899.119277 277.391924 
L 902.748673 278.262779 
L 906.378069 282.666165 
L 910.007465 284.932364 
L 913.636861 284.481877 
L 924.52505 286.405855 
L 928.154446 285.754052 
L 931.783842 282.779743 
L 935.413238 279.960767 
L 939.042634 280.556527 
L 949.930823 277.133844 
L 957.189615 278.224931 
L 960.819011 275.236548 
L 964.448407 273.452845 
L 975.336596 270.408906 
L 978.965992 273.702852 
L 982.595388 273.661283 
L 986.224784 269.025304 
L 989.85418 270.391772 
L 1000.742369 275.614044 
L 1004.371765 275.702251 
L 1008.001161 274.171453 
L 1011.630557 273.831262 
L 1015.259954 272.893231 
L 1026.148142 274.714765 
L 1029.777538 272.581699 
L 1033.406934 273.685212 
L 1037.03633 271.855027 
L 1040.665727 267.427777 
L 1051.553915 272.256984 
L 1055.183311 271.58764 
L 1058.812707 272.324684 
L 1062.442104 269.368275 
L 1066.0715 270.763681 
L 1076.959688 264.442881 
L 1080.589084 263.310573 
L 1084.21848 264.503323 
L 1087.847877 267.445047 
L 1091.477273 268.338067 
L 1091.477273 268.338067 
" style="fill:none;stroke:#bcbd22;stroke-linecap:square;stroke-width:1.5;"/>
   </g>
   <g id="patch_3">
    <path d="M 47.3 331.16 
L 47.3 25.92 
" style="fill:none;stroke:#000000;stroke-linecap:square;stroke-linejoin:miter;stroke-width:0.8;"/>
   </g>
   <g id="patch_4">
    <path d="M 1141.2 331.16 
L 1141.2 25.92 
" style="fill:none;stroke:#000000;stroke-linecap:square;stroke-linejoin:miter;stroke-width:0.8;"/>
   </g>
   <g id="patch_5">
    <path d="M 47.3 331.16 
L 1141.2 331.16 
" style="fill:none;stroke:#000000;stroke-linecap:square;stroke-linejoin:miter;stroke-width:0.8;"/>
   </g>
   <g id="patch_6">
    <path d="M 47.3 25.92 
L 1141.2 25.92 
" style="fill:none;stroke:#000000;stroke-linecap:square;stroke-linejoin:miter;stroke-width:0.8;"/>
   </g>
   <g id="text_11">
    <!-- Net Value: (2010-01-06 ~ 2010-10-08) -->
    <g transform="translate(478.1425 19.92)scale(0.12 -0.12)">
     <defs>
      <path d="M 9.8125 72.90625 
L 23.09375 72.90625 
L 55.421875 11.921875 
L 55.421875 72.90625 
L 64.984375 72.90625 
L 64.984375 0 
L 51.703125 0 
L 19.390625 60.984375 
L 19.390625 0 
L 9.8125 0 
z
" id="DejaVuSans-78"/>
      <path d="M 28.609375 0 
L 0.78125 72.90625 
L 11.078125 72.90625 
L 34.1875 11.53125 
L 57.328125 72.90625 
L 67.578125 72.90625 
L 39.796875 0 
z
" id="DejaVuSans-86"/>
      <path d="M 11.71875 12.40625 
L 22.015625 12.40625 
L 22.015625 0 
L 11.71875 0 
z
M 11.71875 51.703125 
L 22.015625 51.703125 
L 22.015625 39.3125 
L 11.71875 39.3125 
z
" id="DejaVuSans-58"/>
      <path d="M 31 75.875 
Q 24.46875 64.65625 21.28125 53.65625 
Q 18.109375 42.671875 18.109375 31.390625 
Q 18.109375 20.125 21.3125 9.0625 
Q 24.515625 -2 31 -13.1875 
L 23.1875 -13.1875 
Q 15.875 -1.703125 12.234375 9.375 
Q 8.59375 20.453125 8.59375 31.390625 
Q 8.59375 42.28125 12.203125 53.3125 
Q 15.828125 64.359375 23.1875 75.875 
z
" id="DejaVuSans-40"/>
      <path d="M 4.890625 31.390625 
L 31.203125 31.390625 
L 31.203125 23.390625 
L 4.890625 23.390625 
z
" id="DejaVuSans-45"/>
      <path d="M 33.015625 40.375 
Q 26.375 40.375 22.484375 35.828125 
Q 18.609375 31.296875 18.609375 23.390625 
Q 18.609375 15.53125 22.484375 10.953125 
Q 26.375 6.390625 33.015625 6.390625 
Q 39.65625 6.390625 43.53125 10.953125 
Q 47.40625 15.53125 47.40625 23.390625 
Q 47.40625 31.296875 43.53125 35.828125 
Q 39.65625 40.375 33.015625 40.375 
z
M 52.59375 71.296875 
L 52.59375 62.3125 
Q 48.875 64.0625 45.09375 64.984375 
Q 41.3125 65.921875 37.59375 65.921875 
Q 27.828125 65.921875 22.671875 59.328125 
Q 17.53125 52.734375 16.796875 39.40625 
Q 19.671875 43.65625 24.015625 45.921875 
Q 28.375 48.1875 33.59375 48.1875 
Q 44.578125 48.1875 50.953125 41.515625 
Q 57.328125 34.859375 57.328125 23.390625 
Q 57.328125 12.15625 50.6875 5.359375 
Q 44.046875 -1.421875 33.015625 -1.421875 
Q 20.359375 -1.421875 13.671875 8.265625 
Q 6.984375 17.96875 6.984375 36.375 
Q 6.984375 53.65625 15.1875 63.9375 
Q 23.390625 74.21875 37.203125 74.21875 
Q 40.921875 74.21875 44.703125 73.484375 
Q 48.484375 72.75 52.59375 71.296875 
z
" id="DejaVuSans-54"/>
      <path d="M 73.1875 39.890625 
L 73.1875 31.203125 
Q 68.0625 27.34375 63.6875 25.6875 
Q 59.328125 24.03125 54.59375 24.03125 
Q 49.21875 24.03125 42.09375 26.90625 
Q 41.546875 27.09375 41.3125 27.203125 
Q 40.96875 27.34375 40.234375 27.59375 
Q 32.671875 30.609375 28.078125 30.609375 
Q 23.78125 30.609375 19.578125 28.734375 
Q 15.375 26.859375 10.59375 22.796875 
L 10.59375 31.5 
Q 15.71875 35.359375 20.09375 37.03125 
Q 24.46875 38.71875 29.203125 38.71875 
Q 34.578125 38.71875 41.75 35.796875 
Q 42.234375 35.59375 42.484375 35.5 
Q 42.875 35.359375 43.5625 35.109375 
Q 51.125 32.078125 55.71875 32.078125 
Q 59.90625 32.078125 64.03125 33.9375 
Q 68.171875 35.796875 73.1875 39.890625 
z
" id="DejaVuSans-126"/>
      <path d="M 31.78125 34.625 
Q 24.75 34.625 20.71875 30.859375 
Q 16.703125 27.09375 16.703125 20.515625 
Q 16.703125 13.921875 20.71875 10.15625 
Q 24.75 6.390625 31.78125 6.390625 
Q 38.8125 6.390625 42.859375 10.171875 
Q 46.921875 13.96875 46.921875 20.515625 
Q 46.921875 27.09375 42.890625 30.859375 
Q 38.875 34.625 31.78125 34.625 
z
M 21.921875 38.8125 
Q 15.578125 40.375 12.03125 44.71875 
Q 8.5 49.078125 8.5 55.328125 
Q 8.5 64.0625 14.71875 69.140625 
Q 20.953125 74.21875 31.78125 74.21875 
Q 42.671875 74.21875 48.875 69.140625 
Q 55.078125 64.0625 55.078125 55.328125 
Q 55.078125 49.078125 51.53125 44.71875 
Q 48 40.375 41.703125 38.8125 
Q 48.828125 37.15625 52.796875 32.3125 
Q 56.78125 27.484375 56.78125 20.515625 
Q 56.78125 9.90625 50.3125 4.234375 
Q 43.84375 -1.421875 31.78125 -1.421875 
Q 19.734375 -1.421875 13.25 4.234375 
Q 6.78125 9.90625 6.78125 20.515625 
Q 6.78125 27.484375 10.78125 32.3125 
Q 14.796875 37.15625 21.921875 38.8125 
z
M 18.3125 54.390625 
Q 18.3125 48.734375 21.84375 45.5625 
Q 25.390625 42.390625 31.78125 42.390625 
Q 38.140625 42.390625 41.71875 45.5625 
Q 45.3125 48.734375 45.3125 54.390625 
Q 45.3125 60.0625 41.71875 63.234375 
Q 38.140625 66.40625 31.78125 66.40625 
Q 25.390625 66.40625 21.84375 63.234375 
Q 18.3125 60.0625 18.3125 54.390625 
z
" id="DejaVuSans-56"/>
      <path d="M 8.015625 75.875 
L 15.828125 75.875 
Q 23.140625 64.359375 26.78125 53.3125 
Q 30.421875 42.28125 30.421875 31.390625 
Q 30.421875 20.453125 26.78125 9.375 
Q 23.140625 -1.703125 15.828125 -13.1875 
L 8.015625 -13.1875 
Q 14.5 -2 17.703125 9.0625 
Q 20.90625 20.125 20.90625 31.390625 
Q 20.90625 42.671875 17.703125 53.65625 
Q 14.5 64.65625 8.015625 75.875 
z
" id="DejaVuSans-41"/>
     </defs>
     <use xlink:href="#DejaVuSans-78"/>
     <use x="74.804688" xlink:href="#DejaVuSans-101"/>
     <use x="136.328125" xlink:href="#DejaVuSans-116"/>
     <use x="175.537109" xlink:href="#DejaVuSans-32"/>
     <use x="207.324219" xlink:href="#DejaVuSans-86"/>
     <use x="267.982422" xlink:href="#DejaVuSans-97"/>
     <use x="329.261719" xlink:href="#DejaVuSans-108"/>
     <use x="357.044922" xlink:href="#DejaVuSans-117"/>
     <use x="420.423828" xlink:href="#DejaVuSans-101"/>
     <use x="481.947266" xlink:href="#DejaVuSans-58"/>
     <use x="515.638672" xlink:href="#DejaVuSans-32"/>
     <use x="547.425781" xlink:href="#DejaVuSans-40"/>
     <use x="586.439453" xlink:href="#DejaVuSans-50"/>
     <use x="650.0625" xlink:href="#DejaVuSans-48"/>
     <use x="713.685547" xlink:href="#DejaVuSans-49"/>
     <use x="777.308594" xlink:href="#DejaVuSans-48"/>
     <use x="840.931641" xlink:href="#DejaVuSans-45"/>
     <use x="877.015625" xlink:href="#DejaVuSans-48"/>
     <use x="940.638672" xlink:href="#DejaVuSans-49"/>
     <use x="1004.261719" xlink:href="#DejaVuSans-45"/>
     <use x="1040.345703" xlink:href="#DejaVuSans-48"/>
     <use x="1103.96875" xlink:href="#DejaVuSans-54"/>
     <use x="1167.591797" xlink:href="#DejaVuSans-32"/>
     <use x="1199.378906" xlink:href="#DejaVuSans-126"/>
     <use x="1283.167969" xlink:href="#DejaVuSans-32"/>
     <use x="1314.955078" xlink:href="#DejaVuSans-50"/>
     <use x="1378.578125" xlink:href="#DejaVuSans-48"/>
     <use x="1442.201172" xlink:href="#DejaVuSans-49"/>
     <use x="1505.824219" xlink:href="#DejaVuSans-48"/>
     <use x="1569.447266" xlink:href="#DejaVuSans-45"/>
     <use x="1605.53125" xlink:href="#DejaVuSans-49"/>
     <use x="1669.154297" xlink:href="#DejaVuSans-48"/>
     <use x="1732.777344" xlink:href="#DejaVuSans-45"/>
     <use x="1768.861328" xlink:href="#DejaVuSans-48"/>
     <use x="1832.484375" xlink:href="#DejaVuSans-56"/>
     <use x="1896.107422" xlink:href="#DejaVuSans-41"/>
    </g>
   </g>
   <g id="legend_1">
    <g id="patch_7">
     <path d="M 54.3 168.248125 
L 150.789062 168.248125 
Q 152.789062 168.248125 152.789062 166.248125 
L 152.789062 32.92 
Q 152.789062 30.92 150.789062 30.92 
L 54.3 30.92 
Q 52.3 30.92 52.3 32.92 
L 52.3 166.248125 
Q 52.3 168.248125 54.3 168.248125 
z
" style="fill:#ffffff;opacity:0.8;stroke:#cccccc;stroke-linejoin:miter;"/>
    </g>
    <g id="line2d_28">
     <path d="M 56.3 39.018438 
L 76.3 39.018438 
" style="fill:none;stroke:#1f77b4;stroke-linecap:square;stroke-width:1.5;"/>
    </g>
    <g id="line2d_29"/>
    <g id="text_12">
     <!-- group_1 -->
     <g transform="translate(84.3 42.518438)scale(0.1 -0.1)">
      <defs>
       <path d="M 45.40625 27.984375 
Q 45.40625 37.75 41.375 43.109375 
Q 37.359375 48.484375 30.078125 48.484375 
Q 22.859375 48.484375 18.828125 43.109375 
Q 14.796875 37.75 14.796875 27.984375 
Q 14.796875 18.265625 18.828125 12.890625 
Q 22.859375 7.515625 30.078125 7.515625 
Q 37.359375 7.515625 41.375 12.890625 
Q 45.40625 18.265625 45.40625 27.984375 
z
M 54.390625 6.78125 
Q 54.390625 -7.171875 48.1875 -13.984375 
Q 42 -20.796875 29.203125 -20.796875 
Q 24.46875 -20.796875 20.265625 -20.09375 
Q 16.0625 -19.390625 12.109375 -17.921875 
L 12.109375 -9.1875 
Q 16.0625 -11.328125 19.921875 -12.34375 
Q 23.78125 -13.375 27.78125 -13.375 
Q 36.625 -13.375 41.015625 -8.765625 
Q 45.40625 -4.15625 45.40625 5.171875 
L 45.40625 9.625 
Q 42.625 4.78125 38.28125 2.390625 
Q 33.9375 0 27.875 0 
Q 17.828125 0 11.671875 7.65625 
Q 5.515625 15.328125 5.515625 27.984375 
Q 5.515625 40.671875 11.671875 48.328125 
Q 17.828125 56 27.875 56 
Q 33.9375 56 38.28125 53.609375 
Q 42.625 51.21875 45.40625 46.390625 
L 45.40625 54.6875 
L 54.390625 54.6875 
z
" id="DejaVuSans-103"/>
       <path d="M 41.109375 46.296875 
Q 39.59375 47.171875 37.8125 47.578125 
Q 36.03125 48 33.890625 48 
Q 26.265625 48 22.1875 43.046875 
Q 18.109375 38.09375 18.109375 28.8125 
L 18.109375 0 
L 9.078125 0 
L 9.078125 54.6875 
L 18.109375 54.6875 
L 18.109375 46.1875 
Q 20.953125 51.171875 25.484375 53.578125 
Q 30.03125 56 36.53125 56 
Q 37.453125 56 38.578125 55.875 
Q 39.703125 55.765625 41.0625 55.515625 
z
" id="DejaVuSans-114"/>
       <path d="M 30.609375 48.390625 
Q 23.390625 48.390625 19.1875 42.75 
Q 14.984375 37.109375 14.984375 27.296875 
Q 14.984375 17.484375 19.15625 11.84375 
Q 23.34375 6.203125 30.609375 6.203125 
Q 37.796875 6.203125 41.984375 11.859375 
Q 46.1875 17.53125 46.1875 27.296875 
Q 46.1875 37.015625 41.984375 42.703125 
Q 37.796875 48.390625 30.609375 48.390625 
z
M 30.609375 56 
Q 42.328125 56 49.015625 48.375 
Q 55.71875 40.765625 55.71875 27.296875 
Q 55.71875 13.875 49.015625 6.21875 
Q 42.328125 -1.421875 30.609375 -1.421875 
Q 18.84375 -1.421875 12.171875 6.21875 
Q 5.515625 13.875 5.515625 27.296875 
Q 5.515625 40.765625 12.171875 48.375 
Q 18.84375 56 30.609375 56 
z
" id="DejaVuSans-111"/>
       <path d="M 18.109375 8.203125 
L 18.109375 -20.796875 
L 9.078125 -20.796875 
L 9.078125 54.6875 
L 18.109375 54.6875 
L 18.109375 46.390625 
Q 20.953125 51.265625 25.265625 53.625 
Q 29.59375 56 35.59375 56 
Q 45.5625 56 51.78125 48.09375 
Q 58.015625 40.1875 58.015625 27.296875 
Q 58.015625 14.40625 51.78125 6.484375 
Q 45.5625 -1.421875 35.59375 -1.421875 
Q 29.59375 -1.421875 25.265625 0.953125 
Q 20.953125 3.328125 18.109375 8.203125 
z
M 48.6875 27.296875 
Q 48.6875 37.203125 44.609375 42.84375 
Q 40.53125 48.484375 33.40625 48.484375 
Q 26.265625 48.484375 22.1875 42.84375 
Q 18.109375 37.203125 18.109375 27.296875 
Q 18.109375 17.390625 22.1875 11.75 
Q 26.265625 6.109375 33.40625 6.109375 
Q 40.53125 6.109375 44.609375 11.75 
Q 48.6875 17.390625 48.6875 27.296875 
z
" id="DejaVuSans-112"/>
       <path d="M 50.984375 -16.609375 
L 50.984375 -23.578125 
L -0.984375 -23.578125 
L -0.984375 -16.609375 
z
" id="DejaVuSans-95"/>
      </defs>
      <use xlink:href="#DejaVuSans-103"/>
      <use x="63.476562" xlink:href="#DejaVuSans-114"/>
      <use x="102.339844" xlink:href="#DejaVuSans-111"/>
      <use x="163.521484" xlink:href="#DejaVuSans-117"/>
      <use x="226.900391" xlink:href="#DejaVuSans-112"/>
      <use x="290.376953" xlink:href="#DejaVuSans-95"/>
      <use x="340.376953" xlink:href="#DejaVuSans-49"/>
     </g>
    </g>
    <g id="line2d_30">
     <path d="M 56.3 53.974688 
L 76.3 53.974688 
" style="fill:none;stroke:#ff7f0e;stroke-linecap:square;stroke-width:1.5;"/>
    </g>
    <g id="line2d_31"/>
    <g id="text_13">
     <!-- group_2 -->
     <g transform="translate(84.3 57.474688)scale(0.1 -0.1)">
      <use xlink:href="#DejaVuSans-103"/>
      <use x="63.476562" xlink:href="#DejaVuSans-114"/>
      <use x="102.339844" xlink:href="#DejaVuSans-111"/>
      <use x="163.521484" xlink:href="#DejaVuSans-117"/>
      <use x="226.900391" xlink:href="#DejaVuSans-112"/>
      <use x="290.376953" xlink:href="#DejaVuSans-95"/>
      <use x="340.376953" xlink:href="#DejaVuSans-50"/>
     </g>
    </g>
    <g id="line2d_32">
     <path d="M 56.3 68.930938 
L 76.3 68.930938 
" style="fill:none;stroke:#2ca02c;stroke-linecap:square;stroke-width:1.5;"/>
    </g>
    <g id="line2d_33"/>
    <g id="text_14">
     <!-- group_3 -->
     <g transform="translate(84.3 72.430938)scale(0.1 -0.1)">
      <use xlink:href="#DejaVuSans-103"/>
      <use x="63.476562" xlink:href="#DejaVuSans-114"/>
      <use x="102.339844" xlink:href="#DejaVuSans-111"/>
      <use x="163.521484" xlink:href="#DejaVuSans-117"/>
      <use x="226.900391" xlink:href="#DejaVuSans-112"/>
      <use x="290.376953" xlink:href="#DejaVuSans-95"/>
      <use x="340.376953" xlink:href="#DejaVuSans-51"/>
     </g>
    </g>
    <g id="line2d_34">
     <path d="M 56.3 83.887188 
L 76.3 83.887188 
" style="fill:none;stroke:#d62728;stroke-linecap:square;stroke-width:1.5;"/>
    </g>
    <g id="line2d_35"/>
    <g id="text_15">
     <!-- group_4 -->
     <g transform="translate(84.3 87.387188)scale(0.1 -0.1)">
      <defs>
       <path d="M 37.796875 64.3125 
L 12.890625 25.390625 
L 37.796875 25.390625 
z
M 35.203125 72.90625 
L 47.609375 72.90625 
L 47.609375 25.390625 
L 58.015625 25.390625 
L 58.015625 17.1875 
L 47.609375 17.1875 
L 47.609375 0 
L 37.796875 0 
L 37.796875 17.1875 
L 4.890625 17.1875 
L 4.890625 26.703125 
z
" id="DejaVuSans-52"/>
      </defs>
      <use xlink:href="#DejaVuSans-103"/>
      <use x="63.476562" xlink:href="#DejaVuSans-114"/>
      <use x="102.339844" xlink:href="#DejaVuSans-111"/>
      <use x="163.521484" xlink:href="#DejaVuSans-117"/>
      <use x="226.900391" xlink:href="#DejaVuSans-112"/>
      <use x="290.376953" xlink:href="#DejaVuSans-95"/>
      <use x="340.376953" xlink:href="#DejaVuSans-52"/>
     </g>
    </g>
    <g id="line2d_36">
     <path d="M 56.3 98.843437 
L 76.3 98.843437 
" style="fill:none;stroke:#9467bd;stroke-linecap:square;stroke-width:1.5;"/>
    </g>
    <g id="line2d_37"/>
    <g id="text_16">
     <!-- group_5 -->
     <g transform="translate(84.3 102.343437)scale(0.1 -0.1)">
      <use xlink:href="#DejaVuSans-103"/>
      <use x="63.476562" xlink:href="#DejaVuSans-114"/>
      <use x="102.339844" xlink:href="#DejaVuSans-111"/>
      <use x="163.521484" xlink:href="#DejaVuSans-117"/>
      <use x="226.900391" xlink:href="#DejaVuSans-112"/>
      <use x="290.376953" xlink:href="#DejaVuSans-95"/>
      <use x="340.376953" xlink:href="#DejaVuSans-53"/>
     </g>
    </g>
    <g id="line2d_38">
     <path d="M 56.3 113.799688 
L 76.3 113.799688 
" style="fill:none;stroke:#8c564b;stroke-linecap:square;stroke-width:1.5;"/>
    </g>
    <g id="line2d_39"/>
    <g id="text_17">
     <!-- benchmark -->
     <g transform="translate(84.3 117.299688)scale(0.1 -0.1)">
      <defs>
       <path d="M 48.6875 27.296875 
Q 48.6875 37.203125 44.609375 42.84375 
Q 40.53125 48.484375 33.40625 48.484375 
Q 26.265625 48.484375 22.1875 42.84375 
Q 18.109375 37.203125 18.109375 27.296875 
Q 18.109375 17.390625 22.1875 11.75 
Q 26.265625 6.109375 33.40625 6.109375 
Q 40.53125 6.109375 44.609375 11.75 
Q 48.6875 17.390625 48.6875 27.296875 
z
M 18.109375 46.390625 
Q 20.953125 51.265625 25.265625 53.625 
Q 29.59375 56 35.59375 56 
Q 45.5625 56 51.78125 48.09375 
Q 58.015625 40.1875 58.015625 27.296875 
Q 58.015625 14.40625 51.78125 6.484375 
Q 45.5625 -1.421875 35.59375 -1.421875 
Q 29.59375 -1.421875 25.265625 0.953125 
Q 20.953125 3.328125 18.109375 8.203125 
L 18.109375 0 
L 9.078125 0 
L 9.078125 75.984375 
L 18.109375 75.984375 
z
" id="DejaVuSans-98"/>
       <path d="M 48.78125 52.59375 
L 48.78125 44.1875 
Q 44.96875 46.296875 41.140625 47.34375 
Q 37.3125 48.390625 33.40625 48.390625 
Q 24.65625 48.390625 19.8125 42.84375 
Q 14.984375 37.3125 14.984375 27.296875 
Q 14.984375 17.28125 19.8125 11.734375 
Q 24.65625 6.203125 33.40625 6.203125 
Q 37.3125 6.203125 41.140625 7.25 
Q 44.96875 8.296875 48.78125 10.40625 
L 48.78125 2.09375 
Q 45.015625 0.34375 40.984375 -0.53125 
Q 36.96875 -1.421875 32.421875 -1.421875 
Q 20.0625 -1.421875 12.78125 6.34375 
Q 5.515625 14.109375 5.515625 27.296875 
Q 5.515625 40.671875 12.859375 48.328125 
Q 20.21875 56 33.015625 56 
Q 37.15625 56 41.109375 55.140625 
Q 45.0625 54.296875 48.78125 52.59375 
z
" id="DejaVuSans-99"/>
       <path d="M 54.890625 33.015625 
L 54.890625 0 
L 45.90625 0 
L 45.90625 32.71875 
Q 45.90625 40.484375 42.875 44.328125 
Q 39.84375 48.1875 33.796875 48.1875 
Q 26.515625 48.1875 22.3125 43.546875 
Q 18.109375 38.921875 18.109375 30.90625 
L 18.109375 0 
L 9.078125 0 
L 9.078125 75.984375 
L 18.109375 75.984375 
L 18.109375 46.1875 
Q 21.34375 51.125 25.703125 53.5625 
Q 30.078125 56 35.796875 56 
Q 45.21875 56 50.046875 50.171875 
Q 54.890625 44.34375 54.890625 33.015625 
z
" id="DejaVuSans-104"/>
       <path d="M 52 44.1875 
Q 55.375 50.25 60.0625 53.125 
Q 64.75 56 71.09375 56 
Q 79.640625 56 84.28125 50.015625 
Q 88.921875 44.046875 88.921875 33.015625 
L 88.921875 0 
L 79.890625 0 
L 79.890625 32.71875 
Q 79.890625 40.578125 77.09375 44.375 
Q 74.3125 48.1875 68.609375 48.1875 
Q 61.625 48.1875 57.5625 43.546875 
Q 53.515625 38.921875 53.515625 30.90625 
L 53.515625 0 
L 44.484375 0 
L 44.484375 32.71875 
Q 44.484375 40.625 41.703125 44.40625 
Q 38.921875 48.1875 33.109375 48.1875 
Q 26.21875 48.1875 22.15625 43.53125 
Q 18.109375 38.875 18.109375 30.90625 
L 18.109375 0 
L 9.078125 0 
L 9.078125 54.6875 
L 18.109375 54.6875 
L 18.109375 46.1875 
Q 21.1875 51.21875 25.484375 53.609375 
Q 29.78125 56 35.6875 56 
Q 41.65625 56 45.828125 52.96875 
Q 50 49.953125 52 44.1875 
z
" id="DejaVuSans-109"/>
       <path d="M 9.078125 75.984375 
L 18.109375 75.984375 
L 18.109375 31.109375 
L 44.921875 54.6875 
L 56.390625 54.6875 
L 27.390625 29.109375 
L 57.625 0 
L 45.90625 0 
L 18.109375 26.703125 
L 18.109375 0 
L 9.078125 0 
z
" id="DejaVuSans-107"/>
      </defs>
      <use xlink:href="#DejaVuSans-98"/>
      <use x="63.476562" xlink:href="#DejaVuSans-101"/>
      <use x="125" xlink:href="#DejaVuSans-110"/>
      <use x="188.378906" xlink:href="#DejaVuSans-99"/>
      <use x="243.359375" xlink:href="#DejaVuSans-104"/>
      <use x="306.738281" xlink:href="#DejaVuSans-109"/>
      <use x="404.150391" xlink:href="#DejaVuSans-97"/>
      <use x="465.429688" xlink:href="#DejaVuSans-114"/>
      <use x="506.542969" xlink:href="#DejaVuSans-107"/>
     </g>
    </g>
    <g id="line2d_40">
     <path d="M 56.3 128.477812 
L 76.3 128.477812 
" style="fill:none;stroke:#e377c2;stroke-linecap:square;stroke-width:1.5;"/>
    </g>
    <g id="line2d_41"/>
    <g id="text_18">
     <!-- long_excess -->
     <g transform="translate(84.3 131.977812)scale(0.1 -0.1)">
      <defs>
       <path d="M 54.890625 54.6875 
L 35.109375 28.078125 
L 55.90625 0 
L 45.3125 0 
L 29.390625 21.484375 
L 13.484375 0 
L 2.875 0 
L 24.125 28.609375 
L 4.6875 54.6875 
L 15.28125 54.6875 
L 29.78125 35.203125 
L 44.28125 54.6875 
z
" id="DejaVuSans-120"/>
       <path d="M 44.28125 53.078125 
L 44.28125 44.578125 
Q 40.484375 46.53125 36.375 47.5 
Q 32.28125 48.484375 27.875 48.484375 
Q 21.1875 48.484375 17.84375 46.4375 
Q 14.5 44.390625 14.5 40.28125 
Q 14.5 37.15625 16.890625 35.375 
Q 19.28125 33.59375 26.515625 31.984375 
L 29.59375 31.296875 
Q 39.15625 29.25 43.1875 25.515625 
Q 47.21875 21.78125 47.21875 15.09375 
Q 47.21875 7.46875 41.1875 3.015625 
Q 35.15625 -1.421875 24.609375 -1.421875 
Q 20.21875 -1.421875 15.453125 -0.5625 
Q 10.6875 0.296875 5.421875 2 
L 5.421875 11.28125 
Q 10.40625 8.6875 15.234375 7.390625 
Q 20.0625 6.109375 24.8125 6.109375 
Q 31.15625 6.109375 34.5625 8.28125 
Q 37.984375 10.453125 37.984375 14.40625 
Q 37.984375 18.0625 35.515625 20.015625 
Q 33.0625 21.96875 24.703125 23.78125 
L 21.578125 24.515625 
Q 13.234375 26.265625 9.515625 29.90625 
Q 5.8125 33.546875 5.8125 39.890625 
Q 5.8125 47.609375 11.28125 51.796875 
Q 16.75 56 26.8125 56 
Q 31.78125 56 36.171875 55.265625 
Q 40.578125 54.546875 44.28125 53.078125 
z
" id="DejaVuSans-115"/>
      </defs>
      <use xlink:href="#DejaVuSans-108"/>
      <use x="27.783203" xlink:href="#DejaVuSans-111"/>
      <use x="88.964844" xlink:href="#DejaVuSans-110"/>
      <use x="152.34375" xlink:href="#DejaVuSans-103"/>
      <use x="215.820312" xlink:href="#DejaVuSans-95"/>
      <use x="265.820312" xlink:href="#DejaVuSans-101"/>
      <use x="325.59375" xlink:href="#DejaVuSans-120"/>
      <use x="383.023438" xlink:href="#DejaVuSans-99"/>
      <use x="438.003906" xlink:href="#DejaVuSans-101"/>
      <use x="499.527344" xlink:href="#DejaVuSans-115"/>
      <use x="551.626953" xlink:href="#DejaVuSans-115"/>
     </g>
    </g>
    <g id="line2d_42">
     <path d="M 56.3 143.434062 
L 76.3 143.434062 
" style="fill:none;stroke:#7f7f7f;stroke-linecap:square;stroke-width:1.5;"/>
    </g>
    <g id="line2d_43"/>
    <g id="text_19">
     <!-- short_excess -->
     <g transform="translate(84.3 146.934062)scale(0.1 -0.1)">
      <use xlink:href="#DejaVuSans-115"/>
      <use x="52.099609" xlink:href="#DejaVuSans-104"/>
      <use x="115.478516" xlink:href="#DejaVuSans-111"/>
      <use x="176.660156" xlink:href="#DejaVuSans-114"/>
      <use x="217.773438" xlink:href="#DejaVuSans-116"/>
      <use x="256.982422" xlink:href="#DejaVuSans-95"/>
      <use x="306.982422" xlink:href="#DejaVuSans-101"/>
      <use x="366.755859" xlink:href="#DejaVuSans-120"/>
      <use x="424.185547" xlink:href="#DejaVuSans-99"/>
      <use x="479.166016" xlink:href="#DejaVuSans-101"/>
      <use x="540.689453" xlink:href="#DejaVuSans-115"/>
      <use x="592.789062" xlink:href="#DejaVuSans-115"/>
     </g>
    </g>
    <g id="line2d_44">
     <path d="M 56.3 158.390312 
L 76.3 158.390312 
" style="fill:none;stroke:#bcbd22;stroke-linecap:square;stroke-width:1.5;"/>
    </g>
    <g id="line2d_45"/>
    <g id="text_20">
     <!-- long_short -->
     <g transform="translate(84.3 161.890312)scale(0.1 -0.1)">
      <use xlink:href="#DejaVuSans-108"/>
      <use x="27.783203" xlink:href="#DejaVuSans-111"/>
      <use x="88.964844" xlink:href="#DejaVuSans-110"/>
      <use x="152.34375" xlink:href="#DejaVuSans-103"/>
      <use x="215.820312" xlink:href="#DejaVuSans-95"/>
      <use x="265.820312" xlink:href="#DejaVuSans-115"/>
      <use x="317.919922" xlink:href="#DejaVuSans-104"/>
      <use x="381.298828" xlink:href="#DejaVuSans-111"/>
      <use x="442.480469" xlink:href="#DejaVuSans-114"/>
      <use x="483.59375" xlink:href="#DejaVuSans-116"/>
     </g>
    </g>
   </g>
  </g>
 </g>
 <defs>
  <clipPath id="p615b12b0d2">
   <rect height="305.24" width="1093.9" x="47.3" y="25.92"/>
  </clipPath>
 </defs>
</svg>
