<?xml version="1.0" encoding="utf-8" standalone="no"?>
<!DOCTYPE svg PUBLIC "-//W3C//DTD SVG 1.1//EN"
  "http://www.w3.org/Graphics/SVG/1.1/DTD/svg11.dtd">
<!-- Created with matplotlib (https://matplotlib.org/) -->
<svg height="360pt" version="1.1" viewBox="0 0 1152 360" width="1152pt" xmlns="http://www.w3.org/2000/svg" xmlns:xlink="http://www.w3.org/1999/xlink">
 <metadata>
  <rdf:RDF xmlns:cc="http://creativecommons.org/ns#" xmlns:dc="http://purl.org/dc/elements/1.1/" xmlns:rdf="http://www.w3.org/1999/02/22-rdf-syntax-ns#">
   <cc:Work>
    <dc:type rdf:resource="http://purl.org/dc/dcmitype/StillImage"/>
    <dc:date>2023-10-11T16:35:38.045299</dc:date>
    <dc:format>image/svg+xml</dc:format>
    <dc:creator>
     <cc:Agent>
      <dc:title>Matplotlib v3.3.4, https://matplotlib.org/</dc:title>
     </cc:Agent>
    </dc:creator>
   </cc:Work>
  </rdf:RDF>
 </metadata>
 <defs>
  <style type="text/css">*{stroke-linecap:butt;stroke-linejoin:round;}</style>
 </defs>
 <g id="figure_1">
  <g id="patch_1">
   <path d="M 0 360 
L 1152 360 
L 1152 0 
L 0 0 
z
" style="fill:#ffffff;"/>
  </g>
  <g id="axes_1">
   <g id="patch_2">
    <path d="M 50.9 316.76 
L 1141.2 316.76 
L 1141.2 25.92 
L 50.9 25.92 
z
" style="fill:#ffffff;"/>
   </g>
   <g id="matplotlib.axis_1">
    <g id="xtick_1">
     <g id="line2d_1">
      <path clip-path="url(#pf897db6278)" d="M 82.437603 316.76 
L 82.437603 25.92 
" style="fill:none;stroke:#b0b0b0;stroke-linecap:square;stroke-width:0.8;"/>
     </g>
     <g id="line2d_2">
      <defs>
       <path d="M 0 0 
L 0 3.5 
" id="mc5a5616598" style="stroke:#000000;stroke-width:0.8;"/>
      </defs>
      <g>
       <use style="stroke:#000000;stroke-width:0.8;" x="82.437603" xlink:href="#mc5a5616598" y="316.76"/>
      </g>
     </g>
     <g id="text_1">
      <!-- 2010 -->
      <g transform="translate(85.196978 349.21)rotate(-90)scale(0.1 -0.1)">
       <defs>
        <path d="M 19.1875 8.296875 
L 53.609375 8.296875 
L 53.609375 0 
L 7.328125 0 
L 7.328125 8.296875 
Q 12.9375 14.109375 22.625 23.890625 
Q 32.328125 33.6875 34.8125 36.53125 
Q 39.546875 41.84375 41.421875 45.53125 
Q 43.3125 49.21875 43.3125 52.78125 
Q 43.3125 58.59375 39.234375 62.25 
Q 35.15625 65.921875 28.609375 65.921875 
Q 23.96875 65.921875 18.8125 64.3125 
Q 13.671875 62.703125 7.8125 59.421875 
L 7.8125 69.390625 
Q 13.765625 71.78125 18.9375 73 
Q 24.125 74.21875 28.421875 74.21875 
Q 39.75 74.21875 46.484375 68.546875 
Q 53.21875 62.890625 53.21875 53.421875 
Q 53.21875 48.921875 51.53125 44.890625 
Q 49.859375 40.875 45.40625 35.40625 
Q 44.1875 33.984375 37.640625 27.21875 
Q 31.109375 20.453125 19.1875 8.296875 
z
" id="DejaVuSans-50"/>
        <path d="M 31.78125 66.40625 
Q 24.171875 66.40625 20.328125 58.90625 
Q 16.5 51.421875 16.5 36.375 
Q 16.5 21.390625 20.328125 13.890625 
Q 24.171875 6.390625 31.78125 6.390625 
Q 39.453125 6.390625 43.28125 13.890625 
Q 47.125 21.390625 47.125 36.375 
Q 47.125 51.421875 43.28125 58.90625 
Q 39.453125 66.40625 31.78125 66.40625 
z
M 31.78125 74.21875 
Q 44.046875 74.21875 50.515625 64.515625 
Q 56.984375 54.828125 56.984375 36.375 
Q 56.984375 17.96875 50.515625 8.265625 
Q 44.046875 -1.421875 31.78125 -1.421875 
Q 19.53125 -1.421875 13.0625 8.265625 
Q 6.59375 17.96875 6.59375 36.375 
Q 6.59375 54.828125 13.0625 64.515625 
Q 19.53125 74.21875 31.78125 74.21875 
z
" id="DejaVuSans-48"/>
        <path d="M 12.40625 8.296875 
L 28.515625 8.296875 
L 28.515625 63.921875 
L 10.984375 60.40625 
L 10.984375 69.390625 
L 28.421875 72.90625 
L 38.28125 72.90625 
L 38.28125 8.296875 
L 54.390625 8.296875 
L 54.390625 0 
L 12.40625 0 
z
" id="DejaVuSans-49"/>
       </defs>
       <use xlink:href="#DejaVuSans-50"/>
       <use x="63.623047" xlink:href="#DejaVuSans-48"/>
       <use x="127.246094" xlink:href="#DejaVuSans-49"/>
       <use x="190.869141" xlink:href="#DejaVuSans-48"/>
      </g>
     </g>
    </g>
   </g>
   <g id="matplotlib.axis_2">
    <g id="ytick_1">
     <g id="line2d_3">
      <path clip-path="url(#pf897db6278)" d="M 50.9 311.280242 
L 1141.2 311.280242 
" style="fill:none;stroke:#b0b0b0;stroke-linecap:square;stroke-width:0.8;"/>
     </g>
     <g id="line2d_4">
      <defs>
       <path d="M 0 0 
L -3.5 0 
" id="m57b7269395" style="stroke:#000000;stroke-width:0.8;"/>
      </defs>
      <g>
       <use style="stroke:#000000;stroke-width:0.8;" x="50.9" xlink:href="#m57b7269395" y="311.280242"/>
      </g>
     </g>
     <g id="text_2">
      <!-- -2.5 -->
      <g transform="translate(24.389062 315.07946)scale(0.1 -0.1)">
       <defs>
        <path d="M 4.890625 31.390625 
L 31.203125 31.390625 
L 31.203125 23.390625 
L 4.890625 23.390625 
z
" id="DejaVuSans-45"/>
        <path d="M 10.6875 12.40625 
L 21 12.40625 
L 21 0 
L 10.6875 0 
z
" id="DejaVuSans-46"/>
        <path d="M 10.796875 72.90625 
L 49.515625 72.90625 
L 49.515625 64.59375 
L 19.828125 64.59375 
L 19.828125 46.734375 
Q 21.96875 47.46875 24.109375 47.828125 
Q 26.265625 48.1875 28.421875 48.1875 
Q 40.625 48.1875 47.75 41.5 
Q 54.890625 34.8125 54.890625 23.390625 
Q 54.890625 11.625 47.5625 5.09375 
Q 40.234375 -1.421875 26.90625 -1.421875 
Q 22.3125 -1.421875 17.546875 -0.640625 
Q 12.796875 0.140625 7.71875 1.703125 
L 7.71875 11.625 
Q 12.109375 9.234375 16.796875 8.0625 
Q 21.484375 6.890625 26.703125 6.890625 
Q 35.15625 6.890625 40.078125 11.328125 
Q 45.015625 15.765625 45.015625 23.390625 
Q 45.015625 31 40.078125 35.4375 
Q 35.15625 39.890625 26.703125 39.890625 
Q 22.75 39.890625 18.8125 39.015625 
Q 14.890625 38.140625 10.796875 36.28125 
z
" id="DejaVuSans-53"/>
       </defs>
       <use xlink:href="#DejaVuSans-45"/>
       <use x="36.083984" xlink:href="#DejaVuSans-50"/>
       <use x="99.707031" xlink:href="#DejaVuSans-46"/>
       <use x="131.494141" xlink:href="#DejaVuSans-53"/>
      </g>
     </g>
    </g>
    <g id="ytick_2">
     <g id="line2d_5">
      <path clip-path="url(#pf897db6278)" d="M 50.9 274.798847 
L 1141.2 274.798847 
" style="fill:none;stroke:#b0b0b0;stroke-linecap:square;stroke-width:0.8;"/>
     </g>
     <g id="line2d_6">
      <g>
       <use style="stroke:#000000;stroke-width:0.8;" x="50.9" xlink:href="#m57b7269395" y="274.798847"/>
      </g>
     </g>
     <g id="text_3">
      <!-- -2.0 -->
      <g transform="translate(24.389062 278.598066)scale(0.1 -0.1)">
       <use xlink:href="#DejaVuSans-45"/>
       <use x="36.083984" xlink:href="#DejaVuSans-50"/>
       <use x="99.707031" xlink:href="#DejaVuSans-46"/>
       <use x="131.494141" xlink:href="#DejaVuSans-48"/>
      </g>
     </g>
    </g>
    <g id="ytick_3">
     <g id="line2d_7">
      <path clip-path="url(#pf897db6278)" d="M 50.9 238.317452 
L 1141.2 238.317452 
" style="fill:none;stroke:#b0b0b0;stroke-linecap:square;stroke-width:0.8;"/>
     </g>
     <g id="line2d_8">
      <g>
       <use style="stroke:#000000;stroke-width:0.8;" x="50.9" xlink:href="#m57b7269395" y="238.317452"/>
      </g>
     </g>
     <g id="text_4">
      <!-- -1.5 -->
      <g transform="translate(24.389062 242.116671)scale(0.1 -0.1)">
       <use xlink:href="#DejaVuSans-45"/>
       <use x="36.083984" xlink:href="#DejaVuSans-49"/>
       <use x="99.707031" xlink:href="#DejaVuSans-46"/>
       <use x="131.494141" xlink:href="#DejaVuSans-53"/>
      </g>
     </g>
    </g>
    <g id="ytick_4">
     <g id="line2d_9">
      <path clip-path="url(#pf897db6278)" d="M 50.9 201.836058 
L 1141.2 201.836058 
" style="fill:none;stroke:#b0b0b0;stroke-linecap:square;stroke-width:0.8;"/>
     </g>
     <g id="line2d_10">
      <g>
       <use style="stroke:#000000;stroke-width:0.8;" x="50.9" xlink:href="#m57b7269395" y="201.836058"/>
      </g>
     </g>
     <g id="text_5">
      <!-- -1.0 -->
      <g transform="translate(24.389062 205.635276)scale(0.1 -0.1)">
       <use xlink:href="#DejaVuSans-45"/>
       <use x="36.083984" xlink:href="#DejaVuSans-49"/>
       <use x="99.707031" xlink:href="#DejaVuSans-46"/>
       <use x="131.494141" xlink:href="#DejaVuSans-48"/>
      </g>
     </g>
    </g>
    <g id="ytick_5">
     <g id="line2d_11">
      <path clip-path="url(#pf897db6278)" d="M 50.9 165.354663 
L 1141.2 165.354663 
" style="fill:none;stroke:#b0b0b0;stroke-linecap:square;stroke-width:0.8;"/>
     </g>
     <g id="line2d_12">
      <g>
       <use style="stroke:#000000;stroke-width:0.8;" x="50.9" xlink:href="#m57b7269395" y="165.354663"/>
      </g>
     </g>
     <g id="text_6">
      <!-- -0.5 -->
      <g transform="translate(24.389062 169.153882)scale(0.1 -0.1)">
       <use xlink:href="#DejaVuSans-45"/>
       <use x="36.083984" xlink:href="#DejaVuSans-48"/>
       <use x="99.707031" xlink:href="#DejaVuSans-46"/>
       <use x="131.494141" xlink:href="#DejaVuSans-53"/>
      </g>
     </g>
    </g>
    <g id="ytick_6">
     <g id="line2d_13">
      <path clip-path="url(#pf897db6278)" d="M 50.9 128.873268 
L 1141.2 128.873268 
" style="fill:none;stroke:#b0b0b0;stroke-linecap:square;stroke-width:0.8;"/>
     </g>
     <g id="line2d_14">
      <g>
       <use style="stroke:#000000;stroke-width:0.8;" x="50.9" xlink:href="#m57b7269395" y="128.873268"/>
      </g>
     </g>
     <g id="text_7">
      <!-- 0.0 -->
      <g transform="translate(27.996875 132.672487)scale(0.1 -0.1)">
       <use xlink:href="#DejaVuSans-48"/>
       <use x="63.623047" xlink:href="#DejaVuSans-46"/>
       <use x="95.410156" xlink:href="#DejaVuSans-48"/>
      </g>
     </g>
    </g>
    <g id="ytick_7">
     <g id="line2d_15">
      <path clip-path="url(#pf897db6278)" d="M 50.9 92.391874 
L 1141.2 92.391874 
" style="fill:none;stroke:#b0b0b0;stroke-linecap:square;stroke-width:0.8;"/>
     </g>
     <g id="line2d_16">
      <g>
       <use style="stroke:#000000;stroke-width:0.8;" x="50.9" xlink:href="#m57b7269395" y="92.391874"/>
      </g>
     </g>
     <g id="text_8">
      <!-- 0.5 -->
      <g transform="translate(27.996875 96.191092)scale(0.1 -0.1)">
       <use xlink:href="#DejaVuSans-48"/>
       <use x="63.623047" xlink:href="#DejaVuSans-46"/>
       <use x="95.410156" xlink:href="#DejaVuSans-53"/>
      </g>
     </g>
    </g>
    <g id="ytick_8">
     <g id="line2d_17">
      <path clip-path="url(#pf897db6278)" d="M 50.9 55.910479 
L 1141.2 55.910479 
" style="fill:none;stroke:#b0b0b0;stroke-linecap:square;stroke-width:0.8;"/>
     </g>
     <g id="line2d_18">
      <g>
       <use style="stroke:#000000;stroke-width:0.8;" x="50.9" xlink:href="#m57b7269395" y="55.910479"/>
      </g>
     </g>
     <g id="text_9">
      <!-- 1.0 -->
      <g transform="translate(27.996875 59.709698)scale(0.1 -0.1)">
       <use xlink:href="#DejaVuSans-49"/>
       <use x="63.623047" xlink:href="#DejaVuSans-46"/>
       <use x="95.410156" xlink:href="#DejaVuSans-48"/>
      </g>
     </g>
    </g>
    <g id="text_10">
     <!-- log return cumsum -->
     <g transform="translate(18.309375 218.857969)rotate(-90)scale(0.1 -0.1)">
      <defs>
       <path d="M 9.421875 75.984375 
L 18.40625 75.984375 
L 18.40625 0 
L 9.421875 0 
z
" id="DejaVuSans-108"/>
       <path d="M 30.609375 48.390625 
Q 23.390625 48.390625 19.1875 42.75 
Q 14.984375 37.109375 14.984375 27.296875 
Q 14.984375 17.484375 19.15625 11.84375 
Q 23.34375 6.203125 30.609375 6.203125 
Q 37.796875 6.203125 41.984375 11.859375 
Q 46.1875 17.53125 46.1875 27.296875 
Q 46.1875 37.015625 41.984375 42.703125 
Q 37.796875 48.390625 30.609375 48.390625 
z
M 30.609375 56 
Q 42.328125 56 49.015625 48.375 
Q 55.71875 40.765625 55.71875 27.296875 
Q 55.71875 13.875 49.015625 6.21875 
Q 42.328125 -1.421875 30.609375 -1.421875 
Q 18.84375 -1.421875 12.171875 6.21875 
Q 5.515625 13.875 5.515625 27.296875 
Q 5.515625 40.765625 12.171875 48.375 
Q 18.84375 56 30.609375 56 
z
" id="DejaVuSans-111"/>
       <path d="M 45.40625 27.984375 
Q 45.40625 37.75 41.375 43.109375 
Q 37.359375 48.484375 30.078125 48.484375 
Q 22.859375 48.484375 18.828125 43.109375 
Q 14.796875 37.75 14.796875 27.984375 
Q 14.796875 18.265625 18.828125 12.890625 
Q 22.859375 7.515625 30.078125 7.515625 
Q 37.359375 7.515625 41.375 12.890625 
Q 45.40625 18.265625 45.40625 27.984375 
z
M 54.390625 6.78125 
Q 54.390625 -7.171875 48.1875 -13.984375 
Q 42 -20.796875 29.203125 -20.796875 
Q 24.46875 -20.796875 20.265625 -20.09375 
Q 16.0625 -19.390625 12.109375 -17.921875 
L 12.109375 -9.1875 
Q 16.0625 -11.328125 19.921875 -12.34375 
Q 23.78125 -13.375 27.78125 -13.375 
Q 36.625 -13.375 41.015625 -8.765625 
Q 45.40625 -4.15625 45.40625 5.171875 
L 45.40625 9.625 
Q 42.625 4.78125 38.28125 2.390625 
Q 33.9375 0 27.875 0 
Q 17.828125 0 11.671875 7.65625 
Q 5.515625 15.328125 5.515625 27.984375 
Q 5.515625 40.671875 11.671875 48.328125 
Q 17.828125 56 27.875 56 
Q 33.9375 56 38.28125 53.609375 
Q 42.625 51.21875 45.40625 46.390625 
L 45.40625 54.6875 
L 54.390625 54.6875 
z
" id="DejaVuSans-103"/>
       <path id="DejaVuSans-32"/>
       <path d="M 41.109375 46.296875 
Q 39.59375 47.171875 37.8125 47.578125 
Q 36.03125 48 33.890625 48 
Q 26.265625 48 22.1875 43.046875 
Q 18.109375 38.09375 18.109375 28.8125 
L 18.109375 0 
L 9.078125 0 
L 9.078125 54.6875 
L 18.109375 54.6875 
L 18.109375 46.1875 
Q 20.953125 51.171875 25.484375 53.578125 
Q 30.03125 56 36.53125 56 
Q 37.453125 56 38.578125 55.875 
Q 39.703125 55.765625 41.0625 55.515625 
z
" id="DejaVuSans-114"/>
       <path d="M 56.203125 29.59375 
L 56.203125 25.203125 
L 14.890625 25.203125 
Q 15.484375 15.921875 20.484375 11.0625 
Q 25.484375 6.203125 34.421875 6.203125 
Q 39.59375 6.203125 44.453125 7.46875 
Q 49.3125 8.734375 54.109375 11.28125 
L 54.109375 2.78125 
Q 49.265625 0.734375 44.1875 -0.34375 
Q 39.109375 -1.421875 33.890625 -1.421875 
Q 20.796875 -1.421875 13.15625 6.1875 
Q 5.515625 13.8125 5.515625 26.8125 
Q 5.515625 40.234375 12.765625 48.109375 
Q 20.015625 56 32.328125 56 
Q 43.359375 56 49.78125 48.890625 
Q 56.203125 41.796875 56.203125 29.59375 
z
M 47.21875 32.234375 
Q 47.125 39.59375 43.09375 43.984375 
Q 39.0625 48.390625 32.421875 48.390625 
Q 24.90625 48.390625 20.390625 44.140625 
Q 15.875 39.890625 15.1875 32.171875 
z
" id="DejaVuSans-101"/>
       <path d="M 18.3125 70.21875 
L 18.3125 54.6875 
L 36.8125 54.6875 
L 36.8125 47.703125 
L 18.3125 47.703125 
L 18.3125 18.015625 
Q 18.3125 11.328125 20.140625 9.421875 
Q 21.96875 7.515625 27.59375 7.515625 
L 36.8125 7.515625 
L 36.8125 0 
L 27.59375 0 
Q 17.1875 0 13.234375 3.875 
Q 9.28125 7.765625 9.28125 18.015625 
L 9.28125 47.703125 
L 2.6875 47.703125 
L 2.6875 54.6875 
L 9.28125 54.6875 
L 9.28125 70.21875 
z
" id="DejaVuSans-116"/>
       <path d="M 8.5 21.578125 
L 8.5 54.6875 
L 17.484375 54.6875 
L 17.484375 21.921875 
Q 17.484375 14.15625 20.5 10.265625 
Q 23.53125 6.390625 29.59375 6.390625 
Q 36.859375 6.390625 41.078125 11.03125 
Q 45.3125 15.671875 45.3125 23.6875 
L 45.3125 54.6875 
L 54.296875 54.6875 
L 54.296875 0 
L 45.3125 0 
L 45.3125 8.40625 
Q 42.046875 3.421875 37.71875 1 
Q 33.40625 -1.421875 27.6875 -1.421875 
Q 18.265625 -1.421875 13.375 4.4375 
Q 8.5 10.296875 8.5 21.578125 
z
M 31.109375 56 
z
" id="DejaVuSans-117"/>
       <path d="M 54.890625 33.015625 
L 54.890625 0 
L 45.90625 0 
L 45.90625 32.71875 
Q 45.90625 40.484375 42.875 44.328125 
Q 39.84375 48.1875 33.796875 48.1875 
Q 26.515625 48.1875 22.3125 43.546875 
Q 18.109375 38.921875 18.109375 30.90625 
L 18.109375 0 
L 9.078125 0 
L 9.078125 54.6875 
L 18.109375 54.6875 
L 18.109375 46.1875 
Q 21.34375 51.125 25.703125 53.5625 
Q 30.078125 56 35.796875 56 
Q 45.21875 56 50.046875 50.171875 
Q 54.890625 44.34375 54.890625 33.015625 
z
" id="DejaVuSans-110"/>
       <path d="M 48.78125 52.59375 
L 48.78125 44.1875 
Q 44.96875 46.296875 41.140625 47.34375 
Q 37.3125 48.390625 33.40625 48.390625 
Q 24.65625 48.390625 19.8125 42.84375 
Q 14.984375 37.3125 14.984375 27.296875 
Q 14.984375 17.28125 19.8125 11.734375 
Q 24.65625 6.203125 33.40625 6.203125 
Q 37.3125 6.203125 41.140625 7.25 
Q 44.96875 8.296875 48.78125 10.40625 
L 48.78125 2.09375 
Q 45.015625 0.34375 40.984375 -0.53125 
Q 36.96875 -1.421875 32.421875 -1.421875 
Q 20.0625 -1.421875 12.78125 6.34375 
Q 5.515625 14.109375 5.515625 27.296875 
Q 5.515625 40.671875 12.859375 48.328125 
Q 20.21875 56 33.015625 56 
Q 37.15625 56 41.109375 55.140625 
Q 45.0625 54.296875 48.78125 52.59375 
z
" id="DejaVuSans-99"/>
       <path d="M 52 44.1875 
Q 55.375 50.25 60.0625 53.125 
Q 64.75 56 71.09375 56 
Q 79.640625 56 84.28125 50.015625 
Q 88.921875 44.046875 88.921875 33.015625 
L 88.921875 0 
L 79.890625 0 
L 79.890625 32.71875 
Q 79.890625 40.578125 77.09375 44.375 
Q 74.3125 48.1875 68.609375 48.1875 
Q 61.625 48.1875 57.5625 43.546875 
Q 53.515625 38.921875 53.515625 30.90625 
L 53.515625 0 
L 44.484375 0 
L 44.484375 32.71875 
Q 44.484375 40.625 41.703125 44.40625 
Q 38.921875 48.1875 33.109375 48.1875 
Q 26.21875 48.1875 22.15625 43.53125 
Q 18.109375 38.875 18.109375 30.90625 
L 18.109375 0 
L 9.078125 0 
L 9.078125 54.6875 
L 18.109375 54.6875 
L 18.109375 46.1875 
Q 21.1875 51.21875 25.484375 53.609375 
Q 29.78125 56 35.6875 56 
Q 41.65625 56 45.828125 52.96875 
Q 50 49.953125 52 44.1875 
z
" id="DejaVuSans-109"/>
       <path d="M 44.28125 53.078125 
L 44.28125 44.578125 
Q 40.484375 46.53125 36.375 47.5 
Q 32.28125 48.484375 27.875 48.484375 
Q 21.1875 48.484375 17.84375 46.4375 
Q 14.5 44.390625 14.5 40.28125 
Q 14.5 37.15625 16.890625 35.375 
Q 19.28125 33.59375 26.515625 31.984375 
L 29.59375 31.296875 
Q 39.15625 29.25 43.1875 25.515625 
Q 47.21875 21.78125 47.21875 15.09375 
Q 47.21875 7.46875 41.1875 3.015625 
Q 35.15625 -1.421875 24.609375 -1.421875 
Q 20.21875 -1.421875 15.453125 -0.5625 
Q 10.6875 0.296875 5.421875 2 
L 5.421875 11.28125 
Q 10.40625 8.6875 15.234375 7.390625 
Q 20.0625 6.109375 24.8125 6.109375 
Q 31.15625 6.109375 34.5625 8.28125 
Q 37.984375 10.453125 37.984375 14.40625 
Q 37.984375 18.0625 35.515625 20.015625 
Q 33.0625 21.96875 24.703125 23.78125 
L 21.578125 24.515625 
Q 13.234375 26.265625 9.515625 29.90625 
Q 5.8125 33.546875 5.8125 39.890625 
Q 5.8125 47.609375 11.28125 51.796875 
Q 16.75 56 26.8125 56 
Q 31.78125 56 36.171875 55.265625 
Q 40.578125 54.546875 44.28125 53.078125 
z
" id="DejaVuSans-115"/>
      </defs>
      <use xlink:href="#DejaVuSans-108"/>
      <use x="27.783203" xlink:href="#DejaVuSans-111"/>
      <use x="88.964844" xlink:href="#DejaVuSans-103"/>
      <use x="152.441406" xlink:href="#DejaVuSans-32"/>
      <use x="184.228516" xlink:href="#DejaVuSans-114"/>
      <use x="223.091797" xlink:href="#DejaVuSans-101"/>
      <use x="284.615234" xlink:href="#DejaVuSans-116"/>
      <use x="323.824219" xlink:href="#DejaVuSans-117"/>
      <use x="387.203125" xlink:href="#DejaVuSans-114"/>
      <use x="426.566406" xlink:href="#DejaVuSans-110"/>
      <use x="489.945312" xlink:href="#DejaVuSans-32"/>
      <use x="521.732422" xlink:href="#DejaVuSans-99"/>
      <use x="576.712891" xlink:href="#DejaVuSans-117"/>
      <use x="640.091797" xlink:href="#DejaVuSans-109"/>
      <use x="737.503906" xlink:href="#DejaVuSans-115"/>
      <use x="789.603516" xlink:href="#DejaVuSans-117"/>
      <use x="852.982422" xlink:href="#DejaVuSans-109"/>
     </g>
    </g>
   </g>
   <g id="line2d_19">
    <path clip-path="url(#pf897db6278)" d="M 100.459091 128.377018 
L 104.063388 128.157396 
L 107.667686 130.143181 
L 118.480579 130.750625 
L 122.084876 131.794188 
L 125.689174 129.927986 
L 129.293471 130.030356 
L 132.897769 125.568806 
L 143.710661 122.763223 
L 147.314959 122.269877 
L 150.919256 124.091027 
L 154.523554 121.737753 
L 158.127851 118.291341 
L 168.940744 124.507312 
L 172.545041 125.79148 
L 176.149339 122.441445 
L 179.753636 124.951503 
L 183.357934 124.89214 
L 194.170826 124.322373 
L 197.775124 120.196477 
L 201.379421 124.712377 
L 204.983719 124.323229 
L 208.588017 121.070367 
L 219.400909 121.424022 
L 223.005207 124.631937 
L 226.609504 124.886948 
L 230.213802 124.09004 
L 233.818099 128.096971 
L 244.630992 129.857093 
L 248.235289 129.967497 
L 251.839587 129.689906 
L 255.443884 129.660394 
L 259.048182 131.226722 
L 269.861074 131.845764 
L 273.465372 132.451547 
L 277.069669 132.640141 
L 280.673967 138.344642 
L 284.278264 132.227146 
L 295.091157 136.87385 
L 298.695455 132.532837 
L 302.299752 133.717498 
L 305.90405 134.07622 
L 309.508347 128.24053 
L 320.32124 131.058487 
L 323.925537 128.664359 
L 327.529835 128.506899 
L 331.134132 131.893319 
L 334.73843 129.909921 
L 345.551322 127.311958 
L 349.15562 128.589881 
L 352.759917 131.215472 
L 356.364215 131.696 
L 359.968512 130.016355 
L 370.781405 126.708968 
L 374.385702 126.212013 
L 377.99 131.31982 
L 381.594298 129.384307 
L 385.198595 128.240542 
L 396.011488 128.764069 
L 399.615785 123.80809 
L 403.220083 130.050979 
L 406.82438 124.543978 
L 410.428678 124.167712 
L 421.24157 127.778786 
L 424.845868 125.84949 
L 428.450165 124.816189 
L 432.054463 128.067984 
L 435.65876 134.306186 
L 446.471653 137.388467 
L 450.07595 138.067802 
L 453.680248 139.052298 
L 457.284545 133.111518 
L 460.888843 130.935437 
L 471.701736 125.730322 
L 475.306033 128.182103 
L 478.910331 128.582535 
L 482.514628 128.00241 
L 486.118926 127.877665 
L 496.931818 131.852081 
L 500.536116 135.202177 
L 504.140413 131.279613 
L 507.744711 134.827909 
L 511.349008 134.128828 
L 522.161901 137.967917 
L 525.766198 134.884698 
L 529.370496 131.278106 
L 532.974793 131.75553 
L 536.579091 130.813118 
L 547.391983 128.884992 
L 550.996281 124.919877 
L 554.600579 131.459826 
L 558.204876 133.123509 
L 561.809174 132.13663 
L 572.622066 135.339931 
L 576.226364 133.601484 
L 579.830661 131.564498 
L 583.434959 132.817812 
L 587.039256 136.40839 
L 597.852149 136.124218 
L 601.456446 132.086173 
L 605.060744 128.969721 
L 608.665041 128.647396 
L 612.269339 130.570525 
L 623.082231 134.899487 
L 626.686529 133.311758 
L 630.290826 130.694262 
L 633.895124 126.168515 
L 637.499421 122.968919 
L 648.312314 125.747157 
L 651.916612 122.083297 
L 655.520909 120.021845 
L 659.125207 120.718714 
L 662.729504 123.253449 
L 673.542397 123.907172 
L 680.750992 125.820536 
L 684.355289 128.451298 
L 687.959587 126.644583 
L 698.772479 128.011208 
L 702.376777 127.203744 
L 705.981074 132.480071 
L 709.585372 130.726767 
L 713.189669 127.09217 
L 724.002562 124.783574 
L 727.60686 123.170354 
L 731.211157 126.334196 
L 734.815455 122.032205 
L 738.419752 117.351315 
L 749.232645 118.237287 
L 752.836942 120.995535 
L 756.44124 118.253996 
L 760.045537 118.537288 
L 763.649835 121.521978 
L 774.462727 119.675941 
L 778.067025 122.525873 
L 781.671322 120.24321 
L 785.27562 122.28323 
L 788.879917 125.911711 
L 799.69281 126.838042 
L 803.297107 130.960055 
L 806.901405 132.006067 
L 810.505702 133.211918 
L 814.11 130.920016 
L 824.922893 124.728939 
L 828.52719 122.282665 
L 832.131488 118.805965 
L 835.735785 116.93445 
L 839.340083 119.39328 
L 850.152975 122.35082 
L 853.757273 119.230498 
L 857.36157 125.481617 
L 860.965868 128.180405 
L 864.570165 123.570613 
L 875.383058 122.103381 
L 878.987355 124.840566 
L 882.591653 118.985308 
L 886.19595 115.000285 
L 889.800248 108.646798 
L 900.61314 110.043042 
L 904.217438 111.347566 
L 907.821736 116.580578 
L 911.426033 116.695467 
L 915.030331 115.557308 
L 925.843223 116.901895 
L 929.447521 112.497264 
L 933.051818 108.761691 
L 936.656116 108.644206 
L 940.260413 103.365011 
L 951.073306 104.476727 
L 954.677603 109.514494 
L 958.281901 110.87749 
L 961.886198 107.765009 
L 965.490496 103.598045 
L 976.303388 107.811372 
L 979.907686 105.080801 
L 983.511983 102.81422 
L 987.116281 103.768919 
L 990.720579 109.520858 
L 1001.533471 105.41457 
L 1005.137769 106.177468 
L 1008.742066 104.993998 
L 1012.346364 105.92653 
L 1015.950661 107.928071 
L 1026.763554 105.076114 
L 1030.367851 106.532549 
L 1033.972149 105.343737 
L 1037.576446 100.636845 
L 1041.180744 100.853354 
L 1051.993636 104.047542 
L 1055.597934 107.140116 
L 1059.202231 105.216309 
L 1062.806529 106.024296 
L 1066.410826 102.317823 
L 1077.223719 103.006572 
L 1080.828017 106.46994 
L 1084.432314 106.252103 
L 1088.036612 106.964382 
L 1091.640909 106.964382 
L 1091.640909 106.964382 
" style="fill:none;stroke:#9467bd;stroke-linecap:square;stroke-width:1.5;"/>
   </g>
   <g id="line2d_20">
    <path clip-path="url(#pf897db6278)" d="M 100.459091 125.2288 
L 104.063388 125.358826 
L 107.667686 128.789818 
L 118.480579 129.870984 
L 122.084876 134.993589 
L 125.689174 135.065058 
L 129.293471 140.406309 
L 132.897769 140.711378 
L 143.710661 138.708984 
L 147.314959 135.445684 
L 150.919256 133.694058 
L 154.523554 132.974745 
L 158.127851 132.898165 
L 168.940744 128.726332 
L 172.545041 127.099647 
L 176.149339 124.578342 
L 179.753636 124.560821 
L 183.357934 127.86414 
L 194.170826 128.745173 
L 197.775124 128.864325 
L 201.379421 128.102318 
L 204.983719 133.578609 
L 208.588017 133.248407 
L 219.400909 133.059083 
L 223.005207 129.450916 
L 226.609504 130.46348 
L 230.213802 132.677091 
L 233.818099 133.277978 
L 244.630992 139.152118 
L 248.235289 141.749649 
L 251.839587 141.971088 
L 255.443884 143.216859 
L 259.048182 140.869418 
L 273.465372 140.16723 
L 277.069669 136.048233 
L 280.673967 143.334361 
L 284.278264 145.346736 
L 295.091157 147.314092 
L 298.695455 145.308131 
L 302.299752 142.950793 
L 305.90405 136.703613 
L 309.508347 131.8914 
L 320.32124 130.316144 
L 323.925537 124.634182 
L 327.529835 122.119909 
L 331.134132 123.590294 
L 334.73843 126.842727 
L 345.551322 122.898373 
L 349.15562 129.800564 
L 352.759917 130.158776 
L 356.364215 129.443271 
L 359.968512 130.538196 
L 370.781405 127.094461 
L 374.385702 125.508026 
L 377.99 126.823305 
L 381.594298 122.214039 
L 385.198595 123.011861 
L 396.011488 124.929133 
L 399.615785 122.355765 
L 403.220083 121.545354 
L 406.82438 121.473366 
L 410.428678 118.911492 
L 421.24157 118.598572 
L 424.845868 119.842766 
L 428.450165 121.268318 
L 432.054463 120.960092 
L 435.65876 123.968379 
L 446.471653 124.106587 
L 450.07595 123.006966 
L 453.680248 123.426652 
L 457.284545 130.08226 
L 460.888843 131.791607 
L 471.701736 128.757219 
L 475.306033 128.23197 
L 478.910331 130.220778 
L 482.514628 131.584908 
L 486.118926 126.870229 
L 496.931818 131.42002 
L 500.536116 128.855061 
L 504.140413 128.703625 
L 507.744711 128.774503 
L 511.349008 123.101354 
L 522.161901 117.413987 
L 525.766198 116.991925 
L 529.370496 116.937574 
L 532.974793 118.27684 
L 536.579091 122.29566 
L 547.391983 117.900927 
L 550.996281 113.64966 
L 554.600579 110.937322 
L 558.204876 107.079468 
L 561.809174 106.836169 
L 572.622066 109.038341 
L 576.226364 110.599362 
L 579.830661 110.708444 
L 583.434959 107.748678 
L 587.039256 106.994253 
L 597.852149 108.639715 
L 601.456446 103.199667 
L 605.060744 98.5142 
L 608.665041 102.259793 
L 612.269339 98.430387 
L 623.082231 100.929739 
L 626.686529 99.770566 
L 630.290826 102.252663 
L 633.895124 102.477129 
L 637.499421 104.668222 
L 648.312314 103.445229 
L 651.916612 105.583318 
L 655.520909 108.481964 
L 659.125207 112.184606 
L 662.729504 115.275212 
L 673.542397 115.078231 
L 677.146694 116.307899 
L 680.750992 113.79061 
L 684.355289 112.23587 
L 687.959587 112.97149 
L 698.772479 110.221375 
L 702.376777 108.872293 
L 705.981074 115.36576 
L 709.585372 118.992573 
L 713.189669 118.735778 
L 724.002562 119.964642 
L 727.60686 117.560191 
L 731.211157 122.21214 
L 734.815455 116.413978 
L 738.419752 111.795078 
L 749.232645 110.558174 
L 752.836942 115.176278 
L 756.44124 118.851001 
L 760.045537 118.123838 
L 763.649835 114.875425 
L 774.462727 112.016558 
L 778.067025 117.282871 
L 781.671322 121.646376 
L 785.27562 117.545172 
L 788.879917 114.783309 
L 799.69281 120.445463 
L 803.297107 118.694001 
L 806.901405 114.533852 
L 810.505702 111.61767 
L 814.11 110.106934 
L 824.922893 106.446372 
L 828.52719 102.585765 
L 832.131488 104.596095 
L 835.735785 110.125973 
L 839.340083 106.087317 
L 850.152975 105.439439 
L 853.757273 102.639132 
L 857.36157 98.294097 
L 860.965868 96.86714 
L 864.570165 90.709992 
L 875.383058 91.407541 
L 878.987355 88.5592 
L 882.591653 88.33772 
L 886.19595 89.106481 
L 889.800248 85.698067 
L 900.61314 85.74338 
L 904.217438 80.350508 
L 907.821736 81.493408 
L 911.426033 82.43682 
L 915.030331 77.95635 
L 925.843223 80.57059 
L 933.051818 82.640892 
L 936.656116 81.563869 
L 940.260413 81.721811 
L 951.073306 82.070185 
L 954.677603 86.128058 
L 958.281901 92.413763 
L 961.886198 91.856987 
L 965.490496 91.886315 
L 976.303388 91.569828 
L 979.907686 88.896354 
L 983.511983 93.328643 
L 987.116281 92.497263 
L 1001.533471 86.821786 
L 1005.137769 89.916003 
L 1008.742066 89.215623 
L 1012.346364 91.518566 
L 1015.950661 90.939319 
L 1026.763554 91.132814 
L 1030.367851 91.035698 
L 1033.972149 92.458679 
L 1037.576446 93.69761 
L 1041.180744 88.009738 
L 1051.993636 92.179782 
L 1055.597934 94.22734 
L 1059.202231 96.413808 
L 1062.806529 95.390878 
L 1066.410826 100.268203 
L 1077.223719 102.349824 
L 1080.828017 104.346161 
L 1084.432314 100.668061 
L 1088.036612 100.243902 
L 1091.640909 100.243902 
L 1091.640909 100.243902 
" style="fill:none;stroke:#1f77b4;stroke-linecap:square;stroke-width:1.5;"/>
   </g>
   <g id="line2d_21">
    <path clip-path="url(#pf897db6278)" d="M 100.459091 127.447608 
L 107.667686 137.849153 
L 118.480579 144.600811 
L 122.084876 139.443971 
L 125.689174 137.983166 
L 129.293471 135.008333 
L 132.897769 142.362735 
L 143.710661 135.808909 
L 147.314959 131.112185 
L 150.919256 135.435485 
L 158.127851 145.00547 
L 168.940744 147.9195 
L 172.545041 147.559132 
L 176.149339 148.559049 
L 179.753636 151.670979 
L 183.357934 150.056749 
L 194.170826 155.516746 
L 197.775124 158.614737 
L 201.379421 160.591394 
L 204.983719 161.235278 
L 208.588017 157.188178 
L 219.400909 161.707845 
L 223.005207 161.500423 
L 226.609504 160.164169 
L 230.213802 167.102282 
L 233.818099 165.549567 
L 244.630992 170.523193 
L 248.235289 177.163398 
L 251.839587 170.890554 
L 255.443884 164.393812 
L 259.048182 160.026839 
L 269.861074 162.935227 
L 273.465372 169.055915 
L 277.069669 166.41583 
L 280.673967 167.294427 
L 284.278264 173.029457 
L 295.091157 173.099873 
L 298.695455 180.231815 
L 302.299752 174.490698 
L 305.90405 178.098459 
L 309.508347 175.764571 
L 320.32124 178.56526 
L 323.925537 178.273002 
L 327.529835 177.594544 
L 331.134132 182.344645 
L 334.73843 175.795157 
L 345.551322 171.886836 
L 349.15562 165.739792 
L 352.759917 160.194424 
L 356.364215 158.779619 
L 359.968512 152.869367 
L 370.781405 159.135876 
L 374.385702 163.712867 
L 377.99 170.670612 
L 381.594298 173.265075 
L 385.198595 174.907915 
L 396.011488 178.323218 
L 399.615785 173.677208 
L 403.220083 175.798071 
L 406.82438 179.066941 
L 410.428678 178.446541 
L 421.24157 183.884048 
L 424.845868 179.602347 
L 428.450165 186.090887 
L 432.054463 179.310956 
L 435.65876 175.442592 
L 446.471653 179.977134 
L 450.07595 187.575051 
L 453.680248 183.111048 
L 457.284545 180.153241 
L 460.888843 176.885711 
L 471.701736 173.030834 
L 475.306033 179.527444 
L 478.910331 181.622587 
L 482.514628 187.455068 
L 486.118926 182.34002 
L 496.931818 180.562611 
L 500.536116 183.072935 
L 504.140413 189.737009 
L 507.744711 192.548749 
L 511.349008 195.145435 
L 522.161901 191.869547 
L 525.766198 189.889348 
L 529.370496 184.447037 
L 532.974793 184.853623 
L 536.579091 190.627244 
L 547.391983 187.579986 
L 550.996281 183.870387 
L 554.600579 182.981631 
L 558.204876 179.130949 
L 561.809174 179.221544 
L 572.622066 178.890565 
L 576.226364 179.955664 
L 579.830661 187.232076 
L 583.434959 193.190768 
L 587.039256 200.370345 
L 597.852149 198.406438 
L 601.456446 201.167031 
L 605.060744 201.04207 
L 608.665041 195.324614 
L 612.269339 199.077988 
L 623.082231 200.397592 
L 626.686529 196.760618 
L 630.290826 200.829522 
L 633.895124 207.279326 
L 637.499421 210.413763 
L 648.312314 215.532863 
L 651.916612 209.517406 
L 655.520909 205.15424 
L 659.125207 203.233055 
L 662.729504 198.004399 
L 673.542397 193.702403 
L 677.146694 198.42579 
L 680.750992 192.911107 
L 684.355289 192.33925 
L 687.959587 187.985434 
L 698.772479 182.422974 
L 702.376777 185.128309 
L 705.981074 191.0528 
L 709.585372 195.13502 
L 713.189669 196.206533 
L 724.002562 191.70749 
L 727.60686 186.624731 
L 731.211157 194.199493 
L 734.815455 194.042831 
L 738.419752 195.25808 
L 749.232645 199.430285 
L 752.836942 205.199624 
L 756.44124 207.608567 
L 760.045537 201.415786 
L 763.649835 204.042425 
L 774.462727 203.768735 
L 778.067025 200.864735 
L 781.671322 202.882369 
L 788.879917 189.849359 
L 799.69281 193.564489 
L 803.297107 193.604651 
L 806.901405 196.569788 
L 810.505702 199.779073 
L 814.11 206.870824 
L 824.922893 205.289266 
L 828.52719 205.250183 
L 832.131488 212.107644 
L 835.735785 215.411441 
L 839.340083 209.684548 
L 850.152975 213.587562 
L 853.757273 218.96267 
L 857.36157 219.116744 
L 860.965868 212.353257 
L 864.570165 216.217897 
L 875.383058 213.74827 
L 878.987355 210.027096 
L 882.591653 213.95974 
L 886.19595 210.703246 
L 889.800248 212.658597 
L 900.61314 210.753018 
L 904.217438 208.830043 
L 907.821736 208.309857 
L 911.426033 214.547794 
L 915.030331 209.811949 
L 925.843223 212.475248 
L 929.447521 217.199437 
L 933.051818 224.228686 
L 936.656116 222.914237 
L 940.260413 220.368066 
L 951.073306 227.787004 
L 954.677603 227.610748 
L 958.281901 231.715185 
L 961.886198 229.626914 
L 965.490496 234.540541 
L 976.303388 231.806154 
L 979.907686 233.477984 
L 983.511983 227.36809 
L 987.116281 232.859121 
L 990.720579 235.21603 
L 1001.533471 241.086387 
L 1005.137769 235.138205 
L 1008.742066 229.829739 
L 1012.346364 233.450355 
L 1015.950661 231.15235 
L 1026.763554 226.664181 
L 1030.367851 225.863074 
L 1033.972149 225.431675 
L 1037.576446 229.299437 
L 1041.180744 235.492675 
L 1051.993636 229.915012 
L 1055.597934 224.294071 
L 1059.202231 222.377183 
L 1062.806529 224.764793 
L 1066.410826 226.999074 
L 1077.223719 223.774135 
L 1084.432314 212.757298 
L 1088.036612 208.783408 
L 1088.036612 208.783408 
" style="fill:none;stroke:#8c564b;stroke-linecap:square;stroke-width:1.5;"/>
   </g>
   <g id="line2d_22">
    <path clip-path="url(#pf897db6278)" d="M 100.459091 129.821136 
L 104.063388 124.761196 
L 107.667686 121.762745 
L 118.480579 116.141208 
L 122.084876 122.817097 
L 125.689174 122.403525 
L 129.293471 125.611641 
L 132.897769 114.849229 
L 143.710661 118.959844 
L 147.314959 123.451474 
L 150.919256 121.090974 
L 154.523554 114.375136 
L 158.127851 106.649888 
L 168.940744 109.819702 
L 172.545041 111.472474 
L 176.149339 107.180022 
L 179.753636 106.603181 
L 183.357934 108.193213 
L 194.170826 102.58192 
L 197.775124 95.644513 
L 201.379421 98.114726 
L 204.983719 97.090707 
L 208.588017 97.930505 
L 219.400909 94.008123 
L 223.005207 97.433415 
L 226.609504 99.05442 
L 230.213802 91.988187 
L 233.818099 97.672195 
L 244.630992 94.666144 
L 248.235289 88.681726 
L 251.839587 95.240114 
L 255.443884 102.339846 
L 259.048182 108.655401 
L 269.861074 106.45418 
L 273.465372 101.367936 
L 277.069669 104.302966 
L 280.673967 109.069178 
L 284.278264 98.048347 
L 295.091157 102.620081 
L 298.695455 92.142508 
L 302.299752 99.665478 
L 305.90405 96.569908 
L 309.508347 92.957053 
L 320.32124 92.973671 
L 323.925537 90.863486 
L 327.529835 91.389369 
L 331.134132 90.110892 
L 334.73843 95.120864 
L 345.551322 96.504014 
L 349.15562 104.619253 
L 352.759917 113.476167 
L 356.364215 115.409106 
L 359.968512 120.00815 
L 370.781405 111.176455 
L 374.385702 106.40115 
L 377.99 104.717548 
L 381.594298 100.34117 
L 385.198595 97.615463 
L 396.011488 94.853457 
L 399.615785 94.523155 
L 403.220083 98.523788 
L 406.82438 90.111095 
L 410.428678 90.357316 
L 421.24157 88.660537 
L 424.845868 91.15758 
L 428.450165 84.246434 
L 432.054463 95.332952 
L 435.65876 106.032145 
L 446.471653 104.666579 
L 450.07595 98.403714 
L 453.680248 104.210007 
L 457.284545 101.106213 
L 460.888843 102.248045 
L 471.701736 100.825261 
L 475.306033 97.11641 
L 478.910331 95.469134 
L 482.514628 89.529686 
L 486.118926 94.896037 
L 496.931818 100.795589 
L 500.536116 101.606802 
L 504.140413 91.885451 
L 507.744711 92.594028 
L 511.349008 89.411015 
L 522.161901 96.869991 
L 525.766198 95.73686 
L 529.370496 97.716687 
L 532.974793 97.787132 
L 536.579091 91.56089 
L 547.391983 92.728136 
L 550.996281 92.459319 
L 554.600579 99.983925 
L 558.204876 105.809376 
L 561.809174 104.733231 
L 572.622066 108.283975 
L 576.226364 105.520299 
L 579.830661 97.041556 
L 583.434959 92.694412 
L 587.039256 89.434355 
L 597.852149 91.160464 
L 601.456446 84.603247 
L 605.060744 81.606732 
L 608.665041 87.459739 
L 612.269339 85.72018 
L 623.082231 88.674493 
L 626.686529 90.830037 
L 630.290826 84.491014 
L 633.895124 74.382706 
L 637.499421 68.304231 
L 648.312314 66.119626 
L 659.125207 73.812066 
L 662.729504 82.18657 
L 673.542397 87.454395 
L 677.146694 83.875905 
L 680.750992 90.929354 
L 684.355289 94.157738 
L 687.959587 96.864395 
L 698.772479 104.371584 
L 702.376777 100.983726 
L 705.981074 100.385906 
L 709.585372 94.856184 
L 713.189669 90.216545 
L 724.002562 92.548561 
L 727.60686 96.274913 
L 731.211157 92.287291 
L 734.815455 88.133301 
L 738.419752 82.330781 
L 749.232645 79.223359 
L 752.836942 76.436878 
L 756.44124 71.448079 
L 760.045537 78.526525 
L 763.649835 78.871886 
L 774.462727 77.293692 
L 778.067025 83.291121 
L 781.671322 79.10481 
L 785.27562 88.591993 
L 788.879917 99.681658 
L 799.69281 97.028819 
L 803.297107 101.108359 
L 810.505702 97.34636 
L 814.11 88.782867 
L 824.922893 84.075531 
L 828.52719 81.667072 
L 832.131488 72.202433 
L 835.735785 67.248635 
L 839.340083 76.145134 
L 850.152975 75.248607 
L 853.757273 67.324964 
L 857.36157 73.408596 
L 860.965868 83.85886 
L 864.570165 75.798352 
L 875.383058 76.835504 
L 878.987355 83.648054 
L 882.591653 74.342379 
L 886.19595 73.580771 
L 889.800248 65.479895 
L 900.61314 68.871149 
L 904.217438 72.186829 
L 907.821736 77.982869 
L 911.426033 72.342676 
L 915.030331 76.188091 
L 925.843223 74.916238 
L 929.447521 66.327396 
L 933.051818 56.487632 
L 936.656116 57.706539 
L 940.260413 54.878313 
L 951.073306 49.157627 
L 954.677603 54.384723 
L 958.281901 51.790608 
L 961.886198 50.736874 
L 965.490496 42.214482 
L 976.303388 49.441087 
L 979.907686 45.135529 
L 983.511983 49.324356 
L 987.116281 45.107572 
L 990.720579 48.392218 
L 1001.533471 39.14 
L 1005.137769 46.450606 
L 1008.742066 50.896579 
L 1012.346364 48.336374 
L 1015.950661 52.777764 
L 1026.763554 54.519032 
L 1030.367851 56.801891 
L 1033.972149 56.040011 
L 1037.576446 47.884238 
L 1041.180744 42.376006 
L 1051.993636 51.892123 
L 1055.597934 61.350615 
L 1059.202231 61.343512 
L 1062.806529 59.814214 
L 1066.410826 54.045726 
L 1077.223719 58.141333 
L 1080.828017 67.949283 
L 1084.432314 73.592409 
L 1088.036612 78.549998 
L 1088.036612 78.549998 
" style="fill:none;stroke:#e377c2;stroke-linecap:square;stroke-width:1.5;"/>
   </g>
   <g id="line2d_23">
    <path clip-path="url(#pf897db6278)" d="M 100.459091 131.207557 
L 104.063388 136.268766 
L 107.667686 137.956483 
L 118.480579 143.540294 
L 122.084876 133.913845 
L 125.689174 132.383056 
L 129.293471 124.623904 
L 132.897769 131.642363 
L 147.314959 125.469942 
L 150.919256 131.698957 
L 154.523554 137.272365 
L 158.127851 142.126896 
L 168.940744 149.651957 
L 172.545041 150.947077 
L 176.149339 154.595252 
L 179.753636 157.725471 
L 183.357934 153.018725 
L 194.170826 157.540992 
L 197.775124 160.514869 
L 201.379421 163.282838 
L 204.983719 158.789321 
L 208.588017 155.055988 
L 219.400909 159.777617 
L 223.005207 163.355059 
L 226.609504 161.038104 
L 230.213802 165.616896 
L 233.818099 163.480701 
L 244.630992 162.64945 
L 248.235289 166.546887 
L 251.839587 160.071437 
L 255.443884 152.453388 
L 259.048182 150.368759 
L 269.861074 153.804272 
L 273.465372 160.142239 
L 277.069669 161.707969 
L 280.673967 155.885757 
L 284.278264 159.504588 
L 295.091157 157.657479 
L 298.695455 167.067239 
L 302.299752 163.574967 
L 305.90405 174.379296 
L 309.508347 177.029694 
L 320.32124 181.50413 
L 323.925537 187.348271 
L 327.529835 189.249295 
L 331.134132 192.462116 
L 334.73843 183.061174 
L 345.551322 183.09921 
L 349.15562 171.136557 
L 352.759917 165.260756 
L 356.364215 164.554598 
L 359.968512 157.648976 
L 370.781405 167.862912 
L 374.385702 174.167841 
L 377.99 179.705578 
L 381.594298 187.40472 
L 385.198595 188.240496 
L 396.011488 189.699284 
L 399.615785 187.55332 
L 403.220083 190.518008 
L 406.82438 193.862241 
L 410.428678 195.87406 
L 421.24157 201.650206 
L 424.845868 196.214348 
L 428.450165 201.175967 
L 435.65876 188.066955 
L 446.471653 192.454715 
L 450.07595 201.292655 
L 453.680248 196.436064 
L 457.284545 187.612159 
L 460.888843 182.746766 
L 471.701736 181.891638 
L 475.306033 188.96677 
L 478.910331 189.070243 
L 482.514628 193.453292 
L 486.118926 193.026275 
L 496.931818 187.066383 
L 500.536116 192.329965 
L 504.140413 199.16032 
L 507.744711 201.898469 
L 511.349008 210.879802 
L 522.161901 213.490311 
L 525.766198 211.923231 
L 529.370496 206.531401 
L 532.974793 205.615579 
L 536.579091 207.27526 
L 550.996281 209.281511 
L 554.600579 211.175064 
L 558.204876 211.182625 
L 561.809174 211.517637 
L 572.622066 209.058545 
L 576.226364 208.573085 
L 579.830661 215.729165 
L 583.434959 225.041417 
L 587.039256 233.062584 
L 597.852149 229.531786 
L 601.456446 238.407394 
L 605.060744 243.280693 
L 608.665041 234.263112 
L 612.269339 242.277762 
L 623.082231 241.137433 
L 626.686529 238.62063 
L 630.290826 240.153801 
L 633.895124 246.35918 
L 637.499421 247.274441 
L 648.312314 253.728618 
L 651.916612 245.798197 
L 655.520909 238.806103 
L 659.125207 233.450586 
L 662.729504 225.458145 
L 673.542397 221.34234 
L 677.146694 224.776275 
L 680.750992 221.675868 
L 684.355289 222.680066 
L 687.959587 217.639961 
L 698.772479 214.721722 
L 702.376777 218.853987 
L 705.981074 218.333287 
L 709.585372 218.766545 
L 713.189669 220.099579 
L 724.002562 214.463736 
L 727.60686 211.697373 
L 731.211157 214.436219 
L 738.419752 226.796623 
L 749.232645 232.301789 
L 752.836942 233.381891 
L 756.44124 232.177773 
L 760.045537 226.65943 
L 763.649835 232.813553 
L 774.462727 235.503964 
L 778.067025 227.873886 
L 781.671322 225.662153 
L 785.27562 223.04385 
L 788.879917 219.212728 
L 799.69281 217.409304 
L 803.297107 219.245009 
L 806.901405 226.810788 
L 810.505702 233.197286 
L 814.11 241.99104 
L 824.922893 244.178628 
L 828.52719 248.213648 
L 832.131488 252.924703 
L 835.735785 250.858825 
L 839.340083 249.07567 
L 850.152975 253.668456 
L 853.757273 262.18314 
L 857.36157 266.967561 
L 860.965868 261.529468 
L 864.570165 272.503339 
L 875.383058 269.365659 
L 878.987355 268.458294 
L 882.591653 272.625414 
L 886.19595 268.641217 
L 889.800248 274.271642 
L 900.61314 272.321946 
L 904.217438 276.064969 
L 907.821736 274.427444 
L 911.426033 279.651456 
L 915.030331 279.379938 
L 925.843223 279.427269 
L 929.447521 283.087578 
L 933.051818 288.968409 
L 936.656116 288.727458 
L 940.260413 286.029086 
L 951.073306 293.064293 
L 954.677603 289.05304 
L 958.281901 287.049371 
L 961.886198 285.506268 
L 965.490496 290.388536 
L 976.303388 287.960299 
L 979.907686 292.472893 
L 983.511983 282.511558 
L 987.116281 288.909694 
L 990.720579 292.79061 
L 1001.533471 303.54 
L 1005.137769 294.851578 
L 1008.742066 290.200433 
L 1012.346364 291.476805 
L 1015.950661 289.744508 
L 1026.763554 285.074857 
L 1030.367851 284.369932 
L 1033.972149 282.550924 
L 1037.576446 285.134701 
L 1041.180744 298.069505 
L 1051.993636 288.830444 
L 1055.597934 281.363662 
L 1059.202231 277.378198 
L 1062.806529 280.838051 
L 1066.410826 278.363044 
L 1077.223719 273.200585 
L 1080.828017 265.822406 
L 1084.432314 263.969927 
L 1088.036612 260.399998 
L 1088.036612 260.399998 
" style="fill:none;stroke:#7f7f7f;stroke-linecap:square;stroke-width:1.5;"/>
   </g>
   <g id="line2d_24">
    <path clip-path="url(#pf897db6278)" d="M 100.459091 132.186448 
L 104.063388 131.837422 
L 107.667686 130.457977 
L 118.480579 129.9912 
L 122.084876 126.181628 
L 125.689174 124.245829 
L 132.897769 114.617306 
L 143.710661 113.791897 
L 147.314959 116.691101 
L 150.919256 120.352901 
L 154.523554 118.702934 
L 158.127851 115.329643 
L 168.940744 126.377333 
L 172.545041 129.355169 
L 176.149339 128.497472 
L 179.753636 131.025668 
L 183.357934 127.8086 
L 194.170826 126.375044 
L 197.775124 122.136725 
L 201.379421 127.472119 
L 204.983719 122.015343 
L 208.588017 119.079689 
L 219.400909 119.624085 
L 223.005207 126.803267 
L 226.609504 126.056101 
L 230.213802 123.133768 
L 233.818099 126.51122 
L 244.630992 122.707288 
L 248.235289 120.30573 
L 251.839587 119.808208 
L 255.443884 118.554329 
L 259.048182 122.599677 
L 269.861074 123.729503 
L 273.465372 124.536725 
L 277.069669 129.102477 
L 280.673967 127.669697 
L 284.278264 119.749415 
L 295.091157 122.356195 
L 298.695455 119.957113 
L 302.299752 123.618386 
L 305.90405 130.845005 
L 309.508347 129.752269 
L 320.32124 134.244375 
L 323.925537 137.805082 
L 327.529835 140.245923 
L 331.134132 142.123236 
L 334.73843 137.108009 
L 345.551322 138.529923 
L 349.15562 133.395883 
L 352.759917 135.651984 
L 356.364215 136.859902 
L 359.968512 134.125894 
L 370.781405 134.268837 
L 374.385702 135.382449 
L 377.99 139.105464 
L 381.594298 141.957026 
L 385.198595 140.036279 
L 396.011488 138.678346 
L 399.615785 136.211632 
L 403.220083 143.34769 
L 406.82438 137.907508 
L 410.428678 140.172445 
L 421.24157 144.113768 
L 424.845868 140.992804 
L 428.450165 138.580749 
L 432.054463 142.156216 
L 435.65876 145.252859 
L 446.471653 148.191247 
L 450.07595 149.997554 
L 453.680248 150.559111 
L 457.284545 138.978375 
L 460.888843 135.180614 
L 471.701736 132.919122 
L 475.306033 135.918107 
L 478.910331 134.371993 
L 482.514628 132.463285 
L 486.118926 137.37013 
L 496.931818 136.82941 
L 500.536116 142.965253 
L 504.140413 139.186489 
L 507.744711 142.660449 
L 511.349008 148.051921 
L 522.161901 158.408046 
L 525.766198 155.731731 
L 529.370496 152.176906 
L 532.974793 151.33065 
L 536.579091 146.626909 
L 547.391983 149.249436 
L 550.996281 149.552793 
L 554.600579 159.179648 
L 558.204876 165.013289 
L 561.809174 164.267239 
L 572.622066 165.238404 
L 576.226364 162.007254 
L 579.830661 159.864345 
L 587.039256 168.648749 
L 597.852149 166.761594 
L 601.456446 168.273257 
L 605.060744 169.947537 
L 608.665041 166.077878 
L 612.269339 172.153657 
L 623.082231 173.920902 
L 626.686529 173.485503 
L 630.290826 168.550836 
L 633.895124 163.814751 
L 637.499421 158.577954 
L 648.312314 162.64874 
L 651.916612 157.008032 
L 655.520909 152.234944 
L 659.125207 149.375023 
L 662.729504 148.842122 
L 673.542397 149.695139 
L 677.146694 149.382494 
L 680.750992 153.028089 
L 684.355289 157.30643 
L 687.959587 154.789163 
L 698.772479 159.06876 
L 702.376777 159.620525 
L 705.981074 158.506239 
L 709.585372 153.378066 
L 713.189669 149.988626 
L 724.002562 146.50886 
L 727.60686 147.326748 
L 731.211157 145.929685 
L 734.815455 147.550989 
L 738.419752 147.48495 
L 749.232645 149.644663 
L 752.836942 147.897522 
L 756.44124 141.783574 
L 760.045537 142.804222 
L 763.649835 149.334178 
L 774.462727 150.387776 
L 778.067025 148.137091 
L 781.671322 141.860626 
L 788.879917 155.021696 
L 799.69281 150.629064 
L 803.297107 156.651289 
L 806.901405 162.174769 
L 810.505702 166.469932 
L 814.11 165.672511 
L 824.922893 163.014145 
L 828.52719 164.50612 
L 832.131488 159.162882 
L 835.735785 152.277034 
L 839.340083 159.162303 
L 850.152975 162.800693 
L 853.757273 162.468186 
L 857.36157 173.767483 
L 860.965868 177.977107 
L 864.570165 179.662293 
L 875.383058 177.51781 
L 878.987355 183.334797 
L 882.591653 177.684537 
L 886.19595 172.979006 
L 889.800248 169.896026 
L 900.61314 171.246111 
L 904.217438 178.483595 
L 907.821736 182.508352 
L 911.426033 181.690414 
L 915.030331 185.249646 
L 925.843223 184.024305 
L 929.447521 178.680109 
L 933.051818 173.952583 
L 936.656116 174.926486 
L 940.260413 169.500679 
L 951.073306 170.260366 
L 954.677603 171.186912 
L 958.281901 166.658195 
L 961.886198 164.083255 
L 965.490496 159.888601 
L 976.303388 164.438734 
L 979.907686 164.379507 
L 983.511983 158.058857 
L 987.116281 159.86566 
L 990.720579 167.214995 
L 1001.533471 167.345714 
L 1005.137769 165.109727 
L 1008.742066 164.621992 
L 1012.346364 163.293776 
L 1015.950661 165.895504 
L 1026.763554 162.857953 
L 1030.367851 164.413595 
L 1033.972149 161.85137 
L 1037.576446 156.001751 
L 1041.180744 162.406442 
L 1051.993636 161.484454 
L 1055.597934 162.500348 
L 1059.202231 158.508159 
L 1062.806529 160.365259 
L 1066.410826 152.306983 
L 1077.223719 150.952927 
L 1080.828017 152.379974 
L 1084.432314 156.023682 
L 1088.036612 157.166798 
L 1091.640909 157.166798 
L 1091.640909 157.166798 
" style="fill:none;stroke:#bcbd22;stroke-linecap:square;stroke-width:1.5;"/>
   </g>
   <g id="patch_3">
    <path d="M 50.9 316.76 
L 50.9 25.92 
" style="fill:none;stroke:#000000;stroke-linecap:square;stroke-linejoin:miter;stroke-width:0.8;"/>
   </g>
   <g id="patch_4">
    <path d="M 1141.2 316.76 
L 1141.2 25.92 
" style="fill:none;stroke:#000000;stroke-linecap:square;stroke-linejoin:miter;stroke-width:0.8;"/>
   </g>
   <g id="patch_5">
    <path d="M 50.9 316.76 
L 1141.2 316.76 
" style="fill:none;stroke:#000000;stroke-linecap:square;stroke-linejoin:miter;stroke-width:0.8;"/>
   </g>
   <g id="patch_6">
    <path d="M 50.9 25.92 
L 1141.2 25.92 
" style="fill:none;stroke:#000000;stroke-linecap:square;stroke-linejoin:miter;stroke-width:0.8;"/>
   </g>
   <g id="text_11">
    <!-- Cumulative Log Return: (2010-01-06 ~ 2010-10-08) -->
    <g transform="translate(440.172812 19.92)scale(0.12 -0.12)">
     <defs>
      <path d="M 64.40625 67.28125 
L 64.40625 56.890625 
Q 59.421875 61.53125 53.78125 63.8125 
Q 48.140625 66.109375 41.796875 66.109375 
Q 29.296875 66.109375 22.65625 58.46875 
Q 16.015625 50.828125 16.015625 36.375 
Q 16.015625 21.96875 22.65625 14.328125 
Q 29.296875 6.6875 41.796875 6.6875 
Q 48.140625 6.6875 53.78125 8.984375 
Q 59.421875 11.28125 64.40625 15.921875 
L 64.40625 5.609375 
Q 59.234375 2.09375 53.4375 0.328125 
Q 47.65625 -1.421875 41.21875 -1.421875 
Q 24.65625 -1.421875 15.125 8.703125 
Q 5.609375 18.84375 5.609375 36.375 
Q 5.609375 53.953125 15.125 64.078125 
Q 24.65625 74.21875 41.21875 74.21875 
Q 47.75 74.21875 53.53125 72.484375 
Q 59.328125 70.75 64.40625 67.28125 
z
" id="DejaVuSans-67"/>
      <path d="M 34.28125 27.484375 
Q 23.390625 27.484375 19.1875 25 
Q 14.984375 22.515625 14.984375 16.5 
Q 14.984375 11.71875 18.140625 8.90625 
Q 21.296875 6.109375 26.703125 6.109375 
Q 34.1875 6.109375 38.703125 11.40625 
Q 43.21875 16.703125 43.21875 25.484375 
L 43.21875 27.484375 
z
M 52.203125 31.203125 
L 52.203125 0 
L 43.21875 0 
L 43.21875 8.296875 
Q 40.140625 3.328125 35.546875 0.953125 
Q 30.953125 -1.421875 24.3125 -1.421875 
Q 15.921875 -1.421875 10.953125 3.296875 
Q 6 8.015625 6 15.921875 
Q 6 25.140625 12.171875 29.828125 
Q 18.359375 34.515625 30.609375 34.515625 
L 43.21875 34.515625 
L 43.21875 35.40625 
Q 43.21875 41.609375 39.140625 45 
Q 35.0625 48.390625 27.6875 48.390625 
Q 23 48.390625 18.546875 47.265625 
Q 14.109375 46.140625 10.015625 43.890625 
L 10.015625 52.203125 
Q 14.9375 54.109375 19.578125 55.046875 
Q 24.21875 56 28.609375 56 
Q 40.484375 56 46.34375 49.84375 
Q 52.203125 43.703125 52.203125 31.203125 
z
" id="DejaVuSans-97"/>
      <path d="M 9.421875 54.6875 
L 18.40625 54.6875 
L 18.40625 0 
L 9.421875 0 
z
M 9.421875 75.984375 
L 18.40625 75.984375 
L 18.40625 64.59375 
L 9.421875 64.59375 
z
" id="DejaVuSans-105"/>
      <path d="M 2.984375 54.6875 
L 12.5 54.6875 
L 29.59375 8.796875 
L 46.6875 54.6875 
L 56.203125 54.6875 
L 35.6875 0 
L 23.484375 0 
z
" id="DejaVuSans-118"/>
      <path d="M 9.8125 72.90625 
L 19.671875 72.90625 
L 19.671875 8.296875 
L 55.171875 8.296875 
L 55.171875 0 
L 9.8125 0 
z
" id="DejaVuSans-76"/>
      <path d="M 44.390625 34.1875 
Q 47.5625 33.109375 50.5625 29.59375 
Q 53.5625 26.078125 56.59375 19.921875 
L 66.609375 0 
L 56 0 
L 46.6875 18.703125 
Q 43.0625 26.03125 39.671875 28.421875 
Q 36.28125 30.8125 30.421875 30.8125 
L 19.671875 30.8125 
L 19.671875 0 
L 9.8125 0 
L 9.8125 72.90625 
L 32.078125 72.90625 
Q 44.578125 72.90625 50.734375 67.671875 
Q 56.890625 62.453125 56.890625 51.90625 
Q 56.890625 45.015625 53.6875 40.46875 
Q 50.484375 35.9375 44.390625 34.1875 
z
M 19.671875 64.796875 
L 19.671875 38.921875 
L 32.078125 38.921875 
Q 39.203125 38.921875 42.84375 42.21875 
Q 46.484375 45.515625 46.484375 51.90625 
Q 46.484375 58.296875 42.84375 61.546875 
Q 39.203125 64.796875 32.078125 64.796875 
z
" id="DejaVuSans-82"/>
      <path d="M 11.71875 12.40625 
L 22.015625 12.40625 
L 22.015625 0 
L 11.71875 0 
z
M 11.71875 51.703125 
L 22.015625 51.703125 
L 22.015625 39.3125 
L 11.71875 39.3125 
z
" id="DejaVuSans-58"/>
      <path d="M 31 75.875 
Q 24.46875 64.65625 21.28125 53.65625 
Q 18.109375 42.671875 18.109375 31.390625 
Q 18.109375 20.125 21.3125 9.0625 
Q 24.515625 -2 31 -13.1875 
L 23.1875 -13.1875 
Q 15.875 -1.703125 12.234375 9.375 
Q 8.59375 20.453125 8.59375 31.390625 
Q 8.59375 42.28125 12.203125 53.3125 
Q 15.828125 64.359375 23.1875 75.875 
z
" id="DejaVuSans-40"/>
      <path d="M 33.015625 40.375 
Q 26.375 40.375 22.484375 35.828125 
Q 18.609375 31.296875 18.609375 23.390625 
Q 18.609375 15.53125 22.484375 10.953125 
Q 26.375 6.390625 33.015625 6.390625 
Q 39.65625 6.390625 43.53125 10.953125 
Q 47.40625 15.53125 47.40625 23.390625 
Q 47.40625 31.296875 43.53125 35.828125 
Q 39.65625 40.375 33.015625 40.375 
z
M 52.59375 71.296875 
L 52.59375 62.3125 
Q 48.875 64.0625 45.09375 64.984375 
Q 41.3125 65.921875 37.59375 65.921875 
Q 27.828125 65.921875 22.671875 59.328125 
Q 17.53125 52.734375 16.796875 39.40625 
Q 19.671875 43.65625 24.015625 45.921875 
Q 28.375 48.1875 33.59375 48.1875 
Q 44.578125 48.1875 50.953125 41.515625 
Q 57.328125 34.859375 57.328125 23.390625 
Q 57.328125 12.15625 50.6875 5.359375 
Q 44.046875 -1.421875 33.015625 -1.421875 
Q 20.359375 -1.421875 13.671875 8.265625 
Q 6.984375 17.96875 6.984375 36.375 
Q 6.984375 53.65625 15.1875 63.9375 
Q 23.390625 74.21875 37.203125 74.21875 
Q 40.921875 74.21875 44.703125 73.484375 
Q 48.484375 72.75 52.59375 71.296875 
z
" id="DejaVuSans-54"/>
      <path d="M 73.1875 39.890625 
L 73.1875 31.203125 
Q 68.0625 27.34375 63.6875 25.6875 
Q 59.328125 24.03125 54.59375 24.03125 
Q 49.21875 24.03125 42.09375 26.90625 
Q 41.546875 27.09375 41.3125 27.203125 
Q 40.96875 27.34375 40.234375 27.59375 
Q 32.671875 30.609375 28.078125 30.609375 
Q 23.78125 30.609375 19.578125 28.734375 
Q 15.375 26.859375 10.59375 22.796875 
L 10.59375 31.5 
Q 15.71875 35.359375 20.09375 37.03125 
Q 24.46875 38.71875 29.203125 38.71875 
Q 34.578125 38.71875 41.75 35.796875 
Q 42.234375 35.59375 42.484375 35.5 
Q 42.875 35.359375 43.5625 35.109375 
Q 51.125 32.078125 55.71875 32.078125 
Q 59.90625 32.078125 64.03125 33.9375 
Q 68.171875 35.796875 73.1875 39.890625 
z
" id="DejaVuSans-126"/>
      <path d="M 31.78125 34.625 
Q 24.75 34.625 20.71875 30.859375 
Q 16.703125 27.09375 16.703125 20.515625 
Q 16.703125 13.921875 20.71875 10.15625 
Q 24.75 6.390625 31.78125 6.390625 
Q 38.8125 6.390625 42.859375 10.171875 
Q 46.921875 13.96875 46.921875 20.515625 
Q 46.921875 27.09375 42.890625 30.859375 
Q 38.875 34.625 31.78125 34.625 
z
M 21.921875 38.8125 
Q 15.578125 40.375 12.03125 44.71875 
Q 8.5 49.078125 8.5 55.328125 
Q 8.5 64.0625 14.71875 69.140625 
Q 20.953125 74.21875 31.78125 74.21875 
Q 42.671875 74.21875 48.875 69.140625 
Q 55.078125 64.0625 55.078125 55.328125 
Q 55.078125 49.078125 51.53125 44.71875 
Q 48 40.375 41.703125 38.8125 
Q 48.828125 37.15625 52.796875 32.3125 
Q 56.78125 27.484375 56.78125 20.515625 
Q 56.78125 9.90625 50.3125 4.234375 
Q 43.84375 -1.421875 31.78125 -1.421875 
Q 19.734375 -1.421875 13.25 4.234375 
Q 6.78125 9.90625 6.78125 20.515625 
Q 6.78125 27.484375 10.78125 32.3125 
Q 14.796875 37.15625 21.921875 38.8125 
z
M 18.3125 54.390625 
Q 18.3125 48.734375 21.84375 45.5625 
Q 25.390625 42.390625 31.78125 42.390625 
Q 38.140625 42.390625 41.71875 45.5625 
Q 45.3125 48.734375 45.3125 54.390625 
Q 45.3125 60.0625 41.71875 63.234375 
Q 38.140625 66.40625 31.78125 66.40625 
Q 25.390625 66.40625 21.84375 63.234375 
Q 18.3125 60.0625 18.3125 54.390625 
z
" id="DejaVuSans-56"/>
      <path d="M 8.015625 75.875 
L 15.828125 75.875 
Q 23.140625 64.359375 26.78125 53.3125 
Q 30.421875 42.28125 30.421875 31.390625 
Q 30.421875 20.453125 26.78125 9.375 
Q 23.140625 -1.703125 15.828125 -13.1875 
L 8.015625 -13.1875 
Q 14.5 -2 17.703125 9.0625 
Q 20.90625 20.125 20.90625 31.390625 
Q 20.90625 42.671875 17.703125 53.65625 
Q 14.5 64.65625 8.015625 75.875 
z
" id="DejaVuSans-41"/>
     </defs>
     <use xlink:href="#DejaVuSans-67"/>
     <use x="69.824219" xlink:href="#DejaVuSans-117"/>
     <use x="133.203125" xlink:href="#DejaVuSans-109"/>
     <use x="230.615234" xlink:href="#DejaVuSans-117"/>
     <use x="293.994141" xlink:href="#DejaVuSans-108"/>
     <use x="321.777344" xlink:href="#DejaVuSans-97"/>
     <use x="383.056641" xlink:href="#DejaVuSans-116"/>
     <use x="422.265625" xlink:href="#DejaVuSans-105"/>
     <use x="450.048828" xlink:href="#DejaVuSans-118"/>
     <use x="509.228516" xlink:href="#DejaVuSans-101"/>
     <use x="570.751953" xlink:href="#DejaVuSans-32"/>
     <use x="602.539062" xlink:href="#DejaVuSans-76"/>
     <use x="656.501953" xlink:href="#DejaVuSans-111"/>
     <use x="717.683594" xlink:href="#DejaVuSans-103"/>
     <use x="781.160156" xlink:href="#DejaVuSans-32"/>
     <use x="812.947266" xlink:href="#DejaVuSans-82"/>
     <use x="877.929688" xlink:href="#DejaVuSans-101"/>
     <use x="939.453125" xlink:href="#DejaVuSans-116"/>
     <use x="978.662109" xlink:href="#DejaVuSans-117"/>
     <use x="1042.041016" xlink:href="#DejaVuSans-114"/>
     <use x="1081.404297" xlink:href="#DejaVuSans-110"/>
     <use x="1144.783203" xlink:href="#DejaVuSans-58"/>
     <use x="1178.474609" xlink:href="#DejaVuSans-32"/>
     <use x="1210.261719" xlink:href="#DejaVuSans-40"/>
     <use x="1249.275391" xlink:href="#DejaVuSans-50"/>
     <use x="1312.898438" xlink:href="#DejaVuSans-48"/>
     <use x="1376.521484" xlink:href="#DejaVuSans-49"/>
     <use x="1440.144531" xlink:href="#DejaVuSans-48"/>
     <use x="1503.767578" xlink:href="#DejaVuSans-45"/>
     <use x="1539.851562" xlink:href="#DejaVuSans-48"/>
     <use x="1603.474609" xlink:href="#DejaVuSans-49"/>
     <use x="1667.097656" xlink:href="#DejaVuSans-45"/>
     <use x="1703.181641" xlink:href="#DejaVuSans-48"/>
     <use x="1766.804688" xlink:href="#DejaVuSans-54"/>
     <use x="1830.427734" xlink:href="#DejaVuSans-32"/>
     <use x="1862.214844" xlink:href="#DejaVuSans-126"/>
     <use x="1946.003906" xlink:href="#DejaVuSans-32"/>
     <use x="1977.791016" xlink:href="#DejaVuSans-50"/>
     <use x="2041.414062" xlink:href="#DejaVuSans-48"/>
     <use x="2105.037109" xlink:href="#DejaVuSans-49"/>
     <use x="2168.660156" xlink:href="#DejaVuSans-48"/>
     <use x="2232.283203" xlink:href="#DejaVuSans-45"/>
     <use x="2268.367188" xlink:href="#DejaVuSans-49"/>
     <use x="2331.990234" xlink:href="#DejaVuSans-48"/>
     <use x="2395.613281" xlink:href="#DejaVuSans-45"/>
     <use x="2431.697266" xlink:href="#DejaVuSans-48"/>
     <use x="2495.320312" xlink:href="#DejaVuSans-56"/>
     <use x="2558.943359" xlink:href="#DejaVuSans-41"/>
    </g>
   </g>
   <g id="legend_1">
    <g id="patch_7">
     <path d="M 57.9 123.379375 
L 154.389062 123.379375 
Q 156.389062 123.379375 156.389062 121.379375 
L 156.389062 32.92 
Q 156.389062 30.92 154.389062 30.92 
L 57.9 30.92 
Q 55.9 30.92 55.9 32.92 
L 55.9 121.379375 
Q 55.9 123.379375 57.9 123.379375 
z
" style="fill:#ffffff;opacity:0.8;stroke:#cccccc;stroke-linejoin:miter;"/>
    </g>
    <g id="line2d_25">
     <path d="M 59.9 39.018437 
L 79.9 39.018437 
" style="fill:none;stroke:#9467bd;stroke-linecap:square;stroke-width:1.5;"/>
    </g>
    <g id="line2d_26"/>
    <g id="text_12">
     <!-- group_5 -->
     <g transform="translate(87.9 42.518437)scale(0.1 -0.1)">
      <defs>
       <path d="M 18.109375 8.203125 
L 18.109375 -20.796875 
L 9.078125 -20.796875 
L 9.078125 54.6875 
L 18.109375 54.6875 
L 18.109375 46.390625 
Q 20.953125 51.265625 25.265625 53.625 
Q 29.59375 56 35.59375 56 
Q 45.5625 56 51.78125 48.09375 
Q 58.015625 40.1875 58.015625 27.296875 
Q 58.015625 14.40625 51.78125 6.484375 
Q 45.5625 -1.421875 35.59375 -1.421875 
Q 29.59375 -1.421875 25.265625 0.953125 
Q 20.953125 3.328125 18.109375 8.203125 
z
M 48.6875 27.296875 
Q 48.6875 37.203125 44.609375 42.84375 
Q 40.53125 48.484375 33.40625 48.484375 
Q 26.265625 48.484375 22.1875 42.84375 
Q 18.109375 37.203125 18.109375 27.296875 
Q 18.109375 17.390625 22.1875 11.75 
Q 26.265625 6.109375 33.40625 6.109375 
Q 40.53125 6.109375 44.609375 11.75 
Q 48.6875 17.390625 48.6875 27.296875 
z
" id="DejaVuSans-112"/>
       <path d="M 50.984375 -16.609375 
L 50.984375 -23.578125 
L -0.984375 -23.578125 
L -0.984375 -16.609375 
z
" id="DejaVuSans-95"/>
      </defs>
      <use xlink:href="#DejaVuSans-103"/>
      <use x="63.476562" xlink:href="#DejaVuSans-114"/>
      <use x="102.339844" xlink:href="#DejaVuSans-111"/>
      <use x="163.521484" xlink:href="#DejaVuSans-117"/>
      <use x="226.900391" xlink:href="#DejaVuSans-112"/>
      <use x="290.376953" xlink:href="#DejaVuSans-95"/>
      <use x="340.376953" xlink:href="#DejaVuSans-53"/>
     </g>
    </g>
    <g id="line2d_27">
     <path d="M 59.9 53.974687 
L 79.9 53.974687 
" style="fill:none;stroke:#1f77b4;stroke-linecap:square;stroke-width:1.5;"/>
    </g>
    <g id="line2d_28"/>
    <g id="text_13">
     <!-- group_1 -->
     <g transform="translate(87.9 57.474687)scale(0.1 -0.1)">
      <use xlink:href="#DejaVuSans-103"/>
      <use x="63.476562" xlink:href="#DejaVuSans-114"/>
      <use x="102.339844" xlink:href="#DejaVuSans-111"/>
      <use x="163.521484" xlink:href="#DejaVuSans-117"/>
      <use x="226.900391" xlink:href="#DejaVuSans-112"/>
      <use x="290.376953" xlink:href="#DejaVuSans-95"/>
      <use x="340.376953" xlink:href="#DejaVuSans-49"/>
     </g>
    </g>
    <g id="line2d_29">
     <path d="M 59.9 68.930937 
L 79.9 68.930937 
" style="fill:none;stroke:#8c564b;stroke-linecap:square;stroke-width:1.5;"/>
    </g>
    <g id="line2d_30"/>
    <g id="text_14">
     <!-- benchmark -->
     <g transform="translate(87.9 72.430937)scale(0.1 -0.1)">
      <defs>
       <path d="M 48.6875 27.296875 
Q 48.6875 37.203125 44.609375 42.84375 
Q 40.53125 48.484375 33.40625 48.484375 
Q 26.265625 48.484375 22.1875 42.84375 
Q 18.109375 37.203125 18.109375 27.296875 
Q 18.109375 17.390625 22.1875 11.75 
Q 26.265625 6.109375 33.40625 6.109375 
Q 40.53125 6.109375 44.609375 11.75 
Q 48.6875 17.390625 48.6875 27.296875 
z
M 18.109375 46.390625 
Q 20.953125 51.265625 25.265625 53.625 
Q 29.59375 56 35.59375 56 
Q 45.5625 56 51.78125 48.09375 
Q 58.015625 40.1875 58.015625 27.296875 
Q 58.015625 14.40625 51.78125 6.484375 
Q 45.5625 -1.421875 35.59375 -1.421875 
Q 29.59375 -1.421875 25.265625 0.953125 
Q 20.953125 3.328125 18.109375 8.203125 
L 18.109375 0 
L 9.078125 0 
L 9.078125 75.984375 
L 18.109375 75.984375 
z
" id="DejaVuSans-98"/>
       <path d="M 54.890625 33.015625 
L 54.890625 0 
L 45.90625 0 
L 45.90625 32.71875 
Q 45.90625 40.484375 42.875 44.328125 
Q 39.84375 48.1875 33.796875 48.1875 
Q 26.515625 48.1875 22.3125 43.546875 
Q 18.109375 38.921875 18.109375 30.90625 
L 18.109375 0 
L 9.078125 0 
L 9.078125 75.984375 
L 18.109375 75.984375 
L 18.109375 46.1875 
Q 21.34375 51.125 25.703125 53.5625 
Q 30.078125 56 35.796875 56 
Q 45.21875 56 50.046875 50.171875 
Q 54.890625 44.34375 54.890625 33.015625 
z
" id="DejaVuSans-104"/>
       <path d="M 9.078125 75.984375 
L 18.109375 75.984375 
L 18.109375 31.109375 
L 44.921875 54.6875 
L 56.390625 54.6875 
L 27.390625 29.109375 
L 57.625 0 
L 45.90625 0 
L 18.109375 26.703125 
L 18.109375 0 
L 9.078125 0 
z
" id="DejaVuSans-107"/>
      </defs>
      <use xlink:href="#DejaVuSans-98"/>
      <use x="63.476562" xlink:href="#DejaVuSans-101"/>
      <use x="125" xlink:href="#DejaVuSans-110"/>
      <use x="188.378906" xlink:href="#DejaVuSans-99"/>
      <use x="243.359375" xlink:href="#DejaVuSans-104"/>
      <use x="306.738281" xlink:href="#DejaVuSans-109"/>
      <use x="404.150391" xlink:href="#DejaVuSans-97"/>
      <use x="465.429688" xlink:href="#DejaVuSans-114"/>
      <use x="506.542969" xlink:href="#DejaVuSans-107"/>
     </g>
    </g>
    <g id="line2d_31">
     <path d="M 59.9 83.609062 
L 79.9 83.609062 
" style="fill:none;stroke:#e377c2;stroke-linecap:square;stroke-width:1.5;"/>
    </g>
    <g id="line2d_32"/>
    <g id="text_15">
     <!-- long_excess -->
     <g transform="translate(87.9 87.109062)scale(0.1 -0.1)">
      <defs>
       <path d="M 54.890625 54.6875 
L 35.109375 28.078125 
L 55.90625 0 
L 45.3125 0 
L 29.390625 21.484375 
L 13.484375 0 
L 2.875 0 
L 24.125 28.609375 
L 4.6875 54.6875 
L 15.28125 54.6875 
L 29.78125 35.203125 
L 44.28125 54.6875 
z
" id="DejaVuSans-120"/>
      </defs>
      <use xlink:href="#DejaVuSans-108"/>
      <use x="27.783203" xlink:href="#DejaVuSans-111"/>
      <use x="88.964844" xlink:href="#DejaVuSans-110"/>
      <use x="152.34375" xlink:href="#DejaVuSans-103"/>
      <use x="215.820312" xlink:href="#DejaVuSans-95"/>
      <use x="265.820312" xlink:href="#DejaVuSans-101"/>
      <use x="325.59375" xlink:href="#DejaVuSans-120"/>
      <use x="383.023438" xlink:href="#DejaVuSans-99"/>
      <use x="438.003906" xlink:href="#DejaVuSans-101"/>
      <use x="499.527344" xlink:href="#DejaVuSans-115"/>
      <use x="551.626953" xlink:href="#DejaVuSans-115"/>
     </g>
    </g>
    <g id="line2d_33">
     <path d="M 59.9 98.565312 
L 79.9 98.565312 
" style="fill:none;stroke:#7f7f7f;stroke-linecap:square;stroke-width:1.5;"/>
    </g>
    <g id="line2d_34"/>
    <g id="text_16">
     <!-- short_excess -->
     <g transform="translate(87.9 102.065312)scale(0.1 -0.1)">
      <use xlink:href="#DejaVuSans-115"/>
      <use x="52.099609" xlink:href="#DejaVuSans-104"/>
      <use x="115.478516" xlink:href="#DejaVuSans-111"/>
      <use x="176.660156" xlink:href="#DejaVuSans-114"/>
      <use x="217.773438" xlink:href="#DejaVuSans-116"/>
      <use x="256.982422" xlink:href="#DejaVuSans-95"/>
      <use x="306.982422" xlink:href="#DejaVuSans-101"/>
      <use x="366.755859" xlink:href="#DejaVuSans-120"/>
      <use x="424.185547" xlink:href="#DejaVuSans-99"/>
      <use x="479.166016" xlink:href="#DejaVuSans-101"/>
      <use x="540.689453" xlink:href="#DejaVuSans-115"/>
      <use x="592.789062" xlink:href="#DejaVuSans-115"/>
     </g>
    </g>
    <g id="line2d_35">
     <path d="M 59.9 113.521562 
L 79.9 113.521562 
" style="fill:none;stroke:#bcbd22;stroke-linecap:square;stroke-width:1.5;"/>
    </g>
    <g id="line2d_36"/>
    <g id="text_17">
     <!-- long_short -->
     <g transform="translate(87.9 117.021562)scale(0.1 -0.1)">
      <use xlink:href="#DejaVuSans-108"/>
      <use x="27.783203" xlink:href="#DejaVuSans-111"/>
      <use x="88.964844" xlink:href="#DejaVuSans-110"/>
      <use x="152.34375" xlink:href="#DejaVuSans-103"/>
      <use x="215.820312" xlink:href="#DejaVuSans-95"/>
      <use x="265.820312" xlink:href="#DejaVuSans-115"/>
      <use x="317.919922" xlink:href="#DejaVuSans-104"/>
      <use x="381.298828" xlink:href="#DejaVuSans-111"/>
      <use x="442.480469" xlink:href="#DejaVuSans-114"/>
      <use x="483.59375" xlink:href="#DejaVuSans-116"/>
     </g>
    </g>
   </g>
  </g>
 </g>
 <defs>
  <clipPath id="pf897db6278">
   <rect height="290.84" width="1090.3" x="50.9" y="25.92"/>
  </clipPath>
 </defs>
</svg>
