<?xml version="1.0" encoding="utf-8" standalone="no"?>
<!DOCTYPE svg PUBLIC "-//W3C//DTD SVG 1.1//EN"
  "http://www.w3.org/Graphics/SVG/1.1/DTD/svg11.dtd">
<!-- Created with matplotlib (https://matplotlib.org/) -->
<svg height="360pt" version="1.1" viewBox="0 0 1152 360" width="1152pt" xmlns="http://www.w3.org/2000/svg" xmlns:xlink="http://www.w3.org/1999/xlink">
 <metadata>
  <rdf:RDF xmlns:cc="http://creativecommons.org/ns#" xmlns:dc="http://purl.org/dc/elements/1.1/" xmlns:rdf="http://www.w3.org/1999/02/22-rdf-syntax-ns#">
   <cc:Work>
    <dc:type rdf:resource="http://purl.org/dc/dcmitype/StillImage"/>
    <dc:date>2023-10-11T16:58:55.481687</dc:date>
    <dc:format>image/svg+xml</dc:format>
    <dc:creator>
     <cc:Agent>
      <dc:title>Matplotlib v3.3.4, https://matplotlib.org/</dc:title>
     </cc:Agent>
    </dc:creator>
   </cc:Work>
  </rdf:RDF>
 </metadata>
 <defs>
  <style type="text/css">*{stroke-linecap:butt;stroke-linejoin:round;}</style>
 </defs>
 <g id="figure_1">
  <g id="patch_1">
   <path d="M 0 360 
L 1152 360 
L 1152 0 
L 0 0 
z
" style="fill:#ffffff;"/>
  </g>
  <g id="axes_1">
   <g id="patch_2">
    <path d="M 50.9 345.7 
L 1141.2 345.7 
L 1141.2 25.92 
L 50.9 25.92 
z
" style="fill:#ffffff;"/>
   </g>
   <g id="matplotlib.axis_1"/>
   <g id="matplotlib.axis_2">
    <g id="ytick_1">
     <g id="line2d_1">
      <path clip-path="url(#p1294f1a031)" d="M 50.9 321.751157 
L 1141.2 321.751157 
" style="fill:none;stroke:#b0b0b0;stroke-linecap:square;stroke-width:0.8;"/>
     </g>
     <g id="line2d_2">
      <defs>
       <path d="M 0 0 
L -3.5 0 
" id="m51b3de546c" style="stroke:#000000;stroke-width:0.8;"/>
      </defs>
      <g>
       <use style="stroke:#000000;stroke-width:0.8;" x="50.9" xlink:href="#m51b3de546c" y="321.751157"/>
      </g>
     </g>
     <g id="text_1">
      <!-- -2.0 -->
      <g transform="translate(24.389062 325.550376)scale(0.1 -0.1)">
       <defs>
        <path d="M 4.890625 31.390625 
L 31.203125 31.390625 
L 31.203125 23.390625 
L 4.890625 23.390625 
z
" id="DejaVuSans-45"/>
        <path d="M 19.1875 8.296875 
L 53.609375 8.296875 
L 53.609375 0 
L 7.328125 0 
L 7.328125 8.296875 
Q 12.9375 14.109375 22.625 23.890625 
Q 32.328125 33.6875 34.8125 36.53125 
Q 39.546875 41.84375 41.421875 45.53125 
Q 43.3125 49.21875 43.3125 52.78125 
Q 43.3125 58.59375 39.234375 62.25 
Q 35.15625 65.921875 28.609375 65.921875 
Q 23.96875 65.921875 18.8125 64.3125 
Q 13.671875 62.703125 7.8125 59.421875 
L 7.8125 69.390625 
Q 13.765625 71.78125 18.9375 73 
Q 24.125 74.21875 28.421875 74.21875 
Q 39.75 74.21875 46.484375 68.546875 
Q 53.21875 62.890625 53.21875 53.421875 
Q 53.21875 48.921875 51.53125 44.890625 
Q 49.859375 40.875 45.40625 35.40625 
Q 44.1875 33.984375 37.640625 27.21875 
Q 31.109375 20.453125 19.1875 8.296875 
z
" id="DejaVuSans-50"/>
        <path d="M 10.6875 12.40625 
L 21 12.40625 
L 21 0 
L 10.6875 0 
z
" id="DejaVuSans-46"/>
        <path d="M 31.78125 66.40625 
Q 24.171875 66.40625 20.328125 58.90625 
Q 16.5 51.421875 16.5 36.375 
Q 16.5 21.390625 20.328125 13.890625 
Q 24.171875 6.390625 31.78125 6.390625 
Q 39.453125 6.390625 43.28125 13.890625 
Q 47.125 21.390625 47.125 36.375 
Q 47.125 51.421875 43.28125 58.90625 
Q 39.453125 66.40625 31.78125 66.40625 
z
M 31.78125 74.21875 
Q 44.046875 74.21875 50.515625 64.515625 
Q 56.984375 54.828125 56.984375 36.375 
Q 56.984375 17.96875 50.515625 8.265625 
Q 44.046875 -1.421875 31.78125 -1.421875 
Q 19.53125 -1.421875 13.0625 8.265625 
Q 6.59375 17.96875 6.59375 36.375 
Q 6.59375 54.828125 13.0625 64.515625 
Q 19.53125 74.21875 31.78125 74.21875 
z
" id="DejaVuSans-48"/>
       </defs>
       <use xlink:href="#DejaVuSans-45"/>
       <use x="36.083984" xlink:href="#DejaVuSans-50"/>
       <use x="99.707031" xlink:href="#DejaVuSans-46"/>
       <use x="131.494141" xlink:href="#DejaVuSans-48"/>
      </g>
     </g>
    </g>
    <g id="ytick_2">
     <g id="line2d_3">
      <path clip-path="url(#p1294f1a031)" d="M 50.9 275.993131 
L 1141.2 275.993131 
" style="fill:none;stroke:#b0b0b0;stroke-linecap:square;stroke-width:0.8;"/>
     </g>
     <g id="line2d_4">
      <g>
       <use style="stroke:#000000;stroke-width:0.8;" x="50.9" xlink:href="#m51b3de546c" y="275.993131"/>
      </g>
     </g>
     <g id="text_2">
      <!-- -1.5 -->
      <g transform="translate(24.389062 279.79235)scale(0.1 -0.1)">
       <defs>
        <path d="M 12.40625 8.296875 
L 28.515625 8.296875 
L 28.515625 63.921875 
L 10.984375 60.40625 
L 10.984375 69.390625 
L 28.421875 72.90625 
L 38.28125 72.90625 
L 38.28125 8.296875 
L 54.390625 8.296875 
L 54.390625 0 
L 12.40625 0 
z
" id="DejaVuSans-49"/>
        <path d="M 10.796875 72.90625 
L 49.515625 72.90625 
L 49.515625 64.59375 
L 19.828125 64.59375 
L 19.828125 46.734375 
Q 21.96875 47.46875 24.109375 47.828125 
Q 26.265625 48.1875 28.421875 48.1875 
Q 40.625 48.1875 47.75 41.5 
Q 54.890625 34.8125 54.890625 23.390625 
Q 54.890625 11.625 47.5625 5.09375 
Q 40.234375 -1.421875 26.90625 -1.421875 
Q 22.3125 -1.421875 17.546875 -0.640625 
Q 12.796875 0.140625 7.71875 1.703125 
L 7.71875 11.625 
Q 12.109375 9.234375 16.796875 8.0625 
Q 21.484375 6.890625 26.703125 6.890625 
Q 35.15625 6.890625 40.078125 11.328125 
Q 45.015625 15.765625 45.015625 23.390625 
Q 45.015625 31 40.078125 35.4375 
Q 35.15625 39.890625 26.703125 39.890625 
Q 22.75 39.890625 18.8125 39.015625 
Q 14.890625 38.140625 10.796875 36.28125 
z
" id="DejaVuSans-53"/>
       </defs>
       <use xlink:href="#DejaVuSans-45"/>
       <use x="36.083984" xlink:href="#DejaVuSans-49"/>
       <use x="99.707031" xlink:href="#DejaVuSans-46"/>
       <use x="131.494141" xlink:href="#DejaVuSans-53"/>
      </g>
     </g>
    </g>
    <g id="ytick_3">
     <g id="line2d_5">
      <path clip-path="url(#p1294f1a031)" d="M 50.9 230.235104 
L 1141.2 230.235104 
" style="fill:none;stroke:#b0b0b0;stroke-linecap:square;stroke-width:0.8;"/>
     </g>
     <g id="line2d_6">
      <g>
       <use style="stroke:#000000;stroke-width:0.8;" x="50.9" xlink:href="#m51b3de546c" y="230.235104"/>
      </g>
     </g>
     <g id="text_3">
      <!-- -1.0 -->
      <g transform="translate(24.389062 234.034323)scale(0.1 -0.1)">
       <use xlink:href="#DejaVuSans-45"/>
       <use x="36.083984" xlink:href="#DejaVuSans-49"/>
       <use x="99.707031" xlink:href="#DejaVuSans-46"/>
       <use x="131.494141" xlink:href="#DejaVuSans-48"/>
      </g>
     </g>
    </g>
    <g id="ytick_4">
     <g id="line2d_7">
      <path clip-path="url(#p1294f1a031)" d="M 50.9 184.477078 
L 1141.2 184.477078 
" style="fill:none;stroke:#b0b0b0;stroke-linecap:square;stroke-width:0.8;"/>
     </g>
     <g id="line2d_8">
      <g>
       <use style="stroke:#000000;stroke-width:0.8;" x="50.9" xlink:href="#m51b3de546c" y="184.477078"/>
      </g>
     </g>
     <g id="text_4">
      <!-- -0.5 -->
      <g transform="translate(24.389062 188.276297)scale(0.1 -0.1)">
       <use xlink:href="#DejaVuSans-45"/>
       <use x="36.083984" xlink:href="#DejaVuSans-48"/>
       <use x="99.707031" xlink:href="#DejaVuSans-46"/>
       <use x="131.494141" xlink:href="#DejaVuSans-53"/>
      </g>
     </g>
    </g>
    <g id="ytick_5">
     <g id="line2d_9">
      <path clip-path="url(#p1294f1a031)" d="M 50.9 138.719052 
L 1141.2 138.719052 
" style="fill:none;stroke:#b0b0b0;stroke-linecap:square;stroke-width:0.8;"/>
     </g>
     <g id="line2d_10">
      <g>
       <use style="stroke:#000000;stroke-width:0.8;" x="50.9" xlink:href="#m51b3de546c" y="138.719052"/>
      </g>
     </g>
     <g id="text_5">
      <!-- 0.0 -->
      <g transform="translate(27.996875 142.51827)scale(0.1 -0.1)">
       <use xlink:href="#DejaVuSans-48"/>
       <use x="63.623047" xlink:href="#DejaVuSans-46"/>
       <use x="95.410156" xlink:href="#DejaVuSans-48"/>
      </g>
     </g>
    </g>
    <g id="ytick_6">
     <g id="line2d_11">
      <path clip-path="url(#p1294f1a031)" d="M 50.9 92.961025 
L 1141.2 92.961025 
" style="fill:none;stroke:#b0b0b0;stroke-linecap:square;stroke-width:0.8;"/>
     </g>
     <g id="line2d_12">
      <g>
       <use style="stroke:#000000;stroke-width:0.8;" x="50.9" xlink:href="#m51b3de546c" y="92.961025"/>
      </g>
     </g>
     <g id="text_6">
      <!-- 0.5 -->
      <g transform="translate(27.996875 96.760244)scale(0.1 -0.1)">
       <use xlink:href="#DejaVuSans-48"/>
       <use x="63.623047" xlink:href="#DejaVuSans-46"/>
       <use x="95.410156" xlink:href="#DejaVuSans-53"/>
      </g>
     </g>
    </g>
    <g id="ytick_7">
     <g id="line2d_13">
      <path clip-path="url(#p1294f1a031)" d="M 50.9 47.202999 
L 1141.2 47.202999 
" style="fill:none;stroke:#b0b0b0;stroke-linecap:square;stroke-width:0.8;"/>
     </g>
     <g id="line2d_14">
      <g>
       <use style="stroke:#000000;stroke-width:0.8;" x="50.9" xlink:href="#m51b3de546c" y="47.202999"/>
      </g>
     </g>
     <g id="text_7">
      <!-- 1.0 -->
      <g transform="translate(27.996875 51.002218)scale(0.1 -0.1)">
       <use xlink:href="#DejaVuSans-49"/>
       <use x="63.623047" xlink:href="#DejaVuSans-46"/>
       <use x="95.410156" xlink:href="#DejaVuSans-48"/>
      </g>
     </g>
    </g>
    <g id="text_8">
     <!-- log return cumsum -->
     <g transform="translate(18.309375 233.327969)rotate(-90)scale(0.1 -0.1)">
      <defs>
       <path d="M 9.421875 75.984375 
L 18.40625 75.984375 
L 18.40625 0 
L 9.421875 0 
z
" id="DejaVuSans-108"/>
       <path d="M 30.609375 48.390625 
Q 23.390625 48.390625 19.1875 42.75 
Q 14.984375 37.109375 14.984375 27.296875 
Q 14.984375 17.484375 19.15625 11.84375 
Q 23.34375 6.203125 30.609375 6.203125 
Q 37.796875 6.203125 41.984375 11.859375 
Q 46.1875 17.53125 46.1875 27.296875 
Q 46.1875 37.015625 41.984375 42.703125 
Q 37.796875 48.390625 30.609375 48.390625 
z
M 30.609375 56 
Q 42.328125 56 49.015625 48.375 
Q 55.71875 40.765625 55.71875 27.296875 
Q 55.71875 13.875 49.015625 6.21875 
Q 42.328125 -1.421875 30.609375 -1.421875 
Q 18.84375 -1.421875 12.171875 6.21875 
Q 5.515625 13.875 5.515625 27.296875 
Q 5.515625 40.765625 12.171875 48.375 
Q 18.84375 56 30.609375 56 
z
" id="DejaVuSans-111"/>
       <path d="M 45.40625 27.984375 
Q 45.40625 37.75 41.375 43.109375 
Q 37.359375 48.484375 30.078125 48.484375 
Q 22.859375 48.484375 18.828125 43.109375 
Q 14.796875 37.75 14.796875 27.984375 
Q 14.796875 18.265625 18.828125 12.890625 
Q 22.859375 7.515625 30.078125 7.515625 
Q 37.359375 7.515625 41.375 12.890625 
Q 45.40625 18.265625 45.40625 27.984375 
z
M 54.390625 6.78125 
Q 54.390625 -7.171875 48.1875 -13.984375 
Q 42 -20.796875 29.203125 -20.796875 
Q 24.46875 -20.796875 20.265625 -20.09375 
Q 16.0625 -19.390625 12.109375 -17.921875 
L 12.109375 -9.1875 
Q 16.0625 -11.328125 19.921875 -12.34375 
Q 23.78125 -13.375 27.78125 -13.375 
Q 36.625 -13.375 41.015625 -8.765625 
Q 45.40625 -4.15625 45.40625 5.171875 
L 45.40625 9.625 
Q 42.625 4.78125 38.28125 2.390625 
Q 33.9375 0 27.875 0 
Q 17.828125 0 11.671875 7.65625 
Q 5.515625 15.328125 5.515625 27.984375 
Q 5.515625 40.671875 11.671875 48.328125 
Q 17.828125 56 27.875 56 
Q 33.9375 56 38.28125 53.609375 
Q 42.625 51.21875 45.40625 46.390625 
L 45.40625 54.6875 
L 54.390625 54.6875 
z
" id="DejaVuSans-103"/>
       <path id="DejaVuSans-32"/>
       <path d="M 41.109375 46.296875 
Q 39.59375 47.171875 37.8125 47.578125 
Q 36.03125 48 33.890625 48 
Q 26.265625 48 22.1875 43.046875 
Q 18.109375 38.09375 18.109375 28.8125 
L 18.109375 0 
L 9.078125 0 
L 9.078125 54.6875 
L 18.109375 54.6875 
L 18.109375 46.1875 
Q 20.953125 51.171875 25.484375 53.578125 
Q 30.03125 56 36.53125 56 
Q 37.453125 56 38.578125 55.875 
Q 39.703125 55.765625 41.0625 55.515625 
z
" id="DejaVuSans-114"/>
       <path d="M 56.203125 29.59375 
L 56.203125 25.203125 
L 14.890625 25.203125 
Q 15.484375 15.921875 20.484375 11.0625 
Q 25.484375 6.203125 34.421875 6.203125 
Q 39.59375 6.203125 44.453125 7.46875 
Q 49.3125 8.734375 54.109375 11.28125 
L 54.109375 2.78125 
Q 49.265625 0.734375 44.1875 -0.34375 
Q 39.109375 -1.421875 33.890625 -1.421875 
Q 20.796875 -1.421875 13.15625 6.1875 
Q 5.515625 13.8125 5.515625 26.8125 
Q 5.515625 40.234375 12.765625 48.109375 
Q 20.015625 56 32.328125 56 
Q 43.359375 56 49.78125 48.890625 
Q 56.203125 41.796875 56.203125 29.59375 
z
M 47.21875 32.234375 
Q 47.125 39.59375 43.09375 43.984375 
Q 39.0625 48.390625 32.421875 48.390625 
Q 24.90625 48.390625 20.390625 44.140625 
Q 15.875 39.890625 15.1875 32.171875 
z
" id="DejaVuSans-101"/>
       <path d="M 18.3125 70.21875 
L 18.3125 54.6875 
L 36.8125 54.6875 
L 36.8125 47.703125 
L 18.3125 47.703125 
L 18.3125 18.015625 
Q 18.3125 11.328125 20.140625 9.421875 
Q 21.96875 7.515625 27.59375 7.515625 
L 36.8125 7.515625 
L 36.8125 0 
L 27.59375 0 
Q 17.1875 0 13.234375 3.875 
Q 9.28125 7.765625 9.28125 18.015625 
L 9.28125 47.703125 
L 2.6875 47.703125 
L 2.6875 54.6875 
L 9.28125 54.6875 
L 9.28125 70.21875 
z
" id="DejaVuSans-116"/>
       <path d="M 8.5 21.578125 
L 8.5 54.6875 
L 17.484375 54.6875 
L 17.484375 21.921875 
Q 17.484375 14.15625 20.5 10.265625 
Q 23.53125 6.390625 29.59375 6.390625 
Q 36.859375 6.390625 41.078125 11.03125 
Q 45.3125 15.671875 45.3125 23.6875 
L 45.3125 54.6875 
L 54.296875 54.6875 
L 54.296875 0 
L 45.3125 0 
L 45.3125 8.40625 
Q 42.046875 3.421875 37.71875 1 
Q 33.40625 -1.421875 27.6875 -1.421875 
Q 18.265625 -1.421875 13.375 4.4375 
Q 8.5 10.296875 8.5 21.578125 
z
M 31.109375 56 
z
" id="DejaVuSans-117"/>
       <path d="M 54.890625 33.015625 
L 54.890625 0 
L 45.90625 0 
L 45.90625 32.71875 
Q 45.90625 40.484375 42.875 44.328125 
Q 39.84375 48.1875 33.796875 48.1875 
Q 26.515625 48.1875 22.3125 43.546875 
Q 18.109375 38.921875 18.109375 30.90625 
L 18.109375 0 
L 9.078125 0 
L 9.078125 54.6875 
L 18.109375 54.6875 
L 18.109375 46.1875 
Q 21.34375 51.125 25.703125 53.5625 
Q 30.078125 56 35.796875 56 
Q 45.21875 56 50.046875 50.171875 
Q 54.890625 44.34375 54.890625 33.015625 
z
" id="DejaVuSans-110"/>
       <path d="M 48.78125 52.59375 
L 48.78125 44.1875 
Q 44.96875 46.296875 41.140625 47.34375 
Q 37.3125 48.390625 33.40625 48.390625 
Q 24.65625 48.390625 19.8125 42.84375 
Q 14.984375 37.3125 14.984375 27.296875 
Q 14.984375 17.28125 19.8125 11.734375 
Q 24.65625 6.203125 33.40625 6.203125 
Q 37.3125 6.203125 41.140625 7.25 
Q 44.96875 8.296875 48.78125 10.40625 
L 48.78125 2.09375 
Q 45.015625 0.34375 40.984375 -0.53125 
Q 36.96875 -1.421875 32.421875 -1.421875 
Q 20.0625 -1.421875 12.78125 6.34375 
Q 5.515625 14.109375 5.515625 27.296875 
Q 5.515625 40.671875 12.859375 48.328125 
Q 20.21875 56 33.015625 56 
Q 37.15625 56 41.109375 55.140625 
Q 45.0625 54.296875 48.78125 52.59375 
z
" id="DejaVuSans-99"/>
       <path d="M 52 44.1875 
Q 55.375 50.25 60.0625 53.125 
Q 64.75 56 71.09375 56 
Q 79.640625 56 84.28125 50.015625 
Q 88.921875 44.046875 88.921875 33.015625 
L 88.921875 0 
L 79.890625 0 
L 79.890625 32.71875 
Q 79.890625 40.578125 77.09375 44.375 
Q 74.3125 48.1875 68.609375 48.1875 
Q 61.625 48.1875 57.5625 43.546875 
Q 53.515625 38.921875 53.515625 30.90625 
L 53.515625 0 
L 44.484375 0 
L 44.484375 32.71875 
Q 44.484375 40.625 41.703125 44.40625 
Q 38.921875 48.1875 33.109375 48.1875 
Q 26.21875 48.1875 22.15625 43.53125 
Q 18.109375 38.875 18.109375 30.90625 
L 18.109375 0 
L 9.078125 0 
L 9.078125 54.6875 
L 18.109375 54.6875 
L 18.109375 46.1875 
Q 21.1875 51.21875 25.484375 53.609375 
Q 29.78125 56 35.6875 56 
Q 41.65625 56 45.828125 52.96875 
Q 50 49.953125 52 44.1875 
z
" id="DejaVuSans-109"/>
       <path d="M 44.28125 53.078125 
L 44.28125 44.578125 
Q 40.484375 46.53125 36.375 47.5 
Q 32.28125 48.484375 27.875 48.484375 
Q 21.1875 48.484375 17.84375 46.4375 
Q 14.5 44.390625 14.5 40.28125 
Q 14.5 37.15625 16.890625 35.375 
Q 19.28125 33.59375 26.515625 31.984375 
L 29.59375 31.296875 
Q 39.15625 29.25 43.1875 25.515625 
Q 47.21875 21.78125 47.21875 15.09375 
Q 47.21875 7.46875 41.1875 3.015625 
Q 35.15625 -1.421875 24.609375 -1.421875 
Q 20.21875 -1.421875 15.453125 -0.5625 
Q 10.6875 0.296875 5.421875 2 
L 5.421875 11.28125 
Q 10.40625 8.6875 15.234375 7.390625 
Q 20.0625 6.109375 24.8125 6.109375 
Q 31.15625 6.109375 34.5625 8.28125 
Q 37.984375 10.453125 37.984375 14.40625 
Q 37.984375 18.0625 35.515625 20.015625 
Q 33.0625 21.96875 24.703125 23.78125 
L 21.578125 24.515625 
Q 13.234375 26.265625 9.515625 29.90625 
Q 5.8125 33.546875 5.8125 39.890625 
Q 5.8125 47.609375 11.28125 51.796875 
Q 16.75 56 26.8125 56 
Q 31.78125 56 36.171875 55.265625 
Q 40.578125 54.546875 44.28125 53.078125 
z
" id="DejaVuSans-115"/>
      </defs>
      <use xlink:href="#DejaVuSans-108"/>
      <use x="27.783203" xlink:href="#DejaVuSans-111"/>
      <use x="88.964844" xlink:href="#DejaVuSans-103"/>
      <use x="152.441406" xlink:href="#DejaVuSans-32"/>
      <use x="184.228516" xlink:href="#DejaVuSans-114"/>
      <use x="223.091797" xlink:href="#DejaVuSans-101"/>
      <use x="284.615234" xlink:href="#DejaVuSans-116"/>
      <use x="323.824219" xlink:href="#DejaVuSans-117"/>
      <use x="387.203125" xlink:href="#DejaVuSans-114"/>
      <use x="426.566406" xlink:href="#DejaVuSans-110"/>
      <use x="489.945312" xlink:href="#DejaVuSans-32"/>
      <use x="521.732422" xlink:href="#DejaVuSans-99"/>
      <use x="576.712891" xlink:href="#DejaVuSans-117"/>
      <use x="640.091797" xlink:href="#DejaVuSans-109"/>
      <use x="737.503906" xlink:href="#DejaVuSans-115"/>
      <use x="789.603516" xlink:href="#DejaVuSans-117"/>
      <use x="852.982422" xlink:href="#DejaVuSans-109"/>
     </g>
    </g>
   </g>
   <g id="line2d_15">
    <path clip-path="url(#p1294f1a031)" d="M 100.459091 136.489585 
L 104.242228 140.727698 
L 108.025364 137.005432 
L 111.808501 144.339546 
L 123.157911 145.36394 
L 126.941048 152.60095 
L 130.724185 153.462056 
L 134.507321 157.21775 
L 138.290458 155.044634 
L 149.639868 154.329984 
L 153.423005 148.551147 
L 157.206142 150.378464 
L 160.989278 150.846063 
L 164.772415 154.49518 
L 176.121825 153.848868 
L 179.904962 146.036506 
L 183.688099 145.297437 
L 187.471235 151.750527 
L 191.254372 157.767182 
L 202.603782 159.974875 
L 206.386919 164.079828 
L 210.170056 159.787209 
L 213.953192 160.778839 
L 217.736329 160.323855 
L 229.085739 156.740835 
L 232.868876 158.552227 
L 236.652012 154.685839 
L 240.435149 157.031011 
L 244.218286 149.916845 
L 255.567696 155.745133 
L 259.350833 154.457302 
L 263.133969 152.529186 
L 266.917106 153.399155 
L 270.700243 154.55428 
L 282.049653 153.279924 
L 285.83279 148.47352 
L 289.615926 150.367991 
L 293.399063 151.57218 
L 297.1822 145.983211 
L 308.53161 142.724628 
L 312.314747 151.977439 
L 316.097883 153.475056 
L 319.88102 148.636314 
L 323.664157 147.449044 
L 335.013567 143.143673 
L 338.796704 142.286598 
L 342.57984 140.963685 
L 346.362977 141.376562 
L 350.146114 138.796691 
L 361.495524 139.453342 
L 365.278661 135.101018 
L 369.061797 141.197602 
L 372.844934 135.721292 
L 376.628071 135.242025 
L 387.977481 130.499314 
L 391.760618 129.159064 
L 395.543754 128.96141 
L 399.326891 136.345837 
L 403.110028 141.136789 
L 414.459438 145.002844 
L 418.242575 144.164275 
L 422.025711 146.382958 
L 425.808848 141.878245 
L 429.591985 145.180323 
L 440.941395 137.4562 
L 444.724532 134.423799 
L 448.507668 139.94785 
L 452.290805 136.949141 
L 456.073942 130.210543 
L 467.423352 135.195589 
L 471.206489 137.9533 
L 474.989625 134.307847 
L 478.772762 135.326283 
L 482.555899 128.218106 
L 493.905309 123.35068 
L 497.688446 121.095011 
L 501.471582 116.496607 
L 505.254719 116.104443 
L 509.037856 110.075805 
L 520.387266 107.657388 
L 524.170402 104.2499 
L 527.953539 102.180403 
L 531.736676 104.041266 
L 535.519813 106.963982 
L 546.869223 109.772852 
L 550.652359 107.351756 
L 554.435496 100.341712 
L 558.218633 104.85116 
L 562.00177 103.847611 
L 573.35118 103.49118 
L 577.134316 101.899394 
L 580.917453 97.741925 
L 584.70059 98.379451 
L 588.483727 102.879263 
L 599.833137 106.576785 
L 603.616273 114.172523 
L 607.39941 110.330524 
L 611.182547 107.385315 
L 614.965684 105.226082 
L 626.315094 108.710781 
L 630.09823 105.022487 
L 633.881367 112.542442 
L 637.664504 117.032406 
L 641.447641 119.620811 
L 652.797051 121.38557 
L 656.580187 124.20149 
L 660.363324 118.273414 
L 664.146461 111.737122 
L 667.929598 108.668606 
L 679.279008 110.382742 
L 683.062144 109.214391 
L 686.845281 116.133654 
L 690.628418 113.953749 
L 694.411554 109.693865 
L 705.760965 108.09712 
L 709.544101 105.652584 
L 713.327238 110.695653 
L 717.110375 107.249626 
L 720.893511 100.594487 
L 732.242922 101.705748 
L 736.026058 101.96327 
L 739.809195 104.773073 
L 743.592332 103.346011 
L 747.375468 102.402137 
L 758.724879 100.152277 
L 762.508015 103.88457 
L 766.291152 102.494628 
L 770.074289 101.714804 
L 773.857425 103.513557 
L 785.206836 104.675439 
L 788.989972 112.766274 
L 792.773109 117.578655 
L 796.556246 121.190001 
L 800.339382 118.271483 
L 811.688793 110.473216 
L 815.471929 113.978421 
L 819.255066 120.114692 
L 823.038203 119.697294 
L 826.821339 116.921087 
L 838.170749 120.630682 
L 841.953886 116.778312 
L 845.737023 109.236086 
L 849.52016 110.608104 
L 853.303296 103.081183 
L 864.652706 105.027529 
L 868.435843 104.088439 
L 872.21898 98.726035 
L 876.002117 96.136745 
L 879.785253 98.515851 
L 891.134663 100.267137 
L 894.9178 100.49281 
L 902.484074 103.091724 
L 906.26721 106.264929 
L 917.61662 107.317967 
L 921.399757 105.887813 
L 925.182894 106.709768 
L 928.966031 113.701752 
L 932.749167 114.532881 
L 944.098577 115.927289 
L 947.881714 122.16091 
L 951.664851 127.702372 
L 959.231124 127.268281 
L 970.580534 128.491231 
L 974.363671 126.104825 
L 981.929944 127.653049 
L 985.713081 126.800865 
L 997.062491 121.650415 
L 1000.845628 126.472629 
L 1004.628765 128.212666 
L 1008.411901 126.818714 
L 1012.195038 130.464714 
L 1023.544448 134.917881 
L 1027.327585 135.190104 
L 1031.110722 140.379675 
L 1034.893858 135.655471 
L 1038.676995 133.17438 
L 1050.026405 137.180798 
L 1053.809542 144.857299 
L 1057.592679 142.531349 
L 1061.375815 143.38829 
L 1065.158952 142.627978 
L 1076.508362 143.655722 
L 1080.291499 147.591197 
L 1084.074636 147.526415 
L 1087.857772 150.183773 
L 1091.640909 150.183773 
L 1091.640909 150.183773 
" style="fill:none;stroke:#9467bd;stroke-linecap:square;stroke-width:1.5;"/>
   </g>
   <g id="line2d_16">
    <path clip-path="url(#p1294f1a031)" d="M 100.459091 136.288857 
L 104.242228 134.06314 
L 108.025364 130.309108 
L 111.808501 128.236907 
L 123.157911 123.044982 
L 126.941048 123.682976 
L 130.724185 120.532594 
L 134.507321 125.02703 
L 138.290458 128.641921 
L 149.639868 129.746986 
L 153.423005 128.663136 
L 157.206142 131.193747 
L 160.989278 134.531305 
L 164.772415 128.378389 
L 176.121825 136.877132 
L 179.904962 135.094486 
L 183.688099 130.879928 
L 187.471235 131.516971 
L 191.254372 130.65088 
L 202.603782 138.018719 
L 206.386919 145.774765 
L 210.170056 147.094733 
L 213.953192 150.513618 
L 217.736329 155.778128 
L 229.085739 151.702792 
L 232.868876 151.149096 
L 236.652012 147.536238 
L 240.435149 150.540976 
L 244.218286 150.409337 
L 255.567696 152.87696 
L 259.350833 152.45638 
L 263.133969 151.358504 
L 266.917106 143.676934 
L 270.700243 138.279033 
L 282.049653 137.479768 
L 285.83279 133.116776 
L 289.615926 128.052616 
L 293.399063 130.736435 
L 297.1822 133.784948 
L 308.53161 128.837609 
L 312.314747 133.517103 
L 316.097883 127.879768 
L 319.88102 129.449191 
L 323.664157 124.755494 
L 335.013567 117.627296 
L 338.796704 114.040895 
L 342.57984 113.227225 
L 346.362977 108.825082 
L 350.146114 110.286762 
L 361.495524 112.691566 
L 365.278661 110.680104 
L 369.061797 105.638065 
L 372.844934 106.094907 
L 376.628071 110.685954 
L 387.977481 109.568211 
L 391.760618 112.063896 
L 395.543754 107.014732 
L 399.326891 108.035028 
L 403.110028 116.02694 
L 414.459438 116.200292 
L 418.242575 114.271813 
L 422.025711 115.77277 
L 425.808848 119.796318 
L 429.591985 118.021058 
L 440.941395 111.441961 
L 444.724532 110.530606 
L 448.507668 117.519561 
L 452.290805 113.708909 
L 456.073942 109.460874 
L 467.423352 115.167603 
L 471.206489 113.804733 
L 474.989625 110.549318 
L 478.772762 105.041371 
L 482.555899 105.850344 
L 493.905309 104.107323 
L 497.688446 105.189716 
L 501.471582 104.837549 
L 505.254719 102.011037 
L 509.037856 100.903187 
L 520.387266 95.390944 
L 524.170402 92.458907 
L 527.953539 94.268253 
L 531.736676 93.160421 
L 535.519813 92.675982 
L 546.869223 98.658743 
L 550.652359 96.347991 
L 554.435496 95.122631 
L 558.218633 95.12203 
L 562.00177 102.286557 
L 573.35118 104.350435 
L 577.134316 103.195853 
L 580.917453 101.436114 
L 584.70059 98.933256 
L 588.483727 100.738823 
L 599.833137 109.844979 
L 603.616273 114.116666 
L 607.39941 121.836546 
L 611.182547 123.370058 
L 614.965684 125.735686 
L 626.315094 124.201706 
L 630.09823 123.554524 
L 633.881367 127.200827 
L 637.664504 129.538866 
L 641.447641 128.821096 
L 652.797051 131.295123 
L 656.580187 125.659977 
L 660.363324 123.017505 
L 664.146461 127.203808 
L 667.929598 132.434233 
L 679.279008 128.984808 
L 683.062144 124.011072 
L 686.845281 131.939864 
L 690.628418 136.442036 
L 694.411554 132.374677 
L 705.760965 128.799708 
L 709.544101 132.803166 
L 713.327238 132.835847 
L 717.110375 132.364817 
L 720.893511 132.174045 
L 732.242922 130.622617 
L 736.026058 139.657208 
L 739.809195 137.936912 
L 743.592332 136.787817 
L 747.375468 135.900427 
L 758.724879 135.261299 
L 762.508015 133.967996 
L 766.291152 133.908406 
L 770.074289 132.655886 
L 773.857425 132.146541 
L 785.206836 139.24849 
L 788.989972 141.162236 
L 792.773109 136.24878 
L 796.556246 138.545163 
L 800.339382 133.353406 
L 811.688793 130.218527 
L 815.471929 128.208061 
L 819.255066 126.050419 
L 823.038203 134.941719 
L 826.821339 128.889385 
L 838.170749 128.076763 
L 841.953886 126.135913 
L 845.737023 123.728189 
L 849.52016 125.24019 
L 853.303296 125.257557 
L 864.652706 126.162006 
L 868.435843 129.45383 
L 872.21898 121.538418 
L 876.002117 120.887591 
L 879.785253 115.638352 
L 891.134663 115.695186 
L 894.9178 109.702165 
L 898.700937 107.583426 
L 902.484074 106.892203 
L 906.26721 104.335151 
L 917.61662 107.978332 
L 921.399757 105.274484 
L 925.182894 106.879468 
L 928.966031 103.115579 
L 932.749167 99.546598 
L 944.098577 99.983558 
L 947.881714 98.103361 
L 951.664851 103.215115 
L 955.447988 101.787989 
L 959.231124 102.630671 
L 970.580534 106.703992 
L 974.363671 106.190951 
L 978.146808 107.681592 
L 981.929944 108.722427 
L 985.713081 109.585561 
L 997.062491 104.280393 
L 1000.845628 100.399859 
L 1004.628765 105.054092 
L 1008.411901 102.678666 
L 1012.195038 109.153134 
L 1023.544448 110.477078 
L 1027.327585 112.699759 
L 1031.110722 115.065697 
L 1034.893858 112.584862 
L 1038.676995 108.943631 
L 1050.026405 114.174049 
L 1053.809542 114.288744 
L 1057.592679 115.152216 
L 1061.375815 114.71412 
L 1065.158952 113.587026 
L 1076.508362 116.100662 
L 1080.291499 118.228726 
L 1084.074636 116.75726 
L 1087.857772 113.881176 
L 1091.640909 113.881176 
L 1091.640909 113.881176 
" style="fill:none;stroke:#1f77b4;stroke-linecap:square;stroke-width:1.5;"/>
   </g>
   <g id="line2d_17">
    <path clip-path="url(#p1294f1a031)" d="M 100.459091 132.828026 
L 104.242228 138.250672 
L 111.808501 150.25415 
L 123.157911 153.909172 
L 126.941048 153.457167 
L 130.724185 154.711347 
L 134.507321 158.614592 
L 138.290458 156.589888 
L 149.639868 163.438275 
L 153.423005 167.324034 
L 157.206142 169.803324 
L 160.989278 170.610938 
L 164.772415 165.534725 
L 176.121825 171.20367 
L 179.904962 170.943504 
L 183.688099 169.267463 
L 187.471235 177.969826 
L 191.254372 176.02228 
L 202.603782 182.26062 
L 206.386919 190.589322 
L 210.170056 182.721395 
L 213.953192 174.572636 
L 217.736329 169.095212 
L 229.085739 172.743157 
L 232.868876 180.420237 
L 236.652012 177.10882 
L 240.435149 178.21083 
L 244.218286 185.404187 
L 255.567696 185.492507 
L 259.350833 194.437989 
L 263.133969 187.236997 
L 266.917106 191.762153 
L 270.700243 188.834796 
L 282.049653 192.347655 
L 285.83279 191.98108 
L 289.615926 191.130101 
L 293.399063 197.088077 
L 297.1822 188.87316 
L 308.53161 183.971016 
L 312.314747 176.260876 
L 316.097883 169.305411 
L 319.88102 167.530844 
L 323.664157 160.11771 
L 335.013567 167.977692 
L 338.796704 173.718538 
L 342.57984 182.445525 
L 346.362977 185.699718 
L 350.146114 187.760306 
L 361.495524 192.044066 
L 365.278661 186.21665 
L 369.061797 188.876815 
L 372.844934 192.976906 
L 376.628071 192.198748 
L 387.977481 199.018925 
L 391.760618 193.648457 
L 395.543754 201.786928 
L 399.326891 193.282969 
L 403.110028 188.430943 
L 414.459438 194.118546 
L 418.242575 203.648491 
L 422.025711 198.049364 
L 425.808848 194.339434 
L 429.591985 190.241024 
L 440.941395 185.405913 
L 444.724532 193.554507 
L 448.507668 196.182411 
L 452.290805 203.497998 
L 456.073942 197.082275 
L 467.423352 194.8529 
L 471.206489 198.001559 
L 474.989625 206.3602 
L 478.772762 209.88692 
L 482.555899 213.143902 
L 493.905309 209.035008 
L 497.688446 206.551276 
L 501.471582 199.725073 
L 505.254719 200.235048 
L 509.037856 207.476808 
L 520.387266 203.654681 
L 524.170402 199.00179 
L 527.953539 197.887037 
L 531.736676 193.05719 
L 535.519813 193.170821 
L 546.869223 192.75568 
L 550.652359 194.091616 
L 554.435496 203.218303 
L 558.218633 210.692195 
L 562.00177 219.697423 
L 573.35118 217.234125 
L 577.134316 220.696693 
L 580.917453 220.539956 
L 584.70059 213.368643 
L 588.483727 218.07644 
L 599.833137 219.731598 
L 603.616273 215.1698 
L 607.39941 220.27336 
L 611.182547 228.363246 
L 614.965684 232.29472 
L 626.315094 238.715525 
L 630.09823 231.170434 
L 633.881367 225.697785 
L 637.664504 223.288073 
L 641.447641 216.729855 
L 652.797051 211.33393 
L 656.580187 217.258398 
L 660.363324 210.34142 
L 664.146461 209.624149 
L 667.929598 204.163228 
L 679.279008 197.186323 
L 683.062144 200.579582 
L 686.845281 208.010575 
L 690.628418 213.130838 
L 694.411554 214.47482 
L 705.760965 208.831743 
L 709.544101 202.456519 
L 713.327238 211.957422 
L 717.110375 211.760923 
L 720.893511 213.28519 
L 732.242922 218.51832 
L 736.026058 225.754709 
L 739.809195 228.776208 
L 743.592332 221.008702 
L 747.375468 224.303252 
L 758.724879 223.959968 
L 762.508015 220.317528 
L 766.291152 222.848214 
L 773.857425 206.501118 
L 785.206836 211.160946 
L 788.989972 211.211321 
L 792.773109 214.930445 
L 796.556246 218.955799 
L 800.339382 227.850869 
L 811.688793 225.867146 
L 815.471929 225.818124 
L 819.255066 234.419327 
L 823.038203 238.563227 
L 826.821339 231.380078 
L 838.170749 236.275565 
L 841.953886 243.017477 
L 845.737023 243.210729 
L 849.52016 234.727396 
L 853.303296 239.574751 
L 864.652706 236.477138 
L 868.435843 231.80973 
L 872.21898 236.742382 
L 876.002117 232.657813 
L 879.785253 235.110378 
L 891.134663 232.720242 
L 894.9178 230.308285 
L 898.700937 229.655825 
L 902.484074 237.479968 
L 906.26721 231.539874 
L 917.61662 234.880407 
L 921.399757 240.805882 
L 925.182894 249.622555 
L 928.966031 247.973863 
L 932.749167 244.780242 
L 944.098577 254.085696 
L 947.881714 253.864622 
L 951.664851 259.012751 
L 955.447988 256.393466 
L 959.231124 262.556549 
L 970.580534 259.126852 
L 974.363671 261.223801 
L 978.146808 253.560259 
L 981.929944 260.447571 
L 985.713081 263.403805 
L 997.062491 270.766899 
L 1000.845628 263.306189 
L 1004.628765 256.647866 
L 1008.411901 261.189146 
L 1012.195038 258.306795 
L 1023.544448 252.677358 
L 1027.327585 251.672543 
L 1031.110722 251.131445 
L 1034.893858 255.982717 
L 1038.676995 263.750795 
L 1050.026405 256.754822 
L 1053.809542 249.704567 
L 1057.592679 247.300245 
L 1061.375815 250.294986 
L 1065.158952 253.097408 
L 1076.508362 249.052419 
L 1084.074636 235.234178 
L 1087.857772 230.249792 
L 1087.857772 230.249792 
" style="fill:none;stroke:#8c564b;stroke-linecap:square;stroke-width:1.5;"/>
   </g>
   <g id="line2d_18">
    <path clip-path="url(#p1294f1a031)" d="M 100.459091 142.629336 
L 104.242228 141.512537 
L 108.025364 132.362923 
L 111.808501 133.624801 
L 123.157911 131.095756 
L 126.941048 138.824494 
L 130.724185 138.43676 
L 138.290458 138.143636 
L 149.639868 131.105481 
L 153.423005 121.822962 
L 157.206142 121.188355 
L 160.989278 120.851322 
L 164.772415 130.100293 
L 176.121825 124.152307 
L 179.904962 116.579477 
L 183.688099 117.533858 
L 187.471235 115.486351 
L 191.254372 123.629704 
L 202.603782 119.859263 
L 206.386919 115.995293 
L 210.170056 119.89852 
L 213.953192 129.938487 
L 217.736329 135.279923 
L 229.085739 128.321054 
L 232.868876 122.913689 
L 236.652012 122.338333 
L 240.435149 123.566514 
L 244.218286 110.265745 
L 255.567696 115.999997 
L 259.350833 106.672758 
L 263.133969 112.391052 
L 266.917106 108.908894 
L 270.700243 113.12718 
L 282.049653 108.515777 
L 285.83279 104.058554 
L 289.615926 106.830045 
L 293.399063 102.368703 
L 297.1822 105.245187 
L 308.53161 106.98005 
L 312.314747 125.596014 
L 316.097883 134.751082 
L 319.88102 131.627923 
L 323.664157 138.398994 
L 335.013567 127.17601 
L 338.796704 120.965966 
L 342.57984 111.785868 
L 346.362977 109.042337 
L 350.146114 104.502676 
L 361.495524 101.038336 
L 365.278661 102.611249 
L 369.061797 105.947401 
L 372.844934 96.770234 
L 376.628071 97.071682 
L 387.977481 86.29221 
L 391.760618 90.571794 
L 395.543754 82.916166 
L 399.326891 100.50994 
L 403.110028 110.70831 
L 414.459438 108.995502 
L 418.242575 99.601605 
L 422.025711 107.935794 
L 425.808848 107.108276 
L 429.591985 114.862483 
L 440.941395 111.819307 
L 444.724532 101.539367 
L 448.507668 104.352261 
L 452.290805 94.790434 
L 456.073942 94.444157 
L 467.423352 101.84387 
L 471.206489 101.466117 
L 474.989625 90.449334 
L 478.772762 88.034633 
L 482.555899 78.012748 
L 493.905309 77.219534 
L 497.688446 77.453879 
L 501.471582 79.856488 
L 505.254719 78.959338 
L 509.037856 66.633639 
L 520.387266 68.097697 
L 524.170402 69.408524 
L 527.953539 68.44214 
L 531.736676 75.509802 
L 535.519813 78.315348 
L 546.869223 81.554279 
L 550.652359 77.850606 
L 554.435496 63.128961 
L 558.218633 60.393556 
L 562.00177 51.277613 
L 573.35118 53.442644 
L 577.134316 48.571047 
L 580.917453 44.563605 
L 584.70059 53.039338 
L 588.483727 52.84177 
L 599.833137 54.847124 
L 603.616273 67.671623 
L 607.39941 59.189485 
L 611.182547 49.038165 
L 614.965684 43.19557 
L 626.315094 40.455455 
L 630.09823 44.651414 
L 633.881367 58.508367 
L 637.664504 65.599448 
L 641.447641 75.463516 
L 652.797051 83.07769 
L 656.580187 80.160932 
L 660.363324 81.227928 
L 664.146461 75.364557 
L 667.929598 77.906128 
L 679.279008 87.322273 
L 683.062144 82.922777 
L 686.845281 82.450854 
L 690.628418 75.533278 
L 694.411554 70.008691 
L 705.760965 74.318535 
L 709.544101 78.539445 
L 713.327238 74.51167 
L 717.110375 71.25528 
L 720.893511 63.20521 
L 732.242922 59.30762 
L 736.026058 52.84104 
L 739.809195 52.636212 
L 743.592332 59.560073 
L 747.375468 55.468217 
L 758.724879 53.55455 
L 762.508015 61.241655 
L 766.291152 57.42576 
L 770.074289 65.635174 
L 773.857425 76.500891 
L 785.206836 73.173478 
L 788.989972 81.209313 
L 792.773109 82.258781 
L 796.556246 81.862551 
L 800.339382 71.081287 
L 811.688793 65.143377 
L 815.471929 68.699545 
L 819.255066 66.453037 
L 823.038203 62.088934 
L 826.821339 66.865266 
L 838.170749 65.740766 
L 841.953886 55.859755 
L 845.737023 48.139926 
L 849.52016 59.011595 
L 853.303296 47.236372 
L 864.652706 52.459029 
L 868.435843 56.386673 
L 872.21898 46.603979 
L 876.002117 48.168093 
L 879.785253 48.096576 
L 891.134663 52.350171 
L 894.9178 55.059295 
L 898.700937 57.07781 
L 902.484074 51.022513 
L 906.26721 60.780686 
L 917.61662 58.574203 
L 921.399757 51.662775 
L 925.182894 44.373888 
L 928.966031 53.179441 
L 932.749167 57.350428 
L 944.098577 50.175064 
L 947.881714 56.645936 
L 951.664851 57.01771 
L 955.447988 59.449236 
L 959.231124 53.509113 
L 970.580534 58.344208 
L 974.363671 53.960021 
L 978.146808 63.169107 
L 981.929944 57.488916 
L 985.713081 53.799148 
L 997.062491 42.19424 
L 1000.845628 55.60058 
L 1004.628765 64.665159 
L 1008.411901 59.008566 
L 1012.195038 65.75369 
L 1023.544448 76.515059 
L 1027.327585 77.806297 
L 1031.110722 83.572043 
L 1034.893858 74.467166 
L 1038.676995 65.010481 
L 1050.026405 76.946394 
L 1053.809542 92.961746 
L 1057.592679 93.042205 
L 1061.375815 90.972457 
L 1065.158952 87.515164 
L 1076.508362 92.823916 
L 1080.291499 104.680269 
L 1084.074636 111.984256 
L 1087.857772 120.073205 
L 1087.857772 120.073205 
" style="fill:none;stroke:#e377c2;stroke-linecap:square;stroke-width:1.5;"/>
   </g>
   <g id="line2d_19">
    <path clip-path="url(#p1294f1a031)" d="M 100.459091 135.166872 
L 104.242228 143.011831 
L 108.025364 153.215855 
L 111.808501 161.467483 
L 123.157911 170.858246 
L 126.941048 169.775776 
L 130.724185 174.338511 
L 134.507321 173.775565 
L 138.290458 168.348044 
L 149.639868 174.020251 
L 153.423005 179.050724 
L 157.206142 179.000802 
L 160.989278 176.560263 
L 164.772415 177.71232 
L 176.121825 175.129975 
L 179.904962 176.682657 
L 183.688099 179.342569 
L 187.471235 187.349421 
L 191.254372 186.257744 
L 202.603782 185.215119 
L 206.386919 185.741107 
L 210.170056 176.678478 
L 213.953192 165.510166 
L 217.736329 155.336589 
L 229.085739 163.427575 
L 232.868876 171.710629 
L 236.652012 172.024231 
L 240.435149 170.182346 
L 244.218286 177.51832 
L 255.567696 175.201521 
L 259.350833 184.61302 
L 263.133969 178.438678 
L 266.917106 191.795991 
L 270.700243 194.418809 
L 282.049653 198.769671 
L 285.83279 202.965773 
L 289.615926 207.424599 
L 293.399063 210.602468 
L 297.1822 199.686912 
L 308.53161 199.734619 
L 312.314747 187.92443 
L 316.097883 186.523188 
L 319.88102 183.235046 
L 323.664157 180.37471 
L 335.013567 196.69167 
L 342.57984 216.042704 
L 346.362977 224.09341 
L 361.495524 226.512532 
L 365.278661 222.613559 
L 369.061797 230.77204 
L 372.844934 234.396783 
L 376.628071 229.283087 
L 387.977481 237.322965 
L 391.760618 229.659812 
L 395.543754 243.655626 
L 399.326891 234.231712 
L 403.110028 222.395391 
L 414.459438 227.898888 
L 418.242575 239.617636 
L 422.025711 232.628752 
L 425.808848 225.214804 
L 429.591985 222.846732 
L 440.941395 224.722051 
L 444.724532 233.877364 
L 448.507668 229.829977 
L 452.290805 241.460631 
L 456.073942 239.191217 
L 467.423352 231.71582 
L 471.206489 236.296761 
L 474.989625 248.360343 
L 478.772762 257.985966 
L 482.555899 260.412142 
L 493.905309 258.001371 
L 497.688446 254.476378 
L 501.471582 247.978247 
L 505.254719 251.421383 
L 509.037856 259.877529 
L 520.387266 261.67361 
L 524.170402 259.897269 
L 527.953539 257.029528 
L 531.736676 253.263103 
L 535.519813 253.864357 
L 546.869223 247.858343 
L 550.652359 251.600212 
L 554.435496 262.100119 
L 558.218633 269.574663 
L 562.00177 271.27546 
L 573.35118 266.846836 
L 577.134316 271.524129 
L 580.917453 273.158532 
L 584.70059 268.363972 
L 588.483727 271.208613 
L 599.833137 264.43788 
L 603.616273 255.989217 
L 607.39941 253.581787 
L 611.182547 260.025284 
L 614.965684 261.550838 
L 626.315094 269.646209 
L 630.09823 262.701158 
L 633.881367 253.921851 
L 637.664504 249.29088 
L 641.447641 243.405891 
L 652.797051 235.737294 
L 656.580187 248.082815 
L 660.363324 243.686047 
L 664.146461 238.996207 
L 667.929598 228.867116 
L 679.279008 225.206816 
L 683.062144 234.064467 
L 686.845281 233.607878 
L 690.628418 234.196203 
L 694.411554 239.861238 
L 705.760965 237.711703 
L 709.544101 227.753961 
L 713.327238 237.218622 
L 717.110375 237.494572 
L 720.893511 239.213223 
L 732.242922 246.118264 
L 736.026058 244.487606 
L 739.809195 249.321796 
L 743.592332 242.622748 
L 747.375468 246.846391 
L 758.724879 247.144311 
L 762.508015 244.762171 
L 766.291152 247.354159 
L 770.074289 240.262194 
L 773.857425 232.635497 
L 785.206836 230.373492 
L 788.989972 228.5483 
L 792.773109 237.681574 
L 796.556246 239.367303 
L 800.339382 254.347392 
L 811.688793 255.538927 
L 815.471929 257.544418 
L 819.255066 268.576038 
L 823.038203 264.257976 
L 826.821339 263.050354 
L 838.170749 268.811012 
L 841.953886 277.689205 
L 845.737023 280.360541 
L 849.52016 270.520495 
L 853.303296 275.349541 
L 864.652706 271.385997 
L 868.435843 263.696486 
L 872.21898 277.799269 
L 876.002117 274.341478 
L 879.785253 282.518878 
L 891.134663 280.073406 
L 894.9178 283.901967 
L 898.700937 285.402872 
L 902.484074 293.985922 
L 906.26721 290.50882 
L 917.61662 290.217966 
L 921.399757 299.119041 
L 925.182894 306.200376 
L 928.966031 308.40546 
L 932.749167 308.795779 
L 944.098577 317.619927 
L 947.881714 319.313809 
L 951.664851 319.348208 
L 955.447988 318.137435 
L 959.231124 323.407639 
L 970.580534 316.21876 
L 974.363671 318.843635 
L 978.146808 309.830302 
L 981.929944 315.608531 
L 985.713081 317.681758 
L 997.062491 331.164545 
L 1000.845628 327.432417 
L 1004.628765 316.649041 
L 1008.411901 323.754875 
L 1012.195038 315.007588 
L 1023.544448 308.150427 
L 1027.327585 304.999055 
L 1031.110722 302.165074 
L 1034.893858 309.707192 
L 1038.676995 321.611045 
L 1050.026405 310.022639 
L 1053.809542 302.866322 
L 1057.592679 299.628678 
L 1061.375815 303.078302 
L 1065.158952 307.057587 
L 1076.508362 300.670597 
L 1080.291499 291.748132 
L 1084.074636 286.311309 
L 1087.857772 284.136491 
L 1087.857772 284.136491 
" style="fill:none;stroke:#7f7f7f;stroke-linecap:square;stroke-width:1.5;"/>
   </g>
   <g id="line2d_20">
    <path clip-path="url(#p1294f1a031)" d="M 100.459091 138.925187 
L 104.242228 145.554051 
L 108.025364 145.587148 
L 111.808501 155.220622 
L 123.157911 161.813182 
L 126.941048 168.364674 
L 130.724185 172.519897 
L 134.507321 171.816423 
L 138.290458 166.245902 
L 149.639868 164.447816 
L 153.423005 159.69832 
L 157.206142 159.014137 
L 160.989278 156.245419 
L 164.772415 166.769822 
L 176.121825 158.399859 
L 179.904962 152.255433 
L 183.688099 155.898024 
L 187.471235 161.672426 
L 191.254372 168.623167 
L 202.603782 163.851956 
L 206.386919 160.492168 
L 210.170056 154.95757 
L 213.953192 152.618192 
L 217.736329 147.209171 
L 229.085739 147.72397 
L 232.868876 150.103598 
L 236.652012 149.839874 
L 240.435149 149.201537 
L 244.218286 142.209334 
L 255.567696 145.478977 
L 263.133969 143.767536 
L 266.917106 153.107334 
L 270.700243 160.074039 
L 282.049653 159.594791 
L 285.83279 159.129783 
L 289.615926 166.5007 
L 293.399063 165.063498 
L 297.1822 156.696457 
L 308.53161 158.47994 
L 312.314747 162.819793 
L 316.097883 170.42743 
L 319.88102 164.124557 
L 323.664157 167.819288 
L 335.013567 170.874634 
L 338.796704 173.714752 
L 342.57984 173.200974 
L 346.362977 178.259946 
L 350.146114 174.281062 
L 361.495524 172.577828 
L 365.278661 170.18562 
L 369.061797 181.997614 
L 372.844934 176.093072 
L 376.628071 171.264415 
L 387.977481 167.595783 
L 391.760618 163.860965 
L 395.543754 168.995528 
L 399.326891 175.286618 
L 403.110028 172.349085 
L 418.242575 177.14792 
L 422.025711 177.853926 
L 425.808848 169.67659 
L 429.591985 174.856249 
L 440.941395 173.626447 
L 444.724532 171.48442 
L 448.507668 170.126429 
L 452.290805 170.973054 
L 456.073942 168.365829 
L 467.423352 167.687612 
L 471.206489 171.871451 
L 474.989625 171.46732 
L 478.772762 178.414309 
L 482.555899 170.563931 
L 493.905309 167.380481 
L 497.688446 164.080967 
L 501.471582 159.818734 
L 505.254719 162.330499 
L 509.037856 157.351382 
L 520.387266 160.640775 
L 524.170402 160.149886 
L 527.953539 156.345422 
L 531.736676 159.350872 
L 535.519813 162.776454 
L 546.869223 159.800186 
L 550.652359 159.687021 
L 554.435496 153.826807 
L 558.218633 158.336887 
L 562.00177 150.759126 
L 573.35118 148.392097 
L 577.134316 147.949355 
L 580.917453 145.50569 
L 584.70059 148.7347 
L 588.483727 151.375542 
L 599.833137 146.46569 
L 603.616273 149.635494 
L 607.39941 138.956493 
L 614.965684 130.138298 
L 626.315094 135.24422 
L 630.09823 132.181883 
L 633.881367 135.901113 
L 637.664504 137.99813 
L 641.447641 141.330817 
L 652.797051 140.640396 
L 656.580187 149.655493 
L 660.363324 146.275392 
L 664.146461 136.006342 
L 667.929598 128.149191 
L 679.279008 133.517021 
L 683.062144 137.539683 
L 686.845281 136.613514 
L 690.628418 130.241304 
L 694.411554 130.040038 
L 705.760965 132.097961 
L 709.544101 125.91685 
L 713.327238 130.925399 
L 717.110375 127.935299 
L 720.893511 121.457909 
L 732.242922 124.166802 
L 736.026058 116.179891 
L 739.809195 120.798156 
L 743.592332 120.516683 
L 747.375468 120.459648 
L 758.724879 118.837728 
L 762.508015 123.936879 
L 766.291152 122.605668 
L 770.074289 123.084894 
L 773.857425 125.406039 
L 785.206836 119.896431 
L 788.989972 125.941371 
L 792.773109 136.234956 
L 796.556246 137.517104 
L 800.339382 139.924794 
L 811.688793 135.103103 
L 815.471929 140.745139 
L 819.255066 149.246397 
L 823.038203 140.760854 
L 826.821339 144.265312 
L 838.170749 148.828886 
L 841.953886 146.876828 
L 845.737023 141.609314 
L 849.52016 141.471623 
L 853.303296 133.928708 
L 864.652706 134.960301 
L 868.435843 130.875582 
L 872.21898 133.662783 
L 876.002117 131.710631 
L 879.785253 139.809832 
L 891.134663 141.503222 
L 894.9178 148.158451 
L 898.700937 151.711626 
L 902.484074 153.665062 
L 906.26721 159.563029 
L 917.61662 157.07261 
L 921.399757 158.384772 
L 925.182894 157.615299 
L 928.966031 168.851632 
L 932.749167 173.43118 
L 944.098577 174.384044 
L 947.881714 182.674146 
L 951.664851 183.080459 
L 955.447988 184.268832 
L 959.231124 183.25861 
L 970.580534 180.530494 
L 974.363671 178.646705 
L 978.146808 177.938225 
L 981.929944 177.678015 
L 985.713081 175.978651 
L 997.062491 176.14261 
L 1000.845628 185.241677 
L 1004.628765 182.469817 
L 1008.411901 183.477242 
L 1012.195038 180.839208 
L 1023.544448 183.922721 
L 1027.327585 182.018581 
L 1031.110722 184.769057 
L 1034.893858 182.464811 
L 1038.676995 183.672354 
L 1050.026405 182.515919 
L 1053.809542 190.067853 
L 1057.592679 186.907871 
L 1061.375815 188.209167 
L 1065.158952 188.580503 
L 1076.508362 187.134552 
L 1080.291499 188.900016 
L 1084.074636 190.329679 
L 1087.857772 196.045414 
L 1091.640909 196.045414 
L 1091.640909 196.045414 
" style="fill:none;stroke:#bcbd22;stroke-linecap:square;stroke-width:1.5;"/>
   </g>
   <g id="patch_3">
    <path d="M 50.9 345.7 
L 50.9 25.92 
" style="fill:none;stroke:#000000;stroke-linecap:square;stroke-linejoin:miter;stroke-width:0.8;"/>
   </g>
   <g id="patch_4">
    <path d="M 1141.2 345.7 
L 1141.2 25.92 
" style="fill:none;stroke:#000000;stroke-linecap:square;stroke-linejoin:miter;stroke-width:0.8;"/>
   </g>
   <g id="patch_5">
    <path d="M 50.9 345.7 
L 1141.2 345.7 
" style="fill:none;stroke:#000000;stroke-linecap:square;stroke-linejoin:miter;stroke-width:0.8;"/>
   </g>
   <g id="patch_6">
    <path d="M 50.9 25.92 
L 1141.2 25.92 
" style="fill:none;stroke:#000000;stroke-linecap:square;stroke-linejoin:miter;stroke-width:0.8;"/>
   </g>
   <g id="text_9">
    <!-- Cumulative Log Return: (2010-01-19 ~ 2010-10-08) -->
    <g transform="translate(440.172812 19.92)scale(0.12 -0.12)">
     <defs>
      <path d="M 64.40625 67.28125 
L 64.40625 56.890625 
Q 59.421875 61.53125 53.78125 63.8125 
Q 48.140625 66.109375 41.796875 66.109375 
Q 29.296875 66.109375 22.65625 58.46875 
Q 16.015625 50.828125 16.015625 36.375 
Q 16.015625 21.96875 22.65625 14.328125 
Q 29.296875 6.6875 41.796875 6.6875 
Q 48.140625 6.6875 53.78125 8.984375 
Q 59.421875 11.28125 64.40625 15.921875 
L 64.40625 5.609375 
Q 59.234375 2.09375 53.4375 0.328125 
Q 47.65625 -1.421875 41.21875 -1.421875 
Q 24.65625 -1.421875 15.125 8.703125 
Q 5.609375 18.84375 5.609375 36.375 
Q 5.609375 53.953125 15.125 64.078125 
Q 24.65625 74.21875 41.21875 74.21875 
Q 47.75 74.21875 53.53125 72.484375 
Q 59.328125 70.75 64.40625 67.28125 
z
" id="DejaVuSans-67"/>
      <path d="M 34.28125 27.484375 
Q 23.390625 27.484375 19.1875 25 
Q 14.984375 22.515625 14.984375 16.5 
Q 14.984375 11.71875 18.140625 8.90625 
Q 21.296875 6.109375 26.703125 6.109375 
Q 34.1875 6.109375 38.703125 11.40625 
Q 43.21875 16.703125 43.21875 25.484375 
L 43.21875 27.484375 
z
M 52.203125 31.203125 
L 52.203125 0 
L 43.21875 0 
L 43.21875 8.296875 
Q 40.140625 3.328125 35.546875 0.953125 
Q 30.953125 -1.421875 24.3125 -1.421875 
Q 15.921875 -1.421875 10.953125 3.296875 
Q 6 8.015625 6 15.921875 
Q 6 25.140625 12.171875 29.828125 
Q 18.359375 34.515625 30.609375 34.515625 
L 43.21875 34.515625 
L 43.21875 35.40625 
Q 43.21875 41.609375 39.140625 45 
Q 35.0625 48.390625 27.6875 48.390625 
Q 23 48.390625 18.546875 47.265625 
Q 14.109375 46.140625 10.015625 43.890625 
L 10.015625 52.203125 
Q 14.9375 54.109375 19.578125 55.046875 
Q 24.21875 56 28.609375 56 
Q 40.484375 56 46.34375 49.84375 
Q 52.203125 43.703125 52.203125 31.203125 
z
" id="DejaVuSans-97"/>
      <path d="M 9.421875 54.6875 
L 18.40625 54.6875 
L 18.40625 0 
L 9.421875 0 
z
M 9.421875 75.984375 
L 18.40625 75.984375 
L 18.40625 64.59375 
L 9.421875 64.59375 
z
" id="DejaVuSans-105"/>
      <path d="M 2.984375 54.6875 
L 12.5 54.6875 
L 29.59375 8.796875 
L 46.6875 54.6875 
L 56.203125 54.6875 
L 35.6875 0 
L 23.484375 0 
z
" id="DejaVuSans-118"/>
      <path d="M 9.8125 72.90625 
L 19.671875 72.90625 
L 19.671875 8.296875 
L 55.171875 8.296875 
L 55.171875 0 
L 9.8125 0 
z
" id="DejaVuSans-76"/>
      <path d="M 44.390625 34.1875 
Q 47.5625 33.109375 50.5625 29.59375 
Q 53.5625 26.078125 56.59375 19.921875 
L 66.609375 0 
L 56 0 
L 46.6875 18.703125 
Q 43.0625 26.03125 39.671875 28.421875 
Q 36.28125 30.8125 30.421875 30.8125 
L 19.671875 30.8125 
L 19.671875 0 
L 9.8125 0 
L 9.8125 72.90625 
L 32.078125 72.90625 
Q 44.578125 72.90625 50.734375 67.671875 
Q 56.890625 62.453125 56.890625 51.90625 
Q 56.890625 45.015625 53.6875 40.46875 
Q 50.484375 35.9375 44.390625 34.1875 
z
M 19.671875 64.796875 
L 19.671875 38.921875 
L 32.078125 38.921875 
Q 39.203125 38.921875 42.84375 42.21875 
Q 46.484375 45.515625 46.484375 51.90625 
Q 46.484375 58.296875 42.84375 61.546875 
Q 39.203125 64.796875 32.078125 64.796875 
z
" id="DejaVuSans-82"/>
      <path d="M 11.71875 12.40625 
L 22.015625 12.40625 
L 22.015625 0 
L 11.71875 0 
z
M 11.71875 51.703125 
L 22.015625 51.703125 
L 22.015625 39.3125 
L 11.71875 39.3125 
z
" id="DejaVuSans-58"/>
      <path d="M 31 75.875 
Q 24.46875 64.65625 21.28125 53.65625 
Q 18.109375 42.671875 18.109375 31.390625 
Q 18.109375 20.125 21.3125 9.0625 
Q 24.515625 -2 31 -13.1875 
L 23.1875 -13.1875 
Q 15.875 -1.703125 12.234375 9.375 
Q 8.59375 20.453125 8.59375 31.390625 
Q 8.59375 42.28125 12.203125 53.3125 
Q 15.828125 64.359375 23.1875 75.875 
z
" id="DejaVuSans-40"/>
      <path d="M 10.984375 1.515625 
L 10.984375 10.5 
Q 14.703125 8.734375 18.5 7.8125 
Q 22.3125 6.890625 25.984375 6.890625 
Q 35.75 6.890625 40.890625 13.453125 
Q 46.046875 20.015625 46.78125 33.40625 
Q 43.953125 29.203125 39.59375 26.953125 
Q 35.25 24.703125 29.984375 24.703125 
Q 19.046875 24.703125 12.671875 31.3125 
Q 6.296875 37.9375 6.296875 49.421875 
Q 6.296875 60.640625 12.9375 67.421875 
Q 19.578125 74.21875 30.609375 74.21875 
Q 43.265625 74.21875 49.921875 64.515625 
Q 56.59375 54.828125 56.59375 36.375 
Q 56.59375 19.140625 48.40625 8.859375 
Q 40.234375 -1.421875 26.421875 -1.421875 
Q 22.703125 -1.421875 18.890625 -0.6875 
Q 15.09375 0.046875 10.984375 1.515625 
z
M 30.609375 32.421875 
Q 37.25 32.421875 41.125 36.953125 
Q 45.015625 41.5 45.015625 49.421875 
Q 45.015625 57.28125 41.125 61.84375 
Q 37.25 66.40625 30.609375 66.40625 
Q 23.96875 66.40625 20.09375 61.84375 
Q 16.21875 57.28125 16.21875 49.421875 
Q 16.21875 41.5 20.09375 36.953125 
Q 23.96875 32.421875 30.609375 32.421875 
z
" id="DejaVuSans-57"/>
      <path d="M 73.1875 39.890625 
L 73.1875 31.203125 
Q 68.0625 27.34375 63.6875 25.6875 
Q 59.328125 24.03125 54.59375 24.03125 
Q 49.21875 24.03125 42.09375 26.90625 
Q 41.546875 27.09375 41.3125 27.203125 
Q 40.96875 27.34375 40.234375 27.59375 
Q 32.671875 30.609375 28.078125 30.609375 
Q 23.78125 30.609375 19.578125 28.734375 
Q 15.375 26.859375 10.59375 22.796875 
L 10.59375 31.5 
Q 15.71875 35.359375 20.09375 37.03125 
Q 24.46875 38.71875 29.203125 38.71875 
Q 34.578125 38.71875 41.75 35.796875 
Q 42.234375 35.59375 42.484375 35.5 
Q 42.875 35.359375 43.5625 35.109375 
Q 51.125 32.078125 55.71875 32.078125 
Q 59.90625 32.078125 64.03125 33.9375 
Q 68.171875 35.796875 73.1875 39.890625 
z
" id="DejaVuSans-126"/>
      <path d="M 31.78125 34.625 
Q 24.75 34.625 20.71875 30.859375 
Q 16.703125 27.09375 16.703125 20.515625 
Q 16.703125 13.921875 20.71875 10.15625 
Q 24.75 6.390625 31.78125 6.390625 
Q 38.8125 6.390625 42.859375 10.171875 
Q 46.921875 13.96875 46.921875 20.515625 
Q 46.921875 27.09375 42.890625 30.859375 
Q 38.875 34.625 31.78125 34.625 
z
M 21.921875 38.8125 
Q 15.578125 40.375 12.03125 44.71875 
Q 8.5 49.078125 8.5 55.328125 
Q 8.5 64.0625 14.71875 69.140625 
Q 20.953125 74.21875 31.78125 74.21875 
Q 42.671875 74.21875 48.875 69.140625 
Q 55.078125 64.0625 55.078125 55.328125 
Q 55.078125 49.078125 51.53125 44.71875 
Q 48 40.375 41.703125 38.8125 
Q 48.828125 37.15625 52.796875 32.3125 
Q 56.78125 27.484375 56.78125 20.515625 
Q 56.78125 9.90625 50.3125 4.234375 
Q 43.84375 -1.421875 31.78125 -1.421875 
Q 19.734375 -1.421875 13.25 4.234375 
Q 6.78125 9.90625 6.78125 20.515625 
Q 6.78125 27.484375 10.78125 32.3125 
Q 14.796875 37.15625 21.921875 38.8125 
z
M 18.3125 54.390625 
Q 18.3125 48.734375 21.84375 45.5625 
Q 25.390625 42.390625 31.78125 42.390625 
Q 38.140625 42.390625 41.71875 45.5625 
Q 45.3125 48.734375 45.3125 54.390625 
Q 45.3125 60.0625 41.71875 63.234375 
Q 38.140625 66.40625 31.78125 66.40625 
Q 25.390625 66.40625 21.84375 63.234375 
Q 18.3125 60.0625 18.3125 54.390625 
z
" id="DejaVuSans-56"/>
      <path d="M 8.015625 75.875 
L 15.828125 75.875 
Q 23.140625 64.359375 26.78125 53.3125 
Q 30.421875 42.28125 30.421875 31.390625 
Q 30.421875 20.453125 26.78125 9.375 
Q 23.140625 -1.703125 15.828125 -13.1875 
L 8.015625 -13.1875 
Q 14.5 -2 17.703125 9.0625 
Q 20.90625 20.125 20.90625 31.390625 
Q 20.90625 42.671875 17.703125 53.65625 
Q 14.5 64.65625 8.015625 75.875 
z
" id="DejaVuSans-41"/>
     </defs>
     <use xlink:href="#DejaVuSans-67"/>
     <use x="69.824219" xlink:href="#DejaVuSans-117"/>
     <use x="133.203125" xlink:href="#DejaVuSans-109"/>
     <use x="230.615234" xlink:href="#DejaVuSans-117"/>
     <use x="293.994141" xlink:href="#DejaVuSans-108"/>
     <use x="321.777344" xlink:href="#DejaVuSans-97"/>
     <use x="383.056641" xlink:href="#DejaVuSans-116"/>
     <use x="422.265625" xlink:href="#DejaVuSans-105"/>
     <use x="450.048828" xlink:href="#DejaVuSans-118"/>
     <use x="509.228516" xlink:href="#DejaVuSans-101"/>
     <use x="570.751953" xlink:href="#DejaVuSans-32"/>
     <use x="602.539062" xlink:href="#DejaVuSans-76"/>
     <use x="656.501953" xlink:href="#DejaVuSans-111"/>
     <use x="717.683594" xlink:href="#DejaVuSans-103"/>
     <use x="781.160156" xlink:href="#DejaVuSans-32"/>
     <use x="812.947266" xlink:href="#DejaVuSans-82"/>
     <use x="877.929688" xlink:href="#DejaVuSans-101"/>
     <use x="939.453125" xlink:href="#DejaVuSans-116"/>
     <use x="978.662109" xlink:href="#DejaVuSans-117"/>
     <use x="1042.041016" xlink:href="#DejaVuSans-114"/>
     <use x="1081.404297" xlink:href="#DejaVuSans-110"/>
     <use x="1144.783203" xlink:href="#DejaVuSans-58"/>
     <use x="1178.474609" xlink:href="#DejaVuSans-32"/>
     <use x="1210.261719" xlink:href="#DejaVuSans-40"/>
     <use x="1249.275391" xlink:href="#DejaVuSans-50"/>
     <use x="1312.898438" xlink:href="#DejaVuSans-48"/>
     <use x="1376.521484" xlink:href="#DejaVuSans-49"/>
     <use x="1440.144531" xlink:href="#DejaVuSans-48"/>
     <use x="1503.767578" xlink:href="#DejaVuSans-45"/>
     <use x="1539.851562" xlink:href="#DejaVuSans-48"/>
     <use x="1603.474609" xlink:href="#DejaVuSans-49"/>
     <use x="1667.097656" xlink:href="#DejaVuSans-45"/>
     <use x="1703.181641" xlink:href="#DejaVuSans-49"/>
     <use x="1766.804688" xlink:href="#DejaVuSans-57"/>
     <use x="1830.427734" xlink:href="#DejaVuSans-32"/>
     <use x="1862.214844" xlink:href="#DejaVuSans-126"/>
     <use x="1946.003906" xlink:href="#DejaVuSans-32"/>
     <use x="1977.791016" xlink:href="#DejaVuSans-50"/>
     <use x="2041.414062" xlink:href="#DejaVuSans-48"/>
     <use x="2105.037109" xlink:href="#DejaVuSans-49"/>
     <use x="2168.660156" xlink:href="#DejaVuSans-48"/>
     <use x="2232.283203" xlink:href="#DejaVuSans-45"/>
     <use x="2268.367188" xlink:href="#DejaVuSans-49"/>
     <use x="2331.990234" xlink:href="#DejaVuSans-48"/>
     <use x="2395.613281" xlink:href="#DejaVuSans-45"/>
     <use x="2431.697266" xlink:href="#DejaVuSans-48"/>
     <use x="2495.320312" xlink:href="#DejaVuSans-56"/>
     <use x="2558.943359" xlink:href="#DejaVuSans-41"/>
    </g>
   </g>
   <g id="legend_1">
    <g id="patch_7">
     <path d="M 57.9 123.379375 
L 154.389062 123.379375 
Q 156.389062 123.379375 156.389062 121.379375 
L 156.389062 32.92 
Q 156.389062 30.92 154.389062 30.92 
L 57.9 30.92 
Q 55.9 30.92 55.9 32.92 
L 55.9 121.379375 
Q 55.9 123.379375 57.9 123.379375 
z
" style="fill:#ffffff;opacity:0.8;stroke:#cccccc;stroke-linejoin:miter;"/>
    </g>
    <g id="line2d_21">
     <path d="M 59.9 39.018438 
L 79.9 39.018438 
" style="fill:none;stroke:#9467bd;stroke-linecap:square;stroke-width:1.5;"/>
    </g>
    <g id="line2d_22"/>
    <g id="text_10">
     <!-- group_5 -->
     <g transform="translate(87.9 42.518438)scale(0.1 -0.1)">
      <defs>
       <path d="M 18.109375 8.203125 
L 18.109375 -20.796875 
L 9.078125 -20.796875 
L 9.078125 54.6875 
L 18.109375 54.6875 
L 18.109375 46.390625 
Q 20.953125 51.265625 25.265625 53.625 
Q 29.59375 56 35.59375 56 
Q 45.5625 56 51.78125 48.09375 
Q 58.015625 40.1875 58.015625 27.296875 
Q 58.015625 14.40625 51.78125 6.484375 
Q 45.5625 -1.421875 35.59375 -1.421875 
Q 29.59375 -1.421875 25.265625 0.953125 
Q 20.953125 3.328125 18.109375 8.203125 
z
M 48.6875 27.296875 
Q 48.6875 37.203125 44.609375 42.84375 
Q 40.53125 48.484375 33.40625 48.484375 
Q 26.265625 48.484375 22.1875 42.84375 
Q 18.109375 37.203125 18.109375 27.296875 
Q 18.109375 17.390625 22.1875 11.75 
Q 26.265625 6.109375 33.40625 6.109375 
Q 40.53125 6.109375 44.609375 11.75 
Q 48.6875 17.390625 48.6875 27.296875 
z
" id="DejaVuSans-112"/>
       <path d="M 50.984375 -16.609375 
L 50.984375 -23.578125 
L -0.984375 -23.578125 
L -0.984375 -16.609375 
z
" id="DejaVuSans-95"/>
      </defs>
      <use xlink:href="#DejaVuSans-103"/>
      <use x="63.476562" xlink:href="#DejaVuSans-114"/>
      <use x="102.339844" xlink:href="#DejaVuSans-111"/>
      <use x="163.521484" xlink:href="#DejaVuSans-117"/>
      <use x="226.900391" xlink:href="#DejaVuSans-112"/>
      <use x="290.376953" xlink:href="#DejaVuSans-95"/>
      <use x="340.376953" xlink:href="#DejaVuSans-53"/>
     </g>
    </g>
    <g id="line2d_23">
     <path d="M 59.9 53.974688 
L 79.9 53.974688 
" style="fill:none;stroke:#1f77b4;stroke-linecap:square;stroke-width:1.5;"/>
    </g>
    <g id="line2d_24"/>
    <g id="text_11">
     <!-- group_1 -->
     <g transform="translate(87.9 57.474688)scale(0.1 -0.1)">
      <use xlink:href="#DejaVuSans-103"/>
      <use x="63.476562" xlink:href="#DejaVuSans-114"/>
      <use x="102.339844" xlink:href="#DejaVuSans-111"/>
      <use x="163.521484" xlink:href="#DejaVuSans-117"/>
      <use x="226.900391" xlink:href="#DejaVuSans-112"/>
      <use x="290.376953" xlink:href="#DejaVuSans-95"/>
      <use x="340.376953" xlink:href="#DejaVuSans-49"/>
     </g>
    </g>
    <g id="line2d_25">
     <path d="M 59.9 68.930938 
L 79.9 68.930938 
" style="fill:none;stroke:#8c564b;stroke-linecap:square;stroke-width:1.5;"/>
    </g>
    <g id="line2d_26"/>
    <g id="text_12">
     <!-- benchmark -->
     <g transform="translate(87.9 72.430938)scale(0.1 -0.1)">
      <defs>
       <path d="M 48.6875 27.296875 
Q 48.6875 37.203125 44.609375 42.84375 
Q 40.53125 48.484375 33.40625 48.484375 
Q 26.265625 48.484375 22.1875 42.84375 
Q 18.109375 37.203125 18.109375 27.296875 
Q 18.109375 17.390625 22.1875 11.75 
Q 26.265625 6.109375 33.40625 6.109375 
Q 40.53125 6.109375 44.609375 11.75 
Q 48.6875 17.390625 48.6875 27.296875 
z
M 18.109375 46.390625 
Q 20.953125 51.265625 25.265625 53.625 
Q 29.59375 56 35.59375 56 
Q 45.5625 56 51.78125 48.09375 
Q 58.015625 40.1875 58.015625 27.296875 
Q 58.015625 14.40625 51.78125 6.484375 
Q 45.5625 -1.421875 35.59375 -1.421875 
Q 29.59375 -1.421875 25.265625 0.953125 
Q 20.953125 3.328125 18.109375 8.203125 
L 18.109375 0 
L 9.078125 0 
L 9.078125 75.984375 
L 18.109375 75.984375 
z
" id="DejaVuSans-98"/>
       <path d="M 54.890625 33.015625 
L 54.890625 0 
L 45.90625 0 
L 45.90625 32.71875 
Q 45.90625 40.484375 42.875 44.328125 
Q 39.84375 48.1875 33.796875 48.1875 
Q 26.515625 48.1875 22.3125 43.546875 
Q 18.109375 38.921875 18.109375 30.90625 
L 18.109375 0 
L 9.078125 0 
L 9.078125 75.984375 
L 18.109375 75.984375 
L 18.109375 46.1875 
Q 21.34375 51.125 25.703125 53.5625 
Q 30.078125 56 35.796875 56 
Q 45.21875 56 50.046875 50.171875 
Q 54.890625 44.34375 54.890625 33.015625 
z
" id="DejaVuSans-104"/>
       <path d="M 9.078125 75.984375 
L 18.109375 75.984375 
L 18.109375 31.109375 
L 44.921875 54.6875 
L 56.390625 54.6875 
L 27.390625 29.109375 
L 57.625 0 
L 45.90625 0 
L 18.109375 26.703125 
L 18.109375 0 
L 9.078125 0 
z
" id="DejaVuSans-107"/>
      </defs>
      <use xlink:href="#DejaVuSans-98"/>
      <use x="63.476562" xlink:href="#DejaVuSans-101"/>
      <use x="125" xlink:href="#DejaVuSans-110"/>
      <use x="188.378906" xlink:href="#DejaVuSans-99"/>
      <use x="243.359375" xlink:href="#DejaVuSans-104"/>
      <use x="306.738281" xlink:href="#DejaVuSans-109"/>
      <use x="404.150391" xlink:href="#DejaVuSans-97"/>
      <use x="465.429688" xlink:href="#DejaVuSans-114"/>
      <use x="506.542969" xlink:href="#DejaVuSans-107"/>
     </g>
    </g>
    <g id="line2d_27">
     <path d="M 59.9 83.609062 
L 79.9 83.609062 
" style="fill:none;stroke:#e377c2;stroke-linecap:square;stroke-width:1.5;"/>
    </g>
    <g id="line2d_28"/>
    <g id="text_13">
     <!-- long_excess -->
     <g transform="translate(87.9 87.109062)scale(0.1 -0.1)">
      <defs>
       <path d="M 54.890625 54.6875 
L 35.109375 28.078125 
L 55.90625 0 
L 45.3125 0 
L 29.390625 21.484375 
L 13.484375 0 
L 2.875 0 
L 24.125 28.609375 
L 4.6875 54.6875 
L 15.28125 54.6875 
L 29.78125 35.203125 
L 44.28125 54.6875 
z
" id="DejaVuSans-120"/>
      </defs>
      <use xlink:href="#DejaVuSans-108"/>
      <use x="27.783203" xlink:href="#DejaVuSans-111"/>
      <use x="88.964844" xlink:href="#DejaVuSans-110"/>
      <use x="152.34375" xlink:href="#DejaVuSans-103"/>
      <use x="215.820312" xlink:href="#DejaVuSans-95"/>
      <use x="265.820312" xlink:href="#DejaVuSans-101"/>
      <use x="325.59375" xlink:href="#DejaVuSans-120"/>
      <use x="383.023438" xlink:href="#DejaVuSans-99"/>
      <use x="438.003906" xlink:href="#DejaVuSans-101"/>
      <use x="499.527344" xlink:href="#DejaVuSans-115"/>
      <use x="551.626953" xlink:href="#DejaVuSans-115"/>
     </g>
    </g>
    <g id="line2d_29">
     <path d="M 59.9 98.565313 
L 79.9 98.565313 
" style="fill:none;stroke:#7f7f7f;stroke-linecap:square;stroke-width:1.5;"/>
    </g>
    <g id="line2d_30"/>
    <g id="text_14">
     <!-- short_excess -->
     <g transform="translate(87.9 102.065313)scale(0.1 -0.1)">
      <use xlink:href="#DejaVuSans-115"/>
      <use x="52.099609" xlink:href="#DejaVuSans-104"/>
      <use x="115.478516" xlink:href="#DejaVuSans-111"/>
      <use x="176.660156" xlink:href="#DejaVuSans-114"/>
      <use x="217.773438" xlink:href="#DejaVuSans-116"/>
      <use x="256.982422" xlink:href="#DejaVuSans-95"/>
      <use x="306.982422" xlink:href="#DejaVuSans-101"/>
      <use x="366.755859" xlink:href="#DejaVuSans-120"/>
      <use x="424.185547" xlink:href="#DejaVuSans-99"/>
      <use x="479.166016" xlink:href="#DejaVuSans-101"/>
      <use x="540.689453" xlink:href="#DejaVuSans-115"/>
      <use x="592.789062" xlink:href="#DejaVuSans-115"/>
     </g>
    </g>
    <g id="line2d_31">
     <path d="M 59.9 113.521563 
L 79.9 113.521563 
" style="fill:none;stroke:#bcbd22;stroke-linecap:square;stroke-width:1.5;"/>
    </g>
    <g id="line2d_32"/>
    <g id="text_15">
     <!-- long_short -->
     <g transform="translate(87.9 117.021563)scale(0.1 -0.1)">
      <use xlink:href="#DejaVuSans-108"/>
      <use x="27.783203" xlink:href="#DejaVuSans-111"/>
      <use x="88.964844" xlink:href="#DejaVuSans-110"/>
      <use x="152.34375" xlink:href="#DejaVuSans-103"/>
      <use x="215.820312" xlink:href="#DejaVuSans-95"/>
      <use x="265.820312" xlink:href="#DejaVuSans-115"/>
      <use x="317.919922" xlink:href="#DejaVuSans-104"/>
      <use x="381.298828" xlink:href="#DejaVuSans-111"/>
      <use x="442.480469" xlink:href="#DejaVuSans-114"/>
      <use x="483.59375" xlink:href="#DejaVuSans-116"/>
     </g>
    </g>
   </g>
  </g>
 </g>
 <defs>
  <clipPath id="p1294f1a031">
   <rect height="319.78" width="1090.3" x="50.9" y="25.92"/>
  </clipPath>
 </defs>
</svg>
