<?xml version="1.0" encoding="utf-8" standalone="no"?>
<!DOCTYPE svg PUBLIC "-//W3C//DTD SVG 1.1//EN"
  "http://www.w3.org/Graphics/SVG/1.1/DTD/svg11.dtd">
<!-- Created with matplotlib (https://matplotlib.org/) -->
<svg height="360pt" version="1.1" viewBox="0 0 1152 360" width="1152pt" xmlns="http://www.w3.org/2000/svg" xmlns:xlink="http://www.w3.org/1999/xlink">
 <metadata>
  <rdf:RDF xmlns:cc="http://creativecommons.org/ns#" xmlns:dc="http://purl.org/dc/elements/1.1/" xmlns:rdf="http://www.w3.org/1999/02/22-rdf-syntax-ns#">
   <cc:Work>
    <dc:type rdf:resource="http://purl.org/dc/dcmitype/StillImage"/>
    <dc:date>2023-10-11T16:35:41.688055</dc:date>
    <dc:format>image/svg+xml</dc:format>
    <dc:creator>
     <cc:Agent>
      <dc:title>Matplotlib v3.3.4, https://matplotlib.org/</dc:title>
     </cc:Agent>
    </dc:creator>
   </cc:Work>
  </rdf:RDF>
 </metadata>
 <defs>
  <style type="text/css">*{stroke-linecap:butt;stroke-linejoin:round;}</style>
 </defs>
 <g id="figure_1">
  <g id="patch_1">
   <path d="M 0 360 
L 1152 360 
L 1152 0 
L 0 0 
z
" style="fill:#ffffff;"/>
  </g>
  <g id="axes_1">
   <g id="patch_2">
    <path d="M 57.26 345.7 
L 1141.2 345.7 
L 1141.2 25.92 
L 57.26 25.92 
z
" style="fill:#ffffff;"/>
   </g>
   <g id="matplotlib.axis_1"/>
   <g id="matplotlib.axis_2">
    <g id="ytick_1">
     <g id="line2d_1">
      <path clip-path="url(#ped9c41f451)" d="M 57.26 331.555145 
L 1141.2 331.555145 
" style="fill:none;stroke:#b0b0b0;stroke-linecap:square;stroke-width:0.8;"/>
     </g>
     <g id="line2d_2">
      <defs>
       <path d="M 0 0 
L -3.5 0 
" id="m017c21c3fd" style="stroke:#000000;stroke-width:0.8;"/>
      </defs>
      <g>
       <use style="stroke:#000000;stroke-width:0.8;" x="57.26" xlink:href="#m017c21c3fd" y="331.555145"/>
      </g>
     </g>
     <g id="text_1">
      <!-- -1.25 -->
      <g transform="translate(24.386562 335.354364)scale(0.1 -0.1)">
       <defs>
        <path d="M 4.890625 31.390625 
L 31.203125 31.390625 
L 31.203125 23.390625 
L 4.890625 23.390625 
z
" id="DejaVuSans-45"/>
        <path d="M 12.40625 8.296875 
L 28.515625 8.296875 
L 28.515625 63.921875 
L 10.984375 60.40625 
L 10.984375 69.390625 
L 28.421875 72.90625 
L 38.28125 72.90625 
L 38.28125 8.296875 
L 54.390625 8.296875 
L 54.390625 0 
L 12.40625 0 
z
" id="DejaVuSans-49"/>
        <path d="M 10.6875 12.40625 
L 21 12.40625 
L 21 0 
L 10.6875 0 
z
" id="DejaVuSans-46"/>
        <path d="M 19.1875 8.296875 
L 53.609375 8.296875 
L 53.609375 0 
L 7.328125 0 
L 7.328125 8.296875 
Q 12.9375 14.109375 22.625 23.890625 
Q 32.328125 33.6875 34.8125 36.53125 
Q 39.546875 41.84375 41.421875 45.53125 
Q 43.3125 49.21875 43.3125 52.78125 
Q 43.3125 58.59375 39.234375 62.25 
Q 35.15625 65.921875 28.609375 65.921875 
Q 23.96875 65.921875 18.8125 64.3125 
Q 13.671875 62.703125 7.8125 59.421875 
L 7.8125 69.390625 
Q 13.765625 71.78125 18.9375 73 
Q 24.125 74.21875 28.421875 74.21875 
Q 39.75 74.21875 46.484375 68.546875 
Q 53.21875 62.890625 53.21875 53.421875 
Q 53.21875 48.921875 51.53125 44.890625 
Q 49.859375 40.875 45.40625 35.40625 
Q 44.1875 33.984375 37.640625 27.21875 
Q 31.109375 20.453125 19.1875 8.296875 
z
" id="DejaVuSans-50"/>
        <path d="M 10.796875 72.90625 
L 49.515625 72.90625 
L 49.515625 64.59375 
L 19.828125 64.59375 
L 19.828125 46.734375 
Q 21.96875 47.46875 24.109375 47.828125 
Q 26.265625 48.1875 28.421875 48.1875 
Q 40.625 48.1875 47.75 41.5 
Q 54.890625 34.8125 54.890625 23.390625 
Q 54.890625 11.625 47.5625 5.09375 
Q 40.234375 -1.421875 26.90625 -1.421875 
Q 22.3125 -1.421875 17.546875 -0.640625 
Q 12.796875 0.140625 7.71875 1.703125 
L 7.71875 11.625 
Q 12.109375 9.234375 16.796875 8.0625 
Q 21.484375 6.890625 26.703125 6.890625 
Q 35.15625 6.890625 40.078125 11.328125 
Q 45.015625 15.765625 45.015625 23.390625 
Q 45.015625 31 40.078125 35.4375 
Q 35.15625 39.890625 26.703125 39.890625 
Q 22.75 39.890625 18.8125 39.015625 
Q 14.890625 38.140625 10.796875 36.28125 
z
" id="DejaVuSans-53"/>
       </defs>
       <use xlink:href="#DejaVuSans-45"/>
       <use x="36.083984" xlink:href="#DejaVuSans-49"/>
       <use x="99.707031" xlink:href="#DejaVuSans-46"/>
       <use x="131.494141" xlink:href="#DejaVuSans-50"/>
       <use x="195.117188" xlink:href="#DejaVuSans-53"/>
      </g>
     </g>
    </g>
    <g id="ytick_2">
     <g id="line2d_3">
      <path clip-path="url(#ped9c41f451)" d="M 57.26 290.572142 
L 1141.2 290.572142 
" style="fill:none;stroke:#b0b0b0;stroke-linecap:square;stroke-width:0.8;"/>
     </g>
     <g id="line2d_4">
      <g>
       <use style="stroke:#000000;stroke-width:0.8;" x="57.26" xlink:href="#m017c21c3fd" y="290.572142"/>
      </g>
     </g>
     <g id="text_2">
      <!-- -1.00 -->
      <g transform="translate(24.386562 294.371361)scale(0.1 -0.1)">
       <defs>
        <path d="M 31.78125 66.40625 
Q 24.171875 66.40625 20.328125 58.90625 
Q 16.5 51.421875 16.5 36.375 
Q 16.5 21.390625 20.328125 13.890625 
Q 24.171875 6.390625 31.78125 6.390625 
Q 39.453125 6.390625 43.28125 13.890625 
Q 47.125 21.390625 47.125 36.375 
Q 47.125 51.421875 43.28125 58.90625 
Q 39.453125 66.40625 31.78125 66.40625 
z
M 31.78125 74.21875 
Q 44.046875 74.21875 50.515625 64.515625 
Q 56.984375 54.828125 56.984375 36.375 
Q 56.984375 17.96875 50.515625 8.265625 
Q 44.046875 -1.421875 31.78125 -1.421875 
Q 19.53125 -1.421875 13.0625 8.265625 
Q 6.59375 17.96875 6.59375 36.375 
Q 6.59375 54.828125 13.0625 64.515625 
Q 19.53125 74.21875 31.78125 74.21875 
z
" id="DejaVuSans-48"/>
       </defs>
       <use xlink:href="#DejaVuSans-45"/>
       <use x="36.083984" xlink:href="#DejaVuSans-49"/>
       <use x="99.707031" xlink:href="#DejaVuSans-46"/>
       <use x="131.494141" xlink:href="#DejaVuSans-48"/>
       <use x="195.117188" xlink:href="#DejaVuSans-48"/>
      </g>
     </g>
    </g>
    <g id="ytick_3">
     <g id="line2d_5">
      <path clip-path="url(#ped9c41f451)" d="M 57.26 249.589139 
L 1141.2 249.589139 
" style="fill:none;stroke:#b0b0b0;stroke-linecap:square;stroke-width:0.8;"/>
     </g>
     <g id="line2d_6">
      <g>
       <use style="stroke:#000000;stroke-width:0.8;" x="57.26" xlink:href="#m017c21c3fd" y="249.589139"/>
      </g>
     </g>
     <g id="text_3">
      <!-- -0.75 -->
      <g transform="translate(24.386562 253.388358)scale(0.1 -0.1)">
       <defs>
        <path d="M 8.203125 72.90625 
L 55.078125 72.90625 
L 55.078125 68.703125 
L 28.609375 0 
L 18.3125 0 
L 43.21875 64.59375 
L 8.203125 64.59375 
z
" id="DejaVuSans-55"/>
       </defs>
       <use xlink:href="#DejaVuSans-45"/>
       <use x="36.083984" xlink:href="#DejaVuSans-48"/>
       <use x="99.707031" xlink:href="#DejaVuSans-46"/>
       <use x="131.494141" xlink:href="#DejaVuSans-55"/>
       <use x="195.117188" xlink:href="#DejaVuSans-53"/>
      </g>
     </g>
    </g>
    <g id="ytick_4">
     <g id="line2d_7">
      <path clip-path="url(#ped9c41f451)" d="M 57.26 208.606137 
L 1141.2 208.606137 
" style="fill:none;stroke:#b0b0b0;stroke-linecap:square;stroke-width:0.8;"/>
     </g>
     <g id="line2d_8">
      <g>
       <use style="stroke:#000000;stroke-width:0.8;" x="57.26" xlink:href="#m017c21c3fd" y="208.606137"/>
      </g>
     </g>
     <g id="text_4">
      <!-- -0.50 -->
      <g transform="translate(24.386562 212.405355)scale(0.1 -0.1)">
       <use xlink:href="#DejaVuSans-45"/>
       <use x="36.083984" xlink:href="#DejaVuSans-48"/>
       <use x="99.707031" xlink:href="#DejaVuSans-46"/>
       <use x="131.494141" xlink:href="#DejaVuSans-53"/>
       <use x="195.117188" xlink:href="#DejaVuSans-48"/>
      </g>
     </g>
    </g>
    <g id="ytick_5">
     <g id="line2d_9">
      <path clip-path="url(#ped9c41f451)" d="M 57.26 167.623134 
L 1141.2 167.623134 
" style="fill:none;stroke:#b0b0b0;stroke-linecap:square;stroke-width:0.8;"/>
     </g>
     <g id="line2d_10">
      <g>
       <use style="stroke:#000000;stroke-width:0.8;" x="57.26" xlink:href="#m017c21c3fd" y="167.623134"/>
      </g>
     </g>
     <g id="text_5">
      <!-- -0.25 -->
      <g transform="translate(24.386562 171.422353)scale(0.1 -0.1)">
       <use xlink:href="#DejaVuSans-45"/>
       <use x="36.083984" xlink:href="#DejaVuSans-48"/>
       <use x="99.707031" xlink:href="#DejaVuSans-46"/>
       <use x="131.494141" xlink:href="#DejaVuSans-50"/>
       <use x="195.117188" xlink:href="#DejaVuSans-53"/>
      </g>
     </g>
    </g>
    <g id="ytick_6">
     <g id="line2d_11">
      <path clip-path="url(#ped9c41f451)" d="M 57.26 126.640131 
L 1141.2 126.640131 
" style="fill:none;stroke:#b0b0b0;stroke-linecap:square;stroke-width:0.8;"/>
     </g>
     <g id="line2d_12">
      <g>
       <use style="stroke:#000000;stroke-width:0.8;" x="57.26" xlink:href="#m017c21c3fd" y="126.640131"/>
      </g>
     </g>
     <g id="text_6">
      <!-- 0.00 -->
      <g transform="translate(27.994375 130.43935)scale(0.1 -0.1)">
       <use xlink:href="#DejaVuSans-48"/>
       <use x="63.623047" xlink:href="#DejaVuSans-46"/>
       <use x="95.410156" xlink:href="#DejaVuSans-48"/>
       <use x="159.033203" xlink:href="#DejaVuSans-48"/>
      </g>
     </g>
    </g>
    <g id="ytick_7">
     <g id="line2d_13">
      <path clip-path="url(#ped9c41f451)" d="M 57.26 85.657128 
L 1141.2 85.657128 
" style="fill:none;stroke:#b0b0b0;stroke-linecap:square;stroke-width:0.8;"/>
     </g>
     <g id="line2d_14">
      <g>
       <use style="stroke:#000000;stroke-width:0.8;" x="57.26" xlink:href="#m017c21c3fd" y="85.657128"/>
      </g>
     </g>
     <g id="text_7">
      <!-- 0.25 -->
      <g transform="translate(27.994375 89.456347)scale(0.1 -0.1)">
       <use xlink:href="#DejaVuSans-48"/>
       <use x="63.623047" xlink:href="#DejaVuSans-46"/>
       <use x="95.410156" xlink:href="#DejaVuSans-50"/>
       <use x="159.033203" xlink:href="#DejaVuSans-53"/>
      </g>
     </g>
    </g>
    <g id="ytick_8">
     <g id="line2d_15">
      <path clip-path="url(#ped9c41f451)" d="M 57.26 44.674125 
L 1141.2 44.674125 
" style="fill:none;stroke:#b0b0b0;stroke-linecap:square;stroke-width:0.8;"/>
     </g>
     <g id="line2d_16">
      <g>
       <use style="stroke:#000000;stroke-width:0.8;" x="57.26" xlink:href="#m017c21c3fd" y="44.674125"/>
      </g>
     </g>
     <g id="text_8">
      <!-- 0.50 -->
      <g transform="translate(27.994375 48.473344)scale(0.1 -0.1)">
       <use xlink:href="#DejaVuSans-48"/>
       <use x="63.623047" xlink:href="#DejaVuSans-46"/>
       <use x="95.410156" xlink:href="#DejaVuSans-53"/>
       <use x="159.033203" xlink:href="#DejaVuSans-48"/>
      </g>
     </g>
    </g>
    <g id="text_9">
     <!-- log return cumsum -->
     <g transform="translate(18.306875 233.327969)rotate(-90)scale(0.1 -0.1)">
      <defs>
       <path d="M 9.421875 75.984375 
L 18.40625 75.984375 
L 18.40625 0 
L 9.421875 0 
z
" id="DejaVuSans-108"/>
       <path d="M 30.609375 48.390625 
Q 23.390625 48.390625 19.1875 42.75 
Q 14.984375 37.109375 14.984375 27.296875 
Q 14.984375 17.484375 19.15625 11.84375 
Q 23.34375 6.203125 30.609375 6.203125 
Q 37.796875 6.203125 41.984375 11.859375 
Q 46.1875 17.53125 46.1875 27.296875 
Q 46.1875 37.015625 41.984375 42.703125 
Q 37.796875 48.390625 30.609375 48.390625 
z
M 30.609375 56 
Q 42.328125 56 49.015625 48.375 
Q 55.71875 40.765625 55.71875 27.296875 
Q 55.71875 13.875 49.015625 6.21875 
Q 42.328125 -1.421875 30.609375 -1.421875 
Q 18.84375 -1.421875 12.171875 6.21875 
Q 5.515625 13.875 5.515625 27.296875 
Q 5.515625 40.765625 12.171875 48.375 
Q 18.84375 56 30.609375 56 
z
" id="DejaVuSans-111"/>
       <path d="M 45.40625 27.984375 
Q 45.40625 37.75 41.375 43.109375 
Q 37.359375 48.484375 30.078125 48.484375 
Q 22.859375 48.484375 18.828125 43.109375 
Q 14.796875 37.75 14.796875 27.984375 
Q 14.796875 18.265625 18.828125 12.890625 
Q 22.859375 7.515625 30.078125 7.515625 
Q 37.359375 7.515625 41.375 12.890625 
Q 45.40625 18.265625 45.40625 27.984375 
z
M 54.390625 6.78125 
Q 54.390625 -7.171875 48.1875 -13.984375 
Q 42 -20.796875 29.203125 -20.796875 
Q 24.46875 -20.796875 20.265625 -20.09375 
Q 16.0625 -19.390625 12.109375 -17.921875 
L 12.109375 -9.1875 
Q 16.0625 -11.328125 19.921875 -12.34375 
Q 23.78125 -13.375 27.78125 -13.375 
Q 36.625 -13.375 41.015625 -8.765625 
Q 45.40625 -4.15625 45.40625 5.171875 
L 45.40625 9.625 
Q 42.625 4.78125 38.28125 2.390625 
Q 33.9375 0 27.875 0 
Q 17.828125 0 11.671875 7.65625 
Q 5.515625 15.328125 5.515625 27.984375 
Q 5.515625 40.671875 11.671875 48.328125 
Q 17.828125 56 27.875 56 
Q 33.9375 56 38.28125 53.609375 
Q 42.625 51.21875 45.40625 46.390625 
L 45.40625 54.6875 
L 54.390625 54.6875 
z
" id="DejaVuSans-103"/>
       <path id="DejaVuSans-32"/>
       <path d="M 41.109375 46.296875 
Q 39.59375 47.171875 37.8125 47.578125 
Q 36.03125 48 33.890625 48 
Q 26.265625 48 22.1875 43.046875 
Q 18.109375 38.09375 18.109375 28.8125 
L 18.109375 0 
L 9.078125 0 
L 9.078125 54.6875 
L 18.109375 54.6875 
L 18.109375 46.1875 
Q 20.953125 51.171875 25.484375 53.578125 
Q 30.03125 56 36.53125 56 
Q 37.453125 56 38.578125 55.875 
Q 39.703125 55.765625 41.0625 55.515625 
z
" id="DejaVuSans-114"/>
       <path d="M 56.203125 29.59375 
L 56.203125 25.203125 
L 14.890625 25.203125 
Q 15.484375 15.921875 20.484375 11.0625 
Q 25.484375 6.203125 34.421875 6.203125 
Q 39.59375 6.203125 44.453125 7.46875 
Q 49.3125 8.734375 54.109375 11.28125 
L 54.109375 2.78125 
Q 49.265625 0.734375 44.1875 -0.34375 
Q 39.109375 -1.421875 33.890625 -1.421875 
Q 20.796875 -1.421875 13.15625 6.1875 
Q 5.515625 13.8125 5.515625 26.8125 
Q 5.515625 40.234375 12.765625 48.109375 
Q 20.015625 56 32.328125 56 
Q 43.359375 56 49.78125 48.890625 
Q 56.203125 41.796875 56.203125 29.59375 
z
M 47.21875 32.234375 
Q 47.125 39.59375 43.09375 43.984375 
Q 39.0625 48.390625 32.421875 48.390625 
Q 24.90625 48.390625 20.390625 44.140625 
Q 15.875 39.890625 15.1875 32.171875 
z
" id="DejaVuSans-101"/>
       <path d="M 18.3125 70.21875 
L 18.3125 54.6875 
L 36.8125 54.6875 
L 36.8125 47.703125 
L 18.3125 47.703125 
L 18.3125 18.015625 
Q 18.3125 11.328125 20.140625 9.421875 
Q 21.96875 7.515625 27.59375 7.515625 
L 36.8125 7.515625 
L 36.8125 0 
L 27.59375 0 
Q 17.1875 0 13.234375 3.875 
Q 9.28125 7.765625 9.28125 18.015625 
L 9.28125 47.703125 
L 2.6875 47.703125 
L 2.6875 54.6875 
L 9.28125 54.6875 
L 9.28125 70.21875 
z
" id="DejaVuSans-116"/>
       <path d="M 8.5 21.578125 
L 8.5 54.6875 
L 17.484375 54.6875 
L 17.484375 21.921875 
Q 17.484375 14.15625 20.5 10.265625 
Q 23.53125 6.390625 29.59375 6.390625 
Q 36.859375 6.390625 41.078125 11.03125 
Q 45.3125 15.671875 45.3125 23.6875 
L 45.3125 54.6875 
L 54.296875 54.6875 
L 54.296875 0 
L 45.3125 0 
L 45.3125 8.40625 
Q 42.046875 3.421875 37.71875 1 
Q 33.40625 -1.421875 27.6875 -1.421875 
Q 18.265625 -1.421875 13.375 4.4375 
Q 8.5 10.296875 8.5 21.578125 
z
M 31.109375 56 
z
" id="DejaVuSans-117"/>
       <path d="M 54.890625 33.015625 
L 54.890625 0 
L 45.90625 0 
L 45.90625 32.71875 
Q 45.90625 40.484375 42.875 44.328125 
Q 39.84375 48.1875 33.796875 48.1875 
Q 26.515625 48.1875 22.3125 43.546875 
Q 18.109375 38.921875 18.109375 30.90625 
L 18.109375 0 
L 9.078125 0 
L 9.078125 54.6875 
L 18.109375 54.6875 
L 18.109375 46.1875 
Q 21.34375 51.125 25.703125 53.5625 
Q 30.078125 56 35.796875 56 
Q 45.21875 56 50.046875 50.171875 
Q 54.890625 44.34375 54.890625 33.015625 
z
" id="DejaVuSans-110"/>
       <path d="M 48.78125 52.59375 
L 48.78125 44.1875 
Q 44.96875 46.296875 41.140625 47.34375 
Q 37.3125 48.390625 33.40625 48.390625 
Q 24.65625 48.390625 19.8125 42.84375 
Q 14.984375 37.3125 14.984375 27.296875 
Q 14.984375 17.28125 19.8125 11.734375 
Q 24.65625 6.203125 33.40625 6.203125 
Q 37.3125 6.203125 41.140625 7.25 
Q 44.96875 8.296875 48.78125 10.40625 
L 48.78125 2.09375 
Q 45.015625 0.34375 40.984375 -0.53125 
Q 36.96875 -1.421875 32.421875 -1.421875 
Q 20.0625 -1.421875 12.78125 6.34375 
Q 5.515625 14.109375 5.515625 27.296875 
Q 5.515625 40.671875 12.859375 48.328125 
Q 20.21875 56 33.015625 56 
Q 37.15625 56 41.109375 55.140625 
Q 45.0625 54.296875 48.78125 52.59375 
z
" id="DejaVuSans-99"/>
       <path d="M 52 44.1875 
Q 55.375 50.25 60.0625 53.125 
Q 64.75 56 71.09375 56 
Q 79.640625 56 84.28125 50.015625 
Q 88.921875 44.046875 88.921875 33.015625 
L 88.921875 0 
L 79.890625 0 
L 79.890625 32.71875 
Q 79.890625 40.578125 77.09375 44.375 
Q 74.3125 48.1875 68.609375 48.1875 
Q 61.625 48.1875 57.5625 43.546875 
Q 53.515625 38.921875 53.515625 30.90625 
L 53.515625 0 
L 44.484375 0 
L 44.484375 32.71875 
Q 44.484375 40.625 41.703125 44.40625 
Q 38.921875 48.1875 33.109375 48.1875 
Q 26.21875 48.1875 22.15625 43.53125 
Q 18.109375 38.875 18.109375 30.90625 
L 18.109375 0 
L 9.078125 0 
L 9.078125 54.6875 
L 18.109375 54.6875 
L 18.109375 46.1875 
Q 21.1875 51.21875 25.484375 53.609375 
Q 29.78125 56 35.6875 56 
Q 41.65625 56 45.828125 52.96875 
Q 50 49.953125 52 44.1875 
z
" id="DejaVuSans-109"/>
       <path d="M 44.28125 53.078125 
L 44.28125 44.578125 
Q 40.484375 46.53125 36.375 47.5 
Q 32.28125 48.484375 27.875 48.484375 
Q 21.1875 48.484375 17.84375 46.4375 
Q 14.5 44.390625 14.5 40.28125 
Q 14.5 37.15625 16.890625 35.375 
Q 19.28125 33.59375 26.515625 31.984375 
L 29.59375 31.296875 
Q 39.15625 29.25 43.1875 25.515625 
Q 47.21875 21.78125 47.21875 15.09375 
Q 47.21875 7.46875 41.1875 3.015625 
Q 35.15625 -1.421875 24.609375 -1.421875 
Q 20.21875 -1.421875 15.453125 -0.5625 
Q 10.6875 0.296875 5.421875 2 
L 5.421875 11.28125 
Q 10.40625 8.6875 15.234375 7.390625 
Q 20.0625 6.109375 24.8125 6.109375 
Q 31.15625 6.109375 34.5625 8.28125 
Q 37.984375 10.453125 37.984375 14.40625 
Q 37.984375 18.0625 35.515625 20.015625 
Q 33.0625 21.96875 24.703125 23.78125 
L 21.578125 24.515625 
Q 13.234375 26.265625 9.515625 29.90625 
Q 5.8125 33.546875 5.8125 39.890625 
Q 5.8125 47.609375 11.28125 51.796875 
Q 16.75 56 26.8125 56 
Q 31.78125 56 36.171875 55.265625 
Q 40.578125 54.546875 44.28125 53.078125 
z
" id="DejaVuSans-115"/>
      </defs>
      <use xlink:href="#DejaVuSans-108"/>
      <use x="27.783203" xlink:href="#DejaVuSans-111"/>
      <use x="88.964844" xlink:href="#DejaVuSans-103"/>
      <use x="152.441406" xlink:href="#DejaVuSans-32"/>
      <use x="184.228516" xlink:href="#DejaVuSans-114"/>
      <use x="223.091797" xlink:href="#DejaVuSans-101"/>
      <use x="284.615234" xlink:href="#DejaVuSans-116"/>
      <use x="323.824219" xlink:href="#DejaVuSans-117"/>
      <use x="387.203125" xlink:href="#DejaVuSans-114"/>
      <use x="426.566406" xlink:href="#DejaVuSans-110"/>
      <use x="489.945312" xlink:href="#DejaVuSans-32"/>
      <use x="521.732422" xlink:href="#DejaVuSans-99"/>
      <use x="576.712891" xlink:href="#DejaVuSans-117"/>
      <use x="640.091797" xlink:href="#DejaVuSans-109"/>
      <use x="737.503906" xlink:href="#DejaVuSans-115"/>
      <use x="789.603516" xlink:href="#DejaVuSans-117"/>
      <use x="852.982422" xlink:href="#DejaVuSans-109"/>
     </g>
    </g>
   </g>
   <g id="line2d_17">
    <path clip-path="url(#ped9c41f451)" d="M 106.53 124.524192 
L 110.48743 121.750907 
L 114.444859 123.746006 
L 118.402289 121.564334 
L 122.359719 121.096754 
L 134.232008 125.828749 
L 138.189438 122.445927 
L 142.146867 120.206425 
L 146.104297 122.054649 
L 150.061727 113.152695 
L 161.934016 106.961859 
L 169.848876 108.404896 
L 173.806305 108.251721 
L 177.763735 109.78337 
L 189.636024 110.13886 
L 197.550884 109.431545 
L 201.508313 115.593028 
L 205.465743 109.911942 
L 217.338032 106.867604 
L 221.295462 115.485945 
L 225.252892 112.611489 
L 229.210321 116.296742 
L 233.167751 118.885966 
L 245.04004 115.444017 
L 248.99747 113.13162 
L 252.9549 110.989863 
L 256.912329 110.087315 
L 260.869759 110.782645 
L 272.742048 104.870518 
L 276.699478 103.567226 
L 280.656908 103.568588 
L 284.614337 103.248744 
L 288.571767 101.965645 
L 300.444056 98.894219 
L 304.401486 99.462294 
L 308.358916 97.968085 
L 312.316345 94.750723 
L 316.273775 97.334166 
L 328.146064 98.589167 
L 332.103494 99.219265 
L 336.060924 104.339778 
L 343.975783 104.775712 
L 355.848072 106.472863 
L 359.805502 99.972294 
L 363.762932 102.986191 
L 367.720361 101.607883 
L 371.677791 99.097855 
L 387.50751 102.205982 
L 391.46494 98.26799 
L 395.422369 104.027441 
L 399.379799 102.967378 
L 411.252088 100.301456 
L 415.209518 101.193906 
L 419.166948 105.35329 
L 423.124378 100.525619 
L 427.081807 104.27257 
L 438.954096 111.828131 
L 442.911526 112.482254 
L 446.868956 107.144725 
L 450.826386 104.398165 
L 454.783815 108.113371 
L 466.656104 110.060339 
L 470.613534 114.083996 
L 474.570964 116.47561 
L 478.528394 117.933619 
L 482.485823 127.962554 
L 494.358112 139.115794 
L 498.315542 143.544575 
L 502.272972 152.31196 
L 506.230402 147.809443 
L 510.187831 137.905445 
L 522.06012 130.497184 
L 526.01755 136.129726 
L 529.97498 140.276079 
L 533.93241 135.935952 
L 537.889839 133.25207 
L 549.762129 131.309213 
L 553.719558 132.429248 
L 557.676988 132.165947 
L 561.634418 121.843953 
L 565.591847 123.638115 
L 577.464137 128.688641 
L 581.421566 131.112487 
L 585.378996 134.621541 
L 589.336426 130.88788 
L 593.293855 131.775564 
L 605.166145 137.328334 
L 609.123574 132.947703 
L 613.081004 134.761339 
L 617.038434 134.438658 
L 620.995863 136.690566 
L 632.868153 140.195813 
L 636.825582 142.499078 
L 640.783012 141.839634 
L 648.697871 133.98686 
L 660.570161 133.071868 
L 668.48502 128.09477 
L 672.44245 130.133358 
L 676.39988 134.789685 
L 688.272169 138.928665 
L 692.229598 143.912375 
L 696.187028 142.245398 
L 700.144458 139.004692 
L 704.101888 139.62498 
L 715.974177 146.463092 
L 719.931606 150.971929 
L 723.889036 148.880544 
L 727.846466 149.025139 
L 731.803896 153.333362 
L 743.676185 155.450079 
L 747.633614 149.081209 
L 751.591044 144.032095 
L 755.548474 150.358642 
L 759.505904 154.948372 
L 771.378193 158.114893 
L 775.335622 169.030202 
L 779.293052 175.282777 
L 783.250482 180.999486 
L 787.207912 174.179728 
L 799.080201 175.489847 
L 803.037631 182.861018 
L 806.99506 181.570976 
L 810.95249 175.751306 
L 814.90992 179.736736 
L 826.782209 190.296723 
L 830.739639 193.064514 
L 834.697068 192.346476 
L 838.654498 195.172045 
L 842.611928 194.907814 
L 854.484217 193.16294 
L 858.441647 193.784188 
L 862.399076 188.128855 
L 866.356506 180.574102 
L 870.313936 183.23308 
L 882.186225 175.938511 
L 886.143655 185.71538 
L 890.101084 190.046666 
L 894.058514 191.402867 
L 898.015944 203.489294 
L 909.888233 196.021587 
L 913.845663 189.534144 
L 917.803092 185.04815 
L 925.717952 176.606546 
L 937.590241 182.799698 
L 941.547671 181.971726 
L 945.5051 188.036409 
L 949.46253 182.184211 
L 953.41996 183.707054 
L 965.292249 183.109036 
L 969.249679 178.183014 
L 973.207108 179.978686 
L 977.164538 180.974617 
L 981.121968 181.48305 
L 992.994257 177.563414 
L 996.951687 178.383007 
L 1000.909116 179.721125 
L 1004.866546 180.392213 
L 1008.823976 185.136504 
L 1020.696265 186.283902 
L 1024.653695 183.443005 
L 1028.611124 184.615755 
L 1032.568554 179.314477 
L 1036.525984 182.708159 
L 1048.398273 185.472373 
L 1052.355703 190.444838 
L 1056.313133 185.93553 
L 1060.270562 190.670712 
L 1064.227992 185.246269 
L 1076.100281 186.29937 
L 1080.057711 188.743594 
L 1084.015141 193.816999 
L 1091.93 193.782555 
L 1091.93 193.782555 
" style="fill:none;stroke:#1f77b4;stroke-linecap:square;stroke-width:1.5;"/>
   </g>
   <g id="line2d_18">
    <path clip-path="url(#ped9c41f451)" d="M 106.53 138.907595 
L 110.48743 145.868127 
L 114.444859 150.309259 
L 118.402289 151.755931 
L 122.359719 142.66295 
L 134.232008 152.817688 
L 138.189438 152.351655 
L 142.146867 149.349375 
L 146.104297 164.937852 
L 150.061727 161.449229 
L 161.934016 172.623919 
L 165.891446 187.543059 
L 169.848876 173.449302 
L 173.806305 158.852492 
L 177.763735 149.040823 
L 189.636024 155.575359 
L 193.593454 169.327254 
L 197.550884 163.395539 
L 201.508313 165.369561 
L 205.465743 178.254966 
L 217.338032 178.413174 
L 221.295462 194.437147 
L 225.252892 181.538066 
L 229.210321 189.643944 
L 233.167751 184.400191 
L 245.04004 190.692747 
L 248.99747 190.036106 
L 252.9549 188.511753 
L 256.912329 199.184229 
L 260.869759 184.468911 
L 272.742048 175.687738 
L 276.699478 161.876623 
L 280.656908 149.417351 
L 284.614337 146.238582 
L 288.571767 132.959492 
L 300.444056 147.039018 
L 304.401486 157.322551 
L 308.358916 172.955137 
L 312.316345 178.784349 
L 316.273775 182.475465 
L 328.146064 190.148931 
L 332.103494 179.710325 
L 336.060924 184.475458 
L 340.018353 191.81992 
L 343.975783 190.426013 
L 355.848072 202.642944 
L 359.805502 193.022865 
L 363.762932 207.601247 
L 367.720361 192.368169 
L 371.677791 183.676771 
L 383.55008 193.864932 
L 387.50751 210.93585 
L 391.46494 200.906176 
L 395.422369 194.260608 
L 399.379799 186.919156 
L 411.252088 178.258059 
L 415.209518 192.854574 
L 419.166948 197.561917 
L 423.124378 210.666273 
L 427.081807 199.173837 
L 438.954096 195.180374 
L 442.911526 200.820543 
L 446.868956 215.793315 
L 450.826386 222.110701 
L 454.783815 227.944907 
L 466.656104 220.584678 
L 470.613534 216.135587 
L 474.570964 203.907862 
L 478.528394 204.821375 
L 482.485823 217.793485 
L 494.358112 210.946938 
L 498.315542 202.612249 
L 502.272972 200.615402 
L 506.230402 191.963733 
L 510.187831 192.167279 
L 522.06012 191.423641 
L 526.01755 193.816692 
L 529.97498 210.165257 
L 533.93241 223.553183 
L 537.889839 239.684179 
L 549.762129 235.271694 
L 553.719558 241.474164 
L 557.676988 241.193403 
L 561.634418 228.347484 
L 565.591847 236.780525 
L 577.464137 239.745397 
L 581.421566 231.573884 
L 585.378996 240.715853 
L 589.336426 255.207203 
L 593.293855 262.249622 
L 605.166145 273.751161 
L 609.123574 260.235698 
L 613.081004 250.432583 
L 617.038434 246.116085 
L 620.995863 234.368397 
L 632.868153 224.702718 
L 636.825582 235.315173 
L 640.783012 222.924843 
L 644.740442 221.64 
L 648.697871 211.857894 
L 660.570161 199.360218 
L 664.52759 205.438536 
L 668.48502 218.749618 
L 672.44245 227.921507 
L 676.39988 230.328971 
L 688.272169 220.22057 
L 692.229598 208.80068 
L 696.187028 225.819575 
L 700.144458 225.467588 
L 704.101888 228.197997 
L 715.974177 237.572062 
L 719.931606 250.534551 
L 723.889036 255.946938 
L 727.846466 242.033065 
L 731.803896 247.934568 
L 743.676185 247.319646 
L 747.633614 240.794969 
L 751.591044 245.328168 
L 759.505904 216.04574 
L 771.378193 224.392854 
L 775.335622 224.48309 
L 779.293052 231.145128 
L 783.250482 238.355714 
L 787.207912 254.289386 
L 799.080201 250.735958 
L 803.037631 250.648146 
L 806.99506 266.055416 
L 810.95249 273.478351 
L 814.90992 260.611231 
L 826.782209 269.38048 
L 830.739639 281.457216 
L 834.697068 281.803387 
L 838.654498 266.607257 
L 842.611928 275.290288 
L 854.484217 269.741557 
L 858.441647 261.380864 
L 862.399076 270.216686 
L 866.356506 262.900029 
L 870.313936 267.29329 
L 882.186225 263.011857 
L 886.143655 258.691337 
L 890.101084 257.52259 
L 894.058514 271.537918 
L 898.015944 260.897473 
L 909.888233 266.881345 
L 913.845663 277.495603 
L 917.803092 293.288842 
L 921.760522 290.335552 
L 925.717952 284.614844 
L 937.590241 301.283633 
L 941.547671 300.887624 
L 945.5051 310.109428 
L 949.46253 305.417524 
L 953.41996 316.457407 
L 965.292249 310.313817 
L 969.249679 314.070065 
L 973.207108 300.342421 
L 977.164538 312.679611 
L 981.121968 317.97509 
L 992.994257 331.164545 
L 996.951687 317.800233 
L 1000.909116 305.873229 
L 1004.866546 314.007989 
L 1008.823976 308.844856 
L 1020.696265 298.760888 
L 1024.653695 296.960969 
L 1028.611124 295.991705 
L 1032.568554 304.681753 
L 1036.525984 318.596651 
L 1048.398273 306.064818 
L 1052.355703 293.435749 
L 1056.313133 289.128905 
L 1060.270562 294.493362 
L 1064.227992 299.51332 
L 1076.100281 292.267562 
L 1084.015141 267.515052 
L 1087.97257 258.586558 
L 1087.97257 258.586558 
" style="fill:none;stroke:#ff7f0e;stroke-linecap:square;stroke-width:1.5;"/>
   </g>
   <g id="line2d_19">
    <path clip-path="url(#ped9c41f451)" d="M 106.53 113.252614 
L 110.48743 103.912135 
L 114.444859 101.531005 
L 118.402289 97.934193 
L 122.359719 107.065497 
L 134.232008 101.963458 
L 138.189438 99.038439 
L 142.146867 99.815349 
L 146.104297 87.27505 
L 150.061727 81.747225 
L 161.934016 65.471091 
L 165.891446 52.454426 
L 173.806305 84.531152 
L 177.763735 96.600499 
L 189.636024 90.658591 
L 193.593454 77.593133 
L 197.550884 83.43768 
L 201.508313 87.574382 
L 205.465743 70.340215 
L 217.338032 67.140729 
L 221.295462 60.410771 
L 225.252892 71.283856 
L 229.210321 67.073785 
L 233.167751 75.167757 
L 245.04004 65.789547 
L 248.99747 64.12718 
L 252.9549 63.504018 
L 256.912329 52.634915 
L 260.869759 69.570162 
L 272.742048 72.598549 
L 280.656908 99.738994 
L 284.614337 102.654397 
L 288.571767 115.703879 
L 300.444056 99.898654 
L 304.401486 90.757771 
L 308.358916 75.116837 
L 312.316345 66.378022 
L 316.273775 65.294929 
L 328.146064 59.164563 
L 332.103494 70.987871 
L 336.060924 71.33306 
L 340.018353 64.481433 
L 343.975783 66.139739 
L 355.848072 56.353346 
L 359.805502 59.663313 
L 363.762932 49.051706 
L 367.720361 64.320348 
L 371.677791 70.845074 
L 383.55008 63.512168 
L 387.50751 48.7003 
L 391.46494 55.184018 
L 395.422369 68.123038 
L 399.379799 74.697968 
L 411.252088 81.024763 
L 415.209518 68.44454 
L 419.166948 67.912066 
L 423.124378 51.290235 
L 427.081807 67.69351 
L 438.954096 79.537867 
L 442.911526 74.717997 
L 446.868956 56.083661 
L 450.826386 47.353403 
L 454.783815 45.30803 
L 466.656104 55.055582 
L 470.613534 63.767732 
L 474.570964 79.575544 
L 478.528394 80.117009 
L 482.485823 77.395907 
L 494.358112 96.209111 
L 498.315542 109.666352 
L 502.272972 120.56699 
L 506.230402 124.944027 
L 510.187831 114.848646 
L 522.06012 108.154334 
L 526.01755 111.346417 
L 529.97498 100.264155 
L 533.93241 83.859156 
L 537.889839 66.718597 
L 549.762129 69.256127 
L 553.719558 64.359606 
L 557.676988 64.377096 
L 561.634418 67.108478 
L 565.591847 60.796156 
L 577.464137 62.844195 
L 581.421566 73.999924 
L 585.378996 68.667628 
L 589.336426 51.908439 
L 593.293855 46.007907 
L 605.166145 40.455455 
L 609.123574 50.399609 
L 613.081004 62.759889 
L 617.038434 66.861609 
L 620.995863 81.950577 
L 632.868153 95.956569 
L 636.825582 88.156057 
L 640.783012 100.844501 
L 644.740442 98.109238 
L 648.697871 104.409106 
L 660.570161 116.94531 
L 664.52759 108.711913 
L 668.48502 94.062951 
L 672.44245 87.309911 
L 676.39988 89.525765 
L 688.272169 104.722611 
L 692.229598 122.375652 
L 696.187028 105.440565 
L 700.144458 102.545692 
L 704.101888 100.470206 
L 715.974177 98.074172 
L 719.931606 90.248134 
L 723.889036 82.982742 
L 727.846466 98.346679 
L 731.803896 96.809474 
L 743.676185 99.551465 
L 747.633614 99.713602 
L 751.591044 90.385342 
L 755.548474 113.63251 
L 759.505904 134.60692 
L 771.378193 129.679685 
L 775.335622 140.498599 
L 779.293052 140.105424 
L 783.250482 138.675551 
L 787.207912 117.90179 
L 799.080201 122.873544 
L 803.037631 130.336616 
L 806.99506 115.06959 
L 810.95249 102.391159 
L 814.90992 120.699437 
L 826.782209 122.396414 
L 830.739639 113.731443 
L 834.697068 112.669471 
L 838.654498 132.551984 
L 842.611928 124.054548 
L 854.484217 127.990945 
L 858.441647 137.456683 
L 862.399076 123.694896 
L 866.356506 123.44594 
L 870.313936 121.757282 
L 882.186225 118.665162 
L 886.143655 133.15617 
L 890.101084 138.696227 
L 894.058514 127.038428 
L 898.015944 151.408282 
L 909.888233 138.420265 
L 913.845663 122.339919 
L 917.803092 103.822064 
L 921.760522 102.611354 
L 925.717952 104.083631 
L 937.590241 94.592071 
L 941.547671 94.159065 
L 945.5051 91.173077 
L 949.46253 89.979218 
L 953.41996 81.065451 
L 965.292249 86.826559 
L 969.249679 78.335962 
L 973.207108 95.287656 
L 977.164538 84.742725 
L 981.121968 80.105713 
L 992.994257 64.257401 
L 996.951687 79.70458 
L 1000.909116 94.015742 
L 1004.866546 86.905678 
L 1008.823976 97.140209 
L 1020.696265 109.110783 
L 1024.653695 108.058349 
L 1028.611124 110.21315 
L 1032.568554 96.915689 
L 1036.525984 87.22589 
L 1048.398273 103.800573 
L 1052.355703 122.896955 
L 1056.313133 122.689104 
L 1060.270562 122.080051 
L 1064.227992 111.941093 
L 1076.100281 120.625094 
L 1080.057711 136.847874 
L 1084.015141 155.563588 
L 1087.97257 164.970035 
L 1087.97257 164.970035 
" style="fill:none;stroke:#2ca02c;stroke-linecap:square;stroke-width:1.5;"/>
   </g>
   <g id="patch_3">
    <path d="M 57.26 345.7 
L 57.26 25.92 
" style="fill:none;stroke:#000000;stroke-linecap:square;stroke-linejoin:miter;stroke-width:0.8;"/>
   </g>
   <g id="patch_4">
    <path d="M 1141.2 345.7 
L 1141.2 25.92 
" style="fill:none;stroke:#000000;stroke-linecap:square;stroke-linejoin:miter;stroke-width:0.8;"/>
   </g>
   <g id="patch_5">
    <path d="M 57.26 345.7 
L 1141.2 345.7 
" style="fill:none;stroke:#000000;stroke-linecap:square;stroke-linejoin:miter;stroke-width:0.8;"/>
   </g>
   <g id="patch_6">
    <path d="M 57.26 25.92 
L 1141.2 25.92 
" style="fill:none;stroke:#000000;stroke-linecap:square;stroke-linejoin:miter;stroke-width:0.8;"/>
   </g>
   <g id="text_10">
    <!-- Cumulative Log Return: (2010-02-01 ~ 2010-10-08) -->
    <g transform="translate(443.352812 19.92)scale(0.12 -0.12)">
     <defs>
      <path d="M 64.40625 67.28125 
L 64.40625 56.890625 
Q 59.421875 61.53125 53.78125 63.8125 
Q 48.140625 66.109375 41.796875 66.109375 
Q 29.296875 66.109375 22.65625 58.46875 
Q 16.015625 50.828125 16.015625 36.375 
Q 16.015625 21.96875 22.65625 14.328125 
Q 29.296875 6.6875 41.796875 6.6875 
Q 48.140625 6.6875 53.78125 8.984375 
Q 59.421875 11.28125 64.40625 15.921875 
L 64.40625 5.609375 
Q 59.234375 2.09375 53.4375 0.328125 
Q 47.65625 -1.421875 41.21875 -1.421875 
Q 24.65625 -1.421875 15.125 8.703125 
Q 5.609375 18.84375 5.609375 36.375 
Q 5.609375 53.953125 15.125 64.078125 
Q 24.65625 74.21875 41.21875 74.21875 
Q 47.75 74.21875 53.53125 72.484375 
Q 59.328125 70.75 64.40625 67.28125 
z
" id="DejaVuSans-67"/>
      <path d="M 34.28125 27.484375 
Q 23.390625 27.484375 19.1875 25 
Q 14.984375 22.515625 14.984375 16.5 
Q 14.984375 11.71875 18.140625 8.90625 
Q 21.296875 6.109375 26.703125 6.109375 
Q 34.1875 6.109375 38.703125 11.40625 
Q 43.21875 16.703125 43.21875 25.484375 
L 43.21875 27.484375 
z
M 52.203125 31.203125 
L 52.203125 0 
L 43.21875 0 
L 43.21875 8.296875 
Q 40.140625 3.328125 35.546875 0.953125 
Q 30.953125 -1.421875 24.3125 -1.421875 
Q 15.921875 -1.421875 10.953125 3.296875 
Q 6 8.015625 6 15.921875 
Q 6 25.140625 12.171875 29.828125 
Q 18.359375 34.515625 30.609375 34.515625 
L 43.21875 34.515625 
L 43.21875 35.40625 
Q 43.21875 41.609375 39.140625 45 
Q 35.0625 48.390625 27.6875 48.390625 
Q 23 48.390625 18.546875 47.265625 
Q 14.109375 46.140625 10.015625 43.890625 
L 10.015625 52.203125 
Q 14.9375 54.109375 19.578125 55.046875 
Q 24.21875 56 28.609375 56 
Q 40.484375 56 46.34375 49.84375 
Q 52.203125 43.703125 52.203125 31.203125 
z
" id="DejaVuSans-97"/>
      <path d="M 9.421875 54.6875 
L 18.40625 54.6875 
L 18.40625 0 
L 9.421875 0 
z
M 9.421875 75.984375 
L 18.40625 75.984375 
L 18.40625 64.59375 
L 9.421875 64.59375 
z
" id="DejaVuSans-105"/>
      <path d="M 2.984375 54.6875 
L 12.5 54.6875 
L 29.59375 8.796875 
L 46.6875 54.6875 
L 56.203125 54.6875 
L 35.6875 0 
L 23.484375 0 
z
" id="DejaVuSans-118"/>
      <path d="M 9.8125 72.90625 
L 19.671875 72.90625 
L 19.671875 8.296875 
L 55.171875 8.296875 
L 55.171875 0 
L 9.8125 0 
z
" id="DejaVuSans-76"/>
      <path d="M 44.390625 34.1875 
Q 47.5625 33.109375 50.5625 29.59375 
Q 53.5625 26.078125 56.59375 19.921875 
L 66.609375 0 
L 56 0 
L 46.6875 18.703125 
Q 43.0625 26.03125 39.671875 28.421875 
Q 36.28125 30.8125 30.421875 30.8125 
L 19.671875 30.8125 
L 19.671875 0 
L 9.8125 0 
L 9.8125 72.90625 
L 32.078125 72.90625 
Q 44.578125 72.90625 50.734375 67.671875 
Q 56.890625 62.453125 56.890625 51.90625 
Q 56.890625 45.015625 53.6875 40.46875 
Q 50.484375 35.9375 44.390625 34.1875 
z
M 19.671875 64.796875 
L 19.671875 38.921875 
L 32.078125 38.921875 
Q 39.203125 38.921875 42.84375 42.21875 
Q 46.484375 45.515625 46.484375 51.90625 
Q 46.484375 58.296875 42.84375 61.546875 
Q 39.203125 64.796875 32.078125 64.796875 
z
" id="DejaVuSans-82"/>
      <path d="M 11.71875 12.40625 
L 22.015625 12.40625 
L 22.015625 0 
L 11.71875 0 
z
M 11.71875 51.703125 
L 22.015625 51.703125 
L 22.015625 39.3125 
L 11.71875 39.3125 
z
" id="DejaVuSans-58"/>
      <path d="M 31 75.875 
Q 24.46875 64.65625 21.28125 53.65625 
Q 18.109375 42.671875 18.109375 31.390625 
Q 18.109375 20.125 21.3125 9.0625 
Q 24.515625 -2 31 -13.1875 
L 23.1875 -13.1875 
Q 15.875 -1.703125 12.234375 9.375 
Q 8.59375 20.453125 8.59375 31.390625 
Q 8.59375 42.28125 12.203125 53.3125 
Q 15.828125 64.359375 23.1875 75.875 
z
" id="DejaVuSans-40"/>
      <path d="M 73.1875 39.890625 
L 73.1875 31.203125 
Q 68.0625 27.34375 63.6875 25.6875 
Q 59.328125 24.03125 54.59375 24.03125 
Q 49.21875 24.03125 42.09375 26.90625 
Q 41.546875 27.09375 41.3125 27.203125 
Q 40.96875 27.34375 40.234375 27.59375 
Q 32.671875 30.609375 28.078125 30.609375 
Q 23.78125 30.609375 19.578125 28.734375 
Q 15.375 26.859375 10.59375 22.796875 
L 10.59375 31.5 
Q 15.71875 35.359375 20.09375 37.03125 
Q 24.46875 38.71875 29.203125 38.71875 
Q 34.578125 38.71875 41.75 35.796875 
Q 42.234375 35.59375 42.484375 35.5 
Q 42.875 35.359375 43.5625 35.109375 
Q 51.125 32.078125 55.71875 32.078125 
Q 59.90625 32.078125 64.03125 33.9375 
Q 68.171875 35.796875 73.1875 39.890625 
z
" id="DejaVuSans-126"/>
      <path d="M 31.78125 34.625 
Q 24.75 34.625 20.71875 30.859375 
Q 16.703125 27.09375 16.703125 20.515625 
Q 16.703125 13.921875 20.71875 10.15625 
Q 24.75 6.390625 31.78125 6.390625 
Q 38.8125 6.390625 42.859375 10.171875 
Q 46.921875 13.96875 46.921875 20.515625 
Q 46.921875 27.09375 42.890625 30.859375 
Q 38.875 34.625 31.78125 34.625 
z
M 21.921875 38.8125 
Q 15.578125 40.375 12.03125 44.71875 
Q 8.5 49.078125 8.5 55.328125 
Q 8.5 64.0625 14.71875 69.140625 
Q 20.953125 74.21875 31.78125 74.21875 
Q 42.671875 74.21875 48.875 69.140625 
Q 55.078125 64.0625 55.078125 55.328125 
Q 55.078125 49.078125 51.53125 44.71875 
Q 48 40.375 41.703125 38.8125 
Q 48.828125 37.15625 52.796875 32.3125 
Q 56.78125 27.484375 56.78125 20.515625 
Q 56.78125 9.90625 50.3125 4.234375 
Q 43.84375 -1.421875 31.78125 -1.421875 
Q 19.734375 -1.421875 13.25 4.234375 
Q 6.78125 9.90625 6.78125 20.515625 
Q 6.78125 27.484375 10.78125 32.3125 
Q 14.796875 37.15625 21.921875 38.8125 
z
M 18.3125 54.390625 
Q 18.3125 48.734375 21.84375 45.5625 
Q 25.390625 42.390625 31.78125 42.390625 
Q 38.140625 42.390625 41.71875 45.5625 
Q 45.3125 48.734375 45.3125 54.390625 
Q 45.3125 60.0625 41.71875 63.234375 
Q 38.140625 66.40625 31.78125 66.40625 
Q 25.390625 66.40625 21.84375 63.234375 
Q 18.3125 60.0625 18.3125 54.390625 
z
" id="DejaVuSans-56"/>
      <path d="M 8.015625 75.875 
L 15.828125 75.875 
Q 23.140625 64.359375 26.78125 53.3125 
Q 30.421875 42.28125 30.421875 31.390625 
Q 30.421875 20.453125 26.78125 9.375 
Q 23.140625 -1.703125 15.828125 -13.1875 
L 8.015625 -13.1875 
Q 14.5 -2 17.703125 9.0625 
Q 20.90625 20.125 20.90625 31.390625 
Q 20.90625 42.671875 17.703125 53.65625 
Q 14.5 64.65625 8.015625 75.875 
z
" id="DejaVuSans-41"/>
     </defs>
     <use xlink:href="#DejaVuSans-67"/>
     <use x="69.824219" xlink:href="#DejaVuSans-117"/>
     <use x="133.203125" xlink:href="#DejaVuSans-109"/>
     <use x="230.615234" xlink:href="#DejaVuSans-117"/>
     <use x="293.994141" xlink:href="#DejaVuSans-108"/>
     <use x="321.777344" xlink:href="#DejaVuSans-97"/>
     <use x="383.056641" xlink:href="#DejaVuSans-116"/>
     <use x="422.265625" xlink:href="#DejaVuSans-105"/>
     <use x="450.048828" xlink:href="#DejaVuSans-118"/>
     <use x="509.228516" xlink:href="#DejaVuSans-101"/>
     <use x="570.751953" xlink:href="#DejaVuSans-32"/>
     <use x="602.539062" xlink:href="#DejaVuSans-76"/>
     <use x="656.501953" xlink:href="#DejaVuSans-111"/>
     <use x="717.683594" xlink:href="#DejaVuSans-103"/>
     <use x="781.160156" xlink:href="#DejaVuSans-32"/>
     <use x="812.947266" xlink:href="#DejaVuSans-82"/>
     <use x="877.929688" xlink:href="#DejaVuSans-101"/>
     <use x="939.453125" xlink:href="#DejaVuSans-116"/>
     <use x="978.662109" xlink:href="#DejaVuSans-117"/>
     <use x="1042.041016" xlink:href="#DejaVuSans-114"/>
     <use x="1081.404297" xlink:href="#DejaVuSans-110"/>
     <use x="1144.783203" xlink:href="#DejaVuSans-58"/>
     <use x="1178.474609" xlink:href="#DejaVuSans-32"/>
     <use x="1210.261719" xlink:href="#DejaVuSans-40"/>
     <use x="1249.275391" xlink:href="#DejaVuSans-50"/>
     <use x="1312.898438" xlink:href="#DejaVuSans-48"/>
     <use x="1376.521484" xlink:href="#DejaVuSans-49"/>
     <use x="1440.144531" xlink:href="#DejaVuSans-48"/>
     <use x="1503.767578" xlink:href="#DejaVuSans-45"/>
     <use x="1539.851562" xlink:href="#DejaVuSans-48"/>
     <use x="1603.474609" xlink:href="#DejaVuSans-50"/>
     <use x="1667.097656" xlink:href="#DejaVuSans-45"/>
     <use x="1703.181641" xlink:href="#DejaVuSans-48"/>
     <use x="1766.804688" xlink:href="#DejaVuSans-49"/>
     <use x="1830.427734" xlink:href="#DejaVuSans-32"/>
     <use x="1862.214844" xlink:href="#DejaVuSans-126"/>
     <use x="1946.003906" xlink:href="#DejaVuSans-32"/>
     <use x="1977.791016" xlink:href="#DejaVuSans-50"/>
     <use x="2041.414062" xlink:href="#DejaVuSans-48"/>
     <use x="2105.037109" xlink:href="#DejaVuSans-49"/>
     <use x="2168.660156" xlink:href="#DejaVuSans-48"/>
     <use x="2232.283203" xlink:href="#DejaVuSans-45"/>
     <use x="2268.367188" xlink:href="#DejaVuSans-49"/>
     <use x="2331.990234" xlink:href="#DejaVuSans-48"/>
     <use x="2395.613281" xlink:href="#DejaVuSans-45"/>
     <use x="2431.697266" xlink:href="#DejaVuSans-48"/>
     <use x="2495.320312" xlink:href="#DejaVuSans-56"/>
     <use x="2558.943359" xlink:href="#DejaVuSans-41"/>
    </g>
   </g>
   <g id="legend_1">
    <g id="patch_7">
     <path d="M 64.26 78.2325 
L 176.774063 78.2325 
Q 178.774063 78.2325 178.774063 76.2325 
L 178.774063 32.92 
Q 178.774063 30.92 176.774063 30.92 
L 64.26 30.92 
Q 62.26 30.92 62.26 32.92 
L 62.26 76.2325 
Q 62.26 78.2325 64.26 78.2325 
z
" style="fill:#ffffff;opacity:0.8;stroke:#cccccc;stroke-linejoin:miter;"/>
    </g>
    <g id="line2d_20">
     <path d="M 66.26 39.018437 
L 86.26 39.018437 
" style="fill:none;stroke:#1f77b4;stroke-linecap:square;stroke-width:1.5;"/>
    </g>
    <g id="line2d_21"/>
    <g id="text_11">
     <!-- factor_weighted -->
     <g transform="translate(94.26 42.518437)scale(0.1 -0.1)">
      <defs>
       <path d="M 37.109375 75.984375 
L 37.109375 68.5 
L 28.515625 68.5 
Q 23.6875 68.5 21.796875 66.546875 
Q 19.921875 64.59375 19.921875 59.515625 
L 19.921875 54.6875 
L 34.71875 54.6875 
L 34.71875 47.703125 
L 19.921875 47.703125 
L 19.921875 0 
L 10.890625 0 
L 10.890625 47.703125 
L 2.296875 47.703125 
L 2.296875 54.6875 
L 10.890625 54.6875 
L 10.890625 58.5 
Q 10.890625 67.625 15.140625 71.796875 
Q 19.390625 75.984375 28.609375 75.984375 
z
" id="DejaVuSans-102"/>
       <path d="M 50.984375 -16.609375 
L 50.984375 -23.578125 
L -0.984375 -23.578125 
L -0.984375 -16.609375 
z
" id="DejaVuSans-95"/>
       <path d="M 4.203125 54.6875 
L 13.1875 54.6875 
L 24.421875 12.015625 
L 35.59375 54.6875 
L 46.1875 54.6875 
L 57.421875 12.015625 
L 68.609375 54.6875 
L 77.59375 54.6875 
L 63.28125 0 
L 52.6875 0 
L 40.921875 44.828125 
L 29.109375 0 
L 18.5 0 
z
" id="DejaVuSans-119"/>
       <path d="M 54.890625 33.015625 
L 54.890625 0 
L 45.90625 0 
L 45.90625 32.71875 
Q 45.90625 40.484375 42.875 44.328125 
Q 39.84375 48.1875 33.796875 48.1875 
Q 26.515625 48.1875 22.3125 43.546875 
Q 18.109375 38.921875 18.109375 30.90625 
L 18.109375 0 
L 9.078125 0 
L 9.078125 75.984375 
L 18.109375 75.984375 
L 18.109375 46.1875 
Q 21.34375 51.125 25.703125 53.5625 
Q 30.078125 56 35.796875 56 
Q 45.21875 56 50.046875 50.171875 
Q 54.890625 44.34375 54.890625 33.015625 
z
" id="DejaVuSans-104"/>
       <path d="M 45.40625 46.390625 
L 45.40625 75.984375 
L 54.390625 75.984375 
L 54.390625 0 
L 45.40625 0 
L 45.40625 8.203125 
Q 42.578125 3.328125 38.25 0.953125 
Q 33.9375 -1.421875 27.875 -1.421875 
Q 17.96875 -1.421875 11.734375 6.484375 
Q 5.515625 14.40625 5.515625 27.296875 
Q 5.515625 40.1875 11.734375 48.09375 
Q 17.96875 56 27.875 56 
Q 33.9375 56 38.25 53.625 
Q 42.578125 51.265625 45.40625 46.390625 
z
M 14.796875 27.296875 
Q 14.796875 17.390625 18.875 11.75 
Q 22.953125 6.109375 30.078125 6.109375 
Q 37.203125 6.109375 41.296875 11.75 
Q 45.40625 17.390625 45.40625 27.296875 
Q 45.40625 37.203125 41.296875 42.84375 
Q 37.203125 48.484375 30.078125 48.484375 
Q 22.953125 48.484375 18.875 42.84375 
Q 14.796875 37.203125 14.796875 27.296875 
z
" id="DejaVuSans-100"/>
      </defs>
      <use xlink:href="#DejaVuSans-102"/>
      <use x="35.205078" xlink:href="#DejaVuSans-97"/>
      <use x="96.484375" xlink:href="#DejaVuSans-99"/>
      <use x="151.464844" xlink:href="#DejaVuSans-116"/>
      <use x="190.673828" xlink:href="#DejaVuSans-111"/>
      <use x="251.855469" xlink:href="#DejaVuSans-114"/>
      <use x="292.96875" xlink:href="#DejaVuSans-95"/>
      <use x="342.96875" xlink:href="#DejaVuSans-119"/>
      <use x="424.755859" xlink:href="#DejaVuSans-101"/>
      <use x="486.279297" xlink:href="#DejaVuSans-105"/>
      <use x="514.0625" xlink:href="#DejaVuSans-103"/>
      <use x="577.539062" xlink:href="#DejaVuSans-104"/>
      <use x="640.917969" xlink:href="#DejaVuSans-116"/>
      <use x="680.126953" xlink:href="#DejaVuSans-101"/>
      <use x="741.650391" xlink:href="#DejaVuSans-100"/>
     </g>
    </g>
    <g id="line2d_22">
     <path d="M 66.26 53.974687 
L 86.26 53.974687 
" style="fill:none;stroke:#ff7f0e;stroke-linecap:square;stroke-width:1.5;"/>
    </g>
    <g id="line2d_23"/>
    <g id="text_12">
     <!-- benchmark -->
     <g transform="translate(94.26 57.474687)scale(0.1 -0.1)">
      <defs>
       <path d="M 48.6875 27.296875 
Q 48.6875 37.203125 44.609375 42.84375 
Q 40.53125 48.484375 33.40625 48.484375 
Q 26.265625 48.484375 22.1875 42.84375 
Q 18.109375 37.203125 18.109375 27.296875 
Q 18.109375 17.390625 22.1875 11.75 
Q 26.265625 6.109375 33.40625 6.109375 
Q 40.53125 6.109375 44.609375 11.75 
Q 48.6875 17.390625 48.6875 27.296875 
z
M 18.109375 46.390625 
Q 20.953125 51.265625 25.265625 53.625 
Q 29.59375 56 35.59375 56 
Q 45.5625 56 51.78125 48.09375 
Q 58.015625 40.1875 58.015625 27.296875 
Q 58.015625 14.40625 51.78125 6.484375 
Q 45.5625 -1.421875 35.59375 -1.421875 
Q 29.59375 -1.421875 25.265625 0.953125 
Q 20.953125 3.328125 18.109375 8.203125 
L 18.109375 0 
L 9.078125 0 
L 9.078125 75.984375 
L 18.109375 75.984375 
z
" id="DejaVuSans-98"/>
       <path d="M 9.078125 75.984375 
L 18.109375 75.984375 
L 18.109375 31.109375 
L 44.921875 54.6875 
L 56.390625 54.6875 
L 27.390625 29.109375 
L 57.625 0 
L 45.90625 0 
L 18.109375 26.703125 
L 18.109375 0 
L 9.078125 0 
z
" id="DejaVuSans-107"/>
      </defs>
      <use xlink:href="#DejaVuSans-98"/>
      <use x="63.476562" xlink:href="#DejaVuSans-101"/>
      <use x="125" xlink:href="#DejaVuSans-110"/>
      <use x="188.378906" xlink:href="#DejaVuSans-99"/>
      <use x="243.359375" xlink:href="#DejaVuSans-104"/>
      <use x="306.738281" xlink:href="#DejaVuSans-109"/>
      <use x="404.150391" xlink:href="#DejaVuSans-97"/>
      <use x="465.429688" xlink:href="#DejaVuSans-114"/>
      <use x="506.542969" xlink:href="#DejaVuSans-107"/>
     </g>
    </g>
    <g id="line2d_24">
     <path d="M 66.26 68.652812 
L 86.26 68.652812 
" style="fill:none;stroke:#2ca02c;stroke-linecap:square;stroke-width:1.5;"/>
    </g>
    <g id="line2d_25"/>
    <g id="text_13">
     <!-- excess -->
     <g transform="translate(94.26 72.152812)scale(0.1 -0.1)">
      <defs>
       <path d="M 54.890625 54.6875 
L 35.109375 28.078125 
L 55.90625 0 
L 45.3125 0 
L 29.390625 21.484375 
L 13.484375 0 
L 2.875 0 
L 24.125 28.609375 
L 4.6875 54.6875 
L 15.28125 54.6875 
L 29.78125 35.203125 
L 44.28125 54.6875 
z
" id="DejaVuSans-120"/>
      </defs>
      <use xlink:href="#DejaVuSans-101"/>
      <use x="59.773438" xlink:href="#DejaVuSans-120"/>
      <use x="117.203125" xlink:href="#DejaVuSans-99"/>
      <use x="172.183594" xlink:href="#DejaVuSans-101"/>
      <use x="233.707031" xlink:href="#DejaVuSans-115"/>
      <use x="285.806641" xlink:href="#DejaVuSans-115"/>
     </g>
    </g>
   </g>
  </g>
 </g>
 <defs>
  <clipPath id="ped9c41f451">
   <rect height="319.78" width="1083.94" x="57.26" y="25.92"/>
  </clipPath>
 </defs>
</svg>
