<?xml version="1.0" encoding="utf-8" standalone="no"?>
<!DOCTYPE svg PUBLIC "-//W3C//DTD SVG 1.1//EN"
  "http://www.w3.org/Graphics/SVG/1.1/DTD/svg11.dtd">
<!-- Created with matplotlib (https://matplotlib.org/) -->
<svg height="360pt" version="1.1" viewBox="0 0 1152 360" width="1152pt" xmlns="http://www.w3.org/2000/svg" xmlns:xlink="http://www.w3.org/1999/xlink">
 <metadata>
  <rdf:RDF xmlns:cc="http://creativecommons.org/ns#" xmlns:dc="http://purl.org/dc/elements/1.1/" xmlns:rdf="http://www.w3.org/1999/02/22-rdf-syntax-ns#">
   <cc:Work>
    <dc:type rdf:resource="http://purl.org/dc/dcmitype/StillImage"/>
    <dc:date>2023-10-11T16:35:42.510551</dc:date>
    <dc:format>image/svg+xml</dc:format>
    <dc:creator>
     <cc:Agent>
      <dc:title>Matplotlib v3.3.4, https://matplotlib.org/</dc:title>
     </cc:Agent>
    </dc:creator>
   </cc:Work>
  </rdf:RDF>
 </metadata>
 <defs>
  <style type="text/css">*{stroke-linecap:butt;stroke-linejoin:round;}</style>
 </defs>
 <g id="figure_1">
  <g id="patch_1">
   <path d="M 0 360 
L 1152 360 
L 1152 0 
L 0 0 
z
" style="fill:#ffffff;"/>
  </g>
  <g id="axes_1">
   <g id="patch_2">
    <path d="M 57.26 345.7 
L 1141.2 345.7 
L 1141.2 25.92 
L 57.26 25.92 
z
" style="fill:#ffffff;"/>
   </g>
   <g id="matplotlib.axis_1"/>
   <g id="matplotlib.axis_2">
    <g id="ytick_1">
     <g id="line2d_1">
      <path clip-path="url(#p9ee8f6c83a)" d="M 57.26 331.521128 
L 1141.2 331.521128 
" style="fill:none;stroke:#b0b0b0;stroke-linecap:square;stroke-width:0.8;"/>
     </g>
     <g id="line2d_2">
      <defs>
       <path d="M 0 0 
L -3.5 0 
" id="me6189d246f" style="stroke:#000000;stroke-width:0.8;"/>
      </defs>
      <g>
       <use style="stroke:#000000;stroke-width:0.8;" x="57.26" xlink:href="#me6189d246f" y="331.521128"/>
      </g>
     </g>
     <g id="text_1">
      <!-- -1.25 -->
      <g transform="translate(24.386562 335.320347)scale(0.1 -0.1)">
       <defs>
        <path d="M 4.890625 31.390625 
L 31.203125 31.390625 
L 31.203125 23.390625 
L 4.890625 23.390625 
z
" id="DejaVuSans-45"/>
        <path d="M 12.40625 8.296875 
L 28.515625 8.296875 
L 28.515625 63.921875 
L 10.984375 60.40625 
L 10.984375 69.390625 
L 28.421875 72.90625 
L 38.28125 72.90625 
L 38.28125 8.296875 
L 54.390625 8.296875 
L 54.390625 0 
L 12.40625 0 
z
" id="DejaVuSans-49"/>
        <path d="M 10.6875 12.40625 
L 21 12.40625 
L 21 0 
L 10.6875 0 
z
" id="DejaVuSans-46"/>
        <path d="M 19.1875 8.296875 
L 53.609375 8.296875 
L 53.609375 0 
L 7.328125 0 
L 7.328125 8.296875 
Q 12.9375 14.109375 22.625 23.890625 
Q 32.328125 33.6875 34.8125 36.53125 
Q 39.546875 41.84375 41.421875 45.53125 
Q 43.3125 49.21875 43.3125 52.78125 
Q 43.3125 58.59375 39.234375 62.25 
Q 35.15625 65.921875 28.609375 65.921875 
Q 23.96875 65.921875 18.8125 64.3125 
Q 13.671875 62.703125 7.8125 59.421875 
L 7.8125 69.390625 
Q 13.765625 71.78125 18.9375 73 
Q 24.125 74.21875 28.421875 74.21875 
Q 39.75 74.21875 46.484375 68.546875 
Q 53.21875 62.890625 53.21875 53.421875 
Q 53.21875 48.921875 51.53125 44.890625 
Q 49.859375 40.875 45.40625 35.40625 
Q 44.1875 33.984375 37.640625 27.21875 
Q 31.109375 20.453125 19.1875 8.296875 
z
" id="DejaVuSans-50"/>
        <path d="M 10.796875 72.90625 
L 49.515625 72.90625 
L 49.515625 64.59375 
L 19.828125 64.59375 
L 19.828125 46.734375 
Q 21.96875 47.46875 24.109375 47.828125 
Q 26.265625 48.1875 28.421875 48.1875 
Q 40.625 48.1875 47.75 41.5 
Q 54.890625 34.8125 54.890625 23.390625 
Q 54.890625 11.625 47.5625 5.09375 
Q 40.234375 -1.421875 26.90625 -1.421875 
Q 22.3125 -1.421875 17.546875 -0.640625 
Q 12.796875 0.140625 7.71875 1.703125 
L 7.71875 11.625 
Q 12.109375 9.234375 16.796875 8.0625 
Q 21.484375 6.890625 26.703125 6.890625 
Q 35.15625 6.890625 40.078125 11.328125 
Q 45.015625 15.765625 45.015625 23.390625 
Q 45.015625 31 40.078125 35.4375 
Q 35.15625 39.890625 26.703125 39.890625 
Q 22.75 39.890625 18.8125 39.015625 
Q 14.890625 38.140625 10.796875 36.28125 
z
" id="DejaVuSans-53"/>
       </defs>
       <use xlink:href="#DejaVuSans-45"/>
       <use x="36.083984" xlink:href="#DejaVuSans-49"/>
       <use x="99.707031" xlink:href="#DejaVuSans-46"/>
       <use x="131.494141" xlink:href="#DejaVuSans-50"/>
       <use x="195.117188" xlink:href="#DejaVuSans-53"/>
      </g>
     </g>
    </g>
    <g id="ytick_2">
     <g id="line2d_3">
      <path clip-path="url(#p9ee8f6c83a)" d="M 57.26 294.107336 
L 1141.2 294.107336 
" style="fill:none;stroke:#b0b0b0;stroke-linecap:square;stroke-width:0.8;"/>
     </g>
     <g id="line2d_4">
      <g>
       <use style="stroke:#000000;stroke-width:0.8;" x="57.26" xlink:href="#me6189d246f" y="294.107336"/>
      </g>
     </g>
     <g id="text_2">
      <!-- -1.00 -->
      <g transform="translate(24.386562 297.906555)scale(0.1 -0.1)">
       <defs>
        <path d="M 31.78125 66.40625 
Q 24.171875 66.40625 20.328125 58.90625 
Q 16.5 51.421875 16.5 36.375 
Q 16.5 21.390625 20.328125 13.890625 
Q 24.171875 6.390625 31.78125 6.390625 
Q 39.453125 6.390625 43.28125 13.890625 
Q 47.125 21.390625 47.125 36.375 
Q 47.125 51.421875 43.28125 58.90625 
Q 39.453125 66.40625 31.78125 66.40625 
z
M 31.78125 74.21875 
Q 44.046875 74.21875 50.515625 64.515625 
Q 56.984375 54.828125 56.984375 36.375 
Q 56.984375 17.96875 50.515625 8.265625 
Q 44.046875 -1.421875 31.78125 -1.421875 
Q 19.53125 -1.421875 13.0625 8.265625 
Q 6.59375 17.96875 6.59375 36.375 
Q 6.59375 54.828125 13.0625 64.515625 
Q 19.53125 74.21875 31.78125 74.21875 
z
" id="DejaVuSans-48"/>
       </defs>
       <use xlink:href="#DejaVuSans-45"/>
       <use x="36.083984" xlink:href="#DejaVuSans-49"/>
       <use x="99.707031" xlink:href="#DejaVuSans-46"/>
       <use x="131.494141" xlink:href="#DejaVuSans-48"/>
       <use x="195.117188" xlink:href="#DejaVuSans-48"/>
      </g>
     </g>
    </g>
    <g id="ytick_3">
     <g id="line2d_5">
      <path clip-path="url(#p9ee8f6c83a)" d="M 57.26 256.693544 
L 1141.2 256.693544 
" style="fill:none;stroke:#b0b0b0;stroke-linecap:square;stroke-width:0.8;"/>
     </g>
     <g id="line2d_6">
      <g>
       <use style="stroke:#000000;stroke-width:0.8;" x="57.26" xlink:href="#me6189d246f" y="256.693544"/>
      </g>
     </g>
     <g id="text_3">
      <!-- -0.75 -->
      <g transform="translate(24.386562 260.492763)scale(0.1 -0.1)">
       <defs>
        <path d="M 8.203125 72.90625 
L 55.078125 72.90625 
L 55.078125 68.703125 
L 28.609375 0 
L 18.3125 0 
L 43.21875 64.59375 
L 8.203125 64.59375 
z
" id="DejaVuSans-55"/>
       </defs>
       <use xlink:href="#DejaVuSans-45"/>
       <use x="36.083984" xlink:href="#DejaVuSans-48"/>
       <use x="99.707031" xlink:href="#DejaVuSans-46"/>
       <use x="131.494141" xlink:href="#DejaVuSans-55"/>
       <use x="195.117188" xlink:href="#DejaVuSans-53"/>
      </g>
     </g>
    </g>
    <g id="ytick_4">
     <g id="line2d_7">
      <path clip-path="url(#p9ee8f6c83a)" d="M 57.26 219.279752 
L 1141.2 219.279752 
" style="fill:none;stroke:#b0b0b0;stroke-linecap:square;stroke-width:0.8;"/>
     </g>
     <g id="line2d_8">
      <g>
       <use style="stroke:#000000;stroke-width:0.8;" x="57.26" xlink:href="#me6189d246f" y="219.279752"/>
      </g>
     </g>
     <g id="text_4">
      <!-- -0.50 -->
      <g transform="translate(24.386562 223.078971)scale(0.1 -0.1)">
       <use xlink:href="#DejaVuSans-45"/>
       <use x="36.083984" xlink:href="#DejaVuSans-48"/>
       <use x="99.707031" xlink:href="#DejaVuSans-46"/>
       <use x="131.494141" xlink:href="#DejaVuSans-53"/>
       <use x="195.117188" xlink:href="#DejaVuSans-48"/>
      </g>
     </g>
    </g>
    <g id="ytick_5">
     <g id="line2d_9">
      <path clip-path="url(#p9ee8f6c83a)" d="M 57.26 181.86596 
L 1141.2 181.86596 
" style="fill:none;stroke:#b0b0b0;stroke-linecap:square;stroke-width:0.8;"/>
     </g>
     <g id="line2d_10">
      <g>
       <use style="stroke:#000000;stroke-width:0.8;" x="57.26" xlink:href="#me6189d246f" y="181.86596"/>
      </g>
     </g>
     <g id="text_5">
      <!-- -0.25 -->
      <g transform="translate(24.386562 185.665179)scale(0.1 -0.1)">
       <use xlink:href="#DejaVuSans-45"/>
       <use x="36.083984" xlink:href="#DejaVuSans-48"/>
       <use x="99.707031" xlink:href="#DejaVuSans-46"/>
       <use x="131.494141" xlink:href="#DejaVuSans-50"/>
       <use x="195.117188" xlink:href="#DejaVuSans-53"/>
      </g>
     </g>
    </g>
    <g id="ytick_6">
     <g id="line2d_11">
      <path clip-path="url(#p9ee8f6c83a)" d="M 57.26 144.452168 
L 1141.2 144.452168 
" style="fill:none;stroke:#b0b0b0;stroke-linecap:square;stroke-width:0.8;"/>
     </g>
     <g id="line2d_12">
      <g>
       <use style="stroke:#000000;stroke-width:0.8;" x="57.26" xlink:href="#me6189d246f" y="144.452168"/>
      </g>
     </g>
     <g id="text_6">
      <!-- 0.00 -->
      <g transform="translate(27.994375 148.251387)scale(0.1 -0.1)">
       <use xlink:href="#DejaVuSans-48"/>
       <use x="63.623047" xlink:href="#DejaVuSans-46"/>
       <use x="95.410156" xlink:href="#DejaVuSans-48"/>
       <use x="159.033203" xlink:href="#DejaVuSans-48"/>
      </g>
     </g>
    </g>
    <g id="ytick_7">
     <g id="line2d_13">
      <path clip-path="url(#p9ee8f6c83a)" d="M 57.26 107.038376 
L 1141.2 107.038376 
" style="fill:none;stroke:#b0b0b0;stroke-linecap:square;stroke-width:0.8;"/>
     </g>
     <g id="line2d_14">
      <g>
       <use style="stroke:#000000;stroke-width:0.8;" x="57.26" xlink:href="#me6189d246f" y="107.038376"/>
      </g>
     </g>
     <g id="text_7">
      <!-- 0.25 -->
      <g transform="translate(27.994375 110.837595)scale(0.1 -0.1)">
       <use xlink:href="#DejaVuSans-48"/>
       <use x="63.623047" xlink:href="#DejaVuSans-46"/>
       <use x="95.410156" xlink:href="#DejaVuSans-50"/>
       <use x="159.033203" xlink:href="#DejaVuSans-53"/>
      </g>
     </g>
    </g>
    <g id="ytick_8">
     <g id="line2d_15">
      <path clip-path="url(#p9ee8f6c83a)" d="M 57.26 69.624584 
L 1141.2 69.624584 
" style="fill:none;stroke:#b0b0b0;stroke-linecap:square;stroke-width:0.8;"/>
     </g>
     <g id="line2d_16">
      <g>
       <use style="stroke:#000000;stroke-width:0.8;" x="57.26" xlink:href="#me6189d246f" y="69.624584"/>
      </g>
     </g>
     <g id="text_8">
      <!-- 0.50 -->
      <g transform="translate(27.994375 73.423803)scale(0.1 -0.1)">
       <use xlink:href="#DejaVuSans-48"/>
       <use x="63.623047" xlink:href="#DejaVuSans-46"/>
       <use x="95.410156" xlink:href="#DejaVuSans-53"/>
       <use x="159.033203" xlink:href="#DejaVuSans-48"/>
      </g>
     </g>
    </g>
    <g id="ytick_9">
     <g id="line2d_17">
      <path clip-path="url(#p9ee8f6c83a)" d="M 57.26 32.210792 
L 1141.2 32.210792 
" style="fill:none;stroke:#b0b0b0;stroke-linecap:square;stroke-width:0.8;"/>
     </g>
     <g id="line2d_18">
      <g>
       <use style="stroke:#000000;stroke-width:0.8;" x="57.26" xlink:href="#me6189d246f" y="32.210792"/>
      </g>
     </g>
     <g id="text_9">
      <!-- 0.75 -->
      <g transform="translate(27.994375 36.01001)scale(0.1 -0.1)">
       <use xlink:href="#DejaVuSans-48"/>
       <use x="63.623047" xlink:href="#DejaVuSans-46"/>
       <use x="95.410156" xlink:href="#DejaVuSans-55"/>
       <use x="159.033203" xlink:href="#DejaVuSans-53"/>
      </g>
     </g>
    </g>
    <g id="text_10">
     <!-- log return cumsum -->
     <g transform="translate(18.306875 233.327969)rotate(-90)scale(0.1 -0.1)">
      <defs>
       <path d="M 9.421875 75.984375 
L 18.40625 75.984375 
L 18.40625 0 
L 9.421875 0 
z
" id="DejaVuSans-108"/>
       <path d="M 30.609375 48.390625 
Q 23.390625 48.390625 19.1875 42.75 
Q 14.984375 37.109375 14.984375 27.296875 
Q 14.984375 17.484375 19.15625 11.84375 
Q 23.34375 6.203125 30.609375 6.203125 
Q 37.796875 6.203125 41.984375 11.859375 
Q 46.1875 17.53125 46.1875 27.296875 
Q 46.1875 37.015625 41.984375 42.703125 
Q 37.796875 48.390625 30.609375 48.390625 
z
M 30.609375 56 
Q 42.328125 56 49.015625 48.375 
Q 55.71875 40.765625 55.71875 27.296875 
Q 55.71875 13.875 49.015625 6.21875 
Q 42.328125 -1.421875 30.609375 -1.421875 
Q 18.84375 -1.421875 12.171875 6.21875 
Q 5.515625 13.875 5.515625 27.296875 
Q 5.515625 40.765625 12.171875 48.375 
Q 18.84375 56 30.609375 56 
z
" id="DejaVuSans-111"/>
       <path d="M 45.40625 27.984375 
Q 45.40625 37.75 41.375 43.109375 
Q 37.359375 48.484375 30.078125 48.484375 
Q 22.859375 48.484375 18.828125 43.109375 
Q 14.796875 37.75 14.796875 27.984375 
Q 14.796875 18.265625 18.828125 12.890625 
Q 22.859375 7.515625 30.078125 7.515625 
Q 37.359375 7.515625 41.375 12.890625 
Q 45.40625 18.265625 45.40625 27.984375 
z
M 54.390625 6.78125 
Q 54.390625 -7.171875 48.1875 -13.984375 
Q 42 -20.796875 29.203125 -20.796875 
Q 24.46875 -20.796875 20.265625 -20.09375 
Q 16.0625 -19.390625 12.109375 -17.921875 
L 12.109375 -9.1875 
Q 16.0625 -11.328125 19.921875 -12.34375 
Q 23.78125 -13.375 27.78125 -13.375 
Q 36.625 -13.375 41.015625 -8.765625 
Q 45.40625 -4.15625 45.40625 5.171875 
L 45.40625 9.625 
Q 42.625 4.78125 38.28125 2.390625 
Q 33.9375 0 27.875 0 
Q 17.828125 0 11.671875 7.65625 
Q 5.515625 15.328125 5.515625 27.984375 
Q 5.515625 40.671875 11.671875 48.328125 
Q 17.828125 56 27.875 56 
Q 33.9375 56 38.28125 53.609375 
Q 42.625 51.21875 45.40625 46.390625 
L 45.40625 54.6875 
L 54.390625 54.6875 
z
" id="DejaVuSans-103"/>
       <path id="DejaVuSans-32"/>
       <path d="M 41.109375 46.296875 
Q 39.59375 47.171875 37.8125 47.578125 
Q 36.03125 48 33.890625 48 
Q 26.265625 48 22.1875 43.046875 
Q 18.109375 38.09375 18.109375 28.8125 
L 18.109375 0 
L 9.078125 0 
L 9.078125 54.6875 
L 18.109375 54.6875 
L 18.109375 46.1875 
Q 20.953125 51.171875 25.484375 53.578125 
Q 30.03125 56 36.53125 56 
Q 37.453125 56 38.578125 55.875 
Q 39.703125 55.765625 41.0625 55.515625 
z
" id="DejaVuSans-114"/>
       <path d="M 56.203125 29.59375 
L 56.203125 25.203125 
L 14.890625 25.203125 
Q 15.484375 15.921875 20.484375 11.0625 
Q 25.484375 6.203125 34.421875 6.203125 
Q 39.59375 6.203125 44.453125 7.46875 
Q 49.3125 8.734375 54.109375 11.28125 
L 54.109375 2.78125 
Q 49.265625 0.734375 44.1875 -0.34375 
Q 39.109375 -1.421875 33.890625 -1.421875 
Q 20.796875 -1.421875 13.15625 6.1875 
Q 5.515625 13.8125 5.515625 26.8125 
Q 5.515625 40.234375 12.765625 48.109375 
Q 20.015625 56 32.328125 56 
Q 43.359375 56 49.78125 48.890625 
Q 56.203125 41.796875 56.203125 29.59375 
z
M 47.21875 32.234375 
Q 47.125 39.59375 43.09375 43.984375 
Q 39.0625 48.390625 32.421875 48.390625 
Q 24.90625 48.390625 20.390625 44.140625 
Q 15.875 39.890625 15.1875 32.171875 
z
" id="DejaVuSans-101"/>
       <path d="M 18.3125 70.21875 
L 18.3125 54.6875 
L 36.8125 54.6875 
L 36.8125 47.703125 
L 18.3125 47.703125 
L 18.3125 18.015625 
Q 18.3125 11.328125 20.140625 9.421875 
Q 21.96875 7.515625 27.59375 7.515625 
L 36.8125 7.515625 
L 36.8125 0 
L 27.59375 0 
Q 17.1875 0 13.234375 3.875 
Q 9.28125 7.765625 9.28125 18.015625 
L 9.28125 47.703125 
L 2.6875 47.703125 
L 2.6875 54.6875 
L 9.28125 54.6875 
L 9.28125 70.21875 
z
" id="DejaVuSans-116"/>
       <path d="M 8.5 21.578125 
L 8.5 54.6875 
L 17.484375 54.6875 
L 17.484375 21.921875 
Q 17.484375 14.15625 20.5 10.265625 
Q 23.53125 6.390625 29.59375 6.390625 
Q 36.859375 6.390625 41.078125 11.03125 
Q 45.3125 15.671875 45.3125 23.6875 
L 45.3125 54.6875 
L 54.296875 54.6875 
L 54.296875 0 
L 45.3125 0 
L 45.3125 8.40625 
Q 42.046875 3.421875 37.71875 1 
Q 33.40625 -1.421875 27.6875 -1.421875 
Q 18.265625 -1.421875 13.375 4.4375 
Q 8.5 10.296875 8.5 21.578125 
z
M 31.109375 56 
z
" id="DejaVuSans-117"/>
       <path d="M 54.890625 33.015625 
L 54.890625 0 
L 45.90625 0 
L 45.90625 32.71875 
Q 45.90625 40.484375 42.875 44.328125 
Q 39.84375 48.1875 33.796875 48.1875 
Q 26.515625 48.1875 22.3125 43.546875 
Q 18.109375 38.921875 18.109375 30.90625 
L 18.109375 0 
L 9.078125 0 
L 9.078125 54.6875 
L 18.109375 54.6875 
L 18.109375 46.1875 
Q 21.34375 51.125 25.703125 53.5625 
Q 30.078125 56 35.796875 56 
Q 45.21875 56 50.046875 50.171875 
Q 54.890625 44.34375 54.890625 33.015625 
z
" id="DejaVuSans-110"/>
       <path d="M 48.78125 52.59375 
L 48.78125 44.1875 
Q 44.96875 46.296875 41.140625 47.34375 
Q 37.3125 48.390625 33.40625 48.390625 
Q 24.65625 48.390625 19.8125 42.84375 
Q 14.984375 37.3125 14.984375 27.296875 
Q 14.984375 17.28125 19.8125 11.734375 
Q 24.65625 6.203125 33.40625 6.203125 
Q 37.3125 6.203125 41.140625 7.25 
Q 44.96875 8.296875 48.78125 10.40625 
L 48.78125 2.09375 
Q 45.015625 0.34375 40.984375 -0.53125 
Q 36.96875 -1.421875 32.421875 -1.421875 
Q 20.0625 -1.421875 12.78125 6.34375 
Q 5.515625 14.109375 5.515625 27.296875 
Q 5.515625 40.671875 12.859375 48.328125 
Q 20.21875 56 33.015625 56 
Q 37.15625 56 41.109375 55.140625 
Q 45.0625 54.296875 48.78125 52.59375 
z
" id="DejaVuSans-99"/>
       <path d="M 52 44.1875 
Q 55.375 50.25 60.0625 53.125 
Q 64.75 56 71.09375 56 
Q 79.640625 56 84.28125 50.015625 
Q 88.921875 44.046875 88.921875 33.015625 
L 88.921875 0 
L 79.890625 0 
L 79.890625 32.71875 
Q 79.890625 40.578125 77.09375 44.375 
Q 74.3125 48.1875 68.609375 48.1875 
Q 61.625 48.1875 57.5625 43.546875 
Q 53.515625 38.921875 53.515625 30.90625 
L 53.515625 0 
L 44.484375 0 
L 44.484375 32.71875 
Q 44.484375 40.625 41.703125 44.40625 
Q 38.921875 48.1875 33.109375 48.1875 
Q 26.21875 48.1875 22.15625 43.53125 
Q 18.109375 38.875 18.109375 30.90625 
L 18.109375 0 
L 9.078125 0 
L 9.078125 54.6875 
L 18.109375 54.6875 
L 18.109375 46.1875 
Q 21.1875 51.21875 25.484375 53.609375 
Q 29.78125 56 35.6875 56 
Q 41.65625 56 45.828125 52.96875 
Q 50 49.953125 52 44.1875 
z
" id="DejaVuSans-109"/>
       <path d="M 44.28125 53.078125 
L 44.28125 44.578125 
Q 40.484375 46.53125 36.375 47.5 
Q 32.28125 48.484375 27.875 48.484375 
Q 21.1875 48.484375 17.84375 46.4375 
Q 14.5 44.390625 14.5 40.28125 
Q 14.5 37.15625 16.890625 35.375 
Q 19.28125 33.59375 26.515625 31.984375 
L 29.59375 31.296875 
Q 39.15625 29.25 43.1875 25.515625 
Q 47.21875 21.78125 47.21875 15.09375 
Q 47.21875 7.46875 41.1875 3.015625 
Q 35.15625 -1.421875 24.609375 -1.421875 
Q 20.21875 -1.421875 15.453125 -0.5625 
Q 10.6875 0.296875 5.421875 2 
L 5.421875 11.28125 
Q 10.40625 8.6875 15.234375 7.390625 
Q 20.0625 6.109375 24.8125 6.109375 
Q 31.15625 6.109375 34.5625 8.28125 
Q 37.984375 10.453125 37.984375 14.40625 
Q 37.984375 18.0625 35.515625 20.015625 
Q 33.0625 21.96875 24.703125 23.78125 
L 21.578125 24.515625 
Q 13.234375 26.265625 9.515625 29.90625 
Q 5.8125 33.546875 5.8125 39.890625 
Q 5.8125 47.609375 11.28125 51.796875 
Q 16.75 56 26.8125 56 
Q 31.78125 56 36.171875 55.265625 
Q 40.578125 54.546875 44.28125 53.078125 
z
" id="DejaVuSans-115"/>
      </defs>
      <use xlink:href="#DejaVuSans-108"/>
      <use x="27.783203" xlink:href="#DejaVuSans-111"/>
      <use x="88.964844" xlink:href="#DejaVuSans-103"/>
      <use x="152.441406" xlink:href="#DejaVuSans-32"/>
      <use x="184.228516" xlink:href="#DejaVuSans-114"/>
      <use x="223.091797" xlink:href="#DejaVuSans-101"/>
      <use x="284.615234" xlink:href="#DejaVuSans-116"/>
      <use x="323.824219" xlink:href="#DejaVuSans-117"/>
      <use x="387.203125" xlink:href="#DejaVuSans-114"/>
      <use x="426.566406" xlink:href="#DejaVuSans-110"/>
      <use x="489.945312" xlink:href="#DejaVuSans-32"/>
      <use x="521.732422" xlink:href="#DejaVuSans-99"/>
      <use x="576.712891" xlink:href="#DejaVuSans-117"/>
      <use x="640.091797" xlink:href="#DejaVuSans-109"/>
      <use x="737.503906" xlink:href="#DejaVuSans-115"/>
      <use x="789.603516" xlink:href="#DejaVuSans-117"/>
      <use x="852.982422" xlink:href="#DejaVuSans-109"/>
     </g>
    </g>
   </g>
   <g id="line2d_19">
    <path clip-path="url(#p9ee8f6c83a)" d="M 106.53 141.81883 
L 110.48743 134.623996 
L 114.444859 142.807889 
L 118.402289 142.87916 
L 122.359719 139.307375 
L 134.232008 149.425296 
L 138.189438 137.089413 
L 142.146867 135.480091 
L 146.104297 143.047796 
L 150.061727 133.137326 
L 161.934016 133.973967 
L 165.891446 142.972243 
L 169.848876 144.524855 
L 173.806305 150.973439 
L 177.763735 155.095847 
L 189.636024 155.233941 
L 193.593454 154.439351 
L 197.550884 149.181516 
L 201.508313 157.893641 
L 205.465743 145.345945 
L 217.338032 150.205845 
L 221.295462 147.724342 
L 225.252892 142.893938 
L 229.210321 143.625571 
L 233.167751 139.87721 
L 245.04004 139.400443 
L 248.99747 127.511616 
L 252.9549 132.357412 
L 260.869759 131.255108 
L 272.742048 131.824058 
L 276.699478 133.018524 
L 280.656908 138.663967 
L 284.614337 135.059382 
L 288.571767 141.82349 
L 300.444056 142.814306 
L 304.401486 151.802287 
L 308.358916 155.913078 
L 312.316345 149.414825 
L 316.273775 158.474812 
L 328.146064 166.260014 
L 332.103494 158.637191 
L 336.060924 171.442081 
L 340.018353 163.683383 
L 343.975783 164.153186 
L 355.848072 162.781875 
L 363.762932 159.043229 
L 367.720361 158.927915 
L 371.677791 164.453204 
L 383.55008 170.657882 
L 387.50751 164.208383 
L 391.46494 167.623428 
L 395.422369 168.756449 
L 399.379799 173.654846 
L 411.252088 161.277964 
L 415.209518 159.687948 
L 419.166948 168.059493 
L 423.124378 168.909162 
L 427.081807 167.948015 
L 438.954096 175.445835 
L 442.911526 180.584505 
L 446.868956 172.455987 
L 450.826386 169.509739 
L 454.783815 168.075842 
L 466.656104 161.755648 
L 470.613534 163.649683 
L 474.570964 161.537253 
L 478.528394 163.029193 
L 482.485823 171.367568 
L 494.358112 181.077025 
L 498.315542 185.242252 
L 502.272972 187.423882 
L 506.230402 186.121805 
L 510.187831 173.88611 
L 522.06012 166.093494 
L 526.01755 168.660227 
L 529.97498 160.364648 
L 533.93241 159.368335 
L 537.889839 156.790548 
L 549.762129 155.875119 
L 553.719558 162.471916 
L 557.676988 166.37819 
L 561.634418 158.720709 
L 565.591847 161.739615 
L 577.464137 170.618821 
L 581.421566 166.936778 
L 585.378996 167.173862 
L 589.336426 170.708943 
L 593.293855 166.766985 
L 605.166145 169.90248 
L 609.123574 158.461553 
L 613.081004 158.052007 
L 617.038434 163.697032 
L 620.995863 165.049116 
L 632.868153 172.086085 
L 636.825582 174.159498 
L 640.783012 165.154416 
L 644.740442 161.071536 
L 648.697871 148.983342 
L 660.570161 139.899258 
L 664.52759 126.006537 
L 668.48502 138.178377 
L 676.39988 139.025635 
L 688.272169 135.173294 
L 692.229598 140.042549 
L 696.187028 146.531957 
L 700.144458 151.079978 
L 704.101888 141.446427 
L 715.974177 142.94211 
L 719.931606 143.204429 
L 723.889036 147.856168 
L 727.846466 145.917319 
L 743.676185 140.901288 
L 747.633614 146.674237 
L 751.591044 144.253543 
L 755.548474 143.434362 
L 759.505904 146.479302 
L 771.378193 156.988551 
L 775.335622 166.803116 
L 779.293052 171.513111 
L 783.250482 168.588698 
L 787.207912 157.696137 
L 799.080201 146.266683 
L 803.037631 147.177671 
L 806.99506 145.39892 
L 810.95249 139.739092 
L 814.90992 144.782438 
L 826.782209 153.376418 
L 830.739639 150.351084 
L 834.697068 150.578078 
L 838.654498 156.576825 
L 842.611928 147.094476 
L 854.484217 152.373237 
L 858.441647 153.697159 
L 862.399076 146.521261 
L 866.356506 144.591963 
L 870.313936 140.546881 
L 882.186225 138.912852 
L 886.143655 144.293598 
L 890.101084 153.764362 
L 894.058514 159.09719 
L 898.015944 167.744619 
L 909.888233 165.463087 
L 913.845663 162.380902 
L 917.803092 155.198947 
L 921.760522 142.346072 
L 925.717952 131.391475 
L 937.590241 141.434324 
L 941.547671 151.76737 
L 945.5051 160.284732 
L 949.46253 160.534667 
L 953.41996 159.800113 
L 965.292249 162.45043 
L 969.249679 158.908076 
L 973.207108 159.015008 
L 977.164538 161.260903 
L 981.121968 158.936907 
L 992.994257 145.845261 
L 996.951687 147.010096 
L 1000.909116 144.235948 
L 1004.866546 153.817385 
L 1008.823976 157.677621 
L 1020.696265 158.694278 
L 1024.653695 165.966092 
L 1028.611124 178.667762 
L 1032.568554 169.345411 
L 1036.525984 169.848169 
L 1048.398273 176.401183 
L 1052.355703 189.146079 
L 1056.313133 184.853862 
L 1060.270562 186.511138 
L 1064.227992 185.306458 
L 1076.100281 186.712594 
L 1080.057711 192.994502 
L 1084.015141 193.071533 
L 1087.97257 197.707032 
L 1091.93 197.707032 
L 1091.93 197.707032 
" style="fill:none;stroke:#1f77b4;stroke-linecap:square;stroke-width:1.5;"/>
   </g>
   <g id="line2d_20">
    <path clip-path="url(#p9ee8f6c83a)" d="M 106.53 155.651258 
L 110.48743 162.005597 
L 114.444859 166.059951 
L 118.402289 167.380632 
L 122.359719 159.079559 
L 134.232008 168.349921 
L 138.189438 167.924475 
L 142.146867 165.183663 
L 146.104297 179.414539 
L 150.061727 176.22974 
L 161.934016 186.431226 
L 165.891446 200.051058 
L 169.848876 187.184727 
L 173.806305 173.859153 
L 177.763735 164.901983 
L 189.636024 170.867426 
L 193.593454 183.421668 
L 197.550884 178.006546 
L 201.508313 179.808651 
L 205.465743 191.571866 
L 217.338032 191.716295 
L 221.295462 206.34474 
L 225.252892 194.56904 
L 229.210321 201.968977 
L 233.167751 197.181903 
L 245.04004 202.92644 
L 248.99747 202.326986 
L 252.9549 200.935389 
L 256.912329 210.678399 
L 260.869759 197.244638 
L 272.742048 189.228217 
L 276.699478 176.619913 
L 280.656908 165.245719 
L 284.614337 162.343789 
L 288.571767 150.221175 
L 300.444056 163.074515 
L 304.401486 172.462455 
L 308.358916 186.733599 
L 312.316345 192.055145 
L 316.273775 195.424801 
L 328.146064 202.429985 
L 332.103494 192.900477 
L 336.060924 197.250615 
L 340.018353 203.955448 
L 343.975783 202.682935 
L 355.848072 213.835894 
L 359.805502 205.053628 
L 363.762932 218.362378 
L 367.720361 204.45595 
L 371.677791 196.521485 
L 383.55008 205.822359 
L 387.50751 221.40657 
L 391.46494 212.250381 
L 395.422369 206.183575 
L 399.379799 199.481491 
L 411.252088 191.574689 
L 415.209518 204.899993 
L 419.166948 209.197374 
L 423.124378 221.160471 
L 427.081807 210.668912 
L 438.954096 207.023239 
L 442.911526 212.172206 
L 446.868956 225.840998 
L 450.826386 231.608203 
L 454.783815 236.934309 
L 466.656104 230.215081 
L 470.613534 226.153462 
L 474.570964 214.99065 
L 478.528394 215.824605 
L 482.485823 227.666974 
L 494.358112 221.416693 
L 498.315542 213.807872 
L 502.272972 211.98493 
L 506.230402 204.086735 
L 510.187831 204.272555 
L 522.06012 203.59368 
L 526.01755 205.77832 
L 529.97498 220.703088 
L 533.93241 232.925059 
L 537.889839 247.651207 
L 549.762129 243.623005 
L 553.719558 249.285302 
L 557.676988 249.028992 
L 561.634418 237.301825 
L 565.591847 245.000432 
L 577.464137 247.707093 
L 581.421566 240.247237 
L 585.378996 248.593032 
L 589.336426 261.82233 
L 593.293855 268.251425 
L 605.166145 278.751294 
L 609.123574 266.412893 
L 613.081004 257.463532 
L 617.038434 253.522958 
L 620.995863 242.798376 
L 632.868153 233.974481 
L 636.825582 243.662697 
L 640.783012 232.351441 
L 644.740442 231.178496 
L 648.697871 222.248314 
L 660.570161 210.839061 
L 664.52759 216.388018 
L 668.48502 228.539837 
L 672.44245 236.912946 
L 676.39988 239.110744 
L 688.272169 229.882684 
L 692.229598 219.457352 
L 696.187028 234.994071 
L 700.144458 234.672739 
L 704.101888 237.165356 
L 715.974177 245.723034 
L 719.931606 257.55662 
L 723.889036 262.497642 
L 727.846466 249.795528 
L 731.803896 255.183069 
L 743.676185 254.6217 
L 747.633614 248.665258 
L 751.591044 252.80366 
L 759.505904 226.07144 
L 771.378193 233.691603 
L 775.335622 233.773981 
L 779.293052 239.855822 
L 783.250482 246.438438 
L 787.207912 260.984446 
L 799.080201 257.740486 
L 803.037631 257.660321 
L 806.99506 271.725772 
L 810.95249 278.502243 
L 814.90992 266.755721 
L 826.782209 274.761256 
L 830.739639 285.786229 
L 834.697068 286.102252 
L 838.654498 272.229553 
L 842.611928 280.156378 
L 854.484217 275.090887 
L 858.441647 267.458327 
L 862.399076 275.524637 
L 866.356506 268.845188 
L 870.313936 272.85584 
L 882.186225 268.947277 
L 886.143655 265.003031 
L 890.101084 263.93607 
L 894.058514 276.730802 
L 898.015944 267.017034 
L 909.888233 272.479771 
L 913.845663 282.169633 
L 917.803092 296.587438 
L 921.760522 293.891351 
L 925.717952 288.668859 
L 937.590241 303.885963 
L 941.547671 303.524442 
L 945.5051 311.943119 
L 949.46253 307.659832 
L 953.41996 317.738252 
L 965.292249 312.129708 
L 969.249679 315.558824 
L 973.207108 303.026721 
L 977.164538 314.289465 
L 981.121968 319.12376 
L 992.994257 331.164545 
L 996.951687 318.964131 
L 1000.909116 308.07585 
L 1004.866546 315.502154 
L 1008.823976 310.788678 
L 1020.696265 301.582923 
L 1024.653695 299.93976 
L 1028.611124 299.054908 
L 1032.568554 306.98814 
L 1036.525984 319.69119 
L 1048.398273 308.250754 
L 1052.355703 296.721551 
L 1056.313133 292.78979 
L 1060.270562 297.687056 
L 1064.227992 302.269826 
L 1076.100281 295.655101 
L 1084.015141 273.058288 
L 1087.97257 264.907377 
L 1087.97257 264.907377 
" style="fill:none;stroke:#ff7f0e;stroke-linecap:square;stroke-width:1.5;"/>
   </g>
   <g id="line2d_21">
    <path clip-path="url(#p9ee8f6c83a)" d="M 106.53 131.575416 
L 110.48743 118.565724 
L 114.444859 122.583394 
L 118.402289 121.344917 
L 122.359719 126.348498 
L 134.232008 127.145014 
L 138.189438 115.201987 
L 142.146867 116.35447 
L 146.104297 110.283627 
L 150.061727 103.416563 
L 161.934016 94.651104 
L 165.891446 90.425956 
L 169.848876 106.21001 
L 173.806305 127.965928 
L 177.763735 141.890935 
L 189.636024 136.287093 
L 193.593454 123.969415 
L 197.550884 124.132501 
L 201.508313 130.957897 
L 205.465743 108.35289 
L 217.338032 113.063739 
L 221.295462 97.467027 
L 225.252892 104.995427 
L 229.210321 98.642098 
L 233.167751 99.714695 
L 245.04004 93.723045 
L 248.99747 82.390034 
L 252.9549 88.686941 
L 256.912329 78.982016 
L 260.869759 93.179331 
L 272.742048 102.25173 
L 276.699478 117.330899 
L 280.656908 135.780715 
L 284.614337 135.064334 
L 288.571767 155.659255 
L 300.444056 144.738299 
L 304.401486 144.362628 
L 308.358916 135.098411 
L 312.316345 123.676167 
L 316.273775 129.237421 
L 328.146064 129.98168 
L 332.103494 132.01458 
L 336.060924 140.220343 
L 340.018353 126.362068 
L 343.975783 128.119349 
L 355.848072 116.460402 
L 359.805502 123.741421 
L 363.762932 109.848758 
L 367.720361 125.053291 
L 371.677791 139.281853 
L 383.55008 136.370421 
L 387.50751 116.37677 
L 391.46494 129.777714 
L 395.422369 137.283002 
L 399.379799 149.436958 
L 411.252088 144.728135 
L 415.209518 131.027113 
L 419.166948 134.984411 
L 423.124378 124.696125 
L 427.081807 134.942866 
L 438.954096 146.371915 
L 442.911526 146.361967 
L 446.868956 126.345793 
L 450.826386 117.952676 
L 454.783815 111.423946 
L 466.656104 111.841329 
L 470.613534 117.96423 
L 474.570964 127.738873 
L 478.528394 128.393193 
L 482.485823 125.152922 
L 494.358112 141.832676 
L 498.315542 154.246993 
L 502.272972 158.301314 
L 506.230402 165.26334 
L 510.187831 152.856618 
L 522.06012 145.711293 
L 526.01755 146.087842 
L 529.97498 124.92306 
L 533.93241 112.700219 
L 537.889839 96.935558 
L 549.762129 100.134169 
L 553.719558 101.033867 
L 557.676988 105.203687 
L 561.634418 109.610036 
L 565.591847 105.16153 
L 577.464137 111.221171 
L 581.421566 115.194655 
L 585.378996 107.514674 
L 589.336426 98.616741 
L 593.293855 88.667615 
L 605.166145 81.790935 
L 609.123574 82.765789 
L 613.081004 91.848149 
L 617.038434 101.698101 
L 620.995863 114.712092 
L 632.868153 131.592621 
L 636.825582 124.443944 
L 640.783012 126.932693 
L 644.740442 124.000085 
L 648.697871 120.650051 
L 660.570161 123.160969 
L 664.52759 104.384391 
L 668.48502 104.402851 
L 672.44245 96.868487 
L 676.39988 95.127042 
L 688.272169 100.851294 
L 692.229598 117.312215 
L 696.187028 109.133137 
L 700.144458 114.013129 
L 704.101888 102.079482 
L 715.974177 95.401358 
L 719.931606 84.679072 
L 723.889036 84.399175 
L 727.846466 96.154273 
L 731.803896 89.750454 
L 743.676185 86.529748 
L 747.633614 98.755379 
L 751.591044 92.371415 
L 755.548474 106.299384 
L 759.505904 124.182206 
L 771.378193 126.926545 
L 775.335622 136.653199 
L 779.293052 135.335745 
L 783.250482 126.225624 
L 787.207912 102.969708 
L 799.080201 94.609766 
L 803.037631 95.60145 
L 806.99506 81.112004 
L 810.95249 69.204948 
L 814.90992 87.452702 
L 826.782209 88.010439 
L 830.739639 74.915634 
L 834.697068 74.826792 
L 838.654498 96.776727 
L 842.611928 80.217814 
L 854.484217 90.931241 
L 858.441647 100.371449 
L 862.399076 85.891595 
L 866.356506 90.862199 
L 870.313936 83.013997 
L 882.186225 85.34919 
L 886.143655 94.931358 
L 890.101084 105.547218 
L 894.058514 98.682956 
L 898.015944 118.359953 
L 909.888233 110.886454 
L 913.845663 98.883924 
L 917.803092 79.142972 
L 921.760522 68.807781 
L 925.717952 62.876095 
L 937.590241 58.19436 
L 941.547671 68.915742 
L 945.5051 69.009026 
L 949.46253 73.675942 
L 953.41996 63.543889 
L 965.292249 72.127353 
L 969.249679 65.310264 
L 973.207108 79.105683 
L 977.164538 70.724563 
L 981.121968 63.78862 
L 992.994257 40.455455 
L 996.951687 55.012902 
L 1000.909116 63.757623 
L 1004.866546 65.807704 
L 1008.823976 74.664024 
L 1020.696265 85.559165 
L 1024.653695 94.57559 
L 1028.611124 108.246476 
L 1032.568554 91.834722 
L 1036.525984 80.590941 
L 1048.398273 100.111092 
L 1052.355703 126.510708 
L 1056.313133 126.140668 
L 1060.270562 123.003901 
L 1064.227992 117.387756 
L 1076.100281 125.781442 
L 1080.057711 145.002382 
L 1084.015141 157.144829 
L 1087.97257 170.680295 
L 1087.97257 170.680295 
" style="fill:none;stroke:#2ca02c;stroke-linecap:square;stroke-width:1.5;"/>
   </g>
   <g id="patch_3">
    <path d="M 57.26 345.7 
L 57.26 25.92 
" style="fill:none;stroke:#000000;stroke-linecap:square;stroke-linejoin:miter;stroke-width:0.8;"/>
   </g>
   <g id="patch_4">
    <path d="M 1141.2 345.7 
L 1141.2 25.92 
" style="fill:none;stroke:#000000;stroke-linecap:square;stroke-linejoin:miter;stroke-width:0.8;"/>
   </g>
   <g id="patch_5">
    <path d="M 57.26 345.7 
L 1141.2 345.7 
" style="fill:none;stroke:#000000;stroke-linecap:square;stroke-linejoin:miter;stroke-width:0.8;"/>
   </g>
   <g id="patch_6">
    <path d="M 57.26 25.92 
L 1141.2 25.92 
" style="fill:none;stroke:#000000;stroke-linecap:square;stroke-linejoin:miter;stroke-width:0.8;"/>
   </g>
   <g id="text_11">
    <!-- Cumulative Log Return: (2010-02-01 ~ 2010-10-08) -->
    <g transform="translate(443.352812 19.92)scale(0.12 -0.12)">
     <defs>
      <path d="M 64.40625 67.28125 
L 64.40625 56.890625 
Q 59.421875 61.53125 53.78125 63.8125 
Q 48.140625 66.109375 41.796875 66.109375 
Q 29.296875 66.109375 22.65625 58.46875 
Q 16.015625 50.828125 16.015625 36.375 
Q 16.015625 21.96875 22.65625 14.328125 
Q 29.296875 6.6875 41.796875 6.6875 
Q 48.140625 6.6875 53.78125 8.984375 
Q 59.421875 11.28125 64.40625 15.921875 
L 64.40625 5.609375 
Q 59.234375 2.09375 53.4375 0.328125 
Q 47.65625 -1.421875 41.21875 -1.421875 
Q 24.65625 -1.421875 15.125 8.703125 
Q 5.609375 18.84375 5.609375 36.375 
Q 5.609375 53.953125 15.125 64.078125 
Q 24.65625 74.21875 41.21875 74.21875 
Q 47.75 74.21875 53.53125 72.484375 
Q 59.328125 70.75 64.40625 67.28125 
z
" id="DejaVuSans-67"/>
      <path d="M 34.28125 27.484375 
Q 23.390625 27.484375 19.1875 25 
Q 14.984375 22.515625 14.984375 16.5 
Q 14.984375 11.71875 18.140625 8.90625 
Q 21.296875 6.109375 26.703125 6.109375 
Q 34.1875 6.109375 38.703125 11.40625 
Q 43.21875 16.703125 43.21875 25.484375 
L 43.21875 27.484375 
z
M 52.203125 31.203125 
L 52.203125 0 
L 43.21875 0 
L 43.21875 8.296875 
Q 40.140625 3.328125 35.546875 0.953125 
Q 30.953125 -1.421875 24.3125 -1.421875 
Q 15.921875 -1.421875 10.953125 3.296875 
Q 6 8.015625 6 15.921875 
Q 6 25.140625 12.171875 29.828125 
Q 18.359375 34.515625 30.609375 34.515625 
L 43.21875 34.515625 
L 43.21875 35.40625 
Q 43.21875 41.609375 39.140625 45 
Q 35.0625 48.390625 27.6875 48.390625 
Q 23 48.390625 18.546875 47.265625 
Q 14.109375 46.140625 10.015625 43.890625 
L 10.015625 52.203125 
Q 14.9375 54.109375 19.578125 55.046875 
Q 24.21875 56 28.609375 56 
Q 40.484375 56 46.34375 49.84375 
Q 52.203125 43.703125 52.203125 31.203125 
z
" id="DejaVuSans-97"/>
      <path d="M 9.421875 54.6875 
L 18.40625 54.6875 
L 18.40625 0 
L 9.421875 0 
z
M 9.421875 75.984375 
L 18.40625 75.984375 
L 18.40625 64.59375 
L 9.421875 64.59375 
z
" id="DejaVuSans-105"/>
      <path d="M 2.984375 54.6875 
L 12.5 54.6875 
L 29.59375 8.796875 
L 46.6875 54.6875 
L 56.203125 54.6875 
L 35.6875 0 
L 23.484375 0 
z
" id="DejaVuSans-118"/>
      <path d="M 9.8125 72.90625 
L 19.671875 72.90625 
L 19.671875 8.296875 
L 55.171875 8.296875 
L 55.171875 0 
L 9.8125 0 
z
" id="DejaVuSans-76"/>
      <path d="M 44.390625 34.1875 
Q 47.5625 33.109375 50.5625 29.59375 
Q 53.5625 26.078125 56.59375 19.921875 
L 66.609375 0 
L 56 0 
L 46.6875 18.703125 
Q 43.0625 26.03125 39.671875 28.421875 
Q 36.28125 30.8125 30.421875 30.8125 
L 19.671875 30.8125 
L 19.671875 0 
L 9.8125 0 
L 9.8125 72.90625 
L 32.078125 72.90625 
Q 44.578125 72.90625 50.734375 67.671875 
Q 56.890625 62.453125 56.890625 51.90625 
Q 56.890625 45.015625 53.6875 40.46875 
Q 50.484375 35.9375 44.390625 34.1875 
z
M 19.671875 64.796875 
L 19.671875 38.921875 
L 32.078125 38.921875 
Q 39.203125 38.921875 42.84375 42.21875 
Q 46.484375 45.515625 46.484375 51.90625 
Q 46.484375 58.296875 42.84375 61.546875 
Q 39.203125 64.796875 32.078125 64.796875 
z
" id="DejaVuSans-82"/>
      <path d="M 11.71875 12.40625 
L 22.015625 12.40625 
L 22.015625 0 
L 11.71875 0 
z
M 11.71875 51.703125 
L 22.015625 51.703125 
L 22.015625 39.3125 
L 11.71875 39.3125 
z
" id="DejaVuSans-58"/>
      <path d="M 31 75.875 
Q 24.46875 64.65625 21.28125 53.65625 
Q 18.109375 42.671875 18.109375 31.390625 
Q 18.109375 20.125 21.3125 9.0625 
Q 24.515625 -2 31 -13.1875 
L 23.1875 -13.1875 
Q 15.875 -1.703125 12.234375 9.375 
Q 8.59375 20.453125 8.59375 31.390625 
Q 8.59375 42.28125 12.203125 53.3125 
Q 15.828125 64.359375 23.1875 75.875 
z
" id="DejaVuSans-40"/>
      <path d="M 73.1875 39.890625 
L 73.1875 31.203125 
Q 68.0625 27.34375 63.6875 25.6875 
Q 59.328125 24.03125 54.59375 24.03125 
Q 49.21875 24.03125 42.09375 26.90625 
Q 41.546875 27.09375 41.3125 27.203125 
Q 40.96875 27.34375 40.234375 27.59375 
Q 32.671875 30.609375 28.078125 30.609375 
Q 23.78125 30.609375 19.578125 28.734375 
Q 15.375 26.859375 10.59375 22.796875 
L 10.59375 31.5 
Q 15.71875 35.359375 20.09375 37.03125 
Q 24.46875 38.71875 29.203125 38.71875 
Q 34.578125 38.71875 41.75 35.796875 
Q 42.234375 35.59375 42.484375 35.5 
Q 42.875 35.359375 43.5625 35.109375 
Q 51.125 32.078125 55.71875 32.078125 
Q 59.90625 32.078125 64.03125 33.9375 
Q 68.171875 35.796875 73.1875 39.890625 
z
" id="DejaVuSans-126"/>
      <path d="M 31.78125 34.625 
Q 24.75 34.625 20.71875 30.859375 
Q 16.703125 27.09375 16.703125 20.515625 
Q 16.703125 13.921875 20.71875 10.15625 
Q 24.75 6.390625 31.78125 6.390625 
Q 38.8125 6.390625 42.859375 10.171875 
Q 46.921875 13.96875 46.921875 20.515625 
Q 46.921875 27.09375 42.890625 30.859375 
Q 38.875 34.625 31.78125 34.625 
z
M 21.921875 38.8125 
Q 15.578125 40.375 12.03125 44.71875 
Q 8.5 49.078125 8.5 55.328125 
Q 8.5 64.0625 14.71875 69.140625 
Q 20.953125 74.21875 31.78125 74.21875 
Q 42.671875 74.21875 48.875 69.140625 
Q 55.078125 64.0625 55.078125 55.328125 
Q 55.078125 49.078125 51.53125 44.71875 
Q 48 40.375 41.703125 38.8125 
Q 48.828125 37.15625 52.796875 32.3125 
Q 56.78125 27.484375 56.78125 20.515625 
Q 56.78125 9.90625 50.3125 4.234375 
Q 43.84375 -1.421875 31.78125 -1.421875 
Q 19.734375 -1.421875 13.25 4.234375 
Q 6.78125 9.90625 6.78125 20.515625 
Q 6.78125 27.484375 10.78125 32.3125 
Q 14.796875 37.15625 21.921875 38.8125 
z
M 18.3125 54.390625 
Q 18.3125 48.734375 21.84375 45.5625 
Q 25.390625 42.390625 31.78125 42.390625 
Q 38.140625 42.390625 41.71875 45.5625 
Q 45.3125 48.734375 45.3125 54.390625 
Q 45.3125 60.0625 41.71875 63.234375 
Q 38.140625 66.40625 31.78125 66.40625 
Q 25.390625 66.40625 21.84375 63.234375 
Q 18.3125 60.0625 18.3125 54.390625 
z
" id="DejaVuSans-56"/>
      <path d="M 8.015625 75.875 
L 15.828125 75.875 
Q 23.140625 64.359375 26.78125 53.3125 
Q 30.421875 42.28125 30.421875 31.390625 
Q 30.421875 20.453125 26.78125 9.375 
Q 23.140625 -1.703125 15.828125 -13.1875 
L 8.015625 -13.1875 
Q 14.5 -2 17.703125 9.0625 
Q 20.90625 20.125 20.90625 31.390625 
Q 20.90625 42.671875 17.703125 53.65625 
Q 14.5 64.65625 8.015625 75.875 
z
" id="DejaVuSans-41"/>
     </defs>
     <use xlink:href="#DejaVuSans-67"/>
     <use x="69.824219" xlink:href="#DejaVuSans-117"/>
     <use x="133.203125" xlink:href="#DejaVuSans-109"/>
     <use x="230.615234" xlink:href="#DejaVuSans-117"/>
     <use x="293.994141" xlink:href="#DejaVuSans-108"/>
     <use x="321.777344" xlink:href="#DejaVuSans-97"/>
     <use x="383.056641" xlink:href="#DejaVuSans-116"/>
     <use x="422.265625" xlink:href="#DejaVuSans-105"/>
     <use x="450.048828" xlink:href="#DejaVuSans-118"/>
     <use x="509.228516" xlink:href="#DejaVuSans-101"/>
     <use x="570.751953" xlink:href="#DejaVuSans-32"/>
     <use x="602.539062" xlink:href="#DejaVuSans-76"/>
     <use x="656.501953" xlink:href="#DejaVuSans-111"/>
     <use x="717.683594" xlink:href="#DejaVuSans-103"/>
     <use x="781.160156" xlink:href="#DejaVuSans-32"/>
     <use x="812.947266" xlink:href="#DejaVuSans-82"/>
     <use x="877.929688" xlink:href="#DejaVuSans-101"/>
     <use x="939.453125" xlink:href="#DejaVuSans-116"/>
     <use x="978.662109" xlink:href="#DejaVuSans-117"/>
     <use x="1042.041016" xlink:href="#DejaVuSans-114"/>
     <use x="1081.404297" xlink:href="#DejaVuSans-110"/>
     <use x="1144.783203" xlink:href="#DejaVuSans-58"/>
     <use x="1178.474609" xlink:href="#DejaVuSans-32"/>
     <use x="1210.261719" xlink:href="#DejaVuSans-40"/>
     <use x="1249.275391" xlink:href="#DejaVuSans-50"/>
     <use x="1312.898438" xlink:href="#DejaVuSans-48"/>
     <use x="1376.521484" xlink:href="#DejaVuSans-49"/>
     <use x="1440.144531" xlink:href="#DejaVuSans-48"/>
     <use x="1503.767578" xlink:href="#DejaVuSans-45"/>
     <use x="1539.851562" xlink:href="#DejaVuSans-48"/>
     <use x="1603.474609" xlink:href="#DejaVuSans-50"/>
     <use x="1667.097656" xlink:href="#DejaVuSans-45"/>
     <use x="1703.181641" xlink:href="#DejaVuSans-48"/>
     <use x="1766.804688" xlink:href="#DejaVuSans-49"/>
     <use x="1830.427734" xlink:href="#DejaVuSans-32"/>
     <use x="1862.214844" xlink:href="#DejaVuSans-126"/>
     <use x="1946.003906" xlink:href="#DejaVuSans-32"/>
     <use x="1977.791016" xlink:href="#DejaVuSans-50"/>
     <use x="2041.414062" xlink:href="#DejaVuSans-48"/>
     <use x="2105.037109" xlink:href="#DejaVuSans-49"/>
     <use x="2168.660156" xlink:href="#DejaVuSans-48"/>
     <use x="2232.283203" xlink:href="#DejaVuSans-45"/>
     <use x="2268.367188" xlink:href="#DejaVuSans-49"/>
     <use x="2331.990234" xlink:href="#DejaVuSans-48"/>
     <use x="2395.613281" xlink:href="#DejaVuSans-45"/>
     <use x="2431.697266" xlink:href="#DejaVuSans-48"/>
     <use x="2495.320312" xlink:href="#DejaVuSans-56"/>
     <use x="2558.943359" xlink:href="#DejaVuSans-41"/>
    </g>
   </g>
   <g id="legend_1">
    <g id="patch_7">
     <path d="M 64.26 77.954375 
L 152.705312 77.954375 
Q 154.705312 77.954375 154.705312 75.954375 
L 154.705312 32.92 
Q 154.705312 30.92 152.705312 30.92 
L 64.26 30.92 
Q 62.26 30.92 62.26 32.92 
L 62.26 75.954375 
Q 62.26 77.954375 64.26 77.954375 
z
" style="fill:#ffffff;opacity:0.8;stroke:#cccccc;stroke-linejoin:miter;"/>
    </g>
    <g id="line2d_22">
     <path d="M 66.26 39.018437 
L 86.26 39.018437 
" style="fill:none;stroke:#1f77b4;stroke-linecap:square;stroke-width:1.5;"/>
    </g>
    <g id="line2d_23"/>
    <g id="text_12">
     <!-- strategy -->
     <g transform="translate(94.26 42.518437)scale(0.1 -0.1)">
      <defs>
       <path d="M 32.171875 -5.078125 
Q 28.375 -14.84375 24.75 -17.8125 
Q 21.140625 -20.796875 15.09375 -20.796875 
L 7.90625 -20.796875 
L 7.90625 -13.28125 
L 13.1875 -13.28125 
Q 16.890625 -13.28125 18.9375 -11.515625 
Q 21 -9.765625 23.484375 -3.21875 
L 25.09375 0.875 
L 2.984375 54.6875 
L 12.5 54.6875 
L 29.59375 11.921875 
L 46.6875 54.6875 
L 56.203125 54.6875 
z
" id="DejaVuSans-121"/>
      </defs>
      <use xlink:href="#DejaVuSans-115"/>
      <use x="52.099609" xlink:href="#DejaVuSans-116"/>
      <use x="91.308594" xlink:href="#DejaVuSans-114"/>
      <use x="132.421875" xlink:href="#DejaVuSans-97"/>
      <use x="193.701172" xlink:href="#DejaVuSans-116"/>
      <use x="232.910156" xlink:href="#DejaVuSans-101"/>
      <use x="294.433594" xlink:href="#DejaVuSans-103"/>
      <use x="357.910156" xlink:href="#DejaVuSans-121"/>
     </g>
    </g>
    <g id="line2d_24">
     <path d="M 66.26 53.696562 
L 86.26 53.696562 
" style="fill:none;stroke:#ff7f0e;stroke-linecap:square;stroke-width:1.5;"/>
    </g>
    <g id="line2d_25"/>
    <g id="text_13">
     <!-- benchmark -->
     <g transform="translate(94.26 57.196562)scale(0.1 -0.1)">
      <defs>
       <path d="M 48.6875 27.296875 
Q 48.6875 37.203125 44.609375 42.84375 
Q 40.53125 48.484375 33.40625 48.484375 
Q 26.265625 48.484375 22.1875 42.84375 
Q 18.109375 37.203125 18.109375 27.296875 
Q 18.109375 17.390625 22.1875 11.75 
Q 26.265625 6.109375 33.40625 6.109375 
Q 40.53125 6.109375 44.609375 11.75 
Q 48.6875 17.390625 48.6875 27.296875 
z
M 18.109375 46.390625 
Q 20.953125 51.265625 25.265625 53.625 
Q 29.59375 56 35.59375 56 
Q 45.5625 56 51.78125 48.09375 
Q 58.015625 40.1875 58.015625 27.296875 
Q 58.015625 14.40625 51.78125 6.484375 
Q 45.5625 -1.421875 35.59375 -1.421875 
Q 29.59375 -1.421875 25.265625 0.953125 
Q 20.953125 3.328125 18.109375 8.203125 
L 18.109375 0 
L 9.078125 0 
L 9.078125 75.984375 
L 18.109375 75.984375 
z
" id="DejaVuSans-98"/>
       <path d="M 54.890625 33.015625 
L 54.890625 0 
L 45.90625 0 
L 45.90625 32.71875 
Q 45.90625 40.484375 42.875 44.328125 
Q 39.84375 48.1875 33.796875 48.1875 
Q 26.515625 48.1875 22.3125 43.546875 
Q 18.109375 38.921875 18.109375 30.90625 
L 18.109375 0 
L 9.078125 0 
L 9.078125 75.984375 
L 18.109375 75.984375 
L 18.109375 46.1875 
Q 21.34375 51.125 25.703125 53.5625 
Q 30.078125 56 35.796875 56 
Q 45.21875 56 50.046875 50.171875 
Q 54.890625 44.34375 54.890625 33.015625 
z
" id="DejaVuSans-104"/>
       <path d="M 9.078125 75.984375 
L 18.109375 75.984375 
L 18.109375 31.109375 
L 44.921875 54.6875 
L 56.390625 54.6875 
L 27.390625 29.109375 
L 57.625 0 
L 45.90625 0 
L 18.109375 26.703125 
L 18.109375 0 
L 9.078125 0 
z
" id="DejaVuSans-107"/>
      </defs>
      <use xlink:href="#DejaVuSans-98"/>
      <use x="63.476562" xlink:href="#DejaVuSans-101"/>
      <use x="125" xlink:href="#DejaVuSans-110"/>
      <use x="188.378906" xlink:href="#DejaVuSans-99"/>
      <use x="243.359375" xlink:href="#DejaVuSans-104"/>
      <use x="306.738281" xlink:href="#DejaVuSans-109"/>
      <use x="404.150391" xlink:href="#DejaVuSans-97"/>
      <use x="465.429688" xlink:href="#DejaVuSans-114"/>
      <use x="506.542969" xlink:href="#DejaVuSans-107"/>
     </g>
    </g>
    <g id="line2d_26">
     <path d="M 66.26 68.374687 
L 86.26 68.374687 
" style="fill:none;stroke:#2ca02c;stroke-linecap:square;stroke-width:1.5;"/>
    </g>
    <g id="line2d_27"/>
    <g id="text_14">
     <!-- excess -->
     <g transform="translate(94.26 71.874687)scale(0.1 -0.1)">
      <defs>
       <path d="M 54.890625 54.6875 
L 35.109375 28.078125 
L 55.90625 0 
L 45.3125 0 
L 29.390625 21.484375 
L 13.484375 0 
L 2.875 0 
L 24.125 28.609375 
L 4.6875 54.6875 
L 15.28125 54.6875 
L 29.78125 35.203125 
L 44.28125 54.6875 
z
" id="DejaVuSans-120"/>
      </defs>
      <use xlink:href="#DejaVuSans-101"/>
      <use x="59.773438" xlink:href="#DejaVuSans-120"/>
      <use x="117.203125" xlink:href="#DejaVuSans-99"/>
      <use x="172.183594" xlink:href="#DejaVuSans-101"/>
      <use x="233.707031" xlink:href="#DejaVuSans-115"/>
      <use x="285.806641" xlink:href="#DejaVuSans-115"/>
     </g>
    </g>
   </g>
  </g>
 </g>
 <defs>
  <clipPath id="p9ee8f6c83a">
   <rect height="319.78" width="1083.94" x="57.26" y="25.92"/>
  </clipPath>
 </defs>
</svg>
