<?xml version="1.0" encoding="utf-8" standalone="no"?>
<!DOCTYPE svg PUBLIC "-//W3C//DTD SVG 1.1//EN"
  "http://www.w3.org/Graphics/SVG/1.1/DTD/svg11.dtd">
<!-- Created with matplotlib (https://matplotlib.org/) -->
<svg height="360pt" version="1.1" viewBox="0 0 1152 360" width="1152pt" xmlns="http://www.w3.org/2000/svg" xmlns:xlink="http://www.w3.org/1999/xlink">
 <metadata>
  <rdf:RDF xmlns:cc="http://creativecommons.org/ns#" xmlns:dc="http://purl.org/dc/elements/1.1/" xmlns:rdf="http://www.w3.org/1999/02/22-rdf-syntax-ns#">
   <cc:Work>
    <dc:type rdf:resource="http://purl.org/dc/dcmitype/StillImage"/>
    <dc:date>2023-10-11T16:35:40.865626</dc:date>
    <dc:format>image/svg+xml</dc:format>
    <dc:creator>
     <cc:Agent>
      <dc:title>Matplotlib v3.3.4, https://matplotlib.org/</dc:title>
     </cc:Agent>
    </dc:creator>
   </cc:Work>
  </rdf:RDF>
 </metadata>
 <defs>
  <style type="text/css">*{stroke-linecap:butt;stroke-linejoin:round;}</style>
 </defs>
 <g id="figure_1">
  <g id="patch_1">
   <path d="M 0 360 
L 1152 360 
L 1152 0 
L 0 0 
z
" style="fill:#ffffff;"/>
  </g>
  <g id="axes_1">
   <g id="patch_2">
    <path d="M 50.9 345.7 
L 1141.2 345.7 
L 1141.2 25.92 
L 50.9 25.92 
z
" style="fill:#ffffff;"/>
   </g>
   <g id="matplotlib.axis_1"/>
   <g id="matplotlib.axis_2">
    <g id="ytick_1">
     <g id="line2d_1">
      <path clip-path="url(#p273c81502f)" d="M 50.9 330.356154 
L 1141.2 330.356154 
" style="fill:none;stroke:#b0b0b0;stroke-linecap:square;stroke-width:0.8;"/>
     </g>
     <g id="line2d_2">
      <defs>
       <path d="M 0 0 
L -3.5 0 
" id="me843acdf0e" style="stroke:#000000;stroke-width:0.8;"/>
      </defs>
      <g>
       <use style="stroke:#000000;stroke-width:0.8;" x="50.9" xlink:href="#me843acdf0e" y="330.356154"/>
      </g>
     </g>
     <g id="text_1">
      <!-- -2.0 -->
      <g transform="translate(24.389062 334.155373)scale(0.1 -0.1)">
       <defs>
        <path d="M 4.890625 31.390625 
L 31.203125 31.390625 
L 31.203125 23.390625 
L 4.890625 23.390625 
z
" id="DejaVuSans-45"/>
        <path d="M 19.1875 8.296875 
L 53.609375 8.296875 
L 53.609375 0 
L 7.328125 0 
L 7.328125 8.296875 
Q 12.9375 14.109375 22.625 23.890625 
Q 32.328125 33.6875 34.8125 36.53125 
Q 39.546875 41.84375 41.421875 45.53125 
Q 43.3125 49.21875 43.3125 52.78125 
Q 43.3125 58.59375 39.234375 62.25 
Q 35.15625 65.921875 28.609375 65.921875 
Q 23.96875 65.921875 18.8125 64.3125 
Q 13.671875 62.703125 7.8125 59.421875 
L 7.8125 69.390625 
Q 13.765625 71.78125 18.9375 73 
Q 24.125 74.21875 28.421875 74.21875 
Q 39.75 74.21875 46.484375 68.546875 
Q 53.21875 62.890625 53.21875 53.421875 
Q 53.21875 48.921875 51.53125 44.890625 
Q 49.859375 40.875 45.40625 35.40625 
Q 44.1875 33.984375 37.640625 27.21875 
Q 31.109375 20.453125 19.1875 8.296875 
z
" id="DejaVuSans-50"/>
        <path d="M 10.6875 12.40625 
L 21 12.40625 
L 21 0 
L 10.6875 0 
z
" id="DejaVuSans-46"/>
        <path d="M 31.78125 66.40625 
Q 24.171875 66.40625 20.328125 58.90625 
Q 16.5 51.421875 16.5 36.375 
Q 16.5 21.390625 20.328125 13.890625 
Q 24.171875 6.390625 31.78125 6.390625 
Q 39.453125 6.390625 43.28125 13.890625 
Q 47.125 21.390625 47.125 36.375 
Q 47.125 51.421875 43.28125 58.90625 
Q 39.453125 66.40625 31.78125 66.40625 
z
M 31.78125 74.21875 
Q 44.046875 74.21875 50.515625 64.515625 
Q 56.984375 54.828125 56.984375 36.375 
Q 56.984375 17.96875 50.515625 8.265625 
Q 44.046875 -1.421875 31.78125 -1.421875 
Q 19.53125 -1.421875 13.0625 8.265625 
Q 6.59375 17.96875 6.59375 36.375 
Q 6.59375 54.828125 13.0625 64.515625 
Q 19.53125 74.21875 31.78125 74.21875 
z
" id="DejaVuSans-48"/>
       </defs>
       <use xlink:href="#DejaVuSans-45"/>
       <use x="36.083984" xlink:href="#DejaVuSans-50"/>
       <use x="99.707031" xlink:href="#DejaVuSans-46"/>
       <use x="131.494141" xlink:href="#DejaVuSans-48"/>
      </g>
     </g>
    </g>
    <g id="ytick_2">
     <g id="line2d_3">
      <path clip-path="url(#p273c81502f)" d="M 50.9 279.265953 
L 1141.2 279.265953 
" style="fill:none;stroke:#b0b0b0;stroke-linecap:square;stroke-width:0.8;"/>
     </g>
     <g id="line2d_4">
      <g>
       <use style="stroke:#000000;stroke-width:0.8;" x="50.9" xlink:href="#me843acdf0e" y="279.265953"/>
      </g>
     </g>
     <g id="text_2">
      <!-- -1.5 -->
      <g transform="translate(24.389062 283.065172)scale(0.1 -0.1)">
       <defs>
        <path d="M 12.40625 8.296875 
L 28.515625 8.296875 
L 28.515625 63.921875 
L 10.984375 60.40625 
L 10.984375 69.390625 
L 28.421875 72.90625 
L 38.28125 72.90625 
L 38.28125 8.296875 
L 54.390625 8.296875 
L 54.390625 0 
L 12.40625 0 
z
" id="DejaVuSans-49"/>
        <path d="M 10.796875 72.90625 
L 49.515625 72.90625 
L 49.515625 64.59375 
L 19.828125 64.59375 
L 19.828125 46.734375 
Q 21.96875 47.46875 24.109375 47.828125 
Q 26.265625 48.1875 28.421875 48.1875 
Q 40.625 48.1875 47.75 41.5 
Q 54.890625 34.8125 54.890625 23.390625 
Q 54.890625 11.625 47.5625 5.09375 
Q 40.234375 -1.421875 26.90625 -1.421875 
Q 22.3125 -1.421875 17.546875 -0.640625 
Q 12.796875 0.140625 7.71875 1.703125 
L 7.71875 11.625 
Q 12.109375 9.234375 16.796875 8.0625 
Q 21.484375 6.890625 26.703125 6.890625 
Q 35.15625 6.890625 40.078125 11.328125 
Q 45.015625 15.765625 45.015625 23.390625 
Q 45.015625 31 40.078125 35.4375 
Q 35.15625 39.890625 26.703125 39.890625 
Q 22.75 39.890625 18.8125 39.015625 
Q 14.890625 38.140625 10.796875 36.28125 
z
" id="DejaVuSans-53"/>
       </defs>
       <use xlink:href="#DejaVuSans-45"/>
       <use x="36.083984" xlink:href="#DejaVuSans-49"/>
       <use x="99.707031" xlink:href="#DejaVuSans-46"/>
       <use x="131.494141" xlink:href="#DejaVuSans-53"/>
      </g>
     </g>
    </g>
    <g id="ytick_3">
     <g id="line2d_5">
      <path clip-path="url(#p273c81502f)" d="M 50.9 228.175752 
L 1141.2 228.175752 
" style="fill:none;stroke:#b0b0b0;stroke-linecap:square;stroke-width:0.8;"/>
     </g>
     <g id="line2d_6">
      <g>
       <use style="stroke:#000000;stroke-width:0.8;" x="50.9" xlink:href="#me843acdf0e" y="228.175752"/>
      </g>
     </g>
     <g id="text_3">
      <!-- -1.0 -->
      <g transform="translate(24.389062 231.974971)scale(0.1 -0.1)">
       <use xlink:href="#DejaVuSans-45"/>
       <use x="36.083984" xlink:href="#DejaVuSans-49"/>
       <use x="99.707031" xlink:href="#DejaVuSans-46"/>
       <use x="131.494141" xlink:href="#DejaVuSans-48"/>
      </g>
     </g>
    </g>
    <g id="ytick_4">
     <g id="line2d_7">
      <path clip-path="url(#p273c81502f)" d="M 50.9 177.085552 
L 1141.2 177.085552 
" style="fill:none;stroke:#b0b0b0;stroke-linecap:square;stroke-width:0.8;"/>
     </g>
     <g id="line2d_8">
      <g>
       <use style="stroke:#000000;stroke-width:0.8;" x="50.9" xlink:href="#me843acdf0e" y="177.085552"/>
      </g>
     </g>
     <g id="text_4">
      <!-- -0.5 -->
      <g transform="translate(24.389062 180.88477)scale(0.1 -0.1)">
       <use xlink:href="#DejaVuSans-45"/>
       <use x="36.083984" xlink:href="#DejaVuSans-48"/>
       <use x="99.707031" xlink:href="#DejaVuSans-46"/>
       <use x="131.494141" xlink:href="#DejaVuSans-53"/>
      </g>
     </g>
    </g>
    <g id="ytick_5">
     <g id="line2d_9">
      <path clip-path="url(#p273c81502f)" d="M 50.9 125.995351 
L 1141.2 125.995351 
" style="fill:none;stroke:#b0b0b0;stroke-linecap:square;stroke-width:0.8;"/>
     </g>
     <g id="line2d_10">
      <g>
       <use style="stroke:#000000;stroke-width:0.8;" x="50.9" xlink:href="#me843acdf0e" y="125.995351"/>
      </g>
     </g>
     <g id="text_5">
      <!-- 0.0 -->
      <g transform="translate(27.996875 129.79457)scale(0.1 -0.1)">
       <use xlink:href="#DejaVuSans-48"/>
       <use x="63.623047" xlink:href="#DejaVuSans-46"/>
       <use x="95.410156" xlink:href="#DejaVuSans-48"/>
      </g>
     </g>
    </g>
    <g id="ytick_6">
     <g id="line2d_11">
      <path clip-path="url(#p273c81502f)" d="M 50.9 74.90515 
L 1141.2 74.90515 
" style="fill:none;stroke:#b0b0b0;stroke-linecap:square;stroke-width:0.8;"/>
     </g>
     <g id="line2d_12">
      <g>
       <use style="stroke:#000000;stroke-width:0.8;" x="50.9" xlink:href="#me843acdf0e" y="74.90515"/>
      </g>
     </g>
     <g id="text_6">
      <!-- 0.5 -->
      <g transform="translate(27.996875 78.704369)scale(0.1 -0.1)">
       <use xlink:href="#DejaVuSans-48"/>
       <use x="63.623047" xlink:href="#DejaVuSans-46"/>
       <use x="95.410156" xlink:href="#DejaVuSans-53"/>
      </g>
     </g>
    </g>
    <g id="text_7">
     <!-- log return cumsum -->
     <g transform="translate(18.309375 233.327969)rotate(-90)scale(0.1 -0.1)">
      <defs>
       <path d="M 9.421875 75.984375 
L 18.40625 75.984375 
L 18.40625 0 
L 9.421875 0 
z
" id="DejaVuSans-108"/>
       <path d="M 30.609375 48.390625 
Q 23.390625 48.390625 19.1875 42.75 
Q 14.984375 37.109375 14.984375 27.296875 
Q 14.984375 17.484375 19.15625 11.84375 
Q 23.34375 6.203125 30.609375 6.203125 
Q 37.796875 6.203125 41.984375 11.859375 
Q 46.1875 17.53125 46.1875 27.296875 
Q 46.1875 37.015625 41.984375 42.703125 
Q 37.796875 48.390625 30.609375 48.390625 
z
M 30.609375 56 
Q 42.328125 56 49.015625 48.375 
Q 55.71875 40.765625 55.71875 27.296875 
Q 55.71875 13.875 49.015625 6.21875 
Q 42.328125 -1.421875 30.609375 -1.421875 
Q 18.84375 -1.421875 12.171875 6.21875 
Q 5.515625 13.875 5.515625 27.296875 
Q 5.515625 40.765625 12.171875 48.375 
Q 18.84375 56 30.609375 56 
z
" id="DejaVuSans-111"/>
       <path d="M 45.40625 27.984375 
Q 45.40625 37.75 41.375 43.109375 
Q 37.359375 48.484375 30.078125 48.484375 
Q 22.859375 48.484375 18.828125 43.109375 
Q 14.796875 37.75 14.796875 27.984375 
Q 14.796875 18.265625 18.828125 12.890625 
Q 22.859375 7.515625 30.078125 7.515625 
Q 37.359375 7.515625 41.375 12.890625 
Q 45.40625 18.265625 45.40625 27.984375 
z
M 54.390625 6.78125 
Q 54.390625 -7.171875 48.1875 -13.984375 
Q 42 -20.796875 29.203125 -20.796875 
Q 24.46875 -20.796875 20.265625 -20.09375 
Q 16.0625 -19.390625 12.109375 -17.921875 
L 12.109375 -9.1875 
Q 16.0625 -11.328125 19.921875 -12.34375 
Q 23.78125 -13.375 27.78125 -13.375 
Q 36.625 -13.375 41.015625 -8.765625 
Q 45.40625 -4.15625 45.40625 5.171875 
L 45.40625 9.625 
Q 42.625 4.78125 38.28125 2.390625 
Q 33.9375 0 27.875 0 
Q 17.828125 0 11.671875 7.65625 
Q 5.515625 15.328125 5.515625 27.984375 
Q 5.515625 40.671875 11.671875 48.328125 
Q 17.828125 56 27.875 56 
Q 33.9375 56 38.28125 53.609375 
Q 42.625 51.21875 45.40625 46.390625 
L 45.40625 54.6875 
L 54.390625 54.6875 
z
" id="DejaVuSans-103"/>
       <path id="DejaVuSans-32"/>
       <path d="M 41.109375 46.296875 
Q 39.59375 47.171875 37.8125 47.578125 
Q 36.03125 48 33.890625 48 
Q 26.265625 48 22.1875 43.046875 
Q 18.109375 38.09375 18.109375 28.8125 
L 18.109375 0 
L 9.078125 0 
L 9.078125 54.6875 
L 18.109375 54.6875 
L 18.109375 46.1875 
Q 20.953125 51.171875 25.484375 53.578125 
Q 30.03125 56 36.53125 56 
Q 37.453125 56 38.578125 55.875 
Q 39.703125 55.765625 41.0625 55.515625 
z
" id="DejaVuSans-114"/>
       <path d="M 56.203125 29.59375 
L 56.203125 25.203125 
L 14.890625 25.203125 
Q 15.484375 15.921875 20.484375 11.0625 
Q 25.484375 6.203125 34.421875 6.203125 
Q 39.59375 6.203125 44.453125 7.46875 
Q 49.3125 8.734375 54.109375 11.28125 
L 54.109375 2.78125 
Q 49.265625 0.734375 44.1875 -0.34375 
Q 39.109375 -1.421875 33.890625 -1.421875 
Q 20.796875 -1.421875 13.15625 6.1875 
Q 5.515625 13.8125 5.515625 26.8125 
Q 5.515625 40.234375 12.765625 48.109375 
Q 20.015625 56 32.328125 56 
Q 43.359375 56 49.78125 48.890625 
Q 56.203125 41.796875 56.203125 29.59375 
z
M 47.21875 32.234375 
Q 47.125 39.59375 43.09375 43.984375 
Q 39.0625 48.390625 32.421875 48.390625 
Q 24.90625 48.390625 20.390625 44.140625 
Q 15.875 39.890625 15.1875 32.171875 
z
" id="DejaVuSans-101"/>
       <path d="M 18.3125 70.21875 
L 18.3125 54.6875 
L 36.8125 54.6875 
L 36.8125 47.703125 
L 18.3125 47.703125 
L 18.3125 18.015625 
Q 18.3125 11.328125 20.140625 9.421875 
Q 21.96875 7.515625 27.59375 7.515625 
L 36.8125 7.515625 
L 36.8125 0 
L 27.59375 0 
Q 17.1875 0 13.234375 3.875 
Q 9.28125 7.765625 9.28125 18.015625 
L 9.28125 47.703125 
L 2.6875 47.703125 
L 2.6875 54.6875 
L 9.28125 54.6875 
L 9.28125 70.21875 
z
" id="DejaVuSans-116"/>
       <path d="M 8.5 21.578125 
L 8.5 54.6875 
L 17.484375 54.6875 
L 17.484375 21.921875 
Q 17.484375 14.15625 20.5 10.265625 
Q 23.53125 6.390625 29.59375 6.390625 
Q 36.859375 6.390625 41.078125 11.03125 
Q 45.3125 15.671875 45.3125 23.6875 
L 45.3125 54.6875 
L 54.296875 54.6875 
L 54.296875 0 
L 45.3125 0 
L 45.3125 8.40625 
Q 42.046875 3.421875 37.71875 1 
Q 33.40625 -1.421875 27.6875 -1.421875 
Q 18.265625 -1.421875 13.375 4.4375 
Q 8.5 10.296875 8.5 21.578125 
z
M 31.109375 56 
z
" id="DejaVuSans-117"/>
       <path d="M 54.890625 33.015625 
L 54.890625 0 
L 45.90625 0 
L 45.90625 32.71875 
Q 45.90625 40.484375 42.875 44.328125 
Q 39.84375 48.1875 33.796875 48.1875 
Q 26.515625 48.1875 22.3125 43.546875 
Q 18.109375 38.921875 18.109375 30.90625 
L 18.109375 0 
L 9.078125 0 
L 9.078125 54.6875 
L 18.109375 54.6875 
L 18.109375 46.1875 
Q 21.34375 51.125 25.703125 53.5625 
Q 30.078125 56 35.796875 56 
Q 45.21875 56 50.046875 50.171875 
Q 54.890625 44.34375 54.890625 33.015625 
z
" id="DejaVuSans-110"/>
       <path d="M 48.78125 52.59375 
L 48.78125 44.1875 
Q 44.96875 46.296875 41.140625 47.34375 
Q 37.3125 48.390625 33.40625 48.390625 
Q 24.65625 48.390625 19.8125 42.84375 
Q 14.984375 37.3125 14.984375 27.296875 
Q 14.984375 17.28125 19.8125 11.734375 
Q 24.65625 6.203125 33.40625 6.203125 
Q 37.3125 6.203125 41.140625 7.25 
Q 44.96875 8.296875 48.78125 10.40625 
L 48.78125 2.09375 
Q 45.015625 0.34375 40.984375 -0.53125 
Q 36.96875 -1.421875 32.421875 -1.421875 
Q 20.0625 -1.421875 12.78125 6.34375 
Q 5.515625 14.109375 5.515625 27.296875 
Q 5.515625 40.671875 12.859375 48.328125 
Q 20.21875 56 33.015625 56 
Q 37.15625 56 41.109375 55.140625 
Q 45.0625 54.296875 48.78125 52.59375 
z
" id="DejaVuSans-99"/>
       <path d="M 52 44.1875 
Q 55.375 50.25 60.0625 53.125 
Q 64.75 56 71.09375 56 
Q 79.640625 56 84.28125 50.015625 
Q 88.921875 44.046875 88.921875 33.015625 
L 88.921875 0 
L 79.890625 0 
L 79.890625 32.71875 
Q 79.890625 40.578125 77.09375 44.375 
Q 74.3125 48.1875 68.609375 48.1875 
Q 61.625 48.1875 57.5625 43.546875 
Q 53.515625 38.921875 53.515625 30.90625 
L 53.515625 0 
L 44.484375 0 
L 44.484375 32.71875 
Q 44.484375 40.625 41.703125 44.40625 
Q 38.921875 48.1875 33.109375 48.1875 
Q 26.21875 48.1875 22.15625 43.53125 
Q 18.109375 38.875 18.109375 30.90625 
L 18.109375 0 
L 9.078125 0 
L 9.078125 54.6875 
L 18.109375 54.6875 
L 18.109375 46.1875 
Q 21.1875 51.21875 25.484375 53.609375 
Q 29.78125 56 35.6875 56 
Q 41.65625 56 45.828125 52.96875 
Q 50 49.953125 52 44.1875 
z
" id="DejaVuSans-109"/>
       <path d="M 44.28125 53.078125 
L 44.28125 44.578125 
Q 40.484375 46.53125 36.375 47.5 
Q 32.28125 48.484375 27.875 48.484375 
Q 21.1875 48.484375 17.84375 46.4375 
Q 14.5 44.390625 14.5 40.28125 
Q 14.5 37.15625 16.890625 35.375 
Q 19.28125 33.59375 26.515625 31.984375 
L 29.59375 31.296875 
Q 39.15625 29.25 43.1875 25.515625 
Q 47.21875 21.78125 47.21875 15.09375 
Q 47.21875 7.46875 41.1875 3.015625 
Q 35.15625 -1.421875 24.609375 -1.421875 
Q 20.21875 -1.421875 15.453125 -0.5625 
Q 10.6875 0.296875 5.421875 2 
L 5.421875 11.28125 
Q 10.40625 8.6875 15.234375 7.390625 
Q 20.0625 6.109375 24.8125 6.109375 
Q 31.15625 6.109375 34.5625 8.28125 
Q 37.984375 10.453125 37.984375 14.40625 
Q 37.984375 18.0625 35.515625 20.015625 
Q 33.0625 21.96875 24.703125 23.78125 
L 21.578125 24.515625 
Q 13.234375 26.265625 9.515625 29.90625 
Q 5.8125 33.546875 5.8125 39.890625 
Q 5.8125 47.609375 11.28125 51.796875 
Q 16.75 56 26.8125 56 
Q 31.78125 56 36.171875 55.265625 
Q 40.578125 54.546875 44.28125 53.078125 
z
" id="DejaVuSans-115"/>
      </defs>
      <use xlink:href="#DejaVuSans-108"/>
      <use x="27.783203" xlink:href="#DejaVuSans-111"/>
      <use x="88.964844" xlink:href="#DejaVuSans-103"/>
      <use x="152.441406" xlink:href="#DejaVuSans-32"/>
      <use x="184.228516" xlink:href="#DejaVuSans-114"/>
      <use x="223.091797" xlink:href="#DejaVuSans-101"/>
      <use x="284.615234" xlink:href="#DejaVuSans-116"/>
      <use x="323.824219" xlink:href="#DejaVuSans-117"/>
      <use x="387.203125" xlink:href="#DejaVuSans-114"/>
      <use x="426.566406" xlink:href="#DejaVuSans-110"/>
      <use x="489.945312" xlink:href="#DejaVuSans-32"/>
      <use x="521.732422" xlink:href="#DejaVuSans-99"/>
      <use x="576.712891" xlink:href="#DejaVuSans-117"/>
      <use x="640.091797" xlink:href="#DejaVuSans-109"/>
      <use x="737.503906" xlink:href="#DejaVuSans-115"/>
      <use x="789.603516" xlink:href="#DejaVuSans-117"/>
      <use x="852.982422" xlink:href="#DejaVuSans-109"/>
     </g>
    </g>
   </g>
   <g id="line2d_13">
    <path clip-path="url(#p273c81502f)" d="M 100.459091 119.543106 
L 104.455792 121.583361 
L 108.452493 122.105449 
L 112.449194 126.179797 
L 124.439296 125.45817 
L 128.435997 116.735435 
L 132.432698 115.910243 
L 136.429399 123.11531 
L 140.4261 129.833085 
L 152.416202 133.306003 
L 156.412903 131.850751 
L 160.409604 131.686638 
L 164.406305 135.957064 
L 168.403006 136.520041 
L 180.393109 134.685454 
L 184.389809 134.995845 
L 188.38651 127.924548 
L 192.383211 125.212259 
L 196.379912 127.498535 
L 208.370015 134.005992 
L 212.366716 132.568091 
L 216.363416 130.415291 
L 220.360117 131.386637 
L 224.356818 132.676369 
L 236.346921 131.253513 
L 240.343622 125.887019 
L 244.340323 128.002253 
L 248.337023 129.346766 
L 252.333724 123.106515 
L 264.323827 125.077946 
L 268.320528 122.849997 
L 272.317229 124.032752 
L 276.31393 121.024153 
L 280.31063 124.054003 
L 292.300733 120.264445 
L 296.297434 125.158306 
L 300.294135 134.635697 
L 304.290836 135.836244 
L 308.287537 142.659995 
L 320.277639 143.393165 
L 324.27434 138.533665 
L 328.271041 145.340684 
L 332.267742 139.22622 
L 336.264443 138.691104 
L 348.254545 133.395726 
L 352.251246 131.899296 
L 356.247947 131.67861 
L 360.244648 139.923543 
L 364.241349 145.272784 
L 376.231452 145.41661 
L 380.228152 139.38149 
L 384.224853 143.001527 
L 388.221554 134.647577 
L 392.218255 135.453307 
L 404.208358 131.046277 
L 408.205059 134.107568 
L 412.20176 136.962892 
L 416.19846 140.662322 
L 420.195161 134.593503 
L 432.185264 140.159455 
L 436.181965 143.238521 
L 440.178666 139.168264 
L 444.175367 140.305378 
L 448.172067 132.368887 
L 460.16217 126.934261 
L 464.158871 124.415738 
L 468.155572 119.281483 
L 472.152273 118.843621 
L 476.148974 112.112467 
L 488.139076 104.566674 
L 492.135777 102.332785 
L 496.132478 98.121524 
L 500.129179 103.360323 
L 504.12588 109.664066 
L 516.115982 114.577479 
L 520.112683 107.601676 
L 524.109384 99.3226 
L 528.106085 102.540379 
L 532.102786 106.278363 
L 544.092889 105.880397 
L 548.089589 104.103121 
L 552.08629 99.461182 
L 556.082991 100.172999 
L 560.079692 105.197173 
L 572.069795 109.325566 
L 576.066496 117.806435 
L 580.063196 113.516729 
L 584.059897 110.228315 
L 588.056598 107.817466 
L 600.046701 114.618068 
L 604.043402 119.34769 
L 608.040103 125.625814 
L 612.036804 126.276876 
L 616.033504 132.949232 
L 628.023607 126.127873 
L 632.020308 126.272716 
L 640.01371 125.580902 
L 644.010411 122.211789 
L 656.000513 124.125672 
L 659.997214 122.821173 
L 663.993915 130.546737 
L 667.990616 128.112809 
L 671.987317 123.356521 
L 683.977419 121.573707 
L 687.97412 118.84431 
L 691.970821 124.475047 
L 695.967522 120.627455 
L 699.964223 113.196794 
L 711.954326 108.240278 
L 715.951026 112.821276 
L 719.947727 117.687746 
L 723.944428 120.921959 
L 727.941129 119.70176 
L 739.931232 114.56448 
L 743.927933 117.291879 
L 747.924633 120.207825 
L 751.921334 119.062199 
L 755.918035 116.039856 
L 767.908138 117.337132 
L 771.904839 126.370791 
L 775.90154 131.743958 
L 779.89824 135.776133 
L 783.894941 132.517521 
L 795.885044 123.810524 
L 799.881745 127.724189 
L 803.878446 134.575519 
L 807.875147 134.109482 
L 811.871848 131.009764 
L 823.86195 138.87976 
L 827.858651 133.336227 
L 831.855352 131.227652 
L 835.852053 128.75071 
L 839.848754 120.416323 
L 851.838856 116.984095 
L 855.835557 113.49099 
L 859.832258 107.061082 
L 863.828959 101.260825 
L 867.82566 99.394081 
L 879.815762 101.349444 
L 883.812463 101.601414 
L 891.805865 104.503179 
L 895.802566 108.046157 
L 907.792669 109.221905 
L 911.78937 107.625096 
L 915.78607 108.542834 
L 919.782771 116.349591 
L 923.779472 117.277573 
L 935.769575 116.341261 
L 939.766276 113.659747 
L 943.762977 119.796505 
L 947.759677 113.688442 
L 951.756378 116.318259 
L 963.746481 110.224932 
L 967.743182 108.004034 
L 971.739883 110.625807 
L 975.736584 106.376549 
L 979.733284 111.182212 
L 991.723387 105.431581 
L 995.720088 110.815726 
L 999.716789 112.758529 
L 1003.71349 111.20214 
L 1007.710191 115.273008 
L 1019.700293 120.245101 
L 1023.696994 120.549047 
L 1027.693695 126.343358 
L 1031.690396 121.068643 
L 1035.687097 118.298431 
L 1047.677199 120.295244 
L 1051.6739 122.305745 
L 1055.670601 127.983492 
L 1059.667302 125.948583 
L 1075.654106 115.680906 
L 1079.650806 121.5081 
L 1087.644208 119.410213 
L 1091.640909 119.410213 
L 1091.640909 119.410213 
" style="fill:none;stroke:#9467bd;stroke-linecap:square;stroke-width:1.5;"/>
   </g>
   <g id="line2d_14">
    <path clip-path="url(#p273c81502f)" d="M 100.459091 124.7852 
L 104.455792 127.610702 
L 108.452493 131.337186 
L 112.449194 124.467272 
L 124.439296 133.956372 
L 128.435997 131.965995 
L 132.432698 127.260314 
L 136.429399 127.971592 
L 140.4261 127.004576 
L 152.416202 135.218901 
L 156.412903 143.86506 
L 160.409604 145.2162 
L 164.406305 149.078189 
L 168.403006 155.025059 
L 180.393109 150.417908 
L 184.389809 149.869971 
L 188.38651 145.914753 
L 192.383211 149.241394 
L 196.379912 148.957482 
L 208.370015 151.712656 
L 212.366716 151.243067 
L 216.363416 150.017255 
L 220.360117 141.440553 
L 224.356818 135.413636 
L 236.346921 134.521233 
L 240.343622 129.649822 
L 244.340323 123.995537 
L 248.337023 126.992101 
L 252.333724 130.395856 
L 264.323827 125.113717 
L 268.320528 130.758323 
L 272.317229 124.792674 
L 276.31393 126.319867 
L 280.31063 121.395358 
L 292.300733 113.597873 
L 296.297434 110.153523 
L 300.294135 110.300994 
L 304.290836 106.090811 
L 308.287537 107.544419 
L 320.277639 110.229455 
L 324.27434 107.983597 
L 328.271041 102.35401 
L 332.267742 102.864088 
L 336.264443 107.990128 
L 348.254545 106.742135 
L 352.251246 109.528642 
L 356.247947 103.8911 
L 360.244648 105.030291 
L 364.241349 113.953499 
L 376.231452 118.588239 
L 380.228152 112.347232 
L 384.224853 114.742678 
L 388.221554 114.282654 
L 392.218255 113.554864 
L 404.208358 104.639936 
L 408.205059 103.781717 
L 412.20176 107.946321 
L 416.19846 106.785762 
L 420.195161 100.706711 
L 432.185264 107.078445 
L 436.181965 105.556759 
L 440.178666 101.921992 
L 444.175367 95.772205 
L 448.172067 96.675447 
L 460.16217 94.729312 
L 464.158871 95.937837 
L 468.155572 95.544631 
L 472.152273 92.388746 
L 476.148974 91.151799 
L 488.139076 91.452714 
L 492.135777 85.760981 
L 496.132478 83.456425 
L 500.129179 84.238948 
L 504.12588 86.346778 
L 516.115982 88.781411 
L 520.112683 92.237221 
L 524.109384 89.15829 
L 528.106085 93.737771 
L 532.102786 89.455626 
L 544.092889 91.760007 
L 548.089589 90.470883 
L 552.08629 88.506081 
L 556.082991 85.711565 
L 560.079692 87.727535 
L 572.069795 97.894829 
L 576.066496 102.664295 
L 580.063196 111.283772 
L 584.059897 112.995983 
L 588.056598 115.637277 
L 600.046701 117.099028 
L 604.043402 107.850815 
L 608.040103 98.999272 
L 612.036804 104.332048 
L 616.033504 109.168315 
L 628.023607 109.16774 
L 632.020308 110.360373 
L 636.017009 106.671854 
L 640.01371 107.602331 
L 644.010411 103.06272 
L 656.000513 99.211334 
L 659.997214 93.658009 
L 663.993915 102.510741 
L 667.990616 107.537551 
L 671.987317 102.996223 
L 683.977419 99.004664 
L 687.97412 103.474645 
L 691.970821 103.511133 
L 695.967522 102.985214 
L 699.964223 102.772212 
L 715.951026 102.739768 
L 719.947727 104.913104 
L 723.944428 102.533321 
L 727.941129 102.124755 
L 739.931232 98.021449 
L 743.927933 98.299584 
L 747.924633 104.857079 
L 751.921334 101.350002 
L 755.918035 102.077089 
L 767.908138 110.006626 
L 771.904839 112.143381 
L 775.90154 106.657361 
L 779.89824 109.221341 
L 783.894941 103.42459 
L 795.885044 99.924404 
L 799.881745 97.679659 
L 803.878446 95.270586 
L 807.875147 105.197988 
L 811.871848 98.440378 
L 823.86195 101.378465 
L 827.858651 98.634293 
L 831.855352 93.408813 
L 835.852053 97.030594 
L 839.848754 89.466161 
L 851.838856 92.578214 
L 855.835557 95.332504 
L 859.832258 88.847244 
L 863.828959 81.946898 
L 867.82566 82.455283 
L 879.815762 82.51874 
L 883.812463 75.827354 
L 887.809164 73.461718 
L 891.805865 72.689947 
L 895.802566 69.834922 
L 907.792669 73.902642 
L 911.78937 70.883715 
L 915.78607 72.675728 
L 919.782771 68.473234 
L 923.779472 64.48836 
L 935.769575 65.11871 
L 939.766276 68.610866 
L 943.762977 77.410919 
L 947.759677 76.525658 
L 951.756378 75.84684 
L 963.746481 71.218491 
L 967.743182 71.56134 
L 971.739883 77.760846 
L 975.736584 75.789551 
L 979.733284 74.206501 
L 991.723387 68.283124 
L 995.720088 63.950391 
L 999.716789 69.146981 
L 1003.71349 66.494747 
L 1007.710191 73.723683 
L 1019.700293 75.201906 
L 1023.696994 77.683596 
L 1027.693695 80.325237 
L 1031.690396 77.555311 
L 1035.687097 73.489767 
L 1047.677199 79.329112 
L 1051.6739 79.456912 
L 1055.670601 80.418748 
L 1059.667302 79.931786 
L 1063.664003 78.671473 
L 1075.654106 81.477697 
L 1079.650806 83.852626 
L 1083.647507 82.211266 
L 1087.644208 78.999217 
L 1091.640909 78.999217 
L 1091.640909 78.999217 
" style="fill:none;stroke:#1f77b4;stroke-linecap:square;stroke-width:1.5;"/>
   </g>
   <g id="line2d_15">
    <path clip-path="url(#p273c81502f)" d="M 100.459091 130.333917 
L 104.455792 133.102118 
L 108.452493 134.003842 
L 112.449194 128.3361 
L 124.439296 134.665646 
L 128.435997 134.375163 
L 132.432698 132.503813 
L 136.429399 142.220261 
L 140.4261 140.045768 
L 152.416202 147.01106 
L 156.412903 156.310304 
L 160.409604 147.525529 
L 164.406305 138.427197 
L 168.403006 132.311489 
L 180.393109 136.384528 
L 184.389809 144.956217 
L 188.38651 141.258922 
L 192.383211 142.489349 
L 196.379912 150.520946 
L 208.370015 150.619559 
L 212.366716 160.607455 
L 216.363416 152.567334 
L 220.360117 157.619806 
L 224.356818 154.351324 
L 236.346921 158.273535 
L 240.343622 157.864244 
L 244.340323 156.9141 
L 248.337023 163.566357 
L 252.333724 154.394158 
L 264.323827 148.920768 
L 268.320528 140.312167 
L 272.317229 132.546183 
L 276.31393 130.564825 
L 280.31063 122.287841 
L 292.300733 131.063745 
L 296.297434 137.47357 
L 300.294135 147.217512 
L 304.290836 150.850916 
L 308.287537 153.151624 
L 320.277639 157.934569 
L 324.27434 151.428085 
L 328.271041 154.398239 
L 332.267742 158.976113 
L 336.264443 158.107277 
L 348.254545 165.722208 
L 352.251246 159.72592 
L 356.247947 168.812765 
L 360.244648 159.317842 
L 364.241349 153.900409 
L 376.231452 160.250788 
L 380.228152 170.891256 
L 384.224853 164.639663 
L 388.221554 160.497417 
L 392.218255 155.921419 
L 404.208358 150.522874 
L 408.205059 159.621022 
L 412.20176 162.555155 
L 416.19846 170.723226 
L 420.195161 163.55988 
L 432.185264 161.070716 
L 436.181965 164.586287 
L 440.178666 173.91896 
L 444.175367 177.856648 
L 448.172067 181.493165 
L 460.16217 176.905463 
L 464.158871 174.132302 
L 468.155572 166.510643 
L 472.152273 167.080045 
L 476.148974 175.165686 
L 488.139076 170.898167 
L 492.135777 165.703075 
L 496.132478 164.458421 
L 500.129179 159.065752 
L 504.12588 159.192625 
L 516.115982 158.729108 
L 520.112683 160.22072 
L 524.109384 170.410938 
L 528.106085 178.755761 
L 532.102786 188.810366 
L 544.092889 186.060022 
L 548.089589 189.926081 
L 552.08629 189.75108 
L 556.082991 181.744095 
L 560.079692 187.000491 
L 572.069795 188.848524 
L 576.066496 183.755141 
L 580.063196 189.453418 
L 584.059897 198.486017 
L 588.056598 202.875624 
L 600.046701 210.044644 
L 604.043402 201.620326 
L 608.040103 195.50995 
L 612.036804 192.819435 
L 616.033504 185.496988 
L 628.023607 179.472277 
L 632.020308 186.087122 
L 636.017009 178.36411 
L 640.01371 177.563256 
L 644.010411 171.465975 
L 656.000513 163.676053 
L 659.997214 167.464727 
L 663.993915 175.761652 
L 667.990616 181.478579 
L 671.987317 182.979175 
L 683.977419 176.678511 
L 687.97412 169.560384 
L 691.970821 180.168425 
L 695.967522 179.949028 
L 699.964223 181.650918 
L 711.954326 187.493863 
L 715.951026 195.573508 
L 719.947727 198.947101 
L 723.944428 190.274449 
L 727.941129 193.952913 
L 739.931232 193.569626 
L 743.927933 189.502732 
L 747.924633 192.328319 
L 755.918035 174.076299 
L 767.908138 179.279136 
L 771.904839 179.335381 
L 775.90154 183.487893 
L 779.89824 187.982321 
L 783.894941 197.913932 
L 795.885044 195.699046 
L 799.881745 195.644312 
L 803.878446 205.247812 
L 807.875147 209.874599 
L 811.871848 201.854399 
L 823.86195 207.320357 
L 827.858651 214.847902 
L 831.855352 215.063674 
L 835.852053 205.59178 
L 839.848754 211.003997 
L 851.838856 207.545419 
L 855.835557 202.334119 
L 859.832258 207.841572 
L 863.828959 203.281029 
L 867.82566 206.019391 
L 879.815762 203.350733 
L 883.812463 200.657711 
L 887.809164 199.929219 
L 891.805865 208.665108 
L 895.802566 202.032816 
L 907.792669 205.762622 
L 911.78937 212.378591 
L 915.78607 222.222669 
L 919.782771 220.381855 
L 923.779472 216.816083 
L 935.769575 227.205899 
L 939.766276 226.959063 
L 943.762977 232.707102 
L 947.759677 229.782593 
L 951.756378 236.663859 
L 963.746481 232.8345 
L 967.743182 235.175806 
L 971.739883 226.619233 
L 975.736584 234.309122 
L 979.733284 237.609845 
L 991.723387 245.83096 
L 995.720088 237.500855 
L 999.716789 230.066638 
L 1003.71349 235.137113 
L 1007.710191 231.918882 
L 1019.700293 225.633448 
L 1023.696994 224.511541 
L 1027.693695 223.907389 
L 1031.690396 229.32398 
L 1035.687097 237.99727 
L 1047.677199 230.186058 
L 1051.6739 222.314238 
L 1055.670601 219.62974 
L 1059.667302 222.973458 
L 1063.664003 226.102446 
L 1075.654106 221.586095 
L 1083.647507 206.157617 
L 1087.644208 200.592401 
L 1087.644208 200.592401 
" style="fill:none;stroke:#8c564b;stroke-linecap:square;stroke-width:1.5;"/>
   </g>
   <g id="line2d_16">
    <path clip-path="url(#p273c81502f)" d="M 100.459091 115.631141 
L 104.455792 114.922583 
L 108.452493 114.546276 
L 112.449194 124.873029 
L 124.439296 118.231925 
L 128.435997 109.776633 
L 132.432698 110.842229 
L 136.429399 108.556126 
L 140.4261 117.648422 
L 152.416202 114.382542 
L 156.412903 104.519907 
L 160.409604 113.9513 
L 164.406305 128.658891 
L 168.403006 135.764162 
L 180.393109 130.08109 
L 184.389809 122.460383 
L 188.38651 118.964165 
L 192.383211 115.067753 
L 196.379912 109.745625 
L 208.370015 116.148089 
L 212.366716 105.733948 
L 216.363416 112.118594 
L 220.360117 108.230661 
L 224.356818 112.940502 
L 236.346921 107.791733 
L 240.343622 102.815111 
L 244.340323 105.909564 
L 248.337023 100.928342 
L 252.333724 104.140023 
L 264.323827 112.010686 
L 268.320528 118.971721 
L 272.317229 128.661651 
L 276.31393 127.614398 
L 280.31063 139.935044 
L 292.300733 128.347343 
L 296.297434 126.922915 
L 300.294135 126.68058 
L 304.290836 124.331743 
L 308.287537 128.751872 
L 320.277639 124.883833 
L 324.27434 126.640037 
L 328.271041 130.364951 
L 332.267742 120.118371 
L 336.264443 120.454945 
L 348.254545 108.419344 
L 352.251246 113.197627 
L 356.247947 104.64989 
L 360.244648 124.293863 
L 364.241349 135.680647 
L 376.231452 129.837596 
L 380.228152 114.695057 
L 384.224853 125.22269 
L 388.221554 120.840427 
L 392.218255 126.475566 
L 404.208358 127.521151 
L 408.205059 121.984907 
L 412.20176 121.908328 
L 416.19846 117.77615 
L 420.195161 118.95062 
L 432.185264 127.212621 
L 436.181965 126.790849 
L 440.178666 114.490282 
L 444.175367 111.794196 
L 448.172067 100.604463 
L 460.16217 99.718815 
L 464.158871 99.980468 
L 468.155572 102.663053 
L 472.152273 101.661359 
L 476.148974 87.899349 
L 488.139076 84.483571 
L 492.135777 87.601602 
L 496.132478 84.599166 
L 500.129179 95.839642 
L 504.12588 102.008611 
L 516.115982 107.410646 
L 520.112683 99.06106 
L 524.109384 82.208217 
L 528.106085 77.474078 
L 532.102786 71.733106 
L 544.092889 74.150428 
L 548.089589 68.711145 
L 552.08629 64.236716 
L 556.082991 73.700125 
L 560.079692 73.479534 
L 572.069795 75.718571 
L 576.066496 90.037507 
L 580.063196 80.566947 
L 584.059897 69.232696 
L 588.056598 62.709264 
L 600.046701 62.365766 
L 604.043402 76.733316 
L 608.040103 89.936695 
L 612.036804 93.368942 
L 616.033504 108.484133 
L 628.023607 107.639301 
L 632.020308 101.56306 
L 636.017009 109.537261 
L 640.01371 110.000708 
L 644.010411 112.899027 
L 656.000513 123.412434 
L 659.997214 118.500265 
L 663.993915 117.973349 
L 667.990616 110.24967 
L 671.987317 104.081303 
L 683.977419 108.893373 
L 687.97412 113.606145 
L 691.970821 109.109014 
L 695.967522 105.473157 
L 699.964223 96.485014 
L 711.954326 86.256733 
L 715.951026 83.019911 
L 719.947727 84.463959 
L 723.944428 97.495636 
L 727.941129 92.766242 
L 739.931232 87.994792 
L 743.927933 95.074737 
L 747.924633 95.162631 
L 751.921334 104.025423 
L 755.918035 110.616636 
L 767.908138 106.90148 
L 771.904839 115.87373 
L 775.90154 117.045493 
L 779.89824 116.603089 
L 783.894941 104.565487 
L 795.885044 97.935633 
L 799.881745 101.906201 
L 803.878446 99.397908 
L 807.875147 94.525257 
L 811.871848 99.858174 
L 823.86195 102.135586 
L 827.858651 89.939642 
L 831.855352 87.620144 
L 835.852053 95.320743 
L 839.848754 82.239841 
L 851.838856 82.267097 
L 855.835557 84.075996 
L 859.832258 72.73153 
L 863.828959 71.435589 
L 867.82566 66.949623 
L 879.815762 71.698889 
L 883.812463 74.723706 
L 887.809164 76.977439 
L 891.805865 70.216519 
L 895.802566 81.11181 
L 907.792669 78.648206 
L 911.78937 70.931391 
L 915.78607 62.793131 
L 919.782771 72.624794 
L 923.779472 77.281825 
L 935.769575 66.99752 
L 939.766276 64.557023 
L 943.762977 64.92444 
L 947.759677 61.64992 
L 951.756378 57.670033 
L 963.746481 55.320596 
L 967.743182 50.859517 
L 971.739883 63.0749 
L 975.736584 51.955921 
L 979.733284 53.412681 
L 991.723387 40.455455 
L 995.720088 55.424033 
L 999.716789 65.544905 
L 1003.71349 59.22915 
L 1007.710191 66.760283 
L 1019.700293 78.775672 
L 1023.696994 80.217377 
L 1027.693695 86.655005 
L 1031.690396 76.489139 
L 1035.687097 65.930468 
L 1047.677199 76.559586 
L 1051.6739 87.27625 
L 1055.670601 95.870726 
L 1059.667302 90.660921 
L 1063.664003 85.155666 
L 1075.654106 81.804486 
L 1079.650806 96.606138 
L 1083.647507 103.711948 
L 1087.644208 108.478445 
L 1087.644208 108.478445 
" style="fill:none;stroke:#e377c2;stroke-linecap:square;stroke-width:1.5;"/>
   </g>
   <g id="line2d_17">
    <path clip-path="url(#p273c81502f)" d="M 100.459091 131.612024 
L 104.455792 131.556285 
L 108.452493 128.831351 
L 112.449194 130.117656 
L 124.439296 127.234391 
L 128.435997 128.968007 
L 132.432698 131.937878 
L 136.429399 140.877766 
L 140.4261 139.658877 
L 152.416202 138.505781 
L 156.412903 139.105722 
L 160.409604 129.096641 
L 164.406305 116.588787 
L 168.403006 105.171527 
L 180.393109 114.270402 
L 184.389809 123.441331 
L 188.38651 123.709446 
L 192.383211 121.679716 
L 196.379912 130.019332 
L 208.370015 127.432558 
L 212.366716 137.940777 
L 216.363416 131.046941 
L 220.360117 145.960778 
L 224.356818 148.889233 
L 236.346921 153.747099 
L 240.343622 158.432172 
L 244.340323 163.410585 
L 248.337023 166.958771 
L 252.333724 154.771227 
L 264.323827 154.56984 
L 268.320528 141.034138 
L 272.317229 139.126567 
L 280.31063 132.154008 
L 292.300733 150.164279 
L 296.297434 160.37373 
L 300.294135 169.95569 
L 304.290836 178.142781 
L 308.287537 178.977866 
L 320.277639 181.020819 
L 324.27434 176.667499 
L 328.271041 185.776687 
L 332.267742 189.82382 
L 336.264443 184.114226 
L 348.254545 193.090989 
L 352.251246 184.534851 
L 356.247947 200.161595 
L 360.244648 189.639513 
L 364.241349 176.423908 
L 376.231452 178.062854 
L 380.228152 196.107022 
L 384.224853 187.652279 
L 388.221554 183.953738 
L 392.218255 180.078539 
L 404.208358 183.921598 
L 408.205059 193.966207 
L 412.20176 192.784595 
L 416.19846 202.224861 
L 420.195161 201.074472 
L 432.185264 192.727968 
L 436.181965 197.842725 
L 440.178666 211.312074 
L 444.175367 222.059369 
L 448.172067 224.768267 
L 460.16217 222.076569 
L 464.158871 218.140809 
L 468.155572 210.885452 
L 472.152273 214.729817 
L 476.148974 224.171356 
L 488.139076 219.616062 
L 492.135777 220.141225 
L 496.132478 221.225432 
L 500.129179 215.095966 
L 504.12588 213.155072 
L 516.115982 210.324223 
L 520.112683 208.424741 
L 524.109384 222.128262 
L 528.106085 225.725636 
L 532.102786 240.723237 
L 544.092889 235.778547 
L 548.089589 241.000883 
L 552.08629 242.825744 
L 556.082991 237.472475 
L 560.079692 240.648601 
L 572.069795 233.088876 
L 576.066496 223.655692 
L 580.063196 220.967724 
L 584.059897 228.162081 
L 588.056598 229.865407 
L 600.046701 235.489339 
L 604.043402 236.391628 
L 608.040103 239.384509 
L 612.036804 231.754361 
L 616.033504 220.126946 
L 628.023607 214.102777 
L 632.020308 219.460391 
L 636.017009 215.280593 
L 644.010411 211.936952 
L 656.000513 207.850118 
L 659.997214 217.73995 
L 663.993915 217.230155 
L 667.990616 217.887037 
L 671.987317 224.212218 
L 683.977419 221.812198 
L 687.97412 210.694082 
L 691.970821 221.261658 
L 695.967522 221.569764 
L 699.964223 223.48869 
L 711.954326 229.417166 
L 715.951026 237.444597 
L 719.947727 238.619449 
L 723.944428 232.182875 
L 727.941129 236.286612 
L 739.931232 240.161985 
L 743.927933 235.82852 
L 747.924633 232.324655 
L 751.921334 226.424884 
L 755.918035 216.725081 
L 767.908138 214.199484 
L 771.904839 212.161603 
L 775.90154 222.359176 
L 779.89824 224.241343 
L 783.894941 240.967059 
L 795.885044 242.297443 
L 799.881745 244.536633 
L 803.878446 256.853766 
L 807.875147 252.032521 
L 811.871848 250.684176 
L 823.86195 253.139527 
L 827.858651 263.705802 
L 831.855352 269.440715 
L 835.852053 256.775909 
L 839.848754 270.821329 
L 851.838856 264.441774 
L 855.835557 256.680187 
L 859.832258 269.510131 
L 863.828959 272.015421 
L 867.82566 274.23421 
L 879.815762 271.503768 
L 883.812463 275.77847 
L 887.809164 277.454275 
L 891.805865 287.037507 
L 895.802566 283.155218 
L 907.792669 282.830471 
L 911.78937 292.768787 
L 915.78607 300.675309 
L 919.782771 303.13735 
L 923.779472 303.573154 
L 935.769575 313.26966 
L 939.766276 309.654098 
L 943.762977 306.850509 
L 947.759677 304.793694 
L 951.756378 312.406093 
L 963.746481 313.242258 
L 967.743182 315.233955 
L 971.739883 301.28995 
L 975.736584 311.148706 
L 991.723387 331.164545 
L 995.720088 326.997513 
L 999.716789 314.957552 
L 1003.71349 322.891427 
L 1007.710191 313.124821 
L 1019.700293 305.468596 
L 1023.696994 301.949996 
L 1027.693695 298.785771 
L 1031.690396 307.20677 
L 1035.687097 320.497777 
L 1047.677199 307.559454 
L 1051.6739 299.569452 
L 1055.670601 295.956684 
L 1059.667302 299.806013 
L 1063.664003 304.250989 
L 1075.654106 297.120019 
L 1079.650806 287.158812 
L 1083.647507 281.086929 
L 1087.644208 278.6595 
L 1087.644208 278.6595 
" style="fill:none;stroke:#7f7f7f;stroke-linecap:square;stroke-width:1.5;"/>
   </g>
   <g id="line2d_18">
    <path clip-path="url(#p273c81502f)" d="M 100.459091 120.692398 
L 104.455792 119.928486 
L 108.452493 116.83713 
L 112.449194 128.58794 
L 124.439296 119.242627 
L 128.435997 112.382192 
L 132.432698 116.449253 
L 136.429399 122.896545 
L 140.4261 130.657255 
L 152.416202 126.274354 
L 156.412903 116.956312 
L 160.409604 115.460819 
L 164.406305 115.854077 
L 168.403006 110.767132 
L 184.389809 114.532364 
L 188.38651 111.29523 
L 192.383211 105.444308 
L 196.379912 108.021739 
L 208.370015 111.672392 
L 216.363416 109.761517 
L 220.360117 120.18968 
L 224.356818 127.968214 
L 236.346921 127.43312 
L 240.343622 126.913924 
L 244.340323 135.143773 
L 248.337023 133.539094 
L 252.333724 124.197043 
L 264.323827 131.850211 
L 268.320528 124.385679 
L 272.317229 131.980219 
L 276.31393 127.510264 
L 280.31063 135.873874 
L 292.300733 140.206454 
L 296.297434 148.842947 
L 300.294135 158.158779 
L 304.290836 163.803508 
L 308.287537 169.095797 
L 320.277639 167.194086 
L 324.27434 164.523113 
L 328.271041 177.711557 
L 332.267742 171.11896 
L 336.264443 165.727621 
L 348.254545 161.631484 
L 352.251246 157.461448 
L 356.247947 163.19434 
L 360.244648 170.218531 
L 364.241349 166.938687 
L 376.231452 162.642797 
L 380.228152 162.861665 
L 384.224853 164.057715 
L 388.221554 156.129517 
L 392.218255 157.674081 
L 404.208358 162.603013 
L 408.205059 166.55623 
L 412.20176 165.29892 
L 416.19846 170.21578 
L 420.195161 170.226638 
L 432.185264 169.469389 
L 436.181965 174.140771 
L 440.178666 173.689546 
L 444.175367 181.446066 
L 448.172067 172.680885 
L 460.16217 169.126468 
L 464.158871 165.442463 
L 468.155572 160.683553 
L 472.152273 163.488012 
L 476.148974 157.92868 
L 488.139076 150.104185 
L 492.135777 153.763694 
L 496.132478 151.813909 
L 500.129179 156.235442 
L 504.12588 160.34394 
L 516.115982 162.76366 
L 520.112683 152.662365 
L 524.109384 147.307241 
L 528.106085 146.004842 
L 532.102786 154.382673 
L 544.092889 151.739815 
L 548.089589 151.245481 
L 552.08629 148.517055 
L 556.082991 152.122341 
L 560.079692 155.07092 
L 572.069795 149.588924 
L 576.066496 153.128104 
L 580.063196 141.204681 
L 588.056598 131.358904 
L 600.046701 136.619937 
L 604.043402 152.026695 
L 608.040103 168.642748 
L 612.036804 164.193998 
L 616.033504 165.944477 
L 628.023607 159.123657 
L 632.020308 158.087963 
L 636.017009 161.550491 
L 640.01371 160.290435 
L 644.010411 161.514428 
L 656.000513 167.50777 
L 659.997214 171.999193 
L 663.993915 170.965098 
L 667.990616 163.850335 
L 671.987317 163.625616 
L 683.977419 165.923348 
L 687.97412 159.021953 
L 691.970821 164.614148 
L 695.967522 161.275611 
L 699.964223 154.043412 
L 711.954326 149.163845 
L 715.951026 153.694387 
L 719.947727 156.330107 
L 723.944428 162.080179 
L 727.941129 161.265308 
L 739.931232 160.189189 
L 743.927933 162.631715 
L 747.924633 159.21278 
L 751.921334 161.657682 
L 755.918035 157.93436 
L 767.908138 151.782719 
L 771.904839 158.532075 
L 775.90154 170.025169 
L 779.89824 171.456726 
L 783.894941 174.144983 
L 795.885044 168.761421 
L 799.881745 175.060922 
L 803.878446 184.552831 
L 807.875147 175.07847 
L 811.871848 178.991301 
L 823.86195 183.780089 
L 827.858651 180.905592 
L 831.855352 184.188695 
L 835.852053 178.296349 
L 839.848754 177.467472 
L 851.838856 171.113524 
L 855.835557 165.02743 
L 859.832258 165.08641 
L 863.828959 166.263799 
L 867.82566 163.900323 
L 879.815762 165.791043 
L 883.812463 173.221806 
L 887.809164 177.189031 
L 891.805865 179.3701 
L 895.802566 185.955357 
L 907.792669 183.17473 
L 911.78937 184.639798 
L 915.78607 183.780658 
L 919.782771 196.326359 
L 923.779472 201.439561 
L 935.769575 199.882461 
L 939.766276 193.910277 
L 943.762977 191.464143 
L 947.759677 186.197048 
L 951.756378 189.5281 
L 963.746481 187.995745 
L 967.743182 185.440479 
L 971.739883 182.069926 
L 975.736584 179.748091 
L 979.733284 186.239788 
L 991.723387 186.422854 
L 995.720088 196.582233 
L 999.716789 193.487369 
L 1003.71349 194.612189 
L 1007.710191 191.666745 
L 1019.700293 195.10958 
L 1023.696994 192.98355 
L 1027.693695 196.054539 
L 1031.690396 193.48178 
L 1035.687097 194.830037 
L 1047.677199 191.197192 
L 1051.6739 193.077517 
L 1055.670601 197.748219 
L 1059.667302 196.192934 
L 1063.664003 194.89464 
L 1075.654106 184.634967 
L 1079.650806 188.006594 
L 1083.647507 188.616861 
L 1087.644208 190.841443 
L 1091.640909 190.841443 
L 1091.640909 190.841443 
" style="fill:none;stroke:#bcbd22;stroke-linecap:square;stroke-width:1.5;"/>
   </g>
   <g id="patch_3">
    <path d="M 50.9 345.7 
L 50.9 25.92 
" style="fill:none;stroke:#000000;stroke-linecap:square;stroke-linejoin:miter;stroke-width:0.8;"/>
   </g>
   <g id="patch_4">
    <path d="M 1141.2 345.7 
L 1141.2 25.92 
" style="fill:none;stroke:#000000;stroke-linecap:square;stroke-linejoin:miter;stroke-width:0.8;"/>
   </g>
   <g id="patch_5">
    <path d="M 50.9 345.7 
L 1141.2 345.7 
" style="fill:none;stroke:#000000;stroke-linecap:square;stroke-linejoin:miter;stroke-width:0.8;"/>
   </g>
   <g id="patch_6">
    <path d="M 50.9 25.92 
L 1141.2 25.92 
" style="fill:none;stroke:#000000;stroke-linecap:square;stroke-linejoin:miter;stroke-width:0.8;"/>
   </g>
   <g id="text_8">
    <!-- Cumulative Log Return: (2010-02-02 ~ 2010-10-08) -->
    <g transform="translate(440.172812 19.92)scale(0.12 -0.12)">
     <defs>
      <path d="M 64.40625 67.28125 
L 64.40625 56.890625 
Q 59.421875 61.53125 53.78125 63.8125 
Q 48.140625 66.109375 41.796875 66.109375 
Q 29.296875 66.109375 22.65625 58.46875 
Q 16.015625 50.828125 16.015625 36.375 
Q 16.015625 21.96875 22.65625 14.328125 
Q 29.296875 6.6875 41.796875 6.6875 
Q 48.140625 6.6875 53.78125 8.984375 
Q 59.421875 11.28125 64.40625 15.921875 
L 64.40625 5.609375 
Q 59.234375 2.09375 53.4375 0.328125 
Q 47.65625 -1.421875 41.21875 -1.421875 
Q 24.65625 -1.421875 15.125 8.703125 
Q 5.609375 18.84375 5.609375 36.375 
Q 5.609375 53.953125 15.125 64.078125 
Q 24.65625 74.21875 41.21875 74.21875 
Q 47.75 74.21875 53.53125 72.484375 
Q 59.328125 70.75 64.40625 67.28125 
z
" id="DejaVuSans-67"/>
      <path d="M 34.28125 27.484375 
Q 23.390625 27.484375 19.1875 25 
Q 14.984375 22.515625 14.984375 16.5 
Q 14.984375 11.71875 18.140625 8.90625 
Q 21.296875 6.109375 26.703125 6.109375 
Q 34.1875 6.109375 38.703125 11.40625 
Q 43.21875 16.703125 43.21875 25.484375 
L 43.21875 27.484375 
z
M 52.203125 31.203125 
L 52.203125 0 
L 43.21875 0 
L 43.21875 8.296875 
Q 40.140625 3.328125 35.546875 0.953125 
Q 30.953125 -1.421875 24.3125 -1.421875 
Q 15.921875 -1.421875 10.953125 3.296875 
Q 6 8.015625 6 15.921875 
Q 6 25.140625 12.171875 29.828125 
Q 18.359375 34.515625 30.609375 34.515625 
L 43.21875 34.515625 
L 43.21875 35.40625 
Q 43.21875 41.609375 39.140625 45 
Q 35.0625 48.390625 27.6875 48.390625 
Q 23 48.390625 18.546875 47.265625 
Q 14.109375 46.140625 10.015625 43.890625 
L 10.015625 52.203125 
Q 14.9375 54.109375 19.578125 55.046875 
Q 24.21875 56 28.609375 56 
Q 40.484375 56 46.34375 49.84375 
Q 52.203125 43.703125 52.203125 31.203125 
z
" id="DejaVuSans-97"/>
      <path d="M 9.421875 54.6875 
L 18.40625 54.6875 
L 18.40625 0 
L 9.421875 0 
z
M 9.421875 75.984375 
L 18.40625 75.984375 
L 18.40625 64.59375 
L 9.421875 64.59375 
z
" id="DejaVuSans-105"/>
      <path d="M 2.984375 54.6875 
L 12.5 54.6875 
L 29.59375 8.796875 
L 46.6875 54.6875 
L 56.203125 54.6875 
L 35.6875 0 
L 23.484375 0 
z
" id="DejaVuSans-118"/>
      <path d="M 9.8125 72.90625 
L 19.671875 72.90625 
L 19.671875 8.296875 
L 55.171875 8.296875 
L 55.171875 0 
L 9.8125 0 
z
" id="DejaVuSans-76"/>
      <path d="M 44.390625 34.1875 
Q 47.5625 33.109375 50.5625 29.59375 
Q 53.5625 26.078125 56.59375 19.921875 
L 66.609375 0 
L 56 0 
L 46.6875 18.703125 
Q 43.0625 26.03125 39.671875 28.421875 
Q 36.28125 30.8125 30.421875 30.8125 
L 19.671875 30.8125 
L 19.671875 0 
L 9.8125 0 
L 9.8125 72.90625 
L 32.078125 72.90625 
Q 44.578125 72.90625 50.734375 67.671875 
Q 56.890625 62.453125 56.890625 51.90625 
Q 56.890625 45.015625 53.6875 40.46875 
Q 50.484375 35.9375 44.390625 34.1875 
z
M 19.671875 64.796875 
L 19.671875 38.921875 
L 32.078125 38.921875 
Q 39.203125 38.921875 42.84375 42.21875 
Q 46.484375 45.515625 46.484375 51.90625 
Q 46.484375 58.296875 42.84375 61.546875 
Q 39.203125 64.796875 32.078125 64.796875 
z
" id="DejaVuSans-82"/>
      <path d="M 11.71875 12.40625 
L 22.015625 12.40625 
L 22.015625 0 
L 11.71875 0 
z
M 11.71875 51.703125 
L 22.015625 51.703125 
L 22.015625 39.3125 
L 11.71875 39.3125 
z
" id="DejaVuSans-58"/>
      <path d="M 31 75.875 
Q 24.46875 64.65625 21.28125 53.65625 
Q 18.109375 42.671875 18.109375 31.390625 
Q 18.109375 20.125 21.3125 9.0625 
Q 24.515625 -2 31 -13.1875 
L 23.1875 -13.1875 
Q 15.875 -1.703125 12.234375 9.375 
Q 8.59375 20.453125 8.59375 31.390625 
Q 8.59375 42.28125 12.203125 53.3125 
Q 15.828125 64.359375 23.1875 75.875 
z
" id="DejaVuSans-40"/>
      <path d="M 73.1875 39.890625 
L 73.1875 31.203125 
Q 68.0625 27.34375 63.6875 25.6875 
Q 59.328125 24.03125 54.59375 24.03125 
Q 49.21875 24.03125 42.09375 26.90625 
Q 41.546875 27.09375 41.3125 27.203125 
Q 40.96875 27.34375 40.234375 27.59375 
Q 32.671875 30.609375 28.078125 30.609375 
Q 23.78125 30.609375 19.578125 28.734375 
Q 15.375 26.859375 10.59375 22.796875 
L 10.59375 31.5 
Q 15.71875 35.359375 20.09375 37.03125 
Q 24.46875 38.71875 29.203125 38.71875 
Q 34.578125 38.71875 41.75 35.796875 
Q 42.234375 35.59375 42.484375 35.5 
Q 42.875 35.359375 43.5625 35.109375 
Q 51.125 32.078125 55.71875 32.078125 
Q 59.90625 32.078125 64.03125 33.9375 
Q 68.171875 35.796875 73.1875 39.890625 
z
" id="DejaVuSans-126"/>
      <path d="M 31.78125 34.625 
Q 24.75 34.625 20.71875 30.859375 
Q 16.703125 27.09375 16.703125 20.515625 
Q 16.703125 13.921875 20.71875 10.15625 
Q 24.75 6.390625 31.78125 6.390625 
Q 38.8125 6.390625 42.859375 10.171875 
Q 46.921875 13.96875 46.921875 20.515625 
Q 46.921875 27.09375 42.890625 30.859375 
Q 38.875 34.625 31.78125 34.625 
z
M 21.921875 38.8125 
Q 15.578125 40.375 12.03125 44.71875 
Q 8.5 49.078125 8.5 55.328125 
Q 8.5 64.0625 14.71875 69.140625 
Q 20.953125 74.21875 31.78125 74.21875 
Q 42.671875 74.21875 48.875 69.140625 
Q 55.078125 64.0625 55.078125 55.328125 
Q 55.078125 49.078125 51.53125 44.71875 
Q 48 40.375 41.703125 38.8125 
Q 48.828125 37.15625 52.796875 32.3125 
Q 56.78125 27.484375 56.78125 20.515625 
Q 56.78125 9.90625 50.3125 4.234375 
Q 43.84375 -1.421875 31.78125 -1.421875 
Q 19.734375 -1.421875 13.25 4.234375 
Q 6.78125 9.90625 6.78125 20.515625 
Q 6.78125 27.484375 10.78125 32.3125 
Q 14.796875 37.15625 21.921875 38.8125 
z
M 18.3125 54.390625 
Q 18.3125 48.734375 21.84375 45.5625 
Q 25.390625 42.390625 31.78125 42.390625 
Q 38.140625 42.390625 41.71875 45.5625 
Q 45.3125 48.734375 45.3125 54.390625 
Q 45.3125 60.0625 41.71875 63.234375 
Q 38.140625 66.40625 31.78125 66.40625 
Q 25.390625 66.40625 21.84375 63.234375 
Q 18.3125 60.0625 18.3125 54.390625 
z
" id="DejaVuSans-56"/>
      <path d="M 8.015625 75.875 
L 15.828125 75.875 
Q 23.140625 64.359375 26.78125 53.3125 
Q 30.421875 42.28125 30.421875 31.390625 
Q 30.421875 20.453125 26.78125 9.375 
Q 23.140625 -1.703125 15.828125 -13.1875 
L 8.015625 -13.1875 
Q 14.5 -2 17.703125 9.0625 
Q 20.90625 20.125 20.90625 31.390625 
Q 20.90625 42.671875 17.703125 53.65625 
Q 14.5 64.65625 8.015625 75.875 
z
" id="DejaVuSans-41"/>
     </defs>
     <use xlink:href="#DejaVuSans-67"/>
     <use x="69.824219" xlink:href="#DejaVuSans-117"/>
     <use x="133.203125" xlink:href="#DejaVuSans-109"/>
     <use x="230.615234" xlink:href="#DejaVuSans-117"/>
     <use x="293.994141" xlink:href="#DejaVuSans-108"/>
     <use x="321.777344" xlink:href="#DejaVuSans-97"/>
     <use x="383.056641" xlink:href="#DejaVuSans-116"/>
     <use x="422.265625" xlink:href="#DejaVuSans-105"/>
     <use x="450.048828" xlink:href="#DejaVuSans-118"/>
     <use x="509.228516" xlink:href="#DejaVuSans-101"/>
     <use x="570.751953" xlink:href="#DejaVuSans-32"/>
     <use x="602.539062" xlink:href="#DejaVuSans-76"/>
     <use x="656.501953" xlink:href="#DejaVuSans-111"/>
     <use x="717.683594" xlink:href="#DejaVuSans-103"/>
     <use x="781.160156" xlink:href="#DejaVuSans-32"/>
     <use x="812.947266" xlink:href="#DejaVuSans-82"/>
     <use x="877.929688" xlink:href="#DejaVuSans-101"/>
     <use x="939.453125" xlink:href="#DejaVuSans-116"/>
     <use x="978.662109" xlink:href="#DejaVuSans-117"/>
     <use x="1042.041016" xlink:href="#DejaVuSans-114"/>
     <use x="1081.404297" xlink:href="#DejaVuSans-110"/>
     <use x="1144.783203" xlink:href="#DejaVuSans-58"/>
     <use x="1178.474609" xlink:href="#DejaVuSans-32"/>
     <use x="1210.261719" xlink:href="#DejaVuSans-40"/>
     <use x="1249.275391" xlink:href="#DejaVuSans-50"/>
     <use x="1312.898438" xlink:href="#DejaVuSans-48"/>
     <use x="1376.521484" xlink:href="#DejaVuSans-49"/>
     <use x="1440.144531" xlink:href="#DejaVuSans-48"/>
     <use x="1503.767578" xlink:href="#DejaVuSans-45"/>
     <use x="1539.851562" xlink:href="#DejaVuSans-48"/>
     <use x="1603.474609" xlink:href="#DejaVuSans-50"/>
     <use x="1667.097656" xlink:href="#DejaVuSans-45"/>
     <use x="1703.181641" xlink:href="#DejaVuSans-48"/>
     <use x="1766.804688" xlink:href="#DejaVuSans-50"/>
     <use x="1830.427734" xlink:href="#DejaVuSans-32"/>
     <use x="1862.214844" xlink:href="#DejaVuSans-126"/>
     <use x="1946.003906" xlink:href="#DejaVuSans-32"/>
     <use x="1977.791016" xlink:href="#DejaVuSans-50"/>
     <use x="2041.414062" xlink:href="#DejaVuSans-48"/>
     <use x="2105.037109" xlink:href="#DejaVuSans-49"/>
     <use x="2168.660156" xlink:href="#DejaVuSans-48"/>
     <use x="2232.283203" xlink:href="#DejaVuSans-45"/>
     <use x="2268.367188" xlink:href="#DejaVuSans-49"/>
     <use x="2331.990234" xlink:href="#DejaVuSans-48"/>
     <use x="2395.613281" xlink:href="#DejaVuSans-45"/>
     <use x="2431.697266" xlink:href="#DejaVuSans-48"/>
     <use x="2495.320312" xlink:href="#DejaVuSans-56"/>
     <use x="2558.943359" xlink:href="#DejaVuSans-41"/>
    </g>
   </g>
   <g id="legend_1">
    <g id="patch_7">
     <path d="M 57.9 123.379375 
L 154.389062 123.379375 
Q 156.389062 123.379375 156.389062 121.379375 
L 156.389062 32.92 
Q 156.389062 30.92 154.389062 30.92 
L 57.9 30.92 
Q 55.9 30.92 55.9 32.92 
L 55.9 121.379375 
Q 55.9 123.379375 57.9 123.379375 
z
" style="fill:#ffffff;opacity:0.8;stroke:#cccccc;stroke-linejoin:miter;"/>
    </g>
    <g id="line2d_19">
     <path d="M 59.9 39.018438 
L 79.9 39.018438 
" style="fill:none;stroke:#9467bd;stroke-linecap:square;stroke-width:1.5;"/>
    </g>
    <g id="line2d_20"/>
    <g id="text_9">
     <!-- group_5 -->
     <g transform="translate(87.9 42.518438)scale(0.1 -0.1)">
      <defs>
       <path d="M 18.109375 8.203125 
L 18.109375 -20.796875 
L 9.078125 -20.796875 
L 9.078125 54.6875 
L 18.109375 54.6875 
L 18.109375 46.390625 
Q 20.953125 51.265625 25.265625 53.625 
Q 29.59375 56 35.59375 56 
Q 45.5625 56 51.78125 48.09375 
Q 58.015625 40.1875 58.015625 27.296875 
Q 58.015625 14.40625 51.78125 6.484375 
Q 45.5625 -1.421875 35.59375 -1.421875 
Q 29.59375 -1.421875 25.265625 0.953125 
Q 20.953125 3.328125 18.109375 8.203125 
z
M 48.6875 27.296875 
Q 48.6875 37.203125 44.609375 42.84375 
Q 40.53125 48.484375 33.40625 48.484375 
Q 26.265625 48.484375 22.1875 42.84375 
Q 18.109375 37.203125 18.109375 27.296875 
Q 18.109375 17.390625 22.1875 11.75 
Q 26.265625 6.109375 33.40625 6.109375 
Q 40.53125 6.109375 44.609375 11.75 
Q 48.6875 17.390625 48.6875 27.296875 
z
" id="DejaVuSans-112"/>
       <path d="M 50.984375 -16.609375 
L 50.984375 -23.578125 
L -0.984375 -23.578125 
L -0.984375 -16.609375 
z
" id="DejaVuSans-95"/>
      </defs>
      <use xlink:href="#DejaVuSans-103"/>
      <use x="63.476562" xlink:href="#DejaVuSans-114"/>
      <use x="102.339844" xlink:href="#DejaVuSans-111"/>
      <use x="163.521484" xlink:href="#DejaVuSans-117"/>
      <use x="226.900391" xlink:href="#DejaVuSans-112"/>
      <use x="290.376953" xlink:href="#DejaVuSans-95"/>
      <use x="340.376953" xlink:href="#DejaVuSans-53"/>
     </g>
    </g>
    <g id="line2d_21">
     <path d="M 59.9 53.974688 
L 79.9 53.974688 
" style="fill:none;stroke:#1f77b4;stroke-linecap:square;stroke-width:1.5;"/>
    </g>
    <g id="line2d_22"/>
    <g id="text_10">
     <!-- group_1 -->
     <g transform="translate(87.9 57.474688)scale(0.1 -0.1)">
      <use xlink:href="#DejaVuSans-103"/>
      <use x="63.476562" xlink:href="#DejaVuSans-114"/>
      <use x="102.339844" xlink:href="#DejaVuSans-111"/>
      <use x="163.521484" xlink:href="#DejaVuSans-117"/>
      <use x="226.900391" xlink:href="#DejaVuSans-112"/>
      <use x="290.376953" xlink:href="#DejaVuSans-95"/>
      <use x="340.376953" xlink:href="#DejaVuSans-49"/>
     </g>
    </g>
    <g id="line2d_23">
     <path d="M 59.9 68.930938 
L 79.9 68.930938 
" style="fill:none;stroke:#8c564b;stroke-linecap:square;stroke-width:1.5;"/>
    </g>
    <g id="line2d_24"/>
    <g id="text_11">
     <!-- benchmark -->
     <g transform="translate(87.9 72.430938)scale(0.1 -0.1)">
      <defs>
       <path d="M 48.6875 27.296875 
Q 48.6875 37.203125 44.609375 42.84375 
Q 40.53125 48.484375 33.40625 48.484375 
Q 26.265625 48.484375 22.1875 42.84375 
Q 18.109375 37.203125 18.109375 27.296875 
Q 18.109375 17.390625 22.1875 11.75 
Q 26.265625 6.109375 33.40625 6.109375 
Q 40.53125 6.109375 44.609375 11.75 
Q 48.6875 17.390625 48.6875 27.296875 
z
M 18.109375 46.390625 
Q 20.953125 51.265625 25.265625 53.625 
Q 29.59375 56 35.59375 56 
Q 45.5625 56 51.78125 48.09375 
Q 58.015625 40.1875 58.015625 27.296875 
Q 58.015625 14.40625 51.78125 6.484375 
Q 45.5625 -1.421875 35.59375 -1.421875 
Q 29.59375 -1.421875 25.265625 0.953125 
Q 20.953125 3.328125 18.109375 8.203125 
L 18.109375 0 
L 9.078125 0 
L 9.078125 75.984375 
L 18.109375 75.984375 
z
" id="DejaVuSans-98"/>
       <path d="M 54.890625 33.015625 
L 54.890625 0 
L 45.90625 0 
L 45.90625 32.71875 
Q 45.90625 40.484375 42.875 44.328125 
Q 39.84375 48.1875 33.796875 48.1875 
Q 26.515625 48.1875 22.3125 43.546875 
Q 18.109375 38.921875 18.109375 30.90625 
L 18.109375 0 
L 9.078125 0 
L 9.078125 75.984375 
L 18.109375 75.984375 
L 18.109375 46.1875 
Q 21.34375 51.125 25.703125 53.5625 
Q 30.078125 56 35.796875 56 
Q 45.21875 56 50.046875 50.171875 
Q 54.890625 44.34375 54.890625 33.015625 
z
" id="DejaVuSans-104"/>
       <path d="M 9.078125 75.984375 
L 18.109375 75.984375 
L 18.109375 31.109375 
L 44.921875 54.6875 
L 56.390625 54.6875 
L 27.390625 29.109375 
L 57.625 0 
L 45.90625 0 
L 18.109375 26.703125 
L 18.109375 0 
L 9.078125 0 
z
" id="DejaVuSans-107"/>
      </defs>
      <use xlink:href="#DejaVuSans-98"/>
      <use x="63.476562" xlink:href="#DejaVuSans-101"/>
      <use x="125" xlink:href="#DejaVuSans-110"/>
      <use x="188.378906" xlink:href="#DejaVuSans-99"/>
      <use x="243.359375" xlink:href="#DejaVuSans-104"/>
      <use x="306.738281" xlink:href="#DejaVuSans-109"/>
      <use x="404.150391" xlink:href="#DejaVuSans-97"/>
      <use x="465.429688" xlink:href="#DejaVuSans-114"/>
      <use x="506.542969" xlink:href="#DejaVuSans-107"/>
     </g>
    </g>
    <g id="line2d_25">
     <path d="M 59.9 83.609062 
L 79.9 83.609062 
" style="fill:none;stroke:#e377c2;stroke-linecap:square;stroke-width:1.5;"/>
    </g>
    <g id="line2d_26"/>
    <g id="text_12">
     <!-- long_excess -->
     <g transform="translate(87.9 87.109062)scale(0.1 -0.1)">
      <defs>
       <path d="M 54.890625 54.6875 
L 35.109375 28.078125 
L 55.90625 0 
L 45.3125 0 
L 29.390625 21.484375 
L 13.484375 0 
L 2.875 0 
L 24.125 28.609375 
L 4.6875 54.6875 
L 15.28125 54.6875 
L 29.78125 35.203125 
L 44.28125 54.6875 
z
" id="DejaVuSans-120"/>
      </defs>
      <use xlink:href="#DejaVuSans-108"/>
      <use x="27.783203" xlink:href="#DejaVuSans-111"/>
      <use x="88.964844" xlink:href="#DejaVuSans-110"/>
      <use x="152.34375" xlink:href="#DejaVuSans-103"/>
      <use x="215.820312" xlink:href="#DejaVuSans-95"/>
      <use x="265.820312" xlink:href="#DejaVuSans-101"/>
      <use x="325.59375" xlink:href="#DejaVuSans-120"/>
      <use x="383.023438" xlink:href="#DejaVuSans-99"/>
      <use x="438.003906" xlink:href="#DejaVuSans-101"/>
      <use x="499.527344" xlink:href="#DejaVuSans-115"/>
      <use x="551.626953" xlink:href="#DejaVuSans-115"/>
     </g>
    </g>
    <g id="line2d_27">
     <path d="M 59.9 98.565313 
L 79.9 98.565313 
" style="fill:none;stroke:#7f7f7f;stroke-linecap:square;stroke-width:1.5;"/>
    </g>
    <g id="line2d_28"/>
    <g id="text_13">
     <!-- short_excess -->
     <g transform="translate(87.9 102.065313)scale(0.1 -0.1)">
      <use xlink:href="#DejaVuSans-115"/>
      <use x="52.099609" xlink:href="#DejaVuSans-104"/>
      <use x="115.478516" xlink:href="#DejaVuSans-111"/>
      <use x="176.660156" xlink:href="#DejaVuSans-114"/>
      <use x="217.773438" xlink:href="#DejaVuSans-116"/>
      <use x="256.982422" xlink:href="#DejaVuSans-95"/>
      <use x="306.982422" xlink:href="#DejaVuSans-101"/>
      <use x="366.755859" xlink:href="#DejaVuSans-120"/>
      <use x="424.185547" xlink:href="#DejaVuSans-99"/>
      <use x="479.166016" xlink:href="#DejaVuSans-101"/>
      <use x="540.689453" xlink:href="#DejaVuSans-115"/>
      <use x="592.789062" xlink:href="#DejaVuSans-115"/>
     </g>
    </g>
    <g id="line2d_29">
     <path d="M 59.9 113.521563 
L 79.9 113.521563 
" style="fill:none;stroke:#bcbd22;stroke-linecap:square;stroke-width:1.5;"/>
    </g>
    <g id="line2d_30"/>
    <g id="text_14">
     <!-- long_short -->
     <g transform="translate(87.9 117.021563)scale(0.1 -0.1)">
      <use xlink:href="#DejaVuSans-108"/>
      <use x="27.783203" xlink:href="#DejaVuSans-111"/>
      <use x="88.964844" xlink:href="#DejaVuSans-110"/>
      <use x="152.34375" xlink:href="#DejaVuSans-103"/>
      <use x="215.820312" xlink:href="#DejaVuSans-95"/>
      <use x="265.820312" xlink:href="#DejaVuSans-115"/>
      <use x="317.919922" xlink:href="#DejaVuSans-104"/>
      <use x="381.298828" xlink:href="#DejaVuSans-111"/>
      <use x="442.480469" xlink:href="#DejaVuSans-114"/>
      <use x="483.59375" xlink:href="#DejaVuSans-116"/>
     </g>
    </g>
   </g>
  </g>
 </g>
 <defs>
  <clipPath id="p273c81502f">
   <rect height="319.78" width="1090.3" x="50.9" y="25.92"/>
  </clipPath>
 </defs>
</svg>
