<?xml version="1.0" encoding="utf-8" standalone="no"?>
<!DOCTYPE svg PUBLIC "-//W3C//DTD SVG 1.1//EN"
  "http://www.w3.org/Graphics/SVG/1.1/DTD/svg11.dtd">
<!-- Created with matplotlib (https://matplotlib.org/) -->
<svg height="432pt" version="1.1" viewBox="0 0 1152 432" width="1152pt" xmlns="http://www.w3.org/2000/svg" xmlns:xlink="http://www.w3.org/1999/xlink">
 <metadata>
  <rdf:RDF xmlns:cc="http://creativecommons.org/ns#" xmlns:dc="http://purl.org/dc/elements/1.1/" xmlns:rdf="http://www.w3.org/1999/02/22-rdf-syntax-ns#">
   <cc:Work>
    <dc:type rdf:resource="http://purl.org/dc/dcmitype/StillImage"/>
    <dc:date>2023-10-11T16:58:56.939387</dc:date>
    <dc:format>image/svg+xml</dc:format>
    <dc:creator>
     <cc:Agent>
      <dc:title>Matplotlib v3.3.4, https://matplotlib.org/</dc:title>
     </cc:Agent>
    </dc:creator>
   </cc:Work>
  </rdf:RDF>
 </metadata>
 <defs>
  <style type="text/css">*{stroke-linecap:butt;stroke-linejoin:round;}</style>
 </defs>
 <g id="figure_1">
  <g id="patch_1">
   <path d="M 0 432 
L 1152 432 
L 1152 0 
L 0 0 
z
" style="fill:#ffffff;"/>
  </g>
  <g id="axes_1">
   <g id="patch_2">
    <path d="M 47.36 417.7 
L 1141.2 417.7 
L 1141.2 25.92 
L 47.36 25.92 
z
" style="fill:#ffffff;"/>
   </g>
   <g id="matplotlib.axis_1"/>
   <g id="matplotlib.axis_2">
    <g id="ytick_1">
     <g id="line2d_1">
      <path clip-path="url(#p8e83af6a58)" d="M 47.36 371.284423 
L 1141.2 371.284423 
" style="fill:none;stroke:#b0b0b0;stroke-linecap:square;stroke-width:0.8;"/>
     </g>
     <g id="line2d_2">
      <defs>
       <path d="M 0 0 
L -3.5 0 
" id="md16be02863" style="stroke:#000000;stroke-width:0.8;"/>
      </defs>
      <g>
       <use style="stroke:#000000;stroke-width:0.8;" x="47.36" xlink:href="#md16be02863" y="371.284423"/>
      </g>
     </g>
     <g id="text_1">
      <!-- 0.4 -->
      <g transform="translate(24.456875 375.083642)scale(0.1 -0.1)">
       <defs>
        <path d="M 31.78125 66.40625 
Q 24.171875 66.40625 20.328125 58.90625 
Q 16.5 51.421875 16.5 36.375 
Q 16.5 21.390625 20.328125 13.890625 
Q 24.171875 6.390625 31.78125 6.390625 
Q 39.453125 6.390625 43.28125 13.890625 
Q 47.125 21.390625 47.125 36.375 
Q 47.125 51.421875 43.28125 58.90625 
Q 39.453125 66.40625 31.78125 66.40625 
z
M 31.78125 74.21875 
Q 44.046875 74.21875 50.515625 64.515625 
Q 56.984375 54.828125 56.984375 36.375 
Q 56.984375 17.96875 50.515625 8.265625 
Q 44.046875 -1.421875 31.78125 -1.421875 
Q 19.53125 -1.421875 13.0625 8.265625 
Q 6.59375 17.96875 6.59375 36.375 
Q 6.59375 54.828125 13.0625 64.515625 
Q 19.53125 74.21875 31.78125 74.21875 
z
" id="DejaVuSans-48"/>
        <path d="M 10.6875 12.40625 
L 21 12.40625 
L 21 0 
L 10.6875 0 
z
" id="DejaVuSans-46"/>
        <path d="M 37.796875 64.3125 
L 12.890625 25.390625 
L 37.796875 25.390625 
z
M 35.203125 72.90625 
L 47.609375 72.90625 
L 47.609375 25.390625 
L 58.015625 25.390625 
L 58.015625 17.1875 
L 47.609375 17.1875 
L 47.609375 0 
L 37.796875 0 
L 37.796875 17.1875 
L 4.890625 17.1875 
L 4.890625 26.703125 
z
" id="DejaVuSans-52"/>
       </defs>
       <use xlink:href="#DejaVuSans-48"/>
       <use x="63.623047" xlink:href="#DejaVuSans-46"/>
       <use x="95.410156" xlink:href="#DejaVuSans-52"/>
      </g>
     </g>
    </g>
    <g id="ytick_2">
     <g id="line2d_3">
      <path clip-path="url(#p8e83af6a58)" d="M 47.36 320.567368 
L 1141.2 320.567368 
" style="fill:none;stroke:#b0b0b0;stroke-linecap:square;stroke-width:0.8;"/>
     </g>
     <g id="line2d_4">
      <g>
       <use style="stroke:#000000;stroke-width:0.8;" x="47.36" xlink:href="#md16be02863" y="320.567368"/>
      </g>
     </g>
     <g id="text_2">
      <!-- 0.6 -->
      <g transform="translate(24.456875 324.366587)scale(0.1 -0.1)">
       <defs>
        <path d="M 33.015625 40.375 
Q 26.375 40.375 22.484375 35.828125 
Q 18.609375 31.296875 18.609375 23.390625 
Q 18.609375 15.53125 22.484375 10.953125 
Q 26.375 6.390625 33.015625 6.390625 
Q 39.65625 6.390625 43.53125 10.953125 
Q 47.40625 15.53125 47.40625 23.390625 
Q 47.40625 31.296875 43.53125 35.828125 
Q 39.65625 40.375 33.015625 40.375 
z
M 52.59375 71.296875 
L 52.59375 62.3125 
Q 48.875 64.0625 45.09375 64.984375 
Q 41.3125 65.921875 37.59375 65.921875 
Q 27.828125 65.921875 22.671875 59.328125 
Q 17.53125 52.734375 16.796875 39.40625 
Q 19.671875 43.65625 24.015625 45.921875 
Q 28.375 48.1875 33.59375 48.1875 
Q 44.578125 48.1875 50.953125 41.515625 
Q 57.328125 34.859375 57.328125 23.390625 
Q 57.328125 12.15625 50.6875 5.359375 
Q 44.046875 -1.421875 33.015625 -1.421875 
Q 20.359375 -1.421875 13.671875 8.265625 
Q 6.984375 17.96875 6.984375 36.375 
Q 6.984375 53.65625 15.1875 63.9375 
Q 23.390625 74.21875 37.203125 74.21875 
Q 40.921875 74.21875 44.703125 73.484375 
Q 48.484375 72.75 52.59375 71.296875 
z
" id="DejaVuSans-54"/>
       </defs>
       <use xlink:href="#DejaVuSans-48"/>
       <use x="63.623047" xlink:href="#DejaVuSans-46"/>
       <use x="95.410156" xlink:href="#DejaVuSans-54"/>
      </g>
     </g>
    </g>
    <g id="ytick_3">
     <g id="line2d_5">
      <path clip-path="url(#p8e83af6a58)" d="M 47.36 269.850313 
L 1141.2 269.850313 
" style="fill:none;stroke:#b0b0b0;stroke-linecap:square;stroke-width:0.8;"/>
     </g>
     <g id="line2d_6">
      <g>
       <use style="stroke:#000000;stroke-width:0.8;" x="47.36" xlink:href="#md16be02863" y="269.850313"/>
      </g>
     </g>
     <g id="text_3">
      <!-- 0.8 -->
      <g transform="translate(24.456875 273.649532)scale(0.1 -0.1)">
       <defs>
        <path d="M 31.78125 34.625 
Q 24.75 34.625 20.71875 30.859375 
Q 16.703125 27.09375 16.703125 20.515625 
Q 16.703125 13.921875 20.71875 10.15625 
Q 24.75 6.390625 31.78125 6.390625 
Q 38.8125 6.390625 42.859375 10.171875 
Q 46.921875 13.96875 46.921875 20.515625 
Q 46.921875 27.09375 42.890625 30.859375 
Q 38.875 34.625 31.78125 34.625 
z
M 21.921875 38.8125 
Q 15.578125 40.375 12.03125 44.71875 
Q 8.5 49.078125 8.5 55.328125 
Q 8.5 64.0625 14.71875 69.140625 
Q 20.953125 74.21875 31.78125 74.21875 
Q 42.671875 74.21875 48.875 69.140625 
Q 55.078125 64.0625 55.078125 55.328125 
Q 55.078125 49.078125 51.53125 44.71875 
Q 48 40.375 41.703125 38.8125 
Q 48.828125 37.15625 52.796875 32.3125 
Q 56.78125 27.484375 56.78125 20.515625 
Q 56.78125 9.90625 50.3125 4.234375 
Q 43.84375 -1.421875 31.78125 -1.421875 
Q 19.734375 -1.421875 13.25 4.234375 
Q 6.78125 9.90625 6.78125 20.515625 
Q 6.78125 27.484375 10.78125 32.3125 
Q 14.796875 37.15625 21.921875 38.8125 
z
M 18.3125 54.390625 
Q 18.3125 48.734375 21.84375 45.5625 
Q 25.390625 42.390625 31.78125 42.390625 
Q 38.140625 42.390625 41.71875 45.5625 
Q 45.3125 48.734375 45.3125 54.390625 
Q 45.3125 60.0625 41.71875 63.234375 
Q 38.140625 66.40625 31.78125 66.40625 
Q 25.390625 66.40625 21.84375 63.234375 
Q 18.3125 60.0625 18.3125 54.390625 
z
" id="DejaVuSans-56"/>
       </defs>
       <use xlink:href="#DejaVuSans-48"/>
       <use x="63.623047" xlink:href="#DejaVuSans-46"/>
       <use x="95.410156" xlink:href="#DejaVuSans-56"/>
      </g>
     </g>
    </g>
    <g id="ytick_4">
     <g id="line2d_7">
      <path clip-path="url(#p8e83af6a58)" d="M 47.36 219.133258 
L 1141.2 219.133258 
" style="fill:none;stroke:#b0b0b0;stroke-linecap:square;stroke-width:0.8;"/>
     </g>
     <g id="line2d_8">
      <g>
       <use style="stroke:#000000;stroke-width:0.8;" x="47.36" xlink:href="#md16be02863" y="219.133258"/>
      </g>
     </g>
     <g id="text_4">
      <!-- 1.0 -->
      <g transform="translate(24.456875 222.932477)scale(0.1 -0.1)">
       <defs>
        <path d="M 12.40625 8.296875 
L 28.515625 8.296875 
L 28.515625 63.921875 
L 10.984375 60.40625 
L 10.984375 69.390625 
L 28.421875 72.90625 
L 38.28125 72.90625 
L 38.28125 8.296875 
L 54.390625 8.296875 
L 54.390625 0 
L 12.40625 0 
z
" id="DejaVuSans-49"/>
       </defs>
       <use xlink:href="#DejaVuSans-49"/>
       <use x="63.623047" xlink:href="#DejaVuSans-46"/>
       <use x="95.410156" xlink:href="#DejaVuSans-48"/>
      </g>
     </g>
    </g>
    <g id="ytick_5">
     <g id="line2d_9">
      <path clip-path="url(#p8e83af6a58)" d="M 47.36 168.416203 
L 1141.2 168.416203 
" style="fill:none;stroke:#b0b0b0;stroke-linecap:square;stroke-width:0.8;"/>
     </g>
     <g id="line2d_10">
      <g>
       <use style="stroke:#000000;stroke-width:0.8;" x="47.36" xlink:href="#md16be02863" y="168.416203"/>
      </g>
     </g>
     <g id="text_5">
      <!-- 1.2 -->
      <g transform="translate(24.456875 172.215422)scale(0.1 -0.1)">
       <defs>
        <path d="M 19.1875 8.296875 
L 53.609375 8.296875 
L 53.609375 0 
L 7.328125 0 
L 7.328125 8.296875 
Q 12.9375 14.109375 22.625 23.890625 
Q 32.328125 33.6875 34.8125 36.53125 
Q 39.546875 41.84375 41.421875 45.53125 
Q 43.3125 49.21875 43.3125 52.78125 
Q 43.3125 58.59375 39.234375 62.25 
Q 35.15625 65.921875 28.609375 65.921875 
Q 23.96875 65.921875 18.8125 64.3125 
Q 13.671875 62.703125 7.8125 59.421875 
L 7.8125 69.390625 
Q 13.765625 71.78125 18.9375 73 
Q 24.125 74.21875 28.421875 74.21875 
Q 39.75 74.21875 46.484375 68.546875 
Q 53.21875 62.890625 53.21875 53.421875 
Q 53.21875 48.921875 51.53125 44.890625 
Q 49.859375 40.875 45.40625 35.40625 
Q 44.1875 33.984375 37.640625 27.21875 
Q 31.109375 20.453125 19.1875 8.296875 
z
" id="DejaVuSans-50"/>
       </defs>
       <use xlink:href="#DejaVuSans-49"/>
       <use x="63.623047" xlink:href="#DejaVuSans-46"/>
       <use x="95.410156" xlink:href="#DejaVuSans-50"/>
      </g>
     </g>
    </g>
    <g id="ytick_6">
     <g id="line2d_11">
      <path clip-path="url(#p8e83af6a58)" d="M 47.36 117.699148 
L 1141.2 117.699148 
" style="fill:none;stroke:#b0b0b0;stroke-linecap:square;stroke-width:0.8;"/>
     </g>
     <g id="line2d_12">
      <g>
       <use style="stroke:#000000;stroke-width:0.8;" x="47.36" xlink:href="#md16be02863" y="117.699148"/>
      </g>
     </g>
     <g id="text_6">
      <!-- 1.4 -->
      <g transform="translate(24.456875 121.498367)scale(0.1 -0.1)">
       <use xlink:href="#DejaVuSans-49"/>
       <use x="63.623047" xlink:href="#DejaVuSans-46"/>
       <use x="95.410156" xlink:href="#DejaVuSans-52"/>
      </g>
     </g>
    </g>
    <g id="ytick_7">
     <g id="line2d_13">
      <path clip-path="url(#p8e83af6a58)" d="M 47.36 66.982093 
L 1141.2 66.982093 
" style="fill:none;stroke:#b0b0b0;stroke-linecap:square;stroke-width:0.8;"/>
     </g>
     <g id="line2d_14">
      <g>
       <use style="stroke:#000000;stroke-width:0.8;" x="47.36" xlink:href="#md16be02863" y="66.982093"/>
      </g>
     </g>
     <g id="text_7">
      <!-- 1.6 -->
      <g transform="translate(24.456875 70.781312)scale(0.1 -0.1)">
       <use xlink:href="#DejaVuSans-49"/>
       <use x="63.623047" xlink:href="#DejaVuSans-46"/>
       <use x="95.410156" xlink:href="#DejaVuSans-54"/>
      </g>
     </g>
    </g>
    <g id="text_8">
     <!-- net value -->
     <g transform="translate(18.377187 245.262344)rotate(-90)scale(0.1 -0.1)">
      <defs>
       <path d="M 54.890625 33.015625 
L 54.890625 0 
L 45.90625 0 
L 45.90625 32.71875 
Q 45.90625 40.484375 42.875 44.328125 
Q 39.84375 48.1875 33.796875 48.1875 
Q 26.515625 48.1875 22.3125 43.546875 
Q 18.109375 38.921875 18.109375 30.90625 
L 18.109375 0 
L 9.078125 0 
L 9.078125 54.6875 
L 18.109375 54.6875 
L 18.109375 46.1875 
Q 21.34375 51.125 25.703125 53.5625 
Q 30.078125 56 35.796875 56 
Q 45.21875 56 50.046875 50.171875 
Q 54.890625 44.34375 54.890625 33.015625 
z
" id="DejaVuSans-110"/>
       <path d="M 56.203125 29.59375 
L 56.203125 25.203125 
L 14.890625 25.203125 
Q 15.484375 15.921875 20.484375 11.0625 
Q 25.484375 6.203125 34.421875 6.203125 
Q 39.59375 6.203125 44.453125 7.46875 
Q 49.3125 8.734375 54.109375 11.28125 
L 54.109375 2.78125 
Q 49.265625 0.734375 44.1875 -0.34375 
Q 39.109375 -1.421875 33.890625 -1.421875 
Q 20.796875 -1.421875 13.15625 6.1875 
Q 5.515625 13.8125 5.515625 26.8125 
Q 5.515625 40.234375 12.765625 48.109375 
Q 20.015625 56 32.328125 56 
Q 43.359375 56 49.78125 48.890625 
Q 56.203125 41.796875 56.203125 29.59375 
z
M 47.21875 32.234375 
Q 47.125 39.59375 43.09375 43.984375 
Q 39.0625 48.390625 32.421875 48.390625 
Q 24.90625 48.390625 20.390625 44.140625 
Q 15.875 39.890625 15.1875 32.171875 
z
" id="DejaVuSans-101"/>
       <path d="M 18.3125 70.21875 
L 18.3125 54.6875 
L 36.8125 54.6875 
L 36.8125 47.703125 
L 18.3125 47.703125 
L 18.3125 18.015625 
Q 18.3125 11.328125 20.140625 9.421875 
Q 21.96875 7.515625 27.59375 7.515625 
L 36.8125 7.515625 
L 36.8125 0 
L 27.59375 0 
Q 17.1875 0 13.234375 3.875 
Q 9.28125 7.765625 9.28125 18.015625 
L 9.28125 47.703125 
L 2.6875 47.703125 
L 2.6875 54.6875 
L 9.28125 54.6875 
L 9.28125 70.21875 
z
" id="DejaVuSans-116"/>
       <path id="DejaVuSans-32"/>
       <path d="M 2.984375 54.6875 
L 12.5 54.6875 
L 29.59375 8.796875 
L 46.6875 54.6875 
L 56.203125 54.6875 
L 35.6875 0 
L 23.484375 0 
z
" id="DejaVuSans-118"/>
       <path d="M 34.28125 27.484375 
Q 23.390625 27.484375 19.1875 25 
Q 14.984375 22.515625 14.984375 16.5 
Q 14.984375 11.71875 18.140625 8.90625 
Q 21.296875 6.109375 26.703125 6.109375 
Q 34.1875 6.109375 38.703125 11.40625 
Q 43.21875 16.703125 43.21875 25.484375 
L 43.21875 27.484375 
z
M 52.203125 31.203125 
L 52.203125 0 
L 43.21875 0 
L 43.21875 8.296875 
Q 40.140625 3.328125 35.546875 0.953125 
Q 30.953125 -1.421875 24.3125 -1.421875 
Q 15.921875 -1.421875 10.953125 3.296875 
Q 6 8.015625 6 15.921875 
Q 6 25.140625 12.171875 29.828125 
Q 18.359375 34.515625 30.609375 34.515625 
L 43.21875 34.515625 
L 43.21875 35.40625 
Q 43.21875 41.609375 39.140625 45 
Q 35.0625 48.390625 27.6875 48.390625 
Q 23 48.390625 18.546875 47.265625 
Q 14.109375 46.140625 10.015625 43.890625 
L 10.015625 52.203125 
Q 14.9375 54.109375 19.578125 55.046875 
Q 24.21875 56 28.609375 56 
Q 40.484375 56 46.34375 49.84375 
Q 52.203125 43.703125 52.203125 31.203125 
z
" id="DejaVuSans-97"/>
       <path d="M 9.421875 75.984375 
L 18.40625 75.984375 
L 18.40625 0 
L 9.421875 0 
z
" id="DejaVuSans-108"/>
       <path d="M 8.5 21.578125 
L 8.5 54.6875 
L 17.484375 54.6875 
L 17.484375 21.921875 
Q 17.484375 14.15625 20.5 10.265625 
Q 23.53125 6.390625 29.59375 6.390625 
Q 36.859375 6.390625 41.078125 11.03125 
Q 45.3125 15.671875 45.3125 23.6875 
L 45.3125 54.6875 
L 54.296875 54.6875 
L 54.296875 0 
L 45.3125 0 
L 45.3125 8.40625 
Q 42.046875 3.421875 37.71875 1 
Q 33.40625 -1.421875 27.6875 -1.421875 
Q 18.265625 -1.421875 13.375 4.4375 
Q 8.5 10.296875 8.5 21.578125 
z
M 31.109375 56 
z
" id="DejaVuSans-117"/>
      </defs>
      <use xlink:href="#DejaVuSans-110"/>
      <use x="63.378906" xlink:href="#DejaVuSans-101"/>
      <use x="124.902344" xlink:href="#DejaVuSans-116"/>
      <use x="164.111328" xlink:href="#DejaVuSans-32"/>
      <use x="195.898438" xlink:href="#DejaVuSans-118"/>
      <use x="255.078125" xlink:href="#DejaVuSans-97"/>
      <use x="316.357422" xlink:href="#DejaVuSans-108"/>
      <use x="344.140625" xlink:href="#DejaVuSans-117"/>
      <use x="407.519531" xlink:href="#DejaVuSans-101"/>
     </g>
    </g>
   </g>
   <g id="line2d_15">
    <path clip-path="url(#p8e83af6a58)" d="M 97.08 215.838913 
L 101.089677 211.456238 
L 105.099355 214.616604 
L 109.109032 211.158724 
L 121.138065 210.411616 
L 125.147742 217.875025 
L 129.157419 212.561563 
L 133.167097 208.983129 
L 137.176774 211.939871 
L 149.205806 197.387335 
L 153.215484 186.790718 
L 161.234839 189.296596 
L 165.244516 189.031648 
L 177.273548 191.669848 
L 181.283226 192.278648 
L 185.292903 191.578372 
L 189.302581 191.066023 
L 193.312258 201.455629 
L 205.34129 191.890187 
L 209.350968 186.626273 
L 213.360645 201.278377 
L 217.370323 196.476853 
L 221.38 202.617588 
L 233.409032 206.850183 
L 237.41871 201.208944 
L 241.428387 197.351937 
L 245.438065 193.730693 
L 249.447742 192.190455 
L 261.476774 193.377815 
L 265.486452 183.119664 
L 269.496129 180.80812 
L 273.505806 180.810546 
L 277.515484 180.240454 
L 289.544516 177.94224 
L 293.554194 172.367255 
L 297.563871 173.406265 
L 301.573548 170.66562 
L 305.583226 164.678913 
L 317.612258 169.49533 
L 321.621935 171.807828 
L 325.631613 172.962205 
L 329.64129 182.180551 
L 333.650968 182.509391 
L 345.68 182.952135 
L 349.689677 185.936546 
L 353.699355 174.335991 
L 357.709032 179.771647 
L 361.71871 177.298223 
L 373.747742 172.74012 
L 377.757419 177.092792 
L 381.767097 178.374088 
L 385.776774 171.217703 
L 389.786452 181.626466 
L 401.815484 179.738026 
L 405.825161 174.934518 
L 409.834839 176.551258 
L 413.844516 183.971266 
L 417.854194 175.341434 
L 429.883226 182.061413 
L 433.892903 195.153659 
L 437.902581 196.258993 
L 441.912258 187.109492 
L 445.921935 182.284012 
L 457.950968 188.792131 
L 461.960645 192.144288 
L 465.970323 198.947063 
L 469.98 202.912137 
L 473.989677 205.301152 
L 486.01871 221.170677 
L 490.028387 237.715718 
L 494.038065 243.979552 
L 498.047742 255.891557 
L 502.057419 249.853702 
L 514.086452 235.974215 
L 518.096129 225.030064 
L 522.105806 233.395851 
L 526.115484 239.373158 
L 530.125161 233.112796 
L 542.154194 229.157701 
L 546.163871 226.253942 
L 550.173548 227.932126 
L 554.183226 227.538644 
L 558.192903 211.604486 
L 570.221935 214.44668 
L 574.231613 222.282368 
L 578.24129 225.957995 
L 582.250968 231.183908 
L 586.260645 225.619672 
L 598.289677 226.954084 
L 602.299355 235.139305 
L 606.309032 228.705069 
L 610.31871 231.389795 
L 614.328387 230.9143 
L 626.357419 234.213217 
L 630.367097 239.258879 
L 634.376774 242.51608 
L 638.386452 241.588187 
L 642.396129 235.880706 
L 654.425161 230.246968 
L 658.434839 228.889821 
L 666.454194 221.373475 
L 670.463871 224.47974 
L 682.492903 231.431521 
L 686.502581 237.447309 
L 690.512258 244.49218 
L 694.521935 242.159572 
L 698.531613 237.556396 
L 710.560645 238.444524 
L 714.570323 248.015807 
L 718.58 254.111881 
L 722.589677 251.305111 
L 726.599355 251.500321 
L 738.628387 257.238328 
L 742.638065 260.002758 
L 746.647742 251.575973 
L 750.657419 244.658792 
L 754.667097 253.292519 
L 766.696129 259.350753 
L 770.705806 263.432629 
L 774.715484 276.913993 
L 778.725161 284.241597 
L 782.734839 290.700965 
L 794.763871 282.969117 
L 798.773548 284.479521 
L 802.783226 292.756177 
L 806.792903 291.3344 
L 810.802581 284.779508 
L 822.831613 289.293491 
L 826.84129 300.736635 
L 830.850968 303.615964 
L 834.860645 302.873653 
L 838.870323 305.776053 
L 850.899355 305.506753 
L 854.909032 303.717464 
L 858.91871 304.356709 
L 862.928387 298.44721 
L 866.938065 290.228038 
L 878.967097 293.164159 
L 882.976774 284.994006 
L 886.986452 295.862535 
L 890.996129 300.474099 
L 895.005806 301.893191 
L 907.034839 314.034762 
L 911.044516 306.638958 
L 915.054194 299.934746 
L 919.063871 295.141236 
L 923.073548 290.59679 
L 935.102581 285.75744 
L 939.112258 292.688849 
L 943.121935 291.777272 
L 947.131613 298.348905 
L 951.14129 292.011652 
L 963.170323 293.682552 
L 967.18 293.028242 
L 971.189677 287.546752 
L 975.199355 289.564011 
L 979.209032 290.673351 
L 991.238065 291.237088 
L 995.247742 286.84555 
L 999.257419 287.772519 
L 1003.267097 289.276023 
L 1007.276774 290.025446 
L 1019.305806 295.236918 
L 1023.315484 296.474816 
L 1027.325161 293.393942 
L 1031.334839 294.672231 
L 1035.344516 288.820413 
L 1047.373548 292.588292 
L 1051.383226 295.600175 
L 1055.392903 300.891953 
L 1059.402581 296.099882 
L 1063.412258 301.128542 
L 1075.44129 295.355716 
L 1079.450968 296.491445 
L 1083.460645 299.099497 
L 1087.470323 304.390404 
L 1091.48 304.355033 
L 1091.48 304.355033 
" style="fill:none;stroke:#1f77b4;stroke-linecap:square;stroke-width:1.5;"/>
   </g>
   <g id="line2d_16">
    <path clip-path="url(#p8e83af6a58)" d="M 97.08 237.417068 
L 101.089677 247.198802 
L 105.099355 253.22641 
L 109.109032 255.154868 
L 121.138065 242.746083 
L 125.147742 256.559434 
L 129.157419 255.944053 
L 133.167097 251.937429 
L 137.176774 271.964465 
L 149.205806 267.646452 
L 153.215484 281.159713 
L 157.225161 297.823353 
L 161.234839 282.12177 
L 165.244516 264.372178 
L 177.273548 251.521486 
L 181.283226 260.165257 
L 185.292903 277.268479 
L 189.302581 270.066808 
L 193.312258 272.492448 
L 205.34129 287.628009 
L 209.350968 287.806551 
L 213.360645 305.025979 
L 217.370323 291.297982 
L 221.38 300.050436 
L 233.409032 294.437953 
L 237.41871 301.151605 
L 241.428387 300.463003 
L 245.438065 298.853783 
L 249.447742 309.812323 
L 261.476774 294.512672 
L 265.486452 284.706616 
L 273.505806 252.028959 
L 277.515484 247.707858 
L 289.544516 228.722617 
L 293.554194 248.803847 
L 297.563871 262.418627 
L 301.573548 281.546359 
L 305.583226 288.224755 
L 317.612258 292.332424 
L 321.621935 300.581516 
L 325.631613 289.263937 
L 329.64129 294.519789 
L 333.650968 302.327228 
L 345.68 300.87222 
L 349.689677 313.21339 
L 353.699355 303.572995 
L 357.709032 317.965567 
L 361.71871 302.896128 
L 373.747742 293.649475 
L 377.757419 304.439615 
L 381.767097 321.081656 
L 385.776774 311.514539 
L 389.786452 304.845293 
L 401.815484 297.156458 
L 405.825161 287.631501 
L 409.834839 303.399263 
L 413.844516 308.192159 
L 417.854194 320.832093 
L 429.883226 309.801996 
L 433.892903 305.784535 
L 437.902581 311.430309 
L 441.912258 325.508888 
L 445.921935 331.073933 
L 457.950968 336.026301 
L 461.960645 329.749225 
L 465.970323 325.815926 
L 469.98 314.439413 
L 473.989677 315.318973 
L 486.01871 327.294112 
L 490.028387 321.091912 
L 494.038065 313.183521 
L 498.047742 311.22835 
L 502.057419 302.476642 
L 514.086452 302.687892 
L 518.096129 301.914836 
L 522.105806 304.390088 
L 526.115484 320.36718 
L 530.125161 332.314835 
L 542.154194 345.47265 
L 546.163871 342.001117 
L 550.173548 346.854498 
L 554.183226 346.63875 
L 558.192903 336.361572 
L 574.231613 345.520159 
L 578.24129 339.019021 
L 582.250968 346.270932 
L 586.260645 356.968907 
L 598.289677 361.836145 
L 602.299355 369.349063 
L 606.309032 360.46554 
L 610.31871 353.548053 
L 614.328387 350.368495 
L 626.357419 341.278851 
L 630.367097 333.295939 
L 634.376774 342.035782 
L 638.386452 331.775644 
L 642.396129 330.666642 
L 654.425161 321.932151 
L 658.434839 309.987117 
L 662.444516 315.910427 
L 666.454194 328.139831 
L 670.463871 336.006787 
L 682.492903 337.999831 
L 686.502581 329.431324 
L 690.512258 319.093708 
L 694.521935 334.242587 
L 698.531613 333.944938 
L 710.560645 336.237173 
L 714.570323 343.822594 
L 718.58 353.622156 
L 722.589677 357.490045 
L 726.599355 347.282882 
L 738.628387 351.718213 
L 742.638065 351.263478 
L 746.647742 346.331943 
L 750.657419 349.779021 
L 754.667097 338.178889 
L 766.696129 325.73539 
L 770.705806 333.032153 
L 774.715484 333.109023 
L 778.725161 338.668879 
L 782.734839 344.43729 
L 794.763871 356.319034 
L 798.773548 353.768387 
L 802.783226 353.704653 
L 806.792903 364.380704 
L 810.802581 369.176896 
L 822.831613 360.722393 
L 826.84129 366.556005 
L 830.850968 374.095777 
L 834.860645 374.303817 
L 838.870323 364.744786 
L 850.899355 370.315038 
L 854.909032 366.789582 
L 858.91871 361.246963 
L 862.928387 367.096154 
L 866.938065 362.275204 
L 878.967097 365.195698 
L 886.986452 359.403036 
L 890.996129 358.592271 
L 895.005806 367.944011 
L 907.034839 360.917779 
L 911.044516 364.925164 
L 915.054194 371.683409 
L 919.063871 380.962977 
L 923.073548 379.29499 
L 935.102581 375.977252 
L 939.112258 385.330435 
L 943.121935 385.119077 
L 947.131613 389.910841 
L 951.14129 387.506556 
L 963.170323 393.056132 
L 967.18 390.014021 
L 971.189677 391.88752 
L 975.199355 384.827255 
L 979.209032 391.199004 
L 991.238065 393.790243 
L 995.247742 399.891818 
L 999.257419 393.70601 
L 1003.267097 387.743103 
L 1007.276774 391.856906 
L 1019.305806 389.269592 
L 1023.315484 383.975221 
L 1027.325161 382.99548 
L 1031.334839 382.463412 
L 1035.344516 387.123242 
L 1047.373548 394.08894 
L 1051.383226 387.842357 
L 1055.392903 381.045166 
L 1059.402581 378.604795 
L 1063.412258 381.634696 
L 1075.44129 384.38161 
L 1079.450968 380.389565 
L 1083.460645 373.056608 
L 1087.470323 365.341053 
L 1091.48 359.330587 
L 1091.48 359.330587 
" style="fill:none;stroke:#ff7f0e;stroke-linecap:square;stroke-width:1.5;"/>
   </g>
   <g id="line2d_17">
    <path clip-path="url(#p8e83af6a58)" d="M 97.08 197.555103 
L 101.089677 181.421646 
L 105.099355 177.159651 
L 109.109032 170.603165 
L 121.138065 186.971425 
L 125.147742 177.938307 
L 129.157419 172.631375 
L 133.167097 174.05019 
L 137.176774 150.306385 
L 149.205806 139.249197 
L 153.215484 104.441008 
L 157.225161 74.006426 
L 161.234839 111.569524 
L 165.244516 144.864426 
L 177.273548 168.135234 
L 181.283226 156.892738 
L 185.292903 130.690996 
L 189.302581 142.670239 
L 193.312258 150.894558 
L 205.34129 115.218768 
L 209.350968 108.172856 
L 213.360645 92.895591 
L 217.370323 117.270732 
L 221.38 108.02396 
L 233.409032 125.593076 
L 237.41871 105.155734 
L 241.428387 101.409467 
L 245.438065 99.995309 
L 249.447742 74.445164 
L 261.476774 113.535502 
L 265.486452 120.109932 
L 269.496129 148.289673 
L 273.505806 173.911047 
L 277.515484 179.178129 
L 289.544516 201.638995 
L 293.554194 174.201925 
L 297.563871 157.083755 
L 301.573548 125.485236 
L 305.583226 106.472827 
L 317.612258 104.045044 
L 321.621935 89.997181 
L 325.631613 116.628379 
L 329.64129 117.377402 
L 333.650968 102.210992 
L 345.68 105.940084 
L 349.689677 83.377419 
L 353.699355 91.15981 
L 357.709032 65.64391 
L 361.71871 101.84674 
L 373.747742 116.318061 
L 377.757419 100.013839 
L 381.767097 64.770364 
L 385.776774 80.590319 
L 389.786452 110.350746 
L 401.815484 124.596873 
L 405.825161 137.776326 
L 409.834839 111.060721 
L 413.844516 109.884097 
L 417.854194 71.164825 
L 429.883226 109.40004 
L 433.892903 134.724514 
L 437.902581 124.639402 
L 441.912258 82.736385 
L 445.921935 61.404776 
L 457.950968 56.240681 
L 461.960645 80.282975 
L 465.970323 100.594417 
L 469.98 134.802188 
L 473.989677 135.916479 
L 486.01871 130.279256 
L 490.028387 167.407172 
L 494.038065 191.469158 
L 498.047742 209.562573 
L 502.057419 216.495947 
L 514.086452 200.221078 
L 518.096129 188.863068 
L 522.105806 194.336836 
L 526.115484 174.866753 
L 530.125161 143.517717 
L 542.154194 107.232927 
L 546.163871 112.846775 
L 550.173548 101.935544 
L 554.183226 101.975102 
L 558.192903 108.101131 
L 570.221935 93.787462 
L 574.231613 98.492081 
L 578.24129 123.111365 
L 582.250968 111.552552 
L 586.260645 72.676273 
L 598.289677 58.014967 
L 602.299355 43.728182 
L 606.309032 68.977287 
L 610.31871 98.299578 
L 614.328387 107.551632 
L 626.357419 139.662598 
L 630.367097 166.936468 
L 634.376774 152.034452 
L 638.386452 175.919333 
L 642.396129 170.925589 
L 654.425161 182.303396 
L 658.434839 203.684084 
L 662.444516 189.826901 
L 666.454194 163.383826 
L 670.463871 150.37494 
L 682.492903 154.702716 
L 686.502581 182.858257 
L 690.512258 212.450015 
L 694.521935 184.12495 
L 698.531613 178.983416 
L 710.560645 175.240897 
L 714.570323 170.861027 
L 722.589677 141.753029 
L 726.599355 171.362392 
L 738.628387 168.523258 
L 742.638065 173.569031 
L 746.647742 173.864759 
L 750.657419 156.365865 
L 754.667097 198.192028 
L 766.696129 231.162365 
L 770.705806 223.791801 
L 774.715484 239.689685 
L 778.725161 239.130117 
L 782.734839 237.083765 
L 794.763871 205.249226 
L 798.773548 213.239299 
L 802.783226 224.787338 
L 806.792903 200.588097 
L 810.802581 178.706392 
L 822.831613 209.775101 
L 826.84129 212.482976 
L 830.850968 198.357656 
L 834.860645 196.574542 
L 838.870323 228.115329 
L 850.899355 215.10193 
L 854.909032 221.214238 
L 858.91871 235.325242 
L 862.928387 214.536121 
L 866.938065 214.143734 
L 878.967097 211.466399 
L 882.976774 206.491838 
L 886.986452 229.015176 
L 890.996129 237.113483 
L 895.005806 219.748633 
L 907.034839 254.692994 
L 911.044516 236.716532 
L 915.054194 212.393277 
L 919.063871 181.261553 
L 923.073548 179.101047 
L 935.102581 181.726226 
L 939.112258 164.380651 
L 943.121935 163.565138 
L 947.131613 157.882375 
L 951.14129 155.581164 
L 963.170323 137.859449 
L 967.18 149.423111 
L 971.189677 132.237328 
L 975.199355 165.686196 
L 979.209032 145.287288 
L 991.238065 135.89327 
L 995.247742 101.704303 
L 999.257419 135.068068 
L 1003.267097 163.294732 
L 1007.276774 149.579106 
L 1019.305806 169.136357 
L 1023.315484 190.514381 
L 1027.325161 188.696818 
L 1031.334839 192.405707 
L 1035.344516 168.720289 
L 1047.373548 150.209686 
L 1051.383226 181.223341 
L 1055.392903 213.276352 
L 1059.402581 212.947195 
L 1063.412258 211.980277 
L 1075.44129 195.344857 
L 1079.450968 209.655829 
L 1083.460645 234.441975 
L 1087.470323 260.149994 
L 1091.48 272.003874 
L 1091.48 272.003874 
" style="fill:none;stroke:#2ca02c;stroke-linecap:square;stroke-width:1.5;"/>
   </g>
   <g id="patch_3">
    <path d="M 47.36 417.7 
L 47.36 25.92 
" style="fill:none;stroke:#000000;stroke-linecap:square;stroke-linejoin:miter;stroke-width:0.8;"/>
   </g>
   <g id="patch_4">
    <path d="M 1141.2 417.7 
L 1141.2 25.92 
" style="fill:none;stroke:#000000;stroke-linecap:square;stroke-linejoin:miter;stroke-width:0.8;"/>
   </g>
   <g id="patch_5">
    <path d="M 47.36 417.7 
L 1141.2 417.7 
" style="fill:none;stroke:#000000;stroke-linecap:square;stroke-linejoin:miter;stroke-width:0.8;"/>
   </g>
   <g id="patch_6">
    <path d="M 47.36 25.92 
L 1141.2 25.92 
" style="fill:none;stroke:#000000;stroke-linecap:square;stroke-linejoin:miter;stroke-width:0.8;"/>
   </g>
   <g id="text_9">
    <!-- Net Value: (2010-02-01 ~ 2010-10-08) -->
    <g transform="translate(478.1725 19.92)scale(0.12 -0.12)">
     <defs>
      <path d="M 9.8125 72.90625 
L 23.09375 72.90625 
L 55.421875 11.921875 
L 55.421875 72.90625 
L 64.984375 72.90625 
L 64.984375 0 
L 51.703125 0 
L 19.390625 60.984375 
L 19.390625 0 
L 9.8125 0 
z
" id="DejaVuSans-78"/>
      <path d="M 28.609375 0 
L 0.78125 72.90625 
L 11.078125 72.90625 
L 34.1875 11.53125 
L 57.328125 72.90625 
L 67.578125 72.90625 
L 39.796875 0 
z
" id="DejaVuSans-86"/>
      <path d="M 11.71875 12.40625 
L 22.015625 12.40625 
L 22.015625 0 
L 11.71875 0 
z
M 11.71875 51.703125 
L 22.015625 51.703125 
L 22.015625 39.3125 
L 11.71875 39.3125 
z
" id="DejaVuSans-58"/>
      <path d="M 31 75.875 
Q 24.46875 64.65625 21.28125 53.65625 
Q 18.109375 42.671875 18.109375 31.390625 
Q 18.109375 20.125 21.3125 9.0625 
Q 24.515625 -2 31 -13.1875 
L 23.1875 -13.1875 
Q 15.875 -1.703125 12.234375 9.375 
Q 8.59375 20.453125 8.59375 31.390625 
Q 8.59375 42.28125 12.203125 53.3125 
Q 15.828125 64.359375 23.1875 75.875 
z
" id="DejaVuSans-40"/>
      <path d="M 4.890625 31.390625 
L 31.203125 31.390625 
L 31.203125 23.390625 
L 4.890625 23.390625 
z
" id="DejaVuSans-45"/>
      <path d="M 73.1875 39.890625 
L 73.1875 31.203125 
Q 68.0625 27.34375 63.6875 25.6875 
Q 59.328125 24.03125 54.59375 24.03125 
Q 49.21875 24.03125 42.09375 26.90625 
Q 41.546875 27.09375 41.3125 27.203125 
Q 40.96875 27.34375 40.234375 27.59375 
Q 32.671875 30.609375 28.078125 30.609375 
Q 23.78125 30.609375 19.578125 28.734375 
Q 15.375 26.859375 10.59375 22.796875 
L 10.59375 31.5 
Q 15.71875 35.359375 20.09375 37.03125 
Q 24.46875 38.71875 29.203125 38.71875 
Q 34.578125 38.71875 41.75 35.796875 
Q 42.234375 35.59375 42.484375 35.5 
Q 42.875 35.359375 43.5625 35.109375 
Q 51.125 32.078125 55.71875 32.078125 
Q 59.90625 32.078125 64.03125 33.9375 
Q 68.171875 35.796875 73.1875 39.890625 
z
" id="DejaVuSans-126"/>
      <path d="M 8.015625 75.875 
L 15.828125 75.875 
Q 23.140625 64.359375 26.78125 53.3125 
Q 30.421875 42.28125 30.421875 31.390625 
Q 30.421875 20.453125 26.78125 9.375 
Q 23.140625 -1.703125 15.828125 -13.1875 
L 8.015625 -13.1875 
Q 14.5 -2 17.703125 9.0625 
Q 20.90625 20.125 20.90625 31.390625 
Q 20.90625 42.671875 17.703125 53.65625 
Q 14.5 64.65625 8.015625 75.875 
z
" id="DejaVuSans-41"/>
     </defs>
     <use xlink:href="#DejaVuSans-78"/>
     <use x="74.804688" xlink:href="#DejaVuSans-101"/>
     <use x="136.328125" xlink:href="#DejaVuSans-116"/>
     <use x="175.537109" xlink:href="#DejaVuSans-32"/>
     <use x="207.324219" xlink:href="#DejaVuSans-86"/>
     <use x="267.982422" xlink:href="#DejaVuSans-97"/>
     <use x="329.261719" xlink:href="#DejaVuSans-108"/>
     <use x="357.044922" xlink:href="#DejaVuSans-117"/>
     <use x="420.423828" xlink:href="#DejaVuSans-101"/>
     <use x="481.947266" xlink:href="#DejaVuSans-58"/>
     <use x="515.638672" xlink:href="#DejaVuSans-32"/>
     <use x="547.425781" xlink:href="#DejaVuSans-40"/>
     <use x="586.439453" xlink:href="#DejaVuSans-50"/>
     <use x="650.0625" xlink:href="#DejaVuSans-48"/>
     <use x="713.685547" xlink:href="#DejaVuSans-49"/>
     <use x="777.308594" xlink:href="#DejaVuSans-48"/>
     <use x="840.931641" xlink:href="#DejaVuSans-45"/>
     <use x="877.015625" xlink:href="#DejaVuSans-48"/>
     <use x="940.638672" xlink:href="#DejaVuSans-50"/>
     <use x="1004.261719" xlink:href="#DejaVuSans-45"/>
     <use x="1040.345703" xlink:href="#DejaVuSans-48"/>
     <use x="1103.96875" xlink:href="#DejaVuSans-49"/>
     <use x="1167.591797" xlink:href="#DejaVuSans-32"/>
     <use x="1199.378906" xlink:href="#DejaVuSans-126"/>
     <use x="1283.167969" xlink:href="#DejaVuSans-32"/>
     <use x="1314.955078" xlink:href="#DejaVuSans-50"/>
     <use x="1378.578125" xlink:href="#DejaVuSans-48"/>
     <use x="1442.201172" xlink:href="#DejaVuSans-49"/>
     <use x="1505.824219" xlink:href="#DejaVuSans-48"/>
     <use x="1569.447266" xlink:href="#DejaVuSans-45"/>
     <use x="1605.53125" xlink:href="#DejaVuSans-49"/>
     <use x="1669.154297" xlink:href="#DejaVuSans-48"/>
     <use x="1732.777344" xlink:href="#DejaVuSans-45"/>
     <use x="1768.861328" xlink:href="#DejaVuSans-48"/>
     <use x="1832.484375" xlink:href="#DejaVuSans-56"/>
     <use x="1896.107422" xlink:href="#DejaVuSans-41"/>
    </g>
   </g>
   <g id="legend_1">
    <g id="patch_7">
     <path d="M 54.36 78.2325 
L 166.874063 78.2325 
Q 168.874063 78.2325 168.874063 76.2325 
L 168.874063 32.92 
Q 168.874063 30.92 166.874063 30.92 
L 54.36 30.92 
Q 52.36 30.92 52.36 32.92 
L 52.36 76.2325 
Q 52.36 78.2325 54.36 78.2325 
z
" style="fill:#ffffff;opacity:0.8;stroke:#cccccc;stroke-linejoin:miter;"/>
    </g>
    <g id="line2d_18">
     <path d="M 56.36 39.018438 
L 76.36 39.018438 
" style="fill:none;stroke:#1f77b4;stroke-linecap:square;stroke-width:1.5;"/>
    </g>
    <g id="line2d_19"/>
    <g id="text_10">
     <!-- factor_weighted -->
     <g transform="translate(84.36 42.518438)scale(0.1 -0.1)">
      <defs>
       <path d="M 37.109375 75.984375 
L 37.109375 68.5 
L 28.515625 68.5 
Q 23.6875 68.5 21.796875 66.546875 
Q 19.921875 64.59375 19.921875 59.515625 
L 19.921875 54.6875 
L 34.71875 54.6875 
L 34.71875 47.703125 
L 19.921875 47.703125 
L 19.921875 0 
L 10.890625 0 
L 10.890625 47.703125 
L 2.296875 47.703125 
L 2.296875 54.6875 
L 10.890625 54.6875 
L 10.890625 58.5 
Q 10.890625 67.625 15.140625 71.796875 
Q 19.390625 75.984375 28.609375 75.984375 
z
" id="DejaVuSans-102"/>
       <path d="M 48.78125 52.59375 
L 48.78125 44.1875 
Q 44.96875 46.296875 41.140625 47.34375 
Q 37.3125 48.390625 33.40625 48.390625 
Q 24.65625 48.390625 19.8125 42.84375 
Q 14.984375 37.3125 14.984375 27.296875 
Q 14.984375 17.28125 19.8125 11.734375 
Q 24.65625 6.203125 33.40625 6.203125 
Q 37.3125 6.203125 41.140625 7.25 
Q 44.96875 8.296875 48.78125 10.40625 
L 48.78125 2.09375 
Q 45.015625 0.34375 40.984375 -0.53125 
Q 36.96875 -1.421875 32.421875 -1.421875 
Q 20.0625 -1.421875 12.78125 6.34375 
Q 5.515625 14.109375 5.515625 27.296875 
Q 5.515625 40.671875 12.859375 48.328125 
Q 20.21875 56 33.015625 56 
Q 37.15625 56 41.109375 55.140625 
Q 45.0625 54.296875 48.78125 52.59375 
z
" id="DejaVuSans-99"/>
       <path d="M 30.609375 48.390625 
Q 23.390625 48.390625 19.1875 42.75 
Q 14.984375 37.109375 14.984375 27.296875 
Q 14.984375 17.484375 19.15625 11.84375 
Q 23.34375 6.203125 30.609375 6.203125 
Q 37.796875 6.203125 41.984375 11.859375 
Q 46.1875 17.53125 46.1875 27.296875 
Q 46.1875 37.015625 41.984375 42.703125 
Q 37.796875 48.390625 30.609375 48.390625 
z
M 30.609375 56 
Q 42.328125 56 49.015625 48.375 
Q 55.71875 40.765625 55.71875 27.296875 
Q 55.71875 13.875 49.015625 6.21875 
Q 42.328125 -1.421875 30.609375 -1.421875 
Q 18.84375 -1.421875 12.171875 6.21875 
Q 5.515625 13.875 5.515625 27.296875 
Q 5.515625 40.765625 12.171875 48.375 
Q 18.84375 56 30.609375 56 
z
" id="DejaVuSans-111"/>
       <path d="M 41.109375 46.296875 
Q 39.59375 47.171875 37.8125 47.578125 
Q 36.03125 48 33.890625 48 
Q 26.265625 48 22.1875 43.046875 
Q 18.109375 38.09375 18.109375 28.8125 
L 18.109375 0 
L 9.078125 0 
L 9.078125 54.6875 
L 18.109375 54.6875 
L 18.109375 46.1875 
Q 20.953125 51.171875 25.484375 53.578125 
Q 30.03125 56 36.53125 56 
Q 37.453125 56 38.578125 55.875 
Q 39.703125 55.765625 41.0625 55.515625 
z
" id="DejaVuSans-114"/>
       <path d="M 50.984375 -16.609375 
L 50.984375 -23.578125 
L -0.984375 -23.578125 
L -0.984375 -16.609375 
z
" id="DejaVuSans-95"/>
       <path d="M 4.203125 54.6875 
L 13.1875 54.6875 
L 24.421875 12.015625 
L 35.59375 54.6875 
L 46.1875 54.6875 
L 57.421875 12.015625 
L 68.609375 54.6875 
L 77.59375 54.6875 
L 63.28125 0 
L 52.6875 0 
L 40.921875 44.828125 
L 29.109375 0 
L 18.5 0 
z
" id="DejaVuSans-119"/>
       <path d="M 9.421875 54.6875 
L 18.40625 54.6875 
L 18.40625 0 
L 9.421875 0 
z
M 9.421875 75.984375 
L 18.40625 75.984375 
L 18.40625 64.59375 
L 9.421875 64.59375 
z
" id="DejaVuSans-105"/>
       <path d="M 45.40625 27.984375 
Q 45.40625 37.75 41.375 43.109375 
Q 37.359375 48.484375 30.078125 48.484375 
Q 22.859375 48.484375 18.828125 43.109375 
Q 14.796875 37.75 14.796875 27.984375 
Q 14.796875 18.265625 18.828125 12.890625 
Q 22.859375 7.515625 30.078125 7.515625 
Q 37.359375 7.515625 41.375 12.890625 
Q 45.40625 18.265625 45.40625 27.984375 
z
M 54.390625 6.78125 
Q 54.390625 -7.171875 48.1875 -13.984375 
Q 42 -20.796875 29.203125 -20.796875 
Q 24.46875 -20.796875 20.265625 -20.09375 
Q 16.0625 -19.390625 12.109375 -17.921875 
L 12.109375 -9.1875 
Q 16.0625 -11.328125 19.921875 -12.34375 
Q 23.78125 -13.375 27.78125 -13.375 
Q 36.625 -13.375 41.015625 -8.765625 
Q 45.40625 -4.15625 45.40625 5.171875 
L 45.40625 9.625 
Q 42.625 4.78125 38.28125 2.390625 
Q 33.9375 0 27.875 0 
Q 17.828125 0 11.671875 7.65625 
Q 5.515625 15.328125 5.515625 27.984375 
Q 5.515625 40.671875 11.671875 48.328125 
Q 17.828125 56 27.875 56 
Q 33.9375 56 38.28125 53.609375 
Q 42.625 51.21875 45.40625 46.390625 
L 45.40625 54.6875 
L 54.390625 54.6875 
z
" id="DejaVuSans-103"/>
       <path d="M 54.890625 33.015625 
L 54.890625 0 
L 45.90625 0 
L 45.90625 32.71875 
Q 45.90625 40.484375 42.875 44.328125 
Q 39.84375 48.1875 33.796875 48.1875 
Q 26.515625 48.1875 22.3125 43.546875 
Q 18.109375 38.921875 18.109375 30.90625 
L 18.109375 0 
L 9.078125 0 
L 9.078125 75.984375 
L 18.109375 75.984375 
L 18.109375 46.1875 
Q 21.34375 51.125 25.703125 53.5625 
Q 30.078125 56 35.796875 56 
Q 45.21875 56 50.046875 50.171875 
Q 54.890625 44.34375 54.890625 33.015625 
z
" id="DejaVuSans-104"/>
       <path d="M 45.40625 46.390625 
L 45.40625 75.984375 
L 54.390625 75.984375 
L 54.390625 0 
L 45.40625 0 
L 45.40625 8.203125 
Q 42.578125 3.328125 38.25 0.953125 
Q 33.9375 -1.421875 27.875 -1.421875 
Q 17.96875 -1.421875 11.734375 6.484375 
Q 5.515625 14.40625 5.515625 27.296875 
Q 5.515625 40.1875 11.734375 48.09375 
Q 17.96875 56 27.875 56 
Q 33.9375 56 38.25 53.625 
Q 42.578125 51.265625 45.40625 46.390625 
z
M 14.796875 27.296875 
Q 14.796875 17.390625 18.875 11.75 
Q 22.953125 6.109375 30.078125 6.109375 
Q 37.203125 6.109375 41.296875 11.75 
Q 45.40625 17.390625 45.40625 27.296875 
Q 45.40625 37.203125 41.296875 42.84375 
Q 37.203125 48.484375 30.078125 48.484375 
Q 22.953125 48.484375 18.875 42.84375 
Q 14.796875 37.203125 14.796875 27.296875 
z
" id="DejaVuSans-100"/>
      </defs>
      <use xlink:href="#DejaVuSans-102"/>
      <use x="35.205078" xlink:href="#DejaVuSans-97"/>
      <use x="96.484375" xlink:href="#DejaVuSans-99"/>
      <use x="151.464844" xlink:href="#DejaVuSans-116"/>
      <use x="190.673828" xlink:href="#DejaVuSans-111"/>
      <use x="251.855469" xlink:href="#DejaVuSans-114"/>
      <use x="292.96875" xlink:href="#DejaVuSans-95"/>
      <use x="342.96875" xlink:href="#DejaVuSans-119"/>
      <use x="424.755859" xlink:href="#DejaVuSans-101"/>
      <use x="486.279297" xlink:href="#DejaVuSans-105"/>
      <use x="514.0625" xlink:href="#DejaVuSans-103"/>
      <use x="577.539062" xlink:href="#DejaVuSans-104"/>
      <use x="640.917969" xlink:href="#DejaVuSans-116"/>
      <use x="680.126953" xlink:href="#DejaVuSans-101"/>
      <use x="741.650391" xlink:href="#DejaVuSans-100"/>
     </g>
    </g>
    <g id="line2d_20">
     <path d="M 56.36 53.974688 
L 76.36 53.974688 
" style="fill:none;stroke:#ff7f0e;stroke-linecap:square;stroke-width:1.5;"/>
    </g>
    <g id="line2d_21"/>
    <g id="text_11">
     <!-- benchmark -->
     <g transform="translate(84.36 57.474688)scale(0.1 -0.1)">
      <defs>
       <path d="M 48.6875 27.296875 
Q 48.6875 37.203125 44.609375 42.84375 
Q 40.53125 48.484375 33.40625 48.484375 
Q 26.265625 48.484375 22.1875 42.84375 
Q 18.109375 37.203125 18.109375 27.296875 
Q 18.109375 17.390625 22.1875 11.75 
Q 26.265625 6.109375 33.40625 6.109375 
Q 40.53125 6.109375 44.609375 11.75 
Q 48.6875 17.390625 48.6875 27.296875 
z
M 18.109375 46.390625 
Q 20.953125 51.265625 25.265625 53.625 
Q 29.59375 56 35.59375 56 
Q 45.5625 56 51.78125 48.09375 
Q 58.015625 40.1875 58.015625 27.296875 
Q 58.015625 14.40625 51.78125 6.484375 
Q 45.5625 -1.421875 35.59375 -1.421875 
Q 29.59375 -1.421875 25.265625 0.953125 
Q 20.953125 3.328125 18.109375 8.203125 
L 18.109375 0 
L 9.078125 0 
L 9.078125 75.984375 
L 18.109375 75.984375 
z
" id="DejaVuSans-98"/>
       <path d="M 52 44.1875 
Q 55.375 50.25 60.0625 53.125 
Q 64.75 56 71.09375 56 
Q 79.640625 56 84.28125 50.015625 
Q 88.921875 44.046875 88.921875 33.015625 
L 88.921875 0 
L 79.890625 0 
L 79.890625 32.71875 
Q 79.890625 40.578125 77.09375 44.375 
Q 74.3125 48.1875 68.609375 48.1875 
Q 61.625 48.1875 57.5625 43.546875 
Q 53.515625 38.921875 53.515625 30.90625 
L 53.515625 0 
L 44.484375 0 
L 44.484375 32.71875 
Q 44.484375 40.625 41.703125 44.40625 
Q 38.921875 48.1875 33.109375 48.1875 
Q 26.21875 48.1875 22.15625 43.53125 
Q 18.109375 38.875 18.109375 30.90625 
L 18.109375 0 
L 9.078125 0 
L 9.078125 54.6875 
L 18.109375 54.6875 
L 18.109375 46.1875 
Q 21.1875 51.21875 25.484375 53.609375 
Q 29.78125 56 35.6875 56 
Q 41.65625 56 45.828125 52.96875 
Q 50 49.953125 52 44.1875 
z
" id="DejaVuSans-109"/>
       <path d="M 9.078125 75.984375 
L 18.109375 75.984375 
L 18.109375 31.109375 
L 44.921875 54.6875 
L 56.390625 54.6875 
L 27.390625 29.109375 
L 57.625 0 
L 45.90625 0 
L 18.109375 26.703125 
L 18.109375 0 
L 9.078125 0 
z
" id="DejaVuSans-107"/>
      </defs>
      <use xlink:href="#DejaVuSans-98"/>
      <use x="63.476562" xlink:href="#DejaVuSans-101"/>
      <use x="125" xlink:href="#DejaVuSans-110"/>
      <use x="188.378906" xlink:href="#DejaVuSans-99"/>
      <use x="243.359375" xlink:href="#DejaVuSans-104"/>
      <use x="306.738281" xlink:href="#DejaVuSans-109"/>
      <use x="404.150391" xlink:href="#DejaVuSans-97"/>
      <use x="465.429688" xlink:href="#DejaVuSans-114"/>
      <use x="506.542969" xlink:href="#DejaVuSans-107"/>
     </g>
    </g>
    <g id="line2d_22">
     <path d="M 56.36 68.652812 
L 76.36 68.652812 
" style="fill:none;stroke:#2ca02c;stroke-linecap:square;stroke-width:1.5;"/>
    </g>
    <g id="line2d_23"/>
    <g id="text_12">
     <!-- excess -->
     <g transform="translate(84.36 72.152812)scale(0.1 -0.1)">
      <defs>
       <path d="M 54.890625 54.6875 
L 35.109375 28.078125 
L 55.90625 0 
L 45.3125 0 
L 29.390625 21.484375 
L 13.484375 0 
L 2.875 0 
L 24.125 28.609375 
L 4.6875 54.6875 
L 15.28125 54.6875 
L 29.78125 35.203125 
L 44.28125 54.6875 
z
" id="DejaVuSans-120"/>
       <path d="M 44.28125 53.078125 
L 44.28125 44.578125 
Q 40.484375 46.53125 36.375 47.5 
Q 32.28125 48.484375 27.875 48.484375 
Q 21.1875 48.484375 17.84375 46.4375 
Q 14.5 44.390625 14.5 40.28125 
Q 14.5 37.15625 16.890625 35.375 
Q 19.28125 33.59375 26.515625 31.984375 
L 29.59375 31.296875 
Q 39.15625 29.25 43.1875 25.515625 
Q 47.21875 21.78125 47.21875 15.09375 
Q 47.21875 7.46875 41.1875 3.015625 
Q 35.15625 -1.421875 24.609375 -1.421875 
Q 20.21875 -1.421875 15.453125 -0.5625 
Q 10.6875 0.296875 5.421875 2 
L 5.421875 11.28125 
Q 10.40625 8.6875 15.234375 7.390625 
Q 20.0625 6.109375 24.8125 6.109375 
Q 31.15625 6.109375 34.5625 8.28125 
Q 37.984375 10.453125 37.984375 14.40625 
Q 37.984375 18.0625 35.515625 20.015625 
Q 33.0625 21.96875 24.703125 23.78125 
L 21.578125 24.515625 
Q 13.234375 26.265625 9.515625 29.90625 
Q 5.8125 33.546875 5.8125 39.890625 
Q 5.8125 47.609375 11.28125 51.796875 
Q 16.75 56 26.8125 56 
Q 31.78125 56 36.171875 55.265625 
Q 40.578125 54.546875 44.28125 53.078125 
z
" id="DejaVuSans-115"/>
      </defs>
      <use xlink:href="#DejaVuSans-101"/>
      <use x="59.773438" xlink:href="#DejaVuSans-120"/>
      <use x="117.203125" xlink:href="#DejaVuSans-99"/>
      <use x="172.183594" xlink:href="#DejaVuSans-101"/>
      <use x="233.707031" xlink:href="#DejaVuSans-115"/>
      <use x="285.806641" xlink:href="#DejaVuSans-115"/>
     </g>
    </g>
   </g>
  </g>
 </g>
 <defs>
  <clipPath id="p8e83af6a58">
   <rect height="391.78" width="1093.84" x="47.36" y="25.92"/>
  </clipPath>
 </defs>
</svg>
