<?xml version="1.0" encoding="utf-8" standalone="no"?>
<!DOCTYPE svg PUBLIC "-//W3C//DTD SVG 1.1//EN"
  "http://www.w3.org/Graphics/SVG/1.1/DTD/svg11.dtd">
<!-- Created with matplotlib (https://matplotlib.org/) -->
<svg height="360pt" version="1.1" viewBox="0 0 1152 360" width="1152pt" xmlns="http://www.w3.org/2000/svg" xmlns:xlink="http://www.w3.org/1999/xlink">
 <metadata>
  <rdf:RDF xmlns:cc="http://creativecommons.org/ns#" xmlns:dc="http://purl.org/dc/elements/1.1/" xmlns:rdf="http://www.w3.org/1999/02/22-rdf-syntax-ns#">
   <cc:Work>
    <dc:type rdf:resource="http://purl.org/dc/dcmitype/StillImage"/>
    <dc:date>2023-10-11T16:35:39.011845</dc:date>
    <dc:format>image/svg+xml</dc:format>
    <dc:creator>
     <cc:Agent>
      <dc:title>Matplotlib v3.3.4, https://matplotlib.org/</dc:title>
     </cc:Agent>
    </dc:creator>
   </cc:Work>
  </rdf:RDF>
 </metadata>
 <defs>
  <style type="text/css">*{stroke-linecap:butt;stroke-linejoin:round;}</style>
 </defs>
 <g id="figure_1">
  <g id="patch_1">
   <path d="M 0 360 
L 1152 360 
L 1152 0 
L 0 0 
z
" style="fill:#ffffff;"/>
  </g>
  <g id="axes_1">
   <g id="patch_2">
    <path d="M 50.9 316.76 
L 1141.2 316.76 
L 1141.2 25.92 
L 50.9 25.92 
z
" style="fill:#ffffff;"/>
   </g>
   <g id="matplotlib.axis_1">
    <g id="xtick_1">
     <g id="line2d_1">
      <path clip-path="url(#pcbf1108141)" d="M 59.927492 316.76 
L 59.927492 25.92 
" style="fill:none;stroke:#b0b0b0;stroke-linecap:square;stroke-width:0.8;"/>
     </g>
     <g id="line2d_2">
      <defs>
       <path d="M 0 0 
L 0 3.5 
" id="mf3389e3931" style="stroke:#000000;stroke-width:0.8;"/>
      </defs>
      <g>
       <use style="stroke:#000000;stroke-width:0.8;" x="59.927492" xlink:href="#mf3389e3931" y="316.76"/>
      </g>
     </g>
     <g id="text_1">
      <!-- 2010 -->
      <g transform="translate(62.686867 349.21)rotate(-90)scale(0.1 -0.1)">
       <defs>
        <path d="M 19.1875 8.296875 
L 53.609375 8.296875 
L 53.609375 0 
L 7.328125 0 
L 7.328125 8.296875 
Q 12.9375 14.109375 22.625 23.890625 
Q 32.328125 33.6875 34.8125 36.53125 
Q 39.546875 41.84375 41.421875 45.53125 
Q 43.3125 49.21875 43.3125 52.78125 
Q 43.3125 58.59375 39.234375 62.25 
Q 35.15625 65.921875 28.609375 65.921875 
Q 23.96875 65.921875 18.8125 64.3125 
Q 13.671875 62.703125 7.8125 59.421875 
L 7.8125 69.390625 
Q 13.765625 71.78125 18.9375 73 
Q 24.125 74.21875 28.421875 74.21875 
Q 39.75 74.21875 46.484375 68.546875 
Q 53.21875 62.890625 53.21875 53.421875 
Q 53.21875 48.921875 51.53125 44.890625 
Q 49.859375 40.875 45.40625 35.40625 
Q 44.1875 33.984375 37.640625 27.21875 
Q 31.109375 20.453125 19.1875 8.296875 
z
" id="DejaVuSans-50"/>
        <path d="M 31.78125 66.40625 
Q 24.171875 66.40625 20.328125 58.90625 
Q 16.5 51.421875 16.5 36.375 
Q 16.5 21.390625 20.328125 13.890625 
Q 24.171875 6.390625 31.78125 6.390625 
Q 39.453125 6.390625 43.28125 13.890625 
Q 47.125 21.390625 47.125 36.375 
Q 47.125 51.421875 43.28125 58.90625 
Q 39.453125 66.40625 31.78125 66.40625 
z
M 31.78125 74.21875 
Q 44.046875 74.21875 50.515625 64.515625 
Q 56.984375 54.828125 56.984375 36.375 
Q 56.984375 17.96875 50.515625 8.265625 
Q 44.046875 -1.421875 31.78125 -1.421875 
Q 19.53125 -1.421875 13.0625 8.265625 
Q 6.59375 17.96875 6.59375 36.375 
Q 6.59375 54.828125 13.0625 64.515625 
Q 19.53125 74.21875 31.78125 74.21875 
z
" id="DejaVuSans-48"/>
        <path d="M 12.40625 8.296875 
L 28.515625 8.296875 
L 28.515625 63.921875 
L 10.984375 60.40625 
L 10.984375 69.390625 
L 28.421875 72.90625 
L 38.28125 72.90625 
L 38.28125 8.296875 
L 54.390625 8.296875 
L 54.390625 0 
L 12.40625 0 
z
" id="DejaVuSans-49"/>
       </defs>
       <use xlink:href="#DejaVuSans-50"/>
       <use x="63.623047" xlink:href="#DejaVuSans-48"/>
       <use x="127.246094" xlink:href="#DejaVuSans-49"/>
       <use x="190.869141" xlink:href="#DejaVuSans-48"/>
      </g>
     </g>
    </g>
   </g>
   <g id="matplotlib.axis_2">
    <g id="ytick_1">
     <g id="line2d_3">
      <path clip-path="url(#pcbf1108141)" d="M 50.9 314.523523 
L 1141.2 314.523523 
" style="fill:none;stroke:#b0b0b0;stroke-linecap:square;stroke-width:0.8;"/>
     </g>
     <g id="line2d_4">
      <defs>
       <path d="M 0 0 
L -3.5 0 
" id="m3f1bc85497" style="stroke:#000000;stroke-width:0.8;"/>
      </defs>
      <g>
       <use style="stroke:#000000;stroke-width:0.8;" x="50.9" xlink:href="#m3f1bc85497" y="314.523523"/>
      </g>
     </g>
     <g id="text_2">
      <!-- -2.5 -->
      <g transform="translate(24.389062 318.322742)scale(0.1 -0.1)">
       <defs>
        <path d="M 4.890625 31.390625 
L 31.203125 31.390625 
L 31.203125 23.390625 
L 4.890625 23.390625 
z
" id="DejaVuSans-45"/>
        <path d="M 10.6875 12.40625 
L 21 12.40625 
L 21 0 
L 10.6875 0 
z
" id="DejaVuSans-46"/>
        <path d="M 10.796875 72.90625 
L 49.515625 72.90625 
L 49.515625 64.59375 
L 19.828125 64.59375 
L 19.828125 46.734375 
Q 21.96875 47.46875 24.109375 47.828125 
Q 26.265625 48.1875 28.421875 48.1875 
Q 40.625 48.1875 47.75 41.5 
Q 54.890625 34.8125 54.890625 23.390625 
Q 54.890625 11.625 47.5625 5.09375 
Q 40.234375 -1.421875 26.90625 -1.421875 
Q 22.3125 -1.421875 17.546875 -0.640625 
Q 12.796875 0.140625 7.71875 1.703125 
L 7.71875 11.625 
Q 12.109375 9.234375 16.796875 8.0625 
Q 21.484375 6.890625 26.703125 6.890625 
Q 35.15625 6.890625 40.078125 11.328125 
Q 45.015625 15.765625 45.015625 23.390625 
Q 45.015625 31 40.078125 35.4375 
Q 35.15625 39.890625 26.703125 39.890625 
Q 22.75 39.890625 18.8125 39.015625 
Q 14.890625 38.140625 10.796875 36.28125 
z
" id="DejaVuSans-53"/>
       </defs>
       <use xlink:href="#DejaVuSans-45"/>
       <use x="36.083984" xlink:href="#DejaVuSans-50"/>
       <use x="99.707031" xlink:href="#DejaVuSans-46"/>
       <use x="131.494141" xlink:href="#DejaVuSans-53"/>
      </g>
     </g>
    </g>
    <g id="ytick_2">
     <g id="line2d_5">
      <path clip-path="url(#pcbf1108141)" d="M 50.9 273.460029 
L 1141.2 273.460029 
" style="fill:none;stroke:#b0b0b0;stroke-linecap:square;stroke-width:0.8;"/>
     </g>
     <g id="line2d_6">
      <g>
       <use style="stroke:#000000;stroke-width:0.8;" x="50.9" xlink:href="#m3f1bc85497" y="273.460029"/>
      </g>
     </g>
     <g id="text_3">
      <!-- -2.0 -->
      <g transform="translate(24.389062 277.259248)scale(0.1 -0.1)">
       <use xlink:href="#DejaVuSans-45"/>
       <use x="36.083984" xlink:href="#DejaVuSans-50"/>
       <use x="99.707031" xlink:href="#DejaVuSans-46"/>
       <use x="131.494141" xlink:href="#DejaVuSans-48"/>
      </g>
     </g>
    </g>
    <g id="ytick_3">
     <g id="line2d_7">
      <path clip-path="url(#pcbf1108141)" d="M 50.9 232.396534 
L 1141.2 232.396534 
" style="fill:none;stroke:#b0b0b0;stroke-linecap:square;stroke-width:0.8;"/>
     </g>
     <g id="line2d_8">
      <g>
       <use style="stroke:#000000;stroke-width:0.8;" x="50.9" xlink:href="#m3f1bc85497" y="232.396534"/>
      </g>
     </g>
     <g id="text_4">
      <!-- -1.5 -->
      <g transform="translate(24.389062 236.195753)scale(0.1 -0.1)">
       <use xlink:href="#DejaVuSans-45"/>
       <use x="36.083984" xlink:href="#DejaVuSans-49"/>
       <use x="99.707031" xlink:href="#DejaVuSans-46"/>
       <use x="131.494141" xlink:href="#DejaVuSans-53"/>
      </g>
     </g>
    </g>
    <g id="ytick_4">
     <g id="line2d_9">
      <path clip-path="url(#pcbf1108141)" d="M 50.9 191.33304 
L 1141.2 191.33304 
" style="fill:none;stroke:#b0b0b0;stroke-linecap:square;stroke-width:0.8;"/>
     </g>
     <g id="line2d_10">
      <g>
       <use style="stroke:#000000;stroke-width:0.8;" x="50.9" xlink:href="#m3f1bc85497" y="191.33304"/>
      </g>
     </g>
     <g id="text_5">
      <!-- -1.0 -->
      <g transform="translate(24.389062 195.132259)scale(0.1 -0.1)">
       <use xlink:href="#DejaVuSans-45"/>
       <use x="36.083984" xlink:href="#DejaVuSans-49"/>
       <use x="99.707031" xlink:href="#DejaVuSans-46"/>
       <use x="131.494141" xlink:href="#DejaVuSans-48"/>
      </g>
     </g>
    </g>
    <g id="ytick_5">
     <g id="line2d_11">
      <path clip-path="url(#pcbf1108141)" d="M 50.9 150.269545 
L 1141.2 150.269545 
" style="fill:none;stroke:#b0b0b0;stroke-linecap:square;stroke-width:0.8;"/>
     </g>
     <g id="line2d_12">
      <g>
       <use style="stroke:#000000;stroke-width:0.8;" x="50.9" xlink:href="#m3f1bc85497" y="150.269545"/>
      </g>
     </g>
     <g id="text_6">
      <!-- -0.5 -->
      <g transform="translate(24.389062 154.068764)scale(0.1 -0.1)">
       <use xlink:href="#DejaVuSans-45"/>
       <use x="36.083984" xlink:href="#DejaVuSans-48"/>
       <use x="99.707031" xlink:href="#DejaVuSans-46"/>
       <use x="131.494141" xlink:href="#DejaVuSans-53"/>
      </g>
     </g>
    </g>
    <g id="ytick_6">
     <g id="line2d_13">
      <path clip-path="url(#pcbf1108141)" d="M 50.9 109.206051 
L 1141.2 109.206051 
" style="fill:none;stroke:#b0b0b0;stroke-linecap:square;stroke-width:0.8;"/>
     </g>
     <g id="line2d_14">
      <g>
       <use style="stroke:#000000;stroke-width:0.8;" x="50.9" xlink:href="#m3f1bc85497" y="109.206051"/>
      </g>
     </g>
     <g id="text_7">
      <!-- 0.0 -->
      <g transform="translate(27.996875 113.00527)scale(0.1 -0.1)">
       <use xlink:href="#DejaVuSans-48"/>
       <use x="63.623047" xlink:href="#DejaVuSans-46"/>
       <use x="95.410156" xlink:href="#DejaVuSans-48"/>
      </g>
     </g>
    </g>
    <g id="ytick_7">
     <g id="line2d_15">
      <path clip-path="url(#pcbf1108141)" d="M 50.9 68.142556 
L 1141.2 68.142556 
" style="fill:none;stroke:#b0b0b0;stroke-linecap:square;stroke-width:0.8;"/>
     </g>
     <g id="line2d_16">
      <g>
       <use style="stroke:#000000;stroke-width:0.8;" x="50.9" xlink:href="#m3f1bc85497" y="68.142556"/>
      </g>
     </g>
     <g id="text_8">
      <!-- 0.5 -->
      <g transform="translate(27.996875 71.941775)scale(0.1 -0.1)">
       <use xlink:href="#DejaVuSans-48"/>
       <use x="63.623047" xlink:href="#DejaVuSans-46"/>
       <use x="95.410156" xlink:href="#DejaVuSans-53"/>
      </g>
     </g>
    </g>
    <g id="ytick_8">
     <g id="line2d_17">
      <path clip-path="url(#pcbf1108141)" d="M 50.9 27.079062 
L 1141.2 27.079062 
" style="fill:none;stroke:#b0b0b0;stroke-linecap:square;stroke-width:0.8;"/>
     </g>
     <g id="line2d_18">
      <g>
       <use style="stroke:#000000;stroke-width:0.8;" x="50.9" xlink:href="#m3f1bc85497" y="27.079062"/>
      </g>
     </g>
     <g id="text_9">
      <!-- 1.0 -->
      <g transform="translate(27.996875 30.87828)scale(0.1 -0.1)">
       <use xlink:href="#DejaVuSans-49"/>
       <use x="63.623047" xlink:href="#DejaVuSans-46"/>
       <use x="95.410156" xlink:href="#DejaVuSans-48"/>
      </g>
     </g>
    </g>
    <g id="text_10">
     <!-- log return cumsum -->
     <g transform="translate(18.309375 218.857969)rotate(-90)scale(0.1 -0.1)">
      <defs>
       <path d="M 9.421875 75.984375 
L 18.40625 75.984375 
L 18.40625 0 
L 9.421875 0 
z
" id="DejaVuSans-108"/>
       <path d="M 30.609375 48.390625 
Q 23.390625 48.390625 19.1875 42.75 
Q 14.984375 37.109375 14.984375 27.296875 
Q 14.984375 17.484375 19.15625 11.84375 
Q 23.34375 6.203125 30.609375 6.203125 
Q 37.796875 6.203125 41.984375 11.859375 
Q 46.1875 17.53125 46.1875 27.296875 
Q 46.1875 37.015625 41.984375 42.703125 
Q 37.796875 48.390625 30.609375 48.390625 
z
M 30.609375 56 
Q 42.328125 56 49.015625 48.375 
Q 55.71875 40.765625 55.71875 27.296875 
Q 55.71875 13.875 49.015625 6.21875 
Q 42.328125 -1.421875 30.609375 -1.421875 
Q 18.84375 -1.421875 12.171875 6.21875 
Q 5.515625 13.875 5.515625 27.296875 
Q 5.515625 40.765625 12.171875 48.375 
Q 18.84375 56 30.609375 56 
z
" id="DejaVuSans-111"/>
       <path d="M 45.40625 27.984375 
Q 45.40625 37.75 41.375 43.109375 
Q 37.359375 48.484375 30.078125 48.484375 
Q 22.859375 48.484375 18.828125 43.109375 
Q 14.796875 37.75 14.796875 27.984375 
Q 14.796875 18.265625 18.828125 12.890625 
Q 22.859375 7.515625 30.078125 7.515625 
Q 37.359375 7.515625 41.375 12.890625 
Q 45.40625 18.265625 45.40625 27.984375 
z
M 54.390625 6.78125 
Q 54.390625 -7.171875 48.1875 -13.984375 
Q 42 -20.796875 29.203125 -20.796875 
Q 24.46875 -20.796875 20.265625 -20.09375 
Q 16.0625 -19.390625 12.109375 -17.921875 
L 12.109375 -9.1875 
Q 16.0625 -11.328125 19.921875 -12.34375 
Q 23.78125 -13.375 27.78125 -13.375 
Q 36.625 -13.375 41.015625 -8.765625 
Q 45.40625 -4.15625 45.40625 5.171875 
L 45.40625 9.625 
Q 42.625 4.78125 38.28125 2.390625 
Q 33.9375 0 27.875 0 
Q 17.828125 0 11.671875 7.65625 
Q 5.515625 15.328125 5.515625 27.984375 
Q 5.515625 40.671875 11.671875 48.328125 
Q 17.828125 56 27.875 56 
Q 33.9375 56 38.28125 53.609375 
Q 42.625 51.21875 45.40625 46.390625 
L 45.40625 54.6875 
L 54.390625 54.6875 
z
" id="DejaVuSans-103"/>
       <path id="DejaVuSans-32"/>
       <path d="M 41.109375 46.296875 
Q 39.59375 47.171875 37.8125 47.578125 
Q 36.03125 48 33.890625 48 
Q 26.265625 48 22.1875 43.046875 
Q 18.109375 38.09375 18.109375 28.8125 
L 18.109375 0 
L 9.078125 0 
L 9.078125 54.6875 
L 18.109375 54.6875 
L 18.109375 46.1875 
Q 20.953125 51.171875 25.484375 53.578125 
Q 30.03125 56 36.53125 56 
Q 37.453125 56 38.578125 55.875 
Q 39.703125 55.765625 41.0625 55.515625 
z
" id="DejaVuSans-114"/>
       <path d="M 56.203125 29.59375 
L 56.203125 25.203125 
L 14.890625 25.203125 
Q 15.484375 15.921875 20.484375 11.0625 
Q 25.484375 6.203125 34.421875 6.203125 
Q 39.59375 6.203125 44.453125 7.46875 
Q 49.3125 8.734375 54.109375 11.28125 
L 54.109375 2.78125 
Q 49.265625 0.734375 44.1875 -0.34375 
Q 39.109375 -1.421875 33.890625 -1.421875 
Q 20.796875 -1.421875 13.15625 6.1875 
Q 5.515625 13.8125 5.515625 26.8125 
Q 5.515625 40.234375 12.765625 48.109375 
Q 20.015625 56 32.328125 56 
Q 43.359375 56 49.78125 48.890625 
Q 56.203125 41.796875 56.203125 29.59375 
z
M 47.21875 32.234375 
Q 47.125 39.59375 43.09375 43.984375 
Q 39.0625 48.390625 32.421875 48.390625 
Q 24.90625 48.390625 20.390625 44.140625 
Q 15.875 39.890625 15.1875 32.171875 
z
" id="DejaVuSans-101"/>
       <path d="M 18.3125 70.21875 
L 18.3125 54.6875 
L 36.8125 54.6875 
L 36.8125 47.703125 
L 18.3125 47.703125 
L 18.3125 18.015625 
Q 18.3125 11.328125 20.140625 9.421875 
Q 21.96875 7.515625 27.59375 7.515625 
L 36.8125 7.515625 
L 36.8125 0 
L 27.59375 0 
Q 17.1875 0 13.234375 3.875 
Q 9.28125 7.765625 9.28125 18.015625 
L 9.28125 47.703125 
L 2.6875 47.703125 
L 2.6875 54.6875 
L 9.28125 54.6875 
L 9.28125 70.21875 
z
" id="DejaVuSans-116"/>
       <path d="M 8.5 21.578125 
L 8.5 54.6875 
L 17.484375 54.6875 
L 17.484375 21.921875 
Q 17.484375 14.15625 20.5 10.265625 
Q 23.53125 6.390625 29.59375 6.390625 
Q 36.859375 6.390625 41.078125 11.03125 
Q 45.3125 15.671875 45.3125 23.6875 
L 45.3125 54.6875 
L 54.296875 54.6875 
L 54.296875 0 
L 45.3125 0 
L 45.3125 8.40625 
Q 42.046875 3.421875 37.71875 1 
Q 33.40625 -1.421875 27.6875 -1.421875 
Q 18.265625 -1.421875 13.375 4.4375 
Q 8.5 10.296875 8.5 21.578125 
z
M 31.109375 56 
z
" id="DejaVuSans-117"/>
       <path d="M 54.890625 33.015625 
L 54.890625 0 
L 45.90625 0 
L 45.90625 32.71875 
Q 45.90625 40.484375 42.875 44.328125 
Q 39.84375 48.1875 33.796875 48.1875 
Q 26.515625 48.1875 22.3125 43.546875 
Q 18.109375 38.921875 18.109375 30.90625 
L 18.109375 0 
L 9.078125 0 
L 9.078125 54.6875 
L 18.109375 54.6875 
L 18.109375 46.1875 
Q 21.34375 51.125 25.703125 53.5625 
Q 30.078125 56 35.796875 56 
Q 45.21875 56 50.046875 50.171875 
Q 54.890625 44.34375 54.890625 33.015625 
z
" id="DejaVuSans-110"/>
       <path d="M 48.78125 52.59375 
L 48.78125 44.1875 
Q 44.96875 46.296875 41.140625 47.34375 
Q 37.3125 48.390625 33.40625 48.390625 
Q 24.65625 48.390625 19.8125 42.84375 
Q 14.984375 37.3125 14.984375 27.296875 
Q 14.984375 17.28125 19.8125 11.734375 
Q 24.65625 6.203125 33.40625 6.203125 
Q 37.3125 6.203125 41.140625 7.25 
Q 44.96875 8.296875 48.78125 10.40625 
L 48.78125 2.09375 
Q 45.015625 0.34375 40.984375 -0.53125 
Q 36.96875 -1.421875 32.421875 -1.421875 
Q 20.0625 -1.421875 12.78125 6.34375 
Q 5.515625 14.109375 5.515625 27.296875 
Q 5.515625 40.671875 12.859375 48.328125 
Q 20.21875 56 33.015625 56 
Q 37.15625 56 41.109375 55.140625 
Q 45.0625 54.296875 48.78125 52.59375 
z
" id="DejaVuSans-99"/>
       <path d="M 52 44.1875 
Q 55.375 50.25 60.0625 53.125 
Q 64.75 56 71.09375 56 
Q 79.640625 56 84.28125 50.015625 
Q 88.921875 44.046875 88.921875 33.015625 
L 88.921875 0 
L 79.890625 0 
L 79.890625 32.71875 
Q 79.890625 40.578125 77.09375 44.375 
Q 74.3125 48.1875 68.609375 48.1875 
Q 61.625 48.1875 57.5625 43.546875 
Q 53.515625 38.921875 53.515625 30.90625 
L 53.515625 0 
L 44.484375 0 
L 44.484375 32.71875 
Q 44.484375 40.625 41.703125 44.40625 
Q 38.921875 48.1875 33.109375 48.1875 
Q 26.21875 48.1875 22.15625 43.53125 
Q 18.109375 38.875 18.109375 30.90625 
L 18.109375 0 
L 9.078125 0 
L 9.078125 54.6875 
L 18.109375 54.6875 
L 18.109375 46.1875 
Q 21.1875 51.21875 25.484375 53.609375 
Q 29.78125 56 35.6875 56 
Q 41.65625 56 45.828125 52.96875 
Q 50 49.953125 52 44.1875 
z
" id="DejaVuSans-109"/>
       <path d="M 44.28125 53.078125 
L 44.28125 44.578125 
Q 40.484375 46.53125 36.375 47.5 
Q 32.28125 48.484375 27.875 48.484375 
Q 21.1875 48.484375 17.84375 46.4375 
Q 14.5 44.390625 14.5 40.28125 
Q 14.5 37.15625 16.890625 35.375 
Q 19.28125 33.59375 26.515625 31.984375 
L 29.59375 31.296875 
Q 39.15625 29.25 43.1875 25.515625 
Q 47.21875 21.78125 47.21875 15.09375 
Q 47.21875 7.46875 41.1875 3.015625 
Q 35.15625 -1.421875 24.609375 -1.421875 
Q 20.21875 -1.421875 15.453125 -0.5625 
Q 10.6875 0.296875 5.421875 2 
L 5.421875 11.28125 
Q 10.40625 8.6875 15.234375 7.390625 
Q 20.0625 6.109375 24.8125 6.109375 
Q 31.15625 6.109375 34.5625 8.28125 
Q 37.984375 10.453125 37.984375 14.40625 
Q 37.984375 18.0625 35.515625 20.015625 
Q 33.0625 21.96875 24.703125 23.78125 
L 21.578125 24.515625 
Q 13.234375 26.265625 9.515625 29.90625 
Q 5.8125 33.546875 5.8125 39.890625 
Q 5.8125 47.609375 11.28125 51.796875 
Q 16.75 56 26.8125 56 
Q 31.78125 56 36.171875 55.265625 
Q 40.578125 54.546875 44.28125 53.078125 
z
" id="DejaVuSans-115"/>
      </defs>
      <use xlink:href="#DejaVuSans-108"/>
      <use x="27.783203" xlink:href="#DejaVuSans-111"/>
      <use x="88.964844" xlink:href="#DejaVuSans-103"/>
      <use x="152.441406" xlink:href="#DejaVuSans-32"/>
      <use x="184.228516" xlink:href="#DejaVuSans-114"/>
      <use x="223.091797" xlink:href="#DejaVuSans-101"/>
      <use x="284.615234" xlink:href="#DejaVuSans-116"/>
      <use x="323.824219" xlink:href="#DejaVuSans-117"/>
      <use x="387.203125" xlink:href="#DejaVuSans-114"/>
      <use x="426.566406" xlink:href="#DejaVuSans-110"/>
      <use x="489.945312" xlink:href="#DejaVuSans-32"/>
      <use x="521.732422" xlink:href="#DejaVuSans-99"/>
      <use x="576.712891" xlink:href="#DejaVuSans-117"/>
      <use x="640.091797" xlink:href="#DejaVuSans-109"/>
      <use x="737.503906" xlink:href="#DejaVuSans-115"/>
      <use x="789.603516" xlink:href="#DejaVuSans-117"/>
      <use x="852.982422" xlink:href="#DejaVuSans-109"/>
     </g>
    </g>
   </g>
   <g id="line2d_19">
    <path clip-path="url(#pcbf1108141)" d="M 100.459091 114.169582 
L 104.143782 110.823636 
L 107.828472 113.99397 
L 111.513163 109.952855 
L 122.567236 106.794889 
L 126.251926 104.794154 
L 129.936617 108.597459 
L 133.621308 105.257077 
L 137.305999 111.83875 
L 148.360071 118.835453 
L 152.044762 124.164448 
L 155.729453 125.395987 
L 159.414143 128.289486 
L 163.098834 123.718925 
L 174.152906 123.077595 
L 177.837597 117.891636 
L 181.522288 119.53148 
L 185.206979 119.951106 
L 188.891669 123.225842 
L 199.945742 123.623917 
L 203.630433 122.438415 
L 207.315123 119.623986 
L 210.999814 123.224334 
L 214.684505 127.210775 
L 225.738577 129.191971 
L 229.423268 132.875777 
L 233.107959 129.023558 
L 236.79265 129.913451 
L 240.47734 129.505147 
L 251.531413 130.201941 
L 255.216103 131.890308 
L 258.900794 128.1302 
L 262.585485 121.76254 
L 266.270176 118.520666 
L 277.324248 123.751002 
L 281.008939 122.595296 
L 284.69363 120.864994 
L 288.37832 121.645709 
L 303.117083 125.854219 
L 306.801774 122.248175 
L 310.486465 122.399202 
L 314.171156 124.668858 
L 317.855847 118.460911 
L 328.909919 115.536641 
L 332.59461 123.840163 
L 336.2793 125.184132 
L 339.963991 120.841819 
L 343.648682 119.776357 
L 354.702754 116.053558 
L 358.387445 120.564241 
L 362.072136 126.545107 
L 365.756827 123.2701 
L 369.441517 125.033009 
L 380.49559 125.622291 
L 384.180281 121.716492 
L 387.864971 127.1876 
L 391.549662 122.27313 
L 395.234353 121.843033 
L 406.288425 125.907662 
L 409.973116 123.726811 
L 413.657807 126.605566 
L 417.342497 127.562078 
L 421.027188 134.57055 
L 432.081261 138.039968 
L 435.765951 137.287432 
L 439.450642 139.27849 
L 443.135333 135.235937 
L 446.820024 138.199239 
L 457.874096 132.340357 
L 461.558787 127.563046 
L 465.243478 134.049674 
L 468.928168 129.630587 
L 472.612859 130.493173 
L 483.666931 134.966779 
L 487.351622 137.441563 
L 491.036313 134.170115 
L 494.721004 135.084064 
L 498.405694 128.705149 
L 509.459767 133.026431 
L 513.144458 135.045186 
L 516.829148 130.647038 
L 520.513839 127.176594 
L 524.19853 134.197548 
L 535.252602 132.027247 
L 538.937293 128.96935 
L 542.621984 127.112172 
L 546.306675 128.782121 
L 549.991365 131.404982 
L 561.045438 135.01062 
L 564.730128 131.554885 
L 568.414819 129.255287 
L 572.09951 131.498453 
L 575.784201 129.982485 
L 586.838273 129.662621 
L 590.522964 128.234145 
L 594.207655 124.50321 
L 597.892345 125.075329 
L 601.577036 129.113483 
L 612.631108 133.986168 
L 616.315799 131.965556 
L 620.00049 132.095661 
L 623.685181 134.035625 
L 627.369872 131.872377 
L 638.423944 134.999565 
L 642.108635 131.689671 
L 645.793325 138.438118 
L 649.478016 142.467435 
L 653.162707 144.790283 
L 664.216779 145.526114 
L 667.90147 143.291349 
L 671.586161 144.993718 
L 675.270852 145.702559 
L 678.955542 143.772922 
L 690.009615 145.311196 
L 693.694306 144.262712 
L 697.378996 150.472095 
L 701.063687 148.515838 
L 704.748378 144.692995 
L 715.80245 142.094437 
L 719.487141 137.583659 
L 723.171832 144.735844 
L 726.856522 140.762374 
L 730.541213 140.244366 
L 745.279976 141.472719 
L 748.964667 143.994251 
L 752.649358 142.713598 
L 756.334049 141.86656 
L 767.388121 139.788659 
L 771.072812 142.924288 
L 774.757503 141.581405 
L 778.442193 141.176574 
L 782.126884 142.857727 
L 793.180956 143.900406 
L 796.865647 151.161164 
L 800.550338 155.47982 
L 804.235029 158.720661 
L 807.919719 156.101568 
L 818.973792 149.132885 
L 822.658483 152.0216 
L 826.343173 157.429725 
L 830.027864 156.945496 
L 833.712555 154.30561 
L 844.766627 157.63462 
L 848.451318 154.177483 
L 852.136009 147.40905 
L 855.8207 148.640306 
L 859.50539 141.885607 
L 874.244153 139.758629 
L 877.928844 133.220094 
L 881.613535 132.844039 
L 885.298226 130.433424 
L 896.352298 132.005037 
L 900.036989 132.207557 
L 907.40637 134.539836 
L 911.091061 137.387487 
L 922.145133 138.900956 
L 925.829824 135.421542 
L 929.514515 139.366418 
L 933.199206 140.79564 
L 936.883897 141.281666 
L 947.937969 142.533015 
L 951.62266 148.127099 
L 955.30735 153.100037 
L 962.676732 152.710482 
L 973.730804 157.453007 
L 977.415495 156.692687 
L 981.100186 150.78823 
L 984.784877 151.57489 
L 988.469567 147.733085 
L 999.52364 143.111044 
L 1003.208331 147.438523 
L 1006.893021 149.000042 
L 1010.577712 147.749102 
L 1014.262403 151.021042 
L 1025.316475 147.810877 
L 1029.001166 145.854373 
L 1032.685857 145.771037 
L 1036.370547 139.824403 
L 1040.055238 136.715105 
L 1051.109311 140.310486 
L 1054.794001 147.199419 
L 1058.478692 145.112099 
L 1062.163383 145.881122 
L 1065.848074 145.198814 
L 1076.902146 145.97407 
L 1080.586837 142.986857 
L 1084.271528 141.14499 
L 1087.956218 147.929637 
L 1091.640909 147.929637 
L 1091.640909 147.929637 
" style="fill:none;stroke:#9467bd;stroke-linecap:square;stroke-width:1.5;"/>
   </g>
   <g id="line2d_20">
    <path clip-path="url(#pcbf1108141)" d="M 100.459091 103.441659 
L 104.143782 106.826728 
L 107.828472 111.746186 
L 111.513163 111.878483 
L 122.567236 109.624586 
L 126.251926 107.443716 
L 129.936617 105.446346 
L 133.621308 102.077458 
L 137.305999 100.217854 
L 148.360071 95.522034 
L 152.044762 102.22681 
L 155.729453 103.742177 
L 159.414143 102.926879 
L 163.098834 106.703563 
L 174.152906 107.695254 
L 177.837597 106.722601 
L 181.522288 108.993584 
L 185.206979 111.988727 
L 188.891669 106.467068 
L 199.945742 106.253964 
L 203.630433 98.986164 
L 207.315123 103.774176 
L 210.999814 107.232486 
L 214.684505 106.217329 
L 225.738577 112.829266 
L 229.423268 119.789583 
L 233.107959 120.97413 
L 236.79265 124.042255 
L 240.47734 128.766654 
L 251.531413 128.200518 
L 255.216103 128.960217 
L 258.900794 123.575377 
L 262.585485 131.361926 
L 266.270176 129.107456 
L 277.324248 131.321914 
L 281.008939 130.944484 
L 284.69363 129.959243 
L 288.37832 123.065762 
L 292.063011 118.221657 
L 303.117083 116.448547 
L 306.801774 109.075323 
L 310.486465 106.694205 
L 314.171156 108.344613 
L 317.855847 111.551382 
L 328.909919 107.111614 
L 332.59461 111.311017 
L 336.2793 106.252043 
L 339.963991 107.660451 
L 343.648682 103.448303 
L 354.702754 99.572031 
L 358.387445 98.82415 
L 362.072136 97.643939 
L 365.756827 98.004264 
L 369.441517 95.687109 
L 380.49559 97.845193 
L 384.180281 96.040096 
L 387.864971 91.515343 
L 391.549662 91.925316 
L 395.234353 96.045346 
L 406.288425 95.693123 
L 409.973116 93.924726 
L 413.657807 100.654897 
L 417.342497 97.740811 
L 421.027188 97.039961 
L 432.081261 97.195527 
L 435.765951 95.4649 
L 439.450642 96.811867 
L 443.135333 100.42262 
L 446.820024 98.829493 
L 457.874096 95.413982 
L 461.558787 95.012297 
L 465.243478 96.242367 
L 468.928168 100.477889 
L 472.612859 95.975728 
L 483.666931 101.096977 
L 487.351622 99.87393 
L 491.036313 96.952504 
L 494.721004 92.009642 
L 498.405694 92.735619 
L 509.459767 86.333913 
L 513.144458 79.908175 
L 516.829148 80.969252 
L 520.513839 82.249743 
L 524.19853 82.009504 
L 535.252602 77.062788 
L 538.937293 74.431563 
L 542.621984 76.055279 
L 546.306675 75.061105 
L 549.991365 74.626367 
L 561.045438 77.105134 
L 564.730128 74.962594 
L 568.414819 68.678618 
L 572.09951 72.643621 
L 575.784201 71.754166 
L 586.838273 73.606301 
L 590.522964 72.570173 
L 594.207655 70.990974 
L 597.892345 68.744895 
L 601.577036 70.365221 
L 612.631108 73.178495 
L 616.315799 71.403055 
L 620.00049 68.15175 
L 623.685181 71.386806 
L 627.369872 67.811695 
L 638.423944 66.435093 
L 642.108635 65.854308 
L 645.793325 69.12652 
L 649.478016 71.224689 
L 653.162707 70.580558 
L 664.216779 70.358835 
L 667.90147 69.948904 
L 671.586161 69.421175 
L 675.270852 71.245127 
L 678.955542 67.521105 
L 690.009615 64.425573 
L 693.694306 59.962116 
L 697.378996 67.077456 
L 701.063687 71.117729 
L 704.748378 67.467659 
L 719.487141 69.391341 
L 723.171832 73.07742 
L 726.856522 75.552536 
L 730.541213 70.287529 
L 741.595286 68.895269 
L 745.279976 77.002959 
L 748.964667 75.459156 
L 752.649358 74.427952 
L 756.334049 73.631604 
L 767.388121 70.413659 
L 771.072812 70.13265 
L 774.757503 71.200877 
L 778.442193 68.186333 
L 782.126884 64.387726 
L 793.180956 70.761052 
L 796.865647 72.478458 
L 800.550338 68.069096 
L 804.235029 70.129883 
L 807.919719 65.470772 
L 818.973792 61.35044 
L 822.658483 56.990003 
L 826.343173 59.257606 
L 830.027864 65.440441 
L 833.712555 61.032594 
L 844.766627 60.303342 
L 848.451318 58.561613 
L 852.136009 56.400908 
L 855.8207 57.757786 
L 859.50539 57.773372 
L 870.559463 58.558534 
L 874.244153 61.60032 
L 877.928844 54.509657 
L 881.613535 54.037898 
L 885.298226 49.283552 
L 896.352298 49.334555 
L 900.036989 43.956387 
L 903.72168 42.055019 
L 907.40637 41.434711 
L 911.091061 39.14 
L 922.145133 42.082592 
L 925.829824 41.979719 
L 929.514515 42.469298 
L 933.199206 46.149386 
L 936.883897 49.346397 
L 947.937969 49.738527 
L 951.62266 48.051228 
L 955.30735 52.638543 
L 958.992041 51.357833 
L 962.676732 52.114061 
L 973.730804 51.757823 
L 977.415495 52.486208 
L 981.100186 53.403435 
L 984.784877 52.485189 
L 988.469567 49.127199 
L 999.52364 44.366314 
L 1003.208331 40.883902 
L 1006.893021 45.060635 
L 1010.577712 42.928916 
L 1014.262403 48.739137 
L 1025.316475 48.956934 
L 1029.001166 53.869301 
L 1032.685857 55.90526 
L 1036.370547 52.459778 
L 1040.055238 51.023727 
L 1051.109311 55.717532 
L 1054.794001 55.820459 
L 1058.478692 56.595344 
L 1062.163383 56.202194 
L 1065.848074 55.190734 
L 1076.902146 57.533809 
L 1080.586837 59.74523 
L 1084.271528 58.000244 
L 1087.956218 55.638564 
L 1091.640909 55.638564 
L 1091.640909 55.638564 
" style="fill:none;stroke:#1f77b4;stroke-linecap:square;stroke-width:1.5;"/>
   </g>
   <g id="line2d_21">
    <path clip-path="url(#pcbf1108141)" d="M 100.459091 103.401507 
L 104.143782 101.757223 
L 107.828472 98.408748 
L 111.513163 106.68687 
L 122.567236 99.309877 
L 126.251926 94.023239 
L 129.936617 98.889551 
L 137.305999 109.661535 
L 148.360071 112.941571 
L 152.044762 112.53594 
L 155.729453 113.661447 
L 159.414143 117.16424 
L 163.098834 115.34726 
L 174.152906 121.493039 
L 177.837597 124.98014 
L 181.522288 127.205067 
L 185.206979 127.929824 
L 188.891669 123.374404 
L 199.945742 128.461745 
L 203.630433 128.228271 
L 207.315123 126.724182 
L 210.999814 134.533729 
L 214.684505 132.785992 
L 225.738577 138.38431 
L 229.423268 145.858531 
L 233.107959 138.797812 
L 236.79265 131.485073 
L 240.47734 126.569604 
L 251.531413 129.843288 
L 255.216103 136.732741 
L 258.900794 133.761058 
L 262.585485 134.750008 
L 266.270176 141.205364 
L 277.324248 141.284623 
L 281.008939 149.312345 
L 284.69363 142.850138 
L 288.37832 146.911037 
L 292.063011 144.284011 
L 303.117083 147.436468 
L 306.801774 147.107503 
L 310.486465 146.34383 
L 314.171156 151.690548 
L 317.855847 144.318438 
L 328.909919 139.919229 
L 332.59461 133.000109 
L 336.2793 126.758237 
L 339.963991 125.165731 
L 343.648682 118.513146 
L 354.702754 125.566735 
L 358.387445 130.718601 
L 362.072136 138.550245 
L 365.756827 141.470575 
L 369.441517 143.319758 
L 380.49559 147.164026 
L 384.180281 141.934473 
L 387.864971 144.321718 
L 391.549662 148.001162 
L 395.234353 147.302839 
L 406.288425 153.423302 
L 409.973116 148.603815 
L 413.657807 155.907322 
L 417.342497 148.275825 
L 421.027188 143.92159 
L 432.081261 149.025676 
L 435.765951 157.577899 
L 439.450642 152.553213 
L 443.135333 149.223902 
L 446.820024 145.545967 
L 457.874096 141.206913 
L 461.558787 148.519505 
L 465.243478 150.877799 
L 468.928168 157.442846 
L 472.612859 151.685342 
L 483.666931 149.684689 
L 487.351622 152.510312 
L 491.036313 160.011401 
L 494.721004 163.176298 
L 498.405694 166.099131 
L 509.459767 162.411788 
L 513.144458 160.182874 
L 516.829148 154.057003 
L 520.513839 154.514657 
L 524.19853 161.013451 
L 535.252602 157.583454 
L 538.937293 153.407925 
L 542.621984 152.40754 
L 546.306675 148.073209 
L 549.991365 148.175182 
L 561.045438 147.802633 
L 564.730128 149.001509 
L 568.414819 157.191846 
L 572.09951 163.898956 
L 575.784201 171.980295 
L 586.838273 169.769719 
L 590.522964 172.877045 
L 594.207655 172.736389 
L 597.892345 166.300814 
L 601.577036 170.525616 
L 612.631108 172.010964 
L 616.315799 167.917183 
L 620.00049 172.497144 
L 623.685181 179.75705 
L 627.369872 183.285176 
L 638.423944 189.04724 
L 642.108635 182.276236 
L 645.793325 177.365052 
L 649.478016 175.202564 
L 653.162707 169.317184 
L 664.216779 164.474852 
L 667.90147 169.791501 
L 671.586161 163.584168 
L 675.270852 162.940486 
L 678.955542 158.039826 
L 690.009615 151.778716 
L 693.694306 154.823844 
L 697.378996 161.492456 
L 701.063687 166.087407 
L 704.748378 167.293504 
L 715.80245 162.229377 
L 719.487141 156.508217 
L 723.171832 165.034377 
L 726.856522 164.858038 
L 730.541213 166.225924 
L 741.595286 170.922162 
L 745.279976 177.416136 
L 748.964667 180.127644 
L 752.649358 173.157044 
L 756.334049 176.113591 
L 767.388121 175.805526 
L 771.072812 172.53678 
L 774.757503 174.807831 
L 782.126884 160.137862 
L 793.180956 164.319616 
L 796.865647 164.364822 
L 800.550338 167.702384 
L 804.235029 171.314758 
L 807.919719 179.297241 
L 818.973792 177.517037 
L 822.658483 177.473045 
L 826.343173 185.19181 
L 830.027864 188.910567 
L 833.712555 182.464371 
L 844.766627 186.857607 
L 848.451318 192.907835 
L 852.136009 193.08126 
L 855.8207 185.468272 
L 859.50539 189.818315 
L 870.559463 187.0385 
L 874.244153 182.849943 
L 877.928844 187.276531 
L 881.613535 183.611018 
L 885.298226 185.811963 
L 896.352298 183.667042 
L 900.036989 181.502539 
L 903.72168 180.917018 
L 907.40637 187.938445 
L 911.091061 182.607773 
L 922.145133 185.605586 
L 925.829824 190.923138 
L 929.514515 198.835267 
L 933.199206 197.355722 
L 936.883897 194.48975 
L 947.937969 202.840513 
L 951.62266 202.64212 
L 955.30735 207.262078 
L 958.992041 204.911518 
L 962.676732 210.442301 
L 973.730804 207.364473 
L 977.415495 209.246286 
L 981.100186 202.368983 
L 984.784877 208.549693 
L 988.469567 211.202633 
L 999.52364 217.810313 
L 1003.208331 211.115032 
L 1006.893021 205.139818 
L 1010.577712 209.215187 
L 1014.262403 206.62855 
L 1025.316475 201.576663 
L 1029.001166 200.674936 
L 1032.685857 200.189352 
L 1036.370547 204.54291 
L 1040.055238 211.514024 
L 1051.109311 205.235801 
L 1054.794001 198.908865 
L 1058.478692 196.751213 
L 1062.163383 199.438709 
L 1065.848074 201.953618 
L 1076.902146 198.323624 
L 1084.271528 185.923061 
L 1087.956218 181.450047 
L 1087.956218 181.450047 
" style="fill:none;stroke:#8c564b;stroke-linecap:square;stroke-width:1.5;"/>
   </g>
   <g id="line2d_22">
    <path clip-path="url(#pcbf1108141)" d="M 100.459091 120.821115 
L 104.143782 119.085402 
L 107.828472 125.887032 
L 111.513163 114.672068 
L 122.567236 119.29898 
L 126.251926 122.80809 
L 129.936617 121.805869 
L 133.621308 113.594957 
L 137.305999 114.727373 
L 148.360071 118.295319 
L 152.044762 124.059358 
L 155.729453 124.163945 
L 159.414143 123.580003 
L 163.098834 120.765866 
L 174.152906 114.449789 
L 177.837597 106.119606 
L 181.522288 105.550107 
L 185.206979 105.247652 
L 188.891669 113.547728 
L 199.945742 109.13269 
L 203.630433 108.177967 
L 207.315123 106.843604 
L 210.999814 103.007448 
L 214.684505 108.86947 
L 225.738577 105.485857 
L 229.423268 102.018309 
L 233.107959 105.521086 
L 236.79265 114.531006 
L 240.47734 119.324438 
L 251.531413 116.846742 
L 255.216103 112.052193 
L 258.900794 111.234861 
L 262.585485 103.96252 
L 266.270176 94.959631 
L 277.324248 100.10558 
L 281.008939 91.735266 
L 284.69363 96.866893 
L 288.37832 93.741986 
L 292.063011 97.527498 
L 303.117083 97.546204 
L 306.801774 94.256232 
L 310.486465 95.179526 
L 314.171156 92.29304 
L 317.855847 93.56739 
L 328.909919 95.124265 
L 332.59461 111.83033 
L 336.2793 120.046136 
L 339.963991 117.243397 
L 343.648682 123.319792 
L 354.702754 113.378827 
L 358.387445 112.776487 
L 362.072136 111.092332 
L 365.756827 105.105726 
L 369.441517 105.021372 
L 380.49559 101.912456 
L 384.180281 103.323996 
L 387.864971 106.317877 
L 391.549662 98.082239 
L 395.234353 98.352759 
L 406.288425 96.442862 
L 409.973116 99.243725 
L 413.657807 95.186332 
L 417.342497 104.660675 
L 421.027188 116.689607 
L 432.081261 115.152524 
L 435.765951 106.722391 
L 439.450642 114.201536 
L 443.135333 113.458918 
L 446.820024 120.417584 
L 457.874096 118.816098 
L 461.558787 107.689552 
L 465.243478 111.698127 
L 468.928168 101.507687 
L 472.612859 108.629972 
L 483.666931 115.270514 
L 487.351622 114.931516 
L 491.036313 105.044997 
L 494.721004 102.878031 
L 498.405694 93.884339 
L 509.459767 102.28017 
L 513.144458 106.647862 
L 516.829148 108.510912 
L 520.513839 104.604132 
L 524.19853 105.086448 
L 535.252602 106.400301 
L 538.937293 107.576644 
L 542.621984 106.709406 
L 546.306675 113.051964 
L 549.991365 115.569675 
L 561.045438 119.566397 
L 564.730128 114.97739 
L 568.414819 105.427516 
L 572.09951 101.305007 
L 575.784201 92.560957 
L 586.838273 94.503867 
L 590.522964 90.13207 
L 594.207655 86.53577 
L 597.892345 94.141938 
L 601.577036 93.964639 
L 612.631108 97.290018 
L 616.315799 99.470565 
L 620.00049 95.255985 
L 623.685181 90.373024 
L 627.369872 84.913194 
L 638.423944 82.4542 
L 642.108635 86.219676 
L 645.793325 98.654979 
L 649.478016 105.018553 
L 653.162707 113.870619 
L 664.216779 119.800088 
L 667.90147 112.702182 
L 671.586161 121.266378 
L 675.270852 122.629632 
L 678.955542 125.786893 
L 690.009615 134.236992 
L 693.694306 130.28886 
L 697.378996 129.865354 
L 701.063687 123.657485 
L 704.748378 118.699691 
L 715.80245 121.324611 
L 719.487141 122.62301 
L 723.171832 121.383505 
L 726.856522 117.578399 
L 730.541213 115.723306 
L 741.595286 112.225589 
L 745.279976 106.422446 
L 748.964667 106.238632 
L 752.649358 112.452142 
L 756.334049 108.780088 
L 767.388121 107.003672 
L 771.072812 113.678943 
L 774.757503 110.161495 
L 778.442193 117.854161 
L 782.126884 127.67903 
L 793.180956 124.692992 
L 796.865647 131.904393 
L 800.550338 132.846191 
L 804.235029 132.490612 
L 807.919719 122.815449 
L 818.973792 117.516867 
L 822.658483 120.451173 
L 826.343173 118.345173 
L 830.027864 114.323776 
L 833.712555 118.448816 
L 844.766627 117.439684 
L 848.451318 108.572412 
L 852.136009 101.644596 
L 855.8207 111.400889 
L 859.50539 100.833743 
L 870.559463 102.001161 
L 874.244153 105.913241 
L 877.928844 95.488503 
L 881.613535 98.931294 
L 885.298226 94.438404 
L 896.352298 98.255603 
L 900.036989 100.686785 
L 903.72168 102.498211 
L 907.40637 97.064156 
L 911.091061 105.821191 
L 922.145133 104.389591 
L 925.829824 96.117324 
L 929.514515 92.506555 
L 933.199206 95.469164 
L 936.883897 98.942754 
L 947.937969 92.503544 
L 951.62266 98.310539 
L 955.30735 98.644171 
L 958.992041 100.826236 
L 962.676732 95.495537 
L 973.730804 103.629811 
L 977.415495 101.046599 
L 981.100186 102.104969 
L 984.784877 97.090273 
L 988.469567 90.794264 
L 999.52364 80.379958 
L 1003.208331 92.410879 
L 1006.893021 100.545479 
L 1010.577712 95.469223 
L 1014.262403 101.522333 
L 1025.316475 103.482307 
L 1029.001166 102.415961 
L 1032.685857 102.8206 
L 1036.370547 93.021732 
L 1040.055238 83.716963 
L 1051.109311 94.428314 
L 1054.794001 108.800576 
L 1058.478692 108.87278 
L 1062.163383 107.015378 
L 1065.848074 103.912784 
L 1076.902146 108.522805 
L 1080.586837 112.079196 
L 1084.271528 116.702282 
L 1087.956218 128.638117 
L 1087.956218 128.638117 
" style="fill:none;stroke:#e377c2;stroke-linecap:square;stroke-width:1.5;"/>
   </g>
   <g id="line2d_23">
    <path clip-path="url(#pcbf1108141)" d="M 100.459091 109.16298 
L 104.143782 104.330854 
L 107.828472 96.521506 
L 111.513163 104.653549 
L 122.567236 99.392379 
L 126.251926 96.204634 
L 129.936617 103.244742 
L 133.621308 112.401886 
L 137.305999 119.806941 
L 148.360071 128.277157 
L 152.044762 121.702468 
L 155.729453 121.319719 
L 159.414143 125.682055 
L 163.098834 120.331786 
L 174.152906 125.422055 
L 177.837597 129.936428 
L 181.522288 129.891628 
L 185.206979 127.701475 
L 188.891669 128.735337 
L 199.945742 134.050008 
L 203.630433 141.766724 
L 207.315123 135.818375 
L 210.999814 139.985557 
L 214.684505 139.243906 
L 225.738577 138.308249 
L 229.423268 138.780274 
L 233.107959 130.647423 
L 236.79265 120.62492 
L 240.47734 111.495098 
L 251.531413 115.362114 
L 255.216103 121.433288 
L 258.900794 124.012567 
L 262.585485 117.807217 
L 266.270176 126.773169 
L 277.324248 124.694061 
L 281.008939 133.13999 
L 284.69363 127.599103 
L 288.37832 139.586026 
L 292.063011 141.939757 
L 303.117083 146.976187 
L 306.801774 154.714254 
L 310.486465 156.379765 
L 314.171156 160.000892 
L 317.855847 149.802996 
L 328.909919 149.845808 
L 332.59461 139.247282 
L 336.2793 137.9898 
L 339.963991 135.039004 
L 343.648682 132.472123 
L 354.702754 143.968941 
L 358.387445 149.924663 
L 362.072136 159.074501 
L 365.756827 161.623123 
L 369.441517 165.911852 
L 380.49559 167.553865 
L 384.180281 164.054906 
L 387.864971 171.37637 
L 391.549662 174.629233 
L 395.234353 170.040176 
L 406.288425 176.541811 
L 409.973116 173.425556 
L 413.657807 173.953636 
L 417.342497 169.070802 
L 421.027188 165.386799 
L 432.081261 170.325666 
L 435.765951 180.842132 
L 439.450642 174.570271 
L 443.135333 167.916955 
L 446.820024 165.791835 
L 457.874096 164.829302 
L 461.558787 172.583245 
L 465.243478 173.694583 
L 468.928168 175.905423 
L 472.612859 174.579909 
L 483.666931 167.871448 
L 487.351622 171.982408 
L 491.036313 182.808331 
L 494.721004 191.446416 
L 498.405694 193.623679 
L 509.459767 196.562071 
L 513.144458 201.110075 
L 516.829148 194.011511 
L 520.513839 193.201341 
L 524.19853 199.960951 
L 535.252602 201.572764 
L 538.937293 199.978666 
L 542.621984 197.40514 
L 546.306675 194.02513 
L 549.991365 194.564699 
L 561.045438 191.796743 
L 564.730128 195.228348 
L 568.414819 210.971042 
L 572.09951 213.58183 
L 575.784201 222.655908 
L 586.838273 218.681638 
L 590.522964 222.879065 
L 594.207655 224.345787 
L 597.892345 220.043124 
L 601.577036 222.595919 
L 612.631108 221.312364 
L 616.315799 218.944081 
L 620.00049 227.107839 
L 623.685181 230.97351 
L 627.369872 238.407526 
L 638.423944 245.672354 
L 642.108635 239.439829 
L 645.793325 231.561233 
L 649.478016 227.405374 
L 653.162707 222.124155 
L 664.216779 217.4914 
L 667.90147 223.247664 
L 671.586161 217.532692 
L 675.270852 215.118468 
L 678.955542 213.887655 
L 690.009615 210.602882 
L 693.694306 218.551785 
L 697.378996 218.14204 
L 701.063687 218.670006 
L 704.748378 223.753839 
L 715.80245 217.410128 
L 719.487141 211.188051 
L 723.171832 215.809606 
L 726.856522 213.235647 
L 730.541213 220.327187 
L 741.595286 226.523807 
L 745.279976 225.060446 
L 748.964667 229.398674 
L 752.649358 223.386913 
L 756.334049 227.177232 
L 767.388121 230.205561 
L 771.072812 227.207768 
L 774.757503 228.394935 
L 778.442193 223.844694 
L 782.126884 220.217911 
L 793.180956 218.187976 
L 796.865647 216.550039 
L 800.550338 224.746287 
L 804.235029 226.259069 
L 807.919719 239.702281 
L 818.973792 242.164632 
L 822.658483 246.723097 
L 826.343173 252.020912 
L 830.027864 249.733065 
L 833.712555 247.583784 
L 844.766627 252.753429 
L 848.451318 260.720766 
L 852.136009 263.118038 
L 855.8207 254.287528 
L 859.50539 258.62114 
L 870.559463 255.089364 
L 874.244153 248.111064 
L 877.928844 260.750864 
L 881.613535 257.539066 
L 885.298226 264.928085 
L 896.352298 262.733506 
L 900.036989 266.169277 
L 903.72168 267.516196 
L 907.40637 275.218672 
L 911.091061 272.098301 
L 922.145133 272.151578 
L 925.829824 277.579026 
L 929.514515 284.955418 
L 933.199206 280.01522 
L 936.883897 274.175686 
L 947.937969 282.094522 
L 951.62266 283.614621 
L 955.30735 283.645491 
L 958.992041 282.558937 
L 962.676732 287.288446 
L 973.730804 284.555219 
L 977.415495 285.698391 
L 981.100186 277.98649 
L 984.784877 285.168857 
L 988.469567 291.440476 
L 999.52364 303.54 
L 1003.208331 300.190768 
L 1006.893021 290.51371 
L 1010.577712 296.890523 
L 1014.262403 289.040661 
L 1025.316475 283.784496 
L 1029.001166 278.296949 
L 1032.685857 275.836231 
L 1036.370547 283.986556 
L 1040.055238 292.550025 
L 1051.109311 282.150529 
L 1054.794001 275.728412 
L 1058.478692 272.822933 
L 1062.163383 275.918644 
L 1065.848074 279.489675 
L 1076.902146 273.678806 
L 1080.586837 265.405291 
L 1084.271528 260.934809 
L 1087.956218 258.762686 
L 1087.956218 258.762686 
" style="fill:none;stroke:#7f7f7f;stroke-linecap:square;stroke-width:1.5;"/>
   </g>
   <g id="line2d_24">
    <path clip-path="url(#pcbf1108141)" d="M 100.459091 120.771504 
L 104.143782 114.30186 
L 107.828472 112.653419 
L 111.513163 108.486557 
L 122.567236 107.557475 
L 126.251926 107.742463 
L 129.936617 113.69124 
L 133.621308 113.720941 
L 137.305999 122.366072 
L 148.360071 134.801363 
L 152.044762 133.532608 
L 155.729453 133.25396 
L 159.414143 137.000616 
L 163.098834 129.010876 
L 174.152906 127.397264 
L 177.837597 123.135042 
L 181.522288 122.521052 
L 185.206979 120.036389 
L 188.891669 129.481045 
L 199.945742 130.093817 
L 203.630433 136.762351 
L 207.315123 129.572167 
L 210.999814 129.708343 
L 214.684505 134.774107 
L 225.738577 130.492397 
L 229.423268 127.477305 
L 233.107959 122.510528 
L 236.79265 120.411158 
L 240.47734 115.557075 
L 251.531413 116.828808 
L 255.216103 117.748877 
L 258.900794 119.484881 
L 262.585485 106.515241 
L 266.270176 105.500526 
L 277.324248 108.43472 
L 284.69363 106.898864 
L 288.37832 115.280449 
L 292.063011 121.532406 
L 303.117083 126.588725 
L 306.801774 130.718805 
L 310.486465 133.326634 
L 314.171156 133.933516 
L 317.855847 124.860138 
L 328.909919 126.460645 
L 332.59461 130.355252 
L 336.2793 137.182386 
L 339.963991 131.526154 
L 343.648682 134.841825 
L 354.702754 135.002722 
L 358.387445 140.31098 
L 362.072136 147.580434 
L 365.756827 143.960671 
L 369.441517 148.160527 
L 380.49559 146.632036 
L 384.180281 144.485255 
L 387.864971 155.085401 
L 391.549662 149.786634 
L 395.234353 145.453372 
L 406.288425 149.889729 
L 409.973116 149.468321 
L 413.657807 145.913474 
L 417.342497 149.92735 
L 421.027188 157.705972 
L 435.765951 162.012472 
L 439.450642 162.646046 
L 443.135333 155.307661 
L 446.820024 159.955915 
L 457.874096 157.410377 
L 461.558787 153.013861 
L 465.243478 158.18976 
L 468.928168 149.949084 
L 472.612859 155.626821 
L 483.666931 155.018186 
L 487.351622 158.772786 
L 491.036313 158.410116 
L 494.721004 164.64438 
L 498.405694 157.59941 
L 509.459767 169.256275 
L 513.144458 178.427796 
L 516.829148 173.0364 
L 520.513839 168.35691 
L 524.19853 175.640347 
L 535.252602 178.592266 
L 538.937293 178.151739 
L 542.621984 174.737593 
L 546.306675 177.4347 
L 549.991365 180.508835 
L 561.045438 181.601979 
L 564.730128 180.254357 
L 568.414819 184.564024 
L 572.09951 182.922534 
L 575.784201 182.289225 
L 586.838273 180.165041 
L 590.522964 179.767722 
L 594.207655 177.574764 
L 597.892345 180.472495 
L 601.577036 182.8424 
L 612.631108 184.831613 
L 616.315799 184.58109 
L 620.00049 188.102021 
L 623.685181 186.856574 
L 627.369872 188.331824 
L 638.423944 192.913905 
L 642.108635 190.165747 
L 645.793325 193.503404 
L 649.478016 195.385278 
L 653.162707 198.376049 
L 664.216779 199.336206 
L 667.90147 197.502343 
L 671.586161 199.747016 
L 675.270852 198.656235 
L 678.955542 200.534817 
L 690.009615 205.351936 
L 693.694306 208.961895 
L 697.378996 208.130746 
L 701.063687 202.412291 
L 704.748378 202.231674 
L 715.80245 198.314847 
L 719.487141 193.295737 
L 723.171832 196.606605 
L 726.856522 190.342349 
L 730.541213 195.413535 
L 741.595286 197.844511 
L 745.279976 190.677014 
L 748.964667 194.82147 
L 752.649358 194.568874 
L 756.334049 194.517691 
L 767.388121 195.703621 
L 771.072812 199.132218 
L 774.757503 196.751819 
L 778.442193 199.460731 
L 782.126884 205.209187 
L 793.180956 200.264837 
L 796.865647 205.689597 
L 800.550338 214.927115 
L 804.235029 216.077721 
L 807.919719 218.238395 
L 818.973792 215.246135 
L 822.658483 222.909586 
L 826.343173 225.962971 
L 830.027864 219.761616 
L 833.712555 221.628174 
L 844.766627 225.72355 
L 848.451318 223.971762 
L 852.136009 219.244668 
L 855.8207 219.121103 
L 859.50539 212.352051 
L 870.559463 209.938219 
L 874.244153 206.546256 
L 877.928844 207.148355 
L 881.613535 207.24461 
L 885.298226 209.730159 
L 896.352298 211.249816 
L 900.036989 217.222254 
L 903.72168 220.410891 
L 907.40637 222.163915 
L 911.091061 227.456782 
L 922.145133 226.077538 
L 925.829824 222.696851 
L 929.514515 226.131176 
L 933.199206 223.977662 
L 936.883897 221.368556 
L 947.937969 222.223661 
L 951.62266 229.663242 
L 955.30735 230.02787 
L 958.992041 231.094322 
L 962.676732 230.187744 
L 973.730804 235.309377 
L 977.415495 233.8337 
L 981.100186 227.084751 
L 984.784877 228.809027 
L 988.469567 228.305082 
L 999.52364 228.45222 
L 1003.208331 236.61777 
L 1006.893021 234.130289 
L 1010.577712 235.034357 
L 1014.262403 232.666972 
L 1025.316475 229.247902 
L 1029.001166 222.762513 
L 1032.685857 220.694462 
L 1036.370547 218.08783 
L 1040.055238 216.385373 
L 1051.109311 215.347582 
L 1054.794001 222.124728 
L 1058.478692 219.288943 
L 1062.163383 220.456733 
L 1065.848074 220.789971 
L 1076.902146 219.265845 
L 1080.586837 214.201154 
L 1084.271528 214.102193 
L 1087.956218 223.531266 
L 1091.640909 223.531266 
L 1091.640909 223.531266 
" style="fill:none;stroke:#bcbd22;stroke-linecap:square;stroke-width:1.5;"/>
   </g>
   <g id="patch_3">
    <path d="M 50.9 316.76 
L 50.9 25.92 
" style="fill:none;stroke:#000000;stroke-linecap:square;stroke-linejoin:miter;stroke-width:0.8;"/>
   </g>
   <g id="patch_4">
    <path d="M 1141.2 316.76 
L 1141.2 25.92 
" style="fill:none;stroke:#000000;stroke-linecap:square;stroke-linejoin:miter;stroke-width:0.8;"/>
   </g>
   <g id="patch_5">
    <path d="M 50.9 316.76 
L 1141.2 316.76 
" style="fill:none;stroke:#000000;stroke-linecap:square;stroke-linejoin:miter;stroke-width:0.8;"/>
   </g>
   <g id="patch_6">
    <path d="M 50.9 25.92 
L 1141.2 25.92 
" style="fill:none;stroke:#000000;stroke-linecap:square;stroke-linejoin:miter;stroke-width:0.8;"/>
   </g>
   <g id="text_11">
    <!-- Cumulative Log Return: (2010-01-12 ~ 2010-10-08) -->
    <g transform="translate(440.172812 19.92)scale(0.12 -0.12)">
     <defs>
      <path d="M 64.40625 67.28125 
L 64.40625 56.890625 
Q 59.421875 61.53125 53.78125 63.8125 
Q 48.140625 66.109375 41.796875 66.109375 
Q 29.296875 66.109375 22.65625 58.46875 
Q 16.015625 50.828125 16.015625 36.375 
Q 16.015625 21.96875 22.65625 14.328125 
Q 29.296875 6.6875 41.796875 6.6875 
Q 48.140625 6.6875 53.78125 8.984375 
Q 59.421875 11.28125 64.40625 15.921875 
L 64.40625 5.609375 
Q 59.234375 2.09375 53.4375 0.328125 
Q 47.65625 -1.421875 41.21875 -1.421875 
Q 24.65625 -1.421875 15.125 8.703125 
Q 5.609375 18.84375 5.609375 36.375 
Q 5.609375 53.953125 15.125 64.078125 
Q 24.65625 74.21875 41.21875 74.21875 
Q 47.75 74.21875 53.53125 72.484375 
Q 59.328125 70.75 64.40625 67.28125 
z
" id="DejaVuSans-67"/>
      <path d="M 34.28125 27.484375 
Q 23.390625 27.484375 19.1875 25 
Q 14.984375 22.515625 14.984375 16.5 
Q 14.984375 11.71875 18.140625 8.90625 
Q 21.296875 6.109375 26.703125 6.109375 
Q 34.1875 6.109375 38.703125 11.40625 
Q 43.21875 16.703125 43.21875 25.484375 
L 43.21875 27.484375 
z
M 52.203125 31.203125 
L 52.203125 0 
L 43.21875 0 
L 43.21875 8.296875 
Q 40.140625 3.328125 35.546875 0.953125 
Q 30.953125 -1.421875 24.3125 -1.421875 
Q 15.921875 -1.421875 10.953125 3.296875 
Q 6 8.015625 6 15.921875 
Q 6 25.140625 12.171875 29.828125 
Q 18.359375 34.515625 30.609375 34.515625 
L 43.21875 34.515625 
L 43.21875 35.40625 
Q 43.21875 41.609375 39.140625 45 
Q 35.0625 48.390625 27.6875 48.390625 
Q 23 48.390625 18.546875 47.265625 
Q 14.109375 46.140625 10.015625 43.890625 
L 10.015625 52.203125 
Q 14.9375 54.109375 19.578125 55.046875 
Q 24.21875 56 28.609375 56 
Q 40.484375 56 46.34375 49.84375 
Q 52.203125 43.703125 52.203125 31.203125 
z
" id="DejaVuSans-97"/>
      <path d="M 9.421875 54.6875 
L 18.40625 54.6875 
L 18.40625 0 
L 9.421875 0 
z
M 9.421875 75.984375 
L 18.40625 75.984375 
L 18.40625 64.59375 
L 9.421875 64.59375 
z
" id="DejaVuSans-105"/>
      <path d="M 2.984375 54.6875 
L 12.5 54.6875 
L 29.59375 8.796875 
L 46.6875 54.6875 
L 56.203125 54.6875 
L 35.6875 0 
L 23.484375 0 
z
" id="DejaVuSans-118"/>
      <path d="M 9.8125 72.90625 
L 19.671875 72.90625 
L 19.671875 8.296875 
L 55.171875 8.296875 
L 55.171875 0 
L 9.8125 0 
z
" id="DejaVuSans-76"/>
      <path d="M 44.390625 34.1875 
Q 47.5625 33.109375 50.5625 29.59375 
Q 53.5625 26.078125 56.59375 19.921875 
L 66.609375 0 
L 56 0 
L 46.6875 18.703125 
Q 43.0625 26.03125 39.671875 28.421875 
Q 36.28125 30.8125 30.421875 30.8125 
L 19.671875 30.8125 
L 19.671875 0 
L 9.8125 0 
L 9.8125 72.90625 
L 32.078125 72.90625 
Q 44.578125 72.90625 50.734375 67.671875 
Q 56.890625 62.453125 56.890625 51.90625 
Q 56.890625 45.015625 53.6875 40.46875 
Q 50.484375 35.9375 44.390625 34.1875 
z
M 19.671875 64.796875 
L 19.671875 38.921875 
L 32.078125 38.921875 
Q 39.203125 38.921875 42.84375 42.21875 
Q 46.484375 45.515625 46.484375 51.90625 
Q 46.484375 58.296875 42.84375 61.546875 
Q 39.203125 64.796875 32.078125 64.796875 
z
" id="DejaVuSans-82"/>
      <path d="M 11.71875 12.40625 
L 22.015625 12.40625 
L 22.015625 0 
L 11.71875 0 
z
M 11.71875 51.703125 
L 22.015625 51.703125 
L 22.015625 39.3125 
L 11.71875 39.3125 
z
" id="DejaVuSans-58"/>
      <path d="M 31 75.875 
Q 24.46875 64.65625 21.28125 53.65625 
Q 18.109375 42.671875 18.109375 31.390625 
Q 18.109375 20.125 21.3125 9.0625 
Q 24.515625 -2 31 -13.1875 
L 23.1875 -13.1875 
Q 15.875 -1.703125 12.234375 9.375 
Q 8.59375 20.453125 8.59375 31.390625 
Q 8.59375 42.28125 12.203125 53.3125 
Q 15.828125 64.359375 23.1875 75.875 
z
" id="DejaVuSans-40"/>
      <path d="M 73.1875 39.890625 
L 73.1875 31.203125 
Q 68.0625 27.34375 63.6875 25.6875 
Q 59.328125 24.03125 54.59375 24.03125 
Q 49.21875 24.03125 42.09375 26.90625 
Q 41.546875 27.09375 41.3125 27.203125 
Q 40.96875 27.34375 40.234375 27.59375 
Q 32.671875 30.609375 28.078125 30.609375 
Q 23.78125 30.609375 19.578125 28.734375 
Q 15.375 26.859375 10.59375 22.796875 
L 10.59375 31.5 
Q 15.71875 35.359375 20.09375 37.03125 
Q 24.46875 38.71875 29.203125 38.71875 
Q 34.578125 38.71875 41.75 35.796875 
Q 42.234375 35.59375 42.484375 35.5 
Q 42.875 35.359375 43.5625 35.109375 
Q 51.125 32.078125 55.71875 32.078125 
Q 59.90625 32.078125 64.03125 33.9375 
Q 68.171875 35.796875 73.1875 39.890625 
z
" id="DejaVuSans-126"/>
      <path d="M 31.78125 34.625 
Q 24.75 34.625 20.71875 30.859375 
Q 16.703125 27.09375 16.703125 20.515625 
Q 16.703125 13.921875 20.71875 10.15625 
Q 24.75 6.390625 31.78125 6.390625 
Q 38.8125 6.390625 42.859375 10.171875 
Q 46.921875 13.96875 46.921875 20.515625 
Q 46.921875 27.09375 42.890625 30.859375 
Q 38.875 34.625 31.78125 34.625 
z
M 21.921875 38.8125 
Q 15.578125 40.375 12.03125 44.71875 
Q 8.5 49.078125 8.5 55.328125 
Q 8.5 64.0625 14.71875 69.140625 
Q 20.953125 74.21875 31.78125 74.21875 
Q 42.671875 74.21875 48.875 69.140625 
Q 55.078125 64.0625 55.078125 55.328125 
Q 55.078125 49.078125 51.53125 44.71875 
Q 48 40.375 41.703125 38.8125 
Q 48.828125 37.15625 52.796875 32.3125 
Q 56.78125 27.484375 56.78125 20.515625 
Q 56.78125 9.90625 50.3125 4.234375 
Q 43.84375 -1.421875 31.78125 -1.421875 
Q 19.734375 -1.421875 13.25 4.234375 
Q 6.78125 9.90625 6.78125 20.515625 
Q 6.78125 27.484375 10.78125 32.3125 
Q 14.796875 37.15625 21.921875 38.8125 
z
M 18.3125 54.390625 
Q 18.3125 48.734375 21.84375 45.5625 
Q 25.390625 42.390625 31.78125 42.390625 
Q 38.140625 42.390625 41.71875 45.5625 
Q 45.3125 48.734375 45.3125 54.390625 
Q 45.3125 60.0625 41.71875 63.234375 
Q 38.140625 66.40625 31.78125 66.40625 
Q 25.390625 66.40625 21.84375 63.234375 
Q 18.3125 60.0625 18.3125 54.390625 
z
" id="DejaVuSans-56"/>
      <path d="M 8.015625 75.875 
L 15.828125 75.875 
Q 23.140625 64.359375 26.78125 53.3125 
Q 30.421875 42.28125 30.421875 31.390625 
Q 30.421875 20.453125 26.78125 9.375 
Q 23.140625 -1.703125 15.828125 -13.1875 
L 8.015625 -13.1875 
Q 14.5 -2 17.703125 9.0625 
Q 20.90625 20.125 20.90625 31.390625 
Q 20.90625 42.671875 17.703125 53.65625 
Q 14.5 64.65625 8.015625 75.875 
z
" id="DejaVuSans-41"/>
     </defs>
     <use xlink:href="#DejaVuSans-67"/>
     <use x="69.824219" xlink:href="#DejaVuSans-117"/>
     <use x="133.203125" xlink:href="#DejaVuSans-109"/>
     <use x="230.615234" xlink:href="#DejaVuSans-117"/>
     <use x="293.994141" xlink:href="#DejaVuSans-108"/>
     <use x="321.777344" xlink:href="#DejaVuSans-97"/>
     <use x="383.056641" xlink:href="#DejaVuSans-116"/>
     <use x="422.265625" xlink:href="#DejaVuSans-105"/>
     <use x="450.048828" xlink:href="#DejaVuSans-118"/>
     <use x="509.228516" xlink:href="#DejaVuSans-101"/>
     <use x="570.751953" xlink:href="#DejaVuSans-32"/>
     <use x="602.539062" xlink:href="#DejaVuSans-76"/>
     <use x="656.501953" xlink:href="#DejaVuSans-111"/>
     <use x="717.683594" xlink:href="#DejaVuSans-103"/>
     <use x="781.160156" xlink:href="#DejaVuSans-32"/>
     <use x="812.947266" xlink:href="#DejaVuSans-82"/>
     <use x="877.929688" xlink:href="#DejaVuSans-101"/>
     <use x="939.453125" xlink:href="#DejaVuSans-116"/>
     <use x="978.662109" xlink:href="#DejaVuSans-117"/>
     <use x="1042.041016" xlink:href="#DejaVuSans-114"/>
     <use x="1081.404297" xlink:href="#DejaVuSans-110"/>
     <use x="1144.783203" xlink:href="#DejaVuSans-58"/>
     <use x="1178.474609" xlink:href="#DejaVuSans-32"/>
     <use x="1210.261719" xlink:href="#DejaVuSans-40"/>
     <use x="1249.275391" xlink:href="#DejaVuSans-50"/>
     <use x="1312.898438" xlink:href="#DejaVuSans-48"/>
     <use x="1376.521484" xlink:href="#DejaVuSans-49"/>
     <use x="1440.144531" xlink:href="#DejaVuSans-48"/>
     <use x="1503.767578" xlink:href="#DejaVuSans-45"/>
     <use x="1539.851562" xlink:href="#DejaVuSans-48"/>
     <use x="1603.474609" xlink:href="#DejaVuSans-49"/>
     <use x="1667.097656" xlink:href="#DejaVuSans-45"/>
     <use x="1703.181641" xlink:href="#DejaVuSans-49"/>
     <use x="1766.804688" xlink:href="#DejaVuSans-50"/>
     <use x="1830.427734" xlink:href="#DejaVuSans-32"/>
     <use x="1862.214844" xlink:href="#DejaVuSans-126"/>
     <use x="1946.003906" xlink:href="#DejaVuSans-32"/>
     <use x="1977.791016" xlink:href="#DejaVuSans-50"/>
     <use x="2041.414062" xlink:href="#DejaVuSans-48"/>
     <use x="2105.037109" xlink:href="#DejaVuSans-49"/>
     <use x="2168.660156" xlink:href="#DejaVuSans-48"/>
     <use x="2232.283203" xlink:href="#DejaVuSans-45"/>
     <use x="2268.367188" xlink:href="#DejaVuSans-49"/>
     <use x="2331.990234" xlink:href="#DejaVuSans-48"/>
     <use x="2395.613281" xlink:href="#DejaVuSans-45"/>
     <use x="2431.697266" xlink:href="#DejaVuSans-48"/>
     <use x="2495.320312" xlink:href="#DejaVuSans-56"/>
     <use x="2558.943359" xlink:href="#DejaVuSans-41"/>
    </g>
   </g>
   <g id="legend_1">
    <g id="patch_7">
     <path d="M 57.9 123.379375 
L 154.389062 123.379375 
Q 156.389062 123.379375 156.389062 121.379375 
L 156.389062 32.92 
Q 156.389062 30.92 154.389062 30.92 
L 57.9 30.92 
Q 55.9 30.92 55.9 32.92 
L 55.9 121.379375 
Q 55.9 123.379375 57.9 123.379375 
z
" style="fill:#ffffff;opacity:0.8;stroke:#cccccc;stroke-linejoin:miter;"/>
    </g>
    <g id="line2d_25">
     <path d="M 59.9 39.018437 
L 79.9 39.018437 
" style="fill:none;stroke:#9467bd;stroke-linecap:square;stroke-width:1.5;"/>
    </g>
    <g id="line2d_26"/>
    <g id="text_12">
     <!-- group_5 -->
     <g transform="translate(87.9 42.518437)scale(0.1 -0.1)">
      <defs>
       <path d="M 18.109375 8.203125 
L 18.109375 -20.796875 
L 9.078125 -20.796875 
L 9.078125 54.6875 
L 18.109375 54.6875 
L 18.109375 46.390625 
Q 20.953125 51.265625 25.265625 53.625 
Q 29.59375 56 35.59375 56 
Q 45.5625 56 51.78125 48.09375 
Q 58.015625 40.1875 58.015625 27.296875 
Q 58.015625 14.40625 51.78125 6.484375 
Q 45.5625 -1.421875 35.59375 -1.421875 
Q 29.59375 -1.421875 25.265625 0.953125 
Q 20.953125 3.328125 18.109375 8.203125 
z
M 48.6875 27.296875 
Q 48.6875 37.203125 44.609375 42.84375 
Q 40.53125 48.484375 33.40625 48.484375 
Q 26.265625 48.484375 22.1875 42.84375 
Q 18.109375 37.203125 18.109375 27.296875 
Q 18.109375 17.390625 22.1875 11.75 
Q 26.265625 6.109375 33.40625 6.109375 
Q 40.53125 6.109375 44.609375 11.75 
Q 48.6875 17.390625 48.6875 27.296875 
z
" id="DejaVuSans-112"/>
       <path d="M 50.984375 -16.609375 
L 50.984375 -23.578125 
L -0.984375 -23.578125 
L -0.984375 -16.609375 
z
" id="DejaVuSans-95"/>
      </defs>
      <use xlink:href="#DejaVuSans-103"/>
      <use x="63.476562" xlink:href="#DejaVuSans-114"/>
      <use x="102.339844" xlink:href="#DejaVuSans-111"/>
      <use x="163.521484" xlink:href="#DejaVuSans-117"/>
      <use x="226.900391" xlink:href="#DejaVuSans-112"/>
      <use x="290.376953" xlink:href="#DejaVuSans-95"/>
      <use x="340.376953" xlink:href="#DejaVuSans-53"/>
     </g>
    </g>
    <g id="line2d_27">
     <path d="M 59.9 53.974687 
L 79.9 53.974687 
" style="fill:none;stroke:#1f77b4;stroke-linecap:square;stroke-width:1.5;"/>
    </g>
    <g id="line2d_28"/>
    <g id="text_13">
     <!-- group_1 -->
     <g transform="translate(87.9 57.474687)scale(0.1 -0.1)">
      <use xlink:href="#DejaVuSans-103"/>
      <use x="63.476562" xlink:href="#DejaVuSans-114"/>
      <use x="102.339844" xlink:href="#DejaVuSans-111"/>
      <use x="163.521484" xlink:href="#DejaVuSans-117"/>
      <use x="226.900391" xlink:href="#DejaVuSans-112"/>
      <use x="290.376953" xlink:href="#DejaVuSans-95"/>
      <use x="340.376953" xlink:href="#DejaVuSans-49"/>
     </g>
    </g>
    <g id="line2d_29">
     <path d="M 59.9 68.930937 
L 79.9 68.930937 
" style="fill:none;stroke:#8c564b;stroke-linecap:square;stroke-width:1.5;"/>
    </g>
    <g id="line2d_30"/>
    <g id="text_14">
     <!-- benchmark -->
     <g transform="translate(87.9 72.430937)scale(0.1 -0.1)">
      <defs>
       <path d="M 48.6875 27.296875 
Q 48.6875 37.203125 44.609375 42.84375 
Q 40.53125 48.484375 33.40625 48.484375 
Q 26.265625 48.484375 22.1875 42.84375 
Q 18.109375 37.203125 18.109375 27.296875 
Q 18.109375 17.390625 22.1875 11.75 
Q 26.265625 6.109375 33.40625 6.109375 
Q 40.53125 6.109375 44.609375 11.75 
Q 48.6875 17.390625 48.6875 27.296875 
z
M 18.109375 46.390625 
Q 20.953125 51.265625 25.265625 53.625 
Q 29.59375 56 35.59375 56 
Q 45.5625 56 51.78125 48.09375 
Q 58.015625 40.1875 58.015625 27.296875 
Q 58.015625 14.40625 51.78125 6.484375 
Q 45.5625 -1.421875 35.59375 -1.421875 
Q 29.59375 -1.421875 25.265625 0.953125 
Q 20.953125 3.328125 18.109375 8.203125 
L 18.109375 0 
L 9.078125 0 
L 9.078125 75.984375 
L 18.109375 75.984375 
z
" id="DejaVuSans-98"/>
       <path d="M 54.890625 33.015625 
L 54.890625 0 
L 45.90625 0 
L 45.90625 32.71875 
Q 45.90625 40.484375 42.875 44.328125 
Q 39.84375 48.1875 33.796875 48.1875 
Q 26.515625 48.1875 22.3125 43.546875 
Q 18.109375 38.921875 18.109375 30.90625 
L 18.109375 0 
L 9.078125 0 
L 9.078125 75.984375 
L 18.109375 75.984375 
L 18.109375 46.1875 
Q 21.34375 51.125 25.703125 53.5625 
Q 30.078125 56 35.796875 56 
Q 45.21875 56 50.046875 50.171875 
Q 54.890625 44.34375 54.890625 33.015625 
z
" id="DejaVuSans-104"/>
       <path d="M 9.078125 75.984375 
L 18.109375 75.984375 
L 18.109375 31.109375 
L 44.921875 54.6875 
L 56.390625 54.6875 
L 27.390625 29.109375 
L 57.625 0 
L 45.90625 0 
L 18.109375 26.703125 
L 18.109375 0 
L 9.078125 0 
z
" id="DejaVuSans-107"/>
      </defs>
      <use xlink:href="#DejaVuSans-98"/>
      <use x="63.476562" xlink:href="#DejaVuSans-101"/>
      <use x="125" xlink:href="#DejaVuSans-110"/>
      <use x="188.378906" xlink:href="#DejaVuSans-99"/>
      <use x="243.359375" xlink:href="#DejaVuSans-104"/>
      <use x="306.738281" xlink:href="#DejaVuSans-109"/>
      <use x="404.150391" xlink:href="#DejaVuSans-97"/>
      <use x="465.429688" xlink:href="#DejaVuSans-114"/>
      <use x="506.542969" xlink:href="#DejaVuSans-107"/>
     </g>
    </g>
    <g id="line2d_31">
     <path d="M 59.9 83.609062 
L 79.9 83.609062 
" style="fill:none;stroke:#e377c2;stroke-linecap:square;stroke-width:1.5;"/>
    </g>
    <g id="line2d_32"/>
    <g id="text_15">
     <!-- long_excess -->
     <g transform="translate(87.9 87.109062)scale(0.1 -0.1)">
      <defs>
       <path d="M 54.890625 54.6875 
L 35.109375 28.078125 
L 55.90625 0 
L 45.3125 0 
L 29.390625 21.484375 
L 13.484375 0 
L 2.875 0 
L 24.125 28.609375 
L 4.6875 54.6875 
L 15.28125 54.6875 
L 29.78125 35.203125 
L 44.28125 54.6875 
z
" id="DejaVuSans-120"/>
      </defs>
      <use xlink:href="#DejaVuSans-108"/>
      <use x="27.783203" xlink:href="#DejaVuSans-111"/>
      <use x="88.964844" xlink:href="#DejaVuSans-110"/>
      <use x="152.34375" xlink:href="#DejaVuSans-103"/>
      <use x="215.820312" xlink:href="#DejaVuSans-95"/>
      <use x="265.820312" xlink:href="#DejaVuSans-101"/>
      <use x="325.59375" xlink:href="#DejaVuSans-120"/>
      <use x="383.023438" xlink:href="#DejaVuSans-99"/>
      <use x="438.003906" xlink:href="#DejaVuSans-101"/>
      <use x="499.527344" xlink:href="#DejaVuSans-115"/>
      <use x="551.626953" xlink:href="#DejaVuSans-115"/>
     </g>
    </g>
    <g id="line2d_33">
     <path d="M 59.9 98.565312 
L 79.9 98.565312 
" style="fill:none;stroke:#7f7f7f;stroke-linecap:square;stroke-width:1.5;"/>
    </g>
    <g id="line2d_34"/>
    <g id="text_16">
     <!-- short_excess -->
     <g transform="translate(87.9 102.065312)scale(0.1 -0.1)">
      <use xlink:href="#DejaVuSans-115"/>
      <use x="52.099609" xlink:href="#DejaVuSans-104"/>
      <use x="115.478516" xlink:href="#DejaVuSans-111"/>
      <use x="176.660156" xlink:href="#DejaVuSans-114"/>
      <use x="217.773438" xlink:href="#DejaVuSans-116"/>
      <use x="256.982422" xlink:href="#DejaVuSans-95"/>
      <use x="306.982422" xlink:href="#DejaVuSans-101"/>
      <use x="366.755859" xlink:href="#DejaVuSans-120"/>
      <use x="424.185547" xlink:href="#DejaVuSans-99"/>
      <use x="479.166016" xlink:href="#DejaVuSans-101"/>
      <use x="540.689453" xlink:href="#DejaVuSans-115"/>
      <use x="592.789062" xlink:href="#DejaVuSans-115"/>
     </g>
    </g>
    <g id="line2d_35">
     <path d="M 59.9 113.521562 
L 79.9 113.521562 
" style="fill:none;stroke:#bcbd22;stroke-linecap:square;stroke-width:1.5;"/>
    </g>
    <g id="line2d_36"/>
    <g id="text_17">
     <!-- long_short -->
     <g transform="translate(87.9 117.021562)scale(0.1 -0.1)">
      <use xlink:href="#DejaVuSans-108"/>
      <use x="27.783203" xlink:href="#DejaVuSans-111"/>
      <use x="88.964844" xlink:href="#DejaVuSans-110"/>
      <use x="152.34375" xlink:href="#DejaVuSans-103"/>
      <use x="215.820312" xlink:href="#DejaVuSans-95"/>
      <use x="265.820312" xlink:href="#DejaVuSans-115"/>
      <use x="317.919922" xlink:href="#DejaVuSans-104"/>
      <use x="381.298828" xlink:href="#DejaVuSans-111"/>
      <use x="442.480469" xlink:href="#DejaVuSans-114"/>
      <use x="483.59375" xlink:href="#DejaVuSans-116"/>
     </g>
    </g>
   </g>
  </g>
 </g>
 <defs>
  <clipPath id="pcbf1108141">
   <rect height="290.84" width="1090.3" x="50.9" y="25.92"/>
  </clipPath>
 </defs>
</svg>
