<?xml version="1.0" encoding="utf-8" standalone="no"?>
<!DOCTYPE svg PUBLIC "-//W3C//DTD SVG 1.1//EN"
  "http://www.w3.org/Graphics/SVG/1.1/DTD/svg11.dtd">
<!-- Created with matplotlib (https://matplotlib.org/) -->
<svg height="468pt" version="1.1" viewBox="0 0 1152 468" width="1152pt" xmlns="http://www.w3.org/2000/svg" xmlns:xlink="http://www.w3.org/1999/xlink">
 <metadata>
  <rdf:RDF xmlns:cc="http://creativecommons.org/ns#" xmlns:dc="http://purl.org/dc/elements/1.1/" xmlns:rdf="http://www.w3.org/1999/02/22-rdf-syntax-ns#">
   <cc:Work>
    <dc:type rdf:resource="http://purl.org/dc/dcmitype/StillImage"/>
    <dc:date>2023-10-11T16:59:39.930698</dc:date>
    <dc:format>image/svg+xml</dc:format>
    <dc:creator>
     <cc:Agent>
      <dc:title>Matplotlib v3.3.4, https://matplotlib.org/</dc:title>
     </cc:Agent>
    </dc:creator>
   </cc:Work>
  </rdf:RDF>
 </metadata>
 <defs>
  <style type="text/css">*{stroke-linecap:butt;stroke-linejoin:round;}</style>
 </defs>
 <g id="figure_1">
  <g id="patch_1">
   <path d="M 0 468 
L 1152 468 
L 1152 0 
L 0 0 
z
" style="fill:#ffffff;"/>
  </g>
  <g id="axes_1">
   <g id="patch_2">
    <path d="M 50.9 424.76 
L 1107.88 424.76 
L 1107.88 25.92 
L 50.9 25.92 
z
" style="fill:#ffffff;"/>
   </g>
   <g id="patch_3">
    <path clip-path="url(#p11e70027e1)" d="M 120.140668 226.84103 
L 102.477233 226.84103 
L 102.477233 265.367079 
L 120.140668 265.367079 
z
" style="fill:#1f77b4;"/>
   </g>
   <g id="patch_4">
    <path clip-path="url(#p11e70027e1)" d="M 144.869479 226.84103 
L 127.206043 226.84103 
L 127.206043 107.061249 
L 144.869479 107.061249 
z
" style="fill:#1f77b4;"/>
   </g>
   <g id="patch_5">
    <path clip-path="url(#p11e70027e1)" d="M 169.598289 226.84103 
L 151.934853 226.84103 
L 151.934853 349.432508 
L 169.598289 349.432508 
z
" style="fill:#1f77b4;"/>
   </g>
   <g id="patch_6">
    <path clip-path="url(#p11e70027e1)" d="M 194.327099 226.84103 
L 176.663663 226.84103 
L 176.663663 117.128992 
L 194.327099 117.128992 
z
" style="fill:#1f77b4;"/>
   </g>
   <g id="patch_7">
    <path clip-path="url(#p11e70027e1)" d="M 219.055909 226.84103 
L 201.392473 226.84103 
L 201.392473 142.967887 
L 219.055909 142.967887 
z
" style="fill:#1f77b4;"/>
   </g>
   <g id="patch_8">
    <path clip-path="url(#p11e70027e1)" d="M 243.784719 226.84103 
L 226.121283 226.84103 
L 226.121283 155.515307 
L 243.784719 155.515307 
z
" style="fill:#1f77b4;"/>
   </g>
   <g id="patch_9">
    <path clip-path="url(#p11e70027e1)" d="M 268.513529 226.84103 
L 250.850094 226.84103 
L 250.850094 354.459981 
L 268.513529 354.459981 
z
" style="fill:#1f77b4;"/>
   </g>
   <g id="patch_10">
    <path clip-path="url(#p11e70027e1)" d="M 293.24234 226.84103 
L 275.578904 226.84103 
L 275.578904 232.805059 
L 293.24234 232.805059 
z
" style="fill:#1f77b4;"/>
   </g>
   <g id="patch_11">
    <path clip-path="url(#p11e70027e1)" d="M 317.97115 226.84103 
L 300.307714 226.84103 
L 300.307714 261.742224 
L 317.97115 261.742224 
z
" style="fill:#1f77b4;"/>
   </g>
   <g id="patch_12">
    <path clip-path="url(#p11e70027e1)" d="M 342.69996 226.84103 
L 325.036524 226.84103 
L 325.036524 406.630909 
L 342.69996 406.630909 
z
" style="fill:#1f77b4;"/>
   </g>
   <g id="patch_13">
    <path clip-path="url(#p11e70027e1)" d="M 367.42877 226.84103 
L 349.765334 226.84103 
L 349.765334 255.777387 
L 367.42877 255.777387 
z
" style="fill:#1f77b4;"/>
   </g>
   <g id="patch_14">
    <path clip-path="url(#p11e70027e1)" d="M 392.15758 226.84103 
L 374.494144 226.84103 
L 374.494144 87.839675 
L 392.15758 87.839675 
z
" style="fill:#1f77b4;"/>
   </g>
   <g id="patch_15">
    <path clip-path="url(#p11e70027e1)" d="M 416.88639 226.84103 
L 399.222955 226.84103 
L 399.222955 176.990962 
L 416.88639 176.990962 
z
" style="fill:#1f77b4;"/>
   </g>
   <g id="patch_16">
    <path clip-path="url(#p11e70027e1)" d="M 441.615201 226.84103 
L 423.951765 226.84103 
L 423.951765 189.720266 
L 441.615201 189.720266 
z
" style="fill:#1f77b4;"/>
   </g>
   <g id="patch_17">
    <path clip-path="url(#p11e70027e1)" d="M 466.344011 226.84103 
L 448.680575 226.84103 
L 448.680575 192.53018 
L 466.344011 192.53018 
z
" style="fill:#1f77b4;"/>
   </g>
   <g id="patch_18">
    <path clip-path="url(#p11e70027e1)" d="M 491.072821 226.84103 
L 473.409385 226.84103 
L 473.409385 184.598293 
L 491.072821 184.598293 
z
" style="fill:#1f77b4;"/>
   </g>
   <g id="patch_19">
    <path clip-path="url(#p11e70027e1)" d="M 515.801631 226.84103 
L 498.138195 226.84103 
L 498.138195 242.532893 
L 515.801631 242.532893 
z
" style="fill:#1f77b4;"/>
   </g>
   <g id="patch_20">
    <path clip-path="url(#p11e70027e1)" d="M 540.530441 226.84103 
L 522.867005 226.84103 
L 522.867005 214.987471 
L 540.530441 214.987471 
z
" style="fill:#1f77b4;"/>
   </g>
   <g id="patch_21">
    <path clip-path="url(#p11e70027e1)" d="M 565.259251 226.84103 
L 547.595816 226.84103 
L 547.595816 321.988126 
L 565.259251 321.988126 
z
" style="fill:#1f77b4;"/>
   </g>
   <g id="patch_22">
    <path clip-path="url(#p11e70027e1)" d="M 589.988061 226.84103 
L 572.324626 226.84103 
L 572.324626 101.018741 
L 589.988061 101.018741 
z
" style="fill:#1f77b4;"/>
   </g>
   <g id="patch_23">
    <path clip-path="url(#p11e70027e1)" d="M 614.716872 226.84103 
L 597.053436 226.84103 
L 597.053436 178.575858 
L 614.716872 178.575858 
z
" style="fill:#1f77b4;"/>
   </g>
   <g id="patch_24">
    <path clip-path="url(#p11e70027e1)" d="M 639.445682 226.84103 
L 621.782246 226.84103 
L 621.782246 241.693013 
L 639.445682 241.693013 
z
" style="fill:#1f77b4;"/>
   </g>
   <g id="patch_25">
    <path clip-path="url(#p11e70027e1)" d="M 664.174492 226.84103 
L 646.511056 226.84103 
L 646.511056 289.929586 
L 664.174492 289.929586 
z
" style="fill:#1f77b4;"/>
   </g>
   <g id="patch_26">
    <path clip-path="url(#p11e70027e1)" d="M 688.903302 226.84103 
L 671.239866 226.84103 
L 671.239866 146.457491 
L 688.903302 146.457491 
z
" style="fill:#1f77b4;"/>
   </g>
   <g id="patch_27">
    <path clip-path="url(#p11e70027e1)" d="M 713.632112 226.84103 
L 695.968676 226.84103 
L 695.968676 325.104083 
L 713.632112 325.104083 
z
" style="fill:#1f77b4;"/>
   </g>
   <g id="patch_28">
    <path clip-path="url(#p11e70027e1)" d="M 738.360922 226.84103 
L 720.697487 226.84103 
L 720.697487 336.390837 
L 738.360922 336.390837 
z
" style="fill:#1f77b4;"/>
   </g>
   <g id="patch_29">
    <path clip-path="url(#p11e70027e1)" d="M 763.089733 226.84103 
L 745.426297 226.84103 
L 745.426297 166.153992 
L 763.089733 166.153992 
z
" style="fill:#1f77b4;"/>
   </g>
   <g id="patch_30">
    <path clip-path="url(#p11e70027e1)" d="M 787.818543 226.84103 
L 770.155107 226.84103 
L 770.155107 334.358925 
L 787.818543 334.358925 
z
" style="fill:#1f77b4;"/>
   </g>
   <g id="patch_31">
    <path clip-path="url(#p11e70027e1)" d="M 812.547353 226.84103 
L 794.883917 226.84103 
L 794.883917 170.392711 
L 812.547353 170.392711 
z
" style="fill:#1f77b4;"/>
   </g>
   <g id="patch_32">
    <path clip-path="url(#p11e70027e1)" d="M 837.276163 226.84103 
L 819.612727 226.84103 
L 819.612727 49.400208 
L 837.276163 49.400208 
z
" style="fill:#1f77b4;"/>
   </g>
   <g id="patch_33">
    <path clip-path="url(#p11e70027e1)" d="M 862.004973 226.84103 
L 844.341537 226.84103 
L 844.341537 62.977368 
L 862.004973 62.977368 
z
" style="fill:#1f77b4;"/>
   </g>
   <g id="patch_34">
    <path clip-path="url(#p11e70027e1)" d="M 886.733783 226.84103 
L 869.070348 226.84103 
L 869.070348 44.049091 
L 886.733783 44.049091 
z
" style="fill:#1f77b4;"/>
   </g>
   <g id="patch_35">
    <path clip-path="url(#p11e70027e1)" d="M 911.462594 226.84103 
L 893.799158 226.84103 
L 893.799158 99.357453 
L 911.462594 99.357453 
z
" style="fill:#1f77b4;"/>
   </g>
   <g id="patch_36">
    <path clip-path="url(#p11e70027e1)" d="M 936.191404 226.84103 
L 918.527968 226.84103 
L 918.527968 131.606303 
L 936.191404 131.606303 
z
" style="fill:#1f77b4;"/>
   </g>
   <g id="patch_37">
    <path clip-path="url(#p11e70027e1)" d="M 960.920214 226.84103 
L 943.256778 226.84103 
L 943.256778 129.814345 
L 960.920214 129.814345 
z
" style="fill:#1f77b4;"/>
   </g>
   <g id="patch_38">
    <path clip-path="url(#p11e70027e1)" d="M 985.649024 226.84103 
L 967.985588 226.84103 
L 967.985588 243.597499 
L 985.649024 243.597499 
z
" style="fill:#1f77b4;"/>
   </g>
   <g id="patch_39">
    <path clip-path="url(#p11e70027e1)" d="M 1010.377834 226.84103 
L 992.714398 226.84103 
L 992.714398 332.580665 
L 1010.377834 332.580665 
z
" style="fill:#1f77b4;"/>
   </g>
   <g id="patch_40">
    <path clip-path="url(#p11e70027e1)" d="M 1035.106644 226.84103 
L 1017.443209 226.84103 
L 1017.443209 355.176114 
L 1035.106644 355.176114 
z
" style="fill:#1f77b4;"/>
   </g>
   <g id="patch_41">
    <path clip-path="url(#p11e70027e1)" d="M 1059.835455 226.84103 
L 1042.172019 226.84103 
L 1042.172019 302.76638 
L 1059.835455 302.76638 
z
" style="fill:#1f77b4;"/>
   </g>
   <g id="patch_42">
    <path clip-path="url(#p11e70027e1)" d="M 0 0 
z
" style="fill:#1f77b4;"/>
   </g>
   <g id="matplotlib.axis_1">
    <g id="xtick_1">
     <g id="line2d_1">
      <path clip-path="url(#p11e70027e1)" d="M 88.346484 424.76 
L 88.346484 25.92 
" style="fill:none;stroke:#b0b0b0;stroke-linecap:square;stroke-width:0.8;"/>
     </g>
     <g id="line2d_2">
      <defs>
       <path d="M 0 0 
L 0 3.5 
" id="m8466934860" style="stroke:#000000;stroke-width:0.8;"/>
      </defs>
      <g>
       <use style="stroke:#000000;stroke-width:0.8;" x="88.346484" xlink:href="#m8466934860" y="424.76"/>
      </g>
     </g>
     <g id="text_1">
      <!-- 2010 -->
      <g transform="translate(91.105859 457.21)rotate(-90)scale(0.1 -0.1)">
       <defs>
        <path d="M 19.1875 8.296875 
L 53.609375 8.296875 
L 53.609375 0 
L 7.328125 0 
L 7.328125 8.296875 
Q 12.9375 14.109375 22.625 23.890625 
Q 32.328125 33.6875 34.8125 36.53125 
Q 39.546875 41.84375 41.421875 45.53125 
Q 43.3125 49.21875 43.3125 52.78125 
Q 43.3125 58.59375 39.234375 62.25 
Q 35.15625 65.921875 28.609375 65.921875 
Q 23.96875 65.921875 18.8125 64.3125 
Q 13.671875 62.703125 7.8125 59.421875 
L 7.8125 69.390625 
Q 13.765625 71.78125 18.9375 73 
Q 24.125 74.21875 28.421875 74.21875 
Q 39.75 74.21875 46.484375 68.546875 
Q 53.21875 62.890625 53.21875 53.421875 
Q 53.21875 48.921875 51.53125 44.890625 
Q 49.859375 40.875 45.40625 35.40625 
Q 44.1875 33.984375 37.640625 27.21875 
Q 31.109375 20.453125 19.1875 8.296875 
z
" id="DejaVuSans-50"/>
        <path d="M 31.78125 66.40625 
Q 24.171875 66.40625 20.328125 58.90625 
Q 16.5 51.421875 16.5 36.375 
Q 16.5 21.390625 20.328125 13.890625 
Q 24.171875 6.390625 31.78125 6.390625 
Q 39.453125 6.390625 43.28125 13.890625 
Q 47.125 21.390625 47.125 36.375 
Q 47.125 51.421875 43.28125 58.90625 
Q 39.453125 66.40625 31.78125 66.40625 
z
M 31.78125 74.21875 
Q 44.046875 74.21875 50.515625 64.515625 
Q 56.984375 54.828125 56.984375 36.375 
Q 56.984375 17.96875 50.515625 8.265625 
Q 44.046875 -1.421875 31.78125 -1.421875 
Q 19.53125 -1.421875 13.0625 8.265625 
Q 6.59375 17.96875 6.59375 36.375 
Q 6.59375 54.828125 13.0625 64.515625 
Q 19.53125 74.21875 31.78125 74.21875 
z
" id="DejaVuSans-48"/>
        <path d="M 12.40625 8.296875 
L 28.515625 8.296875 
L 28.515625 63.921875 
L 10.984375 60.40625 
L 10.984375 69.390625 
L 28.421875 72.90625 
L 38.28125 72.90625 
L 38.28125 8.296875 
L 54.390625 8.296875 
L 54.390625 0 
L 12.40625 0 
z
" id="DejaVuSans-49"/>
       </defs>
       <use xlink:href="#DejaVuSans-50"/>
       <use x="63.623047" xlink:href="#DejaVuSans-48"/>
       <use x="127.246094" xlink:href="#DejaVuSans-49"/>
       <use x="190.869141" xlink:href="#DejaVuSans-48"/>
      </g>
     </g>
    </g>
   </g>
   <g id="matplotlib.axis_2">
    <g id="ytick_1">
     <g id="line2d_3">
      <path clip-path="url(#p11e70027e1)" d="M 50.9 392.534497 
L 1107.88 392.534497 
" style="fill:none;stroke:#b0b0b0;stroke-linecap:square;stroke-width:0.8;"/>
     </g>
     <g id="line2d_4">
      <defs>
       <path d="M 0 0 
L -3.5 0 
" id="mbe8e60ee52" style="stroke:#000000;stroke-width:0.8;"/>
      </defs>
      <g>
       <use style="stroke:#000000;stroke-width:0.8;" x="50.9" xlink:href="#mbe8e60ee52" y="392.534497"/>
      </g>
     </g>
     <g id="text_2">
      <!-- -0.4 -->
      <g transform="translate(24.389062 396.333715)scale(0.1 -0.1)">
       <defs>
        <path d="M 4.890625 31.390625 
L 31.203125 31.390625 
L 31.203125 23.390625 
L 4.890625 23.390625 
z
" id="DejaVuSans-45"/>
        <path d="M 10.6875 12.40625 
L 21 12.40625 
L 21 0 
L 10.6875 0 
z
" id="DejaVuSans-46"/>
        <path d="M 37.796875 64.3125 
L 12.890625 25.390625 
L 37.796875 25.390625 
z
M 35.203125 72.90625 
L 47.609375 72.90625 
L 47.609375 25.390625 
L 58.015625 25.390625 
L 58.015625 17.1875 
L 47.609375 17.1875 
L 47.609375 0 
L 37.796875 0 
L 37.796875 17.1875 
L 4.890625 17.1875 
L 4.890625 26.703125 
z
" id="DejaVuSans-52"/>
       </defs>
       <use xlink:href="#DejaVuSans-45"/>
       <use x="36.083984" xlink:href="#DejaVuSans-48"/>
       <use x="99.707031" xlink:href="#DejaVuSans-46"/>
       <use x="131.494141" xlink:href="#DejaVuSans-52"/>
      </g>
     </g>
    </g>
    <g id="ytick_2">
     <g id="line2d_5">
      <path clip-path="url(#p11e70027e1)" d="M 50.9 309.687763 
L 1107.88 309.687763 
" style="fill:none;stroke:#b0b0b0;stroke-linecap:square;stroke-width:0.8;"/>
     </g>
     <g id="line2d_6">
      <g>
       <use style="stroke:#000000;stroke-width:0.8;" x="50.9" xlink:href="#mbe8e60ee52" y="309.687763"/>
      </g>
     </g>
     <g id="text_3">
      <!-- -0.2 -->
      <g transform="translate(24.389062 313.486982)scale(0.1 -0.1)">
       <use xlink:href="#DejaVuSans-45"/>
       <use x="36.083984" xlink:href="#DejaVuSans-48"/>
       <use x="99.707031" xlink:href="#DejaVuSans-46"/>
       <use x="131.494141" xlink:href="#DejaVuSans-50"/>
      </g>
     </g>
    </g>
    <g id="ytick_3">
     <g id="line2d_7">
      <path clip-path="url(#p11e70027e1)" d="M 50.9 226.84103 
L 1107.88 226.84103 
" style="fill:none;stroke:#b0b0b0;stroke-linecap:square;stroke-width:0.8;"/>
     </g>
     <g id="line2d_8">
      <g>
       <use style="stroke:#000000;stroke-width:0.8;" x="50.9" xlink:href="#mbe8e60ee52" y="226.84103"/>
      </g>
     </g>
     <g id="text_4">
      <!-- 0.0 -->
      <g transform="translate(27.996875 230.640249)scale(0.1 -0.1)">
       <use xlink:href="#DejaVuSans-48"/>
       <use x="63.623047" xlink:href="#DejaVuSans-46"/>
       <use x="95.410156" xlink:href="#DejaVuSans-48"/>
      </g>
     </g>
    </g>
    <g id="ytick_4">
     <g id="line2d_9">
      <path clip-path="url(#p11e70027e1)" d="M 50.9 143.994297 
L 1107.88 143.994297 
" style="fill:none;stroke:#b0b0b0;stroke-linecap:square;stroke-width:0.8;"/>
     </g>
     <g id="line2d_10">
      <g>
       <use style="stroke:#000000;stroke-width:0.8;" x="50.9" xlink:href="#mbe8e60ee52" y="143.994297"/>
      </g>
     </g>
     <g id="text_5">
      <!-- 0.2 -->
      <g transform="translate(27.996875 147.793515)scale(0.1 -0.1)">
       <use xlink:href="#DejaVuSans-48"/>
       <use x="63.623047" xlink:href="#DejaVuSans-46"/>
       <use x="95.410156" xlink:href="#DejaVuSans-50"/>
      </g>
     </g>
    </g>
    <g id="ytick_5">
     <g id="line2d_11">
      <path clip-path="url(#p11e70027e1)" d="M 50.9 61.147563 
L 1107.88 61.147563 
" style="fill:none;stroke:#b0b0b0;stroke-linecap:square;stroke-width:0.8;"/>
     </g>
     <g id="line2d_12">
      <g>
       <use style="stroke:#000000;stroke-width:0.8;" x="50.9" xlink:href="#mbe8e60ee52" y="61.147563"/>
      </g>
     </g>
     <g id="text_6">
      <!-- 0.4 -->
      <g transform="translate(27.996875 64.946782)scale(0.1 -0.1)">
       <use xlink:href="#DejaVuSans-48"/>
       <use x="63.623047" xlink:href="#DejaVuSans-46"/>
       <use x="95.410156" xlink:href="#DejaVuSans-52"/>
      </g>
     </g>
    </g>
    <g id="text_7">
     <!-- IC -->
     <g transform="translate(18.309375 230.306406)rotate(-90)scale(0.1 -0.1)">
      <defs>
       <path d="M 9.8125 72.90625 
L 19.671875 72.90625 
L 19.671875 0 
L 9.8125 0 
z
" id="DejaVuSans-73"/>
       <path d="M 64.40625 67.28125 
L 64.40625 56.890625 
Q 59.421875 61.53125 53.78125 63.8125 
Q 48.140625 66.109375 41.796875 66.109375 
Q 29.296875 66.109375 22.65625 58.46875 
Q 16.015625 50.828125 16.015625 36.375 
Q 16.015625 21.96875 22.65625 14.328125 
Q 29.296875 6.6875 41.796875 6.6875 
Q 48.140625 6.6875 53.78125 8.984375 
Q 59.421875 11.28125 64.40625 15.921875 
L 64.40625 5.609375 
Q 59.234375 2.09375 53.4375 0.328125 
Q 47.65625 -1.421875 41.21875 -1.421875 
Q 24.65625 -1.421875 15.125 8.703125 
Q 5.609375 18.84375 5.609375 36.375 
Q 5.609375 53.953125 15.125 64.078125 
Q 24.65625 74.21875 41.21875 74.21875 
Q 47.75 74.21875 53.53125 72.484375 
Q 59.328125 70.75 64.40625 67.28125 
z
" id="DejaVuSans-67"/>
      </defs>
      <use xlink:href="#DejaVuSans-73"/>
      <use x="29.492188" xlink:href="#DejaVuSans-67"/>
     </g>
    </g>
   </g>
   <g id="line2d_13">
    <path clip-path="url(#p11e70027e1)" d="M 50.9 212.858387 
L 1107.88 212.858387 
" style="fill:none;stroke:#800080;stroke-dasharray:7.4,3.2;stroke-dashoffset:0;stroke-width:2;"/>
   </g>
   <g id="patch_43">
    <path d="M 50.9 424.76 
L 50.9 25.92 
" style="fill:none;stroke:#000000;stroke-linecap:square;stroke-linejoin:miter;stroke-width:0.8;"/>
   </g>
   <g id="patch_44">
    <path d="M 1107.88 424.76 
L 1107.88 25.92 
" style="fill:none;stroke:#000000;stroke-linecap:square;stroke-linejoin:miter;stroke-width:0.8;"/>
   </g>
   <g id="patch_45">
    <path d="M 50.9 424.76 
L 1107.88 424.76 
" style="fill:none;stroke:#000000;stroke-linecap:square;stroke-linejoin:miter;stroke-width:0.8;"/>
   </g>
   <g id="patch_46">
    <path d="M 50.9 25.92 
L 1107.88 25.92 
" style="fill:none;stroke:#000000;stroke-linecap:square;stroke-linejoin:miter;stroke-width:0.8;"/>
   </g>
   <g id="legend_1">
    <g id="patch_47">
     <path d="M 57.9 63.27625 
L 169.520312 63.27625 
Q 171.520312 63.27625 171.520312 61.27625 
L 171.520312 32.92 
Q 171.520312 30.92 169.520312 30.92 
L 57.9 30.92 
Q 55.9 30.92 55.9 32.92 
L 55.9 61.27625 
Q 55.9 63.27625 57.9 63.27625 
z
" style="fill:#ffffff;opacity:0.8;stroke:#cccccc;stroke-linejoin:miter;"/>
    </g>
    <g id="patch_48">
     <path d="M 59.9 42.518438 
L 79.9 42.518438 
L 79.9 35.518438 
L 59.9 35.518438 
z
" style="fill:#1f77b4;"/>
    </g>
    <g id="text_8">
     <!-- weekly IC mean -->
     <g transform="translate(87.9 42.518438)scale(0.1 -0.1)">
      <defs>
       <path d="M 4.203125 54.6875 
L 13.1875 54.6875 
L 24.421875 12.015625 
L 35.59375 54.6875 
L 46.1875 54.6875 
L 57.421875 12.015625 
L 68.609375 54.6875 
L 77.59375 54.6875 
L 63.28125 0 
L 52.6875 0 
L 40.921875 44.828125 
L 29.109375 0 
L 18.5 0 
z
" id="DejaVuSans-119"/>
       <path d="M 56.203125 29.59375 
L 56.203125 25.203125 
L 14.890625 25.203125 
Q 15.484375 15.921875 20.484375 11.0625 
Q 25.484375 6.203125 34.421875 6.203125 
Q 39.59375 6.203125 44.453125 7.46875 
Q 49.3125 8.734375 54.109375 11.28125 
L 54.109375 2.78125 
Q 49.265625 0.734375 44.1875 -0.34375 
Q 39.109375 -1.421875 33.890625 -1.421875 
Q 20.796875 -1.421875 13.15625 6.1875 
Q 5.515625 13.8125 5.515625 26.8125 
Q 5.515625 40.234375 12.765625 48.109375 
Q 20.015625 56 32.328125 56 
Q 43.359375 56 49.78125 48.890625 
Q 56.203125 41.796875 56.203125 29.59375 
z
M 47.21875 32.234375 
Q 47.125 39.59375 43.09375 43.984375 
Q 39.0625 48.390625 32.421875 48.390625 
Q 24.90625 48.390625 20.390625 44.140625 
Q 15.875 39.890625 15.1875 32.171875 
z
" id="DejaVuSans-101"/>
       <path d="M 9.078125 75.984375 
L 18.109375 75.984375 
L 18.109375 31.109375 
L 44.921875 54.6875 
L 56.390625 54.6875 
L 27.390625 29.109375 
L 57.625 0 
L 45.90625 0 
L 18.109375 26.703125 
L 18.109375 0 
L 9.078125 0 
z
" id="DejaVuSans-107"/>
       <path d="M 9.421875 75.984375 
L 18.40625 75.984375 
L 18.40625 0 
L 9.421875 0 
z
" id="DejaVuSans-108"/>
       <path d="M 32.171875 -5.078125 
Q 28.375 -14.84375 24.75 -17.8125 
Q 21.140625 -20.796875 15.09375 -20.796875 
L 7.90625 -20.796875 
L 7.90625 -13.28125 
L 13.1875 -13.28125 
Q 16.890625 -13.28125 18.9375 -11.515625 
Q 21 -9.765625 23.484375 -3.21875 
L 25.09375 0.875 
L 2.984375 54.6875 
L 12.5 54.6875 
L 29.59375 11.921875 
L 46.6875 54.6875 
L 56.203125 54.6875 
z
" id="DejaVuSans-121"/>
       <path id="DejaVuSans-32"/>
       <path d="M 52 44.1875 
Q 55.375 50.25 60.0625 53.125 
Q 64.75 56 71.09375 56 
Q 79.640625 56 84.28125 50.015625 
Q 88.921875 44.046875 88.921875 33.015625 
L 88.921875 0 
L 79.890625 0 
L 79.890625 32.71875 
Q 79.890625 40.578125 77.09375 44.375 
Q 74.3125 48.1875 68.609375 48.1875 
Q 61.625 48.1875 57.5625 43.546875 
Q 53.515625 38.921875 53.515625 30.90625 
L 53.515625 0 
L 44.484375 0 
L 44.484375 32.71875 
Q 44.484375 40.625 41.703125 44.40625 
Q 38.921875 48.1875 33.109375 48.1875 
Q 26.21875 48.1875 22.15625 43.53125 
Q 18.109375 38.875 18.109375 30.90625 
L 18.109375 0 
L 9.078125 0 
L 9.078125 54.6875 
L 18.109375 54.6875 
L 18.109375 46.1875 
Q 21.1875 51.21875 25.484375 53.609375 
Q 29.78125 56 35.6875 56 
Q 41.65625 56 45.828125 52.96875 
Q 50 49.953125 52 44.1875 
z
" id="DejaVuSans-109"/>
       <path d="M 34.28125 27.484375 
Q 23.390625 27.484375 19.1875 25 
Q 14.984375 22.515625 14.984375 16.5 
Q 14.984375 11.71875 18.140625 8.90625 
Q 21.296875 6.109375 26.703125 6.109375 
Q 34.1875 6.109375 38.703125 11.40625 
Q 43.21875 16.703125 43.21875 25.484375 
L 43.21875 27.484375 
z
M 52.203125 31.203125 
L 52.203125 0 
L 43.21875 0 
L 43.21875 8.296875 
Q 40.140625 3.328125 35.546875 0.953125 
Q 30.953125 -1.421875 24.3125 -1.421875 
Q 15.921875 -1.421875 10.953125 3.296875 
Q 6 8.015625 6 15.921875 
Q 6 25.140625 12.171875 29.828125 
Q 18.359375 34.515625 30.609375 34.515625 
L 43.21875 34.515625 
L 43.21875 35.40625 
Q 43.21875 41.609375 39.140625 45 
Q 35.0625 48.390625 27.6875 48.390625 
Q 23 48.390625 18.546875 47.265625 
Q 14.109375 46.140625 10.015625 43.890625 
L 10.015625 52.203125 
Q 14.9375 54.109375 19.578125 55.046875 
Q 24.21875 56 28.609375 56 
Q 40.484375 56 46.34375 49.84375 
Q 52.203125 43.703125 52.203125 31.203125 
z
" id="DejaVuSans-97"/>
       <path d="M 54.890625 33.015625 
L 54.890625 0 
L 45.90625 0 
L 45.90625 32.71875 
Q 45.90625 40.484375 42.875 44.328125 
Q 39.84375 48.1875 33.796875 48.1875 
Q 26.515625 48.1875 22.3125 43.546875 
Q 18.109375 38.921875 18.109375 30.90625 
L 18.109375 0 
L 9.078125 0 
L 9.078125 54.6875 
L 18.109375 54.6875 
L 18.109375 46.1875 
Q 21.34375 51.125 25.703125 53.5625 
Q 30.078125 56 35.796875 56 
Q 45.21875 56 50.046875 50.171875 
Q 54.890625 44.34375 54.890625 33.015625 
z
" id="DejaVuSans-110"/>
      </defs>
      <use xlink:href="#DejaVuSans-119"/>
      <use x="81.787109" xlink:href="#DejaVuSans-101"/>
      <use x="143.310547" xlink:href="#DejaVuSans-101"/>
      <use x="204.833984" xlink:href="#DejaVuSans-107"/>
      <use x="262.744141" xlink:href="#DejaVuSans-108"/>
      <use x="290.527344" xlink:href="#DejaVuSans-121"/>
      <use x="349.707031" xlink:href="#DejaVuSans-32"/>
      <use x="381.494141" xlink:href="#DejaVuSans-73"/>
      <use x="410.986328" xlink:href="#DejaVuSans-67"/>
      <use x="480.810547" xlink:href="#DejaVuSans-32"/>
      <use x="512.597656" xlink:href="#DejaVuSans-109"/>
      <use x="610.009766" xlink:href="#DejaVuSans-101"/>
      <use x="671.533203" xlink:href="#DejaVuSans-97"/>
      <use x="732.8125" xlink:href="#DejaVuSans-110"/>
     </g>
    </g>
    <g id="line2d_14">
     <path d="M 59.9 53.696563 
L 79.9 53.696563 
" style="fill:none;stroke:#800080;stroke-dasharray:7.4,3.2;stroke-dashoffset:0;stroke-width:2;"/>
    </g>
    <g id="line2d_15"/>
    <g id="text_9">
     <!-- IC mean -->
     <g transform="translate(87.9 57.196563)scale(0.1 -0.1)">
      <use xlink:href="#DejaVuSans-73"/>
      <use x="29.492188" xlink:href="#DejaVuSans-67"/>
      <use x="99.316406" xlink:href="#DejaVuSans-32"/>
      <use x="131.103516" xlink:href="#DejaVuSans-109"/>
      <use x="228.515625" xlink:href="#DejaVuSans-101"/>
      <use x="290.039062" xlink:href="#DejaVuSans-97"/>
      <use x="351.318359" xlink:href="#DejaVuSans-110"/>
     </g>
    </g>
   </g>
  </g>
  <g id="axes_2">
   <g id="matplotlib.axis_3">
    <g id="ytick_6">
     <g id="line2d_16">
      <defs>
       <path d="M 0 0 
L 3.5 0 
" id="mb4a8a0dedd" style="stroke:#000000;stroke-width:0.8;"/>
      </defs>
      <g>
       <use style="stroke:#000000;stroke-width:0.8;" x="1107.88" xlink:href="#mb4a8a0dedd" y="410.603403"/>
      </g>
     </g>
     <g id="text_10">
      <!-- -2 -->
      <g transform="translate(1114.88 414.402621)scale(0.1 -0.1)">
       <use xlink:href="#DejaVuSans-45"/>
       <use x="36.083984" xlink:href="#DejaVuSans-50"/>
      </g>
     </g>
    </g>
    <g id="ytick_7">
     <g id="line2d_17">
      <g>
       <use style="stroke:#000000;stroke-width:0.8;" x="1107.88" xlink:href="#mb4a8a0dedd" y="355.164589"/>
      </g>
     </g>
     <g id="text_11">
      <!-- 0 -->
      <g transform="translate(1114.88 358.963808)scale(0.1 -0.1)">
       <use xlink:href="#DejaVuSans-48"/>
      </g>
     </g>
    </g>
    <g id="ytick_8">
     <g id="line2d_18">
      <g>
       <use style="stroke:#000000;stroke-width:0.8;" x="1107.88" xlink:href="#mb4a8a0dedd" y="299.725776"/>
      </g>
     </g>
     <g id="text_12">
      <!-- 2 -->
      <g transform="translate(1114.88 303.524994)scale(0.1 -0.1)">
       <use xlink:href="#DejaVuSans-50"/>
      </g>
     </g>
    </g>
    <g id="ytick_9">
     <g id="line2d_19">
      <g>
       <use style="stroke:#000000;stroke-width:0.8;" x="1107.88" xlink:href="#mb4a8a0dedd" y="244.286962"/>
      </g>
     </g>
     <g id="text_13">
      <!-- 4 -->
      <g transform="translate(1114.88 248.086181)scale(0.1 -0.1)">
       <use xlink:href="#DejaVuSans-52"/>
      </g>
     </g>
    </g>
    <g id="ytick_10">
     <g id="line2d_20">
      <g>
       <use style="stroke:#000000;stroke-width:0.8;" x="1107.88" xlink:href="#mb4a8a0dedd" y="188.848149"/>
      </g>
     </g>
     <g id="text_14">
      <!-- 6 -->
      <g transform="translate(1114.88 192.647367)scale(0.1 -0.1)">
       <defs>
        <path d="M 33.015625 40.375 
Q 26.375 40.375 22.484375 35.828125 
Q 18.609375 31.296875 18.609375 23.390625 
Q 18.609375 15.53125 22.484375 10.953125 
Q 26.375 6.390625 33.015625 6.390625 
Q 39.65625 6.390625 43.53125 10.953125 
Q 47.40625 15.53125 47.40625 23.390625 
Q 47.40625 31.296875 43.53125 35.828125 
Q 39.65625 40.375 33.015625 40.375 
z
M 52.59375 71.296875 
L 52.59375 62.3125 
Q 48.875 64.0625 45.09375 64.984375 
Q 41.3125 65.921875 37.59375 65.921875 
Q 27.828125 65.921875 22.671875 59.328125 
Q 17.53125 52.734375 16.796875 39.40625 
Q 19.671875 43.65625 24.015625 45.921875 
Q 28.375 48.1875 33.59375 48.1875 
Q 44.578125 48.1875 50.953125 41.515625 
Q 57.328125 34.859375 57.328125 23.390625 
Q 57.328125 12.15625 50.6875 5.359375 
Q 44.046875 -1.421875 33.015625 -1.421875 
Q 20.359375 -1.421875 13.671875 8.265625 
Q 6.984375 17.96875 6.984375 36.375 
Q 6.984375 53.65625 15.1875 63.9375 
Q 23.390625 74.21875 37.203125 74.21875 
Q 40.921875 74.21875 44.703125 73.484375 
Q 48.484375 72.75 52.59375 71.296875 
z
" id="DejaVuSans-54"/>
       </defs>
       <use xlink:href="#DejaVuSans-54"/>
      </g>
     </g>
    </g>
    <g id="ytick_11">
     <g id="line2d_21">
      <g>
       <use style="stroke:#000000;stroke-width:0.8;" x="1107.88" xlink:href="#mb4a8a0dedd" y="133.409335"/>
      </g>
     </g>
     <g id="text_15">
      <!-- 8 -->
      <g transform="translate(1114.88 137.208554)scale(0.1 -0.1)">
       <defs>
        <path d="M 31.78125 34.625 
Q 24.75 34.625 20.71875 30.859375 
Q 16.703125 27.09375 16.703125 20.515625 
Q 16.703125 13.921875 20.71875 10.15625 
Q 24.75 6.390625 31.78125 6.390625 
Q 38.8125 6.390625 42.859375 10.171875 
Q 46.921875 13.96875 46.921875 20.515625 
Q 46.921875 27.09375 42.890625 30.859375 
Q 38.875 34.625 31.78125 34.625 
z
M 21.921875 38.8125 
Q 15.578125 40.375 12.03125 44.71875 
Q 8.5 49.078125 8.5 55.328125 
Q 8.5 64.0625 14.71875 69.140625 
Q 20.953125 74.21875 31.78125 74.21875 
Q 42.671875 74.21875 48.875 69.140625 
Q 55.078125 64.0625 55.078125 55.328125 
Q 55.078125 49.078125 51.53125 44.71875 
Q 48 40.375 41.703125 38.8125 
Q 48.828125 37.15625 52.796875 32.3125 
Q 56.78125 27.484375 56.78125 20.515625 
Q 56.78125 9.90625 50.3125 4.234375 
Q 43.84375 -1.421875 31.78125 -1.421875 
Q 19.734375 -1.421875 13.25 4.234375 
Q 6.78125 9.90625 6.78125 20.515625 
Q 6.78125 27.484375 10.78125 32.3125 
Q 14.796875 37.15625 21.921875 38.8125 
z
M 18.3125 54.390625 
Q 18.3125 48.734375 21.84375 45.5625 
Q 25.390625 42.390625 31.78125 42.390625 
Q 38.140625 42.390625 41.71875 45.5625 
Q 45.3125 48.734375 45.3125 54.390625 
Q 45.3125 60.0625 41.71875 63.234375 
Q 38.140625 66.40625 31.78125 66.40625 
Q 25.390625 66.40625 21.84375 63.234375 
Q 18.3125 60.0625 18.3125 54.390625 
z
" id="DejaVuSans-56"/>
       </defs>
       <use xlink:href="#DejaVuSans-56"/>
      </g>
     </g>
    </g>
    <g id="ytick_12">
     <g id="line2d_22">
      <g>
       <use style="stroke:#000000;stroke-width:0.8;" x="1107.88" xlink:href="#mb4a8a0dedd" y="77.970522"/>
      </g>
     </g>
     <g id="text_16">
      <!-- 10 -->
      <g transform="translate(1114.88 81.76974)scale(0.1 -0.1)">
       <use xlink:href="#DejaVuSans-49"/>
       <use x="63.623047" xlink:href="#DejaVuSans-48"/>
      </g>
     </g>
    </g>
    <g id="text_17">
     <!-- IC cumsum -->
     <g transform="translate(1139.203437 253.3275)rotate(-90)scale(0.1 -0.1)">
      <defs>
       <path d="M 48.78125 52.59375 
L 48.78125 44.1875 
Q 44.96875 46.296875 41.140625 47.34375 
Q 37.3125 48.390625 33.40625 48.390625 
Q 24.65625 48.390625 19.8125 42.84375 
Q 14.984375 37.3125 14.984375 27.296875 
Q 14.984375 17.28125 19.8125 11.734375 
Q 24.65625 6.203125 33.40625 6.203125 
Q 37.3125 6.203125 41.140625 7.25 
Q 44.96875 8.296875 48.78125 10.40625 
L 48.78125 2.09375 
Q 45.015625 0.34375 40.984375 -0.53125 
Q 36.96875 -1.421875 32.421875 -1.421875 
Q 20.0625 -1.421875 12.78125 6.34375 
Q 5.515625 14.109375 5.515625 27.296875 
Q 5.515625 40.671875 12.859375 48.328125 
Q 20.21875 56 33.015625 56 
Q 37.15625 56 41.109375 55.140625 
Q 45.0625 54.296875 48.78125 52.59375 
z
" id="DejaVuSans-99"/>
       <path d="M 8.5 21.578125 
L 8.5 54.6875 
L 17.484375 54.6875 
L 17.484375 21.921875 
Q 17.484375 14.15625 20.5 10.265625 
Q 23.53125 6.390625 29.59375 6.390625 
Q 36.859375 6.390625 41.078125 11.03125 
Q 45.3125 15.671875 45.3125 23.6875 
L 45.3125 54.6875 
L 54.296875 54.6875 
L 54.296875 0 
L 45.3125 0 
L 45.3125 8.40625 
Q 42.046875 3.421875 37.71875 1 
Q 33.40625 -1.421875 27.6875 -1.421875 
Q 18.265625 -1.421875 13.375 4.4375 
Q 8.5 10.296875 8.5 21.578125 
z
M 31.109375 56 
z
" id="DejaVuSans-117"/>
       <path d="M 44.28125 53.078125 
L 44.28125 44.578125 
Q 40.484375 46.53125 36.375 47.5 
Q 32.28125 48.484375 27.875 48.484375 
Q 21.1875 48.484375 17.84375 46.4375 
Q 14.5 44.390625 14.5 40.28125 
Q 14.5 37.15625 16.890625 35.375 
Q 19.28125 33.59375 26.515625 31.984375 
L 29.59375 31.296875 
Q 39.15625 29.25 43.1875 25.515625 
Q 47.21875 21.78125 47.21875 15.09375 
Q 47.21875 7.46875 41.1875 3.015625 
Q 35.15625 -1.421875 24.609375 -1.421875 
Q 20.21875 -1.421875 15.453125 -0.5625 
Q 10.6875 0.296875 5.421875 2 
L 5.421875 11.28125 
Q 10.40625 8.6875 15.234375 7.390625 
Q 20.0625 6.109375 24.8125 6.109375 
Q 31.15625 6.109375 34.5625 8.28125 
Q 37.984375 10.453125 37.984375 14.40625 
Q 37.984375 18.0625 35.515625 20.015625 
Q 33.0625 21.96875 24.703125 23.78125 
L 21.578125 24.515625 
Q 13.234375 26.265625 9.515625 29.90625 
Q 5.8125 33.546875 5.8125 39.890625 
Q 5.8125 47.609375 11.28125 51.796875 
Q 16.75 56 26.8125 56 
Q 31.78125 56 36.171875 55.265625 
Q 40.578125 54.546875 44.28125 53.078125 
z
" id="DejaVuSans-115"/>
      </defs>
      <use xlink:href="#DejaVuSans-73"/>
      <use x="29.492188" xlink:href="#DejaVuSans-67"/>
      <use x="99.316406" xlink:href="#DejaVuSans-32"/>
      <use x="131.103516" xlink:href="#DejaVuSans-99"/>
      <use x="186.083984" xlink:href="#DejaVuSans-117"/>
      <use x="249.462891" xlink:href="#DejaVuSans-109"/>
      <use x="346.875" xlink:href="#DejaVuSans-115"/>
      <use x="398.974609" xlink:href="#DejaVuSans-117"/>
      <use x="462.353516" xlink:href="#DejaVuSans-109"/>
     </g>
    </g>
   </g>
   <g id="line2d_23">
    <path clip-path="url(#p11e70027e1)" d="M 98.944545 355.904776 
L 102.477233 354.19806 
L 106.00992 355.041958 
L 109.542607 366.861312 
L 113.075294 368.054889 
L 123.673356 356.663337 
L 127.206043 346.705057 
L 130.73873 340.289793 
L 134.271417 337.909467 
L 137.804104 327.978179 
L 148.402166 330.024112 
L 151.934853 335.488359 
L 155.46754 342.916344 
L 159.000227 356.556932 
L 162.532914 368.995645 
L 173.130976 378.175146 
L 176.663663 365.441703 
L 180.19635 357.407887 
L 183.729037 346.9671 
L 187.261725 332.287467 
L 197.859786 320.118709 
L 201.392473 311.770238 
L 208.457848 302.23164 
L 211.990535 304.224637 
L 222.588596 304.192792 
L 226.121283 306.993363 
L 229.653971 299.338027 
L 233.186658 286.185144 
L 236.719345 280.360006 
L 247.317406 275.235128 
L 250.850094 284.461569 
L 254.382781 296.589929 
L 257.915468 311.832156 
L 261.448155 323.059597 
L 272.046217 338.449261 
L 275.578904 333.758012 
L 279.111591 336.423276 
L 282.644278 335.206492 
L 286.176965 325.055081 
L 296.775027 316.172605 
L 300.307714 313.420872 
L 303.840401 318.372678 
L 307.373088 327.335854 
L 310.905775 336.732553 
L 321.503837 354.725077 
L 325.036524 369.936578 
L 332.101898 390.360054 
L 335.634586 396.887837 
L 346.232647 403.887068 
L 349.765334 405.639788 
L 353.298021 406.630909 
L 356.830709 406.502335 
L 360.363396 406.569554 
L 370.961457 404.964881 
L 374.494144 393.917392 
L 378.026832 385.363017 
L 381.559519 379.378945 
L 385.092206 360.061564 
L 395.690267 363.534255 
L 399.222955 361.076797 
L 402.755642 354.860573 
L 406.288329 346.713936 
L 409.821016 343.382399 
L 420.419078 340.512352 
L 423.951765 332.468002 
L 427.484452 339.987445 
L 431.017139 333.200563 
L 434.549826 330.962289 
L 445.147888 329.74846 
L 448.680575 320.875491 
L 452.213262 314.652576 
L 455.745949 317.631742 
L 459.278636 319.482338 
L 469.876698 321.96969 
L 473.409385 325.955375 
L 476.942072 328.289827 
L 480.474759 322.157697 
L 484.007447 305.348485 
L 498.138195 294.080946 
L 501.670882 296.887867 
L 505.20357 304.830121 
L 508.736257 310.598772 
L 519.334318 311.810598 
L 526.399693 315.099774 
L 529.93238 312.887461 
L 533.465067 306.63273 
L 544.063128 309.80094 
L 547.595816 324.020773 
L 551.128503 335.344098 
L 554.66119 332.971521 
L 558.193877 338.467673 
L 568.791939 321.041155 
L 572.324626 307.338702 
L 575.857313 305.461469 
L 579.39 306.440477 
L 582.922687 296.369221 
L 593.520749 298.660293 
L 597.053436 303.770287 
L 600.586123 291.856026 
L 604.11881 287.817056 
L 607.651497 280.220341 
L 618.249559 270.300453 
L 621.782246 268.253884 
L 625.314933 265.827931 
L 628.84762 273.290717 
L 632.380307 285.189616 
L 642.978369 297.590375 
L 646.511056 315.153955 
L 650.043743 323.327934 
L 653.57643 317.142304 
L 657.109118 306.298201 
L 667.707179 294.05416 
L 671.239866 285.040592 
L 674.772553 282.439562 
L 678.305241 275.500094 
L 681.837928 279.402946 
L 692.435989 274.244732 
L 695.968676 276.178835 
L 699.501364 287.94075 
L 703.034051 301.731226 
L 706.566738 312.280447 
L 717.164799 330.078538 
L 720.697487 347.092565 
L 724.230174 350.439519 
L 727.762861 353.351757 
L 731.295548 348.934344 
L 741.89361 341.193431 
L 745.426297 346.182277 
L 748.958984 341.115887 
L 752.491671 334.716038 
L 756.024358 328.629275 
L 766.62242 330.135289 
L 770.155107 329.888708 
L 773.687794 343.73829 
L 777.220481 356.936842 
L 780.753168 364.603322 
L 791.35123 380.070545 
L 794.883917 377.085187 
L 798.416604 365.580636 
L 801.949291 353.351152 
L 805.481979 345.71647 
L 816.08004 334.229596 
L 819.612727 316.705597 
L 823.145414 311.771313 
L 826.678102 302.409745 
L 830.210789 286.347149 
L 840.80885 280.286988 
L 844.341537 271.542655 
L 847.874225 259.240226 
L 851.406912 244.734875 
L 854.939599 231.520564 
L 865.53766 211.418337 
L 869.070348 201.137321 
L 872.603035 186.251078 
L 876.135722 176.965602 
L 879.668409 170.36083 
L 890.266471 168.364161 
L 893.799158 164.459252 
L 900.864532 137.911303 
L 904.397219 127.706534 
L 914.995281 111.580966 
L 918.527968 103.574879 
L 922.060655 98.075832 
L 925.593342 92.132356 
L 929.126029 95.842271 
L 939.724091 98.754482 
L 943.256778 90.117986 
L 946.789465 84.549589 
L 950.322152 73.756481 
L 953.85484 63.378442 
L 964.452901 48.255923 
L 967.985588 44.049091 
L 971.518275 48.784772 
L 975.050963 56.763304 
L 978.58365 68.984932 
L 989.181711 73.069756 
L 992.714398 80.541161 
L 999.779773 85.097674 
L 1003.31246 104.363997 
L 1013.910521 125.766944 
L 1017.443209 139.425198 
L 1020.975896 147.450289 
L 1024.508583 153.973189 
L 1028.04127 147.303196 
L 1038.639332 144.797019 
L 1042.172019 147.197294 
L 1045.704706 162.297881 
L 1049.237393 169.937448 
L 1052.77008 172.706801 
L 1052.77008 172.706801 
" style="fill:none;stroke:#ff0000;stroke-linecap:square;stroke-width:1.5;"/>
   </g>
   <g id="patch_49">
    <path d="M 50.9 424.76 
L 50.9 25.92 
" style="fill:none;stroke:#000000;stroke-linecap:square;stroke-linejoin:miter;stroke-width:0.8;"/>
   </g>
   <g id="patch_50">
    <path d="M 1107.88 424.76 
L 1107.88 25.92 
" style="fill:none;stroke:#000000;stroke-linecap:square;stroke-linejoin:miter;stroke-width:0.8;"/>
   </g>
   <g id="patch_51">
    <path d="M 50.9 424.76 
L 1107.88 424.76 
" style="fill:none;stroke:#000000;stroke-linecap:square;stroke-linejoin:miter;stroke-width:0.8;"/>
   </g>
   <g id="patch_52">
    <path d="M 50.9 25.92 
L 1107.88 25.92 
" style="fill:none;stroke:#000000;stroke-linecap:square;stroke-linejoin:miter;stroke-width:0.8;"/>
   </g>
   <g id="legend_2">
    <g id="patch_53">
     <path d="M 985.775312 48.598125 
L 1100.88 48.598125 
Q 1102.88 48.598125 1102.88 46.598125 
L 1102.88 32.92 
Q 1102.88 30.92 1100.88 30.92 
L 985.775312 30.92 
Q 983.775312 30.92 983.775312 32.92 
L 983.775312 46.598125 
Q 983.775312 48.598125 985.775312 48.598125 
z
" style="fill:#ffffff;opacity:0.8;stroke:#cccccc;stroke-linejoin:miter;"/>
    </g>
    <g id="line2d_24">
     <path d="M 987.775312 39.018438 
L 1007.775312 39.018438 
" style="fill:none;stroke:#ff0000;stroke-linecap:square;stroke-width:1.5;"/>
    </g>
    <g id="line2d_25"/>
    <g id="text_18">
     <!-- daily IC cumsum -->
     <g transform="translate(1015.775312 42.518438)scale(0.1 -0.1)">
      <defs>
       <path d="M 45.40625 46.390625 
L 45.40625 75.984375 
L 54.390625 75.984375 
L 54.390625 0 
L 45.40625 0 
L 45.40625 8.203125 
Q 42.578125 3.328125 38.25 0.953125 
Q 33.9375 -1.421875 27.875 -1.421875 
Q 17.96875 -1.421875 11.734375 6.484375 
Q 5.515625 14.40625 5.515625 27.296875 
Q 5.515625 40.1875 11.734375 48.09375 
Q 17.96875 56 27.875 56 
Q 33.9375 56 38.25 53.625 
Q 42.578125 51.265625 45.40625 46.390625 
z
M 14.796875 27.296875 
Q 14.796875 17.390625 18.875 11.75 
Q 22.953125 6.109375 30.078125 6.109375 
Q 37.203125 6.109375 41.296875 11.75 
Q 45.40625 17.390625 45.40625 27.296875 
Q 45.40625 37.203125 41.296875 42.84375 
Q 37.203125 48.484375 30.078125 48.484375 
Q 22.953125 48.484375 18.875 42.84375 
Q 14.796875 37.203125 14.796875 27.296875 
z
" id="DejaVuSans-100"/>
       <path d="M 9.421875 54.6875 
L 18.40625 54.6875 
L 18.40625 0 
L 9.421875 0 
z
M 9.421875 75.984375 
L 18.40625 75.984375 
L 18.40625 64.59375 
L 9.421875 64.59375 
z
" id="DejaVuSans-105"/>
      </defs>
      <use xlink:href="#DejaVuSans-100"/>
      <use x="63.476562" xlink:href="#DejaVuSans-97"/>
      <use x="124.755859" xlink:href="#DejaVuSans-105"/>
      <use x="152.539062" xlink:href="#DejaVuSans-108"/>
      <use x="180.322266" xlink:href="#DejaVuSans-121"/>
      <use x="239.501953" xlink:href="#DejaVuSans-32"/>
      <use x="271.289062" xlink:href="#DejaVuSans-73"/>
      <use x="300.78125" xlink:href="#DejaVuSans-67"/>
      <use x="370.605469" xlink:href="#DejaVuSans-32"/>
      <use x="402.392578" xlink:href="#DejaVuSans-99"/>
      <use x="457.373047" xlink:href="#DejaVuSans-117"/>
      <use x="520.751953" xlink:href="#DejaVuSans-109"/>
      <use x="618.164062" xlink:href="#DejaVuSans-115"/>
      <use x="670.263672" xlink:href="#DejaVuSans-117"/>
      <use x="733.642578" xlink:href="#DejaVuSans-109"/>
     </g>
    </g>
   </g>
  </g>
  <g id="axes_3">
   <g id="matplotlib.axis_4">
    <g id="ytick_13">
     <g id="line2d_26">
      <g>
       <use style="stroke:#000000;stroke-width:0.8;" x="1107.88" xlink:href="#mb4a8a0dedd" y="424.76"/>
      </g>
     </g>
    </g>
    <g id="ytick_14">
     <g id="line2d_27">
      <g>
       <use style="stroke:#000000;stroke-width:0.8;" x="1107.88" xlink:href="#mb4a8a0dedd" y="344.992"/>
      </g>
     </g>
    </g>
    <g id="ytick_15">
     <g id="line2d_28">
      <g>
       <use style="stroke:#000000;stroke-width:0.8;" x="1107.88" xlink:href="#mb4a8a0dedd" y="265.224"/>
      </g>
     </g>
    </g>
    <g id="ytick_16">
     <g id="line2d_29">
      <g>
       <use style="stroke:#000000;stroke-width:0.8;" x="1107.88" xlink:href="#mb4a8a0dedd" y="185.456"/>
      </g>
     </g>
    </g>
    <g id="ytick_17">
     <g id="line2d_30">
      <g>
       <use style="stroke:#000000;stroke-width:0.8;" x="1107.88" xlink:href="#mb4a8a0dedd" y="105.688"/>
      </g>
     </g>
    </g>
    <g id="ytick_18">
     <g id="line2d_31">
      <g>
       <use style="stroke:#000000;stroke-width:0.8;" x="1107.88" xlink:href="#mb4a8a0dedd" y="25.92"/>
      </g>
     </g>
    </g>
   </g>
   <g id="patch_54">
    <path d="M 50.9 424.76 
L 50.9 25.92 
" style="fill:none;stroke:#000000;stroke-linecap:square;stroke-linejoin:miter;stroke-width:0.8;"/>
   </g>
   <g id="patch_55">
    <path d="M 1107.88 424.76 
L 1107.88 25.92 
" style="fill:none;stroke:#000000;stroke-linecap:square;stroke-linejoin:miter;stroke-width:0.8;"/>
   </g>
   <g id="patch_56">
    <path d="M 50.9 424.76 
L 1107.88 424.76 
" style="fill:none;stroke:#000000;stroke-linecap:square;stroke-linejoin:miter;stroke-width:0.8;"/>
   </g>
   <g id="patch_57">
    <path d="M 50.9 25.92 
L 1107.88 25.92 
" style="fill:none;stroke:#000000;stroke-linecap:square;stroke-linejoin:miter;stroke-width:0.8;"/>
   </g>
   <g id="text_19">
    <!-- IC: (2010-01-04 ~ 2010-10-08) -->
    <g transform="translate(486.24 19.92)scale(0.12 -0.12)">
     <defs>
      <path d="M 11.71875 12.40625 
L 22.015625 12.40625 
L 22.015625 0 
L 11.71875 0 
z
M 11.71875 51.703125 
L 22.015625 51.703125 
L 22.015625 39.3125 
L 11.71875 39.3125 
z
" id="DejaVuSans-58"/>
      <path d="M 31 75.875 
Q 24.46875 64.65625 21.28125 53.65625 
Q 18.109375 42.671875 18.109375 31.390625 
Q 18.109375 20.125 21.3125 9.0625 
Q 24.515625 -2 31 -13.1875 
L 23.1875 -13.1875 
Q 15.875 -1.703125 12.234375 9.375 
Q 8.59375 20.453125 8.59375 31.390625 
Q 8.59375 42.28125 12.203125 53.3125 
Q 15.828125 64.359375 23.1875 75.875 
z
" id="DejaVuSans-40"/>
      <path d="M 73.1875 39.890625 
L 73.1875 31.203125 
Q 68.0625 27.34375 63.6875 25.6875 
Q 59.328125 24.03125 54.59375 24.03125 
Q 49.21875 24.03125 42.09375 26.90625 
Q 41.546875 27.09375 41.3125 27.203125 
Q 40.96875 27.34375 40.234375 27.59375 
Q 32.671875 30.609375 28.078125 30.609375 
Q 23.78125 30.609375 19.578125 28.734375 
Q 15.375 26.859375 10.59375 22.796875 
L 10.59375 31.5 
Q 15.71875 35.359375 20.09375 37.03125 
Q 24.46875 38.71875 29.203125 38.71875 
Q 34.578125 38.71875 41.75 35.796875 
Q 42.234375 35.59375 42.484375 35.5 
Q 42.875 35.359375 43.5625 35.109375 
Q 51.125 32.078125 55.71875 32.078125 
Q 59.90625 32.078125 64.03125 33.9375 
Q 68.171875 35.796875 73.1875 39.890625 
z
" id="DejaVuSans-126"/>
      <path d="M 8.015625 75.875 
L 15.828125 75.875 
Q 23.140625 64.359375 26.78125 53.3125 
Q 30.421875 42.28125 30.421875 31.390625 
Q 30.421875 20.453125 26.78125 9.375 
Q 23.140625 -1.703125 15.828125 -13.1875 
L 8.015625 -13.1875 
Q 14.5 -2 17.703125 9.0625 
Q 20.90625 20.125 20.90625 31.390625 
Q 20.90625 42.671875 17.703125 53.65625 
Q 14.5 64.65625 8.015625 75.875 
z
" id="DejaVuSans-41"/>
     </defs>
     <use xlink:href="#DejaVuSans-73"/>
     <use x="29.492188" xlink:href="#DejaVuSans-67"/>
     <use x="99.316406" xlink:href="#DejaVuSans-58"/>
     <use x="133.007812" xlink:href="#DejaVuSans-32"/>
     <use x="164.794922" xlink:href="#DejaVuSans-40"/>
     <use x="203.808594" xlink:href="#DejaVuSans-50"/>
     <use x="267.431641" xlink:href="#DejaVuSans-48"/>
     <use x="331.054688" xlink:href="#DejaVuSans-49"/>
     <use x="394.677734" xlink:href="#DejaVuSans-48"/>
     <use x="458.300781" xlink:href="#DejaVuSans-45"/>
     <use x="494.384766" xlink:href="#DejaVuSans-48"/>
     <use x="558.007812" xlink:href="#DejaVuSans-49"/>
     <use x="621.630859" xlink:href="#DejaVuSans-45"/>
     <use x="657.714844" xlink:href="#DejaVuSans-48"/>
     <use x="721.337891" xlink:href="#DejaVuSans-52"/>
     <use x="784.960938" xlink:href="#DejaVuSans-32"/>
     <use x="816.748047" xlink:href="#DejaVuSans-126"/>
     <use x="900.537109" xlink:href="#DejaVuSans-32"/>
     <use x="932.324219" xlink:href="#DejaVuSans-50"/>
     <use x="995.947266" xlink:href="#DejaVuSans-48"/>
     <use x="1059.570312" xlink:href="#DejaVuSans-49"/>
     <use x="1123.193359" xlink:href="#DejaVuSans-48"/>
     <use x="1186.816406" xlink:href="#DejaVuSans-45"/>
     <use x="1222.900391" xlink:href="#DejaVuSans-49"/>
     <use x="1286.523438" xlink:href="#DejaVuSans-48"/>
     <use x="1350.146484" xlink:href="#DejaVuSans-45"/>
     <use x="1386.230469" xlink:href="#DejaVuSans-48"/>
     <use x="1449.853516" xlink:href="#DejaVuSans-56"/>
     <use x="1513.476562" xlink:href="#DejaVuSans-41"/>
    </g>
   </g>
   <g id="legend_3">
    <g id="patch_58">
     <path d="M 505.847812 92.6325 
L 652.932187 92.6325 
Q 654.932187 92.6325 654.932187 90.6325 
L 654.932187 32.92 
Q 654.932187 30.92 652.932187 30.92 
L 505.847812 30.92 
Q 503.847812 30.92 503.847812 32.92 
L 503.847812 90.6325 
Q 503.847812 92.6325 505.847812 92.6325 
z
" style="fill:#ffffff;opacity:0.8;stroke:#cccccc;stroke-linejoin:miter;"/>
    </g>
    <g id="line2d_32"/>
    <g id="line2d_33"/>
    <g id="text_20">
     <!-- IC mean:   0.0338         -->
     <g transform="translate(535.847812 42.518438)scale(0.1 -0.1)">
      <defs>
       <path d="M 40.578125 39.3125 
Q 47.65625 37.796875 51.625 33 
Q 55.609375 28.21875 55.609375 21.1875 
Q 55.609375 10.40625 48.1875 4.484375 
Q 40.765625 -1.421875 27.09375 -1.421875 
Q 22.515625 -1.421875 17.65625 -0.515625 
Q 12.796875 0.390625 7.625 2.203125 
L 7.625 11.71875 
Q 11.71875 9.328125 16.59375 8.109375 
Q 21.484375 6.890625 26.8125 6.890625 
Q 36.078125 6.890625 40.9375 10.546875 
Q 45.796875 14.203125 45.796875 21.1875 
Q 45.796875 27.640625 41.28125 31.265625 
Q 36.765625 34.90625 28.71875 34.90625 
L 20.21875 34.90625 
L 20.21875 43.015625 
L 29.109375 43.015625 
Q 36.375 43.015625 40.234375 45.921875 
Q 44.09375 48.828125 44.09375 54.296875 
Q 44.09375 59.90625 40.109375 62.90625 
Q 36.140625 65.921875 28.71875 65.921875 
Q 24.65625 65.921875 20.015625 65.03125 
Q 15.375 64.15625 9.8125 62.3125 
L 9.8125 71.09375 
Q 15.4375 72.65625 20.34375 73.4375 
Q 25.25 74.21875 29.59375 74.21875 
Q 40.828125 74.21875 47.359375 69.109375 
Q 53.90625 64.015625 53.90625 55.328125 
Q 53.90625 49.265625 50.4375 45.09375 
Q 46.96875 40.921875 40.578125 39.3125 
z
" id="DejaVuSans-51"/>
      </defs>
      <use xlink:href="#DejaVuSans-73"/>
      <use x="29.492188" xlink:href="#DejaVuSans-67"/>
      <use x="99.316406" xlink:href="#DejaVuSans-32"/>
      <use x="131.103516" xlink:href="#DejaVuSans-109"/>
      <use x="228.515625" xlink:href="#DejaVuSans-101"/>
      <use x="290.039062" xlink:href="#DejaVuSans-97"/>
      <use x="351.318359" xlink:href="#DejaVuSans-110"/>
      <use x="414.697266" xlink:href="#DejaVuSans-58"/>
      <use x="448.388672" xlink:href="#DejaVuSans-32"/>
      <use x="480.175781" xlink:href="#DejaVuSans-32"/>
      <use x="511.962891" xlink:href="#DejaVuSans-32"/>
      <use x="543.75" xlink:href="#DejaVuSans-48"/>
      <use x="607.373047" xlink:href="#DejaVuSans-46"/>
      <use x="639.160156" xlink:href="#DejaVuSans-48"/>
      <use x="702.783203" xlink:href="#DejaVuSans-51"/>
      <use x="766.40625" xlink:href="#DejaVuSans-51"/>
      <use x="830.029297" xlink:href="#DejaVuSans-56"/>
      <use x="893.652344" xlink:href="#DejaVuSans-32"/>
      <use x="925.439453" xlink:href="#DejaVuSans-32"/>
      <use x="957.226562" xlink:href="#DejaVuSans-32"/>
      <use x="989.013672" xlink:href="#DejaVuSans-32"/>
      <use x="1020.800781" xlink:href="#DejaVuSans-32"/>
      <use x="1052.587891" xlink:href="#DejaVuSans-32"/>
      <use x="1084.375" xlink:href="#DejaVuSans-32"/>
      <use x="1116.162109" xlink:href="#DejaVuSans-32"/>
     </g>
    </g>
    <g id="line2d_34"/>
    <g id="line2d_35"/>
    <g id="text_21">
     <!-- IC std:       0.3289         -->
     <g transform="translate(535.847812 57.196563)scale(0.1 -0.1)">
      <defs>
       <path d="M 18.3125 70.21875 
L 18.3125 54.6875 
L 36.8125 54.6875 
L 36.8125 47.703125 
L 18.3125 47.703125 
L 18.3125 18.015625 
Q 18.3125 11.328125 20.140625 9.421875 
Q 21.96875 7.515625 27.59375 7.515625 
L 36.8125 7.515625 
L 36.8125 0 
L 27.59375 0 
Q 17.1875 0 13.234375 3.875 
Q 9.28125 7.765625 9.28125 18.015625 
L 9.28125 47.703125 
L 2.6875 47.703125 
L 2.6875 54.6875 
L 9.28125 54.6875 
L 9.28125 70.21875 
z
" id="DejaVuSans-116"/>
       <path d="M 10.984375 1.515625 
L 10.984375 10.5 
Q 14.703125 8.734375 18.5 7.8125 
Q 22.3125 6.890625 25.984375 6.890625 
Q 35.75 6.890625 40.890625 13.453125 
Q 46.046875 20.015625 46.78125 33.40625 
Q 43.953125 29.203125 39.59375 26.953125 
Q 35.25 24.703125 29.984375 24.703125 
Q 19.046875 24.703125 12.671875 31.3125 
Q 6.296875 37.9375 6.296875 49.421875 
Q 6.296875 60.640625 12.9375 67.421875 
Q 19.578125 74.21875 30.609375 74.21875 
Q 43.265625 74.21875 49.921875 64.515625 
Q 56.59375 54.828125 56.59375 36.375 
Q 56.59375 19.140625 48.40625 8.859375 
Q 40.234375 -1.421875 26.421875 -1.421875 
Q 22.703125 -1.421875 18.890625 -0.6875 
Q 15.09375 0.046875 10.984375 1.515625 
z
M 30.609375 32.421875 
Q 37.25 32.421875 41.125 36.953125 
Q 45.015625 41.5 45.015625 49.421875 
Q 45.015625 57.28125 41.125 61.84375 
Q 37.25 66.40625 30.609375 66.40625 
Q 23.96875 66.40625 20.09375 61.84375 
Q 16.21875 57.28125 16.21875 49.421875 
Q 16.21875 41.5 20.09375 36.953125 
Q 23.96875 32.421875 30.609375 32.421875 
z
" id="DejaVuSans-57"/>
      </defs>
      <use xlink:href="#DejaVuSans-73"/>
      <use x="29.492188" xlink:href="#DejaVuSans-67"/>
      <use x="99.316406" xlink:href="#DejaVuSans-32"/>
      <use x="131.103516" xlink:href="#DejaVuSans-115"/>
      <use x="183.203125" xlink:href="#DejaVuSans-116"/>
      <use x="222.412109" xlink:href="#DejaVuSans-100"/>
      <use x="285.888672" xlink:href="#DejaVuSans-58"/>
      <use x="319.580078" xlink:href="#DejaVuSans-32"/>
      <use x="351.367188" xlink:href="#DejaVuSans-32"/>
      <use x="383.154297" xlink:href="#DejaVuSans-32"/>
      <use x="414.941406" xlink:href="#DejaVuSans-32"/>
      <use x="446.728516" xlink:href="#DejaVuSans-32"/>
      <use x="478.515625" xlink:href="#DejaVuSans-32"/>
      <use x="510.302734" xlink:href="#DejaVuSans-32"/>
      <use x="542.089844" xlink:href="#DejaVuSans-48"/>
      <use x="605.712891" xlink:href="#DejaVuSans-46"/>
      <use x="637.5" xlink:href="#DejaVuSans-51"/>
      <use x="701.123047" xlink:href="#DejaVuSans-50"/>
      <use x="764.746094" xlink:href="#DejaVuSans-56"/>
      <use x="828.369141" xlink:href="#DejaVuSans-57"/>
      <use x="891.992188" xlink:href="#DejaVuSans-32"/>
      <use x="923.779297" xlink:href="#DejaVuSans-32"/>
      <use x="955.566406" xlink:href="#DejaVuSans-32"/>
      <use x="987.353516" xlink:href="#DejaVuSans-32"/>
      <use x="1019.140625" xlink:href="#DejaVuSans-32"/>
      <use x="1050.927734" xlink:href="#DejaVuSans-32"/>
      <use x="1082.714844" xlink:href="#DejaVuSans-32"/>
      <use x="1114.501953" xlink:href="#DejaVuSans-32"/>
     </g>
    </g>
    <g id="line2d_36"/>
    <g id="line2d_37"/>
    <g id="text_22">
     <!-- IC IR:         0.1026         -->
     <g transform="translate(535.847812 71.874688)scale(0.1 -0.1)">
      <defs>
       <path d="M 44.390625 34.1875 
Q 47.5625 33.109375 50.5625 29.59375 
Q 53.5625 26.078125 56.59375 19.921875 
L 66.609375 0 
L 56 0 
L 46.6875 18.703125 
Q 43.0625 26.03125 39.671875 28.421875 
Q 36.28125 30.8125 30.421875 30.8125 
L 19.671875 30.8125 
L 19.671875 0 
L 9.8125 0 
L 9.8125 72.90625 
L 32.078125 72.90625 
Q 44.578125 72.90625 50.734375 67.671875 
Q 56.890625 62.453125 56.890625 51.90625 
Q 56.890625 45.015625 53.6875 40.46875 
Q 50.484375 35.9375 44.390625 34.1875 
z
M 19.671875 64.796875 
L 19.671875 38.921875 
L 32.078125 38.921875 
Q 39.203125 38.921875 42.84375 42.21875 
Q 46.484375 45.515625 46.484375 51.90625 
Q 46.484375 58.296875 42.84375 61.546875 
Q 39.203125 64.796875 32.078125 64.796875 
z
" id="DejaVuSans-82"/>
      </defs>
      <use xlink:href="#DejaVuSans-73"/>
      <use x="29.492188" xlink:href="#DejaVuSans-67"/>
      <use x="99.316406" xlink:href="#DejaVuSans-32"/>
      <use x="131.103516" xlink:href="#DejaVuSans-73"/>
      <use x="160.595703" xlink:href="#DejaVuSans-82"/>
      <use x="226.953125" xlink:href="#DejaVuSans-58"/>
      <use x="260.644531" xlink:href="#DejaVuSans-32"/>
      <use x="292.431641" xlink:href="#DejaVuSans-32"/>
      <use x="324.21875" xlink:href="#DejaVuSans-32"/>
      <use x="356.005859" xlink:href="#DejaVuSans-32"/>
      <use x="387.792969" xlink:href="#DejaVuSans-32"/>
      <use x="419.580078" xlink:href="#DejaVuSans-32"/>
      <use x="451.367188" xlink:href="#DejaVuSans-32"/>
      <use x="483.154297" xlink:href="#DejaVuSans-32"/>
      <use x="514.941406" xlink:href="#DejaVuSans-32"/>
      <use x="546.728516" xlink:href="#DejaVuSans-48"/>
      <use x="610.351562" xlink:href="#DejaVuSans-46"/>
      <use x="642.138672" xlink:href="#DejaVuSans-49"/>
      <use x="705.761719" xlink:href="#DejaVuSans-48"/>
      <use x="769.384766" xlink:href="#DejaVuSans-50"/>
      <use x="833.007812" xlink:href="#DejaVuSans-54"/>
      <use x="896.630859" xlink:href="#DejaVuSans-32"/>
      <use x="928.417969" xlink:href="#DejaVuSans-32"/>
      <use x="960.205078" xlink:href="#DejaVuSans-32"/>
      <use x="991.992188" xlink:href="#DejaVuSans-32"/>
      <use x="1023.779297" xlink:href="#DejaVuSans-32"/>
      <use x="1055.566406" xlink:href="#DejaVuSans-32"/>
      <use x="1087.353516" xlink:href="#DejaVuSans-32"/>
      <use x="1119.140625" xlink:href="#DejaVuSans-32"/>
     </g>
    </g>
    <g id="line2d_38"/>
    <g id="line2d_39"/>
    <g id="text_23">
     <!-- IC (+)rate: 0.5350 -->
     <g transform="translate(535.847812 86.552813)scale(0.1 -0.1)">
      <defs>
       <path d="M 46 62.703125 
L 46 35.5 
L 73.1875 35.5 
L 73.1875 27.203125 
L 46 27.203125 
L 46 0 
L 37.796875 0 
L 37.796875 27.203125 
L 10.59375 27.203125 
L 10.59375 35.5 
L 37.796875 35.5 
L 37.796875 62.703125 
z
" id="DejaVuSans-43"/>
       <path d="M 41.109375 46.296875 
Q 39.59375 47.171875 37.8125 47.578125 
Q 36.03125 48 33.890625 48 
Q 26.265625 48 22.1875 43.046875 
Q 18.109375 38.09375 18.109375 28.8125 
L 18.109375 0 
L 9.078125 0 
L 9.078125 54.6875 
L 18.109375 54.6875 
L 18.109375 46.1875 
Q 20.953125 51.171875 25.484375 53.578125 
Q 30.03125 56 36.53125 56 
Q 37.453125 56 38.578125 55.875 
Q 39.703125 55.765625 41.0625 55.515625 
z
" id="DejaVuSans-114"/>
       <path d="M 10.796875 72.90625 
L 49.515625 72.90625 
L 49.515625 64.59375 
L 19.828125 64.59375 
L 19.828125 46.734375 
Q 21.96875 47.46875 24.109375 47.828125 
Q 26.265625 48.1875 28.421875 48.1875 
Q 40.625 48.1875 47.75 41.5 
Q 54.890625 34.8125 54.890625 23.390625 
Q 54.890625 11.625 47.5625 5.09375 
Q 40.234375 -1.421875 26.90625 -1.421875 
Q 22.3125 -1.421875 17.546875 -0.640625 
Q 12.796875 0.140625 7.71875 1.703125 
L 7.71875 11.625 
Q 12.109375 9.234375 16.796875 8.0625 
Q 21.484375 6.890625 26.703125 6.890625 
Q 35.15625 6.890625 40.078125 11.328125 
Q 45.015625 15.765625 45.015625 23.390625 
Q 45.015625 31 40.078125 35.4375 
Q 35.15625 39.890625 26.703125 39.890625 
Q 22.75 39.890625 18.8125 39.015625 
Q 14.890625 38.140625 10.796875 36.28125 
z
" id="DejaVuSans-53"/>
      </defs>
      <use xlink:href="#DejaVuSans-73"/>
      <use x="29.492188" xlink:href="#DejaVuSans-67"/>
      <use x="99.316406" xlink:href="#DejaVuSans-32"/>
      <use x="131.103516" xlink:href="#DejaVuSans-40"/>
      <use x="170.117188" xlink:href="#DejaVuSans-43"/>
      <use x="253.90625" xlink:href="#DejaVuSans-41"/>
      <use x="292.919922" xlink:href="#DejaVuSans-114"/>
      <use x="334.033203" xlink:href="#DejaVuSans-97"/>
      <use x="395.3125" xlink:href="#DejaVuSans-116"/>
      <use x="434.521484" xlink:href="#DejaVuSans-101"/>
      <use x="496.044922" xlink:href="#DejaVuSans-58"/>
      <use x="529.736328" xlink:href="#DejaVuSans-32"/>
      <use x="561.523438" xlink:href="#DejaVuSans-48"/>
      <use x="625.146484" xlink:href="#DejaVuSans-46"/>
      <use x="656.933594" xlink:href="#DejaVuSans-53"/>
      <use x="720.556641" xlink:href="#DejaVuSans-51"/>
      <use x="784.179688" xlink:href="#DejaVuSans-53"/>
      <use x="847.802734" xlink:href="#DejaVuSans-48"/>
     </g>
    </g>
   </g>
  </g>
 </g>
 <defs>
  <clipPath id="p11e70027e1">
   <rect height="398.84" width="1056.98" x="50.9" y="25.92"/>
  </clipPath>
 </defs>
</svg>
