<?xml version="1.0" encoding="utf-8" standalone="no"?>
<!DOCTYPE svg PUBLIC "-//W3C//DTD SVG 1.1//EN"
  "http://www.w3.org/Graphics/SVG/1.1/DTD/svg11.dtd">
<!-- Created with matplotlib (https://matplotlib.org/) -->
<svg height="432pt" version="1.1" viewBox="0 0 1152 432" width="1152pt" xmlns="http://www.w3.org/2000/svg" xmlns:xlink="http://www.w3.org/1999/xlink">
 <metadata>
  <rdf:RDF xmlns:cc="http://creativecommons.org/ns#" xmlns:dc="http://purl.org/dc/elements/1.1/" xmlns:rdf="http://www.w3.org/1999/02/22-rdf-syntax-ns#">
   <cc:Work>
    <dc:type rdf:resource="http://purl.org/dc/dcmitype/StillImage"/>
    <dc:date>2023-10-11T16:36:41.787912</dc:date>
    <dc:format>image/svg+xml</dc:format>
    <dc:creator>
     <cc:Agent>
      <dc:title>Matplotlib v3.3.4, https://matplotlib.org/</dc:title>
     </cc:Agent>
    </dc:creator>
   </cc:Work>
  </rdf:RDF>
 </metadata>
 <defs>
  <style type="text/css">*{stroke-linecap:butt;stroke-linejoin:round;}</style>
 </defs>
 <g id="figure_1">
  <g id="patch_1">
   <path d="M 0 432 
L 1152 432 
L 1152 0 
L 0 0 
z
" style="fill:#ffffff;"/>
  </g>
  <g id="axes_1">
   <g id="patch_2">
    <path d="M 47.72 388.91 
L 1118.36 388.91 
L 1118.36 26.88 
L 47.72 26.88 
z
" style="fill:#ffffff;"/>
   </g>
   <g id="patch_3">
    <path clip-path="url(#p3c709f50a8)" d="M 96.385455 388.91 
L 99.18836 388.91 
L 99.18836 388.91 
L 96.385455 388.91 
z
" style="fill:#1f77b4;"/>
   </g>
   <g id="patch_4">
    <path clip-path="url(#p3c709f50a8)" d="M 99.889087 388.91 
L 102.691993 388.91 
L 102.691993 388.91 
L 99.889087 388.91 
z
" style="fill:#1f77b4;"/>
   </g>
   <g id="patch_5">
    <path clip-path="url(#p3c709f50a8)" d="M 103.392719 388.91 
L 106.195625 388.91 
L 106.195625 388.91 
L 103.392719 388.91 
z
" style="fill:#1f77b4;"/>
   </g>
   <g id="patch_6">
    <path clip-path="url(#p3c709f50a8)" d="M 106.896352 388.91 
L 109.699258 388.91 
L 109.699258 388.91 
L 106.896352 388.91 
z
" style="fill:#1f77b4;"/>
   </g>
   <g id="patch_7">
    <path clip-path="url(#p3c709f50a8)" d="M 110.399984 388.91 
L 113.20289 388.91 
L 113.20289 388.91 
L 110.399984 388.91 
z
" style="fill:#1f77b4;"/>
   </g>
   <g id="patch_8">
    <path clip-path="url(#p3c709f50a8)" d="M 120.910882 388.91 
L 123.713788 388.91 
L 123.713788 388.91 
L 120.910882 388.91 
z
" style="fill:#1f77b4;"/>
   </g>
   <g id="patch_9">
    <path clip-path="url(#p3c709f50a8)" d="M 124.414514 388.91 
L 127.21742 388.91 
L 127.21742 388.91 
L 124.414514 388.91 
z
" style="fill:#1f77b4;"/>
   </g>
   <g id="patch_10">
    <path clip-path="url(#p3c709f50a8)" d="M 127.918146 388.91 
L 130.721052 388.91 
L 130.721052 388.91 
L 127.918146 388.91 
z
" style="fill:#1f77b4;"/>
   </g>
   <g id="patch_11">
    <path clip-path="url(#p3c709f50a8)" d="M 131.421779 388.91 
L 134.224685 388.91 
L 134.224685 388.91 
L 131.421779 388.91 
z
" style="fill:#1f77b4;"/>
   </g>
   <g id="patch_12">
    <path clip-path="url(#p3c709f50a8)" d="M 134.925411 388.91 
L 137.728317 388.91 
L 137.728317 388.91 
L 134.925411 388.91 
z
" style="fill:#1f77b4;"/>
   </g>
   <g id="patch_13">
    <path clip-path="url(#p3c709f50a8)" d="M 145.436309 388.91 
L 148.239215 388.91 
L 148.239215 388.91 
L 145.436309 388.91 
z
" style="fill:#1f77b4;"/>
   </g>
   <g id="patch_14">
    <path clip-path="url(#p3c709f50a8)" d="M 148.939941 388.91 
L 151.742847 388.91 
L 151.742847 388.91 
L 148.939941 388.91 
z
" style="fill:#1f77b4;"/>
   </g>
   <g id="patch_15">
    <path clip-path="url(#p3c709f50a8)" d="M 152.443574 388.91 
L 155.246479 388.91 
L 155.246479 388.91 
L 152.443574 388.91 
z
" style="fill:#1f77b4;"/>
   </g>
   <g id="patch_16">
    <path clip-path="url(#p3c709f50a8)" d="M 155.947206 388.91 
L 158.750112 388.91 
L 158.750112 388.91 
L 155.947206 388.91 
z
" style="fill:#1f77b4;"/>
   </g>
   <g id="patch_17">
    <path clip-path="url(#p3c709f50a8)" d="M 159.450838 388.91 
L 162.253744 388.91 
L 162.253744 388.91 
L 159.450838 388.91 
z
" style="fill:#1f77b4;"/>
   </g>
   <g id="patch_18">
    <path clip-path="url(#p3c709f50a8)" d="M 169.961736 388.91 
L 172.764642 388.91 
L 172.764642 388.91 
L 169.961736 388.91 
z
" style="fill:#1f77b4;"/>
   </g>
   <g id="patch_19">
    <path clip-path="url(#p3c709f50a8)" d="M 173.465368 388.91 
L 176.268274 388.91 
L 176.268274 388.91 
L 173.465368 388.91 
z
" style="fill:#1f77b4;"/>
   </g>
   <g id="patch_20">
    <path clip-path="url(#p3c709f50a8)" d="M 176.969001 388.91 
L 179.771907 388.91 
L 179.771907 388.91 
L 176.969001 388.91 
z
" style="fill:#1f77b4;"/>
   </g>
   <g id="patch_21">
    <path clip-path="url(#p3c709f50a8)" d="M 180.472633 388.91 
L 183.275539 388.91 
L 183.275539 388.91 
L 180.472633 388.91 
z
" style="fill:#1f77b4;"/>
   </g>
   <g id="patch_22">
    <path clip-path="url(#p3c709f50a8)" d="M 183.976265 388.91 
L 186.779171 388.91 
L 186.779171 388.91 
L 183.976265 388.91 
z
" style="fill:#1f77b4;"/>
   </g>
   <g id="patch_23">
    <path clip-path="url(#p3c709f50a8)" d="M 194.487163 388.91 
L 197.290069 388.91 
L 197.290069 388.91 
L 194.487163 388.91 
z
" style="fill:#1f77b4;"/>
   </g>
   <g id="patch_24">
    <path clip-path="url(#p3c709f50a8)" d="M 197.990795 388.91 
L 200.793701 388.91 
L 200.793701 388.91 
L 197.990795 388.91 
z
" style="fill:#1f77b4;"/>
   </g>
   <g id="patch_25">
    <path clip-path="url(#p3c709f50a8)" d="M 201.494428 388.91 
L 204.297334 388.91 
L 204.297334 388.91 
L 201.494428 388.91 
z
" style="fill:#1f77b4;"/>
   </g>
   <g id="patch_26">
    <path clip-path="url(#p3c709f50a8)" d="M 204.99806 388.91 
L 207.800966 388.91 
L 207.800966 388.91 
L 204.99806 388.91 
z
" style="fill:#1f77b4;"/>
   </g>
   <g id="patch_27">
    <path clip-path="url(#p3c709f50a8)" d="M 208.501693 388.91 
L 211.304598 388.91 
L 211.304598 388.91 
L 208.501693 388.91 
z
" style="fill:#1f77b4;"/>
   </g>
   <g id="patch_28">
    <path clip-path="url(#p3c709f50a8)" d="M 219.01259 388.91 
L 221.815496 388.91 
L 221.815496 388.91 
L 219.01259 388.91 
z
" style="fill:#1f77b4;"/>
   </g>
   <g id="patch_29">
    <path clip-path="url(#p3c709f50a8)" d="M 222.516222 388.91 
L 225.319128 388.91 
L 225.319128 388.91 
L 222.516222 388.91 
z
" style="fill:#1f77b4;"/>
   </g>
   <g id="patch_30">
    <path clip-path="url(#p3c709f50a8)" d="M 226.019855 388.91 
L 228.822761 388.91 
L 228.822761 388.91 
L 226.019855 388.91 
z
" style="fill:#1f77b4;"/>
   </g>
   <g id="patch_31">
    <path clip-path="url(#p3c709f50a8)" d="M 229.523487 388.91 
L 232.326393 388.91 
L 232.326393 388.91 
L 229.523487 388.91 
z
" style="fill:#1f77b4;"/>
   </g>
   <g id="patch_32">
    <path clip-path="url(#p3c709f50a8)" d="M 233.02712 388.91 
L 235.830026 388.91 
L 235.830026 388.91 
L 233.02712 388.91 
z
" style="fill:#1f77b4;"/>
   </g>
   <g id="patch_33">
    <path clip-path="url(#p3c709f50a8)" d="M 243.538017 388.91 
L 246.340923 388.91 
L 246.340923 388.91 
L 243.538017 388.91 
z
" style="fill:#1f77b4;"/>
   </g>
   <g id="patch_34">
    <path clip-path="url(#p3c709f50a8)" d="M 247.041649 388.91 
L 249.844555 388.91 
L 249.844555 388.91 
L 247.041649 388.91 
z
" style="fill:#1f77b4;"/>
   </g>
   <g id="patch_35">
    <path clip-path="url(#p3c709f50a8)" d="M 250.545282 388.91 
L 253.348188 388.91 
L 253.348188 388.91 
L 250.545282 388.91 
z
" style="fill:#1f77b4;"/>
   </g>
   <g id="patch_36">
    <path clip-path="url(#p3c709f50a8)" d="M 254.048914 388.91 
L 256.85182 388.91 
L 256.85182 388.91 
L 254.048914 388.91 
z
" style="fill:#1f77b4;"/>
   </g>
   <g id="patch_37">
    <path clip-path="url(#p3c709f50a8)" d="M 257.552547 388.91 
L 260.355453 388.91 
L 260.355453 388.91 
L 257.552547 388.91 
z
" style="fill:#1f77b4;"/>
   </g>
   <g id="patch_38">
    <path clip-path="url(#p3c709f50a8)" d="M 268.063444 388.91 
L 270.86635 388.91 
L 270.86635 388.91 
L 268.063444 388.91 
z
" style="fill:#1f77b4;"/>
   </g>
   <g id="patch_39">
    <path clip-path="url(#p3c709f50a8)" d="M 271.567076 388.91 
L 274.369982 388.91 
L 274.369982 388.91 
L 271.567076 388.91 
z
" style="fill:#1f77b4;"/>
   </g>
   <g id="patch_40">
    <path clip-path="url(#p3c709f50a8)" d="M 275.070709 388.91 
L 277.873615 388.91 
L 277.873615 388.91 
L 275.070709 388.91 
z
" style="fill:#1f77b4;"/>
   </g>
   <g id="patch_41">
    <path clip-path="url(#p3c709f50a8)" d="M 278.574341 388.91 
L 281.377247 388.91 
L 281.377247 388.91 
L 278.574341 388.91 
z
" style="fill:#1f77b4;"/>
   </g>
   <g id="patch_42">
    <path clip-path="url(#p3c709f50a8)" d="M 282.077974 388.91 
L 284.88088 388.91 
L 284.88088 280.840999 
L 282.077974 280.840999 
z
" style="fill:#1f77b4;"/>
   </g>
   <g id="patch_43">
    <path clip-path="url(#p3c709f50a8)" d="M 292.588871 388.91 
L 295.391777 388.91 
L 295.391777 388.91 
L 292.588871 388.91 
z
" style="fill:#1f77b4;"/>
   </g>
   <g id="patch_44">
    <path clip-path="url(#p3c709f50a8)" d="M 296.092503 388.91 
L 298.895409 388.91 
L 298.895409 388.91 
L 296.092503 388.91 
z
" style="fill:#1f77b4;"/>
   </g>
   <g id="patch_45">
    <path clip-path="url(#p3c709f50a8)" d="M 299.596136 388.91 
L 302.399042 388.91 
L 302.399042 388.91 
L 299.596136 388.91 
z
" style="fill:#1f77b4;"/>
   </g>
   <g id="patch_46">
    <path clip-path="url(#p3c709f50a8)" d="M 303.099768 388.91 
L 305.902674 388.91 
L 305.902674 388.91 
L 303.099768 388.91 
z
" style="fill:#1f77b4;"/>
   </g>
   <g id="patch_47">
    <path clip-path="url(#p3c709f50a8)" d="M 306.603401 388.91 
L 309.406307 388.91 
L 309.406307 388.91 
L 306.603401 388.91 
z
" style="fill:#1f77b4;"/>
   </g>
   <g id="patch_48">
    <path clip-path="url(#p3c709f50a8)" d="M 317.114298 388.91 
L 319.917204 388.91 
L 319.917204 388.91 
L 317.114298 388.91 
z
" style="fill:#1f77b4;"/>
   </g>
   <g id="patch_49">
    <path clip-path="url(#p3c709f50a8)" d="M 320.61793 388.91 
L 323.420836 388.91 
L 323.420836 388.91 
L 320.61793 388.91 
z
" style="fill:#1f77b4;"/>
   </g>
   <g id="patch_50">
    <path clip-path="url(#p3c709f50a8)" d="M 324.121563 388.91 
L 326.924469 388.91 
L 326.924469 388.91 
L 324.121563 388.91 
z
" style="fill:#1f77b4;"/>
   </g>
   <g id="patch_51">
    <path clip-path="url(#p3c709f50a8)" d="M 327.625195 388.91 
L 330.428101 388.91 
L 330.428101 388.91 
L 327.625195 388.91 
z
" style="fill:#1f77b4;"/>
   </g>
   <g id="patch_52">
    <path clip-path="url(#p3c709f50a8)" d="M 331.128828 388.91 
L 333.931734 388.91 
L 333.931734 388.91 
L 331.128828 388.91 
z
" style="fill:#1f77b4;"/>
   </g>
   <g id="patch_53">
    <path clip-path="url(#p3c709f50a8)" d="M 341.639725 388.91 
L 344.442631 388.91 
L 344.442631 388.91 
L 341.639725 388.91 
z
" style="fill:#1f77b4;"/>
   </g>
   <g id="patch_54">
    <path clip-path="url(#p3c709f50a8)" d="M 345.143358 388.91 
L 347.946263 388.91 
L 347.946263 388.91 
L 345.143358 388.91 
z
" style="fill:#1f77b4;"/>
   </g>
   <g id="patch_55">
    <path clip-path="url(#p3c709f50a8)" d="M 348.64699 388.91 
L 351.449896 388.91 
L 351.449896 388.91 
L 348.64699 388.91 
z
" style="fill:#1f77b4;"/>
   </g>
   <g id="patch_56">
    <path clip-path="url(#p3c709f50a8)" d="M 352.150622 388.91 
L 354.953528 388.91 
L 354.953528 388.91 
L 352.150622 388.91 
z
" style="fill:#1f77b4;"/>
   </g>
   <g id="patch_57">
    <path clip-path="url(#p3c709f50a8)" d="M 355.654255 388.91 
L 358.457161 388.91 
L 358.457161 388.91 
L 355.654255 388.91 
z
" style="fill:#1f77b4;"/>
   </g>
   <g id="patch_58">
    <path clip-path="url(#p3c709f50a8)" d="M 366.165152 388.91 
L 368.968058 388.91 
L 368.968058 388.91 
L 366.165152 388.91 
z
" style="fill:#1f77b4;"/>
   </g>
   <g id="patch_59">
    <path clip-path="url(#p3c709f50a8)" d="M 369.668785 388.91 
L 372.471691 388.91 
L 372.471691 388.91 
L 369.668785 388.91 
z
" style="fill:#1f77b4;"/>
   </g>
   <g id="patch_60">
    <path clip-path="url(#p3c709f50a8)" d="M 373.172417 388.91 
L 375.975323 388.91 
L 375.975323 388.91 
L 373.172417 388.91 
z
" style="fill:#1f77b4;"/>
   </g>
   <g id="patch_61">
    <path clip-path="url(#p3c709f50a8)" d="M 376.676049 388.91 
L 379.478955 388.91 
L 379.478955 388.91 
L 376.676049 388.91 
z
" style="fill:#1f77b4;"/>
   </g>
   <g id="patch_62">
    <path clip-path="url(#p3c709f50a8)" d="M 380.179682 388.91 
L 382.982588 388.91 
L 382.982588 388.91 
L 380.179682 388.91 
z
" style="fill:#1f77b4;"/>
   </g>
   <g id="patch_63">
    <path clip-path="url(#p3c709f50a8)" d="M 390.690579 388.91 
L 393.493485 388.91 
L 393.493485 388.91 
L 390.690579 388.91 
z
" style="fill:#1f77b4;"/>
   </g>
   <g id="patch_64">
    <path clip-path="url(#p3c709f50a8)" d="M 394.194212 388.91 
L 396.997118 388.91 
L 396.997118 388.91 
L 394.194212 388.91 
z
" style="fill:#1f77b4;"/>
   </g>
   <g id="patch_65">
    <path clip-path="url(#p3c709f50a8)" d="M 397.697844 388.91 
L 400.50075 388.91 
L 400.50075 44.119524 
L 397.697844 44.119524 
z
" style="fill:#1f77b4;"/>
   </g>
   <g id="patch_66">
    <path clip-path="url(#p3c709f50a8)" d="M 401.201477 388.91 
L 404.004382 388.91 
L 404.004382 388.91 
L 401.201477 388.91 
z
" style="fill:#1f77b4;"/>
   </g>
   <g id="patch_67">
    <path clip-path="url(#p3c709f50a8)" d="M 404.705109 388.91 
L 407.508015 388.91 
L 407.508015 388.91 
L 404.705109 388.91 
z
" style="fill:#1f77b4;"/>
   </g>
   <g id="patch_68">
    <path clip-path="url(#p3c709f50a8)" d="M 415.216006 388.91 
L 418.018912 388.91 
L 418.018912 388.91 
L 415.216006 388.91 
z
" style="fill:#1f77b4;"/>
   </g>
   <g id="patch_69">
    <path clip-path="url(#p3c709f50a8)" d="M 418.719639 388.91 
L 421.522545 388.91 
L 421.522545 388.91 
L 418.719639 388.91 
z
" style="fill:#1f77b4;"/>
   </g>
   <g id="patch_70">
    <path clip-path="url(#p3c709f50a8)" d="M 422.223271 388.91 
L 425.026177 388.91 
L 425.026177 388.91 
L 422.223271 388.91 
z
" style="fill:#1f77b4;"/>
   </g>
   <g id="patch_71">
    <path clip-path="url(#p3c709f50a8)" d="M 425.726904 388.91 
L 428.52981 388.91 
L 428.52981 388.91 
L 425.726904 388.91 
z
" style="fill:#1f77b4;"/>
   </g>
   <g id="patch_72">
    <path clip-path="url(#p3c709f50a8)" d="M 429.230536 388.91 
L 432.033442 388.91 
L 432.033442 388.91 
L 429.230536 388.91 
z
" style="fill:#1f77b4;"/>
   </g>
   <g id="patch_73">
    <path clip-path="url(#p3c709f50a8)" d="M 439.741433 388.91 
L 442.544339 388.91 
L 442.544339 388.91 
L 439.741433 388.91 
z
" style="fill:#1f77b4;"/>
   </g>
   <g id="patch_74">
    <path clip-path="url(#p3c709f50a8)" d="M 443.245066 388.91 
L 446.047972 388.91 
L 446.047972 388.91 
L 443.245066 388.91 
z
" style="fill:#1f77b4;"/>
   </g>
   <g id="patch_75">
    <path clip-path="url(#p3c709f50a8)" d="M 446.748698 388.91 
L 449.551604 388.91 
L 449.551604 388.91 
L 446.748698 388.91 
z
" style="fill:#1f77b4;"/>
   </g>
   <g id="patch_76">
    <path clip-path="url(#p3c709f50a8)" d="M 450.252331 388.91 
L 453.055237 388.91 
L 453.055237 388.91 
L 450.252331 388.91 
z
" style="fill:#1f77b4;"/>
   </g>
   <g id="patch_77">
    <path clip-path="url(#p3c709f50a8)" d="M 453.755963 388.91 
L 456.558869 388.91 
L 456.558869 388.91 
L 453.755963 388.91 
z
" style="fill:#1f77b4;"/>
   </g>
   <g id="patch_78">
    <path clip-path="url(#p3c709f50a8)" d="M 464.26686 388.91 
L 467.069766 388.91 
L 467.069766 388.91 
L 464.26686 388.91 
z
" style="fill:#1f77b4;"/>
   </g>
   <g id="patch_79">
    <path clip-path="url(#p3c709f50a8)" d="M 467.770493 388.91 
L 470.573399 388.91 
L 470.573399 388.91 
L 467.770493 388.91 
z
" style="fill:#1f77b4;"/>
   </g>
   <g id="patch_80">
    <path clip-path="url(#p3c709f50a8)" d="M 471.274125 388.91 
L 474.077031 388.91 
L 474.077031 388.91 
L 471.274125 388.91 
z
" style="fill:#1f77b4;"/>
   </g>
   <g id="patch_81">
    <path clip-path="url(#p3c709f50a8)" d="M 474.777758 388.91 
L 477.580664 388.91 
L 477.580664 388.91 
L 474.777758 388.91 
z
" style="fill:#1f77b4;"/>
   </g>
   <g id="patch_82">
    <path clip-path="url(#p3c709f50a8)" d="M 478.28139 388.91 
L 481.084296 388.91 
L 481.084296 388.91 
L 478.28139 388.91 
z
" style="fill:#1f77b4;"/>
   </g>
   <g id="patch_83">
    <path clip-path="url(#p3c709f50a8)" d="M 488.792287 388.91 
L 491.595193 388.91 
L 491.595193 388.91 
L 488.792287 388.91 
z
" style="fill:#1f77b4;"/>
   </g>
   <g id="patch_84">
    <path clip-path="url(#p3c709f50a8)" d="M 492.29592 388.91 
L 495.098826 388.91 
L 495.098826 388.91 
L 492.29592 388.91 
z
" style="fill:#1f77b4;"/>
   </g>
   <g id="patch_85">
    <path clip-path="url(#p3c709f50a8)" d="M 495.799552 388.91 
L 498.602458 388.91 
L 498.602458 388.91 
L 495.799552 388.91 
z
" style="fill:#1f77b4;"/>
   </g>
   <g id="patch_86">
    <path clip-path="url(#p3c709f50a8)" d="M 499.303185 388.91 
L 502.106091 388.91 
L 502.106091 388.91 
L 499.303185 388.91 
z
" style="fill:#1f77b4;"/>
   </g>
   <g id="patch_87">
    <path clip-path="url(#p3c709f50a8)" d="M 502.806817 388.91 
L 505.609723 388.91 
L 505.609723 180.658331 
L 502.806817 180.658331 
z
" style="fill:#1f77b4;"/>
   </g>
   <g id="patch_88">
    <path clip-path="url(#p3c709f50a8)" d="M 513.317715 388.91 
L 516.12062 388.91 
L 516.12062 388.91 
L 513.317715 388.91 
z
" style="fill:#1f77b4;"/>
   </g>
   <g id="patch_89">
    <path clip-path="url(#p3c709f50a8)" d="M 516.821347 388.91 
L 519.624253 388.91 
L 519.624253 388.91 
L 516.821347 388.91 
z
" style="fill:#1f77b4;"/>
   </g>
   <g id="patch_90">
    <path clip-path="url(#p3c709f50a8)" d="M 520.324979 388.91 
L 523.127885 388.91 
L 523.127885 388.91 
L 520.324979 388.91 
z
" style="fill:#1f77b4;"/>
   </g>
   <g id="patch_91">
    <path clip-path="url(#p3c709f50a8)" d="M 523.828612 388.91 
L 526.631518 388.91 
L 526.631518 388.91 
L 523.828612 388.91 
z
" style="fill:#1f77b4;"/>
   </g>
   <g id="patch_92">
    <path clip-path="url(#p3c709f50a8)" d="M 527.332244 388.91 
L 530.13515 388.91 
L 530.13515 388.91 
L 527.332244 388.91 
z
" style="fill:#1f77b4;"/>
   </g>
   <g id="patch_93">
    <path clip-path="url(#p3c709f50a8)" d="M 537.843142 388.91 
L 540.646048 388.91 
L 540.646048 388.91 
L 537.843142 388.91 
z
" style="fill:#1f77b4;"/>
   </g>
   <g id="patch_94">
    <path clip-path="url(#p3c709f50a8)" d="M 541.346774 388.91 
L 544.14968 388.91 
L 544.14968 388.91 
L 541.346774 388.91 
z
" style="fill:#1f77b4;"/>
   </g>
   <g id="patch_95">
    <path clip-path="url(#p3c709f50a8)" d="M 544.850406 388.91 
L 547.653312 388.91 
L 547.653312 388.91 
L 544.850406 388.91 
z
" style="fill:#1f77b4;"/>
   </g>
   <g id="patch_96">
    <path clip-path="url(#p3c709f50a8)" d="M 548.354039 388.91 
L 551.156945 388.91 
L 551.156945 388.91 
L 548.354039 388.91 
z
" style="fill:#1f77b4;"/>
   </g>
   <g id="patch_97">
    <path clip-path="url(#p3c709f50a8)" d="M 551.857671 388.91 
L 554.660577 388.91 
L 554.660577 388.91 
L 551.857671 388.91 
z
" style="fill:#1f77b4;"/>
   </g>
   <g id="patch_98">
    <path clip-path="url(#p3c709f50a8)" d="M 562.368569 388.91 
L 565.171475 388.91 
L 565.171475 388.91 
L 562.368569 388.91 
z
" style="fill:#1f77b4;"/>
   </g>
   <g id="patch_99">
    <path clip-path="url(#p3c709f50a8)" d="M 565.872201 388.91 
L 568.675107 388.91 
L 568.675107 388.91 
L 565.872201 388.91 
z
" style="fill:#1f77b4;"/>
   </g>
   <g id="patch_100">
    <path clip-path="url(#p3c709f50a8)" d="M 569.375833 388.91 
L 572.178739 388.91 
L 572.178739 388.91 
L 569.375833 388.91 
z
" style="fill:#1f77b4;"/>
   </g>
   <g id="patch_101">
    <path clip-path="url(#p3c709f50a8)" d="M 572.879466 388.91 
L 575.682372 388.91 
L 575.682372 388.91 
L 572.879466 388.91 
z
" style="fill:#1f77b4;"/>
   </g>
   <g id="patch_102">
    <path clip-path="url(#p3c709f50a8)" d="M 576.383098 388.91 
L 579.186004 388.91 
L 579.186004 388.91 
L 576.383098 388.91 
z
" style="fill:#1f77b4;"/>
   </g>
   <g id="patch_103">
    <path clip-path="url(#p3c709f50a8)" d="M 586.893996 388.91 
L 589.696902 388.91 
L 589.696902 388.91 
L 586.893996 388.91 
z
" style="fill:#1f77b4;"/>
   </g>
   <g id="patch_104">
    <path clip-path="url(#p3c709f50a8)" d="M 590.397628 388.91 
L 593.200534 388.91 
L 593.200534 388.91 
L 590.397628 388.91 
z
" style="fill:#1f77b4;"/>
   </g>
   <g id="patch_105">
    <path clip-path="url(#p3c709f50a8)" d="M 593.901261 388.91 
L 596.704167 388.91 
L 596.704167 388.91 
L 593.901261 388.91 
z
" style="fill:#1f77b4;"/>
   </g>
   <g id="patch_106">
    <path clip-path="url(#p3c709f50a8)" d="M 597.404893 388.91 
L 600.207799 388.91 
L 600.207799 388.91 
L 597.404893 388.91 
z
" style="fill:#1f77b4;"/>
   </g>
   <g id="patch_107">
    <path clip-path="url(#p3c709f50a8)" d="M 600.908525 388.91 
L 603.711431 388.91 
L 603.711431 388.91 
L 600.908525 388.91 
z
" style="fill:#1f77b4;"/>
   </g>
   <g id="patch_108">
    <path clip-path="url(#p3c709f50a8)" d="M 611.419423 388.91 
L 614.222329 388.91 
L 614.222329 286.137091 
L 611.419423 286.137091 
z
" style="fill:#1f77b4;"/>
   </g>
   <g id="patch_109">
    <path clip-path="url(#p3c709f50a8)" d="M 614.923055 388.91 
L 617.725961 388.91 
L 617.725961 388.91 
L 614.923055 388.91 
z
" style="fill:#1f77b4;"/>
   </g>
   <g id="patch_110">
    <path clip-path="url(#p3c709f50a8)" d="M 618.426688 388.91 
L 621.229594 388.91 
L 621.229594 388.91 
L 618.426688 388.91 
z
" style="fill:#1f77b4;"/>
   </g>
   <g id="patch_111">
    <path clip-path="url(#p3c709f50a8)" d="M 621.93032 388.91 
L 624.733226 388.91 
L 624.733226 388.91 
L 621.93032 388.91 
z
" style="fill:#1f77b4;"/>
   </g>
   <g id="patch_112">
    <path clip-path="url(#p3c709f50a8)" d="M 625.433952 388.91 
L 628.236858 388.91 
L 628.236858 388.91 
L 625.433952 388.91 
z
" style="fill:#1f77b4;"/>
   </g>
   <g id="patch_113">
    <path clip-path="url(#p3c709f50a8)" d="M 635.94485 388.91 
L 638.747756 388.91 
L 638.747756 388.91 
L 635.94485 388.91 
z
" style="fill:#1f77b4;"/>
   </g>
   <g id="patch_114">
    <path clip-path="url(#p3c709f50a8)" d="M 639.448482 388.91 
L 642.251388 388.91 
L 642.251388 388.91 
L 639.448482 388.91 
z
" style="fill:#1f77b4;"/>
   </g>
   <g id="patch_115">
    <path clip-path="url(#p3c709f50a8)" d="M 642.952115 388.91 
L 645.755021 388.91 
L 645.755021 388.91 
L 642.952115 388.91 
z
" style="fill:#1f77b4;"/>
   </g>
   <g id="patch_116">
    <path clip-path="url(#p3c709f50a8)" d="M 646.455747 388.91 
L 649.258653 388.91 
L 649.258653 388.91 
L 646.455747 388.91 
z
" style="fill:#1f77b4;"/>
   </g>
   <g id="patch_117">
    <path clip-path="url(#p3c709f50a8)" d="M 649.95938 388.91 
L 652.762285 388.91 
L 652.762285 388.91 
L 649.95938 388.91 
z
" style="fill:#1f77b4;"/>
   </g>
   <g id="patch_118">
    <path clip-path="url(#p3c709f50a8)" d="M 660.470277 388.91 
L 663.273183 388.91 
L 663.273183 388.91 
L 660.470277 388.91 
z
" style="fill:#1f77b4;"/>
   </g>
   <g id="patch_119">
    <path clip-path="url(#p3c709f50a8)" d="M 663.973909 388.91 
L 666.776815 388.91 
L 666.776815 388.91 
L 663.973909 388.91 
z
" style="fill:#1f77b4;"/>
   </g>
   <g id="patch_120">
    <path clip-path="url(#p3c709f50a8)" d="M 667.477542 388.91 
L 670.280448 388.91 
L 670.280448 388.91 
L 667.477542 388.91 
z
" style="fill:#1f77b4;"/>
   </g>
   <g id="patch_121">
    <path clip-path="url(#p3c709f50a8)" d="M 670.981174 388.91 
L 673.78408 388.91 
L 673.78408 388.91 
L 670.981174 388.91 
z
" style="fill:#1f77b4;"/>
   </g>
   <g id="patch_122">
    <path clip-path="url(#p3c709f50a8)" d="M 674.484807 388.91 
L 677.287713 388.91 
L 677.287713 388.91 
L 674.484807 388.91 
z
" style="fill:#1f77b4;"/>
   </g>
   <g id="patch_123">
    <path clip-path="url(#p3c709f50a8)" d="M 684.995704 388.91 
L 687.79861 388.91 
L 687.79861 388.91 
L 684.995704 388.91 
z
" style="fill:#1f77b4;"/>
   </g>
   <g id="patch_124">
    <path clip-path="url(#p3c709f50a8)" d="M 688.499336 388.91 
L 691.302242 388.91 
L 691.302242 388.91 
L 688.499336 388.91 
z
" style="fill:#1f77b4;"/>
   </g>
   <g id="patch_125">
    <path clip-path="url(#p3c709f50a8)" d="M 692.002969 388.91 
L 694.805875 388.91 
L 694.805875 388.91 
L 692.002969 388.91 
z
" style="fill:#1f77b4;"/>
   </g>
   <g id="patch_126">
    <path clip-path="url(#p3c709f50a8)" d="M 695.506601 388.91 
L 698.309507 388.91 
L 698.309507 388.91 
L 695.506601 388.91 
z
" style="fill:#1f77b4;"/>
   </g>
   <g id="patch_127">
    <path clip-path="url(#p3c709f50a8)" d="M 699.010234 388.91 
L 701.81314 388.91 
L 701.81314 388.91 
L 699.010234 388.91 
z
" style="fill:#1f77b4;"/>
   </g>
   <g id="patch_128">
    <path clip-path="url(#p3c709f50a8)" d="M 709.521131 388.91 
L 712.324037 388.91 
L 712.324037 388.91 
L 709.521131 388.91 
z
" style="fill:#1f77b4;"/>
   </g>
   <g id="patch_129">
    <path clip-path="url(#p3c709f50a8)" d="M 713.024763 388.91 
L 715.827669 388.91 
L 715.827669 388.91 
L 713.024763 388.91 
z
" style="fill:#1f77b4;"/>
   </g>
   <g id="patch_130">
    <path clip-path="url(#p3c709f50a8)" d="M 716.528396 388.91 
L 719.331302 388.91 
L 719.331302 293.649263 
L 716.528396 293.649263 
z
" style="fill:#1f77b4;"/>
   </g>
   <g id="patch_131">
    <path clip-path="url(#p3c709f50a8)" d="M 720.032028 388.91 
L 722.834934 388.91 
L 722.834934 388.91 
L 720.032028 388.91 
z
" style="fill:#1f77b4;"/>
   </g>
   <g id="patch_132">
    <path clip-path="url(#p3c709f50a8)" d="M 723.535661 388.91 
L 726.338567 388.91 
L 726.338567 388.91 
L 723.535661 388.91 
z
" style="fill:#1f77b4;"/>
   </g>
   <g id="patch_133">
    <path clip-path="url(#p3c709f50a8)" d="M 734.046558 388.91 
L 736.849464 388.91 
L 736.849464 388.91 
L 734.046558 388.91 
z
" style="fill:#1f77b4;"/>
   </g>
   <g id="patch_134">
    <path clip-path="url(#p3c709f50a8)" d="M 737.55019 388.91 
L 740.353096 388.91 
L 740.353096 388.91 
L 737.55019 388.91 
z
" style="fill:#1f77b4;"/>
   </g>
   <g id="patch_135">
    <path clip-path="url(#p3c709f50a8)" d="M 741.053823 388.91 
L 743.856729 388.91 
L 743.856729 388.91 
L 741.053823 388.91 
z
" style="fill:#1f77b4;"/>
   </g>
   <g id="patch_136">
    <path clip-path="url(#p3c709f50a8)" d="M 744.557455 388.91 
L 747.360361 388.91 
L 747.360361 388.91 
L 744.557455 388.91 
z
" style="fill:#1f77b4;"/>
   </g>
   <g id="patch_137">
    <path clip-path="url(#p3c709f50a8)" d="M 748.061088 388.91 
L 750.863994 388.91 
L 750.863994 388.91 
L 748.061088 388.91 
z
" style="fill:#1f77b4;"/>
   </g>
   <g id="patch_138">
    <path clip-path="url(#p3c709f50a8)" d="M 758.571985 388.91 
L 761.374891 388.91 
L 761.374891 388.91 
L 758.571985 388.91 
z
" style="fill:#1f77b4;"/>
   </g>
   <g id="patch_139">
    <path clip-path="url(#p3c709f50a8)" d="M 762.075618 388.91 
L 764.878523 388.91 
L 764.878523 388.91 
L 762.075618 388.91 
z
" style="fill:#1f77b4;"/>
   </g>
   <g id="patch_140">
    <path clip-path="url(#p3c709f50a8)" d="M 765.57925 388.91 
L 768.382156 388.91 
L 768.382156 388.91 
L 765.57925 388.91 
z
" style="fill:#1f77b4;"/>
   </g>
   <g id="patch_141">
    <path clip-path="url(#p3c709f50a8)" d="M 769.082882 388.91 
L 771.885788 388.91 
L 771.885788 388.91 
L 769.082882 388.91 
z
" style="fill:#1f77b4;"/>
   </g>
   <g id="patch_142">
    <path clip-path="url(#p3c709f50a8)" d="M 772.586515 388.91 
L 775.389421 388.91 
L 775.389421 388.91 
L 772.586515 388.91 
z
" style="fill:#1f77b4;"/>
   </g>
   <g id="patch_143">
    <path clip-path="url(#p3c709f50a8)" d="M 783.097412 388.91 
L 785.900318 388.91 
L 785.900318 388.91 
L 783.097412 388.91 
z
" style="fill:#1f77b4;"/>
   </g>
   <g id="patch_144">
    <path clip-path="url(#p3c709f50a8)" d="M 786.601045 388.91 
L 789.403951 388.91 
L 789.403951 388.91 
L 786.601045 388.91 
z
" style="fill:#1f77b4;"/>
   </g>
   <g id="patch_145">
    <path clip-path="url(#p3c709f50a8)" d="M 790.104677 388.91 
L 792.907583 388.91 
L 792.907583 388.91 
L 790.104677 388.91 
z
" style="fill:#1f77b4;"/>
   </g>
   <g id="patch_146">
    <path clip-path="url(#p3c709f50a8)" d="M 793.608309 388.91 
L 796.411215 388.91 
L 796.411215 388.91 
L 793.608309 388.91 
z
" style="fill:#1f77b4;"/>
   </g>
   <g id="patch_147">
    <path clip-path="url(#p3c709f50a8)" d="M 797.111942 388.91 
L 799.914848 388.91 
L 799.914848 388.91 
L 797.111942 388.91 
z
" style="fill:#1f77b4;"/>
   </g>
   <g id="patch_148">
    <path clip-path="url(#p3c709f50a8)" d="M 807.622839 388.91 
L 810.425745 388.91 
L 810.425745 388.91 
L 807.622839 388.91 
z
" style="fill:#1f77b4;"/>
   </g>
   <g id="patch_149">
    <path clip-path="url(#p3c709f50a8)" d="M 811.126472 388.91 
L 813.929378 388.91 
L 813.929378 388.91 
L 811.126472 388.91 
z
" style="fill:#1f77b4;"/>
   </g>
   <g id="patch_150">
    <path clip-path="url(#p3c709f50a8)" d="M 814.630104 388.91 
L 817.43301 388.91 
L 817.43301 388.91 
L 814.630104 388.91 
z
" style="fill:#1f77b4;"/>
   </g>
   <g id="patch_151">
    <path clip-path="url(#p3c709f50a8)" d="M 818.133737 388.91 
L 820.936642 388.91 
L 820.936642 388.91 
L 818.133737 388.91 
z
" style="fill:#1f77b4;"/>
   </g>
   <g id="patch_152">
    <path clip-path="url(#p3c709f50a8)" d="M 821.637369 388.91 
L 824.440275 388.91 
L 824.440275 177.392969 
L 821.637369 177.392969 
z
" style="fill:#1f77b4;"/>
   </g>
   <g id="patch_153">
    <path clip-path="url(#p3c709f50a8)" d="M 832.148266 388.91 
L 834.951172 388.91 
L 834.951172 388.91 
L 832.148266 388.91 
z
" style="fill:#1f77b4;"/>
   </g>
   <g id="patch_154">
    <path clip-path="url(#p3c709f50a8)" d="M 835.651899 388.91 
L 838.454805 388.91 
L 838.454805 388.91 
L 835.651899 388.91 
z
" style="fill:#1f77b4;"/>
   </g>
   <g id="patch_155">
    <path clip-path="url(#p3c709f50a8)" d="M 839.155531 388.91 
L 841.958437 388.91 
L 841.958437 388.91 
L 839.155531 388.91 
z
" style="fill:#1f77b4;"/>
   </g>
   <g id="patch_156">
    <path clip-path="url(#p3c709f50a8)" d="M 842.659164 388.91 
L 845.46207 388.91 
L 845.46207 388.91 
L 842.659164 388.91 
z
" style="fill:#1f77b4;"/>
   </g>
   <g id="patch_157">
    <path clip-path="url(#p3c709f50a8)" d="M 846.162796 388.91 
L 848.965702 388.91 
L 848.965702 388.91 
L 846.162796 388.91 
z
" style="fill:#1f77b4;"/>
   </g>
   <g id="patch_158">
    <path clip-path="url(#p3c709f50a8)" d="M 856.673693 388.91 
L 859.476599 388.91 
L 859.476599 388.91 
L 856.673693 388.91 
z
" style="fill:#1f77b4;"/>
   </g>
   <g id="patch_159">
    <path clip-path="url(#p3c709f50a8)" d="M 860.177326 388.91 
L 862.980232 388.91 
L 862.980232 388.91 
L 860.177326 388.91 
z
" style="fill:#1f77b4;"/>
   </g>
   <g id="patch_160">
    <path clip-path="url(#p3c709f50a8)" d="M 863.680958 388.91 
L 866.483864 388.91 
L 866.483864 388.91 
L 863.680958 388.91 
z
" style="fill:#1f77b4;"/>
   </g>
   <g id="patch_161">
    <path clip-path="url(#p3c709f50a8)" d="M 867.184591 388.91 
L 869.987497 388.91 
L 869.987497 388.91 
L 867.184591 388.91 
z
" style="fill:#1f77b4;"/>
   </g>
   <g id="patch_162">
    <path clip-path="url(#p3c709f50a8)" d="M 870.688223 388.91 
L 873.491129 388.91 
L 873.491129 388.91 
L 870.688223 388.91 
z
" style="fill:#1f77b4;"/>
   </g>
   <g id="patch_163">
    <path clip-path="url(#p3c709f50a8)" d="M 881.19912 388.91 
L 884.002026 388.91 
L 884.002026 388.91 
L 881.19912 388.91 
z
" style="fill:#1f77b4;"/>
   </g>
   <g id="patch_164">
    <path clip-path="url(#p3c709f50a8)" d="M 884.702753 388.91 
L 887.505659 388.91 
L 887.505659 388.91 
L 884.702753 388.91 
z
" style="fill:#1f77b4;"/>
   </g>
   <g id="patch_165">
    <path clip-path="url(#p3c709f50a8)" d="M 888.206385 388.91 
L 891.009291 388.91 
L 891.009291 388.91 
L 888.206385 388.91 
z
" style="fill:#1f77b4;"/>
   </g>
   <g id="patch_166">
    <path clip-path="url(#p3c709f50a8)" d="M 891.710018 388.91 
L 894.512924 388.91 
L 894.512924 388.91 
L 891.710018 388.91 
z
" style="fill:#1f77b4;"/>
   </g>
   <g id="patch_167">
    <path clip-path="url(#p3c709f50a8)" d="M 895.21365 388.91 
L 898.016556 388.91 
L 898.016556 388.91 
L 895.21365 388.91 
z
" style="fill:#1f77b4;"/>
   </g>
   <g id="patch_168">
    <path clip-path="url(#p3c709f50a8)" d="M 905.724547 388.91 
L 908.527453 388.91 
L 908.527453 388.91 
L 905.724547 388.91 
z
" style="fill:#1f77b4;"/>
   </g>
   <g id="patch_169">
    <path clip-path="url(#p3c709f50a8)" d="M 909.22818 388.91 
L 912.031086 388.91 
L 912.031086 388.91 
L 909.22818 388.91 
z
" style="fill:#1f77b4;"/>
   </g>
   <g id="patch_170">
    <path clip-path="url(#p3c709f50a8)" d="M 912.731812 388.91 
L 915.534718 388.91 
L 915.534718 388.91 
L 912.731812 388.91 
z
" style="fill:#1f77b4;"/>
   </g>
   <g id="patch_171">
    <path clip-path="url(#p3c709f50a8)" d="M 916.235445 388.91 
L 919.038351 388.91 
L 919.038351 388.91 
L 916.235445 388.91 
z
" style="fill:#1f77b4;"/>
   </g>
   <g id="patch_172">
    <path clip-path="url(#p3c709f50a8)" d="M 919.739077 388.91 
L 922.541983 388.91 
L 922.541983 388.91 
L 919.739077 388.91 
z
" style="fill:#1f77b4;"/>
   </g>
   <g id="patch_173">
    <path clip-path="url(#p3c709f50a8)" d="M 930.249974 388.91 
L 933.05288 388.91 
L 933.05288 388.91 
L 930.249974 388.91 
z
" style="fill:#1f77b4;"/>
   </g>
   <g id="patch_174">
    <path clip-path="url(#p3c709f50a8)" d="M 933.753607 388.91 
L 936.556513 388.91 
L 936.556513 210.218622 
L 933.753607 210.218622 
z
" style="fill:#1f77b4;"/>
   </g>
   <g id="patch_175">
    <path clip-path="url(#p3c709f50a8)" d="M 937.257239 388.91 
L 940.060145 388.91 
L 940.060145 388.91 
L 937.257239 388.91 
z
" style="fill:#1f77b4;"/>
   </g>
   <g id="patch_176">
    <path clip-path="url(#p3c709f50a8)" d="M 940.760872 388.91 
L 943.563778 388.91 
L 943.563778 388.91 
L 940.760872 388.91 
z
" style="fill:#1f77b4;"/>
   </g>
   <g id="patch_177">
    <path clip-path="url(#p3c709f50a8)" d="M 944.264504 388.91 
L 947.06741 388.91 
L 947.06741 388.91 
L 944.264504 388.91 
z
" style="fill:#1f77b4;"/>
   </g>
   <g id="patch_178">
    <path clip-path="url(#p3c709f50a8)" d="M 954.775402 388.91 
L 957.578307 388.91 
L 957.578307 388.91 
L 954.775402 388.91 
z
" style="fill:#1f77b4;"/>
   </g>
   <g id="patch_179">
    <path clip-path="url(#p3c709f50a8)" d="M 958.279034 388.91 
L 961.08194 388.91 
L 961.08194 388.91 
L 958.279034 388.91 
z
" style="fill:#1f77b4;"/>
   </g>
   <g id="patch_180">
    <path clip-path="url(#p3c709f50a8)" d="M 961.782666 388.91 
L 964.585572 388.91 
L 964.585572 388.91 
L 961.782666 388.91 
z
" style="fill:#1f77b4;"/>
   </g>
   <g id="patch_181">
    <path clip-path="url(#p3c709f50a8)" d="M 965.286299 388.91 
L 968.089205 388.91 
L 968.089205 388.91 
L 965.286299 388.91 
z
" style="fill:#1f77b4;"/>
   </g>
   <g id="patch_182">
    <path clip-path="url(#p3c709f50a8)" d="M 968.789931 388.91 
L 971.592837 388.91 
L 971.592837 388.91 
L 968.789931 388.91 
z
" style="fill:#1f77b4;"/>
   </g>
   <g id="patch_183">
    <path clip-path="url(#p3c709f50a8)" d="M 979.300829 388.91 
L 982.103735 388.91 
L 982.103735 388.91 
L 979.300829 388.91 
z
" style="fill:#1f77b4;"/>
   </g>
   <g id="patch_184">
    <path clip-path="url(#p3c709f50a8)" d="M 982.804461 388.91 
L 985.607367 388.91 
L 985.607367 388.91 
L 982.804461 388.91 
z
" style="fill:#1f77b4;"/>
   </g>
   <g id="patch_185">
    <path clip-path="url(#p3c709f50a8)" d="M 986.308093 388.91 
L 989.110999 388.91 
L 989.110999 388.91 
L 986.308093 388.91 
z
" style="fill:#1f77b4;"/>
   </g>
   <g id="patch_186">
    <path clip-path="url(#p3c709f50a8)" d="M 989.811726 388.91 
L 992.614632 388.91 
L 992.614632 388.91 
L 989.811726 388.91 
z
" style="fill:#1f77b4;"/>
   </g>
   <g id="patch_187">
    <path clip-path="url(#p3c709f50a8)" d="M 993.315358 388.91 
L 996.118264 388.91 
L 996.118264 388.91 
L 993.315358 388.91 
z
" style="fill:#1f77b4;"/>
   </g>
   <g id="patch_188">
    <path clip-path="url(#p3c709f50a8)" d="M 1003.826256 388.91 
L 1006.629162 388.91 
L 1006.629162 388.91 
L 1003.826256 388.91 
z
" style="fill:#1f77b4;"/>
   </g>
   <g id="patch_189">
    <path clip-path="url(#p3c709f50a8)" d="M 1007.329888 388.91 
L 1010.132794 388.91 
L 1010.132794 388.91 
L 1007.329888 388.91 
z
" style="fill:#1f77b4;"/>
   </g>
   <g id="patch_190">
    <path clip-path="url(#p3c709f50a8)" d="M 1010.833521 388.91 
L 1013.636426 388.91 
L 1013.636426 388.91 
L 1010.833521 388.91 
z
" style="fill:#1f77b4;"/>
   </g>
   <g id="patch_191">
    <path clip-path="url(#p3c709f50a8)" d="M 1014.337153 388.91 
L 1017.140059 388.91 
L 1017.140059 388.91 
L 1014.337153 388.91 
z
" style="fill:#1f77b4;"/>
   </g>
   <g id="patch_192">
    <path clip-path="url(#p3c709f50a8)" d="M 1017.840785 388.91 
L 1020.643691 388.91 
L 1020.643691 388.91 
L 1017.840785 388.91 
z
" style="fill:#1f77b4;"/>
   </g>
   <g id="patch_193">
    <path clip-path="url(#p3c709f50a8)" d="M 1028.351683 388.91 
L 1031.154589 388.91 
L 1031.154589 388.91 
L 1028.351683 388.91 
z
" style="fill:#1f77b4;"/>
   </g>
   <g id="patch_194">
    <path clip-path="url(#p3c709f50a8)" d="M 1031.855315 388.91 
L 1034.658221 388.91 
L 1034.658221 388.91 
L 1031.855315 388.91 
z
" style="fill:#1f77b4;"/>
   </g>
   <g id="patch_195">
    <path clip-path="url(#p3c709f50a8)" d="M 1035.358948 388.91 
L 1038.161854 388.91 
L 1038.161854 388.91 
L 1035.358948 388.91 
z
" style="fill:#1f77b4;"/>
   </g>
   <g id="patch_196">
    <path clip-path="url(#p3c709f50a8)" d="M 1038.86258 388.91 
L 1041.665486 388.91 
L 1041.665486 288.417488 
L 1038.86258 288.417488 
z
" style="fill:#1f77b4;"/>
   </g>
   <g id="patch_197">
    <path clip-path="url(#p3c709f50a8)" d="M 1042.366212 388.91 
L 1045.169118 388.91 
L 1045.169118 388.91 
L 1042.366212 388.91 
z
" style="fill:#1f77b4;"/>
   </g>
   <g id="patch_198">
    <path clip-path="url(#p3c709f50a8)" d="M 1052.87711 388.91 
L 1055.680016 388.91 
L 1055.680016 388.91 
L 1052.87711 388.91 
z
" style="fill:#1f77b4;"/>
   </g>
   <g id="patch_199">
    <path clip-path="url(#p3c709f50a8)" d="M 1056.380742 388.91 
L 1059.183648 388.91 
L 1059.183648 388.91 
L 1056.380742 388.91 
z
" style="fill:#1f77b4;"/>
   </g>
   <g id="patch_200">
    <path clip-path="url(#p3c709f50a8)" d="M 1059.884375 388.91 
L 1062.687281 388.91 
L 1062.687281 388.91 
L 1059.884375 388.91 
z
" style="fill:#1f77b4;"/>
   </g>
   <g id="patch_201">
    <path clip-path="url(#p3c709f50a8)" d="M 1063.388007 388.91 
L 1066.190913 388.91 
L 1066.190913 388.91 
L 1063.388007 388.91 
z
" style="fill:#1f77b4;"/>
   </g>
   <g id="patch_202">
    <path clip-path="url(#p3c709f50a8)" d="M 1066.89164 388.91 
L 1069.694545 388.91 
L 1069.694545 237.220174 
L 1066.89164 237.220174 
z
" style="fill:#1f77b4;"/>
   </g>
   <g id="matplotlib.axis_1">
    <g id="xtick_1">
     <g id="line2d_1">
      <path clip-path="url(#p3c709f50a8)" d="M 87.27601 388.91 
L 87.27601 26.88 
" style="fill:none;stroke:#b0b0b0;stroke-linecap:square;stroke-width:0.8;"/>
     </g>
     <g id="line2d_2">
      <defs>
       <path d="M 0 0 
L 0 3.5 
" id="me4608d6134" style="stroke:#000000;stroke-width:0.8;"/>
      </defs>
      <g>
       <use style="stroke:#000000;stroke-width:0.8;" x="87.27601" xlink:href="#me4608d6134" y="388.91"/>
      </g>
     </g>
     <g id="text_1">
      <!-- 2010 -->
      <g transform="translate(90.035385 421.36)rotate(-90)scale(0.1 -0.1)">
       <defs>
        <path d="M 19.1875 8.296875 
L 53.609375 8.296875 
L 53.609375 0 
L 7.328125 0 
L 7.328125 8.296875 
Q 12.9375 14.109375 22.625 23.890625 
Q 32.328125 33.6875 34.8125 36.53125 
Q 39.546875 41.84375 41.421875 45.53125 
Q 43.3125 49.21875 43.3125 52.78125 
Q 43.3125 58.59375 39.234375 62.25 
Q 35.15625 65.921875 28.609375 65.921875 
Q 23.96875 65.921875 18.8125 64.3125 
Q 13.671875 62.703125 7.8125 59.421875 
L 7.8125 69.390625 
Q 13.765625 71.78125 18.9375 73 
Q 24.125 74.21875 28.421875 74.21875 
Q 39.75 74.21875 46.484375 68.546875 
Q 53.21875 62.890625 53.21875 53.421875 
Q 53.21875 48.921875 51.53125 44.890625 
Q 49.859375 40.875 45.40625 35.40625 
Q 44.1875 33.984375 37.640625 27.21875 
Q 31.109375 20.453125 19.1875 8.296875 
z
" id="DejaVuSans-50"/>
        <path d="M 31.78125 66.40625 
Q 24.171875 66.40625 20.328125 58.90625 
Q 16.5 51.421875 16.5 36.375 
Q 16.5 21.390625 20.328125 13.890625 
Q 24.171875 6.390625 31.78125 6.390625 
Q 39.453125 6.390625 43.28125 13.890625 
Q 47.125 21.390625 47.125 36.375 
Q 47.125 51.421875 43.28125 58.90625 
Q 39.453125 66.40625 31.78125 66.40625 
z
M 31.78125 74.21875 
Q 44.046875 74.21875 50.515625 64.515625 
Q 56.984375 54.828125 56.984375 36.375 
Q 56.984375 17.96875 50.515625 8.265625 
Q 44.046875 -1.421875 31.78125 -1.421875 
Q 19.53125 -1.421875 13.0625 8.265625 
Q 6.59375 17.96875 6.59375 36.375 
Q 6.59375 54.828125 13.0625 64.515625 
Q 19.53125 74.21875 31.78125 74.21875 
z
" id="DejaVuSans-48"/>
        <path d="M 12.40625 8.296875 
L 28.515625 8.296875 
L 28.515625 63.921875 
L 10.984375 60.40625 
L 10.984375 69.390625 
L 28.421875 72.90625 
L 38.28125 72.90625 
L 38.28125 8.296875 
L 54.390625 8.296875 
L 54.390625 0 
L 12.40625 0 
z
" id="DejaVuSans-49"/>
       </defs>
       <use xlink:href="#DejaVuSans-50"/>
       <use x="63.623047" xlink:href="#DejaVuSans-48"/>
       <use x="127.246094" xlink:href="#DejaVuSans-49"/>
       <use x="190.869141" xlink:href="#DejaVuSans-48"/>
      </g>
     </g>
    </g>
   </g>
   <g id="matplotlib.axis_2">
    <g id="ytick_1">
     <g id="line2d_3">
      <path clip-path="url(#p3c709f50a8)" d="M 47.72 388.91 
L 1118.36 388.91 
" style="fill:none;stroke:#b0b0b0;stroke-linecap:square;stroke-width:0.8;"/>
     </g>
     <g id="line2d_4">
      <defs>
       <path d="M 0 0 
L -3.5 0 
" id="mb9005fbf21" style="stroke:#000000;stroke-width:0.8;"/>
      </defs>
      <g>
       <use style="stroke:#000000;stroke-width:0.8;" x="47.72" xlink:href="#mb9005fbf21" y="388.91"/>
      </g>
     </g>
     <g id="text_2">
      <!-- 0.0 -->
      <g transform="translate(24.816875 392.709219)scale(0.1 -0.1)">
       <defs>
        <path d="M 10.6875 12.40625 
L 21 12.40625 
L 21 0 
L 10.6875 0 
z
" id="DejaVuSans-46"/>
       </defs>
       <use xlink:href="#DejaVuSans-48"/>
       <use x="63.623047" xlink:href="#DejaVuSans-46"/>
       <use x="95.410156" xlink:href="#DejaVuSans-48"/>
      </g>
     </g>
    </g>
    <g id="ytick_2">
     <g id="line2d_5">
      <path clip-path="url(#p3c709f50a8)" d="M 47.72 334.423705 
L 1118.36 334.423705 
" style="fill:none;stroke:#b0b0b0;stroke-linecap:square;stroke-width:0.8;"/>
     </g>
     <g id="line2d_6">
      <g>
       <use style="stroke:#000000;stroke-width:0.8;" x="47.72" xlink:href="#mb9005fbf21" y="334.423705"/>
      </g>
     </g>
     <g id="text_3">
      <!-- 0.1 -->
      <g transform="translate(24.816875 338.222924)scale(0.1 -0.1)">
       <use xlink:href="#DejaVuSans-48"/>
       <use x="63.623047" xlink:href="#DejaVuSans-46"/>
       <use x="95.410156" xlink:href="#DejaVuSans-49"/>
      </g>
     </g>
    </g>
    <g id="ytick_3">
     <g id="line2d_7">
      <path clip-path="url(#p3c709f50a8)" d="M 47.72 279.937411 
L 1118.36 279.937411 
" style="fill:none;stroke:#b0b0b0;stroke-linecap:square;stroke-width:0.8;"/>
     </g>
     <g id="line2d_8">
      <g>
       <use style="stroke:#000000;stroke-width:0.8;" x="47.72" xlink:href="#mb9005fbf21" y="279.937411"/>
      </g>
     </g>
     <g id="text_4">
      <!-- 0.2 -->
      <g transform="translate(24.816875 283.736629)scale(0.1 -0.1)">
       <use xlink:href="#DejaVuSans-48"/>
       <use x="63.623047" xlink:href="#DejaVuSans-46"/>
       <use x="95.410156" xlink:href="#DejaVuSans-50"/>
      </g>
     </g>
    </g>
    <g id="ytick_4">
     <g id="line2d_9">
      <path clip-path="url(#p3c709f50a8)" d="M 47.72 225.451116 
L 1118.36 225.451116 
" style="fill:none;stroke:#b0b0b0;stroke-linecap:square;stroke-width:0.8;"/>
     </g>
     <g id="line2d_10">
      <g>
       <use style="stroke:#000000;stroke-width:0.8;" x="47.72" xlink:href="#mb9005fbf21" y="225.451116"/>
      </g>
     </g>
     <g id="text_5">
      <!-- 0.3 -->
      <g transform="translate(24.816875 229.250335)scale(0.1 -0.1)">
       <defs>
        <path d="M 40.578125 39.3125 
Q 47.65625 37.796875 51.625 33 
Q 55.609375 28.21875 55.609375 21.1875 
Q 55.609375 10.40625 48.1875 4.484375 
Q 40.765625 -1.421875 27.09375 -1.421875 
Q 22.515625 -1.421875 17.65625 -0.515625 
Q 12.796875 0.390625 7.625 2.203125 
L 7.625 11.71875 
Q 11.71875 9.328125 16.59375 8.109375 
Q 21.484375 6.890625 26.8125 6.890625 
Q 36.078125 6.890625 40.9375 10.546875 
Q 45.796875 14.203125 45.796875 21.1875 
Q 45.796875 27.640625 41.28125 31.265625 
Q 36.765625 34.90625 28.71875 34.90625 
L 20.21875 34.90625 
L 20.21875 43.015625 
L 29.109375 43.015625 
Q 36.375 43.015625 40.234375 45.921875 
Q 44.09375 48.828125 44.09375 54.296875 
Q 44.09375 59.90625 40.109375 62.90625 
Q 36.140625 65.921875 28.71875 65.921875 
Q 24.65625 65.921875 20.015625 65.03125 
Q 15.375 64.15625 9.8125 62.3125 
L 9.8125 71.09375 
Q 15.4375 72.65625 20.34375 73.4375 
Q 25.25 74.21875 29.59375 74.21875 
Q 40.828125 74.21875 47.359375 69.109375 
Q 53.90625 64.015625 53.90625 55.328125 
Q 53.90625 49.265625 50.4375 45.09375 
Q 46.96875 40.921875 40.578125 39.3125 
z
" id="DejaVuSans-51"/>
       </defs>
       <use xlink:href="#DejaVuSans-48"/>
       <use x="63.623047" xlink:href="#DejaVuSans-46"/>
       <use x="95.410156" xlink:href="#DejaVuSans-51"/>
      </g>
     </g>
    </g>
    <g id="ytick_5">
     <g id="line2d_11">
      <path clip-path="url(#p3c709f50a8)" d="M 47.72 170.964821 
L 1118.36 170.964821 
" style="fill:none;stroke:#b0b0b0;stroke-linecap:square;stroke-width:0.8;"/>
     </g>
     <g id="line2d_12">
      <g>
       <use style="stroke:#000000;stroke-width:0.8;" x="47.72" xlink:href="#mb9005fbf21" y="170.964821"/>
      </g>
     </g>
     <g id="text_6">
      <!-- 0.4 -->
      <g transform="translate(24.816875 174.76404)scale(0.1 -0.1)">
       <defs>
        <path d="M 37.796875 64.3125 
L 12.890625 25.390625 
L 37.796875 25.390625 
z
M 35.203125 72.90625 
L 47.609375 72.90625 
L 47.609375 25.390625 
L 58.015625 25.390625 
L 58.015625 17.1875 
L 47.609375 17.1875 
L 47.609375 0 
L 37.796875 0 
L 37.796875 17.1875 
L 4.890625 17.1875 
L 4.890625 26.703125 
z
" id="DejaVuSans-52"/>
       </defs>
       <use xlink:href="#DejaVuSans-48"/>
       <use x="63.623047" xlink:href="#DejaVuSans-46"/>
       <use x="95.410156" xlink:href="#DejaVuSans-52"/>
      </g>
     </g>
    </g>
    <g id="ytick_6">
     <g id="line2d_13">
      <path clip-path="url(#p3c709f50a8)" d="M 47.72 116.478527 
L 1118.36 116.478527 
" style="fill:none;stroke:#b0b0b0;stroke-linecap:square;stroke-width:0.8;"/>
     </g>
     <g id="line2d_14">
      <g>
       <use style="stroke:#000000;stroke-width:0.8;" x="47.72" xlink:href="#mb9005fbf21" y="116.478527"/>
      </g>
     </g>
     <g id="text_7">
      <!-- 0.5 -->
      <g transform="translate(24.816875 120.277745)scale(0.1 -0.1)">
       <defs>
        <path d="M 10.796875 72.90625 
L 49.515625 72.90625 
L 49.515625 64.59375 
L 19.828125 64.59375 
L 19.828125 46.734375 
Q 21.96875 47.46875 24.109375 47.828125 
Q 26.265625 48.1875 28.421875 48.1875 
Q 40.625 48.1875 47.75 41.5 
Q 54.890625 34.8125 54.890625 23.390625 
Q 54.890625 11.625 47.5625 5.09375 
Q 40.234375 -1.421875 26.90625 -1.421875 
Q 22.3125 -1.421875 17.546875 -0.640625 
Q 12.796875 0.140625 7.71875 1.703125 
L 7.71875 11.625 
Q 12.109375 9.234375 16.796875 8.0625 
Q 21.484375 6.890625 26.703125 6.890625 
Q 35.15625 6.890625 40.078125 11.328125 
Q 45.015625 15.765625 45.015625 23.390625 
Q 45.015625 31 40.078125 35.4375 
Q 35.15625 39.890625 26.703125 39.890625 
Q 22.75 39.890625 18.8125 39.015625 
Q 14.890625 38.140625 10.796875 36.28125 
z
" id="DejaVuSans-53"/>
       </defs>
       <use xlink:href="#DejaVuSans-48"/>
       <use x="63.623047" xlink:href="#DejaVuSans-46"/>
       <use x="95.410156" xlink:href="#DejaVuSans-53"/>
      </g>
     </g>
    </g>
    <g id="ytick_7">
     <g id="line2d_15">
      <path clip-path="url(#p3c709f50a8)" d="M 47.72 61.992232 
L 1118.36 61.992232 
" style="fill:none;stroke:#b0b0b0;stroke-linecap:square;stroke-width:0.8;"/>
     </g>
     <g id="line2d_16">
      <g>
       <use style="stroke:#000000;stroke-width:0.8;" x="47.72" xlink:href="#mb9005fbf21" y="61.992232"/>
      </g>
     </g>
     <g id="text_8">
      <!-- 0.6 -->
      <g transform="translate(24.816875 65.791451)scale(0.1 -0.1)">
       <defs>
        <path d="M 33.015625 40.375 
Q 26.375 40.375 22.484375 35.828125 
Q 18.609375 31.296875 18.609375 23.390625 
Q 18.609375 15.53125 22.484375 10.953125 
Q 26.375 6.390625 33.015625 6.390625 
Q 39.65625 6.390625 43.53125 10.953125 
Q 47.40625 15.53125 47.40625 23.390625 
Q 47.40625 31.296875 43.53125 35.828125 
Q 39.65625 40.375 33.015625 40.375 
z
M 52.59375 71.296875 
L 52.59375 62.3125 
Q 48.875 64.0625 45.09375 64.984375 
Q 41.3125 65.921875 37.59375 65.921875 
Q 27.828125 65.921875 22.671875 59.328125 
Q 17.53125 52.734375 16.796875 39.40625 
Q 19.671875 43.65625 24.015625 45.921875 
Q 28.375 48.1875 33.59375 48.1875 
Q 44.578125 48.1875 50.953125 41.515625 
Q 57.328125 34.859375 57.328125 23.390625 
Q 57.328125 12.15625 50.6875 5.359375 
Q 44.046875 -1.421875 33.015625 -1.421875 
Q 20.359375 -1.421875 13.671875 8.265625 
Q 6.984375 17.96875 6.984375 36.375 
Q 6.984375 53.65625 15.1875 63.9375 
Q 23.390625 74.21875 37.203125 74.21875 
Q 40.921875 74.21875 44.703125 73.484375 
Q 48.484375 72.75 52.59375 71.296875 
z
" id="DejaVuSans-54"/>
       </defs>
       <use xlink:href="#DejaVuSans-48"/>
       <use x="63.623047" xlink:href="#DejaVuSans-46"/>
       <use x="95.410156" xlink:href="#DejaVuSans-54"/>
      </g>
     </g>
    </g>
    <g id="text_9">
     <!-- turnover -->
     <g transform="translate(18.737187 229.311406)rotate(-90)scale(0.1 -0.1)">
      <defs>
       <path d="M 18.3125 70.21875 
L 18.3125 54.6875 
L 36.8125 54.6875 
L 36.8125 47.703125 
L 18.3125 47.703125 
L 18.3125 18.015625 
Q 18.3125 11.328125 20.140625 9.421875 
Q 21.96875 7.515625 27.59375 7.515625 
L 36.8125 7.515625 
L 36.8125 0 
L 27.59375 0 
Q 17.1875 0 13.234375 3.875 
Q 9.28125 7.765625 9.28125 18.015625 
L 9.28125 47.703125 
L 2.6875 47.703125 
L 2.6875 54.6875 
L 9.28125 54.6875 
L 9.28125 70.21875 
z
" id="DejaVuSans-116"/>
       <path d="M 8.5 21.578125 
L 8.5 54.6875 
L 17.484375 54.6875 
L 17.484375 21.921875 
Q 17.484375 14.15625 20.5 10.265625 
Q 23.53125 6.390625 29.59375 6.390625 
Q 36.859375 6.390625 41.078125 11.03125 
Q 45.3125 15.671875 45.3125 23.6875 
L 45.3125 54.6875 
L 54.296875 54.6875 
L 54.296875 0 
L 45.3125 0 
L 45.3125 8.40625 
Q 42.046875 3.421875 37.71875 1 
Q 33.40625 -1.421875 27.6875 -1.421875 
Q 18.265625 -1.421875 13.375 4.4375 
Q 8.5 10.296875 8.5 21.578125 
z
M 31.109375 56 
z
" id="DejaVuSans-117"/>
       <path d="M 41.109375 46.296875 
Q 39.59375 47.171875 37.8125 47.578125 
Q 36.03125 48 33.890625 48 
Q 26.265625 48 22.1875 43.046875 
Q 18.109375 38.09375 18.109375 28.8125 
L 18.109375 0 
L 9.078125 0 
L 9.078125 54.6875 
L 18.109375 54.6875 
L 18.109375 46.1875 
Q 20.953125 51.171875 25.484375 53.578125 
Q 30.03125 56 36.53125 56 
Q 37.453125 56 38.578125 55.875 
Q 39.703125 55.765625 41.0625 55.515625 
z
" id="DejaVuSans-114"/>
       <path d="M 54.890625 33.015625 
L 54.890625 0 
L 45.90625 0 
L 45.90625 32.71875 
Q 45.90625 40.484375 42.875 44.328125 
Q 39.84375 48.1875 33.796875 48.1875 
Q 26.515625 48.1875 22.3125 43.546875 
Q 18.109375 38.921875 18.109375 30.90625 
L 18.109375 0 
L 9.078125 0 
L 9.078125 54.6875 
L 18.109375 54.6875 
L 18.109375 46.1875 
Q 21.34375 51.125 25.703125 53.5625 
Q 30.078125 56 35.796875 56 
Q 45.21875 56 50.046875 50.171875 
Q 54.890625 44.34375 54.890625 33.015625 
z
" id="DejaVuSans-110"/>
       <path d="M 30.609375 48.390625 
Q 23.390625 48.390625 19.1875 42.75 
Q 14.984375 37.109375 14.984375 27.296875 
Q 14.984375 17.484375 19.15625 11.84375 
Q 23.34375 6.203125 30.609375 6.203125 
Q 37.796875 6.203125 41.984375 11.859375 
Q 46.1875 17.53125 46.1875 27.296875 
Q 46.1875 37.015625 41.984375 42.703125 
Q 37.796875 48.390625 30.609375 48.390625 
z
M 30.609375 56 
Q 42.328125 56 49.015625 48.375 
Q 55.71875 40.765625 55.71875 27.296875 
Q 55.71875 13.875 49.015625 6.21875 
Q 42.328125 -1.421875 30.609375 -1.421875 
Q 18.84375 -1.421875 12.171875 6.21875 
Q 5.515625 13.875 5.515625 27.296875 
Q 5.515625 40.765625 12.171875 48.375 
Q 18.84375 56 30.609375 56 
z
" id="DejaVuSans-111"/>
       <path d="M 2.984375 54.6875 
L 12.5 54.6875 
L 29.59375 8.796875 
L 46.6875 54.6875 
L 56.203125 54.6875 
L 35.6875 0 
L 23.484375 0 
z
" id="DejaVuSans-118"/>
       <path d="M 56.203125 29.59375 
L 56.203125 25.203125 
L 14.890625 25.203125 
Q 15.484375 15.921875 20.484375 11.0625 
Q 25.484375 6.203125 34.421875 6.203125 
Q 39.59375 6.203125 44.453125 7.46875 
Q 49.3125 8.734375 54.109375 11.28125 
L 54.109375 2.78125 
Q 49.265625 0.734375 44.1875 -0.34375 
Q 39.109375 -1.421875 33.890625 -1.421875 
Q 20.796875 -1.421875 13.15625 6.1875 
Q 5.515625 13.8125 5.515625 26.8125 
Q 5.515625 40.234375 12.765625 48.109375 
Q 20.015625 56 32.328125 56 
Q 43.359375 56 49.78125 48.890625 
Q 56.203125 41.796875 56.203125 29.59375 
z
M 47.21875 32.234375 
Q 47.125 39.59375 43.09375 43.984375 
Q 39.0625 48.390625 32.421875 48.390625 
Q 24.90625 48.390625 20.390625 44.140625 
Q 15.875 39.890625 15.1875 32.171875 
z
" id="DejaVuSans-101"/>
      </defs>
      <use xlink:href="#DejaVuSans-116"/>
      <use x="39.208984" xlink:href="#DejaVuSans-117"/>
      <use x="102.587891" xlink:href="#DejaVuSans-114"/>
      <use x="141.951172" xlink:href="#DejaVuSans-110"/>
      <use x="205.330078" xlink:href="#DejaVuSans-111"/>
      <use x="266.511719" xlink:href="#DejaVuSans-118"/>
      <use x="325.691406" xlink:href="#DejaVuSans-101"/>
      <use x="387.214844" xlink:href="#DejaVuSans-114"/>
     </g>
    </g>
   </g>
   <g id="line2d_17">
    <path clip-path="url(#p3c709f50a8)" d="M 185.377718 388.91 
L 279.975794 388.91 
L 283.479427 383.50655 
L 378.077502 383.50655 
L 381.581135 388.91 
L 395.595665 388.91 
L 399.099297 371.670476 
L 493.697373 371.670476 
L 497.201005 388.91 
L 500.704638 388.91 
L 504.20827 378.497417 
L 598.806346 378.497417 
L 602.309978 388.91 
L 612.820876 383.771355 
L 700.411687 383.771355 
L 710.922584 388.91 
L 714.426216 388.91 
L 717.929849 384.146963 
L 812.527925 384.146963 
L 816.031557 388.91 
L 819.535189 388.91 
L 823.038822 378.334148 
L 917.636898 378.334148 
L 921.14053 388.91 
L 931.651427 388.91 
L 935.15506 379.975431 
L 1029.753136 379.975431 
L 1033.256768 388.91 
L 1036.760401 388.91 
L 1040.264033 383.885374 
L 1064.78946 383.885374 
L 1068.293092 376.300883 
L 1068.293092 376.300883 
" style="fill:none;stroke:#ff0000;stroke-linecap:square;stroke-width:1.5;"/>
   </g>
   <g id="patch_203">
    <path d="M 47.72 388.91 
L 47.72 26.88 
" style="fill:none;stroke:#000000;stroke-linecap:square;stroke-linejoin:miter;stroke-width:0.8;"/>
   </g>
   <g id="patch_204">
    <path d="M 1118.36 388.91 
L 1118.36 26.88 
" style="fill:none;stroke:#000000;stroke-linecap:square;stroke-linejoin:miter;stroke-width:0.8;"/>
   </g>
   <g id="patch_205">
    <path d="M 47.72 388.91 
L 1118.36 388.91 
" style="fill:none;stroke:#000000;stroke-linecap:square;stroke-linejoin:miter;stroke-width:0.8;"/>
   </g>
   <g id="patch_206">
    <path d="M 47.72 26.88 
L 1118.36 26.88 
" style="fill:none;stroke:#000000;stroke-linecap:square;stroke-linejoin:miter;stroke-width:0.8;"/>
   </g>
   <g id="legend_1">
    <g id="patch_207">
     <path d="M 54.72 64.23625 
L 140.095 64.23625 
Q 142.095 64.23625 142.095 62.23625 
L 142.095 33.88 
Q 142.095 31.88 140.095 31.88 
L 54.72 31.88 
Q 52.72 31.88 52.72 33.88 
L 52.72 62.23625 
Q 52.72 64.23625 54.72 64.23625 
z
" style="fill:#ffffff;opacity:0.8;stroke:#cccccc;stroke-linejoin:miter;"/>
    </g>
    <g id="patch_208">
     <path d="M 56.72 43.478437 
L 76.72 43.478437 
L 76.72 36.478437 
L 56.72 36.478437 
z
" style="fill:#1f77b4;"/>
    </g>
    <g id="text_10">
     <!-- turnover -->
     <g transform="translate(84.72 43.478437)scale(0.1 -0.1)">
      <use xlink:href="#DejaVuSans-116"/>
      <use x="39.208984" xlink:href="#DejaVuSans-117"/>
      <use x="102.587891" xlink:href="#DejaVuSans-114"/>
      <use x="141.951172" xlink:href="#DejaVuSans-110"/>
      <use x="205.330078" xlink:href="#DejaVuSans-111"/>
      <use x="266.511719" xlink:href="#DejaVuSans-118"/>
      <use x="325.691406" xlink:href="#DejaVuSans-101"/>
      <use x="387.214844" xlink:href="#DejaVuSans-114"/>
     </g>
    </g>
    <g id="line2d_18">
     <path d="M 56.72 54.656563 
L 76.72 54.656563 
" style="fill:none;stroke:#ff0000;stroke-linecap:square;stroke-width:1.5;"/>
    </g>
    <g id="line2d_19"/>
    <g id="text_11">
     <!-- 20-day MA -->
     <g transform="translate(84.72 58.156563)scale(0.1 -0.1)">
      <defs>
       <path d="M 4.890625 31.390625 
L 31.203125 31.390625 
L 31.203125 23.390625 
L 4.890625 23.390625 
z
" id="DejaVuSans-45"/>
       <path d="M 45.40625 46.390625 
L 45.40625 75.984375 
L 54.390625 75.984375 
L 54.390625 0 
L 45.40625 0 
L 45.40625 8.203125 
Q 42.578125 3.328125 38.25 0.953125 
Q 33.9375 -1.421875 27.875 -1.421875 
Q 17.96875 -1.421875 11.734375 6.484375 
Q 5.515625 14.40625 5.515625 27.296875 
Q 5.515625 40.1875 11.734375 48.09375 
Q 17.96875 56 27.875 56 
Q 33.9375 56 38.25 53.625 
Q 42.578125 51.265625 45.40625 46.390625 
z
M 14.796875 27.296875 
Q 14.796875 17.390625 18.875 11.75 
Q 22.953125 6.109375 30.078125 6.109375 
Q 37.203125 6.109375 41.296875 11.75 
Q 45.40625 17.390625 45.40625 27.296875 
Q 45.40625 37.203125 41.296875 42.84375 
Q 37.203125 48.484375 30.078125 48.484375 
Q 22.953125 48.484375 18.875 42.84375 
Q 14.796875 37.203125 14.796875 27.296875 
z
" id="DejaVuSans-100"/>
       <path d="M 34.28125 27.484375 
Q 23.390625 27.484375 19.1875 25 
Q 14.984375 22.515625 14.984375 16.5 
Q 14.984375 11.71875 18.140625 8.90625 
Q 21.296875 6.109375 26.703125 6.109375 
Q 34.1875 6.109375 38.703125 11.40625 
Q 43.21875 16.703125 43.21875 25.484375 
L 43.21875 27.484375 
z
M 52.203125 31.203125 
L 52.203125 0 
L 43.21875 0 
L 43.21875 8.296875 
Q 40.140625 3.328125 35.546875 0.953125 
Q 30.953125 -1.421875 24.3125 -1.421875 
Q 15.921875 -1.421875 10.953125 3.296875 
Q 6 8.015625 6 15.921875 
Q 6 25.140625 12.171875 29.828125 
Q 18.359375 34.515625 30.609375 34.515625 
L 43.21875 34.515625 
L 43.21875 35.40625 
Q 43.21875 41.609375 39.140625 45 
Q 35.0625 48.390625 27.6875 48.390625 
Q 23 48.390625 18.546875 47.265625 
Q 14.109375 46.140625 10.015625 43.890625 
L 10.015625 52.203125 
Q 14.9375 54.109375 19.578125 55.046875 
Q 24.21875 56 28.609375 56 
Q 40.484375 56 46.34375 49.84375 
Q 52.203125 43.703125 52.203125 31.203125 
z
" id="DejaVuSans-97"/>
       <path d="M 32.171875 -5.078125 
Q 28.375 -14.84375 24.75 -17.8125 
Q 21.140625 -20.796875 15.09375 -20.796875 
L 7.90625 -20.796875 
L 7.90625 -13.28125 
L 13.1875 -13.28125 
Q 16.890625 -13.28125 18.9375 -11.515625 
Q 21 -9.765625 23.484375 -3.21875 
L 25.09375 0.875 
L 2.984375 54.6875 
L 12.5 54.6875 
L 29.59375 11.921875 
L 46.6875 54.6875 
L 56.203125 54.6875 
z
" id="DejaVuSans-121"/>
       <path id="DejaVuSans-32"/>
       <path d="M 9.8125 72.90625 
L 24.515625 72.90625 
L 43.109375 23.296875 
L 61.8125 72.90625 
L 76.515625 72.90625 
L 76.515625 0 
L 66.890625 0 
L 66.890625 64.015625 
L 48.09375 14.015625 
L 38.1875 14.015625 
L 19.390625 64.015625 
L 19.390625 0 
L 9.8125 0 
z
" id="DejaVuSans-77"/>
       <path d="M 34.1875 63.1875 
L 20.796875 26.90625 
L 47.609375 26.90625 
z
M 28.609375 72.90625 
L 39.796875 72.90625 
L 67.578125 0 
L 57.328125 0 
L 50.6875 18.703125 
L 17.828125 18.703125 
L 11.1875 0 
L 0.78125 0 
z
" id="DejaVuSans-65"/>
      </defs>
      <use xlink:href="#DejaVuSans-50"/>
      <use x="63.623047" xlink:href="#DejaVuSans-48"/>
      <use x="127.246094" xlink:href="#DejaVuSans-45"/>
      <use x="163.330078" xlink:href="#DejaVuSans-100"/>
      <use x="226.806641" xlink:href="#DejaVuSans-97"/>
      <use x="288.085938" xlink:href="#DejaVuSans-121"/>
      <use x="347.265625" xlink:href="#DejaVuSans-32"/>
      <use x="379.052734" xlink:href="#DejaVuSans-77"/>
      <use x="465.332031" xlink:href="#DejaVuSans-65"/>
     </g>
    </g>
   </g>
  </g>
  <g id="axes_2">
   <g id="matplotlib.axis_3">
    <g id="ytick_8">
     <g id="line2d_20">
      <defs>
       <path d="M 0 0 
L 3.5 0 
" id="mdf8fbfcec3" style="stroke:#000000;stroke-width:0.8;"/>
      </defs>
      <g>
       <use style="stroke:#000000;stroke-width:0.8;" x="1118.36" xlink:href="#mdf8fbfcec3" y="388.91"/>
      </g>
     </g>
     <g id="text_12">
      <!-- 0.0 -->
      <g transform="translate(1125.36 392.709219)scale(0.1 -0.1)">
       <use xlink:href="#DejaVuSans-48"/>
       <use x="63.623047" xlink:href="#DejaVuSans-46"/>
       <use x="95.410156" xlink:href="#DejaVuSans-48"/>
      </g>
     </g>
    </g>
    <g id="ytick_9">
     <g id="line2d_21">
      <g>
       <use style="stroke:#000000;stroke-width:0.8;" x="1118.36" xlink:href="#mdf8fbfcec3" y="316.504"/>
      </g>
     </g>
     <g id="text_13">
      <!-- 0.2 -->
      <g transform="translate(1125.36 320.303219)scale(0.1 -0.1)">
       <use xlink:href="#DejaVuSans-48"/>
       <use x="63.623047" xlink:href="#DejaVuSans-46"/>
       <use x="95.410156" xlink:href="#DejaVuSans-50"/>
      </g>
     </g>
    </g>
    <g id="ytick_10">
     <g id="line2d_22">
      <g>
       <use style="stroke:#000000;stroke-width:0.8;" x="1118.36" xlink:href="#mdf8fbfcec3" y="244.098"/>
      </g>
     </g>
     <g id="text_14">
      <!-- 0.4 -->
      <g transform="translate(1125.36 247.897219)scale(0.1 -0.1)">
       <use xlink:href="#DejaVuSans-48"/>
       <use x="63.623047" xlink:href="#DejaVuSans-46"/>
       <use x="95.410156" xlink:href="#DejaVuSans-52"/>
      </g>
     </g>
    </g>
    <g id="ytick_11">
     <g id="line2d_23">
      <g>
       <use style="stroke:#000000;stroke-width:0.8;" x="1118.36" xlink:href="#mdf8fbfcec3" y="171.692"/>
      </g>
     </g>
     <g id="text_15">
      <!-- 0.6 -->
      <g transform="translate(1125.36 175.491219)scale(0.1 -0.1)">
       <use xlink:href="#DejaVuSans-48"/>
       <use x="63.623047" xlink:href="#DejaVuSans-46"/>
       <use x="95.410156" xlink:href="#DejaVuSans-54"/>
      </g>
     </g>
    </g>
    <g id="ytick_12">
     <g id="line2d_24">
      <g>
       <use style="stroke:#000000;stroke-width:0.8;" x="1118.36" xlink:href="#mdf8fbfcec3" y="99.286"/>
      </g>
     </g>
     <g id="text_16">
      <!-- 0.8 -->
      <g transform="translate(1125.36 103.085219)scale(0.1 -0.1)">
       <defs>
        <path d="M 31.78125 34.625 
Q 24.75 34.625 20.71875 30.859375 
Q 16.703125 27.09375 16.703125 20.515625 
Q 16.703125 13.921875 20.71875 10.15625 
Q 24.75 6.390625 31.78125 6.390625 
Q 38.8125 6.390625 42.859375 10.171875 
Q 46.921875 13.96875 46.921875 20.515625 
Q 46.921875 27.09375 42.890625 30.859375 
Q 38.875 34.625 31.78125 34.625 
z
M 21.921875 38.8125 
Q 15.578125 40.375 12.03125 44.71875 
Q 8.5 49.078125 8.5 55.328125 
Q 8.5 64.0625 14.71875 69.140625 
Q 20.953125 74.21875 31.78125 74.21875 
Q 42.671875 74.21875 48.875 69.140625 
Q 55.078125 64.0625 55.078125 55.328125 
Q 55.078125 49.078125 51.53125 44.71875 
Q 48 40.375 41.703125 38.8125 
Q 48.828125 37.15625 52.796875 32.3125 
Q 56.78125 27.484375 56.78125 20.515625 
Q 56.78125 9.90625 50.3125 4.234375 
Q 43.84375 -1.421875 31.78125 -1.421875 
Q 19.734375 -1.421875 13.25 4.234375 
Q 6.78125 9.90625 6.78125 20.515625 
Q 6.78125 27.484375 10.78125 32.3125 
Q 14.796875 37.15625 21.921875 38.8125 
z
M 18.3125 54.390625 
Q 18.3125 48.734375 21.84375 45.5625 
Q 25.390625 42.390625 31.78125 42.390625 
Q 38.140625 42.390625 41.71875 45.5625 
Q 45.3125 48.734375 45.3125 54.390625 
Q 45.3125 60.0625 41.71875 63.234375 
Q 38.140625 66.40625 31.78125 66.40625 
Q 25.390625 66.40625 21.84375 63.234375 
Q 18.3125 60.0625 18.3125 54.390625 
z
" id="DejaVuSans-56"/>
       </defs>
       <use xlink:href="#DejaVuSans-48"/>
       <use x="63.623047" xlink:href="#DejaVuSans-46"/>
       <use x="95.410156" xlink:href="#DejaVuSans-56"/>
      </g>
     </g>
    </g>
    <g id="ytick_13">
     <g id="line2d_25">
      <g>
       <use style="stroke:#000000;stroke-width:0.8;" x="1118.36" xlink:href="#mdf8fbfcec3" y="26.88"/>
      </g>
     </g>
     <g id="text_17">
      <!-- 1.0 -->
      <g transform="translate(1125.36 30.679219)scale(0.1 -0.1)">
       <use xlink:href="#DejaVuSans-49"/>
       <use x="63.623047" xlink:href="#DejaVuSans-46"/>
       <use x="95.410156" xlink:href="#DejaVuSans-48"/>
      </g>
     </g>
    </g>
   </g>
   <g id="patch_209">
    <path d="M 47.72 388.91 
L 47.72 26.88 
" style="fill:none;stroke:#000000;stroke-linecap:square;stroke-linejoin:miter;stroke-width:0.8;"/>
   </g>
   <g id="patch_210">
    <path d="M 1118.36 388.91 
L 1118.36 26.88 
" style="fill:none;stroke:#000000;stroke-linecap:square;stroke-linejoin:miter;stroke-width:0.8;"/>
   </g>
   <g id="patch_211">
    <path d="M 47.72 388.91 
L 1118.36 388.91 
" style="fill:none;stroke:#000000;stroke-linecap:square;stroke-linejoin:miter;stroke-width:0.8;"/>
   </g>
   <g id="patch_212">
    <path d="M 47.72 26.88 
L 1118.36 26.88 
" style="fill:none;stroke:#000000;stroke-linecap:square;stroke-linejoin:miter;stroke-width:0.8;"/>
   </g>
   <g id="text_18">
    <!-- Turnover: (2010-01-04 ~ 2010-10-08) -->
    <g transform="translate(469.85 20.88)scale(0.12 -0.12)">
     <defs>
      <path d="M -0.296875 72.90625 
L 61.375 72.90625 
L 61.375 64.59375 
L 35.5 64.59375 
L 35.5 0 
L 25.59375 0 
L 25.59375 64.59375 
L -0.296875 64.59375 
z
" id="DejaVuSans-84"/>
      <path d="M 11.71875 12.40625 
L 22.015625 12.40625 
L 22.015625 0 
L 11.71875 0 
z
M 11.71875 51.703125 
L 22.015625 51.703125 
L 22.015625 39.3125 
L 11.71875 39.3125 
z
" id="DejaVuSans-58"/>
      <path d="M 31 75.875 
Q 24.46875 64.65625 21.28125 53.65625 
Q 18.109375 42.671875 18.109375 31.390625 
Q 18.109375 20.125 21.3125 9.0625 
Q 24.515625 -2 31 -13.1875 
L 23.1875 -13.1875 
Q 15.875 -1.703125 12.234375 9.375 
Q 8.59375 20.453125 8.59375 31.390625 
Q 8.59375 42.28125 12.203125 53.3125 
Q 15.828125 64.359375 23.1875 75.875 
z
" id="DejaVuSans-40"/>
      <path d="M 73.1875 39.890625 
L 73.1875 31.203125 
Q 68.0625 27.34375 63.6875 25.6875 
Q 59.328125 24.03125 54.59375 24.03125 
Q 49.21875 24.03125 42.09375 26.90625 
Q 41.546875 27.09375 41.3125 27.203125 
Q 40.96875 27.34375 40.234375 27.59375 
Q 32.671875 30.609375 28.078125 30.609375 
Q 23.78125 30.609375 19.578125 28.734375 
Q 15.375 26.859375 10.59375 22.796875 
L 10.59375 31.5 
Q 15.71875 35.359375 20.09375 37.03125 
Q 24.46875 38.71875 29.203125 38.71875 
Q 34.578125 38.71875 41.75 35.796875 
Q 42.234375 35.59375 42.484375 35.5 
Q 42.875 35.359375 43.5625 35.109375 
Q 51.125 32.078125 55.71875 32.078125 
Q 59.90625 32.078125 64.03125 33.9375 
Q 68.171875 35.796875 73.1875 39.890625 
z
" id="DejaVuSans-126"/>
      <path d="M 8.015625 75.875 
L 15.828125 75.875 
Q 23.140625 64.359375 26.78125 53.3125 
Q 30.421875 42.28125 30.421875 31.390625 
Q 30.421875 20.453125 26.78125 9.375 
Q 23.140625 -1.703125 15.828125 -13.1875 
L 8.015625 -13.1875 
Q 14.5 -2 17.703125 9.0625 
Q 20.90625 20.125 20.90625 31.390625 
Q 20.90625 42.671875 17.703125 53.65625 
Q 14.5 64.65625 8.015625 75.875 
z
" id="DejaVuSans-41"/>
     </defs>
     <use xlink:href="#DejaVuSans-84"/>
     <use x="45.958984" xlink:href="#DejaVuSans-117"/>
     <use x="109.337891" xlink:href="#DejaVuSans-114"/>
     <use x="148.701172" xlink:href="#DejaVuSans-110"/>
     <use x="212.080078" xlink:href="#DejaVuSans-111"/>
     <use x="273.261719" xlink:href="#DejaVuSans-118"/>
     <use x="332.441406" xlink:href="#DejaVuSans-101"/>
     <use x="393.964844" xlink:href="#DejaVuSans-114"/>
     <use x="433.328125" xlink:href="#DejaVuSans-58"/>
     <use x="467.019531" xlink:href="#DejaVuSans-32"/>
     <use x="498.806641" xlink:href="#DejaVuSans-40"/>
     <use x="537.820312" xlink:href="#DejaVuSans-50"/>
     <use x="601.443359" xlink:href="#DejaVuSans-48"/>
     <use x="665.066406" xlink:href="#DejaVuSans-49"/>
     <use x="728.689453" xlink:href="#DejaVuSans-48"/>
     <use x="792.3125" xlink:href="#DejaVuSans-45"/>
     <use x="828.396484" xlink:href="#DejaVuSans-48"/>
     <use x="892.019531" xlink:href="#DejaVuSans-49"/>
     <use x="955.642578" xlink:href="#DejaVuSans-45"/>
     <use x="991.726562" xlink:href="#DejaVuSans-48"/>
     <use x="1055.349609" xlink:href="#DejaVuSans-52"/>
     <use x="1118.972656" xlink:href="#DejaVuSans-32"/>
     <use x="1150.759766" xlink:href="#DejaVuSans-126"/>
     <use x="1234.548828" xlink:href="#DejaVuSans-32"/>
     <use x="1266.335938" xlink:href="#DejaVuSans-50"/>
     <use x="1329.958984" xlink:href="#DejaVuSans-48"/>
     <use x="1393.582031" xlink:href="#DejaVuSans-49"/>
     <use x="1457.205078" xlink:href="#DejaVuSans-48"/>
     <use x="1520.828125" xlink:href="#DejaVuSans-45"/>
     <use x="1556.912109" xlink:href="#DejaVuSans-49"/>
     <use x="1620.535156" xlink:href="#DejaVuSans-48"/>
     <use x="1684.158203" xlink:href="#DejaVuSans-45"/>
     <use x="1720.242188" xlink:href="#DejaVuSans-48"/>
     <use x="1783.865234" xlink:href="#DejaVuSans-56"/>
     <use x="1847.488281" xlink:href="#DejaVuSans-41"/>
    </g>
   </g>
   <g id="legend_2">
    <g id="patch_213">
     <path d="M 938.027187 78.914375 
L 1111.36 78.914375 
Q 1113.36 78.914375 1113.36 76.914375 
L 1113.36 33.88 
Q 1113.36 31.88 1111.36 31.88 
L 938.027187 31.88 
Q 936.027187 31.88 936.027187 33.88 
L 936.027187 76.914375 
Q 936.027187 78.914375 938.027187 78.914375 
z
" style="fill:#ffffff;opacity:0.8;stroke:#cccccc;stroke-linejoin:miter;"/>
    </g>
    <g id="line2d_26"/>
    <g id="line2d_27"/>
    <g id="text_19">
     <!-- turnover count:  9        -->
     <g transform="translate(968.027187 43.478437)scale(0.1 -0.1)">
      <defs>
       <path d="M 48.78125 52.59375 
L 48.78125 44.1875 
Q 44.96875 46.296875 41.140625 47.34375 
Q 37.3125 48.390625 33.40625 48.390625 
Q 24.65625 48.390625 19.8125 42.84375 
Q 14.984375 37.3125 14.984375 27.296875 
Q 14.984375 17.28125 19.8125 11.734375 
Q 24.65625 6.203125 33.40625 6.203125 
Q 37.3125 6.203125 41.140625 7.25 
Q 44.96875 8.296875 48.78125 10.40625 
L 48.78125 2.09375 
Q 45.015625 0.34375 40.984375 -0.53125 
Q 36.96875 -1.421875 32.421875 -1.421875 
Q 20.0625 -1.421875 12.78125 6.34375 
Q 5.515625 14.109375 5.515625 27.296875 
Q 5.515625 40.671875 12.859375 48.328125 
Q 20.21875 56 33.015625 56 
Q 37.15625 56 41.109375 55.140625 
Q 45.0625 54.296875 48.78125 52.59375 
z
" id="DejaVuSans-99"/>
       <path d="M 10.984375 1.515625 
L 10.984375 10.5 
Q 14.703125 8.734375 18.5 7.8125 
Q 22.3125 6.890625 25.984375 6.890625 
Q 35.75 6.890625 40.890625 13.453125 
Q 46.046875 20.015625 46.78125 33.40625 
Q 43.953125 29.203125 39.59375 26.953125 
Q 35.25 24.703125 29.984375 24.703125 
Q 19.046875 24.703125 12.671875 31.3125 
Q 6.296875 37.9375 6.296875 49.421875 
Q 6.296875 60.640625 12.9375 67.421875 
Q 19.578125 74.21875 30.609375 74.21875 
Q 43.265625 74.21875 49.921875 64.515625 
Q 56.59375 54.828125 56.59375 36.375 
Q 56.59375 19.140625 48.40625 8.859375 
Q 40.234375 -1.421875 26.421875 -1.421875 
Q 22.703125 -1.421875 18.890625 -0.6875 
Q 15.09375 0.046875 10.984375 1.515625 
z
M 30.609375 32.421875 
Q 37.25 32.421875 41.125 36.953125 
Q 45.015625 41.5 45.015625 49.421875 
Q 45.015625 57.28125 41.125 61.84375 
Q 37.25 66.40625 30.609375 66.40625 
Q 23.96875 66.40625 20.09375 61.84375 
Q 16.21875 57.28125 16.21875 49.421875 
Q 16.21875 41.5 20.09375 36.953125 
Q 23.96875 32.421875 30.609375 32.421875 
z
" id="DejaVuSans-57"/>
      </defs>
      <use xlink:href="#DejaVuSans-116"/>
      <use x="39.208984" xlink:href="#DejaVuSans-117"/>
      <use x="102.587891" xlink:href="#DejaVuSans-114"/>
      <use x="141.951172" xlink:href="#DejaVuSans-110"/>
      <use x="205.330078" xlink:href="#DejaVuSans-111"/>
      <use x="266.511719" xlink:href="#DejaVuSans-118"/>
      <use x="325.691406" xlink:href="#DejaVuSans-101"/>
      <use x="387.214844" xlink:href="#DejaVuSans-114"/>
      <use x="428.328125" xlink:href="#DejaVuSans-32"/>
      <use x="460.115234" xlink:href="#DejaVuSans-99"/>
      <use x="515.095703" xlink:href="#DejaVuSans-111"/>
      <use x="576.277344" xlink:href="#DejaVuSans-117"/>
      <use x="639.65625" xlink:href="#DejaVuSans-110"/>
      <use x="703.035156" xlink:href="#DejaVuSans-116"/>
      <use x="742.244141" xlink:href="#DejaVuSans-58"/>
      <use x="775.935547" xlink:href="#DejaVuSans-32"/>
      <use x="807.722656" xlink:href="#DejaVuSans-32"/>
      <use x="839.509766" xlink:href="#DejaVuSans-57"/>
      <use x="903.132812" xlink:href="#DejaVuSans-32"/>
      <use x="934.919922" xlink:href="#DejaVuSans-32"/>
      <use x="966.707031" xlink:href="#DejaVuSans-32"/>
      <use x="998.494141" xlink:href="#DejaVuSans-32"/>
      <use x="1030.28125" xlink:href="#DejaVuSans-32"/>
      <use x="1062.068359" xlink:href="#DejaVuSans-32"/>
      <use x="1093.855469" xlink:href="#DejaVuSans-32"/>
     </g>
    </g>
    <g id="line2d_28"/>
    <g id="line2d_29"/>
    <g id="text_20">
     <!-- turnover mean:  0.3062        -->
     <g transform="translate(968.027187 58.156563)scale(0.1 -0.1)">
      <defs>
       <path d="M 52 44.1875 
Q 55.375 50.25 60.0625 53.125 
Q 64.75 56 71.09375 56 
Q 79.640625 56 84.28125 50.015625 
Q 88.921875 44.046875 88.921875 33.015625 
L 88.921875 0 
L 79.890625 0 
L 79.890625 32.71875 
Q 79.890625 40.578125 77.09375 44.375 
Q 74.3125 48.1875 68.609375 48.1875 
Q 61.625 48.1875 57.5625 43.546875 
Q 53.515625 38.921875 53.515625 30.90625 
L 53.515625 0 
L 44.484375 0 
L 44.484375 32.71875 
Q 44.484375 40.625 41.703125 44.40625 
Q 38.921875 48.1875 33.109375 48.1875 
Q 26.21875 48.1875 22.15625 43.53125 
Q 18.109375 38.875 18.109375 30.90625 
L 18.109375 0 
L 9.078125 0 
L 9.078125 54.6875 
L 18.109375 54.6875 
L 18.109375 46.1875 
Q 21.1875 51.21875 25.484375 53.609375 
Q 29.78125 56 35.6875 56 
Q 41.65625 56 45.828125 52.96875 
Q 50 49.953125 52 44.1875 
z
" id="DejaVuSans-109"/>
      </defs>
      <use xlink:href="#DejaVuSans-116"/>
      <use x="39.208984" xlink:href="#DejaVuSans-117"/>
      <use x="102.587891" xlink:href="#DejaVuSans-114"/>
      <use x="141.951172" xlink:href="#DejaVuSans-110"/>
      <use x="205.330078" xlink:href="#DejaVuSans-111"/>
      <use x="266.511719" xlink:href="#DejaVuSans-118"/>
      <use x="325.691406" xlink:href="#DejaVuSans-101"/>
      <use x="387.214844" xlink:href="#DejaVuSans-114"/>
      <use x="428.328125" xlink:href="#DejaVuSans-32"/>
      <use x="460.115234" xlink:href="#DejaVuSans-109"/>
      <use x="557.527344" xlink:href="#DejaVuSans-101"/>
      <use x="619.050781" xlink:href="#DejaVuSans-97"/>
      <use x="680.330078" xlink:href="#DejaVuSans-110"/>
      <use x="743.708984" xlink:href="#DejaVuSans-58"/>
      <use x="777.400391" xlink:href="#DejaVuSans-32"/>
      <use x="809.1875" xlink:href="#DejaVuSans-32"/>
      <use x="840.974609" xlink:href="#DejaVuSans-48"/>
      <use x="904.597656" xlink:href="#DejaVuSans-46"/>
      <use x="936.384766" xlink:href="#DejaVuSans-51"/>
      <use x="1000.007812" xlink:href="#DejaVuSans-48"/>
      <use x="1063.630859" xlink:href="#DejaVuSans-54"/>
      <use x="1127.253906" xlink:href="#DejaVuSans-50"/>
      <use x="1190.876953" xlink:href="#DejaVuSans-32"/>
      <use x="1222.664062" xlink:href="#DejaVuSans-32"/>
      <use x="1254.451172" xlink:href="#DejaVuSans-32"/>
      <use x="1286.238281" xlink:href="#DejaVuSans-32"/>
      <use x="1318.025391" xlink:href="#DejaVuSans-32"/>
      <use x="1349.8125" xlink:href="#DejaVuSans-32"/>
      <use x="1381.599609" xlink:href="#DejaVuSans-32"/>
     </g>
    </g>
    <g id="line2d_30"/>
    <g id="line2d_31"/>
    <g id="text_21">
     <!-- turnover std:      0.1491        -->
     <g transform="translate(968.027187 72.834687)scale(0.1 -0.1)">
      <defs>
       <path d="M 44.28125 53.078125 
L 44.28125 44.578125 
Q 40.484375 46.53125 36.375 47.5 
Q 32.28125 48.484375 27.875 48.484375 
Q 21.1875 48.484375 17.84375 46.4375 
Q 14.5 44.390625 14.5 40.28125 
Q 14.5 37.15625 16.890625 35.375 
Q 19.28125 33.59375 26.515625 31.984375 
L 29.59375 31.296875 
Q 39.15625 29.25 43.1875 25.515625 
Q 47.21875 21.78125 47.21875 15.09375 
Q 47.21875 7.46875 41.1875 3.015625 
Q 35.15625 -1.421875 24.609375 -1.421875 
Q 20.21875 -1.421875 15.453125 -0.5625 
Q 10.6875 0.296875 5.421875 2 
L 5.421875 11.28125 
Q 10.40625 8.6875 15.234375 7.390625 
Q 20.0625 6.109375 24.8125 6.109375 
Q 31.15625 6.109375 34.5625 8.28125 
Q 37.984375 10.453125 37.984375 14.40625 
Q 37.984375 18.0625 35.515625 20.015625 
Q 33.0625 21.96875 24.703125 23.78125 
L 21.578125 24.515625 
Q 13.234375 26.265625 9.515625 29.90625 
Q 5.8125 33.546875 5.8125 39.890625 
Q 5.8125 47.609375 11.28125 51.796875 
Q 16.75 56 26.8125 56 
Q 31.78125 56 36.171875 55.265625 
Q 40.578125 54.546875 44.28125 53.078125 
z
" id="DejaVuSans-115"/>
      </defs>
      <use xlink:href="#DejaVuSans-116"/>
      <use x="39.208984" xlink:href="#DejaVuSans-117"/>
      <use x="102.587891" xlink:href="#DejaVuSans-114"/>
      <use x="141.951172" xlink:href="#DejaVuSans-110"/>
      <use x="205.330078" xlink:href="#DejaVuSans-111"/>
      <use x="266.511719" xlink:href="#DejaVuSans-118"/>
      <use x="325.691406" xlink:href="#DejaVuSans-101"/>
      <use x="387.214844" xlink:href="#DejaVuSans-114"/>
      <use x="428.328125" xlink:href="#DejaVuSans-32"/>
      <use x="460.115234" xlink:href="#DejaVuSans-115"/>
      <use x="512.214844" xlink:href="#DejaVuSans-116"/>
      <use x="551.423828" xlink:href="#DejaVuSans-100"/>
      <use x="614.900391" xlink:href="#DejaVuSans-58"/>
      <use x="648.591797" xlink:href="#DejaVuSans-32"/>
      <use x="680.378906" xlink:href="#DejaVuSans-32"/>
      <use x="712.166016" xlink:href="#DejaVuSans-32"/>
      <use x="743.953125" xlink:href="#DejaVuSans-32"/>
      <use x="775.740234" xlink:href="#DejaVuSans-32"/>
      <use x="807.527344" xlink:href="#DejaVuSans-32"/>
      <use x="839.314453" xlink:href="#DejaVuSans-48"/>
      <use x="902.9375" xlink:href="#DejaVuSans-46"/>
      <use x="934.724609" xlink:href="#DejaVuSans-49"/>
      <use x="998.347656" xlink:href="#DejaVuSans-52"/>
      <use x="1061.970703" xlink:href="#DejaVuSans-57"/>
      <use x="1125.59375" xlink:href="#DejaVuSans-49"/>
      <use x="1189.216797" xlink:href="#DejaVuSans-32"/>
      <use x="1221.003906" xlink:href="#DejaVuSans-32"/>
      <use x="1252.791016" xlink:href="#DejaVuSans-32"/>
      <use x="1284.578125" xlink:href="#DejaVuSans-32"/>
      <use x="1316.365234" xlink:href="#DejaVuSans-32"/>
      <use x="1348.152344" xlink:href="#DejaVuSans-32"/>
      <use x="1379.939453" xlink:href="#DejaVuSans-32"/>
     </g>
    </g>
   </g>
  </g>
 </g>
 <defs>
  <clipPath id="p3c709f50a8">
   <rect height="362.03" width="1070.64" x="47.72" y="26.88"/>
  </clipPath>
 </defs>
</svg>
