<?xml version="1.0" encoding="utf-8" standalone="no"?>
<!DOCTYPE svg PUBLIC "-//W3C//DTD SVG 1.1//EN"
  "http://www.w3.org/Graphics/SVG/1.1/DTD/svg11.dtd">
<!-- Created with matplotlib (https://matplotlib.org/) -->
<svg height="360pt" version="1.1" viewBox="0 0 1152 360" width="1152pt" xmlns="http://www.w3.org/2000/svg" xmlns:xlink="http://www.w3.org/1999/xlink">
 <metadata>
  <rdf:RDF xmlns:cc="http://creativecommons.org/ns#" xmlns:dc="http://purl.org/dc/elements/1.1/" xmlns:rdf="http://www.w3.org/1999/02/22-rdf-syntax-ns#">
   <cc:Work>
    <dc:type rdf:resource="http://purl.org/dc/dcmitype/StillImage"/>
    <dc:date>2023-10-11T16:35:15.511255</dc:date>
    <dc:format>image/svg+xml</dc:format>
    <dc:creator>
     <cc:Agent>
      <dc:title>Matplotlib v3.3.4, https://matplotlib.org/</dc:title>
     </cc:Agent>
    </dc:creator>
   </cc:Work>
  </rdf:RDF>
 </metadata>
 <defs>
  <style type="text/css">*{stroke-linecap:butt;stroke-linejoin:round;}</style>
 </defs>
 <g id="figure_1">
  <g id="patch_1">
   <path d="M 0 360 
L 1152 360 
L 1152 0 
L 0 0 
z
" style="fill:#ffffff;"/>
  </g>
  <g id="axes_1">
   <g id="patch_2">
    <path d="M 50.9 345.7 
L 1141.2 345.7 
L 1141.2 25.92 
L 50.9 25.92 
z
" style="fill:#ffffff;"/>
   </g>
   <g id="matplotlib.axis_1"/>
   <g id="matplotlib.axis_2">
    <g id="ytick_1">
     <g id="line2d_1">
      <path clip-path="url(#pd78b744d05)" d="M 50.9 336.400561 
L 1141.2 336.400561 
" style="fill:none;stroke:#b0b0b0;stroke-linecap:square;stroke-width:0.8;"/>
     </g>
     <g id="line2d_2">
      <defs>
       <path d="M 0 0 
L -3.5 0 
" id="m7e7418b17b" style="stroke:#000000;stroke-width:0.8;"/>
      </defs>
      <g>
       <use style="stroke:#000000;stroke-width:0.8;" x="50.9" xlink:href="#m7e7418b17b" y="336.400561"/>
      </g>
     </g>
     <g id="text_1">
      <!-- -2.0 -->
      <g transform="translate(24.389062 340.19978)scale(0.1 -0.1)">
       <defs>
        <path d="M 4.890625 31.390625 
L 31.203125 31.390625 
L 31.203125 23.390625 
L 4.890625 23.390625 
z
" id="DejaVuSans-45"/>
        <path d="M 19.1875 8.296875 
L 53.609375 8.296875 
L 53.609375 0 
L 7.328125 0 
L 7.328125 8.296875 
Q 12.9375 14.109375 22.625 23.890625 
Q 32.328125 33.6875 34.8125 36.53125 
Q 39.546875 41.84375 41.421875 45.53125 
Q 43.3125 49.21875 43.3125 52.78125 
Q 43.3125 58.59375 39.234375 62.25 
Q 35.15625 65.921875 28.609375 65.921875 
Q 23.96875 65.921875 18.8125 64.3125 
Q 13.671875 62.703125 7.8125 59.421875 
L 7.8125 69.390625 
Q 13.765625 71.78125 18.9375 73 
Q 24.125 74.21875 28.421875 74.21875 
Q 39.75 74.21875 46.484375 68.546875 
Q 53.21875 62.890625 53.21875 53.421875 
Q 53.21875 48.921875 51.53125 44.890625 
Q 49.859375 40.875 45.40625 35.40625 
Q 44.1875 33.984375 37.640625 27.21875 
Q 31.109375 20.453125 19.1875 8.296875 
z
" id="DejaVuSans-50"/>
        <path d="M 10.6875 12.40625 
L 21 12.40625 
L 21 0 
L 10.6875 0 
z
" id="DejaVuSans-46"/>
        <path d="M 31.78125 66.40625 
Q 24.171875 66.40625 20.328125 58.90625 
Q 16.5 51.421875 16.5 36.375 
Q 16.5 21.390625 20.328125 13.890625 
Q 24.171875 6.390625 31.78125 6.390625 
Q 39.453125 6.390625 43.28125 13.890625 
Q 47.125 21.390625 47.125 36.375 
Q 47.125 51.421875 43.28125 58.90625 
Q 39.453125 66.40625 31.78125 66.40625 
z
M 31.78125 74.21875 
Q 44.046875 74.21875 50.515625 64.515625 
Q 56.984375 54.828125 56.984375 36.375 
Q 56.984375 17.96875 50.515625 8.265625 
Q 44.046875 -1.421875 31.78125 -1.421875 
Q 19.53125 -1.421875 13.0625 8.265625 
Q 6.59375 17.96875 6.59375 36.375 
Q 6.59375 54.828125 13.0625 64.515625 
Q 19.53125 74.21875 31.78125 74.21875 
z
" id="DejaVuSans-48"/>
       </defs>
       <use xlink:href="#DejaVuSans-45"/>
       <use x="36.083984" xlink:href="#DejaVuSans-50"/>
       <use x="99.707031" xlink:href="#DejaVuSans-46"/>
       <use x="131.494141" xlink:href="#DejaVuSans-48"/>
      </g>
     </g>
    </g>
    <g id="ytick_2">
     <g id="line2d_3">
      <path clip-path="url(#pd78b744d05)" d="M 50.9 297.760348 
L 1141.2 297.760348 
" style="fill:none;stroke:#b0b0b0;stroke-linecap:square;stroke-width:0.8;"/>
     </g>
     <g id="line2d_4">
      <g>
       <use style="stroke:#000000;stroke-width:0.8;" x="50.9" xlink:href="#m7e7418b17b" y="297.760348"/>
      </g>
     </g>
     <g id="text_2">
      <!-- -1.5 -->
      <g transform="translate(24.389062 301.559567)scale(0.1 -0.1)">
       <defs>
        <path d="M 12.40625 8.296875 
L 28.515625 8.296875 
L 28.515625 63.921875 
L 10.984375 60.40625 
L 10.984375 69.390625 
L 28.421875 72.90625 
L 38.28125 72.90625 
L 38.28125 8.296875 
L 54.390625 8.296875 
L 54.390625 0 
L 12.40625 0 
z
" id="DejaVuSans-49"/>
        <path d="M 10.796875 72.90625 
L 49.515625 72.90625 
L 49.515625 64.59375 
L 19.828125 64.59375 
L 19.828125 46.734375 
Q 21.96875 47.46875 24.109375 47.828125 
Q 26.265625 48.1875 28.421875 48.1875 
Q 40.625 48.1875 47.75 41.5 
Q 54.890625 34.8125 54.890625 23.390625 
Q 54.890625 11.625 47.5625 5.09375 
Q 40.234375 -1.421875 26.90625 -1.421875 
Q 22.3125 -1.421875 17.546875 -0.640625 
Q 12.796875 0.140625 7.71875 1.703125 
L 7.71875 11.625 
Q 12.109375 9.234375 16.796875 8.0625 
Q 21.484375 6.890625 26.703125 6.890625 
Q 35.15625 6.890625 40.078125 11.328125 
Q 45.015625 15.765625 45.015625 23.390625 
Q 45.015625 31 40.078125 35.4375 
Q 35.15625 39.890625 26.703125 39.890625 
Q 22.75 39.890625 18.8125 39.015625 
Q 14.890625 38.140625 10.796875 36.28125 
z
" id="DejaVuSans-53"/>
       </defs>
       <use xlink:href="#DejaVuSans-45"/>
       <use x="36.083984" xlink:href="#DejaVuSans-49"/>
       <use x="99.707031" xlink:href="#DejaVuSans-46"/>
       <use x="131.494141" xlink:href="#DejaVuSans-53"/>
      </g>
     </g>
    </g>
    <g id="ytick_3">
     <g id="line2d_5">
      <path clip-path="url(#pd78b744d05)" d="M 50.9 259.120135 
L 1141.2 259.120135 
" style="fill:none;stroke:#b0b0b0;stroke-linecap:square;stroke-width:0.8;"/>
     </g>
     <g id="line2d_6">
      <g>
       <use style="stroke:#000000;stroke-width:0.8;" x="50.9" xlink:href="#m7e7418b17b" y="259.120135"/>
      </g>
     </g>
     <g id="text_3">
      <!-- -1.0 -->
      <g transform="translate(24.389062 262.919354)scale(0.1 -0.1)">
       <use xlink:href="#DejaVuSans-45"/>
       <use x="36.083984" xlink:href="#DejaVuSans-49"/>
       <use x="99.707031" xlink:href="#DejaVuSans-46"/>
       <use x="131.494141" xlink:href="#DejaVuSans-48"/>
      </g>
     </g>
    </g>
    <g id="ytick_4">
     <g id="line2d_7">
      <path clip-path="url(#pd78b744d05)" d="M 50.9 220.479922 
L 1141.2 220.479922 
" style="fill:none;stroke:#b0b0b0;stroke-linecap:square;stroke-width:0.8;"/>
     </g>
     <g id="line2d_8">
      <g>
       <use style="stroke:#000000;stroke-width:0.8;" x="50.9" xlink:href="#m7e7418b17b" y="220.479922"/>
      </g>
     </g>
     <g id="text_4">
      <!-- -0.5 -->
      <g transform="translate(24.389062 224.279141)scale(0.1 -0.1)">
       <use xlink:href="#DejaVuSans-45"/>
       <use x="36.083984" xlink:href="#DejaVuSans-48"/>
       <use x="99.707031" xlink:href="#DejaVuSans-46"/>
       <use x="131.494141" xlink:href="#DejaVuSans-53"/>
      </g>
     </g>
    </g>
    <g id="ytick_5">
     <g id="line2d_9">
      <path clip-path="url(#pd78b744d05)" d="M 50.9 181.839709 
L 1141.2 181.839709 
" style="fill:none;stroke:#b0b0b0;stroke-linecap:square;stroke-width:0.8;"/>
     </g>
     <g id="line2d_10">
      <g>
       <use style="stroke:#000000;stroke-width:0.8;" x="50.9" xlink:href="#m7e7418b17b" y="181.839709"/>
      </g>
     </g>
     <g id="text_5">
      <!-- 0.0 -->
      <g transform="translate(27.996875 185.638928)scale(0.1 -0.1)">
       <use xlink:href="#DejaVuSans-48"/>
       <use x="63.623047" xlink:href="#DejaVuSans-46"/>
       <use x="95.410156" xlink:href="#DejaVuSans-48"/>
      </g>
     </g>
    </g>
    <g id="ytick_6">
     <g id="line2d_11">
      <path clip-path="url(#pd78b744d05)" d="M 50.9 143.199496 
L 1141.2 143.199496 
" style="fill:none;stroke:#b0b0b0;stroke-linecap:square;stroke-width:0.8;"/>
     </g>
     <g id="line2d_12">
      <g>
       <use style="stroke:#000000;stroke-width:0.8;" x="50.9" xlink:href="#m7e7418b17b" y="143.199496"/>
      </g>
     </g>
     <g id="text_6">
      <!-- 0.5 -->
      <g transform="translate(27.996875 146.998715)scale(0.1 -0.1)">
       <use xlink:href="#DejaVuSans-48"/>
       <use x="63.623047" xlink:href="#DejaVuSans-46"/>
       <use x="95.410156" xlink:href="#DejaVuSans-53"/>
      </g>
     </g>
    </g>
    <g id="ytick_7">
     <g id="line2d_13">
      <path clip-path="url(#pd78b744d05)" d="M 50.9 104.559283 
L 1141.2 104.559283 
" style="fill:none;stroke:#b0b0b0;stroke-linecap:square;stroke-width:0.8;"/>
     </g>
     <g id="line2d_14">
      <g>
       <use style="stroke:#000000;stroke-width:0.8;" x="50.9" xlink:href="#m7e7418b17b" y="104.559283"/>
      </g>
     </g>
     <g id="text_7">
      <!-- 1.0 -->
      <g transform="translate(27.996875 108.358502)scale(0.1 -0.1)">
       <use xlink:href="#DejaVuSans-49"/>
       <use x="63.623047" xlink:href="#DejaVuSans-46"/>
       <use x="95.410156" xlink:href="#DejaVuSans-48"/>
      </g>
     </g>
    </g>
    <g id="ytick_8">
     <g id="line2d_15">
      <path clip-path="url(#pd78b744d05)" d="M 50.9 65.91907 
L 1141.2 65.91907 
" style="fill:none;stroke:#b0b0b0;stroke-linecap:square;stroke-width:0.8;"/>
     </g>
     <g id="line2d_16">
      <g>
       <use style="stroke:#000000;stroke-width:0.8;" x="50.9" xlink:href="#m7e7418b17b" y="65.91907"/>
      </g>
     </g>
     <g id="text_8">
      <!-- 1.5 -->
      <g transform="translate(27.996875 69.718289)scale(0.1 -0.1)">
       <use xlink:href="#DejaVuSans-49"/>
       <use x="63.623047" xlink:href="#DejaVuSans-46"/>
       <use x="95.410156" xlink:href="#DejaVuSans-53"/>
      </g>
     </g>
    </g>
    <g id="ytick_9">
     <g id="line2d_17">
      <path clip-path="url(#pd78b744d05)" d="M 50.9 27.278857 
L 1141.2 27.278857 
" style="fill:none;stroke:#b0b0b0;stroke-linecap:square;stroke-width:0.8;"/>
     </g>
     <g id="line2d_18">
      <g>
       <use style="stroke:#000000;stroke-width:0.8;" x="50.9" xlink:href="#m7e7418b17b" y="27.278857"/>
      </g>
     </g>
     <g id="text_9">
      <!-- 2.0 -->
      <g transform="translate(27.996875 31.078076)scale(0.1 -0.1)">
       <use xlink:href="#DejaVuSans-50"/>
       <use x="63.623047" xlink:href="#DejaVuSans-46"/>
       <use x="95.410156" xlink:href="#DejaVuSans-48"/>
      </g>
     </g>
    </g>
    <g id="text_10">
     <!-- log return cumsum -->
     <g transform="translate(18.309375 233.327969)rotate(-90)scale(0.1 -0.1)">
      <defs>
       <path d="M 9.421875 75.984375 
L 18.40625 75.984375 
L 18.40625 0 
L 9.421875 0 
z
" id="DejaVuSans-108"/>
       <path d="M 30.609375 48.390625 
Q 23.390625 48.390625 19.1875 42.75 
Q 14.984375 37.109375 14.984375 27.296875 
Q 14.984375 17.484375 19.15625 11.84375 
Q 23.34375 6.203125 30.609375 6.203125 
Q 37.796875 6.203125 41.984375 11.859375 
Q 46.1875 17.53125 46.1875 27.296875 
Q 46.1875 37.015625 41.984375 42.703125 
Q 37.796875 48.390625 30.609375 48.390625 
z
M 30.609375 56 
Q 42.328125 56 49.015625 48.375 
Q 55.71875 40.765625 55.71875 27.296875 
Q 55.71875 13.875 49.015625 6.21875 
Q 42.328125 -1.421875 30.609375 -1.421875 
Q 18.84375 -1.421875 12.171875 6.21875 
Q 5.515625 13.875 5.515625 27.296875 
Q 5.515625 40.765625 12.171875 48.375 
Q 18.84375 56 30.609375 56 
z
" id="DejaVuSans-111"/>
       <path d="M 45.40625 27.984375 
Q 45.40625 37.75 41.375 43.109375 
Q 37.359375 48.484375 30.078125 48.484375 
Q 22.859375 48.484375 18.828125 43.109375 
Q 14.796875 37.75 14.796875 27.984375 
Q 14.796875 18.265625 18.828125 12.890625 
Q 22.859375 7.515625 30.078125 7.515625 
Q 37.359375 7.515625 41.375 12.890625 
Q 45.40625 18.265625 45.40625 27.984375 
z
M 54.390625 6.78125 
Q 54.390625 -7.171875 48.1875 -13.984375 
Q 42 -20.796875 29.203125 -20.796875 
Q 24.46875 -20.796875 20.265625 -20.09375 
Q 16.0625 -19.390625 12.109375 -17.921875 
L 12.109375 -9.1875 
Q 16.0625 -11.328125 19.921875 -12.34375 
Q 23.78125 -13.375 27.78125 -13.375 
Q 36.625 -13.375 41.015625 -8.765625 
Q 45.40625 -4.15625 45.40625 5.171875 
L 45.40625 9.625 
Q 42.625 4.78125 38.28125 2.390625 
Q 33.9375 0 27.875 0 
Q 17.828125 0 11.671875 7.65625 
Q 5.515625 15.328125 5.515625 27.984375 
Q 5.515625 40.671875 11.671875 48.328125 
Q 17.828125 56 27.875 56 
Q 33.9375 56 38.28125 53.609375 
Q 42.625 51.21875 45.40625 46.390625 
L 45.40625 54.6875 
L 54.390625 54.6875 
z
" id="DejaVuSans-103"/>
       <path id="DejaVuSans-32"/>
       <path d="M 41.109375 46.296875 
Q 39.59375 47.171875 37.8125 47.578125 
Q 36.03125 48 33.890625 48 
Q 26.265625 48 22.1875 43.046875 
Q 18.109375 38.09375 18.109375 28.8125 
L 18.109375 0 
L 9.078125 0 
L 9.078125 54.6875 
L 18.109375 54.6875 
L 18.109375 46.1875 
Q 20.953125 51.171875 25.484375 53.578125 
Q 30.03125 56 36.53125 56 
Q 37.453125 56 38.578125 55.875 
Q 39.703125 55.765625 41.0625 55.515625 
z
" id="DejaVuSans-114"/>
       <path d="M 56.203125 29.59375 
L 56.203125 25.203125 
L 14.890625 25.203125 
Q 15.484375 15.921875 20.484375 11.0625 
Q 25.484375 6.203125 34.421875 6.203125 
Q 39.59375 6.203125 44.453125 7.46875 
Q 49.3125 8.734375 54.109375 11.28125 
L 54.109375 2.78125 
Q 49.265625 0.734375 44.1875 -0.34375 
Q 39.109375 -1.421875 33.890625 -1.421875 
Q 20.796875 -1.421875 13.15625 6.1875 
Q 5.515625 13.8125 5.515625 26.8125 
Q 5.515625 40.234375 12.765625 48.109375 
Q 20.015625 56 32.328125 56 
Q 43.359375 56 49.78125 48.890625 
Q 56.203125 41.796875 56.203125 29.59375 
z
M 47.21875 32.234375 
Q 47.125 39.59375 43.09375 43.984375 
Q 39.0625 48.390625 32.421875 48.390625 
Q 24.90625 48.390625 20.390625 44.140625 
Q 15.875 39.890625 15.1875 32.171875 
z
" id="DejaVuSans-101"/>
       <path d="M 18.3125 70.21875 
L 18.3125 54.6875 
L 36.8125 54.6875 
L 36.8125 47.703125 
L 18.3125 47.703125 
L 18.3125 18.015625 
Q 18.3125 11.328125 20.140625 9.421875 
Q 21.96875 7.515625 27.59375 7.515625 
L 36.8125 7.515625 
L 36.8125 0 
L 27.59375 0 
Q 17.1875 0 13.234375 3.875 
Q 9.28125 7.765625 9.28125 18.015625 
L 9.28125 47.703125 
L 2.6875 47.703125 
L 2.6875 54.6875 
L 9.28125 54.6875 
L 9.28125 70.21875 
z
" id="DejaVuSans-116"/>
       <path d="M 8.5 21.578125 
L 8.5 54.6875 
L 17.484375 54.6875 
L 17.484375 21.921875 
Q 17.484375 14.15625 20.5 10.265625 
Q 23.53125 6.390625 29.59375 6.390625 
Q 36.859375 6.390625 41.078125 11.03125 
Q 45.3125 15.671875 45.3125 23.6875 
L 45.3125 54.6875 
L 54.296875 54.6875 
L 54.296875 0 
L 45.3125 0 
L 45.3125 8.40625 
Q 42.046875 3.421875 37.71875 1 
Q 33.40625 -1.421875 27.6875 -1.421875 
Q 18.265625 -1.421875 13.375 4.4375 
Q 8.5 10.296875 8.5 21.578125 
z
M 31.109375 56 
z
" id="DejaVuSans-117"/>
       <path d="M 54.890625 33.015625 
L 54.890625 0 
L 45.90625 0 
L 45.90625 32.71875 
Q 45.90625 40.484375 42.875 44.328125 
Q 39.84375 48.1875 33.796875 48.1875 
Q 26.515625 48.1875 22.3125 43.546875 
Q 18.109375 38.921875 18.109375 30.90625 
L 18.109375 0 
L 9.078125 0 
L 9.078125 54.6875 
L 18.109375 54.6875 
L 18.109375 46.1875 
Q 21.34375 51.125 25.703125 53.5625 
Q 30.078125 56 35.796875 56 
Q 45.21875 56 50.046875 50.171875 
Q 54.890625 44.34375 54.890625 33.015625 
z
" id="DejaVuSans-110"/>
       <path d="M 48.78125 52.59375 
L 48.78125 44.1875 
Q 44.96875 46.296875 41.140625 47.34375 
Q 37.3125 48.390625 33.40625 48.390625 
Q 24.65625 48.390625 19.8125 42.84375 
Q 14.984375 37.3125 14.984375 27.296875 
Q 14.984375 17.28125 19.8125 11.734375 
Q 24.65625 6.203125 33.40625 6.203125 
Q 37.3125 6.203125 41.140625 7.25 
Q 44.96875 8.296875 48.78125 10.40625 
L 48.78125 2.09375 
Q 45.015625 0.34375 40.984375 -0.53125 
Q 36.96875 -1.421875 32.421875 -1.421875 
Q 20.0625 -1.421875 12.78125 6.34375 
Q 5.515625 14.109375 5.515625 27.296875 
Q 5.515625 40.671875 12.859375 48.328125 
Q 20.21875 56 33.015625 56 
Q 37.15625 56 41.109375 55.140625 
Q 45.0625 54.296875 48.78125 52.59375 
z
" id="DejaVuSans-99"/>
       <path d="M 52 44.1875 
Q 55.375 50.25 60.0625 53.125 
Q 64.75 56 71.09375 56 
Q 79.640625 56 84.28125 50.015625 
Q 88.921875 44.046875 88.921875 33.015625 
L 88.921875 0 
L 79.890625 0 
L 79.890625 32.71875 
Q 79.890625 40.578125 77.09375 44.375 
Q 74.3125 48.1875 68.609375 48.1875 
Q 61.625 48.1875 57.5625 43.546875 
Q 53.515625 38.921875 53.515625 30.90625 
L 53.515625 0 
L 44.484375 0 
L 44.484375 32.71875 
Q 44.484375 40.625 41.703125 44.40625 
Q 38.921875 48.1875 33.109375 48.1875 
Q 26.21875 48.1875 22.15625 43.53125 
Q 18.109375 38.875 18.109375 30.90625 
L 18.109375 0 
L 9.078125 0 
L 9.078125 54.6875 
L 18.109375 54.6875 
L 18.109375 46.1875 
Q 21.1875 51.21875 25.484375 53.609375 
Q 29.78125 56 35.6875 56 
Q 41.65625 56 45.828125 52.96875 
Q 50 49.953125 52 44.1875 
z
" id="DejaVuSans-109"/>
       <path d="M 44.28125 53.078125 
L 44.28125 44.578125 
Q 40.484375 46.53125 36.375 47.5 
Q 32.28125 48.484375 27.875 48.484375 
Q 21.1875 48.484375 17.84375 46.4375 
Q 14.5 44.390625 14.5 40.28125 
Q 14.5 37.15625 16.890625 35.375 
Q 19.28125 33.59375 26.515625 31.984375 
L 29.59375 31.296875 
Q 39.15625 29.25 43.1875 25.515625 
Q 47.21875 21.78125 47.21875 15.09375 
Q 47.21875 7.46875 41.1875 3.015625 
Q 35.15625 -1.421875 24.609375 -1.421875 
Q 20.21875 -1.421875 15.453125 -0.5625 
Q 10.6875 0.296875 5.421875 2 
L 5.421875 11.28125 
Q 10.40625 8.6875 15.234375 7.390625 
Q 20.0625 6.109375 24.8125 6.109375 
Q 31.15625 6.109375 34.5625 8.28125 
Q 37.984375 10.453125 37.984375 14.40625 
Q 37.984375 18.0625 35.515625 20.015625 
Q 33.0625 21.96875 24.703125 23.78125 
L 21.578125 24.515625 
Q 13.234375 26.265625 9.515625 29.90625 
Q 5.8125 33.546875 5.8125 39.890625 
Q 5.8125 47.609375 11.28125 51.796875 
Q 16.75 56 26.8125 56 
Q 31.78125 56 36.171875 55.265625 
Q 40.578125 54.546875 44.28125 53.078125 
z
" id="DejaVuSans-115"/>
      </defs>
      <use xlink:href="#DejaVuSans-108"/>
      <use x="27.783203" xlink:href="#DejaVuSans-111"/>
      <use x="88.964844" xlink:href="#DejaVuSans-103"/>
      <use x="152.441406" xlink:href="#DejaVuSans-32"/>
      <use x="184.228516" xlink:href="#DejaVuSans-114"/>
      <use x="223.091797" xlink:href="#DejaVuSans-101"/>
      <use x="284.615234" xlink:href="#DejaVuSans-116"/>
      <use x="323.824219" xlink:href="#DejaVuSans-117"/>
      <use x="387.203125" xlink:href="#DejaVuSans-114"/>
      <use x="426.566406" xlink:href="#DejaVuSans-110"/>
      <use x="489.945312" xlink:href="#DejaVuSans-32"/>
      <use x="521.732422" xlink:href="#DejaVuSans-99"/>
      <use x="576.712891" xlink:href="#DejaVuSans-117"/>
      <use x="640.091797" xlink:href="#DejaVuSans-109"/>
      <use x="737.503906" xlink:href="#DejaVuSans-115"/>
      <use x="789.603516" xlink:href="#DejaVuSans-117"/>
      <use x="852.982422" xlink:href="#DejaVuSans-109"/>
     </g>
    </g>
   </g>
   <g id="line2d_19">
    <path clip-path="url(#pd78b744d05)" d="M 100.459091 180.597639 
L 108.025364 179.20413 
L 111.808501 177.366921 
L 123.157911 175.897288 
L 126.941048 177.488125 
L 130.724185 174.717253 
L 134.507321 180.762978 
L 138.290458 179.126119 
L 149.639868 180.646287 
L 153.423005 174.53536 
L 157.206142 178.549614 
L 160.989278 184.459413 
L 164.772415 177.774471 
L 176.121825 184.536428 
L 179.904962 180.809797 
L 183.688099 178.255077 
L 187.471235 177.442187 
L 191.254372 173.702067 
L 202.603782 173.644145 
L 206.386919 178.213732 
L 210.170056 175.491051 
L 213.953192 177.048303 
L 217.736329 181.287878 
L 229.085739 175.282808 
L 232.868876 176.807434 
L 236.652012 175.938366 
L 240.435149 180.970765 
L 244.218286 177.182782 
L 255.567696 182.487163 
L 259.350833 179.305019 
L 266.917106 175.930458 
L 270.700243 170.98281 
L 282.049653 170.055887 
L 285.83279 163.100608 
L 289.615926 161.469241 
L 293.399063 163.547912 
L 297.1822 166.926799 
L 308.53161 166.73601 
L 312.314747 171.798812 
L 316.097883 171.655592 
L 319.88102 170.498697 
L 323.664157 172.557724 
L 335.013567 172.381337 
L 338.796704 175.973723 
L 342.57984 179.093295 
L 346.362977 177.521601 
L 350.146114 178.62215 
L 361.495524 175.831169 
L 365.278661 175.910165 
L 369.061797 175.844295 
L 372.844934 169.511537 
L 376.628071 172.015597 
L 387.977481 173.608508 
L 391.760618 175.770818 
L 395.543754 176.215399 
L 399.326891 175.811953 
L 403.110028 182.714744 
L 414.459438 181.709555 
L 418.242575 180.887099 
L 422.025711 186.68358 
L 425.808848 183.132354 
L 429.591985 186.582218 
L 440.941395 180.900261 
L 444.724532 176.255365 
L 448.507668 179.859117 
L 452.290805 182.076356 
L 456.073942 177.038803 
L 467.423352 174.963799 
L 474.989625 175.370369 
L 478.772762 176.280398 
L 482.555899 180.302251 
L 493.905309 177.510325 
L 497.688446 172.61005 
L 501.471582 172.890769 
L 505.254719 174.307833 
L 509.037856 179.995458 
L 524.170402 179.330045 
L 527.953539 178.591107 
L 531.736676 174.538275 
L 535.519813 169.010521 
L 546.869223 169.665078 
L 550.652359 170.386717 
L 554.435496 170.200448 
L 558.218633 170.49435 
L 562.00177 168.195969 
L 577.134316 164.742077 
L 580.917453 167.69338 
L 584.70059 164.436603 
L 588.483727 162.375841 
L 599.833137 162.30958 
L 603.616273 161.021149 
L 607.39941 157.482885 
L 611.182547 156.144135 
L 614.965684 156.805158 
L 626.315094 151.413444 
L 630.09823 153.70842 
L 633.881367 152.640049 
L 637.664504 151.976285 
L 641.447641 153.528884 
L 652.797051 147.985527 
L 656.580187 148.516268 
L 660.363324 142.651579 
L 664.146461 146.970873 
L 667.929598 146.990824 
L 679.279008 144.399856 
L 683.062144 146.255651 
L 686.845281 153.136743 
L 690.628418 150.652716 
L 694.411554 146.147733 
L 705.760965 142.141455 
L 709.544101 139.397546 
L 713.327238 144.48898 
L 717.110375 143.465695 
L 720.893511 138.465284 
L 732.242922 132.739983 
L 736.026058 132.929087 
L 739.809195 136.791773 
L 743.592332 135.790531 
L 747.375468 132.429122 
L 758.724879 129.131857 
L 762.508015 133.091267 
L 766.291152 137.493522 
L 770.074289 132.739236 
L 773.857425 129.804013 
L 785.206836 134.152601 
L 788.989972 135.469198 
L 792.773109 132.551327 
L 796.556246 133.186122 
L 800.339382 131.144577 
L 811.688793 127.922585 
L 815.471929 127.227492 
L 819.255066 127.31575 
L 823.038203 128.233229 
L 826.821339 121.480415 
L 838.170749 120.794199 
L 841.953886 119.155255 
L 845.737023 117.12206 
L 849.52016 118.398864 
L 853.303296 118.41353 
L 864.652706 119.177289 
L 868.435843 121.957059 
L 872.21898 115.272915 
L 876.002117 114.723327 
L 879.785253 110.290624 
L 891.134663 115.950067 
L 894.9178 111.272927 
L 898.700937 107.701026 
L 902.484074 108.691552 
L 906.26721 104.005322 
L 917.61662 109.99256 
L 921.399757 114.3404 
L 925.182894 112.140934 
L 928.966031 111.098591 
L 932.749167 109.220914 
L 944.098577 109.19018 
L 947.881714 111.763497 
L 951.664851 113.074521 
L 955.447988 117.335995 
L 970.580534 116.977875 
L 974.363671 117.16732 
L 978.146808 118.444347 
L 981.929944 117.934309 
L 985.713081 114.580943 
L 997.062491 110.111806 
L 1000.845628 113.277859 
L 1004.628765 112.956465 
L 1008.411901 115.386341 
L 1012.195038 114.970611 
L 1023.544448 111.233766 
L 1031.110722 113.36133 
L 1034.893858 115.836969 
L 1038.676995 111.391241 
L 1050.026405 116.185233 
L 1053.809542 112.85973 
L 1057.592679 114.869319 
L 1061.375815 111.665656 
L 1065.158952 115.378797 
L 1076.508362 112.865997 
L 1080.291499 113.202189 
L 1084.074636 109.742525 
L 1087.857772 108.427797 
L 1091.640909 108.427797 
L 1091.640909 108.427797 
" style="fill:none;stroke:#9467bd;stroke-linecap:square;stroke-width:1.5;"/>
   </g>
   <g id="line2d_20">
    <path clip-path="url(#pd78b744d05)" d="M 100.459091 187.411118 
L 104.242228 187.379184 
L 108.025364 186.638026 
L 111.808501 188.096759 
L 123.157911 194.665327 
L 126.941048 199.70911 
L 130.724185 200.887846 
L 134.507321 203.591847 
L 138.290458 199.273026 
L 149.639868 198.114315 
L 153.423005 194.930937 
L 157.206142 195.143437 
L 160.989278 194.776323 
L 164.772415 196.127866 
L 176.121825 197.879648 
L 179.904962 191.850052 
L 183.688099 187.332463 
L 187.471235 186.719993 
L 191.254372 193.748712 
L 202.603782 197.630217 
L 206.386919 197.644423 
L 210.170056 198.230037 
L 213.953192 201.568264 
L 217.736329 203.371557 
L 229.085739 201.873395 
L 232.868876 198.505445 
L 236.652012 195.367811 
L 240.435149 194.25061 
L 244.218286 192.508368 
L 255.567696 198.959449 
L 259.350833 195.910347 
L 263.133969 197.313426 
L 266.917106 191.871246 
L 270.700243 192.056326 
L 282.049653 193.356567 
L 285.83279 190.754532 
L 289.615926 194.169453 
L 293.399063 192.039745 
L 297.1822 188.794727 
L 308.53161 186.488662 
L 312.314747 188.666022 
L 316.097883 192.677045 
L 319.88102 188.761946 
L 323.664157 187.191942 
L 335.013567 184.260378 
L 338.796704 181.955036 
L 342.57984 183.798321 
L 346.362977 185.184209 
L 350.146114 187.657691 
L 361.495524 190.893302 
L 365.278661 189.747192 
L 369.061797 192.982435 
L 372.844934 191.291358 
L 376.628071 193.951949 
L 387.977481 196.323988 
L 391.760618 200.448011 
L 395.543754 199.527049 
L 399.326891 197.332638 
L 403.110028 201.444824 
L 414.459438 204.638984 
L 418.242575 201.310544 
L 422.025711 203.082041 
L 425.808848 203.637701 
L 429.591985 206.164617 
L 440.941395 199.769067 
L 444.724532 198.955623 
L 448.507668 203.272537 
L 452.290805 203.717445 
L 456.073942 203.189551 
L 467.423352 207.96311 
L 471.206489 210.814769 
L 474.989625 206.777104 
L 478.772762 210.188508 
L 482.555899 210.738017 
L 493.905309 211.406807 
L 497.688446 212.799551 
L 501.471582 209.793627 
L 505.254719 209.088817 
L 509.037856 207.68286 
L 520.387266 207.711323 
L 524.170402 203.655146 
L 527.953539 203.27751 
L 531.736676 205.086757 
L 535.519813 209.029344 
L 546.869223 211.688796 
L 550.652359 209.764682 
L 554.435496 205.947273 
L 558.218633 210.177856 
L 562.00177 207.927189 
L 573.35118 209.929364 
L 577.134316 205.473536 
L 580.917453 198.744549 
L 584.70059 196.017816 
L 588.483727 198.159851 
L 599.833137 206.157385 
L 603.616273 210.439736 
L 607.39941 209.44488 
L 611.182547 204.550008 
L 614.965684 203.314566 
L 626.315094 205.470671 
L 630.09823 201.298146 
L 633.881367 201.144516 
L 641.447641 210.639621 
L 652.797051 208.302254 
L 656.580187 210.601818 
L 660.363324 207.390222 
L 664.146461 203.962151 
L 667.929598 204.70645 
L 679.279008 204.881431 
L 683.062144 201.221083 
L 686.845281 203.432103 
L 690.628418 199.237606 
L 694.411554 200.711709 
L 705.760965 198.55041 
L 709.544101 194.322018 
L 713.327238 201.146439 
L 717.110375 197.279206 
L 720.893511 196.926594 
L 736.026058 198.082459 
L 739.809195 200.455187 
L 743.592332 199.25011 
L 747.375468 198.453058 
L 758.724879 196.553172 
L 762.508015 199.704894 
L 766.291152 198.531162 
L 770.074289 197.872642 
L 773.857425 199.391593 
L 785.206836 200.986476 
L 792.773109 210.527318 
L 796.556246 211.864923 
L 800.339382 208.690695 
L 811.688793 203.373396 
L 815.471929 199.155773 
L 819.255066 196.750709 
L 823.038203 192.258189 
L 826.821339 190.227454 
L 838.170749 191.794563 
L 841.953886 187.168664 
L 845.737023 186.930148 
L 849.52016 187.492463 
L 853.303296 183.876355 
L 864.652706 182.100428 
L 868.435843 181.147138 
L 872.21898 175.139939 
L 876.002117 173.989169 
L 879.785253 172.375881 
L 891.134663 171.778339 
L 894.9178 173.25933 
L 898.700937 178.841566 
L 902.484074 181.73548 
L 906.26721 183.555412 
L 917.61662 183.667282 
L 921.399757 182.01742 
L 925.182894 184.228493 
L 928.966031 182.899936 
L 932.749167 182.275688 
L 944.098577 180.753048 
L 947.881714 179.906695 
L 951.664851 185.077913 
L 955.447988 180.571878 
L 959.231124 182.613824 
L 970.580534 178.350488 
L 974.363671 176.301407 
L 978.146808 179.088029 
L 981.929944 175.642068 
L 985.713081 179.392088 
L 997.062491 176.900215 
L 1000.845628 175.654608 
L 1004.628765 177.096158 
L 1008.411901 172.166779 
L 1012.195038 176.689385 
L 1023.544448 176.78196 
L 1027.327585 173.034989 
L 1031.110722 171.40586 
L 1034.893858 167.972361 
L 1038.676995 163.575092 
L 1050.026405 165.236465 
L 1053.809542 167.031386 
L 1057.592679 171.134675 
L 1061.375815 170.126314 
L 1065.158952 168.348568 
L 1076.508362 162.620234 
L 1080.291499 166.756065 
L 1084.074636 166.252464 
L 1087.857772 166.013788 
L 1091.640909 166.013788 
L 1091.640909 166.013788 
" style="fill:none;stroke:#1f77b4;stroke-linecap:square;stroke-width:1.5;"/>
   </g>
   <g id="line2d_21">
    <path clip-path="url(#pd78b744d05)" d="M 100.459091 176.865052 
L 104.242228 181.444188 
L 111.808501 191.580485 
L 123.157911 194.666955 
L 126.941048 194.285262 
L 130.724185 195.34435 
L 134.507321 198.640432 
L 138.290458 196.930677 
L 149.639868 202.713775 
L 153.423005 205.995092 
L 157.206142 208.08872 
L 160.989278 208.770706 
L 164.772415 204.484115 
L 176.121825 209.271237 
L 179.904962 209.051541 
L 183.688099 207.636213 
L 187.471235 214.984895 
L 191.254372 213.340297 
L 202.603782 218.608242 
L 206.386919 225.641386 
L 210.170056 218.997342 
L 213.953192 212.116149 
L 217.736329 207.490757 
L 229.085739 210.571251 
L 232.868876 217.054136 
L 236.652012 214.257821 
L 240.435149 215.18841 
L 244.218286 221.262816 
L 255.567696 221.337398 
L 259.350833 228.89138 
L 263.133969 222.810527 
L 266.917106 226.63178 
L 270.700243 224.159783 
L 282.049653 227.126204 
L 285.83279 226.816652 
L 289.615926 226.098045 
L 293.399063 231.129238 
L 297.1822 224.192179 
L 308.53161 220.05258 
L 312.314747 213.541778 
L 316.097883 207.668258 
L 319.88102 206.169731 
L 323.664157 199.909735 
L 335.013567 206.54707 
L 338.796704 211.394909 
L 342.57984 218.764384 
L 346.362977 221.512377 
L 350.146114 223.252433 
L 361.495524 226.86984 
L 365.278661 221.948898 
L 369.061797 224.195265 
L 372.844934 227.657574 
L 376.628071 227.000461 
L 387.977481 232.759737 
L 391.760618 228.224663 
L 395.543754 235.097168 
L 399.326891 227.916028 
L 403.110028 223.81875 
L 414.459438 228.621628 
L 418.242575 236.669158 
L 422.025711 231.940994 
L 425.808848 228.808156 
L 429.591985 225.347267 
L 440.941395 221.264274 
L 444.724532 228.145327 
L 448.507668 230.364452 
L 452.290805 236.542075 
L 456.073942 231.124339 
L 467.423352 229.24175 
L 471.206489 231.900625 
L 474.989625 238.959052 
L 478.772762 241.937179 
L 482.555899 244.687526 
L 493.905309 241.217785 
L 497.688446 239.120405 
L 501.471582 233.356041 
L 505.254719 233.786687 
L 509.037856 239.901968 
L 520.387266 236.674385 
L 524.170402 232.745267 
L 527.953539 231.803918 
L 531.736676 227.725369 
L 535.519813 227.821325 
L 546.869223 227.47076 
L 550.652359 228.598887 
L 554.435496 236.305887 
L 558.218633 242.61719 
L 562.00177 250.221625 
L 573.35118 248.141502 
L 577.134316 251.065455 
L 580.917453 250.933099 
L 584.70059 244.877308 
L 588.483727 248.852791 
L 599.833137 250.250484 
L 603.616273 246.398289 
L 607.39941 250.707974 
L 611.182547 257.539451 
L 614.965684 260.859371 
L 626.315094 266.281398 
L 630.09823 259.909971 
L 633.881367 255.288611 
L 637.664504 253.253738 
L 641.447641 247.715672 
L 652.797051 243.159101 
L 656.580187 248.161999 
L 660.363324 242.32098 
L 664.146461 241.715282 
L 667.929598 237.103826 
L 679.279008 231.212202 
L 683.062144 234.077628 
L 686.845281 240.352705 
L 690.628418 244.676495 
L 694.411554 245.811416 
L 705.760965 241.046138 
L 709.544101 235.662601 
L 713.327238 243.685607 
L 717.110375 243.519674 
L 720.893511 244.806837 
L 732.242922 249.225936 
L 736.026058 255.336681 
L 739.809195 257.888175 
L 743.592332 251.328931 
L 747.375468 254.111003 
L 758.724879 253.821118 
L 762.508015 250.745271 
L 766.291152 252.8823 
L 773.857425 239.07805 
L 785.206836 243.013026 
L 788.989972 243.055565 
L 792.773109 246.196166 
L 796.556246 249.595363 
L 800.339382 257.106775 
L 811.688793 255.431627 
L 815.471929 255.390231 
L 819.255066 262.653488 
L 823.038203 266.15279 
L 826.821339 260.087004 
L 838.170749 264.220982 
L 841.953886 269.914167 
L 845.737023 270.077358 
L 849.52016 262.913636 
L 853.303296 267.006969 
L 864.652706 264.3912 
L 868.435843 260.449823 
L 872.21898 264.615184 
L 876.002117 261.165984 
L 879.785253 263.237044 
L 891.134663 261.218702 
L 894.9178 259.181932 
L 898.700937 258.630965 
L 902.484074 265.238036 
L 906.26721 260.221944 
L 917.61662 263.042846 
L 921.399757 268.046593 
L 925.182894 275.491803 
L 928.966031 274.099571 
L 932.749167 271.402729 
L 944.098577 279.260688 
L 947.881714 279.074002 
L 951.664851 283.421323 
L 955.447988 281.209477 
L 959.231124 286.413871 
L 970.580534 283.517675 
L 974.363671 285.288436 
L 978.146808 278.816984 
L 981.929944 284.632952 
L 985.713081 287.129334 
L 997.062491 293.347074 
L 1000.845628 287.046903 
L 1004.628765 281.424304 
L 1008.411901 285.259173 
L 1012.195038 282.825181 
L 1023.544448 278.071422 
L 1027.327585 277.222909 
L 1031.110722 276.76598 
L 1034.893858 280.862621 
L 1038.676995 287.422349 
L 1050.026405 281.514623 
L 1053.809542 275.561058 
L 1057.592679 273.530736 
L 1061.375815 276.059635 
L 1065.158952 278.426131 
L 1076.508362 275.010354 
L 1084.074636 263.341587 
L 1087.857772 259.132538 
L 1087.857772 259.132538 
" style="fill:none;stroke:#8c564b;stroke-linecap:square;stroke-width:1.5;"/>
   </g>
   <g id="line2d_22">
    <path clip-path="url(#pd78b744d05)" d="M 100.459091 185.826981 
L 104.242228 180.884685 
L 108.025364 175.422425 
L 111.808501 168.948755 
L 123.157911 164.566067 
L 126.941048 166.548491 
L 130.724185 162.769407 
L 134.507321 165.402262 
L 138.290458 165.476788 
L 149.639868 161.513477 
L 153.423005 152.489764 
L 157.206142 154.35843 
L 160.989278 159.538736 
L 164.772415 157.005812 
L 176.121825 158.860594 
L 179.904962 155.343898 
L 183.688099 154.183604 
L 187.471235 146.727829 
L 191.254372 144.587853 
L 202.603782 139.601862 
L 206.386919 137.349516 
L 210.170056 141.632859 
L 217.736329 160.352682 
L 229.085739 151.602807 
L 232.868876 147.031958 
L 236.652012 149.031144 
L 240.435149 153.082547 
L 244.218286 143.923258 
L 255.567696 149.147837 
L 259.350833 139.350828 
L 263.133969 144.085542 
L 266.917106 138.860155 
L 270.700243 136.305351 
L 282.049653 132.555122 
L 285.83279 125.88384 
L 289.615926 124.962603 
L 293.399063 122.192883 
L 297.1822 133.552324 
L 308.53161 137.724393 
L 312.314747 150.403308 
L 316.097883 156.604735 
L 319.88102 156.953071 
L 323.664157 166.01676 
L 335.013567 159.741679 
L 338.796704 158.561983 
L 342.57984 154.68911 
L 346.362977 150.516326 
L 350.146114 149.890999 
L 361.495524 143.76436 
L 365.278661 149.104647 
L 369.061797 146.857699 
L 372.844934 137.466757 
L 376.628071 140.655489 
L 387.977481 136.78096 
L 391.760618 143.902348 
L 395.543754 138.001037 
L 399.326891 145.471629 
L 403.110028 157.118058 
L 414.459438 151.647877 
L 418.242575 143.6111 
L 422.025711 154.850403 
L 425.808848 154.414754 
L 429.591985 161.657325 
L 440.941395 159.972549 
L 444.724532 149.36422 
L 448.507668 150.70931 
L 452.290805 147.046093 
L 456.073942 147.453958 
L 467.423352 147.256803 
L 471.206489 144.868072 
L 474.989625 138.601857 
L 478.772762 136.610942 
L 482.555899 137.837637 
L 493.905309 138.546722 
L 497.688446 135.668133 
L 501.471582 142.201701 
L 505.254719 143.182602 
L 509.037856 142.7874 
L 520.387266 145.577147 
L 524.170402 149.599186 
L 527.953539 149.80408 
L 531.736676 149.831191 
L 535.519813 144.214212 
L 546.869223 145.223933 
L 550.652359 144.823321 
L 554.435496 137.645562 
L 558.218633 132.083491 
L 562.00177 123.056656 
L 573.35118 122.524805 
L 577.134316 118.881946 
L 584.70059 125.002701 
L 588.483727 119.258152 
L 599.833137 117.820196 
L 603.616273 120.517307 
L 611.182547 105.563719 
L 614.965684 103.014805 
L 626.315094 92.887847 
L 630.09823 102.346449 
L 633.881367 106.123825 
L 637.664504 107.531851 
L 641.447641 115.176199 
L 652.797051 114.129884 
L 656.580187 109.930593 
L 660.363324 109.905065 
L 667.929598 119.795529 
L 679.279008 123.363784 
L 683.062144 122.390672 
L 686.845281 122.949253 
L 690.628418 116.496838 
L 694.411554 110.936268 
L 705.760965 111.743795 
L 709.544101 114.577394 
L 713.327238 111.930012 
L 717.110375 111.070827 
L 720.893511 104.883062 
L 732.242922 95.268849 
L 736.026058 89.781815 
L 739.809195 91.050073 
L 743.592332 97.120243 
L 747.375468 91.185864 
L 758.724879 88.167401 
L 762.508015 95.502302 
L 766.291152 97.704857 
L 770.074289 100.130871 
L 773.857425 104.402742 
L 785.206836 104.795769 
L 788.989972 106.06912 
L 792.773109 100.243056 
L 796.556246 97.595597 
L 800.339382 88.879472 
L 811.688793 87.299076 
L 815.471929 86.645031 
L 819.255066 80.087142 
L 823.038203 77.617811 
L 826.821339 76.874955 
L 838.170749 72.298547 
L 841.953886 65.464817 
L 845.737023 63.272999 
L 849.52016 72.584694 
L 853.303296 68.711256 
L 864.652706 72.209805 
L 868.435843 79.299251 
L 872.21898 68.982724 
L 876.002117 72.017316 
L 879.785253 65.678672 
L 891.134663 73.570352 
L 894.9178 70.860689 
L 898.700937 67.818561 
L 902.484074 62.6472 
L 906.26721 62.999234 
L 917.61662 66.049805 
L 921.399757 65.434858 
L 925.182894 56.62747 
L 928.966031 56.983735 
L 932.749167 57.832152 
L 944.098577 50.671943 
L 947.881714 53.438742 
L 951.664851 50.565484 
L 955.447988 57.235101 
L 959.231124 52.283916 
L 970.580534 55.003927 
L 974.363671 53.458076 
L 978.146808 61.921746 
L 981.929944 56.03734 
L 985.713081 50.366881 
L 997.062491 40.455455 
L 1000.845628 50.781815 
L 1004.628765 56.498246 
L 1008.411901 55.160686 
L 1012.195038 57.244403 
L 1023.544448 58.326289 
L 1027.327585 60.292555 
L 1031.110722 61.789951 
L 1034.893858 60.251814 
L 1038.676995 50.085667 
L 1050.026405 61.704665 
L 1053.809542 64.547108 
L 1057.592679 68.697503 
L 1061.375815 63.143021 
L 1065.158952 64.448708 
L 1076.508362 65.392743 
L 1080.291499 72.153241 
L 1084.074636 74.637308 
L 1087.857772 77.696887 
L 1087.857772 77.696887 
" style="fill:none;stroke:#e377c2;stroke-linecap:square;stroke-width:1.5;"/>
   </g>
   <g id="line2d_23">
    <path clip-path="url(#pd78b744d05)" d="M 100.459091 171.982395 
L 104.242228 176.595429 
L 108.025364 182.476068 
L 111.808501 186.003641 
L 123.157911 182.799484 
L 126.941048 177.705753 
L 130.724185 177.587914 
L 134.507321 178.159561 
L 138.290458 180.921298 
L 149.639868 187.972906 
L 153.423005 194.721674 
L 157.206142 196.597574 
L 160.989278 197.651704 
L 164.772415 192.107894 
L 176.121825 195.073881 
L 179.904962 201.374967 
L 183.688099 204.668018 
L 187.471235 212.695921 
L 191.254372 204.739177 
L 202.603782 206.057119 
L 206.386919 213.074707 
L 210.170056 205.897169 
L 213.953192 196.083507 
L 217.736329 189.797226 
L 229.085739 194.468274 
L 232.868876 204.788526 
L 236.652012 205.144021 
L 240.435149 207.222034 
L 244.218286 215.226458 
L 255.567696 209.341695 
L 259.350833 220.403504 
L 263.133969 213.048014 
L 266.917106 223.032839 
L 270.700243 220.382009 
L 282.049653 222.020095 
L 285.83279 224.392297 
L 289.615926 220.432949 
L 293.399063 227.803783 
L 297.1822 223.957289 
L 308.53161 222.06889 
L 312.314747 213.609364 
L 316.097883 204.195543 
L 319.88102 206.739784 
L 323.664157 201.956456 
L 335.013567 211.920202 
L 338.796704 219.300657 
L 342.57984 224.691945 
L 346.362977 226.02963 
L 350.146114 225.319202 
L 361.495524 225.685305 
L 365.278661 221.855448 
L 369.061797 220.906868 
L 372.844934 226.178242 
L 376.628071 222.970518 
L 387.977481 226.25316 
L 391.760618 218.02092 
L 395.543754 225.912755 
L 399.326891 220.787057 
L 403.110028 212.982251 
L 414.459438 214.525178 
L 418.242575 226.442429 
L 422.025711 220.08417 
L 425.808848 216.421482 
L 429.591985 210.619249 
L 440.941395 213.13461 
L 444.724532 220.914765 
L 448.507668 218.929496 
L 452.290805 224.628058 
L 456.073942 219.705746 
L 467.423352 213.432563 
L 471.206489 213.246753 
L 474.989625 224.985506 
L 478.772762 224.570889 
L 482.555899 226.755911 
L 493.905309 222.65211 
L 497.688446 219.22296 
L 501.471582 216.357116 
L 505.254719 217.503053 
L 509.037856 225.169455 
L 520.387266 221.914583 
L 524.170402 222.048495 
L 527.953539 221.48203 
L 531.736676 215.725527 
L 535.519813 212.065758 
L 546.869223 209.15567 
L 550.652359 212.286439 
L 554.435496 224.442746 
L 558.218633 226.411199 
L 562.00177 236.577545 
L 573.35118 232.59701 
L 577.134316 240.437767 
L 580.917453 247.663443 
L 584.70059 244.217452 
L 588.483727 246.000198 
L 599.833137 240.024784 
L 603.616273 232.307574 
L 607.39941 237.683289 
L 611.182547 250.2421 
L 614.965684 254.873114 
L 626.315094 258.047306 
L 630.09823 255.72823 
L 633.881367 251.251862 
L 637.664504 244.920949 
L 641.447641 235.150431 
L 652.797051 232.864079 
L 656.580187 235.486797 
L 660.363324 232.747753 
L 664.146461 235.700619 
L 667.929598 230.394476 
L 679.279008 224.341068 
L 683.062144 231.197825 
L 686.845281 235.144277 
L 690.628418 244.166496 
L 694.411554 243.833709 
L 705.760965 241.157141 
L 709.544101 239.937542 
L 713.327238 241.0341 
L 717.110375 244.930198 
L 720.893511 246.577552 
L 732.242922 250.015292 
L 736.026058 255.891367 
L 739.809195 256.064722 
L 743.592332 250.629302 
L 747.375468 254.246412 
L 758.724879 255.896916 
L 762.508015 249.908823 
L 766.291152 253.27137 
L 770.074289 246.909957 
L 773.857425 238.709145 
L 785.206836 241.000723 
L 788.989972 236.58383 
L 792.773109 235.013304 
L 796.556246 237.039052 
L 800.339382 248.206689 
L 811.688793 252.114928 
L 815.471929 256.53223 
L 819.255066 266.526802 
L 823.038203 275.024239 
L 826.821339 270.884579 
L 838.170749 273.399072 
L 841.953886 284.402177 
L 845.737023 284.805129 
L 849.52016 277.132414 
L 853.303296 285.231198 
L 864.652706 284.37194 
L 868.435843 281.347481 
L 872.21898 292.403935 
L 876.002117 290.071538 
L 879.785253 293.835532 
L 891.134663 292.403805 
L 894.9178 288.951347 
L 898.700937 283.230121 
L 902.484074 286.803598 
L 906.26721 280.119995 
L 917.61662 282.825039 
L 921.399757 289.628731 
L 925.182894 294.710273 
L 928.966031 294.645494 
L 932.749167 292.556315 
L 944.098577 302.135627 
L 947.881714 302.802591 
L 951.664851 302.031755 
L 955.447988 304.465881 
L 959.231124 307.544199 
L 970.580534 308.989609 
L 974.363671 312.914739 
L 978.146808 303.966291 
L 981.929944 313.678217 
L 985.713081 312.483502 
L 997.062491 321.495828 
L 1000.845628 316.361802 
L 1004.628765 309.422515 
L 1008.411901 318.800445 
L 1012.195038 312.222931 
L 1023.544448 307.382221 
L 1027.327585 310.427547 
L 1031.110722 311.624916 
L 1034.893858 319.515216 
L 1038.676995 331.164545 
L 1050.026405 323.74895 
L 1053.809542 316.169916 
L 1057.592679 310.341823 
L 1061.375815 313.926635 
L 1065.158952 318.170011 
L 1076.508362 320.663397 
L 1080.291499 311.113636 
L 1084.074636 305.821455 
L 1087.857772 301.839112 
L 1087.857772 301.839112 
" style="fill:none;stroke:#7f7f7f;stroke-linecap:square;stroke-width:1.5;"/>
   </g>
   <g id="line2d_24">
    <path clip-path="url(#pd78b744d05)" d="M 100.459091 175.481194 
L 104.242228 174.85801 
L 108.025364 174.860546 
L 111.808501 171.624961 
L 123.157911 164.211354 
L 126.941048 160.972064 
L 130.724185 157.080761 
L 134.507321 160.30515 
L 138.290458 163.144126 
L 149.639868 165.864194 
L 153.423005 162.815931 
L 157.206142 166.606985 
L 160.989278 172.91504 
L 164.772415 165.010996 
L 176.121825 169.905246 
L 179.904962 172.398134 
L 183.688099 174.480774 
L 187.471235 174.278761 
L 191.254372 164.388813 
L 202.603782 160.637756 
L 206.386919 165.192273 
L 210.170056 161.90843 
L 213.953192 160.201924 
L 217.736329 162.581141 
L 229.085739 157.98858 
L 232.868876 163.106468 
L 236.652012 165.470487 
L 240.435149 171.71335 
L 244.218286 169.62159 
L 255.567696 168.566102 
L 259.350833 168.42771 
L 263.133969 165.364895 
L 266.917106 169.430593 
L 270.700243 164.309745 
L 282.049653 162.119218 
L 285.83279 157.621161 
L 289.615926 152.786326 
L 293.399063 157.115649 
L 297.1822 164.036715 
L 308.53161 166.216974 
L 312.314747 169.020783 
L 316.097883 165.071377 
L 319.88102 167.975641 
L 323.664157 171.680966 
L 335.013567 174.544664 
L 338.796704 180.62819 
L 342.57984 181.874153 
L 346.362977 178.968161 
L 350.146114 177.638105 
L 361.495524 171.849604 
L 365.278661 173.093163 
L 369.061797 169.924657 
L 372.844934 165.183374 
L 376.628071 165.032135 
L 387.977481 164.276443 
L 391.760618 162.415454 
L 395.543754 163.797515 
L 399.326891 165.640684 
L 403.110028 168.284177 
L 414.459438 164.250498 
L 418.242575 166.868661 
L 422.025711 170.800069 
L 425.808848 166.721843 
L 429.591985 167.61493 
L 440.941395 168.390399 
L 444.724532 164.519404 
L 448.507668 163.844818 
L 452.290805 165.606859 
L 456.073942 161.06718 
L 467.423352 154.612196 
L 471.206489 152.043304 
L 474.989625 156.534745 
L 478.772762 154.139731 
L 482.555899 157.586915 
L 493.905309 154.155367 
L 497.688446 147.970366 
L 501.471582 151.390292 
L 505.254719 153.531878 
L 509.037856 160.761979 
L 520.387266 160.179784 
L 524.170402 164.342895 
L 527.953539 163.979826 
L 531.736676 158.248487 
L 535.519813 149.222733 
L 546.869223 147.284815 
L 550.652359 149.998454 
L 554.435496 153.818082 
L 558.218633 150.086135 
L 562.00177 150.037011 
L 573.35118 145.551239 
L 577.134316 149.370095 
L 580.917453 159.994331 
L 584.70059 159.445318 
L 588.483727 155.354426 
L 599.833137 148.047134 
L 603.616273 142.766627 
L 607.39941 140.190808 
L 611.182547 143.985258 
L 614.965684 145.912668 
L 626.315094 138.562956 
L 630.09823 145.405599 
L 633.881367 144.489048 
L 637.664504 139.454477 
L 641.447641 136.379861 
L 652.797051 133.077498 
L 656.580187 131.35996 
L 660.363324 128.596277 
L 664.146461 136.714147 
L 667.929598 135.996711 
L 679.279008 133.236908 
L 683.062144 139.030884 
L 686.845281 143.565294 
L 690.628418 145.372292 
L 694.411554 139.501992 
L 705.760965 137.605323 
L 709.544101 139.174145 
L 713.327238 137.586138 
L 717.110375 140.578883 
L 720.893511 135.910459 
L 732.242922 129.323852 
L 736.026058 129.295571 
L 739.809195 130.740055 
L 743.592332 130.947098 
L 747.375468 128.356596 
L 758.724879 126.924759 
L 762.508015 127.700007 
L 766.291152 133.364532 
L 770.074289 129.234636 
L 773.857425 124.86475 
L 785.206836 127.561214 
L 788.989972 124.346383 
L 792.773109 117.062771 
L 796.556246 116.371967 
L 800.339382 117.552508 
L 811.688793 119.799247 
L 815.471929 123.524202 
L 819.255066 126.097667 
L 823.038203 131.843817 
L 826.821339 126.99987 
L 838.170749 124.791137 
L 841.953886 127.966183 
L 845.737023 126.16602 
L 849.52016 126.875306 
L 853.303296 130.684365 
L 864.652706 133.284093 
L 868.435843 137.064639 
L 872.21898 136.333233 
L 876.002117 136.943469 
L 879.785253 134.065672 
L 891.134663 140.373261 
L 894.9178 134.327567 
L 898.700937 125.777368 
L 902.484074 123.943115 
L 906.26721 117.582319 
L 917.61662 123.448857 
L 921.399757 129.581253 
L 925.182894 125.291727 
L 928.966031 125.582914 
L 932.749167 124.319401 
L 944.098577 125.841287 
L 947.881714 129.29947 
L 951.664851 125.683375 
L 955.447988 135.010338 
L 959.231124 132.942825 
L 970.580534 137.16053 
L 974.363671 139.460108 
L 978.146808 138.003476 
L 981.929944 141.075972 
L 985.713081 134.294717 
L 997.062491 132.253507 
L 1000.845628 136.73897 
L 1004.628765 135.008246 
L 1008.411901 142.877719 
L 1012.195038 138.211789 
L 1023.544448 134.386842 
L 1027.327585 139.47852 
L 1031.110722 142.196897 
L 1034.893858 148.385527 
L 1038.676995 148.334232 
L 1050.026405 151.398885 
L 1053.809542 146.392292 
L 1057.592679 144.40548 
L 1061.375815 142.181758 
L 1065.158952 147.805182 
L 1076.508362 151.273753 
L 1080.291499 147.667567 
L 1084.074636 144.692546 
L 1087.857772 143.613189 
L 1091.640909 143.613189 
L 1091.640909 143.613189 
" style="fill:none;stroke:#bcbd22;stroke-linecap:square;stroke-width:1.5;"/>
   </g>
   <g id="patch_3">
    <path d="M 50.9 345.7 
L 50.9 25.92 
" style="fill:none;stroke:#000000;stroke-linecap:square;stroke-linejoin:miter;stroke-width:0.8;"/>
   </g>
   <g id="patch_4">
    <path d="M 1141.2 345.7 
L 1141.2 25.92 
" style="fill:none;stroke:#000000;stroke-linecap:square;stroke-linejoin:miter;stroke-width:0.8;"/>
   </g>
   <g id="patch_5">
    <path d="M 50.9 345.7 
L 1141.2 345.7 
" style="fill:none;stroke:#000000;stroke-linecap:square;stroke-linejoin:miter;stroke-width:0.8;"/>
   </g>
   <g id="patch_6">
    <path d="M 50.9 25.92 
L 1141.2 25.92 
" style="fill:none;stroke:#000000;stroke-linecap:square;stroke-linejoin:miter;stroke-width:0.8;"/>
   </g>
   <g id="text_11">
    <!-- Cumulative Log Return: (2010-01-19 ~ 2010-10-08) -->
    <g transform="translate(440.172812 19.92)scale(0.12 -0.12)">
     <defs>
      <path d="M 64.40625 67.28125 
L 64.40625 56.890625 
Q 59.421875 61.53125 53.78125 63.8125 
Q 48.140625 66.109375 41.796875 66.109375 
Q 29.296875 66.109375 22.65625 58.46875 
Q 16.015625 50.828125 16.015625 36.375 
Q 16.015625 21.96875 22.65625 14.328125 
Q 29.296875 6.6875 41.796875 6.6875 
Q 48.140625 6.6875 53.78125 8.984375 
Q 59.421875 11.28125 64.40625 15.921875 
L 64.40625 5.609375 
Q 59.234375 2.09375 53.4375 0.328125 
Q 47.65625 -1.421875 41.21875 -1.421875 
Q 24.65625 -1.421875 15.125 8.703125 
Q 5.609375 18.84375 5.609375 36.375 
Q 5.609375 53.953125 15.125 64.078125 
Q 24.65625 74.21875 41.21875 74.21875 
Q 47.75 74.21875 53.53125 72.484375 
Q 59.328125 70.75 64.40625 67.28125 
z
" id="DejaVuSans-67"/>
      <path d="M 34.28125 27.484375 
Q 23.390625 27.484375 19.1875 25 
Q 14.984375 22.515625 14.984375 16.5 
Q 14.984375 11.71875 18.140625 8.90625 
Q 21.296875 6.109375 26.703125 6.109375 
Q 34.1875 6.109375 38.703125 11.40625 
Q 43.21875 16.703125 43.21875 25.484375 
L 43.21875 27.484375 
z
M 52.203125 31.203125 
L 52.203125 0 
L 43.21875 0 
L 43.21875 8.296875 
Q 40.140625 3.328125 35.546875 0.953125 
Q 30.953125 -1.421875 24.3125 -1.421875 
Q 15.921875 -1.421875 10.953125 3.296875 
Q 6 8.015625 6 15.921875 
Q 6 25.140625 12.171875 29.828125 
Q 18.359375 34.515625 30.609375 34.515625 
L 43.21875 34.515625 
L 43.21875 35.40625 
Q 43.21875 41.609375 39.140625 45 
Q 35.0625 48.390625 27.6875 48.390625 
Q 23 48.390625 18.546875 47.265625 
Q 14.109375 46.140625 10.015625 43.890625 
L 10.015625 52.203125 
Q 14.9375 54.109375 19.578125 55.046875 
Q 24.21875 56 28.609375 56 
Q 40.484375 56 46.34375 49.84375 
Q 52.203125 43.703125 52.203125 31.203125 
z
" id="DejaVuSans-97"/>
      <path d="M 9.421875 54.6875 
L 18.40625 54.6875 
L 18.40625 0 
L 9.421875 0 
z
M 9.421875 75.984375 
L 18.40625 75.984375 
L 18.40625 64.59375 
L 9.421875 64.59375 
z
" id="DejaVuSans-105"/>
      <path d="M 2.984375 54.6875 
L 12.5 54.6875 
L 29.59375 8.796875 
L 46.6875 54.6875 
L 56.203125 54.6875 
L 35.6875 0 
L 23.484375 0 
z
" id="DejaVuSans-118"/>
      <path d="M 9.8125 72.90625 
L 19.671875 72.90625 
L 19.671875 8.296875 
L 55.171875 8.296875 
L 55.171875 0 
L 9.8125 0 
z
" id="DejaVuSans-76"/>
      <path d="M 44.390625 34.1875 
Q 47.5625 33.109375 50.5625 29.59375 
Q 53.5625 26.078125 56.59375 19.921875 
L 66.609375 0 
L 56 0 
L 46.6875 18.703125 
Q 43.0625 26.03125 39.671875 28.421875 
Q 36.28125 30.8125 30.421875 30.8125 
L 19.671875 30.8125 
L 19.671875 0 
L 9.8125 0 
L 9.8125 72.90625 
L 32.078125 72.90625 
Q 44.578125 72.90625 50.734375 67.671875 
Q 56.890625 62.453125 56.890625 51.90625 
Q 56.890625 45.015625 53.6875 40.46875 
Q 50.484375 35.9375 44.390625 34.1875 
z
M 19.671875 64.796875 
L 19.671875 38.921875 
L 32.078125 38.921875 
Q 39.203125 38.921875 42.84375 42.21875 
Q 46.484375 45.515625 46.484375 51.90625 
Q 46.484375 58.296875 42.84375 61.546875 
Q 39.203125 64.796875 32.078125 64.796875 
z
" id="DejaVuSans-82"/>
      <path d="M 11.71875 12.40625 
L 22.015625 12.40625 
L 22.015625 0 
L 11.71875 0 
z
M 11.71875 51.703125 
L 22.015625 51.703125 
L 22.015625 39.3125 
L 11.71875 39.3125 
z
" id="DejaVuSans-58"/>
      <path d="M 31 75.875 
Q 24.46875 64.65625 21.28125 53.65625 
Q 18.109375 42.671875 18.109375 31.390625 
Q 18.109375 20.125 21.3125 9.0625 
Q 24.515625 -2 31 -13.1875 
L 23.1875 -13.1875 
Q 15.875 -1.703125 12.234375 9.375 
Q 8.59375 20.453125 8.59375 31.390625 
Q 8.59375 42.28125 12.203125 53.3125 
Q 15.828125 64.359375 23.1875 75.875 
z
" id="DejaVuSans-40"/>
      <path d="M 10.984375 1.515625 
L 10.984375 10.5 
Q 14.703125 8.734375 18.5 7.8125 
Q 22.3125 6.890625 25.984375 6.890625 
Q 35.75 6.890625 40.890625 13.453125 
Q 46.046875 20.015625 46.78125 33.40625 
Q 43.953125 29.203125 39.59375 26.953125 
Q 35.25 24.703125 29.984375 24.703125 
Q 19.046875 24.703125 12.671875 31.3125 
Q 6.296875 37.9375 6.296875 49.421875 
Q 6.296875 60.640625 12.9375 67.421875 
Q 19.578125 74.21875 30.609375 74.21875 
Q 43.265625 74.21875 49.921875 64.515625 
Q 56.59375 54.828125 56.59375 36.375 
Q 56.59375 19.140625 48.40625 8.859375 
Q 40.234375 -1.421875 26.421875 -1.421875 
Q 22.703125 -1.421875 18.890625 -0.6875 
Q 15.09375 0.046875 10.984375 1.515625 
z
M 30.609375 32.421875 
Q 37.25 32.421875 41.125 36.953125 
Q 45.015625 41.5 45.015625 49.421875 
Q 45.015625 57.28125 41.125 61.84375 
Q 37.25 66.40625 30.609375 66.40625 
Q 23.96875 66.40625 20.09375 61.84375 
Q 16.21875 57.28125 16.21875 49.421875 
Q 16.21875 41.5 20.09375 36.953125 
Q 23.96875 32.421875 30.609375 32.421875 
z
" id="DejaVuSans-57"/>
      <path d="M 73.1875 39.890625 
L 73.1875 31.203125 
Q 68.0625 27.34375 63.6875 25.6875 
Q 59.328125 24.03125 54.59375 24.03125 
Q 49.21875 24.03125 42.09375 26.90625 
Q 41.546875 27.09375 41.3125 27.203125 
Q 40.96875 27.34375 40.234375 27.59375 
Q 32.671875 30.609375 28.078125 30.609375 
Q 23.78125 30.609375 19.578125 28.734375 
Q 15.375 26.859375 10.59375 22.796875 
L 10.59375 31.5 
Q 15.71875 35.359375 20.09375 37.03125 
Q 24.46875 38.71875 29.203125 38.71875 
Q 34.578125 38.71875 41.75 35.796875 
Q 42.234375 35.59375 42.484375 35.5 
Q 42.875 35.359375 43.5625 35.109375 
Q 51.125 32.078125 55.71875 32.078125 
Q 59.90625 32.078125 64.03125 33.9375 
Q 68.171875 35.796875 73.1875 39.890625 
z
" id="DejaVuSans-126"/>
      <path d="M 31.78125 34.625 
Q 24.75 34.625 20.71875 30.859375 
Q 16.703125 27.09375 16.703125 20.515625 
Q 16.703125 13.921875 20.71875 10.15625 
Q 24.75 6.390625 31.78125 6.390625 
Q 38.8125 6.390625 42.859375 10.171875 
Q 46.921875 13.96875 46.921875 20.515625 
Q 46.921875 27.09375 42.890625 30.859375 
Q 38.875 34.625 31.78125 34.625 
z
M 21.921875 38.8125 
Q 15.578125 40.375 12.03125 44.71875 
Q 8.5 49.078125 8.5 55.328125 
Q 8.5 64.0625 14.71875 69.140625 
Q 20.953125 74.21875 31.78125 74.21875 
Q 42.671875 74.21875 48.875 69.140625 
Q 55.078125 64.0625 55.078125 55.328125 
Q 55.078125 49.078125 51.53125 44.71875 
Q 48 40.375 41.703125 38.8125 
Q 48.828125 37.15625 52.796875 32.3125 
Q 56.78125 27.484375 56.78125 20.515625 
Q 56.78125 9.90625 50.3125 4.234375 
Q 43.84375 -1.421875 31.78125 -1.421875 
Q 19.734375 -1.421875 13.25 4.234375 
Q 6.78125 9.90625 6.78125 20.515625 
Q 6.78125 27.484375 10.78125 32.3125 
Q 14.796875 37.15625 21.921875 38.8125 
z
M 18.3125 54.390625 
Q 18.3125 48.734375 21.84375 45.5625 
Q 25.390625 42.390625 31.78125 42.390625 
Q 38.140625 42.390625 41.71875 45.5625 
Q 45.3125 48.734375 45.3125 54.390625 
Q 45.3125 60.0625 41.71875 63.234375 
Q 38.140625 66.40625 31.78125 66.40625 
Q 25.390625 66.40625 21.84375 63.234375 
Q 18.3125 60.0625 18.3125 54.390625 
z
" id="DejaVuSans-56"/>
      <path d="M 8.015625 75.875 
L 15.828125 75.875 
Q 23.140625 64.359375 26.78125 53.3125 
Q 30.421875 42.28125 30.421875 31.390625 
Q 30.421875 20.453125 26.78125 9.375 
Q 23.140625 -1.703125 15.828125 -13.1875 
L 8.015625 -13.1875 
Q 14.5 -2 17.703125 9.0625 
Q 20.90625 20.125 20.90625 31.390625 
Q 20.90625 42.671875 17.703125 53.65625 
Q 14.5 64.65625 8.015625 75.875 
z
" id="DejaVuSans-41"/>
     </defs>
     <use xlink:href="#DejaVuSans-67"/>
     <use x="69.824219" xlink:href="#DejaVuSans-117"/>
     <use x="133.203125" xlink:href="#DejaVuSans-109"/>
     <use x="230.615234" xlink:href="#DejaVuSans-117"/>
     <use x="293.994141" xlink:href="#DejaVuSans-108"/>
     <use x="321.777344" xlink:href="#DejaVuSans-97"/>
     <use x="383.056641" xlink:href="#DejaVuSans-116"/>
     <use x="422.265625" xlink:href="#DejaVuSans-105"/>
     <use x="450.048828" xlink:href="#DejaVuSans-118"/>
     <use x="509.228516" xlink:href="#DejaVuSans-101"/>
     <use x="570.751953" xlink:href="#DejaVuSans-32"/>
     <use x="602.539062" xlink:href="#DejaVuSans-76"/>
     <use x="656.501953" xlink:href="#DejaVuSans-111"/>
     <use x="717.683594" xlink:href="#DejaVuSans-103"/>
     <use x="781.160156" xlink:href="#DejaVuSans-32"/>
     <use x="812.947266" xlink:href="#DejaVuSans-82"/>
     <use x="877.929688" xlink:href="#DejaVuSans-101"/>
     <use x="939.453125" xlink:href="#DejaVuSans-116"/>
     <use x="978.662109" xlink:href="#DejaVuSans-117"/>
     <use x="1042.041016" xlink:href="#DejaVuSans-114"/>
     <use x="1081.404297" xlink:href="#DejaVuSans-110"/>
     <use x="1144.783203" xlink:href="#DejaVuSans-58"/>
     <use x="1178.474609" xlink:href="#DejaVuSans-32"/>
     <use x="1210.261719" xlink:href="#DejaVuSans-40"/>
     <use x="1249.275391" xlink:href="#DejaVuSans-50"/>
     <use x="1312.898438" xlink:href="#DejaVuSans-48"/>
     <use x="1376.521484" xlink:href="#DejaVuSans-49"/>
     <use x="1440.144531" xlink:href="#DejaVuSans-48"/>
     <use x="1503.767578" xlink:href="#DejaVuSans-45"/>
     <use x="1539.851562" xlink:href="#DejaVuSans-48"/>
     <use x="1603.474609" xlink:href="#DejaVuSans-49"/>
     <use x="1667.097656" xlink:href="#DejaVuSans-45"/>
     <use x="1703.181641" xlink:href="#DejaVuSans-49"/>
     <use x="1766.804688" xlink:href="#DejaVuSans-57"/>
     <use x="1830.427734" xlink:href="#DejaVuSans-32"/>
     <use x="1862.214844" xlink:href="#DejaVuSans-126"/>
     <use x="1946.003906" xlink:href="#DejaVuSans-32"/>
     <use x="1977.791016" xlink:href="#DejaVuSans-50"/>
     <use x="2041.414062" xlink:href="#DejaVuSans-48"/>
     <use x="2105.037109" xlink:href="#DejaVuSans-49"/>
     <use x="2168.660156" xlink:href="#DejaVuSans-48"/>
     <use x="2232.283203" xlink:href="#DejaVuSans-45"/>
     <use x="2268.367188" xlink:href="#DejaVuSans-49"/>
     <use x="2331.990234" xlink:href="#DejaVuSans-48"/>
     <use x="2395.613281" xlink:href="#DejaVuSans-45"/>
     <use x="2431.697266" xlink:href="#DejaVuSans-48"/>
     <use x="2495.320312" xlink:href="#DejaVuSans-56"/>
     <use x="2558.943359" xlink:href="#DejaVuSans-41"/>
    </g>
   </g>
   <g id="legend_1">
    <g id="patch_7">
     <path d="M 57.9 123.379375 
L 154.389062 123.379375 
Q 156.389062 123.379375 156.389062 121.379375 
L 156.389062 32.92 
Q 156.389062 30.92 154.389062 30.92 
L 57.9 30.92 
Q 55.9 30.92 55.9 32.92 
L 55.9 121.379375 
Q 55.9 123.379375 57.9 123.379375 
z
" style="fill:#ffffff;opacity:0.8;stroke:#cccccc;stroke-linejoin:miter;"/>
    </g>
    <g id="line2d_25">
     <path d="M 59.9 39.018438 
L 79.9 39.018438 
" style="fill:none;stroke:#9467bd;stroke-linecap:square;stroke-width:1.5;"/>
    </g>
    <g id="line2d_26"/>
    <g id="text_12">
     <!-- group_5 -->
     <g transform="translate(87.9 42.518438)scale(0.1 -0.1)">
      <defs>
       <path d="M 18.109375 8.203125 
L 18.109375 -20.796875 
L 9.078125 -20.796875 
L 9.078125 54.6875 
L 18.109375 54.6875 
L 18.109375 46.390625 
Q 20.953125 51.265625 25.265625 53.625 
Q 29.59375 56 35.59375 56 
Q 45.5625 56 51.78125 48.09375 
Q 58.015625 40.1875 58.015625 27.296875 
Q 58.015625 14.40625 51.78125 6.484375 
Q 45.5625 -1.421875 35.59375 -1.421875 
Q 29.59375 -1.421875 25.265625 0.953125 
Q 20.953125 3.328125 18.109375 8.203125 
z
M 48.6875 27.296875 
Q 48.6875 37.203125 44.609375 42.84375 
Q 40.53125 48.484375 33.40625 48.484375 
Q 26.265625 48.484375 22.1875 42.84375 
Q 18.109375 37.203125 18.109375 27.296875 
Q 18.109375 17.390625 22.1875 11.75 
Q 26.265625 6.109375 33.40625 6.109375 
Q 40.53125 6.109375 44.609375 11.75 
Q 48.6875 17.390625 48.6875 27.296875 
z
" id="DejaVuSans-112"/>
       <path d="M 50.984375 -16.609375 
L 50.984375 -23.578125 
L -0.984375 -23.578125 
L -0.984375 -16.609375 
z
" id="DejaVuSans-95"/>
      </defs>
      <use xlink:href="#DejaVuSans-103"/>
      <use x="63.476562" xlink:href="#DejaVuSans-114"/>
      <use x="102.339844" xlink:href="#DejaVuSans-111"/>
      <use x="163.521484" xlink:href="#DejaVuSans-117"/>
      <use x="226.900391" xlink:href="#DejaVuSans-112"/>
      <use x="290.376953" xlink:href="#DejaVuSans-95"/>
      <use x="340.376953" xlink:href="#DejaVuSans-53"/>
     </g>
    </g>
    <g id="line2d_27">
     <path d="M 59.9 53.974688 
L 79.9 53.974688 
" style="fill:none;stroke:#1f77b4;stroke-linecap:square;stroke-width:1.5;"/>
    </g>
    <g id="line2d_28"/>
    <g id="text_13">
     <!-- group_1 -->
     <g transform="translate(87.9 57.474688)scale(0.1 -0.1)">
      <use xlink:href="#DejaVuSans-103"/>
      <use x="63.476562" xlink:href="#DejaVuSans-114"/>
      <use x="102.339844" xlink:href="#DejaVuSans-111"/>
      <use x="163.521484" xlink:href="#DejaVuSans-117"/>
      <use x="226.900391" xlink:href="#DejaVuSans-112"/>
      <use x="290.376953" xlink:href="#DejaVuSans-95"/>
      <use x="340.376953" xlink:href="#DejaVuSans-49"/>
     </g>
    </g>
    <g id="line2d_29">
     <path d="M 59.9 68.930938 
L 79.9 68.930938 
" style="fill:none;stroke:#8c564b;stroke-linecap:square;stroke-width:1.5;"/>
    </g>
    <g id="line2d_30"/>
    <g id="text_14">
     <!-- benchmark -->
     <g transform="translate(87.9 72.430938)scale(0.1 -0.1)">
      <defs>
       <path d="M 48.6875 27.296875 
Q 48.6875 37.203125 44.609375 42.84375 
Q 40.53125 48.484375 33.40625 48.484375 
Q 26.265625 48.484375 22.1875 42.84375 
Q 18.109375 37.203125 18.109375 27.296875 
Q 18.109375 17.390625 22.1875 11.75 
Q 26.265625 6.109375 33.40625 6.109375 
Q 40.53125 6.109375 44.609375 11.75 
Q 48.6875 17.390625 48.6875 27.296875 
z
M 18.109375 46.390625 
Q 20.953125 51.265625 25.265625 53.625 
Q 29.59375 56 35.59375 56 
Q 45.5625 56 51.78125 48.09375 
Q 58.015625 40.1875 58.015625 27.296875 
Q 58.015625 14.40625 51.78125 6.484375 
Q 45.5625 -1.421875 35.59375 -1.421875 
Q 29.59375 -1.421875 25.265625 0.953125 
Q 20.953125 3.328125 18.109375 8.203125 
L 18.109375 0 
L 9.078125 0 
L 9.078125 75.984375 
L 18.109375 75.984375 
z
" id="DejaVuSans-98"/>
       <path d="M 54.890625 33.015625 
L 54.890625 0 
L 45.90625 0 
L 45.90625 32.71875 
Q 45.90625 40.484375 42.875 44.328125 
Q 39.84375 48.1875 33.796875 48.1875 
Q 26.515625 48.1875 22.3125 43.546875 
Q 18.109375 38.921875 18.109375 30.90625 
L 18.109375 0 
L 9.078125 0 
L 9.078125 75.984375 
L 18.109375 75.984375 
L 18.109375 46.1875 
Q 21.34375 51.125 25.703125 53.5625 
Q 30.078125 56 35.796875 56 
Q 45.21875 56 50.046875 50.171875 
Q 54.890625 44.34375 54.890625 33.015625 
z
" id="DejaVuSans-104"/>
       <path d="M 9.078125 75.984375 
L 18.109375 75.984375 
L 18.109375 31.109375 
L 44.921875 54.6875 
L 56.390625 54.6875 
L 27.390625 29.109375 
L 57.625 0 
L 45.90625 0 
L 18.109375 26.703125 
L 18.109375 0 
L 9.078125 0 
z
" id="DejaVuSans-107"/>
      </defs>
      <use xlink:href="#DejaVuSans-98"/>
      <use x="63.476562" xlink:href="#DejaVuSans-101"/>
      <use x="125" xlink:href="#DejaVuSans-110"/>
      <use x="188.378906" xlink:href="#DejaVuSans-99"/>
      <use x="243.359375" xlink:href="#DejaVuSans-104"/>
      <use x="306.738281" xlink:href="#DejaVuSans-109"/>
      <use x="404.150391" xlink:href="#DejaVuSans-97"/>
      <use x="465.429688" xlink:href="#DejaVuSans-114"/>
      <use x="506.542969" xlink:href="#DejaVuSans-107"/>
     </g>
    </g>
    <g id="line2d_31">
     <path d="M 59.9 83.609062 
L 79.9 83.609062 
" style="fill:none;stroke:#e377c2;stroke-linecap:square;stroke-width:1.5;"/>
    </g>
    <g id="line2d_32"/>
    <g id="text_15">
     <!-- long_excess -->
     <g transform="translate(87.9 87.109062)scale(0.1 -0.1)">
      <defs>
       <path d="M 54.890625 54.6875 
L 35.109375 28.078125 
L 55.90625 0 
L 45.3125 0 
L 29.390625 21.484375 
L 13.484375 0 
L 2.875 0 
L 24.125 28.609375 
L 4.6875 54.6875 
L 15.28125 54.6875 
L 29.78125 35.203125 
L 44.28125 54.6875 
z
" id="DejaVuSans-120"/>
      </defs>
      <use xlink:href="#DejaVuSans-108"/>
      <use x="27.783203" xlink:href="#DejaVuSans-111"/>
      <use x="88.964844" xlink:href="#DejaVuSans-110"/>
      <use x="152.34375" xlink:href="#DejaVuSans-103"/>
      <use x="215.820312" xlink:href="#DejaVuSans-95"/>
      <use x="265.820312" xlink:href="#DejaVuSans-101"/>
      <use x="325.59375" xlink:href="#DejaVuSans-120"/>
      <use x="383.023438" xlink:href="#DejaVuSans-99"/>
      <use x="438.003906" xlink:href="#DejaVuSans-101"/>
      <use x="499.527344" xlink:href="#DejaVuSans-115"/>
      <use x="551.626953" xlink:href="#DejaVuSans-115"/>
     </g>
    </g>
    <g id="line2d_33">
     <path d="M 59.9 98.565313 
L 79.9 98.565313 
" style="fill:none;stroke:#7f7f7f;stroke-linecap:square;stroke-width:1.5;"/>
    </g>
    <g id="line2d_34"/>
    <g id="text_16">
     <!-- short_excess -->
     <g transform="translate(87.9 102.065313)scale(0.1 -0.1)">
      <use xlink:href="#DejaVuSans-115"/>
      <use x="52.099609" xlink:href="#DejaVuSans-104"/>
      <use x="115.478516" xlink:href="#DejaVuSans-111"/>
      <use x="176.660156" xlink:href="#DejaVuSans-114"/>
      <use x="217.773438" xlink:href="#DejaVuSans-116"/>
      <use x="256.982422" xlink:href="#DejaVuSans-95"/>
      <use x="306.982422" xlink:href="#DejaVuSans-101"/>
      <use x="366.755859" xlink:href="#DejaVuSans-120"/>
      <use x="424.185547" xlink:href="#DejaVuSans-99"/>
      <use x="479.166016" xlink:href="#DejaVuSans-101"/>
      <use x="540.689453" xlink:href="#DejaVuSans-115"/>
      <use x="592.789062" xlink:href="#DejaVuSans-115"/>
     </g>
    </g>
    <g id="line2d_35">
     <path d="M 59.9 113.521563 
L 79.9 113.521563 
" style="fill:none;stroke:#bcbd22;stroke-linecap:square;stroke-width:1.5;"/>
    </g>
    <g id="line2d_36"/>
    <g id="text_17">
     <!-- long_short -->
     <g transform="translate(87.9 117.021563)scale(0.1 -0.1)">
      <use xlink:href="#DejaVuSans-108"/>
      <use x="27.783203" xlink:href="#DejaVuSans-111"/>
      <use x="88.964844" xlink:href="#DejaVuSans-110"/>
      <use x="152.34375" xlink:href="#DejaVuSans-103"/>
      <use x="215.820312" xlink:href="#DejaVuSans-95"/>
      <use x="265.820312" xlink:href="#DejaVuSans-115"/>
      <use x="317.919922" xlink:href="#DejaVuSans-104"/>
      <use x="381.298828" xlink:href="#DejaVuSans-111"/>
      <use x="442.480469" xlink:href="#DejaVuSans-114"/>
      <use x="483.59375" xlink:href="#DejaVuSans-116"/>
     </g>
    </g>
   </g>
  </g>
 </g>
 <defs>
  <clipPath id="pd78b744d05">
   <rect height="319.78" width="1090.3" x="50.9" y="25.92"/>
  </clipPath>
 </defs>
</svg>
