<?xml version="1.0" encoding="utf-8" standalone="no"?>
<!DOCTYPE svg PUBLIC "-//W3C//DTD SVG 1.1//EN"
  "http://www.w3.org/Graphics/SVG/1.1/DTD/svg11.dtd">
<!-- Created with matplotlib (https://matplotlib.org/) -->
<svg height="374.4pt" version="1.1" viewBox="0 0 1152 374.4" width="1152pt" xmlns="http://www.w3.org/2000/svg" xmlns:xlink="http://www.w3.org/1999/xlink">
 <metadata>
  <rdf:RDF xmlns:cc="http://creativecommons.org/ns#" xmlns:dc="http://purl.org/dc/elements/1.1/" xmlns:rdf="http://www.w3.org/1999/02/22-rdf-syntax-ns#">
   <cc:Work>
    <dc:type rdf:resource="http://purl.org/dc/dcmitype/StillImage"/>
    <dc:date>2023-10-11T16:58:31.697061</dc:date>
    <dc:format>image/svg+xml</dc:format>
    <dc:creator>
     <cc:Agent>
      <dc:title>Matplotlib v3.3.4, https://matplotlib.org/</dc:title>
     </cc:Agent>
    </dc:creator>
   </cc:Work>
  </rdf:RDF>
 </metadata>
 <defs>
  <style type="text/css">*{stroke-linecap:butt;stroke-linejoin:round;}</style>
 </defs>
 <g id="figure_1">
  <g id="patch_1">
   <path d="M 0 374.4 
L 1152 374.4 
L 1152 0 
L 0 0 
z
" style="fill:#ffffff;"/>
  </g>
  <g id="axes_1">
   <g id="patch_2">
    <path d="M 37.82 360.1 
L 1141.2 360.1 
L 1141.2 25.92 
L 37.82 25.92 
z
" style="fill:#ffffff;"/>
   </g>
   <g id="matplotlib.axis_1"/>
   <g id="matplotlib.axis_2">
    <g id="ytick_1">
     <g id="line2d_1">
      <path clip-path="url(#p960bf448c3)" d="M 37.82 356.268139 
L 1141.2 356.268139 
" style="fill:none;stroke:#b0b0b0;stroke-linecap:square;stroke-width:0.8;"/>
     </g>
     <g id="line2d_2">
      <defs>
       <path d="M 0 0 
L -3.5 0 
" id="m4af107a24b" style="stroke:#000000;stroke-width:0.8;"/>
      </defs>
      <g>
       <use style="stroke:#000000;stroke-width:0.8;" x="37.82" xlink:href="#m4af107a24b" y="356.268139"/>
      </g>
     </g>
     <g id="text_1">
      <!-- 0 -->
      <g transform="translate(24.4575 360.067358)scale(0.1 -0.1)">
       <defs>
        <path d="M 31.78125 66.40625 
Q 24.171875 66.40625 20.328125 58.90625 
Q 16.5 51.421875 16.5 36.375 
Q 16.5 21.390625 20.328125 13.890625 
Q 24.171875 6.390625 31.78125 6.390625 
Q 39.453125 6.390625 43.28125 13.890625 
Q 47.125 21.390625 47.125 36.375 
Q 47.125 51.421875 43.28125 58.90625 
Q 39.453125 66.40625 31.78125 66.40625 
z
M 31.78125 74.21875 
Q 44.046875 74.21875 50.515625 64.515625 
Q 56.984375 54.828125 56.984375 36.375 
Q 56.984375 17.96875 50.515625 8.265625 
Q 44.046875 -1.421875 31.78125 -1.421875 
Q 19.53125 -1.421875 13.0625 8.265625 
Q 6.59375 17.96875 6.59375 36.375 
Q 6.59375 54.828125 13.0625 64.515625 
Q 19.53125 74.21875 31.78125 74.21875 
z
" id="DejaVuSans-48"/>
       </defs>
       <use xlink:href="#DejaVuSans-48"/>
      </g>
     </g>
    </g>
    <g id="ytick_2">
     <g id="line2d_3">
      <path clip-path="url(#p960bf448c3)" d="M 37.82 309.84489 
L 1141.2 309.84489 
" style="fill:none;stroke:#b0b0b0;stroke-linecap:square;stroke-width:0.8;"/>
     </g>
     <g id="line2d_4">
      <g>
       <use style="stroke:#000000;stroke-width:0.8;" x="37.82" xlink:href="#m4af107a24b" y="309.84489"/>
      </g>
     </g>
     <g id="text_2">
      <!-- 1 -->
      <g transform="translate(24.4575 313.644109)scale(0.1 -0.1)">
       <defs>
        <path d="M 12.40625 8.296875 
L 28.515625 8.296875 
L 28.515625 63.921875 
L 10.984375 60.40625 
L 10.984375 69.390625 
L 28.421875 72.90625 
L 38.28125 72.90625 
L 38.28125 8.296875 
L 54.390625 8.296875 
L 54.390625 0 
L 12.40625 0 
z
" id="DejaVuSans-49"/>
       </defs>
       <use xlink:href="#DejaVuSans-49"/>
      </g>
     </g>
    </g>
    <g id="ytick_3">
     <g id="line2d_5">
      <path clip-path="url(#p960bf448c3)" d="M 37.82 263.421641 
L 1141.2 263.421641 
" style="fill:none;stroke:#b0b0b0;stroke-linecap:square;stroke-width:0.8;"/>
     </g>
     <g id="line2d_6">
      <g>
       <use style="stroke:#000000;stroke-width:0.8;" x="37.82" xlink:href="#m4af107a24b" y="263.421641"/>
      </g>
     </g>
     <g id="text_3">
      <!-- 2 -->
      <g transform="translate(24.4575 267.220859)scale(0.1 -0.1)">
       <defs>
        <path d="M 19.1875 8.296875 
L 53.609375 8.296875 
L 53.609375 0 
L 7.328125 0 
L 7.328125 8.296875 
Q 12.9375 14.109375 22.625 23.890625 
Q 32.328125 33.6875 34.8125 36.53125 
Q 39.546875 41.84375 41.421875 45.53125 
Q 43.3125 49.21875 43.3125 52.78125 
Q 43.3125 58.59375 39.234375 62.25 
Q 35.15625 65.921875 28.609375 65.921875 
Q 23.96875 65.921875 18.8125 64.3125 
Q 13.671875 62.703125 7.8125 59.421875 
L 7.8125 69.390625 
Q 13.765625 71.78125 18.9375 73 
Q 24.125 74.21875 28.421875 74.21875 
Q 39.75 74.21875 46.484375 68.546875 
Q 53.21875 62.890625 53.21875 53.421875 
Q 53.21875 48.921875 51.53125 44.890625 
Q 49.859375 40.875 45.40625 35.40625 
Q 44.1875 33.984375 37.640625 27.21875 
Q 31.109375 20.453125 19.1875 8.296875 
z
" id="DejaVuSans-50"/>
       </defs>
       <use xlink:href="#DejaVuSans-50"/>
      </g>
     </g>
    </g>
    <g id="ytick_4">
     <g id="line2d_7">
      <path clip-path="url(#p960bf448c3)" d="M 37.82 216.998391 
L 1141.2 216.998391 
" style="fill:none;stroke:#b0b0b0;stroke-linecap:square;stroke-width:0.8;"/>
     </g>
     <g id="line2d_8">
      <g>
       <use style="stroke:#000000;stroke-width:0.8;" x="37.82" xlink:href="#m4af107a24b" y="216.998391"/>
      </g>
     </g>
     <g id="text_4">
      <!-- 3 -->
      <g transform="translate(24.4575 220.79761)scale(0.1 -0.1)">
       <defs>
        <path d="M 40.578125 39.3125 
Q 47.65625 37.796875 51.625 33 
Q 55.609375 28.21875 55.609375 21.1875 
Q 55.609375 10.40625 48.1875 4.484375 
Q 40.765625 -1.421875 27.09375 -1.421875 
Q 22.515625 -1.421875 17.65625 -0.515625 
Q 12.796875 0.390625 7.625 2.203125 
L 7.625 11.71875 
Q 11.71875 9.328125 16.59375 8.109375 
Q 21.484375 6.890625 26.8125 6.890625 
Q 36.078125 6.890625 40.9375 10.546875 
Q 45.796875 14.203125 45.796875 21.1875 
Q 45.796875 27.640625 41.28125 31.265625 
Q 36.765625 34.90625 28.71875 34.90625 
L 20.21875 34.90625 
L 20.21875 43.015625 
L 29.109375 43.015625 
Q 36.375 43.015625 40.234375 45.921875 
Q 44.09375 48.828125 44.09375 54.296875 
Q 44.09375 59.90625 40.109375 62.90625 
Q 36.140625 65.921875 28.71875 65.921875 
Q 24.65625 65.921875 20.015625 65.03125 
Q 15.375 64.15625 9.8125 62.3125 
L 9.8125 71.09375 
Q 15.4375 72.65625 20.34375 73.4375 
Q 25.25 74.21875 29.59375 74.21875 
Q 40.828125 74.21875 47.359375 69.109375 
Q 53.90625 64.015625 53.90625 55.328125 
Q 53.90625 49.265625 50.4375 45.09375 
Q 46.96875 40.921875 40.578125 39.3125 
z
" id="DejaVuSans-51"/>
       </defs>
       <use xlink:href="#DejaVuSans-51"/>
      </g>
     </g>
    </g>
    <g id="ytick_5">
     <g id="line2d_9">
      <path clip-path="url(#p960bf448c3)" d="M 37.82 170.575142 
L 1141.2 170.575142 
" style="fill:none;stroke:#b0b0b0;stroke-linecap:square;stroke-width:0.8;"/>
     </g>
     <g id="line2d_10">
      <g>
       <use style="stroke:#000000;stroke-width:0.8;" x="37.82" xlink:href="#m4af107a24b" y="170.575142"/>
      </g>
     </g>
     <g id="text_5">
      <!-- 4 -->
      <g transform="translate(24.4575 174.374361)scale(0.1 -0.1)">
       <defs>
        <path d="M 37.796875 64.3125 
L 12.890625 25.390625 
L 37.796875 25.390625 
z
M 35.203125 72.90625 
L 47.609375 72.90625 
L 47.609375 25.390625 
L 58.015625 25.390625 
L 58.015625 17.1875 
L 47.609375 17.1875 
L 47.609375 0 
L 37.796875 0 
L 37.796875 17.1875 
L 4.890625 17.1875 
L 4.890625 26.703125 
z
" id="DejaVuSans-52"/>
       </defs>
       <use xlink:href="#DejaVuSans-52"/>
      </g>
     </g>
    </g>
    <g id="ytick_6">
     <g id="line2d_11">
      <path clip-path="url(#p960bf448c3)" d="M 37.82 124.151893 
L 1141.2 124.151893 
" style="fill:none;stroke:#b0b0b0;stroke-linecap:square;stroke-width:0.8;"/>
     </g>
     <g id="line2d_12">
      <g>
       <use style="stroke:#000000;stroke-width:0.8;" x="37.82" xlink:href="#m4af107a24b" y="124.151893"/>
      </g>
     </g>
     <g id="text_6">
      <!-- 5 -->
      <g transform="translate(24.4575 127.951112)scale(0.1 -0.1)">
       <defs>
        <path d="M 10.796875 72.90625 
L 49.515625 72.90625 
L 49.515625 64.59375 
L 19.828125 64.59375 
L 19.828125 46.734375 
Q 21.96875 47.46875 24.109375 47.828125 
Q 26.265625 48.1875 28.421875 48.1875 
Q 40.625 48.1875 47.75 41.5 
Q 54.890625 34.8125 54.890625 23.390625 
Q 54.890625 11.625 47.5625 5.09375 
Q 40.234375 -1.421875 26.90625 -1.421875 
Q 22.3125 -1.421875 17.546875 -0.640625 
Q 12.796875 0.140625 7.71875 1.703125 
L 7.71875 11.625 
Q 12.109375 9.234375 16.796875 8.0625 
Q 21.484375 6.890625 26.703125 6.890625 
Q 35.15625 6.890625 40.078125 11.328125 
Q 45.015625 15.765625 45.015625 23.390625 
Q 45.015625 31 40.078125 35.4375 
Q 35.15625 39.890625 26.703125 39.890625 
Q 22.75 39.890625 18.8125 39.015625 
Q 14.890625 38.140625 10.796875 36.28125 
z
" id="DejaVuSans-53"/>
       </defs>
       <use xlink:href="#DejaVuSans-53"/>
      </g>
     </g>
    </g>
    <g id="ytick_7">
     <g id="line2d_13">
      <path clip-path="url(#p960bf448c3)" d="M 37.82 77.728644 
L 1141.2 77.728644 
" style="fill:none;stroke:#b0b0b0;stroke-linecap:square;stroke-width:0.8;"/>
     </g>
     <g id="line2d_14">
      <g>
       <use style="stroke:#000000;stroke-width:0.8;" x="37.82" xlink:href="#m4af107a24b" y="77.728644"/>
      </g>
     </g>
     <g id="text_7">
      <!-- 6 -->
      <g transform="translate(24.4575 81.527862)scale(0.1 -0.1)">
       <defs>
        <path d="M 33.015625 40.375 
Q 26.375 40.375 22.484375 35.828125 
Q 18.609375 31.296875 18.609375 23.390625 
Q 18.609375 15.53125 22.484375 10.953125 
Q 26.375 6.390625 33.015625 6.390625 
Q 39.65625 6.390625 43.53125 10.953125 
Q 47.40625 15.53125 47.40625 23.390625 
Q 47.40625 31.296875 43.53125 35.828125 
Q 39.65625 40.375 33.015625 40.375 
z
M 52.59375 71.296875 
L 52.59375 62.3125 
Q 48.875 64.0625 45.09375 64.984375 
Q 41.3125 65.921875 37.59375 65.921875 
Q 27.828125 65.921875 22.671875 59.328125 
Q 17.53125 52.734375 16.796875 39.40625 
Q 19.671875 43.65625 24.015625 45.921875 
Q 28.375 48.1875 33.59375 48.1875 
Q 44.578125 48.1875 50.953125 41.515625 
Q 57.328125 34.859375 57.328125 23.390625 
Q 57.328125 12.15625 50.6875 5.359375 
Q 44.046875 -1.421875 33.015625 -1.421875 
Q 20.359375 -1.421875 13.671875 8.265625 
Q 6.984375 17.96875 6.984375 36.375 
Q 6.984375 53.65625 15.1875 63.9375 
Q 23.390625 74.21875 37.203125 74.21875 
Q 40.921875 74.21875 44.703125 73.484375 
Q 48.484375 72.75 52.59375 71.296875 
z
" id="DejaVuSans-54"/>
       </defs>
       <use xlink:href="#DejaVuSans-54"/>
      </g>
     </g>
    </g>
    <g id="ytick_8">
     <g id="line2d_15">
      <path clip-path="url(#p960bf448c3)" d="M 37.82 31.305394 
L 1141.2 31.305394 
" style="fill:none;stroke:#b0b0b0;stroke-linecap:square;stroke-width:0.8;"/>
     </g>
     <g id="line2d_16">
      <g>
       <use style="stroke:#000000;stroke-width:0.8;" x="37.82" xlink:href="#m4af107a24b" y="31.305394"/>
      </g>
     </g>
     <g id="text_8">
      <!-- 7 -->
      <g transform="translate(24.4575 35.104613)scale(0.1 -0.1)">
       <defs>
        <path d="M 8.203125 72.90625 
L 55.078125 72.90625 
L 55.078125 68.703125 
L 28.609375 0 
L 18.3125 0 
L 43.21875 64.59375 
L 8.203125 64.59375 
z
" id="DejaVuSans-55"/>
       </defs>
       <use xlink:href="#DejaVuSans-55"/>
      </g>
     </g>
    </g>
    <g id="text_9">
     <!-- net value -->
     <g transform="translate(18.377812 216.462344)rotate(-90)scale(0.1 -0.1)">
      <defs>
       <path d="M 54.890625 33.015625 
L 54.890625 0 
L 45.90625 0 
L 45.90625 32.71875 
Q 45.90625 40.484375 42.875 44.328125 
Q 39.84375 48.1875 33.796875 48.1875 
Q 26.515625 48.1875 22.3125 43.546875 
Q 18.109375 38.921875 18.109375 30.90625 
L 18.109375 0 
L 9.078125 0 
L 9.078125 54.6875 
L 18.109375 54.6875 
L 18.109375 46.1875 
Q 21.34375 51.125 25.703125 53.5625 
Q 30.078125 56 35.796875 56 
Q 45.21875 56 50.046875 50.171875 
Q 54.890625 44.34375 54.890625 33.015625 
z
" id="DejaVuSans-110"/>
       <path d="M 56.203125 29.59375 
L 56.203125 25.203125 
L 14.890625 25.203125 
Q 15.484375 15.921875 20.484375 11.0625 
Q 25.484375 6.203125 34.421875 6.203125 
Q 39.59375 6.203125 44.453125 7.46875 
Q 49.3125 8.734375 54.109375 11.28125 
L 54.109375 2.78125 
Q 49.265625 0.734375 44.1875 -0.34375 
Q 39.109375 -1.421875 33.890625 -1.421875 
Q 20.796875 -1.421875 13.15625 6.1875 
Q 5.515625 13.8125 5.515625 26.8125 
Q 5.515625 40.234375 12.765625 48.109375 
Q 20.015625 56 32.328125 56 
Q 43.359375 56 49.78125 48.890625 
Q 56.203125 41.796875 56.203125 29.59375 
z
M 47.21875 32.234375 
Q 47.125 39.59375 43.09375 43.984375 
Q 39.0625 48.390625 32.421875 48.390625 
Q 24.90625 48.390625 20.390625 44.140625 
Q 15.875 39.890625 15.1875 32.171875 
z
" id="DejaVuSans-101"/>
       <path d="M 18.3125 70.21875 
L 18.3125 54.6875 
L 36.8125 54.6875 
L 36.8125 47.703125 
L 18.3125 47.703125 
L 18.3125 18.015625 
Q 18.3125 11.328125 20.140625 9.421875 
Q 21.96875 7.515625 27.59375 7.515625 
L 36.8125 7.515625 
L 36.8125 0 
L 27.59375 0 
Q 17.1875 0 13.234375 3.875 
Q 9.28125 7.765625 9.28125 18.015625 
L 9.28125 47.703125 
L 2.6875 47.703125 
L 2.6875 54.6875 
L 9.28125 54.6875 
L 9.28125 70.21875 
z
" id="DejaVuSans-116"/>
       <path id="DejaVuSans-32"/>
       <path d="M 2.984375 54.6875 
L 12.5 54.6875 
L 29.59375 8.796875 
L 46.6875 54.6875 
L 56.203125 54.6875 
L 35.6875 0 
L 23.484375 0 
z
" id="DejaVuSans-118"/>
       <path d="M 34.28125 27.484375 
Q 23.390625 27.484375 19.1875 25 
Q 14.984375 22.515625 14.984375 16.5 
Q 14.984375 11.71875 18.140625 8.90625 
Q 21.296875 6.109375 26.703125 6.109375 
Q 34.1875 6.109375 38.703125 11.40625 
Q 43.21875 16.703125 43.21875 25.484375 
L 43.21875 27.484375 
z
M 52.203125 31.203125 
L 52.203125 0 
L 43.21875 0 
L 43.21875 8.296875 
Q 40.140625 3.328125 35.546875 0.953125 
Q 30.953125 -1.421875 24.3125 -1.421875 
Q 15.921875 -1.421875 10.953125 3.296875 
Q 6 8.015625 6 15.921875 
Q 6 25.140625 12.171875 29.828125 
Q 18.359375 34.515625 30.609375 34.515625 
L 43.21875 34.515625 
L 43.21875 35.40625 
Q 43.21875 41.609375 39.140625 45 
Q 35.0625 48.390625 27.6875 48.390625 
Q 23 48.390625 18.546875 47.265625 
Q 14.109375 46.140625 10.015625 43.890625 
L 10.015625 52.203125 
Q 14.9375 54.109375 19.578125 55.046875 
Q 24.21875 56 28.609375 56 
Q 40.484375 56 46.34375 49.84375 
Q 52.203125 43.703125 52.203125 31.203125 
z
" id="DejaVuSans-97"/>
       <path d="M 9.421875 75.984375 
L 18.40625 75.984375 
L 18.40625 0 
L 9.421875 0 
z
" id="DejaVuSans-108"/>
       <path d="M 8.5 21.578125 
L 8.5 54.6875 
L 17.484375 54.6875 
L 17.484375 21.921875 
Q 17.484375 14.15625 20.5 10.265625 
Q 23.53125 6.390625 29.59375 6.390625 
Q 36.859375 6.390625 41.078125 11.03125 
Q 45.3125 15.671875 45.3125 23.6875 
L 45.3125 54.6875 
L 54.296875 54.6875 
L 54.296875 0 
L 45.3125 0 
L 45.3125 8.40625 
Q 42.046875 3.421875 37.71875 1 
Q 33.40625 -1.421875 27.6875 -1.421875 
Q 18.265625 -1.421875 13.375 4.4375 
Q 8.5 10.296875 8.5 21.578125 
z
M 31.109375 56 
z
" id="DejaVuSans-117"/>
      </defs>
      <use xlink:href="#DejaVuSans-110"/>
      <use x="63.378906" xlink:href="#DejaVuSans-101"/>
      <use x="124.902344" xlink:href="#DejaVuSans-116"/>
      <use x="164.111328" xlink:href="#DejaVuSans-32"/>
      <use x="195.898438" xlink:href="#DejaVuSans-118"/>
      <use x="255.078125" xlink:href="#DejaVuSans-97"/>
      <use x="316.357422" xlink:href="#DejaVuSans-108"/>
      <use x="344.140625" xlink:href="#DejaVuSans-117"/>
      <use x="407.519531" xlink:href="#DejaVuSans-101"/>
     </g>
    </g>
   </g>
   <g id="line2d_17">
    <path clip-path="url(#p960bf448c3)" d="M 87.973636 309.874513 
L 91.802158 309.461054 
L 99.459202 310.69299 
L 110.944768 308.078641 
L 114.773289 311.430511 
L 118.601811 311.411979 
L 122.430333 310.979716 
L 126.258855 311.826556 
L 137.744421 315.455906 
L 141.572942 318.020011 
L 145.401464 318.589283 
L 149.229986 319.893672 
L 153.058508 317.811959 
L 164.544074 317.231018 
L 168.372595 315.5894 
L 172.201117 315.701102 
L 176.029639 315.507934 
L 179.858161 316.214584 
L 191.343727 317.146399 
L 195.172248 313.960852 
L 199.00077 311.353547 
L 202.829292 311.158083 
L 206.657814 315.057203 
L 218.14338 317.075952 
L 221.971901 317.083156 
L 225.800423 317.378968 
L 229.628945 319.023071 
L 233.457467 319.882101 
L 244.943033 319.223226 
L 252.600076 316.054285 
L 256.428598 315.360559 
L 260.25712 314.289079 
L 271.742686 317.651059 
L 275.571207 316.096964 
L 279.399729 316.819718 
L 283.228251 313.94156 
L 287.056773 314.042808 
L 298.542339 313.52308 
L 302.370861 311.343435 
L 306.199382 313.205445 
L 310.027904 312.081519 
L 313.856426 310.824681 
L 325.341992 309.448204 
L 329.170514 310.748936 
L 332.999035 313.051218 
L 336.827557 310.805401 
L 352.141645 307.091357 
L 355.970167 306.751408 
L 359.798688 308.784782 
L 363.62721 306.82286 
L 367.455732 307.582489 
L 378.941298 309.578798 
L 382.76982 308.88121 
L 386.598341 310.82405 
L 390.426863 309.818667 
L 394.255385 311.390603 
L 405.740951 313.450384 
L 409.569473 313.421384 
L 413.397994 315.823766 
L 417.226516 314.129863 
L 421.055038 316.330309 
L 432.540604 317.947374 
L 436.369126 316.260854 
L 440.197647 317.167508 
L 444.026169 317.44764 
L 447.854691 318.696465 
L 459.340257 315.500364 
L 463.168779 314.986475 
L 466.9973 317.291363 
L 474.654344 317.509854 
L 486.13991 319.831485 
L 489.968432 321.151499 
L 493.796954 319.267988 
L 497.625475 320.865767 
L 501.453997 321.116605 
L 516.768085 322.924943 
L 520.596607 321.745061 
L 524.425128 321.687259 
L 528.25365 324.217361 
L 539.739216 324.229164 
L 543.567738 322.502638 
L 547.39626 322.337237 
L 551.224781 323.122381 
L 555.053303 324.770957 
L 566.538869 326.049489 
L 570.367391 324.664166 
L 574.195913 322.774925 
L 578.024434 323.617114 
L 581.852956 323.624191 
L 593.338522 324.459066 
L 597.167044 322.571117 
L 600.995566 319.505511 
L 604.824087 318.185237 
L 608.652609 319.226313 
L 620.138175 320.299569 
L 623.966697 322.964899 
L 627.795219 324.464462 
L 631.62374 324.205428 
L 635.452262 325.607394 
L 646.937828 326.450999 
L 650.76635 324.796858 
L 654.594872 324.734232 
L 662.251915 328.380103 
L 673.737481 326.58484 
L 677.566003 326.907937 
L 681.394525 326.524253 
L 689.051568 325.529523 
L 700.537134 325.599044 
L 704.365656 324.111466 
L 708.194178 325.018444 
L 712.0227 323.275452 
L 715.851221 323.898814 
L 727.336787 323.204738 
L 731.165309 322.409747 
L 734.993831 323.266722 
L 738.822353 325.510262 
L 742.650874 323.865941 
L 757.964962 324.346967 
L 761.793484 325.312145 
L 765.622006 324.825647 
L 769.450527 324.499679 
L 784.764615 325.158051 
L 788.593137 324.083302 
L 792.421659 323.41263 
L 796.25018 324.477501 
L 807.735746 325.12686 
L 815.39279 328.74363 
L 819.221312 329.215938 
L 823.049833 328.081656 
L 834.535399 325.585559 
L 838.363921 326.646021 
L 842.192443 328.533822 
L 846.020965 328.369814 
L 849.849486 327.458484 
L 861.335052 328.036809 
L 865.163574 326.295319 
L 868.992096 326.202669 
L 872.820618 326.42064 
L 876.649139 324.990824 
L 891.963227 324.170203 
L 895.791749 321.510247 
L 899.620271 321.350727 
L 903.448793 320.310631 
L 914.934358 320.031525 
L 918.76288 320.719347 
L 922.591402 323.196613 
L 926.419924 324.412139 
L 930.248446 325.153574 
L 945.562533 324.84753 
L 949.391055 322.709901 
L 953.219577 322.645734 
L 957.048099 320.551136 
L 968.533664 319.840433 
L 972.362186 319.439294 
L 976.190708 321.823052 
L 980.01923 319.754934 
L 983.847752 320.707072 
L 999.161839 320.511215 
L 1002.990361 318.761192 
L 1006.818883 319.72681 
L 1010.647405 319.012126 
L 1022.13297 317.791245 
L 1025.961492 317.166049 
L 1029.790014 317.888679 
L 1033.618536 315.360859 
L 1037.447058 317.686132 
L 1048.932623 319.376814 
L 1052.761145 319.574445 
L 1056.589667 321.672342 
L 1060.418189 319.728221 
L 1064.246711 318.802941 
L 1075.732276 319.599771 
L 1079.560798 320.441619 
L 1083.38932 322.294249 
L 1087.217842 321.84805 
L 1091.046364 321.047079 
L 1091.046364 321.047079 
" style="fill:none;stroke:#1f77b4;stroke-linecap:square;stroke-width:1.5;"/>
   </g>
   <g id="line2d_18">
    <path clip-path="url(#p960bf448c3)" d="M 87.973636 307.142426 
L 91.802158 307.159782 
L 95.63068 306.988301 
L 99.459202 303.778739 
L 110.944768 302.674868 
L 114.773289 302.55274 
L 118.601811 301.691342 
L 122.430333 298.895955 
L 126.258855 299.183719 
L 137.744421 294.43815 
L 141.572942 294.290252 
L 145.401464 290.758004 
L 149.229986 289.091216 
L 153.058508 295.226281 
L 164.544074 296.575125 
L 168.372595 295.403341 
L 172.201117 297.443577 
L 176.029639 297.104324 
L 179.858161 297.865995 
L 191.343727 294.365103 
L 195.172248 293.058029 
L 199.00077 297.303026 
L 202.829292 299.179691 
L 206.657814 302.151624 
L 218.14338 299.991877 
L 221.971901 302.002807 
L 225.800423 301.771303 
L 229.628945 297.662323 
L 233.457467 294.819885 
L 244.943033 292.203128 
L 248.771554 292.331038 
L 252.600076 287.374828 
L 256.428598 292.203726 
L 260.25712 292.676179 
L 271.742686 293.500196 
L 275.571207 296.914701 
L 279.399729 296.510684 
L 283.228251 296.672793 
L 287.056773 296.230611 
L 298.542339 298.505164 
L 302.370861 295.912394 
L 306.199382 296.023283 
L 310.027904 297.66541 
L 313.856426 293.063931 
L 325.341992 289.149491 
L 329.170514 292.900751 
L 332.999035 289.172419 
L 336.827557 289.762392 
L 340.656079 287.405829 
L 352.141645 284.212485 
L 355.970167 288.0633 
L 359.798688 292.853743 
L 363.62721 290.273846 
L 367.455732 291.675361 
L 378.941298 292.098969 
L 382.76982 287.920055 
L 386.598341 287.475969 
L 390.426863 288.886722 
L 394.255385 292.103325 
L 405.740951 294.213936 
L 409.569473 295.881839 
L 413.397994 293.8651 
L 417.226516 295.319276 
L 421.055038 300.279552 
L 432.540604 302.205528 
L 436.369126 298.018246 
L 440.197647 298.421476 
L 444.026169 302.710373 
L 447.854691 300.570957 
L 459.340257 301.792454 
L 463.168779 305.153254 
L 466.9973 301.773043 
L 470.825822 303.282787 
L 474.654344 304.407076 
L 486.13991 303.204809 
L 489.968432 305.699842 
L 497.625475 303.230472 
L 501.453997 300.187068 
L 512.939563 299.710837 
L 516.768085 297.62669 
L 520.596607 294.735116 
L 524.425128 293.150394 
L 528.25365 293.246265 
L 543.567738 293.015136 
L 547.39626 296.799161 
L 551.224781 301.097078 
L 555.053303 300.805035 
L 566.538869 302.584992 
L 570.367391 301.320824 
L 574.195913 298.683163 
L 578.024434 301.544606 
L 581.852956 299.881325 
L 593.338522 303.539981 
L 597.167044 304.597127 
L 600.995566 308.071932 
L 604.824087 307.275222 
L 608.652609 308.063963 
L 620.138175 312.428147 
L 623.966697 315.522407 
L 627.795219 313.13827 
L 635.452262 307.524672 
L 646.937828 308.590469 
L 650.76635 304.712084 
L 654.594872 303.899139 
L 658.423393 305.992935 
L 662.251915 306.796225 
L 673.737481 308.050025 
L 677.566003 309.120449 
L 685.223046 303.311836 
L 689.051568 300.713974 
L 700.537134 301.505061 
L 704.365656 296.219395 
L 708.194178 300.517793 
L 712.0227 303.640793 
L 715.851221 301.906098 
L 727.336787 300.158542 
L 731.165309 296.990551 
L 734.993831 301.934453 
L 738.822353 299.241049 
L 742.650874 298.880219 
L 754.13644 302.036806 
L 757.964962 307.185789 
L 761.793484 304.462974 
L 765.622006 303.17751 
L 769.450527 304.961677 
L 780.936093 301.246675 
L 784.764615 302.091536 
L 788.593137 304.023235 
L 792.421659 303.112528 
L 796.25018 305.878532 
L 811.564268 309.796014 
L 815.39279 310.435769 
L 819.221312 308.462017 
L 823.049833 306.906011 
L 834.535399 305.542747 
L 838.363921 303.732602 
L 842.192443 303.38075 
L 846.020965 301.521784 
L 849.849486 302.749746 
L 861.335052 305.691736 
L 865.163574 304.669934 
L 868.992096 304.655665 
L 872.820618 306.726428 
L 876.649139 303.480944 
L 888.134705 308.173455 
L 891.963227 310.216123 
L 895.791749 308.793469 
L 899.620271 309.627035 
L 903.448793 309.817057 
L 914.934358 310.744222 
L 918.76288 311.415335 
L 926.419924 312.150263 
L 930.248446 315.027125 
L 941.734011 315.181631 
L 945.562533 313.253085 
L 949.391055 313.768609 
L 953.219577 313.049836 
L 957.048099 311.319085 
L 968.533664 314.475 
L 972.362186 314.703841 
L 976.190708 316.764052 
L 980.01923 317.301987 
L 983.847752 316.092169 
L 995.333317 316.336003 
L 999.161839 314.791561 
L 1002.990361 315.590615 
L 1006.818883 312.940347 
L 1010.647405 313.893964 
L 1022.13297 312.01371 
L 1025.961492 312.038112 
L 1029.790014 312.438712 
L 1037.447058 315.111662 
L 1048.932623 313.580469 
L 1052.761145 313.78769 
L 1056.589667 313.502916 
L 1060.418189 311.132941 
L 1064.246711 307.843909 
L 1075.732276 308.50352 
L 1079.560798 312.782412 
L 1083.38932 313.362282 
L 1087.217842 314.343025 
L 1091.046364 312.99864 
L 1091.046364 312.99864 
" style="fill:none;stroke:#ff7f0e;stroke-linecap:square;stroke-width:1.5;"/>
   </g>
   <g id="line2d_19">
    <path clip-path="url(#p960bf448c3)" d="M 87.973636 313.37805 
L 91.802158 313.279348 
L 95.63068 317.477106 
L 99.459202 315.320458 
L 114.773289 315.117276 
L 118.601811 314.005381 
L 122.430333 310.559086 
L 126.258855 311.890364 
L 137.744421 311.635606 
L 141.572942 309.692035 
L 145.401464 310.82428 
L 149.229986 312.435129 
L 153.058508 313.441829 
L 164.544074 314.954513 
L 168.372595 314.928488 
L 172.201117 317.122789 
L 176.029639 319.802804 
L 179.858161 318.591527 
L 191.343727 320.087892 
L 195.172248 319.491906 
L 199.00077 319.191587 
L 202.829292 316.640903 
L 206.657814 319.176589 
L 218.14338 320.523417 
L 221.971901 321.299983 
L 225.800423 323.163536 
L 229.628945 324.010918 
L 233.457467 325.561541 
L 244.943033 325.998713 
L 248.771554 325.650982 
L 252.600076 325.609287 
L 256.428598 324.638586 
L 260.25712 325.586927 
L 271.742686 326.56263 
L 275.571207 325.107893 
L 279.399729 324.789188 
L 283.228251 324.096503 
L 287.056773 323.0396 
L 298.542339 324.666988 
L 302.370861 323.273361 
L 306.199382 325.898186 
L 310.027904 326.386124 
L 313.856426 327.445215 
L 325.341992 329.041065 
L 329.170514 327.746998 
L 332.999035 328.429663 
L 336.827557 328.64805 
L 340.656079 328.313266 
L 355.970167 325.252228 
L 359.798688 327.933393 
L 363.62721 327.943037 
L 367.455732 329.898611 
L 378.941298 328.162298 
L 386.598341 329.094819 
L 390.426863 329.825271 
L 405.740951 329.071793 
L 413.397994 329.324767 
L 417.226516 331.88871 
L 421.055038 333.618499 
L 432.540604 332.863953 
L 436.369126 333.01004 
L 440.197647 333.609865 
L 444.026169 333.512251 
L 447.854691 332.563827 
L 463.168779 330.059711 
L 466.9973 332.010153 
L 470.825822 329.801215 
L 474.654344 328.414893 
L 486.13991 329.567852 
L 489.968432 329.331579 
L 493.796954 329.629985 
L 497.625475 329.248831 
L 501.453997 330.192671 
L 512.939563 329.618714 
L 516.768085 330.123958 
L 520.596607 329.993697 
L 524.425128 329.676305 
L 528.25365 328.962002 
L 539.739216 329.75317 
L 543.567738 330.373779 
L 547.39626 331.772414 
L 551.224781 331.555737 
L 555.053303 331.563333 
L 566.538869 331.713057 
L 570.367391 333.252369 
L 574.195913 332.546755 
L 578.024434 333.889912 
L 581.852956 334.297971 
L 593.338522 334.311295 
L 597.167044 334.149435 
L 600.995566 334.556106 
L 604.824087 335.4659 
L 608.652609 336.513527 
L 620.138175 337.56109 
L 623.966697 337.125973 
L 627.795219 337.328621 
L 631.62374 338.927664 
L 635.452262 338.015907 
L 650.76635 339.970207 
L 654.594872 339.850182 
L 662.251915 339.345806 
L 673.737481 340.286521 
L 677.566003 340.007663 
L 681.394525 339.944534 
L 685.223046 340.235107 
L 689.051568 339.841994 
L 700.537134 340.575486 
L 704.365656 341.565477 
L 712.0227 342.214971 
L 715.851221 342.241915 
L 731.165309 341.657793 
L 734.993831 341.100282 
L 738.822353 340.954187 
L 742.650874 340.601422 
L 754.13644 339.270295 
L 757.964962 339.23793 
L 761.793484 338.700531 
L 765.622006 339.541177 
L 769.450527 340.502893 
L 780.936093 340.525008 
L 792.421659 340.131889 
L 796.25018 341.196838 
L 807.735746 341.533638 
L 811.564268 341.405501 
L 815.39279 340.868473 
L 819.221312 340.664873 
L 823.049833 340.072141 
L 834.535399 340.855566 
L 838.363921 341.379501 
L 842.192443 340.903702 
L 846.020965 341.966993 
L 849.849486 341.45566 
L 865.163574 341.218725 
L 868.992096 340.534335 
L 872.820618 340.320527 
L 876.649139 340.493585 
L 888.134705 340.524085 
L 891.963227 341.077707 
L 895.791749 340.513383 
L 899.620271 339.744409 
L 903.448793 339.425882 
L 914.934358 339.455195 
L 918.76288 338.310977 
L 922.591402 338.663908 
L 926.419924 338.662248 
L 930.248446 338.00371 
L 941.734011 337.776946 
L 945.562533 338.526472 
L 949.391055 338.804072 
L 953.219577 339.289563 
L 957.048099 340.49366 
L 968.533664 341.346415 
L 972.362186 342.118139 
L 976.190708 342.693103 
L 980.01923 342.864283 
L 983.847752 342.610928 
L 995.333317 341.689712 
L 1002.990361 342.788638 
L 1006.818883 341.910037 
L 1010.647405 342.15711 
L 1022.13297 342.197192 
L 1029.790014 341.189608 
L 1033.618536 341.570607 
L 1037.447058 341.511493 
L 1048.932623 341.803602 
L 1052.761145 342.218117 
L 1056.589667 343.33883 
L 1060.418189 342.998422 
L 1064.246711 342.778646 
L 1079.560798 343.177464 
L 1087.217842 344.365175 
L 1091.046364 343.548761 
L 1091.046364 343.548761 
" style="fill:none;stroke:#2ca02c;stroke-linecap:square;stroke-width:1.5;"/>
   </g>
   <g id="line2d_20">
    <path clip-path="url(#p960bf448c3)" d="M 87.973636 312.183999 
L 91.802158 313.584452 
L 95.63068 314.153298 
L 99.459202 314.90732 
L 110.944768 314.920075 
L 114.773289 312.386989 
L 118.601811 314.921438 
L 122.430333 313.664915 
L 126.258855 314.626392 
L 137.744421 312.176034 
L 141.572942 315.632658 
L 145.401464 316.375569 
L 149.229986 315.977572 
L 153.058508 317.788414 
L 164.544074 315.274083 
L 168.372595 315.628917 
L 172.201117 316.626371 
L 176.029639 315.060742 
L 179.858161 314.685378 
L 191.343727 315.161722 
L 195.172248 311.746319 
L 199.00077 311.996334 
L 202.829292 314.822056 
L 218.14338 314.764156 
L 221.971901 315.93986 
L 225.800423 316.187222 
L 229.628945 318.431739 
L 233.457467 317.195247 
L 244.943033 314.874282 
L 248.771554 315.232804 
L 252.600076 315.826649 
L 256.428598 317.407212 
L 260.25712 317.468249 
L 271.742686 321.240986 
L 275.571207 321.101158 
L 279.399729 322.773978 
L 283.228251 321.795344 
L 287.056773 323.997866 
L 298.542339 325.475166 
L 302.370861 324.171402 
L 306.199382 322.688649 
L 310.027904 323.030367 
L 313.856426 324.814178 
L 325.341992 325.080114 
L 329.170514 325.407068 
L 332.999035 326.404942 
L 336.827557 327.235494 
L 340.656079 329.180886 
L 352.141645 330.166369 
L 355.970167 330.105599 
L 359.798688 329.158094 
L 363.62721 328.823028 
L 367.455732 328.943029 
L 378.941298 330.488861 
L 382.76982 328.707173 
L 386.598341 328.668349 
L 390.426863 327.874464 
L 394.255385 326.62524 
L 409.569473 325.300015 
L 413.397994 325.834485 
L 417.226516 325.923172 
L 421.055038 325.610645 
L 432.540604 326.58677 
L 436.369126 325.390768 
L 440.197647 325.319528 
L 444.026169 324.257946 
L 447.854691 326.691812 
L 459.340257 327.179099 
L 463.168779 327.94479 
L 470.825822 330.746622 
L 474.654344 330.753116 
L 486.13991 331.176411 
L 489.968432 331.441975 
L 493.796954 332.399999 
L 497.625475 332.115564 
L 501.453997 331.044513 
L 512.939563 329.724011 
L 516.768085 331.056426 
L 524.425128 330.577731 
L 528.25365 329.938568 
L 539.739216 328.806458 
L 543.567738 327.780061 
L 547.39626 326.940131 
L 551.224781 327.809883 
L 555.053303 329.150176 
L 566.538869 329.008725 
L 570.367391 328.296457 
L 578.024434 324.164081 
L 581.852956 327.134111 
L 593.338522 328.560488 
L 597.167044 327.855285 
L 600.995566 327.957897 
L 604.824087 328.919151 
L 608.652609 328.60724 
L 620.138175 327.288539 
L 623.966697 325.321115 
L 627.795219 323.616611 
L 631.62374 323.241883 
L 635.452262 323.498359 
L 646.937828 324.467774 
L 650.76635 322.489571 
L 654.594872 322.781841 
L 658.423393 324.477557 
L 662.251915 322.069261 
L 673.737481 323.645454 
L 677.566003 322.919393 
L 681.394525 323.477966 
L 685.223046 324.574274 
L 689.051568 323.089997 
L 700.537134 323.834715 
L 704.365656 321.549714 
L 708.194178 323.701542 
L 712.0227 322.64478 
L 715.851221 321.399533 
L 727.336787 320.24258 
L 731.165309 321.937524 
L 734.993831 322.762651 
L 738.822353 321.606289 
L 742.650874 321.437847 
L 754.13644 319.618199 
L 757.964962 317.092599 
L 761.793484 316.823267 
L 765.622006 314.960164 
L 769.450527 316.341078 
L 780.936093 315.211202 
L 784.764615 315.558914 
L 788.593137 315.373803 
L 792.421659 313.096968 
L 796.25018 309.218141 
L 807.735746 310.415351 
L 811.564268 309.298883 
L 815.39279 307.584903 
L 819.221312 307.634887 
L 823.049833 308.357923 
L 834.535399 306.216615 
L 838.363921 307.246048 
L 842.192443 304.140947 
L 846.020965 304.242365 
L 849.849486 301.054621 
L 861.335052 296.80793 
L 865.163574 293.907107 
L 868.992096 292.745716 
L 872.820618 289.991696 
L 876.649139 287.852469 
L 888.134705 290.150896 
L 891.963227 286.774523 
L 895.791749 292.55505 
L 899.620271 293.570705 
L 903.448793 294.088772 
L 914.934358 291.158388 
L 918.76288 287.078242 
L 922.591402 288.850347 
L 926.419924 283.657027 
L 930.248446 282.738286 
L 941.734011 282.94323 
L 945.562533 277.476121 
L 949.391055 280.77765 
L 953.219577 281.895396 
L 957.048099 283.131052 
L 968.533664 282.842433 
L 972.362186 283.813427 
L 976.190708 282.216071 
L 980.01923 283.332667 
L 983.847752 282.695454 
L 995.333317 283.239694 
L 999.161839 286.819338 
L 1002.990361 287.263728 
L 1006.818883 285.977222 
L 1010.647405 292.693655 
L 1022.13297 289.947184 
L 1025.961492 285.262578 
L 1029.790014 284.128244 
L 1033.618536 280.748947 
L 1037.447058 279.65977 
L 1048.932623 279.08663 
L 1052.761145 282.624769 
L 1056.589667 276.755239 
L 1060.418189 277.267409 
L 1064.246711 275.89921 
L 1075.732276 278.546078 
L 1079.560798 274.919897 
L 1083.38932 275.376071 
L 1087.217842 277.130877 
L 1091.046364 277.206776 
L 1091.046364 277.206776 
" style="fill:none;stroke:#d62728;stroke-linecap:square;stroke-width:1.5;"/>
   </g>
   <g id="line2d_21">
    <path clip-path="url(#p960bf448c3)" d="M 87.973636 308.632675 
L 91.802158 310.466575 
L 95.63068 310.633319 
L 99.459202 310.996818 
L 110.944768 307.700414 
L 114.773289 306.913515 
L 122.430333 306.015488 
L 126.258855 304.806504 
L 137.744421 303.862011 
L 141.572942 305.033814 
L 145.401464 303.180317 
L 149.229986 307.150827 
L 153.058508 306.075636 
L 164.544074 307.053315 
L 168.372595 303.003665 
L 172.201117 305.699804 
L 176.029639 309.422709 
L 179.858161 305.190038 
L 191.343727 308.741069 
L 195.172248 305.82034 
L 199.00077 306.930963 
L 202.829292 305.338064 
L 206.657814 302.143991 
L 218.14338 302.10341 
L 221.971901 305.213316 
L 225.800423 303.382533 
L 229.628945 304.437549 
L 233.457467 307.204368 
L 244.943033 306.757028 
L 248.771554 306.060876 
L 252.600076 303.672084 
L 256.428598 308.522198 
L 260.25712 308.426304 
L 271.742686 311.599915 
L 275.571207 309.722237 
L 283.228251 307.644714 
L 287.056773 304.429935 
L 298.542339 303.298587 
L 302.370861 298.323063 
L 306.199382 296.618462 
L 310.027904 297.805206 
L 313.856426 300.043985 
L 325.341992 299.905008 
L 329.170514 303.479123 
L 332.999035 303.381201 
L 336.827557 302.583522 
L 340.656079 303.994986 
L 352.141645 299.822628 
L 355.970167 297.789549 
L 359.798688 297.687977 
L 363.62721 295.093406 
L 367.455732 295.990142 
L 378.941298 293.773416 
L 382.76982 293.837266 
L 386.598341 293.784029 
L 390.426863 288.448118 
L 394.255385 290.610419 
L 405.740951 289.838549 
L 409.569473 290.429292 
L 417.226516 289.927534 
L 421.055038 294.701823 
L 432.540604 293.895797 
L 436.369126 293.228456 
L 440.197647 297.783823 
L 444.026169 295.033619 
L 447.854691 297.707064 
L 459.340257 293.267977 
L 463.168779 289.353547 
L 466.9973 292.462098 
L 470.825822 294.22493 
L 474.654344 290.0682 
L 486.13991 288.266632 
L 493.796954 288.623447 
L 497.625475 289.415337 
L 501.453997 292.80553 
L 512.939563 290.486295 
L 516.768085 286.187704 
L 520.596607 286.409615 
L 524.425128 287.678235 
L 528.25365 292.54757 
L 543.567738 291.996543 
L 547.39626 291.379045 
L 551.224781 287.885242 
L 555.053303 282.814734 
L 566.538869 283.194077 
L 570.367391 283.788917 
L 574.195913 283.452188 
L 578.024434 283.599483 
L 581.852956 281.199454 
L 597.167044 277.768309 
L 600.995566 280.709658 
L 604.824087 277.4574 
L 608.652609 275.327559 
L 620.138175 275.238283 
L 623.966697 273.872694 
L 627.795219 270.00151 
L 631.62374 268.492222 
L 635.452262 269.238793 
L 646.937828 262.95009 
L 650.76635 265.680586 
L 654.594872 264.419553 
L 658.423393 263.627265 
L 662.251915 265.469891 
L 673.737481 258.912943 
L 677.566003 258.224063 
L 681.394525 250.389996 
L 685.223046 256.843699 
L 689.051568 258.079284 
L 700.537134 254.731517 
L 704.365656 257.140751 
L 708.194178 265.585564 
L 712.0227 262.6234 
L 715.851221 257.002228 
L 727.336787 251.777764 
L 731.165309 248.062012 
L 734.993831 254.891148 
L 738.822353 253.7501 
L 742.650874 246.924367 
L 754.13644 238.516042 
L 757.964962 238.803826 
L 761.793484 244.530699 
L 765.622006 243.073614 
L 769.450527 238.041429 
L 780.936093 232.682777 
L 784.764615 238.942842 
L 788.593137 245.77163 
L 792.421659 238.585028 
L 796.25018 233.475775 
L 807.735746 240.194524 
L 811.564268 242.155277 
L 815.39279 237.764353 
L 819.221312 238.733777 
L 823.049833 235.587454 
L 834.535399 229.378421 
L 838.363921 222.459303 
L 842.192443 226.103351 
L 846.020965 235.542875 
L 849.849486 228.886383 
L 861.335052 227.750251 
L 865.163574 224.995569 
L 868.992096 221.496045 
L 872.820618 223.704417 
L 876.649139 223.729571 
L 888.134705 224.990648 
L 891.963227 229.763909 
L 895.791749 218.35645 
L 899.620271 217.56197 
L 903.448793 209.295273 
L 914.934358 219.673811 
L 918.76288 211.151607 
L 922.591402 204.286899 
L 926.419924 206.222457 
L 930.248446 196.842264 
L 941.734011 208.649452 
L 945.562533 216.346441 
L 949.391055 212.539569 
L 953.219577 210.293923 
L 957.048099 206.086541 
L 968.533664 206.026802 
L 972.362186 210.947228 
L 976.190708 213.39173 
L 980.01923 221.057077 
L 983.847752 220.916736 
L 995.333317 220.328354 
L 999.161839 221.528675 
L 1002.990361 223.025127 
L 1006.818883 221.527004 
L 1010.647405 215.903557 
L 1022.13297 207.546952 
L 1025.961492 213.516695 
L 1029.790014 212.921785 
L 1033.618536 217.358807 
L 1037.447058 216.609529 
L 1048.932623 209.989853 
L 1052.761145 212.318477 
L 1056.589667 213.938914 
L 1060.418189 217.943269 
L 1064.246711 209.879395 
L 1075.732276 218.684502 
L 1079.560798 212.634824 
L 1083.38932 216.3217 
L 1087.217842 210.398286 
L 1091.046364 217.241274 
L 1091.046364 217.241274 
" style="fill:none;stroke:#9467bd;stroke-linecap:square;stroke-width:1.5;"/>
   </g>
   <g id="line2d_22">
    <path clip-path="url(#p960bf448c3)" d="M 87.973636 306.445073 
L 91.802158 305.437501 
L 95.63068 303.322208 
L 99.459202 308.398828 
L 110.944768 303.899976 
L 114.773289 300.418094 
L 126.258855 310.101645 
L 137.744421 311.909135 
L 141.572942 311.689501 
L 145.401464 312.296261 
L 149.229986 314.13227 
L 153.058508 313.189666 
L 164.544074 316.295677 
L 168.372595 317.957375 
L 172.201117 318.981331 
L 176.029639 319.308933 
L 179.858161 317.200958 
L 191.343727 319.547537 
L 195.172248 319.442998 
L 199.00077 318.762362 
L 202.829292 322.164508 
L 206.657814 321.430974 
L 218.14338 323.726575 
L 221.971901 326.557355 
L 225.800423 323.890007 
L 229.628945 320.874748 
L 233.457467 318.691702 
L 244.943033 320.160086 
L 248.771554 323.065541 
L 252.600076 321.842138 
L 256.428598 322.2542 
L 260.25712 324.825394 
L 271.742686 324.855724 
L 275.571207 327.780921 
L 279.399729 325.448841 
L 283.228251 326.935687 
L 287.056773 325.982252 
L 298.542339 327.122751 
L 302.370861 327.005773 
L 306.199382 326.732402 
L 310.027904 328.594013 
L 313.856426 325.994945 
L 325.341992 324.329115 
L 332.999035 318.777911 
L 336.827557 318.043852 
L 340.656079 314.818684 
L 352.141645 318.230036 
L 355.970167 320.542883 
L 359.798688 323.792258 
L 363.62721 324.926768 
L 367.455732 325.624569 
L 378.941298 327.025906 
L 382.76982 325.103302 
L 386.598341 325.996154 
L 390.426863 327.322463 
L 394.255385 327.07529 
L 405.740951 329.171779 
L 409.569473 327.534091 
L 413.397994 329.979067 
L 417.226516 327.419106 
L 421.055038 325.848307 
L 432.540604 327.68131 
L 436.369126 330.508421 
L 440.197647 328.883182 
L 444.026169 327.750226 
L 447.854691 326.444065 
L 459.340257 324.825987 
L 463.168779 327.504578 
L 466.9973 328.318784 
L 470.825822 330.466026 
L 474.654344 328.592259 
L 486.13991 327.909782 
L 489.968432 328.868873 
L 493.796954 331.260509 
L 501.453997 333.047183 
L 512.939563 331.980848 
L 516.768085 331.312668 
L 520.596607 329.380053 
L 524.425128 329.52947 
L 528.25365 331.563779 
L 539.739216 330.510164 
L 543.567738 329.166705 
L 547.39626 328.834565 
L 551.224781 327.347845 
L 555.053303 327.383732 
L 566.538869 327.252407 
L 570.367391 327.672897 
L 574.195913 330.387048 
L 578.024434 332.416687 
L 581.852956 334.651906 
L 593.338522 334.06217 
L 597.167044 334.886652 
L 600.995566 334.850001 
L 604.824087 333.104138 
L 608.652609 334.265617 
L 620.138175 334.659977 
L 623.966697 333.555579 
L 627.795219 334.787517 
L 631.62374 336.604864 
L 635.452262 337.431699 
L 646.937828 338.707976 
L 650.76635 337.198863 
L 654.594872 336.023737 
L 658.423393 335.483601 
L 662.251915 333.939474 
L 673.737481 332.583355 
L 677.566003 334.068059 
L 681.394525 332.325091 
L 685.223046 332.136696 
L 689.051568 330.652902 
L 700.537134 328.623707 
L 704.365656 329.629945 
L 708.194178 331.707448 
L 712.0227 333.043868 
L 715.851221 333.382441 
L 727.336787 331.926843 
L 731.165309 330.170713 
L 734.993831 332.74417 
L 738.822353 332.693606 
L 742.650874 333.083005 
L 754.13644 334.371599 
L 757.964962 336.036325 
L 761.793484 336.693393 
L 765.622006 334.959424 
L 769.450527 335.712888 
L 780.936093 335.635639 
L 784.764615 334.797881 
L 788.593137 335.383462 
L 792.421659 333.412859 
L 796.25018 331.298987 
L 807.735746 332.538544 
L 811.564268 332.551602 
L 819.221312 334.476022 
L 823.049833 336.494465 
L 834.535399 336.061167 
L 838.363921 336.05034 
L 842.192443 337.863962 
L 846.020965 338.678728 
L 849.849486 337.242497 
L 861.335052 338.233497 
L 865.163574 339.514336 
L 868.992096 339.549677 
L 872.820618 337.925812 
L 876.649139 338.872073 
L 888.134705 338.273177 
L 891.963227 337.33161 
L 895.791749 338.325257 
L 899.620271 337.506285 
L 903.448793 338.002412 
L 914.934358 337.519079 
L 918.76288 337.018368 
L 922.591402 336.880637 
L 926.419924 338.469288 
L 930.248446 337.275689 
L 941.734011 337.956454 
L 945.562533 339.104529 
L 949.391055 340.68092 
L 953.219577 340.397566 
L 957.048099 339.833957 
L 968.533664 341.422853 
L 972.362186 341.386948 
L 976.190708 342.200962 
L 980.01923 341.792528 
L 983.847752 342.735277 
L 995.333317 342.21849 
L 999.161839 342.536756 
L 1002.990361 341.337374 
L 1006.818883 342.419792 
L 1010.647405 342.859986 
L 1022.13297 343.896507 
L 1029.790014 341.832712 
L 1033.618536 342.531555 
L 1037.447058 342.092028 
L 1048.932623 341.192633 
L 1056.589667 340.93581 
L 1060.418189 341.727411 
L 1064.246711 342.910728 
L 1075.732276 341.849573 
L 1079.560798 340.694882 
L 1083.38932 340.280318 
L 1091.046364 341.261669 
L 1091.046364 341.261669 
" style="fill:none;stroke:#8c564b;stroke-linecap:square;stroke-width:1.5;"/>
   </g>
   <g id="line2d_23">
    <path clip-path="url(#p960bf448c3)" d="M 87.973636 312.032492 
L 91.802158 314.630081 
L 95.63068 316.514415 
L 99.459202 313.019359 
L 110.944768 313.934831 
L 114.773289 316.063622 
L 118.601811 313.408434 
L 122.430333 310.269439 
L 126.258855 306.250201 
L 137.744421 303.373925 
L 141.572942 304.818536 
L 145.401464 302.25697 
L 149.229986 304.041347 
L 153.058508 304.066432 
L 164.544074 301.319441 
L 168.372595 294.513702 
L 172.201117 295.989036 
L 176.029639 299.897247 
L 179.858161 298.019037 
L 191.343727 298.569861 
L 195.172248 295.188332 
L 199.00077 297.661954 
L 202.829292 290.453634 
L 206.657814 287.741688 
L 218.14338 283.174746 
L 221.971901 281.013084 
L 225.800423 285.070682 
L 229.628945 293.121364 
L 233.457467 300.387123 
L 244.943033 297.69395 
L 248.771554 292.157162 
L 252.600076 291.469122 
L 256.428598 296.668912 
L 260.25712 292.043966 
L 271.742686 296.242355 
L 275.571207 288.129367 
L 279.399729 292.178691 
L 283.228251 287.69536 
L 287.056773 285.390533 
L 298.542339 281.174564 
L 302.370861 274.422287 
L 306.199382 272.779194 
L 310.027904 269.177992 
L 313.856426 280.69226 
L 325.341992 284.664129 
L 329.170514 295.49868 
L 332.999035 300.184643 
L 336.827557 300.436867 
L 340.656079 306.615525 
L 352.141645 298.56585 
L 355.970167 292.979007 
L 359.798688 287.112645 
L 363.62721 281.63381 
L 367.455732 281.066145 
L 378.941298 274.861587 
L 382.76982 280.297035 
L 386.598341 278.055731 
L 390.426863 267.949953 
L 394.255385 271.519964 
L 405.740951 264.437465 
L 409.569473 270.804284 
L 413.397994 263.241641 
L 417.226516 271.908938 
L 421.055038 282.573229 
L 432.540604 277.167792 
L 436.369126 268.498797 
L 440.197647 280.378744 
L 444.026169 279.949729 
L 447.854691 286.777216 
L 459.340257 285.279782 
L 463.168779 274.821443 
L 466.9973 276.29959 
L 470.825822 272.36528 
L 474.654344 272.837095 
L 486.13991 272.623978 
L 489.968432 269.998171 
L 493.796954 262.711627 
L 497.625475 260.27009 
L 501.453997 261.781864 
L 512.939563 262.667799 
L 516.768085 259.126462 
L 520.596607 266.956961 
L 524.425128 268.082534 
L 528.25365 267.633745 
L 539.739216 270.776297 
L 543.567738 275.111895 
L 547.39626 275.326781 
L 551.224781 275.355171 
L 555.053303 269.25517 
L 566.538869 270.10015 
L 570.367391 269.55285 
L 574.195913 260.919298 
L 578.024434 253.634754 
L 581.852956 240.626877 
L 593.338522 239.828278 
L 597.167044 234.208092 
L 600.995566 238.990849 
L 604.824087 243.502551 
L 608.652609 234.800846 
L 620.138175 232.48976 
L 623.966697 236.730075 
L 627.795219 224.630032 
L 631.62374 211.189829 
L 635.452262 206.32328 
L 646.937828 185.328704 
L 650.76635 205.020866 
L 654.594872 212.235886 
L 658.423393 214.836349 
L 662.251915 228.156694 
L 673.737481 226.685966 
L 677.566003 217.646063 
L 681.394525 217.45314 
L 689.051568 236.561146 
L 700.537134 241.962693 
L 704.365656 240.514264 
L 708.194178 241.347913 
L 712.0227 231.340871 
L 715.851221 222.020671 
L 727.336787 223.493628 
L 731.165309 228.351238 
L 734.993831 223.810535 
L 738.822353 222.60437 
L 742.650874 211.497099 
L 754.13644 192.318338 
L 757.964962 180.254429 
L 761.793484 183.119436 
L 765.622006 196.19938 
L 769.450527 183.423413 
L 780.936093 176.238759 
L 784.764615 192.667802 
L 788.593137 197.727928 
L 792.421659 202.37589 
L 796.25018 209.928016 
L 807.735746 210.670371 
L 811.564268 213.049732 
L 815.39279 201.835285 
L 819.221312 196.453088 
L 823.049833 177.37245 
L 834.535399 172.088366 
L 838.363921 162.143987 
L 842.192443 150.016855 
L 846.020965 155.843266 
L 849.849486 161.157662 
L 861.335052 149.25461 
L 865.163574 130.115121 
L 868.992096 123.609172 
L 872.820618 150.019702 
L 876.649139 139.4187 
L 888.134705 148.947475 
L 891.963227 167.333503 
L 895.791749 140.382542 
L 899.620271 148.992595 
L 903.448793 131.158193 
L 914.934358 153.011078 
L 918.76288 145.757917 
L 922.591402 137.305961 
L 926.419924 122.152346 
L 930.248446 123.216384 
L 941.734011 132.122849 
L 945.562533 129.756933 
L 949.391055 102.790292 
L 953.219577 103.437769 
L 957.048099 105.12923 
L 968.533664 80.748611 
L 972.362186 90.438291 
L 976.190708 80.368805 
L 980.01923 103.181473 
L 983.847752 86.436082 
L 995.333317 95.567327 
L 999.161839 91.963625 
L 1002.990361 117.985002 
L 1006.818883 98.031327 
L 1010.647405 79.04526 
L 1022.13297 41.11 
L 1025.961492 80.529736 
L 1029.790014 100.19 
L 1033.618536 95.719254 
L 1037.447058 102.650586 
L 1048.932623 106.719996 
L 1052.761145 113.447637 
L 1056.589667 117.621014 
L 1060.418189 112.01398 
L 1064.246711 77.897517 
L 1075.732276 116.755815 
L 1079.560798 125.40525 
L 1083.38932 137.47683 
L 1087.217842 121.17243 
L 1091.046364 125.111109 
L 1091.046364 125.111109 
" style="fill:none;stroke:#e377c2;stroke-linecap:square;stroke-width:1.5;"/>
   </g>
   <g id="line2d_24">
    <path clip-path="url(#p960bf448c3)" d="M 87.973636 306.415449 
L 91.802158 305.851564 
L 95.63068 303.14671 
L 99.459202 307.472135 
L 110.944768 305.685299 
L 114.773289 298.803779 
L 118.601811 302.13358 
L 122.430333 306.100108 
L 126.258855 308.33862 
L 137.744421 306.300941 
L 141.572942 302.914256 
L 145.401464 302.846354 
L 149.229986 303.227549 
L 153.058508 305.076518 
L 164.544074 309.540826 
L 168.372595 313.448342 
L 172.201117 314.475232 
L 176.029639 315.041431 
L 179.858161 311.97532 
L 191.343727 313.60534 
L 195.172248 316.957767 
L 199.00077 318.653809 
L 202.829292 322.229495 
L 206.657814 318.555205 
L 218.14338 319.192909 
L 221.971901 322.411256 
L 225.800423 319.116093 
L 229.628945 314.085594 
L 233.457467 310.510887 
L 244.943033 313.127523 
L 248.771554 318.482641 
L 252.600076 318.606517 
L 256.428598 319.707004 
L 260.25712 323.428382 
L 271.742686 320.83002 
L 275.571207 325.556261 
L 279.399729 322.489497 
L 283.228251 326.583604 
L 287.056773 325.547718 
L 298.542339 327.082701 
L 302.370861 328.453779 
L 306.199382 327.041104 
L 310.027904 329.646076 
L 313.856426 327.903048 
L 325.341992 327.20139 
L 329.170514 323.838909 
L 332.999035 319.637905 
L 336.827557 320.824217 
L 340.656079 318.561073 
L 352.141645 323.924607 
L 355.970167 326.114788 
L 359.798688 327.619144 
L 363.62721 329.803687 
L 367.455732 329.986333 
L 378.941298 330.110544 
L 382.76982 328.78157 
L 386.598341 328.442106 
L 390.426863 330.27686 
L 394.255385 329.175322 
L 405.740951 329.877496 
L 409.569473 328.300335 
L 413.397994 329.111981 
L 417.226516 327.604948 
L 421.055038 324.547485 
L 432.540604 325.174517 
L 436.369126 329.617988 
L 440.197647 327.332617 
L 444.026169 325.928206 
L 447.854691 323.562582 
L 459.340257 324.570329 
L 463.168779 327.670259 
L 466.9973 326.883063 
L 470.825822 329.019078 
L 474.654344 327.000012 
L 486.13991 324.525102 
L 489.968432 324.448689 
L 493.796954 328.93282 
L 497.625475 328.785769 
L 501.453997 329.551922 
L 512.939563 327.316457 
L 520.596607 324.839598 
L 524.425128 325.066868 
L 528.25365 325.157862 
L 539.739216 323.819585 
L 543.567738 323.875764 
L 547.39626 323.637455 
L 551.224781 321.114028 
L 555.053303 319.409185 
L 566.538869 317.745426 
L 570.367391 320.069698 
L 574.195913 325.669408 
L 578.024434 327.299606 
L 581.852956 330.008089 
L 593.338522 328.620054 
L 597.167044 331.287578 
L 600.995566 333.51738 
L 604.824087 332.479949 
L 608.652609 333.022426 
L 620.138175 332.765543 
L 623.966697 329.822739 
L 627.795219 330.066376 
L 631.62374 332.496558 
L 635.452262 332.456716 
L 646.937828 333.414925 
L 650.76635 332.71874 
L 654.594872 331.314391 
L 658.423393 329.18408 
L 662.251915 325.533979 
L 673.737481 325.645837 
L 677.566003 327.232108 
L 681.394525 325.331886 
L 685.223046 325.644581 
L 689.051568 324.226889 
L 700.537134 321.61617 
L 704.365656 324.55824 
L 708.194178 326.136907 
L 712.0227 329.457045 
L 715.851221 329.341342 
L 727.336787 328.206093 
L 731.165309 326.856261 
L 734.993831 329.012123 
L 738.822353 327.100587 
L 742.650874 329.141673 
L 754.13644 330.32192 
L 757.964962 332.221623 
L 761.793484 332.275503 
L 765.622006 330.527252 
L 769.450527 331.704294 
L 780.936093 331.207681 
L 784.764615 330.08146 
L 788.593137 331.700339 
L 792.421659 329.894157 
L 796.25018 326.600042 
L 807.735746 327.466867 
L 811.564268 325.772807 
L 815.39279 325.146727 
L 819.221312 325.951912 
L 823.049833 330.03102 
L 834.535399 331.779558 
L 838.363921 330.920054 
L 842.192443 331.578466 
L 846.020965 332.817498 
L 849.849486 331.668721 
L 861.335052 332.456237 
L 865.163574 335.616254 
L 868.992096 335.723656 
L 872.820618 333.579223 
L 876.649139 335.836612 
L 888.134705 335.548236 
L 891.963227 334.584392 
L 895.791749 337.519124 
L 899.620271 336.749406 
L 903.448793 337.846958 
L 914.934358 337.502499 
L 918.76288 336.645146 
L 922.591402 335.13729 
L 926.419924 336.092142 
L 930.248446 334.269542 
L 941.734011 335.173347 
L 945.562533 336.592345 
L 949.391055 339.738065 
L 953.219577 339.469179 
L 957.048099 339.919136 
L 968.533664 341.825113 
L 972.362186 341.949226 
L 976.190708 341.805687 
L 983.847752 342.801366 
L 995.333317 342.358042 
L 999.161839 342.676467 
L 1002.990361 342.154495 
L 1010.647405 343.505105 
L 1022.13297 344.91 
L 1025.961492 344.129808 
L 1029.790014 342.989431 
L 1033.618536 344.506862 
L 1037.447058 343.461998 
L 1048.932623 342.088348 
L 1052.761145 341.855839 
L 1056.589667 340.946374 
L 1060.418189 342.598441 
L 1064.246711 344.057024 
L 1075.732276 342.827221 
L 1079.560798 341.442242 
L 1083.38932 340.280908 
L 1091.046364 341.821028 
L 1091.046364 341.821028 
" style="fill:none;stroke:#7f7f7f;stroke-linecap:square;stroke-width:1.5;"/>
   </g>
   <g id="line2d_25">
    <path clip-path="url(#p960bf448c3)" d="M 87.973636 308.603052 
L 91.802158 310.862882 
L 99.459202 310.184438 
L 110.944768 309.472402 
L 114.773289 305.459287 
L 118.601811 305.047912 
L 122.430333 305.049593 
L 126.258855 302.859645 
L 137.744421 297.517783 
L 141.572942 295.140341 
L 145.401464 292.019124 
L 149.229986 294.600184 
L 153.058508 296.779518 
L 164.544074 298.836941 
L 168.372595 296.526344 
L 172.201117 299.386304 
L 176.029639 303.844872 
L 179.858161 298.199371 
L 191.343727 300.885479 
L 195.172248 301.99161 
L 199.00077 306.531466 
L 202.829292 305.142118 
L 206.657814 297.516642 
L 218.14338 294.594605 
L 221.971901 298.124299 
L 225.800423 295.600374 
L 229.628945 294.245808 
L 233.457467 296.126183 
L 244.943033 296.666882 
L 248.771554 298.431414 
L 252.600076 298.000321 
L 256.428598 304.378625 
L 260.25712 305.633537 
L 271.742686 304.93723 
L 275.571207 304.845226 
L 279.399729 302.766283 
L 283.228251 305.508239 
L 287.056773 302.030785 
L 298.542339 301.514654 
L 302.370861 299.163538 
L 306.199382 295.116828 
L 310.027904 297.929481 
L 313.856426 301.822877 
L 325.341992 303.337438 
L 329.170514 305.223396 
L 332.999035 302.546954 
L 336.827557 304.528377 
L 340.656079 306.950585 
L 352.141645 305.970263 
L 355.970167 304.506311 
L 359.798688 302.290838 
L 363.62721 302.130371 
L 367.455732 302.092236 
L 378.941298 297.878482 
L 382.76982 298.810541 
L 386.598341 296.405813 
L 390.426863 292.618157 
L 394.255385 292.493472 
L 405.740951 288.816622 
L 409.569473 289.462136 
L 413.397994 285.489272 
L 417.226516 288.155874 
L 421.055038 289.500864 
L 432.540604 285.92337 
L 436.369126 288.266644 
L 440.197647 291.639495 
L 444.026169 288.137332 
L 447.854691 288.920149 
L 459.340257 289.544066 
L 463.168779 286.239331 
L 466.9973 285.582621 
L 470.825822 287.243182 
L 474.654344 282.516811 
L 486.13991 276.092015 
L 489.968432 273.382075 
L 493.796954 278.061996 
L 497.625475 275.600345 
L 501.453997 279.119554 
L 512.939563 273.38756 
L 516.768085 266.792408 
L 520.596607 270.24192 
L 524.425128 271.948178 
L 539.739216 271.125958 
L 543.567738 275.59123 
L 547.39626 275.211313 
L 551.224781 268.971379 
L 555.053303 258.156541 
L 566.538869 254.680685 
L 574.195913 265.463181 
L 578.024434 263.363568 
L 581.852956 260.275069 
L 593.338522 254.538225 
L 597.167044 259.443081 
L 600.995566 271.879785 
L 604.824087 271.278142 
L 608.652609 266.657929 
L 620.138175 263.962707 
L 623.966697 255.567108 
L 627.795219 246.301554 
L 631.62374 245.273275 
L 635.452262 241.363999 
L 646.937828 229.899585 
L 650.76635 240.607586 
L 654.594872 239.227677 
L 658.423393 231.34902 
L 662.251915 226.278901 
L 673.737481 225.259716 
L 677.566003 222.906705 
L 681.394525 213.993449 
L 685.223046 225.223223 
L 689.051568 228.842847 
L 700.537134 224.210064 
L 704.365656 233.748862 
L 708.194178 240.730815 
L 712.0227 243.40101 
L 715.851221 234.493478 
L 727.336787 230.695497 
L 731.165309 229.249368 
L 734.993831 234.050898 
L 738.822353 224.366567 
L 742.650874 222.635936 
L 754.13644 210.74702 
L 757.964962 210.693757 
L 761.793484 213.389483 
L 765.622006 213.771758 
L 769.450527 208.914205 
L 780.936093 199.810042 
L 784.764615 207.056777 
L 788.593137 220.896206 
L 792.421659 214.912628 
L 796.25018 204.194196 
L 807.735746 209.408847 
L 811.564268 203.170714 
L 815.39279 188.039567 
L 819.221312 186.529043 
L 823.049833 189.102284 
L 834.535399 195.305211 
L 838.363921 180.964872 
L 842.192443 174.566972 
L 846.020965 188.818396 
L 849.849486 185.055569 
L 861.335052 180.091585 
L 865.163574 187.183078 
L 868.992096 183.198196 
L 872.820618 184.779378 
L 876.649139 193.026927 
L 888.134705 197.896029 
L 891.963227 204.573982 
L 895.791749 203.46593 
L 899.620271 203.286946 
L 903.448793 198.726377 
L 914.934358 211.074094 
L 918.76288 199.259364 
L 922.591402 180.890726 
L 926.419924 176.678345 
L 930.248446 161.271307 
L 941.734011 176.734822 
L 945.562533 186.91659 
L 949.391055 193.830456 
L 953.219577 191.603092 
L 957.048099 197.115243 
L 968.533664 200.218787 
L 972.362186 207.047827 
L 976.190708 199.899595 
L 980.01923 217.677322 
L 983.847752 213.919505 
L 995.333317 214.050558 
L 999.161839 215.340251 
L 1002.990361 223.802756 
L 1006.818883 218.903048 
L 1010.647405 215.856709 
L 1022.13297 212.098604 
L 1025.961492 220.228195 
L 1029.790014 217.147158 
L 1033.618536 230.616435 
L 1037.447058 222.79631 
L 1048.932623 210.621081 
L 1052.761145 212.159411 
L 1056.589667 205.542476 
L 1060.418189 218.253134 
L 1064.246711 213.702201 
L 1075.732276 219.245201 
L 1079.560798 210.074345 
L 1083.38932 206.2671 
L 1087.217842 201.888163 
L 1091.046364 212.722868 
L 1091.046364 212.722868 
" style="fill:none;stroke:#bcbd22;stroke-linecap:square;stroke-width:1.5;"/>
   </g>
   <g id="patch_3">
    <path d="M 37.82 360.1 
L 37.82 25.92 
" style="fill:none;stroke:#000000;stroke-linecap:square;stroke-linejoin:miter;stroke-width:0.8;"/>
   </g>
   <g id="patch_4">
    <path d="M 1141.2 360.1 
L 1141.2 25.92 
" style="fill:none;stroke:#000000;stroke-linecap:square;stroke-linejoin:miter;stroke-width:0.8;"/>
   </g>
   <g id="patch_5">
    <path d="M 37.82 360.1 
L 1141.2 360.1 
" style="fill:none;stroke:#000000;stroke-linecap:square;stroke-linejoin:miter;stroke-width:0.8;"/>
   </g>
   <g id="patch_6">
    <path d="M 37.82 25.92 
L 1141.2 25.92 
" style="fill:none;stroke:#000000;stroke-linecap:square;stroke-linejoin:miter;stroke-width:0.8;"/>
   </g>
   <g id="text_10">
    <!-- Net Value: (2010-01-12 ~ 2010-10-08) -->
    <g transform="translate(473.4025 19.92)scale(0.12 -0.12)">
     <defs>
      <path d="M 9.8125 72.90625 
L 23.09375 72.90625 
L 55.421875 11.921875 
L 55.421875 72.90625 
L 64.984375 72.90625 
L 64.984375 0 
L 51.703125 0 
L 19.390625 60.984375 
L 19.390625 0 
L 9.8125 0 
z
" id="DejaVuSans-78"/>
      <path d="M 28.609375 0 
L 0.78125 72.90625 
L 11.078125 72.90625 
L 34.1875 11.53125 
L 57.328125 72.90625 
L 67.578125 72.90625 
L 39.796875 0 
z
" id="DejaVuSans-86"/>
      <path d="M 11.71875 12.40625 
L 22.015625 12.40625 
L 22.015625 0 
L 11.71875 0 
z
M 11.71875 51.703125 
L 22.015625 51.703125 
L 22.015625 39.3125 
L 11.71875 39.3125 
z
" id="DejaVuSans-58"/>
      <path d="M 31 75.875 
Q 24.46875 64.65625 21.28125 53.65625 
Q 18.109375 42.671875 18.109375 31.390625 
Q 18.109375 20.125 21.3125 9.0625 
Q 24.515625 -2 31 -13.1875 
L 23.1875 -13.1875 
Q 15.875 -1.703125 12.234375 9.375 
Q 8.59375 20.453125 8.59375 31.390625 
Q 8.59375 42.28125 12.203125 53.3125 
Q 15.828125 64.359375 23.1875 75.875 
z
" id="DejaVuSans-40"/>
      <path d="M 4.890625 31.390625 
L 31.203125 31.390625 
L 31.203125 23.390625 
L 4.890625 23.390625 
z
" id="DejaVuSans-45"/>
      <path d="M 73.1875 39.890625 
L 73.1875 31.203125 
Q 68.0625 27.34375 63.6875 25.6875 
Q 59.328125 24.03125 54.59375 24.03125 
Q 49.21875 24.03125 42.09375 26.90625 
Q 41.546875 27.09375 41.3125 27.203125 
Q 40.96875 27.34375 40.234375 27.59375 
Q 32.671875 30.609375 28.078125 30.609375 
Q 23.78125 30.609375 19.578125 28.734375 
Q 15.375 26.859375 10.59375 22.796875 
L 10.59375 31.5 
Q 15.71875 35.359375 20.09375 37.03125 
Q 24.46875 38.71875 29.203125 38.71875 
Q 34.578125 38.71875 41.75 35.796875 
Q 42.234375 35.59375 42.484375 35.5 
Q 42.875 35.359375 43.5625 35.109375 
Q 51.125 32.078125 55.71875 32.078125 
Q 59.90625 32.078125 64.03125 33.9375 
Q 68.171875 35.796875 73.1875 39.890625 
z
" id="DejaVuSans-126"/>
      <path d="M 31.78125 34.625 
Q 24.75 34.625 20.71875 30.859375 
Q 16.703125 27.09375 16.703125 20.515625 
Q 16.703125 13.921875 20.71875 10.15625 
Q 24.75 6.390625 31.78125 6.390625 
Q 38.8125 6.390625 42.859375 10.171875 
Q 46.921875 13.96875 46.921875 20.515625 
Q 46.921875 27.09375 42.890625 30.859375 
Q 38.875 34.625 31.78125 34.625 
z
M 21.921875 38.8125 
Q 15.578125 40.375 12.03125 44.71875 
Q 8.5 49.078125 8.5 55.328125 
Q 8.5 64.0625 14.71875 69.140625 
Q 20.953125 74.21875 31.78125 74.21875 
Q 42.671875 74.21875 48.875 69.140625 
Q 55.078125 64.0625 55.078125 55.328125 
Q 55.078125 49.078125 51.53125 44.71875 
Q 48 40.375 41.703125 38.8125 
Q 48.828125 37.15625 52.796875 32.3125 
Q 56.78125 27.484375 56.78125 20.515625 
Q 56.78125 9.90625 50.3125 4.234375 
Q 43.84375 -1.421875 31.78125 -1.421875 
Q 19.734375 -1.421875 13.25 4.234375 
Q 6.78125 9.90625 6.78125 20.515625 
Q 6.78125 27.484375 10.78125 32.3125 
Q 14.796875 37.15625 21.921875 38.8125 
z
M 18.3125 54.390625 
Q 18.3125 48.734375 21.84375 45.5625 
Q 25.390625 42.390625 31.78125 42.390625 
Q 38.140625 42.390625 41.71875 45.5625 
Q 45.3125 48.734375 45.3125 54.390625 
Q 45.3125 60.0625 41.71875 63.234375 
Q 38.140625 66.40625 31.78125 66.40625 
Q 25.390625 66.40625 21.84375 63.234375 
Q 18.3125 60.0625 18.3125 54.390625 
z
" id="DejaVuSans-56"/>
      <path d="M 8.015625 75.875 
L 15.828125 75.875 
Q 23.140625 64.359375 26.78125 53.3125 
Q 30.421875 42.28125 30.421875 31.390625 
Q 30.421875 20.453125 26.78125 9.375 
Q 23.140625 -1.703125 15.828125 -13.1875 
L 8.015625 -13.1875 
Q 14.5 -2 17.703125 9.0625 
Q 20.90625 20.125 20.90625 31.390625 
Q 20.90625 42.671875 17.703125 53.65625 
Q 14.5 64.65625 8.015625 75.875 
z
" id="DejaVuSans-41"/>
     </defs>
     <use xlink:href="#DejaVuSans-78"/>
     <use x="74.804688" xlink:href="#DejaVuSans-101"/>
     <use x="136.328125" xlink:href="#DejaVuSans-116"/>
     <use x="175.537109" xlink:href="#DejaVuSans-32"/>
     <use x="207.324219" xlink:href="#DejaVuSans-86"/>
     <use x="267.982422" xlink:href="#DejaVuSans-97"/>
     <use x="329.261719" xlink:href="#DejaVuSans-108"/>
     <use x="357.044922" xlink:href="#DejaVuSans-117"/>
     <use x="420.423828" xlink:href="#DejaVuSans-101"/>
     <use x="481.947266" xlink:href="#DejaVuSans-58"/>
     <use x="515.638672" xlink:href="#DejaVuSans-32"/>
     <use x="547.425781" xlink:href="#DejaVuSans-40"/>
     <use x="586.439453" xlink:href="#DejaVuSans-50"/>
     <use x="650.0625" xlink:href="#DejaVuSans-48"/>
     <use x="713.685547" xlink:href="#DejaVuSans-49"/>
     <use x="777.308594" xlink:href="#DejaVuSans-48"/>
     <use x="840.931641" xlink:href="#DejaVuSans-45"/>
     <use x="877.015625" xlink:href="#DejaVuSans-48"/>
     <use x="940.638672" xlink:href="#DejaVuSans-49"/>
     <use x="1004.261719" xlink:href="#DejaVuSans-45"/>
     <use x="1040.345703" xlink:href="#DejaVuSans-49"/>
     <use x="1103.96875" xlink:href="#DejaVuSans-50"/>
     <use x="1167.591797" xlink:href="#DejaVuSans-32"/>
     <use x="1199.378906" xlink:href="#DejaVuSans-126"/>
     <use x="1283.167969" xlink:href="#DejaVuSans-32"/>
     <use x="1314.955078" xlink:href="#DejaVuSans-50"/>
     <use x="1378.578125" xlink:href="#DejaVuSans-48"/>
     <use x="1442.201172" xlink:href="#DejaVuSans-49"/>
     <use x="1505.824219" xlink:href="#DejaVuSans-48"/>
     <use x="1569.447266" xlink:href="#DejaVuSans-45"/>
     <use x="1605.53125" xlink:href="#DejaVuSans-49"/>
     <use x="1669.154297" xlink:href="#DejaVuSans-48"/>
     <use x="1732.777344" xlink:href="#DejaVuSans-45"/>
     <use x="1768.861328" xlink:href="#DejaVuSans-48"/>
     <use x="1832.484375" xlink:href="#DejaVuSans-56"/>
     <use x="1896.107422" xlink:href="#DejaVuSans-41"/>
    </g>
   </g>
   <g id="legend_1">
    <g id="patch_7">
     <path d="M 44.82 168.248125 
L 141.309062 168.248125 
Q 143.309062 168.248125 143.309062 166.248125 
L 143.309062 32.92 
Q 143.309062 30.92 141.309062 30.92 
L 44.82 30.92 
Q 42.82 30.92 42.82 32.92 
L 42.82 166.248125 
Q 42.82 168.248125 44.82 168.248125 
z
" style="fill:#ffffff;opacity:0.8;stroke:#cccccc;stroke-linejoin:miter;"/>
    </g>
    <g id="line2d_26">
     <path d="M 46.82 39.018438 
L 66.82 39.018438 
" style="fill:none;stroke:#1f77b4;stroke-linecap:square;stroke-width:1.5;"/>
    </g>
    <g id="line2d_27"/>
    <g id="text_11">
     <!-- group_1 -->
     <g transform="translate(74.82 42.518438)scale(0.1 -0.1)">
      <defs>
       <path d="M 45.40625 27.984375 
Q 45.40625 37.75 41.375 43.109375 
Q 37.359375 48.484375 30.078125 48.484375 
Q 22.859375 48.484375 18.828125 43.109375 
Q 14.796875 37.75 14.796875 27.984375 
Q 14.796875 18.265625 18.828125 12.890625 
Q 22.859375 7.515625 30.078125 7.515625 
Q 37.359375 7.515625 41.375 12.890625 
Q 45.40625 18.265625 45.40625 27.984375 
z
M 54.390625 6.78125 
Q 54.390625 -7.171875 48.1875 -13.984375 
Q 42 -20.796875 29.203125 -20.796875 
Q 24.46875 -20.796875 20.265625 -20.09375 
Q 16.0625 -19.390625 12.109375 -17.921875 
L 12.109375 -9.1875 
Q 16.0625 -11.328125 19.921875 -12.34375 
Q 23.78125 -13.375 27.78125 -13.375 
Q 36.625 -13.375 41.015625 -8.765625 
Q 45.40625 -4.15625 45.40625 5.171875 
L 45.40625 9.625 
Q 42.625 4.78125 38.28125 2.390625 
Q 33.9375 0 27.875 0 
Q 17.828125 0 11.671875 7.65625 
Q 5.515625 15.328125 5.515625 27.984375 
Q 5.515625 40.671875 11.671875 48.328125 
Q 17.828125 56 27.875 56 
Q 33.9375 56 38.28125 53.609375 
Q 42.625 51.21875 45.40625 46.390625 
L 45.40625 54.6875 
L 54.390625 54.6875 
z
" id="DejaVuSans-103"/>
       <path d="M 41.109375 46.296875 
Q 39.59375 47.171875 37.8125 47.578125 
Q 36.03125 48 33.890625 48 
Q 26.265625 48 22.1875 43.046875 
Q 18.109375 38.09375 18.109375 28.8125 
L 18.109375 0 
L 9.078125 0 
L 9.078125 54.6875 
L 18.109375 54.6875 
L 18.109375 46.1875 
Q 20.953125 51.171875 25.484375 53.578125 
Q 30.03125 56 36.53125 56 
Q 37.453125 56 38.578125 55.875 
Q 39.703125 55.765625 41.0625 55.515625 
z
" id="DejaVuSans-114"/>
       <path d="M 30.609375 48.390625 
Q 23.390625 48.390625 19.1875 42.75 
Q 14.984375 37.109375 14.984375 27.296875 
Q 14.984375 17.484375 19.15625 11.84375 
Q 23.34375 6.203125 30.609375 6.203125 
Q 37.796875 6.203125 41.984375 11.859375 
Q 46.1875 17.53125 46.1875 27.296875 
Q 46.1875 37.015625 41.984375 42.703125 
Q 37.796875 48.390625 30.609375 48.390625 
z
M 30.609375 56 
Q 42.328125 56 49.015625 48.375 
Q 55.71875 40.765625 55.71875 27.296875 
Q 55.71875 13.875 49.015625 6.21875 
Q 42.328125 -1.421875 30.609375 -1.421875 
Q 18.84375 -1.421875 12.171875 6.21875 
Q 5.515625 13.875 5.515625 27.296875 
Q 5.515625 40.765625 12.171875 48.375 
Q 18.84375 56 30.609375 56 
z
" id="DejaVuSans-111"/>
       <path d="M 18.109375 8.203125 
L 18.109375 -20.796875 
L 9.078125 -20.796875 
L 9.078125 54.6875 
L 18.109375 54.6875 
L 18.109375 46.390625 
Q 20.953125 51.265625 25.265625 53.625 
Q 29.59375 56 35.59375 56 
Q 45.5625 56 51.78125 48.09375 
Q 58.015625 40.1875 58.015625 27.296875 
Q 58.015625 14.40625 51.78125 6.484375 
Q 45.5625 -1.421875 35.59375 -1.421875 
Q 29.59375 -1.421875 25.265625 0.953125 
Q 20.953125 3.328125 18.109375 8.203125 
z
M 48.6875 27.296875 
Q 48.6875 37.203125 44.609375 42.84375 
Q 40.53125 48.484375 33.40625 48.484375 
Q 26.265625 48.484375 22.1875 42.84375 
Q 18.109375 37.203125 18.109375 27.296875 
Q 18.109375 17.390625 22.1875 11.75 
Q 26.265625 6.109375 33.40625 6.109375 
Q 40.53125 6.109375 44.609375 11.75 
Q 48.6875 17.390625 48.6875 27.296875 
z
" id="DejaVuSans-112"/>
       <path d="M 50.984375 -16.609375 
L 50.984375 -23.578125 
L -0.984375 -23.578125 
L -0.984375 -16.609375 
z
" id="DejaVuSans-95"/>
      </defs>
      <use xlink:href="#DejaVuSans-103"/>
      <use x="63.476562" xlink:href="#DejaVuSans-114"/>
      <use x="102.339844" xlink:href="#DejaVuSans-111"/>
      <use x="163.521484" xlink:href="#DejaVuSans-117"/>
      <use x="226.900391" xlink:href="#DejaVuSans-112"/>
      <use x="290.376953" xlink:href="#DejaVuSans-95"/>
      <use x="340.376953" xlink:href="#DejaVuSans-49"/>
     </g>
    </g>
    <g id="line2d_28">
     <path d="M 46.82 53.974688 
L 66.82 53.974688 
" style="fill:none;stroke:#ff7f0e;stroke-linecap:square;stroke-width:1.5;"/>
    </g>
    <g id="line2d_29"/>
    <g id="text_12">
     <!-- group_2 -->
     <g transform="translate(74.82 57.474688)scale(0.1 -0.1)">
      <use xlink:href="#DejaVuSans-103"/>
      <use x="63.476562" xlink:href="#DejaVuSans-114"/>
      <use x="102.339844" xlink:href="#DejaVuSans-111"/>
      <use x="163.521484" xlink:href="#DejaVuSans-117"/>
      <use x="226.900391" xlink:href="#DejaVuSans-112"/>
      <use x="290.376953" xlink:href="#DejaVuSans-95"/>
      <use x="340.376953" xlink:href="#DejaVuSans-50"/>
     </g>
    </g>
    <g id="line2d_30">
     <path d="M 46.82 68.930938 
L 66.82 68.930938 
" style="fill:none;stroke:#2ca02c;stroke-linecap:square;stroke-width:1.5;"/>
    </g>
    <g id="line2d_31"/>
    <g id="text_13">
     <!-- group_3 -->
     <g transform="translate(74.82 72.430938)scale(0.1 -0.1)">
      <use xlink:href="#DejaVuSans-103"/>
      <use x="63.476562" xlink:href="#DejaVuSans-114"/>
      <use x="102.339844" xlink:href="#DejaVuSans-111"/>
      <use x="163.521484" xlink:href="#DejaVuSans-117"/>
      <use x="226.900391" xlink:href="#DejaVuSans-112"/>
      <use x="290.376953" xlink:href="#DejaVuSans-95"/>
      <use x="340.376953" xlink:href="#DejaVuSans-51"/>
     </g>
    </g>
    <g id="line2d_32">
     <path d="M 46.82 83.887188 
L 66.82 83.887188 
" style="fill:none;stroke:#d62728;stroke-linecap:square;stroke-width:1.5;"/>
    </g>
    <g id="line2d_33"/>
    <g id="text_14">
     <!-- group_4 -->
     <g transform="translate(74.82 87.387188)scale(0.1 -0.1)">
      <use xlink:href="#DejaVuSans-103"/>
      <use x="63.476562" xlink:href="#DejaVuSans-114"/>
      <use x="102.339844" xlink:href="#DejaVuSans-111"/>
      <use x="163.521484" xlink:href="#DejaVuSans-117"/>
      <use x="226.900391" xlink:href="#DejaVuSans-112"/>
      <use x="290.376953" xlink:href="#DejaVuSans-95"/>
      <use x="340.376953" xlink:href="#DejaVuSans-52"/>
     </g>
    </g>
    <g id="line2d_34">
     <path d="M 46.82 98.843438 
L 66.82 98.843438 
" style="fill:none;stroke:#9467bd;stroke-linecap:square;stroke-width:1.5;"/>
    </g>
    <g id="line2d_35"/>
    <g id="text_15">
     <!-- group_5 -->
     <g transform="translate(74.82 102.343438)scale(0.1 -0.1)">
      <use xlink:href="#DejaVuSans-103"/>
      <use x="63.476562" xlink:href="#DejaVuSans-114"/>
      <use x="102.339844" xlink:href="#DejaVuSans-111"/>
      <use x="163.521484" xlink:href="#DejaVuSans-117"/>
      <use x="226.900391" xlink:href="#DejaVuSans-112"/>
      <use x="290.376953" xlink:href="#DejaVuSans-95"/>
      <use x="340.376953" xlink:href="#DejaVuSans-53"/>
     </g>
    </g>
    <g id="line2d_36">
     <path d="M 46.82 113.799688 
L 66.82 113.799688 
" style="fill:none;stroke:#8c564b;stroke-linecap:square;stroke-width:1.5;"/>
    </g>
    <g id="line2d_37"/>
    <g id="text_16">
     <!-- benchmark -->
     <g transform="translate(74.82 117.299688)scale(0.1 -0.1)">
      <defs>
       <path d="M 48.6875 27.296875 
Q 48.6875 37.203125 44.609375 42.84375 
Q 40.53125 48.484375 33.40625 48.484375 
Q 26.265625 48.484375 22.1875 42.84375 
Q 18.109375 37.203125 18.109375 27.296875 
Q 18.109375 17.390625 22.1875 11.75 
Q 26.265625 6.109375 33.40625 6.109375 
Q 40.53125 6.109375 44.609375 11.75 
Q 48.6875 17.390625 48.6875 27.296875 
z
M 18.109375 46.390625 
Q 20.953125 51.265625 25.265625 53.625 
Q 29.59375 56 35.59375 56 
Q 45.5625 56 51.78125 48.09375 
Q 58.015625 40.1875 58.015625 27.296875 
Q 58.015625 14.40625 51.78125 6.484375 
Q 45.5625 -1.421875 35.59375 -1.421875 
Q 29.59375 -1.421875 25.265625 0.953125 
Q 20.953125 3.328125 18.109375 8.203125 
L 18.109375 0 
L 9.078125 0 
L 9.078125 75.984375 
L 18.109375 75.984375 
z
" id="DejaVuSans-98"/>
       <path d="M 48.78125 52.59375 
L 48.78125 44.1875 
Q 44.96875 46.296875 41.140625 47.34375 
Q 37.3125 48.390625 33.40625 48.390625 
Q 24.65625 48.390625 19.8125 42.84375 
Q 14.984375 37.3125 14.984375 27.296875 
Q 14.984375 17.28125 19.8125 11.734375 
Q 24.65625 6.203125 33.40625 6.203125 
Q 37.3125 6.203125 41.140625 7.25 
Q 44.96875 8.296875 48.78125 10.40625 
L 48.78125 2.09375 
Q 45.015625 0.34375 40.984375 -0.53125 
Q 36.96875 -1.421875 32.421875 -1.421875 
Q 20.0625 -1.421875 12.78125 6.34375 
Q 5.515625 14.109375 5.515625 27.296875 
Q 5.515625 40.671875 12.859375 48.328125 
Q 20.21875 56 33.015625 56 
Q 37.15625 56 41.109375 55.140625 
Q 45.0625 54.296875 48.78125 52.59375 
z
" id="DejaVuSans-99"/>
       <path d="M 54.890625 33.015625 
L 54.890625 0 
L 45.90625 0 
L 45.90625 32.71875 
Q 45.90625 40.484375 42.875 44.328125 
Q 39.84375 48.1875 33.796875 48.1875 
Q 26.515625 48.1875 22.3125 43.546875 
Q 18.109375 38.921875 18.109375 30.90625 
L 18.109375 0 
L 9.078125 0 
L 9.078125 75.984375 
L 18.109375 75.984375 
L 18.109375 46.1875 
Q 21.34375 51.125 25.703125 53.5625 
Q 30.078125 56 35.796875 56 
Q 45.21875 56 50.046875 50.171875 
Q 54.890625 44.34375 54.890625 33.015625 
z
" id="DejaVuSans-104"/>
       <path d="M 52 44.1875 
Q 55.375 50.25 60.0625 53.125 
Q 64.75 56 71.09375 56 
Q 79.640625 56 84.28125 50.015625 
Q 88.921875 44.046875 88.921875 33.015625 
L 88.921875 0 
L 79.890625 0 
L 79.890625 32.71875 
Q 79.890625 40.578125 77.09375 44.375 
Q 74.3125 48.1875 68.609375 48.1875 
Q 61.625 48.1875 57.5625 43.546875 
Q 53.515625 38.921875 53.515625 30.90625 
L 53.515625 0 
L 44.484375 0 
L 44.484375 32.71875 
Q 44.484375 40.625 41.703125 44.40625 
Q 38.921875 48.1875 33.109375 48.1875 
Q 26.21875 48.1875 22.15625 43.53125 
Q 18.109375 38.875 18.109375 30.90625 
L 18.109375 0 
L 9.078125 0 
L 9.078125 54.6875 
L 18.109375 54.6875 
L 18.109375 46.1875 
Q 21.1875 51.21875 25.484375 53.609375 
Q 29.78125 56 35.6875 56 
Q 41.65625 56 45.828125 52.96875 
Q 50 49.953125 52 44.1875 
z
" id="DejaVuSans-109"/>
       <path d="M 9.078125 75.984375 
L 18.109375 75.984375 
L 18.109375 31.109375 
L 44.921875 54.6875 
L 56.390625 54.6875 
L 27.390625 29.109375 
L 57.625 0 
L 45.90625 0 
L 18.109375 26.703125 
L 18.109375 0 
L 9.078125 0 
z
" id="DejaVuSans-107"/>
      </defs>
      <use xlink:href="#DejaVuSans-98"/>
      <use x="63.476562" xlink:href="#DejaVuSans-101"/>
      <use x="125" xlink:href="#DejaVuSans-110"/>
      <use x="188.378906" xlink:href="#DejaVuSans-99"/>
      <use x="243.359375" xlink:href="#DejaVuSans-104"/>
      <use x="306.738281" xlink:href="#DejaVuSans-109"/>
      <use x="404.150391" xlink:href="#DejaVuSans-97"/>
      <use x="465.429688" xlink:href="#DejaVuSans-114"/>
      <use x="506.542969" xlink:href="#DejaVuSans-107"/>
     </g>
    </g>
    <g id="line2d_38">
     <path d="M 46.82 128.477813 
L 66.82 128.477813 
" style="fill:none;stroke:#e377c2;stroke-linecap:square;stroke-width:1.5;"/>
    </g>
    <g id="line2d_39"/>
    <g id="text_17">
     <!-- long_excess -->
     <g transform="translate(74.82 131.977813)scale(0.1 -0.1)">
      <defs>
       <path d="M 54.890625 54.6875 
L 35.109375 28.078125 
L 55.90625 0 
L 45.3125 0 
L 29.390625 21.484375 
L 13.484375 0 
L 2.875 0 
L 24.125 28.609375 
L 4.6875 54.6875 
L 15.28125 54.6875 
L 29.78125 35.203125 
L 44.28125 54.6875 
z
" id="DejaVuSans-120"/>
       <path d="M 44.28125 53.078125 
L 44.28125 44.578125 
Q 40.484375 46.53125 36.375 47.5 
Q 32.28125 48.484375 27.875 48.484375 
Q 21.1875 48.484375 17.84375 46.4375 
Q 14.5 44.390625 14.5 40.28125 
Q 14.5 37.15625 16.890625 35.375 
Q 19.28125 33.59375 26.515625 31.984375 
L 29.59375 31.296875 
Q 39.15625 29.25 43.1875 25.515625 
Q 47.21875 21.78125 47.21875 15.09375 
Q 47.21875 7.46875 41.1875 3.015625 
Q 35.15625 -1.421875 24.609375 -1.421875 
Q 20.21875 -1.421875 15.453125 -0.5625 
Q 10.6875 0.296875 5.421875 2 
L 5.421875 11.28125 
Q 10.40625 8.6875 15.234375 7.390625 
Q 20.0625 6.109375 24.8125 6.109375 
Q 31.15625 6.109375 34.5625 8.28125 
Q 37.984375 10.453125 37.984375 14.40625 
Q 37.984375 18.0625 35.515625 20.015625 
Q 33.0625 21.96875 24.703125 23.78125 
L 21.578125 24.515625 
Q 13.234375 26.265625 9.515625 29.90625 
Q 5.8125 33.546875 5.8125 39.890625 
Q 5.8125 47.609375 11.28125 51.796875 
Q 16.75 56 26.8125 56 
Q 31.78125 56 36.171875 55.265625 
Q 40.578125 54.546875 44.28125 53.078125 
z
" id="DejaVuSans-115"/>
      </defs>
      <use xlink:href="#DejaVuSans-108"/>
      <use x="27.783203" xlink:href="#DejaVuSans-111"/>
      <use x="88.964844" xlink:href="#DejaVuSans-110"/>
      <use x="152.34375" xlink:href="#DejaVuSans-103"/>
      <use x="215.820312" xlink:href="#DejaVuSans-95"/>
      <use x="265.820312" xlink:href="#DejaVuSans-101"/>
      <use x="325.59375" xlink:href="#DejaVuSans-120"/>
      <use x="383.023438" xlink:href="#DejaVuSans-99"/>
      <use x="438.003906" xlink:href="#DejaVuSans-101"/>
      <use x="499.527344" xlink:href="#DejaVuSans-115"/>
      <use x="551.626953" xlink:href="#DejaVuSans-115"/>
     </g>
    </g>
    <g id="line2d_40">
     <path d="M 46.82 143.434063 
L 66.82 143.434063 
" style="fill:none;stroke:#7f7f7f;stroke-linecap:square;stroke-width:1.5;"/>
    </g>
    <g id="line2d_41"/>
    <g id="text_18">
     <!-- short_excess -->
     <g transform="translate(74.82 146.934063)scale(0.1 -0.1)">
      <use xlink:href="#DejaVuSans-115"/>
      <use x="52.099609" xlink:href="#DejaVuSans-104"/>
      <use x="115.478516" xlink:href="#DejaVuSans-111"/>
      <use x="176.660156" xlink:href="#DejaVuSans-114"/>
      <use x="217.773438" xlink:href="#DejaVuSans-116"/>
      <use x="256.982422" xlink:href="#DejaVuSans-95"/>
      <use x="306.982422" xlink:href="#DejaVuSans-101"/>
      <use x="366.755859" xlink:href="#DejaVuSans-120"/>
      <use x="424.185547" xlink:href="#DejaVuSans-99"/>
      <use x="479.166016" xlink:href="#DejaVuSans-101"/>
      <use x="540.689453" xlink:href="#DejaVuSans-115"/>
      <use x="592.789062" xlink:href="#DejaVuSans-115"/>
     </g>
    </g>
    <g id="line2d_42">
     <path d="M 46.82 158.390313 
L 66.82 158.390313 
" style="fill:none;stroke:#bcbd22;stroke-linecap:square;stroke-width:1.5;"/>
    </g>
    <g id="line2d_43"/>
    <g id="text_19">
     <!-- long_short -->
     <g transform="translate(74.82 161.890313)scale(0.1 -0.1)">
      <use xlink:href="#DejaVuSans-108"/>
      <use x="27.783203" xlink:href="#DejaVuSans-111"/>
      <use x="88.964844" xlink:href="#DejaVuSans-110"/>
      <use x="152.34375" xlink:href="#DejaVuSans-103"/>
      <use x="215.820312" xlink:href="#DejaVuSans-95"/>
      <use x="265.820312" xlink:href="#DejaVuSans-115"/>
      <use x="317.919922" xlink:href="#DejaVuSans-104"/>
      <use x="381.298828" xlink:href="#DejaVuSans-111"/>
      <use x="442.480469" xlink:href="#DejaVuSans-114"/>
      <use x="483.59375" xlink:href="#DejaVuSans-116"/>
     </g>
    </g>
   </g>
  </g>
 </g>
 <defs>
  <clipPath id="p960bf448c3">
   <rect height="334.18" width="1103.38" x="37.82" y="25.92"/>
  </clipPath>
 </defs>
</svg>
