<?xml version="1.0" encoding="utf-8" standalone="no"?>
<!DOCTYPE svg PUBLIC "-//W3C//DTD SVG 1.1//EN"
  "http://www.w3.org/Graphics/SVG/1.1/DTD/svg11.dtd">
<!-- Created with matplotlib (https://matplotlib.org/) -->
<svg height="374.4pt" version="1.1" viewBox="0 0 1152 374.4" width="1152pt" xmlns="http://www.w3.org/2000/svg" xmlns:xlink="http://www.w3.org/1999/xlink">
 <metadata>
  <rdf:RDF xmlns:cc="http://creativecommons.org/ns#" xmlns:dc="http://purl.org/dc/elements/1.1/" xmlns:rdf="http://www.w3.org/1999/02/22-rdf-syntax-ns#">
   <cc:Work>
    <dc:type rdf:resource="http://purl.org/dc/dcmitype/StillImage"/>
    <dc:date>2023-10-11T16:58:33.545033</dc:date>
    <dc:format>image/svg+xml</dc:format>
    <dc:creator>
     <cc:Agent>
      <dc:title>Matplotlib v3.3.4, https://matplotlib.org/</dc:title>
     </cc:Agent>
    </dc:creator>
   </cc:Work>
  </rdf:RDF>
 </metadata>
 <defs>
  <style type="text/css">*{stroke-linecap:butt;stroke-linejoin:round;}</style>
 </defs>
 <g id="figure_1">
  <g id="patch_1">
   <path d="M 0 374.4 
L 1152 374.4 
L 1152 0 
L 0 0 
z
" style="fill:#ffffff;"/>
  </g>
  <g id="axes_1">
   <g id="patch_2">
    <path d="M 37.76 360.1 
L 1141.2 360.1 
L 1141.2 25.92 
L 37.76 25.92 
z
" style="fill:#ffffff;"/>
   </g>
   <g id="matplotlib.axis_1"/>
   <g id="matplotlib.axis_2">
    <g id="ytick_1">
     <g id="line2d_1">
      <path clip-path="url(#p2da69c8eec)" d="M 37.76 293.190472 
L 1141.2 293.190472 
" style="fill:none;stroke:#b0b0b0;stroke-linecap:square;stroke-width:0.8;"/>
     </g>
     <g id="line2d_2">
      <defs>
       <path d="M 0 0 
L -3.5 0 
" id="m367b81e988" style="stroke:#000000;stroke-width:0.8;"/>
      </defs>
      <g>
       <use style="stroke:#000000;stroke-width:0.8;" x="37.76" xlink:href="#m367b81e988" y="293.190472"/>
      </g>
     </g>
     <g id="text_1">
      <!-- 1 -->
      <g transform="translate(24.3975 296.989691)scale(0.1 -0.1)">
       <defs>
        <path d="M 12.40625 8.296875 
L 28.515625 8.296875 
L 28.515625 63.921875 
L 10.984375 60.40625 
L 10.984375 69.390625 
L 28.421875 72.90625 
L 38.28125 72.90625 
L 38.28125 8.296875 
L 54.390625 8.296875 
L 54.390625 0 
L 12.40625 0 
z
" id="DejaVuSans-49"/>
       </defs>
       <use xlink:href="#DejaVuSans-49"/>
      </g>
     </g>
    </g>
    <g id="ytick_2">
     <g id="line2d_3">
      <path clip-path="url(#p2da69c8eec)" d="M 37.76 223.812151 
L 1141.2 223.812151 
" style="fill:none;stroke:#b0b0b0;stroke-linecap:square;stroke-width:0.8;"/>
     </g>
     <g id="line2d_4">
      <g>
       <use style="stroke:#000000;stroke-width:0.8;" x="37.76" xlink:href="#m367b81e988" y="223.812151"/>
      </g>
     </g>
     <g id="text_2">
      <!-- 2 -->
      <g transform="translate(24.3975 227.61137)scale(0.1 -0.1)">
       <defs>
        <path d="M 19.1875 8.296875 
L 53.609375 8.296875 
L 53.609375 0 
L 7.328125 0 
L 7.328125 8.296875 
Q 12.9375 14.109375 22.625 23.890625 
Q 32.328125 33.6875 34.8125 36.53125 
Q 39.546875 41.84375 41.421875 45.53125 
Q 43.3125 49.21875 43.3125 52.78125 
Q 43.3125 58.59375 39.234375 62.25 
Q 35.15625 65.921875 28.609375 65.921875 
Q 23.96875 65.921875 18.8125 64.3125 
Q 13.671875 62.703125 7.8125 59.421875 
L 7.8125 69.390625 
Q 13.765625 71.78125 18.9375 73 
Q 24.125 74.21875 28.421875 74.21875 
Q 39.75 74.21875 46.484375 68.546875 
Q 53.21875 62.890625 53.21875 53.421875 
Q 53.21875 48.921875 51.53125 44.890625 
Q 49.859375 40.875 45.40625 35.40625 
Q 44.1875 33.984375 37.640625 27.21875 
Q 31.109375 20.453125 19.1875 8.296875 
z
" id="DejaVuSans-50"/>
       </defs>
       <use xlink:href="#DejaVuSans-50"/>
      </g>
     </g>
    </g>
    <g id="ytick_3">
     <g id="line2d_5">
      <path clip-path="url(#p2da69c8eec)" d="M 37.76 154.43383 
L 1141.2 154.43383 
" style="fill:none;stroke:#b0b0b0;stroke-linecap:square;stroke-width:0.8;"/>
     </g>
     <g id="line2d_6">
      <g>
       <use style="stroke:#000000;stroke-width:0.8;" x="37.76" xlink:href="#m367b81e988" y="154.43383"/>
      </g>
     </g>
     <g id="text_3">
      <!-- 3 -->
      <g transform="translate(24.3975 158.233049)scale(0.1 -0.1)">
       <defs>
        <path d="M 40.578125 39.3125 
Q 47.65625 37.796875 51.625 33 
Q 55.609375 28.21875 55.609375 21.1875 
Q 55.609375 10.40625 48.1875 4.484375 
Q 40.765625 -1.421875 27.09375 -1.421875 
Q 22.515625 -1.421875 17.65625 -0.515625 
Q 12.796875 0.390625 7.625 2.203125 
L 7.625 11.71875 
Q 11.71875 9.328125 16.59375 8.109375 
Q 21.484375 6.890625 26.8125 6.890625 
Q 36.078125 6.890625 40.9375 10.546875 
Q 45.796875 14.203125 45.796875 21.1875 
Q 45.796875 27.640625 41.28125 31.265625 
Q 36.765625 34.90625 28.71875 34.90625 
L 20.21875 34.90625 
L 20.21875 43.015625 
L 29.109375 43.015625 
Q 36.375 43.015625 40.234375 45.921875 
Q 44.09375 48.828125 44.09375 54.296875 
Q 44.09375 59.90625 40.109375 62.90625 
Q 36.140625 65.921875 28.71875 65.921875 
Q 24.65625 65.921875 20.015625 65.03125 
Q 15.375 64.15625 9.8125 62.3125 
L 9.8125 71.09375 
Q 15.4375 72.65625 20.34375 73.4375 
Q 25.25 74.21875 29.59375 74.21875 
Q 40.828125 74.21875 47.359375 69.109375 
Q 53.90625 64.015625 53.90625 55.328125 
Q 53.90625 49.265625 50.4375 45.09375 
Q 46.96875 40.921875 40.578125 39.3125 
z
" id="DejaVuSans-51"/>
       </defs>
       <use xlink:href="#DejaVuSans-51"/>
      </g>
     </g>
    </g>
    <g id="ytick_4">
     <g id="line2d_7">
      <path clip-path="url(#p2da69c8eec)" d="M 37.76 85.055509 
L 1141.2 85.055509 
" style="fill:none;stroke:#b0b0b0;stroke-linecap:square;stroke-width:0.8;"/>
     </g>
     <g id="line2d_8">
      <g>
       <use style="stroke:#000000;stroke-width:0.8;" x="37.76" xlink:href="#m367b81e988" y="85.055509"/>
      </g>
     </g>
     <g id="text_4">
      <!-- 4 -->
      <g transform="translate(24.3975 88.854728)scale(0.1 -0.1)">
       <defs>
        <path d="M 37.796875 64.3125 
L 12.890625 25.390625 
L 37.796875 25.390625 
z
M 35.203125 72.90625 
L 47.609375 72.90625 
L 47.609375 25.390625 
L 58.015625 25.390625 
L 58.015625 17.1875 
L 47.609375 17.1875 
L 47.609375 0 
L 37.796875 0 
L 37.796875 17.1875 
L 4.890625 17.1875 
L 4.890625 26.703125 
z
" id="DejaVuSans-52"/>
       </defs>
       <use xlink:href="#DejaVuSans-52"/>
      </g>
     </g>
    </g>
    <g id="text_5">
     <!-- net value -->
     <g transform="translate(18.317812 216.462344)rotate(-90)scale(0.1 -0.1)">
      <defs>
       <path d="M 54.890625 33.015625 
L 54.890625 0 
L 45.90625 0 
L 45.90625 32.71875 
Q 45.90625 40.484375 42.875 44.328125 
Q 39.84375 48.1875 33.796875 48.1875 
Q 26.515625 48.1875 22.3125 43.546875 
Q 18.109375 38.921875 18.109375 30.90625 
L 18.109375 0 
L 9.078125 0 
L 9.078125 54.6875 
L 18.109375 54.6875 
L 18.109375 46.1875 
Q 21.34375 51.125 25.703125 53.5625 
Q 30.078125 56 35.796875 56 
Q 45.21875 56 50.046875 50.171875 
Q 54.890625 44.34375 54.890625 33.015625 
z
" id="DejaVuSans-110"/>
       <path d="M 56.203125 29.59375 
L 56.203125 25.203125 
L 14.890625 25.203125 
Q 15.484375 15.921875 20.484375 11.0625 
Q 25.484375 6.203125 34.421875 6.203125 
Q 39.59375 6.203125 44.453125 7.46875 
Q 49.3125 8.734375 54.109375 11.28125 
L 54.109375 2.78125 
Q 49.265625 0.734375 44.1875 -0.34375 
Q 39.109375 -1.421875 33.890625 -1.421875 
Q 20.796875 -1.421875 13.15625 6.1875 
Q 5.515625 13.8125 5.515625 26.8125 
Q 5.515625 40.234375 12.765625 48.109375 
Q 20.015625 56 32.328125 56 
Q 43.359375 56 49.78125 48.890625 
Q 56.203125 41.796875 56.203125 29.59375 
z
M 47.21875 32.234375 
Q 47.125 39.59375 43.09375 43.984375 
Q 39.0625 48.390625 32.421875 48.390625 
Q 24.90625 48.390625 20.390625 44.140625 
Q 15.875 39.890625 15.1875 32.171875 
z
" id="DejaVuSans-101"/>
       <path d="M 18.3125 70.21875 
L 18.3125 54.6875 
L 36.8125 54.6875 
L 36.8125 47.703125 
L 18.3125 47.703125 
L 18.3125 18.015625 
Q 18.3125 11.328125 20.140625 9.421875 
Q 21.96875 7.515625 27.59375 7.515625 
L 36.8125 7.515625 
L 36.8125 0 
L 27.59375 0 
Q 17.1875 0 13.234375 3.875 
Q 9.28125 7.765625 9.28125 18.015625 
L 9.28125 47.703125 
L 2.6875 47.703125 
L 2.6875 54.6875 
L 9.28125 54.6875 
L 9.28125 70.21875 
z
" id="DejaVuSans-116"/>
       <path id="DejaVuSans-32"/>
       <path d="M 2.984375 54.6875 
L 12.5 54.6875 
L 29.59375 8.796875 
L 46.6875 54.6875 
L 56.203125 54.6875 
L 35.6875 0 
L 23.484375 0 
z
" id="DejaVuSans-118"/>
       <path d="M 34.28125 27.484375 
Q 23.390625 27.484375 19.1875 25 
Q 14.984375 22.515625 14.984375 16.5 
Q 14.984375 11.71875 18.140625 8.90625 
Q 21.296875 6.109375 26.703125 6.109375 
Q 34.1875 6.109375 38.703125 11.40625 
Q 43.21875 16.703125 43.21875 25.484375 
L 43.21875 27.484375 
z
M 52.203125 31.203125 
L 52.203125 0 
L 43.21875 0 
L 43.21875 8.296875 
Q 40.140625 3.328125 35.546875 0.953125 
Q 30.953125 -1.421875 24.3125 -1.421875 
Q 15.921875 -1.421875 10.953125 3.296875 
Q 6 8.015625 6 15.921875 
Q 6 25.140625 12.171875 29.828125 
Q 18.359375 34.515625 30.609375 34.515625 
L 43.21875 34.515625 
L 43.21875 35.40625 
Q 43.21875 41.609375 39.140625 45 
Q 35.0625 48.390625 27.6875 48.390625 
Q 23 48.390625 18.546875 47.265625 
Q 14.109375 46.140625 10.015625 43.890625 
L 10.015625 52.203125 
Q 14.9375 54.109375 19.578125 55.046875 
Q 24.21875 56 28.609375 56 
Q 40.484375 56 46.34375 49.84375 
Q 52.203125 43.703125 52.203125 31.203125 
z
" id="DejaVuSans-97"/>
       <path d="M 9.421875 75.984375 
L 18.40625 75.984375 
L 18.40625 0 
L 9.421875 0 
z
" id="DejaVuSans-108"/>
       <path d="M 8.5 21.578125 
L 8.5 54.6875 
L 17.484375 54.6875 
L 17.484375 21.921875 
Q 17.484375 14.15625 20.5 10.265625 
Q 23.53125 6.390625 29.59375 6.390625 
Q 36.859375 6.390625 41.078125 11.03125 
Q 45.3125 15.671875 45.3125 23.6875 
L 45.3125 54.6875 
L 54.296875 54.6875 
L 54.296875 0 
L 45.3125 0 
L 45.3125 8.40625 
Q 42.046875 3.421875 37.71875 1 
Q 33.40625 -1.421875 27.6875 -1.421875 
Q 18.265625 -1.421875 13.375 4.4375 
Q 8.5 10.296875 8.5 21.578125 
z
M 31.109375 56 
z
" id="DejaVuSans-117"/>
      </defs>
      <use xlink:href="#DejaVuSans-110"/>
      <use x="63.378906" xlink:href="#DejaVuSans-101"/>
      <use x="124.902344" xlink:href="#DejaVuSans-116"/>
      <use x="164.111328" xlink:href="#DejaVuSans-32"/>
      <use x="195.898438" xlink:href="#DejaVuSans-118"/>
      <use x="255.078125" xlink:href="#DejaVuSans-97"/>
      <use x="316.357422" xlink:href="#DejaVuSans-108"/>
      <use x="344.140625" xlink:href="#DejaVuSans-117"/>
      <use x="407.519531" xlink:href="#DejaVuSans-101"/>
     </g>
    </g>
   </g>
   <g id="line2d_9">
    <path clip-path="url(#p2da69c8eec)" d="M 87.916364 290.272924 
L 92.476033 290.471445 
L 97.035702 290.128138 
L 101.595372 291.384025 
L 115.27438 292.97948 
L 119.83405 287.332534 
L 124.393719 282.803348 
L 128.953388 282.168672 
L 133.513058 289.15845 
L 147.192066 287.857511 
L 151.751736 287.671993 
L 156.311405 291.165625 
L 160.871074 287.441933 
L 165.430744 284.972045 
L 179.109752 281.812101 
L 183.669421 279.017026 
L 188.229091 277.86306 
L 192.78876 281.959163 
L 197.34843 287.414772 
L 211.027438 293.433638 
L 215.587107 290.651381 
L 220.146777 291.945309 
L 224.706446 286.792619 
L 229.266116 286.97388 
L 242.945124 288.235122 
L 247.504793 285.689692 
L 252.064463 289.012915 
L 256.624132 286.957659 
L 261.183802 283.715133 
L 274.86281 284.802908 
L 279.422479 287.821476 
L 283.982149 286.382991 
L 288.541818 284.011959 
L 293.101488 286.872529 
L 306.780496 283.375922 
L 311.340165 288.651168 
L 315.899835 292.774091 
L 320.459504 292.643884 
L 325.019174 292.951439 
L 338.698182 295.806034 
L 343.257851 294.808527 
L 347.817521 297.586664 
L 352.37719 296.149031 
L 356.93686 298.396799 
L 370.615868 300.336567 
L 375.175537 303.570496 
L 379.735207 302.863199 
L 384.294876 301.143533 
L 388.854545 304.326608 
L 402.533554 306.738614 
L 407.093223 303.193161 
L 411.652893 304.510732 
L 416.212562 309.078072 
L 420.772231 310.125932 
L 434.45124 308.952945 
L 439.010909 309.511704 
L 443.570579 310.304758 
L 448.130248 311.735799 
L 452.689917 314.930097 
L 466.368926 317.783668 
L 470.928595 319.406127 
L 475.488264 317.091059 
L 480.047934 319.054926 
L 484.607603 319.363238 
L 498.286612 319.735529 
L 502.846281 320.500553 
L 507.40595 318.832014 
L 511.96562 318.431303 
L 516.525289 317.620964 
L 530.204298 313.937235 
L 534.763967 313.677449 
L 539.323636 314.470207 
L 543.883306 316.70454 
L 548.442975 319.701607 
L 562.121983 321.899915 
L 566.681653 318.013687 
L 571.241322 314.88781 
L 575.800992 314.331807 
L 580.360661 317.360172 
L 594.039669 318.516391 
L 598.599339 315.901769 
L 603.159008 311.656209 
L 607.718678 309.827762 
L 612.278347 311.269548 
L 625.957355 316.312901 
L 630.517025 318.806361 
L 635.076694 318.239352 
L 639.636364 315.340736 
L 644.196033 314.579659 
L 657.875041 317.038161 
L 662.434711 317.303653 
L 666.99438 316.205882 
L 671.55405 316.625982 
L 676.113719 318.916569 
L 689.792727 317.402525 
L 694.352397 317.017964 
L 698.912066 316.745189 
L 703.471736 318.328906 
L 708.031405 315.029716 
L 721.710413 315.137234 
L 726.270083 312.836609 
L 730.829752 314.239303 
L 735.389421 311.543663 
L 739.949091 312.507729 
L 753.628099 311.087912 
L 758.187769 308.192655 
L 762.747438 312.78855 
L 767.307107 310.234087 
L 771.866777 309.994751 
L 785.545785 308.627446 
L 790.105455 308.721705 
L 794.665124 304.798211 
L 799.224793 305.792999 
L 803.784463 309.051378 
L 817.463471 307.747145 
L 822.02314 307.900675 
L 826.58281 305.037992 
L 831.142479 305.482375 
L 835.702149 309.36052 
L 849.381157 310.447358 
L 853.940826 313.541769 
L 858.500496 316.500779 
L 863.060165 317.291285 
L 867.619835 315.392827 
L 881.298843 312.032599 
L 885.858512 309.197908 
L 890.418182 307.510823 
L 894.977851 304.215293 
L 899.537521 302.661586 
L 913.216529 303.486507 
L 917.776198 299.969628 
L 922.335868 300.660763 
L 926.895537 301.603894 
L 931.455207 299.242616 
L 949.693884 297.535702 
L 954.253554 292.15628 
L 958.813223 291.778576 
L 963.372893 289.716144 
L 977.051901 289.150655 
L 981.61157 290.544233 
L 986.17124 295.563363 
L 990.730909 298.026111 
L 995.290579 299.528315 
L 1008.969587 299.619505 
L 1013.529256 298.261151 
L 1018.088926 300.074988 
L 1022.648595 298.991345 
L 1027.208264 298.475706 
L 1040.887273 298.478417 
L 1045.446942 297.55125 
L 1050.006612 303.037533 
L 1054.566281 301.130619 
L 1059.12595 300.912015 
L 1072.804959 301.955855 
L 1077.364628 299.844396 
L 1081.924298 299.825402 
L 1086.483967 295.687351 
L 1091.043636 296.569635 
L 1091.043636 296.569635 
" style="fill:none;stroke:#1f77b4;stroke-linecap:square;stroke-width:1.5;"/>
   </g>
   <g id="line2d_10">
    <path clip-path="url(#p2da69c8eec)" d="M 87.916364 291.828565 
L 92.476033 294.199832 
L 97.035702 293.805535 
L 101.595372 294.690789 
L 115.27438 291.555072 
L 119.83405 289.908767 
L 124.393719 293.778751 
L 128.953388 295.834172 
L 133.513058 298.346182 
L 147.192066 299.075996 
L 151.751736 300.82808 
L 156.311405 297.395056 
L 160.871074 298.432267 
L 165.430744 297.058837 
L 179.109752 294.801195 
L 183.669421 298.836353 
L 188.229091 294.219349 
L 192.78876 294.592053 
L 197.34843 292.511296 
L 211.027438 293.419092 
L 215.587107 297.180758 
L 220.146777 296.735663 
L 224.706446 296.914254 
L 229.266116 296.427115 
L 242.945124 297.150452 
L 247.504793 295.437377 
L 252.064463 295.591367 
L 256.624132 296.103108 
L 261.183802 295.03994 
L 274.86281 291.137563 
L 279.422479 290.545887 
L 283.982149 288.518076 
L 288.541818 289.36361 
L 293.101488 286.063592 
L 306.780496 279.522783 
L 311.340165 276.354692 
L 315.899835 274.97509 
L 320.459504 269.378046 
L 325.019174 273.746649 
L 338.698182 274.329157 
L 343.257851 268.582692 
L 347.817521 267.972025 
L 352.37719 269.911965 
L 356.93686 274.335147 
L 370.615868 273.641256 
L 375.175537 270.22887 
L 379.735207 267.315814 
L 384.294876 271.66577 
L 388.854545 277.358851 
L 402.533554 280.350289 
L 407.093223 275.815951 
L 411.652893 276.43938 
L 416.212562 276.507404 
L 420.772231 274.866514 
L 434.45124 266.62196 
L 439.010909 268.938895 
L 443.570579 273.868256 
L 448.130248 271.485514 
L 452.689917 265.32948 
L 466.368926 263.075233 
L 470.928595 267.753413 
L 480.047934 263.123352 
L 484.607603 257.416981 
L 498.286612 254.694349 
L 502.846281 252.089501 
L 507.40595 246.539271 
L 511.96562 246.549391 
L 516.525289 247.472899 
L 530.204298 246.200489 
L 534.763967 240.325924 
L 539.323636 238.34654 
L 543.883306 242.18201 
L 548.442975 248.292754 
L 562.121983 252.540566 
L 566.681653 249.41248 
L 571.241322 243.107876 
L 575.800992 250.290668 
L 580.360661 247.155784 
L 594.039669 254.644352 
L 598.599339 256.808127 
L 603.159008 263.920388 
L 607.718678 262.289675 
L 612.278347 263.904076 
L 625.957355 259.450374 
L 630.517025 249.936718 
L 635.076694 244.729879 
L 639.636364 241.99802 
L 644.196033 244.666203 
L 657.875041 251.81837 
L 662.434711 247.130296 
L 666.99438 247.327717 
L 671.55405 248.289082 
L 676.113719 242.652222 
L 689.792727 246.926518 
L 694.352397 251.257583 
L 698.912066 245.477703 
L 703.471736 244.449674 
L 708.031405 235.67818 
L 721.710413 237.485092 
L 726.270083 225.412165 
L 730.829752 235.230085 
L 735.389421 242.363292 
L 739.949091 238.401096 
L 753.628099 237.960047 
L 758.187769 245.038053 
L 762.747438 243.188615 
L 767.307107 239.521218 
L 771.866777 238.412983 
L 785.545785 241.883676 
L 790.105455 246.093172 
L 794.665124 247.861255 
L 799.224793 250.369719 
L 803.784463 254.867256 
L 817.463471 249.752082 
L 822.02314 245.742712 
L 831.142479 252.377544 
L 835.702149 255.918416 
L 853.940826 264.209826 
L 858.500496 265.563876 
L 863.060165 261.386402 
L 867.619835 258.093091 
L 881.298843 255.54443 
L 885.858512 260.429587 
L 890.418182 264.249319 
L 894.977851 268.687634 
L 899.537521 266.035186 
L 913.216529 267.490378 
L 917.776198 270.375099 
L 922.335868 270.899147 
L 926.895537 266.855899 
L 931.455207 269.956509 
L 945.134215 273.608916 
L 949.693884 275.320196 
L 954.253554 272.346657 
L 958.813223 270.793912 
L 963.372893 265.614747 
L 977.051901 267.549954 
L 981.61157 268.950719 
L 986.17124 269.813428 
L 990.730909 270.484682 
L 995.290579 276.489352 
L 1008.969587 276.105795 
L 1013.529256 275.473006 
L 1018.088926 269.559432 
L 1022.648595 269.774539 
L 1027.208264 264.035228 
L 1040.887273 270.344874 
L 1045.446942 269.628772 
L 1050.006612 272.088634 
L 1054.566281 270.822266 
L 1059.12595 270.518688 
L 1072.804959 269.102665 
L 1077.364628 269.003759 
L 1081.924298 264.986004 
L 1086.483967 266.679289 
L 1091.043636 265.689713 
L 1091.043636 265.689713 
" style="fill:none;stroke:#ff7f0e;stroke-linecap:square;stroke-width:1.5;"/>
   </g>
   <g id="line2d_11">
    <path clip-path="url(#p2da69c8eec)" d="M 87.916364 293.146767 
L 92.476033 296.831676 
L 97.035702 301.332248 
L 101.595372 299.29814 
L 115.27438 296.012053 
L 119.83405 290.902548 
L 124.393719 294.738228 
L 128.953388 294.424845 
L 133.513058 300.333492 
L 147.192066 302.36983 
L 156.311405 301.991146 
L 160.871074 305.744287 
L 165.430744 308.095859 
L 179.109752 308.91192 
L 183.669421 305.556076 
L 188.229091 307.359371 
L 197.34843 305.577717 
L 211.027438 307.390108 
L 215.587107 304.687899 
L 220.146777 304.095898 
L 224.706446 302.809218 
L 229.266116 300.845997 
L 242.945124 303.351911 
L 247.504793 298.986399 
L 252.064463 300.127973 
L 256.624132 300.545951 
L 261.183802 299.545468 
L 274.86281 299.619962 
L 279.422479 301.880368 
L 283.982149 304.958919 
L 288.541818 306.258668 
L 293.101488 310.821823 
L 306.780496 311.505355 
L 311.340165 315.115076 
L 315.899835 315.283925 
L 320.459504 311.130167 
L 325.019174 312.258504 
L 338.698182 308.9458 
L 347.817521 310.724954 
L 352.37719 312.118579 
L 356.93686 311.70762 
L 370.615868 311.685992 
L 375.175537 312.047352 
L 379.735207 313.599464 
L 384.294876 314.151492 
L 388.854545 314.090862 
L 402.533554 312.353822 
L 407.093223 311.260635 
L 411.652893 313.175101 
L 416.212562 312.17868 
L 420.772231 315.447583 
L 434.45124 314.391914 
L 439.010909 312.470059 
L 443.570579 316.529945 
L 448.130248 317.560844 
L 452.689917 316.573829 
L 466.368926 318.477748 
L 470.928595 318.087582 
L 475.488264 318.58035 
L 480.047934 317.950937 
L 484.607603 319.509531 
L 502.846281 322.925088 
L 511.96562 318.856906 
L 516.525289 321.262184 
L 530.204298 322.459006 
L 534.763967 323.397928 
L 539.323636 325.513691 
L 543.883306 325.185979 
L 548.442975 325.197463 
L 562.121983 324.516295 
L 566.681653 325.090391 
L 571.241322 322.419309 
L 575.800992 320.813868 
L 580.360661 322.513614 
L 594.039669 322.537907 
L 598.599339 322.24281 
L 603.159008 322.984237 
L 607.718678 324.642938 
L 612.278347 326.552933 
L 625.957355 327.445396 
L 630.517025 330.575011 
L 635.076694 330.520736 
L 644.196033 329.755941 
L 657.875041 331.486599 
L 662.434711 329.605796 
L 666.99438 331.818964 
L 671.55405 333.169167 
L 676.113719 332.619987 
L 689.792727 333.989383 
L 694.352397 333.727025 
L 698.912066 333.755382 
L 703.471736 332.850007 
L 708.031405 333.858343 
L 721.710413 335.140378 
L 726.270083 336.870735 
L 735.389421 338.005954 
L 739.949091 338.053046 
L 753.628099 336.668671 
L 758.187769 335.977885 
L 762.747438 335.537292 
L 767.307107 334.744666 
L 771.866777 332.617342 
L 785.545785 332.642434 
L 790.105455 331.57631 
L 794.665124 332.191604 
L 799.224793 330.140646 
L 803.784463 331.26253 
L 817.463471 330.213616 
L 826.58281 330.217033 
L 831.142479 328.717524 
L 835.702149 326.918693 
L 849.381157 327.71537 
L 853.940826 327.412272 
L 858.500496 326.141968 
L 863.060165 325.660368 
L 867.619835 324.258302 
L 881.298843 325.661474 
L 885.858512 327.260404 
L 890.418182 327.762421 
L 894.977851 329.687822 
L 899.537521 330.353929 
L 913.216529 329.592727 
L 917.776198 329.214946 
L 922.335868 326.591787 
L 926.895537 327.34313 
L 931.455207 326.985237 
L 945.134215 329.481301 
L 949.693884 329.058576 
L 954.253554 330.354428 
L 958.813223 329.923882 
L 963.372893 331.954871 
L 977.051901 332.008153 
L 981.61157 329.928325 
L 986.17124 330.569842 
L 990.730909 330.566825 
L 995.290579 329.36981 
L 1008.969587 329.352479 
L 1013.529256 329.531683 
L 1018.088926 330.202224 
L 1022.648595 331.637552 
L 1027.208264 332.605364 
L 1040.887273 332.627874 
L 1045.446942 334.202885 
L 1050.006612 333.473225 
L 1054.566281 335.999728 
L 1059.12595 333.793098 
L 1072.804959 332.296961 
L 1077.364628 332.996674 
L 1081.924298 334.145837 
L 1086.483967 333.173085 
L 1091.043636 334.286887 
L 1091.043636 334.286887 
" style="fill:none;stroke:#2ca02c;stroke-linecap:square;stroke-width:1.5;"/>
   </g>
   <g id="line2d_12">
    <path clip-path="url(#p2da69c8eec)" d="M 87.916364 293.790993 
L 92.476033 295.479084 
L 97.035702 292.829415 
L 101.595372 292.194149 
L 115.27438 297.369903 
L 119.83405 295.075703 
L 124.393719 295.936289 
L 128.953388 294.924802 
L 133.513058 293.142682 
L 147.192066 293.717014 
L 151.751736 298.113662 
L 156.311405 302.874082 
L 160.871074 303.991717 
L 165.430744 303.303695 
L 179.109752 305.349121 
L 183.669421 302.795829 
L 188.229091 298.053824 
L 192.78876 302.639489 
L 197.34843 305.370905 
L 211.027438 310.932586 
L 215.587107 310.726455 
L 220.146777 313.192487 
L 224.706446 311.749807 
L 229.266116 314.996714 
L 242.945124 317.017286 
L 247.504793 314.976546 
L 252.064463 315.151041 
L 256.624132 316.637169 
L 261.183802 319.691918 
L 274.86281 322.000402 
L 279.422479 319.973539 
L 283.982149 320.810334 
L 288.541818 320.925159 
L 293.101488 320.516696 
L 306.780496 317.934874 
L 311.340165 314.376287 
L 315.899835 318.260168 
L 320.459504 317.625479 
L 325.019174 320.198846 
L 338.698182 322.595793 
L 343.257851 319.833132 
L 347.817521 319.772931 
L 352.37719 318.541945 
L 356.93686 316.604913 
L 370.615868 315.456005 
L 375.175537 314.295415 
L 379.735207 317.061443 
L 384.294876 319.103652 
L 388.854545 321.519485 
L 402.533554 322.776362 
L 407.093223 321.515638 
L 411.652893 322.062369 
L 416.212562 319.648846 
L 420.772231 320.353227 
L 434.45124 319.093343 
L 439.010909 318.529204 
L 443.570579 320.61753 
L 448.130248 319.75547 
L 452.689917 317.797852 
L 466.368926 318.540603 
L 470.928595 319.006586 
L 475.488264 320.68762 
L 480.047934 320.188524 
L 484.607603 318.309164 
L 498.286612 314.357788 
L 507.40595 317.584874 
L 511.96562 317.644002 
L 516.525289 315.9495 
L 530.204298 317.119496 
L 534.763967 315.139267 
L 539.323636 314.599861 
L 543.883306 316.658266 
L 548.442975 316.343002 
L 562.121983 317.113859 
L 566.681653 319.930327 
L 571.241322 319.089608 
L 575.800992 321.896531 
L 580.360661 321.385467 
L 594.039669 323.401767 
L 598.599339 322.404905 
L 603.159008 322.549955 
L 607.718678 323.908766 
L 612.278347 323.467855 
L 625.957355 325.159362 
L 635.076694 325.276225 
L 639.636364 328.51126 
L 644.196033 326.490143 
L 657.875041 326.690197 
L 666.99438 322.771206 
L 671.55405 325.357309 
L 676.113719 324.656558 
L 689.792727 326.174755 
L 694.352397 324.501176 
L 698.912066 325.248289 
L 703.471736 325.231607 
L 708.031405 324.430049 
L 721.710413 325.286112 
L 726.270083 322.659472 
L 730.829752 325.133029 
L 735.389421 323.918265 
L 739.949091 322.486837 
L 758.187769 320.600484 
L 762.747438 322.206144 
L 767.307107 325.597318 
L 771.866777 326.166551 
L 785.545785 323.391099 
L 790.105455 323.331457 
L 794.665124 322.441455 
L 799.224793 321.842685 
L 803.784463 321.813261 
L 817.463471 322.215001 
L 822.02314 324.058103 
L 826.58281 324.469431 
L 831.142479 320.868668 
L 835.702149 319.577963 
L 849.381157 320.671886 
L 853.940826 319.651739 
L 858.500496 318.08563 
L 863.060165 318.131302 
L 867.619835 318.79196 
L 881.298843 316.386264 
L 885.858512 314.668538 
L 890.418182 313.794186 
L 894.977851 317.253674 
L 899.537521 316.160244 
L 913.216529 313.871065 
L 917.776198 309.805565 
L 922.335868 310.152518 
L 926.895537 308.824473 
L 931.455207 304.359358 
L 945.134215 305.526493 
L 949.693884 305.507859 
L 954.253554 307.977567 
L 958.813223 309.501788 
L 963.372893 308.585875 
L 977.051901 306.041772 
L 981.61157 302.499469 
L 986.17124 304.037975 
L 990.730909 299.529236 
L 995.290579 298.731603 
L 1008.969587 298.959943 
L 1013.529256 294.256508 
L 1018.088926 297.081845 
L 1022.648595 297.851975 
L 1027.208264 298.851634 
L 1040.887273 302.899046 
L 1045.446942 303.664453 
L 1050.006612 306.831312 
L 1054.566281 302.964634 
L 1059.12595 306.113106 
L 1072.804959 305.553505 
L 1077.364628 309.268444 
L 1081.924298 309.447729 
L 1086.483967 306.494114 
L 1091.043636 309.994748 
L 1091.043636 309.994748 
" style="fill:none;stroke:#d62728;stroke-linecap:square;stroke-width:1.5;"/>
   </g>
   <g id="line2d_13">
    <path clip-path="url(#p2da69c8eec)" d="M 87.916364 287.481666 
L 92.476033 291.282423 
L 97.035702 296.530616 
L 101.595372 290.563804 
L 115.27438 296.596395 
L 119.83405 293.337108 
L 124.393719 291.010212 
L 128.953388 290.253537 
L 133.513058 286.667642 
L 147.192066 286.213935 
L 151.751736 290.513731 
L 156.311405 288.034492 
L 160.871074 289.315608 
L 165.430744 293.037912 
L 179.109752 287.419529 
L 183.669421 288.818006 
L 188.229091 287.894514 
L 192.78876 292.815855 
L 197.34843 289.468251 
L 211.027438 294.31741 
L 215.587107 291.448388 
L 224.706446 288.274011 
L 229.266116 283.361948 
L 242.945124 282.406199 
L 247.504793 274.856897 
L 252.064463 272.985644 
L 256.624132 275.363113 
L 261.183802 279.093804 
L 274.86281 276.520458 
L 279.422479 284.15798 
L 283.982149 284.386431 
L 288.541818 281.532879 
L 293.101488 279.074405 
L 306.780496 275.779027 
L 311.340165 273.28597 
L 315.899835 276.433578 
L 320.459504 279.097195 
L 325.019174 278.171317 
L 338.698182 275.067596 
L 343.257851 275.156994 
L 347.817521 275.082456 
L 352.37719 267.611447 
L 356.93686 270.638965 
L 370.615868 272.514436 
L 375.175537 274.999236 
L 379.735207 275.501562 
L 384.294876 275.045836 
L 388.854545 282.524528 
L 402.533554 281.676346 
L 407.093223 283.400934 
L 411.652893 287.641916 
L 416.212562 287.52839 
L 420.772231 286.919626 
L 434.45124 283.511955 
L 439.010909 282.995866 
L 443.570579 281.46847 
L 448.130248 283.106402 
L 452.689917 280.262448 
L 466.368926 278.022559 
L 475.488264 278.466187 
L 480.047934 279.450743 
L 484.607603 283.665768 
L 498.286612 280.763106 
L 502.846281 275.407899 
L 507.40595 275.723934 
L 511.96562 277.301866 
L 516.525289 283.351912 
L 534.763967 282.724536 
L 539.323636 281.929647 
L 543.883306 277.582712 
L 548.442975 271.278891 
L 562.121983 271.995233 
L 566.681653 272.81824 
L 571.241322 272.565535 
L 575.800992 272.878356 
L 580.360661 270.124772 
L 598.599339 265.899456 
L 603.159008 269.521608 
L 607.718678 265.516586 
L 612.278347 262.893773 
L 625.957355 262.808275 
L 630.517025 261.13111 
L 635.076694 256.378853 
L 639.636364 254.523269 
L 644.196033 255.443502 
L 657.875041 247.582179 
L 662.434711 251.601058 
L 666.99438 250.700303 
L 671.55405 250.236251 
L 676.113719 253.216254 
L 689.792727 245.253523 
L 694.352397 244.881507 
L 698.912066 235.512567 
L 703.471736 243.024577 
L 708.031405 244.104426 
L 721.710413 240.065361 
L 726.270083 242.97209 
L 730.829752 253.160715 
L 735.389421 249.586879 
L 739.949091 242.804963 
L 753.628099 236.432563 
L 758.187769 231.873529 
L 762.747438 240.206557 
L 767.307107 238.57556 
L 771.866777 230.287358 
L 785.545785 220.522111 
L 790.105455 222.603056 
L 794.665124 229.493477 
L 799.224793 228.268266 
L 803.784463 222.151086 
L 817.463471 215.767629 
L 822.02314 223.211768 
L 826.58281 231.353605 
L 831.142479 222.803209 
L 835.702149 216.683975 
L 849.381157 224.66626 
L 853.940826 226.995753 
L 858.500496 221.779069 
L 863.060165 222.930803 
L 867.619835 219.19278 
L 881.298843 213.088754 
L 885.858512 211.738203 
L 890.418182 211.910361 
L 894.977851 213.688412 
L 899.537521 200.093847 
L 913.216529 199.119915 
L 917.776198 195.976585 
L 922.335868 191.204836 
L 926.895537 194.158836 
L 931.455207 193.332415 
L 945.134215 195.202078 
L 949.693884 200.459917 
L 954.253554 185.711384 
L 958.813223 183.528792 
L 963.372893 173.337775 
L 977.051901 186.700385 
L 981.61157 175.727848 
L 986.17124 166.889375 
L 990.730909 169.381452 
L 995.290579 157.304233 
L 1008.969587 172.606517 
L 1013.529256 182.998822 
L 1018.088926 177.814687 
L 1022.648595 175.30588 
L 1027.208264 170.700242 
L 1040.887273 170.049246 
L 1045.446942 176.054932 
L 1050.006612 179.880895 
L 1054.566281 189.609312 
L 1059.12595 188.921572 
L 1077.364628 188.12686 
L 1081.924298 191.538558 
L 1086.483967 190.884349 
L 1091.043636 182.997231 
L 1091.043636 182.997231 
" style="fill:none;stroke:#9467bd;stroke-linecap:square;stroke-width:1.5;"/>
   </g>
   <g id="line2d_14">
    <path clip-path="url(#p2da69c8eec)" d="M 87.916364 296.074603 
L 92.476033 297.851836 
L 97.035702 298.420439 
L 101.595372 294.761725 
L 115.27438 298.834573 
L 119.83405 298.653129 
L 124.393719 297.471782 
L 128.953388 303.376726 
L 133.513058 302.103566 
L 147.192066 306.087932 
L 151.751736 311.001185 
L 156.311405 306.371594 
L 160.871074 301.138151 
L 165.430744 297.349141 
L 179.109752 299.897745 
L 183.669421 304.940608 
L 188.229091 302.817204 
L 192.78876 303.532401 
L 197.34843 307.995101 
L 211.027438 308.047744 
L 215.587107 313.124869 
L 220.146777 309.077188 
L 224.706446 311.657837 
L 229.266116 310.003004 
L 242.945124 311.982515 
L 247.504793 311.779482 
L 252.064463 311.305005 
L 256.624132 314.536116 
L 261.183802 310.025035 
L 274.86281 307.133732 
L 283.982149 297.498769 
L 288.541818 296.224698 
L 293.101488 290.626925 
L 306.780496 296.547849 
L 311.340165 300.562149 
L 315.899835 306.201935 
L 320.459504 308.171051 
L 325.019174 309.382192 
L 338.698182 311.814425 
L 343.257851 308.477452 
L 347.817521 310.027133 
L 352.37719 312.329146 
L 356.93686 311.900139 
L 370.615868 315.538916 
L 375.175537 312.696459 
L 379.735207 316.940089 
L 384.294876 312.496885 
L 388.854545 309.770522 
L 402.533554 312.951981 
L 407.093223 317.858864 
L 411.652893 315.038012 
L 416.212562 313.071594 
L 420.772231 310.804551 
L 434.45124 307.99613 
L 439.010909 312.645234 
L 443.570579 314.058413 
L 448.130248 317.785281 
L 452.689917 314.533071 
L 466.368926 313.348528 
L 470.928595 315.013177 
L 475.488264 319.164227 
L 480.047934 320.805073 
L 484.607603 322.265272 
L 498.286612 320.414485 
L 502.846281 319.254757 
L 507.40595 315.900408 
L 511.96562 316.159744 
L 516.525289 319.690598 
L 530.204298 317.861888 
L 534.763967 315.530109 
L 539.323636 314.95363 
L 543.883306 312.3732 
L 548.442975 312.435487 
L 562.121983 312.207553 
L 566.681653 312.937378 
L 571.241322 317.648202 
L 575.800992 321.170952 
L 580.360661 325.050516 
L 594.039669 324.026939 
L 598.599339 325.457952 
L 603.159008 325.394339 
L 607.718678 322.364126 
L 612.278347 324.380051 
L 625.957355 325.064524 
L 630.517025 323.147672 
L 635.076694 325.285888 
L 639.636364 328.440172 
L 644.196033 329.87527 
L 657.875041 332.090444 
L 662.434711 329.471149 
L 666.99438 327.431537 
L 671.55405 326.494049 
L 676.113719 323.81398 
L 689.792727 321.460229 
L 694.352397 324.03716 
L 698.912066 321.011972 
L 703.471736 320.684984 
L 708.031405 318.109631 
L 721.710413 314.587654 
L 726.270083 316.334134 
L 730.829752 319.939957 
L 735.389421 322.259519 
L 739.949091 322.847165 
L 753.628099 320.320752 
L 758.187769 317.27272 
L 762.747438 321.739347 
L 767.307107 321.651585 
L 771.866777 322.327448 
L 785.545785 324.563999 
L 790.105455 327.453387 
L 794.665124 328.593828 
L 799.224793 325.58426 
L 803.784463 326.892011 
L 817.463471 326.757934 
L 822.02314 325.303877 
L 826.58281 326.320243 
L 831.142479 322.89996 
L 835.702149 319.231011 
L 849.381157 321.382452 
L 853.940826 321.405117 
L 863.060165 324.745241 
L 867.619835 328.248557 
L 881.298843 327.496503 
L 885.858512 327.477711 
L 890.418182 330.62553 
L 894.977851 332.039681 
L 899.537521 329.546882 
L 913.216529 331.266915 
L 917.776198 333.490006 
L 922.335868 333.551346 
L 926.895537 330.732879 
L 931.455207 332.37526 
L 945.134215 331.335784 
L 949.693884 329.701551 
L 954.253554 331.426177 
L 958.813223 330.004726 
L 963.372893 330.86583 
L 977.051901 330.026932 
L 981.61157 329.157871 
L 986.17124 328.918818 
L 990.730909 331.676166 
L 995.290579 329.604491 
L 1008.969587 330.786063 
L 1013.529256 332.778723 
L 1018.088926 335.514791 
L 1022.648595 335.022987 
L 1027.208264 334.044757 
L 1040.887273 336.80253 
L 1045.446942 336.740211 
L 1050.006612 338.153057 
L 1054.566281 337.444157 
L 1059.12595 339.080442 
L 1072.804959 338.183479 
L 1077.364628 338.735878 
L 1081.924298 336.654168 
L 1086.483967 338.53287 
L 1091.043636 339.296893 
L 1091.043636 339.296893 
" style="fill:none;stroke:#8c564b;stroke-linecap:square;stroke-width:1.5;"/>
   </g>
   <g id="line2d_15">
    <path clip-path="url(#p2da69c8eec)" d="M 87.916364 284.597535 
L 92.476033 286.460294 
L 97.035702 291.394809 
L 101.595372 289.023378 
L 115.27438 290.767503 
L 119.83405 287.424656 
L 124.393719 286.287924 
L 128.953388 278.561883 
L 133.513058 276.203136 
L 147.192066 269.995797 
L 151.751736 267.155995 
L 156.311405 272.438958 
L 160.871074 282.381602 
L 165.430744 291.402156 
L 179.109752 282.870601 
L 183.669421 277.940769 
L 188.229091 279.99933 
L 192.78876 284.45268 
L 197.34843 274.798727 
L 211.027438 280.536332 
L 215.587107 269.448956 
L 220.146777 274.982845 
L 224.706446 268.855833 
L 229.266116 265.70601 
L 242.945124 260.889578 
L 247.504793 251.722052 
L 252.064463 250.392773 
L 256.624132 246.299486 
L 261.183802 262.193186 
L 274.86281 264.622156 
L 279.422479 281.925243 
L 283.982149 288.528255 
L 288.541818 287.275587 
L 293.101488 291.344188 
L 306.780496 282.671186 
L 311.340165 275.518059 
L 315.899835 270.669316 
L 320.459504 270.300776 
L 325.019174 267.223021 
L 338.698182 259.356496 
L 343.257851 266.247896 
L 347.817521 263.406231 
L 352.37719 250.593497 
L 356.93686 255.119779 
L 370.615868 249.59539 
L 375.175537 259.540623 
L 379.735207 251.364971 
L 384.294876 261.611646 
L 388.854545 275.735279 
L 402.533554 269.58284 
L 407.093223 262.369356 
L 411.652893 274.0588 
L 416.212562 277.586482 
L 420.772231 280.789376 
L 434.45124 281.54243 
L 439.010909 274.110762 
L 443.570579 269.908848 
L 448.130248 264.661531 
L 452.689917 268.267529 
L 466.368926 268.026645 
L 470.928595 265.058722 
L 475.488264 256.822815 
L 480.047934 254.06317 
L 484.607603 255.771913 
L 498.286612 256.747345 
L 502.846281 252.731311 
L 507.40595 261.635664 
L 511.96562 262.908686 
L 516.525289 262.397733 
L 530.204298 265.981518 
L 534.763967 270.918744 
L 539.323636 271.129534 
L 543.883306 271.155816 
L 548.442975 264.261849 
L 562.121983 265.480212 
L 566.681653 264.955431 
L 571.241322 255.4155 
L 575.800992 247.384784 
L 580.360661 233.054149 
L 594.039669 232.159743 
L 598.599339 225.865309 
L 603.159008 231.221848 
L 607.718678 236.274815 
L 612.278347 226.529174 
L 625.957355 223.974189 
L 630.517025 228.727751 
L 635.076694 215.19784 
L 639.636364 200.154477 
L 644.196033 194.708299 
L 657.875041 171.016448 
L 662.434711 194.173282 
L 666.99438 203.183588 
L 671.55405 206.774944 
L 676.113719 222.482162 
L 689.792727 220.789545 
L 694.352397 211.452378 
L 698.912066 211.286608 
L 708.031405 231.375172 
L 721.710413 237.295031 
L 726.270083 235.707616 
L 730.829752 236.621259 
L 735.389421 225.653979 
L 739.949091 215.439448 
L 753.628099 216.968843 
L 758.187769 222.210789 
L 762.747438 217.319263 
L 767.307107 215.695403 
L 771.866777 203.451775 
L 785.545785 182.862003 
L 790.105455 171.832103 
L 794.665124 175.027396 
L 799.224793 189.913502 
L 803.784463 175.944333 
L 817.463471 168.161652 
L 822.02314 185.913509 
L 826.58281 191.416361 
L 831.142479 196.412857 
L 835.702149 204.505872 
L 849.381157 205.307694 
L 853.940826 207.877658 
L 858.500496 195.76486 
L 863.060165 189.951514 
L 867.619835 169.342393 
L 881.298843 165.350204 
L 885.858512 163.674006 
L 890.418182 146.059316 
L 894.977851 139.029506 
L 899.537521 136.87038 
L 913.216529 123.76137 
L 917.776198 102.208451 
L 922.335868 94.201658 
L 926.895537 124.89434 
L 931.455207 111.466649 
L 945.134215 122.885457 
L 949.693884 142.9563 
L 954.253554 111.452521 
L 958.813223 119.81527 
L 963.372893 99.578436 
L 977.051901 125.108618 
L 981.61157 116.634931 
L 986.17124 106.76072 
L 990.730909 89.057128 
L 995.290579 90.300217 
L 1008.969587 100.838398 
L 1013.529256 98.74741 
L 1018.088926 66.900292 
L 1022.648595 68.260196 
L 1027.208264 71.473565 
L 1040.887273 42.342106 
L 1045.446942 53.106146 
L 1050.006612 42.526292 
L 1054.566281 68.86135 
L 1059.12595 48.565277 
L 1072.804959 59.566331 
L 1077.364628 52.272362 
L 1081.924298 85.444226 
L 1086.483967 64.293824 
L 1091.043636 41.11 
L 1091.043636 41.11 
" style="fill:none;stroke:#e377c2;stroke-linecap:square;stroke-width:1.5;"/>
   </g>
   <g id="line2d_16">
    <path clip-path="url(#p2da69c8eec)" d="M 87.916364 298.992151 
L 92.476033 300.516826 
L 97.035702 301.357489 
L 101.595372 296.805084 
L 115.27438 299.281243 
L 119.83405 304.23665 
L 124.393719 306.670068 
L 128.953388 312.185411 
L 133.513058 306.721516 
L 147.192066 311.391277 
L 151.751736 315.970273 
L 156.311405 309.613161 
L 160.871074 307.443242 
L 165.430744 305.855448 
L 179.109752 310.381166 
L 183.669421 316.386743 
L 188.229091 315.32293 
L 192.78876 313.603777 
L 197.34843 313.991236 
L 211.027438 310.147661 
L 215.587107 317.138859 
L 220.146777 312.60241 
L 224.706446 318.658536 
L 229.266116 317.126221 
L 242.945124 318.079314 
L 247.504793 319.424218 
L 252.064463 317.156165 
L 256.624132 321.287376 
L 261.183802 319.180674 
L 274.86281 316.194642 
L 279.422479 310.318301 
L 283.982149 307.197857 
L 288.541818 307.836933 
L 293.101488 301.225934 
L 306.780496 309.108128 
L 311.340165 308.797564 
L 320.459504 312.598237 
L 325.019174 313.49102 
L 338.698182 313.722968 
L 343.257851 311.241285 
L 347.817521 310.607382 
L 352.37719 314.033542 
L 356.93686 311.976566 
L 370.615868 314.080571 
L 375.175537 308.630257 
L 379.735207 313.866519 
L 384.294876 310.526762 
L 388.854545 304.996295 
L 402.533554 306.081161 
L 407.093223 315.254742 
L 411.652893 311.219671 
L 416.212562 305.055725 
L 420.772231 301.294888 
L 434.45124 299.341039 
L 439.010909 304.068549 
L 443.570579 304.850093 
L 448.130248 307.704006 
L 452.689917 300.272036 
L 466.368926 295.004228 
L 470.928595 294.841584 
L 475.488264 304.385987 
L 480.047934 304.072993 
L 484.607603 305.703737 
L 498.286612 302.602432 
L 502.846281 299.881637 
L 507.40595 297.513325 
L 511.96562 298.470869 
L 516.525289 304.524314 
L 530.204298 306.805851 
L 534.763967 304.195304 
L 539.323636 302.533404 
L 543.883306 296.491044 
L 548.442975 292.25509 
L 562.121983 288.32959 
L 566.681653 296.499582 
L 571.241322 307.405873 
L 575.800992 312.375093 
L 580.360661 313.927744 
L 594.039669 311.356711 
L 598.599339 316.297721 
L 603.159008 320.427945 
L 607.718678 318.506329 
L 612.278347 319.51115 
L 625.957355 316.049789 
L 630.517025 311.164548 
L 635.076694 314.618754 
L 639.636364 321.81088 
L 644.196033 324.18155 
L 657.875041 324.815912 
L 662.434711 321.351308 
L 671.55405 318.282679 
L 676.113719 312.784582 
L 689.792727 311.487694 
L 694.352397 315.124685 
L 698.912066 311.683875 
L 703.471736 309.524848 
L 708.031405 310.219033 
L 721.710413 305.953578 
L 726.270083 310.760403 
L 730.829752 313.339666 
L 735.389421 318.764187 
L 739.949091 318.575148 
L 753.628099 317.024757 
L 758.187769 316.300304 
L 762.747438 316.952187 
L 767.307107 319.194942 
L 771.866777 320.109739 
L 785.545785 323.573789 
L 790.105455 326.470319 
L 794.665124 330.272953 
L 799.224793 326.856003 
L 803.784463 326.069219 
L 817.463471 326.821553 
L 822.02314 325.269968 
L 826.58281 328.240403 
L 831.142479 324.736137 
L 835.702149 318.666868 
L 849.381157 319.949569 
L 853.940826 317.442751 
L 858.500496 316.516298 
L 863.060165 317.707786 
L 867.619835 323.743923 
L 881.298843 325.658559 
L 885.858512 327.709162 
L 890.418182 331.938153 
L 894.977851 335.127609 
L 899.537521 333.617592 
L 913.216529 334.726934 
L 917.776198 338.361581 
L 922.335868 338.145381 
L 926.895537 335.401057 
L 931.455207 337.854866 
L 945.134215 337.511404 
L 949.693884 336.358052 
L 954.253554 339.901501 
L 958.813223 338.988482 
L 963.372893 340.299024 
L 977.051901 339.8826 
L 981.61157 338.846128 
L 986.17124 337.023248 
L 990.730909 338.17759 
L 995.290579 335.974208 
L 1008.969587 336.888994 
L 1013.529256 339.053155 
L 1018.088926 340.549675 
L 1022.648595 340.53121 
L 1027.208264 339.927326 
L 1040.887273 342.115401 
L 1045.446942 342.361822 
L 1050.006612 341.762064 
L 1054.566281 341.824434 
L 1059.12595 343.249257 
L 1072.804959 342.184415 
L 1077.364628 343.356273 
L 1081.924298 341.683954 
L 1086.483967 344.575414 
L 1091.043636 344.91 
L 1091.043636 344.91 
" style="fill:none;stroke:#7f7f7f;stroke-linecap:square;stroke-width:1.5;"/>
   </g>
   <g id="line2d_17">
    <path clip-path="url(#p2da69c8eec)" d="M 87.916364 290.399214 
L 92.476033 293.854117 
L 97.035702 299.240178 
L 101.595372 292.420272 
L 115.27438 296.725098 
L 119.83405 298.815171 
L 124.393719 300.510331 
L 128.953388 300.347897 
L 133.513058 291.853228 
L 147.192066 292.683702 
L 151.751736 296.792698 
L 156.311405 291.461315 
L 160.871074 296.391801 
L 165.430744 301.930184 
L 179.109752 299.499697 
L 183.669421 302.856259 
L 188.229091 302.933265 
L 192.78876 303.979703 
L 197.34843 297.202605 
L 211.027438 296.303716 
L 215.587107 296.184944 
L 220.146777 293.501156 
L 224.706446 297.040854 
L 229.266116 292.551672 
L 242.945124 290.53863 
L 247.504793 286.221749 
L 252.064463 281.29273 
L 256.624132 285.720705 
L 261.183802 292.303866 
L 274.86281 289.168461 
L 279.422479 292.834252 
L 283.982149 294.37944 
L 288.541818 294.012788 
L 293.101488 289.436531 
L 306.780496 289.928297 
L 311.340165 283.002906 
L 315.899835 281.369983 
L 320.459504 284.03243 
L 325.019174 282.815863 
L 338.698182 276.612751 
L 343.257851 277.984845 
L 347.817521 274.444818 
L 352.37719 268.86897 
L 356.93686 268.685419 
L 370.615868 267.76287 
L 375.175537 265.452139 
L 379.735207 267.173508 
L 384.294876 269.421806 
L 388.854545 272.554159 
L 402.533554 267.872515 
L 407.093223 275.90501 
L 411.652893 278.624437 
L 416.212562 271.893473 
L 420.772231 269.381581 
L 434.45124 267.26821 
L 439.010909 265.652902 
L 443.570579 262.34399 
L 448.130248 261.623913 
L 452.689917 251.66782 
L 466.368926 242.006758 
L 470.928595 237.931781 
L 475.488264 244.969048 
L 480.047934 241.267427 
L 484.607603 246.559314 
L 498.286612 241.291967 
L 502.846281 231.186812 
L 507.40595 236.874149 
L 511.96562 240.309563 
L 516.525289 251.228976 
L 530.204298 259.588744 
L 534.763967 260.031728 
L 539.323636 257.348314 
L 543.883306 246.788471 
L 548.442975 230.634658 
L 562.121983 224.904109 
L 566.681653 239.309947 
L 571.241322 247.610432 
L 575.800992 249.350506 
L 580.360661 238.76664 
L 594.039669 231.367839 
L 598.599339 237.693625 
L 603.159008 253.733228 
L 607.718678 252.95729 
L 612.278347 246.998608 
L 625.957355 235.537489 
L 630.517025 226.554128 
L 635.076694 221.944251 
L 639.636364 228.682115 
L 644.196033 231.980015 
L 657.875041 215.706723 
L 662.434711 219.983315 
L 666.99438 222.283896 
L 671.55405 220.430827 
L 676.113719 217.1149 
L 689.792727 211.568331 
L 694.352397 212.375165 
L 698.912066 201.317849 
L 703.471736 205.278552 
L 708.031405 218.429282 
L 721.710413 213.188823 
L 726.270083 223.978813 
L 730.829752 231.876581 
L 735.389421 234.897021 
L 739.949091 224.821099 
L 753.628099 221.398573 
L 758.187769 224.23549 
L 762.747438 221.363523 
L 767.307107 226.72728 
L 771.866777 218.268319 
L 785.545785 211.368662 
L 790.105455 213.31949 
L 794.665124 231.541781 
L 799.224793 228.079191 
L 803.784463 214.235003 
L 817.463471 211.106609 
L 822.02314 218.362927 
L 826.58281 234.339361 
L 831.142479 224.993048 
L 835.702149 209.623533 
L 849.381157 214.868062 
L 853.940826 208.594186 
L 858.500496 193.376345 
L 863.060165 191.857166 
L 867.619835 194.445151 
L 881.298843 199.262568 
L 885.858512 206.947316 
L 890.418182 212.044229 
L 894.977851 222.830443 
L 899.537521 213.791298 
L 913.216529 210.85081 
L 917.776198 216.964108 
L 922.335868 211.18594 
L 926.895537 211.489279 
L 931.455207 216.599477 
L 945.134215 221.208785 
L 949.693884 226.53955 
L 954.253554 225.415819 
L 958.813223 224.458928 
L 963.372893 220.621419 
L 977.051901 231.746889 
L 981.61157 221.101648 
L 986.17124 204.551244 
L 990.730909 200.755828 
L 995.290579 186.873867 
L 1008.969587 199.717613 
L 1013.529256 212.140838 
L 1018.088926 203.555112 
L 1022.648595 204.153136 
L 1027.208264 201.541796 
L 1040.887273 200.988632 
L 1045.446942 208.366667 
L 1050.006612 198.517999 
L 1054.566281 212.50886 
L 1059.12595 212.446106 
L 1072.804959 209.431255 
L 1077.364628 214.54846 
L 1081.924298 217.488233 
L 1086.483967 226.501635 
L 1091.043636 218.455795 
L 1091.043636 218.455795 
" style="fill:none;stroke:#bcbd22;stroke-linecap:square;stroke-width:1.5;"/>
   </g>
   <g id="patch_3">
    <path d="M 37.76 360.1 
L 37.76 25.92 
" style="fill:none;stroke:#000000;stroke-linecap:square;stroke-linejoin:miter;stroke-width:0.8;"/>
   </g>
   <g id="patch_4">
    <path d="M 1141.2 360.1 
L 1141.2 25.92 
" style="fill:none;stroke:#000000;stroke-linecap:square;stroke-linejoin:miter;stroke-width:0.8;"/>
   </g>
   <g id="patch_5">
    <path d="M 37.76 360.1 
L 1141.2 360.1 
" style="fill:none;stroke:#000000;stroke-linecap:square;stroke-linejoin:miter;stroke-width:0.8;"/>
   </g>
   <g id="patch_6">
    <path d="M 37.76 25.92 
L 1141.2 25.92 
" style="fill:none;stroke:#000000;stroke-linecap:square;stroke-linejoin:miter;stroke-width:0.8;"/>
   </g>
   <g id="text_6">
    <!-- Net Value: (2010-02-02 ~ 2010-10-08) -->
    <g transform="translate(473.3725 19.92)scale(0.12 -0.12)">
     <defs>
      <path d="M 9.8125 72.90625 
L 23.09375 72.90625 
L 55.421875 11.921875 
L 55.421875 72.90625 
L 64.984375 72.90625 
L 64.984375 0 
L 51.703125 0 
L 19.390625 60.984375 
L 19.390625 0 
L 9.8125 0 
z
" id="DejaVuSans-78"/>
      <path d="M 28.609375 0 
L 0.78125 72.90625 
L 11.078125 72.90625 
L 34.1875 11.53125 
L 57.328125 72.90625 
L 67.578125 72.90625 
L 39.796875 0 
z
" id="DejaVuSans-86"/>
      <path d="M 11.71875 12.40625 
L 22.015625 12.40625 
L 22.015625 0 
L 11.71875 0 
z
M 11.71875 51.703125 
L 22.015625 51.703125 
L 22.015625 39.3125 
L 11.71875 39.3125 
z
" id="DejaVuSans-58"/>
      <path d="M 31 75.875 
Q 24.46875 64.65625 21.28125 53.65625 
Q 18.109375 42.671875 18.109375 31.390625 
Q 18.109375 20.125 21.3125 9.0625 
Q 24.515625 -2 31 -13.1875 
L 23.1875 -13.1875 
Q 15.875 -1.703125 12.234375 9.375 
Q 8.59375 20.453125 8.59375 31.390625 
Q 8.59375 42.28125 12.203125 53.3125 
Q 15.828125 64.359375 23.1875 75.875 
z
" id="DejaVuSans-40"/>
      <path d="M 31.78125 66.40625 
Q 24.171875 66.40625 20.328125 58.90625 
Q 16.5 51.421875 16.5 36.375 
Q 16.5 21.390625 20.328125 13.890625 
Q 24.171875 6.390625 31.78125 6.390625 
Q 39.453125 6.390625 43.28125 13.890625 
Q 47.125 21.390625 47.125 36.375 
Q 47.125 51.421875 43.28125 58.90625 
Q 39.453125 66.40625 31.78125 66.40625 
z
M 31.78125 74.21875 
Q 44.046875 74.21875 50.515625 64.515625 
Q 56.984375 54.828125 56.984375 36.375 
Q 56.984375 17.96875 50.515625 8.265625 
Q 44.046875 -1.421875 31.78125 -1.421875 
Q 19.53125 -1.421875 13.0625 8.265625 
Q 6.59375 17.96875 6.59375 36.375 
Q 6.59375 54.828125 13.0625 64.515625 
Q 19.53125 74.21875 31.78125 74.21875 
z
" id="DejaVuSans-48"/>
      <path d="M 4.890625 31.390625 
L 31.203125 31.390625 
L 31.203125 23.390625 
L 4.890625 23.390625 
z
" id="DejaVuSans-45"/>
      <path d="M 73.1875 39.890625 
L 73.1875 31.203125 
Q 68.0625 27.34375 63.6875 25.6875 
Q 59.328125 24.03125 54.59375 24.03125 
Q 49.21875 24.03125 42.09375 26.90625 
Q 41.546875 27.09375 41.3125 27.203125 
Q 40.96875 27.34375 40.234375 27.59375 
Q 32.671875 30.609375 28.078125 30.609375 
Q 23.78125 30.609375 19.578125 28.734375 
Q 15.375 26.859375 10.59375 22.796875 
L 10.59375 31.5 
Q 15.71875 35.359375 20.09375 37.03125 
Q 24.46875 38.71875 29.203125 38.71875 
Q 34.578125 38.71875 41.75 35.796875 
Q 42.234375 35.59375 42.484375 35.5 
Q 42.875 35.359375 43.5625 35.109375 
Q 51.125 32.078125 55.71875 32.078125 
Q 59.90625 32.078125 64.03125 33.9375 
Q 68.171875 35.796875 73.1875 39.890625 
z
" id="DejaVuSans-126"/>
      <path d="M 31.78125 34.625 
Q 24.75 34.625 20.71875 30.859375 
Q 16.703125 27.09375 16.703125 20.515625 
Q 16.703125 13.921875 20.71875 10.15625 
Q 24.75 6.390625 31.78125 6.390625 
Q 38.8125 6.390625 42.859375 10.171875 
Q 46.921875 13.96875 46.921875 20.515625 
Q 46.921875 27.09375 42.890625 30.859375 
Q 38.875 34.625 31.78125 34.625 
z
M 21.921875 38.8125 
Q 15.578125 40.375 12.03125 44.71875 
Q 8.5 49.078125 8.5 55.328125 
Q 8.5 64.0625 14.71875 69.140625 
Q 20.953125 74.21875 31.78125 74.21875 
Q 42.671875 74.21875 48.875 69.140625 
Q 55.078125 64.0625 55.078125 55.328125 
Q 55.078125 49.078125 51.53125 44.71875 
Q 48 40.375 41.703125 38.8125 
Q 48.828125 37.15625 52.796875 32.3125 
Q 56.78125 27.484375 56.78125 20.515625 
Q 56.78125 9.90625 50.3125 4.234375 
Q 43.84375 -1.421875 31.78125 -1.421875 
Q 19.734375 -1.421875 13.25 4.234375 
Q 6.78125 9.90625 6.78125 20.515625 
Q 6.78125 27.484375 10.78125 32.3125 
Q 14.796875 37.15625 21.921875 38.8125 
z
M 18.3125 54.390625 
Q 18.3125 48.734375 21.84375 45.5625 
Q 25.390625 42.390625 31.78125 42.390625 
Q 38.140625 42.390625 41.71875 45.5625 
Q 45.3125 48.734375 45.3125 54.390625 
Q 45.3125 60.0625 41.71875 63.234375 
Q 38.140625 66.40625 31.78125 66.40625 
Q 25.390625 66.40625 21.84375 63.234375 
Q 18.3125 60.0625 18.3125 54.390625 
z
" id="DejaVuSans-56"/>
      <path d="M 8.015625 75.875 
L 15.828125 75.875 
Q 23.140625 64.359375 26.78125 53.3125 
Q 30.421875 42.28125 30.421875 31.390625 
Q 30.421875 20.453125 26.78125 9.375 
Q 23.140625 -1.703125 15.828125 -13.1875 
L 8.015625 -13.1875 
Q 14.5 -2 17.703125 9.0625 
Q 20.90625 20.125 20.90625 31.390625 
Q 20.90625 42.671875 17.703125 53.65625 
Q 14.5 64.65625 8.015625 75.875 
z
" id="DejaVuSans-41"/>
     </defs>
     <use xlink:href="#DejaVuSans-78"/>
     <use x="74.804688" xlink:href="#DejaVuSans-101"/>
     <use x="136.328125" xlink:href="#DejaVuSans-116"/>
     <use x="175.537109" xlink:href="#DejaVuSans-32"/>
     <use x="207.324219" xlink:href="#DejaVuSans-86"/>
     <use x="267.982422" xlink:href="#DejaVuSans-97"/>
     <use x="329.261719" xlink:href="#DejaVuSans-108"/>
     <use x="357.044922" xlink:href="#DejaVuSans-117"/>
     <use x="420.423828" xlink:href="#DejaVuSans-101"/>
     <use x="481.947266" xlink:href="#DejaVuSans-58"/>
     <use x="515.638672" xlink:href="#DejaVuSans-32"/>
     <use x="547.425781" xlink:href="#DejaVuSans-40"/>
     <use x="586.439453" xlink:href="#DejaVuSans-50"/>
     <use x="650.0625" xlink:href="#DejaVuSans-48"/>
     <use x="713.685547" xlink:href="#DejaVuSans-49"/>
     <use x="777.308594" xlink:href="#DejaVuSans-48"/>
     <use x="840.931641" xlink:href="#DejaVuSans-45"/>
     <use x="877.015625" xlink:href="#DejaVuSans-48"/>
     <use x="940.638672" xlink:href="#DejaVuSans-50"/>
     <use x="1004.261719" xlink:href="#DejaVuSans-45"/>
     <use x="1040.345703" xlink:href="#DejaVuSans-48"/>
     <use x="1103.96875" xlink:href="#DejaVuSans-50"/>
     <use x="1167.591797" xlink:href="#DejaVuSans-32"/>
     <use x="1199.378906" xlink:href="#DejaVuSans-126"/>
     <use x="1283.167969" xlink:href="#DejaVuSans-32"/>
     <use x="1314.955078" xlink:href="#DejaVuSans-50"/>
     <use x="1378.578125" xlink:href="#DejaVuSans-48"/>
     <use x="1442.201172" xlink:href="#DejaVuSans-49"/>
     <use x="1505.824219" xlink:href="#DejaVuSans-48"/>
     <use x="1569.447266" xlink:href="#DejaVuSans-45"/>
     <use x="1605.53125" xlink:href="#DejaVuSans-49"/>
     <use x="1669.154297" xlink:href="#DejaVuSans-48"/>
     <use x="1732.777344" xlink:href="#DejaVuSans-45"/>
     <use x="1768.861328" xlink:href="#DejaVuSans-48"/>
     <use x="1832.484375" xlink:href="#DejaVuSans-56"/>
     <use x="1896.107422" xlink:href="#DejaVuSans-41"/>
    </g>
   </g>
   <g id="legend_1">
    <g id="patch_7">
     <path d="M 44.76 168.248125 
L 141.249062 168.248125 
Q 143.249062 168.248125 143.249062 166.248125 
L 143.249062 32.92 
Q 143.249062 30.92 141.249062 30.92 
L 44.76 30.92 
Q 42.76 30.92 42.76 32.92 
L 42.76 166.248125 
Q 42.76 168.248125 44.76 168.248125 
z
" style="fill:#ffffff;opacity:0.8;stroke:#cccccc;stroke-linejoin:miter;"/>
    </g>
    <g id="line2d_18">
     <path d="M 46.76 39.018438 
L 66.76 39.018438 
" style="fill:none;stroke:#1f77b4;stroke-linecap:square;stroke-width:1.5;"/>
    </g>
    <g id="line2d_19"/>
    <g id="text_7">
     <!-- group_1 -->
     <g transform="translate(74.76 42.518438)scale(0.1 -0.1)">
      <defs>
       <path d="M 45.40625 27.984375 
Q 45.40625 37.75 41.375 43.109375 
Q 37.359375 48.484375 30.078125 48.484375 
Q 22.859375 48.484375 18.828125 43.109375 
Q 14.796875 37.75 14.796875 27.984375 
Q 14.796875 18.265625 18.828125 12.890625 
Q 22.859375 7.515625 30.078125 7.515625 
Q 37.359375 7.515625 41.375 12.890625 
Q 45.40625 18.265625 45.40625 27.984375 
z
M 54.390625 6.78125 
Q 54.390625 -7.171875 48.1875 -13.984375 
Q 42 -20.796875 29.203125 -20.796875 
Q 24.46875 -20.796875 20.265625 -20.09375 
Q 16.0625 -19.390625 12.109375 -17.921875 
L 12.109375 -9.1875 
Q 16.0625 -11.328125 19.921875 -12.34375 
Q 23.78125 -13.375 27.78125 -13.375 
Q 36.625 -13.375 41.015625 -8.765625 
Q 45.40625 -4.15625 45.40625 5.171875 
L 45.40625 9.625 
Q 42.625 4.78125 38.28125 2.390625 
Q 33.9375 0 27.875 0 
Q 17.828125 0 11.671875 7.65625 
Q 5.515625 15.328125 5.515625 27.984375 
Q 5.515625 40.671875 11.671875 48.328125 
Q 17.828125 56 27.875 56 
Q 33.9375 56 38.28125 53.609375 
Q 42.625 51.21875 45.40625 46.390625 
L 45.40625 54.6875 
L 54.390625 54.6875 
z
" id="DejaVuSans-103"/>
       <path d="M 41.109375 46.296875 
Q 39.59375 47.171875 37.8125 47.578125 
Q 36.03125 48 33.890625 48 
Q 26.265625 48 22.1875 43.046875 
Q 18.109375 38.09375 18.109375 28.8125 
L 18.109375 0 
L 9.078125 0 
L 9.078125 54.6875 
L 18.109375 54.6875 
L 18.109375 46.1875 
Q 20.953125 51.171875 25.484375 53.578125 
Q 30.03125 56 36.53125 56 
Q 37.453125 56 38.578125 55.875 
Q 39.703125 55.765625 41.0625 55.515625 
z
" id="DejaVuSans-114"/>
       <path d="M 30.609375 48.390625 
Q 23.390625 48.390625 19.1875 42.75 
Q 14.984375 37.109375 14.984375 27.296875 
Q 14.984375 17.484375 19.15625 11.84375 
Q 23.34375 6.203125 30.609375 6.203125 
Q 37.796875 6.203125 41.984375 11.859375 
Q 46.1875 17.53125 46.1875 27.296875 
Q 46.1875 37.015625 41.984375 42.703125 
Q 37.796875 48.390625 30.609375 48.390625 
z
M 30.609375 56 
Q 42.328125 56 49.015625 48.375 
Q 55.71875 40.765625 55.71875 27.296875 
Q 55.71875 13.875 49.015625 6.21875 
Q 42.328125 -1.421875 30.609375 -1.421875 
Q 18.84375 -1.421875 12.171875 6.21875 
Q 5.515625 13.875 5.515625 27.296875 
Q 5.515625 40.765625 12.171875 48.375 
Q 18.84375 56 30.609375 56 
z
" id="DejaVuSans-111"/>
       <path d="M 18.109375 8.203125 
L 18.109375 -20.796875 
L 9.078125 -20.796875 
L 9.078125 54.6875 
L 18.109375 54.6875 
L 18.109375 46.390625 
Q 20.953125 51.265625 25.265625 53.625 
Q 29.59375 56 35.59375 56 
Q 45.5625 56 51.78125 48.09375 
Q 58.015625 40.1875 58.015625 27.296875 
Q 58.015625 14.40625 51.78125 6.484375 
Q 45.5625 -1.421875 35.59375 -1.421875 
Q 29.59375 -1.421875 25.265625 0.953125 
Q 20.953125 3.328125 18.109375 8.203125 
z
M 48.6875 27.296875 
Q 48.6875 37.203125 44.609375 42.84375 
Q 40.53125 48.484375 33.40625 48.484375 
Q 26.265625 48.484375 22.1875 42.84375 
Q 18.109375 37.203125 18.109375 27.296875 
Q 18.109375 17.390625 22.1875 11.75 
Q 26.265625 6.109375 33.40625 6.109375 
Q 40.53125 6.109375 44.609375 11.75 
Q 48.6875 17.390625 48.6875 27.296875 
z
" id="DejaVuSans-112"/>
       <path d="M 50.984375 -16.609375 
L 50.984375 -23.578125 
L -0.984375 -23.578125 
L -0.984375 -16.609375 
z
" id="DejaVuSans-95"/>
      </defs>
      <use xlink:href="#DejaVuSans-103"/>
      <use x="63.476562" xlink:href="#DejaVuSans-114"/>
      <use x="102.339844" xlink:href="#DejaVuSans-111"/>
      <use x="163.521484" xlink:href="#DejaVuSans-117"/>
      <use x="226.900391" xlink:href="#DejaVuSans-112"/>
      <use x="290.376953" xlink:href="#DejaVuSans-95"/>
      <use x="340.376953" xlink:href="#DejaVuSans-49"/>
     </g>
    </g>
    <g id="line2d_20">
     <path d="M 46.76 53.974688 
L 66.76 53.974688 
" style="fill:none;stroke:#ff7f0e;stroke-linecap:square;stroke-width:1.5;"/>
    </g>
    <g id="line2d_21"/>
    <g id="text_8">
     <!-- group_2 -->
     <g transform="translate(74.76 57.474688)scale(0.1 -0.1)">
      <use xlink:href="#DejaVuSans-103"/>
      <use x="63.476562" xlink:href="#DejaVuSans-114"/>
      <use x="102.339844" xlink:href="#DejaVuSans-111"/>
      <use x="163.521484" xlink:href="#DejaVuSans-117"/>
      <use x="226.900391" xlink:href="#DejaVuSans-112"/>
      <use x="290.376953" xlink:href="#DejaVuSans-95"/>
      <use x="340.376953" xlink:href="#DejaVuSans-50"/>
     </g>
    </g>
    <g id="line2d_22">
     <path d="M 46.76 68.930938 
L 66.76 68.930938 
" style="fill:none;stroke:#2ca02c;stroke-linecap:square;stroke-width:1.5;"/>
    </g>
    <g id="line2d_23"/>
    <g id="text_9">
     <!-- group_3 -->
     <g transform="translate(74.76 72.430938)scale(0.1 -0.1)">
      <use xlink:href="#DejaVuSans-103"/>
      <use x="63.476562" xlink:href="#DejaVuSans-114"/>
      <use x="102.339844" xlink:href="#DejaVuSans-111"/>
      <use x="163.521484" xlink:href="#DejaVuSans-117"/>
      <use x="226.900391" xlink:href="#DejaVuSans-112"/>
      <use x="290.376953" xlink:href="#DejaVuSans-95"/>
      <use x="340.376953" xlink:href="#DejaVuSans-51"/>
     </g>
    </g>
    <g id="line2d_24">
     <path d="M 46.76 83.887188 
L 66.76 83.887188 
" style="fill:none;stroke:#d62728;stroke-linecap:square;stroke-width:1.5;"/>
    </g>
    <g id="line2d_25"/>
    <g id="text_10">
     <!-- group_4 -->
     <g transform="translate(74.76 87.387188)scale(0.1 -0.1)">
      <use xlink:href="#DejaVuSans-103"/>
      <use x="63.476562" xlink:href="#DejaVuSans-114"/>
      <use x="102.339844" xlink:href="#DejaVuSans-111"/>
      <use x="163.521484" xlink:href="#DejaVuSans-117"/>
      <use x="226.900391" xlink:href="#DejaVuSans-112"/>
      <use x="290.376953" xlink:href="#DejaVuSans-95"/>
      <use x="340.376953" xlink:href="#DejaVuSans-52"/>
     </g>
    </g>
    <g id="line2d_26">
     <path d="M 46.76 98.843438 
L 66.76 98.843438 
" style="fill:none;stroke:#9467bd;stroke-linecap:square;stroke-width:1.5;"/>
    </g>
    <g id="line2d_27"/>
    <g id="text_11">
     <!-- group_5 -->
     <g transform="translate(74.76 102.343438)scale(0.1 -0.1)">
      <defs>
       <path d="M 10.796875 72.90625 
L 49.515625 72.90625 
L 49.515625 64.59375 
L 19.828125 64.59375 
L 19.828125 46.734375 
Q 21.96875 47.46875 24.109375 47.828125 
Q 26.265625 48.1875 28.421875 48.1875 
Q 40.625 48.1875 47.75 41.5 
Q 54.890625 34.8125 54.890625 23.390625 
Q 54.890625 11.625 47.5625 5.09375 
Q 40.234375 -1.421875 26.90625 -1.421875 
Q 22.3125 -1.421875 17.546875 -0.640625 
Q 12.796875 0.140625 7.71875 1.703125 
L 7.71875 11.625 
Q 12.109375 9.234375 16.796875 8.0625 
Q 21.484375 6.890625 26.703125 6.890625 
Q 35.15625 6.890625 40.078125 11.328125 
Q 45.015625 15.765625 45.015625 23.390625 
Q 45.015625 31 40.078125 35.4375 
Q 35.15625 39.890625 26.703125 39.890625 
Q 22.75 39.890625 18.8125 39.015625 
Q 14.890625 38.140625 10.796875 36.28125 
z
" id="DejaVuSans-53"/>
      </defs>
      <use xlink:href="#DejaVuSans-103"/>
      <use x="63.476562" xlink:href="#DejaVuSans-114"/>
      <use x="102.339844" xlink:href="#DejaVuSans-111"/>
      <use x="163.521484" xlink:href="#DejaVuSans-117"/>
      <use x="226.900391" xlink:href="#DejaVuSans-112"/>
      <use x="290.376953" xlink:href="#DejaVuSans-95"/>
      <use x="340.376953" xlink:href="#DejaVuSans-53"/>
     </g>
    </g>
    <g id="line2d_28">
     <path d="M 46.76 113.799688 
L 66.76 113.799688 
" style="fill:none;stroke:#8c564b;stroke-linecap:square;stroke-width:1.5;"/>
    </g>
    <g id="line2d_29"/>
    <g id="text_12">
     <!-- benchmark -->
     <g transform="translate(74.76 117.299688)scale(0.1 -0.1)">
      <defs>
       <path d="M 48.6875 27.296875 
Q 48.6875 37.203125 44.609375 42.84375 
Q 40.53125 48.484375 33.40625 48.484375 
Q 26.265625 48.484375 22.1875 42.84375 
Q 18.109375 37.203125 18.109375 27.296875 
Q 18.109375 17.390625 22.1875 11.75 
Q 26.265625 6.109375 33.40625 6.109375 
Q 40.53125 6.109375 44.609375 11.75 
Q 48.6875 17.390625 48.6875 27.296875 
z
M 18.109375 46.390625 
Q 20.953125 51.265625 25.265625 53.625 
Q 29.59375 56 35.59375 56 
Q 45.5625 56 51.78125 48.09375 
Q 58.015625 40.1875 58.015625 27.296875 
Q 58.015625 14.40625 51.78125 6.484375 
Q 45.5625 -1.421875 35.59375 -1.421875 
Q 29.59375 -1.421875 25.265625 0.953125 
Q 20.953125 3.328125 18.109375 8.203125 
L 18.109375 0 
L 9.078125 0 
L 9.078125 75.984375 
L 18.109375 75.984375 
z
" id="DejaVuSans-98"/>
       <path d="M 48.78125 52.59375 
L 48.78125 44.1875 
Q 44.96875 46.296875 41.140625 47.34375 
Q 37.3125 48.390625 33.40625 48.390625 
Q 24.65625 48.390625 19.8125 42.84375 
Q 14.984375 37.3125 14.984375 27.296875 
Q 14.984375 17.28125 19.8125 11.734375 
Q 24.65625 6.203125 33.40625 6.203125 
Q 37.3125 6.203125 41.140625 7.25 
Q 44.96875 8.296875 48.78125 10.40625 
L 48.78125 2.09375 
Q 45.015625 0.34375 40.984375 -0.53125 
Q 36.96875 -1.421875 32.421875 -1.421875 
Q 20.0625 -1.421875 12.78125 6.34375 
Q 5.515625 14.109375 5.515625 27.296875 
Q 5.515625 40.671875 12.859375 48.328125 
Q 20.21875 56 33.015625 56 
Q 37.15625 56 41.109375 55.140625 
Q 45.0625 54.296875 48.78125 52.59375 
z
" id="DejaVuSans-99"/>
       <path d="M 54.890625 33.015625 
L 54.890625 0 
L 45.90625 0 
L 45.90625 32.71875 
Q 45.90625 40.484375 42.875 44.328125 
Q 39.84375 48.1875 33.796875 48.1875 
Q 26.515625 48.1875 22.3125 43.546875 
Q 18.109375 38.921875 18.109375 30.90625 
L 18.109375 0 
L 9.078125 0 
L 9.078125 75.984375 
L 18.109375 75.984375 
L 18.109375 46.1875 
Q 21.34375 51.125 25.703125 53.5625 
Q 30.078125 56 35.796875 56 
Q 45.21875 56 50.046875 50.171875 
Q 54.890625 44.34375 54.890625 33.015625 
z
" id="DejaVuSans-104"/>
       <path d="M 52 44.1875 
Q 55.375 50.25 60.0625 53.125 
Q 64.75 56 71.09375 56 
Q 79.640625 56 84.28125 50.015625 
Q 88.921875 44.046875 88.921875 33.015625 
L 88.921875 0 
L 79.890625 0 
L 79.890625 32.71875 
Q 79.890625 40.578125 77.09375 44.375 
Q 74.3125 48.1875 68.609375 48.1875 
Q 61.625 48.1875 57.5625 43.546875 
Q 53.515625 38.921875 53.515625 30.90625 
L 53.515625 0 
L 44.484375 0 
L 44.484375 32.71875 
Q 44.484375 40.625 41.703125 44.40625 
Q 38.921875 48.1875 33.109375 48.1875 
Q 26.21875 48.1875 22.15625 43.53125 
Q 18.109375 38.875 18.109375 30.90625 
L 18.109375 0 
L 9.078125 0 
L 9.078125 54.6875 
L 18.109375 54.6875 
L 18.109375 46.1875 
Q 21.1875 51.21875 25.484375 53.609375 
Q 29.78125 56 35.6875 56 
Q 41.65625 56 45.828125 52.96875 
Q 50 49.953125 52 44.1875 
z
" id="DejaVuSans-109"/>
       <path d="M 9.078125 75.984375 
L 18.109375 75.984375 
L 18.109375 31.109375 
L 44.921875 54.6875 
L 56.390625 54.6875 
L 27.390625 29.109375 
L 57.625 0 
L 45.90625 0 
L 18.109375 26.703125 
L 18.109375 0 
L 9.078125 0 
z
" id="DejaVuSans-107"/>
      </defs>
      <use xlink:href="#DejaVuSans-98"/>
      <use x="63.476562" xlink:href="#DejaVuSans-101"/>
      <use x="125" xlink:href="#DejaVuSans-110"/>
      <use x="188.378906" xlink:href="#DejaVuSans-99"/>
      <use x="243.359375" xlink:href="#DejaVuSans-104"/>
      <use x="306.738281" xlink:href="#DejaVuSans-109"/>
      <use x="404.150391" xlink:href="#DejaVuSans-97"/>
      <use x="465.429688" xlink:href="#DejaVuSans-114"/>
      <use x="506.542969" xlink:href="#DejaVuSans-107"/>
     </g>
    </g>
    <g id="line2d_30">
     <path d="M 46.76 128.477813 
L 66.76 128.477813 
" style="fill:none;stroke:#e377c2;stroke-linecap:square;stroke-width:1.5;"/>
    </g>
    <g id="line2d_31"/>
    <g id="text_13">
     <!-- long_excess -->
     <g transform="translate(74.76 131.977813)scale(0.1 -0.1)">
      <defs>
       <path d="M 54.890625 54.6875 
L 35.109375 28.078125 
L 55.90625 0 
L 45.3125 0 
L 29.390625 21.484375 
L 13.484375 0 
L 2.875 0 
L 24.125 28.609375 
L 4.6875 54.6875 
L 15.28125 54.6875 
L 29.78125 35.203125 
L 44.28125 54.6875 
z
" id="DejaVuSans-120"/>
       <path d="M 44.28125 53.078125 
L 44.28125 44.578125 
Q 40.484375 46.53125 36.375 47.5 
Q 32.28125 48.484375 27.875 48.484375 
Q 21.1875 48.484375 17.84375 46.4375 
Q 14.5 44.390625 14.5 40.28125 
Q 14.5 37.15625 16.890625 35.375 
Q 19.28125 33.59375 26.515625 31.984375 
L 29.59375 31.296875 
Q 39.15625 29.25 43.1875 25.515625 
Q 47.21875 21.78125 47.21875 15.09375 
Q 47.21875 7.46875 41.1875 3.015625 
Q 35.15625 -1.421875 24.609375 -1.421875 
Q 20.21875 -1.421875 15.453125 -0.5625 
Q 10.6875 0.296875 5.421875 2 
L 5.421875 11.28125 
Q 10.40625 8.6875 15.234375 7.390625 
Q 20.0625 6.109375 24.8125 6.109375 
Q 31.15625 6.109375 34.5625 8.28125 
Q 37.984375 10.453125 37.984375 14.40625 
Q 37.984375 18.0625 35.515625 20.015625 
Q 33.0625 21.96875 24.703125 23.78125 
L 21.578125 24.515625 
Q 13.234375 26.265625 9.515625 29.90625 
Q 5.8125 33.546875 5.8125 39.890625 
Q 5.8125 47.609375 11.28125 51.796875 
Q 16.75 56 26.8125 56 
Q 31.78125 56 36.171875 55.265625 
Q 40.578125 54.546875 44.28125 53.078125 
z
" id="DejaVuSans-115"/>
      </defs>
      <use xlink:href="#DejaVuSans-108"/>
      <use x="27.783203" xlink:href="#DejaVuSans-111"/>
      <use x="88.964844" xlink:href="#DejaVuSans-110"/>
      <use x="152.34375" xlink:href="#DejaVuSans-103"/>
      <use x="215.820312" xlink:href="#DejaVuSans-95"/>
      <use x="265.820312" xlink:href="#DejaVuSans-101"/>
      <use x="325.59375" xlink:href="#DejaVuSans-120"/>
      <use x="383.023438" xlink:href="#DejaVuSans-99"/>
      <use x="438.003906" xlink:href="#DejaVuSans-101"/>
      <use x="499.527344" xlink:href="#DejaVuSans-115"/>
      <use x="551.626953" xlink:href="#DejaVuSans-115"/>
     </g>
    </g>
    <g id="line2d_32">
     <path d="M 46.76 143.434063 
L 66.76 143.434063 
" style="fill:none;stroke:#7f7f7f;stroke-linecap:square;stroke-width:1.5;"/>
    </g>
    <g id="line2d_33"/>
    <g id="text_14">
     <!-- short_excess -->
     <g transform="translate(74.76 146.934063)scale(0.1 -0.1)">
      <use xlink:href="#DejaVuSans-115"/>
      <use x="52.099609" xlink:href="#DejaVuSans-104"/>
      <use x="115.478516" xlink:href="#DejaVuSans-111"/>
      <use x="176.660156" xlink:href="#DejaVuSans-114"/>
      <use x="217.773438" xlink:href="#DejaVuSans-116"/>
      <use x="256.982422" xlink:href="#DejaVuSans-95"/>
      <use x="306.982422" xlink:href="#DejaVuSans-101"/>
      <use x="366.755859" xlink:href="#DejaVuSans-120"/>
      <use x="424.185547" xlink:href="#DejaVuSans-99"/>
      <use x="479.166016" xlink:href="#DejaVuSans-101"/>
      <use x="540.689453" xlink:href="#DejaVuSans-115"/>
      <use x="592.789062" xlink:href="#DejaVuSans-115"/>
     </g>
    </g>
    <g id="line2d_34">
     <path d="M 46.76 158.390313 
L 66.76 158.390313 
" style="fill:none;stroke:#bcbd22;stroke-linecap:square;stroke-width:1.5;"/>
    </g>
    <g id="line2d_35"/>
    <g id="text_15">
     <!-- long_short -->
     <g transform="translate(74.76 161.890313)scale(0.1 -0.1)">
      <use xlink:href="#DejaVuSans-108"/>
      <use x="27.783203" xlink:href="#DejaVuSans-111"/>
      <use x="88.964844" xlink:href="#DejaVuSans-110"/>
      <use x="152.34375" xlink:href="#DejaVuSans-103"/>
      <use x="215.820312" xlink:href="#DejaVuSans-95"/>
      <use x="265.820312" xlink:href="#DejaVuSans-115"/>
      <use x="317.919922" xlink:href="#DejaVuSans-104"/>
      <use x="381.298828" xlink:href="#DejaVuSans-111"/>
      <use x="442.480469" xlink:href="#DejaVuSans-114"/>
      <use x="483.59375" xlink:href="#DejaVuSans-116"/>
     </g>
    </g>
   </g>
  </g>
 </g>
 <defs>
  <clipPath id="p2da69c8eec">
   <rect height="334.18" width="1103.44" x="37.76" y="25.92"/>
  </clipPath>
 </defs>
</svg>
