<?xml version="1.0" encoding="utf-8" standalone="no"?>
<!DOCTYPE svg PUBLIC "-//W3C//DTD SVG 1.1//EN"
  "http://www.w3.org/Graphics/SVG/1.1/DTD/svg11.dtd">
<!-- Created with matplotlib (https://matplotlib.org/) -->
<svg height="360pt" version="1.1" viewBox="0 0 1152 360" width="1152pt" xmlns="http://www.w3.org/2000/svg" xmlns:xlink="http://www.w3.org/1999/xlink">
 <metadata>
  <rdf:RDF xmlns:cc="http://creativecommons.org/ns#" xmlns:dc="http://purl.org/dc/elements/1.1/" xmlns:rdf="http://www.w3.org/1999/02/22-rdf-syntax-ns#">
   <cc:Work>
    <dc:type rdf:resource="http://purl.org/dc/dcmitype/StillImage"/>
    <dc:date>2023-10-11T16:58:31.122743</dc:date>
    <dc:format>image/svg+xml</dc:format>
    <dc:creator>
     <cc:Agent>
      <dc:title>Matplotlib v3.3.4, https://matplotlib.org/</dc:title>
     </cc:Agent>
    </dc:creator>
   </cc:Work>
  </rdf:RDF>
 </metadata>
 <defs>
  <style type="text/css">*{stroke-linecap:butt;stroke-linejoin:round;}</style>
 </defs>
 <g id="figure_1">
  <g id="patch_1">
   <path d="M 0 360 
L 1152 360 
L 1152 0 
L 0 0 
z
" style="fill:#ffffff;"/>
  </g>
  <g id="axes_1">
   <g id="patch_2">
    <path d="M 41.36 316.76 
L 1141.2 316.76 
L 1141.2 25.92 
L 41.36 25.92 
z
" style="fill:#ffffff;"/>
   </g>
   <g id="matplotlib.axis_1">
    <g id="xtick_1">
     <g id="line2d_1">
      <path clip-path="url(#p1ae5186eb8)" d="M 73.173554 316.76 
L 73.173554 25.92 
" style="fill:none;stroke:#b0b0b0;stroke-linecap:square;stroke-width:0.8;"/>
     </g>
     <g id="line2d_2">
      <defs>
       <path d="M 0 0 
L 0 3.5 
" id="m6d2b8f3e92" style="stroke:#000000;stroke-width:0.8;"/>
      </defs>
      <g>
       <use style="stroke:#000000;stroke-width:0.8;" x="73.173554" xlink:href="#m6d2b8f3e92" y="316.76"/>
      </g>
     </g>
     <g id="text_1">
      <!-- 2010 -->
      <g transform="translate(75.932929 349.21)rotate(-90)scale(0.1 -0.1)">
       <defs>
        <path d="M 19.1875 8.296875 
L 53.609375 8.296875 
L 53.609375 0 
L 7.328125 0 
L 7.328125 8.296875 
Q 12.9375 14.109375 22.625 23.890625 
Q 32.328125 33.6875 34.8125 36.53125 
Q 39.546875 41.84375 41.421875 45.53125 
Q 43.3125 49.21875 43.3125 52.78125 
Q 43.3125 58.59375 39.234375 62.25 
Q 35.15625 65.921875 28.609375 65.921875 
Q 23.96875 65.921875 18.8125 64.3125 
Q 13.671875 62.703125 7.8125 59.421875 
L 7.8125 69.390625 
Q 13.765625 71.78125 18.9375 73 
Q 24.125 74.21875 28.421875 74.21875 
Q 39.75 74.21875 46.484375 68.546875 
Q 53.21875 62.890625 53.21875 53.421875 
Q 53.21875 48.921875 51.53125 44.890625 
Q 49.859375 40.875 45.40625 35.40625 
Q 44.1875 33.984375 37.640625 27.21875 
Q 31.109375 20.453125 19.1875 8.296875 
z
" id="DejaVuSans-50"/>
        <path d="M 31.78125 66.40625 
Q 24.171875 66.40625 20.328125 58.90625 
Q 16.5 51.421875 16.5 36.375 
Q 16.5 21.390625 20.328125 13.890625 
Q 24.171875 6.390625 31.78125 6.390625 
Q 39.453125 6.390625 43.28125 13.890625 
Q 47.125 21.390625 47.125 36.375 
Q 47.125 51.421875 43.28125 58.90625 
Q 39.453125 66.40625 31.78125 66.40625 
z
M 31.78125 74.21875 
Q 44.046875 74.21875 50.515625 64.515625 
Q 56.984375 54.828125 56.984375 36.375 
Q 56.984375 17.96875 50.515625 8.265625 
Q 44.046875 -1.421875 31.78125 -1.421875 
Q 19.53125 -1.421875 13.0625 8.265625 
Q 6.59375 17.96875 6.59375 36.375 
Q 6.59375 54.828125 13.0625 64.515625 
Q 19.53125 74.21875 31.78125 74.21875 
z
" id="DejaVuSans-48"/>
        <path d="M 12.40625 8.296875 
L 28.515625 8.296875 
L 28.515625 63.921875 
L 10.984375 60.40625 
L 10.984375 69.390625 
L 28.421875 72.90625 
L 38.28125 72.90625 
L 38.28125 8.296875 
L 54.390625 8.296875 
L 54.390625 0 
L 12.40625 0 
z
" id="DejaVuSans-49"/>
       </defs>
       <use xlink:href="#DejaVuSans-50"/>
       <use x="63.623047" xlink:href="#DejaVuSans-48"/>
       <use x="127.246094" xlink:href="#DejaVuSans-49"/>
       <use x="190.869141" xlink:href="#DejaVuSans-48"/>
      </g>
     </g>
    </g>
   </g>
   <g id="matplotlib.axis_2">
    <g id="ytick_1">
     <g id="line2d_3">
      <path clip-path="url(#p1ae5186eb8)" d="M 41.36 310.481294 
L 1141.2 310.481294 
" style="fill:none;stroke:#b0b0b0;stroke-linecap:square;stroke-width:0.8;"/>
     </g>
     <g id="line2d_4">
      <defs>
       <path d="M 0 0 
L -3.5 0 
" id="m0aec2b1f8d" style="stroke:#000000;stroke-width:0.8;"/>
      </defs>
      <g>
       <use style="stroke:#000000;stroke-width:0.8;" x="41.36" xlink:href="#m0aec2b1f8d" y="310.481294"/>
      </g>
     </g>
     <g id="text_2">
      <!-- -2 -->
      <g transform="translate(24.389687 314.280513)scale(0.1 -0.1)">
       <defs>
        <path d="M 4.890625 31.390625 
L 31.203125 31.390625 
L 31.203125 23.390625 
L 4.890625 23.390625 
z
" id="DejaVuSans-45"/>
       </defs>
       <use xlink:href="#DejaVuSans-45"/>
       <use x="36.083984" xlink:href="#DejaVuSans-50"/>
      </g>
     </g>
    </g>
    <g id="ytick_2">
     <g id="line2d_5">
      <path clip-path="url(#p1ae5186eb8)" d="M 41.36 247.897331 
L 1141.2 247.897331 
" style="fill:none;stroke:#b0b0b0;stroke-linecap:square;stroke-width:0.8;"/>
     </g>
     <g id="line2d_6">
      <g>
       <use style="stroke:#000000;stroke-width:0.8;" x="41.36" xlink:href="#m0aec2b1f8d" y="247.897331"/>
      </g>
     </g>
     <g id="text_3">
      <!-- -1 -->
      <g transform="translate(24.389687 251.69655)scale(0.1 -0.1)">
       <use xlink:href="#DejaVuSans-45"/>
       <use x="36.083984" xlink:href="#DejaVuSans-49"/>
      </g>
     </g>
    </g>
    <g id="ytick_3">
     <g id="line2d_7">
      <path clip-path="url(#p1ae5186eb8)" d="M 41.36 185.313368 
L 1141.2 185.313368 
" style="fill:none;stroke:#b0b0b0;stroke-linecap:square;stroke-width:0.8;"/>
     </g>
     <g id="line2d_8">
      <g>
       <use style="stroke:#000000;stroke-width:0.8;" x="41.36" xlink:href="#m0aec2b1f8d" y="185.313368"/>
      </g>
     </g>
     <g id="text_4">
      <!-- 0 -->
      <g transform="translate(27.9975 189.112587)scale(0.1 -0.1)">
       <use xlink:href="#DejaVuSans-48"/>
      </g>
     </g>
    </g>
    <g id="ytick_4">
     <g id="line2d_9">
      <path clip-path="url(#p1ae5186eb8)" d="M 41.36 122.729405 
L 1141.2 122.729405 
" style="fill:none;stroke:#b0b0b0;stroke-linecap:square;stroke-width:0.8;"/>
     </g>
     <g id="line2d_10">
      <g>
       <use style="stroke:#000000;stroke-width:0.8;" x="41.36" xlink:href="#m0aec2b1f8d" y="122.729405"/>
      </g>
     </g>
     <g id="text_5">
      <!-- 1 -->
      <g transform="translate(27.9975 126.528624)scale(0.1 -0.1)">
       <use xlink:href="#DejaVuSans-49"/>
      </g>
     </g>
    </g>
    <g id="ytick_5">
     <g id="line2d_11">
      <path clip-path="url(#p1ae5186eb8)" d="M 41.36 60.145442 
L 1141.2 60.145442 
" style="fill:none;stroke:#b0b0b0;stroke-linecap:square;stroke-width:0.8;"/>
     </g>
     <g id="line2d_12">
      <g>
       <use style="stroke:#000000;stroke-width:0.8;" x="41.36" xlink:href="#m0aec2b1f8d" y="60.145442"/>
      </g>
     </g>
     <g id="text_6">
      <!-- 2 -->
      <g transform="translate(27.9975 63.944661)scale(0.1 -0.1)">
       <use xlink:href="#DejaVuSans-50"/>
      </g>
     </g>
    </g>
    <g id="text_7">
     <!-- log return cumsum -->
     <g transform="translate(18.31 218.857969)rotate(-90)scale(0.1 -0.1)">
      <defs>
       <path d="M 9.421875 75.984375 
L 18.40625 75.984375 
L 18.40625 0 
L 9.421875 0 
z
" id="DejaVuSans-108"/>
       <path d="M 30.609375 48.390625 
Q 23.390625 48.390625 19.1875 42.75 
Q 14.984375 37.109375 14.984375 27.296875 
Q 14.984375 17.484375 19.15625 11.84375 
Q 23.34375 6.203125 30.609375 6.203125 
Q 37.796875 6.203125 41.984375 11.859375 
Q 46.1875 17.53125 46.1875 27.296875 
Q 46.1875 37.015625 41.984375 42.703125 
Q 37.796875 48.390625 30.609375 48.390625 
z
M 30.609375 56 
Q 42.328125 56 49.015625 48.375 
Q 55.71875 40.765625 55.71875 27.296875 
Q 55.71875 13.875 49.015625 6.21875 
Q 42.328125 -1.421875 30.609375 -1.421875 
Q 18.84375 -1.421875 12.171875 6.21875 
Q 5.515625 13.875 5.515625 27.296875 
Q 5.515625 40.765625 12.171875 48.375 
Q 18.84375 56 30.609375 56 
z
" id="DejaVuSans-111"/>
       <path d="M 45.40625 27.984375 
Q 45.40625 37.75 41.375 43.109375 
Q 37.359375 48.484375 30.078125 48.484375 
Q 22.859375 48.484375 18.828125 43.109375 
Q 14.796875 37.75 14.796875 27.984375 
Q 14.796875 18.265625 18.828125 12.890625 
Q 22.859375 7.515625 30.078125 7.515625 
Q 37.359375 7.515625 41.375 12.890625 
Q 45.40625 18.265625 45.40625 27.984375 
z
M 54.390625 6.78125 
Q 54.390625 -7.171875 48.1875 -13.984375 
Q 42 -20.796875 29.203125 -20.796875 
Q 24.46875 -20.796875 20.265625 -20.09375 
Q 16.0625 -19.390625 12.109375 -17.921875 
L 12.109375 -9.1875 
Q 16.0625 -11.328125 19.921875 -12.34375 
Q 23.78125 -13.375 27.78125 -13.375 
Q 36.625 -13.375 41.015625 -8.765625 
Q 45.40625 -4.15625 45.40625 5.171875 
L 45.40625 9.625 
Q 42.625 4.78125 38.28125 2.390625 
Q 33.9375 0 27.875 0 
Q 17.828125 0 11.671875 7.65625 
Q 5.515625 15.328125 5.515625 27.984375 
Q 5.515625 40.671875 11.671875 48.328125 
Q 17.828125 56 27.875 56 
Q 33.9375 56 38.28125 53.609375 
Q 42.625 51.21875 45.40625 46.390625 
L 45.40625 54.6875 
L 54.390625 54.6875 
z
" id="DejaVuSans-103"/>
       <path id="DejaVuSans-32"/>
       <path d="M 41.109375 46.296875 
Q 39.59375 47.171875 37.8125 47.578125 
Q 36.03125 48 33.890625 48 
Q 26.265625 48 22.1875 43.046875 
Q 18.109375 38.09375 18.109375 28.8125 
L 18.109375 0 
L 9.078125 0 
L 9.078125 54.6875 
L 18.109375 54.6875 
L 18.109375 46.1875 
Q 20.953125 51.171875 25.484375 53.578125 
Q 30.03125 56 36.53125 56 
Q 37.453125 56 38.578125 55.875 
Q 39.703125 55.765625 41.0625 55.515625 
z
" id="DejaVuSans-114"/>
       <path d="M 56.203125 29.59375 
L 56.203125 25.203125 
L 14.890625 25.203125 
Q 15.484375 15.921875 20.484375 11.0625 
Q 25.484375 6.203125 34.421875 6.203125 
Q 39.59375 6.203125 44.453125 7.46875 
Q 49.3125 8.734375 54.109375 11.28125 
L 54.109375 2.78125 
Q 49.265625 0.734375 44.1875 -0.34375 
Q 39.109375 -1.421875 33.890625 -1.421875 
Q 20.796875 -1.421875 13.15625 6.1875 
Q 5.515625 13.8125 5.515625 26.8125 
Q 5.515625 40.234375 12.765625 48.109375 
Q 20.015625 56 32.328125 56 
Q 43.359375 56 49.78125 48.890625 
Q 56.203125 41.796875 56.203125 29.59375 
z
M 47.21875 32.234375 
Q 47.125 39.59375 43.09375 43.984375 
Q 39.0625 48.390625 32.421875 48.390625 
Q 24.90625 48.390625 20.390625 44.140625 
Q 15.875 39.890625 15.1875 32.171875 
z
" id="DejaVuSans-101"/>
       <path d="M 18.3125 70.21875 
L 18.3125 54.6875 
L 36.8125 54.6875 
L 36.8125 47.703125 
L 18.3125 47.703125 
L 18.3125 18.015625 
Q 18.3125 11.328125 20.140625 9.421875 
Q 21.96875 7.515625 27.59375 7.515625 
L 36.8125 7.515625 
L 36.8125 0 
L 27.59375 0 
Q 17.1875 0 13.234375 3.875 
Q 9.28125 7.765625 9.28125 18.015625 
L 9.28125 47.703125 
L 2.6875 47.703125 
L 2.6875 54.6875 
L 9.28125 54.6875 
L 9.28125 70.21875 
z
" id="DejaVuSans-116"/>
       <path d="M 8.5 21.578125 
L 8.5 54.6875 
L 17.484375 54.6875 
L 17.484375 21.921875 
Q 17.484375 14.15625 20.5 10.265625 
Q 23.53125 6.390625 29.59375 6.390625 
Q 36.859375 6.390625 41.078125 11.03125 
Q 45.3125 15.671875 45.3125 23.6875 
L 45.3125 54.6875 
L 54.296875 54.6875 
L 54.296875 0 
L 45.3125 0 
L 45.3125 8.40625 
Q 42.046875 3.421875 37.71875 1 
Q 33.40625 -1.421875 27.6875 -1.421875 
Q 18.265625 -1.421875 13.375 4.4375 
Q 8.5 10.296875 8.5 21.578125 
z
M 31.109375 56 
z
" id="DejaVuSans-117"/>
       <path d="M 54.890625 33.015625 
L 54.890625 0 
L 45.90625 0 
L 45.90625 32.71875 
Q 45.90625 40.484375 42.875 44.328125 
Q 39.84375 48.1875 33.796875 48.1875 
Q 26.515625 48.1875 22.3125 43.546875 
Q 18.109375 38.921875 18.109375 30.90625 
L 18.109375 0 
L 9.078125 0 
L 9.078125 54.6875 
L 18.109375 54.6875 
L 18.109375 46.1875 
Q 21.34375 51.125 25.703125 53.5625 
Q 30.078125 56 35.796875 56 
Q 45.21875 56 50.046875 50.171875 
Q 54.890625 44.34375 54.890625 33.015625 
z
" id="DejaVuSans-110"/>
       <path d="M 48.78125 52.59375 
L 48.78125 44.1875 
Q 44.96875 46.296875 41.140625 47.34375 
Q 37.3125 48.390625 33.40625 48.390625 
Q 24.65625 48.390625 19.8125 42.84375 
Q 14.984375 37.3125 14.984375 27.296875 
Q 14.984375 17.28125 19.8125 11.734375 
Q 24.65625 6.203125 33.40625 6.203125 
Q 37.3125 6.203125 41.140625 7.25 
Q 44.96875 8.296875 48.78125 10.40625 
L 48.78125 2.09375 
Q 45.015625 0.34375 40.984375 -0.53125 
Q 36.96875 -1.421875 32.421875 -1.421875 
Q 20.0625 -1.421875 12.78125 6.34375 
Q 5.515625 14.109375 5.515625 27.296875 
Q 5.515625 40.671875 12.859375 48.328125 
Q 20.21875 56 33.015625 56 
Q 37.15625 56 41.109375 55.140625 
Q 45.0625 54.296875 48.78125 52.59375 
z
" id="DejaVuSans-99"/>
       <path d="M 52 44.1875 
Q 55.375 50.25 60.0625 53.125 
Q 64.75 56 71.09375 56 
Q 79.640625 56 84.28125 50.015625 
Q 88.921875 44.046875 88.921875 33.015625 
L 88.921875 0 
L 79.890625 0 
L 79.890625 32.71875 
Q 79.890625 40.578125 77.09375 44.375 
Q 74.3125 48.1875 68.609375 48.1875 
Q 61.625 48.1875 57.5625 43.546875 
Q 53.515625 38.921875 53.515625 30.90625 
L 53.515625 0 
L 44.484375 0 
L 44.484375 32.71875 
Q 44.484375 40.625 41.703125 44.40625 
Q 38.921875 48.1875 33.109375 48.1875 
Q 26.21875 48.1875 22.15625 43.53125 
Q 18.109375 38.875 18.109375 30.90625 
L 18.109375 0 
L 9.078125 0 
L 9.078125 54.6875 
L 18.109375 54.6875 
L 18.109375 46.1875 
Q 21.1875 51.21875 25.484375 53.609375 
Q 29.78125 56 35.6875 56 
Q 41.65625 56 45.828125 52.96875 
Q 50 49.953125 52 44.1875 
z
" id="DejaVuSans-109"/>
       <path d="M 44.28125 53.078125 
L 44.28125 44.578125 
Q 40.484375 46.53125 36.375 47.5 
Q 32.28125 48.484375 27.875 48.484375 
Q 21.1875 48.484375 17.84375 46.4375 
Q 14.5 44.390625 14.5 40.28125 
Q 14.5 37.15625 16.890625 35.375 
Q 19.28125 33.59375 26.515625 31.984375 
L 29.59375 31.296875 
Q 39.15625 29.25 43.1875 25.515625 
Q 47.21875 21.78125 47.21875 15.09375 
Q 47.21875 7.46875 41.1875 3.015625 
Q 35.15625 -1.421875 24.609375 -1.421875 
Q 20.21875 -1.421875 15.453125 -0.5625 
Q 10.6875 0.296875 5.421875 2 
L 5.421875 11.28125 
Q 10.40625 8.6875 15.234375 7.390625 
Q 20.0625 6.109375 24.8125 6.109375 
Q 31.15625 6.109375 34.5625 8.28125 
Q 37.984375 10.453125 37.984375 14.40625 
Q 37.984375 18.0625 35.515625 20.015625 
Q 33.0625 21.96875 24.703125 23.78125 
L 21.578125 24.515625 
Q 13.234375 26.265625 9.515625 29.90625 
Q 5.8125 33.546875 5.8125 39.890625 
Q 5.8125 47.609375 11.28125 51.796875 
Q 16.75 56 26.8125 56 
Q 31.78125 56 36.171875 55.265625 
Q 40.578125 54.546875 44.28125 53.078125 
z
" id="DejaVuSans-115"/>
      </defs>
      <use xlink:href="#DejaVuSans-108"/>
      <use x="27.783203" xlink:href="#DejaVuSans-111"/>
      <use x="88.964844" xlink:href="#DejaVuSans-103"/>
      <use x="152.441406" xlink:href="#DejaVuSans-32"/>
      <use x="184.228516" xlink:href="#DejaVuSans-114"/>
      <use x="223.091797" xlink:href="#DejaVuSans-101"/>
      <use x="284.615234" xlink:href="#DejaVuSans-116"/>
      <use x="323.824219" xlink:href="#DejaVuSans-117"/>
      <use x="387.203125" xlink:href="#DejaVuSans-114"/>
      <use x="426.566406" xlink:href="#DejaVuSans-110"/>
      <use x="489.945312" xlink:href="#DejaVuSans-32"/>
      <use x="521.732422" xlink:href="#DejaVuSans-99"/>
      <use x="576.712891" xlink:href="#DejaVuSans-117"/>
      <use x="640.091797" xlink:href="#DejaVuSans-109"/>
      <use x="737.503906" xlink:href="#DejaVuSans-115"/>
      <use x="789.603516" xlink:href="#DejaVuSans-117"/>
      <use x="852.982422" xlink:href="#DejaVuSans-109"/>
     </g>
    </g>
   </g>
   <g id="line2d_13">
    <path clip-path="url(#p1ae5186eb8)" d="M 91.352727 180.973935 
L 94.988562 182.542634 
L 98.624397 179.925927 
L 109.531901 176.906581 
L 113.167736 176.806846 
L 116.80357 179.100813 
L 120.439405 179.347015 
L 124.07524 182.602693 
L 134.982744 178.203949 
L 138.618579 177.201306 
L 145.890248 176.187338 
L 149.526083 178.940139 
L 160.433587 177.801929 
L 164.069421 179.560378 
L 167.705256 177.397724 
L 171.341091 182.156057 
L 174.976926 184.685904 
L 185.88443 185.91698 
L 189.520264 180.984541 
L 193.156099 184.254388 
L 196.791934 189.049828 
L 200.427769 188.766597 
L 211.335273 193.276172 
L 214.971107 189.582594 
L 218.606942 187.451782 
L 222.242777 186.768233 
L 225.878612 182.932003 
L 236.786116 182.885097 
L 240.42195 186.657705 
L 244.057785 188.121952 
L 247.69362 190.322468 
L 251.329455 189.860629 
L 262.236959 189.292603 
L 265.872793 190.647338 
L 269.508628 187.369302 
L 273.144463 187.524006 
L 276.780298 184.210263 
L 287.687802 188.505906 
L 291.323636 188.059197 
L 294.959471 188.385525 
L 298.595306 183.582741 
L 302.23114 183.807637 
L 313.138645 182.456459 
L 316.774479 176.851125 
L 320.410314 175.241145 
L 324.046149 176.24649 
L 327.681983 175.143516 
L 338.589488 174.989009 
L 342.225322 178.229215 
L 345.861157 178.138108 
L 349.496992 179.123562 
L 353.132826 176.008984 
L 364.040331 171.202983 
L 367.676165 168.757199 
L 371.312 168.952694 
L 374.947835 167.246911 
L 378.583669 167.987005 
L 389.491174 165.726786 
L 393.127008 169.047804 
L 396.762843 166.985032 
L 400.398678 167.240139 
L 404.034512 165.289209 
L 414.942017 164.557766 
L 418.577851 167.49027 
L 422.213686 167.100708 
L 425.849521 164.881695 
L 429.485355 165.372514 
L 440.39286 164.558482 
L 444.028694 163.788282 
L 447.664529 168.483491 
L 451.300364 165.585019 
L 454.936198 168.362399 
L 465.843702 163.789571 
L 469.479537 160.01072 
L 473.115372 163.00856 
L 476.751207 164.697174 
L 480.387041 160.65315 
L 491.294545 158.97275 
L 494.93038 159.210773 
L 498.566215 159.161094 
L 502.20205 159.858715 
L 505.837884 160.903313 
L 516.745388 158.656988 
L 520.381223 154.735083 
L 524.017058 154.688463 
L 527.652893 155.837221 
L 531.288727 160.437754 
L 542.196231 159.989153 
L 545.832066 160.051892 
L 549.467901 159.156202 
L 553.103736 155.847121 
L 556.73957 151.361459 
L 567.647074 151.685505 
L 571.282909 152.3446 
L 574.918744 152.438165 
L 578.554579 153.030578 
L 582.190413 151.925833 
L 596.733752 149.043471 
L 600.369587 151.253041 
L 604.005421 148.531053 
L 607.641256 146.844232 
L 618.54876 146.775241 
L 629.456264 143.857491 
L 633.092099 144.419067 
L 643.999603 140.052699 
L 647.635438 141.886648 
L 651.271273 141.131376 
L 654.907107 140.779965 
L 658.542942 142.441704 
L 669.450446 138.077968 
L 673.086281 137.578207 
L 676.722116 132.791605 
L 680.35795 136.539735 
L 683.993785 137.170715 
L 694.901289 135.072473 
L 698.537124 133.915295 
L 702.172959 139.485078 
L 705.808793 137.419187 
L 709.444628 133.712959 
L 720.352132 130.502855 
L 723.987967 128.352025 
L 727.623802 132.342242 
L 731.259636 131.742413 
L 734.895471 127.780543 
L 745.802975 123.144025 
L 749.43881 123.408345 
L 753.074645 126.560344 
L 756.710479 125.936619 
L 760.346314 123.150287 
L 771.253818 120.376062 
L 774.889653 123.624707 
L 778.525488 127.367512 
L 782.161322 123.412473 
L 785.797157 120.742775 
L 796.704661 124.264389 
L 800.340496 121.341094 
L 803.976331 117.772719 
L 807.612165 117.290281 
L 811.248 115.78858 
L 822.155504 112.648726 
L 825.791339 109.337283 
L 829.427174 111.061647 
L 833.063008 115.80491 
L 836.698843 112.340746 
L 847.606347 111.785027 
L 851.242182 107.587522 
L 854.878017 108.839776 
L 858.513851 107.615801 
L 862.149686 102.334496 
L 873.05719 102.93282 
L 876.693025 100.48965 
L 880.32886 99.680668 
L 883.964694 99.293899 
L 887.600529 96.370326 
L 898.508033 100.953509 
L 902.143868 97.168785 
L 905.779702 94.26553 
L 909.415537 95.074744 
L 913.051372 91.231613 
L 923.958876 96.047234 
L 927.594711 99.418916 
L 931.230545 97.664484 
L 934.86638 96.740665 
L 938.502215 99.17778 
L 949.409719 99.15289 
L 953.045554 101.355023 
L 956.681388 101.991152 
L 960.317223 105.450795 
L 963.953058 105.475952 
L 974.860562 105.204485 
L 982.132231 106.135007 
L 985.768066 105.421889 
L 989.403901 102.765846 
L 1000.311405 99.146607 
L 1003.94724 101.800678 
L 1007.583074 101.199925 
L 1011.218909 103.175279 
L 1014.854744 102.678429 
L 1025.762248 99.78017 
L 1029.398083 100.883901 
L 1033.033917 101.385075 
L 1036.669752 102.44777 
L 1040.305587 98.865512 
L 1051.213091 102.747827 
L 1054.848926 100.102149 
L 1058.48476 101.977596 
L 1062.120595 101.100175 
L 1065.75643 104.147538 
L 1076.663934 102.489723 
L 1080.299769 103.280444 
L 1083.935603 100.125547 
L 1087.571438 99.761724 
L 1091.207273 99.761724 
L 1091.207273 99.761724 
" style="fill:none;stroke:#9467bd;stroke-linecap:square;stroke-width:1.5;"/>
   </g>
   <g id="line2d_14">
    <path clip-path="url(#p1ae5186eb8)" d="M 91.352727 187.667146 
L 98.624397 189.310524 
L 109.531901 189.200626 
L 113.167736 187.083279 
L 116.80357 184.054254 
L 120.439405 186.666396 
L 124.07524 185.417853 
L 134.982744 181.927012 
L 138.618579 186.406417 
L 142.254413 185.112579 
L 145.890248 184.495586 
L 149.526083 185.2734 
L 160.433587 190.60516 
L 164.069421 191.706657 
L 167.705256 192.66792 
L 171.341091 194.820927 
L 174.976926 191.315709 
L 185.88443 190.377351 
L 189.520264 187.812471 
L 193.156099 188.057313 
L 196.791934 187.723521 
L 200.427769 185.767264 
L 211.335273 187.240435 
L 214.971107 182.333195 
L 218.606942 178.560852 
L 222.242777 180.459582 
L 225.878612 185.585561 
L 236.786116 188.728917 
L 240.42195 188.823616 
L 244.057785 193.255981 
L 247.69362 193.230667 
L 251.329455 194.407134 
L 262.236959 193.284008 
L 265.872793 189.914412 
L 269.508628 187.512351 
L 273.144463 189.975606 
L 276.780298 185.073432 
L 287.687802 190.297707 
L 291.323636 187.852364 
L 294.959471 189.111934 
L 298.595306 184.644453 
L 302.23114 184.289616 
L 313.138645 183.524007 
L 316.774479 179.642853 
L 320.410314 182.394575 
L 324.046149 183.263122 
L 327.681983 179.540226 
L 338.589488 177.672707 
L 342.225322 180.483764 
L 345.861157 179.248295 
L 349.496992 177.417381 
L 353.132826 175.976663 
L 364.040331 172.333469 
L 367.676165 175.804389 
L 371.312 178.35597 
L 374.947835 175.142346 
L 378.583669 178.625427 
L 389.491174 181.245721 
L 393.127008 180.221839 
L 396.762843 185.576688 
L 400.398678 181.527673 
L 404.034512 183.180663 
L 414.942017 186.121139 
L 418.577851 189.534488 
L 422.213686 188.648172 
L 425.849521 186.972218 
L 429.485355 190.487798 
L 440.39286 193.074523 
L 444.028694 189.15263 
L 447.664529 192.111325 
L 451.300364 198.353867 
L 454.936198 196.923262 
L 465.843702 191.813811 
L 469.479537 192.812205 
L 473.115372 188.807042 
L 476.751207 189.057788 
L 480.387041 190.413481 
L 491.294545 194.27925 
L 494.93038 194.82562 
L 498.566215 190.927019 
L 502.20205 191.401006 
L 505.837884 187.598993 
L 516.745388 190.007495 
L 520.381223 188.613551 
L 524.017058 186.418932 
L 531.288727 186.178168 
L 542.196231 186.201218 
L 545.832066 183.830164 
L 549.467901 187.484541 
L 553.103736 188.911568 
L 556.73957 192.917137 
L 567.647074 195.510542 
L 571.282909 195.253099 
L 574.918744 193.50587 
L 578.554579 195.177521 
L 582.190413 194.032776 
L 593.097917 195.654196 
L 596.733752 192.077426 
L 600.369587 186.633717 
L 604.005421 186.357242 
L 607.641256 187.945676 
L 618.54876 189.785784 
L 622.184595 192.713451 
L 625.82043 191.643578 
L 629.456264 187.761611 
L 633.092099 190.565579 
L 643.999603 192.311656 
L 647.635438 189.168973 
L 651.271273 189.431199 
L 654.907107 188.927849 
L 658.542942 192.142728 
L 669.450446 188.238315 
L 673.086281 189.020345 
L 680.35795 187.897587 
L 683.993785 186.67794 
L 694.901289 186.819644 
L 698.537124 189.525693 
L 702.172959 194.051471 
L 705.808793 195.013843 
L 709.444628 192.854217 
L 720.352132 191.526451 
L 723.987967 190.286357 
L 727.623802 193.000149 
L 731.259636 192.729742 
L 734.895471 188.714701 
L 745.802975 189.474645 
L 749.43881 191.840537 
L 753.074645 189.488977 
L 756.710479 185.533257 
L 760.346314 184.826349 
L 771.253818 185.864996 
L 774.889653 188.30953 
L 778.525488 184.809663 
L 782.161322 184.024738 
L 785.797157 186.065795 
L 796.704661 187.357379 
L 800.340496 192.331123 
L 803.976331 193.869554 
L 807.612165 196.285182 
L 811.248 194.043699 
L 822.155504 188.733292 
L 825.791339 186.634996 
L 829.427174 190.845884 
L 833.063008 189.240589 
L 836.698843 187.489292 
L 847.606347 188.758384 
L 851.242182 185.522455 
L 854.878017 184.976182 
L 858.513851 187.291072 
L 862.149686 183.337014 
L 873.05719 182.078494 
L 876.693025 183.032318 
L 880.32886 180.04301 
L 883.964694 178.846643 
L 887.600529 177.457552 
L 898.508033 176.973645 
L 902.143868 179.921202 
L 905.779702 184.125416 
L 909.415537 186.677362 
L 913.051372 190.879429 
L 923.958876 190.552302 
L 927.594711 189.72757 
L 931.230545 186.523376 
L 934.86638 186.250416 
L 938.502215 182.48833 
L 949.409719 181.255251 
L 953.045554 185.576404 
L 956.681388 188.548012 
L 960.317223 188.095549 
L 963.953058 188.092694 
L 974.860562 187.763885 
L 978.496397 185.421733 
L 982.132231 183.477569 
L 985.768066 184.69249 
L 989.403901 186.413814 
L 1000.311405 184.395821 
L 1003.94724 184.796981 
L 1007.583074 183.781856 
L 1011.218909 187.805968 
L 1014.854744 189.522793 
L 1025.762248 192.327156 
L 1029.398083 191.926066 
L 1033.033917 192.423345 
L 1036.669752 188.386001 
L 1040.305587 187.116894 
L 1051.213091 188.462323 
L 1054.848926 189.970582 
L 1058.48476 190.42274 
L 1062.120595 189.771115 
L 1065.75643 188.912348 
L 1076.663934 189.503124 
L 1080.299769 192.120397 
L 1083.935603 194.197485 
L 1087.571438 194.808443 
L 1091.207273 194.808443 
L 1091.207273 194.808443 
" style="fill:none;stroke:#1f77b4;stroke-linecap:square;stroke-width:1.5;"/>
   </g>
   <g id="line2d_15">
    <path clip-path="url(#p1ae5186eb8)" d="M 91.352727 184.090506 
L 98.624397 193.012449 
L 109.531901 198.803696 
L 113.167736 194.380408 
L 116.80357 193.1274 
L 120.439405 190.575731 
L 124.07524 196.883982 
L 134.982744 191.262426 
L 138.618579 187.233803 
L 142.254413 190.942122 
L 149.526083 199.150793 
L 160.433587 201.650308 
L 164.069421 201.341201 
L 167.705256 202.198882 
L 171.341091 204.868146 
L 174.976926 203.483536 
L 185.88443 208.166859 
L 189.520264 210.824166 
L 193.156099 212.519647 
L 196.791934 213.07194 
L 200.427769 209.600533 
L 211.335273 213.477285 
L 214.971107 213.299368 
L 218.606942 212.153194 
L 222.242777 218.104373 
L 225.878612 216.772529 
L 236.786116 221.038666 
L 240.42195 226.734313 
L 247.69362 215.781178 
L 251.329455 212.035399 
L 262.236959 214.530075 
L 265.872793 219.780106 
L 269.508628 217.515568 
L 273.144463 218.269186 
L 276.780298 223.188418 
L 287.687802 223.248817 
L 291.323636 229.366254 
L 294.959471 224.4418 
L 298.595306 227.536363 
L 302.23114 225.534467 
L 313.138645 227.936763 
L 316.774479 227.686078 
L 320.410314 227.104129 
L 324.046149 231.178537 
L 327.681983 225.560702 
L 338.589488 222.208333 
L 342.225322 216.935695 
L 345.861157 212.179145 
L 349.496992 210.965594 
L 353.132826 205.896065 
L 364.040331 211.271175 
L 367.676165 215.197097 
L 371.312 221.165114 
L 374.947835 223.39052 
L 378.583669 224.799669 
L 389.491174 227.729151 
L 393.127008 223.744028 
L 396.762843 225.563202 
L 400.398678 228.367081 
L 404.034512 227.834932 
L 414.942017 232.498963 
L 418.577851 228.826327 
L 422.213686 234.391883 
L 425.849521 228.576385 
L 429.485355 225.258289 
L 440.39286 229.147801 
L 444.028694 235.664927 
L 447.664529 231.835921 
L 451.300364 229.298857 
L 454.936198 226.496127 
L 465.843702 223.189599 
L 469.479537 228.762079 
L 473.115372 230.559191 
L 476.751207 235.562012 
L 480.387041 231.17457 
L 491.294545 229.649994 
L 494.93038 231.803229 
L 498.566215 237.519351 
L 502.20205 239.931126 
L 505.837884 242.158438 
L 516.745388 239.348539 
L 520.381223 237.65002 
L 524.017058 232.981868 
L 527.652893 233.330618 
L 531.288727 238.282952 
L 542.196231 235.669161 
L 545.832066 232.487245 
L 549.467901 231.724913 
L 553.103736 228.421984 
L 556.73957 228.499692 
L 567.647074 228.215794 
L 571.282909 229.129384 
L 574.918744 235.37074 
L 578.554579 240.481819 
L 582.190413 246.640114 
L 593.097917 244.955569 
L 596.733752 247.323473 
L 600.369587 247.216287 
L 604.005421 242.312129 
L 607.641256 245.531592 
L 618.54876 246.663485 
L 622.184595 243.543864 
L 625.82043 247.033974 
L 629.456264 252.566305 
L 633.092099 255.254873 
L 643.999603 259.645791 
L 647.635438 254.486022 
L 651.271273 250.743508 
L 654.907107 249.095608 
L 658.542942 244.61072 
L 669.450446 240.920674 
L 673.086281 244.972168 
L 676.722116 240.241939 
L 680.35795 239.751427 
L 683.993785 236.016934 
L 694.901289 231.245724 
L 698.537124 233.56623 
L 702.172959 238.647972 
L 705.808793 242.149504 
L 709.444628 243.068597 
L 720.352132 239.209535 
L 723.987967 234.849788 
L 727.623802 241.347054 
L 731.259636 241.212677 
L 734.895471 242.255059 
L 745.802975 245.833776 
L 749.43881 250.782437 
L 753.074645 252.848712 
L 756.710479 247.536843 
L 760.346314 249.789846 
L 771.253818 249.555089 
L 774.889653 247.064178 
L 778.525488 248.794807 
L 785.797157 237.615719 
L 796.704661 240.802378 
L 800.340496 240.836828 
L 803.976331 243.380179 
L 807.612165 246.132949 
L 811.248 252.215911 
L 822.155504 250.859327 
L 825.791339 250.825803 
L 829.427174 256.707803 
L 833.063008 259.541641 
L 836.698843 254.629388 
L 847.606347 257.977205 
L 851.242182 262.587714 
L 854.878017 262.719871 
L 858.513851 256.918478 
L 862.149686 260.233379 
L 873.05719 258.115053 
L 876.693025 254.923209 
L 880.32886 258.296442 
L 883.964694 255.503178 
L 887.600529 257.180383 
L 898.508033 255.54587 
L 902.143868 253.896435 
L 905.779702 253.450245 
L 909.415537 258.800846 
L 913.051372 254.738666 
L 923.958876 257.023116 
L 927.594711 261.075298 
L 931.230545 267.104648 
L 934.86638 265.977177 
L 938.502215 263.793195 
L 949.409719 270.156802 
L 953.045554 270.005618 
L 956.681388 273.526206 
L 960.317223 271.734988 
L 963.953058 275.94966 
L 974.860562 273.604235 
L 978.496397 275.03825 
L 982.132231 269.797477 
L 985.768066 274.507419 
L 989.403901 276.529062 
L 1000.311405 281.564372 
L 1003.94724 276.462308 
L 1007.583074 271.908962 
L 1011.218909 275.014551 
L 1014.854744 273.043433 
L 1025.762248 269.193699 
L 1029.398083 268.506548 
L 1033.033917 268.136514 
L 1036.669752 271.454094 
L 1040.305587 276.766355 
L 1051.213091 271.982104 
L 1054.848926 267.160732 
L 1058.48476 265.516518 
L 1062.120595 267.564495 
L 1065.75643 269.480953 
L 1076.663934 266.714756 
L 1083.935603 257.265045 
L 1087.571438 253.856434 
L 1087.571438 253.856434 
" style="fill:none;stroke:#8c564b;stroke-linecap:square;stroke-width:1.5;"/>
   </g>
   <g id="line2d_16">
    <path clip-path="url(#p1ae5186eb8)" d="M 91.352727 182.136838 
L 94.988562 179.439468 
L 98.624397 172.823766 
L 109.531901 164.743801 
L 113.167736 169.396046 
L 116.80357 173.016867 
L 120.439405 175.933925 
L 124.07524 173.167672 
L 134.982744 174.506644 
L 138.618579 177.739101 
L 142.254413 173.761502 
L 145.890248 169.421068 
L 149.526083 168.164151 
L 160.433587 164.664942 
L 164.069421 166.742906 
L 167.705256 163.762718 
L 171.341091 165.763151 
L 174.976926 169.768037 
L 185.88443 166.558431 
L 189.520264 159.266526 
L 193.156099 160.798293 
L 196.791934 165.002879 
L 200.427769 168.377883 
L 211.335273 168.972515 
L 214.971107 165.44712 
L 218.606942 164.444428 
L 222.242777 158.383354 
L 225.878612 155.826188 
L 236.786116 151.788385 
L 240.42195 150.030304 
L 244.057785 157.527855 
L 247.69362 166.076505 
L 251.329455 169.568751 
L 262.236959 166.62296 
L 265.872793 163.032286 
L 269.508628 161.981756 
L 273.144463 161.389976 
L 276.780298 153.742887 
L 287.687802 157.973905 
L 291.323636 151.99277 
L 294.959471 157.693563 
L 298.595306 150.155184 
L 302.23114 152.455704 
L 313.138645 148.839573 
L 316.774479 143.464329 
L 320.410314 142.426773 
L 324.046149 139.54677 
L 327.681983 144.502873 
L 338.589488 147.881537 
L 342.225322 157.201115 
L 345.861157 162.25022 
L 353.132826 166.61579 
L 364.040331 157.212811 
L 367.676165 151.210546 
L 371.312 145.941595 
L 374.947835 142.143656 
L 378.583669 141.489419 
L 389.491174 136.527886 
L 393.127008 144.345636 
L 396.762843 140.571619 
L 400.398678 138.132369 
L 404.034512 136.701611 
L 414.942017 131.678486 
L 418.577851 138.706087 
L 422.213686 133.236204 
L 429.485355 141.217319 
L 440.39286 136.787405 
L 444.028694 130.184111 
L 447.664529 139.287155 
L 451.300364 138.910839 
L 454.936198 144.758839 
L 465.843702 143.424565 
L 469.479537 134.817633 
L 473.115372 135.984053 
L 476.751207 132.918332 
L 480.387041 133.286763 
L 491.294545 133.127101 
L 494.93038 131.275714 
L 498.566215 125.992568 
L 502.20205 124.342369 
L 505.837884 123.200631 
L 516.745388 123.790208 
L 520.381223 121.506756 
L 524.017058 126.500844 
L 527.652893 127.296378 
L 531.288727 126.971273 
L 542.196231 129.230493 
L 545.832066 132.649084 
L 549.467901 132.514093 
L 553.103736 132.507608 
L 556.73957 127.9497 
L 567.647074 128.560421 
L 571.282909 128.309606 
L 574.918744 122.720078 
L 578.554579 118.544221 
L 582.190413 111.927141 
L 593.097917 111.496432 
L 596.733752 108.464059 
L 604.005421 113.148307 
L 607.641256 108.479083 
L 618.54876 107.299521 
L 622.184595 109.535449 
L 625.82043 105.39102 
L 629.456264 99.349159 
L 633.092099 97.310165 
L 643.999603 89.109057 
L 647.635438 96.741933 
L 651.271273 99.91801 
L 654.907107 101.24946 
L 658.542942 107.877761 
L 669.450446 107.163386 
L 673.086281 102.887911 
L 676.722116 102.827114 
L 680.35795 107.100272 
L 683.993785 111.744372 
L 694.901289 114.63405 
L 698.537124 111.27962 
L 702.172959 111.729461 
L 705.808793 106.452568 
L 709.444628 101.89228 
L 720.352132 102.582743 
L 723.987967 104.954079 
L 727.623802 102.689833 
L 731.259636 102.223385 
L 734.895471 97.298624 
L 745.802975 89.512751 
L 749.43881 85.172488 
L 753.074645 86.222654 
L 756.710479 91.343525 
L 760.346314 86.475627 
L 771.253818 83.926807 
L 774.889653 89.91091 
L 782.161322 93.716915 
L 785.797157 96.8552 
L 796.704661 97.173485 
L 800.340496 94.21733 
L 803.976331 88.337922 
L 807.612165 85.238542 
L 811.248 78.319011 
L 822.155504 76.497228 
L 825.791339 73.217598 
L 829.427174 69.421846 
L 833.063008 71.245495 
L 836.698843 72.813318 
L 847.606347 69.107208 
L 851.242182 60.88546 
L 854.878017 62.003173 
L 858.513851 67.043568 
L 862.149686 58.8631 
L 873.05719 61.67541 
L 876.693025 62.463504 
L 880.32886 58.493929 
L 883.964694 61.012504 
L 887.600529 56.529131 
L 898.508033 62.920045 
L 902.143868 60.728719 
L 905.779702 58.254417 
L 909.415537 54.073012 
L 913.051372 54.306778 
L 923.958876 56.74543 
L 927.594711 56.107379 
L 931.230545 48.999464 
L 934.86638 49.206825 
L 938.502215 53.998472 
L 949.409719 48.199924 
L 953.045554 50.559041 
L 956.681388 47.828974 
L 960.317223 53.239073 
L 963.953058 49.314033 
L 974.860562 51.468568 
L 978.496397 50.56685 
L 982.132231 56.746144 
L 985.768066 51.700819 
L 989.403901 47.166565 
L 1000.311405 39.14 
L 1003.94724 47.601453 
L 1007.583074 51.862722 
L 1011.218909 50.786735 
L 1014.854744 52.308753 
L 1025.762248 53.321085 
L 1029.398083 55.132027 
L 1033.033917 56.008438 
L 1036.669752 53.868004 
L 1040.305587 45.651896 
L 1051.213091 55.061303 
L 1054.848926 57.414549 
L 1058.48476 61.030664 
L 1062.120595 58.197347 
L 1065.75643 59.293846 
L 1076.663934 60.452783 
L 1080.299769 66.491241 
L 1083.935603 68.121605 
L 1087.571438 71.341283 
L 1087.571438 71.341283 
" style="fill:none;stroke:#e377c2;stroke-linecap:square;stroke-width:1.5;"/>
   </g>
   <g id="line2d_17">
    <path clip-path="url(#p1ae5186eb8)" d="M 91.352727 181.865177 
L 98.624397 189.046106 
L 109.531901 194.958129 
L 113.167736 192.57433 
L 116.80357 194.439745 
L 120.439405 189.478881 
L 124.07524 197.197731 
L 134.982744 194.946963 
L 138.618579 186.990839 
L 142.254413 192.10187 
L 145.890248 196.88247 
L 149.526083 200.15639 
L 160.433587 197.550696 
L 164.069421 196.164431 
L 167.705256 196.062426 
L 171.341091 196.561155 
L 174.976926 198.806142 
L 185.88443 204.516741 
L 189.520264 209.967184 
L 193.156099 211.412094 
L 196.791934 212.302951 
L 200.427769 210.740287 
L 211.335273 213.086889 
L 214.971107 218.218206 
L 218.606942 221.011233 
L 222.242777 224.938699 
L 225.878612 218.965273 
L 236.786116 220.032581 
L 240.42195 225.624671 
L 244.057785 216.435847 
L 247.69362 210.886422 
L 251.329455 206.05239 
L 262.236959 209.73767 
L 265.872793 218.870604 
L 269.508628 219.013515 
L 273.144463 217.369 
L 276.780298 228.062908 
L 287.687802 223.297254 
L 291.323636 232.226746 
L 294.959471 226.160156 
L 298.595306 234.319794 
L 302.23114 232.663492 
L 313.138645 235.871405 
L 316.774479 239.741474 
L 320.410314 236.547608 
L 324.046149 239.70815 
L 327.681983 237.698913 
L 338.589488 236.169632 
L 342.225322 228.419909 
L 345.861157 224.830605 
L 349.496992 225.466389 
L 353.132826 221.755529 
L 364.040331 231.358 
L 367.676165 231.78837 
L 371.312 235.064681 
L 374.947835 240.803835 
L 378.583669 238.840431 
L 389.491174 239.136911 
L 393.127008 236.12798 
L 396.762843 232.874846 
L 400.398678 240.213659 
L 404.034512 238.084521 
L 414.942017 239.727921 
L 418.577851 232.99856 
L 422.213686 239.54744 
L 425.849521 235.299273 
L 429.485355 228.820232 
L 440.39286 230.06974 
L 444.028694 241.24778 
L 447.664529 234.757813 
L 451.300364 226.760734 
L 454.936198 225.357236 
L 465.843702 227.315952 
L 469.479537 231.81498 
L 473.115372 238.020355 
L 476.751207 242.752691 
L 480.387041 237.127259 
L 491.294545 232.047051 
L 494.93038 233.639769 
L 498.566215 243.926068 
L 502.20205 245.849008 
L 505.837884 252.276023 
L 516.745388 247.24693 
L 520.381223 246.935511 
L 524.017058 244.375482 
L 527.652893 244.826364 
L 531.288727 249.92989 
L 545.832066 246.452037 
L 549.467901 242.277675 
L 553.103736 237.650505 
L 556.73957 233.959125 
L 567.647074 231.196078 
L 571.282909 232.371984 
L 574.918744 240.602273 
L 578.554579 243.94858 
L 582.190413 251.394776 
L 593.097917 248.171221 
L 596.733752 254.483762 
L 600.369587 260.328591 
L 604.005421 255.681161 
L 607.641256 257.270791 
L 618.54876 256.582983 
L 622.184595 250.799696 
L 625.82043 255.441289 
L 629.456264 265.509102 
L 633.092099 265.398755 
L 643.999603 267.969309 
L 647.635438 265.850088 
L 651.271273 261.86157 
L 654.907107 260.707863 
L 658.542942 253.371919 
L 669.450446 253.600111 
L 673.086281 256.82791 
L 676.722116 252.608784 
L 680.35795 252.695231 
L 683.993785 250.131895 
L 694.901289 245.229667 
L 698.537124 244.860392 
L 702.172959 245.377409 
L 705.808793 247.877039 
L 709.444628 251.066653 
L 720.352132 248.482185 
L 723.987967 245.30166 
L 727.623802 248.919847 
L 731.259636 249.056465 
L 734.895471 254.463867 
L 745.802975 257.24785 
L 749.43881 259.732876 
L 753.074645 264.326227 
L 756.710479 262.882606 
L 760.346314 265.876958 
L 771.253818 264.624305 
L 774.889653 259.870923 
L 778.525488 265.415975 
L 782.161322 260.498961 
L 785.797157 253.151196 
L 796.704661 255.006983 
L 800.340496 250.431586 
L 803.976331 251.411912 
L 807.612165 251.736255 
L 811.248 260.386209 
L 822.155504 264.702513 
L 825.791339 266.838901 
L 829.427174 268.399904 
L 833.063008 272.958678 
L 836.698843 269.710309 
L 847.606347 271.74662 
L 851.242182 280.038239 
L 854.878017 280.72265 
L 858.513851 272.883393 
L 862.149686 280.657082 
L 873.05719 279.779932 
L 876.693025 275.694967 
L 880.32886 282.386021 
L 883.964694 280.7587 
L 887.600529 283.89557 
L 898.508033 282.736115 
L 905.779702 273.984825 
L 909.415537 276.669223 
L 913.051372 268.90975 
L 923.958876 271.535304 
L 927.594711 276.479535 
L 931.230545 286.237936 
L 934.86638 285.379715 
L 938.502215 287.056914 
L 949.409719 294.814523 
L 953.045554 290.630815 
L 956.681388 291.154231 
L 960.317223 289.805866 
L 963.953058 294.023592 
L 974.860562 291.996524 
L 978.496397 295.921297 
L 982.132231 292.523446 
L 985.768066 295.9494 
L 989.403901 296.241553 
L 1000.311405 303.54 
L 1003.94724 298.070446 
L 1007.583074 294.475996 
L 1011.218909 293.614284 
L 1014.854744 290.023327 
L 1025.762248 283.646463 
L 1029.398083 283.358566 
L 1033.033917 282.49807 
L 1036.669752 290.375241 
L 1040.305587 297.098936 
L 1051.213091 291.093569 
L 1054.848926 284.90745 
L 1058.48476 282.825921 
L 1065.75643 288.368847 
L 1076.663934 285.042591 
L 1080.299769 277.928811 
L 1083.935603 271.394086 
L 1087.571438 267.412349 
L 1087.571438 267.412349 
" style="fill:none;stroke:#7f7f7f;stroke-linecap:square;stroke-width:1.5;"/>
   </g>
   <g id="line2d_18">
    <path clip-path="url(#p1ae5186eb8)" d="M 91.352727 178.854901 
L 94.988562 179.64016 
L 98.624397 176.200506 
L 109.531901 173.286061 
L 113.167736 175.374272 
L 116.80357 180.97339 
L 120.439405 178.702433 
L 124.07524 183.300832 
L 134.982744 182.341247 
L 138.618579 177.222803 
L 142.254413 178.029151 
L 145.890248 178.137332 
L 149.526083 180.087541 
L 160.433587 174.121574 
L 164.069421 174.767005 
L 167.705256 171.689552 
L 171.341091 174.20498 
L 174.976926 180.606086 
L 185.88443 182.808877 
L 189.520264 180.344197 
L 193.156099 183.357102 
L 196.791934 188.514926 
L 200.427769 190.241812 
L 211.335273 193.205877 
L 214.971107 194.51958 
L 218.606942 196.264534 
L 222.242777 193.757897 
L 225.878612 185.455817 
L 236.786116 182.4181 
L 240.42195 186.090283 
L 244.057785 183.320681 
L 247.69362 185.547428 
L 251.329455 183.939242 
L 262.236959 184.50444 
L 265.872793 189.500815 
L 269.508628 188.590813 
L 273.144463 186.369796 
L 276.780298 188.089445 
L 287.687802 187.23468 
L 291.323636 189.314289 
L 294.959471 188.399507 
L 298.595306 188.039465 
L 302.23114 188.62251 
L 313.138645 188.029767 
L 316.774479 186.196877 
L 320.410314 182.016671 
L 324.046149 182.151582 
L 327.681983 184.935707 
L 338.589488 186.701344 
L 342.225322 187.111582 
L 345.861157 188.278974 
L 349.496992 191.180922 
L 353.132826 189.46861 
L 364.040331 188.236784 
L 367.676165 182.625407 
L 371.312 180.361767 
L 374.947835 181.950073 
L 378.583669 179.352536 
L 389.491174 174.664838 
L 393.127008 179.083996 
L 396.762843 172.242632 
L 400.398678 176.845258 
L 404.034512 173.332694 
L 414.942017 169.824673 
L 418.577851 169.369259 
L 422.213686 169.873126 
L 425.849521 169.315393 
L 429.485355 166.452139 
L 440.39286 163.185547 
L 444.028694 166.546634 
L 447.664529 168.201893 
L 451.300364 159.873521 
L 454.936198 164.18223 
L 465.843702 164.764715 
L 469.479537 160.060305 
L 473.115372 167.554942 
L 476.751207 168.986994 
L 480.387041 163.698235 
L 491.294545 158.470799 
L 494.93038 158.165126 
L 498.566215 162.269725 
L 502.20205 162.491668 
L 505.837884 167.654703 
L 516.745388 163.169464 
L 520.381223 160.585725 
L 524.017058 162.811763 
L 527.652893 164.063967 
L 531.288727 168.814845 
L 542.196231 168.343366 
L 545.832066 170.873058 
L 549.467901 166.572407 
L 553.103736 161.939214 
L 556.73957 153.942217 
L 567.647074 151.763391 
L 571.282909 152.683735 
L 574.918744 154.577441 
L 578.554579 153.526411 
L 582.190413 153.56715 
L 593.097917 149.934439 
L 596.733752 152.901246 
L 600.369587 161.298758 
L 604.005421 158.842627 
L 607.641256 155.647395 
L 618.54876 153.792799 
L 622.184595 150.044833 
L 625.82043 150.234031 
L 629.456264 153.26278 
L 633.092099 151.116972 
L 643.999603 145.164959 
L 647.635438 150.408912 
L 651.271273 149.395634 
L 654.907107 149.548801 
L 658.542942 148.072521 
L 669.450446 147.583743 
L 673.086281 146.317709 
L 676.722116 142.041749 
L 680.35795 146.407468 
L 683.993785 148.295068 
L 694.901289 146.060098 
L 698.537124 142.35561 
L 702.172959 143.326214 
L 705.808793 140.343078 
L 709.444628 138.742864 
L 720.352132 136.820778 
L 723.987967 135.891949 
L 727.623802 137.113677 
L 731.259636 136.782831 
L 734.895471 136.839527 
L 745.802975 131.5055 
L 749.43881 129.480643 
L 753.074645 135.204863 
L 756.710479 138.76055 
L 760.346314 136.657898 
L 771.253818 132.905939 
L 774.889653 133.679055 
L 778.525488 141.364924 
L 782.161322 138.155808 
L 785.797157 133.590828 
L 796.704661 135.774504 
L 800.340496 128.446847 
L 803.976331 123.459234 
L 807.612165 120.668486 
L 822.155504 123.801859 
L 825.791339 122.54776 
L 829.427174 120.220064 
L 833.063008 126.742468 
L 836.698843 124.98167 
L 847.606347 123.192973 
L 851.242182 122.18078 
L 854.878017 123.995306 
L 858.513851 120.581506 
L 862.149686 119.168667 
L 873.05719 121.063807 
L 876.693025 117.716843 
L 880.32886 120.005812 
L 883.964694 120.831139 
L 887.600529 119.262645 
L 898.508033 124.370717 
L 902.143868 117.932774 
L 905.779702 111.263353 
L 909.415537 109.589331 
L 913.051372 102.036319 
L 923.958876 107.207164 
L 927.594711 111.461179 
L 931.230545 112.988036 
L 934.86638 112.334347 
L 938.502215 118.9386 
L 949.409719 120.171069 
L 953.045554 118.191209 
L 956.681388 115.962126 
L 960.317223 119.903531 
L 974.860562 119.989188 
L 978.496397 122.954329 
L 982.132231 125.393499 
L 985.768066 123.501973 
L 989.403901 119.23941 
L 1000.311405 117.586378 
L 1003.94724 119.824634 
L 1007.583074 120.245804 
L 1011.218909 118.322694 
L 1014.854744 116.167901 
L 1025.762248 110.704581 
L 1029.398083 112.219195 
L 1033.033917 112.223059 
L 1036.669752 117.678187 
L 1040.305587 115.318532 
L 1051.213091 117.800379 
L 1054.848926 113.742215 
L 1058.48476 115.155142 
L 1062.120595 114.926988 
L 1065.75643 118.888831 
L 1076.663934 116.660995 
L 1080.299769 114.908215 
L 1083.935603 109.840295 
L 1087.571438 108.874911 
L 1091.207273 108.874911 
L 1091.207273 108.874911 
" style="fill:none;stroke:#bcbd22;stroke-linecap:square;stroke-width:1.5;"/>
   </g>
   <g id="patch_3">
    <path d="M 41.36 316.76 
L 41.36 25.92 
" style="fill:none;stroke:#000000;stroke-linecap:square;stroke-linejoin:miter;stroke-width:0.8;"/>
   </g>
   <g id="patch_4">
    <path d="M 1141.2 316.76 
L 1141.2 25.92 
" style="fill:none;stroke:#000000;stroke-linecap:square;stroke-linejoin:miter;stroke-width:0.8;"/>
   </g>
   <g id="patch_5">
    <path d="M 41.36 316.76 
L 1141.2 316.76 
" style="fill:none;stroke:#000000;stroke-linecap:square;stroke-linejoin:miter;stroke-width:0.8;"/>
   </g>
   <g id="patch_6">
    <path d="M 41.36 25.92 
L 1141.2 25.92 
" style="fill:none;stroke:#000000;stroke-linecap:square;stroke-linejoin:miter;stroke-width:0.8;"/>
   </g>
   <g id="text_8">
    <!-- Cumulative Log Return: (2010-01-06 ~ 2010-10-08) -->
    <g transform="translate(435.402813 19.92)scale(0.12 -0.12)">
     <defs>
      <path d="M 64.40625 67.28125 
L 64.40625 56.890625 
Q 59.421875 61.53125 53.78125 63.8125 
Q 48.140625 66.109375 41.796875 66.109375 
Q 29.296875 66.109375 22.65625 58.46875 
Q 16.015625 50.828125 16.015625 36.375 
Q 16.015625 21.96875 22.65625 14.328125 
Q 29.296875 6.6875 41.796875 6.6875 
Q 48.140625 6.6875 53.78125 8.984375 
Q 59.421875 11.28125 64.40625 15.921875 
L 64.40625 5.609375 
Q 59.234375 2.09375 53.4375 0.328125 
Q 47.65625 -1.421875 41.21875 -1.421875 
Q 24.65625 -1.421875 15.125 8.703125 
Q 5.609375 18.84375 5.609375 36.375 
Q 5.609375 53.953125 15.125 64.078125 
Q 24.65625 74.21875 41.21875 74.21875 
Q 47.75 74.21875 53.53125 72.484375 
Q 59.328125 70.75 64.40625 67.28125 
z
" id="DejaVuSans-67"/>
      <path d="M 34.28125 27.484375 
Q 23.390625 27.484375 19.1875 25 
Q 14.984375 22.515625 14.984375 16.5 
Q 14.984375 11.71875 18.140625 8.90625 
Q 21.296875 6.109375 26.703125 6.109375 
Q 34.1875 6.109375 38.703125 11.40625 
Q 43.21875 16.703125 43.21875 25.484375 
L 43.21875 27.484375 
z
M 52.203125 31.203125 
L 52.203125 0 
L 43.21875 0 
L 43.21875 8.296875 
Q 40.140625 3.328125 35.546875 0.953125 
Q 30.953125 -1.421875 24.3125 -1.421875 
Q 15.921875 -1.421875 10.953125 3.296875 
Q 6 8.015625 6 15.921875 
Q 6 25.140625 12.171875 29.828125 
Q 18.359375 34.515625 30.609375 34.515625 
L 43.21875 34.515625 
L 43.21875 35.40625 
Q 43.21875 41.609375 39.140625 45 
Q 35.0625 48.390625 27.6875 48.390625 
Q 23 48.390625 18.546875 47.265625 
Q 14.109375 46.140625 10.015625 43.890625 
L 10.015625 52.203125 
Q 14.9375 54.109375 19.578125 55.046875 
Q 24.21875 56 28.609375 56 
Q 40.484375 56 46.34375 49.84375 
Q 52.203125 43.703125 52.203125 31.203125 
z
" id="DejaVuSans-97"/>
      <path d="M 9.421875 54.6875 
L 18.40625 54.6875 
L 18.40625 0 
L 9.421875 0 
z
M 9.421875 75.984375 
L 18.40625 75.984375 
L 18.40625 64.59375 
L 9.421875 64.59375 
z
" id="DejaVuSans-105"/>
      <path d="M 2.984375 54.6875 
L 12.5 54.6875 
L 29.59375 8.796875 
L 46.6875 54.6875 
L 56.203125 54.6875 
L 35.6875 0 
L 23.484375 0 
z
" id="DejaVuSans-118"/>
      <path d="M 9.8125 72.90625 
L 19.671875 72.90625 
L 19.671875 8.296875 
L 55.171875 8.296875 
L 55.171875 0 
L 9.8125 0 
z
" id="DejaVuSans-76"/>
      <path d="M 44.390625 34.1875 
Q 47.5625 33.109375 50.5625 29.59375 
Q 53.5625 26.078125 56.59375 19.921875 
L 66.609375 0 
L 56 0 
L 46.6875 18.703125 
Q 43.0625 26.03125 39.671875 28.421875 
Q 36.28125 30.8125 30.421875 30.8125 
L 19.671875 30.8125 
L 19.671875 0 
L 9.8125 0 
L 9.8125 72.90625 
L 32.078125 72.90625 
Q 44.578125 72.90625 50.734375 67.671875 
Q 56.890625 62.453125 56.890625 51.90625 
Q 56.890625 45.015625 53.6875 40.46875 
Q 50.484375 35.9375 44.390625 34.1875 
z
M 19.671875 64.796875 
L 19.671875 38.921875 
L 32.078125 38.921875 
Q 39.203125 38.921875 42.84375 42.21875 
Q 46.484375 45.515625 46.484375 51.90625 
Q 46.484375 58.296875 42.84375 61.546875 
Q 39.203125 64.796875 32.078125 64.796875 
z
" id="DejaVuSans-82"/>
      <path d="M 11.71875 12.40625 
L 22.015625 12.40625 
L 22.015625 0 
L 11.71875 0 
z
M 11.71875 51.703125 
L 22.015625 51.703125 
L 22.015625 39.3125 
L 11.71875 39.3125 
z
" id="DejaVuSans-58"/>
      <path d="M 31 75.875 
Q 24.46875 64.65625 21.28125 53.65625 
Q 18.109375 42.671875 18.109375 31.390625 
Q 18.109375 20.125 21.3125 9.0625 
Q 24.515625 -2 31 -13.1875 
L 23.1875 -13.1875 
Q 15.875 -1.703125 12.234375 9.375 
Q 8.59375 20.453125 8.59375 31.390625 
Q 8.59375 42.28125 12.203125 53.3125 
Q 15.828125 64.359375 23.1875 75.875 
z
" id="DejaVuSans-40"/>
      <path d="M 33.015625 40.375 
Q 26.375 40.375 22.484375 35.828125 
Q 18.609375 31.296875 18.609375 23.390625 
Q 18.609375 15.53125 22.484375 10.953125 
Q 26.375 6.390625 33.015625 6.390625 
Q 39.65625 6.390625 43.53125 10.953125 
Q 47.40625 15.53125 47.40625 23.390625 
Q 47.40625 31.296875 43.53125 35.828125 
Q 39.65625 40.375 33.015625 40.375 
z
M 52.59375 71.296875 
L 52.59375 62.3125 
Q 48.875 64.0625 45.09375 64.984375 
Q 41.3125 65.921875 37.59375 65.921875 
Q 27.828125 65.921875 22.671875 59.328125 
Q 17.53125 52.734375 16.796875 39.40625 
Q 19.671875 43.65625 24.015625 45.921875 
Q 28.375 48.1875 33.59375 48.1875 
Q 44.578125 48.1875 50.953125 41.515625 
Q 57.328125 34.859375 57.328125 23.390625 
Q 57.328125 12.15625 50.6875 5.359375 
Q 44.046875 -1.421875 33.015625 -1.421875 
Q 20.359375 -1.421875 13.671875 8.265625 
Q 6.984375 17.96875 6.984375 36.375 
Q 6.984375 53.65625 15.1875 63.9375 
Q 23.390625 74.21875 37.203125 74.21875 
Q 40.921875 74.21875 44.703125 73.484375 
Q 48.484375 72.75 52.59375 71.296875 
z
" id="DejaVuSans-54"/>
      <path d="M 73.1875 39.890625 
L 73.1875 31.203125 
Q 68.0625 27.34375 63.6875 25.6875 
Q 59.328125 24.03125 54.59375 24.03125 
Q 49.21875 24.03125 42.09375 26.90625 
Q 41.546875 27.09375 41.3125 27.203125 
Q 40.96875 27.34375 40.234375 27.59375 
Q 32.671875 30.609375 28.078125 30.609375 
Q 23.78125 30.609375 19.578125 28.734375 
Q 15.375 26.859375 10.59375 22.796875 
L 10.59375 31.5 
Q 15.71875 35.359375 20.09375 37.03125 
Q 24.46875 38.71875 29.203125 38.71875 
Q 34.578125 38.71875 41.75 35.796875 
Q 42.234375 35.59375 42.484375 35.5 
Q 42.875 35.359375 43.5625 35.109375 
Q 51.125 32.078125 55.71875 32.078125 
Q 59.90625 32.078125 64.03125 33.9375 
Q 68.171875 35.796875 73.1875 39.890625 
z
" id="DejaVuSans-126"/>
      <path d="M 31.78125 34.625 
Q 24.75 34.625 20.71875 30.859375 
Q 16.703125 27.09375 16.703125 20.515625 
Q 16.703125 13.921875 20.71875 10.15625 
Q 24.75 6.390625 31.78125 6.390625 
Q 38.8125 6.390625 42.859375 10.171875 
Q 46.921875 13.96875 46.921875 20.515625 
Q 46.921875 27.09375 42.890625 30.859375 
Q 38.875 34.625 31.78125 34.625 
z
M 21.921875 38.8125 
Q 15.578125 40.375 12.03125 44.71875 
Q 8.5 49.078125 8.5 55.328125 
Q 8.5 64.0625 14.71875 69.140625 
Q 20.953125 74.21875 31.78125 74.21875 
Q 42.671875 74.21875 48.875 69.140625 
Q 55.078125 64.0625 55.078125 55.328125 
Q 55.078125 49.078125 51.53125 44.71875 
Q 48 40.375 41.703125 38.8125 
Q 48.828125 37.15625 52.796875 32.3125 
Q 56.78125 27.484375 56.78125 20.515625 
Q 56.78125 9.90625 50.3125 4.234375 
Q 43.84375 -1.421875 31.78125 -1.421875 
Q 19.734375 -1.421875 13.25 4.234375 
Q 6.78125 9.90625 6.78125 20.515625 
Q 6.78125 27.484375 10.78125 32.3125 
Q 14.796875 37.15625 21.921875 38.8125 
z
M 18.3125 54.390625 
Q 18.3125 48.734375 21.84375 45.5625 
Q 25.390625 42.390625 31.78125 42.390625 
Q 38.140625 42.390625 41.71875 45.5625 
Q 45.3125 48.734375 45.3125 54.390625 
Q 45.3125 60.0625 41.71875 63.234375 
Q 38.140625 66.40625 31.78125 66.40625 
Q 25.390625 66.40625 21.84375 63.234375 
Q 18.3125 60.0625 18.3125 54.390625 
z
" id="DejaVuSans-56"/>
      <path d="M 8.015625 75.875 
L 15.828125 75.875 
Q 23.140625 64.359375 26.78125 53.3125 
Q 30.421875 42.28125 30.421875 31.390625 
Q 30.421875 20.453125 26.78125 9.375 
Q 23.140625 -1.703125 15.828125 -13.1875 
L 8.015625 -13.1875 
Q 14.5 -2 17.703125 9.0625 
Q 20.90625 20.125 20.90625 31.390625 
Q 20.90625 42.671875 17.703125 53.65625 
Q 14.5 64.65625 8.015625 75.875 
z
" id="DejaVuSans-41"/>
     </defs>
     <use xlink:href="#DejaVuSans-67"/>
     <use x="69.824219" xlink:href="#DejaVuSans-117"/>
     <use x="133.203125" xlink:href="#DejaVuSans-109"/>
     <use x="230.615234" xlink:href="#DejaVuSans-117"/>
     <use x="293.994141" xlink:href="#DejaVuSans-108"/>
     <use x="321.777344" xlink:href="#DejaVuSans-97"/>
     <use x="383.056641" xlink:href="#DejaVuSans-116"/>
     <use x="422.265625" xlink:href="#DejaVuSans-105"/>
     <use x="450.048828" xlink:href="#DejaVuSans-118"/>
     <use x="509.228516" xlink:href="#DejaVuSans-101"/>
     <use x="570.751953" xlink:href="#DejaVuSans-32"/>
     <use x="602.539062" xlink:href="#DejaVuSans-76"/>
     <use x="656.501953" xlink:href="#DejaVuSans-111"/>
     <use x="717.683594" xlink:href="#DejaVuSans-103"/>
     <use x="781.160156" xlink:href="#DejaVuSans-32"/>
     <use x="812.947266" xlink:href="#DejaVuSans-82"/>
     <use x="877.929688" xlink:href="#DejaVuSans-101"/>
     <use x="939.453125" xlink:href="#DejaVuSans-116"/>
     <use x="978.662109" xlink:href="#DejaVuSans-117"/>
     <use x="1042.041016" xlink:href="#DejaVuSans-114"/>
     <use x="1081.404297" xlink:href="#DejaVuSans-110"/>
     <use x="1144.783203" xlink:href="#DejaVuSans-58"/>
     <use x="1178.474609" xlink:href="#DejaVuSans-32"/>
     <use x="1210.261719" xlink:href="#DejaVuSans-40"/>
     <use x="1249.275391" xlink:href="#DejaVuSans-50"/>
     <use x="1312.898438" xlink:href="#DejaVuSans-48"/>
     <use x="1376.521484" xlink:href="#DejaVuSans-49"/>
     <use x="1440.144531" xlink:href="#DejaVuSans-48"/>
     <use x="1503.767578" xlink:href="#DejaVuSans-45"/>
     <use x="1539.851562" xlink:href="#DejaVuSans-48"/>
     <use x="1603.474609" xlink:href="#DejaVuSans-49"/>
     <use x="1667.097656" xlink:href="#DejaVuSans-45"/>
     <use x="1703.181641" xlink:href="#DejaVuSans-48"/>
     <use x="1766.804688" xlink:href="#DejaVuSans-54"/>
     <use x="1830.427734" xlink:href="#DejaVuSans-32"/>
     <use x="1862.214844" xlink:href="#DejaVuSans-126"/>
     <use x="1946.003906" xlink:href="#DejaVuSans-32"/>
     <use x="1977.791016" xlink:href="#DejaVuSans-50"/>
     <use x="2041.414062" xlink:href="#DejaVuSans-48"/>
     <use x="2105.037109" xlink:href="#DejaVuSans-49"/>
     <use x="2168.660156" xlink:href="#DejaVuSans-48"/>
     <use x="2232.283203" xlink:href="#DejaVuSans-45"/>
     <use x="2268.367188" xlink:href="#DejaVuSans-49"/>
     <use x="2331.990234" xlink:href="#DejaVuSans-48"/>
     <use x="2395.613281" xlink:href="#DejaVuSans-45"/>
     <use x="2431.697266" xlink:href="#DejaVuSans-48"/>
     <use x="2495.320312" xlink:href="#DejaVuSans-56"/>
     <use x="2558.943359" xlink:href="#DejaVuSans-41"/>
    </g>
   </g>
   <g id="legend_1">
    <g id="patch_7">
     <path d="M 48.36 123.379375 
L 144.849063 123.379375 
Q 146.849063 123.379375 146.849063 121.379375 
L 146.849063 32.92 
Q 146.849063 30.92 144.849063 30.92 
L 48.36 30.92 
Q 46.36 30.92 46.36 32.92 
L 46.36 121.379375 
Q 46.36 123.379375 48.36 123.379375 
z
" style="fill:#ffffff;opacity:0.8;stroke:#cccccc;stroke-linejoin:miter;"/>
    </g>
    <g id="line2d_19">
     <path d="M 50.36 39.018437 
L 70.36 39.018437 
" style="fill:none;stroke:#9467bd;stroke-linecap:square;stroke-width:1.5;"/>
    </g>
    <g id="line2d_20"/>
    <g id="text_9">
     <!-- group_5 -->
     <g transform="translate(78.36 42.518437)scale(0.1 -0.1)">
      <defs>
       <path d="M 18.109375 8.203125 
L 18.109375 -20.796875 
L 9.078125 -20.796875 
L 9.078125 54.6875 
L 18.109375 54.6875 
L 18.109375 46.390625 
Q 20.953125 51.265625 25.265625 53.625 
Q 29.59375 56 35.59375 56 
Q 45.5625 56 51.78125 48.09375 
Q 58.015625 40.1875 58.015625 27.296875 
Q 58.015625 14.40625 51.78125 6.484375 
Q 45.5625 -1.421875 35.59375 -1.421875 
Q 29.59375 -1.421875 25.265625 0.953125 
Q 20.953125 3.328125 18.109375 8.203125 
z
M 48.6875 27.296875 
Q 48.6875 37.203125 44.609375 42.84375 
Q 40.53125 48.484375 33.40625 48.484375 
Q 26.265625 48.484375 22.1875 42.84375 
Q 18.109375 37.203125 18.109375 27.296875 
Q 18.109375 17.390625 22.1875 11.75 
Q 26.265625 6.109375 33.40625 6.109375 
Q 40.53125 6.109375 44.609375 11.75 
Q 48.6875 17.390625 48.6875 27.296875 
z
" id="DejaVuSans-112"/>
       <path d="M 50.984375 -16.609375 
L 50.984375 -23.578125 
L -0.984375 -23.578125 
L -0.984375 -16.609375 
z
" id="DejaVuSans-95"/>
       <path d="M 10.796875 72.90625 
L 49.515625 72.90625 
L 49.515625 64.59375 
L 19.828125 64.59375 
L 19.828125 46.734375 
Q 21.96875 47.46875 24.109375 47.828125 
Q 26.265625 48.1875 28.421875 48.1875 
Q 40.625 48.1875 47.75 41.5 
Q 54.890625 34.8125 54.890625 23.390625 
Q 54.890625 11.625 47.5625 5.09375 
Q 40.234375 -1.421875 26.90625 -1.421875 
Q 22.3125 -1.421875 17.546875 -0.640625 
Q 12.796875 0.140625 7.71875 1.703125 
L 7.71875 11.625 
Q 12.109375 9.234375 16.796875 8.0625 
Q 21.484375 6.890625 26.703125 6.890625 
Q 35.15625 6.890625 40.078125 11.328125 
Q 45.015625 15.765625 45.015625 23.390625 
Q 45.015625 31 40.078125 35.4375 
Q 35.15625 39.890625 26.703125 39.890625 
Q 22.75 39.890625 18.8125 39.015625 
Q 14.890625 38.140625 10.796875 36.28125 
z
" id="DejaVuSans-53"/>
      </defs>
      <use xlink:href="#DejaVuSans-103"/>
      <use x="63.476562" xlink:href="#DejaVuSans-114"/>
      <use x="102.339844" xlink:href="#DejaVuSans-111"/>
      <use x="163.521484" xlink:href="#DejaVuSans-117"/>
      <use x="226.900391" xlink:href="#DejaVuSans-112"/>
      <use x="290.376953" xlink:href="#DejaVuSans-95"/>
      <use x="340.376953" xlink:href="#DejaVuSans-53"/>
     </g>
    </g>
    <g id="line2d_21">
     <path d="M 50.36 53.974687 
L 70.36 53.974687 
" style="fill:none;stroke:#1f77b4;stroke-linecap:square;stroke-width:1.5;"/>
    </g>
    <g id="line2d_22"/>
    <g id="text_10">
     <!-- group_1 -->
     <g transform="translate(78.36 57.474687)scale(0.1 -0.1)">
      <use xlink:href="#DejaVuSans-103"/>
      <use x="63.476562" xlink:href="#DejaVuSans-114"/>
      <use x="102.339844" xlink:href="#DejaVuSans-111"/>
      <use x="163.521484" xlink:href="#DejaVuSans-117"/>
      <use x="226.900391" xlink:href="#DejaVuSans-112"/>
      <use x="290.376953" xlink:href="#DejaVuSans-95"/>
      <use x="340.376953" xlink:href="#DejaVuSans-49"/>
     </g>
    </g>
    <g id="line2d_23">
     <path d="M 50.36 68.930937 
L 70.36 68.930937 
" style="fill:none;stroke:#8c564b;stroke-linecap:square;stroke-width:1.5;"/>
    </g>
    <g id="line2d_24"/>
    <g id="text_11">
     <!-- benchmark -->
     <g transform="translate(78.36 72.430937)scale(0.1 -0.1)">
      <defs>
       <path d="M 48.6875 27.296875 
Q 48.6875 37.203125 44.609375 42.84375 
Q 40.53125 48.484375 33.40625 48.484375 
Q 26.265625 48.484375 22.1875 42.84375 
Q 18.109375 37.203125 18.109375 27.296875 
Q 18.109375 17.390625 22.1875 11.75 
Q 26.265625 6.109375 33.40625 6.109375 
Q 40.53125 6.109375 44.609375 11.75 
Q 48.6875 17.390625 48.6875 27.296875 
z
M 18.109375 46.390625 
Q 20.953125 51.265625 25.265625 53.625 
Q 29.59375 56 35.59375 56 
Q 45.5625 56 51.78125 48.09375 
Q 58.015625 40.1875 58.015625 27.296875 
Q 58.015625 14.40625 51.78125 6.484375 
Q 45.5625 -1.421875 35.59375 -1.421875 
Q 29.59375 -1.421875 25.265625 0.953125 
Q 20.953125 3.328125 18.109375 8.203125 
L 18.109375 0 
L 9.078125 0 
L 9.078125 75.984375 
L 18.109375 75.984375 
z
" id="DejaVuSans-98"/>
       <path d="M 54.890625 33.015625 
L 54.890625 0 
L 45.90625 0 
L 45.90625 32.71875 
Q 45.90625 40.484375 42.875 44.328125 
Q 39.84375 48.1875 33.796875 48.1875 
Q 26.515625 48.1875 22.3125 43.546875 
Q 18.109375 38.921875 18.109375 30.90625 
L 18.109375 0 
L 9.078125 0 
L 9.078125 75.984375 
L 18.109375 75.984375 
L 18.109375 46.1875 
Q 21.34375 51.125 25.703125 53.5625 
Q 30.078125 56 35.796875 56 
Q 45.21875 56 50.046875 50.171875 
Q 54.890625 44.34375 54.890625 33.015625 
z
" id="DejaVuSans-104"/>
       <path d="M 9.078125 75.984375 
L 18.109375 75.984375 
L 18.109375 31.109375 
L 44.921875 54.6875 
L 56.390625 54.6875 
L 27.390625 29.109375 
L 57.625 0 
L 45.90625 0 
L 18.109375 26.703125 
L 18.109375 0 
L 9.078125 0 
z
" id="DejaVuSans-107"/>
      </defs>
      <use xlink:href="#DejaVuSans-98"/>
      <use x="63.476562" xlink:href="#DejaVuSans-101"/>
      <use x="125" xlink:href="#DejaVuSans-110"/>
      <use x="188.378906" xlink:href="#DejaVuSans-99"/>
      <use x="243.359375" xlink:href="#DejaVuSans-104"/>
      <use x="306.738281" xlink:href="#DejaVuSans-109"/>
      <use x="404.150391" xlink:href="#DejaVuSans-97"/>
      <use x="465.429688" xlink:href="#DejaVuSans-114"/>
      <use x="506.542969" xlink:href="#DejaVuSans-107"/>
     </g>
    </g>
    <g id="line2d_25">
     <path d="M 50.36 83.609062 
L 70.36 83.609062 
" style="fill:none;stroke:#e377c2;stroke-linecap:square;stroke-width:1.5;"/>
    </g>
    <g id="line2d_26"/>
    <g id="text_12">
     <!-- long_excess -->
     <g transform="translate(78.36 87.109062)scale(0.1 -0.1)">
      <defs>
       <path d="M 54.890625 54.6875 
L 35.109375 28.078125 
L 55.90625 0 
L 45.3125 0 
L 29.390625 21.484375 
L 13.484375 0 
L 2.875 0 
L 24.125 28.609375 
L 4.6875 54.6875 
L 15.28125 54.6875 
L 29.78125 35.203125 
L 44.28125 54.6875 
z
" id="DejaVuSans-120"/>
      </defs>
      <use xlink:href="#DejaVuSans-108"/>
      <use x="27.783203" xlink:href="#DejaVuSans-111"/>
      <use x="88.964844" xlink:href="#DejaVuSans-110"/>
      <use x="152.34375" xlink:href="#DejaVuSans-103"/>
      <use x="215.820312" xlink:href="#DejaVuSans-95"/>
      <use x="265.820312" xlink:href="#DejaVuSans-101"/>
      <use x="325.59375" xlink:href="#DejaVuSans-120"/>
      <use x="383.023438" xlink:href="#DejaVuSans-99"/>
      <use x="438.003906" xlink:href="#DejaVuSans-101"/>
      <use x="499.527344" xlink:href="#DejaVuSans-115"/>
      <use x="551.626953" xlink:href="#DejaVuSans-115"/>
     </g>
    </g>
    <g id="line2d_27">
     <path d="M 50.36 98.565312 
L 70.36 98.565312 
" style="fill:none;stroke:#7f7f7f;stroke-linecap:square;stroke-width:1.5;"/>
    </g>
    <g id="line2d_28"/>
    <g id="text_13">
     <!-- short_excess -->
     <g transform="translate(78.36 102.065312)scale(0.1 -0.1)">
      <use xlink:href="#DejaVuSans-115"/>
      <use x="52.099609" xlink:href="#DejaVuSans-104"/>
      <use x="115.478516" xlink:href="#DejaVuSans-111"/>
      <use x="176.660156" xlink:href="#DejaVuSans-114"/>
      <use x="217.773438" xlink:href="#DejaVuSans-116"/>
      <use x="256.982422" xlink:href="#DejaVuSans-95"/>
      <use x="306.982422" xlink:href="#DejaVuSans-101"/>
      <use x="366.755859" xlink:href="#DejaVuSans-120"/>
      <use x="424.185547" xlink:href="#DejaVuSans-99"/>
      <use x="479.166016" xlink:href="#DejaVuSans-101"/>
      <use x="540.689453" xlink:href="#DejaVuSans-115"/>
      <use x="592.789062" xlink:href="#DejaVuSans-115"/>
     </g>
    </g>
    <g id="line2d_29">
     <path d="M 50.36 113.521562 
L 70.36 113.521562 
" style="fill:none;stroke:#bcbd22;stroke-linecap:square;stroke-width:1.5;"/>
    </g>
    <g id="line2d_30"/>
    <g id="text_14">
     <!-- long_short -->
     <g transform="translate(78.36 117.021562)scale(0.1 -0.1)">
      <use xlink:href="#DejaVuSans-108"/>
      <use x="27.783203" xlink:href="#DejaVuSans-111"/>
      <use x="88.964844" xlink:href="#DejaVuSans-110"/>
      <use x="152.34375" xlink:href="#DejaVuSans-103"/>
      <use x="215.820312" xlink:href="#DejaVuSans-95"/>
      <use x="265.820312" xlink:href="#DejaVuSans-115"/>
      <use x="317.919922" xlink:href="#DejaVuSans-104"/>
      <use x="381.298828" xlink:href="#DejaVuSans-111"/>
      <use x="442.480469" xlink:href="#DejaVuSans-114"/>
      <use x="483.59375" xlink:href="#DejaVuSans-116"/>
     </g>
    </g>
   </g>
  </g>
 </g>
 <defs>
  <clipPath id="p1ae5186eb8">
   <rect height="290.84" width="1099.84" x="41.36" y="25.92"/>
  </clipPath>
 </defs>
</svg>
