<?xml version="1.0" encoding="utf-8" standalone="no"?>
<!DOCTYPE svg PUBLIC "-//W3C//DTD SVG 1.1//EN"
  "http://www.w3.org/Graphics/SVG/1.1/DTD/svg11.dtd">
<!-- Created with matplotlib (https://matplotlib.org/) -->
<svg height="374.4pt" version="1.1" viewBox="0 0 1152 374.4" width="1152pt" xmlns="http://www.w3.org/2000/svg" xmlns:xlink="http://www.w3.org/1999/xlink">
 <metadata>
  <rdf:RDF xmlns:cc="http://creativecommons.org/ns#" xmlns:dc="http://purl.org/dc/elements/1.1/" xmlns:rdf="http://www.w3.org/1999/02/22-rdf-syntax-ns#">
   <cc:Work>
    <dc:type rdf:resource="http://purl.org/dc/dcmitype/StillImage"/>
    <dc:date>2023-10-11T16:35:15.164255</dc:date>
    <dc:format>image/svg+xml</dc:format>
    <dc:creator>
     <cc:Agent>
      <dc:title>Matplotlib v3.3.4, https://matplotlib.org/</dc:title>
     </cc:Agent>
    </dc:creator>
   </cc:Work>
  </rdf:RDF>
 </metadata>
 <defs>
  <style type="text/css">*{stroke-linecap:butt;stroke-linejoin:round;}</style>
 </defs>
 <g id="figure_1">
  <g id="patch_1">
   <path d="M 0 374.4 
L 1152 374.4 
L 1152 0 
L 0 0 
z
" style="fill:#ffffff;"/>
  </g>
  <g id="axes_1">
   <g id="patch_2">
    <path d="M 37.82 360.1 
L 1141.2 360.1 
L 1141.2 25.92 
L 37.82 25.92 
z
" style="fill:#ffffff;"/>
   </g>
   <g id="matplotlib.axis_1"/>
   <g id="matplotlib.axis_2">
    <g id="ytick_1">
     <g id="line2d_1">
      <path clip-path="url(#p096d20788c)" d="M 37.82 352.139315 
L 1141.2 352.139315 
" style="fill:none;stroke:#b0b0b0;stroke-linecap:square;stroke-width:0.8;"/>
     </g>
     <g id="line2d_2">
      <defs>
       <path d="M 0 0 
L -3.5 0 
" id="m08121fc7bd" style="stroke:#000000;stroke-width:0.8;"/>
      </defs>
      <g>
       <use style="stroke:#000000;stroke-width:0.8;" x="37.82" xlink:href="#m08121fc7bd" y="352.139315"/>
      </g>
     </g>
     <g id="text_1">
      <!-- 0 -->
      <g transform="translate(24.4575 355.938534)scale(0.1 -0.1)">
       <defs>
        <path d="M 31.78125 66.40625 
Q 24.171875 66.40625 20.328125 58.90625 
Q 16.5 51.421875 16.5 36.375 
Q 16.5 21.390625 20.328125 13.890625 
Q 24.171875 6.390625 31.78125 6.390625 
Q 39.453125 6.390625 43.28125 13.890625 
Q 47.125 21.390625 47.125 36.375 
Q 47.125 51.421875 43.28125 58.90625 
Q 39.453125 66.40625 31.78125 66.40625 
z
M 31.78125 74.21875 
Q 44.046875 74.21875 50.515625 64.515625 
Q 56.984375 54.828125 56.984375 36.375 
Q 56.984375 17.96875 50.515625 8.265625 
Q 44.046875 -1.421875 31.78125 -1.421875 
Q 19.53125 -1.421875 13.0625 8.265625 
Q 6.59375 17.96875 6.59375 36.375 
Q 6.59375 54.828125 13.0625 64.515625 
Q 19.53125 74.21875 31.78125 74.21875 
z
" id="DejaVuSans-48"/>
       </defs>
       <use xlink:href="#DejaVuSans-48"/>
      </g>
     </g>
    </g>
    <g id="ytick_2">
     <g id="line2d_3">
      <path clip-path="url(#p096d20788c)" d="M 37.82 302.220856 
L 1141.2 302.220856 
" style="fill:none;stroke:#b0b0b0;stroke-linecap:square;stroke-width:0.8;"/>
     </g>
     <g id="line2d_4">
      <g>
       <use style="stroke:#000000;stroke-width:0.8;" x="37.82" xlink:href="#m08121fc7bd" y="302.220856"/>
      </g>
     </g>
     <g id="text_2">
      <!-- 1 -->
      <g transform="translate(24.4575 306.020075)scale(0.1 -0.1)">
       <defs>
        <path d="M 12.40625 8.296875 
L 28.515625 8.296875 
L 28.515625 63.921875 
L 10.984375 60.40625 
L 10.984375 69.390625 
L 28.421875 72.90625 
L 38.28125 72.90625 
L 38.28125 8.296875 
L 54.390625 8.296875 
L 54.390625 0 
L 12.40625 0 
z
" id="DejaVuSans-49"/>
       </defs>
       <use xlink:href="#DejaVuSans-49"/>
      </g>
     </g>
    </g>
    <g id="ytick_3">
     <g id="line2d_5">
      <path clip-path="url(#p096d20788c)" d="M 37.82 252.302397 
L 1141.2 252.302397 
" style="fill:none;stroke:#b0b0b0;stroke-linecap:square;stroke-width:0.8;"/>
     </g>
     <g id="line2d_6">
      <g>
       <use style="stroke:#000000;stroke-width:0.8;" x="37.82" xlink:href="#m08121fc7bd" y="252.302397"/>
      </g>
     </g>
     <g id="text_3">
      <!-- 2 -->
      <g transform="translate(24.4575 256.101616)scale(0.1 -0.1)">
       <defs>
        <path d="M 19.1875 8.296875 
L 53.609375 8.296875 
L 53.609375 0 
L 7.328125 0 
L 7.328125 8.296875 
Q 12.9375 14.109375 22.625 23.890625 
Q 32.328125 33.6875 34.8125 36.53125 
Q 39.546875 41.84375 41.421875 45.53125 
Q 43.3125 49.21875 43.3125 52.78125 
Q 43.3125 58.59375 39.234375 62.25 
Q 35.15625 65.921875 28.609375 65.921875 
Q 23.96875 65.921875 18.8125 64.3125 
Q 13.671875 62.703125 7.8125 59.421875 
L 7.8125 69.390625 
Q 13.765625 71.78125 18.9375 73 
Q 24.125 74.21875 28.421875 74.21875 
Q 39.75 74.21875 46.484375 68.546875 
Q 53.21875 62.890625 53.21875 53.421875 
Q 53.21875 48.921875 51.53125 44.890625 
Q 49.859375 40.875 45.40625 35.40625 
Q 44.1875 33.984375 37.640625 27.21875 
Q 31.109375 20.453125 19.1875 8.296875 
z
" id="DejaVuSans-50"/>
       </defs>
       <use xlink:href="#DejaVuSans-50"/>
      </g>
     </g>
    </g>
    <g id="ytick_4">
     <g id="line2d_7">
      <path clip-path="url(#p096d20788c)" d="M 37.82 202.383938 
L 1141.2 202.383938 
" style="fill:none;stroke:#b0b0b0;stroke-linecap:square;stroke-width:0.8;"/>
     </g>
     <g id="line2d_8">
      <g>
       <use style="stroke:#000000;stroke-width:0.8;" x="37.82" xlink:href="#m08121fc7bd" y="202.383938"/>
      </g>
     </g>
     <g id="text_4">
      <!-- 3 -->
      <g transform="translate(24.4575 206.183157)scale(0.1 -0.1)">
       <defs>
        <path d="M 40.578125 39.3125 
Q 47.65625 37.796875 51.625 33 
Q 55.609375 28.21875 55.609375 21.1875 
Q 55.609375 10.40625 48.1875 4.484375 
Q 40.765625 -1.421875 27.09375 -1.421875 
Q 22.515625 -1.421875 17.65625 -0.515625 
Q 12.796875 0.390625 7.625 2.203125 
L 7.625 11.71875 
Q 11.71875 9.328125 16.59375 8.109375 
Q 21.484375 6.890625 26.8125 6.890625 
Q 36.078125 6.890625 40.9375 10.546875 
Q 45.796875 14.203125 45.796875 21.1875 
Q 45.796875 27.640625 41.28125 31.265625 
Q 36.765625 34.90625 28.71875 34.90625 
L 20.21875 34.90625 
L 20.21875 43.015625 
L 29.109375 43.015625 
Q 36.375 43.015625 40.234375 45.921875 
Q 44.09375 48.828125 44.09375 54.296875 
Q 44.09375 59.90625 40.109375 62.90625 
Q 36.140625 65.921875 28.71875 65.921875 
Q 24.65625 65.921875 20.015625 65.03125 
Q 15.375 64.15625 9.8125 62.3125 
L 9.8125 71.09375 
Q 15.4375 72.65625 20.34375 73.4375 
Q 25.25 74.21875 29.59375 74.21875 
Q 40.828125 74.21875 47.359375 69.109375 
Q 53.90625 64.015625 53.90625 55.328125 
Q 53.90625 49.265625 50.4375 45.09375 
Q 46.96875 40.921875 40.578125 39.3125 
z
" id="DejaVuSans-51"/>
       </defs>
       <use xlink:href="#DejaVuSans-51"/>
      </g>
     </g>
    </g>
    <g id="ytick_5">
     <g id="line2d_9">
      <path clip-path="url(#p096d20788c)" d="M 37.82 152.465479 
L 1141.2 152.465479 
" style="fill:none;stroke:#b0b0b0;stroke-linecap:square;stroke-width:0.8;"/>
     </g>
     <g id="line2d_10">
      <g>
       <use style="stroke:#000000;stroke-width:0.8;" x="37.82" xlink:href="#m08121fc7bd" y="152.465479"/>
      </g>
     </g>
     <g id="text_5">
      <!-- 4 -->
      <g transform="translate(24.4575 156.264698)scale(0.1 -0.1)">
       <defs>
        <path d="M 37.796875 64.3125 
L 12.890625 25.390625 
L 37.796875 25.390625 
z
M 35.203125 72.90625 
L 47.609375 72.90625 
L 47.609375 25.390625 
L 58.015625 25.390625 
L 58.015625 17.1875 
L 47.609375 17.1875 
L 47.609375 0 
L 37.796875 0 
L 37.796875 17.1875 
L 4.890625 17.1875 
L 4.890625 26.703125 
z
" id="DejaVuSans-52"/>
       </defs>
       <use xlink:href="#DejaVuSans-52"/>
      </g>
     </g>
    </g>
    <g id="ytick_6">
     <g id="line2d_11">
      <path clip-path="url(#p096d20788c)" d="M 37.82 102.54702 
L 1141.2 102.54702 
" style="fill:none;stroke:#b0b0b0;stroke-linecap:square;stroke-width:0.8;"/>
     </g>
     <g id="line2d_12">
      <g>
       <use style="stroke:#000000;stroke-width:0.8;" x="37.82" xlink:href="#m08121fc7bd" y="102.54702"/>
      </g>
     </g>
     <g id="text_6">
      <!-- 5 -->
      <g transform="translate(24.4575 106.346239)scale(0.1 -0.1)">
       <defs>
        <path d="M 10.796875 72.90625 
L 49.515625 72.90625 
L 49.515625 64.59375 
L 19.828125 64.59375 
L 19.828125 46.734375 
Q 21.96875 47.46875 24.109375 47.828125 
Q 26.265625 48.1875 28.421875 48.1875 
Q 40.625 48.1875 47.75 41.5 
Q 54.890625 34.8125 54.890625 23.390625 
Q 54.890625 11.625 47.5625 5.09375 
Q 40.234375 -1.421875 26.90625 -1.421875 
Q 22.3125 -1.421875 17.546875 -0.640625 
Q 12.796875 0.140625 7.71875 1.703125 
L 7.71875 11.625 
Q 12.109375 9.234375 16.796875 8.0625 
Q 21.484375 6.890625 26.703125 6.890625 
Q 35.15625 6.890625 40.078125 11.328125 
Q 45.015625 15.765625 45.015625 23.390625 
Q 45.015625 31 40.078125 35.4375 
Q 35.15625 39.890625 26.703125 39.890625 
Q 22.75 39.890625 18.8125 39.015625 
Q 14.890625 38.140625 10.796875 36.28125 
z
" id="DejaVuSans-53"/>
       </defs>
       <use xlink:href="#DejaVuSans-53"/>
      </g>
     </g>
    </g>
    <g id="ytick_7">
     <g id="line2d_13">
      <path clip-path="url(#p096d20788c)" d="M 37.82 52.628561 
L 1141.2 52.628561 
" style="fill:none;stroke:#b0b0b0;stroke-linecap:square;stroke-width:0.8;"/>
     </g>
     <g id="line2d_14">
      <g>
       <use style="stroke:#000000;stroke-width:0.8;" x="37.82" xlink:href="#m08121fc7bd" y="52.628561"/>
      </g>
     </g>
     <g id="text_7">
      <!-- 6 -->
      <g transform="translate(24.4575 56.42778)scale(0.1 -0.1)">
       <defs>
        <path d="M 33.015625 40.375 
Q 26.375 40.375 22.484375 35.828125 
Q 18.609375 31.296875 18.609375 23.390625 
Q 18.609375 15.53125 22.484375 10.953125 
Q 26.375 6.390625 33.015625 6.390625 
Q 39.65625 6.390625 43.53125 10.953125 
Q 47.40625 15.53125 47.40625 23.390625 
Q 47.40625 31.296875 43.53125 35.828125 
Q 39.65625 40.375 33.015625 40.375 
z
M 52.59375 71.296875 
L 52.59375 62.3125 
Q 48.875 64.0625 45.09375 64.984375 
Q 41.3125 65.921875 37.59375 65.921875 
Q 27.828125 65.921875 22.671875 59.328125 
Q 17.53125 52.734375 16.796875 39.40625 
Q 19.671875 43.65625 24.015625 45.921875 
Q 28.375 48.1875 33.59375 48.1875 
Q 44.578125 48.1875 50.953125 41.515625 
Q 57.328125 34.859375 57.328125 23.390625 
Q 57.328125 12.15625 50.6875 5.359375 
Q 44.046875 -1.421875 33.015625 -1.421875 
Q 20.359375 -1.421875 13.671875 8.265625 
Q 6.984375 17.96875 6.984375 36.375 
Q 6.984375 53.65625 15.1875 63.9375 
Q 23.390625 74.21875 37.203125 74.21875 
Q 40.921875 74.21875 44.703125 73.484375 
Q 48.484375 72.75 52.59375 71.296875 
z
" id="DejaVuSans-54"/>
       </defs>
       <use xlink:href="#DejaVuSans-54"/>
      </g>
     </g>
    </g>
    <g id="text_8">
     <!-- net value -->
     <g transform="translate(18.377812 216.462344)rotate(-90)scale(0.1 -0.1)">
      <defs>
       <path d="M 54.890625 33.015625 
L 54.890625 0 
L 45.90625 0 
L 45.90625 32.71875 
Q 45.90625 40.484375 42.875 44.328125 
Q 39.84375 48.1875 33.796875 48.1875 
Q 26.515625 48.1875 22.3125 43.546875 
Q 18.109375 38.921875 18.109375 30.90625 
L 18.109375 0 
L 9.078125 0 
L 9.078125 54.6875 
L 18.109375 54.6875 
L 18.109375 46.1875 
Q 21.34375 51.125 25.703125 53.5625 
Q 30.078125 56 35.796875 56 
Q 45.21875 56 50.046875 50.171875 
Q 54.890625 44.34375 54.890625 33.015625 
z
" id="DejaVuSans-110"/>
       <path d="M 56.203125 29.59375 
L 56.203125 25.203125 
L 14.890625 25.203125 
Q 15.484375 15.921875 20.484375 11.0625 
Q 25.484375 6.203125 34.421875 6.203125 
Q 39.59375 6.203125 44.453125 7.46875 
Q 49.3125 8.734375 54.109375 11.28125 
L 54.109375 2.78125 
Q 49.265625 0.734375 44.1875 -0.34375 
Q 39.109375 -1.421875 33.890625 -1.421875 
Q 20.796875 -1.421875 13.15625 6.1875 
Q 5.515625 13.8125 5.515625 26.8125 
Q 5.515625 40.234375 12.765625 48.109375 
Q 20.015625 56 32.328125 56 
Q 43.359375 56 49.78125 48.890625 
Q 56.203125 41.796875 56.203125 29.59375 
z
M 47.21875 32.234375 
Q 47.125 39.59375 43.09375 43.984375 
Q 39.0625 48.390625 32.421875 48.390625 
Q 24.90625 48.390625 20.390625 44.140625 
Q 15.875 39.890625 15.1875 32.171875 
z
" id="DejaVuSans-101"/>
       <path d="M 18.3125 70.21875 
L 18.3125 54.6875 
L 36.8125 54.6875 
L 36.8125 47.703125 
L 18.3125 47.703125 
L 18.3125 18.015625 
Q 18.3125 11.328125 20.140625 9.421875 
Q 21.96875 7.515625 27.59375 7.515625 
L 36.8125 7.515625 
L 36.8125 0 
L 27.59375 0 
Q 17.1875 0 13.234375 3.875 
Q 9.28125 7.765625 9.28125 18.015625 
L 9.28125 47.703125 
L 2.6875 47.703125 
L 2.6875 54.6875 
L 9.28125 54.6875 
L 9.28125 70.21875 
z
" id="DejaVuSans-116"/>
       <path id="DejaVuSans-32"/>
       <path d="M 2.984375 54.6875 
L 12.5 54.6875 
L 29.59375 8.796875 
L 46.6875 54.6875 
L 56.203125 54.6875 
L 35.6875 0 
L 23.484375 0 
z
" id="DejaVuSans-118"/>
       <path d="M 34.28125 27.484375 
Q 23.390625 27.484375 19.1875 25 
Q 14.984375 22.515625 14.984375 16.5 
Q 14.984375 11.71875 18.140625 8.90625 
Q 21.296875 6.109375 26.703125 6.109375 
Q 34.1875 6.109375 38.703125 11.40625 
Q 43.21875 16.703125 43.21875 25.484375 
L 43.21875 27.484375 
z
M 52.203125 31.203125 
L 52.203125 0 
L 43.21875 0 
L 43.21875 8.296875 
Q 40.140625 3.328125 35.546875 0.953125 
Q 30.953125 -1.421875 24.3125 -1.421875 
Q 15.921875 -1.421875 10.953125 3.296875 
Q 6 8.015625 6 15.921875 
Q 6 25.140625 12.171875 29.828125 
Q 18.359375 34.515625 30.609375 34.515625 
L 43.21875 34.515625 
L 43.21875 35.40625 
Q 43.21875 41.609375 39.140625 45 
Q 35.0625 48.390625 27.6875 48.390625 
Q 23 48.390625 18.546875 47.265625 
Q 14.109375 46.140625 10.015625 43.890625 
L 10.015625 52.203125 
Q 14.9375 54.109375 19.578125 55.046875 
Q 24.21875 56 28.609375 56 
Q 40.484375 56 46.34375 49.84375 
Q 52.203125 43.703125 52.203125 31.203125 
z
" id="DejaVuSans-97"/>
       <path d="M 9.421875 75.984375 
L 18.40625 75.984375 
L 18.40625 0 
L 9.421875 0 
z
" id="DejaVuSans-108"/>
       <path d="M 8.5 21.578125 
L 8.5 54.6875 
L 17.484375 54.6875 
L 17.484375 21.921875 
Q 17.484375 14.15625 20.5 10.265625 
Q 23.53125 6.390625 29.59375 6.390625 
Q 36.859375 6.390625 41.078125 11.03125 
Q 45.3125 15.671875 45.3125 23.6875 
L 45.3125 54.6875 
L 54.296875 54.6875 
L 54.296875 0 
L 45.3125 0 
L 45.3125 8.40625 
Q 42.046875 3.421875 37.71875 1 
Q 33.40625 -1.421875 27.6875 -1.421875 
Q 18.265625 -1.421875 13.375 4.4375 
Q 8.5 10.296875 8.5 21.578125 
z
M 31.109375 56 
z
" id="DejaVuSans-117"/>
      </defs>
      <use xlink:href="#DejaVuSans-110"/>
      <use x="63.378906" xlink:href="#DejaVuSans-101"/>
      <use x="124.902344" xlink:href="#DejaVuSans-116"/>
      <use x="164.111328" xlink:href="#DejaVuSans-32"/>
      <use x="195.898438" xlink:href="#DejaVuSans-118"/>
      <use x="255.078125" xlink:href="#DejaVuSans-97"/>
      <use x="316.357422" xlink:href="#DejaVuSans-108"/>
      <use x="344.140625" xlink:href="#DejaVuSans-117"/>
      <use x="407.519531" xlink:href="#DejaVuSans-101"/>
     </g>
    </g>
   </g>
   <g id="line2d_15">
    <path clip-path="url(#p096d20788c)" d="M 87.973636 305.692985 
L 92.018284 305.673789 
L 96.062933 305.226017 
L 100.107581 306.10324 
L 112.241525 309.854467 
L 116.286173 312.526098 
L 120.330821 313.125723 
L 124.375469 314.467182 
L 128.420117 312.301934 
L 140.554062 311.700128 
L 144.59871 309.99955 
L 148.643358 310.115263 
L 152.688006 309.915157 
L 156.732654 310.647188 
L 168.866598 311.577145 
L 172.911246 308.285657 
L 176.955894 305.645688 
L 181.000543 305.275749 
L 185.045191 309.349946 
L 197.179135 311.446015 
L 201.223783 311.453495 
L 205.268431 311.760638 
L 209.313079 313.467712 
L 213.357727 314.359643 
L 225.491672 313.6201 
L 233.580968 310.237098 
L 237.625616 309.626941 
L 241.670264 308.657639 
L 253.804208 312.139959 
L 257.848856 310.530236 
L 261.893504 311.278861 
L 265.938152 308.297682 
L 269.982801 308.402553 
L 282.116745 309.132267 
L 286.161393 307.659564 
L 290.206041 309.582273 
L 294.250689 308.393168 
L 298.295337 306.517148 
L 310.429282 305.135258 
L 314.47393 306.441105 
L 318.518578 308.752441 
L 322.563226 306.497792 
L 326.607874 305.561071 
L 338.741818 303.760227 
L 342.786466 302.295295 
L 346.831114 303.470103 
L 350.875762 304.33512 
L 354.920411 305.840942 
L 367.054355 307.739363 
L 371.099003 307.075981 
L 375.143651 308.923555 
L 379.188299 307.96747 
L 383.232947 309.462328 
L 395.366891 310.752352 
L 399.41154 312.903047 
L 403.456188 312.432665 
L 407.500836 311.289018 
L 411.545484 313.405892 
L 423.679428 314.974191 
L 427.724076 313.338532 
L 431.768724 314.217844 
L 435.813372 314.489528 
L 439.858021 315.700692 
L 451.991965 312.55682 
L 456.036613 312.137979 
L 460.081261 314.311205 
L 464.125909 314.528358 
L 468.170557 314.270562 
L 480.304501 316.538911 
L 484.34915 317.828629 
L 488.393798 315.988345 
L 492.438446 317.549454 
L 496.483094 317.794536 
L 508.617038 318.090476 
L 512.661686 318.698606 
L 516.706334 317.372258 
L 520.750982 317.053726 
L 524.79563 316.409575 
L 536.929575 316.422732 
L 540.974223 314.498026 
L 545.018871 314.313639 
L 549.063519 315.188907 
L 553.108167 317.026715 
L 565.242111 318.214491 
L 569.28676 317.359233 
L 573.331408 315.598067 
L 577.376056 317.544686 
L 581.420704 316.522359 
L 593.554648 317.43327 
L 597.599296 315.373378 
L 601.643944 312.028575 
L 605.688592 310.588059 
L 609.73324 311.723949 
L 621.867185 315.697282 
L 625.911833 317.661719 
L 629.956481 317.215008 
L 634.001129 314.931376 
L 638.045777 314.331772 
L 650.179721 315.372015 
L 654.22437 313.332306 
L 658.269018 313.255083 
L 666.358314 317.75078 
L 678.492258 316.694801 
L 682.536906 317.733954 
L 686.581554 316.274021 
L 690.626202 314.647264 
L 694.67085 315.006622 
L 706.804795 315.090604 
L 710.849443 313.293589 
L 714.894091 314.389231 
L 718.938739 312.283671 
L 722.983387 313.036702 
L 735.117331 311.927685 
L 739.161979 309.666205 
L 743.206628 313.25605 
L 747.251276 311.260764 
L 751.295924 311.073819 
L 767.474516 311.683455 
L 771.519164 312.90669 
L 775.563812 312.290119 
L 779.60846 311.876997 
L 791.742405 310.874908 
L 795.787053 312.523937 
L 799.831701 311.917668 
L 803.876349 311.573468 
L 807.920997 312.363007 
L 820.054941 313.175483 
L 828.144238 317.70077 
L 832.188886 318.291719 
L 836.233534 316.872511 
L 848.367478 314.360543 
L 852.412126 312.241445 
L 856.456774 310.98025 
L 860.501422 308.516648 
L 864.54607 307.35516 
L 876.680015 308.254158 
L 880.724663 305.547039 
L 884.769311 305.403016 
L 888.813959 305.741849 
L 892.858607 303.519222 
L 904.992551 302.388981 
L 909.037199 301.771487 
L 913.081848 297.70008 
L 917.126496 296.883369 
L 921.171144 295.717735 
L 933.305088 295.279785 
L 937.349736 296.359058 
L 941.394384 300.246181 
L 945.439032 302.153485 
L 949.48368 303.316884 
L 961.617625 303.387508 
L 965.662273 302.335515 
L 969.706921 303.740261 
L 973.751569 302.901022 
L 977.796217 302.501679 
L 989.930161 301.513981 
L 993.974809 300.9565 
L 998.019457 304.269322 
L 1002.064106 301.395159 
L 1006.108754 302.718391 
L 1018.242698 299.915376 
L 1022.287346 298.512144 
L 1026.331994 300.411415 
L 1030.376642 298.052652 
L 1034.42129 300.614538 
L 1046.555235 298.926069 
L 1050.599883 298.061428 
L 1054.644531 299.060819 
L 1058.689179 295.564864 
L 1062.733827 298.780699 
L 1074.867771 298.844579 
L 1078.912419 296.196896 
L 1082.957067 295.005069 
L 1087.001716 292.409413 
L 1091.046364 288.912219 
L 1091.046364 288.912219 
" style="fill:none;stroke:#1f77b4;stroke-linecap:square;stroke-width:1.5;"/>
   </g>
   <g id="line2d_16">
    <path clip-path="url(#p096d20788c)" d="M 87.973636 302.107102 
L 92.018284 301.304769 
L 96.062933 298.701058 
L 100.107581 298.96909 
L 112.241525 294.57588 
L 116.286173 294.577162 
L 120.330821 291.374522 
L 124.375469 289.892233 
L 128.420117 295.565956 
L 140.554062 296.816059 
L 144.59871 295.730054 
L 148.643358 297.620937 
L 152.688006 297.306519 
L 156.732654 298.012433 
L 168.866598 295.511967 
L 172.911246 294.199181 
L 176.955894 297.285161 
L 181.000543 298.924182 
L 185.045191 300.927295 
L 197.179135 298.883464 
L 201.223783 300.786465 
L 205.268431 300.567385 
L 209.313079 296.678939 
L 213.357727 293.989058 
L 225.491672 290.68709 
L 229.53632 291.717233 
L 233.580968 290.493764 
L 237.625616 295.312779 
L 241.670264 295.936478 
L 253.804208 296.664747 
L 257.848856 299.682501 
L 261.893504 299.325428 
L 265.938152 299.468701 
L 269.982801 299.077899 
L 282.116745 299.658189 
L 286.161393 298.283894 
L 290.206041 298.40743 
L 294.250689 298.817969 
L 298.295337 297.965054 
L 310.429282 294.609867 
L 314.47393 297.825187 
L 318.518578 294.629519 
L 322.563226 295.135203 
L 326.607874 293.115321 
L 338.741818 287.521973 
L 342.786466 286.520468 
L 346.831114 283.714967 
L 350.875762 278.804128 
L 354.920411 279.002331 
L 367.054355 279.481974 
L 371.099003 274.750281 
L 375.143651 274.247452 
L 379.188299 275.844816 
L 383.232947 279.486906 
L 395.366891 278.91555 
L 399.41154 276.105759 
L 403.456188 273.707122 
L 407.500836 277.288916 
L 411.545484 281.976652 
L 423.679428 284.390207 
L 427.724076 279.142874 
L 431.768724 279.648185 
L 435.813372 285.022859 
L 439.858021 282.341828 
L 451.991965 280.218382 
L 456.036613 284.01195 
L 460.081261 284.683593 
L 464.125909 284.102037 
L 468.170557 283.231931 
L 480.304501 281.634488 
L 484.34915 284.94962 
L 492.438446 281.668587 
L 496.483094 277.624841 
L 508.617038 275.695483 
L 512.661686 273.849591 
L 516.706334 269.916492 
L 520.750982 269.923663 
L 524.79563 270.578096 
L 540.974223 270.278975 
L 545.018871 275.176157 
L 549.063519 280.738407 
L 553.108167 280.360452 
L 565.242111 282.350349 
L 569.28676 281.70208 
L 573.331408 278.000648 
L 577.376056 281.345343 
L 581.420704 284.892023 
L 593.554648 289.255361 
L 597.599296 290.51612 
L 601.643944 294.660196 
L 605.688592 293.710034 
L 609.73324 294.650692 
L 621.867185 292.055669 
L 625.911833 286.51238 
L 629.956481 283.478529 
L 634.001129 281.886767 
L 638.045777 283.441427 
L 650.179721 284.943538 
L 654.22437 279.477434 
L 658.269018 278.331688 
L 662.313666 281.282634 
L 666.358314 282.414772 
L 678.492258 285.29272 
L 682.536906 286.099305 
L 686.581554 282.301581 
L 690.626202 281.136235 
L 694.67085 275.228508 
L 706.804795 276.323712 
L 710.849443 269.006082 
L 714.894091 274.956909 
L 718.938739 279.280481 
L 722.983387 276.878919 
L 735.117331 276.611591 
L 739.161979 280.901705 
L 743.206628 279.780725 
L 747.251276 277.557846 
L 751.295924 276.886124 
L 763.429868 281.025379 
L 767.474516 287.777277 
L 771.519164 284.206831 
L 775.563812 282.521193 
L 779.60846 284.860783 
L 791.742405 284.804666 
L 795.787053 279.908835 
L 799.831701 280.215562 
L 803.876349 281.374776 
L 807.920997 284.585251 
L 824.099589 289.837163 
L 828.144238 290.694841 
L 832.188886 288.048761 
L 836.233534 285.962725 
L 848.367478 284.348362 
L 852.412126 287.442699 
L 856.456774 289.862179 
L 860.501422 292.673479 
L 864.54607 290.993375 
L 876.680015 294.354663 
L 880.724663 293.187232 
L 884.769311 293.170929 
L 888.813959 295.536822 
L 892.858607 291.828785 
L 904.992551 294.002658 
L 909.037199 294.551669 
L 913.081848 291.729603 
L 917.126496 290.99736 
L 921.171144 289.409127 
L 933.305088 290.661224 
L 937.349736 291.567532 
L 941.394384 292.125713 
L 945.439032 292.560021 
L 949.48368 296.4451 
L 961.617625 296.196935 
L 965.662273 295.787514 
L 969.706921 291.961375 
L 973.751569 292.100552 
L 977.796217 288.387163 
L 989.930161 292.863261 
L 993.974809 293.187831 
L 998.019457 296.10987 
L 1002.064106 296.872834 
L 1006.108754 295.156925 
L 1018.242698 298.295214 
L 1022.287346 297.715616 
L 1026.331994 293.767057 
L 1030.376642 293.885788 
L 1034.42129 291.328143 
L 1046.555235 288.629791 
L 1050.599883 288.664809 
L 1054.644531 289.23971 
L 1058.689179 291.22787 
L 1062.733827 293.075662 
L 1074.867771 293.4761 
L 1078.912419 297.210969 
L 1082.957067 301.340717 
L 1087.001716 297.994422 
L 1091.046364 295.530011 
L 1091.046364 295.530011 
" style="fill:none;stroke:#ff7f0e;stroke-linecap:square;stroke-width:1.5;"/>
   </g>
   <g id="line2d_17">
    <path clip-path="url(#p096d20788c)" d="M 87.973636 302.115221 
L 92.018284 300.763572 
L 96.062933 296.574162 
L 100.107581 298.1925 
L 112.241525 297.918942 
L 116.286173 295.514073 
L 120.330821 296.842822 
L 124.375469 298.818656 
L 128.420117 300.028265 
L 140.554062 301.868899 
L 144.59871 301.837231 
L 148.643358 304.507256 
L 152.688006 307.768299 
L 156.732654 306.294417 
L 168.866598 303.913371 
L 172.911246 300.211105 
L 176.955894 302.990378 
L 181.000543 302.763305 
L 185.045191 307.044616 
L 197.179135 308.682045 
L 201.223783 309.626169 
L 205.268431 311.891816 
L 209.313079 312.922036 
L 213.357727 314.807232 
L 225.491672 315.075475 
L 229.53632 312.356651 
L 233.580968 312.247167 
L 237.625616 313.770678 
L 241.670264 316.313045 
L 253.804208 317.452367 
L 257.848856 315.753679 
L 261.893504 315.38153 
L 265.938152 314.572685 
L 269.982801 313.338546 
L 282.116745 314.913837 
L 286.161393 312.169548 
L 290.206041 312.887175 
L 294.250689 313.149928 
L 298.295337 312.520995 
L 310.429282 314.714559 
L 314.47393 312.935809 
L 318.518578 313.874161 
L 322.563226 314.174343 
L 326.607874 313.714168 
L 338.741818 311.427316 
L 342.786466 308.173101 
L 346.831114 311.689441 
L 350.875762 311.04316 
L 354.920411 313.412509 
L 367.054355 310.862525 
L 375.143651 312.232045 
L 379.188299 313.304801 
L 383.232947 312.988462 
L 395.366891 312.971813 
L 399.41154 313.249973 
L 403.456188 314.444726 
L 407.500836 314.869654 
L 411.545484 314.822983 
L 423.679428 313.579835 
L 427.724076 313.820519 
L 431.768724 314.808759 
L 435.813372 314.647936 
L 439.858021 313.085362 
L 451.991965 313.456711 
L 456.036613 315.525798 
L 460.081261 314.744271 
L 464.125909 315.456212 
L 468.170557 315.229134 
L 480.304501 316.756997 
L 484.34915 316.443896 
L 488.393798 316.839333 
L 492.438446 316.33424 
L 496.483094 317.584985 
L 512.661686 320.325912 
L 520.750982 317.061265 
L 524.79563 318.99146 
L 536.929575 319.951886 
L 540.974223 320.705264 
L 545.018871 322.403115 
L 549.063519 322.140084 
L 553.108167 322.149305 
L 565.242111 321.602706 
L 569.28676 322.06338 
L 573.331408 319.919866 
L 577.376056 318.631575 
L 581.420704 319.995531 
L 593.554648 320.015026 
L 597.599296 319.778214 
L 601.643944 320.3732 
L 605.688592 321.704287 
L 609.73324 323.237034 
L 621.867185 323.953225 
L 625.911833 326.464702 
L 629.956481 326.421147 
L 638.045777 325.807408 
L 654.22437 328.626815 
L 658.269018 328.453658 
L 666.358314 327.726012 
L 678.492258 327.051726 
L 682.536906 327.480128 
L 686.581554 327.280421 
L 690.626202 328.147221 
L 694.67085 326.531982 
L 706.804795 327.675451 
L 710.849443 329.218786 
L 718.938739 330.231306 
L 722.983387 330.273309 
L 735.117331 329.038562 
L 739.161979 328.422438 
L 743.206628 328.029466 
L 747.251276 327.322509 
L 751.295924 325.425113 
L 763.429868 323.155334 
L 767.474516 323.100146 
L 771.519164 322.183797 
L 775.563812 323.617231 
L 779.60846 325.257107 
L 791.742405 324.529625 
L 795.787053 325.7758 
L 799.831701 325.742487 
L 803.876349 324.251899 
L 807.920997 326.622324 
L 820.054941 327.192555 
L 824.099589 326.975609 
L 828.144238 326.066374 
L 832.188886 325.721662 
L 836.233534 324.718117 
L 848.367478 325.722454 
L 852.412126 326.866908 
L 856.456774 327.226232 
L 860.501422 328.604361 
L 864.54607 329.081136 
L 880.724663 328.712305 
L 884.769311 327.646935 
L 888.813959 327.314105 
L 892.858607 327.5835 
L 904.992551 328.990478 
L 909.037199 330.662219 
L 917.126496 329.79993 
L 921.171144 330.226236 
L 933.305088 330.264374 
L 937.349736 328.775658 
L 941.394384 329.234848 
L 945.439032 329.232689 
L 949.48368 328.37588 
L 961.617625 328.363474 
L 965.662273 328.491747 
L 969.706921 328.971711 
L 973.751569 329.999102 
L 977.796217 330.69185 
L 989.930161 331.851281 
L 993.974809 332.900541 
L 998.019457 333.682281 
L 1002.064106 333.915021 
L 1006.108754 333.570552 
L 1018.242698 332.339402 
L 1026.331994 333.802792 
L 1030.376642 332.619664 
L 1034.42129 332.941038 
L 1046.555235 332.995569 
L 1054.644531 331.624735 
L 1058.689179 332.143091 
L 1062.733827 332.062665 
L 1074.867771 331.503211 
L 1078.912419 332.85907 
L 1082.957067 333.061654 
L 1087.001716 332.084853 
L 1091.046364 331.927492 
L 1091.046364 331.927492 
" style="fill:none;stroke:#2ca02c;stroke-linecap:square;stroke-width:1.5;"/>
   </g>
   <g id="line2d_18">
    <path clip-path="url(#p096d20788c)" d="M 87.973636 299.162726 
L 92.018284 302.222501 
L 96.062933 300.705534 
L 100.107581 301.866301 
L 112.241525 298.880396 
L 116.286173 303.092462 
L 120.330821 304.052589 
L 124.375469 303.433922 
L 128.420117 305.65965 
L 140.554062 302.622589 
L 144.59871 303.051193 
L 148.643358 304.256019 
L 152.688006 302.364895 
L 156.732654 301.911493 
L 168.866598 305.605534 
L 172.911246 303.968117 
L 176.955894 304.582335 
L 181.000543 303.860416 
L 185.045191 302.588481 
L 197.179135 302.509457 
L 201.223783 303.915348 
L 205.268431 304.211139 
L 209.313079 306.8951 
L 213.357727 305.41652 
L 225.491672 307.073119 
L 229.53632 307.769068 
L 233.580968 304.374066 
L 237.625616 304.368499 
L 241.670264 305.042313 
L 253.804208 309.621826 
L 257.848856 309.452097 
L 261.893504 311.482639 
L 265.938152 310.29473 
L 269.982801 312.968248 
L 282.116745 314.631996 
L 286.161393 312.951641 
L 290.206041 313.095321 
L 294.250689 314.319006 
L 298.295337 316.8343 
L 310.429282 317.132797 
L 314.47393 317.499781 
L 318.518578 318.619829 
L 322.563226 319.552069 
L 326.607874 321.735645 
L 338.741818 320.438106 
L 342.786466 322.175305 
L 346.831114 324.340403 
L 350.875762 323.381212 
L 354.920411 324.045697 
L 367.054355 325.635005 
L 371.099003 323.803208 
L 375.143651 323.763292 
L 379.188299 322.94708 
L 383.232947 321.662721 
L 395.366891 320.900931 
L 399.41154 320.131396 
L 403.456188 321.965426 
L 407.500836 323.319523 
L 411.545484 324.921354 
L 423.679428 325.787966 
L 427.724076 324.726146 
L 431.768724 324.662899 
L 435.813372 323.720418 
L 439.858021 325.881223 
L 451.991965 325.311688 
L 456.036613 324.229867 
L 460.081261 326.52392 
L 468.170557 325.417659 
L 480.304501 325.860972 
L 484.34915 326.139096 
L 488.393798 327.142425 
L 492.438446 326.844538 
L 496.483094 325.722837 
L 508.617038 323.364448 
L 516.706334 325.290543 
L 520.750982 325.325834 
L 524.79563 324.314466 
L 536.929575 323.118062 
L 540.974223 322.033375 
L 545.018871 321.145745 
L 549.063519 322.064891 
L 553.108167 323.4813 
L 565.242111 324.516996 
L 569.28676 324.059753 
L 573.331408 322.847679 
L 577.376056 323.181308 
L 581.420704 323.753484 
L 593.554648 325.143229 
L 597.599296 324.456137 
L 601.643944 324.556113 
L 605.688592 325.492681 
L 609.73324 325.188781 
L 621.867185 326.354661 
L 629.956481 326.43521 
L 634.001129 328.664976 
L 638.045777 327.271909 
L 650.179721 328.007552 
L 654.22437 326.506388 
L 658.269018 326.728178 
L 662.313666 328.014975 
L 666.358314 326.187436 
L 678.492258 328.472523 
L 682.536906 326.871352 
L 686.581554 327.971336 
L 690.626202 328.112472 
L 694.67085 328.137623 
L 706.804795 328.676366 
L 710.849443 327.023353 
L 714.894091 328.580027 
L 718.938739 327.815544 
L 722.983387 326.914709 
L 739.161979 325.727579 
L 743.206628 326.738063 
L 747.251276 328.872215 
L 751.295924 329.230448 
L 763.429868 328.033615 
L 767.474516 326.372456 
L 771.519164 326.195309 
L 775.563812 324.969894 
L 779.60846 325.87816 
L 791.742405 325.174949 
L 795.787053 325.530674 
L 799.831701 325.417443 
L 803.876349 323.858153 
L 807.920997 321.299994 
L 820.054941 322.084716 
L 824.099589 321.352917 
L 828.144238 320.229474 
L 832.188886 320.262237 
L 836.233534 320.736157 
L 848.367478 319.01044 
L 852.412126 317.778235 
L 856.456774 317.151022 
L 860.501422 319.632673 
L 864.54607 318.848305 
L 876.680015 316.287761 
L 880.724663 314.538709 
L 884.769311 313.838447 
L 888.813959 312.17791 
L 892.858607 310.888062 
L 904.992551 312.207251 
L 909.037199 310.158839 
L 913.081848 313.61888 
L 917.126496 314.403414 
L 921.171144 314.501858 
L 933.305088 312.728084 
L 937.349736 310.258352 
L 941.394384 311.331015 
L 945.439032 308.187475 
L 949.48368 307.631357 
L 961.617625 307.790558 
L 965.662273 304.511274 
L 969.706921 306.481128 
L 973.751569 307.018071 
L 977.796217 307.715044 
L 989.930161 307.539734 
L 993.974809 308.129526 
L 998.019457 307.159274 
L 1002.064106 307.837507 
L 1006.108754 307.450457 
L 1018.242698 307.619173 
L 1022.287346 309.771368 
L 1026.331994 310.151948 
L 1030.376642 309.382478 
L 1034.42129 313.465402 
L 1046.555235 311.794656 
L 1050.599883 308.944896 
L 1054.644531 308.254853 
L 1058.689179 306.199144 
L 1062.733827 305.536571 
L 1074.867771 307.676283 
L 1078.912419 308.011395 
L 1082.957067 307.434304 
L 1087.001716 309.248053 
L 1091.046364 308.243189 
L 1091.046364 308.243189 
" style="fill:none;stroke:#d62728;stroke-linecap:square;stroke-width:1.5;"/>
   </g>
   <g id="line2d_19">
    <path clip-path="url(#p096d20788c)" d="M 87.973636 301.412072 
L 96.062933 300.48907 
L 100.107581 299.246462 
L 112.241525 298.23098 
L 116.286173 299.329353 
L 120.330821 297.401509 
L 124.375469 301.520486 
L 128.420117 300.436905 
L 140.554062 301.443995 
L 144.59871 297.272522 
L 148.643358 300.049767 
L 152.688006 303.884666 
L 156.732654 299.524666 
L 168.866598 303.932731 
L 172.911246 301.551143 
L 176.955894 299.85086 
L 181.000543 299.297951 
L 185.045191 296.677708 
L 197.179135 296.636124 
L 201.223783 299.822879 
L 205.268431 297.946855 
L 209.313079 299.027941 
L 213.357727 301.863131 
L 225.491672 297.800629 
L 229.53632 298.862144 
L 233.580968 298.259627 
L 237.625616 301.656404 
L 241.670264 299.120282 
L 253.804208 302.637325 
L 257.848856 300.556454 
L 265.938152 298.254113 
L 269.982801 294.691447 
L 282.116745 293.998252 
L 286.161393 288.522825 
L 290.206041 287.165625 
L 294.250689 288.889978 
L 298.295337 291.595808 
L 310.429282 291.446154 
L 314.47393 295.294846 
L 318.518578 295.189401 
L 322.563226 294.330442 
L 326.607874 295.85034 
L 338.741818 295.721718 
L 342.786466 298.284272 
L 346.831114 300.41494 
L 350.875762 299.352224 
L 354.920411 300.098636 
L 367.054355 298.184838 
L 375.143651 298.194 
L 379.188299 293.58727 
L 383.232947 295.454081 
L 395.366891 296.610523 
L 399.41154 298.142686 
L 403.456188 298.452427 
L 407.500836 298.17142 
L 411.545484 302.782888 
L 423.679428 302.136714 
L 427.724076 301.60172 
L 431.768724 305.253662 
L 435.813372 303.048882 
L 439.858021 305.192127 
L 451.991965 301.610326 
L 456.036613 298.480185 
L 460.081261 300.924979 
L 464.125909 302.373482 
L 468.170557 299.021412 
L 480.304501 297.575859 
L 488.393798 297.862162 
L 492.438446 298.497564 
L 496.483094 301.217807 
L 508.617038 299.344521 
L 512.661686 295.88844 
L 516.706334 296.092399 
L 520.750982 297.110747 
L 524.79563 301.015254 
L 540.974223 300.573156 
L 545.018871 300.077727 
L 549.063519 297.274591 
L 553.108167 293.206439 
L 565.242111 293.703486 
L 569.28676 294.246616 
L 573.331408 294.106909 
L 577.376056 294.32719 
L 581.420704 292.581989 
L 597.599296 289.859817 
L 601.643944 292.193399 
L 605.688592 289.613152 
L 609.73324 287.923397 
L 621.867185 287.868315 
L 625.911833 286.787797 
L 629.956481 283.726141 
L 634.001129 282.530676 
L 638.045777 283.123539 
L 650.179721 278.136488 
L 654.22437 280.30182 
L 658.269018 279.301798 
L 662.313666 278.6735 
L 666.358314 280.134735 
L 678.492258 274.780065 
L 682.536906 275.309527 
L 686.581554 269.252099 
L 690.626202 273.757679 
L 694.67085 273.777912 
L 706.804795 271.106165 
L 710.849443 273.028898 
L 714.894091 279.768436 
L 718.938739 277.404426 
L 722.983387 272.918348 
L 735.117331 268.703155 
L 739.161979 265.68746 
L 743.206628 271.199563 
L 747.251276 270.120697 
L 751.295924 264.638245 
L 763.429868 257.909582 
L 767.474516 258.139878 
L 771.519164 262.72274 
L 775.563812 261.556725 
L 779.60846 257.529778 
L 791.742405 253.405794 
L 795.787053 258.336938 
L 799.831701 263.531017 
L 803.876349 257.90867 
L 807.920997 254.260817 
L 820.054941 259.616371 
L 824.099589 261.179298 
L 828.144238 257.679268 
L 832.188886 258.452001 
L 836.233534 255.944049 
L 848.367478 251.848676 
L 852.412126 250.942551 
L 856.456774 251.058056 
L 860.501422 252.251004 
L 864.54607 243.130003 
L 876.680015 242.157737 
L 880.724663 239.800367 
L 884.769311 236.805583 
L 888.813959 238.695439 
L 892.858607 238.716965 
L 904.992551 239.832392 
L 909.037199 243.800272 
L 913.081848 234.012629 
L 917.126496 233.169563 
L 921.171144 226.146113 
L 933.305088 235.043165 
L 937.349736 227.737465 
L 941.394384 221.85266 
L 945.439032 223.511927 
L 949.48368 215.470711 
L 961.617625 225.65923 
L 965.662273 232.578602 
L 969.706921 229.126917 
L 973.751569 227.456511 
L 977.796217 224.389999 
L 989.930161 224.339184 
L 993.974809 228.524657 
L 998.019457 230.604029 
L 1002.064106 237.124421 
L 1018.242698 236.5902 
L 1022.287346 236.87311 
L 1026.331994 238.762186 
L 1030.376642 238.011441 
L 1034.42129 232.950168 
L 1046.555235 225.854243 
L 1050.599883 230.923389 
L 1054.644531 230.418227 
L 1058.689179 234.185879 
L 1062.733827 233.549638 
L 1074.867771 227.674408 
L 1078.912419 229.427142 
L 1082.957067 231.054245 
L 1087.001716 234.871673 
L 1091.046364 227.927774 
L 1091.046364 227.927774 
" style="fill:none;stroke:#9467bd;stroke-linecap:square;stroke-width:1.5;"/>
   </g>
   <g id="line2d_20">
    <path clip-path="url(#p096d20788c)" d="M 87.973636 298.901851 
L 100.107581 308.13242 
L 112.241525 309.855359 
L 116.286173 309.645999 
L 120.330821 310.224375 
L 124.375469 311.974499 
L 128.420117 311.075988 
L 140.554062 314.036705 
L 144.59871 315.620671 
L 148.643358 316.596728 
L 152.688006 316.909005 
L 156.732654 314.899638 
L 168.866598 317.136448 
L 172.911246 317.036799 
L 176.955894 316.388002 
L 181.000543 319.631001 
L 185.045191 318.93178 
L 197.179135 321.119997 
L 201.223783 323.818357 
L 205.268431 321.275784 
L 209.313079 318.401574 
L 213.357727 316.320648 
L 225.491672 317.720343 
L 229.53632 320.489885 
L 233.580968 319.323711 
L 237.625616 319.716497 
L 241.670264 322.167415 
L 253.804208 322.196326 
L 257.848856 324.984686 
L 261.893504 322.761697 
L 265.938152 324.178991 
L 269.982801 323.270156 
L 282.116745 324.357304 
L 286.161393 324.245799 
L 290.206041 323.985216 
L 294.250689 325.759744 
L 298.295337 323.282255 
L 310.429282 321.69435 
L 318.518578 316.402823 
L 322.563226 315.703103 
L 326.607874 312.628803 
L 338.741818 315.880578 
L 342.786466 318.085233 
L 346.831114 321.182607 
L 350.875762 322.264046 
L 354.920411 322.929205 
L 367.054355 324.264989 
L 371.099003 322.432322 
L 375.143651 323.283408 
L 379.188299 324.547674 
L 383.232947 324.312063 
L 395.366891 326.310482 
L 399.41154 324.749403 
L 403.456188 327.080007 
L 407.500836 324.639797 
L 411.545484 323.142477 
L 423.679428 324.889735 
L 427.724076 327.584598 
L 431.768724 326.035385 
L 435.813372 324.955427 
L 439.858021 323.710366 
L 451.991965 322.16798 
L 456.036613 324.72127 
L 460.081261 325.497389 
L 464.125909 327.544186 
L 468.170557 325.758071 
L 480.304501 325.10752 
L 484.34915 326.021746 
L 488.393798 328.301505 
L 496.483094 330.0046 
L 508.617038 328.988147 
L 512.661686 328.351224 
L 516.706334 326.509013 
L 520.750982 326.651441 
L 524.79563 328.590588 
L 536.929575 327.586259 
L 540.974223 326.305645 
L 545.018871 325.989042 
L 549.063519 324.571869 
L 553.108167 324.606077 
L 565.242111 324.480895 
L 569.28676 324.881715 
L 573.331408 327.468903 
L 577.376056 329.403599 
L 581.420704 331.534257 
L 593.554648 330.972108 
L 597.599296 331.758021 
L 601.643944 331.723085 
L 605.688592 330.058891 
L 609.73324 331.166038 
L 621.867185 331.54195 
L 625.911833 330.489214 
L 629.956481 331.663524 
L 634.001129 333.395858 
L 638.045777 334.184015 
L 650.179721 335.40059 
L 654.22437 333.962071 
L 658.269018 332.841916 
L 662.313666 332.327047 
L 666.358314 330.855151 
L 678.492258 329.56247 
L 682.536906 330.977722 
L 686.581554 329.316287 
L 690.626202 329.136705 
L 694.67085 327.72232 
L 706.804795 325.788048 
L 710.849443 326.747216 
L 714.894091 328.727536 
L 718.938739 330.00144 
L 722.983387 330.324176 
L 735.117331 328.936669 
L 739.161979 327.262688 
L 743.206628 329.715762 
L 747.251276 329.667563 
L 751.295924 330.038747 
L 763.429868 331.267062 
L 767.474516 332.853915 
L 771.519164 333.480246 
L 775.563812 331.82739 
L 779.60846 332.545608 
L 791.742405 332.471972 
L 795.787053 331.673403 
L 799.831701 332.231592 
L 803.876349 330.353171 
L 807.920997 328.338182 
L 820.054941 329.519755 
L 824.099589 329.532202 
L 832.188886 331.3666 
L 836.233534 333.290624 
L 848.367478 332.877595 
L 852.412126 332.867274 
L 856.456774 334.596058 
L 860.501422 335.372711 
L 864.54607 334.003664 
L 876.680015 334.948307 
L 880.724663 336.16923 
L 884.769311 336.202918 
L 888.813959 334.655014 
L 892.858607 335.557011 
L 904.992551 334.98613 
L 909.037199 334.088608 
L 913.081848 335.035774 
L 917.126496 334.255112 
L 921.171144 334.728031 
L 933.305088 334.267308 
L 937.349736 333.790019 
L 941.394384 333.658731 
L 945.439032 335.173068 
L 949.48368 334.035303 
L 961.617625 334.684223 
L 965.662273 335.778593 
L 969.706921 337.281243 
L 973.751569 337.011144 
L 977.796217 336.473899 
L 989.930161 337.98847 
L 993.974809 337.954244 
L 998.019457 338.73018 
L 1002.064106 338.340851 
L 1006.108754 339.2395 
L 1018.242698 338.746888 
L 1022.287346 339.050265 
L 1026.331994 337.906989 
L 1030.376642 338.938773 
L 1034.42129 339.358375 
L 1046.555235 340.34641 
L 1054.644531 338.379156 
L 1058.689179 339.045308 
L 1062.733827 338.626342 
L 1074.867771 337.769018 
L 1082.957067 337.52421 
L 1087.001716 338.278781 
L 1091.046364 339.406744 
L 1091.046364 339.406744 
" style="fill:none;stroke:#8c564b;stroke-linecap:square;stroke-width:1.5;"/>
   </g>
   <g id="line2d_21">
    <path clip-path="url(#p096d20788c)" d="M 87.973636 304.731077 
L 92.018284 301.600141 
L 96.062933 297.898711 
L 100.107581 293.159318 
L 112.241525 289.717811 
L 116.286173 291.298705 
L 120.330821 288.249599 
L 124.375469 290.389588 
L 128.420117 290.449108 
L 140.554062 287.202806 
L 144.59871 279.160015 
L 148.643358 280.903515 
L 152.688006 285.522106 
L 156.732654 283.302502 
L 168.866598 284.934963 
L 172.911246 281.806136 
L 176.955894 280.742181 
L 181.000543 273.510784 
L 185.045191 271.303052 
L 197.179135 265.915722 
L 201.223783 263.365748 
L 205.268431 268.152237 
L 209.313079 277.649111 
L 213.357727 286.220061 
L 225.491672 278.317598 
L 229.53632 273.81961 
L 233.580968 275.819699 
L 237.625616 279.717665 
L 241.670264 270.604879 
L 253.804208 275.934855 
L 257.848856 265.635183 
L 261.893504 270.775916 
L 265.938152 265.084199 
L 269.982801 262.158155 
L 282.116745 257.683906 
L 286.161393 249.167688 
L 290.206041 247.932848 
L 294.250689 244.130368 
L 298.295337 258.8949 
L 310.429282 263.795334 
L 314.47393 277.162844 
L 318.518578 282.944318 
L 322.563226 283.255507 
L 326.607874 290.878646 
L 338.741818 285.696818 
L 342.786466 284.674783 
L 346.831114 281.207679 
L 350.875762 277.272413 
L 354.920411 276.664158 
L 367.054355 270.437062 
L 371.099003 275.892254 
L 375.143651 273.642809 
L 379.188299 263.500323 
L 383.232947 267.083301 
L 395.366891 262.710228 
L 399.41154 270.582816 
L 403.456188 264.111017 
L 407.500836 272.222226 
L 411.545484 283.402411 
L 423.679428 278.360638 
L 427.724076 270.274872 
L 431.768724 281.355566 
L 435.813372 280.955414 
L 439.858021 287.323565 
L 451.991965 285.895014 
L 456.036613 276.147927 
L 460.081261 277.459136 
L 464.125909 273.833934 
L 468.170557 274.24612 
L 480.304501 274.047148 
L 484.34915 271.595633 
L 488.393798 264.792743 
L 492.438446 262.513266 
L 496.483094 263.924695 
L 508.617038 264.730405 
L 512.661686 261.413146 
L 516.706334 268.768174 
L 520.750982 269.819696 
L 524.79563 269.397646 
L 536.929575 272.33127 
L 540.974223 276.378622 
L 545.018871 276.579222 
L 549.063519 276.605724 
L 553.108167 270.911273 
L 565.242111 271.965668 
L 569.28676 271.548979 
L 573.331408 263.705172 
L 577.376056 257.105696 
L 581.420704 245.330876 
L 593.554648 244.593276 
L 597.599296 239.402367 
L 601.643944 243.81981 
L 605.688592 247.986903 
L 609.73324 239.949845 
L 621.867185 237.842793 
L 625.911833 241.762972 
L 629.956481 230.605094 
L 634.001129 218.199098 
L 638.045777 213.707731 
L 650.179721 194.325189 
L 654.22437 212.50532 
L 658.269018 219.166347 
L 662.313666 221.567137 
L 666.358314 233.864701 
L 678.492258 232.252469 
L 682.536906 225.557772 
L 686.581554 225.515951 
L 690.626202 233.395269 
L 694.67085 240.727259 
L 706.804795 245.754513 
L 710.849443 244.40645 
L 714.894091 245.182333 
L 718.938739 235.868715 
L 722.983387 227.194346 
L 735.117331 228.493137 
L 739.161979 232.944694 
L 743.206628 228.79072 
L 747.251276 227.411708 
L 751.295924 217.014192 
L 763.429868 199.113287 
L 767.474516 187.853182 
L 771.519164 190.527297 
L 775.563812 202.735741 
L 779.60846 190.81102 
L 791.742405 184.385089 
L 795.787053 199.574859 
L 799.831701 203.861691 
L 803.876349 208.44417 
L 807.920997 216.171735 
L 820.054941 216.861472 
L 824.099589 219.072185 
L 828.144238 208.652614 
L 832.188886 203.651906 
L 836.233534 185.923698 
L 848.367478 182.48957 
L 852.412126 181.047685 
L 856.456774 165.895322 
L 860.501422 159.848197 
L 864.54607 157.990891 
L 876.680015 146.146531 
L 880.724663 127.101415 
L 884.769311 120.627546 
L 888.813959 146.90785 
L 892.858607 136.359119 
L 904.992551 145.90985 
L 909.037199 163.986811 
L 913.081848 137.115774 
L 917.126496 145.395537 
L 921.171144 127.723292 
L 933.305088 149.508813 
L 937.349736 142.278011 
L 941.394384 133.852109 
L 945.439032 118.745206 
L 949.48368 119.805964 
L 961.617625 128.798448 
L 965.662273 127.014157 
L 969.706921 99.838242 
L 973.751569 100.998681 
L 977.796217 103.740727 
L 989.930161 79.62614 
L 993.974809 89.21009 
L 998.019457 79.250478 
L 1002.064106 101.814224 
L 1006.108754 85.251551 
L 1018.242698 94.481713 
L 1022.287346 89.27586 
L 1026.331994 116.54395 
L 1030.376642 97.90424 
L 1034.42129 78.548278 
L 1046.555235 41.11 
L 1050.599883 80.013306 
L 1054.644531 99.416005 
L 1058.689179 95.003829 
L 1062.733827 101.844355 
L 1074.867771 105.32394 
L 1078.912419 111.524514 
L 1082.957067 116.14182 
L 1087.001716 111.39763 
L 1091.046364 77.5509 
L 1091.046364 77.5509 
" style="fill:none;stroke:#e377c2;stroke-linecap:square;stroke-width:1.5;"/>
   </g>
   <g id="line2d_22">
    <path clip-path="url(#p096d20788c)" d="M 87.973636 295.429722 
L 92.018284 298.715787 
L 96.062933 302.630217 
L 100.107581 304.839327 
L 112.241525 302.836978 
L 116.286173 299.47786 
L 120.330821 299.3975 
L 124.375469 299.786194 
L 128.420117 301.624079 
L 140.554062 306.029401 
L 144.59871 309.885288 
L 148.643358 310.89861 
L 152.688006 311.457328 
L 156.732654 308.431728 
L 168.866598 310.077423 
L 172.911246 313.370863 
L 176.955894 314.988151 
L 181.000543 318.653733 
L 185.045191 315.022344 
L 197.179135 315.64997 
L 201.223783 318.81746 
L 205.268431 315.574369 
L 209.313079 310.623364 
L 213.357727 307.105148 
L 225.491672 309.746511 
L 229.53632 315.046038 
L 233.580968 315.216278 
L 237.625616 316.195881 
L 241.670264 319.732456 
L 253.804208 317.168346 
L 257.848856 321.832285 
L 261.893504 318.805948 
L 265.938152 322.846086 
L 269.982801 321.823855 
L 282.116745 322.459678 
L 286.161393 323.356884 
L 290.206041 321.84383 
L 294.250689 324.599827 
L 298.295337 323.194412 
L 310.429282 322.478412 
L 314.47393 319.047198 
L 318.518578 314.760321 
L 322.563226 315.970883 
L 326.607874 313.661478 
L 338.741818 318.315922 
L 342.786466 321.396682 
L 346.831114 323.46827 
L 350.875762 323.96028 
L 354.920411 323.70004 
L 367.054355 323.834447 
L 371.099003 322.396378 
L 375.143651 322.029048 
L 379.188299 324.014417 
L 383.232947 322.822454 
L 395.366891 324.041669 
L 399.41154 320.883356 
L 403.456188 323.917631 
L 407.500836 321.98233 
L 411.545484 318.777571 
L 423.679428 319.437042 
L 427.724076 324.110399 
L 431.768724 321.706793 
L 435.813372 320.229724 
L 439.858021 317.741713 
L 451.991965 318.843279 
L 456.036613 322.032125 
L 460.081261 321.248676 
L 464.125909 323.444558 
L 468.170557 321.557407 
L 480.304501 318.971403 
L 484.34915 318.89156 
L 488.393798 323.576974 
L 492.438446 323.423323 
L 496.483094 324.223866 
L 508.617038 322.701414 
L 512.661686 321.365757 
L 516.706334 320.203136 
L 520.750982 320.673202 
L 524.79563 323.644879 
L 536.929575 322.419129 
L 540.974223 322.470583 
L 545.018871 322.252313 
L 549.063519 319.941062 
L 553.108167 318.379568 
L 565.242111 317.084065 
L 569.28676 318.475834 
L 573.331408 323.375667 
L 577.376056 324.09907 
L 581.420704 327.555472 
L 593.554648 326.256038 
L 597.599296 328.753291 
L 601.643944 330.840762 
L 605.688592 329.869551 
L 609.73324 330.377401 
L 621.867185 328.627983 
L 625.911833 326.158916 
L 629.956481 327.904718 
L 634.001129 331.539716 
L 638.045777 332.737884 
L 650.179721 333.518629 
L 654.22437 332.95138 
L 658.269018 331.807124 
L 662.313666 330.071356 
L 666.358314 327.097272 
L 678.492258 326.345332 
L 682.536906 327.206032 
L 686.581554 326.306476 
L 690.626202 327.274923 
L 694.67085 325.507737 
L 706.804795 323.337798 
L 710.849443 325.783145 
L 714.894091 327.095278 
L 718.938739 329.854862 
L 722.983387 329.758693 
L 739.161979 328.601426 
L 743.206628 328.933054 
L 747.251276 330.073997 
L 751.295924 330.539377 
L 763.429868 331.47917 
L 767.474516 332.991842 
L 771.519164 333.034745 
L 775.563812 331.642669 
L 779.60846 332.57991 
L 791.742405 332.993217 
L 795.787053 331.450687 
L 799.831701 332.331566 
L 803.876349 330.632085 
L 807.920997 328.224294 
L 820.054941 328.923029 
L 824.099589 327.557472 
L 828.144238 327.052798 
L 832.188886 327.701846 
L 836.233534 330.989956 
L 848.367478 332.03293 
L 852.412126 333.14997 
L 856.456774 335.453659 
L 860.501422 337.191075 
L 864.54607 336.368513 
L 876.680015 336.873393 
L 880.724663 338.899295 
L 884.769311 338.968151 
L 888.813959 337.593345 
L 892.858607 339.040567 
L 904.992551 338.894114 
L 909.037199 338.36547 
L 913.081848 340.201606 
L 917.126496 339.835822 
L 921.171144 340.420713 
L 933.305088 340.201586 
L 937.349736 339.656183 
L 941.394384 338.696963 
L 945.439032 339.30439 
L 949.48368 338.144946 
L 961.617625 338.626317 
L 965.662273 339.765123 
L 969.706921 340.552608 
L 973.751569 340.542892 
L 977.796217 340.225121 
L 989.930161 341.614085 
L 993.974809 341.704532 
L 998.019457 341.599929 
L 1006.108754 342.325521 
L 1018.242698 342.507367 
L 1022.287346 342.984365 
L 1026.331994 341.860483 
L 1030.376642 343.074364 
L 1034.42129 342.933136 
L 1046.555235 343.946509 
L 1050.599883 343.383745 
L 1054.644531 342.561172 
L 1058.689179 343.65572 
L 1062.733827 342.902043 
L 1074.867771 342.30493 
L 1078.912419 342.684929 
L 1082.957067 342.830285 
L 1087.001716 343.733823 
L 1091.046364 344.91 
L 1091.046364 344.91 
" style="fill:none;stroke:#7f7f7f;stroke-linecap:square;stroke-width:1.5;"/>
   </g>
   <g id="line2d_23">
    <path clip-path="url(#p096d20788c)" d="M 87.973636 297.939943 
L 92.018284 297.501116 
L 96.062933 297.502909 
L 100.107581 295.166824 
L 112.241525 289.430641 
L 116.286173 286.746275 
L 120.330821 283.369229 
L 124.375469 286.179505 
L 128.420117 288.558639 
L 140.554062 290.757586 
L 144.59871 288.28805 
L 148.643358 291.344739 
L 152.688006 296.109999 
L 156.732654 290.07616 
L 168.866598 293.884809 
L 172.911246 295.733979 
L 176.955894 297.233753 
L 181.000543 297.090041 
L 185.045191 289.574474 
L 197.179135 286.462778 
L 201.223783 290.221571 
L 205.268431 287.533828 
L 209.313079 286.091341 
L 213.357727 288.093765 
L 225.491672 284.17235 
L 229.53632 288.527649 
L 233.580968 290.444078 
L 237.625616 295.231948 
L 241.670264 293.670593 
L 253.804208 292.866555 
L 257.848856 292.760316 
L 261.893504 290.359723 
L 265.938152 293.52591 
L 269.982801 289.510429 
L 282.116745 287.709804 
L 286.161393 283.848442 
L 290.206041 279.439535 
L 294.250689 283.400268 
L 298.295337 289.288771 
L 310.429282 291.037151 
L 314.47393 293.214264 
L 318.518578 290.124632 
L 322.563226 292.411947 
L 326.607874 295.208097 
L 338.741818 297.279127 
L 342.786466 301.432122 
L 346.831114 302.2431 
L 350.875762 300.331119 
L 354.920411 299.431743 
L 367.054355 295.332194 
L 371.099003 296.238991 
L 375.143651 293.899439 
L 379.188299 290.21444 
L 383.232947 290.093134 
L 395.366891 289.483435 
L 399.41154 287.956306 
L 403.456188 289.093934 
L 407.500836 290.579801 
L 411.545484 292.649929 
L 423.679428 289.462396 
L 427.724076 291.550244 
L 431.768724 294.555442 
L 435.813372 291.435027 
L 439.858021 292.132515 
L 451.991965 292.731641 
L 456.036613 289.680108 
L 460.081261 289.132512 
L 464.125909 290.552851 
L 468.170557 286.826711 
L 480.304501 281.137048 
L 484.34915 278.737184 
L 488.393798 282.881622 
L 492.438446 280.701636 
L 496.483094 283.818173 
L 508.617038 280.716088 
L 512.661686 274.764887 
L 516.706334 278.114315 
L 520.750982 280.137524 
L 524.79563 286.568264 
L 536.929575 286.072417 
L 540.974223 289.537288 
L 545.018871 289.242488 
L 549.063519 284.400551 
L 553.108167 276.008672 
L 565.242111 274.075449 
L 569.28676 276.76903 
L 573.331408 280.403686 
L 577.376056 276.854495 
L 581.420704 276.806625 
L 593.554648 272.30451 
L 597.599296 276.153703 
L 601.643944 285.913683 
L 605.688592 285.44153 
L 609.73324 281.815716 
L 621.867185 274.841711 
L 625.911833 269.375402 
L 629.956481 266.570326 
L 634.001129 270.670266 
L 638.045777 272.677014 
L 650.179721 264.748764 
L 654.22437 272.153914 
L 658.269018 271.199634 
L 662.313666 265.751125 
L 666.358314 262.244869 
L 678.492258 258.320223 
L 682.536906 256.211775 
L 686.581554 252.71916 
L 690.626202 262.632879 
L 694.67085 261.798072 
L 706.804795 258.513549 
L 710.849443 265.27631 
L 714.894091 270.226335 
L 718.938739 272.119434 
L 722.983387 265.804224 
L 735.117331 263.659112 
L 739.161979 265.437186 
L 743.206628 263.637145 
L 747.251276 266.998947 
L 751.295924 261.697187 
L 763.429868 253.650782 
L 767.474516 253.614734 
L 771.519164 255.439198 
L 775.563812 255.697921 
L 779.60846 252.410335 
L 791.742405 250.545351 
L 795.787053 251.559409 
L 799.831701 258.66804 
L 803.876349 253.537018 
L 807.920997 247.800817 
L 820.054941 251.378609 
L 824.099589 247.098602 
L 828.144238 236.717066 
L 832.188886 235.68069 
L 836.233534 237.446201 
L 848.367478 240.732619 
L 852.412126 245.975116 
L 856.456774 249.452205 
L 860.501422 256.810506 
L 864.54607 250.644046 
L 876.680015 247.701383 
L 880.724663 251.905239 
L 884.769311 249.542991 
L 888.813959 250.48032 
L 892.858607 255.369488 
L 904.992551 258.570697 
L 909.037199 263.0379 
L 913.081848 262.190614 
L 917.126496 262.898087 
L 921.171144 259.512238 
L 933.305088 266.77211 
L 937.349736 259.825609 
L 941.394384 249.025722 
L 945.439032 246.549042 
L 949.48368 237.490435 
L 961.617625 245.87156 
L 965.662273 253.978276 
L 969.706921 248.375701 
L 973.751569 248.765939 
L 977.796217 247.061922 
L 989.930161 249.110973 
L 993.974809 253.619704 
L 998.019457 248.900233 
L 1002.064106 260.637608 
L 1006.108754 258.156587 
L 1018.242698 263.148391 
L 1022.287346 265.757419 
L 1026.331994 264.113796 
L 1030.376642 267.544835 
L 1034.42129 259.786362 
L 1046.555235 257.31454 
L 1050.599883 262.661624 
L 1054.644531 260.63513 
L 1058.689179 269.494292 
L 1062.733827 264.350752 
L 1074.867771 259.896388 
L 1078.912419 265.777998 
L 1082.957067 268.762992 
L 1087.001716 275.179439 
L 1091.046364 275.12834 
L 1091.046364 275.12834 
" style="fill:none;stroke:#bcbd22;stroke-linecap:square;stroke-width:1.5;"/>
   </g>
   <g id="patch_3">
    <path d="M 37.82 360.1 
L 37.82 25.92 
" style="fill:none;stroke:#000000;stroke-linecap:square;stroke-linejoin:miter;stroke-width:0.8;"/>
   </g>
   <g id="patch_4">
    <path d="M 1141.2 360.1 
L 1141.2 25.92 
" style="fill:none;stroke:#000000;stroke-linecap:square;stroke-linejoin:miter;stroke-width:0.8;"/>
   </g>
   <g id="patch_5">
    <path d="M 37.82 360.1 
L 1141.2 360.1 
" style="fill:none;stroke:#000000;stroke-linecap:square;stroke-linejoin:miter;stroke-width:0.8;"/>
   </g>
   <g id="patch_6">
    <path d="M 37.82 25.92 
L 1141.2 25.92 
" style="fill:none;stroke:#000000;stroke-linecap:square;stroke-linejoin:miter;stroke-width:0.8;"/>
   </g>
   <g id="text_9">
    <!-- Net Value: (2010-01-19 ~ 2010-10-08) -->
    <g transform="translate(473.4025 19.92)scale(0.12 -0.12)">
     <defs>
      <path d="M 9.8125 72.90625 
L 23.09375 72.90625 
L 55.421875 11.921875 
L 55.421875 72.90625 
L 64.984375 72.90625 
L 64.984375 0 
L 51.703125 0 
L 19.390625 60.984375 
L 19.390625 0 
L 9.8125 0 
z
" id="DejaVuSans-78"/>
      <path d="M 28.609375 0 
L 0.78125 72.90625 
L 11.078125 72.90625 
L 34.1875 11.53125 
L 57.328125 72.90625 
L 67.578125 72.90625 
L 39.796875 0 
z
" id="DejaVuSans-86"/>
      <path d="M 11.71875 12.40625 
L 22.015625 12.40625 
L 22.015625 0 
L 11.71875 0 
z
M 11.71875 51.703125 
L 22.015625 51.703125 
L 22.015625 39.3125 
L 11.71875 39.3125 
z
" id="DejaVuSans-58"/>
      <path d="M 31 75.875 
Q 24.46875 64.65625 21.28125 53.65625 
Q 18.109375 42.671875 18.109375 31.390625 
Q 18.109375 20.125 21.3125 9.0625 
Q 24.515625 -2 31 -13.1875 
L 23.1875 -13.1875 
Q 15.875 -1.703125 12.234375 9.375 
Q 8.59375 20.453125 8.59375 31.390625 
Q 8.59375 42.28125 12.203125 53.3125 
Q 15.828125 64.359375 23.1875 75.875 
z
" id="DejaVuSans-40"/>
      <path d="M 4.890625 31.390625 
L 31.203125 31.390625 
L 31.203125 23.390625 
L 4.890625 23.390625 
z
" id="DejaVuSans-45"/>
      <path d="M 10.984375 1.515625 
L 10.984375 10.5 
Q 14.703125 8.734375 18.5 7.8125 
Q 22.3125 6.890625 25.984375 6.890625 
Q 35.75 6.890625 40.890625 13.453125 
Q 46.046875 20.015625 46.78125 33.40625 
Q 43.953125 29.203125 39.59375 26.953125 
Q 35.25 24.703125 29.984375 24.703125 
Q 19.046875 24.703125 12.671875 31.3125 
Q 6.296875 37.9375 6.296875 49.421875 
Q 6.296875 60.640625 12.9375 67.421875 
Q 19.578125 74.21875 30.609375 74.21875 
Q 43.265625 74.21875 49.921875 64.515625 
Q 56.59375 54.828125 56.59375 36.375 
Q 56.59375 19.140625 48.40625 8.859375 
Q 40.234375 -1.421875 26.421875 -1.421875 
Q 22.703125 -1.421875 18.890625 -0.6875 
Q 15.09375 0.046875 10.984375 1.515625 
z
M 30.609375 32.421875 
Q 37.25 32.421875 41.125 36.953125 
Q 45.015625 41.5 45.015625 49.421875 
Q 45.015625 57.28125 41.125 61.84375 
Q 37.25 66.40625 30.609375 66.40625 
Q 23.96875 66.40625 20.09375 61.84375 
Q 16.21875 57.28125 16.21875 49.421875 
Q 16.21875 41.5 20.09375 36.953125 
Q 23.96875 32.421875 30.609375 32.421875 
z
" id="DejaVuSans-57"/>
      <path d="M 73.1875 39.890625 
L 73.1875 31.203125 
Q 68.0625 27.34375 63.6875 25.6875 
Q 59.328125 24.03125 54.59375 24.03125 
Q 49.21875 24.03125 42.09375 26.90625 
Q 41.546875 27.09375 41.3125 27.203125 
Q 40.96875 27.34375 40.234375 27.59375 
Q 32.671875 30.609375 28.078125 30.609375 
Q 23.78125 30.609375 19.578125 28.734375 
Q 15.375 26.859375 10.59375 22.796875 
L 10.59375 31.5 
Q 15.71875 35.359375 20.09375 37.03125 
Q 24.46875 38.71875 29.203125 38.71875 
Q 34.578125 38.71875 41.75 35.796875 
Q 42.234375 35.59375 42.484375 35.5 
Q 42.875 35.359375 43.5625 35.109375 
Q 51.125 32.078125 55.71875 32.078125 
Q 59.90625 32.078125 64.03125 33.9375 
Q 68.171875 35.796875 73.1875 39.890625 
z
" id="DejaVuSans-126"/>
      <path d="M 31.78125 34.625 
Q 24.75 34.625 20.71875 30.859375 
Q 16.703125 27.09375 16.703125 20.515625 
Q 16.703125 13.921875 20.71875 10.15625 
Q 24.75 6.390625 31.78125 6.390625 
Q 38.8125 6.390625 42.859375 10.171875 
Q 46.921875 13.96875 46.921875 20.515625 
Q 46.921875 27.09375 42.890625 30.859375 
Q 38.875 34.625 31.78125 34.625 
z
M 21.921875 38.8125 
Q 15.578125 40.375 12.03125 44.71875 
Q 8.5 49.078125 8.5 55.328125 
Q 8.5 64.0625 14.71875 69.140625 
Q 20.953125 74.21875 31.78125 74.21875 
Q 42.671875 74.21875 48.875 69.140625 
Q 55.078125 64.0625 55.078125 55.328125 
Q 55.078125 49.078125 51.53125 44.71875 
Q 48 40.375 41.703125 38.8125 
Q 48.828125 37.15625 52.796875 32.3125 
Q 56.78125 27.484375 56.78125 20.515625 
Q 56.78125 9.90625 50.3125 4.234375 
Q 43.84375 -1.421875 31.78125 -1.421875 
Q 19.734375 -1.421875 13.25 4.234375 
Q 6.78125 9.90625 6.78125 20.515625 
Q 6.78125 27.484375 10.78125 32.3125 
Q 14.796875 37.15625 21.921875 38.8125 
z
M 18.3125 54.390625 
Q 18.3125 48.734375 21.84375 45.5625 
Q 25.390625 42.390625 31.78125 42.390625 
Q 38.140625 42.390625 41.71875 45.5625 
Q 45.3125 48.734375 45.3125 54.390625 
Q 45.3125 60.0625 41.71875 63.234375 
Q 38.140625 66.40625 31.78125 66.40625 
Q 25.390625 66.40625 21.84375 63.234375 
Q 18.3125 60.0625 18.3125 54.390625 
z
" id="DejaVuSans-56"/>
      <path d="M 8.015625 75.875 
L 15.828125 75.875 
Q 23.140625 64.359375 26.78125 53.3125 
Q 30.421875 42.28125 30.421875 31.390625 
Q 30.421875 20.453125 26.78125 9.375 
Q 23.140625 -1.703125 15.828125 -13.1875 
L 8.015625 -13.1875 
Q 14.5 -2 17.703125 9.0625 
Q 20.90625 20.125 20.90625 31.390625 
Q 20.90625 42.671875 17.703125 53.65625 
Q 14.5 64.65625 8.015625 75.875 
z
" id="DejaVuSans-41"/>
     </defs>
     <use xlink:href="#DejaVuSans-78"/>
     <use x="74.804688" xlink:href="#DejaVuSans-101"/>
     <use x="136.328125" xlink:href="#DejaVuSans-116"/>
     <use x="175.537109" xlink:href="#DejaVuSans-32"/>
     <use x="207.324219" xlink:href="#DejaVuSans-86"/>
     <use x="267.982422" xlink:href="#DejaVuSans-97"/>
     <use x="329.261719" xlink:href="#DejaVuSans-108"/>
     <use x="357.044922" xlink:href="#DejaVuSans-117"/>
     <use x="420.423828" xlink:href="#DejaVuSans-101"/>
     <use x="481.947266" xlink:href="#DejaVuSans-58"/>
     <use x="515.638672" xlink:href="#DejaVuSans-32"/>
     <use x="547.425781" xlink:href="#DejaVuSans-40"/>
     <use x="586.439453" xlink:href="#DejaVuSans-50"/>
     <use x="650.0625" xlink:href="#DejaVuSans-48"/>
     <use x="713.685547" xlink:href="#DejaVuSans-49"/>
     <use x="777.308594" xlink:href="#DejaVuSans-48"/>
     <use x="840.931641" xlink:href="#DejaVuSans-45"/>
     <use x="877.015625" xlink:href="#DejaVuSans-48"/>
     <use x="940.638672" xlink:href="#DejaVuSans-49"/>
     <use x="1004.261719" xlink:href="#DejaVuSans-45"/>
     <use x="1040.345703" xlink:href="#DejaVuSans-49"/>
     <use x="1103.96875" xlink:href="#DejaVuSans-57"/>
     <use x="1167.591797" xlink:href="#DejaVuSans-32"/>
     <use x="1199.378906" xlink:href="#DejaVuSans-126"/>
     <use x="1283.167969" xlink:href="#DejaVuSans-32"/>
     <use x="1314.955078" xlink:href="#DejaVuSans-50"/>
     <use x="1378.578125" xlink:href="#DejaVuSans-48"/>
     <use x="1442.201172" xlink:href="#DejaVuSans-49"/>
     <use x="1505.824219" xlink:href="#DejaVuSans-48"/>
     <use x="1569.447266" xlink:href="#DejaVuSans-45"/>
     <use x="1605.53125" xlink:href="#DejaVuSans-49"/>
     <use x="1669.154297" xlink:href="#DejaVuSans-48"/>
     <use x="1732.777344" xlink:href="#DejaVuSans-45"/>
     <use x="1768.861328" xlink:href="#DejaVuSans-48"/>
     <use x="1832.484375" xlink:href="#DejaVuSans-56"/>
     <use x="1896.107422" xlink:href="#DejaVuSans-41"/>
    </g>
   </g>
   <g id="legend_1">
    <g id="patch_7">
     <path d="M 44.82 168.248125 
L 141.309062 168.248125 
Q 143.309062 168.248125 143.309062 166.248125 
L 143.309062 32.92 
Q 143.309062 30.92 141.309062 30.92 
L 44.82 30.92 
Q 42.82 30.92 42.82 32.92 
L 42.82 166.248125 
Q 42.82 168.248125 44.82 168.248125 
z
" style="fill:#ffffff;opacity:0.8;stroke:#cccccc;stroke-linejoin:miter;"/>
    </g>
    <g id="line2d_24">
     <path d="M 46.82 39.018438 
L 66.82 39.018438 
" style="fill:none;stroke:#1f77b4;stroke-linecap:square;stroke-width:1.5;"/>
    </g>
    <g id="line2d_25"/>
    <g id="text_10">
     <!-- group_1 -->
     <g transform="translate(74.82 42.518438)scale(0.1 -0.1)">
      <defs>
       <path d="M 45.40625 27.984375 
Q 45.40625 37.75 41.375 43.109375 
Q 37.359375 48.484375 30.078125 48.484375 
Q 22.859375 48.484375 18.828125 43.109375 
Q 14.796875 37.75 14.796875 27.984375 
Q 14.796875 18.265625 18.828125 12.890625 
Q 22.859375 7.515625 30.078125 7.515625 
Q 37.359375 7.515625 41.375 12.890625 
Q 45.40625 18.265625 45.40625 27.984375 
z
M 54.390625 6.78125 
Q 54.390625 -7.171875 48.1875 -13.984375 
Q 42 -20.796875 29.203125 -20.796875 
Q 24.46875 -20.796875 20.265625 -20.09375 
Q 16.0625 -19.390625 12.109375 -17.921875 
L 12.109375 -9.1875 
Q 16.0625 -11.328125 19.921875 -12.34375 
Q 23.78125 -13.375 27.78125 -13.375 
Q 36.625 -13.375 41.015625 -8.765625 
Q 45.40625 -4.15625 45.40625 5.171875 
L 45.40625 9.625 
Q 42.625 4.78125 38.28125 2.390625 
Q 33.9375 0 27.875 0 
Q 17.828125 0 11.671875 7.65625 
Q 5.515625 15.328125 5.515625 27.984375 
Q 5.515625 40.671875 11.671875 48.328125 
Q 17.828125 56 27.875 56 
Q 33.9375 56 38.28125 53.609375 
Q 42.625 51.21875 45.40625 46.390625 
L 45.40625 54.6875 
L 54.390625 54.6875 
z
" id="DejaVuSans-103"/>
       <path d="M 41.109375 46.296875 
Q 39.59375 47.171875 37.8125 47.578125 
Q 36.03125 48 33.890625 48 
Q 26.265625 48 22.1875 43.046875 
Q 18.109375 38.09375 18.109375 28.8125 
L 18.109375 0 
L 9.078125 0 
L 9.078125 54.6875 
L 18.109375 54.6875 
L 18.109375 46.1875 
Q 20.953125 51.171875 25.484375 53.578125 
Q 30.03125 56 36.53125 56 
Q 37.453125 56 38.578125 55.875 
Q 39.703125 55.765625 41.0625 55.515625 
z
" id="DejaVuSans-114"/>
       <path d="M 30.609375 48.390625 
Q 23.390625 48.390625 19.1875 42.75 
Q 14.984375 37.109375 14.984375 27.296875 
Q 14.984375 17.484375 19.15625 11.84375 
Q 23.34375 6.203125 30.609375 6.203125 
Q 37.796875 6.203125 41.984375 11.859375 
Q 46.1875 17.53125 46.1875 27.296875 
Q 46.1875 37.015625 41.984375 42.703125 
Q 37.796875 48.390625 30.609375 48.390625 
z
M 30.609375 56 
Q 42.328125 56 49.015625 48.375 
Q 55.71875 40.765625 55.71875 27.296875 
Q 55.71875 13.875 49.015625 6.21875 
Q 42.328125 -1.421875 30.609375 -1.421875 
Q 18.84375 -1.421875 12.171875 6.21875 
Q 5.515625 13.875 5.515625 27.296875 
Q 5.515625 40.765625 12.171875 48.375 
Q 18.84375 56 30.609375 56 
z
" id="DejaVuSans-111"/>
       <path d="M 18.109375 8.203125 
L 18.109375 -20.796875 
L 9.078125 -20.796875 
L 9.078125 54.6875 
L 18.109375 54.6875 
L 18.109375 46.390625 
Q 20.953125 51.265625 25.265625 53.625 
Q 29.59375 56 35.59375 56 
Q 45.5625 56 51.78125 48.09375 
Q 58.015625 40.1875 58.015625 27.296875 
Q 58.015625 14.40625 51.78125 6.484375 
Q 45.5625 -1.421875 35.59375 -1.421875 
Q 29.59375 -1.421875 25.265625 0.953125 
Q 20.953125 3.328125 18.109375 8.203125 
z
M 48.6875 27.296875 
Q 48.6875 37.203125 44.609375 42.84375 
Q 40.53125 48.484375 33.40625 48.484375 
Q 26.265625 48.484375 22.1875 42.84375 
Q 18.109375 37.203125 18.109375 27.296875 
Q 18.109375 17.390625 22.1875 11.75 
Q 26.265625 6.109375 33.40625 6.109375 
Q 40.53125 6.109375 44.609375 11.75 
Q 48.6875 17.390625 48.6875 27.296875 
z
" id="DejaVuSans-112"/>
       <path d="M 50.984375 -16.609375 
L 50.984375 -23.578125 
L -0.984375 -23.578125 
L -0.984375 -16.609375 
z
" id="DejaVuSans-95"/>
      </defs>
      <use xlink:href="#DejaVuSans-103"/>
      <use x="63.476562" xlink:href="#DejaVuSans-114"/>
      <use x="102.339844" xlink:href="#DejaVuSans-111"/>
      <use x="163.521484" xlink:href="#DejaVuSans-117"/>
      <use x="226.900391" xlink:href="#DejaVuSans-112"/>
      <use x="290.376953" xlink:href="#DejaVuSans-95"/>
      <use x="340.376953" xlink:href="#DejaVuSans-49"/>
     </g>
    </g>
    <g id="line2d_26">
     <path d="M 46.82 53.974688 
L 66.82 53.974688 
" style="fill:none;stroke:#ff7f0e;stroke-linecap:square;stroke-width:1.5;"/>
    </g>
    <g id="line2d_27"/>
    <g id="text_11">
     <!-- group_2 -->
     <g transform="translate(74.82 57.474688)scale(0.1 -0.1)">
      <use xlink:href="#DejaVuSans-103"/>
      <use x="63.476562" xlink:href="#DejaVuSans-114"/>
      <use x="102.339844" xlink:href="#DejaVuSans-111"/>
      <use x="163.521484" xlink:href="#DejaVuSans-117"/>
      <use x="226.900391" xlink:href="#DejaVuSans-112"/>
      <use x="290.376953" xlink:href="#DejaVuSans-95"/>
      <use x="340.376953" xlink:href="#DejaVuSans-50"/>
     </g>
    </g>
    <g id="line2d_28">
     <path d="M 46.82 68.930938 
L 66.82 68.930938 
" style="fill:none;stroke:#2ca02c;stroke-linecap:square;stroke-width:1.5;"/>
    </g>
    <g id="line2d_29"/>
    <g id="text_12">
     <!-- group_3 -->
     <g transform="translate(74.82 72.430938)scale(0.1 -0.1)">
      <use xlink:href="#DejaVuSans-103"/>
      <use x="63.476562" xlink:href="#DejaVuSans-114"/>
      <use x="102.339844" xlink:href="#DejaVuSans-111"/>
      <use x="163.521484" xlink:href="#DejaVuSans-117"/>
      <use x="226.900391" xlink:href="#DejaVuSans-112"/>
      <use x="290.376953" xlink:href="#DejaVuSans-95"/>
      <use x="340.376953" xlink:href="#DejaVuSans-51"/>
     </g>
    </g>
    <g id="line2d_30">
     <path d="M 46.82 83.887188 
L 66.82 83.887188 
" style="fill:none;stroke:#d62728;stroke-linecap:square;stroke-width:1.5;"/>
    </g>
    <g id="line2d_31"/>
    <g id="text_13">
     <!-- group_4 -->
     <g transform="translate(74.82 87.387188)scale(0.1 -0.1)">
      <use xlink:href="#DejaVuSans-103"/>
      <use x="63.476562" xlink:href="#DejaVuSans-114"/>
      <use x="102.339844" xlink:href="#DejaVuSans-111"/>
      <use x="163.521484" xlink:href="#DejaVuSans-117"/>
      <use x="226.900391" xlink:href="#DejaVuSans-112"/>
      <use x="290.376953" xlink:href="#DejaVuSans-95"/>
      <use x="340.376953" xlink:href="#DejaVuSans-52"/>
     </g>
    </g>
    <g id="line2d_32">
     <path d="M 46.82 98.843438 
L 66.82 98.843438 
" style="fill:none;stroke:#9467bd;stroke-linecap:square;stroke-width:1.5;"/>
    </g>
    <g id="line2d_33"/>
    <g id="text_14">
     <!-- group_5 -->
     <g transform="translate(74.82 102.343438)scale(0.1 -0.1)">
      <use xlink:href="#DejaVuSans-103"/>
      <use x="63.476562" xlink:href="#DejaVuSans-114"/>
      <use x="102.339844" xlink:href="#DejaVuSans-111"/>
      <use x="163.521484" xlink:href="#DejaVuSans-117"/>
      <use x="226.900391" xlink:href="#DejaVuSans-112"/>
      <use x="290.376953" xlink:href="#DejaVuSans-95"/>
      <use x="340.376953" xlink:href="#DejaVuSans-53"/>
     </g>
    </g>
    <g id="line2d_34">
     <path d="M 46.82 113.799688 
L 66.82 113.799688 
" style="fill:none;stroke:#8c564b;stroke-linecap:square;stroke-width:1.5;"/>
    </g>
    <g id="line2d_35"/>
    <g id="text_15">
     <!-- benchmark -->
     <g transform="translate(74.82 117.299688)scale(0.1 -0.1)">
      <defs>
       <path d="M 48.6875 27.296875 
Q 48.6875 37.203125 44.609375 42.84375 
Q 40.53125 48.484375 33.40625 48.484375 
Q 26.265625 48.484375 22.1875 42.84375 
Q 18.109375 37.203125 18.109375 27.296875 
Q 18.109375 17.390625 22.1875 11.75 
Q 26.265625 6.109375 33.40625 6.109375 
Q 40.53125 6.109375 44.609375 11.75 
Q 48.6875 17.390625 48.6875 27.296875 
z
M 18.109375 46.390625 
Q 20.953125 51.265625 25.265625 53.625 
Q 29.59375 56 35.59375 56 
Q 45.5625 56 51.78125 48.09375 
Q 58.015625 40.1875 58.015625 27.296875 
Q 58.015625 14.40625 51.78125 6.484375 
Q 45.5625 -1.421875 35.59375 -1.421875 
Q 29.59375 -1.421875 25.265625 0.953125 
Q 20.953125 3.328125 18.109375 8.203125 
L 18.109375 0 
L 9.078125 0 
L 9.078125 75.984375 
L 18.109375 75.984375 
z
" id="DejaVuSans-98"/>
       <path d="M 48.78125 52.59375 
L 48.78125 44.1875 
Q 44.96875 46.296875 41.140625 47.34375 
Q 37.3125 48.390625 33.40625 48.390625 
Q 24.65625 48.390625 19.8125 42.84375 
Q 14.984375 37.3125 14.984375 27.296875 
Q 14.984375 17.28125 19.8125 11.734375 
Q 24.65625 6.203125 33.40625 6.203125 
Q 37.3125 6.203125 41.140625 7.25 
Q 44.96875 8.296875 48.78125 10.40625 
L 48.78125 2.09375 
Q 45.015625 0.34375 40.984375 -0.53125 
Q 36.96875 -1.421875 32.421875 -1.421875 
Q 20.0625 -1.421875 12.78125 6.34375 
Q 5.515625 14.109375 5.515625 27.296875 
Q 5.515625 40.671875 12.859375 48.328125 
Q 20.21875 56 33.015625 56 
Q 37.15625 56 41.109375 55.140625 
Q 45.0625 54.296875 48.78125 52.59375 
z
" id="DejaVuSans-99"/>
       <path d="M 54.890625 33.015625 
L 54.890625 0 
L 45.90625 0 
L 45.90625 32.71875 
Q 45.90625 40.484375 42.875 44.328125 
Q 39.84375 48.1875 33.796875 48.1875 
Q 26.515625 48.1875 22.3125 43.546875 
Q 18.109375 38.921875 18.109375 30.90625 
L 18.109375 0 
L 9.078125 0 
L 9.078125 75.984375 
L 18.109375 75.984375 
L 18.109375 46.1875 
Q 21.34375 51.125 25.703125 53.5625 
Q 30.078125 56 35.796875 56 
Q 45.21875 56 50.046875 50.171875 
Q 54.890625 44.34375 54.890625 33.015625 
z
" id="DejaVuSans-104"/>
       <path d="M 52 44.1875 
Q 55.375 50.25 60.0625 53.125 
Q 64.75 56 71.09375 56 
Q 79.640625 56 84.28125 50.015625 
Q 88.921875 44.046875 88.921875 33.015625 
L 88.921875 0 
L 79.890625 0 
L 79.890625 32.71875 
Q 79.890625 40.578125 77.09375 44.375 
Q 74.3125 48.1875 68.609375 48.1875 
Q 61.625 48.1875 57.5625 43.546875 
Q 53.515625 38.921875 53.515625 30.90625 
L 53.515625 0 
L 44.484375 0 
L 44.484375 32.71875 
Q 44.484375 40.625 41.703125 44.40625 
Q 38.921875 48.1875 33.109375 48.1875 
Q 26.21875 48.1875 22.15625 43.53125 
Q 18.109375 38.875 18.109375 30.90625 
L 18.109375 0 
L 9.078125 0 
L 9.078125 54.6875 
L 18.109375 54.6875 
L 18.109375 46.1875 
Q 21.1875 51.21875 25.484375 53.609375 
Q 29.78125 56 35.6875 56 
Q 41.65625 56 45.828125 52.96875 
Q 50 49.953125 52 44.1875 
z
" id="DejaVuSans-109"/>
       <path d="M 9.078125 75.984375 
L 18.109375 75.984375 
L 18.109375 31.109375 
L 44.921875 54.6875 
L 56.390625 54.6875 
L 27.390625 29.109375 
L 57.625 0 
L 45.90625 0 
L 18.109375 26.703125 
L 18.109375 0 
L 9.078125 0 
z
" id="DejaVuSans-107"/>
      </defs>
      <use xlink:href="#DejaVuSans-98"/>
      <use x="63.476562" xlink:href="#DejaVuSans-101"/>
      <use x="125" xlink:href="#DejaVuSans-110"/>
      <use x="188.378906" xlink:href="#DejaVuSans-99"/>
      <use x="243.359375" xlink:href="#DejaVuSans-104"/>
      <use x="306.738281" xlink:href="#DejaVuSans-109"/>
      <use x="404.150391" xlink:href="#DejaVuSans-97"/>
      <use x="465.429688" xlink:href="#DejaVuSans-114"/>
      <use x="506.542969" xlink:href="#DejaVuSans-107"/>
     </g>
    </g>
    <g id="line2d_36">
     <path d="M 46.82 128.477813 
L 66.82 128.477813 
" style="fill:none;stroke:#e377c2;stroke-linecap:square;stroke-width:1.5;"/>
    </g>
    <g id="line2d_37"/>
    <g id="text_16">
     <!-- long_excess -->
     <g transform="translate(74.82 131.977813)scale(0.1 -0.1)">
      <defs>
       <path d="M 54.890625 54.6875 
L 35.109375 28.078125 
L 55.90625 0 
L 45.3125 0 
L 29.390625 21.484375 
L 13.484375 0 
L 2.875 0 
L 24.125 28.609375 
L 4.6875 54.6875 
L 15.28125 54.6875 
L 29.78125 35.203125 
L 44.28125 54.6875 
z
" id="DejaVuSans-120"/>
       <path d="M 44.28125 53.078125 
L 44.28125 44.578125 
Q 40.484375 46.53125 36.375 47.5 
Q 32.28125 48.484375 27.875 48.484375 
Q 21.1875 48.484375 17.84375 46.4375 
Q 14.5 44.390625 14.5 40.28125 
Q 14.5 37.15625 16.890625 35.375 
Q 19.28125 33.59375 26.515625 31.984375 
L 29.59375 31.296875 
Q 39.15625 29.25 43.1875 25.515625 
Q 47.21875 21.78125 47.21875 15.09375 
Q 47.21875 7.46875 41.1875 3.015625 
Q 35.15625 -1.421875 24.609375 -1.421875 
Q 20.21875 -1.421875 15.453125 -0.5625 
Q 10.6875 0.296875 5.421875 2 
L 5.421875 11.28125 
Q 10.40625 8.6875 15.234375 7.390625 
Q 20.0625 6.109375 24.8125 6.109375 
Q 31.15625 6.109375 34.5625 8.28125 
Q 37.984375 10.453125 37.984375 14.40625 
Q 37.984375 18.0625 35.515625 20.015625 
Q 33.0625 21.96875 24.703125 23.78125 
L 21.578125 24.515625 
Q 13.234375 26.265625 9.515625 29.90625 
Q 5.8125 33.546875 5.8125 39.890625 
Q 5.8125 47.609375 11.28125 51.796875 
Q 16.75 56 26.8125 56 
Q 31.78125 56 36.171875 55.265625 
Q 40.578125 54.546875 44.28125 53.078125 
z
" id="DejaVuSans-115"/>
      </defs>
      <use xlink:href="#DejaVuSans-108"/>
      <use x="27.783203" xlink:href="#DejaVuSans-111"/>
      <use x="88.964844" xlink:href="#DejaVuSans-110"/>
      <use x="152.34375" xlink:href="#DejaVuSans-103"/>
      <use x="215.820312" xlink:href="#DejaVuSans-95"/>
      <use x="265.820312" xlink:href="#DejaVuSans-101"/>
      <use x="325.59375" xlink:href="#DejaVuSans-120"/>
      <use x="383.023438" xlink:href="#DejaVuSans-99"/>
      <use x="438.003906" xlink:href="#DejaVuSans-101"/>
      <use x="499.527344" xlink:href="#DejaVuSans-115"/>
      <use x="551.626953" xlink:href="#DejaVuSans-115"/>
     </g>
    </g>
    <g id="line2d_38">
     <path d="M 46.82 143.434063 
L 66.82 143.434063 
" style="fill:none;stroke:#7f7f7f;stroke-linecap:square;stroke-width:1.5;"/>
    </g>
    <g id="line2d_39"/>
    <g id="text_17">
     <!-- short_excess -->
     <g transform="translate(74.82 146.934063)scale(0.1 -0.1)">
      <use xlink:href="#DejaVuSans-115"/>
      <use x="52.099609" xlink:href="#DejaVuSans-104"/>
      <use x="115.478516" xlink:href="#DejaVuSans-111"/>
      <use x="176.660156" xlink:href="#DejaVuSans-114"/>
      <use x="217.773438" xlink:href="#DejaVuSans-116"/>
      <use x="256.982422" xlink:href="#DejaVuSans-95"/>
      <use x="306.982422" xlink:href="#DejaVuSans-101"/>
      <use x="366.755859" xlink:href="#DejaVuSans-120"/>
      <use x="424.185547" xlink:href="#DejaVuSans-99"/>
      <use x="479.166016" xlink:href="#DejaVuSans-101"/>
      <use x="540.689453" xlink:href="#DejaVuSans-115"/>
      <use x="592.789062" xlink:href="#DejaVuSans-115"/>
     </g>
    </g>
    <g id="line2d_40">
     <path d="M 46.82 158.390313 
L 66.82 158.390313 
" style="fill:none;stroke:#bcbd22;stroke-linecap:square;stroke-width:1.5;"/>
    </g>
    <g id="line2d_41"/>
    <g id="text_18">
     <!-- long_short -->
     <g transform="translate(74.82 161.890313)scale(0.1 -0.1)">
      <use xlink:href="#DejaVuSans-108"/>
      <use x="27.783203" xlink:href="#DejaVuSans-111"/>
      <use x="88.964844" xlink:href="#DejaVuSans-110"/>
      <use x="152.34375" xlink:href="#DejaVuSans-103"/>
      <use x="215.820312" xlink:href="#DejaVuSans-95"/>
      <use x="265.820312" xlink:href="#DejaVuSans-115"/>
      <use x="317.919922" xlink:href="#DejaVuSans-104"/>
      <use x="381.298828" xlink:href="#DejaVuSans-111"/>
      <use x="442.480469" xlink:href="#DejaVuSans-114"/>
      <use x="483.59375" xlink:href="#DejaVuSans-116"/>
     </g>
    </g>
   </g>
  </g>
 </g>
 <defs>
  <clipPath id="p096d20788c">
   <rect height="334.18" width="1103.38" x="37.82" y="25.92"/>
  </clipPath>
 </defs>
</svg>
