<?xml version="1.0" encoding="utf-8" standalone="no"?>
<!DOCTYPE svg PUBLIC "-//W3C//DTD SVG 1.1//EN"
  "http://www.w3.org/Graphics/SVG/1.1/DTD/svg11.dtd">
<!-- Created with matplotlib (https://matplotlib.org/) -->
<svg height="360pt" version="1.1" viewBox="0 0 1152 360" width="1152pt" xmlns="http://www.w3.org/2000/svg" xmlns:xlink="http://www.w3.org/1999/xlink">
 <metadata>
  <rdf:RDF xmlns:cc="http://creativecommons.org/ns#" xmlns:dc="http://purl.org/dc/elements/1.1/" xmlns:rdf="http://www.w3.org/1999/02/22-rdf-syntax-ns#">
   <cc:Work>
    <dc:type rdf:resource="http://purl.org/dc/dcmitype/StillImage"/>
    <dc:date>2023-10-11T16:35:16.443117</dc:date>
    <dc:format>image/svg+xml</dc:format>
    <dc:creator>
     <cc:Agent>
      <dc:title>Matplotlib v3.3.4, https://matplotlib.org/</dc:title>
     </cc:Agent>
    </dc:creator>
   </cc:Work>
  </rdf:RDF>
 </metadata>
 <defs>
  <style type="text/css">*{stroke-linecap:butt;stroke-linejoin:round;}</style>
 </defs>
 <g id="figure_1">
  <g id="patch_1">
   <path d="M 0 360 
L 1152 360 
L 1152 0 
L 0 0 
z
" style="fill:#ffffff;"/>
  </g>
  <g id="axes_1">
   <g id="patch_2">
    <path d="M 50.9 345.7 
L 1141.2 345.7 
L 1141.2 25.92 
L 50.9 25.92 
z
" style="fill:#ffffff;"/>
   </g>
   <g id="matplotlib.axis_1"/>
   <g id="matplotlib.axis_2">
    <g id="ytick_1">
     <g id="line2d_1">
      <path clip-path="url(#p0d22f00b8b)" d="M 50.9 321.383856 
L 1141.2 321.383856 
" style="fill:none;stroke:#b0b0b0;stroke-linecap:square;stroke-width:0.8;"/>
     </g>
     <g id="line2d_2">
      <defs>
       <path d="M 0 0 
L -3.5 0 
" id="m6529076763" style="stroke:#000000;stroke-width:0.8;"/>
      </defs>
      <g>
       <use style="stroke:#000000;stroke-width:0.8;" x="50.9" xlink:href="#m6529076763" y="321.383856"/>
      </g>
     </g>
     <g id="text_1">
      <!-- -1.5 -->
      <g transform="translate(24.389062 325.183074)scale(0.1 -0.1)">
       <defs>
        <path d="M 4.890625 31.390625 
L 31.203125 31.390625 
L 31.203125 23.390625 
L 4.890625 23.390625 
z
" id="DejaVuSans-45"/>
        <path d="M 12.40625 8.296875 
L 28.515625 8.296875 
L 28.515625 63.921875 
L 10.984375 60.40625 
L 10.984375 69.390625 
L 28.421875 72.90625 
L 38.28125 72.90625 
L 38.28125 8.296875 
L 54.390625 8.296875 
L 54.390625 0 
L 12.40625 0 
z
" id="DejaVuSans-49"/>
        <path d="M 10.6875 12.40625 
L 21 12.40625 
L 21 0 
L 10.6875 0 
z
" id="DejaVuSans-46"/>
        <path d="M 10.796875 72.90625 
L 49.515625 72.90625 
L 49.515625 64.59375 
L 19.828125 64.59375 
L 19.828125 46.734375 
Q 21.96875 47.46875 24.109375 47.828125 
Q 26.265625 48.1875 28.421875 48.1875 
Q 40.625 48.1875 47.75 41.5 
Q 54.890625 34.8125 54.890625 23.390625 
Q 54.890625 11.625 47.5625 5.09375 
Q 40.234375 -1.421875 26.90625 -1.421875 
Q 22.3125 -1.421875 17.546875 -0.640625 
Q 12.796875 0.140625 7.71875 1.703125 
L 7.71875 11.625 
Q 12.109375 9.234375 16.796875 8.0625 
Q 21.484375 6.890625 26.703125 6.890625 
Q 35.15625 6.890625 40.078125 11.328125 
Q 45.015625 15.765625 45.015625 23.390625 
Q 45.015625 31 40.078125 35.4375 
Q 35.15625 39.890625 26.703125 39.890625 
Q 22.75 39.890625 18.8125 39.015625 
Q 14.890625 38.140625 10.796875 36.28125 
z
" id="DejaVuSans-53"/>
       </defs>
       <use xlink:href="#DejaVuSans-45"/>
       <use x="36.083984" xlink:href="#DejaVuSans-49"/>
       <use x="99.707031" xlink:href="#DejaVuSans-46"/>
       <use x="131.494141" xlink:href="#DejaVuSans-53"/>
      </g>
     </g>
    </g>
    <g id="ytick_2">
     <g id="line2d_3">
      <path clip-path="url(#p0d22f00b8b)" d="M 50.9 276.954919 
L 1141.2 276.954919 
" style="fill:none;stroke:#b0b0b0;stroke-linecap:square;stroke-width:0.8;"/>
     </g>
     <g id="line2d_4">
      <g>
       <use style="stroke:#000000;stroke-width:0.8;" x="50.9" xlink:href="#m6529076763" y="276.954919"/>
      </g>
     </g>
     <g id="text_2">
      <!-- -1.0 -->
      <g transform="translate(24.389062 280.754138)scale(0.1 -0.1)">
       <defs>
        <path d="M 31.78125 66.40625 
Q 24.171875 66.40625 20.328125 58.90625 
Q 16.5 51.421875 16.5 36.375 
Q 16.5 21.390625 20.328125 13.890625 
Q 24.171875 6.390625 31.78125 6.390625 
Q 39.453125 6.390625 43.28125 13.890625 
Q 47.125 21.390625 47.125 36.375 
Q 47.125 51.421875 43.28125 58.90625 
Q 39.453125 66.40625 31.78125 66.40625 
z
M 31.78125 74.21875 
Q 44.046875 74.21875 50.515625 64.515625 
Q 56.984375 54.828125 56.984375 36.375 
Q 56.984375 17.96875 50.515625 8.265625 
Q 44.046875 -1.421875 31.78125 -1.421875 
Q 19.53125 -1.421875 13.0625 8.265625 
Q 6.59375 17.96875 6.59375 36.375 
Q 6.59375 54.828125 13.0625 64.515625 
Q 19.53125 74.21875 31.78125 74.21875 
z
" id="DejaVuSans-48"/>
       </defs>
       <use xlink:href="#DejaVuSans-45"/>
       <use x="36.083984" xlink:href="#DejaVuSans-49"/>
       <use x="99.707031" xlink:href="#DejaVuSans-46"/>
       <use x="131.494141" xlink:href="#DejaVuSans-48"/>
      </g>
     </g>
    </g>
    <g id="ytick_3">
     <g id="line2d_5">
      <path clip-path="url(#p0d22f00b8b)" d="M 50.9 232.525983 
L 1141.2 232.525983 
" style="fill:none;stroke:#b0b0b0;stroke-linecap:square;stroke-width:0.8;"/>
     </g>
     <g id="line2d_6">
      <g>
       <use style="stroke:#000000;stroke-width:0.8;" x="50.9" xlink:href="#m6529076763" y="232.525983"/>
      </g>
     </g>
     <g id="text_3">
      <!-- -0.5 -->
      <g transform="translate(24.389062 236.325201)scale(0.1 -0.1)">
       <use xlink:href="#DejaVuSans-45"/>
       <use x="36.083984" xlink:href="#DejaVuSans-48"/>
       <use x="99.707031" xlink:href="#DejaVuSans-46"/>
       <use x="131.494141" xlink:href="#DejaVuSans-53"/>
      </g>
     </g>
    </g>
    <g id="ytick_4">
     <g id="line2d_7">
      <path clip-path="url(#p0d22f00b8b)" d="M 50.9 188.097046 
L 1141.2 188.097046 
" style="fill:none;stroke:#b0b0b0;stroke-linecap:square;stroke-width:0.8;"/>
     </g>
     <g id="line2d_8">
      <g>
       <use style="stroke:#000000;stroke-width:0.8;" x="50.9" xlink:href="#m6529076763" y="188.097046"/>
      </g>
     </g>
     <g id="text_4">
      <!-- 0.0 -->
      <g transform="translate(27.996875 191.896265)scale(0.1 -0.1)">
       <use xlink:href="#DejaVuSans-48"/>
       <use x="63.623047" xlink:href="#DejaVuSans-46"/>
       <use x="95.410156" xlink:href="#DejaVuSans-48"/>
      </g>
     </g>
    </g>
    <g id="ytick_5">
     <g id="line2d_9">
      <path clip-path="url(#p0d22f00b8b)" d="M 50.9 143.66811 
L 1141.2 143.66811 
" style="fill:none;stroke:#b0b0b0;stroke-linecap:square;stroke-width:0.8;"/>
     </g>
     <g id="line2d_10">
      <g>
       <use style="stroke:#000000;stroke-width:0.8;" x="50.9" xlink:href="#m6529076763" y="143.66811"/>
      </g>
     </g>
     <g id="text_5">
      <!-- 0.5 -->
      <g transform="translate(27.996875 147.467328)scale(0.1 -0.1)">
       <use xlink:href="#DejaVuSans-48"/>
       <use x="63.623047" xlink:href="#DejaVuSans-46"/>
       <use x="95.410156" xlink:href="#DejaVuSans-53"/>
      </g>
     </g>
    </g>
    <g id="ytick_6">
     <g id="line2d_11">
      <path clip-path="url(#p0d22f00b8b)" d="M 50.9 99.239173 
L 1141.2 99.239173 
" style="fill:none;stroke:#b0b0b0;stroke-linecap:square;stroke-width:0.8;"/>
     </g>
     <g id="line2d_12">
      <g>
       <use style="stroke:#000000;stroke-width:0.8;" x="50.9" xlink:href="#m6529076763" y="99.239173"/>
      </g>
     </g>
     <g id="text_6">
      <!-- 1.0 -->
      <g transform="translate(27.996875 103.038392)scale(0.1 -0.1)">
       <use xlink:href="#DejaVuSans-49"/>
       <use x="63.623047" xlink:href="#DejaVuSans-46"/>
       <use x="95.410156" xlink:href="#DejaVuSans-48"/>
      </g>
     </g>
    </g>
    <g id="ytick_7">
     <g id="line2d_13">
      <path clip-path="url(#p0d22f00b8b)" d="M 50.9 54.810237 
L 1141.2 54.810237 
" style="fill:none;stroke:#b0b0b0;stroke-linecap:square;stroke-width:0.8;"/>
     </g>
     <g id="line2d_14">
      <g>
       <use style="stroke:#000000;stroke-width:0.8;" x="50.9" xlink:href="#m6529076763" y="54.810237"/>
      </g>
     </g>
     <g id="text_7">
      <!-- 1.5 -->
      <g transform="translate(27.996875 58.609455)scale(0.1 -0.1)">
       <use xlink:href="#DejaVuSans-49"/>
       <use x="63.623047" xlink:href="#DejaVuSans-46"/>
       <use x="95.410156" xlink:href="#DejaVuSans-53"/>
      </g>
     </g>
    </g>
    <g id="text_8">
     <!-- log return cumsum -->
     <g transform="translate(18.309375 233.327969)rotate(-90)scale(0.1 -0.1)">
      <defs>
       <path d="M 9.421875 75.984375 
L 18.40625 75.984375 
L 18.40625 0 
L 9.421875 0 
z
" id="DejaVuSans-108"/>
       <path d="M 30.609375 48.390625 
Q 23.390625 48.390625 19.1875 42.75 
Q 14.984375 37.109375 14.984375 27.296875 
Q 14.984375 17.484375 19.15625 11.84375 
Q 23.34375 6.203125 30.609375 6.203125 
Q 37.796875 6.203125 41.984375 11.859375 
Q 46.1875 17.53125 46.1875 27.296875 
Q 46.1875 37.015625 41.984375 42.703125 
Q 37.796875 48.390625 30.609375 48.390625 
z
M 30.609375 56 
Q 42.328125 56 49.015625 48.375 
Q 55.71875 40.765625 55.71875 27.296875 
Q 55.71875 13.875 49.015625 6.21875 
Q 42.328125 -1.421875 30.609375 -1.421875 
Q 18.84375 -1.421875 12.171875 6.21875 
Q 5.515625 13.875 5.515625 27.296875 
Q 5.515625 40.765625 12.171875 48.375 
Q 18.84375 56 30.609375 56 
z
" id="DejaVuSans-111"/>
       <path d="M 45.40625 27.984375 
Q 45.40625 37.75 41.375 43.109375 
Q 37.359375 48.484375 30.078125 48.484375 
Q 22.859375 48.484375 18.828125 43.109375 
Q 14.796875 37.75 14.796875 27.984375 
Q 14.796875 18.265625 18.828125 12.890625 
Q 22.859375 7.515625 30.078125 7.515625 
Q 37.359375 7.515625 41.375 12.890625 
Q 45.40625 18.265625 45.40625 27.984375 
z
M 54.390625 6.78125 
Q 54.390625 -7.171875 48.1875 -13.984375 
Q 42 -20.796875 29.203125 -20.796875 
Q 24.46875 -20.796875 20.265625 -20.09375 
Q 16.0625 -19.390625 12.109375 -17.921875 
L 12.109375 -9.1875 
Q 16.0625 -11.328125 19.921875 -12.34375 
Q 23.78125 -13.375 27.78125 -13.375 
Q 36.625 -13.375 41.015625 -8.765625 
Q 45.40625 -4.15625 45.40625 5.171875 
L 45.40625 9.625 
Q 42.625 4.78125 38.28125 2.390625 
Q 33.9375 0 27.875 0 
Q 17.828125 0 11.671875 7.65625 
Q 5.515625 15.328125 5.515625 27.984375 
Q 5.515625 40.671875 11.671875 48.328125 
Q 17.828125 56 27.875 56 
Q 33.9375 56 38.28125 53.609375 
Q 42.625 51.21875 45.40625 46.390625 
L 45.40625 54.6875 
L 54.390625 54.6875 
z
" id="DejaVuSans-103"/>
       <path id="DejaVuSans-32"/>
       <path d="M 41.109375 46.296875 
Q 39.59375 47.171875 37.8125 47.578125 
Q 36.03125 48 33.890625 48 
Q 26.265625 48 22.1875 43.046875 
Q 18.109375 38.09375 18.109375 28.8125 
L 18.109375 0 
L 9.078125 0 
L 9.078125 54.6875 
L 18.109375 54.6875 
L 18.109375 46.1875 
Q 20.953125 51.171875 25.484375 53.578125 
Q 30.03125 56 36.53125 56 
Q 37.453125 56 38.578125 55.875 
Q 39.703125 55.765625 41.0625 55.515625 
z
" id="DejaVuSans-114"/>
       <path d="M 56.203125 29.59375 
L 56.203125 25.203125 
L 14.890625 25.203125 
Q 15.484375 15.921875 20.484375 11.0625 
Q 25.484375 6.203125 34.421875 6.203125 
Q 39.59375 6.203125 44.453125 7.46875 
Q 49.3125 8.734375 54.109375 11.28125 
L 54.109375 2.78125 
Q 49.265625 0.734375 44.1875 -0.34375 
Q 39.109375 -1.421875 33.890625 -1.421875 
Q 20.796875 -1.421875 13.15625 6.1875 
Q 5.515625 13.8125 5.515625 26.8125 
Q 5.515625 40.234375 12.765625 48.109375 
Q 20.015625 56 32.328125 56 
Q 43.359375 56 49.78125 48.890625 
Q 56.203125 41.796875 56.203125 29.59375 
z
M 47.21875 32.234375 
Q 47.125 39.59375 43.09375 43.984375 
Q 39.0625 48.390625 32.421875 48.390625 
Q 24.90625 48.390625 20.390625 44.140625 
Q 15.875 39.890625 15.1875 32.171875 
z
" id="DejaVuSans-101"/>
       <path d="M 18.3125 70.21875 
L 18.3125 54.6875 
L 36.8125 54.6875 
L 36.8125 47.703125 
L 18.3125 47.703125 
L 18.3125 18.015625 
Q 18.3125 11.328125 20.140625 9.421875 
Q 21.96875 7.515625 27.59375 7.515625 
L 36.8125 7.515625 
L 36.8125 0 
L 27.59375 0 
Q 17.1875 0 13.234375 3.875 
Q 9.28125 7.765625 9.28125 18.015625 
L 9.28125 47.703125 
L 2.6875 47.703125 
L 2.6875 54.6875 
L 9.28125 54.6875 
L 9.28125 70.21875 
z
" id="DejaVuSans-116"/>
       <path d="M 8.5 21.578125 
L 8.5 54.6875 
L 17.484375 54.6875 
L 17.484375 21.921875 
Q 17.484375 14.15625 20.5 10.265625 
Q 23.53125 6.390625 29.59375 6.390625 
Q 36.859375 6.390625 41.078125 11.03125 
Q 45.3125 15.671875 45.3125 23.6875 
L 45.3125 54.6875 
L 54.296875 54.6875 
L 54.296875 0 
L 45.3125 0 
L 45.3125 8.40625 
Q 42.046875 3.421875 37.71875 1 
Q 33.40625 -1.421875 27.6875 -1.421875 
Q 18.265625 -1.421875 13.375 4.4375 
Q 8.5 10.296875 8.5 21.578125 
z
M 31.109375 56 
z
" id="DejaVuSans-117"/>
       <path d="M 54.890625 33.015625 
L 54.890625 0 
L 45.90625 0 
L 45.90625 32.71875 
Q 45.90625 40.484375 42.875 44.328125 
Q 39.84375 48.1875 33.796875 48.1875 
Q 26.515625 48.1875 22.3125 43.546875 
Q 18.109375 38.921875 18.109375 30.90625 
L 18.109375 0 
L 9.078125 0 
L 9.078125 54.6875 
L 18.109375 54.6875 
L 18.109375 46.1875 
Q 21.34375 51.125 25.703125 53.5625 
Q 30.078125 56 35.796875 56 
Q 45.21875 56 50.046875 50.171875 
Q 54.890625 44.34375 54.890625 33.015625 
z
" id="DejaVuSans-110"/>
       <path d="M 48.78125 52.59375 
L 48.78125 44.1875 
Q 44.96875 46.296875 41.140625 47.34375 
Q 37.3125 48.390625 33.40625 48.390625 
Q 24.65625 48.390625 19.8125 42.84375 
Q 14.984375 37.3125 14.984375 27.296875 
Q 14.984375 17.28125 19.8125 11.734375 
Q 24.65625 6.203125 33.40625 6.203125 
Q 37.3125 6.203125 41.140625 7.25 
Q 44.96875 8.296875 48.78125 10.40625 
L 48.78125 2.09375 
Q 45.015625 0.34375 40.984375 -0.53125 
Q 36.96875 -1.421875 32.421875 -1.421875 
Q 20.0625 -1.421875 12.78125 6.34375 
Q 5.515625 14.109375 5.515625 27.296875 
Q 5.515625 40.671875 12.859375 48.328125 
Q 20.21875 56 33.015625 56 
Q 37.15625 56 41.109375 55.140625 
Q 45.0625 54.296875 48.78125 52.59375 
z
" id="DejaVuSans-99"/>
       <path d="M 52 44.1875 
Q 55.375 50.25 60.0625 53.125 
Q 64.75 56 71.09375 56 
Q 79.640625 56 84.28125 50.015625 
Q 88.921875 44.046875 88.921875 33.015625 
L 88.921875 0 
L 79.890625 0 
L 79.890625 32.71875 
Q 79.890625 40.578125 77.09375 44.375 
Q 74.3125 48.1875 68.609375 48.1875 
Q 61.625 48.1875 57.5625 43.546875 
Q 53.515625 38.921875 53.515625 30.90625 
L 53.515625 0 
L 44.484375 0 
L 44.484375 32.71875 
Q 44.484375 40.625 41.703125 44.40625 
Q 38.921875 48.1875 33.109375 48.1875 
Q 26.21875 48.1875 22.15625 43.53125 
Q 18.109375 38.875 18.109375 30.90625 
L 18.109375 0 
L 9.078125 0 
L 9.078125 54.6875 
L 18.109375 54.6875 
L 18.109375 46.1875 
Q 21.1875 51.21875 25.484375 53.609375 
Q 29.78125 56 35.6875 56 
Q 41.65625 56 45.828125 52.96875 
Q 50 49.953125 52 44.1875 
z
" id="DejaVuSans-109"/>
       <path d="M 44.28125 53.078125 
L 44.28125 44.578125 
Q 40.484375 46.53125 36.375 47.5 
Q 32.28125 48.484375 27.875 48.484375 
Q 21.1875 48.484375 17.84375 46.4375 
Q 14.5 44.390625 14.5 40.28125 
Q 14.5 37.15625 16.890625 35.375 
Q 19.28125 33.59375 26.515625 31.984375 
L 29.59375 31.296875 
Q 39.15625 29.25 43.1875 25.515625 
Q 47.21875 21.78125 47.21875 15.09375 
Q 47.21875 7.46875 41.1875 3.015625 
Q 35.15625 -1.421875 24.609375 -1.421875 
Q 20.21875 -1.421875 15.453125 -0.5625 
Q 10.6875 0.296875 5.421875 2 
L 5.421875 11.28125 
Q 10.40625 8.6875 15.234375 7.390625 
Q 20.0625 6.109375 24.8125 6.109375 
Q 31.15625 6.109375 34.5625 8.28125 
Q 37.984375 10.453125 37.984375 14.40625 
Q 37.984375 18.0625 35.515625 20.015625 
Q 33.0625 21.96875 24.703125 23.78125 
L 21.578125 24.515625 
Q 13.234375 26.265625 9.515625 29.90625 
Q 5.8125 33.546875 5.8125 39.890625 
Q 5.8125 47.609375 11.28125 51.796875 
Q 16.75 56 26.8125 56 
Q 31.78125 56 36.171875 55.265625 
Q 40.578125 54.546875 44.28125 53.078125 
z
" id="DejaVuSans-115"/>
      </defs>
      <use xlink:href="#DejaVuSans-108"/>
      <use x="27.783203" xlink:href="#DejaVuSans-111"/>
      <use x="88.964844" xlink:href="#DejaVuSans-103"/>
      <use x="152.441406" xlink:href="#DejaVuSans-32"/>
      <use x="184.228516" xlink:href="#DejaVuSans-114"/>
      <use x="223.091797" xlink:href="#DejaVuSans-101"/>
      <use x="284.615234" xlink:href="#DejaVuSans-116"/>
      <use x="323.824219" xlink:href="#DejaVuSans-117"/>
      <use x="387.203125" xlink:href="#DejaVuSans-114"/>
      <use x="426.566406" xlink:href="#DejaVuSans-110"/>
      <use x="489.945312" xlink:href="#DejaVuSans-32"/>
      <use x="521.732422" xlink:href="#DejaVuSans-99"/>
      <use x="576.712891" xlink:href="#DejaVuSans-117"/>
      <use x="640.091797" xlink:href="#DejaVuSans-109"/>
      <use x="737.503906" xlink:href="#DejaVuSans-115"/>
      <use x="789.603516" xlink:href="#DejaVuSans-117"/>
      <use x="852.982422" xlink:href="#DejaVuSans-109"/>
     </g>
    </g>
   </g>
   <g id="line2d_15">
    <path clip-path="url(#p0d22f00b8b)" d="M 100.459091 181.070637 
L 104.455792 185.686269 
L 108.452493 192.48142 
L 112.449194 184.795001 
L 124.439296 192.569973 
L 128.435997 188.285052 
L 132.432698 185.347607 
L 136.429399 184.412938 
L 140.4261 180.112507 
L 152.416202 179.582931 
L 156.412903 184.73323 
L 160.409604 181.727269 
L 164.406305 183.267861 
L 168.403006 187.901865 
L 180.393109 180.997135 
L 184.389809 182.666299 
L 188.38651 181.560548 
L 192.383211 187.618537 
L 196.379912 183.453214 
L 208.370015 189.552248 
L 212.366716 185.893384 
L 220.360117 182.013277 
L 224.356818 176.324419 
L 236.346921 175.258633 
L 240.343622 167.261377 
L 244.340323 165.385613 
L 248.337023 167.775692 
L 252.333724 171.660773 
L 264.323827 168.962859 
L 268.320528 177.221962 
L 272.317229 177.481229 
L 276.31393 174.295819 
L 280.31063 171.640125 
L 292.300733 168.2005 
L 296.297434 165.684009 
L 300.294135 168.873187 
L 304.290836 171.664383 
L 308.287537 170.684185 
L 320.277639 167.475085 
L 324.27434 167.565916 
L 328.271041 167.490177 
L 332.267742 160.208703 
L 336.264443 163.087899 
L 348.254545 164.919445 
L 352.251246 167.405693 
L 356.247947 167.916877 
L 360.244648 167.452991 
L 364.241349 175.389895 
L 376.231452 174.453273 
L 380.228152 176.368166 
L 384.224853 181.260478 
L 388.221554 181.125947 
L 392.218255 180.407997 
L 404.208358 176.492863 
L 408.205059 175.914678 
L 412.20176 174.225221 
L 416.19846 176.038197 
L 420.195161 172.913567 
L 432.185264 170.527704 
L 440.178666 170.995183 
L 444.175367 172.041544 
L 448.172067 176.665914 
L 460.16217 173.455728 
L 464.158871 167.821338 
L 468.155572 168.144112 
L 472.152273 169.773467 
L 476.148974 176.31316 
L 492.135777 175.612203 
L 496.132478 174.731953 
L 500.129179 170.066624 
L 504.12588 163.708604 
L 516.115982 164.408612 
L 520.112683 165.219721 
L 524.109384 164.96988 
L 528.106085 165.279258 
L 532.102786 162.592273 
L 548.089589 158.620951 
L 552.08629 162.014391 
L 556.082991 158.269714 
L 560.079692 155.900226 
L 572.069795 155.824039 
L 576.066496 154.342587 
L 580.063196 150.274253 
L 584.059897 148.734944 
L 588.056598 149.494995 
L 600.046701 143.20238 
L 604.043402 146.363609 
L 608.040103 145.645237 
L 612.036804 145.2774 
L 616.033504 147.666489 
L 628.023607 141.420851 
L 632.020308 141.139521 
L 636.017009 134.333121 
L 640.01371 139.748422 
L 644.010411 140.554727 
L 656.000513 137.575604 
L 659.997214 139.709417 
L 663.993915 147.621371 
L 667.990616 144.76521 
L 671.987317 139.585332 
L 683.977419 134.978869 
L 687.97412 131.823893 
L 691.970821 137.67808 
L 695.967522 136.501495 
L 699.964223 130.751969 
L 711.954326 124.423155 
L 715.951026 125.734527 
L 719.947727 130.220287 
L 723.944428 129.405924 
L 727.941129 125.448055 
L 739.931232 121.497661 
L 743.927933 126.121814 
L 747.924633 131.471106 
L 751.921334 125.861686 
L 755.918035 122.054058 
L 767.908138 127.054112 
L 771.904839 128.56795 
L 775.90154 125.212949 
L 779.89824 125.942843 
L 783.894941 123.595453 
L 795.885044 119.890771 
L 799.881745 119.091546 
L 803.878446 119.193026 
L 807.875147 120.247953 
L 811.871848 112.483495 
L 823.86195 111.952439 
L 827.858651 110.259813 
L 831.855352 107.750402 
L 835.852053 109.295504 
L 839.848754 108.860527 
L 851.838856 109.84766 
L 855.835557 112.683925 
L 859.832258 104.94657 
L 863.828959 103.856689 
L 867.82566 98.937576 
L 879.815762 105.444865 
L 883.812463 100.067039 
L 887.809164 95.960028 
L 891.805865 97.098946 
L 895.802566 91.710668 
L 907.792669 98.594859 
L 911.78937 103.594053 
L 915.78607 101.065083 
L 919.782771 99.866586 
L 923.779472 97.707613 
L 935.769575 97.406635 
L 939.766276 100.22273 
L 943.762977 102.064429 
L 947.759677 106.926898 
L 951.756378 106.574272 
L 967.743182 106.168533 
L 971.739883 107.923616 
L 975.736584 107.584374 
L 979.733284 103.593266 
L 991.723387 98.454603 
L 995.720088 102.094965 
L 999.716789 101.725423 
L 1003.71349 104.519321 
L 1007.710191 104.04131 
L 1019.700293 99.744645 
L 1027.693695 102.190941 
L 1031.690396 105.037458 
L 1035.687097 99.925711 
L 1047.677199 105.393285 
L 1051.6739 101.415318 
L 1055.670601 103.546478 
L 1059.667302 99.979459 
L 1063.664003 104.226721 
L 1075.654106 101.147661 
L 1079.650806 101.380963 
L 1083.647507 97.480807 
L 1087.644208 95.928633 
L 1091.640909 95.928633 
L 1091.640909 95.928633 
" style="fill:none;stroke:#9467bd;stroke-linecap:square;stroke-width:1.5;"/>
   </g>
   <g id="line2d_16">
    <path clip-path="url(#p0d22f00b8b)" d="M 100.459091 184.436764 
L 104.455792 184.681099 
L 108.452493 184.258987 
L 112.449194 185.813006 
L 124.439296 187.827223 
L 128.435997 180.894329 
L 132.432698 175.699955 
L 136.429399 174.995731 
L 140.4261 183.077429 
L 152.416202 181.516527 
L 156.412903 181.296155 
L 160.409604 185.5408 
L 164.406305 181.023629 
L 168.403006 178.149311 
L 180.393109 174.602522 
L 184.389809 171.579082 
L 188.38651 170.360228 
L 192.383211 174.764483 
L 196.379912 180.99151 
L 208.370015 188.409032 
L 212.366716 184.903142 
L 216.363416 186.516417 
L 220.360117 180.258939 
L 224.356818 180.471747 
L 236.346921 181.966778 
L 240.343622 178.974929 
L 244.340323 182.901443 
L 248.337023 180.452682 
L 252.333724 176.721524 
L 264.323827 177.955839 
L 268.320528 181.473679 
L 272.317229 179.779889 
L 276.31393 177.056639 
L 280.31063 180.352694 
L 292.300733 176.340097 
L 296.297434 182.465513 
L 300.294135 187.565349 
L 304.290836 187.399734 
L 308.287537 187.791425 
L 320.277639 191.511766 
L 324.27434 190.193955 
L 328.271041 193.913873 
L 332.267742 191.969454 
L 336.264443 195.02863 
L 348.254545 197.756027 
L 352.251246 202.497874 
L 356.247947 201.438941 
L 360.244648 198.915784 
L 364.241349 203.64402 
L 376.231452 207.402296 
L 380.228152 201.931375 
L 384.224853 203.925377 
L 388.221554 211.205978 
L 392.218255 212.96394 
L 404.208358 210.998362 
L 408.205059 211.929257 
L 412.20176 213.267458 
L 416.19846 215.734404 
L 420.195161 221.501302 
L 432.185264 226.989992 
L 436.181965 230.268862 
L 440.178666 225.626311 
L 444.175367 229.548779 
L 448.172067 230.180611 
L 460.16217 230.949594 
L 464.158871 232.550985 
L 468.155572 229.094741 
L 472.152273 228.284343 
L 476.148974 226.667759 
L 488.139076 219.668406 
L 492.135777 219.194997 
L 496.132478 220.647609 
L 500.129179 224.874291 
L 504.12588 230.87925 
L 516.115982 235.557039 
L 520.112683 227.447548 
L 524.109384 221.422462 
L 528.106085 220.392294 
L 532.102786 226.153686 
L 544.092889 228.455808 
L 548.089589 223.332449 
L 552.08629 215.595386 
L 556.082991 212.46016 
L 560.079692 214.923095 
L 572.069795 224.118747 
L 576.066496 229.042639 
L 580.063196 227.898743 
L 584.059897 222.270566 
L 588.056598 220.850042 
L 600.046701 225.523015 
L 604.043402 226.042666 
L 608.040103 223.9134 
L 612.036804 224.722223 
L 616.033504 229.266693 
L 628.023607 226.23697 
L 632.020308 225.483606 
L 636.017009 224.95308 
L 640.01371 228.078435 
L 644.010411 221.687312 
L 656.000513 221.888506 
L 659.997214 217.679799 
L 663.993915 220.222054 
L 667.990616 215.399176 
L 671.987317 217.094115 
L 683.977419 214.60903 
L 687.97412 209.747179 
L 691.970821 217.593972 
L 695.967522 213.147386 
L 699.964223 212.741949 
L 711.954326 210.460542 
L 715.951026 210.615951 
L 719.947727 204.366455 
L 723.944428 205.909883 
L 727.941129 211.161646 
L 739.931232 209.022123 
L 743.927933 209.271322 
L 747.924633 204.736035 
L 751.921334 205.425061 
L 755.918035 211.67642 
L 767.908138 213.510234 
L 775.90154 224.480397 
L 779.89824 226.01839 
L 783.894941 222.368628 
L 795.885044 216.25474 
L 799.881745 211.405271 
L 803.878446 208.639902 
L 807.875147 203.474354 
L 811.871848 201.139392 
L 823.86195 202.371466 
L 827.858651 197.233634 
L 831.855352 198.220139 
L 835.852053 199.584251 
L 839.848754 196.207607 
L 855.835557 193.844214 
L 859.832258 186.782256 
L 863.828959 186.306882 
L 867.82566 183.755054 
L 879.815762 183.067994 
L 883.812463 184.770853 
L 887.809164 191.189368 
L 891.805865 194.516822 
L 895.802566 196.6094 
L 907.792669 196.738029 
L 911.78937 194.841 
L 915.78607 197.383316 
L 919.782771 195.855726 
L 923.779472 195.13796 
L 935.769575 195.141718 
L 939.766276 193.86546 
L 943.762977 201.698777 
L 947.759677 198.897105 
L 951.756378 198.581499 
L 963.746481 200.098729 
L 967.743182 197.056048 
L 971.739883 197.029145 
L 975.736584 191.353945 
L 979.733284 192.533938 
L 991.723387 189.668755 
L 995.720088 188.236543 
L 999.716789 189.894052 
L 1003.71349 184.226199 
L 1007.710191 189.426341 
L 1019.700293 189.532784 
L 1023.696994 185.224477 
L 1027.693695 183.351286 
L 1031.690396 179.403412 
L 1035.687097 174.347384 
L 1047.677199 178.953888 
L 1051.6739 182.873087 
L 1055.670601 190.723372 
L 1059.667302 186.073213 
L 1063.664003 182.963791 
L 1075.654106 182.38446 
L 1079.650806 182.654469 
L 1083.647507 176.893488 
L 1091.640909 176.791123 
L 1091.640909 176.791123 
" style="fill:none;stroke:#1f77b4;stroke-linecap:square;stroke-width:1.5;"/>
   </g>
   <g id="line2d_17">
    <path clip-path="url(#p0d22f00b8b)" d="M 100.459091 191.869939 
L 104.455792 194.277216 
L 108.452493 195.061371 
L 112.449194 190.132602 
L 124.439296 195.636887 
L 128.435997 195.384278 
L 132.432698 193.756919 
L 136.429399 202.206513 
L 140.4261 200.315536 
L 152.416202 206.372676 
L 156.412903 214.459462 
L 160.409604 206.820068 
L 164.406305 198.907998 
L 168.403006 193.589671 
L 180.393109 197.131657 
L 184.389809 204.585749 
L 188.38651 201.370516 
L 192.383211 202.440517 
L 196.379912 209.424935 
L 208.370015 209.51069 
L 212.366716 218.19634 
L 216.363416 211.204509 
L 220.360117 215.598228 
L 224.356818 212.755899 
L 236.346921 216.166722 
L 240.343622 215.810796 
L 244.340323 214.984534 
L 248.337023 220.769454 
L 252.333724 212.793148 
L 264.323827 208.033392 
L 268.320528 200.547201 
L 272.317229 193.793764 
L 276.31393 192.070742 
L 280.31063 184.87293 
L 292.300733 192.504611 
L 296.297434 198.078707 
L 300.294135 206.55221 
L 304.290836 209.711882 
L 308.287537 211.712618 
L 320.277639 215.871951 
L 324.27434 210.213799 
L 328.271041 212.796696 
L 332.267742 216.777696 
L 336.264443 216.022141 
L 348.254545 222.644219 
L 352.251246 217.429741 
L 356.247947 225.331822 
L 360.244648 217.07487 
L 364.241349 212.363775 
L 376.231452 217.886177 
L 380.228152 227.139314 
L 384.224853 221.702819 
L 388.221554 218.100649 
L 392.218255 214.121281 
L 404.208358 209.426611 
L 408.205059 217.338521 
L 412.20176 219.890094 
L 416.19846 226.993192 
L 420.195161 220.763821 
L 432.185264 218.5992 
L 436.181965 221.656403 
L 440.178666 229.772259 
L 444.175367 233.196541 
L 448.172067 236.358921 
L 460.16217 232.369374 
L 464.158871 229.957785 
L 468.155572 223.329856 
L 472.152273 223.825018 
L 476.148974 230.856433 
L 488.139076 227.145324 
L 492.135777 222.627581 
L 496.132478 221.545208 
L 500.129179 216.855648 
L 504.12588 216.965979 
L 516.115982 216.562896 
L 520.112683 217.860028 
L 524.109384 226.721621 
L 528.106085 233.978426 
L 532.102786 242.722088 
L 544.092889 240.330339 
L 548.089589 243.692333 
L 552.08629 243.540149 
L 556.082991 236.577134 
L 560.079692 241.148188 
L 572.069795 242.75527 
L 576.066496 238.325975 
L 580.063196 243.281297 
L 584.059897 251.136203 
L 588.056598 254.953483 
L 600.046701 261.187789 
L 604.043402 253.861854 
L 608.040103 248.548163 
L 612.036804 246.208444 
L 616.033504 239.840716 
L 628.023607 234.601521 
L 632.020308 240.353907 
L 636.017009 233.63784 
L 640.01371 232.941402 
L 644.010411 227.6391 
L 656.000513 220.864847 
L 659.997214 224.159545 
L 663.993915 231.374697 
L 667.990616 236.346236 
L 671.987317 237.651181 
L 683.977419 232.172013 
L 687.97412 225.981964 
L 691.970821 235.206903 
L 695.967522 235.016112 
L 699.964223 236.496105 
L 711.954326 241.577233 
L 715.951026 248.603434 
L 719.947727 251.53717 
L 723.944428 243.99528 
L 727.941129 247.194136 
L 739.931232 246.860823 
L 743.927933 243.324181 
L 747.924633 245.781361 
L 755.918035 229.909084 
L 767.908138 234.433562 
L 771.904839 234.482474 
L 775.90154 238.093572 
L 779.89824 242.002005 
L 783.894941 250.638708 
L 795.885044 248.712605 
L 799.881745 248.665007 
L 803.878446 257.016379 
L 807.875147 261.039915 
L 811.871848 254.065408 
L 823.86195 258.8187 
L 827.858651 265.364786 
L 831.855352 265.552425 
L 835.852053 257.3155 
L 839.848754 262.022058 
L 851.838856 259.014419 
L 855.835557 254.48258 
L 859.832258 259.271958 
L 863.828959 255.30603 
L 867.82566 257.687358 
L 879.815762 255.366646 
L 883.812463 253.024746 
L 887.809164 252.391238 
L 891.805865 259.98812 
L 895.802566 254.220562 
L 907.792669 257.464067 
L 911.78937 263.21743 
L 915.78607 271.778013 
L 919.782771 270.177209 
L 923.779472 267.076351 
L 935.769575 276.111518 
L 939.766276 275.896864 
L 943.762977 280.895461 
L 947.759677 278.352256 
L 951.756378 284.336325 
L 963.746481 281.006248 
L 967.743182 283.042288 
L 971.739883 275.601342 
L 975.736584 282.288605 
L 979.733284 285.158972 
L 991.723387 292.308198 
L 995.720088 285.064192 
L 999.716789 278.599267 
L 1003.71349 283.00864 
L 1007.710191 280.210011 
L 1019.700293 274.744086 
L 1023.696994 273.768457 
L 1027.693695 273.243075 
L 1031.690396 277.953438 
L 1035.687097 285.495884 
L 1047.677199 278.703116 
L 1051.6739 271.857643 
L 1055.670601 269.523157 
L 1059.667302 272.430912 
L 1063.664003 275.151935 
L 1075.654106 271.224437 
L 1083.647507 257.807562 
L 1087.644208 252.967952 
L 1087.644208 252.967952 
" style="fill:none;stroke:#8c564b;stroke-linecap:square;stroke-width:1.5;"/>
   </g>
   <g id="line2d_18">
    <path clip-path="url(#p0d22f00b8b)" d="M 100.459091 177.721482 
L 104.455792 179.870095 
L 108.452493 185.826467 
L 112.449194 182.914084 
L 124.439296 185.046732 
L 128.435997 181.003197 
L 132.432698 179.669078 
L 136.429399 171.096347 
L 140.4261 168.63578 
L 152.416202 162.468388 
L 156.412903 159.783526 
L 160.409604 164.845001 
L 168.403006 185.83564 
L 180.393109 175.774906 
L 184.389809 170.441784 
L 188.38651 172.629958 
L 192.383211 177.556556 
L 196.379912 167.202466 
L 208.370015 173.209745 
L 212.366716 161.945037 
L 216.363416 167.389062 
L 220.360117 161.380856 
L 224.356818 158.443314 
L 236.346921 154.13126 
L 240.343622 146.460548 
L 244.340323 145.4013 
L 248.337023 142.216645 
L 252.333724 155.277854 
L 264.323827 157.454553 
L 268.320528 174.7271 
L 272.317229 182.317879 
L 276.31393 180.827098 
L 280.31063 185.763292 
L 292.300733 175.552849 
L 296.297434 167.933715 
L 300.294135 163.117241 
L 304.290836 162.761611 
L 308.287537 159.84597 
L 320.277639 152.801493 
L 324.27434 158.941813 
L 328.271041 156.358249 
L 332.267742 145.560441 
L 336.264443 149.22688 
L 348.254545 144.771904 
L 352.251246 152.960154 
L 356.247947 146.174762 
L 360.244648 154.76453 
L 364.241349 168.155721 
L 376.231452 162.072885 
L 380.228152 155.433947 
L 384.224853 166.456509 
L 388.221554 170.070566 
L 392.218255 173.484267 
L 404.208358 174.306293 
L 408.205059 166.50869 
L 412.20176 162.384967 
L 416.19846 157.490282 
L 420.195161 160.824774 
L 432.185264 160.598083 
L 436.181965 157.851494 
L 440.178666 150.646532 
L 444.175367 148.357356 
L 448.172067 149.767823 
L 460.16217 150.583137 
L 464.158871 147.273305 
L 468.155572 154.785671 
L 472.152273 155.913522 
L 476.148974 155.459115 
L 488.139076 158.696413 
L 492.135777 163.358742 
L 496.132478 163.563345 
L 500.129179 163.588889 
L 504.12588 157.12828 
L 516.115982 158.236418 
L 520.112683 157.757418 
L 524.109384 149.471771 
L 528.106085 143.049971 
L 532.102786 132.630228 
L 544.092889 132.0187 
L 548.089589 127.830101 
L 556.082991 134.867812 
L 560.079692 128.262667 
L 572.069795 126.609289 
L 576.066496 129.710457 
L 584.059897 112.516659 
L 588.056598 109.58589 
L 600.046701 97.854174 
L 604.043402 109.303126 
L 608.040103 114.189554 
L 612.036804 116.214651 
L 616.033504 125.65781 
L 628.023607 124.590607 
L 632.020308 118.923319 
L 636.017009 118.825898 
L 640.01371 124.987433 
L 644.010411 131.485711 
L 656.000513 135.58853 
L 659.997214 134.469635 
L 663.993915 135.111897 
L 667.990616 127.692841 
L 671.987317 121.299237 
L 683.977419 122.22774 
L 687.97412 125.485843 
L 691.970821 122.441854 
L 695.967522 121.453954 
L 699.964223 114.339195 
L 711.954326 103.526375 
L 715.951026 98.233351 
L 719.947727 99.734541 
L 723.944428 107.083313 
L 727.941129 100.170055 
L 739.931232 96.539654 
L 743.927933 105.048181 
L 747.924633 107.860152 
L 751.921334 110.49282 
L 755.918035 114.929807 
L 767.908138 115.381713 
L 771.904839 116.845826 
L 775.90154 110.146954 
L 779.89824 107.102878 
L 783.894941 97.080982 
L 795.885044 95.263826 
L 799.881745 94.511798 
L 803.878446 86.971466 
L 807.875147 84.132203 
L 811.871848 83.278059 
L 823.86195 78.261337 
L 827.858651 70.583205 
L 831.855352 67.891759 
L 835.852053 78.683907 
L 839.848754 73.800465 
L 851.838856 77.936015 
L 855.835557 85.706994 
L 859.832258 73.795465 
L 863.828959 76.805032 
L 867.82566 69.690116 
L 879.815762 78.764055 
L 883.812463 75.648456 
L 887.809164 72.150583 
L 891.805865 66.204497 
L 895.802566 66.609269 
L 907.792669 70.116849 
L 911.78937 69.409776 
L 915.78607 59.282946 
L 919.782771 59.692583 
L 923.779472 60.668102 
L 935.769575 52.192954 
L 939.766276 55.23116 
L 943.762977 52.244078 
L 947.759677 59.87427 
L 951.756378 53.936786 
L 963.746481 57.105747 
L 967.743182 54.992073 
L 971.739883 65.038429 
L 979.733284 51.85172 
L 991.723387 40.455455 
L 995.720088 52.328816 
L 999.716789 58.90163 
L 1003.71349 57.36369 
L 1007.710191 59.75957 
L 1019.700293 61.003534 
L 1023.696994 63.264369 
L 1027.693695 64.98609 
L 1031.690396 63.217523 
L 1035.687097 51.528377 
L 1047.677199 64.8393 
L 1051.6739 67.9405 
L 1055.670601 72.528143 
L 1059.667302 66.254633 
L 1063.664003 67.734458 
L 1075.654106 68.621429 
L 1079.650806 76.228197 
L 1083.647507 79.16843 
L 1087.644208 82.643525 
L 1087.644208 82.643525 
" style="fill:none;stroke:#e377c2;stroke-linecap:square;stroke-width:1.5;"/>
   </g>
   <g id="line2d_19">
    <path clip-path="url(#p0d22f00b8b)" d="M 100.459091 195.856853 
L 104.455792 198.013782 
L 108.452493 199.225833 
L 112.449194 192.8515 
L 124.439296 196.261824 
L 128.435997 203.506881 
L 132.432698 207.293267 
L 136.429399 216.523837 
L 140.4261 207.375087 
L 152.416202 215.1342 
L 156.412903 223.462983 
L 160.409604 212.099336 
L 164.406305 208.530901 
L 168.403006 206.007673 
L 180.393109 213.397459 
L 184.389809 224.26071 
L 188.38651 222.23707 
L 192.383211 219.061203 
L 196.379912 219.76713 
L 208.370015 213.000766 
L 212.366716 225.719754 
L 216.363416 217.262332 
L 220.360117 228.742992 
L 224.356818 225.69504 
L 236.346921 227.578528 
L 240.343622 230.306112 
L 244.340323 225.75361 
L 248.337023 234.228675 
L 252.333724 229.805935 
L 264.323827 223.89186 
L 268.320528 213.290485 
L 272.317229 208.136238 
L 276.31393 209.167775 
L 280.31063 199.035065 
L 292.300733 211.255921 
L 296.297434 210.741221 
L 300.294135 213.923303 
L 304.290836 217.254911 
L 308.287537 218.856815 
L 320.277639 219.277764 
L 324.27434 214.874154 
L 328.271041 213.783466 
L 332.267742 219.844549 
L 336.264443 216.156273 
L 348.254545 219.93069 
L 352.251246 210.465172 
L 356.247947 219.539289 
L 360.244648 213.645706 
L 364.241349 204.671655 
L 376.231452 206.362023 
L 380.228152 222.108918 
L 384.224853 214.836743 
L 388.221554 204.763427 
L 392.218255 199.135004 
L 404.208358 196.345819 
L 408.205059 203.25118 
L 412.20176 204.446292 
L 416.19846 208.952228 
L 420.195161 197.663934 
L 432.185264 190.45096 
L 436.181965 190.237315 
L 440.178666 203.73466 
L 444.175367 203.257929 
L 448.172067 205.770291 
L 460.16217 201.051695 
L 464.158871 197.108821 
L 468.155572 193.813644 
L 472.152273 195.131254 
L 476.148974 203.946166 
L 488.139076 207.509373 
L 492.135777 203.443921 
L 496.132478 200.949468 
L 500.129179 192.428189 
L 504.12588 186.907038 
L 516.115982 182.079775 
L 520.112683 192.439672 
L 524.109384 208.470686 
L 528.106085 216.858999 
L 532.102786 219.651066 
L 544.092889 215.074203 
L 548.089589 224.089591 
L 552.08629 232.397751 
L 556.082991 228.435514 
L 560.079692 230.485334 
L 572.069795 223.614739 
L 576.066496 214.741406 
L 580.063196 220.922462 
L 584.059897 235.362719 
L 588.056598 240.68751 
L 600.046701 242.168185 
L 604.043402 234.366395 
L 612.036804 227.985635 
L 616.033504 217.58689 
L 628.023607 215.301762 
L 632.020308 221.865001 
L 636.017009 215.643686 
L 640.01371 211.951273 
L 644.010411 213.121829 
L 656.000513 206.161555 
L 659.997214 214.045529 
L 663.993915 218.583202 
L 667.990616 228.957047 
L 671.987317 228.574406 
L 683.977419 225.496859 
L 687.97412 224.09455 
L 691.970821 225.355384 
L 695.967522 229.83516 
L 699.964223 231.729306 
L 711.954326 239.291701 
L 715.951026 246.150011 
L 719.947727 256.040976 
L 723.944428 247.104497 
L 727.941129 245.168133 
L 739.931232 247.018822 
L 743.927933 243.243361 
L 747.924633 250.617598 
L 751.921334 241.98062 
L 755.918035 228.759854 
L 767.908138 231.394735 
L 771.904839 226.316143 
L 775.90154 224.510335 
L 779.89824 226.839563 
L 783.894941 239.680232 
L 795.885044 244.173968 
L 799.881745 249.25303 
L 803.878446 260.744897 
L 807.875147 270.515342 
L 811.871848 265.755516 
L 823.86195 269.227289 
L 827.858651 281.657616 
L 831.855352 280.867531 
L 835.852053 271.405242 
L 839.848754 279.81681 
L 851.838856 278.590409 
L 855.835557 274.591755 
L 859.832258 287.49803 
L 863.828959 283.989117 
L 867.82566 289.070184 
L 879.815762 287.423969 
L 883.812463 283.454296 
L 887.809164 276.875967 
L 891.805865 280.98479 
L 895.802566 273.299911 
L 907.792669 276.4102 
L 911.78937 284.233159 
L 915.78607 290.075971 
L 919.782771 290.001487 
L 923.779472 287.599326 
L 935.769575 296.630333 
L 939.766276 297.707389 
L 943.762977 295.108403 
L 947.759677 295.375163 
L 951.756378 301.69807 
L 963.746481 296.930664 
L 967.743182 302.191644 
L 971.739883 294.775447 
L 975.736584 308.017015 
L 979.733284 309.684878 
L 991.723387 320.047349 
L 995.720088 314.14419 
L 999.716789 306.165323 
L 1003.71349 316.948169 
L 1007.710191 309.385271 
L 1019.700293 303.81937 
L 1023.696994 307.32092 
L 1027.693695 308.697668 
L 1031.690396 317.77002 
L 1035.687097 331.164545 
L 1047.677199 320.307411 
L 1051.6739 309.981259 
L 1055.670601 300.613902 
L 1059.667302 308.596657 
L 1063.664003 314.641964 
L 1075.654106 311.272306 
L 1079.650806 304.231864 
L 1083.647507 303.309369 
L 1087.644208 298.566807 
L 1087.644208 298.566807 
" style="fill:none;stroke:#7f7f7f;stroke-linecap:square;stroke-width:1.5;"/>
   </g>
   <g id="line2d_20">
    <path clip-path="url(#p0d22f00b8b)" d="M 100.459091 184.59212 
L 104.455792 188.951115 
L 108.452493 196.204185 
L 112.449194 187.116029 
L 124.439296 192.743492 
L 128.435997 195.609841 
L 132.432698 198.004482 
L 136.429399 197.772206 
L 140.4261 186.400637 
L 152.416202 187.450348 
L 156.412903 192.834766 
L 160.409604 185.909536 
L 164.406305 192.294833 
L 168.403006 200.061104 
L 180.393109 196.569071 
L 184.389809 201.428613 
L 188.38651 201.543279 
L 192.383211 203.116331 
L 196.379912 193.390248 
L 208.370015 192.176637 
L 212.366716 192.017513 
L 216.363416 188.495854 
L 220.360117 193.170638 
L 224.356818 187.282631 
L 236.346921 184.76394 
L 240.343622 179.592025 
L 244.340323 174.032879 
L 248.337023 179.010781 
L 252.333724 186.968699 
L 264.323827 183.089548 
L 268.320528 187.641976 
L 272.317229 189.633043 
L 276.31393 189.156537 
L 280.31063 183.414665 
L 292.300733 184.014193 
L 296.297434 175.922539 
L 300.294135 174.117378 
L 304.290836 177.079798 
L 308.287537 175.713898 
L 320.277639 169.058217 
L 324.27434 170.488074 
L 328.271041 166.844892 
L 332.267742 161.393312 
L 336.264443 161.219417 
L 348.254545 160.350514 
L 352.251246 158.210728 
L 356.247947 159.799837 
L 360.244648 161.919133 
L 364.241349 164.95865 
L 376.231452 160.453339 
L 380.228152 168.329579 
L 384.224853 171.162538 
L 388.221554 164.308835 
L 392.218255 161.880769 
L 404.208358 159.888093 
L 408.205059 158.394609 
L 412.20176 155.411454 
L 416.19846 154.775327 
L 420.195161 146.417085 
L 432.185264 138.995074 
L 436.181965 136.041335 
L 440.178666 141.205642 
L 444.175367 138.451829 
L 448.172067 142.415439 
L 460.16217 138.469807 
L 464.158871 131.358226 
L 468.155572 135.290494 
L 472.152273 137.752913 
L 476.148974 146.066161 
L 488.139076 153.001666 
L 492.135777 153.384727 
L 496.132478 151.089207 
L 500.129179 142.591136 
L 504.12588 130.985569 
L 516.115982 127.207503 
L 520.112683 137.029347 
L 524.109384 143.224216 
L 528.106085 144.579502 
L 532.102786 136.638535 
L 544.092889 131.480745 
L 548.089589 135.871707 
L 552.08629 148.087569 
L 556.082991 147.456309 
L 560.079692 142.752556 
L 572.069795 134.350553 
L 576.066496 128.278968 
L 580.063196 125.317264 
L 584.059897 129.680164 
L 588.056598 131.896321 
L 600.046701 121.460802 
L 604.043402 124.086747 
L 608.040103 125.532138 
L 612.036804 124.36607 
L 616.033504 122.316921 
L 628.023607 118.991526 
L 632.020308 119.46759 
L 636.017009 113.155438 
L 640.01371 115.365249 
L 644.010411 123.123528 
L 656.000513 119.950276 
L 659.997214 126.612254 
L 663.993915 131.825968 
L 667.990616 133.903673 
L 671.987317 127.153939 
L 683.977419 124.973127 
L 687.97412 126.776977 
L 691.970821 124.951069 
L 695.967522 128.39216 
L 699.964223 123.024354 
L 711.954326 118.874107 
L 715.951026 120.028037 
L 719.947727 131.598628 
L 723.944428 129.280914 
L 727.941129 120.574781 
L 739.931232 118.720236 
L 743.927933 123.082631 
L 747.924633 133.516395 
L 751.921334 127.264928 
L 755.918035 117.854396 
L 767.908138 120.95482 
L 771.904839 117.258372 
L 775.90154 108.883595 
L 779.89824 108.089302 
L 783.894941 109.4467 
L 795.885044 112.030026 
L 799.881745 116.313019 
L 803.878446 119.272017 
L 807.875147 125.879003 
L 811.871848 120.30938 
L 823.86195 118.570294 
L 827.858651 122.22485 
L 831.855352 118.766789 
L 835.852053 118.94502 
L 839.848754 122.002605 
L 851.838856 124.853748 
L 855.835557 128.269445 
L 859.832258 127.538409 
L 863.828959 126.920617 
L 867.82566 124.485299 
L 879.815762 131.737834 
L 883.812463 124.786428 
L 887.809164 114.955318 
L 891.805865 112.846273 
L 895.802566 105.532561 
L 907.792669 112.277969 
L 911.78937 119.329065 
L 915.78607 114.396922 
L 919.782771 114.731731 
L 923.779472 113.278931 
L 935.769575 112.974207 
L 939.766276 117.127168 
L 943.762977 111.625813 
L 947.759677 119.546722 
L 951.756378 119.50957 
L 963.746481 117.742757 
L 967.743182 120.762753 
L 971.739883 122.545284 
L 975.736584 128.244681 
L 979.733284 123.139874 
L 991.723387 120.792868 
L 995.720088 125.950302 
L 999.716789 123.960296 
L 1003.71349 133.008703 
L 1007.710191 127.643765 
L 1019.700293 123.245799 
L 1023.696994 129.100267 
L 1027.693695 132.225886 
L 1031.690396 139.34164 
L 1035.687097 139.28266 
L 1047.677199 140.100028 
L 1051.6739 132.529504 
L 1055.670601 127.279971 
L 1059.667302 128.42168 
L 1063.664003 136.051928 
L 1075.654106 133.536076 
L 1079.650806 133.499481 
L 1083.647507 135.48635 
L 1087.644208 134.034884 
L 1091.640909 134.034884 
L 1091.640909 134.034884 
" style="fill:none;stroke:#bcbd22;stroke-linecap:square;stroke-width:1.5;"/>
   </g>
   <g id="patch_3">
    <path d="M 50.9 345.7 
L 50.9 25.92 
" style="fill:none;stroke:#000000;stroke-linecap:square;stroke-linejoin:miter;stroke-width:0.8;"/>
   </g>
   <g id="patch_4">
    <path d="M 1141.2 345.7 
L 1141.2 25.92 
" style="fill:none;stroke:#000000;stroke-linecap:square;stroke-linejoin:miter;stroke-width:0.8;"/>
   </g>
   <g id="patch_5">
    <path d="M 50.9 345.7 
L 1141.2 345.7 
" style="fill:none;stroke:#000000;stroke-linecap:square;stroke-linejoin:miter;stroke-width:0.8;"/>
   </g>
   <g id="patch_6">
    <path d="M 50.9 25.92 
L 1141.2 25.92 
" style="fill:none;stroke:#000000;stroke-linecap:square;stroke-linejoin:miter;stroke-width:0.8;"/>
   </g>
   <g id="text_9">
    <!-- Cumulative Log Return: (2010-02-02 ~ 2010-10-08) -->
    <g transform="translate(440.172812 19.92)scale(0.12 -0.12)">
     <defs>
      <path d="M 64.40625 67.28125 
L 64.40625 56.890625 
Q 59.421875 61.53125 53.78125 63.8125 
Q 48.140625 66.109375 41.796875 66.109375 
Q 29.296875 66.109375 22.65625 58.46875 
Q 16.015625 50.828125 16.015625 36.375 
Q 16.015625 21.96875 22.65625 14.328125 
Q 29.296875 6.6875 41.796875 6.6875 
Q 48.140625 6.6875 53.78125 8.984375 
Q 59.421875 11.28125 64.40625 15.921875 
L 64.40625 5.609375 
Q 59.234375 2.09375 53.4375 0.328125 
Q 47.65625 -1.421875 41.21875 -1.421875 
Q 24.65625 -1.421875 15.125 8.703125 
Q 5.609375 18.84375 5.609375 36.375 
Q 5.609375 53.953125 15.125 64.078125 
Q 24.65625 74.21875 41.21875 74.21875 
Q 47.75 74.21875 53.53125 72.484375 
Q 59.328125 70.75 64.40625 67.28125 
z
" id="DejaVuSans-67"/>
      <path d="M 34.28125 27.484375 
Q 23.390625 27.484375 19.1875 25 
Q 14.984375 22.515625 14.984375 16.5 
Q 14.984375 11.71875 18.140625 8.90625 
Q 21.296875 6.109375 26.703125 6.109375 
Q 34.1875 6.109375 38.703125 11.40625 
Q 43.21875 16.703125 43.21875 25.484375 
L 43.21875 27.484375 
z
M 52.203125 31.203125 
L 52.203125 0 
L 43.21875 0 
L 43.21875 8.296875 
Q 40.140625 3.328125 35.546875 0.953125 
Q 30.953125 -1.421875 24.3125 -1.421875 
Q 15.921875 -1.421875 10.953125 3.296875 
Q 6 8.015625 6 15.921875 
Q 6 25.140625 12.171875 29.828125 
Q 18.359375 34.515625 30.609375 34.515625 
L 43.21875 34.515625 
L 43.21875 35.40625 
Q 43.21875 41.609375 39.140625 45 
Q 35.0625 48.390625 27.6875 48.390625 
Q 23 48.390625 18.546875 47.265625 
Q 14.109375 46.140625 10.015625 43.890625 
L 10.015625 52.203125 
Q 14.9375 54.109375 19.578125 55.046875 
Q 24.21875 56 28.609375 56 
Q 40.484375 56 46.34375 49.84375 
Q 52.203125 43.703125 52.203125 31.203125 
z
" id="DejaVuSans-97"/>
      <path d="M 9.421875 54.6875 
L 18.40625 54.6875 
L 18.40625 0 
L 9.421875 0 
z
M 9.421875 75.984375 
L 18.40625 75.984375 
L 18.40625 64.59375 
L 9.421875 64.59375 
z
" id="DejaVuSans-105"/>
      <path d="M 2.984375 54.6875 
L 12.5 54.6875 
L 29.59375 8.796875 
L 46.6875 54.6875 
L 56.203125 54.6875 
L 35.6875 0 
L 23.484375 0 
z
" id="DejaVuSans-118"/>
      <path d="M 9.8125 72.90625 
L 19.671875 72.90625 
L 19.671875 8.296875 
L 55.171875 8.296875 
L 55.171875 0 
L 9.8125 0 
z
" id="DejaVuSans-76"/>
      <path d="M 44.390625 34.1875 
Q 47.5625 33.109375 50.5625 29.59375 
Q 53.5625 26.078125 56.59375 19.921875 
L 66.609375 0 
L 56 0 
L 46.6875 18.703125 
Q 43.0625 26.03125 39.671875 28.421875 
Q 36.28125 30.8125 30.421875 30.8125 
L 19.671875 30.8125 
L 19.671875 0 
L 9.8125 0 
L 9.8125 72.90625 
L 32.078125 72.90625 
Q 44.578125 72.90625 50.734375 67.671875 
Q 56.890625 62.453125 56.890625 51.90625 
Q 56.890625 45.015625 53.6875 40.46875 
Q 50.484375 35.9375 44.390625 34.1875 
z
M 19.671875 64.796875 
L 19.671875 38.921875 
L 32.078125 38.921875 
Q 39.203125 38.921875 42.84375 42.21875 
Q 46.484375 45.515625 46.484375 51.90625 
Q 46.484375 58.296875 42.84375 61.546875 
Q 39.203125 64.796875 32.078125 64.796875 
z
" id="DejaVuSans-82"/>
      <path d="M 11.71875 12.40625 
L 22.015625 12.40625 
L 22.015625 0 
L 11.71875 0 
z
M 11.71875 51.703125 
L 22.015625 51.703125 
L 22.015625 39.3125 
L 11.71875 39.3125 
z
" id="DejaVuSans-58"/>
      <path d="M 31 75.875 
Q 24.46875 64.65625 21.28125 53.65625 
Q 18.109375 42.671875 18.109375 31.390625 
Q 18.109375 20.125 21.3125 9.0625 
Q 24.515625 -2 31 -13.1875 
L 23.1875 -13.1875 
Q 15.875 -1.703125 12.234375 9.375 
Q 8.59375 20.453125 8.59375 31.390625 
Q 8.59375 42.28125 12.203125 53.3125 
Q 15.828125 64.359375 23.1875 75.875 
z
" id="DejaVuSans-40"/>
      <path d="M 19.1875 8.296875 
L 53.609375 8.296875 
L 53.609375 0 
L 7.328125 0 
L 7.328125 8.296875 
Q 12.9375 14.109375 22.625 23.890625 
Q 32.328125 33.6875 34.8125 36.53125 
Q 39.546875 41.84375 41.421875 45.53125 
Q 43.3125 49.21875 43.3125 52.78125 
Q 43.3125 58.59375 39.234375 62.25 
Q 35.15625 65.921875 28.609375 65.921875 
Q 23.96875 65.921875 18.8125 64.3125 
Q 13.671875 62.703125 7.8125 59.421875 
L 7.8125 69.390625 
Q 13.765625 71.78125 18.9375 73 
Q 24.125 74.21875 28.421875 74.21875 
Q 39.75 74.21875 46.484375 68.546875 
Q 53.21875 62.890625 53.21875 53.421875 
Q 53.21875 48.921875 51.53125 44.890625 
Q 49.859375 40.875 45.40625 35.40625 
Q 44.1875 33.984375 37.640625 27.21875 
Q 31.109375 20.453125 19.1875 8.296875 
z
" id="DejaVuSans-50"/>
      <path d="M 73.1875 39.890625 
L 73.1875 31.203125 
Q 68.0625 27.34375 63.6875 25.6875 
Q 59.328125 24.03125 54.59375 24.03125 
Q 49.21875 24.03125 42.09375 26.90625 
Q 41.546875 27.09375 41.3125 27.203125 
Q 40.96875 27.34375 40.234375 27.59375 
Q 32.671875 30.609375 28.078125 30.609375 
Q 23.78125 30.609375 19.578125 28.734375 
Q 15.375 26.859375 10.59375 22.796875 
L 10.59375 31.5 
Q 15.71875 35.359375 20.09375 37.03125 
Q 24.46875 38.71875 29.203125 38.71875 
Q 34.578125 38.71875 41.75 35.796875 
Q 42.234375 35.59375 42.484375 35.5 
Q 42.875 35.359375 43.5625 35.109375 
Q 51.125 32.078125 55.71875 32.078125 
Q 59.90625 32.078125 64.03125 33.9375 
Q 68.171875 35.796875 73.1875 39.890625 
z
" id="DejaVuSans-126"/>
      <path d="M 31.78125 34.625 
Q 24.75 34.625 20.71875 30.859375 
Q 16.703125 27.09375 16.703125 20.515625 
Q 16.703125 13.921875 20.71875 10.15625 
Q 24.75 6.390625 31.78125 6.390625 
Q 38.8125 6.390625 42.859375 10.171875 
Q 46.921875 13.96875 46.921875 20.515625 
Q 46.921875 27.09375 42.890625 30.859375 
Q 38.875 34.625 31.78125 34.625 
z
M 21.921875 38.8125 
Q 15.578125 40.375 12.03125 44.71875 
Q 8.5 49.078125 8.5 55.328125 
Q 8.5 64.0625 14.71875 69.140625 
Q 20.953125 74.21875 31.78125 74.21875 
Q 42.671875 74.21875 48.875 69.140625 
Q 55.078125 64.0625 55.078125 55.328125 
Q 55.078125 49.078125 51.53125 44.71875 
Q 48 40.375 41.703125 38.8125 
Q 48.828125 37.15625 52.796875 32.3125 
Q 56.78125 27.484375 56.78125 20.515625 
Q 56.78125 9.90625 50.3125 4.234375 
Q 43.84375 -1.421875 31.78125 -1.421875 
Q 19.734375 -1.421875 13.25 4.234375 
Q 6.78125 9.90625 6.78125 20.515625 
Q 6.78125 27.484375 10.78125 32.3125 
Q 14.796875 37.15625 21.921875 38.8125 
z
M 18.3125 54.390625 
Q 18.3125 48.734375 21.84375 45.5625 
Q 25.390625 42.390625 31.78125 42.390625 
Q 38.140625 42.390625 41.71875 45.5625 
Q 45.3125 48.734375 45.3125 54.390625 
Q 45.3125 60.0625 41.71875 63.234375 
Q 38.140625 66.40625 31.78125 66.40625 
Q 25.390625 66.40625 21.84375 63.234375 
Q 18.3125 60.0625 18.3125 54.390625 
z
" id="DejaVuSans-56"/>
      <path d="M 8.015625 75.875 
L 15.828125 75.875 
Q 23.140625 64.359375 26.78125 53.3125 
Q 30.421875 42.28125 30.421875 31.390625 
Q 30.421875 20.453125 26.78125 9.375 
Q 23.140625 -1.703125 15.828125 -13.1875 
L 8.015625 -13.1875 
Q 14.5 -2 17.703125 9.0625 
Q 20.90625 20.125 20.90625 31.390625 
Q 20.90625 42.671875 17.703125 53.65625 
Q 14.5 64.65625 8.015625 75.875 
z
" id="DejaVuSans-41"/>
     </defs>
     <use xlink:href="#DejaVuSans-67"/>
     <use x="69.824219" xlink:href="#DejaVuSans-117"/>
     <use x="133.203125" xlink:href="#DejaVuSans-109"/>
     <use x="230.615234" xlink:href="#DejaVuSans-117"/>
     <use x="293.994141" xlink:href="#DejaVuSans-108"/>
     <use x="321.777344" xlink:href="#DejaVuSans-97"/>
     <use x="383.056641" xlink:href="#DejaVuSans-116"/>
     <use x="422.265625" xlink:href="#DejaVuSans-105"/>
     <use x="450.048828" xlink:href="#DejaVuSans-118"/>
     <use x="509.228516" xlink:href="#DejaVuSans-101"/>
     <use x="570.751953" xlink:href="#DejaVuSans-32"/>
     <use x="602.539062" xlink:href="#DejaVuSans-76"/>
     <use x="656.501953" xlink:href="#DejaVuSans-111"/>
     <use x="717.683594" xlink:href="#DejaVuSans-103"/>
     <use x="781.160156" xlink:href="#DejaVuSans-32"/>
     <use x="812.947266" xlink:href="#DejaVuSans-82"/>
     <use x="877.929688" xlink:href="#DejaVuSans-101"/>
     <use x="939.453125" xlink:href="#DejaVuSans-116"/>
     <use x="978.662109" xlink:href="#DejaVuSans-117"/>
     <use x="1042.041016" xlink:href="#DejaVuSans-114"/>
     <use x="1081.404297" xlink:href="#DejaVuSans-110"/>
     <use x="1144.783203" xlink:href="#DejaVuSans-58"/>
     <use x="1178.474609" xlink:href="#DejaVuSans-32"/>
     <use x="1210.261719" xlink:href="#DejaVuSans-40"/>
     <use x="1249.275391" xlink:href="#DejaVuSans-50"/>
     <use x="1312.898438" xlink:href="#DejaVuSans-48"/>
     <use x="1376.521484" xlink:href="#DejaVuSans-49"/>
     <use x="1440.144531" xlink:href="#DejaVuSans-48"/>
     <use x="1503.767578" xlink:href="#DejaVuSans-45"/>
     <use x="1539.851562" xlink:href="#DejaVuSans-48"/>
     <use x="1603.474609" xlink:href="#DejaVuSans-50"/>
     <use x="1667.097656" xlink:href="#DejaVuSans-45"/>
     <use x="1703.181641" xlink:href="#DejaVuSans-48"/>
     <use x="1766.804688" xlink:href="#DejaVuSans-50"/>
     <use x="1830.427734" xlink:href="#DejaVuSans-32"/>
     <use x="1862.214844" xlink:href="#DejaVuSans-126"/>
     <use x="1946.003906" xlink:href="#DejaVuSans-32"/>
     <use x="1977.791016" xlink:href="#DejaVuSans-50"/>
     <use x="2041.414062" xlink:href="#DejaVuSans-48"/>
     <use x="2105.037109" xlink:href="#DejaVuSans-49"/>
     <use x="2168.660156" xlink:href="#DejaVuSans-48"/>
     <use x="2232.283203" xlink:href="#DejaVuSans-45"/>
     <use x="2268.367188" xlink:href="#DejaVuSans-49"/>
     <use x="2331.990234" xlink:href="#DejaVuSans-48"/>
     <use x="2395.613281" xlink:href="#DejaVuSans-45"/>
     <use x="2431.697266" xlink:href="#DejaVuSans-48"/>
     <use x="2495.320312" xlink:href="#DejaVuSans-56"/>
     <use x="2558.943359" xlink:href="#DejaVuSans-41"/>
    </g>
   </g>
   <g id="legend_1">
    <g id="patch_7">
     <path d="M 57.9 123.379375 
L 154.389062 123.379375 
Q 156.389062 123.379375 156.389062 121.379375 
L 156.389062 32.92 
Q 156.389062 30.92 154.389062 30.92 
L 57.9 30.92 
Q 55.9 30.92 55.9 32.92 
L 55.9 121.379375 
Q 55.9 123.379375 57.9 123.379375 
z
" style="fill:#ffffff;opacity:0.8;stroke:#cccccc;stroke-linejoin:miter;"/>
    </g>
    <g id="line2d_21">
     <path d="M 59.9 39.018438 
L 79.9 39.018438 
" style="fill:none;stroke:#9467bd;stroke-linecap:square;stroke-width:1.5;"/>
    </g>
    <g id="line2d_22"/>
    <g id="text_10">
     <!-- group_5 -->
     <g transform="translate(87.9 42.518438)scale(0.1 -0.1)">
      <defs>
       <path d="M 18.109375 8.203125 
L 18.109375 -20.796875 
L 9.078125 -20.796875 
L 9.078125 54.6875 
L 18.109375 54.6875 
L 18.109375 46.390625 
Q 20.953125 51.265625 25.265625 53.625 
Q 29.59375 56 35.59375 56 
Q 45.5625 56 51.78125 48.09375 
Q 58.015625 40.1875 58.015625 27.296875 
Q 58.015625 14.40625 51.78125 6.484375 
Q 45.5625 -1.421875 35.59375 -1.421875 
Q 29.59375 -1.421875 25.265625 0.953125 
Q 20.953125 3.328125 18.109375 8.203125 
z
M 48.6875 27.296875 
Q 48.6875 37.203125 44.609375 42.84375 
Q 40.53125 48.484375 33.40625 48.484375 
Q 26.265625 48.484375 22.1875 42.84375 
Q 18.109375 37.203125 18.109375 27.296875 
Q 18.109375 17.390625 22.1875 11.75 
Q 26.265625 6.109375 33.40625 6.109375 
Q 40.53125 6.109375 44.609375 11.75 
Q 48.6875 17.390625 48.6875 27.296875 
z
" id="DejaVuSans-112"/>
       <path d="M 50.984375 -16.609375 
L 50.984375 -23.578125 
L -0.984375 -23.578125 
L -0.984375 -16.609375 
z
" id="DejaVuSans-95"/>
      </defs>
      <use xlink:href="#DejaVuSans-103"/>
      <use x="63.476562" xlink:href="#DejaVuSans-114"/>
      <use x="102.339844" xlink:href="#DejaVuSans-111"/>
      <use x="163.521484" xlink:href="#DejaVuSans-117"/>
      <use x="226.900391" xlink:href="#DejaVuSans-112"/>
      <use x="290.376953" xlink:href="#DejaVuSans-95"/>
      <use x="340.376953" xlink:href="#DejaVuSans-53"/>
     </g>
    </g>
    <g id="line2d_23">
     <path d="M 59.9 53.974688 
L 79.9 53.974688 
" style="fill:none;stroke:#1f77b4;stroke-linecap:square;stroke-width:1.5;"/>
    </g>
    <g id="line2d_24"/>
    <g id="text_11">
     <!-- group_1 -->
     <g transform="translate(87.9 57.474688)scale(0.1 -0.1)">
      <use xlink:href="#DejaVuSans-103"/>
      <use x="63.476562" xlink:href="#DejaVuSans-114"/>
      <use x="102.339844" xlink:href="#DejaVuSans-111"/>
      <use x="163.521484" xlink:href="#DejaVuSans-117"/>
      <use x="226.900391" xlink:href="#DejaVuSans-112"/>
      <use x="290.376953" xlink:href="#DejaVuSans-95"/>
      <use x="340.376953" xlink:href="#DejaVuSans-49"/>
     </g>
    </g>
    <g id="line2d_25">
     <path d="M 59.9 68.930938 
L 79.9 68.930938 
" style="fill:none;stroke:#8c564b;stroke-linecap:square;stroke-width:1.5;"/>
    </g>
    <g id="line2d_26"/>
    <g id="text_12">
     <!-- benchmark -->
     <g transform="translate(87.9 72.430938)scale(0.1 -0.1)">
      <defs>
       <path d="M 48.6875 27.296875 
Q 48.6875 37.203125 44.609375 42.84375 
Q 40.53125 48.484375 33.40625 48.484375 
Q 26.265625 48.484375 22.1875 42.84375 
Q 18.109375 37.203125 18.109375 27.296875 
Q 18.109375 17.390625 22.1875 11.75 
Q 26.265625 6.109375 33.40625 6.109375 
Q 40.53125 6.109375 44.609375 11.75 
Q 48.6875 17.390625 48.6875 27.296875 
z
M 18.109375 46.390625 
Q 20.953125 51.265625 25.265625 53.625 
Q 29.59375 56 35.59375 56 
Q 45.5625 56 51.78125 48.09375 
Q 58.015625 40.1875 58.015625 27.296875 
Q 58.015625 14.40625 51.78125 6.484375 
Q 45.5625 -1.421875 35.59375 -1.421875 
Q 29.59375 -1.421875 25.265625 0.953125 
Q 20.953125 3.328125 18.109375 8.203125 
L 18.109375 0 
L 9.078125 0 
L 9.078125 75.984375 
L 18.109375 75.984375 
z
" id="DejaVuSans-98"/>
       <path d="M 54.890625 33.015625 
L 54.890625 0 
L 45.90625 0 
L 45.90625 32.71875 
Q 45.90625 40.484375 42.875 44.328125 
Q 39.84375 48.1875 33.796875 48.1875 
Q 26.515625 48.1875 22.3125 43.546875 
Q 18.109375 38.921875 18.109375 30.90625 
L 18.109375 0 
L 9.078125 0 
L 9.078125 75.984375 
L 18.109375 75.984375 
L 18.109375 46.1875 
Q 21.34375 51.125 25.703125 53.5625 
Q 30.078125 56 35.796875 56 
Q 45.21875 56 50.046875 50.171875 
Q 54.890625 44.34375 54.890625 33.015625 
z
" id="DejaVuSans-104"/>
       <path d="M 9.078125 75.984375 
L 18.109375 75.984375 
L 18.109375 31.109375 
L 44.921875 54.6875 
L 56.390625 54.6875 
L 27.390625 29.109375 
L 57.625 0 
L 45.90625 0 
L 18.109375 26.703125 
L 18.109375 0 
L 9.078125 0 
z
" id="DejaVuSans-107"/>
      </defs>
      <use xlink:href="#DejaVuSans-98"/>
      <use x="63.476562" xlink:href="#DejaVuSans-101"/>
      <use x="125" xlink:href="#DejaVuSans-110"/>
      <use x="188.378906" xlink:href="#DejaVuSans-99"/>
      <use x="243.359375" xlink:href="#DejaVuSans-104"/>
      <use x="306.738281" xlink:href="#DejaVuSans-109"/>
      <use x="404.150391" xlink:href="#DejaVuSans-97"/>
      <use x="465.429688" xlink:href="#DejaVuSans-114"/>
      <use x="506.542969" xlink:href="#DejaVuSans-107"/>
     </g>
    </g>
    <g id="line2d_27">
     <path d="M 59.9 83.609062 
L 79.9 83.609062 
" style="fill:none;stroke:#e377c2;stroke-linecap:square;stroke-width:1.5;"/>
    </g>
    <g id="line2d_28"/>
    <g id="text_13">
     <!-- long_excess -->
     <g transform="translate(87.9 87.109062)scale(0.1 -0.1)">
      <defs>
       <path d="M 54.890625 54.6875 
L 35.109375 28.078125 
L 55.90625 0 
L 45.3125 0 
L 29.390625 21.484375 
L 13.484375 0 
L 2.875 0 
L 24.125 28.609375 
L 4.6875 54.6875 
L 15.28125 54.6875 
L 29.78125 35.203125 
L 44.28125 54.6875 
z
" id="DejaVuSans-120"/>
      </defs>
      <use xlink:href="#DejaVuSans-108"/>
      <use x="27.783203" xlink:href="#DejaVuSans-111"/>
      <use x="88.964844" xlink:href="#DejaVuSans-110"/>
      <use x="152.34375" xlink:href="#DejaVuSans-103"/>
      <use x="215.820312" xlink:href="#DejaVuSans-95"/>
      <use x="265.820312" xlink:href="#DejaVuSans-101"/>
      <use x="325.59375" xlink:href="#DejaVuSans-120"/>
      <use x="383.023438" xlink:href="#DejaVuSans-99"/>
      <use x="438.003906" xlink:href="#DejaVuSans-101"/>
      <use x="499.527344" xlink:href="#DejaVuSans-115"/>
      <use x="551.626953" xlink:href="#DejaVuSans-115"/>
     </g>
    </g>
    <g id="line2d_29">
     <path d="M 59.9 98.565313 
L 79.9 98.565313 
" style="fill:none;stroke:#7f7f7f;stroke-linecap:square;stroke-width:1.5;"/>
    </g>
    <g id="line2d_30"/>
    <g id="text_14">
     <!-- short_excess -->
     <g transform="translate(87.9 102.065313)scale(0.1 -0.1)">
      <use xlink:href="#DejaVuSans-115"/>
      <use x="52.099609" xlink:href="#DejaVuSans-104"/>
      <use x="115.478516" xlink:href="#DejaVuSans-111"/>
      <use x="176.660156" xlink:href="#DejaVuSans-114"/>
      <use x="217.773438" xlink:href="#DejaVuSans-116"/>
      <use x="256.982422" xlink:href="#DejaVuSans-95"/>
      <use x="306.982422" xlink:href="#DejaVuSans-101"/>
      <use x="366.755859" xlink:href="#DejaVuSans-120"/>
      <use x="424.185547" xlink:href="#DejaVuSans-99"/>
      <use x="479.166016" xlink:href="#DejaVuSans-101"/>
      <use x="540.689453" xlink:href="#DejaVuSans-115"/>
      <use x="592.789062" xlink:href="#DejaVuSans-115"/>
     </g>
    </g>
    <g id="line2d_31">
     <path d="M 59.9 113.521563 
L 79.9 113.521563 
" style="fill:none;stroke:#bcbd22;stroke-linecap:square;stroke-width:1.5;"/>
    </g>
    <g id="line2d_32"/>
    <g id="text_15">
     <!-- long_short -->
     <g transform="translate(87.9 117.021563)scale(0.1 -0.1)">
      <use xlink:href="#DejaVuSans-108"/>
      <use x="27.783203" xlink:href="#DejaVuSans-111"/>
      <use x="88.964844" xlink:href="#DejaVuSans-110"/>
      <use x="152.34375" xlink:href="#DejaVuSans-103"/>
      <use x="215.820312" xlink:href="#DejaVuSans-95"/>
      <use x="265.820312" xlink:href="#DejaVuSans-115"/>
      <use x="317.919922" xlink:href="#DejaVuSans-104"/>
      <use x="381.298828" xlink:href="#DejaVuSans-111"/>
      <use x="442.480469" xlink:href="#DejaVuSans-114"/>
      <use x="483.59375" xlink:href="#DejaVuSans-116"/>
     </g>
    </g>
   </g>
  </g>
 </g>
 <defs>
  <clipPath id="p0d22f00b8b">
   <rect height="319.78" width="1090.3" x="50.9" y="25.92"/>
  </clipPath>
 </defs>
</svg>
