<?xml version="1.0" encoding="utf-8" standalone="no"?>
<!DOCTYPE svg PUBLIC "-//W3C//DTD SVG 1.1//EN"
  "http://www.w3.org/Graphics/SVG/1.1/DTD/svg11.dtd">
<!-- Created with matplotlib (https://matplotlib.org/) -->
<svg height="468pt" version="1.1" viewBox="0 0 1152 468" width="1152pt" xmlns="http://www.w3.org/2000/svg" xmlns:xlink="http://www.w3.org/1999/xlink">
 <metadata>
  <rdf:RDF xmlns:cc="http://creativecommons.org/ns#" xmlns:dc="http://purl.org/dc/elements/1.1/" xmlns:rdf="http://www.w3.org/1999/02/22-rdf-syntax-ns#">
   <cc:Work>
    <dc:type rdf:resource="http://purl.org/dc/dcmitype/StillImage"/>
    <dc:date>2023-10-11T17:00:22.670675</dc:date>
    <dc:format>image/svg+xml</dc:format>
    <dc:creator>
     <cc:Agent>
      <dc:title>Matplotlib v3.3.4, https://matplotlib.org/</dc:title>
     </cc:Agent>
    </dc:creator>
   </cc:Work>
  </rdf:RDF>
 </metadata>
 <defs>
  <style type="text/css">*{stroke-linecap:butt;stroke-linejoin:round;}</style>
 </defs>
 <g id="figure_1">
  <g id="patch_1">
   <path d="M 0 468 
L 1152 468 
L 1152 0 
L 0 0 
z
" style="fill:#ffffff;"/>
  </g>
  <g id="axes_1">
   <g id="patch_2">
    <path d="M 50.9 424.76 
L 1110.64 424.76 
L 1110.64 25.92 
L 50.9 25.92 
z
" style="fill:#ffffff;"/>
   </g>
   <g id="patch_3">
    <path clip-path="url(#pf2bf16c190)" d="M 0 0 
z
" style="fill:#1f77b4;"/>
   </g>
   <g id="patch_4">
    <path clip-path="url(#pf2bf16c190)" d="M 116.844908 256.43974 
L 99.07 256.43974 
L 99.07 44.049091 
L 116.844908 44.049091 
z
" style="fill:#1f77b4;"/>
   </g>
   <g id="patch_5">
    <path clip-path="url(#pf2bf16c190)" d="M 141.729779 256.43974 
L 123.954871 256.43974 
L 123.954871 226.471523 
L 141.729779 226.471523 
z
" style="fill:#1f77b4;"/>
   </g>
   <g id="patch_6">
    <path clip-path="url(#pf2bf16c190)" d="M 166.614649 256.43974 
L 148.839742 256.43974 
L 148.839742 322.876881 
L 166.614649 322.876881 
z
" style="fill:#1f77b4;"/>
   </g>
   <g id="patch_7">
    <path clip-path="url(#pf2bf16c190)" d="M 191.49952 256.43974 
L 173.724613 256.43974 
L 173.724613 268.718131 
L 191.49952 268.718131 
z
" style="fill:#1f77b4;"/>
   </g>
   <g id="patch_8">
    <path clip-path="url(#pf2bf16c190)" d="M 216.384391 256.43974 
L 198.609483 256.43974 
L 198.609483 67.453819 
L 216.384391 67.453819 
z
" style="fill:#1f77b4;"/>
   </g>
   <g id="patch_9">
    <path clip-path="url(#pf2bf16c190)" d="M 241.269262 256.43974 
L 223.494354 256.43974 
L 223.494354 257.58792 
L 241.269262 257.58792 
z
" style="fill:#1f77b4;"/>
   </g>
   <g id="patch_10">
    <path clip-path="url(#pf2bf16c190)" d="M 266.154133 256.43974 
L 248.379225 256.43974 
L 248.379225 287.600377 
L 266.154133 287.600377 
z
" style="fill:#1f77b4;"/>
   </g>
   <g id="patch_11">
    <path clip-path="url(#pf2bf16c190)" d="M 291.039004 256.43974 
L 273.264096 256.43974 
L 273.264096 235.666455 
L 291.039004 235.666455 
z
" style="fill:#1f77b4;"/>
   </g>
   <g id="patch_12">
    <path clip-path="url(#pf2bf16c190)" d="M 315.923875 256.43974 
L 298.148967 256.43974 
L 298.148967 144.802332 
L 315.923875 144.802332 
z
" style="fill:#1f77b4;"/>
   </g>
   <g id="patch_13">
    <path clip-path="url(#pf2bf16c190)" d="M 340.808745 256.43974 
L 323.033838 256.43974 
L 323.033838 189.288445 
L 340.808745 189.288445 
z
" style="fill:#1f77b4;"/>
   </g>
   <g id="patch_14">
    <path clip-path="url(#pf2bf16c190)" d="M 365.693616 256.43974 
L 347.918708 256.43974 
L 347.918708 346.838918 
L 365.693616 346.838918 
z
" style="fill:#1f77b4;"/>
   </g>
   <g id="patch_15">
    <path clip-path="url(#pf2bf16c190)" d="M 390.578487 256.43974 
L 372.803579 256.43974 
L 372.803579 237.286771 
L 390.578487 237.286771 
z
" style="fill:#1f77b4;"/>
   </g>
   <g id="patch_16">
    <path clip-path="url(#pf2bf16c190)" d="M 415.463358 256.43974 
L 397.68845 256.43974 
L 397.68845 313.545918 
L 415.463358 313.545918 
z
" style="fill:#1f77b4;"/>
   </g>
   <g id="patch_17">
    <path clip-path="url(#pf2bf16c190)" d="M 440.348229 256.43974 
L 422.573321 256.43974 
L 422.573321 168.233266 
L 440.348229 168.233266 
z
" style="fill:#1f77b4;"/>
   </g>
   <g id="patch_18">
    <path clip-path="url(#pf2bf16c190)" d="M 465.2331 256.43974 
L 447.458192 256.43974 
L 447.458192 144.289099 
L 465.2331 144.289099 
z
" style="fill:#1f77b4;"/>
   </g>
   <g id="patch_19">
    <path clip-path="url(#pf2bf16c190)" d="M 490.11797 256.43974 
L 472.343063 256.43974 
L 472.343063 170.534173 
L 490.11797 170.534173 
z
" style="fill:#1f77b4;"/>
   </g>
   <g id="patch_20">
    <path clip-path="url(#pf2bf16c190)" d="M 515.002841 256.43974 
L 497.227934 256.43974 
L 497.227934 404.099151 
L 515.002841 404.099151 
z
" style="fill:#1f77b4;"/>
   </g>
   <g id="patch_21">
    <path clip-path="url(#pf2bf16c190)" d="M 539.887712 256.43974 
L 522.112804 256.43974 
L 522.112804 360.350627 
L 539.887712 360.350627 
z
" style="fill:#1f77b4;"/>
   </g>
   <g id="patch_22">
    <path clip-path="url(#pf2bf16c190)" d="M 564.772583 256.43974 
L 546.997675 256.43974 
L 546.997675 203.137048 
L 564.772583 203.137048 
z
" style="fill:#1f77b4;"/>
   </g>
   <g id="patch_23">
    <path clip-path="url(#pf2bf16c190)" d="M 589.657454 256.43974 
L 571.882546 256.43974 
L 571.882546 200.87481 
L 589.657454 200.87481 
z
" style="fill:#1f77b4;"/>
   </g>
   <g id="patch_24">
    <path clip-path="url(#pf2bf16c190)" d="M 614.542325 256.43974 
L 596.767417 256.43974 
L 596.767417 248.464408 
L 614.542325 248.464408 
z
" style="fill:#1f77b4;"/>
   </g>
   <g id="patch_25">
    <path clip-path="url(#pf2bf16c190)" d="M 639.427196 256.43974 
L 621.652288 256.43974 
L 621.652288 215.784339 
L 639.427196 215.784339 
z
" style="fill:#1f77b4;"/>
   </g>
   <g id="patch_26">
    <path clip-path="url(#pf2bf16c190)" d="M 664.312066 256.43974 
L 646.537159 256.43974 
L 646.537159 406.630909 
L 664.312066 406.630909 
z
" style="fill:#1f77b4;"/>
   </g>
   <g id="patch_27">
    <path clip-path="url(#pf2bf16c190)" d="M 689.196937 256.43974 
L 671.42203 256.43974 
L 671.42203 271.545502 
L 689.196937 271.545502 
z
" style="fill:#1f77b4;"/>
   </g>
   <g id="patch_28">
    <path clip-path="url(#pf2bf16c190)" d="M 714.081808 256.43974 
L 696.3069 256.43974 
L 696.3069 399.52096 
L 714.081808 399.52096 
z
" style="fill:#1f77b4;"/>
   </g>
   <g id="patch_29">
    <path clip-path="url(#pf2bf16c190)" d="M 738.966679 256.43974 
L 721.191771 256.43974 
L 721.191771 243.077588 
L 738.966679 243.077588 
z
" style="fill:#1f77b4;"/>
   </g>
   <g id="patch_30">
    <path clip-path="url(#pf2bf16c190)" d="M 763.85155 256.43974 
L 746.076642 256.43974 
L 746.076642 385.862419 
L 763.85155 385.862419 
z
" style="fill:#1f77b4;"/>
   </g>
   <g id="patch_31">
    <path clip-path="url(#pf2bf16c190)" d="M 788.736421 256.43974 
L 770.961513 256.43974 
L 770.961513 347.071852 
L 788.736421 347.071852 
z
" style="fill:#1f77b4;"/>
   </g>
   <g id="patch_32">
    <path clip-path="url(#pf2bf16c190)" d="M 813.621292 256.43974 
L 795.846384 256.43974 
L 795.846384 175.792923 
L 813.621292 175.792923 
z
" style="fill:#1f77b4;"/>
   </g>
   <g id="patch_33">
    <path clip-path="url(#pf2bf16c190)" d="M 838.506162 256.43974 
L 820.731255 256.43974 
L 820.731255 230.754204 
L 838.506162 230.754204 
z
" style="fill:#1f77b4;"/>
   </g>
   <g id="patch_34">
    <path clip-path="url(#pf2bf16c190)" d="M 863.391033 256.43974 
L 845.616125 256.43974 
L 845.616125 241.008644 
L 863.391033 241.008644 
z
" style="fill:#1f77b4;"/>
   </g>
   <g id="patch_35">
    <path clip-path="url(#pf2bf16c190)" d="M 888.275904 256.43974 
L 870.500996 256.43974 
L 870.500996 233.484744 
L 888.275904 233.484744 
z
" style="fill:#1f77b4;"/>
   </g>
   <g id="patch_36">
    <path clip-path="url(#pf2bf16c190)" d="M 913.160775 256.43974 
L 895.385867 256.43974 
L 895.385867 256.886432 
L 913.160775 256.886432 
z
" style="fill:#1f77b4;"/>
   </g>
   <g id="patch_37">
    <path clip-path="url(#pf2bf16c190)" d="M 938.045646 256.43974 
L 920.270738 256.43974 
L 920.270738 170.638386 
L 938.045646 170.638386 
z
" style="fill:#1f77b4;"/>
   </g>
   <g id="patch_38">
    <path clip-path="url(#pf2bf16c190)" d="M 962.930517 256.43974 
L 945.155609 256.43974 
L 945.155609 99.63781 
L 962.930517 99.63781 
z
" style="fill:#1f77b4;"/>
   </g>
   <g id="patch_39">
    <path clip-path="url(#pf2bf16c190)" d="M 987.815387 256.43974 
L 970.04048 256.43974 
L 970.04048 123.287517 
L 987.815387 123.287517 
z
" style="fill:#1f77b4;"/>
   </g>
   <g id="patch_40">
    <path clip-path="url(#pf2bf16c190)" d="M 1012.700258 256.43974 
L 994.925351 256.43974 
L 994.925351 181.979069 
L 1012.700258 181.979069 
z
" style="fill:#1f77b4;"/>
   </g>
   <g id="patch_41">
    <path clip-path="url(#pf2bf16c190)" d="M 1037.585129 256.43974 
L 1019.810221 256.43974 
L 1019.810221 174.458158 
L 1037.585129 174.458158 
z
" style="fill:#1f77b4;"/>
   </g>
   <g id="patch_42">
    <path clip-path="url(#pf2bf16c190)" d="M 1062.47 256.43974 
L 1044.695092 256.43974 
L 1044.695092 162.22835 
L 1062.47 162.22835 
z
" style="fill:#1f77b4;"/>
   </g>
   <g id="matplotlib.axis_1">
    <g id="xtick_1">
     <g id="line2d_1">
      <path clip-path="url(#pf2bf16c190)" d="M 59.965203 424.76 
L 59.965203 25.92 
" style="fill:none;stroke:#b0b0b0;stroke-linecap:square;stroke-width:0.8;"/>
     </g>
     <g id="line2d_2">
      <defs>
       <path d="M 0 0 
L 0 3.5 
" id="m0a3d0dc041" style="stroke:#000000;stroke-width:0.8;"/>
      </defs>
      <g>
       <use style="stroke:#000000;stroke-width:0.8;" x="59.965203" xlink:href="#m0a3d0dc041" y="424.76"/>
      </g>
     </g>
     <g id="text_1">
      <!-- 2010 -->
      <g transform="translate(62.724578 457.21)rotate(-90)scale(0.1 -0.1)">
       <defs>
        <path d="M 19.1875 8.296875 
L 53.609375 8.296875 
L 53.609375 0 
L 7.328125 0 
L 7.328125 8.296875 
Q 12.9375 14.109375 22.625 23.890625 
Q 32.328125 33.6875 34.8125 36.53125 
Q 39.546875 41.84375 41.421875 45.53125 
Q 43.3125 49.21875 43.3125 52.78125 
Q 43.3125 58.59375 39.234375 62.25 
Q 35.15625 65.921875 28.609375 65.921875 
Q 23.96875 65.921875 18.8125 64.3125 
Q 13.671875 62.703125 7.8125 59.421875 
L 7.8125 69.390625 
Q 13.765625 71.78125 18.9375 73 
Q 24.125 74.21875 28.421875 74.21875 
Q 39.75 74.21875 46.484375 68.546875 
Q 53.21875 62.890625 53.21875 53.421875 
Q 53.21875 48.921875 51.53125 44.890625 
Q 49.859375 40.875 45.40625 35.40625 
Q 44.1875 33.984375 37.640625 27.21875 
Q 31.109375 20.453125 19.1875 8.296875 
z
" id="DejaVuSans-50"/>
        <path d="M 31.78125 66.40625 
Q 24.171875 66.40625 20.328125 58.90625 
Q 16.5 51.421875 16.5 36.375 
Q 16.5 21.390625 20.328125 13.890625 
Q 24.171875 6.390625 31.78125 6.390625 
Q 39.453125 6.390625 43.28125 13.890625 
Q 47.125 21.390625 47.125 36.375 
Q 47.125 51.421875 43.28125 58.90625 
Q 39.453125 66.40625 31.78125 66.40625 
z
M 31.78125 74.21875 
Q 44.046875 74.21875 50.515625 64.515625 
Q 56.984375 54.828125 56.984375 36.375 
Q 56.984375 17.96875 50.515625 8.265625 
Q 44.046875 -1.421875 31.78125 -1.421875 
Q 19.53125 -1.421875 13.0625 8.265625 
Q 6.59375 17.96875 6.59375 36.375 
Q 6.59375 54.828125 13.0625 64.515625 
Q 19.53125 74.21875 31.78125 74.21875 
z
" id="DejaVuSans-48"/>
        <path d="M 12.40625 8.296875 
L 28.515625 8.296875 
L 28.515625 63.921875 
L 10.984375 60.40625 
L 10.984375 69.390625 
L 28.421875 72.90625 
L 38.28125 72.90625 
L 38.28125 8.296875 
L 54.390625 8.296875 
L 54.390625 0 
L 12.40625 0 
z
" id="DejaVuSans-49"/>
       </defs>
       <use xlink:href="#DejaVuSans-50"/>
       <use x="63.623047" xlink:href="#DejaVuSans-48"/>
       <use x="127.246094" xlink:href="#DejaVuSans-49"/>
       <use x="190.869141" xlink:href="#DejaVuSans-48"/>
      </g>
     </g>
    </g>
   </g>
   <g id="matplotlib.axis_2">
    <g id="ytick_1">
     <g id="line2d_3">
      <path clip-path="url(#pf2bf16c190)" d="M 50.9 379.992912 
L 1110.64 379.992912 
" style="fill:none;stroke:#b0b0b0;stroke-linecap:square;stroke-width:0.8;"/>
     </g>
     <g id="line2d_4">
      <defs>
       <path d="M 0 0 
L -3.5 0 
" id="m0ce10845b6" style="stroke:#000000;stroke-width:0.8;"/>
      </defs>
      <g>
       <use style="stroke:#000000;stroke-width:0.8;" x="50.9" xlink:href="#m0ce10845b6" y="379.992912"/>
      </g>
     </g>
     <g id="text_2">
      <!-- -0.2 -->
      <g transform="translate(24.389062 383.792131)scale(0.1 -0.1)">
       <defs>
        <path d="M 4.890625 31.390625 
L 31.203125 31.390625 
L 31.203125 23.390625 
L 4.890625 23.390625 
z
" id="DejaVuSans-45"/>
        <path d="M 10.6875 12.40625 
L 21 12.40625 
L 21 0 
L 10.6875 0 
z
" id="DejaVuSans-46"/>
       </defs>
       <use xlink:href="#DejaVuSans-45"/>
       <use x="36.083984" xlink:href="#DejaVuSans-48"/>
       <use x="99.707031" xlink:href="#DejaVuSans-46"/>
       <use x="131.494141" xlink:href="#DejaVuSans-50"/>
      </g>
     </g>
    </g>
    <g id="ytick_2">
     <g id="line2d_5">
      <path clip-path="url(#pf2bf16c190)" d="M 50.9 318.216326 
L 1110.64 318.216326 
" style="fill:none;stroke:#b0b0b0;stroke-linecap:square;stroke-width:0.8;"/>
     </g>
     <g id="line2d_6">
      <g>
       <use style="stroke:#000000;stroke-width:0.8;" x="50.9" xlink:href="#m0ce10845b6" y="318.216326"/>
      </g>
     </g>
     <g id="text_3">
      <!-- -0.1 -->
      <g transform="translate(24.389062 322.015545)scale(0.1 -0.1)">
       <use xlink:href="#DejaVuSans-45"/>
       <use x="36.083984" xlink:href="#DejaVuSans-48"/>
       <use x="99.707031" xlink:href="#DejaVuSans-46"/>
       <use x="131.494141" xlink:href="#DejaVuSans-49"/>
      </g>
     </g>
    </g>
    <g id="ytick_3">
     <g id="line2d_7">
      <path clip-path="url(#pf2bf16c190)" d="M 50.9 256.43974 
L 1110.64 256.43974 
" style="fill:none;stroke:#b0b0b0;stroke-linecap:square;stroke-width:0.8;"/>
     </g>
     <g id="line2d_8">
      <g>
       <use style="stroke:#000000;stroke-width:0.8;" x="50.9" xlink:href="#m0ce10845b6" y="256.43974"/>
      </g>
     </g>
     <g id="text_4">
      <!-- 0.0 -->
      <g transform="translate(27.996875 260.238959)scale(0.1 -0.1)">
       <use xlink:href="#DejaVuSans-48"/>
       <use x="63.623047" xlink:href="#DejaVuSans-46"/>
       <use x="95.410156" xlink:href="#DejaVuSans-48"/>
      </g>
     </g>
    </g>
    <g id="ytick_4">
     <g id="line2d_9">
      <path clip-path="url(#pf2bf16c190)" d="M 50.9 194.663154 
L 1110.64 194.663154 
" style="fill:none;stroke:#b0b0b0;stroke-linecap:square;stroke-width:0.8;"/>
     </g>
     <g id="line2d_10">
      <g>
       <use style="stroke:#000000;stroke-width:0.8;" x="50.9" xlink:href="#m0ce10845b6" y="194.663154"/>
      </g>
     </g>
     <g id="text_5">
      <!-- 0.1 -->
      <g transform="translate(27.996875 198.462373)scale(0.1 -0.1)">
       <use xlink:href="#DejaVuSans-48"/>
       <use x="63.623047" xlink:href="#DejaVuSans-46"/>
       <use x="95.410156" xlink:href="#DejaVuSans-49"/>
      </g>
     </g>
    </g>
    <g id="ytick_5">
     <g id="line2d_11">
      <path clip-path="url(#pf2bf16c190)" d="M 50.9 132.886569 
L 1110.64 132.886569 
" style="fill:none;stroke:#b0b0b0;stroke-linecap:square;stroke-width:0.8;"/>
     </g>
     <g id="line2d_12">
      <g>
       <use style="stroke:#000000;stroke-width:0.8;" x="50.9" xlink:href="#m0ce10845b6" y="132.886569"/>
      </g>
     </g>
     <g id="text_6">
      <!-- 0.2 -->
      <g transform="translate(27.996875 136.685787)scale(0.1 -0.1)">
       <use xlink:href="#DejaVuSans-48"/>
       <use x="63.623047" xlink:href="#DejaVuSans-46"/>
       <use x="95.410156" xlink:href="#DejaVuSans-50"/>
      </g>
     </g>
    </g>
    <g id="ytick_6">
     <g id="line2d_13">
      <path clip-path="url(#pf2bf16c190)" d="M 50.9 71.109983 
L 1110.64 71.109983 
" style="fill:none;stroke:#b0b0b0;stroke-linecap:square;stroke-width:0.8;"/>
     </g>
     <g id="line2d_14">
      <g>
       <use style="stroke:#000000;stroke-width:0.8;" x="50.9" xlink:href="#m0ce10845b6" y="71.109983"/>
      </g>
     </g>
     <g id="text_7">
      <!-- 0.3 -->
      <g transform="translate(27.996875 74.909201)scale(0.1 -0.1)">
       <defs>
        <path d="M 40.578125 39.3125 
Q 47.65625 37.796875 51.625 33 
Q 55.609375 28.21875 55.609375 21.1875 
Q 55.609375 10.40625 48.1875 4.484375 
Q 40.765625 -1.421875 27.09375 -1.421875 
Q 22.515625 -1.421875 17.65625 -0.515625 
Q 12.796875 0.390625 7.625 2.203125 
L 7.625 11.71875 
Q 11.71875 9.328125 16.59375 8.109375 
Q 21.484375 6.890625 26.8125 6.890625 
Q 36.078125 6.890625 40.9375 10.546875 
Q 45.796875 14.203125 45.796875 21.1875 
Q 45.796875 27.640625 41.28125 31.265625 
Q 36.765625 34.90625 28.71875 34.90625 
L 20.21875 34.90625 
L 20.21875 43.015625 
L 29.109375 43.015625 
Q 36.375 43.015625 40.234375 45.921875 
Q 44.09375 48.828125 44.09375 54.296875 
Q 44.09375 59.90625 40.109375 62.90625 
Q 36.140625 65.921875 28.71875 65.921875 
Q 24.65625 65.921875 20.015625 65.03125 
Q 15.375 64.15625 9.8125 62.3125 
L 9.8125 71.09375 
Q 15.4375 72.65625 20.34375 73.4375 
Q 25.25 74.21875 29.59375 74.21875 
Q 40.828125 74.21875 47.359375 69.109375 
Q 53.90625 64.015625 53.90625 55.328125 
Q 53.90625 49.265625 50.4375 45.09375 
Q 46.96875 40.921875 40.578125 39.3125 
z
" id="DejaVuSans-51"/>
       </defs>
       <use xlink:href="#DejaVuSans-48"/>
       <use x="63.623047" xlink:href="#DejaVuSans-46"/>
       <use x="95.410156" xlink:href="#DejaVuSans-51"/>
      </g>
     </g>
    </g>
    <g id="text_8">
     <!-- IC -->
     <g transform="translate(18.309375 230.306406)rotate(-90)scale(0.1 -0.1)">
      <defs>
       <path d="M 9.8125 72.90625 
L 19.671875 72.90625 
L 19.671875 0 
L 9.8125 0 
z
" id="DejaVuSans-73"/>
       <path d="M 64.40625 67.28125 
L 64.40625 56.890625 
Q 59.421875 61.53125 53.78125 63.8125 
Q 48.140625 66.109375 41.796875 66.109375 
Q 29.296875 66.109375 22.65625 58.46875 
Q 16.015625 50.828125 16.015625 36.375 
Q 16.015625 21.96875 22.65625 14.328125 
Q 29.296875 6.6875 41.796875 6.6875 
Q 48.140625 6.6875 53.78125 8.984375 
Q 59.421875 11.28125 64.40625 15.921875 
L 64.40625 5.609375 
Q 59.234375 2.09375 53.4375 0.328125 
Q 47.65625 -1.421875 41.21875 -1.421875 
Q 24.65625 -1.421875 15.125 8.703125 
Q 5.609375 18.84375 5.609375 36.375 
Q 5.609375 53.953125 15.125 64.078125 
Q 24.65625 74.21875 41.21875 74.21875 
Q 47.75 74.21875 53.53125 72.484375 
Q 59.328125 70.75 64.40625 67.28125 
z
" id="DejaVuSans-67"/>
      </defs>
      <use xlink:href="#DejaVuSans-73"/>
      <use x="29.492188" xlink:href="#DejaVuSans-67"/>
     </g>
    </g>
   </g>
   <g id="line2d_15">
    <path clip-path="url(#pf2bf16c190)" d="M 50.9 239.319316 
L 1110.64 239.319316 
" style="fill:none;stroke:#800080;stroke-dasharray:7.4,3.2;stroke-dashoffset:0;stroke-width:2;"/>
   </g>
   <g id="patch_43">
    <path d="M 50.9 424.76 
L 50.9 25.92 
" style="fill:none;stroke:#000000;stroke-linecap:square;stroke-linejoin:miter;stroke-width:0.8;"/>
   </g>
   <g id="patch_44">
    <path d="M 1110.64 424.76 
L 1110.64 25.92 
" style="fill:none;stroke:#000000;stroke-linecap:square;stroke-linejoin:miter;stroke-width:0.8;"/>
   </g>
   <g id="patch_45">
    <path d="M 50.9 424.76 
L 1110.64 424.76 
" style="fill:none;stroke:#000000;stroke-linecap:square;stroke-linejoin:miter;stroke-width:0.8;"/>
   </g>
   <g id="patch_46">
    <path d="M 50.9 25.92 
L 1110.64 25.92 
" style="fill:none;stroke:#000000;stroke-linecap:square;stroke-linejoin:miter;stroke-width:0.8;"/>
   </g>
   <g id="legend_1">
    <g id="patch_47">
     <path d="M 57.9 63.27625 
L 169.520312 63.27625 
Q 171.520312 63.27625 171.520312 61.27625 
L 171.520312 32.92 
Q 171.520312 30.92 169.520312 30.92 
L 57.9 30.92 
Q 55.9 30.92 55.9 32.92 
L 55.9 61.27625 
Q 55.9 63.27625 57.9 63.27625 
z
" style="fill:#ffffff;opacity:0.8;stroke:#cccccc;stroke-linejoin:miter;"/>
    </g>
    <g id="patch_48">
     <path d="M 59.9 42.518438 
L 79.9 42.518438 
L 79.9 35.518438 
L 59.9 35.518438 
z
" style="fill:#1f77b4;"/>
    </g>
    <g id="text_9">
     <!-- weekly IC mean -->
     <g transform="translate(87.9 42.518438)scale(0.1 -0.1)">
      <defs>
       <path d="M 4.203125 54.6875 
L 13.1875 54.6875 
L 24.421875 12.015625 
L 35.59375 54.6875 
L 46.1875 54.6875 
L 57.421875 12.015625 
L 68.609375 54.6875 
L 77.59375 54.6875 
L 63.28125 0 
L 52.6875 0 
L 40.921875 44.828125 
L 29.109375 0 
L 18.5 0 
z
" id="DejaVuSans-119"/>
       <path d="M 56.203125 29.59375 
L 56.203125 25.203125 
L 14.890625 25.203125 
Q 15.484375 15.921875 20.484375 11.0625 
Q 25.484375 6.203125 34.421875 6.203125 
Q 39.59375 6.203125 44.453125 7.46875 
Q 49.3125 8.734375 54.109375 11.28125 
L 54.109375 2.78125 
Q 49.265625 0.734375 44.1875 -0.34375 
Q 39.109375 -1.421875 33.890625 -1.421875 
Q 20.796875 -1.421875 13.15625 6.1875 
Q 5.515625 13.8125 5.515625 26.8125 
Q 5.515625 40.234375 12.765625 48.109375 
Q 20.015625 56 32.328125 56 
Q 43.359375 56 49.78125 48.890625 
Q 56.203125 41.796875 56.203125 29.59375 
z
M 47.21875 32.234375 
Q 47.125 39.59375 43.09375 43.984375 
Q 39.0625 48.390625 32.421875 48.390625 
Q 24.90625 48.390625 20.390625 44.140625 
Q 15.875 39.890625 15.1875 32.171875 
z
" id="DejaVuSans-101"/>
       <path d="M 9.078125 75.984375 
L 18.109375 75.984375 
L 18.109375 31.109375 
L 44.921875 54.6875 
L 56.390625 54.6875 
L 27.390625 29.109375 
L 57.625 0 
L 45.90625 0 
L 18.109375 26.703125 
L 18.109375 0 
L 9.078125 0 
z
" id="DejaVuSans-107"/>
       <path d="M 9.421875 75.984375 
L 18.40625 75.984375 
L 18.40625 0 
L 9.421875 0 
z
" id="DejaVuSans-108"/>
       <path d="M 32.171875 -5.078125 
Q 28.375 -14.84375 24.75 -17.8125 
Q 21.140625 -20.796875 15.09375 -20.796875 
L 7.90625 -20.796875 
L 7.90625 -13.28125 
L 13.1875 -13.28125 
Q 16.890625 -13.28125 18.9375 -11.515625 
Q 21 -9.765625 23.484375 -3.21875 
L 25.09375 0.875 
L 2.984375 54.6875 
L 12.5 54.6875 
L 29.59375 11.921875 
L 46.6875 54.6875 
L 56.203125 54.6875 
z
" id="DejaVuSans-121"/>
       <path id="DejaVuSans-32"/>
       <path d="M 52 44.1875 
Q 55.375 50.25 60.0625 53.125 
Q 64.75 56 71.09375 56 
Q 79.640625 56 84.28125 50.015625 
Q 88.921875 44.046875 88.921875 33.015625 
L 88.921875 0 
L 79.890625 0 
L 79.890625 32.71875 
Q 79.890625 40.578125 77.09375 44.375 
Q 74.3125 48.1875 68.609375 48.1875 
Q 61.625 48.1875 57.5625 43.546875 
Q 53.515625 38.921875 53.515625 30.90625 
L 53.515625 0 
L 44.484375 0 
L 44.484375 32.71875 
Q 44.484375 40.625 41.703125 44.40625 
Q 38.921875 48.1875 33.109375 48.1875 
Q 26.21875 48.1875 22.15625 43.53125 
Q 18.109375 38.875 18.109375 30.90625 
L 18.109375 0 
L 9.078125 0 
L 9.078125 54.6875 
L 18.109375 54.6875 
L 18.109375 46.1875 
Q 21.1875 51.21875 25.484375 53.609375 
Q 29.78125 56 35.6875 56 
Q 41.65625 56 45.828125 52.96875 
Q 50 49.953125 52 44.1875 
z
" id="DejaVuSans-109"/>
       <path d="M 34.28125 27.484375 
Q 23.390625 27.484375 19.1875 25 
Q 14.984375 22.515625 14.984375 16.5 
Q 14.984375 11.71875 18.140625 8.90625 
Q 21.296875 6.109375 26.703125 6.109375 
Q 34.1875 6.109375 38.703125 11.40625 
Q 43.21875 16.703125 43.21875 25.484375 
L 43.21875 27.484375 
z
M 52.203125 31.203125 
L 52.203125 0 
L 43.21875 0 
L 43.21875 8.296875 
Q 40.140625 3.328125 35.546875 0.953125 
Q 30.953125 -1.421875 24.3125 -1.421875 
Q 15.921875 -1.421875 10.953125 3.296875 
Q 6 8.015625 6 15.921875 
Q 6 25.140625 12.171875 29.828125 
Q 18.359375 34.515625 30.609375 34.515625 
L 43.21875 34.515625 
L 43.21875 35.40625 
Q 43.21875 41.609375 39.140625 45 
Q 35.0625 48.390625 27.6875 48.390625 
Q 23 48.390625 18.546875 47.265625 
Q 14.109375 46.140625 10.015625 43.890625 
L 10.015625 52.203125 
Q 14.9375 54.109375 19.578125 55.046875 
Q 24.21875 56 28.609375 56 
Q 40.484375 56 46.34375 49.84375 
Q 52.203125 43.703125 52.203125 31.203125 
z
" id="DejaVuSans-97"/>
       <path d="M 54.890625 33.015625 
L 54.890625 0 
L 45.90625 0 
L 45.90625 32.71875 
Q 45.90625 40.484375 42.875 44.328125 
Q 39.84375 48.1875 33.796875 48.1875 
Q 26.515625 48.1875 22.3125 43.546875 
Q 18.109375 38.921875 18.109375 30.90625 
L 18.109375 0 
L 9.078125 0 
L 9.078125 54.6875 
L 18.109375 54.6875 
L 18.109375 46.1875 
Q 21.34375 51.125 25.703125 53.5625 
Q 30.078125 56 35.796875 56 
Q 45.21875 56 50.046875 50.171875 
Q 54.890625 44.34375 54.890625 33.015625 
z
" id="DejaVuSans-110"/>
      </defs>
      <use xlink:href="#DejaVuSans-119"/>
      <use x="81.787109" xlink:href="#DejaVuSans-101"/>
      <use x="143.310547" xlink:href="#DejaVuSans-101"/>
      <use x="204.833984" xlink:href="#DejaVuSans-107"/>
      <use x="262.744141" xlink:href="#DejaVuSans-108"/>
      <use x="290.527344" xlink:href="#DejaVuSans-121"/>
      <use x="349.707031" xlink:href="#DejaVuSans-32"/>
      <use x="381.494141" xlink:href="#DejaVuSans-73"/>
      <use x="410.986328" xlink:href="#DejaVuSans-67"/>
      <use x="480.810547" xlink:href="#DejaVuSans-32"/>
      <use x="512.597656" xlink:href="#DejaVuSans-109"/>
      <use x="610.009766" xlink:href="#DejaVuSans-101"/>
      <use x="671.533203" xlink:href="#DejaVuSans-97"/>
      <use x="732.8125" xlink:href="#DejaVuSans-110"/>
     </g>
    </g>
    <g id="line2d_16">
     <path d="M 59.9 53.696563 
L 79.9 53.696563 
" style="fill:none;stroke:#800080;stroke-dasharray:7.4,3.2;stroke-dashoffset:0;stroke-width:2;"/>
    </g>
    <g id="line2d_17"/>
    <g id="text_10">
     <!-- IC mean -->
     <g transform="translate(87.9 57.196563)scale(0.1 -0.1)">
      <use xlink:href="#DejaVuSans-73"/>
      <use x="29.492188" xlink:href="#DejaVuSans-67"/>
      <use x="99.316406" xlink:href="#DejaVuSans-32"/>
      <use x="131.103516" xlink:href="#DejaVuSans-109"/>
      <use x="228.515625" xlink:href="#DejaVuSans-101"/>
      <use x="290.039062" xlink:href="#DejaVuSans-97"/>
      <use x="351.318359" xlink:href="#DejaVuSans-110"/>
     </g>
    </g>
   </g>
  </g>
  <g id="axes_2">
   <g id="matplotlib.axis_3">
    <g id="ytick_7">
     <g id="line2d_18">
      <defs>
       <path d="M 0 0 
L 3.5 0 
" id="m48a864fa82" style="stroke:#000000;stroke-width:0.8;"/>
      </defs>
      <g>
       <use style="stroke:#000000;stroke-width:0.8;" x="1110.64" xlink:href="#m48a864fa82" y="400.455969"/>
      </g>
     </g>
     <g id="text_11">
      <!-- -1 -->
      <g transform="translate(1117.64 404.255187)scale(0.1 -0.1)">
       <use xlink:href="#DejaVuSans-45"/>
       <use x="36.083984" xlink:href="#DejaVuSans-49"/>
      </g>
     </g>
    </g>
    <g id="ytick_8">
     <g id="line2d_19">
      <g>
       <use style="stroke:#000000;stroke-width:0.8;" x="1110.64" xlink:href="#m48a864fa82" y="343.572446"/>
      </g>
     </g>
     <g id="text_12">
      <!-- 0 -->
      <g transform="translate(1117.64 347.371665)scale(0.1 -0.1)">
       <use xlink:href="#DejaVuSans-48"/>
      </g>
     </g>
    </g>
    <g id="ytick_9">
     <g id="line2d_20">
      <g>
       <use style="stroke:#000000;stroke-width:0.8;" x="1110.64" xlink:href="#m48a864fa82" y="286.688923"/>
      </g>
     </g>
     <g id="text_13">
      <!-- 1 -->
      <g transform="translate(1117.64 290.488142)scale(0.1 -0.1)">
       <use xlink:href="#DejaVuSans-49"/>
      </g>
     </g>
    </g>
    <g id="ytick_10">
     <g id="line2d_21">
      <g>
       <use style="stroke:#000000;stroke-width:0.8;" x="1110.64" xlink:href="#m48a864fa82" y="229.805401"/>
      </g>
     </g>
     <g id="text_14">
      <!-- 2 -->
      <g transform="translate(1117.64 233.60462)scale(0.1 -0.1)">
       <use xlink:href="#DejaVuSans-50"/>
      </g>
     </g>
    </g>
    <g id="ytick_11">
     <g id="line2d_22">
      <g>
       <use style="stroke:#000000;stroke-width:0.8;" x="1110.64" xlink:href="#m48a864fa82" y="172.921878"/>
      </g>
     </g>
     <g id="text_15">
      <!-- 3 -->
      <g transform="translate(1117.64 176.721097)scale(0.1 -0.1)">
       <use xlink:href="#DejaVuSans-51"/>
      </g>
     </g>
    </g>
    <g id="ytick_12">
     <g id="line2d_23">
      <g>
       <use style="stroke:#000000;stroke-width:0.8;" x="1110.64" xlink:href="#m48a864fa82" y="116.038356"/>
      </g>
     </g>
     <g id="text_16">
      <!-- 4 -->
      <g transform="translate(1117.64 119.837574)scale(0.1 -0.1)">
       <defs>
        <path d="M 37.796875 64.3125 
L 12.890625 25.390625 
L 37.796875 25.390625 
z
M 35.203125 72.90625 
L 47.609375 72.90625 
L 47.609375 25.390625 
L 58.015625 25.390625 
L 58.015625 17.1875 
L 47.609375 17.1875 
L 47.609375 0 
L 37.796875 0 
L 37.796875 17.1875 
L 4.890625 17.1875 
L 4.890625 26.703125 
z
" id="DejaVuSans-52"/>
       </defs>
       <use xlink:href="#DejaVuSans-52"/>
      </g>
     </g>
    </g>
    <g id="ytick_13">
     <g id="line2d_24">
      <g>
       <use style="stroke:#000000;stroke-width:0.8;" x="1110.64" xlink:href="#m48a864fa82" y="59.154833"/>
      </g>
     </g>
     <g id="text_17">
      <!-- 5 -->
      <g transform="translate(1117.64 62.954052)scale(0.1 -0.1)">
       <defs>
        <path d="M 10.796875 72.90625 
L 49.515625 72.90625 
L 49.515625 64.59375 
L 19.828125 64.59375 
L 19.828125 46.734375 
Q 21.96875 47.46875 24.109375 47.828125 
Q 26.265625 48.1875 28.421875 48.1875 
Q 40.625 48.1875 47.75 41.5 
Q 54.890625 34.8125 54.890625 23.390625 
Q 54.890625 11.625 47.5625 5.09375 
Q 40.234375 -1.421875 26.90625 -1.421875 
Q 22.3125 -1.421875 17.546875 -0.640625 
Q 12.796875 0.140625 7.71875 1.703125 
L 7.71875 11.625 
Q 12.109375 9.234375 16.796875 8.0625 
Q 21.484375 6.890625 26.703125 6.890625 
Q 35.15625 6.890625 40.078125 11.328125 
Q 45.015625 15.765625 45.015625 23.390625 
Q 45.015625 31 40.078125 35.4375 
Q 35.15625 39.890625 26.703125 39.890625 
Q 22.75 39.890625 18.8125 39.015625 
Q 14.890625 38.140625 10.796875 36.28125 
z
" id="DejaVuSans-53"/>
       </defs>
       <use xlink:href="#DejaVuSans-53"/>
      </g>
     </g>
    </g>
    <g id="text_18">
     <!-- IC cumsum -->
     <g transform="translate(1139.20875 253.3275)rotate(-90)scale(0.1 -0.1)">
      <defs>
       <path d="M 48.78125 52.59375 
L 48.78125 44.1875 
Q 44.96875 46.296875 41.140625 47.34375 
Q 37.3125 48.390625 33.40625 48.390625 
Q 24.65625 48.390625 19.8125 42.84375 
Q 14.984375 37.3125 14.984375 27.296875 
Q 14.984375 17.28125 19.8125 11.734375 
Q 24.65625 6.203125 33.40625 6.203125 
Q 37.3125 6.203125 41.140625 7.25 
Q 44.96875 8.296875 48.78125 10.40625 
L 48.78125 2.09375 
Q 45.015625 0.34375 40.984375 -0.53125 
Q 36.96875 -1.421875 32.421875 -1.421875 
Q 20.0625 -1.421875 12.78125 6.34375 
Q 5.515625 14.109375 5.515625 27.296875 
Q 5.515625 40.671875 12.859375 48.328125 
Q 20.21875 56 33.015625 56 
Q 37.15625 56 41.109375 55.140625 
Q 45.0625 54.296875 48.78125 52.59375 
z
" id="DejaVuSans-99"/>
       <path d="M 8.5 21.578125 
L 8.5 54.6875 
L 17.484375 54.6875 
L 17.484375 21.921875 
Q 17.484375 14.15625 20.5 10.265625 
Q 23.53125 6.390625 29.59375 6.390625 
Q 36.859375 6.390625 41.078125 11.03125 
Q 45.3125 15.671875 45.3125 23.6875 
L 45.3125 54.6875 
L 54.296875 54.6875 
L 54.296875 0 
L 45.3125 0 
L 45.3125 8.40625 
Q 42.046875 3.421875 37.71875 1 
Q 33.40625 -1.421875 27.6875 -1.421875 
Q 18.265625 -1.421875 13.375 4.4375 
Q 8.5 10.296875 8.5 21.578125 
z
M 31.109375 56 
z
" id="DejaVuSans-117"/>
       <path d="M 44.28125 53.078125 
L 44.28125 44.578125 
Q 40.484375 46.53125 36.375 47.5 
Q 32.28125 48.484375 27.875 48.484375 
Q 21.1875 48.484375 17.84375 46.4375 
Q 14.5 44.390625 14.5 40.28125 
Q 14.5 37.15625 16.890625 35.375 
Q 19.28125 33.59375 26.515625 31.984375 
L 29.59375 31.296875 
Q 39.15625 29.25 43.1875 25.515625 
Q 47.21875 21.78125 47.21875 15.09375 
Q 47.21875 7.46875 41.1875 3.015625 
Q 35.15625 -1.421875 24.609375 -1.421875 
Q 20.21875 -1.421875 15.453125 -0.5625 
Q 10.6875 0.296875 5.421875 2 
L 5.421875 11.28125 
Q 10.40625 8.6875 15.234375 7.390625 
Q 20.0625 6.109375 24.8125 6.109375 
Q 31.15625 6.109375 34.5625 8.28125 
Q 37.984375 10.453125 37.984375 14.40625 
Q 37.984375 18.0625 35.515625 20.015625 
Q 33.0625 21.96875 24.703125 23.78125 
L 21.578125 24.515625 
Q 13.234375 26.265625 9.515625 29.90625 
Q 5.8125 33.546875 5.8125 39.890625 
Q 5.8125 47.609375 11.28125 51.796875 
Q 16.75 56 26.8125 56 
Q 31.78125 56 36.171875 55.265625 
Q 40.578125 54.546875 44.28125 53.078125 
z
" id="DejaVuSans-115"/>
      </defs>
      <use xlink:href="#DejaVuSans-73"/>
      <use x="29.492188" xlink:href="#DejaVuSans-67"/>
      <use x="99.316406" xlink:href="#DejaVuSans-32"/>
      <use x="131.103516" xlink:href="#DejaVuSans-99"/>
      <use x="186.083984" xlink:href="#DejaVuSans-117"/>
      <use x="249.462891" xlink:href="#DejaVuSans-109"/>
      <use x="346.875" xlink:href="#DejaVuSans-115"/>
      <use x="398.974609" xlink:href="#DejaVuSans-117"/>
      <use x="462.353516" xlink:href="#DejaVuSans-109"/>
     </g>
    </g>
   </g>
   <g id="line2d_25">
    <path clip-path="url(#pf2bf16c190)" d="M 109.734945 324.015638 
L 120.399889 308.292275 
L 123.954871 313.247129 
L 127.509852 316.631193 
L 131.064834 289.894979 
L 134.619815 310.218358 
L 145.28476 289.125256 
L 148.839742 283.215721 
L 152.394723 303.264831 
L 155.949705 332.709846 
L 159.504686 340.805825 
L 170.169631 358.395702 
L 173.724613 345.369173 
L 177.279594 363.854704 
L 180.834576 365.138969 
L 184.389557 346.458761 
L 195.054502 311.689941 
L 198.609483 285.5892 
L 202.164465 263.981845 
L 205.719446 260.490269 
L 209.274428 259.450189 
L 219.939373 283.371098 
L 223.494354 285.055567 
L 227.049336 271.227905 
L 230.604317 297.535066 
L 234.159299 259.978808 
L 244.824244 270.364148 
L 248.379225 294.948285 
L 251.934207 288.51346 
L 255.489188 299.460841 
L 259.04417 274.325075 
L 269.709114 292.668883 
L 273.264096 277.987701 
L 276.819077 290.550592 
L 280.374059 271.47167 
L 283.929041 264.761114 
L 294.593985 258.109695 
L 298.148967 252.173065 
L 301.703948 258.402996 
L 305.25893 250.568649 
L 308.813911 213.363575 
L 319.478856 233.449108 
L 323.033838 203.675541 
L 326.588819 218.715563 
L 330.143801 195.507996 
L 333.698782 182.447313 
L 344.363727 215.915885 
L 347.918708 242.731502 
L 351.47369 219.494667 
L 355.028672 240.212955 
L 358.583653 224.066833 
L 369.248598 227.601323 
L 372.803579 204.466311 
L 376.358561 217.796647 
L 379.913542 202.005191 
L 383.468524 215.248861 
L 394.133469 219.402154 
L 397.68845 215.782985 
L 401.243432 223.117744 
L 404.798413 223.676047 
L 408.353395 241.54038 
L 419.018339 256.480067 
L 422.573321 260.516744 
L 426.128303 232.051875 
L 429.683284 206.239545 
L 433.238266 200.930375 
L 443.90321 201.692826 
L 447.458192 164.702629 
L 451.013173 145.345888 
L 454.568155 112.700139 
L 458.123137 149.296544 
L 468.788081 136.074043 
L 472.343063 119.228556 
L 475.898044 107.304493 
L 479.453026 87.769889 
L 483.008007 109.74587 
L 493.672952 126.02644 
L 497.227934 138.692659 
L 500.782915 146.966084 
L 504.337897 161.434874 
L 507.892878 177.727835 
L 518.557823 164.568592 
L 522.112804 158.811775 
L 525.667786 169.295004 
L 529.222768 201.991748 
L 532.777749 225.568106 
L 543.442694 211.615633 
L 546.997675 235.67315 
L 550.552657 219.829551 
L 554.107638 225.101134 
L 557.66262 201.027701 
L 568.327565 180.793769 
L 571.882546 172.14683 
L 575.437528 148.997042 
L 578.992509 178.702073 
L 582.547491 175.445768 
L 593.212435 147.502473 
L 596.767417 164.514936 
L 600.322399 147.217252 
L 603.87738 154.005606 
L 607.432362 171.773948 
L 618.097306 132.679607 
L 621.652288 155.85096 
L 625.207269 158.55785 
L 628.762251 140.698633 
L 632.317232 153.056319 
L 642.982177 180.415568 
L 646.537159 182.949246 
L 650.09214 202.917836 
L 653.647122 240.295066 
L 657.202103 222.203898 
L 667.867048 190.421337 
L 671.42203 186.110854 
L 674.977011 208.91095 
L 678.531993 192.920749 
L 682.086974 229.158548 
L 692.751919 239.192593 
L 696.3069 244.369438 
L 699.861882 282.383583 
L 703.416863 257.009183 
L 706.971845 295.032727 
L 717.63679 267.87318 
L 721.191771 280.424868 
L 724.746753 286.532324 
L 728.301734 269.074795 
L 731.856716 288.880831 
L 742.521661 316.021016 
L 746.076642 336.592959 
L 749.631624 363.042324 
L 753.186605 367.673836 
L 756.741587 348.466657 
L 767.406531 358.618789 
L 770.961513 335.380252 
L 774.516494 378.297048 
L 781.626458 390.193419 
L 792.291402 406.630909 
L 795.846384 401.330901 
L 799.401365 373.12273 
L 802.956347 375.543251 
L 806.511328 353.063858 
L 817.176273 334.473566 
L 820.731255 301.100503 
L 824.286236 303.921886 
L 827.841218 319.144712 
L 831.396199 341.238311 
L 842.061144 332.820706 
L 845.616125 305.281647 
L 849.171107 308.359397 
L 852.726089 314.612875 
L 856.28107 334.133879 
L 866.946015 358.961153 
L 870.500996 361.38817 
L 874.055978 328.122217 
L 877.610959 340.437773 
L 881.165941 323.565465 
L 891.830886 317.924449 
L 895.385867 329.836169 
L 898.940849 313.423888 
L 902.49583 304.181555 
L 906.050812 323.771121 
L 916.715756 319.251994 
L 920.270738 331.910866 
L 923.82572 305.693893 
L 927.380701 296.970024 
L 930.935683 284.268426 
L 941.600627 248.308439 
L 945.155609 214.507467 
L 948.71059 204.53316 
L 952.265572 190.074876 
L 955.820554 212.077271 
L 966.485498 199.694412 
L 970.04048 185.890481 
L 973.595461 189.916394 
L 977.150443 150.364244 
L 980.705424 150.774373 
L 991.370369 161.073157 
L 994.925351 192.046027 
L 998.480332 179.789053 
L 1005.590295 116.492895 
L 1016.25524 94.149168 
L 1019.810221 46.880003 
L 1023.365203 44.33407 
L 1026.920185 53.144924 
L 1030.475166 78.748812 
L 1041.140111 52.67056 
L 1044.695092 82.55826 
L 1048.250074 81.877231 
L 1051.805055 44.049091 
L 1051.805055 44.049091 
" style="fill:none;stroke:#ff0000;stroke-linecap:square;stroke-width:1.5;"/>
   </g>
   <g id="patch_49">
    <path d="M 50.9 424.76 
L 50.9 25.92 
" style="fill:none;stroke:#000000;stroke-linecap:square;stroke-linejoin:miter;stroke-width:0.8;"/>
   </g>
   <g id="patch_50">
    <path d="M 1110.64 424.76 
L 1110.64 25.92 
" style="fill:none;stroke:#000000;stroke-linecap:square;stroke-linejoin:miter;stroke-width:0.8;"/>
   </g>
   <g id="patch_51">
    <path d="M 50.9 424.76 
L 1110.64 424.76 
" style="fill:none;stroke:#000000;stroke-linecap:square;stroke-linejoin:miter;stroke-width:0.8;"/>
   </g>
   <g id="patch_52">
    <path d="M 50.9 25.92 
L 1110.64 25.92 
" style="fill:none;stroke:#000000;stroke-linecap:square;stroke-linejoin:miter;stroke-width:0.8;"/>
   </g>
   <g id="legend_2">
    <g id="patch_53">
     <path d="M 988.535312 48.598125 
L 1103.64 48.598125 
Q 1105.64 48.598125 1105.64 46.598125 
L 1105.64 32.92 
Q 1105.64 30.92 1103.64 30.92 
L 988.535312 30.92 
Q 986.535312 30.92 986.535312 32.92 
L 986.535312 46.598125 
Q 986.535312 48.598125 988.535312 48.598125 
z
" style="fill:#ffffff;opacity:0.8;stroke:#cccccc;stroke-linejoin:miter;"/>
    </g>
    <g id="line2d_26">
     <path d="M 990.535312 39.018438 
L 1010.535312 39.018438 
" style="fill:none;stroke:#ff0000;stroke-linecap:square;stroke-width:1.5;"/>
    </g>
    <g id="line2d_27"/>
    <g id="text_19">
     <!-- daily IC cumsum -->
     <g transform="translate(1018.535312 42.518438)scale(0.1 -0.1)">
      <defs>
       <path d="M 45.40625 46.390625 
L 45.40625 75.984375 
L 54.390625 75.984375 
L 54.390625 0 
L 45.40625 0 
L 45.40625 8.203125 
Q 42.578125 3.328125 38.25 0.953125 
Q 33.9375 -1.421875 27.875 -1.421875 
Q 17.96875 -1.421875 11.734375 6.484375 
Q 5.515625 14.40625 5.515625 27.296875 
Q 5.515625 40.1875 11.734375 48.09375 
Q 17.96875 56 27.875 56 
Q 33.9375 56 38.25 53.625 
Q 42.578125 51.265625 45.40625 46.390625 
z
M 14.796875 27.296875 
Q 14.796875 17.390625 18.875 11.75 
Q 22.953125 6.109375 30.078125 6.109375 
Q 37.203125 6.109375 41.296875 11.75 
Q 45.40625 17.390625 45.40625 27.296875 
Q 45.40625 37.203125 41.296875 42.84375 
Q 37.203125 48.484375 30.078125 48.484375 
Q 22.953125 48.484375 18.875 42.84375 
Q 14.796875 37.203125 14.796875 27.296875 
z
" id="DejaVuSans-100"/>
       <path d="M 9.421875 54.6875 
L 18.40625 54.6875 
L 18.40625 0 
L 9.421875 0 
z
M 9.421875 75.984375 
L 18.40625 75.984375 
L 18.40625 64.59375 
L 9.421875 64.59375 
z
" id="DejaVuSans-105"/>
      </defs>
      <use xlink:href="#DejaVuSans-100"/>
      <use x="63.476562" xlink:href="#DejaVuSans-97"/>
      <use x="124.755859" xlink:href="#DejaVuSans-105"/>
      <use x="152.539062" xlink:href="#DejaVuSans-108"/>
      <use x="180.322266" xlink:href="#DejaVuSans-121"/>
      <use x="239.501953" xlink:href="#DejaVuSans-32"/>
      <use x="271.289062" xlink:href="#DejaVuSans-73"/>
      <use x="300.78125" xlink:href="#DejaVuSans-67"/>
      <use x="370.605469" xlink:href="#DejaVuSans-32"/>
      <use x="402.392578" xlink:href="#DejaVuSans-99"/>
      <use x="457.373047" xlink:href="#DejaVuSans-117"/>
      <use x="520.751953" xlink:href="#DejaVuSans-109"/>
      <use x="618.164062" xlink:href="#DejaVuSans-115"/>
      <use x="670.263672" xlink:href="#DejaVuSans-117"/>
      <use x="733.642578" xlink:href="#DejaVuSans-109"/>
     </g>
    </g>
   </g>
  </g>
  <g id="axes_3">
   <g id="matplotlib.axis_4">
    <g id="ytick_14">
     <g id="line2d_28">
      <g>
       <use style="stroke:#000000;stroke-width:0.8;" x="1110.64" xlink:href="#m48a864fa82" y="424.76"/>
      </g>
     </g>
    </g>
    <g id="ytick_15">
     <g id="line2d_29">
      <g>
       <use style="stroke:#000000;stroke-width:0.8;" x="1110.64" xlink:href="#m48a864fa82" y="344.992"/>
      </g>
     </g>
    </g>
    <g id="ytick_16">
     <g id="line2d_30">
      <g>
       <use style="stroke:#000000;stroke-width:0.8;" x="1110.64" xlink:href="#m48a864fa82" y="265.224"/>
      </g>
     </g>
    </g>
    <g id="ytick_17">
     <g id="line2d_31">
      <g>
       <use style="stroke:#000000;stroke-width:0.8;" x="1110.64" xlink:href="#m48a864fa82" y="185.456"/>
      </g>
     </g>
    </g>
    <g id="ytick_18">
     <g id="line2d_32">
      <g>
       <use style="stroke:#000000;stroke-width:0.8;" x="1110.64" xlink:href="#m48a864fa82" y="105.688"/>
      </g>
     </g>
    </g>
    <g id="ytick_19">
     <g id="line2d_33">
      <g>
       <use style="stroke:#000000;stroke-width:0.8;" x="1110.64" xlink:href="#m48a864fa82" y="25.92"/>
      </g>
     </g>
    </g>
   </g>
   <g id="patch_54">
    <path d="M 50.9 424.76 
L 50.9 25.92 
" style="fill:none;stroke:#000000;stroke-linecap:square;stroke-linejoin:miter;stroke-width:0.8;"/>
   </g>
   <g id="patch_55">
    <path d="M 1110.64 424.76 
L 1110.64 25.92 
" style="fill:none;stroke:#000000;stroke-linecap:square;stroke-linejoin:miter;stroke-width:0.8;"/>
   </g>
   <g id="patch_56">
    <path d="M 50.9 424.76 
L 1110.64 424.76 
" style="fill:none;stroke:#000000;stroke-linecap:square;stroke-linejoin:miter;stroke-width:0.8;"/>
   </g>
   <g id="patch_57">
    <path d="M 50.9 25.92 
L 1110.64 25.92 
" style="fill:none;stroke:#000000;stroke-linecap:square;stroke-linejoin:miter;stroke-width:0.8;"/>
   </g>
   <g id="text_20">
    <!-- IC: (2010-01-04 ~ 2010-10-08) -->
    <g transform="translate(487.62 19.92)scale(0.12 -0.12)">
     <defs>
      <path d="M 11.71875 12.40625 
L 22.015625 12.40625 
L 22.015625 0 
L 11.71875 0 
z
M 11.71875 51.703125 
L 22.015625 51.703125 
L 22.015625 39.3125 
L 11.71875 39.3125 
z
" id="DejaVuSans-58"/>
      <path d="M 31 75.875 
Q 24.46875 64.65625 21.28125 53.65625 
Q 18.109375 42.671875 18.109375 31.390625 
Q 18.109375 20.125 21.3125 9.0625 
Q 24.515625 -2 31 -13.1875 
L 23.1875 -13.1875 
Q 15.875 -1.703125 12.234375 9.375 
Q 8.59375 20.453125 8.59375 31.390625 
Q 8.59375 42.28125 12.203125 53.3125 
Q 15.828125 64.359375 23.1875 75.875 
z
" id="DejaVuSans-40"/>
      <path d="M 73.1875 39.890625 
L 73.1875 31.203125 
Q 68.0625 27.34375 63.6875 25.6875 
Q 59.328125 24.03125 54.59375 24.03125 
Q 49.21875 24.03125 42.09375 26.90625 
Q 41.546875 27.09375 41.3125 27.203125 
Q 40.96875 27.34375 40.234375 27.59375 
Q 32.671875 30.609375 28.078125 30.609375 
Q 23.78125 30.609375 19.578125 28.734375 
Q 15.375 26.859375 10.59375 22.796875 
L 10.59375 31.5 
Q 15.71875 35.359375 20.09375 37.03125 
Q 24.46875 38.71875 29.203125 38.71875 
Q 34.578125 38.71875 41.75 35.796875 
Q 42.234375 35.59375 42.484375 35.5 
Q 42.875 35.359375 43.5625 35.109375 
Q 51.125 32.078125 55.71875 32.078125 
Q 59.90625 32.078125 64.03125 33.9375 
Q 68.171875 35.796875 73.1875 39.890625 
z
" id="DejaVuSans-126"/>
      <path d="M 31.78125 34.625 
Q 24.75 34.625 20.71875 30.859375 
Q 16.703125 27.09375 16.703125 20.515625 
Q 16.703125 13.921875 20.71875 10.15625 
Q 24.75 6.390625 31.78125 6.390625 
Q 38.8125 6.390625 42.859375 10.171875 
Q 46.921875 13.96875 46.921875 20.515625 
Q 46.921875 27.09375 42.890625 30.859375 
Q 38.875 34.625 31.78125 34.625 
z
M 21.921875 38.8125 
Q 15.578125 40.375 12.03125 44.71875 
Q 8.5 49.078125 8.5 55.328125 
Q 8.5 64.0625 14.71875 69.140625 
Q 20.953125 74.21875 31.78125 74.21875 
Q 42.671875 74.21875 48.875 69.140625 
Q 55.078125 64.0625 55.078125 55.328125 
Q 55.078125 49.078125 51.53125 44.71875 
Q 48 40.375 41.703125 38.8125 
Q 48.828125 37.15625 52.796875 32.3125 
Q 56.78125 27.484375 56.78125 20.515625 
Q 56.78125 9.90625 50.3125 4.234375 
Q 43.84375 -1.421875 31.78125 -1.421875 
Q 19.734375 -1.421875 13.25 4.234375 
Q 6.78125 9.90625 6.78125 20.515625 
Q 6.78125 27.484375 10.78125 32.3125 
Q 14.796875 37.15625 21.921875 38.8125 
z
M 18.3125 54.390625 
Q 18.3125 48.734375 21.84375 45.5625 
Q 25.390625 42.390625 31.78125 42.390625 
Q 38.140625 42.390625 41.71875 45.5625 
Q 45.3125 48.734375 45.3125 54.390625 
Q 45.3125 60.0625 41.71875 63.234375 
Q 38.140625 66.40625 31.78125 66.40625 
Q 25.390625 66.40625 21.84375 63.234375 
Q 18.3125 60.0625 18.3125 54.390625 
z
" id="DejaVuSans-56"/>
      <path d="M 8.015625 75.875 
L 15.828125 75.875 
Q 23.140625 64.359375 26.78125 53.3125 
Q 30.421875 42.28125 30.421875 31.390625 
Q 30.421875 20.453125 26.78125 9.375 
Q 23.140625 -1.703125 15.828125 -13.1875 
L 8.015625 -13.1875 
Q 14.5 -2 17.703125 9.0625 
Q 20.90625 20.125 20.90625 31.390625 
Q 20.90625 42.671875 17.703125 53.65625 
Q 14.5 64.65625 8.015625 75.875 
z
" id="DejaVuSans-41"/>
     </defs>
     <use xlink:href="#DejaVuSans-73"/>
     <use x="29.492188" xlink:href="#DejaVuSans-67"/>
     <use x="99.316406" xlink:href="#DejaVuSans-58"/>
     <use x="133.007812" xlink:href="#DejaVuSans-32"/>
     <use x="164.794922" xlink:href="#DejaVuSans-40"/>
     <use x="203.808594" xlink:href="#DejaVuSans-50"/>
     <use x="267.431641" xlink:href="#DejaVuSans-48"/>
     <use x="331.054688" xlink:href="#DejaVuSans-49"/>
     <use x="394.677734" xlink:href="#DejaVuSans-48"/>
     <use x="458.300781" xlink:href="#DejaVuSans-45"/>
     <use x="494.384766" xlink:href="#DejaVuSans-48"/>
     <use x="558.007812" xlink:href="#DejaVuSans-49"/>
     <use x="621.630859" xlink:href="#DejaVuSans-45"/>
     <use x="657.714844" xlink:href="#DejaVuSans-48"/>
     <use x="721.337891" xlink:href="#DejaVuSans-52"/>
     <use x="784.960938" xlink:href="#DejaVuSans-32"/>
     <use x="816.748047" xlink:href="#DejaVuSans-126"/>
     <use x="900.537109" xlink:href="#DejaVuSans-32"/>
     <use x="932.324219" xlink:href="#DejaVuSans-50"/>
     <use x="995.947266" xlink:href="#DejaVuSans-48"/>
     <use x="1059.570312" xlink:href="#DejaVuSans-49"/>
     <use x="1123.193359" xlink:href="#DejaVuSans-48"/>
     <use x="1186.816406" xlink:href="#DejaVuSans-45"/>
     <use x="1222.900391" xlink:href="#DejaVuSans-49"/>
     <use x="1286.523438" xlink:href="#DejaVuSans-48"/>
     <use x="1350.146484" xlink:href="#DejaVuSans-45"/>
     <use x="1386.230469" xlink:href="#DejaVuSans-48"/>
     <use x="1449.853516" xlink:href="#DejaVuSans-56"/>
     <use x="1513.476562" xlink:href="#DejaVuSans-41"/>
    </g>
   </g>
   <g id="legend_3">
    <g id="patch_58">
     <path d="M 507.227812 92.6325 
L 654.312187 92.6325 
Q 656.312187 92.6325 656.312187 90.6325 
L 656.312187 32.92 
Q 656.312187 30.92 654.312187 30.92 
L 507.227812 30.92 
Q 505.227812 30.92 505.227812 32.92 
L 505.227812 90.6325 
Q 505.227812 92.6325 507.227812 92.6325 
z
" style="fill:#ffffff;opacity:0.8;stroke:#cccccc;stroke-linejoin:miter;"/>
    </g>
    <g id="line2d_34"/>
    <g id="line2d_35"/>
    <g id="text_21">
     <!-- IC mean:   0.0277         -->
     <g transform="translate(537.227812 42.518438)scale(0.1 -0.1)">
      <defs>
       <path d="M 8.203125 72.90625 
L 55.078125 72.90625 
L 55.078125 68.703125 
L 28.609375 0 
L 18.3125 0 
L 43.21875 64.59375 
L 8.203125 64.59375 
z
" id="DejaVuSans-55"/>
      </defs>
      <use xlink:href="#DejaVuSans-73"/>
      <use x="29.492188" xlink:href="#DejaVuSans-67"/>
      <use x="99.316406" xlink:href="#DejaVuSans-32"/>
      <use x="131.103516" xlink:href="#DejaVuSans-109"/>
      <use x="228.515625" xlink:href="#DejaVuSans-101"/>
      <use x="290.039062" xlink:href="#DejaVuSans-97"/>
      <use x="351.318359" xlink:href="#DejaVuSans-110"/>
      <use x="414.697266" xlink:href="#DejaVuSans-58"/>
      <use x="448.388672" xlink:href="#DejaVuSans-32"/>
      <use x="480.175781" xlink:href="#DejaVuSans-32"/>
      <use x="511.962891" xlink:href="#DejaVuSans-32"/>
      <use x="543.75" xlink:href="#DejaVuSans-48"/>
      <use x="607.373047" xlink:href="#DejaVuSans-46"/>
      <use x="639.160156" xlink:href="#DejaVuSans-48"/>
      <use x="702.783203" xlink:href="#DejaVuSans-50"/>
      <use x="766.40625" xlink:href="#DejaVuSans-55"/>
      <use x="830.029297" xlink:href="#DejaVuSans-55"/>
      <use x="893.652344" xlink:href="#DejaVuSans-32"/>
      <use x="925.439453" xlink:href="#DejaVuSans-32"/>
      <use x="957.226562" xlink:href="#DejaVuSans-32"/>
      <use x="989.013672" xlink:href="#DejaVuSans-32"/>
      <use x="1020.800781" xlink:href="#DejaVuSans-32"/>
      <use x="1052.587891" xlink:href="#DejaVuSans-32"/>
      <use x="1084.375" xlink:href="#DejaVuSans-32"/>
      <use x="1116.162109" xlink:href="#DejaVuSans-32"/>
     </g>
    </g>
    <g id="line2d_36"/>
    <g id="line2d_37"/>
    <g id="text_22">
     <!-- IC std:       0.3591         -->
     <g transform="translate(537.227812 57.196563)scale(0.1 -0.1)">
      <defs>
       <path d="M 18.3125 70.21875 
L 18.3125 54.6875 
L 36.8125 54.6875 
L 36.8125 47.703125 
L 18.3125 47.703125 
L 18.3125 18.015625 
Q 18.3125 11.328125 20.140625 9.421875 
Q 21.96875 7.515625 27.59375 7.515625 
L 36.8125 7.515625 
L 36.8125 0 
L 27.59375 0 
Q 17.1875 0 13.234375 3.875 
Q 9.28125 7.765625 9.28125 18.015625 
L 9.28125 47.703125 
L 2.6875 47.703125 
L 2.6875 54.6875 
L 9.28125 54.6875 
L 9.28125 70.21875 
z
" id="DejaVuSans-116"/>
       <path d="M 10.984375 1.515625 
L 10.984375 10.5 
Q 14.703125 8.734375 18.5 7.8125 
Q 22.3125 6.890625 25.984375 6.890625 
Q 35.75 6.890625 40.890625 13.453125 
Q 46.046875 20.015625 46.78125 33.40625 
Q 43.953125 29.203125 39.59375 26.953125 
Q 35.25 24.703125 29.984375 24.703125 
Q 19.046875 24.703125 12.671875 31.3125 
Q 6.296875 37.9375 6.296875 49.421875 
Q 6.296875 60.640625 12.9375 67.421875 
Q 19.578125 74.21875 30.609375 74.21875 
Q 43.265625 74.21875 49.921875 64.515625 
Q 56.59375 54.828125 56.59375 36.375 
Q 56.59375 19.140625 48.40625 8.859375 
Q 40.234375 -1.421875 26.421875 -1.421875 
Q 22.703125 -1.421875 18.890625 -0.6875 
Q 15.09375 0.046875 10.984375 1.515625 
z
M 30.609375 32.421875 
Q 37.25 32.421875 41.125 36.953125 
Q 45.015625 41.5 45.015625 49.421875 
Q 45.015625 57.28125 41.125 61.84375 
Q 37.25 66.40625 30.609375 66.40625 
Q 23.96875 66.40625 20.09375 61.84375 
Q 16.21875 57.28125 16.21875 49.421875 
Q 16.21875 41.5 20.09375 36.953125 
Q 23.96875 32.421875 30.609375 32.421875 
z
" id="DejaVuSans-57"/>
      </defs>
      <use xlink:href="#DejaVuSans-73"/>
      <use x="29.492188" xlink:href="#DejaVuSans-67"/>
      <use x="99.316406" xlink:href="#DejaVuSans-32"/>
      <use x="131.103516" xlink:href="#DejaVuSans-115"/>
      <use x="183.203125" xlink:href="#DejaVuSans-116"/>
      <use x="222.412109" xlink:href="#DejaVuSans-100"/>
      <use x="285.888672" xlink:href="#DejaVuSans-58"/>
      <use x="319.580078" xlink:href="#DejaVuSans-32"/>
      <use x="351.367188" xlink:href="#DejaVuSans-32"/>
      <use x="383.154297" xlink:href="#DejaVuSans-32"/>
      <use x="414.941406" xlink:href="#DejaVuSans-32"/>
      <use x="446.728516" xlink:href="#DejaVuSans-32"/>
      <use x="478.515625" xlink:href="#DejaVuSans-32"/>
      <use x="510.302734" xlink:href="#DejaVuSans-32"/>
      <use x="542.089844" xlink:href="#DejaVuSans-48"/>
      <use x="605.712891" xlink:href="#DejaVuSans-46"/>
      <use x="637.5" xlink:href="#DejaVuSans-51"/>
      <use x="701.123047" xlink:href="#DejaVuSans-53"/>
      <use x="764.746094" xlink:href="#DejaVuSans-57"/>
      <use x="828.369141" xlink:href="#DejaVuSans-49"/>
      <use x="891.992188" xlink:href="#DejaVuSans-32"/>
      <use x="923.779297" xlink:href="#DejaVuSans-32"/>
      <use x="955.566406" xlink:href="#DejaVuSans-32"/>
      <use x="987.353516" xlink:href="#DejaVuSans-32"/>
      <use x="1019.140625" xlink:href="#DejaVuSans-32"/>
      <use x="1050.927734" xlink:href="#DejaVuSans-32"/>
      <use x="1082.714844" xlink:href="#DejaVuSans-32"/>
      <use x="1114.501953" xlink:href="#DejaVuSans-32"/>
     </g>
    </g>
    <g id="line2d_38"/>
    <g id="line2d_39"/>
    <g id="text_23">
     <!-- IC IR:         0.0772         -->
     <g transform="translate(537.227812 71.874688)scale(0.1 -0.1)">
      <defs>
       <path d="M 44.390625 34.1875 
Q 47.5625 33.109375 50.5625 29.59375 
Q 53.5625 26.078125 56.59375 19.921875 
L 66.609375 0 
L 56 0 
L 46.6875 18.703125 
Q 43.0625 26.03125 39.671875 28.421875 
Q 36.28125 30.8125 30.421875 30.8125 
L 19.671875 30.8125 
L 19.671875 0 
L 9.8125 0 
L 9.8125 72.90625 
L 32.078125 72.90625 
Q 44.578125 72.90625 50.734375 67.671875 
Q 56.890625 62.453125 56.890625 51.90625 
Q 56.890625 45.015625 53.6875 40.46875 
Q 50.484375 35.9375 44.390625 34.1875 
z
M 19.671875 64.796875 
L 19.671875 38.921875 
L 32.078125 38.921875 
Q 39.203125 38.921875 42.84375 42.21875 
Q 46.484375 45.515625 46.484375 51.90625 
Q 46.484375 58.296875 42.84375 61.546875 
Q 39.203125 64.796875 32.078125 64.796875 
z
" id="DejaVuSans-82"/>
      </defs>
      <use xlink:href="#DejaVuSans-73"/>
      <use x="29.492188" xlink:href="#DejaVuSans-67"/>
      <use x="99.316406" xlink:href="#DejaVuSans-32"/>
      <use x="131.103516" xlink:href="#DejaVuSans-73"/>
      <use x="160.595703" xlink:href="#DejaVuSans-82"/>
      <use x="226.953125" xlink:href="#DejaVuSans-58"/>
      <use x="260.644531" xlink:href="#DejaVuSans-32"/>
      <use x="292.431641" xlink:href="#DejaVuSans-32"/>
      <use x="324.21875" xlink:href="#DejaVuSans-32"/>
      <use x="356.005859" xlink:href="#DejaVuSans-32"/>
      <use x="387.792969" xlink:href="#DejaVuSans-32"/>
      <use x="419.580078" xlink:href="#DejaVuSans-32"/>
      <use x="451.367188" xlink:href="#DejaVuSans-32"/>
      <use x="483.154297" xlink:href="#DejaVuSans-32"/>
      <use x="514.941406" xlink:href="#DejaVuSans-32"/>
      <use x="546.728516" xlink:href="#DejaVuSans-48"/>
      <use x="610.351562" xlink:href="#DejaVuSans-46"/>
      <use x="642.138672" xlink:href="#DejaVuSans-48"/>
      <use x="705.761719" xlink:href="#DejaVuSans-55"/>
      <use x="769.384766" xlink:href="#DejaVuSans-55"/>
      <use x="833.007812" xlink:href="#DejaVuSans-50"/>
      <use x="896.630859" xlink:href="#DejaVuSans-32"/>
      <use x="928.417969" xlink:href="#DejaVuSans-32"/>
      <use x="960.205078" xlink:href="#DejaVuSans-32"/>
      <use x="991.992188" xlink:href="#DejaVuSans-32"/>
      <use x="1023.779297" xlink:href="#DejaVuSans-32"/>
      <use x="1055.566406" xlink:href="#DejaVuSans-32"/>
      <use x="1087.353516" xlink:href="#DejaVuSans-32"/>
      <use x="1119.140625" xlink:href="#DejaVuSans-32"/>
     </g>
    </g>
    <g id="line2d_40"/>
    <g id="line2d_41"/>
    <g id="text_24">
     <!-- IC (+)rate: 0.4750 -->
     <g transform="translate(537.227812 86.552813)scale(0.1 -0.1)">
      <defs>
       <path d="M 46 62.703125 
L 46 35.5 
L 73.1875 35.5 
L 73.1875 27.203125 
L 46 27.203125 
L 46 0 
L 37.796875 0 
L 37.796875 27.203125 
L 10.59375 27.203125 
L 10.59375 35.5 
L 37.796875 35.5 
L 37.796875 62.703125 
z
" id="DejaVuSans-43"/>
       <path d="M 41.109375 46.296875 
Q 39.59375 47.171875 37.8125 47.578125 
Q 36.03125 48 33.890625 48 
Q 26.265625 48 22.1875 43.046875 
Q 18.109375 38.09375 18.109375 28.8125 
L 18.109375 0 
L 9.078125 0 
L 9.078125 54.6875 
L 18.109375 54.6875 
L 18.109375 46.1875 
Q 20.953125 51.171875 25.484375 53.578125 
Q 30.03125 56 36.53125 56 
Q 37.453125 56 38.578125 55.875 
Q 39.703125 55.765625 41.0625 55.515625 
z
" id="DejaVuSans-114"/>
      </defs>
      <use xlink:href="#DejaVuSans-73"/>
      <use x="29.492188" xlink:href="#DejaVuSans-67"/>
      <use x="99.316406" xlink:href="#DejaVuSans-32"/>
      <use x="131.103516" xlink:href="#DejaVuSans-40"/>
      <use x="170.117188" xlink:href="#DejaVuSans-43"/>
      <use x="253.90625" xlink:href="#DejaVuSans-41"/>
      <use x="292.919922" xlink:href="#DejaVuSans-114"/>
      <use x="334.033203" xlink:href="#DejaVuSans-97"/>
      <use x="395.3125" xlink:href="#DejaVuSans-116"/>
      <use x="434.521484" xlink:href="#DejaVuSans-101"/>
      <use x="496.044922" xlink:href="#DejaVuSans-58"/>
      <use x="529.736328" xlink:href="#DejaVuSans-32"/>
      <use x="561.523438" xlink:href="#DejaVuSans-48"/>
      <use x="625.146484" xlink:href="#DejaVuSans-46"/>
      <use x="656.933594" xlink:href="#DejaVuSans-52"/>
      <use x="720.556641" xlink:href="#DejaVuSans-55"/>
      <use x="784.179688" xlink:href="#DejaVuSans-53"/>
      <use x="847.802734" xlink:href="#DejaVuSans-48"/>
     </g>
    </g>
   </g>
  </g>
 </g>
 <defs>
  <clipPath id="pf2bf16c190">
   <rect height="398.84" width="1059.74" x="50.9" y="25.92"/>
  </clipPath>
 </defs>
</svg>
