<?xml version="1.0" encoding="utf-8" standalone="no"?>
<!DOCTYPE svg PUBLIC "-//W3C//DTD SVG 1.1//EN"
  "http://www.w3.org/Graphics/SVG/1.1/DTD/svg11.dtd">
<!-- Created with matplotlib (https://matplotlib.org/) -->
<svg height="316.8pt" version="1.1" viewBox="0 0 1152 316.8" width="1152pt" xmlns="http://www.w3.org/2000/svg" xmlns:xlink="http://www.w3.org/1999/xlink">
 <metadata>
  <rdf:RDF xmlns:cc="http://creativecommons.org/ns#" xmlns:dc="http://purl.org/dc/elements/1.1/" xmlns:rdf="http://www.w3.org/1999/02/22-rdf-syntax-ns#">
   <cc:Work>
    <dc:type rdf:resource="http://purl.org/dc/dcmitype/StillImage"/>
    <dc:date>2023-07-20T10:43:18.274328</dc:date>
    <dc:format>image/svg+xml</dc:format>
    <dc:creator>
     <cc:Agent>
      <dc:title>Matplotlib v3.3.4, https://matplotlib.org/</dc:title>
     </cc:Agent>
    </dc:creator>
   </cc:Work>
  </rdf:RDF>
 </metadata>
 <defs>
  <style type="text/css">*{stroke-linecap:butt;stroke-linejoin:round;}</style>
 </defs>
 <g id="figure_1">
  <g id="patch_1">
   <path d="M 0 316.8 
L 1152 316.8 
L 1152 0 
L 0 0 
z
" style="fill:#ffffff;"/>
  </g>
  <g id="axes_1">
   <g id="patch_2">
    <path d="M 33.7 273.56 
L 1141.2 273.56 
L 1141.2 25.92 
L 33.7 25.92 
z
" style="fill:#ffffff;"/>
   </g>
   <g id="matplotlib.axis_1">
    <g id="xtick_1">
     <g id="line2d_1">
      <path clip-path="url(#pd95f1a97a0)" d="M 54.42861 273.56 
L 54.42861 25.92 
" style="fill:none;stroke:#b0b0b0;stroke-linecap:square;stroke-width:0.8;"/>
     </g>
     <g id="line2d_2">
      <defs>
       <path d="M 0 0 
L 0 3.5 
" id="mf52047d023" style="stroke:#000000;stroke-width:0.8;"/>
      </defs>
      <g>
       <use style="stroke:#000000;stroke-width:0.8;" x="54.42861" xlink:href="#mf52047d023" y="273.56"/>
      </g>
     </g>
     <g id="text_1">
      <!-- 2010 -->
      <g transform="translate(57.187985 306.01)rotate(-90)scale(0.1 -0.1)">
       <defs>
        <path d="M 19.1875 8.296875 
L 53.609375 8.296875 
L 53.609375 0 
L 7.328125 0 
L 7.328125 8.296875 
Q 12.9375 14.109375 22.625 23.890625 
Q 32.328125 33.6875 34.8125 36.53125 
Q 39.546875 41.84375 41.421875 45.53125 
Q 43.3125 49.21875 43.3125 52.78125 
Q 43.3125 58.59375 39.234375 62.25 
Q 35.15625 65.921875 28.609375 65.921875 
Q 23.96875 65.921875 18.8125 64.3125 
Q 13.671875 62.703125 7.8125 59.421875 
L 7.8125 69.390625 
Q 13.765625 71.78125 18.9375 73 
Q 24.125 74.21875 28.421875 74.21875 
Q 39.75 74.21875 46.484375 68.546875 
Q 53.21875 62.890625 53.21875 53.421875 
Q 53.21875 48.921875 51.53125 44.890625 
Q 49.859375 40.875 45.40625 35.40625 
Q 44.1875 33.984375 37.640625 27.21875 
Q 31.109375 20.453125 19.1875 8.296875 
z
" id="DejaVuSans-50"/>
        <path d="M 31.78125 66.40625 
Q 24.171875 66.40625 20.328125 58.90625 
Q 16.5 51.421875 16.5 36.375 
Q 16.5 21.390625 20.328125 13.890625 
Q 24.171875 6.390625 31.78125 6.390625 
Q 39.453125 6.390625 43.28125 13.890625 
Q 47.125 21.390625 47.125 36.375 
Q 47.125 51.421875 43.28125 58.90625 
Q 39.453125 66.40625 31.78125 66.40625 
z
M 31.78125 74.21875 
Q 44.046875 74.21875 50.515625 64.515625 
Q 56.984375 54.828125 56.984375 36.375 
Q 56.984375 17.96875 50.515625 8.265625 
Q 44.046875 -1.421875 31.78125 -1.421875 
Q 19.53125 -1.421875 13.0625 8.265625 
Q 6.59375 17.96875 6.59375 36.375 
Q 6.59375 54.828125 13.0625 64.515625 
Q 19.53125 74.21875 31.78125 74.21875 
z
" id="DejaVuSans-48"/>
        <path d="M 12.40625 8.296875 
L 28.515625 8.296875 
L 28.515625 63.921875 
L 10.984375 60.40625 
L 10.984375 69.390625 
L 28.421875 72.90625 
L 38.28125 72.90625 
L 38.28125 8.296875 
L 54.390625 8.296875 
L 54.390625 0 
L 12.40625 0 
z
" id="DejaVuSans-49"/>
       </defs>
       <use xlink:href="#DejaVuSans-50"/>
       <use x="63.623047" xlink:href="#DejaVuSans-48"/>
       <use x="127.246094" xlink:href="#DejaVuSans-49"/>
       <use x="190.869141" xlink:href="#DejaVuSans-48"/>
      </g>
     </g>
    </g>
    <g id="xtick_2">
     <g id="line2d_3">
      <path clip-path="url(#pd95f1a97a0)" d="M 392.1939 273.56 
L 392.1939 25.92 
" style="fill:none;stroke:#b0b0b0;stroke-linecap:square;stroke-width:0.8;"/>
     </g>
     <g id="line2d_4">
      <g>
       <use style="stroke:#000000;stroke-width:0.8;" x="392.1939" xlink:href="#mf52047d023" y="273.56"/>
      </g>
     </g>
     <g id="text_2">
      <!-- 2011 -->
      <g transform="translate(394.953275 306.01)rotate(-90)scale(0.1 -0.1)">
       <use xlink:href="#DejaVuSans-50"/>
       <use x="63.623047" xlink:href="#DejaVuSans-48"/>
       <use x="127.246094" xlink:href="#DejaVuSans-49"/>
       <use x="190.869141" xlink:href="#DejaVuSans-49"/>
      </g>
     </g>
    </g>
    <g id="xtick_3">
     <g id="line2d_5">
      <path clip-path="url(#pd95f1a97a0)" d="M 729.959191 273.56 
L 729.959191 25.92 
" style="fill:none;stroke:#b0b0b0;stroke-linecap:square;stroke-width:0.8;"/>
     </g>
     <g id="line2d_6">
      <g>
       <use style="stroke:#000000;stroke-width:0.8;" x="729.959191" xlink:href="#mf52047d023" y="273.56"/>
      </g>
     </g>
     <g id="text_3">
      <!-- 2012 -->
      <g transform="translate(732.718566 306.01)rotate(-90)scale(0.1 -0.1)">
       <use xlink:href="#DejaVuSans-50"/>
       <use x="63.623047" xlink:href="#DejaVuSans-48"/>
       <use x="127.246094" xlink:href="#DejaVuSans-49"/>
       <use x="190.869141" xlink:href="#DejaVuSans-50"/>
      </g>
     </g>
    </g>
    <g id="xtick_4">
     <g id="line2d_7">
      <path clip-path="url(#pd95f1a97a0)" d="M 1068.649866 273.56 
L 1068.649866 25.92 
" style="fill:none;stroke:#b0b0b0;stroke-linecap:square;stroke-width:0.8;"/>
     </g>
     <g id="line2d_8">
      <g>
       <use style="stroke:#000000;stroke-width:0.8;" x="1068.649866" xlink:href="#mf52047d023" y="273.56"/>
      </g>
     </g>
     <g id="text_4">
      <!-- 2013 -->
      <g transform="translate(1071.409241 306.01)rotate(-90)scale(0.1 -0.1)">
       <defs>
        <path d="M 40.578125 39.3125 
Q 47.65625 37.796875 51.625 33 
Q 55.609375 28.21875 55.609375 21.1875 
Q 55.609375 10.40625 48.1875 4.484375 
Q 40.765625 -1.421875 27.09375 -1.421875 
Q 22.515625 -1.421875 17.65625 -0.515625 
Q 12.796875 0.390625 7.625 2.203125 
L 7.625 11.71875 
Q 11.71875 9.328125 16.59375 8.109375 
Q 21.484375 6.890625 26.8125 6.890625 
Q 36.078125 6.890625 40.9375 10.546875 
Q 45.796875 14.203125 45.796875 21.1875 
Q 45.796875 27.640625 41.28125 31.265625 
Q 36.765625 34.90625 28.71875 34.90625 
L 20.21875 34.90625 
L 20.21875 43.015625 
L 29.109375 43.015625 
Q 36.375 43.015625 40.234375 45.921875 
Q 44.09375 48.828125 44.09375 54.296875 
Q 44.09375 59.90625 40.109375 62.90625 
Q 36.140625 65.921875 28.71875 65.921875 
Q 24.65625 65.921875 20.015625 65.03125 
Q 15.375 64.15625 9.8125 62.3125 
L 9.8125 71.09375 
Q 15.4375 72.65625 20.34375 73.4375 
Q 25.25 74.21875 29.59375 74.21875 
Q 40.828125 74.21875 47.359375 69.109375 
Q 53.90625 64.015625 53.90625 55.328125 
Q 53.90625 49.265625 50.4375 45.09375 
Q 46.96875 40.921875 40.578125 39.3125 
z
" id="DejaVuSans-51"/>
       </defs>
       <use xlink:href="#DejaVuSans-50"/>
       <use x="63.623047" xlink:href="#DejaVuSans-48"/>
       <use x="127.246094" xlink:href="#DejaVuSans-49"/>
       <use x="190.869141" xlink:href="#DejaVuSans-51"/>
      </g>
     </g>
    </g>
   </g>
   <g id="matplotlib.axis_2">
    <g id="ytick_1">
     <g id="line2d_9">
      <path clip-path="url(#pd95f1a97a0)" d="M 33.7 256.000964 
L 1141.2 256.000964 
" style="fill:none;stroke:#b0b0b0;stroke-linecap:square;stroke-width:0.8;"/>
     </g>
     <g id="line2d_10">
      <defs>
       <path d="M 0 0 
L -3.5 0 
" id="m7abb273c6c" style="stroke:#000000;stroke-width:0.8;"/>
      </defs>
      <g>
       <use style="stroke:#000000;stroke-width:0.8;" x="33.7" xlink:href="#m7abb273c6c" y="256.000964"/>
      </g>
     </g>
     <g id="text_5">
      <!-- 0.5 -->
      <g transform="translate(10.796875 259.800182)scale(0.1 -0.1)">
       <defs>
        <path d="M 10.6875 12.40625 
L 21 12.40625 
L 21 0 
L 10.6875 0 
z
" id="DejaVuSans-46"/>
        <path d="M 10.796875 72.90625 
L 49.515625 72.90625 
L 49.515625 64.59375 
L 19.828125 64.59375 
L 19.828125 46.734375 
Q 21.96875 47.46875 24.109375 47.828125 
Q 26.265625 48.1875 28.421875 48.1875 
Q 40.625 48.1875 47.75 41.5 
Q 54.890625 34.8125 54.890625 23.390625 
Q 54.890625 11.625 47.5625 5.09375 
Q 40.234375 -1.421875 26.90625 -1.421875 
Q 22.3125 -1.421875 17.546875 -0.640625 
Q 12.796875 0.140625 7.71875 1.703125 
L 7.71875 11.625 
Q 12.109375 9.234375 16.796875 8.0625 
Q 21.484375 6.890625 26.703125 6.890625 
Q 35.15625 6.890625 40.078125 11.328125 
Q 45.015625 15.765625 45.015625 23.390625 
Q 45.015625 31 40.078125 35.4375 
Q 35.15625 39.890625 26.703125 39.890625 
Q 22.75 39.890625 18.8125 39.015625 
Q 14.890625 38.140625 10.796875 36.28125 
z
" id="DejaVuSans-53"/>
       </defs>
       <use xlink:href="#DejaVuSans-48"/>
       <use x="63.623047" xlink:href="#DejaVuSans-46"/>
       <use x="95.410156" xlink:href="#DejaVuSans-53"/>
      </g>
     </g>
    </g>
    <g id="ytick_2">
     <g id="line2d_11">
      <path clip-path="url(#pd95f1a97a0)" d="M 33.7 217.53175 
L 1141.2 217.53175 
" style="fill:none;stroke:#b0b0b0;stroke-linecap:square;stroke-width:0.8;"/>
     </g>
     <g id="line2d_12">
      <g>
       <use style="stroke:#000000;stroke-width:0.8;" x="33.7" xlink:href="#m7abb273c6c" y="217.53175"/>
      </g>
     </g>
     <g id="text_6">
      <!-- 1.0 -->
      <g transform="translate(10.796875 221.330968)scale(0.1 -0.1)">
       <use xlink:href="#DejaVuSans-49"/>
       <use x="63.623047" xlink:href="#DejaVuSans-46"/>
       <use x="95.410156" xlink:href="#DejaVuSans-48"/>
      </g>
     </g>
    </g>
    <g id="ytick_3">
     <g id="line2d_13">
      <path clip-path="url(#pd95f1a97a0)" d="M 33.7 179.062536 
L 1141.2 179.062536 
" style="fill:none;stroke:#b0b0b0;stroke-linecap:square;stroke-width:0.8;"/>
     </g>
     <g id="line2d_14">
      <g>
       <use style="stroke:#000000;stroke-width:0.8;" x="33.7" xlink:href="#m7abb273c6c" y="179.062536"/>
      </g>
     </g>
     <g id="text_7">
      <!-- 1.5 -->
      <g transform="translate(10.796875 182.861754)scale(0.1 -0.1)">
       <use xlink:href="#DejaVuSans-49"/>
       <use x="63.623047" xlink:href="#DejaVuSans-46"/>
       <use x="95.410156" xlink:href="#DejaVuSans-53"/>
      </g>
     </g>
    </g>
    <g id="ytick_4">
     <g id="line2d_15">
      <path clip-path="url(#pd95f1a97a0)" d="M 33.7 140.593322 
L 1141.2 140.593322 
" style="fill:none;stroke:#b0b0b0;stroke-linecap:square;stroke-width:0.8;"/>
     </g>
     <g id="line2d_16">
      <g>
       <use style="stroke:#000000;stroke-width:0.8;" x="33.7" xlink:href="#m7abb273c6c" y="140.593322"/>
      </g>
     </g>
     <g id="text_8">
      <!-- 2.0 -->
      <g transform="translate(10.796875 144.39254)scale(0.1 -0.1)">
       <use xlink:href="#DejaVuSans-50"/>
       <use x="63.623047" xlink:href="#DejaVuSans-46"/>
       <use x="95.410156" xlink:href="#DejaVuSans-48"/>
      </g>
     </g>
    </g>
    <g id="ytick_5">
     <g id="line2d_17">
      <path clip-path="url(#pd95f1a97a0)" d="M 33.7 102.124108 
L 1141.2 102.124108 
" style="fill:none;stroke:#b0b0b0;stroke-linecap:square;stroke-width:0.8;"/>
     </g>
     <g id="line2d_18">
      <g>
       <use style="stroke:#000000;stroke-width:0.8;" x="33.7" xlink:href="#m7abb273c6c" y="102.124108"/>
      </g>
     </g>
     <g id="text_9">
      <!-- 2.5 -->
      <g transform="translate(10.796875 105.923326)scale(0.1 -0.1)">
       <use xlink:href="#DejaVuSans-50"/>
       <use x="63.623047" xlink:href="#DejaVuSans-46"/>
       <use x="95.410156" xlink:href="#DejaVuSans-53"/>
      </g>
     </g>
    </g>
    <g id="ytick_6">
     <g id="line2d_19">
      <path clip-path="url(#pd95f1a97a0)" d="M 33.7 63.654894 
L 1141.2 63.654894 
" style="fill:none;stroke:#b0b0b0;stroke-linecap:square;stroke-width:0.8;"/>
     </g>
     <g id="line2d_20">
      <g>
       <use style="stroke:#000000;stroke-width:0.8;" x="33.7" xlink:href="#m7abb273c6c" y="63.654894"/>
      </g>
     </g>
     <g id="text_10">
      <!-- 3.0 -->
      <g transform="translate(10.796875 67.454112)scale(0.1 -0.1)">
       <use xlink:href="#DejaVuSans-51"/>
       <use x="63.623047" xlink:href="#DejaVuSans-46"/>
       <use x="95.410156" xlink:href="#DejaVuSans-48"/>
      </g>
     </g>
    </g>
   </g>
   <g id="line2d_21">
    <path clip-path="url(#pd95f1a97a0)" d="M 84.040909 216.684507 
L 84.966293 214.329732 
L 85.891678 215.384962 
L 86.817062 215.200882 
L 89.593215 217.170011 
L 90.5186 215.122372 
L 91.443984 211.664524 
L 92.369368 213.374788 
L 93.294753 211.623303 
L 96.070906 216.992993 
L 96.99629 215.965633 
L 97.921674 218.001692 
L 98.847059 217.229827 
L 99.772443 214.929802 
L 102.548596 210.715418 
L 103.473981 207.699074 
L 104.399365 209.706208 
L 105.324749 207.404349 
L 106.250134 210.191416 
L 109.026287 215.701918 
L 109.951671 221.598001 
L 110.877055 220.505898 
L 111.80244 221.003761 
L 112.727824 218.917189 
L 115.503977 217.414748 
L 116.429362 219.971004 
L 117.354746 214.682902 
L 118.28013 215.906947 
L 119.205515 216.321701 
L 121.981668 217.127953 
L 122.907052 218.9302 
L 123.832436 219.80151 
L 124.757821 219.957372 
L 125.683205 215.2893 
L 128.459358 216.403577 
L 130.310127 211.949605 
L 131.235511 215.681959 
L 132.160896 217.672405 
L 134.937049 219.362283 
L 135.862433 220.56883 
L 136.787818 215.834562 
L 137.713202 206.01909 
L 138.638586 203.57969 
L 141.414739 201.837054 
L 142.340124 200.134442 
L 143.265508 199.354046 
L 144.190892 197.952086 
L 145.116277 199.63551 
L 147.89243 205.7098 
L 148.817814 209.076867 
L 149.743199 207.061494 
L 150.668583 210.77258 
L 151.593967 205.347029 
L 154.37012 208.99648 
L 155.295505 201.329597 
L 156.220889 197.398462 
L 157.146273 201.607081 
L 158.071658 201.270704 
L 160.847811 194.071119 
L 161.773195 196.960516 
L 162.69858 198.234081 
L 163.623964 195.689572 
L 164.549348 195.353715 
L 167.325501 197.983113 
L 168.250886 198.140635 
L 169.17627 196.656554 
L 170.101654 191.653255 
L 171.027039 189.607263 
L 173.803192 192.262465 
L 174.728576 191.916653 
L 175.653961 186.970659 
L 176.579345 186.571744 
L 177.504729 188.03729 
L 180.280882 192.113892 
L 181.206267 195.029068 
L 182.131651 192.742663 
L 183.057035 186.404093 
L 183.98242 191.11349 
L 186.758573 189.010454 
L 187.683957 188.573352 
L 188.609342 188.538036 
L 189.534726 187.444888 
L 190.46011 188.133967 
L 193.236263 192.911005 
L 194.161648 204.085547 
L 195.087032 203.950526 
L 196.012416 202.462832 
L 196.937801 198.998023 
L 199.713954 200.556055 
L 200.639338 206.27366 
L 201.564723 205.768363 
L 202.490107 202.899543 
L 203.415491 203.037001 
L 206.191644 202.838253 
L 207.117029 200.777831 
L 208.042413 202.677337 
L 208.967797 200.999855 
L 209.893182 202.557526 
L 212.669335 197.908579 
L 213.594719 205.181096 
L 214.520104 205.62909 
L 215.445488 206.309466 
L 216.370872 207.609372 
L 219.147025 203.786865 
L 220.07241 202.704668 
L 220.997794 202.644588 
L 221.923178 194.360378 
L 222.848563 197.316541 
L 225.624716 193.496244 
L 226.5501 191.011796 
L 227.475485 186.335441 
L 228.400869 183.535683 
L 229.326253 182.246723 
L 232.102406 183.021475 
L 233.027791 178.955913 
L 233.953175 188.394995 
L 234.878559 187.652087 
L 235.803944 180.40844 
L 238.580097 179.499395 
L 239.505481 186.330713 
L 240.430866 187.499806 
L 241.35625 189.078592 
L 242.281634 186.739401 
L 245.057787 185.769622 
L 245.983172 183.059095 
L 246.908556 181.545058 
L 248.759325 171.789457 
L 251.535478 169.115458 
L 253.386247 168.103487 
L 254.311631 169.160425 
L 255.237015 166.234359 
L 258.013168 171.792576 
L 258.938553 173.989319 
L 259.863937 179.481631 
L 260.789322 173.566772 
L 261.714706 175.512089 
L 264.490859 166.898719 
L 265.416243 161.168896 
L 266.341628 157.924162 
L 267.267012 160.498836 
L 268.192396 157.688427 
L 270.968549 153.612523 
L 271.893934 153.674283 
L 272.819318 145.542372 
L 273.744703 150.264923 
L 274.670087 153.601118 
L 277.44624 152.493023 
L 278.371624 159.977685 
L 279.297009 186.534118 
L 280.222393 187.218634 
L 281.147777 190.403751 
L 283.92393 191.210426 
L 284.849315 186.127311 
L 285.774699 191.94978 
L 286.700084 192.73681 
L 287.625468 186.075372 
L 290.401621 186.874776 
L 291.327005 185.477367 
L 292.25239 182.264778 
L 293.177774 180.137084 
L 296.879311 180.491427 
L 297.804696 178.604034 
L 298.73008 181.300013 
L 299.655465 188.6557 
L 300.580849 190.503047 
L 303.357002 183.402239 
L 304.282386 185.841339 
L 305.207771 185.254389 
L 306.133155 185.412629 
L 307.058539 194.284666 
L 309.834693 188.76451 
L 310.760077 190.110888 
L 311.685461 189.390034 
L 312.610846 185.513868 
L 313.53623 185.185364 
L 316.312383 185.208848 
L 317.237767 186.408757 
L 318.163152 195.121948 
L 319.088536 190.788942 
L 320.01392 194.876076 
L 322.790074 193.600073 
L 323.715458 197.269471 
L 324.640842 197.905081 
L 326.491611 205.162435 
L 329.267764 205.33199 
L 330.193148 208.625873 
L 331.118533 205.21305 
L 332.043917 208.057495 
L 332.969301 207.512487 
L 335.745455 196.315691 
L 336.670839 190.894852 
L 337.596223 190.923256 
L 338.521608 186.847029 
L 339.446992 188.791443 
L 342.223145 188.374368 
L 343.148529 187.359466 
L 344.073914 182.644255 
L 344.999298 185.254133 
L 345.924682 186.286669 
L 348.700836 186.518845 
L 349.62622 189.573885 
L 350.551604 187.225462 
L 351.476989 184.182763 
L 352.402373 180.681483 
L 355.178526 182.423222 
L 356.10391 183.881137 
L 357.029295 186.180468 
L 357.954679 179.230539 
L 358.880064 178.42605 
L 361.656217 179.166643 
L 362.581601 180.643071 
L 363.506985 210.963639 
L 365.357754 208.893039 
L 368.133907 212.8294 
L 369.059291 216.974965 
L 369.984676 217.9996 
L 371.835445 220.990882 
L 374.611598 222.822712 
L 375.536982 220.752212 
L 376.462366 222.920964 
L 377.387751 220.924319 
L 378.313135 220.036875 
L 381.089288 220.435578 
L 382.014672 222.491472 
L 382.940057 226.379495 
L 383.865441 227.466717 
L 384.790826 227.229823 
L 387.566979 229.748905 
L 388.492363 231.364412 
L 389.417747 232.278228 
L 390.343132 233.712611 
L 391.268516 233.351475 
L 394.044669 208.720589 
L 394.970053 209.603432 
L 395.895438 207.262503 
L 396.820822 208.172579 
L 397.746207 208.555281 
L 400.52236 208.254933 
L 401.447744 208.538485 
L 402.373128 204.561406 
L 403.298513 203.248744 
L 404.223897 207.337419 
L 407.00005 205.284467 
L 407.925434 206.733575 
L 408.850819 203.084134 
L 409.776203 202.949424 
L 410.701588 204.204384 
L 414.403125 205.952772 
L 415.328509 207.226147 
L 416.253894 207.440504 
L 417.179278 210.248947 
L 419.955431 205.387519 
L 420.880816 197.481479 
L 421.8062 197.470021 
L 422.731584 200.585466 
L 423.656969 197.264047 
L 426.433122 196.496738 
L 427.358506 196.359792 
L 428.28389 196.55383 
L 429.209275 195.159471 
L 430.134659 193.233436 
L 432.910812 194.454408 
L 433.836197 196.367079 
L 434.761581 187.791569 
L 435.686965 188.23799 
L 436.61235 186.745588 
L 439.388503 187.718825 
L 440.313887 185.874586 
L 441.239271 185.146769 
L 442.164656 189.918233 
L 443.09004 193.842102 
L 445.866193 191.118005 
L 446.791578 204.561085 
L 447.716962 197.592276 
L 448.642346 200.028696 
L 449.567731 203.617131 
L 452.343884 203.488585 
L 453.269268 200.93262 
L 454.194652 196.647237 
L 455.120037 195.223298 
L 456.045421 196.722431 
L 458.821574 194.43908 
L 459.746959 194.574155 
L 460.672343 199.382835 
L 461.597727 200.523428 
L 462.523112 194.818073 
L 465.299265 193.461052 
L 466.224649 196.070723 
L 467.150033 198.113983 
L 468.075418 202.474644 
L 469.000802 199.991586 
L 472.70234 202.328028 
L 474.553108 204.883961 
L 475.478493 196.960771 
L 478.254646 197.654547 
L 479.18003 188.670419 
L 480.105414 182.757547 
L 481.030799 182.106012 
L 481.956183 180.116985 
L 484.732336 177.977733 
L 485.657721 184.153621 
L 486.583105 181.67862 
L 487.508489 184.827896 
L 488.433874 187.413639 
L 491.210027 193.842224 
L 492.135411 189.776043 
L 493.060795 190.251595 
L 494.911564 180.284594 
L 497.687717 187.217641 
L 498.613102 193.22747 
L 499.538486 188.161697 
L 500.46387 187.484126 
L 501.389255 194.300729 
L 504.165408 202.028933 
L 505.090792 201.631119 
L 506.016176 203.981733 
L 506.941561 200.430796 
L 507.866945 202.462991 
L 510.643098 198.172498 
L 511.568483 196.102017 
L 512.493867 198.637955 
L 513.419251 202.956557 
L 514.344636 208.592899 
L 517.120789 207.709283 
L 518.046173 202.552943 
L 518.971557 204.051105 
L 519.896942 208.735195 
L 520.822326 208.801146 
L 523.598479 206.028389 
L 524.523864 207.994822 
L 525.449248 207.923203 
L 526.374632 204.983879 
L 527.300017 203.961696 
L 530.07617 208.079465 
L 531.001554 207.523633 
L 531.926939 192.036471 
L 532.852323 191.636403 
L 533.777707 190.609376 
L 536.55386 191.614107 
L 537.479245 194.348206 
L 538.404629 196.235542 
L 539.330013 195.271534 
L 540.255398 197.487279 
L 543.956935 195.193935 
L 544.88232 198.075652 
L 545.807704 201.937651 
L 546.733088 202.136973 
L 549.509241 197.055644 
L 550.434626 198.741754 
L 551.36001 194.449892 
L 552.285394 194.838693 
L 553.210779 195.878495 
L 555.986932 190.284265 
L 556.912316 193.699738 
L 557.837701 193.431408 
L 558.763085 195.47544 
L 559.688469 206.158671 
L 562.464622 209.218312 
L 564.315391 211.843469 
L 565.240775 212.24186 
L 566.16616 209.941977 
L 568.942313 211.36501 
L 569.867697 209.171391 
L 570.793082 207.698658 
L 571.718466 207.70872 
L 572.64385 210.947572 
L 575.420003 214.589631 
L 576.345388 211.994396 
L 577.270772 212.662792 
L 578.196156 212.306991 
L 579.121541 209.754236 
L 581.897694 206.114315 
L 583.748463 204.963134 
L 584.673847 207.336117 
L 585.599231 207.872388 
L 588.375384 208.94392 
L 589.300769 208.304353 
L 590.226153 211.907837 
L 591.151537 210.558353 
L 592.076922 212.866084 
L 594.853075 213.259244 
L 595.778459 217.065438 
L 596.703844 216.026376 
L 597.629228 215.445156 
L 598.554612 215.100428 
L 601.330765 214.353608 
L 602.25615 210.233723 
L 603.181534 207.468754 
L 604.106918 206.935006 
L 605.032303 205.019629 
L 607.808456 209.548269 
L 608.73384 205.270857 
L 609.659225 203.288134 
L 610.584609 205.730813 
L 611.509993 203.28121 
L 614.286146 204.928038 
L 615.211531 209.070719 
L 616.136915 209.606396 
L 617.062299 222.493671 
L 617.987684 218.895258 
L 620.763837 220.652743 
L 621.689221 219.183534 
L 622.614606 220.694152 
L 623.53999 224.228996 
L 624.465374 223.848215 
L 627.241527 226.051453 
L 628.166912 230.650033 
L 629.092296 231.341316 
L 630.01768 234.556314 
L 630.943065 236.541909 
L 633.719218 232.863277 
L 634.644602 229.985756 
L 635.569987 228.244024 
L 637.420755 226.473012 
L 640.196908 227.643014 
L 641.122293 230.367329 
L 642.047677 228.42122 
L 642.973061 230.838068 
L 643.898446 229.033287 
L 646.674599 222.946471 
L 647.599983 225.70789 
L 648.525368 226.411539 
L 649.450752 223.922553 
L 650.376136 219.606016 
L 653.152289 223.172306 
L 654.077674 222.572445 
L 655.003058 223.435762 
L 655.928443 221.487033 
L 656.853827 221.433733 
L 659.62998 223.941608 
L 660.555364 223.686393 
L 661.480749 222.956674 
L 662.406133 222.608317 
L 663.331517 222.848524 
L 666.10767 219.728552 
L 667.033055 221.26868 
L 667.958439 217.079155 
L 668.883824 216.828549 
L 669.809208 222.215148 
L 672.585361 221.325033 
L 673.510745 230.757176 
L 674.43613 232.426503 
L 675.361514 233.631246 
L 676.286898 234.211161 
L 679.063051 233.645192 
L 679.988436 235.34159 
L 680.91382 235.710361 
L 681.839205 235.118345 
L 682.764589 236.53916 
L 685.540742 232.598268 
L 686.466126 233.244901 
L 687.391511 232.215709 
L 688.316895 227.485923 
L 689.242279 227.493149 
L 692.018432 228.960827 
L 692.943817 229.105134 
L 693.869201 230.321466 
L 694.794586 232.710798 
L 695.71997 235.473536 
L 698.496123 239.402614 
L 699.421507 241.711609 
L 700.346892 240.667773 
L 701.272276 242.355393 
L 702.19766 243.709932 
L 704.973814 246.461565 
L 705.899198 245.657719 
L 706.824582 247.305116 
L 707.749967 246.101792 
L 708.675351 249.779564 
L 711.451504 251.360667 
L 712.376888 250.297236 
L 713.302273 249.691413 
L 714.227657 249.543122 
L 715.153041 249.1374 
L 717.929195 248.994325 
L 718.854579 247.204017 
L 719.779963 250.470856 
L 720.705348 251.531278 
L 721.630732 252.410075 
L 725.332269 253.509883 
L 726.257654 250.874603 
L 727.183038 251.155574 
L 728.108422 251.987856 
L 730.884576 226.866214 
L 731.80996 229.470724 
L 732.735344 229.287583 
L 733.660729 229.813735 
L 734.586113 228.203666 
L 737.362266 232.721228 
L 738.28765 232.641014 
L 739.213035 226.920129 
L 740.138419 223.247855 
L 741.063803 222.947254 
L 743.839957 222.328241 
L 744.765341 219.80054 
L 745.690725 214.985821 
L 746.61611 215.592906 
L 747.541494 214.872545 
L 750.317647 214.596556 
L 751.243031 217.260588 
L 752.168416 213.560869 
L 753.0938 215.396459 
L 754.019184 212.043722 
L 756.795338 210.067801 
L 757.720722 210.069622 
L 758.646106 215.705114 
L 759.571491 211.23997 
L 760.496875 205.31202 
L 763.273028 199.035237 
L 764.198412 195.768772 
L 765.123797 190.383492 
L 766.049181 189.906048 
L 766.974566 194.838427 
L 769.750719 200.612277 
L 770.676103 201.954505 
L 771.601487 202.53824 
L 772.526872 197.7138 
L 773.452256 194.889289 
L 776.228409 189.276749 
L 777.153793 192.815567 
L 778.079178 192.495973 
L 779.004562 196.329472 
L 779.929947 199.078598 
L 782.7061 194.456701 
L 783.631484 197.077023 
L 784.556868 197.011967 
L 785.482253 218.327864 
L 786.407637 220.166447 
L 789.18379 224.947759 
L 790.109174 222.58745 
L 791.034559 226.177841 
L 791.959943 228.936514 
L 792.885328 227.628132 
L 795.661481 229.279159 
L 796.586865 230.670486 
L 797.512249 230.648748 
L 798.437634 229.601737 
L 799.363018 227.091929 
L 802.139171 222.863908 
L 803.064555 222.20218 
L 803.98994 219.74053 
L 804.915324 219.097596 
L 805.840709 218.077954 
L 808.616862 211.891788 
L 809.542246 214.876483 
L 810.46763 219.851844 
L 811.393015 220.208877 
L 812.318399 221.611448 
L 815.094552 198.021832 
L 816.019936 201.077056 
L 816.945321 196.196822 
L 817.870705 196.66929 
L 818.79609 193.866463 
L 821.572243 195.193025 
L 822.497627 195.44927 
L 823.423011 189.850555 
L 824.348396 190.824389 
L 825.27378 187.614133 
L 828.049933 185.610186 
L 828.975318 180.752032 
L 830.826086 177.121691 
L 831.751471 179.304682 
L 834.527624 185.165688 
L 835.453008 183.587763 
L 836.378392 180.264662 
L 841.005314 172.793611 
L 841.930699 200.792424 
L 842.856083 198.164554 
L 843.781467 200.224035 
L 844.706852 198.634756 
L 847.483005 197.122249 
L 848.408389 199.044235 
L 849.333773 198.814165 
L 850.259158 197.852243 
L 851.184542 196.690399 
L 853.960695 202.283484 
L 854.88608 208.267415 
L 855.811464 212.697324 
L 856.736848 208.889834 
L 857.662233 202.402132 
L 860.438386 202.101018 
L 861.36377 205.433028 
L 862.289154 210.24894 
L 863.214539 210.427507 
L 864.139923 208.818548 
L 866.916076 206.563621 
L 867.841461 206.077653 
L 868.766845 203.417686 
L 869.692229 205.096333 
L 870.617614 191.225815 
L 873.393767 185.000597 
L 874.319151 189.655247 
L 875.244535 192.598242 
L 876.16992 194.246028 
L 877.095304 193.393783 
L 879.871457 196.531175 
L 880.796842 198.794643 
L 881.722226 201.60658 
L 882.64761 199.824957 
L 883.572995 204.731443 
L 886.349148 203.130432 
L 887.274532 197.249216 
L 888.199916 193.802265 
L 889.125301 193.183275 
L 890.050685 193.543567 
L 892.826838 190.289743 
L 893.752223 187.484187 
L 894.677607 180.707971 
L 895.602991 180.820773 
L 896.528376 181.287839 
L 899.304529 198.333284 
L 900.229913 198.998988 
L 902.080682 199.104914 
L 903.006066 198.624531 
L 905.782219 198.086623 
L 906.707604 196.231541 
L 907.632988 196.828545 
L 908.558372 197.803193 
L 909.483757 196.523065 
L 912.25991 191.347828 
L 914.110678 198.868487 
L 915.036063 202.149826 
L 915.961447 200.644268 
L 918.7376 199.763693 
L 919.662985 199.984325 
L 920.588369 201.112476 
L 921.513753 201.746706 
L 922.439138 200.313178 
L 925.215291 200.05611 
L 926.140675 195.439675 
L 927.066059 199.260804 
L 927.991444 200.303467 
L 928.916828 204.95476 
L 931.692981 199.077999 
L 932.618366 198.311497 
L 933.54375 196.47855 
L 934.469134 191.640195 
L 935.394519 197.262312 
L 938.170672 202.369051 
L 939.096056 201.767273 
L 940.021441 199.095269 
L 940.946825 198.115436 
L 941.872209 195.576015 
L 944.648362 194.122979 
L 945.573747 195.160755 
L 946.499131 197.519101 
L 947.424515 201.659472 
L 948.3499 195.247227 
L 951.126053 199.344066 
L 952.051437 195.262169 
L 952.976822 190.170165 
L 953.902206 197.471446 
L 954.82759 196.859638 
L 957.603743 196.209928 
L 958.529128 196.772003 
L 959.454512 197.847971 
L 960.379896 189.623546 
L 961.305281 185.340682 
L 964.081434 187.205193 
L 965.006818 187.101161 
L 966.857587 176.161761 
L 967.782971 182.684182 
L 970.559124 181.384706 
L 971.484509 177.774293 
L 972.409893 174.70456 
L 974.260662 177.439263 
L 977.036815 179.201117 
L 977.962199 183.477427 
L 978.887584 186.90914 
L 979.812968 189.49448 
L 980.738352 191.443289 
L 983.514505 212.337247 
L 984.43989 214.365594 
L 985.365274 214.092035 
L 986.290658 219.662069 
L 987.216043 217.068219 
L 989.992196 214.658706 
L 990.91758 211.479169 
L 991.842965 214.755464 
L 992.768349 214.381066 
L 993.693733 213.799042 
L 996.469886 215.802319 
L 997.395271 218.40636 
L 998.320655 218.077582 
L 999.246039 222.42714 
L 1000.171424 223.160907 
L 1002.947577 224.022275 
L 1003.872961 223.2835 
L 1004.798346 222.801013 
L 1005.72373 219.70641 
L 1006.649114 221.440596 
L 1009.425267 219.311313 
L 1010.350652 222.848846 
L 1011.276036 220.01812 
L 1012.20142 213.924709 
L 1013.126805 212.547948 
L 1015.902958 212.066808 
L 1016.828342 211.781764 
L 1017.753727 215.217899 
L 1018.679111 213.342343 
L 1019.604495 213.16637 
L 1022.380648 213.698129 
L 1023.306033 211.294979 
L 1024.231417 214.757241 
L 1025.156801 217.622194 
L 1026.082186 221.721933 
L 1028.858339 220.394537 
L 1029.783723 217.67421 
L 1030.709108 214.310275 
L 1031.634492 212.901859 
L 1032.559876 217.319918 
L 1035.336029 217.657073 
L 1037.186798 219.860316 
L 1038.112182 219.489746 
L 1039.037567 222.495636 
L 1041.81372 238.720384 
L 1042.739104 239.280661 
L 1043.664489 238.380634 
L 1044.589873 237.742614 
L 1045.515257 240.707704 
L 1048.29141 241.125845 
L 1049.216795 244.763408 
L 1050.142179 247.462515 
L 1051.992948 245.152353 
L 1054.769101 247.231039 
L 1055.694485 249.065003 
L 1056.61987 249.15443 
L 1057.545254 247.898245 
L 1058.470638 250.248202 
L 1061.246791 249.07138 
L 1062.172176 250.510955 
L 1063.09756 251.443409 
L 1064.022945 250.420322 
L 1064.948329 250.574135 
L 1067.724482 250.922445 
L 1068.649866 232.730653 
L 1069.575251 232.24237 
L 1071.426019 234.464448 
L 1074.202172 236.130927 
L 1075.127557 235.698793 
L 1076.052941 237.927576 
L 1076.978326 239.660212 
L 1077.90371 236.787379 
L 1080.679863 235.591228 
L 1081.605247 232.853858 
L 1083.456016 233.357401 
L 1084.3814 234.669199 
L 1087.157553 235.899357 
L 1088.082938 233.524166 
L 1089.008322 234.072577 
L 1089.933707 234.887375 
L 1090.859091 231.00743 
L 1090.859091 231.00743 
" style="fill:none;stroke:#1f77b4;stroke-linecap:square;stroke-width:1.5;"/>
   </g>
   <g id="line2d_22">
    <path clip-path="url(#pd95f1a97a0)" d="M 84.040909 217.477104 
L 84.966293 215.486261 
L 85.891678 218.099948 
L 86.817062 219.435878 
L 89.593215 217.653171 
L 90.5186 218.94389 
L 91.443984 215.046633 
L 92.369368 215.260258 
L 93.294753 215.027576 
L 96.99629 217.826511 
L 97.921674 220.096091 
L 98.847059 220.433301 
L 99.772443 221.45242 
L 102.548596 222.044652 
L 103.473981 220.379241 
L 104.399365 219.452479 
L 105.324749 217.090241 
L 106.250134 219.411034 
L 109.026287 219.551991 
L 109.951671 223.873534 
L 110.877055 222.75525 
L 111.80244 223.156259 
L 112.727824 221.137076 
L 115.503977 220.86014 
L 116.429362 222.310361 
L 117.354746 218.340131 
L 118.28013 219.159617 
L 119.205515 219.753491 
L 121.981668 220.011361 
L 122.907052 219.551611 
L 123.832436 221.206415 
L 124.757821 221.958241 
L 125.683205 221.707919 
L 128.459358 222.023373 
L 129.384743 218.701553 
L 130.310127 218.439488 
L 131.235511 220.947997 
L 132.160896 218.988649 
L 134.937049 220.896895 
L 135.862433 220.919166 
L 136.787818 218.953957 
L 137.713202 219.633517 
L 138.638586 218.142215 
L 143.265508 219.595009 
L 144.190892 220.178799 
L 145.116277 221.225686 
L 147.89243 225.127562 
L 148.817814 225.964152 
L 149.743199 223.668132 
L 150.668583 225.42413 
L 151.593967 225.465893 
L 154.37012 226.314217 
L 155.295505 223.519368 
L 156.220889 223.392542 
L 157.146273 225.670579 
L 158.071658 225.938973 
L 160.847811 224.62648 
L 161.773195 225.5692 
L 162.69858 226.735555 
L 163.623964 226.261141 
L 164.549348 226.393191 
L 167.325501 226.236005 
L 168.250886 225.121785 
L 169.17627 224.922095 
L 170.101654 223.491228 
L 171.027039 222.957553 
L 173.803192 224.430275 
L 174.728576 224.085883 
L 175.653961 223.105584 
L 176.579345 224.150704 
L 177.504729 224.929905 
L 180.280882 225.047745 
L 181.206267 226.140363 
L 182.131651 225.765575 
L 183.057035 222.855752 
L 183.98242 223.908366 
L 186.758573 224.698843 
L 187.683957 226.175732 
L 188.609342 224.984599 
L 189.534726 225.414719 
L 190.46011 225.114897 
L 193.236263 225.877043 
L 194.161648 227.574881 
L 195.087032 228.100876 
L 196.012416 226.851649 
L 196.937801 226.682232 
L 199.713954 225.891102 
L 200.639338 227.081885 
L 201.564723 225.183477 
L 202.490107 224.89998 
L 203.415491 226.647302 
L 206.191644 226.925381 
L 208.042413 226.557059 
L 208.967797 224.586098 
L 209.893182 225.022976 
L 212.669335 223.272439 
L 213.594719 223.977387 
L 214.520104 222.222249 
L 215.445488 225.966674 
L 216.370872 225.456596 
L 219.147025 223.771629 
L 220.07241 221.322084 
L 220.997794 220.274533 
L 221.923178 222.648854 
L 222.848563 222.275301 
L 225.624716 220.28268 
L 226.5501 218.10108 
L 227.475485 218.587322 
L 228.400869 218.409123 
L 229.326253 217.555295 
L 232.102406 218.596646 
L 233.027791 216.651705 
L 233.953175 217.688869 
L 234.878559 218.453364 
L 235.803944 215.653726 
L 238.580097 215.891103 
L 239.505481 218.750281 
L 240.430866 219.685235 
L 241.35625 219.174308 
L 242.281634 218.968922 
L 245.057787 217.001072 
L 245.983172 214.460908 
L 247.833941 214.410826 
L 248.759325 216.19514 
L 251.535478 213.824052 
L 252.460862 213.451435 
L 253.386247 210.912051 
L 254.311631 209.239361 
L 255.237015 209.310493 
L 258.013168 207.056025 
L 258.938553 209.042517 
L 259.863937 210.039219 
L 260.789322 207.400098 
L 261.714706 207.039632 
L 264.490859 205.27313 
L 265.416243 205.940784 
L 266.341628 203.154698 
L 267.267012 204.657488 
L 268.192396 204.511883 
L 270.968549 204.349556 
L 271.893934 205.483959 
L 272.819318 204.885173 
L 273.744703 204.444718 
L 274.670087 204.756885 
L 277.44624 204.255703 
L 279.297009 207.626884 
L 280.222393 210.087735 
L 281.147777 210.575189 
L 283.92393 209.966294 
L 284.849315 208.891387 
L 285.774699 209.918303 
L 286.700084 210.050805 
L 287.625468 207.807313 
L 290.401621 208.949591 
L 291.327005 205.921512 
L 292.25239 204.467391 
L 294.103158 203.4142 
L 296.879311 204.559714 
L 297.804696 204.047781 
L 298.73008 205.905088 
L 299.655465 207.08904 
L 300.580849 205.29461 
L 303.357002 201.85959 
L 304.282386 204.689381 
L 305.207771 205.296288 
L 306.133155 207.835279 
L 307.058539 208.296856 
L 309.834693 207.053765 
L 310.760077 207.779271 
L 311.685461 209.7274 
L 312.610846 208.039544 
L 313.53623 207.539892 
L 316.312383 208.769629 
L 318.163152 212.842056 
L 319.088536 211.262264 
L 320.01392 211.583847 
L 322.790074 212.215613 
L 323.715458 211.561572 
L 324.640842 212.065266 
L 325.566227 210.701577 
L 326.491611 211.362327 
L 329.267764 209.791549 
L 330.193148 211.511844 
L 331.118533 211.155409 
L 332.043917 212.362741 
L 332.969301 211.878602 
L 335.745455 212.749109 
L 336.670839 210.293128 
L 337.596223 209.556342 
L 338.521608 209.374834 
L 339.446992 207.460965 
L 342.223145 206.556891 
L 343.148529 206.995752 
L 344.073914 205.854992 
L 344.999298 207.891727 
L 345.924682 207.684363 
L 348.700836 206.298074 
L 349.62622 206.077502 
L 350.551604 205.220793 
L 351.476989 203.668398 
L 352.402373 203.293278 
L 356.10391 200.926997 
L 357.029295 199.856287 
L 357.954679 200.018349 
L 358.880064 201.715511 
L 361.656217 202.074869 
L 362.581601 202.776622 
L 363.506985 202.140448 
L 364.43237 204.894284 
L 365.357754 204.47189 
L 368.133907 205.009832 
L 369.059291 207.493747 
L 369.984676 207.892144 
L 370.91006 207.164482 
L 371.835445 207.378328 
L 374.611598 207.163253 
L 375.536982 206.225378 
L 376.462366 207.815706 
L 377.387751 206.985517 
L 378.313135 206.393438 
L 381.089288 206.084355 
L 382.014672 204.866526 
L 382.940057 205.112085 
L 383.865441 203.173567 
L 384.790826 202.031211 
L 387.566979 199.840431 
L 388.492363 201.975411 
L 389.417747 201.497731 
L 390.343132 200.178462 
L 391.268516 201.953429 
L 394.044669 200.714219 
L 394.970053 199.177576 
L 395.895438 196.118142 
L 396.820822 196.63595 
L 397.746207 195.548078 
L 400.52236 195.500263 
L 401.447744 195.809404 
L 402.373128 191.970042 
L 403.298513 190.33902 
L 404.223897 191.444164 
L 407.00005 190.11082 
L 407.925434 192.169602 
L 408.850819 191.895501 
L 410.701588 193.50818 
L 413.477741 195.671162 
L 414.403125 198.267014 
L 415.328509 200.306266 
L 416.253894 201.027236 
L 417.179278 200.126433 
L 419.955431 200.792772 
L 420.880816 201.579988 
L 421.8062 199.484406 
L 422.731584 201.346617 
L 423.656969 199.257749 
L 426.433122 197.348313 
L 427.358506 197.819849 
L 428.28389 199.825983 
L 429.209275 197.568495 
L 430.134659 195.761657 
L 432.910812 195.5004 
L 433.836197 198.069577 
L 434.761581 197.766488 
L 435.686965 195.678798 
L 439.388503 196.769929 
L 440.313887 198.004983 
L 441.239271 198.252578 
L 442.164656 199.276471 
L 443.09004 198.644408 
L 445.866193 197.942334 
L 446.791578 199.454016 
L 447.716962 196.617201 
L 448.642346 199.629761 
L 449.567731 200.723362 
L 452.343884 199.570034 
L 453.269268 198.10511 
L 454.194652 199.398481 
L 455.120037 200.049849 
L 456.045421 197.565124 
L 458.821574 196.128706 
L 459.746959 197.381957 
L 460.672343 199.188384 
L 462.523112 196.551391 
L 465.299265 196.182558 
L 466.224649 197.122264 
L 467.150033 198.919584 
L 468.075418 201.896848 
L 469.000802 199.363621 
L 471.776955 199.774574 
L 473.627724 202.412714 
L 474.553108 201.605164 
L 475.478493 201.401769 
L 478.254646 201.325276 
L 479.18003 198.468981 
L 480.105414 196.638579 
L 481.030799 197.851856 
L 481.956183 197.81562 
L 484.732336 197.891157 
L 485.657721 199.195784 
L 487.508489 195.755712 
L 488.433874 194.652712 
L 491.210027 198.082622 
L 492.135411 195.139385 
L 493.060795 196.090201 
L 493.98618 193.878544 
L 494.911564 193.48675 
L 498.613102 194.886177 
L 499.538486 192.980182 
L 500.46387 192.26676 
L 501.389255 194.971139 
L 504.165408 196.731243 
L 505.090792 194.858943 
L 506.016176 196.090567 
L 506.941561 194.916013 
L 507.866945 195.775488 
L 510.643098 194.998121 
L 511.568483 193.505567 
L 512.493867 195.302638 
L 513.419251 198.074944 
L 514.344636 199.600866 
L 517.120789 199.835351 
L 518.046173 197.803068 
L 518.971557 198.34582 
L 519.896942 201.109419 
L 520.822326 201.383646 
L 523.598479 199.2306 
L 525.449248 203.964568 
L 526.374632 205.445899 
L 527.300017 204.649486 
L 530.07617 204.266528 
L 531.001554 204.652775 
L 531.926939 202.553838 
L 532.852323 204.656483 
L 536.55386 203.176078 
L 537.479245 205.294866 
L 538.404629 208.726207 
L 540.255398 212.068674 
L 543.031551 208.977148 
L 543.956935 207.719579 
L 544.88232 208.885594 
L 545.807704 208.806384 
L 546.733088 208.053198 
L 549.509241 209.827606 
L 550.434626 209.633438 
L 553.210779 210.354048 
L 555.986932 211.699477 
L 556.912316 212.621872 
L 557.837701 212.488003 
L 558.763085 211.49707 
L 559.688469 212.560125 
L 562.464622 214.836302 
L 563.390007 215.853607 
L 564.315391 218.258083 
L 565.240775 219.598799 
L 566.16616 220.396204 
L 570.793082 221.676099 
L 571.718466 225.306296 
L 572.64385 226.419509 
L 575.420003 227.667258 
L 576.345388 226.503547 
L 577.270772 225.045841 
L 578.196156 227.840852 
L 579.121541 229.378367 
L 581.897694 228.227619 
L 582.823078 226.674722 
L 585.599231 229.927612 
L 588.375384 230.691522 
L 589.300769 229.586219 
L 590.226153 229.753404 
L 591.151537 229.175218 
L 592.076922 227.925868 
L 594.853075 228.139179 
L 595.778459 229.129861 
L 596.703844 229.04545 
L 597.629228 229.439093 
L 598.554612 229.480533 
L 601.330765 229.092304 
L 602.25615 228.699788 
L 603.181534 226.676438 
L 604.106918 226.774748 
L 605.032303 226.006196 
L 607.808456 224.973249 
L 608.73384 222.549537 
L 609.659225 223.71216 
L 610.584609 225.926547 
L 611.509993 224.793058 
L 614.286146 226.398298 
L 615.211531 226.30173 
L 616.136915 226.052924 
L 617.062299 226.313549 
L 617.987684 224.429301 
L 620.763837 224.910025 
L 621.689221 225.59644 
L 622.614606 225.556312 
L 623.53999 227.37094 
L 624.465374 227.64247 
L 627.241527 230.290506 
L 628.166912 232.454919 
L 629.092296 233.686392 
L 630.01768 234.059842 
L 630.943065 233.775369 
L 633.719218 232.406288 
L 634.644602 233.077926 
L 635.569987 231.725998 
L 636.495371 230.614431 
L 637.420755 230.675267 
L 640.196908 231.087868 
L 641.122293 231.634481 
L 642.047677 230.698784 
L 642.973061 232.739594 
L 643.898446 231.314021 
L 646.674599 232.088198 
L 647.599983 231.988265 
L 648.525368 232.89107 
L 649.450752 231.90958 
L 650.376136 231.402359 
L 653.152289 231.443377 
L 654.077674 231.300222 
L 655.003058 230.429647 
L 655.928443 229.298433 
L 656.853827 229.75623 
L 659.62998 232.403967 
L 660.555364 232.455796 
L 661.480749 233.430647 
L 662.406133 233.915189 
L 663.331517 235.061774 
L 666.10767 235.314326 
L 667.033055 235.076269 
L 667.958439 234.352961 
L 668.883824 233.788274 
L 669.809208 236.022572 
L 672.585361 235.429909 
L 674.43613 238.600331 
L 675.361514 239.808212 
L 676.286898 240.150889 
L 679.063051 239.45857 
L 679.988436 240.747614 
L 680.91382 241.549691 
L 681.839205 242.631117 
L 682.764589 241.851665 
L 685.540742 241.920885 
L 686.466126 241.619551 
L 687.391511 240.259775 
L 688.316895 238.551365 
L 689.242279 238.213354 
L 692.943817 238.153785 
L 693.869201 237.399515 
L 694.794586 239.237662 
L 695.71997 238.17589 
L 698.496123 239.498573 
L 699.421507 241.62497 
L 700.346892 240.222391 
L 701.272276 239.768744 
L 702.19766 241.404271 
L 704.973814 243.630385 
L 705.899198 242.67717 
L 706.824582 244.258891 
L 707.749967 243.87309 
L 708.675351 245.489404 
L 711.451504 244.590061 
L 712.376888 245.088558 
L 713.302273 245.439109 
L 714.227657 244.214346 
L 715.153041 243.781152 
L 717.929195 243.375014 
L 718.854579 243.560652 
L 719.779963 244.287073 
L 720.705348 244.1839 
L 721.630732 246.125263 
L 724.406885 247.392961 
L 725.332269 248.274439 
L 726.257654 248.7286 
L 727.183038 249.379817 
L 728.108422 249.176345 
L 730.884576 249.651638 
L 731.80996 250.288513 
L 732.735344 250.141039 
L 734.586113 248.673785 
L 737.362266 249.177622 
L 738.28765 248.473698 
L 739.213035 246.469999 
L 740.138419 246.288291 
L 741.063803 245.471536 
L 743.839957 245.281975 
L 745.690725 243.955705 
L 746.61611 243.424337 
L 747.541494 244.40416 
L 750.317647 244.32552 
L 751.243031 245.664274 
L 752.168416 244.906526 
L 753.0938 246.233235 
L 754.019184 246.779138 
L 756.795338 247.119207 
L 757.720722 246.756804 
L 758.646106 246.756124 
L 759.571491 246.898905 
L 760.496875 245.874345 
L 763.273028 245.36348 
L 764.198412 245.907551 
L 765.123797 246.236123 
L 766.049181 245.604691 
L 766.974566 244.796752 
L 769.750719 245.130738 
L 770.676103 246.102863 
L 771.601487 245.360682 
L 772.526872 243.855617 
L 773.452256 242.851914 
L 776.228409 241.485213 
L 777.153793 241.485603 
L 778.079178 241.04087 
L 779.004562 242.017146 
L 779.929947 242.122838 
L 782.7061 241.462739 
L 783.631484 240.392697 
L 784.556868 240.383997 
L 785.482253 240.855153 
L 786.407637 240.165865 
L 789.18379 240.117544 
L 790.109174 238.538787 
L 791.034559 239.403171 
L 791.959943 239.875467 
L 792.885328 240.013492 
L 795.661481 241.222337 
L 797.512249 244.089659 
L 798.437634 243.88637 
L 799.363018 244.145305 
L 802.139171 242.863666 
L 803.064555 242.030175 
L 803.98994 242.128177 
L 804.915324 241.336977 
L 805.840709 241.556844 
L 808.616862 239.348155 
L 809.542246 239.728866 
L 810.46763 240.400336 
L 811.393015 242.262011 
L 812.318399 243.384384 
L 815.094552 243.969491 
L 816.019936 244.303339 
L 816.945321 243.468034 
L 817.870705 245.113922 
L 818.79609 246.348384 
L 821.572243 245.678035 
L 822.497627 246.768958 
L 823.423011 245.68256 
L 824.348396 245.627718 
L 825.27378 246.887485 
L 828.049933 247.459753 
L 828.975318 248.206036 
L 829.900702 248.732901 
L 830.826086 247.695533 
L 831.751471 248.741238 
L 834.527624 249.612324 
L 835.453008 248.332888 
L 836.378392 248.199132 
L 837.303777 247.935149 
L 838.229161 248.542258 
L 841.930699 248.700816 
L 843.781467 249.0299 
L 844.706852 249.109958 
L 847.483005 249.030102 
L 848.408389 250.102405 
L 849.333773 249.615376 
L 850.259158 249.656853 
L 851.184542 249.299371 
L 853.960695 251.288358 
L 854.88608 251.311104 
L 855.811464 251.778542 
L 856.736848 251.828018 
L 857.662233 251.005204 
L 861.36377 251.734978 
L 862.289154 252.472828 
L 863.214539 252.219615 
L 864.139923 251.081638 
L 867.841461 251.2418 
L 868.766845 249.878636 
L 869.692229 249.846752 
L 870.617614 250.749515 
L 873.393767 248.750035 
L 874.319151 249.880623 
L 875.244535 249.858956 
L 876.16992 249.599699 
L 877.095304 250.234883 
L 879.871457 250.636454 
L 880.796842 250.212778 
L 881.722226 250.931577 
L 882.64761 250.220102 
L 883.572995 250.762389 
L 886.349148 251.483587 
L 887.274532 251.495272 
L 888.199916 250.42638 
L 889.125301 250.245968 
L 890.050685 250.992702 
L 892.826838 250.721991 
L 893.752223 250.128822 
L 894.677607 248.362075 
L 896.528376 249.973309 
L 899.304529 250.338218 
L 900.229913 251.976298 
L 901.155297 251.809218 
L 902.080682 251.302849 
L 903.006066 251.513122 
L 905.782219 252.025446 
L 906.707604 251.952869 
L 907.632988 252.136919 
L 908.558372 252.193287 
L 909.483757 252.645709 
L 912.25991 253.123298 
L 913.185294 255.114762 
L 915.961447 256.420456 
L 918.7376 257.404647 
L 919.662985 257.209617 
L 921.513753 257.08768 
L 922.439138 256.791173 
L 925.215291 257.366313 
L 926.140675 257.018455 
L 927.066059 258.006349 
L 927.991444 258.007095 
L 928.916828 259.051337 
L 931.692981 258.654811 
L 932.618366 258.02004 
L 934.469134 256.406057 
L 935.394519 256.266173 
L 938.170672 256.915829 
L 939.096056 256.434163 
L 940.021441 257.082044 
L 940.946825 256.764325 
L 941.872209 257.415739 
L 945.573747 257.452057 
L 946.499131 257.580366 
L 947.424515 256.491471 
L 948.3499 254.534161 
L 951.126053 254.172886 
L 952.051437 254.432607 
L 952.976822 253.888309 
L 953.902206 255.599361 
L 957.603743 257.260636 
L 958.529128 258.099678 
L 959.454512 257.82209 
L 960.379896 257.386849 
L 961.305281 256.648911 
L 964.081434 256.107883 
L 965.006818 256.968882 
L 965.932203 256.730347 
L 966.857587 257.131165 
L 967.782971 258.584413 
L 970.559124 259.42813 
L 972.409893 257.676088 
L 973.335277 258.450545 
L 974.260662 259.042151 
L 977.036815 260.363748 
L 978.887584 261.633007 
L 979.812968 260.70583 
L 980.738352 260.16303 
L 984.43989 261.079302 
L 985.365274 260.307802 
L 986.290658 260.504322 
L 987.216043 259.348598 
L 989.992196 258.612576 
L 990.91758 259.070956 
L 991.842965 259.335254 
L 992.768349 258.716382 
L 996.469886 258.586802 
L 997.395271 258.871529 
L 998.320655 258.502554 
L 999.246039 259.232682 
L 1000.171424 258.994597 
L 1002.947577 258.032218 
L 1003.872961 257.997601 
L 1004.798346 257.161616 
L 1005.72373 255.633919 
L 1006.649114 255.807841 
L 1009.425267 255.151064 
L 1010.350652 255.354964 
L 1011.276036 254.370482 
L 1012.20142 254.241817 
L 1013.126805 253.089483 
L 1015.902958 253.445549 
L 1016.828342 253.118211 
L 1017.753727 253.179978 
L 1018.679111 252.768376 
L 1019.604495 252.161395 
L 1022.380648 252.786992 
L 1023.306033 252.794153 
L 1024.231417 253.05706 
L 1026.082186 254.206583 
L 1029.783723 253.451336 
L 1030.709108 254.49363 
L 1031.634492 253.106338 
L 1032.559876 253.705144 
L 1035.336029 253.477316 
L 1036.261414 254.544394 
L 1037.186798 254.143217 
L 1039.037567 256.124571 
L 1041.81372 256.766997 
L 1042.739104 257.91107 
L 1043.664489 256.195815 
L 1044.589873 255.505129 
L 1045.515257 256.046354 
L 1048.29141 256.094311 
L 1049.216795 257.169842 
L 1050.142179 257.402967 
L 1051.067564 257.303274 
L 1051.992948 256.79462 
L 1054.769101 257.977165 
L 1055.694485 259.073898 
L 1056.61987 258.672876 
L 1057.545254 259.319293 
L 1058.470638 260.432851 
L 1062.172176 259.612656 
L 1063.09756 259.958143 
L 1064.022945 260.098303 
L 1064.948329 259.714439 
L 1068.649866 259.784365 
L 1069.575251 259.385581 
L 1070.500635 258.305898 
L 1071.426019 258.909057 
L 1074.202172 258.593799 
L 1075.127557 258.64904 
L 1076.978326 260.841812 
L 1077.90371 260.770579 
L 1080.679863 261.513626 
L 1081.605247 260.439869 
L 1083.456016 262.303636 
L 1084.3814 262.087398 
L 1087.157553 261.771922 
L 1088.082938 261.780375 
L 1089.008322 262.213444 
L 1089.933707 261.916702 
L 1090.859091 261.019179 
L 1090.859091 261.019179 
" style="fill:none;stroke:#ff7f0e;stroke-linecap:square;stroke-width:1.5;"/>
   </g>
   <g id="line2d_23">
    <path clip-path="url(#pd95f1a97a0)" d="M 84.040909 216.739153 
L 84.966293 216.395957 
L 86.817062 213.262099 
L 89.593215 217.208777 
L 90.5186 213.863979 
L 91.443984 214.510679 
L 92.369368 215.947093 
L 93.294753 214.481828 
L 96.070906 217.518174 
L 96.99629 215.835332 
L 97.921674 215.546227 
L 98.847059 214.391739 
L 99.772443 210.904921 
L 102.548596 205.799501 
L 103.473981 204.64508 
L 104.399365 207.846429 
L 105.324749 208.221768 
L 106.250134 208.395891 
L 109.026287 213.862149 
L 109.951671 215.246192 
L 112.727824 215.3971 
L 115.503977 214.123272 
L 116.429362 215.205772 
L 117.354746 213.940549 
L 118.28013 214.309139 
L 119.205515 214.100205 
L 121.981668 214.651994 
L 122.907052 217.004778 
L 123.832436 216.187239 
L 124.757821 215.547314 
L 125.683205 210.875412 
L 128.459358 211.689388 
L 129.384743 213.177114 
L 130.310127 211.151009 
L 131.235511 212.170503 
L 132.160896 216.442925 
L 134.937049 216.187253 
L 135.862433 217.421106 
L 136.787818 214.543863 
L 137.713202 203.848038 
L 138.638586 203.154628 
L 141.414739 200.364732 
L 142.340124 198.337796 
L 143.265508 197.100515 
L 144.190892 194.906164 
L 147.89243 196.309342 
L 148.817814 198.84874 
L 149.743199 199.796781 
L 150.668583 201.46826 
L 151.593967 195.383318 
L 154.37012 198.222614 
L 155.295505 193.536122 
L 156.220889 189.456473 
L 157.146273 190.643735 
L 158.071658 189.86261 
L 160.847811 183.785178 
L 161.773195 185.476616 
L 162.69858 185.05513 
L 163.623964 182.92851 
L 164.549348 182.333324 
L 167.325501 185.56705 
L 168.250886 187.523159 
L 169.17627 186.183459 
L 170.101654 182.872313 
L 171.027039 181.490666 
L 174.728576 182.197154 
L 175.653961 178.346122 
L 176.579345 176.214588 
L 177.504729 176.510437 
L 181.206267 182.276671 
L 182.131651 180.312436 
L 183.057035 178.034231 
L 183.98242 181.39696 
L 186.758573 177.829503 
L 187.683957 174.877059 
L 188.609342 176.923017 
L 189.534726 174.982386 
L 193.236263 180.281585 
L 194.161648 190.019311 
L 195.087032 189.041983 
L 196.012416 189.293674 
L 196.937801 185.596458 
L 199.713954 188.643821 
L 200.639338 193.249127 
L 201.564723 195.520726 
L 202.490107 192.725341 
L 203.415491 190.322652 
L 206.191644 189.669255 
L 207.117029 187.513213 
L 208.042413 190.059536 
L 209.893182 192.257239 
L 212.669335 189.663757 
L 213.594719 196.519513 
L 214.520104 199.449754 
L 215.445488 195.252788 
L 216.370872 197.454495 
L 219.147025 195.553739 
L 220.07241 197.800521 
L 220.997794 199.121633 
L 221.923178 187.468361 
L 222.848563 191.184572 
L 225.624716 189.973896 
L 226.5501 190.475659 
L 227.475485 185.112937 
L 228.400869 182.538335 
L 229.326253 182.494284 
L 232.102406 181.751285 
L 233.027791 180.528822 
L 233.953175 188.320767 
L 234.878559 186.520431 
L 235.803944 183.175746 
L 238.580097 181.953563 
L 239.505481 184.54503 
L 240.430866 184.376123 
L 241.35625 186.753169 
L 242.281634 184.656187 
L 245.057787 186.529826 
L 245.983172 187.377552 
L 246.908556 185.909886 
L 247.833941 181.218398 
L 248.759325 174.090992 
L 251.535478 175.113656 
L 252.460862 175.145622 
L 254.311631 181.736737 
L 255.237015 179.010252 
L 258.013168 187.071333 
L 258.938553 186.55384 
L 259.863937 190.214297 
L 260.789322 188.110315 
L 261.714706 190.261953 
L 264.490859 184.822061 
L 265.416243 179.076525 
L 266.341628 179.899211 
L 267.267012 180.174021 
L 268.192396 177.961651 
L 270.968549 174.700095 
L 271.893934 173.244991 
L 272.819318 167.059141 
L 273.744703 171.725819 
L 274.670087 174.139895 
L 277.44624 173.865583 
L 278.371624 177.810776 
L 279.297009 198.779048 
L 280.222393 196.674338 
L 281.147777 199.013704 
L 283.92393 200.446445 
L 284.849315 197.013987 
L 285.774699 201.081954 
L 286.700084 201.652529 
L 287.625468 198.041567 
L 290.401621 197.481723 
L 291.327005 199.656203 
L 293.177774 197.126674 
L 294.103158 197.808228 
L 296.879311 196.810132 
L 297.804696 195.749022 
L 298.73008 196.018303 
L 299.655465 201.101229 
L 300.580849 204.648692 
L 305.207771 200.044157 
L 306.133155 197.492437 
L 307.058539 204.865078 
L 309.834693 201.220491 
L 310.760077 201.634298 
L 311.685461 198.906821 
L 312.610846 197.285081 
L 313.53623 197.553891 
L 316.312383 196.203715 
L 317.237767 194.786002 
L 318.163152 200.562239 
L 319.088536 198.283958 
L 320.01392 201.703895 
L 322.790074 199.808298 
L 323.715458 204.004554 
L 324.640842 204.046517 
L 325.566227 208.917066 
L 326.491611 211.605055 
L 329.267764 213.328569 
L 330.193148 214.67852 
L 331.118533 211.849155 
L 332.043917 213.284842 
L 332.969301 213.251504 
L 335.745455 201.937636 
L 336.670839 199.608185 
L 337.596223 200.464509 
L 338.521608 196.964824 
L 339.446992 200.919422 
L 342.223145 201.522257 
L 343.148529 200.169132 
L 344.073914 197.247612 
L 344.999298 197.282099 
L 345.924682 198.433697 
L 348.700836 200.173859 
L 349.62622 203.078353 
L 351.476989 200.90204 
L 352.402373 198.318094 
L 355.178526 201.746544 
L 356.10391 203.46219 
L 357.029295 206.39609 
L 357.954679 200.592719 
L 358.880064 198.250519 
L 361.656217 198.49181 
L 362.581601 198.991818 
L 363.506985 225.087192 
L 364.43237 222.114957 
L 365.357754 221.614489 
L 368.133907 224.530215 
L 369.059291 226.139713 
L 369.984676 226.730184 
L 370.91006 228.555679 
L 371.835445 229.775903 
L 374.611598 231.548487 
L 375.536982 230.40607 
L 376.462366 231.13626 
L 377.387751 229.975638 
L 378.313135 229.633899 
L 381.089288 230.208722 
L 382.014672 232.878652 
L 382.940057 236.036806 
L 383.865441 238.23747 
L 384.790826 238.742273 
L 387.566979 242.150791 
L 388.492363 242.276336 
L 389.417747 243.30169 
L 390.343132 245.207905 
L 391.268516 243.987773 
L 394.044669 224.319507 
L 394.970053 226.191506 
L 396.820822 226.851734 
L 397.746207 227.903486 
L 401.447744 227.713989 
L 402.373128 227.222191 
L 403.298513 227.31045 
L 404.223897 229.60788 
L 407.925434 228.69099 
L 408.850819 226.131124 
L 409.776203 225.469438 
L 410.701588 225.892857 
L 413.477741 225.36615 
L 414.403125 223.944709 
L 416.253894 223.095107 
L 417.179278 226.086442 
L 419.955431 221.656202 
L 420.880816 214.582108 
L 421.8062 216.374928 
L 422.731584 217.352116 
L 423.656969 216.353708 
L 426.433122 217.303671 
L 427.358506 216.821158 
L 428.28389 215.362998 
L 429.209275 216.12338 
L 430.134659 216.064781 
L 432.910812 217.217915 
L 433.836197 216.689856 
L 434.761581 210.135371 
L 435.686965 212.308953 
L 436.61235 210.943771 
L 439.388503 210.988481 
L 440.313887 208.490935 
L 441.239271 207.694014 
L 442.164656 210.557972 
L 443.09004 214.264381 
L 445.866193 212.680768 
L 446.791578 222.038297 
L 447.716962 218.586674 
L 448.642346 218.158903 
L 449.567731 220.178513 
L 452.343884 220.987379 
L 453.269268 220.057326 
L 454.194652 215.649396 
L 455.120037 213.962031 
L 456.045421 217.296732 
L 458.821574 216.637925 
L 459.746959 215.751141 
L 460.672343 218.075778 
L 461.597727 220.048383 
L 462.523112 216.545429 
L 465.299265 215.777803 
L 466.224649 217.058538 
L 467.150033 217.236748 
L 468.075418 218.325477 
L 469.000802 218.353915 
L 471.776955 219.488871 
L 472.70234 218.909923 
L 473.627724 218.879325 
L 474.553108 220.571261 
L 475.478493 214.197343 
L 478.254646 214.834457 
L 479.18003 209.886596 
L 480.105414 206.772149 
L 481.956183 203.625857 
L 484.732336 201.855399 
L 485.657721 205.514328 
L 486.583105 205.124818 
L 487.508489 209.203549 
L 488.433874 212.167169 
L 491.210027 214.28126 
L 492.135411 213.489585 
L 493.060795 213.082259 
L 493.98618 211.122838 
L 494.911564 207.538778 
L 497.687717 211.905947 
L 498.613102 216.25056 
L 499.538486 213.833859 
L 500.46387 213.886745 
L 501.389255 216.88881 
L 504.165408 221.501926 
L 506.016176 223.51696 
L 506.941561 221.579732 
L 507.866945 222.525618 
L 510.643098 219.737358 
L 511.568483 219.251887 
L 512.493867 219.852208 
L 513.419251 221.128803 
L 514.344636 224.48493 
L 517.120789 223.591853 
L 518.046173 220.901551 
L 518.971557 221.687586 
L 519.896942 223.365515 
L 520.822326 223.211357 
L 524.523864 222.424918 
L 525.449248 220.468993 
L 526.374632 216.744554 
L 527.300017 216.552045 
L 530.07617 220.429215 
L 531.001554 219.635801 
L 531.926939 208.054892 
L 532.852323 205.740581 
L 533.777707 205.206348 
L 536.55386 207.182748 
L 537.479245 207.477204 
L 538.404629 205.769686 
L 539.330013 203.071834 
L 540.255398 203.398112 
L 543.031551 205.163552 
L 543.956935 205.993538 
L 544.88232 207.372557 
L 545.807704 210.942691 
L 546.733088 211.857019 
L 549.509241 205.614304 
L 550.434626 207.356109 
L 551.36001 203.221308 
L 552.285394 203.390776 
L 553.210779 203.990043 
L 555.986932 197.408854 
L 556.912316 199.509115 
L 557.837701 199.411571 
L 558.763085 202.483612 
L 559.688469 211.232005 
L 562.464622 211.802792 
L 563.390007 212.112225 
L 564.315391 210.788731 
L 565.240775 209.720092 
L 566.16616 206.44706 
L 568.942313 206.944605 
L 569.867697 204.407589 
L 570.793082 202.529825 
L 571.718466 197.955476 
L 572.64385 200.004988 
L 575.420003 202.392132 
L 576.345388 201.004618 
L 577.270772 203.766668 
L 578.196156 199.72047 
L 579.121541 194.590247 
L 581.897694 192.06455 
L 582.823078 193.829028 
L 583.748463 191.614886 
L 584.673847 192.789682 
L 585.599231 191.539466 
L 588.375384 191.594833 
L 589.300769 192.608389 
L 590.226153 196.605819 
L 591.151537 195.880553 
L 592.076922 200.478358 
L 594.853075 200.629906 
L 595.778459 203.626468 
L 597.629228 201.289886 
L 598.554612 200.824032 
L 601.330765 200.502294 
L 602.25615 196.234289 
L 603.181534 196.031917 
L 604.106918 195.285258 
L 605.032303 194.241024 
L 607.808456 200.827558 
L 608.73384 199.37669 
L 609.659225 195.725731 
L 610.584609 195.280771 
L 611.509993 194.182972 
L 614.286146 193.683666 
L 615.211531 198.489548 
L 616.136915 199.441913 
L 617.062299 213.510754 
L 617.987684 211.701438 
L 620.763837 213.058133 
L 621.689221 210.634397 
L 623.53999 214.137331 
L 624.465374 213.37676 
L 627.241527 212.69337 
L 628.166912 215.431914 
L 629.092296 214.718527 
L 630.01768 218.290096 
L 630.943065 221.173501 
L 633.719218 218.172264 
L 634.644602 213.782883 
L 635.569987 213.380337 
L 636.495371 213.747901 
L 637.420755 212.590738 
L 640.196908 213.470042 
L 641.122293 216.073591 
L 642.047677 214.860952 
L 642.973061 215.226344 
L 643.898446 214.808785 
L 646.674599 206.422333 
L 647.599983 209.962771 
L 648.525368 209.606489 
L 649.450752 207.855538 
L 650.376136 203.258165 
L 653.152289 207.543892 
L 654.077674 207.009982 
L 655.003058 209.265496 
L 655.928443 208.433082 
L 656.853827 207.765885 
L 659.62998 207.195616 
L 660.555364 206.806925 
L 661.480749 204.525148 
L 662.406133 203.37301 
L 666.10767 197.529083 
L 667.033055 199.916768 
L 667.958439 195.6567 
L 668.883824 196.26489 
L 669.809208 199.462246 
L 672.585361 199.255223 
L 673.510745 209.013731 
L 675.361514 208.673364 
L 676.286898 208.953315 
L 679.063051 209.240062 
L 679.988436 209.619984 
L 680.91382 208.882361 
L 681.839205 206.271068 
L 682.764589 209.708615 
L 685.540742 203.831009 
L 686.466126 205.298045 
L 687.391511 206.09335 
L 688.316895 202.164062 
L 689.242279 202.731981 
L 692.018432 204.69624 
L 692.943817 205.034157 
L 693.869201 207.896264 
L 694.794586 208.332467 
L 695.71997 213.841626 
L 698.496123 217.316915 
L 699.421507 217.567545 
L 700.346892 218.087111 
L 701.272276 221.121772 
L 702.19766 220.835147 
L 704.973814 221.737798 
L 706.824582 222.11669 
L 707.749967 220.826664 
L 708.675351 224.073745 
L 711.451504 227.856851 
L 712.376888 225.547897 
L 713.302273 224.113377 
L 714.227657 225.637845 
L 715.153041 225.609561 
L 717.929195 225.943964 
L 718.854579 222.997235 
L 719.779963 226.917308 
L 720.705348 228.684274 
L 721.630732 227.490919 
L 724.406885 226.971007 
L 725.332269 226.235895 
L 726.257654 221.175051 
L 727.183038 220.603939 
L 728.108422 222.35659 
L 730.884576 178.955967 
L 731.80996 181.764799 
L 732.735344 181.823442 
L 733.660729 184.585107 
L 734.586113 183.649276 
L 737.362266 189.985013 
L 738.28765 191.47316 
L 740.138419 180.965403 
L 741.063803 182.410418 
L 743.839957 181.874095 
L 744.765341 179.605641 
L 745.690725 173.565457 
L 746.61611 175.760714 
L 747.541494 172.397954 
L 750.317647 172.166434 
L 751.243031 172.980396 
L 752.168416 169.045085 
L 753.0938 168.533252 
L 754.019184 161.768266 
L 756.795338 157.640891 
L 757.720722 158.691074 
L 758.646106 167.759087 
L 760.496875 153.525203 
L 763.273028 145.084289 
L 764.198412 138.316138 
L 765.123797 128.739637 
L 766.049181 130.149011 
L 766.974566 140.617057 
L 769.750719 148.498685 
L 770.676103 147.710125 
L 771.601487 150.888104 
L 772.526872 147.753526 
L 773.452256 146.380015 
L 776.228409 141.954409 
L 777.153793 147.084076 
L 778.079178 147.857812 
L 779.004562 150.690442 
L 779.929947 154.4283 
L 782.7061 149.408939 
L 783.631484 156.137795 
L 784.556868 156.067648 
L 785.482253 185.133165 
L 786.407637 189.178953 
L 789.18379 196.047945 
L 790.109174 195.565307 
L 791.959943 202.01532 
L 792.885328 199.935712 
L 795.661481 200.172251 
L 796.586865 199.775163 
L 797.512249 196.99321 
L 798.437634 195.787396 
L 799.363018 191.464136 
L 802.139171 187.623739 
L 803.064555 188.362012 
L 803.98994 184.549374 
L 804.915324 185.265234 
L 805.840709 183.336012 
L 808.616862 178.975402 
L 809.542246 182.35213 
L 810.46763 187.985306 
L 811.393015 184.82844 
L 812.318399 184.542158 
L 815.094552 147.691492 
L 816.019936 151.370728 
L 816.945321 146.275785 
L 817.870705 142.205882 
L 818.79609 134.033895 
L 821.572243 138.38433 
L 822.497627 135.297347 
L 823.423011 129.922767 
L 824.348396 131.639394 
L 825.27378 122.396177 
L 828.049933 117.099651 
L 828.975318 106.36831 
L 829.900702 101.102415 
L 830.826086 102.574703 
L 831.751471 101.854405 
L 834.527624 107.987893 
L 835.453008 110.614674 
L 836.378392 105.637615 
L 837.303777 104.279982 
L 838.229161 99.396143 
L 841.005314 91.33287 
L 841.930699 137.903297 
L 842.856083 132.824709 
L 843.781467 135.826045 
L 844.706852 132.871313 
L 848.408389 129.973747 
L 849.333773 131.382843 
L 850.259158 129.592021 
L 851.184542 128.924593 
L 853.960695 131.104538 
L 854.88608 141.622716 
L 855.811464 147.82203 
L 856.736848 140.823877 
L 857.662233 132.140935 
L 860.438386 129.256844 
L 862.289154 140.710425 
L 864.139923 143.151431 
L 866.916076 138.797752 
L 867.841461 137.742638 
L 868.766845 137.968533 
L 869.692229 140.965705 
L 870.617614 114.036832 
L 873.393767 111.409197 
L 874.319151 114.666141 
L 875.244535 119.802054 
L 876.16992 123.642401 
L 877.095304 119.771559 
L 879.871457 123.608246 
L 880.796842 129.208503 
L 881.722226 131.38153 
L 882.64761 130.917686 
L 883.572995 137.392039 
L 886.349148 131.997779 
L 887.274532 121.492285 
L 888.199916 119.661775 
L 889.125301 119.302956 
L 890.050685 116.968316 
L 892.826838 112.350953 
L 893.752223 109.915827 
L 894.677607 105.580056 
L 895.602991 102.383301 
L 896.528376 99.841953 
L 899.304529 127.557181 
L 900.229913 122.517538 
L 901.155297 123.199277 
L 902.080682 125.416607 
L 903.006066 123.741553 
L 905.782219 120.747203 
L 906.707604 117.700632 
L 907.632988 118.009668 
L 908.558372 119.536116 
L 909.483757 115.347483 
L 912.25991 103.837787 
L 913.185294 101.744784 
L 914.110678 106.775208 
L 915.036063 111.160859 
L 915.961447 106.050459 
L 918.7376 99.408452 
L 919.662985 100.889243 
L 920.588369 103.517415 
L 921.513753 105.126517 
L 922.439138 103.701036 
L 925.215291 100.268261 
L 926.140675 92.593329 
L 927.991444 97.237494 
L 928.916828 101.331233 
L 931.692981 90.813762 
L 932.618366 92.786815 
L 933.54375 93.736683 
L 934.469134 87.846446 
L 935.394519 99.902705 
L 938.170672 106.815554 
L 939.096056 107.996271 
L 940.021441 99.445199 
L 940.946825 99.098904 
L 941.872209 90.574637 
L 944.648362 87.445472 
L 945.573747 89.518945 
L 946.499131 93.675632 
L 947.424515 108.177671 
L 948.3499 104.907781 
L 951.126053 114.449508 
L 952.051437 105.564503 
L 952.976822 98.43674 
L 953.902206 103.894257 
L 954.82759 100.542059 
L 957.603743 93.081449 
L 958.529128 89.692309 
L 959.454512 93.510477 
L 960.379896 78.791548 
L 961.305281 74.273209 
L 964.081434 81.185228 
L 965.006818 76.191433 
L 965.932203 67.080052 
L 966.857587 52.99653 
L 967.782971 56.910889 
L 970.559124 48.564032 
L 971.484509 46.590323 
L 972.409893 46.387944 
L 973.335277 44.205428 
L 974.260662 42.776327 
L 977.036815 37.176364 
L 977.962199 41.572163 
L 978.887584 44.952442 
L 979.812968 57.995138 
L 980.738352 66.186749 
L 983.514505 107.655573 
L 985.365274 114.8161 
L 986.290658 126.232283 
L 987.216043 126.123376 
L 989.992196 124.410706 
L 990.91758 115.461932 
L 991.842965 121.192255 
L 992.768349 123.430559 
L 993.693733 122.281261 
L 996.469886 127.086615 
L 997.395271 131.299147 
L 998.320655 132.285102 
L 999.246039 138.227128 
L 1000.171424 140.874151 
L 1002.947577 146.896228 
L 1003.872961 145.488845 
L 1004.798346 147.893873 
L 1005.72373 147.566808 
L 1006.649114 150.316424 
L 1009.425267 148.56223 
L 1010.350652 154.673095 
L 1011.276036 152.666344 
L 1012.20142 141.515628 
L 1013.126805 143.282538 
L 1015.902958 141.093675 
L 1016.828342 141.786926 
L 1017.753727 147.903651 
L 1018.679111 145.896114 
L 1019.604495 147.736377 
L 1022.380648 146.526402 
L 1023.306033 142.099328 
L 1024.231417 147.480725 
L 1025.156801 150.830552 
L 1026.082186 156.367556 
L 1028.858339 155.61439 
L 1029.783723 151.332885 
L 1030.709108 141.425829 
L 1031.634492 144.047872 
L 1032.559876 150.017736 
L 1035.336029 151.456325 
L 1036.261414 149.781979 
L 1037.186798 153.343717 
L 1038.112182 149.07542 
L 1039.037567 151.345884 
L 1041.81372 181.21161 
L 1042.739104 178.9131 
L 1043.664489 182.450228 
L 1044.589873 183.197472 
L 1045.515257 187.468 
L 1048.29141 188.166668 
L 1049.216795 192.436243 
L 1050.142179 197.339041 
L 1051.067564 195.365374 
L 1051.992948 194.189816 
L 1054.769101 195.268954 
L 1055.694485 196.138922 
L 1056.61987 197.446631 
L 1057.545254 193.005046 
L 1058.470638 194.910489 
L 1061.246791 194.293335 
L 1062.172176 197.831571 
L 1063.09756 198.923626 
L 1064.022945 196.263693 
L 1064.948329 197.703376 
L 1067.724482 198.318258 
L 1068.649866 158.10986 
L 1069.575251 158.59916 
L 1070.500635 165.313745 
L 1071.426019 165.405388 
L 1074.202172 170.133966 
L 1075.127557 169.021528 
L 1076.052941 169.790772 
L 1076.978326 169.822367 
L 1077.90371 163.553056 
L 1081.605247 156.052616 
L 1083.456016 149.420942 
L 1084.3814 153.50954 
L 1087.157553 157.782475 
L 1088.082938 152.204116 
L 1089.008322 151.599554 
L 1089.933707 154.841282 
L 1090.859091 149.598524 
L 1090.859091 149.598524 
" style="fill:none;stroke:#2ca02c;stroke-linecap:square;stroke-width:1.5;"/>
   </g>
   <g id="patch_3">
    <path d="M 33.7 273.56 
L 33.7 25.92 
" style="fill:none;stroke:#000000;stroke-linecap:square;stroke-linejoin:miter;stroke-width:0.8;"/>
   </g>
   <g id="patch_4">
    <path d="M 1141.2 273.56 
L 1141.2 25.92 
" style="fill:none;stroke:#000000;stroke-linecap:square;stroke-linejoin:miter;stroke-width:0.8;"/>
   </g>
   <g id="patch_5">
    <path d="M 33.7 273.56 
L 1141.2 273.56 
" style="fill:none;stroke:#000000;stroke-linecap:square;stroke-linejoin:miter;stroke-width:0.8;"/>
   </g>
   <g id="patch_6">
    <path d="M 33.7 25.92 
L 1141.2 25.92 
" style="fill:none;stroke:#000000;stroke-linecap:square;stroke-linejoin:miter;stroke-width:0.8;"/>
   </g>
   <g id="text_11">
    <!-- Net Value: (2010-02-01 ~ 2013-01-25) -->
    <g transform="translate(471.3425 19.92)scale(0.12 -0.12)">
     <defs>
      <path d="M 9.8125 72.90625 
L 23.09375 72.90625 
L 55.421875 11.921875 
L 55.421875 72.90625 
L 64.984375 72.90625 
L 64.984375 0 
L 51.703125 0 
L 19.390625 60.984375 
L 19.390625 0 
L 9.8125 0 
z
" id="DejaVuSans-78"/>
      <path d="M 56.203125 29.59375 
L 56.203125 25.203125 
L 14.890625 25.203125 
Q 15.484375 15.921875 20.484375 11.0625 
Q 25.484375 6.203125 34.421875 6.203125 
Q 39.59375 6.203125 44.453125 7.46875 
Q 49.3125 8.734375 54.109375 11.28125 
L 54.109375 2.78125 
Q 49.265625 0.734375 44.1875 -0.34375 
Q 39.109375 -1.421875 33.890625 -1.421875 
Q 20.796875 -1.421875 13.15625 6.1875 
Q 5.515625 13.8125 5.515625 26.8125 
Q 5.515625 40.234375 12.765625 48.109375 
Q 20.015625 56 32.328125 56 
Q 43.359375 56 49.78125 48.890625 
Q 56.203125 41.796875 56.203125 29.59375 
z
M 47.21875 32.234375 
Q 47.125 39.59375 43.09375 43.984375 
Q 39.0625 48.390625 32.421875 48.390625 
Q 24.90625 48.390625 20.390625 44.140625 
Q 15.875 39.890625 15.1875 32.171875 
z
" id="DejaVuSans-101"/>
      <path d="M 18.3125 70.21875 
L 18.3125 54.6875 
L 36.8125 54.6875 
L 36.8125 47.703125 
L 18.3125 47.703125 
L 18.3125 18.015625 
Q 18.3125 11.328125 20.140625 9.421875 
Q 21.96875 7.515625 27.59375 7.515625 
L 36.8125 7.515625 
L 36.8125 0 
L 27.59375 0 
Q 17.1875 0 13.234375 3.875 
Q 9.28125 7.765625 9.28125 18.015625 
L 9.28125 47.703125 
L 2.6875 47.703125 
L 2.6875 54.6875 
L 9.28125 54.6875 
L 9.28125 70.21875 
z
" id="DejaVuSans-116"/>
      <path id="DejaVuSans-32"/>
      <path d="M 28.609375 0 
L 0.78125 72.90625 
L 11.078125 72.90625 
L 34.1875 11.53125 
L 57.328125 72.90625 
L 67.578125 72.90625 
L 39.796875 0 
z
" id="DejaVuSans-86"/>
      <path d="M 34.28125 27.484375 
Q 23.390625 27.484375 19.1875 25 
Q 14.984375 22.515625 14.984375 16.5 
Q 14.984375 11.71875 18.140625 8.90625 
Q 21.296875 6.109375 26.703125 6.109375 
Q 34.1875 6.109375 38.703125 11.40625 
Q 43.21875 16.703125 43.21875 25.484375 
L 43.21875 27.484375 
z
M 52.203125 31.203125 
L 52.203125 0 
L 43.21875 0 
L 43.21875 8.296875 
Q 40.140625 3.328125 35.546875 0.953125 
Q 30.953125 -1.421875 24.3125 -1.421875 
Q 15.921875 -1.421875 10.953125 3.296875 
Q 6 8.015625 6 15.921875 
Q 6 25.140625 12.171875 29.828125 
Q 18.359375 34.515625 30.609375 34.515625 
L 43.21875 34.515625 
L 43.21875 35.40625 
Q 43.21875 41.609375 39.140625 45 
Q 35.0625 48.390625 27.6875 48.390625 
Q 23 48.390625 18.546875 47.265625 
Q 14.109375 46.140625 10.015625 43.890625 
L 10.015625 52.203125 
Q 14.9375 54.109375 19.578125 55.046875 
Q 24.21875 56 28.609375 56 
Q 40.484375 56 46.34375 49.84375 
Q 52.203125 43.703125 52.203125 31.203125 
z
" id="DejaVuSans-97"/>
      <path d="M 9.421875 75.984375 
L 18.40625 75.984375 
L 18.40625 0 
L 9.421875 0 
z
" id="DejaVuSans-108"/>
      <path d="M 8.5 21.578125 
L 8.5 54.6875 
L 17.484375 54.6875 
L 17.484375 21.921875 
Q 17.484375 14.15625 20.5 10.265625 
Q 23.53125 6.390625 29.59375 6.390625 
Q 36.859375 6.390625 41.078125 11.03125 
Q 45.3125 15.671875 45.3125 23.6875 
L 45.3125 54.6875 
L 54.296875 54.6875 
L 54.296875 0 
L 45.3125 0 
L 45.3125 8.40625 
Q 42.046875 3.421875 37.71875 1 
Q 33.40625 -1.421875 27.6875 -1.421875 
Q 18.265625 -1.421875 13.375 4.4375 
Q 8.5 10.296875 8.5 21.578125 
z
M 31.109375 56 
z
" id="DejaVuSans-117"/>
      <path d="M 11.71875 12.40625 
L 22.015625 12.40625 
L 22.015625 0 
L 11.71875 0 
z
M 11.71875 51.703125 
L 22.015625 51.703125 
L 22.015625 39.3125 
L 11.71875 39.3125 
z
" id="DejaVuSans-58"/>
      <path d="M 31 75.875 
Q 24.46875 64.65625 21.28125 53.65625 
Q 18.109375 42.671875 18.109375 31.390625 
Q 18.109375 20.125 21.3125 9.0625 
Q 24.515625 -2 31 -13.1875 
L 23.1875 -13.1875 
Q 15.875 -1.703125 12.234375 9.375 
Q 8.59375 20.453125 8.59375 31.390625 
Q 8.59375 42.28125 12.203125 53.3125 
Q 15.828125 64.359375 23.1875 75.875 
z
" id="DejaVuSans-40"/>
      <path d="M 4.890625 31.390625 
L 31.203125 31.390625 
L 31.203125 23.390625 
L 4.890625 23.390625 
z
" id="DejaVuSans-45"/>
      <path d="M 73.1875 39.890625 
L 73.1875 31.203125 
Q 68.0625 27.34375 63.6875 25.6875 
Q 59.328125 24.03125 54.59375 24.03125 
Q 49.21875 24.03125 42.09375 26.90625 
Q 41.546875 27.09375 41.3125 27.203125 
Q 40.96875 27.34375 40.234375 27.59375 
Q 32.671875 30.609375 28.078125 30.609375 
Q 23.78125 30.609375 19.578125 28.734375 
Q 15.375 26.859375 10.59375 22.796875 
L 10.59375 31.5 
Q 15.71875 35.359375 20.09375 37.03125 
Q 24.46875 38.71875 29.203125 38.71875 
Q 34.578125 38.71875 41.75 35.796875 
Q 42.234375 35.59375 42.484375 35.5 
Q 42.875 35.359375 43.5625 35.109375 
Q 51.125 32.078125 55.71875 32.078125 
Q 59.90625 32.078125 64.03125 33.9375 
Q 68.171875 35.796875 73.1875 39.890625 
z
" id="DejaVuSans-126"/>
      <path d="M 8.015625 75.875 
L 15.828125 75.875 
Q 23.140625 64.359375 26.78125 53.3125 
Q 30.421875 42.28125 30.421875 31.390625 
Q 30.421875 20.453125 26.78125 9.375 
Q 23.140625 -1.703125 15.828125 -13.1875 
L 8.015625 -13.1875 
Q 14.5 -2 17.703125 9.0625 
Q 20.90625 20.125 20.90625 31.390625 
Q 20.90625 42.671875 17.703125 53.65625 
Q 14.5 64.65625 8.015625 75.875 
z
" id="DejaVuSans-41"/>
     </defs>
     <use xlink:href="#DejaVuSans-78"/>
     <use x="74.804688" xlink:href="#DejaVuSans-101"/>
     <use x="136.328125" xlink:href="#DejaVuSans-116"/>
     <use x="175.537109" xlink:href="#DejaVuSans-32"/>
     <use x="207.324219" xlink:href="#DejaVuSans-86"/>
     <use x="267.982422" xlink:href="#DejaVuSans-97"/>
     <use x="329.261719" xlink:href="#DejaVuSans-108"/>
     <use x="357.044922" xlink:href="#DejaVuSans-117"/>
     <use x="420.423828" xlink:href="#DejaVuSans-101"/>
     <use x="481.947266" xlink:href="#DejaVuSans-58"/>
     <use x="515.638672" xlink:href="#DejaVuSans-32"/>
     <use x="547.425781" xlink:href="#DejaVuSans-40"/>
     <use x="586.439453" xlink:href="#DejaVuSans-50"/>
     <use x="650.0625" xlink:href="#DejaVuSans-48"/>
     <use x="713.685547" xlink:href="#DejaVuSans-49"/>
     <use x="777.308594" xlink:href="#DejaVuSans-48"/>
     <use x="840.931641" xlink:href="#DejaVuSans-45"/>
     <use x="877.015625" xlink:href="#DejaVuSans-48"/>
     <use x="940.638672" xlink:href="#DejaVuSans-50"/>
     <use x="1004.261719" xlink:href="#DejaVuSans-45"/>
     <use x="1040.345703" xlink:href="#DejaVuSans-48"/>
     <use x="1103.96875" xlink:href="#DejaVuSans-49"/>
     <use x="1167.591797" xlink:href="#DejaVuSans-32"/>
     <use x="1199.378906" xlink:href="#DejaVuSans-126"/>
     <use x="1283.167969" xlink:href="#DejaVuSans-32"/>
     <use x="1314.955078" xlink:href="#DejaVuSans-50"/>
     <use x="1378.578125" xlink:href="#DejaVuSans-48"/>
     <use x="1442.201172" xlink:href="#DejaVuSans-49"/>
     <use x="1505.824219" xlink:href="#DejaVuSans-51"/>
     <use x="1569.447266" xlink:href="#DejaVuSans-45"/>
     <use x="1605.53125" xlink:href="#DejaVuSans-48"/>
     <use x="1669.154297" xlink:href="#DejaVuSans-49"/>
     <use x="1732.777344" xlink:href="#DejaVuSans-45"/>
     <use x="1768.861328" xlink:href="#DejaVuSans-50"/>
     <use x="1832.484375" xlink:href="#DejaVuSans-53"/>
     <use x="1896.107422" xlink:href="#DejaVuSans-41"/>
    </g>
   </g>
   <g id="legend_1">
    <g id="patch_7">
     <path d="M 40.7 77.954375 
L 129.145312 77.954375 
Q 131.145312 77.954375 131.145312 75.954375 
L 131.145312 32.92 
Q 131.145312 30.92 129.145312 30.92 
L 40.7 30.92 
Q 38.7 30.92 38.7 32.92 
L 38.7 75.954375 
Q 38.7 77.954375 40.7 77.954375 
z
" style="fill:#ffffff;opacity:0.8;stroke:#cccccc;stroke-linejoin:miter;"/>
    </g>
    <g id="line2d_24">
     <path d="M 42.7 39.018437 
L 62.7 39.018437 
" style="fill:none;stroke:#1f77b4;stroke-linecap:square;stroke-width:1.5;"/>
    </g>
    <g id="line2d_25"/>
    <g id="text_12">
     <!-- strategy -->
     <g transform="translate(70.7 42.518437)scale(0.1 -0.1)">
      <defs>
       <path d="M 44.28125 53.078125 
L 44.28125 44.578125 
Q 40.484375 46.53125 36.375 47.5 
Q 32.28125 48.484375 27.875 48.484375 
Q 21.1875 48.484375 17.84375 46.4375 
Q 14.5 44.390625 14.5 40.28125 
Q 14.5 37.15625 16.890625 35.375 
Q 19.28125 33.59375 26.515625 31.984375 
L 29.59375 31.296875 
Q 39.15625 29.25 43.1875 25.515625 
Q 47.21875 21.78125 47.21875 15.09375 
Q 47.21875 7.46875 41.1875 3.015625 
Q 35.15625 -1.421875 24.609375 -1.421875 
Q 20.21875 -1.421875 15.453125 -0.5625 
Q 10.6875 0.296875 5.421875 2 
L 5.421875 11.28125 
Q 10.40625 8.6875 15.234375 7.390625 
Q 20.0625 6.109375 24.8125 6.109375 
Q 31.15625 6.109375 34.5625 8.28125 
Q 37.984375 10.453125 37.984375 14.40625 
Q 37.984375 18.0625 35.515625 20.015625 
Q 33.0625 21.96875 24.703125 23.78125 
L 21.578125 24.515625 
Q 13.234375 26.265625 9.515625 29.90625 
Q 5.8125 33.546875 5.8125 39.890625 
Q 5.8125 47.609375 11.28125 51.796875 
Q 16.75 56 26.8125 56 
Q 31.78125 56 36.171875 55.265625 
Q 40.578125 54.546875 44.28125 53.078125 
z
" id="DejaVuSans-115"/>
       <path d="M 41.109375 46.296875 
Q 39.59375 47.171875 37.8125 47.578125 
Q 36.03125 48 33.890625 48 
Q 26.265625 48 22.1875 43.046875 
Q 18.109375 38.09375 18.109375 28.8125 
L 18.109375 0 
L 9.078125 0 
L 9.078125 54.6875 
L 18.109375 54.6875 
L 18.109375 46.1875 
Q 20.953125 51.171875 25.484375 53.578125 
Q 30.03125 56 36.53125 56 
Q 37.453125 56 38.578125 55.875 
Q 39.703125 55.765625 41.0625 55.515625 
z
" id="DejaVuSans-114"/>
       <path d="M 45.40625 27.984375 
Q 45.40625 37.75 41.375 43.109375 
Q 37.359375 48.484375 30.078125 48.484375 
Q 22.859375 48.484375 18.828125 43.109375 
Q 14.796875 37.75 14.796875 27.984375 
Q 14.796875 18.265625 18.828125 12.890625 
Q 22.859375 7.515625 30.078125 7.515625 
Q 37.359375 7.515625 41.375 12.890625 
Q 45.40625 18.265625 45.40625 27.984375 
z
M 54.390625 6.78125 
Q 54.390625 -7.171875 48.1875 -13.984375 
Q 42 -20.796875 29.203125 -20.796875 
Q 24.46875 -20.796875 20.265625 -20.09375 
Q 16.0625 -19.390625 12.109375 -17.921875 
L 12.109375 -9.1875 
Q 16.0625 -11.328125 19.921875 -12.34375 
Q 23.78125 -13.375 27.78125 -13.375 
Q 36.625 -13.375 41.015625 -8.765625 
Q 45.40625 -4.15625 45.40625 5.171875 
L 45.40625 9.625 
Q 42.625 4.78125 38.28125 2.390625 
Q 33.9375 0 27.875 0 
Q 17.828125 0 11.671875 7.65625 
Q 5.515625 15.328125 5.515625 27.984375 
Q 5.515625 40.671875 11.671875 48.328125 
Q 17.828125 56 27.875 56 
Q 33.9375 56 38.28125 53.609375 
Q 42.625 51.21875 45.40625 46.390625 
L 45.40625 54.6875 
L 54.390625 54.6875 
z
" id="DejaVuSans-103"/>
       <path d="M 32.171875 -5.078125 
Q 28.375 -14.84375 24.75 -17.8125 
Q 21.140625 -20.796875 15.09375 -20.796875 
L 7.90625 -20.796875 
L 7.90625 -13.28125 
L 13.1875 -13.28125 
Q 16.890625 -13.28125 18.9375 -11.515625 
Q 21 -9.765625 23.484375 -3.21875 
L 25.09375 0.875 
L 2.984375 54.6875 
L 12.5 54.6875 
L 29.59375 11.921875 
L 46.6875 54.6875 
L 56.203125 54.6875 
z
" id="DejaVuSans-121"/>
      </defs>
      <use xlink:href="#DejaVuSans-115"/>
      <use x="52.099609" xlink:href="#DejaVuSans-116"/>
      <use x="91.308594" xlink:href="#DejaVuSans-114"/>
      <use x="132.421875" xlink:href="#DejaVuSans-97"/>
      <use x="193.701172" xlink:href="#DejaVuSans-116"/>
      <use x="232.910156" xlink:href="#DejaVuSans-101"/>
      <use x="294.433594" xlink:href="#DejaVuSans-103"/>
      <use x="357.910156" xlink:href="#DejaVuSans-121"/>
     </g>
    </g>
    <g id="line2d_26">
     <path d="M 42.7 53.696562 
L 62.7 53.696562 
" style="fill:none;stroke:#ff7f0e;stroke-linecap:square;stroke-width:1.5;"/>
    </g>
    <g id="line2d_27"/>
    <g id="text_13">
     <!-- benchmark -->
     <g transform="translate(70.7 57.196562)scale(0.1 -0.1)">
      <defs>
       <path d="M 48.6875 27.296875 
Q 48.6875 37.203125 44.609375 42.84375 
Q 40.53125 48.484375 33.40625 48.484375 
Q 26.265625 48.484375 22.1875 42.84375 
Q 18.109375 37.203125 18.109375 27.296875 
Q 18.109375 17.390625 22.1875 11.75 
Q 26.265625 6.109375 33.40625 6.109375 
Q 40.53125 6.109375 44.609375 11.75 
Q 48.6875 17.390625 48.6875 27.296875 
z
M 18.109375 46.390625 
Q 20.953125 51.265625 25.265625 53.625 
Q 29.59375 56 35.59375 56 
Q 45.5625 56 51.78125 48.09375 
Q 58.015625 40.1875 58.015625 27.296875 
Q 58.015625 14.40625 51.78125 6.484375 
Q 45.5625 -1.421875 35.59375 -1.421875 
Q 29.59375 -1.421875 25.265625 0.953125 
Q 20.953125 3.328125 18.109375 8.203125 
L 18.109375 0 
L 9.078125 0 
L 9.078125 75.984375 
L 18.109375 75.984375 
z
" id="DejaVuSans-98"/>
       <path d="M 54.890625 33.015625 
L 54.890625 0 
L 45.90625 0 
L 45.90625 32.71875 
Q 45.90625 40.484375 42.875 44.328125 
Q 39.84375 48.1875 33.796875 48.1875 
Q 26.515625 48.1875 22.3125 43.546875 
Q 18.109375 38.921875 18.109375 30.90625 
L 18.109375 0 
L 9.078125 0 
L 9.078125 54.6875 
L 18.109375 54.6875 
L 18.109375 46.1875 
Q 21.34375 51.125 25.703125 53.5625 
Q 30.078125 56 35.796875 56 
Q 45.21875 56 50.046875 50.171875 
Q 54.890625 44.34375 54.890625 33.015625 
z
" id="DejaVuSans-110"/>
       <path d="M 48.78125 52.59375 
L 48.78125 44.1875 
Q 44.96875 46.296875 41.140625 47.34375 
Q 37.3125 48.390625 33.40625 48.390625 
Q 24.65625 48.390625 19.8125 42.84375 
Q 14.984375 37.3125 14.984375 27.296875 
Q 14.984375 17.28125 19.8125 11.734375 
Q 24.65625 6.203125 33.40625 6.203125 
Q 37.3125 6.203125 41.140625 7.25 
Q 44.96875 8.296875 48.78125 10.40625 
L 48.78125 2.09375 
Q 45.015625 0.34375 40.984375 -0.53125 
Q 36.96875 -1.421875 32.421875 -1.421875 
Q 20.0625 -1.421875 12.78125 6.34375 
Q 5.515625 14.109375 5.515625 27.296875 
Q 5.515625 40.671875 12.859375 48.328125 
Q 20.21875 56 33.015625 56 
Q 37.15625 56 41.109375 55.140625 
Q 45.0625 54.296875 48.78125 52.59375 
z
" id="DejaVuSans-99"/>
       <path d="M 54.890625 33.015625 
L 54.890625 0 
L 45.90625 0 
L 45.90625 32.71875 
Q 45.90625 40.484375 42.875 44.328125 
Q 39.84375 48.1875 33.796875 48.1875 
Q 26.515625 48.1875 22.3125 43.546875 
Q 18.109375 38.921875 18.109375 30.90625 
L 18.109375 0 
L 9.078125 0 
L 9.078125 75.984375 
L 18.109375 75.984375 
L 18.109375 46.1875 
Q 21.34375 51.125 25.703125 53.5625 
Q 30.078125 56 35.796875 56 
Q 45.21875 56 50.046875 50.171875 
Q 54.890625 44.34375 54.890625 33.015625 
z
" id="DejaVuSans-104"/>
       <path d="M 52 44.1875 
Q 55.375 50.25 60.0625 53.125 
Q 64.75 56 71.09375 56 
Q 79.640625 56 84.28125 50.015625 
Q 88.921875 44.046875 88.921875 33.015625 
L 88.921875 0 
L 79.890625 0 
L 79.890625 32.71875 
Q 79.890625 40.578125 77.09375 44.375 
Q 74.3125 48.1875 68.609375 48.1875 
Q 61.625 48.1875 57.5625 43.546875 
Q 53.515625 38.921875 53.515625 30.90625 
L 53.515625 0 
L 44.484375 0 
L 44.484375 32.71875 
Q 44.484375 40.625 41.703125 44.40625 
Q 38.921875 48.1875 33.109375 48.1875 
Q 26.21875 48.1875 22.15625 43.53125 
Q 18.109375 38.875 18.109375 30.90625 
L 18.109375 0 
L 9.078125 0 
L 9.078125 54.6875 
L 18.109375 54.6875 
L 18.109375 46.1875 
Q 21.1875 51.21875 25.484375 53.609375 
Q 29.78125 56 35.6875 56 
Q 41.65625 56 45.828125 52.96875 
Q 50 49.953125 52 44.1875 
z
" id="DejaVuSans-109"/>
       <path d="M 9.078125 75.984375 
L 18.109375 75.984375 
L 18.109375 31.109375 
L 44.921875 54.6875 
L 56.390625 54.6875 
L 27.390625 29.109375 
L 57.625 0 
L 45.90625 0 
L 18.109375 26.703125 
L 18.109375 0 
L 9.078125 0 
z
" id="DejaVuSans-107"/>
      </defs>
      <use xlink:href="#DejaVuSans-98"/>
      <use x="63.476562" xlink:href="#DejaVuSans-101"/>
      <use x="125" xlink:href="#DejaVuSans-110"/>
      <use x="188.378906" xlink:href="#DejaVuSans-99"/>
      <use x="243.359375" xlink:href="#DejaVuSans-104"/>
      <use x="306.738281" xlink:href="#DejaVuSans-109"/>
      <use x="404.150391" xlink:href="#DejaVuSans-97"/>
      <use x="465.429688" xlink:href="#DejaVuSans-114"/>
      <use x="506.542969" xlink:href="#DejaVuSans-107"/>
     </g>
    </g>
    <g id="line2d_28">
     <path d="M 42.7 68.374687 
L 62.7 68.374687 
" style="fill:none;stroke:#2ca02c;stroke-linecap:square;stroke-width:1.5;"/>
    </g>
    <g id="line2d_29"/>
    <g id="text_14">
     <!-- excess -->
     <g transform="translate(70.7 71.874687)scale(0.1 -0.1)">
      <defs>
       <path d="M 54.890625 54.6875 
L 35.109375 28.078125 
L 55.90625 0 
L 45.3125 0 
L 29.390625 21.484375 
L 13.484375 0 
L 2.875 0 
L 24.125 28.609375 
L 4.6875 54.6875 
L 15.28125 54.6875 
L 29.78125 35.203125 
L 44.28125 54.6875 
z
" id="DejaVuSans-120"/>
      </defs>
      <use xlink:href="#DejaVuSans-101"/>
      <use x="59.773438" xlink:href="#DejaVuSans-120"/>
      <use x="117.203125" xlink:href="#DejaVuSans-99"/>
      <use x="172.183594" xlink:href="#DejaVuSans-101"/>
      <use x="233.707031" xlink:href="#DejaVuSans-115"/>
      <use x="285.806641" xlink:href="#DejaVuSans-115"/>
     </g>
    </g>
   </g>
  </g>
 </g>
 <defs>
  <clipPath id="pd95f1a97a0">
   <rect height="247.64" width="1107.5" x="33.7" y="25.92"/>
  </clipPath>
 </defs>
</svg>
