<?xml version="1.0" encoding="utf-8" standalone="no"?>
<!DOCTYPE svg PUBLIC "-//W3C//DTD SVG 1.1//EN"
  "http://www.w3.org/Graphics/SVG/1.1/DTD/svg11.dtd">
<!-- Created with matplotlib (https://matplotlib.org/) -->
<svg height="316.8pt" version="1.1" viewBox="0 0 1152 316.8" width="1152pt" xmlns="http://www.w3.org/2000/svg" xmlns:xlink="http://www.w3.org/1999/xlink">
 <metadata>
  <rdf:RDF xmlns:cc="http://creativecommons.org/ns#" xmlns:dc="http://purl.org/dc/elements/1.1/" xmlns:rdf="http://www.w3.org/1999/02/22-rdf-syntax-ns#">
   <cc:Work>
    <dc:type rdf:resource="http://purl.org/dc/dcmitype/StillImage"/>
    <dc:date>2023-07-20T10:44:38.827473</dc:date>
    <dc:format>image/svg+xml</dc:format>
    <dc:creator>
     <cc:Agent>
      <dc:title>Matplotlib v3.3.4, https://matplotlib.org/</dc:title>
     </cc:Agent>
    </dc:creator>
   </cc:Work>
  </rdf:RDF>
 </metadata>
 <defs>
  <style type="text/css">*{stroke-linecap:butt;stroke-linejoin:round;}</style>
 </defs>
 <g id="figure_1">
  <g id="patch_1">
   <path d="M 0 316.8 
L 1152 316.8 
L 1152 0 
L 0 0 
z
" style="fill:#ffffff;"/>
  </g>
  <g id="axes_1">
   <g id="patch_2">
    <path d="M 33.7 273.56 
L 1141.2 273.56 
L 1141.2 25.92 
L 33.7 25.92 
z
" style="fill:#ffffff;"/>
   </g>
   <g id="matplotlib.axis_1">
    <g id="xtick_1">
     <g id="line2d_1">
      <path clip-path="url(#p8d515960c6)" d="M 54.42861 273.56 
L 54.42861 25.92 
" style="fill:none;stroke:#b0b0b0;stroke-linecap:square;stroke-width:0.8;"/>
     </g>
     <g id="line2d_2">
      <defs>
       <path d="M 0 0 
L 0 3.5 
" id="med0d65c36f" style="stroke:#000000;stroke-width:0.8;"/>
      </defs>
      <g>
       <use style="stroke:#000000;stroke-width:0.8;" x="54.42861" xlink:href="#med0d65c36f" y="273.56"/>
      </g>
     </g>
     <g id="text_1">
      <!-- 2010 -->
      <g transform="translate(57.187985 306.01)rotate(-90)scale(0.1 -0.1)">
       <defs>
        <path d="M 19.1875 8.296875 
L 53.609375 8.296875 
L 53.609375 0 
L 7.328125 0 
L 7.328125 8.296875 
Q 12.9375 14.109375 22.625 23.890625 
Q 32.328125 33.6875 34.8125 36.53125 
Q 39.546875 41.84375 41.421875 45.53125 
Q 43.3125 49.21875 43.3125 52.78125 
Q 43.3125 58.59375 39.234375 62.25 
Q 35.15625 65.921875 28.609375 65.921875 
Q 23.96875 65.921875 18.8125 64.3125 
Q 13.671875 62.703125 7.8125 59.421875 
L 7.8125 69.390625 
Q 13.765625 71.78125 18.9375 73 
Q 24.125 74.21875 28.421875 74.21875 
Q 39.75 74.21875 46.484375 68.546875 
Q 53.21875 62.890625 53.21875 53.421875 
Q 53.21875 48.921875 51.53125 44.890625 
Q 49.859375 40.875 45.40625 35.40625 
Q 44.1875 33.984375 37.640625 27.21875 
Q 31.109375 20.453125 19.1875 8.296875 
z
" id="DejaVuSans-50"/>
        <path d="M 31.78125 66.40625 
Q 24.171875 66.40625 20.328125 58.90625 
Q 16.5 51.421875 16.5 36.375 
Q 16.5 21.390625 20.328125 13.890625 
Q 24.171875 6.390625 31.78125 6.390625 
Q 39.453125 6.390625 43.28125 13.890625 
Q 47.125 21.390625 47.125 36.375 
Q 47.125 51.421875 43.28125 58.90625 
Q 39.453125 66.40625 31.78125 66.40625 
z
M 31.78125 74.21875 
Q 44.046875 74.21875 50.515625 64.515625 
Q 56.984375 54.828125 56.984375 36.375 
Q 56.984375 17.96875 50.515625 8.265625 
Q 44.046875 -1.421875 31.78125 -1.421875 
Q 19.53125 -1.421875 13.0625 8.265625 
Q 6.59375 17.96875 6.59375 36.375 
Q 6.59375 54.828125 13.0625 64.515625 
Q 19.53125 74.21875 31.78125 74.21875 
z
" id="DejaVuSans-48"/>
        <path d="M 12.40625 8.296875 
L 28.515625 8.296875 
L 28.515625 63.921875 
L 10.984375 60.40625 
L 10.984375 69.390625 
L 28.421875 72.90625 
L 38.28125 72.90625 
L 38.28125 8.296875 
L 54.390625 8.296875 
L 54.390625 0 
L 12.40625 0 
z
" id="DejaVuSans-49"/>
       </defs>
       <use xlink:href="#DejaVuSans-50"/>
       <use x="63.623047" xlink:href="#DejaVuSans-48"/>
       <use x="127.246094" xlink:href="#DejaVuSans-49"/>
       <use x="190.869141" xlink:href="#DejaVuSans-48"/>
      </g>
     </g>
    </g>
    <g id="xtick_2">
     <g id="line2d_3">
      <path clip-path="url(#p8d515960c6)" d="M 392.1939 273.56 
L 392.1939 25.92 
" style="fill:none;stroke:#b0b0b0;stroke-linecap:square;stroke-width:0.8;"/>
     </g>
     <g id="line2d_4">
      <g>
       <use style="stroke:#000000;stroke-width:0.8;" x="392.1939" xlink:href="#med0d65c36f" y="273.56"/>
      </g>
     </g>
     <g id="text_2">
      <!-- 2011 -->
      <g transform="translate(394.953275 306.01)rotate(-90)scale(0.1 -0.1)">
       <use xlink:href="#DejaVuSans-50"/>
       <use x="63.623047" xlink:href="#DejaVuSans-48"/>
       <use x="127.246094" xlink:href="#DejaVuSans-49"/>
       <use x="190.869141" xlink:href="#DejaVuSans-49"/>
      </g>
     </g>
    </g>
    <g id="xtick_3">
     <g id="line2d_5">
      <path clip-path="url(#p8d515960c6)" d="M 729.959191 273.56 
L 729.959191 25.92 
" style="fill:none;stroke:#b0b0b0;stroke-linecap:square;stroke-width:0.8;"/>
     </g>
     <g id="line2d_6">
      <g>
       <use style="stroke:#000000;stroke-width:0.8;" x="729.959191" xlink:href="#med0d65c36f" y="273.56"/>
      </g>
     </g>
     <g id="text_3">
      <!-- 2012 -->
      <g transform="translate(732.718566 306.01)rotate(-90)scale(0.1 -0.1)">
       <use xlink:href="#DejaVuSans-50"/>
       <use x="63.623047" xlink:href="#DejaVuSans-48"/>
       <use x="127.246094" xlink:href="#DejaVuSans-49"/>
       <use x="190.869141" xlink:href="#DejaVuSans-50"/>
      </g>
     </g>
    </g>
    <g id="xtick_4">
     <g id="line2d_7">
      <path clip-path="url(#p8d515960c6)" d="M 1068.649866 273.56 
L 1068.649866 25.92 
" style="fill:none;stroke:#b0b0b0;stroke-linecap:square;stroke-width:0.8;"/>
     </g>
     <g id="line2d_8">
      <g>
       <use style="stroke:#000000;stroke-width:0.8;" x="1068.649866" xlink:href="#med0d65c36f" y="273.56"/>
      </g>
     </g>
     <g id="text_4">
      <!-- 2013 -->
      <g transform="translate(1071.409241 306.01)rotate(-90)scale(0.1 -0.1)">
       <defs>
        <path d="M 40.578125 39.3125 
Q 47.65625 37.796875 51.625 33 
Q 55.609375 28.21875 55.609375 21.1875 
Q 55.609375 10.40625 48.1875 4.484375 
Q 40.765625 -1.421875 27.09375 -1.421875 
Q 22.515625 -1.421875 17.65625 -0.515625 
Q 12.796875 0.390625 7.625 2.203125 
L 7.625 11.71875 
Q 11.71875 9.328125 16.59375 8.109375 
Q 21.484375 6.890625 26.8125 6.890625 
Q 36.078125 6.890625 40.9375 10.546875 
Q 45.796875 14.203125 45.796875 21.1875 
Q 45.796875 27.640625 41.28125 31.265625 
Q 36.765625 34.90625 28.71875 34.90625 
L 20.21875 34.90625 
L 20.21875 43.015625 
L 29.109375 43.015625 
Q 36.375 43.015625 40.234375 45.921875 
Q 44.09375 48.828125 44.09375 54.296875 
Q 44.09375 59.90625 40.109375 62.90625 
Q 36.140625 65.921875 28.71875 65.921875 
Q 24.65625 65.921875 20.015625 65.03125 
Q 15.375 64.15625 9.8125 62.3125 
L 9.8125 71.09375 
Q 15.4375 72.65625 20.34375 73.4375 
Q 25.25 74.21875 29.59375 74.21875 
Q 40.828125 74.21875 47.359375 69.109375 
Q 53.90625 64.015625 53.90625 55.328125 
Q 53.90625 49.265625 50.4375 45.09375 
Q 46.96875 40.921875 40.578125 39.3125 
z
" id="DejaVuSans-51"/>
       </defs>
       <use xlink:href="#DejaVuSans-50"/>
       <use x="63.623047" xlink:href="#DejaVuSans-48"/>
       <use x="127.246094" xlink:href="#DejaVuSans-49"/>
       <use x="190.869141" xlink:href="#DejaVuSans-51"/>
      </g>
     </g>
    </g>
   </g>
   <g id="matplotlib.axis_2">
    <g id="ytick_1">
     <g id="line2d_9">
      <path clip-path="url(#p8d515960c6)" d="M 33.7 256.566306 
L 1141.2 256.566306 
" style="fill:none;stroke:#b0b0b0;stroke-linecap:square;stroke-width:0.8;"/>
     </g>
     <g id="line2d_10">
      <defs>
       <path d="M 0 0 
L -3.5 0 
" id="m8df083ce55" style="stroke:#000000;stroke-width:0.8;"/>
      </defs>
      <g>
       <use style="stroke:#000000;stroke-width:0.8;" x="33.7" xlink:href="#m8df083ce55" y="256.566306"/>
      </g>
     </g>
     <g id="text_5">
      <!-- 0.5 -->
      <g transform="translate(10.796875 260.365525)scale(0.1 -0.1)">
       <defs>
        <path d="M 10.6875 12.40625 
L 21 12.40625 
L 21 0 
L 10.6875 0 
z
" id="DejaVuSans-46"/>
        <path d="M 10.796875 72.90625 
L 49.515625 72.90625 
L 49.515625 64.59375 
L 19.828125 64.59375 
L 19.828125 46.734375 
Q 21.96875 47.46875 24.109375 47.828125 
Q 26.265625 48.1875 28.421875 48.1875 
Q 40.625 48.1875 47.75 41.5 
Q 54.890625 34.8125 54.890625 23.390625 
Q 54.890625 11.625 47.5625 5.09375 
Q 40.234375 -1.421875 26.90625 -1.421875 
Q 22.3125 -1.421875 17.546875 -0.640625 
Q 12.796875 0.140625 7.71875 1.703125 
L 7.71875 11.625 
Q 12.109375 9.234375 16.796875 8.0625 
Q 21.484375 6.890625 26.703125 6.890625 
Q 35.15625 6.890625 40.078125 11.328125 
Q 45.015625 15.765625 45.015625 23.390625 
Q 45.015625 31 40.078125 35.4375 
Q 35.15625 39.890625 26.703125 39.890625 
Q 22.75 39.890625 18.8125 39.015625 
Q 14.890625 38.140625 10.796875 36.28125 
z
" id="DejaVuSans-53"/>
       </defs>
       <use xlink:href="#DejaVuSans-48"/>
       <use x="63.623047" xlink:href="#DejaVuSans-46"/>
       <use x="95.410156" xlink:href="#DejaVuSans-53"/>
      </g>
     </g>
    </g>
    <g id="ytick_2">
     <g id="line2d_11">
      <path clip-path="url(#p8d515960c6)" d="M 33.7 221.547738 
L 1141.2 221.547738 
" style="fill:none;stroke:#b0b0b0;stroke-linecap:square;stroke-width:0.8;"/>
     </g>
     <g id="line2d_12">
      <g>
       <use style="stroke:#000000;stroke-width:0.8;" x="33.7" xlink:href="#m8df083ce55" y="221.547738"/>
      </g>
     </g>
     <g id="text_6">
      <!-- 1.0 -->
      <g transform="translate(10.796875 225.346957)scale(0.1 -0.1)">
       <use xlink:href="#DejaVuSans-49"/>
       <use x="63.623047" xlink:href="#DejaVuSans-46"/>
       <use x="95.410156" xlink:href="#DejaVuSans-48"/>
      </g>
     </g>
    </g>
    <g id="ytick_3">
     <g id="line2d_13">
      <path clip-path="url(#p8d515960c6)" d="M 33.7 186.52917 
L 1141.2 186.52917 
" style="fill:none;stroke:#b0b0b0;stroke-linecap:square;stroke-width:0.8;"/>
     </g>
     <g id="line2d_14">
      <g>
       <use style="stroke:#000000;stroke-width:0.8;" x="33.7" xlink:href="#m8df083ce55" y="186.52917"/>
      </g>
     </g>
     <g id="text_7">
      <!-- 1.5 -->
      <g transform="translate(10.796875 190.328388)scale(0.1 -0.1)">
       <use xlink:href="#DejaVuSans-49"/>
       <use x="63.623047" xlink:href="#DejaVuSans-46"/>
       <use x="95.410156" xlink:href="#DejaVuSans-53"/>
      </g>
     </g>
    </g>
    <g id="ytick_4">
     <g id="line2d_15">
      <path clip-path="url(#p8d515960c6)" d="M 33.7 151.510601 
L 1141.2 151.510601 
" style="fill:none;stroke:#b0b0b0;stroke-linecap:square;stroke-width:0.8;"/>
     </g>
     <g id="line2d_16">
      <g>
       <use style="stroke:#000000;stroke-width:0.8;" x="33.7" xlink:href="#m8df083ce55" y="151.510601"/>
      </g>
     </g>
     <g id="text_8">
      <!-- 2.0 -->
      <g transform="translate(10.796875 155.30982)scale(0.1 -0.1)">
       <use xlink:href="#DejaVuSans-50"/>
       <use x="63.623047" xlink:href="#DejaVuSans-46"/>
       <use x="95.410156" xlink:href="#DejaVuSans-48"/>
      </g>
     </g>
    </g>
    <g id="ytick_5">
     <g id="line2d_17">
      <path clip-path="url(#p8d515960c6)" d="M 33.7 116.492033 
L 1141.2 116.492033 
" style="fill:none;stroke:#b0b0b0;stroke-linecap:square;stroke-width:0.8;"/>
     </g>
     <g id="line2d_18">
      <g>
       <use style="stroke:#000000;stroke-width:0.8;" x="33.7" xlink:href="#m8df083ce55" y="116.492033"/>
      </g>
     </g>
     <g id="text_9">
      <!-- 2.5 -->
      <g transform="translate(10.796875 120.291251)scale(0.1 -0.1)">
       <use xlink:href="#DejaVuSans-50"/>
       <use x="63.623047" xlink:href="#DejaVuSans-46"/>
       <use x="95.410156" xlink:href="#DejaVuSans-53"/>
      </g>
     </g>
    </g>
    <g id="ytick_6">
     <g id="line2d_19">
      <path clip-path="url(#p8d515960c6)" d="M 33.7 81.473464 
L 1141.2 81.473464 
" style="fill:none;stroke:#b0b0b0;stroke-linecap:square;stroke-width:0.8;"/>
     </g>
     <g id="line2d_20">
      <g>
       <use style="stroke:#000000;stroke-width:0.8;" x="33.7" xlink:href="#m8df083ce55" y="81.473464"/>
      </g>
     </g>
     <g id="text_10">
      <!-- 3.0 -->
      <g transform="translate(10.796875 85.272683)scale(0.1 -0.1)">
       <use xlink:href="#DejaVuSans-51"/>
       <use x="63.623047" xlink:href="#DejaVuSans-46"/>
       <use x="95.410156" xlink:href="#DejaVuSans-48"/>
      </g>
     </g>
    </g>
    <g id="ytick_7">
     <g id="line2d_21">
      <path clip-path="url(#p8d515960c6)" d="M 33.7 46.454896 
L 1141.2 46.454896 
" style="fill:none;stroke:#b0b0b0;stroke-linecap:square;stroke-width:0.8;"/>
     </g>
     <g id="line2d_22">
      <g>
       <use style="stroke:#000000;stroke-width:0.8;" x="33.7" xlink:href="#m8df083ce55" y="46.454896"/>
      </g>
     </g>
     <g id="text_11">
      <!-- 3.5 -->
      <g transform="translate(10.796875 50.254115)scale(0.1 -0.1)">
       <use xlink:href="#DejaVuSans-51"/>
       <use x="63.623047" xlink:href="#DejaVuSans-46"/>
       <use x="95.410156" xlink:href="#DejaVuSans-53"/>
      </g>
     </g>
    </g>
   </g>
   <g id="line2d_23">
    <path clip-path="url(#p8d515960c6)" d="M 84.040909 222.08708 
L 84.966293 218.932484 
L 85.891678 221.66659 
L 86.817062 223.301012 
L 89.593215 221.610105 
L 90.5186 221.956026 
L 91.443984 220.255529 
L 92.369368 222.732976 
L 93.294753 221.668647 
L 96.070906 222.027654 
L 96.99629 220.426781 
L 97.921674 222.870596 
L 98.847059 220.172666 
L 99.772443 220.380459 
L 102.548596 220.159207 
L 103.473981 216.324323 
L 104.399365 219.158494 
L 105.324749 215.400918 
L 106.250134 218.789202 
L 109.026287 202.235789 
L 109.951671 206.881999 
L 110.877055 208.747568 
L 111.80244 208.969103 
L 112.727824 201.491118 
L 115.503977 199.870103 
L 116.429362 199.928472 
L 118.28013 187.970102 
L 119.205515 190.836812 
L 121.981668 195.70505 
L 122.907052 192.692588 
L 123.832436 195.01095 
L 124.757821 189.842796 
L 125.683205 189.285915 
L 128.459358 186.184802 
L 129.384743 177.748851 
L 130.310127 172.836128 
L 131.235511 176.157061 
L 132.160896 172.980134 
L 134.937049 175.658055 
L 135.862433 170.800644 
L 136.787818 174.768293 
L 137.713202 182.516643 
L 138.638586 183.77552 
L 142.340124 176.378338 
L 143.265508 177.733167 
L 144.190892 180.490474 
L 145.116277 177.816186 
L 147.89243 180.744483 
L 148.817814 182.071249 
L 149.743199 182.06877 
L 150.668583 187.678943 
L 151.593967 183.70126 
L 154.37012 188.486241 
L 156.220889 173.022996 
L 157.146273 179.761562 
L 158.071658 178.712195 
L 160.847811 171.347825 
L 161.773195 172.124646 
L 162.69858 174.312398 
L 163.623964 172.508111 
L 164.549348 173.69926 
L 167.325501 174.042221 
L 168.250886 172.031332 
L 169.17627 174.500237 
L 170.101654 171.643222 
L 171.027039 168.061728 
L 173.803192 164.050361 
L 174.728576 160.888979 
L 175.653961 155.809804 
L 176.579345 154.339725 
L 180.280882 160.83819 
L 181.206267 164.420395 
L 182.131651 162.466164 
L 183.057035 155.684685 
L 183.98242 156.537143 
L 186.758573 158.501983 
L 187.683957 164.298887 
L 188.609342 158.797485 
L 189.534726 159.862151 
L 190.46011 164.283882 
L 193.236263 165.007021 
L 194.161648 140.862016 
L 196.012416 127.162114 
L 196.937801 119.682951 
L 199.713954 126.33419 
L 200.639338 124.274591 
L 201.564723 127.085873 
L 202.490107 123.660913 
L 203.415491 123.146585 
L 206.191644 122.24312 
L 207.117029 115.274972 
L 208.042413 117.795039 
L 208.967797 106.879554 
L 209.893182 116.819225 
L 212.669335 114.248067 
L 213.594719 114.830617 
L 214.520104 114.361706 
L 215.445488 125.534226 
L 216.370872 122.426779 
L 219.147025 112.292274 
L 220.07241 108.079563 
L 220.997794 106.319141 
L 221.923178 139.21346 
L 222.848563 137.633182 
L 225.624716 130.500708 
L 226.5501 120.029724 
L 227.475485 116.997825 
L 228.400869 114.742118 
L 229.326253 117.822225 
L 232.102406 119.319517 
L 233.027791 110.383954 
L 233.953175 123.101285 
L 234.878559 125.82681 
L 235.803944 115.243604 
L 238.580097 109.35839 
L 239.505481 119.452007 
L 240.430866 119.081496 
L 241.35625 115.292837 
L 242.281634 112.165742 
L 245.057787 109.186466 
L 245.983172 105.959994 
L 246.908556 104.98077 
L 247.833941 104.507563 
L 248.759325 108.693192 
L 252.460862 86.98074 
L 253.386247 82.74054 
L 254.311631 76.816306 
L 255.237015 75.112007 
L 258.013168 82.386649 
L 258.938553 89.778947 
L 259.863937 105.992918 
L 260.789322 98.792656 
L 261.714706 101.574573 
L 264.490859 97.734542 
L 265.416243 86.418323 
L 266.341628 71.357298 
L 267.267012 73.301554 
L 268.192396 57.820508 
L 270.968549 48.626108 
L 271.893934 50.804914 
L 272.819318 37.176364 
L 273.744703 49.520254 
L 274.670087 57.913915 
L 277.44624 61.728058 
L 278.371624 75.304124 
L 279.297009 122.410506 
L 280.222393 123.483387 
L 281.147777 128.475603 
L 283.92393 129.739952 
L 284.849315 121.772893 
L 285.774699 130.898784 
L 286.700084 132.132341 
L 287.625468 121.691487 
L 290.401621 122.944439 
L 291.327005 120.7542 
L 292.25239 115.718925 
L 293.177774 112.384068 
L 296.879311 112.93945 
L 297.804696 109.981232 
L 298.73008 114.206794 
L 299.655465 125.735782 
L 300.580849 128.631236 
L 303.357002 117.501733 
L 304.282386 121.324673 
L 305.207771 120.404713 
L 306.133155 120.652731 
L 307.058539 111.693187 
L 309.834693 116.70427 
L 310.760077 112.473241 
L 311.685461 127.316593 
L 312.610846 118.083352 
L 313.53623 113.926492 
L 316.312383 114.15605 
L 317.237767 117.825056 
L 318.163152 120.362369 
L 319.088536 112.664484 
L 320.01392 126.239286 
L 322.790074 133.473865 
L 323.715458 129.324401 
L 324.640842 131.130408 
L 325.566227 134.316815 
L 326.491611 135.846197 
L 329.267764 133.404944 
L 330.193148 135.574257 
L 331.118533 133.226515 
L 332.043917 136.009402 
L 332.969301 132.857536 
L 335.745455 116.560466 
L 336.670839 105.87151 
L 337.596223 101.188865 
L 338.521608 95.106953 
L 339.446992 105.287458 
L 342.223145 97.440815 
L 343.148529 93.336279 
L 344.073914 75.851401 
L 344.999298 81.97403 
L 345.924682 83.942793 
L 348.700836 85.739177 
L 349.62622 96.899872 
L 350.551604 89.4829 
L 351.476989 91.898625 
L 352.402373 87.176412 
L 356.10391 85.339871 
L 357.029295 82.958456 
L 357.954679 73.697621 
L 358.880064 78.650591 
L 361.656217 78.39294 
L 362.581601 84.110354 
L 363.506985 140.384435 
L 364.43237 146.49025 
L 365.357754 143.970454 
L 368.133907 150.677797 
L 369.059291 155.763857 
L 369.984676 160.127874 
L 370.91006 162.992222 
L 371.835445 169.387462 
L 374.611598 169.63704 
L 375.536982 161.663211 
L 376.462366 165.724965 
L 377.387751 166.13371 
L 378.313135 165.395576 
L 381.089288 160.776317 
L 382.014672 160.819412 
L 382.940057 165.709212 
L 383.865441 164.089019 
L 384.790826 165.269443 
L 388.492363 173.8228 
L 389.417747 169.015633 
L 390.343132 170.053522 
L 391.268516 170.875519 
L 394.044669 142.812232 
L 394.970053 144.415278 
L 395.895438 137.941208 
L 396.820822 140.287225 
L 397.746207 141.261975 
L 400.52236 136.564378 
L 401.447744 136.718369 
L 402.373128 126.885824 
L 403.298513 126.542797 
L 404.223897 138.683511 
L 407.00005 135.921524 
L 407.925434 139.634667 
L 408.850819 136.491864 
L 409.776203 131.04018 
L 410.701588 126.912686 
L 413.477741 125.994138 
L 414.403125 129.638574 
L 415.328509 130.139829 
L 416.253894 135.40008 
L 417.179278 142.700062 
L 419.955431 139.6629 
L 420.880816 141.510203 
L 421.8062 135.949559 
L 422.731584 146.066373 
L 426.433122 136.846194 
L 427.358506 137.539427 
L 428.28389 136.090648 
L 429.209275 141.364553 
L 430.134659 144.7562 
L 432.910812 150.805674 
L 433.836197 154.845735 
L 434.761581 146.848939 
L 435.686965 141.066037 
L 436.61235 138.133545 
L 439.388503 142.831897 
L 440.313887 137.139936 
L 441.239271 130.150827 
L 442.164656 136.318182 
L 443.09004 138.198008 
L 445.866193 135.900363 
L 446.791578 153.457345 
L 447.716962 143.115664 
L 448.642346 142.454715 
L 449.567731 145.253029 
L 452.343884 148.400841 
L 453.269268 146.005747 
L 454.194652 144.331757 
L 455.120037 144.461494 
L 456.045421 151.890352 
L 458.821574 150.63674 
L 459.746959 151.753492 
L 460.672343 162.323683 
L 461.597727 158.497034 
L 462.523112 150.191903 
L 465.299265 147.8899 
L 466.224649 147.915686 
L 467.150033 153.479302 
L 468.075418 161.818273 
L 469.000802 158.192849 
L 471.776955 162.797264 
L 472.70234 162.434884 
L 473.627724 158.03499 
L 474.553108 158.128873 
L 475.478493 153.321517 
L 478.254646 148.981803 
L 479.18003 144.113158 
L 480.105414 138.20236 
L 481.030799 133.524881 
L 481.956183 129.962025 
L 484.732336 130.259754 
L 485.657721 133.281779 
L 486.583105 132.119144 
L 487.508489 140.106648 
L 488.433874 141.673212 
L 491.210027 149.784271 
L 492.135411 146.942152 
L 493.060795 145.680847 
L 493.98618 140.745559 
L 494.911564 139.425526 
L 497.687717 148.601935 
L 498.613102 156.186876 
L 499.538486 155.487423 
L 500.46387 153.442601 
L 501.389255 161.290758 
L 504.165408 154.703321 
L 505.090792 151.588249 
L 506.016176 153.211347 
L 506.941561 143.315115 
L 507.866945 145.922175 
L 511.568483 132.382744 
L 512.493867 132.51286 
L 513.419251 141.241428 
L 514.344636 151.719308 
L 517.120789 148.091611 
L 518.046173 147.195149 
L 518.971557 145.481244 
L 519.896942 150.163649 
L 520.822326 150.790237 
L 523.598479 148.076992 
L 524.523864 154.148817 
L 525.449248 158.083001 
L 526.374632 157.722644 
L 527.300017 153.762266 
L 530.07617 155.122844 
L 531.001554 156.519964 
L 531.926939 136.895246 
L 532.852323 133.418143 
L 533.777707 134.874996 
L 536.55386 136.112029 
L 537.479245 137.189386 
L 538.404629 142.368861 
L 539.330013 145.347993 
L 540.255398 140.983966 
L 543.031551 131.626768 
L 543.956935 132.194844 
L 544.88232 134.254912 
L 546.733088 141.663538 
L 549.509241 136.797305 
L 550.434626 138.491422 
L 551.36001 129.765154 
L 552.285394 127.886031 
L 553.210779 131.264387 
L 555.986932 126.569838 
L 556.912316 129.684995 
L 557.837701 126.451554 
L 558.763085 134.09677 
L 559.688469 170.532256 
L 562.464622 172.695341 
L 563.390007 172.797074 
L 564.315391 176.684929 
L 565.240775 182.433854 
L 566.16616 182.740744 
L 568.942313 184.407768 
L 569.867697 182.755152 
L 570.793082 183.728313 
L 571.718466 187.118819 
L 572.64385 186.917858 
L 575.420003 184.396428 
L 576.345388 180.437885 
L 577.270772 182.659756 
L 578.196156 187.552557 
L 579.121541 187.664479 
L 581.897694 179.740361 
L 582.823078 175.688794 
L 584.673847 185.364726 
L 585.599231 188.808443 
L 588.375384 160.441663 
L 589.300769 156.223109 
L 590.226153 153.599488 
L 591.151537 155.848215 
L 592.076922 155.80458 
L 594.853075 151.325104 
L 595.778459 153.341607 
L 596.703844 147.439048 
L 597.629228 152.165398 
L 598.554612 151.779951 
L 601.330765 155.873491 
L 602.25615 156.529476 
L 603.181534 160.371258 
L 604.106918 158.448335 
L 605.032303 158.056384 
L 607.808456 152.663795 
L 608.73384 144.378984 
L 609.659225 142.470627 
L 610.584609 153.170142 
L 611.509993 155.473995 
L 614.286146 150.673514 
L 615.211531 149.401551 
L 616.136915 145.987969 
L 617.062299 179.765924 
L 617.987684 174.045971 
L 620.763837 178.531602 
L 621.689221 175.11451 
L 622.614606 177.042111 
L 623.53999 183.48584 
L 624.465374 187.106269 
L 627.241527 193.2921 
L 628.166912 197.203744 
L 629.092296 201.77689 
L 630.01768 205.354405 
L 630.943065 205.443537 
L 633.719218 199.848496 
L 634.644602 196.745138 
L 635.569987 195.379659 
L 636.495371 193.644936 
L 637.420755 189.305438 
L 640.196908 188.870719 
L 641.122293 193.494671 
L 642.047677 190.900843 
L 642.973061 195.583937 
L 643.898446 193.225966 
L 646.674599 182.973596 
L 647.599983 183.159602 
L 648.525368 177.861799 
L 649.450752 174.189377 
L 650.376136 168.799716 
L 653.152289 175.718527 
L 654.077674 171.036985 
L 655.003058 169.670272 
L 655.928443 174.727814 
L 656.853827 172.371966 
L 659.62998 176.372734 
L 660.555364 173.08961 
L 661.480749 173.870339 
L 662.406133 181.681072 
L 663.331517 179.305826 
L 666.10767 179.709262 
L 667.033055 180.047283 
L 667.958439 181.358683 
L 668.883824 178.039255 
L 669.809208 181.871711 
L 672.585361 184.840588 
L 673.510745 200.399006 
L 674.43613 202.982484 
L 675.361514 201.18521 
L 676.286898 203.585905 
L 679.063051 199.589818 
L 679.988436 199.893189 
L 680.91382 202.255895 
L 681.839205 201.102896 
L 682.764589 202.227154 
L 685.540742 200.268644 
L 686.466126 201.588307 
L 687.391511 200.638807 
L 689.242279 194.453207 
L 692.018432 196.727558 
L 693.869201 197.25243 
L 694.794586 201.808034 
L 695.71997 202.79854 
L 698.496123 204.93536 
L 699.421507 209.986342 
L 700.346892 211.378486 
L 701.272276 205.243714 
L 702.19766 203.351044 
L 704.973814 204.702561 
L 705.899198 202.962475 
L 706.824582 202.493022 
L 707.749967 203.982668 
L 708.675351 203.287154 
L 711.451504 201.94172 
L 712.376888 202.062771 
L 713.302273 203.537306 
L 714.227657 197.397262 
L 715.153041 196.551147 
L 717.929195 199.222503 
L 718.854579 197.806507 
L 719.779963 199.365184 
L 720.705348 197.259543 
L 721.630732 199.255041 
L 724.406885 200.197782 
L 725.332269 203.648066 
L 726.257654 202.934457 
L 727.183038 205.659289 
L 728.108422 210.00539 
L 730.884576 187.491194 
L 731.80996 189.861672 
L 732.735344 187.506352 
L 733.660729 185.567395 
L 734.586113 180.573591 
L 737.362266 183.835574 
L 738.28765 178.320911 
L 739.213035 173.667494 
L 740.138419 173.268799 
L 741.063803 173.502298 
L 743.839957 175.132123 
L 744.765341 172.53054 
L 745.690725 177.248896 
L 746.61611 178.082813 
L 747.541494 182.382497 
L 750.317647 175.817426 
L 751.243031 179.406421 
L 752.168416 179.949953 
L 753.0938 179.961602 
L 754.019184 176.477009 
L 756.795338 175.243444 
L 757.720722 170.248185 
L 758.646106 180.294337 
L 759.571491 181.396434 
L 760.496875 176.447074 
L 763.273028 172.909362 
L 764.198412 169.869935 
L 765.123797 163.859767 
L 766.049181 164.701487 
L 766.974566 164.592045 
L 769.750719 168.538598 
L 770.676103 173.910147 
L 771.601487 166.823169 
L 772.526872 167.074415 
L 773.452256 164.769592 
L 776.228409 162.389971 
L 777.153793 160.477947 
L 778.079178 159.764006 
L 779.929947 169.900334 
L 782.7061 168.26011 
L 783.631484 169.463431 
L 784.556868 169.884237 
L 785.482253 182.763312 
L 786.407637 184.933765 
L 789.18379 190.852229 
L 790.109174 181.90661 
L 791.034559 186.807419 
L 791.959943 185.144169 
L 792.885328 185.721484 
L 795.661481 183.779896 
L 796.586865 187.651998 
L 797.512249 190.7276 
L 798.437634 183.574726 
L 799.363018 185.177816 
L 802.139171 181.760486 
L 803.064555 179.212323 
L 803.98994 172.49786 
L 804.915324 168.115087 
L 805.840709 167.137717 
L 808.616862 160.411179 
L 811.393015 175.201098 
L 812.318399 182.615348 
L 815.094552 185.466814 
L 816.019936 182.805971 
L 816.945321 176.566181 
L 817.870705 181.239704 
L 818.79609 186.595038 
L 821.572243 186.505081 
L 822.497627 185.913796 
L 823.423011 183.440461 
L 824.348396 188.134823 
L 825.27378 191.601111 
L 828.049933 188.919423 
L 828.975318 187.79918 
L 829.900702 189.465153 
L 830.826086 187.030812 
L 831.751471 189.559854 
L 834.527624 186.21594 
L 835.453008 183.592467 
L 836.378392 182.382543 
L 837.303777 181.889499 
L 838.229161 188.383881 
L 841.005314 190.135422 
L 841.930699 174.996365 
L 842.856083 178.915582 
L 843.781467 177.642238 
L 844.706852 182.933551 
L 847.483005 177.525713 
L 848.408389 179.79633 
L 850.259158 175.283172 
L 851.184542 179.165047 
L 853.960695 184.868087 
L 854.88608 186.291514 
L 855.811464 189.699651 
L 856.736848 187.770341 
L 857.662233 181.950639 
L 860.438386 184.230231 
L 863.214539 174.513854 
L 864.139923 168.198398 
L 866.916076 166.597487 
L 867.841461 163.418326 
L 868.766845 162.115111 
L 869.692229 159.629916 
L 870.617614 171.14656 
L 873.393767 164.836497 
L 874.319151 168.330393 
L 877.095304 176.512718 
L 879.871457 178.065928 
L 880.796842 177.17453 
L 881.722226 179.973378 
L 882.64761 175.685962 
L 883.572995 179.960569 
L 886.349148 179.07818 
L 888.199916 166.892458 
L 889.125301 166.180424 
L 890.050685 170.322037 
L 892.826838 166.501355 
L 893.752223 163.583247 
L 894.677607 162.266257 
L 895.602991 167.877632 
L 896.528376 167.331706 
L 899.304529 204.922514 
L 900.229913 206.481584 
L 901.155297 207.358719 
L 902.080682 205.630023 
L 903.006066 205.645388 
L 905.782219 207.249849 
L 906.707604 208.264548 
L 908.558372 213.060735 
L 909.483757 214.905413 
L 912.25991 211.734288 
L 913.185294 217.746111 
L 915.036063 223.665729 
L 915.961447 225.042377 
L 918.7376 221.639178 
L 919.662985 222.231972 
L 920.588369 219.877442 
L 921.513753 221.284498 
L 922.439138 223.426103 
L 925.215291 226.578704 
L 926.140675 225.070042 
L 927.066059 215.17157 
L 927.991444 220.879602 
L 928.916828 219.89125 
L 931.692981 219.015303 
L 932.618366 219.118913 
L 933.54375 219.53539 
L 934.469134 220.644588 
L 935.394519 217.581301 
L 938.170672 217.094019 
L 939.096056 213.663912 
L 940.021441 216.452498 
L 940.946825 212.920689 
L 941.872209 216.238882 
L 944.648362 219.617936 
L 945.573747 220.137973 
L 946.499131 218.604347 
L 947.424515 217.993206 
L 948.3499 215.116044 
L 951.126053 211.850117 
L 952.051437 214.903779 
L 952.976822 213.023606 
L 953.902206 215.208329 
L 954.82759 218.621094 
L 957.603743 211.391762 
L 958.529128 211.850488 
L 959.454512 212.728617 
L 960.379896 206.01642 
L 961.305281 202.521047 
L 964.081434 204.042729 
L 965.006818 203.957826 
L 966.857587 195.029856 
L 967.782971 200.352998 
L 970.559124 199.292456 
L 971.484509 196.345891 
L 972.409893 193.840591 
L 974.260662 196.072464 
L 977.036815 197.510364 
L 977.962199 201.000389 
L 978.887584 203.801111 
L 979.812968 205.911084 
L 980.738352 207.501565 
L 983.514505 225.91179 
L 984.43989 224.885377 
L 985.365274 223.614195 
L 986.290658 226.320212 
L 987.216043 222.54095 
L 989.992196 218.730108 
L 990.91758 218.765917 
L 991.842965 220.668158 
L 992.768349 221.028254 
L 993.693733 219.707574 
L 996.469886 222.660825 
L 997.395271 222.127732 
L 998.320655 221.951786 
L 999.246039 227.048058 
L 1000.171424 228.472801 
L 1002.947577 228.235914 
L 1003.872961 228.449661 
L 1004.798346 230.123918 
L 1005.72373 226.773362 
L 1006.649114 230.345915 
L 1009.425267 228.610577 
L 1010.350652 231.994598 
L 1011.276036 230.001067 
L 1012.20142 222.71715 
L 1013.126805 221.645929 
L 1015.902958 221.366078 
L 1016.828342 222.665535 
L 1017.753727 223.114908 
L 1018.679111 220.894469 
L 1019.604495 221.047024 
L 1022.380648 221.27235 
L 1024.231417 218.786446 
L 1025.156801 219.35893 
L 1026.082186 225.250832 
L 1028.858339 222.174133 
L 1029.783723 222.280561 
L 1030.709108 223.126578 
L 1031.634492 219.660957 
L 1032.559876 223.457672 
L 1035.336029 221.356341 
L 1036.261414 220.007707 
L 1037.186798 223.303905 
L 1038.112182 225.527826 
L 1039.037567 229.841066 
L 1041.81372 244.780356 
L 1042.739104 245.250735 
L 1043.664489 244.495121 
L 1044.589873 243.959474 
L 1045.515257 246.448803 
L 1048.29141 246.799852 
L 1049.216795 249.853753 
L 1050.142179 252.119778 
L 1051.992948 250.180291 
L 1054.769101 251.925443 
L 1055.694485 253.465141 
L 1056.61987 253.540218 
L 1057.545254 252.485593 
L 1058.470638 254.45849 
L 1061.246791 253.470494 
L 1062.172176 254.679084 
L 1063.09756 255.461922 
L 1064.022945 254.602993 
L 1067.724482 255.024549 
L 1068.649866 233.595294 
L 1069.575251 232.912684 
L 1070.500635 231.253659 
L 1071.426019 232.574258 
L 1074.202172 234.159643 
L 1075.127557 233.234378 
L 1076.052941 234.145548 
L 1076.978326 235.516314 
L 1077.90371 234.620072 
L 1080.679863 232.934608 
L 1081.605247 230.083457 
L 1082.530632 232.733025 
L 1083.456016 234.472459 
L 1084.3814 233.663108 
L 1087.157553 233.74673 
L 1088.082938 232.05629 
L 1089.008322 234.960377 
L 1089.933707 234.37204 
L 1090.859091 230.651326 
L 1090.859091 230.651326 
" style="fill:none;stroke:#1f77b4;stroke-linecap:square;stroke-width:1.5;"/>
   </g>
   <g id="line2d_24">
    <path clip-path="url(#p8d515960c6)" d="M 84.040909 221.497994 
L 84.966293 219.685727 
L 85.891678 222.064969 
L 86.817062 223.281068 
L 89.593215 221.658268 
L 90.5186 222.833211 
L 91.443984 219.285534 
L 92.369368 219.479997 
L 93.294753 219.268186 
L 96.99629 221.81606 
L 97.921674 223.882061 
L 98.847059 224.189023 
L 99.772443 225.116728 
L 102.548596 225.655838 
L 103.473981 224.139813 
L 104.399365 223.29618 
L 105.324749 221.145832 
L 106.250134 223.258452 
L 109.026287 223.386766 
L 109.951671 227.320671 
L 110.877055 226.302696 
L 111.80244 226.667736 
L 112.727824 224.82967 
L 115.503977 224.577575 
L 116.429362 225.897713 
L 117.354746 222.283609 
L 118.28013 223.029588 
L 119.205515 223.570191 
L 121.981668 223.804931 
L 122.907052 223.38642 
L 123.832436 224.89279 
L 124.757821 225.577178 
L 125.683205 225.34931 
L 128.459358 225.636468 
L 129.384743 222.612611 
L 130.310127 222.374053 
L 131.235511 224.657551 
L 132.160896 222.873955 
L 134.937049 224.611033 
L 135.862433 224.631307 
L 136.787818 222.842375 
L 137.713202 223.460979 
L 138.638586 222.103445 
L 143.265508 223.425926 
L 144.190892 223.95735 
L 145.116277 224.910333 
L 147.89243 228.462214 
L 148.817814 229.223763 
L 149.743199 227.133694 
L 150.668583 228.73218 
L 151.593967 228.770198 
L 154.37012 229.542428 
L 155.295505 226.998273 
L 156.220889 226.882824 
L 157.146273 228.956524 
L 158.071658 229.200842 
L 160.847811 228.006079 
L 161.773195 228.864238 
L 162.69858 229.925972 
L 163.623964 229.494113 
L 164.549348 229.614318 
L 167.325501 229.471231 
L 168.250886 228.456956 
L 169.17627 228.275178 
L 170.101654 226.972658 
L 171.027039 226.486853 
L 173.803192 227.827474 
L 174.728576 227.513973 
L 175.653961 226.621605 
L 176.579345 227.57298 
L 177.504729 228.282287 
L 180.280882 228.389557 
L 181.206267 229.384168 
L 182.131651 229.042998 
L 183.057035 226.394184 
L 183.98242 227.352379 
L 186.758573 228.071951 
L 187.683957 229.416365 
L 188.609342 228.332075 
L 189.534726 228.723613 
L 190.46011 228.450685 
L 193.236263 229.144467 
L 194.161648 230.690011 
L 195.087032 231.168826 
L 196.012416 230.031653 
L 196.937801 229.877433 
L 199.713954 229.157266 
L 200.639338 230.241236 
L 201.564723 228.513114 
L 202.490107 228.255046 
L 203.415491 229.845636 
L 206.191644 230.098771 
L 208.042413 229.763487 
L 208.967797 227.969319 
L 209.893182 228.36701 
L 212.669335 226.773494 
L 213.594719 227.415209 
L 214.520104 225.817505 
L 215.445488 229.226059 
L 216.370872 228.761735 
L 219.147025 227.227907 
L 220.07241 224.998083 
L 220.997794 224.044497 
L 221.923178 226.205844 
L 222.848563 225.865798 
L 225.624716 224.051913 
L 226.5501 222.066 
L 227.475485 222.508626 
L 228.400869 222.346412 
L 229.326253 221.569171 
L 232.102406 222.517114 
L 233.027791 220.746632 
L 233.953175 221.690764 
L 234.878559 222.386685 
L 235.803944 219.838171 
L 238.580097 220.054255 
L 239.505481 222.656969 
L 240.430866 223.508058 
L 241.35625 223.04296 
L 242.281634 222.855998 
L 245.057787 221.064662 
L 245.983172 218.752347 
L 247.833941 218.706758 
L 248.759325 220.331021 
L 251.535478 218.172616 
L 252.460862 217.833423 
L 253.386247 215.521819 
L 254.311631 213.999168 
L 255.237015 214.063919 
L 258.013168 212.011674 
L 258.938553 213.81998 
L 259.863937 214.727279 
L 260.789322 212.324884 
L 261.714706 211.996752 
L 264.490859 210.388703 
L 265.416243 210.996469 
L 266.341628 208.460292 
L 267.267012 209.828283 
L 268.192396 209.695739 
L 270.968549 209.547973 
L 271.893934 210.58062 
L 272.819318 210.035545 
L 273.744703 209.634599 
L 274.670087 209.918764 
L 277.44624 209.462538 
L 279.297009 212.531328 
L 280.222393 214.771443 
L 281.147777 215.215173 
L 283.92393 214.660895 
L 284.849315 213.682406 
L 285.774699 214.617209 
L 286.700084 214.737825 
L 287.625468 212.695572 
L 290.401621 213.73539 
L 291.327005 210.978925 
L 292.25239 209.655237 
L 294.103158 208.696517 
L 296.879311 209.739279 
L 297.804696 209.273266 
L 298.73008 210.963975 
L 299.655465 212.041728 
L 300.580849 210.408256 
L 303.357002 207.281353 
L 304.282386 209.857315 
L 305.207771 210.409784 
L 306.133155 212.72103 
L 307.058539 213.141204 
L 309.834693 212.009617 
L 310.760077 212.670045 
L 311.685461 214.44343 
L 312.610846 212.906973 
L 313.53623 212.452139 
L 316.312383 213.57157 
L 318.163152 217.278705 
L 319.088536 215.840618 
L 320.01392 216.133356 
L 322.790074 216.708453 
L 323.715458 216.113078 
L 324.640842 216.571592 
L 325.566227 215.330224 
L 326.491611 215.931706 
L 329.267764 214.501825 
L 330.193148 216.067811 
L 331.118533 215.743348 
L 332.043917 216.842384 
L 332.969301 216.401671 
L 335.745455 217.194095 
L 336.670839 214.958412 
L 337.596223 214.287715 
L 338.521608 214.122488 
L 339.446992 212.380292 
L 342.223145 211.557312 
L 343.148529 211.956808 
L 344.073914 210.918373 
L 344.999298 212.772415 
L 345.924682 212.583651 
L 348.700836 211.32171 
L 349.62622 211.120924 
L 350.551604 210.341061 
L 351.476989 208.927914 
L 352.402373 208.586441 
L 356.10391 206.432413 
L 357.029295 205.457745 
L 357.954679 205.60527 
L 358.880064 207.150198 
L 361.656217 207.477322 
L 362.581601 208.116129 
L 363.506985 207.537019 
L 364.43237 210.043838 
L 365.357754 209.659333 
L 368.133907 210.149022 
L 369.059291 212.410133 
L 369.984676 212.772794 
L 370.91006 212.110403 
L 371.835445 212.305067 
L 374.611598 212.109284 
L 375.536982 211.255536 
L 376.462366 212.703213 
L 377.387751 211.947491 
L 378.313135 211.40852 
L 381.089288 211.127162 
L 382.014672 210.018571 
L 382.940057 210.242103 
L 383.865441 208.477468 
L 384.790826 207.43758 
L 387.566979 205.443311 
L 388.492363 207.386786 
L 389.417747 206.951953 
L 390.343132 205.75102 
L 391.268516 207.366775 
L 394.044669 206.238721 
L 394.970053 204.839913 
L 395.895438 202.054907 
L 396.820822 202.526268 
L 397.746207 201.535977 
L 400.52236 201.492451 
L 401.447744 201.773863 
L 402.373128 198.278887 
L 403.298513 196.794166 
L 404.223897 197.80018 
L 407.00005 196.586435 
L 407.925434 198.460547 
L 408.850819 198.211032 
L 410.701588 199.679056 
L 413.477741 201.648021 
L 414.403125 204.011028 
L 415.328509 205.867361 
L 416.253894 206.523661 
L 417.179278 205.703659 
L 419.955431 206.310228 
L 420.880816 207.026831 
L 421.8062 205.119221 
L 422.731584 206.814394 
L 423.656969 204.912895 
L 426.433122 203.174733 
L 427.358506 203.603973 
L 428.28389 205.430159 
L 429.209275 203.375165 
L 430.134659 201.730399 
L 432.910812 201.492576 
L 433.836197 203.8313 
L 434.761581 203.555399 
L 435.686965 201.654972 
L 439.388503 202.64823 
L 440.313887 203.772501 
L 441.239271 203.997887 
L 442.164656 204.929938 
L 443.09004 204.35457 
L 445.866193 203.715471 
L 446.791578 205.091557 
L 447.716962 202.509201 
L 448.642346 205.251537 
L 449.567731 206.247044 
L 452.343884 205.197168 
L 453.269268 203.863647 
L 454.194652 205.041003 
L 455.120037 205.633944 
L 456.045421 203.372096 
L 458.821574 202.064524 
L 459.746959 203.205359 
L 460.672343 204.849752 
L 462.523112 202.449294 
L 465.299265 202.113545 
L 466.224649 202.968961 
L 467.150033 204.605063 
L 468.075418 207.315269 
L 469.000802 205.00927 
L 471.776955 205.383361 
L 473.627724 207.784863 
L 474.553108 207.049749 
L 475.478493 206.864599 
L 478.254646 206.794967 
L 479.18003 204.194878 
L 480.105414 202.528662 
L 481.030799 203.633109 
L 481.956183 203.600123 
L 484.732336 203.668884 
L 485.657721 204.856488 
L 487.508489 201.724986 
L 488.433874 200.720924 
L 491.210027 203.843176 
L 492.135411 201.163944 
L 493.060795 202.029473 
L 493.98618 200.016198 
L 494.911564 199.659548 
L 498.613102 200.933448 
L 499.538486 199.198419 
L 500.46387 198.54899 
L 501.389255 201.010789 
L 504.165408 202.613014 
L 505.090792 200.908657 
L 506.016176 202.029806 
L 506.941561 200.960608 
L 507.866945 201.742989 
L 510.643098 201.035351 
L 511.568483 199.676677 
L 512.493867 201.312553 
L 513.419251 203.836186 
L 514.344636 205.225235 
L 517.120789 205.438686 
L 518.046173 203.588697 
L 518.971557 204.082765 
L 519.896942 206.598472 
L 520.822326 206.848101 
L 523.598479 204.888181 
L 525.449248 209.197518 
L 526.374632 210.545975 
L 527.300017 209.820999 
L 530.07617 209.472392 
L 531.001554 209.823993 
L 531.926939 207.913328 
L 532.852323 209.827369 
L 536.55386 208.479754 
L 537.479245 210.408489 
L 538.404629 213.532043 
L 540.255398 216.574694 
L 543.031551 213.760474 
L 543.956935 212.615708 
L 544.88232 213.677133 
L 545.807704 213.605028 
L 546.733088 212.919402 
L 549.509241 214.534648 
L 550.434626 214.357896 
L 553.210779 215.013868 
L 555.986932 216.238613 
L 556.912316 217.078271 
L 557.837701 216.956409 
L 558.763085 216.054362 
L 559.688469 217.022063 
L 562.464622 219.094069 
L 563.390007 220.020123 
L 564.315391 222.20892 
L 565.240775 223.429375 
L 566.16616 224.155254 
L 570.793082 225.320344 
L 571.718466 228.624916 
L 572.64385 229.638276 
L 575.420003 230.774102 
L 576.345388 229.714775 
L 577.270772 228.387824 
L 578.196156 230.932125 
L 579.121541 232.331727 
L 581.897694 231.2842 
L 582.823078 229.870596 
L 585.599231 232.831705 
L 588.375384 233.527093 
L 589.300769 232.520935 
L 590.226153 232.673124 
L 591.151537 232.1468 
L 592.076922 231.009516 
L 594.853075 231.203693 
L 595.778459 232.105511 
L 596.703844 232.028672 
L 597.629228 232.387006 
L 598.554612 232.424729 
L 601.330765 232.071324 
L 602.25615 231.714016 
L 603.181534 229.872158 
L 604.106918 229.961649 
L 605.032303 229.262036 
L 607.808456 228.321743 
L 608.73384 226.115436 
L 609.659225 227.173772 
L 610.584609 229.189531 
L 611.509993 228.157715 
L 614.286146 229.618967 
L 615.211531 229.531061 
L 616.136915 229.304572 
L 617.062299 229.54182 
L 617.987684 227.826587 
L 620.763837 228.26419 
L 621.689221 228.889035 
L 622.614606 228.852506 
L 623.53999 230.504364 
L 624.465374 230.751538 
L 627.241527 233.162048 
L 628.166912 235.132316 
L 629.092296 236.253327 
L 630.01768 236.593279 
L 630.943065 236.334323 
L 633.719218 235.088047 
L 634.644602 235.69944 
L 635.569987 234.468778 
L 636.495371 233.456917 
L 637.420755 233.512297 
L 640.196908 233.887888 
L 641.122293 234.38547 
L 642.047677 233.533704 
L 642.973061 235.391455 
L 643.898446 234.093755 
L 646.674599 234.798489 
L 647.599983 234.70752 
L 648.525368 235.529344 
L 649.450752 234.635893 
L 650.376136 234.174169 
L 653.152289 234.211508 
L 654.077674 234.081193 
L 655.003058 233.288708 
L 655.928443 232.258963 
L 656.853827 232.675696 
L 659.62998 235.085934 
L 660.555364 235.133114 
L 661.480749 236.020522 
L 662.406133 236.461601 
L 663.331517 237.505338 
L 666.10767 237.735237 
L 667.033055 237.518534 
L 667.958439 236.860106 
L 668.883824 236.34607 
L 669.809208 238.379954 
L 672.585361 237.840452 
L 674.43613 240.726491 
L 675.361514 241.826027 
L 676.286898 242.137965 
L 679.063051 241.507747 
L 679.988436 242.681165 
L 680.91382 243.411297 
L 681.839205 244.39572 
L 682.764589 243.686184 
L 685.540742 243.749195 
L 686.466126 243.474891 
L 687.391511 242.237085 
L 688.316895 240.681918 
L 689.242279 240.374226 
L 692.943817 240.319999 
L 693.869201 239.633387 
L 694.794586 241.306654 
L 695.71997 240.340122 
L 698.496123 241.544162 
L 699.421507 243.479824 
L 700.346892 242.203054 
L 701.272276 241.790099 
L 702.19766 243.278921 
L 704.973814 245.305354 
L 705.899198 244.437642 
L 706.824582 245.877484 
L 707.749967 245.526289 
L 708.675351 246.997622 
L 711.451504 246.178949 
L 712.376888 246.632732 
L 713.302273 246.951838 
L 714.227657 245.836935 
L 715.153041 245.442598 
L 717.929195 245.072891 
L 718.854579 245.241877 
L 719.779963 245.903138 
L 720.705348 245.80922 
L 721.630732 247.576445 
L 724.406885 248.730432 
L 725.332269 249.532843 
L 726.257654 249.946265 
L 727.183038 250.539069 
L 728.108422 250.353849 
L 730.884576 250.786508 
L 731.80996 251.366256 
L 732.735344 251.23201 
L 734.586113 249.896367 
L 737.362266 250.355011 
L 738.28765 249.714228 
L 739.213035 247.890259 
L 740.138419 247.724849 
L 741.063803 246.981357 
L 743.839957 246.808799 
L 745.690725 245.601494 
L 746.61611 245.117789 
L 747.541494 246.009723 
L 750.317647 245.938137 
L 751.243031 247.156806 
L 752.168416 246.467027 
L 753.0938 247.674732 
L 754.019184 248.171668 
L 756.795338 248.481234 
L 757.720722 248.151338 
L 758.646106 248.150719 
L 759.571491 248.280692 
L 760.496875 247.348034 
L 763.273028 246.882993 
L 764.198412 247.378261 
L 765.123797 247.677361 
L 766.049181 247.102568 
L 766.974566 246.3671 
L 769.750719 246.671128 
L 770.676103 247.556054 
L 771.601487 246.880446 
L 772.526872 245.510384 
L 773.452256 244.596712 
L 776.228409 243.352602 
L 777.153793 243.352958 
L 778.079178 242.948117 
L 779.004562 243.836821 
L 779.929947 243.933033 
L 782.7061 243.332144 
L 783.631484 242.358084 
L 784.556868 242.350164 
L 785.482253 242.779058 
L 786.407637 242.151599 
L 789.18379 242.107612 
L 790.109174 240.670467 
L 791.034559 241.457317 
L 791.959943 241.887248 
L 792.885328 242.012893 
L 795.661481 243.113306 
L 797.512249 245.723433 
L 798.437634 245.538378 
L 799.363018 245.774087 
L 802.139171 244.607409 
L 803.064555 243.848682 
L 803.98994 243.937893 
L 804.915324 243.217663 
L 805.840709 243.417809 
L 808.616862 241.407236 
L 809.542246 241.753798 
L 810.46763 242.365037 
L 811.393015 244.059722 
L 812.318399 245.08142 
L 815.094552 245.614043 
L 816.019936 245.917945 
L 816.945321 245.157567 
L 817.870705 246.655821 
L 818.79609 247.779553 
L 821.572243 247.169333 
L 822.497627 248.162401 
L 823.423011 247.173452 
L 824.348396 247.12353 
L 825.27378 248.270297 
L 828.049933 248.791232 
L 828.975318 249.470575 
L 829.900702 249.950181 
L 830.826086 249.005864 
L 831.751471 249.95777 
L 834.527624 250.750721 
L 835.453008 249.586049 
L 836.378392 249.46429 
L 837.303777 249.223987 
L 838.229161 249.776638 
L 841.930699 249.920973 
L 843.781467 250.220539 
L 844.706852 250.293416 
L 847.483005 250.220724 
L 848.408389 251.196842 
L 849.333773 250.753498 
L 850.259158 250.791255 
L 851.184542 250.465839 
L 853.960695 252.276417 
L 854.88608 252.297122 
L 855.811464 252.722631 
L 856.736848 252.767669 
L 857.662233 252.018661 
L 861.36377 252.682975 
L 862.289154 253.35464 
L 863.214539 253.124141 
L 864.139923 252.088238 
L 867.841461 252.234034 
L 868.766845 250.993145 
L 869.692229 250.964121 
L 870.617614 251.785906 
L 873.393767 249.965778 
L 874.319151 250.994954 
L 875.244535 250.97523 
L 876.16992 250.739228 
L 877.095304 251.317437 
L 879.871457 251.682987 
L 880.796842 251.297315 
L 881.722226 251.951638 
L 882.64761 251.303982 
L 883.572995 251.797626 
L 886.349148 252.454134 
L 887.274532 252.46477 
L 888.199916 251.491756 
L 889.125301 251.327527 
L 890.050685 252.007281 
L 892.826838 251.760852 
L 893.752223 251.220889 
L 894.677607 249.612618 
L 896.528376 251.079326 
L 899.304529 251.411502 
L 900.229913 252.902649 
L 901.155297 252.750556 
L 902.080682 252.289607 
L 905.782219 252.947388 
L 906.707604 252.881321 
L 907.632988 253.048862 
L 908.558372 253.100174 
L 909.483757 253.512015 
L 912.25991 253.946764 
L 913.185294 255.759596 
L 915.961447 256.948171 
L 918.7376 257.844081 
L 919.662985 257.666545 
L 921.513753 257.555546 
L 922.439138 257.285635 
L 925.215291 257.809185 
L 926.140675 257.49253 
L 927.066059 258.391811 
L 927.991444 258.39249 
L 928.916828 259.343065 
L 931.692981 258.982106 
L 932.618366 258.404274 
L 934.469134 256.935064 
L 935.394519 256.807727 
L 938.170672 257.399109 
L 939.096056 256.960648 
L 940.021441 257.550415 
L 940.946825 257.261195 
L 941.872209 257.854178 
L 945.573747 257.887238 
L 946.499131 258.004038 
L 947.424515 257.012816 
L 948.3499 255.231074 
L 951.126053 254.902206 
L 952.051437 255.138629 
L 952.976822 254.643154 
L 953.902206 256.200727 
L 957.603743 257.712987 
L 958.529128 258.476768 
L 959.454512 258.224079 
L 960.379896 257.827879 
L 961.305281 257.156134 
L 964.081434 256.663635 
L 965.006818 257.447403 
L 965.932203 257.230265 
L 966.857587 257.595129 
L 967.782971 258.918023 
L 970.559124 259.68606 
L 972.409893 258.091174 
L 973.335277 258.796163 
L 974.260662 259.334703 
L 977.036815 260.537753 
L 978.887584 261.693161 
L 979.812968 260.849151 
L 980.738352 260.35504 
L 984.43989 261.189124 
L 985.365274 260.486826 
L 986.290658 260.665718 
L 987.216043 259.613662 
L 989.992196 258.94366 
L 990.91758 259.360924 
L 991.842965 259.601514 
L 992.768349 259.038155 
L 996.469886 258.920198 
L 997.395271 259.179385 
L 998.320655 258.843507 
L 999.246039 259.508143 
L 1000.171424 259.291414 
L 1002.947577 258.41536 
L 1003.872961 258.383848 
L 1004.798346 257.62285 
L 1005.72373 256.232185 
L 1006.649114 256.390507 
L 1009.425267 255.792641 
L 1010.350652 255.978252 
L 1011.276036 255.082077 
L 1012.20142 254.964953 
L 1013.126805 253.915982 
L 1015.902958 254.24011 
L 1016.828342 253.942134 
L 1017.753727 253.99836 
L 1018.679111 253.623678 
L 1019.604495 253.071143 
L 1022.380648 253.640624 
L 1023.306033 253.647143 
L 1024.231417 253.886468 
L 1026.082186 254.93288 
L 1029.783723 254.245378 
L 1030.709108 255.194179 
L 1031.634492 253.931326 
L 1032.559876 254.476419 
L 1035.336029 254.269027 
L 1036.261414 255.24039 
L 1037.186798 254.875198 
L 1039.037567 256.678826 
L 1041.81372 257.263627 
L 1042.739104 258.305078 
L 1043.664489 256.74368 
L 1044.589873 256.114948 
L 1045.515257 256.607625 
L 1048.29141 256.651281 
L 1049.216795 257.630337 
L 1050.142179 257.842551 
L 1051.067564 257.751801 
L 1051.992948 257.288773 
L 1054.769101 258.365244 
L 1055.694485 259.363602 
L 1056.61987 258.998551 
L 1057.545254 259.586985 
L 1058.470638 260.600658 
L 1062.172176 259.854034 
L 1063.09756 260.168531 
L 1064.022945 260.296119 
L 1064.948329 259.946687 
L 1068.649866 260.010341 
L 1069.575251 259.647327 
L 1070.500635 258.66449 
L 1071.426019 259.213547 
L 1074.202172 258.926567 
L 1075.127557 258.976853 
L 1076.978326 260.972936 
L 1077.90371 260.908093 
L 1080.679863 261.584489 
L 1081.605247 260.607047 
L 1083.456016 262.303636 
L 1084.3814 262.106795 
L 1088.082938 261.827311 
L 1089.008322 262.221534 
L 1089.933707 261.951409 
L 1090.859091 261.134393 
L 1090.859091 261.134393 
" style="fill:none;stroke:#ff7f0e;stroke-linecap:square;stroke-width:1.5;"/>
   </g>
   <g id="line2d_25">
    <path clip-path="url(#p8d515960c6)" d="M 84.040909 222.136824 
L 84.966293 220.780234 
L 86.817062 221.516458 
L 89.593215 221.446086 
L 90.5186 220.61431 
L 91.443984 222.543219 
L 92.369368 224.755508 
L 93.294753 223.918758 
L 96.070906 222.449052 
L 96.99629 220.262717 
L 97.921674 220.600168 
L 98.847059 217.491252 
L 99.772443 216.686948 
L 102.548596 215.846736 
L 103.473981 213.521897 
L 104.399365 217.438048 
L 105.324749 215.926029 
L 106.250134 217.021785 
L 109.026287 199.926444 
L 109.951671 199.405562 
L 110.877055 202.895963 
L 111.80244 202.637223 
L 112.727824 197.104572 
L 115.503977 195.761428 
L 116.429362 193.934555 
L 117.354746 193.23677 
L 118.28013 185.85373 
L 119.205515 187.945234 
L 121.981668 192.595502 
L 122.907052 190.096557 
L 123.832436 190.234101 
L 124.757821 183.770262 
L 125.683205 183.552334 
L 128.459358 179.809047 
L 129.384743 175.987927 
L 130.310127 171.399029 
L 131.235511 170.794817 
L 134.937049 170.362617 
L 135.862433 165.246627 
L 137.713202 179.583915 
L 138.638586 183.108533 
L 142.340124 174.046446 
L 143.265508 174.88825 
L 144.190892 176.80459 
L 145.116277 172.424133 
L 147.89243 169.143293 
L 148.817814 169.13172 
L 149.743199 173.233037 
L 150.668583 176.360533 
L 151.593967 171.879868 
L 154.37012 175.717538 
L 155.295505 171.687856 
L 156.220889 163.632544 
L 157.146273 166.803954 
L 158.071658 165.14621 
L 160.847811 159.318251 
L 161.773195 158.387513 
L 162.69858 158.572079 
L 163.623964 157.457243 
L 164.549348 158.539282 
L 167.325501 159.233545 
L 168.250886 159.130524 
L 169.17627 162.247249 
L 170.101654 161.752208 
L 171.027039 158.851548 
L 173.803192 151.807591 
L 174.728576 149.030028 
L 176.579345 141.753744 
L 177.504729 141.819479 
L 181.206267 148.680117 
L 183.98242 144.571987 
L 186.758573 145.063982 
L 187.683957 148.344735 
L 188.609342 144.652055 
L 189.534726 144.920613 
L 190.46011 150.48069 
L 193.236263 149.731643 
L 194.161648 119.161632 
L 195.087032 110.140434 
L 196.012416 105.488457 
L 196.937801 97.489676 
L 199.713954 107.264838 
L 200.639338 101.767102 
L 201.564723 110.303963 
L 202.490107 107.271332 
L 203.415491 102.077594 
L 206.191644 100.284126 
L 207.117029 92.778381 
L 208.042413 96.322408 
L 208.967797 89.725127 
L 209.893182 99.326022 
L 212.669335 101.343721 
L 213.594719 100.085031 
L 214.520104 104.34499 
L 215.445488 106.44482 
L 216.370872 104.358691 
L 219.147025 97.71283 
L 220.07241 99.874785 
L 220.997794 100.781125 
L 221.923178 128.552854 
L 222.848563 127.709966 
L 225.624716 124.640801 
L 226.5501 118.698158 
L 227.475485 114.541956 
L 228.400869 112.670276 
L 229.326253 117.794885 
L 232.102406 116.93947 
L 233.027791 112.357309 
L 233.953175 122.5474 
L 234.878559 123.598813 
L 235.803944 119.060148 
L 238.580097 112.782703 
L 239.505481 116.180749 
L 242.281634 108.233406 
L 245.057787 109.96767 
L 245.983172 112.710133 
L 246.908556 111.745947 
L 247.833941 111.423164 
L 248.759325 111.438729 
L 251.535478 100.794196 
L 252.460862 96.537649 
L 253.386247 98.608905 
L 255.237015 95.291304 
L 258.013168 107.084376 
L 258.938553 109.411162 
L 259.863937 121.922338 
L 260.789322 120.643343 
L 261.714706 123.817653 
L 264.490859 123.81682 
L 265.416243 112.767412 
L 266.341628 105.26816 
L 267.267012 103.846801 
L 268.192396 90.836442 
L 270.968549 83.302864 
L 271.893934 82.548926 
L 272.819318 72.123737 
L 273.744703 83.850987 
L 274.670087 90.333895 
L 277.44624 94.743141 
L 278.371624 102.431302 
L 279.297009 140.278022 
L 280.222393 136.950055 
L 281.147777 140.649061 
L 283.92393 142.914512 
L 284.849315 137.487109 
L 285.774699 143.919378 
L 286.700084 144.821572 
L 287.625468 139.111918 
L 290.401621 138.226693 
L 291.327005 141.66498 
L 293.177774 137.665288 
L 294.103158 138.742962 
L 296.879311 137.164772 
L 297.804696 135.486944 
L 298.73008 135.912732 
L 299.655465 143.949857 
L 300.580849 149.559106 
L 304.282386 144.072626 
L 305.207771 142.278414 
L 306.133155 138.243633 
L 307.058539 129.389153 
L 309.834693 136.247044 
L 310.760077 131.199616 
L 311.685461 140.886876 
L 312.610846 135.417909 
L 313.53623 132.579157 
L 317.237767 129.773435 
L 318.163152 128.465343 
L 319.088536 124.288693 
L 320.01392 136.33499 
L 322.790074 141.944512 
L 323.715458 139.207207 
L 324.640842 139.977476 
L 325.566227 145.497089 
L 326.491611 145.765434 
L 329.267764 146.235725 
L 330.193148 145.276224 
L 331.118533 143.703105 
L 332.043917 144.158897 
L 332.969301 142.041419 
L 336.670839 119.947432 
L 337.596223 117.122012 
L 338.521608 111.921985 
L 339.446992 125.271993 
L 342.223145 119.995162 
L 343.148529 115.510889 
L 344.073914 102.277933 
L 344.999298 103.299525 
L 345.924682 105.518951 
L 348.700836 110.100831 
L 349.62622 120.394668 
L 350.551604 115.531974 
L 351.476989 120.698582 
L 352.402373 117.3634 
L 356.10391 120.293887 
L 357.029295 120.276693 
L 357.954679 112.378968 
L 358.880064 113.232573 
L 361.656217 112.325778 
L 362.581601 115.771683 
L 363.506985 164.677943 
L 364.43237 166.017593 
L 365.357754 164.429031 
L 368.133907 169.44673 
L 369.059291 170.464091 
L 370.91006 177.357342 
L 371.835445 182.75838 
L 374.611598 183.249398 
L 375.536982 177.329413 
L 377.387751 180.288576 
L 378.313135 180.38696 
L 381.089288 176.706693 
L 382.014672 178.327394 
L 382.940057 182.252125 
L 383.865441 183.216706 
L 384.790826 185.576002 
L 387.566979 193.354554 
L 388.492363 193.002797 
L 389.417747 189.487694 
L 390.343132 191.80098 
L 391.268516 190.597531 
L 394.044669 168.472012 
L 394.970053 171.816368 
L 395.895438 170.392936 
L 396.820822 171.605385 
L 397.746207 173.712482 
L 400.52236 170.08594 
L 401.447744 169.827118 
L 402.373128 166.83484 
L 403.298513 168.560087 
L 404.223897 176.304292 
L 407.00005 175.713821 
L 407.925434 176.191888 
L 408.850819 174.114383 
L 409.776203 169.020934 
L 410.701588 164.941373 
L 413.477741 161.521775 
L 414.403125 160.967007 
L 415.328509 158.602543 
L 416.253894 161.917227 
L 417.179278 169.227828 
L 419.955431 165.867624 
L 420.880816 166.339827 
L 421.8062 164.524684 
L 422.731584 170.292984 
L 423.656969 171.088462 
L 426.433122 167.872216 
L 427.358506 167.825815 
L 428.28389 164.093057 
L 429.209275 171.458184 
L 430.134659 176.410275 
L 432.910812 181.460413 
L 433.836197 181.762005 
L 434.761581 175.684618 
L 435.686965 173.555957 
L 436.61235 170.953423 
L 439.388503 173.621628 
L 441.239271 161.688486 
L 442.164656 165.268706 
L 443.09004 167.636735 
L 445.866193 166.68818 
L 446.791578 178.817178 
L 447.716962 173.741008 
L 448.642346 169.588385 
L 449.567731 170.470819 
L 452.343884 174.566175 
L 453.269268 174.415115 
L 454.194652 171.495197 
L 455.120037 170.778227 
L 456.045421 180.057342 
L 458.821574 180.709665 
L 459.746959 180.175167 
L 460.672343 186.524001 
L 461.597727 184.866362 
L 462.523112 179.66462 
L 465.299265 178.264032 
L 466.224649 177.200932 
L 467.150033 179.518617 
L 468.075418 182.793429 
L 469.000802 182.731038 
L 471.776955 186.018091 
L 472.70234 184.314151 
L 473.627724 179.079721 
L 474.553108 180.145733 
L 475.478493 176.375545 
L 478.254646 172.854124 
L 479.18003 172.441398 
L 480.105414 169.937663 
L 481.030799 164.719338 
L 481.956183 161.907222 
L 484.732336 162.044759 
L 485.657721 162.721493 
L 486.583105 164.101929 
L 487.508489 172.747726 
L 488.433874 175.304565 
L 491.210027 177.600375 
L 492.135411 178.796344 
L 493.060795 176.733176 
L 493.98618 175.430205 
L 494.911564 174.866117 
L 497.687717 180.68192 
L 498.613102 186.186532 
L 499.538486 187.659334 
L 500.46387 186.828428 
L 501.389255 190.007931 
L 504.165408 183.075521 
L 505.090792 182.684747 
L 506.016176 182.600843 
L 506.941561 176.107656 
L 507.866945 177.141175 
L 510.643098 170.025687 
L 511.568483 169.248238 
L 512.493867 167.170752 
L 513.419251 170.519485 
L 514.344636 177.040443 
L 517.120789 173.786386 
L 518.046173 175.580174 
L 518.971557 173.551873 
L 519.896942 173.941178 
L 523.598479 174.570121 
L 524.523864 176.710597 
L 525.449248 176.975405 
L 527.300017 172.37962 
L 530.07617 174.064649 
L 531.001554 174.764626 
L 531.926939 160.520792 
L 532.852323 154.576568 
L 533.777707 156.381955 
L 536.55386 159.13483 
L 537.479245 156.978697 
L 538.404629 156.314848 
L 539.330013 156.228716 
L 540.255398 149.649218 
L 543.031551 146.155531 
L 543.956935 148.811218 
L 544.88232 148.737503 
L 545.807704 152.428158 
L 546.733088 156.816863 
L 549.509241 149.675281 
L 550.434626 151.553988 
L 551.36001 143.203933 
L 552.285394 141.179651 
L 553.210779 143.703564 
L 555.986932 137.007917 
L 556.912316 138.203421 
L 557.837701 135.390976 
L 558.763085 144.510264 
L 559.688469 176.652221 
L 562.464622 175.512116 
L 563.390007 174.128634 
L 564.315391 174.380528 
L 565.240775 178.182904 
L 566.16616 177.293976 
L 568.942313 177.766356 
L 569.867697 175.716509 
L 570.793082 176.337341 
L 572.64385 172.097934 
L 575.420003 167.02863 
L 576.345388 164.598459 
L 577.270772 169.860491 
L 578.196156 170.427622 
L 579.121541 167.762183 
L 581.897694 160.509522 
L 582.823078 158.834064 
L 584.673847 166.033912 
L 585.599231 167.787918 
L 588.375384 132.154144 
L 589.300769 129.788631 
L 590.226153 126.235751 
L 591.151537 130.407668 
L 592.076922 133.439809 
L 594.853075 127.715564 
L 595.778459 127.624042 
L 596.703844 120.835239 
L 597.629228 125.406535 
L 598.554612 124.841216 
L 602.25615 132.462983 
L 603.181534 141.884562 
L 604.106918 139.473633 
L 605.032303 140.752752 
L 607.808456 136.937022 
L 608.73384 133.107676 
L 609.659225 128.491358 
L 610.584609 135.089893 
L 611.509993 140.282602 
L 614.286146 131.460596 
L 615.211531 130.242359 
L 616.136915 126.957677 
L 617.062299 164.523468 
L 617.987684 161.536527 
L 620.763837 165.606972 
L 621.689221 160.556085 
L 622.614606 162.800971 
L 624.465374 170.333316 
L 628.166912 173.429417 
L 629.092296 176.808242 
L 630.01768 180.675212 
L 630.943065 181.312127 
L 633.719218 176.637107 
L 634.644602 171.504596 
L 635.569987 172.420016 
L 636.495371 172.382405 
L 637.420755 166.987246 
L 640.196908 165.651817 
L 641.122293 170.234977 
L 642.047677 168.833128 
L 642.973061 170.614356 
L 643.898446 170.43671 
L 646.674599 156.323868 
L 647.599983 156.772196 
L 648.525368 148.237152 
L 649.450752 145.892845 
L 650.376136 140.385307 
L 653.152289 148.8069 
L 654.077674 143.362301 
L 655.003058 143.724551 
L 655.928443 152.470242 
L 656.853827 148.688473 
L 659.62998 147.637525 
L 660.555364 143.415348 
L 661.480749 142.062403 
L 662.406133 150.79676 
L 663.331517 145.088273 
L 666.10767 144.991881 
L 667.033055 146.024723 
L 667.958439 149.508795 
L 668.883824 146.564754 
L 669.809208 146.119937 
L 672.585361 151.531295 
L 673.510745 168.238608 
L 674.43613 168.282291 
L 675.361514 163.115386 
L 676.286898 165.721705 
L 679.063051 161.610352 
L 679.988436 158.993377 
L 680.91382 160.430396 
L 681.839205 156.057409 
L 682.764589 159.77916 
L 685.540742 156.716898 
L 686.466126 159.439326 
L 687.391511 161.445068 
L 688.316895 160.850413 
L 689.242279 157.611669 
L 692.018432 160.681472 
L 692.943817 161.310162 
L 694.794586 165.417087 
L 695.71997 169.2345 
L 698.496123 169.304378 
L 699.421507 171.702343 
L 700.346892 176.929482 
L 701.272276 169.118603 
L 702.19766 162.772401 
L 704.973814 159.341799 
L 705.899198 159.172702 
L 706.824582 154.427511 
L 707.749967 157.774683 
L 708.675351 152.437762 
L 711.451504 152.872415 
L 712.376888 151.673446 
L 713.302273 152.984749 
L 714.227657 146.781533 
L 715.153041 146.728894 
L 717.929195 151.961367 
L 718.854579 149.31354 
L 719.779963 149.648162 
L 720.705348 146.69915 
L 721.630732 144.170788 
L 724.406885 141.810485 
L 725.332269 144.660769 
L 726.257654 142.024034 
L 727.183038 144.491778 
L 728.108422 152.595485 
L 730.884576 112.778891 
L 731.80996 114.309909 
L 732.735344 110.796974 
L 733.660729 110.401851 
L 734.586113 104.836247 
L 737.362266 108.269167 
L 738.28765 101.736018 
L 739.213035 102.206328 
L 740.138419 102.282922 
L 741.063803 105.865462 
L 743.839957 109.147332 
L 744.765341 107.78832 
L 745.690725 117.258794 
L 747.541494 123.563621 
L 750.317647 113.726369 
L 751.243031 114.491856 
L 752.168416 118.099418 
L 753.0938 113.473701 
L 754.019184 105.897819 
L 756.795338 102.583812 
L 757.720722 95.915354 
L 758.646106 112.118731 
L 759.571491 113.358923 
L 760.496875 109.192023 
L 763.273028 105.50525 
L 764.198412 98.677878 
L 765.123797 87.847115 
L 766.049181 91.856895 
L 766.974566 94.986914 
L 769.750719 99.774728 
L 770.676103 104.368948 
L 771.601487 95.966608 
L 772.526872 102.355684 
L 773.452256 102.605325 
L 776.228409 104.062853 
L 777.153793 101.286232 
L 778.079178 101.847262 
L 779.004562 105.486849 
L 779.929947 112.737214 
L 782.7061 112.581734 
L 783.631484 117.941798 
L 784.556868 118.568074 
L 785.482253 135.37054 
L 786.407637 140.494576 
L 789.18379 149.013578 
L 790.109174 140.493661 
L 791.034559 144.909926 
L 791.959943 141.323596 
L 792.885328 141.758698 
L 795.661481 135.684926 
L 796.586865 137.300729 
L 797.512249 137.38634 
L 798.437634 127.072665 
L 799.363018 128.672234 
L 802.139171 127.58914 
L 803.064555 126.43276 
L 803.98994 116.25598 
L 804.915324 112.453597 
L 805.840709 110.294364 
L 808.616862 108.062732 
L 809.542246 113.741062 
L 810.46763 118.04128 
L 811.393015 119.523111 
L 812.318399 126.785347 
L 815.094552 129.210229 
L 816.019936 124.065369 
L 816.945321 117.245382 
L 817.870705 118.703167 
L 818.79609 122.769572 
L 821.572243 124.976571 
L 822.497627 120.313939 
L 823.423011 120.20588 
L 824.348396 127.83779 
L 825.27378 129.101005 
L 828.049933 122.788825 
L 828.975318 118.26738 
L 829.900702 119.075709 
L 830.826086 118.8761 
L 831.751471 119.192608 
L 834.527624 110.258493 
L 835.453008 110.915626 
L 836.378392 109.415224 
L 837.303777 109.632036 
L 838.229161 118.030531 
L 841.005314 120.524539 
L 841.930699 94.851773 
L 842.856083 100.60245 
L 843.781467 97.905957 
L 844.706852 106.558864 
L 847.483005 97.675409 
L 848.408389 96.959726 
L 849.333773 95.073094 
L 850.259158 91.098209 
L 851.184542 99.389288 
L 853.960695 100.676471 
L 854.88608 103.122318 
L 855.811464 107.181316 
L 856.736848 103.475722 
L 857.662233 96.560291 
L 860.438386 97.788232 
L 861.36377 91.366823 
L 862.289154 82.598499 
L 863.214539 77.468522 
L 864.139923 71.684921 
L 866.916076 68.294148 
L 867.841461 62.335544 
L 868.766845 67.233652 
L 869.692229 63.087608 
L 870.617614 78.407528 
L 873.393767 76.987887 
L 874.319151 77.596731 
L 875.244535 82.418226 
L 876.16992 88.18702 
L 877.095304 90.208724 
L 880.796842 91.462235 
L 881.722226 93.107625 
L 882.64761 88.726735 
L 883.572995 93.722555 
L 886.349148 88.893639 
L 887.274532 77.993399 
L 888.199916 72.194517 
L 889.125301 71.840394 
L 890.050685 75.387254 
L 892.826838 69.921567 
L 893.752223 67.755793 
L 894.677607 74.371143 
L 895.602991 79.90497 
L 896.528376 75.300305 
L 899.304529 138.960043 
L 900.229913 136.040693 
L 901.155297 138.255419 
L 902.080682 136.928378 
L 903.006066 136.202674 
L 905.782219 137.250453 
L 906.707604 139.371268 
L 908.558372 147.295405 
L 909.483757 149.140933 
L 912.25991 141.623527 
L 915.036063 154.294117 
L 915.961447 155.488317 
L 918.7376 145.007636 
L 919.662985 147.02114 
L 920.588369 142.349814 
L 921.513753 145.521855 
L 922.439138 151.129995 
L 925.215291 155.482635 
L 926.140675 153.599969 
L 927.066059 129.425865 
L 927.991444 141.53574 
L 928.916828 135.141121 
L 931.692981 134.981147 
L 932.618366 137.980289 
L 933.54375 142.514481 
L 934.469134 147.795534 
L 935.394519 142.114956 
L 938.170672 138.589039 
L 939.096056 133.506286 
L 940.021441 136.470893 
L 940.946825 130.497458 
L 941.872209 134.509428 
L 944.648362 141.451078 
L 945.573747 142.486969 
L 946.499131 138.769755 
L 947.424515 142.000797 
L 948.3499 143.861734 
L 951.126053 138.88894 
L 952.051437 143.752709 
L 952.976822 142.137687 
L 953.902206 139.992552 
L 954.82759 145.055884 
L 957.603743 125.875828 
L 958.529128 123.087136 
L 959.454512 126.228846 
L 960.379896 114.117643 
L 961.305281 110.39981 
L 964.081434 116.08724 
L 965.006818 111.978186 
L 965.932203 104.481053 
L 966.857587 92.892683 
L 967.782971 96.113542 
L 970.559124 89.245483 
L 971.484509 87.621452 
L 972.409893 87.454928 
L 973.335277 85.659085 
L 974.260662 84.483175 
L 977.036815 79.875347 
L 977.962199 83.492351 
L 978.887584 86.273751 
L 979.812968 97.005697 
L 980.738352 103.746015 
L 983.514505 140.901696 
L 984.43989 137.690465 
L 985.365274 138.313241 
L 986.290658 143.533522 
L 987.216043 139.997958 
L 990.91758 132.880841 
L 991.842965 135.841732 
L 992.768349 139.375834 
L 993.693733 136.610152 
L 996.469886 143.454179 
L 997.395271 141.133078 
L 998.320655 142.311371 
L 999.246039 150.206136 
L 1000.171424 154.282512 
L 1002.947577 157.491882 
L 1003.872961 158.071721 
L 1004.798346 164.672548 
L 1005.72373 162.950656 
L 1006.649114 169.465188 
L 1009.425267 168.079175 
L 1010.350652 174.075471 
L 1011.276036 173.101885 
L 1012.20142 159.468296 
L 1013.126805 161.197713 
L 1015.902958 159.55405 
L 1016.828342 163.050871 
L 1017.753727 163.696958 
L 1018.679111 160.824487 
L 1019.604495 163.009928 
L 1022.380648 161.51948 
L 1023.306033 159.01733 
L 1024.231417 156.062024 
L 1025.156801 155.345468 
L 1026.082186 164.442877 
L 1028.858339 160.172289 
L 1029.783723 161.147731 
L 1030.709108 159.425592 
L 1031.634492 157.321458 
L 1032.559876 162.465278 
L 1035.336029 159.204305 
L 1036.261414 153.216158 
L 1037.186798 160.97851 
L 1038.112182 161.930946 
L 1039.037567 167.223751 
L 1041.81372 195.230189 
L 1042.739104 193.274733 
L 1043.664489 196.283943 
L 1044.589873 196.919661 
L 1045.515257 200.55281 
L 1048.29141 201.147202 
L 1049.216795 204.779542 
L 1050.142179 208.950595 
L 1051.067564 207.271498 
L 1051.992948 206.271393 
L 1054.769101 207.189469 
L 1055.694485 207.929595 
L 1056.61987 209.042128 
L 1057.545254 205.263451 
L 1058.470638 206.884505 
L 1061.246791 206.359462 
L 1062.172176 209.369615 
L 1063.09756 210.29868 
L 1064.022945 208.035744 
L 1064.948329 209.260554 
L 1067.724482 209.783664 
L 1068.649866 161.801846 
L 1069.575251 161.76626 
L 1070.500635 162.090486 
L 1071.426019 162.765259 
L 1074.202172 167.368157 
L 1076.052941 163.130712 
L 1076.978326 162.292546 
L 1077.90371 160.499713 
L 1081.605247 151.520831 
L 1082.530632 153.572629 
L 1083.456016 153.910762 
L 1084.3814 152.885261 
L 1087.157553 154.436729 
L 1088.082938 150.392834 
L 1089.008322 155.410363 
L 1089.933707 155.248213 
L 1090.859091 150.140751 
L 1090.859091 150.140751 
" style="fill:none;stroke:#2ca02c;stroke-linecap:square;stroke-width:1.5;"/>
   </g>
   <g id="patch_3">
    <path d="M 33.7 273.56 
L 33.7 25.92 
" style="fill:none;stroke:#000000;stroke-linecap:square;stroke-linejoin:miter;stroke-width:0.8;"/>
   </g>
   <g id="patch_4">
    <path d="M 1141.2 273.56 
L 1141.2 25.92 
" style="fill:none;stroke:#000000;stroke-linecap:square;stroke-linejoin:miter;stroke-width:0.8;"/>
   </g>
   <g id="patch_5">
    <path d="M 33.7 273.56 
L 1141.2 273.56 
" style="fill:none;stroke:#000000;stroke-linecap:square;stroke-linejoin:miter;stroke-width:0.8;"/>
   </g>
   <g id="patch_6">
    <path d="M 33.7 25.92 
L 1141.2 25.92 
" style="fill:none;stroke:#000000;stroke-linecap:square;stroke-linejoin:miter;stroke-width:0.8;"/>
   </g>
   <g id="text_12">
    <!-- Net Value: (2010-02-01 ~ 2013-01-25) -->
    <g transform="translate(471.3425 19.92)scale(0.12 -0.12)">
     <defs>
      <path d="M 9.8125 72.90625 
L 23.09375 72.90625 
L 55.421875 11.921875 
L 55.421875 72.90625 
L 64.984375 72.90625 
L 64.984375 0 
L 51.703125 0 
L 19.390625 60.984375 
L 19.390625 0 
L 9.8125 0 
z
" id="DejaVuSans-78"/>
      <path d="M 56.203125 29.59375 
L 56.203125 25.203125 
L 14.890625 25.203125 
Q 15.484375 15.921875 20.484375 11.0625 
Q 25.484375 6.203125 34.421875 6.203125 
Q 39.59375 6.203125 44.453125 7.46875 
Q 49.3125 8.734375 54.109375 11.28125 
L 54.109375 2.78125 
Q 49.265625 0.734375 44.1875 -0.34375 
Q 39.109375 -1.421875 33.890625 -1.421875 
Q 20.796875 -1.421875 13.15625 6.1875 
Q 5.515625 13.8125 5.515625 26.8125 
Q 5.515625 40.234375 12.765625 48.109375 
Q 20.015625 56 32.328125 56 
Q 43.359375 56 49.78125 48.890625 
Q 56.203125 41.796875 56.203125 29.59375 
z
M 47.21875 32.234375 
Q 47.125 39.59375 43.09375 43.984375 
Q 39.0625 48.390625 32.421875 48.390625 
Q 24.90625 48.390625 20.390625 44.140625 
Q 15.875 39.890625 15.1875 32.171875 
z
" id="DejaVuSans-101"/>
      <path d="M 18.3125 70.21875 
L 18.3125 54.6875 
L 36.8125 54.6875 
L 36.8125 47.703125 
L 18.3125 47.703125 
L 18.3125 18.015625 
Q 18.3125 11.328125 20.140625 9.421875 
Q 21.96875 7.515625 27.59375 7.515625 
L 36.8125 7.515625 
L 36.8125 0 
L 27.59375 0 
Q 17.1875 0 13.234375 3.875 
Q 9.28125 7.765625 9.28125 18.015625 
L 9.28125 47.703125 
L 2.6875 47.703125 
L 2.6875 54.6875 
L 9.28125 54.6875 
L 9.28125 70.21875 
z
" id="DejaVuSans-116"/>
      <path id="DejaVuSans-32"/>
      <path d="M 28.609375 0 
L 0.78125 72.90625 
L 11.078125 72.90625 
L 34.1875 11.53125 
L 57.328125 72.90625 
L 67.578125 72.90625 
L 39.796875 0 
z
" id="DejaVuSans-86"/>
      <path d="M 34.28125 27.484375 
Q 23.390625 27.484375 19.1875 25 
Q 14.984375 22.515625 14.984375 16.5 
Q 14.984375 11.71875 18.140625 8.90625 
Q 21.296875 6.109375 26.703125 6.109375 
Q 34.1875 6.109375 38.703125 11.40625 
Q 43.21875 16.703125 43.21875 25.484375 
L 43.21875 27.484375 
z
M 52.203125 31.203125 
L 52.203125 0 
L 43.21875 0 
L 43.21875 8.296875 
Q 40.140625 3.328125 35.546875 0.953125 
Q 30.953125 -1.421875 24.3125 -1.421875 
Q 15.921875 -1.421875 10.953125 3.296875 
Q 6 8.015625 6 15.921875 
Q 6 25.140625 12.171875 29.828125 
Q 18.359375 34.515625 30.609375 34.515625 
L 43.21875 34.515625 
L 43.21875 35.40625 
Q 43.21875 41.609375 39.140625 45 
Q 35.0625 48.390625 27.6875 48.390625 
Q 23 48.390625 18.546875 47.265625 
Q 14.109375 46.140625 10.015625 43.890625 
L 10.015625 52.203125 
Q 14.9375 54.109375 19.578125 55.046875 
Q 24.21875 56 28.609375 56 
Q 40.484375 56 46.34375 49.84375 
Q 52.203125 43.703125 52.203125 31.203125 
z
" id="DejaVuSans-97"/>
      <path d="M 9.421875 75.984375 
L 18.40625 75.984375 
L 18.40625 0 
L 9.421875 0 
z
" id="DejaVuSans-108"/>
      <path d="M 8.5 21.578125 
L 8.5 54.6875 
L 17.484375 54.6875 
L 17.484375 21.921875 
Q 17.484375 14.15625 20.5 10.265625 
Q 23.53125 6.390625 29.59375 6.390625 
Q 36.859375 6.390625 41.078125 11.03125 
Q 45.3125 15.671875 45.3125 23.6875 
L 45.3125 54.6875 
L 54.296875 54.6875 
L 54.296875 0 
L 45.3125 0 
L 45.3125 8.40625 
Q 42.046875 3.421875 37.71875 1 
Q 33.40625 -1.421875 27.6875 -1.421875 
Q 18.265625 -1.421875 13.375 4.4375 
Q 8.5 10.296875 8.5 21.578125 
z
M 31.109375 56 
z
" id="DejaVuSans-117"/>
      <path d="M 11.71875 12.40625 
L 22.015625 12.40625 
L 22.015625 0 
L 11.71875 0 
z
M 11.71875 51.703125 
L 22.015625 51.703125 
L 22.015625 39.3125 
L 11.71875 39.3125 
z
" id="DejaVuSans-58"/>
      <path d="M 31 75.875 
Q 24.46875 64.65625 21.28125 53.65625 
Q 18.109375 42.671875 18.109375 31.390625 
Q 18.109375 20.125 21.3125 9.0625 
Q 24.515625 -2 31 -13.1875 
L 23.1875 -13.1875 
Q 15.875 -1.703125 12.234375 9.375 
Q 8.59375 20.453125 8.59375 31.390625 
Q 8.59375 42.28125 12.203125 53.3125 
Q 15.828125 64.359375 23.1875 75.875 
z
" id="DejaVuSans-40"/>
      <path d="M 4.890625 31.390625 
L 31.203125 31.390625 
L 31.203125 23.390625 
L 4.890625 23.390625 
z
" id="DejaVuSans-45"/>
      <path d="M 73.1875 39.890625 
L 73.1875 31.203125 
Q 68.0625 27.34375 63.6875 25.6875 
Q 59.328125 24.03125 54.59375 24.03125 
Q 49.21875 24.03125 42.09375 26.90625 
Q 41.546875 27.09375 41.3125 27.203125 
Q 40.96875 27.34375 40.234375 27.59375 
Q 32.671875 30.609375 28.078125 30.609375 
Q 23.78125 30.609375 19.578125 28.734375 
Q 15.375 26.859375 10.59375 22.796875 
L 10.59375 31.5 
Q 15.71875 35.359375 20.09375 37.03125 
Q 24.46875 38.71875 29.203125 38.71875 
Q 34.578125 38.71875 41.75 35.796875 
Q 42.234375 35.59375 42.484375 35.5 
Q 42.875 35.359375 43.5625 35.109375 
Q 51.125 32.078125 55.71875 32.078125 
Q 59.90625 32.078125 64.03125 33.9375 
Q 68.171875 35.796875 73.1875 39.890625 
z
" id="DejaVuSans-126"/>
      <path d="M 8.015625 75.875 
L 15.828125 75.875 
Q 23.140625 64.359375 26.78125 53.3125 
Q 30.421875 42.28125 30.421875 31.390625 
Q 30.421875 20.453125 26.78125 9.375 
Q 23.140625 -1.703125 15.828125 -13.1875 
L 8.015625 -13.1875 
Q 14.5 -2 17.703125 9.0625 
Q 20.90625 20.125 20.90625 31.390625 
Q 20.90625 42.671875 17.703125 53.65625 
Q 14.5 64.65625 8.015625 75.875 
z
" id="DejaVuSans-41"/>
     </defs>
     <use xlink:href="#DejaVuSans-78"/>
     <use x="74.804688" xlink:href="#DejaVuSans-101"/>
     <use x="136.328125" xlink:href="#DejaVuSans-116"/>
     <use x="175.537109" xlink:href="#DejaVuSans-32"/>
     <use x="207.324219" xlink:href="#DejaVuSans-86"/>
     <use x="267.982422" xlink:href="#DejaVuSans-97"/>
     <use x="329.261719" xlink:href="#DejaVuSans-108"/>
     <use x="357.044922" xlink:href="#DejaVuSans-117"/>
     <use x="420.423828" xlink:href="#DejaVuSans-101"/>
     <use x="481.947266" xlink:href="#DejaVuSans-58"/>
     <use x="515.638672" xlink:href="#DejaVuSans-32"/>
     <use x="547.425781" xlink:href="#DejaVuSans-40"/>
     <use x="586.439453" xlink:href="#DejaVuSans-50"/>
     <use x="650.0625" xlink:href="#DejaVuSans-48"/>
     <use x="713.685547" xlink:href="#DejaVuSans-49"/>
     <use x="777.308594" xlink:href="#DejaVuSans-48"/>
     <use x="840.931641" xlink:href="#DejaVuSans-45"/>
     <use x="877.015625" xlink:href="#DejaVuSans-48"/>
     <use x="940.638672" xlink:href="#DejaVuSans-50"/>
     <use x="1004.261719" xlink:href="#DejaVuSans-45"/>
     <use x="1040.345703" xlink:href="#DejaVuSans-48"/>
     <use x="1103.96875" xlink:href="#DejaVuSans-49"/>
     <use x="1167.591797" xlink:href="#DejaVuSans-32"/>
     <use x="1199.378906" xlink:href="#DejaVuSans-126"/>
     <use x="1283.167969" xlink:href="#DejaVuSans-32"/>
     <use x="1314.955078" xlink:href="#DejaVuSans-50"/>
     <use x="1378.578125" xlink:href="#DejaVuSans-48"/>
     <use x="1442.201172" xlink:href="#DejaVuSans-49"/>
     <use x="1505.824219" xlink:href="#DejaVuSans-51"/>
     <use x="1569.447266" xlink:href="#DejaVuSans-45"/>
     <use x="1605.53125" xlink:href="#DejaVuSans-48"/>
     <use x="1669.154297" xlink:href="#DejaVuSans-49"/>
     <use x="1732.777344" xlink:href="#DejaVuSans-45"/>
     <use x="1768.861328" xlink:href="#DejaVuSans-50"/>
     <use x="1832.484375" xlink:href="#DejaVuSans-53"/>
     <use x="1896.107422" xlink:href="#DejaVuSans-41"/>
    </g>
   </g>
   <g id="legend_1">
    <g id="patch_7">
     <path d="M 40.7 77.954375 
L 129.145312 77.954375 
Q 131.145312 77.954375 131.145312 75.954375 
L 131.145312 32.92 
Q 131.145312 30.92 129.145312 30.92 
L 40.7 30.92 
Q 38.7 30.92 38.7 32.92 
L 38.7 75.954375 
Q 38.7 77.954375 40.7 77.954375 
z
" style="fill:#ffffff;opacity:0.8;stroke:#cccccc;stroke-linejoin:miter;"/>
    </g>
    <g id="line2d_26">
     <path d="M 42.7 39.018437 
L 62.7 39.018437 
" style="fill:none;stroke:#1f77b4;stroke-linecap:square;stroke-width:1.5;"/>
    </g>
    <g id="line2d_27"/>
    <g id="text_13">
     <!-- strategy -->
     <g transform="translate(70.7 42.518437)scale(0.1 -0.1)">
      <defs>
       <path d="M 44.28125 53.078125 
L 44.28125 44.578125 
Q 40.484375 46.53125 36.375 47.5 
Q 32.28125 48.484375 27.875 48.484375 
Q 21.1875 48.484375 17.84375 46.4375 
Q 14.5 44.390625 14.5 40.28125 
Q 14.5 37.15625 16.890625 35.375 
Q 19.28125 33.59375 26.515625 31.984375 
L 29.59375 31.296875 
Q 39.15625 29.25 43.1875 25.515625 
Q 47.21875 21.78125 47.21875 15.09375 
Q 47.21875 7.46875 41.1875 3.015625 
Q 35.15625 -1.421875 24.609375 -1.421875 
Q 20.21875 -1.421875 15.453125 -0.5625 
Q 10.6875 0.296875 5.421875 2 
L 5.421875 11.28125 
Q 10.40625 8.6875 15.234375 7.390625 
Q 20.0625 6.109375 24.8125 6.109375 
Q 31.15625 6.109375 34.5625 8.28125 
Q 37.984375 10.453125 37.984375 14.40625 
Q 37.984375 18.0625 35.515625 20.015625 
Q 33.0625 21.96875 24.703125 23.78125 
L 21.578125 24.515625 
Q 13.234375 26.265625 9.515625 29.90625 
Q 5.8125 33.546875 5.8125 39.890625 
Q 5.8125 47.609375 11.28125 51.796875 
Q 16.75 56 26.8125 56 
Q 31.78125 56 36.171875 55.265625 
Q 40.578125 54.546875 44.28125 53.078125 
z
" id="DejaVuSans-115"/>
       <path d="M 41.109375 46.296875 
Q 39.59375 47.171875 37.8125 47.578125 
Q 36.03125 48 33.890625 48 
Q 26.265625 48 22.1875 43.046875 
Q 18.109375 38.09375 18.109375 28.8125 
L 18.109375 0 
L 9.078125 0 
L 9.078125 54.6875 
L 18.109375 54.6875 
L 18.109375 46.1875 
Q 20.953125 51.171875 25.484375 53.578125 
Q 30.03125 56 36.53125 56 
Q 37.453125 56 38.578125 55.875 
Q 39.703125 55.765625 41.0625 55.515625 
z
" id="DejaVuSans-114"/>
       <path d="M 45.40625 27.984375 
Q 45.40625 37.75 41.375 43.109375 
Q 37.359375 48.484375 30.078125 48.484375 
Q 22.859375 48.484375 18.828125 43.109375 
Q 14.796875 37.75 14.796875 27.984375 
Q 14.796875 18.265625 18.828125 12.890625 
Q 22.859375 7.515625 30.078125 7.515625 
Q 37.359375 7.515625 41.375 12.890625 
Q 45.40625 18.265625 45.40625 27.984375 
z
M 54.390625 6.78125 
Q 54.390625 -7.171875 48.1875 -13.984375 
Q 42 -20.796875 29.203125 -20.796875 
Q 24.46875 -20.796875 20.265625 -20.09375 
Q 16.0625 -19.390625 12.109375 -17.921875 
L 12.109375 -9.1875 
Q 16.0625 -11.328125 19.921875 -12.34375 
Q 23.78125 -13.375 27.78125 -13.375 
Q 36.625 -13.375 41.015625 -8.765625 
Q 45.40625 -4.15625 45.40625 5.171875 
L 45.40625 9.625 
Q 42.625 4.78125 38.28125 2.390625 
Q 33.9375 0 27.875 0 
Q 17.828125 0 11.671875 7.65625 
Q 5.515625 15.328125 5.515625 27.984375 
Q 5.515625 40.671875 11.671875 48.328125 
Q 17.828125 56 27.875 56 
Q 33.9375 56 38.28125 53.609375 
Q 42.625 51.21875 45.40625 46.390625 
L 45.40625 54.6875 
L 54.390625 54.6875 
z
" id="DejaVuSans-103"/>
       <path d="M 32.171875 -5.078125 
Q 28.375 -14.84375 24.75 -17.8125 
Q 21.140625 -20.796875 15.09375 -20.796875 
L 7.90625 -20.796875 
L 7.90625 -13.28125 
L 13.1875 -13.28125 
Q 16.890625 -13.28125 18.9375 -11.515625 
Q 21 -9.765625 23.484375 -3.21875 
L 25.09375 0.875 
L 2.984375 54.6875 
L 12.5 54.6875 
L 29.59375 11.921875 
L 46.6875 54.6875 
L 56.203125 54.6875 
z
" id="DejaVuSans-121"/>
      </defs>
      <use xlink:href="#DejaVuSans-115"/>
      <use x="52.099609" xlink:href="#DejaVuSans-116"/>
      <use x="91.308594" xlink:href="#DejaVuSans-114"/>
      <use x="132.421875" xlink:href="#DejaVuSans-97"/>
      <use x="193.701172" xlink:href="#DejaVuSans-116"/>
      <use x="232.910156" xlink:href="#DejaVuSans-101"/>
      <use x="294.433594" xlink:href="#DejaVuSans-103"/>
      <use x="357.910156" xlink:href="#DejaVuSans-121"/>
     </g>
    </g>
    <g id="line2d_28">
     <path d="M 42.7 53.696562 
L 62.7 53.696562 
" style="fill:none;stroke:#ff7f0e;stroke-linecap:square;stroke-width:1.5;"/>
    </g>
    <g id="line2d_29"/>
    <g id="text_14">
     <!-- benchmark -->
     <g transform="translate(70.7 57.196562)scale(0.1 -0.1)">
      <defs>
       <path d="M 48.6875 27.296875 
Q 48.6875 37.203125 44.609375 42.84375 
Q 40.53125 48.484375 33.40625 48.484375 
Q 26.265625 48.484375 22.1875 42.84375 
Q 18.109375 37.203125 18.109375 27.296875 
Q 18.109375 17.390625 22.1875 11.75 
Q 26.265625 6.109375 33.40625 6.109375 
Q 40.53125 6.109375 44.609375 11.75 
Q 48.6875 17.390625 48.6875 27.296875 
z
M 18.109375 46.390625 
Q 20.953125 51.265625 25.265625 53.625 
Q 29.59375 56 35.59375 56 
Q 45.5625 56 51.78125 48.09375 
Q 58.015625 40.1875 58.015625 27.296875 
Q 58.015625 14.40625 51.78125 6.484375 
Q 45.5625 -1.421875 35.59375 -1.421875 
Q 29.59375 -1.421875 25.265625 0.953125 
Q 20.953125 3.328125 18.109375 8.203125 
L 18.109375 0 
L 9.078125 0 
L 9.078125 75.984375 
L 18.109375 75.984375 
z
" id="DejaVuSans-98"/>
       <path d="M 54.890625 33.015625 
L 54.890625 0 
L 45.90625 0 
L 45.90625 32.71875 
Q 45.90625 40.484375 42.875 44.328125 
Q 39.84375 48.1875 33.796875 48.1875 
Q 26.515625 48.1875 22.3125 43.546875 
Q 18.109375 38.921875 18.109375 30.90625 
L 18.109375 0 
L 9.078125 0 
L 9.078125 54.6875 
L 18.109375 54.6875 
L 18.109375 46.1875 
Q 21.34375 51.125 25.703125 53.5625 
Q 30.078125 56 35.796875 56 
Q 45.21875 56 50.046875 50.171875 
Q 54.890625 44.34375 54.890625 33.015625 
z
" id="DejaVuSans-110"/>
       <path d="M 48.78125 52.59375 
L 48.78125 44.1875 
Q 44.96875 46.296875 41.140625 47.34375 
Q 37.3125 48.390625 33.40625 48.390625 
Q 24.65625 48.390625 19.8125 42.84375 
Q 14.984375 37.3125 14.984375 27.296875 
Q 14.984375 17.28125 19.8125 11.734375 
Q 24.65625 6.203125 33.40625 6.203125 
Q 37.3125 6.203125 41.140625 7.25 
Q 44.96875 8.296875 48.78125 10.40625 
L 48.78125 2.09375 
Q 45.015625 0.34375 40.984375 -0.53125 
Q 36.96875 -1.421875 32.421875 -1.421875 
Q 20.0625 -1.421875 12.78125 6.34375 
Q 5.515625 14.109375 5.515625 27.296875 
Q 5.515625 40.671875 12.859375 48.328125 
Q 20.21875 56 33.015625 56 
Q 37.15625 56 41.109375 55.140625 
Q 45.0625 54.296875 48.78125 52.59375 
z
" id="DejaVuSans-99"/>
       <path d="M 54.890625 33.015625 
L 54.890625 0 
L 45.90625 0 
L 45.90625 32.71875 
Q 45.90625 40.484375 42.875 44.328125 
Q 39.84375 48.1875 33.796875 48.1875 
Q 26.515625 48.1875 22.3125 43.546875 
Q 18.109375 38.921875 18.109375 30.90625 
L 18.109375 0 
L 9.078125 0 
L 9.078125 75.984375 
L 18.109375 75.984375 
L 18.109375 46.1875 
Q 21.34375 51.125 25.703125 53.5625 
Q 30.078125 56 35.796875 56 
Q 45.21875 56 50.046875 50.171875 
Q 54.890625 44.34375 54.890625 33.015625 
z
" id="DejaVuSans-104"/>
       <path d="M 52 44.1875 
Q 55.375 50.25 60.0625 53.125 
Q 64.75 56 71.09375 56 
Q 79.640625 56 84.28125 50.015625 
Q 88.921875 44.046875 88.921875 33.015625 
L 88.921875 0 
L 79.890625 0 
L 79.890625 32.71875 
Q 79.890625 40.578125 77.09375 44.375 
Q 74.3125 48.1875 68.609375 48.1875 
Q 61.625 48.1875 57.5625 43.546875 
Q 53.515625 38.921875 53.515625 30.90625 
L 53.515625 0 
L 44.484375 0 
L 44.484375 32.71875 
Q 44.484375 40.625 41.703125 44.40625 
Q 38.921875 48.1875 33.109375 48.1875 
Q 26.21875 48.1875 22.15625 43.53125 
Q 18.109375 38.875 18.109375 30.90625 
L 18.109375 0 
L 9.078125 0 
L 9.078125 54.6875 
L 18.109375 54.6875 
L 18.109375 46.1875 
Q 21.1875 51.21875 25.484375 53.609375 
Q 29.78125 56 35.6875 56 
Q 41.65625 56 45.828125 52.96875 
Q 50 49.953125 52 44.1875 
z
" id="DejaVuSans-109"/>
       <path d="M 9.078125 75.984375 
L 18.109375 75.984375 
L 18.109375 31.109375 
L 44.921875 54.6875 
L 56.390625 54.6875 
L 27.390625 29.109375 
L 57.625 0 
L 45.90625 0 
L 18.109375 26.703125 
L 18.109375 0 
L 9.078125 0 
z
" id="DejaVuSans-107"/>
      </defs>
      <use xlink:href="#DejaVuSans-98"/>
      <use x="63.476562" xlink:href="#DejaVuSans-101"/>
      <use x="125" xlink:href="#DejaVuSans-110"/>
      <use x="188.378906" xlink:href="#DejaVuSans-99"/>
      <use x="243.359375" xlink:href="#DejaVuSans-104"/>
      <use x="306.738281" xlink:href="#DejaVuSans-109"/>
      <use x="404.150391" xlink:href="#DejaVuSans-97"/>
      <use x="465.429688" xlink:href="#DejaVuSans-114"/>
      <use x="506.542969" xlink:href="#DejaVuSans-107"/>
     </g>
    </g>
    <g id="line2d_30">
     <path d="M 42.7 68.374687 
L 62.7 68.374687 
" style="fill:none;stroke:#2ca02c;stroke-linecap:square;stroke-width:1.5;"/>
    </g>
    <g id="line2d_31"/>
    <g id="text_15">
     <!-- excess -->
     <g transform="translate(70.7 71.874687)scale(0.1 -0.1)">
      <defs>
       <path d="M 54.890625 54.6875 
L 35.109375 28.078125 
L 55.90625 0 
L 45.3125 0 
L 29.390625 21.484375 
L 13.484375 0 
L 2.875 0 
L 24.125 28.609375 
L 4.6875 54.6875 
L 15.28125 54.6875 
L 29.78125 35.203125 
L 44.28125 54.6875 
z
" id="DejaVuSans-120"/>
      </defs>
      <use xlink:href="#DejaVuSans-101"/>
      <use x="59.773438" xlink:href="#DejaVuSans-120"/>
      <use x="117.203125" xlink:href="#DejaVuSans-99"/>
      <use x="172.183594" xlink:href="#DejaVuSans-101"/>
      <use x="233.707031" xlink:href="#DejaVuSans-115"/>
      <use x="285.806641" xlink:href="#DejaVuSans-115"/>
     </g>
    </g>
   </g>
  </g>
 </g>
 <defs>
  <clipPath id="p8d515960c6">
   <rect height="247.64" width="1107.5" x="33.7" y="25.92"/>
  </clipPath>
 </defs>
</svg>
