<?xml version="1.0" encoding="utf-8" standalone="no"?>
<!DOCTYPE svg PUBLIC "-//W3C//DTD SVG 1.1//EN"
  "http://www.w3.org/Graphics/SVG/1.1/DTD/svg11.dtd">
<!-- Created with matplotlib (https://matplotlib.org/) -->
<svg height="468pt" version="1.1" viewBox="0 0 1152 468" width="1152pt" xmlns="http://www.w3.org/2000/svg" xmlns:xlink="http://www.w3.org/1999/xlink">
 <metadata>
  <rdf:RDF xmlns:cc="http://creativecommons.org/ns#" xmlns:dc="http://purl.org/dc/elements/1.1/" xmlns:rdf="http://www.w3.org/1999/02/22-rdf-syntax-ns#">
   <cc:Work>
    <dc:type rdf:resource="http://purl.org/dc/dcmitype/StillImage"/>
    <dc:date>2023-10-11T16:58:27.750046</dc:date>
    <dc:format>image/svg+xml</dc:format>
    <dc:creator>
     <cc:Agent>
      <dc:title>Matplotlib v3.3.4, https://matplotlib.org/</dc:title>
     </cc:Agent>
    </dc:creator>
   </cc:Work>
  </rdf:RDF>
 </metadata>
 <defs>
  <style type="text/css">*{stroke-linecap:butt;stroke-linejoin:round;}</style>
 </defs>
 <g id="figure_1">
  <g id="patch_1">
   <path d="M 0 468 
L 1152 468 
L 1152 0 
L 0 0 
z
" style="fill:#ffffff;"/>
  </g>
  <g id="axes_1">
   <g id="patch_2">
    <path d="M 50.9 424.76 
L 1107.88 424.76 
L 1107.88 25.92 
L 50.9 25.92 
z
" style="fill:#ffffff;"/>
   </g>
   <g id="patch_3">
    <path clip-path="url(#pb86fa9bf06)" d="M 120.700566 287.072868 
L 102.570549 287.072868 
L 102.570549 234.894434 
L 120.700566 234.894434 
z
" style="fill:#1f77b4;"/>
   </g>
   <g id="patch_4">
    <path clip-path="url(#pb86fa9bf06)" d="M 146.08259 287.072868 
L 127.952573 287.072868 
L 127.952573 259.41467 
L 146.08259 259.41467 
z
" style="fill:#1f77b4;"/>
   </g>
   <g id="patch_5">
    <path clip-path="url(#pb86fa9bf06)" d="M 171.464614 287.072868 
L 153.334597 287.072868 
L 153.334597 218.488501 
L 171.464614 218.488501 
z
" style="fill:#1f77b4;"/>
   </g>
   <g id="patch_6">
    <path clip-path="url(#pb86fa9bf06)" d="M 196.846638 287.072868 
L 178.716621 287.072868 
L 178.716621 392.495586 
L 196.846638 392.495586 
z
" style="fill:#1f77b4;"/>
   </g>
   <g id="patch_7">
    <path clip-path="url(#pb86fa9bf06)" d="M 222.228662 287.072868 
L 204.098645 287.072868 
L 204.098645 209.890401 
L 222.228662 209.890401 
z
" style="fill:#1f77b4;"/>
   </g>
   <g id="patch_8">
    <path clip-path="url(#pb86fa9bf06)" d="M 247.610686 287.072868 
L 229.480669 287.072868 
L 229.480669 217.215942 
L 247.610686 217.215942 
z
" style="fill:#1f77b4;"/>
   </g>
   <g id="patch_9">
    <path clip-path="url(#pb86fa9bf06)" d="M 272.99271 287.072868 
L 254.862693 287.072868 
L 254.862693 304.800764 
L 272.99271 304.800764 
z
" style="fill:#1f77b4;"/>
   </g>
   <g id="patch_10">
    <path clip-path="url(#pb86fa9bf06)" d="M 298.374734 287.072868 
L 280.244717 287.072868 
L 280.244717 193.770885 
L 298.374734 193.770885 
z
" style="fill:#1f77b4;"/>
   </g>
   <g id="patch_11">
    <path clip-path="url(#pb86fa9bf06)" d="M 323.756758 287.072868 
L 305.626741 287.072868 
L 305.626741 165.955252 
L 323.756758 165.955252 
z
" style="fill:#1f77b4;"/>
   </g>
   <g id="patch_12">
    <path clip-path="url(#pb86fa9bf06)" d="M 349.138782 287.072868 
L 331.008765 287.072868 
L 331.008765 299.487362 
L 349.138782 299.487362 
z
" style="fill:#1f77b4;"/>
   </g>
   <g id="patch_13">
    <path clip-path="url(#pb86fa9bf06)" d="M 374.520806 287.072868 
L 356.390789 287.072868 
L 356.390789 283.489661 
L 374.520806 283.489661 
z
" style="fill:#1f77b4;"/>
   </g>
   <g id="patch_14">
    <path clip-path="url(#pb86fa9bf06)" d="M 399.90283 287.072868 
L 381.772813 287.072868 
L 381.772813 196.587418 
L 399.90283 196.587418 
z
" style="fill:#1f77b4;"/>
   </g>
   <g id="patch_15">
    <path clip-path="url(#pb86fa9bf06)" d="M 425.284854 287.072868 
L 407.154837 287.072868 
L 407.154837 157.95356 
L 425.284854 157.95356 
z
" style="fill:#1f77b4;"/>
   </g>
   <g id="patch_16">
    <path clip-path="url(#pb86fa9bf06)" d="M 450.666878 287.072868 
L 432.536861 287.072868 
L 432.536861 124.554612 
L 450.666878 124.554612 
z
" style="fill:#1f77b4;"/>
   </g>
   <g id="patch_17">
    <path clip-path="url(#pb86fa9bf06)" d="M 476.048902 287.072868 
L 457.918885 287.072868 
L 457.918885 136.377109 
L 476.048902 136.377109 
z
" style="fill:#1f77b4;"/>
   </g>
   <g id="patch_18">
    <path clip-path="url(#pb86fa9bf06)" d="M 501.430926 287.072868 
L 483.300909 287.072868 
L 483.300909 254.492415 
L 501.430926 254.492415 
z
" style="fill:#1f77b4;"/>
   </g>
   <g id="patch_19">
    <path clip-path="url(#pb86fa9bf06)" d="M 526.81295 287.072868 
L 508.682933 287.072868 
L 508.682933 345.411259 
L 526.81295 345.411259 
z
" style="fill:#1f77b4;"/>
   </g>
   <g id="patch_20">
    <path clip-path="url(#pb86fa9bf06)" d="M 552.194974 287.072868 
L 534.064957 287.072868 
L 534.064957 192.009013 
L 552.194974 192.009013 
z
" style="fill:#1f77b4;"/>
   </g>
   <g id="patch_21">
    <path clip-path="url(#pb86fa9bf06)" d="M 577.576998 287.072868 
L 559.446981 287.072868 
L 559.446981 213.547984 
L 577.576998 213.547984 
z
" style="fill:#1f77b4;"/>
   </g>
   <g id="patch_22">
    <path clip-path="url(#pb86fa9bf06)" d="M 602.959022 287.072868 
L 584.829005 287.072868 
L 584.829005 153.981177 
L 602.959022 153.981177 
z
" style="fill:#1f77b4;"/>
   </g>
   <g id="patch_23">
    <path clip-path="url(#pb86fa9bf06)" d="M 628.341046 287.072868 
L 610.211029 287.072868 
L 610.211029 124.064263 
L 628.341046 124.064263 
z
" style="fill:#1f77b4;"/>
   </g>
   <g id="patch_24">
    <path clip-path="url(#pb86fa9bf06)" d="M 653.72307 287.072868 
L 635.593053 287.072868 
L 635.593053 109.429982 
L 653.72307 109.429982 
z
" style="fill:#1f77b4;"/>
   </g>
   <g id="patch_25">
    <path clip-path="url(#pb86fa9bf06)" d="M 679.105094 287.072868 
L 660.975077 287.072868 
L 660.975077 226.090191 
L 679.105094 226.090191 
z
" style="fill:#1f77b4;"/>
   </g>
   <g id="patch_26">
    <path clip-path="url(#pb86fa9bf06)" d="M 704.487118 287.072868 
L 686.357101 287.072868 
L 686.357101 259.399016 
L 704.487118 259.399016 
z
" style="fill:#1f77b4;"/>
   </g>
   <g id="patch_27">
    <path clip-path="url(#pb86fa9bf06)" d="M 729.869142 287.072868 
L 711.739125 287.072868 
L 711.739125 190.640293 
L 729.869142 190.640293 
z
" style="fill:#1f77b4;"/>
   </g>
   <g id="patch_28">
    <path clip-path="url(#pb86fa9bf06)" d="M 755.251166 287.072868 
L 737.121149 287.072868 
L 737.121149 224.681482 
L 755.251166 224.681482 
z
" style="fill:#1f77b4;"/>
   </g>
   <g id="patch_29">
    <path clip-path="url(#pb86fa9bf06)" d="M 780.63319 287.072868 
L 762.503173 287.072868 
L 762.503173 98.905825 
L 780.63319 98.905825 
z
" style="fill:#1f77b4;"/>
   </g>
   <g id="patch_30">
    <path clip-path="url(#pb86fa9bf06)" d="M 806.015214 287.072868 
L 787.885197 287.072868 
L 787.885197 44.049091 
L 806.015214 44.049091 
z
" style="fill:#1f77b4;"/>
   </g>
   <g id="patch_31">
    <path clip-path="url(#pb86fa9bf06)" d="M 831.397238 287.072868 
L 813.267221 287.072868 
L 813.267221 175.86806 
L 831.397238 175.86806 
z
" style="fill:#1f77b4;"/>
   </g>
   <g id="patch_32">
    <path clip-path="url(#pb86fa9bf06)" d="M 856.779262 287.072868 
L 838.649245 287.072868 
L 838.649245 184.015753 
L 856.779262 184.015753 
z
" style="fill:#1f77b4;"/>
   </g>
   <g id="patch_33">
    <path clip-path="url(#pb86fa9bf06)" d="M 882.161286 287.072868 
L 864.031269 287.072868 
L 864.031269 304.186427 
L 882.161286 304.186427 
z
" style="fill:#1f77b4;"/>
   </g>
   <g id="patch_34">
    <path clip-path="url(#pb86fa9bf06)" d="M 907.54331 287.072868 
L 889.413293 287.072868 
L 889.413293 271.152005 
L 907.54331 271.152005 
z
" style="fill:#1f77b4;"/>
   </g>
   <g id="patch_35">
    <path clip-path="url(#pb86fa9bf06)" d="M 932.925334 287.072868 
L 914.795317 287.072868 
L 914.795317 236.326514 
L 932.925334 236.326514 
z
" style="fill:#1f77b4;"/>
   </g>
   <g id="patch_36">
    <path clip-path="url(#pb86fa9bf06)" d="M 958.307358 287.072868 
L 940.177341 287.072868 
L 940.177341 406.630909 
L 958.307358 406.630909 
z
" style="fill:#1f77b4;"/>
   </g>
   <g id="patch_37">
    <path clip-path="url(#pb86fa9bf06)" d="M 983.689383 287.072868 
L 965.559365 287.072868 
L 965.559365 404.740529 
L 983.689383 404.740529 
z
" style="fill:#1f77b4;"/>
   </g>
   <g id="patch_38">
    <path clip-path="url(#pb86fa9bf06)" d="M 1009.071407 287.072868 
L 990.941389 287.072868 
L 990.941389 238.533537 
L 1009.071407 238.533537 
z
" style="fill:#1f77b4;"/>
   </g>
   <g id="patch_39">
    <path clip-path="url(#pb86fa9bf06)" d="M 1034.453431 287.072868 
L 1016.323413 287.072868 
L 1016.323413 186.370874 
L 1034.453431 186.370874 
z
" style="fill:#1f77b4;"/>
   </g>
   <g id="patch_40">
    <path clip-path="url(#pb86fa9bf06)" d="M 1059.835455 287.072868 
L 1041.705437 287.072868 
L 1041.705437 259.143157 
L 1059.835455 259.143157 
z
" style="fill:#1f77b4;"/>
   </g>
   <g id="patch_41">
    <path clip-path="url(#pb86fa9bf06)" d="M 0 0 
z
" style="fill:#1f77b4;"/>
   </g>
   <g id="patch_42">
    <path clip-path="url(#pb86fa9bf06)" d="M 0 0 
z
" style="fill:#1f77b4;"/>
   </g>
   <g id="matplotlib.axis_1">
    <g id="xtick_1">
     <g id="line2d_1">
      <path clip-path="url(#pb86fa9bf06)" d="M 88.066535 424.76 
L 88.066535 25.92 
" style="fill:none;stroke:#b0b0b0;stroke-linecap:square;stroke-width:0.8;"/>
     </g>
     <g id="line2d_2">
      <defs>
       <path d="M 0 0 
L 0 3.5 
" id="mc25c19327f" style="stroke:#000000;stroke-width:0.8;"/>
      </defs>
      <g>
       <use style="stroke:#000000;stroke-width:0.8;" x="88.066535" xlink:href="#mc25c19327f" y="424.76"/>
      </g>
     </g>
     <g id="text_1">
      <!-- 2010 -->
      <g transform="translate(90.82591 457.21)rotate(-90)scale(0.1 -0.1)">
       <defs>
        <path d="M 19.1875 8.296875 
L 53.609375 8.296875 
L 53.609375 0 
L 7.328125 0 
L 7.328125 8.296875 
Q 12.9375 14.109375 22.625 23.890625 
Q 32.328125 33.6875 34.8125 36.53125 
Q 39.546875 41.84375 41.421875 45.53125 
Q 43.3125 49.21875 43.3125 52.78125 
Q 43.3125 58.59375 39.234375 62.25 
Q 35.15625 65.921875 28.609375 65.921875 
Q 23.96875 65.921875 18.8125 64.3125 
Q 13.671875 62.703125 7.8125 59.421875 
L 7.8125 69.390625 
Q 13.765625 71.78125 18.9375 73 
Q 24.125 74.21875 28.421875 74.21875 
Q 39.75 74.21875 46.484375 68.546875 
Q 53.21875 62.890625 53.21875 53.421875 
Q 53.21875 48.921875 51.53125 44.890625 
Q 49.859375 40.875 45.40625 35.40625 
Q 44.1875 33.984375 37.640625 27.21875 
Q 31.109375 20.453125 19.1875 8.296875 
z
" id="DejaVuSans-50"/>
        <path d="M 31.78125 66.40625 
Q 24.171875 66.40625 20.328125 58.90625 
Q 16.5 51.421875 16.5 36.375 
Q 16.5 21.390625 20.328125 13.890625 
Q 24.171875 6.390625 31.78125 6.390625 
Q 39.453125 6.390625 43.28125 13.890625 
Q 47.125 21.390625 47.125 36.375 
Q 47.125 51.421875 43.28125 58.90625 
Q 39.453125 66.40625 31.78125 66.40625 
z
M 31.78125 74.21875 
Q 44.046875 74.21875 50.515625 64.515625 
Q 56.984375 54.828125 56.984375 36.375 
Q 56.984375 17.96875 50.515625 8.265625 
Q 44.046875 -1.421875 31.78125 -1.421875 
Q 19.53125 -1.421875 13.0625 8.265625 
Q 6.59375 17.96875 6.59375 36.375 
Q 6.59375 54.828125 13.0625 64.515625 
Q 19.53125 74.21875 31.78125 74.21875 
z
" id="DejaVuSans-48"/>
        <path d="M 12.40625 8.296875 
L 28.515625 8.296875 
L 28.515625 63.921875 
L 10.984375 60.40625 
L 10.984375 69.390625 
L 28.421875 72.90625 
L 38.28125 72.90625 
L 38.28125 8.296875 
L 54.390625 8.296875 
L 54.390625 0 
L 12.40625 0 
z
" id="DejaVuSans-49"/>
       </defs>
       <use xlink:href="#DejaVuSans-50"/>
       <use x="63.623047" xlink:href="#DejaVuSans-48"/>
       <use x="127.246094" xlink:href="#DejaVuSans-49"/>
       <use x="190.869141" xlink:href="#DejaVuSans-48"/>
      </g>
     </g>
    </g>
   </g>
   <g id="matplotlib.axis_2">
    <g id="ytick_1">
     <g id="line2d_3">
      <path clip-path="url(#pb86fa9bf06)" d="M 50.9 423.263698 
L 1107.88 423.263698 
" style="fill:none;stroke:#b0b0b0;stroke-linecap:square;stroke-width:0.8;"/>
     </g>
     <g id="line2d_4">
      <defs>
       <path d="M 0 0 
L -3.5 0 
" id="m2a56aedb9f" style="stroke:#000000;stroke-width:0.8;"/>
      </defs>
      <g>
       <use style="stroke:#000000;stroke-width:0.8;" x="50.9" xlink:href="#m2a56aedb9f" y="423.263698"/>
      </g>
     </g>
     <g id="text_2">
      <!-- -0.4 -->
      <g transform="translate(24.389062 427.062916)scale(0.1 -0.1)">
       <defs>
        <path d="M 4.890625 31.390625 
L 31.203125 31.390625 
L 31.203125 23.390625 
L 4.890625 23.390625 
z
" id="DejaVuSans-45"/>
        <path d="M 10.6875 12.40625 
L 21 12.40625 
L 21 0 
L 10.6875 0 
z
" id="DejaVuSans-46"/>
        <path d="M 37.796875 64.3125 
L 12.890625 25.390625 
L 37.796875 25.390625 
z
M 35.203125 72.90625 
L 47.609375 72.90625 
L 47.609375 25.390625 
L 58.015625 25.390625 
L 58.015625 17.1875 
L 47.609375 17.1875 
L 47.609375 0 
L 37.796875 0 
L 37.796875 17.1875 
L 4.890625 17.1875 
L 4.890625 26.703125 
z
" id="DejaVuSans-52"/>
       </defs>
       <use xlink:href="#DejaVuSans-45"/>
       <use x="36.083984" xlink:href="#DejaVuSans-48"/>
       <use x="99.707031" xlink:href="#DejaVuSans-46"/>
       <use x="131.494141" xlink:href="#DejaVuSans-52"/>
      </g>
     </g>
    </g>
    <g id="ytick_2">
     <g id="line2d_5">
      <path clip-path="url(#pb86fa9bf06)" d="M 50.9 355.168283 
L 1107.88 355.168283 
" style="fill:none;stroke:#b0b0b0;stroke-linecap:square;stroke-width:0.8;"/>
     </g>
     <g id="line2d_6">
      <g>
       <use style="stroke:#000000;stroke-width:0.8;" x="50.9" xlink:href="#m2a56aedb9f" y="355.168283"/>
      </g>
     </g>
     <g id="text_3">
      <!-- -0.2 -->
      <g transform="translate(24.389062 358.967502)scale(0.1 -0.1)">
       <use xlink:href="#DejaVuSans-45"/>
       <use x="36.083984" xlink:href="#DejaVuSans-48"/>
       <use x="99.707031" xlink:href="#DejaVuSans-46"/>
       <use x="131.494141" xlink:href="#DejaVuSans-50"/>
      </g>
     </g>
    </g>
    <g id="ytick_3">
     <g id="line2d_7">
      <path clip-path="url(#pb86fa9bf06)" d="M 50.9 287.072868 
L 1107.88 287.072868 
" style="fill:none;stroke:#b0b0b0;stroke-linecap:square;stroke-width:0.8;"/>
     </g>
     <g id="line2d_8">
      <g>
       <use style="stroke:#000000;stroke-width:0.8;" x="50.9" xlink:href="#m2a56aedb9f" y="287.072868"/>
      </g>
     </g>
     <g id="text_4">
      <!-- 0.0 -->
      <g transform="translate(27.996875 290.872087)scale(0.1 -0.1)">
       <use xlink:href="#DejaVuSans-48"/>
       <use x="63.623047" xlink:href="#DejaVuSans-46"/>
       <use x="95.410156" xlink:href="#DejaVuSans-48"/>
      </g>
     </g>
    </g>
    <g id="ytick_4">
     <g id="line2d_9">
      <path clip-path="url(#pb86fa9bf06)" d="M 50.9 218.977453 
L 1107.88 218.977453 
" style="fill:none;stroke:#b0b0b0;stroke-linecap:square;stroke-width:0.8;"/>
     </g>
     <g id="line2d_10">
      <g>
       <use style="stroke:#000000;stroke-width:0.8;" x="50.9" xlink:href="#m2a56aedb9f" y="218.977453"/>
      </g>
     </g>
     <g id="text_5">
      <!-- 0.2 -->
      <g transform="translate(27.996875 222.776672)scale(0.1 -0.1)">
       <use xlink:href="#DejaVuSans-48"/>
       <use x="63.623047" xlink:href="#DejaVuSans-46"/>
       <use x="95.410156" xlink:href="#DejaVuSans-50"/>
      </g>
     </g>
    </g>
    <g id="ytick_5">
     <g id="line2d_11">
      <path clip-path="url(#pb86fa9bf06)" d="M 50.9 150.882039 
L 1107.88 150.882039 
" style="fill:none;stroke:#b0b0b0;stroke-linecap:square;stroke-width:0.8;"/>
     </g>
     <g id="line2d_12">
      <g>
       <use style="stroke:#000000;stroke-width:0.8;" x="50.9" xlink:href="#m2a56aedb9f" y="150.882039"/>
      </g>
     </g>
     <g id="text_6">
      <!-- 0.4 -->
      <g transform="translate(27.996875 154.681258)scale(0.1 -0.1)">
       <use xlink:href="#DejaVuSans-48"/>
       <use x="63.623047" xlink:href="#DejaVuSans-46"/>
       <use x="95.410156" xlink:href="#DejaVuSans-52"/>
      </g>
     </g>
    </g>
    <g id="ytick_6">
     <g id="line2d_13">
      <path clip-path="url(#pb86fa9bf06)" d="M 50.9 82.786624 
L 1107.88 82.786624 
" style="fill:none;stroke:#b0b0b0;stroke-linecap:square;stroke-width:0.8;"/>
     </g>
     <g id="line2d_14">
      <g>
       <use style="stroke:#000000;stroke-width:0.8;" x="50.9" xlink:href="#m2a56aedb9f" y="82.786624"/>
      </g>
     </g>
     <g id="text_7">
      <!-- 0.6 -->
      <g transform="translate(27.996875 86.585843)scale(0.1 -0.1)">
       <defs>
        <path d="M 33.015625 40.375 
Q 26.375 40.375 22.484375 35.828125 
Q 18.609375 31.296875 18.609375 23.390625 
Q 18.609375 15.53125 22.484375 10.953125 
Q 26.375 6.390625 33.015625 6.390625 
Q 39.65625 6.390625 43.53125 10.953125 
Q 47.40625 15.53125 47.40625 23.390625 
Q 47.40625 31.296875 43.53125 35.828125 
Q 39.65625 40.375 33.015625 40.375 
z
M 52.59375 71.296875 
L 52.59375 62.3125 
Q 48.875 64.0625 45.09375 64.984375 
Q 41.3125 65.921875 37.59375 65.921875 
Q 27.828125 65.921875 22.671875 59.328125 
Q 17.53125 52.734375 16.796875 39.40625 
Q 19.671875 43.65625 24.015625 45.921875 
Q 28.375 48.1875 33.59375 48.1875 
Q 44.578125 48.1875 50.953125 41.515625 
Q 57.328125 34.859375 57.328125 23.390625 
Q 57.328125 12.15625 50.6875 5.359375 
Q 44.046875 -1.421875 33.015625 -1.421875 
Q 20.359375 -1.421875 13.671875 8.265625 
Q 6.984375 17.96875 6.984375 36.375 
Q 6.984375 53.65625 15.1875 63.9375 
Q 23.390625 74.21875 37.203125 74.21875 
Q 40.921875 74.21875 44.703125 73.484375 
Q 48.484375 72.75 52.59375 71.296875 
z
" id="DejaVuSans-54"/>
       </defs>
       <use xlink:href="#DejaVuSans-48"/>
       <use x="63.623047" xlink:href="#DejaVuSans-46"/>
       <use x="95.410156" xlink:href="#DejaVuSans-54"/>
      </g>
     </g>
    </g>
    <g id="text_8">
     <!-- IC -->
     <g transform="translate(18.309375 230.306406)rotate(-90)scale(0.1 -0.1)">
      <defs>
       <path d="M 9.8125 72.90625 
L 19.671875 72.90625 
L 19.671875 0 
L 9.8125 0 
z
" id="DejaVuSans-73"/>
       <path d="M 64.40625 67.28125 
L 64.40625 56.890625 
Q 59.421875 61.53125 53.78125 63.8125 
Q 48.140625 66.109375 41.796875 66.109375 
Q 29.296875 66.109375 22.65625 58.46875 
Q 16.015625 50.828125 16.015625 36.375 
Q 16.015625 21.96875 22.65625 14.328125 
Q 29.296875 6.6875 41.796875 6.6875 
Q 48.140625 6.6875 53.78125 8.984375 
Q 59.421875 11.28125 64.40625 15.921875 
L 64.40625 5.609375 
Q 59.234375 2.09375 53.4375 0.328125 
Q 47.65625 -1.421875 41.21875 -1.421875 
Q 24.65625 -1.421875 15.125 8.703125 
Q 5.609375 18.84375 5.609375 36.375 
Q 5.609375 53.953125 15.125 64.078125 
Q 24.65625 74.21875 41.21875 74.21875 
Q 47.75 74.21875 53.53125 72.484375 
Q 59.328125 70.75 64.40625 67.28125 
z
" id="DejaVuSans-67"/>
      </defs>
      <use xlink:href="#DejaVuSans-73"/>
      <use x="29.492188" xlink:href="#DejaVuSans-67"/>
     </g>
    </g>
   </g>
   <g id="line2d_15">
    <path clip-path="url(#pb86fa9bf06)" d="M 50.9 223.659103 
L 1107.88 223.659103 
" style="fill:none;stroke:#800080;stroke-dasharray:7.4,3.2;stroke-dashoffset:0;stroke-width:2;"/>
   </g>
   <g id="patch_43">
    <path d="M 50.9 424.76 
L 50.9 25.92 
" style="fill:none;stroke:#000000;stroke-linecap:square;stroke-linejoin:miter;stroke-width:0.8;"/>
   </g>
   <g id="patch_44">
    <path d="M 1107.88 424.76 
L 1107.88 25.92 
" style="fill:none;stroke:#000000;stroke-linecap:square;stroke-linejoin:miter;stroke-width:0.8;"/>
   </g>
   <g id="patch_45">
    <path d="M 50.9 424.76 
L 1107.88 424.76 
" style="fill:none;stroke:#000000;stroke-linecap:square;stroke-linejoin:miter;stroke-width:0.8;"/>
   </g>
   <g id="patch_46">
    <path d="M 50.9 25.92 
L 1107.88 25.92 
" style="fill:none;stroke:#000000;stroke-linecap:square;stroke-linejoin:miter;stroke-width:0.8;"/>
   </g>
   <g id="legend_1">
    <g id="patch_47">
     <path d="M 57.9 63.27625 
L 169.520312 63.27625 
Q 171.520312 63.27625 171.520312 61.27625 
L 171.520312 32.92 
Q 171.520312 30.92 169.520312 30.92 
L 57.9 30.92 
Q 55.9 30.92 55.9 32.92 
L 55.9 61.27625 
Q 55.9 63.27625 57.9 63.27625 
z
" style="fill:#ffffff;opacity:0.8;stroke:#cccccc;stroke-linejoin:miter;"/>
    </g>
    <g id="patch_48">
     <path d="M 59.9 42.518438 
L 79.9 42.518438 
L 79.9 35.518438 
L 59.9 35.518438 
z
" style="fill:#1f77b4;"/>
    </g>
    <g id="text_9">
     <!-- weekly IC mean -->
     <g transform="translate(87.9 42.518438)scale(0.1 -0.1)">
      <defs>
       <path d="M 4.203125 54.6875 
L 13.1875 54.6875 
L 24.421875 12.015625 
L 35.59375 54.6875 
L 46.1875 54.6875 
L 57.421875 12.015625 
L 68.609375 54.6875 
L 77.59375 54.6875 
L 63.28125 0 
L 52.6875 0 
L 40.921875 44.828125 
L 29.109375 0 
L 18.5 0 
z
" id="DejaVuSans-119"/>
       <path d="M 56.203125 29.59375 
L 56.203125 25.203125 
L 14.890625 25.203125 
Q 15.484375 15.921875 20.484375 11.0625 
Q 25.484375 6.203125 34.421875 6.203125 
Q 39.59375 6.203125 44.453125 7.46875 
Q 49.3125 8.734375 54.109375 11.28125 
L 54.109375 2.78125 
Q 49.265625 0.734375 44.1875 -0.34375 
Q 39.109375 -1.421875 33.890625 -1.421875 
Q 20.796875 -1.421875 13.15625 6.1875 
Q 5.515625 13.8125 5.515625 26.8125 
Q 5.515625 40.234375 12.765625 48.109375 
Q 20.015625 56 32.328125 56 
Q 43.359375 56 49.78125 48.890625 
Q 56.203125 41.796875 56.203125 29.59375 
z
M 47.21875 32.234375 
Q 47.125 39.59375 43.09375 43.984375 
Q 39.0625 48.390625 32.421875 48.390625 
Q 24.90625 48.390625 20.390625 44.140625 
Q 15.875 39.890625 15.1875 32.171875 
z
" id="DejaVuSans-101"/>
       <path d="M 9.078125 75.984375 
L 18.109375 75.984375 
L 18.109375 31.109375 
L 44.921875 54.6875 
L 56.390625 54.6875 
L 27.390625 29.109375 
L 57.625 0 
L 45.90625 0 
L 18.109375 26.703125 
L 18.109375 0 
L 9.078125 0 
z
" id="DejaVuSans-107"/>
       <path d="M 9.421875 75.984375 
L 18.40625 75.984375 
L 18.40625 0 
L 9.421875 0 
z
" id="DejaVuSans-108"/>
       <path d="M 32.171875 -5.078125 
Q 28.375 -14.84375 24.75 -17.8125 
Q 21.140625 -20.796875 15.09375 -20.796875 
L 7.90625 -20.796875 
L 7.90625 -13.28125 
L 13.1875 -13.28125 
Q 16.890625 -13.28125 18.9375 -11.515625 
Q 21 -9.765625 23.484375 -3.21875 
L 25.09375 0.875 
L 2.984375 54.6875 
L 12.5 54.6875 
L 29.59375 11.921875 
L 46.6875 54.6875 
L 56.203125 54.6875 
z
" id="DejaVuSans-121"/>
       <path id="DejaVuSans-32"/>
       <path d="M 52 44.1875 
Q 55.375 50.25 60.0625 53.125 
Q 64.75 56 71.09375 56 
Q 79.640625 56 84.28125 50.015625 
Q 88.921875 44.046875 88.921875 33.015625 
L 88.921875 0 
L 79.890625 0 
L 79.890625 32.71875 
Q 79.890625 40.578125 77.09375 44.375 
Q 74.3125 48.1875 68.609375 48.1875 
Q 61.625 48.1875 57.5625 43.546875 
Q 53.515625 38.921875 53.515625 30.90625 
L 53.515625 0 
L 44.484375 0 
L 44.484375 32.71875 
Q 44.484375 40.625 41.703125 44.40625 
Q 38.921875 48.1875 33.109375 48.1875 
Q 26.21875 48.1875 22.15625 43.53125 
Q 18.109375 38.875 18.109375 30.90625 
L 18.109375 0 
L 9.078125 0 
L 9.078125 54.6875 
L 18.109375 54.6875 
L 18.109375 46.1875 
Q 21.1875 51.21875 25.484375 53.609375 
Q 29.78125 56 35.6875 56 
Q 41.65625 56 45.828125 52.96875 
Q 50 49.953125 52 44.1875 
z
" id="DejaVuSans-109"/>
       <path d="M 34.28125 27.484375 
Q 23.390625 27.484375 19.1875 25 
Q 14.984375 22.515625 14.984375 16.5 
Q 14.984375 11.71875 18.140625 8.90625 
Q 21.296875 6.109375 26.703125 6.109375 
Q 34.1875 6.109375 38.703125 11.40625 
Q 43.21875 16.703125 43.21875 25.484375 
L 43.21875 27.484375 
z
M 52.203125 31.203125 
L 52.203125 0 
L 43.21875 0 
L 43.21875 8.296875 
Q 40.140625 3.328125 35.546875 0.953125 
Q 30.953125 -1.421875 24.3125 -1.421875 
Q 15.921875 -1.421875 10.953125 3.296875 
Q 6 8.015625 6 15.921875 
Q 6 25.140625 12.171875 29.828125 
Q 18.359375 34.515625 30.609375 34.515625 
L 43.21875 34.515625 
L 43.21875 35.40625 
Q 43.21875 41.609375 39.140625 45 
Q 35.0625 48.390625 27.6875 48.390625 
Q 23 48.390625 18.546875 47.265625 
Q 14.109375 46.140625 10.015625 43.890625 
L 10.015625 52.203125 
Q 14.9375 54.109375 19.578125 55.046875 
Q 24.21875 56 28.609375 56 
Q 40.484375 56 46.34375 49.84375 
Q 52.203125 43.703125 52.203125 31.203125 
z
" id="DejaVuSans-97"/>
       <path d="M 54.890625 33.015625 
L 54.890625 0 
L 45.90625 0 
L 45.90625 32.71875 
Q 45.90625 40.484375 42.875 44.328125 
Q 39.84375 48.1875 33.796875 48.1875 
Q 26.515625 48.1875 22.3125 43.546875 
Q 18.109375 38.921875 18.109375 30.90625 
L 18.109375 0 
L 9.078125 0 
L 9.078125 54.6875 
L 18.109375 54.6875 
L 18.109375 46.1875 
Q 21.34375 51.125 25.703125 53.5625 
Q 30.078125 56 35.796875 56 
Q 45.21875 56 50.046875 50.171875 
Q 54.890625 44.34375 54.890625 33.015625 
z
" id="DejaVuSans-110"/>
      </defs>
      <use xlink:href="#DejaVuSans-119"/>
      <use x="81.787109" xlink:href="#DejaVuSans-101"/>
      <use x="143.310547" xlink:href="#DejaVuSans-101"/>
      <use x="204.833984" xlink:href="#DejaVuSans-107"/>
      <use x="262.744141" xlink:href="#DejaVuSans-108"/>
      <use x="290.527344" xlink:href="#DejaVuSans-121"/>
      <use x="349.707031" xlink:href="#DejaVuSans-32"/>
      <use x="381.494141" xlink:href="#DejaVuSans-73"/>
      <use x="410.986328" xlink:href="#DejaVuSans-67"/>
      <use x="480.810547" xlink:href="#DejaVuSans-32"/>
      <use x="512.597656" xlink:href="#DejaVuSans-109"/>
      <use x="610.009766" xlink:href="#DejaVuSans-101"/>
      <use x="671.533203" xlink:href="#DejaVuSans-97"/>
      <use x="732.8125" xlink:href="#DejaVuSans-110"/>
     </g>
    </g>
    <g id="line2d_16">
     <path d="M 59.9 53.696563 
L 79.9 53.696563 
" style="fill:none;stroke:#800080;stroke-dasharray:7.4,3.2;stroke-dashoffset:0;stroke-width:2;"/>
    </g>
    <g id="line2d_17"/>
    <g id="text_10">
     <!-- IC mean -->
     <g transform="translate(87.9 57.196563)scale(0.1 -0.1)">
      <use xlink:href="#DejaVuSans-73"/>
      <use x="29.492188" xlink:href="#DejaVuSans-67"/>
      <use x="99.316406" xlink:href="#DejaVuSans-32"/>
      <use x="131.103516" xlink:href="#DejaVuSans-109"/>
      <use x="228.515625" xlink:href="#DejaVuSans-101"/>
      <use x="290.039062" xlink:href="#DejaVuSans-97"/>
      <use x="351.318359" xlink:href="#DejaVuSans-110"/>
     </g>
    </g>
   </g>
  </g>
  <g id="axes_2">
   <g id="matplotlib.axis_3">
    <g id="ytick_7">
     <g id="line2d_18">
      <defs>
       <path d="M 0 0 
L 3.5 0 
" id="m7277a66cbe" style="stroke:#000000;stroke-width:0.8;"/>
      </defs>
      <g>
       <use style="stroke:#000000;stroke-width:0.8;" x="1107.88" xlink:href="#m7277a66cbe" y="409.981611"/>
      </g>
     </g>
     <g id="text_11">
      <!-- 0 -->
      <g transform="translate(1114.88 413.78083)scale(0.1 -0.1)">
       <use xlink:href="#DejaVuSans-48"/>
      </g>
     </g>
    </g>
    <g id="ytick_8">
     <g id="line2d_19">
      <g>
       <use style="stroke:#000000;stroke-width:0.8;" x="1107.88" xlink:href="#m7277a66cbe" y="359.704266"/>
      </g>
     </g>
     <g id="text_12">
      <!-- 5 -->
      <g transform="translate(1114.88 363.503485)scale(0.1 -0.1)">
       <defs>
        <path d="M 10.796875 72.90625 
L 49.515625 72.90625 
L 49.515625 64.59375 
L 19.828125 64.59375 
L 19.828125 46.734375 
Q 21.96875 47.46875 24.109375 47.828125 
Q 26.265625 48.1875 28.421875 48.1875 
Q 40.625 48.1875 47.75 41.5 
Q 54.890625 34.8125 54.890625 23.390625 
Q 54.890625 11.625 47.5625 5.09375 
Q 40.234375 -1.421875 26.90625 -1.421875 
Q 22.3125 -1.421875 17.546875 -0.640625 
Q 12.796875 0.140625 7.71875 1.703125 
L 7.71875 11.625 
Q 12.109375 9.234375 16.796875 8.0625 
Q 21.484375 6.890625 26.703125 6.890625 
Q 35.15625 6.890625 40.078125 11.328125 
Q 45.015625 15.765625 45.015625 23.390625 
Q 45.015625 31 40.078125 35.4375 
Q 35.15625 39.890625 26.703125 39.890625 
Q 22.75 39.890625 18.8125 39.015625 
Q 14.890625 38.140625 10.796875 36.28125 
z
" id="DejaVuSans-53"/>
       </defs>
       <use xlink:href="#DejaVuSans-53"/>
      </g>
     </g>
    </g>
    <g id="ytick_9">
     <g id="line2d_20">
      <g>
       <use style="stroke:#000000;stroke-width:0.8;" x="1107.88" xlink:href="#m7277a66cbe" y="309.42692"/>
      </g>
     </g>
     <g id="text_13">
      <!-- 10 -->
      <g transform="translate(1114.88 313.226139)scale(0.1 -0.1)">
       <use xlink:href="#DejaVuSans-49"/>
       <use x="63.623047" xlink:href="#DejaVuSans-48"/>
      </g>
     </g>
    </g>
    <g id="ytick_10">
     <g id="line2d_21">
      <g>
       <use style="stroke:#000000;stroke-width:0.8;" x="1107.88" xlink:href="#m7277a66cbe" y="259.149575"/>
      </g>
     </g>
     <g id="text_14">
      <!-- 15 -->
      <g transform="translate(1114.88 262.948794)scale(0.1 -0.1)">
       <use xlink:href="#DejaVuSans-49"/>
       <use x="63.623047" xlink:href="#DejaVuSans-53"/>
      </g>
     </g>
    </g>
    <g id="ytick_11">
     <g id="line2d_22">
      <g>
       <use style="stroke:#000000;stroke-width:0.8;" x="1107.88" xlink:href="#m7277a66cbe" y="208.872229"/>
      </g>
     </g>
     <g id="text_15">
      <!-- 20 -->
      <g transform="translate(1114.88 212.671448)scale(0.1 -0.1)">
       <use xlink:href="#DejaVuSans-50"/>
       <use x="63.623047" xlink:href="#DejaVuSans-48"/>
      </g>
     </g>
    </g>
    <g id="ytick_12">
     <g id="line2d_23">
      <g>
       <use style="stroke:#000000;stroke-width:0.8;" x="1107.88" xlink:href="#m7277a66cbe" y="158.594884"/>
      </g>
     </g>
     <g id="text_16">
      <!-- 25 -->
      <g transform="translate(1114.88 162.394103)scale(0.1 -0.1)">
       <use xlink:href="#DejaVuSans-50"/>
       <use x="63.623047" xlink:href="#DejaVuSans-53"/>
      </g>
     </g>
    </g>
    <g id="ytick_13">
     <g id="line2d_24">
      <g>
       <use style="stroke:#000000;stroke-width:0.8;" x="1107.88" xlink:href="#m7277a66cbe" y="108.317538"/>
      </g>
     </g>
     <g id="text_17">
      <!-- 30 -->
      <g transform="translate(1114.88 112.116757)scale(0.1 -0.1)">
       <defs>
        <path d="M 40.578125 39.3125 
Q 47.65625 37.796875 51.625 33 
Q 55.609375 28.21875 55.609375 21.1875 
Q 55.609375 10.40625 48.1875 4.484375 
Q 40.765625 -1.421875 27.09375 -1.421875 
Q 22.515625 -1.421875 17.65625 -0.515625 
Q 12.796875 0.390625 7.625 2.203125 
L 7.625 11.71875 
Q 11.71875 9.328125 16.59375 8.109375 
Q 21.484375 6.890625 26.8125 6.890625 
Q 36.078125 6.890625 40.9375 10.546875 
Q 45.796875 14.203125 45.796875 21.1875 
Q 45.796875 27.640625 41.28125 31.265625 
Q 36.765625 34.90625 28.71875 34.90625 
L 20.21875 34.90625 
L 20.21875 43.015625 
L 29.109375 43.015625 
Q 36.375 43.015625 40.234375 45.921875 
Q 44.09375 48.828125 44.09375 54.296875 
Q 44.09375 59.90625 40.109375 62.90625 
Q 36.140625 65.921875 28.71875 65.921875 
Q 24.65625 65.921875 20.015625 65.03125 
Q 15.375 64.15625 9.8125 62.3125 
L 9.8125 71.09375 
Q 15.4375 72.65625 20.34375 73.4375 
Q 25.25 74.21875 29.59375 74.21875 
Q 40.828125 74.21875 47.359375 69.109375 
Q 53.90625 64.015625 53.90625 55.328125 
Q 53.90625 49.265625 50.4375 45.09375 
Q 46.96875 40.921875 40.578125 39.3125 
z
" id="DejaVuSans-51"/>
       </defs>
       <use xlink:href="#DejaVuSans-51"/>
       <use x="63.623047" xlink:href="#DejaVuSans-48"/>
      </g>
     </g>
    </g>
    <g id="ytick_14">
     <g id="line2d_25">
      <g>
       <use style="stroke:#000000;stroke-width:0.8;" x="1107.88" xlink:href="#m7277a66cbe" y="58.040193"/>
      </g>
     </g>
     <g id="text_18">
      <!-- 35 -->
      <g transform="translate(1114.88 61.839412)scale(0.1 -0.1)">
       <use xlink:href="#DejaVuSans-51"/>
       <use x="63.623047" xlink:href="#DejaVuSans-53"/>
      </g>
     </g>
    </g>
    <g id="text_19">
     <!-- IC cumsum -->
     <g transform="translate(1139.203437 253.3275)rotate(-90)scale(0.1 -0.1)">
      <defs>
       <path d="M 48.78125 52.59375 
L 48.78125 44.1875 
Q 44.96875 46.296875 41.140625 47.34375 
Q 37.3125 48.390625 33.40625 48.390625 
Q 24.65625 48.390625 19.8125 42.84375 
Q 14.984375 37.3125 14.984375 27.296875 
Q 14.984375 17.28125 19.8125 11.734375 
Q 24.65625 6.203125 33.40625 6.203125 
Q 37.3125 6.203125 41.140625 7.25 
Q 44.96875 8.296875 48.78125 10.40625 
L 48.78125 2.09375 
Q 45.015625 0.34375 40.984375 -0.53125 
Q 36.96875 -1.421875 32.421875 -1.421875 
Q 20.0625 -1.421875 12.78125 6.34375 
Q 5.515625 14.109375 5.515625 27.296875 
Q 5.515625 40.671875 12.859375 48.328125 
Q 20.21875 56 33.015625 56 
Q 37.15625 56 41.109375 55.140625 
Q 45.0625 54.296875 48.78125 52.59375 
z
" id="DejaVuSans-99"/>
       <path d="M 8.5 21.578125 
L 8.5 54.6875 
L 17.484375 54.6875 
L 17.484375 21.921875 
Q 17.484375 14.15625 20.5 10.265625 
Q 23.53125 6.390625 29.59375 6.390625 
Q 36.859375 6.390625 41.078125 11.03125 
Q 45.3125 15.671875 45.3125 23.6875 
L 45.3125 54.6875 
L 54.296875 54.6875 
L 54.296875 0 
L 45.3125 0 
L 45.3125 8.40625 
Q 42.046875 3.421875 37.71875 1 
Q 33.40625 -1.421875 27.6875 -1.421875 
Q 18.265625 -1.421875 13.375 4.4375 
Q 8.5 10.296875 8.5 21.578125 
z
M 31.109375 56 
z
" id="DejaVuSans-117"/>
       <path d="M 44.28125 53.078125 
L 44.28125 44.578125 
Q 40.484375 46.53125 36.375 47.5 
Q 32.28125 48.484375 27.875 48.484375 
Q 21.1875 48.484375 17.84375 46.4375 
Q 14.5 44.390625 14.5 40.28125 
Q 14.5 37.15625 16.890625 35.375 
Q 19.28125 33.59375 26.515625 31.984375 
L 29.59375 31.296875 
Q 39.15625 29.25 43.1875 25.515625 
Q 47.21875 21.78125 47.21875 15.09375 
Q 47.21875 7.46875 41.1875 3.015625 
Q 35.15625 -1.421875 24.609375 -1.421875 
Q 20.21875 -1.421875 15.453125 -0.5625 
Q 10.6875 0.296875 5.421875 2 
L 5.421875 11.28125 
Q 10.40625 8.6875 15.234375 7.390625 
Q 20.0625 6.109375 24.8125 6.109375 
Q 31.15625 6.109375 34.5625 8.28125 
Q 37.984375 10.453125 37.984375 14.40625 
Q 37.984375 18.0625 35.515625 20.015625 
Q 33.0625 21.96875 24.703125 23.78125 
L 21.578125 24.515625 
Q 13.234375 26.265625 9.515625 29.90625 
Q 5.8125 33.546875 5.8125 39.890625 
Q 5.8125 47.609375 11.28125 51.796875 
Q 16.75 56 26.8125 56 
Q 31.78125 56 36.171875 55.265625 
Q 40.578125 54.546875 44.28125 53.078125 
z
" id="DejaVuSans-115"/>
      </defs>
      <use xlink:href="#DejaVuSans-73"/>
      <use x="29.492188" xlink:href="#DejaVuSans-67"/>
      <use x="99.316406" xlink:href="#DejaVuSans-32"/>
      <use x="131.103516" xlink:href="#DejaVuSans-99"/>
      <use x="186.083984" xlink:href="#DejaVuSans-117"/>
      <use x="249.462891" xlink:href="#DejaVuSans-109"/>
      <use x="346.875" xlink:href="#DejaVuSans-115"/>
      <use x="398.974609" xlink:href="#DejaVuSans-117"/>
      <use x="462.353516" xlink:href="#DejaVuSans-109"/>
     </g>
    </g>
   </g>
   <g id="line2d_26">
    <path clip-path="url(#pb86fa9bf06)" d="M 98.944545 406.630909 
L 102.570549 403.133518 
L 106.196552 402.358066 
L 109.822556 402.099663 
L 113.448559 402.27656 
L 124.326569 401.701642 
L 127.952573 405.172587 
L 131.578576 403.189294 
L 135.20458 398.80393 
L 138.830583 398.192348 
L 149.708593 394.788053 
L 153.334597 393.303098 
L 156.9606 392.59112 
L 160.586604 389.652137 
L 164.212607 388.064676 
L 175.090617 385.862851 
L 178.716621 391.396714 
L 182.342624 394.810686 
L 185.968628 400.342412 
L 189.594631 403.632169 
L 200.472642 401.684353 
L 204.098645 398.86101 
L 207.724648 397.91484 
L 211.350652 395.585673 
L 214.976655 392.234839 
L 225.854666 391.613102 
L 229.480669 388.819778 
L 233.106672 387.878275 
L 236.732676 384.15526 
L 240.358679 381.919252 
L 251.23669 383.331032 
L 254.862693 385.429625 
L 258.488696 385.398767 
L 262.1147 385.185638 
L 265.740703 384.537084 
L 276.618714 384.592826 
L 280.244717 381.841065 
L 283.87072 380.263869 
L 287.496724 376.165423 
L 291.122727 370.759427 
L 302.000738 368.054571 
L 305.626741 362.862326 
L 309.252744 359.363554 
L 312.878748 355.59057 
L 316.504751 352.874311 
L 327.382762 350.320962 
L 331.008765 350.211998 
L 334.634768 350.37968 
L 338.260772 352.114764 
L 341.886775 354.707526 
L 352.764786 357.185693 
L 356.390789 352.760136 
L 360.016792 353.863475 
L 363.642796 352.727517 
L 367.268799 354.178403 
L 378.14681 353.287051 
L 381.772813 351.739491 
L 385.398816 350.602838 
L 389.02482 345.453584 
L 392.650823 340.816657 
L 403.528834 339.031203 
L 407.154837 334.013852 
L 410.78084 328.321781 
L 414.406844 327.390988 
L 418.032847 321.749951 
L 428.910858 318.0572 
L 432.536861 315.232502 
L 439.788868 302.753594 
L 443.414871 297.751312 
L 454.292882 293.552399 
L 457.918885 287.986434 
L 461.544889 283.605499 
L 465.170892 276.823911 
L 468.796895 275.498469 
L 479.674906 275.042103 
L 483.300909 272.58653 
L 486.926913 270.863961 
L 490.552916 272.433348 
L 494.178919 270.6874 
L 505.05693 272.528658 
L 508.682933 274.599105 
L 512.308937 275.951399 
L 519.560943 279.302075 
L 530.438954 276.220427 
L 534.064957 272.677195 
L 537.690961 271.153989 
L 541.316964 269.243464 
L 544.942967 265.264248 
L 555.820978 261.916487 
L 559.446981 259.041782 
L 563.072985 256.499328 
L 566.698988 255.55417 
L 570.324991 254.407024 
L 581.203002 252.125877 
L 584.829005 249.596246 
L 588.455009 244.685728 
L 592.081012 238.960191 
L 595.707015 234.753727 
L 606.585026 233.708779 
L 610.211029 229.956423 
L 617.463036 217.968902 
L 621.089039 210.682679 
L 631.96705 204.830101 
L 635.593053 199.964232 
L 639.219057 194.167664 
L 642.84506 188.153978 
L 646.471063 184.450626 
L 657.349074 182.641841 
L 660.975077 180.474438 
L 668.227084 175.25993 
L 671.853087 175.445476 
L 682.731098 173.119533 
L 686.357101 172.538525 
L 689.983105 171.661463 
L 693.609108 172.05443 
L 697.235111 171.358952 
L 708.113122 170.409161 
L 711.739125 165.949544 
L 715.365129 163.414974 
L 718.991132 160.096297 
L 722.617136 157.119009 
L 733.495146 156.54406 
L 737.121149 152.489064 
L 740.747153 151.051315 
L 744.373156 150.217096 
L 747.99916 147.905839 
L 758.87717 143.409549 
L 762.503173 140.098874 
L 766.129177 137.100643 
L 769.75518 129.011534 
L 773.381184 120.119711 
L 784.259194 113.599302 
L 787.885197 105.525477 
L 795.137204 90.381992 
L 798.763208 84.233035 
L 809.641218 81.264536 
L 813.267221 75.430586 
L 816.893225 74.005862 
L 824.145232 67.811716 
L 835.023242 63.900825 
L 838.649245 59.435514 
L 842.275249 56.976881 
L 845.901252 54.300749 
L 849.527256 52.593546 
L 860.405266 51.537258 
L 864.031269 56.624406 
L 867.657273 58.673658 
L 871.283276 56.305019 
L 874.90928 55.12066 
L 885.78729 53.012088 
L 889.413293 54.00468 
L 893.039297 53.093824 
L 896.6653 54.469907 
L 900.291304 52.769668 
L 911.169314 49.889788 
L 914.795317 45.69212 
L 918.421321 44.436325 
L 922.047324 44.049091 
L 925.673328 45.276089 
L 936.551338 47.869559 
L 940.177341 52.339511 
L 943.803345 55.566082 
L 947.429348 57.947688 
L 951.055352 62.930907 
L 961.933362 66.961656 
L 965.559365 66.708337 
L 969.185369 71.529076 
L 972.811372 75.414565 
L 976.437376 80.306578 
L 987.315386 80.240564 
L 990.941389 80.695068 
L 994.567393 80.989566 
L 998.193396 78.287771 
L 1001.8194 73.138904 
L 1012.69741 73.280289 
L 1016.323413 70.427303 
L 1023.57542 63.217632 
L 1027.201424 58.268508 
L 1038.079434 56.271273 
L 1041.705437 54.812463 
L 1045.331441 55.216392 
L 1048.957444 56.103632 
L 1052.583448 54.144202 
L 1052.583448 54.144202 
" style="fill:none;stroke:#ff0000;stroke-linecap:square;stroke-width:1.5;"/>
   </g>
   <g id="patch_49">
    <path d="M 50.9 424.76 
L 50.9 25.92 
" style="fill:none;stroke:#000000;stroke-linecap:square;stroke-linejoin:miter;stroke-width:0.8;"/>
   </g>
   <g id="patch_50">
    <path d="M 1107.88 424.76 
L 1107.88 25.92 
" style="fill:none;stroke:#000000;stroke-linecap:square;stroke-linejoin:miter;stroke-width:0.8;"/>
   </g>
   <g id="patch_51">
    <path d="M 50.9 424.76 
L 1107.88 424.76 
" style="fill:none;stroke:#000000;stroke-linecap:square;stroke-linejoin:miter;stroke-width:0.8;"/>
   </g>
   <g id="patch_52">
    <path d="M 50.9 25.92 
L 1107.88 25.92 
" style="fill:none;stroke:#000000;stroke-linecap:square;stroke-linejoin:miter;stroke-width:0.8;"/>
   </g>
   <g id="legend_2">
    <g id="patch_53">
     <path d="M 985.775312 48.598125 
L 1100.88 48.598125 
Q 1102.88 48.598125 1102.88 46.598125 
L 1102.88 32.92 
Q 1102.88 30.92 1100.88 30.92 
L 985.775312 30.92 
Q 983.775312 30.92 983.775312 32.92 
L 983.775312 46.598125 
Q 983.775312 48.598125 985.775312 48.598125 
z
" style="fill:#ffffff;opacity:0.8;stroke:#cccccc;stroke-linejoin:miter;"/>
    </g>
    <g id="line2d_27">
     <path d="M 987.775312 39.018438 
L 1007.775312 39.018438 
" style="fill:none;stroke:#ff0000;stroke-linecap:square;stroke-width:1.5;"/>
    </g>
    <g id="line2d_28"/>
    <g id="text_20">
     <!-- daily IC cumsum -->
     <g transform="translate(1015.775312 42.518438)scale(0.1 -0.1)">
      <defs>
       <path d="M 45.40625 46.390625 
L 45.40625 75.984375 
L 54.390625 75.984375 
L 54.390625 0 
L 45.40625 0 
L 45.40625 8.203125 
Q 42.578125 3.328125 38.25 0.953125 
Q 33.9375 -1.421875 27.875 -1.421875 
Q 17.96875 -1.421875 11.734375 6.484375 
Q 5.515625 14.40625 5.515625 27.296875 
Q 5.515625 40.1875 11.734375 48.09375 
Q 17.96875 56 27.875 56 
Q 33.9375 56 38.25 53.625 
Q 42.578125 51.265625 45.40625 46.390625 
z
M 14.796875 27.296875 
Q 14.796875 17.390625 18.875 11.75 
Q 22.953125 6.109375 30.078125 6.109375 
Q 37.203125 6.109375 41.296875 11.75 
Q 45.40625 17.390625 45.40625 27.296875 
Q 45.40625 37.203125 41.296875 42.84375 
Q 37.203125 48.484375 30.078125 48.484375 
Q 22.953125 48.484375 18.875 42.84375 
Q 14.796875 37.203125 14.796875 27.296875 
z
" id="DejaVuSans-100"/>
       <path d="M 9.421875 54.6875 
L 18.40625 54.6875 
L 18.40625 0 
L 9.421875 0 
z
M 9.421875 75.984375 
L 18.40625 75.984375 
L 18.40625 64.59375 
L 9.421875 64.59375 
z
" id="DejaVuSans-105"/>
      </defs>
      <use xlink:href="#DejaVuSans-100"/>
      <use x="63.476562" xlink:href="#DejaVuSans-97"/>
      <use x="124.755859" xlink:href="#DejaVuSans-105"/>
      <use x="152.539062" xlink:href="#DejaVuSans-108"/>
      <use x="180.322266" xlink:href="#DejaVuSans-121"/>
      <use x="239.501953" xlink:href="#DejaVuSans-32"/>
      <use x="271.289062" xlink:href="#DejaVuSans-73"/>
      <use x="300.78125" xlink:href="#DejaVuSans-67"/>
      <use x="370.605469" xlink:href="#DejaVuSans-32"/>
      <use x="402.392578" xlink:href="#DejaVuSans-99"/>
      <use x="457.373047" xlink:href="#DejaVuSans-117"/>
      <use x="520.751953" xlink:href="#DejaVuSans-109"/>
      <use x="618.164062" xlink:href="#DejaVuSans-115"/>
      <use x="670.263672" xlink:href="#DejaVuSans-117"/>
      <use x="733.642578" xlink:href="#DejaVuSans-109"/>
     </g>
    </g>
   </g>
  </g>
  <g id="axes_3">
   <g id="matplotlib.axis_4">
    <g id="ytick_15">
     <g id="line2d_29">
      <g>
       <use style="stroke:#000000;stroke-width:0.8;" x="1107.88" xlink:href="#m7277a66cbe" y="424.76"/>
      </g>
     </g>
    </g>
    <g id="ytick_16">
     <g id="line2d_30">
      <g>
       <use style="stroke:#000000;stroke-width:0.8;" x="1107.88" xlink:href="#m7277a66cbe" y="344.992"/>
      </g>
     </g>
    </g>
    <g id="ytick_17">
     <g id="line2d_31">
      <g>
       <use style="stroke:#000000;stroke-width:0.8;" x="1107.88" xlink:href="#m7277a66cbe" y="265.224"/>
      </g>
     </g>
    </g>
    <g id="ytick_18">
     <g id="line2d_32">
      <g>
       <use style="stroke:#000000;stroke-width:0.8;" x="1107.88" xlink:href="#m7277a66cbe" y="185.456"/>
      </g>
     </g>
    </g>
    <g id="ytick_19">
     <g id="line2d_33">
      <g>
       <use style="stroke:#000000;stroke-width:0.8;" x="1107.88" xlink:href="#m7277a66cbe" y="105.688"/>
      </g>
     </g>
    </g>
    <g id="ytick_20">
     <g id="line2d_34">
      <g>
       <use style="stroke:#000000;stroke-width:0.8;" x="1107.88" xlink:href="#m7277a66cbe" y="25.92"/>
      </g>
     </g>
    </g>
   </g>
   <g id="patch_54">
    <path d="M 50.9 424.76 
L 50.9 25.92 
" style="fill:none;stroke:#000000;stroke-linecap:square;stroke-linejoin:miter;stroke-width:0.8;"/>
   </g>
   <g id="patch_55">
    <path d="M 1107.88 424.76 
L 1107.88 25.92 
" style="fill:none;stroke:#000000;stroke-linecap:square;stroke-linejoin:miter;stroke-width:0.8;"/>
   </g>
   <g id="patch_56">
    <path d="M 50.9 424.76 
L 1107.88 424.76 
" style="fill:none;stroke:#000000;stroke-linecap:square;stroke-linejoin:miter;stroke-width:0.8;"/>
   </g>
   <g id="patch_57">
    <path d="M 50.9 25.92 
L 1107.88 25.92 
" style="fill:none;stroke:#000000;stroke-linecap:square;stroke-linejoin:miter;stroke-width:0.8;"/>
   </g>
   <g id="text_21">
    <!-- IC: (2010-01-04 ~ 2010-10-08) -->
    <g transform="translate(486.24 19.92)scale(0.12 -0.12)">
     <defs>
      <path d="M 11.71875 12.40625 
L 22.015625 12.40625 
L 22.015625 0 
L 11.71875 0 
z
M 11.71875 51.703125 
L 22.015625 51.703125 
L 22.015625 39.3125 
L 11.71875 39.3125 
z
" id="DejaVuSans-58"/>
      <path d="M 31 75.875 
Q 24.46875 64.65625 21.28125 53.65625 
Q 18.109375 42.671875 18.109375 31.390625 
Q 18.109375 20.125 21.3125 9.0625 
Q 24.515625 -2 31 -13.1875 
L 23.1875 -13.1875 
Q 15.875 -1.703125 12.234375 9.375 
Q 8.59375 20.453125 8.59375 31.390625 
Q 8.59375 42.28125 12.203125 53.3125 
Q 15.828125 64.359375 23.1875 75.875 
z
" id="DejaVuSans-40"/>
      <path d="M 73.1875 39.890625 
L 73.1875 31.203125 
Q 68.0625 27.34375 63.6875 25.6875 
Q 59.328125 24.03125 54.59375 24.03125 
Q 49.21875 24.03125 42.09375 26.90625 
Q 41.546875 27.09375 41.3125 27.203125 
Q 40.96875 27.34375 40.234375 27.59375 
Q 32.671875 30.609375 28.078125 30.609375 
Q 23.78125 30.609375 19.578125 28.734375 
Q 15.375 26.859375 10.59375 22.796875 
L 10.59375 31.5 
Q 15.71875 35.359375 20.09375 37.03125 
Q 24.46875 38.71875 29.203125 38.71875 
Q 34.578125 38.71875 41.75 35.796875 
Q 42.234375 35.59375 42.484375 35.5 
Q 42.875 35.359375 43.5625 35.109375 
Q 51.125 32.078125 55.71875 32.078125 
Q 59.90625 32.078125 64.03125 33.9375 
Q 68.171875 35.796875 73.1875 39.890625 
z
" id="DejaVuSans-126"/>
      <path d="M 31.78125 34.625 
Q 24.75 34.625 20.71875 30.859375 
Q 16.703125 27.09375 16.703125 20.515625 
Q 16.703125 13.921875 20.71875 10.15625 
Q 24.75 6.390625 31.78125 6.390625 
Q 38.8125 6.390625 42.859375 10.171875 
Q 46.921875 13.96875 46.921875 20.515625 
Q 46.921875 27.09375 42.890625 30.859375 
Q 38.875 34.625 31.78125 34.625 
z
M 21.921875 38.8125 
Q 15.578125 40.375 12.03125 44.71875 
Q 8.5 49.078125 8.5 55.328125 
Q 8.5 64.0625 14.71875 69.140625 
Q 20.953125 74.21875 31.78125 74.21875 
Q 42.671875 74.21875 48.875 69.140625 
Q 55.078125 64.0625 55.078125 55.328125 
Q 55.078125 49.078125 51.53125 44.71875 
Q 48 40.375 41.703125 38.8125 
Q 48.828125 37.15625 52.796875 32.3125 
Q 56.78125 27.484375 56.78125 20.515625 
Q 56.78125 9.90625 50.3125 4.234375 
Q 43.84375 -1.421875 31.78125 -1.421875 
Q 19.734375 -1.421875 13.25 4.234375 
Q 6.78125 9.90625 6.78125 20.515625 
Q 6.78125 27.484375 10.78125 32.3125 
Q 14.796875 37.15625 21.921875 38.8125 
z
M 18.3125 54.390625 
Q 18.3125 48.734375 21.84375 45.5625 
Q 25.390625 42.390625 31.78125 42.390625 
Q 38.140625 42.390625 41.71875 45.5625 
Q 45.3125 48.734375 45.3125 54.390625 
Q 45.3125 60.0625 41.71875 63.234375 
Q 38.140625 66.40625 31.78125 66.40625 
Q 25.390625 66.40625 21.84375 63.234375 
Q 18.3125 60.0625 18.3125 54.390625 
z
" id="DejaVuSans-56"/>
      <path d="M 8.015625 75.875 
L 15.828125 75.875 
Q 23.140625 64.359375 26.78125 53.3125 
Q 30.421875 42.28125 30.421875 31.390625 
Q 30.421875 20.453125 26.78125 9.375 
Q 23.140625 -1.703125 15.828125 -13.1875 
L 8.015625 -13.1875 
Q 14.5 -2 17.703125 9.0625 
Q 20.90625 20.125 20.90625 31.390625 
Q 20.90625 42.671875 17.703125 53.65625 
Q 14.5 64.65625 8.015625 75.875 
z
" id="DejaVuSans-41"/>
     </defs>
     <use xlink:href="#DejaVuSans-73"/>
     <use x="29.492188" xlink:href="#DejaVuSans-67"/>
     <use x="99.316406" xlink:href="#DejaVuSans-58"/>
     <use x="133.007812" xlink:href="#DejaVuSans-32"/>
     <use x="164.794922" xlink:href="#DejaVuSans-40"/>
     <use x="203.808594" xlink:href="#DejaVuSans-50"/>
     <use x="267.431641" xlink:href="#DejaVuSans-48"/>
     <use x="331.054688" xlink:href="#DejaVuSans-49"/>
     <use x="394.677734" xlink:href="#DejaVuSans-48"/>
     <use x="458.300781" xlink:href="#DejaVuSans-45"/>
     <use x="494.384766" xlink:href="#DejaVuSans-48"/>
     <use x="558.007812" xlink:href="#DejaVuSans-49"/>
     <use x="621.630859" xlink:href="#DejaVuSans-45"/>
     <use x="657.714844" xlink:href="#DejaVuSans-48"/>
     <use x="721.337891" xlink:href="#DejaVuSans-52"/>
     <use x="784.960938" xlink:href="#DejaVuSans-32"/>
     <use x="816.748047" xlink:href="#DejaVuSans-126"/>
     <use x="900.537109" xlink:href="#DejaVuSans-32"/>
     <use x="932.324219" xlink:href="#DejaVuSans-50"/>
     <use x="995.947266" xlink:href="#DejaVuSans-48"/>
     <use x="1059.570312" xlink:href="#DejaVuSans-49"/>
     <use x="1123.193359" xlink:href="#DejaVuSans-48"/>
     <use x="1186.816406" xlink:href="#DejaVuSans-45"/>
     <use x="1222.900391" xlink:href="#DejaVuSans-49"/>
     <use x="1286.523438" xlink:href="#DejaVuSans-48"/>
     <use x="1350.146484" xlink:href="#DejaVuSans-45"/>
     <use x="1386.230469" xlink:href="#DejaVuSans-48"/>
     <use x="1449.853516" xlink:href="#DejaVuSans-56"/>
     <use x="1513.476562" xlink:href="#DejaVuSans-41"/>
    </g>
   </g>
   <g id="legend_3">
    <g id="patch_58">
     <path d="M 505.847812 92.6325 
L 652.932187 92.6325 
Q 654.932187 92.6325 654.932187 90.6325 
L 654.932187 32.92 
Q 654.932187 30.92 652.932187 30.92 
L 505.847812 30.92 
Q 503.847812 30.92 503.847812 32.92 
L 503.847812 90.6325 
Q 503.847812 92.6325 505.847812 92.6325 
z
" style="fill:#ffffff;opacity:0.8;stroke:#cccccc;stroke-linejoin:miter;"/>
    </g>
    <g id="line2d_35"/>
    <g id="line2d_36"/>
    <g id="text_22">
     <!-- IC mean:   0.1862         -->
     <g transform="translate(535.847812 42.518438)scale(0.1 -0.1)">
      <use xlink:href="#DejaVuSans-73"/>
      <use x="29.492188" xlink:href="#DejaVuSans-67"/>
      <use x="99.316406" xlink:href="#DejaVuSans-32"/>
      <use x="131.103516" xlink:href="#DejaVuSans-109"/>
      <use x="228.515625" xlink:href="#DejaVuSans-101"/>
      <use x="290.039062" xlink:href="#DejaVuSans-97"/>
      <use x="351.318359" xlink:href="#DejaVuSans-110"/>
      <use x="414.697266" xlink:href="#DejaVuSans-58"/>
      <use x="448.388672" xlink:href="#DejaVuSans-32"/>
      <use x="480.175781" xlink:href="#DejaVuSans-32"/>
      <use x="511.962891" xlink:href="#DejaVuSans-32"/>
      <use x="543.75" xlink:href="#DejaVuSans-48"/>
      <use x="607.373047" xlink:href="#DejaVuSans-46"/>
      <use x="639.160156" xlink:href="#DejaVuSans-49"/>
      <use x="702.783203" xlink:href="#DejaVuSans-56"/>
      <use x="766.40625" xlink:href="#DejaVuSans-54"/>
      <use x="830.029297" xlink:href="#DejaVuSans-50"/>
      <use x="893.652344" xlink:href="#DejaVuSans-32"/>
      <use x="925.439453" xlink:href="#DejaVuSans-32"/>
      <use x="957.226562" xlink:href="#DejaVuSans-32"/>
      <use x="989.013672" xlink:href="#DejaVuSans-32"/>
      <use x="1020.800781" xlink:href="#DejaVuSans-32"/>
      <use x="1052.587891" xlink:href="#DejaVuSans-32"/>
      <use x="1084.375" xlink:href="#DejaVuSans-32"/>
      <use x="1116.162109" xlink:href="#DejaVuSans-32"/>
     </g>
    </g>
    <g id="line2d_37"/>
    <g id="line2d_38"/>
    <g id="text_23">
     <!-- IC std:       0.2882         -->
     <g transform="translate(535.847812 57.196563)scale(0.1 -0.1)">
      <defs>
       <path d="M 18.3125 70.21875 
L 18.3125 54.6875 
L 36.8125 54.6875 
L 36.8125 47.703125 
L 18.3125 47.703125 
L 18.3125 18.015625 
Q 18.3125 11.328125 20.140625 9.421875 
Q 21.96875 7.515625 27.59375 7.515625 
L 36.8125 7.515625 
L 36.8125 0 
L 27.59375 0 
Q 17.1875 0 13.234375 3.875 
Q 9.28125 7.765625 9.28125 18.015625 
L 9.28125 47.703125 
L 2.6875 47.703125 
L 2.6875 54.6875 
L 9.28125 54.6875 
L 9.28125 70.21875 
z
" id="DejaVuSans-116"/>
      </defs>
      <use xlink:href="#DejaVuSans-73"/>
      <use x="29.492188" xlink:href="#DejaVuSans-67"/>
      <use x="99.316406" xlink:href="#DejaVuSans-32"/>
      <use x="131.103516" xlink:href="#DejaVuSans-115"/>
      <use x="183.203125" xlink:href="#DejaVuSans-116"/>
      <use x="222.412109" xlink:href="#DejaVuSans-100"/>
      <use x="285.888672" xlink:href="#DejaVuSans-58"/>
      <use x="319.580078" xlink:href="#DejaVuSans-32"/>
      <use x="351.367188" xlink:href="#DejaVuSans-32"/>
      <use x="383.154297" xlink:href="#DejaVuSans-32"/>
      <use x="414.941406" xlink:href="#DejaVuSans-32"/>
      <use x="446.728516" xlink:href="#DejaVuSans-32"/>
      <use x="478.515625" xlink:href="#DejaVuSans-32"/>
      <use x="510.302734" xlink:href="#DejaVuSans-32"/>
      <use x="542.089844" xlink:href="#DejaVuSans-48"/>
      <use x="605.712891" xlink:href="#DejaVuSans-46"/>
      <use x="637.5" xlink:href="#DejaVuSans-50"/>
      <use x="701.123047" xlink:href="#DejaVuSans-56"/>
      <use x="764.746094" xlink:href="#DejaVuSans-56"/>
      <use x="828.369141" xlink:href="#DejaVuSans-50"/>
      <use x="891.992188" xlink:href="#DejaVuSans-32"/>
      <use x="923.779297" xlink:href="#DejaVuSans-32"/>
      <use x="955.566406" xlink:href="#DejaVuSans-32"/>
      <use x="987.353516" xlink:href="#DejaVuSans-32"/>
      <use x="1019.140625" xlink:href="#DejaVuSans-32"/>
      <use x="1050.927734" xlink:href="#DejaVuSans-32"/>
      <use x="1082.714844" xlink:href="#DejaVuSans-32"/>
      <use x="1114.501953" xlink:href="#DejaVuSans-32"/>
     </g>
    </g>
    <g id="line2d_39"/>
    <g id="line2d_40"/>
    <g id="text_24">
     <!-- IC IR:         0.6462         -->
     <g transform="translate(535.847812 71.874688)scale(0.1 -0.1)">
      <defs>
       <path d="M 44.390625 34.1875 
Q 47.5625 33.109375 50.5625 29.59375 
Q 53.5625 26.078125 56.59375 19.921875 
L 66.609375 0 
L 56 0 
L 46.6875 18.703125 
Q 43.0625 26.03125 39.671875 28.421875 
Q 36.28125 30.8125 30.421875 30.8125 
L 19.671875 30.8125 
L 19.671875 0 
L 9.8125 0 
L 9.8125 72.90625 
L 32.078125 72.90625 
Q 44.578125 72.90625 50.734375 67.671875 
Q 56.890625 62.453125 56.890625 51.90625 
Q 56.890625 45.015625 53.6875 40.46875 
Q 50.484375 35.9375 44.390625 34.1875 
z
M 19.671875 64.796875 
L 19.671875 38.921875 
L 32.078125 38.921875 
Q 39.203125 38.921875 42.84375 42.21875 
Q 46.484375 45.515625 46.484375 51.90625 
Q 46.484375 58.296875 42.84375 61.546875 
Q 39.203125 64.796875 32.078125 64.796875 
z
" id="DejaVuSans-82"/>
      </defs>
      <use xlink:href="#DejaVuSans-73"/>
      <use x="29.492188" xlink:href="#DejaVuSans-67"/>
      <use x="99.316406" xlink:href="#DejaVuSans-32"/>
      <use x="131.103516" xlink:href="#DejaVuSans-73"/>
      <use x="160.595703" xlink:href="#DejaVuSans-82"/>
      <use x="226.953125" xlink:href="#DejaVuSans-58"/>
      <use x="260.644531" xlink:href="#DejaVuSans-32"/>
      <use x="292.431641" xlink:href="#DejaVuSans-32"/>
      <use x="324.21875" xlink:href="#DejaVuSans-32"/>
      <use x="356.005859" xlink:href="#DejaVuSans-32"/>
      <use x="387.792969" xlink:href="#DejaVuSans-32"/>
      <use x="419.580078" xlink:href="#DejaVuSans-32"/>
      <use x="451.367188" xlink:href="#DejaVuSans-32"/>
      <use x="483.154297" xlink:href="#DejaVuSans-32"/>
      <use x="514.941406" xlink:href="#DejaVuSans-32"/>
      <use x="546.728516" xlink:href="#DejaVuSans-48"/>
      <use x="610.351562" xlink:href="#DejaVuSans-46"/>
      <use x="642.138672" xlink:href="#DejaVuSans-54"/>
      <use x="705.761719" xlink:href="#DejaVuSans-52"/>
      <use x="769.384766" xlink:href="#DejaVuSans-54"/>
      <use x="833.007812" xlink:href="#DejaVuSans-50"/>
      <use x="896.630859" xlink:href="#DejaVuSans-32"/>
      <use x="928.417969" xlink:href="#DejaVuSans-32"/>
      <use x="960.205078" xlink:href="#DejaVuSans-32"/>
      <use x="991.992188" xlink:href="#DejaVuSans-32"/>
      <use x="1023.779297" xlink:href="#DejaVuSans-32"/>
      <use x="1055.566406" xlink:href="#DejaVuSans-32"/>
      <use x="1087.353516" xlink:href="#DejaVuSans-32"/>
      <use x="1119.140625" xlink:href="#DejaVuSans-32"/>
     </g>
    </g>
    <g id="line2d_41"/>
    <g id="line2d_42"/>
    <g id="text_25">
     <!-- IC (+)rate: 0.7400 -->
     <g transform="translate(535.847812 86.552813)scale(0.1 -0.1)">
      <defs>
       <path d="M 46 62.703125 
L 46 35.5 
L 73.1875 35.5 
L 73.1875 27.203125 
L 46 27.203125 
L 46 0 
L 37.796875 0 
L 37.796875 27.203125 
L 10.59375 27.203125 
L 10.59375 35.5 
L 37.796875 35.5 
L 37.796875 62.703125 
z
" id="DejaVuSans-43"/>
       <path d="M 41.109375 46.296875 
Q 39.59375 47.171875 37.8125 47.578125 
Q 36.03125 48 33.890625 48 
Q 26.265625 48 22.1875 43.046875 
Q 18.109375 38.09375 18.109375 28.8125 
L 18.109375 0 
L 9.078125 0 
L 9.078125 54.6875 
L 18.109375 54.6875 
L 18.109375 46.1875 
Q 20.953125 51.171875 25.484375 53.578125 
Q 30.03125 56 36.53125 56 
Q 37.453125 56 38.578125 55.875 
Q 39.703125 55.765625 41.0625 55.515625 
z
" id="DejaVuSans-114"/>
       <path d="M 8.203125 72.90625 
L 55.078125 72.90625 
L 55.078125 68.703125 
L 28.609375 0 
L 18.3125 0 
L 43.21875 64.59375 
L 8.203125 64.59375 
z
" id="DejaVuSans-55"/>
      </defs>
      <use xlink:href="#DejaVuSans-73"/>
      <use x="29.492188" xlink:href="#DejaVuSans-67"/>
      <use x="99.316406" xlink:href="#DejaVuSans-32"/>
      <use x="131.103516" xlink:href="#DejaVuSans-40"/>
      <use x="170.117188" xlink:href="#DejaVuSans-43"/>
      <use x="253.90625" xlink:href="#DejaVuSans-41"/>
      <use x="292.919922" xlink:href="#DejaVuSans-114"/>
      <use x="334.033203" xlink:href="#DejaVuSans-97"/>
      <use x="395.3125" xlink:href="#DejaVuSans-116"/>
      <use x="434.521484" xlink:href="#DejaVuSans-101"/>
      <use x="496.044922" xlink:href="#DejaVuSans-58"/>
      <use x="529.736328" xlink:href="#DejaVuSans-32"/>
      <use x="561.523438" xlink:href="#DejaVuSans-48"/>
      <use x="625.146484" xlink:href="#DejaVuSans-46"/>
      <use x="656.933594" xlink:href="#DejaVuSans-55"/>
      <use x="720.556641" xlink:href="#DejaVuSans-52"/>
      <use x="784.179688" xlink:href="#DejaVuSans-48"/>
      <use x="847.802734" xlink:href="#DejaVuSans-48"/>
     </g>
    </g>
   </g>
  </g>
 </g>
 <defs>
  <clipPath id="pb86fa9bf06">
   <rect height="398.84" width="1056.98" x="50.9" y="25.92"/>
  </clipPath>
 </defs>
</svg>
