<?xml version="1.0" encoding="utf-8" standalone="no"?>
<!DOCTYPE svg PUBLIC "-//W3C//DTD SVG 1.1//EN"
  "http://www.w3.org/Graphics/SVG/1.1/DTD/svg11.dtd">
<!-- Created with matplotlib (https://matplotlib.org/) -->
<svg height="468pt" version="1.1" viewBox="0 0 1152 468" width="1152pt" xmlns="http://www.w3.org/2000/svg" xmlns:xlink="http://www.w3.org/1999/xlink">
 <metadata>
  <rdf:RDF xmlns:cc="http://creativecommons.org/ns#" xmlns:dc="http://purl.org/dc/elements/1.1/" xmlns:rdf="http://www.w3.org/1999/02/22-rdf-syntax-ns#">
   <cc:Work>
    <dc:type rdf:resource="http://purl.org/dc/dcmitype/StillImage"/>
    <dc:date>2023-10-11T16:58:26.508883</dc:date>
    <dc:format>image/svg+xml</dc:format>
    <dc:creator>
     <cc:Agent>
      <dc:title>Matplotlib v3.3.4, https://matplotlib.org/</dc:title>
     </cc:Agent>
    </dc:creator>
   </cc:Work>
  </rdf:RDF>
 </metadata>
 <defs>
  <style type="text/css">*{stroke-linecap:butt;stroke-linejoin:round;}</style>
 </defs>
 <g id="figure_1">
  <g id="patch_1">
   <path d="M 0 468 
L 1152 468 
L 1152 0 
L 0 0 
z
" style="fill:#ffffff;"/>
  </g>
  <g id="axes_1">
   <g id="patch_2">
    <path d="M 50.9 424.76 
L 1107.88 424.76 
L 1107.88 25.92 
L 50.9 25.92 
z
" style="fill:#ffffff;"/>
   </g>
   <g id="patch_3">
    <path clip-path="url(#pee9dbb6813)" d="M 119.608866 246.790451 
L 102.388599 246.790451 
L 102.388599 172.751797 
L 119.608866 172.751797 
z
" style="fill:#1f77b4;"/>
   </g>
   <g id="patch_4">
    <path clip-path="url(#pee9dbb6813)" d="M 143.71724 246.790451 
L 126.496973 246.790451 
L 126.496973 327.748605 
L 143.71724 327.748605 
z
" style="fill:#1f77b4;"/>
   </g>
   <g id="patch_5">
    <path clip-path="url(#pee9dbb6813)" d="M 167.825614 246.790451 
L 150.605347 246.790451 
L 150.605347 175.519598 
L 167.825614 175.519598 
z
" style="fill:#1f77b4;"/>
   </g>
   <g id="patch_6">
    <path clip-path="url(#pee9dbb6813)" d="M 191.933988 246.790451 
L 174.713721 246.790451 
L 174.713721 348.507106 
L 191.933988 348.507106 
z
" style="fill:#1f77b4;"/>
   </g>
   <g id="patch_7">
    <path clip-path="url(#pee9dbb6813)" d="M 216.042362 246.790451 
L 198.822095 246.790451 
L 198.822095 290.383303 
L 216.042362 290.383303 
z
" style="fill:#1f77b4;"/>
   </g>
   <g id="patch_8">
    <path clip-path="url(#pee9dbb6813)" d="M 240.150736 246.790451 
L 222.930469 246.790451 
L 222.930469 212.884899 
L 240.150736 212.884899 
z
" style="fill:#1f77b4;"/>
   </g>
   <g id="patch_9">
    <path clip-path="url(#pee9dbb6813)" d="M 264.25911 246.790451 
L 247.038843 246.790451 
L 247.038843 230.8756 
L 264.25911 230.8756 
z
" style="fill:#1f77b4;"/>
   </g>
   <g id="patch_10">
    <path clip-path="url(#pee9dbb6813)" d="M 288.367485 246.790451 
L 271.147217 246.790451 
L 271.147217 324.980805 
L 288.367485 324.980805 
z
" style="fill:#1f77b4;"/>
   </g>
   <g id="patch_11">
    <path clip-path="url(#pee9dbb6813)" d="M 312.475859 246.790451 
L 295.255591 246.790451 
L 295.255591 215.6527 
L 312.475859 215.6527 
z
" style="fill:#1f77b4;"/>
   </g>
   <g id="patch_12">
    <path clip-path="url(#pee9dbb6813)" d="M 336.584233 246.790451 
L 319.363965 246.790451 
L 319.363965 165.832297 
L 336.584233 165.832297 
z
" style="fill:#1f77b4;"/>
   </g>
   <g id="patch_13">
    <path clip-path="url(#pee9dbb6813)" d="M 360.692607 246.790451 
L 343.47234 246.790451 
L 343.47234 273.776502 
L 360.692607 273.776502 
z
" style="fill:#1f77b4;"/>
   </g>
   <g id="patch_14">
    <path clip-path="url(#pee9dbb6813)" d="M 384.800981 246.790451 
L 367.580714 246.790451 
L 367.580714 183.822998 
L 384.800981 183.822998 
z
" style="fill:#1f77b4;"/>
   </g>
   <g id="patch_15">
    <path clip-path="url(#pee9dbb6813)" d="M 408.909355 246.790451 
L 391.689088 246.790451 
L 391.689088 243.330701 
L 408.909355 243.330701 
z
" style="fill:#1f77b4;"/>
   </g>
   <g id="patch_16">
    <path clip-path="url(#pee9dbb6813)" d="M 433.017729 246.790451 
L 415.797462 246.790451 
L 415.797462 218.4205 
L 433.017729 218.4205 
z
" style="fill:#1f77b4;"/>
   </g>
   <g id="patch_17">
    <path clip-path="url(#pee9dbb6813)" d="M 457.126103 246.790451 
L 439.905836 246.790451 
L 439.905836 223.9561 
L 457.126103 223.9561 
z
" style="fill:#1f77b4;"/>
   </g>
   <g id="patch_18">
    <path clip-path="url(#pee9dbb6813)" d="M 481.234477 246.790451 
L 464.01421 246.790451 
L 464.01421 200.429799 
L 481.234477 200.429799 
z
" style="fill:#1f77b4;"/>
   </g>
   <g id="patch_19">
    <path clip-path="url(#pee9dbb6813)" d="M 505.342851 246.790451 
L 488.122584 246.790451 
L 488.122584 279.312103 
L 505.342851 279.312103 
z
" style="fill:#1f77b4;"/>
   </g>
   <g id="patch_20">
    <path clip-path="url(#pee9dbb6813)" d="M 529.451225 246.790451 
L 512.230958 246.790451 
L 512.230958 254.401901 
L 529.451225 254.401901 
z
" style="fill:#1f77b4;"/>
   </g>
   <g id="patch_21">
    <path clip-path="url(#pee9dbb6813)" d="M 553.559599 246.790451 
L 536.339332 246.790451 
L 536.339332 114.627994 
L 553.559599 114.627994 
z
" style="fill:#1f77b4;"/>
   </g>
   <g id="patch_22">
    <path clip-path="url(#pee9dbb6813)" d="M 577.667973 246.790451 
L 560.447706 246.790451 
L 560.447706 208.733199 
L 577.667973 208.733199 
z
" style="fill:#1f77b4;"/>
   </g>
   <g id="patch_23">
    <path clip-path="url(#pee9dbb6813)" d="M 601.776347 246.790451 
L 584.55608 246.790451 
L 584.55608 175.519598 
L 601.776347 175.519598 
z
" style="fill:#1f77b4;"/>
   </g>
   <g id="patch_24">
    <path clip-path="url(#pee9dbb6813)" d="M 625.884721 246.790451 
L 608.664454 246.790451 
L 608.664454 165.832297 
L 625.884721 165.832297 
z
" style="fill:#1f77b4;"/>
   </g>
   <g id="patch_25">
    <path clip-path="url(#pee9dbb6813)" d="M 649.993095 246.790451 
L 632.772828 246.790451 
L 632.772828 189.358598 
L 649.993095 189.358598 
z
" style="fill:#1f77b4;"/>
   </g>
   <g id="patch_26">
    <path clip-path="url(#pee9dbb6813)" d="M 674.10147 246.790451 
L 656.881202 246.790451 
L 656.881202 253.018001 
L 674.10147 253.018001 
z
" style="fill:#1f77b4;"/>
   </g>
   <g id="patch_27">
    <path clip-path="url(#pee9dbb6813)" d="M 698.209844 246.790451 
L 680.989576 246.790451 
L 680.989576 214.268799 
L 698.209844 214.268799 
z
" style="fill:#1f77b4;"/>
   </g>
   <g id="patch_28">
    <path clip-path="url(#pee9dbb6813)" d="M 722.318218 246.790451 
L 705.09795 246.790451 
L 705.09795 210.117099 
L 722.318218 210.117099 
z
" style="fill:#1f77b4;"/>
   </g>
   <g id="patch_29">
    <path clip-path="url(#pee9dbb6813)" d="M 746.426592 246.790451 
L 729.206325 246.790451 
L 729.206325 167.216197 
L 746.426592 167.216197 
z
" style="fill:#1f77b4;"/>
   </g>
   <g id="patch_30">
    <path clip-path="url(#pee9dbb6813)" d="M 770.534966 246.790451 
L 753.314699 246.790451 
L 753.314699 168.600097 
L 770.534966 168.600097 
z
" style="fill:#1f77b4;"/>
   </g>
   <g id="patch_31">
    <path clip-path="url(#pee9dbb6813)" d="M 794.64334 246.790451 
L 777.423073 246.790451 
L 777.423073 120.163595 
L 794.64334 120.163595 
z
" style="fill:#1f77b4;"/>
   </g>
   <g id="patch_32">
    <path clip-path="url(#pee9dbb6813)" d="M 818.751714 246.790451 
L 801.531447 246.790451 
L 801.531447 226.7239 
L 818.751714 226.7239 
z
" style="fill:#1f77b4;"/>
   </g>
   <g id="patch_33">
    <path clip-path="url(#pee9dbb6813)" d="M 842.860088 246.790451 
L 825.639821 246.790451 
L 825.639821 196.278099 
L 842.860088 196.278099 
z
" style="fill:#1f77b4;"/>
   </g>
   <g id="patch_34">
    <path clip-path="url(#pee9dbb6813)" d="M 866.968462 246.790451 
L 849.748195 246.790451 
L 849.748195 230.8756 
L 866.968462 230.8756 
z
" style="fill:#1f77b4;"/>
   </g>
   <g id="patch_35">
    <path clip-path="url(#pee9dbb6813)" d="M 891.076836 246.790451 
L 873.856569 246.790451 
L 873.856569 44.049091 
L 891.076836 44.049091 
z
" style="fill:#1f77b4;"/>
   </g>
   <g id="patch_36">
    <path clip-path="url(#pee9dbb6813)" d="M 915.18521 246.790451 
L 897.964943 246.790451 
L 897.964943 406.630909 
L 915.18521 406.630909 
z
" style="fill:#1f77b4;"/>
   </g>
   <g id="patch_37">
    <path clip-path="url(#pee9dbb6813)" d="M 939.293584 246.790451 
L 922.073317 246.790451 
L 922.073317 298.686704 
L 939.293584 298.686704 
z
" style="fill:#1f77b4;"/>
   </g>
   <g id="patch_38">
    <path clip-path="url(#pee9dbb6813)" d="M 963.401958 246.790451 
L 946.181691 246.790451 
L 946.181691 264.089202 
L 963.401958 264.089202 
z
" style="fill:#1f77b4;"/>
   </g>
   <g id="patch_39">
    <path clip-path="url(#pee9dbb6813)" d="M 987.510332 246.790451 
L 970.290065 246.790451 
L 970.290065 163.064497 
L 987.510332 163.064497 
z
" style="fill:#1f77b4;"/>
   </g>
   <g id="patch_40">
    <path clip-path="url(#pee9dbb6813)" d="M 1011.618706 246.790451 
L 994.398439 246.790451 
L 994.398439 229.4917 
L 1011.618706 229.4917 
z
" style="fill:#1f77b4;"/>
   </g>
   <g id="patch_41">
    <path clip-path="url(#pee9dbb6813)" d="M 1035.72708 246.790451 
L 1018.506813 246.790451 
L 1018.506813 255.785802 
L 1035.72708 255.785802 
z
" style="fill:#1f77b4;"/>
   </g>
   <g id="patch_42">
    <path clip-path="url(#pee9dbb6813)" d="M 1059.835455 246.790451 
L 1042.615187 246.790451 
L 1042.615187 222.5722 
L 1059.835455 222.5722 
z
" style="fill:#1f77b4;"/>
   </g>
   <g id="matplotlib.axis_1">
    <g id="xtick_1">
     <g id="line2d_1">
      <path clip-path="url(#pee9dbb6813)" d="M 88.612385 424.76 
L 88.612385 25.92 
" style="fill:none;stroke:#b0b0b0;stroke-linecap:square;stroke-width:0.8;"/>
     </g>
     <g id="line2d_2">
      <defs>
       <path d="M 0 0 
L 0 3.5 
" id="m50750ec2b0" style="stroke:#000000;stroke-width:0.8;"/>
      </defs>
      <g>
       <use style="stroke:#000000;stroke-width:0.8;" x="88.612385" xlink:href="#m50750ec2b0" y="424.76"/>
      </g>
     </g>
     <g id="text_1">
      <!-- 2010 -->
      <g transform="translate(91.37176 457.21)rotate(-90)scale(0.1 -0.1)">
       <defs>
        <path d="M 19.1875 8.296875 
L 53.609375 8.296875 
L 53.609375 0 
L 7.328125 0 
L 7.328125 8.296875 
Q 12.9375 14.109375 22.625 23.890625 
Q 32.328125 33.6875 34.8125 36.53125 
Q 39.546875 41.84375 41.421875 45.53125 
Q 43.3125 49.21875 43.3125 52.78125 
Q 43.3125 58.59375 39.234375 62.25 
Q 35.15625 65.921875 28.609375 65.921875 
Q 23.96875 65.921875 18.8125 64.3125 
Q 13.671875 62.703125 7.8125 59.421875 
L 7.8125 69.390625 
Q 13.765625 71.78125 18.9375 73 
Q 24.125 74.21875 28.421875 74.21875 
Q 39.75 74.21875 46.484375 68.546875 
Q 53.21875 62.890625 53.21875 53.421875 
Q 53.21875 48.921875 51.53125 44.890625 
Q 49.859375 40.875 45.40625 35.40625 
Q 44.1875 33.984375 37.640625 27.21875 
Q 31.109375 20.453125 19.1875 8.296875 
z
" id="DejaVuSans-50"/>
        <path d="M 31.78125 66.40625 
Q 24.171875 66.40625 20.328125 58.90625 
Q 16.5 51.421875 16.5 36.375 
Q 16.5 21.390625 20.328125 13.890625 
Q 24.171875 6.390625 31.78125 6.390625 
Q 39.453125 6.390625 43.28125 13.890625 
Q 47.125 21.390625 47.125 36.375 
Q 47.125 51.421875 43.28125 58.90625 
Q 39.453125 66.40625 31.78125 66.40625 
z
M 31.78125 74.21875 
Q 44.046875 74.21875 50.515625 64.515625 
Q 56.984375 54.828125 56.984375 36.375 
Q 56.984375 17.96875 50.515625 8.265625 
Q 44.046875 -1.421875 31.78125 -1.421875 
Q 19.53125 -1.421875 13.0625 8.265625 
Q 6.59375 17.96875 6.59375 36.375 
Q 6.59375 54.828125 13.0625 64.515625 
Q 19.53125 74.21875 31.78125 74.21875 
z
" id="DejaVuSans-48"/>
        <path d="M 12.40625 8.296875 
L 28.515625 8.296875 
L 28.515625 63.921875 
L 10.984375 60.40625 
L 10.984375 69.390625 
L 28.421875 72.90625 
L 38.28125 72.90625 
L 38.28125 8.296875 
L 54.390625 8.296875 
L 54.390625 0 
L 12.40625 0 
z
" id="DejaVuSans-49"/>
       </defs>
       <use xlink:href="#DejaVuSans-50"/>
       <use x="63.623047" xlink:href="#DejaVuSans-48"/>
       <use x="127.246094" xlink:href="#DejaVuSans-49"/>
       <use x="190.869141" xlink:href="#DejaVuSans-48"/>
      </g>
     </g>
    </g>
   </g>
   <g id="matplotlib.axis_2">
    <g id="ytick_1">
     <g id="line2d_3">
      <path clip-path="url(#pee9dbb6813)" d="M 50.9 418.048085 
L 1107.88 418.048085 
" style="fill:none;stroke:#b0b0b0;stroke-linecap:square;stroke-width:0.8;"/>
     </g>
     <g id="line2d_4">
      <defs>
       <path d="M 0 0 
L -3.5 0 
" id="m5afa90e57a" style="stroke:#000000;stroke-width:0.8;"/>
      </defs>
      <g>
       <use style="stroke:#000000;stroke-width:0.8;" x="50.9" xlink:href="#m5afa90e57a" y="418.048085"/>
      </g>
     </g>
     <g id="text_2">
      <!-- -0.3 -->
      <g transform="translate(24.389062 421.847303)scale(0.1 -0.1)">
       <defs>
        <path d="M 4.890625 31.390625 
L 31.203125 31.390625 
L 31.203125 23.390625 
L 4.890625 23.390625 
z
" id="DejaVuSans-45"/>
        <path d="M 10.6875 12.40625 
L 21 12.40625 
L 21 0 
L 10.6875 0 
z
" id="DejaVuSans-46"/>
        <path d="M 40.578125 39.3125 
Q 47.65625 37.796875 51.625 33 
Q 55.609375 28.21875 55.609375 21.1875 
Q 55.609375 10.40625 48.1875 4.484375 
Q 40.765625 -1.421875 27.09375 -1.421875 
Q 22.515625 -1.421875 17.65625 -0.515625 
Q 12.796875 0.390625 7.625 2.203125 
L 7.625 11.71875 
Q 11.71875 9.328125 16.59375 8.109375 
Q 21.484375 6.890625 26.8125 6.890625 
Q 36.078125 6.890625 40.9375 10.546875 
Q 45.796875 14.203125 45.796875 21.1875 
Q 45.796875 27.640625 41.28125 31.265625 
Q 36.765625 34.90625 28.71875 34.90625 
L 20.21875 34.90625 
L 20.21875 43.015625 
L 29.109375 43.015625 
Q 36.375 43.015625 40.234375 45.921875 
Q 44.09375 48.828125 44.09375 54.296875 
Q 44.09375 59.90625 40.109375 62.90625 
Q 36.140625 65.921875 28.71875 65.921875 
Q 24.65625 65.921875 20.015625 65.03125 
Q 15.375 64.15625 9.8125 62.3125 
L 9.8125 71.09375 
Q 15.4375 72.65625 20.34375 73.4375 
Q 25.25 74.21875 29.59375 74.21875 
Q 40.828125 74.21875 47.359375 69.109375 
Q 53.90625 64.015625 53.90625 55.328125 
Q 53.90625 49.265625 50.4375 45.09375 
Q 46.96875 40.921875 40.578125 39.3125 
z
" id="DejaVuSans-51"/>
       </defs>
       <use xlink:href="#DejaVuSans-45"/>
       <use x="36.083984" xlink:href="#DejaVuSans-48"/>
       <use x="99.707031" xlink:href="#DejaVuSans-46"/>
       <use x="131.494141" xlink:href="#DejaVuSans-51"/>
      </g>
     </g>
    </g>
    <g id="ytick_2">
     <g id="line2d_5">
      <path clip-path="url(#pee9dbb6813)" d="M 50.9 360.962207 
L 1107.88 360.962207 
" style="fill:none;stroke:#b0b0b0;stroke-linecap:square;stroke-width:0.8;"/>
     </g>
     <g id="line2d_6">
      <g>
       <use style="stroke:#000000;stroke-width:0.8;" x="50.9" xlink:href="#m5afa90e57a" y="360.962207"/>
      </g>
     </g>
     <g id="text_3">
      <!-- -0.2 -->
      <g transform="translate(24.389062 364.761426)scale(0.1 -0.1)">
       <use xlink:href="#DejaVuSans-45"/>
       <use x="36.083984" xlink:href="#DejaVuSans-48"/>
       <use x="99.707031" xlink:href="#DejaVuSans-46"/>
       <use x="131.494141" xlink:href="#DejaVuSans-50"/>
      </g>
     </g>
    </g>
    <g id="ytick_3">
     <g id="line2d_7">
      <path clip-path="url(#pee9dbb6813)" d="M 50.9 303.876329 
L 1107.88 303.876329 
" style="fill:none;stroke:#b0b0b0;stroke-linecap:square;stroke-width:0.8;"/>
     </g>
     <g id="line2d_8">
      <g>
       <use style="stroke:#000000;stroke-width:0.8;" x="50.9" xlink:href="#m5afa90e57a" y="303.876329"/>
      </g>
     </g>
     <g id="text_4">
      <!-- -0.1 -->
      <g transform="translate(24.389062 307.675548)scale(0.1 -0.1)">
       <use xlink:href="#DejaVuSans-45"/>
       <use x="36.083984" xlink:href="#DejaVuSans-48"/>
       <use x="99.707031" xlink:href="#DejaVuSans-46"/>
       <use x="131.494141" xlink:href="#DejaVuSans-49"/>
      </g>
     </g>
    </g>
    <g id="ytick_4">
     <g id="line2d_9">
      <path clip-path="url(#pee9dbb6813)" d="M 50.9 246.790451 
L 1107.88 246.790451 
" style="fill:none;stroke:#b0b0b0;stroke-linecap:square;stroke-width:0.8;"/>
     </g>
     <g id="line2d_10">
      <g>
       <use style="stroke:#000000;stroke-width:0.8;" x="50.9" xlink:href="#m5afa90e57a" y="246.790451"/>
      </g>
     </g>
     <g id="text_5">
      <!-- 0.0 -->
      <g transform="translate(27.996875 250.58967)scale(0.1 -0.1)">
       <use xlink:href="#DejaVuSans-48"/>
       <use x="63.623047" xlink:href="#DejaVuSans-46"/>
       <use x="95.410156" xlink:href="#DejaVuSans-48"/>
      </g>
     </g>
    </g>
    <g id="ytick_5">
     <g id="line2d_11">
      <path clip-path="url(#pee9dbb6813)" d="M 50.9 189.704573 
L 1107.88 189.704573 
" style="fill:none;stroke:#b0b0b0;stroke-linecap:square;stroke-width:0.8;"/>
     </g>
     <g id="line2d_12">
      <g>
       <use style="stroke:#000000;stroke-width:0.8;" x="50.9" xlink:href="#m5afa90e57a" y="189.704573"/>
      </g>
     </g>
     <g id="text_6">
      <!-- 0.1 -->
      <g transform="translate(27.996875 193.503792)scale(0.1 -0.1)">
       <use xlink:href="#DejaVuSans-48"/>
       <use x="63.623047" xlink:href="#DejaVuSans-46"/>
       <use x="95.410156" xlink:href="#DejaVuSans-49"/>
      </g>
     </g>
    </g>
    <g id="ytick_6">
     <g id="line2d_13">
      <path clip-path="url(#pee9dbb6813)" d="M 50.9 132.618695 
L 1107.88 132.618695 
" style="fill:none;stroke:#b0b0b0;stroke-linecap:square;stroke-width:0.8;"/>
     </g>
     <g id="line2d_14">
      <g>
       <use style="stroke:#000000;stroke-width:0.8;" x="50.9" xlink:href="#m5afa90e57a" y="132.618695"/>
      </g>
     </g>
     <g id="text_7">
      <!-- 0.2 -->
      <g transform="translate(27.996875 136.417914)scale(0.1 -0.1)">
       <use xlink:href="#DejaVuSans-48"/>
       <use x="63.623047" xlink:href="#DejaVuSans-46"/>
       <use x="95.410156" xlink:href="#DejaVuSans-50"/>
      </g>
     </g>
    </g>
    <g id="ytick_7">
     <g id="line2d_15">
      <path clip-path="url(#pee9dbb6813)" d="M 50.9 75.532817 
L 1107.88 75.532817 
" style="fill:none;stroke:#b0b0b0;stroke-linecap:square;stroke-width:0.8;"/>
     </g>
     <g id="line2d_16">
      <g>
       <use style="stroke:#000000;stroke-width:0.8;" x="50.9" xlink:href="#m5afa90e57a" y="75.532817"/>
      </g>
     </g>
     <g id="text_8">
      <!-- 0.3 -->
      <g transform="translate(27.996875 79.332036)scale(0.1 -0.1)">
       <use xlink:href="#DejaVuSans-48"/>
       <use x="63.623047" xlink:href="#DejaVuSans-46"/>
       <use x="95.410156" xlink:href="#DejaVuSans-51"/>
      </g>
     </g>
    </g>
    <g id="text_9">
     <!-- RankIC -->
     <g transform="translate(18.309375 242.79625)rotate(-90)scale(0.1 -0.1)">
      <defs>
       <path d="M 44.390625 34.1875 
Q 47.5625 33.109375 50.5625 29.59375 
Q 53.5625 26.078125 56.59375 19.921875 
L 66.609375 0 
L 56 0 
L 46.6875 18.703125 
Q 43.0625 26.03125 39.671875 28.421875 
Q 36.28125 30.8125 30.421875 30.8125 
L 19.671875 30.8125 
L 19.671875 0 
L 9.8125 0 
L 9.8125 72.90625 
L 32.078125 72.90625 
Q 44.578125 72.90625 50.734375 67.671875 
Q 56.890625 62.453125 56.890625 51.90625 
Q 56.890625 45.015625 53.6875 40.46875 
Q 50.484375 35.9375 44.390625 34.1875 
z
M 19.671875 64.796875 
L 19.671875 38.921875 
L 32.078125 38.921875 
Q 39.203125 38.921875 42.84375 42.21875 
Q 46.484375 45.515625 46.484375 51.90625 
Q 46.484375 58.296875 42.84375 61.546875 
Q 39.203125 64.796875 32.078125 64.796875 
z
" id="DejaVuSans-82"/>
       <path d="M 34.28125 27.484375 
Q 23.390625 27.484375 19.1875 25 
Q 14.984375 22.515625 14.984375 16.5 
Q 14.984375 11.71875 18.140625 8.90625 
Q 21.296875 6.109375 26.703125 6.109375 
Q 34.1875 6.109375 38.703125 11.40625 
Q 43.21875 16.703125 43.21875 25.484375 
L 43.21875 27.484375 
z
M 52.203125 31.203125 
L 52.203125 0 
L 43.21875 0 
L 43.21875 8.296875 
Q 40.140625 3.328125 35.546875 0.953125 
Q 30.953125 -1.421875 24.3125 -1.421875 
Q 15.921875 -1.421875 10.953125 3.296875 
Q 6 8.015625 6 15.921875 
Q 6 25.140625 12.171875 29.828125 
Q 18.359375 34.515625 30.609375 34.515625 
L 43.21875 34.515625 
L 43.21875 35.40625 
Q 43.21875 41.609375 39.140625 45 
Q 35.0625 48.390625 27.6875 48.390625 
Q 23 48.390625 18.546875 47.265625 
Q 14.109375 46.140625 10.015625 43.890625 
L 10.015625 52.203125 
Q 14.9375 54.109375 19.578125 55.046875 
Q 24.21875 56 28.609375 56 
Q 40.484375 56 46.34375 49.84375 
Q 52.203125 43.703125 52.203125 31.203125 
z
" id="DejaVuSans-97"/>
       <path d="M 54.890625 33.015625 
L 54.890625 0 
L 45.90625 0 
L 45.90625 32.71875 
Q 45.90625 40.484375 42.875 44.328125 
Q 39.84375 48.1875 33.796875 48.1875 
Q 26.515625 48.1875 22.3125 43.546875 
Q 18.109375 38.921875 18.109375 30.90625 
L 18.109375 0 
L 9.078125 0 
L 9.078125 54.6875 
L 18.109375 54.6875 
L 18.109375 46.1875 
Q 21.34375 51.125 25.703125 53.5625 
Q 30.078125 56 35.796875 56 
Q 45.21875 56 50.046875 50.171875 
Q 54.890625 44.34375 54.890625 33.015625 
z
" id="DejaVuSans-110"/>
       <path d="M 9.078125 75.984375 
L 18.109375 75.984375 
L 18.109375 31.109375 
L 44.921875 54.6875 
L 56.390625 54.6875 
L 27.390625 29.109375 
L 57.625 0 
L 45.90625 0 
L 18.109375 26.703125 
L 18.109375 0 
L 9.078125 0 
z
" id="DejaVuSans-107"/>
       <path d="M 9.8125 72.90625 
L 19.671875 72.90625 
L 19.671875 0 
L 9.8125 0 
z
" id="DejaVuSans-73"/>
       <path d="M 64.40625 67.28125 
L 64.40625 56.890625 
Q 59.421875 61.53125 53.78125 63.8125 
Q 48.140625 66.109375 41.796875 66.109375 
Q 29.296875 66.109375 22.65625 58.46875 
Q 16.015625 50.828125 16.015625 36.375 
Q 16.015625 21.96875 22.65625 14.328125 
Q 29.296875 6.6875 41.796875 6.6875 
Q 48.140625 6.6875 53.78125 8.984375 
Q 59.421875 11.28125 64.40625 15.921875 
L 64.40625 5.609375 
Q 59.234375 2.09375 53.4375 0.328125 
Q 47.65625 -1.421875 41.21875 -1.421875 
Q 24.65625 -1.421875 15.125 8.703125 
Q 5.609375 18.84375 5.609375 36.375 
Q 5.609375 53.953125 15.125 64.078125 
Q 24.65625 74.21875 41.21875 74.21875 
Q 47.75 74.21875 53.53125 72.484375 
Q 59.328125 70.75 64.40625 67.28125 
z
" id="DejaVuSans-67"/>
      </defs>
      <use xlink:href="#DejaVuSans-82"/>
      <use x="67.232422" xlink:href="#DejaVuSans-97"/>
      <use x="128.511719" xlink:href="#DejaVuSans-110"/>
      <use x="191.890625" xlink:href="#DejaVuSans-107"/>
      <use x="249.800781" xlink:href="#DejaVuSans-73"/>
      <use x="279.292969" xlink:href="#DejaVuSans-67"/>
     </g>
    </g>
   </g>
   <g id="line2d_17">
    <path clip-path="url(#pee9dbb6813)" d="M 50.9 221.702916 
L 1107.88 221.702916 
" style="fill:none;stroke:#800080;stroke-dasharray:7.4,3.2;stroke-dashoffset:0;stroke-width:2;"/>
   </g>
   <g id="patch_43">
    <path d="M 50.9 424.76 
L 50.9 25.92 
" style="fill:none;stroke:#000000;stroke-linecap:square;stroke-linejoin:miter;stroke-width:0.8;"/>
   </g>
   <g id="patch_44">
    <path d="M 1107.88 424.76 
L 1107.88 25.92 
" style="fill:none;stroke:#000000;stroke-linecap:square;stroke-linejoin:miter;stroke-width:0.8;"/>
   </g>
   <g id="patch_45">
    <path d="M 50.9 424.76 
L 1107.88 424.76 
" style="fill:none;stroke:#000000;stroke-linecap:square;stroke-linejoin:miter;stroke-width:0.8;"/>
   </g>
   <g id="patch_46">
    <path d="M 50.9 25.92 
L 1107.88 25.92 
" style="fill:none;stroke:#000000;stroke-linecap:square;stroke-linejoin:miter;stroke-width:0.8;"/>
   </g>
   <g id="legend_1">
    <g id="patch_47">
     <path d="M 57.9 63.27625 
L 194.5 63.27625 
Q 196.5 63.27625 196.5 61.27625 
L 196.5 32.92 
Q 196.5 30.92 194.5 30.92 
L 57.9 30.92 
Q 55.9 30.92 55.9 32.92 
L 55.9 61.27625 
Q 55.9 63.27625 57.9 63.27625 
z
" style="fill:#ffffff;opacity:0.8;stroke:#cccccc;stroke-linejoin:miter;"/>
    </g>
    <g id="patch_48">
     <path d="M 59.9 42.518438 
L 79.9 42.518438 
L 79.9 35.518438 
L 59.9 35.518438 
z
" style="fill:#1f77b4;"/>
    </g>
    <g id="text_10">
     <!-- weekly RankIC mean -->
     <g transform="translate(87.9 42.518438)scale(0.1 -0.1)">
      <defs>
       <path d="M 4.203125 54.6875 
L 13.1875 54.6875 
L 24.421875 12.015625 
L 35.59375 54.6875 
L 46.1875 54.6875 
L 57.421875 12.015625 
L 68.609375 54.6875 
L 77.59375 54.6875 
L 63.28125 0 
L 52.6875 0 
L 40.921875 44.828125 
L 29.109375 0 
L 18.5 0 
z
" id="DejaVuSans-119"/>
       <path d="M 56.203125 29.59375 
L 56.203125 25.203125 
L 14.890625 25.203125 
Q 15.484375 15.921875 20.484375 11.0625 
Q 25.484375 6.203125 34.421875 6.203125 
Q 39.59375 6.203125 44.453125 7.46875 
Q 49.3125 8.734375 54.109375 11.28125 
L 54.109375 2.78125 
Q 49.265625 0.734375 44.1875 -0.34375 
Q 39.109375 -1.421875 33.890625 -1.421875 
Q 20.796875 -1.421875 13.15625 6.1875 
Q 5.515625 13.8125 5.515625 26.8125 
Q 5.515625 40.234375 12.765625 48.109375 
Q 20.015625 56 32.328125 56 
Q 43.359375 56 49.78125 48.890625 
Q 56.203125 41.796875 56.203125 29.59375 
z
M 47.21875 32.234375 
Q 47.125 39.59375 43.09375 43.984375 
Q 39.0625 48.390625 32.421875 48.390625 
Q 24.90625 48.390625 20.390625 44.140625 
Q 15.875 39.890625 15.1875 32.171875 
z
" id="DejaVuSans-101"/>
       <path d="M 9.421875 75.984375 
L 18.40625 75.984375 
L 18.40625 0 
L 9.421875 0 
z
" id="DejaVuSans-108"/>
       <path d="M 32.171875 -5.078125 
Q 28.375 -14.84375 24.75 -17.8125 
Q 21.140625 -20.796875 15.09375 -20.796875 
L 7.90625 -20.796875 
L 7.90625 -13.28125 
L 13.1875 -13.28125 
Q 16.890625 -13.28125 18.9375 -11.515625 
Q 21 -9.765625 23.484375 -3.21875 
L 25.09375 0.875 
L 2.984375 54.6875 
L 12.5 54.6875 
L 29.59375 11.921875 
L 46.6875 54.6875 
L 56.203125 54.6875 
z
" id="DejaVuSans-121"/>
       <path id="DejaVuSans-32"/>
       <path d="M 52 44.1875 
Q 55.375 50.25 60.0625 53.125 
Q 64.75 56 71.09375 56 
Q 79.640625 56 84.28125 50.015625 
Q 88.921875 44.046875 88.921875 33.015625 
L 88.921875 0 
L 79.890625 0 
L 79.890625 32.71875 
Q 79.890625 40.578125 77.09375 44.375 
Q 74.3125 48.1875 68.609375 48.1875 
Q 61.625 48.1875 57.5625 43.546875 
Q 53.515625 38.921875 53.515625 30.90625 
L 53.515625 0 
L 44.484375 0 
L 44.484375 32.71875 
Q 44.484375 40.625 41.703125 44.40625 
Q 38.921875 48.1875 33.109375 48.1875 
Q 26.21875 48.1875 22.15625 43.53125 
Q 18.109375 38.875 18.109375 30.90625 
L 18.109375 0 
L 9.078125 0 
L 9.078125 54.6875 
L 18.109375 54.6875 
L 18.109375 46.1875 
Q 21.1875 51.21875 25.484375 53.609375 
Q 29.78125 56 35.6875 56 
Q 41.65625 56 45.828125 52.96875 
Q 50 49.953125 52 44.1875 
z
" id="DejaVuSans-109"/>
      </defs>
      <use xlink:href="#DejaVuSans-119"/>
      <use x="81.787109" xlink:href="#DejaVuSans-101"/>
      <use x="143.310547" xlink:href="#DejaVuSans-101"/>
      <use x="204.833984" xlink:href="#DejaVuSans-107"/>
      <use x="262.744141" xlink:href="#DejaVuSans-108"/>
      <use x="290.527344" xlink:href="#DejaVuSans-121"/>
      <use x="349.707031" xlink:href="#DejaVuSans-32"/>
      <use x="381.494141" xlink:href="#DejaVuSans-82"/>
      <use x="448.726562" xlink:href="#DejaVuSans-97"/>
      <use x="510.005859" xlink:href="#DejaVuSans-110"/>
      <use x="573.384766" xlink:href="#DejaVuSans-107"/>
      <use x="631.294922" xlink:href="#DejaVuSans-73"/>
      <use x="660.787109" xlink:href="#DejaVuSans-67"/>
      <use x="730.611328" xlink:href="#DejaVuSans-32"/>
      <use x="762.398438" xlink:href="#DejaVuSans-109"/>
      <use x="859.810547" xlink:href="#DejaVuSans-101"/>
      <use x="921.333984" xlink:href="#DejaVuSans-97"/>
      <use x="982.613281" xlink:href="#DejaVuSans-110"/>
     </g>
    </g>
    <g id="line2d_18">
     <path d="M 59.9 53.696563 
L 79.9 53.696563 
" style="fill:none;stroke:#800080;stroke-dasharray:7.4,3.2;stroke-dashoffset:0;stroke-width:2;"/>
    </g>
    <g id="line2d_19"/>
    <g id="text_11">
     <!-- RankIC mean -->
     <g transform="translate(87.9 57.196563)scale(0.1 -0.1)">
      <use xlink:href="#DejaVuSans-82"/>
      <use x="67.232422" xlink:href="#DejaVuSans-97"/>
      <use x="128.511719" xlink:href="#DejaVuSans-110"/>
      <use x="191.890625" xlink:href="#DejaVuSans-107"/>
      <use x="249.800781" xlink:href="#DejaVuSans-73"/>
      <use x="279.292969" xlink:href="#DejaVuSans-67"/>
      <use x="349.117188" xlink:href="#DejaVuSans-32"/>
      <use x="380.904297" xlink:href="#DejaVuSans-109"/>
      <use x="478.316406" xlink:href="#DejaVuSans-101"/>
      <use x="539.839844" xlink:href="#DejaVuSans-97"/>
      <use x="601.119141" xlink:href="#DejaVuSans-110"/>
     </g>
    </g>
   </g>
  </g>
  <g id="axes_2">
   <g id="matplotlib.axis_3">
    <g id="ytick_8">
     <g id="line2d_20">
      <defs>
       <path d="M 0 0 
L 3.5 0 
" id="m682202f15e" style="stroke:#000000;stroke-width:0.8;"/>
      </defs>
      <g>
       <use style="stroke:#000000;stroke-width:0.8;" x="1107.88" xlink:href="#m682202f15e" y="364.511816"/>
      </g>
     </g>
     <g id="text_12">
      <!-- 0 -->
      <g transform="translate(1114.88 368.311034)scale(0.1 -0.1)">
       <use xlink:href="#DejaVuSans-48"/>
      </g>
     </g>
    </g>
    <g id="ytick_9">
     <g id="line2d_21">
      <g>
       <use style="stroke:#000000;stroke-width:0.8;" x="1107.88" xlink:href="#m682202f15e" y="298.949076"/>
      </g>
     </g>
     <g id="text_13">
      <!-- 2 -->
      <g transform="translate(1114.88 302.748295)scale(0.1 -0.1)">
       <use xlink:href="#DejaVuSans-50"/>
      </g>
     </g>
    </g>
    <g id="ytick_10">
     <g id="line2d_22">
      <g>
       <use style="stroke:#000000;stroke-width:0.8;" x="1107.88" xlink:href="#m682202f15e" y="233.386336"/>
      </g>
     </g>
     <g id="text_14">
      <!-- 4 -->
      <g transform="translate(1114.88 237.185555)scale(0.1 -0.1)">
       <defs>
        <path d="M 37.796875 64.3125 
L 12.890625 25.390625 
L 37.796875 25.390625 
z
M 35.203125 72.90625 
L 47.609375 72.90625 
L 47.609375 25.390625 
L 58.015625 25.390625 
L 58.015625 17.1875 
L 47.609375 17.1875 
L 47.609375 0 
L 37.796875 0 
L 37.796875 17.1875 
L 4.890625 17.1875 
L 4.890625 26.703125 
z
" id="DejaVuSans-52"/>
       </defs>
       <use xlink:href="#DejaVuSans-52"/>
      </g>
     </g>
    </g>
    <g id="ytick_11">
     <g id="line2d_23">
      <g>
       <use style="stroke:#000000;stroke-width:0.8;" x="1107.88" xlink:href="#m682202f15e" y="167.823597"/>
      </g>
     </g>
     <g id="text_15">
      <!-- 6 -->
      <g transform="translate(1114.88 171.622815)scale(0.1 -0.1)">
       <defs>
        <path d="M 33.015625 40.375 
Q 26.375 40.375 22.484375 35.828125 
Q 18.609375 31.296875 18.609375 23.390625 
Q 18.609375 15.53125 22.484375 10.953125 
Q 26.375 6.390625 33.015625 6.390625 
Q 39.65625 6.390625 43.53125 10.953125 
Q 47.40625 15.53125 47.40625 23.390625 
Q 47.40625 31.296875 43.53125 35.828125 
Q 39.65625 40.375 33.015625 40.375 
z
M 52.59375 71.296875 
L 52.59375 62.3125 
Q 48.875 64.0625 45.09375 64.984375 
Q 41.3125 65.921875 37.59375 65.921875 
Q 27.828125 65.921875 22.671875 59.328125 
Q 17.53125 52.734375 16.796875 39.40625 
Q 19.671875 43.65625 24.015625 45.921875 
Q 28.375 48.1875 33.59375 48.1875 
Q 44.578125 48.1875 50.953125 41.515625 
Q 57.328125 34.859375 57.328125 23.390625 
Q 57.328125 12.15625 50.6875 5.359375 
Q 44.046875 -1.421875 33.015625 -1.421875 
Q 20.359375 -1.421875 13.671875 8.265625 
Q 6.984375 17.96875 6.984375 36.375 
Q 6.984375 53.65625 15.1875 63.9375 
Q 23.390625 74.21875 37.203125 74.21875 
Q 40.921875 74.21875 44.703125 73.484375 
Q 48.484375 72.75 52.59375 71.296875 
z
" id="DejaVuSans-54"/>
       </defs>
       <use xlink:href="#DejaVuSans-54"/>
      </g>
     </g>
    </g>
    <g id="ytick_12">
     <g id="line2d_24">
      <g>
       <use style="stroke:#000000;stroke-width:0.8;" x="1107.88" xlink:href="#m682202f15e" y="102.260857"/>
      </g>
     </g>
     <g id="text_16">
      <!-- 8 -->
      <g transform="translate(1114.88 106.060076)scale(0.1 -0.1)">
       <defs>
        <path d="M 31.78125 34.625 
Q 24.75 34.625 20.71875 30.859375 
Q 16.703125 27.09375 16.703125 20.515625 
Q 16.703125 13.921875 20.71875 10.15625 
Q 24.75 6.390625 31.78125 6.390625 
Q 38.8125 6.390625 42.859375 10.171875 
Q 46.921875 13.96875 46.921875 20.515625 
Q 46.921875 27.09375 42.890625 30.859375 
Q 38.875 34.625 31.78125 34.625 
z
M 21.921875 38.8125 
Q 15.578125 40.375 12.03125 44.71875 
Q 8.5 49.078125 8.5 55.328125 
Q 8.5 64.0625 14.71875 69.140625 
Q 20.953125 74.21875 31.78125 74.21875 
Q 42.671875 74.21875 48.875 69.140625 
Q 55.078125 64.0625 55.078125 55.328125 
Q 55.078125 49.078125 51.53125 44.71875 
Q 48 40.375 41.703125 38.8125 
Q 48.828125 37.15625 52.796875 32.3125 
Q 56.78125 27.484375 56.78125 20.515625 
Q 56.78125 9.90625 50.3125 4.234375 
Q 43.84375 -1.421875 31.78125 -1.421875 
Q 19.734375 -1.421875 13.25 4.234375 
Q 6.78125 9.90625 6.78125 20.515625 
Q 6.78125 27.484375 10.78125 32.3125 
Q 14.796875 37.15625 21.921875 38.8125 
z
M 18.3125 54.390625 
Q 18.3125 48.734375 21.84375 45.5625 
Q 25.390625 42.390625 31.78125 42.390625 
Q 38.140625 42.390625 41.71875 45.5625 
Q 45.3125 48.734375 45.3125 54.390625 
Q 45.3125 60.0625 41.71875 63.234375 
Q 38.140625 66.40625 31.78125 66.40625 
Q 25.390625 66.40625 21.84375 63.234375 
Q 18.3125 60.0625 18.3125 54.390625 
z
" id="DejaVuSans-56"/>
       </defs>
       <use xlink:href="#DejaVuSans-56"/>
      </g>
     </g>
    </g>
    <g id="ytick_13">
     <g id="line2d_25">
      <g>
       <use style="stroke:#000000;stroke-width:0.8;" x="1107.88" xlink:href="#m682202f15e" y="36.698117"/>
      </g>
     </g>
     <g id="text_17">
      <!-- 10 -->
      <g transform="translate(1114.88 40.497336)scale(0.1 -0.1)">
       <use xlink:href="#DejaVuSans-49"/>
       <use x="63.623047" xlink:href="#DejaVuSans-48"/>
      </g>
     </g>
    </g>
    <g id="text_18">
     <!-- IC cumsum -->
     <g transform="translate(1139.203437 253.3275)rotate(-90)scale(0.1 -0.1)">
      <defs>
       <path d="M 48.78125 52.59375 
L 48.78125 44.1875 
Q 44.96875 46.296875 41.140625 47.34375 
Q 37.3125 48.390625 33.40625 48.390625 
Q 24.65625 48.390625 19.8125 42.84375 
Q 14.984375 37.3125 14.984375 27.296875 
Q 14.984375 17.28125 19.8125 11.734375 
Q 24.65625 6.203125 33.40625 6.203125 
Q 37.3125 6.203125 41.140625 7.25 
Q 44.96875 8.296875 48.78125 10.40625 
L 48.78125 2.09375 
Q 45.015625 0.34375 40.984375 -0.53125 
Q 36.96875 -1.421875 32.421875 -1.421875 
Q 20.0625 -1.421875 12.78125 6.34375 
Q 5.515625 14.109375 5.515625 27.296875 
Q 5.515625 40.671875 12.859375 48.328125 
Q 20.21875 56 33.015625 56 
Q 37.15625 56 41.109375 55.140625 
Q 45.0625 54.296875 48.78125 52.59375 
z
" id="DejaVuSans-99"/>
       <path d="M 8.5 21.578125 
L 8.5 54.6875 
L 17.484375 54.6875 
L 17.484375 21.921875 
Q 17.484375 14.15625 20.5 10.265625 
Q 23.53125 6.390625 29.59375 6.390625 
Q 36.859375 6.390625 41.078125 11.03125 
Q 45.3125 15.671875 45.3125 23.6875 
L 45.3125 54.6875 
L 54.296875 54.6875 
L 54.296875 0 
L 45.3125 0 
L 45.3125 8.40625 
Q 42.046875 3.421875 37.71875 1 
Q 33.40625 -1.421875 27.6875 -1.421875 
Q 18.265625 -1.421875 13.375 4.4375 
Q 8.5 10.296875 8.5 21.578125 
z
M 31.109375 56 
z
" id="DejaVuSans-117"/>
       <path d="M 44.28125 53.078125 
L 44.28125 44.578125 
Q 40.484375 46.53125 36.375 47.5 
Q 32.28125 48.484375 27.875 48.484375 
Q 21.1875 48.484375 17.84375 46.4375 
Q 14.5 44.390625 14.5 40.28125 
Q 14.5 37.15625 16.890625 35.375 
Q 19.28125 33.59375 26.515625 31.984375 
L 29.59375 31.296875 
Q 39.15625 29.25 43.1875 25.515625 
Q 47.21875 21.78125 47.21875 15.09375 
Q 47.21875 7.46875 41.1875 3.015625 
Q 35.15625 -1.421875 24.609375 -1.421875 
Q 20.21875 -1.421875 15.453125 -0.5625 
Q 10.6875 0.296875 5.421875 2 
L 5.421875 11.28125 
Q 10.40625 8.6875 15.234375 7.390625 
Q 20.0625 6.109375 24.8125 6.109375 
Q 31.15625 6.109375 34.5625 8.28125 
Q 37.984375 10.453125 37.984375 14.40625 
Q 37.984375 18.0625 35.515625 20.015625 
Q 33.0625 21.96875 24.703125 23.78125 
L 21.578125 24.515625 
Q 13.234375 26.265625 9.515625 29.90625 
Q 5.8125 33.546875 5.8125 39.890625 
Q 5.8125 47.609375 11.28125 51.796875 
Q 16.75 56 26.8125 56 
Q 31.78125 56 36.171875 55.265625 
Q 40.578125 54.546875 44.28125 53.078125 
z
" id="DejaVuSans-115"/>
      </defs>
      <use xlink:href="#DejaVuSans-73"/>
      <use x="29.492188" xlink:href="#DejaVuSans-67"/>
      <use x="99.316406" xlink:href="#DejaVuSans-32"/>
      <use x="131.103516" xlink:href="#DejaVuSans-99"/>
      <use x="186.083984" xlink:href="#DejaVuSans-117"/>
      <use x="249.462891" xlink:href="#DejaVuSans-109"/>
      <use x="346.875" xlink:href="#DejaVuSans-115"/>
      <use x="398.974609" xlink:href="#DejaVuSans-117"/>
      <use x="462.353516" xlink:href="#DejaVuSans-109"/>
     </g>
    </g>
   </g>
   <g id="line2d_26">
    <path clip-path="url(#pee9dbb6813)" d="M 98.944545 378.617738 
L 102.388599 355.770117 
L 105.832652 338.882745 
L 109.276706 348.617818 
L 112.720759 343.253594 
L 123.05292 339.08142 
L 126.496973 345.637694 
L 129.941026 361.730366 
L 133.38508 354.379392 
L 136.829133 366.498565 
L 147.161294 362.326391 
L 150.605347 341.068169 
L 154.0494 346.432394 
L 157.493454 349.809868 
L 160.937507 346.035044 
L 171.269668 334.31322 
L 174.713721 342.856244 
L 178.157775 338.68407 
L 181.601828 357.955542 
L 185.045881 375.240264 
L 195.378042 375.438939 
L 198.822095 365.703866 
L 202.266149 371.86279 
L 205.710202 387.558112 
L 209.154255 387.756787 
L 219.486416 400.27331 
L 222.930469 393.319686 
L 226.374523 405.438859 
L 229.818576 395.306436 
L 233.26263 378.021714 
L 243.59479 369.47869 
L 247.038843 376.432314 
L 250.482897 366.29989 
L 253.92695 367.293265 
L 257.371004 373.452189 
L 267.703164 369.677365 
L 271.147217 383.783288 
L 274.591271 379.213763 
L 278.035324 388.154137 
L 281.479378 395.902461 
L 291.811538 404.842834 
L 295.255591 406.630909 
L 298.699645 398.882585 
L 302.143698 389.544862 
L 305.587752 386.962087 
L 315.919912 386.366062 
L 319.363965 367.49194 
L 322.808019 351.001918 
L 326.252072 351.597943 
L 329.696126 363.717116 
L 340.028286 372.260139 
L 343.47234 378.021714 
L 346.916393 365.505191 
L 350.360446 366.895915 
L 353.8045 371.46544 
L 364.13666 376.034964 
L 367.580714 364.313141 
L 371.024767 355.372767 
L 374.46882 365.90254 
L 377.912874 353.386017 
L 388.245034 350.405893 
L 391.689088 362.127716 
L 395.133141 343.650944 
L 398.577195 360.140966 
L 402.021248 352.392643 
L 412.353408 333.121171 
L 415.797462 333.717196 
L 419.241515 334.71057 
L 422.685569 338.882745 
L 426.129622 344.246969 
L 436.461782 336.498645 
L 439.905836 335.10792 
L 443.349889 336.498645 
L 446.793943 321.598022 
L 450.237996 337.690695 
L 460.570156 338.28672 
L 464.01421 318.617898 
L 467.458263 331.929121 
L 470.902317 337.690695 
L 474.34637 324.379472 
L 484.67853 310.273549 
L 488.122584 307.690775 
L 491.566637 320.207298 
L 495.010691 327.558271 
L 498.454744 333.717196 
L 508.786905 325.571522 
L 512.230958 321.399347 
L 515.675011 321.995372 
L 519.119065 329.743696 
L 522.563118 335.90262 
L 532.895279 337.293345 
L 536.339332 347.823118 
L 539.783385 336.895995 
L 543.227439 314.843073 
L 546.671492 297.955701 
L 557.003653 288.617978 
L 560.447706 290.803402 
L 563.89176 293.386177 
L 567.335813 283.651103 
L 570.779866 287.028578 
L 581.112027 270.141205 
L 584.55608 271.53193 
L 588.000134 284.843153 
L 591.444187 283.849778 
L 594.88824 266.565056 
L 605.220401 250.869733 
L 608.664454 245.902859 
L 612.108508 245.306834 
L 615.552561 249.081659 
L 618.996615 243.320085 
L 629.328775 231.598262 
L 632.772828 236.962486 
L 636.216882 241.53201 
L 639.660935 238.551885 
L 643.104989 226.830062 
L 653.437149 223.849938 
L 656.881202 224.445963 
L 660.325256 214.710889 
L 663.769309 222.061863 
L 667.213363 228.618137 
L 677.545523 224.048613 
L 680.989576 221.465838 
L 684.43363 237.955861 
L 687.877683 225.836687 
L 691.321737 219.280413 
L 701.653897 215.505589 
L 705.09795 200.604966 
L 708.542004 203.585091 
L 711.986057 212.525465 
L 715.430111 208.75064 
L 725.762271 187.095068 
L 729.206325 174.181196 
L 732.650378 191.068568 
L 736.094431 194.048692 
L 739.538485 185.903019 
L 749.870645 180.538795 
L 753.314699 175.57192 
L 756.758752 195.240742 
L 760.202805 178.75072 
L 763.646859 163.452747 
L 773.979019 164.843472 
L 777.423073 149.545499 
L 780.867126 133.452827 
L 784.31118 125.307153 
L 787.755233 127.095228 
L 798.087393 137.625001 
L 801.531447 133.055477 
L 804.9755 122.923054 
L 808.419554 133.850177 
L 811.863607 121.333654 
L 822.195767 107.227731 
L 825.639821 105.439656 
L 829.083874 110.009181 
L 832.527928 107.823756 
L 835.971981 106.830381 
L 846.304141 107.029056 
L 849.748195 95.704583 
L 853.192248 96.300608 
L 856.636302 103.254232 
L 860.080355 102.260857 
L 870.412515 107.625081 
L 873.856569 83.98276 
L 877.300622 72.260936 
L 880.744676 67.691412 
L 884.188729 44.049091 
L 894.52089 59.744413 
L 897.964943 69.876837 
L 901.408996 79.61191 
L 904.85305 77.426486 
L 908.297103 89.943009 
L 918.629264 93.717833 
L 922.073317 88.750959 
L 925.51737 86.565534 
L 928.961424 93.916508 
L 932.405477 104.843631 
L 942.737638 106.631706 
L 946.181691 119.942929 
L 949.625745 119.744254 
L 953.069798 119.148229 
L 956.513851 109.810506 
L 966.846012 107.625081 
L 970.290065 108.221106 
L 973.734119 103.651582 
L 977.178172 98.684707 
L 980.622225 85.770834 
L 990.954386 75.241061 
L 994.398439 75.837086 
L 997.842493 73.651661 
L 1001.286546 86.168184 
L 1004.7306 80.80396 
L 1015.06276 90.936384 
L 1018.506813 71.267562 
L 1021.950867 70.274187 
L 1025.39492 73.651661 
L 1028.838974 83.386735 
L 1039.171134 78.022511 
L 1042.615187 80.207935 
L 1046.059241 69.678162 
L 1049.503294 77.823836 
L 1049.503294 77.823836 
" style="fill:none;stroke:#ff0000;stroke-linecap:square;stroke-width:1.5;"/>
   </g>
   <g id="patch_49">
    <path d="M 50.9 424.76 
L 50.9 25.92 
" style="fill:none;stroke:#000000;stroke-linecap:square;stroke-linejoin:miter;stroke-width:0.8;"/>
   </g>
   <g id="patch_50">
    <path d="M 1107.88 424.76 
L 1107.88 25.92 
" style="fill:none;stroke:#000000;stroke-linecap:square;stroke-linejoin:miter;stroke-width:0.8;"/>
   </g>
   <g id="patch_51">
    <path d="M 50.9 424.76 
L 1107.88 424.76 
" style="fill:none;stroke:#000000;stroke-linecap:square;stroke-linejoin:miter;stroke-width:0.8;"/>
   </g>
   <g id="patch_52">
    <path d="M 50.9 25.92 
L 1107.88 25.92 
" style="fill:none;stroke:#000000;stroke-linecap:square;stroke-linejoin:miter;stroke-width:0.8;"/>
   </g>
   <g id="legend_2">
    <g id="patch_53">
     <path d="M 960.795625 48.598125 
L 1100.88 48.598125 
Q 1102.88 48.598125 1102.88 46.598125 
L 1102.88 32.92 
Q 1102.88 30.92 1100.88 30.92 
L 960.795625 30.92 
Q 958.795625 30.92 958.795625 32.92 
L 958.795625 46.598125 
Q 958.795625 48.598125 960.795625 48.598125 
z
" style="fill:#ffffff;opacity:0.8;stroke:#cccccc;stroke-linejoin:miter;"/>
    </g>
    <g id="line2d_27">
     <path d="M 962.795625 39.018438 
L 982.795625 39.018438 
" style="fill:none;stroke:#ff0000;stroke-linecap:square;stroke-width:1.5;"/>
    </g>
    <g id="line2d_28"/>
    <g id="text_19">
     <!-- daily RankIC cumsum -->
     <g transform="translate(990.795625 42.518438)scale(0.1 -0.1)">
      <defs>
       <path d="M 45.40625 46.390625 
L 45.40625 75.984375 
L 54.390625 75.984375 
L 54.390625 0 
L 45.40625 0 
L 45.40625 8.203125 
Q 42.578125 3.328125 38.25 0.953125 
Q 33.9375 -1.421875 27.875 -1.421875 
Q 17.96875 -1.421875 11.734375 6.484375 
Q 5.515625 14.40625 5.515625 27.296875 
Q 5.515625 40.1875 11.734375 48.09375 
Q 17.96875 56 27.875 56 
Q 33.9375 56 38.25 53.625 
Q 42.578125 51.265625 45.40625 46.390625 
z
M 14.796875 27.296875 
Q 14.796875 17.390625 18.875 11.75 
Q 22.953125 6.109375 30.078125 6.109375 
Q 37.203125 6.109375 41.296875 11.75 
Q 45.40625 17.390625 45.40625 27.296875 
Q 45.40625 37.203125 41.296875 42.84375 
Q 37.203125 48.484375 30.078125 48.484375 
Q 22.953125 48.484375 18.875 42.84375 
Q 14.796875 37.203125 14.796875 27.296875 
z
" id="DejaVuSans-100"/>
       <path d="M 9.421875 54.6875 
L 18.40625 54.6875 
L 18.40625 0 
L 9.421875 0 
z
M 9.421875 75.984375 
L 18.40625 75.984375 
L 18.40625 64.59375 
L 9.421875 64.59375 
z
" id="DejaVuSans-105"/>
      </defs>
      <use xlink:href="#DejaVuSans-100"/>
      <use x="63.476562" xlink:href="#DejaVuSans-97"/>
      <use x="124.755859" xlink:href="#DejaVuSans-105"/>
      <use x="152.539062" xlink:href="#DejaVuSans-108"/>
      <use x="180.322266" xlink:href="#DejaVuSans-121"/>
      <use x="239.501953" xlink:href="#DejaVuSans-32"/>
      <use x="271.289062" xlink:href="#DejaVuSans-82"/>
      <use x="338.521484" xlink:href="#DejaVuSans-97"/>
      <use x="399.800781" xlink:href="#DejaVuSans-110"/>
      <use x="463.179688" xlink:href="#DejaVuSans-107"/>
      <use x="521.089844" xlink:href="#DejaVuSans-73"/>
      <use x="550.582031" xlink:href="#DejaVuSans-67"/>
      <use x="620.40625" xlink:href="#DejaVuSans-32"/>
      <use x="652.193359" xlink:href="#DejaVuSans-99"/>
      <use x="707.173828" xlink:href="#DejaVuSans-117"/>
      <use x="770.552734" xlink:href="#DejaVuSans-109"/>
      <use x="867.964844" xlink:href="#DejaVuSans-115"/>
      <use x="920.064453" xlink:href="#DejaVuSans-117"/>
      <use x="983.443359" xlink:href="#DejaVuSans-109"/>
     </g>
    </g>
   </g>
  </g>
  <g id="axes_3">
   <g id="matplotlib.axis_4">
    <g id="ytick_14">
     <g id="line2d_29">
      <g>
       <use style="stroke:#000000;stroke-width:0.8;" x="1107.88" xlink:href="#m682202f15e" y="424.76"/>
      </g>
     </g>
    </g>
    <g id="ytick_15">
     <g id="line2d_30">
      <g>
       <use style="stroke:#000000;stroke-width:0.8;" x="1107.88" xlink:href="#m682202f15e" y="344.992"/>
      </g>
     </g>
    </g>
    <g id="ytick_16">
     <g id="line2d_31">
      <g>
       <use style="stroke:#000000;stroke-width:0.8;" x="1107.88" xlink:href="#m682202f15e" y="265.224"/>
      </g>
     </g>
    </g>
    <g id="ytick_17">
     <g id="line2d_32">
      <g>
       <use style="stroke:#000000;stroke-width:0.8;" x="1107.88" xlink:href="#m682202f15e" y="185.456"/>
      </g>
     </g>
    </g>
    <g id="ytick_18">
     <g id="line2d_33">
      <g>
       <use style="stroke:#000000;stroke-width:0.8;" x="1107.88" xlink:href="#m682202f15e" y="105.688"/>
      </g>
     </g>
    </g>
    <g id="ytick_19">
     <g id="line2d_34">
      <g>
       <use style="stroke:#000000;stroke-width:0.8;" x="1107.88" xlink:href="#m682202f15e" y="25.92"/>
      </g>
     </g>
    </g>
   </g>
   <g id="patch_54">
    <path d="M 50.9 424.76 
L 50.9 25.92 
" style="fill:none;stroke:#000000;stroke-linecap:square;stroke-linejoin:miter;stroke-width:0.8;"/>
   </g>
   <g id="patch_55">
    <path d="M 1107.88 424.76 
L 1107.88 25.92 
" style="fill:none;stroke:#000000;stroke-linecap:square;stroke-linejoin:miter;stroke-width:0.8;"/>
   </g>
   <g id="patch_56">
    <path d="M 50.9 424.76 
L 1107.88 424.76 
" style="fill:none;stroke:#000000;stroke-linecap:square;stroke-linejoin:miter;stroke-width:0.8;"/>
   </g>
   <g id="patch_57">
    <path d="M 50.9 25.92 
L 1107.88 25.92 
" style="fill:none;stroke:#000000;stroke-linecap:square;stroke-linejoin:miter;stroke-width:0.8;"/>
   </g>
   <g id="text_20">
    <!-- RankIC: (2010-01-04 ~ 2010-10-08) -->
    <g transform="translate(471.252187 19.92)scale(0.12 -0.12)">
     <defs>
      <path d="M 11.71875 12.40625 
L 22.015625 12.40625 
L 22.015625 0 
L 11.71875 0 
z
M 11.71875 51.703125 
L 22.015625 51.703125 
L 22.015625 39.3125 
L 11.71875 39.3125 
z
" id="DejaVuSans-58"/>
      <path d="M 31 75.875 
Q 24.46875 64.65625 21.28125 53.65625 
Q 18.109375 42.671875 18.109375 31.390625 
Q 18.109375 20.125 21.3125 9.0625 
Q 24.515625 -2 31 -13.1875 
L 23.1875 -13.1875 
Q 15.875 -1.703125 12.234375 9.375 
Q 8.59375 20.453125 8.59375 31.390625 
Q 8.59375 42.28125 12.203125 53.3125 
Q 15.828125 64.359375 23.1875 75.875 
z
" id="DejaVuSans-40"/>
      <path d="M 73.1875 39.890625 
L 73.1875 31.203125 
Q 68.0625 27.34375 63.6875 25.6875 
Q 59.328125 24.03125 54.59375 24.03125 
Q 49.21875 24.03125 42.09375 26.90625 
Q 41.546875 27.09375 41.3125 27.203125 
Q 40.96875 27.34375 40.234375 27.59375 
Q 32.671875 30.609375 28.078125 30.609375 
Q 23.78125 30.609375 19.578125 28.734375 
Q 15.375 26.859375 10.59375 22.796875 
L 10.59375 31.5 
Q 15.71875 35.359375 20.09375 37.03125 
Q 24.46875 38.71875 29.203125 38.71875 
Q 34.578125 38.71875 41.75 35.796875 
Q 42.234375 35.59375 42.484375 35.5 
Q 42.875 35.359375 43.5625 35.109375 
Q 51.125 32.078125 55.71875 32.078125 
Q 59.90625 32.078125 64.03125 33.9375 
Q 68.171875 35.796875 73.1875 39.890625 
z
" id="DejaVuSans-126"/>
      <path d="M 8.015625 75.875 
L 15.828125 75.875 
Q 23.140625 64.359375 26.78125 53.3125 
Q 30.421875 42.28125 30.421875 31.390625 
Q 30.421875 20.453125 26.78125 9.375 
Q 23.140625 -1.703125 15.828125 -13.1875 
L 8.015625 -13.1875 
Q 14.5 -2 17.703125 9.0625 
Q 20.90625 20.125 20.90625 31.390625 
Q 20.90625 42.671875 17.703125 53.65625 
Q 14.5 64.65625 8.015625 75.875 
z
" id="DejaVuSans-41"/>
     </defs>
     <use xlink:href="#DejaVuSans-82"/>
     <use x="67.232422" xlink:href="#DejaVuSans-97"/>
     <use x="128.511719" xlink:href="#DejaVuSans-110"/>
     <use x="191.890625" xlink:href="#DejaVuSans-107"/>
     <use x="249.800781" xlink:href="#DejaVuSans-73"/>
     <use x="279.292969" xlink:href="#DejaVuSans-67"/>
     <use x="349.117188" xlink:href="#DejaVuSans-58"/>
     <use x="382.808594" xlink:href="#DejaVuSans-32"/>
     <use x="414.595703" xlink:href="#DejaVuSans-40"/>
     <use x="453.609375" xlink:href="#DejaVuSans-50"/>
     <use x="517.232422" xlink:href="#DejaVuSans-48"/>
     <use x="580.855469" xlink:href="#DejaVuSans-49"/>
     <use x="644.478516" xlink:href="#DejaVuSans-48"/>
     <use x="708.101562" xlink:href="#DejaVuSans-45"/>
     <use x="744.185547" xlink:href="#DejaVuSans-48"/>
     <use x="807.808594" xlink:href="#DejaVuSans-49"/>
     <use x="871.431641" xlink:href="#DejaVuSans-45"/>
     <use x="907.515625" xlink:href="#DejaVuSans-48"/>
     <use x="971.138672" xlink:href="#DejaVuSans-52"/>
     <use x="1034.761719" xlink:href="#DejaVuSans-32"/>
     <use x="1066.548828" xlink:href="#DejaVuSans-126"/>
     <use x="1150.337891" xlink:href="#DejaVuSans-32"/>
     <use x="1182.125" xlink:href="#DejaVuSans-50"/>
     <use x="1245.748047" xlink:href="#DejaVuSans-48"/>
     <use x="1309.371094" xlink:href="#DejaVuSans-49"/>
     <use x="1372.994141" xlink:href="#DejaVuSans-48"/>
     <use x="1436.617188" xlink:href="#DejaVuSans-45"/>
     <use x="1472.701172" xlink:href="#DejaVuSans-49"/>
     <use x="1536.324219" xlink:href="#DejaVuSans-48"/>
     <use x="1599.947266" xlink:href="#DejaVuSans-45"/>
     <use x="1636.03125" xlink:href="#DejaVuSans-48"/>
     <use x="1699.654297" xlink:href="#DejaVuSans-56"/>
     <use x="1763.277344" xlink:href="#DejaVuSans-41"/>
    </g>
   </g>
   <g id="legend_3">
    <g id="patch_58">
     <path d="M 493.357969 92.6325 
L 665.422031 92.6325 
Q 667.422031 92.6325 667.422031 90.6325 
L 667.422031 32.92 
Q 667.422031 30.92 665.422031 30.92 
L 493.357969 30.92 
Q 491.357969 30.92 491.357969 32.92 
L 491.357969 90.6325 
Q 491.357969 92.6325 493.357969 92.6325 
z
" style="fill:#ffffff;opacity:0.8;stroke:#cccccc;stroke-linejoin:miter;"/>
    </g>
    <g id="line2d_35"/>
    <g id="line2d_36"/>
    <g id="text_21">
     <!-- RankIC mean:   0.0439         -->
     <g transform="translate(523.357969 42.518438)scale(0.1 -0.1)">
      <defs>
       <path d="M 10.984375 1.515625 
L 10.984375 10.5 
Q 14.703125 8.734375 18.5 7.8125 
Q 22.3125 6.890625 25.984375 6.890625 
Q 35.75 6.890625 40.890625 13.453125 
Q 46.046875 20.015625 46.78125 33.40625 
Q 43.953125 29.203125 39.59375 26.953125 
Q 35.25 24.703125 29.984375 24.703125 
Q 19.046875 24.703125 12.671875 31.3125 
Q 6.296875 37.9375 6.296875 49.421875 
Q 6.296875 60.640625 12.9375 67.421875 
Q 19.578125 74.21875 30.609375 74.21875 
Q 43.265625 74.21875 49.921875 64.515625 
Q 56.59375 54.828125 56.59375 36.375 
Q 56.59375 19.140625 48.40625 8.859375 
Q 40.234375 -1.421875 26.421875 -1.421875 
Q 22.703125 -1.421875 18.890625 -0.6875 
Q 15.09375 0.046875 10.984375 1.515625 
z
M 30.609375 32.421875 
Q 37.25 32.421875 41.125 36.953125 
Q 45.015625 41.5 45.015625 49.421875 
Q 45.015625 57.28125 41.125 61.84375 
Q 37.25 66.40625 30.609375 66.40625 
Q 23.96875 66.40625 20.09375 61.84375 
Q 16.21875 57.28125 16.21875 49.421875 
Q 16.21875 41.5 20.09375 36.953125 
Q 23.96875 32.421875 30.609375 32.421875 
z
" id="DejaVuSans-57"/>
      </defs>
      <use xlink:href="#DejaVuSans-82"/>
      <use x="67.232422" xlink:href="#DejaVuSans-97"/>
      <use x="128.511719" xlink:href="#DejaVuSans-110"/>
      <use x="191.890625" xlink:href="#DejaVuSans-107"/>
      <use x="249.800781" xlink:href="#DejaVuSans-73"/>
      <use x="279.292969" xlink:href="#DejaVuSans-67"/>
      <use x="349.117188" xlink:href="#DejaVuSans-32"/>
      <use x="380.904297" xlink:href="#DejaVuSans-109"/>
      <use x="478.316406" xlink:href="#DejaVuSans-101"/>
      <use x="539.839844" xlink:href="#DejaVuSans-97"/>
      <use x="601.119141" xlink:href="#DejaVuSans-110"/>
      <use x="664.498047" xlink:href="#DejaVuSans-58"/>
      <use x="698.189453" xlink:href="#DejaVuSans-32"/>
      <use x="729.976562" xlink:href="#DejaVuSans-32"/>
      <use x="761.763672" xlink:href="#DejaVuSans-32"/>
      <use x="793.550781" xlink:href="#DejaVuSans-48"/>
      <use x="857.173828" xlink:href="#DejaVuSans-46"/>
      <use x="888.960938" xlink:href="#DejaVuSans-48"/>
      <use x="952.583984" xlink:href="#DejaVuSans-52"/>
      <use x="1016.207031" xlink:href="#DejaVuSans-51"/>
      <use x="1079.830078" xlink:href="#DejaVuSans-57"/>
      <use x="1143.453125" xlink:href="#DejaVuSans-32"/>
      <use x="1175.240234" xlink:href="#DejaVuSans-32"/>
      <use x="1207.027344" xlink:href="#DejaVuSans-32"/>
      <use x="1238.814453" xlink:href="#DejaVuSans-32"/>
      <use x="1270.601562" xlink:href="#DejaVuSans-32"/>
      <use x="1302.388672" xlink:href="#DejaVuSans-32"/>
      <use x="1334.175781" xlink:href="#DejaVuSans-32"/>
      <use x="1365.962891" xlink:href="#DejaVuSans-32"/>
     </g>
    </g>
    <g id="line2d_37"/>
    <g id="line2d_38"/>
    <g id="text_22">
     <!-- RankIC std:       0.3083         -->
     <g transform="translate(523.357969 57.196563)scale(0.1 -0.1)">
      <defs>
       <path d="M 18.3125 70.21875 
L 18.3125 54.6875 
L 36.8125 54.6875 
L 36.8125 47.703125 
L 18.3125 47.703125 
L 18.3125 18.015625 
Q 18.3125 11.328125 20.140625 9.421875 
Q 21.96875 7.515625 27.59375 7.515625 
L 36.8125 7.515625 
L 36.8125 0 
L 27.59375 0 
Q 17.1875 0 13.234375 3.875 
Q 9.28125 7.765625 9.28125 18.015625 
L 9.28125 47.703125 
L 2.6875 47.703125 
L 2.6875 54.6875 
L 9.28125 54.6875 
L 9.28125 70.21875 
z
" id="DejaVuSans-116"/>
      </defs>
      <use xlink:href="#DejaVuSans-82"/>
      <use x="67.232422" xlink:href="#DejaVuSans-97"/>
      <use x="128.511719" xlink:href="#DejaVuSans-110"/>
      <use x="191.890625" xlink:href="#DejaVuSans-107"/>
      <use x="249.800781" xlink:href="#DejaVuSans-73"/>
      <use x="279.292969" xlink:href="#DejaVuSans-67"/>
      <use x="349.117188" xlink:href="#DejaVuSans-32"/>
      <use x="380.904297" xlink:href="#DejaVuSans-115"/>
      <use x="433.003906" xlink:href="#DejaVuSans-116"/>
      <use x="472.212891" xlink:href="#DejaVuSans-100"/>
      <use x="535.689453" xlink:href="#DejaVuSans-58"/>
      <use x="569.380859" xlink:href="#DejaVuSans-32"/>
      <use x="601.167969" xlink:href="#DejaVuSans-32"/>
      <use x="632.955078" xlink:href="#DejaVuSans-32"/>
      <use x="664.742188" xlink:href="#DejaVuSans-32"/>
      <use x="696.529297" xlink:href="#DejaVuSans-32"/>
      <use x="728.316406" xlink:href="#DejaVuSans-32"/>
      <use x="760.103516" xlink:href="#DejaVuSans-32"/>
      <use x="791.890625" xlink:href="#DejaVuSans-48"/>
      <use x="855.513672" xlink:href="#DejaVuSans-46"/>
      <use x="887.300781" xlink:href="#DejaVuSans-51"/>
      <use x="950.923828" xlink:href="#DejaVuSans-48"/>
      <use x="1014.546875" xlink:href="#DejaVuSans-56"/>
      <use x="1078.169922" xlink:href="#DejaVuSans-51"/>
      <use x="1141.792969" xlink:href="#DejaVuSans-32"/>
      <use x="1173.580078" xlink:href="#DejaVuSans-32"/>
      <use x="1205.367188" xlink:href="#DejaVuSans-32"/>
      <use x="1237.154297" xlink:href="#DejaVuSans-32"/>
      <use x="1268.941406" xlink:href="#DejaVuSans-32"/>
      <use x="1300.728516" xlink:href="#DejaVuSans-32"/>
      <use x="1332.515625" xlink:href="#DejaVuSans-32"/>
      <use x="1364.302734" xlink:href="#DejaVuSans-32"/>
     </g>
    </g>
    <g id="line2d_39"/>
    <g id="line2d_40"/>
    <g id="text_23">
     <!-- RankIC IR:         0.1425         -->
     <g transform="translate(523.357969 71.874688)scale(0.1 -0.1)">
      <defs>
       <path d="M 10.796875 72.90625 
L 49.515625 72.90625 
L 49.515625 64.59375 
L 19.828125 64.59375 
L 19.828125 46.734375 
Q 21.96875 47.46875 24.109375 47.828125 
Q 26.265625 48.1875 28.421875 48.1875 
Q 40.625 48.1875 47.75 41.5 
Q 54.890625 34.8125 54.890625 23.390625 
Q 54.890625 11.625 47.5625 5.09375 
Q 40.234375 -1.421875 26.90625 -1.421875 
Q 22.3125 -1.421875 17.546875 -0.640625 
Q 12.796875 0.140625 7.71875 1.703125 
L 7.71875 11.625 
Q 12.109375 9.234375 16.796875 8.0625 
Q 21.484375 6.890625 26.703125 6.890625 
Q 35.15625 6.890625 40.078125 11.328125 
Q 45.015625 15.765625 45.015625 23.390625 
Q 45.015625 31 40.078125 35.4375 
Q 35.15625 39.890625 26.703125 39.890625 
Q 22.75 39.890625 18.8125 39.015625 
Q 14.890625 38.140625 10.796875 36.28125 
z
" id="DejaVuSans-53"/>
      </defs>
      <use xlink:href="#DejaVuSans-82"/>
      <use x="67.232422" xlink:href="#DejaVuSans-97"/>
      <use x="128.511719" xlink:href="#DejaVuSans-110"/>
      <use x="191.890625" xlink:href="#DejaVuSans-107"/>
      <use x="249.800781" xlink:href="#DejaVuSans-73"/>
      <use x="279.292969" xlink:href="#DejaVuSans-67"/>
      <use x="349.117188" xlink:href="#DejaVuSans-32"/>
      <use x="380.904297" xlink:href="#DejaVuSans-73"/>
      <use x="410.396484" xlink:href="#DejaVuSans-82"/>
      <use x="476.753906" xlink:href="#DejaVuSans-58"/>
      <use x="510.445312" xlink:href="#DejaVuSans-32"/>
      <use x="542.232422" xlink:href="#DejaVuSans-32"/>
      <use x="574.019531" xlink:href="#DejaVuSans-32"/>
      <use x="605.806641" xlink:href="#DejaVuSans-32"/>
      <use x="637.59375" xlink:href="#DejaVuSans-32"/>
      <use x="669.380859" xlink:href="#DejaVuSans-32"/>
      <use x="701.167969" xlink:href="#DejaVuSans-32"/>
      <use x="732.955078" xlink:href="#DejaVuSans-32"/>
      <use x="764.742188" xlink:href="#DejaVuSans-32"/>
      <use x="796.529297" xlink:href="#DejaVuSans-48"/>
      <use x="860.152344" xlink:href="#DejaVuSans-46"/>
      <use x="891.939453" xlink:href="#DejaVuSans-49"/>
      <use x="955.5625" xlink:href="#DejaVuSans-52"/>
      <use x="1019.185547" xlink:href="#DejaVuSans-50"/>
      <use x="1082.808594" xlink:href="#DejaVuSans-53"/>
      <use x="1146.431641" xlink:href="#DejaVuSans-32"/>
      <use x="1178.21875" xlink:href="#DejaVuSans-32"/>
      <use x="1210.005859" xlink:href="#DejaVuSans-32"/>
      <use x="1241.792969" xlink:href="#DejaVuSans-32"/>
      <use x="1273.580078" xlink:href="#DejaVuSans-32"/>
      <use x="1305.367188" xlink:href="#DejaVuSans-32"/>
      <use x="1337.154297" xlink:href="#DejaVuSans-32"/>
      <use x="1368.941406" xlink:href="#DejaVuSans-32"/>
     </g>
    </g>
    <g id="line2d_41"/>
    <g id="line2d_42"/>
    <g id="text_24">
     <!-- RankIC (+)rate: 0.5250 -->
     <g transform="translate(523.357969 86.552813)scale(0.1 -0.1)">
      <defs>
       <path d="M 46 62.703125 
L 46 35.5 
L 73.1875 35.5 
L 73.1875 27.203125 
L 46 27.203125 
L 46 0 
L 37.796875 0 
L 37.796875 27.203125 
L 10.59375 27.203125 
L 10.59375 35.5 
L 37.796875 35.5 
L 37.796875 62.703125 
z
" id="DejaVuSans-43"/>
       <path d="M 41.109375 46.296875 
Q 39.59375 47.171875 37.8125 47.578125 
Q 36.03125 48 33.890625 48 
Q 26.265625 48 22.1875 43.046875 
Q 18.109375 38.09375 18.109375 28.8125 
L 18.109375 0 
L 9.078125 0 
L 9.078125 54.6875 
L 18.109375 54.6875 
L 18.109375 46.1875 
Q 20.953125 51.171875 25.484375 53.578125 
Q 30.03125 56 36.53125 56 
Q 37.453125 56 38.578125 55.875 
Q 39.703125 55.765625 41.0625 55.515625 
z
" id="DejaVuSans-114"/>
      </defs>
      <use xlink:href="#DejaVuSans-82"/>
      <use x="67.232422" xlink:href="#DejaVuSans-97"/>
      <use x="128.511719" xlink:href="#DejaVuSans-110"/>
      <use x="191.890625" xlink:href="#DejaVuSans-107"/>
      <use x="249.800781" xlink:href="#DejaVuSans-73"/>
      <use x="279.292969" xlink:href="#DejaVuSans-67"/>
      <use x="349.117188" xlink:href="#DejaVuSans-32"/>
      <use x="380.904297" xlink:href="#DejaVuSans-40"/>
      <use x="419.917969" xlink:href="#DejaVuSans-43"/>
      <use x="503.707031" xlink:href="#DejaVuSans-41"/>
      <use x="542.720703" xlink:href="#DejaVuSans-114"/>
      <use x="583.833984" xlink:href="#DejaVuSans-97"/>
      <use x="645.113281" xlink:href="#DejaVuSans-116"/>
      <use x="684.322266" xlink:href="#DejaVuSans-101"/>
      <use x="745.845703" xlink:href="#DejaVuSans-58"/>
      <use x="779.537109" xlink:href="#DejaVuSans-32"/>
      <use x="811.324219" xlink:href="#DejaVuSans-48"/>
      <use x="874.947266" xlink:href="#DejaVuSans-46"/>
      <use x="906.734375" xlink:href="#DejaVuSans-53"/>
      <use x="970.357422" xlink:href="#DejaVuSans-50"/>
      <use x="1033.980469" xlink:href="#DejaVuSans-53"/>
      <use x="1097.603516" xlink:href="#DejaVuSans-48"/>
     </g>
    </g>
   </g>
  </g>
 </g>
 <defs>
  <clipPath id="pee9dbb6813">
   <rect height="398.84" width="1056.98" x="50.9" y="25.92"/>
  </clipPath>
 </defs>
</svg>
