<?xml version="1.0" encoding="utf-8" standalone="no"?>
<!DOCTYPE svg PUBLIC "-//W3C//DTD SVG 1.1//EN"
  "http://www.w3.org/Graphics/SVG/1.1/DTD/svg11.dtd">
<!-- Created with matplotlib (https://matplotlib.org/) -->
<svg height="468pt" version="1.1" viewBox="0 0 1152 468" width="1152pt" xmlns="http://www.w3.org/2000/svg" xmlns:xlink="http://www.w3.org/1999/xlink">
 <metadata>
  <rdf:RDF xmlns:cc="http://creativecommons.org/ns#" xmlns:dc="http://purl.org/dc/elements/1.1/" xmlns:rdf="http://www.w3.org/1999/02/22-rdf-syntax-ns#">
   <cc:Work>
    <dc:type rdf:resource="http://purl.org/dc/dcmitype/StillImage"/>
    <dc:date>2023-10-11T16:58:29.062542</dc:date>
    <dc:format>image/svg+xml</dc:format>
    <dc:creator>
     <cc:Agent>
      <dc:title>Matplotlib v3.3.4, https://matplotlib.org/</dc:title>
     </cc:Agent>
    </dc:creator>
   </cc:Work>
  </rdf:RDF>
 </metadata>
 <defs>
  <style type="text/css">*{stroke-linecap:butt;stroke-linejoin:round;}</style>
 </defs>
 <g id="figure_1">
  <g id="patch_1">
   <path d="M 0 468 
L 1152 468 
L 1152 0 
L 0 0 
z
" style="fill:#ffffff;"/>
  </g>
  <g id="axes_1">
   <g id="patch_2">
    <path d="M 50.9 424.76 
L 1107.88 424.76 
L 1107.88 25.92 
L 50.9 25.92 
z
" style="fill:#ffffff;"/>
   </g>
   <g id="patch_3">
    <path clip-path="url(#p46c999c29c)" d="M 121.914049 299.250909 
L 102.772796 299.250909 
L 102.772796 222.550909 
L 121.914049 222.550909 
z
" style="fill:#1f77b4;"/>
   </g>
   <g id="patch_4">
    <path clip-path="url(#p46c999c29c)" d="M 148.711804 299.250909 
L 129.570551 299.250909 
L 129.570551 322.958182 
L 148.711804 322.958182 
z
" style="fill:#1f77b4;"/>
   </g>
   <g id="patch_5">
    <path clip-path="url(#p46c999c29c)" d="M 175.509558 299.250909 
L 156.368305 299.250909 
L 156.368305 253.230909 
L 175.509558 253.230909 
z
" style="fill:#1f77b4;"/>
   </g>
   <g id="patch_6">
    <path clip-path="url(#p46c999c29c)" d="M 202.307313 299.250909 
L 183.166059 299.250909 
L 183.166059 406.630909 
L 202.307313 406.630909 
z
" style="fill:#1f77b4;"/>
   </g>
   <g id="patch_7">
    <path clip-path="url(#p46c999c29c)" d="M 229.105067 299.250909 
L 209.963814 299.250909 
L 209.963814 330.395758 
L 229.105067 330.395758 
z
" style="fill:#1f77b4;"/>
   </g>
   <g id="patch_8">
    <path clip-path="url(#p46c999c29c)" d="M 255.902821 299.250909 
L 236.761568 299.250909 
L 236.761568 221.621212 
L 255.902821 221.621212 
z
" style="fill:#1f77b4;"/>
   </g>
   <g id="patch_9">
    <path clip-path="url(#p46c999c29c)" d="M 282.700576 299.250909 
L 263.559323 299.250909 
L 263.559323 294.137576 
L 282.700576 294.137576 
z
" style="fill:#1f77b4;"/>
   </g>
   <g id="patch_10">
    <path clip-path="url(#p46c999c29c)" d="M 309.49833 299.250909 
L 290.357077 299.250909 
L 290.357077 286.7 
L 309.49833 286.7 
z
" style="fill:#1f77b4;"/>
   </g>
   <g id="patch_11">
    <path clip-path="url(#p46c999c29c)" d="M 336.296085 299.250909 
L 317.154832 299.250909 
L 317.154832 264.387273 
L 336.296085 264.387273 
z
" style="fill:#1f77b4;"/>
   </g>
   <g id="patch_12">
    <path clip-path="url(#p46c999c29c)" d="M 363.093839 299.250909 
L 343.952586 299.250909 
L 343.952586 304.364242 
L 363.093839 304.364242 
z
" style="fill:#1f77b4;"/>
   </g>
   <g id="patch_13">
    <path clip-path="url(#p46c999c29c)" d="M 389.891594 299.250909 
L 370.75034 299.250909 
L 370.75034 193.730303 
L 389.891594 193.730303 
z
" style="fill:#1f77b4;"/>
   </g>
   <g id="patch_14">
    <path clip-path="url(#p46c999c29c)" d="M 416.689348 299.250909 
L 397.548095 299.250909 
L 397.548095 119.354545 
L 416.689348 119.354545 
z
" style="fill:#1f77b4;"/>
   </g>
   <g id="patch_15">
    <path clip-path="url(#p46c999c29c)" d="M 443.487102 299.250909 
L 424.345849 299.250909 
L 424.345849 133.3 
L 443.487102 133.3 
z
" style="fill:#1f77b4;"/>
   </g>
   <g id="patch_16">
    <path clip-path="url(#p46c999c29c)" d="M 470.284857 299.250909 
L 451.143604 299.250909 
L 451.143604 182.573939 
L 470.284857 182.573939 
z
" style="fill:#1f77b4;"/>
   </g>
   <g id="patch_17">
    <path clip-path="url(#p46c999c29c)" d="M 497.082611 299.250909 
L 477.941358 299.250909 
L 477.941358 270.895152 
L 497.082611 270.895152 
z
" style="fill:#1f77b4;"/>
   </g>
   <g id="patch_18">
    <path clip-path="url(#p46c999c29c)" d="M 523.880366 299.250909 
L 504.739113 299.250909 
L 504.739113 271.824848 
L 523.880366 271.824848 
z
" style="fill:#1f77b4;"/>
   </g>
   <g id="patch_19">
    <path clip-path="url(#p46c999c29c)" d="M 550.67812 299.250909 
L 531.536867 299.250909 
L 531.536867 276.473333 
L 550.67812 276.473333 
z
" style="fill:#1f77b4;"/>
   </g>
   <g id="patch_20">
    <path clip-path="url(#p46c999c29c)" d="M 577.475875 299.250909 
L 558.334622 299.250909 
L 558.334622 135.159394 
L 577.475875 135.159394 
z
" style="fill:#1f77b4;"/>
   </g>
   <g id="patch_21">
    <path clip-path="url(#p46c999c29c)" d="M 604.273629 299.250909 
L 585.132376 299.250909 
L 585.132376 121.213939 
L 604.273629 121.213939 
z
" style="fill:#1f77b4;"/>
   </g>
   <g id="patch_22">
    <path clip-path="url(#p46c999c29c)" d="M 631.071384 299.250909 
L 611.93013 299.250909 
L 611.93013 112.846667 
L 631.071384 112.846667 
z
" style="fill:#1f77b4;"/>
   </g>
   <g id="patch_23">
    <path clip-path="url(#p46c999c29c)" d="M 657.869138 299.250909 
L 638.727885 299.250909 
L 638.727885 121.213939 
L 657.869138 121.213939 
z
" style="fill:#1f77b4;"/>
   </g>
   <g id="patch_24">
    <path clip-path="url(#p46c999c29c)" d="M 684.666892 299.250909 
L 665.525639 299.250909 
L 665.525639 161.190909 
L 684.666892 161.190909 
z
" style="fill:#1f77b4;"/>
   </g>
   <g id="patch_25">
    <path clip-path="url(#p46c999c29c)" d="M 711.464647 299.250909 
L 692.323394 299.250909 
L 692.323394 191.870909 
L 711.464647 191.870909 
z
" style="fill:#1f77b4;"/>
   </g>
   <g id="patch_26">
    <path clip-path="url(#p46c999c29c)" d="M 738.262401 299.250909 
L 719.121148 299.250909 
L 719.121148 210.464848 
L 738.262401 210.464848 
z
" style="fill:#1f77b4;"/>
   </g>
   <g id="patch_27">
    <path clip-path="url(#p46c999c29c)" d="M 765.060156 299.250909 
L 745.918903 299.250909 
L 745.918903 115.635758 
L 765.060156 115.635758 
z
" style="fill:#1f77b4;"/>
   </g>
   <g id="patch_28">
    <path clip-path="url(#p46c999c29c)" d="M 791.85791 299.250909 
L 772.716657 299.250909 
L 772.716657 137.948485 
L 791.85791 137.948485 
z
" style="fill:#1f77b4;"/>
   </g>
   <g id="patch_29">
    <path clip-path="url(#p46c999c29c)" d="M 818.655665 299.250909 
L 799.514411 299.250909 
L 799.514411 71.94 
L 818.655665 71.94 
z
" style="fill:#1f77b4;"/>
   </g>
   <g id="patch_30">
    <path clip-path="url(#p46c999c29c)" d="M 845.453419 299.250909 
L 826.312166 299.250909 
L 826.312166 44.049091 
L 845.453419 44.049091 
z
" style="fill:#1f77b4;"/>
   </g>
   <g id="patch_31">
    <path clip-path="url(#p46c999c29c)" d="M 872.251173 299.250909 
L 853.10992 299.250909 
L 853.10992 198.378788 
L 872.251173 198.378788 
z
" style="fill:#1f77b4;"/>
   </g>
   <g id="patch_32">
    <path clip-path="url(#p46c999c29c)" d="M 899.048928 299.250909 
L 879.907675 299.250909 
L 879.907675 196.519394 
L 899.048928 196.519394 
z
" style="fill:#1f77b4;"/>
   </g>
   <g id="patch_33">
    <path clip-path="url(#p46c999c29c)" d="M 925.846682 299.250909 
L 906.705429 299.250909 
L 906.705429 351.778788 
L 925.846682 351.778788 
z
" style="fill:#1f77b4;"/>
   </g>
   <g id="patch_34">
    <path clip-path="url(#p46c999c29c)" d="M 952.644437 299.250909 
L 933.503184 299.250909 
L 933.503184 383.388485 
L 952.644437 383.388485 
z
" style="fill:#1f77b4;"/>
   </g>
   <g id="patch_35">
    <path clip-path="url(#p46c999c29c)" d="M 979.442191 299.250909 
L 960.300938 299.250909 
L 960.300938 370.372727 
L 979.442191 370.372727 
z
" style="fill:#1f77b4;"/>
   </g>
   <g id="patch_36">
    <path clip-path="url(#p46c999c29c)" d="M 1006.239946 299.250909 
L 987.098693 299.250909 
L 987.098693 312.731515 
L 1006.239946 312.731515 
z
" style="fill:#1f77b4;"/>
   </g>
   <g id="patch_37">
    <path clip-path="url(#p46c999c29c)" d="M 1033.0377 299.250909 
L 1013.896447 299.250909 
L 1013.896447 260.668485 
L 1033.0377 260.668485 
z
" style="fill:#1f77b4;"/>
   </g>
   <g id="patch_38">
    <path clip-path="url(#p46c999c29c)" d="M 1059.835455 299.250909 
L 1040.694201 299.250909 
L 1040.694201 215.113333 
L 1059.835455 215.113333 
z
" style="fill:#1f77b4;"/>
   </g>
   <g id="patch_39">
    <path clip-path="url(#p46c999c29c)" d="M 0 0 
z
" style="fill:#1f77b4;"/>
   </g>
   <g id="patch_40">
    <path clip-path="url(#p46c999c29c)" d="M 0 0 
z
" style="fill:#1f77b4;"/>
   </g>
   <g id="patch_41">
    <path clip-path="url(#p46c999c29c)" d="M 0 0 
z
" style="fill:#1f77b4;"/>
   </g>
   <g id="patch_42">
    <path clip-path="url(#p46c999c29c)" d="M 0 0 
z
" style="fill:#1f77b4;"/>
   </g>
   <g id="matplotlib.axis_1">
    <g id="xtick_1">
     <g id="line2d_1">
      <path clip-path="url(#p46c999c29c)" d="M 87.459794 424.76 
L 87.459794 25.92 
" style="fill:none;stroke:#b0b0b0;stroke-linecap:square;stroke-width:0.8;"/>
     </g>
     <g id="line2d_2">
      <defs>
       <path d="M 0 0 
L 0 3.5 
" id="m8da505679b" style="stroke:#000000;stroke-width:0.8;"/>
      </defs>
      <g>
       <use style="stroke:#000000;stroke-width:0.8;" x="87.459794" xlink:href="#m8da505679b" y="424.76"/>
      </g>
     </g>
     <g id="text_1">
      <!-- 2010 -->
      <g transform="translate(90.219169 457.21)rotate(-90)scale(0.1 -0.1)">
       <defs>
        <path d="M 19.1875 8.296875 
L 53.609375 8.296875 
L 53.609375 0 
L 7.328125 0 
L 7.328125 8.296875 
Q 12.9375 14.109375 22.625 23.890625 
Q 32.328125 33.6875 34.8125 36.53125 
Q 39.546875 41.84375 41.421875 45.53125 
Q 43.3125 49.21875 43.3125 52.78125 
Q 43.3125 58.59375 39.234375 62.25 
Q 35.15625 65.921875 28.609375 65.921875 
Q 23.96875 65.921875 18.8125 64.3125 
Q 13.671875 62.703125 7.8125 59.421875 
L 7.8125 69.390625 
Q 13.765625 71.78125 18.9375 73 
Q 24.125 74.21875 28.421875 74.21875 
Q 39.75 74.21875 46.484375 68.546875 
Q 53.21875 62.890625 53.21875 53.421875 
Q 53.21875 48.921875 51.53125 44.890625 
Q 49.859375 40.875 45.40625 35.40625 
Q 44.1875 33.984375 37.640625 27.21875 
Q 31.109375 20.453125 19.1875 8.296875 
z
" id="DejaVuSans-50"/>
        <path d="M 31.78125 66.40625 
Q 24.171875 66.40625 20.328125 58.90625 
Q 16.5 51.421875 16.5 36.375 
Q 16.5 21.390625 20.328125 13.890625 
Q 24.171875 6.390625 31.78125 6.390625 
Q 39.453125 6.390625 43.28125 13.890625 
Q 47.125 21.390625 47.125 36.375 
Q 47.125 51.421875 43.28125 58.90625 
Q 39.453125 66.40625 31.78125 66.40625 
z
M 31.78125 74.21875 
Q 44.046875 74.21875 50.515625 64.515625 
Q 56.984375 54.828125 56.984375 36.375 
Q 56.984375 17.96875 50.515625 8.265625 
Q 44.046875 -1.421875 31.78125 -1.421875 
Q 19.53125 -1.421875 13.0625 8.265625 
Q 6.59375 17.96875 6.59375 36.375 
Q 6.59375 54.828125 13.0625 64.515625 
Q 19.53125 74.21875 31.78125 74.21875 
z
" id="DejaVuSans-48"/>
        <path d="M 12.40625 8.296875 
L 28.515625 8.296875 
L 28.515625 63.921875 
L 10.984375 60.40625 
L 10.984375 69.390625 
L 28.421875 72.90625 
L 38.28125 72.90625 
L 38.28125 8.296875 
L 54.390625 8.296875 
L 54.390625 0 
L 12.40625 0 
z
" id="DejaVuSans-49"/>
       </defs>
       <use xlink:href="#DejaVuSans-50"/>
       <use x="63.623047" xlink:href="#DejaVuSans-48"/>
       <use x="127.246094" xlink:href="#DejaVuSans-49"/>
       <use x="190.869141" xlink:href="#DejaVuSans-48"/>
      </g>
     </g>
    </g>
   </g>
   <g id="matplotlib.axis_2">
    <g id="ytick_1">
     <g id="line2d_3">
      <path clip-path="url(#p46c999c29c)" d="M 50.9 375.950909 
L 1107.88 375.950909 
" style="fill:none;stroke:#b0b0b0;stroke-linecap:square;stroke-width:0.8;"/>
     </g>
     <g id="line2d_4">
      <defs>
       <path d="M 0 0 
L -3.5 0 
" id="md23a1ffd86" style="stroke:#000000;stroke-width:0.8;"/>
      </defs>
      <g>
       <use style="stroke:#000000;stroke-width:0.8;" x="50.9" xlink:href="#md23a1ffd86" y="375.950909"/>
      </g>
     </g>
     <g id="text_2">
      <!-- -0.2 -->
      <g transform="translate(24.389062 379.750128)scale(0.1 -0.1)">
       <defs>
        <path d="M 4.890625 31.390625 
L 31.203125 31.390625 
L 31.203125 23.390625 
L 4.890625 23.390625 
z
" id="DejaVuSans-45"/>
        <path d="M 10.6875 12.40625 
L 21 12.40625 
L 21 0 
L 10.6875 0 
z
" id="DejaVuSans-46"/>
       </defs>
       <use xlink:href="#DejaVuSans-45"/>
       <use x="36.083984" xlink:href="#DejaVuSans-48"/>
       <use x="99.707031" xlink:href="#DejaVuSans-46"/>
       <use x="131.494141" xlink:href="#DejaVuSans-50"/>
      </g>
     </g>
    </g>
    <g id="ytick_2">
     <g id="line2d_5">
      <path clip-path="url(#p46c999c29c)" d="M 50.9 299.250909 
L 1107.88 299.250909 
" style="fill:none;stroke:#b0b0b0;stroke-linecap:square;stroke-width:0.8;"/>
     </g>
     <g id="line2d_6">
      <g>
       <use style="stroke:#000000;stroke-width:0.8;" x="50.9" xlink:href="#md23a1ffd86" y="299.250909"/>
      </g>
     </g>
     <g id="text_3">
      <!-- 0.0 -->
      <g transform="translate(27.996875 303.050128)scale(0.1 -0.1)">
       <use xlink:href="#DejaVuSans-48"/>
       <use x="63.623047" xlink:href="#DejaVuSans-46"/>
       <use x="95.410156" xlink:href="#DejaVuSans-48"/>
      </g>
     </g>
    </g>
    <g id="ytick_3">
     <g id="line2d_7">
      <path clip-path="url(#p46c999c29c)" d="M 50.9 222.550909 
L 1107.88 222.550909 
" style="fill:none;stroke:#b0b0b0;stroke-linecap:square;stroke-width:0.8;"/>
     </g>
     <g id="line2d_8">
      <g>
       <use style="stroke:#000000;stroke-width:0.8;" x="50.9" xlink:href="#md23a1ffd86" y="222.550909"/>
      </g>
     </g>
     <g id="text_4">
      <!-- 0.2 -->
      <g transform="translate(27.996875 226.350128)scale(0.1 -0.1)">
       <use xlink:href="#DejaVuSans-48"/>
       <use x="63.623047" xlink:href="#DejaVuSans-46"/>
       <use x="95.410156" xlink:href="#DejaVuSans-50"/>
      </g>
     </g>
    </g>
    <g id="ytick_4">
     <g id="line2d_9">
      <path clip-path="url(#p46c999c29c)" d="M 50.9 145.850909 
L 1107.88 145.850909 
" style="fill:none;stroke:#b0b0b0;stroke-linecap:square;stroke-width:0.8;"/>
     </g>
     <g id="line2d_10">
      <g>
       <use style="stroke:#000000;stroke-width:0.8;" x="50.9" xlink:href="#md23a1ffd86" y="145.850909"/>
      </g>
     </g>
     <g id="text_5">
      <!-- 0.4 -->
      <g transform="translate(27.996875 149.650128)scale(0.1 -0.1)">
       <defs>
        <path d="M 37.796875 64.3125 
L 12.890625 25.390625 
L 37.796875 25.390625 
z
M 35.203125 72.90625 
L 47.609375 72.90625 
L 47.609375 25.390625 
L 58.015625 25.390625 
L 58.015625 17.1875 
L 47.609375 17.1875 
L 47.609375 0 
L 37.796875 0 
L 37.796875 17.1875 
L 4.890625 17.1875 
L 4.890625 26.703125 
z
" id="DejaVuSans-52"/>
       </defs>
       <use xlink:href="#DejaVuSans-48"/>
       <use x="63.623047" xlink:href="#DejaVuSans-46"/>
       <use x="95.410156" xlink:href="#DejaVuSans-52"/>
      </g>
     </g>
    </g>
    <g id="ytick_5">
     <g id="line2d_11">
      <path clip-path="url(#p46c999c29c)" d="M 50.9 69.150909 
L 1107.88 69.150909 
" style="fill:none;stroke:#b0b0b0;stroke-linecap:square;stroke-width:0.8;"/>
     </g>
     <g id="line2d_12">
      <g>
       <use style="stroke:#000000;stroke-width:0.8;" x="50.9" xlink:href="#md23a1ffd86" y="69.150909"/>
      </g>
     </g>
     <g id="text_6">
      <!-- 0.6 -->
      <g transform="translate(27.996875 72.950128)scale(0.1 -0.1)">
       <defs>
        <path d="M 33.015625 40.375 
Q 26.375 40.375 22.484375 35.828125 
Q 18.609375 31.296875 18.609375 23.390625 
Q 18.609375 15.53125 22.484375 10.953125 
Q 26.375 6.390625 33.015625 6.390625 
Q 39.65625 6.390625 43.53125 10.953125 
Q 47.40625 15.53125 47.40625 23.390625 
Q 47.40625 31.296875 43.53125 35.828125 
Q 39.65625 40.375 33.015625 40.375 
z
M 52.59375 71.296875 
L 52.59375 62.3125 
Q 48.875 64.0625 45.09375 64.984375 
Q 41.3125 65.921875 37.59375 65.921875 
Q 27.828125 65.921875 22.671875 59.328125 
Q 17.53125 52.734375 16.796875 39.40625 
Q 19.671875 43.65625 24.015625 45.921875 
Q 28.375 48.1875 33.59375 48.1875 
Q 44.578125 48.1875 50.953125 41.515625 
Q 57.328125 34.859375 57.328125 23.390625 
Q 57.328125 12.15625 50.6875 5.359375 
Q 44.046875 -1.421875 33.015625 -1.421875 
Q 20.359375 -1.421875 13.671875 8.265625 
Q 6.984375 17.96875 6.984375 36.375 
Q 6.984375 53.65625 15.1875 63.9375 
Q 23.390625 74.21875 37.203125 74.21875 
Q 40.921875 74.21875 44.703125 73.484375 
Q 48.484375 72.75 52.59375 71.296875 
z
" id="DejaVuSans-54"/>
       </defs>
       <use xlink:href="#DejaVuSans-48"/>
       <use x="63.623047" xlink:href="#DejaVuSans-46"/>
       <use x="95.410156" xlink:href="#DejaVuSans-54"/>
      </g>
     </g>
    </g>
    <g id="text_7">
     <!-- RankIC -->
     <g transform="translate(18.309375 242.79625)rotate(-90)scale(0.1 -0.1)">
      <defs>
       <path d="M 44.390625 34.1875 
Q 47.5625 33.109375 50.5625 29.59375 
Q 53.5625 26.078125 56.59375 19.921875 
L 66.609375 0 
L 56 0 
L 46.6875 18.703125 
Q 43.0625 26.03125 39.671875 28.421875 
Q 36.28125 30.8125 30.421875 30.8125 
L 19.671875 30.8125 
L 19.671875 0 
L 9.8125 0 
L 9.8125 72.90625 
L 32.078125 72.90625 
Q 44.578125 72.90625 50.734375 67.671875 
Q 56.890625 62.453125 56.890625 51.90625 
Q 56.890625 45.015625 53.6875 40.46875 
Q 50.484375 35.9375 44.390625 34.1875 
z
M 19.671875 64.796875 
L 19.671875 38.921875 
L 32.078125 38.921875 
Q 39.203125 38.921875 42.84375 42.21875 
Q 46.484375 45.515625 46.484375 51.90625 
Q 46.484375 58.296875 42.84375 61.546875 
Q 39.203125 64.796875 32.078125 64.796875 
z
" id="DejaVuSans-82"/>
       <path d="M 34.28125 27.484375 
Q 23.390625 27.484375 19.1875 25 
Q 14.984375 22.515625 14.984375 16.5 
Q 14.984375 11.71875 18.140625 8.90625 
Q 21.296875 6.109375 26.703125 6.109375 
Q 34.1875 6.109375 38.703125 11.40625 
Q 43.21875 16.703125 43.21875 25.484375 
L 43.21875 27.484375 
z
M 52.203125 31.203125 
L 52.203125 0 
L 43.21875 0 
L 43.21875 8.296875 
Q 40.140625 3.328125 35.546875 0.953125 
Q 30.953125 -1.421875 24.3125 -1.421875 
Q 15.921875 -1.421875 10.953125 3.296875 
Q 6 8.015625 6 15.921875 
Q 6 25.140625 12.171875 29.828125 
Q 18.359375 34.515625 30.609375 34.515625 
L 43.21875 34.515625 
L 43.21875 35.40625 
Q 43.21875 41.609375 39.140625 45 
Q 35.0625 48.390625 27.6875 48.390625 
Q 23 48.390625 18.546875 47.265625 
Q 14.109375 46.140625 10.015625 43.890625 
L 10.015625 52.203125 
Q 14.9375 54.109375 19.578125 55.046875 
Q 24.21875 56 28.609375 56 
Q 40.484375 56 46.34375 49.84375 
Q 52.203125 43.703125 52.203125 31.203125 
z
" id="DejaVuSans-97"/>
       <path d="M 54.890625 33.015625 
L 54.890625 0 
L 45.90625 0 
L 45.90625 32.71875 
Q 45.90625 40.484375 42.875 44.328125 
Q 39.84375 48.1875 33.796875 48.1875 
Q 26.515625 48.1875 22.3125 43.546875 
Q 18.109375 38.921875 18.109375 30.90625 
L 18.109375 0 
L 9.078125 0 
L 9.078125 54.6875 
L 18.109375 54.6875 
L 18.109375 46.1875 
Q 21.34375 51.125 25.703125 53.5625 
Q 30.078125 56 35.796875 56 
Q 45.21875 56 50.046875 50.171875 
Q 54.890625 44.34375 54.890625 33.015625 
z
" id="DejaVuSans-110"/>
       <path d="M 9.078125 75.984375 
L 18.109375 75.984375 
L 18.109375 31.109375 
L 44.921875 54.6875 
L 56.390625 54.6875 
L 27.390625 29.109375 
L 57.625 0 
L 45.90625 0 
L 18.109375 26.703125 
L 18.109375 0 
L 9.078125 0 
z
" id="DejaVuSans-107"/>
       <path d="M 9.8125 72.90625 
L 19.671875 72.90625 
L 19.671875 0 
L 9.8125 0 
z
" id="DejaVuSans-73"/>
       <path d="M 64.40625 67.28125 
L 64.40625 56.890625 
Q 59.421875 61.53125 53.78125 63.8125 
Q 48.140625 66.109375 41.796875 66.109375 
Q 29.296875 66.109375 22.65625 58.46875 
Q 16.015625 50.828125 16.015625 36.375 
Q 16.015625 21.96875 22.65625 14.328125 
Q 29.296875 6.6875 41.796875 6.6875 
Q 48.140625 6.6875 53.78125 8.984375 
Q 59.421875 11.28125 64.40625 15.921875 
L 64.40625 5.609375 
Q 59.234375 2.09375 53.4375 0.328125 
Q 47.65625 -1.421875 41.21875 -1.421875 
Q 24.65625 -1.421875 15.125 8.703125 
Q 5.609375 18.84375 5.609375 36.375 
Q 5.609375 53.953125 15.125 64.078125 
Q 24.65625 74.21875 41.21875 74.21875 
Q 47.75 74.21875 53.53125 72.484375 
Q 59.328125 70.75 64.40625 67.28125 
z
" id="DejaVuSans-67"/>
      </defs>
      <use xlink:href="#DejaVuSans-82"/>
      <use x="67.232422" xlink:href="#DejaVuSans-97"/>
      <use x="128.511719" xlink:href="#DejaVuSans-110"/>
      <use x="191.890625" xlink:href="#DejaVuSans-107"/>
      <use x="249.800781" xlink:href="#DejaVuSans-73"/>
      <use x="279.292969" xlink:href="#DejaVuSans-67"/>
     </g>
    </g>
   </g>
   <g id="line2d_13">
    <path clip-path="url(#p46c999c29c)" d="M 50.9 224.100404 
L 1107.88 224.100404 
" style="fill:none;stroke:#800080;stroke-dasharray:7.4,3.2;stroke-dashoffset:0;stroke-width:2;"/>
   </g>
   <g id="patch_43">
    <path d="M 50.9 424.76 
L 50.9 25.92 
" style="fill:none;stroke:#000000;stroke-linecap:square;stroke-linejoin:miter;stroke-width:0.8;"/>
   </g>
   <g id="patch_44">
    <path d="M 1107.88 424.76 
L 1107.88 25.92 
" style="fill:none;stroke:#000000;stroke-linecap:square;stroke-linejoin:miter;stroke-width:0.8;"/>
   </g>
   <g id="patch_45">
    <path d="M 50.9 424.76 
L 1107.88 424.76 
" style="fill:none;stroke:#000000;stroke-linecap:square;stroke-linejoin:miter;stroke-width:0.8;"/>
   </g>
   <g id="patch_46">
    <path d="M 50.9 25.92 
L 1107.88 25.92 
" style="fill:none;stroke:#000000;stroke-linecap:square;stroke-linejoin:miter;stroke-width:0.8;"/>
   </g>
   <g id="legend_1">
    <g id="patch_47">
     <path d="M 57.9 63.27625 
L 194.5 63.27625 
Q 196.5 63.27625 196.5 61.27625 
L 196.5 32.92 
Q 196.5 30.92 194.5 30.92 
L 57.9 30.92 
Q 55.9 30.92 55.9 32.92 
L 55.9 61.27625 
Q 55.9 63.27625 57.9 63.27625 
z
" style="fill:#ffffff;opacity:0.8;stroke:#cccccc;stroke-linejoin:miter;"/>
    </g>
    <g id="patch_48">
     <path d="M 59.9 42.518438 
L 79.9 42.518438 
L 79.9 35.518438 
L 59.9 35.518438 
z
" style="fill:#1f77b4;"/>
    </g>
    <g id="text_8">
     <!-- weekly RankIC mean -->
     <g transform="translate(87.9 42.518438)scale(0.1 -0.1)">
      <defs>
       <path d="M 4.203125 54.6875 
L 13.1875 54.6875 
L 24.421875 12.015625 
L 35.59375 54.6875 
L 46.1875 54.6875 
L 57.421875 12.015625 
L 68.609375 54.6875 
L 77.59375 54.6875 
L 63.28125 0 
L 52.6875 0 
L 40.921875 44.828125 
L 29.109375 0 
L 18.5 0 
z
" id="DejaVuSans-119"/>
       <path d="M 56.203125 29.59375 
L 56.203125 25.203125 
L 14.890625 25.203125 
Q 15.484375 15.921875 20.484375 11.0625 
Q 25.484375 6.203125 34.421875 6.203125 
Q 39.59375 6.203125 44.453125 7.46875 
Q 49.3125 8.734375 54.109375 11.28125 
L 54.109375 2.78125 
Q 49.265625 0.734375 44.1875 -0.34375 
Q 39.109375 -1.421875 33.890625 -1.421875 
Q 20.796875 -1.421875 13.15625 6.1875 
Q 5.515625 13.8125 5.515625 26.8125 
Q 5.515625 40.234375 12.765625 48.109375 
Q 20.015625 56 32.328125 56 
Q 43.359375 56 49.78125 48.890625 
Q 56.203125 41.796875 56.203125 29.59375 
z
M 47.21875 32.234375 
Q 47.125 39.59375 43.09375 43.984375 
Q 39.0625 48.390625 32.421875 48.390625 
Q 24.90625 48.390625 20.390625 44.140625 
Q 15.875 39.890625 15.1875 32.171875 
z
" id="DejaVuSans-101"/>
       <path d="M 9.421875 75.984375 
L 18.40625 75.984375 
L 18.40625 0 
L 9.421875 0 
z
" id="DejaVuSans-108"/>
       <path d="M 32.171875 -5.078125 
Q 28.375 -14.84375 24.75 -17.8125 
Q 21.140625 -20.796875 15.09375 -20.796875 
L 7.90625 -20.796875 
L 7.90625 -13.28125 
L 13.1875 -13.28125 
Q 16.890625 -13.28125 18.9375 -11.515625 
Q 21 -9.765625 23.484375 -3.21875 
L 25.09375 0.875 
L 2.984375 54.6875 
L 12.5 54.6875 
L 29.59375 11.921875 
L 46.6875 54.6875 
L 56.203125 54.6875 
z
" id="DejaVuSans-121"/>
       <path id="DejaVuSans-32"/>
       <path d="M 52 44.1875 
Q 55.375 50.25 60.0625 53.125 
Q 64.75 56 71.09375 56 
Q 79.640625 56 84.28125 50.015625 
Q 88.921875 44.046875 88.921875 33.015625 
L 88.921875 0 
L 79.890625 0 
L 79.890625 32.71875 
Q 79.890625 40.578125 77.09375 44.375 
Q 74.3125 48.1875 68.609375 48.1875 
Q 61.625 48.1875 57.5625 43.546875 
Q 53.515625 38.921875 53.515625 30.90625 
L 53.515625 0 
L 44.484375 0 
L 44.484375 32.71875 
Q 44.484375 40.625 41.703125 44.40625 
Q 38.921875 48.1875 33.109375 48.1875 
Q 26.21875 48.1875 22.15625 43.53125 
Q 18.109375 38.875 18.109375 30.90625 
L 18.109375 0 
L 9.078125 0 
L 9.078125 54.6875 
L 18.109375 54.6875 
L 18.109375 46.1875 
Q 21.1875 51.21875 25.484375 53.609375 
Q 29.78125 56 35.6875 56 
Q 41.65625 56 45.828125 52.96875 
Q 50 49.953125 52 44.1875 
z
" id="DejaVuSans-109"/>
      </defs>
      <use xlink:href="#DejaVuSans-119"/>
      <use x="81.787109" xlink:href="#DejaVuSans-101"/>
      <use x="143.310547" xlink:href="#DejaVuSans-101"/>
      <use x="204.833984" xlink:href="#DejaVuSans-107"/>
      <use x="262.744141" xlink:href="#DejaVuSans-108"/>
      <use x="290.527344" xlink:href="#DejaVuSans-121"/>
      <use x="349.707031" xlink:href="#DejaVuSans-32"/>
      <use x="381.494141" xlink:href="#DejaVuSans-82"/>
      <use x="448.726562" xlink:href="#DejaVuSans-97"/>
      <use x="510.005859" xlink:href="#DejaVuSans-110"/>
      <use x="573.384766" xlink:href="#DejaVuSans-107"/>
      <use x="631.294922" xlink:href="#DejaVuSans-73"/>
      <use x="660.787109" xlink:href="#DejaVuSans-67"/>
      <use x="730.611328" xlink:href="#DejaVuSans-32"/>
      <use x="762.398438" xlink:href="#DejaVuSans-109"/>
      <use x="859.810547" xlink:href="#DejaVuSans-101"/>
      <use x="921.333984" xlink:href="#DejaVuSans-97"/>
      <use x="982.613281" xlink:href="#DejaVuSans-110"/>
     </g>
    </g>
    <g id="line2d_14">
     <path d="M 59.9 53.696563 
L 79.9 53.696563 
" style="fill:none;stroke:#800080;stroke-dasharray:7.4,3.2;stroke-dashoffset:0;stroke-width:2;"/>
    </g>
    <g id="line2d_15"/>
    <g id="text_9">
     <!-- RankIC mean -->
     <g transform="translate(87.9 57.196563)scale(0.1 -0.1)">
      <use xlink:href="#DejaVuSans-82"/>
      <use x="67.232422" xlink:href="#DejaVuSans-97"/>
      <use x="128.511719" xlink:href="#DejaVuSans-110"/>
      <use x="191.890625" xlink:href="#DejaVuSans-107"/>
      <use x="249.800781" xlink:href="#DejaVuSans-73"/>
      <use x="279.292969" xlink:href="#DejaVuSans-67"/>
      <use x="349.117188" xlink:href="#DejaVuSans-32"/>
      <use x="380.904297" xlink:href="#DejaVuSans-109"/>
      <use x="478.316406" xlink:href="#DejaVuSans-101"/>
      <use x="539.839844" xlink:href="#DejaVuSans-97"/>
      <use x="601.119141" xlink:href="#DejaVuSans-110"/>
     </g>
    </g>
   </g>
  </g>
  <g id="axes_2">
   <g id="matplotlib.axis_3">
    <g id="ytick_6">
     <g id="line2d_16">
      <defs>
       <path d="M 0 0 
L 3.5 0 
" id="mc2ccbb811a" style="stroke:#000000;stroke-width:0.8;"/>
      </defs>
      <g>
       <use style="stroke:#000000;stroke-width:0.8;" x="1107.88" xlink:href="#mc2ccbb811a" y="399.806393"/>
      </g>
     </g>
     <g id="text_10">
      <!-- 0 -->
      <g transform="translate(1114.88 403.605612)scale(0.1 -0.1)">
       <use xlink:href="#DejaVuSans-48"/>
      </g>
     </g>
    </g>
    <g id="ytick_7">
     <g id="line2d_17">
      <g>
       <use style="stroke:#000000;stroke-width:0.8;" x="1107.88" xlink:href="#mc2ccbb811a" y="351.269966"/>
      </g>
     </g>
     <g id="text_11">
      <!-- 5 -->
      <g transform="translate(1114.88 355.069185)scale(0.1 -0.1)">
       <defs>
        <path d="M 10.796875 72.90625 
L 49.515625 72.90625 
L 49.515625 64.59375 
L 19.828125 64.59375 
L 19.828125 46.734375 
Q 21.96875 47.46875 24.109375 47.828125 
Q 26.265625 48.1875 28.421875 48.1875 
Q 40.625 48.1875 47.75 41.5 
Q 54.890625 34.8125 54.890625 23.390625 
Q 54.890625 11.625 47.5625 5.09375 
Q 40.234375 -1.421875 26.90625 -1.421875 
Q 22.3125 -1.421875 17.546875 -0.640625 
Q 12.796875 0.140625 7.71875 1.703125 
L 7.71875 11.625 
Q 12.109375 9.234375 16.796875 8.0625 
Q 21.484375 6.890625 26.703125 6.890625 
Q 35.15625 6.890625 40.078125 11.328125 
Q 45.015625 15.765625 45.015625 23.390625 
Q 45.015625 31 40.078125 35.4375 
Q 35.15625 39.890625 26.703125 39.890625 
Q 22.75 39.890625 18.8125 39.015625 
Q 14.890625 38.140625 10.796875 36.28125 
z
" id="DejaVuSans-53"/>
       </defs>
       <use xlink:href="#DejaVuSans-53"/>
      </g>
     </g>
    </g>
    <g id="ytick_8">
     <g id="line2d_18">
      <g>
       <use style="stroke:#000000;stroke-width:0.8;" x="1107.88" xlink:href="#mc2ccbb811a" y="302.733539"/>
      </g>
     </g>
     <g id="text_12">
      <!-- 10 -->
      <g transform="translate(1114.88 306.532758)scale(0.1 -0.1)">
       <use xlink:href="#DejaVuSans-49"/>
       <use x="63.623047" xlink:href="#DejaVuSans-48"/>
      </g>
     </g>
    </g>
    <g id="ytick_9">
     <g id="line2d_19">
      <g>
       <use style="stroke:#000000;stroke-width:0.8;" x="1107.88" xlink:href="#mc2ccbb811a" y="254.197112"/>
      </g>
     </g>
     <g id="text_13">
      <!-- 15 -->
      <g transform="translate(1114.88 257.996331)scale(0.1 -0.1)">
       <use xlink:href="#DejaVuSans-49"/>
       <use x="63.623047" xlink:href="#DejaVuSans-53"/>
      </g>
     </g>
    </g>
    <g id="ytick_10">
     <g id="line2d_20">
      <g>
       <use style="stroke:#000000;stroke-width:0.8;" x="1107.88" xlink:href="#mc2ccbb811a" y="205.660685"/>
      </g>
     </g>
     <g id="text_14">
      <!-- 20 -->
      <g transform="translate(1114.88 209.459904)scale(0.1 -0.1)">
       <use xlink:href="#DejaVuSans-50"/>
       <use x="63.623047" xlink:href="#DejaVuSans-48"/>
      </g>
     </g>
    </g>
    <g id="ytick_11">
     <g id="line2d_21">
      <g>
       <use style="stroke:#000000;stroke-width:0.8;" x="1107.88" xlink:href="#mc2ccbb811a" y="157.124258"/>
      </g>
     </g>
     <g id="text_15">
      <!-- 25 -->
      <g transform="translate(1114.88 160.923477)scale(0.1 -0.1)">
       <use xlink:href="#DejaVuSans-50"/>
       <use x="63.623047" xlink:href="#DejaVuSans-53"/>
      </g>
     </g>
    </g>
    <g id="ytick_12">
     <g id="line2d_22">
      <g>
       <use style="stroke:#000000;stroke-width:0.8;" x="1107.88" xlink:href="#mc2ccbb811a" y="108.587831"/>
      </g>
     </g>
     <g id="text_16">
      <!-- 30 -->
      <g transform="translate(1114.88 112.38705)scale(0.1 -0.1)">
       <defs>
        <path d="M 40.578125 39.3125 
Q 47.65625 37.796875 51.625 33 
Q 55.609375 28.21875 55.609375 21.1875 
Q 55.609375 10.40625 48.1875 4.484375 
Q 40.765625 -1.421875 27.09375 -1.421875 
Q 22.515625 -1.421875 17.65625 -0.515625 
Q 12.796875 0.390625 7.625 2.203125 
L 7.625 11.71875 
Q 11.71875 9.328125 16.59375 8.109375 
Q 21.484375 6.890625 26.8125 6.890625 
Q 36.078125 6.890625 40.9375 10.546875 
Q 45.796875 14.203125 45.796875 21.1875 
Q 45.796875 27.640625 41.28125 31.265625 
Q 36.765625 34.90625 28.71875 34.90625 
L 20.21875 34.90625 
L 20.21875 43.015625 
L 29.109375 43.015625 
Q 36.375 43.015625 40.234375 45.921875 
Q 44.09375 48.828125 44.09375 54.296875 
Q 44.09375 59.90625 40.109375 62.90625 
Q 36.140625 65.921875 28.71875 65.921875 
Q 24.65625 65.921875 20.015625 65.03125 
Q 15.375 64.15625 9.8125 62.3125 
L 9.8125 71.09375 
Q 15.4375 72.65625 20.34375 73.4375 
Q 25.25 74.21875 29.59375 74.21875 
Q 40.828125 74.21875 47.359375 69.109375 
Q 53.90625 64.015625 53.90625 55.328125 
Q 53.90625 49.265625 50.4375 45.09375 
Q 46.96875 40.921875 40.578125 39.3125 
z
" id="DejaVuSans-51"/>
       </defs>
       <use xlink:href="#DejaVuSans-51"/>
       <use x="63.623047" xlink:href="#DejaVuSans-48"/>
      </g>
     </g>
    </g>
    <g id="ytick_13">
     <g id="line2d_23">
      <g>
       <use style="stroke:#000000;stroke-width:0.8;" x="1107.88" xlink:href="#mc2ccbb811a" y="60.051404"/>
      </g>
     </g>
     <g id="text_17">
      <!-- 35 -->
      <g transform="translate(1114.88 63.850623)scale(0.1 -0.1)">
       <use xlink:href="#DejaVuSans-51"/>
       <use x="63.623047" xlink:href="#DejaVuSans-53"/>
      </g>
     </g>
    </g>
    <g id="text_18">
     <!-- IC cumsum -->
     <g transform="translate(1139.203437 253.3275)rotate(-90)scale(0.1 -0.1)">
      <defs>
       <path d="M 48.78125 52.59375 
L 48.78125 44.1875 
Q 44.96875 46.296875 41.140625 47.34375 
Q 37.3125 48.390625 33.40625 48.390625 
Q 24.65625 48.390625 19.8125 42.84375 
Q 14.984375 37.3125 14.984375 27.296875 
Q 14.984375 17.28125 19.8125 11.734375 
Q 24.65625 6.203125 33.40625 6.203125 
Q 37.3125 6.203125 41.140625 7.25 
Q 44.96875 8.296875 48.78125 10.40625 
L 48.78125 2.09375 
Q 45.015625 0.34375 40.984375 -0.53125 
Q 36.96875 -1.421875 32.421875 -1.421875 
Q 20.0625 -1.421875 12.78125 6.34375 
Q 5.515625 14.109375 5.515625 27.296875 
Q 5.515625 40.671875 12.859375 48.328125 
Q 20.21875 56 33.015625 56 
Q 37.15625 56 41.109375 55.140625 
Q 45.0625 54.296875 48.78125 52.59375 
z
" id="DejaVuSans-99"/>
       <path d="M 8.5 21.578125 
L 8.5 54.6875 
L 17.484375 54.6875 
L 17.484375 21.921875 
Q 17.484375 14.15625 20.5 10.265625 
Q 23.53125 6.390625 29.59375 6.390625 
Q 36.859375 6.390625 41.078125 11.03125 
Q 45.3125 15.671875 45.3125 23.6875 
L 45.3125 54.6875 
L 54.296875 54.6875 
L 54.296875 0 
L 45.3125 0 
L 45.3125 8.40625 
Q 42.046875 3.421875 37.71875 1 
Q 33.40625 -1.421875 27.6875 -1.421875 
Q 18.265625 -1.421875 13.375 4.4375 
Q 8.5 10.296875 8.5 21.578125 
z
M 31.109375 56 
z
" id="DejaVuSans-117"/>
       <path d="M 44.28125 53.078125 
L 44.28125 44.578125 
Q 40.484375 46.53125 36.375 47.5 
Q 32.28125 48.484375 27.875 48.484375 
Q 21.1875 48.484375 17.84375 46.4375 
Q 14.5 44.390625 14.5 40.28125 
Q 14.5 37.15625 16.890625 35.375 
Q 19.28125 33.59375 26.515625 31.984375 
L 29.59375 31.296875 
Q 39.15625 29.25 43.1875 25.515625 
Q 47.21875 21.78125 47.21875 15.09375 
Q 47.21875 7.46875 41.1875 3.015625 
Q 35.15625 -1.421875 24.609375 -1.421875 
Q 20.21875 -1.421875 15.453125 -0.5625 
Q 10.6875 0.296875 5.421875 2 
L 5.421875 11.28125 
Q 10.40625 8.6875 15.234375 7.390625 
Q 20.0625 6.109375 24.8125 6.109375 
Q 31.15625 6.109375 34.5625 8.28125 
Q 37.984375 10.453125 37.984375 14.40625 
Q 37.984375 18.0625 35.515625 20.015625 
Q 33.0625 21.96875 24.703125 23.78125 
L 21.578125 24.515625 
Q 13.234375 26.265625 9.515625 29.90625 
Q 5.8125 33.546875 5.8125 39.890625 
Q 5.8125 47.609375 11.28125 51.796875 
Q 16.75 56 26.8125 56 
Q 31.78125 56 36.171875 55.265625 
Q 40.578125 54.546875 44.28125 53.078125 
z
" id="DejaVuSans-115"/>
      </defs>
      <use xlink:href="#DejaVuSans-73"/>
      <use x="29.492188" xlink:href="#DejaVuSans-67"/>
      <use x="99.316406" xlink:href="#DejaVuSans-32"/>
      <use x="131.103516" xlink:href="#DejaVuSans-99"/>
      <use x="186.083984" xlink:href="#DejaVuSans-117"/>
      <use x="249.462891" xlink:href="#DejaVuSans-109"/>
      <use x="346.875" xlink:href="#DejaVuSans-115"/>
      <use x="398.974609" xlink:href="#DejaVuSans-117"/>
      <use x="462.353516" xlink:href="#DejaVuSans-109"/>
     </g>
    </g>
   </g>
   <g id="line2d_24">
    <path clip-path="url(#p46c999c29c)" d="M 98.944545 397.158952 
L 106.601047 389.746116 
L 110.429297 389.098963 
L 114.257548 390.099108 
L 125.7423 390.863924 
L 129.570551 394.335014 
L 133.398801 394.276182 
L 137.227052 393.276038 
L 141.055302 393.099542 
L 152.540054 391.628741 
L 156.368305 388.745971 
L 160.196556 389.628452 
L 164.024806 386.628018 
L 179.337809 389.216627 
L 183.166059 394.335014 
L 186.99431 396.747128 
L 190.822561 399.747561 
L 194.650811 400.86537 
L 206.135563 401.512522 
L 209.963814 404.512956 
L 213.792064 405.5131 
L 217.620315 406.630909 
L 221.448566 404.807116 
L 232.933318 404.277628 
L 236.761568 402.336171 
L 240.589819 400.041721 
L 244.41807 396.570631 
L 248.24632 394.982167 
L 259.731072 394.570342 
L 263.559323 393.805526 
L 267.387573 393.62903 
L 271.215824 394.040854 
L 275.044075 394.335014 
L 290.357077 395.393991 
L 294.185328 394.629174 
L 298.013578 395.629319 
L 301.841829 392.746549 
L 313.326581 391.275749 
L 317.154832 387.334002 
L 320.983082 388.804803 
L 324.811333 390.510932 
L 328.639583 388.334147 
L 340.124335 387.098674 
L 343.952586 388.098819 
L 347.780837 389.56962 
L 351.609087 388.098819 
L 355.437338 388.981299 
L 366.92209 390.922756 
L 370.75034 386.275026 
L 374.578591 383.745248 
L 382.235092 375.626428 
L 393.719844 370.272713 
L 397.548095 369.154904 
L 401.376346 363.095205 
L 409.032847 352.858431 
L 420.517599 350.563982 
L 424.345849 346.033915 
L 428.1741 339.856552 
L 432.002351 337.326774 
L 435.830601 331.855395 
L 447.315353 327.678321 
L 451.143604 325.736864 
L 454.971854 322.383438 
L 458.800105 320.559645 
L 462.628356 317.088555 
L 474.113108 317.853372 
L 477.941358 317.323883 
L 481.769609 315.970747 
L 485.597859 314.029289 
L 489.42611 313.499801 
L 500.910862 314.146954 
L 504.739113 311.852504 
L 508.567363 310.381703 
L 512.395614 313.852793 
L 516.223865 310.028711 
L 527.708616 309.263895 
L 531.536867 310.264039 
L 535.365118 309.852215 
L 539.193368 308.969735 
L 543.021619 307.145942 
L 554.506371 305.675141 
L 558.334622 303.969012 
L 562.162872 300.262594 
L 565.991123 293.026254 
L 569.819373 286.378234 
L 581.304125 281.730503 
L 585.132376 276.965109 
L 588.960627 271.023073 
L 592.788877 268.257968 
L 596.617128 263.845565 
L 608.10188 259.786155 
L 611.93013 256.785722 
L 615.758381 252.137991 
L 619.586632 245.842963 
L 623.414882 240.25392 
L 634.899634 237.724143 
L 638.727885 231.899772 
L 642.556135 227.605033 
L 646.384386 223.780951 
L 650.212637 217.721252 
L 661.697389 212.132209 
L 665.525639 209.367103 
L 669.35389 204.484044 
L 673.182141 201.012954 
L 677.010391 200.248138 
L 688.495143 198.777337 
L 692.323394 196.482888 
L 696.151644 192.894134 
L 699.979895 190.364356 
L 703.808146 186.657938 
L 715.292898 180.127583 
L 722.949399 178.127294 
L 726.777649 178.068462 
L 730.6059 175.42102 
L 742.090652 171.94993 
L 745.918903 167.89052 
L 749.747153 163.595782 
L 753.575404 157.300754 
L 757.403654 152.182367 
L 768.888406 150.005582 
L 772.716657 143.828219 
L 776.544908 138.827496 
L 780.373158 135.47407 
L 784.201409 131.767652 
L 795.686161 125.825617 
L 799.514411 119.883581 
L 803.342662 115.000522 
L 807.170913 109.764472 
L 810.999163 102.998788 
L 822.483915 95.291791 
L 826.312166 88.996764 
L 830.140417 81.878088 
L 833.968667 76.406709 
L 837.796918 70.700002 
L 849.28167 68.758545 
L 853.10992 63.99315 
L 856.938171 61.11038 
L 860.766422 59.404251 
L 864.594672 57.933451 
L 876.079424 54.344697 
L 879.907675 50.40295 
L 883.735925 49.285142 
L 887.564176 46.6377 
L 891.392427 44.931571 
L 902.877179 44.049091 
L 906.705429 48.343829 
L 910.53368 49.461638 
L 914.36193 50.10879 
L 918.190181 51.579591 
L 929.674933 49.991126 
L 933.503184 53.57988 
L 937.331434 55.639001 
L 941.159685 59.816076 
L 944.987936 62.228189 
L 956.472687 61.816365 
L 960.300938 62.110525 
L 964.129189 64.169646 
L 967.957439 67.993728 
L 971.78569 71.22949 
L 983.270442 72.464963 
L 987.098693 73.229779 
L 990.926943 74.70058 
L 994.755194 71.700146 
L 998.583444 72.935619 
L 1010.068196 73.112115 
L 1013.896447 69.405697 
L 1017.724698 69.111537 
L 1025.381199 68.05256 
L 1036.865951 67.17008 
L 1040.694201 67.346576 
L 1044.522452 67.405408 
L 1048.350703 63.11067 
L 1052.178953 57.403962 
L 1052.178953 57.403962 
" style="fill:none;stroke:#ff0000;stroke-linecap:square;stroke-width:1.5;"/>
   </g>
   <g id="patch_49">
    <path d="M 50.9 424.76 
L 50.9 25.92 
" style="fill:none;stroke:#000000;stroke-linecap:square;stroke-linejoin:miter;stroke-width:0.8;"/>
   </g>
   <g id="patch_50">
    <path d="M 1107.88 424.76 
L 1107.88 25.92 
" style="fill:none;stroke:#000000;stroke-linecap:square;stroke-linejoin:miter;stroke-width:0.8;"/>
   </g>
   <g id="patch_51">
    <path d="M 50.9 424.76 
L 1107.88 424.76 
" style="fill:none;stroke:#000000;stroke-linecap:square;stroke-linejoin:miter;stroke-width:0.8;"/>
   </g>
   <g id="patch_52">
    <path d="M 50.9 25.92 
L 1107.88 25.92 
" style="fill:none;stroke:#000000;stroke-linecap:square;stroke-linejoin:miter;stroke-width:0.8;"/>
   </g>
   <g id="legend_2">
    <g id="patch_53">
     <path d="M 960.795625 48.598125 
L 1100.88 48.598125 
Q 1102.88 48.598125 1102.88 46.598125 
L 1102.88 32.92 
Q 1102.88 30.92 1100.88 30.92 
L 960.795625 30.92 
Q 958.795625 30.92 958.795625 32.92 
L 958.795625 46.598125 
Q 958.795625 48.598125 960.795625 48.598125 
z
" style="fill:#ffffff;opacity:0.8;stroke:#cccccc;stroke-linejoin:miter;"/>
    </g>
    <g id="line2d_25">
     <path d="M 962.795625 39.018438 
L 982.795625 39.018438 
" style="fill:none;stroke:#ff0000;stroke-linecap:square;stroke-width:1.5;"/>
    </g>
    <g id="line2d_26"/>
    <g id="text_19">
     <!-- daily RankIC cumsum -->
     <g transform="translate(990.795625 42.518438)scale(0.1 -0.1)">
      <defs>
       <path d="M 45.40625 46.390625 
L 45.40625 75.984375 
L 54.390625 75.984375 
L 54.390625 0 
L 45.40625 0 
L 45.40625 8.203125 
Q 42.578125 3.328125 38.25 0.953125 
Q 33.9375 -1.421875 27.875 -1.421875 
Q 17.96875 -1.421875 11.734375 6.484375 
Q 5.515625 14.40625 5.515625 27.296875 
Q 5.515625 40.1875 11.734375 48.09375 
Q 17.96875 56 27.875 56 
Q 33.9375 56 38.25 53.625 
Q 42.578125 51.265625 45.40625 46.390625 
z
M 14.796875 27.296875 
Q 14.796875 17.390625 18.875 11.75 
Q 22.953125 6.109375 30.078125 6.109375 
Q 37.203125 6.109375 41.296875 11.75 
Q 45.40625 17.390625 45.40625 27.296875 
Q 45.40625 37.203125 41.296875 42.84375 
Q 37.203125 48.484375 30.078125 48.484375 
Q 22.953125 48.484375 18.875 42.84375 
Q 14.796875 37.203125 14.796875 27.296875 
z
" id="DejaVuSans-100"/>
       <path d="M 9.421875 54.6875 
L 18.40625 54.6875 
L 18.40625 0 
L 9.421875 0 
z
M 9.421875 75.984375 
L 18.40625 75.984375 
L 18.40625 64.59375 
L 9.421875 64.59375 
z
" id="DejaVuSans-105"/>
      </defs>
      <use xlink:href="#DejaVuSans-100"/>
      <use x="63.476562" xlink:href="#DejaVuSans-97"/>
      <use x="124.755859" xlink:href="#DejaVuSans-105"/>
      <use x="152.539062" xlink:href="#DejaVuSans-108"/>
      <use x="180.322266" xlink:href="#DejaVuSans-121"/>
      <use x="239.501953" xlink:href="#DejaVuSans-32"/>
      <use x="271.289062" xlink:href="#DejaVuSans-82"/>
      <use x="338.521484" xlink:href="#DejaVuSans-97"/>
      <use x="399.800781" xlink:href="#DejaVuSans-110"/>
      <use x="463.179688" xlink:href="#DejaVuSans-107"/>
      <use x="521.089844" xlink:href="#DejaVuSans-73"/>
      <use x="550.582031" xlink:href="#DejaVuSans-67"/>
      <use x="620.40625" xlink:href="#DejaVuSans-32"/>
      <use x="652.193359" xlink:href="#DejaVuSans-99"/>
      <use x="707.173828" xlink:href="#DejaVuSans-117"/>
      <use x="770.552734" xlink:href="#DejaVuSans-109"/>
      <use x="867.964844" xlink:href="#DejaVuSans-115"/>
      <use x="920.064453" xlink:href="#DejaVuSans-117"/>
      <use x="983.443359" xlink:href="#DejaVuSans-109"/>
     </g>
    </g>
   </g>
  </g>
  <g id="axes_3">
   <g id="matplotlib.axis_4">
    <g id="ytick_14">
     <g id="line2d_27">
      <g>
       <use style="stroke:#000000;stroke-width:0.8;" x="1107.88" xlink:href="#mc2ccbb811a" y="424.76"/>
      </g>
     </g>
    </g>
    <g id="ytick_15">
     <g id="line2d_28">
      <g>
       <use style="stroke:#000000;stroke-width:0.8;" x="1107.88" xlink:href="#mc2ccbb811a" y="344.992"/>
      </g>
     </g>
    </g>
    <g id="ytick_16">
     <g id="line2d_29">
      <g>
       <use style="stroke:#000000;stroke-width:0.8;" x="1107.88" xlink:href="#mc2ccbb811a" y="265.224"/>
      </g>
     </g>
    </g>
    <g id="ytick_17">
     <g id="line2d_30">
      <g>
       <use style="stroke:#000000;stroke-width:0.8;" x="1107.88" xlink:href="#mc2ccbb811a" y="185.456"/>
      </g>
     </g>
    </g>
    <g id="ytick_18">
     <g id="line2d_31">
      <g>
       <use style="stroke:#000000;stroke-width:0.8;" x="1107.88" xlink:href="#mc2ccbb811a" y="105.688"/>
      </g>
     </g>
    </g>
    <g id="ytick_19">
     <g id="line2d_32">
      <g>
       <use style="stroke:#000000;stroke-width:0.8;" x="1107.88" xlink:href="#mc2ccbb811a" y="25.92"/>
      </g>
     </g>
    </g>
   </g>
   <g id="patch_54">
    <path d="M 50.9 424.76 
L 50.9 25.92 
" style="fill:none;stroke:#000000;stroke-linecap:square;stroke-linejoin:miter;stroke-width:0.8;"/>
   </g>
   <g id="patch_55">
    <path d="M 1107.88 424.76 
L 1107.88 25.92 
" style="fill:none;stroke:#000000;stroke-linecap:square;stroke-linejoin:miter;stroke-width:0.8;"/>
   </g>
   <g id="patch_56">
    <path d="M 50.9 424.76 
L 1107.88 424.76 
" style="fill:none;stroke:#000000;stroke-linecap:square;stroke-linejoin:miter;stroke-width:0.8;"/>
   </g>
   <g id="patch_57">
    <path d="M 50.9 25.92 
L 1107.88 25.92 
" style="fill:none;stroke:#000000;stroke-linecap:square;stroke-linejoin:miter;stroke-width:0.8;"/>
   </g>
   <g id="text_20">
    <!-- RankIC: (2010-01-04 ~ 2010-10-08) -->
    <g transform="translate(471.252187 19.92)scale(0.12 -0.12)">
     <defs>
      <path d="M 11.71875 12.40625 
L 22.015625 12.40625 
L 22.015625 0 
L 11.71875 0 
z
M 11.71875 51.703125 
L 22.015625 51.703125 
L 22.015625 39.3125 
L 11.71875 39.3125 
z
" id="DejaVuSans-58"/>
      <path d="M 31 75.875 
Q 24.46875 64.65625 21.28125 53.65625 
Q 18.109375 42.671875 18.109375 31.390625 
Q 18.109375 20.125 21.3125 9.0625 
Q 24.515625 -2 31 -13.1875 
L 23.1875 -13.1875 
Q 15.875 -1.703125 12.234375 9.375 
Q 8.59375 20.453125 8.59375 31.390625 
Q 8.59375 42.28125 12.203125 53.3125 
Q 15.828125 64.359375 23.1875 75.875 
z
" id="DejaVuSans-40"/>
      <path d="M 73.1875 39.890625 
L 73.1875 31.203125 
Q 68.0625 27.34375 63.6875 25.6875 
Q 59.328125 24.03125 54.59375 24.03125 
Q 49.21875 24.03125 42.09375 26.90625 
Q 41.546875 27.09375 41.3125 27.203125 
Q 40.96875 27.34375 40.234375 27.59375 
Q 32.671875 30.609375 28.078125 30.609375 
Q 23.78125 30.609375 19.578125 28.734375 
Q 15.375 26.859375 10.59375 22.796875 
L 10.59375 31.5 
Q 15.71875 35.359375 20.09375 37.03125 
Q 24.46875 38.71875 29.203125 38.71875 
Q 34.578125 38.71875 41.75 35.796875 
Q 42.234375 35.59375 42.484375 35.5 
Q 42.875 35.359375 43.5625 35.109375 
Q 51.125 32.078125 55.71875 32.078125 
Q 59.90625 32.078125 64.03125 33.9375 
Q 68.171875 35.796875 73.1875 39.890625 
z
" id="DejaVuSans-126"/>
      <path d="M 31.78125 34.625 
Q 24.75 34.625 20.71875 30.859375 
Q 16.703125 27.09375 16.703125 20.515625 
Q 16.703125 13.921875 20.71875 10.15625 
Q 24.75 6.390625 31.78125 6.390625 
Q 38.8125 6.390625 42.859375 10.171875 
Q 46.921875 13.96875 46.921875 20.515625 
Q 46.921875 27.09375 42.890625 30.859375 
Q 38.875 34.625 31.78125 34.625 
z
M 21.921875 38.8125 
Q 15.578125 40.375 12.03125 44.71875 
Q 8.5 49.078125 8.5 55.328125 
Q 8.5 64.0625 14.71875 69.140625 
Q 20.953125 74.21875 31.78125 74.21875 
Q 42.671875 74.21875 48.875 69.140625 
Q 55.078125 64.0625 55.078125 55.328125 
Q 55.078125 49.078125 51.53125 44.71875 
Q 48 40.375 41.703125 38.8125 
Q 48.828125 37.15625 52.796875 32.3125 
Q 56.78125 27.484375 56.78125 20.515625 
Q 56.78125 9.90625 50.3125 4.234375 
Q 43.84375 -1.421875 31.78125 -1.421875 
Q 19.734375 -1.421875 13.25 4.234375 
Q 6.78125 9.90625 6.78125 20.515625 
Q 6.78125 27.484375 10.78125 32.3125 
Q 14.796875 37.15625 21.921875 38.8125 
z
M 18.3125 54.390625 
Q 18.3125 48.734375 21.84375 45.5625 
Q 25.390625 42.390625 31.78125 42.390625 
Q 38.140625 42.390625 41.71875 45.5625 
Q 45.3125 48.734375 45.3125 54.390625 
Q 45.3125 60.0625 41.71875 63.234375 
Q 38.140625 66.40625 31.78125 66.40625 
Q 25.390625 66.40625 21.84375 63.234375 
Q 18.3125 60.0625 18.3125 54.390625 
z
" id="DejaVuSans-56"/>
      <path d="M 8.015625 75.875 
L 15.828125 75.875 
Q 23.140625 64.359375 26.78125 53.3125 
Q 30.421875 42.28125 30.421875 31.390625 
Q 30.421875 20.453125 26.78125 9.375 
Q 23.140625 -1.703125 15.828125 -13.1875 
L 8.015625 -13.1875 
Q 14.5 -2 17.703125 9.0625 
Q 20.90625 20.125 20.90625 31.390625 
Q 20.90625 42.671875 17.703125 53.65625 
Q 14.5 64.65625 8.015625 75.875 
z
" id="DejaVuSans-41"/>
     </defs>
     <use xlink:href="#DejaVuSans-82"/>
     <use x="67.232422" xlink:href="#DejaVuSans-97"/>
     <use x="128.511719" xlink:href="#DejaVuSans-110"/>
     <use x="191.890625" xlink:href="#DejaVuSans-107"/>
     <use x="249.800781" xlink:href="#DejaVuSans-73"/>
     <use x="279.292969" xlink:href="#DejaVuSans-67"/>
     <use x="349.117188" xlink:href="#DejaVuSans-58"/>
     <use x="382.808594" xlink:href="#DejaVuSans-32"/>
     <use x="414.595703" xlink:href="#DejaVuSans-40"/>
     <use x="453.609375" xlink:href="#DejaVuSans-50"/>
     <use x="517.232422" xlink:href="#DejaVuSans-48"/>
     <use x="580.855469" xlink:href="#DejaVuSans-49"/>
     <use x="644.478516" xlink:href="#DejaVuSans-48"/>
     <use x="708.101562" xlink:href="#DejaVuSans-45"/>
     <use x="744.185547" xlink:href="#DejaVuSans-48"/>
     <use x="807.808594" xlink:href="#DejaVuSans-49"/>
     <use x="871.431641" xlink:href="#DejaVuSans-45"/>
     <use x="907.515625" xlink:href="#DejaVuSans-48"/>
     <use x="971.138672" xlink:href="#DejaVuSans-52"/>
     <use x="1034.761719" xlink:href="#DejaVuSans-32"/>
     <use x="1066.548828" xlink:href="#DejaVuSans-126"/>
     <use x="1150.337891" xlink:href="#DejaVuSans-32"/>
     <use x="1182.125" xlink:href="#DejaVuSans-50"/>
     <use x="1245.748047" xlink:href="#DejaVuSans-48"/>
     <use x="1309.371094" xlink:href="#DejaVuSans-49"/>
     <use x="1372.994141" xlink:href="#DejaVuSans-48"/>
     <use x="1436.617188" xlink:href="#DejaVuSans-45"/>
     <use x="1472.701172" xlink:href="#DejaVuSans-49"/>
     <use x="1536.324219" xlink:href="#DejaVuSans-48"/>
     <use x="1599.947266" xlink:href="#DejaVuSans-45"/>
     <use x="1636.03125" xlink:href="#DejaVuSans-48"/>
     <use x="1699.654297" xlink:href="#DejaVuSans-56"/>
     <use x="1763.277344" xlink:href="#DejaVuSans-41"/>
    </g>
   </g>
   <g id="legend_3">
    <g id="patch_58">
     <path d="M 493.357969 92.6325 
L 665.422031 92.6325 
Q 667.422031 92.6325 667.422031 90.6325 
L 667.422031 32.92 
Q 667.422031 30.92 665.422031 30.92 
L 493.357969 30.92 
Q 491.357969 30.92 491.357969 32.92 
L 491.357969 90.6325 
Q 491.357969 92.6325 493.357969 92.6325 
z
" style="fill:#ffffff;opacity:0.8;stroke:#cccccc;stroke-linejoin:miter;"/>
    </g>
    <g id="line2d_33"/>
    <g id="line2d_34"/>
    <g id="text_21">
     <!-- RankIC mean:   0.1960         -->
     <g transform="translate(523.357969 42.518438)scale(0.1 -0.1)">
      <defs>
       <path d="M 10.984375 1.515625 
L 10.984375 10.5 
Q 14.703125 8.734375 18.5 7.8125 
Q 22.3125 6.890625 25.984375 6.890625 
Q 35.75 6.890625 40.890625 13.453125 
Q 46.046875 20.015625 46.78125 33.40625 
Q 43.953125 29.203125 39.59375 26.953125 
Q 35.25 24.703125 29.984375 24.703125 
Q 19.046875 24.703125 12.671875 31.3125 
Q 6.296875 37.9375 6.296875 49.421875 
Q 6.296875 60.640625 12.9375 67.421875 
Q 19.578125 74.21875 30.609375 74.21875 
Q 43.265625 74.21875 49.921875 64.515625 
Q 56.59375 54.828125 56.59375 36.375 
Q 56.59375 19.140625 48.40625 8.859375 
Q 40.234375 -1.421875 26.421875 -1.421875 
Q 22.703125 -1.421875 18.890625 -0.6875 
Q 15.09375 0.046875 10.984375 1.515625 
z
M 30.609375 32.421875 
Q 37.25 32.421875 41.125 36.953125 
Q 45.015625 41.5 45.015625 49.421875 
Q 45.015625 57.28125 41.125 61.84375 
Q 37.25 66.40625 30.609375 66.40625 
Q 23.96875 66.40625 20.09375 61.84375 
Q 16.21875 57.28125 16.21875 49.421875 
Q 16.21875 41.5 20.09375 36.953125 
Q 23.96875 32.421875 30.609375 32.421875 
z
" id="DejaVuSans-57"/>
      </defs>
      <use xlink:href="#DejaVuSans-82"/>
      <use x="67.232422" xlink:href="#DejaVuSans-97"/>
      <use x="128.511719" xlink:href="#DejaVuSans-110"/>
      <use x="191.890625" xlink:href="#DejaVuSans-107"/>
      <use x="249.800781" xlink:href="#DejaVuSans-73"/>
      <use x="279.292969" xlink:href="#DejaVuSans-67"/>
      <use x="349.117188" xlink:href="#DejaVuSans-32"/>
      <use x="380.904297" xlink:href="#DejaVuSans-109"/>
      <use x="478.316406" xlink:href="#DejaVuSans-101"/>
      <use x="539.839844" xlink:href="#DejaVuSans-97"/>
      <use x="601.119141" xlink:href="#DejaVuSans-110"/>
      <use x="664.498047" xlink:href="#DejaVuSans-58"/>
      <use x="698.189453" xlink:href="#DejaVuSans-32"/>
      <use x="729.976562" xlink:href="#DejaVuSans-32"/>
      <use x="761.763672" xlink:href="#DejaVuSans-32"/>
      <use x="793.550781" xlink:href="#DejaVuSans-48"/>
      <use x="857.173828" xlink:href="#DejaVuSans-46"/>
      <use x="888.960938" xlink:href="#DejaVuSans-49"/>
      <use x="952.583984" xlink:href="#DejaVuSans-57"/>
      <use x="1016.207031" xlink:href="#DejaVuSans-54"/>
      <use x="1079.830078" xlink:href="#DejaVuSans-48"/>
      <use x="1143.453125" xlink:href="#DejaVuSans-32"/>
      <use x="1175.240234" xlink:href="#DejaVuSans-32"/>
      <use x="1207.027344" xlink:href="#DejaVuSans-32"/>
      <use x="1238.814453" xlink:href="#DejaVuSans-32"/>
      <use x="1270.601562" xlink:href="#DejaVuSans-32"/>
      <use x="1302.388672" xlink:href="#DejaVuSans-32"/>
      <use x="1334.175781" xlink:href="#DejaVuSans-32"/>
      <use x="1365.962891" xlink:href="#DejaVuSans-32"/>
     </g>
    </g>
    <g id="line2d_35"/>
    <g id="line2d_36"/>
    <g id="text_22">
     <!-- RankIC std:       0.2869         -->
     <g transform="translate(523.357969 57.196563)scale(0.1 -0.1)">
      <defs>
       <path d="M 18.3125 70.21875 
L 18.3125 54.6875 
L 36.8125 54.6875 
L 36.8125 47.703125 
L 18.3125 47.703125 
L 18.3125 18.015625 
Q 18.3125 11.328125 20.140625 9.421875 
Q 21.96875 7.515625 27.59375 7.515625 
L 36.8125 7.515625 
L 36.8125 0 
L 27.59375 0 
Q 17.1875 0 13.234375 3.875 
Q 9.28125 7.765625 9.28125 18.015625 
L 9.28125 47.703125 
L 2.6875 47.703125 
L 2.6875 54.6875 
L 9.28125 54.6875 
L 9.28125 70.21875 
z
" id="DejaVuSans-116"/>
      </defs>
      <use xlink:href="#DejaVuSans-82"/>
      <use x="67.232422" xlink:href="#DejaVuSans-97"/>
      <use x="128.511719" xlink:href="#DejaVuSans-110"/>
      <use x="191.890625" xlink:href="#DejaVuSans-107"/>
      <use x="249.800781" xlink:href="#DejaVuSans-73"/>
      <use x="279.292969" xlink:href="#DejaVuSans-67"/>
      <use x="349.117188" xlink:href="#DejaVuSans-32"/>
      <use x="380.904297" xlink:href="#DejaVuSans-115"/>
      <use x="433.003906" xlink:href="#DejaVuSans-116"/>
      <use x="472.212891" xlink:href="#DejaVuSans-100"/>
      <use x="535.689453" xlink:href="#DejaVuSans-58"/>
      <use x="569.380859" xlink:href="#DejaVuSans-32"/>
      <use x="601.167969" xlink:href="#DejaVuSans-32"/>
      <use x="632.955078" xlink:href="#DejaVuSans-32"/>
      <use x="664.742188" xlink:href="#DejaVuSans-32"/>
      <use x="696.529297" xlink:href="#DejaVuSans-32"/>
      <use x="728.316406" xlink:href="#DejaVuSans-32"/>
      <use x="760.103516" xlink:href="#DejaVuSans-32"/>
      <use x="791.890625" xlink:href="#DejaVuSans-48"/>
      <use x="855.513672" xlink:href="#DejaVuSans-46"/>
      <use x="887.300781" xlink:href="#DejaVuSans-50"/>
      <use x="950.923828" xlink:href="#DejaVuSans-56"/>
      <use x="1014.546875" xlink:href="#DejaVuSans-54"/>
      <use x="1078.169922" xlink:href="#DejaVuSans-57"/>
      <use x="1141.792969" xlink:href="#DejaVuSans-32"/>
      <use x="1173.580078" xlink:href="#DejaVuSans-32"/>
      <use x="1205.367188" xlink:href="#DejaVuSans-32"/>
      <use x="1237.154297" xlink:href="#DejaVuSans-32"/>
      <use x="1268.941406" xlink:href="#DejaVuSans-32"/>
      <use x="1300.728516" xlink:href="#DejaVuSans-32"/>
      <use x="1332.515625" xlink:href="#DejaVuSans-32"/>
      <use x="1364.302734" xlink:href="#DejaVuSans-32"/>
     </g>
    </g>
    <g id="line2d_37"/>
    <g id="line2d_38"/>
    <g id="text_23">
     <!-- RankIC IR:         0.6829         -->
     <g transform="translate(523.357969 71.874688)scale(0.1 -0.1)">
      <use xlink:href="#DejaVuSans-82"/>
      <use x="67.232422" xlink:href="#DejaVuSans-97"/>
      <use x="128.511719" xlink:href="#DejaVuSans-110"/>
      <use x="191.890625" xlink:href="#DejaVuSans-107"/>
      <use x="249.800781" xlink:href="#DejaVuSans-73"/>
      <use x="279.292969" xlink:href="#DejaVuSans-67"/>
      <use x="349.117188" xlink:href="#DejaVuSans-32"/>
      <use x="380.904297" xlink:href="#DejaVuSans-73"/>
      <use x="410.396484" xlink:href="#DejaVuSans-82"/>
      <use x="476.753906" xlink:href="#DejaVuSans-58"/>
      <use x="510.445312" xlink:href="#DejaVuSans-32"/>
      <use x="542.232422" xlink:href="#DejaVuSans-32"/>
      <use x="574.019531" xlink:href="#DejaVuSans-32"/>
      <use x="605.806641" xlink:href="#DejaVuSans-32"/>
      <use x="637.59375" xlink:href="#DejaVuSans-32"/>
      <use x="669.380859" xlink:href="#DejaVuSans-32"/>
      <use x="701.167969" xlink:href="#DejaVuSans-32"/>
      <use x="732.955078" xlink:href="#DejaVuSans-32"/>
      <use x="764.742188" xlink:href="#DejaVuSans-32"/>
      <use x="796.529297" xlink:href="#DejaVuSans-48"/>
      <use x="860.152344" xlink:href="#DejaVuSans-46"/>
      <use x="891.939453" xlink:href="#DejaVuSans-54"/>
      <use x="955.5625" xlink:href="#DejaVuSans-56"/>
      <use x="1019.185547" xlink:href="#DejaVuSans-50"/>
      <use x="1082.808594" xlink:href="#DejaVuSans-57"/>
      <use x="1146.431641" xlink:href="#DejaVuSans-32"/>
      <use x="1178.21875" xlink:href="#DejaVuSans-32"/>
      <use x="1210.005859" xlink:href="#DejaVuSans-32"/>
      <use x="1241.792969" xlink:href="#DejaVuSans-32"/>
      <use x="1273.580078" xlink:href="#DejaVuSans-32"/>
      <use x="1305.367188" xlink:href="#DejaVuSans-32"/>
      <use x="1337.154297" xlink:href="#DejaVuSans-32"/>
      <use x="1368.941406" xlink:href="#DejaVuSans-32"/>
     </g>
    </g>
    <g id="line2d_39"/>
    <g id="line2d_40"/>
    <g id="text_24">
     <!-- RankIC (+)rate: 0.6600 -->
     <g transform="translate(523.357969 86.552813)scale(0.1 -0.1)">
      <defs>
       <path d="M 46 62.703125 
L 46 35.5 
L 73.1875 35.5 
L 73.1875 27.203125 
L 46 27.203125 
L 46 0 
L 37.796875 0 
L 37.796875 27.203125 
L 10.59375 27.203125 
L 10.59375 35.5 
L 37.796875 35.5 
L 37.796875 62.703125 
z
" id="DejaVuSans-43"/>
       <path d="M 41.109375 46.296875 
Q 39.59375 47.171875 37.8125 47.578125 
Q 36.03125 48 33.890625 48 
Q 26.265625 48 22.1875 43.046875 
Q 18.109375 38.09375 18.109375 28.8125 
L 18.109375 0 
L 9.078125 0 
L 9.078125 54.6875 
L 18.109375 54.6875 
L 18.109375 46.1875 
Q 20.953125 51.171875 25.484375 53.578125 
Q 30.03125 56 36.53125 56 
Q 37.453125 56 38.578125 55.875 
Q 39.703125 55.765625 41.0625 55.515625 
z
" id="DejaVuSans-114"/>
      </defs>
      <use xlink:href="#DejaVuSans-82"/>
      <use x="67.232422" xlink:href="#DejaVuSans-97"/>
      <use x="128.511719" xlink:href="#DejaVuSans-110"/>
      <use x="191.890625" xlink:href="#DejaVuSans-107"/>
      <use x="249.800781" xlink:href="#DejaVuSans-73"/>
      <use x="279.292969" xlink:href="#DejaVuSans-67"/>
      <use x="349.117188" xlink:href="#DejaVuSans-32"/>
      <use x="380.904297" xlink:href="#DejaVuSans-40"/>
      <use x="419.917969" xlink:href="#DejaVuSans-43"/>
      <use x="503.707031" xlink:href="#DejaVuSans-41"/>
      <use x="542.720703" xlink:href="#DejaVuSans-114"/>
      <use x="583.833984" xlink:href="#DejaVuSans-97"/>
      <use x="645.113281" xlink:href="#DejaVuSans-116"/>
      <use x="684.322266" xlink:href="#DejaVuSans-101"/>
      <use x="745.845703" xlink:href="#DejaVuSans-58"/>
      <use x="779.537109" xlink:href="#DejaVuSans-32"/>
      <use x="811.324219" xlink:href="#DejaVuSans-48"/>
      <use x="874.947266" xlink:href="#DejaVuSans-46"/>
      <use x="906.734375" xlink:href="#DejaVuSans-54"/>
      <use x="970.357422" xlink:href="#DejaVuSans-54"/>
      <use x="1033.980469" xlink:href="#DejaVuSans-48"/>
      <use x="1097.603516" xlink:href="#DejaVuSans-48"/>
     </g>
    </g>
   </g>
  </g>
 </g>
 <defs>
  <clipPath id="p46c999c29c">
   <rect height="398.84" width="1056.98" x="50.9" y="25.92"/>
  </clipPath>
 </defs>
</svg>
